<?xml version="1.0" standalone="no"?>
<!DOCTYPE svg PUBLIC "-//W3C//DTD SVG 20010904//EN"
 "http://www.w3.org/TR/2001/REC-SVG-20010904/DTD/svg10.dtd">
<svg version="1.0" xmlns="http://www.w3.org/2000/svg"
 width="1387.000000pt" height="304.000000pt" viewBox="0 0 1387.000000 304.000000"
 preserveAspectRatio="xMidYMid meet">
<metadata>
Created by potrace 1.16, written by Peter Selinger 2001-2019
</metadata>
<g transform="translate(0.000000,304.000000) scale(0.100000,-0.100000)"
fill="#000000" stroke="none">
<path d="M8448 3033 c12 -2 32 -2 45 0 12 2 2 4 -23 4 -25 0 -35 -2 -22 -4z"/>
<path d="M8532 3035 c8 -9 3954 -14 4073 -6 61 4 -832 9 -1984 9 -1152 1
-2092 0 -2089 -3z"/>
<path d="M12970 3009 c216 -11 900 -11 900 1 0 7 -178 9 -517 8 -345 -1 -473
-4 -383 -9z"/>
<path d="M1140 2880 c0 -77 -1 -82 -20 -77 -18 5 -20 0 -20 -46 l0 -52 -20 25
c-13 18 -15 27 -7 32 7 4 -2 8 -20 8 -18 0 -33 5 -33 10 0 6 14 10 30 10 17 0
30 5 30 10 0 11 -13 14 -44 10 -11 -1 -16 3 -14 12 3 7 17 12 32 11 25 -2 26
0 26 50 l0 52 -60 0 -60 0 0 -53 c0 -51 1 -52 25 -46 19 5 25 2 25 -10 0 -10
-9 -16 -25 -16 -14 0 -25 -4 -25 -10 0 -5 9 -10 19 -10 11 0 22 -4 25 -9 7
-10 -17 -21 -46 -21 -11 0 -18 -5 -15 -12 2 -7 9 -12 15 -11 76 17 87 15 102
-14 22 -42 52 -71 57 -55 6 15 73 16 73 1 0 -5 4 -7 10 -4 5 3 8 28 6 56 -1
27 1 49 6 49 5 0 8 8 6 18 -2 12 -11 16 -31 14 -24 -3 -27 0 -27 27 0 26 4 30
33 33 17 2 30 8 27 13 -3 6 -18 9 -33 7 -27 -2 -28 0 -25 34 2 23 -2 39 -9 41
-10 4 -13 -16 -13 -77z m-130 24 c0 -8 -4 -12 -10 -9 -5 3 -10 10 -10 16 0 5
5 9 10 9 6 0 10 -7 10 -16z m23 -16 c-6 -30 -5 -32 11 -19 19 16 36 7 19 -10
-19 -19 -43 -2 -43 31 0 16 4 30 10 30 5 0 7 -14 3 -32z m-43 -18 c0 -5 -4
-10 -10 -10 -5 0 -10 5 -10 10 0 6 5 10 10 10 6 0 10 -4 10 -10z m198 -127
c-3 -35 -6 -38 -35 -41 -32 -3 -33 -2 -33 37 0 40 1 41 36 41 35 0 35 -1 32
-37z"/>
<path d="M2186 2881 c1 -51 2 -56 22 -54 14 2 22 -3 22 -12 0 -8 -9 -15 -20
-15 -11 0 -20 -4 -20 -10 0 -5 9 -10 21 -10 12 0 19 -5 16 -12 -2 -7 -14 -12
-25 -10 -24 4 -30 -16 -11 -35 8 -8 8 -17 -1 -33 -13 -23 -8 -36 9 -25 6 3 11
19 11 36 0 16 4 29 9 29 5 0 9 -11 9 -25 0 -32 10 -44 21 -26 5 7 14 10 20 7
6 -4 11 -1 11 8 0 21 -21 31 -31 15 -7 -11 -9 -9 -9 7 0 16 8 23 31 28 46 9
49 8 49 -16 0 -21 0 -21 -15 -2 -14 18 -15 17 -9 -11 4 -16 11 -31 16 -33 4
-2 8 -10 8 -18 0 -16 16 -19 25 -4 9 14 68 13 83 -2 9 -9 12 1 14 45 1 31 2
65 2 74 1 12 -7 18 -24 18 -20 0 -25 5 -25 25 0 17 6 26 20 28 43 7 48 11 35
28 -9 10 -16 12 -24 4 -5 -5 -16 -10 -23 -10 -16 0 -17 32 -2 47 8 8 8 13 -1
18 -15 9 -20 4 -22 -28 -1 -15 -6 -27 -10 -27 -4 0 -8 -20 -8 -44 0 -43 -1
-44 -27 -41 -16 2 -30 4 -33 5 -3 1 -15 1 -27 0 -16 -1 -23 4 -23 16 0 13 6
16 35 11 35 -6 35 -6 37 34 0 21 1 45 2 52 1 8 -14 11 -51 9 -28 -2 -59 1 -70
6 -17 9 -18 5 -17 -47z m52 -6 c-3 -3 -9 2 -12 12 -6 14 -5 15 5 6 7 -7 10
-15 7 -18z m36 3 c-2 -13 -2 -17 2 -10 8 17 24 15 24 -3 0 -16 -9 -19 -34 -9
-20 8 -21 44 -2 44 9 0 13 -8 10 -22z m41 -108 c-28 -12 -65 -12 -65 0 0 6 19
10 43 9 32 0 37 -2 22 -9z m105 -40 c0 -39 -1 -40 -35 -40 -34 0 -35 1 -35 40
0 39 1 40 35 40 34 0 35 -1 35 -40z"/>
<path d="M112 2918 c-15 -15 -15 -53 0 -78 10 -15 9 -22 -6 -39 -42 -46 17
-111 69 -77 27 18 32 47 15 92 -8 19 -8 30 0 38 14 14 13 49 -2 64 -7 7 -24
12 -38 12 -14 0 -31 -5 -38 -12z m53 -28 c0 -13 -6 -25 -12 -27 -16 -6 -27 21
-19 43 9 23 31 11 31 -16z m5 -128 c0 -21 -30 -26 -44 -7 -11 15 -11 21 2 36
15 17 16 17 28 1 8 -9 14 -23 14 -30z"/>
<path d="M1872 2913 c6 -7 17 -13 24 -13 10 0 14 -14 13 -52 0 -56 -23 -125
-53 -159 -29 -35 -10 -32 23 3 18 18 37 52 43 76 7 23 15 42 18 42 3 0 15 -19
26 -42 10 -24 20 -46 22 -49 1 -3 -19 -14 -45 -24 -57 -21 -75 -35 -47 -35 12
0 41 11 65 23 l44 24 46 -25 c29 -17 52 -23 64 -18 23 9 11 19 -42 36 -24 7
-43 17 -43 22 0 11 50 91 63 99 17 12 -3 29 -33 29 -28 0 -28 1 -18 36 5 20 8
37 6 39 -8 8 -87 -8 -82 -16 3 -5 9 -7 14 -4 18 11 37 -6 32 -31 -4 -20 -10
-24 -39 -24 -35 0 -36 0 -31 38 l5 37 -42 0 c-33 0 -41 -3 -33 -12z m180 -106
c-2 -10 -13 -29 -24 -42 l-21 -25 -24 35 c-13 20 -21 40 -18 46 4 5 26 9 48 7
34 -2 41 -6 39 -21z"/>
<path d="M3174 2904 c-5 -21 -11 -24 -30 -20 l-24 6 0 -104 c0 -97 10 -138 24
-101 7 20 46 19 62 -2 7 -10 15 -16 17 -13 3 3 7 52 8 110 3 105 3 105 -20
102 -20 -2 -22 0 -11 12 12 15 6 36 -10 36 -5 0 -13 -12 -16 -26z m36 -74 c0
-28 -3 -30 -35 -30 -30 0 -35 3 -35 23 0 31 7 37 42 37 24 0 28 -4 28 -30z m0
-86 c0 -34 -1 -35 -32 -32 -29 3 -33 7 -36 36 -3 31 -2 32 32 32 35 0 36 -1
36 -36z"/>
<path d="M3284 2913 c-3 -10 -14 -37 -25 -60 -21 -47 -9 -58 17 -17 14 21 23
25 58 22 l41 -3 -3 -65 c-4 -89 -19 -116 -60 -112 -18 2 -32 -1 -32 -7 0 -6 8
-11 18 -11 10 0 24 -6 31 -12 20 -20 58 33 56 80 -1 20 2 39 5 42 4 3 9 29 12
58 l5 52 -55 0 c-46 0 -53 2 -42 15 12 15 6 35 -11 35 -5 0 -12 -8 -15 -17z"/>
<path d="M3597 2854 c1 -42 -1 -83 -4 -90 -3 -10 -23 -14 -61 -14 -66 0 -60
-17 8 -22 41 -3 45 -6 48 -30 l3 -28 -70 0 c-41 0 -71 -4 -71 -10 0 -6 57 -10
151 -10 116 0 150 3 146 13 -3 8 -22 11 -65 8 l-62 -3 0 31 c0 31 1 31 50 31
51 0 61 8 36 29 -10 8 -16 9 -21 1 -8 -12 -65 -14 -65 -1 0 5 7 11 15 15 8 3
20 17 25 31 13 33 25 32 47 -5 9 -16 21 -30 25 -30 17 0 7 35 -19 62 -22 23
-24 30 -13 43 15 19 7 30 -16 21 -9 -3 -14 -12 -10 -21 3 -8 1 -15 -4 -15 -6
0 -10 -6 -10 -12 0 -7 -9 -24 -20 -38 l-21 -25 3 70 c1 54 -2 71 -13 73 -11 2
-14 -12 -12 -74z"/>
<path d="M3846 2923 c-3 -3 -6 -19 -6 -35 0 -22 -5 -28 -22 -28 -23 -1 -23 -1
-3 -16 19 -14 19 -16 2 -63 -22 -62 -21 -72 3 -42 l20 23 0 -66 c0 -37 4 -66
10 -66 6 0 10 34 10 81 0 71 2 80 15 69 12 -10 15 -10 15 3 0 8 -7 20 -15 27
-22 18 -18 32 8 28 13 -2 23 -11 25 -23 2 -18 11 -21 59 -23 78 -3 81 -12 5
-12 -87 0 -78 -18 11 -23 l72 -3 -82 -2 c-45 -1 -85 -6 -88 -12 -4 -6 5 -10
19 -10 35 0 33 -22 -4 -43 -29 -17 -40 -37 -21 -37 16 0 71 51 71 66 0 8 5 14
10 14 6 0 10 -13 10 -30 0 -23 -4 -30 -20 -30 -27 0 -25 -16 3 -24 36 -9 37
-8 37 39 0 48 15 60 29 23 13 -34 47 -62 57 -47 4 8 -3 20 -19 34 -35 27 -34
35 3 35 32 0 40 14 15 27 -12 7 -13 19 -6 61 4 28 6 54 3 57 -3 2 -16 2 -28
-1 -15 -4 -24 -2 -24 5 0 6 13 11 29 11 31 0 50 15 28 22 -25 7 -187 -4 -182
-13 4 -5 18 -10 33 -10 24 -2 24 -2 5 -6 -13 -2 -23 -8 -23 -13 0 -4 -11 -7
-25 -6 -22 1 -25 5 -20 28 6 25 -5 44 -19 31z m104 -89 c0 -31 -23 -28 -28 4
-2 15 2 22 12 22 11 0 16 -9 16 -26z m40 1 c0 -14 -4 -25 -10 -25 -5 0 -10 11
-10 25 0 14 5 25 10 25 6 0 10 -11 10 -25z m55 2 c0 -26 -20 -25 -23 2 -3 16
1 22 10 19 7 -3 13 -12 13 -21z"/>
<path d="M5000 2914 c-14 -7 -50 -14 -82 -14 -54 0 -57 -2 -77 -36 -27 -45
-27 -58 0 -43 21 11 21 10 16 -37 -8 -67 -17 -96 -35 -117 -18 -20 -9 -35 11
-19 8 7 16 9 20 6 3 -3 15 -1 26 6 25 13 28 50 5 50 -9 0 -14 6 -12 13 3 8 34
13 97 15 l92 3 -3 -38 c-2 -31 -7 -39 -25 -41 -15 -2 -23 2 -23 11 0 16 -37
53 -46 44 -7 -7 15 -49 35 -64 9 -7 28 -13 43 -13 22 0 29 6 34 28 3 15 10 37
15 50 11 28 4 42 -20 42 -14 0 -17 6 -13 30 2 17 8 30 13 30 15 0 10 37 -6 50
-8 7 -13 16 -10 20 8 12 -6 40 -19 39 -6 -1 -22 -7 -36 -15z m44 -55 c10 -17
16 -31 14 -33 -1 -1 -11 -8 -21 -15 -16 -13 -17 -12 -8 13 11 28 11 29 -37 26
-52 -3 -30 34 23 39 6 1 19 -13 29 -30z m-100 6 c4 -12 -3 -15 -34 -15 -57 0
-51 27 6 29 12 1 24 -6 28 -14z m8 -45 c21 0 38 -4 38 -10 0 -5 -22 -10 -50
-10 -45 0 -50 2 -50 22 0 17 3 19 12 10 7 -7 29 -12 50 -12z m78 -50 c0 -6
-30 -10 -70 -10 -40 0 -70 4 -70 10 0 6 30 10 70 10 40 0 70 -4 70 -10z m-169
-93 c-10 -9 -11 -8 -5 6 3 10 9 15 12 12 3 -3 0 -11 -7 -18z"/>
<path d="M1515 2901 c3 -12 1 -38 -6 -59 -7 -20 -14 -39 -14 -42 -1 -3 -5 -12
-8 -20 -28 -66 -28 -70 1 -70 24 0 27 4 28 33 1 55 10 67 49 67 44 0 65 19 65
59 0 36 -6 40 -71 48 -49 6 -51 5 -44 -16z m88 -25 c8 -20 -21 -56 -44 -56
-16 0 -18 5 -13 28 4 15 9 30 11 35 7 12 41 8 46 -7z"/>
<path d="M4274 2905 c2 -5 8 -9 14 -8 6 2 17 -7 23 -20 7 -12 19 -27 27 -33 9
-6 13 -18 9 -28 -5 -13 -21 -16 -82 -16 -48 0 -75 4 -75 11 0 6 13 28 30 49
26 33 28 39 14 44 -9 4 -17 5 -18 4 -19 -40 -54 -98 -69 -115 l-19 -22 56 6
c52 5 56 4 49 -13 -14 -40 -53 -93 -73 -99 -23 -7 -27 -25 -5 -25 23 0 85 68
85 93 0 33 19 47 62 47 35 0 38 -2 38 -29 0 -17 -4 -33 -10 -36 -5 -3 -10 -15
-10 -26 0 -15 -7 -19 -32 -19 -32 -1 -32 -1 -13 -16 45 -34 72 -5 74 83 1 48
12 59 42 43 14 -8 25 -8 31 -2 6 6 -5 20 -31 38 -39 28 -55 52 -56 84 0 10
-10 15 -33 15 -17 0 -30 -4 -28 -10z"/>
<path d="M4730 2863 c0 -32 -3 -88 -7 -125 -5 -63 -8 -68 -29 -68 -13 0 -24
-4 -24 -9 0 -12 56 -25 70 -16 6 4 10 55 10 125 0 76 4 121 11 126 8 4 7 9 -2
15 -25 16 -29 9 -29 -48z"/>
<path d="M2805 2902 c-37 -12 -64 -38 -80 -75 -20 -49 -19 -84 6 -115 l20 -26
-23 -17 c-31 -24 -19 -32 52 -37 44 -3 66 0 85 12 30 20 35 42 6 26 -25 -13
-101 -13 -101 0 0 6 4 10 10 10 5 0 29 12 54 27 118 72 94 234 -29 195z m67
-37 c23 -51 -43 -160 -94 -153 -19 2 -24 10 -26 42 -5 54 3 78 34 109 34 34
71 35 86 2z"/>
<path d="M4497 2904 c-4 -4 -7 -27 -7 -52 0 -37 3 -43 16 -38 15 6 16 0 11
-51 -4 -35 -14 -68 -27 -86 -12 -16 -19 -31 -16 -35 11 -10 40 26 57 71 13 33
22 43 43 45 23 3 26 0 26 -27 0 -47 -9 -61 -41 -61 -16 0 -29 -4 -29 -10 0 -9
67 -26 75 -18 2 2 10 34 18 71 15 72 16 70 -41 67 -28 -1 -33 2 -30 17 4 21
48 32 48 12 0 -32 29 19 32 56 l3 40 -65 3 c-36 1 -69 0 -73 -4z m101 -42 c-3
-23 -8 -27 -40 -30 -36 -3 -38 -2 -38 26 0 28 2 30 41 30 38 1 40 -1 37 -26z"/>
<path d="M3500 2845 c-13 -30 -27 -55 -32 -55 -4 0 -8 -6 -8 -12 1 -7 16 5 36
26 l34 40 12 -32 c7 -18 16 -32 20 -32 16 0 8 40 -12 60 -17 17 -17 21 -5 33
8 8 11 17 8 21 -16 16 -32 2 -53 -49z"/>
<path d="M5442 2885 c-43 -24 -57 -55 -57 -130 0 -56 4 -76 22 -101 25 -35 63
-51 63 -27 0 8 -9 17 -20 20 -25 7 -35 40 -35 114 1 49 5 61 33 93 43 49 42
58 -6 31z"/>
<path d="M4672 2803 l2 -88 3 78 c3 59 7 77 18 77 8 0 15 5 15 10 0 6 -9 10
-20 10 -19 0 -20 -6 -18 -87z"/>
<path d="M5678 2868 c-24 -24 -9 -39 18 -17 12 10 18 9 30 -3 18 -17 9 -44
-18 -59 -20 -11 -20 -11 3 -23 17 -8 24 -20 24 -41 0 -28 -2 -30 -37 -29 -25
1 -38 -3 -38 -12 0 -32 79 -22 106 14 15 19 19 72 5 72 -18 0 -21 33 -4 52 17
19 17 21 -10 44 -35 30 -51 30 -79 2z"/>
<path d="M6120 2884 c0 -5 9 -20 20 -34 15 -20 20 -41 20 -102 0 -68 -3 -80
-26 -107 -31 -37 -10 -44 24 -8 48 51 59 123 28 187 -19 39 -66 85 -66 64z"/>
<path d="M6470 2880 c0 -5 16 -10 36 -10 l37 0 -6 -65 c-6 -65 -21 -98 -66
-147 -13 -15 -22 -31 -18 -34 17 -17 97 86 97 125 1 22 4 19 26 -22 14 -27 24
-51 22 -53 -2 -2 -29 -15 -59 -28 -41 -19 -48 -25 -29 -25 14 0 45 9 69 20
l45 20 47 -21 c57 -24 69 -25 69 -5 0 8 -7 15 -15 15 -22 0 -65 22 -65 33 0 5
13 31 29 57 32 52 31 60 -7 60 -25 0 -26 6 -7 65 6 20 2 21 -99 23 -69 2 -106
-1 -106 -8z m170 -27 c-1 -29 -25 -53 -54 -53 -23 0 -26 4 -26 35 0 34 1 35
40 35 32 0 40 -4 40 -17z m40 -80 c0 -10 -50 -73 -59 -73 -6 0 -41 63 -41 75
0 3 23 5 50 5 28 0 50 -3 50 -7z"/>
<path d="M6006 2846 c-21 -45 -21 -49 17 -66 27 -13 32 -20 32 -50 0 -34 -1
-35 -38 -33 -32 2 -38 0 -35 -15 4 -24 50 -27 76 -5 12 10 27 33 32 52 9 32 7
37 -31 73 -22 21 -39 38 -37 39 2 0 15 2 30 3 16 1 36 9 45 19 16 16 15 17
-29 17 -42 0 -47 -3 -62 -34z"/>
<path d="M7076 2859 c-38 -30 -56 -71 -56 -130 0 -57 29 -114 62 -123 24 -6
23 7 -2 29 -43 38 -35 177 13 215 12 10 19 21 16 24 -3 4 -18 -3 -33 -15z"/>
<path d="M8969 2850 c-6 -16 -15 -30 -20 -30 -5 0 -2 -12 8 -26 15 -24 15 -28
1 -38 -15 -11 -33 -146 -18 -146 4 0 12 19 19 41 10 34 10 43 -1 50 -11 7 -10
11 2 19 13 8 15 -1 18 -61 3 -74 22 -89 22 -16 0 31 3 38 12 29 8 -8 17 -8 30
-1 39 21 43 2 7 -34 -31 -31 -34 -37 -18 -37 24 0 69 43 69 65 0 8 5 15 10 15
10 0 14 -14 11 -38 -4 -25 21 -42 60 -42 40 0 45 7 29 45 -7 18 -8 18 -15 -7
-8 -32 -12 -34 -36 -12 -26 23 -13 44 27 44 31 0 34 2 29 23 -3 12 -7 35 -9
50 -2 16 -9 33 -17 38 -11 7 -10 9 4 9 10 0 17 6 15 12 -3 8 -19 12 -42 10
-26 -3 -36 0 -32 7 4 6 18 11 32 11 15 0 24 6 24 16 0 12 -7 14 -29 9 -21 -4
-30 -2 -34 9 -8 21 -27 20 -27 0 0 -12 -6 -15 -26 -10 -19 5 -25 3 -21 -6 2
-7 14 -12 26 -11 13 2 21 -3 21 -12 0 -17 -45 -21 -55 -5 -11 18 -42 11 -53
-12 -11 -23 -11 -23 -11 4 -1 15 4 30 9 33 13 8 13 35 -1 35 -5 0 -15 -13 -20
-30z m81 -60 c13 -9 13 -11 0 -20 -10 -6 -11 -10 -2 -10 6 0 12 -4 12 -10 0
-16 -27 -12 -34 5 -3 8 -10 15 -16 15 -6 0 -8 -4 -5 -10 3 -5 -1 -10 -11 -10
-14 0 -15 2 -3 18 27 33 36 37 59 22z m100 -10 c0 -13 -30 -13 -50 0 -11 7 -7
10 18 10 17 0 32 -4 32 -10z m0 -30 c0 -6 -13 -9 -30 -8 -16 1 -30 6 -30 10 0
4 14 8 30 8 17 0 30 -5 30 -10z m-116 -43 c6 -9 7 -19 4 -23 -9 -8 -38 20 -38
36 0 16 21 8 34 -13z m156 -9 c0 -5 -29 -8 -65 -8 -66 0 -82 9 -44 26 23 10
109 -4 109 -18z"/>
<path d="M7142 2858 c-7 -7 -12 -20 -12 -31 0 -17 1 -17 16 -3 30 31 74 13 74
-30 0 -13 -21 -46 -50 -77 -27 -30 -50 -58 -50 -61 0 -3 29 -6 64 -6 59 0 76
8 76 35 0 1 -21 0 -47 -3 l-47 -5 42 48 c34 38 42 55 42 86 0 28 -5 41 -19 49
-26 14 -74 13 -89 -2z"/>
<path d="M7790 2864 c0 -3 12 -20 26 -37 24 -28 26 -37 22 -108 -3 -66 -7 -81
-28 -104 -20 -22 -21 -25 -5 -19 55 22 90 123 65 189 -16 44 -80 106 -80 79z"/>
<path d="M9291 2761 c-1 -57 -7 -114 -12 -128 -11 -30 -11 -33 -1 -33 18 0 34
59 39 148 l6 92 43 0 c32 0 44 -4 44 -15 0 -9 -9 -15 -25 -15 -22 0 -25 -4
-25 -33 0 -18 -5 -38 -12 -45 -9 -9 -9 -17 2 -36 12 -23 10 -27 -16 -49 -16
-14 -26 -29 -21 -33 4 -4 17 2 30 13 12 11 30 23 40 26 21 8 22 23 1 31 -20 8
-9 26 17 26 16 0 19 -7 19 -40 0 -36 -2 -40 -25 -40 -14 0 -25 -4 -25 -10 0
-5 6 -10 14 -10 8 0 16 -6 19 -12 8 -27 37 13 37 52 0 45 22 69 45 50 25 -21
36 1 33 61 l-3 54 -42 -3 c-34 -3 -43 0 -43 12 0 13 12 16 60 16 41 0 60 4 60
13 0 9 -32 12 -128 12 l-128 0 -3 -104z m199 19 c0 -6 -27 -10 -60 -10 -33 0
-60 4 -60 10 0 6 27 10 60 10 33 0 60 -4 60 -10z m-2 -42 c-5 -14 -80 -23
-105 -14 -30 12 0 26 53 26 40 0 55 -4 52 -12z"/>
<path d="M9620 2806 c0 -57 1 -58 24 -52 14 3 28 2 31 -4 4 -6 -7 -10 -26 -10
-27 0 -30 -2 -19 -15 7 -9 19 -14 26 -11 6 2 15 2 18 -1 9 -10 -15 -33 -34
-33 -14 0 -17 -9 -17 -40 0 -26 4 -39 11 -37 17 6 20 38 4 48 -10 7 -9 9 5 9
9 0 17 -6 17 -14 0 -21 27 -40 33 -24 4 10 7 10 15 -1 12 -17 24 1 16 23 -7
18 -24 22 -24 6 0 -5 -4 -10 -10 -10 -5 0 -10 7 -10 15 0 9 9 15 24 15 17 0
26 -7 30 -25 4 -14 11 -25 16 -25 6 0 10 -7 10 -15 0 -17 25 -20 35 -5 9 14
62 12 68 -2 8 -23 14 -4 20 65 5 52 3 67 -6 64 -7 -2 -13 -25 -15 -50 -3 -46
-4 -47 -38 -47 -34 0 -35 1 -32 33 2 26 8 33 28 35 23 3 25 6 22 42 -4 36 -2
39 25 42 34 4 28 24 -6 21 -21 -2 -23 1 -18 32 4 26 2 35 -8 35 -11 0 -15 -19
-17 -72 -3 -69 -4 -73 -28 -77 -14 -1 -28 -7 -31 -13 -4 -5 -9 2 -11 16 -3 15
-1 29 3 32 5 3 9 29 9 57 l0 52 -70 0 -70 0 0 -59z m90 4 c0 -16 -4 -30 -10
-30 -11 0 -14 43 -3 53 11 12 13 8 13 -23z m-63 -22 c-3 -7 -5 -2 -5 12 0 14
2 19 5 13 2 -7 2 -19 0 -25z m83 -38 c0 -5 -9 -10 -20 -10 -11 0 -20 5 -20 10
0 6 9 10 20 10 11 0 20 -4 20 -10z m10 -50 c0 -5 -9 -10 -20 -10 -11 0 -20 5
-20 10 0 6 9 10 20 10 11 0 20 -4 20 -10z m20 -36 c0 -8 -4 -12 -10 -9 -5 3
-10 10 -10 16 0 5 5 9 10 9 6 0 10 -7 10 -16z"/>
<path d="M10600 2862 c0 -10 33 -42 43 -42 15 0 6 30 -12 40 -24 12 -31 13
-31 2z"/>
<path d="M10690 2863 c0 -5 7 -17 15 -27 22 -29 19 -36 -15 -36 -16 0 -30 -4
-30 -8 0 -4 18 -7 40 -5 39 2 40 1 40 -32 0 -46 -16 -85 -46 -113 -36 -34 -58
-14 -51 45 4 41 -8 67 -22 45 -3 -5 -15 -12 -26 -15 -18 -4 -18 -5 3 -6 18 -1
22 -7 22 -36 0 -29 -4 -36 -25 -41 -16 -4 -25 -13 -25 -25 0 -24 12 -24 34 0
17 19 18 19 54 -2 28 -17 51 -21 110 -20 43 0 79 6 85 13 9 9 -5 10 -65 5 -88
-8 -96 -1 -53 48 23 26 75 38 75 17 0 -5 4 -10 9 -10 5 0 12 26 16 58 4 31 11
62 15 67 5 6 5 17 1 24 -7 11 -12 11 -29 0 -30 -19 -38 -5 -13 22 14 16 18 26
11 33 -7 7 -20 -2 -41 -27 -31 -38 -56 -49 -45 -21 4 10 -1 25 -10 35 -17 19
-34 25 -34 12z m104 -79 c11 -4 16 -19 16 -45 0 -35 -3 -39 -25 -39 -22 0 -25
4 -25 38 0 49 6 57 34 46z"/>
<path d="M11081 2857 c3 -29 -3 -37 -28 -38 l-28 -1 25 -7 c14 -4 26 -15 28
-24 3 -14 -4 -17 -37 -17 l-41 0 0 41 c0 34 -2 39 -14 30 -14 -12 -42 -11 -63
2 -10 6 -13 -18 -13 -112 0 -74 4 -121 10 -121 6 0 10 7 10 15 0 8 9 15 20 15
11 0 20 -5 20 -11 0 -26 25 1 30 32 5 34 5 34 60 34 l55 0 3 -43 c3 -35 0 -44
-17 -50 -20 -7 -20 -8 -1 -19 16 -11 21 -9 35 9 8 13 15 42 15 65 0 38 3 43
23 43 20 1 21 2 5 14 -22 16 -23 36 -2 36 9 0 14 6 11 13 -2 8 -19 11 -46 9
-37 -3 -42 -1 -39 15 2 13 15 19 43 23 24 3 35 8 28 13 -7 4 -23 5 -36 1 -14
-3 -28 -1 -31 5 -4 6 0 11 9 11 21 0 11 16 -15 23 -12 3 -20 1 -19 -6z m-98
-58 c15 -25 1 -49 -29 -49 -20 0 -25 4 -20 16 3 9 6 25 6 36 0 23 28 21 43 -3z
m145 -66 c-3 -15 -14 -18 -63 -18 -49 0 -60 3 -63 18 -3 15 5 17 63 17 58 0
66 -2 63 -17z m-155 -40 c-4 -24 -11 -33 -24 -33 -26 0 -28 67 -1 73 25 5 31
-4 25 -40z"/>
<path d="M7645 2839 c-9 -26 0 -35 19 -20 8 7 25 11 38 9 19 -2 23 -9 21 -32
-1 -16 -6 -32 -10 -35 -13 -9 -42 -110 -33 -116 13 -8 27 16 44 76 9 31 23 69
31 85 25 49 21 54 -44 54 -52 0 -61 -3 -66 -21z"/>
<path d="M11303 2853 c4 -3 -9 -25 -28 -49 -19 -23 -35 -45 -35 -48 0 -2 12
-4 28 -3 22 2 27 -2 28 -23 1 -14 3 -29 4 -35 1 -5 2 -27 1 -47 -1 -31 -5 -38
-21 -38 -11 0 -23 -7 -27 -15 -7 -20 5 -34 16 -17 4 6 30 19 59 27 51 15 78
35 48 35 -18 0 -21 16 -6 25 15 9 12 25 -4 25 -16 0 -31 -34 -21 -50 3 -5 -1
-10 -10 -10 -13 0 -16 8 -13 38 2 30 7 38 26 40 12 2 22 10 22 18 0 16 -16 19
-25 4 -7 -11 -25 -4 -25 9 0 15 49 19 54 5 3 -8 19 -14 36 -14 l30 0 0 -86 c0
-54 4 -83 10 -79 6 3 10 42 10 86 l0 79 35 0 c26 0 35 4 35 16 0 13 -7 15 -34
10 -33 -6 -34 -5 -38 29 -2 22 1 40 9 47 19 15 16 28 -7 28 -18 0 -20 -7 -20
-56 l0 -55 -32 3 c-28 3 -33 7 -30 27 3 27 -42 81 -67 81 -8 0 -11 -3 -8 -7z
m48 -44 c13 -26 -1 -39 -45 -39 -28 0 -28 1 -13 18 10 10 17 24 17 30 0 20 29
13 41 -9z"/>
<path d="M11708 2833 c-3 -26 -5 -27 -60 -24 -36 1 -58 -2 -58 -8 0 -7 23 -11
56 -11 l56 0 -6 -37 c-13 -73 -27 -102 -67 -138 -23 -20 -39 -39 -36 -41 6 -7
47 18 47 28 0 5 6 8 14 8 18 0 48 46 56 85 5 28 9 30 50 30 l45 0 -3 -40 c-5
-55 -26 -85 -60 -85 l-27 0 33 -17 c45 -22 60 -6 73 81 14 87 10 98 -33 85
-54 -15 -68 -12 -68 16 0 24 2 25 71 25 52 0 70 3 66 13 -4 12 -12 13 -86 1
l-44 -7 6 32 c5 23 3 31 -8 31 -7 0 -15 -12 -17 -27z"/>
<path d="M12028 2829 c-10 -30 -13 -31 -54 -26 l-44 5 0 -124 c0 -154 18 -168
22 -16 l3 107 104 3 103 3 -6 -88 c-3 -48 -5 -89 -6 -90 0 -2 -12 -3 -27 -3
-26 0 -26 -1 -7 -15 28 -21 51 -18 57 8 9 34 12 205 4 213 -3 4 -12 3 -19 -3
-15 -11 -118 -5 -118 7 0 4 7 13 15 20 19 16 19 30 -1 30 -8 0 -20 -14 -26
-31z"/>
<path d="M12298 2832 c-2 -19 -9 -28 -25 -30 -25 -4 -32 -22 -8 -22 10 0 15
-11 16 -35 1 -19 2 -41 2 -47 1 -20 -14 -70 -30 -100 -7 -16 -9 -28 -4 -28 5
0 12 7 15 16 6 15 8 15 31 0 38 -25 74 -21 86 11 l10 26 27 -27 c31 -29 101
-41 109 -18 3 8 -7 12 -32 12 -35 0 -36 1 -33 33 2 27 8 33 31 35 17 2 26 8
24 15 -3 7 -10 11 -16 10 -6 -2 -17 -4 -23 -5 -8 -2 -13 8 -13 26 0 16 6 31
13 34 6 2 12 -3 12 -12 0 -20 7 -20 26 -1 25 24 9 31 -61 28 -48 -1 -65 1 -62
10 2 7 29 13 70 15 49 2 67 7 67 17 0 11 -12 12 -56 8 l-55 -6 7 27 c8 32 -8
34 -25 3 -16 -31 -75 -35 -68 -5 3 11 -2 22 -13 28 -16 8 -19 6 -22 -18z m62
-67 c-7 -8 -21 -15 -31 -15 -11 0 -19 7 -19 15 0 10 10 15 31 15 27 0 30 -2
19 -15z m80 -86 c0 -32 -4 -60 -9 -64 -16 -9 -32 32 -25 61 12 47 -13 18 -31
-36 -9 -28 -18 -50 -21 -50 -3 0 2 61 12 125 4 29 7 31 39 27 l35 -4 0 -59z
m-100 -7 c0 -63 -11 -83 -41 -75 -14 4 -18 11 -14 22 4 9 9 32 12 51 6 37 19
60 34 60 5 0 9 -26 9 -58z"/>
<path d="M12630 2840 c0 -12 -9 -24 -22 -29 -23 -9 -23 -9 22 -24 8 -3 3 -6
-12 -6 -16 -1 -29 -7 -29 -13 -1 -7 -2 -41 -4 -75 -2 -60 -1 -63 22 -63 20 0
23 -5 23 -36 0 -31 2 -35 15 -24 8 7 15 24 15 37 0 17 4 23 14 20 7 -3 18 -1
24 5 13 13 52 -11 52 -33 0 -20 39 -48 58 -42 6 3 12 20 12 39 0 29 3 34 24
34 14 0 27 4 30 9 8 12 -20 22 -41 14 -11 -4 -14 -3 -9 5 4 7 13 12 19 12 8 0
12 25 12 80 0 79 -1 81 -22 75 -16 -4 -23 -1 -23 9 0 8 -7 17 -16 20 -21 8
-21 8 -27 -14 -4 -14 -14 -20 -34 -21 -15 0 -38 -2 -51 -3 -15 -2 -21 2 -18
10 3 8 -4 18 -14 24 -17 9 -20 7 -20 -10z m135 -40 c4 -6 -7 -10 -24 -10 -29
0 -31 -2 -31 -40 0 -39 1 -39 30 -33 23 4 30 2 30 -11 0 -12 -9 -16 -35 -16
-29 0 -35 -4 -33 -17 2 -14 -5 -19 -32 -21 -24 -2 -31 0 -21 7 8 5 20 7 28 4
9 -4 13 7 15 41 0 25 1 52 2 59 1 6 -7 11 -16 11 -10 -1 -18 2 -18 7 0 5 9 9
19 9 11 0 23 5 26 10 3 6 17 10 30 10 13 0 27 -4 30 -10z m65 0 c0 -5 -7 -10
-15 -10 -8 0 -15 5 -15 10 0 6 7 10 15 10 8 0 15 -4 15 -10z m-60 -30 c0 -5
-7 -10 -15 -10 -8 0 -15 5 -15 10 0 6 7 10 15 10 8 0 15 -4 15 -10z m-140 -20
c0 -5 -4 -10 -10 -10 -5 0 -10 5 -10 10 0 6 5 10 10 10 6 0 10 -4 10 -10z
m133 -7 c-7 -2 -19 -2 -25 0 -7 3 -2 5 12 5 14 0 19 -2 13 -5z m54 1 c-3 -3
-12 -4 -19 -1 -8 3 -5 6 6 6 11 1 17 -2 13 -5z m-187 -50 c0 -8 -4 -14 -10
-14 -5 0 -10 9 -10 21 0 11 5 17 10 14 6 -3 10 -13 10 -21z m40 4 c0 -16 -3
-19 -11 -11 -6 6 -8 16 -5 22 11 17 16 13 16 -11z m150 13 c0 -5 -7 -11 -15
-15 -9 -3 -15 0 -15 9 0 8 7 15 15 15 8 0 15 -4 15 -9z m-190 -56 c0 -8 -7
-15 -15 -15 -16 0 -20 12 -8 23 11 12 23 8 23 -8z m170 5 c0 -5 -18 -10 -41
-10 -24 0 -38 4 -34 10 3 6 22 10 41 10 19 0 34 -4 34 -10z m0 -45 c0 -16 -6
-25 -15 -25 -8 0 -15 4 -15 9 0 5 -3 16 -6 25 -4 12 0 16 15 16 16 0 21 -6 21
-25z"/>
<path d="M8607 2835 c7 -20 -15 -99 -43 -152 l-22 -43 32 0 c29 0 33 3 29 23
-2 12 0 34 6 50 9 22 17 27 44 27 54 0 89 57 58 93 -19 23 -113 24 -104 2z
m89 -37 c1 -8 -11 -23 -27 -32 -26 -16 -30 -16 -35 -1 -4 8 -1 29 6 46 12 27
15 28 33 16 11 -7 21 -20 23 -29z"/>
<path d="M10235 2827 c-73 -40 -98 -135 -49 -183 21 -22 31 -25 62 -19 47 8
90 49 98 92 3 18 10 33 15 33 22 0 0 61 -31 87 -21 18 -49 15 -95 -10z m81 -9
c16 -26 10 -84 -12 -120 -59 -93 -136 -61 -105 42 18 62 95 113 117 78z"/>
<path d="M13174 2810 c-12 -4 -24 -16 -28 -26 -8 -20 2 -34 12 -18 13 21 49
25 66 9 9 -9 16 -19 16 -21 0 -20 -34 -75 -64 -105 l-37 -36 58 -7 c48 -6 60
-4 70 11 20 26 16 33 -12 23 -14 -5 -32 -7 -41 -3 -13 5 -12 10 9 32 31 33 51
84 43 109 -4 10 -18 24 -32 30 -29 14 -31 14 -60 2z"/>
<path d="M3282 2803 c24 -49 32 -63 40 -63 15 0 8 37 -10 53 -19 17 -36 23
-30 10z"/>
<path d="M13315 2789 c-8 -25 1 -37 17 -21 15 15 68 16 68 1 0 -6 -6 -25 -14
-42 -30 -70 -36 -89 -36 -107 0 -39 20 -19 35 34 9 30 25 72 35 94 11 23 20
46 20 52 0 6 -25 10 -59 10 -52 0 -61 -3 -66 -21z"/>
<path d="M13474 2785 c-22 -33 -21 -127 0 -161 20 -30 65 -32 91 -4 26 29 32
118 11 158 -14 27 -22 32 -51 32 -26 0 -39 -6 -51 -25z m72 -6 c4 -7 6 -39 6
-72 -1 -69 -20 -100 -46 -77 -19 15 -22 110 -6 141 12 21 35 25 46 8z"/>
<path d="M13632 2798 c-7 -7 -12 -21 -12 -33 0 -47 62 -63 81 -21 22 47 -33
90 -69 54z m47 -44 c-6 -7 -17 -10 -25 -7 -17 6 -18 15 -2 31 17 17 43 -5 27
-24z"/>
<path d="M10600 2780 c27 -21 40 -25 40 -12 0 15 -24 32 -44 32 -20 0 -19 -2
4 -20z"/>
<path d="M8167 2774 c-4 -4 -7 -20 -7 -36 0 -26 3 -29 28 -26 23 3 27 8 27 33
0 23 -5 31 -20 33 -12 2 -24 0 -28 -4z m31 -31 c-2 -10 -8 -18 -13 -18 -5 0
-11 8 -13 18 -2 10 3 17 13 17 10 0 15 -7 13 -17z"/>
<path d="M10680 2720 c0 -33 4 -60 10 -60 12 0 12 0 15 68 1 38 -2 52 -12 52
-9 0 -13 -16 -13 -60z"/>
<path d="M5482 2758 c3 -9 31 -14 81 -16 64 -2 77 0 77 13 0 12 -15 15 -81 15
-60 0 -80 -3 -77 -12z"/>
<path d="M11999 2737 c0 -12 -2 -41 -5 -64 -4 -34 -2 -43 11 -43 8 0 15 5 15
10 0 6 15 10 34 10 19 0 38 -4 41 -10 16 -26 26 -6 23 48 -3 53 -4 57 -27 54
-13 -1 -39 2 -57 7 -31 9 -34 7 -35 -12z m99 -39 c-3 -31 -6 -33 -40 -34 -37
-1 -38 0 -38 32 0 33 1 34 41 34 39 0 40 -1 37 -32z"/>
<path d="M240 2735 c0 -8 9 -15 20 -15 11 0 20 7 20 15 0 8 -9 15 -20 15 -11
0 -20 -7 -20 -15z"/>
<path d="M7457 2744 c-16 -16 10 -24 79 -24 59 0 74 3 74 15 0 12 -15 15 -73
15 -41 0 -77 -3 -80 -6z"/>
<path d="M1020 2730 c0 -5 -6 -7 -14 -4 -10 4 -12 -2 -9 -20 6 -29 23 -35 24
-8 0 14 2 14 9 -3 7 -18 8 -19 15 -2 4 9 5 24 1 32 -6 17 -26 21 -26 5z"/>
<path d="M11240 2731 c0 -5 7 -12 16 -15 14 -5 15 -4 4 9 -14 17 -20 19 -20 6z"/>
<path d="M5010 2725 c0 -12 24 -55 32 -55 12 0 10 34 -4 48 -12 12 -28 16 -28
7z"/>
<path d="M953 2701 c-8 -13 -9 -22 -3 -26 11 -7 24 18 18 35 -2 6 -9 1 -15 -9z"/>
<path d="M4923 2706 c4 -10 7 -26 7 -37 0 -10 5 -19 11 -19 15 0 6 63 -10 68
-10 3 -12 0 -8 -12z"/>
<path d="M5835 2691 c-9 -15 3 -31 22 -31 11 0 9 -5 -8 -20 -24 -19 -24 -19
-3 -20 28 0 46 23 42 52 -3 24 -41 38 -53 19z"/>
<path d="M7320 2671 c0 -11 5 -21 11 -23 9 -3 9 -10 0 -27 -12 -21 -11 -22 8
-11 26 13 29 65 5 74 -23 9 -24 8 -24 -13z"/>
<path d="M11254 2678 c3 -7 9 -21 12 -30 4 -10 10 -18 15 -18 13 0 11 34 -3
48 -16 16 -31 15 -24 0z"/>
<path d="M9471 2672 c1 -13 70 -65 76 -58 9 9 -35 53 -58 59 -10 3 -19 2 -18
-1z"/>
<path d="M11030 2673 c0 -5 9 -19 19 -32 22 -29 36 -13 15 17 -15 21 -34 30
-34 15z"/>
<path d="M1160 2470 c0 -6 -41 -9 -110 -7 -76 2 -109 0 -107 -7 2 -6 24 -13
49 -16 l45 -5 -14 -33 c-12 -28 -18 -33 -37 -28 -28 7 -40 -2 -26 -20 7 -7 25
-10 50 -7 36 5 40 3 40 -16 0 -18 -6 -21 -40 -21 -22 0 -40 -4 -40 -10 0 -5
18 -10 40 -10 38 0 40 -2 40 -30 l0 -30 -62 0 c-43 0 -59 -3 -52 -10 14 -14
281 -9 274 5 -3 6 -31 8 -62 7 l-58 -4 0 31 c0 29 2 31 40 31 28 0 40 4 40 14
0 19 -17 29 -25 16 -3 -5 -17 -10 -31 -10 -21 0 -25 4 -22 23 2 17 11 23 36
25 18 2 32 -1 32 -7 0 -6 9 -11 20 -11 11 0 20 6 20 14 0 15 -64 76 -80 76
-13 0 -13 -17 0 -25 20 -12 9 -23 -31 -29 -23 -4 -44 -4 -47 -2 -2 3 1 19 8
36 12 30 13 30 87 30 64 0 74 2 69 16 -3 9 -6 18 -6 20 0 2 -9 4 -20 4 -11 0
-20 -5 -20 -10z"/>
<path d="M1684 2436 c-9 -52 0 -66 19 -29 21 39 22 63 2 63 -8 0 -17 -14 -21
-34z"/>
<path d="M2815 2448 c-8 -18 -20 -24 -51 -26 l-42 -3 -7 -109 c-4 -60 -4 -113
0 -119 16 -28 25 8 25 105 l0 104 100 0 100 0 0 -90 0 -90 -32 0 c-31 -1 -32
-1 -14 -15 30 -23 63 -19 70 8 3 12 6 65 6 117 l0 96 -70 -4 c-47 -3 -70 -1
-70 7 0 6 7 11 16 11 19 0 13 24 -7 28 -8 1 -19 -8 -24 -20z"/>
<path d="M3133 2445 c-7 -8 -13 -19 -13 -25 0 -5 -20 -10 -45 -10 -25 0 -45
-4 -45 -10 0 -5 18 -10 40 -10 30 0 40 -4 40 -16 0 -21 -60 -134 -71 -134 -5
0 -9 -7 -9 -15 0 -28 37 2 60 48 20 40 24 43 56 39 34 -4 34 -5 34 -54 l0 -50
-55 4 c-39 2 -55 -1 -55 -9 0 -10 32 -13 125 -13 69 0 125 4 125 9 0 16 -28
33 -35 21 -3 -5 -24 -10 -46 -10 l-40 0 3 48 3 47 43 3 c41 3 53 14 31 28 -6
3 -16 1 -22 -5 -12 -12 -58 -14 -105 -5 -28 6 -30 8 -20 35 10 29 10 29 94 29
68 0 84 3 84 15 0 15 -25 21 -33 8 -3 -5 -33 -6 -67 -5 -60 4 -61 5 -56 28 7
27 -2 31 -21 9z"/>
<path d="M3610 2450 c0 -6 -45 -8 -115 -7 -63 2 -115 0 -115 -5 0 -4 27 -8 60
-8 l60 0 0 -60 0 -60 -71 0 c-44 0 -68 -4 -64 -10 3 -5 35 -10 71 -10 l65 0
-3 -52 c-2 -34 1 -53 10 -55 9 -3 12 11 12 51 l0 56 71 0 c52 0 70 3 66 13 -3
8 -23 11 -71 8 l-67 -3 3 58 3 59 55 1 c72 0 75 1 60 19 -14 17 -30 20 -30 5z"/>
<path d="M3770 2450 c-8 -5 -25 -10 -37 -10 -13 0 -23 -4 -23 -10 0 -5 10 -10
21 -10 19 0 21 -4 14 -37 -4 -21 -15 -57 -26 -80 -25 -55 -24 -64 5 -30 l22
28 -4 -61 c-4 -50 -2 -60 12 -60 13 0 16 13 16 75 0 75 7 88 30 60 16 -19 41
-19 66 0 10 8 22 15 26 15 12 0 -35 -46 -59 -59 -13 -6 -23 -17 -23 -23 0 -6
11 -3 26 7 24 16 27 16 45 -1 17 -15 19 -15 19 -1 0 8 -5 17 -12 19 -21 7 3
28 33 28 63 0 17 -56 -71 -86 -48 -16 -51 -19 -27 -22 27 -3 117 33 117 47 0
4 14 21 30 38 34 35 27 49 -25 45 -25 -1 -27 0 -10 7 19 8 19 9 2 16 -16 7
-16 10 8 41 14 18 25 35 25 38 0 3 -16 6 -36 6 -19 0 -33 4 -29 9 3 5 0 13 -6
16 -6 4 -24 -8 -40 -28 -34 -41 -89 -56 -89 -25 0 12 11 23 31 30 23 8 27 13
17 19 -17 11 -30 11 -48 -1z m146 -59 c-19 -21 -46 -18 -46 5 0 9 11 14 32 14
30 0 31 -1 14 -19z m-46 -39 c0 -7 -11 -17 -24 -24 -20 -8 -28 -7 -41 6 -9 9
-22 16 -28 17 -7 0 8 8 33 18 45 17 59 13 60 -17z"/>
<path d="M1528 2437 c17 -21 -19 -136 -56 -179 -14 -17 -12 -18 26 -18 39 0
54 11 33 24 -5 3 -2 22 7 41 14 29 21 35 48 35 23 0 39 8 53 26 43 55 19 84
-70 84 -41 0 -49 -3 -41 -13z m92 -23 c0 -27 -20 -54 -40 -54 -21 0 -24 10
-14 48 7 26 54 32 54 6z"/>
<path d="M2409 2433 c-15 -9 -39 -35 -53 -57 -33 -50 -31 -110 5 -137 47 -35
140 14 170 91 16 40 1 100 -28 111 -35 13 -64 11 -94 -8z m89 -52 c5 -72 -61
-147 -113 -127 -10 3 -15 19 -15 46 0 73 48 134 100 128 22 -3 25 -9 28 -47z"/>
<path d="M4690 2411 c0 -22 4 -43 10 -46 5 -3 7 -27 4 -55 -3 -33 -1 -51 7
-56 7 -4 15 -2 17 4 6 19 52 15 52 -4 0 -14 -10 -16 -65 -12 -37 2 -61 0 -56
-5 5 -5 34 -8 65 -8 l56 0 0 -35 c0 -19 4 -34 8 -34 16 0 32 24 32 48 0 22 4
23 43 21 61 -4 87 0 87 11 0 6 -10 10 -21 10 -21 0 -22 3 -15 86 4 47 10 92
12 99 5 11 -7 14 -55 12 l-61 -1 0 -33 c0 -32 -14 -51 -24 -34 -4 5 -2 12 4
16 5 3 10 17 10 31 0 23 -3 24 -55 24 l-55 0 0 -39z m70 -11 c0 -25 -4 -30
-23 -30 -20 0 -24 5 -25 30 -1 25 3 30 24 30 20 0 24 -5 24 -30z m130 15 c0
-9 -9 -15 -25 -15 -16 0 -25 6 -25 15 0 9 9 15 25 15 16 0 25 -6 25 -15z m-95
-75 c-3 -5 -19 -10 -36 -10 -16 0 -29 5 -29 10 0 6 16 10 36 10 21 0 33 -4 29
-10z m85 0 c0 -5 -13 -10 -30 -10 -16 0 -30 5 -30 10 0 6 14 10 30 10 17 0 30
-4 30 -10z m-100 -45 c0 -9 -9 -15 -25 -15 -16 0 -25 6 -25 15 0 9 9 15 25 15
16 0 25 -6 25 -15z m95 5 c-3 -5 -17 -10 -31 -10 -13 0 -24 5 -24 10 0 6 14
10 31 10 17 0 28 -4 24 -10z m15 -50 c11 -7 4 -10 -27 -10 -24 0 -43 5 -43 10
0 13 50 13 70 0z"/>
<path d="M5040 2403 c-12 -26 -31 -58 -42 -70 -25 -26 -16 -43 12 -25 19 12
20 9 20 -68 0 -47 4 -80 10 -80 6 0 11 35 11 83 2 95 11 148 22 130 9 -15 207
-19 207 -5 0 5 -6 16 -13 26 -12 16 -14 16 -26 2 -15 -18 -47 -21 -56 -6 -3 5
-1 18 4 29 8 15 7 20 -5 25 -24 9 -24 9 -24 -29 0 -30 -3 -35 -22 -35 -39 0
-68 12 -68 26 0 8 5 14 10 14 6 0 10 7 10 15 0 32 -30 13 -50 -32z"/>
<path d="M5573 2439 c-6 -6 -54 -9 -122 -7 -71 2 -110 -1 -108 -7 2 -5 23 -12
48 -15 24 -3 42 -9 40 -15 -18 -47 -26 -55 -53 -55 -19 0 -28 -4 -25 -12 3 -9
21 -12 56 -10 50 4 53 3 49 -20 -3 -20 -9 -23 -50 -26 -64 -4 -62 -22 2 -22
47 0 50 -2 50 -25 0 -24 -2 -25 -65 -25 -37 0 -65 -4 -65 -10 0 -6 55 -10 145
-10 119 0 143 2 139 14 -4 10 -20 12 -70 8 -64 -5 -64 -5 -64 22 0 25 3 26 50
26 51 0 61 8 36 29 -10 8 -16 9 -21 1 -3 -5 -19 -10 -36 -10 -24 0 -29 4 -29
25 0 20 6 25 36 31 22 4 40 2 47 -5 16 -16 27 -14 27 7 0 20 -76 77 -84 63 -3
-5 1 -14 9 -21 26 -21 17 -30 -30 -30 -25 0 -45 3 -45 6 0 3 8 19 17 35 16 27
21 29 85 29 67 0 81 7 55 29 -9 7 -17 7 -24 0z"/>
<path d="M4217 2423 c-15 -7 -27 -21 -27 -30 0 -13 3 -14 12 -5 17 17 67 15
74 -3 11 -28 -6 -63 -51 -108 -25 -25 -45 -48 -45 -52 0 -3 30 -5 67 -3 53 2
68 7 71 19 3 14 -5 16 -45 12 -47 -4 -48 -4 -28 14 41 37 65 76 65 108 0 50
-45 74 -93 48z"/>
<path d="M4403 2427 c-23 -10 -31 -27 -13 -27 15 0 13 -153 -2 -168 -9 -9 -4
-12 26 -12 31 0 36 3 28 13 -6 7 -13 56 -14 109 -3 95 -3 95 -25 85z"/>
<path d="M6120 2421 c-13 -25 -13 -81 0 -81 9 0 30 61 30 88 0 19 -18 14 -30
-7z"/>
<path d="M3426 2380 c-14 -22 -31 -40 -36 -40 -6 0 -10 -4 -10 -10 0 -5 6 -10
13 -10 16 0 57 41 57 57 0 6 6 13 13 16 9 3 9 8 1 16 -8 9 -18 1 -38 -29z"/>
<path d="M5957 2411 c-10 -4 -32 -26 -48 -50 -35 -53 -39 -111 -9 -141 20 -20
20 -20 0 -32 -11 -7 -20 -20 -20 -28 0 -12 15 -16 69 -18 60 -3 72 0 90 19 11
12 17 27 14 32 -4 6 -14 1 -24 -11 -18 -23 -44 -29 -54 -12 -3 6 -16 10 -28
10 -22 1 -22 1 -3 15 11 8 29 15 41 15 69 0 123 169 65 200 -21 11 -66 12 -93
1z m81 -50 c7 -68 -34 -131 -84 -131 -39 0 -47 18 -34 74 11 51 56 98 90 94
20 -2 26 -9 28 -37z"/>
<path d="M3557 2403 c-3 -3 8 -23 25 -44 30 -37 56 -41 43 -7 -7 19 -61 59
-68 51z"/>
<path d="M1984 2356 c-10 -26 1 -51 23 -54 28 -4 50 32 32 54 -15 18 -48 18
-55 0z m36 -21 c0 -8 -4 -15 -10 -15 -5 0 -10 7 -10 15 0 8 5 15 10 15 6 0 10
-7 10 -15z"/>
<path d="M2770 2306 c0 -66 7 -79 30 -51 17 20 67 19 78 -1 13 -23 20 -7 23
51 l3 50 -54 -2 c-30 -1 -61 3 -67 9 -10 8 -13 -4 -13 -56z m100 3 c0 -28 -2
-30 -32 -27 -57 5 -48 57 10 58 18 0 22 -5 22 -31z"/>
<path d="M5110 2342 c0 -25 23 -118 31 -126 13 -14 11 44 -2 85 -13 37 -29 61
-29 41z"/>
<path d="M5220 2332 c0 -10 -4 -22 -8 -27 -5 -6 -14 -29 -21 -52 -13 -46 -14
-46 -88 -43 -25 1 -43 -3 -43 -9 0 -6 3 -11 8 -11 187 -11 214 -10 210 7 -3
14 -11 17 -42 15 -35 -4 -37 -2 -31 19 4 12 18 42 30 65 13 24 20 45 17 48
-12 13 -32 5 -32 -12z"/>
<path d="M6434 2316 c-12 -31 0 -51 31 -51 27 0 30 3 30 30 0 25 -4 30 -28 33
-17 2 -29 -2 -33 -12z m46 -16 c0 -5 -7 -10 -15 -10 -8 0 -15 5 -15 10 0 6 7
10 15 10 8 0 15 -4 15 -10z"/>
<path d="M2343 2209 c-22 -22 -15 -26 47 -33 46 -5 68 -3 95 10 19 9 35 20 35
25 0 13 -18 11 -26 -2 -6 -11 -71 -8 -119 6 -11 3 -26 0 -32 -6z"/>
<path d="M1915 1661 c3 -6 -17 -11 -46 -13 -47 -3 -53 -6 -62 -31 -9 -27 1
-55 10 -29 10 27 23 9 23 -33 0 -25 5 -45 10 -45 6 0 10 8 8 18 -2 12 5 18 25
20 16 2 26 8 24 15 -2 7 -16 11 -31 9 -18 -2 -25 1 -21 7 3 6 19 11 36 11 16
0 29 5 29 11 0 6 -12 10 -27 9 -43 -3 -53 -1 -53 11 0 7 18 10 48 9 76 -4 104
-1 97 10 -4 6 -15 8 -26 5 -14 -5 -17 -3 -13 9 4 12 0 16 -16 16 -11 0 -19 -4
-15 -9z"/>
<path d="M2240 1610 l0 -61 -37 3 c-37 3 -38 4 -37 41 1 25 -3 37 -12 37 -10
0 -14 -15 -14 -54 l0 -53 50 5 50 5 0 -62 0 -62 -47 3 -48 3 1 43 c0 29 -3 42
-13 42 -9 0 -13 -17 -13 -65 0 -61 11 -84 24 -50 4 12 26 15 107 15 85 0 104
-3 115 -17 12 -16 13 -13 14 27 0 25 3 55 6 68 5 16 2 22 -11 22 -13 0 -16 -8
-13 -42 l3 -43 -41 -3 c-54 -4 -68 13 -58 74 l7 46 48 -4 49 -5 0 38 c0 20 3
44 6 53 4 11 1 16 -10 16 -12 0 -16 -10 -16 -40 l0 -40 -41 0 -41 0 4 57 c2
49 0 58 -14 61 -16 3 -18 -5 -18 -58z"/>
<path d="M968 1633 c-37 -40 -48 -66 -48 -113 0 -51 19 -98 54 -129 32 -30 48
-20 19 12 -53 56 -50 170 5 230 18 19 21 27 11 27 -9 0 -27 -12 -41 -27z"/>
<path d="M1150 1654 c0 -3 11 -19 24 -34 44 -53 42 -166 -4 -215 -12 -13 -17
-25 -12 -29 10 -6 53 37 71 71 6 12 11 43 11 68 0 25 -5 56 -11 68 -22 42 -79
94 -79 71z"/>
<path d="M2000 1641 c0 -5 6 -12 13 -14 19 -8 -13 -27 -45 -27 -16 0 -28 -4
-28 -9 0 -5 12 -12 28 -14 l27 -4 -28 -2 c-32 -1 -27 -21 4 -21 12 0 19 -5 17
-12 -3 -8 -26 -14 -58 -16 -41 -2 -57 -8 -71 -26 -10 -13 -30 -27 -44 -30 -14
-4 -25 -11 -25 -17 0 -7 10 -9 25 -5 29 7 32 0 8 -27 -17 -19 -17 -19 2 -16
13 3 22 15 25 34 7 40 51 47 81 13 l20 -23 -6 23 c-4 13 -2 22 5 22 7 0 20
-10 30 -22 10 -13 22 -20 26 -16 4 4 1 14 -6 23 -10 12 -9 15 5 15 14 0 16 -6
11 -32 -8 -40 -8 -40 -40 -29 -17 7 -26 7 -26 1 0 -6 6 -10 14 -10 8 0 16 -6
19 -12 11 -32 64 30 69 83 2 19 -1 24 -18 22 -20 -2 -21 1 -16 44 3 26 13 56
24 67 27 29 23 46 -12 46 -16 0 -30 -4 -30 -9z m0 -141 c0 -5 -22 -10 -50 -10
-27 0 -50 5 -50 10 0 6 23 10 50 10 28 0 50 -4 50 -10z"/>
<path d="M2880 1628 c0 -13 -3 -33 -6 -45 -4 -14 -2 -23 5 -23 11 0 19 16 35
68 6 18 4 22 -13 22 -15 0 -21 -6 -21 -22z"/>
<path d="M3170 1634 c0 -12 7 -15 26 -11 l26 5 -4 -72 c-5 -69 -27 -125 -66
-165 -7 -7 -10 -16 -6 -20 11 -11 74 72 87 117 l13 44 26 -51 27 -50 -57 -28
c-36 -18 -51 -29 -39 -31 16 -3 49 10 93 37 18 12 26 10 62 -14 39 -25 75 -31
76 -11 1 5 -12 14 -29 20 -70 26 -71 28 -31 83 20 28 36 55 36 62 0 6 -16 11
-36 11 -30 0 -35 3 -29 18 14 36 17 72 7 72 -11 0 -26 -18 -28 -35 0 -5 -2
-20 -2 -32 -2 -19 -8 -23 -37 -23 -32 0 -35 2 -35 30 0 25 4 30 24 30 14 0 28
5 31 11 11 16 -3 23 -19 10 -9 -7 -21 -9 -28 -5 -7 5 -30 10 -50 11 -29 2 -38
-1 -38 -13z m200 -101 c0 -11 -44 -73 -53 -73 -8 0 -47 60 -47 73 0 4 23 7 50
7 28 0 50 -3 50 -7z"/>
<path d="M3961 1643 c-1 -7 -8 -13 -16 -13 -11 0 -15 -11 -15 -41 0 -22 4 -38
9 -34 13 8 34 73 28 88 -4 9 -6 9 -6 0z"/>
<path d="M4275 1619 c-5 -24 -11 -30 -26 -26 -18 5 -19 -2 -19 -100 0 -92 2
-104 15 -93 9 8 28 10 50 6 l35 -7 0 61 c0 46 3 60 15 60 8 0 22 11 31 25 13
21 24 25 61 25 l45 0 -7 -72 c-8 -82 -24 -108 -67 -108 -36 0 -28 -16 12 -25
55 -12 72 28 83 200 l2 30 -52 -3 c-49 -4 -69 7 -43 23 14 9 12 35 -2 35 -7 0
-22 -23 -33 -52 -23 -59 -48 -77 -43 -32 3 25 0 29 -21 26 -17 -1 -22 2 -17
13 3 8 9 22 12 30 4 9 0 15 -9 15 -9 0 -18 -13 -22 -31z m35 -79 c0 -27 -3
-30 -30 -30 -32 0 -47 18 -36 45 3 9 18 15 36 15 27 0 30 -3 30 -30z m0 -77
c0 -31 -2 -33 -35 -33 -30 0 -35 3 -35 23 0 30 18 47 47 45 19 -2 23 -8 23
-35z"/>
<path d="M4690 1556 l0 -94 -55 3 c-30 2 -55 -1 -55 -6 0 -5 25 -9 55 -9 l55
0 0 -36 0 -35 -70 7 c-49 5 -70 3 -70 -5 0 -11 72 -15 220 -11 71 2 79 5 62
22 -8 8 -15 8 -24 1 -7 -6 -32 -11 -55 -10 -42 0 -43 0 -43 33 l0 34 55 0 c30
0 55 4 55 9 0 14 -32 18 -57 8 -45 -20 -56 -4 -50 76 2 39 8 80 12 90 5 13 2
17 -14 17 -20 0 -21 -5 -21 -94z"/>
<path d="M4940 1610 c0 -34 -3 -40 -22 -41 -18 -1 -19 -2 -5 -6 15 -4 17 -11
11 -36 -3 -18 -13 -45 -21 -60 -8 -16 -13 -30 -11 -32 6 -6 24 9 37 30 10 16
11 8 6 -47 -6 -58 -4 -68 9 -68 9 0 16 5 16 10 0 6 8 10 18 10 10 0 23 5 29
11 8 8 17 5 33 -11 29 -29 44 -21 48 28 2 23 7 42 11 42 12 0 51 -45 51 -58 0
-7 7 -12 15 -12 13 0 14 4 5 21 -6 11 -18 23 -26 26 -23 8 -16 23 10 23 29 0
44 18 22 26 -13 5 -14 17 -9 65 l6 59 -32 0 c-21 0 -30 4 -25 11 3 6 19 9 35
7 21 -3 29 0 29 10 0 10 -7 13 -22 8 -13 -3 -44 -6 -70 -6 -38 0 -46 -3 -42
-15 4 -10 0 -15 -14 -15 -11 0 -22 -4 -24 -10 -1 -5 -14 -7 -26 -3 -21 5 -23
10 -17 39 5 27 3 34 -10 34 -11 0 -15 -11 -15 -40z m150 -10 c0 -5 -5 -10 -11
-10 -5 0 -7 5 -4 10 3 6 8 10 11 10 2 0 4 -4 4 -10z m-40 -60 c0 -18 5 -30 13
-30 9 0 12 10 9 31 -4 24 -1 30 9 27 8 -3 13 -17 12 -31 -1 -18 5 -27 20 -33
17 -6 9 -8 -32 -11 -58 -4 -67 -1 -55 19 5 7 7 23 5 36 -1 12 2 22 8 22 6 0
11 -13 11 -30z m98 13 c-2 -10 -10 -18 -18 -18 -8 0 -16 8 -18 18 -2 12 3 17
18 17 15 0 20 -5 18 -17z m-148 -20 c0 -25 0 -26 -20 -8 -11 10 -20 22 -20 27
0 4 9 8 20 8 15 0 20 -7 20 -27z m-9 -42 c8 12 11 12 19 -1 6 -10 33 -17 77
-21 l68 -6 -82 -1 c-46 -1 -83 -5 -83 -9 0 -5 17 -8 37 -8 32 0 39 -4 41 -24
5 -31 -15 -51 -24 -26 -5 11 -3 20 4 23 7 2 12 8 12 13 0 16 -26 9 -46 -12
-10 -11 -27 -25 -36 -30 -16 -9 -18 -4 -18 58 1 54 3 64 11 49 9 -15 13 -16
20 -5z"/>
<path d="M2717 1619 c10 -10 4 -54 -14 -99 -4 -8 -7 -17 -8 -20 -12 -35 -26
-60 -35 -60 -5 0 -10 -4 -10 -10 0 -5 15 -10 33 -10 31 0 33 2 33 34 0 43 19
66 54 66 39 0 60 9 60 26 0 8 5 14 10 14 17 0 11 36 -8 53 -22 20 -134 25
-115 6z m90 -42 c-2 -23 -19 -35 -49 -36 -14 -1 -16 3 -9 22 5 12 12 30 15 40
8 27 46 4 43 -26z"/>
<path d="M3757 1599 c-15 -12 -34 -34 -42 -50 -19 -37 -19 -103 0 -119 21 -17
19 -37 -5 -50 -34 -18 -22 -27 44 -35 50 -5 71 -3 95 10 17 8 31 20 31 25 0
13 -17 13 -25 0 -8 -12 -75 -13 -94 -1 -18 11 -5 31 20 31 84 0 150 134 98
197 -17 20 -90 16 -122 -8z m84 1 c37 -20 14 -136 -33 -161 -25 -14 -58 -8
-71 12 -16 25 1 86 35 124 33 38 39 40 69 25z"/>
<path d="M4611 1590 c-5 -17 -19 -44 -31 -59 -32 -46 -22 -60 13 -18 l32 37
20 -32 c20 -33 20 -33 23 -8 3 16 -4 30 -18 42 -18 15 -20 21 -10 33 12 14 6
35 -10 35 -4 0 -13 -14 -19 -30z"/>
<path d="M4772 1597 c-11 -13 -52 -104 -52 -115 0 -4 12 10 27 31 14 20 30 37
35 37 5 0 16 -16 24 -35 17 -42 39 -48 29 -7 -3 15 -12 30 -18 34 -42 26 -42
26 -23 47 16 17 16 21 4 21 -9 0 -20 -6 -26 -13z"/>
<path d="M1042 1578 c-14 -14 -16 -48 -3 -48 5 0 15 10 23 22 8 12 19 18 26
14 20 -12 13 -25 -28 -51 -42 -27 -51 -53 -24 -76 13 -10 20 -10 36 0 15 10
23 10 34 0 12 -10 18 -9 32 4 10 11 12 17 4 17 -8 0 -12 19 -12 59 0 44 -4 60
-16 65 -25 10 -59 7 -72 -6z m58 -83 c0 -29 -25 -44 -43 -26 -9 10 -7 17 12
32 30 24 31 24 31 -6z"/>
<path d="M5344 1526 c-12 -32 0 -61 28 -64 22 -3 29 2 34 22 7 31 -10 56 -38
56 -10 0 -21 -6 -24 -14z m36 -40 c-14 -14 -24 0 -16 21 6 15 8 15 16 3 6 -9
5 -19 0 -24z"/>
<path d="M4380 1528 c0 -13 33 -68 41 -68 17 0 9 27 -16 50 -14 13 -25 21 -25
18z"/>
<path d="M1883 1446 c4 -10 7 -24 7 -32 0 -8 5 -14 11 -14 15 0 6 53 -10 58
-10 3 -12 0 -8 -12z"/>
<path d="M1923 1043 c-21 -3 -34 -11 -38 -24 -5 -16 -16 -19 -61 -19 -36 0
-53 -4 -49 -10 4 -6 33 -10 66 -9 61 2 76 -2 65 -20 -4 -6 -31 -9 -66 -6 -34
3 -60 1 -60 -5 0 -14 13 -19 68 -22 l52 -3 0 -47 c0 -26 5 -50 10 -53 19 -12
10 -25 -16 -25 -25 0 -26 3 -21 34 6 40 1 49 -24 36 -11 -7 -27 -7 -43 0 -26
9 -26 9 -26 -45 0 -51 10 -69 25 -45 7 12 42 14 47 3 6 -14 210 -3 205 10 -2
7 -16 11 -31 10 -22 -1 -25 1 -17 15 5 9 10 37 12 61 l4 45 -51 -3 c-29 -1
-55 2 -59 8 -4 7 9 9 39 5 40 -6 46 -4 46 12 0 16 2 15 21 -5 15 -16 24 -20
32 -12 8 8 5 15 -9 25 -19 14 -19 15 0 29 12 9 15 16 8 21 -6 3 -13 2 -17 -4
-3 -5 -14 -10 -23 -10 -14 0 -12 4 7 19 21 16 22 19 6 25 -11 4 -22 0 -30 -10
-11 -15 -12 -15 -18 5 -3 11 -9 20 -14 19 -4 0 -22 -3 -40 -5z m15 -35 c-6
-18 -25 -20 -31 -3 -5 10 0 15 14 15 12 0 19 -5 17 -12z m42 -48 c-23 -14 -50
-12 -50 5 0 23 33 36 50 19 13 -13 13 -16 0 -24z m20 -81 c0 -17 -5 -20 -37
-17 -27 2 -39 8 -41 21 -3 14 4 17 37 17 35 0 41 -3 41 -21z m-25 -55 c0 -24
-31 -30 -39 -7 -3 10 -9 23 -12 30 -4 8 3 9 23 4 18 -5 28 -14 28 -27z m-127
3 c2 -12 -3 -17 -17 -17 -12 0 -21 6 -21 13 0 31 32 34 38 4z"/>
<path d="M957 1005 c-38 -42 -52 -98 -37 -150 12 -42 71 -107 78 -86 2 6 -6
19 -17 29 -41 33 -40 163 1 202 37 34 49 10 46 -87 -2 -72 0 -86 15 -95 29
-16 76 0 92 32 33 64 4 130 -50 116 -24 -6 -25 -4 -25 33 0 39 0 39 -37 38
-29 -1 -45 -9 -66 -32z m161 -98 c7 -38 -7 -67 -33 -67 -23 0 -25 4 -25 46 0
44 1 45 27 42 17 -2 29 -10 31 -21z"/>
<path d="M1160 1034 c0 -3 9 -13 20 -22 46 -37 47 -170 3 -223 -28 -33 -24
-37 14 -12 70 46 70 200 -1 247 -27 17 -36 20 -36 10z"/>
<path d="M1780 1031 c0 -9 70 -19 89 -13 6 2 9 8 5 13 -7 12 -94 12 -94 0z"/>
<path d="M2110 933 c0 -68 4 -103 11 -103 6 0 13 9 16 20 6 22 42 27 61 8 6
-6 14 -10 16 -7 2 2 6 44 7 93 l3 89 -57 1 -57 1 0 -102z m88 50 c-2 -22 -9
-29 -30 -31 -25 -3 -28 0 -28 27 0 28 3 31 31 31 27 0 30 -3 27 -27z m0 -70
c3 -20 -1 -23 -26 -23 -31 0 -43 14 -34 38 8 23 57 10 60 -15z"/>
<path d="M2250 975 c-1 -89 -15 -136 -49 -167 -34 -30 -38 -38 -18 -38 19 0
77 63 77 83 0 14 9 17 46 17 38 0 45 -3 40 -16 -3 -9 -6 -24 -6 -34 0 -13 -9
-20 -27 -22 l-27 -3 28 -19 c28 -18 30 -18 43 0 9 12 13 54 15 126 0 59 1 113
2 120 1 7 -21 11 -62 12 l-62 1 0 -60z m100 9 c0 -23 -3 -25 -37 -22 -31 2
-39 7 -41 26 -3 20 1 22 37 22 37 0 41 -2 41 -26z m0 -76 c0 -14 -9 -18 -40
-18 -36 0 -40 3 -40 24 0 21 6 25 33 28 34 3 47 -6 47 -34z"/>
<path d="M3760 1021 c0 -17 -6 -18 -65 -13 -52 4 -65 2 -65 -9 0 -11 14 -14
60 -12 47 2 62 -1 67 -13 8 -22 -2 -27 -26 -14 -21 10 -21 9 -21 -80 0 -85 -1
-90 -21 -90 -20 0 -21 4 -17 75 2 52 0 76 -9 79 -8 4 -13 -22 -15 -95 -2 -74
0 -99 10 -99 6 0 12 5 12 11 0 7 36 10 108 9 132 -2 132 -2 132 9 0 13 -32 23
-39 13 -3 -5 -38 -9 -78 -8 -41 0 -68 5 -63 10 5 5 36 7 69 4 l61 -4 0 52 c0
28 3 65 6 82 6 30 5 31 -32 34 -20 2 -39 9 -42 16 -3 11 10 13 58 10 41 -2 64
1 67 8 5 15 -28 28 -36 15 -9 -13 -71 -3 -88 15 -20 19 -33 18 -33 -5z m80
-91 c0 -6 -25 -10 -56 -10 -30 0 -53 3 -51 8 7 11 107 13 107 2z m0 -50 c0
-18 -7 -20 -55 -20 -39 0 -55 4 -55 13 0 22 11 27 62 27 41 0 48 -3 48 -20z
m-2 -47 c3 -9 -12 -13 -52 -13 -44 0 -56 3 -56 16 0 12 10 14 52 12 30 -2 53
-8 56 -15z"/>
<path d="M3488 1024 c-4 -3 -46 -9 -95 -12 -53 -4 -86 -11 -83 -17 2 -5 28 -8
57 -7 43 3 53 1 53 -12 0 -13 -11 -16 -55 -16 -30 0 -55 -4 -55 -10 0 -5 6
-10 14 -10 7 0 16 -9 19 -21 5 -19 2 -21 -24 -17 -20 3 -29 0 -29 -9 0 -7 11
-13 25 -13 18 0 25 -5 25 -20 0 -14 -7 -20 -21 -20 -11 0 -17 -4 -14 -10 3 -5
31 -10 61 -10 48 0 54 -2 54 -21 0 -20 -4 -21 -65 -17 -36 2 -65 0 -65 -4 0
-4 8 -8 18 -9 9 0 72 -2 140 -5 104 -5 122 -3 122 10 0 21 -18 30 -35 16 -20
-16 -90 -9 -90 10 0 12 12 14 58 11 53 -3 58 -1 55 15 -2 11 -11 18 -21 18
-10 -1 -17 5 -17 17 0 15 7 19 31 19 20 0 29 4 26 13 -2 6 -16 11 -31 9 -20
-2 -26 2 -26 18 0 14 7 20 21 20 12 0 19 5 16 13 -2 8 -22 11 -62 8 -51 -3
-57 -1 -51 14 3 9 6 19 6 21 0 2 15 4 34 4 40 0 66 8 66 21 0 10 -53 13 -62 3z
m-68 -105 c0 -14 -7 -19 -25 -19 -18 0 -25 5 -25 19 0 11 6 21 13 24 20 7 37
-4 37 -24z m80 1 c0 -15 -7 -20 -29 -20 -24 0 -28 3 -24 20 3 13 14 20 29 20
17 0 24 -6 24 -20z m-80 -65 c0 -28 -21 -33 -40 -10 -15 18 -5 35 21 35 14 0
19 -7 19 -25z m78 3 c-2 -17 -10 -23 -28 -23 -18 0 -26 6 -28 23 -3 19 1 22
28 22 27 0 31 -3 28 -22z"/>
<path d="M4018 1005 c3 -17 -1 -27 -12 -31 -12 -5 -14 -10 -6 -19 8 -9 8 -15
0 -20 -5 -3 -10 -24 -10 -45 0 -22 -7 -58 -16 -80 -16 -39 -12 -69 5 -42 6 10
11 10 21 -3 17 -20 47 -19 58 3 5 9 12 38 15 63 5 34 15 55 43 84 20 21 39 47
43 58 7 17 9 16 24 -14 14 -30 49 -69 62 -69 15 0 1 30 -25 55 -16 15 -32 41
-35 56 -8 36 -31 38 -39 3 -10 -37 -52 -98 -60 -85 -4 5 -22 7 -41 4 -32 -5
-35 -4 -29 13 4 11 11 25 17 32 5 6 6 12 1 12 -4 0 -3 5 4 12 18 18 14 38 -7
38 -14 0 -17 -6 -13 -25z m32 -152 c0 -59 -11 -77 -38 -69 -18 6 -20 11 -12
32 6 14 10 39 10 55 0 22 5 29 20 29 17 0 20 -7 20 -47z"/>
<path d="M2956 1010 c-84 -26 -136 -142 -86 -195 20 -21 20 -21 0 -42 l-19
-22 32 -7 c67 -15 147 5 147 37 0 5 -13 0 -29 -12 -26 -19 -33 -20 -65 -9 -30
10 -35 14 -25 26 6 8 22 14 34 14 50 0 105 75 105 142 0 17 -10 39 -25 53 -26
27 -27 27 -69 15z m42 -22 c7 -7 12 -27 12 -45 0 -99 -92 -173 -120 -97 -14
35 6 89 46 123 39 34 45 36 62 19z"/>
<path d="M4740 1006 c0 -7 -3 -28 -6 -45 -10 -48 12 -38 29 14 15 43 15 45 -4
45 -10 0 -19 -6 -19 -14z"/>
<path d="M5044 996 c-3 -13 -4 -37 -2 -52 l3 -29 18 32 c9 18 17 41 17 53 0
28 -28 25 -36 -4z"/>
<path d="M2708 1001 c11 -6 11 -16 3 -42 -21 -72 -43 -125 -58 -141 -15 -17
-13 -18 27 -18 34 0 40 3 32 13 -8 9 -8 24 -1 50 9 34 13 37 48 37 44 0 71 24
71 61 0 38 -19 49 -79 49 -35 0 -51 -4 -43 -9z m80 -43 c2 -19 -3 -30 -18 -38
-29 -15 -34 -8 -26 35 9 44 39 46 44 3z"/>
<path d="M4890 997 c-24 -8 -43 -26 -62 -57 -38 -64 -42 -103 -13 -134 l24
-26 -30 -17 c-24 -14 -37 -31 -26 -34 1 0 35 -2 75 -5 76 -6 122 9 122 40 0
12 -4 12 -29 0 -20 -10 -43 -12 -70 -8 -40 6 -41 7 -18 19 13 6 34 15 48 18
43 11 91 70 96 119 4 36 1 46 -19 64 -32 30 -57 35 -98 21z m59 -36 c17 -17
18 -26 10 -53 -12 -42 -39 -80 -70 -95 -19 -10 -27 -9 -41 4 -10 9 -18 27 -18
40 0 35 35 98 62 110 32 16 35 16 57 -6z"/>
<path d="M4579 987 c8 -10 7 -26 -5 -63 -9 -27 -21 -53 -25 -58 -5 -6 -9 -18
-9 -28 0 -10 -7 -21 -15 -24 -27 -11 -16 -24 21 -24 30 0 34 3 30 18 -10 30
22 82 49 82 28 0 75 20 75 31 0 4 3 14 6 22 11 29 -32 57 -87 57 -42 0 -49 -2
-40 -13z m81 -22 c17 -20 9 -46 -18 -56 -27 -10 -38 7 -28 46 7 28 27 33 46
10z"/>
<path d="M4062 979 c2 -7 10 -15 17 -17 8 -3 12 1 9 9 -2 7 -10 15 -17 17 -8
3 -12 -1 -9 -9z"/>
<path d="M1783 907 c4 -14 86 -16 90 -2 1 5 -20 11 -46 12 -34 1 -47 -1 -44
-10z"/>
<path d="M5328 906 c-23 -17 -23 -29 0 -49 23 -21 48 -22 56 -1 20 51 -15 82
-56 50z m42 -21 c0 -8 -7 -15 -15 -15 -16 0 -20 12 -8 23 11 12 23 8 23 -8z"/>
<path d="M4140 905 c0 -8 53 -54 63 -55 17 0 5 29 -18 44 -24 16 -45 21 -45
11z"/>
<path d="M4160 792 c28 -25 49 -37 55 -31 13 13 -11 34 -60 54 l-40 16 45 -39z"/>
<path d="M13460 488 c0 -8 14 -12 36 -9 12 1 55 -84 47 -93 -4 -3 -42 -6 -86
-6 l-79 0 26 33 c15 17 31 38 37 45 11 13 4 32 -11 32 -5 0 -17 -15 -26 -32
-9 -18 -30 -48 -47 -65 -29 -31 -33 -54 -5 -37 11 7 68 7 75 0 2 -1 -5 -21
-14 -44 -10 -27 -28 -49 -52 -64 -27 -16 -32 -23 -19 -26 31 -6 87 46 99 94
11 43 13 44 51 44 l39 0 -2 -45 c-3 -59 -11 -69 -43 -61 -19 5 -26 2 -26 -8 0
-29 64 -36 79 -8 5 9 12 45 16 80 7 59 8 62 25 47 9 -8 24 -13 34 -9 20 8 21
24 2 24 -24 0 -64 43 -73 80 -8 31 -13 34 -46 35 -20 1 -37 -2 -37 -7z"/>
<path d="M13052 473 c-53 -37 -69 -150 -31 -213 12 -19 27 -38 33 -42 23 -15
25 -7 6 24 -40 66 -33 195 11 219 19 9 26 30 12 28 -5 0 -18 -7 -31 -16z"/>
<path d="M13666 481 c-4 -5 -2 -13 4 -16 6 -4 20 -26 31 -51 28 -58 22 -111
-18 -173 -31 -49 -19 -53 24 -8 30 32 36 47 40 97 5 48 2 64 -15 92 -28 45
-58 72 -66 59z"/>
<path d="M13133 443 c-9 -21 -19 -41 -21 -45 -2 -4 12 -10 31 -13 71 -14 69
-99 -2 -93 -36 3 -54 -15 -25 -26 32 -12 79 4 92 32 25 54 12 95 -40 123 -24
13 -13 26 26 31 47 5 45 28 -3 28 -37 0 -42 -3 -58 -37z"/>
</g>
</svg>
