<?xml version="1.0" standalone="no"?>
<!DOCTYPE svg PUBLIC "-//W3C//DTD SVG 20010904//EN"
 "http://www.w3.org/TR/2001/REC-SVG-20010904/DTD/svg10.dtd">
<svg version="1.0" xmlns="http://www.w3.org/2000/svg"
 width="1381.000000pt" height="777.000000pt" viewBox="0 0 1381.000000 777.000000"
 preserveAspectRatio="xMidYMid meet">
<metadata>
Created by potrace 1.16, written by Peter Selinger 2001-2019
</metadata>
<g transform="translate(0.000000,777.000000) scale(0.100000,-0.100000)"
fill="#000000" stroke="none">
<path d="M11500 7720 c0 -5 5 -10 10 -10 6 0 10 5 10 10 0 6 -4 10 -10 10 -5
0 -10 -4 -10 -10z"/>
<path d="M7429 7698 c0 -13 -7 -39 -14 -58 -13 -34 -13 -34 -14 -7 -1 24 -4
27 -25 21 -29 -7 -42 9 -21 26 19 16 19 30 -1 30 -8 0 -20 -13 -25 -29 -7 -20
-15 -28 -25 -24 -12 4 -14 -14 -14 -103 1 -93 3 -106 14 -91 17 22 76 24 76 1
0 -8 5 -12 10 -9 6 3 10 35 10 71 0 35 4 64 9 64 5 0 14 14 20 30 10 29 12 30
53 24 24 -4 45 -8 47 -10 2 -2 0 -39 -5 -81 -9 -75 -10 -78 -36 -81 -16 -2
-28 -9 -28 -17 0 -16 43 -31 59 -21 9 6 23 82 35 188 l5 46 -54 -5 c-36 -4
-55 -2 -55 5 0 6 5 14 10 17 8 5 7 11 -1 21 -17 21 -29 17 -30 -8z m-71 -64
c34 -10 26 -48 -11 -52 -29 -4 -44 16 -33 43 6 17 11 18 44 9z m10 -76 c23
-23 14 -55 -15 -61 -35 -7 -43 -2 -43 27 0 24 17 46 35 46 6 0 16 -5 23 -12z"/>
<path d="M8345 7683 c-4 -20 -16 -55 -27 -76 -17 -34 -17 -39 -4 -34 14 5 16
-3 16 -61 0 -121 17 -100 22 27 4 115 11 148 26 125 4 -6 24 -10 45 -10 26 1
37 -3 37 -12 0 -10 -9 -13 -30 -10 -30 5 -30 4 -30 -43 0 -48 0 -48 29 -43 27
6 29 4 24 -16 -4 -15 -9 -18 -16 -11 -6 6 -18 11 -26 11 -11 0 -10 -5 5 -21
18 -20 18 -21 -1 -36 -11 -8 -27 -18 -35 -23 -8 -5 -11 -12 -7 -16 4 -5 16 -3
25 4 47 34 59 35 106 12 45 -21 83 -24 79 -5 -2 13 -19 21 -75 35 -46 12 -46
12 -36 42 10 27 14 29 52 26 l41 -3 -1 45 -1 45 -42 -3 c-32 -3 -41 0 -41 12
0 13 11 16 50 16 38 0 50 4 50 15 0 18 -23 20 -49 3 -23 -14 -53 -3 -49 18 2
9 -3 19 -9 21 -8 3 -13 -5 -13 -21 0 -23 -4 -26 -35 -26 -29 0 -37 5 -45 25
-14 36 -27 31 -35 -12z m115 -93 c0 -23 -4 -30 -20 -30 -11 0 -23 7 -26 15 -9
23 3 45 26 45 16 0 20 -7 20 -30z m80 1 c0 -26 -3 -30 -27 -28 -22 2 -29 8
-31 30 -3 24 0 27 27 27 28 0 31 -3 31 -29z"/>
<path d="M8690 7706 c0 -7 -10 -25 -21 -40 -31 -39 -14 -45 23 -9 19 20 29 37
25 47 -8 20 -27 21 -27 2z"/>
<path d="M8818 7712 l-58 -3 0 -52 0 -52 62 1 63 1 3 51 c1 28 -1 52 -5 54 -5
2 -34 2 -65 0z m37 -37 c0 -5 -17 -11 -37 -13 -30 -3 -38 0 -38 13 0 13 8 16
38 13 20 -2 37 -7 37 -13z m5 -45 c0 -5 -18 -10 -40 -10 -22 0 -40 5 -40 10 0
6 18 10 40 10 22 0 40 -4 40 -10z"/>
<path d="M3746 7703 c-3 -3 -6 -16 -6 -27 0 -20 -1 -20 -20 4 -10 14 -22 21
-26 17 -4 -4 -2 -13 4 -19 18 -18 15 -28 -8 -28 -11 0 -20 -4 -20 -9 0 -5 11
-8 25 -8 14 0 28 -2 30 -5 9 -9 -19 -85 -47 -126 -16 -23 -28 -48 -25 -55 2
-7 19 9 37 36 l34 47 83 0 c76 0 83 -2 83 -20 0 -23 -18 -27 -26 -5 -4 8 -10
15 -15 15 -16 0 -10 -19 13 -39 19 -18 19 -21 5 -27 -27 -10 -47 3 -47 30 0
14 -4 28 -10 31 -15 9 -12 -22 5 -54 26 -50 73 -43 88 14 18 70 18 75 -4 75
-16 0 -20 5 -17 28 2 23 -1 27 -20 26 -20 -1 -22 3 -17 26 6 28 6 28 -40 22
-45 -5 -46 -4 -40 21 6 24 -5 43 -19 30z m72 -80 c-2 -13 -11 -17 -28 -15 -30
5 -34 8 -25 21 3 6 17 11 31 11 19 0 25 -5 22 -17z m32 -53 c0 -17 -7 -20 -53
-20 -59 0 -72 6 -56 27 7 7 32 13 60 13 42 0 49 -3 49 -20z"/>
<path d="M5755 7687 c6 -21 4 -27 -9 -27 -9 0 -16 -4 -16 -10 0 -5 14 -10 30
-10 17 0 30 -1 30 -2 -1 -28 -38 -112 -61 -141 -17 -21 -28 -41 -24 -45 7 -7
65 56 65 70 0 4 27 8 60 8 33 0 60 -4 60 -8 0 -5 9 -18 21 -30 23 -25 16 -46
-12 -39 -25 7 -24 -5 1 -21 17 -10 23 -9 38 8 9 11 17 24 18 28 0 4 4 14 7 22
4 8 8 26 9 40 2 19 -2 26 -20 28 -19 3 -23 9 -20 30 2 21 -1 27 -15 25 -15 -1
-17 4 -13 22 6 22 3 24 -36 27 -38 3 -43 6 -41 26 2 16 -3 22 -16 22 -14 0
-17 -6 -14 -24 3 -13 0 -27 -6 -30 -7 -4 -11 1 -11 12 0 11 -7 25 -16 33 -13
11 -14 9 -9 -14z m125 -62 c0 -11 -11 -15 -40 -15 -31 0 -38 3 -34 15 4 9 19
15 40 15 24 0 34 -5 34 -15z m28 -52 c-2 -14 -15 -19 -61 -21 -43 -2 -57 0
-57 11 0 23 11 27 67 27 46 0 54 -3 51 -17z m35 -58 c9 -23 -11 -28 -23 -5 -8
16 -8 20 4 20 7 0 16 -7 19 -15z"/>
<path d="M7060 7590 l0 -119 -57 -3 c-34 -2 -58 -8 -61 -15 -5 -18 199 -18
216 -1 9 9 12 9 12 -1 0 -7 9 -11 23 -9 12 2 22 10 22 18 0 12 -13 14 -67 11
l-68 -3 0 60 0 61 58 3 c34 2 55 7 52 13 -3 6 -29 8 -59 6 l-54 -3 6 51 c5 41
3 51 -8 51 -12 0 -15 -22 -15 -120z"/>
<path d="M7980 7647 c0 -54 2 -58 20 -52 11 4 20 2 20 -4 0 -6 -11 -11 -25
-11 -16 0 -25 -6 -25 -15 0 -9 9 -15 25 -15 14 0 25 -4 25 -10 0 -5 -10 -10
-22 -10 -21 0 -23 -5 -25 -51 -1 -55 10 -55 25 1 l10 35 1 -32 c1 -33 16 -52
24 -31 2 7 0 23 -4 36 -8 20 -6 22 24 21 17 -1 24 -3 15 -6 -19 -5 -25 -43 -8
-43 6 0 10 8 10 18 1 16 1 16 11 -1 6 -9 14 -15 20 -12 5 4 9 -3 9 -14 0 -25
6 -26 26 -6 18 18 65 20 82 3 14 -14 14 -17 16 55 2 56 2 57 -26 57 -24 0 -28
4 -28 29 0 25 5 30 27 33 14 2 28 9 31 17 3 10 -3 11 -28 6 l-33 -7 6 36 c4
27 2 36 -9 36 -11 0 -14 -16 -14 -69 0 -71 -10 -92 -35 -71 -8 6 -19 9 -25 5
-5 -3 -10 -2 -10 3 0 6 -10 8 -22 4 -15 -4 -19 -2 -13 7 4 7 16 11 26 8 16 -4
19 1 19 38 0 24 3 51 6 60 6 14 -2 15 -60 13 l-66 -2 0 -59z m37 21 c-3 -8 -6
-5 -6 6 -1 11 2 17 5 13 3 -3 4 -12 1 -19z m53 7 c-7 -9 -15 -13 -17 -11 -7 7
7 26 19 26 6 0 6 -6 -2 -15z m-66 -41 c3 -8 2 -12 -4 -9 -6 3 -10 10 -10 16 0
14 7 11 14 -7z m86 1 c0 -8 -7 -15 -16 -15 -14 0 -14 3 -4 15 7 8 14 15 16 15
2 0 4 -7 4 -15z m20 -93 c0 -4 -13 -9 -30 -10 -16 -1 -30 2 -30 8 0 5 14 10
30 10 17 0 30 -4 30 -8z m100 -37 c0 -34 -1 -35 -40 -35 -39 0 -40 1 -40 35 0
34 1 35 40 35 39 0 40 -1 40 -35z m-100 -10 c0 -8 -2 -15 -4 -15 -2 0 -6 7
-10 15 -3 8 -1 15 4 15 6 0 10 -7 10 -15z"/>
<path d="M11315 7700 c-3 -5 -1 -10 4 -10 6 0 11 -16 11 -35 l0 -35 -55 0
c-30 0 -55 -4 -55 -9 0 -6 30 -10 66 -10 55 0 65 3 60 15 -3 9 -6 33 -6 55 0
37 -12 51 -25 29z"/>
<path d="M12330 7676 c0 -41 15 -56 24 -23 10 37 7 57 -9 57 -10 0 -15 -10
-15 -34z"/>
<path d="M13047 7703 c-10 -17 -11 -78 -2 -78 6 0 9 12 7 26 -2 17 3 29 13 33
9 3 13 10 10 16 -7 12 -22 13 -28 3z"/>
<path d="M1810 7671 c0 -31 0 -31 -55 -31 l-55 0 0 -55 c0 -30 5 -55 10 -55 6
0 10 20 10 44 0 40 2 44 30 49 49 10 62 0 59 -47 -4 -77 1 -146 10 -146 5 0 7
43 5 95 l-4 95 25 0 c31 0 33 17 3 22 -17 2 -22 9 -20 25 2 12 -2 24 -8 28 -6
4 -10 -6 -10 -24z"/>
<path d="M4341 7560 l-2 -135 118 3 c65 2 124 5 131 7 9 3 12 39 12 135 0 71
-3 130 -7 130 -5 0 -18 -3 -31 -6 -22 -6 -22 -7 -4 -20 17 -12 19 -23 15 -111
-3 -54 -7 -100 -9 -103 -11 -11 -24 29 -24 75 0 28 -3 67 -6 88 l-7 37 -64 0
c-64 0 -65 0 -61 -25 3 -14 1 -25 -4 -25 -6 0 -8 -28 -6 -65 1 -36 0 -65 -4
-65 -5 0 -8 -8 -9 -17 -1 -10 -5 -2 -10 17 -5 19 -7 71 -3 116 l6 81 74 -1
c105 -1 92 12 -15 16 l-89 3 -1 -135z m142 73 c-13 -2 -33 -2 -45 0 -13 2 -3
4 22 4 25 0 35 -2 23 -4z m20 -30 c-7 -2 -19 -2 -25 0 -7 3 -2 5 12 5 14 0 19
-2 13 -5z m-5 -20 c-15 -2 -42 -2 -60 0 -18 2 -6 4 27 4 33 0 48 -2 33 -4z m0
-40 c-15 -2 -42 -2 -60 0 -18 2 -6 4 27 4 33 0 48 -2 33 -4z m17 -23 c-3 -5
-28 -10 -56 -10 -27 0 -49 5 -49 10 0 6 25 10 56 10 34 0 53 -4 49 -10z m-25
-29 c0 -5 9 -13 20 -16 11 -3 20 -10 20 -14 0 -12 -108 -13 -115 -1 -3 6 0 10
8 10 8 0 20 7 27 15 14 17 40 20 40 6z"/>
<path d="M11187 7693 c18 -2 50 -2 70 0 21 2 7 4 -32 4 -38 0 -55 -2 -38 -4z"/>
<path d="M13171 7657 c0 -26 -8 -63 -15 -82 -9 -20 -11 -35 -5 -35 5 0 12 8
15 18 3 9 11 27 16 39 8 16 8 35 1 65 l-11 43 -1 -48z"/>
<path d="M1061 7681 c-86 -5 -92 -7 -69 -19 19 -11 37 -11 85 -3 33 6 68 9 77
5 11 -4 16 -1 16 10 0 9 -3 15 -7 14 -5 -1 -50 -4 -102 -7z"/>
<path d="M5294 7679 c-3 -6 -2 -14 4 -18 7 -4 4 -33 -10 -88 -16 -63 -26 -83
-42 -89 -14 -5 8 -9 63 -11 46 -2 88 0 92 4 4 4 11 22 15 38 l7 30 -26 -27
c-19 -21 -36 -28 -62 -28 -36 0 -36 1 -30 33 9 41 13 47 31 47 8 0 14 -9 14
-21 0 -12 5 -19 13 -16 6 2 11 10 9 17 -1 7 3 19 9 26 10 12 9 18 -1 27 -10 9
-13 9 -17 0 -7 -18 -33 -16 -33 3 0 23 19 54 33 54 7 0 24 -7 40 -14 27 -15
27 -14 27 15 0 33 1 33 -52 17 -29 -9 -41 -9 -50 0 -15 15 -25 15 -34 1z"/>
<path d="M6531 7652 c-37 -35 -41 -43 -41 -89 0 -55 15 -77 63 -88 33 -9 114
22 98 38 -5 5 -19 2 -35 -8 -26 -17 -92 -13 -81 5 3 5 1 11 -5 15 -17 11 -11
61 12 91 30 39 38 44 75 44 27 0 34 -5 39 -26 9 -34 27 -16 22 22 -3 26 -7 28
-54 32 -49 3 -54 1 -93 -36z"/>
<path d="M9620 7671 c0 -12 5 -21 10 -21 6 0 10 6 10 14 0 8 -4 18 -10 21 -5
3 -10 -3 -10 -14z"/>
<path d="M10152 7670 c0 -14 2 -19 5 -12 2 6 2 18 0 25 -3 6 -5 1 -5 -13z"/>
<path d="M11658 7682 c-27 -2 -48 -8 -48 -13 0 -6 14 -7 35 -3 22 4 41 2 49
-5 11 -9 16 -9 21 -1 11 19 -6 25 -57 22z"/>
<path d="M12427 7683 c-11 -10 -8 -43 3 -43 15 0 24 30 13 41 -5 5 -12 6 -16
2z"/>
<path d="M12920 7681 c0 -5 -3 -16 -6 -25 -4 -10 -1 -16 9 -16 14 0 27 20 27
41 0 5 -7 9 -15 9 -8 0 -15 -4 -15 -9z"/>
<path d="M918 7673 c7 -3 16 -2 19 1 4 3 -2 6 -13 5 -11 0 -14 -3 -6 -6z"/>
<path d="M2840 7660 c0 -11 4 -20 9 -20 13 0 32 26 24 33 -13 14 -33 6 -33
-13z"/>
<path d="M3120 7669 c0 -5 5 -7 10 -4 6 3 10 8 10 11 0 2 -4 4 -10 4 -5 0 -10
-5 -10 -11z"/>
<path d="M3224 7665 c3 -8 2 -15 -2 -15 -4 0 -8 -23 -10 -50 -1 -29 2 -50 8
-50 5 0 10 16 10 35 0 19 3 35 8 35 4 0 7 14 8 30 1 20 -4 30 -14 30 -8 0 -12
-6 -8 -15z"/>
<path d="M6390 7627 c-22 -30 -40 -57 -40 -61 0 -14 -55 -76 -68 -76 -7 0 -10
-4 -7 -10 12 -20 44 -10 57 18 9 18 22 28 42 30 24 3 28 1 22 -15 -4 -10 -8
-22 -9 -28 -3 -14 53 -19 66 -6 8 8 7 11 -3 11 -10 0 -12 19 -7 95 4 57 3 95
-3 95 -5 0 -27 -24 -50 -53z m13 -57 c-3 -11 -12 -20 -20 -20 -8 0 -12 3 -10
8 2 4 7 15 10 25 9 24 27 12 20 -13z"/>
<path d="M9317 7639 c-3 -23 -3 -47 -1 -53 6 -14 73 -8 89 8 25 25 27 86 3 86
-6 0 -7 -7 -4 -16 6 -16 -9 -54 -27 -66 -14 -8 -38 2 -31 13 3 5 0 9 -5 9 -16
0 -13 16 4 34 20 19 19 26 -4 26 -14 0 -20 -10 -24 -41z"/>
<path d="M10240 7661 c0 -10 -3 -33 -6 -50 -5 -23 -3 -31 7 -31 10 0 14 14 14
50 0 27 -3 50 -7 50 -5 0 -8 -8 -8 -19z"/>
<path d="M12206 7664 c-10 -27 -7 -154 5 -154 6 0 10 23 9 58 0 31 2 69 6 85
7 29 -9 38 -20 11z"/>
<path d="M3273 7664 c4 -4 17 -12 29 -18 18 -9 24 -22 26 -55 4 -57 -16 -85
-69 -99 -47 -12 -61 -9 -53 13 3 7 1 22 -5 32 -9 16 -10 15 -11 -9 0 -14 -3
-33 -6 -42 -5 -13 3 -16 46 -16 96 0 154 63 131 141 -7 21 -20 43 -31 49 -20
11 -67 14 -57 4z"/>
<path d="M11530 7637 c0 -34 -2 -37 -30 -37 -16 0 -30 -4 -30 -10 0 -5 12 -10
26 -10 17 0 28 -6 31 -20 11 -40 21 -18 19 40 -2 65 -16 96 -16 37z"/>
<path d="M83 7640 c-3 -11 -10 -20 -15 -20 -6 0 -5 -7 2 -16 9 -9 13 -37 11
-74 -1 -33 2 -61 8 -65 7 -4 11 10 11 39 0 25 3 46 6 46 14 0 34 -31 34 -54 0
-29 19 -36 21 -8 2 32 -3 57 -12 60 -5 2 -9 12 -9 23 0 12 -7 19 -20 19 -19 0
-25 13 -21 53 3 24 -10 22 -16 -3z"/>
<path d="M1420 7645 c0 -8 4 -15 10 -15 5 0 7 7 4 15 -4 8 -8 15 -10 15 -2 0
-4 -7 -4 -15z"/>
<path d="M2920 7630 c0 -27 -8 -35 -32 -31 -5 0 -8 -3 -8 -9 0 -5 5 -10 11
-10 8 0 10 -15 7 -45 -4 -34 -2 -45 8 -45 10 0 14 15 14 55 0 30 4 55 9 55 11
0 19 30 14 48 -8 23 -23 12 -23 -18z"/>
<path d="M8691 7628 c-11 -18 -26 -41 -33 -50 -7 -9 -9 -21 -5 -25 5 -4 12 -1
17 7 7 10 10 -7 10 -52 0 -37 5 -70 10 -73 6 -4 10 26 10 83 0 76 3 92 20 107
11 10 17 22 14 26 -10 16 -22 9 -43 -23z"/>
<path d="M9490 7650 c0 -5 1 -12 3 -15 1 -3 -4 -10 -12 -14 -7 -5 -11 -15 -9
-22 3 -9 11 -2 21 18 20 37 21 43 7 43 -5 0 -10 -4 -10 -10z"/>
<path d="M140 7638 c0 -7 5 -20 10 -28 8 -12 10 -9 10 13 0 15 -4 27 -10 27
-5 0 -10 -6 -10 -12z"/>
<path d="M2702 7630 c-16 -26 -15 -30 3 -30 9 0 15 9 15 25 0 30 -2 31 -18 5z"/>
<path d="M11616 7632 c-4 -13 -5 -26 -2 -29 10 -11 18 4 14 29 l-4 23 -8 -23z"/>
<path d="M1150 7633 c0 -5 5 -15 10 -23 8 -12 10 -11 10 8 0 12 -4 22 -10 22
-5 0 -10 -3 -10 -7z"/>
<path d="M2990 7620 c0 -11 -4 -20 -10 -20 -5 0 -10 -20 -10 -45 0 -25 5 -45
10 -45 6 0 10 18 10 39 0 22 4 42 9 46 11 6 10 45 -1 45 -4 0 -8 -9 -8 -20z"/>
<path d="M2841 7618 c-1 -10 -5 -18 -11 -18 -5 0 -10 -10 -10 -22 -1 -13 -7
-34 -15 -48 -27 -47 -20 -60 30 -60 25 0 45 4 45 10 0 5 -8 9 -17 8 -39 -3
-53 3 -53 22 0 11 5 20 10 20 6 0 10 5 10 12 0 6 7 19 15 28 12 13 13 23 6 41
-7 17 -10 19 -10 7z"/>
<path d="M1020 7601 c0 -10 -7 -21 -15 -25 -10 -3 -15 1 -15 11 0 14 -2 15
-12 4 -11 -10 -9 -15 6 -26 18 -14 18 -25 1 -82 -6 -19 -4 -21 15 -16 20 5 22
10 16 49 -5 40 -4 44 19 50 32 8 36 54 5 54 -13 0 -20 -7 -20 -19z"/>
<path d="M10666 7605 c4 -8 10 -12 15 -9 14 8 10 24 -6 24 -9 0 -12 -6 -9 -15z"/>
<path d="M11130 7603 c0 -10 5 -25 10 -33 8 -12 10 -11 10 8 0 17 6 22 26 22
14 0 23 4 19 10 -3 6 -19 10 -36 10 -21 0 -29 -5 -29 -17z"/>
<path d="M11701 7588 c0 -28 2 -30 9 -13 12 28 12 45 0 45 -5 0 -10 -15 -9
-32z"/>
<path d="M12312 7608 c3 -8 20 -11 46 -9 l42 3 0 -36 c0 -20 -4 -36 -10 -36
-5 0 -10 -4 -10 -10 0 -16 27 -11 34 6 3 9 6 33 6 55 l0 39 -56 0 c-39 0 -54
-4 -52 -12z"/>
<path d="M12544 7611 c7 -11 124 -12 132 0 3 5 -26 9 -66 9 -39 0 -69 -4 -66
-9z"/>
<path d="M12923 7608 c0 -7 -3 -23 -7 -35 -6 -17 -3 -23 8 -23 12 0 16 10 16
35 0 19 -4 35 -8 35 -5 0 -9 -6 -9 -12z"/>
<path d="M13490 7610 c0 -5 7 -10 15 -10 8 0 15 5 15 10 0 6 -7 10 -15 10 -8
0 -15 -4 -15 -10z"/>
<path d="M7820 7600 c-30 -5 -88 -8 -129 -9 -67 -1 -73 -2 -56 -15 11 -8 23
-12 28 -9 4 3 60 6 123 6 94 1 114 4 112 16 -4 19 -12 20 -78 11z"/>
<path d="M1080 7581 c0 -27 15 -34 34 -15 19 19 12 34 -15 34 -12 0 -19 -7
-19 -19z"/>
<path d="M4225 7591 c-6 -5 -19 -11 -30 -14 -11 -3 0 -5 23 -6 30 -1 42 3 40
11 -6 16 -22 20 -33 9z"/>
<path d="M4779 7584 c-18 -21 0 -48 35 -52 24 -3 26 0 26 32 0 31 -3 36 -24
36 -13 0 -29 -7 -37 -16z m41 -19 c0 -8 -4 -15 -9 -15 -13 0 -22 16 -14 24 11
11 23 6 23 -9z"/>
<path d="M7458 7561 c16 -24 31 -36 36 -30 6 5 -1 20 -19 39 -40 42 -50 37
-17 -9z"/>
<path d="M8808 7593 c-49 -2 -88 -8 -88 -13 0 -11 3 -11 70 -14 70 -2 64 -20
-10 -27 -36 -3 -55 -6 -44 -7 14 -1 24 -11 28 -27 4 -14 13 -25 21 -25 17 0
20 16 5 25 -21 13 -9 25 24 25 32 0 35 -2 34 -30 -1 -22 -6 -30 -20 -30 -23 0
-23 -16 0 -29 27 -14 42 5 42 51 0 36 2 38 30 38 17 0 30 5 30 11 0 7 -11 9
-30 6 -23 -5 -30 -3 -30 9 0 9 6 14 13 11 19 -7 41 8 33 22 -4 6 -10 10 -14 9
-4 -1 -46 -4 -94 -5z"/>
<path d="M9993 7554 c2 -26 11 -50 18 -55 19 -12 89 -11 89 1 0 6 -20 10 -45
10 l-45 0 0 45 c0 27 -5 45 -11 45 -8 0 -10 -15 -6 -46z"/>
<path d="M10270 7590 c0 -5 9 -10 20 -10 11 0 20 5 20 10 0 6 -9 10 -20 10
-11 0 -20 -4 -20 -10z"/>
<path d="M11565 7590 c-3 -5 3 -10 14 -10 12 0 21 5 21 10 0 6 -6 10 -14 10
-8 0 -18 -4 -21 -10z"/>
<path d="M12153 7593 c-15 -5 -18 -33 -4 -33 8 0 25 30 19 35 -2 1 -9 0 -15
-2z"/>
<path d="M12855 7590 c-4 -6 5 -10 20 -10 15 0 24 4 20 10 -3 6 -12 10 -20 10
-8 0 -17 -4 -20 -10z"/>
<path d="M2140 7580 c0 -5 7 -7 15 -4 8 4 15 8 15 10 0 2 -7 4 -15 4 -8 0 -15
-4 -15 -10z"/>
<path d="M3984 7581 c-2 -3 11 -10 30 -16 44 -15 148 -14 153 2 3 8 -23 13
-87 15 -51 2 -94 1 -96 -1z"/>
<path d="M13017 7582 c-5 -7 -5 -21 -2 -32 4 -11 2 -20 -4 -20 -6 0 -11 -4
-11 -10 0 -5 11 -10 25 -10 14 0 25 5 25 10 0 6 -4 10 -9 10 -6 0 -11 15 -13
33 -2 21 -6 28 -11 19z"/>
<path d="M9470 7550 c0 -20 5 -41 12 -48 14 -14 98 -16 98 -2 0 6 -22 10 -49
10 -44 0 -49 2 -44 19 3 11 0 28 -6 38 -9 15 -10 12 -11 -17z"/>
<path d="M12310 7564 c0 -8 5 -12 10 -9 6 4 8 11 5 16 -9 14 -15 11 -15 -7z"/>
<path d="M9400 7550 c0 -11 -5 -20 -11 -20 -5 0 -7 -4 -4 -10 14 -22 35 -10
35 20 0 17 -4 30 -10 30 -5 0 -10 -9 -10 -20z"/>
<path d="M2698 7552 c-22 -4 -22 -9 -3 -29 19 -18 28 -12 23 14 -2 11 -10 17
-20 15z"/>
<path d="M9301 7544 c0 -11 3 -14 6 -6 3 7 2 16 -1 19 -3 4 -6 -2 -5 -13z"/>
<path d="M11619 7555 c-10 -16 -9 -85 0 -85 5 0 11 8 13 18 5 23 -6 80 -13 67z"/>
<path d="M9760 7540 c0 -12 24 -12 60 0 21 7 19 8 -17 9 -24 1 -43 -3 -43 -9z"/>
<path d="M10206 7534 c-4 -10 -1 -14 6 -12 15 5 23 28 10 28 -5 0 -13 -7 -16
-16z"/>
<path d="M11130 7540 c0 -5 5 -10 10 -10 6 0 10 5 10 10 0 6 -4 10 -10 10 -5
0 -10 -4 -10 -10z"/>
<path d="M1156 7525 c-3 -8 -1 -15 4 -15 6 0 10 7 10 15 0 8 -2 15 -4 15 -2 0
-6 -7 -10 -15z"/>
<path d="M1060 7512 c0 -10 -5 -23 -12 -30 -9 -9 -6 -12 14 -12 29 0 46 16 26
23 -10 3 -10 7 1 20 12 15 11 17 -8 17 -14 0 -21 -6 -21 -18z"/>
<path d="M11511 7514 c0 -11 3 -14 6 -6 3 7 2 16 -1 19 -3 4 -6 -2 -5 -13z"/>
<path d="M12290 7520 c0 -5 7 -10 15 -10 8 0 15 5 15 10 0 6 -7 10 -15 10 -8
0 -15 -4 -15 -10z"/>
<path d="M12900 7520 c0 -5 9 -10 20 -10 11 0 20 5 20 10 0 6 -9 10 -20 10
-11 0 -20 -4 -20 -10z"/>
<path d="M13070 7520 c0 -5 9 -10 20 -10 11 0 20 5 20 10 0 6 -9 10 -20 10
-11 0 -20 -4 -20 -10z"/>
<path d="M5767 7494 c-11 -15 -16 -32 -12 -42 5 -14 9 -12 21 11 21 39 14 62
-9 31z"/>
<path d="M5810 7492 c0 -18 4 -32 9 -32 16 0 19 26 5 45 -13 17 -14 17 -14
-13z"/>
<path d="M5857 7495 c3 -14 10 -25 15 -25 13 0 6 43 -8 47 -7 2 -10 -6 -7 -22z"/>
<path d="M9287 7512 c-40 -8 -12 -22 43 -22 33 0 60 4 60 9 0 9 -74 18 -103
13z"/>
<path d="M3707 7483 c-18 -23 -16 -60 2 -49 10 6 26 65 19 71 -1 2 -11 -8 -21
-22z"/>
<path d="M3760 7481 c0 -17 5 -31 10 -31 6 0 10 11 10 24 0 14 -4 28 -10 31
-6 4 -10 -7 -10 -24z"/>
<path d="M10190 7500 c0 -6 30 -10 70 -10 40 0 70 4 70 10 0 6 -30 10 -70 10
-40 0 -70 -4 -70 -10z"/>
<path d="M1420 7490 c0 -5 5 -10 10 -10 6 0 10 5 10 10 0 6 -4 10 -10 10 -5 0
-10 -4 -10 -10z"/>
<path d="M2592 7485 c-11 -12 -10 -15 3 -15 8 0 15 7 15 15 0 18 -2 18 -18 0z"/>
<path d="M3010 7480 c0 -5 18 -10 41 -10 24 0 38 4 34 10 -3 6 -22 10 -41 10
-19 0 -34 -4 -34 -10z"/>
<path d="M11350 7480 c0 -5 5 -10 10 -10 6 0 10 5 10 10 0 6 -4 10 -10 10 -5
0 -10 -4 -10 -10z"/>
<path d="M910 7434 c0 -8 5 -12 10 -9 6 4 8 11 5 16 -9 14 -15 11 -15 -7z"/>
<path d="M1155 7440 c-3 -5 -1 -10 4 -10 6 0 11 5 11 10 0 6 -2 10 -4 10 -3 0
-8 -4 -11 -10z"/>
<path d="M1008 7433 c6 -2 18 -2 25 0 6 3 1 5 -13 5 -14 0 -19 -2 -12 -5z"/>
<path d="M2848 7293 c-43 -2 -78 -8 -78 -13 0 -6 10 -10 21 -10 21 0 22 -3 16
-70 -5 -56 -12 -80 -37 -116 -17 -26 -28 -49 -24 -53 6 -7 64 58 64 72 0 5 7
25 17 44 l16 35 23 -49 c13 -26 24 -48 24 -49 0 -1 -66 -29 -95 -40 -19 -7
-19 -8 3 -11 12 -3 43 5 67 17 l45 22 43 -21 c48 -23 63 -26 72 -12 3 6 -15
19 -40 30 -25 11 -45 23 -45 27 0 4 14 29 30 56 17 26 30 50 30 53 0 3 -13 5
-29 5 -38 0 -43 10 -26 44 16 29 12 47 -8 44 -7 -1 -47 -4 -89 -5z m72 -28
c-1 -40 -14 -55 -46 -55 -31 0 -34 3 -34 28 0 16 2 31 5 34 9 9 75 3 75 -7z
m40 -82 c0 -11 -44 -73 -52 -73 -9 0 -38 54 -38 70 0 5 20 10 45 10 25 0 45
-3 45 -7z"/>
<path d="M3605 7274 c-42 -14 -65 -32 -65 -49 0 -7 -6 -18 -14 -24 -16 -13
-13 -63 5 -97 13 -25 49 -44 83 -44 25 0 76 35 76 52 0 7 -4 7 -12 1 -7 -6
-27 -15 -45 -21 -27 -9 -36 -8 -58 9 -14 11 -25 30 -25 42 1 35 36 104 60 117
30 16 70 5 70 -20 0 -28 17 -33 24 -7 12 44 7 52 -29 53 -19 0 -51 -5 -70 -12z"/>
<path d="M4766 7275 c-17 -17 -21 -52 -8 -72 13 -21 58 -26 76 -8 17 17 21 52
8 72 -13 21 -58 26 -76 8z m57 -36 c7 -25 -17 -37 -38 -19 -12 10 -13 16 -4
26 17 20 36 17 42 -7z"/>
<path d="M1292 7195 c-34 -46 -62 -89 -62 -94 0 -6 -10 -17 -22 -25 -22 -16
-22 -16 9 -16 27 0 32 4 37 33 5 25 11 33 31 35 32 2 40 -14 21 -43 l-16 -25
40 0 c22 0 40 5 40 10 0 6 -5 10 -11 10 -7 0 -8 31 -4 100 4 55 6 100 3 100
-2 0 -32 -38 -66 -85z m38 -2 c-1 -14 -30 -47 -36 -41 -6 7 17 48 28 48 5 0 8
-3 8 -7z"/>
<path d="M2140 7249 c-28 -38 -25 -53 13 -70 23 -10 33 -22 35 -42 5 -38 -11
-55 -48 -49 -23 3 -30 0 -30 -12 0 -26 57 -20 85 9 36 35 33 79 -7 117 -26 24
-29 31 -17 39 8 5 22 9 32 9 9 0 17 6 17 14 0 27 -59 16 -80 -15z"/>
<path d="M2286 7264 c-20 -20 -20 -53 -1 -74 14 -15 14 -18 0 -30 -8 -7 -15
-28 -15 -46 0 -27 5 -37 26 -46 57 -26 110 47 68 93 -16 18 -16 20 -1 37 22
24 21 45 -1 65 -23 21 -56 22 -76 1z m54 -34 c0 -31 -16 -41 -26 -15 -8 19 2
45 16 45 5 0 10 -13 10 -30z m-2 -118 c-2 -14 -8 -27 -15 -29 -15 -5 -26 31
-18 58 5 16 9 18 21 8 8 -7 14 -24 12 -37z"/>
<path d="M2418 7255 c-25 -55 34 -101 76 -59 33 32 11 84 -35 84 -22 0 -32 -6
-41 -25z m62 -11 c11 -12 11 -18 -2 -31 -20 -20 -38 -9 -38 23 0 27 21 32 40
8z"/>
<path d="M3368 7177 c-54 -56 -98 -103 -98 -104 0 -2 47 -3 105 -3 122 0 144
18 28 22 l-78 3 83 83 c45 45 82 87 82 92 0 26 -33 1 -122 -93z"/>
<path d="M3767 7272 c13 -8 0 -89 -18 -106 -5 -6 -9 -17 -9 -25 0 -9 -7 -28
-14 -43 l-15 -28 64 0 c59 0 65 2 84 29 25 35 26 39 5 62 -15 16 -14 19 5 31
27 17 28 63 2 78 -22 11 -122 14 -104 2z m81 -35 c4 -21 -15 -47 -34 -47 -15
0 -18 27 -8 55 8 21 38 15 42 -8z m-13 -87 c9 -29 -12 -60 -41 -60 -24 0 -25
3 -19 33 4 17 9 35 12 40 9 15 42 6 48 -13z"/>
<path d="M3947 7257 c6 -28 -33 -168 -49 -179 -8 -6 19 -8 66 -6 78 3 79 4
112 42 43 50 46 98 9 139 -22 23 -33 27 -84 27 -55 0 -58 -1 -54 -23z m111 -9
c17 -17 15 -73 -3 -108 -18 -35 -43 -50 -83 -50 l-30 0 15 58 c8 31 19 62 24
68 5 7 9 16 8 20 -3 19 2 24 29 24 15 0 33 -5 40 -12z"/>
<path d="M4446 7256 c-10 -16 -12 -27 -6 -31 6 -3 13 0 16 9 8 20 34 28 50 15
28 -23 16 -67 -31 -118 -25 -26 -45 -51 -45 -55 0 -3 27 -6 60 -6 49 0 61 3
70 20 10 19 9 20 -32 14 l-42 -7 18 29 c11 16 25 38 33 49 16 24 17 77 1 93
-22 22 -74 14 -92 -12z"/>
<path d="M4632 7268 c-5 -7 -13 -28 -17 -45 -6 -28 -4 -33 13 -33 24 0 62 -32
62 -52 0 -26 -35 -50 -64 -42 -20 5 -26 2 -26 -10 0 -21 52 -22 84 0 49 31 40
107 -14 127 -41 16 -38 35 7 39 52 4 56 28 5 28 -22 0 -44 -6 -50 -12z"/>
<path d="M1107 7242 c-15 -15 -27 -31 -27 -34 0 -3 -29 -35 -65 -69 -36 -35
-65 -67 -65 -71 0 -5 45 -8 100 -8 118 0 136 18 23 22 l-78 3 71 70 c77 76
104 115 81 115 -7 0 -25 -13 -40 -28z"/>
<path d="M1453 7231 c-1 -22 -11 -60 -22 -85 -12 -25 -21 -50 -21 -55 0 -6 -4
-11 -10 -11 -5 0 -10 -4 -10 -10 0 -16 109 -12 143 5 70 34 94 120 48 169 -20
21 -34 26 -76 26 l-51 0 -1 -39z m108 -9 c25 -32 19 -65 -18 -104 -24 -25 -78
-46 -89 -35 -4 4 19 97 41 164 6 18 43 4 66 -25z"/>
<path d="M1664 7257 c12 -9 15 -16 8 -20 -5 -4 -8 -16 -5 -27 3 -11 1 -20 -4
-20 -6 0 -15 -25 -22 -55 -7 -30 -17 -55 -22 -55 -5 0 -9 -4 -9 -10 0 -16 113
-12 138 6 23 16 32 77 13 89 -5 3 1 17 15 32 22 23 23 28 10 47 -11 17 -26 22
-77 24 -57 3 -62 1 -45 -11z m86 -32 c0 -21 -24 -45 -44 -45 -8 0 -7 55 1 63
3 4 15 7 25 7 12 0 18 -7 18 -25z m-12 -89 c7 -34 -55 -75 -72 -48 -3 5 2 25
11 44 14 30 20 35 37 28 12 -4 23 -15 24 -24z"/>
<path d="M5125 7190 c-4 -6 5 -10 19 -10 14 0 26 5 26 10 0 6 -9 10 -19 10
-11 0 -23 -4 -26 -10z"/>
<path d="M1870 7174 c0 -11 17 -14 80 -14 47 0 80 4 80 10 0 12 5 11 -87 15
-59 3 -73 1 -73 -11z"/>
<path d="M4190 7180 c0 -6 33 -10 79 -10 44 0 83 5 86 10 4 6 -25 10 -79 10
-51 0 -86 -4 -86 -10z"/>
<path d="M5135 7150 c-3 -5 3 -10 15 -10 12 0 18 5 15 10 -3 6 -10 10 -15 10
-5 0 -12 -4 -15 -10z"/>
<path d="M1882 7128 c-24 -24 -11 -29 66 -26 44 2 75 7 72 12 -3 6 -21 9 -41
7 -21 -1 -40 2 -44 8 -8 15 -38 14 -53 -1z"/>
<path d="M4195 7130 c-3 -5 0 -13 8 -16 23 -9 142 0 142 11 0 14 -142 19 -150
5z"/>
<path d="M7343 6954 c-18 -19 -33 -38 -33 -42 0 -4 -20 -33 -45 -64 -25 -32
-45 -60 -45 -63 0 -3 11 -5 25 -5 19 0 25 5 25 23 0 29 18 47 46 47 21 0 22
-3 13 -32 -5 -18 -9 -34 -9 -35 0 -2 13 -3 28 -3 l28 0 2 78 c1 42 5 89 8 105
7 36 -4 34 -43 -9z m7 -64 c0 -13 -7 -20 -20 -20 -18 0 -19 3 -10 20 6 11 15
20 20 20 6 0 10 -9 10 -20z"/>
<path d="M7085 6664 c-154 -15 -387 -57 -435 -77 -14 -6 -29 -12 -35 -12 -5
-1 -17 -5 -25 -8 -8 -4 -35 -13 -60 -21 -102 -32 -190 -66 -236 -90 -27 -13
-76 -36 -109 -51 -33 -14 -76 -36 -95 -49 -19 -13 -66 -44 -105 -70 -120 -79
-169 -114 -200 -143 -16 -15 -51 -44 -77 -64 -51 -39 -259 -245 -293 -290 -11
-15 -64 -85 -118 -156 -53 -70 -104 -144 -113 -163 -10 -19 -33 -59 -52 -89
-19 -29 -50 -88 -68 -130 -19 -42 -44 -94 -56 -115 -18 -34 -84 -212 -124
-336 -28 -87 -77 -369 -90 -520 -12 -142 -15 -323 -5 -333 6 -6 11 -35 11 -64
0 -127 69 -510 106 -590 8 -18 23 -58 34 -90 25 -77 59 -157 120 -281 27 -57
50 -107 50 -113 0 -5 3 -9 8 -9 4 0 23 -28 41 -62 19 -35 58 -95 87 -134 28
-39 59 -85 68 -102 9 -17 24 -37 34 -44 9 -7 26 -26 36 -43 50 -79 355 -364
457 -427 27 -16 49 -34 49 -39 0 -6 12 -15 28 -22 15 -7 68 -37 117 -68 79
-49 176 -99 295 -152 60 -27 214 -79 233 -78 9 0 17 -4 17 -10 0 -5 7 -9 15
-9 9 0 44 -9 78 -20 183 -57 619 -86 872 -56 198 23 435 71 435 88 0 4 7 8 16
8 30 0 226 72 306 112 42 21 81 38 85 38 5 0 31 15 58 33 28 17 83 52 124 76
40 24 81 51 91 61 10 10 40 30 66 46 87 49 375 315 432 399 15 22 37 48 50 58
12 10 22 27 22 38 0 11 5 25 10 32 6 7 22 26 36 42 14 17 32 46 40 65 8 20 26
44 39 54 14 10 25 24 25 30 0 6 9 22 20 36 11 14 20 31 20 39 0 8 7 22 16 32
9 10 11 19 5 23 -5 4 -17 -9 -27 -29 -9 -19 -20 -35 -25 -35 -5 0 -9 -7 -9
-15 0 -14 -16 -37 -47 -70 -7 -8 -13 -21 -13 -29 0 -9 -3 -16 -7 -16 -5 0 -19
-17 -33 -37 -14 -20 -29 -41 -35 -47 -5 -6 -36 -45 -67 -86 -119 -158 -348
-370 -568 -525 l-55 -39 53 59 c29 33 77 86 105 119 29 32 82 90 120 128 37
38 67 73 67 76 0 4 17 25 38 47 21 22 87 94 147 160 59 66 116 128 127 138 10
10 18 24 18 32 0 8 5 15 10 15 6 0 10 7 10 15 0 8 7 15 15 15 8 0 15 5 15 10
0 6 38 49 85 96 47 48 85 91 85 98 0 6 5 4 10 -4 6 -9 6 -18 0 -24 -13 -13
-13 -46 1 -46 6 0 8 9 4 20 -5 14 -2 20 9 20 10 0 16 9 16 25 0 14 5 25 10 25
6 0 10 9 10 20 0 11 5 20 10 20 6 0 10 9 10 19 0 11 5 23 10 26 6 3 10 15 10
25 0 10 6 25 13 32 23 23 42 97 29 110 -9 9 -12 6 -12 -14 0 -14 -11 -46 -25
-69 -14 -24 -25 -52 -25 -63 0 -12 -5 -16 -16 -12 -9 3 -18 6 -20 6 -2 0 -4 6
-4 14 0 8 -10 23 -23 33 -13 10 -22 23 -20 29 2 6 -3 17 -12 24 -8 7 -15 21
-15 31 0 11 -4 19 -10 19 -5 0 -10 5 -10 11 0 11 -50 82 -62 87 -5 2 -8 12 -8
21 0 10 -13 34 -29 54 -15 20 -34 50 -41 67 -7 16 -16 30 -21 30 -5 0 -9 5 -9
12 0 18 -33 88 -42 88 -4 0 -8 5 -8 11 0 6 -20 42 -45 80 -25 38 -45 72 -45
74 0 3 -16 27 -35 54 -19 26 -35 52 -35 57 0 5 -16 34 -36 64 -20 30 -51 82
-69 115 -18 33 -60 103 -93 157 -34 53 -67 108 -73 122 -7 14 -16 26 -20 26
-4 0 -26 37 -49 83 -23 45 -48 89 -55 97 -7 8 -32 49 -55 90 -24 41 -60 100
-81 130 -20 30 -49 78 -63 105 -14 28 -49 86 -76 130 -28 44 -58 95 -66 113
-9 17 -20 32 -24 32 -5 0 -12 10 -16 22 -4 12 -31 59 -60 104 -29 45 -67 109
-84 141 -18 32 -47 81 -66 108 -18 28 -50 80 -71 117 -63 111 -156 262 -175
282 -10 11 -18 25 -18 31 0 6 -25 49 -56 95 -30 47 -68 110 -84 140 -15 31
-46 83 -68 115 -21 33 -51 83 -66 110 -16 28 -34 57 -42 66 -8 8 -14 18 -14
22 0 3 -25 48 -56 98 l-55 92 121 -7 c130 -8 405 -50 424 -65 6 -5 27 -12 46
-16 19 -3 53 -12 75 -19 22 -8 79 -26 128 -41 48 -15 87 -31 87 -35 0 -4 11
-11 25 -14 27 -7 197 -85 205 -95 3 -3 30 -19 60 -35 78 -40 142 -85 239 -163
45 -37 93 -75 105 -83 36 -23 246 -226 246 -236 0 -6 126 -151 162 -187 16
-15 26 -32 23 -37 -4 -6 -2 -10 3 -10 5 0 22 -20 38 -45 26 -42 44 -57 44 -37
0 12 -79 130 -107 160 -13 14 -23 33 -23 43 0 9 -13 29 -30 42 -16 14 -30 30
-30 35 0 15 -223 234 -320 316 -141 117 -174 143 -224 171 -26 15 -69 40 -94
55 -78 48 -155 90 -165 90 -5 0 -41 16 -79 36 -39 19 -121 51 -182 70 -61 20
-120 39 -131 44 -36 16 -98 30 -250 56 -123 21 -190 26 -375 29 -124 2 -243 1
-265 -1z m175 -29 c0 -3 -18 -31 -39 -63 -22 -31 -45 -70 -52 -87 -8 -16 -42
-74 -77 -128 -35 -54 -66 -106 -69 -115 -7 -17 -15 -28 -40 -57 -7 -7 -13 -16
-13 -20 0 -9 -79 -143 -112 -189 -15 -21 -28 -43 -28 -48 0 -4 -24 -46 -54
-92 -30 -46 -65 -103 -78 -127 -12 -24 -41 -72 -64 -107 -23 -34 -54 -87 -70
-117 -15 -30 -31 -55 -36 -55 -5 0 -6 -4 -3 -10 3 -5 1 -10 -5 -10 -6 0 -15
-12 -20 -26 -6 -14 -39 -70 -75 -124 -36 -54 -65 -102 -65 -105 0 -4 -24 -44
-54 -88 -29 -45 -68 -110 -87 -144 -29 -54 -104 -176 -162 -262 -9 -14 -20
-34 -23 -43 -4 -10 -10 -18 -15 -18 -5 0 -9 -6 -9 -13 0 -7 -20 -41 -43 -77
-24 -36 -62 -99 -85 -141 -22 -41 -59 -103 -81 -136 -23 -34 -46 -73 -53 -87
-6 -15 -15 -26 -19 -26 -4 0 -25 -33 -47 -74 -22 -41 -61 -106 -86 -145 -25
-38 -46 -73 -46 -76 0 -3 -24 -43 -54 -88 -30 -46 -60 -96 -67 -112 -7 -17
-38 -68 -67 -114 -30 -47 -65 -104 -77 -127 -12 -23 -32 -52 -44 -65 -11 -12
-21 -27 -21 -31 0 -5 -28 -53 -62 -106 -33 -53 -70 -114 -80 -135 l-19 -39
-21 39 c-23 44 -84 207 -103 273 -6 25 -17 55 -22 65 -31 59 -81 394 -90 600
-10 240 39 675 88 780 5 11 20 58 34 105 31 105 57 173 103 270 19 41 46 98
59 125 13 28 42 79 64 115 21 36 46 80 55 98 8 18 21 35 29 38 8 4 12 10 9 15
-3 5 0 9 6 9 6 0 14 10 19 23 12 31 155 208 228 282 211 213 414 379 560 456
43 23 89 49 103 59 30 20 110 57 164 76 22 8 45 19 51 24 15 12 252 90 274 90
10 0 21 3 25 7 8 9 6 8 151 39 149 31 415 56 415 39z m80 -200 c5 -11 21 -74
35 -140 14 -66 32 -151 40 -190 8 -38 22 -95 30 -125 23 -84 94 -379 105 -435
6 -27 14 -59 20 -70 11 -23 70 -274 70 -298 0 -19 -48 -77 -63 -77 -7 0 -32
-19 -57 -41 -25 -23 -52 -46 -61 -53 -9 -6 -43 -34 -75 -62 -32 -29 -124 -107
-204 -173 -80 -67 -204 -172 -277 -233 -72 -60 -145 -119 -162 -129 -17 -10
-31 -23 -31 -27 0 -5 -29 -31 -65 -57 -36 -26 -70 -56 -76 -67 -5 -10 -14 -18
-20 -18 -6 0 -41 -26 -78 -57 -107 -92 -340 -286 -376 -313 -40 -31 -144 -122
-204 -177 -25 -24 -50 -43 -54 -43 -5 0 -24 -15 -42 -34 -18 -19 -51 -46 -73
-60 -22 -14 -50 -39 -62 -55 -12 -17 -26 -31 -32 -31 -10 0 -105 -75 -239
-190 -205 -175 -248 -210 -253 -210 -3 0 7 19 24 42 16 22 30 45 30 50 0 6 28
53 63 106 35 54 66 105 70 115 4 9 26 48 50 85 24 37 55 87 68 112 13 25 27
47 32 48 4 2 7 8 7 13 0 6 8 22 19 37 10 15 37 59 61 97 24 39 55 88 70 110
15 22 30 48 33 58 4 10 35 62 69 114 34 53 69 109 78 124 8 16 41 70 73 122
31 52 57 98 57 104 0 5 11 20 25 33 14 13 25 28 25 33 0 10 62 113 102 171 16
21 28 43 28 48 0 4 24 45 54 91 30 46 68 110 86 142 17 33 38 65 46 71 8 6 14
16 14 21 0 6 22 44 49 86 27 41 47 78 44 81 -4 3 -2 6 4 6 6 0 20 18 31 39 12
22 46 78 77 125 30 47 59 94 62 103 4 10 40 71 80 135 40 64 73 121 73 126 0
5 9 17 21 28 11 10 27 33 34 51 7 17 32 60 55 94 23 35 60 97 82 138 22 42 48
85 58 96 9 11 32 47 50 80 19 33 59 101 91 151 32 50 64 107 73 127 8 21 19
37 24 37 5 0 14 12 21 28 7 15 20 38 29 52 16 25 16 24 34 -60 10 -47 23 -94
28 -105z m54 33 c22 -40 63 -110 92 -155 30 -44 54 -85 54 -90 0 -5 8 -18 18
-29 9 -11 30 -44 46 -74 16 -30 51 -88 78 -129 26 -41 48 -79 48 -83 0 -5 29
-52 65 -105 36 -53 65 -100 65 -105 0 -5 31 -57 69 -116 38 -59 76 -124 84
-145 9 -20 21 -37 26 -37 6 0 11 -4 11 -10 0 -5 20 -43 45 -83 25 -41 45 -78
45 -81 0 -4 8 -16 18 -27 11 -10 25 -32 33 -47 8 -15 36 -63 63 -107 27 -44
60 -100 74 -125 13 -25 28 -50 33 -56 18 -22 108 -176 114 -195 4 -10 11 -19
16 -19 5 0 14 -12 20 -26 5 -15 34 -63 63 -108 29 -44 65 -104 78 -131 14 -28
50 -89 81 -136 32 -48 57 -89 57 -93 0 -4 20 -37 44 -74 24 -37 76 -123 116
-192 39 -69 89 -150 109 -180 20 -30 54 -86 75 -125 51 -94 97 -165 108 -165
4 0 8 -9 8 -20 0 -11 5 -20 10 -20 27 0 1 -60 -32 -73 -25 -9 -84 -94 -107
-155 -12 -30 -21 -74 -21 -98 l0 -44 -448 0 -448 0 -22 93 c-13 50 -24 99 -25
107 -2 9 -6 20 -9 25 -4 6 -21 78 -38 160 -51 236 -58 268 -69 290 -6 11 -33
124 -61 250 -27 127 -54 239 -60 250 -5 11 -19 63 -30 115 -49 218 -63 278
-81 340 -10 36 -23 85 -29 110 -6 25 -29 119 -51 210 -54 221 -105 436 -129
542 -10 48 -23 96 -29 106 -5 9 -14 40 -19 67 -20 104 -83 361 -92 380 -6 11
-14 43 -19 70 -23 124 -82 382 -91 398 -6 9 -7 17 -2 17 4 0 25 -33 46 -72z
m266 -1372 c0 -8 5 -27 12 -43 7 -15 13 -32 13 -38 1 -5 4 -17 7 -25 3 -8 27
-112 54 -230 26 -118 52 -216 56 -218 4 -2 8 -11 8 -21 0 -9 6 -41 14 -71 7
-30 21 -91 31 -135 22 -98 47 -200 80 -325 14 -52 37 -149 50 -215 14 -66 34
-149 45 -185 20 -65 39 -145 80 -335 13 -55 26 -105 31 -111 5 -6 6 -13 3 -16
-3 -3 2 -29 12 -57 9 -29 14 -54 12 -57 -3 -2 -628 -7 -1389 -10 -761 -3
-1450 -6 -1531 -7 -82 -2 -145 0 -140 4 4 3 39 32 77 64 39 31 94 78 123 104
30 25 61 49 70 53 9 3 39 29 66 57 27 28 54 51 60 51 10 0 45 28 156 124 14
11 84 70 155 130 72 60 137 116 145 125 13 14 59 53 260 221 30 25 76 61 103
80 26 18 47 37 47 42 0 4 17 18 38 32 39 25 88 65 340 280 85 72 197 166 250
210 54 43 123 101 155 130 33 28 66 54 75 58 10 3 32 22 50 42 19 20 38 36 43
36 9 0 40 25 119 96 73 67 204 174 212 174 4 0 8 -6 8 -14z m1664 -1811 c3
-13 12 -30 19 -37 7 -7 31 -44 52 -83 22 -38 45 -74 52 -80 7 -5 15 -24 19
-41 6 -30 5 -31 -25 -26 -19 2 -31 0 -31 -7 0 -6 13 -11 29 -11 49 0 37 -21
-89 -158 -22 -23 -40 -47 -40 -52 0 -6 -4 -10 -10 -10 -12 0 -50 -32 -50 -42
0 -11 -50 -58 -62 -58 -6 0 -9 -3 -6 -6 4 -3 -20 -33 -53 -67 -32 -33 -59 -62
-59 -65 0 -4 -149 -171 -239 -267 -31 -33 -101 -109 -156 -170 -55 -60 -108
-116 -117 -123 -10 -7 -18 -19 -18 -27 0 -13 -46 -55 -60 -55 -5 0 -15 35 -25
78 -42 199 -58 268 -65 277 -4 6 -11 26 -15 45 -13 66 -75 335 -87 375 -6 22
-12 47 -14 55 -1 8 -9 40 -18 70 -8 30 -22 83 -30 117 l-14 62 506 1 c358 0
508 4 511 11 2 8 6 8 11 -1 5 -8 9 -7 13 4 4 9 3 15 -1 15 -4 -1 -35 -1 -69 0
l-62 1 6 38 c8 51 41 139 59 157 9 8 12 15 7 15 -4 0 3 7 15 16 12 8 22 20 22
26 0 6 10 20 23 32 28 27 63 22 71 -9z m-1139 -328 c3 -12 16 -70 30 -128 14
-59 25 -115 25 -125 0 -11 7 -32 15 -48 9 -16 13 -31 10 -34 -3 -3 -1 -10 4
-16 5 -6 14 -38 21 -71 10 -51 75 -319 84 -350 2 -5 6 -17 9 -25 4 -8 19 -74
35 -146 l28 -130 -115 33 c-63 18 -117 37 -120 41 -3 5 -17 11 -31 14 -14 3
-70 20 -125 38 -55 17 -119 36 -142 42 -24 6 -43 15 -43 20 0 4 -6 8 -12 8
-19 0 -279 79 -313 96 -27 12 -146 50 -287 89 -25 8 -57 20 -70 29 -12 8 -41
19 -63 24 -97 23 -202 54 -220 66 -11 7 -85 32 -165 56 -80 23 -167 53 -195
65 -27 13 -106 39 -175 60 -69 20 -132 39 -140 42 -8 4 -17 7 -20 8 -3 1 -18
7 -35 14 -50 20 -77 28 -153 51 -59 17 -73 24 -68 37 13 33 25 100 32 175 l7
78 826 2 c454 2 946 4 1093 5 l268 2 5 -22z m-2227 -41 c2 -27 0 -56 -4 -65
-4 -9 -9 -23 -10 -31 -3 -13 -26 -101 -29 -107 -1 -1 -28 8 -60 22 -33 13
-116 40 -185 60 -69 19 -139 42 -156 50 -16 8 -96 33 -177 56 -81 24 -147 46
-147 51 0 10 157 14 495 13 l270 0 3 -49z m-768 -5 c41 -12 93 -28 115 -36 22
-7 56 -17 75 -20 19 -4 40 -11 45 -15 6 -5 46 -20 90 -33 44 -14 177 -57 295
-95 118 -39 235 -76 260 -82 25 -7 47 -15 50 -19 5 -6 120 -44 255 -82 44 -13
82 -26 85 -31 6 -8 104 -41 213 -72 32 -9 70 -22 85 -28 15 -6 29 -12 32 -13
3 -1 12 -5 20 -8 8 -3 78 -25 155 -47 77 -23 146 -46 153 -52 6 -6 12 -7 12
-3 0 4 6 3 13 -3 12 -10 241 -82 260 -82 5 0 28 -9 51 -19 44 -21 233 -81 253
-81 7 0 36 -11 65 -24 29 -13 73 -29 98 -36 73 -18 232 -70 276 -90 39 -18 94
-34 221 -67 43 -11 60 -20 56 -29 -3 -8 -9 -14 -14 -14 -4 0 -45 -18 -90 -40
-45 -22 -88 -40 -96 -40 -7 0 -13 -5 -13 -11 0 -6 -7 -9 -15 -6 -8 4 -17 2
-20 -3 -6 -10 -117 -51 -205 -76 -36 -9 -70 -21 -76 -26 -6 -4 -13 -5 -17 -2
-3 3 -14 1 -26 -5 -28 -15 -232 -48 -386 -62 -134 -12 -337 -7 -500 11 -99 12
-279 47 -304 60 -9 5 -43 16 -76 25 -33 9 -96 30 -140 46 -44 16 -84 31 -90
32 -5 1 -12 4 -15 7 -3 3 -39 21 -80 40 -41 19 -88 43 -105 52 -16 10 -57 32
-90 49 -33 17 -82 48 -110 68 -27 21 -71 53 -98 72 -26 19 -66 51 -90 71 -23
21 -47 38 -54 38 -7 0 -29 20 -50 45 -20 25 -42 45 -48 45 -5 1 -23 17 -40 37
-16 21 -53 60 -81 87 -27 28 -63 69 -79 91 -16 22 -32 42 -36 45 -15 10 -172
235 -181 259 -5 13 -22 44 -39 68 -30 46 -69 117 -69 129 0 3 6 4 13 2 6 -3
46 -15 87 -27z"/>
<path d="M7800 5265 c0 -3 5 -13 11 -23 9 -14 8 -25 -5 -50 -9 -17 -16 -37
-16 -44 0 -8 -9 -30 -19 -51 l-19 -37 75 0 c77 0 103 11 103 44 0 22 -13 20
-35 -4 -19 -21 -95 -29 -95 -10 0 6 4 10 9 10 5 0 11 14 15 30 7 36 35 41 44
8 6 -23 6 -23 13 2 4 14 7 33 8 43 1 15 -2 15 -19 5 -25 -16 -33 -7 -24 26 5
22 12 26 39 26 19 0 37 -5 40 -10 9 -15 25 -2 25 21 0 17 -7 19 -75 19 -41 0
-75 -2 -75 -5z"/>
<path d="M8751 3414 c-26 -43 -26 -54 -3 -54 24 0 62 -36 62 -58 0 -32 -16
-45 -49 -40 -21 3 -31 0 -31 -8 0 -19 18 -27 45 -20 37 9 55 34 55 77 0 31 -6
44 -30 65 -33 30 -31 44 6 44 15 0 24 6 24 15 0 10 -10 15 -29 15 -23 0 -34
-8 -50 -36z"/>
<path d="M8896 3434 c-20 -19 -20 -43 -1 -68 12 -16 12 -21 -1 -42 -21 -32
-14 -65 17 -83 24 -13 29 -13 53 2 33 22 37 80 7 99 -20 12 -20 12 0 26 21 15
25 52 7 70 -17 17 -64 15 -82 -4z m56 -10 c3 -3 4 -14 1 -25 -8 -28 -33 -24
-33 6 0 23 18 34 32 19z m-2 -139 c0 -29 -10 -38 -27 -24 -14 12 -18 51 -6 62
11 11 33 -14 33 -38z"/>
<path d="M9030 3430 c-14 -26 -6 -51 21 -68 44 -28 84 18 63 72 -9 24 -71 21
-84 -4z m68 -23 c4 -20 -25 -34 -40 -19 -15 15 -1 44 19 40 10 -2 19 -11 21
-21z"/>
<path d="M9283 3003 c-26 -10 -12 -23 25 -23 35 1 36 2 18 15 -21 16 -24 16
-43 8z"/>
<path d="M9380 2990 c0 -5 5 -10 10 -10 6 0 10 5 10 10 0 6 -4 10 -10 10 -5 0
-10 -4 -10 -10z"/>
<path d="M6233 2858 c-16 -21 -23 -48 -12 -48 5 0 12 6 15 14 9 24 33 27 54 6
23 -23 25 -43 8 -62 -7 -7 -30 -34 -51 -61 l-38 -47 64 0 c56 0 65 3 70 20 4
17 1 18 -27 14 -17 -3 -37 -7 -43 -10 -21 -6 -15 11 13 37 54 49 64 125 19
143 -27 10 -62 7 -72 -6z"/>
<path d="M6400 2838 c-28 -46 -25 -55 17 -65 28 -6 39 -15 44 -33 10 -42 -8
-63 -47 -57 -36 6 -56 -9 -33 -24 16 -10 67 -2 86 13 38 31 20 118 -27 133
-28 9 -20 29 15 35 43 8 44 30 1 30 -30 0 -40 -6 -56 -32z"/>
<path d="M6536 2851 c-14 -15 -15 -23 -5 -44 29 -64 102 -31 85 39 -8 30 -54
33 -80 5z m62 -24 c4 -20 -25 -34 -40 -19 -15 15 -1 44 19 40 10 -2 19 -11 21
-21z"/>
<path d="M9356 5501 c-3 -5 1 -14 9 -21 8 -7 15 -19 15 -27 0 -8 5 -11 10 -8
6 3 10 -3 10 -14 0 -11 4 -23 10 -26 5 -3 17 -23 27 -43 13 -27 19 -32 21 -19
2 9 -9 39 -25 65 -16 26 -35 59 -42 75 -15 28 -26 34 -35 18z"/>
<path d="M9470 5305 c0 -14 5 -25 10 -25 6 0 10 -5 10 -12 0 -18 33 -88 42
-88 4 0 8 -8 8 -17 1 -25 26 -68 33 -56 6 10 -22 76 -35 81 -4 2 -8 11 -8 19
0 16 -49 123 -56 123 -2 0 -4 -11 -4 -25z"/>
<path d="M9580 5070 c0 -16 5 -30 10 -30 6 0 10 -13 10 -30 0 -16 5 -30 10
-30 6 0 10 -9 10 -21 0 -11 8 -44 18 -72 14 -44 17 -48 20 -25 2 15 -2 36 -7
47 -6 11 -11 31 -11 45 0 14 -4 26 -8 26 -4 0 -16 27 -25 60 -10 33 -20 60
-23 60 -2 0 -4 -13 -4 -30z"/>
<path d="M9667 4815 c-7 -18 1 -45 14 -45 5 0 7 12 5 26 -6 33 -12 39 -19 19z"/>
<path d="M9690 4706 c0 -19 5 -38 10 -41 6 -3 10 -29 10 -56 0 -31 4 -48 10
-44 6 3 10 26 10 50 0 24 -4 47 -10 50 -5 3 -10 19 -10 35 0 16 -4 32 -10 35
-6 4 -10 -8 -10 -29z"/>
<path d="M9730 4498 c0 -37 5 -70 10 -73 13 -8 13 105 0 125 -7 11 -10 -5 -10
-52z"/>
<path d="M9751 4123 c-1 -182 -5 -294 -11 -298 -5 -3 -10 -37 -10 -75 0 -39
-5 -70 -11 -72 -6 -2 -9 -26 -7 -58 l3 -55 8 40 c4 22 12 54 17 71 6 17 10 58
10 92 0 33 5 64 10 67 12 7 12 504 0 550 -4 17 -8 -101 -9 -262z"/>
<path d="M9690 3521 c0 -27 -4 -52 -9 -55 -5 -3 -12 -23 -16 -43 -4 -21 -11
-43 -16 -49 -5 -6 -6 -19 -3 -28 5 -14 9 -12 20 10 8 14 14 36 14 49 0 12 7
39 15 58 17 42 20 93 5 102 -6 4 -10 -13 -10 -44z"/>
<path d="M9627 3313 c-11 -10 -8 -63 3 -63 6 0 10 16 10 35 0 36 -2 40 -13 28z"/>
<path d="M9600 3220 c0 -11 5 -20 10 -20 6 0 10 9 10 20 0 11 -4 20 -10 20 -5
0 -10 -9 -10 -20z"/>
<path d="M9688 3020 c2 -23 8 -37 14 -34 5 3 7 17 4 29 -5 19 -1 25 22 33 l27
10 -35 1 c-35 1 -36 1 -32 -39z"/>
<path d="M4796 3015 c3 -14 2 -31 -3 -38 -6 -6 -16 -34 -23 -62 -7 -27 -20
-56 -28 -62 -9 -7 -13 -14 -9 -14 4 -1 10 -2 15 -3 4 -1 12 -5 19 -9 6 -4 14
-3 18 3 3 5 22 10 41 10 47 0 78 32 71 73 -3 20 1 38 10 49 11 13 13 24 6 45
-9 26 -14 28 -67 31 -56 3 -57 3 -50 -23z m80 -10 c8 -20 -13 -45 -37 -45 -13
0 -17 5 -13 18 3 9 8 23 10 30 5 17 33 15 40 -3z m-16 -79 c0 -2 3 -11 6 -19
3 -8 -2 -22 -11 -31 -21 -20 -65 -21 -65 -1 0 8 5 15 10 15 6 0 10 9 10 20 0
15 7 20 25 20 14 0 25 -2 25 -4z"/>
<path d="M9800 2980 c0 -26 -8 -51 -22 -70 -28 -39 -16 -50 16 -15 21 22 26
38 26 76 0 27 -4 49 -10 49 -5 0 -10 -18 -10 -40z"/>
<path d="M9667 2957 c-10 -26 -9 -57 2 -57 13 0 18 22 11 50 -5 22 -7 23 -13
7z"/>
<path d="M9640 2860 c0 -5 7 -10 15 -10 8 0 15 5 15 10 0 6 -7 10 -15 10 -8 0
-15 -4 -15 -10z"/>
<path d="M9685 2860 c-4 -6 9 -10 32 -9 30 0 34 2 18 9 -27 12 -43 12 -50 0z"/>
<path d="M8505 1752 c-35 -8 -84 -53 -95 -88 -15 -44 -5 -101 20 -114 42 -22
153 0 127 26 -4 4 -13 2 -19 -4 -20 -20 -86 -15 -98 7 -24 46 5 115 62 149 22
13 29 13 42 3 9 -8 16 -22 16 -32 0 -26 16 -24 24 4 11 43 7 52 -27 53 -17 0
-41 -1 -52 -4z"/>
<path d="M7160 1080 l0 -135 125 0 125 0 2 118 c1 64 2 124 2 133 1 14 -17 16
-127 17 l-127 2 0 -135z m66 72 c0 -27 -3 -32 -23 -32 -19 0 -23 5 -23 28 0
33 8 44 30 40 10 -2 15 -15 16 -36z m84 26 c0 -4 -13 -8 -30 -8 -16 0 -30 5
-30 10 0 6 14 9 30 8 17 -1 30 -6 30 -10z m78 -100 l-3 -113 -100 0 -100 0 -3
68 c-2 57 0 67 14 67 14 0 15 -8 9 -58 l-6 -58 79 1 80 0 5 50 c3 28 8 59 12
70 6 19 2 20 -42 18 -37 -1 -41 0 -18 5 23 5 31 13 33 35 2 19 9 27 23 27 19
0 19 -6 17 -112z m-73 72 c-3 -5 -19 -10 -36 -10 -16 0 -29 5 -29 10 0 6 16
10 36 10 21 0 33 -4 29 -10z m-48 -26 c-3 -3 -12 -4 -19 -1 -8 3 -5 6 6 6 11
1 17 -2 13 -5z m51 -31 c-15 -2 -42 -2 -60 0 -18 2 -6 4 27 4 33 0 48 -2 33
-4z m20 -30 c7 -7 12 -23 10 -35 -3 -21 -8 -23 -63 -23 -55 0 -60 2 -63 23 -5
36 16 54 62 51 23 -2 47 -9 54 -16z"/>
<path d="M7250 1035 c0 -22 4 -25 35 -25 19 0 35 4 35 9 0 5 3 16 6 25 5 13
-2 16 -35 16 -37 0 -41 -2 -41 -25z m43 -2 c-7 -2 -19 -2 -25 0 -7 3 -2 5 12
5 14 0 19 -2 13 -5z"/>
<path d="M7595 1180 c-19 -7 -19 -8 -2 -15 15 -6 18 -18 16 -74 -1 -36 -6 -74
-11 -83 -6 -12 -3 -18 12 -23 11 -3 23 -4 27 -2 5 3 7 50 5 106 -3 105 -5 108
-47 91z"/>
<path d="M13392 551 c-11 -7 -11 -9 2 -14 9 -4 16 -13 16 -20 0 -8 9 -26 21
-41 l20 -26 -80 0 -80 0 17 30 c9 16 20 30 25 30 4 0 7 9 7 20 0 32 -28 23
-35 -11 -4 -16 -23 -46 -42 -65 l-35 -35 51 7 c49 6 51 6 51 -17 0 -30 -33
-84 -59 -99 -26 -14 -27 -30 -2 -30 23 0 52 38 81 104 17 40 23 46 50 46 29 0
30 -1 30 -49 0 -52 -16 -76 -44 -65 -10 4 -16 1 -16 -9 0 -20 59 -34 70 -17 4
7 11 42 15 76 6 59 9 64 30 64 35 0 40 18 8 32 -45 19 -63 39 -63 70 0 28 -13
35 -38 19z"/>
<path d="M13560 545 c0 -3 11 -23 25 -43 36 -53 36 -142 -1 -195 -14 -21 -23
-41 -20 -45 13 -12 64 51 76 94 15 51 8 93 -21 140 -19 31 -59 64 -59 49z"/>
<path d="M12941 504 c-35 -51 -40 -136 -12 -192 20 -40 38 -58 47 -50 2 3 -4
20 -13 39 -25 47 -25 169 0 196 17 20 23 43 10 43 -5 0 -19 -16 -32 -36z"/>
<path d="M13031 491 c-6 -20 -7 -37 -3 -39 39 -14 57 -31 60 -56 5 -38 -11
-51 -54 -47 -27 2 -35 -1 -32 -11 8 -25 65 -21 93 6 41 41 33 96 -19 124 l-31
16 35 6 c47 7 46 32 -1 35 -34 2 -37 -1 -48 -34z"/>
<path d="M1010 480 c0 -18 -7 -20 -66 -20 -41 0 -63 -4 -59 -10 3 -5 33 -10
66 -10 l60 0 -3 -92 -3 -93 -27 3 c-38 5 -35 -14 3 -22 17 -3 35 -6 40 -6 5 0
9 26 9 58 l1 57 22 -25 c43 -49 74 -71 90 -64 24 9 21 21 -5 28 -25 6 -78 51
-78 66 0 5 18 16 40 26 43 19 49 28 24 38 -9 4 -28 -4 -46 -19 -35 -29 -48
-25 -48 16 l0 29 66 0 c48 0 65 3 61 13 -2 6 -14 12 -26 11 -11 0 -21 5 -21
12 0 14 -38 29 -48 19 -4 -4 2 -13 12 -21 19 -13 18 -14 -13 -14 -28 0 -31 3
-26 20 5 14 2 20 -9 20 -9 0 -16 -9 -16 -20z"/>
<path d="M2540 490 c0 -5 10 -10 21 -10 21 0 22 -3 16 -76 -5 -65 -11 -84 -36
-120 -34 -46 -40 -64 -15 -43 12 10 17 10 23 0 10 -15 54 -6 99 21 l33 20 43
-23 c28 -15 49 -20 62 -15 16 7 13 10 -20 22 -67 24 -69 30 -31 84 20 29 32
56 29 65 -7 18 -16 19 -32 3 -9 -9 -15 -9 -23 -1 -8 8 -7 20 5 44 9 18 16 34
16 36 0 1 -43 3 -95 3 -57 0 -95 -4 -95 -10z m142 -43 c-3 -30 -7 -33 -38 -34
-32 -1 -34 1 -34 33 0 33 1 34 38 34 37 0 38 -1 34 -33z m48 -53 c0 -12 -42
-74 -50 -74 -9 0 -40 45 -40 59 0 5 17 12 38 14 20 2 40 4 45 5 4 1 7 -1 7 -4z
m-76 -105 c-6 -11 -94 -43 -100 -37 -3 3 4 21 15 39 12 19 21 42 21 52 0 9 5
17 10 17 6 0 10 8 10 17 0 9 11 -5 25 -32 13 -27 22 -52 19 -56z"/>
<path d="M3152 392 c-51 -53 -92 -102 -92 -109 0 -10 25 -13 95 -13 57 0 95 4
95 10 0 6 -32 10 -75 10 -41 0 -75 3 -75 8 0 4 32 39 71 77 75 74 94 100 81
109 -5 3 -50 -38 -100 -92z"/>
<path d="M3424 443 c-48 -59 -124 -161 -124 -168 0 -3 12 -5 26 -5 20 0 25 4
20 16 -9 22 21 54 51 54 16 0 23 -6 23 -20 0 -11 -7 -23 -15 -26 -8 -4 -12
-10 -9 -15 7 -12 84 -11 84 1 0 6 -5 10 -12 10 -8 0 -9 28 -5 100 3 55 5 100
3 100 -2 0 -21 -21 -42 -47z m6 -63 c0 -13 -7 -20 -20 -20 -23 0 -26 10 -8 28
18 18 28 15 28 -8z"/>
<path d="M3550 480 c0 -6 4 -10 9 -10 16 0 -29 -154 -49 -172 -11 -9 -20 -19
-20 -22 0 -11 115 -6 140 7 31 16 49 61 33 85 -8 14 -6 23 7 40 19 23 16 61
-4 67 -32 10 -116 13 -116 5z m100 -38 c0 -20 -29 -52 -47 -52 -14 0 -17 21
-7 56 4 16 11 20 30 16 13 -2 24 -11 24 -20z m-27 -76 c9 -7 17 -17 17 -21 0
-16 -44 -55 -62 -55 -21 0 -22 14 -7 59 12 34 24 38 52 17z"/>
<path d="M3730 479 c0 -5 7 -9 15 -9 17 0 19 -11 7 -25 -5 -6 -17 -39 -27 -75
-10 -36 -25 -73 -34 -83 -14 -17 -11 -18 69 -15 82 3 84 4 93 31 11 36 0 48
-20 22 -8 -11 -19 -19 -24 -17 -5 1 -9 -3 -9 -9 0 -6 -12 -9 -27 -7 -27 3 -31
11 -22 48 8 30 49 42 49 15 0 -30 18 -14 23 22 7 42 0 56 -14 30 -6 -9 -17
-17 -24 -17 -18 0 -18 -1 -4 39 9 25 17 31 39 31 16 0 30 -7 34 -15 8 -22 26
-18 26 5 0 10 -8 24 -19 29 -23 13 -131 12 -131 0z"/>
<path d="M1507 380 c-53 -55 -97 -104 -97 -110 0 -9 120 -9 203 -1 4 1 7 6 7
11 0 6 -32 10 -76 10 -42 0 -74 4 -72 9 2 5 36 43 76 85 66 70 84 96 64 96 -4
0 -51 -45 -105 -100z"/>
<path d="M1717 456 c6 -28 -22 -130 -43 -163 -14 -23 -14 -23 49 -23 53 0 67
4 85 23 24 25 28 57 12 73 -8 8 -6 15 5 24 22 18 19 67 -4 80 -11 5 -40 10
-64 10 -41 0 -44 -2 -40 -24z m90 -11 c6 -18 -23 -55 -44 -55 -14 0 -17 27 -7
54 8 20 43 21 51 1z m-13 -97 c13 -21 -14 -54 -50 -61 -27 -5 -31 12 -14 58
11 30 46 32 64 3z"/>
<path d="M1898 473 c16 -6 15 -42 -3 -76 -8 -15 -17 -44 -21 -63 -3 -19 -13
-42 -21 -49 -13 -13 -6 -15 52 -15 106 0 155 40 155 127 0 47 -8 59 -43 72
-27 11 -145 15 -119 4z m124 -36 c30 -47 -25 -147 -82 -147 -37 0 -40 12 -16
84 10 34 21 67 23 75 4 16 63 7 75 -12z"/>
<path d="M2126 461 c-50 -29 -71 -134 -35 -177 30 -36 139 -18 139 23 0 15 -1
15 -18 0 -28 -26 -78 -22 -98 8 -26 40 3 117 57 145 25 14 59 -4 59 -30 0 -11
4 -20 8 -20 9 0 32 44 32 60 0 17 -113 10 -144 -9z"/>
<path d="M920 418 c0 -7 9 -24 20 -38 13 -18 22 -22 30 -14 8 8 5 18 -10 37
-23 29 -40 35 -40 15z"/>
<path d="M938 317 c-43 -29 -57 -52 -31 -52 13 0 93 67 93 78 0 12 -13 7 -62
-26z"/>
</g>
</svg>
