<?xml version="1.0" standalone="no"?>
<!DOCTYPE svg PUBLIC "-//W3C//DTD SVG 20010904//EN"
 "http://www.w3.org/TR/2001/REC-SVG-20010904/DTD/svg10.dtd">
<svg version="1.0" xmlns="http://www.w3.org/2000/svg"
 width="866.000000pt" height="569.000000pt" viewBox="0 0 866.000000 569.000000"
 preserveAspectRatio="xMidYMid meet">
<metadata>
Created by potrace 1.16, written by Peter Selinger 2001-2019
</metadata>
<g transform="translate(0.000000,569.000000) scale(0.100000,-0.100000)"
fill="#000000" stroke="none">
<path d="M638 5633 c-73 -4 -78 -5 -77 -26 1 -17 2 -18 6 -4 8 31 33 20 33
-15 0 -25 -3 -29 -12 -20 -22 22 -28 12 -28 -45 l0 -58 80 0 80 0 0 88 c0 48
-1 86 -2 85 -2 -1 -38 -4 -80 -5z m15 -20 c-7 -2 -19 -2 -25 0 -7 3 -2 5 12 5
14 0 19 -2 13 -5z m55 -66 c2 -55 0 -67 -13 -67 -17 0 -20 35 -5 74 6 18 6 26
-1 26 -6 0 -13 -9 -16 -19 -3 -12 -15 -21 -31 -23 -34 -4 -42 -28 -9 -28 14 0
28 6 30 13 3 7 6 5 6 -5 1 -14 -7 -18 -34 -18 -24 0 -35 5 -35 14 0 30 13 46
37 46 13 0 22 4 19 9 -3 5 1 11 9 15 8 3 15 13 15 22 0 8 6 14 13 12 7 -3 13
-29 15 -71z m-55 46 c-7 -2 -19 -2 -25 0 -7 3 -2 5 12 5 14 0 19 -2 13 -5z
m-63 -74 c0 -21 -4 -39 -10 -39 -5 0 -10 21 -10 46 0 27 4 43 10 39 6 -3 10
-24 10 -46z"/>
<path d="M1130 5619 c0 -18 -5 -21 -32 -17 -33 3 -33 3 -32 -37 1 -38 2 -40
32 -37 29 3 31 1 35 -35 l4 -38 1 38 c2 35 4 37 35 37 31 0 32 2 32 38 0 34
-2 38 -20 34 -11 -3 -14 -7 -7 -10 6 -2 12 -15 12 -28 0 -19 -5 -24 -25 -24
-20 0 -25 5 -25 25 0 14 6 25 13 25 9 0 9 2 -1 8 -7 5 -10 16 -6 25 3 10 1 17
-5 17 -6 0 -11 -9 -11 -21z m0 -54 c0 -20 -5 -25 -25 -25 -20 0 -25 5 -25 25
0 20 5 25 25 25 20 0 25 -5 25 -25z"/>
<path d="M2273 5624 c-4 -12 -7 -13 -14 -3 -4 8 -11 11 -14 7 -3 -3 1 -13 10
-22 18 -18 13 -45 -16 -88 -23 -32 -25 -45 -4 -28 11 9 15 9 15 1 0 -7 5 -9
10 -6 6 3 10 11 10 16 0 6 -5 7 -11 3 -7 -4 -10 -1 -7 7 3 8 21 15 45 17 33 2
42 -1 52 -20 l12 -23 -5 23 c-2 12 0 22 5 22 19 0 8 -41 -13 -50 -23 -10 -23
-10 2 -7 19 1 26 9 31 35 5 24 3 32 -8 32 -10 0 -12 6 -8 20 5 14 2 20 -9 20
-9 0 -16 7 -16 15 0 8 -4 15 -9 15 -13 0 -8 -34 7 -43 20 -13 3 -27 -34 -27
-32 0 -42 8 -27 23 7 8 13 77 7 77 -3 0 -7 -7 -11 -16z"/>
<path d="M2717 5620 c-7 -10 -24 -24 -38 -29 -24 -10 -24 -10 -1 -10 18 -1 22
-7 22 -35 0 -19 -9 -45 -21 -60 -11 -14 -16 -26 -11 -26 15 0 31 25 38 58 7
37 44 47 44 12 0 -11 5 -20 10 -20 6 0 10 8 8 18 -2 12 4 17 21 17 19 0 24 -6
27 -32 3 -28 1 -33 -19 -33 -20 -1 -20 -2 -4 -11 28 -17 37 -1 37 65 l0 63
-27 -5 c-25 -5 -27 -4 -14 11 12 15 10 17 -18 17 -19 0 -30 4 -26 10 12 19
-14 10 -28 -10z m48 -20 c-3 -5 -15 -10 -26 -10 -10 0 -19 5 -19 10 0 6 12 10
26 10 14 0 23 -4 19 -10z m-15 -30 c0 -5 -9 -10 -20 -10 -11 0 -20 5 -20 10 0
6 9 10 20 10 11 0 20 -4 20 -10z m70 0 c0 -5 -13 -10 -30 -10 -16 0 -30 5 -30
10 0 6 14 10 30 10 17 0 30 -4 30 -10z"/>
<path d="M2962 5628 c-7 -7 -12 -44 -12 -90 0 -62 3 -78 15 -78 11 0 13 6 7
23 -11 35 -8 67 8 77 8 6 10 10 4 10 -19 0 -24 28 -8 44 8 8 10 17 6 20 -5 3
-14 0 -20 -6z"/>
<path d="M3012 5609 c-36 -32 -35 -35 2 -18 22 10 42 37 34 45 -2 1 -18 -11
-36 -27z"/>
<path d="M5219 5613 c-1 -15 -1 -43 0 -61 2 -21 -3 -34 -13 -38 -17 -7 -22
-24 -7 -24 5 0 19 9 32 21 13 11 18 18 12 14 -17 -8 -17 37 -1 53 9 9 9 12 -1
12 -8 0 -11 7 -8 20 3 11 1 23 -4 26 -5 3 -10 -7 -10 -23z"/>
<path d="M5269 5602 l-16 -38 39 -3 c22 -1 37 2 34 7 -3 5 -17 7 -32 4 l-26
-5 16 31 c18 35 19 42 9 42 -5 0 -15 -17 -24 -38z"/>
<path d="M5479 5623 c0 -11 -3 -13 -6 -5 -2 6 -9 12 -14 12 -6 0 -6 -8 1 -19
16 -30 12 -53 -15 -92 l-24 -36 24 0 c14 0 25 4 25 9 0 5 -4 6 -10 3 -12 -7
-13 5 -2 23 10 14 112 14 112 0 0 -5 -4 -6 -10 -3 -14 9 -13 -8 2 -23 9 -9 8
-12 -6 -12 -10 0 -14 -5 -10 -11 4 -8 10 -7 19 3 17 18 28 68 15 68 -5 0 -10
9 -10 20 0 11 -4 20 -10 20 -5 0 -10 7 -10 15 0 8 -4 15 -10 15 -5 0 -10 -9
-10 -20 0 -11 5 -20 10 -20 6 0 10 -7 10 -15 0 -11 -11 -15 -40 -15 -36 0 -40
2 -31 18 5 9 9 20 10 25 1 4 1 8 2 10 7 24 7 47 -1 47 -6 0 -10 -8 -11 -17z"/>
<path d="M6328 5561 c-2 -45 0 -81 5 -81 4 0 7 18 7 40 0 38 2 40 29 40 17 0
32 4 35 9 3 5 -9 8 -27 7 -28 -1 -32 2 -32 26 -1 15 -4 30 -7 34 -4 3 -8 -31
-10 -75z"/>
<path d="M6564 5603 c-6 -28 -9 -32 -11 -17 -3 17 -9 21 -26 16 -20 -5 -20 -4
-8 11 18 23 6 22 -18 -2 -13 -13 -19 -34 -20 -73 l-1 -54 35 0 c33 0 35 2 35
33 0 19 8 45 17 60 20 30 27 63 14 63 -5 0 -12 -17 -17 -37z m-26 -30 c-5 -26
-38 -29 -38 -4 0 15 6 21 21 21 14 0 19 -5 17 -17z m2 -53 c0 -13 -7 -20 -20
-20 -13 0 -20 7 -20 20 0 13 7 20 20 20 13 0 20 -7 20 -20z"/>
<path d="M6832 5592 l-2 -53 -37 7 c-21 4 -39 7 -39 8 -1 0 3 12 9 26 l10 25
7 -25 c7 -22 8 -21 9 13 1 37 1 37 -39 37 -39 0 -40 -1 -40 -35 0 -26 3 -33
15 -29 8 4 15 1 15 -4 0 -6 -8 -13 -17 -15 -17 -4 -17 -5 0 -6 25 -2 21 -19
-5 -24 -20 -4 -20 -4 4 -6 14 0 28 -6 30 -13 5 -13 38 -20 38 -8 0 5 -8 11
-17 13 -14 4 -12 5 5 6 17 1 22 -4 22 -25 0 -14 4 -22 10 -19 5 3 7 19 3 35
-5 27 -3 30 21 30 21 0 26 -5 26 -25 0 -14 3 -25 8 -25 4 0 6 15 6 32 -1 24
-6 32 -17 30 -13 -2 -17 9 -20 50 l-3 53 -2 -53z m-92 8 c0 -11 -4 -20 -9 -20
-6 0 -9 9 -8 20 1 11 5 20 9 20 4 0 8 -9 8 -20z m50 -64 c0 -2 -7 -6 -15 -10
-8 -3 -15 -1 -15 4 0 6 7 10 15 10 8 0 15 -2 15 -4z"/>
<path d="M6956 5628 c-3 -7 -9 -28 -15 -46 -6 -20 -6 -30 -1 -27 6 4 10 -15
10 -44 0 -56 7 -60 49 -35 25 15 30 15 60 0 17 -9 37 -14 43 -10 7 5 -4 12
-28 19 -30 9 -38 15 -36 31 2 10 3 29 3 42 -1 13 5 22 14 22 14 0 19 -12 16
-32 0 -5 4 -8 9 -8 6 0 10 11 10 25 0 20 -5 25 -24 25 -19 0 -23 5 -21 25 2
14 0 25 -5 25 -11 0 -21 -30 -14 -41 3 -5 -6 -9 -20 -9 -21 0 -26 -5 -26 -24
0 -31 10 -56 22 -56 5 0 6 6 1 13 -4 6 -9 22 -11 35 -2 17 2 22 18 22 19 0 21
-4 15 -32 -10 -47 -22 -65 -46 -71 -20 -5 -21 -3 -17 79 3 81 2 98 -6 72z"/>
<path d="M7183 5628 c-22 -28 -24 -38 -9 -32 20 8 20 0 0 -31 -9 -14 -12 -25
-6 -25 6 0 13 -19 15 -42 3 -39 4 -38 5 13 1 30 8 61 14 67 10 10 10 15 -1 22
-12 7 -12 11 -2 24 8 9 9 16 3 16 -5 0 -14 -6 -19 -12z"/>
<path d="M7230 5603 c0 -31 2 -33 35 -33 28 0 35 4 35 19 0 11 2 26 5 33 4 11
-4 14 -35 13 -38 0 -40 -1 -40 -32z m60 -3 c0 -15 -7 -20 -25 -20 -18 0 -25 5
-25 20 0 15 7 20 25 20 18 0 25 -5 25 -20z"/>
<path d="M2903 5617 c9 -8 17 -21 17 -30 0 -9 -8 -21 -17 -26 -17 -10 -17 -10
0 -11 14 0 16 -5 11 -27 -4 -16 -11 -32 -15 -37 -15 -16 -10 -29 5 -17 22 19
43 151 24 151 -3 0 -15 3 -25 6 -17 5 -17 5 0 -9z"/>
<path d="M4468 5623 c28 -11 2 -143 -28 -143 -6 0 -10 -4 -10 -8 0 -12 48 -7
84 7 23 9 36 9 58 0 16 -6 31 -9 34 -7 2 3 -9 11 -26 18 l-30 12 20 25 c21 28
26 53 10 53 -5 0 -10 -8 -10 -18 0 -18 -18 -42 -31 -42 -13 0 -50 73 -45 87 4
8 16 13 28 11 17 -2 22 -9 20 -25 -2 -13 2 -23 7 -23 6 0 11 6 11 14 0 8 3 21
6 30 5 14 -3 16 -52 15 -33 0 -53 -3 -46 -6z m47 -93 c15 -29 15 -30 -14 -45
-17 -8 -32 -15 -34 -15 -3 0 3 20 12 45 9 25 17 45 18 45 1 0 9 -13 18 -30z"/>
<path d="M7610 5573 c-7 -32 -17 -64 -24 -72 -9 -12 -5 -13 29 -7 22 4 48 12
57 17 20 11 24 34 7 45 -8 5 -6 10 5 16 21 12 21 44 0 52 -46 18 -60 8 -74
-51z m70 28 c0 -11 -9 -23 -21 -26 -26 -9 -30 -5 -22 23 7 28 43 30 43 3z
m-12 -62 c2 -11 -8 -20 -28 -28 -28 -9 -31 -9 -26 5 3 9 6 22 6 31 0 20 44 13
48 -8z"/>
<path d="M7735 5583 c-4 -27 -12 -57 -17 -67 -10 -18 -7 -18 36 -14 59 7 76
22 76 67 0 45 -14 61 -56 61 -30 0 -32 -2 -39 -47z m73 25 c20 -20 14 -65 -10
-82 -29 -20 -72 -21 -65 -2 3 8 11 32 18 55 12 42 33 53 57 29z"/>
<path d="M8070 5610 c-20 -20 -26 -63 -14 -94 4 -10 18 -16 38 -15 l31 1 -32
9 c-27 8 -33 15 -33 37 0 41 26 72 60 72 19 0 30 -6 33 -17 4 -14 5 -12 6 5 1
19 -4 22 -34 22 -22 0 -43 -8 -55 -20z"/>
<path d="M8192 5583 c-6 -27 -14 -56 -17 -65 -6 -16 -1 -18 38 -18 25 0 49 5
52 10 4 7 -8 8 -34 4 -23 -4 -41 -3 -41 0 0 20 23 46 40 46 11 0 20 4 20 9 0
5 -10 7 -22 3 -17 -4 -20 -2 -15 12 4 10 7 21 7 26 0 5 15 11 33 13 29 3 28 4
-9 5 l-41 2 -11 -47z"/>
<path d="M40 5610 c-11 -7 -12 -10 -2 -10 10 0 13 -14 10 -55 -2 -44 0 -55 12
-55 12 0 14 12 12 65 -4 67 -6 72 -32 55z"/>
<path d="M122 5607 c-10 -12 -8 -13 13 -9 18 3 25 0 25 -12 0 -9 -7 -19 -15
-22 -14 -6 -13 -8 1 -19 23 -17 11 -49 -16 -42 -11 3 -20 1 -20 -5 0 -5 15 -8
33 -6 l32 3 0 60 c0 53 -2 60 -21 63 -11 2 -26 -3 -32 -11z"/>
<path d="M890 5610 c-8 -5 -10 -10 -5 -10 6 0 10 -25 9 -55 0 -34 3 -55 10
-55 7 0 10 18 8 48 -5 81 -6 82 -22 72z"/>
<path d="M1717 5583 c-15 -21 -36 -50 -47 -65 -17 -22 -18 -28 -7 -28 8 0 17
9 20 20 3 12 14 20 26 20 24 0 27 -10 9 -28 -9 -9 -6 -12 16 -12 19 0 25 4 19
13 -4 6 -6 36 -4 65 1 28 1 52 -2 52 -2 0 -16 -17 -30 -37z m9 -40 c-11 -11
-17 4 -9 23 7 18 8 18 11 1 2 -10 1 -21 -2 -24z"/>
<path d="M1812 5593 c-1 -15 -11 -45 -21 -65 l-18 -38 36 0 c49 0 76 20 68 50
-3 13 -1 30 5 37 18 22 1 43 -35 43 -28 0 -33 -4 -35 -27z m54 5 c4 -6 -1 -17
-11 -24 -15 -11 -16 -16 -5 -29 10 -12 10 -18 0 -30 -13 -15 -40 -21 -40 -8 0
4 5 23 11 42 7 20 13 42 15 49 4 15 21 16 30 0z"/>
<path d="M1921 5594 c-39 -50 -21 -104 34 -104 18 0 37 4 40 10 4 6 -5 7 -23
4 -39 -8 -58 16 -46 59 13 42 57 60 79 31 14 -19 14 -18 15 4 0 19 -5 22 -39
22 -31 0 -44 -6 -60 -26z"/>
<path d="M2515 5610 l-60 -7 73 -1 c42 -1 72 2 72 8 0 6 -6 9 -12 8 -7 -1 -40
-4 -73 -8z"/>
<path d="M3536 5603 c3 -10 -2 -39 -10 -65 l-14 -48 43 0 c35 0 48 5 64 26 41
52 14 104 -55 104 -26 0 -31 -4 -28 -17z m68 -9 c20 -20 20 -38 0 -69 -10 -16
-26 -25 -41 -25 -22 0 -25 3 -20 28 9 43 26 82 36 82 5 0 17 -7 25 -16z"/>
<path d="M4166 5607 c3 -8 -2 -34 -10 -58 -9 -24 -16 -48 -16 -52 0 -4 21 -7
47 -5 39 2 49 7 52 23 3 19 3 19 -16 3 -28 -26 -63 -24 -56 2 7 27 23 36 34
19 5 -9 9 -10 9 -2 0 6 3 20 7 30 6 15 5 16 -9 5 -22 -17 -31 0 -13 24 12 16
17 17 34 6 18 -10 21 -10 21 3 0 11 -12 15 -45 15 -33 0 -43 -3 -39 -13z"/>
<path d="M4883 5614 c8 -8 -23 -108 -37 -116 -6 -5 -2 -8 11 -8 14 0 21 5 17
13 -2 7 2 29 10 48 l15 34 1 -30 c1 -29 18 -81 19 -60 1 6 13 24 27 40 l25 30
-6 -30 c-4 -16 -12 -33 -18 -37 -7 -5 -1 -8 15 -8 19 0 26 4 22 14 -3 7 4 36
15 65 25 67 5 70 -39 5 -32 -45 -43 -49 -45 -16 -4 56 -6 62 -22 62 -9 0 -14
-3 -10 -6z"/>
<path d="M5855 5610 c5 -8 -7 -66 -22 -106 -9 -25 69 -19 85 7 9 14 10 25 4
31 -7 7 -7 16 0 28 18 29 3 50 -37 50 -21 0 -34 -4 -30 -10z m52 -16 c7 -18
-11 -39 -25 -30 -12 7 -4 46 9 46 6 0 12 -7 16 -16z m-9 -68 c-2 -13 -12 -22
-25 -24 -18 -3 -22 0 -17 15 3 10 8 24 10 30 6 21 35 2 32 -21z"/>
<path d="M5985 5608 c-11 -6 -23 -16 -27 -22 -9 -13 -10 -59 -2 -80 10 -25 94
-19 94 7 0 7 -4 7 -12 -1 -18 -18 -56 -14 -68 7 -14 27 3 68 36 83 22 10 28
10 39 -5 11 -16 13 -16 19 -1 3 8 6 18 6 20 0 9 -66 3 -85 -8z"/>
<path d="M7070 5610 c0 -5 4 -10 9 -10 6 0 13 5 16 10 3 6 -1 10 -9 10 -9 0
-16 -4 -16 -10z"/>
<path d="M5350 5550 c0 -54 -3 -62 -22 -70 l-23 -9 22 0 c25 -1 30 13 35 92 2
26 0 47 -4 47 -5 0 -8 -27 -8 -60z"/>
<path d="M6613 5603 c23 -6 24 -94 2 -117 -8 -8 -11 -17 -6 -20 16 -10 28 18
34 82 l7 62 -28 -1 c-17 -1 -20 -3 -9 -6z"/>
<path d="M3040 5580 c0 -6 -15 -19 -32 -30 -34 -20 -23 -28 12 -10 23 13 46
50 30 50 -5 0 -10 -5 -10 -10z"/>
<path d="M1352 5556 c1 -15 6 -26 10 -26 12 0 10 38 -2 45 -6 4 -9 -5 -8 -19z"/>
<path d="M8482 5561 c16 -25 31 -27 26 -4 -2 10 -11 19 -21 21 -16 3 -17 1 -5
-17z"/>
<path d="M3180 5550 c0 -13 7 -20 20 -20 13 0 20 7 20 20 0 13 -7 20 -20 20
-13 0 -20 -7 -20 -20z m30 0 c0 -5 -4 -10 -10 -10 -5 0 -10 5 -10 10 0 6 5 10
10 10 6 0 10 -4 10 -10z"/>
<path d="M3822 5550 c7 -11 16 -16 21 -11 12 12 0 31 -19 31 -12 0 -12 -3 -2
-20z"/>
<path d="M7882 5565 c9 -9 98 -12 98 -3 0 4 -23 8 -52 8 -28 0 -49 -2 -46 -5z"/>
<path d="M2515 5550 l-50 -7 63 -1 c36 -1 62 2 62 8 0 6 -6 9 -12 8 -7 0 -35
-4 -63 -8z"/>
<path d="M6590 5540 c13 -23 20 -26 20 -6 0 8 -7 16 -15 20 -13 4 -14 2 -5
-14z"/>
<path d="M7293 5552 c-10 -6 -18 -59 -13 -87 3 -17 19 29 19 57 1 16 8 28 19
31 12 3 13 5 2 6 -8 0 -20 -3 -27 -7z"/>
<path d="M3022 5504 c-26 -27 -28 -32 -10 -23 23 10 66 60 51 58 -4 0 -23 -16
-41 -35z"/>
<path d="M5290 5530 l-35 -7 43 -2 c27 0 41 3 37 9 -3 6 -7 9 -8 9 -1 -1 -18
-5 -37 -9z"/>
<path d="M7310 5530 c0 -5 5 -10 10 -10 6 0 10 5 10 10 0 6 -4 10 -10 10 -5 0
-10 -4 -10 -10z"/>
<path d="M7880 5528 c0 -4 26 -8 57 -8 31 0 53 3 50 7 -10 10 -107 11 -107 1z"/>
<path d="M7230 5509 c7 -11 14 -19 16 -16 7 7 -7 37 -17 37 -6 0 -5 -9 1 -21z"/>
<path d="M2280 5503 c0 -13 5 -23 10 -23 13 0 13 11 0 30 -8 12 -10 11 -10 -7z"/>
<path d="M2310 5511 c0 -5 5 -13 10 -16 6 -3 10 -2 10 4 0 5 -4 13 -10 16 -5
3 -10 2 -10 -4z"/>
<path d="M5492 5500 c0 -14 2 -19 5 -12 2 6 2 18 0 25 -3 6 -5 1 -5 -13z"/>
<path d="M5521 5504 c0 -11 3 -14 6 -6 3 7 2 16 -1 19 -3 4 -6 -2 -5 -13z"/>
<path d="M210 5500 c0 -5 5 -10 10 -10 6 0 10 5 10 10 0 6 -4 10 -10 10 -5 0
-10 -4 -10 -10z"/>
<path d="M2515 5490 l-80 -6 88 -2 c57 -1 86 2 82 8 -3 6 -7 9 -8 8 -1 -1 -38
-5 -82 -8z"/>
<path d="M6706 5485 c-3 -8 -1 -15 4 -15 6 0 10 7 10 15 0 8 -2 15 -4 15 -2 0
-6 -7 -10 -15z"/>
<path d="M6731 5484 c0 -11 3 -14 6 -6 3 7 2 16 -1 19 -3 4 -6 -2 -5 -13z"/>
<path d="M6408 5483 c7 -3 16 -2 19 1 4 3 -2 6 -13 5 -11 0 -14 -3 -6 -6z"/>
<path d="M2060 5379 c-53 -6 -35 -13 23 -9 23 1 28 -2 25 -17 -3 -19 -48 -32
-48 -14 0 6 -4 11 -10 11 -5 0 -10 -13 -10 -29 0 -15 -11 -45 -25 -66 -14 -20
-20 -35 -13 -33 7 2 22 22 34 45 l21 41 16 -28 c16 -26 16 -27 -10 -39 -14 -6
-23 -14 -20 -18 4 -3 18 2 32 11 23 15 27 15 50 0 13 -9 30 -14 37 -12 7 3 -1
12 -20 22 -37 19 -72 51 -72 66 0 6 14 10 30 10 29 0 40 -13 20 -25 -12 -8
-13 -25 -2 -25 8 0 32 43 32 55 0 3 -9 5 -20 5 -17 0 -18 4 -10 25 12 30 8 32
-60 24z"/>
<path d="M2376 5364 c3 -11 -2 -40 -10 -66 l-14 -48 43 0 c35 0 48 5 64 26 41
52 22 92 -48 101 -35 5 -39 3 -35 -13z m68 -13 c30 -33 3 -91 -41 -91 -24 0
-25 2 -18 37 8 43 22 73 34 73 4 0 16 -9 25 -19z"/>
<path d="M2520 5357 c0 -13 -7 -44 -15 -67 -18 -50 -18 -50 -6 -50 5 0 11 18
15 40 7 46 26 45 26 -1 0 -35 6 -36 31 -6 37 42 44 64 11 33 l-31 -29 -3 48
c-3 50 -28 78 -28 32z"/>
<path d="M2620 5359 c-7 -11 -9 -23 -7 -26 3 -3 -1 -22 -8 -44 -12 -34 -12
-39 0 -39 8 0 15 9 15 21 0 11 4 28 9 37 26 52 17 101 -9 51z"/>
<path d="M2907 5362 c2 -11 -2 -40 -11 -66 -9 -26 -16 -49 -16 -51 0 -11 77
-4 88 7 22 22 12 27 -17 10 -35 -20 -46 -13 -37 23 7 28 26 34 27 8 0 -15 2
-15 9 2 13 30 12 35 -6 28 -13 -5 -15 0 -12 23 2 21 -2 30 -14 32 -12 2 -15
-2 -11 -16z"/>
<path d="M2951 5377 c2 -1 12 -9 22 -16 14 -12 17 -11 17 3 0 10 -8 16 -22 16
-12 0 -19 -1 -17 -3z"/>
<path d="M3030 5352 c0 -15 -9 -45 -20 -67 -24 -47 -24 -46 -6 -39 8 3 17 22
21 42 5 26 9 32 16 21 5 -8 9 -24 9 -36 0 -32 11 -28 38 13 28 43 39 39 19 -8
-14 -32 -13 -34 7 -36 18 -1 21 4 21 36 1 20 8 52 17 70 9 17 12 32 8 32 -12
0 -47 -38 -68 -72 -9 -16 -20 -28 -24 -28 -4 0 -8 12 -8 28 0 37 -10 72 -21
72 -5 0 -9 -13 -9 -28z"/>
<path d="M636 5304 l-58 -64 66 0 c37 0 66 4 66 10 0 6 -21 10 -47 10 l-47 0
47 48 c45 45 56 63 40 61 -5 0 -34 -29 -67 -65z"/>
<path d="M787 5305 c-28 -39 -41 -65 -33 -65 7 0 16 9 19 20 3 12 14 20 26 20
19 0 20 -3 11 -20 -9 -18 -8 -20 17 -20 20 0 24 3 16 11 -7 7 -9 32 -6 65 3
30 4 54 1 54 -2 0 -25 -29 -51 -65z m25 -7 c-7 -7 -12 -8 -12 -2 0 14 12 26
19 19 2 -3 -1 -11 -7 -17z"/>
<path d="M893 5335 c-1 -19 -8 -49 -17 -65 l-14 -30 40 0 c30 0 46 7 69 29 17
17 29 24 29 16 0 -39 60 -58 96 -30 18 14 17 15 -7 4 -20 -8 -32 -8 -48 0 -28
16 -27 43 5 80 14 17 22 31 17 31 -17 0 -53 -31 -53 -46 0 -8 -4 -14 -10 -14
-5 0 -10 8 -10 18 0 28 -20 42 -59 42 -34 0 -36 -2 -38 -35z m75 2 c7 -34 -8
-68 -34 -77 -39 -15 -44 -5 -26 50 13 41 20 50 36 48 12 -2 22 -11 24 -21z"/>
<path d="M1101 5353 c7 -10 15 -20 16 -22 2 -2 3 5 3 17 0 14 -6 22 -16 22
-14 0 -15 -3 -3 -17z"/>
<path d="M1387 5305 l-59 -65 67 0 c40 0 64 4 60 10 -3 5 -21 9 -40 8 -19 -1
-37 1 -40 4 -3 2 15 26 40 51 25 26 45 50 45 52 0 15 -21 -3 -73 -60z"/>
<path d="M1532 5304 c-33 -50 -39 -64 -26 -64 10 0 14 3 11 7 -10 9 13 33 30
33 10 0 14 -7 10 -20 -4 -16 0 -20 21 -20 19 0 23 3 13 9 -10 7 -12 22 -7 65
4 31 4 56 -1 55 -4 0 -27 -29 -51 -65z m28 1 c0 -8 -4 -15 -10 -15 -5 0 -7 7
-4 15 4 8 8 15 10 15 2 0 4 -7 4 -15z"/>
<path d="M1634 5305 l-20 -65 34 0 c37 0 72 15 72 31 0 6 -10 3 -22 -5 -32
-23 -48 -20 -48 8 0 28 15 42 26 25 4 -8 9 -7 15 2 14 22 11 28 -13 21 -17 -4
-20 -2 -15 12 4 10 7 20 7 22 0 10 49 3 53 -8 3 -8 6 -6 6 5 1 13 -7 17 -36
17 -38 0 -38 -1 -59 -65z"/>
<path d="M1760 5320 c-8 -28 -18 -53 -22 -56 -4 -3 -8 -9 -8 -14 0 -11 81 -3
92 8 3 4 8 30 10 57 3 49 3 50 -28 53 -29 3 -31 0 -44 -48z m60 25 c0 -9 -7
-18 -15 -21 -12 -5 -13 -10 -4 -20 15 -19 4 -44 -20 -44 -20 0 -20 -2 5 88 5
17 34 15 34 -3z"/>
<path d="M3340 5310 c0 -11 7 -20 15 -20 8 0 15 9 15 20 0 11 -7 20 -15 20 -8
0 -15 -9 -15 -20z"/>
<path d="M1180 5308 c0 -4 24 -7 53 -7 54 1 49 5 -15 11 -21 2 -38 0 -38 -4z"/>
<path d="M2711 5316 c9 -9 90 -13 95 -5 3 5 -18 9 -47 9 -29 0 -50 -2 -48 -4z"/>
<path d="M1177 5278 c-14 -9 -14 -10 41 -12 23 -1 48 2 55 6 6 4 8 8 2 9 -55
5 -87 4 -98 -3z"/>
<path d="M2722 5279 c-13 -5 -11 -7 8 -10 22 -4 93 5 80 11 -13 5 -73 4 -88
-1z"/>
<path d="M4302 5098 c-54 -75 -56 -78 -36 -78 10 0 14 3 11 7 -10 9 13 33 30
33 10 0 14 -7 10 -20 -4 -14 0 -20 11 -20 14 0 17 12 18 65 1 36 0 65 -2 65
-2 0 -21 -24 -42 -52z m22 -13 c-4 -8 -10 -15 -15 -15 -4 0 -6 7 -3 15 4 8 10
15 15 15 4 0 6 -7 3 -15z"/>
<path d="M4204 4902 c-94 -89 -241 -226 -439 -406 -77 -71 -152 -140 -166
-155 -14 -14 -77 -73 -139 -131 -160 -149 -150 -140 -331 -312 -91 -87 -183
-171 -205 -188 -21 -17 -116 -106 -209 -198 -94 -92 -193 -187 -220 -212 -28
-25 -113 -104 -191 -175 -77 -72 -180 -167 -229 -212 -49 -45 -87 -85 -83 -88
8 -8 4590 -7 4597 1 6 6 -85 95 -324 319 -82 77 -190 179 -240 226 -170 162
-260 246 -286 270 -50 45 -312 294 -368 349 -79 77 -237 226 -372 350 -113
105 -245 228 -304 285 -17 17 -82 77 -145 135 -63 58 -141 131 -174 162 -34
32 -68 58 -76 58 -8 0 -51 -35 -96 -78z m86 -1017 l0 -1055 -780 1 c-429 1
-780 5 -780 9 0 4 24 37 53 72 28 36 84 109 122 163 39 53 84 114 100 136 17
21 55 73 85 115 30 43 105 145 167 228 62 83 120 162 130 175 10 13 36 48 58
77 22 29 50 68 63 86 13 18 67 92 120 164 99 133 321 431 334 449 28 35 127
171 148 200 14 20 47 64 74 98 27 34 59 79 72 100 14 20 26 37 29 37 3 0 5
-475 5 -1055z m82 973 c24 -31 68 -91 98 -133 30 -43 69 -94 85 -115 17 -21
55 -73 85 -114 30 -42 75 -103 100 -135 25 -33 62 -83 83 -113 21 -29 77 -105
124 -168 47 -63 152 -205 232 -315 80 -110 159 -218 176 -241 16 -22 50 -69
75 -103 60 -82 149 -203 200 -271 152 -203 221 -302 215 -308 -7 -7 -1524 -7
-1531 1 -3 3 -5 893 -4 1922 0 103 4 165 9 160 5 -6 29 -36 53 -67z m103 -53
c122 -115 200 -188 256 -240 35 -32 98 -91 139 -130 41 -38 111 -104 155 -145
45 -41 157 -147 250 -235 93 -88 208 -196 254 -240 47 -44 126 -119 176 -166
168 -159 310 -293 321 -304 57 -53 296 -278 325 -305 20 -19 75 -72 123 -118
47 -45 86 -85 86 -87 0 -3 -21 -3 -47 -1 -27 2 -179 4 -340 5 l-292 1 -75 100
c-42 56 -76 103 -76 105 0 2 -9 14 -20 27 -11 12 -37 46 -57 75 -48 66 -49 67
-189 258 -219 299 -289 394 -369 506 -44 61 -92 125 -106 143 -14 17 -88 117
-165 221 -76 105 -175 240 -221 300 -45 61 -91 124 -103 140 -11 17 -44 61
-73 99 -29 38 -59 78 -67 90 -14 19 29 -18 115 -99z m-257 76 c-12 -16 -84
-111 -158 -212 -184 -249 -352 -476 -387 -520 -15 -20 -53 -71 -83 -113 -74
-104 -326 -444 -353 -478 -12 -14 -47 -61 -77 -104 -30 -43 -136 -186 -236
-319 -99 -132 -187 -254 -195 -270 l-14 -30 -350 -2 -350 -3 70 65 c39 36 110
103 160 148 49 45 106 98 126 117 19 19 89 85 154 145 65 61 151 142 190 180
39 39 97 94 130 124 33 30 132 122 220 205 88 83 192 180 230 216 39 35 115
107 170 160 108 102 196 185 376 350 122 112 224 207 329 308 36 34 67 62 68
62 2 0 -7 -13 -20 -29z"/>
<path d="M4236 2712 c-9 -31 -19 -63 -22 -69 -3 -7 1 -13 9 -13 9 0 14 11 15
30 1 51 17 59 22 12 l5 -43 34 43 c29 37 33 39 27 16 -3 -14 -9 -33 -12 -42
-4 -12 -2 -15 9 -10 8 3 20 26 27 52 6 26 16 55 21 65 14 25 -9 22 -32 -5 -11
-13 -27 -36 -36 -53 -15 -28 -17 -28 -24 -10 -4 11 -8 32 -8 47 -2 48 -17 39
-35 -20z"/>
<path d="M6625 2745 c-35 -34 -35 -91 0 -107 19 -8 31 -8 51 1 15 6 24 14 21
18 -4 3 -13 0 -21 -6 -17 -14 -55 1 -57 22 -3 32 4 53 23 70 27 23 49 22 55
-4 4 -16 8 -17 14 -7 17 27 9 38 -26 38 -25 0 -44 -8 -60 -25z"/>
<path d="M1887 2740 c3 -10 -2 -40 -10 -65 -15 -42 -15 -45 1 -46 55 -4 86 14
78 44 -2 11 0 27 7 37 16 26 -7 50 -48 50 -28 0 -32 -3 -28 -20z m58 -16 c0
-10 -8 -20 -17 -22 -18 -3 -26 27 -11 42 12 11 28 0 28 -20z m-10 -59 c0 -13
-8 -21 -22 -23 -24 -3 -28 4 -17 33 9 22 39 14 39 -10z"/>
<path d="M2665 2723 c-4 -21 -13 -50 -21 -65 l-15 -28 40 0 c49 0 81 30 81 75
0 38 -16 55 -51 55 -23 0 -28 -5 -34 -37z m65 -16 c0 -37 -4 -46 -26 -56 -38
-17 -44 -6 -26 49 11 36 21 50 34 50 15 0 18 -8 18 -43z"/>
<path d="M5874 2685 l-20 -65 47 0 c34 0 49 4 53 16 9 23 1 28 -14 9 -20 -24
-52 -19 -48 8 2 12 10 22 18 22 15 0 30 13 30 27 0 3 -9 4 -19 1 -16 -4 -19
-1 -14 17 5 18 11 21 34 16 16 -3 29 -1 29 4 0 6 -17 10 -37 10 -38 0 -38 -1
-59 -65z"/>
<path d="M4170 2398 c0 -36 -3 -73 -6 -82 -3 -9 -1 -16 5 -16 7 0 11 20 11 50
0 28 4 50 9 50 6 0 8 -20 6 -45 -2 -25 1 -45 6 -45 5 0 9 5 9 10 0 14 54 12
68 -2 9 -9 12 -4 12 23 0 18 5 41 11 49 8 11 9 1 6 -37 -2 -29 0 -53 4 -53 5
0 9 31 9 69 0 38 3 76 6 85 4 10 1 16 -8 16 -10 0 -13 -9 -10 -30 4 -28 3 -30
-29 -29 -19 1 -27 3 -18 6 10 2 19 12 22 23 4 16 -2 19 -54 22 l-59 3 0 -67z
m40 32 c0 -11 -7 -20 -15 -20 -8 0 -15 9 -15 20 0 11 7 20 15 20 8 0 15 -9 15
-20z m53 3 c-7 -2 -21 -2 -30 0 -10 3 -4 5 12 5 17 0 24 -2 18 -5z m3 -48 c-8
-8 -21 -15 -28 -15 -10 0 -10 2 1 9 11 7 9 10 -10 14 -16 3 -12 5 14 6 34 1
37 -1 23 -14z m-49 -37 c-3 -7 -5 -2 -5 12 0 14 2 19 5 13 2 -7 2 -19 0 -25z
m60 0 c-3 -7 -5 -2 -5 12 0 14 2 19 5 13 2 -7 2 -19 0 -25z m-20 6 c-3 -3 -12
-4 -19 -1 -8 3 -5 6 6 6 11 1 17 -2 13 -5z"/>
<path d="M4435 2464 c-12 -5 -7 -134 6 -134 5 0 9 32 9 70 0 39 -1 70 -2 69
-2 0 -7 -2 -13 -5z"/>
<path d="M1112 2020 c2 -8 17 -16 31 -18 16 -2 27 -10 27 -18 0 -11 -6 -13
-20 -9 -11 4 -20 2 -20 -4 0 -6 6 -12 13 -12 6 -1 -1 -5 -18 -9 -28 -7 -29 -8
-4 -9 14 0 30 4 37 11 9 9 12 5 12 -18 0 -17 5 -35 12 -42 9 -9 7 -12 -10 -12
-15 0 -22 6 -22 20 0 15 -7 20 -25 20 -21 0 -25 -5 -25 -27 0 -28 0 -28 62
-26 35 1 77 3 93 4 l30 1 -30 7 c-20 4 -26 9 -17 14 6 5 12 19 12 32 0 13 6
25 13 28 9 3 9 7 0 19 -9 10 -9 18 -2 25 16 16 -7 27 -61 29 -25 2 -37 0 -27
-2 9 -3 17 -9 17 -13 0 -11 -51 -1 -69 13 -11 9 -13 8 -9 -4z m112 -25 c4 -10
-1 -15 -16 -15 -17 0 -18 2 -8 15 7 8 14 15 15 15 2 0 5 -7 9 -15z m11 -35
c-3 -5 -17 -10 -30 -10 -13 0 -27 5 -30 10 -4 6 8 10 30 10 22 0 34 -4 30 -10z
m0 -30 c-3 -5 -15 -10 -25 -10 -10 0 -22 5 -25 10 -4 6 7 10 25 10 18 0 29 -4
25 -10z m-95 -35 c0 -8 -7 -15 -15 -15 -8 0 -15 7 -15 15 0 8 7 15 15 15 8 0
15 -7 15 -15z m84 0 c-4 -8 -10 -15 -14 -15 -4 0 -10 7 -14 15 -4 10 1 15 14
15 13 0 18 -5 14 -15z"/>
<path d="M1310 1970 c0 -54 0 -55 30 -55 29 0 30 1 30 48 0 60 0 60 -33 61
-26 1 -27 0 -27 -54z m50 25 c0 -8 -9 -15 -20 -15 -11 0 -20 7 -20 15 0 8 9
15 20 15 11 0 20 -7 20 -15z m-2 -48 c2 -12 -3 -17 -17 -17 -12 0 -21 6 -21
13 0 31 32 34 38 4z"/>
<path d="M1393 1974 c0 -44 -5 -60 -23 -79 -13 -14 -21 -27 -18 -30 3 -4 19
11 36 31 33 39 62 41 62 4 0 -14 -7 -20 -22 -20 -19 0 -20 -2 -8 -10 35 -22
40 -12 40 75 0 49 -4 85 -10 85 -5 0 -9 -10 -7 -22 1 -14 -4 -23 -15 -26 -14
-3 -18 3 -18 22 0 14 -4 26 -9 26 -5 0 -8 -25 -8 -56z m57 -19 c0 -8 -9 -15
-20 -15 -11 0 -20 7 -20 15 0 8 9 15 20 15 11 0 20 -7 20 -15z"/>
<path d="M8451 1995 l21 -35 -51 0 -52 0 16 30 c22 43 5 36 -27 -10 l-27 -39
35 6 c19 3 34 2 34 -3 0 -17 -40 -74 -52 -74 -6 0 -9 -3 -6 -6 13 -12 47 18
59 51 10 26 19 35 36 35 19 0 23 -5 23 -33 0 -18 -6 -39 -12 -46 -11 -11 -10
-13 2 -9 8 3 16 15 18 29 6 56 12 68 30 63 11 -4 7 3 -10 20 -16 14 -28 32
-28 41 0 8 -7 15 -15 15 -11 0 -10 -7 6 -35z"/>
<path d="M573 1994 c-27 -41 -24 -108 6 -136 l23 -23 -16 32 c-20 41 -20 92 0
121 9 13 14 26 11 29 -3 2 -14 -8 -24 -23z"/>
<path d="M8156 2005 c-37 -28 -28 -140 13 -153 11 -4 10 1 -2 19 -22 30 -22
97 0 121 20 23 14 31 -11 13z"/>
<path d="M8544 1993 c20 -40 20 -80 2 -115 -12 -22 -12 -26 -1 -22 16 6 35 56
35 90 0 13 -11 36 -26 51 l-25 28 15 -32z"/>
<path d="M716 1983 c18 -36 18 -84 -1 -109 -21 -28 -18 -40 5 -19 28 25 35 75
16 118 -8 21 -19 37 -25 37 -5 0 -3 -12 5 -27z"/>
<path d="M1665 1960 c-9 -27 -21 -52 -26 -55 -23 -15 -4 -25 47 -25 53 0 55 1
48 23 -9 31 -44 107 -48 107 -3 0 -12 -22 -21 -50z m38 -35 l17 -35 -36 0
c-31 0 -35 3 -29 18 4 9 10 25 12 35 8 26 17 21 36 -18z"/>
<path d="M1835 1967 c-15 -23 -37 -52 -48 -64 -18 -20 -18 -23 -4 -23 9 0 17
6 17 14 0 16 27 29 41 20 6 -3 5 -11 -2 -20 -9 -11 -8 -14 8 -14 17 0 20 8 22
51 1 29 4 55 6 60 3 4 1 10 -4 13 -5 3 -21 -13 -36 -37z m11 -34 c-10 -10 -19
5 -10 18 6 11 8 11 12 0 2 -7 1 -15 -2 -18z"/>
<path d="M1926 1985 c-28 -26 -35 -72 -14 -93 18 -18 73 -15 89 6 13 15 12 16
-3 4 -21 -17 -58 -12 -71 9 -7 12 -7 26 3 48 16 39 55 52 75 25 14 -18 14 -18
15 4 0 18 -5 22 -34 22 -21 0 -42 -9 -60 -25z"/>
<path d="M2056 1993 c3 -10 -2 -39 -10 -65 l-14 -48 39 0 c29 0 47 7 64 25 48
47 19 105 -51 105 -26 0 -31 -4 -28 -17z m68 -12 c31 -34 0 -91 -50 -91 -18 0
-16 27 5 83 12 32 22 34 45 8z"/>
<path d="M2558 1945 c-29 -40 -42 -65 -33 -65 7 0 17 9 20 21 8 24 41 21 39
-4 -1 -9 4 -17 12 -17 11 0 14 16 14 65 0 36 -1 65 -2 65 -2 -1 -24 -30 -50
-65z m28 -12 c-10 -10 -19 5 -10 18 6 11 8 11 12 0 2 -7 1 -15 -2 -18z"/>
<path d="M2666 1996 c3 -8 -1 -37 -10 -65 l-15 -51 38 0 c48 0 71 22 53 51 -7
10 -8 19 -3 19 17 0 20 29 5 45 -20 20 -76 21 -68 1z m53 -32 c-16 -19 -29
-17 -29 4 0 26 11 34 27 21 10 -9 10 -15 2 -25z m-3 -35 c9 -14 -19 -42 -39
-37 -11 2 -12 9 -6 26 9 23 33 30 45 11z"/>
<path d="M2785 2000 c3 -5 -1 -33 -10 -62 -8 -28 -15 -53 -15 -55 0 -2 21 -3
47 -1 38 2 49 7 51 22 4 18 3 19 -13 3 -9 -9 -27 -17 -40 -17 -18 0 -22 4 -18
20 7 27 23 36 34 19 5 -9 9 -10 9 -2 0 6 3 20 7 30 6 15 5 16 -9 5 -22 -17
-31 0 -13 24 12 16 17 17 34 6 18 -10 21 -10 21 3 0 11 -12 15 -46 15 -27 0
-43 -4 -39 -10z"/>
<path d="M8197 2004 c-14 -14 -7 -26 8 -14 18 15 45 6 45 -14 0 -9 -13 -31
-30 -49 -16 -19 -30 -37 -30 -41 0 -14 78 -6 83 9 5 11 0 13 -26 8 l-32 -6 28
33 c36 43 33 74 -8 78 -17 2 -34 0 -38 -4z"/>
<path d="M2407 1967 c-9 -18 -20 -45 -26 -60 l-11 -27 55 0 c30 0 55 3 55 8 0
13 -45 112 -51 112 -4 0 -14 -15 -22 -33z m46 -64 c7 -10 1 -13 -27 -13 -20 0
-36 2 -36 4 0 2 7 21 16 42 l17 39 10 -30 c5 -16 14 -36 20 -42z"/>
<path d="M2225 1972 c-12 -12 -2 -17 39 -20 25 -1 47 2 51 7 3 6 -3 10 -12 10
-10 0 -30 2 -45 4 -15 2 -30 2 -33 -1z"/>
<path d="M621 1953 c0 -10 3 -13 6 -5 5 13 33 17 33 4 0 -4 -9 -13 -20 -20
-11 -7 -20 -21 -20 -32 0 -16 7 -20 35 -20 33 0 43 8 28 24 -4 4 -7 19 -8 34
0 22 -5 28 -27 30 -22 3 -28 -1 -27 -15z m35 -48 c-3 -9 -11 -13 -16 -10 -8 5
-7 11 1 21 14 18 24 11 15 -11z"/>
<path d="M3040 1943 c0 -15 2 -16 10 -3 9 13 11 13 20 0 8 -13 10 -12 10 3 0
10 -8 17 -20 17 -12 0 -20 -7 -20 -17z"/>
<path d="M2215 1921 c7 -12 103 -12 111 0 3 5 -22 9 -56 9 -36 0 -59 -4 -55
-9z"/>
<path d="M2214 1882 c5 -9 103 -8 113 1 3 4 -22 7 -56 7 -34 0 -60 -3 -57 -8z"/>
<path d="M1120 1510 c0 -9 -7 -25 -15 -36 -19 -25 -19 -35 0 -28 12 5 15 -4
17 -47 1 -43 3 -37 8 31 l6 85 3 -80 c1 -50 5 -73 10 -60 4 11 19 23 32 26 23
7 23 7 -4 8 -34 1 -32 22 4 32 23 7 23 7 -4 8 -31 1 -28 21 2 21 13 0 20 9 23
28 4 26 2 27 -39 28 -34 1 -43 -3 -43 -16z m70 -16 c0 -9 -7 -14 -17 -12 -25
5 -28 28 -4 28 12 0 21 -6 21 -16z"/>
<path d="M1235 1520 c-17 -7 -17 -9 -2 -9 25 -1 21 -29 -5 -34 -18 -3 -17 -5
7 -6 27 -1 30 2 31 29 1 32 0 33 -31 20z"/>
<path d="M1380 1521 c0 -9 -10 -12 -30 -9 -22 3 -31 0 -36 -14 -8 -26 3 -38
37 -38 34 0 44 -17 35 -56 -6 -22 -9 -24 -22 -13 -10 8 -13 22 -10 38 l5 26
-12 -27 c-7 -14 -21 -36 -31 -47 -23 -25 -10 -28 16 -4 16 14 21 15 28 4 10
-17 110 -28 110 -13 0 7 -13 9 -35 5 -33 -5 -35 -4 -35 21 0 21 5 26 26 26 14
0 23 4 20 9 -3 5 -15 7 -26 4 -14 -4 -20 0 -20 11 0 10 8 16 23 16 14 0 26 9
34 25 11 24 10 25 -21 25 -18 0 -37 5 -44 12 -9 9 -12 9 -12 -1z m60 -30 c0
-14 -27 -21 -76 -21 -41 0 -53 8 -37 23 10 10 113 8 113 -2z"/>
<path d="M4065 1520 c-3 -5 -4 -10 -1 -10 3 0 1 -11 -4 -25 -7 -19 -6 -25 4
-25 7 0 13 6 13 13 0 6 3 22 7 35 7 22 -7 31 -19 12z"/>
<path d="M574 1499 c-33 -37 -20 -149 18 -149 5 0 2 10 -6 22 -21 29 -20 87 0
116 21 30 13 38 -12 11z"/>
<path d="M619 1516 c-2 -3 -2 -33 1 -68 4 -54 8 -63 26 -66 48 -7 62 77 14 88
-19 5 -24 12 -22 28 3 20 -7 29 -19 18z m49 -80 c2 -9 1 -24 -3 -33 -10 -27
-39 8 -30 36 8 25 28 23 33 -3z"/>
<path d="M710 1517 c0 -3 7 -18 15 -33 19 -37 19 -84 -1 -112 -8 -12 -11 -22
-6 -22 32 0 51 84 28 128 -14 27 -36 51 -36 39z"/>
<path d="M3983 1513 c25 -7 22 -59 -8 -110 -13 -24 -20 -43 -15 -43 4 0 18 21
31 46 l22 47 18 -24 c18 -23 18 -24 -4 -41 -12 -10 -28 -18 -36 -18 -8 0 -11
-3 -7 -7 4 -4 22 1 40 11 31 16 36 17 64 2 35 -18 42 -19 42 -8 0 4 -14 13
-31 19 l-31 12 21 30 c23 32 26 41 11 41 -5 0 -10 -6 -10 -14 0 -7 -7 -20 -16
-27 -14 -12 -20 -9 -41 16 -14 18 -22 39 -20 53 4 18 0 22 -22 21 -17 -1 -20
-3 -8 -6z"/>
<path d="M4470 1485 c0 -17 -9 -47 -19 -68 l-19 -37 48 0 c39 0 49 4 53 20 5
18 4 19 -16 5 -34 -24 -50 -19 -42 12 9 36 12 38 30 23 13 -10 15 -9 15 8 0
15 -5 19 -19 15 -16 -4 -19 -1 -14 16 6 23 48 30 56 9 4 -8 6 -7 6 3 1 13 -10
18 -39 21 -39 3 -40 3 -40 -27z"/>
<path d="M4772 1512 c-8 -2 -10 -8 -4 -15 5 -7 6 -36 3 -64 -7 -51 -7 -53 17
-53 19 0 22 3 14 13 -6 7 -12 38 -14 68 -2 40 -7 55 -16 51z"/>
<path d="M4861 1511 c-9 -6 -12 -19 -8 -37 3 -15 0 -35 -6 -45 -14 -23 8 -51
37 -47 24 3 34 41 16 63 -7 9 -8 15 0 20 16 10 12 42 -6 49 -19 7 -16 8 -33
-3z m29 -27 c0 -16 -16 -19 -25 -4 -8 13 4 32 16 25 5 -4 9 -13 9 -21z m-6
-60 c7 -19 -2 -37 -15 -29 -12 8 -12 45 0 45 5 0 12 -7 15 -16z"/>
<path d="M1715 1482 c-70 -94 -75 -102 -61 -102 7 0 16 9 19 20 3 12 14 20 26
20 24 0 27 -10 9 -28 -9 -9 -5 -12 18 -11 16 0 23 3 16 6 -9 4 -11 20 -6 64 4
32 5 59 3 59 -2 0 -13 -13 -24 -28z m1 -49 c-10 -10 -19 5 -10 18 6 11 8 11
12 0 2 -7 1 -15 -2 -18z"/>
<path d="M1803 1498 c2 -23 -25 -103 -37 -110 -6 -4 11 -8 37 -8 38 0 53 5 72
25 27 26 30 41 15 79 -8 22 -16 26 -49 26 -25 0 -38 -4 -38 -12z m70 -19 c16
-26 0 -65 -33 -79 -17 -7 -33 -10 -36 -7 -3 3 2 29 11 57 17 53 37 62 58 29z"/>
<path d="M2115 1445 c0 -63 1 -65 25 -64 14 0 19 3 13 6 -9 3 -13 26 -13 64 0
40 -4 59 -12 59 -9 0 -13 -20 -13 -65z"/>
<path d="M2202 1486 c-9 -21 -7 -25 14 -35 34 -15 30 -57 -4 -54 -12 2 -22 -2
-22 -7 0 -15 46 -12 60 4 17 22 8 59 -17 72 -25 12 -20 24 9 24 10 0 18 5 18
10 0 21 -47 10 -58 -14z"/>
<path d="M3006 1504 c13 -6 -13 -104 -31 -116 -5 -4 9 -8 32 -8 53 0 94 36 62
55 -7 5 -5 13 6 25 26 28 9 50 -39 49 -22 0 -36 -3 -30 -5z m60 -16 c4 -6 -1
-17 -11 -25 -14 -10 -16 -16 -7 -25 14 -14 -2 -48 -23 -48 -18 0 -18 4 -4 49
7 20 13 42 15 49 4 15 21 16 30 0z"/>
<path d="M3126 1496 c3 -7 -4 -36 -15 -65 l-19 -51 42 0 c31 0 48 6 64 23 24
25 29 76 10 95 -17 17 -89 16 -82 -2z m58 -2 c27 -10 21 -70 -9 -90 -14 -9
-31 -14 -39 -11 -13 5 -12 13 2 56 16 52 19 55 46 45z"/>
<path d="M3437 1503 c-16 -15 -5 -22 24 -16 29 5 30 5 23 -23 -4 -16 -11 -37
-15 -46 -12 -22 -11 -41 0 -34 5 3 14 25 20 50 6 24 13 51 17 60 5 13 -1 16
-28 16 -19 0 -38 -3 -41 -7z"/>
<path d="M4333 1493 c0 -10 -7 -39 -16 -65 l-15 -48 29 0 c70 0 117 58 89 109
-14 28 -85 30 -87 4z m75 -29 c2 -25 -3 -37 -24 -53 -38 -30 -58 -28 -50 7 15
61 28 83 50 80 15 -2 22 -11 24 -34z"/>
<path d="M2330 1454 c-21 -24 -1 -69 29 -69 14 0 26 5 28 12 3 7 -3 10 -15 6
-14 -3 -22 1 -27 17 -9 29 9 48 30 30 12 -10 15 -10 15 4 0 21 -43 21 -60 0z"/>
<path d="M2407 1456 c10 -15 10 -38 0 -58 -6 -14 -3 -18 10 -18 14 0 18 8 18
37 0 27 4 38 15 38 19 0 26 -55 8 -66 -9 -6 -6 -9 11 -9 17 0 22 4 17 15 -7
20 11 68 24 60 14 -9 13 -48 -2 -63 -9 -9 -7 -12 11 -12 19 0 22 4 17 23 -3
12 -6 32 -6 44 0 20 -5 21 -65 21 -45 0 -62 -4 -58 -12z"/>
<path d="M3283 1456 c5 -13 80 -14 87 -1 3 5 -16 10 -43 10 -30 1 -46 -3 -44
-9z"/>
<path d="M3579 1449 c-16 -31 4 -71 33 -67 29 4 34 25 6 24 -18 -1 -23 4 -23
24 0 20 5 25 23 23 12 -2 22 2 22 7 0 19 -49 10 -61 -11z"/>
<path d="M3655 1425 c0 -34 4 -45 15 -45 12 0 15 8 12 34 -2 19 1 37 8 41 18
11 29 -14 20 -46 l-9 -29 52 0 c40 0 48 3 39 12 -7 7 -12 26 -12 44 l0 32 -62
1 -63 1 0 -45z m108 21 c8 -21 -4 -56 -19 -56 -9 0 -14 11 -14 28 0 40 22 58
33 28z"/>
<path d="M4609 1459 c-9 -6 7 -9 45 -9 33 0 57 3 54 6 -10 10 -85 12 -99 3z"/>
<path d="M4977 1463 c-13 -12 -7 -61 9 -74 17 -14 44 -3 53 22 3 11 1 12 -11
2 -18 -15 -38 1 -38 30 0 15 5 18 25 13 14 -4 25 -2 25 4 0 11 -53 14 -63 3z"/>
<path d="M5059 1457 c7 -9 8 -24 1 -45 -7 -27 -6 -32 8 -32 14 0 17 7 14 40
-3 33 -1 40 13 40 14 0 16 -7 13 -40 -3 -31 0 -40 12 -40 11 0 15 10 15 37 0
22 5 38 14 41 10 3 12 -5 9 -37 -3 -32 0 -41 12 -41 12 0 14 10 12 45 l-4 45
-65 0 c-53 0 -63 -2 -54 -13z"/>
<path d="M5364 1455 c-7 -18 3 -35 21 -35 15 0 24 19 18 38 -6 17 -32 15 -39
-3z m30 -16 c-3 -5 -10 -7 -15 -3 -5 3 -7 10 -3 15 3 5 10 7 15 3 5 -3 7 -10
3 -15z"/>
<path d="M1214 1426 c6 -29 3 -37 -16 -50 -12 -9 -17 -16 -11 -16 7 0 18 6 25
14 11 12 16 12 31 -2 9 -8 20 -12 25 -8 4 4 -1 14 -11 21 -15 11 -16 17 -8 34
17 31 13 41 -15 41 -24 0 -26 -2 -20 -34z m26 9 c0 -8 -4 -15 -10 -15 -5 0
-10 7 -10 15 0 8 5 15 10 15 6 0 10 -7 10 -15z"/>
<path d="M1950 1450 c0 -5 23 -10 50 -10 28 0 50 5 50 10 0 6 -22 10 -50 10
-27 0 -50 -4 -50 -10z"/>
<path d="M2725 1440 c20 -22 31 -20 22 5 -4 8 -14 15 -23 15 -16 0 -16 -2 1
-20z"/>
<path d="M3289 1419 c-9 -6 3 -9 40 -9 30 0 51 3 47 7 -11 11 -70 13 -87 2z"/>
<path d="M4600 1420 c0 -5 25 -10 55 -10 30 0 55 5 55 10 0 6 -25 10 -55 10
-30 0 -55 -4 -55 -10z"/>
<path d="M1973 1413 c15 -2 39 -2 55 0 15 2 2 4 -28 4 -30 0 -43 -2 -27 -4z"/>
<path d="M1210 1029 c0 -4 7 -20 15 -35 19 -38 19 -84 -1 -112 -23 -33 -10
-38 15 -6 30 38 28 95 -4 131 -13 15 -25 25 -25 22z"/>
<path d="M1720 1016 c0 -10 -14 -16 -42 -19 l-43 -4 43 -1 42 -2 0 -59 c0 -48
-3 -60 -17 -64 -14 -4 -12 -5 5 -6 18 -1 22 4 22 30 l0 30 35 -27 c20 -15 39
-24 43 -20 4 4 0 11 -8 16 -8 5 -24 16 -35 25 -20 15 -20 16 3 31 12 9 22 21
22 26 0 5 -10 2 -22 -6 -30 -21 -38 -20 -38 4 0 17 7 20 40 20 23 0 40 5 40
11 0 6 -6 9 -14 6 -8 -3 -17 1 -20 9 -3 8 -10 14 -15 14 -6 0 -8 -7 -5 -15 4
-10 0 -15 -11 -15 -11 0 -15 5 -11 15 3 8 1 15 -4 15 -6 0 -10 -6 -10 -14z"/>
<path d="M1104 985 c-19 -46 -18 -64 7 -104 26 -42 34 -35 14 12 -19 45 -19
65 -1 100 8 15 10 27 5 27 -6 0 -17 -16 -25 -35z"/>
<path d="M1982 950 c-31 -42 -47 -70 -38 -70 7 0 16 9 19 20 3 12 14 20 26 20
24 0 27 -10 9 -28 -9 -9 -7 -12 13 -12 23 0 24 3 24 70 0 39 0 70 0 70 0 0
-24 -31 -53 -70z m24 -6 c-4 -9 -9 -15 -11 -12 -3 3 -3 13 1 22 4 9 9 15 11
12 3 -3 3 -13 -1 -22z"/>
<path d="M2091 963 c-6 -26 -19 -56 -28 -65 -15 -17 -14 -18 10 -18 19 0 24 4
21 18 -3 9 -1 28 5 42 l10 25 0 -27 c2 -59 12 -62 47 -12 37 51 43 48 19 -10
l-15 -36 27 0 c18 0 23 3 15 8 -10 7 -8 20 7 65 23 71 9 74 -39 9 l-35 -47 -8
48 c-5 26 -12 47 -16 47 -4 0 -13 -21 -20 -47z"/>
<path d="M1175 982 c-5 -4 -10 -26 -10 -50 0 -31 4 -42 15 -42 12 0 15 9 12
38 -5 58 -6 62 -17 54z"/>
<path d="M1670 961 c0 -6 5 -13 10 -16 6 -3 10 1 10 9 0 9 -4 16 -10 16 -5 0
-10 -4 -10 -9z"/>
<path d="M2343 954 c-8 -20 8 -36 26 -25 15 10 8 41 -9 41 -6 0 -13 -7 -17
-16z m27 -4 c0 -5 -5 -10 -11 -10 -5 0 -7 5 -4 10 3 6 8 10 11 10 2 0 4 -4 4
-10z"/>
<path d="M1676 915 c-10 -8 -24 -16 -30 -18 -7 -3 -8 -8 -1 -14 6 -5 21 2 39
19 30 29 25 38 -8 13z"/>
<path d="M2393 562 l-53 -3 0 -39 c0 -28 -5 -40 -17 -43 -14 -4 -13 -5 4 -6
17 -1 20 -6 16 -23 -3 -13 -13 -31 -21 -40 -9 -11 -11 -18 -4 -18 6 0 15 7 20
15 7 14 12 14 45 0 43 -18 93 -20 103 -4 5 8 -3 10 -27 6 -37 -7 -66 4 -55 22
4 6 21 11 37 11 17 0 28 4 25 8 -3 5 -19 7 -36 4 -18 -2 -30 0 -30 7 0 6 19
11 45 11 25 0 45 4 45 10 0 8 -71 6 -122 -5 -11 -2 -18 3 -18 12 0 12 11 14
49 11 49 -3 49 -3 53 30 2 18 2 34 -1 35 -3 1 -30 1 -58 -1z m47 -32 c0 -17
-7 -20 -43 -20 -36 0 -43 3 -44 20 -2 17 4 20 43 20 37 0 44 -3 44 -20z m-50
-92 c0 -30 -1 -31 -16 -16 -9 9 -14 24 -11 32 11 27 27 17 27 -16z"/>
<path d="M3030 563 c0 -8 -17 -14 -47 -15 -44 -1 -45 -2 -10 -5 20 -2 37 -9
37 -15 0 -5 -7 -8 -15 -4 -12 4 -15 -4 -16 -37 -1 -23 -1 -50 0 -59 1 -10 -7
-18 -21 -20 -49 -8 25 -13 97 -7 l70 5 -70 4 c-54 3 -61 4 -27 7 36 4 42 7 42
27 0 13 3 38 6 55 6 31 6 32 -21 25 -20 -5 -26 -4 -21 5 4 6 24 12 44 13 l37
1 -35 4 c-19 3 -38 10 -42 16 -6 9 -8 9 -8 0z m30 -63 c0 -5 -13 -10 -29 -10
-17 0 -33 5 -36 10 -4 6 8 10 29 10 20 0 36 -4 36 -10z m0 -45 c0 -21 -5 -25
-29 -25 -17 0 -33 5 -36 10 -3 6 -1 10 6 10 8 0 8 4 -1 15 -11 13 -7 15 24 15
32 0 36 -3 36 -25z"/>
<path d="M3210 561 c0 -6 -13 -18 -30 -27 -20 -12 -26 -21 -18 -25 15 -10 11
-88 -5 -108 -10 -11 -9 -13 3 -9 8 2 19 23 24 46 7 32 14 42 29 42 14 0 18 -5
14 -20 -3 -13 0 -20 9 -20 9 0 14 8 12 18 -2 12 4 17 21 17 19 0 24 -6 27 -32
3 -26 0 -33 -14 -33 -16 -1 -16 -1 1 -11 10 -6 20 -9 22 -7 2 2 5 32 6 68 l3
65 -29 -3 c-26 -4 -28 -2 -16 12 12 14 10 16 -13 16 -14 0 -26 5 -26 10 0 6
-4 10 -10 10 -5 0 -10 -4 -10 -9z m35 -31 c-3 -5 -17 -10 -31 -10 -14 0 -22 4
-19 10 3 6 17 10 31 10 14 0 22 -4 19 -10z m-15 -30 c0 -5 -9 -10 -20 -10 -11
0 -20 5 -20 10 0 6 9 10 20 10 11 0 20 -4 20 -10z m70 0 c0 -5 -13 -10 -30
-10 -16 0 -30 5 -30 10 0 6 14 10 30 10 17 0 30 -4 30 -10z"/>
<path d="M3602 540 c-18 -17 -26 -30 -19 -30 10 0 12 -11 7 -48 -3 -26 -10
-54 -15 -62 -8 -13 -6 -13 8 -1 9 7 19 28 23 47 4 24 12 34 25 34 27 0 34 -20
7 -21 -22 0 -22 -1 -3 -9 30 -13 35 -12 35 11 0 15 5 20 21 17 16 -2 23 -11
25 -35 3 -28 1 -33 -19 -34 -21 0 -21 -1 -2 -8 31 -13 35 -5 35 63 l0 63 -27
-5 c-25 -5 -27 -4 -14 11 12 15 10 17 -18 17 -19 0 -30 4 -26 10 12 20 -11 9
-43 -20z m63 -10 c-3 -5 -15 -10 -26 -10 -10 0 -19 5 -19 10 0 6 12 10 26 10
14 0 23 -4 19 -10z m-5 -30 c0 -5 -11 -10 -25 -10 -14 0 -25 5 -25 10 0 6 11
10 25 10 14 0 25 -4 25 -10z m60 0 c0 -5 -11 -10 -25 -10 -14 0 -25 5 -25 10
0 6 11 10 25 10 14 0 25 -4 25 -10z"/>
<path d="M3898 539 c-15 -16 -24 -29 -21 -29 11 0 63 42 63 51 0 15 -14 8 -42
-22z"/>
<path d="M4395 551 c3 -11 1 -23 -6 -26 -8 -6 -7 -10 2 -17 11 -7 11 -11 2
-15 -7 -2 -13 -10 -13 -16 0 -5 3 -7 7 -3 4 3 14 -12 22 -35 19 -51 41 -63 41
-22 0 21 -3 24 -10 13 -7 -11 -11 -9 -19 12 -12 32 -12 110 0 102 5 -3 7 -9 4
-14 -6 -10 14 -25 22 -16 7 7 -36 56 -49 56 -5 0 -7 -9 -3 -19z"/>
<path d="M4501 551 c-7 -13 -14 -56 -15 -95 -1 -57 0 -66 8 -43 10 29 46 38
46 12 0 -8 -5 -15 -11 -15 -5 0 -7 -4 -4 -10 10 -17 25 -11 25 10 0 31 50 28
51 -2 l0 -23 9 23 c6 13 18 22 30 22 12 0 19 4 15 10 -3 5 -12 7 -19 4 -25
-10 -25 12 -1 59 14 25 22 48 17 50 -4 2 -24 2 -46 -1 -26 -3 -34 -7 -25 -13
12 -7 11 -11 -3 -26 -16 -15 -18 -15 -18 -1 0 11 -8 14 -31 12 -19 -2 -28 0
-23 7 3 6 12 8 20 5 7 -3 16 -1 19 4 4 6 0 10 -9 10 -8 0 -16 6 -18 12 -3 8
-10 4 -17 -11z m134 -21 c-3 -5 -13 -10 -21 -10 -10 0 -14 -12 -14 -41 0 -36
-2 -40 -22 -37 -28 4 -39 48 -13 48 13 0 14 -4 4 -22 -11 -21 -11 -22 4 -9 10
7 17 22 17 31 0 32 12 50 32 50 10 0 16 -4 13 -10z m-115 -45 c0 -33 -15 -33
-16 0 -1 14 2 25 7 25 5 0 9 -11 9 -25z m22 -10 c-6 -34 -12 -32 -12 6 0 16 4
28 9 25 4 -3 6 -17 3 -31z"/>
<path d="M4713 553 c-18 -8 -22 -12 -10 -13 9 0 17 -5 17 -11 0 -5 -4 -8 -9
-5 -5 3 -11 -3 -14 -14 -3 -10 -1 -20 5 -22 6 -2 5 -14 -2 -32 -9 -25 -9 -27
4 -17 12 10 15 7 19 -21 3 -28 4 -26 6 12 1 33 4 41 11 30 8 -13 10 -13 10 2
0 9 -6 19 -12 21 -10 4 -10 6 0 6 7 1 23 -4 35 -11 21 -11 21 -11 2 -19 -19
-7 -19 -8 3 -8 12 -1 22 -5 22 -10 0 -5 -10 -12 -22 -14 -23 -4 -23 -4 -1 -6
12 0 24 -9 26 -18 4 -17 5 -17 6 0 1 11 9 17 26 17 14 0 25 5 25 11 0 6 -9 8
-20 4 -11 -4 -20 -2 -20 4 0 6 10 11 23 12 21 0 21 1 2 9 l-20 8 20 8 c19 8
19 8 -5 15 -21 6 -22 7 -5 8 15 1 21 9 23 30 2 29 2 29 -57 33 -33 1 -73 -2
-88 -9z m38 -12 c-8 -5 -11 -16 -8 -25 4 -9 2 -16 -3 -16 -11 0 -14 33 -3 43
3 4 11 7 17 7 6 0 5 -4 -3 -9z m39 -44 c10 -4 8 -6 -7 -6 -13 -1 -23 1 -23 3
0 2 -3 13 -6 23 -5 16 -4 16 8 2 7 -9 20 -18 28 -22z m45 23 c3 -5 1 -10 -4
-10 -6 0 -11 5 -11 10 0 6 2 10 4 10 3 0 8 -4 11 -10z m-15 -50 c0 -5 -4 -10
-10 -10 -5 0 -10 5 -10 10 0 6 5 10 10 10 6 0 10 -4 10 -10z"/>
<path d="M4924 527 c-25 -58 -27 -64 -15 -47 8 11 11 2 11 -39 0 -74 10 -59
15 24 2 37 9 73 15 80 7 8 7 16 2 19 -6 3 -18 -13 -28 -37z"/>
<path d="M4967 535 c-20 -43 -22 -55 -3 -30 23 32 46 12 46 -41 0 -39 -3 -47
-22 -52 -21 -5 -21 -6 -2 -12 30 -11 34 -3 34 61 0 44 4 59 14 59 8 0 16 -7
18 -15 2 -13 6 -12 16 5 12 19 10 20 -37 20 -44 0 -49 2 -44 20 8 31 -2 24
-20 -15z"/>
<path d="M5140 555 c0 -8 -4 -15 -9 -15 -5 0 -11 -29 -13 -65 -3 -63 -3 -64
21 -58 14 3 26 1 32 -8 6 -9 9 2 9 34 0 26 4 47 9 47 5 0 13 9 16 20 4 13 15
20 31 20 24 0 25 -2 22 -57 -2 -48 -6 -58 -20 -57 -22 2 -24 -14 -2 -23 24 -9
34 8 42 80 l8 67 -34 0 c-26 0 -33 3 -28 15 3 9 0 15 -9 15 -8 0 -15 -9 -15
-19 0 -14 -7 -19 -25 -17 -19 1 -23 5 -19 19 3 9 1 17 -5 17 -6 0 -11 -7 -11
-15z m30 -49 c0 -7 -9 -16 -20 -19 -15 -4 -20 0 -20 14 0 12 7 19 20 19 11 0
20 -6 20 -14z m-2 -53 c-5 -26 -38 -29 -38 -4 0 15 6 21 21 21 14 0 19 -5 17
-17z"/>
<path d="M5336 546 c-9 -14 -12 -26 -7 -26 5 0 13 5 16 10 5 8 11 8 20 0 10
-8 14 -7 18 2 2 7 8 10 12 5 11 -9 -32 -55 -59 -63 -20 -7 -20 -7 3 -16 20 -7
23 -13 17 -39 -5 -26 -3 -30 10 -25 9 3 33 6 55 6 36 0 39 2 39 28 0 26 -2 27
-39 24 -22 -2 -48 1 -58 8 -14 9 -2 10 57 7 59 -4 71 -2 56 7 -37 21 -71 59
-58 64 7 2 19 -2 27 -8 11 -9 15 -9 15 -1 0 6 7 11 15 11 8 0 15 5 15 11 0 6
-9 8 -21 4 -13 -4 -25 -2 -29 5 -5 8 -13 9 -21 4 -19 -12 -53 -13 -60 -2 -3 5
-13 -2 -23 -16z m84 -51 c11 -13 8 -15 -15 -15 -23 0 -26 2 -15 15 7 8 14 15
15 15 1 0 8 -7 15 -15z m30 -70 c0 -11 -11 -15 -40 -15 -29 0 -40 4 -40 15 0
11 11 15 40 15 29 0 40 -4 40 -15z"/>
<path d="M5606 559 c5 -8 -4 -10 -29 -7 -28 3 -37 0 -40 -14 -4 -13 2 -20 19
-24 13 -3 22 -10 19 -14 -3 -5 0 -10 6 -12 7 -2 -3 -12 -22 -21 l-34 -17 42 0
c40 0 42 -2 46 -32 l4 -33 1 32 c2 30 5 32 45 36 l42 4 -42 1 c-24 1 -43 6
-43 11 0 4 12 7 28 5 15 -2 19 -1 10 2 -23 7 -23 34 0 34 9 0 23 9 30 20 11
19 10 20 -28 20 -22 0 -40 5 -40 10 0 6 -5 10 -11 10 -5 0 -7 -5 -3 -11z m-16
-29 c0 -5 -9 -10 -21 -10 -11 0 -17 5 -14 10 3 6 13 10 21 10 8 0 14 -4 14
-10z m80 0 c0 -5 -4 -10 -10 -10 -5 0 -10 5 -10 10 0 6 5 10 10 10 6 0 10 -4
10 -10z m-50 -24 c0 -3 -4 -8 -10 -11 -5 -3 -10 -1 -10 4 0 6 5 11 10 11 6 0
10 -2 10 -4z m-17 -43 c-7 -2 -19 -2 -25 0 -7 3 -2 5 12 5 14 0 19 -2 13 -5z"/>
<path d="M1220 545 c0 -8 5 -15 10 -15 6 0 10 7 10 15 0 8 -4 15 -10 15 -5 0
-10 -7 -10 -15z"/>
<path d="M2530 548 c0 -5 16 -8 36 -8 33 0 35 -2 23 -17 -8 -9 -27 -24 -44
-35 -21 -12 -25 -18 -12 -18 13 0 17 -8 17 -37 l0 -38 60 3 60 4 0 35 c0 30
-2 34 -21 28 -14 -5 -25 -1 -34 12 -14 17 -14 17 -15 0 0 -13 -6 -17 -22 -15
-29 4 -25 18 11 41 27 17 29 16 65 -8 20 -13 36 -20 36 -14 0 5 -16 19 -35 31
-42 24 -41 28 9 30 20 1 34 4 31 7 -9 8 -165 7 -165 -1z m130 -118 c0 -17 -7
-20 -50 -20 -43 0 -50 3 -50 20 0 17 7 20 50 20 43 0 50 -3 50 -20z"/>
<path d="M3807 550 c-3 -8 -8 -40 -10 -70 -2 -30 -7 -64 -11 -75 -7 -19 -7
-19 8 -1 16 19 31 110 24 142 -4 15 -6 16 -11 4z"/>
<path d="M3839 558 c-1 -5 -1 -73 0 -120 1 -39 4 -48 19 -47 10 0 12 3 5 6
-20 8 -16 80 5 92 16 10 16 10 0 11 -10 0 -18 7 -18 16 0 9 8 23 18 30 16 12
15 13 -5 14 -13 0 -23 -1 -24 -2z"/>
<path d="M4294 548 c3 -10 -2 -18 -12 -21 -9 -3 0 -5 20 -6 20 0 45 -4 55 -7
15 -5 15 -4 3 5 -9 5 -22 11 -30 13 -8 2 -21 10 -28 18 -12 13 -13 13 -8 -2z"/>
<path d="M1104 516 c-20 -41 -13 -95 16 -121 24 -22 25 -17 5 21 -19 36 -19
71 -1 107 8 15 11 27 5 27 -5 0 -17 -15 -25 -34z"/>
<path d="M1170 540 c0 -5 5 -10 10 -10 6 0 10 5 10 10 0 6 -4 10 -10 10 -5 0
-10 -4 -10 -10z"/>
<path d="M1274 528 c21 -29 20 -97 0 -128 -14 -22 -12 -22 10 3 18 20 26 39
26 65 0 38 -22 82 -41 82 -6 0 -3 -10 5 -22z"/>
<path d="M3435 540 l-60 -7 73 -1 c42 -1 72 2 72 8 0 6 -6 9 -12 8 -7 -1 -40
-4 -73 -8z"/>
<path d="M4037 537 c-3 -8 -1 -20 4 -28 7 -11 9 -9 9 8 0 12 6 24 13 26 7 4 6
6 -4 6 -9 1 -19 -5 -22 -12z"/>
<path d="M4089 536 c10 -12 9 -20 -4 -40 -9 -14 -15 -31 -12 -38 4 -8 6 -6 6
5 1 9 5 17 11 17 5 0 14 9 20 21 12 21 -1 49 -22 49 -6 0 -5 -6 1 -14z"/>
<path d="M1696 486 c-15 -32 -25 -60 -23 -62 3 -3 28 -4 56 -2 l51 3 -28 60
-28 60 -28 -59z m41 -21 l11 -35 -34 0 -34 0 17 35 c9 19 20 35 23 35 4 0 11
-16 17 -35z"/>
<path d="M1855 482 c-47 -66 -50 -72 -37 -72 5 0 14 11 20 25 14 30 42 33 42
5 0 -11 5 -20 10 -20 6 0 10 20 10 44 0 24 3 51 6 60 13 34 -13 13 -51 -42z
m30 -1 c-3 -6 -11 -11 -16 -11 -5 0 -4 6 3 14 14 16 24 13 13 -3z"/>
<path d="M1957 482 c-9 -32 -17 -60 -17 -63 0 -2 18 -3 40 -1 41 4 68 31 55
53 -4 5 -1 16 5 24 20 24 4 45 -32 45 -32 0 -34 -2 -51 -58z m67 39 c3 -5 -1
-14 -9 -21 -9 -8 -13 -21 -9 -36 4 -16 1 -26 -10 -30 -29 -11 -36 0 -20 31 8
17 15 31 15 33 -8 26 19 45 33 23z"/>
<path d="M2075 476 l-21 -63 46 0 c41 1 59 10 60 29 0 3 -13 0 -30 -8 -35 -18
-50 -12 -43 17 4 14 12 19 24 16 10 -3 20 2 23 10 9 23 7 25 -16 18 -17 -6
-20 -4 -15 10 4 9 7 19 7 21 0 10 49 3 53 -8 3 -8 6 -6 6 5 1 13 -7 17 -36 17
-38 0 -38 -1 -58 -64z"/>
<path d="M3902 490 c-18 -17 -28 -30 -22 -30 5 0 24 13 42 30 18 16 29 29 23
29 -5 0 -25 -13 -43 -29z"/>
<path d="M1168 465 c2 -25 9 -45 16 -45 7 0 10 16 8 45 -2 25 -9 45 -16 45 -7
0 -10 -16 -8 -45z"/>
<path d="M1218 465 c2 -25 9 -45 16 -45 7 0 10 16 8 45 -2 25 -9 45 -16 45 -7
0 -10 -16 -8 -45z"/>
<path d="M4290 500 c-24 -8 -23 -8 8 -9 17 -1 32 4 32 9 0 11 -5 11 -40 0z"/>
<path d="M2810 490 l-85 -6 88 -2 c52 -1 87 2 87 8 0 6 -1 9 -2 8 -2 -1 -41
-5 -88 -8z"/>
<path d="M5210 493 c0 -17 27 -46 33 -36 4 6 -2 18 -13 28 -11 10 -20 14 -20
8z"/>
<path d="M5790 493 c1 -35 50 -41 50 -6 0 15 -2 15 -15 -3 -13 -17 -14 -17
-15 -1 0 9 -4 17 -10 17 -5 0 -10 -3 -10 -7z"/>
<path d="M3435 480 l-50 -7 58 -1 c32 -1 57 2 57 8 0 6 -3 9 -7 8 -5 0 -30 -4
-58 -8z"/>
<path d="M4962 458 c-15 -42 -8 -47 11 -9 9 17 12 33 8 35 -4 3 -12 -9 -19
-26z"/>
<path d="M4313 473 c42 -4 47 -7 47 -29 0 -13 -4 -24 -10 -24 -5 0 -10 -5 -10
-10 0 -6 13 -4 30 5 31 16 41 29 15 19 -11 -5 -15 1 -15 20 0 25 -2 26 -52 24
l-53 -2 48 -3z"/>
<path d="M4635 470 c3 -5 8 -10 11 -10 2 0 4 5 4 10 0 6 -5 10 -11 10 -5 0 -7
-4 -4 -10z"/>
<path d="M5049 444 c10 -22 17 -30 19 -21 4 18 -15 57 -27 57 -5 0 -1 -16 8
-36z"/>
<path d="M3911 435 c-37 -41 -26 -48 13 -9 23 23 33 44 23 44 -2 0 -18 -16
-36 -35z"/>
<path d="M4280 419 c0 -24 3 -30 16 -25 9 3 20 6 25 6 5 0 9 11 9 25 0 20 -5
25 -25 25 -21 0 -25 -5 -25 -31z m38 3 c2 -7 -3 -12 -12 -12 -9 0 -16 7 -16
16 0 17 22 14 28 -4z"/>
<path d="M5556 419 c-11 -10 -16 -19 -12 -19 14 0 46 21 46 30 0 15 -13 11
-34 -11z"/>
<path d="M5640 431 c0 -4 11 -13 25 -19 14 -6 25 -8 25 -3 0 4 -11 13 -25 19
-14 6 -25 8 -25 3z"/>
<path d="M4060 416 c0 -9 5 -16 10 -16 6 0 10 4 10 9 0 6 -4 13 -10 16 -5 3
-10 -1 -10 -9z"/>
<path d="M3495 410 c-3 -5 3 -10 14 -10 12 0 21 5 21 10 0 6 -6 10 -14 10 -8
0 -18 -4 -21 -10z"/>
<path d="M3388 403 c17 -2 47 -2 65 0 17 2 3 4 -33 4 -36 0 -50 -2 -32 -4z"/>
<path d="M8435 280 c-3 -5 -2 -10 3 -10 5 0 14 -11 20 -25 12 -25 11 -25 -38
-25 l-51 0 16 30 c9 17 11 30 5 30 -5 0 -10 -4 -10 -9 0 -5 -11 -22 -24 -38
l-24 -29 35 4 c33 4 35 3 28 -19 -4 -13 -18 -34 -32 -47 -14 -13 -23 -26 -20
-29 10 -9 56 44 63 71 4 19 13 26 31 26 22 0 24 -4 21 -37 -3 -34 -6 -38 -28
-35 -22 2 -23 1 -7 -9 29 -18 46 -4 49 43 3 36 6 43 23 40 17 -2 15 1 -7 19
-16 11 -28 27 -28 34 0 18 -17 28 -25 15z"/>
<path d="M8150 260 c-28 -28 -27 -98 1 -134 25 -32 38 -27 15 6 -20 29 -21 97
0 126 19 27 11 29 -16 2z"/>
<path d="M8544 253 c20 -40 20 -76 0 -114 -22 -43 -10 -48 16 -8 26 42 22 102
-10 133 l-22 21 16 -32z"/>
<path d="M8206 253 c-5 -11 2 -24 20 -38 31 -25 28 -55 -6 -55 -11 0 -20 -4
-20 -10 0 -16 26 -12 50 8 28 23 21 68 -13 81 -22 9 -22 9 23 24 8 3 1 6 -16
6 -21 1 -34 -5 -38 -16z"/>
</g>
</svg>
