<?xml version="1.0" standalone="no"?>
<!DOCTYPE svg PUBLIC "-//W3C//DTD SVG 20010904//EN"
 "http://www.w3.org/TR/2001/REC-SVG-20010904/DTD/svg10.dtd">
<svg version="1.0" xmlns="http://www.w3.org/2000/svg"
 width="863.000000pt" height="656.000000pt" viewBox="0 0 863.000000 656.000000"
 preserveAspectRatio="xMidYMid meet">
<metadata>
Created by potrace 1.16, written by Peter Selinger 2001-2019
</metadata>
<g transform="translate(0.000000,656.000000) scale(0.100000,-0.100000)"
fill="#000000" stroke="none">
<path d="M81 6491 c-9 -6 -10 -11 -2 -15 15 -10 14 -89 -1 -104 -9 -9 -8 -12
7 -12 18 0 20 7 20 70 1 72 -1 76 -24 61z"/>
<path d="M163 6493 c-18 -7 -16 -21 3 -19 9 0 21 -7 27 -16 9 -13 7 -21 -6
-36 -23 -26 -21 -39 3 -17 48 43 27 110 -27 88z"/>
<path d="M665 6490 c-48 -4 -63 -7 -37 -8 l42 -2 2 -77 1 -78 6 60 c4 36 9 55
14 48 4 -7 17 -18 28 -23 33 -18 23 9 -11 28 -43 24 -38 42 10 42 22 0 40 5
40 10 0 6 -3 9 -7 8 -5 -1 -44 -5 -88 -8z"/>
<path d="M800 6490 c0 -5 7 -10 15 -10 8 0 15 5 15 10 0 6 -7 10 -15 10 -8 0
-15 -4 -15 -10z"/>
<path d="M895 6490 c-33 -4 -52 -7 -42 -8 27 -3 20 -22 -8 -22 -23 0 -25 -3
-25 -49 0 -27 -2 -55 -5 -63 -4 -10 11 -13 70 -13 l75 0 0 47 c0 25 3 53 6 62
5 13 -2 16 -41 16 -28 0 -44 4 -40 10 3 6 24 10 46 10 21 0 39 5 39 10 0 6 -3
9 -7 8 -5 -1 -35 -4 -68 -8z m-45 -90 c0 -27 -4 -50 -10 -50 -5 0 -10 23 -10
50 0 28 5 50 10 50 6 0 10 -22 10 -50z m50 35 c0 -8 -6 -15 -14 -15 -17 0 -28
14 -19 24 12 12 33 6 33 -9z m48 -38 c2 -37 0 -47 -12 -47 -12 0 -16 12 -16
51 0 66 24 62 28 -4z m-48 3 c0 -5 -9 -10 -21 -10 -11 0 -17 5 -14 10 3 6 13
10 21 10 8 0 14 -4 14 -10z m0 -35 c0 -8 -9 -15 -20 -15 -20 0 -26 11 -13 23
12 13 33 7 33 -8z"/>
<path d="M1037 6480 c-23 -28 -25 -142 -2 -134 12 5 13 10 4 20 -14 18 -4 44
17 44 12 0 15 -7 12 -30 -3 -17 -1 -33 4 -36 4 -3 8 13 8 35 0 23 4 41 8 41 5
0 14 11 20 25 13 29 5 33 -14 8 -13 -17 -14 -17 -8 0 3 9 1 17 -5 17 -6 0 -11
-11 -11 -25 0 -18 -5 -25 -20 -25 -24 0 -25 13 -4 46 21 31 14 40 -9 14z"/>
<path d="M1250 6480 c0 -11 -4 -20 -9 -20 -5 0 -7 -9 -4 -19 3 -10 -1 -30 -8
-42 -11 -22 -11 -23 4 -11 14 12 16 9 20 -30 3 -42 4 -41 5 10 1 33 6 51 12
47 6 -3 10 -2 10 4 0 5 -5 13 -10 16 -16 10 17 37 38 32 14 -4 14 -5 -3 -6
-17 -1 -18 -3 -5 -11 13 -9 13 -11 0 -20 -8 -5 -11 -10 -6 -10 5 0 1 -10 -10
-22 -10 -13 -12 -18 -5 -11 11 9 19 9 35 0 20 -11 19 -12 -14 -18 l-35 -6 32
-2 c24 -1 33 -6 36 -23 4 -23 4 -23 6 -1 1 16 9 23 29 26 l27 4 -27 2 c-16 0
-28 6 -28 12 0 8 11 9 32 5 31 -6 31 -6 13 14 -16 18 -16 20 -2 20 10 0 17 4
17 9 0 6 -16 7 -35 4 -23 -4 -35 -2 -35 6 0 6 11 11 24 11 13 0 27 7 30 16 8
22 9 22 -20 16 -19 -3 -25 -1 -20 7 4 6 3 11 -3 11 -5 0 -11 -4 -13 -8 -1 -5
-18 -12 -37 -15 -27 -6 -32 -4 -27 8 3 8 1 15 -4 15 -6 0 -10 -9 -10 -20z
m113 -17 c-7 -2 -19 -2 -25 0 -7 3 -2 5 12 5 14 0 19 -2 13 -5z m-33 -53 c0
-5 -7 -10 -16 -10 -8 0 -12 5 -9 10 3 6 10 10 16 10 5 0 9 -4 9 -10z m30 0 c0
-5 -4 -10 -10 -10 -5 0 -10 5 -10 10 0 6 5 10 10 10 6 0 10 -4 10 -10z"/>
<path d="M1486 6492 c-29 -3 -36 -6 -25 -13 12 -8 11 -12 -5 -24 -17 -13 -18
-15 -3 -15 22 0 21 -8 0 -33 -14 -16 -15 -19 -3 -15 8 2 19 14 25 26 13 29 25
28 25 -3 0 -14 5 -25 11 -25 5 0 7 -5 3 -11 -3 -6 -17 -9 -30 -6 -13 2 -24 0
-24 -4 0 -5 14 -9 32 -9 42 0 25 -17 -22 -23 -19 -2 4 -5 53 -5 48 -1 87 2 87
7 0 6 -15 7 -34 4 -19 -3 -36 -1 -40 6 -5 7 4 11 23 11 17 0 31 5 31 11 0 7
-10 9 -25 5 -18 -5 -25 -2 -25 9 0 8 -7 15 -15 15 -9 0 -15 9 -15 21 0 17 5
20 25 17 14 -3 25 -1 25 3 0 5 -11 11 -25 15 -29 7 -33 21 -7 26 30 6 -1 13
-42 10z m14 -28 c0 -8 -4 -12 -10 -9 -5 3 -10 10 -10 16 0 5 5 9 10 9 6 0 10
-7 10 -16z"/>
<path d="M1588 6448 c-4 -55 -3 -66 9 -54 9 8 10 106 2 106 -4 0 -9 -24 -11
-52z"/>
<path d="M1667 6488 c2 -5 13 -8 23 -8 10 0 21 -8 23 -17 4 -17 5 -17 6 0 1
12 9 17 29 16 15 0 21 -3 14 -6 -6 -2 -10 -9 -6 -14 8 -14 24 -11 24 6 0 8 7
15 15 15 8 0 15 -9 15 -20 0 -13 -7 -20 -20 -20 -11 0 -20 -4 -20 -10 0 -5
-15 -9 -32 -9 -24 1 -27 3 -10 6 12 2 22 9 22 15 0 5 -7 7 -16 4 -9 -3 -29 -6
-45 -6 -16 0 -29 -4 -29 -10 0 -5 7 -7 15 -4 12 5 15 -3 15 -35 0 -39 -13 -55
-23 -28 -3 6 -6 3 -6 -9 -1 -16 5 -20 36 -21 20 -1 31 2 25 6 -16 10 -1 27 30
33 19 4 25 1 21 -9 -3 -7 0 -13 6 -13 6 0 11 18 11 41 0 27 4 38 11 33 7 -4 9
-24 6 -50 -2 -25 -1 -47 4 -50 5 -3 9 34 9 83 l0 88 -79 0 c-44 0 -77 -3 -74
-7z m86 -95 c-3 -7 -12 -13 -20 -13 -9 0 -11 5 -7 13 5 8 2 8 -9 -2 -16 -12
-25 -2 -11 12 12 12 52 3 47 -10z"/>
<path d="M1883 6459 c3 -22 1 -41 -3 -44 -5 -3 -8 -14 -7 -25 1 -17 9 -20 44
-20 41 0 63 -13 43 -25 -5 -3 -10 -11 -10 -16 0 -6 13 -1 28 10 l29 20 23 -22
c19 -19 22 -19 16 -4 -3 10 -6 45 -6 77 0 53 -2 58 -20 53 -11 -3 -20 0 -20 6
0 6 11 11 25 11 14 0 25 3 25 8 0 4 -25 7 -55 7 -53 0 -61 -5 -56 -37 0 -5 -8
-8 -19 -8 -23 0 -23 22 0 31 9 4 5 8 -14 11 -28 6 -28 5 -23 -33z m107 11 c0
-5 -4 -10 -10 -10 -5 0 -10 -11 -10 -25 0 -14 -6 -25 -13 -25 -9 0 -12 11 -9
35 3 26 9 35 23 35 10 0 19 -4 19 -10z m35 -30 c-3 -5 -15 -10 -26 -10 -10 0
-19 5 -19 10 0 6 12 10 26 10 14 0 23 -4 19 -10z m-95 -20 c-6 -11 -8 -25 -5
-30 3 -6 2 -10 -3 -10 -5 0 -12 14 -14 30 -4 24 -1 30 14 30 16 0 17 -3 8 -20z
m95 -22 c-1 -15 -9 -24 -23 -26 -18 -3 -22 2 -22 22 0 21 5 26 23 26 18 0 23
-5 22 -22z"/>
<path d="M2617 6480 c3 -11 9 -23 14 -26 16 -9 10 -37 -6 -30 -8 3 -15 1 -15
-4 0 -6 6 -10 14 -10 9 0 14 -14 14 -46 1 -52 12 -75 12 -26 0 25 4 32 20 32
11 0 20 5 20 10 0 6 -7 10 -16 8 -10 -2 -19 3 -21 10 -3 7 4 12 16 12 12 0 21
5 21 10 0 6 -7 10 -16 8 -10 -2 -19 3 -21 10 -3 7 5 12 22 12 15 0 24 4 20 10
-3 6 -17 8 -30 6 -17 -3 -26 1 -30 15 -8 25 -25 25 -18 -1z"/>
<path d="M2660 6484 c0 -8 5 -12 10 -9 6 3 10 10 10 16 0 5 -4 9 -10 9 -5 0
-10 -7 -10 -16z"/>
<path d="M3030 6491 c0 -6 -17 -12 -37 -12 -24 -1 -29 -3 -15 -6 32 -6 28 -33
-5 -34 -16 -1 -21 -3 -11 -6 9 -2 18 -16 20 -31 2 -18 11 -28 28 -33 23 -6 22
-7 -10 -11 l-35 -5 33 -1 c17 -1 32 -7 32 -12 0 -7 -16 -9 -40 -6 -22 2 -40 0
-40 -5 0 -5 41 -9 91 -9 53 0 88 4 84 9 -3 5 -20 7 -39 4 -19 -3 -36 -1 -40 6
-5 7 4 11 26 12 l33 2 -35 7 c-31 7 -32 7 -7 9 23 1 27 5 27 31 0 23 4 30 20
30 11 0 20 5 20 11 0 7 -12 8 -32 4 l-33 -6 24 21 c15 13 18 20 9 20 -8 0 -23
-9 -33 -20 -21 -24 -41 -26 -48 -6 -4 10 2 16 20 18 24 3 25 4 10 17 -11 9
-17 10 -17 2z m46 -86 c0 -14 -6 -25 -13 -25 -7 0 -13 9 -13 20 0 11 -4 20
-10 20 -5 0 -10 -9 -10 -20 0 -13 -7 -20 -19 -20 -14 0 -17 6 -13 25 4 21 10
25 41 25 33 0 37 -3 37 -25z"/>
<path d="M1550 6474 c0 -8 5 -12 10 -9 6 3 10 10 10 16 0 5 -4 9 -10 9 -5 0
-10 -7 -10 -16z"/>
<path d="M2200 6480 c-12 -8 -11 -10 7 -10 12 0 25 5 28 10 8 13 -15 13 -35 0z"/>
<path d="M2536 6475 c19 -14 19 -14 0 -15 -26 0 -12 -13 16 -15 12 -1 24 -7
26 -13 2 -7 -5 -11 -19 -10 -15 2 -23 -3 -24 -17 -1 -11 -6 -28 -10 -37 -4
-11 -3 -18 4 -18 6 0 11 -8 12 -17 0 -11 3 -13 6 -5 2 6 15 12 28 12 18 0 22
4 18 20 -4 16 -2 19 13 14 16 -5 16 -4 4 5 -8 6 -25 11 -37 11 -13 0 -23 5
-23 10 0 6 12 10 26 10 15 0 23 4 19 10 -4 6 -2 16 3 23 7 8 6 18 -4 31 -12
17 -14 18 -14 3 0 -9 -4 -17 -10 -17 -5 0 -10 7 -10 15 0 9 -9 15 -22 15 -21
0 -21 0 -2 -15z m44 -110 c0 -8 -7 -15 -15 -15 -8 0 -15 7 -15 15 0 8 7 15 15
15 8 0 15 -7 15 -15z"/>
<path d="M2820 6415 c0 -71 -1 -75 -22 -75 -21 -1 -22 -1 -5 -11 11 -6 23 -7
27 -3 11 11 18 164 8 164 -5 0 -8 -34 -8 -75z"/>
<path d="M3188 6469 c-13 -14 -18 -36 -18 -81 0 -34 3 -58 7 -54 5 4 8 31 8
59 0 41 4 52 18 55 12 2 17 -3 17 -17 0 -12 -6 -21 -12 -21 -9 0 -9 -3 1 -9 8
-6 12 -19 9 -35 -3 -15 -1 -29 3 -32 5 -3 9 8 9 25 0 47 30 91 63 91 25 0 27
-3 27 -41 0 -52 -15 -80 -38 -72 -15 6 -15 5 -3 -10 7 -9 18 -17 22 -17 15 0
27 42 30 101 l3 54 -33 -3 c-28 -3 -33 -1 -28 12 4 9 2 16 -3 16 -4 0 -11 -13
-15 -30 -4 -16 -11 -30 -15 -30 -5 0 -7 7 -4 15 4 11 0 15 -16 15 -19 0 -20 2
-10 15 18 22 -2 17 -22 -6z"/>
<path d="M3403 6455 c-12 -19 -18 -35 -13 -35 6 0 15 9 22 20 7 11 23 20 35
20 22 0 23 -4 23 -77 1 -54 4 -73 10 -62 5 9 8 42 7 73 -3 43 0 59 12 66 12 7
4 9 -27 10 -26 0 -41 4 -37 10 3 6 3 10 -2 10 -4 -1 -18 -16 -30 -35z"/>
<path d="M3685 6478 c-8 -21 -31 -24 -38 -5 -4 10 -6 10 -6 0 -1 -7 -10 -13
-21 -13 -11 0 -20 -4 -20 -9 0 -4 22 -6 49 -3 30 2 51 0 55 -7 5 -7 -9 -11
-43 -11 l-51 0 0 -34 c0 -19 -4 -46 -10 -60 -5 -15 -6 -26 0 -26 5 0 14 25 20
55 11 54 12 55 46 55 41 0 56 -24 28 -45 -13 -9 -20 -10 -23 -3 -2 6 4 17 15
25 16 12 15 13 -17 13 -23 0 -30 -3 -20 -9 7 -5 9 -10 3 -12 -5 -2 -13 -15
-17 -29 -7 -24 -7 -24 9 -5 13 17 15 18 16 3 0 -9 -10 -24 -22 -32 -12 -9 -17
-16 -11 -16 7 0 28 13 46 30 39 34 58 29 25 -7 -12 -13 -16 -23 -10 -23 6 0
15 8 21 17 9 17 10 17 28 0 27 -23 33 -22 33 11 0 19 -3 23 -9 13 -14 -22 -23
6 -10 31 12 23 12 23 -10 4 -21 -19 -21 -19 -21 7 0 23 4 27 28 27 22 0 24 2
12 11 -11 8 -12 12 -3 16 10 3 10 8 -1 19 -16 16 -30 19 -22 5 3 -5 -2 -8 -12
-7 -9 0 -20 8 -23 16 -6 13 -8 12 -14 -2z"/>
<path d="M3845 6470 c-4 -11 -11 -18 -16 -15 -5 4 -9 -21 -9 -57 l0 -63 30 0
c24 0 31 5 36 28 3 16 4 31 1 33 -3 3 5 16 18 30 22 24 65 33 65 13 0 -5 5 -7
10 -4 21 13 9 25 -25 25 -26 0 -33 3 -29 15 4 8 2 15 -4 15 -5 0 -13 -16 -16
-35 -4 -19 -11 -35 -16 -35 -4 0 -6 10 -2 22 4 17 2 20 -13 15 -13 -5 -16 -3
-12 8 4 8 2 17 -3 20 -5 3 -11 -4 -15 -15z m23 -75 c1 -38 -2 -45 -18 -45 -23
0 -27 29 -8 48 9 9 9 12 0 12 -7 0 -12 7 -12 15 0 8 8 15 19 15 15 0 19 -8 19
-45z"/>
<path d="M4269 6445 c-9 -24 -12 -42 -8 -39 5 3 10 -19 11 -48 1 -32 3 -41 5
-23 2 17 13 37 25 44 17 11 20 11 16 -1 -3 -7 -2 -22 3 -33 5 -14 8 -7 8 27 1
25 4 53 7 62 10 26 27 18 20 -8 -5 -20 -2 -25 16 -28 30 -4 37 -38 9 -45 -28
-7 -27 -21 2 -19 18 1 23 8 28 44 5 41 5 43 -18 37 -18 -4 -23 -1 -23 14 0 14
8 21 28 24 22 3 20 4 -10 6 -29 1 -36 4 -32 16 4 8 2 15 -4 15 -5 0 -12 -7
-16 -15 -3 -8 -13 -15 -23 -16 -17 0 -17 -1 -1 -7 15 -6 16 -11 5 -31 -21 -42
-39 -39 -31 5 4 22 11 41 15 42 10 4 2 22 -9 22 -4 0 -14 -20 -23 -45z"/>
<path d="M4786 6475 c4 -11 -1 -15 -17 -16 l-24 0 23 -9 c36 -15 28 -72 -13
-83 -11 -2 22 -5 73 -6 62 -1 91 2 87 9 -4 6 -15 8 -26 5 -17 -6 -19 -1 -19
34 0 33 4 40 23 44 l22 4 -23 2 c-13 0 -21 5 -17 10 3 5 1 12 -5 16 -5 3 -10
-1 -10 -9 0 -11 -9 -16 -30 -16 -20 0 -30 5 -30 15 0 8 -4 15 -10 15 -5 0 -7
-7 -4 -15z m69 -35 c4 -6 -7 -10 -24 -10 -17 0 -31 5 -31 10 0 6 11 10 24 10
14 0 28 -4 31 -10z m0 -30 c4 -6 -7 -10 -24 -10 -17 0 -31 5 -31 10 0 6 11 10
24 10 14 0 28 -4 31 -10z m0 -30 c-3 -5 -17 -10 -31 -10 -13 0 -24 5 -24 10 0
6 14 10 31 10 17 0 28 -4 24 -10z"/>
<path d="M5040 6469 c0 -18 -5 -21 -34 -17 -33 4 -33 3 -33 -38 0 -40 1 -42
31 -40 29 1 31 -1 35 -39 l5 -40 5 40 c5 36 9 40 39 43 30 3 32 6 32 42 l0 39
-37 -6 c-31 -5 -35 -4 -30 10 3 9 2 19 -3 22 -6 4 -10 -4 -10 -16z m0 -54 c0
-20 -5 -25 -24 -25 -14 0 -28 5 -31 10 -12 19 4 40 30 40 20 0 25 -5 25 -25z
m70 0 c0 -21 -5 -25 -30 -25 -25 0 -30 4 -30 25 0 21 5 25 30 25 25 0 30 -4
30 -25z"/>
<path d="M2118 6473 c7 -3 16 -2 19 1 4 3 -2 6 -13 5 -11 0 -14 -3 -6 -6z"/>
<path d="M2158 6473 c7 -3 16 -2 19 1 4 3 -2 6 -13 5 -11 0 -14 -3 -6 -6z"/>
<path d="M4065 6447 c-28 -45 -28 -48 -14 -45 14 3 42 55 37 70 -2 4 -12 -7
-23 -25z"/>
<path d="M7575 6461 c5 -18 4 -22 -6 -16 -8 5 -11 5 -7 0 9 -10 88 -12 88 -2
0 4 -10 7 -22 7 -12 0 -30 8 -41 18 -19 16 -19 16 -12 -7z"/>
<path d="M1149 6463 c20 -4 22 -9 17 -34 -3 -16 -1 -29 4 -29 6 0 10 16 10 35
0 32 -2 35 -27 34 -26 -2 -26 -2 -4 -6z"/>
<path d="M5655 6462 c-5 -4 -10 -33 -10 -65 0 -44 3 -57 15 -57 12 0 14 11 12
48 -5 74 -6 82 -17 74z"/>
<path d="M5755 6462 c-15 -11 -13 -122 3 -122 8 0 11 19 10 65 -1 36 -2 65 -2
65 -1 0 -5 -4 -11 -8z"/>
<path d="M6004 6463 c15 -4 18 -12 13 -50 -2 -25 -14 -58 -26 -74 -24 -32 -28
-47 -8 -30 8 6 22 29 32 52 18 40 19 40 31 17 20 -34 17 -42 -18 -56 -17 -6
-29 -14 -26 -18 3 -3 21 2 38 11 26 13 38 15 57 6 38 -18 62 -12 25 6 l-32 16
20 34 c25 42 25 43 0 43 -23 0 -24 4 -10 31 10 18 7 19 -52 18 -35 -1 -55 -3
-44 -6z m76 -28 c-8 -21 -7 -25 10 -25 23 0 24 -4 10 -31 -16 -29 -40 -23 -46
11 -4 17 -10 30 -15 30 -5 0 -9 9 -9 20 0 16 7 20 30 20 27 0 29 -2 20 -25z"/>
<path d="M6387 6453 c-3 -10 -15 -33 -27 -50 l-22 -33 26 0 c19 0 26 -5 26
-20 0 -27 13 -25 27 5 6 14 7 25 2 25 -5 0 -9 20 -9 45 0 45 -13 60 -23 28z
m3 -48 c0 -16 -6 -25 -15 -25 -18 0 -19 4 -3 30 16 26 18 25 18 -5z"/>
<path d="M6664 6462 c3 -6 -3 -34 -14 -62 -11 -28 -18 -56 -15 -61 10 -16 51
-10 69 10 22 25 18 67 -7 65 -13 -1 -17 4 -15 24 2 14 -3 27 -11 30 -8 3 -11
0 -7 -6z m36 -81 c0 -22 -25 -45 -39 -37 -14 9 8 56 26 56 7 0 13 -8 13 -19z"/>
<path d="M6939 6463 c0 -5 0 -32 1 -62 1 -35 -3 -57 -12 -62 -9 -6 -5 -9 12
-9 25 0 25 1 22 70 -2 38 -8 70 -13 70 -5 0 -9 -3 -10 -7z"/>
<path d="M7022 6458 c-19 -19 -16 -117 4 -125 8 -3 21 0 27 7 9 10 9 11 0 6
-20 -11 -37 37 -29 79 10 50 30 39 37 -21 l6 -49 1 42 c3 67 -16 91 -46 61z"/>
<path d="M7663 6449 c-1 -12 -9 -29 -17 -38 -21 -23 -20 -42 2 -34 16 5 16 5
-1 -13 -11 -12 -20 -15 -25 -9 -4 6 -19 11 -34 12 -26 1 -28 -2 -28 -39 0 -31
3 -38 13 -31 6 5 25 8 41 7 15 -2 40 4 53 13 24 16 26 16 39 -2 8 -10 17 -15
21 -11 5 4 0 13 -10 20 -21 16 -21 25 0 48 14 15 14 18 1 18 -8 0 -21 -11 -28
-25 -14 -27 -58 -60 -67 -51 -3 3 15 26 41 51 25 26 43 52 39 58 -4 7 -10 3
-16 -11 -6 -12 -16 -22 -24 -22 -11 0 -10 6 5 28 10 15 17 33 15 40 -7 19 -19
14 -20 -9z m-53 -114 c0 -8 -6 -15 -14 -15 -17 0 -28 14 -19 24 12 12 33 6 33
-9z"/>
<path d="M7796 6455 c4 -10 1 -21 -7 -26 -10 -6 -11 -9 -1 -9 9 0 10 -10 6
-32 -6 -31 -7 -78 -1 -84 1 -1 14 0 30 3 22 4 27 11 27 34 0 22 -5 29 -19 29
-14 0 -19 7 -17 25 1 25 26 36 26 13 0 -7 5 -5 11 5 12 20 49 23 49 3 0 -8 -8
-17 -17 -19 -17 -4 -17 -5 0 -6 25 -2 21 -29 -5 -34 -23 -4 -23 -4 1 -6 18 -1
22 -6 18 -20 -2 -10 -1 -25 4 -32 6 -10 9 -4 9 19 0 26 4 32 21 32 11 0 18 4
14 10 -3 5 -12 7 -20 3 -9 -3 -15 1 -15 11 0 9 8 16 21 16 11 0 18 4 14 10 -3
5 -12 7 -20 3 -9 -3 -15 1 -15 11 0 9 8 16 20 16 11 0 20 5 20 11 0 6 -7 8
-16 5 -14 -5 -15 -4 -4 9 9 11 9 15 1 15 -6 0 -14 -7 -17 -15 -9 -21 -64 -20
-64 2 0 9 -3 13 -7 9 -5 -4 -8 -12 -8 -17 0 -5 -4 -9 -10 -9 -5 0 -10 5 -10
12 0 6 -6 13 -13 16 -8 2 -10 -2 -6 -13z m44 -109 c0 -20 -19 -31 -32 -18 -6
6 -7 15 -4 21 10 16 36 13 36 -3z"/>
<path d="M8075 6395 c-5 -60 -10 -75 -23 -75 -15 -1 -15 -2 1 -11 10 -6 22 -8
25 -4 9 9 19 165 11 165 -4 0 -10 -34 -14 -75z"/>
<path d="M8255 6460 c-33 -4 -36 -6 -17 -12 31 -9 28 -28 -5 -29 -25 -1 -24
-2 10 -11 26 -7 37 -15 37 -29 0 -10 -6 -19 -12 -19 -9 0 -9 -3 1 -9 11 -7 6
-11 -20 -14 l-34 -4 33 -1 c44 -3 41 -20 -5 -25 -21 -2 1 -4 50 -5 48 -1 87 2
87 7 0 5 -18 7 -40 4 -26 -4 -40 -2 -40 6 0 6 15 12 33 12 l32 2 -30 6 c-23 5
-31 12 -33 34 -3 20 1 27 13 27 13 0 16 -6 13 -25 -3 -14 -2 -25 3 -25 4 0 9
12 11 28 2 19 9 28 26 30 12 2 20 8 17 13 -4 5 -17 6 -31 3 -31 -8 -32 13 -1
25 19 7 17 9 -18 12 -22 2 -58 2 -80 -1z m63 -22 c-3 -7 -13 -13 -23 -13 -10
0 -20 6 -22 13 -3 7 5 12 22 12 17 0 25 -5 23 -12z"/>
<path d="M8450 6459 c0 -5 5 -7 10 -4 6 3 10 8 10 11 0 2 -4 4 -10 4 -5 0 -10
-5 -10 -11z"/>
<path d="M8502 6438 c-5 -18 -10 -25 -11 -15 -1 9 -6 17 -11 17 -6 0 -8 -11
-4 -25 5 -21 3 -25 -16 -25 -18 0 -21 4 -18 25 4 16 1 25 -8 25 -10 0 -13 -16
-11 -60 2 -61 17 -86 17 -29 0 24 4 30 18 27 11 -2 17 -13 17 -30 0 -14 3 -30
8 -34 4 -4 7 13 7 37 1 48 15 74 45 82 18 4 18 5 1 6 -12 1 -16 6 -12 16 3 8
2 15 -3 15 -4 0 -13 -15 -19 -32z"/>
<path d="M4150 6451 c0 -5 5 -13 10 -16 6 -4 7 -12 3 -18 -4 -7 -6 -20 -5 -29
5 -26 -17 -60 -34 -54 -8 3 -14 2 -14 -3 0 -5 9 -11 20 -14 24 -6 40 18 40 62
0 21 5 31 18 33 16 3 15 6 -10 26 -15 13 -28 19 -28 13z"/>
<path d="M7705 6450 c-3 -5 1 -10 10 -10 9 0 13 5 10 10 -3 6 -8 10 -10 10 -2
0 -7 -4 -10 -10z"/>
<path d="M2165 6440 c-47 -4 -63 -7 -38 -8 l42 -2 4 -57 3 -58 2 58 2 57 40 0
c22 0 40 5 40 10 0 6 -3 9 -7 8 -5 -1 -44 -5 -88 -8z"/>
<path d="M2754 6405 c-11 -25 -17 -45 -13 -45 5 0 18 19 29 42 23 47 23 48 13
48 -5 0 -17 -20 -29 -45z"/>
<path d="M8570 6393 c0 -64 -11 -90 -30 -78 -9 5 -11 4 -6 -3 11 -18 34 -14
40 6 13 45 18 132 7 132 -7 0 -11 -22 -11 -57z"/>
<path d="M2862 6435 c26 -61 34 -75 40 -75 15 0 7 25 -18 55 -14 17 -24 26
-22 20z"/>
<path d="M1122 6410 c7 -10 14 -18 15 -16 6 6 -9 36 -18 36 -5 0 -4 -9 3 -20z"/>
<path d="M2380 6420 l-85 -6 93 -2 c56 -1 92 2 92 8 0 6 -3 9 -7 8 -5 -1 -46
-5 -93 -8z"/>
<path d="M3418 6400 c-3 -16 -1 -30 4 -30 4 0 8 14 8 30 0 17 -2 30 -4 30 -2
0 -6 -13 -8 -30z"/>
<path d="M4542 6406 c1 -15 6 -26 10 -26 12 0 10 38 -2 45 -6 4 -9 -5 -8 -19z"/>
<path d="M5490 6425 c0 -3 17 -13 38 -22 l37 -16 -37 -16 c-42 -18 -53 -36
-12 -21 39 15 64 30 64 38 0 5 -17 14 -37 22 -21 8 -41 16 -45 18 -5 2 -8 1
-8 -3z"/>
<path d="M6528 6409 c-21 -11 -38 -23 -38 -27 0 -10 91 -55 97 -48 6 6 -57 46
-72 46 -5 1 7 8 28 17 20 8 37 19 37 24 0 13 -10 11 -52 -12z"/>
<path d="M6811 6406 l-44 -23 47 -28 c29 -17 51 -24 57 -18 6 6 -7 16 -33 28
l-41 18 36 15 c21 8 37 18 37 23 0 13 -10 11 -59 -15z"/>
<path d="M8014 6384 c-13 -28 -15 -39 -7 -32 20 17 44 66 35 72 -4 2 -17 -15
-28 -40z"/>
<path d="M3270 6415 c0 -18 19 -40 26 -32 4 4 0 15 -9 24 -9 10 -17 13 -17 8z"/>
<path d="M3970 6380 c0 -33 -4 -42 -22 -49 -21 -8 -22 -10 -4 -16 11 -5 21 -3
27 6 9 15 13 99 4 99 -3 0 -5 -18 -5 -40z"/>
<path d="M5362 6408 c-7 -7 -12 -24 -12 -39 0 -24 4 -27 35 -27 30 0 35 3 35
23 0 13 3 30 6 39 4 10 1 16 -10 16 -10 0 -13 -6 -9 -15 5 -16 -22 -55 -39
-55 -14 0 -9 32 9 52 18 20 4 25 -15 6z"/>
<path d="M7571 6410 c10 -7 49 -2 49 5 0 2 -14 3 -31 3 -17 -1 -25 -4 -18 -8z"/>
<path d="M8133 6382 c12 -22 25 -38 30 -35 10 6 -24 65 -40 70 -7 3 -2 -14 10
-35z"/>
<path d="M1661 6394 c0 -11 3 -14 6 -6 3 7 2 16 -1 19 -3 4 -6 -2 -5 -13z"/>
<path d="M2107 6377 l-19 -32 31 29 c35 33 36 36 19 36 -7 0 -21 -15 -31 -33z"/>
<path d="M2224 6383 c9 -18 21 -33 27 -33 13 0 -4 32 -27 51 -16 13 -16 12 0
-18z"/>
<path d="M3930 6390 c13 -23 20 -26 20 -6 0 8 -7 16 -15 20 -13 4 -14 2 -5
-14z"/>
<path d="M4091 6403 c3 -20 -3 -34 -27 -62 -15 -19 -20 -29 -11 -25 29 11 70
94 48 94 -6 0 -10 -3 -10 -7z"/>
<path d="M7267 6404 c-14 -15 -6 -34 14 -34 14 0 19 5 17 17 -3 18 -20 27 -31
17z m23 -14 c0 -5 -4 -10 -10 -10 -5 0 -10 5 -10 10 0 6 5 10 10 10 6 0 10 -4
10 -10z"/>
<path d="M7585 6390 l-30 -8 33 -1 c17 0 32 4 32 9 0 6 -1 9 -2 9 -2 -1 -16
-5 -33 -9z"/>
<path d="M8240 6375 c1 -26 2 -28 11 -12 8 14 8 22 0 30 -8 8 -11 3 -11 -18z"/>
<path d="M8520 6392 c0 -5 7 -15 15 -22 8 -7 15 -8 15 -2 0 5 -7 15 -15 22 -8
7 -15 8 -15 2z"/>
<path d="M145 6373 c-4 -11 4 -13 32 -11 20 2 38 8 40 13 5 16 -65 13 -72 -2z"/>
<path d="M1159 6370 c-3 -18 -9 -24 -23 -22 -17 3 -18 2 -6 -13 11 -14 15 -14
28 -2 7 8 12 25 10 38 l-4 24 -5 -25z"/>
<path d="M4361 6374 c0 -11 3 -14 6 -6 3 7 2 16 -1 19 -3 4 -6 -2 -5 -13z"/>
<path d="M250 6370 c0 -5 5 -10 10 -10 6 0 10 5 10 10 0 6 -4 10 -10 10 -5 0
-10 -4 -10 -10z"/>
<path d="M3538 6373 c7 -3 16 -2 19 1 4 3 -2 6 -13 5 -11 0 -14 -3 -6 -6z"/>
<path d="M1743 6345 c0 -8 9 -15 20 -15 16 0 17 3 7 15 -7 8 -16 15 -20 15 -3
0 -7 -7 -7 -15z"/>
<path d="M1871 6334 c0 -11 3 -14 6 -6 3 7 2 16 -1 19 -3 4 -6 -2 -5 -13z"/>
<path d="M4765 6329 c-16 -10 -25 -19 -19 -19 16 0 64 24 64 33 0 11 -12 7
-45 -14z"/>
<path d="M4860 6330 c33 -26 48 -26 25 0 -10 11 -25 20 -34 20 -12 0 -9 -6 9
-20z"/>
<path d="M611 6215 c-11 -19 -16 -35 -11 -35 5 0 12 9 15 20 8 25 65 29 65 5
0 -10 -10 -15 -29 -15 -24 0 -29 -5 -33 -30 -4 -25 -1 -30 16 -29 12 0 15 3 9
6 -7 2 -13 13 -13 24 0 14 7 19 25 19 18 0 25 -5 25 -20 0 -11 -6 -20 -12 -20
-9 0 -9 -3 1 -9 8 -5 12 -18 8 -30 -3 -12 -1 -24 4 -27 5 -3 9 9 9 25 0 30 2
31 42 31 23 0 38 3 34 7 -4 4 -22 6 -41 5 -33 -3 -34 -2 -33 38 0 37 2 40 29
40 16 0 29 4 29 8 0 5 -28 6 -61 4 -44 -3 -60 -1 -55 7 4 6 5 11 3 11 -3 0
-14 -16 -26 -35z"/>
<path d="M835 6240 c-3 -5 -1 -10 4 -10 6 0 11 5 11 10 0 6 -2 10 -4 10 -3 0
-8 -4 -11 -10z"/>
<path d="M880 6233 c0 -9 -13 -13 -40 -13 -22 0 -40 -3 -40 -8 0 -4 18 -6 41
-4 22 3 46 -1 52 -7 8 -8 -1 -11 -36 -11 -47 0 -47 0 -47 -34 0 -19 -5 -47
-11 -63 l-10 -28 30 33 c16 17 32 32 35 32 14 0 4 -23 -16 -41 l-23 -20 25 12
c14 6 33 21 42 33 9 11 20 17 24 13 4 -4 -3 -19 -17 -34 l-24 -27 28 18 c27
17 30 17 48 0 18 -16 19 -16 19 4 0 12 -6 21 -12 20 -7 -2 -11 4 -9 12 13 53
13 56 1 38 -15 -24 -30 -23 -30 2 0 15 7 20 25 20 14 0 25 5 25 10 0 6 -6 10
-12 10 -9 0 -8 4 2 10 11 7 5 10 -25 11 -38 1 -38 2 -10 8 l30 7 -32 5 c-23 4
-33 2 -33 -8z m-25 -63 c-16 -4 -23 -8 -15 -9 10 -1 11 -4 4 -9 -7 -4 -14 -16
-17 -27 -3 -12 -5 -4 -6 18 -1 36 0 37 32 36 l32 -1 -30 -8z m45 -19 c0 -5 -7
-11 -15 -15 -9 -3 -15 0 -15 9 0 8 7 15 15 15 8 0 15 -4 15 -9z"/>
<path d="M1020 6231 c-17 -19 -24 -141 -8 -141 5 0 8 15 6 33 -2 27 1 33 20
35 16 3 22 -2 22 -17 0 -11 -7 -24 -16 -29 -14 -8 -13 -10 5 -15 18 -4 21 -1
21 29 0 46 26 84 56 84 22 0 24 -4 24 -47 0 -53 -12 -79 -29 -69 -6 4 -11 3
-11 -2 0 -16 28 -22 38 -9 6 7 12 40 14 75 l4 62 -28 0 c-18 0 -28 5 -28 15 0
28 -17 15 -25 -17 -5 -23 -9 -27 -12 -15 -2 9 -9 17 -14 17 -5 0 -7 -11 -3
-25 5 -21 3 -25 -15 -25 -24 0 -27 17 -6 44 27 35 14 50 -15 17z"/>
<path d="M1280 6229 c0 -18 -5 -21 -30 -17 -29 4 -30 3 -30 -34 0 -35 2 -38
29 -38 27 0 30 -4 34 -37 l4 -38 1 38 c2 36 3 37 40 37 36 0 37 1 37 40 1 41
-5 45 -40 30 -19 -8 -19 -9 3 -9 17 -1 22 -7 22 -27 0 -22 -4 -25 -27 -22 -26
3 -28 6 -27 51 0 26 -3 47 -8 47 -4 0 -8 -10 -8 -21z m0 -54 c0 -20 -5 -25
-25 -25 -20 0 -25 5 -25 25 0 20 5 25 25 25 20 0 25 -5 25 -25z"/>
<path d="M1444 6233 c-3 -10 -11 -30 -18 -44 -13 -24 -12 -26 5 -22 11 3 19
12 19 19 0 15 16 19 23 7 3 -5 8 -29 12 -55 7 -44 6 -48 -13 -48 -11 0 -23 6
-25 13 -3 7 -6 5 -6 -5 -1 -16 9 -18 75 -18 48 0 73 4 69 10 -3 6 -17 7 -31 4
-23 -6 -25 -4 -18 22 11 46 22 72 34 79 17 10 2 24 -20 18 -13 -4 -27 1 -36
13 -14 17 -15 17 -10 2 4 -14 -1 -18 -24 -18 -32 0 -37 9 -18 28 9 9 9 12 0
12 -7 0 -15 -8 -18 -17z m96 -44 c0 -23 -23 -99 -30 -99 -4 0 -10 17 -14 38
-10 64 -8 72 19 72 14 0 25 -5 25 -11z"/>
<path d="M1648 6243 c-23 -6 -27 -22 -18 -68 4 -22 8 -32 9 -22 0 9 6 17 12
17 6 0 8 -7 5 -16 -3 -9 -6 -18 -6 -20 0 -2 -7 -4 -16 -4 -14 0 -14 -1 0 -16
9 -8 14 -19 12 -23 -7 -11 75 -11 95 -1 11 7 20 7 24 0 3 -5 11 -10 17 -10 7
0 6 5 -2 15 -14 17 -4 95 13 95 8 0 8 3 0 11 -14 14 -34 3 -27 -16 3 -7 1 -22
-4 -31 -9 -16 -11 -15 -22 6 -7 14 -8 25 -3 29 14 9 25 61 14 61 -5 0 -12 -13
-16 -30 -4 -16 -11 -33 -17 -36 -7 -5 -9 2 -4 20 5 22 2 28 -19 36 -15 6 -27
9 -28 9 -1 -1 -9 -3 -19 -6z m44 -85 c-7 -7 -12 -20 -12 -30 0 -10 -5 -18 -11
-18 -7 0 -8 7 -4 18 4 9 8 23 8 30 0 6 7 12 16 12 12 0 12 -3 3 -12z m43 -19
c9 -29 -19 -59 -37 -40 -11 10 -9 15 6 27 11 8 14 14 7 14 -7 0 -9 5 -6 10 10
16 23 11 30 -11z"/>
<path d="M1864 6238 c4 -12 0 -18 -12 -19 -11 -1 -8 -4 8 -9 14 -4 38 -5 54
-2 24 4 28 2 23 -11 -4 -11 -1 -17 8 -17 8 0 15 -7 15 -16 0 -14 -8 -16 -43
-12 -45 5 -45 5 -80 -49 -4 -7 -4 -13 1 -13 5 0 15 11 22 25 12 22 20 25 65
25 28 0 54 -3 57 -6 12 -12 -5 -43 -26 -46 -18 -3 -19 -4 -4 -10 11 -4 24 -1
33 8 18 19 21 75 3 72 -7 -2 -12 5 -10 15 2 10 -3 17 -12 17 -10 0 -13 6 -10
15 5 11 -2 15 -26 15 -24 0 -31 4 -26 15 3 8 1 15 -4 15 -6 0 -10 -8 -10 -17
0 -15 -2 -14 -16 3 -13 16 -15 16 -10 2z"/>
<path d="M2140 6217 c0 -9 10 -12 30 -9 l30 4 -14 -33 c-22 -55 -28 -79 -18
-79 8 0 15 19 42 103 8 26 8 27 -31 27 -26 0 -39 -4 -39 -13z"/>
<path d="M2300 6210 c-9 -17 -6 -24 17 -44 23 -20 25 -26 15 -39 -7 -8 -21
-13 -32 -10 -11 3 -20 0 -20 -6 0 -15 43 -14 58 1 20 20 15 66 -8 73 -11 3
-20 11 -20 16 0 5 9 9 20 9 11 0 20 5 20 10 0 18 -39 10 -50 -10z"/>
<path d="M718 6183 c7 -3 16 -2 19 1 4 3 -2 6 -13 5 -11 0 -14 -3 -6 -6z"/>
<path d="M1100 6174 c0 -5 7 -18 15 -28 12 -16 15 -17 15 -4 0 8 -7 21 -15 28
-8 7 -15 9 -15 4z"/>
<path d="M2487 6174 c-11 -11 5 -34 24 -34 12 0 19 7 19 20 0 19 -28 28 -43
14z m33 -14 c0 -5 -4 -10 -10 -10 -5 0 -10 5 -10 10 0 6 5 10 10 10 6 0 10 -4
10 -10z"/>
<path d="M1442 6140 c0 -14 2 -19 5 -12 2 6 2 18 0 25 -3 6 -5 1 -5 -13z"/>
<path d="M1902 6110 c0 -14 2 -19 5 -12 2 6 2 18 0 25 -3 6 -5 1 -5 -13z"/>
<path d="M1931 6114 c0 -11 3 -14 6 -6 3 7 2 16 -1 19 -3 4 -6 -2 -5 -13z"/>
<path d="M1870 6105 c-7 -9 -10 -18 -7 -21 3 -3 10 4 17 15 13 25 8 27 -10 6z"/>
<path d="M2240 6110 c0 -5 5 -10 10 -10 6 0 10 5 10 10 0 6 -4 10 -10 10 -5 0
-10 -4 -10 -10z"/>
<path d="M3763 5657 c6 -16 2 -18 -26 -16 -17 2 -38 8 -46 13 -11 8 -13 8 -8
-1 4 -7 0 -13 -10 -16 -10 -3 6 -5 35 -6 50 -1 52 -2 40 -21 -11 -17 -11 -22
0 -29 10 -6 10 -11 -3 -21 -10 -8 -19 -10 -23 -4 -4 5 -17 9 -29 10 -19 0 -23
-5 -23 -30 0 -29 2 -31 37 -30 21 0 49 6 62 14 21 11 26 10 38 -6 7 -9 16 -15
20 -11 3 4 -2 16 -12 27 -17 19 -17 21 0 40 35 38 4 20 -35 -21 -21 -23 -43
-38 -49 -35 -6 4 10 26 36 51 26 25 43 48 39 52 -4 5 -14 -1 -22 -11 -7 -11
-17 -17 -20 -13 -12 12 18 37 43 37 14 0 21 4 18 10 -4 6 -11 8 -16 4 -6 -3
-20 2 -31 13 -21 17 -21 17 -15 0z m-53 -122 c0 -8 -7 -15 -15 -15 -8 0 -15 7
-15 15 0 8 7 15 15 15 8 0 15 -7 15 -15z"/>
<path d="M3975 5653 c5 -17 2 -23 -9 -23 -9 0 -16 7 -16 15 0 8 -4 15 -10 15
-5 0 -10 -7 -10 -15 0 -8 -5 -15 -11 -15 -6 0 -9 7 -5 15 4 11 -1 15 -17 15
-18 0 -19 -2 -7 -11 12 -9 13 -12 1 -16 -11 -5 -11 -7 0 -15 12 -8 12 -10 0
-15 -9 -4 -10 -8 -2 -12 7 -5 6 -15 -4 -34 -7 -15 -10 -27 -4 -27 5 0 9 -6 9
-13 0 -9 10 -12 30 -9 25 4 30 9 30 33 0 22 -5 29 -19 29 -14 0 -19 7 -17 25
1 28 16 35 16 8 1 -17 2 -17 13 -1 15 19 42 27 42 13 0 -6 -3 -9 -7 -7 -5 1
-8 -2 -8 -8 0 -5 7 -10 15 -10 23 0 18 -19 -7 -30 l-23 -9 22 0 c16 -1 23 -8
26 -28 l4 -28 2 28 c1 20 6 27 21 27 11 0 20 5 20 11 0 6 -9 8 -20 4 -14 -5
-20 -2 -20 9 0 9 9 16 21 16 11 0 18 4 14 10 -3 5 -12 7 -20 3 -8 -3 -15 0
-15 6 0 6 9 11 20 11 11 0 20 5 20 11 0 6 -7 8 -17 4 -15 -5 -16 -4 -5 6 14
15 16 29 3 29 -5 0 -13 -10 -17 -22 l-6 -21 -20 24 c-19 24 -19 24 -13 2z
m-35 -107 c0 -8 -5 -18 -11 -22 -14 -8 -33 11 -25 25 10 16 36 13 36 -3z"/>
<path d="M4370 5662 c0 -7 -14 -12 -32 -12 l-33 0 25 -13 c14 -7 27 -9 28 -5
2 4 15 8 28 8 14 0 22 -4 19 -10 -8 -14 -2 -13 31 5 l29 15 -35 0 c-20 0 -41
5 -48 12 -9 9 -12 9 -12 0z"/>
<path d="M4601 5663 c0 -6 -4 -18 -7 -27 -5 -12 1 -14 30 -9 l36 6 0 -49 c0
-59 -10 -77 -35 -68 -13 5 -16 4 -11 -4 4 -7 16 -12 26 -12 22 0 27 17 32 93
3 47 3 47 -29 47 -22 0 -33 5 -36 18 -3 9 -5 12 -6 5z"/>
<path d="M4733 5635 c-12 -19 -19 -35 -14 -35 12 0 51 45 51 58 0 21 -14 12
-37 -23z"/>
<path d="M5008 5652 c-7 -26 -28 -30 -28 -4 -1 16 -1 16 -14 0 -7 -10 -17 -18
-22 -18 -5 0 -8 -20 -6 -44 2 -24 -1 -53 -7 -65 -7 -12 -9 -21 -5 -21 10 0 54
49 54 61 0 16 -18 10 -23 -8 -3 -10 -5 -3 -6 15 -1 30 1 32 32 31 l32 -1 -30
-8 c-16 -4 -22 -8 -12 -9 27 -2 23 -59 -5 -71 -18 -7 -19 -9 -5 -9 18 -1 67
44 67 60 0 14 -18 11 -23 -3 -3 -8 -6 -6 -6 5 -1 11 6 17 19 17 25 0 27 -36 3
-62 -18 -20 -4 -25 15 -6 9 9 15 9 24 0 19 -19 34 -14 35 10 2 16 0 19 -6 9
-5 -7 -14 -10 -20 -7 -8 5 -6 16 4 37 9 16 12 29 7 29 -5 0 -13 -10 -19 -22
-10 -22 -10 -22 -15 5 -5 24 -2 27 23 27 22 0 29 5 29 19 0 16 -6 19 -42 15
-37 -3 -39 -2 -13 5 l30 9 -27 1 c-14 0 -28 7 -30 13 -3 7 -7 2 -10 -10z m5
-39 c-13 -2 -33 -2 -45 0 -13 2 -3 4 22 4 25 0 35 -2 23 -4z"/>
<path d="M4170 5590 c0 -57 -3 -70 -16 -70 -8 0 -12 -4 -9 -10 3 -5 12 -10 20
-10 10 0 14 21 17 80 2 44 0 80 -4 80 -5 0 -8 -31 -8 -70z"/>
<path d="M4527 5640 c-11 -14 -17 -37 -17 -73 0 -51 0 -52 30 -52 28 0 30 3
30 37 0 20 5 40 10 43 6 3 10 11 10 16 0 6 -4 7 -10 4 -6 -4 -7 1 -3 11 5 13
2 15 -15 10 -17 -6 -21 -4 -16 8 8 22 2 20 -19 -4z m33 -35 c0 -8 -9 -15 -20
-15 -11 0 -20 7 -20 15 0 8 9 15 20 15 11 0 20 -7 20 -15z m0 -51 c0 -33 -33
-30 -38 4 -3 17 2 22 17 22 16 0 21 -6 21 -26z"/>
<path d="M5157 5640 c-11 -14 -17 -37 -17 -73 0 -51 0 -52 30 -52 27 0 30 3
30 33 0 42 26 82 54 83 14 0 16 2 6 6 -8 3 -18 11 -22 17 -4 6 -12 -2 -19 -19
-9 -22 -13 -26 -16 -13 -3 10 -10 15 -19 11 -10 -4 -12 0 -8 11 8 22 2 20 -19
-4z m33 -35 c0 -8 -9 -15 -20 -15 -11 0 -20 7 -20 15 0 8 9 15 20 15 11 0 20
-7 20 -15z m0 -50 c0 -18 -5 -25 -20 -25 -15 0 -20 7 -20 25 0 18 5 25 20 25
15 0 20 -7 20 -25z"/>
<path d="M5450 5638 c30 -32 25 -38 -32 -38 l-51 0 23 25 c13 14 19 25 14 25
-9 0 -45 -35 -57 -56 -4 -7 4 -9 24 -6 24 3 29 1 29 -15 0 -11 -11 -32 -25
-47 -26 -28 -22 -34 8 -12 10 8 22 27 26 43 8 29 38 44 51 24 3 -6 4 -25 2
-42 -4 -25 -8 -29 -26 -24 -17 5 -18 4 -6 -4 28 -20 39 -11 45 33 6 36 12 46
29 48 19 3 18 5 -11 21 -18 10 -33 24 -33 32 0 8 -7 15 -15 15 -13 0 -12 -4 5
-22z"/>
<path d="M5580 5642 c0 -10 -8 -28 -17 -41 -9 -14 -11 -21 -5 -17 9 5 12 -8
13 -46 1 -34 4 -42 6 -23 3 17 12 38 21 49 16 18 17 17 23 -20 l6 -39 2 43 c2
60 24 50 32 -14 l6 -49 1 53 c2 39 6 52 17 52 10 0 15 -10 15 -30 0 -16 -5
-30 -11 -30 -5 0 -7 -5 -4 -10 12 -20 25 1 25 41 0 33 -3 39 -21 39 -11 0 -17
5 -14 10 3 6 15 10 26 10 10 0 19 4 19 9 0 6 -16 7 -37 4 -31 -5 -35 -4 -30
10 4 10 2 17 -2 17 -5 0 -11 -7 -15 -15 -3 -8 -13 -15 -23 -16 -16 0 -16 -1 1
-8 19 -7 18 -9 -5 -32 -21 -21 -24 -22 -27 -6 -2 9 3 30 12 47 12 26 12 30 0
30 -8 0 -14 -8 -14 -18z m80 -33 c0 -5 -7 -9 -15 -9 -9 0 -12 6 -9 15 6 15 24
11 24 -6z"/>
<path d="M4788 5643 c22 -9 12 -32 -15 -35 -20 -2 -27 -8 -25 -21 2 -10 -6
-21 -20 -27 -19 -7 -15 -9 25 -9 46 -1 47 -2 47 -33 0 -43 14 -25 19 25 1 4
17 7 36 7 19 0 35 4 35 9 0 6 -16 7 -35 4 -31 -5 -35 -3 -35 16 0 16 6 21 26
21 15 0 23 4 19 10 -4 6 -16 8 -27 4 -18 -5 -20 -3 -15 15 4 18 1 21 -21 20
-15 0 -21 -3 -14 -6z m12 -63 c0 -13 -7 -20 -20 -20 -13 0 -20 7 -20 20 0 13
7 20 20 20 13 0 20 -7 20 -20z"/>
<path d="M4850 5646 c0 -2 7 -6 15 -10 8 -3 15 -1 15 4 0 6 -7 10 -15 10 -8 0
-15 -2 -15 -4z"/>
<path d="M5287 5596 c6 -49 -11 -90 -33 -82 -9 3 -12 1 -9 -4 14 -22 43 -10
49 21 9 46 7 109 -3 109 -5 0 -6 -20 -4 -44z"/>
<path d="M3683 5613 c9 -2 23 -2 30 0 6 3 -1 5 -18 5 -16 0 -22 -2 -12 -5z"/>
<path d="M4102 5574 c-12 -25 -18 -43 -13 -40 13 9 52 86 43 86 -4 0 -18 -21
-30 -46z"/>
<path d="M4210 5613 c0 -7 5 -15 11 -18 5 -4 15 -19 21 -33 10 -23 12 -24 16
-8 2 11 -6 29 -22 45 -14 14 -26 20 -26 14z"/>
<path d="M4328 5583 c3 -25 9 -33 26 -34 13 -1 7 -5 -14 -9 l-35 -7 33 -2 c44
-1 41 -19 -5 -24 -21 -2 1 -4 50 -5 48 -1 87 2 87 7 0 5 -18 7 -40 4 -26 -4
-40 -2 -40 6 0 6 15 12 33 12 l32 2 -35 7 c-31 7 -32 7 -7 9 24 1 27 5 27 34
l0 32 -58 0 -57 0 3 -32z m39 11 c-3 -3 -12 -4 -19 -1 -8 3 -5 6 6 6 11 1 17
-2 13 -5z m50 0 c-3 -3 -12 -4 -19 -1 -8 3 -5 6 6 6 11 1 17 -2 13 -5z m-47
-24 c0 -5 -7 -10 -15 -10 -8 0 -15 5 -15 10 0 6 7 10 15 10 8 0 15 -4 15 -10z
m50 0 c0 -5 -7 -10 -15 -10 -8 0 -15 5 -15 10 0 6 7 10 15 10 8 0 15 -4 15
-10z"/>
<path d="M3685 5590 c-18 -8 -17 -9 8 -9 15 -1 27 4 27 9 0 12 -8 12 -35 0z"/>
<path d="M4612 5580 c13 -20 28 -27 28 -12 0 10 -22 32 -32 32 -5 0 -3 -9 4
-20z"/>
<path d="M5241 5583 c7 -10 15 -20 16 -22 2 -2 3 3 3 11 0 9 -7 19 -16 22 -15
6 -15 4 -3 -11z"/>
<path d="M2146 4708 c-3 -288 -7 -767 -9 -1066 l-2 -542 940 0 c517 -1 1068
-3 1225 -5 157 -3 878 -7 1603 -9 l1317 -5 0 592 c0 326 3 805 7 1065 l6 472
-559 0 c-307 0 -651 3 -764 5 -113 3 -1004 7 -1981 10 l-1777 5 -6 -522z
m2161 497 c1063 -4 1979 -8 2035 -10 57 -3 276 -4 487 -5 l384 0 -6 -997 c-4
-549 -7 -1019 -7 -1045 l0 -48 -230 0 -230 0 -1 23 c0 12 0 82 0 155 1 84 -2
132 -9 132 -5 0 -10 -11 -10 -25 0 -16 -6 -25 -15 -25 -8 0 -15 -4 -15 -8 0
-5 -54 -63 -119 -130 -77 -79 -127 -122 -140 -122 -12 0 -21 2 -21 4 0 2 52
57 115 122 64 66 119 122 123 127 4 4 22 20 40 36 33 30 39 41 22 41 -9 0 -58
-48 -248 -244 -46 -47 -87 -86 -93 -86 -22 0 -5 31 42 79 28 28 47 55 44 61
-4 6 -25 -10 -51 -37 -39 -42 -44 -45 -44 -25 0 25 18 46 167 197 103 104 130
126 148 119 8 -3 -32 -51 -101 -121 -63 -63 -114 -119 -114 -124 0 -15 12 -10
32 14 33 37 93 99 165 167 l68 65 6 -40 6 -40 2 48 1 47 -194 0 c-146 0 -195
-3 -199 -12 -2 -7 -4 -94 -5 -193 0 -99 -1 -186 -1 -193 -1 -10 -56 -12 -258
-10 l-258 3 3 518 3 517 -195 0 -196 0 -1 -57 c-1 -32 -5 -264 -8 -516 l-6
-459 -275 2 c-151 0 -276 3 -278 5 -2 2 -3 287 -2 634 l1 630 -195 1 c-165 0
-195 -3 -200 -16 -3 -8 -5 -86 -4 -172 0 -86 0 -365 0 -620 l-2 -462 -267 2
-268 3 4 758 4 757 -202 0 -201 0 -2 -592 c-1 -326 -3 -638 -4 -693 -1 -55 -3
-131 -3 -168 l-1 -68 -237 5 c-131 2 -248 5 -260 5 l-23 1 0 630 0 630 -184 0
-184 0 -6 -72 c-3 -40 -5 -80 -4 -88 0 -8 0 -259 0 -558 l-2 -542 -237 2 -238
3 0 330 c0 795 7 1753 12 1758 3 3 51 4 107 2 55 -2 970 -7 2033 -10z m-706
-597 c16 -10 23 -10 26 -2 2 7 13 10 24 7 17 -5 13 -12 -33 -59 -29 -29 -56
-54 -60 -54 -18 0 -6 40 17 61 26 25 35 50 10 29 -17 -14 -36 -5 -28 15 6 18
17 19 44 3z m104 -40 c-26 -24 -68 -65 -94 -91 -38 -38 -50 -45 -54 -33 -10
25 133 166 167 166 26 0 25 -1 -19 -42z m14 -58 c-57 -55 -113 -109 -124 -120
-25 -24 -35 -25 -35 -3 0 9 42 56 93 104 50 49 99 95 107 104 8 8 25 15 39 15
21 0 9 -15 -80 -100z m188 94 c29 -8 22 -37 -18 -75 -17 -16 -29 -32 -26 -35
3 -3 16 4 29 16 l23 21 3 -28 c2 -15 -2 -29 -8 -31 -7 -3 -52 -44 -100 -92
-49 -49 -91 -86 -94 -83 -3 4 -6 1 -6 -5 0 -7 -20 -31 -45 -54 -67 -63 -69
-66 -83 -83 -17 -19 -32 -19 -32 1 0 8 20 36 45 61 25 24 43 48 40 53 -3 5
-22 -8 -42 -28 -33 -31 -38 -34 -41 -18 -3 14 46 69 173 193 98 95 175 176
172 179 -5 6 -78 -61 -243 -225 -52 -51 -98 -91 -100 -88 -14 13 12 52 76 115
222 218 224 220 277 206z m-17 -221 c-17 -15 -93 -90 -170 -165 -76 -76 -144
-138 -150 -138 -6 0 -8 -4 -5 -10 3 -5 1 -10 -4 -10 -6 0 -11 9 -11 20 0 12
50 68 131 147 72 71 154 152 183 181 49 51 51 52 54 28 2 -18 -6 -33 -28 -53z
m32 -27 c-4 -24 -372 -385 -372 -365 0 23 52 94 98 133 7 6 67 66 135 133 116
116 146 137 139 99z m-1245 -3 c-9 -9 -19 -14 -23 -11 -10 10 6 28 24 28 15 0
15 -1 -1 -17z m83 14 c0 -2 -20 -24 -45 -50 -46 -48 -65 -58 -65 -32 0 21 67
85 90 85 11 0 20 -1 20 -3z m39 -39 c-24 -24 -68 -68 -96 -98 -49 -51 -53 -53
-53 -29 0 36 133 169 169 169 23 0 22 -2 -20 -42z m95 20 c-10 -13 -27 -29
-37 -36 -10 -8 -23 -20 -30 -28 -17 -20 -131 -136 -156 -158 -21 -19 -21 -19
-21 3 0 30 212 241 242 241 21 0 21 0 2 -22z m102 10 c4 -7 3 -8 -4 -4 -7 4
-74 -56 -166 -149 -86 -85 -160 -155 -166 -155 -30 0 4 44 136 175 144 143
179 167 200 133z m1524 -12 c0 -8 -7 -16 -15 -20 -10 -4 -15 1 -15 14 0 11 7
20 15 20 8 0 15 -6 15 -14z m70 4 c0 -6 -21 -31 -46 -56 -26 -25 -43 -48 -40
-52 4 -3 34 22 66 56 35 35 69 62 80 62 11 0 20 -3 20 -7 0 -5 -40 -48 -89
-96 l-89 -88 0 61 c0 56 3 64 34 96 34 33 64 45 64 24z m110 -46 c-92 -96
-202 -204 -206 -204 -2 0 -4 9 -4 21 0 31 208 238 240 239 22 0 20 -5 -30 -56z
m138 50 c19 -6 22 -13 22 -59 l0 -53 -185 -185 c-154 -155 -185 -181 -185
-161 0 19 43 69 180 207 156 157 192 197 177 197 -10 0 -314 -310 -309 -314 3
-3 0 -6 -6 -6 -6 0 -18 -7 -26 -16 -15 -14 -16 -14 -16 5 0 25 30 58 208 237
74 74 132 137 129 141 -4 3 -81 -69 -172 -161 -135 -137 -165 -163 -165 -143
0 21 49 78 139 162 6 6 42 43 80 83 69 71 83 78 129 66z m-1838 -39 c0 -14 -4
-25 -9 -25 -7 0 -214 -203 -278 -272 -6 -7 -23 -24 -37 -37 l-26 -23 0 22 c0
13 12 35 28 51 15 15 32 34 38 41 6 7 34 34 63 61 29 26 50 47 46 47 -3 0 11
15 32 33 58 49 82 74 77 79 -2 3 7 11 21 18 14 7 25 17 25 22 0 4 5 8 10 8 6
0 10 -11 10 -25z m920 -35 c0 -16 -4 -30 -10 -30 -5 0 -50 -41 -100 -91 -49
-50 -90 -87 -90 -82 -1 4 -7 -4 -15 -19 -8 -15 -24 -29 -35 -33 -11 -3 -20
-10 -20 -14 0 -8 -89 -101 -96 -101 -2 0 -4 9 -4 20 0 14 54 74 150 168 82 81
155 152 162 158 7 6 20 21 28 33 20 29 30 26 30 -9z m-920 -46 c0 -21 -4 -33
-10 -29 -6 4 -73 -56 -149 -132 -76 -76 -150 -149 -164 -162 l-27 -24 0 21 c0
15 54 76 170 192 93 94 172 170 175 170 3 0 5 -16 5 -36z m898 -64 c-18 -15
-102 -95 -185 -179 -84 -83 -155 -151 -158 -151 -3 0 -5 9 -5 20 0 12 27 46
67 83 36 34 71 68 77 75 6 7 35 36 65 65 29 29 76 76 104 105 49 49 52 51 60
30 6 -17 1 -27 -25 -48z m962 -31 c0 -42 -4 -68 -10 -64 -5 3 -57 -43 -115
-102 -123 -126 -104 -108 -182 -184 -55 -52 -63 -57 -63 -37 0 16 32 54 103
124 152 150 259 265 253 271 -3 3 -84 -74 -180 -171 -129 -129 -176 -171 -176
-155 0 23 59 99 78 99 6 0 12 4 12 9 0 10 265 281 274 281 3 0 6 -32 6 -71z
m-1860 26 c0 -14 -5 -25 -10 -25 -6 0 -82 -72 -169 -160 -88 -88 -162 -160
-165 -160 -3 0 -6 8 -6 18 0 9 31 49 70 87 38 39 75 76 82 83 7 8 42 41 77 75
35 34 73 72 84 85 27 29 37 28 37 -3z m922 -22 c2 -12 -38 -59 -115 -135 -65
-65 -122 -118 -125 -118 -4 0 -18 -14 -32 -32 -14 -17 -31 -36 -38 -42 -7 -6
-24 -21 -37 -34 l-25 -23 0 22 c0 15 55 77 178 200 97 97 180 178 184 178 3 1
8 -7 10 -16z m1562 -27 c-7 -19 -34 -29 -34 -12 0 16 10 26 26 26 8 0 11 -6 8
-14z m29 -46 c-31 -33 -58 -60 -60 -60 -2 0 -3 11 -3 24 0 31 66 96 98 96 19
0 15 -8 -35 -60z m127 56 c0 -3 -43 -48 -95 -101 -83 -83 -95 -93 -95 -71 0
33 136 176 168 176 12 0 22 -2 22 -4z m70 -1 c0 -3 -31 -37 -70 -76 -38 -39
-70 -75 -70 -81 0 -6 -3 -9 -6 -5 -3 3 -30 -20 -60 -51 -49 -52 -53 -55 -54
-32 0 14 11 37 25 50 14 14 44 45 68 69 23 25 57 58 76 75 18 17 38 36 45 43
11 12 46 18 46 8z m18 -61 c-73 -77 -201 -206 -247 -248 -30 -29 -31 -29 -31
-8 0 15 32 55 93 116 150 153 177 180 190 193 6 7 22 12 35 13 19 0 13 -10
-40 -66z m-2728 25 c0 -20 -4 -29 -12 -27 -12 4 -38 -14 -38 -26 0 -5 -84 -90
-229 -229 -64 -62 -71 -66 -71 -43 0 14 7 31 16 38 8 7 83 81 167 165 84 83
155 152 160 152 4 1 7 -13 7 -30z m2810 0 c0 -13 -55 -75 -156 -176 -115 -113
-153 -158 -145 -166 7 -7 11 -7 11 -1 0 6 23 33 50 61 28 28 50 48 50 45 0 -2
9 7 20 21 37 47 88 96 94 90 3 -4 6 -1 6 5 0 7 15 26 33 43 l32 31 3 -61 c3
-59 2 -61 -35 -95 -21 -19 -102 -98 -180 -176 -112 -111 -143 -137 -143 -119
0 15 53 75 175 196 152 152 189 193 171 193 -2 0 -81 -77 -175 -171 -136 -135
-171 -165 -171 -147 0 13 12 36 26 51 14 16 23 31 19 35 -4 4 -15 -4 -26 -17
l-19 -23 0 25 c0 18 43 68 173 200 94 97 175 176 180 176 4 1 7 -8 7 -20z
m-1885 -28 c2 -13 -3 -25 -16 -31 -10 -6 -68 -60 -128 -120 -59 -61 -113 -110
-120 -110 -6 0 -11 -4 -11 -10 0 -5 -21 -30 -47 -56 -44 -43 -48 -45 -51 -24
-3 17 12 37 62 84 80 74 88 82 102 98 7 7 46 47 88 88 42 41 84 83 93 92 19
20 22 19 28 -11z m935 -146 c0 -106 -3 -135 -13 -135 -15 0 -217 -198 -217
-212 0 -4 -4 -8 -10 -8 -5 0 -34 -26 -65 -57 -49 -52 -64 -73 -50 -73 2 0 81
77 176 170 94 94 174 169 176 166 9 -9 -10 -506 -19 -506 -13 0 -144 -131
-141 -142 2 -4 -11 -8 -27 -8 -17 0 -30 1 -30 3 0 2 45 49 100 105 55 56 100
106 100 112 0 13 -17 13 -22 0 -9 -25 -210 -220 -228 -220 -11 0 -20 3 -20 6
0 3 61 67 135 141 74 75 135 141 135 146 0 15 -38 -20 -181 -166 -101 -103
-130 -128 -149 -125 -21 3 -18 8 40 63 35 33 72 70 84 82 12 12 63 66 115 118
51 53 91 99 88 102 -5 4 -102 -82 -141 -124 -6 -7 -56 -59 -110 -114 -92 -94
-125 -114 -96 -58 10 17 9 23 -1 30 -22 13 17 78 80 133 35 31 281 278 281
282 0 18 -43 -20 -189 -166 -94 -93 -173 -170 -176 -170 -9 0 -5 36 6 47 8 8
7 17 -2 32 -10 15 -11 23 -2 32 6 6 9 26 6 45 -5 33 0 40 176 215 160 159 195
199 176 199 -3 0 -83 -79 -179 -175 l-174 -175 0 61 0 62 144 141 c80 77 150
147 157 153 6 7 23 24 36 38 14 13 22 28 18 31 -7 8 -183 -154 -186 -169 0 -5
-17 -23 -38 -40 -20 -18 -58 -54 -84 -82 -43 -44 -49 -47 -49 -27 0 16 50 73
173 197 94 95 178 174 185 174 9 1 12 -32 12 -134z m-2031 -75 c-89 -88 -166
-160 -170 -160 -29 0 9 47 159 195 134 134 168 163 170 146 2 -15 -38 -61
-159 -181z m1091 150 c0 -11 -14 -33 -30 -48 -17 -15 -98 -93 -180 -174 -83
-82 -152 -148 -155 -148 -3 0 -5 9 -5 21 0 12 26 45 66 82 36 34 115 112 177
173 62 62 115 112 120 113 4 1 7 -8 7 -19z m-928 -49 c2 -17 1 -28 -3 -26 -3
3 -79 -67 -168 -155 -89 -88 -164 -160 -166 -160 -3 0 -5 9 -5 20 0 12 29 48
70 87 39 38 115 112 168 165 53 54 98 98 98 98 1 0 4 -13 6 -29z m854 -113
c-290 -285 -296 -290 -296 -266 0 27 -7 19 205 224 127 123 161 151 163 136 2
-14 -20 -43 -72 -94z m-850 14 l-3 -58 -153 -152 c-84 -83 -151 -155 -147
-158 3 -3 39 26 79 66 40 39 106 104 146 143 l72 71 0 -34 c0 -18 -3 -31 -6
-28 -3 3 -80 -68 -171 -159 -91 -90 -167 -162 -170 -159 -8 8 6 41 28 64 11
12 17 27 14 33 -4 6 -12 3 -21 -8 -13 -17 -13 -17 -14 5 0 18 45 68 172 193
94 93 169 171 166 175 -7 6 -39 -20 -91 -75 -18 -18 -43 -43 -56 -55 -13 -11
-61 -59 -107 -104 -83 -83 -84 -83 -84 -53 0 17 4 31 8 31 5 0 38 30 73 66 35
36 70 71 77 77 7 7 51 49 98 95 47 45 87 82 89 82 1 0 2 -26 1 -58z m2814 28
c0 -15 -140 -164 -222 -236 -7 -6 -33 -34 -58 -62 -25 -28 -48 -48 -51 -46 -8
5 -22 -27 -15 -34 3 -2 81 71 173 164 l168 168 3 -59 3 -58 -180 -180 c-145
-144 -181 -175 -181 -156 1 24 21 59 35 59 4 0 16 10 27 23 11 12 80 84 155
159 75 76 134 141 130 144 -3 3 -82 -71 -175 -165 l-170 -170 0 61 0 61 172
173 c94 95 174 173 179 173 4 1 7 -8 7 -19z m-1887 -30 c3 -14 -1 -24 -14 -31
-11 -6 -69 -58 -129 -117 -60 -59 -115 -112 -122 -119 -7 -7 -33 -33 -58 -58
-39 -39 -45 -42 -48 -24 -2 14 16 40 60 84 35 36 69 65 76 65 6 0 12 4 12 10
0 5 20 29 45 52 25 24 71 69 102 101 31 31 60 57 64 57 3 0 9 -9 12 -20z m-1
-75 c-2 -10 -16 -28 -30 -40 -44 -37 -332 -323 -332 -329 0 -18 31 9 183 159
92 91 170 165 172 165 3 0 5 -9 5 -20 0 -11 -30 -48 -71 -87 -38 -37 -121
-119 -184 -180 l-113 -113 0 62 0 62 120 116 c66 63 145 141 176 172 56 57 80
68 74 33z m1888 -122 c0 -20 -3 -33 -7 -30 -3 4 -76 -63 -162 -148 -201 -200
-190 -189 -198 -182 -7 8 28 77 40 77 4 0 78 72 165 160 86 88 158 160 160
160 1 0 2 -16 2 -37z m-2820 6 c0 -12 -16 -36 -37 -54 -21 -18 -98 -92 -171
-164 -73 -72 -134 -131 -137 -131 -3 0 -5 8 -5 17 0 16 326 351 343 352 4 1 7
-9 7 -20z m930 -34 c0 -14 -4 -25 -10 -25 -7 0 -98 -81 -144 -129 -19 -20 -96
-97 -108 -108 -7 -7 -18 -18 -24 -25 -6 -7 -20 -21 -30 -30 -11 -9 -26 -25
-34 -35 -14 -17 -15 -16 -18 6 -3 19 19 46 117 140 151 145 138 131 190 185
49 52 61 56 61 21z m-980 -103 c-29 -26 -57 -53 -64 -60 -6 -7 -26 -27 -44
-45 -83 -81 -118 -116 -132 -133 -8 -11 -25 -28 -37 -38 -23 -19 -23 -19 -23
4 0 16 49 71 173 192 139 137 173 165 175 149 2 -15 -12 -35 -48 -69z m2860
30 c-7 -3 -88 -80 -181 -173 -93 -93 -171 -169 -174 -169 -3 0 -5 9 -5 20 0
11 5 20 10 20 6 0 10 5 10 11 0 6 78 88 173 182 164 162 172 169 175 141 2
-16 -1 -30 -8 -32z m-1880 8 c0 -16 -4 -30 -10 -30 -9 0 -350 -337 -350 -346
0 -16 36 16 182 161 92 91 169 165 172 165 3 0 6 -9 6 -20 0 -12 -22 -41 -51
-68 -54 -49 -87 -81 -155 -154 -53 -55 -151 -148 -157 -148 -2 0 -5 25 -5 55
l0 55 99 97 c54 54 136 135 181 180 46 45 84 83 86 83 1 0 2 -13 2 -30z m-930
-52 c0 -17 -3 -29 -6 -25 -3 3 -82 -70 -175 -164 -140 -140 -169 -165 -169
-145 0 18 35 59 131 155 72 72 132 131 135 131 2 0 20 18 40 40 20 22 38 40
40 40 2 0 4 -14 4 -32z m2820 -3 c0 -14 -4 -25 -8 -25 -9 0 -195 -182 -274
-269 -27 -28 -48 -48 -48 -44 0 5 -5 0 -11 -9 -13 -22 -29 -23 -29 -2 0 18 47
68 209 227 57 56 113 112 125 124 28 29 36 28 36 -2z m578 -18 c-23 -24 -35
-19 -24 8 3 8 15 15 26 15 20 0 20 0 -2 -23z m82 16 c0 -5 -25 -32 -55 -62
-49 -48 -55 -51 -55 -30 0 28 66 98 93 99 9 0 17 -3 17 -7z m3 -74 c-43 -44
-85 -88 -93 -97 -14 -14 -15 -14 -18 6 -6 36 134 168 181 171 5 1 -26 -35 -70
-80z m147 76 c0 -1 -58 -61 -130 -133 -108 -110 -130 -128 -130 -108 0 33 205
242 238 242 12 0 22 -1 22 -1z m-3630 -70 c0 -14 -3 -25 -8 -25 -7 0 -122
-110 -148 -142 -6 -7 -37 -37 -68 -65 -31 -29 -56 -57 -56 -63 0 -5 -15 -10
-32 -10 -31 0 -26 6 132 165 91 90 168 165 173 165 4 0 7 -11 7 -25z m2820 0
c0 -14 -5 -25 -10 -25 -6 0 -39 -30 -73 -66 -34 -36 -93 -97 -130 -136 -38
-39 -66 -72 -64 -74 6 -7 37 7 37 16 0 11 219 230 230 230 6 0 10 -11 10 -25
0 -14 -5 -25 -11 -25 -6 0 -59 -49 -119 -110 -59 -60 -114 -110 -122 -110 -8
0 -20 6 -27 13 -11 10 -14 10 -18 0 -5 -14 -35 -18 -46 -7 -7 7 321 342 336
343 4 1 7 -10 7 -24z m-1890 -65 c0 -33 -4 -60 -10 -60 -5 0 -51 -43 -103 -95
-51 -52 -101 -95 -110 -95 -26 0 -21 13 21 52 20 20 56 56 78 80 23 23 58 57
78 75 32 29 46 53 30 53 -3 0 -64 -58 -135 -130 -81 -82 -136 -130 -149 -130
-11 0 -20 3 -20 6 0 10 129 134 140 134 6 0 10 5 10 12 0 13 148 158 162 158
4 0 8 -27 8 -60z m-930 -7 c0 -20 -3 -33 -6 -30 -4 3 -53 -41 -110 -98 -64
-65 -111 -105 -124 -105 -11 0 -20 2 -20 5 0 4 252 263 258 264 1 1 2 -15 2
-36z m3730 -43 c0 -16 -4 -30 -10 -30 -5 0 -49 -40 -98 -90 -62 -62 -97 -90
-113 -90 -19 0 -13 10 47 70 38 39 89 92 114 119 25 27 48 49 53 50 4 1 7 -12
7 -29z m-3771 -87 c-67 -60 -89 -83 -89 -93 0 -6 -14 -10 -32 -10 l-31 0 21
19 c12 10 22 21 22 23 0 3 33 38 73 77 67 67 72 71 75 47 2 -19 -7 -34 -39
-63z m2861 51 c0 -19 -4 -33 -9 -29 -6 3 -43 -28 -83 -70 -40 -41 -81 -75 -90
-75 -26 0 -23 8 20 50 20 20 63 65 95 98 32 34 60 62 62 62 3 0 5 -16 5 -36z
m-1890 -24 c0 -16 -5 -30 -11 -30 -6 0 -35 -25 -64 -55 -31 -32 -62 -55 -74
-55 -12 0 -21 3 -21 6 0 9 153 162 163 163 4 1 7 -12 7 -29z m2800 -15 c0 -16
-6 -25 -15 -25 -8 0 -15 -4 -15 -10 0 -19 -95 -100 -118 -100 -19 0 -10 13 55
80 43 44 81 80 86 80 4 0 7 -11 7 -25z m-1870 -55 l0 -70 -30 0 c-37 0 -37 6
-3 42 14 15 24 31 20 34 -7 7 -67 -52 -67 -66 0 -6 -11 -10 -25 -10 -33 0 -32
9 10 50 19 19 47 47 62 63 14 15 28 27 30 27 1 0 3 -31 3 -70z m-1860 18 c0
-17 -3 -28 -6 -25 -4 3 -19 -7 -34 -23 -24 -26 -70 -42 -70 -24 0 8 93 102
103 103 4 1 7 -13 7 -31z m2817 -30 c-2 -61 -3 -63 -29 -66 -36 -4 -36 11 -1
36 16 11 25 23 21 27 -4 4 -24 -9 -45 -29 -34 -32 -73 -48 -73 -29 0 8 112
121 122 122 3 1 6 -27 5 -61z m-1887 7 c0 -14 -6 -25 -13 -25 -7 0 -19 -9 -27
-20 -8 -11 -25 -20 -37 -20 -28 0 -30 16 -3 25 11 3 20 11 20 17 0 12 39 48
52 48 4 0 8 -11 8 -25z m2800 -16 c0 -17 -4 -28 -10 -24 -5 3 -15 -3 -22 -15
-8 -12 -23 -20 -40 -20 l-28 0 42 44 c24 24 46 44 51 45 4 0 7 -13 7 -30z
m-3730 -24 c0 -9 -9 -15 -21 -15 -18 0 -19 2 -9 15 7 8 16 15 21 15 5 0 9 -7
9 -15z m930 -9 c0 -3 -4 -8 -10 -11 -5 -3 -10 -1 -10 4 0 6 5 11 10 11 6 0 10
-2 10 -4z"/>
<path d="M3717 4752 c-10 -10 -17 -30 -17 -45 0 -24 3 -26 38 -23 24 2 36 7
34 16 -2 7 2 26 7 41 9 27 8 29 -18 29 -15 0 -35 -8 -44 -18z m43 -5 c0 -7 -6
-22 -14 -33 -22 -28 -41 -6 -20 24 17 24 34 29 34 9z"/>
<path d="M2759 4553 c-1 -5 0 -12 1 -18 5 -24 3 -82 -4 -93 -5 -8 2 -12 20
-12 22 0 25 3 16 12 -7 7 -12 36 -12 65 0 29 -4 53 -10 53 -5 0 -11 -3 -11 -7z"/>
<path d="M2860 4541 c6 -12 7 -36 1 -65 -7 -39 -6 -46 8 -46 13 0 15 10 13 65
-3 49 -7 65 -18 65 -11 0 -12 -4 -4 -19z"/>
<path d="M4715 4552 c-5 -4 -10 -35 -10 -70 0 -59 1 -62 24 -62 18 0 21 3 13
13 -6 7 -12 38 -14 70 -2 35 -7 54 -13 49z"/>
<path d="M4618 4500 c3 -32 0 -55 -8 -65 -10 -13 -9 -15 11 -15 23 0 24 2 21
65 -3 44 -8 65 -16 65 -10 0 -12 -14 -8 -50z"/>
<path d="M5598 4253 c-9 -31 -14 -61 -12 -65 17 -27 84 14 84 51 0 11 -9 23
-20 26 -11 3 -20 15 -20 26 0 37 -15 19 -32 -38z m50 -24 c-3 -23 -32 -48 -43
-38 -3 4 -1 18 4 33 13 32 44 36 39 5z"/>
<path d="M6526 3673 c-4 -9 -2 -20 5 -23 14 -10 8 -42 -10 -48 -10 -3 -12 1
-8 17 4 18 3 20 -9 10 -20 -17 -17 -39 6 -39 10 0 23 -7 27 -15 7 -12 10 -11
21 5 7 12 8 21 2 25 -6 3 -10 24 -10 46 0 40 -13 52 -24 22z"/>
<path d="M3796 4439 c-27 -27 -46 -52 -43 -56 4 -3 28 15 53 41 26 25 51 46
56 46 5 0 6 5 3 10 -10 16 -17 12 -69 -41z"/>
<path d="M3730 4376 c0 -9 -4 -15 -8 -12 -4 2 -17 -9 -27 -25 -11 -16 -28 -32
-37 -35 -16 -5 -26 -34 -12 -34 3 0 28 23 56 51 37 37 47 54 39 62 -8 8 -11 6
-11 -7z"/>
<path d="M4666 3759 c-93 -93 -166 -172 -163 -176 4 -3 33 21 66 53 285 280
299 295 274 294 -5 -1 -84 -77 -177 -171z"/>
<path d="M4666 3539 c-93 -93 -166 -172 -163 -175 4 -4 33 20 66 52 33 32 65
64 71 69 59 58 210 215 210 219 0 17 -29 -9 -184 -165z"/>
<path d="M4667 3394 c-148 -148 -180 -184 -162 -184 6 0 345 339 345 345 0 17
-34 -13 -183 -161z"/>
<path d="M1670 4586 c0 -11 8 -16 28 -15 15 0 21 3 12 6 -8 3 -21 10 -27 16
-9 7 -13 5 -13 -7z"/>
<path d="M1785 4588 c-4 -10 -18 -18 -32 -18 -13 0 -21 -4 -18 -10 9 -15 -38
-22 -69 -11 -34 13 -36 13 -36 1 0 -5 10 -10 23 -10 21 -1 21 -1 3 -15 -16
-12 -17 -17 -6 -30 10 -12 10 -15 -4 -15 -9 0 -16 -4 -16 -10 0 -5 7 -10 16
-10 13 0 14 -3 5 -14 -15 -18 -2 -23 50 -18 21 2 36 8 33 13 -3 5 0 9 5 9 6 0
11 -7 11 -17 0 -13 4 -12 19 6 18 20 20 21 24 4 2 -10 3 -4 1 12 -2 17 1 37 6
45 6 10 4 20 -7 32 -13 14 -13 21 -3 32 6 9 10 21 7 28 -3 9 -7 8 -12 -4z m-2
-60 c5 -17 -3 -38 -14 -38 -5 0 -9 10 -9 23 -1 21 -2 21 -14 4 -11 -14 -15
-15 -19 -3 -3 8 -3 17 0 20 11 11 51 6 56 -6z m-83 -8 c0 -5 -7 -10 -15 -10
-8 0 -15 5 -15 10 0 6 7 10 15 10 8 0 15 -4 15 -10z m17 -42 c-3 -8 -6 -5 -6
6 -1 11 2 17 5 13 3 -3 4 -12 1 -19z"/>
<path d="M1780 4377 c0 -24 -71 -68 -114 -70 -46 -3 -47 -17 -2 -17 40 0 101
-33 117 -62 6 -11 13 -17 16 -14 10 10 -39 66 -63 72 -26 7 -33 24 -9 24 8 0
29 13 47 29 27 24 31 32 21 42 -11 11 -13 10 -13 -4z"/>
<path d="M1677 4148 c4 -22 3 -29 -5 -24 -7 4 -12 14 -12 22 0 8 -4 14 -10 14
-5 0 -7 -13 -3 -30 3 -19 1 -30 -6 -30 -6 0 -11 -4 -11 -10 0 -17 28 -11 33 8
4 16 5 16 12 -2 6 -13 3 -21 -8 -28 -10 -5 -17 -14 -17 -20 0 -7 5 -6 15 2 13
11 15 8 16 -21 1 -19 3 -26 6 -16 3 11 14 17 34 17 24 0 29 4 29 25 0 18 5 25
19 25 16 0 21 -8 24 -42 2 -24 4 -1 5 50 1 56 -2 92 -8 92 -6 0 -8 -15 -4 -39
5 -33 3 -39 -15 -44 -17 -4 -21 -1 -20 16 0 12 3 16 6 10 7 -19 19 -16 20 6 1
16 -4 18 -43 13 -40 -4 -44 -3 -44 17 0 11 -4 21 -10 21 -5 0 -7 -13 -3 -32z
m34 -27 c7 11 9 11 9 -3 0 -9 -6 -19 -12 -22 -10 -5 -10 -7 0 -12 17 -8 15
-34 -3 -34 -11 0 -15 11 -14 43 0 23 3 36 6 28 5 -11 7 -11 14 0z m26 -23 c-3
-7 -5 -2 -5 12 0 14 2 19 5 13 2 -7 2 -19 0 -25z m0 -40 c-3 -8 -6 -5 -6 6 -1
11 2 17 5 13 3 -3 4 -12 1 -19z"/>
<path d="M1735 3961 c-11 -5 -29 -19 -40 -31 l-20 -23 42 24 c24 13 43 27 43
32 0 8 1 8 -25 -2z"/>
<path d="M1630 3886 c0 -13 12 -16 75 -16 65 0 75 -2 75 -17 1 -17 1 -17 11 0
18 31 1 40 -69 34 -42 -4 -70 -3 -79 4 -10 9 -13 8 -13 -5z"/>
<path d="M1676 3841 c-3 -4 15 -17 39 -28 51 -23 51 -15 0 15 -19 12 -37 17
-39 13z"/>
<path d="M2813 3020 c-28 -17 -33 -25 -33 -60 0 -49 25 -67 59 -44 28 20 24
54 -7 70 l-24 12 23 21 c28 26 23 27 -18 1z m20 -63 c7 -19 -8 -41 -22 -33
-16 10 -14 46 3 46 8 0 16 -6 19 -13z"/>
<path d="M3690 3013 c0 -13 3 -14 12 -5 11 11 48 17 48 8 0 -2 -6 -19 -14 -37
-7 -19 -17 -45 -21 -59 -6 -20 -5 -23 6 -13 7 7 20 38 30 68 l17 55 -39 0
c-30 0 -39 -4 -39 -17z"/>
<path d="M4647 3023 c-3 -5 -4 -33 -3 -63 1 -48 4 -55 22 -58 31 -4 51 24 35
50 -9 14 -9 23 -1 33 16 19 1 45 -25 45 -13 0 -26 -3 -28 -7z m41 -20 c-2 -10
-8 -18 -13 -18 -5 0 -11 8 -13 18 -2 10 3 17 13 17 10 0 15 -7 13 -17z m2 -79
c0 -8 -7 -14 -15 -14 -10 0 -15 10 -15 26 0 22 2 25 15 14 8 -7 15 -19 15 -26z"/>
<path d="M5605 3014 c-21 -21 -16 -54 10 -68 11 -6 22 -12 25 -14 3 -2 -4 -10
-14 -18 -11 -8 -14 -14 -8 -14 24 0 52 40 52 73 0 53 -32 73 -65 41z m41 -40
c-3 -8 -10 -14 -15 -14 -15 0 -22 32 -9 47 10 12 13 12 21 -2 5 -9 6 -23 3
-31z"/>
<path d="M6479 3018 c0 -2 -1 -31 -2 -66 -2 -49 1 -62 13 -62 12 0 14 12 12
65 -2 36 -8 65 -13 65 -5 0 -9 -1 -10 -2z"/>
<path d="M6551 2985 c-18 -65 20 -120 57 -83 7 7 12 30 12 53 0 71 -51 93 -69
30z m49 -20 c0 -64 -23 -88 -34 -35 -6 35 9 84 24 75 5 -3 10 -21 10 -40z"/>
<path d="M4530 2696 c0 -7 -9 -25 -21 -40 -20 -26 -14 -37 9 -14 9 9 12 6 12
-15 0 -19 -7 -30 -22 -37 -18 -7 -12 -9 29 -9 49 -1 52 -3 56 -28 l4 -28 2 28
c1 25 4 27 42 27 22 0 38 4 34 9 -3 5 -21 7 -40 4 -31 -5 -35 -3 -35 16 0 16
6 21 25 21 14 0 25 5 25 10 0 6 -11 8 -25 4 -19 -5 -25 -2 -25 10 0 11 9 16
30 16 17 0 30 4 30 8 0 5 -28 6 -62 4 -57 -4 -62 -3 -49 12 11 14 11 16 -3 16
-9 0 -16 -6 -16 -14z m58 -38 c-3 -7 -15 -13 -28 -13 -13 0 -25 6 -27 13 -3 8
6 12 27 12 21 0 30 -4 28 -12z m0 -45 c-2 -10 -13 -19 -26 -21 -17 -3 -22 2
-22 17 0 16 6 21 26 21 19 0 25 -5 22 -17z"/>
<path d="M4790 2690 c0 -25 -27 -27 -33 -2 -4 15 -5 15 -6 0 0 -9 -11 -19 -23
-21 -13 -2 2 -5 32 -6 53 -1 55 -2 57 -29 1 -18 -5 -32 -18 -40 -16 -10 -19
-10 -19 3 0 8 7 15 15 15 8 0 15 5 15 11 0 6 -7 8 -16 5 -9 -3 -23 -6 -32 -6
-11 0 -13 -3 -6 -8 8 -5 5 -13 -9 -27 -20 -20 -20 -20 -13 10 4 16 8 30 9 31
1 0 13 5 27 11 24 11 24 12 -12 12 l-38 1 0 -48 c0 -26 -5 -53 -12 -60 -9 -9
-2 -11 27 -8 27 2 44 10 59 29 24 30 36 34 36 13 0 -7 -10 -21 -22 -30 l-23
-17 24 12 c17 8 26 8 34 0 17 -17 27 -13 26 12 0 12 -3 16 -6 9 -6 -15 -23 -6
-23 13 0 7 7 21 16 29 13 14 13 16 1 16 -9 0 -18 -6 -20 -12 -3 -8 -6 -6 -6 5
-1 11 6 17 19 17 22 0 27 15 8 23 -8 3 -5 6 5 6 10 1 16 5 13 9 -3 5 -20 7
-38 6 -30 -3 -31 -3 -8 5 24 9 24 9 3 10 -13 1 -23 6 -23 11 0 6 -4 10 -10 10
-5 0 -10 -9 -10 -20z m-32 -141 c-18 -12 -28 -11 -28 2 0 5 4 8 9 4 5 -3 13 5
17 17 7 21 8 21 12 4 2 -10 -2 -22 -10 -27z"/>
<path d="M1180 2215 c0 -40 -4 -47 -35 -67 -45 -30 -46 -46 0 -18 l35 22 0
-27 c0 -20 -4 -26 -16 -21 -8 3 -12 2 -9 -4 14 -22 35 -10 35 21 l0 30 29 -20
c16 -12 37 -21 48 -21 11 1 5 8 -19 21 -44 23 -47 35 -13 51 13 6 22 15 19 20
-3 4 -15 1 -27 -7 -33 -23 -38 -19 -33 25 2 22 0 40 -5 40 -5 0 -9 -20 -9 -45z"/>
<path d="M1225 2240 c20 -22 45 -27 45 -9 0 6 -6 9 -14 6 -8 -3 -17 1 -20 9
-3 8 -11 14 -17 14 -7 0 -5 -8 6 -20z"/>
<path d="M1709 2253 c-1 -4 -2 -12 -4 -18 -1 -5 -3 -16 -3 -22 -1 -7 -14 -13
-28 -13 -23 0 -26 3 -22 25 4 20 1 25 -16 25 -16 0 -18 -2 -7 -9 21 -13 9 -97
-18 -125 -26 -27 -26 -32 -3 -32 10 0 18 7 19 16 1 8 7 32 15 52 l14 38 17
-35 c16 -35 16 -35 -11 -49 -32 -18 -24 -21 13 -4 19 9 31 8 49 -2 13 -7 30
-10 38 -7 8 3 3 9 -14 16 -33 13 -34 16 -8 59 l20 32 -21 0 c-17 0 -20 5 -17
25 3 14 1 28 -3 31 -5 3 -10 2 -10 -3z m21 -71 c0 -5 -6 -16 -13 -27 -16 -21
-32 -15 -40 15 -4 17 0 20 24 20 16 0 29 -4 29 -8z"/>
<path d="M586 2228 c-23 -32 -21 -110 4 -139 10 -13 19 -19 20 -13 0 5 -5 15
-12 22 -16 16 -15 106 2 126 7 9 10 19 7 22 -3 3 -12 -5 -21 -18z"/>
<path d="M710 2244 c0 -7 7 -14 15 -18 21 -8 20 -103 -1 -136 -14 -22 -12 -22
10 3 35 38 36 95 1 134 -13 15 -25 23 -25 17z"/>
<path d="M1926 2203 c-3 -21 -9 -53 -12 -70 -6 -30 -4 -33 18 -33 32 0 58 29
58 63 0 22 -5 27 -24 27 -19 0 -22 4 -18 25 2 14 0 25 -6 25 -5 0 -12 -17 -16
-37z m41 -67 c-18 -27 -43 -28 -39 -1 6 33 22 47 39 34 12 -10 11 -15 0 -33z"/>
<path d="M1113 2223 c9 -2 23 -2 30 0 6 3 -1 5 -18 5 -16 0 -22 -2 -12 -5z"/>
<path d="M8420 2221 c0 -5 6 -11 14 -14 7 -3 16 -15 19 -26 5 -19 1 -21 -44
-21 l-50 0 16 30 c22 42 5 37 -26 -8 l-26 -38 34 4 c18 2 33 0 33 -4 0 -21
-41 -74 -57 -75 -10 0 -13 -3 -6 -5 21 -9 51 15 64 51 10 27 19 35 37 35 21 0
23 -4 20 -37 -3 -34 -6 -38 -28 -35 -22 2 -23 1 -7 -9 29 -17 47 -4 47 37 0
28 5 37 20 41 20 5 19 6 -5 29 -14 13 -25 30 -25 39 0 8 -7 15 -15 15 -8 0
-15 -4 -15 -9z"/>
<path d="M8544 2201 c25 -28 31 -83 12 -119 -9 -18 -12 -32 -7 -32 17 0 43 71
37 103 -7 32 -32 67 -49 67 -6 0 -2 -8 7 -19z"/>
<path d="M1130 2202 c0 -5 7 -15 15 -22 8 -7 15 -8 15 -2 0 5 -7 15 -15 22 -8
7 -15 8 -15 2z"/>
<path d="M8154 2202 c-37 -24 -43 -82 -13 -131 25 -41 37 -35 15 8 -20 37 -20
68 -2 104 16 30 16 30 0 19z"/>
<path d="M8197 2204 c-13 -14 -7 -22 13 -17 15 4 20 0 20 -16 0 -11 -5 -21
-11 -21 -6 0 -4 -7 5 -15 19 -20 11 -43 -17 -48 l-22 -4 22 -2 c28 -1 56 27
47 48 -4 9 -7 30 -8 46 -1 22 -6 31 -21 33 -12 2 -24 0 -28 -4z"/>
<path d="M632 2156 c-1 -44 -1 -44 34 -44 27 0 34 3 30 15 -3 8 -6 28 -6 44 0
25 -4 29 -29 29 -27 0 -29 -2 -29 -44z m38 24 c0 -5 -7 -10 -16 -10 -8 0 -12
5 -9 10 3 6 10 10 16 10 5 0 9 -4 9 -10z m-1 -46 c-6 -7 -15 -11 -21 -8 -5 3
-4 12 3 20 6 7 15 11 21 8 5 -3 4 -12 -3 -20z"/>
<path d="M1434 2175 c-25 -25 -32 -59 -14 -70 6 -3 15 -3 21 1 8 5 8 9 -1 14
-15 9 -2 60 16 60 16 0 19 -21 4 -36 -13 -13 -2 -46 13 -41 6 2 12 22 14 44 3
52 -18 63 -53 28z"/>
<path d="M2121 2176 c-12 -14 -5 -26 16 -26 15 0 18 26 4 34 -5 3 -14 0 -20
-8z"/>
<path d="M1238 1785 c-2 -3 -35 -5 -72 -6 -48 -1 -64 -5 -57 -12 15 -15 14
-44 -1 -50 -10 -4 -10 -6 0 -6 6 -1 12 -12 12 -25 0 -13 -6 -26 -12 -29 -7 -2
-10 -8 -6 -12 4 -4 22 2 40 14 21 14 26 21 14 19 -28 -4 -31 20 -4 32 l23 9
-22 7 c-26 7 -30 32 -7 41 23 9 31 -6 37 -70 5 -54 4 -58 -21 -72 -15 -8 -21
-14 -14 -15 8 0 27 13 43 29 29 29 29 29 29 6 0 -25 24 -39 45 -27 10 5 11 12
5 22 -7 10 -10 11 -10 3 0 -7 -7 -13 -15 -13 -16 0 -21 36 -6 42 5 2 11 27 12
55 3 50 -2 69 -13 58z m0 -60 c0 -40 -3 -45 -24 -45 -28 0 -34 30 -6 31 14 0
14 2 2 7 -8 4 -16 17 -18 30 -3 18 2 22 22 22 23 0 25 -3 24 -45z"/>
<path d="M1385 1780 c-45 -4 -62 -7 -39 -8 38 -2 41 -4 42 -32 0 -23 -4 -30
-19 -30 -12 0 -19 7 -19 20 0 11 -4 20 -9 20 -6 0 -7 -15 -4 -34 4 -28 2 -35
-13 -39 -18 -4 -18 -5 -1 -6 15 -1 17 -6 12 -32 -5 -22 -4 -29 4 -25 6 4 11
18 11 32 0 22 4 24 50 24 43 0 50 -3 50 -20 0 -14 -7 -20 -22 -20 -21 -1 -21
-2 -5 -11 23 -13 37 -3 37 26 0 13 6 26 13 28 10 4 10 6 0 6 -8 1 -13 15 -13
36 0 19 -4 35 -10 35 -5 0 -8 -15 -5 -35 4 -31 1 -35 -18 -35 -20 0 -23 5 -23
45 l0 45 38 0 c21 0 38 5 38 10 0 6 -3 9 -7 8 -5 -1 -44 -5 -88 -8z m5 -90 c0
-5 -9 -10 -20 -10 -11 0 -20 5 -20 10 0 6 9 10 20 10 11 0 20 -4 20 -10z"/>
<path d="M1576 1775 c-3 -8 -18 -16 -33 -16 -24 -2 -25 -2 -5 -6 28 -6 28 -20
0 -50 -22 -24 -13 -33 11 -10 11 10 13 4 8 -36 -5 -53 2 -56 12 -5 5 23 14 34
31 39 25 7 25 7 -3 8 -40 1 -23 21 18 21 35 0 35 0 33 -45 -2 -33 -7 -45 -18
-45 -12 -1 -11 -3 3 -11 10 -6 20 -9 22 -7 1 1 5 29 7 61 l5 57 -44 0 c-24 0
-43 5 -43 10 0 6 25 10 55 10 30 0 55 4 55 9 0 4 -23 6 -50 3 -44 -4 -50 -2
-44 12 3 9 2 16 -4 16 -5 0 -12 -7 -16 -15z"/>
<path d="M2010 1779 c0 -6 -15 -25 -32 -42 -21 -18 -25 -26 -12 -19 18 9 25 8
38 -7 16 -18 15 -19 -25 -35 -23 -9 -39 -19 -36 -22 3 -3 14 -1 25 5 29 16 32
14 32 -16 0 -27 1 -28 52 -25 52 4 53 4 54 37 0 32 0 33 -40 27 l-40 -5 32 39
c36 43 39 54 17 54 -8 0 -15 -7 -15 -16 0 -8 -7 -22 -15 -31 -13 -12 -18 -13
-30 -3 -9 8 -12 17 -7 24 15 19 22 46 12 46 -6 0 -10 -5 -10 -11z m80 -129 c0
-17 -7 -20 -40 -20 -33 0 -40 3 -40 20 0 17 7 20 40 20 33 0 40 -3 40 -20z"/>
<path d="M2440 1776 c0 -8 9 -16 21 -19 25 -7 16 -27 -13 -27 -11 0 -22 8 -25
20 -4 14 -13 20 -32 19 -25 0 -25 0 -3 -9 30 -13 28 -28 -5 -33 -16 -2 14 -5
65 -6 54 0 91 3 88 8 -3 5 -15 7 -26 4 -25 -7 -25 0 -2 23 15 15 15 17 1 12
-9 -4 -28 0 -43 7 -21 11 -26 11 -26 1z"/>
<path d="M635 1773 c-6 -2 -8 -30 -5 -70 4 -60 7 -68 27 -71 27 -4 55 35 46
66 -3 15 -13 22 -29 22 -18 0 -23 6 -26 28 -2 16 -7 27 -13 25z m43 -95 c-3
-35 -20 -45 -26 -15 -5 24 4 47 18 47 7 0 10 -14 8 -32z"/>
<path d="M720 1776 c0 -2 7 -17 15 -32 19 -38 19 -94 -1 -122 -8 -12 -11 -22
-6 -22 17 0 31 25 38 67 5 33 2 49 -16 77 -19 32 -30 43 -30 32z"/>
<path d="M1738 1705 c-2 -38 -3 -71 -3 -72 0 -1 36 -3 80 -4 l79 -2 1 74 0 74
-77 0 -77 0 -3 -70z m52 31 c0 -13 -9 -34 -20 -47 l-19 -24 -1 48 c0 40 3 47
20 47 14 0 20 -7 20 -24z m40 -21 c0 -41 2 -45 25 -45 16 0 25 -6 25 -15 0
-12 -14 -15 -65 -15 -68 0 -79 7 -45 28 12 7 22 28 26 52 9 57 34 54 34 -5z
m50 5 c0 -33 -3 -40 -20 -40 -17 0 -20 7 -20 40 0 33 3 40 20 40 17 0 20 -7
20 -40z"/>
<path d="M2230 1705 c0 -65 -2 -75 -17 -75 -17 -1 -17 -1 0 -11 9 -5 22 -7 27
-4 13 8 13 165 0 165 -6 0 -10 -32 -10 -75z"/>
<path d="M2611 1763 c-1 -14 -9 -23 -23 -26 -22 -4 -22 -4 -2 -6 20 -1 21 -4
13 -48 -5 -26 -14 -52 -19 -57 -16 -16 -12 -30 4 -16 8 6 20 36 27 66 15 67
29 70 29 4 0 -35 -5 -52 -16 -58 -10 -6 -12 -12 -6 -16 16 -10 29 15 39 77 10
56 9 57 -13 57 -16 0 -24 7 -27 23 -4 22 -4 22 -6 0z"/>
<path d="M2867 1774 c-3 -3 -3 -12 0 -20 9 -24 -18 -83 -53 -114 -38 -33 -37
-39 2 -14 14 10 32 31 41 47 l16 31 16 -32 c17 -33 58 -68 68 -58 3 3 -8 17
-25 31 -34 29 -57 84 -47 115 6 19 -4 27 -18 14z"/>
<path d="M3013 1766 c3 -8 1 -17 -6 -20 -7 -2 1 -5 18 -5 31 -1 25 -15 -10
-24 -13 -3 -9 -5 13 -6 22 -1 32 4 32 14 0 8 7 15 15 15 8 0 15 -3 15 -7 -1
-14 -24 -38 -37 -39 -50 -4 -50 -8 -3 -13 46 -6 58 -4 73 12 19 21 22 37 7 37
-5 0 -10 -6 -10 -14 0 -8 -7 -16 -15 -20 -18 -7 -19 3 -1 27 7 9 23 17 35 17
11 0 21 5 21 11 0 6 -8 8 -19 4 -12 -3 -21 0 -25 10 -3 8 -11 15 -17 15 -8 0
-8 -4 1 -15 10 -13 9 -15 -11 -15 -13 0 -37 7 -53 15 -24 13 -27 13 -23 1z"/>
<path d="M3307 1760 c4 -14 0 -20 -11 -20 -9 0 -16 7 -16 15 0 11 -11 15 -37
15 -30 0 -35 -3 -23 -11 12 -9 13 -12 1 -16 -11 -5 -11 -7 0 -14 11 -7 12 -11
1 -17 -7 -5 -10 -16 -7 -25 4 -8 2 -25 -5 -36 -7 -14 -7 -21 0 -21 5 0 10 -8
10 -17 0 -13 3 -14 12 -5 7 7 20 12 30 12 11 0 18 7 18 19 0 31 48 15 53 -18
l4 -26 2 28 c1 20 6 27 21 27 11 0 20 5 20 11 0 6 -9 8 -20 4 -14 -5 -20 -2
-20 9 0 9 9 16 20 16 11 0 20 5 20 11 0 6 -9 9 -20 6 -13 -3 -20 0 -20 9 0 8
9 14 20 14 11 0 20 5 20 11 0 6 -7 9 -15 5 -18 -7 -20 5 -3 22 9 9 9 12 0 12
-7 0 -16 -10 -21 -22 l-8 -23 -7 23 c-9 27 -26 30 -19 2z m-37 -10 c0 -5 -7
-10 -15 -10 -8 0 -15 5 -15 10 0 6 7 10 15 10 8 0 15 -4 15 -10z m-5 -40 c-3
-5 -1 -11 5 -15 5 -3 10 3 10 14 0 16 6 21 26 21 16 0 24 -5 21 -12 -2 -7 -12
-12 -22 -10 -10 2 -14 -1 -10 -7 3 -6 13 -11 21 -11 9 0 14 -6 11 -12 -2 -7
-13 -12 -23 -10 -10 2 -29 3 -41 3 -18 -1 -23 5 -23 22 0 13 3 27 6 30 9 9 26
-2 19 -13z m5 -65 c0 -8 -9 -15 -20 -15 -11 0 -20 7 -20 15 0 8 9 15 20 15 11
0 20 -7 20 -15z"/>
<path d="M3782 1750 c-22 -29 -18 -42 6 -18 17 17 15 -4 -3 -28 -16 -21 -20
-38 -7 -30 5 3 8 -13 6 -34 -1 -22 2 -40 7 -40 5 0 9 24 9 53 0 29 6 59 12 65
10 10 10 15 -1 22 -12 7 -12 11 -2 24 8 9 9 16 4 16 -5 0 -19 -13 -31 -30z"/>
<path d="M3840 1740 c0 -33 2 -35 35 -35 24 0 35 5 35 15 0 8 3 24 6 36 5 18
1 20 -35 20 -40 -1 -41 -2 -41 -36z m60 10 c0 -5 -11 -10 -25 -10 -14 0 -25 5
-25 10 0 6 11 10 25 10 14 0 25 -4 25 -10z m-7 -27 c-7 -2 -21 -2 -30 0 -10 3
-4 5 12 5 17 0 24 -2 18 -5z"/>
<path d="M3997 1758 c-2 -13 -8 -32 -12 -43 -6 -19 -6 -19 8 -2 19 22 27 22
27 -3 0 -14 -7 -20 -22 -21 -17 -1 -19 -2 -5 -6 21 -6 23 -51 2 -59 -8 -4 -15
-11 -15 -18 0 -6 12 2 27 18 25 29 26 29 41 10 14 -19 15 -19 7 1 -4 11 -9 26
-12 34 -4 9 0 12 13 9 13 -2 20 -13 22 -34 3 -27 6 -30 32 -26 30 4 30 5 30
68 l0 64 -30 0 c-27 0 -30 -3 -30 -30 0 -25 -4 -30 -25 -30 -18 0 -25 5 -25
20 0 14 7 20 21 20 11 0 18 4 15 9 -3 4 -17 6 -32 3 -23 -4 -25 -2 -19 17 3
11 2 21 -3 21 -5 0 -12 -10 -15 -22z m131 -76 c3 -47 1 -52 -17 -52 -19 0 -21
6 -21 56 0 47 3 55 18 52 13 -2 18 -15 20 -56z"/>
<path d="M4207 1760 c4 -16 2 -19 -12 -13 -13 4 -16 3 -11 -5 8 -13 66 -17 66
-4 0 4 -11 15 -24 24 -23 17 -24 17 -19 -2z"/>
<path d="M4287 1764 c3 -9 -1 -14 -12 -14 -14 0 -15 -3 -6 -14 9 -11 9 -20 2
-35 -14 -25 -14 -34 -1 -26 6 3 10 2 10 -4 0 -16 -22 -24 -30 -11 -11 19 -29
3 -23 -20 4 -14 0 -20 -12 -20 -13 0 -16 6 -11 25 4 14 2 25 -4 25 -5 0 -10
-15 -10 -32 0 -31 2 -33 38 -33 20 0 47 6 60 13 20 12 26 11 43 -4 10 -9 19
-12 19 -7 0 6 -7 16 -15 23 -11 9 -12 17 -5 30 18 34 10 31 -31 -12 -23 -24
-44 -38 -46 -31 -2 6 15 29 39 51 24 22 39 44 35 48 -4 4 -14 -1 -21 -12 -8
-10 -18 -16 -22 -12 -12 12 17 38 42 38 13 0 24 5 24 10 0 6 -9 10 -20 10 -11
0 -20 4 -20 9 0 5 -7 11 -14 14 -10 4 -13 1 -9 -9z"/>
<path d="M4648 1739 c-36 -37 -40 -49 -8 -29 9 5 19 5 27 -2 21 -17 15 -26
-22 -39 -19 -7 -35 -17 -35 -21 0 -4 11 -3 25 2 23 9 25 7 25 -21 0 -24 4 -30
16 -25 9 3 35 6 58 6 l42 0 -4 35 c-4 32 -7 35 -39 35 l-34 0 30 33 c17 17 31
35 31 40 0 4 -16 7 -36 7 -21 0 -33 4 -29 10 14 23 -13 6 -47 -31z m82 3 c0
-5 -8 -16 -19 -26 -16 -14 -20 -15 -30 -2 -7 8 -10 20 -6 26 7 12 55 14 55 2z
m28 -99 c3 -21 -1 -23 -42 -23 -38 0 -46 3 -46 18 0 27 10 33 50 30 28 -2 36
-8 38 -25z"/>
<path d="M4900 1702 c0 -68 -3 -81 -17 -85 -17 -4 -17 -4 0 -12 10 -4 20 -6
22 -4 7 7 8 169 1 176 -3 3 -6 -30 -6 -75z"/>
<path d="M5105 1770 c4 -6 -9 -10 -32 -11 -33 0 -35 -1 -15 -9 30 -13 28 -30
-5 -31 -17 -1 -21 -3 -10 -6 12 -3 17 -14 17 -37 0 -31 2 -33 26 -28 19 3 25
1 20 -7 -4 -6 -19 -12 -34 -12 l-27 -1 30 -9 c29 -8 28 -8 -7 -6 -21 2 -38 -1
-38 -5 0 -4 41 -8 92 -8 50 0 88 3 84 8 -4 4 -24 7 -44 7 -27 0 -37 5 -40 18
-2 12 3 17 17 17 12 0 21 -4 21 -10 0 -5 3 -10 8 -10 4 0 6 18 4 40 -4 35 -2
40 17 40 12 0 21 5 21 11 0 7 -12 8 -32 4 l-33 -6 24 21 23 20 -36 0 c-20 0
-36 5 -36 10 0 6 -5 10 -11 10 -5 0 -7 -4 -4 -10z m33 -32 c-3 -7 -13 -13 -23
-13 -10 0 -20 6 -22 13 -3 7 5 12 22 12 17 0 25 -5 23 -12z m19 -43 c0 -8 -9
-15 -19 -15 -11 0 -16 5 -13 10 3 6 -1 10 -10 10 -9 0 -13 -4 -10 -10 3 -5 -3
-10 -14 -10 -14 0 -19 5 -15 15 4 10 20 15 43 15 27 0 38 -4 38 -15z m-54 -32
c-7 -2 -19 -2 -25 0 -7 3 -2 5 12 5 14 0 19 -2 13 -5z m50 0 c-7 -2 -19 -2
-25 0 -7 3 -2 5 12 5 14 0 19 -2 13 -5z"/>
<path d="M5475 1742 c-29 -56 -30 -58 -12 -43 15 12 17 10 17 -17 0 -24 -5
-32 -22 -35 -13 -2 -3 -5 22 -5 25 0 39 2 33 5 -7 2 -13 17 -13 33 0 16 -6 31
-12 34 -10 3 -9 8 2 18 16 13 20 32 9 42 -3 3 -14 -11 -24 -32z"/>
<path d="M582 1748 c-24 -47 -19 -124 9 -138 20 -11 20 -11 5 19 -20 38 -20
74 -1 111 9 17 12 30 7 30 -5 0 -14 -10 -20 -22z"/>
<path d="M4410 1693 l0 -73 75 0 75 0 0 73 0 72 -75 0 -75 0 0 -72z m40 23 c0
-18 -7 -39 -15 -46 -13 -11 -15 -6 -15 34 0 34 4 46 15 46 10 0 15 -10 15 -34z
m42 -8 c3 -39 6 -43 31 -46 15 -2 27 -9 27 -18 0 -11 -15 -14 -65 -14 -36 0
-65 2 -65 5 0 3 9 14 20 25 11 11 20 33 20 48 0 16 3 32 7 35 15 15 22 5 25
-35z m58 1 c0 -36 -2 -40 -22 -37 -19 2 -24 10 -26 41 -3 34 -1 37 22 37 24 0
26 -4 26 -41z"/>
<path d="M5270 1755 c0 -8 -6 -15 -14 -15 -10 0 -14 -16 -15 -62 l-1 -63 35 0
c32 0 35 2 35 31 0 54 21 84 58 84 32 0 33 -1 27 -37 -13 -83 -14 -85 -38 -78
-22 7 -22 7 -2 -8 29 -23 42 -4 50 74 l6 65 -37 -4 c-31 -4 -36 -2 -31 12 4 9
3 16 -2 16 -5 0 -12 -17 -17 -37 -6 -30 -9 -33 -12 -15 -6 39 -19 24 -17 -20
3 -51 -2 -68 -20 -68 -9 0 -13 16 -13 50 -1 28 3 50 7 50 5 0 11 9 14 20 3 11
1 20 -4 20 -5 0 -9 -7 -9 -15z"/>
<path d="M5740 1755 c0 -8 -7 -15 -15 -15 -8 0 -15 6 -15 13 0 8 -3 9 -8 1 -4
-6 -14 -14 -22 -17 -8 -3 2 -6 23 -7 51 -3 54 -4 63 -12 4 -5 -16 -8 -44 -8
l-52 0 0 -37 c0 -21 -3 -49 -6 -63 -4 -18 -3 -21 4 -10 5 8 13 34 17 58 7 42
8 43 43 40 42 -3 53 -26 22 -46 -17 -10 -20 -10 -20 3 0 8 7 15 15 15 8 0 15
4 15 9 0 4 -13 8 -30 7 -16 -1 -30 -5 -30 -11 0 -5 -3 -21 -6 -35 -5 -24 -5
-24 10 -6 14 17 16 17 16 3 0 -9 -10 -23 -22 -31 -12 -9 -17 -16 -11 -16 7 0
28 14 48 31 36 32 49 21 18 -15 -18 -20 -18 -20 9 -3 23 14 28 14 38 2 17 -21
30 -19 30 5 0 13 -5 18 -15 14 -17 -7 -19 9 -5 37 13 24 2 25 -16 2 -12 -16
-13 -16 -14 9 0 22 5 27 28 30 27 3 27 3 -10 21 -21 10 -38 24 -38 32 0 8 -4
15 -10 15 -5 0 -10 -7 -10 -15z"/>
<path d="M5939 1765 c-1 -3 -2 -10 -3 -16 0 -6 -16 -23 -35 -38 l-34 -28 31
-1 c18 0 36 -4 42 -7 18 -11 0 -25 -26 -19 -14 4 -24 2 -24 -5 0 -6 13 -11 30
-11 40 0 29 -27 -13 -33 -18 -2 6 -5 52 -5 46 -1 81 1 77 5 -4 4 -22 6 -41 5
-26 -2 -35 1 -35 13 0 9 9 15 25 15 14 0 25 5 25 11 0 6 -9 8 -21 4 -15 -5
-22 -2 -26 14 -3 12 -15 21 -30 23 l-25 3 24 22 c20 19 25 20 42 8 17 -13 17
-17 5 -31 -13 -16 -12 -17 11 -11 14 4 32 7 40 7 8 0 1 9 -17 20 -18 11 -38
29 -45 40 -12 19 -26 26 -29 15z"/>
<path d="M7991 1728 c-12 -22 -19 -43 -17 -46 3 -2 11 7 17 22 9 19 20 26 40
26 l27 0 -2 -75 c-2 -41 1 -75 6 -75 8 0 13 78 9 128 -1 18 3 22 29 22 16 0
30 4 30 8 0 5 -25 7 -56 4 -39 -3 -55 -1 -50 6 3 6 2 13 -2 16 -5 3 -19 -13
-31 -36z"/>
<path d="M5585 1750 c-3 -5 1 -10 10 -10 9 0 13 5 10 10 -3 6 -8 10 -10 10 -2
0 -7 -4 -10 -10z"/>
<path d="M5778 1753 c6 -2 18 -2 25 0 6 3 1 5 -13 5 -14 0 -19 -2 -12 -5z"/>
<path d="M6220 1750 c0 -5 7 -10 15 -10 8 0 15 5 15 10 0 6 -7 10 -15 10 -8 0
-15 -4 -15 -10z"/>
<path d="M6319 1712 c-9 -26 -19 -56 -24 -67 l-8 -20 16 20 c16 19 16 18 17
-23 0 -28 4 -41 11 -37 6 4 8 26 5 53 -4 43 -4 45 10 28 12 -17 14 -17 14 -4
0 9 -4 20 -10 23 -15 9 -12 25 5 25 12 0 15 -14 15 -62 l0 -63 40 0 40 0 0 67
c0 36 3 73 6 82 5 13 -2 16 -40 16 -34 0 -46 -4 -46 -15 0 -22 -28 -18 -32 4
-2 13 -8 4 -19 -27z m121 8 c0 -12 -7 -20 -17 -21 -17 -1 -17 -2 -1 -6 14 -3
17 -14 15 -46 -2 -37 -5 -42 -27 -42 -24 0 -25 3 -26 60 -1 72 0 75 32 75 17
0 24 -5 24 -20z"/>
<path d="M6583 1752 l-73 -3 2 -87 2 -87 3 83 4 82 64 0 65 0 0 -70 c0 -59 -3
-70 -17 -70 -13 0 -14 -3 -5 -12 23 -23 33 7 30 88 l-3 79 -72 -3z"/>
<path d="M6749 1723 c-1 -21 -2 -57 -4 -81 -1 -23 2 -45 6 -48 5 -3 9 9 9 26
0 29 2 31 33 28 28 -3 32 -6 30 -30 -2 -25 2 -28 28 -28 16 0 29 5 29 11 0 7
-9 9 -21 6 -20 -5 -20 -2 -17 74 2 59 0 79 -10 79 -8 0 -10 -8 -6 -25 6 -23 4
-25 -31 -25 -32 0 -37 3 -32 20 3 11 1 23 -4 26 -5 3 -9 -12 -10 -33z m79 -45
c3 -15 -4 -18 -32 -18 -34 0 -47 15 -29 34 13 13 58 1 61 -16z"/>
<path d="M6923 1745 c-16 -18 7 -27 49 -18 33 6 34 2 13 -50 -6 -14 -4 -16 11
-11 18 7 18 6 1 -12 -11 -12 -20 -15 -25 -9 -4 6 -17 10 -29 11 -19 0 -23 -5
-23 -31 0 -31 2 -32 38 -30 20 1 47 8 59 16 20 12 24 11 37 -6 8 -11 17 -17
21 -14 3 4 -2 14 -11 24 -15 14 -15 20 -5 37 10 16 10 22 1 28 -7 4 -9 13 -6
19 4 6 3 11 -2 11 -6 0 -12 -7 -16 -15 -3 -8 -12 -15 -21 -15 -26 0 6 39 40
49 l30 9 -27 1 c-16 1 -28 6 -28 11 0 6 -5 10 -11 10 -5 0 -7 -4 -4 -10 8 -13
-57 -13 -70 -1 -6 6 -15 4 -22 -4z m118 -93 c-12 -23 -60 -56 -69 -48 -5 6 70
77 76 71 2 -2 -1 -12 -7 -23z m-81 -27 c0 -8 -7 -15 -15 -15 -8 0 -15 7 -15
15 0 8 7 15 15 15 8 0 15 -7 15 -15z"/>
<path d="M7182 1744 c2 -10 -3 -19 -11 -22 -10 -3 -12 0 -8 12 5 12 1 16 -16
15 -12 0 -16 -3 -9 -6 17 -7 15 -21 -5 -26 -17 -4 -17 -5 0 -6 17 -1 25 -21 8
-21 -5 0 -7 -9 -4 -20 3 -11 0 -27 -7 -35 -9 -10 -9 -15 -1 -15 6 0 11 -7 11
-16 0 -11 5 -14 16 -10 9 3 22 6 30 6 8 0 14 9 14 20 0 15 7 20 24 20 20 0 25
-6 29 -32 l4 -33 1 33 c2 25 6 32 23 32 11 0 18 4 14 10 -3 5 -12 7 -20 3 -9
-3 -15 1 -15 10 0 9 10 18 23 20 l22 4 -22 2 c-29 1 -31 31 -2 31 11 0 17 5
14 10 -4 6 -12 7 -18 3 -7 -4 -6 0 2 10 9 12 10 17 2 17 -6 0 -14 -7 -17 -15
-4 -8 -10 -15 -15 -15 -5 0 -9 7 -9 15 0 8 -4 15 -10 15 -5 0 -7 -7 -4 -15 4
-9 0 -15 -10 -15 -9 0 -16 7 -16 15 0 8 -5 15 -10 15 -6 0 -10 -7 -8 -16z m68
-39 c0 -9 -9 -15 -22 -16 l-23 0 23 -9 c24 -10 30 -30 10 -30 -7 0 -30 3 -50
6 -37 7 -43 24 -9 24 10 0 21 9 24 20 6 24 47 28 47 5z m-60 -5 c0 -5 -7 -10
-15 -10 -8 0 -15 5 -15 10 0 6 7 10 15 10 8 0 15 -4 15 -10z m-5 -70 c0 -7 -6
-15 -12 -17 -8 -3 -13 4 -13 17 0 13 5 20 13 18 6 -3 12 -11 12 -18z"/>
<path d="M7420 1687 c0 -43 -5 -78 -12 -85 -9 -9 -8 -12 5 -12 15 0 17 12 17
85 0 47 -2 85 -5 85 -3 0 -5 -33 -5 -73z"/>
<path d="M7626 1745 c4 -8 10 -12 15 -9 11 6 2 24 -11 24 -5 0 -7 -7 -4 -15z"/>
<path d="M7778 1739 c-13 -13 -18 -36 -18 -76 0 -58 0 -58 30 -58 22 0 30 5
30 17 0 10 7 36 16 58 14 35 20 40 48 40 l32 0 -6 -51 c-4 -32 -14 -57 -24
-65 -12 -8 -14 -14 -6 -19 21 -13 38 19 45 87 l6 67 -35 -6 c-31 -5 -35 -3
-30 11 3 9 2 16 -4 16 -5 0 -13 -12 -17 -27 -4 -16 -10 -22 -12 -15 -8 21 -23
13 -23 -13 0 -18 -5 -25 -20 -25 -11 0 -20 7 -20 15 0 8 4 15 8 15 5 0 14 11
20 25 14 29 4 31 -20 4z m32 -94 c0 -25 -23 -35 -35 -15 -10 16 2 40 20 40 9
0 15 -9 15 -25z"/>
<path d="M8221 1748 c0 -9 -11 -19 -23 -21 -13 -2 1 -5 30 -6 60 -1 72 -21 12
-21 -45 0 -46 -2 -53 -71 l-4 -46 28 31 c20 22 28 26 29 15 0 -9 -10 -24 -22
-32 -13 -9 -18 -16 -11 -16 15 -1 73 48 73 61 0 6 -7 8 -15 4 -21 -8 -19 13 3
22 12 5 6 9 -23 13 l-40 7 40 -2 c36 -1 40 -4 43 -30 2 -19 -4 -36 -19 -52
-25 -27 -15 -33 13 -7 17 15 19 15 36 0 26 -23 32 -21 32 11 0 19 -3 23 -9 13
-5 -7 -14 -10 -20 -6 -9 5 -8 13 3 31 19 27 20 34 6 34 -5 0 -10 -6 -10 -14 0
-8 -4 -18 -10 -21 -6 -4 -10 5 -10 19 0 22 5 26 28 26 25 1 25 1 7 12 -19 11
-19 11 0 19 15 6 10 8 -20 9 -38 2 -39 3 -10 9 l30 7 -37 5 c-27 4 -38 1 -38
-8 0 -19 -28 -16 -33 5 -4 15 -5 15 -6 0z m19 -89 c0 -5 -5 -7 -10 -4 -6 3
-14 -4 -19 -17 -6 -13 -10 -18 -10 -11 -2 21 11 43 25 43 8 0 14 -5 14 -11z"/>
<path d="M8408 1739 c-13 -13 -18 -36 -18 -76 0 -58 0 -58 30 -58 26 0 30 4
30 27 0 44 31 88 63 88 30 0 32 -11 21 -82 -5 -25 -12 -38 -22 -38 -12 0 -13
-3 -5 -11 19 -19 31 -1 38 59 4 31 7 64 8 72 2 11 -6 14 -30 12 -25 -3 -33 0
-33 13 0 9 -4 13 -10 10 -5 -3 -10 -17 -10 -30 0 -13 -5 -27 -11 -31 -8 -4 -9
1 -4 16 6 19 4 21 -14 15 -23 -7 -28 4 -9 23 7 7 8 12 3 11 -6 0 -18 -9 -27
-20z m32 -44 c0 -8 -9 -15 -20 -15 -11 0 -20 7 -20 15 0 8 9 15 20 15 11 0 20
-7 20 -15z m0 -50 c0 -25 -23 -35 -35 -15 -10 16 2 40 20 40 9 0 15 -9 15 -25z"/>
<path d="M2682 1679 l-2 -76 30 5 c29 4 30 6 30 57 0 29 3 60 6 69 3 9 1 16
-5 16 -7 0 -11 -24 -11 -65 0 -58 -2 -65 -20 -65 -17 0 -20 8 -23 68 l-3 67
-2 -76z"/>
<path d="M5527 1738 c6 -7 10 -31 9 -53 -1 -22 1 -53 4 -70 5 -21 8 -5 11 53
4 75 2 82 -15 82 -13 0 -16 -3 -9 -12z"/>
<path d="M6155 1739 c4 -5 -12 -28 -34 -50 -46 -43 -46 -51 0 -18 l29 20 0
-50 c0 -28 4 -51 10 -51 5 0 7 6 4 13 -2 7 -1 30 3 51 l8 38 28 -22 c15 -12
27 -16 27 -10 0 6 -13 19 -30 28 -35 20 -39 49 -7 55 15 3 12 5 -11 6 -21 1
-31 -3 -27 -10z"/>
<path d="M7595 1731 c6 -18 2 -21 -27 -22 -23 -1 -26 -3 -10 -6 17 -4 22 -11
22 -38 0 -18 -6 -36 -12 -38 -7 -3 2 -6 20 -6 47 -1 39 -19 -10 -24 -24 -2 -1
-4 50 -5 52 -1 92 2 92 7 0 6 -16 7 -35 4 -23 -4 -35 -2 -35 6 0 6 10 11 23
11 20 0 23 4 19 34 -4 33 -7 35 -46 39 -31 3 -25 4 22 5 39 1 61 6 57 12 -3 6
-17 7 -31 4 -14 -4 -24 -2 -24 5 0 6 6 11 14 11 8 0 18 5 21 10 4 6 -5 10 -19
10 -19 0 -26 -5 -26 -20 0 -15 -7 -20 -25 -20 -15 0 -25 6 -25 14 0 8 -5 18
-11 22 -8 4 -9 0 -4 -15z m28 -58 c-7 -2 -19 -2 -25 0 -7 3 -2 5 12 5 14 0 19
-2 13 -5z m0 -20 c-7 -2 -19 -2 -25 0 -7 3 -2 5 12 5 14 0 19 -2 13 -5z m50 0
c-7 -2 -19 -2 -25 0 -7 3 -2 5 12 5 14 0 19 -2 13 -5z"/>
<path d="M2175 1697 c-10 -23 -21 -46 -23 -52 -3 -7 -1 -7 6 0 20 19 51 84 43
89 -4 3 -16 -14 -26 -37z"/>
<path d="M2292 1690 c23 -40 38 -51 38 -27 0 12 -46 67 -56 67 -2 0 6 -18 18
-40z"/>
<path d="M4841 1693 c-24 -65 -23 -69 3 -23 27 48 30 60 18 60 -4 0 -14 -17
-21 -37z"/>
<path d="M4203 1713 c9 -2 25 -2 35 0 9 3 1 5 -18 5 -19 0 -27 -2 -17 -5z"/>
<path d="M4940 1718 c0 -9 41 -78 46 -78 2 0 4 6 4 14 0 15 -49 78 -50 64z"/>
<path d="M6593 1713 c9 -2 23 -2 30 0 6 3 -1 5 -18 5 -16 0 -22 -2 -12 -5z"/>
<path d="M2396 1688 c1 -13 3 -26 3 -30 1 -3 10 -4 21 -1 11 3 20 1 20 -5 0
-6 -15 -13 -32 -15 l-33 -4 35 -3 c34 -3 34 -3 -10 -10 -36 -6 -27 -7 49 -8
52 -1 91 1 87 5 -4 4 -21 7 -39 7 -28 -1 -28 0 -4 3 15 2 27 8 27 13 0 5 -13
7 -30 4 -20 -5 -30 -3 -30 6 0 7 8 10 20 7 11 -3 20 -2 20 1 0 4 3 17 6 30 6
21 4 22 -53 22 -56 0 -60 -1 -57 -22z m47 5 c-7 -2 -19 -2 -25 0 -7 3 -2 5 12
5 14 0 19 -2 13 -5z m50 0 c-7 -2 -19 -2 -25 0 -7 3 -2 5 12 5 14 0 19 -2 13
-5z m-56 -19 c-3 -3 -12 -4 -19 -1 -8 3 -5 6 6 6 11 1 17 -2 13 -5z m50 0 c-3
-3 -12 -4 -19 -1 -8 3 -5 6 6 6 11 1 17 -2 13 -5z"/>
<path d="M3487 1703 c-14 -13 -6 -33 13 -33 13 0 20 7 20 20 0 19 -20 27 -33
13z m23 -13 c0 -5 -5 -10 -11 -10 -5 0 -7 5 -4 10 3 6 8 10 11 10 2 0 4 -4 4
-10z"/>
<path d="M5570 1700 c0 -5 7 -10 15 -10 8 0 15 5 15 10 0 6 -7 10 -15 10 -8 0
-15 -4 -15 -10z"/>
<path d="M6924 1703 c11 -11 46 -14 46 -3 0 6 -12 10 -27 10 -14 0 -23 -3 -19
-7z"/>
<path d="M7357 1667 c-11 -26 -13 -36 -4 -27 17 20 39 70 29 70 -4 0 -15 -19
-25 -43z"/>
<path d="M7462 1703 c3 -5 11 -23 18 -40 13 -29 30 -44 30 -27 0 10 -41 74
-47 74 -2 0 -3 -3 -1 -7z"/>
<path d="M3865 1690 l-60 -6 45 -5 45 -6 -43 -1 -43 -2 36 -36 c40 -40 59 -40
63 -1 2 18 9 27 22 27 13 0 17 5 13 20 -3 11 -8 19 -12 18 -3 -1 -33 -4 -66
-8z m25 -50 c0 -23 -10 -26 -28 -8 -18 18 -15 28 8 28 13 0 20 -7 20 -20z"/>
<path d="M5340 1694 c0 -5 7 -18 15 -28 12 -16 15 -17 15 -4 0 8 -7 21 -15 28
-8 7 -15 9 -15 4z"/>
<path d="M7998 1673 c-2 -15 -8 -28 -15 -28 -6 0 -14 -3 -18 -7 -4 -4 6 -6 23
-6 26 1 29 4 27 30 -3 39 -13 46 -17 11z"/>
<path d="M8098 1693 c7 -3 16 -2 19 1 4 3 -2 6 -13 5 -11 0 -14 -3 -6 -6z"/>
<path d="M3124 1665 c-19 -29 -52 -50 -62 -40 -4 3 4 15 18 25 14 11 20 20 15
20 -6 0 -16 -5 -23 -12 -9 -9 -12 -9 -12 0 0 7 -13 12 -30 12 -27 0 -30 -3
-30 -29 0 -26 4 -30 33 -33 17 -2 44 3 59 11 25 13 29 13 48 -4 13 -12 20 -14
20 -5 0 7 -8 19 -17 25 -17 12 -17 14 1 34 11 12 14 21 8 21 -6 0 -19 -11 -28
-25z m-84 -25 c0 -11 -4 -20 -9 -20 -14 0 -23 18 -16 30 10 17 25 11 25 -10z"/>
<path d="M4203 1683 c9 -2 25 -2 35 0 9 3 1 5 -18 5 -19 0 -27 -2 -17 -5z"/>
<path d="M6550 1655 c0 -29 2 -31 35 -27 30 4 35 8 35 31 0 25 -3 27 -35 27
-32 -1 -35 -3 -35 -31z m60 0 c0 -9 -9 -15 -25 -15 -16 0 -25 6 -25 15 0 9 9
15 25 15 16 0 25 -6 25 -15z"/>
<path d="M7865 1666 c20 -30 25 -32 25 -11 0 8 -9 19 -21 25 -20 11 -20 11 -4
-14z"/>
<path d="M8480 1685 c1 -17 29 -49 37 -41 4 3 -3 16 -15 29 -12 12 -22 17 -22
12z"/>
<path d="M6933 1673 c9 -2 23 -2 30 0 6 3 -1 5 -18 5 -16 0 -22 -2 -12 -5z"/>
<path d="M1598 1653 c7 -3 16 -2 19 1 4 3 -2 6 -13 5 -11 0 -14 -3 -6 -6z"/>
<path d="M5585 1650 c-17 -7 -14 -9 13 -9 20 -1 31 3 27 9 -7 12 -13 12 -40 0z"/>
<path d="M8105 1640 c-3 -5 3 -10 14 -10 12 0 21 5 21 10 0 6 -6 10 -14 10 -8
0 -18 -4 -21 -10z"/>
<path d="M1401 1528 c-1 -12 -9 -18 -27 -18 -14 0 -23 4 -19 10 3 6 3 10 -2
10 -4 -1 -17 -21 -29 -45 -12 -27 -16 -40 -8 -34 12 9 14 2 15 -42 1 -34 4
-43 6 -24 3 17 9 36 15 43 7 8 7 12 0 12 -6 0 -10 14 -10 30 1 23 6 30 21 30
14 0 18 -5 14 -17 -9 -33 -9 -38 -8 -70 1 -44 21 -42 21 2 0 53 20 42 21 -12
1 -27 3 -40 6 -30 3 12 10 16 24 12 16 -5 19 -1 19 24 0 16 3 37 7 46 5 14 2
16 -15 10 -18 -5 -22 -2 -22 14 0 14 8 21 28 24 22 3 20 4 -10 6 -26 1 -38 6
-41 19 -4 16 -5 16 -6 0z m5 -65 c-10 -10 -19 5 -10 18 6 11 8 11 12 0 2 -7 1
-15 -2 -18z m44 -38 c0 -16 -6 -25 -15 -25 -9 0 -15 9 -15 25 0 16 6 25 15 25
9 0 15 -9 15 -25z"/>
<path d="M1128 1489 l-28 -39 30 0 c40 0 39 -23 -1 -61 -17 -16 -27 -29 -22
-29 12 0 59 51 66 73 4 9 16 17 27 17 18 0 21 -5 18 -32 -2 -24 -8 -33 -20
-32 -22 2 -23 -12 -2 -20 24 -9 32 1 39 49 5 32 11 42 21 38 22 -8 16 7 -11
29 -14 11 -25 26 -25 34 0 8 -7 14 -16 14 -13 0 -12 -5 5 -29 12 -16 21 -32
21 -35 0 -3 -22 -6 -50 -6 -27 0 -50 3 -50 7 0 4 9 17 21 29 11 12 17 24 12
27 -4 3 -20 -13 -35 -34z"/>
<path d="M1530 1506 c0 -13 -6 -27 -12 -29 -10 -4 -10 -6 0 -6 14 -1 16 -47 2
-56 -20 -13 -10 -26 11 -14 31 16 83 23 74 10 -3 -6 -15 -11 -26 -11 -10 0
-19 -4 -19 -10 0 -6 9 -6 26 0 37 15 42 12 15 -10 -28 -24 -15 -27 17 -4 21
15 25 15 41 0 23 -21 31 -20 31 4 0 11 -6 19 -12 18 -14 -3 -15 26 -3 55 4 10
3 17 -4 17 -6 0 -11 -7 -11 -15 0 -8 -4 -15 -10 -15 -5 0 -10 11 -10 25 0 21
5 25 28 25 l27 1 -24 19 c-28 24 -41 25 -41 5 0 -10 -10 -15 -29 -15 -16 0
-37 -3 -47 -7 -14 -5 -16 -2 -12 15 4 12 2 22 -3 22 -5 0 -9 -11 -9 -24z m125
4 c3 -5 1 -10 -4 -10 -6 0 -11 5 -11 10 0 6 2 10 4 10 3 0 8 -4 11 -10z m-25
-29 c0 -10 -56 -9 -66 2 -4 4 9 7 29 7 21 0 37 -4 37 -9z m-60 -31 c0 -11 -7
-20 -15 -20 -8 0 -15 9 -15 20 0 11 7 20 15 20 8 0 15 -9 15 -20z m38 -2 c-6
-18 -28 -21 -28 -4 0 9 7 16 16 16 9 0 14 -5 12 -12z m22 -42 c-7 -7 -10 1 -9
25 0 32 1 33 10 10 6 -16 6 -28 -1 -35z"/>
<path d="M1740 1504 c-13 -33 -13 -44 2 -44 6 0 4 -8 -6 -19 -19 -21 -9 -35
14 -20 22 13 30 11 24 -6 -4 -8 -10 -12 -15 -9 -12 7 -11 -7 1 -26 8 -13 10
-13 10 2 0 11 5 15 15 12 8 -4 15 -11 15 -18 0 -7 17 -10 50 -8 27 2 50 8 50
14 0 6 -11 7 -25 4 -18 -5 -25 -2 -25 9 0 8 9 15 20 15 11 0 20 5 20 10 0 6
-7 10 -16 8 -10 -2 -19 2 -21 9 -2 6 6 13 19 16 l23 4 -24 2 c-17 1 -21 5 -17
17 7 19 -10 54 -28 54 -21 0 -35 -44 -29 -90 4 -30 3 -41 -5 -36 -6 4 -9 13
-6 20 6 17 -12 31 -21 16 -3 -5 -11 -10 -16 -10 -6 0 1 14 16 31 14 17 23 34
20 38 -4 3 -13 -3 -21 -13 -20 -28 -30 -11 -10 19 9 14 12 25 6 25 -6 0 -15
-12 -20 -26z m100 -14 c0 -20 -5 -30 -15 -30 -18 0 -19 14 -5 41 15 27 20 24
20 -11z m0 -55 c0 -8 -7 -15 -15 -15 -8 0 -15 7 -15 15 0 8 7 15 15 15 8 0 15
-7 15 -15z m0 -40 c0 -8 -7 -15 -15 -15 -8 0 -15 7 -15 15 0 8 7 15 15 15 8 0
15 -7 15 -15z"/>
<path d="M1959 1525 c-1 -3 -2 -10 -3 -15 0 -6 -8 -15 -16 -20 -13 -8 -12 -10
3 -10 10 0 17 -8 17 -20 0 -11 -7 -20 -15 -20 -20 0 -19 -10 2 -25 19 -14 11
-51 -9 -39 -9 6 -9 3 1 -9 19 -24 31 -12 31 34 0 46 10 49 40 12 19 -25 20
-26 15 -5 -5 18 -2 22 14 22 17 0 21 -6 21 -30 0 -16 -5 -30 -11 -30 -5 0 -7
-5 -4 -10 11 -18 25 0 25 32 0 21 6 31 20 35 11 3 17 9 14 14 -3 5 -10 7 -15
4 -5 -4 -9 -1 -9 4 0 6 5 11 11 11 5 0 7 5 4 10 -4 6 -12 9 -18 8 -7 -2 -14 2
-16 7 -3 6 8 13 25 16 l29 7 -33 1 c-19 1 -31 5 -27 11 3 6 2 10 -4 10 -5 0
-11 -4 -13 -8 -1 -5 -18 -12 -37 -15 -27 -6 -32 -4 -27 8 3 8 1 15 -4 15 -6 0
-11 -2 -11 -5z m76 -35 c3 -6 -4 -14 -17 -19 -21 -9 -21 -10 10 -10 40 -1 43
-21 3 -21 -39 0 -61 9 -61 26 0 25 52 44 65 24z"/>
<path d="M2369 1523 c-8 -52 -7 -63 7 -63 9 0 12 5 8 12 -4 7 -3 8 5 4 9 -6 9
-11 0 -22 -6 -7 -15 -11 -20 -8 -5 3 -9 1 -9 -5 0 -5 5 -13 10 -16 6 -3 10 -1
10 6 0 10 2 10 13 0 10 -10 8 -15 -8 -27 -14 -11 -15 -15 -5 -14 52 7 53 -12
3 -28 -38 -11 -38 -11 -3 -4 19 4 62 6 95 5 47 -1 54 1 30 7 -93 26 -88 21
-78 73 7 33 20 35 26 5 3 -17 5 -14 6 10 1 39 17 44 16 5 0 -27 5 -30 44 -24
6 0 6 13 1 30 -4 16 -5 33 -2 37 4 4 -1 4 -10 1 -13 -4 -16 -2 -11 11 5 14 3
15 -7 5 -10 -9 -18 -9 -34 -1 -15 8 -21 8 -24 -1 -2 -6 -13 -11 -25 -12 -17 0
-13 -4 13 -14 19 -7 27 -14 18 -14 -9 -1 -19 -11 -21 -23 -4 -21 -4 -20 -6 3
0 15 -8 29 -16 33 -8 3 -12 12 -9 21 3 8 1 15 -5 15 -6 0 -12 -3 -12 -7z m141
-73 c0 -5 -7 -7 -15 -4 -8 4 -15 8 -15 10 0 2 7 4 15 4 8 0 15 -4 15 -10z"/>
<path d="M2930 1516 c0 -10 -14 -16 -42 -19 l-43 -4 43 -1 42 -2 0 -60 c0 -50
-3 -60 -17 -60 -15 0 -16 -2 -3 -10 25 -16 30 -12 30 26 l0 35 35 -27 c20 -15
39 -23 43 -19 4 4 0 10 -8 13 -25 9 -68 61 -66 80 2 11 15 19 42 23 21 3 31 7
22 8 -10 0 -18 5 -18 10 0 5 -7 12 -16 15 -12 4 -15 2 -10 -9 3 -8 1 -15 -4
-15 -6 0 -10 7 -10 15 0 8 -4 15 -10 15 -5 0 -10 -6 -10 -14z"/>
<path d="M2183 1513 c26 -2 47 -8 47 -13 0 -4 -21 -27 -46 -49 -52 -46 -51
-55 2 -15 l34 26 0 -51 c0 -28 5 -51 10 -51 6 0 10 20 10 45 0 25 3 45 7 45 4
0 17 -10 30 -22 17 -16 23 -18 23 -7 0 8 -13 23 -30 32 -16 10 -30 27 -30 37
0 15 9 20 43 23 23 2 -1 3 -53 3 -52 0 -74 -1 -47 -3z"/>
<path d="M1878 1493 c7 -3 16 -2 19 1 4 3 -2 6 -13 5 -11 0 -14 -3 -6 -6z"/>
<path d="M2881 1463 c7 -12 15 -20 18 -17 3 2 -3 12 -13 22 -17 16 -18 16 -5
-5z"/>
<path d="M2970 1455 c-16 -19 0 -19 26 0 16 12 16 14 3 15 -9 0 -22 -7 -29
-15z"/>
<path d="M2624 1449 c-9 -15 12 -33 30 -26 9 4 16 13 16 22 0 17 -35 21 -46 4z
m36 -3 c0 -11 -19 -15 -25 -6 -3 5 1 10 9 10 9 0 16 -2 16 -4z"/>
<path d="M2890 1415 c-7 -8 -19 -15 -26 -15 -8 0 -14 -4 -14 -10 0 -5 4 -10 9
-10 14 0 68 49 55 50 -6 0 -17 -7 -24 -15z"/>
<path d="M2478 1413 c-10 -2 -18 -8 -18 -12 0 -11 49 -1 56 10 5 9 -8 10 -38
2z"/>
<path d="M1730 1388 c0 -9 5 -20 10 -23 13 -8 13 5 0 25 -8 13 -10 13 -10 -2z"/>
<path d="M1660 1046 c0 -11 8 -16 28 -15 15 0 21 3 12 6 -8 3 -21 10 -27 16
-9 7 -13 5 -13 -7z"/>
<path d="M1733 1045 c-8 -9 -9 -16 -3 -20 6 -4 5 -14 -5 -28 -19 -27 -19 -41
0 -33 8 3 15 1 15 -5 0 -13 -31 -24 -39 -13 -3 5 -16 9 -28 10 -19 0 -23 -5
-23 -30 0 -29 3 -31 39 -33 24 -2 44 3 51 12 17 21 37 19 50 -6 7 -11 14 -18
17 -15 3 3 -1 16 -10 29 -10 15 -12 29 -6 38 21 34 6 29 -31 -9 -41 -44 -60
-52 -60 -27 0 8 6 15 14 15 8 0 28 17 45 37 33 40 34 57 1 28 -26 -24 -34 -15
-14 14 12 17 22 21 40 17 14 -4 24 -2 24 4 0 5 -10 10 -23 10 -13 0 -27 4 -32
9 -6 6 -15 4 -22 -4z m-43 -120 c0 -8 -7 -15 -15 -15 -8 0 -15 7 -15 15 0 8 7
15 15 15 8 0 15 -7 15 -15z"/>
<path d="M1885 1050 c-16 -4 -23 -8 -15 -9 12 -1 11 -5 -4 -16 -20 -15 -20
-15 0 -15 18 -1 18 -1 1 -14 -13 -10 -15 -15 -5 -18 10 -4 10 -10 1 -31 -8
-16 -9 -27 -3 -27 6 0 10 -6 10 -13 0 -9 9 -12 29 -9 25 3 29 8 29 33 -1 24
-5 29 -25 29 -14 0 -21 4 -18 10 3 6 15 10 27 10 13 0 18 5 15 14 -4 9 3 16
16 20 32 8 46 -11 16 -23 -17 -7 -19 -10 -6 -10 9 -1 17 -7 17 -15 0 -8 -8
-17 -17 -19 -17 -4 -17 -5 0 -6 12 -1 17 -10 17 -31 0 -16 5 -30 10 -30 6 0
10 13 10 29 0 23 5 31 23 34 l22 4 -22 2 c-25 1 -32 31 -8 31 8 0 15 4 15 10
0 5 -7 7 -15 4 -9 -4 -15 0 -15 10 0 9 8 16 21 16 11 0 17 5 14 10 -4 6 -12 7
-18 3 -7 -4 -6 0 2 10 8 10 9 17 3 17 -6 0 -15 -8 -21 -17 -9 -17 -11 -17 -26
2 -14 17 -16 17 -11 3 4 -13 0 -18 -14 -18 -13 0 -18 5 -14 15 7 16 4 17 -41
5z m25 -20 c0 -5 -2 -10 -4 -10 -3 0 -8 5 -11 10 -3 6 -1 10 4 10 6 0 11 -4
11 -10z m0 -30 c0 -5 -4 -10 -10 -10 -5 0 -10 5 -10 10 0 6 5 10 10 10 6 0 10
-4 10 -10z m0 -75 c0 -8 -7 -15 -15 -15 -8 0 -15 7 -15 15 0 8 7 15 15 15 8 0
15 -7 15 -15z"/>
<path d="M2147 990 c1 -49 -2 -74 -12 -84 -13 -12 -12 -15 0 -20 18 -7 23 15
27 107 2 40 -1 67 -7 67 -6 0 -9 -29 -8 -70z"/>
<path d="M2320 1050 c-19 -4 -28 -8 -19 -9 9 0 19 -8 23 -16 4 -11 -3 -15 -27
-16 -23 -1 -26 -3 -9 -6 18 -4 22 -11 22 -39 0 -19 -5 -34 -11 -34 -5 0 -7 -5
-4 -11 4 -6 14 -8 22 -5 8 3 20 3 26 -1 7 -5 -7 -11 -33 -14 -33 -4 -20 -6 49
-7 52 -1 91 1 87 5 -4 4 -22 6 -40 5 -31 -3 -34 -1 -38 27 -4 25 -1 31 14 31
11 0 18 -7 18 -20 0 -11 -5 -20 -12 -20 -6 0 -9 -3 -5 -6 3 -3 15 -3 27 1 16
5 18 10 11 19 -6 7 -10 25 -9 40 2 20 8 26 26 26 13 0 20 4 17 10 -3 5 -20 7
-37 3 -36 -7 -32 12 6 27 18 8 17 9 -11 9 -17 1 -37 3 -45 5 -7 2 -29 0 -48
-4z m68 -22 c-7 -20 -48 -23 -48 -4 0 11 9 16 26 16 16 0 24 -5 22 -12z m9
-43 c0 -8 -6 -15 -12 -15 -6 0 -12 7 -12 15 0 8 6 15 12 15 6 0 12 -7 12 -15z
m-47 -5 c0 -5 -8 -10 -17 -10 -15 0 -16 2 -3 10 19 12 20 12 20 0z m0 -35 c0
-8 -7 -15 -15 -15 -8 0 -15 7 -15 15 0 8 7 15 15 15 8 0 15 -7 15 -15z"/>
<path d="M2507 1040 c-12 -14 -17 -38 -17 -78 0 -57 0 -57 30 -57 26 0 30 4
30 27 0 44 31 88 63 88 22 0 27 -4 27 -24 0 -50 -13 -88 -33 -95 -19 -7 -19
-8 -2 -15 27 -10 34 3 43 77 l8 67 -34 0 c-27 0 -33 3 -28 16 4 10 1 14 -6 12
-7 -3 -15 -15 -19 -29 -4 -13 -7 -18 -8 -11 -1 9 -8 11 -22 7 -18 -6 -20 -4
-14 14 8 26 4 26 -18 1z m31 -47 c-2 -10 -10 -18 -18 -18 -8 0 -16 8 -18 18
-2 12 3 17 18 17 15 0 20 -5 18 -17z m2 -53 c0 -13 -7 -20 -20 -20 -13 0 -20
7 -20 20 0 13 7 20 20 20 13 0 20 -7 20 -20z"/>
<path d="M2713 1025 c-24 -38 -17 -47 12 -15 21 23 55 27 55 5 0 -9 -9 -15
-25 -15 -20 0 -25 -5 -25 -25 0 -17 -7 -29 -22 -35 -19 -7 -14 -9 24 -9 43 -1
47 -3 51 -28 l4 -28 2 28 c1 25 4 27 43 27 23 0 38 3 34 7 -4 4 -23 6 -42 4
-29 -2 -34 1 -34 18 0 17 6 21 31 21 17 0 28 4 24 10 -3 6 -18 10 -31 10 -37
0 -24 24 17 31 26 5 20 7 -29 8 -39 1 -61 5 -57 11 3 6 3 10 -2 10 -4 -1 -18
-16 -30 -35z m67 -62 c0 -16 -6 -23 -20 -23 -14 0 -20 7 -20 23 0 16 6 23 20
23 14 0 20 -7 20 -23z"/>
<path d="M2990 1036 c0 -13 6 -27 13 -29 6 -3 -9 -6 -34 -6 l-46 -1 -6 -43
c-3 -24 -9 -52 -13 -62 -5 -15 -4 -17 5 -9 6 6 15 30 19 55 7 43 8 44 47 46
35 2 37 1 16 -8 -14 -5 -31 -7 -38 -5 -7 3 -13 1 -13 -4 0 -6 7 -10 15 -10 11
0 10 -5 -6 -21 -11 -11 -18 -24 -14 -27 3 -4 10 0 15 8 8 13 10 12 10 -2 0 -9
-8 -22 -17 -27 -15 -9 -15 -10 -2 -11 20 0 76 59 81 85 2 12 13 21 27 23 19 3
21 6 10 13 -10 6 -10 9 -1 9 6 0 12 4 12 10 0 5 -13 7 -30 4 -23 -5 -30 -3
-30 9 0 9 -4 19 -10 22 -6 3 -10 -5 -10 -19z m20 -80 c0 -2 -7 -9 -15 -16 -12
-10 -15 -10 -15 4 0 9 7 16 15 16 8 0 15 -2 15 -4z"/>
<path d="M3195 1028 c-5 -22 -9 -27 -12 -16 -3 11 -10 15 -20 11 -12 -5 -15
-2 -10 10 8 22 1 21 -23 -3 -16 -16 -20 -33 -20 -81 0 -55 2 -60 16 -48 12 10
20 10 35 1 18 -11 19 -9 19 28 0 51 24 90 56 90 32 0 39 -21 28 -79 -7 -37
-13 -45 -28 -43 -11 2 -15 -1 -11 -7 8 -14 32 -14 40 -1 3 5 9 39 14 75 l7 65
-37 0 c-30 0 -37 3 -33 15 4 8 2 15 -4 15 -5 0 -13 -15 -17 -32z m-25 -38 c0
-13 -7 -20 -19 -20 -22 0 -35 15 -26 30 12 19 45 11 45 -10z m0 -50 c0 -15 -7
-20 -25 -20 -24 0 -34 18 -18 33 15 15 43 7 43 -13z"/>
<path d="M3610 1035 c-4 -26 -10 -31 -45 -36 l-40 -6 38 -2 c48 -1 48 -19 1
-71 -20 -22 -32 -40 -26 -40 13 0 72 67 72 83 0 7 11 -7 25 -29 14 -23 32 -45
41 -48 28 -11 28 3 0 25 -14 11 -33 34 -41 50 l-16 29 41 0 c22 0 40 5 40 10
0 6 -15 8 -39 4 -39 -6 -40 -6 -43 27 l-4 34 -4 -30z"/>
<path d="M1117 1021 c-28 -48 -15 -127 23 -139 12 -4 11 -1 -2 15 -23 25 -24
100 -2 131 8 12 11 22 7 22 -5 0 -16 -13 -26 -29z"/>
<path d="M1220 1043 c0 -6 5 -15 10 -18 12 -7 14 -116 3 -131 -5 -5 0 -2 9 6
16 14 21 40 19 86 -1 23 -40 77 -41 57z"/>
<path d="M2947 1038 c-3 -9 -16 -18 -29 -21 -13 -2 -3 -5 22 -5 25 -1 40 2 34
6 -6 4 -13 14 -16 21 -4 12 -5 12 -11 -1z"/>
<path d="M3028 1043 c7 -3 16 -2 19 1 4 3 -2 6 -13 5 -11 0 -14 -3 -6 -6z"/>
<path d="M3350 1020 c0 -22 -5 -30 -17 -30 -13 0 -14 -3 -5 -12 14 -14 16 -68
2 -68 -5 0 -10 -4 -10 -9 0 -6 16 -7 35 -4 21 3 35 1 35 -5 0 -5 22 -9 50 -9
28 0 50 4 50 9 0 4 -7 8 -15 8 -8 0 -15 3 -15 7 0 17 25 73 33 73 4 0 6 4 2
10 -3 5 -13 6 -22 3 -13 -5 -15 -1 -11 25 l5 32 -59 0 c-58 0 -58 0 -58 -30z
m50 12 l-35 -5 35 -7 35 -7 -35 -3 c-34 -3 -34 -3 10 -10 l45 -7 -47 -1 c-45
-2 -48 0 -48 23 0 23 4 25 38 23 l37 -1 -35 -5z m-20 -62 c0 -5 -7 -10 -15
-10 -8 0 -15 5 -15 10 0 6 7 10 15 10 8 0 15 -4 15 -10z m76 -16 c-7 -38 -14
-40 -26 -9 -6 15 -13 25 -16 22 -3 -3 0 -15 6 -27 12 -23 7 -50 -10 -50 -5 0
-10 20 -10 45 0 43 1 45 30 45 27 0 30 -3 26 -26z m-73 -11 c-7 -2 -19 -2 -25
0 -7 3 -2 5 12 5 14 0 19 -2 13 -5z m-8 -23 c-3 -5 -10 -10 -16 -10 -5 0 -9 5
-9 10 0 6 7 10 16 10 8 0 12 -4 9 -10z"/>
<path d="M3815 1040 l-80 -6 72 -2 72 -2 0 -60 c-1 -40 -6 -65 -16 -75 -13
-13 -12 -15 6 -15 19 0 21 6 21 75 0 43 4 75 10 75 6 0 10 5 10 10 0 6 -3 9
-7 8 -5 -1 -44 -5 -88 -8z"/>
<path d="M3958 1038 c16 -16 15 -100 0 -117 -11 -10 -6 -11 24 -6 34 7 37 5
41 -22 2 -15 5 11 6 59 1 58 5 88 14 91 6 3 -13 6 -42 6 -43 1 -52 -2 -43 -11z
m60 -15 c2 -8 -5 -13 -17 -13 -12 0 -21 6 -21 16 0 18 31 15 38 -3z m2 -38 c0
-8 -9 -15 -20 -15 -11 0 -20 7 -20 15 0 8 9 15 20 15 11 0 20 -7 20 -15z m-2
-37 c-7 -19 -38 -22 -38 -4 0 10 9 16 21 16 12 0 19 -5 17 -12z"/>
<path d="M4240 1035 c0 -10 -11 -15 -35 -15 -35 0 -35 -1 -35 -43 l0 -43 34 4
c34 4 35 3 39 -34 l4 -39 1 38 c2 35 4 37 35 37 31 0 32 1 32 40 0 22 -3 40
-7 40 -5 0 -8 -16 -8 -36 0 -31 -3 -35 -22 -32 -29 4 -36 37 -12 55 17 13 17
13 0 13 -12 0 -16 5 -12 15 3 8 1 15 -4 15 -6 0 -10 -7 -10 -15z m-5 -55 c0
-18 -6 -26 -23 -28 -13 -2 -25 3 -28 12 -10 26 4 48 28 44 17 -2 23 -10 23
-28z"/>
<path d="M4384 1004 c-15 -32 -17 -44 -8 -40 11 4 14 -7 16 -42 1 -46 2 -45 7
13 l6 60 46 3 47 3 -9 -48 c-15 -80 -34 -81 -42 -3 -3 29 -4 28 -5 -12 -2 -35
-6 -48 -19 -51 -10 -3 12 -5 50 -6 43 -1 67 3 67 10 0 7 -10 9 -26 5 -25 -7
-25 -6 -19 41 4 26 13 53 21 59 20 16 17 26 -6 19 -15 -5 -26 0 -40 17 -18 22
-19 22 -14 2 5 -18 0 -22 -25 -26 -35 -5 -35 -4 -21 23 6 10 7 19 3 19 -4 0
-17 -20 -29 -46z"/>
<path d="M4603 1042 c-22 -3 -38 -28 -24 -37 5 -3 5 -20 1 -39 -6 -29 -5 -33
8 -28 11 4 14 1 9 -11 -3 -9 -1 -19 5 -23 7 -4 7 -9 -1 -14 -7 -4 10 -7 36 -8
26 0 54 5 62 11 11 9 15 9 18 0 3 -7 12 -13 20 -13 14 0 14 2 -1 18 -17 20
-14 74 7 100 10 13 4 16 -26 12 -16 -1 -17 1 -7 20 10 18 9 21 -1 18 -8 -3
-16 -15 -19 -28 -3 -13 -12 -26 -20 -28 -12 -4 -13 -2 -3 9 21 26 -14 49 -64
41z m117 -72 c0 -30 -15 -41 -23 -17 -2 6 -2 0 0 -14 4 -28 -19 -55 -37 -44
-16 10 -12 35 8 36 9 0 12 3 5 5 -8 4 -7 13 5 35 22 38 42 37 42 -1z m-68 8
c5 -15 -23 -68 -36 -68 -5 0 -3 6 3 14 6 7 12 25 13 40 2 27 13 35 20 14z"/>
<path d="M4068 1023 c35 -5 38 -15 21 -60 -8 -22 -12 -24 -19 -13 -6 8 -10 26
-11 40 -1 18 -3 20 -6 7 -3 -10 0 -31 5 -46 8 -22 7 -34 -5 -53 -15 -22 -15
-22 2 -6 18 16 20 16 37 1 10 -9 21 -13 26 -9 4 4 -1 14 -12 21 -13 10 -16 20
-11 32 4 10 11 35 15 56 l7 37 -41 -2 c-37 -1 -38 -2 -8 -5z"/>
<path d="M1179 962 c-2 -32 0 -52 6 -52 7 0 9 16 7 38 -6 65 -8 68 -13 14z"/>
<path d="M1663 1003 c9 -2 23 -2 30 0 6 3 -1 5 -18 5 -16 0 -22 -2 -12 -5z"/>
<path d="M2083 973 c-9 -21 -19 -42 -21 -47 -3 -5 1 -6 7 -2 17 11 53 86 41
86 -5 0 -17 -17 -27 -37z"/>
<path d="M2202 972 c27 -47 27 -46 34 -39 8 7 -26 65 -42 71 -7 3 -3 -11 8
-32z"/>
<path d="M3770 967 c0 -37 1 -38 33 -35 29 3 32 6 35 39 3 35 2 36 -32 35 -35
-1 -36 -2 -36 -39z m58 1 c-2 -15 -10 -23 -23 -23 -13 0 -21 8 -23 23 -3 18 1
22 23 22 22 0 26 -4 23 -22z"/>
<path d="M2591 967 c7 -15 16 -27 21 -27 14 0 9 16 -13 36 -21 19 -21 19 -8
-9z"/>
<path d="M3210 984 c0 -6 7 -19 15 -30 8 -10 14 -14 14 -9 0 6 -6 19 -14 29
-8 11 -15 15 -15 10z"/>
<path d="M4864 965 c0 -14 4 -25 7 -25 10 0 20 31 13 41 -10 17 -22 9 -20 -16z"/>
<path d="M1663 973 c9 -2 23 -2 30 0 6 3 -1 5 -18 5 -16 0 -22 -2 -12 -5z"/>
<path d="M3034 943 c-10 -14 -27 -34 -36 -45 -21 -21 -16 -23 12 -6 15 10 22
10 32 0 18 -18 28 -15 28 11 0 16 -3 18 -9 8 -6 -9 -11 -10 -15 -2 -4 6 1 22
10 36 22 33 2 32 -22 -2z"/>
<path d="M1656 576 c3 -8 -2 -16 -13 -19 -10 -3 -1 -5 20 -6 41 -1 46 5 20 25
-23 17 -34 17 -27 0z"/>
<path d="M1740 577 c0 -10 -8 -17 -17 -17 -15 0 -16 -2 -3 -10 12 -8 12 -11
-3 -28 -19 -21 -13 -34 11 -24 15 5 15 4 3 -11 -12 -15 -12 -17 1 -12 20 8 62
65 47 65 -7 0 -18 -8 -25 -17 -7 -10 -16 -15 -20 -11 -12 12 17 38 42 38 13 0
24 5 24 11 0 6 -6 9 -12 6 -7 -2 -21 2 -30 11 -16 14 -18 13 -18 -1z"/>
<path d="M1909 588 c-1 -5 -2 -12 -3 -17 -2 -18 -16 -24 -16 -8 0 10 -4 17
-10 17 -5 0 -10 -6 -10 -14 0 -8 -8 -17 -17 -19 -17 -4 -17 -5 0 -6 19 -1 24
-21 5 -21 -10 0 -9 -3 1 -9 11 -7 10 -14 -5 -37 -11 -15 -13 -25 -6 -21 8 6
12 1 12 -13 0 -16 4 -20 16 -16 9 3 22 6 30 6 9 0 14 11 14 30 0 23 -4 30 -20
30 -11 0 -20 5 -20 10 0 6 9 10 20 10 11 0 20 6 20 14 0 16 27 29 42 20 7 -5
4 -12 -7 -21 -17 -12 -17 -13 -2 -13 25 0 21 -28 -5 -33 -23 -4 -23 -4 -1 -6
17 -1 23 -9 26 -33 l4 -33 1 32 c2 24 7 33 25 36 l22 4 -22 2 c-29 1 -31 31
-2 31 11 0 18 4 14 10 -3 5 -12 7 -20 3 -8 -3 -15 0 -15 6 0 7 10 16 23 21 19
7 19 9 3 9 -15 1 -16 4 -6 16 7 9 8 15 2 15 -5 0 -12 -7 -16 -15 -3 -8 -10
-15 -16 -15 -5 0 -10 7 -10 15 0 8 -4 15 -10 15 -5 0 -7 -6 -4 -14 3 -8 1 -17
-5 -21 -6 -3 -15 4 -20 17 -6 13 -11 20 -12 16z m1 -52 c0 -3 -4 -8 -10 -11
-5 -3 -10 -1 -10 4 0 6 5 11 10 11 6 0 10 -2 10 -4z m0 -70 c0 -18 -16 -29
-30 -21 -13 8 -1 35 16 35 8 0 14 -6 14 -14z"/>
<path d="M2140 517 c0 -43 -5 -78 -12 -85 -9 -9 -8 -12 5 -12 14 0 17 11 17
69 0 38 3 76 6 85 3 9 1 16 -5 16 -7 0 -11 -26 -11 -73z"/>
<path d="M2345 580 c-6 -10 -5 -11 15 -14 17 -2 14 -21 -4 -24 -11 -2 -19 4
-23 16 -3 13 -13 19 -29 18 -29 -1 -33 -16 -4 -16 34 0 22 -20 -12 -21 -24 -1
-27 -3 -10 -6 17 -4 22 -11 22 -38 0 -18 -6 -36 -12 -38 -7 -3 1 -6 19 -6 49
-1 49 -19 1 -24 -24 -2 -1 -4 50 -5 54 -1 91 2 88 7 -3 5 -24 7 -45 4 -36 -5
-40 -3 -38 16 1 14 8 21 22 21 16 0 17 -2 5 -10 -12 -8 -11 -10 5 -10 18 0 20
5 17 40 -4 36 -2 40 19 41 18 1 14 4 -11 9 -32 7 -33 8 -12 15 31 10 28 29 -4
21 -14 -4 -32 -2 -39 4 -9 8 -15 8 -20 0z m41 -59 c-4 -5 0 -12 6 -14 7 -3 3
-6 -9 -6 -13 -1 -23 4 -23 9 0 6 -5 10 -11 10 -5 0 -7 -4 -4 -10 3 -5 -3 -10
-14 -10 -14 0 -19 5 -15 15 4 9 19 15 41 15 19 0 32 -4 29 -9z m-43 -38 c-7
-2 -19 -2 -25 0 -7 3 -2 5 12 5 14 0 19 -2 13 -5z m44 1 c-3 -3 -12 -4 -19 -1
-8 3 -5 6 6 6 11 1 17 -2 13 -5z m-44 -21 c-7 -2 -19 -2 -25 0 -7 3 -2 5 12 5
14 0 19 -2 13 -5z"/>
<path d="M2499 553 c-9 -21 -17 -56 -18 -78 -1 -39 -1 -40 34 -41 33 0 35 1
35 33 0 45 26 83 56 83 21 0 24 -5 24 -37 0 -54 -10 -81 -29 -85 -14 -3 -14
-4 2 -11 22 -8 32 16 39 91 l5 52 -33 0 c-26 0 -32 4 -28 15 4 8 2 15 -4 15
-5 0 -13 -15 -17 -32 -5 -23 -9 -28 -12 -15 -3 13 -10 16 -26 11 -18 -5 -20
-4 -9 7 14 15 16 29 4 29 -4 0 -14 -17 -23 -37z m39 -30 c-5 -26 -38 -29 -38
-4 0 15 6 21 21 21 14 0 19 -5 17 -17z m-5 -53 c-3 -11 -12 -20 -19 -20 -8 0
-14 9 -14 20 0 13 7 20 19 20 14 0 18 -5 14 -20z"/>
<path d="M2717 563 c-9 -17 -22 -33 -29 -36 -7 -3 -8 -6 -2 -6 16 -1 57 46 52
61 -3 8 -11 0 -21 -19z"/>
<path d="M2980 570 c0 -11 -7 -20 -15 -20 -8 0 -15 8 -15 18 -1 16 -1 16 -11
0 -5 -10 -18 -19 -27 -20 -9 -1 8 -4 38 -8 l55 -7 -47 -1 c-48 -2 -48 -2 -48
-36 0 -19 -5 -47 -11 -62 l-10 -28 23 19 c12 11 28 27 35 35 11 13 12 12 13
-7 0 -13 -8 -24 -21 -28 -11 -4 -18 -9 -16 -12 8 -7 49 17 69 41 12 15 17 17
18 7 0 -8 -8 -23 -17 -34 -17 -19 -17 -20 5 -8 15 8 28 9 41 1 28 -15 31 -13
30 18 -1 17 -3 21 -6 9 -4 -15 -7 -16 -19 -6 -13 10 -12 15 7 36 14 14 18 23
9 23 -7 0 -19 -8 -26 -17 -10 -13 -13 -14 -14 -4 0 10 -5 10 -25 -3 -21 -14
-25 -14 -25 -2 0 16 52 46 84 47 21 0 21 1 1 9 -17 7 -17 9 -2 9 9 1 17 5 17
10 0 6 -16 7 -35 4 -31 -5 -35 -3 -35 16 0 11 -4 21 -10 21 -5 0 -10 -9 -10
-20z m-3 -64 c-15 -7 -25 -14 -23 -17 3 -3 -4 -10 -14 -17 -18 -11 -20 -9 -20
11 0 32 7 37 49 36 l36 -1 -28 -12z"/>
<path d="M3133 571 c-3 -12 -9 -21 -14 -21 -5 0 -9 -30 -8 -67 0 -38 3 -62 6
-55 6 15 43 16 43 0 0 -26 15 6 17 37 2 44 19 74 46 85 18 7 19 9 4 9 -10 1
-16 5 -12 10 3 5 1 12 -4 15 -5 3 -12 -6 -15 -21 -5 -18 -10 -23 -18 -15 -6 6
-17 8 -24 5 -8 -3 -14 -1 -14 5 0 6 5 12 12 14 9 3 9 6 -1 12 -8 5 -14 1 -18
-13z m27 -51 c0 -13 -7 -20 -20 -20 -13 0 -20 7 -20 20 0 13 7 20 20 20 13 0
20 -7 20 -20z m0 -50 c0 -13 -7 -20 -20 -20 -13 0 -20 7 -20 20 0 13 7 20 20
20 13 0 20 -7 20 -20z"/>
<path d="M4443 559 c-8 -20 -18 -29 -33 -29 -19 0 -21 4 -16 25 4 14 2 25 -4
25 -5 0 -10 -11 -10 -24 0 -13 -6 -27 -12 -29 -10 -4 -10 -6 0 -6 6 -1 12 -14
12 -30 0 -16 -6 -31 -12 -34 -7 -2 -10 -7 -6 -11 3 -4 17 -2 30 5 12 7 43 11
66 10 24 -1 42 2 39 6 -3 4 -28 7 -56 7 -43 -1 -51 1 -51 17 0 21 19 36 29 23
9 -14 71 -17 71 -5 0 7 -10 9 -26 5 -20 -5 -25 -3 -22 7 3 8 19 14 39 14 l34
0 -3 -49 c-1 -27 -8 -56 -15 -64 -10 -13 -9 -14 3 -10 16 5 27 42 29 101 1 36
0 37 -35 37 -28 0 -35 3 -31 15 4 8 3 16 -1 19 -5 3 -13 -8 -19 -25z"/>
<path d="M1116 558 c-30 -43 -11 -148 26 -148 6 0 4 8 -5 18 -11 12 -17 36
-17 67 0 31 6 55 17 67 9 10 11 18 5 18 -6 0 -18 -10 -26 -22z"/>
<path d="M1170 570 c0 -5 5 -10 10 -10 6 0 10 5 10 10 0 6 -4 10 -10 10 -5 0
-10 -4 -10 -10z"/>
<path d="M1272 563 c33 -38 34 -106 1 -138 -8 -8 -10 -15 -4 -15 19 0 43 48
43 85 0 37 -25 85 -44 85 -7 0 -5 -7 4 -17z"/>
<path d="M3020 570 c0 -5 4 -10 9 -10 6 0 13 5 16 10 3 6 -1 10 -9 10 -9 0
-16 -4 -16 -10z"/>
<path d="M3340 553 c0 -14 3 -23 8 -19 4 4 7 13 7 19 0 7 18 13 45 13 l45 2
-45 -8 c-44 -7 -44 -7 -10 -10 l35 -3 -35 -7 c-33 -7 -31 -7 18 -9 49 -1 52 0
52 24 0 24 -3 25 -60 25 -58 0 -60 -1 -60 -27z"/>
<path d="M3612 508 c-2 -74 -3 -78 -24 -78 -21 -1 -22 -1 -5 -11 30 -18 38 2
34 87 l-3 79 -2 -77z"/>
<path d="M3810 570 l-85 -6 73 -2 72 -2 0 -65 c0 -37 -4 -65 -10 -65 -5 0 -10
-4 -10 -10 0 -5 7 -10 15 -10 12 0 15 14 15 70 0 54 4 72 15 76 15 6 22 26 8
22 -5 -1 -46 -5 -93 -8z"/>
<path d="M3948 568 c16 -16 16 -105 0 -111 -7 -2 -10 -8 -6 -12 4 -4 21 -3 37
3 29 10 31 9 31 -14 0 -28 21 -32 44 -8 15 14 17 14 32 -1 22 -21 32 -10 11
12 -10 11 -13 24 -8 33 5 8 11 32 15 53 l7 37 -36 0 c-27 0 -35 -4 -34 -17 0
-11 3 -13 6 -5 2 6 13 12 24 12 20 0 25 -28 9 -65 -8 -19 -8 -19 -19 5 -10 23
-11 23 -5 -8 6 -32 -8 -62 -27 -62 -5 0 -9 31 -9 70 0 55 3 71 18 79 15 9 15
10 -5 11 -16 0 -23 -6 -23 -20 0 -14 -7 -20 -21 -20 -16 0 -19 4 -14 20 5 16
2 20 -16 20 -18 0 -20 -3 -11 -12z m62 -53 c0 -8 -9 -15 -20 -15 -11 0 -20 7
-20 15 0 8 9 15 20 15 11 0 20 -7 20 -15z m-2 -37 c-3 -7 -11 -13 -18 -13 -7
0 -15 6 -17 13 -3 7 4 12 17 12 13 0 20 -5 18 -12z"/>
<path d="M4160 570 c0 -5 5 -10 11 -10 5 0 7 5 4 10 -3 6 -8 10 -11 10 -2 0
-4 -4 -4 -10z"/>
<path d="M4298 573 c7 -3 16 -2 19 1 4 3 -2 6 -13 5 -11 0 -14 -3 -6 -6z"/>
<path d="M4600 565 c0 -9 -7 -27 -16 -41 -9 -13 -14 -27 -10 -31 3 -3 6 -1 6
5 0 7 3 12 8 12 4 0 5 -22 4 -50 l-4 -50 76 0 c44 0 76 4 76 10 0 6 -4 10 -10
10 -5 0 -10 24 -10 54 0 49 -2 55 -22 59 -20 4 -19 4 5 6 15 0 27 6 27 11 0 6
-11 8 -26 4 -19 -5 -25 -4 -20 5 4 6 2 11 -3 11 -6 0 -11 -4 -11 -10 0 -5 -12
-11 -27 -11 l-28 -1 30 -8 c24 -6 26 -8 8 -9 -21 -1 -23 -6 -23 -61 0 -44 -4
-60 -14 -60 -13 0 -13 29 -2 133 1 15 -1 27 -6 27 -4 0 -8 -7 -8 -15z m100
-45 c0 -5 -11 -10 -25 -10 -14 0 -25 5 -25 10 0 6 11 10 25 10 14 0 25 -4 25
-10z m5 -30 c4 -6 -7 -10 -24 -10 -17 0 -31 5 -31 10 0 6 11 10 24 10 14 0 28
-4 31 -10z m0 -30 c-3 -5 -17 -10 -31 -10 -13 0 -24 5 -24 10 0 6 14 10 31 10
17 0 28 -4 24 -10z m0 -30 c-3 -5 -17 -10 -31 -10 -13 0 -24 5 -24 10 0 6 14
10 31 10 17 0 28 -4 24 -10z"/>
<path d="M4231 488 c1 -71 2 -77 10 -43 11 56 11 125 -1 125 -6 0 -10 -33 -9
-82z"/>
<path d="M2775 485 c0 -41 3 -75 7 -75 5 0 8 34 8 75 0 41 -3 75 -7 75 -5 0
-8 -34 -8 -75z"/>
<path d="M3258 530 c2 -16 1 -46 -2 -65 -5 -27 -12 -35 -29 -35 -21 -1 -21 -1
-3 -12 26 -14 46 13 46 61 0 20 3 46 6 59 5 15 2 22 -8 22 -10 0 -13 -8 -10
-30z"/>
<path d="M4280 529 c-17 -30 -6 -34 14 -4 9 14 12 25 7 25 -6 0 -15 -9 -21
-21z"/>
<path d="M1167 534 c-3 -3 -2 -17 3 -30 5 -13 7 -31 4 -39 -4 -8 -1 -15 5 -15
6 0 11 19 11 45 0 41 -7 54 -23 39z"/>
<path d="M1220 530 c-12 -8 -12 -10 -1 -10 10 0 12 -9 7 -35 -5 -26 -3 -35 7
-35 9 0 12 11 9 38 -5 52 -5 52 -22 42z"/>
<path d="M1653 533 c9 -2 25 -2 35 0 9 3 1 5 -18 5 -19 0 -27 -2 -17 -5z"/>
<path d="M2078 497 l-18 -42 20 24 c11 13 20 29 20 36 0 7 6 16 13 18 8 4 7 6
-3 6 -9 1 -22 -17 -32 -42z"/>
<path d="M2180 538 c0 -9 41 -78 46 -78 2 0 4 6 4 14 0 15 -49 78 -50 64z"/>
<path d="M3557 533 c-4 -3 -7 -14 -7 -23 0 -10 -7 -23 -15 -30 -17 -14 -21
-35 -4 -24 12 7 42 74 36 80 -2 2 -7 1 -10 -3z"/>
<path d="M3640 537 c0 -5 9 -20 20 -34 11 -14 20 -32 20 -39 0 -8 5 -14 10
-14 18 0 10 26 -20 60 -16 19 -29 31 -30 27z"/>
<path d="M3760 499 c0 -33 3 -40 16 -35 9 3 24 6 35 6 15 0 19 7 19 36 0 19
-4 33 -9 30 -4 -3 -6 -17 -3 -31 4 -22 1 -25 -23 -25 -25 0 -27 3 -21 30 3 17
1 30 -4 30 -6 0 -10 -18 -10 -41z"/>
<path d="M4187 520 c7 -25 23 -37 23 -17 0 8 -6 20 -14 26 -12 10 -13 8 -9 -9z"/>
<path d="M2718 500 c-3 -16 -1 -30 4 -30 4 0 8 6 8 14 0 8 3 21 6 30 3 9 2 16
-4 16 -5 0 -12 -13 -14 -30z"/>
<path d="M1660 510 l-25 -8 28 -1 c15 -1 27 4 27 9 0 6 -1 10 -2 9 -2 -1 -14
-5 -28 -9z"/>
<path d="M2580 513 c0 -5 7 -18 15 -29 12 -16 14 -16 15 -3 0 9 -7 22 -15 29
-8 7 -15 8 -15 3z"/>
<path d="M3200 513 c0 -5 9 -18 20 -28 11 -10 20 -14 20 -8 0 5 -9 18 -20 28
-11 10 -20 14 -20 8z"/>
<path d="M3319 511 c10 -6 12 -21 8 -50 -5 -40 -5 -40 24 -34 16 3 29 1 29 -4
0 -5 25 -9 55 -9 55 0 55 1 33 17 -22 17 -22 18 -4 38 10 11 15 24 12 30 -3 5
0 12 6 14 7 3 -7 5 -32 5 -25 -1 -33 -3 -19 -5 22 -3 25 -8 21 -29 -5 -27 -20
-32 -28 -9 -4 8 -10 15 -15 15 -5 0 -2 -12 7 -26 15 -22 15 -27 3 -35 -26 -17
-32 -9 -27 41 l5 50 -46 0 c-31 0 -41 -3 -32 -9z m56 -11 c3 -5 -1 -10 -9 -10
-9 0 -16 5 -16 10 0 6 4 10 9 10 6 0 13 -4 16 -10z m-5 -44 c0 -11 -19 -15
-25 -6 -3 5 1 10 9 10 9 0 16 -2 16 -4z"/>
<path d="M4847 514 c-16 -16 -6 -35 16 -32 12 2 22 10 22 18 0 16 -26 25 -38
14z m28 -14 c3 -5 -1 -10 -10 -10 -9 0 -13 5 -10 10 3 6 8 10 10 10 2 0 7 -4
10 -10z"/>
<path d="M1749 469 c-39 -41 -59 -49 -59 -24 0 8 5 15 10 15 7 0 6 5 -1 13 -6
6 -22 12 -35 12 -20 0 -24 -5 -24 -31 0 -30 1 -31 44 -29 24 0 51 7 60 14 14
12 19 11 36 -4 23 -21 28 -4 5 18 -13 13 -13 16 0 27 16 13 20 31 8 29 -5 -1
-24 -19 -44 -40z m-69 -14 c0 -8 -7 -15 -15 -15 -8 0 -15 7 -15 15 0 8 7 15
15 15 8 0 15 -7 15 -15z"/>
<path d="M4308 483 c7 -3 16 -2 19 1 4 3 -2 6 -13 5 -11 0 -14 -3 -6 -6z"/>
<path d="M8339 271 l-26 -38 24 5 c13 2 22 7 19 10 -3 2 1 17 10 33 21 41 4
35 -27 -10z"/>
<path d="M8427 283 c16 -25 19 -64 6 -106 -3 -13 -11 -17 -24 -14 -25 7 -24 0
2 -14 27 -14 39 1 39 49 0 25 5 35 20 39 17 5 17 7 -10 30 -17 14 -28 29 -24
34 3 5 -2 9 -11 9 -14 0 -13 -3 2 -27z"/>
<path d="M8533 290 c21 -31 22 -108 1 -138 -8 -12 -11 -22 -5 -22 20 0 41 46
41 90 0 48 -4 57 -35 80 -19 15 -19 14 -2 -10z"/>
<path d="M8124 265 c-7 -19 -14 -37 -14 -41 0 -14 33 -74 41 -74 4 0 1 12 -7
28 -16 32 -18 61 -4 96 14 39 1 31 -16 -9z"/>
<path d="M8213 288 c-17 -23 -25 -44 -9 -24 15 19 16 18 16 -12 0 -22 -5 -32
-15 -32 -8 0 -15 5 -15 10 0 6 -4 10 -10 10 -5 0 -10 -7 -10 -15 0 -9 9 -15
25 -15 16 0 25 -6 25 -15 0 -8 5 -15 10 -15 6 0 10 6 10 14 0 8 6 17 13 19 10
4 10 6 0 6 -8 1 -13 16 -13 41 0 41 -10 50 -27 28z"/>
<path d="M8370 219 c0 -11 -13 -34 -30 -50 -20 -20 -24 -29 -14 -27 30 6 81
98 55 98 -6 0 -11 -9 -11 -21z"/>
</g>
</svg>
