<?xml version="1.0" standalone="no"?>
<!DOCTYPE svg PUBLIC "-//W3C//DTD SVG 20010904//EN"
 "http://www.w3.org/TR/2001/REC-SVG-20010904/DTD/svg10.dtd">
<svg version="1.0" xmlns="http://www.w3.org/2000/svg"
 width="1040.000000pt" height="705.000000pt" viewBox="0 0 1040.000000 705.000000"
 preserveAspectRatio="xMidYMid meet">
<metadata>
Created by potrace 1.16, written by Peter Selinger 2001-2019
</metadata>
<g transform="translate(0.000000,705.000000) scale(0.100000,-0.100000)"
fill="#000000" stroke="none">
<path d="M5840 6955 c0 -8 -6 -12 -14 -9 -10 4 -16 -3 -19 -23 -4 -27 -4 -27
-6 5 0 17 -6 32 -12 32 -6 0 -9 -7 -6 -14 4 -10 1 -13 -8 -10 -8 3 -15 -2 -18
-13 -2 -10 -3 -6 -1 10 2 15 -1 27 -6 27 -6 0 -10 -10 -10 -22 0 -13 -7 -32
-15 -42 -19 -25 -19 -37 0 -30 12 5 15 -2 15 -29 0 -20 -4 -47 -10 -61 -6 -17
-6 -26 0 -26 5 0 12 11 16 24 5 23 31 42 42 32 10 -11 -8 -37 -20 -30 -10 6
-10 5 -1 -7 8 -10 30 -13 87 -11 42 2 76 8 76 13 0 5 -10 9 -22 9 -17 0 -19 3
-10 12 7 7 12 22 12 35 0 21 -5 23 -45 23 -41 0 -45 -2 -45 -24 0 -14 5 -28
10 -31 17 -10 11 -25 -10 -25 -17 0 -20 7 -20 45 l0 45 66 0 c58 0 65 2 54 15
-7 8 -10 27 -7 43 4 22 1 29 -18 38 -18 9 -25 9 -29 0 -3 -7 -5 -7 -5 2 -1 17
-21 15 -21 -3z m0 -55 c0 -5 13 -10 29 -10 17 0 33 -4 36 -10 4 -6 -15 -10
-52 -9 -32 1 -50 3 -40 6 11 3 16 11 13 19 -3 8 -1 14 4 14 6 0 10 -4 10 -10z
m-62 -21 c-12 -7 -24 -7 -35 0 -15 9 -12 10 17 10 29 0 32 -1 18 -10z m5 -26
c-7 -2 -19 -2 -25 0 -7 3 -2 5 12 5 14 0 19 -2 13 -5z m2 -23 c3 -5 -3 -10
-14 -10 -12 0 -21 5 -21 10 0 6 6 10 14 10 8 0 18 -4 21 -10z m107 4 c5 -5
-19 -64 -27 -64 -9 0 -35 52 -30 60 7 11 48 14 57 4z"/>
<path d="M2000 6933 c-8 -16 -14 -39 -15 -53 -2 -24 1 -26 36 -25 30 0 39 4
36 15 -3 16 -9 16 -42 4 -14 -6 -11 0 10 20 29 27 29 27 5 20 -20 -5 -23 -4
-12 7 14 15 16 39 4 39 -5 0 -15 -12 -22 -27z"/>
<path d="M2064 6901 c6 -52 5 -60 -11 -64 -14 -4 -13 -5 4 -6 12 0 27 -10 33
-20 8 -16 4 -23 -23 -40 -17 -11 -25 -21 -17 -21 9 0 26 7 38 16 21 14 25 14
40 1 29 -27 46 -25 47 6 1 28 -10 37 -18 15 -3 -9 -8 -10 -16 -2 -8 7 -6 16 9
32 24 25 25 32 5 32 -8 0 -15 5 -15 11 0 6 7 8 16 5 10 -4 14 -1 11 6 -2 7
-15 12 -28 10 l-24 -3 23 16 c12 9 20 21 16 27 -4 6 -10 6 -17 -1 -19 -19 -31
-12 -13 8 10 11 13 22 8 25 -6 3 -16 -4 -25 -17 -18 -28 -19 -77 -1 -77 15 0
36 -34 27 -44 -24 -24 -53 31 -53 102 0 25 -5 42 -11 42 -8 0 -10 -18 -5 -59z"/>
<path d="M2260 6947 c0 -7 -9 -30 -20 -52 -24 -47 -24 -46 -5 -39 11 5 15 -7
18 -58 l3 -63 3 75 c3 87 6 108 16 133 4 10 3 17 -4 17 -6 0 -11 -6 -11 -13z"/>
<path d="M2500 6935 c0 -17 -6 -25 -17 -25 -15 0 -16 -2 -3 -10 12 -7 13 -16
3 -52 -10 -38 -10 -41 3 -24 13 18 14 15 14 -32 0 -30 4 -52 11 -52 6 0 9 23
6 65 -3 53 -1 63 10 54 9 -8 13 -8 13 -1 0 6 -4 14 -10 17 -16 10 -12 25 8 25
15 1 15 2 -3 16 -11 8 -19 22 -17 30 2 8 -2 14 -8 14 -5 0 -10 -11 -10 -25z"/>
<path d="M2553 6945 c-17 -18 -16 -25 1 -25 10 0 12 -11 9 -44 -5 -42 -4 -44
16 -39 12 3 21 1 21 -6 0 -6 -10 -12 -22 -12 -17 -1 -19 -2 -5 -6 25 -7 21
-18 -15 -42 -24 -15 -28 -21 -15 -21 23 0 77 53 77 75 0 12 6 16 20 12 17 -4
20 0 20 33 0 21 -6 41 -12 43 -7 3 -3 6 9 6 21 1 44 21 24 21 -21 0 -26 2 -33
13 -6 9 -8 9 -8 0 0 -15 -36 -17 -45 -3 -9 14 -28 12 -42 -5z m75 -32 c2 -8
-5 -13 -17 -13 -12 0 -21 6 -21 16 0 18 31 15 38 -3z m5 -30 c-13 -2 -33 -2
-45 0 -13 2 -3 4 22 4 25 0 35 -2 23 -4z m0 -30 c-13 -2 -33 -2 -45 0 -13 2
-3 4 22 4 25 0 35 -2 23 -4z"/>
<path d="M2910 6899 c0 -54 -2 -60 -17 -55 -15 5 -15 3 2 -9 17 -14 20 -14 28
1 5 8 6 26 3 38 -3 13 -1 37 4 54 7 25 6 32 -6 32 -11 0 -14 -15 -14 -61z"/>
<path d="M4247 6941 c-2 -11 -15 -21 -28 -24 -22 -4 -22 -4 4 -6 25 -1 27 -4
27 -45 0 -43 -1 -45 -32 -49 -18 -2 15 -5 75 -5 64 -1 107 2 107 8 0 5 -13 7
-31 3 l-32 -6 6 71 c3 40 1 72 -4 72 -5 0 -9 -16 -9 -35 0 -33 -2 -35 -35 -35
-44 0 -46 20 -2 21 l32 1 -30 7 c-21 5 -29 12 -27 24 4 23 -14 22 -21 -2z m83
-76 c0 -8 -10 -16 -22 -16 l-23 -2 23 -4 c34 -7 26 -23 -11 -23 -31 0 -34 3
-34 30 0 27 3 30 34 30 23 0 33 -5 33 -15z"/>
<path d="M4498 6953 c-27 -2 -48 -8 -48 -14 0 -5 5 -9 10 -9 6 0 10 -13 10
-30 0 -22 -4 -28 -15 -24 -8 4 -15 1 -15 -5 0 -6 7 -11 16 -11 17 0 16 -30 -1
-90 -7 -24 -7 -24 9 -5 8 11 19 37 22 58 4 21 12 37 20 37 10 0 14 -16 14 -61
0 -58 1 -60 23 -53 32 10 41 15 81 52 32 29 46 52 31 52 -3 0 -25 -20 -48 -45
-24 -25 -49 -45 -55 -45 -8 0 -12 18 -12 50 0 39 3 50 16 50 10 0 14 6 10 15
-3 9 3 19 17 26 29 15 61 49 53 56 -3 3 -25 -13 -48 -37 -41 -41 -43 -42 -46
-19 -2 13 1 25 7 27 12 4 15 33 4 30 -5 -1 -29 -3 -55 -5z m22 -48 c0 -16 -6
-25 -15 -25 -9 0 -15 9 -15 25 0 16 6 25 15 25 9 0 15 -9 15 -25z"/>
<path d="M4714 6925 c0 -27 4 -35 20 -37 12 -2 22 -11 24 -20 3 -14 -3 -18
-27 -18 -29 0 -43 -14 -21 -22 7 -2 7 -14 -1 -36 -6 -18 -9 -35 -7 -38 5 -4
17 21 32 69 10 30 26 9 26 -34 0 -33 3 -40 18 -37 16 3 41 43 58 93 l7 20 6
-20 c5 -18 39 -84 47 -94 1 -1 8 0 14 4 8 5 5 14 -10 30 -12 13 -28 40 -35 62
l-13 38 36 6 c21 3 31 7 24 8 -7 0 -17 13 -23 27 -5 15 -12 24 -15 21 -3 -3
-1 -15 6 -26 9 -19 8 -21 -15 -21 -27 0 -35 26 -13 48 9 9 8 12 -5 12 -12 0
-17 -8 -17 -29 0 -25 -5 -30 -27 -34 l-28 -4 28 -2 c27 -1 28 -3 22 -33 -9
-39 -31 -84 -46 -93 -7 -5 -9 24 -7 94 2 56 0 101 -4 101 -5 0 -8 -13 -8 -30
0 -20 -5 -30 -15 -30 -9 0 -15 9 -15 24 0 14 -4 27 -8 30 -4 2 -8 -11 -8 -29z"/>
<path d="M4994 6946 c4 -12 1 -23 -6 -28 -10 -6 -9 -8 4 -8 26 0 32 20 13 38
-17 16 -17 16 -11 -2z"/>
<path d="M5029 6943 c-2 -43 -38 -135 -58 -147 -13 -9 -15 -26 -2 -26 5 0 16
16 25 35 17 35 18 35 81 35 35 0 66 -4 69 -9 10 -15 -12 -59 -31 -64 -17 -4
-17 -4 0 -12 23 -10 25 -6 42 49 13 44 13 46 -6 46 -16 0 -19 5 -14 20 5 14 2
20 -9 20 -9 0 -16 9 -16 20 0 11 -4 20 -10 20 -5 0 -10 -9 -10 -20 0 -15 -7
-20 -25 -20 -22 0 -24 3 -20 35 3 20 0 35 -5 35 -6 0 -10 -8 -11 -17z m82 -78
c2 -6 -17 -11 -43 -13 -41 -3 -47 -1 -42 13 5 12 17 15 44 13 21 -2 39 -7 41
-13z"/>
<path d="M5632 6951 c-9 -5 -3 -8 17 -7 17 1 31 4 31 9 0 10 -32 9 -48 -2z"/>
<path d="M6475 6950 l-80 -6 83 -2 83 -2 -3 -27 c-3 -27 -5 -28 -68 -28 -56 0
-65 2 -62 18 2 9 -2 17 -8 17 -7 0 -10 -27 -8 -77 l3 -78 80 -3 c93 -3 108 4
103 44 l-4 29 -12 -28 c-12 -27 -13 -28 -84 -25 l-73 3 0 40 0 40 73 3 72 3 0
44 c0 25 -3 44 -7 43 -5 -1 -44 -5 -88 -8z"/>
<path d="M6668 6918 c-19 -44 -17 -64 2 -29 14 28 32 27 28 -1 -2 -14 -13 -25
-28 -29 l-25 -7 27 -1 c26 -1 27 -3 17 -28 -6 -16 -18 -36 -26 -45 -9 -10 -11
-18 -5 -18 6 0 22 14 35 31 l25 32 16 -29 c12 -23 15 -25 16 -10 0 11 -10 30
-22 43 l-21 23 26 0 c15 0 27 4 27 10 0 5 -10 9 -22 7 -17 -1 -24 4 -26 21 -3
17 2 22 17 22 12 0 21 4 21 10 0 5 -13 7 -30 4 -31 -7 -39 3 -18 24 9 9 9 12
-2 12 -8 0 -23 -19 -32 -42z"/>
<path d="M684 6847 l2 -99 87 -1 87 -2 0 100 0 100 -89 0 -89 0 2 -98z m54 55
c2 -15 -2 -22 -12 -22 -9 0 -16 -4 -16 -10 0 -5 5 -10 10 -10 6 0 10 -19 10
-42 l0 -43 50 3 c45 4 50 6 49 25 -3 37 1 57 11 57 6 0 10 -22 10 -49 l0 -49
-75 -1 -75 -1 0 86 c0 76 2 85 18 82 9 -2 18 -13 20 -26z m45 21 c-7 -2 -19
-2 -25 0 -7 3 -2 5 12 5 14 0 19 -2 13 -5z m67 -21 c0 -27 -2 -28 -37 -23 -21
3 -30 6 -20 9 15 3 21 14 18 35 0 4 8 7 19 7 15 0 20 -7 20 -28z m-67 1 c-7
-2 -19 -2 -25 0 -7 3 -2 5 12 5 14 0 19 -2 13 -5z m21 -59 c15 -39 7 -54 -29
-54 -33 0 -35 2 -35 35 0 32 3 35 29 35 17 0 31 -6 35 -16z"/>
<path d="M765 6830 l-20 -9 20 -1 20 -1 -20 -9 c-18 -8 -17 -9 8 -9 21 -1 27
4 27 19 0 22 -5 23 -35 10z"/>
<path d="M1220 6915 c0 -19 4 -35 10 -35 5 0 7 -7 4 -15 -5 -11 -2 -13 10 -9
17 7 18 34 1 46 -5 4 6 7 25 7 29 0 31 -2 15 -9 -11 -5 -14 -9 -7 -9 6 -1 12
-8 12 -16 0 -17 -11 -23 -49 -28 -20 -3 -23 -10 -25 -50 -1 -25 2 -43 6 -41 4
3 8 14 8 25 0 10 7 19 15 19 8 0 15 8 15 18 0 14 -2 15 -10 2 -6 -9 -10 -10
-10 -3 0 17 23 29 28 15 2 -7 9 -9 15 -5 7 4 5 -1 -3 -11 -13 -16 -12 -18 5
-15 11 2 26 0 33 -4 14 -10 16 -37 2 -37 -5 0 -7 7 -4 15 4 8 1 15 -5 15 -13
0 -14 -19 -3 -38 7 -9 15 -7 35 12 31 29 33 36 12 36 -8 0 -15 7 -15 15 0 9 9
15 23 15 32 0 38 -8 24 -31 -9 -15 -8 -22 5 -36 10 -9 21 -14 25 -10 3 4 2 12
-3 17 -5 5 -7 38 -4 75 5 64 3 70 -27 66 -7 -1 -13 3 -13 9 0 5 11 10 25 10
14 0 25 5 25 10 0 6 -40 10 -100 10 l-100 0 0 -35z m125 15 c18 -7 19 -8 3
-15 -11 -4 -18 -18 -18 -35 0 -19 -6 -29 -20 -33 -11 -3 -20 -1 -20 4 0 5 5 9
10 9 6 0 10 18 10 40 0 42 2 44 35 30z m-62 -7 c-7 -2 -21 -2 -30 0 -10 3 -4
5 12 5 17 0 24 -2 18 -5z m107 -33 c0 -5 -11 -10 -25 -10 -14 0 -25 5 -25 10
0 6 11 10 25 10 14 0 25 -4 25 -10z m5 -40 c-3 -5 -17 -10 -31 -10 -13 0 -24
5 -24 10 0 6 14 10 31 10 17 0 28 -4 24 -10z m-65 -25 c0 -9 -6 -12 -15 -9 -8
4 -12 10 -9 15 8 14 24 10 24 -6z"/>
<path d="M1553 6943 c-36 -2 -63 -9 -63 -15 0 -5 7 -7 16 -4 9 3 45 6 80 6 41
0 63 4 59 10 -3 6 -12 9 -18 8 -7 -1 -40 -3 -74 -5z"/>
<path d="M2342 6943 c-74 -5 -75 -23 -1 -23 l49 0 0 -75 c0 -71 -1 -75 -22
-76 l-23 0 23 -12 c33 -15 42 3 42 90 0 39 5 75 10 78 14 9 12 25 -2 23 -7 -1
-41 -3 -76 -5z"/>
<path d="M2755 6929 c17 -18 17 -19 -6 -28 -17 -7 -19 -10 -6 -10 21 -1 22
-20 1 -49 -9 -13 -11 -22 -4 -22 6 0 20 16 31 35 22 36 45 39 34 4 -4 -11 -1
-26 5 -34 10 -13 7 -15 -19 -15 -17 0 -31 -4 -31 -8 0 -5 13 -7 29 -4 19 3 30
-1 34 -12 5 -13 -2 -16 -43 -16 -28 0 -50 -4 -50 -10 0 -6 42 -10 106 -10 78
0 105 3 102 12 -3 8 -21 11 -52 9 -37 -2 -47 1 -44 11 3 7 20 16 39 19 36 7
30 13 -8 9 -13 -1 -23 3 -23 9 0 6 -7 11 -15 11 -10 0 -15 10 -15 29 0 23 5
31 23 34 l22 4 -22 2 c-25 1 -32 31 -8 31 8 0 15 4 15 9 0 5 -25 10 -56 10
-54 0 -55 -1 -39 -20z m53 -17 c2 -7 -3 -12 -12 -12 -9 0 -16 7 -16 16 0 17
22 14 28 -4z"/>
<path d="M2870 6905 c0 -27 2 -46 4 -44 8 8 10 78 3 85 -4 4 -7 -14 -7 -41z"/>
<path d="M5220 6860 l0 -85 95 0 95 0 0 88 0 87 -95 -2 -95 -3 0 -85z m60 41
c0 -16 -9 -39 -20 -52 l-19 -24 -1 53 c0 45 2 52 20 52 15 0 20 -7 20 -29z
m52 -23 c3 -50 4 -53 31 -53 19 1 27 -4 27 -17 0 -16 -10 -18 -75 -18 -63 0
-75 3 -75 17 0 9 3 13 6 10 11 -11 45 41 51 78 9 55 31 44 35 -17z m58 7 c0
-38 -3 -45 -20 -45 -17 0 -20 7 -20 45 0 38 3 45 20 45 17 0 20 -7 20 -45z"/>
<path d="M5515 6941 l50 -6 -20 -20 c-16 -16 -19 -31 -17 -77 2 -47 0 -58 -13
-58 -16 0 -18 9 -15 83 1 28 -3 47 -9 47 -7 0 -11 -29 -11 -77 l0 -78 76 5
c41 3 81 2 89 -3 11 -6 14 9 17 73 2 51 -1 80 -7 80 -7 0 -9 -24 -7 -65 l4
-65 -27 0 c-26 0 -27 1 -23 60 1 33 0 60 -4 60 -5 0 -8 -16 -8 -35 0 -30 -3
-35 -24 -35 -20 0 -23 5 -22 28 4 41 26 80 50 85 11 2 -13 4 -54 4 -66 0 -69
-1 -25 -6z m75 -147 c0 -8 -10 -14 -25 -14 -26 0 -35 25 -12 33 18 6 37 -3 37
-19z"/>
<path d="M7510 6942 c0 -9 -66 -104 -94 -134 -15 -17 -14 -18 3 -18 13 0 21 8
23 23 2 14 11 23 27 25 21 3 23 0 19 -22 -4 -19 -1 -26 11 -26 11 0 16 9 15
30 0 17 2 51 6 76 4 24 3 47 -2 50 -4 3 -8 1 -8 -4z m-13 -77 c-4 -8 -11 -15
-17 -15 -7 0 -7 6 0 21 13 23 26 19 17 -6z"/>
<path d="M7594 6910 c-1 -20 -11 -54 -22 -78 l-20 -42 52 0 c67 0 106 31 106
83 0 47 -18 65 -70 69 l-45 3 -1 -35z m81 0 c33 -36 -8 -110 -61 -110 -19 0
-24 4 -20 18 3 9 8 31 12 47 15 67 36 81 69 45z"/>
<path d="M7982 6938 c-15 -15 -15 -41 0 -56 8 -8 8 -15 -1 -26 -7 -8 -11 -25
-9 -38 2 -18 10 -24 35 -26 28 -3 33 1 39 23 4 17 1 32 -10 44 -12 13 -14 21
-7 26 17 10 13 52 -5 59 -22 8 -28 8 -42 -6z m38 -28 c0 -21 -15 -27 -25 -10
-7 12 2 30 16 30 5 0 9 -9 9 -20z m0 -75 c9 -11 10 -19 2 -27 -14 -14 -32 -1
-32 23 0 23 13 25 30 4z"/>
<path d="M8123 6940 c-28 -11 -43 -40 -43 -84 0 -52 9 -66 41 -66 22 0 32 7
41 25 15 33 -3 75 -32 75 -29 0 -24 17 10 35 46 24 33 35 -17 15z m17 -89 c12
-23 3 -51 -16 -51 -16 0 -34 38 -27 58 8 18 31 15 43 -7z"/>
<path d="M8200 6935 c-15 -19 1 -65 23 -65 36 0 50 53 18 70 -25 13 -26 13
-41 -5z m46 -16 c10 -17 -13 -36 -27 -22 -12 12 -4 33 11 33 5 0 12 -5 16 -11z"/>
<path d="M8884 6880 c-32 -38 -62 -70 -66 -70 -5 0 -8 -4 -8 -10 0 -6 31 -10
72 -10 39 0 69 3 65 6 -3 4 -27 6 -52 6 -25 -1 -45 1 -45 5 0 3 15 22 33 43
72 83 85 100 73 100 -7 0 -39 -31 -72 -70z"/>
<path d="M8995 6927 c-34 -29 -45 -95 -20 -120 30 -31 115 -18 115 17 0 6 -5
5 -12 -2 -7 -7 -24 -12 -38 -12 -54 0 -66 49 -24 99 32 38 47 39 73 4 l20 -28
1 33 c0 31 -1 32 -44 32 -32 0 -52 -6 -71 -23z"/>
<path d="M9157 6931 c3 -10 -6 -46 -20 -80 l-25 -61 34 0 c70 0 110 33 85 71
-6 11 -7 19 -2 19 5 0 13 10 17 22 8 27 -18 48 -62 48 -27 0 -31 -3 -27 -19z
m69 -13 c7 -10 -20 -38 -38 -38 -10 0 -11 34 -1 43 10 11 31 8 39 -5z m-18
-75 c2 -14 -4 -26 -18 -33 -31 -16 -38 -9 -28 28 10 38 41 41 46 5z"/>
<path d="M9295 6937 c8 -20 -21 -128 -37 -138 -8 -5 5 -9 32 -8 36 0 41 2 23
9 -21 9 -21 11 -8 61 17 63 26 73 59 65 36 -9 37 -65 1 -101 -19 -18 -22 -25
-11 -25 27 0 56 41 56 79 0 52 -12 63 -69 69 -43 4 -50 2 -46 -11z"/>
<path d="M9720 6939 c0 -6 -11 -24 -25 -41 -32 -38 -32 -56 3 -60 19 -2 27 -9
27 -23 0 -11 4 -18 10 -15 5 3 10 11 10 18 0 7 6 16 13 21 11 7 11 9 0 14 -10
3 -14 20 -14 51 1 31 -3 46 -11 46 -7 0 -13 -5 -13 -11z m2 -81 c-5 -5 -18 -8
-27 -6 -15 3 -14 6 7 33 23 30 23 30 26 6 2 -13 -1 -28 -6 -33z"/>
<path d="M9797 6944 c-14 -14 -7 -25 13 -19 26 8 41 -24 18 -39 -14 -8 -13
-11 5 -26 26 -22 16 -50 -18 -50 -14 0 -25 -4 -25 -10 0 -17 46 -11 63 8 18
19 22 53 10 66 -5 4 -8 22 -8 39 0 27 -4 32 -25 35 -14 2 -29 0 -33 -4z"/>
<path d="M9907 6943 c-4 -3 -7 -17 -7 -29 0 -29 36 -42 57 -21 21 21 8 57 -21
57 -12 0 -26 -3 -29 -7z m44 -36 c-5 -5 -17 -7 -26 -3 -14 5 -15 9 -5 21 10
12 16 13 27 4 9 -8 10 -16 4 -22z"/>
<path d="M190 6931 c0 -5 7 -12 16 -15 24 -9 15 -61 -11 -61 -16 0 -20 7 -20
38 0 42 -9 47 -26 16 -15 -29 3 -69 32 -69 27 0 22 -32 -9 -45 -26 -11 -30
-27 -4 -18 47 17 77 67 67 115 -6 26 -45 61 -45 39z"/>
<path d="M1023 6928 c-24 -31 -26 -40 -5 -27 24 15 52 6 52 -17 0 -9 -16 -37
-36 -61 l-36 -44 48 3 c26 2 49 8 52 15 3 9 -5 11 -30 6 l-33 -6 28 36 c32 42
35 82 8 97 -26 13 -36 13 -48 -2z"/>
<path d="M3244 6898 c-16 -24 -31 -45 -34 -48 -3 -3 -15 -20 -28 -37 -22 -32
-22 -33 -2 -33 13 0 20 7 20 20 0 11 7 23 15 26 8 4 15 12 15 18 0 7 7 21 15
32 13 18 14 17 6 -11 -4 -16 -6 -36 -4 -43 3 -7 -1 -19 -7 -27 -11 -13 -7 -15
21 -15 24 0 30 3 22 11 -8 8 -10 35 -6 80 3 38 4 69 1 69 -3 0 -18 -19 -34
-42z"/>
<path d="M3351 6928 c5 -28 -14 -99 -33 -123 l-19 -25 44 0 c58 0 102 31 86
62 -8 15 -7 24 5 37 21 23 20 38 -3 51 -28 14 -82 13 -80 -2z m64 -27 c0 -16
-31 -38 -40 -29 -4 4 -4 16 0 28 7 23 40 24 40 1z m-15 -56 c10 -12 10 -18 0
-30 -16 -19 -50 -20 -50 -1 0 43 27 59 50 31z"/>
<path d="M3491 6911 c-25 -23 -31 -37 -31 -70 0 -35 4 -43 26 -51 36 -14 70
-12 84 4 10 13 7 13 -20 3 -29 -11 -34 -10 -51 12 -24 29 -19 64 13 99 27 28
54 28 69 0 12 -22 12 -22 20 -3 13 33 11 35 -35 35 -35 0 -50 -6 -75 -29z"/>
<path d="M3647 6922 c2 -10 -5 -45 -16 -78 -11 -32 -18 -60 -16 -62 2 -2 12 1
22 7 10 6 15 11 12 11 -4 0 1 26 11 58 18 59 38 74 65 52 32 -27 5 -110 -35
-110 -10 0 -22 -5 -25 -10 -4 -7 3 -8 22 -4 49 12 60 22 71 65 10 38 8 44 -13
65 -31 31 -106 35 -98 6z"/>
<path d="M4366 6924 c-4 -9 1 -14 14 -14 23 0 27 15 6 23 -8 3 -17 -1 -20 -9z"/>
<path d="M6768 6855 c-3 -77 3 -108 16 -86 4 6 19 11 34 11 l27 0 -2 76 -2 77
-35 1 -35 1 -3 -80z m62 -1 c0 -62 -1 -65 -22 -62 -21 3 -23 9 -26 66 -3 61
-2 62 23 62 24 0 25 -2 25 -66z"/>
<path d="M7179 6887 c-30 -30 -63 -63 -73 -75 l-19 -22 79 2 c69 2 72 2 22 5
-32 2 -58 8 -58 12 0 5 26 34 57 64 32 31 55 58 52 61 -3 3 -30 -18 -60 -47z"/>
<path d="M7315 6928 c3 -8 -4 -40 -15 -72 -11 -33 -20 -61 -20 -63 0 -7 86 -2
98 6 8 4 13 21 11 37 -1 16 1 37 5 46 16 36 3 53 -41 56 -33 2 -42 0 -38 -10z
m62 -14 c7 -19 -9 -37 -30 -32 -11 2 -12 9 -6 26 10 26 27 29 36 6z m-7 -72
c0 -23 -19 -42 -43 -42 -13 0 -17 5 -13 16 3 9 6 22 6 30 0 8 10 14 25 14 17
0 25 -5 25 -18z"/>
<path d="M68 6864 c3 -48 0 -69 -10 -75 -8 -6 -1 -8 22 -8 19 0 29 3 23 6 -9
3 -13 28 -13 74 0 48 -4 69 -12 69 -10 0 -12 -18 -10 -66z"/>
<path d="M4620 6890 c-6 -12 -26 -30 -43 -41 -28 -18 -29 -20 -7 -14 32 9 86
60 72 69 -6 4 -16 -3 -22 -14z"/>
<path d="M1558 6892 c-99 -3 -141 -22 -48 -22 l49 0 4 -67 3 -68 2 68 2 67 50
0 c28 0 50 4 50 9 0 15 -9 16 -112 13z"/>
<path d="M2290 6855 c0 -39 3 -46 16 -41 9 3 25 6 37 6 19 0 22 6 22 40 1 48
-18 49 -23 2 -2 -21 -9 -32 -18 -32 -11 0 -15 9 -12 32 2 19 -2 33 -9 35 -9 3
-13 -9 -13 -42z"/>
<path d="M10170 6892 c0 -10 41 -35 47 -28 9 8 -17 36 -33 36 -8 0 -14 -3 -14
-8z"/>
<path d="M6054 6876 c-8 -21 3 -36 27 -36 15 0 20 6 17 22 -4 27 -35 37 -44
14z m36 -16 c0 -5 -7 -10 -15 -10 -8 0 -15 5 -15 10 0 6 7 10 15 10 8 0 15 -4
15 -10z"/>
<path d="M8480 6870 c10 -19 40 -28 40 -12 0 13 -23 32 -37 32 -11 0 -11 -5
-3 -20z"/>
<path d="M9480 6878 c0 -4 27 -8 60 -8 33 0 60 4 60 8 0 4 -27 8 -60 8 -33 0
-60 -3 -60 -8z"/>
<path d="M1894 6870 c-5 -5 -50 -11 -99 -13 l-90 -3 108 -2 c61 -1 107 2 107
7 0 15 -16 21 -26 11z"/>
<path d="M3954 6864 c3 -9 6 -23 6 -31 0 -13 3 -13 15 -3 23 19 19 50 -6 50
-15 0 -19 -4 -15 -16z"/>
<path d="M7770 6870 c0 -6 29 -10 66 -10 41 0 63 4 59 10 -3 6 -33 10 -66 10
-33 0 -59 -4 -59 -10z"/>
<path d="M1495 6821 c-8 -16 -20 -32 -27 -35 -7 -3 -4 -5 7 -3 11 1 25 13 31
26 7 13 18 28 26 32 10 7 9 9 -4 9 -10 0 -24 -13 -33 -29z"/>
<path d="M1610 6843 c0 -5 11 -22 25 -37 15 -16 25 -21 25 -13 0 7 -11 24 -25
37 -14 13 -25 19 -25 13z"/>
<path d="M9480 6837 c0 -9 14 -13 48 -11 76 2 84 3 77 14 -10 16 -125 13 -125
-3z"/>
<path d="M1988 6833 c12 -2 22 -8 22 -11 0 -10 -31 -55 -44 -64 -7 -5 -5 -8 5
-8 9 0 24 12 34 26 13 21 19 23 31 13 8 -6 18 -9 22 -5 4 4 -1 12 -11 17 -9 6
-17 17 -17 24 0 10 -10 15 -32 14 -24 -1 -27 -3 -10 -6z"/>
<path d="M7775 6830 c-11 -17 100 -19 118 -1 8 8 -4 11 -50 11 -34 0 -65 -4
-68 -10z"/>
<path d="M2650 6820 c-12 -8 -9 -10 13 -10 16 0 26 4 22 10 -8 12 -16 12 -35
0z"/>
<path d="M5042 6795 c0 -16 2 -22 5 -12 2 9 2 23 0 30 -3 6 -5 -1 -5 -18z"/>
<path d="M5077 6800 c3 -11 7 -20 9 -20 2 0 4 9 4 20 0 11 -4 20 -9 20 -5 0
-7 -9 -4 -20z"/>
<path d="M5110 6811 c0 -6 5 -13 10 -16 6 -3 10 1 10 9 0 9 -4 16 -10 16 -5 0
-10 -4 -10 -9z"/>
<path d="M270 6796 c0 -9 5 -16 10 -16 6 0 10 4 10 9 0 6 -4 13 -10 16 -5 3
-10 -1 -10 -9z"/>
<path d="M5002 6789 c-7 -11 -11 -23 -9 -25 7 -7 29 24 25 36 -2 6 -9 1 -16
-11z"/>
<path d="M2644 6775 c31 -29 36 -30 36 -12 0 8 -11 19 -25 25 -38 18 -41 15
-11 -13z"/>
<path d="M4233 6777 c-35 -24 -44 -40 -15 -30 28 10 62 35 62 44 0 14 -12 10
-47 -14z"/>
<path d="M4330 6784 c21 -25 50 -37 50 -21 0 8 -11 19 -25 25 -35 16 -40 15
-25 -4z"/>
<path d="M1240 6770 c0 -11 5 -20 10 -20 6 0 10 9 10 20 0 11 -4 20 -10 20 -5
0 -10 -9 -10 -20z"/>
<path d="M1270 6783 c0 -4 5 -15 10 -23 8 -13 10 -13 10 2 0 9 -4 20 -10 23
-5 3 -10 3 -10 -2z"/>
<path d="M5015 6620 c-36 -3 -53 -8 -43 -12 14 -6 16 -17 12 -65 -4 -50 -3
-54 7 -30 l11 28 19 -38 c10 -20 19 -38 19 -40 0 -1 -17 -12 -37 -23 -26 -14
-30 -19 -13 -14 14 3 34 12 44 18 16 10 27 9 59 -7 24 -11 43 -15 49 -9 5 5
-7 13 -32 21 -22 6 -40 14 -40 16 0 2 11 21 25 41 26 39 31 54 16 54 -5 0 -18
-17 -28 -37 -10 -21 -22 -38 -28 -38 -16 0 -58 92 -51 110 4 11 15 15 33 13
29 -3 30 -7 18 -47 -5 -17 -4 -22 6 -19 7 2 13 13 14 24 2 10 6 26 9 35 10 23
1 25 -69 19z"/>
<path d="M2349 6549 c-24 -33 -52 -70 -61 -80 -17 -18 -17 -19 1 -19 10 0 21
9 24 20 3 13 14 20 30 20 20 0 24 -4 20 -20 -3 -13 0 -20 8 -20 9 0 14 12 14
33 0 17 2 52 6 77 4 25 6 46 4 48 -1 2 -22 -25 -46 -59z m21 -24 c0 -8 -7 -15
-16 -15 -14 0 -14 3 -4 15 7 8 14 15 16 15 2 0 4 -7 4 -15z"/>
<path d="M2900 6603 c-8 -3 -27 -17 -42 -31 -34 -31 -39 -89 -10 -115 37 -33
72 -14 72 39 0 36 -20 57 -45 48 -15 -6 -16 -4 -6 14 6 11 20 24 31 27 11 3
20 11 20 16 0 5 -1 9 -2 8 -2 0 -10 -3 -18 -6z m-2 -111 c2 -23 -1 -32 -12
-32 -20 0 -38 34 -30 55 11 28 39 13 42 -23z"/>
<path d="M4347 6599 c-19 -11 -23 -54 -6 -65 8 -4 8 -9 0 -17 -20 -20 -13 -64
11 -70 35 -10 61 10 53 41 -4 15 -6 44 -6 64 2 42 -22 63 -52 47z m33 -36 c0
-25 -1 -26 -16 -11 -9 9 -13 21 -10 27 13 20 26 11 26 -16z m-1 -72 c11 -20 5
-31 -16 -31 -7 0 -13 11 -13 25 0 29 15 33 29 6z"/>
<path d="M5384 6594 c7 -24 -19 -125 -36 -135 -19 -13 80 -11 103 1 21 12 27
60 7 60 -6 0 -4 7 5 18 18 20 22 48 9 56 -5 3 -28 8 -52 12 -38 6 -42 5 -36
-12z m63 -19 c3 -9 -1 -23 -10 -33 -13 -15 -13 -19 0 -30 12 -12 12 -16 -3
-33 -9 -10 -25 -19 -36 -19 -22 0 -22 0 -3 36 8 16 15 41 15 55 0 39 25 55 37
24z"/>
<path d="M5525 6600 c10 -16 -14 -118 -31 -135 -14 -13 -10 -15 30 -15 62 0
92 14 111 51 21 41 12 75 -25 94 -33 17 -95 21 -85 5z m83 -22 c33 -33 -9
-118 -58 -118 -23 0 -24 10 -8 79 9 42 15 51 33 51 11 0 26 -5 33 -12z"/>
<path d="M5914 6603 c-7 -2 -8 -22 -4 -56 4 -28 4 -62 -1 -74 -8 -21 -6 -23
23 -23 28 0 30 2 15 13 -12 8 -17 31 -19 78 -2 41 -7 64 -14 62z"/>
<path d="M6012 6585 c-17 -36 -16 -38 19 -54 42 -19 37 -55 -9 -59 -37 -4 -34
-22 3 -22 57 0 69 90 16 112 l-26 11 29 6 c40 8 46 31 8 31 -21 0 -32 -7 -40
-25z"/>
<path d="M1250 6590 c-10 -6 -11 -10 -2 -10 8 0 12 -20 12 -64 0 -42 -4 -66
-12 -69 -7 -3 3 -5 22 -5 19 0 29 2 23 5 -9 3 -13 29 -13 79 0 75 -3 81 -30
64z"/>
<path d="M1350 6585 c-18 -22 -22 -87 -8 -115 17 -31 48 -38 65 -14 16 21 17
97 3 125 -13 23 -43 25 -60 4z m47 -32 c11 -47 3 -87 -20 -91 -15 -3 -17 6
-17 62 0 76 21 92 37 29z"/>
<path d="M2468 6583 c-45 -28 -53 -103 -13 -129 26 -17 79 -12 92 8 4 8 0 9
-10 5 -10 -4 -23 -9 -30 -12 -22 -9 -50 20 -50 54 0 58 77 110 90 61 7 -28 20
-25 25 5 5 23 3 25 -36 25 -22 0 -53 -8 -68 -17z"/>
<path d="M3817 6592 c9 -6 9 -17 -1 -47 -7 -22 -16 -52 -20 -67 -6 -27 -5 -28
38 -28 48 0 69 16 65 52 -1 13 1 36 6 52 10 35 -4 46 -60 46 -22 0 -35 -4 -28
-8z m68 -26 c0 -20 -30 -45 -41 -34 -3 4 -3 19 0 33 8 31 41 31 41 1z m-11
-62 c8 -21 -11 -44 -35 -44 -21 0 -22 4 -13 38 7 26 39 30 48 6z"/>
<path d="M3972 6590 c-30 -12 -57 -70 -48 -104 6 -26 47 -51 70 -43 6 3 -1 10
-16 16 -58 22 -23 131 41 131 15 0 25 -7 28 -21 4 -16 8 -17 14 -7 18 27 9 38
-28 37 -21 0 -48 -4 -61 -9z"/>
<path d="M808 6573 c-36 -43 -76 -125 -46 -95 21 21 41 14 36 -13 -4 -20 -1
-25 16 -25 19 0 21 5 21 75 0 41 -3 75 -6 75 -3 0 -13 -8 -21 -17z m-1 -58
c-4 -8 -11 -15 -17 -15 -7 0 -7 6 0 21 13 23 26 19 17 -6z"/>
<path d="M902 6583 c4 -17 -15 -99 -28 -120 -14 -23 -14 -23 36 -23 42 0 52 4
66 25 14 21 14 28 3 41 -10 12 -10 17 0 23 7 5 11 19 9 32 -2 20 -9 24 -46 27
-23 2 -41 0 -40 -5z m65 -19 c4 -10 -1 -22 -11 -30 -15 -10 -15 -15 -5 -32 15
-25 -2 -52 -32 -52 -23 0 -23 -3 -2 70 16 59 37 77 50 44z"/>
<path d="M3016 6544 c-31 -30 -11 -104 28 -104 14 0 36 20 36 33 0 5 -7 3 -16
-4 -14 -11 -18 -10 -30 6 -27 37 -10 80 22 54 17 -14 29 -6 21 16 -8 20 -41
19 -61 -1z"/>
<path d="M3102 6553 c-10 -4 -10 -8 -1 -19 6 -7 9 -30 7 -49 -3 -27 0 -35 12
-35 12 0 15 9 12 41 -4 36 -2 40 14 37 15 -3 19 -12 18 -40 -1 -26 3 -38 15
-41 14 -3 17 4 17 42 -1 34 3 46 14 46 11 0 15 -11 15 -43 0 -31 4 -42 15 -42
12 0 14 10 12 45 -5 51 -24 74 -47 55 -12 -10 -18 -10 -30 0 -12 10 -18 10
-30 0 -10 -9 -15 -9 -15 -1 0 12 -7 13 -28 4z"/>
<path d="M4494 6534 c-13 -19 -15 -32 -8 -52 15 -43 83 -41 84 3 0 5 -5 4 -12
-3 -29 -29 -68 1 -52 42 7 19 30 21 37 4 2 -7 8 -10 12 -6 13 12 -3 38 -24 38
-12 0 -28 -12 -37 -26z"/>
<path d="M4587 6554 c-1 -1 0 -25 1 -53 3 -44 7 -51 25 -51 16 0 18 3 9 12
-17 17 -15 53 4 69 21 17 36 -5 31 -48 -2 -19 2 -33 8 -33 6 0 11 16 11 35 0
19 5 40 11 46 20 20 35 -1 31 -42 -3 -31 0 -39 13 -39 14 0 15 7 8 51 -5 28
-11 54 -14 57 -3 3 -16 0 -30 -6 -14 -6 -25 -7 -25 -2 0 7 -76 11 -83 4z"/>
<path d="M6156 6544 c-10 -26 -7 -69 6 -82 25 -25 78 -8 78 26 0 12 -3 12 -15
2 -23 -19 -45 -4 -45 30 0 30 24 43 33 18 4 -10 7 -10 18 0 24 22 31 13 27
-38 -3 -45 -1 -50 17 -50 18 0 20 5 17 45 -3 37 -1 45 13 45 14 0 16 -8 13
-45 -3 -40 -1 -45 17 -45 17 0 20 7 20 47 0 30 5 48 14 51 10 3 12 -7 10 -47
-4 -47 -2 -51 18 -51 20 0 21 3 13 26 -6 14 -10 38 -10 53 l0 29 -119 0 c-98
1 -120 -2 -125 -14z"/>
<path d="M6617 6553 c-12 -12 -7 -22 8 -17 10 4 15 0 15 -11 0 -11 -5 -15 -15
-11 -8 3 -15 1 -15 -4 0 -15 38 -12 43 3 9 25 -19 57 -36 40z"/>
<path d="M1501 6533 c-10 -20 -9 -49 3 -75 11 -25 53 -23 66 2 10 19 10 20
-10 8 -18 -11 -23 -10 -36 6 -18 26 -18 40 3 57 13 11 17 11 20 2 6 -18 23
-16 23 2 0 22 -57 20 -69 -2z"/>
<path d="M1595 6494 c0 -51 1 -54 25 -54 17 0 21 3 12 9 -21 13 -11 75 12 79
16 3 18 -2 15 -42 -4 -42 -2 -46 18 -46 20 0 21 3 11 30 -12 36 -5 60 18 60
14 0 16 -8 12 -45 -5 -43 -4 -45 19 -45 19 0 23 3 15 13 -6 7 -12 30 -14 52
l-3 40 -70 1 -70 2 0 -54z"/>
<path d="M5723 6543 c-32 -11 -7 -23 47 -23 33 0 60 4 60 10 0 6 -3 10 -7 11
-43 4 -90 5 -100 2z"/>
<path d="M1960 6531 c0 -6 10 -17 22 -26 26 -17 37 -3 18 20 -14 17 -40 20
-40 6z"/>
<path d="M2650 6523 c0 -11 13 -13 58 -11 31 2 57 8 57 13 0 6 -26 11 -57 11
-44 1 -58 -2 -58 -13z"/>
<path d="M3472 6528 c6 -16 36 -34 44 -25 9 9 -15 37 -33 37 -8 0 -13 -5 -11
-12z"/>
<path d="M4158 6532 c-10 -2 -18 -8 -18 -13 0 -6 25 -9 60 -7 33 1 59 7 57 12
-3 10 -67 15 -99 8z"/>
<path d="M1054 6518 c-3 -4 11 -9 30 -9 78 -3 101 -1 93 8 -10 10 -117 11
-123 1z"/>
<path d="M5733 6502 c-47 -7 -21 -22 37 -22 33 0 60 4 60 9 0 10 -62 18 -97
13z"/>
<path d="M1110 6479 c-30 -3 -53 -7 -50 -8 12 -6 102 -6 111 0 19 11 -4 15
-61 8z"/>
<path d="M2650 6480 c0 -6 27 -10 60 -10 33 0 60 4 60 10 0 6 -27 10 -60 10
-33 0 -60 -4 -60 -10z"/>
<path d="M4140 6480 c0 -6 27 -10 60 -10 33 0 60 4 60 10 0 6 -27 10 -60 10
-33 0 -60 -4 -60 -10z"/>
<path d="M4026 6464 c-11 -8 -16 -14 -10 -14 13 0 39 18 34 24 -3 2 -14 -2
-24 -10z"/>
<path d="M4957 6453 c-11 -13 -17 -26 -15 -29 7 -7 40 34 37 44 -2 6 -12 -1
-22 -15z"/>
<path d="M735 6450 c-3 -5 -1 -10 4 -10 6 0 11 5 11 10 0 6 -2 10 -4 10 -3 0
-8 -4 -11 -10z"/>
<path d="M5391 6182 c-14 -20 -40 -56 -59 -80 -35 -44 -37 -60 -6 -48 9 4 14
9 10 13 -8 9 24 43 41 43 17 0 17 -37 1 -43 -9 -3 -7 -7 5 -12 9 -4 25 -4 35
0 12 5 13 9 4 12 -10 4 -11 23 -6 79 4 41 5 74 3 74 -2 0 -15 -17 -28 -38z
m-5 -59 c-10 -10 -19 5 -10 18 6 11 8 11 12 0 2 -7 1 -15 -2 -18z"/>
<path d="M5300 5912 c-36 -53 -68 -101 -73 -107 -4 -5 -33 -47 -65 -92 -31
-45 -91 -130 -132 -189 -41 -59 -114 -164 -162 -233 -127 -183 -180 -260 -203
-292 -11 -15 -46 -65 -78 -111 -32 -45 -92 -130 -133 -188 -41 -58 -91 -130
-111 -160 -20 -30 -39 -57 -43 -60 -3 -3 -27 -36 -53 -75 -26 -38 -61 -90 -78
-115 -53 -75 -132 -189 -164 -235 -16 -23 -50 -72 -75 -107 -64 -92 -106 -152
-189 -274 -41 -60 -92 -134 -113 -164 -21 -30 -46 -66 -56 -80 -9 -14 -46 -65
-82 -115 -36 -49 -73 -101 -82 -115 -28 -41 -119 -173 -175 -254 -29 -41 -53
-80 -53 -85 0 -12 19 -17 105 -30 118 -18 471 -73 525 -81 30 -5 98 -16 150
-25 52 -8 181 -29 285 -45 105 -17 262 -42 350 -55 192 -29 494 -77 700 -111
83 -13 236 -37 340 -54 105 -16 260 -40 345 -54 142 -23 230 -37 700 -111 85
-14 223 -35 305 -49 83 -13 227 -36 320 -51 94 -14 186 -30 205 -35 79 -20
110 -22 110 -5 0 13 -56 112 -163 290 -16 28 -69 117 -116 198 -47 82 -91 156
-96 165 -6 9 -30 51 -54 92 -23 41 -57 100 -75 130 -29 48 -129 219 -160 275
-6 11 -24 39 -39 62 -15 24 -27 45 -27 47 0 4 -85 148 -110 186 -5 8 -23 40
-40 70 -17 30 -39 69 -49 85 -51 83 -155 260 -201 340 -28 50 -73 128 -101
175 -28 47 -64 110 -81 140 -17 30 -40 71 -52 90 -26 41 -131 218 -161 270
-51 90 -150 260 -181 310 -19 30 -57 96 -84 145 -58 102 -64 113 -102 172 -16
23 -28 44 -28 48 0 5 -22 42 -77 131 -7 10 -25 42 -41 69 -15 28 -67 116 -115
197 -48 81 -87 152 -87 158 0 24 -19 3 -80 -88z m88 8 c3 3 22 -22 40 -55 19
-33 42 -72 51 -87 9 -14 43 -73 75 -130 33 -57 72 -121 87 -143 14 -22 39 -62
53 -90 15 -27 41 -70 56 -95 16 -25 43 -70 60 -100 16 -30 38 -68 48 -85 10
-16 35 -59 55 -95 21 -36 49 -83 63 -105 36 -59 65 -109 99 -170 17 -29 55
-95 85 -145 54 -90 85 -142 134 -230 14 -25 37 -63 50 -85 33 -53 71 -118 143
-245 33 -58 72 -125 88 -150 16 -25 41 -66 55 -92 20 -38 94 -164 177 -303 7
-11 15 -27 19 -35 5 -8 23 -38 41 -67 18 -29 33 -54 33 -57 0 -3 12 -24 28
-48 47 -75 52 -82 77 -133 14 -27 52 -93 85 -145 32 -52 81 -133 107 -179 26
-46 59 -103 73 -126 48 -81 93 -160 104 -180 22 -39 130 -221 158 -264 15 -25
28 -47 29 -50 7 -54 5 -62 -21 -56 -48 10 -363 61 -675 110 -82 13 -161 26
-175 29 -14 4 -99 17 -190 31 -91 13 -194 29 -230 35 -36 7 -105 18 -155 25
-49 8 -175 27 -280 44 -239 38 -457 72 -701 110 -106 17 -202 33 -215 36 -13
3 -82 14 -154 25 -71 11 -218 34 -325 50 -337 51 -504 78 -530 84 -14 4 -99
17 -190 31 -542 80 -500 73 -500 90 0 14 200 318 221 335 3 3 26 33 50 68 24
35 58 83 74 106 17 24 39 56 50 72 10 16 38 54 61 85 23 30 51 69 61 86 10 17
44 68 75 114 32 46 83 120 113 164 30 44 72 105 94 135 42 58 93 130 206 295
38 55 88 127 111 160 148 211 182 259 240 340 35 50 89 126 120 170 30 44 82
118 115 165 33 47 79 114 103 150 24 36 67 97 94 135 28 39 76 106 106 150 31
44 73 105 95 135 22 30 52 75 67 100 15 25 39 60 53 78 23 32 26 33 38 15 8
-10 17 -16 21 -13z"/>
<path d="M5370 5863 c0 -39 9 -65 21 -58 10 7 1 65 -12 80 -5 5 -9 -4 -9 -22z"/>
<path d="M5385 5769 c-8 -23 -1 -72 12 -76 8 -3 10 9 6 39 -6 49 -10 57 -18
37z"/>
<path d="M5397 5653 c-10 -16 3 -87 13 -76 5 4 5 26 1 48 -4 25 -9 35 -14 28z"/>
<path d="M5406 5503 c7 -39 11 -49 18 -42 7 8 -7 79 -16 79 -5 0 -6 -16 -2
-37z"/>
<path d="M5416 5422 c-8 -13 5 -82 15 -82 5 0 6 19 3 43 -8 47 -10 52 -18 39z"/>
<path d="M5429 5306 c-8 -9 2 -76 12 -76 5 0 9 8 8 18 -2 28 -14 64 -20 58z"/>
<path d="M5440 5156 c0 -25 5 -46 10 -46 6 0 10 18 10 39 0 22 -4 43 -10 46
-6 4 -10 -12 -10 -39z"/>
<path d="M5446 5043 c9 -50 24 -66 24 -26 0 38 -9 63 -22 63 -5 0 -6 -16 -2
-37z"/>
<path d="M5456 4962 c-6 -9 12 -82 19 -82 3 0 5 20 5 45 0 41 -11 58 -24 37z"/>
<path d="M5471 4823 c0 -16 4 -37 9 -48 6 -15 9 -8 9 28 1 26 -3 47 -9 47 -5
0 -10 -12 -9 -27z"/>
<path d="M5482 4696 c2 -22 9 -41 15 -44 9 -2 11 6 7 30 -10 50 -26 60 -22 14z"/>
<path d="M5490 4586 c0 -19 5 -38 11 -41 15 -10 17 -4 11 38 -5 47 -22 49 -22
3z"/>
<path d="M5500 4473 c0 -29 15 -61 24 -52 8 8 -6 79 -15 79 -5 0 -9 -12 -9
-27z"/>
<path d="M5514 4368 c3 -13 6 -34 6 -47 0 -16 3 -22 10 -15 12 12 1 84 -12 84
-6 0 -8 -10 -4 -22z"/>
<path d="M5527 4233 c6 -40 10 -49 18 -42 7 8 -7 79 -16 79 -4 0 -5 -17 -2
-37z"/>
<path d="M5540 4122 c0 -23 5 -42 10 -42 7 0 8 14 4 38 -9 51 -14 53 -14 4z"/>
<path d="M5547 4044 c-8 -8 4 -77 14 -88 5 -6 9 9 9 36 0 44 -10 65 -23 52z"/>
<path d="M5688 3978 c-71 -58 -59 -148 20 -148 28 0 69 26 58 37 -3 3 -12 -2
-21 -11 -35 -34 -75 -13 -75 40 0 66 78 115 100 62 5 -13 9 -18 9 -11 1 6 4
18 7 27 5 13 -2 16 -38 16 -24 0 -51 -6 -60 -12z"/>
<path d="M5560 3886 c0 -25 5 -46 10 -46 6 0 10 18 10 39 0 22 -4 43 -10 46
-6 4 -10 -12 -10 -39z"/>
<path d="M5525 3813 c-21 -12 -25 -18 -14 -20 21 -5 69 14 69 27 0 14 -20 12
-55 -7z"/>
<path d="M5613 3785 c29 -26 47 -32 47 -16 0 11 -45 41 -62 41 -7 0 0 -12 15
-25z"/>
<path d="M5443 3779 c-31 -9 -50 -25 -41 -35 8 -7 78 25 78 36 0 6 -1 10 -2 9
-2 0 -17 -5 -35 -10z"/>
<path d="M5315 3726 c-16 -7 -25 -15 -19 -19 13 -7 74 13 74 25 0 11 -20 9
-55 -6z"/>
<path d="M5680 3736 c0 -8 54 -56 62 -56 5 0 8 6 8 13 0 12 -12 21 -62 45 -5
2 -8 1 -8 -2z"/>
<path d="M5213 3686 c-23 -11 -31 -26 -14 -26 20 0 61 20 61 30 0 12 -18 11
-47 -4z"/>
<path d="M5792 3640 c12 -16 28 -30 35 -30 18 0 16 6 -9 35 -32 37 -54 33 -26
-5z"/>
<path d="M5108 3644 c-24 -12 -38 -34 -23 -34 12 0 75 35 75 42 0 12 -22 9
-52 -8z"/>
<path d="M4998 3598 c-27 -9 -38 -28 -18 -28 13 0 70 29 70 35 0 7 -22 5 -52
-7z"/>
<path d="M5860 3587 c0 -7 14 -21 30 -30 36 -21 39 -9 7 21 -27 25 -37 28 -37
9z"/>
<path d="M4888 3557 c-26 -10 -38 -27 -19 -27 19 0 71 23 71 31 0 11 -17 10
-52 -4z"/>
<path d="M4805 3520 c-3 -5 -15 -10 -26 -10 -10 0 -19 -4 -19 -10 0 -5 7 -10
16 -10 21 0 54 18 54 30 0 13 -17 13 -25 0z"/>
<path d="M5951 3513 c1 -14 60 -56 67 -48 4 4 -6 18 -21 31 -28 24 -48 31 -46
17z"/>
<path d="M4688 3473 c-21 -9 -38 -20 -38 -24 0 -12 5 -11 45 5 19 8 35 20 35
25 0 6 -1 11 -2 10 -2 -1 -20 -8 -40 -16z"/>
<path d="M6040 3446 c0 -3 12 -17 26 -31 27 -27 46 -27 24 0 -14 17 -50 39
-50 31z"/>
<path d="M4568 3428 c-27 -9 -38 -28 -18 -28 13 0 70 29 70 35 0 7 -22 5 -52
-7z"/>
<path d="M4463 3385 c-18 -8 -33 -19 -33 -25 0 -5 2 -10 5 -10 12 0 75 35 75
42 0 11 -9 10 -47 -7z"/>
<path d="M6130 3371 c0 -14 60 -54 68 -46 4 4 -6 18 -23 31 -32 25 -45 30 -45
15z"/>
<path d="M4347 3338 c-15 -5 -25 -14 -22 -18 6 -10 62 7 71 21 7 11 -13 10
-49 -3z"/>
<path d="M4243 3298 c-19 -9 -32 -28 -19 -28 15 0 66 24 66 31 0 12 -19 10
-47 -3z"/>
<path d="M6220 3299 c0 -14 41 -48 58 -49 22 0 13 14 -23 38 -19 12 -35 17
-35 11z"/>
<path d="M4141 3257 c-41 -20 -38 -37 3 -25 20 6 36 17 36 25 0 16 -8 16 -39
0z"/>
<path d="M6310 3225 c0 -12 55 -53 63 -48 11 7 -33 53 -50 53 -7 0 -13 -2 -13
-5z"/>
<path d="M4023 3213 c-13 -2 -23 -11 -23 -19 0 -18 36 -10 60 12 16 15 11 16
-37 7z"/>
<path d="M3918 3168 c-26 -9 -39 -28 -20 -28 12 0 72 30 72 36 0 6 -23 3 -52
-8z"/>
<path d="M6400 3147 c0 -7 14 -21 30 -30 36 -22 41 -4 8 24 -27 22 -38 24 -38
6z"/>
<path d="M3818 3127 c-31 -12 -37 -27 -10 -27 18 1 52 22 52 34 0 8 -8 6 -42
-7z"/>
<path d="M3708 3084 c-31 -16 -39 -41 -10 -29 9 4 25 10 35 12 9 3 17 12 17
19 0 17 -8 17 -42 -2z"/>
<path d="M6486 3083 c-8 -9 44 -63 61 -63 7 0 13 4 13 9 0 13 -66 61 -74 54z"/>
<path d="M3589 3030 c-20 -16 -21 -19 -7 -20 22 0 68 21 68 32 0 15 -38 8 -61
-12z"/>
<path d="M3493 2998 c-18 -6 -33 -17 -33 -24 0 -8 2 -14 5 -14 12 0 75 35 75
42 0 10 -5 9 -47 -4z"/>
<path d="M6580 3004 c0 -9 44 -54 53 -54 16 0 6 30 -15 44 -23 17 -38 20 -38
10z"/>
<path d="M3374 2946 c-32 -24 -9 -29 33 -7 35 18 36 20 12 21 -14 0 -34 -6
-45 -14z"/>
<path d="M6670 2928 c1 -16 49 -52 57 -44 6 5 -42 56 -53 56 -2 0 -4 -6 -4
-12z"/>
<path d="M3278 2907 c-16 -6 -28 -15 -28 -20 0 -5 7 -6 16 -3 9 3 27 9 40 12
13 3 24 10 24 15 0 11 -17 10 -52 -4z"/>
<path d="M6750 2863 c0 -16 69 -63 75 -52 4 6 5 11 4 13 -58 42 -79 52 -79 39z"/>
<path d="M6866 2760 c32 -33 44 -37 44 -16 0 15 -42 46 -61 46 -7 0 1 -13 17
-30z"/>
<path d="M6940 2708 c1 -16 49 -52 57 -44 6 5 -42 56 -53 56 -2 0 -4 -6 -4
-12z"/>
<path d="M7022 2638 c6 -18 57 -53 65 -44 5 4 -5 19 -22 32 -33 26 -49 31 -43
12z"/>
<path d="M7139 2539 c23 -21 36 -28 39 -20 6 17 -16 37 -48 46 -23 6 -23 4 9
-26z"/>
<path d="M7200 2496 c0 -10 48 -56 59 -56 17 0 13 11 -15 36 -23 22 -44 31
-44 20z"/>
<path d="M7290 2418 c0 -7 14 -21 30 -30 35 -20 40 -5 8 23 -27 22 -38 24 -38
7z"/>
<path d="M7380 2341 c0 -13 41 -41 60 -41 10 1 4 9 -15 25 -32 26 -45 31 -45
16z"/>
<path d="M7477 2265 c6 -17 63 -50 63 -37 0 8 -54 52 -64 52 -3 0 -3 -7 1 -15z"/>
<path d="M3027 2887 c6 -31 -13 -102 -33 -122 -14 -13 -11 -15 28 -15 59 0 91
23 86 62 -3 16 -1 31 4 34 14 9 9 52 -8 58 -9 3 -30 6 -48 6 -29 0 -33 -3 -29
-23z m63 -31 c-11 -14 -40 -22 -40 -12 0 3 5 17 10 32 10 25 12 26 27 11 13
-13 14 -19 3 -31z m-4 -41 c8 -20 -13 -45 -37 -45 -21 0 -22 4 -13 38 7 25 41
30 50 7z"/>
<path d="M7696 2166 c6 -15 -23 -113 -40 -135 -20 -26 102 -7 130 20 28 27 33
89 8 113 -20 21 -106 23 -98 2z m86 -21 c16 -36 0 -75 -39 -98 -18 -10 -36
-16 -41 -13 -5 3 -3 34 6 71 14 57 19 65 39 65 15 0 27 -9 35 -25z"/>
<path d="M5260 1731 c0 -57 3 -101 7 -98 4 4 5 32 4 62 -1 33 2 55 8 55 12 0
25 -63 18 -90 -5 -18 0 -20 41 -19 l47 2 -40 8 c-38 7 -38 8 12 5 l51 -3 4 54
c3 53 3 53 -27 54 -24 1 -26 3 -7 6 17 3 21 9 17 24 -5 15 -2 19 15 19 20 0
21 -4 19 -85 -1 -47 1 -88 5 -92 3 -3 7 35 8 85 0 51 1 97 2 103 1 7 -32 11
-92 12 l-92 2 0 -104z m50 54 c0 -18 -5 -25 -20 -25 -15 0 -20 7 -20 25 0 18
5 25 20 25 15 0 20 -7 20 -25z m60 10 c0 -8 -9 -15 -19 -15 -10 0 -21 7 -25
15 -4 11 1 15 19 15 16 0 25 -6 25 -15z m3 -52 c-13 -2 -33 -2 -45 0 -13 2 -3
4 22 4 25 0 35 -2 23 -4z m15 -40 c-2 -23 -8 -28 -33 -29 -29 -2 -29 -2 -2 3
40 6 38 43 -2 43 -25 0 -30 -5 -34 -27 -4 -26 -4 -26 -6 5 -1 31 0 32 40 32
38 0 40 -1 37 -27z m-28 -3 c0 -5 -7 -10 -16 -10 -8 0 -12 5 -9 10 3 6 10 10
16 10 5 0 9 -4 9 -10z"/>
<path d="M5562 1808 c-19 -19 -14 -30 10 -17 18 10 24 8 35 -7 15 -20 3 -45
-45 -96 l-26 -28 51 0 c35 0 53 4 56 15 5 11 0 13 -23 8 -37 -7 -38 3 -5 41
14 16 25 40 25 52 0 36 -53 57 -78 32z"/>
<path d="M10057 1258 c-4 -13 -18 -35 -32 -50 l-25 -27 35 4 c18 3 37 0 40 -5
8 -13 -22 -71 -49 -93 -21 -18 -20 -18 10 -3 28 13 39 31 58 89 7 21 54 23 62
3 3 -7 1 -29 -4 -47 -7 -28 -13 -34 -33 -32 -21 2 -22 2 -6 -8 30 -18 46 -3
53 51 5 41 10 50 26 50 16 0 15 4 -11 26 -17 14 -31 34 -31 45 0 13 -7 19 -21
19 -20 0 -20 -1 5 -31 14 -17 26 -35 26 -40 0 -5 -27 -9 -61 -9 l-60 0 22 31
c14 20 18 34 11 41 -6 6 -11 2 -15 -14z"/>
<path d="M1430 1251 c0 -18 -6 -21 -47 -21 -57 0 -53 -9 6 -12 l42 -1 -3 -71
c-2 -55 -6 -70 -17 -68 -12 3 -12 0 -2 -12 19 -23 31 -10 31 34 l0 39 32 -30
c18 -16 40 -29 50 -29 27 0 22 8 -22 30 -48 24 -51 40 -10 58 17 8 30 18 30
23 0 14 -26 10 -40 -6 -19 -23 -42 -19 -38 8 3 19 11 23 53 27 28 3 45 8 38
13 -6 4 -19 4 -29 0 -11 -4 -15 -3 -10 5 3 6 -3 16 -14 22 -22 12 -27 1 -8
-18 9 -9 7 -12 -11 -12 -16 0 -21 4 -18 15 4 8 2 17 -3 20 -6 4 -10 -3 -10
-14z"/>
<path d="M10262 1254 c27 -31 33 -112 10 -156 -14 -26 -15 -35 -5 -31 21 8 43
58 43 95 -1 40 -29 100 -50 106 -12 4 -12 1 2 -14z"/>
<path d="M2570 1251 c0 -5 9 -11 19 -14 17 -4 19 -11 14 -48 -6 -49 -36 -115
-55 -122 -8 -4 -7 -6 4 -6 11 -1 27 20 46 60 28 59 30 60 36 33 4 -16 12 -32
18 -35 15 -10 0 -29 -36 -45 -17 -7 -26 -13 -20 -14 6 0 28 7 49 16 34 14 39
14 62 -1 13 -9 29 -15 36 -12 6 2 -3 12 -21 22 -36 22 -38 27 -17 45 8 7 15
20 15 29 0 11 -7 7 -23 -13 l-24 -29 -16 24 c-25 35 -22 39 28 39 25 0 45 4
45 9 0 5 -10 7 -22 3 -22 -5 -22 3 -3 51 6 15 0 17 -64 17 -39 0 -71 -4 -71
-9z m111 -33 c-5 -15 -18 -24 -35 -26 -22 -3 -26 0 -26 22 0 23 4 26 35 26 31
0 34 -2 26 -22z"/>
<path d="M9770 1228 c-26 -42 -25 -94 1 -137 28 -46 33 -34 8 19 -19 38 -20
48 -9 84 7 23 17 47 22 54 6 6 8 12 4 12 -3 0 -15 -15 -26 -32z"/>
<path d="M9870 1237 c-27 -40 -32 -52 -11 -27 l21 25 0 -37 c0 -34 -3 -38 -26
-38 -16 0 -23 4 -18 12 4 7 3 8 -5 4 -19 -12 -7 -31 19 -31 17 0 26 -7 30 -25
10 -42 23 -4 21 63 -1 70 -10 86 -31 54z"/>
<path d="M721 1226 c-31 -33 -38 -94 -16 -139 9 -19 23 -38 30 -41 10 -3 8 5
-5 27 -26 41 -25 103 0 145 24 38 21 40 -9 8z"/>
<path d="M2975 1240 c-43 -17 -61 -54 -57 -118 3 -31 44 -46 88 -32 32 11 47
30 24 30 -5 0 -10 -4 -10 -10 0 -18 -56 -11 -75 10 -15 17 -16 24 -6 49 27 65
92 93 99 43 4 -28 22 -19 22 12 0 19 -6 23 -32 24 -18 0 -42 -3 -53 -8z"/>
<path d="M3098 1241 c10 -6 9 -22 -7 -81 l-20 -72 54 4 c42 4 59 10 74 29 38
45 19 120 -30 118 -15 0 -18 -3 -9 -6 21 -7 40 -33 40 -54 0 -29 -49 -79 -77
-79 -21 0 -23 3 -17 23 28 87 32 116 17 121 -23 9 -40 7 -25 -3z"/>
<path d="M870 1231 c0 -6 5 -13 10 -16 6 -3 10 -35 10 -70 0 -35 -4 -67 -10
-70 -5 -3 -10 -11 -10 -18 0 -7 7 -4 16 5 25 24 30 108 10 146 -17 32 -26 40
-26 23z"/>
<path d="M1802 1165 c-39 -42 -72 -78 -72 -81 0 -2 34 -4 75 -4 87 0 102 18
18 22 l-56 3 57 58 c31 33 56 63 54 68 -2 5 -36 -25 -76 -66z"/>
<path d="M2000 1205 c-12 -20 -27 -41 -33 -48 -7 -7 -22 -27 -35 -45 -22 -31
-22 -32 -2 -32 13 0 20 7 20 20 0 25 43 46 48 23 2 -8 -2 -20 -8 -28 -10 -13
-8 -15 16 -15 l29 0 0 80 c0 44 -3 80 -7 80 -3 0 -16 -16 -28 -35z m10 -35 c0
-11 -7 -20 -15 -20 -13 0 -14 4 -5 20 6 11 13 20 15 20 3 0 5 -9 5 -20z"/>
<path d="M2105 1231 c7 -12 -13 -99 -30 -126 -12 -19 -10 -20 38 -19 36 1 54
7 64 20 16 22 17 41 2 49 -7 5 -5 13 6 25 11 12 14 26 10 39 -5 17 -15 21 -51
21 -26 0 -43 -4 -39 -9z m60 -26 c0 -18 -30 -44 -40 -34 -3 4 -1 18 5 33 11
30 35 31 35 1z m-10 -75 c0 -20 -6 -26 -27 -28 -30 -4 -35 7 -17 39 14 28 44
20 44 -11z"/>
<path d="M2250 1223 c-1 -18 -30 -110 -42 -128 -4 -6 14 -9 50 -7 75 5 102 29
102 88 0 50 -17 64 -74 64 -28 0 -36 -4 -36 -17z m72 -10 c21 -19 23 -45 7
-76 -16 -29 -28 -37 -60 -37 l-26 0 15 65 c17 69 30 79 64 48z"/>
<path d="M774 1185 c-4 -9 -3 -19 1 -23 4 -4 10 -1 12 6 3 6 11 12 18 12 10 0
13 -12 12 -40 -3 -55 7 -71 30 -46 10 10 13 16 6 12 -8 -4 -13 8 -15 41 -3 44
-5 48 -31 51 -18 2 -29 -2 -33 -13z"/>
<path d="M1370 1192 c0 -10 21 -32 32 -32 16 0 8 19 -12 30 -11 6 -20 7 -20 2z"/>
<path d="M3373 1183 c-7 -2 -13 -13 -13 -24 0 -14 7 -19 25 -19 20 0 25 5 25
25 0 24 -11 29 -37 18z m27 -18 c0 -8 -4 -15 -10 -15 -5 0 -10 7 -10 15 0 8 5
15 10 15 6 0 10 -7 10 -15z"/>
<path d="M776 1134 c-12 -12 -13 -20 -6 -35 12 -21 25 -25 35 -9 3 6 1 10 -5
10 -8 0 -10 9 -6 25 7 29 3 31 -18 9z"/>
<path d="M1373 1118 c-18 -11 -33 -24 -33 -29 0 -18 26 -8 54 21 34 34 26 37
-21 8z"/>
<path d="M7794 753 c5 -10 -5 -13 -38 -13 -25 0 -46 -4 -46 -10 0 -5 11 -10
25 -10 14 0 28 -7 31 -15 4 -8 10 -15 15 -15 6 0 5 9 -1 20 -11 21 -8 23 28
14 14 -4 21 -12 18 -20 -7 -19 8 -18 24 1 7 8 19 15 26 15 8 0 14 5 14 10 0 6
-17 10 -38 10 -21 0 -44 6 -51 13 -11 10 -13 10 -7 0z"/>
<path d="M8562 728 c-7 -18 -14 -69 -15 -113 l-3 -80 15 37 c12 28 22 38 39
38 15 0 22 -6 22 -20 0 -11 -7 -20 -16 -20 -8 0 -12 -4 -9 -10 13 -21 33 -9
39 24 4 18 15 41 27 51 11 11 18 24 15 31 -8 20 17 64 37 64 22 0 22 -9 -3
-35 -20 -21 -24 -50 -21 -129 2 -48 12 -23 15 38 1 32 9 63 18 73 9 10 19 28
22 41 7 21 5 22 -51 21 -32 -1 -48 -4 -35 -6 27 -5 28 -15 2 -38 -11 -10 -20
-13 -20 -7 0 7 -7 12 -15 12 -8 0 -15 5 -15 10 0 6 5 10 10 10 6 0 10 5 10 10
0 6 -9 10 -20 10 -11 0 -20 5 -20 10 0 21 -16 8 -28 -22z m30 -20 c-6 -6 -15
-8 -19 -4 -4 4 -1 11 7 16 19 12 27 3 12 -12z m-2 -39 c0 -5 -4 -9 -10 -9 -5
0 -10 7 -10 16 0 8 5 12 10 9 6 -3 10 -10 10 -16z m30 6 c0 -8 -4 -15 -10 -15
-5 0 -10 7 -10 15 0 8 5 15 10 15 6 0 10 -7 10 -15z m21 -38 c-8 -8 -11 -7
-11 4 0 20 13 34 18 19 3 -7 -1 -17 -7 -23z m-51 4 c0 -6 -4 -13 -10 -16 -5
-3 -10 1 -10 9 0 9 5 16 10 16 6 0 10 -4 10 -9z m30 -6 c0 -8 -4 -15 -10 -15
-5 0 -10 7 -10 15 0 8 5 15 10 15 6 0 10 -7 10 -15z"/>
<path d="M9068 703 c-25 -49 -26 -67 -2 -43 6 6 8 -15 6 -55 -3 -42 0 -65 7
-65 7 0 11 31 11 86 0 47 5 94 10 104 6 10 7 21 3 23 -5 2 -20 -20 -35 -50z"/>
<path d="M9134 743 c-3 -10 -11 -29 -17 -43 -19 -42 -19 -46 2 -22 11 13 28
22 38 20 14 -3 18 -14 18 -63 0 -55 -2 -59 -25 -65 l-25 -6 25 -7 c14 -4 28
-7 33 -7 4 0 7 34 7 75 0 68 2 75 20 75 11 0 20 -5 20 -11 0 -5 5 -7 10 -4 24
15 6 25 -45 25 -55 0 -65 6 -44 27 8 8 8 13 0 18 -6 3 -14 -2 -17 -12z"/>
<path d="M9410 746 c0 -7 -7 -29 -15 -47 -13 -27 -15 -29 -11 -8 7 31 -2 43
-21 27 -18 -15 -29 -2 -13 17 8 10 9 15 2 15 -6 0 -16 -9 -22 -20 -6 -11 -15
-18 -21 -15 -5 4 -9 -24 -9 -69 l0 -75 31 6 c21 4 34 1 40 -8 6 -9 9 2 9 33 0
66 26 108 68 108 32 0 32 0 32 -51 0 -56 -13 -89 -36 -89 -8 0 -12 -4 -9 -10
7 -12 42 -13 48 -2 3 4 8 44 12 89 l7 81 -42 -5 c-40 -6 -42 -5 -35 16 4 12 2
21 -4 21 -6 0 -11 -6 -11 -14z m-40 -66 c0 -16 -7 -20 -30 -20 -18 0 -30 5
-30 13 0 20 10 27 37 27 16 0 23 -6 23 -20z m-5 -60 c0 -16 -6 -26 -19 -28
-25 -5 -39 12 -31 38 10 31 50 24 50 -10z"/>
<path d="M9561 725 c-21 -36 -15 -50 7 -15 13 21 72 29 72 10 0 -23 -36 -64
-68 -77 -19 -8 -32 -17 -29 -19 3 -3 16 0 29 7 23 12 74 14 153 4 l40 -5 -35
18 c-19 9 -45 27 -57 39 -27 27 -13 43 40 43 21 0 36 4 33 8 -3 5 -19 7 -37 4
-22 -3 -30 -1 -25 7 4 6 2 11 -4 11 -6 0 -13 -7 -16 -15 -4 -8 -11 -12 -18 -8
-6 4 -22 6 -35 4 -15 -2 -21 1 -17 8 4 6 3 11 -2 11 -6 0 -19 -16 -31 -35z
m109 -61 c0 -9 -10 -14 -27 -14 -25 0 -26 1 -8 20 19 21 35 18 35 -6z"/>
<path d="M9890 751 c0 -9 -12 -12 -39 -9 -33 3 -41 0 -45 -16 -6 -22 9 -36 36
-36 11 0 15 -5 12 -15 -4 -10 0 -15 12 -15 13 -1 10 -5 -11 -15 l-30 -14 33 6
c22 4 32 2 32 -7 0 -8 -14 -11 -45 -8 -25 2 -45 0 -45 -4 0 -5 20 -8 45 -8 43
0 45 -1 45 -30 0 -16 4 -30 10 -30 5 0 7 13 4 30 l-6 30 51 0 c29 0 51 5 51
11 0 6 -15 8 -44 4 -34 -6 -44 -4 -49 9 -7 18 6 21 34 6 12 -7 19 -7 19 -1 0
5 -9 12 -19 16 -30 9 -14 35 21 35 16 0 27 4 23 9 -3 5 -23 8 -45 6 -23 -2
-40 1 -40 6 0 6 20 9 47 8 30 -2 48 1 51 9 2 8 -10 12 -40 12 -24 0 -49 5 -56
12 -9 9 -12 9 -12 -1z m-15 -41 c-3 -5 -15 -10 -25 -10 -10 0 -22 5 -25 10 -4
6 7 10 25 10 18 0 29 -4 25 -10z m35 -28 c0 -14 -11 -21 -26 -15 -8 3 -11 9
-8 14 7 11 34 12 34 1z"/>
<path d="M3180 715 c0 -24 5 -35 15 -35 20 0 19 -39 -2 -65 -15 -19 -15 -18
-10 20 l5 40 -17 -37 c-21 -48 -41 -49 -41 -3 0 28 4 35 20 35 11 0 20 5 20
10 0 6 -9 10 -20 10 -27 0 -26 19 2 29 26 9 10 22 -19 15 -19 -5 -21 -11 -16
-61 5 -47 3 -58 -12 -69 -16 -12 -3 -14 93 -14 68 0 112 4 112 10 0 6 -7 10
-15 10 -12 0 -13 9 -8 48 9 66 9 67 1 70 -20 6 -48 1 -48 -9 0 -6 7 -9 15 -5
9 3 15 0 15 -9 0 -8 -7 -15 -15 -15 -8 0 -15 -4 -15 -10 0 -5 7 -10 15 -10 21
0 19 -20 -2 -20 -17 -1 -17 -2 1 -15 21 -16 14 -35 -13 -35 -16 0 -18 6 -13
45 4 41 3 45 -17 45 -11 0 -21 5 -21 10 0 6 9 10 20 10 11 0 20 5 20 11 0 6
-9 8 -20 4 -15 -5 -18 -3 -14 9 3 9 1 16 -5 16 -6 0 -11 -16 -11 -35z"/>
<path d="M4580 741 c0 -5 -7 -17 -17 -26 -12 -13 -16 -34 -15 -83 1 -90 1 -89
11 -73 5 8 19 12 35 9 25 -5 26 -3 26 38 0 24 5 44 10 44 6 0 15 11 20 25 8
20 16 25 45 25 35 0 35 0 34 -42 -2 -79 -12 -103 -39 -101 -22 2 -23 2 -7 -8
39 -23 52 4 61 124 l2 37 -43 0 c-41 0 -44 2 -38 21 5 15 4 19 -4 15 -6 -4
-11 -15 -11 -25 0 -9 -7 -26 -16 -37 -15 -18 -15 -18 -9 4 6 21 4 23 -15 17
-21 -7 -22 -5 -16 19 4 15 2 26 -4 26 -5 0 -10 -4 -10 -9z m30 -71 c0 -15 -7
-20 -25 -20 -18 0 -25 5 -25 20 0 15 7 20 25 20 18 0 25 -5 25 -20z m-5 -60
c0 -18 -6 -26 -22 -28 -20 -3 -23 1 -23 28 0 27 3 31 23 28 16 -2 22 -10 22
-28z"/>
<path d="M4883 731 c1 -12 7 -21 14 -21 17 0 16 15 -1 30 -12 9 -15 8 -13 -9z"/>
<path d="M5102 730 c-7 -12 -24 -26 -37 -32 -14 -6 -25 -16 -25 -21 0 -5 6 -5
13 2 20 16 27 4 27 -44 0 -28 -7 -51 -21 -69 -11 -14 -17 -26 -12 -26 16 0 30
15 37 38 7 20 14 22 72 22 57 0 64 -2 64 -20 0 -14 -7 -20 -22 -21 -23 0 -23
0 1 -10 14 -5 28 -6 32 -2 4 4 9 41 11 81 3 54 0 72 -9 72 -7 0 -13 -9 -13
-19 0 -11 -6 -22 -12 -25 -10 -5 -10 -7 0 -12 22 -10 14 -34 -10 -30 -13 3
-26 5 -30 5 -16 2 -7 21 10 21 16 1 16 1 0 11 -24 13 -23 36 2 51 28 18 25 28
-10 28 -16 0 -30 5 -30 10 0 18 -25 11 -38 -10z m58 -18 c0 -5 -3 -12 -7 -16
-4 -4 -8 -24 -8 -44 0 -33 -3 -37 -27 -38 -34 -1 -38 23 -5 29 l22 4 -22 8
c-22 7 -26 27 -10 53 9 13 57 17 57 4z"/>
<path d="M5334 738 c3 -10 -2 -22 -12 -28 -14 -9 -12 -11 11 -7 37 6 36 -21
-3 -85 -33 -54 -37 -67 -15 -48 12 10 15 10 15 -4 0 -21 16 -21 24 0 9 24 7
41 -4 24 -5 -8 -12 -11 -16 -7 -4 4 0 15 9 24 18 19 123 28 133 12 12 -21 -6
-59 -29 -59 -21 -1 -21 -1 -3 -12 15 -9 22 -7 33 8 7 10 13 26 13 35 0 10 3
24 6 33 4 11 1 16 -10 16 -9 0 -16 8 -16 20 0 11 -7 20 -16 20 -11 0 -13 6 -9
19 5 18 2 19 -31 14 -34 -6 -37 -4 -32 15 4 12 2 22 -3 22 -5 0 -9 -7 -9 -15
0 -20 -10 -19 -27 3 -14 16 -14 16 -9 0z m96 -48 c0 -5 -13 -10 -30 -10 -16 0
-30 5 -30 10 0 6 14 10 30 10 17 0 30 -4 30 -10z m20 -35 c0 -11 -12 -15 -45
-15 -57 0 -59 18 -2 23 23 2 43 4 45 5 1 1 2 -5 2 -13z"/>
<path d="M6729 695 c-14 -30 -22 -55 -17 -55 4 0 8 5 8 10 0 6 4 10 8 10 4 0
9 -26 10 -57 4 -90 12 -75 12 21 0 48 5 96 10 107 6 10 7 19 3 19 -4 0 -20
-25 -34 -55z"/>
<path d="M6790 732 c0 -10 -7 -27 -15 -38 -20 -27 -19 -40 3 -21 10 10 25 17
33 17 12 0 11 2 -1 10 -12 8 -13 13 -2 30 10 17 10 20 -3 20 -8 0 -15 -8 -15
-18z"/>
<path d="M6990 699 c0 -41 -3 -48 -22 -52 -13 -2 1 -5 30 -6 l52 -1 0 -35 c0
-19 -4 -35 -9 -35 -15 0 -33 29 -27 45 3 8 1 15 -4 15 -6 0 -10 -4 -10 -9 0
-4 -11 -25 -25 -45 -13 -20 -20 -36 -15 -36 5 0 16 10 24 22 14 20 17 20 33 6
22 -19 100 -30 128 -18 15 6 6 9 -33 9 -45 1 -53 4 -50 19 2 11 16 19 43 23
45 7 37 12 -14 9 -30 -2 -33 1 -28 19 4 18 1 21 -30 21 -22 0 -32 4 -27 11 4
7 27 10 60 7 l54 -5 0 44 c0 24 -5 43 -11 43 -6 0 -8 -9 -4 -20 6 -18 2 -20
-49 -20 -57 0 -78 16 -28 22 26 3 26 4 -5 9 l-33 6 0 -48z m110 -9 c0 -5 -20
-10 -44 -10 -25 0 -48 5 -51 10 -4 6 13 10 44 10 28 0 51 -4 51 -10z"/>
<path d="M7292 743 c-51 -2 -90 -8 -88 -12 3 -5 26 -6 51 -3 39 4 44 2 39 -12
-3 -8 -24 -29 -47 -46 -49 -36 -35 -40 17 -5 38 26 40 25 29 -13 -4 -18 -11
-23 -29 -19 -23 4 -24 1 -24 -46 0 -40 3 -48 12 -39 7 7 37 12 68 12 l55 0 1
39 c1 39 1 39 -32 34 -33 -6 -34 -5 -34 31 0 41 1 40 58 -1 24 -18 32 -20 32
-9 0 8 -18 22 -40 32 -55 24 -52 44 6 44 27 0 43 4 39 10 -3 6 -9 9 -13 8 -4
-1 -49 -4 -100 -5z m68 -150 c0 -21 -4 -23 -49 -23 -52 0 -65 8 -55 34 5 12
18 16 55 15 44 -2 49 -4 49 -26z"/>
<path d="M7460 643 c0 -62 4 -103 10 -103 6 0 10 38 10 95 l0 95 75 0 75 0 0
-80 c0 -67 -3 -80 -16 -80 -13 0 -14 -3 -4 -14 6 -8 18 -12 26 -9 11 4 14 27
14 102 l0 96 -95 0 -95 0 0 -102z"/>
<path d="M8030 742 c-30 -10 -42 -52 -14 -52 9 0 12 5 8 12 -4 6 1 17 11 24
21 15 18 24 -5 16z"/>
<path d="M8317 731 c3 -13 -1 -21 -14 -24 -10 -3 3 -5 29 -4 44 1 60 17 17 17
-10 0 -19 7 -19 15 0 8 -4 15 -9 15 -5 0 -7 -9 -4 -19z"/>
<path d="M8438 728 c0 -13 0 -32 1 -44 1 -19 -6 -22 -66 -31 -44 -7 -51 -9
-20 -7 46 3 47 2 47 -26 0 -17 -7 -33 -17 -39 -34 -19 -6 -21 33 -2 l38 19 19
-30 c10 -17 19 -29 21 -27 9 11 14 69 6 69 -6 0 -10 -8 -10 -17 0 -38 -19 6
-29 66 -11 71 -4 101 14 57 7 -16 15 -24 18 -19 8 13 -21 53 -39 53 -8 0 -15
-10 -16 -22z m10 -106 c3 -17 -2 -22 -17 -22 -14 0 -21 6 -21 18 0 38 33 41
38 4z"/>
<path d="M8815 740 c-17 -7 -17 -9 -2 -9 12 -1 17 -9 17 -28 l-1 -28 -15 25
c-14 23 -14 23 -9 3 4 -15 2 -23 -7 -23 -8 0 -7 -4 4 -11 16 -9 17 -13 3 -44
-15 -38 -5 -49 13 -12 9 18 10 14 7 -26 -2 -28 0 -45 6 -42 5 4 9 24 9 45 0
31 3 38 15 34 18 -7 20 7 3 24 -18 18 -5 23 25 9 31 -14 35 -27 10 -28 -12 0
-8 -5 12 -14 l30 -14 -35 -2 -35 -1 30 -7 c21 -4 31 -13 33 -29 4 -26 22 -20
22 9 0 13 7 19 23 19 16 0 23 6 23 20 0 11 -6 20 -13 20 -7 0 -13 5 -13 10 0
6 9 10 21 10 11 0 17 5 14 10 -3 6 -17 7 -31 4 -14 -4 -24 -2 -24 5 0 6 10 11
23 11 19 0 23 6 25 35 l3 35 -61 0 c-49 0 -60 -3 -60 -17 0 -9 -3 -13 -7 -10
-3 4 -12 -1 -19 -11 -12 -16 -13 -16 -14 0 0 9 8 22 18 27 16 10 15 10 -3 10
-11 0 -29 -4 -40 -9z m100 -9 c3 -5 1 -12 -5 -16 -5 -3 -10 1 -10 9 0 18 6 21
15 7z m35 -6 c0 -8 -4 -15 -10 -15 -5 0 -10 7 -10 15 0 8 5 15 10 15 6 0 10
-7 10 -15z m30 -1 c0 -8 -4 -12 -10 -9 -5 3 -10 10 -10 16 0 5 5 9 10 9 6 0
10 -7 10 -16z m-70 -35 c-24 -7 -24 -7 -2 -8 30 -1 28 -21 -3 -21 -14 0 -25 5
-25 10 0 6 -7 10 -16 10 -13 0 -14 3 -5 13 7 9 23 12 43 9 32 -5 32 -6 8 -13z
m57 5 c-3 -3 -12 -4 -19 -1 -8 3 -5 6 6 6 11 1 17 -2 13 -5z m-12 -54 c-3 -5
-13 -10 -21 -10 -8 0 -14 5 -14 10 0 6 9 10 21 10 11 0 17 -4 14 -10z m20 -30
c3 -5 -1 -10 -10 -10 -9 0 -13 5 -10 10 3 6 8 10 10 10 2 0 7 -4 10 -10z"/>
<path d="M1390 726 c0 -9 -13 -16 -32 -19 l-33 -4 33 -1 c30 -2 32 -5 32 -37
0 -25 4 -33 14 -29 8 3 17 1 21 -5 4 -7 -11 -11 -44 -11 -28 0 -51 -4 -51 -8
0 -5 21 -8 48 -8 l47 1 6 -40 6 -40 2 43 1 42 51 0 c27 0 48 4 45 9 -3 5 -27
6 -52 3 -33 -3 -45 -2 -40 6 4 6 13 9 21 5 12 -4 15 3 15 31 0 33 2 36 30 36
17 0 30 4 30 9 0 15 -18 23 -25 11 -10 -16 -35 -12 -29 5 4 9 0 15 -10 15 -9
0 -16 -7 -16 -16 0 -11 -8 -14 -27 -12 -16 2 -27 8 -25 16 1 6 -2 12 -8 12 -5
0 -10 -6 -10 -14z m70 -36 c0 -5 -11 -10 -24 -10 -14 0 -28 5 -31 10 -4 6 7
10 24 10 17 0 31 -4 31 -10z m0 -30 c0 -5 -14 -10 -31 -10 -17 0 -28 4 -24 10
3 6 17 10 31 10 13 0 24 -4 24 -10z"/>
<path d="M1840 638 l0 -98 95 0 c53 0 95 4 95 9 0 15 -18 23 -25 11 -3 -5 -13
-10 -21 -10 -10 0 -14 13 -14 50 0 28 -4 50 -10 50 -5 0 -10 -22 -10 -50 l0
-50 -40 0 c-22 0 -40 2 -40 3 0 2 7 18 16 36 9 18 16 47 16 65 0 33 1 34 49
40 27 4 49 11 49 16 0 6 7 10 15 10 8 0 15 3 15 8 0 4 -43 7 -95 7 l-95 0 0
-97z m125 72 c-3 -5 -21 -10 -39 -10 -32 0 -33 -1 -39 -50 -3 -27 -13 -62 -21
-77 -15 -27 -15 -24 -16 60 l0 87 61 0 c37 0 58 -4 54 -10z"/>
<path d="M2166 726 c4 -11 -3 -14 -33 -11 -35 2 -52 -7 -53 -29 0 -5 6 -4 13
1 6 6 46 13 87 16 49 4 70 3 60 -3 -8 -5 -43 -10 -78 -10 -40 0 -61 -4 -57
-10 3 -5 37 -10 74 -10 53 0 72 4 84 18 25 28 21 32 -28 32 -25 0 -45 5 -45
10 0 6 -7 10 -15 10 -8 0 -12 -6 -9 -14z"/>
<path d="M2353 733 c-26 -5 -31 -23 -8 -23 23 0 18 -18 -7 -23 l-23 -4 23 -2
c27 -1 27 -2 2 -51 -11 -22 -17 -40 -12 -40 5 0 14 10 20 23 9 19 11 14 11
-32 1 -30 4 -51 8 -48 4 4 5 32 4 62 -2 49 -1 54 16 48 14 -5 16 -3 6 7 -17
18 15 44 34 28 17 -14 17 4 1 21 -11 10 -9 12 7 9 12 -2 21 -13 23 -26 3 -18
-1 -22 -22 -22 -22 0 -26 -5 -26 -29 0 -16 -6 -32 -12 -34 -10 -4 -10 -6 0 -6
7 -1 12 -14 12 -31 0 -16 5 -30 10 -30 6 0 10 14 10 30 0 28 3 30 35 30 28 0
35 -4 35 -20 0 -14 -5 -18 -17 -14 -15 5 -16 4 -3 -5 25 -18 40 -12 40 14 0
14 6 25 13 25 9 0 9 2 -1 9 -8 5 -12 21 -10 37 3 25 0 29 -19 26 -13 -2 -23 0
-23 5 0 4 -3 18 -6 29 -4 16 0 23 15 27 23 6 28 -12 9 -31 -6 -6 -9 -15 -5
-19 4 -3 14 2 22 13 17 22 17 25 6 42 -13 21 -102 5 -108 -19 -6 -22 -43 -26
-43 -4 0 8 6 15 14 15 8 0 18 5 21 10 6 10 -11 11 -52 3z m107 -93 c0 -5 -7
-10 -15 -10 -8 0 -15 5 -15 10 0 6 7 10 15 10 8 0 15 -4 15 -10z m40 0 c0 -5
-4 -10 -9 -10 -6 0 -13 5 -16 10 -3 6 1 10 9 10 9 0 16 -4 16 -10z m-40 -30
c0 -5 -7 -10 -15 -10 -8 0 -15 5 -15 10 0 6 7 10 15 10 8 0 15 -4 15 -10z m40
0 c0 -5 -7 -10 -15 -10 -8 0 -15 5 -15 10 0 6 7 10 15 10 8 0 15 -4 15 -10z"/>
<path d="M3350 728 c0 -5 18 -8 41 -8 49 0 50 -23 1 -28 l-32 -3 0 -72 0 -72
90 0 90 0 0 57 c0 31 3 63 6 72 5 13 -3 16 -50 16 -45 0 -54 3 -50 15 5 11 21
15 60 15 30 0 54 3 54 8 0 4 -47 7 -105 7 -58 0 -105 -3 -105 -7z m60 -108 c0
-47 -3 -60 -15 -60 -12 0 -15 13 -15 60 0 47 3 60 15 60 12 0 15 -13 15 -60z
m60 45 c0 -9 -9 -15 -25 -15 -24 0 -32 10 -18 23 12 13 43 7 43 -8z m58 -48
c3 -52 1 -57 -18 -57 -18 0 -20 6 -20 53 0 30 3 57 7 61 17 16 28 -5 31 -57z
m-58 -17 c0 -36 -3 -40 -24 -40 -23 0 -25 3 -21 38 4 46 1 42 25 42 17 0 20
-7 20 -40z"/>
<path d="M4292 635 c-2 -68 1 -105 8 -105 6 0 10 29 10 71 l0 72 29 -6 c28 -6
29 -4 33 33 l4 40 -41 0 -40 0 -3 -105z m63 85 c-3 -5 -15 -10 -26 -10 -11 0
-17 5 -14 10 3 6 15 10 26 10 11 0 17 -4 14 -10z m-5 -30 c0 -5 -9 -10 -20
-10 -11 0 -20 5 -20 10 0 6 9 10 20 10 11 0 20 -4 20 -10z"/>
<path d="M4400 701 c0 -38 1 -39 33 -37 32 1 32 1 35 -51 3 -45 0 -53 -15 -53
-17 -1 -17 -1 0 -11 30 -18 37 0 37 97 l0 94 -45 0 -45 0 0 -39z m70 18 c0 -5
-11 -9 -25 -9 -14 0 -25 4 -25 9 0 5 11 9 25 9 14 0 25 -4 25 -9z m-10 -29 c0
-5 -9 -10 -20 -10 -11 0 -20 5 -20 10 0 6 9 10 20 10 11 0 20 -4 20 -10z"/>
<path d="M5728 659 l-76 -79 81 2 82 1 -65 6 -65 6 64 61 c35 33 62 65 60 71
-2 6 -39 -24 -81 -68z"/>
<path d="M5924 698 c-15 -24 -41 -60 -57 -80 -18 -24 -24 -38 -15 -38 7 0 18
10 23 23 6 12 19 22 30 22 15 0 19 -6 18 -22 -2 -17 2 -23 18 -23 11 0 18 4
15 8 -3 5 -2 41 3 80 4 40 4 72 0 72 -3 0 -19 -19 -35 -42z m6 -38 c0 -11 -7
-20 -15 -20 -13 0 -13 3 -3 20 7 11 14 20 15 20 2 0 3 -9 3 -20z"/>
<path d="M6027 717 c3 -13 -4 -49 -15 -80 l-19 -57 42 0 c52 0 86 30 68 60
-10 14 -9 21 2 30 36 30 6 70 -53 70 -25 0 -29 -3 -25 -23z m60 -13 c3 -8 -1
-23 -10 -31 -12 -12 -13 -20 -4 -34 13 -21 -5 -49 -33 -49 -14 0 -17 6 -13 23
3 12 10 27 15 33 5 7 8 16 6 20 -4 15 13 54 23 54 5 0 12 -7 16 -16z"/>
<path d="M6171 715 c-52 -45 -51 -129 1 -137 28 -5 78 10 78 23 0 5 -8 4 -18
-2 -27 -17 -68 -4 -75 23 -15 55 61 132 90 92 7 -10 13 -23 14 -28 0 -12 17
23 18 39 1 6 -17 11 -38 13 -30 2 -46 -4 -70 -23z"/>
<path d="M8074 722 c15 -18 15 -21 -4 -45 -25 -31 -28 -56 -4 -37 38 32 43
100 7 100 -15 0 -15 -2 1 -18z"/>
<path d="M770 656 c0 -54 4 -77 15 -86 22 -18 63 2 71 34 10 42 1 61 -31 63
-17 1 -23 0 -15 -4 32 -13 41 -61 16 -82 -21 -18 -31 10 -31 86 0 44 -4 63
-12 63 -9 0 -13 -21 -13 -74z"/>
<path d="M890 695 c11 -21 20 -51 20 -66 0 -33 -19 -89 -31 -89 -5 0 -9 -4 -9
-10 0 -21 19 -9 39 26 31 51 28 102 -9 144 l-29 35 19 -40z"/>
<path d="M2748 650 c-32 -44 -53 -82 -48 -85 6 -4 14 5 19 18 5 13 17 27 26
31 9 3 14 10 11 15 -3 5 1 14 9 21 12 10 14 5 11 -34 -2 -36 1 -46 13 -46 13
0 17 15 19 80 1 44 1 80 0 79 -2 0 -29 -36 -60 -79z"/>
<path d="M2883 697 c0 -18 -7 -53 -16 -79 l-16 -48 48 0 c42 0 50 3 55 23 3
12 3 32 0 44 -3 11 -1 24 5 27 17 11 13 43 -6 51 -10 4 -30 9 -44 11 -23 3
-25 0 -26 -29z m64 -2 c3 -9 -3 -25 -12 -35 -12 -13 -14 -20 -6 -20 8 0 11
-11 9 -27 -2 -22 -9 -29 -31 -31 -26 -3 -27 -1 -21 25 4 15 10 33 15 38 8 11
9 15 9 45 0 24 28 27 37 5z"/>
<path d="M3744 682 c0 -27 -8 -63 -17 -80 l-15 -32 42 0 c55 0 81 18 74 54 -3
14 -1 29 3 32 5 3 9 16 9 30 0 26 -30 44 -73 44 -19 0 -22 -6 -23 -48z m76 8
c0 -10 -7 -23 -16 -28 -14 -8 -14 -12 -3 -31 12 -20 12 -24 -5 -37 -11 -8 -26
-14 -33 -14 -17 0 -17 44 0 62 6 7 12 19 13 26 1 6 2 19 3 27 2 23 41 19 41
-5z"/>
<path d="M3902 714 c-86 -60 -44 -186 47 -140 39 21 40 28 2 13 -56 -21 -81 9
-62 74 8 27 20 43 36 49 29 11 55 3 55 -16 0 -8 5 -14 10 -14 6 0 10 10 10 23
0 18 -6 22 -38 25 -22 1 -47 -4 -60 -14z"/>
<path d="M4038 723 c14 -6 16 -49 2 -58 -5 -3 -10 -12 -10 -20 0 -8 -5 -26
-11 -42 -6 -15 -11 -30 -12 -33 -4 -10 89 3 114 16 31 15 39 32 39 80 0 27 -6
36 -30 49 -16 8 -46 15 -67 14 -21 0 -32 -3 -25 -6z m93 -37 c16 -33 -1 -78
-35 -94 -48 -24 -56 -12 -39 57 14 53 18 61 39 61 16 0 28 -8 35 -24z"/>
<path d="M4970 720 c-12 -8 -10 -10 8 -10 13 0 20 4 17 10 -7 12 -6 12 -25 0z"/>
<path d="M722 707 c-21 -25 -33 -72 -27 -108 6 -36 41 -86 53 -75 3 3 -3 15
-12 25 -35 39 -30 135 9 163 6 5 6 8 -1 8 -6 0 -16 -6 -22 -13z"/>
<path d="M1665 710 c-48 -4 -63 -7 -37 -8 l42 -2 0 -69 0 -70 -52 -4 c-29 -2
-2 -4 60 -5 63 -1 111 2 108 7 -3 5 -26 6 -51 3 l-45 -5 0 72 0 71 40 0 c22 0
40 5 40 10 0 6 -6 9 -12 8 -7 -1 -49 -5 -93 -8z"/>
<path d="M9595 710 c3 -5 11 -10 16 -10 6 0 7 5 4 10 -3 6 -11 10 -16 10 -6 0
-7 -4 -4 -10z"/>
<path d="M9685 710 c3 -5 11 -10 16 -10 6 0 7 5 4 10 -3 6 -11 10 -16 10 -6 0
-7 -4 -4 -10z"/>
<path d="M6887 703 c-4 -3 -7 -13 -7 -21 0 -12 3 -12 15 -2 8 7 15 16 15 21 0
11 -14 12 -23 2z"/>
<path d="M7588 703 c7 -3 16 -2 19 1 4 3 -2 6 -13 5 -11 0 -14 -3 -6 -6z"/>
<path d="M4826 670 c-30 -31 -29 -38 4 -20 14 8 21 4 35 -17 21 -32 14 -48
-36 -76 l-34 -19 30 7 c17 3 40 16 53 27 l22 21 23 -20 c26 -25 67 -39 67 -24
0 6 -3 11 -7 11 -5 0 -23 9 -41 20 l-33 20 18 30 c12 21 23 28 35 24 31 -9 20
15 -14 32 -29 15 -32 15 -20 1 12 -14 10 -20 -10 -42 l-24 -25 -22 24 c-12 14
-17 28 -12 31 12 7 13 25 3 25 -5 0 -21 -14 -37 -30z"/>
<path d="M6830 635 c0 -61 -2 -65 -22 -65 -22 -1 -23 -1 -4 -15 11 -8 23 -15
27 -15 4 0 9 36 11 80 2 44 0 80 -4 80 -5 0 -8 -29 -8 -65z"/>
<path d="M7888 693 c7 -3 16 -2 19 1 4 3 -2 6 -13 5 -11 0 -14 -3 -6 -6z"/>
<path d="M8323 683 c-37 -7 -26 -19 12 -15 19 2 32 8 29 13 -3 5 -8 8 -12 8
-4 -1 -17 -4 -29 -6z"/>
<path d="M6467 673 c-13 -12 -7 -43 8 -44 8 -1 21 -2 27 -3 7 -1 13 8 13 19 0
11 -4 20 -10 20 -5 0 -9 -6 -7 -12 2 -7 -4 -13 -13 -13 -12 0 -15 6 -10 20 6
20 4 25 -8 13z"/>
<path d="M7740 638 c0 -21 5 -38 10 -38 6 0 10 -11 10 -24 0 -28 31 -39 79
-30 31 7 39 18 21 29 -5 3 -10 1 -10 -4 0 -6 -17 -11 -39 -11 -33 0 -39 3 -43
25 -5 24 -3 25 42 25 43 0 50 -3 69 -32 13 -20 21 -27 21 -17 0 9 -7 22 -15
29 -8 7 -15 29 -15 49 l0 36 -65 0 -65 0 0 -37z m110 2 c0 -17 -7 -20 -45 -20
-57 0 -59 19 -2 22 l42 1 -45 7 -45 7 48 1 c41 2 47 -1 47 -18z"/>
<path d="M10124 665 c-4 -9 -2 -21 4 -27 15 -15 44 -1 40 19 -4 23 -36 29 -44
8z m34 -7 c-3 -7 -8 -13 -13 -13 -5 0 -10 6 -12 13 -3 6 3 12 12 12 9 0 15 -6
13 -12z"/>
<path d="M7510 630 l0 -35 45 3 c43 4 45 5 45 36 0 30 -1 31 -45 31 -45 0 -45
0 -45 -35z m78 3 c-2 -11 -14 -19 -31 -21 -22 -3 -27 1 -27 17 0 17 6 21 31
21 24 0 30 -4 27 -17z"/>
<path d="M9420 665 c1 -17 29 -49 37 -41 4 3 -3 16 -15 29 -12 12 -22 17 -22
12z"/>
<path d="M1998 653 c6 -2 18 -2 25 0 6 3 1 5 -13 5 -14 0 -19 -2 -12 -5z"/>
<path d="M2120 610 l0 -45 50 3 c31 3 50 0 50 -7 0 -6 -31 -12 -72 -14 -59 -2
-52 -3 35 -5 70 -1 106 2 102 8 -3 6 -16 8 -28 5 -21 -6 -22 -3 -19 49 l4 56
-61 -3 -61 -2 0 -45z m100 20 c0 -5 -18 -10 -39 -10 -22 0 -43 5 -46 10 -4 6
12 10 39 10 25 0 46 -4 46 -10z m0 -35 c0 -11 -11 -15 -39 -15 -38 0 -57 10
-44 24 3 3 24 6 45 6 27 0 38 -4 38 -15z"/>
<path d="M4660 653 c1 -11 26 -43 34 -43 15 0 4 30 -14 40 -11 6 -20 7 -20 3z"/>
<path d="M7110 650 c-22 -7 -21 -8 13 -9 20 -1 37 4 37 9 0 11 -14 11 -50 0z"/>
<path d="M9117 620 c-8 -22 -12 -40 -7 -40 4 0 14 15 21 33 7 17 14 35 17 40
2 4 -1 7 -6 7 -5 0 -16 -18 -25 -40z"/>
<path d="M9211 653 c2 -21 38 -86 38 -70 1 10 -6 31 -14 47 -15 29 -26 39 -24
23z"/>
<path d="M4344 628 c3 -13 6 -32 6 -43 0 -16 7 -20 39 -20 39 -1 39 -1 43 41
3 42 3 42 -27 37 -40 -8 -44 -13 -10 -13 34 0 25 -13 -10 -15 -18 0 -25 5 -25
17 0 10 -5 18 -11 18 -7 0 -9 -9 -5 -22z m76 -38 c0 -5 -13 -10 -30 -10 -16 0
-30 5 -30 10 0 6 14 10 30 10 17 0 30 -4 30 -10z"/>
<path d="M6779 618 c-7 -18 -15 -37 -17 -43 -3 -5 2 -4 11 4 10 7 17 21 17 30
0 9 5 22 12 29 8 8 8 12 1 12 -6 0 -17 -15 -24 -32z"/>
<path d="M6876 623 c7 -16 14 -34 14 -40 0 -7 5 -13 10 -13 13 0 13 4 -4 45
-8 19 -19 35 -25 35 -5 0 -3 -12 5 -27z"/>
<path d="M8728 643 c7 -3 16 -2 19 1 4 3 -2 6 -13 5 -11 0 -14 -3 -6 -6z"/>
<path d="M9590 586 c0 -31 3 -37 16 -32 9 3 37 6 63 6 46 0 48 1 48 29 0 29
-1 29 -64 33 l-63 3 0 -39z m108 2 c3 -15 -4 -18 -47 -18 -36 0 -51 4 -51 13
0 23 12 28 55 25 29 -2 41 -8 43 -20z"/>
<path d="M5440 615 c0 -18 19 -40 26 -32 4 4 0 15 -9 24 -9 10 -17 13 -17 8z"/>
<path d="M8300 582 c0 -37 1 -38 30 -34 27 4 30 8 30 38 0 31 -3 34 -30 34
-28 0 -30 -2 -30 -38z m40 3 c0 -8 -7 -15 -15 -15 -8 0 -15 7 -15 15 0 8 7 15
15 15 8 0 15 -7 15 -15z"/>
<path d="M8735 610 c-3 -5 1 -10 10 -10 9 0 13 5 10 10 -3 6 -8 10 -10 10 -2
0 -7 -4 -10 -10z"/>
<path d="M5410 596 c0 -8 5 -18 10 -21 6 -3 10 1 10 9 0 8 -4 18 -10 21 -5 3
-10 -1 -10 -9z"/>
<path d="M5382 580 c0 -14 2 -19 5 -12 2 6 2 18 0 25 -3 6 -5 1 -5 -13z"/>
<path d="M7806 586 c3 -9 11 -16 16 -16 13 0 5 23 -10 28 -7 2 -10 -2 -6 -12z"/>
<path d="M9825 579 c-16 -10 -23 -19 -15 -19 8 0 29 9 45 20 17 11 23 20 15
19 -8 0 -28 -9 -45 -20z"/>
<path d="M9948 580 c36 -22 42 -24 42 -12 0 10 -44 32 -63 32 -7 0 3 -9 21
-20z"/>
<path d="M1360 565 c-30 -32 -10 -33 27 0 20 17 23 24 12 25 -8 0 -26 -11 -39
-25z"/>
<path d="M1490 564 c17 -15 34 -23 38 -19 9 9 -35 45 -55 45 -9 0 -2 -11 17
-26z"/>
<path d="M7717 576 c-4 -10 -5 -21 -2 -24 9 -9 17 6 13 25 -3 17 -4 17 -11 -1z"/>
<path d="M8040 576 c0 -9 5 -16 10 -16 6 0 10 4 10 9 0 6 -4 13 -10 16 -5 3
-10 -1 -10 -9z"/>
<path d="M3131 560 c-16 -14 -19 -20 -8 -20 8 0 25 9 38 20 17 13 19 19 9 19
-8 0 -26 -9 -39 -19z"/>
<path d="M3250 560 c28 -22 40 -25 40 -10 0 11 -33 30 -52 30 -7 0 -2 -9 12
-20z"/>
<path d="M10118 354 c-4 -3 1 -14 10 -24 40 -44 46 -54 36 -57 -6 -2 -9 -14
-7 -26 2 -12 0 -35 -6 -50 -9 -23 -15 -27 -34 -22 -21 7 -21 6 -5 -10 31 -33
58 4 58 80 0 18 4 22 20 18 28 -8 25 4 -10 34 -16 13 -30 33 -30 44 0 18 -20
26 -32 13z"/>
<path d="M9786 320 c-14 -18 -29 -43 -32 -57 -7 -28 13 -98 33 -115 21 -17 27
-2 9 24 -24 34 -21 123 5 149 11 11 19 23 16 25 -2 3 -16 -9 -31 -26z"/>
<path d="M10035 302 l-30 -47 37 4 c21 1 38 0 38 -4 0 -13 -23 -51 -48 -77
-14 -16 -21 -28 -14 -28 18 0 63 53 69 82 4 19 13 28 32 31 14 2 2 5 -26 6
-29 0 -53 4 -53 9 0 4 9 18 20 32 21 26 25 40 13 39 -5 0 -22 -21 -38 -47z"/>
<path d="M10250 346 c0 -5 8 -18 17 -29 25 -27 24 -128 -1 -156 -11 -12 -14
-21 -7 -21 21 0 51 63 51 107 0 33 -7 50 -30 75 -16 18 -30 29 -30 24z"/>
<path d="M9842 328 c-7 -7 -12 -16 -12 -22 0 -6 5 -5 12 2 18 18 36 15 48 -7
8 -16 3 -28 -25 -65 -36 -48 -35 -55 5 -51 14 1 31 3 38 4 6 0 12 5 12 11 0 5
-13 7 -32 3 l-31 -6 26 35 c30 39 36 92 11 102 -24 9 -39 7 -52 -6z"/>
</g>
</svg>
