<?xml version="1.0" standalone="no"?>
<!DOCTYPE svg PUBLIC "-//W3C//DTD SVG 20010904//EN"
 "http://www.w3.org/TR/2001/REC-SVG-20010904/DTD/svg10.dtd">
<svg version="1.0" xmlns="http://www.w3.org/2000/svg"
 width="1141.000000pt" height="605.000000pt" viewBox="0 0 1141.000000 605.000000"
 preserveAspectRatio="xMidYMid meet">
<metadata>
Created by potrace 1.16, written by Peter Selinger 2001-2019
</metadata>
<g transform="translate(0.000000,605.000000) scale(0.100000,-0.100000)"
fill="#000000" stroke="none">
<path d="M11040 5984 c-6 -14 -14 -22 -20 -19 -6 4 -10 -25 -10 -81 0 -75 2
-85 15 -74 8 7 28 10 44 8 l29 -4 -2 77 c-1 76 -2 78 -23 72 -26 -6 -32 14
-11 35 9 9 9 12 0 12 -7 0 -17 -12 -22 -26z m40 -59 c0 -21 -5 -25 -30 -25
-25 0 -30 4 -30 25 0 21 5 25 30 25 25 0 30 -4 30 -25z m0 -65 c0 -25 -4 -30
-25 -30 -21 0 -25 5 -25 30 0 25 4 30 25 30 21 0 25 -5 25 -30z"/>
<path d="M11130 5999 c0 -5 5 -7 10 -4 6 3 10 8 10 11 0 2 -4 4 -10 4 -5 0
-10 -5 -10 -11z"/>
<path d="M10220 5988 c-3 -9 -7 -25 -9 -35 0 -4 -8 2 -16 13 -11 14 -14 15 -9
2 4 -12 -1 -18 -18 -21 -17 -3 -14 -5 11 -6 32 -1 33 -2 27 -33 -3 -18 -20
-55 -36 -83 -26 -43 -27 -46 -6 -23 13 15 26 32 28 39 6 17 148 25 148 7 -1
-38 -13 -58 -39 -59 l-26 0 23 -11 c29 -14 38 -5 50 50 9 38 8 42 -10 42 -14
0 -18 6 -16 23 2 16 -1 21 -15 19 -14 -2 -16 2 -11 22 6 24 4 25 -29 19 -31
-5 -36 -3 -40 18 -2 13 -5 21 -7 17z m60 -63 c0 -10 -10 -15 -30 -15 -20 0
-30 5 -30 15 0 10 10 15 30 15 20 0 30 -5 30 -15z m30 -40 c0 -11 -12 -15 -50
-15 -38 0 -50 4 -50 15 0 11 12 15 50 15 38 0 50 -4 50 -15z"/>
<path d="M10595 5970 c7 -11 -23 -130 -37 -147 -8 -10 -4 -13 16 -13 16 0 25
4 21 10 -4 6 -4 24 0 40 5 25 12 30 35 30 48 0 78 48 48 78 -14 14 -92 16 -83
2z m73 -23 c5 -23 -15 -47 -39 -47 -22 0 -23 8 -9 45 11 30 43 31 48 2z"/>
<path d="M10746 5966 c7 -20 -24 -138 -39 -148 -7 -5 -2 -8 14 -8 22 0 25 4
26 36 2 66 29 65 50 -1 5 -16 17 -31 25 -33 14 -3 13 3 -4 38 l-21 41 22 16
c15 10 21 23 19 41 -3 25 -7 27 -50 30 -39 3 -47 0 -42 -12z m70 -11 c8 -20
-13 -45 -37 -45 -22 0 -22 0 -9 34 10 29 37 35 46 11z"/>
<path d="M11112 5948 c-6 -17 -10 -34 -7 -36 2 -3 9 7 14 22 6 14 18 26 28 26
15 0 16 2 3 10 -22 14 -25 13 -38 -22z"/>
<path d="M11208 5927 c2 -29 0 -68 -5 -87 -8 -29 -14 -35 -34 -33 l-24 3 24
-12 c33 -17 51 11 51 81 0 31 3 66 6 79 4 15 2 22 -7 22 -11 0 -13 -13 -11
-53z"/>
<path d="M9894 5952 c-22 -21 -17 -46 16 -77 40 -38 37 -70 -5 -70 -23 0 -30
5 -35 25 l-6 25 -7 -25 c-10 -37 -10 -37 32 -38 42 -2 71 17 71 46 0 9 -14 31
-31 48 -36 37 -33 64 6 64 19 0 25 -5 25 -21 0 -11 5 -17 10 -14 6 3 10 14 10
24 0 24 -66 34 -86 13z"/>
<path d="M8897 5952 l-48 -3 3 -42 c3 -37 6 -42 26 -39 15 2 22 -2 22 -14 0
-12 -6 -15 -25 -12 -13 3 -22 1 -19 -3 3 -5 14 -9 25 -9 29 0 23 -18 -8 -23
-16 -2 -2 -5 30 -6 31 0 57 3 57 8 0 4 -11 6 -25 3 -15 -2 -25 0 -25 7 0 11
13 15 38 12 6 -1 12 3 12 10 0 7 -10 9 -25 7 -17 -4 -25 -1 -25 8 0 8 11 14
25 14 17 0 25 5 24 18 0 10 -3 12 -6 5 -2 -7 -13 -13 -24 -13 -17 0 -18 3 -7
20 7 11 19 18 25 15 14 -5 19 31 6 37 -5 2 -30 2 -56 0z m3 -42 c0 -33 -24
-42 -32 -12 -7 24 1 42 18 42 9 0 14 -11 14 -30z m34 23 c-5 -5 -12 -12 -16
-18 -4 -6 -8 -2 -8 8 0 9 7 17 17 17 9 0 12 -3 7 -7z"/>
<path d="M8876 5907 c3 -10 9 -15 12 -12 3 3 0 11 -7 18 -10 9 -11 8 -5 -6z"/>
<path d="M9010 5900 c0 -53 -2 -60 -20 -60 -17 0 -20 -7 -20 -47 l0 -48 50 3
50 4 0 44 c0 40 -2 44 -25 44 -24 0 -25 2 -23 60 2 33 0 60 -4 60 -5 0 -8 -27
-8 -60z m41 -77 c8 -51 4 -58 -33 -61 -37 -3 -38 -3 -38 32 0 34 2 36 35 36
19 0 36 -3 36 -7z"/>
<path d="M8387 5930 c6 -21 3 -22 -46 -19 -28 2 -51 0 -51 -4 0 -9 131 -9 192
0 53 8 38 22 -17 15 -34 -3 -50 0 -65 13 -18 16 -18 16 -13 -5z"/>
<path d="M8606 5933 c5 -20 1 -23 -23 -24 -27 0 -27 -1 -6 -9 20 -8 22 -14 17
-57 -3 -26 -10 -61 -15 -77 -5 -16 -7 -31 -5 -33 7 -7 31 66 35 110 1 4 8 7
16 7 21 0 20 -78 -2 -102 -14 -16 -14 -18 -1 -18 20 0 28 21 28 76 0 25 4 43
9 39 11 -6 47 37 56 66 6 17 10 15 32 -18 32 -48 32 -48 39 -40 4 3 -7 22 -24
41 -16 19 -32 40 -34 48 -6 16 -8 14 -37 -47 -13 -27 -26 -44 -28 -38 -3 8
-14 11 -29 7 -20 -5 -24 -2 -24 15 0 17 6 21 31 21 18 0 28 4 24 10 -4 6 -15
8 -24 5 -12 -3 -22 2 -29 17 l-12 23 6 -22z"/>
<path d="M9297 5943 c-16 -15 -5 -55 24 -88 26 -29 29 -38 19 -50 -18 -22 -46
-18 -64 7 l-16 22 0 -27 c0 -25 3 -27 45 -27 34 0 47 5 55 19 13 25 5 44 -32
82 -25 24 -28 32 -18 44 18 22 49 18 60 -7 5 -13 9 -18 9 -11 1 6 3 18 6 26 5
10 -5 14 -38 15 -24 1 -47 -1 -50 -5z"/>
<path d="M8059 5933 c-1 -5 -1 -16 0 -25 2 -13 -6 -18 -26 -19 -23 -2 -24 -2
-5 -6 27 -5 27 -13 1 -64 -11 -23 -15 -38 -9 -34 6 4 16 19 23 33 10 25 12 21
17 -43 l6 -70 3 70 c1 64 3 68 16 51 8 -11 17 -17 20 -14 3 3 -4 16 -15 31
-25 32 -25 37 1 37 11 0 18 4 14 10 -3 5 -13 6 -22 3 -13 -5 -15 -1 -11 20 3
15 1 27 -3 27 -5 0 -10 -3 -10 -7z"/>
<path d="M8119 5818 c2 -62 5 -107 8 -100 3 6 21 13 41 13 l37 2 -35 6 c-29 5
-35 10 -35 31 0 22 5 25 37 28 37 3 37 3 40 -40 2 -24 6 5 8 65 l5 107 -55 0
-55 0 4 -112z m91 77 c0 -22 -4 -25 -40 -25 -36 0 -40 3 -40 25 0 23 4 25 40
25 36 0 40 -2 40 -25z m0 -60 c0 -22 -4 -25 -40 -25 -36 0 -40 3 -40 25 0 23
4 25 40 25 36 0 40 -2 40 -25z"/>
<path d="M7222 5885 c-2 -29 1 -35 18 -35 24 0 28 -43 6 -66 -20 -19 -86 -19
-86 1 0 8 9 15 20 15 11 0 20 4 20 9 0 5 -9 7 -21 4 -17 -5 -20 -2 -17 13 2
11 11 18 21 18 9 -1 17 2 17 7 0 5 -9 9 -20 9 -27 0 -25 26 2 33 12 4 19 9 16
12 -3 3 -16 3 -30 0 -23 -6 -24 -9 -20 -71 3 -49 1 -64 -9 -65 -9 0 -8 -3 3
-7 26 -11 218 -2 218 9 0 6 -4 7 -10 4 -11 -7 -13 12 -10 88 2 49 -1 52 -35
37 -19 -8 -19 -9 3 -9 13 -1 22 -7 22 -16 0 -9 -10 -15 -22 -16 -17 -1 -19 -2
-5 -6 9 -2 17 -13 17 -23 0 -10 -8 -21 -17 -23 -17 -4 -17 -5 0 -6 30 -2 20
-31 -11 -31 -28 0 -29 1 -22 45 6 42 6 45 -17 45 -12 0 -23 5 -23 10 0 6 9 10
20 10 11 0 20 4 20 10 0 5 -7 7 -15 4 -9 -4 -15 0 -15 10 0 32 -16 15 -18 -19z"/>
<path d="M9050 5910 c-13 -8 -12 -10 3 -10 9 0 17 5 17 10 0 12 -1 12 -20 0z"/>
<path d="M7596 5896 c3 -8 -3 -46 -14 -85 -11 -39 -17 -73 -13 -75 11 -7 26 7
27 27 2 55 4 57 34 57 29 0 70 29 70 49 0 18 -44 41 -77 41 -24 0 -31 -4 -27
-14z m63 -5 c9 -6 11 -18 7 -35 -5 -19 -13 -26 -31 -26 -23 0 -25 3 -19 28 11
45 17 49 43 33z"/>
<path d="M7747 5883 c2 -16 -5 -54 -15 -85 -19 -56 -19 -58 -1 -58 15 0 19 8
19 33 0 36 13 62 27 54 5 -3 15 -24 23 -46 10 -30 19 -41 33 -41 18 0 19 1 4
18 -8 9 -18 29 -22 44 -5 21 -2 29 14 38 23 12 27 40 9 58 -7 7 -31 12 -53 12
-40 0 -41 -1 -38 -27z m79 2 c9 -21 -14 -45 -42 -45 -21 0 -22 2 -13 30 12 32
45 42 55 15z"/>
<path d="M11156 5884 c18 -26 28 -27 18 -1 -3 8 -12 18 -20 21 -11 4 -11 0 2
-20z"/>
<path d="M6685 5868 c-83 -65 -54 -185 36 -148 58 25 90 118 51 153 -25 23
-54 21 -87 -5z m73 0 c29 -29 -1 -117 -46 -137 -23 -11 -29 -10 -45 10 -10 12
-15 29 -12 36 3 8 5 21 5 28 0 21 50 75 69 75 9 0 22 -5 29 -12z"/>
<path d="M6852 5860 c-42 -41 -50 -84 -24 -120 l20 -27 -21 -22 -21 -21 59 0
c56 1 95 15 95 36 0 4 -5 3 -12 -4 -13 -13 -98 -17 -98 -4 0 4 19 16 42 27 46
22 75 56 82 96 11 69 -67 94 -122 39z m96 -10 c7 -60 -50 -133 -92 -117 -32
12 -10 125 26 141 7 2 24 4 38 3 19 -2 26 -8 28 -27z"/>
<path d="M8326 5860 c-16 -17 -25 -30 -20 -30 6 0 23 14 39 30 16 17 25 30 19
30 -5 0 -22 -14 -38 -30z"/>
<path d="M8460 5864 c17 -15 33 -24 36 -21 6 6 -45 47 -58 47 -5 0 5 -12 22
-26z"/>
<path d="M9554 5875 c-8 -20 4 -35 27 -35 14 0 19 7 19 25 0 18 -5 25 -20 25
-11 0 -23 -7 -26 -15z m36 -10 c0 -8 -7 -15 -15 -15 -8 0 -15 7 -15 15 0 8 7
15 15 15 8 0 15 -7 15 -15z"/>
<path d="M5833 5840 c-44 -26 -63 -88 -39 -125 40 -61 136 -1 138 86 1 33 -22
59 -51 59 -9 0 -30 -9 -48 -20z m71 -42 c0 -36 -6 -54 -24 -73 -28 -30 -55
-32 -70 -6 -24 45 27 136 73 129 19 -3 22 -9 21 -50z"/>
<path d="M5983 5816 c-1 -24 -9 -60 -17 -79 -13 -31 -13 -36 1 -41 21 -9 21
-9 21 28 0 19 3 40 7 46 10 17 32 -6 40 -41 5 -21 12 -29 28 -29 14 0 18 3 10
8 -6 4 -17 20 -23 36 -9 25 -8 32 10 48 37 35 18 68 -39 68 -35 0 -36 -1 -38
-44z m67 19 c16 -19 -3 -45 -31 -45 -22 0 -22 0 -9 34 11 30 22 33 40 11z"/>
<path d="M8424 5829 l-17 -33 -23 28 c-29 33 -32 19 -4 -17 23 -28 19 -34 -46
-68 -25 -12 -30 -17 -14 -14 14 4 38 16 54 28 l30 20 37 -21 c21 -12 48 -22
61 -21 16 0 8 7 -29 24 -29 13 -53 27 -53 30 0 3 7 20 16 36 8 17 13 33 10 36
-2 3 -12 -10 -22 -28z"/>
<path d="M8710 5855 c0 -6 38 -45 45 -45 14 0 2 20 -20 34 -14 9 -25 14 -25
11z"/>
<path d="M3900 5833 c0 -10 -9 -38 -20 -62 -15 -31 -16 -40 -6 -31 13 10 16 2
18 -60 l3 -71 49 25 48 24 44 -18 c25 -11 46 -15 49 -10 3 5 -15 15 -40 21
-41 10 -46 14 -43 38 3 22 8 26 41 29 30 3 37 7 33 18 -3 9 -6 24 -6 35 0 15
-5 17 -30 13 -23 -5 -30 -3 -30 10 0 12 10 16 41 16 22 0 38 4 34 9 -3 5 -22
7 -42 4 -31 -5 -35 -4 -30 10 4 11 1 17 -8 17 -8 0 -15 -6 -15 -14 0 -10 -13
-16 -37 -19 l-38 -4 38 -1 c26 -2 37 -7 37 -18 0 -12 -7 -14 -32 -9 -26 6 -30
5 -25 -10 4 -9 7 -27 7 -39 0 -19 4 -22 25 -18 20 3 25 0 25 -17 0 -24 -10
-27 -30 -8 -12 10 -12 9 0 -7 13 -16 12 -20 -9 -37 -46 -38 -53 -28 -49 74 2
50 7 100 12 110 5 11 4 17 -3 17 -6 0 -11 -8 -11 -17z m98 -85 c3 -13 -3 -18
-22 -18 -20 0 -26 5 -26 21 0 15 5 20 22 17 13 -2 24 -11 26 -20z m62 2 c0
-15 -7 -20 -25 -20 -18 0 -25 5 -25 20 0 15 7 20 25 20 18 0 25 -5 25 -20z"/>
<path d="M4162 5819 c-13 -16 -19 -29 -14 -29 9 0 33 25 46 48 14 23 -9 11
-32 -19z"/>
<path d="M4240 5808 l0 -43 47 1 48 1 3 42 3 41 -50 0 -51 0 0 -42z m80 17 c0
-8 -8 -16 -17 -16 -17 -1 -17 -2 0 -6 30 -8 18 -23 -18 -23 -19 0 -35 5 -35
10 0 6 5 10 12 10 9 0 9 3 0 12 -20 20 -14 28 23 28 24 0 35 -5 35 -15z"/>
<path d="M5414 5840 c-12 -5 -31 -29 -43 -54 -19 -38 -20 -49 -10 -68 24 -44
33 -48 76 -28 62 28 93 109 55 143 -20 18 -45 21 -78 7z m65 -19 c25 -47 -38
-143 -80 -120 -21 11 -24 43 -9 86 19 51 70 71 89 34z"/>
<path d="M3426 5831 c-4 -6 -12 -9 -17 -6 -5 4 -9 -10 -9 -29 0 -32 3 -36 26
-36 15 0 23 -4 18 -11 -3 -6 -16 -8 -29 -5 -15 4 -25 1 -28 -8 -4 -10 1 -12
16 -9 18 4 19 3 7 -6 -24 -17 -2 -13 25 5 23 15 25 15 31 0 3 -9 14 -16 23
-15 10 0 11 2 4 6 -24 9 -14 25 11 19 14 -3 28 -2 31 4 4 6 -11 11 -37 11 -30
2 -35 3 -15 6 23 4 27 9 27 37 0 31 -2 32 -31 28 -19 -3 -34 0 -39 8 -5 9 -9
9 -14 1z m71 -35 c4 -4 -14 -6 -40 -5 -26 2 -47 6 -47 10 0 9 77 5 87 -5z
m-14 -23 c-13 -2 -35 -2 -50 0 -16 2 -5 4 22 4 28 0 40 -2 28 -4z"/>
<path d="M3640 5830 c-30 -4 -47 -7 -37 -8 12 -2 17 -11 17 -36 0 -24 -5 -36
-17 -39 -17 -4 -17 -5 0 -6 21 -1 23 -54 2 -91 -21 -37 -18 -50 4 -16 10 15
22 46 25 67 4 25 12 39 21 39 12 0 15 -14 15 -66 0 -46 3 -63 11 -58 8 4 9 25
5 61 -6 49 -4 55 14 60 11 3 17 9 15 14 -3 4 -12 6 -20 2 -12 -4 -15 3 -15 31
0 30 4 36 21 36 11 0 17 5 14 10 -3 6 -9 9 -13 8 -4 -1 -32 -4 -62 -8z m30
-45 c0 -29 -4 -35 -20 -35 -17 0 -20 5 -16 28 2 15 5 30 5 35 1 4 8 7 16 7 10
0 15 -11 15 -35z"/>
<path d="M3740 5803 c-20 -20 -26 -31 -15 -25 24 12 72 62 59 61 -5 0 -25 -16
-44 -36z"/>
<path d="M5218 5813 c-56 -59 -45 -133 20 -133 60 0 112 80 90 139 -11 31 -25
25 -20 -9 9 -63 -25 -120 -72 -120 -46 0 -46 75 -1 124 13 14 21 26 16 26 -4
0 -19 -12 -33 -27z"/>
<path d="M7217 5826 c-4 -10 -7 -25 -6 -34 0 -11 4 -9 10 7 5 13 8 29 6 35 -2
5 -6 2 -10 -8z"/>
<path d="M10306 5827 c3 -10 9 -15 12 -12 3 3 0 11 -7 18 -10 9 -11 8 -5 -6z"/>
<path d="M2830 5812 c0 -27 -8 -28 -26 -4 -12 16 -13 15 -8 -5 4 -15 1 -23
-13 -26 -10 -3 -5 -5 14 -6 31 -1 31 -1 21 -38 -5 -20 -21 -54 -34 -74 -34
-54 -30 -60 6 -11 l30 42 70 0 c62 0 70 -2 70 -19 0 -35 -12 -51 -39 -51 -20
0 -23 -2 -11 -10 35 -22 53 -5 63 61 5 33 3 36 -15 31 -16 -4 -19 -1 -16 19 2
16 -2 24 -12 24 -10 0 -14 8 -12 22 3 20 -1 22 -35 20 -30 -2 -38 2 -38 15 0
9 -4 20 -8 24 -4 4 -7 -2 -7 -14z m70 -57 c0 -10 -10 -15 -30 -15 -20 0 -30 5
-30 15 0 10 10 15 30 15 20 0 30 -5 30 -15z m30 -40 c0 -12 -13 -15 -55 -15
-51 0 -65 7 -48 23 3 4 28 7 55 7 36 0 48 -4 48 -15z"/>
<path d="M3340 5809 c7 -11 14 -18 17 -15 8 8 -5 36 -17 36 -7 0 -7 -6 0 -21z"/>
<path d="M4642 5808 c-22 -24 -42 -69 -42 -94 0 -28 40 -56 68 -49 61 15 106
95 81 141 -17 33 -77 34 -107 2z m87 -2 c18 -21 -4 -90 -36 -115 -33 -27 -39
-26 -59 4 -39 60 51 164 95 111z"/>
<path d="M4810 5804 c0 -32 -20 -104 -33 -121 -7 -10 -4 -13 12 -13 16 0 21 6
21 24 0 42 11 56 41 56 19 0 34 8 45 25 22 34 4 55 -47 55 -35 0 -39 -2 -39
-26z m68 -11 c-2 -20 -9 -29 -25 -31 -24 -4 -26 0 -17 36 4 13 14 22 26 22 15
0 19 -6 16 -27z"/>
<path d="M10192 5809 c-7 -12 -11 -24 -7 -27 7 -8 25 17 25 36 0 17 -3 15 -18
-9z"/>
<path d="M10232 5810 c0 -14 2 -19 5 -12 2 6 2 18 0 25 -3 6 -5 1 -5 -13z"/>
<path d="M3148 5813 l-98 -4 0 -92 0 -92 72 5 73 5 -67 3 -68 3 0 79 c0 79 0
80 25 80 22 0 25 -4 25 -32 0 -18 -9 -49 -20 -68 l-21 -35 26 28 c18 20 25 39
25 68 0 34 3 39 23 39 20 0 22 -5 24 -50 1 -28 5 -55 8 -60 8 -13 42 -13 50 0
4 6 -5 10 -19 10 -24 0 -26 3 -26 51 0 49 1 50 28 47 l27 -3 0 -82 c0 -46 3
-83 8 -83 4 0 7 43 7 95 0 52 -1 94 -2 93 -2 -1 -47 -4 -100 -5z"/>
<path d="M4190 5796 c0 -8 -12 -29 -27 -48 -15 -18 -20 -27 -10 -19 16 12 17
10 17 -37 0 -28 5 -54 10 -57 6 -4 10 19 10 62 0 46 5 76 16 91 14 20 14 22 0
22 -9 0 -16 -6 -16 -14z"/>
<path d="M6338 5803 c23 -5 29 -18 12 -28 -6 -4 -18 -1 -26 6 -12 10 -13 9 -8
-5 9 -24 49 -17 49 9 0 14 -7 20 -25 22 -22 1 -22 1 -2 -4z"/>
<path d="M2515 5792 c-13 -5 -21 -18 -23 -37 -2 -16 -12 -54 -21 -82 l-18 -53
24 0 c15 0 22 4 18 11 -10 15 4 79 16 79 6 0 19 -20 30 -45 11 -25 24 -45 29
-45 13 0 13 4 -7 45 -16 34 -16 36 5 55 30 28 28 58 -4 70 -14 6 -26 10 -27 9
-1 -1 -11 -4 -22 -7z m51 -27 c8 -20 -13 -45 -37 -45 -13 0 -19 7 -19 23 0 13
3 27 7 30 12 13 44 7 49 -8z"/>
<path d="M1369 5763 c0 -16 0 -46 1 -68 1 -39 0 -40 -32 -40 -31 0 -33 2 -36
37 -3 33 -1 37 25 41 25 4 24 4 -7 6 l-35 1 1 -52 2 -52 41 3 41 3 0 -41 c0
-23 5 -41 10 -41 6 0 10 20 10 45 l0 44 40 -4 40 -4 0 52 0 52 -46 -4 c-46 -3
-47 -3 -40 23 4 15 2 26 -4 26 -5 0 -10 -12 -11 -27z m91 -68 c0 -33 -2 -35
-35 -35 -33 0 -35 2 -35 35 0 33 2 35 35 35 33 0 35 -2 35 -35z"/>
<path d="M2014 5775 c-44 -18 -74 -61 -74 -104 0 -46 14 -61 58 -61 57 0 115
82 98 138 -10 30 -47 42 -82 27z m54 -22 c5 -10 8 -22 7 -28 -2 -5 -6 -22 -9
-38 -13 -58 -87 -92 -101 -47 -23 72 71 175 103 113z"/>
<path d="M2153 5776 c7 -18 -15 -115 -34 -148 -7 -15 -5 -18 11 -18 14 0 20 7
20 23 0 51 11 66 48 69 30 2 38 8 46 31 13 35 1 47 -54 54 -38 5 -43 4 -37
-11z m72 -16 c12 -20 -6 -50 -31 -50 -26 0 -27 3 -18 38 6 23 38 30 49 12z"/>
<path d="M2324 5771 c-51 -31 -70 -108 -34 -138 20 -17 20 -17 0 -39 l-21 -21
56 -2 c55 -2 95 11 95 30 0 5 -10 3 -22 -5 -17 -11 -33 -12 -58 -7 l-35 8 35
16 c73 32 115 107 86 152 -20 31 -58 33 -102 6z m84 -31 c6 -74 -79 -144 -108
-90 -9 18 -8 31 5 66 19 49 38 65 75 61 21 -2 25 -8 28 -37z"/>
<path d="M8700 5787 c0 -2 14 -16 30 -32 20 -19 30 -24 30 -14 0 8 -13 23 -30
32 -16 10 -30 16 -30 14z"/>
<path d="M8861 5783 c0 -6 -4 -20 -7 -30 -5 -14 -4 -15 5 -7 7 7 11 20 8 30
-3 11 -5 14 -6 7z"/>
<path d="M8892 5770 c0 -14 2 -19 5 -12 2 6 2 18 0 25 -3 6 -5 1 -5 -13z"/>
<path d="M8917 5769 c4 -13 8 -18 11 -10 2 7 -1 18 -6 23 -8 8 -9 4 -5 -13z"/>
<path d="M8940 5781 c0 -5 5 -13 10 -16 6 -3 10 -2 10 4 0 5 -4 13 -10 16 -5
3 -10 2 -10 -4z"/>
<path d="M3330 5770 c-17 -5 -19 -8 -7 -9 13 -1 16 -7 11 -26 -4 -15 -2 -25 5
-25 18 0 13 -35 -10 -64 -20 -25 -14 -37 8 -15 8 8 17 8 32 0 30 -16 153 -19
158 -4 3 7 -3 9 -18 6 -19 -5 -20 -4 -10 15 16 30 15 32 -26 33 l-38 2 35 7
c23 5 28 8 13 9 -13 0 -23 6 -23 11 0 6 -5 10 -11 10 -5 0 -7 -4 -4 -10 4 -6
-8 -10 -27 -11 -29 -1 -30 -2 -9 -8 23 -6 23 -7 6 -24 -9 -10 -15 -20 -13 -23
3 -2 11 2 18 11 14 17 70 21 70 5 0 -5 -7 -10 -16 -10 -9 0 -12 -5 -8 -12 5
-8 -7 -10 -45 -5 -68 8 -71 11 -59 53 7 27 7 39 -2 44 -7 4 -9 16 -5 29 3 11
5 21 3 20 -2 -1 -14 -5 -28 -9z"/>
<path d="M3776 5765 c-3 -8 -20 -24 -38 -35 -18 -11 -26 -20 -17 -20 22 0 99
69 78 70 -9 0 -19 -7 -23 -15z"/>
<path d="M5593 5774 c7 -7 107 -7 115 0 3 3 -23 6 -58 6 -35 0 -61 -3 -57 -6z"/>
<path d="M809 5763 l-96 -4 3 -107 3 -106 43 4 c24 2 69 4 101 5 l57 0 0 107
c0 60 -3 107 -7 106 -5 -1 -51 -4 -104 -5z m93 -87 c4 -106 6 -104 -60 -108
-31 -2 -61 -1 -66 4 -6 4 15 8 45 8 l55 0 2 45 c1 25 -3 45 -8 45 -6 0 -10
-18 -10 -40 l0 -40 -45 0 c-43 0 -45 1 -45 29 0 23 5 31 23 34 16 3 13 5 -11
6 -32 1 -32 1 -30 -44 1 -41 -6 -65 -16 -54 -4 4 -9 155 -7 182 1 4 39 7 85 7
l84 0 4 -74z"/>
<path d="M767 5733 c-16 -15 -5 -33 19 -33 14 0 23 -4 19 -10 -4 -6 12 -9 42
-9 l48 2 -40 7 c-22 4 -30 8 -17 9 15 1 22 7 22 21 0 16 -6 20 -32 19 -24 -1
-27 -3 -10 -6 33 -6 27 -23 -9 -23 -24 0 -30 4 -25 15 5 15 -5 20 -17 8z"/>
<path d="M740 5679 c0 -5 11 -9 25 -9 14 0 25 2 25 4 0 2 -11 6 -25 8 -14 3
-25 1 -25 -3z"/>
<path d="M780 5620 c0 -14 7 -20 22 -20 21 0 21 0 2 15 -19 14 -18 14 4 15 13
0 22 -6 22 -16 0 -8 5 -12 10 -9 24 15 9 35 -25 35 -28 0 -35 -4 -35 -20z"/>
<path d="M4990 5760 c0 -12 64 -12 100 0 19 6 9 8 -37 9 -36 1 -63 -3 -63 -9z"/>
<path d="M1085 5752 c-13 -9 -13 -155 -1 -164 20 -14 35 3 25 29 -5 14 -9 50
-8 79 2 57 -1 67 -16 56z"/>
<path d="M4275 5749 c-72 -5 -74 -6 -23 -7 80 -3 85 -22 6 -24 l-63 -2 58 -3
c31 -2 57 -7 58 -11 0 -4 2 -15 4 -25 2 -11 -5 -21 -17 -26 -19 -7 -20 -8 -4
-14 26 -10 36 0 36 39 0 30 3 34 26 34 15 0 23 4 19 10 -4 6 -15 8 -26 5 -10
-4 -19 -2 -19 4 0 5 10 11 23 13 51 7 -4 13 -78 7z"/>
<path d="M140 5720 c-14 -14 -20 -33 -20 -66 0 -58 14 -84 45 -84 31 0 45 26
45 82 0 42 -21 88 -41 88 -5 0 -18 -9 -29 -20z m50 -72 c0 -44 -4 -60 -16 -65
-9 -3 -20 0 -25 8 -13 21 -11 113 3 127 22 22 38 -7 38 -70z"/>
<path d="M5590 5730 c0 -5 24 -10 54 -10 30 0 58 5 61 10 4 6 -17 10 -54 10
-34 0 -61 -4 -61 -10z"/>
<path d="M7173 5719 c-18 -12 -33 -23 -33 -24 0 -9 60 18 71 31 17 20 -1 17
-38 -7z"/>
<path d="M7308 5720 c41 -25 54 -25 23 0 -13 11 -31 20 -40 20 -9 0 -3 -8 17
-20z"/>
<path d="M20 5720 c-11 -7 -12 -10 -2 -10 10 0 13 -18 10 -75 -3 -71 -2 -75
18 -75 20 0 21 3 13 38 -4 20 -8 38 -9 40 0 1 0 22 0 47 0 46 -4 52 -30 35z"/>
<path d="M4990 5718 c0 -5 28 -7 63 -7 67 1 60 6 -15 11 -27 2 -48 0 -48 -4z"/>
<path d="M3781 5689 c-12 -16 -37 -39 -54 -50 -18 -10 -27 -19 -22 -19 20 0
73 39 94 69 29 40 12 41 -18 0z"/>
<path d="M1635 5701 c-3 -5 -1 -12 4 -16 6 -3 7 -13 4 -22 -4 -11 -3 -14 5 -9
14 9 16 56 3 56 -6 0 -12 -4 -16 -9z"/>
<path d="M3510 5699 c0 -5 5 -7 10 -4 6 3 10 8 10 11 0 2 -4 4 -10 4 -5 0 -10
-5 -10 -11z"/>
<path d="M4240 5692 c0 -5 7 -15 15 -22 8 -7 15 -8 15 -2 0 5 -7 15 -15 22 -8
7 -15 8 -15 2z"/>
<path d="M2920 5673 c0 -4 5 -15 10 -23 8 -13 10 -13 10 2 0 9 -4 20 -10 23
-5 3 -10 3 -10 -2z"/>
<path d="M2880 5663 c0 -4 5 -15 10 -23 8 -13 10 -13 10 2 0 9 -4 20 -10 23
-5 3 -10 3 -10 -2z"/>
<path d="M5361 5656 c-11 -13 -6 -15 31 -18 47 -3 98 9 98 23 0 6 -9 5 -20 -1
-12 -6 -31 -8 -43 -5 -12 4 -29 9 -38 11 -9 2 -22 -2 -28 -10z"/>
<path d="M2803 5635 c-6 -14 -7 -25 -2 -25 11 0 22 25 17 39 -1 6 -8 -1 -15
-14z"/>
<path d="M2847 5645 c-4 -8 -2 -17 3 -20 6 -4 10 3 10 14 0 25 -6 27 -13 6z"/>
<path d="M3200 5640 c0 -5 5 -10 11 -10 5 0 7 5 4 10 -3 6 -8 10 -11 10 -2 0
-4 -4 -4 -10z"/>
<path d="M250 5580 c0 -5 5 -10 10 -10 6 0 10 5 10 10 0 6 -4 10 -10 10 -5 0
-10 -4 -10 -10z"/>
<path d="M6197 5409 c8 -8 5 -31 -8 -82 -10 -39 -16 -74 -13 -79 9 -14 24 2
24 27 0 40 11 55 40 55 56 0 79 70 27 84 -39 10 -82 7 -70 -5z m72 -16 c12
-23 -4 -53 -29 -53 -23 0 -28 38 -8 58 16 16 25 15 37 -5z"/>
<path d="M810 5374 c0 -24 -3 -26 -40 -22 l-40 4 0 -52 0 -52 46 6 46 5 -3
-41 c-2 -23 0 -44 4 -48 4 -4 7 14 7 39 l0 47 43 0 43 0 0 48 -1 49 -44 -5
c-43 -5 -44 -4 -39 22 4 18 1 26 -8 26 -8 0 -14 -11 -14 -26z m3 -48 c12 -31
0 -51 -31 -54 -26 -3 -32 1 -38 22 -3 14 -3 30 1 35 9 16 62 13 68 -3z m87
-21 c0 -33 -2 -35 -35 -35 -33 0 -35 2 -35 35 0 33 2 35 35 35 33 0 35 -2 35
-35z"/>
<path d="M980 5353 c0 -39 2 -43 25 -43 34 0 32 -20 -2 -21 -25 0 -25 -1 -8
-8 11 -5 23 -7 28 -4 4 2 7 -3 7 -11 0 -8 -12 -17 -27 -19 -16 -3 -4 -4 25 -2
54 2 86 15 38 15 -16 0 -25 4 -21 10 3 6 15 10 26 10 10 0 19 5 19 11 0 6 -8
8 -19 4 -15 -4 -20 -1 -19 12 0 10 -3 30 -7 46 -6 23 -4 27 13 27 12 0 23 4
26 8 2 4 -20 8 -50 8 l-54 0 0 -43z m50 -3 c0 -20 -5 -30 -15 -30 -9 0 -15 9
-15 23 0 18 2 19 10 7 5 -8 10 -10 10 -4 0 5 -5 15 -12 22 -9 9 -8 12 5 12 12
0 17 -8 17 -30z"/>
<path d="M1141 5343 c-1 -56 -3 -63 -21 -63 -17 0 -20 -7 -20 -49 l0 -48 43 8
c23 4 45 8 50 9 4 0 7 20 7 45 0 43 -1 45 -25 39 -23 -6 -25 -3 -25 25 0 26 4
31 25 31 14 0 25 5 25 10 0 6 -10 8 -24 4 -21 -5 -25 -2 -29 23 -2 15 -5 0 -6
-34z m39 -102 c0 -24 -5 -29 -30 -33 -36 -5 -40 -3 -40 34 0 25 3 28 35 28 32
0 35 -3 35 -29z"/>
<path d="M1050 5359 c0 -5 6 -8 13 -6 7 1 11 -7 9 -20 -2 -13 2 -23 7 -23 6 0
11 13 11 28 0 21 -5 28 -20 29 -11 1 -20 -2 -20 -8z"/>
<path d="M1344 5316 c-9 -24 4 -48 23 -44 12 2 18 12 18 28 0 29 -32 41 -41
16z m31 -16 c0 -7 -6 -15 -12 -17 -8 -3 -13 4 -13 17 0 13 5 20 13 18 6 -3 12
-11 12 -18z"/>
<path d="M990 5211 c-12 -24 -13 -34 -1 -27 9 6 22 46 15 46 -2 0 -8 -9 -14
-19z"/>
<path d="M1020 5213 c0 -13 5 -23 10 -23 13 0 13 11 0 30 -8 12 -10 11 -10 -7z"/>
<path d="M1046 5215 c4 -8 8 -15 10 -15 2 0 4 7 4 15 0 8 -4 15 -10 15 -5 0
-7 -7 -4 -15z"/>
<path d="M1076 5217 c3 -10 9 -15 12 -12 3 3 0 11 -7 18 -10 9 -11 8 -5 -6z"/>
<path d="M6095 5098 c-21 -24 -86 -95 -144 -158 -58 -63 -110 -120 -116 -126
-5 -6 -55 -59 -109 -118 -55 -59 -108 -117 -118 -129 -11 -12 -36 -40 -57 -62
-20 -22 -88 -96 -151 -165 -63 -69 -119 -129 -126 -135 -6 -5 -71 -75 -144
-155 -73 -80 -176 -190 -229 -245 -53 -55 -153 -161 -221 -235 -68 -74 -161
-173 -205 -220 -44 -47 -118 -126 -165 -176 -47 -49 -153 -162 -235 -250 -273
-289 -295 -313 -295 -325 0 -11 355 -9 1060 6 113 3 342 7 510 11 168 4 323 8
345 9 22 1 283 6 580 10 297 4 542 9 545 10 3 2 110 5 237 6 128 1 237 5 242
8 10 6 -12 103 -88 386 -18 66 -61 233 -96 370 -131 514 -153 593 -177 635
-11 19 -62 91 -113 160 -51 69 -159 217 -240 330 -127 176 -239 329 -345 470
-14 19 -41 56 -59 83 -17 26 -36 47 -40 47 -4 0 -25 -19 -46 -42z m81 -65 c20
-43 45 -98 56 -123 11 -25 50 -106 85 -180 36 -74 89 -189 118 -255 29 -66 86
-187 125 -270 85 -176 130 -274 130 -280 0 -4 -50 -28 -170 -80 -98 -43 -523
-236 -625 -284 -44 -21 -96 -45 -115 -54 -19 -8 -62 -28 -95 -43 -33 -15 -103
-46 -155 -69 -131 -59 -415 -188 -470 -213 -25 -11 -151 -68 -280 -125 -129
-58 -282 -127 -340 -154 -58 -27 -121 -55 -140 -63 -19 -7 -40 -17 -46 -22 -6
-4 -28 -14 -50 -22 -21 -8 -79 -33 -129 -56 -199 -93 -237 -110 -246 -110 -5
0 7 15 25 33 19 17 96 100 172 182 76 83 179 193 230 245 50 52 153 163 229
245 76 83 157 170 180 195 23 25 93 99 157 165 63 66 141 149 174 185 32 36
70 77 84 91 47 49 275 293 330 354 30 33 86 94 125 135 38 42 90 98 115 125
25 28 122 133 215 236 94 102 190 208 215 236 25 29 49 52 53 52 5 1 24 -34
43 -76z m143 -162 c48 -64 129 -174 181 -246 137 -192 175 -244 276 -380 50
-67 106 -143 123 -169 l32 -46 -43 -19 c-24 -10 -69 -30 -100 -45 -73 -33 -83
-33 -99 7 -13 34 -54 120 -188 404 -44 95 -81 174 -81 177 0 2 -29 64 -64 137
-108 228 -146 311 -146 323 0 6 6 3 12 -8 5 -10 50 -71 97 -135z m625 -878
c21 -71 64 -236 121 -458 95 -373 151 -587 179 -690 14 -49 24 -90 22 -92 -2
-3 -94 186 -149 307 -30 66 -89 193 -146 312 -22 48 -41 89 -41 91 0 3 -48
106 -106 228 -58 123 -102 225 -97 226 4 2 51 23 103 47 112 52 107 51 114 29z
m-179 -220 c32 -71 80 -173 106 -228 109 -232 199 -425 235 -505 22 -47 69
-147 106 -222 57 -117 64 -138 50 -142 -9 -2 -208 -7 -442 -10 -234 -4 -501
-8 -595 -11 -214 -6 -567 -13 -985 -20 -179 -3 -408 -7 -510 -10 -477 -12
-894 -17 -890 -12 3 4 57 28 120 56 110 46 356 156 485 215 258 118 389 178
545 246 52 23 118 52 145 65 52 24 214 97 300 135 28 12 78 35 113 51 35 16
65 29 67 29 1 0 49 22 106 49 240 112 369 172 454 209 84 37 160 72 410 185
55 25 105 46 111 46 6 1 37 -56 69 -126z"/>
<path d="M6591 3778 c-30 -11 -26 -47 10 -84 23 -24 29 -37 24 -54 -9 -28 -45
-23 -61 7 -12 26 -24 20 -24 -11 0 -17 7 -21 39 -24 72 -5 94 49 41 98 -16 15
-30 35 -30 44 0 11 9 16 30 16 24 0 30 -4 30 -22 0 -19 2 -20 10 -8 5 8 10 20
10 26 0 15 -51 23 -79 12z"/>
<path d="M7120 4163 c-67 -25 -94 -117 -49 -166 11 -12 19 -11 52 1 69 28 107
112 68 151 -21 21 -41 25 -71 14z m48 -15 c15 -15 15 -50 0 -85 -17 -38 -38
-53 -68 -50 -60 5 -17 147 45 147 6 0 16 -5 23 -12z"/>
<path d="M7054 3966 c-15 -11 -11 -14 29 -19 47 -7 90 3 102 22 4 8 -1 8 -18
0 -16 -7 -35 -8 -60 -1 -26 7 -40 7 -53 -2z"/>
<path d="M7385 2570 c6 -10 -19 -113 -36 -142 -8 -15 -5 -18 17 -18 14 0 22 4
19 10 -10 16 6 80 20 80 7 0 18 -20 25 -45 10 -34 17 -45 33 -45 18 0 19 2 5
18 -8 9 -19 29 -25 44 -10 22 -9 27 7 31 25 6 38 56 19 68 -19 12 -92 11 -84
-1z m71 -15 c8 -20 -13 -45 -37 -45 -21 0 -22 4 -13 38 7 25 41 30 50 7z"/>
<path d="M3594 2504 c-28 -29 -34 -43 -34 -78 0 -47 13 -66 47 -66 42 0 80 27
97 70 21 52 20 66 -4 90 -31 31 -68 25 -106 -16z m95 4 c27 -73 -64 -177 -102
-117 -13 22 -1 81 24 113 26 33 66 35 78 4z"/>
<path d="M5520 2173 l0 -111 28 7 c15 5 26 13 25 20 -2 7 16 11 52 11 l55 0 0
45 c0 25 -4 45 -9 45 -4 0 -8 -17 -7 -37 l1 -38 -45 0 c-42 0 -45 2 -48 28 -4
32 14 42 49 27 24 -10 24 -10 -3 -7 -24 4 -28 1 -28 -19 0 -20 5 -23 30 -21
27 2 30 5 28 33 -2 29 -4 31 -45 33 l-43 2 0 -56 c0 -41 -3 -56 -12 -53 -9 3
-14 34 -16 96 l-3 92 91 0 90 0 0 -90 0 -90 -50 0 c-27 0 -50 -3 -50 -8 0 -4
21 -5 46 -3 32 2 49 -1 55 -10 5 -8 9 33 9 101 l0 115 -100 0 -100 0 0 -112z
m110 -33 c-19 -13 -30 -13 -30 0 0 6 10 10 23 10 18 0 19 -2 7 -10z"/>
<path d="M5865 2272 c-15 -10 -13 -161 2 -166 18 -7 19 0 13 91 -3 52 -9 80
-15 75z"/>
<path d="M5570 2240 c0 -14 7 -20 23 -21 12 -1 4 -5 -18 -9 -32 -6 -23 -7 44
-9 46 0 81 2 77 6 -4 4 -24 7 -44 6 -20 -1 -28 1 -17 4 20 5 35 21 35 36 0 4
-22 7 -50 7 -43 0 -50 -3 -50 -20z m80 0 c0 -5 -13 -10 -30 -10 -16 0 -30 5
-30 10 0 6 14 10 30 10 17 0 30 -4 30 -10z"/>
<path d="M11096 1496 c-3 -14 -18 -38 -32 -55 -14 -17 -20 -29 -12 -26 18 7
69 93 59 100 -5 2 -12 -6 -15 -19z"/>
<path d="M11171 1508 c22 -19 49 -65 42 -72 -4 -3 -36 -7 -72 -7 -36 -1 -56
-4 -43 -6 37 -7 24 -58 -26 -100 -15 -13 -22 -23 -16 -23 19 0 64 52 72 84 7
27 13 31 46 34 l39 3 -6 -38 c-4 -21 -7 -44 -7 -52 0 -10 -9 -12 -32 -8 l-33
6 29 -15 c38 -21 48 -9 54 61 4 49 7 56 23 52 26 -7 24 0 -10 29 -17 14 -33
34 -36 44 -4 11 -14 20 -23 20 -14 0 -14 -1 -1 -12z"/>
<path d="M11306 1489 c27 -30 27 -148 0 -178 -11 -12 -14 -21 -8 -21 20 0 52
67 52 109 0 48 -21 95 -47 105 -15 6 -14 4 3 -15z"/>
<path d="M10791 1474 c-12 -15 -21 -36 -22 -48 0 -11 -2 -28 -4 -37 -4 -23 30
-95 48 -102 13 -5 13 0 -3 26 -24 38 -26 104 -6 152 18 42 14 44 -13 9z"/>
<path d="M10855 1480 c-10 -11 -13 -20 -7 -20 6 0 14 5 17 10 11 17 43 11 50
-10 7 -22 -14 -67 -44 -94 -31 -28 -26 -36 23 -36 29 0 46 5 49 14 5 12 -1 13
-29 9 -41 -7 -42 2 -5 45 19 22 28 43 26 59 -5 44 -49 57 -80 23z"/>
<path d="M3670 1343 c-27 -19 -25 -34 10 -78 37 -47 36 -70 -5 -70 -23 0 -31
6 -36 25 l-7 25 -1 -27 c-1 -39 -28 -36 -44 5 -13 30 -12 34 10 54 28 27 29
35 5 56 -24 22 -94 23 -86 2 8 -19 -14 -113 -32 -142 -13 -21 -13 -23 9 -23
19 0 23 5 24 34 2 67 24 74 47 16 l16 -40 63 0 c94 0 114 36 56 96 -35 36 -34
64 2 64 13 0 23 -8 26 -21 4 -16 8 -17 14 -7 5 7 9 18 9 24 0 18 -58 22 -80 7z
m-82 -26 c5 -23 -15 -47 -39 -47 -16 0 -18 5 -13 28 4 15 9 31 11 35 8 14 38
2 41 -16z"/>
<path d="M3364 1334 c-53 -26 -79 -96 -54 -145 13 -24 66 -26 98 -3 52 36 69
121 30 148 -27 20 -35 20 -74 0z m76 -40 c0 -40 -37 -103 -65 -110 -54 -14
-71 50 -30 113 32 49 95 47 95 -3z"/>
<path d="M3182 1320 c-6 -14 -22 -51 -37 -84 -14 -32 -23 -61 -20 -64 6 -6
137 -4 143 3 2 1 -15 40 -36 86 -37 79 -40 83 -50 59z m35 -77 c12 -27 19 -51
16 -55 -6 -10 -96 -10 -91 0 2 4 11 28 22 55 10 26 22 47 25 47 4 0 17 -21 28
-47z"/>
<path d="M2460 1317 c-56 -28 -86 -111 -56 -152 15 -20 62 -23 95 -5 46 24 70
107 43 147 -12 19 -55 24 -82 10z m51 -7 c44 -24 3 -142 -52 -148 -58 -7 -63
75 -9 130 32 32 34 32 61 18z"/>
<path d="M2608 1318 c12 -12 -22 -148 -40 -159 -8 -6 -2 -9 19 -9 26 0 30 3
26 20 -3 11 -2 31 1 45 5 19 13 25 35 25 53 0 83 62 37 80 -31 11 -90 10 -78
-2z m76 -20 c12 -20 -8 -48 -35 -48 -21 0 -24 21 -8 51 12 22 27 21 43 -3z"/>
<path d="M2752 1313 c-12 -22 -1 -52 27 -77 26 -23 27 -51 4 -65 -15 -9 -15
-10 -3 -11 44 -1 53 55 15 90 -32 30 -34 70 -4 70 12 0 23 -8 26 -20 6 -24 23
-16 23 11 0 16 -7 19 -40 19 -27 0 -42 -5 -48 -17z"/>
<path d="M1885 1282 c10 -51 -5 -120 -32 -153 -14 -16 -22 -29 -19 -29 10 0
48 45 57 68 7 17 16 22 44 22 34 0 35 -1 35 -36 0 -31 -3 -36 -20 -31 -11 3
-20 2 -20 -3 0 -8 42 -22 48 -15 2 2 5 50 5 107 l2 104 -53 -1 -53 0 6 -33z
m85 -2 c0 -16 -7 -20 -35 -20 -28 0 -35 4 -35 20 0 16 7 20 35 20 28 0 35 -4
35 -20z m0 -55 c0 -22 -4 -25 -35 -25 -31 0 -35 3 -35 25 0 22 4 25 35 25 31
0 35 -3 35 -25z"/>
<path d="M2251 1247 c-18 -43 -35 -85 -38 -93 -4 -12 7 -13 68 -8 41 4 75 8
77 9 2 1 -14 40 -36 86 l-38 84 -33 -78z m57 -29 c12 -28 20 -53 18 -55 -2 -2
-24 -3 -49 -1 l-45 3 22 52 c11 29 23 53 26 53 3 0 15 -24 28 -52z"/>
<path d="M1518 1298 c17 -17 15 -31 -3 -24 -8 3 -15 1 -15 -4 0 -12 69 -10 76
2 3 4 10 6 15 3 5 -4 9 -2 9 4 0 6 -12 8 -29 5 -20 -4 -30 -2 -34 10 -4 9 -12
16 -19 16 -9 0 -9 -3 0 -12z"/>
<path d="M1608 1303 c29 -6 28 -14 -5 -54 -16 -18 -21 -29 -13 -24 8 5 31 8
52 6 22 -1 38 2 38 8 0 6 -12 8 -30 5 -33 -7 -37 1 -15 30 22 29 19 36 -17 35
-24 -1 -27 -3 -10 -6z"/>
<path d="M1670 1300 c-12 -8 -11 -14 9 -41 28 -38 16 -52 -41 -45 -36 4 -38 3
-38 -25 0 -16 8 -41 17 -55 16 -26 16 -26 -13 -22 -23 2 -30 8 -32 31 -2 17
-9 27 -20 27 -13 0 -14 -2 -4 -9 19 -12 11 -45 -12 -49 -16 -3 -18 1 -14 27 2
17 1 31 -4 31 -4 0 -8 -18 -8 -41 0 -28 4 -38 12 -33 6 4 56 6 110 5 67 -1 98
2 93 9 -3 6 -18 7 -33 3 l-26 -6 17 26 c9 14 17 40 17 56 0 16 6 32 13 35 10
5 10 7 0 12 -19 8 -16 34 4 34 14 0 14 3 -5 20 -24 23 -22 23 -42 10z m30 -20
c0 -5 -4 -10 -10 -10 -5 0 -10 5 -10 10 0 6 5 10 10 10 6 0 10 -4 10 -10z
m-20 -95 c0 -10 -11 -15 -35 -15 -24 0 -35 5 -35 15 0 10 11 15 35 15 24 0 35
-5 35 -15z m-12 -50 c-6 -14 -14 -25 -18 -25 -4 0 -12 11 -18 25 -11 24 -10
25 18 25 28 0 29 -1 18 -25z"/>
<path d="M1778 1237 l3 -72 40 3 39 4 -1 69 -1 69 -42 0 -41 0 3 -73z m62 38
c0 -20 -5 -25 -25 -25 -20 0 -25 5 -25 25 0 20 5 25 25 25 20 0 25 -5 25 -25z
m0 -65 c0 -25 -3 -29 -22 -26 -16 2 -24 11 -26 29 -3 23 0 27 22 27 22 0 26
-4 26 -30z"/>
<path d="M980 1287 c0 -4 10 -21 21 -37 18 -23 21 -38 17 -89 -3 -39 -11 -68
-23 -83 -15 -18 -13 -17 9 3 50 47 52 138 2 188 -14 14 -26 22 -26 18z"/>
<path d="M2932 1278 c-8 -10 2 -14 43 -15 40 -2 56 1 66 15 13 15 12 16 -4 3
-14 -11 -23 -12 -43 -2 -32 14 -49 14 -62 -1z"/>
<path d="M3974 1275 c-8 -20 4 -35 27 -35 14 0 19 7 19 25 0 18 -5 25 -20 25
-11 0 -23 -7 -26 -15z m36 -10 c0 -8 -7 -15 -15 -15 -16 0 -20 12 -8 23 11 12
23 8 23 -8z"/>
<path d="M810 1248 c-34 -56 -22 -139 26 -178 13 -12 13 -7 -4 24 -26 48 -24
136 3 166 11 12 13 20 6 20 -6 0 -20 -15 -31 -32z"/>
<path d="M1518 1233 c12 -2 30 -2 40 0 9 3 -1 5 -23 4 -22 0 -30 -2 -17 -4z"/>
<path d="M887 1224 c-4 -4 -7 -14 -7 -23 1 -14 2 -14 14 2 7 9 18 17 25 17 21
0 11 -26 -18 -48 -21 -15 -28 -27 -24 -41 4 -17 12 -20 44 -18 34 2 70 17 41
17 -6 0 -12 21 -14 48 -3 42 -6 47 -28 50 -14 2 -29 0 -33 -4z m46 -74 c-5
-20 -23 -26 -36 -13 -9 8 23 44 33 38 5 -3 6 -14 3 -25z"/>
<path d="M2968 1223 c-27 -2 -48 -9 -48 -15 0 -6 12 -8 31 -4 17 3 47 6 65 6
19 0 34 5 34 10 0 6 -8 9 -17 8 -10 -1 -39 -3 -65 -5z"/>
<path d="M2718 1192 c-4 -29 -2 -32 21 -32 14 0 21 4 16 8 -6 4 -15 18 -21 32
l-11 25 -5 -33z"/>
<path d="M1530 1200 c-24 -8 -23 -8 8 -9 17 -1 32 4 32 9 0 11 -5 11 -40 0z"/>
<path d="M2920 1170 c0 -6 28 -10 65 -10 37 0 65 4 65 10 0 6 -28 10 -65 10
-37 0 -65 -4 -65 -10z"/>
<path d="M11215 863 c-4 -13 -12 -23 -19 -23 -6 0 -5 -4 3 -9 10 -7 16 -34 19
-85 l4 -76 -29 0 -28 0 25 -14 c14 -7 28 -11 33 -9 4 2 7 27 7 56 0 49 1 50
15 30 23 -33 72 -65 80 -53 4 6 -7 15 -24 21 -26 9 -60 46 -49 53 2 1 16 10
31 19 15 10 25 23 21 28 -4 7 -14 3 -28 -9 -40 -36 -46 -36 -46 2 l0 36 52 0
c28 0 48 3 44 7 -4 4 -26 6 -51 4 -38 -2 -44 0 -48 21 l-4 23 -8 -22z"/>
<path d="M11265 860 c3 -5 8 -10 11 -10 2 0 4 5 4 10 0 6 -5 10 -11 10 -5 0
-7 -4 -4 -10z"/>
<path d="M10274 824 c-10 -8 -13 -13 -6 -9 9 5 12 -12 12 -69 0 -50 -4 -76
-12 -79 -7 -3 -1 -6 13 -6 l26 -1 -3 87 c-2 47 -6 88 -7 90 -2 1 -12 -4 -23
-13z"/>
<path d="M10393 832 c-20 -13 -34 -65 -28 -103 14 -81 74 -86 95 -8 18 64 -26
138 -67 111z m35 -14 c14 -14 16 -106 3 -127 -14 -23 -39 -5 -46 33 -7 34 10
106 24 106 4 0 12 -5 19 -12z"/>
<path d="M10500 825 c-18 -22 -1 -50 31 -50 20 0 24 5 24 30 0 23 -5 31 -21
33 -11 2 -27 -4 -34 -13z m48 -18 c4 -21 -27 -35 -38 -17 -12 19 0 42 19 38 9
-2 17 -11 19 -21z"/>
<path d="M9885 819 c-29 -15 -56 -55 -62 -93 -4 -26 0 -39 17 -56 l23 -23 -21
-18 c-12 -9 -22 -19 -22 -21 0 -2 25 -4 55 -6 56 -3 96 10 94 31 0 9 -2 9 -6
0 -3 -8 -24 -13 -55 -13 -35 0 -48 4 -46 13 3 6 13 14 24 16 34 6 82 50 94 86
22 68 -32 116 -95 84z m73 -39 c7 -68 -60 -142 -96 -106 -29 29 -8 120 32 136
41 17 61 8 64 -30z"/>
<path d="M11123 823 c9 -2 23 -2 30 0 6 3 -1 5 -18 5 -16 0 -22 -2 -12 -5z"/>
<path d="M8935 809 c-38 -3 -62 -6 -53 -7 45 -5 26 -131 -30 -195 -15 -16 -14
-17 1 -11 16 6 67 101 67 126 0 7 11 -7 25 -31 14 -23 25 -45 25 -47 0 -2 -21
-15 -47 -29 -27 -14 -37 -23 -23 -19 14 3 38 15 54 26 23 17 33 18 45 9 30
-21 64 -32 73 -23 6 6 -2 12 -19 17 -51 12 -55 23 -28 69 31 53 31 58 0 50
-28 -7 -34 11 -15 46 13 25 8 26 -75 19z m56 -36 c-6 -23 -14 -28 -39 -30 -29
-1 -32 1 -32 28 0 27 3 29 39 29 38 0 39 -1 32 -27z m24 -72 c-21 -42 -31 -45
-54 -15 -30 38 -27 44 24 44 l46 0 -16 -29z"/>
<path d="M9381 729 l-83 -90 78 2 c101 2 118 13 32 19 l-67 5 64 70 c55 59 74
86 63 85 -2 0 -41 -41 -87 -91z"/>
<path d="M9552 808 c4 -18 -23 -130 -35 -145 -7 -10 -4 -13 12 -13 16 0 21 6
21 24 0 40 11 56 36 56 26 0 64 32 64 53 0 23 -23 37 -62 37 -26 0 -38 -4 -36
-12z m72 -14 c9 -24 -12 -54 -39 -54 -22 0 -23 2 -14 32 5 18 9 34 9 35 0 11
39 0 44 -13z"/>
<path d="M9704 811 c7 -11 -22 -131 -36 -148 -8 -10 -4 -13 15 -13 19 0 24 4
20 18 -2 10 1 31 7 46 13 34 28 25 44 -26 6 -18 18 -34 28 -36 14 -3 13 2 -5
39 l-20 41 22 17 c15 12 22 26 19 42 -3 21 -9 24 -51 27 -30 2 -47 -1 -43 -7z
m71 -11 c12 -20 -6 -50 -31 -50 -26 0 -27 3 -18 38 6 23 38 30 49 12z"/>
<path d="M11149 793 c12 -24 31 -39 31 -25 0 5 -10 17 -21 28 -22 19 -22 19
-10 -3z"/>
<path d="M7141 778 c-1 -11 -12 -18 -33 -21 l-33 -4 33 -1 c23 -2 32 -7 32
-19 1 -17 1 -17 14 0 7 9 19 17 25 17 7 0 10 4 6 10 -3 5 -12 7 -19 4 -8 -3
-16 2 -19 13 -4 15 -5 16 -6 1z"/>
<path d="M7230 776 c0 -8 -8 -17 -17 -19 -17 -4 -17 -5 0 -6 10 0 15 -5 12
-11 -3 -5 -1 -10 4 -10 6 0 11 5 11 10 0 6 14 10 30 10 17 0 30 4 30 10 0 5
-13 7 -32 3 -26 -5 -30 -4 -25 10 4 10 2 17 -3 17 -6 0 -10 -6 -10 -14z"/>
<path d="M8207 779 c-40 -23 -60 -106 -34 -140 31 -40 87 -18 87 34 0 29 -34
62 -55 54 -30 -12 -6 30 30 51 14 8 15 11 5 11 -8 0 -23 -4 -33 -10z m28 -89
c9 -27 -3 -60 -21 -60 -17 0 -36 44 -28 65 9 22 42 18 49 -5z"/>
<path d="M7599 765 c-40 -21 -70 -89 -57 -126 20 -59 104 -46 139 22 24 49 24
74 -1 99 -23 23 -45 25 -81 5z m70 -14 c23 -43 -29 -141 -76 -141 -29 0 -40
38 -24 91 18 60 79 91 100 50z"/>
<path d="M7768 757 c-51 -43 -63 -102 -28 -137 l20 -20 -20 -17 c-30 -26 -25
-30 34 -32 39 -1 59 4 73 17 10 9 14 14 9 10 -15 -12 -96 -9 -96 2 0 6 20 19
44 30 29 12 51 30 60 49 19 36 21 92 4 109 -19 19 -71 14 -100 -11z m86 -35
c-1 -55 -30 -96 -71 -100 -25 -3 -32 1 -37 21 -7 28 10 84 32 110 11 12 27 17
46 15 29 -3 31 -5 30 -46z"/>
<path d="M10813 750 c0 -27 2 -29 15 -16 8 8 12 22 9 30 -10 26 -24 18 -24
-14z"/>
<path d="M6490 768 c0 -5 8 -16 19 -27 10 -10 21 -25 23 -32 3 -8 8 -11 12 -7
4 3 -6 21 -23 40 -17 18 -31 30 -31 26z"/>
<path d="M5890 734 c-6 -14 -14 -22 -20 -19 -6 4 -10 -25 -10 -79 0 -51 4 -86
10 -86 6 0 10 5 10 10 0 15 47 12 53 -2 3 -7 6 19 6 59 1 39 4 79 7 88 5 13 2
15 -20 9 -28 -7 -36 12 -14 34 9 9 9 12 0 12 -7 0 -17 -12 -22 -26z m40 -59
c0 -20 -5 -25 -25 -25 -20 0 -25 5 -25 25 0 20 5 25 25 25 20 0 25 -5 25 -25z
m0 -65 c0 -25 -4 -30 -25 -30 -14 0 -25 3 -25 8 0 4 -3 17 -6 30 -6 19 -3 22
25 22 28 0 31 -3 31 -30z"/>
<path d="M5976 748 c-27 -87 -26 -85 -9 -60 11 16 25 22 55 22 l39 0 -6 -72
c-3 -39 -8 -76 -11 -80 -3 -4 -17 -5 -32 -2 l-27 6 23 -17 c41 -30 58 4 64
130 l2 50 -44 0 c-37 0 -44 3 -42 18 3 19 -7 23 -12 5z"/>
<path d="M6141 652 l1 -107 99 0 99 0 0 108 c0 59 -3 107 -7 107 -5 0 -7 -45
-5 -100 l3 -100 -85 0 c-47 0 -86 3 -87 8 0 4 -1 44 -2 90 -2 72 0 82 16 82
10 0 17 -8 17 -19 0 -22 16 -36 24 -22 4 5 0 12 -6 14 -7 3 7 5 32 6 34 0 40
-3 25 -9 -19 -8 -19 -9 3 -9 18 -1 23 4 20 21 -2 12 -10 23 -18 25 -13 4 -13
3 0 -6 12 -8 5 -11 -28 -11 -32 0 -41 3 -36 13 4 6 4 9 0 5 -4 -3 -21 -2 -37
2 l-30 9 2 -107z"/>
<path d="M10060 750 c0 -12 119 -10 126 2 3 5 -24 8 -60 8 -39 0 -66 -4 -66
-10z"/>
<path d="M5346 725 c-4 -14 -10 -23 -15 -21 -13 8 -17 -40 -10 -109 3 -33 6
-54 7 -47 1 6 15 12 31 12 16 0 32 -6 34 -12 3 -7 6 12 6 43 1 37 6 61 16 69
8 7 15 19 15 26 0 10 13 14 40 14 l40 0 0 -64 c0 -70 -16 -100 -48 -89 -14 5
-13 3 3 -10 40 -31 52 -10 61 102 l7 79 -48 -6 c-45 -5 -48 -4 -42 17 3 11 1
21 -4 21 -5 0 -9 -10 -9 -22 -1 -13 -7 -34 -15 -48 l-14 -25 -1 28 c0 24 -3
27 -26 21 -24 -6 -25 -5 -15 14 13 25 14 32 2 32 -5 0 -12 -11 -15 -25z m42
-57 c-2 -17 -11 -24 -30 -26 -24 -3 -28 0 -28 22 0 22 4 26 31 26 26 0 30 -3
27 -22z m2 -68 c0 -27 -3 -30 -30 -30 -27 0 -30 3 -30 30 0 27 3 30 30 30 27
0 30 -3 30 -30z"/>
<path d="M5597 668 c1 -46 2 -99 2 -118 1 -23 4 -30 10 -22 6 10 32 13 100 10
l91 -3 0 108 0 107 -49 0 c-28 0 -52 -3 -54 -7 -3 -5 14 -6 38 -5 50 4 52 1
51 -108 l-1 -75 -87 -3 -88 -3 0 101 c0 55 -3 100 -7 100 -5 0 -7 -37 -6 -82z"/>
<path d="M6228 743 c7 -3 16 -2 19 1 4 3 -2 6 -13 5 -11 0 -14 -3 -6 -6z"/>
<path d="M11175 730 c-10 -11 -26 -22 -36 -25 -18 -6 -27 -25 -11 -25 12 1 76
59 70 65 -2 3 -13 -4 -23 -15z"/>
<path d="M8344 715 c-25 -38 -1 -95 40 -95 26 0 46 18 46 39 -1 13 -2 13 -11
-1 -16 -28 -45 -22 -59 12 -10 24 -10 33 0 45 16 20 30 19 46 -2 7 -10 16 -15
20 -11 12 12 -17 38 -42 38 -14 0 -30 -10 -40 -25z"/>
<path d="M8449 727 c15 -15 14 -80 -1 -95 -9 -9 -7 -12 13 -12 23 0 24 3 21
49 -3 37 0 50 13 54 20 8 28 -12 23 -63 -3 -37 -1 -40 20 -40 18 0 22 3 15 13
-12 15 -9 75 5 89 20 20 33 -3 31 -50 -3 -37 0 -48 13 -50 13 -3 15 5 11 45
-7 73 -4 70 -93 71 -60 0 -79 -3 -71 -11z"/>
<path d="M4609 719 c-10 -6 -8 -9 9 -9 20 0 22 -5 22 -45 0 -49 -20 -108 -47
-137 -9 -10 -12 -18 -7 -18 14 0 51 62 58 97 8 33 26 43 84 43 37 0 37 -1 17
-40 -19 -37 -28 -37 -54 -4 -12 15 -21 22 -21 17 0 -6 9 -22 20 -36 l21 -26
-23 -12 c-13 -7 -34 -18 -48 -26 -14 -7 -19 -13 -11 -13 7 0 29 10 48 21 33
21 35 21 73 4 21 -9 44 -15 52 -12 9 3 7 7 -7 12 -11 3 -30 11 -42 16 l-23 8
30 51 29 50 -29 0 c-28 0 -28 1 -19 32 5 18 9 34 9 35 0 6 -130 -1 -141 -8z
m115 -33 c-5 -22 -12 -26 -40 -26 -29 0 -34 3 -34 24 0 21 5 25 38 28 46 4 44
5 36 -26z"/>
<path d="M5652 705 c3 -17 9 -19 43 -17 22 2 41 7 43 10 6 18 -7 25 -46 26
-37 1 -42 -2 -40 -19z m66 -2 c-10 -2 -28 -2 -40 0 -13 2 -5 4 17 4 22 1 32
-1 23 -4z"/>
<path d="M5055 710 c6 -10 -1 -38 -30 -122 -12 -35 -12 -38 4 -38 14 0 20 10
24 41 3 22 8 43 10 46 11 10 27 -9 38 -47 7 -22 18 -40 26 -40 16 0 16 1 -2
36 -19 37 -19 53 0 60 20 8 29 42 15 59 -14 17 -95 21 -85 5z m71 -15 c8 -20
-13 -45 -37 -45 -21 0 -22 4 -13 38 7 25 41 30 50 7z"/>
<path d="M7166 705 c-3 -10 -21 -16 -48 -17 l-43 -1 38 -4 c20 -2 37 -9 37
-15 0 -6 -16 -26 -36 -44 -19 -19 -32 -34 -28 -34 4 0 18 10 31 22 l23 21 0
-39 0 -39 70 3 70 4 0 41 0 42 -66 -3 c-64 -4 -65 -3 -54 17 9 18 20 21 80 21
39 0 70 4 70 9 0 5 -30 6 -67 3 -59 -4 -66 -3 -60 11 4 10 2 17 -2 17 -5 0
-11 -7 -15 -15z m97 -97 c9 -32 1 -38 -54 -38 -48 0 -49 1 -49 30 0 29 1 30
49 30 42 0 49 -3 54 -22z"/>
<path d="M1 358 c-1 -197 3 -358 8 -358 8 0 4 682 -4 705 -2 6 -4 -151 -4
-347z"/>
<path d="M3243 702 c-42 -3 -43 -4 -43 -38 0 -19 -4 -34 -10 -34 -6 0 -10 -27
-10 -60 0 -43 -4 -60 -13 -60 -23 0 -27 12 -12 41 19 36 19 39 -6 39 -20 0
-21 1 -5 25 9 14 15 26 14 26 -12 6 -58 3 -58 -3 0 -4 7 -8 16 -8 11 0 14 -5
9 -17 -4 -10 -9 -24 -12 -32 -5 -10 0 -12 16 -6 21 6 22 4 16 -17 -4 -12 -17
-33 -28 -45 -11 -13 -17 -26 -13 -30 4 -4 12 0 17 9 8 14 14 15 59 3 53 -14
128 -11 145 6 7 7 -5 10 -35 9 -103 -4 -100 -6 -100 50 0 41 3 50 18 50 9 0
34 3 55 6 l37 7 0 -42 c0 -32 -4 -41 -17 -41 -17 -1 -17 -1 0 -11 25 -15 29
-9 30 50 2 38 -2 51 -12 51 -10 0 -12 9 -8 35 7 40 6 41 -50 37z m37 -22 c0
-5 -10 -10 -22 -12 -16 -2 -22 -9 -20 -20 2 -11 -3 -18 -13 -18 -10 0 -15 9
-15 28 0 26 4 29 35 30 19 1 35 -3 35 -8z m0 -35 c0 -8 -7 -15 -15 -15 -26 0
-18 20 13 29 1 1 2 -6 2 -14z"/>
<path d="M4257 682 c-15 -15 -32 -42 -38 -61 -10 -28 -9 -36 9 -60 l20 -28
-21 -22 -21 -21 39 -2 c67 -3 88 1 104 18 15 15 14 15 -7 5 -13 -7 -37 -9 -57
-5 -29 5 -33 9 -24 20 6 8 18 14 26 14 29 0 73 41 84 80 10 33 9 43 -5 65 -23
36 -73 34 -109 -3z m92 0 c21 -40 -31 -132 -73 -132 -44 0 -50 72 -10 119 29
35 68 41 83 13z"/>
<path d="M6472 628 l3 -83 53 -3 c40 -2 54 1 58 13 8 19 -4 34 -14 19 -12 -19
-50 -26 -72 -14 -19 10 -21 19 -18 81 2 38 -1 69 -5 69 -4 0 -7 -37 -5 -82z"/>
<path d="M7987 703 c18 -2 50 -2 70 0 21 2 7 4 -32 4 -38 0 -55 -2 -38 -4z"/>
<path d="M10060 701 c0 -9 119 -5 128 4 3 3 -25 5 -61 5 -37 0 -67 -4 -67 -9z"/>
<path d="M2620 682 c0 -27 -8 -28 -26 -4 -12 16 -13 15 -8 -5 4 -15 1 -22 -13
-26 -10 -2 1 -4 24 -4 38 -1 41 1 39 23 -3 31 -16 44 -16 16z"/>
<path d="M2840 695 c0 -18 19 -40 26 -32 4 4 0 15 -9 24 -9 10 -17 13 -17 8z"/>
<path d="M2950 690 l-55 -7 50 -2 c36 -1 46 -4 35 -11 -8 -5 -24 -7 -35 -4
l-20 6 20 -17 c19 -16 19 -16 -12 -12 l-33 4 0 -69 c0 -39 4 -68 10 -68 6 0
10 11 10 25 0 37 37 35 43 -2 l4 -28 2 28 c1 22 6 27 26 27 16 0 25 -6 25 -15
0 -8 -8 -15 -17 -15 -15 0 -16 -2 -3 -10 22 -14 28 -1 31 65 3 59 2 60 -23 57
-35 -4 -43 12 -13 26 22 10 36 34 18 30 -5 -1 -33 -4 -63 -8z m10 -70 c0 -5
-9 -10 -20 -10 -11 0 -20 5 -20 10 0 6 9 10 20 10 11 0 20 -4 20 -10z m60 0
c0 -5 -11 -10 -25 -10 -14 0 -25 5 -25 10 0 6 11 10 25 10 14 0 25 -4 25 -10z
m-60 -37 c0 -7 -9 -13 -20 -13 -11 0 -20 6 -20 14 0 9 9 14 20 13 11 -1 20 -7
20 -14z m58 0 c2 -8 -6 -13 -22 -13 -25 0 -33 10 -19 24 10 10 36 3 41 -11z"/>
<path d="M3130 679 c7 -11 14 -18 17 -15 8 8 -5 36 -17 36 -7 0 -7 -6 0 -21z"/>
<path d="M3566 685 c6 -16 -24 -136 -39 -153 -9 -11 -6 -13 13 -10 17 2 24 9
22 19 -6 36 16 68 49 71 42 4 65 36 45 63 -16 22 -98 31 -90 10z m72 -32 c-2
-22 -9 -29 -30 -31 -31 -4 -32 -3 -18 32 6 17 17 26 30 26 17 0 21 -5 18 -27z"/>
<path d="M6180 641 c0 -41 3 -49 15 -45 8 4 15 3 15 0 0 -4 -10 -11 -22 -16
-14 -5 -17 -9 -7 -9 8 -1 24 6 35 14 25 19 42 19 60 0 9 -8 21 -15 27 -15 7 0
3 7 -7 15 -11 8 -15 15 -9 15 6 0 13 20 15 45 2 25 2 45 1 45 -1 0 -9 -3 -18
-6 -13 -5 -14 -8 -3 -15 8 -5 -9 -8 -42 -7 -54 1 -54 1 -15 8 30 5 33 8 13 9
-14 0 -33 4 -42 7 -13 5 -16 -2 -16 -45z m88 2 c-16 -2 -40 -2 -55 0 -16 2 -3
4 27 4 30 0 43 -2 28 -4z m22 -23 c0 -6 -20 -10 -45 -10 -25 0 -45 4 -45 9 0
5 20 9 45 9 25 1 45 -3 45 -8z"/>
<path d="M6776 681 c-3 -5 2 -8 11 -7 9 0 18 -5 21 -13 3 -10 -1 -12 -17 -8
-11 3 -21 1 -21 -4 0 -12 37 -12 44 0 9 14 -4 41 -19 41 -8 0 -16 -4 -19 -9z"/>
<path d="M5638 643 c-2 -18 0 -41 4 -52 5 -14 3 -21 -4 -21 -6 0 -9 -3 -6 -6
4 -3 21 2 39 11 30 16 34 16 61 1 15 -10 28 -13 28 -7 0 5 -8 12 -17 14 -16 4
-16 5 -1 6 13 1 16 10 15 46 -1 38 -4 45 -22 44 -11 0 -14 -3 -7 -6 28 -11 9
-23 -35 -22 l-48 1 30 13 30 14 -32 -2 c-27 -2 -32 -6 -35 -34z m85 -10 c-13
-2 -35 -2 -50 0 -16 2 -5 4 22 4 28 0 40 -2 28 -4z m17 -23 c0 -5 -20 -10 -45
-10 -25 0 -45 5 -45 10 0 6 20 10 45 10 25 0 45 -4 45 -10z"/>
<path d="M6603 660 c8 -14 17 -35 20 -45 4 -18 5 -18 6 1 0 12 -8 32 -20 45
l-21 24 15 -25z"/>
<path d="M1807 628 c-18 -44 -16 -63 3 -29 15 30 30 26 30 -8 0 -26 -4 -30
-32 -34 l-33 -4 33 -1 c39 -2 41 -16 7 -67 -15 -20 -24 -39 -22 -42 6 -6 47
52 47 66 0 19 18 12 39 -16 12 -17 20 -22 21 -14 0 8 -12 28 -27 43 l-27 28
32 0 c18 0 32 5 32 10 0 6 -12 9 -27 8 -24 -3 -28 1 -28 22 0 18 6 26 23 28
12 2 20 7 17 12 -3 5 -22 6 -41 3 -35 -6 -36 -5 -25 16 7 11 8 21 3 21 -5 0
-16 -19 -25 -42z"/>
<path d="M2263 644 c-40 -31 -58 -86 -40 -123 11 -22 19 -26 50 -25 46 2 83
33 96 82 22 79 -40 118 -106 66z m75 4 c31 -31 -3 -129 -49 -143 -33 -11 -60
25 -49 64 21 74 66 111 98 79z"/>
<path d="M5989 653 c25 -44 31 -49 31 -28 0 11 -9 26 -21 33 -18 12 -19 11
-10 -5z"/>
<path d="M6421 635 c-7 -20 -11 -39 -8 -41 7 -7 30 53 25 66 -2 6 -9 -5 -17
-25z"/>
<path d="M8015 660 c-33 -3 -55 -8 -50 -11 6 -3 37 -3 70 0 33 3 56 8 50 11
-5 3 -37 3 -70 0z"/>
<path d="M1600 650 l-85 -6 85 -4 c84 -5 85 -5 88 -32 l3 -28 -76 0 c-73 0
-76 1 -70 21 5 15 4 19 -4 15 -6 -4 -11 -38 -11 -81 0 -90 5 -94 105 -88 93 6
95 7 94 45 -1 25 -3 27 -6 10 -6 -28 -39 -42 -103 -42 -72 0 -80 6 -80 55 0
51 7 55 96 55 l64 0 0 45 c0 25 -3 44 -7 43 -5 -1 -46 -4 -93 -8z"/>
<path d="M2650 651 c0 -5 10 -7 21 -4 20 5 21 3 15 -21 -6 -25 -5 -27 15 -21
17 6 20 3 17 -12 -2 -14 -14 -19 -57 -21 -40 -2 -52 0 -49 10 3 7 17 14 31 16
15 2 27 7 27 12 0 5 -7 7 -15 4 -8 -4 -22 -1 -30 6 -12 10 -15 10 -15 -3 0 -8
-14 -41 -31 -73 -24 -46 -26 -54 -10 -40 11 10 23 27 26 37 5 15 17 18 81 18
l74 0 -6 -27 c-9 -38 -13 -42 -37 -42 -18 0 -19 -2 -7 -10 26 -17 38 -11 49
23 18 59 18 72 -3 69 -15 -3 -18 1 -14 22 4 21 1 26 -14 26 -15 0 -18 5 -13
20 5 17 2 20 -24 20 -17 0 -31 -4 -31 -9z"/>
<path d="M5440 652 c0 -7 4 -12 8 -12 5 0 14 -10 20 -22 7 -16 11 -18 11 -7 1
9 -8 24 -19 34 -11 10 -20 13 -20 7z"/>
<path d="M1948 643 l-36 -4 4 -86 c2 -47 6 -88 9 -91 3 -3 5 0 5 6 0 7 15 12
35 12 l35 0 -2 85 c0 47 -4 84 -7 83 -3 -1 -23 -3 -43 -5z m32 -83 c0 -67 -1
-70 -24 -70 -23 0 -24 4 -28 63 -5 74 -4 77 28 77 23 0 24 -2 24 -70z"/>
<path d="M832 608 c-11 -18 -23 -45 -27 -59 -9 -36 10 -102 36 -125 l22 -19
-17 34 c-24 46 -25 131 -2 166 10 14 16 29 13 31 -3 3 -14 -10 -25 -28z"/>
<path d="M895 633 c-6 -2 -8 -34 -5 -84 5 -74 7 -83 28 -90 31 -12 62 20 62
65 0 39 -20 60 -49 51 -17 -5 -20 -1 -23 28 -2 19 -7 32 -13 30z m60 -118 c0
-45 -28 -63 -40 -25 -10 33 3 72 23 68 13 -2 17 -13 17 -43z"/>
<path d="M1010 635 c0 -5 8 -17 17 -27 27 -30 30 -120 5 -162 -14 -23 -16 -33
-7 -30 39 15 57 121 31 173 -15 29 -46 59 -46 46z"/>
<path d="M2820 628 c0 -4 7 -8 15 -8 11 0 14 -7 9 -25 -5 -19 -2 -25 10 -25 9
0 16 -2 16 -5 0 -14 -31 -64 -42 -67 -6 -2 -8 -10 -4 -17 6 -9 11 -9 19 3 10
13 19 14 50 5 44 -12 149 -8 154 6 2 6 -22 9 -63 7 -36 -2 -77 -1 -91 3 -25 6
-26 10 -12 65 2 9 -2 14 -10 12 -10 -2 -12 5 -8 27 6 28 4 31 -18 29 -14 -1
-25 -6 -25 -10z"/>
<path d="M3857 615 c20 -27 33 -32 33 -12 0 8 -11 19 -25 25 l-26 12 18 -25z"/>
<path d="M3210 569 c0 -24 3 -30 16 -25 9 3 24 6 34 6 11 0 19 9 22 25 5 23 2
25 -33 25 -37 0 -39 -2 -39 -31z m60 6 c0 -8 -9 -15 -20 -15 -11 0 -20 7 -20
15 0 8 9 15 20 15 11 0 20 -7 20 -15z"/>
<path d="M2710 543 c0 -4 5 -15 10 -23 8 -13 10 -13 10 2 0 9 -4 20 -10 23 -5
3 -10 3 -10 -2z"/>
<path d="M2631 535 c1 -19 18 -51 18 -35 0 8 -4 22 -9 30 -5 8 -9 11 -9 5z"/>
<path d="M2670 533 c0 -4 5 -15 10 -23 8 -13 10 -13 10 2 0 9 -4 20 -10 23 -5
3 -10 3 -10 -2z"/>
<path d="M2592 510 c-14 -23 -15 -30 -4 -30 5 0 14 11 20 25 14 30 2 34 -16 5z"/>
<path d="M11191 481 c-7 -5 -9 -10 -5 -12 5 -2 22 -21 37 -41 18 -24 36 -38
50 -38 19 1 19 3 -8 17 -31 16 -46 35 -55 65 -3 12 -9 15 -19 9z"/>
<path d="M11115 460 c-4 -11 -18 -34 -32 -50 -13 -17 -21 -30 -16 -30 9 0 73
82 73 94 0 15 -19 4 -25 -14z"/>
<path d="M11331 433 c25 -48 24 -99 -2 -148 l-21 -40 28 27 c24 24 28 36 29
85 0 43 -5 65 -20 85 -29 39 -36 34 -14 -9z"/>
<path d="M10817 442 c-25 -27 -38 -73 -31 -106 9 -43 31 -83 49 -90 11 -4 10
2 -6 23 -27 37 -30 127 -6 165 20 30 17 34 -6 8z"/>
<path d="M10903 420 c-17 -26 -33 -55 -35 -65 -2 -17 2 -20 30 -17 28 2 32 -1
32 -23 0 -14 5 -25 10 -25 6 0 10 11 10 25 0 14 6 25 13 25 9 0 9 2 0 8 -7 4
-16 32 -20 62 l-8 55 -32 -45z m23 -30 c1 -36 -1 -40 -22 -40 -13 0 -24 3 -24
6 0 7 40 74 43 74 2 0 3 -18 3 -40z"/>
<path d="M11100 388 c0 -4 9 -8 21 -8 18 0 20 -4 15 -27 -4 -16 -22 -43 -41
-60 -19 -18 -30 -33 -24 -33 19 0 68 56 75 86 4 16 11 32 17 35 5 4 -7 8 -27
11 -20 2 -36 0 -36 -4z"/>
<path d="M11218 383 c4 -10 5 -36 2 -58 -5 -37 -7 -40 -35 -38 -16 1 -23 0
-15 -4 8 -3 20 -9 25 -14 21 -16 36 9 41 69 6 54 4 62 -10 62 -12 0 -15 -5 -8
-17z"/>
<path d="M5520 355 c0 -11 -12 -15 -45 -15 -25 0 -45 -4 -45 -9 0 -5 20 -6 45
-3 30 3 45 1 45 -7 0 -6 -17 -11 -42 -11 -23 0 -38 -3 -34 -7 4 -4 23 -6 42
-4 18 1 34 -2 34 -8 0 -12 -64 -26 -85 -17 -8 3 -15 1 -15 -5 0 -7 17 -10 44
-8 38 4 43 2 33 -11 -14 -18 -46 -42 -67 -52 -13 -6 -13 -7 2 -7 9 -1 20 4 23
9 12 19 25 10 25 -18 0 -39 6 -42 41 -25 35 17 38 26 5 17 -29 -7 -40 22 -22
58 9 19 24 25 81 34 l70 12 -63 1 c-69 1 -79 21 -11 21 22 0 38 4 35 9 -3 5
-25 7 -48 4 -29 -4 -39 -3 -34 5 4 7 27 12 52 12 25 0 43 4 40 9 -3 5 -26 6
-51 3 -39 -4 -45 -2 -39 12 3 9 1 16 -5 16 -6 0 -11 -7 -11 -15z"/>
<path d="M5859 366 c-2 -3 -35 -6 -71 -7 -37 -1 -65 -5 -63 -9 3 -5 44 -6 128
-1 15 0 27 6 27 11 0 10 -13 14 -21 6z"/>
<path d="M4161 307 l-24 -42 27 25 c25 23 28 23 37 7 6 -9 15 -17 21 -17 7 0
6 5 -2 15 -11 13 -8 15 13 15 23 0 25 -3 18 -22 -4 -12 -29 -37 -56 -55 -47
-33 -53 -43 -13 -22 22 12 123 14 173 4 23 -5 18 0 -20 19 -59 30 -85 63 -59
73 10 4 22 0 29 -10 7 -10 16 -17 21 -17 4 0 3 5 -4 12 -18 18 -14 26 12 21
13 -3 27 1 31 7 6 9 -3 11 -34 8 -31 -3 -40 0 -37 9 3 7 1 13 -3 13 -5 0 -11
-5 -13 -12 -2 -6 -23 -13 -46 -14 -23 -1 -40 2 -37 6 3 5 2 11 -3 14 -4 2 -18
-14 -31 -37z m118 -50 c15 -18 4 -27 -32 -27 -30 0 -30 0 -11 19 23 24 28 25
43 8z"/>
<path d="M4525 337 c4 -9 -7 -12 -39 -11 -35 1 -45 -2 -49 -17 -5 -18 11 -29
44 -29 12 0 16 -5 13 -15 -4 -8 -2 -15 4 -15 5 0 12 7 16 15 3 8 15 15 28 15
20 0 21 -2 8 -15 -8 -8 -33 -23 -55 -35 -35 -18 -37 -19 -10 -14 17 4 35 11
42 16 7 6 25 3 48 -6 26 -11 35 -12 32 -3 -2 6 -14 13 -26 15 -15 3 -21 8 -17
19 3 8 6 17 6 19 0 2 14 4 32 4 17 0 28 3 24 7 -4 4 -17 8 -28 8 -12 0 -23 6
-26 14 -4 11 3 12 31 7 21 -4 38 -2 42 4 4 6 -12 10 -44 10 -27 0 -53 5 -56
10 -9 15 -25 12 -20 -3z m-14 -34 c2 -5 -11 -9 -28 -11 -37 -4 -45 14 -10 21
23 4 32 2 38 -10z m49 -3 c0 -5 -7 -10 -16 -10 -8 0 -12 5 -9 10 3 6 10 10 16
10 5 0 9 -4 9 -10z"/>
<path d="M4730 275 c0 -41 4 -75 8 -75 5 0 9 34 9 75 0 41 -3 75 -8 75 -5 0
-9 -34 -9 -75z"/>
<path d="M4870 298 c0 -66 -25 -117 -67 -137 -18 -9 -33 -19 -33 -24 0 -12 63
23 81 45 14 19 17 19 32 3 9 -9 21 -24 26 -33 5 -9 13 -13 17 -9 4 4 -6 22
-23 40 -30 30 -31 35 -23 82 12 68 12 85 0 85 -5 0 -10 -24 -10 -52z"/>
<path d="M3605 330 c-3 -5 -16 -10 -28 -10 -20 -1 -20 -2 -4 -11 12 -7 23 -6
38 4 12 9 16 18 10 21 -5 4 -12 2 -16 -4z"/>
<path d="M3695 315 c2 -21 -2 -25 -24 -26 -25 -1 -25 -2 4 -9 25 -6 27 -8 12
-15 -10 -4 -34 -1 -57 9 -26 10 -41 12 -46 5 -3 -6 -12 -8 -20 -5 -8 3 -14 1
-14 -4 0 -6 7 -10 15 -10 19 0 19 -8 -1 -55 -8 -20 -13 -39 -10 -42 3 -3 8 8
12 23 7 26 9 23 20 -31 l11 -60 2 69 c1 60 3 67 16 56 10 -8 15 -9 15 -2 0 6
-8 15 -17 21 -30 16 -10 20 62 12 62 -7 65 -9 23 -10 l-48 -1 0 -46 c0 -37 3
-45 15 -40 26 10 16 -3 -17 -24 -18 -11 -26 -20 -18 -20 16 0 60 27 71 43 4 5
19 7 33 5 25 -5 26 -4 26 44 0 43 -3 50 -27 60 l-28 11 35 7 c36 8 32 14 -7
10 -27 -2 -31 16 -5 23 16 4 16 5 0 6 -10 0 -18 6 -18 11 0 6 -4 10 -9 10 -5
0 -8 -11 -6 -25z m33 -92 c-10 -2 -28 -2 -40 0 -13 2 -5 4 17 4 22 1 32 -1 23
-4z m17 -23 c-3 -5 -22 -10 -41 -10 -19 0 -34 5 -34 10 0 6 18 10 41 10 24 0
38 -4 34 -10z m-12 -27 c-13 -2 -35 -2 -50 0 -16 2 -5 4 22 4 28 0 40 -2 28
-4z"/>
<path d="M3428 322 c-49 -3 -58 -6 -58 -22 0 -23 -12 -31 -50 -32 l-30 -1 2
-76 3 -76 97 0 96 0 -1 77 -2 78 -58 0 c-54 0 -57 1 -47 20 8 15 23 20 68 22
31 2 53 5 47 8 -5 3 -36 4 -67 2z m-85 -129 c5 -57 3 -63 -14 -63 -14 0 -19 8
-21 33 -2 52 3 81 15 89 15 9 13 13 20 -59z m67 47 c0 -15 -7 -20 -25 -20 -17
0 -25 5 -25 18 0 12 8 18 25 20 19 1 25 -3 25 -18z m60 -45 c0 -58 -2 -65 -20
-65 -18 0 -20 7 -20 65 0 58 2 65 20 65 18 0 20 -7 20 -65z m-60 0 c0 -9 -9
-15 -25 -15 -16 0 -25 6 -25 15 0 9 9 15 25 15 16 0 25 -6 25 -15z m8 -47 c3
-14 -3 -18 -27 -18 -25 0 -31 4 -31 21 0 16 5 20 27 17 17 -2 29 -10 31 -20z"/>
<path d="M4791 300 c29 -46 29 -45 29 -32 0 6 -12 24 -26 39 l-26 28 23 -35z"/>
<path d="M3033 300 c-3 -11 -12 -20 -19 -20 -11 0 -14 -19 -14 -86 0 -76 2
-85 15 -74 8 7 26 10 40 8 14 -3 25 0 26 6 0 6 1 41 2 79 2 64 1 67 -21 67
-20 0 -21 3 -12 20 8 15 8 20 -1 20 -6 0 -13 -9 -16 -20z m37 -64 c0 -19 -5
-23 -27 -22 -21 1 -29 7 -31 24 -3 19 1 22 27 22 26 0 31 -4 31 -24z m0 -67
c0 -27 -3 -30 -27 -27 -22 2 -29 9 -31 31 -3 24 0 27 27 27 28 0 31 -3 31 -31z"/>
<path d="M3112 288 c-6 -18 -13 -42 -17 -53 -3 -11 1 -8 10 8 8 15 22 27 30
27 8 0 15 5 15 11 0 5 -5 7 -12 3 -8 -5 -9 0 -6 14 10 35 -10 25 -20 -10z"/>
<path d="M3280 308 c0 -10 16 -9 50 2 22 7 20 8 -12 7 -21 -1 -38 -5 -38 -9z"/>
<path d="M3640 308 c0 -4 4 -8 9 -8 6 0 12 4 15 8 3 5 -1 9 -9 9 -8 0 -15 -4
-15 -9z"/>
<path d="M5805 300 c-49 -3 -85 -8 -80 -9 6 -2 25 -2 43 -1 l32 2 0 -71 c0
-42 4 -71 10 -71 6 0 9 26 8 68 l-3 67 53 3 c30 2 50 7 47 13 -4 5 -9 8 -13 7
-4 -1 -47 -5 -97 -8z"/>
<path d="M5695 290 c3 -5 8 -10 11 -10 2 0 4 5 4 10 0 6 -5 10 -11 10 -5 0 -7
-4 -4 -10z"/>
<path d="M1608 278 l-66 -10 -4 -87 c-3 -47 -8 -95 -13 -106 -6 -16 -5 -18 5
-8 7 7 15 37 18 68 l4 55 62 2 c33 1 72 2 85 3 19 1 25 7 25 28 l2 28 -83 -2
c-46 -1 -86 0 -89 3 -3 3 29 9 70 13 42 4 78 11 82 16 6 10 -6 10 -98 -3z
m102 -59 c0 -5 -36 -9 -80 -9 -100 0 -106 18 -7 22 78 3 87 2 87 -13z"/>
<path d="M1840 279 c-30 -3 -47 -6 -37 -7 14 -2 17 -13 17 -74 0 -46 -6 -84
-15 -102 -9 -16 -13 -31 -11 -33 9 -9 34 43 40 82 3 22 5 41 6 43 0 1 7 2 15
2 12 0 15 -14 15 -66 0 -37 4 -63 9 -59 5 3 7 30 4 61 -5 50 -4 56 15 61 12 3
19 9 17 14 -3 4 -12 6 -20 2 -12 -4 -15 3 -15 30 0 29 4 36 23 39 46 7 -9 13
-63 7z m30 -44 c0 -24 -5 -35 -15 -35 -10 0 -15 11 -15 35 0 24 5 35 15 35 10
0 15 -11 15 -35z"/>
<path d="M1942 254 c-45 -45 -25 -44 24 1 21 19 31 34 23 34 -7 -1 -29 -17
-47 -35z"/>
<path d="M2280 282 c-68 -30 -106 -114 -70 -157 41 -50 151 24 150 102 -1 23
-23 53 -41 53 -10 0 -10 -3 -1 -12 22 -22 14 -84 -14 -117 -45 -53 -92 -32
-81 36 6 38 41 83 64 83 7 0 13 5 13 10 0 11 1 11 -20 2z"/>
<path d="M2414 273 c7 -17 -21 -130 -37 -150 -6 -9 -6 -13 1 -13 21 0 42 12
36 21 -3 5 -3 23 1 40 5 24 11 29 26 24 28 -9 69 20 69 50 0 29 -14 39 -63 41
-31 2 -37 -1 -33 -13z m76 -23 c0 -24 -15 -40 -36 -40 -27 0 -29 7 -14 45 8
22 13 24 30 15 11 -6 20 -15 20 -20z"/>
<path d="M2575 263 c-14 -16 -30 -43 -36 -61 -10 -29 -8 -38 9 -62 l21 -28
-21 -18 c-20 -19 -20 -19 28 -25 33 -4 58 -2 77 8 15 7 27 15 27 18 0 2 -12 0
-27 -3 -16 -4 -41 -6 -56 -4 -23 3 -26 6 -16 18 6 8 17 14 24 14 25 0 74 51
84 88 8 28 7 41 -4 59 -22 34 -76 31 -110 -4z m93 -23 c1 -22 -5 -47 -17 -67
-23 -36 -68 -54 -82 -32 -30 48 18 143 70 137 22 -3 26 -9 29 -38z"/>
<path d="M2747 246 c-4 -24 -13 -62 -20 -85 -14 -39 -14 -41 4 -41 14 0 19 7
19 29 0 69 23 79 46 21 9 -22 22 -40 29 -40 11 0 11 5 -1 28 -18 36 -18 42 7
68 34 36 18 64 -35 64 l-43 0 -6 -44z m76 22 c7 -21 -12 -48 -33 -48 -14 0
-20 7 -20 23 0 13 3 27 7 30 11 12 41 8 46 -5z"/>
<path d="M3178 283 c20 -4 22 -10 22 -68 0 -81 -6 -95 -39 -95 -20 0 -23 -2
-11 -10 8 -5 23 -10 32 -10 19 0 24 21 32 128 l4 62 -31 -1 c-24 -1 -26 -3 -9
-6z"/>
<path d="M5139 274 c-12 -15 -11 -16 10 -9 l24 7 -26 -45 c-29 -49 -33 -62
-17 -52 6 4 22 29 36 56 29 58 50 57 29 0 -7 -22 -11 -42 -8 -45 11 -11 31 -6
36 8 4 10 1 13 -9 9 -17 -6 -17 -5 -3 36 6 18 21 36 33 41 15 6 6 9 -35 9 -41
1 -60 -4 -70 -15z"/>
<path d="M6052 268 c2 -13 11 -24 21 -26 20 -4 34 25 19 40 -8 8 -9 5 -5 -11
4 -15 1 -21 -12 -21 -12 0 -16 6 -12 20 3 11 1 20 -5 20 -5 0 -8 -10 -6 -22z"/>
<path d="M3933 226 c1 -28 4 -33 14 -24 16 13 13 50 -4 55 -7 3 -11 -9 -10
-31z"/>
<path d="M5590 238 c-23 -19 -25 -19 -37 -2 -16 22 -17 13 -2 -18 12 -28 73
-72 91 -65 7 2 -5 13 -26 23 -40 19 -59 44 -34 44 18 1 51 27 41 33 -4 3 -19
-4 -33 -15z"/>
<path d="M5722 218 l-23 -42 26 24 c14 13 25 29 25 36 0 7 6 15 13 17 8 4 7 6
-3 6 -8 1 -25 -18 -38 -41z"/>
<path d="M5876 224 c16 -23 31 -37 33 -32 2 6 -11 24 -29 42 l-32 31 28 -41z"/>
<path d="M1958 195 c-21 -19 -33 -35 -28 -35 6 0 27 16 48 35 20 19 33 34 27
34 -5 0 -27 -15 -47 -34z"/>
<path d="M3130 226 c0 -4 9 -19 20 -33 13 -17 20 -20 20 -11 0 8 -9 23 -20 33
-11 10 -20 15 -20 11z"/>
<path d="M4530 212 c0 -5 -23 -8 -50 -8 -28 1 -50 -2 -50 -6 0 -5 23 -8 50 -8
49 0 50 -1 50 -30 0 -16 5 -30 10 -30 6 0 10 14 10 30 0 29 2 30 44 30 43 0
67 12 47 24 -5 4 -12 2 -16 -4 -8 -13 -75 -13 -75 0 0 6 -4 10 -10 10 -5 0
-10 -4 -10 -8z"/>
<path d="M4784 205 c-10 -8 -26 -15 -35 -15 -17 0 -45 -27 -38 -35 3 -2 29 12
59 30 30 19 50 35 44 35 -5 0 -19 -7 -30 -15z"/>
<path d="M1790 189 c0 -5 5 -7 10 -4 6 3 10 8 10 11 0 2 -4 4 -10 4 -5 0 -10
-5 -10 -11z"/>
<path d="M4193 157 c-1 -30 2 -37 14 -33 8 3 39 6 69 6 l54 0 0 35 0 36 -67
-3 -68 -3 -2 -38z m122 4 c4 -19 0 -21 -51 -21 -47 0 -54 3 -54 19 0 17 8 20
48 23 57 4 52 5 57 -21z"/>
<path d="M1597 172 c-33 -3 -36 -5 -27 -23 6 -10 18 -19 28 -19 15 1 15 2 -2
15 -19 14 -19 15 7 15 25 0 27 -3 27 -40 0 -35 -3 -40 -22 -40 -19 0 -20 -2
-8 -10 30 -19 38 -10 42 46 1 31 1 57 -2 58 -3 1 -22 0 -43 -2z"/>
<path d="M1690 170 l-35 -7 33 -2 c31 -1 32 -3 32 -41 0 -35 -3 -40 -22 -41
-23 0 -23 0 1 -10 18 -7 27 -6 32 3 9 13 7 109 -1 107 -3 -1 -21 -5 -40 -9z"/>
<path d="M4465 155 c-16 -13 -25 -24 -20 -25 6 0 24 11 40 25 17 13 26 24 20
25 -5 0 -23 -11 -40 -25z"/>
<path d="M4570 177 c0 -3 16 -14 35 -26 33 -19 49 -15 23 7 -15 11 -58 25 -58
19z"/>
<path d="M1977 134 c-16 -19 -40 -40 -53 -46 -13 -6 -24 -15 -24 -20 0 -15 72
37 98 70 13 18 21 32 16 32 -5 0 -22 -16 -37 -36z"/>
<path d="M1675 140 c3 -5 11 -10 16 -10 6 0 7 5 4 10 -3 6 -11 10 -16 10 -6 0
-7 -4 -4 -10z"/>
<path d="M3750 130 c14 -10 27 -16 30 -13 6 6 -30 33 -44 33 -6 0 0 -9 14 -20z"/>
<path d="M1583 108 c-13 -6 -23 -15 -23 -20 0 -13 13 -9 40 12 27 21 18 25
-17 8z"/>
<path d="M1674 106 c-10 -8 -17 -17 -14 -19 3 -3 16 3 30 13 29 22 14 27 -16
6z"/>
</g>
</svg>
