<?xml version="1.0" standalone="no"?>
<!DOCTYPE svg PUBLIC "-//W3C//DTD SVG 20010904//EN"
 "http://www.w3.org/TR/2001/REC-SVG-20010904/DTD/svg10.dtd">
<svg version="1.0" xmlns="http://www.w3.org/2000/svg"
 width="690.000000pt" height="726.000000pt" viewBox="0 0 690.000000 726.000000"
 preserveAspectRatio="xMidYMid meet">
<metadata>
Created by potrace 1.16, written by Peter Selinger 2001-2019
</metadata>
<g transform="translate(0.000000,726.000000) scale(0.100000,-0.100000)"
fill="#000000" stroke="none">
<path d="M2103 7253 c9 -2 25 -2 35 0 9 3 1 5 -18 5 -19 0 -27 -2 -17 -5z"/>
<path d="M2330 7253 c363 -7 1808 -7 1792 -1 -9 4 -451 6 -982 5 -531 -1 -895
-3 -810 -4z"/>
<path d="M4155 7250 c3 -5 25 -9 48 -9 40 1 40 2 12 9 -44 11 -67 11 -60 0z"/>
<path d="M4290 7249 c-17 -5 -2 -7 44 -8 38 -1 66 2 63 5 -10 10 -78 12 -107
3z"/>
<path d="M4435 7250 c-4 -6 3 -10 14 -10 25 0 27 6 6 13 -8 4 -17 2 -20 -3z"/>
<path d="M4535 7243 c135 -7 2245 -7 2245 -1 0 4 -519 7 -1152 6 -634 -1
-1126 -3 -1093 -5z"/>
<path d="M6825 7240 c-4 -6 11 -10 36 -10 48 0 49 4 2 13 -18 4 -35 2 -38 -3z"/>
<path d="M1010 7130 c0 -43 -4 -60 -13 -60 -9 0 -12 11 -9 35 4 29 1 34 -12
29 -9 -4 -16 -1 -16 6 0 9 -3 10 -13 1 -8 -6 -17 -8 -20 -4 -4 3 -7 -12 -7
-35 l0 -42 50 0 50 0 0 65 c0 36 -2 65 -5 65 -3 0 -5 -27 -5 -60z m-32 -32
c-2 -16 -10 -23 -25 -24 -13 -1 -23 3 -23 7 0 5 9 9 20 9 11 0 20 4 20 10 0 5
-6 7 -14 4 -8 -3 -17 -1 -21 5 -4 7 4 11 20 11 22 0 26 -4 23 -22z"/>
<path d="M1531 7178 c-1 -12 -9 -18 -26 -18 -22 0 -25 -4 -24 -32 2 -31 2 -31
6 -5 5 31 39 38 46 10 4 -17 5 -17 6 0 1 20 37 24 44 5 3 -8 6 -6 6 5 1 12 -7
17 -23 17 -15 0 -26 7 -29 18 -4 16 -5 16 -6 0z"/>
<path d="M35 7130 c0 -27 3 -50 8 -50 4 0 7 23 7 50 0 28 -3 50 -7 50 -5 0 -8
-22 -8 -50z"/>
<path d="M90 7172 c0 -5 14 -7 30 -4 17 2 30 6 30 8 0 2 -13 4 -30 4 -16 0
-30 -4 -30 -8z"/>
<path d="M460 7161 c-12 -23 -13 -78 -2 -85 4 -2 6 10 4 29 -2 18 1 42 7 54 7
11 9 21 7 21 -3 0 -10 -9 -16 -19z"/>
<path d="M579 7167 c9 -11 12 -32 8 -63 -3 -29 -1 -41 4 -33 15 25 10 86 -8
100 -16 13 -17 12 -4 -4z"/>
<path d="M971 7164 c0 -11 3 -14 6 -6 3 7 2 16 -1 19 -3 4 -6 -2 -5 -13z"/>
<path d="M3113 7130 c0 -30 2 -43 4 -27 2 15 2 39 0 55 -2 15 -4 2 -4 -28z"/>
<path d="M3860 7140 c0 -33 -3 -40 -19 -40 -15 0 -18 -5 -13 -22 5 -19 7 -20
10 -5 5 26 20 20 25 -10 2 -16 5 5 6 45 0 39 -1 72 -4 72 -3 0 -5 -18 -5 -40z"/>
<path d="M1175 7160 c3 -5 8 -10 11 -10 2 0 4 5 4 10 0 6 -5 10 -11 10 -5 0
-7 -4 -4 -10z"/>
<path d="M2012 7149 c-8 -12 -9 -18 -3 -14 13 8 13 8 2 -33 -7 -23 -6 -32 2
-32 7 0 13 20 14 50 2 28 2 50 0 50 -1 0 -8 -9 -15 -21z"/>
<path d="M2080 7148 c0 -13 -7 -36 -15 -51 l-14 -28 37 3 c32 3 37 6 38 28 0
14 4 31 8 39 5 7 4 17 -2 23 -7 7 -10 4 -9 -8 1 -11 -6 -20 -16 -22 -15 -3
-18 0 -12 17 4 12 2 21 -4 21 -6 0 -11 -10 -11 -22z m38 -45 c-2 -10 -13 -19
-25 -21 -17 -3 -20 1 -16 17 7 26 46 29 41 4z"/>
<path d="M2276 7144 c-4 -15 -5 -28 -3 -31 3 -2 7 8 11 22 7 28 43 35 53 9 8
-22 -13 -64 -34 -65 -12 0 -13 -2 -5 -6 19 -7 52 26 52 52 0 48 -63 65 -74 19z"/>
<path d="M2527 7158 c-7 -4 4 -8 27 -8 25 0 43 -6 52 -17 12 -17 13 -16 8 4
-4 15 -15 22 -40 25 -19 2 -40 0 -47 -4z"/>
<path d="M2960 7159 c0 -5 5 -7 10 -4 6 3 10 8 10 11 0 2 -4 4 -10 4 -5 0 -10
-5 -10 -11z"/>
<path d="M3500 7124 c0 -26 3 -44 6 -41 10 10 12 77 2 83 -4 3 -8 -16 -8 -42z"/>
<path d="M3558 7145 c-3 -14 -1 -25 3 -25 5 0 9 11 9 25 0 14 -2 25 -4 25 -2
0 -6 -11 -8 -25z"/>
<path d="M3692 7103 c1 -40 3 -53 5 -33 3 19 10 38 16 42 9 6 9 8 0 8 -7 0
-13 9 -13 19 0 11 6 22 13 24 7 3 5 6 -5 6 -16 1 -18 -8 -16 -66z"/>
<path d="M3832 7150 c0 -14 2 -19 5 -12 2 6 2 18 0 25 -3 6 -5 1 -5 -13z"/>
<path d="M3911 7148 c-1 -14 -4 -35 -7 -45 -5 -15 -4 -15 5 -3 9 13 11 13 11
-1 0 -9 9 -27 21 -40 l20 -24 -16 26 c-8 15 -19 46 -24 70 -6 30 -9 36 -10 17z"/>
<path d="M4051 7154 c0 -11 3 -14 6 -6 3 7 2 16 -1 19 -3 4 -6 -2 -5 -13z"/>
<path d="M4223 7163 c22 -4 27 -9 27 -33 0 -25 -4 -29 -32 -32 l-33 -3 38 -6
37 -5 0 43 c0 42 -1 43 -32 42 -31 -2 -31 -2 -5 -6z"/>
<path d="M4278 7163 c6 -2 18 -2 25 0 6 3 1 5 -13 5 -14 0 -19 -2 -12 -5z"/>
<path d="M4967 7163 c-4 -3 -6 -34 -5 -67 1 -40 3 -49 5 -26 3 19 10 38 16 42
9 6 8 8 -2 8 -9 0 -12 8 -9 25 6 27 5 29 -5 18z"/>
<path d="M5016 7153 c-6 -14 -5 -15 5 -6 7 7 10 15 7 18 -3 3 -9 -2 -12 -12z"/>
<path d="M131 7153 c-1 -6 -4 -20 -7 -30 -5 -17 -5 -17 6 0 6 10 9 23 6 30 -3
9 -5 9 -5 0z"/>
<path d="M2160 7140 c-13 -24 -6 -70 10 -70 6 0 5 9 -2 20 -10 16 -10 24 0 41
7 12 11 23 9 26 -3 3 -11 -5 -17 -17z"/>
<path d="M2931 7108 c0 -32 2 -58 7 -58 4 0 6 19 4 43 -5 70 -10 76 -11 15z"/>
<path d="M3155 7150 c-3 -5 -1 -10 4 -10 6 0 11 5 11 10 0 6 -2 10 -4 10 -3 0
-8 -4 -11 -10z"/>
<path d="M4572 7153 c9 -2 19 -14 21 -26 l4 -22 2 22 c1 20 6 23 41 20 22 -2
40 0 40 5 0 4 -28 7 -62 7 -35 -1 -55 -3 -46 -6z"/>
<path d="M4782 7127 c1 -21 6 -41 10 -43 5 -3 5 -11 1 -17 -4 -7 0 -6 10 2 9
7 23 11 32 8 18 -7 30 9 13 16 -9 4 -10 8 -2 14 6 4 8 19 4 33 -5 21 -7 22
-13 8 -3 -10 -13 -18 -21 -18 -8 0 -20 8 -25 18 -9 13 -11 9 -9 -21z m48 -22
c0 -6 -8 -11 -18 -12 -10 -1 -19 4 -19 11 0 6 9 12 19 12 10 0 18 -5 18 -11z"/>
<path d="M4928 7120 c2 -22 6 -40 8 -40 2 0 4 18 4 40 0 22 -3 40 -8 40 -4 0
-6 -18 -4 -40z"/>
<path d="M6053 7113 c-15 -62 -7 -69 9 -9 7 25 18 46 25 46 15 0 15 -3 4 -52
-5 -22 -5 -38 0 -38 8 0 13 15 10 33 -1 4 3 16 8 26 12 21 -3 41 -29 41 -12 0
-20 -15 -27 -47z"/>
<path d="M6370 7139 c-6 -11 -9 -30 -7 -42 4 -20 4 -20 6 3 1 14 6 32 11 40
15 23 32 -2 28 -41 -2 -26 -7 -34 -22 -32 -13 1 -15 -2 -7 -10 17 -17 41 11
41 47 0 51 -31 72 -50 35z"/>
<path d="M506 7141 c-3 -5 2 -7 13 -4 14 4 18 -1 17 -18 0 -12 -7 -24 -15 -27
-10 -3 -12 0 -8 12 4 10 3 15 -3 11 -21 -13 -10 -35 19 -35 27 0 28 2 22 32
-7 32 -33 49 -45 29z"/>
<path d="M1360 7108 c-3 -26 -1 -43 3 -39 5 5 7 26 5 47 l-3 39 -5 -47z"/>
<path d="M2895 7140 c-4 -6 -11 -8 -16 -5 -5 4 -9 1 -9 -4 0 -17 27 -13 34 4
6 17 0 20 -9 5z"/>
<path d="M4086 7135 c-3 -8 -1 -15 4 -15 6 0 10 7 10 15 0 8 -2 15 -4 15 -2 0
-6 -7 -10 -15z"/>
<path d="M5600 7142 c0 -5 7 -9 15 -9 8 0 12 4 9 9 -3 4 -9 8 -15 8 -5 0 -9
-4 -9 -8z"/>
<path d="M5670 7141 c0 -5 9 -7 19 -4 16 4 20 -1 24 -29 l4 -33 1 38 c2 33 0
37 -23 37 -14 0 -25 -4 -25 -9z"/>
<path d="M6001 7150 c-1 -3 -4 -25 -6 -50 -3 -37 -2 -41 6 -20 5 13 8 36 6 50
-2 14 -5 23 -6 20z"/>
<path d="M6300 7135 c-27 -33 -9 -94 24 -82 24 9 20 58 -4 64 -16 4 -18 8 -9
19 6 8 9 14 6 14 -2 0 -10 -7 -17 -15z m30 -50 c0 -16 -6 -25 -15 -25 -9 0
-15 9 -15 25 0 16 6 25 15 25 9 0 15 -9 15 -25z"/>
<path d="M1166 7131 c-4 -5 -1 -11 6 -13 7 -3 9 -12 5 -22 -5 -12 -13 -16 -25
-11 -13 5 -14 4 -5 -6 16 -16 43 5 43 32 0 21 -16 34 -24 20z"/>
<path d="M1222 7110 c0 -19 2 -27 5 -17 2 9 2 25 0 35 -3 9 -5 1 -5 -18z"/>
<path d="M1302 7125 c-9 -11 -9 -15 -1 -15 6 0 9 -7 5 -15 -3 -8 -1 -15 4 -15
6 0 10 14 10 30 0 34 0 34 -18 15z"/>
<path d="M2960 7125 c0 -8 4 -15 10 -15 5 0 7 7 4 15 -4 8 -8 15 -10 15 -2 0
-4 -7 -4 -15z"/>
<path d="M3657 7127 c-3 -7 -2 -19 3 -26 5 -10 8 -9 13 2 3 7 2 19 -3 26 -5
10 -8 9 -13 -2z"/>
<path d="M3756 7123 c-6 -14 -5 -15 5 -6 7 7 10 15 7 18 -3 3 -9 -2 -12 -12z"/>
<path d="M4387 7120 c-9 -11 -13 -20 -7 -20 5 0 14 9 20 20 6 11 9 20 8 20 -2
0 -11 -9 -21 -20z"/>
<path d="M4111 7118 c-1 -12 -12 -18 -43 -21 -35 -3 -32 -4 17 -5 33 -1 55 2
49 6 -6 4 -14 14 -17 22 -4 12 -6 12 -6 -2z"/>
<path d="M4744 7119 c-3 -6 -1 -16 4 -21 8 -8 11 -5 9 11 -1 24 -3 25 -13 10z"/>
<path d="M5019 7113 c-13 -16 -12 -17 4 -4 9 7 17 15 17 17 0 8 -8 3 -21 -13z"/>
<path d="M1565 7110 c-16 -7 -17 -9 -3 -9 9 -1 20 4 23 9 7 11 7 11 -20 0z"/>
<path d="M2728 7113 c17 -2 47 -2 65 0 17 2 3 4 -33 4 -36 0 -50 -2 -32 -4z"/>
<path d="M5453 7113 c9 -2 23 -2 30 0 6 3 -1 5 -18 5 -16 0 -22 -2 -12 -5z"/>
<path d="M6477 7113 c-12 -11 -7 -40 8 -53 11 -9 19 -10 26 -3 8 8 6 11 -7 10
-14 -2 -19 5 -19 26 1 30 1 30 -8 20z"/>
<path d="M6505 7110 c3 -5 8 -10 11 -10 2 0 4 5 4 10 0 6 -5 10 -11 10 -5 0
-7 -4 -4 -10z"/>
<path d="M6540 7085 c0 -46 15 -46 16 0 0 19 -3 35 -8 35 -4 0 -8 -16 -8 -35z"/>
<path d="M6578 7084 c5 -40 18 -46 17 -7 0 14 6 28 13 30 8 3 12 -6 12 -26 0
-17 4 -31 8 -31 4 0 6 15 4 34 -3 30 -8 35 -31 34 -24 -1 -26 -4 -23 -34z"/>
<path d="M1270 7096 c0 -8 4 -17 9 -20 5 -4 7 3 4 14 -6 23 -13 26 -13 6z"/>
<path d="M1518 7103 c7 -3 16 -2 19 1 4 3 -2 6 -13 5 -11 0 -14 -3 -6 -6z"/>
<path d="M2548 7103 c7 -3 16 -2 19 1 4 3 -2 6 -13 5 -11 0 -14 -3 -6 -6z"/>
<path d="M2602 7103 c15 -2 29 -12 31 -21 3 -12 5 -10 6 6 1 19 -4 22 -31 21
-30 -2 -30 -2 -6 -6z"/>
<path d="M5618 7085 c-3 -13 -1 -22 3 -19 5 3 9 11 9 19 0 7 10 16 23 18 20 4
19 4 -4 6 -21 1 -28 -4 -31 -24z"/>
<path d="M2256 7085 c-3 -8 -1 -15 4 -15 6 0 10 7 10 15 0 8 -2 15 -4 15 -2 0
-6 -7 -10 -15z"/>
<path d="M2878 7093 c7 -3 16 -2 19 1 4 3 -2 6 -13 5 -11 0 -14 -3 -6 -6z"/>
<path d="M2970 7090 c1 -8 7 -24 15 -34 19 -25 19 -16 0 20 -8 16 -15 22 -15
14z"/>
<path d="M3759 7083 c-13 -16 -12 -17 4 -4 16 13 21 21 13 21 -2 0 -10 -8 -17
-17z"/>
<path d="M4298 7093 c7 -3 16 -2 19 1 4 3 -2 6 -13 5 -11 0 -14 -3 -6 -6z"/>
<path d="M4630 7090 c0 -6 7 -10 15 -10 8 0 15 2 15 4 0 2 -7 6 -15 10 -8 3
-15 1 -15 -4z"/>
<path d="M5955 7090 c-3 -6 1 -7 9 -4 18 7 21 14 7 14 -6 0 -13 -4 -16 -10z"/>
<path d="M1955 7080 c-3 -5 -1 -10 4 -10 6 0 11 5 11 10 0 6 -2 10 -4 10 -3 0
-8 -4 -11 -10z"/>
<path d="M4667 7070 c-3 -11 -1 -20 4 -20 5 0 9 9 9 20 0 11 -2 20 -4 20 -2 0
-6 -9 -9 -20z"/>
<path d="M3886 7063 c-6 -14 -5 -15 5 -6 7 7 10 15 7 18 -3 3 -9 -2 -12 -12z"/>
<path d="M5530 7066 c0 -8 -8 -17 -17 -19 -14 -4 -12 -5 5 -6 16 -1 22 5 22
19 0 11 -2 20 -5 20 -3 0 -5 -6 -5 -14z"/>
<path d="M4550 7059 c0 -5 9 -9 20 -9 11 0 20 2 20 4 0 2 -9 6 -20 9 -11 3
-20 1 -20 -4z"/>
<path d="M5693 7063 c-13 -2 -23 -8 -23 -12 0 -5 11 -6 25 -3 14 2 25 8 25 13
0 5 -1 8 -2 8 -2 -1 -13 -4 -25 -6z"/>
<path d="M4110 7050 c-9 -6 -10 -10 -3 -10 6 0 15 5 18 10 8 12 4 12 -15 0z"/>
<path d="M4618 7053 c7 -3 16 -2 19 1 4 3 -2 6 -13 5 -11 0 -14 -3 -6 -6z"/>
<path d="M5420 7049 c0 -5 9 -9 20 -9 11 0 20 2 20 4 0 2 -9 6 -20 9 -11 3
-20 1 -20 -4z"/>
<path d="M1165 6948 c3 -8 -1 -32 -9 -55 l-14 -41 30 2 c36 3 44 14 43 63 0
34 -3 38 -27 41 -20 2 -26 0 -23 -10z m43 -15 c-2 -10 -11 -19 -20 -21 -12 -2
-15 2 -11 17 7 25 36 28 31 4z m-3 -47 c0 -13 -33 -32 -41 -24 -12 13 6 40 23
36 10 -2 18 -7 18 -12z"/>
<path d="M1261 6933 c0 -16 3 -21 6 -13 3 8 12 21 21 28 14 10 13 12 -6 12
-18 0 -22 -6 -21 -27z"/>
<path d="M1519 6949 c-11 -8 -10 -9 6 -7 28 4 31 -27 5 -59 l-22 -28 22 -3
c12 -2 27 1 33 7 7 7 3 8 -12 4 -24 -6 -28 9 -6 27 33 27 9 82 -26 59z"/>
<path d="M1601 6946 c-7 -8 -11 -32 -9 -53 2 -30 7 -38 23 -38 11 0 20 7 21
15 0 9 -1 10 -3 3 -3 -7 -11 -13 -19 -13 -18 0 -19 71 -2 88 7 7 9 12 6 12 -3
0 -11 -6 -17 -14z"/>
<path d="M1848 6953 c6 -2 12 -16 12 -29 0 -13 4 -24 9 -24 4 0 6 11 3 25 -3
20 0 25 16 25 14 0 22 -8 24 -22 3 -21 4 -21 9 5 6 26 5 27 -40 26 -25 0 -40
-3 -33 -6z"/>
<path d="M960 6905 c-24 -25 -42 -45 -39 -45 3 0 25 20 49 45 24 25 42 45 39
45 -3 0 -25 -20 -49 -45z"/>
<path d="M1106 6941 c-4 -7 -5 -15 -2 -18 9 -9 19 4 14 18 -4 11 -6 11 -12 0z"/>
<path d="M1322 6931 c9 -15 8 -24 -5 -45 -10 -14 -15 -26 -12 -26 2 0 12 11
21 25 16 24 12 65 -7 65 -5 0 -4 -9 3 -19z"/>
<path d="M1631 6940 c0 -8 4 -22 9 -30 12 -18 12 -2 0 25 -6 13 -9 15 -9 5z"/>
<path d="M1696 6936 c3 -8 -2 -16 -13 -20 -15 -4 -15 -5 2 -3 20 2 35 37 16
37 -6 0 -8 -6 -5 -14z"/>
<path d="M2145 6900 l-49 -50 54 2 c53 1 53 2 11 5 l-44 4 44 45 c24 24 41 44
38 44 -3 0 -27 -22 -54 -50z"/>
<path d="M2251 6945 c4 -3 1 -26 -7 -51 -7 -24 -9 -44 -4 -44 4 0 11 18 15 41
4 22 13 43 21 46 21 8 29 -4 15 -21 -7 -8 -9 -21 -5 -27 4 -7 -1 -18 -12 -26
-19 -14 -19 -15 1 -11 13 2 21 12 22 28 1 14 3 34 5 45 2 16 -4 21 -27 23 -16
2 -27 1 -24 -3z"/>
<path d="M2437 6918 c-3 -18 -8 -41 -12 -50 -5 -12 -3 -18 6 -18 7 0 10 2 7 6
-3 3 0 25 8 50 7 24 9 44 5 44 -5 0 -11 -15 -14 -32z"/>
<path d="M2493 6929 c19 -26 11 -58 -17 -69 -17 -7 -17 -9 -4 -9 41 -2 60 78
22 93 -13 5 -13 3 -1 -15z"/>
<path d="M2756 6942 c-3 -6 2 -9 12 -8 12 1 17 -6 16 -22 0 -16 2 -20 10 -12
7 7 7 16 0 27 -13 21 -30 27 -38 15z"/>
<path d="M2830 6931 c-14 -27 -13 -54 4 -76 12 -16 16 -17 30 -6 28 23 16 101
-16 101 -4 0 -12 -9 -18 -19z m35 -36 c0 -42 -19 -58 -30 -25 -9 29 3 72 18
67 7 -2 12 -21 12 -42z"/>
<path d="M2903 6934 c-8 -21 13 -42 28 -27 13 13 5 43 -11 43 -6 0 -13 -7 -17
-16z m27 -9 c0 -8 -4 -15 -10 -15 -5 0 -10 7 -10 15 0 8 5 15 10 15 6 0 10 -7
10 -15z"/>
<path d="M2380 6935 c-1 -5 -2 -18 -1 -27 2 -12 -5 -18 -21 -19 -17 -1 -18 -3
-5 -6 9 -2 17 -12 18 -21 0 -9 5 -2 10 16 6 19 8 41 6 50 -3 10 -6 13 -7 7z"/>
<path d="M1926 6897 c-4 -19 -12 -27 -21 -23 -9 3 -12 0 -9 -8 6 -15 54 -39
62 -31 3 3 1 5 -4 5 -25 1 -36 18 -24 39 6 12 10 27 7 34 -2 7 -7 -1 -11 -16z"/>
<path d="M2697 6913 c-10 -9 -9 -73 1 -73 4 0 8 18 9 40 1 42 0 44 -10 33z"/>
<path d="M1099 6882 c-3 -20 -2 -29 4 -23 5 5 7 19 5 32 -3 20 -5 19 -9 -9z"/>
<path d="M1408 6903 c12 -2 30 -2 40 0 9 3 -1 5 -23 4 -22 0 -30 -2 -17 -4z"/>
<path d="M1250 6891 c0 -5 -3 -16 -6 -25 -5 -12 0 -16 22 -15 22 1 24 3 8 6
-16 3 -20 9 -17 24 3 10 3 19 -1 19 -3 0 -6 -4 -6 -9z"/>
<path d="M1408 6873 c12 -2 30 -2 40 0 9 3 -1 5 -23 4 -22 0 -30 -2 -17 -4z"/>
<path d="M2598 6873 c6 -2 18 -2 25 0 6 3 1 5 -13 5 -14 0 -19 -2 -12 -5z"/>
<path d="M2755 6850 c7 -12 32 -13 39 -2 2 4 -7 9 -20 10 -15 1 -22 -2 -19 -8z"/>
<path d="M1859 6580 l-16 -50 31 1 c24 1 26 3 9 6 -27 5 -26 1 -8 52 8 22 11
41 7 41 -4 0 -14 -23 -23 -50z"/>
<path d="M1918 6619 c6 -7 12 -22 12 -34 0 -12 -6 -27 -12 -35 -11 -12 -10
-12 5 0 22 16 20 71 -3 78 -12 4 -13 2 -2 -9z"/>
<path d="M4830 6591 c-21 -40 -5 -82 30 -80 9 0 6 4 -7 9 -25 10 -30 39 -13
71 6 10 8 19 6 19 -3 0 -10 -9 -16 -19z"/>
<path d="M1961 6492 c1 -17 3 -20 6 -9 2 9 6 17 8 17 2 0 42 -18 90 -40 49
-22 90 -38 93 -35 3 2 -6 9 -19 14 -44 16 -139 60 -139 63 0 2 379 2 842 0
464 -2 840 -1 838 1 -3 2 -391 7 -862 11 l-858 6 1 -28z"/>
<path d="M3748 6503 c34 -2 90 -2 125 0 34 2 6 3 -63 3 -69 0 -97 -1 -62 -3z"/>
<path d="M3993 6503 c9 -2 23 -2 30 0 6 3 -1 5 -18 5 -16 0 -22 -2 -12 -5z"/>
<path d="M4088 6503 c28 -2 76 -2 105 0 28 2 5 3 -53 3 -58 0 -81 -1 -52 -3z"/>
<path d="M4320 6506 c0 -2 9 -6 20 -9 11 -3 18 -1 14 4 -5 9 -34 13 -34 5z"/>
<path d="M4557 6499 c7 -7 15 -10 18 -7 3 3 -2 9 -12 12 -14 6 -15 5 -6 -5z"/>
<path d="M4760 6500 c-13 -8 -12 -10 2 -10 13 0 23 -19 39 -75 12 -41 24 -73
26 -71 5 5 -36 148 -46 158 -3 4 -13 3 -21 -2z"/>
<path d="M4518 6493 c7 -3 16 -2 19 1 4 3 -2 6 -13 5 -11 0 -14 -3 -6 -6z"/>
<path d="M4673 6493 c9 -2 23 -2 30 0 6 3 -1 5 -18 5 -16 0 -22 -2 -12 -5z"/>
<path d="M1973 6445 c9 -45 151 -524 155 -521 4 5 -132 482 -148 518 -8 18
-10 18 -7 3z"/>
<path d="M2190 6405 c14 -8 30 -14 35 -14 6 0 -1 6 -15 14 -14 8 -29 14 -35
14 -5 0 1 -6 15 -14z"/>
<path d="M2319 6350 c46 -23 85 -39 87 -37 4 4 -128 66 -156 73 -8 2 23 -14
69 -36z"/>
<path d="M4831 6320 c0 -8 4 -24 9 -35 5 -13 9 -14 9 -5 0 8 -4 24 -9 35 -5
13 -9 14 -9 5z"/>
<path d="M2421 6306 c4 -4 151 -71 329 -151 52 -23 163 -73 245 -110 83 -37
222 -98 310 -137 88 -38 223 -98 300 -133 366 -165 667 -296 671 -292 2 2 -55
30 -128 62 -443 195 -1355 600 -1468 652 -177 82 -274 123 -259 109z"/>
<path d="M4861 6224 c-1 -13 128 -456 135 -463 8 -9 3 11 -61 231 -71 242 -73
249 -74 232z"/>
<path d="M2141 5870 c0 -8 4 -24 9 -35 5 -13 9 -14 9 -5 0 8 -4 24 -9 35 -5
13 -9 14 -9 5z"/>
<path d="M2166 5781 c7 -38 42 -142 43 -126 0 6 -10 44 -24 85 -14 41 -22 60
-19 41z"/>
<path d="M5006 5723 c3 -17 16 -64 29 -105 13 -40 22 -59 19 -41 -3 17 -16 64
-29 105 -13 40 -22 59 -19 41z"/>
<path d="M2216 5610 c4 -19 11 -44 15 -55 6 -14 7 -9 3 15 -4 19 -11 44 -15
55 -6 14 -7 9 -3 -15z"/>
<path d="M5061 5535 c0 -5 10 -44 24 -85 14 -41 22 -60 19 -41 -7 38 -42 142
-43 126z"/>
<path d="M2242 5515 c25 -97 52 -184 56 -181 4 5 -47 188 -55 196 -3 3 -4 -4
-1 -15z"/>
<path d="M4293 5473 c4 -3 58 -29 120 -56 61 -27 182 -80 267 -117 350 -154
413 -180 417 -176 2 2 -40 23 -94 46 -107 47 -363 159 -571 251 -131 58 -152
66 -139 52z"/>
<path d="M5110 5366 c0 -8 40 -150 64 -228 16 -52 14 -55 -24 -33 -14 8 -29
14 -35 14 -5 0 1 -6 15 -14 22 -12 -126 -14 -1144 -15 -643 0 -1167 -2 -1165
-5 6 -5 2369 -8 2375 -3 2 3 -15 67 -37 144 -38 127 -49 160 -49 140z"/>
<path d="M2302 5310 c0 -8 6 -31 13 -50 7 -19 13 -28 13 -20 0 8 -6 31 -13 50
-7 19 -13 28 -13 20z"/>
<path d="M2331 5217 c-1 -4 6 -34 16 -67 l16 -60 141 2 141 2 -137 3 -136 4
-20 62 c-11 34 -20 59 -21 54z"/>
<path d="M5218 5010 l-16 -50 28 0 c34 0 44 12 47 63 2 33 0 37 -20 37 -19 0
-26 -9 -39 -50z m52 25 c0 -8 -4 -15 -9 -15 -4 0 -6 -11 -3 -25 3 -20 0 -25
-17 -25 -21 0 -28 19 -13 34 4 4 8 12 8 17 1 5 2 14 3 19 2 16 31 11 31 -5z"/>
<path d="M2322 5029 c-8 -12 -9 -18 -3 -14 7 4 10 -6 6 -29 -2 -20 0 -36 5
-36 6 0 10 23 10 50 0 28 -1 50 -3 50 -1 0 -8 -9 -15 -21z"/>
<path d="M2285 4980 c-10 -11 -16 -22 -14 -24 2 -2 12 7 22 20 22 29 17 32 -8
4z"/>
<path d="M3372 4823 l2 -68 3 63 c4 65 7 67 53 51 24 -8 24 -9 -3 -5 -27 3
-28 2 -12 -13 15 -15 18 -14 33 5 10 11 24 23 32 27 8 3 -13 6 -47 6 l-63 1 2
-67z"/>
<path d="M3590 4873 c8 -3 19 -11 23 -17 6 -7 7 -6 4 4 -2 8 -12 16 -23 17
-13 2 -15 1 -4 -4z"/>
<path d="M3661 4866 c-13 -16 -18 -72 -8 -83 4 -3 7 12 7 33 0 22 5 45 12 52
7 7 9 12 6 12 -3 0 -11 -6 -17 -14z"/>
<path d="M3785 4840 c3 -14 1 -39 -5 -55 -9 -28 -9 -29 5 -11 17 23 19 54 5
76 -8 11 -9 9 -5 -10z"/>
<path d="M3700 4840 c0 -5 7 -7 15 -4 11 5 15 -1 15 -25 0 -17 4 -31 8 -31 4
0 6 16 4 35 -3 26 -9 35 -23 35 -10 0 -19 -4 -19 -10z"/>
<path d="M3603 4833 c16 -10 6 -42 -15 -46 -20 -5 -20 -5 2 -4 19 2 25 7 25
26 0 13 -4 25 -10 26 -5 1 -7 0 -2 -2z"/>
<path d="M3391 4808 c-1 -24 3 -28 27 -28 15 0 22 4 16 8 -6 4 -14 14 -17 22
-4 11 -6 10 -7 -5 -2 -17 -3 -16 -10 5 l-8 25 -1 -27z"/>
<path d="M3458 4805 c-3 -14 -1 -25 3 -25 5 0 9 11 9 25 0 14 -2 25 -4 25 -2
0 -6 -11 -8 -25z"/>
<path d="M3707 4813 c-10 -9 -9 -33 1 -33 4 0 8 9 8 20 0 23 0 22 -9 13z"/>
<path d="M953 4435 c0 -8 9 -15 20 -15 11 0 18 1 16 3 -2 1 -11 8 -20 15 -13
9 -16 9 -16 -3z"/>
<path d="M1461 4434 c0 -11 3 -14 6 -6 3 7 2 16 -1 19 -3 4 -6 -2 -5 -13z"/>
<path d="M1586 4394 c-8 -62 -8 -84 2 -84 5 0 7 14 4 30 -4 30 -4 30 49 32
l54 1 -50 7 c-49 6 -49 6 -15 11 l35 6 -35 3 -35 3 40 7 40 7 -40 3 -40 3 40
7 40 7 -41 2 -41 1 -7 -46z"/>
<path d="M1777 4428 c-7 -5 -2 -8 15 -8 17 0 28 -6 31 -17 4 -16 5 -16 6 -1 0
9 9 18 19 20 9 3 0 6 -21 9 -20 3 -43 1 -50 -3z"/>
<path d="M1220 4389 c-7 -24 -14 -47 -17 -51 -2 -5 8 -7 24 -7 17 1 21 3 11 6
-21 5 -22 10 -7 52 6 18 9 34 6 38 -3 3 -11 -15 -17 -38z"/>
<path d="M1280 4418 c15 -18 12 -39 -7 -61 -14 -16 -15 -19 -3 -15 8 2 19 17
24 31 8 21 6 31 -7 42 -9 8 -12 10 -7 3z"/>
<path d="M1149 4403 c-11 -13 -11 -15 -1 -9 10 6 12 0 7 -28 -5 -24 -3 -36 4
-36 6 0 11 19 11 45 0 50 -2 52 -21 28z"/>
<path d="M1391 4368 c1 -29 4 -41 6 -25 3 16 11 27 20 27 10 0 14 -6 10 -20
-3 -11 -1 -23 4 -26 5 -3 9 18 9 45 0 48 -2 51 -25 51 -24 0 -25 -3 -24 -52z
m39 27 c0 -8 -7 -15 -15 -15 -8 0 -15 7 -15 15 0 8 7 15 15 15 8 0 15 -7 15
-15z"/>
<path d="M1508 4390 c2 -16 6 -30 8 -30 2 0 4 14 4 30 0 17 -4 30 -8 30 -5 0
-7 -13 -4 -30z"/>
<path d="M6755 4410 c3 -5 8 -10 11 -10 2 0 4 5 4 10 0 6 -5 10 -11 10 -5 0
-7 -4 -4 -10z"/>
<path d="M6566 4401 c-4 -5 3 -7 15 -4 19 5 21 3 17 -21 -4 -18 -2 -24 4 -18
14 14 5 46 -14 50 -9 2 -19 -1 -22 -7z"/>
<path d="M955 4390 c-3 -6 1 -7 9 -4 18 7 21 14 7 14 -6 0 -13 -4 -16 -10z"/>
<path d="M6517 4383 c-9 -9 -9 -71 1 -76 4 -3 7 15 7 39 0 24 0 44 -1 44 0 0
-4 -3 -7 -7z"/>
<path d="M952 4355 c15 -16 29 -27 31 -24 3 2 -10 15 -27 28 l-31 24 27 -28z"/>
<path d="M1788 4373 c6 -2 18 -2 25 0 6 3 1 5 -13 5 -14 0 -19 -2 -12 -5z"/>
<path d="M6775 4370 c-4 -6 3 -10 14 -10 25 0 27 6 6 13 -8 4 -17 2 -20 -3z"/>
<path d="M6853 4345 c0 -22 2 -30 4 -17 2 12 2 30 0 40 -3 9 -5 -1 -4 -23z"/>
<path d="M880 4350 c-8 -5 -12 -12 -9 -15 4 -3 12 1 19 10 14 17 11 19 -10 5z"/>
<path d="M1635 4340 c10 -11 20 -20 23 -20 3 0 -3 9 -13 20 -10 11 -20 20 -23
20 -3 0 3 -9 13 -20z"/>
<path d="M1793 4353 c15 -2 25 -9 21 -14 -3 -5 -10 -7 -15 -4 -5 4 -9 2 -9 -3
0 -11 49 -26 58 -17 3 3 -2 5 -11 5 -20 0 -22 11 -5 28 9 9 3 12 -27 11 -31
-2 -34 -3 -12 -6z"/>
<path d="M6570 4325 c-11 -13 -8 -15 21 -14 24 1 27 3 11 6 -12 2 -20 9 -17
14 10 15 -1 10 -15 -6z"/>
<path d="M1490 4320 c-9 -6 -10 -10 -3 -10 6 0 15 5 18 10 8 12 4 12 -15 0z"/>
<path d="M6699 4303 c-13 -16 -12 -17 4 -4 9 7 17 15 17 17 0 8 -8 3 -21 -13z"/>
<path d="M6762 4304 c-7 -8 -8 -14 -3 -14 10 0 25 19 20 25 -2 1 -10 -3 -17
-11z"/>
<path d="M861 4048 c-1 -19 4 -28 14 -28 8 0 15 -4 15 -10 0 -5 -7 -10 -15
-10 -9 0 -15 -9 -14 -22 1 -17 2 -19 6 -5 7 26 21 20 26 -10 2 -16 4 4 4 42 0
39 -2 60 -4 48 -2 -13 -8 -23 -13 -23 -5 0 -11 10 -13 23 -4 19 -4 18 -6 -5z"/>
<path d="M930 4055 c0 -8 2 -15 4 -15 2 0 6 7 10 15 3 8 1 15 -4 15 -6 0 -10
-7 -10 -15z"/>
<path d="M1083 4063 c28 -4 38 -23 12 -23 -8 0 -15 -4 -15 -9 0 -17 38 1 43
20 4 16 0 19 -31 18 -31 -2 -32 -3 -9 -6z"/>
<path d="M1583 4005 c0 -38 2 -53 4 -32 2 20 2 52 0 70 -2 17 -4 1 -4 -38z"/>
<path d="M954 4038 l-19 -23 23 19 c12 11 22 21 22 23 0 8 -8 2 -26 -19z"/>
<path d="M1234 4049 c-4 -8 -3 -9 5 -5 6 4 19 2 28 -6 14 -11 15 -11 11 2 -6
19 -34 25 -44 9z"/>
<path d="M1320 4041 c-16 -30 -12 -87 7 -102 15 -13 15 -12 5 8 -15 27 -15 68
-2 94 6 10 8 19 6 19 -3 0 -10 -9 -16 -19z"/>
<path d="M1921 4003 c0 -35 2 -63 7 -63 4 0 6 21 4 48 -5 75 -10 82 -11 15z"/>
<path d="M1948 4024 c5 -41 15 -38 16 6 1 16 -4 30 -9 30 -7 0 -9 -15 -7 -36z"/>
<path d="M2740 4039 c0 -11 4 -18 10 -14 5 3 7 12 3 20 -7 21 -13 19 -13 -6z"/>
<path d="M2778 4053 c6 -2 18 -2 25 0 6 3 1 5 -13 5 -14 0 -19 -2 -12 -5z"/>
<path d="M2842 4040 c0 -14 2 -19 5 -12 2 6 2 18 0 25 -3 6 -5 1 -5 -13z"/>
<path d="M3882 4040 c0 -14 2 -19 5 -12 2 6 2 18 0 25 -3 6 -5 1 -5 -13z"/>
<path d="M427 4043 c-9 -9 -9 -81 1 -86 4 -3 7 17 7 44 0 27 0 49 -1 49 0 0
-4 -3 -7 -7z"/>
<path d="M1813 4010 c0 -25 2 -35 4 -22 2 12 2 32 0 45 -2 12 -4 2 -4 -23z"/>
<path d="M2459 4000 l-16 -50 28 0 c33 0 43 13 46 63 2 32 0 37 -20 37 -18 0
-25 -10 -38 -50z m51 25 c0 -8 -5 -15 -12 -15 -9 0 -9 -3 -1 -11 16 -16 5 -39
-19 -39 -15 0 -18 4 -13 18 4 9 10 27 12 40 6 24 33 31 33 7z"/>
<path d="M2557 4018 c-3 -18 -8 -41 -12 -50 -4 -11 -3 -18 4 -18 6 0 10 3 9 8
-1 4 2 24 7 45 6 31 11 38 29 35 32 -5 29 -58 -4 -75 -17 -9 -20 -13 -8 -13
41 0 68 80 32 94 -36 14 -51 6 -57 -26z"/>
<path d="M2963 4000 c0 -30 2 -43 4 -27 2 15 2 39 0 55 -2 15 -4 2 -4 -28z"/>
<path d="M3002 4025 c0 -16 2 -22 5 -12 2 9 2 23 0 30 -3 6 -5 -1 -5 -18z"/>
<path d="M3470 4030 c0 -11 2 -20 4 -20 2 0 6 9 9 20 3 11 1 20 -4 20 -5 0 -9
-9 -9 -20z"/>
<path d="M3522 4030 c0 -14 2 -19 5 -12 2 6 2 18 0 25 -3 6 -5 1 -5 -13z"/>
<path d="M3838 4005 l-3 -45 61 0 61 0 -6 33 c-5 31 -6 31 -9 5 -3 -27 -32
-41 -32 -16 0 9 -3 9 -12 0 -19 -19 -48 -15 -48 8 0 11 6 20 13 20 8 0 7 4 -3
10 -13 9 -13 11 0 20 13 8 13 10 -1 10 -13 0 -18 -11 -21 -45z"/>
<path d="M3938 4043 c7 -3 16 -2 19 1 4 3 -2 6 -13 5 -11 0 -14 -3 -6 -6z"/>
<path d="M4300 4040 c0 -5 -9 -10 -20 -10 -12 0 -20 -7 -20 -17 0 -15 2 -15 9
-4 5 8 16 11 25 8 11 -5 16 -1 16 13 0 11 -2 20 -5 20 -3 0 -5 -4 -5 -10z"/>
<path d="M4330 4023 c0 -30 9 -27 15 6 2 11 0 21 -6 21 -5 0 -9 -12 -9 -27z"/>
<path d="M4372 4025 c0 -16 2 -22 5 -12 2 9 2 23 0 30 -3 6 -5 -1 -5 -18z"/>
<path d="M4497 4043 c-16 -15 -5 -23 31 -21 37 1 37 1 4 5 -18 2 -30 9 -27 14
7 10 1 12 -8 2z"/>
<path d="M4631 4033 c-1 -12 -7 -24 -13 -26 -10 -4 -10 -6 0 -6 15 -1 26 23
19 41 -3 7 -6 3 -6 -9z"/>
<path d="M4981 4042 c-1 -7 -5 -11 -10 -7 -5 3 -12 1 -16 -5 -4 -6 8 -10 29
-10 20 0 36 -4 36 -9 0 -5 7 -11 15 -15 12 -4 13 -2 2 14 -6 11 -19 20 -29 20
-9 0 -19 6 -21 13 -4 9 -6 9 -6 -1z"/>
<path d="M5920 4026 c0 -15 -7 -26 -17 -29 -16 -4 -16 -5 -1 -6 9 0 19 -9 21
-18 3 -10 5 3 6 30 0 26 -1 47 -4 47 -3 0 -5 -11 -5 -24z"/>
<path d="M6110 3990 c0 -37 -4 -60 -11 -60 -7 0 -10 13 -7 34 3 28 0 35 -17
38 -35 7 -66 -5 -56 -21 6 -8 5 -24 0 -38 -5 -14 -5 -23 1 -23 10 0 14 20 12
53 -1 12 6 17 24 17 24 0 26 -3 22 -35 -4 -31 -1 -35 19 -35 22 0 23 4 23 65
0 36 -2 65 -5 65 -3 0 -5 -27 -5 -60z"/>
<path d="M472 4003 c-2 -39 21 -55 45 -30 20 20 9 54 -20 59 -19 4 -22 -1 -25
-29z m43 -9 c0 -10 -8 -20 -17 -22 -18 -3 -26 27 -11 42 12 11 28 0 28 -20z"/>
<path d="M1448 4005 c2 -18 -1 -43 -8 -56 -11 -23 -10 -23 4 -5 17 21 22 81 8
90 -4 2 -6 -10 -4 -29z"/>
<path d="M1532 4010 c0 -19 2 -27 5 -17 2 9 2 25 0 35 -3 9 -5 1 -5 -18z"/>
<path d="M1690 3995 c0 -25 3 -45 8 -45 4 0 7 20 7 45 0 25 -3 45 -7 45 -5 0
-8 -20 -8 -45z"/>
<path d="M1733 3995 c0 -27 2 -38 4 -22 2 15 2 37 0 50 -2 12 -4 0 -4 -28z"/>
<path d="M1876 4025 c-11 -8 -15 -15 -9 -15 6 0 16 7 23 15 16 19 11 19 -14 0z"/>
<path d="M2908 4033 c6 -2 18 -2 25 0 6 3 1 5 -13 5 -14 0 -19 -2 -12 -5z"/>
<path d="M3258 4023 c-2 -10 -1 -38 3 -63 6 -43 6 -43 7 18 2 61 -2 79 -10 45z"/>
<path d="M3715 4029 c-10 -14 -12 -89 -4 -89 7 0 20 92 14 98 -2 2 -6 -2 -10
-9z"/>
<path d="M4085 4011 c-8 -17 -12 -37 -9 -45 6 -16 42 -32 51 -22 4 3 -1 6 -9
6 -30 0 -41 26 -23 59 8 17 13 31 11 31 -3 0 -12 -13 -21 -29z"/>
<path d="M4155 4030 c3 -5 8 -10 11 -10 2 0 4 5 4 10 0 6 -5 10 -11 10 -5 0
-7 -4 -4 -10z"/>
<path d="M4435 4030 c-3 -5 -1 -10 4 -10 6 0 11 5 11 10 0 6 -2 10 -4 10 -3 0
-8 -4 -11 -10z"/>
<path d="M5241 3990 c0 -35 3 -50 8 -40 5 8 5 33 1 55 -8 40 -8 40 -9 -15z"/>
<path d="M5290 4021 c-14 -27 -13 -44 6 -67 14 -18 15 -18 4 4 -8 17 -8 32 -1
53 11 33 7 38 -9 10z"/>
<path d="M5325 3990 c0 -26 3 -46 8 -43 4 2 7 22 7 43 0 21 -3 41 -7 43 -5 3
-8 -17 -8 -43z"/>
<path d="M5843 4000 c0 -25 2 -35 4 -22 2 12 2 32 0 45 -2 12 -4 2 -4 -23z"/>
<path d="M5993 3980 c0 -36 2 -50 4 -32 2 17 2 47 0 65 -2 17 -4 3 -4 -33z"/>
<path d="M6071 4024 c0 -11 3 -14 6 -6 3 7 2 16 -1 19 -3 4 -6 -2 -5 -13z"/>
<path d="M6204 4027 c-4 -7 -4 -9 1 -5 4 4 14 3 22 -3 8 -7 13 -8 13 -1 0 15
-28 23 -36 9z"/>
<path d="M6322 4000 c-1 -35 1 -41 9 -27 15 25 41 22 37 -5 -2 -18 -9 -22 -28
-20 -20 2 -22 0 -12 -10 18 -18 47 3 47 33 0 17 -6 25 -22 27 -13 2 -23 12
-26 25 -2 12 -5 2 -5 -23z"/>
<path d="M572 4000 c0 -19 2 -27 5 -17 2 9 2 25 0 35 -3 9 -5 1 -5 -18z"/>
<path d="M1365 4020 c-3 -6 1 -7 9 -4 11 4 16 0 16 -10 0 -9 0 -19 0 -23 0 -5
-5 -10 -12 -12 -7 -2 -9 3 -5 13 4 10 3 15 -3 11 -20 -12 -10 -35 15 -35 26 0
32 19 19 54 -7 18 -30 21 -39 6z"/>
<path d="M3442 4018 c-7 -7 -11 -32 -10 -57 l1 -46 4 45 c3 24 9 50 15 57 13
16 6 17 -10 1z"/>
<path d="M4467 4011 c4 -14 -1 -21 -19 -24 -22 -5 -22 -5 2 -4 18 2 26 9 28
25 2 12 -1 22 -6 22 -6 0 -8 -9 -5 -19z"/>
<path d="M4787 4012 c-16 -18 -7 -55 10 -39 4 5 1 12 -6 16 -8 6 -9 11 -3 15
6 3 14 1 17 -5 4 -5 13 -8 20 -5 8 3 16 0 19 -7 2 -7 5 1 5 17 1 27 0 28 -12
11 -14 -18 -43 -13 -32 6 10 15 -1 10 -18 -9z"/>
<path d="M4867 4023 c-4 -3 -7 -16 -6 -27 0 -19 1 -19 10 3 10 24 8 36 -4 24z"/>
<path d="M5724 4016 c-3 -8 -4 -27 -2 -43 3 -23 5 -20 9 15 5 43 2 53 -7 28z"/>
<path d="M1100 3993 c-12 -15 -19 -20 -16 -11 3 9 -2 19 -10 22 -23 9 -24 8
-24 -22 0 -26 2 -28 36 -24 21 3 31 8 24 12 -8 5 -7 12 5 24 10 9 15 19 12 22
-2 3 -15 -8 -27 -23z m-33 -15 c-3 -8 -6 -5 -6 6 -1 11 2 17 5 13 3 -3 4 -12
1 -19z"/>
<path d="M1264 3991 c1 -16 4 -27 9 -24 10 6 9 41 -2 47 -4 3 -8 -8 -7 -23z"/>
<path d="M3354 4000 c0 -11 4 -20 8 -20 4 0 8 9 8 20 0 11 -4 20 -8 20 -4 0
-8 -9 -8 -20z"/>
<path d="M6277 4013 c-9 -9 -9 -65 1 -80 4 -6 7 11 7 38 0 27 0 49 -1 49 0 0
-4 -3 -7 -7z"/>
<path d="M6420 3977 c4 -41 5 -41 8 -8 2 18 0 37 -5 42 -5 5 -6 -11 -3 -34z"/>
<path d="M2793 3995 c0 -8 4 -15 9 -15 4 0 8 4 8 9 0 6 -4 12 -8 15 -5 3 -9
-1 -9 -9z"/>
<path d="M3121 3994 c0 -11 3 -14 6 -6 3 7 2 16 -1 19 -3 4 -6 -2 -5 -13z"/>
<path d="M4711 3993 c-1 -16 -9 -23 -28 -26 l-28 -4 28 -2 c28 -1 43 17 34 41
-3 7 -6 3 -6 -9z"/>
<path d="M5400 3989 c-9 -15 -8 -24 1 -35 13 -16 35 -18 44 -4 4 6 -1 7 -10 3
-19 -7 -36 13 -28 34 3 8 13 11 25 7 14 -4 18 -2 14 5 -11 18 -34 13 -46 -10z"/>
<path d="M5468 3975 c-2 -19 0 -35 4 -35 4 0 8 16 8 35 0 19 -2 35 -4 35 -2 0
-6 -16 -8 -35z"/>
<path d="M5497 3999 c6 -8 13 -25 16 -39 4 -17 5 -15 4 9 -1 21 -8 36 -17 39
-12 4 -13 2 -3 -9z"/>
<path d="M5537 4003 c6 -4 13 -22 16 -38 4 -27 5 -27 3 4 0 21 -7 36 -16 38
-10 3 -11 2 -3 -4z"/>
<path d="M928 3993 c12 -2 32 -2 45 0 12 2 2 4 -23 4 -25 0 -35 -2 -22 -4z"/>
<path d="M2735 3990 c-3 -5 -1 -10 4 -10 6 0 11 5 11 10 0 6 -2 10 -4 10 -3 0
-8 -4 -11 -10z"/>
<path d="M3523 3985 c-3 -9 -3 -19 1 -22 3 -4 6 1 6 10 0 8 6 18 13 20 9 4 9
6 -1 6 -7 1 -15 -6 -19 -14z"/>
<path d="M4542 3970 c0 -19 2 -27 5 -17 2 9 2 25 0 35 -3 9 -5 1 -5 -18z"/>
<path d="M6215 3990 c-3 -5 -2 -10 4 -10 5 0 12 -8 14 -17 4 -14 5 -13 6 4 1
24 -14 39 -24 23z"/>
<path d="M1868 3983 c7 -3 16 -2 19 1 4 3 -2 6 -13 5 -11 0 -14 -3 -6 -6z"/>
<path d="M3320 3981 c0 -5 -3 -16 -6 -25 -4 -10 -1 -16 7 -16 7 0 9 3 6 6 -3
4 -2 15 4 25 6 13 6 19 -1 19 -5 0 -10 -4 -10 -9z"/>
<path d="M4290 3964 c0 -22 4 -25 28 -22 19 2 28 9 30 26 3 19 -1 22 -27 22
-27 0 -31 -4 -31 -26z m43 9 c-7 -2 -19 -2 -25 0 -7 3 -2 5 12 5 14 0 19 -2
13 -5z m0 -20 c-7 -2 -19 -2 -25 0 -7 3 -2 5 12 5 14 0 19 -2 13 -5z"/>
<path d="M6650 3981 c0 -6 4 -13 10 -16 6 -3 7 1 4 9 -7 18 -14 21 -14 7z"/>
<path d="M957 3960 c-3 -11 -1 -20 4 -20 5 0 9 9 9 20 0 11 -2 20 -4 20 -2 0
-6 -9 -9 -20z"/>
<path d="M2770 3958 c0 -23 4 -28 23 -27 17 1 18 2 4 6 -9 2 -15 8 -13 12 3 4
1 13 -5 21 -6 11 -9 8 -9 -12z"/>
<path d="M2840 3971 c0 -5 -10 -12 -22 -14 l-23 -4 23 -2 c13 0 20 -5 17 -11
-3 -5 -1 -10 4 -10 6 0 11 11 11 25 0 14 -2 25 -5 25 -3 0 -5 -4 -5 -9z"/>
<path d="M2890 3966 c0 -9 4 -15 9 -12 5 3 14 -1 21 -9 7 -8 22 -14 34 -14 20
1 20 2 1 6 -11 3 -30 14 -42 26 -21 18 -23 19 -23 3z"/>
<path d="M3458 3973 c7 -3 16 -2 19 1 4 3 -2 6 -13 5 -11 0 -14 -3 -6 -6z"/>
<path d="M4762 3950 c0 -19 2 -27 5 -17 2 9 2 25 0 35 -3 9 -5 1 -5 -18z"/>
<path d="M4819 3952 c-3 -20 -2 -29 4 -23 5 5 7 19 5 32 -3 20 -5 19 -9 -9z"/>
<path d="M4957 3973 c-3 -5 17 -6 44 -5 44 4 49 2 49 -16 0 -11 -6 -23 -12
-26 -8 -4 -7 -5 2 -3 8 2 16 16 18 30 3 26 2 27 -47 27 -27 0 -52 -3 -54 -7z"/>
<path d="M5208 3973 c7 -3 16 -2 19 1 4 3 -2 6 -13 5 -11 0 -14 -3 -6 -6z"/>
<path d="M1132 3955 c-11 -12 -10 -15 3 -15 8 0 15 7 15 15 0 18 -2 18 -18 0z"/>
<path d="M4861 3943 c1 -22 2 -23 6 -8 3 11 10 23 17 27 7 5 5 8 -6 8 -13 0
-18 -7 -17 -27z"/>
<path d="M5860 3959 c0 -5 5 -7 10 -4 6 3 10 8 10 11 0 2 -4 4 -10 4 -5 0 -10
-5 -10 -11z"/>
<path d="M5890 3945 c0 -14 4 -25 9 -25 4 0 6 11 3 25 -2 14 -6 25 -8 25 -2 0
-4 -11 -4 -25z"/>
<path d="M2250 3948 c0 -14 8 -18 33 -17 27 2 28 2 7 6 -14 3 -28 10 -32 17
-5 7 -8 5 -8 -6z"/>
<path d="M3655 3950 c-3 -5 -1 -10 4 -10 6 0 11 5 11 10 0 6 -2 10 -4 10 -3 0
-8 -4 -11 -10z"/>
<path d="M1975 3940 c3 -5 8 -10 11 -10 2 0 4 5 4 10 0 6 -5 10 -11 10 -5 0
-7 -4 -4 -10z"/>
<path d="M3855 3940 c-3 -6 1 -7 9 -4 18 7 21 14 7 14 -6 0 -13 -4 -16 -10z"/>
<path d="M4365 3930 c-3 -5 -1 -10 4 -10 6 0 11 5 11 10 0 6 -2 10 -4 10 -3 0
-8 -4 -11 -10z"/>
<path d="M4590 3930 c0 -5 7 -7 15 -4 8 4 15 8 15 10 0 2 -7 4 -15 4 -8 0 -15
-4 -15 -10z"/>
<path d="M6479 3923 c-13 -16 -12 -17 4 -4 9 7 17 15 17 17 0 8 -8 3 -21 -13z"/>
<path d="M4658 3923 c7 -3 16 -2 19 1 4 3 -2 6 -13 5 -11 0 -14 -3 -6 -6z"/>
<path d="M2814 3639 c-11 -18 -10 -89 1 -89 6 0 10 23 10 50 0 54 0 56 -11 39z"/>
<path d="M2580 3259 c-113 -138 -261 -320 -330 -404 -69 -84 -171 -210 -227
-279 -57 -68 -103 -129 -103 -134 0 -5 8 -12 18 -15 9 -3 152 -53 316 -111
165 -58 301 -104 303 -102 4 4 -39 20 -252 95 -294 102 -330 116 -333 123 -2
5 -10 8 -18 8 -8 0 -14 5 -14 11 0 5 129 168 288 361 158 193 347 424 420 514
74 90 137 164 140 164 8 0 45 -33 162 -144 47 -45 152 -144 234 -221 195 -183
321 -303 601 -571 126 -121 298 -283 380 -359 83 -77 227 -212 320 -300 384
-361 482 -453 533 -500 29 -26 51 -50 49 -51 -2 -2 -29 5 -61 17 -32 11 -60
18 -63 16 -2 -3 32 -17 77 -32 45 -15 83 -25 85 -24 2 2 -96 175 -217 384
-121 209 -229 396 -240 415 -38 67 -131 225 -155 263 l-23 37 -268 0 -267 0
-110 108 c-194 188 -356 343 -530 506 -177 166 -310 292 -431 408 -40 37 -73
68 -75 68 -2 0 -96 -113 -209 -251z m1889 -859 c4 -3 19 -25 32 -50 24 -42
292 -503 448 -770 112 -191 124 -213 113 -209 -6 2 -110 99 -233 214 -122 116
-231 218 -243 228 -12 10 -48 44 -81 76 -33 31 -167 157 -297 279 -131 123
-240 227 -243 233 -7 10 489 9 504 -1z"/>
<path d="M4481 2514 c-12 -15 -21 -30 -21 -33 0 -15 29 -46 36 -38 4 4 2 7 -4
7 -18 0 -14 51 5 72 9 10 13 18 10 18 -3 0 -15 -12 -26 -26z"/>
<path d="M4545 2530 c3 -5 8 -10 11 -10 2 0 4 5 4 10 0 6 -5 10 -11 10 -5 0
-7 -4 -4 -10z"/>
<path d="M1772 2445 c-15 -55 -15 -65 -1 -65 5 0 7 4 4 10 -10 16 17 89 34 93
11 3 10 5 -4 6 -17 1 -23 -9 -33 -44z"/>
<path d="M1836 2452 c5 -23 1 -33 -17 -46 -13 -9 -18 -16 -12 -16 32 0 59 69
33 85 -6 4 -7 -5 -4 -23z"/>
<path d="M2010 2440 c0 -5 9 -10 20 -10 11 0 20 5 20 10 0 6 -9 10 -20 10 -11
0 -20 -4 -20 -10z"/>
<path d="M2098 2433 c6 -2 18 -2 25 0 6 3 1 5 -13 5 -14 0 -19 -2 -12 -5z"/>
<path d="M2178 2433 c6 -2 18 -2 25 0 6 3 1 5 -13 5 -14 0 -19 -2 -12 -5z"/>
<path d="M2263 2433 c9 -2 23 -2 30 0 6 3 -1 5 -18 5 -16 0 -22 -2 -12 -5z"/>
<path d="M2343 2433 c9 -2 23 -2 30 0 6 3 -1 5 -18 5 -16 0 -22 -2 -12 -5z"/>
<path d="M2418 2433 c6 -2 18 -2 25 0 6 3 1 5 -13 5 -14 0 -19 -2 -12 -5z"/>
<path d="M2508 2433 c7 -3 16 -2 19 1 4 3 -2 6 -13 5 -11 0 -14 -3 -6 -6z"/>
<path d="M2748 2423 c7 -3 16 -2 19 1 4 3 -2 6 -13 5 -11 0 -14 -3 -6 -6z"/>
<path d="M2823 2423 c9 -2 23 -2 30 0 6 3 -1 5 -18 5 -16 0 -22 -2 -12 -5z"/>
<path d="M2903 2423 c9 -2 23 -2 30 0 6 3 -1 5 -18 5 -16 0 -22 -2 -12 -5z"/>
<path d="M2988 2423 c6 -2 18 -2 25 0 6 3 1 5 -13 5 -14 0 -19 -2 -12 -5z"/>
<path d="M3068 2423 c6 -2 18 -2 25 0 6 3 1 5 -13 5 -14 0 -19 -2 -12 -5z"/>
<path d="M3140 2420 c0 -13 11 -13 30 0 12 8 11 10 -7 10 -13 0 -23 -4 -23
-10z"/>
<path d="M3220 2420 c0 -5 6 -10 14 -10 8 0 18 5 21 10 3 6 -3 10 -14 10 -12
0 -21 -4 -21 -10z"/>
<path d="M3300 2420 c0 -5 9 -10 20 -10 11 0 20 5 20 10 0 6 -9 10 -20 10 -11
0 -20 -4 -20 -10z"/>
<path d="M3380 2420 c0 -5 10 -10 23 -10 18 0 19 2 7 10 -19 13 -30 13 -30 0z"/>
<path d="M3468 2413 c6 -2 18 -2 25 0 6 3 1 5 -13 5 -14 0 -19 -2 -12 -5z"/>
<path d="M3548 2413 c6 -2 18 -2 25 0 6 3 1 5 -13 5 -14 0 -19 -2 -12 -5z"/>
<path d="M3628 2413 c6 -2 18 -2 25 0 6 3 1 5 -13 5 -14 0 -19 -2 -12 -5z"/>
<path d="M3703 2413 c9 -2 23 -2 30 0 6 3 -1 5 -18 5 -16 0 -22 -2 -12 -5z"/>
<path d="M3783 2413 c9 -2 23 -2 30 0 6 3 -1 5 -18 5 -16 0 -22 -2 -12 -5z"/>
<path d="M3868 2413 c6 -2 18 -2 25 0 6 3 1 5 -13 5 -14 0 -19 -2 -12 -5z"/>
<path d="M2571 2205 c6 -5 184 -68 788 -279 167 -59 306 -104 308 -102 2 2
-29 15 -69 29 -151 52 -452 158 -729 256 -268 95 -310 108 -298 96z"/>
<path d="M3681 1816 c10 -10 381 -138 385 -133 3 3 -34 18 -83 35 -48 16 -133
46 -187 66 -92 33 -126 43 -115 32z"/>
<path d="M4081 1677 c3 -4 127 -49 275 -101 148 -52 334 -117 414 -145 80 -28
150 -51 155 -50 18 1 -29 18 -595 216 -234 81 -258 89 -249 80z"/>
<path d="M5117 1253 c-3 -21 -8 -46 -12 -55 -6 -14 -2 -18 16 -18 33 0 51 14
48 36 -1 11 1 27 5 36 9 20 0 38 -17 37 -9 0 -9 -2 1 -6 17 -7 15 -32 -3 -39
-12 -5 -13 -10 -4 -20 14 -17 3 -34 -22 -34 -11 0 -18 4 -15 8 10 17 24 92 16
92 -4 0 -10 -17 -13 -37z"/>
<path d="M3330 1165 l0 -65 60 0 c51 0 60 3 59 18 0 10 -3 12 -6 5 -3 -8 -24
-13 -54 -13 l-49 0 0 56 0 56 55 -4 c30 -1 55 0 55 5 0 4 -27 7 -60 7 l-60 0
0 -65z"/>
<path d="M3540 1209 c0 -7 3 -9 7 -6 3 4 13 1 21 -6 13 -10 14 -9 10 3 -6 19
-38 26 -38 9z"/>
<path d="M3620 1201 c-15 -29 -12 -74 6 -97 15 -18 15 -18 5 3 -14 28 -14 69
-1 94 6 10 8 19 6 19 -3 0 -10 -9 -16 -19z"/>
<path d="M3660 1173 c0 -38 4 -52 16 -57 13 -5 14 -3 6 6 -5 7 -10 30 -10 51
0 21 -3 41 -6 44 -3 4 -6 -16 -6 -44z"/>
<path d="M3747 1191 c13 -28 14 -40 5 -65 -10 -28 -10 -29 3 -12 21 27 19 59
-5 87 l-20 24 17 -34z"/>
<path d="M3360 1198 c0 -3 5 -8 12 -10 8 -3 8 -11 -1 -33 -7 -19 -10 -22 -7
-8 2 13 1 25 -3 27 -4 3 -8 -9 -9 -25 -2 -20 2 -29 12 -29 26 0 46 12 47 29 1
9 4 6 9 -9 8 -24 8 -24 9 7 1 26 -2 30 -19 26 -24 -6 -26 5 -5 21 13 9 10 11
-15 11 -16 0 -30 -3 -30 -7z"/>
<path d="M3690 1183 c0 -7 5 -15 10 -18 6 -4 8 -16 5 -28 -5 -21 -4 -21 7 1 9
19 8 26 -5 40 -10 9 -17 11 -17 5z"/>
<path d="M3564 1151 c1 -16 4 -27 9 -24 10 6 9 41 -2 47 -4 3 -8 -8 -7 -23z"/>
<path d="M1310 783 c0 -39 -5 -63 -12 -67 -8 -4 -7 -5 2 -3 8 2 16 13 18 25 2
12 15 31 29 42 14 11 21 20 15 20 -6 0 -14 -4 -17 -10 -11 -17 -28 -11 -22 9
2 10 1 25 -4 32 -5 9 -9 -9 -9 -48z"/>
<path d="M1565 780 l-49 -50 39 1 c33 2 35 3 11 6 l-29 5 44 44 c24 24 41 44
38 44 -3 0 -27 -22 -54 -50z"/>
<path d="M1715 814 c-4 -10 -7 -24 -6 -31 1 -6 -6 -14 -16 -16 -16 -4 -16 -5
-1 -6 9 0 19 -9 22 -18 3 -10 4 -1 3 19 -2 21 1 39 7 41 5 2 7 9 4 17 -3 10
-7 9 -13 -6z"/>
<path d="M1769 780 c-9 -27 -12 -50 -8 -50 3 0 12 20 18 45 7 28 17 45 26 45
17 0 20 -25 5 -35 -5 -3 -6 -13 -3 -21 3 -9 0 -20 -8 -26 -12 -8 -12 -9 1 -6
15 5 33 64 25 86 -2 6 -13 12 -23 12 -13 0 -22 -14 -33 -50z"/>
<path d="M1868 813 c-23 -28 -30 -43 -19 -43 6 0 11 6 11 14 0 8 10 22 22 30
12 9 18 16 12 16 -6 0 -18 -8 -26 -17z"/>
<path d="M1915 820 c3 -5 10 -10 16 -10 5 0 9 5 9 10 0 6 -7 10 -16 10 -8 0
-12 -4 -9 -10z"/>
<path d="M837 813 c-14 -14 -7 -81 11 -94 15 -13 16 -12 3 3 -8 11 -12 34 -9
58 2 22 3 40 2 40 0 0 -4 -3 -7 -7z"/>
<path d="M941 770 c0 -40 2 -42 11 -22 8 16 8 28 0 45 -9 19 -11 17 -11 -23z"/>
<path d="M888 765 c2 -19 6 -35 8 -35 2 0 4 16 4 35 0 19 -4 35 -8 35 -4 0 -6
-16 -4 -35z"/>
<path d="M1266 745 c-11 -8 -15 -15 -9 -15 6 0 16 7 23 15 16 19 11 19 -14 0z"/>
<path d="M1334 751 c7 -11 46 -35 46 -28 0 3 -12 12 -26 22 -15 9 -23 12 -20
6z"/>
<path d="M1850 746 c0 -8 7 -17 16 -20 23 -9 24 -4 2 17 -14 13 -18 14 -18 3z"/>
<path d="M1310 436 c0 -8 -5 -16 -12 -18 -7 -3 -6 -7 5 -11 13 -5 17 -1 17 18
0 14 -2 25 -5 25 -3 0 -5 -6 -5 -14z"/>
<path d="M1473 433 c15 -2 37 -2 50 0 12 2 0 4 -28 4 -27 0 -38 -2 -22 -4z"/>
<path d="M1634 431 c3 -5 15 -7 26 -4 28 7 25 13 -6 13 -14 0 -23 -4 -20 -9z"/>
<path d="M1698 433 c7 -3 16 -2 19 1 4 3 -2 6 -13 5 -11 0 -14 -3 -6 -6z"/>
<path d="M2262 420 c0 -14 2 -19 5 -12 2 6 2 18 0 25 -3 6 -5 1 -5 -13z"/>
<path d="M975 376 c0 -31 1 -56 3 -56 1 0 7 11 12 25 7 18 6 35 -3 56 -12 29
-12 29 -12 -25z"/>
<path d="M1885 413 c-5 -10 -7 -24 -6 -30 1 -7 -5 -13 -13 -13 -8 0 -17 -4
-20 -9 -4 -5 4 -7 16 -3 17 4 20 2 15 -11 -4 -10 -3 -17 2 -17 8 0 23 91 16
98 -1 2 -6 -5 -10 -15z"/>
<path d="M1942 383 c-10 -36 -10 -49 -1 -57 9 -8 10 -8 6 0 -8 13 13 86 28 96
6 5 4 8 -5 8 -10 0 -20 -17 -28 -47z"/>
<path d="M2042 424 c3 -3 0 -25 -8 -49 -7 -25 -9 -47 -5 -50 5 -2 12 14 15 37
4 23 12 48 18 55 8 10 6 13 -7 13 -10 0 -16 -2 -13 -6z"/>
<path d="M2217 423 c-10 -9 -9 -83 1 -83 4 0 7 20 7 45 0 25 0 45 -1 45 0 0
-4 -3 -7 -7z"/>
<path d="M2320 416 c0 -8 -5 -16 -12 -18 -7 -3 -6 -7 5 -11 13 -5 17 -1 17 18
0 14 -2 25 -5 25 -3 0 -5 -6 -5 -14z"/>
<path d="M2388 423 c7 -3 16 -2 19 1 4 3 -2 6 -13 5 -11 0 -14 -3 -6 -6z"/>
<path d="M2600 420 c0 -5 7 -7 15 -4 8 4 15 8 15 10 0 2 -7 4 -15 4 -8 0 -15
-4 -15 -10z"/>
<path d="M3170 401 c0 -26 3 -28 28 -22 26 5 26 6 4 9 -18 3 -23 9 -19 23 3
10 1 19 -4 19 -5 0 -9 -13 -9 -29z"/>
<path d="M3208 423 c6 -2 9 -10 6 -15 -4 -7 -2 -8 5 -4 13 9 5 26 -12 25 -9 0
-8 -2 1 -6z"/>
<path d="M3252 405 c0 -16 2 -22 5 -12 2 9 2 23 0 30 -3 6 -5 -1 -5 -18z"/>
<path d="M3292 413 c-1 -12 -8 -24 -14 -26 -10 -4 -10 -6 0 -6 7 -1 12 -16 12
-42 0 -28 -4 -38 -12 -33 -7 5 -8 3 -3 -5 15 -26 26 7 22 70 -2 35 -4 54 -5
42z"/>
<path d="M3351 407 c-7 -13 -11 -41 -8 -63 l4 -39 1 46 c1 25 7 50 14 57 6 6
9 14 7 17 -3 3 -11 -5 -18 -18z"/>
<path d="M3406 405 c-6 -22 -9 -26 -17 -14 -6 9 -8 -2 -7 -36 1 -32 3 -40 5
-21 3 16 11 40 20 52 8 13 13 29 11 36 -3 7 -8 0 -12 -17z"/>
<path d="M3564 422 c4 -7 -6 -12 -26 -15 -33 -4 -33 -4 5 -5 36 -2 49 10 25
24 -6 4 -8 3 -4 -4z"/>
<path d="M3705 410 c-8 -9 -15 -32 -15 -51 l0 -34 46 3 c52 5 52 16 -1 14 -19
-1 -35 3 -35 8 0 6 21 10 46 10 l46 0 -4 -34 c-2 -19 0 -32 4 -30 4 3 8 26 7
52 0 26 -3 41 -6 35 -3 -8 -23 -13 -50 -13 -37 0 -44 3 -41 18 2 9 13 18 26
20 16 3 20 0 16 -12 -9 -22 3 -20 15 3 9 16 7 20 -14 23 -15 3 -30 -1 -40 -12z"/>
<path d="M829 397 c-8 -17 -7 -32 3 -56 l13 -32 0 55 c0 31 -1 56 -3 56 -1 0
-7 -10 -13 -23z"/>
<path d="M1985 397 c-10 -32 -12 -67 -4 -67 10 0 20 30 13 41 -3 6 -1 16 6 24
6 8 7 16 2 19 -6 3 -13 -4 -17 -17z"/>
<path d="M2097 405 c12 -24 7 -45 -16 -64 -13 -11 -13 -12 -1 -9 8 3 22 16 30
31 13 24 13 28 -4 44 -18 17 -18 17 -9 -2z"/>
<path d="M2806 388 c-3 -17 -4 -33 -1 -36 3 -3 8 9 11 26 4 18 12 32 20 32 18
0 13 -68 -6 -80 -8 -6 -10 -10 -4 -10 18 0 35 26 28 43 -3 8 0 18 6 22 15 9
-7 35 -30 35 -12 0 -20 -11 -24 -32z"/>
<path d="M2956 405 c4 -8 7 -15 9 -15 2 0 5 7 9 15 3 9 0 15 -9 15 -9 0 -12
-6 -9 -15z"/>
<path d="M3001 374 c-15 -60 -8 -68 9 -10 7 26 19 47 29 49 11 3 10 5 -5 6
-18 1 -24 -8 -33 -45z"/>
<path d="M1627 403 c-4 -3 -7 -24 -7 -46 0 -52 12 -41 14 13 1 22 1 40 1 40
-1 0 -5 -3 -8 -7z"/>
<path d="M1700 366 c0 -26 -5 -46 -12 -49 -8 -3 -6 -6 5 -6 14 -1 17 8 17 49
0 28 -2 50 -5 50 -3 0 -5 -20 -5 -44z"/>
<path d="M2479 393 c-13 -16 -12 -17 4 -4 16 13 21 21 13 21 -2 0 -10 -8 -17
-17z"/>
<path d="M3067 391 c6 -25 -13 -61 -35 -62 -11 0 -13 -2 -4 -6 31 -12 71 64
43 81 -5 4 -7 -3 -4 -13z"/>
<path d="M3463 375 c0 -22 2 -30 4 -17 2 12 2 30 0 40 -3 9 -5 -1 -4 -23z"/>
<path d="M884 365 c-1 -19 3 -35 7 -35 5 0 9 16 9 35 0 46 -15 46 -16 0z"/>
<path d="M928 365 c2 -19 6 -35 8 -35 2 0 4 16 4 35 0 19 -4 35 -8 35 -4 0 -6
-16 -4 -35z"/>
<path d="M1593 355 c0 -27 2 -38 4 -22 2 15 2 37 0 50 -2 12 -4 0 -4 -28z"/>
<path d="M2281 384 c0 -11 3 -14 6 -6 3 7 2 16 -1 19 -3 4 -6 -2 -5 -13z"/>
<path d="M2553 350 c0 -30 2 -43 4 -27 2 15 2 39 0 55 -2 15 -4 2 -4 -28z"/>
<path d="M2581 353 c1 -53 6 -49 11 10 2 20 0 37 -4 37 -4 0 -8 -21 -7 -47z"/>
<path d="M2655 390 c3 -5 8 -10 11 -10 2 0 4 5 4 10 0 6 -5 10 -11 10 -5 0 -7
-4 -4 -10z"/>
<path d="M2884 374 c-5 -18 -1 -31 12 -42 17 -16 17 -16 4 1 -10 14 -10 23 -2
42 7 15 8 25 2 25 -5 0 -13 -12 -16 -26z"/>
<path d="M1310 379 c1 -13 49 -56 53 -47 1 1 -10 16 -25 32 -16 16 -28 23 -28
15z"/>
<path d="M1445 370 c-30 -8 -30 -8 8 -9 23 -1 36 3 32 9 -3 6 -7 9 -8 9 -1 -1
-15 -5 -32 -9z"/>
<path d="M1528 363 c7 -3 16 -2 19 1 4 3 -2 6 -13 5 -11 0 -14 -3 -6 -6z"/>
<path d="M3212 340 c0 -19 2 -27 5 -17 2 9 2 25 0 35 -3 9 -5 1 -5 -18z"/>
<path d="M3426 357 c3 -10 9 -15 12 -12 3 3 0 11 -7 18 -10 9 -11 8 -5 -6z"/>
<path d="M2255 350 c-18 -8 -17 -9 8 -9 16 -1 26 3 22 9 -3 6 -7 10 -8 9 -1 0
-11 -4 -22 -9z"/>
<path d="M2407 353 c18 -2 50 -2 70 0 21 2 7 4 -32 4 -38 0 -55 -2 -38 -4z"/>
<path d="M3173 325 c0 -22 2 -30 4 -17 2 12 2 30 0 40 -3 9 -5 -1 -4 -23z"/>
<path d="M3252 335 c0 -16 2 -22 5 -12 2 9 2 23 0 30 -3 6 -5 -1 -5 -18z"/>
<path d="M2318 343 c7 -3 16 -2 19 1 4 3 -2 6 -13 5 -11 0 -14 -3 -6 -6z"/>
<path d="M3566 339 c2 -4 -6 -15 -18 -23 -12 -9 -18 -16 -12 -16 5 0 15 5 22
12 10 10 19 8 42 -5 17 -10 30 -14 30 -10 0 5 -10 13 -22 18 -13 6 -22 15 -21
21 1 6 -4 11 -12 11 -8 0 -12 -4 -9 -8z"/>
<path d="M2785 330 c-3 -5 1 -10 10 -10 9 0 13 5 10 10 -3 6 -8 10 -10 10 -2
0 -7 -4 -10 -10z"/>
<path d="M2235 320 c-3 -6 1 -7 9 -4 18 7 21 14 7 14 -6 0 -13 -4 -16 -10z"/>
<path d="M2300 320 c8 -5 20 -10 25 -10 6 0 3 5 -5 10 -8 5 -19 10 -25 10 -5
0 -3 -5 5 -10z"/>
<path d="M3446 303 c-6 -14 -5 -15 5 -6 7 7 10 15 7 18 -3 3 -9 -2 -12 -12z"/>
<path d="M6486 188 c-18 -26 -20 -56 -6 -78 7 -11 8 -6 4 17 -4 22 -1 41 10
58 20 31 13 33 -8 3z"/>
<path d="M6548 193 c7 -3 16 -2 19 1 4 3 -2 6 -13 5 -11 0 -14 -3 -6 -6z"/>
<path d="M6807 179 c4 -13 8 -18 11 -10 2 7 -1 18 -6 23 -8 8 -9 4 -5 -13z"/>
<path d="M6541 168 c7 -7 20 -19 27 -27 7 -9 12 -10 12 -4 0 15 -28 43 -43 43
-6 0 -5 -5 4 -12z"/>
<path d="M6743 146 c-1 -18 1 -23 4 -11 3 11 10 23 15 26 6 4 4 8 -4 12 -10 3
-14 -4 -15 -27z"/>
<path d="M6818 145 c-3 -6 -8 -23 -12 -40 l-6 -30 16 28 c8 16 14 33 11 40 -2
6 -6 7 -9 2z"/>
<path d="M6530 110 c0 -5 5 -10 11 -10 5 0 7 5 4 10 -3 6 -8 10 -11 10 -2 0
-4 -4 -4 -10z"/>
</g>
</svg>
