<?xml version="1.0" standalone="no"?>
<!DOCTYPE svg PUBLIC "-//W3C//DTD SVG 20010904//EN"
 "http://www.w3.org/TR/2001/REC-SVG-20010904/DTD/svg10.dtd">
<svg version="1.0" xmlns="http://www.w3.org/2000/svg"
 width="1392.000000pt" height="540.000000pt" viewBox="0 0 1392.000000 540.000000"
 preserveAspectRatio="xMidYMid meet">
<metadata>
Created by potrace 1.16, written by Peter Selinger 2001-2019
</metadata>
<g transform="translate(0.000000,540.000000) scale(0.100000,-0.100000)"
fill="#000000" stroke="none">
<path d="M4533 5273 c-23 -9 -14 -20 12 -15 34 6 44 -22 22 -62 l-17 -31 20
24 c40 47 15 105 -37 84z"/>
<path d="M1338 5223 c7 -3 16 -2 19 1 4 3 -2 6 -13 5 -11 0 -14 -3 -6 -6z"/>
<path d="M2570 5205 c-5 -14 -16 -25 -25 -25 -12 0 -15 -16 -15 -93 l0 -93 36
4 c24 3 39 0 45 -9 5 -9 9 9 9 48 0 34 5 65 10 68 8 5 8 11 1 19 -6 7 -8 22
-4 34 5 20 3 21 -26 16 -35 -7 -38 1 -15 34 9 13 11 22 4 22 -6 0 -15 -11 -20
-25z m40 -75 c0 -28 -3 -30 -35 -30 -32 0 -35 2 -35 30 0 28 3 30 35 30 32 0
35 -2 35 -30z m0 -80 c0 -39 -1 -40 -35 -40 -33 0 -35 2 -35 33 0 41 5 47 42
47 26 0 28 -3 28 -40z"/>
<path d="M2670 5210 c0 -12 -7 -35 -15 -53 -15 -30 -15 -31 1 -9 13 17 26 22
62 22 51 0 50 13 -1 14 -27 1 -32 4 -30 24 2 12 -2 22 -7 22 -6 0 -10 -9 -10
-20z"/>
<path d="M4030 5214 c0 -8 -4 -13 -9 -9 -6 3 -9 -7 -8 -22 2 -24 -2 -29 -33
-34 -19 -4 -29 -7 -22 -8 8 -1 10 -9 6 -27 -4 -17 -2 -29 6 -34 17 -10 5 -55
-21 -81 -26 -26 -22 -30 11 -12 14 7 22 13 18 13 -4 0 -1 19 7 41 18 51 18 49
0 49 -21 0 -19 26 3 35 9 4 48 6 86 5 40 -1 66 2 62 8 -3 5 -17 7 -31 4 -15
-2 -25 0 -25 7 0 6 10 11 22 11 16 0 19 3 11 11 -15 15 -53 2 -46 -17 4 -10
-2 -14 -21 -14 -26 0 -33 10 -18 24 4 4 7 13 7 19 0 7 17 10 48 8 29 -1 47 2
47 8 0 6 -18 11 -41 11 -24 0 -38 4 -34 10 3 6 -1 10 -9 10 -9 0 -16 -7 -16
-16z"/>
<path d="M7758 5100 c-2 -72 0 -130 5 -130 4 0 7 53 7 118 0 78 4 122 12 130
9 9 8 12 -4 12 -15 0 -17 -17 -20 -130z"/>
<path d="M7860 5095 c0 -76 3 -136 6 -133 7 7 6 259 -1 266 -3 3 -5 -57 -5
-133z"/>
<path d="M8021 5223 c-1 -7 -11 -13 -23 -13 -17 0 -19 -3 -10 -9 25 -16 9 -46
-28 -52 -19 -4 -29 -7 -22 -8 8 -1 10 -9 6 -27 -4 -17 -2 -29 7 -35 20 -13 29
-11 29 6 0 8 -6 12 -14 9 -11 -4 -13 0 -9 15 6 22 9 23 58 23 23 0 25 1 8 5
-26 5 -30 21 -9 29 8 3 12 12 9 21 -5 12 2 14 35 12 23 -2 44 0 48 4 4 4 -11
7 -33 7 -24 0 -43 5 -46 13 -4 10 -6 10 -6 0z"/>
<path d="M9100 5224 c0 -7 -12 -14 -27 -17 -16 -3 -39 -9 -53 -13 -23 -7 -24
-6 -11 9 7 9 10 17 6 17 -8 0 -34 -31 -35 -41 -1 -18 35 -18 52 1 14 15 32 20
71 21 29 1 43 4 32 6 -11 3 -23 10 -27 17 -6 8 -8 8 -8 0z"/>
<path d="M9173 5203 c-17 -35 -16 -40 5 -40 19 0 52 25 52 41 0 6 -5 5 -12 -2
-7 -7 -19 -12 -27 -12 -12 0 -12 3 -3 12 13 13 16 28 5 28 -5 0 -14 -12 -20
-27z"/>
<path d="M9802 5172 c-13 -31 -26 -64 -29 -72 -3 -8 2 -6 10 5 15 19 16 15 17
-62 0 -46 4 -83 8 -83 5 0 9 47 9 105 1 58 4 119 8 135 10 45 3 36 -23 -28z"/>
<path d="M9844 5214 c3 -8 7 -70 8 -137 0 -67 3 -107 5 -89 3 25 9 32 26 33
l22 0 -22 9 c-13 6 -23 18 -23 30 0 16 6 20 35 20 19 0 35 5 35 10 0 6 -15 9
-32 8 -28 -3 -34 1 -36 20 -3 19 1 22 32 22 31 0 36 3 36 24 0 13 3 31 6 40 5
12 0 16 -17 15 -13 0 -18 -3 -11 -6 6 -2 12 -18 12 -34 0 -26 -3 -29 -31 -29
-30 0 -31 1 -26 34 4 25 1 36 -10 40 -11 5 -13 2 -9 -10z"/>
<path d="M9990 5220 c-31 -6 -32 -8 -8 -9 32 -1 39 -10 31 -39 -3 -14 -15 -22
-37 -25 -24 -3 -21 -4 14 -5 l45 -2 1 45 c1 25 -1 44 -5 44 -3 -1 -22 -5 -41
-9z"/>
<path d="M10235 5221 c4 -8 2 -17 -6 -22 -9 -5 8 -8 46 -7 39 1 48 3 25 5 -19
3 -44 12 -54 21 -12 10 -16 11 -11 3z"/>
<path d="M11913 5218 c-2 -5 6 -8 18 -8 21 0 21 -3 16 -59 -5 -64 -37 -146
-65 -167 -10 -8 -12 -13 -5 -14 17 0 58 67 74 120 l13 43 13 -31 c7 -17 17
-34 24 -37 6 -4 4 7 -5 23 -9 17 -16 33 -16 37 0 3 24 5 53 5 35 0 47 3 38 9
-12 8 -13 16 -4 45 10 33 8 46 -7 46 -3 0 -6 -15 -7 -34 -1 -48 -9 -56 -54
-56 -38 0 -39 1 -39 34 0 34 1 35 43 38 36 3 33 4 -21 8 -35 3 -66 2 -69 -2z"/>
<path d="M1175 5208 c-9 -28 -10 -98 -2 -95 5 1 10 26 11 55 1 52 -1 63 -9 40z"/>
<path d="M1916 5205 c25 -19 40 -19 24 0 -7 8 -20 15 -28 15 -13 0 -12 -3 4
-15z"/>
<path d="M2265 5191 c28 -30 30 -37 30 -111 0 -74 -2 -81 -30 -111 -25 -26
-26 -30 -8 -20 30 15 63 81 63 125 0 51 -27 112 -58 132 -26 16 -26 16 3 -15z"/>
<path d="M3256 5205 c5 -11 -1 -15 -25 -15 -30 0 -30 -1 -13 -18 12 -13 18
-14 20 -5 2 7 18 13 37 13 l33 0 -11 -35 c-11 -38 -42 -48 -50 -17 -4 15 -5
15 -6 0 0 -9 -11 -19 -23 -21 -13 -2 0 -5 28 -6 49 -1 52 0 57 28 3 16 13 36
22 44 22 22 19 27 -14 21 -20 -4 -30 -2 -34 10 -4 9 -11 16 -16 16 -6 0 -8 -7
-5 -15z"/>
<path d="M3370 5090 c0 -73 2 -131 4 -129 7 7 9 249 2 256 -3 4 -6 -54 -6
-127z"/>
<path d="M3692 5208 c8 -7 25 -28 38 -47 29 -42 20 -48 -75 -50 -67 -1 -100 9
-76 23 13 9 52 76 43 76 -4 0 -16 -15 -26 -32 -10 -18 -30 -45 -44 -60 -14
-16 -21 -28 -14 -28 6 0 13 3 15 8 3 4 46 6 97 4 l92 -3 -7 -52 c-9 -66 -12
-70 -46 -65 -36 6 -37 1 -3 -12 39 -15 51 1 60 77 6 62 8 65 31 60 13 -2 26 0
29 4 3 5 -1 9 -10 9 -21 0 -76 58 -76 81 0 13 -7 19 -22 19 -19 0 -20 -2 -6
-12z"/>
<path d="M3879 5188 c-1 -18 -3 -68 -4 -112 -2 -43 0 -88 5 -100 10 -24 10
-19 13 138 1 58 6 91 14 93 6 2 13 -4 15 -14 3 -16 5 -15 16 5 12 21 11 22
-23 22 -33 0 -35 -2 -36 -32z"/>
<path d="M5152 5207 c-14 -17 -19 -32 -9 -32 4 0 11 -6 16 -13 5 -9 13 -6 31
13 13 14 18 25 12 25 -6 0 -14 -4 -17 -10 -11 -18 -26 -10 -20 10 7 23 2 26
-13 7z"/>
<path d="M5250 5210 c0 -5 -8 -11 -17 -11 -10 -1 -2 -5 17 -9 24 -5 28 -8 12
-9 -13 0 -21 -5 -18 -10 10 -16 52 0 52 19 0 11 -2 17 -4 15 -3 -2 -13 0 -23
6 -13 6 -19 6 -19 -1z"/>
<path d="M5326 5199 c-11 -10 -16 -22 -12 -26 15 -15 44 -12 61 7 19 21 7 28
-13 8 -17 -17 -28 -2 -12 17 18 22 -1 17 -24 -6z"/>
<path d="M6018 5212 c-62 -3 -68 -5 -68 -25 0 -37 -15 -50 -49 -45 l-31 5 2
-96 2 -96 3 88 c4 85 4 87 28 87 24 0 25 -2 25 -80 0 -47 4 -80 10 -80 6 0 10
31 11 73 0 39 3 90 7 112 l7 40 70 5 c88 6 74 16 -17 12z"/>
<path d="M6220 5158 l0 -56 36 10 c40 11 61 0 51 -26 -4 -11 -24 -16 -69 -19
-35 -2 -5 -4 65 -5 82 -1 126 -6 122 -12 -3 -5 -1 -10 5 -10 6 0 10 8 8 17 -2
14 -13 16 -61 14 -52 -2 -58 -1 -55 16 2 13 15 19 47 23 l44 5 3 50 2 50 -99
0 -99 0 0 -57z m180 8 c0 -29 -4 -34 -28 -39 -16 -3 -54 -3 -85 0 -57 6 -57 6
-57 39 l0 34 85 0 85 0 0 -34z"/>
<path d="M6916 5208 c5 -15 0 -18 -25 -18 -29 0 -30 -2 -19 -20 11 -16 14 -17
21 -5 11 20 53 19 61 -1 6 -15 8 -15 25 2 23 24 19 33 -14 26 -18 -3 -31 1
-41 14 -12 17 -13 17 -8 2z"/>
<path d="M7331 5217 c2 -1 12 -9 22 -16 14 -12 17 -11 17 3 0 10 -8 16 -22 16
-12 0 -19 -1 -17 -3z"/>
<path d="M7540 5123 c0 -62 4 -93 12 -95 8 -3 5 -15 -11 -39 l-23 -34 34 37
c20 22 46 38 63 41 16 2 31 9 33 15 5 15 -14 16 -23 2 -3 -5 -22 -10 -41 -10
-30 0 -34 3 -34 26 0 25 2 26 45 22 26 -2 45 1 45 7 0 6 -19 9 -45 7 -43 -4
-45 -3 -45 23 0 26 2 27 45 23 26 -2 45 1 45 7 0 6 -19 9 -45 7 -41 -4 -45 -2
-45 18 0 20 4 22 50 18 29 -2 50 1 50 7 0 6 -25 10 -55 10 l-55 0 0 -92z"/>
<path d="M7893 5213 c20 -5 20 -4 6 -40 -13 -35 3 -18 19 20 11 26 10 27 -16
26 -17 -1 -20 -3 -9 -6z"/>
<path d="M8860 5207 c-20 -8 -22 -11 -8 -14 20 -5 55 12 42 19 -5 3 -20 1 -34
-5z"/>
<path d="M10670 5211 c0 -10 30 -24 37 -17 3 2 -5 9 -16 16 -12 6 -21 7 -21 1z"/>
<path d="M12396 5198 c-9 -12 -16 -28 -16 -35 0 -7 -5 -13 -11 -13 -8 0 -8 -5
1 -15 16 -20 15 -106 -2 -117 -9 -5 -5 -8 12 -8 24 0 25 2 22 60 -3 55 -2 61
20 69 l23 10 -23 0 c-19 1 -23 6 -20 29 2 19 9 27 23 27 11 1 24 -4 28 -10 5
-6 7 -4 4 5 -6 25 -43 24 -61 -2z"/>
<path d="M141 5201 c-9 -6 -10 -11 -2 -15 16 -10 11 -148 -6 -168 -14 -15 -13
-17 11 -15 14 1 26 5 26 10 3 78 -2 197 -7 197 -5 0 -14 -4 -22 -9z"/>
<path d="M272 5198 c-16 -16 -15 -54 2 -70 12 -11 12 -17 -4 -43 -13 -21 -15
-37 -9 -52 11 -29 53 -40 74 -20 20 20 20 76 0 83 -8 4 -15 12 -15 19 0 7 7
15 15 19 18 7 20 47 3 64 -7 7 -21 12 -33 12 -12 0 -26 -5 -33 -12z m53 -33
c0 -38 -27 -45 -42 -12 -9 18 -8 28 0 36 20 20 42 8 42 -24z m-7 -77 c19 -19
15 -68 -6 -68 -24 0 -42 19 -35 39 3 9 7 22 9 29 4 15 17 15 32 0z"/>
<path d="M998 5203 c17 -2 47 -2 65 0 17 2 3 4 -33 4 -36 0 -50 -2 -32 -4z"/>
<path d="M1128 5203 c7 -3 16 -2 19 1 4 3 -2 6 -13 5 -11 0 -14 -3 -6 -6z"/>
<path d="M1317 5168 l-17 -42 21 22 c11 13 19 31 17 42 -2 14 -8 8 -21 -22z"/>
<path d="M1861 5170 c-10 -22 -15 -40 -10 -40 13 0 11 -104 -3 -118 -9 -9 -3
-12 28 -12 31 1 36 3 22 11 -14 8 -18 23 -18 64 0 48 2 54 23 58 22 4 22 4 -2
6 -20 1 -23 5 -19 36 2 19 3 35 1 35 -1 0 -11 -18 -22 -40z"/>
<path d="M2010 5178 c-45 -61 -37 -169 16 -219 l26 -24 -26 49 c-15 27 -26 65
-26 86 0 44 25 121 43 132 7 4 8 8 1 8 -5 0 -21 -14 -34 -32z"/>
<path d="M3424 5180 c-1 -38 2 -38 21 0 14 28 14 30 -2 30 -13 0 -18 -8 -19
-30z"/>
<path d="M3970 5201 c0 -5 5 -13 10 -16 6 -3 10 -2 10 4 0 5 -4 13 -10 16 -5
3 -10 2 -10 -4z"/>
<path d="M4920 5200 c-77 -4 -94 -7 -52 -8 l62 -2 0 -105 0 -105 -34 0 c-30 0
-35 4 -39 28 l-4 27 -2 -27 c-1 -22 -6 -27 -33 -31 -18 -2 32 -5 111 -5 79 -1
141 1 137 6 -4 4 -33 7 -64 7 l-57 0 0 50 0 50 48 3 c26 2 45 7 42 12 -3 4
-22 6 -44 3 -46 -6 -56 5 -47 53 7 34 7 34 61 34 30 0 55 5 55 10 0 6 -6 9
-12 8 -7 -1 -65 -5 -128 -8z"/>
<path d="M5858 5203 c7 -3 16 -2 19 1 4 3 -2 6 -13 5 -11 0 -14 -3 -6 -6z"/>
<path d="M7020 5193 c0 -12 3 -14 8 -7 4 7 16 14 27 17 15 4 14 5 -7 6 -21 1
-28 -4 -28 -16z"/>
<path d="M7086 5195 c4 -8 10 -12 15 -9 14 8 10 24 -6 24 -9 0 -12 -6 -9 -15z"/>
<path d="M7252 5183 c-6 -16 -24 -43 -40 -60 -17 -18 -27 -33 -22 -33 5 0 11
4 15 9 4 8 72 4 83 -4 9 -8 -35 -89 -60 -110 -16 -14 -25 -25 -20 -25 22 0 71
59 83 98 11 39 14 42 49 42 20 0 39 -2 41 -4 3 -3 2 -29 -1 -58 -5 -49 -7 -53
-35 -58 l-30 -6 29 -7 c15 -5 30 -6 32 -4 2 2 9 30 15 63 16 92 18 97 35 83
11 -9 18 -9 26 -1 9 9 8 12 -6 12 -10 0 -31 13 -47 29 -30 31 -41 31 -13 0 26
-29 8 -39 -71 -39 -78 0 -97 10 -72 38 22 26 39 62 28 62 -5 0 -14 -12 -19
-27z"/>
<path d="M7956 5197 c3 -10 9 -15 12 -12 3 3 0 11 -7 18 -10 9 -11 8 -5 -6z"/>
<path d="M10632 5190 c-6 -11 -12 -27 -12 -35 0 -10 -5 -13 -12 -9 -10 6 -10
4 0 -7 15 -17 16 -111 0 -127 -9 -9 -3 -12 28 -12 30 1 35 3 23 10 -23 13 -26
120 -4 120 8 0 15 4 15 10 0 5 -7 7 -15 4 -18 -7 -20 18 -5 47 14 25 -2 25
-18 -1z"/>
<path d="M10778 5180 c-22 -30 -24 -38 -32 -93 -5 -40 13 -93 42 -119 l24 -23
-21 36 c-35 59 -31 169 7 212 8 9 12 17 9 17 -4 0 -16 -14 -29 -30z"/>
<path d="M10900 5202 c-29 -5 -50 -20 -50 -36 0 -6 7 -3 14 7 18 23 53 22 66
-3 13 -25 -1 -77 -28 -101 -9 -9 -24 -25 -34 -37 -15 -19 -15 -20 12 -25 31
-7 82 4 87 19 2 5 -14 8 -37 6 -38 -4 -54 8 -30 23 18 11 60 84 60 103 0 26
-30 49 -60 44z"/>
<path d="M11479 5200 c-24 -14 -59 -86 -59 -121 0 -20 9 -38 26 -54 33 -30 34
-30 63 -4 17 16 21 30 19 62 -3 39 -5 42 -35 45 -46 4 -39 41 12 70 14 8 15
11 5 11 -8 0 -22 -4 -31 -9z m31 -109 c18 -44 -12 -86 -46 -63 -19 13 -34 68
-21 81 21 21 54 12 67 -18z"/>
<path d="M11606 5203 c-50 -50 -35 -193 20 -193 51 0 80 86 53 157 -15 39 -52
57 -73 36z m49 -24 c16 -50 14 -118 -4 -140 -36 -45 -67 8 -56 95 8 63 46 90
60 45z"/>
<path d="M12536 5191 c-39 -43 -44 -155 -9 -209 20 -33 27 -22 8 14 -22 42
-19 127 5 174 23 44 22 49 -4 21z"/>
<path d="M12612 5198 c-21 -21 -13 -29 13 -12 20 13 28 14 40 4 21 -17 19 -48
-5 -62 -25 -16 -26 -28 -1 -28 23 0 34 -43 16 -66 -8 -12 -22 -15 -44 -12 -20
3 -30 1 -28 -6 6 -16 57 -9 78 10 21 19 25 64 8 81 -8 8 -9 20 -1 41 6 18 6
35 0 45 -10 20 -58 23 -76 5z"/>
<path d="M12761 5180 c20 -27 24 -44 24 -105 0 -68 -2 -76 -30 -106 l-30 -32
31 21 c33 22 54 75 54 133 0 37 -37 110 -59 117 -8 3 -4 -9 10 -28z"/>
<path d="M13162 5194 c-16 -11 -22 -25 -22 -53 0 -44 14 -61 52 -61 15 0 28
-5 28 -10 0 -14 -46 -60 -60 -60 -5 0 -10 -5 -10 -10 0 -16 58 18 75 43 25 38
30 112 11 142 -19 29 -42 32 -74 9z m57 -8 c7 -8 11 -32 9 -53 -3 -43 -32 -58
-55 -27 -36 49 9 125 46 80z"/>
<path d="M13310 5190 c-22 -22 -27 -79 -8 -98 7 -7 24 -12 38 -12 43 0 43 -11
-2 -54 -42 -39 -42 -39 -9 -21 45 26 68 60 76 112 6 37 3 46 -19 68 -30 30
-49 32 -76 5z m59 -4 c6 -8 14 -30 16 -49 4 -29 1 -37 -15 -42 -39 -12 -60 3
-60 44 0 54 32 79 59 47z"/>
<path d="M1450 5086 c0 -94 2 -107 16 -102 9 3 30 6 48 6 l32 0 2 72 c2 40 0
69 -5 65 -4 -4 -8 -29 -9 -55 -1 -26 -3 -53 -3 -59 -1 -8 -15 -13 -36 -13
l-35 0 0 90 0 90 39 0 c35 0 39 -2 33 -22 -3 -14 -2 -19 6 -14 7 4 12 15 12
26 0 15 -9 19 -50 22 l-50 3 0 -109z"/>
<path d="M7698 5115 c-2 -47 0 -85 4 -85 3 0 8 38 10 85 2 47 0 85 -4 85 -3 0
-8 -38 -10 -85z"/>
<path d="M8768 5094 c3 -82 1 -109 -10 -115 -8 -5 15 -9 59 -9 39 0 74 4 77 9
4 5 -19 7 -54 4 l-60 -6 0 57 c0 54 1 56 28 57 l27 1 -25 7 c-21 6 -26 14 -28
48 -2 33 1 42 15 46 13 3 11 5 -7 6 l-25 1 3 -106z"/>
<path d="M10132 5179 c-7 -12 -11 -23 -9 -26 3 -3 10 4 16 16 7 12 24 21 44
24 l32 4 -35 1 c-26 2 -39 -3 -48 -19z"/>
<path d="M10346 5185 c13 -34 -15 -45 -115 -47 -75 -1 -85 -2 -46 -7 l50 -6 3
-67 c2 -56 0 -68 -12 -68 -25 0 -49 46 -42 80 3 17 2 30 -3 30 -5 0 -11 -16
-14 -36 -3 -20 -18 -52 -32 -72 l-27 -37 31 33 32 33 29 -24 c34 -29 136 -46
167 -28 14 8 3 10 -49 11 -65 0 -68 1 -68 24 0 48 9 56 63 56 28 0 47 3 44 7
-4 4 -30 6 -58 4 -50 -2 -50 -2 -47 26 3 26 7 28 50 31 39 3 47 7 52 28 4 13
11 24 16 24 6 0 10 5 10 10 0 6 -9 10 -20 10 -13 0 -18 -5 -14 -15z"/>
<path d="M1379 5183 c-24 -4 -26 -8 -24 -44 2 -34 -1 -39 -19 -40 -21 0 -21 0
1 -9 15 -6 20 -15 16 -30 -4 -16 -2 -19 11 -14 11 4 21 -4 33 -25 10 -17 21
-31 26 -31 15 0 6 17 -21 43 -25 24 -29 35 -28 80 1 49 3 52 29 55 15 2 25 8
22 13 -4 5 -9 8 -13 8 -4 -1 -19 -4 -33 -6z"/>
<path d="M2770 5123 c0 -73 -15 -143 -30 -143 -6 0 -10 -4 -10 -10 0 -22 22
-8 34 23 16 37 27 197 14 197 -4 0 -8 -30 -8 -67z"/>
<path d="M9100 5180 c-24 -8 -23 -8 8 -9 20 -1 31 3 27 9 -3 6 -7 10 -8 9 -1
-1 -13 -5 -27 -9z"/>
<path d="M11047 5160 c4 -19 6 -63 6 -97 -2 -63 9 -83 21 -40 11 43 5 102 -15
137 l-20 35 8 -35z"/>
<path d="M8058 5173 c-14 -4 -16 -8 -8 -24 11 -19 60 -27 60 -10 0 5 -8 7 -19
4 -10 -3 -22 0 -25 6 -4 7 1 11 13 11 12 0 21 5 21 10 0 10 -12 11 -42 3z"/>
<path d="M988 5164 c-5 -4 -8 -47 -8 -95 0 -105 -5 -101 140 -97 l95 3 2 35
c1 19 -1 26 -4 15 -9 -36 -33 -45 -119 -45 -54 0 -85 4 -91 13 -5 6 -9 35 -9
62 l1 50 80 6 80 5 -77 2 c-75 2 -77 3 -80 28 -2 14 -6 22 -10 18z"/>
<path d="M7069 5147 c-9 -21 -8 -29 11 -54 29 -40 24 -85 -10 -94 -23 -6 -22
-7 8 -8 27 -1 32 3 33 22 2 38 -1 51 -22 80 -16 22 -17 31 -9 48 7 11 9 23 6
26 -3 3 -10 -6 -17 -20z"/>
<path d="M4525 5151 c-9 -16 16 -22 50 -12 24 7 25 9 8 10 -12 1 -28 4 -36 7
-8 3 -18 1 -22 -5z"/>
<path d="M5275 5150 c-3 -5 1 -10 10 -10 9 0 13 5 10 10 -3 6 -8 10 -10 10 -2
0 -7 -4 -10 -10z"/>
<path d="M7021 5144 c0 -11 3 -14 6 -6 3 7 2 16 -1 19 -3 4 -6 -2 -5 -13z"/>
<path d="M9035 5150 c-3 -5 -1 -10 4 -10 6 0 11 5 11 10 0 6 -2 10 -4 10 -3 0
-8 -4 -11 -10z"/>
<path d="M9100 5150 l-25 -8 27 -1 c15 -1 30 4 33 9 7 11 0 11 -35 0z"/>
<path d="M9215 5150 c-3 -5 1 -10 10 -10 9 0 13 5 10 10 -3 6 -8 10 -10 10 -2
0 -7 -4 -10 -10z"/>
<path d="M5140 5134 c-13 -15 -6 -17 24 -5 17 6 17 8 3 14 -8 3 -21 -1 -27 -9z"/>
<path d="M5195 5140 c3 -5 8 -10 11 -10 2 0 4 5 4 10 0 6 -5 10 -11 10 -5 0
-7 -4 -4 -10z"/>
<path d="M5324 5141 c-12 -13 -1 -19 24 -12 15 4 34 6 42 3 8 -3 11 -1 7 4 -9
9 -65 13 -73 5z"/>
<path d="M6020 5140 c-45 -7 -41 -10 15 -13 29 -2 30 -4 31 -47 0 -71 -7 -100
-25 -100 -13 -1 -13 -2 3 -11 14 -9 20 -8 27 2 11 17 12 180 2 177 -5 0 -28
-4 -53 -8z"/>
<path d="M8987 5143 c-13 -13 -7 -21 13 -16 11 3 17 9 14 14 -6 11 -18 12 -27
2z"/>
<path d="M9167 5143 c-13 -13 -7 -21 13 -16 11 3 17 9 14 14 -6 11 -18 12 -27
2z"/>
<path d="M2118 5130 c21 -9 27 -29 24 -72 -1 -10 2 -18 7 -18 5 0 11 -9 14
-21 3 -12 10 -18 17 -14 7 4 8 11 2 18 -17 22 -21 61 -9 76 10 12 9 14 -5 9
-11 -5 -18 0 -21 13 -3 12 -13 19 -29 18 l-23 0 23 -9z"/>
<path d="M2190 5130 c-12 -8 -11 -10 8 -10 12 0 22 5 22 10 0 13 -11 13 -30 0z"/>
<path d="M4851 5093 c1 -53 6 -49 11 10 2 20 0 37 -4 37 -4 0 -8 -21 -7 -47z"/>
<path d="M6891 5128 c0 -9 -11 -19 -23 -21 -13 -2 1 -5 30 -6 44 -1 52 2 51
17 0 10 -3 12 -6 5 -7 -19 -41 -16 -46 5 -4 15 -5 15 -6 0z"/>
<path d="M8681 5090 c0 -27 3 -51 8 -54 4 -3 9 19 10 49 1 30 -3 55 -7 55 -5
0 -10 -22 -11 -50z"/>
<path d="M12090 5123 c0 -32 -39 -85 -58 -79 -13 4 -17 0 -17 -19 0 -14 4 -20
9 -15 5 5 27 -1 52 -16 24 -14 49 -24 56 -22 6 2 -9 15 -35 27 -29 14 -45 27
-40 34 3 7 19 31 35 54 32 48 34 53 13 53 -8 0 -15 -8 -15 -17z"/>
<path d="M4382 5124 c14 -4 29 -35 32 -69 3 -22 18 -55 25 -55 5 0 14 7 21 15
11 13 10 14 -1 10 -10 -4 -18 10 -29 47 -13 45 -19 53 -40 55 -14 1 -18 -1 -8
-3z"/>
<path d="M4455 5120 c-3 -5 1 -10 9 -10 8 0 18 5 21 10 3 6 -1 10 -9 10 -8 0
-18 -4 -21 -10z"/>
<path d="M5234 5121 c-2 -2 -4 -13 -4 -23 0 -21 -27 -53 -67 -80 -16 -10 -23
-18 -17 -18 5 0 19 7 30 15 26 20 126 21 118 1 -8 -20 -41 -26 -55 -10 -6 8
-17 14 -23 14 -6 0 -2 -7 8 -15 23 -18 21 -20 -24 -34 l-35 -11 35 7 c46 9 94
8 153 -2 29 -5 47 -4 47 2 0 5 -21 11 -46 12 -26 0 -51 4 -56 7 -15 9 23 44
48 44 25 0 40 15 25 24 -5 4 -12 2 -16 -4 -3 -5 -33 -10 -66 -10 -52 0 -60 2
-57 18 2 11 14 18 36 20 26 3 32 8 32 26 0 19 -5 23 -31 22 -17 -1 -32 -3 -35
-5z m46 -21 c0 -5 -6 -10 -14 -10 -8 0 -18 5 -21 10 -3 6 3 10 14 10 12 0 21
-4 21 -10z"/>
<path d="M5593 5096 c1 -20 7 -34 12 -33 14 5 13 59 -2 64 -8 3 -11 -8 -10
-31z"/>
<path d="M8358 5120 c40 -17 19 -100 -26 -100 -7 0 -12 -4 -12 -10 0 -19 22
-10 51 21 16 17 29 36 29 42 0 6 8 20 18 31 16 19 16 20 0 7 -15 -11 -19 -11
-24 3 -4 9 -17 16 -33 15 -25 0 -25 0 -3 -9z"/>
<path d="M8440 5119 c0 -5 5 -7 10 -4 6 3 10 8 10 11 0 2 -4 4 -10 4 -5 0 -10
-5 -10 -11z"/>
<path d="M9070 5102 c0 -29 -25 -59 -68 -82 -13 -6 -21 -14 -19 -17 9 -9 86
41 91 59 3 12 14 18 35 18 26 0 31 4 31 25 0 22 -4 25 -35 25 -32 0 -35 -3
-35 -28z m60 9 c0 -6 -5 -13 -10 -16 -15 -9 -43 3 -35 15 8 13 45 13 45 1z"/>
<path d="M9423 5123 c-14 -5 -18 -53 -5 -53 5 0 8 10 8 21 -1 12 5 24 11 26
19 7 29 -27 12 -38 -10 -6 -11 -9 -1 -9 19 0 26 28 12 45 -13 16 -17 17 -37 8z"/>
<path d="M2683 5110 c4 -8 10 -23 13 -32 6 -18 34 -33 34 -19 0 4 -12 21 -27
37 -14 16 -23 22 -20 14z"/>
<path d="M2985 5110 c-71 -3 -125 -8 -119 -12 12 -8 251 -4 259 4 12 12 -12
13 -140 8z"/>
<path d="M3320 5110 c0 -5 7 -10 15 -10 8 0 15 5 15 10 0 6 -7 10 -15 10 -8 0
-15 -4 -15 -10z"/>
<path d="M4068 5113 c-44 -4 -48 -6 -48 -31 0 -15 -3 -38 -6 -52 -3 -14 -2
-20 3 -15 12 16 82 35 89 24 8 -13 -5 -29 -24 -29 -15 -1 -15 -2 2 -11 26 -16
36 3 36 69 0 28 -1 51 -2 50 -2 -1 -24 -3 -50 -5z m42 -29 c0 -11 -6 -15 -20
-11 -10 3 -18 0 -17 -5 1 -5 -8 -14 -20 -19 -19 -7 -23 -5 -23 11 0 12 7 20
18 20 14 0 15 2 2 10 -11 7 -5 10 23 10 27 0 37 -4 37 -16z"/>
<path d="M5380 5115 c0 -5 5 -17 10 -25 5 -8 10 -10 10 -5 0 6 -5 17 -10 25
-5 8 -10 11 -10 5z"/>
<path d="M6744 5110 c-5 -5 -61 -11 -124 -13 l-115 -3 133 -2 c112 -2 132 0
132 13 0 17 -11 20 -26 5z"/>
<path d="M6975 5110 c-3 -5 1 -10 9 -10 9 0 16 5 16 10 0 6 -4 10 -9 10 -6 0
-13 -4 -16 -10z"/>
<path d="M8000 5078 c0 -20 -3 -45 -7 -55 -5 -14 -4 -16 8 -7 26 21 78 34 85
22 4 -6 -1 -17 -10 -24 -12 -8 -14 -14 -5 -19 18 -12 29 15 29 70 l0 50 -50 0
-50 0 0 -37z m90 6 c0 -11 -6 -14 -22 -8 -48 14 -54 23 -15 24 27 0 37 -4 37
-16z m-46 -10 c25 -9 19 -24 -9 -24 -16 0 -25 6 -25 15 0 16 9 19 34 9z"/>
<path d="M8844 5109 c-9 -15 -2 -18 20 -9 17 6 18 7 3 13 -9 3 -19 2 -23 -4z"/>
<path d="M9226 5107 c3 -10 9 -15 12 -12 3 3 0 11 -7 18 -10 9 -11 8 -5 -6z"/>
<path d="M11184 5112 c7 -12 124 -14 131 -2 4 6 -21 10 -65 10 -39 0 -69 -4
-66 -8z"/>
<path d="M12915 5110 c3 -5 35 -10 71 -10 36 0 64 4 64 10 0 6 -30 10 -71 10
-44 0 -68 -4 -64 -10z"/>
<path d="M13673 5105 c-3 -9 -3 -19 1 -22 3 -4 6 1 6 10 0 11 8 17 21 17 16 0
20 -5 16 -20 -3 -11 -1 -20 4 -20 5 0 9 11 9 25 0 20 -5 25 -25 25 -14 0 -28
-7 -32 -15z"/>
<path d="M5356 5097 c3 -10 9 -15 12 -12 3 3 0 11 -7 18 -10 9 -11 8 -5 -6z"/>
<path d="M7023 5035 c0 -44 2 -61 4 -37 2 23 2 59 0 80 -2 20 -4 1 -4 -43z"/>
<path d="M9950 5100 c0 -6 10 -8 24 -4 30 7 41 -9 25 -38 -11 -21 -12 -21 -25
-3 -16 22 -19 12 -4 -15 8 -15 3 -24 -25 -49 -41 -36 -38 -41 5 -10 27 21 30
21 54 5 37 -24 43 -20 12 9 -26 24 -26 24 -9 60 9 19 20 35 25 35 4 0 8 5 8
10 0 6 -20 10 -45 10 -25 0 -45 -5 -45 -10z"/>
<path d="M1403 5093 c9 -2 23 -2 30 0 6 3 -1 5 -18 5 -16 0 -22 -2 -12 -5z"/>
<path d="M5140 5091 c0 -6 4 -13 10 -16 6 -3 7 1 4 9 -7 18 -14 21 -14 7z"/>
<path d="M5326 5087 c3 -10 9 -15 12 -12 3 3 0 11 -7 18 -10 9 -11 8 -5 -6z"/>
<path d="M7911 5075 c-1 -17 -6 -36 -13 -43 -9 -9 -9 -12 0 -12 18 0 30 32 21
60 -7 24 -7 24 -8 -5z"/>
<path d="M9170 5091 c0 -6 4 -13 10 -16 6 -3 7 1 4 9 -7 18 -14 21 -14 7z"/>
<path d="M3618 5040 c-9 -23 -30 -48 -50 -60 -18 -11 -26 -20 -18 -20 31 1 97
84 88 110 -2 5 -10 -9 -20 -30z"/>
<path d="M3923 5051 c-6 -18 -7 -31 -2 -31 12 0 22 24 17 45 -2 12 -7 7 -15
-14z"/>
<path d="M5993 5025 c0 -33 2 -45 4 -27 2 18 2 45 0 60 -2 15 -4 0 -4 -33z"/>
<path d="M3220 5020 c0 -27 5 -50 10 -50 6 0 8 10 4 24 -3 14 -3 34 1 46 5 17
13 20 38 18 30 -3 32 -6 32 -41 0 -53 19 -46 23 8 l2 45 -55 0 -55 0 0 -50z"/>
<path d="M3452 5043 c-2 -32 -8 -37 -42 -34 -8 0 -5 -4 8 -11 30 -15 45 0 39
43 l-4 34 -1 -32z"/>
<path d="M6870 5013 c0 -31 3 -53 8 -49 4 4 7 24 7 44 0 36 1 37 43 40 41 3
42 2 42 -27 0 -23 -6 -32 -27 -40 l-28 -10 30 2 c28 2 30 5 33 48 l3 47 -55 1
-56 0 0 -56z"/>
<path d="M11180 5060 c0 -6 30 -10 70 -10 40 0 70 4 70 10 0 6 -30 10 -70 10
-40 0 -70 -4 -70 -10z"/>
<path d="M7960 5045 c0 -9 -12 -28 -27 -42 l-28 -26 25 8 c14 4 26 8 26 9 6 5
14 66 10 66 -3 0 -6 -7 -6 -15z"/>
<path d="M9175 5047 c-16 -7 -36 -20 -43 -29 -15 -21 -42 -23 -61 -5 -11 10
-11 8 0 -9 7 -12 22 -22 33 -22 12 0 43 -6 69 -12 36 -9 52 -9 60 -1 8 8 0 11
-28 11 -22 0 -47 5 -55 10 -13 9 -12 13 9 30 13 11 32 20 42 20 10 0 19 5 19
10 0 12 -6 11 -45 -3z"/>
<path d="M12910 5050 c0 -12 128 -11 136 1 3 5 -27 9 -65 9 -40 0 -71 -4 -71
-10z"/>
<path d="M6271 5017 c-14 -16 -38 -35 -55 -43 -17 -7 -24 -13 -16 -14 20 0 68
32 87 59 23 34 11 32 -16 -2z"/>
<path d="M8400 5023 c0 -27 12 -29 31 -6 12 14 12 15 0 9 -8 -5 -17 -3 -22 5
-6 10 -9 8 -9 -8z"/>
<path d="M410 5014 c0 -8 5 -12 10 -9 6 3 10 10 10 16 0 5 -4 9 -10 9 -5 0
-10 -7 -10 -16z"/>
<path d="M2096 5021 c-15 -6 -16 -10 -7 -15 8 -5 20 -2 29 8 17 17 9 19 -22 7z"/>
<path d="M6412 5005 c-9 -19 -19 -25 -44 -26 -31 0 -32 -1 -9 -10 33 -13 58
-3 65 28 9 34 2 39 -12 8z"/>
<path d="M4350 5010 c0 -5 6 -10 14 -10 8 0 18 5 21 10 3 6 -3 10 -14 10 -12
0 -21 -4 -21 -10z"/>
<path d="M8680 5001 c0 -11 5 -23 10 -26 6 -3 10 3 10 14 0 11 -4 23 -10 26
-5 3 -10 -3 -10 -14z"/>
<path d="M7630 5005 c0 -5 5 -17 10 -25 5 -8 10 -10 10 -5 0 6 -5 17 -10 25
-5 8 -10 11 -10 5z"/>
<path d="M3995 4991 c-3 -6 3 -15 14 -20 26 -15 118 -14 127 1 5 8 -8 10 -49
5 -42 -4 -61 -2 -71 9 -9 8 -17 10 -21 5z"/>
<path d="M11975 4990 c-3 -6 1 -7 9 -4 18 7 21 14 7 14 -6 0 -13 -4 -16 -10z"/>
<path d="M1299 4973 c-13 -16 -12 -17 4 -4 16 13 21 21 13 21 -2 0 -10 -8 -17
-17z"/>
<path d="M7978 4978 c15 -15 142 -22 142 -8 0 6 -21 9 -47 7 -27 -1 -61 2 -78
6 -25 7 -28 6 -17 -5z"/>
<path d="M11019 4964 l-24 -27 28 18 c15 9 27 21 27 26 0 14 -5 11 -31 -17z"/>
<path d="M7718 4973 c7 -3 16 -2 19 1 4 3 -2 6 -13 5 -11 0 -14 -3 -6 -6z"/>
<path d="M8638 4973 c6 -2 18 -2 25 0 6 3 1 5 -13 5 -14 0 -19 -2 -12 -5z"/>
<path d="M9025 4970 l-20 -9 20 0 c11 0 27 4 35 9 13 9 13 10 0 9 -8 0 -24 -4
-35 -9z"/>
<path d="M11926 4971 c-4 -5 3 -7 14 -4 23 6 26 13 6 13 -8 0 -17 -4 -20 -9z"/>
<path d="M1969 4408 c0 -13 -1 -68 -2 -123 -2 -78 -5 -99 -15 -97 -8 1 -12 -3
-10 -10 3 -7 11 -13 19 -13 10 0 15 15 17 53 2 28 6 52 11 52 4 0 22 -15 40
-34 18 -19 42 -36 52 -39 27 -7 24 10 -3 18 -23 7 -78 53 -78 65 0 3 18 16 40
29 22 12 38 27 34 32 -3 5 -22 -4 -42 -21 -41 -34 -55 -28 -50 21 l3 34 63 3
c36 2 60 7 57 13 -4 5 -17 6 -31 3 -17 -4 -24 -2 -24 9 0 8 -8 18 -17 22 -15
5 -16 4 -5 -6 20 -21 14 -29 -19 -29 -26 0 -31 3 -26 20 3 11 1 20 -4 20 -5 0
-9 -10 -10 -22z"/>
<path d="M1002 4390 c-25 -33 -30 -56 -6 -25 18 24 36 55 31 55 -2 0 -13 -13
-25 -30z"/>
<path d="M1200 4417 c0 -4 9 -20 20 -35 34 -47 31 -152 -5 -206 -13 -20 -20
-36 -15 -36 18 0 63 84 68 126 3 26 -2 53 -12 75 -18 38 -55 88 -56 76z"/>
<path d="M2420 4401 c-5 -11 -10 -27 -10 -35 0 -8 -8 -20 -17 -25 -16 -9 -16
-10 -1 -11 13 0 16 -10 13 -65 l-3 -65 32 1 c17 1 23 3 14 6 -27 7 -39 93 -17
119 9 11 9 18 0 28 -9 11 -10 20 -1 35 11 22 50 29 50 10 0 -5 5 -7 11 -3 8 4
7 9 -2 15 -24 15 -58 10 -69 -10z"/>
<path d="M13516 4368 c-29 -56 -26 -55 17 4 29 39 32 48 18 48 -4 0 -20 -24
-35 -52z"/>
<path d="M13610 4416 c0 -2 7 -6 15 -10 8 -3 15 -1 15 4 0 6 -7 10 -15 10 -8
0 -15 -2 -15 -4z"/>
<path d="M2822 4380 c18 -25 22 -44 23 -98 0 -59 -3 -71 -30 -106 l-30 -40 28
18 c39 26 62 109 47 167 -12 43 -39 88 -53 89 -4 0 3 -14 15 -30z"/>
<path d="M13160 4377 c-34 -45 -39 -145 -9 -179 18 -20 20 -20 13 -3 -18 50
-15 130 5 169 26 50 22 55 -9 13z"/>
<path d="M13254 4395 c-18 -15 -18 -15 11 -13 26 3 30 -1 35 -27 6 -29 6 -29
18 -9 9 18 8 25 -7 43 -22 25 -31 26 -57 6z"/>
<path d="M1853 4383 c9 -2 25 -2 35 0 9 3 1 5 -18 5 -19 0 -27 -2 -17 -5z"/>
<path d="M2552 4369 c-7 -12 -11 -24 -7 -27 7 -8 25 17 25 36 0 17 -3 15 -18
-9z"/>
<path d="M13797 4370 c14 -20 27 -79 24 -107 -1 -13 3 -23 10 -23 22 0 5 99
-22 123 -12 12 -18 15 -12 7z"/>
<path d="M13669 4343 c6 -13 8 -23 3 -23 -6 0 -10 -22 -10 -48 0 -77 -8 -95
-45 -89 -27 4 -28 3 -12 -10 34 -24 54 -16 60 25 20 119 19 117 45 114 24 -2
24 -2 5 9 -11 7 -29 19 -39 28 -18 15 -18 15 -7 -6z"/>
<path d="M1088 4339 c-10 -5 -18 -14 -18 -20 0 -5 8 -4 19 2 18 12 51 7 51 -8
-1 -4 -15 -17 -32 -28 -45 -29 -56 -51 -36 -71 12 -12 20 -14 34 -5 18 10 17
10 -3 11 -32 0 -30 33 2 54 27 18 28 17 29 -34 1 -24 6 -35 16 -35 24 0 15
105 -12 128 -23 20 -27 20 -50 6z"/>
<path d="M1895 4327 c10 -15 20 -25 23 -22 3 3 -5 16 -17 28 l-23 22 17 -28z"/>
<path d="M965 4317 c-11 -42 0 -102 25 -137 27 -37 39 -33 14 5 -11 17 -19 50
-20 87 -3 67 -10 83 -19 45z"/>
<path d="M2660 4330 c0 -5 7 -10 15 -10 8 0 15 5 15 10 0 6 -7 10 -15 10 -8 0
-15 -4 -15 -10z"/>
<path d="M2743 4333 c-21 -8 -15 -22 7 -16 11 3 20 9 20 14 0 10 -8 10 -27 2z"/>
<path d="M2538 4324 c-16 -15 -8 -93 13 -128 22 -38 37 -50 18 -15 -6 12 -14
50 -17 86 -4 36 -10 61 -14 57z"/>
<path d="M3162 4295 c0 -16 2 -22 5 -12 2 9 2 23 0 30 -3 6 -5 -1 -5 -18z"/>
<path d="M3204 4312 c4 -7 2 -19 -4 -27 -7 -9 -8 -15 -2 -15 16 0 24 32 11 44
-9 8 -10 8 -5 -2z"/>
<path d="M13280 4310 c-13 -8 -12 -10 2 -10 22 0 35 -47 21 -69 -7 -10 -23
-15 -44 -14 -32 1 -33 0 -15 -13 29 -21 80 11 84 52 4 36 -25 68 -48 54z"/>
<path d="M13567 4313 c-4 -3 -7 -19 -7 -34 0 -15 -12 -41 -26 -58 -14 -17 -21
-31 -15 -31 16 0 42 44 51 87 9 39 8 48 -3 36z"/>
<path d="M2690 4282 c0 -15 -6 -34 -12 -42 -11 -12 -10 -12 5 -1 15 12 17 11
17 -7 0 -11 7 -23 16 -26 22 -8 22 -8 35 17 11 19 10 20 -2 10 -12 -10 -18 -8
-32 7 -19 22 -23 50 -7 50 6 0 10 5 10 10 0 6 -7 10 -15 10 -10 0 -15 -10 -15
-28z"/>
<path d="M1883 4236 c-30 -20 -42 -36 -25 -36 11 1 67 49 62 53 -3 2 -19 -6
-37 -17z"/>
<path d="M13813 4213 c-3 -10 -15 -31 -26 -48 l-19 -30 31 33 c17 18 31 39 31
47 0 20 -9 19 -17 -2z"/>
<path d="M2635 4210 c3 -5 12 -7 20 -3 21 7 19 13 -6 13 -11 0 -18 -4 -14 -10z"/>
<path d="M13474 4165 c-18 -13 -18 -14 4 -8 12 3 25 9 28 14 8 14 -10 11 -32
-6z"/>
<path d="M1867 3590 c4 -15 0 -20 -16 -20 -11 0 -21 -4 -21 -9 0 -5 23 -9 50
-8 50 2 72 17 25 17 -15 0 -25 6 -25 14 0 8 -4 17 -9 20 -5 4 -7 -3 -4 -14z"/>
<path d="M4636 3598 c-3 -7 -7 -24 -10 -38 -3 -14 -12 -34 -20 -45 -15 -19
-15 -19 -16 11 0 29 -2 30 -32 26 l-32 -5 17 27 c15 22 15 26 2 26 -9 0 -15
-9 -15 -21 0 -12 -8 -23 -19 -26 -18 -4 -20 -15 -20 -100 -1 -83 1 -94 14 -83
9 8 29 10 50 7 l35 -6 0 60 c0 32 4 59 9 59 6 0 16 12 23 28 11 23 20 27 64
30 l51 3 -5 -83 c-6 -103 -14 -122 -50 -113 l-27 6 23 -17 c36 -25 52 -2 63
87 15 135 17 129 -46 129 -54 0 -55 1 -49 25 6 25 -3 36 -10 13z m-66 -65 c0
-5 3 -18 6 -30 6 -21 3 -23 -29 -23 -36 0 -47 12 -39 43 3 11 14 17 33 17 16
0 29 -3 29 -7z m2 -75 c2 -6 2 -24 0 -40 -4 -23 -9 -28 -33 -28 -16 0 -30 3
-30 8 -7 36 -5 58 5 64 17 12 54 9 58 -4z"/>
<path d="M9836 3598 c-19 -69 -31 -98 -38 -98 -4 0 -8 11 -8 24 0 20 -6 25
-35 28 -19 2 -35 0 -35 -4 0 -4 11 -8 24 -8 26 0 40 -23 31 -51 -4 -12 -13
-16 -30 -13 -14 2 -25 0 -25 -6 0 -5 16 -10 35 -10 19 0 35 5 35 10 0 6 9 19
20 30 11 11 20 27 20 36 0 12 11 15 55 13 30 -1 58 0 62 4 3 4 -20 7 -51 7
-57 0 -58 0 -52 25 6 25 -1 37 -8 13z"/>
<path d="M10409 3582 c-6 -17 -19 -48 -30 -68 -10 -21 -17 -40 -14 -42 3 -3 5
0 5 6 0 7 5 12 10 12 6 0 10 -34 10 -82 0 -48 4 -77 9 -70 4 7 6 46 4 85 -3
45 1 93 11 127 16 60 13 82 -5 32z"/>
<path d="M10851 3588 c-5 -13 -11 -34 -15 -48 -6 -21 -5 -22 4 -7 8 12 24 17
62 17 l51 0 -6 -87 c-3 -49 -2 -79 2 -68 5 11 11 53 13 93 l5 72 -55 0 c-53 0
-54 1 -48 25 8 31 -2 33 -13 3z"/>
<path d="M11578 3538 c-3 -67 -5 -73 -25 -76 -21 -3 -23 -8 -21 -65 l2 -62 3
58 4 57 46 0 45 0 -4 -45 c-2 -25 0 -45 3 -45 7 0 16 83 11 98 -1 5 -14 7 -27
4 -23 -4 -25 -1 -25 32 0 32 3 36 24 36 14 0 28 5 32 11 4 8 -3 9 -26 4 -32
-7 -32 -7 -28 29 2 20 1 36 -4 36 -4 0 -8 -33 -10 -72z"/>
<path d="M1980 3587 c0 -7 -9 -29 -19 -50 -10 -20 -15 -37 -11 -37 9 0 40 62
40 79 0 6 11 11 24 11 19 0 26 -6 29 -27 4 -26 4 -26 6 5 1 30 -1 32 -34 32
-22 0 -35 -5 -35 -13z"/>
<path d="M2755 3581 c5 -17 2 -21 -16 -21 -12 0 -20 -3 -17 -6 4 -3 40 -5 82
-5 70 0 76 -1 76 -20 0 -19 -5 -21 -50 -17 -29 2 -50 -1 -50 -7 0 -6 26 -9 65
-7 60 3 65 2 65 -17 0 -19 -6 -21 -64 -21 -36 0 -66 5 -68 10 -2 6 -12 -3 -22
-21 l-18 -31 24 16 c33 22 188 18 188 -4 0 -40 -14 -61 -42 -67 -21 -4 -26 -8
-16 -14 33 -21 55 3 68 74 7 34 6 37 -17 37 -21 0 -24 4 -21 28 2 22 -1 26
-16 24 -15 -3 -17 1 -12 22 6 25 5 26 -37 26 -24 0 -48 5 -55 12 -9 9 -12 9
-12 0 0 -7 -4 -12 -10 -12 -5 0 -10 6 -10 14 0 8 -5 18 -11 22 -8 4 -9 0 -4
-15z"/>
<path d="M4839 3593 c-4 -30 0 -75 6 -81 4 -4 6 0 5 8 -1 8 -2 27 -1 42 l1 27
100 -6 c57 -3 100 -2 100 3 0 11 -210 18 -211 7z"/>
<path d="M5064 3498 c2 -149 11 -138 -109 -138 -118 0 -119 0 -109 86 5 37 3
54 -5 54 -7 0 -11 -26 -11 -77 l0 -78 115 0 c63 0 115 -4 115 -8 0 -5 4 -6 9
-3 12 8 14 266 3 266 -5 0 -9 -46 -8 -102z"/>
<path d="M5200 3582 c0 -10 -11 -40 -24 -65 -13 -26 -17 -42 -10 -36 12 10 14
-2 14 -71 0 -118 10 -93 14 34 3 77 8 113 20 131 14 22 15 25 1 25 -8 0 -15
-8 -15 -18z"/>
<path d="M5280 3592 c0 -5 -14 -23 -31 -40 -17 -18 -26 -32 -20 -32 6 0 11
-11 11 -24 0 -19 4 -22 25 -18 34 6 31 -4 -7 -28 -18 -11 -26 -20 -18 -20 9 0
32 11 52 25 24 17 51 25 77 25 39 0 41 2 41 29 0 26 -4 29 -38 33 -21 1 -51 0
-67 -3 -22 -5 -24 -7 -8 -8 35 -2 18 -41 -18 -41 -34 0 -39 22 -13 58 16 23
58 30 69 12 7 -12 25 -4 25 11 0 5 -13 9 -30 9 -16 0 -30 5 -30 10 0 6 -4 10
-10 10 -5 0 -10 -4 -10 -8z m118 -84 c3 -15 -4 -18 -32 -18 -30 0 -36 4 -36
21 0 17 5 20 32 17 22 -2 34 -9 36 -20z"/>
<path d="M5545 3590 c-3 -5 -2 -10 4 -10 5 0 13 5 16 10 3 6 2 10 -4 10 -5 0
-13 -4 -16 -10z"/>
<path d="M5636 3568 c-3 -17 -4 -33 -1 -36 3 -3 5 0 5 6 0 8 19 12 51 12 l52
0 -7 -92 c-3 -51 -11 -94 -16 -96 -6 -2 -10 -11 -10 -20 1 -15 2 -15 15 2 13
17 18 45 28 169 l5 47 -55 0 c-50 0 -55 2 -50 20 3 11 2 20 -3 20 -4 0 -10
-14 -14 -32z"/>
<path d="M5870 3591 c-33 -5 -39 -8 -21 -11 23 -5 24 -7 22 -105 -1 -76 -5
-103 -17 -112 -11 -8 -12 -13 -4 -18 7 -4 16 -3 22 3 9 9 11 37 17 190 1 30 5
42 16 42 8 0 15 5 15 10 0 6 -1 9 -2 8 -2 0 -23 -4 -48 -7z"/>
<path d="M6065 3590 c3 -5 10 -10 16 -10 5 0 9 5 9 10 0 6 -7 10 -16 10 -8 0
-12 -4 -9 -10z"/>
<path d="M6160 3543 c0 -29 4 -53 10 -53 5 0 7 14 4 33 -5 30 -5 31 10 13 9
-11 16 -15 16 -9 0 6 -7 16 -15 23 -25 21 -17 28 35 28 28 0 50 -4 50 -9 0 -8
-22 -13 -42 -10 -5 0 -8 -8 -8 -18 0 -11 -3 -26 -6 -35 -5 -12 0 -16 17 -16
19 0 21 2 9 10 -11 7 -12 14 -4 27 20 31 37 28 32 -6 -2 -17 -1 -31 4 -31 7 0
12 80 6 96 -2 3 -29 7 -61 8 l-57 1 0 -52z"/>
<path d="M6346 3584 c-8 -21 -8 -24 3 -24 5 0 11 9 14 20 6 24 -8 27 -17 4z"/>
<path d="M7416 3565 c-16 -83 -52 -167 -80 -187 -6 -4 -8 -10 -4 -13 4 -4 18
12 32 34 l26 41 91 0 92 0 -7 -32 c-8 -42 -25 -60 -50 -54 -21 5 -21 5 -2 -9
17 -13 22 -13 37 1 10 9 21 30 24 48 4 17 9 39 12 49 3 12 0 18 -9 16 -33 -4
-40 1 -34 26 4 14 2 25 -3 25 -5 0 -11 -12 -13 -27 -3 -26 -7 -28 -57 -31 -59
-4 -88 11 -60 31 9 7 16 23 15 37 -1 22 4 25 37 28 31 3 37 0 37 -17 0 -11 -8
-22 -17 -24 -12 -3 -10 -5 7 -6 21 -1 25 4 26 29 1 29 -1 30 -42 30 -36 0 -43
3 -46 23 -3 16 -6 11 -12 -18z"/>
<path d="M9730 3583 c0 -10 4 -14 8 -8 4 6 11 13 16 18 5 4 2 7 -7 7 -10 0
-17 -8 -17 -17z"/>
<path d="M10031 3471 l-2 -128 53 4 c76 6 82 11 15 12 l-58 1 3 113 3 112 113
3 112 2 0 -115 0 -115 -57 0 c-70 0 -66 -5 10 -13 l57 -6 0 130 0 129 -124 0
-124 0 -1 -129z"/>
<path d="M10462 3560 c-18 -22 -29 -40 -24 -40 6 0 8 -9 5 -20 -5 -17 0 -20
26 -20 39 0 33 -16 -13 -36 -17 -7 -25 -13 -18 -14 7 0 26 7 41 15 41 21 47 6
9 -22 -18 -12 -28 -23 -23 -23 5 0 16 7 26 16 26 24 46 12 45 -28 -1 -28 -5
-33 -23 -32 -29 1 -30 -12 -1 -19 30 -8 38 -1 38 34 l0 31 35 -22 c19 -12 40
-20 46 -18 6 2 -7 12 -30 22 -47 22 -51 33 -16 46 14 5 25 14 25 20 0 15 -8
12 -33 -11 l-22 -20 -17 22 c-27 32 -23 38 30 41 43 3 47 5 50 31 3 25 1 27
-34 27 -31 0 -35 2 -24 15 18 21 5 30 -38 27 -28 -2 -33 0 -22 7 8 6 11 11 5
11 -5 0 -25 -18 -43 -40z m82 -5 c-4 -9 -19 -15 -41 -15 -30 0 -34 2 -23 15 7
8 25 15 41 15 21 0 27 -4 23 -15z m-19 -45 c0 -10 -12 -16 -32 -18 -28 -3 -33
0 -33 18 0 18 5 21 33 18 20 -2 32 -8 32 -18z m83 3 c-2 -12 -14 -19 -36 -21
-27 -3 -32 0 -32 17 0 17 6 21 36 21 28 0 35 -3 32 -17z"/>
<path d="M10750 3585 c0 -8 2 -15 4 -15 2 0 6 7 10 15 3 8 1 15 -4 15 -6 0
-10 -7 -10 -15z"/>
<path d="M11035 3590 c3 -5 10 -10 16 -10 5 0 9 5 9 10 0 6 -7 10 -16 10 -8 0
-12 -4 -9 -10z"/>
<path d="M11183 3593 c28 -4 37 -27 15 -36 -7 -3 1 -5 17 -5 17 0 24 2 18 5
-7 2 -13 11 -13 18 0 10 17 15 53 18 31 2 18 3 -33 4 -47 0 -73 -2 -57 -4z"/>
<path d="M11390 3550 c0 -47 2 -50 25 -50 38 0 32 -28 -7 -33 l-33 -4 34 -1
c28 -2 33 -5 28 -22 -5 -18 -1 -20 41 -18 37 1 40 2 15 5 -40 5 -46 33 -8 33
14 0 25 4 25 9 0 6 -10 9 -22 8 -33 -3 -38 17 -6 21 24 3 26 8 30 53 l3 49
-62 0 -63 0 0 -50z m51 18 c1 -13 3 -33 4 -45 2 -18 -1 -20 -19 -13 -19 7 -31
50 -19 73 9 16 33 6 34 -15z m59 -18 c0 -33 -3 -40 -20 -40 -24 0 -26 17 -3
42 9 10 11 18 5 18 -6 0 -13 -6 -15 -12 -3 -7 -6 -3 -6 10 -1 16 5 22 19 22
17 0 20 -7 20 -40z"/>
<path d="M986 3559 c-14 -17 -27 -38 -27 -47 -1 -9 -3 -28 -4 -42 -5 -36 12
-91 35 -119 27 -32 36 -21 10 12 -32 41 -34 126 -4 183 28 52 25 55 -10 13z"/>
<path d="M1057 3583 c8 -6 13 -44 15 -103 l3 -95 32 -3 c39 -4 63 26 63 80 0
45 -33 76 -58 55 -13 -10 -13 -12 4 -16 47 -8 58 -51 25 -92 -16 -20 -23 -22
-38 -13 -15 10 -18 25 -18 100 0 81 -2 89 -20 92 -13 2 -16 0 -8 -5z"/>
<path d="M1230 3562 c34 -46 35 -150 2 -207 l-24 -40 30 35 c55 63 54 166 -1
217 l-30 28 23 -33z"/>
<path d="M2402 3574 c-33 -23 -72 -89 -72 -122 0 -16 9 -41 20 -55 l21 -26
-21 -18 c-11 -10 -20 -20 -20 -23 0 -3 28 -6 62 -8 61 -3 108 11 108 31 0 6
-9 2 -20 -8 -15 -14 -29 -16 -65 -11 -29 5 -45 12 -45 22 0 8 5 14 12 14 7 0
5 6 -4 18 -39 43 -33 104 14 158 35 40 72 45 99 13 16 -18 16 -25 4 -65 -15
-52 -28 -70 -70 -97 l-30 -19 30 6 c49 11 95 76 95 137 0 58 -67 89 -118 53z"/>
<path d="M3786 3568 c-9 -12 -16 -28 -16 -35 0 -7 -8 -13 -17 -13 -16 -1 -16
-2 -3 -10 13 -7 15 -21 10 -69 -6 -59 -5 -61 18 -61 15 0 21 4 16 12 -6 9 -8
46 -5 102 1 8 9 17 19 19 16 4 16 5 0 6 -12 1 -18 9 -18 26 0 28 25 44 43 26
17 -17 31 -13 17 4 -18 22 -46 18 -64 -7z"/>
<path d="M3923 3553 c-24 -31 -28 -45 -27 -98 0 -62 23 -119 52 -130 7 -3 3 9
-10 28 -19 26 -23 45 -23 103 0 52 5 77 16 90 20 24 32 44 25 44 -3 0 -18 -17
-33 -37z"/>
<path d="M4179 3563 c23 -35 42 -119 31 -144 -4 -8 -16 -34 -28 -58 -20 -41
-21 -43 -3 -27 67 60 66 184 -2 243 -20 17 -20 17 2 -14z"/>
<path d="M5990 3570 c0 -13 -7 -20 -20 -20 -18 0 -20 -7 -20 -80 0 -69 2 -80
18 -80 12 -1 8 -8 -18 -30 -19 -17 -30 -30 -24 -30 6 0 23 14 39 30 22 23 38
30 67 30 l38 0 0 80 0 80 -36 0 c-31 0 -36 3 -31 20 3 11 1 20 -4 20 -5 0 -9
-9 -9 -20z m70 -50 c0 -17 -7 -20 -50 -20 -43 0 -50 3 -50 20 0 17 7 20 50 20
43 0 50 -3 50 -20z m0 -45 c0 -11 -12 -15 -50 -15 -38 0 -50 4 -50 15 0 11 12
15 50 15 38 0 50 -4 50 -15z m-5 -50 c0 -17 -8 -20 -47 -23 -46 -3 -48 -2 -48
23 0 25 2 26 48 23 39 -3 47 -6 47 -23z"/>
<path d="M6538 3583 c24 -5 24 -5 24 -78 0 -27 3 -42 5 -32 3 11 11 16 19 13
7 -3 16 -1 19 3 2 5 -4 11 -15 14 -16 4 -19 12 -16 39 3 32 5 33 50 36 42 3
46 1 47 -20 0 -22 1 -22 9 -3 5 11 9 23 9 28 1 4 -38 6 -86 6 -49 -1 -78 -4
-65 -6z"/>
<path d="M8996 3568 c-9 -12 -16 -28 -16 -35 0 -7 -5 -13 -11 -13 -8 0 -8 -4
1 -15 7 -9 11 -36 8 -70 -2 -45 0 -55 13 -55 13 0 15 8 10 43 -8 53 -4 77 15
77 8 0 14 5 14 10 0 6 -7 10 -15 10 -17 0 -20 27 -5 50 7 12 12 12 22 2 6 -6
19 -12 28 -12 12 1 11 4 -4 15 -27 21 -42 19 -60 -7z"/>
<path d="M9380 3571 c5 -11 14 -23 20 -26 31 -19 26 -133 -9 -206 -10 -20 -8
-19 13 6 47 54 47 151 1 211 -29 38 -41 45 -25 15z"/>
<path d="M11080 3480 c0 -107 -1 -110 -22 -110 -18 -1 -20 -2 -8 -9 8 -5 20
-11 25 -13 6 -2 12 44 15 120 3 67 2 122 -2 122 -5 0 -8 -49 -8 -110z"/>
<path d="M7029 3571 c12 -7 12 -16 2 -52 -22 -79 -24 -89 -12 -89 6 0 11 9 11
20 0 11 5 20 10 20 6 0 10 15 10 33 0 43 12 59 41 55 35 -5 33 -48 -3 -66
l-27 -12 21 -48 c23 -54 35 -69 45 -58 4 4 2 10 -4 14 -7 4 -16 26 -21 49 -9
37 -7 42 13 51 31 14 42 50 22 70 -9 9 -38 17 -69 18 -33 2 -48 0 -39 -5z"/>
<path d="M7380 3571 c0 -5 -10 -12 -22 -14 -20 -4 -19 -4 5 -6 18 -1 27 4 27
14 0 8 -2 15 -5 15 -3 0 -5 -4 -5 -9z"/>
<path d="M8363 3561 c-11 -18 -10 -18 17 -8 22 8 32 8 44 -2 31 -26 14 -74
-47 -136 l-30 -30 48 -3 c52 -4 75 2 75 18 0 7 -6 8 -17 2 -15 -7 -46 -9 -68
-3 -3 0 13 24 35 52 43 54 50 88 24 113 -21 22 -67 20 -81 -3z"/>
<path d="M8519 3563 c-17 -19 -6 -25 25 -14 14 6 34 7 45 3 19 -7 18 -10 -9
-89 -16 -46 -25 -83 -20 -83 5 0 14 19 20 43 6 23 20 63 30 89 11 26 20 51 20
56 0 15 -98 11 -111 -5z"/>
<path d="M9136 3549 c-14 -17 -26 -36 -27 -42 0 -7 -2 -28 -4 -47 -2 -19 2
-48 9 -64 11 -26 12 -22 12 47 0 64 4 82 22 107 29 39 21 39 -12 -1z"/>
<path d="M4900 3545 c0 -20 5 -25 27 -25 41 0 15 -18 -32 -23 -22 -2 2 -4 53
-5 50 -1 92 1 92 6 0 4 -18 6 -40 4 -44 -4 -55 12 -15 22 16 4 25 13 25 26 0
14 -5 18 -16 13 -12 -4 -13 -8 -3 -14 21 -13 -39 -23 -64 -11 -12 6 -16 11 -9
11 7 1 10 6 7 11 -11 18 -25 10 -25 -15z"/>
<path d="M4945 3560 c-3 -5 1 -10 10 -10 9 0 13 5 10 10 -3 6 -8 10 -10 10 -2
0 -7 -4 -10 -10z"/>
<path d="M10100 3550 c0 -11 4 -20 10 -20 5 0 7 6 4 14 -4 9 3 16 18 19 21 4
20 4 -4 6 -22 1 -28 -4 -28 -19z"/>
<path d="M10194 3550 c0 -11 4 -20 8 -20 4 0 8 9 8 20 0 11 -4 20 -8 20 -4 0
-8 -9 -8 -20z"/>
<path d="M10740 3548 c0 -5 11 -8 25 -8 21 0 25 -5 25 -30 0 -28 -3 -30 -36
-30 -35 0 -36 1 -32 35 2 19 0 35 -4 35 -4 0 -8 -44 -7 -97 0 -54 3 -92 6 -85
2 6 20 12 38 12 18 0 35 -6 38 -12 8 -22 20 60 13 88 -5 19 -2 30 11 41 10 8
12 12 6 8 -9 -4 -13 3 -13 23 0 26 -3 28 -35 28 -19 -1 -35 -4 -35 -8z m50
-118 c0 -39 -1 -40 -35 -40 -33 0 -35 2 -35 33 0 41 5 47 42 47 26 0 28 -3 28
-40z"/>
<path d="M11160 3475 c0 -75 2 -84 17 -78 11 4 12 8 5 11 -7 2 -12 13 -12 23
0 18 6 20 58 17 43 -2 57 -7 57 -18 0 -10 -13 -16 -42 -18 -24 -2 -43 -7 -43
-12 0 -5 -17 -21 -37 -35 -21 -14 -34 -25 -29 -25 4 0 27 14 51 31 36 26 50
31 79 26 l36 -6 -1 85 c0 48 -5 84 -10 84 -6 0 -9 -10 -7 -22 3 -21 -2 -23
-55 -28 l-58 -5 7 27 c3 17 1 28 -5 28 -7 0 -11 -31 -11 -85z m120 11 c0 -10
-16 -15 -55 -18 -35 -2 -55 1 -55 8 0 19 12 24 62 24 35 0 48 -4 48 -14z"/>
<path d="M5500 3458 l0 -93 45 0 c38 0 45 3 45 20 0 15 -3 16 -9 7 -5 -8 -21
-12 -37 -10 -26 3 -29 7 -29 38 0 32 3 35 33 38 27 3 32 0 33 -20 1 -14 5 -7
10 17 11 55 10 88 -2 47 -9 -30 -13 -33 -42 -30 -28 3 -32 7 -32 33 0 28 3 30
45 36 l45 6 -52 1 -53 2 0 -92z"/>
<path d="M9690 3456 c0 -91 1 -94 21 -89 18 5 19 7 5 15 -13 7 -15 24 -13 88
2 44 0 80 -5 80 -4 0 -8 -42 -8 -94z"/>
<path d="M6344 3515 c-3 -13 -4 -30 -1 -37 3 -8 6 -5 6 6 1 11 8 28 18 38 15
17 15 18 0 18 -9 0 -19 -11 -23 -25z"/>
<path d="M6395 3530 c4 -6 11 -8 16 -5 14 9 11 15 -7 15 -8 0 -12 -5 -9 -10z"/>
<path d="M10137 3529 c6 -6 9 -18 6 -25 -4 -11 7 -14 46 -14 28 0 51 5 51 10
0 6 -15 8 -40 4 -32 -5 -40 -4 -40 9 0 8 6 18 13 20 6 3 -1 6 -17 6 -22 1 -27
-2 -19 -10z"/>
<path d="M1844 3519 c-3 -5 13 -9 35 -9 23 0 41 4 41 9 0 5 -16 9 -35 9 -19 0
-38 -4 -41 -9z"/>
<path d="M2042 3519 c5 -16 58 -25 58 -10 0 6 -6 11 -14 11 -8 0 -22 3 -32 7
-12 4 -15 2 -12 -8z"/>
<path d="M6657 3516 c-3 -8 -2 -18 4 -22 16 -9 22 2 11 21 -8 15 -10 16 -15 1z"/>
<path d="M3290 3510 c-8 -5 -10 -10 -4 -10 6 0 14 -27 18 -61 7 -55 5 -64 -15
-85 -13 -14 -29 -22 -36 -20 -7 3 -13 1 -13 -4 0 -14 23 -12 42 3 8 6 38 40
67 75 48 59 65 102 40 102 -6 0 -8 -8 -5 -18 4 -11 -5 -31 -23 -52 l-29 -35
-7 40 c-10 62 -18 76 -35 65z"/>
<path d="M9933 3460 c0 -36 2 -50 4 -32 2 17 2 47 0 65 -2 17 -4 3 -4 -33z"/>
<path d="M4043 3484 c16 -14 31 -23 34 -20 9 9 -28 46 -46 46 -11 0 -8 -7 12
-26z"/>
<path d="M4101 3496 c-10 -12 -8 -13 8 -9 12 3 21 9 21 14 0 14 -16 11 -29 -5z"/>
<path d="M6710 3495 c0 -9 -7 -27 -16 -40 -9 -14 -12 -25 -7 -25 5 0 17 16 26
35 20 42 20 45 7 45 -5 0 -10 -7 -10 -15z"/>
<path d="M7900 3501 c11 -7 15 -29 15 -78 0 -67 -1 -68 -33 -85 -19 -9 -29
-19 -23 -23 12 -6 106 86 123 120 5 11 -1 7 -15 -10 l-25 -30 -8 55 c-7 43
-13 55 -29 58 -16 3 -17 1 -5 -7z"/>
<path d="M7993 3485 c0 -14 3 -22 8 -19 5 3 9 11 9 19 0 8 -4 16 -9 19 -5 3
-8 -5 -8 -19z"/>
<path d="M9231 3506 c2 -2 14 -9 26 -15 19 -10 22 -9 17 4 -4 8 -15 15 -27 15
-11 0 -18 -2 -16 -4z"/>
<path d="M9314 3495 c-18 -14 -18 -14 4 -8 12 3 22 9 22 14 0 12 -3 11 -26 -6z"/>
<path d="M11830 3495 c-7 -9 -11 -17 -9 -20 3 -2 10 5 17 15 14 24 10 26 -8 5z"/>
<path d="M10078 3493 c12 -2 30 -2 40 0 9 3 -1 5 -23 4 -22 0 -30 -2 -17 -4z"/>
<path d="M11866 3485 c4 -8 0 -23 -7 -33 -13 -15 -12 -16 4 -3 18 14 24 51 7
51 -5 0 -7 -7 -4 -15z"/>
<path d="M1865 3480 c-28 -7 -27 -8 13 -9 23 0 42 4 42 9 0 11 -11 11 -55 0z"/>
<path d="M2005 3479 c-33 -3 -55 -6 -48 -7 6 -1 14 -10 16 -19 4 -17 5 -17 6
0 1 13 10 17 36 17 37 0 42 -9 25 -41 -18 -33 -3 -21 19 16 11 19 17 36 13 37
-4 2 -34 1 -67 -3z"/>
<path d="M3533 3483 c20 -2 54 -2 75 0 20 2 3 4 -38 4 -41 0 -58 -2 -37 -4z"/>
<path d="M4662 3460 c12 -16 23 -28 26 -26 7 7 -17 43 -33 50 -11 4 -9 -3 7
-24z"/>
<path d="M5663 3474 c9 -11 17 -26 17 -32 0 -7 5 -12 10 -12 14 0 -3 32 -27
51 -17 13 -17 13 0 -7z"/>
<path d="M8102 3485 c7 -7 138 -8 145 -1 3 3 -29 6 -72 6 -43 0 -76 -2 -73 -5z"/>
<path d="M10876 3468 c10 -14 21 -24 23 -22 3 3 -6 15 -18 27 l-24 22 19 -27z"/>
<path d="M4888 3450 c-4 -75 -6 -72 38 -74 23 -1 50 1 60 5 12 5 1 8 -32 8
-28 1 -53 3 -55 6 -3 2 -3 20 -1 40 l4 35 54 0 54 0 0 -52 c0 -64 5 -60 13 10
l6 52 -69 0 -70 0 -2 -30z"/>
<path d="M6201 3471 c-8 -5 -20 -7 -28 -4 -7 3 -13 0 -13 -6 0 -6 11 -11 25
-11 16 0 25 -6 25 -15 0 -10 -10 -15 -32 -15 -17 0 -29 -3 -26 -6 4 -3 38 -5
77 -5 l71 0 0 -41 c0 -33 3 -39 12 -30 7 7 33 12 59 12 l48 0 0 53 0 53 -42
-1 c-70 -3 -77 -4 -77 -18 0 -19 -66 -21 -74 -2 -4 11 2 15 24 15 17 0 30 5
30 10 0 6 -11 8 -25 4 -15 -4 -25 -2 -25 5 0 13 -10 14 -29 2z m199 -71 l0
-40 -45 0 -45 0 0 40 0 40 45 0 45 0 0 -40z"/>
<path d="M10080 3428 l0 -53 67 0 c38 0 71 5 75 10 4 6 8 29 8 53 l0 42 -75 0
-75 0 0 -52z m138 5 l-3 -38 -57 -3 c-49 -3 -57 0 -63 18 -3 11 -3 29 0 40 5
17 15 20 66 20 l60 0 -3 -37z"/>
<path d="M10113 3424 c0 -21 3 -25 21 -20 11 3 29 6 39 6 10 0 17 8 17 20 0
17 -7 20 -39 20 -35 0 -38 -2 -38 -26z m67 6 c0 -5 -11 -10 -25 -10 -14 0 -25
5 -25 10 0 6 11 10 25 10 14 0 25 -4 25 -10z"/>
<path d="M9270 3448 c0 -14 -13 -32 -33 -45 -20 -15 -26 -23 -16 -23 9 0 22 7
29 15 14 17 45 21 35 5 -9 -15 24 -25 38 -11 9 9 8 11 -5 6 -13 -5 -19 2 -28
34 -12 46 -20 53 -20 19z"/>
<path d="M9870 3449 c7 -11 14 -19 16 -16 7 7 -7 37 -17 37 -6 0 -5 -9 1 -21z"/>
<path d="M5371 3439 c-22 -18 -25 -18 -41 -4 -15 14 -18 14 -30 0 -7 -8 -18
-15 -24 -15 -6 0 -20 -8 -31 -16 -19 -16 -19 -16 5 -9 14 4 32 14 41 21 20 18
29 18 29 0 0 -8 -20 -24 -45 -36 -25 -12 -45 -23 -45 -25 0 -6 64 17 75 26 14
14 25 11 25 -6 0 -9 -10 -19 -22 -24 -19 -7 -19 -8 -4 -14 24 -10 36 0 36 29
0 27 16 30 44 9 11 -8 27 -15 35 -15 12 1 11 3 -4 12 -11 6 -31 17 -44 26
l-24 15 33 17 c18 9 29 20 24 23 -5 3 -20 -4 -33 -14z"/>
<path d="M8715 3450 c3 -5 35 -10 70 -10 35 0 67 5 70 10 4 6 -22 10 -70 10
-48 0 -74 -4 -70 -10z"/>
<path d="M4047 3424 c-10 -13 -24 -24 -32 -24 -8 0 -15 -4 -15 -10 0 -16 15
-12 35 10 10 11 22 20 27 20 4 0 8 -9 8 -20 0 -11 7 -20 15 -20 14 0 14 4 -1
33 -9 17 -17 33 -18 34 0 0 -9 -10 -19 -23z"/>
<path d="M4910 3425 c0 -18 5 -25 20 -25 11 0 20 5 20 10 0 6 -4 10 -10 10 -5
0 -10 5 -10 10 0 6 11 10 25 10 14 0 25 -4 25 -10 0 -5 -4 -10 -10 -10 -5 0
-10 -4 -10 -10 0 -16 27 -11 34 6 11 29 6 34 -39 34 -41 0 -45 -2 -45 -25z"/>
<path d="M9770 3410 c0 -22 5 -40 10 -40 6 0 10 18 10 40 0 22 -4 40 -10 40
-5 0 -10 -18 -10 -40z"/>
<path d="M1840 3394 c0 -38 3 -45 16 -40 9 3 27 6 40 6 21 0 24 4 24 40 0 29
-4 40 -15 40 -12 0 -13 -4 -4 -19 17 -27 4 -51 -27 -51 -25 0 -26 2 -21 35 3
19 2 35 -4 35 -5 0 -9 -21 -9 -46z"/>
<path d="M3495 3430 c-4 -6 20 -10 64 -10 38 0 73 5 76 10 4 6 -20 10 -64 10
-38 0 -73 -4 -76 -10z"/>
<path d="M8130 3430 c-27 -6 -18 -8 40 -8 50 0 68 2 55 8 -23 10 -47 10 -95 0z"/>
<path d="M1990 3411 c11 -21 10 -26 -11 -43 l-24 -19 30 14 c27 14 33 13 65
-3 21 -11 42 -15 49 -11 8 6 3 10 -17 14 -16 3 -36 12 -44 19 -7 7 -24 22 -37
33 l-24 20 13 -24z"/>
<path d="M6628 3420 c21 -24 14 -36 -38 -60 -27 -13 -48 -25 -45 -28 2 -2 27
7 55 22 l50 26 47 -22 c27 -12 51 -23 56 -25 4 -2 7 3 7 11 0 9 -9 16 -20 16
-12 0 -35 7 -51 16 -25 12 -28 18 -18 30 10 12 9 13 -5 8 -9 -3 -24 0 -34 7
-14 11 -15 11 -4 -1z"/>
<path d="M2767 3405 c-4 -11 -10 -27 -13 -35 -5 -12 -3 -12 11 1 9 9 15 25 13
35 -4 18 -4 18 -11 -1z"/>
<path d="M2850 3415 c0 -5 5 -17 10 -25 5 -8 10 -10 10 -5 0 6 -5 17 -10 25
-5 8 -10 11 -10 5z"/>
<path d="M6541 3409 c-1 -8 -12 -26 -26 -39 -14 -13 -25 -27 -25 -32 0 -5 14
7 31 26 17 20 28 41 26 48 -4 9 -6 8 -6 -3z"/>
<path d="M6987 3390 c-16 -19 -16 -20 12 -20 24 0 28 3 24 20 -3 11 -8 20 -12
20 -4 0 -14 -9 -24 -20z"/>
<path d="M7432 3385 c0 -16 2 -22 5 -12 2 9 2 23 0 30 -3 6 -5 -1 -5 -18z"/>
<path d="M7477 3389 c4 -13 8 -18 11 -10 2 7 -1 18 -6 23 -8 8 -9 4 -5 -13z"/>
<path d="M2811 3384 c0 -11 3 -14 6 -6 3 7 2 16 -1 19 -3 4 -6 -2 -5 -13z"/>
<path d="M2710 3380 c-9 -6 -10 -10 -3 -10 6 0 15 5 18 10 8 12 4 12 -15 0z"/>
<path d="M9920 3376 c0 -18 -22 -26 -52 -19 -19 4 -18 2 7 -12 28 -15 30 -15
42 1 13 18 18 44 8 44 -3 0 -5 -6 -5 -14z"/>
<path d="M10470 3375 c-23 -9 -28 -14 -15 -14 11 0 31 6 45 14 31 18 16 18
-30 0z"/>
<path d="M11250 3386 c0 -3 14 -14 30 -26 17 -12 30 -17 30 -11 0 6 -13 17
-30 26 -16 9 -30 13 -30 11z"/>
<path d="M11385 3369 c-10 -30 0 -33 13 -4 6 14 7 25 2 25 -5 0 -12 -9 -15
-21z"/>
<path d="M11496 3377 c3 -10 9 -15 12 -12 3 3 0 11 -7 18 -10 9 -11 8 -5 -6z"/>
<path d="M6040 3367 c8 -7 21 -19 28 -27 7 -9 12 -10 12 -3 0 15 -28 43 -43
43 -8 -1 -6 -5 3 -13z"/>
<path d="M6156 3364 c-4 -9 -4 -19 -1 -22 2 -3 7 3 11 12 4 9 4 19 1 22 -2 3
-7 -3 -11 -12z"/>
<path d="M6201 3364 c0 -11 3 -14 6 -6 3 7 2 16 -1 19 -3 4 -6 -2 -5 -13z"/>
<path d="M7377 3373 c-4 -3 -7 -11 -7 -17 0 -6 5 -5 12 2 6 6 9 14 7 17 -3 3
-9 2 -12 -2z"/>
<path d="M10905 3360 c-29 -6 -29 -6 -6 -14 14 -5 27 -4 34 3 15 15 7 18 -28
11z"/>
<path d="M11558 3363 c7 -3 16 -2 19 1 4 3 -2 6 -13 5 -11 0 -14 -3 -6 -6z"/>
<path d="M5676 3346 c10 -8 21 -12 24 -10 5 6 -21 24 -34 24 -6 0 -1 -6 10
-14z"/>
<path d="M9130 3352 c0 -4 10 -13 23 -21 22 -14 22 -14 3 8 -20 22 -26 25 -26
13z"/>
<path d="M1925 3340 c-3 -6 1 -7 9 -4 18 7 21 14 7 14 -6 0 -13 -4 -16 -10z"/>
<path d="M2751 2795 c-21 -7 -29 -15 -22 -19 6 -4 11 -18 11 -32 0 -21 -5 -24
-37 -25 -37 -2 -37 -2 -8 -8 30 -6 40 -26 19 -39 -6 -4 -19 -23 -29 -42 -16
-31 -16 -33 -2 -21 10 7 17 19 17 26 0 10 20 25 35 25 1 0 3 -25 3 -55 0 -31
2 -59 6 -62 5 -6 11 106 8 150 -1 13 6 17 28 17 17 0 30 4 30 10 0 5 -13 7
-30 4 -28 -6 -30 -5 -30 25 0 24 5 32 25 37 14 3 25 10 25 15 0 11 -5 10 -49
-6z"/>
<path d="M2911 2753 c0 -48 2 -54 10 -34 5 14 7 31 4 39 -3 7 0 22 5 33 8 15
7 19 -5 19 -12 0 -15 -12 -14 -57z"/>
<path d="M3237 2804 c-3 -3 -3 -21 0 -39 5 -33 4 -34 -33 -38 l-39 -4 38 -1
c34 -2 37 -4 37 -32 0 -29 -2 -30 -45 -30 -45 0 -45 0 -45 35 l0 35 -50 0
c-46 0 -50 2 -50 24 0 13 6 27 13 29 8 4 6 6 -4 6 -13 1 -17 -15 -23 -90 -4
-51 -13 -107 -21 -126 -8 -18 -10 -31 -5 -28 5 3 16 27 23 53 14 45 15 47 55
50 l42 3 0 -50 c0 -28 4 -51 8 -51 4 0 8 23 7 50 l-1 50 52 0 52 0 4 76 c3 71
-1 92 -15 78z m-101 -116 c1 -26 -1 -28 -42 -28 -42 0 -44 1 -44 31 0 29 1 30
43 27 38 -3 42 -5 43 -30z"/>
<path d="M3450 2794 c0 -8 5 -12 10 -9 6 3 10 10 10 16 0 5 -4 9 -10 9 -5 0
-10 -7 -10 -16z"/>
<path d="M3800 2803 c0 -6 5 -15 10 -18 25 -16 5 -25 -57 -27 l-68 -2 58 -3
c51 -4 57 -6 57 -26 0 -37 -21 -101 -39 -122 -30 -34 -36 -51 -9 -27 14 13 33
43 42 67 14 36 20 42 38 37 14 -3 19 -1 14 6 -4 7 -14 12 -22 12 -8 0 -14 10
-14 25 0 14 3 24 8 24 30 -5 132 3 132 10 0 5 -26 7 -57 4 -55 -5 -59 -4 -75
24 -10 15 -18 23 -18 16z"/>
<path d="M4180 2781 c0 -27 -4 -30 -37 -34 l-38 -4 38 -1 c35 -2 37 -4 37 -37
0 -35 0 -35 -47 -37 -45 -1 -45 -2 -10 -5 l38 -4 -22 -37 -21 -37 25 30 c15
17 26 33 27 38 0 4 27 7 60 7 33 0 60 4 60 9 0 4 -23 6 -51 3 l-51 -5 5 72 c2
39 0 71 -5 71 -4 0 -8 -13 -8 -29z"/>
<path d="M4878 2804 c-5 -4 -8 -15 -8 -25 0 -15 -11 -19 -67 -22 l-68 -3 68
-2 67 -2 0 -95 c0 -57 -4 -95 -10 -95 -5 0 -10 -4 -10 -10 0 -5 7 -10 15 -10
10 0 15 10 15 33 0 17 3 41 6 53 5 19 7 18 42 -14 47 -43 69 -55 77 -42 3 5
-9 16 -27 23 -57 24 -93 77 -53 77 9 0 18 7 21 15 4 8 16 15 27 15 16 0 18 3
10 11 -9 9 -20 5 -43 -15 -35 -29 -49 -33 -51 -13 -6 64 -9 62 61 67 38 3 60
8 53 13 -7 5 -17 5 -23 2 -5 -3 -21 6 -35 22 -13 15 -25 22 -25 16 0 -7 4 -13
9 -13 5 0 11 -7 15 -15 4 -11 -2 -15 -24 -15 -23 0 -29 5 -32 26 -2 14 -6 22
-10 18z"/>
<path d="M6056 2803 c-3 -3 -6 -42 -6 -86 0 -44 3 -77 7 -74 3 4 5 29 4 56 -1
27 3 60 8 75 10 24 1 43 -13 29z"/>
<path d="M3368 2790 c12 -5 22 -15 22 -22 0 -9 3 -9 10 2 8 13 10 12 11 -5 1
-11 1 -25 0 -31 -1 -6 7 -10 16 -10 23 1 23 0 23 -89 l0 -75 -45 0 -46 0 3 38
c1 20 7 46 14 57 6 11 15 36 18 56 6 35 5 37 -19 35 -25 -1 -25 -1 -25 -101
l0 -100 55 0 55 0 0 71 c0 39 3 86 6 104 6 30 5 32 -15 25 -25 -8 -40 17 -22
39 9 11 3 14 -36 14 -38 0 -43 -1 -25 -8z m12 -90 c0 -16 -4 -30 -10 -30 -5 0
-10 14 -10 30 0 17 5 30 10 30 6 0 10 -13 10 -30z"/>
<path d="M3540 2790 l-45 -7 49 -1 48 -2 -4 -40 c-2 -23 1 -40 7 -40 5 0 10
23 11 50 0 30 -4 49 -10 48 -6 0 -31 -4 -56 -8z"/>
<path d="M4055 2780 c10 -11 20 -18 23 -15 7 6 -18 35 -31 35 -5 0 -2 -9 8
-20z"/>
<path d="M5653 2783 c-3 -10 -15 -25 -26 -34 -16 -13 -18 -23 -13 -55 7 -38 8
-40 41 -36 30 4 34 1 40 -27 8 -39 1 -51 -35 -51 -27 0 -46 22 -34 41 3 5 0 9
-5 9 -6 0 -11 -15 -11 -32 0 -33 0 -33 51 -33 l51 0 -6 57 c-5 47 -3 57 11 63
15 5 15 7 3 15 -11 7 -17 4 -22 -10 -5 -14 -17 -20 -38 -20 -27 0 -30 3 -30
31 0 30 1 31 40 27 29 -3 40 0 40 10 0 10 -7 12 -25 8 -20 -5 -25 -3 -25 12 0
10 5 23 12 30 9 9 9 12 0 12 -7 0 -15 -8 -19 -17z"/>
<path d="M5747 2763 c-4 -20 -4 -39 -2 -42 3 -2 5 3 5 12 0 12 9 17 33 18 l32
1 -30 7 c-20 4 -26 9 -17 14 16 11 15 27 -2 27 -8 0 -16 -15 -19 -37z"/>
<path d="M6310 2765 c0 -29 -4 -35 -22 -36 -16 0 -18 -2 -8 -6 25 -10 29 -25
14 -47 -18 -26 -18 -42 1 -26 12 10 15 2 18 -57 l3 -68 2 79 c2 68 4 77 17 66
21 -17 19 4 -2 26 -16 15 -16 17 2 30 18 13 18 14 1 14 -15 0 -17 5 -12 30 3
17 1 30 -4 30 -6 0 -10 -16 -10 -35z"/>
<path d="M6520 2790 c0 -5 7 -10 16 -10 8 0 12 5 9 10 -3 6 -10 10 -16 10 -5
0 -9 -4 -9 -10z"/>
<path d="M1950 2780 c0 -5 5 -10 10 -10 6 0 10 5 10 10 0 6 -4 10 -10 10 -5 0
-10 -4 -10 -10z"/>
<path d="M2042 2749 c28 -58 22 -154 -11 -201 l-24 -33 32 30 c17 16 36 46 41
66 15 56 -6 137 -44 168 -11 9 -9 1 6 -30z"/>
<path d="M2850 2731 c0 -32 -3 -73 -6 -90 -4 -19 -2 -31 4 -31 6 0 12 36 14
90 2 50 0 90 -4 90 -5 0 -8 -26 -8 -59z"/>
<path d="M3126 2782 c7 -4 14 -16 17 -27 4 -15 5 -14 6 8 1 20 -4 27 -16 27
-12 0 -14 -3 -7 -8z"/>
<path d="M3178 2783 c7 -3 16 -2 19 1 4 3 -2 6 -13 5 -11 0 -14 -3 -6 -6z"/>
<path d="M6378 2783 c7 -3 16 -2 19 1 4 3 -2 6 -13 5 -11 0 -14 -3 -6 -6z"/>
<path d="M6420 2769 c0 -15 -5 -20 -22 -17 -20 3 -23 -1 -23 -32 l0 -35 57 -1
57 -1 -6 28 c-4 23 -2 29 11 29 12 0 16 -8 14 -31 -3 -40 -14 -47 -78 -52 -54
-3 -54 -3 13 -5 37 -1 67 1 67 6 1 4 5 26 9 50 8 40 7 42 -17 42 -19 0 -23 4
-19 20 4 15 0 20 -16 20 -18 0 -19 -2 -7 -10 13 -9 12 -12 -4 -25 -17 -13 -18
-15 -3 -15 10 0 17 -8 17 -19 0 -21 -26 -36 -36 -20 -4 6 -11 6 -19 -1 -18
-15 -35 -4 -35 21 0 22 35 27 43 7 3 -7 6 4 6 25 1 20 -1 37 -4 37 -3 0 -5 -9
-5 -21z"/>
<path d="M1851 2745 c-31 -52 -29 -129 4 -178 14 -20 28 -37 32 -37 3 0 -2 11
-10 24 -9 13 -20 46 -25 74 -7 40 -5 59 9 98 23 59 18 67 -10 19z"/>
<path d="M5319 2772 c-57 -24 -101 -142 -66 -176 9 -9 20 -16 26 -16 17 0 1
-29 -20 -35 -34 -11 -21 -28 16 -22 19 3 35 2 35 -4 0 -16 57 -10 77 9 10 9
14 14 9 10 -12 -10 -75 -9 -100 1 -17 7 -17 8 -2 24 10 9 26 17 35 17 46 0
101 78 101 141 0 26 -30 59 -54 59 -6 0 0 -7 12 -16 55 -38 -6 -174 -78 -174
-39 0 -65 45 -50 86 14 35 47 76 73 91 23 13 13 16 -14 5z"/>
<path d="M5981 2742 c-6 -20 -17 -46 -25 -57 -9 -11 -15 -24 -15 -30 0 -5 11
8 24 30 14 22 25 48 25 57 0 9 5 18 12 20 9 3 9 6 0 11 -7 5 -15 -6 -21 -31z"/>
<path d="M6131 2740 c-5 -16 -8 -30 -6 -30 2 0 10 14 19 30 8 17 11 30 6 30
-4 0 -13 -13 -19 -30z"/>
<path d="M4230 2750 c-12 -8 -9 -10 13 -10 15 0 27 5 27 10 0 13 -20 13 -40 0z"/>
<path d="M5833 2749 c19 -11 22 -77 9 -154 -7 -36 -11 -40 -36 -40 -25 1 -26
0 -10 -12 42 -31 49 -15 69 165 6 52 6 52 -22 52 -24 -1 -25 -2 -10 -11z"/>
<path d="M4034 2711 c21 -23 26 -26 26 -11 0 5 -10 15 -22 21 -23 12 -23 12
-4 -10z"/>
<path d="M1947 2678 c2 -24 6 -51 8 -60 2 -10 -2 -18 -8 -18 -8 0 -8 -3 0 -11
21 -21 30 0 23 53 -4 29 -5 59 -3 66 3 6 -2 12 -10 12 -12 0 -14 -9 -10 -42z"/>
<path d="M4793 2706 c9 -10 17 -22 17 -27 0 -5 5 -9 11 -9 15 0 -13 42 -32 49
-9 3 -8 -1 4 -13z"/>
<path d="M3502 2626 l3 -81 50 0 c46 0 50 2 52 25 1 14 0 18 -3 8 -6 -19 -41
-32 -71 -26 -15 3 -19 15 -21 70 -3 66 -3 67 25 70 28 3 28 4 -5 9 l-33 6 3
-81z"/>
<path d="M4480 2697 c0 -9 6 -17 13 -20 9 -3 8 -8 -3 -22 -13 -16 -13 -18 0
-13 18 6 20 60 3 66 -7 2 -13 -3 -13 -11z"/>
<path d="M6011 2693 c7 -12 15 -20 18 -17 3 2 -3 12 -13 22 -17 16 -18 16 -5
-5z"/>
<path d="M6167 2690 c7 -25 23 -37 23 -17 0 8 -6 20 -14 26 -12 10 -13 8 -9
-9z"/>
<path d="M3860 2688 c0 -4 9 -8 20 -8 17 0 20 -7 20 -39 0 -22 -5 -52 -10 -66
-9 -23 -15 -26 -38 -21 -25 5 -25 5 -5 -6 35 -17 51 -4 58 49 3 26 8 60 11 74
4 23 2 26 -26 26 -16 0 -30 -4 -30 -9z"/>
<path d="M6105 2689 c-4 -6 -5 -12 -2 -15 2 -3 7 2 10 11 7 17 1 20 -8 4z"/>
<path d="M6717 2693 c-3 -5 5 -8 18 -8 13 0 21 3 18 8 -2 4 -10 7 -18 7 -8 0
-16 -3 -18 -7z"/>
<path d="M2913 2625 c0 -38 2 -53 4 -32 2 20 2 52 0 70 -2 17 -4 1 -4 -38z"/>
<path d="M3410 2682 c0 -12 19 -26 26 -19 2 2 -2 10 -11 17 -9 8 -15 8 -15 2z"/>
<path d="M5779 2663 c12 -18 24 -33 27 -33 9 0 -15 37 -33 51 -12 10 -11 5 6
-18z"/>
<path d="M2780 2655 c7 -9 15 -13 17 -11 7 7 -7 26 -19 26 -6 0 -6 -6 2 -15z"/>
<path d="M6754 2659 c-3 -6 -15 -9 -25 -6 -11 3 -17 1 -13 -4 9 -14 41 -10 48
6 6 17 0 20 -10 4z"/>
<path d="M4065 2639 c-4 -6 -5 -12 -2 -15 2 -3 7 2 10 11 7 17 1 20 -8 4z"/>
<path d="M4810 2625 c-19 -14 -40 -25 -47 -25 -7 0 -13 -4 -13 -9 0 -23 18
-16 60 20 51 44 51 49 0 14z"/>
<path d="M3242 2607 c-2 -29 -7 -40 -24 -46 -15 -5 -18 -10 -9 -16 23 -13 43
19 38 61 l-4 39 -1 -38z"/>
<path d="M6144 2631 c-5 -5 -18 -11 -29 -14 -11 -3 -4 -5 18 -6 20 0 37 3 37
8 0 15 -16 21 -26 12z"/>
<path d="M6048 2618 c9 -9 15 -9 24 0 9 9 7 12 -12 12 -19 0 -21 -3 -12 -12z"/>
<path d="M6266 2613 c-6 -14 -5 -15 5 -6 7 7 10 15 7 18 -3 3 -9 -2 -12 -12z"/>
<path d="M6435 2620 c-47 -4 -63 -7 -38 -8 41 -2 42 -3 46 -39 l4 -38 1 38 c2
36 3 37 41 37 22 0 43 5 46 10 3 6 0 9 -7 8 -7 -1 -49 -5 -93 -8z"/>
<path d="M3410 2609 c0 -5 5 -7 10 -4 6 3 10 8 10 11 0 2 -4 4 -10 4 -5 0 -10
-5 -10 -11z"/>
<path d="M4237 2602 c4 -18 -1 -21 -49 -27 -29 -4 -59 -5 -67 -3 -7 1 -16 -3
-18 -9 -6 -16 15 -16 91 -2 43 8 61 7 72 -2 25 -21 16 15 -10 40 -23 22 -24
22 -19 3z"/>
<path d="M5978 2613 c12 -2 30 -2 40 0 9 3 -1 5 -23 4 -22 0 -30 -2 -17 -4z"/>
<path d="M4030 2585 c-19 -36 -8 -40 12 -4 9 16 14 29 9 29 -4 0 -14 -11 -21
-25z"/>
<path d="M6376 2575 c-9 -14 -12 -25 -7 -25 5 0 16 11 25 25 9 14 12 25 7 25
-5 0 -16 -11 -25 -25z"/>
<path d="M6051 2573 c-1 -20 -7 -22 -63 -26 -35 -2 -1 -4 75 -5 75 -1 137 2
137 7 0 4 -31 6 -69 3 -67 -4 -69 -4 -74 19 -4 23 -4 23 -6 2z"/>
<path d="M6505 2570 c10 -11 23 -20 28 -20 6 0 2 9 -8 20 -10 11 -23 20 -28
20 -6 0 -2 -9 8 -20z"/>
<path d="M2890 2550 c0 -5 5 -10 11 -10 5 0 7 5 4 10 -3 6 -8 10 -11 10 -2 0
-4 -4 -4 -10z"/>
<path d="M3700 2550 c-9 -6 -10 -10 -3 -10 6 0 15 5 18 10 8 12 4 12 -15 0z"/>
<path d="M3130 2005 l0 -55 -46 0 -46 0 3 40 c2 21 0 42 -4 46 -4 4 -7 -16 -7
-44 l0 -51 48 -3 47 -3 0 -60 c0 -59 -1 -60 -29 -63 -15 -2 -40 -1 -53 3 -22
5 -25 10 -21 45 2 22 0 40 -5 40 -4 0 -7 -21 -5 -47 l3 -48 117 -5 116 -5 4
53 c2 28 0 52 -4 52 -5 0 -8 -20 -8 -46 l0 -45 -47 3 -48 3 -3 64 -3 64 50 -5
49 -5 4 49 c1 26 0 48 -4 48 -5 0 -8 -18 -8 -40 l0 -40 -46 0 -46 0 4 55 c1
30 0 55 -4 55 -5 0 -8 -25 -8 -55z"/>
<path d="M3987 2043 c-2 -10 -8 -25 -11 -33 -5 -13 3 -14 50 -11 l57 3 -6 -87
c-7 -95 -16 -115 -50 -108 -18 4 -19 3 -7 -6 33 -24 48 -13 59 42 6 28 12 78
14 110 l4 57 -52 0 c-50 0 -52 1 -47 25 5 28 -3 34 -11 8z"/>
<path d="M4299 2058 c0 -2 -2 -41 -4 -88 l-3 -85 -53 -6 -54 -6 59 -1 c48 -2
57 -5 52 -18 -3 -9 -6 -24 -6 -34 0 -10 -8 -21 -17 -23 -10 -3 -4 -5 14 -6 31
-1 31 -1 26 39 l-6 40 52 0 c28 0 51 4 51 8 0 5 -24 7 -53 4 l-53 -4 3 33 c8
104 9 149 1 149 -4 0 -8 -1 -9 -2z"/>
<path d="M1945 2040 c-4 -6 -3 -16 3 -22 6 -6 12 -6 17 2 4 6 3 16 -3 22 -6 6
-12 6 -17 -2z"/>
<path d="M2030 2035 c0 -8 5 -15 10 -15 6 0 10 7 10 15 0 8 -4 15 -10 15 -5 0
-10 -7 -10 -15z"/>
<path d="M3880 2029 c0 -12 -8 -23 -20 -26 -18 -5 -20 -14 -20 -92 l0 -86 50
0 50 0 0 93 0 92 -26 -6 c-25 -6 -26 -5 -22 20 3 14 1 26 -3 26 -5 0 -9 -9 -9
-21z m40 -69 c0 -28 -3 -30 -35 -30 -32 0 -35 2 -35 30 0 28 3 30 35 30 32 0
35 -2 35 -30z m-16 -46 c10 -4 16 -18 16 -40 0 -32 -2 -34 -35 -34 -32 0 -35
2 -35 30 0 17 7 33 18 39 21 13 17 12 36 5z"/>
<path d="M4608 2043 c7 -3 16 -2 19 1 4 3 -2 6 -13 5 -11 0 -14 -3 -6 -6z"/>
<path d="M4750 2040 c0 -5 6 -10 14 -10 8 0 18 5 21 10 3 6 -3 10 -14 10 -12
0 -21 -4 -21 -10z"/>
<path d="M1861 2016 c-50 -53 -51 -149 -1 -207 l29 -34 -19 40 c-28 57 -29
144 -2 189 25 42 24 45 -7 12z"/>
<path d="M2115 2022 c15 -18 21 -43 23 -97 4 -62 1 -80 -18 -112 l-22 -38 26
30 c51 59 48 170 -6 219 l-22 21 19 -23z"/>
<path d="M2681 2013 c-10 -26 -10 -26 4 -9 12 16 29 19 115 20 55 1 100 -2
100 -6 0 -4 7 -5 15 -2 40 16 4 24 -103 24 l-119 0 -12 -27z"/>
<path d="M4660 1995 c0 -33 -4 -45 -15 -45 -18 0 -21 46 -2 53 7 4 6 6 -4 6
-15 1 -29 -25 -29 -56 0 -9 20 -13 66 -13 48 0 65 -3 61 -12 -3 -9 -24 -13
-61 -12 -35 1 -54 -2 -48 -8 5 -5 35 -8 67 -6 63 3 60 0 72 76 3 21 1 32 -7
32 -9 0 -11 -10 -6 -30 5 -25 2 -30 -14 -30 -18 0 -20 6 -16 45 2 30 -1 45 -9
45 -8 0 -10 -14 -8 -45 4 -40 2 -45 -17 -45 -18 0 -20 5 -17 45 2 25 0 45 -5
45 -4 0 -8 -20 -8 -45z"/>
<path d="M3546 2015 c4 -8 3 -23 -2 -32 -4 -10 -8 -20 -9 -23 -20 -74 -38
-119 -48 -123 -6 -3 4 -5 23 -5 19 0 30 2 24 4 -12 5 -5 59 11 83 13 23 38 6
55 -39 9 -24 22 -46 29 -48 7 -2 4 15 -8 45 l-19 48 31 26 c30 25 31 28 18 53
-12 22 -21 26 -62 26 -39 0 -47 -3 -43 -15z m72 -4 c23 -14 10 -55 -20 -65
-35 -12 -41 -6 -33 38 7 36 25 45 53 27z"/>
<path d="M4202 1967 l-34 -62 31 35 31 35 16 -22 c9 -13 21 -23 27 -23 6 0 -2
13 -17 29 -24 24 -26 32 -17 50 7 12 8 21 4 21 -4 0 -23 -28 -41 -63z"/>
<path d="M4383 2013 c-4 -10 -17 -36 -30 -58 l-24 -40 26 30 26 30 29 -35 c16
-19 30 -30 30 -24 0 6 -12 21 -26 35 -19 18 -24 30 -20 51 6 31 -1 38 -11 11z"/>
<path d="M4550 2011 c0 -12 -8 -21 -22 -24 l-23 -4 23 -2 c27 -1 27 1 -2 -66
-28 -62 -26 -72 4 -22 l20 32 0 -67 c0 -38 4 -68 9 -68 5 0 7 32 6 71 -2 56 0
69 11 65 8 -3 14 -1 14 4 0 6 -4 10 -9 10 -21 0 -20 31 2 40 21 8 20 11 -5 14
-7 1 -12 9 -10 19 2 9 -2 17 -8 17 -5 0 -10 -9 -10 -19z"/>
<path d="M2729 2003 c-24 -4 -27 -8 -27 -49 -1 -40 1 -44 18 -39 35 11 22 -19
-16 -40 -20 -11 -31 -21 -25 -23 7 -2 23 3 36 12 13 9 39 16 57 17 27 1 29 2
11 7 -16 5 -20 11 -14 21 6 10 24 12 65 9 l56 -5 -2 44 -1 43 -41 -2 c-37 -1
-38 -2 -8 -5 20 -3 32 -10 32 -19 0 -12 -7 -14 -30 -9 -19 4 -30 3 -30 -4 0
-6 14 -11 30 -11 17 0 30 -4 30 -10 0 -6 -32 -10 -75 -10 -43 0 -75 4 -75 10
0 6 14 10 30 10 17 0 30 4 30 10 0 5 -13 7 -30 4 -41 -9 -39 12 3 30 32 14 26
17 -24 9z"/>
<path d="M1939 1973 c-3 -21 4 -49 15 -55 8 -6 8 -8 -1 -8 -7 0 -12 -16 -11
-40 0 -25 5 -40 13 -40 9 0 13 21 13 75 0 58 -3 75 -14 75 -8 0 -15 -3 -15 -7z"/>
<path d="M2020 1970 c-10 -6 -11 -10 -2 -10 16 0 17 -101 1 -117 -9 -9 -7 -10
10 -6 19 5 21 12 21 74 0 70 -3 76 -30 59z"/>
<path d="M3956 1963 c-6 -14 -5 -15 5 -6 7 7 10 15 7 18 -3 3 -9 -2 -12 -12z"/>
<path d="M4954 1936 c-10 -26 4 -48 28 -44 17 2 23 10 23 28 0 18 -6 26 -23
28 -13 2 -25 -3 -28 -12z m46 -16 c0 -13 -7 -20 -20 -20 -13 0 -20 7 -20 20 0
13 7 20 20 20 13 0 20 -7 20 -20z"/>
<path d="M4000 1939 c0 -4 7 -20 15 -35 8 -16 15 -22 15 -13 0 14 -29 61 -30
48z"/>
<path d="M2860 1889 l-55 -6 51 -1 51 -2 -6 -32 c-5 -26 -13 -34 -36 -39 -28
-5 -29 -6 -8 -13 13 -4 27 -5 33 -1 10 6 33 82 28 93 -2 4 -28 4 -58 1z"/>
<path d="M4675 1880 c-54 -4 -71 -7 -43 -8 l47 -2 4 -47 3 -48 2 48 2 47 51 0
c31 0 48 4 44 10 -3 6 -9 9 -13 8 -4 -1 -47 -5 -97 -8z"/>
<path d="M2850 1861 c0 -5 5 -13 10 -16 6 -3 10 -2 10 4 0 5 -4 13 -10 16 -5
3 -10 2 -10 -4z"/>
<path d="M4617 1828 c-36 -40 -29 -47 8 -8 16 16 27 32 24 34 -2 2 -16 -10
-32 -26z"/>
<path d="M2700 1841 c0 -5 -3 -18 -7 -28 -6 -17 -6 -17 10 -1 19 18 22 38 7
38 -5 0 -10 -4 -10 -9z"/>
<path d="M2762 1830 c0 -14 2 -19 5 -12 2 6 2 18 0 25 -3 6 -5 1 -5 -13z"/>
<path d="M2810 1840 c0 -5 5 -10 11 -10 5 0 7 5 4 10 -3 6 -8 10 -11 10 -2 0
-4 -4 -4 -10z"/>
<path d="M4749 1826 c26 -28 31 -31 31 -17 0 5 -12 17 -27 26 l-28 18 24 -27z"/>
<path d="M4170 1800 c0 -6 17 -10 37 -10 43 0 41 5 -4 13 -19 4 -33 2 -33 -3z"/>
<path d="M4364 1799 c-3 -5 13 -9 35 -9 23 0 41 4 41 9 0 5 -16 9 -35 9 -19 0
-38 -4 -41 -9z"/>
<path d="M2728 1303 c-32 -2 -58 -7 -59 -11 -9 -78 -5 -90 27 -84 19 3 24 0
24 -16 0 -15 -8 -22 -27 -25 l-28 -4 28 -2 c42 -2 34 -29 -10 -34 -22 -2 -7
-4 34 -5 39 -1 78 -5 86 -8 10 -4 15 1 14 13 -2 15 7 19 47 21 l48 3 -4 -45
c-2 -25 0 -46 4 -46 5 0 8 24 8 54 0 53 -1 55 -27 53 -25 -2 -28 2 -31 31 -3
30 -1 32 27 32 16 0 33 5 36 10 4 6 -6 9 -27 8 -31 -3 -33 -2 -31 30 1 18 -2
30 -8 27 -5 -4 -9 -38 -9 -76 0 -64 -2 -70 -19 -64 -13 4 -20 0 -23 -13 -7
-24 -78 -31 -78 -7 0 10 10 15 30 15 17 0 30 5 30 10 0 6 -12 9 -27 8 -24 -3
-28 1 -28 22 0 14 8 35 18 46 12 15 15 24 8 29 -6 3 -11 1 -11 -4 0 -6 -7 -11
-15 -11 -10 0 -15 -7 -13 -17 2 -12 -4 -19 -19 -21 -18 -3 -23 1 -23 20 0 18
2 20 10 8 6 -9 10 -10 10 -3 0 6 -4 15 -10 18 -5 3 -10 10 -10 16 0 14 37 11
44 -3 5 -10 7 -10 12 0 3 6 14 12 25 12 26 0 28 -66 2 -73 -14 -4 -12 -5 5 -6
20 -1 22 3 22 49 0 28 -1 49 -2 48 -2 -1 -29 -3 -60 -5z"/>
<path d="M3520 1280 c-7 -17 -19 -30 -26 -30 -11 0 -14 -21 -14 -96 0 -85 2
-95 15 -84 9 8 29 10 50 7 l35 -6 0 54 c0 38 6 64 23 89 20 33 26 35 73 36
l51 0 -5 -72 c-6 -98 -15 -118 -49 -119 -28 0 -28 0 -4 -10 45 -18 55 4 66
142 l7 77 -54 -2 c-49 -1 -53 1 -51 22 2 12 -2 22 -9 22 -6 0 -9 -3 -6 -6 9
-8 -22 -94 -33 -94 -5 0 -9 12 -9 26 0 14 -4 23 -9 19 -5 -3 -7 -21 -4 -40 6
-34 5 -35 -30 -35 -36 0 -47 12 -39 43 3 10 15 17 31 18 17 1 20 3 9 6 -22 6
-22 12 -2 34 9 10 11 20 6 23 -5 3 -15 -8 -22 -24z m45 -130 c4 -29 -14 -60
-35 -60 -23 0 -46 40 -36 65 8 21 68 17 71 -5z"/>
<path d="M3938 1305 c-3 -3 -3 -29 -1 -58 2 -29 1 -66 -2 -84 -5 -31 -8 -32
-58 -36 l-52 -3 53 -2 c51 -2 52 -3 52 -32 0 -29 0 -29 -67 -33 -38 -2 -3 -4
76 -5 79 -1 141 1 138 5 -4 3 -34 5 -67 4 l-60 -2 0 30 c0 31 0 31 56 31 32 0
53 4 49 9 -3 6 -28 7 -56 4 l-50 -6 3 92 c3 84 0 100 -14 86z"/>
<path d="M4192 1278 c-2 -32 -6 -38 -24 -39 -17 -1 -19 -2 -5 -6 23 -6 22 -40
-4 -82 -11 -18 -18 -35 -15 -38 2 -3 13 10 23 29 l18 33 6 -75 5 -75 2 84 c2
73 4 82 17 71 8 -7 15 -8 15 -2 0 5 -7 15 -15 22 -22 18 -18 30 10 30 19 0 25
-5 25 -22 0 -22 3 -23 72 -20 50 3 70 0 63 -7 -5 -5 -37 -12 -70 -14 l-60 -3
73 -2 72 -2 0 28 c0 15 3 37 6 50 5 16 2 22 -10 22 -12 0 -14 -7 -9 -30 4 -23
2 -30 -11 -30 -12 0 -16 9 -16 34 0 30 -2 33 -25 28 -14 -2 -25 0 -25 6 0 6
12 13 28 15 17 2 10 5 -20 6 -25 0 -54 4 -64 8 -12 4 -15 3 -10 -5 4 -7 17
-12 29 -12 20 0 23 -6 24 -40 2 -29 -2 -40 -13 -40 -20 0 -29 27 -14 45 10 12
9 15 -4 15 -9 0 -16 -4 -16 -9 0 -5 -11 -8 -24 -8 -21 0 -26 5 -29 36 l-4 36
-1 -37z m156 -55 c-5 -26 -38 -29 -38 -4 0 15 6 21 21 21 14 0 19 -5 17 -17z"/>
<path d="M4581 1298 c3 -24 -1 -38 -11 -38 -5 0 -10 6 -10 14 0 8 -4 17 -9 20
-5 4 -7 -3 -4 -14 4 -16 0 -20 -18 -20 -12 0 -20 -3 -17 -6 4 -3 42 -5 86 -5
76 0 80 -1 75 -20 -5 -19 -12 -21 -54 -17 -45 5 -48 3 -54 -21 -3 -14 -22 -51
-41 -81 l-35 -55 43 47 c41 44 45 47 90 44 26 -1 53 1 60 6 8 4 -14 8 -50 8
-55 0 -63 2 -60 18 3 14 16 18 66 20 l62 3 0 -31 c0 -27 3 -30 20 -25 15 5 20
2 20 -14 0 -43 -18 -71 -47 -71 -25 -1 -26 -2 -10 -11 35 -21 56 2 70 79 6 29
4 32 -19 32 -23 0 -25 3 -20 25 5 20 3 25 -14 25 -16 0 -19 5 -14 28 6 28 5
28 -43 28 -44 -1 -48 1 -45 22 2 12 -2 22 -8 22 -6 0 -10 -6 -9 -12z"/>
<path d="M7410 1286 c0 -16 -6 -26 -15 -26 -8 0 -15 6 -15 14 0 8 -4 17 -9 20
-5 4 -7 -3 -4 -14 4 -16 0 -20 -18 -20 -33 0 -18 -9 20 -12 29 -2 32 -5 28
-28 -5 -24 -4 -25 41 -20 46 5 47 5 10 8 -30 2 -38 7 -38 23 0 16 7 19 40 19
36 0 40 -2 40 -25 0 -14 4 -25 9 -25 5 0 16 -3 25 -6 9 -3 16 -1 16 5 0 6 -9
11 -21 11 -18 0 -20 4 -15 25 6 24 4 25 -40 25 -41 0 -46 2 -41 20 3 11 1 23
-4 26 -5 3 -9 -6 -9 -20z"/>
<path d="M10376 1295 c4 -8 8 -15 10 -15 2 0 4 7 4 15 0 8 -4 15 -10 15 -5 0
-7 -7 -4 -15z"/>
<path d="M10840 1279 c0 -30 -2 -31 -35 -27 -19 2 -35 0 -35 -4 0 -4 16 -8 35
-8 l35 0 2 -82 2 -83 5 80 6 80 45 5 c25 3 43 9 40 15 -3 5 -12 8 -20 6 -8 -2
-26 -4 -40 -5 -21 -1 -25 3 -23 27 1 15 -2 27 -8 27 -5 0 -9 -14 -9 -31z"/>
<path d="M12471 1288 c-1 -16 4 -28 9 -28 12 0 12 8 0 35 -8 18 -9 17 -9 -7z"/>
<path d="M1855 1265 c-21 -26 -29 -50 -32 -90 -2 -34 0 -55 7 -55 5 0 10 20
10 45 0 45 22 103 44 117 6 4 8 10 4 13 -3 4 -18 -10 -33 -30z"/>
<path d="M1940 1285 c0 -9 5 -15 10 -13 12 4 11 16 -1 24 -5 3 -9 -2 -9 -11z"/>
<path d="M2189 1275 c43 -63 43 -176 -1 -222 -12 -13 -17 -23 -10 -23 13 0 48
47 62 86 18 47 4 107 -36 150 -26 29 -30 31 -15 9z"/>
<path d="M4395 1290 c3 -5 10 -10 16 -10 5 0 9 5 9 10 0 6 -7 10 -16 10 -8 0
-12 -4 -9 -10z"/>
<path d="M6499 1283 c10 -20 8 -22 -17 -26 -15 -2 -1 -5 31 -6 32 0 57 3 57 9
0 6 -10 10 -22 10 -12 0 -30 8 -41 18 -19 16 -20 16 -8 -5z"/>
<path d="M6605 1259 c-4 -22 -13 -43 -21 -46 -8 -3 -14 -10 -14 -16 0 -5 8 -3
18 6 22 20 44 85 32 92 -5 3 -11 -13 -15 -36z"/>
<path d="M6669 1296 c-3 -3 -3 -25 0 -48 5 -38 9 -43 34 -46 15 -2 27 1 27 6
0 5 -10 8 -22 8 -20 -1 -24 5 -28 42 -3 24 -8 41 -11 38z"/>
<path d="M8900 1283 c0 -10 4 -14 8 -8 4 6 11 13 16 18 5 4 2 7 -7 7 -10 0
-17 -8 -17 -17z"/>
<path d="M9007 1293 c-4 -3 -7 -17 -7 -30 0 -12 -4 -23 -8 -23 -5 0 -14 -10
-20 -22 -10 -23 -11 -23 -11 5 -1 23 -5 27 -33 28 -32 1 -61 -1 -65 -5 -8 -8
-11 -66 -3 -66 5 0 10 11 10 25 0 18 7 26 25 31 39 10 57 -2 53 -33 -3 -25 -8
-28 -44 -31 -38 -3 -42 -6 -46 -34 -3 -16 -3 -41 0 -54 3 -19 7 -22 18 -13 8
7 28 9 49 5 l35 -7 0 57 c0 46 5 64 26 91 22 29 31 33 70 33 32 0 44 -4 44
-15 0 -8 5 -15 10 -15 6 0 10 9 10 20 0 18 -7 20 -56 20 -51 0 -56 2 -51 20 5
21 4 24 -6 13z m-63 -158 c9 -36 1 -45 -40 -45 -32 0 -34 2 -34 35 0 33 2 35
34 35 28 0 35 -4 40 -25z"/>
<path d="M9244 1265 c-7 -19 -14 -38 -14 -43 0 -5 -10 -22 -22 -37 -21 -27
-21 -27 0 -14 18 11 24 10 41 -5 29 -27 27 -38 -21 -87 -37 -37 -38 -40 -11
-21 18 13 41 35 51 50 18 27 62 127 62 143 0 4 -16 5 -36 2 -36 -6 -37 -5 -30
20 9 38 -2 33 -20 -8z m62 -45 c-3 -11 -9 -29 -12 -40 -7 -24 -12 -25 -43 -1
-20 15 -22 21 -12 39 8 15 21 22 42 22 26 0 29 -3 25 -20z"/>
<path d="M9372 1163 c2 -104 3 -117 5 -50 3 54 8 87 15 87 7 0 6 5 -2 15 -8 9
-10 29 -7 50 3 19 2 35 -4 35 -5 0 -8 -57 -7 -137z"/>
<path d="M10560 1281 c-5 -11 -10 -32 -9 -48 0 -27 1 -27 11 -5 6 12 19 22 30
22 10 0 18 5 18 10 0 6 -9 10 -20 10 -13 0 -18 5 -14 15 9 22 -3 18 -16 -4z"/>
<path d="M10880 1296 c0 -2 7 -9 15 -16 9 -7 15 -8 15 -2 0 5 -7 12 -15 16 -8
3 -15 4 -15 2z"/>
<path d="M12398 1293 c-15 -4 -18 -17 -18 -82 0 -48 -5 -82 -12 -89 -10 -10
14 -13 120 -11 72 0 135 5 138 10 3 5 -2 9 -10 9 -13 0 -16 12 -16 57 0 67
-13 63 -15 -5 -1 -26 -3 -50 -4 -54 0 -5 -17 -8 -36 -8 -31 0 -35 2 -30 23 2
12 6 38 7 57 2 28 -1 35 -17 37 -11 1 -14 0 -7 -3 17 -8 16 -84 -2 -84 -8 0
-16 -7 -20 -15 -3 -10 -19 -15 -46 -15 -34 0 -40 3 -40 20 0 12 10 24 23 30
l22 9 -22 0 c-34 1 -32 41 2 41 14 0 25 5 25 10 0 6 -11 8 -25 4 -21 -5 -25
-3 -25 16 0 13 8 24 20 27 11 3 20 9 20 14 0 9 -4 10 -32 2z"/>
<path d="M13293 1286 c19 -25 6 -36 -45 -38 -32 -1 -13 -4 46 -7 l99 -6 -59
-59 c-39 -39 -47 -50 -23 -33 30 22 99 98 99 109 0 2 -18 2 -40 0 -31 -3 -44
1 -62 20 -13 13 -20 19 -15 14z"/>
<path d="M13522 1163 c2 -112 3 -121 5 -45 l4 92 44 0 45 0 0 40 c0 22 -5 40
-11 40 -5 0 -7 -5 -4 -11 4 -6 -1 -17 -11 -24 -18 -13 -18 -14 -1 -15 37 0 15
-20 -23 -20 -41 0 -58 20 -17 21 l22 0 -23 10 c-18 7 -22 14 -17 29 4 11 2 20
-4 20 -7 0 -10 -45 -9 -137z"/>
<path d="M13757 1293 c-2 -5 -3 -23 -1 -40 2 -32 0 -33 -37 -33 -38 0 -52 13
-26 23 9 4 9 8 -2 15 -7 5 -10 15 -7 21 4 6 2 11 -3 11 -6 0 -11 -18 -11 -40
l0 -40 45 0 45 0 0 -74 c0 -67 -2 -75 -20 -78 l-21 -3 21 -13 c18 -11 21 -10
30 13 13 34 13 245 1 245 -6 0 -12 -3 -14 -7z"/>
<path d="M2030 1279 c0 -5 5 -7 10 -4 6 3 10 8 10 11 0 2 -4 4 -10 4 -5 0 -10
-5 -10 -11z"/>
<path d="M2110 1280 c0 -5 5 -10 10 -10 6 0 10 5 10 10 0 6 -4 10 -10 10 -5 0
-10 -4 -10 -10z"/>
<path d="M3197 1272 c-23 -25 -21 -44 6 -72 12 -13 30 -35 39 -49 16 -23 16
-27 1 -43 -27 -30 -62 -23 -78 15 -8 17 -14 25 -15 17 0 -8 -3 -24 -6 -35 -4
-18 1 -20 42 -23 87 -5 109 46 49 115 -40 47 -43 58 -17 72 28 15 62 2 63 -23
1 -19 2 -18 8 4 6 21 3 26 -18 31 -45 11 -57 10 -74 -9z"/>
<path d="M5089 1280 c-26 -15 -62 -109 -55 -143 8 -38 53 -117 67 -117 6 0 1
12 -10 26 -11 14 -23 41 -27 60 -3 19 -11 34 -18 34 -8 0 -8 2 0 8 6 4 14 25
17 47 4 21 16 52 27 67 23 31 23 32 -1 18z"/>
<path d="M5371 1279 c-64 -26 -96 -104 -67 -165 13 -28 21 -34 47 -34 38 0 58
23 59 66 0 41 -18 62 -58 66 l-33 3 23 23 c13 13 32 29 43 37 23 17 20 18 -14
4z m3 -92 c22 -16 18 -75 -6 -91 -13 -8 -22 -6 -37 8 -25 23 -27 58 -5 80 19
19 25 20 48 3z"/>
<path d="M5771 1277 c29 -22 39 -55 39 -125 0 -58 -4 -75 -26 -108 -19 -27
-21 -34 -8 -24 18 14 37 38 40 50 0 3 6 19 13 35 7 17 11 46 8 66 -5 41 -51
119 -70 119 -8 -1 -6 -5 4 -13z"/>
<path d="M8178 1283 c7 -3 16 -2 19 1 4 3 -2 6 -13 5 -11 0 -14 -3 -6 -6z"/>
<path d="M8510 1272 c-21 -17 -22 -21 -9 -56 8 -21 24 -46 36 -56 28 -22 29
-41 3 -65 -28 -26 -70 -7 -71 32 -1 28 -1 28 -10 -4 -15 -53 -50 -40 -62 24
-5 26 -2 35 13 43 31 17 38 80 8 80 -6 0 -7 -7 -4 -16 4 -9 -1 -27 -9 -40 -19
-30 -61 -32 -68 -4 -3 11 -2 18 3 15 4 -3 10 9 12 25 4 25 1 30 -16 30 -15 0
-17 -3 -9 -11 7 -7 8 -18 4 -28 -13 -26 -31 -86 -31 -104 0 -9 -9 -26 -20 -37
l-20 -20 28 0 c25 0 27 4 29 42 5 78 38 78 67 -1 17 -47 20 -50 44 -44 32 8
39 8 74 -2 21 -5 32 -2 52 19 34 33 33 43 -9 91 -41 47 -43 67 -12 88 12 9 17
16 11 16 -7 1 -22 -7 -34 -17z"/>
<path d="M9663 1256 c12 -19 24 -32 25 -31 8 8 -9 41 -27 52 -18 11 -18 10 2
-21z"/>
<path d="M12565 1283 c11 -3 26 -12 33 -21 11 -14 12 -13 12 6 0 18 -5 22 -32
21 -21 -1 -26 -3 -13 -6z"/>
<path d="M3855 1243 c-9 -21 -23 -45 -32 -55 -9 -10 -13 -21 -10 -24 4 -4 14
7 24 25 21 36 38 39 53 10 7 -11 14 -18 18 -15 3 3 -5 18 -18 31 -21 22 -22
29 -12 45 7 12 8 20 2 20 -5 0 -17 -17 -25 -37z"/>
<path d="M4002 1227 c-21 -48 -21 -50 -2 -27 l20 25 25 -30 c14 -16 25 -24 25
-17 0 7 -11 23 -24 35 -18 17 -22 27 -15 45 17 45 -7 20 -29 -31z"/>
<path d="M5177 1273 c-15 -14 -6 -19 28 -15 19 2 38 8 41 13 6 10 -59 12 -69
2z"/>
<path d="M5654 1272 c-49 -33 -44 -163 8 -196 14 -9 23 -6 44 16 51 51 33 188
-25 188 -9 0 -21 -4 -27 -8z m55 -39 c21 -83 -19 -176 -55 -129 -16 23 -19
118 -4 147 18 33 48 24 59 -18z"/>
<path d="M7015 1264 c11 -11 13 -20 6 -28 -6 -7 -18 -41 -27 -77 -9 -35 -21
-67 -28 -71 -6 -5 -2 -8 10 -8 16 0 23 8 27 28 11 55 39 147 47 156 14 14 60
-3 60 -22 0 -26 -27 -60 -53 -65 l-22 -4 23 -2 c25 -1 72 39 72 63 0 29 -30
46 -81 46 -46 0 -49 -1 -34 -16z"/>
<path d="M7902 1215 c-19 -37 -40 -82 -48 -100 l-14 -33 78 -4 c42 -2 82 -2
89 0 12 4 7 27 -11 50 -5 8 -12 23 -13 35 -2 12 -14 43 -26 70 l-22 49 -33
-67z m64 -62 c9 -24 15 -45 13 -47 -2 -3 -29 -5 -59 -7 -63 -3 -62 -4 -23 81
23 51 26 53 39 36 7 -11 21 -39 30 -63z"/>
<path d="M8115 1258 c-23 -18 -65 -94 -65 -117 0 -4 11 -21 24 -36 14 -16 22
-35 18 -44 -5 -13 -3 -14 9 -5 8 6 31 17 52 24 79 25 126 141 76 186 -22 19
-22 19 -10 -3 34 -65 -27 -173 -98 -173 -54 0 -53 101 1 157 37 38 33 43 -7
11z"/>
<path d="M8572 1269 c11 -6 15 -16 11 -26 -4 -11 -3 -14 5 -9 22 13 14 46 -10
46 -20 -1 -21 -2 -6 -11z"/>
<path d="M11284 1253 c-2 -36 -33 -144 -46 -160 -8 -10 -3 -13 23 -13 24 0 30
3 20 9 -13 8 -13 15 -1 53 8 24 15 50 16 58 7 59 43 87 72 58 6 -6 15 -8 19
-4 12 12 -20 26 -62 26 -37 0 -40 -2 -41 -27z"/>
<path d="M12060 1270 c-9 -6 -10 -10 -3 -10 6 0 15 5 18 10 8 12 4 12 -15 0z"/>
<path d="M12132 1268 c15 -12 31 -91 17 -82 -4 2 -10 -10 -14 -27 -7 -33 -55
-69 -92 -69 -41 0 -49 93 -12 135 13 14 11 25 -4 19 -18 -7 -51 -64 -37 -64 7
0 5 -6 -4 -15 -17 -18 -12 -40 18 -73 l21 -24 -24 -19 c-13 -11 -22 -22 -19
-24 2 -3 35 -6 72 -7 53 -1 70 2 84 16 16 17 16 18 -6 7 -28 -15 -115 -4 -109
13 2 6 21 17 43 24 40 14 79 44 96 76 22 41 15 98 -16 118 -19 13 -31 9 -14
-4z"/>
<path d="M12508 1273 c7 -3 16 -2 19 1 4 3 -2 6 -13 5 -11 0 -14 -3 -6 -6z"/>
<path d="M12899 1271 c8 -5 11 -16 7 -29 -4 -11 -8 -29 -10 -39 -2 -10 -13
-42 -25 -70 l-21 -53 24 0 c19 0 22 4 18 25 -7 39 6 75 27 75 18 0 30 -21 46
-77 4 -15 14 -23 28 -23 19 1 20 2 7 13 -39 32 -51 84 -22 94 36 14 45 66 13
83 -24 12 -112 14 -92 1z m89 -13 c7 -7 12 -15 12 -20 0 -16 -45 -48 -67 -48
-27 0 -27 1 -9 45 16 36 41 46 64 23z"/>
<path d="M10450 1260 c-8 -5 -10 -10 -4 -10 6 0 16 -10 23 -22 11 -23 11 -23
8 3 -3 21 0 25 15 21 10 -2 18 1 18 7 0 14 -39 14 -60 1z"/>
<path d="M10350 1239 c-24 -7 -24 -7 -2 -8 16 -1 22 -7 23 -23 l0 -23 9 23 c6
13 18 22 30 22 12 0 19 4 16 9 -7 10 -42 11 -76 0z"/>
<path d="M12460 1241 c0 -5 5 -13 10 -16 6 -3 10 -2 10 4 0 5 -4 13 -10 16 -5
3 -10 2 -10 -4z"/>
<path d="M5154 1228 c-3 -5 -4 -10 -3 -12 2 -1 21 -13 41 -26 59 -39 48 -90
-19 -90 -34 0 -44 -14 -17 -24 18 -7 73 19 80 39 10 26 11 50 2 70 -11 24 -76
57 -84 43z"/>
<path d="M11380 1228 c0 -6 -7 -20 -17 -30 -9 -10 -11 -18 -5 -18 11 0 42 38
42 52 0 5 -4 8 -10 8 -5 0 -10 -5 -10 -12z"/>
<path d="M1941 1221 c-7 -5 -9 -11 -4 -14 5 -3 6 -31 3 -61 -5 -47 -3 -56 9
-56 13 0 15 10 13 52 -5 84 -6 88 -21 79z"/>
<path d="M2020 1220 c-13 -8 -12 -10 3 -10 9 0 17 5 17 10 0 12 -1 12 -20 0z"/>
<path d="M2100 1220 c-11 -7 -12 -10 -2 -10 10 0 13 -16 11 -62 -2 -52 0 -62
15 -64 12 -2 16 2 12 13 -3 8 -6 41 -6 74 0 60 -4 66 -30 49z"/>
<path d="M10698 1223 c12 -2 22 -9 22 -14 0 -6 5 -7 10 -4 21 13 9 25 -22 24
-24 -1 -27 -3 -10 -6z"/>
<path d="M6488 1213 c12 -2 32 -2 45 0 12 2 2 4 -23 4 -25 0 -35 -2 -22 -4z"/>
<path d="M10790 1186 c0 -19 -4 -46 -10 -61 -6 -16 -6 -24 0 -20 10 6 30 70
30 98 0 9 -4 17 -10 17 -5 0 -10 -15 -10 -34z"/>
<path d="M10891 1218 c-2 -8 -4 -69 -2 -103 1 -10 11 -15 34 -14 29 2 30 2 5
6 -25 4 -27 8 -31 61 -2 31 -4 54 -6 50z"/>
<path d="M9100 1175 c-1 -22 -3 -44 -5 -50 -1 -5 -3 -18 -3 -27 -3 -26 -29
-47 -54 -41 -22 4 -22 4 2 -10 22 -12 27 -12 42 1 19 16 32 80 25 132 l-4 35
-3 -40z"/>
<path d="M9607 1183 c-10 -39 -7 -111 5 -135 6 -13 21 -18 54 -18 67 0 81 11
75 57 l-5 38 -6 -35 c-5 -34 -6 -35 -57 -38 l-52 -3 -3 83 c-2 67 -5 77 -11
51z"/>
<path d="M9986 1197 c-23 -17 -17 -51 9 -55 20 -4 20 -3 1 11 -10 7 -16 19
-12 25 11 18 34 14 39 -5 4 -15 5 -15 6 -2 2 27 -23 41 -43 26z"/>
<path d="M2032 1163 c-1 -23 -5 -48 -8 -57 -4 -12 0 -16 16 -16 17 0 20 3 12
13 -6 7 -12 33 -15 57 l-4 45 -1 -42z"/>
<path d="M6106 1184 c-10 -25 -7 -29 7 -9 8 10 19 15 25 11 19 -11 14 -26 -10
-36 l-23 -9 22 0 c22 -1 40 30 28 49 -10 16 -42 12 -49 -6z"/>
<path d="M11622 1180 c7 -11 18 -20 25 -20 18 0 16 10 -4 26 -26 20 -35 17
-21 -6z"/>
<path d="M3651 1161 c23 -31 36 -35 26 -7 -3 8 -16 20 -27 26 -22 12 -22 11 1
-19z"/>
<path d="M9431 1167 c13 -13 26 -22 28 -20 7 5 -31 43 -42 43 -6 0 1 -10 14
-23z"/>
<path d="M9763 1174 c9 -11 17 -28 17 -37 0 -9 5 -19 11 -23 19 -11 -1 39 -24
61 l-21 20 17 -21z"/>
<path d="M10440 1120 l0 -70 80 0 c78 0 80 1 80 24 0 43 -10 56 -45 56 -28 0
-32 3 -30 25 2 15 -2 25 -9 25 -9 0 -12 -9 -8 -25 3 -16 0 -25 -9 -25 -10 0
-10 -3 -1 -12 7 -7 12 -22 12 -35 0 -19 -5 -23 -30 -23 -26 0 -30 3 -30 29 0
16 6 32 13 34 10 4 10 6 0 6 -19 1 -16 39 5 50 15 9 15 10 -5 11 -22 0 -23 -4
-23 -70z m137 -11 c18 -18 3 -49 -23 -49 -29 0 -34 9 -23 38 9 24 28 29 46 11z"/>
<path d="M10580 1181 c0 -6 5 -13 10 -16 6 -3 10 1 10 9 0 9 -4 16 -10 16 -5
0 -10 -4 -10 -9z"/>
<path d="M10707 1176 c-4 -10 -5 -21 -2 -24 9 -9 17 6 13 25 -3 17 -4 17 -11
-1z"/>
<path d="M6477 1169 c7 -7 21 -7 44 -1 l34 10 -44 1 c-32 1 -42 -2 -34 -10z"/>
<path d="M6689 1178 c0 -2 -2 -10 -4 -18 -2 -8 -6 -24 -10 -35 -4 -11 2 -7 14
10 23 33 26 45 11 45 -5 0 -10 -1 -11 -2z"/>
<path d="M7377 1158 c-4 -14 -19 -40 -33 -58 -15 -17 -24 -33 -22 -36 3 -2 18
14 33 36 l28 41 86 -3 86 -3 -3 -30 c-5 -40 -18 -54 -45 -48 -21 4 -21 4 -3
-11 26 -21 42 -7 61 57 8 28 15 52 15 54 0 2 -11 3 -24 3 -13 0 -27 6 -29 13
-4 10 -6 10 -6 0 -1 -18 -128 -18 -133 -1 -3 7 -8 1 -11 -14z"/>
<path d="M10375 1170 c-3 -5 -15 -10 -26 -10 -11 0 -18 -4 -14 -10 3 -5 12 -7
20 -3 12 4 15 -5 15 -41 0 -35 -4 -46 -15 -46 -13 0 -14 -2 -3 -14 21 -22 28
-9 28 54 0 46 4 61 18 69 16 10 16 10 0 11 -9 0 -20 -4 -23 -10z"/>
<path d="M13590 1125 l0 -50 53 -2 c51 -2 53 -1 52 25 0 25 -4 27 -42 30 -29
2 -43 8 -43 18 0 18 76 20 83 2 4 -8 6 -7 6 4 1 13 -10 17 -54 20 l-55 3 0
-50z m95 -20 c0 -5 -17 -11 -37 -13 -30 -3 -38 0 -38 13 0 13 8 16 38 13 20
-2 37 -7 37 -13z"/>
<path d="M6597 1150 c8 -30 21 -34 15 -5 -2 14 -8 25 -12 25 -5 0 -6 -9 -3
-20z"/>
<path d="M9030 1158 c0 -9 5 -20 11 -23 17 -11 20 0 4 21 -13 17 -14 17 -15 2z"/>
<path d="M9551 1154 c0 -11 3 -14 6 -6 3 7 2 16 -1 19 -3 4 -6 -2 -5 -13z"/>
<path d="M10740 1150 c0 -29 -26 -76 -45 -84 -9 -3 -13 -11 -9 -17 5 -9 11 -7
20 5 11 15 18 16 46 8 56 -17 116 -23 161 -15 36 7 26 9 -60 13 -104 5 -136
17 -116 42 16 20 25 68 13 68 -5 0 -10 -9 -10 -20z"/>
<path d="M12451 1154 c0 -11 3 -14 6 -6 3 7 2 16 -1 19 -3 4 -6 -2 -5 -13z"/>
<path d="M4370 1130 l-35 -7 43 -2 c23 0 42 4 42 9 0 6 -3 9 -7 9 -5 -1 -24
-5 -43 -9z"/>
<path d="M4253 1123 l28 -4 -27 -36 -27 -35 26 17 c15 9 29 25 32 36 11 33 25
21 25 -21 0 -22 5 -40 11 -40 6 0 9 17 7 43 l-3 42 -50 1 c-27 1 -37 0 -22 -3z"/>
<path d="M4690 1121 c0 -6 4 -13 10 -16 6 -3 7 1 4 9 -7 18 -14 21 -14 7z"/>
<path d="M6470 1090 c0 -22 5 -40 10 -40 6 0 10 16 10 35 0 31 3 35 25 35 20
0 25 -5 25 -25 0 -13 -8 -28 -17 -34 -16 -9 -15 -10 5 -8 19 1 22 7 22 39 0
38 0 38 -40 38 l-40 0 0 -40z"/>
<path d="M9530 1115 c-8 -9 -8 -15 -2 -15 12 0 26 19 19 26 -2 2 -10 -2 -17
-11z"/>
<path d="M4648 1093 c5 -21 7 -23 10 -9 2 10 0 22 -6 28 -6 6 -7 0 -4 -19z"/>
<path d="M7516 1107 c3 -10 9 -15 12 -12 3 3 0 11 -7 18 -10 9 -11 8 -5 -6z"/>
<path d="M13227 1093 c-20 -14 -37 -31 -37 -36 0 -9 10 -2 64 46 29 25 16 21
-27 -10z"/>
<path d="M1830 1099 c1 -14 44 -69 54 -69 5 0 -37 67 -50 79 -2 2 -4 -2 -4
-10z"/>
<path d="M4602 1085 c0 -16 2 -22 5 -12 2 9 2 23 0 30 -3 6 -5 -1 -5 -18z"/>
<path d="M6629 1096 c9 -10 6 -17 -11 -28 -13 -8 -33 -18 -46 -22 -13 -5 -21
-10 -18 -13 2 -3 25 5 51 18 44 22 47 22 74 6 33 -19 51 -22 51 -7 0 6 -9 10
-19 10 -11 0 -32 11 -47 25 -28 26 -55 35 -35 11z"/>
<path d="M7422 1090 c0 -14 2 -19 5 -12 2 6 2 18 0 25 -3 6 -5 1 -5 -13z"/>
<path d="M2671 1093 c-1 -6 -4 -20 -7 -30 -5 -17 -5 -17 6 0 6 10 9 23 6 30
-3 9 -5 9 -5 0z"/>
<path d="M2808 1089 c-10 -26 4 -35 47 -28 l40 6 -37 2 c-26 1 -38 6 -40 19
-3 15 -4 15 -10 1z"/>
<path d="M4370 1093 c0 -5 9 -14 20 -21 11 -7 20 -8 20 -2 0 5 -9 14 -20 20
-11 6 -20 7 -20 3z"/>
<path d="M5480 1086 c0 -8 6 -17 13 -20 8 -3 6 -9 -7 -20 -11 -9 -15 -16 -10
-16 17 0 34 23 34 47 0 14 -6 23 -15 23 -8 0 -15 -6 -15 -14z"/>
<path d="M7372 1080 c-7 -11 -8 -20 -3 -20 9 0 24 30 18 36 -1 2 -8 -6 -15
-16z"/>
<path d="M7471 1084 c0 -11 3 -14 6 -6 3 7 2 16 -1 19 -3 4 -6 -2 -5 -13z"/>
<path d="M12415 1075 c-16 -14 -37 -25 -45 -26 -9 0 -10 -2 -3 -5 16 -7 95 35
88 46 -8 12 -5 14 -40 -15z"/>
<path d="M12530 1090 c0 -5 5 -10 12 -10 6 0 19 -7 29 -16 10 -9 24 -14 31
-12 7 3 -6 15 -29 27 -24 12 -43 17 -43 11z"/>
<path d="M2706 1081 c-4 -7 -5 -15 -2 -18 9 -9 19 4 14 18 -4 11 -6 11 -12 0z"/>
<path d="M2741 1074 c0 -11 3 -14 6 -6 3 7 2 16 -1 19 -3 4 -6 -2 -5 -13z"/>
<path d="M4535 1070 c-3 -5 1 -10 9 -10 9 0 16 5 16 10 0 6 -4 10 -9 10 -6 0
-13 -4 -16 -10z"/>
<path d="M13270 1059 c33 -14 136 -20 164 -9 14 6 -4 9 -59 10 -44 0 -91 3
-105 5 l-25 6 25 -12z"/>
<path d="M8061 1037 c-9 -12 -1 -16 47 -21 59 -7 104 3 117 24 6 9 2 9 -15 0
-19 -10 -71 -8 -121 6 -9 2 -21 -2 -28 -9z"/>
<path d="M2713 863 c-15 -5 -18 -33 -4 -33 8 0 25 30 19 35 -2 1 -9 0 -15 -2z"/>
<path d="M2803 857 c0 -7 -2 -26 -6 -42 -3 -17 -4 -24 -1 -17 6 13 100 17 107
5 2 -5 1 -46 -4 -92 -8 -87 -18 -105 -54 -95 -15 4 -14 1 5 -10 41 -24 54 6
65 145 l6 76 -57 -5 -57 -5 7 27 c3 14 3 26 -2 26 -5 0 -9 -6 -9 -13z"/>
<path d="M3120 828 c0 -49 5 -47 13 5 3 20 2 37 -4 37 -5 0 -9 -19 -9 -42z"/>
<path d="M3389 868 c-5 -26 -26 -77 -44 -112 -14 -25 -14 -27 -1 -17 8 7 20
10 26 6 9 -5 15 22 11 48 -1 4 3 16 8 25 8 14 22 16 90 14 l81 -4 0 -109 c0
-96 -2 -109 -17 -109 -12 0 -14 -3 -6 -11 25 -25 33 4 33 117 0 100 2 114 17
114 9 0 13 3 10 6 -4 4 -45 6 -93 5 -73 -2 -88 0 -100 16 -7 10 -14 15 -15 11z"/>
<path d="M3033 827 c-24 -35 -29 -52 -14 -42 5 3 12 1 16 -5 3 -6 -1 -13 -9
-16 -9 -3 -16 -13 -16 -21 0 -11 6 -12 23 -7 12 5 34 8 50 9 15 0 25 5 23 10
-2 6 -15 9 -30 7 -33 -3 -33 5 0 30 14 11 23 23 20 26 -3 2 -12 -1 -20 -7 -8
-7 -22 -11 -31 -9 -15 3 -14 6 4 27 23 26 25 31 14 31 -5 0 -18 -15 -30 -33z"/>
<path d="M3181 829 c-18 -29 -19 -35 -5 -42 16 -9 71 19 60 30 -3 4 -14 -2
-25 -11 -26 -23 -39 -2 -15 25 9 10 14 22 11 25 -3 4 -15 -9 -26 -27z"/>
<path d="M3680 721 c0 -74 2 -132 4 -130 3 2 6 53 7 112 l2 107 34 0 c18 0 33
-5 33 -11 0 -7 -10 -9 -25 -7 -14 3 -25 1 -25 -3 0 -5 7 -9 15 -9 10 0 13 -10
11 -35 -2 -20 -6 -38 -8 -41 -11 -11 6 -55 25 -66 20 -10 20 -11 -4 -29 -13
-10 -19 -19 -14 -18 26 0 48 31 52 73 5 39 3 46 -12 46 -17 0 -17 1 1 21 19
21 19 22 -3 15 -26 -8 -30 5 -8 28 8 8 15 28 15 44 0 29 -2 30 -50 34 l-50 3
0 -134z m73 112 c-13 -2 -33 -2 -45 0 -13 2 -3 4 22 4 25 0 35 -2 23 -4z m27
-159 c0 -19 -4 -25 -17 -22 -20 4 -25 29 -8 40 18 13 25 9 25 -18z"/>
<path d="M4043 794 c-17 -36 -25 -60 -17 -53 12 10 14 -1 14 -70 0 -44 4 -81
10 -81 5 0 9 45 8 104 0 75 4 114 15 135 9 17 12 31 9 31 -4 0 -21 -30 -39
-66z"/>
<path d="M4120 823 c-35 -36 -28 -36 23 1 26 19 36 37 20 35 -5 0 -24 -16 -43
-36z"/>
<path d="M4838 843 c16 -30 16 -31 -15 -36 -16 -2 -4 -5 25 -6 31 0 52 3 52
10 0 6 -9 8 -20 4 -14 -4 -20 -2 -20 8 0 8 -7 21 -17 28 -15 13 -15 12 -5 -8z"/>
<path d="M5007 853 c-4 -3 -7 -17 -7 -30 0 -12 -6 -23 -12 -23 -8 0 -7 -4 2
-10 9 -5 17 -25 18 -47 4 -65 41 -152 65 -153 4 0 6 19 6 43 -1 24 -4 32 -6
19 -11 -57 -51 17 -52 95 -1 40 1 42 32 46 30 4 30 4 -7 5 -37 2 -38 3 -32 32
6 31 4 35 -7 23z"/>
<path d="M5180 851 c0 -5 -3 -18 -6 -28 -6 -15 -4 -16 7 -5 7 6 24 13 39 13
23 2 23 2 3 6 -13 2 -23 9 -23 14 0 5 -4 9 -10 9 -5 0 -10 -4 -10 -9z"/>
<path d="M5525 845 c-22 -8 -32 -14 -22 -14 13 -1 17 -10 17 -36 0 -29 -4 -35
-22 -36 l-23 0 22 -11 c19 -9 20 -14 11 -42 -6 -17 -16 -38 -22 -46 -6 -9 -1
-5 12 8 24 26 25 26 22 -38 -1 -34 1 -42 10 -33 7 6 11 32 9 62 -3 34 0 51 8
51 6 0 14 -6 16 -12 4 -10 6 -10 6 -1 1 7 -8 17 -18 23 -11 5 -18 18 -16 27 2
10 4 35 4 56 1 26 5 37 16 37 8 0 15 5 15 10 0 6 -1 10 -2 9 -2 -1 -21 -7 -43
-14z"/>
<path d="M5920 809 c-31 -66 -36 -83 -15 -46 11 20 23 27 45 27 28 0 29 -2 33
-52 l3 -53 2 58 c2 54 1 57 -21 57 -30 0 -40 10 -26 26 6 7 9 18 7 25 -2 6
-15 -13 -28 -42z"/>
<path d="M6290 841 c0 -11 -2 -25 -5 -33 -4 -10 7 -12 50 -10 l55 4 1 -69 c1
-80 6 -74 11 15 l4 62 -54 0 c-53 0 -54 1 -48 25 4 14 2 25 -4 25 -5 0 -10 -9
-10 -19z"/>
<path d="M6505 828 c-17 -29 -17 -31 -1 -19 21 17 40 51 29 51 -5 0 -17 -15
-28 -32z"/>
<path d="M6634 845 c-5 -11 -16 -13 -50 -8 -39 5 -44 4 -44 -14 0 -11 8 -27
18 -34 15 -13 16 -12 3 4 -17 21 -3 41 25 35 27 -5 20 -46 -14 -82 -24 -25
-24 -27 -5 -17 12 6 26 19 32 28 9 16 11 16 30 -1 12 -11 21 -26 21 -34 0 -8
6 -12 13 -9 7 3 24 -1 38 -9 28 -15 49 -18 49 -6 0 5 -18 14 -40 21 -40 12
-90 55 -90 78 0 7 8 17 19 22 15 8 20 5 30 -16 6 -14 14 -23 18 -20 3 4 0 13
-7 22 -10 12 -10 15 1 16 8 0 4 4 -9 10 -13 5 -20 13 -17 19 3 5 1 10 -5 10
-6 0 -13 -7 -16 -15z"/>
<path d="M6941 844 c12 -15 8 -16 -43 -13 -51 4 -58 2 -67 -18 -8 -16 -6 -23
5 -27 23 -9 31 -7 15 3 -22 14 -3 31 35 31 27 0 34 -4 34 -20 0 -11 -6 -20
-14 -20 -17 0 -16 -32 2 -43 18 -12 5 -27 -24 -27 -13 0 -24 -4 -24 -9 0 -6
13 -6 33 1 17 5 40 12 50 15 9 3 31 0 47 -7 17 -7 33 -10 37 -7 3 4 -6 11 -21
16 -29 12 -34 32 -11 51 10 8 12 17 6 23 -13 13 -31 0 -31 -22 0 -24 -23 -43
-44 -35 -21 8 -20 20 3 36 18 13 21 18 21 39 0 7 22 10 64 8 36 -2 68 0 72 4
4 4 -22 7 -58 7 -49 0 -67 4 -72 15 -3 8 -11 15 -17 15 -8 0 -7 -5 2 -16z"/>
<path d="M3830 823 c-1 -16 -3 -75 -5 -133 -4 -83 -3 -100 6 -80 7 14 11 37
10 53 -1 23 3 27 24 27 16 0 25 6 25 16 0 14 -3 14 -15 4 -24 -20 -31 -3 -9
21 19 21 19 22 -3 15 -18 -6 -20 -4 -16 14 3 11 10 20 17 20 6 0 3 5 -6 11
-26 15 -23 47 5 52 19 4 18 4 -5 6 -24 1 -28 -3 -28 -26z"/>
<path d="M3910 840 c16 -10 8 -15 -40 -23 -21 -4 -20 -4 7 -6 26 -1 32 -6 36
-28 10 -52 2 -164 -12 -172 -10 -6 -10 -10 -1 -16 21 -13 25 5 28 131 3 115 2
124 -15 124 -15 0 -15 -2 -3 -10z"/>
<path d="M5295 840 c-19 -8 -19 -9 3 -9 24 -1 29 -20 10 -39 -6 -6 -12 -24
-13 -39 -2 -15 -6 -35 -9 -44 -6 -13 -1 -15 25 -11 28 4 31 2 27 -14 -3 -11
-2 -40 2 -64 7 -43 8 -44 9 -9 1 32 5 36 39 46 l37 11 -35 -2 -35 -1 1 48 c0
26 -3 47 -8 47 -4 0 -8 -9 -8 -20 0 -14 -7 -20 -22 -20 -16 0 -19 3 -11 11 6
6 9 17 6 24 -8 23 26 75 49 75 28 0 20 6 -17 12 -16 3 -39 2 -50 -2z"/>
<path d="M5595 830 c-7 -21 0 -40 16 -40 5 0 7 11 3 25 -5 19 -2 25 11 25 12
0 16 -6 12 -20 -3 -12 0 -20 8 -20 8 0 11 8 8 20 -4 14 0 20 10 20 20 0 31
-16 17 -25 -15 -9 -12 -25 5 -25 9 0 15 9 15 25 0 16 6 25 16 25 12 0 15 -6
10 -25 -4 -14 -2 -25 4 -25 5 0 10 14 10 30 l0 30 -69 0 c-61 0 -70 -3 -76
-20z"/>
<path d="M5859 803 c-11 -27 -28 -57 -37 -68 -16 -19 -16 -19 1 -6 24 19 28
12 29 -48 0 -28 4 -51 9 -51 5 0 8 38 8 84 -2 65 2 91 15 110 9 15 12 26 6 26
-6 0 -20 -21 -31 -47z"/>
<path d="M6184 825 c-3 -14 -12 -25 -19 -25 -10 0 -14 -23 -14 -96 -1 -75 2
-94 12 -86 6 5 21 12 32 15 15 3 13 5 -8 6 -26 1 -28 4 -25 39 3 34 6 37 33
37 28 0 30 -2 31 -42 1 -43 13 -74 15 -37 0 16 3 43 11 103 0 3 0 18 -1 34 -1
23 -5 27 -31 27 -33 0 -35 3 -20 31 7 13 7 19 1 19 -6 0 -13 -11 -17 -25z m46
-65 c0 -28 -3 -30 -35 -30 -32 0 -35 2 -35 30 0 28 3 30 35 30 32 0 35 -2 35
-30z"/>
<path d="M5391 828 c3 -28 -2 -39 -23 -48 l-23 -9 22 0 c23 -1 43 25 43 53 0
9 -5 16 -10 16 -6 0 -10 -6 -9 -12z"/>
<path d="M6720 830 c0 -5 5 -10 10 -10 6 0 10 5 10 10 0 6 -4 10 -10 10 -5 0
-10 -4 -10 -10z"/>
<path d="M4143 794 c-39 -40 -40 -44 -10 -44 21 -1 21 -2 -7 -24 -32 -27 -22
-41 19 -26 14 5 28 10 31 10 2 0 4 -22 4 -50 0 -45 -2 -50 -22 -51 -22 0 -22
-1 -3 -9 33 -14 35 -12 35 50 0 55 2 60 23 62 12 0 2 4 -22 7 l-44 6 47 34
c26 18 45 35 42 38 -2 3 -15 -2 -28 -11 -12 -9 -33 -16 -47 -16 l-24 0 27 25
c14 13 26 27 26 30 0 12 -17 1 -47 -31z"/>
<path d="M2677 812 c-15 -3 -17 -16 -17 -98 0 -91 1 -94 20 -82 15 10 27 10
49 1 l29 -11 4 67 c2 36 2 80 0 97 -3 27 -6 30 -35 30 -18 -1 -40 -2 -50 -4z
m67 -38 c9 -34 -4 -46 -40 -42 -50 5 -46 68 5 68 23 0 30 -5 35 -26z m1 -89
c0 -27 -3 -30 -37 -33 -38 -3 -38 -3 -38 33 0 36 0 36 38 33 34 -3 37 -6 37
-33z"/>
<path d="M5212 800 c-6 -11 -12 -29 -12 -40 0 -11 -6 -20 -14 -20 -15 0 -16
16 -3 37 8 13 -11 23 -31 15 -10 -3 -10 -7 -2 -12 6 -4 12 -21 12 -38 1 -18 5
-32 10 -32 4 0 8 5 8 10 0 6 5 10 10 10 6 0 10 -13 10 -30 0 -16 5 -30 10 -30
6 0 9 12 8 28 -2 19 2 27 12 27 18 0 25 -92 8 -112 -6 -8 -8 -16 -4 -20 14
-14 21 13 24 103 3 89 3 94 -17 94 -14 0 -19 5 -15 15 9 21 1 19 -14 -5z m36
-43 c5 -24 -24 -21 -31 4 -4 15 -1 19 11 17 9 -2 18 -11 20 -21z"/>
<path d="M5567 813 c-4 -3 -7 -11 -7 -17 0 -6 5 -5 12 2 6 6 9 14 7 17 -3 3
-9 2 -12 -2z"/>
<path d="M5490 805 c0 -5 5 -17 10 -25 5 -8 10 -10 10 -5 0 6 -5 17 -10 25 -5
8 -10 11 -10 5z"/>
<path d="M3885 790 c-3 -5 -1 -10 4 -10 6 0 11 5 11 10 0 6 -2 10 -4 10 -3 0
-8 -4 -11 -10z"/>
<path d="M4933 793 c9 -2 23 -2 30 0 6 3 -1 5 -18 5 -16 0 -22 -2 -12 -5z"/>
<path d="M6023 793 c21 -3 27 -9 23 -20 -5 -13 -4 -14 9 -3 25 21 17 30 -22
29 -32 -2 -33 -3 -10 -6z"/>
<path d="M7040 790 c-13 -8 -12 -10 3 -10 9 0 17 5 17 10 0 12 -1 12 -20 0z"/>
<path d="M3130 746 l0 -38 -65 4 c-36 2 -65 2 -65 1 0 -2 11 -8 25 -13 22 -8
23 -12 14 -40 -6 -17 -21 -37 -32 -45 -12 -8 -17 -15 -11 -15 18 0 70 64 66
83 -3 14 4 17 42 17 l45 0 -6 38 c-8 50 -13 53 -13 8z"/>
<path d="M3420 730 l0 -50 44 0 44 0 4 50 c1 28 0 50 -4 50 -5 0 -8 -20 -8
-45 0 -43 -1 -45 -30 -45 -28 0 -30 2 -30 39 0 36 3 40 28 44 22 3 20 4 -10 6
l-38 1 0 -50z"/>
<path d="M5660 771 c0 -6 5 -13 10 -16 6 -3 10 1 10 9 0 9 -4 16 -10 16 -5 0
-10 -4 -10 -9z"/>
<path d="M5695 771 c-3 -6 4 -9 15 -8 11 1 20 5 20 9 0 11 -28 10 -35 -1z"/>
<path d="M3167 763 c-12 -11 -8 -21 13 -26 31 -8 42 -49 18 -66 -17 -11 -21
-11 -34 5 -14 18 -14 17 -3 -5 10 -21 9 -26 -7 -38 -21 -15 -11 -17 17 -3 10
6 19 7 19 2 0 -4 16 -16 35 -25 l35 -17 -1 33 c-1 17 -3 24 -6 15 -6 -23 -27
-23 -49 -1 -16 16 -15 18 5 27 11 5 21 15 21 23 0 7 7 13 15 13 8 0 15 5 15
10 0 6 -9 10 -19 10 -23 0 -35 15 -26 30 5 8 11 7 21 -1 11 -9 14 -8 14 5 0
12 -10 16 -38 16 -21 0 -42 -3 -45 -7z"/>
<path d="M4863 763 c9 -2 23 -2 30 0 6 3 -1 5 -18 5 -16 0 -22 -2 -12 -5z"/>
<path d="M4454 746 c-10 -26 4 -48 28 -44 17 2 23 10 23 28 0 18 -6 26 -23 28
-13 2 -25 -3 -28 -12z m41 -17 c0 -7 -8 -15 -17 -17 -18 -3 -25 18 -11 32 10
10 28 1 28 -15z"/>
<path d="M7265 750 c-4 -6 5 -10 20 -10 15 0 24 4 20 10 -3 6 -12 10 -20 10
-8 0 -17 -4 -20 -10z"/>
<path d="M2830 723 c13 -18 26 -30 29 -28 3 3 -8 18 -23 33 l-29 27 23 -32z"/>
<path d="M4240 739 c0 -5 9 -19 20 -31 14 -16 20 -18 20 -7 0 8 -9 22 -20 32
-11 9 -20 12 -20 6z"/>
<path d="M4957 733 c-9 -2 -15 -8 -12 -13 6 -10 45 -1 45 11 0 9 -4 10 -33 2z"/>
<path d="M5605 731 c11 -5 35 -6 53 -3 28 4 32 2 32 -17 0 -23 -28 -29 -48 -9
-9 9 -12 9 -12 0 0 -7 -8 -13 -17 -13 -10 -1 -1 -5 20 -9 20 -4 54 -4 75 0 21
5 28 8 15 9 -32 1 -29 25 5 37 22 9 12 11 -58 12 -53 1 -77 -2 -65 -7z"/>
<path d="M3362 660 c-1 -38 3 -70 7 -70 5 0 9 32 10 70 1 39 -3 70 -8 70 -5 0
-9 -31 -9 -70z"/>
<path d="M4816 719 c6 -11 45 -11 61 -1 6 4 -6 8 -27 8 -22 1 -37 -2 -34 -7z"/>
<path d="M5923 713 c-3 -10 -12 -33 -19 -50 -20 -50 -8 -39 19 17 13 28 20 50
15 50 -5 0 -11 -8 -15 -17z"/>
<path d="M5366 711 c-3 -4 6 -6 19 -3 14 2 25 6 25 8 0 8 -39 4 -44 -5z"/>
<path d="M6326 707 c3 -10 9 -15 12 -12 3 3 0 11 -7 18 -10 9 -11 8 -5 -6z"/>
<path d="M6514 704 c-18 -14 -18 -15 4 -4 12 6 22 13 22 15 0 8 -5 6 -26 -11z"/>
<path d="M6583 713 c9 -2 25 -2 35 0 9 3 1 5 -18 5 -19 0 -27 -2 -17 -5z"/>
<path d="M7300 711 c0 -8 -8 -11 -20 -8 -11 3 -18 1 -14 -4 3 -5 11 -9 19 -9
16 0 30 18 21 27 -3 4 -6 1 -6 -6z"/>
<path d="M3168 703 c7 -3 16 -2 19 1 4 3 -2 6 -13 5 -11 0 -14 -3 -6 -6z"/>
<path d="M6945 698 c-7 -12 -27 -18 -70 -21 l-60 -3 62 -2 c59 -2 62 -3 66
-29 l4 -28 2 28 c1 27 2 27 68 27 36 0 63 3 60 7 -4 4 -32 6 -61 4 -46 -2 -55
1 -58 16 -3 17 -4 17 -13 1z"/>
<path d="M5158 663 c-3 -21 -8 -47 -12 -58 -5 -13 -2 -11 8 5 8 14 15 33 16
42 0 9 5 18 11 20 7 2 6 8 -4 16 -13 11 -15 7 -19 -25z"/>
<path d="M6045 670 c12 -41 27 -60 20 -25 -4 17 -11 35 -17 40 -7 7 -8 2 -3
-15z"/>
<path d="M3867 660 c-3 -11 -2 -20 3 -20 4 0 10 9 13 20 3 11 2 20 -3 20 -4 0
-10 -9 -13 -20z"/>
<path d="M4116 652 c-9 -17 -21 -33 -28 -36 -9 -4 -8 -5 1 -3 18 4 57 54 49
63 -4 3 -14 -8 -22 -24z"/>
<path d="M4232 675 c10 -28 32 -65 40 -65 14 0 9 14 -18 45 -14 17 -24 26 -22
20z"/>
<path d="M4810 635 c0 -44 1 -45 27 -39 15 4 33 7 40 7 8 0 13 14 13 39 0 38
0 38 -40 38 l-40 0 0 -45z m65 5 c0 -18 -6 -26 -22 -28 -20 -3 -23 1 -23 28 0
27 3 31 23 28 16 -2 22 -10 22 -28z"/>
<path d="M4940 663 c0 -12 -8 -27 -17 -32 -17 -10 -16 -10 2 -10 11 0 36 9 55
19 30 17 31 19 8 14 -19 -4 -29 -1 -37 13 -10 17 -10 16 -11 -4z"/>
<path d="M6540 637 l0 -42 55 -3 c82 -5 95 2 95 49 l0 39 -75 0 -75 0 0 -43z
m138 1 l3 -28 -65 0 c-62 0 -66 1 -66 23 0 13 2 26 4 28 3 2 31 4 63 4 56 0
58 -1 61 -27z"/>
<path d="M5290 660 c8 -5 20 -10 25 -10 6 0 3 5 -5 10 -8 5 -19 10 -25 10 -5
0 -3 -5 5 -10z"/>
<path d="M5982 650 c0 -14 2 -19 5 -12 2 6 2 18 0 25 -3 6 -5 1 -5 -13z"/>
<path d="M3080 656 c0 -2 7 -9 15 -16 9 -7 15 -8 15 -2 0 5 -7 12 -15 16 -8 3
-15 4 -15 2z"/>
<path d="M5625 649 l-40 -5 40 -5 c35 -4 40 -7 37 -28 -2 -15 0 -21 7 -17 6 4
11 16 11 27 0 15 7 19 35 19 19 0 35 3 35 8 0 8 -68 9 -125 1z"/>
<path d="M6380 641 c0 -24 -17 -36 -45 -33 -17 1 -17 0 4 -10 20 -10 25 -9 37
7 13 18 19 55 9 55 -3 0 -5 -9 -5 -19z"/>
<path d="M6884 639 c-3 -6 -20 -17 -38 -25 -17 -7 -25 -13 -18 -14 20 0 82 31
82 41 0 13 -17 11 -26 -2z"/>
<path d="M6980 646 c0 -7 82 -47 87 -42 3 2 -13 14 -36 25 -40 21 -51 25 -51
17z"/>
<path d="M3103 610 c-13 -5 -23 -11 -23 -14 0 -7 40 6 46 15 6 10 6 10 -23 -1z"/>
<path d="M5850 599 c0 -11 5 -17 10 -14 6 3 10 13 10 21 0 8 -4 14 -10 14 -5
0 -10 -9 -10 -21z"/>
<path d="M5945 600 c27 -12 35 -12 35 0 0 6 -12 10 -27 9 -25 0 -26 -1 -8 -9z"/>
<path d="M6940 599 c0 -5 5 -7 10 -4 6 3 10 8 10 11 0 2 -4 4 -10 4 -5 0 -10
-5 -10 -11z"/>
<path d="M13596 443 c5 -5 12 -12 16 -18 4 -6 8 -2 8 8 0 9 -7 17 -17 17 -9 0
-12 -3 -7 -7z"/>
<path d="M13146 410 c-14 -17 -28 -46 -32 -66 -12 -65 16 -164 48 -164 6 0 3
9 -8 21 -14 15 -20 40 -22 92 -3 64 -1 76 22 110 31 45 27 48 -8 7z"/>
<path d="M13510 426 c0 -7 -17 -35 -37 -62 -22 -29 -27 -41 -14 -29 13 11 37
39 53 63 22 32 25 42 13 42 -8 0 -15 -6 -15 -14z"/>
<path d="M13236 395 c-21 -43 -21 -41 14 -49 39 -7 55 -41 40 -80 -10 -26 -14
-28 -47 -23 -33 6 -35 5 -22 -9 12 -11 22 -12 42 -5 57 22 61 102 7 133 -37
21 -31 48 11 48 38 0 38 17 0 18 -24 0 -32 -6 -45 -33z"/>
<path d="M13770 403 c12 -17 24 -49 25 -70 4 -51 -12 -123 -32 -145 -11 -12
-12 -18 -4 -18 16 0 61 98 61 133 0 38 -22 88 -50 112 l-23 20 23 -32z"/>
<path d="M13649 367 c18 -22 3 -27 -88 -29 -47 0 -71 -3 -53 -5 37 -5 38 -10
17 -60 -16 -38 -36 -61 -70 -81 -11 -6 -15 -12 -8 -12 27 0 84 63 95 106 12
43 13 44 55 44 l43 0 1 -47 1 -48 8 47 c11 61 18 72 36 57 8 -6 14 -8 14 -4 0
9 -42 44 -54 45 -5 0 -3 -6 3 -13z"/>
<path d="M13626 214 c-5 -12 -13 -14 -34 -10 -20 5 -23 4 -12 -4 22 -15 50
-12 57 5 3 9 3 18 0 21 -2 3 -7 -3 -11 -12z"/>
</g>
</svg>
