<?xml version="1.0" standalone="no"?>
<!DOCTYPE svg PUBLIC "-//W3C//DTD SVG 20010904//EN"
 "http://www.w3.org/TR/2001/REC-SVG-20010904/DTD/svg10.dtd">
<svg version="1.0" xmlns="http://www.w3.org/2000/svg"
 width="865.000000pt" height="685.000000pt" viewBox="0 0 865.000000 685.000000"
 preserveAspectRatio="xMidYMid meet">
<metadata>
Created by potrace 1.16, written by Peter Selinger 2001-2019
</metadata>
<g transform="translate(0.000000,685.000000) scale(0.100000,-0.100000)"
fill="#000000" stroke="none">
<path d="M958 6843 c7 -3 16 -2 19 1 4 3 -2 6 -13 5 -11 0 -14 -3 -6 -6z"/>
<path d="M1073 6843 c48 -2 125 -2 170 0 45 1 6 3 -88 3 -93 0 -130 -2 -82 -3z"/>
<path d="M1338 6843 c7 -3 16 -2 19 1 4 3 -2 6 -13 5 -11 0 -14 -3 -6 -6z"/>
<path d="M1395 6841 c-3 -6 6 -8 22 -5 37 7 42 14 10 14 -14 0 -28 -4 -32 -9z"/>
<path d="M1470 6840 c-13 -8 -13 -10 2 -10 9 0 20 5 23 10 8 13 -5 13 -25 0z"/>
<path d="M1525 6840 c-19 -8 -19 -9 3 -9 12 -1 22 4 22 9 0 6 -1 10 -2 9 -2 0
-12 -4 -23 -9z"/>
<path d="M1623 6833 c9 -2 25 -2 35 0 9 3 1 5 -18 5 -19 0 -27 -2 -17 -5z"/>
<path d="M1775 6830 c55 -4 104 -3 110 2 5 4 -40 7 -100 6 l-110 -1 100 -7z"/>
<path d="M1900 6832 c0 -5 122 -10 272 -11 150 -1 276 -5 280 -7 4 -3 8 0 8 5
0 7 -51 11 -147 12 -82 0 -208 2 -280 5 -73 2 -133 0 -133 -4z"/>
<path d="M2477 6823 c-3 -4 24 -9 59 -10 35 -1 64 2 64 6 0 10 -117 14 -123 4z"/>
<path d="M2675 6821 c10 -10 492 -17 502 -7 3 2 -89 5 -204 6 -114 0 -230 3
-258 6 -33 3 -46 1 -40 -5z"/>
<path d="M3204 6808 c10 -6 22 -6 26 -2 5 5 -3 10 -18 11 -22 1 -24 0 -8 -9z"/>
<path d="M3258 6803 c7 -3 16 -2 19 1 4 3 -2 6 -13 5 -11 0 -14 -3 -6 -6z"/>
<path d="M3408 6803 c68 -2 176 -2 240 0 64 1 9 3 -123 3 -132 0 -185 -2 -117
-3z"/>
<path d="M3773 6804 c3 -3 22 -6 42 -6 20 0 39 3 42 6 4 3 -15 6 -42 6 -27 0
-46 -3 -42 -6z"/>
<path d="M3958 6793 c12 -2 30 -2 40 0 9 3 -1 5 -23 4 -22 0 -30 -2 -17 -4z"/>
<path d="M4033 6793 c9 -2 23 -2 30 0 6 3 -1 5 -18 5 -16 0 -22 -2 -12 -5z"/>
<path d="M4113 6793 c20 -2 54 -2 75 0 20 2 3 4 -38 4 -41 0 -58 -2 -37 -4z"/>
<path d="M4278 6793 c28 -2 76 -2 105 0 28 2 5 3 -53 3 -58 0 -81 -1 -52 -3z"/>
<path d="M4441 6796 c7 -7 149 -10 156 -3 3 4 -31 7 -77 7 -46 0 -81 -2 -79
-4z"/>
<path d="M4618 6793 c7 -3 16 -2 19 1 4 3 -2 6 -13 5 -11 0 -14 -3 -6 -6z"/>
<path d="M4655 6790 c-3 -6 1 -7 9 -4 18 7 21 14 7 14 -6 0 -13 -4 -16 -10z"/>
<path d="M4696 6788 c3 -4 15 -8 26 -8 12 0 18 3 14 7 -10 10 -46 11 -40 1z"/>
<path d="M4758 6783 c7 -3 16 -2 19 1 4 3 -2 6 -13 5 -11 0 -14 -3 -6 -6z"/>
<path d="M4843 6783 c9 -2 25 -2 35 0 9 3 1 5 -18 5 -19 0 -27 -2 -17 -5z"/>
<path d="M4943 6783 c26 -2 68 -2 95 0 26 2 4 3 -48 3 -52 0 -74 -1 -47 -3z"/>
<path d="M5138 6783 c28 -2 76 -2 105 0 28 2 5 3 -53 3 -58 0 -81 -1 -52 -3z"/>
<path d="M5308 6783 c7 -3 16 -2 19 1 4 3 -2 6 -13 5 -11 0 -14 -3 -6 -6z"/>
<path d="M5340 6786 c0 -2 7 -7 16 -10 8 -3 12 -2 9 4 -6 10 -25 14 -25 6z"/>
<path d="M5483 6773 c9 -2 23 -2 30 0 6 3 -1 5 -18 5 -16 0 -22 -2 -12 -5z"/>
<path d="M5653 6773 c70 -2 184 -2 255 0 70 1 12 3 -128 3 -140 0 -198 -2
-127 -3z"/>
<path d="M6068 6773 c12 -2 30 -2 40 0 9 3 -1 5 -23 4 -22 0 -30 -2 -17 -4z"/>
<path d="M6180 6776 c0 -2 7 -7 16 -10 8 -3 12 -2 9 4 -6 10 -25 14 -25 6z"/>
<path d="M6363 6763 c26 -2 67 -2 90 0 23 2 2 3 -48 3 -49 0 -68 -1 -42 -3z"/>
<path d="M6500 6767 c7 -7 477 -13 484 -6 3 3 -105 7 -241 8 -136 1 -245 0
-243 -2z"/>
<path d="M7030 6760 c0 -5 5 -10 11 -10 5 0 7 5 4 10 -3 6 -8 10 -11 10 -2 0
-4 -4 -4 -10z"/>
<path d="M7060 6760 c0 -5 5 -10 11 -10 5 0 7 5 4 10 -3 6 -8 10 -11 10 -2 0
-4 -4 -4 -10z"/>
<path d="M7097 6758 c-6 -4 7 -6 30 -5 23 0 39 5 37 9 -6 9 -50 7 -67 -4z"/>
<path d="M65 6750 c-3 -5 -1 -10 4 -10 6 0 11 5 11 10 0 6 -2 10 -4 10 -3 0
-8 -4 -11 -10z"/>
<path d="M144 6748 c-4 -7 -4 -10 1 -6 4 4 17 2 29 -4 19 -10 20 -10 7 5 -16
20 -27 21 -37 5z"/>
<path d="M580 6745 c0 -8 2 -15 4 -15 2 0 6 7 10 15 3 8 1 15 -4 15 -6 0 -10
-7 -10 -15z"/>
<path d="M728 6708 c5 -89 9 -97 11 -20 0 39 -2 72 -6 72 -5 0 -7 -24 -5 -52z"/>
<path d="M7273 6753 c54 -2 139 -2 190 0 51 1 7 3 -98 3 -104 0 -146 -2 -92
-3z"/>
<path d="M7573 6753 c9 -2 23 -2 30 0 6 3 -1 5 -18 5 -16 0 -22 -2 -12 -5z"/>
<path d="M7638 6753 c12 -2 32 -2 45 0 12 2 2 4 -23 4 -25 0 -35 -2 -22 -4z"/>
<path d="M7752 6751 c-9 -5 6 -9 39 -10 28 0 50 2 47 4 -10 10 -73 14 -86 6z"/>
<path d="M7858 6743 c6 -2 18 -2 25 0 6 3 1 5 -13 5 -14 0 -19 -2 -12 -5z"/>
<path d="M7988 6743 c46 -2 118 -2 160 0 42 1 5 3 -83 3 -88 0 -123 -2 -77 -3z"/>
<path d="M8235 6740 c3 -5 8 -10 11 -10 2 0 4 5 4 10 0 6 -5 10 -11 10 -5 0
-7 -4 -4 -10z"/>
<path d="M8274 6739 c12 -7 25 -8 39 -2 18 8 15 10 -18 11 -33 1 -37 -1 -21
-9z"/>
<path d="M676 6725 c-3 -8 -1 -15 4 -15 6 0 10 7 10 15 0 8 -2 15 -4 15 -2 0
-6 -7 -10 -15z"/>
<path d="M866 6732 c-3 -6 2 -8 14 -5 28 7 36 -21 16 -55 l-17 -27 21 24 c26
30 23 65 -7 69 -11 2 -24 -1 -27 -6z"/>
<path d="M8348 6733 c7 -3 16 -2 19 1 4 3 -2 6 -13 5 -11 0 -14 -3 -6 -6z"/>
<path d="M8442 6733 c37 -2 100 -2 140 0 40 1 10 3 -67 3 -77 0 -110 -1 -73
-3z"/>
<path d="M1644 6712 c-5 -9 -7 -30 -4 -47 6 -28 6 -27 12 15 8 51 6 56 -8 32z"/>
<path d="M1723 6688 c-15 -55 -8 -62 8 -9 12 42 35 54 46 25 4 -10 -1 -22 -11
-29 -14 -11 -15 -13 -1 -18 8 -4 14 -3 13 1 -1 4 2 15 6 25 12 26 0 47 -27 47
-19 0 -25 -8 -34 -42z"/>
<path d="M2670 6719 c0 -5 5 -7 10 -4 6 3 10 8 10 11 0 2 -4 4 -10 4 -5 0 -10
-5 -10 -11z"/>
<path d="M2776 6709 c-15 -18 -20 -19 -28 -8 -6 9 -8 10 -6 2 2 -7 6 -13 11
-13 4 0 13 0 21 0 7 0 16 9 19 20 6 25 6 25 -17 -1z"/>
<path d="M582 6663 c-2 -63 -2 -63 26 -62 22 1 23 2 5 6 -19 4 -23 12 -26 61
l-3 57 -2 -62z"/>
<path d="M1042 6683 c1 -37 1 -37 5 -5 3 26 9 32 28 32 13 0 26 -6 28 -12 4
-10 6 -10 6 0 1 7 14 12 32 12 29 0 31 -2 27 -30 -3 -16 -1 -30 4 -30 4 0 8
16 8 35 l0 35 -70 0 -70 0 2 -37z"/>
<path d="M1831 6694 c-12 -15 -21 -35 -21 -45 0 -22 34 -59 53 -59 6 0 3 6 -8
12 -11 6 -23 16 -28 22 -10 15 1 57 20 79 9 9 13 17 10 17 -3 0 -15 -12 -26
-26z"/>
<path d="M1977 6713 c-8 -14 -19 -68 -13 -62 8 8 26 69 21 69 -2 0 -6 -3 -8
-7z"/>
<path d="M2033 6706 c29 -29 16 -79 -26 -97 -18 -7 -18 -8 -3 -6 10 1 28 14
39 29 17 22 19 33 11 55 -5 14 -16 29 -24 31 -11 4 -10 1 3 -12z"/>
<path d="M2870 6710 c8 -5 20 -10 25 -10 6 0 3 5 -5 10 -8 5 -19 10 -25 10 -5
0 -3 -5 5 -10z"/>
<path d="M2927 6713 c-3 -5 -5 -42 -4 -83 0 -47 2 -58 4 -30 3 24 10 48 16 52
9 6 9 8 0 8 -7 0 -13 11 -13 24 0 13 6 27 13 29 9 4 9 6 0 6 -6 1 -14 -2 -16
-6z"/>
<path d="M2984 6699 c-19 -22 -19 -22 4 -8 12 8 22 17 22 21 0 12 -6 9 -26
-13z"/>
<path d="M60 6686 c0 -14 5 -26 10 -26 6 0 10 9 10 19 0 11 -4 23 -10 26 -6 4
-10 -5 -10 -19z"/>
<path d="M645 6700 c-4 -6 3 -10 14 -10 25 0 27 6 6 13 -8 4 -17 2 -20 -3z"/>
<path d="M2260 6706 c0 -9 30 -14 35 -6 4 6 -3 10 -14 10 -12 0 -21 -2 -21 -4z"/>
<path d="M3430 6703 c14 -3 28 -10 32 -17 5 -7 8 -5 8 7 0 13 -8 17 -32 16
-28 -2 -29 -2 -8 -6z"/>
<path d="M169 6688 c16 -22 9 -45 -16 -51 -16 -4 -16 -4 1 -3 10 1 24 9 30 18
8 14 6 21 -9 35 -17 16 -18 17 -6 1z"/>
<path d="M698 6693 c7 -3 16 -2 19 1 4 3 -2 6 -13 5 -11 0 -14 -3 -6 -6z"/>
<path d="M2341 6684 c0 -11 3 -14 6 -6 3 7 2 16 -1 19 -3 4 -6 -2 -5 -13z"/>
<path d="M2670 6677 c0 -13 -6 -29 -12 -36 -9 -10 -9 -12 -1 -7 8 4 13 -7 16
-36 2 -29 4 -19 5 30 1 39 0 72 -3 72 -3 0 -5 -10 -5 -23z"/>
<path d="M2797 6680 c-3 -11 -1 -20 4 -20 5 0 9 9 9 20 0 11 -2 20 -4 20 -2 0
-6 -9 -9 -20z"/>
<path d="M1310 6680 c0 -5 5 -10 11 -10 5 0 7 5 4 10 -3 6 -8 10 -11 10 -2 0
-4 -4 -4 -10z"/>
<path d="M3755 6630 l-59 -60 64 2 65 2 -54 3 -54 4 54 55 c29 30 51 54 48 54
-2 0 -31 -27 -64 -60z"/>
<path d="M3946 6675 c-3 -9 -6 -26 -6 -37 0 -15 -5 -19 -20 -15 -11 3 -23 1
-26 -4 -3 -5 1 -9 10 -9 8 0 21 -2 29 -6 11 -4 16 6 20 38 6 46 3 59 -7 33z"/>
<path d="M4065 6680 c3 -5 8 -10 11 -10 2 0 4 5 4 10 0 6 -5 10 -11 10 -5 0
-7 -4 -4 -10z"/>
<path d="M4196 6675 c4 -8 7 -15 9 -15 2 0 5 7 9 15 3 9 0 15 -9 15 -9 0 -12
-6 -9 -15z"/>
<path d="M4440 6676 c-18 -23 -8 -61 18 -64 26 -4 27 -10 5 -34 -16 -18 -16
-18 0 -12 23 8 37 36 37 71 0 47 -34 69 -60 39z m48 -29 c3 -22 -1 -27 -18
-27 -23 0 -35 22 -26 46 10 25 41 12 44 -19z"/>
<path d="M4542 6678 c-7 -7 -12 -21 -11 -32 1 -18 2 -18 8 3 9 34 29 37 42 8
8 -17 8 -35 0 -63 -9 -35 -9 -37 4 -20 20 26 19 81 -1 100 -19 19 -26 20 -42
4z"/>
<path d="M4630 6674 c-11 -12 -10 -18 3 -32 12 -12 20 -13 28 -5 8 8 6 11 -7
10 -11 -1 -19 4 -19 13 0 8 8 14 17 14 10 -1 15 2 12 7 -8 13 -20 11 -34 -7z"/>
<path d="M4870 6686 c0 -9 39 -13 51 -5 10 6 4 9 -18 9 -18 0 -33 -2 -33 -4z"/>
<path d="M4948 6683 c6 -2 18 -2 25 0 6 3 1 5 -13 5 -14 0 -19 -2 -12 -5z"/>
<path d="M628 6673 c7 -3 16 -2 19 1 4 3 -2 6 -13 5 -11 0 -14 -3 -6 -6z"/>
<path d="M668 6656 c5 -20 5 -20 13 0 7 18 8 18 8 -3 1 -18 -6 -22 -36 -26
l-38 -4 43 -1 c40 -2 42 -1 42 27 0 23 -4 29 -19 28 -13 -1 -17 -7 -13 -21z"/>
<path d="M2999 6653 c-13 -16 -12 -17 4 -4 9 7 17 15 17 17 0 8 -8 3 -21 -13z"/>
<path d="M4011 6639 c-14 -41 -13 -62 1 -29 13 29 20 60 14 60 -2 0 -9 -14
-15 -31z"/>
<path d="M5307 6663 c-4 -3 -7 -19 -7 -35 0 -21 -5 -28 -19 -28 -10 0 -25 -8
-32 -17 -11 -15 -11 -16 1 -5 8 6 22 12 32 12 10 0 19 -6 19 -12 1 -7 5 10 9
37 8 53 7 59 -3 48z"/>
<path d="M5381 6629 c-7 -23 -10 -44 -7 -47 3 -3 6 2 6 11 0 10 5 17 11 17 5
0 7 4 4 10 -3 5 -1 19 5 30 6 11 7 20 2 20 -5 0 -14 -18 -21 -41z"/>
<path d="M5437 6652 c3 -14 0 -24 -10 -28 -13 -5 -14 -9 -4 -25 10 -17 9 -23
-7 -35 -11 -8 -15 -14 -9 -14 17 0 36 28 29 45 -3 9 0 25 6 35 10 15 10 22 1
31 -9 9 -11 7 -6 -9z"/>
<path d="M5683 6640 c-3 -17 -10 -33 -14 -36 -5 -3 -9 -18 -9 -35 0 -25 3 -29
28 -28 23 2 24 2 5 6 -27 5 -27 6 -7 66 8 25 23 48 32 50 12 3 10 5 -6 6 -17
1 -24 -6 -29 -29z"/>
<path d="M6685 6660 c-4 -6 -11 -8 -16 -5 -5 4 -9 1 -9 -4 0 -6 5 -11 10 -11
6 0 13 -1 17 -2 3 -2 7 5 9 15 3 19 -2 22 -11 7z"/>
<path d="M2711 6644 c0 -11 3 -14 6 -6 3 7 2 16 -1 19 -3 4 -6 -2 -5 -13z"/>
<path d="M2750 6646 c0 -8 -12 -29 -27 -48 l-27 -33 26 24 26 23 5 -28 c2 -17
5 -7 6 24 0 28 -1 52 -4 52 -3 0 -5 -6 -5 -14z"/>
<path d="M2878 6621 c-2 -22 0 -37 3 -35 9 5 17 74 8 74 -4 0 -9 -18 -11 -39z"/>
<path d="M4952 6645 c-11 -12 -10 -15 3 -15 8 0 15 7 15 15 0 18 -2 18 -18 0z"/>
<path d="M5749 6648 c7 -10 11 -29 9 -43 -3 -13 -1 -22 3 -19 15 9 10 51 -8
65 -16 13 -17 12 -4 -3z"/>
<path d="M5812 6647 c-19 -23 -32 -66 -22 -72 6 -4 10 1 10 10 0 9 7 29 15 45
16 31 15 39 -3 17z"/>
<path d="M6390 6620 c-7 -22 -10 -43 -7 -47 4 -3 7 -1 7 5 0 7 9 12 19 12 11
0 22 4 25 9 4 5 -3 7 -14 4 -13 -3 -20 0 -20 8 0 28 18 42 44 37 14 -3 26 -1
26 3 0 5 -15 9 -33 9 -31 0 -35 -4 -47 -40z"/>
<path d="M7450 6582 l0 -82 52 0 c28 0 48 3 44 7 -4 4 -25 6 -46 4 l-40 -2 1
71 c1 39 -2 74 -5 77 -3 4 -6 -30 -6 -75z"/>
<path d="M7620 6649 c0 -5 5 -7 10 -4 6 3 10 8 10 11 0 2 -4 4 -10 4 -5 0 -10
-5 -10 -11z"/>
<path d="M7678 6637 c-3 -19 -2 -25 4 -19 6 6 8 18 6 28 -3 14 -5 12 -10 -9z"/>
<path d="M60 6640 c0 -5 5 -10 11 -10 5 0 7 5 4 10 -3 6 -8 10 -11 10 -2 0 -4
-4 -4 -10z"/>
<path d="M3151 6634 c0 -11 3 -14 6 -6 3 7 2 16 -1 19 -3 4 -6 -2 -5 -13z"/>
<path d="M4107 6643 c-13 -12 -7 -51 9 -67 8 -9 25 -15 37 -15 20 1 21 2 2 6
-35 9 -47 25 -41 55 6 29 4 33 -7 21z"/>
<path d="M7020 6631 c0 -10 -7 -37 -15 -60 -8 -22 -11 -41 -7 -41 4 0 14 21
21 48 8 26 16 53 19 60 2 6 -1 12 -7 12 -6 0 -11 -8 -11 -19z"/>
<path d="M7068 6637 c7 -8 7 -18 2 -27 -16 -26 -11 -36 6 -12 17 24 13 52 -7
52 -8 0 -8 -4 -1 -13z"/>
<path d="M7206 6635 c4 -8 8 -15 10 -15 2 0 4 7 4 15 0 8 -4 15 -10 15 -5 0
-7 -7 -4 -15z"/>
<path d="M8033 6643 c9 -2 17 -13 17 -24 0 -17 3 -18 20 -7 33 21 24 38 -17
37 -21 -1 -30 -3 -20 -6z m47 -7 c0 -3 -4 -8 -10 -11 -5 -3 -10 -1 -10 4 0 6
5 11 10 11 6 0 10 -2 10 -4z"/>
<path d="M8131 6624 c-1 -29 1 -31 27 -25 24 5 25 6 5 9 -13 2 -23 12 -26 25
-3 16 -5 13 -6 -9z"/>
<path d="M8446 6622 l-19 -27 24 22 c12 12 21 24 18 27 -2 2 -13 -8 -23 -22z"/>
<path d="M1102 6610 c0 -19 2 -27 5 -17 2 9 2 25 0 35 -3 9 -5 1 -5 -18z"/>
<path d="M1770 6630 c0 -15 -51 -25 -60 -11 -5 9 -9 9 -13 -3 -10 -25 55 -21
78 4 10 11 13 20 7 20 -7 0 -12 -4 -12 -10z"/>
<path d="M1947 6620 c-3 -11 -1 -20 4 -20 5 0 9 9 9 20 0 11 -2 20 -4 20 -2 0
-6 -9 -9 -20z"/>
<path d="M2250 6620 c-6 -11 -9 -20 -8 -20 2 0 11 9 21 20 9 11 13 20 7 20 -5
0 -14 -9 -20 -20z"/>
<path d="M2298 6633 c7 -3 16 -2 19 1 4 3 -2 6 -13 5 -11 0 -14 -3 -6 -6z"/>
<path d="M2355 6633 c11 -3 23 -10 27 -17 5 -7 8 -5 8 7 0 12 -7 17 -27 16
-22 -1 -23 -2 -8 -6z"/>
<path d="M4303 6633 c15 -2 37 -2 50 0 12 2 0 4 -28 4 -27 0 -38 -2 -22 -4z"/>
<path d="M7116 6608 c-8 -18 -11 -39 -9 -47 8 -22 33 -41 52 -40 9 0 4 5 -11
11 -22 8 -28 16 -28 39 0 17 5 39 10 50 6 10 8 19 5 19 -3 0 -12 -14 -19 -32z"/>
<path d="M8500 6620 c0 -11 2 -20 4 -20 2 0 6 9 9 20 3 11 1 20 -4 20 -5 0 -9
-9 -9 -20z"/>
<path d="M8546 6632 c6 -4 13 -14 16 -22 3 -10 6 -8 10 8 5 18 2 22 -15 22
-13 0 -17 -3 -11 -8z"/>
<path d="M873 6623 c9 -2 25 -2 35 0 9 3 1 5 -18 5 -19 0 -27 -2 -17 -5z"/>
<path d="M1570 6615 c-7 -9 -8 -15 -2 -15 5 0 12 7 16 15 3 8 4 15 2 15 -2 0
-9 -7 -16 -15z"/>
<path d="M1630 6615 c-10 -13 -9 -15 8 -15 15 0 20 5 16 15 -4 8 -7 15 -9 15
-1 0 -8 -7 -15 -15z"/>
<path d="M3010 6610 c-6 -11 -8 -20 -6 -20 3 0 10 9 16 20 6 11 8 20 6 20 -3
0 -10 -9 -16 -20z"/>
<path d="M4985 6619 c-4 -6 -5 -12 -2 -15 2 -3 7 2 10 11 7 17 1 20 -8 4z"/>
<path d="M7592 6568 c0 -35 3 -49 5 -31 3 26 9 32 31 35 21 2 28 9 30 31 3 25
1 27 -32 27 l-36 0 2 -62z m58 32 c0 -15 -7 -20 -25 -20 -18 0 -25 5 -25 20 0
15 7 20 25 20 18 0 25 -5 25 -20z"/>
<path d="M7742 6610 c0 -14 2 -19 5 -12 2 6 2 18 0 25 -3 6 -5 1 -5 -13z"/>
<path d="M8010 6626 c0 -2 7 -7 16 -10 8 -3 12 -2 9 4 -6 10 -25 14 -25 6z"/>
<path d="M8310 6610 c0 -15 7 -20 26 -20 21 0 25 -4 21 -20 -3 -11 -1 -20 4
-20 5 0 9 11 9 25 0 20 -5 25 -25 25 -37 0 -31 18 8 23 31 4 31 4 -5 5 -32 2
-38 -1 -38 -18z"/>
<path d="M2321 6604 c0 -11 3 -14 6 -6 3 7 2 16 -1 19 -3 4 -6 -2 -5 -13z"/>
<path d="M3440 6610 c-10 -6 -11 -10 -2 -10 6 0 12 -11 12 -25 0 -14 4 -25 8
-25 4 0 6 16 4 35 -2 19 -5 35 -6 35 0 0 -8 -5 -16 -10z"/>
<path d="M4061 6603 c-1 -12 -7 -24 -13 -26 -10 -4 -10 -6 0 -6 15 -1 26 23
19 41 -3 7 -6 3 -6 -9z"/>
<path d="M4532 6600 c0 -14 2 -19 5 -12 2 6 2 18 0 25 -3 6 -5 1 -5 -13z"/>
<path d="M6676 6605 c-2 -7 9 -9 30 -7 46 6 52 19 9 18 -19 -1 -37 -6 -39 -11z"/>
<path d="M8228 6603 c-2 -10 -1 -43 2 -73 l7 -55 2 73 c1 71 -2 89 -11 55z"/>
<path d="M2792 6594 c-7 -8 -8 -14 -3 -14 10 0 25 19 20 25 -2 1 -10 -3 -17
-11z"/>
<path d="M2366 6583 c-6 -14 -5 -15 5 -6 7 7 10 15 7 18 -3 3 -9 -2 -12 -12z"/>
<path d="M3368 6575 c-3 -14 -1 -25 3 -25 5 0 9 11 9 25 0 14 -2 25 -4 25 -2
0 -6 -11 -8 -25z"/>
<path d="M4288 6593 c6 -2 18 -2 25 0 6 3 1 5 -13 5 -14 0 -19 -2 -12 -5z"/>
<path d="M8068 6593 c-10 -2 -18 -8 -18 -13 0 -5 -10 -11 -22 -13 l-23 -4 23
-2 c26 -1 29 -18 5 -24 -10 -3 0 -5 22 -5 22 0 32 2 23 5 -22 5 -24 43 -3 43
8 0 15 5 15 10 0 6 -1 9 -2 9 -2 -1 -11 -3 -20 -6z"/>
<path d="M4944 6572 c23 -26 23 -26 23 -7 0 8 -3 13 -5 10 -3 -3 -12 1 -21 7
-10 8 -9 4 3 -10z"/>
<path d="M6646 6552 l-19 -27 24 22 c13 12 40 23 59 26 l35 4 -40 1 c-33 1
-43 -3 -59 -26z"/>
<path d="M6760 6573 c8 -3 18 -11 22 -17 5 -7 8 -4 8 7 0 11 -7 17 -22 16 -16
0 -18 -2 -8 -6z"/>
<path d="M7742 6560 c0 -14 2 -19 5 -12 2 6 2 18 0 25 -3 6 -5 1 -5 -13z"/>
<path d="M7843 6573 c26 -2 67 -2 90 0 23 2 2 3 -48 3 -49 0 -68 -1 -42 -3z"/>
<path d="M8310 6562 c0 -12 -7 -33 -15 -45 -13 -20 -12 -22 8 -24 12 -1 36 -4
52 -7 29 -6 29 -6 -2 4 -39 12 -47 24 -34 48 6 11 6 24 0 33 -7 11 -9 9 -9 -9z"/>
<path d="M8440 6565 c-11 -13 -10 -14 4 -9 9 3 16 10 16 15 0 13 -6 11 -20 -6z"/>
<path d="M5360 6560 c0 -5 5 -10 11 -10 5 0 7 5 4 10 -3 6 -8 10 -11 10 -2 0
-4 -4 -4 -10z"/>
<path d="M5730 6560 c-9 -6 -10 -10 -3 -10 6 0 15 5 18 10 8 12 4 12 -15 0z"/>
<path d="M7060 6555 c0 -8 -6 -15 -14 -15 -8 0 -18 -4 -21 -10 -7 -11 23 -2
43 13 14 11 16 27 2 27 -5 0 -10 -7 -10 -15z"/>
<path d="M8270 6560 c0 -6 7 -10 15 -10 8 0 15 2 15 4 0 2 -7 6 -15 10 -8 3
-15 1 -15 -4z"/>
<path d="M3398 6553 c7 -3 16 -2 19 1 4 3 -2 6 -13 5 -11 0 -14 -3 -6 -6z"/>
<path d="M5807 6549 c7 -7 15 -10 18 -7 3 3 -2 9 -12 12 -14 6 -15 5 -6 -5z"/>
<path d="M6367 6546 c-5 -13 0 -16 26 -15 21 1 25 3 12 6 -11 3 -23 10 -26 15
-3 5 -9 3 -12 -6z"/>
<path d="M8100 6525 c0 -33 2 -35 35 -35 32 0 35 2 34 28 -2 23 -2 24 -6 5 -7
-34 -53 -32 -53 1 0 20 6 25 33 29 31 4 31 4 -5 5 -37 2 -38 1 -38 -33z"/>
<path d="M8553 6545 c0 -10 9 -15 26 -14 17 1 20 3 9 6 -10 2 -18 9 -18 14 0
5 -4 9 -8 9 -5 0 -9 -7 -9 -15z"/>
<path d="M4988 6538 c5 -5 16 -8 23 -6 8 3 3 7 -10 11 -17 4 -21 3 -13 -5z"/>
<path d="M6770 6532 c0 -6 -8 -13 -17 -15 -16 -4 -16 -5 -1 -6 18 -1 34 16 24
26 -3 4 -6 1 -6 -5z"/>
<path d="M8452 6510 c0 -19 2 -27 5 -17 2 9 2 25 0 35 -3 9 -5 1 -5 -18z"/>
<path d="M8503 6533 c9 -2 23 -2 30 0 6 3 -1 5 -18 5 -16 0 -22 -2 -12 -5z"/>
<path d="M7722 6504 c-7 -8 -8 -14 -3 -14 10 0 25 19 20 25 -2 1 -10 -3 -17
-11z"/>
<path d="M665 6408 c-54 -57 -58 -60 53 40 7 6 10 12 5 12 -5 0 -31 -24 -58
-52z"/>
<path d="M830 6426 c-13 -17 -17 -25 -7 -17 15 12 17 11 17 -3 0 -9 -8 -16
-19 -16 -11 0 -22 -3 -24 -7 -3 -5 8 -8 24 -8 26 0 30 3 27 25 -1 14 1 31 6
38 16 27 0 19 -24 -12z"/>
<path d="M920 6438 c0 -19 2 -20 10 -8 13 19 13 30 0 30 -5 0 -10 -10 -10 -22z"/>
<path d="M978 6453 c7 -3 16 -2 19 1 4 3 -2 6 -13 5 -11 0 -14 -3 -6 -6z"/>
<path d="M1068 6451 c22 -4 39 -15 48 -31 7 -14 13 -20 14 -15 1 27 -32 55
-63 54 l-32 -2 33 -6z"/>
<path d="M1353 6453 c-14 -5 -18 -73 -5 -73 4 0 7 15 7 33 0 27 4 32 22 31 12
0 20 3 17 8 -6 9 -22 9 -41 1z"/>
<path d="M1451 6446 c-7 -9 -11 -21 -8 -28 4 -8 6 -7 6 4 2 29 23 32 44 7 l19
-24 -14 24 c-18 31 -32 36 -47 17z"/>
<path d="M1541 6450 c-15 -8 -11 -42 4 -45 6 -1 7 0 3 3 -11 6 -10 30 2 37 6
3 14 -4 19 -17 9 -22 10 -22 10 -2 1 24 -19 36 -38 24z"/>
<path d="M1030 6414 c-13 -32 -13 -51 -1 -38 10 11 24 64 16 64 -3 0 -10 -12
-15 -26z"/>
<path d="M1400 6407 c0 -9 -8 -17 -17 -17 -15 0 -16 -2 -3 -10 12 -7 11 -12
-5 -32 l-20 -23 22 18 c21 18 39 64 28 75 -3 3 -5 -2 -5 -11z"/>
<path d="M910 6400 c0 -5 7 -7 15 -4 8 4 15 8 15 10 0 2 -7 4 -15 4 -8 0 -15
-4 -15 -10z"/>
<path d="M1431 6384 c0 -11 3 -14 6 -6 3 7 2 16 -1 19 -3 4 -6 -2 -5 -13z"/>
<path d="M1754 6389 c-3 -6 -2 -15 4 -21 12 -12 32 -2 31 15 0 9 -2 9 -6 0 -2
-7 -9 -13 -15 -13 -6 0 -8 7 -4 15 6 17 0 20 -10 4z"/>
<path d="M1102 6370 c-6 -11 -26 -24 -44 -29 -25 -7 -27 -9 -11 -10 22 -1 82
43 73 53 -3 3 -11 -4 -18 -14z"/>
<path d="M1495 6380 c-3 -5 -1 -10 4 -10 6 0 11 5 11 10 0 6 -2 10 -4 10 -3 0
-8 -4 -11 -10z"/>
<path d="M897 6360 c-3 -11 -1 -20 4 -20 5 0 9 9 9 20 0 11 -2 20 -4 20 -2 0
-6 -9 -9 -20z"/>
<path d="M1213 6363 c15 -2 37 -2 50 0 12 2 0 4 -28 4 -27 0 -38 -2 -22 -4z"/>
<path d="M835 6350 c-3 -5 -1 -10 4 -10 6 0 11 5 11 10 0 6 -2 10 -4 10 -3 0
-8 -4 -11 -10z"/>
<path d="M1011 6344 c0 -11 3 -14 6 -6 3 7 2 16 -1 19 -3 4 -6 -2 -5 -13z"/>
<path d="M1440 6351 c0 -6 4 -13 10 -16 6 -3 7 1 4 9 -7 18 -14 21 -14 7z"/>
<path d="M1486 6343 c-6 -14 -5 -15 5 -6 7 7 10 15 7 18 -3 3 -9 -2 -12 -12z"/>
<path d="M638 6343 c18 -2 45 -2 60 0 15 2 0 4 -33 4 -33 0 -45 -2 -27 -4z"/>
<path d="M955 6340 c-3 -5 -2 -10 4 -10 5 0 13 5 16 10 3 6 2 10 -4 10 -5 0
-13 -4 -16 -10z"/>
<path d="M6408 6170 c-9 -33 -12 -60 -7 -60 5 0 9 8 9 19 0 10 7 35 15 54 17
42 18 47 7 47 -4 0 -15 -27 -24 -60z"/>
<path d="M6465 6220 c27 -12 43 -12 25 0 -8 5 -22 9 -30 9 -10 0 -8 -3 5 -9z"/>
<path d="M6494 6165 c-3 -14 -16 -32 -27 -40 -12 -8 -17 -15 -12 -15 19 1 44
27 50 53 4 15 5 27 1 27 -3 0 -8 -11 -12 -25z"/>
<path d="M6303 6090 c-13 -5 -23 -12 -23 -15 0 -4 5 -3 10 0 25 15 5 -19 -42
-76 -102 -120 -124 -148 -72 -93 27 28 73 78 102 110 l53 59 -5 -220 c-3 -121
-8 -420 -10 -665 l-5 -445 14 540 c16 650 17 815 8 814 -5 0 -18 -4 -30 -9z"/>
<path d="M6210 6050 c-19 -10 -61 -29 -93 -41 -32 -12 -56 -24 -53 -26 4 -5
206 77 206 83 0 9 -28 2 -60 -16z"/>
<path d="M5965 5945 c-38 -19 -59 -32 -45 -28 14 3 41 14 60 24 19 11 40 19
47 19 6 0 15 5 18 10 10 16 -6 11 -80 -25z"/>
<path d="M5801 5879 c-13 -5 -21 -12 -18 -15 3 -3 18 1 34 10 31 17 21 20 -16
5z"/>
<path d="M5713 5841 c-23 -9 -45 -20 -49 -24 -15 -14 13 -6 62 17 56 28 49 32
-13 7z"/>
<path d="M6085 5814 c-9 -15 -12 -23 -6 -20 11 7 35 46 28 46 -3 0 -12 -12
-22 -26z"/>
<path d="M5482 5743 c-84 -36 -151 -67 -149 -69 4 -4 204 78 282 115 86 42 12
16 -133 -46z"/>
<path d="M5999 5709 c-35 -39 -66 -75 -68 -80 -3 -9 23 18 118 124 14 15 22
27 19 27 -3 0 -34 -32 -69 -71z"/>
<path d="M5290 5660 c-8 -5 -10 -10 -5 -10 6 0 17 5 25 10 8 5 11 10 5 10 -5
0 -17 -5 -25 -10z"/>
<path d="M5225 5635 c-16 -7 -23 -14 -15 -14 8 0 26 6 40 14 32 18 14 18 -25
0z"/>
<path d="M5145 5601 c-22 -11 -34 -20 -27 -20 14 -1 72 27 72 34 0 7 0 7 -45
-14z"/>
<path d="M5859 5548 c-24 -28 -53 -61 -64 -72 -11 -12 -29 -33 -40 -47 -11
-14 15 11 58 55 70 73 105 116 94 116 -3 0 -24 -23 -48 -52z"/>
<path d="M5050 5560 c-19 -11 -32 -19 -29 -20 11 0 79 30 79 35 0 9 -14 5 -50
-15z"/>
<path d="M4980 5530 c-9 -6 -10 -10 -3 -10 6 0 15 5 18 10 8 12 4 12 -15 0z"/>
<path d="M4893 5495 c-29 -13 -53 -26 -53 -29 0 -5 111 42 119 50 10 10 -18 1
-66 -21z"/>
<path d="M4800 5455 c-14 -8 -20 -14 -14 -15 5 0 19 7 30 15 24 18 16 19 -16
0z"/>
<path d="M4730 5425 c-14 -8 -30 -14 -37 -15 -15 0 -165 -72 -160 -76 3 -4
227 93 236 101 10 10 -15 4 -39 -10z"/>
<path d="M5709 5373 c-13 -16 -12 -17 4 -4 16 13 21 21 13 21 -2 0 -10 -8 -17
-17z"/>
<path d="M5644 5304 c-22 -26 -57 -68 -79 -93 -106 -119 -278 -324 -266 -317
7 4 67 72 133 149 67 78 124 144 127 147 25 21 132 152 128 156 -3 3 -22 -16
-43 -42z"/>
<path d="M4440 5303 c-30 -14 -112 -49 -181 -78 -121 -51 -191 -84 -178 -85 7
0 285 117 419 177 14 7 18 12 10 12 -8 0 -40 -12 -70 -26z"/>
<path d="M4005 5115 c-27 -14 -41 -23 -30 -19 52 16 81 27 90 35 17 17 -9 9
-60 -16z"/>
<path d="M3900 5070 c-9 -6 -10 -10 -3 -10 6 0 15 5 18 10 8 12 4 12 -15 0z"/>
<path d="M3836 5045 c-25 -19 -9 -19 24 0 14 8 19 14 10 14 -8 0 -24 -6 -34
-14z"/>
<path d="M3560 4930 c-113 -48 -216 -93 -230 -99 -80 -33 -133 -60 -123 -60
11 -1 54 16 148 59 55 25 218 94 335 142 70 29 107 49 85 47 -6 0 -102 -40
-215 -89z"/>
<path d="M5255 4850 c-16 -16 -25 -30 -19 -29 8 0 60 59 52 59 -3 0 -17 -13
-33 -30z"/>
<path d="M5154 4733 c-27 -31 -82 -95 -122 -142 -40 -47 -85 -99 -100 -116
-14 -16 -46 -55 -71 -85 -25 -30 -48 -57 -51 -60 -3 -3 -25 -30 -49 -60 -37
-47 -38 -49 -6 -15 20 22 56 62 78 89 78 91 190 221 196 226 3 3 24 28 45 55
21 28 46 57 55 65 20 19 84 100 79 100 -2 0 -26 -26 -54 -57z"/>
<path d="M3145 4755 c-79 -36 -139 -61 -240 -102 -60 -25 -119 -52 -130 -60
-24 -19 -22 -18 130 47 66 28 154 66 195 83 73 30 105 48 85 46 -6 0 -23 -6
-40 -14z"/>
<path d="M6300 4715 c0 -33 15 -33 16 0 1 14 -2 25 -7 25 -5 0 -9 -11 -9 -25z"/>
<path d="M6304 4475 c0 -99 2 -138 3 -87 2 51 2 132 0 180 -1 48 -3 6 -3 -93z"/>
<path d="M2552 4623 c-5 -10 -7 -24 -5 -31 3 -7 0 -18 -5 -25 -9 -12 1 -57 13
-57 4 0 4 3 2 8 -2 4 -1 33 2 65 8 61 7 66 -7 40z"/>
<path d="M2670 4555 c-54 -23 -55 -23 -56 -66 -1 -31 0 -35 3 -11 2 18 8 30
14 27 5 -3 6 0 3 8 -3 10 13 21 55 37 34 12 61 24 61 26 0 8 -28 1 -80 -21z"/>
<path d="M2477 4533 c-4 -3 -7 -11 -7 -17 0 -6 5 -5 12 2 6 6 9 14 7 17 -3 3
-9 2 -12 -2z"/>
<path d="M2650 4496 c0 -2 28 -24 63 -48 74 -53 87 -61 87 -54 0 3 -34 28 -75
56 -41 28 -75 49 -75 46z"/>
<path d="M2607 4427 c-4 -10 -7 -28 -6 -40 0 -21 1 -21 10 2 5 14 8 32 7 40
-3 13 -5 13 -11 -2z"/>
<path d="M2837 4363 c33 -29 93 -68 93 -59 0 2 -28 23 -62 46 -42 27 -52 31
-31 13z"/>
<path d="M2604 4165 c0 -104 2 -146 3 -92 2 54 2 139 0 190 -1 51 -3 7 -3 -98z"/>
<path d="M2949 4287 c13 -17 111 -80 111 -73 0 2 -28 23 -62 47 -35 23 -57 35
-49 26z"/>
<path d="M6302 4260 c-1 -19 -5 -46 -8 -60 -5 -19 -4 -22 5 -14 8 7 11 30 8
60 -2 37 -4 41 -5 14z"/>
<path d="M3095 4185 c32 -28 65 -49 65 -41 0 3 -21 19 -47 36 -41 27 -43 27
-18 5z"/>
<path d="M4667 4165 c-21 -25 -35 -45 -32 -45 4 0 12 6 18 13 7 7 25 27 41 45
17 18 25 32 20 32 -5 0 -27 -20 -47 -45z"/>
<path d="M3190 4116 c0 -3 9 -10 20 -16 11 -6 20 -8 20 -6 0 3 -9 10 -20 16
-11 6 -20 8 -20 6z"/>
<path d="M6291 4104 c0 -11 3 -14 6 -6 3 7 2 16 -1 19 -3 4 -6 -2 -5 -13z"/>
<path d="M4541 4015 c-45 -52 -81 -97 -81 -100 0 -9 31 24 80 85 25 30 50 60
55 65 18 16 38 45 32 45 -3 0 -42 -43 -86 -95z"/>
<path d="M3262 4067 c18 -17 108 -77 108 -72 0 6 -107 85 -115 85 -4 0 0 -6 7
-13z"/>
<path d="M6292 4040 c0 -19 2 -27 5 -17 2 9 2 25 0 35 -3 9 -5 1 -5 -18z"/>
<path d="M6292 3970 c0 -19 2 -27 5 -17 2 9 2 25 0 35 -3 9 -5 1 -5 -18z"/>
<path d="M3405 3967 c65 -48 165 -117 165 -113 0 6 -179 136 -188 136 -4 0 6
-11 23 -23z"/>
<path d="M6294 3785 c0 -82 2 -115 3 -72 2 43 2 110 0 150 -1 40 -3 5 -3 -78z"/>
<path d="M2590 3725 c0 -104 2 -186 5 -184 7 7 8 360 1 367 -3 3 -6 -79 -6
-183z"/>
<path d="M4424 3878 c-47 -55 -57 -68 -48 -68 5 1 24 21 42 45 35 48 38 60 6
23z"/>
<path d="M3610 3821 c19 -16 36 -28 39 -25 5 5 -23 28 -54 45 -11 6 -4 -3 15
-20z"/>
<path d="M4265 3693 c-49 -59 -109 -127 -131 -152 l-41 -45 -52 38 c-29 21
-54 36 -57 33 -3 -3 13 -17 35 -31 23 -15 41 -30 41 -35 0 -5 -52 -8 -115 -6
-64 2 -113 0 -110 -5 3 -5 97 -8 208 -8 111 1 174 3 140 5 -35 2 -63 8 -63 14
0 10 90 118 214 256 21 24 35 43 30 43 -5 0 -49 -49 -99 -107z"/>
<path d="M3660 3786 c0 -5 69 -46 78 -46 4 0 -10 11 -30 25 -36 24 -48 30 -48
21z"/>
<path d="M3755 3720 c3 -5 8 -10 11 -10 2 0 4 5 4 10 0 6 -5 10 -11 10 -5 0
-7 -4 -4 -10z"/>
<path d="M3780 3702 c0 -5 12 -14 26 -20 14 -7 23 -8 19 -2 -9 15 -45 32 -45
22z"/>
<path d="M3840 3665 c0 -6 121 -87 125 -83 2 1 -26 22 -61 46 -35 23 -64 40
-64 37z"/>
<path d="M6280 3530 l0 -79 -117 -4 -118 -3 123 -2 122 -2 0 85 c0 47 -2 85
-5 85 -3 0 -5 -36 -5 -80z"/>
<path d="M2599 3517 c4 -4 18 -3 32 2 23 9 22 9 -8 8 -18 -1 -28 -6 -24 -10z"/>
<path d="M2723 3513 c9 -2 23 -2 30 0 6 3 -1 5 -18 5 -16 0 -22 -2 -12 -5z"/>
<path d="M2813 3513 c26 -2 67 -2 90 0 23 2 2 3 -48 3 -49 0 -68 -1 -42 -3z"/>
<path d="M2973 3513 c9 -2 23 -2 30 0 6 3 -1 5 -18 5 -16 0 -22 -2 -12 -5z"/>
<path d="M3038 3513 c12 -2 30 -2 40 0 9 3 -1 5 -23 4 -22 0 -30 -2 -17 -4z"/>
<path d="M3188 3503 c23 -2 59 -2 80 0 20 2 1 4 -43 4 -44 0 -61 -2 -37 -4z"/>
<path d="M3318 3503 c7 -3 16 -2 19 1 4 3 -2 6 -13 5 -11 0 -14 -3 -6 -6z"/>
<path d="M3358 3503 c6 -2 18 -2 25 0 6 3 1 5 -13 5 -14 0 -19 -2 -12 -5z"/>
<path d="M3408 3503 c6 -2 18 -2 25 0 6 3 1 5 -13 5 -14 0 -19 -2 -12 -5z"/>
<path d="M3460 3498 c0 -5 53 -8 117 -8 64 0 114 2 111 5 -8 8 -228 11 -228 3z"/>
<path d="M2455 3455 c-3 -22 -13 -50 -21 -62 -14 -22 -13 -23 18 -22 18 1 25
3 16 6 -21 5 -21 6 -4 62 7 26 21 48 32 52 15 6 14 7 -8 6 -23 -1 -27 -7 -33
-42z"/>
<path d="M3745 3490 c28 -4 57 -3 65 1 9 5 -11 8 -50 7 l-65 -1 50 -7z"/>
<path d="M4250 3479 c0 -5 5 -7 10 -4 6 3 10 8 10 11 0 2 -4 4 -10 4 -5 0 -10
-5 -10 -11z"/>
<path d="M4280 3478 c0 -4 4 -8 9 -8 6 0 12 4 15 8 3 5 -1 9 -9 9 -8 0 -15 -4
-15 -9z"/>
<path d="M4405 3480 c3 -5 20 -10 37 -10 39 0 33 7 -11 15 -21 4 -30 2 -26 -5z"/>
<path d="M2510 3455 c-11 -20 -11 -28 -1 -38 10 -9 11 -8 5 6 -3 9 -1 24 6 32
7 9 11 18 8 20 -3 3 -11 -6 -18 -20z"/>
<path d="M4573 3473 c54 -2 139 -2 190 0 51 1 7 3 -98 3 -104 0 -146 -2 -92
-3z"/>
<path d="M5090 3468 c0 -4 88 -8 195 -10 107 -2 195 0 195 4 0 4 -88 8 -195
10 -107 2 -195 0 -195 -4z"/>
<path d="M5505 3460 c-17 -8 -17 -9 7 -7 15 1 24 5 22 9 -3 4 -6 8 -7 7 -1 0
-11 -4 -22 -9z"/>
<path d="M5638 3453 c46 -2 118 -2 160 0 42 1 5 3 -83 3 -88 0 -123 -2 -77 -3z"/>
<path d="M5900 3456 c0 -9 40 -13 46 -5 3 5 -6 9 -20 9 -14 0 -26 -2 -26 -4z"/>
<path d="M4063 3383 c-6 -27 -14 -56 -18 -65 -6 -15 -1 -18 33 -18 29 0 42 5
47 18 5 14 4 15 -6 5 -7 -7 -26 -13 -41 -13 l-28 0 15 36 c8 20 15 45 15 56 0
17 5 20 30 16 17 -3 30 -1 30 4 0 4 -15 8 -33 8 -30 0 -33 -3 -44 -47z"/>
<path d="M6342 3385 c-26 -30 -28 -67 -5 -86 15 -13 15 -12 2 9 -12 20 -12 27
8 62 25 47 24 49 -5 15z"/>
<path d="M6416 3395 c4 -8 8 -15 10 -15 2 0 4 7 4 15 0 8 -4 15 -10 15 -5 0
-7 -7 -4 -15z"/>
<path d="M4095 3370 c-3 -5 -1 -10 4 -10 6 0 11 5 11 10 0 6 -2 10 -4 10 -3 0
-8 -4 -11 -10z"/>
<path d="M4240 3058 c0 -45 3 -79 6 -75 9 8 10 157 2 157 -5 0 -8 -37 -8 -82z"/>
<path d="M4276 3132 c6 -4 14 -14 17 -22 4 -12 6 -11 6 3 1 13 10 17 46 17
l44 0 4 -62 3 -63 2 68 2 67 -67 0 c-38 0 -63 -4 -57 -8z"/>
<path d="M4499 3113 c-13 -15 -12 -15 8 -2 33 20 51 0 35 -38 -11 -26 -11 -27
3 -9 18 24 19 38 3 54 -17 17 -33 15 -49 -5z"/>
<path d="M4285 3090 c-30 -8 -30 -8 8 -9 23 -1 36 3 32 9 -3 6 -7 9 -8 9 -1
-1 -15 -5 -32 -9z"/>
<path d="M4358 3083 c7 -3 16 -2 19 1 4 3 -2 6 -13 5 -11 0 -14 -3 -6 -6z"/>
<path d="M4276 3061 c-4 -5 3 -7 14 -4 23 6 26 13 6 13 -8 0 -17 -4 -20 -9z"/>
<path d="M4330 3041 c0 -5 -10 -12 -22 -14 -20 -4 -19 -4 5 -6 18 -1 27 4 27
14 0 8 -2 15 -5 15 -3 0 -5 -4 -5 -9z"/>
<path d="M4496 3012 c-3 -5 8 -8 24 -8 16 0 27 3 24 8 -3 4 -14 8 -24 8 -10 0
-21 -4 -24 -8z"/>
<path d="M1049 2649 c-10 -6 -7 -9 14 -9 29 0 35 5 14 13 -8 3 -20 1 -28 -4z"/>
<path d="M1250 2649 c0 -5 5 -7 10 -4 6 3 10 8 10 11 0 2 -4 4 -10 4 -5 0 -10
-5 -10 -11z"/>
<path d="M1296 2645 c4 -8 8 -15 10 -15 2 0 4 7 4 15 0 8 -4 15 -10 15 -5 0
-7 -7 -4 -15z"/>
<path d="M1331 2633 c-1 -26 2 -31 15 -26 9 3 11 9 6 12 -5 3 -12 15 -15 26
-3 13 -5 9 -6 -12z"/>
<path d="M1180 2640 c-9 -6 -10 -10 -3 -10 6 0 15 5 18 10 8 12 4 12 -15 0z"/>
<path d="M1626 2633 c-3 -10 -9 -25 -12 -33 -3 -8 0 -7 7 4 10 17 13 15 29
-20 9 -22 15 -43 12 -47 -2 -5 -21 -7 -42 -5 -21 2 -36 0 -34 -4 7 -11 82 -10
88 0 4 7 -29 110 -39 120 -1 1 -5 -5 -9 -15z"/>
<path d="M1885 2640 c3 -4 -4 -33 -15 -64 -10 -31 -15 -56 -9 -56 5 0 9 9 9
19 0 11 7 26 15 34 8 8 12 17 9 20 -10 10 7 47 22 47 8 0 19 -10 24 -22 l9
-23 0 23 c1 24 0 24 -41 27 -15 1 -25 -1 -23 -5z"/>
<path d="M497 2633 c-14 -14 -7 -91 10 -104 15 -13 15 -12 4 10 -7 13 -11 41
-9 62 2 21 3 39 2 39 0 0 -4 -3 -7 -7z"/>
<path d="M1790 2607 c-20 -27 -21 -29 -3 -14 21 18 21 18 26 0 3 -10 5 -4 6
15 0 17 0 32 -1 31 -2 0 -14 -14 -28 -32z"/>
<path d="M2482 2628 c-6 -6 -12 -19 -11 -27 0 -10 4 -7 9 7 10 24 39 29 59 10
11 -11 13 -10 9 2 -6 19 -49 25 -66 8z"/>
<path d="M577 2624 c17 -4 21 -12 20 -41 -1 -20 3 -38 9 -40 7 -2 8 11 5 39
-5 37 -9 43 -31 45 -20 1 -21 0 -3 -3z"/>
<path d="M1250 2611 c0 -25 6 -27 13 -6 4 8 2 17 -3 20 -6 4 -10 -3 -10 -14z"/>
<path d="M2346 2622 c-3 -6 3 -26 14 -44 23 -39 24 -36 6 16 -7 21 -16 34 -20
28z"/>
<path d="M2661 2614 c0 -11 3 -14 6 -6 3 7 2 16 -1 19 -3 4 -6 -2 -5 -13z"/>
<path d="M2704 2565 c-11 -36 -16 -65 -12 -65 9 0 10 1 29 72 11 38 18 48 39
51 23 4 22 4 -5 5 -28 2 -31 -2 -51 -63z"/>
<path d="M1048 2613 c6 -2 18 -2 25 0 6 3 1 5 -13 5 -14 0 -19 -2 -12 -5z"/>
<path d="M1138 2613 c6 -2 18 -2 25 0 6 3 1 5 -13 5 -14 0 -19 -2 -12 -5z"/>
<path d="M2797 2593 c6 -38 -8 -60 -52 -79 -16 -7 -24 -13 -17 -14 27 0 72 31
78 56 4 14 2 35 -4 47 -9 19 -10 18 -5 -10z"/>
<path d="M1997 2600 c-19 -55 -25 -80 -18 -80 5 0 11 14 15 31 5 25 10 30 26
26 11 -3 20 -1 20 4 0 5 -6 9 -14 9 -8 0 -16 6 -19 13 -3 9 -6 8 -10 -3z"/>
<path d="M659 2555 c-9 -25 -13 -42 -8 -40 9 6 33 75 27 80 -2 2 -11 -16 -19
-40z"/>
<path d="M1048 2583 c6 -2 18 -2 25 0 6 3 1 5 -13 5 -14 0 -19 -2 -12 -5z"/>
<path d="M1112 2570 c0 -14 2 -19 5 -12 2 6 2 18 0 25 -3 6 -5 1 -5 -13z"/>
<path d="M1920 2575 c17 -20 6 -42 -22 -48 -21 -4 -21 -4 -2 -6 12 0 27 6 34
14 13 16 5 55 -12 55 -6 0 -6 -6 2 -15z"/>
<path d="M1388 2545 c-2 -19 0 -35 4 -35 4 0 8 16 8 35 0 19 -2 35 -4 35 -2 0
-6 -16 -8 -35z"/>
<path d="M2454 2553 c-4 -16 -12 -31 -18 -35 -7 -5 -5 -8 5 -8 10 0 19 12 23
31 5 25 10 30 26 26 11 -3 20 -1 20 4 0 5 -11 9 -25 9 -19 0 -26 -7 -31 -27z"/>
<path d="M1167 2551 c-4 -17 -3 -21 5 -13 5 5 8 16 6 23 -3 8 -7 3 -11 -10z"/>
<path d="M1778 2563 c18 -3 23 -10 19 -24 -3 -11 0 -19 8 -19 8 0 11 9 7 25
-3 20 -10 25 -31 24 -25 -2 -25 -2 -3 -6z"/>
<path d="M2210 2560 c-9 -6 -10 -10 -3 -10 6 0 15 5 18 10 8 12 4 12 -15 0z"/>
<path d="M2561 2544 c0 -11 3 -14 6 -6 3 7 2 16 -1 19 -3 4 -6 -2 -5 -13z"/>
<path d="M2050 2535 c-7 -9 -8 -15 -2 -15 5 0 12 7 16 15 3 8 4 15 2 15 -2 0
-9 -7 -16 -15z"/>
<path d="M1299 2523 c-13 -16 -12 -17 4 -4 9 7 17 15 17 17 0 8 -8 3 -21 -13z"/>
<path d="M1725 2530 c-3 -5 -1 -10 4 -10 6 0 11 5 11 10 0 6 -2 10 -4 10 -3 0
-8 -4 -11 -10z"/>
<path d="M2380 2531 c0 -6 -19 -12 -42 -14 -41 -3 -41 -4 9 -5 43 -2 51 1 47
13 -7 17 -14 20 -14 6z"/>
<path d="M8136 2532 c-2 -4 7 -8 22 -7 38 0 39 -27 2 -69 l-32 -36 38 1 c31 2
33 3 11 6 l-28 4 26 30 c28 34 31 49 13 67 -14 14 -44 16 -52 4z"/>
<path d="M8316 2523 c-6 -14 -5 -15 5 -6 7 7 10 15 7 18 -3 3 -9 -2 -12 -12z"/>
<path d="M2505 2520 c-16 -7 -17 -9 -3 -9 9 -1 20 4 23 9 7 11 7 11 -20 0z"/>
<path d="M8080 2504 c-13 -32 -12 -65 0 -84 7 -11 8 -6 4 17 -4 18 -2 46 4 63
13 36 6 41 -8 4z"/>
<path d="M8506 2517 c3 -10 9 -15 12 -12 3 3 0 11 -7 18 -10 9 -11 8 -5 -6z"/>
<path d="M1123 2513 c15 -2 39 -2 55 0 15 2 2 4 -28 4 -30 0 -43 -2 -27 -4z"/>
<path d="M2598 2503 c7 -3 16 -2 19 1 4 3 -2 6 -13 5 -11 0 -14 -3 -6 -6z"/>
<path d="M8410 2501 c0 -10 19 -25 25 -20 1 2 -3 10 -11 17 -8 7 -14 8 -14 3z"/>
<path d="M8522 2467 c-1 -15 -9 -43 -16 -62 -18 -43 -12 -46 9 -4 9 16 14 45
12 62 -4 30 -4 30 -5 4z"/>
<path d="M8326 2433 c-6 -14 -5 -15 5 -6 7 7 10 15 7 18 -3 3 -9 -2 -12 -12z"/>
<path d="M8402 2430 c0 -14 2 -19 5 -12 2 6 2 18 0 25 -3 6 -5 1 -5 -13z"/>
<path d="M8378 2393 c7 -3 16 -2 19 1 4 3 -2 6 -13 5 -11 0 -14 -3 -6 -6z"/>
<path d="M552 2150 c0 -14 2 -19 5 -12 2 6 2 18 0 25 -3 6 -5 1 -5 -13z"/>
<path d="M651 2143 c7 -12 15 -20 18 -17 3 2 -3 12 -13 22 -17 16 -18 16 -5
-5z"/>
<path d="M1078 2153 c12 -2 32 -2 45 0 12 2 2 4 -23 4 -25 0 -35 -2 -22 -4z"/>
<path d="M1156 2145 c4 -8 8 -15 10 -15 2 0 4 7 4 15 0 8 -4 15 -10 15 -5 0
-7 -7 -4 -15z"/>
<path d="M483 2125 c-3 -9 -3 -18 -1 -21 3 -3 8 4 11 16 6 23 -1 27 -10 5z"/>
<path d="M1330 2125 c0 -8 2 -15 4 -15 2 0 6 7 10 15 3 8 1 15 -4 15 -6 0 -10
-7 -10 -15z"/>
<path d="M1380 2081 c0 -48 -3 -60 -17 -64 -14 -4 -12 -5 5 -6 21 -1 22 3 22
64 0 36 -2 65 -5 65 -3 0 -5 -27 -5 -59z"/>
<path d="M1716 2118 c-9 -34 -8 -36 17 -40 29 -4 62 29 46 49 -6 7 -17 13 -23
13 -6 0 -5 -4 3 -9 19 -12 6 -41 -19 -41 -23 0 -24 4 -10 31 6 11 7 19 2 19
-6 0 -12 -10 -16 -22z"/>
<path d="M2019 2138 c-4 -23 -2 -128 4 -128 4 0 7 29 7 65 0 36 -2 65 -5 65
-3 0 -5 -1 -6 -2z"/>
<path d="M1040 2070 c0 -35 2 -61 5 -59 7 8 9 108 2 116 -4 3 -7 -22 -7 -57z"/>
<path d="M1278 2123 c7 -3 16 -2 19 1 4 3 -2 6 -13 5 -11 0 -14 -3 -6 -6z"/>
<path d="M1625 2108 c-11 -12 -14 -18 -6 -13 8 4 17 2 22 -6 6 -10 9 -6 9 14
0 32 1 32 -25 5z"/>
<path d="M2118 2123 c6 -2 18 -2 25 0 6 3 1 5 -13 5 -14 0 -19 -2 -12 -5z"/>
<path d="M586 2106 c21 -15 30 -14 19 3 -3 6 -14 11 -23 11 -13 0 -13 -2 4
-14z"/>
<path d="M2946 2093 c-11 -14 -14 -23 -8 -19 8 5 12 -1 12 -15 0 -16 -5 -20
-20 -16 -11 3 -20 1 -20 -4 0 -5 9 -9 20 -9 23 0 26 -10 8 -28 -9 -9 -9 -12 3
-12 10 0 16 12 17 38 1 20 5 49 8 65 7 33 4 33 -20 0z"/>
<path d="M3030 2096 c0 -13 -7 -42 -15 -65 -10 -31 -11 -41 -2 -41 7 0 13 10
14 23 0 12 5 38 10 57 8 31 13 35 41 34 18 -1 29 2 26 7 -3 5 -21 9 -40 9 -29
0 -34 -3 -34 -24z"/>
<path d="M552 2090 c0 -14 2 -19 5 -12 2 6 2 18 0 25 -3 6 -5 1 -5 -13z"/>
<path d="M672 2085 c0 -16 2 -22 5 -12 2 9 2 23 0 30 -3 6 -5 -1 -5 -18z"/>
<path d="M1125 2100 l-40 -7 37 -2 c20 0 40 4 43 9 3 6 5 9 3 9 -2 -1 -21 -5
-43 -9z"/>
<path d="M3326 2101 c-3 -4 6 -6 19 -3 30 5 41 -17 25 -50 -11 -22 -10 -22 4
-4 19 24 20 38 4 54 -14 14 -44 16 -52 3z"/>
<path d="M3436 2094 c-9 -25 -7 -34 9 -34 17 0 34 -29 28 -50 -4 -13 -3 -13 6
-1 11 17 -2 49 -25 58 -21 8 -17 23 5 23 11 0 23 5 26 10 3 6 -5 10 -18 10
-14 0 -28 -7 -31 -16z"/>
<path d="M3947 2102 c6 -4 13 -23 16 -42 l4 -35 1 37 c1 20 8 39 15 41 6 3 -1
6 -18 6 -17 0 -25 -3 -18 -7z"/>
<path d="M2090 2095 c0 -3 11 -10 24 -15 14 -5 26 -19 29 -32 l4 -23 2 24 c0
13 -7 30 -16 37 -18 13 -43 19 -43 9z"/>
<path d="M4343 2085 c6 -7 15 -11 20 -8 13 8 7 19 -13 20 -16 1 -17 -1 -7 -12z"/>
<path d="M4420 2081 c-5 -11 -10 -26 -10 -34 0 -19 37 -29 44 -12 3 9 -2 11
-16 7 -18 -4 -19 -2 -13 19 4 13 13 27 19 31 8 6 7 8 -1 8 -7 0 -17 -9 -23
-19z"/>
<path d="M482 2065 c0 -16 2 -22 5 -12 2 9 2 23 0 30 -3 6 -5 -1 -5 -18z"/>
<path d="M1270 2075 c0 -8 9 -24 20 -35 11 -11 20 -16 20 -11 0 5 -7 14 -15
21 -9 7 -14 19 -11 27 3 7 1 13 -4 13 -6 0 -10 -7 -10 -15z"/>
<path d="M1880 2086 c0 -2 9 -6 20 -9 11 -3 18 -1 14 4 -5 9 -34 13 -34 5z"/>
<path d="M2230 2075 c-7 -8 -10 -25 -6 -40 5 -20 12 -25 34 -24 22 1 23 3 5 6
-26 5 -36 28 -23 54 13 23 7 25 -10 4z"/>
<path d="M2265 2080 c3 -5 8 -10 11 -10 2 0 4 5 4 10 0 6 -5 10 -11 10 -5 0
-7 -4 -4 -10z"/>
<path d="M2310 2045 c0 -25 3 -45 8 -45 4 0 7 20 7 45 0 25 -3 45 -7 45 -5 0
-8 -20 -8 -45z"/>
<path d="M2350 2080 c20 -13 33 -13 25 0 -3 6 -14 10 -23 10 -15 0 -15 -2 -2
-10z"/>
<path d="M2403 2083 c4 -3 7 -22 7 -44 0 -21 4 -39 8 -39 12 0 -1 83 -13 85
-5 1 -7 0 -2 -2z"/>
<path d="M4276 2071 c-10 -11 -16 -28 -13 -38 4 -17 5 -17 6 1 0 11 8 28 18
38 9 10 14 18 11 18 -3 0 -13 -9 -22 -19z"/>
<path d="M4705 2080 c-3 -6 1 -7 10 -4 8 4 23 0 33 -7 15 -13 16 -12 3 4 -15
19 -36 22 -46 7z"/>
<path d="M4823 2075 c-27 -19 -41 -79 -23 -100 17 -20 47 -19 58 3 14 26 -3
62 -30 62 -23 1 -22 1 5 25 31 28 24 34 -10 10z m25 -72 c-4 -35 -33 -43 -41
-12 -8 29 -1 39 24 39 16 0 20 -6 17 -27z"/>
<path d="M596 2053 c-6 -14 -5 -15 5 -6 7 7 10 15 7 18 -3 3 -9 -2 -12 -12z"/>
<path d="M1607 2063 c14 -3 23 -13 26 -31 4 -24 4 -24 6 6 1 29 -2 32 -26 31
-23 -1 -24 -2 -6 -6z"/>
<path d="M1693 2040 c-11 -29 -10 -30 15 -29 17 1 21 3 9 6 -12 3 -15 11 -11
29 9 34 1 30 -13 -6z"/>
<path d="M2622 2056 c7 -8 15 -12 17 -11 5 6 -10 25 -20 25 -5 0 -4 -6 3 -14z"/>
<path d="M3055 2060 c-3 -5 -1 -10 4 -10 6 0 11 5 11 10 0 6 -2 10 -4 10 -3 0
-8 -4 -11 -10z"/>
<path d="M3561 2056 c-18 -22 -10 -70 13 -74 10 -2 23 1 30 8 8 8 6 9 -8 4
-20 -8 -36 9 -36 39 0 23 29 34 42 16 8 -12 9 -11 5 1 -5 21 -31 24 -46 6z"/>
<path d="M3690 2022 l5 -47 3 39 c2 21 0 42 -5 47 -4 4 -6 -13 -3 -39z"/>
<path d="M1752 2040 c-7 -11 -8 -20 -3 -20 9 0 24 30 18 36 -1 2 -8 -6 -15
-16z"/>
<path d="M3183 2053 c9 -2 23 -2 30 0 6 3 -1 5 -18 5 -16 0 -22 -2 -12 -5z"/>
<path d="M3238 2053 c7 -3 16 -2 19 1 4 3 -2 6 -13 5 -11 0 -14 -3 -6 -6z"/>
<path d="M3638 2020 c-2 -22 -1 -40 3 -40 4 0 9 18 11 40 2 22 1 40 -3 40 -4
0 -9 -18 -11 -40z"/>
<path d="M3743 2020 c0 -25 2 -35 4 -22 2 12 2 32 0 45 -2 12 -4 2 -4 -23z"/>
<path d="M4057 2053 c-4 -3 -7 -11 -7 -17 0 -6 5 -5 12 2 6 6 9 14 7 17 -3 3
-9 2 -12 -2z"/>
<path d="M557 2039 c7 -7 15 -10 18 -7 3 3 -2 9 -12 12 -14 6 -15 5 -6 -5z"/>
<path d="M651 2023 c-10 -26 -10 -27 4 -9 8 11 15 23 15 28 0 15 -7 8 -19 -19z"/>
<path d="M1873 2043 c15 -2 37 -2 50 0 12 2 0 4 -28 4 -27 0 -38 -2 -22 -4z"/>
<path d="M2358 2027 c-4 -19 -1 -27 8 -27 15 0 16 6 5 35 -7 17 -8 17 -13 -8z"/>
<path d="M4960 2046 c0 -2 7 -9 15 -16 9 -7 15 -8 15 -2 0 5 -7 12 -15 16 -8
3 -15 4 -15 2z"/>
<path d="M4732 2033 c-10 -4 -9 -8 4 -18 22 -16 12 -42 -18 -48 -23 -5 -23 -5
1 -4 31 2 48 29 35 55 -5 10 -15 17 -22 15z"/>
<path d="M4934 2025 c-11 -26 5 -65 26 -65 10 0 21 4 24 8 3 5 -5 8 -17 8 -18
-1 -22 4 -22 32 0 35 -3 40 -11 17z"/>
<path d="M5015 2000 c0 -22 3 -40 8 -40 4 0 7 16 7 35 0 28 4 35 19 35 15 0
21 -9 24 -37 l4 -38 -1 40 c-1 37 -3 40 -31 43 -29 3 -30 1 -30 -38z"/>
<path d="M5109 2032 c8 -6 12 -22 9 -44 -2 -21 1 -35 7 -35 17 0 3 80 -15 84
-12 4 -13 3 -1 -5z"/>
<path d="M490 2020 c0 -5 5 -10 11 -10 5 0 7 5 4 10 -3 6 -8 10 -11 10 -2 0
-4 -4 -4 -10z"/>
<path d="M4598 2023 c6 -2 18 -2 25 0 6 3 1 5 -13 5 -14 0 -19 -2 -12 -5z"/>
<path d="M5325 2019 c-11 -16 -1 -19 13 -3 7 8 8 14 3 14 -5 0 -13 -5 -16 -11z"/>
<path d="M2088 2013 c7 -3 16 -2 19 1 4 3 -2 6 -13 5 -11 0 -14 -3 -6 -6z"/>
<path d="M3193 2013 c15 -2 37 -2 50 0 12 2 0 4 -28 4 -27 0 -38 -2 -22 -4z"/>
<path d="M4396 2005 c-3 -9 -6 -22 -5 -28 0 -7 5 -1 10 12 5 13 8 26 5 28 -2
2 -6 -3 -10 -12z"/>
<path d="M1093 2003 c15 -2 37 -2 50 0 12 2 0 4 -28 4 -27 0 -38 -2 -22 -4z"/>
<path d="M3060 2000 l-25 -8 28 -1 c15 -1 27 4 27 9 0 6 -1 10 -2 9 -2 -1 -14
-5 -28 -9z"/>
<path d="M3320 1988 c0 -9 59 -7 65 2 2 3 -12 5 -31 6 -19 0 -34 -3 -34 -8z"/>
<path d="M3420 1989 c0 -5 9 -9 20 -9 11 0 20 2 20 4 0 2 -9 6 -20 9 -11 3
-20 1 -20 -4z"/>
<path d="M4003 1984 c0 -7 4 -11 8 -8 5 3 20 -3 33 -12 14 -9 29 -14 34 -12 4
1 -10 13 -33 24 -31 16 -42 18 -42 8z"/>
<path d="M4460 1985 c-7 -9 -8 -15 -2 -15 5 0 12 7 16 15 3 8 4 15 2 15 -2 0
-9 -7 -16 -15z"/>
<path d="M4573 1993 c15 -2 37 -2 50 0 12 2 0 4 -28 4 -27 0 -38 -2 -22 -4z"/>
<path d="M1036 1641 c-9 -10 -19 -36 -22 -57 l-4 -39 14 43 c8 23 20 49 26 57
18 22 6 18 -14 -4z"/>
<path d="M1149 1633 c6 -12 11 -38 11 -58 0 -20 -5 -46 -11 -58 -10 -21 -10
-21 5 -3 9 11 16 38 16 61 0 23 -7 50 -16 61 -15 18 -15 18 -5 -3z"/>
<path d="M1640 1630 c0 -6 7 -10 15 -10 8 0 15 2 15 4 0 2 -7 6 -15 10 -8 3
-15 1 -15 -4z"/>
<path d="M1930 1636 c0 -2 14 -6 30 -8 17 -3 30 -1 30 4 0 4 -13 8 -30 8 -16
0 -30 -2 -30 -4z"/>
<path d="M2490 1631 c0 -5 9 -7 20 -4 11 3 20 7 20 9 0 2 -9 4 -20 4 -11 0
-20 -4 -20 -9z"/>
<path d="M2731 1623 c-16 -17 -12 -23 11 -14 10 3 14 11 10 17 -5 9 -11 8 -21
-3z"/>
<path d="M1598 1623 c7 -3 16 -2 19 1 4 3 -2 6 -13 5 -11 0 -14 -3 -6 -6z"/>
<path d="M1693 1623 c9 -2 23 -2 30 0 6 3 -1 5 -18 5 -16 0 -22 -2 -12 -5z"/>
<path d="M1891 1604 c-12 -15 -21 -35 -21 -45 0 -26 28 -49 58 -48 l27 2 -25
4 c-14 3 -31 10 -37 15 -15 12 -7 55 15 81 8 9 12 17 9 17 -3 0 -15 -12 -26
-26z"/>
<path d="M2040 1619 c0 -5 5 -7 10 -4 6 3 10 8 10 11 0 2 -4 4 -10 4 -5 0 -10
-5 -10 -11z"/>
<path d="M2093 1619 c35 -21 15 -84 -33 -102 -13 -5 -13 -6 1 -6 23 -1 59 41
59 70 0 26 -16 49 -34 49 -6 0 -3 -5 7 -11z"/>
<path d="M2253 1613 c-8 -3 -12 -20 -11 -41 l1 -37 4 33 c3 24 9 32 24 32 14
0 19 -7 19 -27 0 -20 3 -24 9 -14 19 30 -11 65 -46 54z"/>
<path d="M2320 1609 c0 -5 5 -7 10 -4 6 3 10 8 10 11 0 2 -4 4 -10 4 -5 0 -10
-5 -10 -11z"/>
<path d="M2673 1565 c0 -36 2 -45 4 -23 4 36 5 36 49 36 35 0 44 -3 40 -14 -3
-8 -2 -14 3 -14 9 0 21 33 21 58 0 6 -4 12 -10 12 -5 0 -7 -7 -4 -15 5 -12 -4
-15 -44 -15 -40 0 -52 4 -55 18 -3 9 -4 -10 -4 -43z"/>
<path d="M1088 1570 c2 -22 6 -40 8 -40 2 0 4 18 4 40 0 22 -3 40 -8 40 -4 0
-6 -18 -4 -40z"/>
<path d="M1640 1579 c0 -16 4 -28 9 -25 8 5 3 56 -5 56 -2 0 -4 -14 -4 -31z"/>
<path d="M2392 1585 c0 -16 2 -22 5 -12 2 9 2 23 0 30 -3 6 -5 -1 -5 -18z"/>
<path d="M2491 1588 c1 -17 3 -18 6 -6 3 12 17 18 46 21 l42 4 -47 1 c-44 2
-48 0 -47 -20z"/>
<path d="M2022 1571 c-6 -17 -7 -31 -3 -31 10 0 25 50 18 57 -3 2 -9 -10 -15
-26z"/>
<path d="M2480 1552 c0 -4 18 -6 40 -4 22 2 40 6 40 8 0 2 -18 4 -40 4 -22 0
-40 -3 -40 -8z"/>
<path d="M2577 1541 c-4 -17 -3 -21 5 -13 5 5 8 16 6 23 -3 8 -7 3 -11 -10z"/>
<path d="M1020 1533 c0 -6 8 -17 18 -24 16 -13 16 -13 2 6 -8 11 -16 22 -17
24 -2 2 -3 0 -3 -6z"/>
<path d="M1580 1530 c-9 -6 -10 -10 -3 -10 6 0 15 5 18 10 8 12 4 12 -15 0z"/>
<path d="M1638 1517 c-3 -19 -2 -25 4 -19 6 6 8 18 6 28 -3 14 -5 12 -10 -9z"/>
<path d="M2290 1524 c0 -12 -7 -15 -25 -12 -14 3 -25 1 -25 -3 0 -5 14 -9 30
-9 23 0 30 4 30 20 0 11 -2 20 -5 20 -3 0 -5 -7 -5 -16z"/>
<path d="M2005 1520 c-4 -6 3 -10 14 -10 25 0 27 6 6 13 -8 4 -17 2 -20 -3z"/>
<path d="M2381 1514 c0 -11 3 -14 6 -6 3 7 2 16 -1 19 -3 4 -6 -2 -5 -13z"/>
<path d="M2530 1526 c0 -2 7 -9 15 -16 9 -7 15 -8 15 -2 0 5 -7 12 -15 16 -8
3 -15 4 -15 2z"/>
<path d="M2733 1514 c9 -11 15 -23 12 -26 -3 -2 1 -5 8 -6 6 0 23 -3 37 -7
l25 -6 -24 11 c-23 10 -23 11 -6 30 10 11 15 20 10 20 -4 0 -14 -8 -20 -17
-12 -17 -15 -17 -37 2 l-23 20 18 -21z"/>
<path d="M2498 1493 c-10 -2 -18 -9 -18 -14 0 -6 8 -5 20 1 11 6 20 13 20 15
0 3 -1 4 -2 4 -2 -1 -11 -3 -20 -6z"/>
<path d="M2582 1484 c10 -10 20 -16 22 -13 3 3 -5 11 -17 18 -21 13 -21 12 -5
-5z"/>
<path d="M2355 1480 c4 -6 11 -8 16 -5 14 9 11 15 -7 15 -8 0 -12 -5 -9 -10z"/>
<path d="M1026 1171 c-10 -11 -16 -26 -13 -33 4 -10 6 -10 6 1 1 8 8 23 18 33
9 10 14 18 11 18 -3 0 -13 -9 -22 -19z"/>
<path d="M1130 1179 c0 -5 5 -7 10 -4 6 3 10 8 10 11 0 2 -4 4 -10 4 -5 0 -10
-5 -10 -11z"/>
<path d="M1676 1177 c3 -10 9 -15 12 -12 3 3 0 11 -7 18 -10 9 -11 8 -5 -6z"/>
<path d="M1705 1160 c-3 -5 -1 -10 4 -10 6 0 11 5 11 10 0 6 -2 10 -4 10 -3 0
-8 -4 -11 -10z"/>
<path d="M1937 1151 c-3 -11 -2 -19 2 -17 4 3 15 -16 24 -41 l17 -45 -45 4
c-25 2 -45 0 -45 -4 0 -5 23 -8 51 -8 57 0 56 -4 19 89 -14 37 -18 41 -23 22z"/>
<path d="M2124 1158 c-4 -6 -8 -29 -10 -51 -2 -22 -5 -46 -8 -54 -3 -7 -1 -13
4 -13 6 0 10 8 11 18 0 9 4 38 8 65 8 49 7 55 -5 35z"/>
<path d="M2194 1138 c-1 -32 -1 -32 14 -1 9 16 9 22 -1 26 -8 3 -12 -6 -13
-25z"/>
<path d="M2577 1150 c-12 -15 -17 -36 -15 -78 1 -34 3 -44 5 -25 3 19 11 34
21 36 15 4 15 5 0 6 -18 1 -27 41 -9 41 5 0 11 9 14 20 6 25 6 25 -16 0z"/>
<path d="M2845 1159 c-49 -3 -65 -6 -40 -8 71 -5 141 1 124 12 -2 1 -40 -1
-84 -4z"/>
<path d="M3012 1158 c-7 -7 -12 -18 -12 -24 0 -7 -8 -15 -17 -17 -17 -4 -17
-5 0 -6 13 -1 17 -6 12 -20 -3 -11 -1 -22 5 -26 6 -4 10 5 10 21 0 21 4 25 20
21 11 -3 18 -1 14 4 -3 5 -12 9 -20 9 -17 0 -19 27 -1 33 6 2 9 7 6 10 -3 4
-11 1 -17 -5z"/>
<path d="M2258 1150 c30 -34 8 -85 -48 -110 -24 -10 -24 -10 5 -5 38 7 65 39
65 75 0 15 -8 34 -17 41 -15 11 -16 11 -5 -1z"/>
<path d="M2323 1095 l-21 -65 44 0 c24 0 44 4 44 8 0 4 -16 6 -35 4 -39 -5
-40 -4 -23 35 6 15 10 32 9 36 0 4 3 17 9 27 6 11 7 20 2 20 -4 0 -17 -29 -29
-65z"/>
<path d="M2380 1156 c0 -2 7 -6 15 -10 8 -3 15 -1 15 4 0 6 -7 10 -15 10 -8 0
-15 -2 -15 -4z"/>
<path d="M3080 1150 c-13 -8 -12 -10 3 -10 9 0 17 5 17 10 0 12 -1 12 -20 0z"/>
<path d="M1199 1100 c-6 -65 -5 -71 8 -33 5 15 6 42 3 58 -5 25 -7 21 -11 -25z"/>
<path d="M1075 1100 c0 -22 3 -40 8 -40 4 0 7 18 7 40 0 22 -3 40 -7 40 -5 0
-8 -18 -8 -40z"/>
<path d="M1130 1100 c0 -22 3 -40 8 -40 4 0 6 18 4 40 -2 22 -6 40 -8 40 -2 0
-4 -18 -4 -40z"/>
<path d="M2612 1115 c0 -16 2 -22 5 -12 2 9 2 23 0 30 -3 6 -5 -1 -5 -18z"/>
<path d="M2708 1087 c-4 -32 -12 -65 -19 -73 -8 -9 -8 -14 -1 -14 15 0 34 73
30 113 -2 23 -5 16 -10 -26z"/>
<path d="M2817 1118 c-7 -4 2 -8 21 -8 34 0 44 -15 15 -23 -17 -4 -17 -5 0 -6
14 -1 17 -6 12 -23 -5 -18 -4 -20 4 -8 6 8 11 25 11 38 0 12 6 22 15 22 10 0
15 -16 18 -57 l3 -58 2 61 2 62 -46 4 c-25 2 -51 0 -57 -4z"/>
<path d="M3073 1123 c15 -2 37 -2 50 0 12 2 0 4 -28 4 -27 0 -38 -2 -22 -4z"/>
<path d="M1001 1105 c0 -11 6 -33 14 -50 l14 -30 -6 30 c-3 17 -10 39 -14 50
l-8 20 0 -20z"/>
<path d="M2780 1105 c0 -8 2 -15 4 -15 2 0 6 7 10 15 3 8 1 15 -4 15 -6 0 -10
-7 -10 -15z"/>
<path d="M3083 1103 c9 -2 23 -2 30 0 6 3 -1 5 -18 5 -16 0 -22 -2 -12 -5z"/>
<path d="M2176 1074 c-4 -14 -5 -28 -3 -31 3 -2 8 8 11 23 4 14 5 28 3 31 -3
2 -8 -8 -11 -23z"/>
<path d="M3050 1054 c0 -34 14 -52 25 -34 3 5 1 10 -4 10 -14 0 -14 33 -1 46
7 7 6 11 -5 11 -10 0 -15 -10 -15 -33z"/>
<path d="M3116 1063 c10 -40 14 -41 14 -5 0 18 -5 32 -10 32 -6 0 -8 -11 -4
-27z"/>
<path d="M1574 1064 c-18 -14 -18 -15 4 -4 12 6 22 13 22 15 0 8 -5 6 -26 -11z"/>
<path d="M1628 1050 c-3 -16 -1 -30 4 -30 4 0 8 14 8 30 0 17 -2 30 -4 30 -2
0 -6 -13 -8 -30z"/>
<path d="M1660 1076 c0 -2 7 -9 15 -16 9 -7 15 -8 15 -2 0 5 -7 12 -15 16 -8
3 -15 4 -15 2z"/>
<path d="M2612 1050 c0 -19 2 -27 5 -17 2 9 2 25 0 35 -3 9 -5 1 -5 -18z"/>
<path d="M2040 1055 c-7 -9 -8 -15 -2 -15 5 0 12 7 16 15 3 8 4 15 2 15 -2 0
-9 -7 -16 -15z"/>
<path d="M3001 1004 c0 -11 3 -14 6 -6 3 7 2 16 -1 19 -3 4 -6 -2 -5 -13z"/>
<path d="M1930 669 c0 -5 5 -7 10 -4 6 3 10 8 10 11 0 2 -4 4 -10 4 -5 0 -10
-5 -10 -11z"/>
<path d="M1701 648 c1 -17 2 -19 6 -5 5 18 20 21 47 11 22 -8 21 -62 -1 -88
-18 -21 -18 -21 5 -2 29 25 31 81 3 96 -35 18 -61 13 -60 -12z"/>
<path d="M2113 663 c9 -2 25 -2 35 0 9 3 1 5 -18 5 -19 0 -27 -2 -17 -5z"/>
<path d="M1235 651 c11 -18 8 -87 -5 -110 -6 -12 -8 -21 -5 -21 3 0 13 16 21
36 16 37 11 88 -8 100 -7 5 -8 2 -3 -5z"/>
<path d="M1613 648 c-4 -7 -6 -23 -5 -35 2 -16 -3 -23 -20 -26 l-23 -4 23 -2
c23 -1 31 -26 10 -34 -7 -3 -4 -6 7 -6 18 -1 20 6 21 59 0 64 0 67 -13 48z"/>
<path d="M2341 627 c-14 -18 -18 -26 -11 -19 21 18 30 15 30 -13 0 -20 -5 -25
-25 -25 -21 0 -25 -5 -25 -30 0 -27 3 -30 33 -29 30 2 30 2 5 6 -20 3 -28 10
-28 24 0 14 7 19 28 19 26 0 27 2 27 50 0 28 -2 50 -5 49 -3 0 -16 -14 -29
-32z"/>
<path d="M2408 653 c6 -2 18 -2 25 0 6 3 1 5 -13 5 -14 0 -19 -2 -12 -5z"/>
<path d="M2920 625 c0 -19 2 -35 4 -35 2 0 6 16 8 35 2 19 0 35 -4 35 -4 0 -8
-16 -8 -35z"/>
<path d="M2513 642 c33 -4 34 -11 5 -47 l-21 -27 22 13 c12 8 24 24 27 36 4
14 15 23 32 26 15 2 0 3 -33 3 -33 0 -48 -1 -32 -4z"/>
<path d="M2950 628 c-2 -30 -3 -61 -1 -80 1 -9 4 -10 9 -2 4 6 14 14 22 17 12
4 11 6 -2 6 -10 1 -18 5 -18 10 0 5 8 12 18 14 15 4 15 5 0 6 -10 1 -18 12
-21 29 l-4 27 -3 -27z"/>
<path d="M2991 634 c0 -11 3 -14 6 -6 3 7 2 16 -1 19 -3 4 -6 -2 -5 -13z"/>
<path d="M1069 598 c-3 -30 0 -48 6 -48 7 0 9 15 7 38 -6 58 -9 61 -13 10z"/>
<path d="M1123 605 c0 -22 2 -30 4 -17 2 12 2 30 0 40 -3 9 -5 -1 -4 -23z"/>
<path d="M3256 626 c3 -7 -4 -36 -15 -65 -14 -38 -16 -51 -6 -51 7 0 13 6 12
13 -1 42 3 49 28 45 14 -3 25 -1 25 3 0 5 -9 9 -21 9 -15 0 -19 4 -15 16 3 9
6 20 6 26 0 7 14 8 35 5 21 -3 33 -2 30 4 -4 5 -24 9 -45 9 -29 0 -38 -4 -34
-14z"/>
<path d="M3654 618 l-19 -23 23 19 c21 18 27 26 19 26 -2 0 -12 -10 -23 -22z"/>
<path d="M3710 610 c0 -28 2 -30 38 -28 36 1 36 1 5 5 -38 5 -44 20 -10 26
l22 4 -23 2 c-13 0 -20 6 -17 11 3 6 1 10 -4 10 -6 0 -11 -13 -11 -30z"/>
<path d="M4231 624 c0 -11 3 -14 6 -6 3 7 2 16 -1 19 -3 4 -6 -2 -5 -13z"/>
<path d="M3518 623 c21 -8 13 -23 -13 -23 -14 0 -25 -4 -25 -9 0 -4 11 -6 25
-3 17 3 25 0 25 -9 0 -10 3 -11 8 -3 4 7 16 14 27 17 18 4 18 5 -2 6 -13 1
-23 7 -23 16 0 8 -8 15 -17 14 -11 0 -13 -3 -5 -6z"/>
<path d="M3563 623 c9 -2 23 -2 30 0 6 3 -1 5 -18 5 -16 0 -22 -2 -12 -5z"/>
<path d="M3991 608 c-5 -13 -16 -42 -24 -65 l-15 -43 26 1 c19 1 21 3 9 6 -11
3 -16 10 -13 20 3 8 6 19 6 25 0 6 9 8 20 5 11 -3 20 -1 20 4 0 5 -7 9 -15 9
-30 0 -13 44 20 53 18 4 18 5 -3 6 -15 1 -25 -7 -31 -21z"/>
<path d="M4188 623 c7 -3 16 -2 19 1 4 3 -2 6 -13 5 -11 0 -14 -3 -6 -6z"/>
<path d="M4311 615 c-1 -11 -4 -33 -6 -50 -3 -24 -2 -27 6 -12 6 9 8 32 6 50
-2 17 -5 23 -6 12z"/>
<path d="M4681 543 c2 -92 6 -82 11 25 2 34 0 62 -4 62 -5 0 -7 -39 -7 -87z"/>
<path d="M4828 613 c-2 -10 -1 -36 3 -58 6 -37 6 -36 8 18 1 57 -3 73 -11 40z"/>
<path d="M4916 615 c-9 -26 -7 -32 5 -12 6 10 9 21 6 23 -2 3 -7 -2 -11 -11z"/>
<path d="M991 604 c0 -11 3 -14 6 -6 3 7 2 16 -1 19 -3 4 -6 -2 -5 -13z"/>
<path d="M1170 587 c0 -20 4 -37 8 -37 9 0 7 58 -2 67 -3 4 -6 -10 -6 -30z"/>
<path d="M1677 580 l-15 -40 36 1 c29 2 31 3 10 6 -24 4 -26 6 -17 35 13 46 5
45 -14 -2z"/>
<path d="M1931 588 c2 -28 2 -29 6 -8 3 14 10 28 17 32 7 5 5 8 -6 8 -14 0
-18 -8 -17 -32z"/>
<path d="M1988 613 c7 -3 16 -2 19 1 4 3 -2 6 -13 5 -11 0 -14 -3 -6 -6z"/>
<path d="M2108 613 c7 -3 16 -2 19 1 4 3 -2 6 -13 5 -11 0 -14 -3 -6 -6z"/>
<path d="M2417 599 c12 -12 25 -20 28 -17 3 3 -7 13 -22 23 l-28 17 22 -23z"/>
<path d="M3030 590 c0 -16 4 -30 9 -30 4 0 6 11 4 24 -4 19 0 25 18 29 22 4
22 4 -3 6 -25 1 -28 -3 -28 -29z"/>
<path d="M3442 595 c-6 -14 -7 -25 -2 -25 9 0 25 39 18 46 -3 2 -10 -7 -16
-21z"/>
<path d="M4500 598 c0 -13 -3 -34 -5 -48 -3 -14 -3 -19 1 -12 3 6 14 12 24 12
10 0 21 4 24 9 4 5 -3 7 -15 4 -17 -5 -20 -2 -17 18 2 20 9 24 36 24 17 0 32
3 32 7 0 5 -18 8 -40 8 -35 0 -40 -3 -40 -22z"/>
<path d="M4770 594 c0 -15 3 -23 8 -18 4 5 10 11 13 14 4 3 1 11 -7 18 -12 11
-14 8 -14 -14z"/>
<path d="M5102 590 c0 -19 2 -27 5 -17 2 9 2 25 0 35 -3 9 -5 1 -5 -18z"/>
<path d="M5340 613 c0 -6 6 -14 13 -17 10 -5 10 -7 0 -12 -15 -7 -17 -24 -4
-24 17 0 22 34 6 49 -9 9 -15 11 -15 4z"/>
<path d="M5601 563 c1 -62 6 -56 11 15 2 23 0 42 -4 42 -5 0 -7 -26 -7 -57z"/>
<path d="M2588 603 c12 -2 30 -2 40 0 9 3 -1 5 -23 4 -22 0 -30 -2 -17 -4z"/>
<path d="M3671 587 c-7 -13 -11 -43 -8 -68 l4 -44 1 51 c1 27 7 55 14 62 6 6
9 14 7 17 -3 3 -11 -5 -18 -18z"/>
<path d="M2290 590 c-9 -6 -10 -10 -3 -10 6 0 15 5 18 10 8 12 4 12 -15 0z"/>
<path d="M4723 593 c9 -2 14 -9 11 -15 -4 -7 -2 -8 4 -4 20 12 13 26 -10 25
-18 -1 -19 -2 -5 -6z"/>
<path d="M5043 565 c0 -22 2 -30 4 -17 2 12 2 30 0 40 -3 9 -5 -1 -4 -23z"/>
<path d="M2151 560 c0 -19 3 -30 7 -23 4 6 21 13 37 16 l30 4 -32 2 c-21 0
-33 7 -36 19 -3 9 -5 1 -6 -18z"/>
<path d="M2218 583 c7 -3 16 -2 19 1 4 3 -2 6 -13 5 -11 0 -14 -3 -6 -6z"/>
<path d="M2723 583 c15 -2 37 -2 50 0 12 2 0 4 -28 4 -27 0 -38 -2 -22 -4z"/>
<path d="M2823 583 c9 -2 25 -2 35 0 9 3 1 5 -18 5 -19 0 -27 -2 -17 -5z"/>
<path d="M4893 555 c0 -22 2 -30 4 -17 2 12 2 30 0 40 -3 9 -5 -1 -4 -23z"/>
<path d="M4941 575 c1 -11 1 -35 0 -54 -1 -30 -3 -33 -26 -29 -14 3 -25 2 -25
-2 0 -4 13 -10 29 -12 28 -4 29 -3 33 39 2 24 0 51 -4 61 -7 15 -8 14 -7 -3z"/>
<path d="M5310 565 c0 -14 4 -25 9 -25 4 0 6 11 3 25 -2 14 -6 25 -8 25 -2 0
-4 -11 -4 -25z"/>
<path d="M5434 579 c-3 -5 6 -9 20 -9 31 0 34 6 6 13 -11 3 -23 1 -26 -4z"/>
<path d="M5556 573 c-6 -14 -5 -15 5 -6 7 7 10 15 7 18 -3 3 -9 -2 -12 -12z"/>
<path d="M6039 573 c-13 -16 -12 -17 3 -4 20 15 48 8 48 -12 0 -8 -10 -27 -22
-43 l-22 -29 22 19 c28 24 37 53 22 71 -16 20 -35 19 -51 -2z"/>
<path d="M6145 580 c-3 -6 1 -7 9 -4 9 4 18 -1 22 -10 3 -9 10 -13 16 -10 12
7 -10 34 -28 34 -7 0 -16 -4 -19 -10z"/>
<path d="M6642 576 c7 -8 15 -12 17 -11 5 6 -10 25 -20 25 -5 0 -4 -6 3 -14z"/>
<path d="M6856 577 c3 -10 9 -15 12 -12 3 3 0 11 -7 18 -10 9 -11 8 -5 -6z"/>
<path d="M6957 570 c-3 -11 -1 -23 4 -26 5 -3 9 6 9 20 0 31 -6 34 -13 6z"/>
<path d="M7060 570 c-15 -27 -12 -37 3 -15 8 10 19 15 25 11 6 -3 13 -2 16 3
3 5 -3 11 -14 14 -13 3 -24 -1 -30 -13z"/>
<path d="M7286 581 c-12 -5 -15 -10 -9 -14 6 -4 16 0 23 8 14 17 13 17 -14 6z"/>
<path d="M997 560 c3 -10 11 -24 19 -31 10 -8 10 -3 -2 20 -18 35 -24 40 -17
11z"/>
<path d="M2570 576 c0 -2 14 -6 30 -8 17 -3 30 -1 30 4 0 4 -13 8 -30 8 -16 0
-30 -2 -30 -4z"/>
<path d="M5180 569 c0 -5 11 -9 25 -9 14 0 25 2 25 4 0 2 -11 6 -25 8 -14 3
-25 1 -25 -3z"/>
<path d="M5377 560 c-3 -11 -1 -20 4 -20 5 0 9 9 9 20 0 11 -2 20 -4 20 -2 0
-6 -9 -9 -20z"/>
<path d="M5405 569 c-4 -6 -5 -12 -2 -15 2 -3 7 2 10 11 7 17 1 20 -8 4z"/>
<path d="M5650 576 c0 -3 9 -10 20 -16 11 -6 20 -8 20 -6 0 3 -9 10 -20 16
-11 6 -20 8 -20 6z"/>
<path d="M7139 571 c10 -7 11 -13 2 -30 -7 -11 -9 -21 -6 -21 3 0 0 -10 -6
-22 -7 -14 -7 -19 -1 -13 6 6 17 29 25 53 14 41 14 42 -7 42 -15 0 -17 -3 -7
-9z"/>
<path d="M7201 564 c0 -11 3 -14 6 -6 3 7 2 16 -1 19 -3 4 -6 -2 -5 -13z"/>
<path d="M7330 563 c0 -15 2 -16 10 -3 9 13 11 13 20 0 5 -8 10 -25 10 -37 0
-13 5 -23 10 -23 6 0 10 -4 10 -10 0 -17 -28 -11 -32 8 -3 14 -5 13 -10 -5 -6
-21 -3 -23 35 -23 31 0 38 3 27 10 -13 9 -13 11 0 20 12 8 11 10 -7 10 -16 0
-23 6 -23 19 0 11 3 21 8 24 4 2 1 2 -5 1 -7 -2 -13 1 -13 6 0 5 8 11 18 13 9
3 0 5 -20 6 -30 1 -38 -3 -38 -16z"/>
<path d="M7500 561 c-5 -11 -9 -48 -8 -83 l1 -63 6 70 c3 39 10 76 14 83 5 6
6 12 3 12 -3 0 -10 -9 -16 -19z"/>
<path d="M7540 560 c-9 -17 -8 -20 11 -20 19 0 21 -4 17 -60 -1 -33 0 -60 5
-60 4 0 7 29 7 65 0 53 -3 65 -16 65 -10 0 -14 6 -10 15 8 22 -1 18 -14 -5z"/>
<path d="M7768 555 c-3 -13 -2 -22 2 -20 11 7 20 45 10 45 -4 0 -10 -11 -12
-25z"/>
<path d="M7987 567 c-4 -11 -13 -15 -24 -11 -11 4 -14 3 -7 -3 6 -4 14 -15 17
-23 4 -12 6 -11 6 3 1 20 12 22 30 5 9 -9 12 -9 7 -1 -4 7 3 13 16 16 21 4 20
4 -4 6 -14 0 -28 6 -30 13 -3 8 -7 6 -11 -5z"/>
<path d="M2098 552 c-3 -11 0 -19 7 -19 7 0 10 8 7 19 -2 10 -6 18 -7 18 -1 0
-5 -8 -7 -18z"/>
<path d="M2407 549 c4 -12 0 -25 -8 -30 -11 -7 -10 -9 4 -9 12 0 17 8 17 30 0
17 -4 30 -9 30 -5 0 -7 -9 -4 -21z"/>
<path d="M3487 558 c2 -5 11 -8 19 -8 8 0 14 -6 14 -12 0 -10 2 -10 8 -1 4 6
21 13 37 15 20 3 12 5 -27 8 -31 3 -54 2 -51 -2z"/>
<path d="M3771 552 c-6 -11 -6 -24 0 -33 5 -8 9 -9 9 -2 0 6 8 14 18 16 16 4
16 5 0 6 -10 0 -18 6 -18 12 0 5 4 8 9 4 5 -3 12 -1 16 5 3 5 -1 10 -9 10 -8
0 -20 -8 -25 -18z"/>
<path d="M5120 530 c0 -22 2 -40 4 -40 2 0 6 18 8 40 2 22 0 40 -4 40 -5 0 -8
-18 -8 -40z"/>
<path d="M7899 547 c-11 -20 -11 -21 4 -8 14 11 20 11 32 1 13 -11 14 -10 9 3
-10 26 -33 28 -45 4z"/>
<path d="M1118 553 c7 -3 16 -2 19 1 4 3 -2 6 -13 5 -11 0 -14 -3 -6 -6z"/>
<path d="M1535 550 c-3 -5 -1 -10 4 -10 6 0 11 5 11 10 0 6 -2 10 -4 10 -3 0
-8 -4 -11 -10z"/>
<path d="M2530 541 c0 -25 6 -27 13 -6 4 8 2 17 -3 20 -6 4 -10 -3 -10 -14z"/>
<path d="M3066 545 c4 -8 8 -15 10 -15 2 0 4 7 4 15 0 8 -4 15 -10 15 -5 0 -7
-7 -4 -15z"/>
<path d="M4188 553 c7 -3 16 -2 19 1 4 3 -2 6 -13 5 -11 0 -14 -3 -6 -6z"/>
<path d="M5870 556 c0 -2 8 -10 18 -17 15 -13 16 -12 3 4 -13 16 -21 21 -21
13z"/>
<path d="M7692 552 c-8 -2 -11 -25 -10 -65 1 -37 3 -49 5 -28 4 29 7 32 29 28
13 -2 24 0 24 4 0 5 -11 9 -25 9 -18 0 -25 5 -25 19 0 15 8 21 33 23 30 3 30
4 7 9 -14 3 -31 4 -38 1z"/>
<path d="M8118 553 c6 -2 18 -2 25 0 6 3 1 5 -13 5 -14 0 -19 -2 -12 -5z"/>
<path d="M8159 529 c-21 -30 -21 -30 -1 -18 11 7 18 17 16 21 -3 5 5 12 18 17
16 7 18 10 6 10 -9 1 -27 -13 -39 -30z"/>
<path d="M2560 546 c0 -2 16 -6 35 -8 19 -2 35 0 35 4 0 4 -16 8 -35 8 -19 0
-35 -2 -35 -4z"/>
<path d="M4730 541 c0 -5 9 -7 20 -4 11 3 20 7 20 9 0 2 -9 4 -20 4 -11 0 -20
-4 -20 -9z"/>
<path d="M4779 533 c-1 -10 -1 -24 1 -32 1 -10 -6 -12 -24 -9 -14 3 -26 1 -26
-3 0 -5 14 -9 30 -9 28 0 30 3 30 35 0 36 -9 50 -11 18z"/>
<path d="M5751 534 c0 -11 3 -14 6 -6 3 7 2 16 -1 19 -3 4 -6 -2 -5 -13z"/>
<path d="M6292 538 c-25 -25 -8 -78 26 -78 9 0 6 6 -8 18 -17 14 -21 24 -15
41 5 18 12 21 32 16 16 -4 22 -2 18 5 -8 14 -38 13 -53 -2z"/>
<path d="M6374 524 c-1 -13 3 -24 9 -24 6 0 7 3 4 7 -4 3 -2 12 3 18 7 9 7 14
-2 18 -8 3 -14 -5 -14 -19z"/>
<path d="M6418 532 c5 -9 12 -24 15 -32 3 -9 6 -4 6 11 1 15 -6 29 -14 33 -12
4 -13 2 -7 -12z"/>
<path d="M6637 532 c-24 -27 -21 -36 4 -11 11 11 19 23 16 25 -2 2 -11 -4 -20
-14z"/>
<path d="M7083 515 c0 -22 2 -30 4 -17 2 12 2 30 0 40 -3 9 -5 -1 -4 -23z"/>
<path d="M7273 535 c-10 -11 -10 -14 0 -18 9 -3 9 -9 0 -24 -9 -16 -8 -20 3
-20 8 0 14 7 14 15 0 12 3 12 18 1 16 -13 16 -12 2 5 -8 10 -15 25 -16 33 -3
21 -7 23 -21 8z"/>
<path d="M7620 539 c0 -5 5 -7 10 -4 6 3 10 8 10 11 0 2 -4 4 -10 4 -5 0 -10
-5 -10 -11z"/>
<path d="M7829 498 c5 -54 7 -51 13 15 2 21 0 37 -7 37 -6 0 -8 -20 -6 -52z"/>
<path d="M4242 528 c3 -7 24 -14 47 -16 24 -2 40 1 37 6 -3 5 -19 7 -36 4 -18
-2 -30 0 -30 7 0 6 -5 11 -11 11 -6 0 -9 -6 -7 -12z"/>
<path d="M5102 520 c0 -14 2 -19 5 -12 2 6 2 18 0 25 -3 6 -5 1 -5 -13z"/>
<path d="M5336 525 c-3 -8 -1 -15 3 -15 5 0 11 7 15 15 3 8 1 15 -3 15 -5 0
-11 -7 -15 -15z"/>
<path d="M5626 504 c-15 -19 -22 -32 -15 -28 17 7 64 64 52 63 -4 0 -21 -16
-37 -35z"/>
<path d="M6167 533 c-2 -4 4 -16 15 -25 13 -14 18 -15 18 -4 0 16 -26 40 -33
29z"/>
<path d="M6853 533 c9 -2 23 -2 30 0 6 3 -1 5 -18 5 -16 0 -22 -2 -12 -5z"/>
<path d="M7178 533 c7 -3 16 -2 19 1 4 3 -2 6 -13 5 -11 0 -14 -3 -6 -6z"/>
<path d="M8193 521 c-3 -12 -12 -21 -19 -21 -8 0 -14 -4 -14 -10 0 -5 9 -10
21 -10 11 0 18 4 14 9 -3 5 2 16 10 25 10 10 12 17 4 21 -6 4 -13 -2 -16 -14z"/>
<path d="M1868 523 c7 -3 16 -2 19 1 4 3 -2 6 -13 5 -11 0 -14 -3 -6 -6z"/>
<path d="M1918 523 c6 -2 18 -2 25 0 6 3 1 5 -13 5 -14 0 -19 -2 -12 -5z"/>
<path d="M2008 523 c7 -3 16 -2 19 1 4 3 -2 6 -13 5 -11 0 -14 -3 -6 -6z"/>
<path d="M5781 500 c0 -20 -6 -41 -13 -48 -9 -9 -9 -12 0 -12 14 0 25 40 19
71 -3 17 -5 14 -6 -11z"/>
<path d="M6960 509 c0 -13 5 -31 10 -39 7 -11 8 -5 4 20 -8 43 -14 51 -14 19z"/>
<path d="M7053 495 c0 -22 2 -30 4 -17 2 12 2 30 0 40 -3 9 -5 -1 -4 -23z"/>
<path d="M2615 510 c-3 -5 -1 -10 4 -10 6 0 11 5 11 10 0 6 -2 10 -4 10 -3 0
-8 -4 -11 -10z"/>
<path d="M3505 510 c-3 -5 1 -10 10 -10 9 0 13 5 10 10 -3 6 -8 10 -10 10 -2
0 -7 -4 -10 -10z"/>
<path d="M4020 510 c-13 -8 -12 -10 3 -10 9 0 17 5 17 10 0 12 -1 12 -20 0z"/>
<path d="M4470 505 c-10 -12 -10 -15 4 -15 9 0 16 7 16 15 0 8 -2 15 -4 15 -2
0 -9 -7 -16 -15z"/>
<path d="M5198 513 c12 -2 30 -2 40 0 9 3 -1 5 -23 4 -22 0 -30 -2 -17 -4z"/>
<path d="M5375 486 c0 -19 3 -32 8 -29 4 2 7 17 7 34 0 16 -3 29 -7 29 -5 0
-8 -15 -8 -34z"/>
<path d="M6908 513 c6 -2 12 -15 12 -27 0 -12 -6 -28 -12 -35 -11 -11 -10 -13
2 -9 8 3 17 18 18 34 2 16 9 32 15 36 7 4 -1 7 -18 7 -16 0 -24 -3 -17 -6z"/>
<path d="M7160 471 c0 -56 11 -67 12 -12 1 24 6 31 22 32 20 1 20 2 1 6 -11 3
-23 10 -27 17 -4 6 -8 -13 -8 -43z"/>
<path d="M4202 494 c-7 -8 -8 -14 -3 -14 10 0 25 19 20 25 -2 1 -10 -3 -17
-11z"/>
<path d="M4831 493 c-1 -12 -7 -24 -13 -26 -10 -4 -10 -6 0 -6 15 -1 26 23 19
41 -3 7 -6 3 -6 -9z"/>
<path d="M5031 493 c-1 -14 -7 -23 -17 -23 -8 0 -12 -5 -8 -11 10 -17 37 15
31 37 -4 16 -5 15 -6 -3z"/>
<path d="M5423 503 c9 -2 25 -2 35 0 9 3 1 5 -18 5 -19 0 -27 -2 -17 -5z"/>
<path d="M6470 485 c0 -14 4 -25 9 -25 4 0 6 11 3 25 -2 14 -6 25 -8 25 -2 0
-4 -11 -4 -25z"/>
<path d="M7536 495 c-9 -26 -7 -32 5 -12 6 10 9 21 6 23 -2 3 -7 -2 -11 -11z"/>
<path d="M3550 490 c8 -5 22 -9 30 -9 10 0 8 3 -5 9 -27 12 -43 12 -25 0z"/>
<path d="M4280 496 c0 -3 9 -10 20 -16 11 -6 20 -8 20 -6 0 3 -9 10 -20 16
-11 6 -20 8 -20 6z"/>
<path d="M5330 488 c0 -4 9 -8 20 -8 11 0 20 4 20 8 0 4 -9 8 -20 8 -11 0 -20
-4 -20 -8z"/>
<path d="M7927 493 c-3 -5 6 -9 20 -10 19 -1 22 1 12 8 -17 11 -26 11 -32 2z"/>
<path d="M7989 488 c-12 -8 -12 -9 1 -5 8 2 23 0 33 -5 10 -5 21 -8 23 -5 10
10 -44 25 -57 15z"/>
<path d="M8371 484 c0 -11 3 -14 6 -6 3 7 2 16 -1 19 -3 4 -6 -2 -5 -13z"/>
<path d="M3740 486 c0 -2 7 -6 15 -10 8 -3 15 -1 15 4 0 6 -7 10 -15 10 -8 0
-15 -2 -15 -4z"/>
<path d="M6370 481 c0 -6 4 -13 10 -16 6 -3 7 1 4 9 -7 18 -14 21 -14 7z"/>
<path d="M5095 470 c-3 -5 -1 -10 4 -10 6 0 11 5 11 10 0 6 -2 10 -4 10 -3 0
-8 -4 -11 -10z"/>
<path d="M6030 469 c0 -5 13 -9 29 -9 17 0 32 4 35 9 3 5 -10 9 -29 9 -19 0
-35 -4 -35 -9z"/>
<path d="M6420 470 c0 -5 5 -10 10 -10 6 0 10 5 10 10 0 6 -4 10 -10 10 -5 0
-10 -4 -10 -10z"/>
<path d="M6881 463 c-1 -12 -7 -24 -13 -26 -10 -4 -10 -6 0 -6 15 -1 26 23 19
41 -3 7 -6 3 -6 -9z"/>
<path d="M7108 468 c5 -5 16 -8 23 -6 8 3 3 7 -10 11 -17 4 -21 3 -13 -5z"/>
<path d="M7616 467 c3 -10 9 -15 12 -12 3 3 0 11 -7 18 -10 9 -11 8 -5 -6z"/>
<path d="M8643 435 c0 -27 2 -38 4 -22 2 15 2 37 0 50 -2 12 -4 0 -4 -28z"/>
<path d="M5565 460 c-16 -7 -17 -9 -3 -9 9 -1 20 4 23 9 7 11 7 11 -20 0z"/>
<path d="M6148 463 c7 -3 16 -2 19 1 4 3 -2 6 -13 5 -11 0 -14 -3 -6 -6z"/>
<path d="M6615 450 c3 -5 8 -10 11 -10 2 0 4 5 4 10 0 6 -5 10 -11 10 -5 0 -7
-4 -4 -10z"/>
<path d="M7282 440 c0 -14 2 -19 5 -12 2 6 2 18 0 25 -3 6 -5 1 -5 -13z"/>
<path d="M7367 440 c3 -11 7 -20 8 -20 1 0 5 9 8 20 3 12 0 20 -8 20 -8 0 -11
-8 -8 -20z"/>
<path d="M7408 453 c7 -3 16 -2 19 1 4 3 -2 6 -13 5 -11 0 -14 -3 -6 -6z"/>
<path d="M7920 435 c0 -23 3 -25 50 -25 47 0 50 2 50 25 0 23 -3 25 -50 25
-47 0 -50 -2 -50 -25z m90 0 c0 -11 -11 -15 -40 -15 -29 0 -40 4 -40 15 0 11
11 15 40 15 29 0 40 -4 40 -15z"/>
<path d="M7088 433 c7 -3 16 -2 19 1 4 3 -2 6 -13 5 -11 0 -14 -3 -6 -6z"/>
<path d="M7812 424 c-7 -8 -8 -14 -3 -14 10 0 25 19 20 25 -2 1 -10 -3 -17
-11z"/>
<path d="M8171 424 c0 -11 3 -14 6 -6 3 7 2 16 -1 19 -3 4 -6 -2 -5 -13z"/>
<path d="M8110 420 c-9 -6 -10 -10 -3 -10 6 0 15 5 18 10 8 12 4 12 -15 0z"/>
<path d="M8642 355 c0 -16 2 -22 5 -12 2 9 2 23 0 30 -3 6 -5 -1 -5 -18z"/>
<path d="M8335 310 c3 -5 8 -10 11 -10 2 0 4 5 4 10 0 6 -5 10 -11 10 -5 0 -7
-4 -4 -10z"/>
<path d="M8644 175 c0 -82 2 -115 3 -72 2 43 2 110 0 150 -1 40 -3 5 -3 -78z"/>
<path d="M8042 298 c-20 -25 -23 -75 -8 -112 20 -49 27 -46 10 4 -12 34 -12
46 0 80 15 43 14 47 -2 28z"/>
<path d="M8110 288 c-37 -40 -19 -118 23 -102 35 13 28 74 -9 74 -21 0 -17 17
8 34 12 9 17 16 11 16 -7 0 -21 -10 -33 -22z m28 -65 c-2 -17 -9 -28 -18 -28
-9 0 -16 11 -18 28 -3 22 1 27 18 27 17 0 21 -5 18 -27z"/>
<path d="M8265 284 c-9 -15 -12 -23 -6 -20 11 7 35 46 28 46 -3 0 -12 -12 -22
-26z"/>
<path d="M8460 281 c7 -13 10 -43 8 -67 -2 -24 0 -40 4 -36 17 18 12 83 -8
108 -14 18 -15 18 -4 -5z"/>
<path d="M8365 260 c4 -6 -11 -11 -37 -11 l-43 -2 40 -6 c22 -3 43 -2 46 3 4
5 13 5 20 0 12 -6 12 -5 0 9 -14 18 -36 24 -26 7z"/>
<path d="M8269 183 c-13 -16 -12 -17 4 -4 9 7 17 15 17 17 0 8 -8 3 -21 -13z"/>
<path d="M8350 187 c0 -8 -8 -18 -17 -20 -17 -4 -17 -5 0 -6 18 -1 35 25 23
36 -3 4 -6 -1 -6 -10z"/>
</g>
</svg>
