<?xml version="1.0" standalone="no"?>
<!DOCTYPE svg PUBLIC "-//W3C//DTD SVG 20010904//EN"
 "http://www.w3.org/TR/2001/REC-SVG-20010904/DTD/svg10.dtd">
<svg version="1.0" xmlns="http://www.w3.org/2000/svg"
 width="1162.000000pt" height="333.000000pt" viewBox="0 0 1162.000000 333.000000"
 preserveAspectRatio="xMidYMid meet">
<metadata>
Created by potrace 1.16, written by Peter Selinger 2001-2019
</metadata>
<g transform="translate(0.000000,333.000000) scale(0.100000,-0.100000)"
fill="#000000" stroke="none">
<path d="M7674 3245 c-18 -15 -18 -15 9 -9 41 9 41 -34 -1 -78 l-26 -28 37 0
c19 0 39 5 42 10 4 6 -5 10 -21 10 l-27 0 21 23 c24 26 28 57 10 75 -15 15
-20 15 -44 -3z"/>
<path d="M9875 3200 l5 -30 -72 -2 -73 -2 70 -5 70 -6 7 -42 c7 -45 22 -78 46
-105 25 -29 38 -21 39 25 l1 42 -10 -34 c-9 -32 -10 -32 -28 -16 -10 9 -21 29
-24 44 -3 14 -8 41 -11 59 -7 32 -6 32 34 32 23 0 41 5 41 10 0 6 -15 8 -40 4
-40 -6 -40 -6 -40 25 0 17 -5 31 -10 31 -6 0 -8 -13 -5 -30z"/>
<path d="M10375 3192 c-17 -30 -20 -51 -17 -115 3 -69 6 -78 20 -71 9 4 28 7
40 8 32 1 84 66 53 66 -5 0 -12 -11 -15 -25 -7 -26 -20 -32 -31 -15 -4 6 -12
4 -21 -5 -19 -18 -34 -11 -34 16 0 16 6 20 28 17 25 -3 27 0 30 35 3 35 2 37
-27 37 -17 0 -31 5 -31 10 0 6 16 10 35 10 24 0 35 5 35 15 0 18 -5 18 -32 4
-11 -6 -22 -8 -25 -5 -3 3 4 9 16 14 18 6 20 10 9 25 -12 15 -15 13 -33 -21z
m40 -72 c-3 -5 -15 -10 -26 -10 -10 0 -19 5 -19 10 0 6 12 10 26 10 14 0 23
-4 19 -10z m0 -30 c4 -6 -5 -10 -19 -10 -14 0 -26 5 -26 10 0 6 9 10 19 10 11
0 23 -4 26 -10z"/>
<path d="M10494 3215 c-4 -11 -16 -31 -26 -44 -23 -31 -23 -41 2 -41 11 0 20
-3 21 -7 5 -60 19 -99 19 -55 0 18 6 22 31 22 16 0 28 4 25 9 -3 4 -17 6 -31
3 -18 -3 -25 0 -25 11 0 11 13 19 36 23 l36 7 -32 25 c-17 13 -35 34 -40 46
-8 21 -8 21 -16 1z m30 -44 c15 -17 15 -19 1 -25 -20 -7 -55 -8 -55 -1 0 9 25
45 31 45 3 0 14 -8 23 -19z"/>
<path d="M10781 3208 c-1 -24 -6 -28 -46 -34 -25 -3 -56 -3 -71 0 -17 5 -23 3
-19 -4 3 -5 35 -10 69 -10 l63 0 7 -51 c5 -38 15 -59 41 -87 29 -31 35 -34 35
-17 0 11 3 31 6 45 4 23 4 22 -8 -3 -13 -28 -13 -29 -31 -9 -18 20 -37 73 -37
104 0 14 8 18 35 18 19 0 35 5 35 10 0 6 -15 10 -34 10 -30 0 -35 4 -39 28
l-4 27 -2 -27z"/>
<path d="M10810 3221 c0 -5 7 -14 15 -21 12 -10 15 -10 15 3 0 8 -7 17 -15 21
-8 3 -15 2 -15 -3z"/>
<path d="M11077 3224 c-7 -7 29 -63 48 -76 6 -5 6 -8 -2 -8 -9 0 -13 -16 -13
-47 0 -59 -11 -78 -39 -70 -27 7 -27 1 0 -13 31 -17 47 3 55 66 5 46 9 54 24
49 10 -3 21 -1 25 5 3 5 1 10 -6 10 -20 0 -69 52 -69 72 0 18 -11 24 -23 12z"/>
<path d="M11440 3130 c0 -81 -3 -101 -16 -108 -12 -7 -13 -11 -4 -17 6 -4 15
-3 20 1 11 11 18 224 8 224 -5 0 -8 -45 -8 -100z"/>
<path d="M8850 3206 c0 -11 -10 -16 -31 -16 -17 0 -28 -4 -24 -10 3 -5 12 -7
20 -3 9 3 22 0 30 -7 9 -8 15 -9 15 -2 0 6 15 13 33 15 l32 4 -33 1 c-18 1
-31 6 -27 11 3 5 1 12 -5 16 -5 3 -10 -1 -10 -9z"/>
<path d="M9533 3208 c6 -16 -1 -18 -51 -19 -33 -1 -45 -4 -27 -6 17 -3 36 -9
43 -15 21 -18 13 -30 -18 -26 l-30 5 2 -81 c1 -66 2 -72 7 -36 4 32 11 46 24
48 13 3 17 -4 17 -32 0 -28 3 -34 15 -30 12 5 13 10 4 20 -15 18 -3 34 27 34
17 0 24 -5 24 -19 0 -11 5 -23 10 -26 6 -4 10 7 10 24 0 30 -2 31 -44 31 -43
0 -44 0 -33 25 14 30 47 34 47 5 0 -17 7 -20 40 -20 39 0 40 -1 40 -35 0 -27
-5 -38 -22 -44 -19 -7 -19 -8 -4 -14 30 -12 36 1 36 77 l0 72 -36 -4 c-34 -4
-35 -3 -22 17 8 13 23 21 40 21 16 0 28 4 28 9 0 5 -20 6 -45 3 -35 -4 -50 0
-67 14 -19 17 -21 17 -15 2z m47 -32 c0 -20 -16 -36 -36 -36 -13 0 -24 2 -24
4 0 2 -3 11 -6 20 -5 13 1 16 30 16 20 0 36 -2 36 -4z m-76 -61 c-4 -9 -15
-20 -25 -26 -16 -8 -19 -6 -19 16 0 20 5 25 25 25 18 0 23 -4 19 -15z m134 3
c-3 -7 -17 -13 -33 -13 -16 0 -30 6 -32 13 -3 8 7 12 32 12 25 0 35 -4 33 -12z"/>
<path d="M9920 3205 c7 -8 17 -15 22 -15 6 0 5 7 -2 15 -7 8 -17 15 -22 15 -6
0 -5 -7 2 -15z"/>
<path d="M10130 3210 c-75 -6 -62 -15 18 -10 43 2 50 -7 36 -44 -9 -23 -74
-22 -75 2 -1 9 -5 -7 -9 -36 -5 -32 -18 -66 -35 -88 -15 -19 -25 -37 -22 -40
9 -9 67 80 67 103 0 13 5 23 10 23 6 0 10 -5 10 -11 0 -6 9 -24 21 -40 l21
-29 -54 -25 c-29 -14 -47 -25 -39 -25 8 0 35 10 59 21 l44 22 41 -22 c25 -13
44 -18 50 -12 5 5 -6 14 -30 21 -21 7 -41 15 -46 17 -4 2 6 24 23 48 16 24 30
46 30 49 0 3 -12 6 -26 6 -25 0 -25 2 -19 40 4 22 5 39 3 38 -1 -1 -37 -4 -78
-8z m85 -109 c-21 -42 -35 -48 -57 -21 -30 37 -23 50 27 50 l46 0 -16 -29z"/>
<path d="M10990 3180 c-12 -23 -27 -43 -35 -47 -8 -3 -15 -9 -15 -14 0 -6 7
-6 18 -1 9 5 24 7 32 5 13 -4 13 -3 1 5 -12 9 -10 16 12 46 15 19 23 37 17 41
-5 3 -19 -13 -30 -35z"/>
<path d="M11260 3174 c0 -27 4 -43 10 -39 6 4 10 -11 10 -38 0 -31 -6 -49 -20
-62 -11 -10 -20 -23 -20 -29 1 -23 50 46 50 70 0 13 4 24 9 24 5 0 7 9 4 20
-5 17 0 20 26 20 17 0 31 4 31 9 0 5 -21 6 -46 3 -45 -5 -46 -5 -42 24 2 23 8
30 31 32 16 2 35 -2 43 -9 11 -9 14 -8 14 5 0 13 -11 16 -50 16 l-50 0 0 -46z"/>
<path d="M6800 3201 c0 -5 -15 -26 -34 -45 -18 -20 -29 -36 -22 -35 37 4 66
-2 66 -16 0 -11 -11 -15 -37 -15 -20 0 -33 -3 -29 -7 4 -4 19 -7 34 -8 24 0
27 -4 30 -37 3 -34 1 -38 -20 -38 -18 0 -20 -2 -8 -10 29 -19 39 -10 42 38 3
45 4 47 38 53 38 7 31 12 -12 9 -19 -1 -28 3 -28 13 0 17 20 27 58 28 24 0 25
1 7 9 -25 10 -65 48 -65 60 0 6 -4 10 -10 10 -5 0 -10 -4 -10 -9z m43 -63 c-2
-5 -20 -8 -39 -8 l-35 0 22 29 22 30 17 -22 c10 -12 16 -25 13 -29z"/>
<path d="M11391 3132 c0 -50 3 -70 9 -57 4 11 6 37 3 58 -3 21 0 44 6 51 9 10
8 15 -4 20 -13 4 -15 -7 -14 -72z"/>
<path d="M4434 3164 c-9 -28 -8 -38 2 -49 19 -19 18 -21 -16 -35 -16 -7 -27
-16 -24 -21 3 -5 -4 -9 -15 -9 -15 0 -21 6 -21 21 0 16 5 19 23 15 12 -3 16
-3 10 0 -18 8 -16 24 2 24 8 0 15 9 15 20 0 15 -7 20 -26 20 -14 0 -23 4 -19
10 3 6 18 10 33 10 19 0 23 3 14 9 -8 4 -34 6 -60 4 -47 -4 -72 -13 -34 -13
11 0 24 -4 27 -10 3 -6 -4 -10 -18 -10 -19 0 -24 -5 -23 -22 1 -13 7 -22 14
-20 20 4 14 -16 -9 -28 -16 -9 -18 -14 -8 -26 6 -8 20 -14 31 -14 15 0 19 -6
16 -27 -2 -23 -8 -28 -30 -28 -16 1 -28 -3 -28 -7 0 -4 52 -8 115 -8 66 0 115
4 115 10 0 5 -21 7 -50 3 -42 -5 -50 -3 -50 11 0 12 9 16 36 16 20 0 33 4 29
10 -3 5 -19 7 -35 3 -19 -3 -30 -1 -30 6 0 6 17 11 40 11 22 0 40 4 40 10 0 6
-19 7 -47 4 l-48 -6 25 21 c14 11 32 18 40 15 38 -15 54 -15 27 1 -26 15 -26
17 -11 40 9 14 20 25 25 25 5 0 9 5 9 10 0 7 -13 8 -37 4 -31 -6 -35 -4 -30 9
3 9 3 18 -1 21 -4 2 -12 -11 -18 -30z m46 -21 c0 -5 -4 -14 -9 -22 -8 -12 -12
-12 -25 -2 -9 7 -13 17 -10 22 6 11 44 12 44 2z m-130 -13 c0 -5 -7 -10 -15
-10 -8 0 -15 5 -15 10 0 6 7 10 15 10 8 0 15 -4 15 -10z m40 0 c0 -5 -7 -10
-15 -10 -8 0 -15 5 -15 10 0 6 7 10 15 10 8 0 15 -4 15 -10z m-44 -77 c-3 -3
-13 -3 -22 1 -16 6 -15 8 2 21 16 12 19 12 22 -1 2 -9 1 -18 -2 -21z m54 -44
c0 -24 -4 -30 -17 -27 -25 5 -26 58 -1 58 13 0 18 -8 18 -31z"/>
<path d="M4697 3157 c-39 -42 -42 -48 -29 -46 4 1 19 1 35 0 39 -2 35 -29 -5
-34 l-33 -4 33 -1 c30 -2 32 -4 32 -42 0 -31 -4 -40 -17 -40 -15 0 -16 -2 -3
-10 25 -16 29 -12 32 38 3 45 4 47 38 53 39 7 31 12 -14 9 -25 -2 -28 1 -23
19 4 17 1 21 -19 21 -29 0 -30 7 -5 39 l19 24 13 -24 c7 -13 12 -30 10 -38 -2
-9 3 -12 14 -7 9 3 24 6 33 6 14 1 13 3 -3 11 -11 6 -31 24 -45 39 l-25 29
-38 -42z"/>
<path d="M5528 3178 c-3 -25 -28 -37 -28 -14 0 8 -4 17 -9 20 -5 4 -7 -4 -3
-16 4 -17 2 -20 -15 -16 -23 6 -60 -27 -43 -37 6 -4 13 1 16 9 4 11 20 16 53
16 54 0 93 9 86 20 -3 4 2 10 10 14 8 3 15 11 15 17 0 7 -10 3 -23 -9 -29 -27
-37 -28 -37 -2 0 27 -18 26 -22 -2z"/>
<path d="M6672 3090 c0 -63 3 -110 9 -110 5 0 9 14 9 30 0 24 4 30 18 28 21
-4 29 41 12 71 -8 16 -7 28 5 50 17 34 18 41 7 41 -15 0 -32 -72 -22 -91 15
-27 12 -59 -5 -59 -12 0 -15 15 -15 75 0 41 -4 75 -8 75 -5 0 -9 -49 -10 -110z"/>
<path d="M7010 3121 c0 -69 -3 -82 -21 -94 -11 -8 -16 -18 -11 -21 6 -3 34 10
63 29 30 19 49 35 43 35 -6 0 -19 -7 -30 -15 -10 -8 -23 -15 -27 -15 -5 0 -7
36 -5 80 2 44 0 80 -4 80 -5 0 -8 -36 -8 -79z"/>
<path d="M7152 3174 c-4 -63 -32 -132 -65 -159 l-32 -26 31 15 c17 8 34 22 37
30 8 21 32 10 45 -20 7 -13 16 -24 22 -24 18 0 10 20 -19 46 -26 23 -28 29
-20 54 6 15 9 48 6 71 -2 31 -4 35 -5 13z"/>
<path d="M8705 3110 l0 -86 32 0 33 1 0 72 c0 39 2 77 5 85 4 10 -5 13 -32 13
l-38 0 0 -85z m53 43 c-2 -17 -10 -29 -20 -31 -14 -3 -18 3 -18 27 0 25 4 31
21 31 16 0 20 -5 17 -27z m2 -71 c0 -34 -7 -43 -26 -35 -8 3 -14 18 -14 34 0
22 5 29 20 29 15 0 20 -7 20 -28z"/>
<path d="M888 3171 c-7 -10 -29 -28 -48 -40 -19 -11 -28 -21 -19 -21 8 0 20 5
25 10 13 13 44 2 44 -16 0 -7 -21 -23 -46 -34 -25 -12 -44 -24 -41 -26 7 -7
72 21 108 47 17 12 32 19 35 16 7 -7 -77 -77 -93 -77 -7 0 -13 -5 -13 -10 0
-6 13 -4 30 5 36 18 70 12 70 -14 0 -12 -17 -23 -55 -36 -61 -20 -68 -32 -10
-16 52 14 110 57 134 97 l20 34 -35 0 c-19 0 -33 4 -30 9 4 5 0 12 -6 15 -9 3
-6 11 10 24 31 28 28 32 -19 32 -24 0 -38 4 -34 10 11 18 -14 10 -27 -9z m62
-20 c0 -4 -6 -15 -13 -25 -12 -16 -16 -17 -35 -5 -13 8 -18 17 -12 24 9 11 60
17 60 6z m50 -80 c0 -5 -8 -19 -18 -31 -18 -22 -19 -22 -40 -5 -16 14 -19 22
-10 32 12 15 68 18 68 4z"/>
<path d="M1277 3180 c-21 -4 -50 -5 -64 -2 -18 3 -24 1 -19 -7 4 -6 19 -11 32
-11 16 0 24 -5 21 -12 -2 -7 -14 -13 -26 -12 -19 1 -21 -4 -21 -67 0 -61 2
-68 18 -63 10 4 7 -3 -10 -18 -16 -13 -28 -27 -28 -32 0 -8 61 32 71 47 4 6
21 7 38 4 l31 -6 0 70 c0 52 -3 70 -12 66 -7 -2 -12 -14 -10 -25 3 -20 -1 -22
-42 -22 -34 0 -46 4 -46 15 0 11 11 15 38 15 25 0 33 3 23 9 -24 16 -4 40 36
43 21 2 31 6 23 9 -8 3 -32 2 -53 -1z m23 -110 c0 -5 -20 -10 -45 -10 -25 0
-45 5 -45 10 0 6 20 10 45 10 25 0 45 -4 45 -10z m0 -35 c0 -11 -12 -15 -45
-15 -42 0 -54 7 -38 23 3 4 24 7 45 7 27 0 38 -4 38 -15z"/>
<path d="M1540 3165 c0 -24 -2 -25 -72 -27 l-73 -2 69 -5 69 -6 17 -62 c18
-65 31 -88 61 -103 14 -8 17 -4 21 29 2 22 0 37 -4 35 -5 -3 -8 -14 -8 -25 0
-56 -57 27 -62 91 -3 34 -2 35 37 41 45 7 37 12 -14 9 -31 -2 -33 0 -29 24 3
14 1 26 -3 26 -5 0 -9 -11 -9 -25z"/>
<path d="M1580 3182 c0 -12 19 -26 26 -19 2 2 -2 10 -11 17 -9 8 -15 8 -15 2z"/>
<path d="M2865 3180 c-4 -7 -43 -9 -105 -7 -55 2 -97 0 -94 -4 3 -5 45 -9 95
-9 l89 0 0 -85 0 -85 -32 0 -33 -1 29 -15 c40 -22 46 -9 46 98 0 70 3 89 16
96 11 6 13 12 6 16 -6 3 -14 2 -17 -4z"/>
<path d="M3006 3176 c3 -9 11 -16 16 -16 13 0 5 23 -10 28 -7 2 -10 -2 -6 -12z"/>
<path d="M3130 3175 c0 -10 -10 -15 -30 -15 -27 0 -29 -2 -23 -30 5 -25 2 -30
-15 -30 -11 0 -22 -6 -25 -12 -2 -7 -8 -10 -12 -6 -4 4 0 17 9 30 22 32 21 34
-24 35 -22 1 -40 -2 -40 -8 0 -5 11 -9 25 -9 33 0 32 -12 -6 -55 -28 -32 -29
-51 -1 -23 9 9 12 0 12 -40 0 -29 4 -52 9 -52 5 0 9 17 9 38 0 20 1 46 1 57
l2 20 15 -20 c15 -20 16 -19 12 5 -2 16 2 26 13 28 15 3 15 -3 8 -45 -5 -26
-14 -52 -19 -57 -6 -6 -10 -15 -10 -20 0 -6 9 3 20 19 11 17 20 44 20 60 l0
30 20 -33 c26 -42 25 -50 -5 -58 -14 -3 -25 -10 -25 -15 0 -5 14 -2 31 7 25
12 37 14 56 5 30 -14 43 -14 43 -1 0 6 -9 10 -19 10 -31 0 -34 17 -12 54 27
43 26 46 -5 46 -22 0 -25 4 -22 27 3 29 28 45 28 18 0 -14 3 -15 15 -5 23 19
18 30 -16 30 -24 0 -30 4 -25 15 3 8 1 15 -4 15 -6 0 -10 -7 -10 -15z m-5 -55
c0 -16 -6 -26 -17 -28 -14 -3 -18 3 -18 28 0 25 4 31 18 28 11 -2 17 -12 17
-28z m45 -45 c0 -12 -24 -55 -31 -55 -9 0 -39 40 -39 52 0 5 16 8 35 8 19 0
35 -2 35 -5z"/>
<path d="M4600 3078 c0 -61 3 -108 7 -105 3 4 5 52 5 107 -2 83 1 100 13 100
17 0 19 -14 5 -40 -7 -14 -5 -27 8 -50 16 -30 16 -32 -2 -45 -19 -15 -19 -15
2 -15 17 0 22 6 22 27 0 14 -7 34 -16 44 -14 16 -14 20 0 48 21 40 21 41 -14
41 l-30 0 0 -112z"/>
<path d="M6141 3164 c-41 -52 -36 -148 9 -189 23 -21 27 -10 6 14 -15 17 -19
40 -17 113 1 35 7 53 23 68 12 11 17 20 11 20 -7 0 -21 -12 -32 -26z"/>
<path d="M6350 3156 c29 -48 29 -118 0 -158 -27 -37 -21 -46 10 -13 45 48 34
180 -17 199 -10 4 -9 -4 7 -28z"/>
<path d="M8350 3180 c-10 -6 -11 -10 -2 -10 8 0 12 -21 12 -69 0 -46 -4 -71
-12 -74 -7 -3 3 -6 22 -6 26 -1 31 2 22 11 -7 7 -12 42 -12 85 0 74 -3 80 -30
63z"/>
<path d="M2121 3151 c-33 -46 -37 -109 -12 -159 12 -23 28 -42 37 -42 12 0 11
4 -5 21 -23 25 -37 95 -26 136 3 16 16 38 27 51 12 12 17 22 10 22 -6 0 -20
-13 -31 -29z"/>
<path d="M2310 3175 c0 -5 10 -19 22 -32 33 -35 32 -125 -1 -172 -22 -30 -22
-32 -3 -20 31 20 43 50 45 112 1 52 -2 60 -31 90 -18 17 -32 27 -32 22z"/>
<path d="M7050 3178 c0 -4 9 -22 20 -40 12 -20 20 -26 20 -17 0 16 -39 72 -40
57z"/>
<path d="M115 3156 c-11 -9 -14 -16 -7 -16 16 0 17 -121 0 -138 -9 -9 -5 -12
21 -12 26 0 31 3 23 13 -6 7 -12 48 -14 90 -3 76 -3 78 -23 63z"/>
<path d="M222 3154 c-12 -8 -22 -20 -22 -25 0 -6 10 -3 22 5 15 11 26 12 40 5
28 -15 22 -42 -22 -92 -22 -25 -40 -48 -40 -51 0 -3 22 -6 49 -6 35 0 51 4 55
16 9 24 8 26 -13 14 -11 -5 -29 -10 -41 -10 -20 0 -18 4 14 44 40 48 47 90 17
106 -26 13 -33 13 -59 -6z"/>
<path d="M3925 3144 c-9 -14 -15 -27 -13 -29 2 -1 18 -10 36 -19 35 -18 42
-45 16 -67 -9 -8 -28 -12 -42 -11 -15 3 -22 0 -18 -7 10 -16 52 -13 70 5 26
25 20 81 -9 100 -14 9 -25 20 -25 25 0 5 11 9 25 9 14 0 25 5 25 10 0 21 -48
9 -65 -16z"/>
<path d="M1116 3150 c16 -6 21 -18 23 -55 2 -40 -1 -47 -18 -52 -12 -3 -21 -9
-21 -14 0 -12 9 -10 55 12 22 10 30 16 18 13 -21 -5 -23 -2 -23 40 0 39 3 46
20 46 11 0 20 5 20 10 0 6 -21 10 -47 9 -36 0 -43 -2 -27 -9z"/>
<path d="M5620 3139 c0 -18 2 -19 15 -9 8 7 15 16 15 21 0 5 -7 9 -15 9 -9 0
-15 -9 -15 -21z"/>
<path d="M7829 3130 c-4 -31 -8 -36 -39 -41 l-35 -6 37 -2 c34 -1 37 -4 41
-33 l4 -33 1 33 c2 29 5 32 35 33 l32 1 -30 7 c-25 5 -31 12 -36 41 l-6 35 -4
-35z"/>
<path d="M8200 3138 c4 -41 0 -47 -32 -51 l-33 -4 33 -1 c29 -2 32 -5 32 -32
0 -16 5 -30 10 -30 6 0 10 14 10 30 0 27 3 30 30 30 17 0 30 4 30 8 0 4 -12 8
-27 7 -24 0 -28 4 -31 33 -2 17 -8 32 -13 32 -6 0 -10 -10 -9 -22z"/>
<path d="M8825 3139 c-27 -6 -26 -7 13 -8 35 -1 42 -4 42 -20 0 -17 -8 -21
-52 -24 l-53 -3 53 -2 53 -2 -3 -37 c-2 -31 -7 -38 -23 -36 -19 1 -20 1 -1
-12 27 -20 36 -10 36 41 0 37 3 44 20 44 11 0 20 5 20 11 0 6 -9 8 -21 4 -16
-5 -20 -3 -17 12 2 10 7 21 12 24 13 10 -45 15 -79 8z"/>
<path d="M7550 3130 c-8 -5 -10 -10 -4 -10 17 0 25 -40 13 -62 -5 -10 -16 -18
-24 -18 -8 0 -15 -4 -15 -10 0 -15 26 -12 40 5 11 13 14 13 26 -2 12 -17 14
-17 31 0 15 15 15 17 2 12 -11 -4 -18 1 -22 15 -8 30 2 50 24 50 20 0 26 15
10 25 -5 3 -17 -2 -26 -11 -15 -15 -17 -15 -28 0 -9 11 -16 13 -27 6z"/>
<path d="M7990 3137 c0 -7 40 -110 45 -115 3 -3 13 2 23 12 16 16 16 17 -1 10
-16 -6 -18 -2 -15 32 2 30 7 39 21 38 9 -1 17 4 17 12 0 18 -14 18 -30 -1 -12
-14 -15 -14 -30 0 -15 13 -30 20 -30 12z"/>
<path d="M9104 3129 c-3 -6 -1 -14 5 -18 7 -5 9 -15 5 -26 -5 -13 -4 -16 4
-11 14 9 16 52 3 61 -5 3 -13 0 -17 -6z"/>
<path d="M2700 3073 c0 -44 3 -54 12 -45 7 7 28 12 48 12 35 0 35 0 35 45 0
28 -4 45 -11 45 -8 0 -10 -13 -7 -40 l6 -40 -38 0 -38 0 6 40 c3 22 1 40 -4
40 -5 0 -9 -26 -9 -57z"/>
<path d="M5480 3105 c0 -24 3 -25 60 -25 57 0 60 1 60 25 0 22 -4 25 -32 24
-24 -1 -27 -3 -10 -6 12 -2 22 -11 22 -19 0 -10 -13 -14 -46 -14 -41 0 -45 2
-39 20 4 11 2 20 -4 20 -6 0 -11 -11 -11 -25z"/>
<path d="M5985 3040 c0 -89 0 -90 25 -90 19 0 21 3 12 12 -7 7 -12 21 -12 33
0 16 6 21 27 20 33 0 57 40 47 80 -8 32 -30 42 -55 26 -12 -7 -19 -7 -19 -1 0
5 -6 10 -12 10 -10 0 -13 -25 -13 -90z m80 36 c8 -23 6 -30 -10 -42 -10 -8
-24 -13 -30 -11 -12 4 -19 52 -11 74 9 23 40 11 51 -21z"/>
<path d="M6220 3119 c0 -5 4 -9 9 -9 16 0 23 -38 11 -60 -6 -11 -17 -20 -25
-20 -8 0 -15 -4 -15 -10 0 -15 11 -12 32 7 17 15 19 15 31 -1 12 -17 14 -17
28 0 8 10 9 15 2 11 -8 -5 -15 1 -19 17 -7 29 1 46 22 46 8 0 14 7 14 15 0 20
-17 19 -29 -2 -9 -15 -12 -16 -20 -4 -11 17 -41 24 -41 10z"/>
<path d="M9837 3116 c-4 -10 0 -12 14 -9 10 3 16 9 13 14 -8 13 -21 11 -27 -5z"/>
<path d="M10695 3121 c-36 -5 -43 -8 -25 -11 21 -4 26 -12 28 -42 3 -35 1 -38
-22 -38 -24 0 -41 -12 -30 -23 6 -5 123 38 133 49 3 4 -3 4 -14 -1 -54 -20
-57 -20 -53 16 2 29 7 34 31 37 15 2 25 8 22 13 -4 5 -9 8 -13 7 -4 0 -29 -4
-57 -7z"/>
<path d="M11025 3120 c9 -14 -23 -72 -53 -97 -15 -13 -22 -23 -15 -23 21 0 71
56 78 88 4 21 13 32 28 35 15 3 11 5 -11 6 -19 0 -31 -3 -27 -9z"/>
<path d="M3556 3111 c-3 -5 1 -12 10 -15 23 -9 14 -59 -13 -71 -13 -5 -23 -13
-23 -17 0 -15 19 -8 40 14 l20 22 0 -22 c0 -25 22 -29 40 -7 11 13 10 14 -3 9
-12 -4 -18 2 -23 20 -6 27 11 60 27 50 5 -3 9 0 9 5 0 15 -13 14 -29 -1 -10
-11 -14 -10 -22 5 -11 19 -25 22 -33 8z"/>
<path d="M9750 3110 c0 -6 7 -10 15 -10 8 0 15 2 15 4 0 2 -7 6 -15 10 -8 3
-15 1 -15 -4z"/>
<path d="M11345 3114 c-6 -2 -8 -25 -6 -50 3 -47 3 -47 -25 -41 -27 5 -27 4
-9 -9 30 -22 39 -12 46 47 7 62 7 57 -6 53z"/>
<path d="M1958 3101 c10 -6 13 -29 10 -85 -2 -64 -1 -76 13 -76 12 0 14 7 11
29 -3 25 -1 29 15 25 30 -8 55 27 51 73 l-3 38 -55 2 c-32 1 -49 -1 -42 -6z
m82 -51 c0 -34 -21 -55 -38 -38 -28 28 -4 101 25 77 7 -7 13 -24 13 -39z"/>
<path d="M2218 3081 c16 -28 15 -31 -2 -50 -10 -11 -23 -18 -27 -15 -5 3 -9
-2 -9 -10 0 -22 17 -20 32 4 16 26 24 25 31 -2 5 -18 8 -19 21 -8 17 13 22 35
7 25 -5 -3 -13 4 -16 15 -7 23 10 50 31 50 8 0 14 5 14 10 0 15 -26 12 -41 -6
-11 -14 -13 -14 -21 0 -5 9 -15 16 -23 16 -11 0 -11 -5 3 -29z"/>
<path d="M4984 3095 c-8 -19 3 -35 26 -35 19 0 30 17 23 38 -6 17 -42 15 -49
-3z m36 -11 c0 -17 -22 -14 -28 4 -2 7 3 12 12 12 9 0 16 -7 16 -16z"/>
<path d="M9798 3070 c4 -38 2 -40 -27 -46 -17 -4 -31 -10 -31 -15 0 -13 9 -11
70 12 66 25 75 32 35 27 -28 -3 -30 -1 -30 30 0 17 -4 32 -10 32 -6 0 -9 -17
-7 -40z"/>
<path d="M10448 3093 c6 -2 18 -2 25 0 6 3 1 5 -13 5 -14 0 -19 -2 -12 -5z"/>
<path d="M1410 3078 c0 -5 12 -8 26 -8 23 0 25 -3 22 -37 -3 -33 -7 -39 -33
-43 -17 -3 -25 -8 -19 -12 11 -8 139 30 131 38 -2 3 -16 0 -30 -5 -21 -8 -26
-7 -29 7 -7 32 4 52 28 52 13 0 24 4 24 8 0 5 -27 8 -60 8 -33 -1 -60 -4 -60
-8z"/>
<path d="M3710 3071 c0 -7 26 -11 65 -11 36 0 65 4 65 8 0 5 -29 10 -65 11
-40 1 -65 -2 -65 -8z"/>
<path d="M5538 3062 l-78 -3 0 -39 0 -38 76 -4 c84 -3 87 -1 82 53 l-3 34 -77
-3z m-13 -22 c4 -6 -7 -10 -25 -10 -18 0 -29 4 -25 10 3 6 15 10 25 10 10 0
22 -4 25 -10z m75 0 c0 -5 -14 -10 -31 -10 -17 0 -28 4 -24 10 3 6 17 10 31
10 13 0 24 -4 24 -10z m-70 -35 c0 -10 -10 -15 -30 -15 -29 0 -38 9 -23 23 13
13 53 7 53 -8z m70 0 c0 -9 -9 -15 -25 -15 -16 0 -25 6 -25 15 0 9 9 15 25 15
16 0 25 -6 25 -15z"/>
<path d="M8800 3065 c0 -8 27 -35 34 -35 14 0 4 20 -14 30 -11 6 -20 8 -20 5z"/>
<path d="M10541 3043 c11 -34 19 -42 19 -20 0 7 -7 22 -15 33 -13 17 -14 16
-4 -13z"/>
<path d="M6743 3030 c-33 -40 -28 -49 7 -15 29 28 38 46 23 44 -5 0 -18 -13
-30 -29z"/>
<path d="M6853 3042 c10 -10 17 -24 17 -30 0 -7 5 -12 10 -12 6 0 10 4 10 8 0
10 -38 52 -47 52 -3 0 1 -8 10 -18z"/>
<path d="M7986 3044 c-11 -7 -16 -17 -13 -21 4 -4 15 1 24 10 22 21 14 30 -11
11z"/>
<path d="M4667 3017 l-19 -32 31 29 c35 33 36 36 19 36 -7 0 -21 -15 -31 -33z"/>
<path d="M4771 3045 c0 -14 38 -59 45 -53 3 3 -6 19 -20 34 -14 16 -25 25 -25
19z"/>
<path d="M10491 3028 c0 -10 -6 -18 -13 -18 -9 0 -9 -3 0 -12 16 -16 25 -5 19
24 -3 14 -5 16 -6 6z"/>
<path d="M340 3011 c0 -6 5 -13 10 -16 6 -3 10 1 10 9 0 9 -4 16 -10 16 -5 0
-10 -4 -10 -9z"/>
<path d="M1293 2980 c15 -12 31 -19 34 -16 9 9 -7 22 -37 31 -25 7 -25 7 3
-15z"/>
<path d="M1527 2794 c-14 -14 -6 -21 18 -16 34 6 33 -20 -1 -65 l-25 -33 35 0
c20 0 36 4 36 9 0 4 -12 6 -26 3 l-27 -5 23 30 c26 36 24 77 -5 81 -12 2 -24
0 -28 -4z"/>
<path d="M4500 2745 c0 -26 -2 -27 -45 -23 l-45 3 0 -56 0 -57 37 8 c20 5 41
7 45 4 4 -3 9 -26 10 -52 l1 -47 6 50 6 50 40 -1 40 0 1 51 0 52 -45 -5 c-41
-5 -44 -4 -38 17 3 11 1 24 -4 27 -5 3 -9 -7 -9 -21z m-2 -72 c3 -32 3 -33
-38 -33 -34 0 -41 3 -36 16 3 9 6 24 6 34 0 14 7 18 33 17 28 -2 32 -6 35 -34z
m82 2 c0 -33 -2 -35 -35 -35 -32 0 -35 3 -35 28 0 16 3 32 7 35 3 4 19 7 35 7
25 0 28 -3 28 -35z"/>
<path d="M5114 2748 c-6 -19 -7 -19 -16 -5 -5 10 -14 17 -20 17 -7 0 -6 -5 1
-14 10 -12 8 -15 -11 -19 -17 -3 -15 -5 9 -6 31 -1 32 -3 28 -33 -3 -18 -3
-27 1 -20 3 7 25 12 55 12 43 0 49 -3 49 -21 0 -19 -5 -20 -61 -18 l-62 3 -25
-44 c-15 -24 -21 -40 -14 -36 7 4 19 20 27 37 15 28 18 29 90 29 67 0 75 -2
75 -19 0 -34 -11 -51 -34 -51 -20 -1 -20 -1 -2 -11 25 -15 46 7 53 59 5 39 4
40 -17 35 -21 -6 -22 -3 -16 20 5 21 3 27 -9 27 -11 0 -15 7 -13 22 3 21 -1
22 -36 19 -35 -2 -38 -1 -33 18 7 28 -10 27 -19 -1z m76 -43 c0 -10 -11 -15
-35 -15 -24 0 -35 5 -35 15 0 10 11 15 35 15 24 0 35 -5 35 -15z"/>
<path d="M5645 2750 c6 -20 4 -22 -13 -18 -16 4 -22 0 -27 -19 -7 -31 1 -43
10 -14 6 19 14 21 90 21 67 0 84 -3 87 -15 2 -13 6 -12 16 5 11 18 10 20 -20
20 -30 0 -31 1 -12 14 10 8 15 18 11 23 -5 4 -17 -2 -27 -14 -10 -13 -25 -23
-34 -23 -19 0 -21 11 -4 28 9 9 8 12 -5 12 -10 0 -17 -8 -17 -20 0 -13 -7 -20
-20 -20 -11 0 -20 6 -20 14 0 8 -5 18 -11 22 -8 4 -9 -1 -4 -16z"/>
<path d="M5930 2759 c0 -6 -8 -9 -18 -7 -12 3 -24 -2 -31 -13 -7 -12 -7 -19
-1 -19 5 0 10 -6 10 -14 0 -8 10 -17 23 -19 l22 -4 -22 -2 c-18 -1 -23 -7 -22
-28 2 -24 2 -25 6 -5 5 24 33 31 33 7 0 -8 -5 -15 -11 -15 -5 0 -7 -4 -4 -10
4 -6 -5 -10 -19 -10 -14 0 -26 -4 -26 -10 0 -5 5 -10 11 -10 6 0 18 -7 26 -16
14 -13 14 -17 2 -25 -8 -5 -18 -9 -23 -9 -5 0 -7 -3 -3 -6 3 -3 19 1 36 9 26
13 32 13 51 0 20 -14 24 -14 52 7 l30 22 15 -21 c8 -12 19 -19 24 -15 6 4 2
16 -11 29 -20 21 -21 27 -10 62 7 21 16 46 21 55 13 26 12 28 -21 22 -26 -6
-30 -4 -30 15 0 11 5 21 11 21 5 0 7 5 4 10 -11 18 -25 11 -25 -12 0 -13 -7
-36 -15 -52 -17 -32 -19 -39 -7 -32 5 3 14 -11 21 -31 12 -33 12 -37 -12 -61
-23 -23 -27 -24 -41 -9 -23 23 -20 34 12 42 l27 7 -25 10 c-15 6 -20 12 -12
15 24 9 13 41 -15 46 l-28 4 28 2 c16 0 27 7 27 15 0 8 6 17 13 19 10 4 10 6
0 6 -7 1 -13 7 -13 15 0 9 -7 12 -20 9 -11 -3 -20 0 -20 6 0 6 -4 11 -10 11
-5 0 -10 -5 -10 -11z m-3 -25 c-3 -3 -12 -4 -19 -1 -8 3 -5 6 6 6 11 1 17 -2
13 -5z m46 -1 c-7 -2 -19 -2 -25 0 -7 3 -2 5 12 5 14 0 19 -2 13 -5z m-43 -23
c0 -5 -7 -10 -15 -10 -8 0 -15 5 -15 10 0 6 7 10 15 10 8 0 15 -4 15 -10z m42
-2 c-9 -9 -15 -9 -24 0 -9 9 -7 12 12 12 19 0 21 -3 12 -12z m98 -25 c0 -28
-12 -63 -20 -63 -11 0 -31 60 -24 71 10 16 44 10 44 -8z m-90 -20 c0 -5 -7
-17 -15 -27 -8 -11 -15 -28 -15 -38 0 -10 -7 -18 -15 -18 -17 0 -20 11 -5 26
5 5 11 21 14 34 2 14 5 26 5 28 2 6 31 1 31 -5z"/>
<path d="M4170 2746 c0 -8 -12 -17 -27 -19 l-28 -4 28 -2 c28 -1 28 -2 25 -58
-3 -58 -3 -58 -33 -56 -25 2 -26 1 -7 -5 33 -10 212 -2 212 9 0 7 -12 8 -30 4
l-30 -7 0 56 c0 53 1 56 26 56 14 0 23 4 20 9 -3 5 -16 7 -28 3 -17 -4 -20 -2
-15 11 4 10 2 17 -3 17 -6 0 -10 -7 -10 -15 0 -11 -12 -15 -46 -15 -37 0 -45
3 -40 15 3 8 1 15 -4 15 -6 0 -10 -6 -10 -14z m98 -43 c2 -9 -10 -13 -42 -13
-35 0 -46 4 -46 16 0 12 9 14 42 12 23 -2 43 -9 46 -15z m-2 -60 c2 -32 1 -33
-41 -33 -43 0 -43 0 -43 36 0 35 0 35 41 32 39 -3 42 -5 43 -35z"/>
<path d="M4218 2643 c6 -2 18 -2 25 0 6 3 1 5 -13 5 -14 0 -19 -2 -12 -5z"/>
<path d="M846 2738 c4 -12 1 -18 -10 -18 -9 0 -16 -4 -16 -9 0 -6 10 -8 21 -6
12 3 26 2 30 -1 11 -7 -28 -104 -52 -130 -10 -11 -19 -24 -19 -28 0 -15 31 17
46 46 15 28 17 29 87 26 l72 -3 -3 -30 c-2 -16 -10 -36 -19 -42 -16 -12 -15
-13 0 -13 19 0 33 28 39 76 2 24 0 28 -16 26 -15 -3 -17 1 -12 23 5 21 3 25
-11 23 -13 -2 -17 3 -16 20 2 14 -3 22 -13 22 -11 0 -13 -6 -9 -20 5 -15 1
-22 -17 -29 -20 -9 -19 -10 15 -10 26 -1 37 -5 37 -16 0 -12 -13 -15 -55 -15
-51 0 -69 10 -45 25 6 4 9 14 8 23 -2 10 6 18 22 22 l25 6 -24 6 c-16 5 -22
12 -18 22 4 9 2 16 -3 16 -6 0 -10 -7 -10 -15 0 -20 -10 -19 -26 3 -13 16 -14
16 -8 0z"/>
<path d="M2370 2740 l-35 -7 33 -2 c34 -1 39 -10 22 -42 -8 -14 -7 -19 3 -19
8 0 14 6 14 13 0 7 3 25 7 40 3 15 3 26 -1 26 -5 -1 -24 -5 -43 -9z"/>
<path d="M1268 2729 c-10 -5 -18 -17 -18 -26 0 -14 2 -14 20 2 16 15 22 15 35
5 25 -21 17 -55 -25 -100 -22 -24 -40 -44 -40 -46 0 -9 101 3 104 13 3 8 -6
10 -32 6 l-36 -6 32 43 c37 50 42 94 13 110 -24 12 -31 12 -53 -1z"/>
<path d="M1833 2733 c-21 -8 -14 -25 7 -18 26 8 38 -20 21 -47 -10 -16 -9 -22
4 -32 28 -20 15 -50 -25 -56 -24 -3 -31 -8 -22 -14 39 -25 94 32 72 74 -6 11
-8 31 -4 45 10 39 -17 63 -53 48z"/>
<path d="M1941 2713 c-10 -23 2 -33 14 -13 6 9 65 15 65 6 0 -2 -11 -34 -25
-70 -28 -75 -28 -76 -16 -76 5 0 17 26 26 58 9 31 21 70 26 86 5 16 9 31 9 33
0 2 -20 2 -44 1 -35 -2 -47 -8 -55 -25z"/>
<path d="M2310 2695 c0 -52 -21 -109 -52 -142 -12 -13 -16 -23 -10 -23 17 0
60 69 68 107 l6 32 25 -46 c27 -51 24 -58 -33 -78 -23 -8 -31 -14 -19 -15 11
0 35 9 53 20 l34 21 42 -21 c47 -22 56 -24 56 -11 0 5 -10 11 -22 14 -13 4
-31 12 -41 19 -17 13 -16 16 12 53 35 45 37 55 16 55 -8 0 -15 -8 -15 -17 0
-10 -11 -31 -24 -48 l-24 -29 -21 34 c-11 19 -19 41 -16 48 2 6 -3 12 -11 12
-12 0 -15 7 -12 30 3 17 1 30 -4 30 -4 0 -8 -20 -8 -45z"/>
<path d="M3542 2731 c-11 -7 -11 -9 2 -14 12 -5 16 -20 15 -64 -1 -32 -6 -64
-11 -70 -8 -10 -4 -13 15 -13 23 0 25 3 18 28 -4 15 -6 53 -4 85 2 58 -5 68
-35 48z"/>
<path d="M3041 2673 c-1 -28 -5 -32 -33 -36 l-33 -4 32 -1 c28 -2 32 -6 36
-34 l4 -33 1 33 c2 30 4 32 40 33 l37 2 -35 6 c-29 5 -36 11 -41 36 l-7 30 -1
-32z"/>
<path d="M5640 2676 c0 -14 4 -28 10 -31 6 -4 9 4 7 17 -2 21 3 23 47 26 45 3
48 2 43 -17 -3 -13 0 -21 8 -21 7 0 13 11 13 25 0 24 -3 25 -64 25 -61 0 -64
-1 -64 -24z"/>
<path d="M2745 2678 c-30 -16 -45 -39 -45 -69 0 -38 21 -53 54 -38 14 7 26 16
26 21 0 4 -9 3 -20 -4 -16 -10 -23 -10 -37 4 -15 15 -15 20 -3 43 18 33 50 53
50 30 0 -8 5 -15 11 -15 13 0 8 32 -6 36 -5 2 -19 -2 -30 -8z"/>
<path d="M3205 2666 c-51 -51 -15 -124 40 -81 19 14 19 15 -7 6 -47 -17 -59
25 -20 72 19 21 32 22 32 2 0 -8 5 -15 11 -15 17 0 5 34 -13 38 -10 2 -29 -8
-43 -22z"/>
<path d="M4821 2664 c-24 -31 -28 -79 -6 -88 18 -7 65 13 65 28 0 6 -5 5 -12
-2 -16 -16 -47 -15 -54 2 -8 20 23 76 41 76 8 0 15 -7 15 -15 0 -8 5 -15 11
-15 6 0 9 8 7 18 -5 28 -43 26 -67 -4z"/>
<path d="M6237 2676 c-3 -8 1 -22 8 -33 13 -16 15 -17 30 -2 9 9 13 23 9 32
-8 21 -40 22 -47 3z m33 -11 c0 -8 -4 -15 -9 -15 -13 0 -22 16 -14 24 11 11
23 6 23 -9z"/>
<path d="M1398 2673 c22 -9 33 -51 19 -73 -6 -11 -17 -20 -24 -20 -7 0 -13 -4
-13 -10 0 -16 12 -12 37 12 l23 21 0 -22 c0 -17 4 -22 16 -17 9 3 18 6 20 6 2
0 4 5 4 11 0 5 -5 7 -10 4 -15 -9 -29 37 -18 58 5 9 15 17 23 17 8 0 15 5 15
10 0 15 -16 12 -31 -6 -11 -14 -13 -14 -21 0 -5 9 -19 16 -31 15 -12 0 -16 -3
-9 -6z"/>
<path d="M2834 2664 c28 -27 19 -63 -19 -78 -14 -6 -16 -10 -7 -13 8 -3 21 2
30 10 14 14 17 14 26 1 12 -15 46 -10 46 7 0 4 -6 6 -14 3 -16 -6 -29 22 -21
46 3 10 16 21 28 25 19 6 20 8 4 12 -11 3 -24 -3 -32 -14 -13 -17 -14 -17 -15
0 0 10 -8 17 -21 17 -19 0 -19 -1 -5 -16z"/>
<path d="M3833 2651 c2 -28 3 -29 15 -14 14 19 12 35 -6 41 -7 2 -11 -8 -9
-27z"/>
<path d="M5480 2671 c-19 -3 -30 -9 -25 -12 15 -9 86 2 79 12 -3 5 -8 8 -12 8
-4 -1 -23 -4 -42 -8z"/>
<path d="M5311 2666 c9 -9 129 -15 129 -7 0 4 -30 9 -67 10 -37 1 -65 0 -62
-3z"/>
<path d="M5692 2644 c2 -16 -3 -19 -32 -18 -34 1 -35 -1 -37 -38 0 -21 3 -38
8 -38 5 0 9 14 9 30 0 27 3 30 29 30 28 0 30 -3 34 -42 l4 -43 1 43 c2 41 3
42 37 42 28 0 35 -4 35 -20 0 -14 -7 -20 -22 -21 l-23 0 23 -11 c27 -13 28
-13 35 33 l5 36 -41 -1 c-30 -1 -42 3 -42 13 0 8 -6 16 -13 19 -9 3 -12 -3
-10 -14z"/>
<path d="M1622 2635 c10 -10 104 -14 118 -5 10 7 -7 10 -54 10 -38 0 -67 -2
-64 -5z"/>
<path d="M3367 2633 c18 -2 50 -2 70 0 21 2 7 4 -32 4 -38 0 -55 -2 -38 -4z"/>
<path d="M5161 2615 c1 -19 18 -51 18 -35 0 8 -4 22 -9 30 -5 8 -9 11 -9 5z"/>
<path d="M5207 2600 c3 -11 9 -17 15 -14 5 3 4 12 -3 20 -16 19 -18 18 -12 -6z"/>
<path d="M971 2593 c7 -10 15 -20 16 -22 2 -2 3 3 3 11 0 9 -7 19 -16 22 -15
6 -15 4 -3 -11z"/>
<path d="M5090 2585 c-7 -14 -10 -28 -7 -31 4 -4 11 6 17 21 6 15 9 29 7 31
-2 2 -10 -7 -17 -21z"/>
<path d="M5130 2584 c0 -14 4 -23 9 -20 5 3 7 15 4 26 -7 28 -13 25 -13 -6z"/>
<path d="M890 2578 c0 -16 5 -28 10 -28 13 0 13 20 0 40 -8 12 -10 9 -10 -12z"/>
<path d="M930 2595 c0 -5 5 -17 10 -25 5 -8 10 -10 10 -5 0 6 -5 17 -10 25 -5
8 -10 11 -10 5z"/>
<path d="M852 2569 c-7 -12 -11 -24 -7 -27 7 -8 25 17 25 36 0 17 -3 15 -18
-9z"/>
<path d="M4150 2559 c-25 -16 -38 -29 -29 -29 9 0 27 8 40 19 13 10 31 20 39
23 7 2 10 7 5 10 -6 3 -30 -7 -55 -23z"/>
<path d="M4280 2561 c37 -32 44 -33 34 -8 -3 9 -20 20 -37 26 l-32 11 35 -29z"/>
<path d="M11220 2120 c0 -7 -14 -33 -31 -59 -17 -25 -26 -41 -20 -35 16 15 71
5 71 -13 0 -23 -19 -52 -53 -84 -18 -15 -27 -29 -21 -29 21 0 84 79 84 105 0
22 4 25 36 25 l35 0 -3 -47 c-3 -45 -4 -48 -30 -46 -35 2 -37 -13 -3 -21 37
-10 43 -2 51 65 5 42 10 59 19 55 23 -8 26 7 3 18 -12 6 -28 26 -37 43 -9 18
-22 33 -30 33 -9 0 -5 -12 13 -34 14 -19 26 -39 26 -45 0 -7 -26 -11 -65 -11
-36 0 -65 2 -65 4 0 3 9 20 20 40 14 22 17 37 10 41 -5 3 -10 1 -10 -5z"/>
<path d="M10906 2090 c-44 -53 -35 -164 17 -192 19 -10 19 -9 -3 26 -18 30
-22 47 -18 91 3 34 12 62 23 75 10 11 16 23 13 25 -3 3 -17 -8 -32 -25z"/>
<path d="M11432 2115 c2 -5 12 -28 22 -49 21 -48 15 -112 -15 -150 -12 -16
-15 -24 -7 -21 20 8 46 55 49 90 4 59 -1 84 -27 112 -14 15 -24 24 -22 18z"/>
<path d="M10977 2103 c-14 -13 -6 -20 18 -15 35 6 46 -25 15 -48 l-23 -17 22
-6 c18 -4 22 -12 19 -34 -3 -25 -6 -28 -36 -25 -21 1 -31 -2 -27 -8 3 -5 20
-10 36 -10 36 0 56 34 44 77 -4 15 -7 43 -6 61 2 29 0 32 -27 32 -16 0 -32 -3
-35 -7z"/>
<path d="M1640 2071 c0 -17 -8 -21 -52 -24 l-53 -3 52 -2 c51 -2 52 -3 55 -34
2 -18 1 -54 0 -79 -3 -42 -6 -46 -25 -42 -22 5 -22 5 1 -11 30 -23 42 -13 42
38 l0 43 36 -33 c19 -19 45 -34 57 -34 16 0 9 7 -26 30 -26 16 -47 36 -47 44
0 8 16 20 35 27 22 8 31 17 26 22 -6 6 -20 1 -37 -12 -36 -28 -44 -27 -44 9 0
30 0 30 56 30 36 0 53 4 49 10 -4 6 -15 8 -25 5 -12 -4 -19 1 -23 15 -3 11
-10 20 -16 20 -9 0 -9 -5 -1 -20 9 -18 8 -20 -16 -20 -21 0 -25 4 -21 20 3 13
0 20 -9 20 -8 0 -14 -9 -14 -19z"/>
<path d="M820 2048 c-32 -44 -34 -124 -4 -164 29 -40 52 -44 24 -4 -29 41 -32
123 -5 163 25 39 13 43 -15 5z"/>
<path d="M990 2076 c0 -4 9 -19 20 -33 28 -36 28 -124 -1 -164 -25 -36 -8 -39
20 -3 16 21 21 41 21 88 0 56 -3 65 -30 91 -16 16 -30 25 -30 21z"/>
<path d="M890 2005 c-7 -8 -10 -18 -6 -22 3 -4 12 2 20 12 7 10 18 15 24 11
19 -12 14 -24 -15 -38 -31 -15 -41 -42 -23 -63 9 -10 17 -12 30 -5 10 5 21 5
26 0 6 -6 15 -5 24 0 11 7 12 12 3 18 -6 4 -13 28 -15 52 -3 40 -6 45 -29 48
-14 2 -31 -4 -39 -13z m50 -59 c0 -28 -28 -43 -37 -19 -4 9 1 21 12 29 25 18
25 18 25 -10z"/>
<path d="M1587 1996 c10 -13 20 -20 21 -15 5 12 -17 39 -30 39 -5 0 -1 -11 9
-24z"/>
<path d="M1990 2007 c-32 -16 -56 -65 -43 -86 13 -20 50 -26 69 -11 24 21 16
32 -11 14 -22 -14 -25 -14 -31 -1 -16 42 25 101 46 67 11 -18 25 -6 17 15 -8
18 -14 19 -47 2z"/>
<path d="M2229 1970 c18 -8 21 -14 13 -22 -8 -8 -16 -8 -28 3 -15 12 -17 12
-12 -1 2 -8 16 -15 29 -15 35 0 34 39 -1 42 l-25 3 24 -10z"/>
<path d="M1585 1937 c-22 -12 -42 -23 -44 -25 -3 -1 0 -6 5 -11 5 -6 25 4 49
25 47 39 45 42 -10 11z"/>
<path d="M11285 1460 c-3 -5 -2 -10 3 -10 5 0 15 -12 23 -27 7 -16 15 -31 17
-35 2 -4 -18 -8 -45 -10 -39 -2 -47 -6 -45 -20 4 -25 -24 -75 -54 -94 -13 -9
-22 -19 -20 -21 13 -13 66 41 78 80 13 36 19 42 46 45 32 3 32 3 32 -42 0 -47
-11 -62 -45 -59 -12 2 -9 -2 8 -8 42 -16 44 -11 56 104 1 4 10 7 22 7 18 0 16
4 -15 34 -20 18 -36 41 -36 50 0 18 -15 22 -25 6z"/>
<path d="M11193 1409 l-31 -49 26 6 c34 8 41 14 17 14 -17 0 -17 1 2 23 11 12
23 30 26 40 12 32 -8 16 -40 -34z"/>
<path d="M11440 1432 c31 -41 34 -124 7 -165 -22 -35 -22 -42 2 -20 11 10 25
38 31 63 13 55 -4 115 -40 139 l-24 16 24 -33z"/>
<path d="M10900 1423 c-18 -24 -21 -38 -18 -90 3 -42 10 -68 22 -82 31 -34 37
-24 15 19 -26 49 -22 129 6 160 10 11 13 20 7 20 -6 0 -20 -12 -32 -27z"/>
<path d="M10992 1441 c-11 -7 -11 -9 2 -14 20 -8 23 -116 4 -135 -9 -9 -7 -12
13 -12 24 0 24 1 21 85 -3 85 -9 96 -40 76z"/>
<path d="M4062 1415 c-7 -14 -16 -25 -22 -25 -6 0 -10 -35 -10 -87 0 -56 4
-83 9 -74 5 8 7 29 4 48 -5 32 -4 33 26 33 28 0 31 -3 31 -29 0 -23 -5 -30
-22 -33 -21 -3 -21 -4 5 -9 27 -6 27 -5 27 42 0 27 4 49 9 49 5 0 14 14 20 31
9 27 14 30 48 27 38 -3 38 -4 44 -53 l6 -50 1 42 c1 23 5 48 8 57 5 13 -2 16
-41 16 -42 0 -46 2 -40 20 3 11 2 20 -3 20 -5 0 -15 -20 -22 -45 -13 -47 -32
-62 -27 -22 2 18 -2 21 -20 19 -25 -3 -30 7 -12 25 6 6 7 13 1 17 -5 3 -14 -6
-20 -19z m38 -60 c0 -21 -5 -25 -30 -25 -22 0 -30 5 -30 18 0 25 9 32 37 32
18 0 23 -5 23 -25z"/>
<path d="M4714 1415 c6 -23 3 -25 -26 -26 l-33 -1 30 -7 c26 -5 30 -11 38 -56
9 -52 48 -115 72 -115 9 0 12 6 9 15 -3 8 -11 13 -16 12 -16 -3 -45 52 -53
101 l-7 42 42 0 c23 0 39 4 35 9 -3 5 -21 7 -40 4 -33 -5 -35 -4 -35 21 0 14
-5 26 -11 26 -7 0 -9 -10 -5 -25z"/>
<path d="M4750 1436 c0 -2 7 -9 15 -16 9 -7 15 -8 15 -2 0 5 -7 12 -15 16 -8
3 -15 4 -15 2z"/>
<path d="M1559 1411 c6 -10 7 -22 3 -26 -4 -4 10 -6 31 -3 20 2 37 0 37 -4 0
-4 4 -8 10 -8 5 0 7 7 4 15 -4 10 -15 12 -34 9 -22 -5 -29 -2 -35 15 -3 12
-11 21 -16 21 -6 0 -6 -7 0 -19z"/>
<path d="M2000 1418 c-13 -5 -35 -6 -47 -3 -22 5 -23 3 -23 -64 0 -38 -3 -78
-6 -88 -4 -14 -1 -13 12 5 11 15 27 22 50 22 32 0 34 -2 34 -35 0 -31 -3 -35
-27 -36 l-28 0 24 -10 c14 -5 28 -6 32 -2 8 8 15 211 8 217 -2 2 -15 -1 -29
-6z m20 -38 c0 -16 -7 -20 -35 -20 -28 0 -35 4 -35 20 0 16 7 20 35 20 28 0
35 -4 35 -20z m0 -55 c0 -22 -4 -25 -35 -25 -31 0 -35 3 -35 25 0 22 4 25 35
25 31 0 35 -3 35 -25z"/>
<path d="M2990 1415 c10 -12 8 -17 -11 -25 -23 -10 -23 -10 4 -7 15 3 30 1 32
-3 7 -12 -22 -88 -45 -117 -11 -14 -20 -30 -20 -36 0 -6 14 8 32 31 l32 42 68
0 c68 0 68 0 68 -27 0 -41 -13 -56 -40 -48 -14 4 -20 3 -16 -3 3 -5 15 -12 26
-15 22 -6 24 -2 48 71 9 29 8 32 -9 32 -15 0 -19 6 -17 23 2 17 -1 21 -16 19
-15 -3 -17 1 -12 22 5 20 3 26 -9 26 -9 0 -15 -6 -14 -12 4 -30 -3 -38 -31
-38 -33 0 -34 1 -21 48 5 17 6 32 1 32 -4 0 -11 -10 -14 -22 l-7 -23 -11 23
c-6 12 -15 22 -21 22 -5 0 -4 -7 3 -15z m134 -90 c-5 -11 -21 -15 -60 -15 -43
0 -52 3 -48 15 5 11 21 15 60 15 43 0 52 -3 48 -15z"/>
<path d="M4310 1318 c0 -65 4 -108 10 -108 6 0 10 3 10 8 0 9 162 8 178 -2 9
-5 12 18 12 103 l0 110 -105 -1 -105 -2 0 -108z m90 67 c0 -22 -4 -25 -40 -25
-22 0 -40 4 -40 9 0 28 14 41 46 41 30 0 34 -3 34 -25z m110 -59 l0 -84 -52
-4 c-74 -4 -138 1 -138 13 0 5 3 8 8 7 19 -5 49 15 66 44 l19 31 39 -41 c21
-23 38 -35 38 -27 0 7 -19 29 -42 49 l-43 36 43 0 c23 0 42 4 42 9 0 6 -16 7
-35 4 -33 -5 -35 -4 -35 21 0 24 3 26 45 26 l45 0 0 -84z m-110 16 c0 -23 -58
-83 -69 -71 -3 2 -5 21 -6 42 -1 36 -1 37 37 37 21 0 38 -3 38 -8z"/>
<path d="M1648 1413 c29 -6 28 -14 -5 -54 -16 -18 -21 -29 -13 -24 7 5 31 8
52 6 21 -1 38 3 38 8 0 6 -13 8 -31 4 l-31 -6 16 31 c21 41 21 42 -16 41 -24
-1 -27 -3 -10 -6z"/>
<path d="M1725 1410 c-4 -6 -11 -8 -17 -4 -13 8 22 -59 36 -68 21 -15 29 -8
12 11 -16 17 -16 19 0 25 9 4 14 9 11 13 -4 3 -13 0 -21 -6 -9 -8 -16 -8 -20
-2 -4 5 1 14 10 19 10 6 13 12 6 16 -6 3 -13 2 -17 -4z"/>
<path d="M1822 1345 l2 -70 40 0 41 0 0 70 0 70 -43 0 -43 0 3 -70z m68 35 c0
-12 -10 -24 -22 -30 l-23 -9 23 0 c17 -1 22 -7 22 -26 0 -20 -5 -25 -25 -25
-24 0 -25 3 -25 55 0 52 1 55 25 55 18 0 25 -5 25 -20z"/>
<path d="M3561 1394 c-44 -56 -34 -159 19 -193 24 -15 25 -15 9 4 -44 56 -49
134 -10 186 27 36 10 39 -18 3z"/>
<path d="M3774 1400 c23 -39 31 -106 16 -151 -7 -21 -17 -39 -22 -39 -4 0 -8
-5 -8 -11 0 -17 29 10 46 42 8 16 14 48 14 73 0 37 -6 52 -31 78 -23 25 -27
27 -15 8z"/>
<path d="M832 1378 c-11 -18 -22 -47 -25 -64 -5 -35 20 -101 46 -123 21 -17
22 -3 1 20 -8 9 -18 42 -21 72 -5 46 -2 62 15 91 12 20 17 36 12 36 -4 0 -17
-15 -28 -32z"/>
<path d="M899 1328 c2 -47 8 -86 15 -90 53 -35 113 55 67 101 -17 17 -25 19
-41 11 -18 -10 -20 -7 -20 25 0 21 -5 35 -13 35 -9 0 -11 -21 -8 -82z m76 -25
c7 -29 -9 -53 -36 -53 -15 0 -19 7 -19 33 0 57 41 73 55 20z"/>
<path d="M1040 1378 c12 -21 20 -51 20 -80 0 -48 -16 -98 -32 -98 -4 0 -8 -5
-8 -12 0 -24 47 34 59 72 13 45 7 83 -21 123 -27 38 -42 34 -18 -5z"/>
<path d="M2651 1396 c-11 -13 -8 -15 15 -13 33 2 47 -30 20 -45 -15 -8 -14
-11 6 -28 19 -15 21 -22 12 -37 -7 -11 -22 -17 -38 -16 -14 1 -26 -3 -26 -8 0
-6 14 -9 32 -7 39 4 67 43 53 74 -5 10 -9 35 -10 54 0 30 -4 35 -26 38 -14 2
-31 -4 -38 -12z"/>
<path d="M4593 1383 c9 -2 23 -2 30 0 6 3 -1 5 -18 5 -16 0 -22 -2 -12 -5z"/>
<path d="M2512 1343 c-2 -30 -5 -33 -34 -34 l-33 -1 30 -7 c23 -5 31 -13 36
-36 l7 -30 1 32 c1 28 5 32 34 36 l32 4 -32 1 c-28 2 -32 6 -36 35 l-4 32 -1
-32z"/>
<path d="M3405 1274 c0 -70 3 -84 16 -84 11 0 14 7 11 29 -3 26 -1 28 20 24
34 -6 50 17 46 69 l-3 43 -45 2 -45 1 0 -84z m73 54 c28 -28 2 -88 -33 -74
-15 5 -22 66 -8 79 10 11 28 8 41 -5z"/>
<path d="M3640 1351 c0 -5 7 -12 16 -15 23 -9 14 -58 -14 -72 -14 -7 -19 -15
-13 -18 5 -4 19 3 29 15 l20 21 7 -21 c8 -25 18 -27 35 -6 11 13 10 14 -2 10
-10 -4 -17 1 -21 16 -8 29 9 60 28 53 8 -4 15 -1 15 4 0 20 -18 22 -35 5 -16
-16 -18 -16 -27 0 -9 18 -38 24 -38 8z"/>
<path d="M4952 1351 c-21 -13 -10 -46 16 -49 27 -4 40 22 22 43 -14 17 -20 18
-38 6z m38 -26 c0 -8 -6 -15 -14 -15 -17 0 -28 14 -19 24 12 12 33 6 33 -9z"/>
<path d="M1558 1343 c12 -2 30 -2 40 0 9 3 -1 5 -23 4 -22 0 -30 -2 -17 -4z"/>
<path d="M2288 1343 c7 -2 17 -13 22 -24 13 -23 -3 -59 -25 -59 -17 0 -29 -17
-17 -24 5 -3 18 4 30 14 19 18 22 18 30 3 10 -17 42 -12 42 6 0 6 -7 8 -15 5
-10 -4 -15 0 -15 14 0 31 11 52 26 52 8 0 14 5 14 10 0 17 -27 11 -35 -7 -6
-17 -7 -17 -16 0 -6 9 -20 17 -32 16 -12 0 -16 -3 -9 -6z"/>
<path d="M4675 1341 c-3 -6 -25 -12 -48 -12 -30 -2 -34 -3 -14 -6 23 -4 27 -9
27 -38 0 -29 -4 -34 -30 -40 -29 -6 -37 -15 -24 -27 3 -3 22 2 42 11 20 10 48
22 62 29 24 10 23 11 -7 5 -31 -5 -33 -4 -33 26 0 28 3 31 31 31 19 0 29 4 27
12 -6 16 -25 21 -33 9z"/>
<path d="M4167 1315 c18 -25 33 -32 33 -17 0 10 -33 42 -44 42 -4 0 1 -11 11
-25z"/>
<path d="M1640 1297 c0 -15 8 -39 17 -53 16 -26 16 -26 -13 -22 -23 2 -30 8
-32 31 -2 15 -7 27 -12 27 -5 0 -8 -12 -7 -27 2 -22 -2 -28 -18 -28 -16 0 -20
6 -18 28 1 15 -2 27 -8 27 -5 0 -9 -17 -9 -37 l0 -38 114 -3 c70 -2 116 0 120
7 10 16 -12 23 -34 11 -24 -13 -28 4 -7 35 7 11 11 31 8 45 -5 22 -11 25 -54
25 -45 0 -47 -1 -47 -28z m90 -2 c0 -11 -11 -15 -40 -15 -29 0 -40 4 -40 15 0
11 11 15 40 15 29 0 40 -4 40 -15z m-10 -39 c0 -7 -7 -19 -15 -26 -13 -11 -18
-10 -30 6 -21 28 -18 34 15 34 19 0 30 -5 30 -14z"/>
<path d="M1560 1310 c-22 -7 -21 -8 13 -9 20 -1 37 4 37 9 0 11 -14 11 -50 0z"/>
<path d="M3110 1285 c0 -18 19 -40 26 -32 4 4 0 15 -9 24 -9 10 -17 13 -17 8z"/>
<path d="M3070 1275 c0 -15 18 -40 24 -34 3 3 -1 14 -9 25 -8 10 -14 15 -15 9z"/>
<path d="M4221 1258 c-1 -27 -8 -32 -41 -29 -11 1 -10 -3 5 -14 16 -13 21 -13
33 -1 8 7 12 26 9 42 l-4 29 -2 -27z"/>
<path d="M4801 1264 c0 -11 3 -14 6 -6 3 7 2 16 -1 19 -3 4 -6 -2 -5 -13z"/>
<path d="M3000 1251 c-12 -24 -13 -34 -1 -27 9 6 22 46 15 46 -2 0 -8 -9 -14
-19z"/>
<path d="M3042 1250 c0 -14 2 -19 5 -12 2 6 2 18 0 25 -3 6 -5 1 -5 -13z"/>
<path d="M1884 1219 c-19 -22 -19 -22 3 -10 24 12 39 31 25 31 -5 0 -17 -10
-28 -21z"/>
<path d="M11350 763 c-12 -41 -14 -44 -17 -22 -3 22 -8 25 -30 21 -23 -4 -24
-3 -14 17 8 14 8 21 1 21 -5 0 -10 -7 -10 -15 0 -7 -6 -18 -14 -22 -14 -9 -28
-117 -17 -143 4 -9 20 -15 44 -16 l37 -1 0 49 c0 68 29 110 74 106 l31 -3 -3
-70 c-3 -75 -14 -97 -40 -88 -15 4 -15 3 -2 -6 38 -27 47 -12 56 92 3 39 8 75
11 79 2 5 -17 8 -42 8 -42 0 -46 2 -40 20 3 11 2 20 -2 20 -5 0 -15 -21 -23
-47z m-36 -21 c3 -5 2 -18 -1 -30 -8 -32 -53 -31 -53 1 0 13 3 27 7 30 9 10
41 9 47 -1z m-4 -92 c0 -25 -4 -30 -25 -30 -21 0 -25 5 -25 30 0 25 4 30 25
30 21 0 25 -5 25 -30z"/>
<path d="M10080 793 c0 -6 5 -15 10 -18 17 -11 11 -23 -12 -27 -13 -2 16 -7
64 -12 71 -6 87 -11 91 -26 3 -13 0 -18 -12 -18 -28 2 -146 -14 -151 -19 -3
-3 21 -3 53 0 55 5 57 5 57 -19 0 -13 5 -24 10 -24 6 0 10 11 10 25 0 18 5 25
19 25 19 0 31 -18 31 -49 0 -10 10 -31 22 -47 l23 -28 6 39 c8 47 3 58 -10 24
-9 -24 -9 -23 -25 13 -9 21 -16 51 -16 68 0 27 3 30 30 30 l31 0 -18 25 c-10
13 -22 25 -27 25 -5 0 -3 -6 3 -14 8 -10 9 -16 1 -21 -17 -11 -28 3 -22 30 2
15 0 25 -7 25 -6 0 -11 -13 -11 -30 0 -28 -2 -30 -40 -30 -22 0 -40 5 -40 10
0 6 -7 10 -16 10 -9 0 -24 10 -35 23 -10 12 -18 17 -19 10z"/>
<path d="M10390 786 c0 -7 -9 -25 -20 -39 -14 -17 -16 -27 -8 -29 13 -5 14
-56 3 -115 -4 -21 -3 -33 3 -29 5 3 12 19 15 36 5 24 12 30 32 30 32 0 45 -28
21 -45 -14 -11 -14 -14 -2 -18 18 -7 26 1 26 25 0 16 6 19 32 16 25 -2 34 -9
39 -28 l7 -25 1 28 c1 22 6 27 26 27 16 0 25 6 25 16 0 13 -3 14 -15 4 -22
-18 -35 -3 -35 41 0 22 4 38 9 35 11 -7 26 11 35 42 7 21 5 22 -56 21 -49 0
-58 -2 -40 -9 20 -9 21 -12 10 -32 -7 -13 -11 -29 -10 -35 2 -7 -2 -23 -9 -35
-11 -22 -10 -22 6 -6 10 9 19 27 20 41 5 39 24 67 46 67 15 0 19 -5 15 -16 -3
-9 -6 -18 -6 -20 0 -2 -8 -4 -17 -4 -15 0 -18 -9 -18 -47 0 -47 -1 -48 -32
-51 l-33 -3 0 55 c0 45 -3 54 -15 50 -17 -7 -21 11 -5 21 16 10 12 25 -6 25
-10 0 -14 -6 -11 -14 5 -14 -10 -36 -25 -36 -4 0 -8 7 -8 15 0 8 5 15 10 15 6
0 10 9 10 20 0 11 -4 20 -10 20 -5 0 -10 -6 -10 -14z m18 -101 c1 -19 -3 -35
-7 -35 -5 0 -9 16 -9 35 0 19 3 35 7 35 4 0 8 -16 9 -35z m38 -4 c3 -22 0 -31
-8 -29 -7 3 -13 19 -14 37 -2 42 18 35 22 -8z"/>
<path d="M10680 784 c-29 -11 -31 -13 -11 -13 22 -1 23 -4 18 -46 -4 -25 -14
-57 -23 -70 -9 -14 -14 -28 -11 -31 3 -3 11 5 19 18 12 22 13 21 19 -27 l6
-50 1 54 c2 46 4 52 17 41 8 -7 15 -8 15 -2 0 5 -7 15 -15 22 -9 8 -15 30 -15
56 0 38 3 44 21 44 11 0 17 5 14 10 -7 12 -10 12 -55 -6z"/>
<path d="M10803 793 c-29 -2 -53 -8 -53 -14 0 -5 -6 -9 -14 -9 -14 0 -29 -37
-20 -52 3 -4 11 -8 17 -8 8 0 7 3 -2 9 -17 11 -5 32 14 24 10 -3 15 2 15 16 0
12 5 21 10 21 6 0 10 -9 10 -20 0 -11 5 -20 11 -20 8 0 8 -4 0 -14 -9 -11 -9
-15 1 -19 7 -3 -3 -6 -22 -7 -19 -1 -28 -4 -20 -7 24 -10 31 -27 12 -35 -12
-5 -10 -7 11 -7 37 -1 34 -21 -4 -21 -19 0 -28 -4 -23 -11 3 -6 17 -8 30 -5
21 6 24 3 25 -21 l1 -28 7 25 c5 19 16 27 41 31 36 6 23 13 -17 9 -13 -1 -23
3 -23 9 0 6 14 11 31 11 17 0 28 4 24 10 -3 5 -13 6 -23 3 -15 -6 -15 -5 -3
10 7 9 20 17 28 17 8 0 11 4 8 10 -3 5 -18 7 -34 4 -24 -5 -28 -3 -26 18 1 12
8 23 16 23 8 0 13 -6 12 -12 -2 -7 3 -13 10 -13 7 0 13 16 14 40 2 22 -1 39
-5 38 -4 -1 -31 -3 -59 -5z m12 -22 c3 -5 1 -12 -5 -16 -5 -3 -10 1 -10 9 0
18 6 21 15 7z m35 -1 c0 -5 -4 -10 -10 -10 -5 0 -10 5 -10 10 0 6 5 10 10 10
6 0 10 -4 10 -10z m-30 -95 c0 -8 -7 -15 -15 -15 -8 0 -15 7 -15 15 0 8 7 15
15 15 8 0 15 -7 15 -15z"/>
<path d="M10982 761 c-7 -21 -19 -44 -27 -51 -8 -7 -15 -17 -15 -23 0 -5 9 -2
20 8 19 17 19 16 23 -56 3 -73 3 -72 5 19 1 66 7 100 18 117 14 21 14 25 2 25
-9 0 -20 -17 -26 -39z"/>
<path d="M11040 783 c0 -10 -9 -33 -20 -50 -11 -18 -16 -33 -12 -33 4 0 13 9
20 20 7 11 21 20 33 20 19 0 20 -5 17 -80 -2 -59 0 -80 10 -80 8 0 12 23 12
80 0 80 0 80 26 80 20 0 25 -4 20 -17 -6 -15 -4 -15 14 2 28 25 18 31 -51 27
-61 -4 -76 7 -47 36 9 9 8 12 -5 12 -10 0 -17 -8 -17 -17z"/>
<path d="M9400 780 c0 -5 -9 -10 -20 -10 -11 0 -20 -2 -20 -4 0 -2 -3 -13 -7
-23 -6 -17 -5 -17 15 1 18 16 22 16 22 4 0 -8 -9 -27 -21 -42 -11 -14 -16 -26
-10 -26 7 0 11 -24 11 -61 0 -38 4 -58 10 -54 6 3 7 17 4 31 -5 20 -3 24 16
24 17 0 21 -4 17 -20 -3 -12 0 -20 8 -20 7 0 12 8 11 17 0 10 9 20 24 24 l25
7 -27 1 c-40 1 -36 29 5 34 l32 4 -33 1 c-40 2 -39 25 1 30 15 2 25 7 22 12
-3 5 -12 7 -20 3 -9 -3 -22 0 -30 7 -10 9 -15 9 -15 1 0 -6 -7 -11 -15 -11
-20 0 -19 15 1 35 19 19 60 16 56 -4 -3 -12 0 -12 12 -1 25 20 19 30 -19 30
-19 0 -35 5 -35 10 0 6 -4 10 -10 10 -5 0 -10 -4 -10 -10z m18 -97 c2 -8 -5
-13 -17 -13 -12 0 -21 6 -21 16 0 18 31 15 38 -3z m2 -38 c0 -8 -9 -15 -20
-15 -11 0 -20 7 -20 15 0 8 9 15 20 15 11 0 20 -7 20 -15z"/>
<path d="M6503 766 c6 -16 2 -17 -33 -13 -37 4 -42 2 -55 -24 -14 -26 -14 -28
8 -31 20 -3 22 -9 25 -66 2 -36 7 -60 12 -57 6 4 10 4 10 0 0 -3 -12 -10 -26
-16 -15 -5 -24 -12 -21 -15 3 -4 26 3 50 15 l44 21 47 -19 c25 -11 46 -16 46
-11 0 4 -5 10 -11 12 -5 2 -11 34 -13 71 -2 66 -1 67 23 68 24 2 24 2 4 6 -13
2 -23 9 -23 14 0 12 -127 12 -135 -1 -10 -16 -35 -12 -29 4 8 21 174 27 174 7
0 -11 3 -11 15 -1 27 23 17 33 -28 27 -32 -5 -50 -2 -67 10 -22 16 -23 16 -17
-1z m0 -53 c-7 -2 -19 -2 -25 0 -7 3 -2 5 12 5 14 0 19 -2 13 -5z m60 0 c-7
-2 -21 -2 -30 0 -10 3 -4 5 12 5 17 0 24 -2 18 -5z m-63 -28 c0 -8 5 -15 10
-15 6 0 10 7 10 15 0 9 9 15 23 15 16 0 23 -6 23 -20 0 -17 -7 -20 -52 -20
-47 0 -52 2 -47 20 6 23 33 27 33 5z m48 -42 c-15 -2 -42 -2 -60 0 -18 2 -6 4
27 4 33 0 48 -2 33 -4z m22 -33 c0 -17 -7 -20 -53 -20 -46 0 -53 3 -54 20 -2
18 4 20 53 20 47 0 54 -2 54 -20z"/>
<path d="M7618 768 c19 -19 14 -28 -15 -29 -23 -1 -24 -2 -6 -6 l22 -4 -19
-32 c-26 -41 -25 -50 3 -42 20 6 20 4 -6 -19 -18 -17 -23 -26 -13 -26 17 0 99
90 90 99 -3 3 -13 -4 -21 -16 -15 -22 -53 -32 -53 -15 0 20 48 52 78 52 32 0
42 13 20 26 -6 4 -14 2 -16 -4 -6 -18 -26 -14 -40 8 -7 11 -18 20 -24 20 -9 0
-9 -3 0 -12z"/>
<path d="M7884 771 c7 -11 -40 -24 -62 -17 -11 4 -21 -3 -29 -19 -6 -14 -8
-25 -3 -25 4 0 10 7 14 15 4 12 25 15 97 15 51 0 89 -3 86 -7 -4 -3 -46 -9
-94 -13 l-88 -7 86 -2 c72 -1 89 2 102 17 26 29 21 34 -35 31 -33 -2 -53 1
-56 9 -2 7 -8 12 -13 12 -6 0 -8 -4 -5 -9z"/>
<path d="M8113 773 c-18 -2 -33 -9 -33 -15 0 -5 7 -8 15 -4 10 3 15 -1 15 -14
0 -10 -8 -21 -17 -23 -17 -4 -17 -5 0 -6 21 -1 21 -3 2 -48 -20 -47 -19 -53 4
-24 l18 24 -4 -50 c-3 -31 -1 -53 6 -57 8 -5 11 15 11 66 0 51 3 68 10 58 5
-8 10 -10 10 -4 0 5 -5 15 -12 22 -9 9 -8 12 5 12 9 0 17 5 17 11 0 6 -7 9
-15 5 -22 -8 -19 30 3 43 9 6 13 10 7 9 -5 -1 -25 -3 -42 -5z"/>
<path d="M8213 768 c-24 -5 -43 -12 -43 -16 1 -12 30 -46 30 -35 0 7 -5 15
-11 19 -8 4 -6 10 6 17 23 13 35 -7 32 -53 -2 -25 -8 -36 -21 -38 -14 -3 -17
0 -11 17 4 12 2 21 -4 21 -6 0 -11 -16 -11 -35 0 -22 -6 -38 -17 -44 -16 -10
-17 -10 -1 -11 10 0 18 -10 21 -27 l4 -28 2 28 c1 25 4 27 46 27 33 0 45 -4
45 -15 0 -9 -9 -15 -22 -16 -22 0 -22 -1 -3 -9 31 -13 35 -12 35 15 0 17 6 25
18 25 16 1 15 2 -2 15 -14 11 -17 22 -13 45 4 17 2 30 -3 30 -6 0 -10 -9 -10
-20 0 -13 -7 -20 -20 -20 -25 0 -26 16 -2 29 15 10 16 10 0 11 -11 0 -18 10
-20 28 -2 22 2 29 27 39 37 14 9 15 -52 1z m15 -130 c-7 -19 -38 -22 -38 -4 0
10 9 16 21 16 12 0 19 -5 17 -12z m50 0 c-3 -7 -11 -13 -18 -13 -7 0 -15 6
-17 13 -3 7 4 12 17 12 13 0 20 -5 18 -12z"/>
<path d="M8420 733 c0 -24 5 -43 10 -43 6 0 10 8 8 18 -3 14 5 17 52 17 47 0
55 -3 52 -17 -2 -10 2 -18 8 -18 5 0 10 13 10 29 0 16 2 35 5 43 4 10 -11 13
-70 13 l-75 0 0 -42z m130 17 c0 -6 -27 -10 -60 -10 -33 0 -60 4 -60 10 0 6
27 10 60 10 33 0 60 -4 60 -10z"/>
<path d="M8775 770 c-87 -5 -93 -6 -45 -10 l55 -5 -20 -20 c-11 -11 -36 -33
-55 -48 -35 -28 -35 -28 -4 -13 17 8 36 22 43 30 21 25 33 19 29 -16 -3 -30
-6 -33 -35 -32 l-33 2 0 -50 c0 -42 3 -49 16 -44 9 3 44 6 78 6 l62 0 -2 43
c-2 42 -2 42 -38 39 l-36 -4 0 56 0 56 56 0 c34 0 53 4 49 10 -3 6 -9 9 -13 8
-4 -1 -52 -4 -107 -8z m73 -157 c-3 -27 -6 -28 -60 -31 l-58 -3 0 31 0 30 61
0 c60 0 60 0 57 -27z"/>
<path d="M9075 769 c-58 -3 -78 -6 -47 -7 l52 -2 0 -95 0 -95 28 1 c16 1 20 3
10 6 -16 4 -18 17 -18 93 l0 89 48 3 c26 2 43 5 37 8 -5 3 -55 2 -110 -1z"/>
<path d="M9295 769 c-22 -3 -32 -7 -22 -8 20 -1 21 -13 2 -66 -18 -48 -18 -48
-5 -40 6 4 10 -9 10 -33 0 -37 1 -38 29 -34 27 4 29 7 24 37 -3 18 0 35 5 39
14 8 4 36 -12 36 -7 0 -10 -17 -7 -51 2 -40 0 -50 -10 -47 -9 3 -14 23 -15 59
-2 68 9 97 38 101 13 2 19 5 13 8 -5 3 -28 3 -50 -1z"/>
<path d="M9632 768 c-15 -15 -16 -48 -1 -48 6 0 9 6 6 14 -8 20 17 38 45 34
32 -4 34 -33 4 -69 -14 -17 -26 -40 -25 -52 0 -15 2 -17 6 -7 4 8 19 32 34 53
27 37 29 63 5 79 -17 12 -61 9 -74 -4z"/>
<path d="M4698 752 l-36 -17 -4 -80 c-3 -44 -8 -89 -13 -99 -6 -14 -5 -17 3
-12 7 4 15 25 18 47 6 38 8 39 45 39 39 0 39 0 39 39 0 38 -1 38 -36 37 -22
-1 -39 4 -41 12 -3 6 2 12 9 12 19 0 68 23 68 33 0 10 -9 8 -52 -11z m37 -87
c0 -13 -8 -21 -24 -23 -28 -4 -46 11 -37 33 9 25 61 16 61 -10z"/>
<path d="M4813 752 l-43 -16 1 -56 c1 -30 4 -45 6 -32 3 15 11 22 29 22 23 0
24 -3 26 -72 l2 -73 3 69 c3 57 7 69 23 73 36 10 11 21 -35 15 -43 -4 -45 -3
-45 21 0 22 7 28 48 39 26 8 43 16 37 20 -5 3 -29 -2 -52 -10z"/>
<path d="M5020 755 c0 -11 -12 -15 -45 -15 -57 0 -59 -18 -2 -22 l42 -3 -43
-44 c-48 -49 -49 -70 -1 -25 l31 29 -5 -50 c-2 -27 -7 -59 -11 -70 -3 -11 1
-5 9 13 14 30 18 32 65 32 44 0 50 -2 50 -21 0 -17 -4 -20 -22 -16 -22 6 -22
6 -4 -8 38 -29 43 -21 48 75 l4 66 -64 -4 c-52 -4 -64 -2 -60 9 3 10 28 16 79
19 44 3 72 9 69 15 -2 6 -11 8 -20 7 -19 -5 -16 -5 -69 -3 -37 1 -42 3 -31 16
10 12 10 15 -4 15 -9 0 -16 -7 -16 -15z m95 -90 c0 -5 -24 -11 -52 -13 -43 -2
-53 0 -53 13 0 13 10 15 53 13 28 -2 52 -7 52 -13z m-5 -40 c0 -11 -12 -15
-50 -15 -38 0 -50 4 -50 15 0 11 12 15 50 15 38 0 50 -4 50 -15z"/>
<path d="M5270 746 c-5 -14 -14 -26 -20 -26 -6 0 -10 -33 -10 -82 0 -45 3 -78
8 -74 4 4 7 24 7 44 0 33 3 37 25 37 22 0 25 -4 25 -37 0 -20 3 -40 8 -44 4
-4 7 18 7 49 0 31 4 57 8 57 5 0 14 11 20 25 10 21 18 25 53 25 l42 0 -7 -71
c-8 -86 -11 -92 -45 -84 l-26 6 23 -16 c41 -30 58 4 64 130 l2 49 -48 -3 c-45
-2 -47 -1 -41 19 4 14 3 20 -3 16 -5 -3 -13 -21 -16 -41 -8 -39 -30 -61 -24
-24 3 21 -1 24 -24 21 -32 -4 -34 0 -13 22 9 9 11 17 5 21 -5 3 -14 -5 -20
-19z m40 -61 c0 -21 -5 -25 -30 -25 -25 0 -30 4 -30 25 0 21 5 25 30 25 25 0
30 -4 30 -25z"/>
<path d="M5560 746 c0 -18 -7 -26 -22 -29 l-23 -4 23 -2 c25 -1 24 -17 -5 -73
-7 -16 -10 -28 -5 -28 5 0 14 10 20 23 9 19 11 13 11 -35 1 -32 5 -58 9 -58 4
0 6 29 4 65 -3 41 0 65 6 65 6 0 13 -6 15 -12 4 -9 6 -9 6 1 1 8 -6 23 -16 33
-15 17 -15 18 5 18 12 0 22 5 22 11 0 6 -9 8 -20 4 -15 -5 -20 -2 -20 13 0 11
6 23 13 25 7 3 5 6 -5 6 -13 1 -18 -7 -18 -23z"/>
<path d="M5630 650 c0 -63 4 -110 8 -105 4 6 18 16 32 23 l25 12 -27 -5 c-27
-5 -28 -4 -28 40 l0 45 48 0 47 0 1 53 0 52 -53 0 -53 0 0 -115z m90 85 c0
-11 -11 -15 -40 -15 -29 0 -40 4 -40 15 0 11 11 15 40 15 29 0 40 -4 40 -15z
m-5 -45 c0 -10 -12 -16 -37 -18 -33 -3 -38 0 -38 18 0 18 5 21 38 18 25 -2 37
-8 37 -18z"/>
<path d="M5850 736 c0 -24 -5 -36 -17 -39 -17 -4 -17 -5 0 -6 24 -1 24 -76 0
-90 -10 -5 -15 -12 -11 -16 3 -4 19 1 34 11 15 10 41 19 58 19 81 3 99 6 93
12 -8 7 -102 5 -129 -3 -15 -4 -18 1 -18 26 0 23 5 33 20 37 11 3 20 10 20 15
0 5 -9 6 -20 3 -16 -5 -20 -2 -20 17 0 13 5 29 12 36 9 9 8 12 -5 12 -13 0
-17 -9 -17 -34z"/>
<path d="M5924 728 c-10 -24 -20 -46 -22 -49 -1 -3 18 -6 43 -8 25 -1 45 3 45
8 0 6 -15 7 -36 4 -35 -6 -36 -5 -25 16 9 16 21 21 51 21 21 0 42 -5 45 -10 4
-6 3 -40 0 -75 -7 -64 -8 -65 -39 -66 -17 0 -24 -3 -16 -6 8 -3 18 -11 22 -17
5 -7 13 -6 24 6 12 12 19 41 23 98 l6 80 -49 0 c-43 0 -48 2 -43 20 9 35 -9
21 -29 -22z"/>
<path d="M6157 751 c3 -13 -1 -21 -14 -24 -10 -3 -5 -5 14 -6 l32 -1 -14 -47
c-8 -25 -18 -49 -23 -52 -12 -8 -35 -52 -29 -57 2 -2 15 13 28 34 23 36 26 37
88 40 72 3 85 -4 75 -42 -5 -20 -13 -26 -33 -27 l-26 0 23 -11 c29 -15 42 -2
52 51 7 37 5 41 -12 41 -17 0 -19 5 -14 26 6 21 4 25 -8 21 -12 -5 -16 0 -16
18 0 22 -3 23 -35 18 -31 -5 -35 -3 -35 16 0 28 -20 27 -21 -1 l0 -23 -9 23
c-11 27 -30 30 -23 3z m107 -46 c-7 -16 -59 -21 -68 -6 -9 14 5 21 40 21 26 0
32 -4 28 -15z m24 -37 c-5 -15 -108 -24 -108 -10 0 17 14 22 63 22 34 0 47 -4
45 -12z"/>
<path d="M6707 757 c3 -4 -1 -14 -7 -22 -9 -11 -9 -15 -1 -15 6 0 10 -3 10 -7
-6 -35 3 -73 16 -73 27 0 16 -20 -12 -21 -17 -1 -21 -3 -10 -6 9 -2 17 -11 17
-19 0 -8 6 -14 13 -15 6 0 -1 -7 -18 -14 -20 -10 -24 -14 -12 -15 10 0 27 5
38 11 14 7 29 7 50 0 24 -8 36 -7 55 6 23 14 26 14 43 -1 13 -11 21 -14 26 -7
3 6 2 11 -4 11 -33 0 -25 119 10 141 10 6 3 9 -23 9 -39 0 -49 15 -26 38 9 9
9 12 0 12 -7 0 -15 -8 -18 -17 -19 -58 -28 -73 -43 -71 -8 2 -16 -4 -16 -12 0
-8 -6 -15 -12 -15 -7 0 -13 3 -13 8 0 4 0 14 0 22 0 8 7 15 16 15 8 0 23 7 31
16 14 13 14 17 2 25 -8 4 -14 12 -14 16 0 4 -23 7 -52 7 -28 1 -49 -3 -46 -7z
m43 -17 c0 -5 -7 -10 -15 -10 -8 0 -15 5 -15 10 0 6 7 10 15 10 8 0 15 -4 15
-10z m50 0 c0 -5 -7 -10 -15 -10 -8 0 -15 5 -15 10 0 6 7 10 15 10 8 0 15 -4
15 -10z m-53 -26 c-3 -3 -12 -4 -19 -1 -8 3 -5 6 6 6 11 1 17 -2 13 -5z m50 0
c-3 -3 -12 -4 -19 -1 -8 3 -5 6 6 6 11 1 17 -2 13 -5z m93 -13 c0 -21 -13 -71
-19 -71 -11 0 -33 59 -26 70 8 12 45 13 45 1z m-140 -27 c0 -31 -23 -28 -28 4
-2 15 2 22 12 22 11 0 16 -9 16 -26z m97 -29 c18 -29 16 -42 -8 -64 -17 -15
-26 -18 -40 -10 -27 14 -24 28 9 41 l27 11 -25 7 c-14 5 -19 8 -12 9 6 1 12 8
12 16 0 20 22 14 37 -10z m-67 -15 c0 -5 -4 -10 -10 -10 -5 0 -10 5 -10 10 0
6 5 10 10 10 6 0 10 -4 10 -10z m-10 -30 c0 -5 -7 -10 -15 -10 -8 0 -15 5 -15
10 0 6 7 10 15 10 8 0 15 -4 15 -10z"/>
<path d="M7516 756 c4 -9 -3 -16 -18 -19 -13 -2 -2 -5 25 -6 28 0 47 3 47 10
0 6 -6 9 -14 6 -8 -3 -17 1 -20 9 -3 8 -10 14 -15 14 -6 0 -8 -6 -5 -14z"/>
<path d="M1610 741 c0 -16 -8 -21 -37 -24 l-38 -4 38 -1 c38 -2 38 -2 35 -39
-2 -34 -1 -38 20 -35 12 2 22 -2 22 -7 0 -6 -25 -12 -57 -13 l-58 -1 55 -6 55
-6 1 -37 c1 -55 14 -59 14 -5 l0 47 57 0 c31 0 53 3 49 7 -3 4 -29 6 -57 4
-37 -2 -49 1 -44 9 4 6 13 9 21 6 14 -5 18 8 14 52 -1 19 3 22 34 22 20 0 36
5 36 10 0 7 -13 8 -35 4 -29 -5 -34 -4 -29 9 3 8 1 18 -5 22 -7 3 -11 -2 -11
-14 0 -17 -6 -21 -36 -21 -28 0 -35 3 -31 15 4 8 2 17 -3 20 -6 4 -10 -3 -10
-14z m80 -41 c0 -5 -16 -10 -35 -10 -19 0 -35 5 -35 10 0 6 16 10 35 10 19 0
35 -4 35 -10z m-2 -37 c2 -9 -7 -13 -27 -13 -30 0 -46 11 -34 24 11 11 56 2
61 -11z"/>
<path d="M1934 707 c-2 -64 -21 -105 -71 -146 -20 -17 -35 -33 -32 -35 11 -11
82 60 99 97 l18 40 17 -39 c18 -45 69 -99 84 -89 6 3 -5 20 -25 38 -42 36 -76
108 -72 151 2 16 -1 31 -7 33 -6 2 -11 -20 -11 -50z"/>
<path d="M2224 745 c5 -14 -22 -21 -63 -15 -16 2 -31 -18 -31 -40 1 -12 3 -12
14 3 10 13 28 17 85 17 46 0 70 -4 66 -10 -9 -14 29 -12 43 2 22 22 13 28 -38
28 -36 0 -52 4 -56 15 -4 8 -11 15 -16 15 -6 0 -8 -7 -4 -15z"/>
<path d="M2475 750 c-3 -5 -15 -10 -25 -10 -10 0 -22 -5 -26 -12 -5 -8 0 -9
14 -6 19 5 22 2 22 -21 0 -15 -9 -44 -20 -66 -21 -42 -20 -62 2 -23 12 21 13
19 19 -37 l6 -60 1 74 c2 64 4 72 17 61 9 -7 15 -8 15 -2 0 5 -7 12 -15 16
-22 8 -18 24 8 29 l22 4 -22 2 c-28 1 -30 27 -3 36 11 4 18 11 15 16 -8 12
-22 12 -30 -1z"/>
<path d="M2560 744 c-43 -12 -45 -16 -10 -18 9 -1 16 -13 18 -28 3 -24 0 -28
-22 -28 -23 0 -26 -4 -26 -34 0 -19 -6 -37 -12 -39 -10 -4 -10 -6 0 -6 7 -1
12 -16 13 -38 l1 -38 8 40 c4 22 5 45 3 52 -3 8 3 13 17 13 16 0 20 -4 16 -15
-3 -9 0 -15 9 -15 9 0 12 6 9 15 -4 10 0 15 13 15 16 0 20 -7 21 -35 1 -27 -3
-35 -16 -35 -15 0 -15 -2 -2 -10 24 -15 30 -12 30 15 0 14 7 28 15 31 14 6 14
8 -1 19 -12 8 -15 19 -10 38 6 25 4 27 -25 27 -18 0 -30 3 -26 6 3 3 2 17 -3
30 -9 22 -7 25 20 31 17 3 30 9 30 14 0 11 -13 10 -70 -7z m10 -99 c0 -8 -9
-15 -20 -15 -11 0 -20 7 -20 15 0 8 9 15 20 15 11 0 20 -7 20 -15z m50 -1 c0
-9 -7 -14 -17 -12 -25 5 -28 28 -4 28 12 0 21 -6 21 -16z"/>
<path d="M2818 748 c22 -22 13 -28 -40 -30 -51 -1 -51 -2 -10 -5 40 -4 42 -6
42 -37 0 -54 -20 -95 -58 -121 -20 -14 -30 -25 -22 -25 40 1 100 94 100 155 0
24 3 25 61 25 33 0 58 4 55 9 -3 5 -24 7 -47 4 -33 -5 -43 -2 -55 16 -8 11
-20 21 -27 21 -8 0 -8 -3 1 -12z"/>
<path d="M3045 745 c-27 -13 -28 -14 -7 -15 21 0 23 -3 17 -32 -4 -18 -15 -50
-26 -70 -22 -44 -12 -51 14 -10 l18 27 -3 -58 c-2 -31 0 -57 5 -57 4 0 7 28 7
61 0 54 2 60 15 49 8 -7 15 -8 15 -2 0 5 -7 15 -15 22 -21 17 -19 28 8 33 l22
4 -22 2 c-26 1 -33 41 -8 41 8 0 15 5 15 10 0 13 -18 11 -55 -5z"/>
<path d="M8280 740 c-6 -12 -9 -24 -7 -27 3 -2 11 5 17 17 6 12 9 24 7 27 -3
2 -11 -5 -17 -17z"/>
<path d="M10661 739 c9 -17 8 -23 -2 -30 -10 -6 -10 -9 -2 -9 6 0 15 5 18 10
8 13 -4 50 -16 50 -6 0 -5 -9 2 -21z"/>
<path d="M3120 702 c0 -36 3 -43 16 -38 9 3 34 6 57 6 42 0 42 0 43 38 l1 37
-58 0 -59 0 0 -43z m100 3 c0 -22 -4 -25 -38 -25 -45 0 -52 4 -45 31 4 15 14
19 44 19 35 0 39 -3 39 -25z"/>
<path d="M3731 727 c-31 -34 -43 -83 -31 -126 11 -39 47 -88 57 -77 3 3 -2 15
-13 27 -14 16 -19 36 -19 84 0 48 5 68 19 84 27 29 15 36 -13 8z"/>
<path d="M3941 719 c12 -18 24 -52 27 -78 3 -37 -1 -53 -22 -83 -29 -44 -18
-52 13 -10 40 57 39 128 -2 176 -31 36 -43 33 -16 -5z"/>
<path d="M848 723 c-42 -48 -51 -123 -21 -174 25 -42 43 -43 21 -1 -28 55 -20
152 15 174 6 4 9 9 6 13 -3 3 -13 -3 -21 -12z"/>
<path d="M1021 710 c34 -46 34 -138 -1 -175 -13 -14 -19 -25 -14 -25 30 1 64
63 64 118 0 40 -33 101 -59 110 -8 3 -4 -9 10 -28z"/>
<path d="M4291 726 c-21 -25 -24 -80 -7 -119 12 -29 20 -37 41 -37 21 0 29 8
41 37 27 63 5 133 -41 133 -12 0 -28 -6 -34 -14z m61 -32 c10 -35 1 -89 -17
-104 -19 -16 -35 17 -35 72 0 69 36 91 52 32z"/>
<path d="M2620 715 c-6 -8 -10 -19 -8 -24 1 -5 11 2 21 15 19 26 8 34 -13 9z"/>
<path d="M8843 700 c26 -16 50 -30 54 -30 14 0 -25 35 -54 47 -51 21 -51 15 0
-17z"/>
<path d="M10750 720 c0 -5 5 -10 11 -10 5 0 7 5 4 10 -3 6 -8 10 -11 10 -2 0
-4 -4 -4 -10z"/>
<path d="M10070 709 c0 -5 9 -9 20 -9 11 0 20 2 20 4 0 2 -9 6 -20 9 -11 3
-20 1 -20 -4z"/>
<path d="M10120 710 c0 -5 7 -7 15 -4 8 4 15 8 15 10 0 2 -7 4 -15 4 -8 0 -15
-4 -15 -10z"/>
<path d="M2526 695 c4 -8 8 -15 10 -15 2 0 4 7 4 15 0 8 -4 15 -10 15 -5 0 -7
-7 -4 -15z"/>
<path d="M7508 703 c12 -2 30 -2 40 0 9 3 -1 5 -23 4 -22 0 -30 -2 -17 -4z"/>
<path d="M8458 703 c6 -2 18 -2 25 0 6 3 1 5 -13 5 -14 0 -19 -2 -12 -5z"/>
<path d="M8508 703 c7 -3 16 -2 19 1 4 3 -2 6 -13 5 -11 0 -14 -3 -6 -6z"/>
<path d="M9015 650 c3 -48 0 -62 -13 -70 -15 -8 -14 -9 5 -10 20 0 22 6 25 70
2 48 -1 70 -8 70 -8 0 -11 -20 -9 -60z"/>
<path d="M11370 704 c0 -7 9 -22 20 -35 10 -13 19 -19 20 -13 0 7 -9 22 -20
35 -10 13 -19 19 -20 13z"/>
<path d="M3015 690 c3 -5 8 -10 11 -10 2 0 4 5 4 10 0 6 -5 10 -11 10 -5 0 -7
-4 -4 -10z"/>
<path d="M9145 689 c-4 -6 -5 -13 -2 -16 7 -7 27 6 27 18 0 12 -17 12 -25 -2z"/>
<path d="M11027 658 c-22 -55 -14 -61 11 -9 11 23 17 43 12 46 -4 2 -15 -14
-23 -37z"/>
<path d="M2168 683 c7 -3 16 -2 19 1 4 3 -2 6 -13 5 -11 0 -14 -3 -6 -6z"/>
<path d="M2218 683 c7 -3 16 -2 19 1 4 3 -2 6 -13 5 -11 0 -14 -3 -6 -6z"/>
<path d="M3565 679 c-11 -4 -14 -8 -6 -8 10 -1 12 -19 9 -81 -3 -71 -1 -80 14
-80 14 0 16 6 12 30 -6 28 -4 30 23 30 45 0 69 63 39 103 -15 19 -41 23 -52 6
-4 -7 -9 -7 -13 -1 -3 5 -15 6 -26 1z m79 -42 c8 -21 6 -31 -6 -44 -25 -24
-48 -9 -48 31 0 52 38 61 54 13z"/>
<path d="M7070 666 c0 -21 5 -26 26 -26 21 0 25 4 22 23 -2 14 -11 23 -25 25
-19 3 -23 -1 -23 -22z m40 -1 c0 -8 -7 -15 -15 -15 -8 0 -15 7 -15 15 0 8 7
15 15 15 8 0 15 -7 15 -15z"/>
<path d="M7830 643 l0 -48 65 0 65 0 0 48 0 47 -47 0 c-52 0 -53 -11 -1 -13
51 -3 39 -22 -15 -25 -45 -3 -48 -2 -42 17 5 15 2 21 -9 21 -12 0 -16 -11 -16
-47z m115 -18 c0 -5 -21 -11 -47 -13 -39 -3 -48 0 -48 13 0 13 9 16 48 13 26
-2 47 -7 47 -13z"/>
<path d="M8582 677 c-8 -10 -6 -13 9 -13 20 0 25 11 10 20 -5 3 -13 0 -19 -7z"/>
<path d="M11143 651 c12 -22 24 -37 26 -35 7 6 -30 74 -40 74 -4 0 2 -18 14
-39z"/>
<path d="M912 664 c-39 -27 -23 -104 23 -104 24 0 61 28 50 38 -3 4 -10 0 -14
-7 -13 -21 -45 -8 -55 22 -8 22 -6 31 8 45 16 16 18 16 30 0 16 -22 26 -23 26
-4 0 12 -20 26 -39 26 -3 0 -17 -7 -29 -16z"/>
<path d="M3811 673 c38 -10 25 -83 -13 -83 -10 0 -18 -4 -18 -10 0 -18 29 -10
45 13 l15 22 7 -23 c6 -25 33 -27 41 -3 3 8 0 11 -7 7 -15 -10 -32 35 -19 52
6 6 17 12 24 12 8 0 14 5 14 10 0 14 -13 13 -28 -2 -9 -9 -15 -9 -24 0 -7 7
-21 11 -32 11 -16 -1 -17 -2 -5 -6z"/>
<path d="M10568 673 c7 -3 16 -2 19 1 4 3 -2 6 -13 5 -11 0 -14 -3 -6 -6z"/>
<path d="M2170 655 c0 -6 24 -9 60 -7 50 3 60 1 60 -12 0 -13 -12 -16 -60 -16
-59 0 -60 -1 -60 -27 0 -28 1 -28 65 -28 l65 0 0 43 c0 23 -1 45 -2 48 -5 11
-128 10 -128 -1z m120 -60 c0 -12 -13 -15 -55 -15 -42 0 -55 3 -55 15 0 12 13
15 55 15 42 0 55 -3 55 -15z"/>
<path d="M2873 663 c24 -4 27 -8 27 -46 0 -53 -12 -71 -39 -64 -24 6 -29 -8
-5 -17 41 -16 44 -11 59 92 l7 42 -39 -1 c-30 -2 -32 -3 -10 -6z"/>
<path d="M4075 660 c8 -12 125 -11 125 1 0 5 -30 9 -66 9 -41 0 -63 -4 -59
-10z"/>
<path d="M5377 646 c10 -13 20 -20 21 -15 5 12 -17 39 -30 39 -5 0 -1 -11 9
-24z"/>
<path d="M7513 663 c9 -2 25 -2 35 0 9 3 1 5 -18 5 -19 0 -27 -2 -17 -5z"/>
<path d="M7642 620 c-52 -60 -82 -66 -82 -17 0 31 -2 33 -32 33 -31 0 -33 -2
-33 -36 0 -19 5 -34 10 -32 21 5 29 10 18 11 -7 1 -13 10 -13 21 0 14 7 20 21
20 17 0 20 -5 17 -23 -9 -46 38 -52 84 -10 17 15 20 15 43 -7 14 -13 28 -21
31 -17 3 3 -6 16 -20 28 l-25 22 20 28 c33 47 7 33 -39 -21z"/>
<path d="M8388 663 c6 -2 18 -2 25 0 6 3 1 5 -13 5 -14 0 -19 -2 -12 -5z"/>
<path d="M8430 650 c0 -11 -12 -39 -26 -63 l-27 -42 30 27 c27 26 30 27 46 11
18 -19 132 -32 147 -17 5 5 -13 9 -43 9 -47 0 -52 2 -55 23 -2 15 1 23 10 21
33 -4 79 2 74 10 -3 5 -24 7 -46 4 -36 -5 -40 -3 -40 16 0 11 -3 21 -8 21 -4
0 -6 -20 -4 -45 4 -48 -5 -56 -32 -26 -10 11 -15 28 -12 45 3 14 0 26 -5 26
-5 0 -9 -9 -9 -20z"/>
<path d="M8528 663 c7 -3 16 -2 19 1 4 3 -2 6 -13 5 -11 0 -14 -3 -6 -6z"/>
<path d="M3198 655 c-3 -3 -25 -9 -49 -14 -40 -8 -41 -9 -11 -10 21 -1 32 -6
32 -15 0 -9 -13 -16 -32 -19 l-33 -4 33 -1 c24 -2 32 -7 32 -21 0 -16 -8 -21
-42 -24 -24 -2 -6 -4 40 -5 45 -1 82 2 82 7 0 5 -14 8 -32 7 -23 -1 -33 4 -36
17 -3 13 3 17 27 17 17 0 31 5 31 10 0 6 -12 9 -27 8 -35 -4 -39 25 -5 30 12
2 22 8 22 13 0 10 -23 13 -32 4z"/>
<path d="M5681 621 c13 -36 54 -75 69 -66 8 5 0 14 -21 27 -32 19 -32 21 -14
34 10 8 23 14 28 14 4 0 5 5 2 11 -5 7 -13 5 -24 -5 -22 -20 -31 -20 -31 -1 0
8 -4 15 -9 15 -6 0 -6 -11 0 -29z"/>
<path d="M10070 607 c0 -32 3 -38 16 -33 9 3 24 6 35 6 15 0 19 7 19 33 0 31
-2 33 -35 33 -34 0 -35 -1 -35 -39z m58 6 c-5 -26 -38 -29 -38 -4 0 15 6 21
21 21 14 0 19 -5 17 -17z"/>
<path d="M10188 618 c-21 -6 -38 -14 -38 -20 0 -5 10 -6 23 -2 43 13 67 24 67
29 0 6 -5 6 -52 -7z"/>
<path d="M4097 613 c18 -2 50 -2 70 0 21 2 7 4 -32 4 -38 0 -55 -2 -38 -4z"/>
<path d="M6201 613 c0 -4 4 -17 9 -28 8 -19 9 -19 9 2 1 12 -3 25 -9 28 -5 3
-10 3 -9 -2z"/>
<path d="M6240 613 c0 -4 5 -15 10 -23 8 -13 10 -13 10 2 0 9 -4 20 -10 23 -5
3 -10 3 -10 -2z"/>
<path d="M6286 607 c3 -10 9 -15 12 -12 3 3 0 11 -7 18 -10 9 -11 8 -5 -6z"/>
<path d="M4749 574 c-9 -19 -13 -34 -8 -34 12 0 31 38 27 54 -2 7 -10 -2 -19
-20z"/>
<path d="M9660 595 c0 -8 5 -15 10 -15 6 0 10 7 10 15 0 8 -4 15 -10 15 -5 0
-10 -7 -10 -15z"/>
<path d="M6162 580 c-8 -13 -8 -20 -2 -20 6 0 13 7 17 15 9 24 -1 27 -15 5z"/>
<path d="M9171 591 c-10 -6 -9 -10 3 -14 8 -3 18 -2 21 3 8 13 -9 20 -24 11z"/>
<path d="M9465 590 c-8 -13 9 -20 24 -11 10 6 9 10 -3 14 -8 3 -18 2 -21 -3z"/>
<path d="M1583 568 c-18 -11 -33 -24 -33 -29 0 -9 67 27 76 42 8 14 -8 9 -43
-13z"/>
<path d="M1720 561 c19 -16 39 -27 43 -24 13 8 -12 31 -46 43 l-32 11 35 -30z"/>
<path d="M7885 570 l-100 -6 113 -2 c69 -1 112 2 112 8 0 6 -6 9 -12 8 -7 -1
-58 -5 -113 -8z"/>
<path d="M9048 573 c7 -3 16 -2 19 1 4 3 -2 6 -13 5 -11 0 -14 -3 -6 -6z"/>
<path d="M2329 555 c-3 -2 -51 -5 -107 -6 -56 0 -102 -5 -102 -10 0 -5 54 -9
121 -9 89 0 120 3 117 12 -5 13 -22 21 -29 13z"/>
<path d="M11220 419 c0 -6 -14 -31 -31 -57 -18 -26 -27 -42 -20 -36 6 6 25 9
41 6 42 -6 39 -35 -9 -83 -21 -22 -33 -39 -27 -39 21 0 65 54 72 88 6 29 10
32 41 32 l34 0 -3 -47 c-3 -46 -4 -48 -33 -46 -28 2 -29 1 -11 -12 11 -8 23
-15 27 -15 16 0 30 31 36 79 4 37 10 51 19 47 24 -9 24 11 0 22 -13 6 -30 24
-37 41 -8 17 -21 31 -29 31 -9 0 -11 -3 -5 -8 6 -4 20 -21 32 -39 19 -27 20
-32 7 -37 -19 -7 -124 -8 -124 -1 0 2 9 19 20 37 22 37 25 48 10 48 -5 0 -10
-5 -10 -11z"/>
<path d="M10912 397 c-49 -52 -48 -139 3 -187 28 -26 34 -17 8 12 -27 30 -30
120 -5 163 25 41 23 44 -6 12z"/>
<path d="M11430 413 c0 -4 8 -15 18 -26 26 -29 23 -117 -6 -156 -24 -33 -16
-43 11 -13 35 39 40 106 12 174 -6 16 -35 33 -35 21z"/>
<path d="M10977 403 c-14 -14 -6 -23 11 -14 13 7 23 6 30 -1 18 -18 14 -36
-10 -49 l-22 -12 23 -8 c36 -14 25 -53 -17 -57 -36 -4 -34 -22 2 -22 43 0 70
53 47 89 -6 9 -6 22 0 32 14 27 0 49 -30 49 -15 0 -31 -3 -34 -7z"/>
<path d="M1559 362 c-23 -46 -23 -48 3 -24 25 23 25 23 31 3 5 -21 27 -30 27
-11 0 6 -5 10 -12 10 -8 0 -9 3 -2 10 6 6 18 8 27 5 31 -12 -7 -69 -62 -92
-18 -8 -31 -17 -28 -19 3 -3 15 0 27 6 29 16 139 17 167 2 13 -7 24 -8 27 -3
4 5 -9 14 -27 20 -47 16 -85 57 -68 74 10 9 17 7 33 -13 21 -24 21 -24 15 -2
-4 18 -1 22 18 22 13 0 27 5 31 11 5 8 -6 10 -34 7 -22 -2 -38 0 -36 3 2 4 -3
9 -11 13 -9 3 -15 0 -15 -9 0 -10 -9 -12 -37 -8 -21 3 -43 10 -49 14 -7 6 -16
-1 -25 -19z m121 -83 c0 -5 -14 -9 -32 -9 -30 0 -31 0 -13 20 14 15 21 17 32
9 7 -6 13 -15 13 -20z"/>
<path d="M1920 376 c0 -14 -8 -17 -41 -15 -31 3 -43 -1 -51 -15 -12 -21 4 -36
39 -36 15 0 21 -5 17 -14 -3 -8 2 -16 13 -18 13 -4 8 -8 -17 -16 l-35 -12 38
6 c21 3 37 1 37 -5 0 -5 -24 -12 -52 -14 l-53 -3 53 -2 52 -2 0 -35 c0 -19 5
-35 10 -35 6 0 10 16 10 35 l0 35 52 0 c28 0 48 3 44 7 -4 4 -26 6 -50 4 -33
-2 -45 2 -50 15 -6 17 4 17 47 -1 10 -4 17 -3 17 4 0 6 -8 11 -18 11 -10 0
-22 3 -25 7 -12 11 14 33 39 33 13 0 24 5 24 11 0 6 -7 8 -17 5 -9 -4 -20 -1
-24 6 -7 10 -11 10 -21 0 -17 -17 -39 -15 -31 4 4 12 18 15 56 13 28 -2 52 2
54 7 2 6 -13 9 -38 7 -29 -2 -48 2 -61 13 -17 16 -18 16 -18 0z m-6 -41 c-4
-9 -19 -15 -40 -15 -24 0 -34 5 -34 15 0 11 11 15 40 15 31 0 38 -3 34 -15z
m29 -41 c-3 -8 -12 -13 -20 -10 -8 3 -17 6 -19 6 -3 0 -2 5 1 10 11 17 45 12
38 -6z"/>
<path d="M2182 278 c2 -15 11 -24 26 -26 18 -3 22 1 22 22 0 21 -5 26 -26 26
-21 0 -25 -4 -22 -22z m38 -3 c0 -8 -7 -15 -15 -15 -8 0 -15 7 -15 15 0 8 7
15 15 15 8 0 15 -7 15 -15z"/>
<path d="M1580 196 c0 -31 3 -37 16 -32 9 3 40 6 70 6 l54 0 0 33 0 32 -70 0
-70 0 0 -39z m128 2 c3 -15 -5 -18 -52 -18 -50 0 -56 2 -56 21 0 18 5 20 52
17 41 -2 54 -7 56 -20z"/>
<path d="M1870 201 c0 -5 -9 -13 -21 -16 -11 -4 -18 -9 -16 -12 3 -2 22 5 44
16 31 16 34 20 16 21 -13 0 -23 -4 -23 -9z"/>
<path d="M1970 205 c0 -2 14 -11 30 -20 18 -9 30 -11 30 -5 0 6 -12 15 -26 20
-29 11 -34 12 -34 5z"/>
</g>
</svg>
