<?xml version="1.0" standalone="no"?>
<!DOCTYPE svg PUBLIC "-//W3C//DTD SVG 20010904//EN"
 "http://www.w3.org/TR/2001/REC-SVG-20010904/DTD/svg10.dtd">
<svg version="1.0" xmlns="http://www.w3.org/2000/svg"
 width="1162.000000pt" height="278.000000pt" viewBox="0 0 1162.000000 278.000000"
 preserveAspectRatio="xMidYMid meet">
<metadata>
Created by potrace 1.16, written by Peter Selinger 2001-2019
</metadata>
<g transform="translate(0.000000,278.000000) scale(0.100000,-0.100000)"
fill="#000000" stroke="none">
<path d="M2922 2678 c-17 -17 -15 -33 3 -18 8 6 19 9 25 5 15 -9 12 -41 -6
-55 -8 -8 -20 -22 -25 -32 -9 -16 -6 -18 26 -18 19 0 35 5 35 10 0 6 -12 10
-27 10 -27 0 -27 0 -6 15 26 18 38 62 22 81 -14 17 -31 18 -47 2z"/>
<path d="M3382 2678 c-7 -7 -12 -16 -12 -22 0 -6 5 -5 12 2 20 20 38 14 38
-13 0 -15 -11 -36 -25 -49 -14 -13 -25 -26 -25 -30 0 -12 68 -6 73 7 4 10 -2
13 -21 9 l-26 -5 22 28 c12 15 22 35 22 44 0 19 -19 41 -35 41 -6 0 -16 -5
-23 -12z"/>
<path d="M8818 2628 c-33 -36 -35 -42 -9 -28 12 6 22 6 25 1 4 -5 -7 -12 -24
-16 -16 -4 -30 -11 -30 -16 0 -12 7 -11 32 2 36 19 30 2 -7 -20 l-37 -21 4 60
c1 33 0 60 -4 60 -5 0 -8 -16 -8 -35 0 -23 -5 -35 -14 -35 -18 0 -26 22 -19
49 3 12 1 21 -6 21 -6 0 -11 -19 -11 -45 0 -42 2 -45 26 -45 32 0 27 -23 -7
-30 -19 -4 -24 -11 -24 -35 -1 -16 -5 -41 -9 -54 -6 -16 -5 -21 3 -17 6 4 16
27 22 52 15 58 35 52 32 -10 -1 -25 3 -44 8 -40 5 3 9 25 9 50 l0 44 55 0 55
0 0 -35 c0 -30 -3 -35 -22 -35 l-22 0 22 -16 c29 -20 33 -16 39 41 5 36 9 45
25 45 11 0 16 5 13 11 -4 6 -14 8 -22 5 -11 -5 -14 -1 -10 13 3 12 -1 22 -11
26 -13 5 -12 9 7 28 25 27 27 37 6 37 -8 0 -15 -6 -15 -13 0 -13 -30 -47 -41
-47 -10 0 -5 45 5 52 7 5 7 10 1 17 -6 6 -20 -1 -37 -21z m62 -73 c0 -23 -4
-25 -42 -25 l-43 0 40 25 c22 13 41 25 43 25 1 0 2 -11 2 -25z"/>
<path d="M9420 2595 c0 -58 -2 -65 -20 -65 -11 0 -20 -6 -20 -12 0 -7 -11 -14
-25 -14 -15 -1 -25 3 -25 12 0 8 9 14 20 14 11 0 20 4 20 9 0 5 -8 7 -19 4
-10 -3 -22 0 -25 6 -5 7 3 11 18 11 22 0 26 5 26 29 0 16 3 36 6 45 5 13 -3
16 -50 16 l-56 0 0 -45 c0 -38 3 -45 20 -45 30 0 24 -18 -7 -23 l-28 -4 28 -2
c33 -1 38 -31 5 -31 -20 0 -23 -6 -25 -42 -1 -28 2 -37 8 -27 5 8 9 24 9 37 0
20 5 22 50 22 l50 0 0 -35 c0 -19 5 -35 10 -35 6 0 10 5 10 10 0 6 18 10 40
10 l40 0 0 48 c0 44 -2 49 -22 48 -18 -1 -24 5 -26 27 -3 24 0 27 28 27 17 0
29 4 26 9 -3 4 -18 6 -32 3 -26 -5 -27 -3 -21 27 4 18 2 31 -3 31 -6 0 -10
-29 -10 -65z m-110 10 c0 -24 -5 -35 -15 -35 -9 0 -15 9 -14 23 0 21 1 21 9 2
7 -16 9 -17 9 -3 1 9 -3 20 -9 23 -15 9 -12 25 5 25 10 0 15 -11 15 -35z m45
0 c0 -42 -21 -42 -22 0 -1 23 3 35 10 32 7 -2 12 -16 12 -32z m113 -122 c3
-32 2 -33 -32 -33 -35 0 -36 1 -36 36 0 34 1 35 33 32 28 -3 32 -7 35 -35z"/>
<path d="M9576 2636 c7 -27 6 -29 -20 -22 -18 4 -25 3 -21 -4 8 -13 105 -13
105 0 0 6 -7 10 -16 10 -9 0 -24 10 -35 23 l-19 22 6 -29z"/>
<path d="M9904 2623 c-10 -55 -34 -115 -57 -140 -10 -12 -17 -27 -15 -35 3 -7
15 5 29 30 23 41 25 42 75 42 47 0 52 -2 58 -25 4 -14 11 -25 16 -25 22 0 8
-19 -15 -22 -25 -3 -25 -3 -6 -15 18 -11 23 -10 35 10 8 12 17 37 21 55 6 27
4 32 -13 32 -15 0 -18 5 -14 25 3 19 0 25 -13 25 -12 0 -15 5 -10 20 6 18 2
20 -32 19 -21 -1 -29 -3 -18 -6 45 -11 38 -45 -6 -36 -25 5 -26 8 -22 44 7 50
-4 51 -13 2z m96 -78 c0 -11 -12 -15 -50 -15 -38 0 -50 4 -50 15 0 11 12 15
50 15 38 0 50 -4 50 -15z m30 -52 c-1 -27 -1 -27 -15 -9 -19 25 -19 36 0 36
10 0 15 -10 15 -27z"/>
<path d="M6050 2643 c0 -6 6 -15 12 -19 9 -6 5 -10 -12 -15 -18 -5 -11 -7 25
-7 28 0 41 3 31 5 -11 3 -28 15 -37 27 -10 11 -18 16 -19 9z"/>
<path d="M6820 2631 c8 -16 6 -21 -8 -24 -13 -4 -11 -5 6 -6 26 -1 32 33 7 43
-13 4 -13 2 -5 -13z"/>
<path d="M6855 2613 c-9 -50 -41 -123 -66 -149 -11 -12 -16 -24 -11 -27 5 -4
19 12 33 33 l24 39 73 1 c64 0 72 -2 72 -19 0 -35 -12 -51 -38 -51 -25 0 -25
-1 -6 -14 16 -13 21 -13 36 0 15 15 31 68 25 89 -1 5 -9 10 -17 10 -10 0 -14
8 -12 23 2 12 -2 22 -8 22 -7 0 -10 -6 -7 -14 3 -7 0 -19 -6 -25 -13 -13 -93
-15 -102 -2 -8 13 28 31 52 27 25 -5 39 4 47 32 7 20 4 22 -31 21 -32 -1 -34
-2 -13 -8 35 -10 31 -25 -8 -29 l-32 -3 6 40 c8 51 -1 54 -11 4z"/>
<path d="M7514 2625 c-3 -14 -12 -25 -20 -25 -11 0 -14 -18 -14 -80 0 -47 4
-80 10 -80 6 0 10 5 10 10 0 14 33 13 48 -2 9 -9 12 0 12 43 0 43 4 57 20 67
11 7 20 19 20 28 0 12 9 14 43 12 l42 -3 -2 -45 c-5 -94 -11 -110 -41 -110
-21 0 -24 -2 -12 -10 39 -26 59 2 66 93 3 34 7 68 9 75 3 8 -10 12 -46 12 -46
0 -50 2 -44 20 3 11 2 20 -3 20 -5 0 -12 -12 -15 -27 -3 -16 -13 -37 -22 -48
-16 -19 -16 -19 -10 8 5 25 4 27 -20 21 -25 -6 -35 8 -15 21 13 8 13 25 0 25
-5 0 -12 -11 -16 -25z m36 -60 c0 -20 -5 -25 -25 -25 -20 0 -25 5 -25 25 0 20
5 25 25 25 20 0 25 -5 25 -25z m0 -65 c0 -25 -4 -30 -25 -30 -21 0 -25 5 -25
30 0 25 4 30 25 30 21 0 25 -5 25 -30z"/>
<path d="M7768 2535 l-3 -110 108 0 107 0 0 110 0 110 -104 0 -105 0 -3 -110z
m52 71 c0 -23 4 -25 53 -29 l52 -3 -57 -2 -58 -2 0 -50 c0 -42 2 -49 18 -44
13 4 12 2 -3 -7 -11 -7 -23 -17 -27 -23 -9 -14 -9 -15 -14 69 -3 39 -2 80 1
93 7 30 35 29 35 -2z m90 4 c0 -16 -7 -20 -35 -20 -28 0 -35 4 -35 20 0 16 7
20 35 20 28 0 35 -4 35 -20z m55 -74 c0 -64 -4 -91 -13 -94 -7 -2 -12 0 -11 5
1 4 0 13 -1 18 -1 6 -1 30 -1 55 1 25 -3 60 -8 78 -9 31 -8 33 12 30 21 -3 22
-8 22 -92z m-45 14 c0 -5 -20 -10 -45 -10 -25 0 -45 5 -45 10 0 6 20 10 45 10
25 0 45 -4 45 -10z m-17 -27 c-13 -2 -35 -2 -50 0 -16 2 -5 4 22 4 28 0 40 -2
28 -4z m17 -23 c0 -5 -20 -10 -45 -10 -25 0 -45 5 -45 10 0 6 20 10 45 10 25
0 45 -4 45 -10z m-15 -32 c41 -19 29 -28 -37 -28 l-63 0 30 19 c37 24 38 24
70 9z"/>
<path d="M8131 2645 c0 -15 47 -70 54 -63 4 3 -7 21 -24 40 -17 18 -30 29 -30
23z"/>
<path d="M8998 2553 c-2 -54 -8 -107 -12 -118 -6 -16 -6 -17 3 -5 27 38 46
210 24 217 -7 3 -12 -29 -15 -94z"/>
<path d="M9175 2640 c-3 -5 3 -10 14 -10 12 0 21 5 21 10 0 6 -6 10 -14 10 -8
0 -18 -4 -21 -10z"/>
<path d="M9695 2640 l-50 -7 48 -1 c45 -2 47 -3 47 -32 0 -31 -6 -34 -58 -32
-22 1 -23 -2 -20 -66 l3 -67 49 -3 c57 -4 70 5 57 39 -9 23 -10 23 -10 3 -1
-24 -19 -34 -57 -34 -26 0 -38 27 -32 76 3 26 7 29 43 32 l40 3 1 49 c0 28 -2
49 -5 48 -3 0 -28 -4 -56 -8z"/>
<path d="M9873 2637 c5 -12 1 -17 -13 -17 -11 0 -20 -5 -20 -11 0 -6 7 -8 16
-5 9 3 20 6 25 6 13 0 11 28 -3 36 -8 5 -9 2 -5 -9z"/>
<path d="M775 2525 l0 -110 103 0 102 0 0 90 c0 50 3 99 6 110 5 19 0 20 -103
20 l-108 0 0 -110z m55 70 c0 -23 3 -25 50 -25 47 0 50 2 50 26 0 19 4 25 18
22 14 -3 17 -17 20 -96 2 -52 -1 -92 -7 -92 -15 0 -24 32 -22 83 l2 47 -60 0
-61 0 0 -45 c0 -47 4 -51 58 -46 12 1 22 -2 22 -7 0 -5 10 -14 23 -20 18 -9
11 -11 -42 -11 -59 -1 -63 0 -45 14 10 8 14 15 7 15 -6 0 -18 -7 -27 -15 -8
-8 -17 -15 -20 -15 -3 0 -6 43 -6 95 0 88 1 95 20 95 15 0 20 -7 20 -25z m83
5 c-4 -15 -14 -20 -37 -20 -25 0 -32 5 -33 20 -2 17 4 20 37 20 33 0 37 -3 33
-20z m10 -70 c5 -18 0 -20 -43 -20 -47 0 -51 4 -41 38 1 1 18 2 40 2 30 0 40
-4 44 -20z m-3 -40 c0 -5 -20 -10 -45 -10 -25 0 -45 5 -45 10 0 6 20 10 45 10
25 0 45 -4 45 -10z"/>
<path d="M1506 2615 c-4 -14 -12 -22 -19 -20 -9 4 -13 -16 -14 -72 -3 -81 3
-116 15 -97 10 16 52 28 52 15 0 -6 5 -11 10 -11 6 0 10 20 10 44 0 28 8 59
21 80 19 32 26 36 61 36 l41 0 -8 -72 c-3 -40 -9 -76 -11 -80 -3 -5 -17 -8
-32 -9 -26 0 -26 -1 -4 -9 25 -11 52 -4 53 14 0 6 4 46 7 89 l8 77 -49 0 c-45
0 -47 1 -37 20 8 16 8 20 -3 20 -9 0 -17 -15 -21 -39 -7 -46 -26 -65 -26 -26
0 23 -3 25 -27 19 l-27 -7 17 26 c14 22 15 27 3 27 -7 0 -17 -11 -20 -25z m34
-60 c0 -20 -5 -25 -25 -25 -20 0 -25 5 -25 25 0 20 5 25 25 25 20 0 25 -5 25
-25z m0 -65 c0 -25 -4 -30 -25 -30 -20 0 -25 5 -25 23 0 28 7 37 32 37 13 0
18 -8 18 -30z"/>
<path d="M1850 2632 c0 -4 5 -13 12 -20 9 -9 -1 -12 -47 -14 -51 -1 -54 -2
-17 -5 27 -3 45 -10 49 -19 10 -27 -16 -90 -52 -127 -20 -21 -31 -37 -24 -37
21 0 79 70 79 96 0 22 4 24 45 24 l45 0 -6 -42 c-8 -53 -19 -67 -47 -62 -15 3
-12 0 6 -7 39 -15 48 -4 54 68 l5 58 -46 -3 c-44 -4 -46 -3 -46 22 0 25 2 26
60 26 33 0 60 4 60 9 0 4 -22 6 -49 3 -43 -4 -50 -2 -56 17 -6 20 -25 30 -25
13z"/>
<path d="M2075 2631 c-6 -5 -19 -11 -30 -14 -18 -4 -18 -5 3 -6 28 -1 30 -31
2 -31 -11 0 -20 -4 -20 -10 0 -5 7 -7 15 -4 20 8 20 -18 -1 -57 -18 -36 -12
-51 8 -17 12 22 13 20 19 -32 l6 -55 1 64 c2 55 4 62 17 51 8 -7 15 -8 15 -2
0 5 -7 15 -16 23 -14 11 -13 14 8 25 l23 13 -22 1 c-27 0 -30 22 -7 44 12 13
12 16 2 16 -8 0 -18 -4 -23 -9z"/>
<path d="M2350 2633 c0 -6 6 -15 12 -19 9 -6 5 -10 -12 -15 l-25 -7 28 -1 c38
-1 36 -33 -7 -104 -19 -31 -31 -57 -26 -57 5 0 18 16 30 35 22 35 22 35 96 35
66 0 74 -2 74 -19 0 -35 -12 -51 -39 -52 l-26 0 24 -10 c32 -13 48 3 57 58 6
40 5 41 -16 36 -21 -6 -22 -3 -16 20 5 21 3 27 -10 27 -11 0 -15 6 -11 20 5
18 0 20 -39 20 -42 0 -44 1 -34 20 9 16 8 20 -5 20 -9 0 -15 -9 -15 -22 l0
-23 -20 25 c-11 14 -20 20 -20 13z m118 -55 c-3 -7 -21 -14 -41 -16 -30 -3
-36 0 -31 12 8 20 78 23 72 4z m20 -42 c12 -13 -15 -26 -53 -26 -44 0 -62 11
-49 31 6 10 90 6 102 -5z"/>
<path d="M6150 2625 c0 -9 -7 -30 -15 -48 l-16 -32 21 24 c11 13 20 32 20 42
0 12 7 19 20 19 15 0 20 -7 20 -29 0 -35 23 -56 47 -45 16 7 15 8 -4 11 -19 4
-23 11 -23 39 0 32 -2 34 -35 34 -25 0 -35 -4 -35 -15z"/>
<path d="M9080 2619 c0 -15 -5 -19 -15 -15 -12 4 -15 -4 -15 -44 0 -47 1 -49
28 -47 24 2 27 -2 30 -30 3 -28 0 -33 -19 -33 -18 0 -19 -2 -9 -15 21 -25 35
-12 40 36 5 41 7 44 33 42 25 -2 27 1 27 38 0 53 0 53 -47 50 -45 -3 -56 10
-25 28 15 9 15 10 -5 11 -17 0 -23 -6 -23 -21z m90 -39 c0 -5 -20 -10 -45 -10
-25 0 -45 -4 -45 -8 0 -5 17 -8 38 -8 20 0 38 -4 40 -9 1 -6 -19 -10 -45 -10
-47 0 -54 7 -44 50 2 10 101 5 101 -5z"/>
<path d="M9138 2633 c7 -3 16 -2 19 1 4 3 -2 6 -13 5 -11 0 -14 -3 -6 -6z"/>
<path d="M10299 2623 c-36 -22 -59 -64 -59 -107 0 -99 146 -57 166 49 6 33 4
41 -16 57 -27 22 -57 23 -91 1z m69 -5 c18 -18 15 -53 -8 -97 -27 -54 -70 -68
-90 -30 -15 27 -4 73 27 109 26 32 51 38 71 18z"/>
<path d="M2135 2620 c3 -5 8 -10 11 -10 2 0 4 5 4 10 0 6 -5 10 -11 10 -5 0
-7 -4 -4 -10z"/>
<path d="M2230 2595 c0 -34 -1 -35 -38 -35 -21 0 -43 5 -50 12 -9 9 -12 8 -12
-7 0 -18 6 -20 55 -17 50 4 55 6 55 27 0 13 3 30 6 39 3 9 1 16 -5 16 -6 0
-11 -16 -11 -35z"/>
<path d="M4429 2615 c-28 -15 -59 -70 -59 -103 0 -23 36 -72 54 -72 22 0 46
35 46 66 0 34 -16 54 -42 54 -26 0 -22 12 14 42 36 30 29 36 -13 13z m16 -115
c0 -28 -4 -35 -20 -35 -16 0 -21 8 -23 38 -3 35 -1 38 20 35 19 -2 23 -9 23
-38z"/>
<path d="M4954 2623 c-60 -12 -96 -117 -55 -160 14 -14 27 -20 39 -16 60 23
53 126 -8 110 -37 -10 -14 29 36 60 10 6 17 11 14 11 -3 0 -15 -3 -26 -5z m1
-103 c7 -21 -10 -60 -25 -60 -13 0 -30 34 -30 59 0 28 46 29 55 1z"/>
<path d="M6520 2614 c-40 -27 -50 -45 -50 -89 0 -51 23 -75 72 -75 38 0 51 10
63 50 4 14 13 28 19 32 6 4 -4 8 -22 8 -21 0 -31 -4 -27 -11 4 -5 4 -21 1 -35
-5 -20 -13 -24 -41 -24 -40 0 -47 9 -47 58 0 28 7 43 32 65 37 33 69 32 87 -3
9 -17 13 -20 13 -8 0 9 2 22 5 30 8 21 -74 22 -105 2z"/>
<path d="M7228 2608 c-51 -44 -61 -89 -27 -132 25 -32 67 -34 100 -5 l24 20
-23 -11 c-13 -6 -37 -10 -55 -8 -32 3 -32 4 -32 55 1 42 5 55 25 72 34 28 72
24 80 -9 5 -22 7 -23 13 -7 13 35 7 42 -36 45 -32 2 -48 -3 -69 -20z"/>
<path d="M76 2611 c-14 -5 -16 -10 -8 -15 16 -10 16 -128 0 -144 -9 -9 -5 -12
21 -12 28 0 32 2 21 14 -7 10 -10 42 -8 91 2 41 1 75 -2 74 -3 0 -14 -4 -24
-8z"/>
<path d="M182 2608 c-17 -17 -15 -33 3 -18 8 7 22 10 30 6 20 -7 19 -45 -1
-53 -14 -5 -13 -9 7 -24 33 -25 15 -55 -31 -51 -38 3 -37 -21 1 -26 48 -6 88
59 55 90 -10 10 -11 17 -2 30 22 36 -32 76 -62 46z"/>
<path d="M1232 2607 c-23 -11 -62 -74 -62 -100 0 -8 9 -26 21 -41 26 -33 77
-36 105 -5 19 22 19 22 -3 10 -70 -36 -110 6 -82 87 16 48 99 71 99 27 0 -24
17 -18 22 8 4 22 1 24 -36 25 -23 0 -51 -4 -64 -11z"/>
<path d="M3681 2611 c-9 -6 -10 -11 -2 -15 16 -10 14 -133 -1 -139 -7 -3 3 -5
22 -5 19 0 29 2 23 5 -9 3 -13 30 -13 84 0 79 -3 86 -29 70z"/>
<path d="M3775 2600 c-10 -11 -13 -20 -7 -20 6 0 14 5 17 10 9 15 41 12 54 -4
16 -19 -8 -67 -52 -108 l-31 -28 57 0 c40 0 57 4 57 13 0 9 -11 12 -37 9 l-38
-4 26 28 c28 31 49 66 49 83 0 17 -31 41 -54 41 -13 0 -31 -9 -41 -20z"/>
<path d="M4280 2610 c-10 -6 -11 -10 -2 -10 8 0 12 -21 12 -69 0 -46 -4 -71
-12 -74 -7 -3 3 -5 22 -5 19 0 29 2 23 5 -9 3 -13 30 -13 84 0 80 -3 87 -30
69z"/>
<path d="M5020 2605 c-32 -39 -2 -99 43 -87 21 5 21 5 6 -19 -9 -13 -27 -30
-40 -36 -19 -10 -20 -13 -6 -13 56 0 97 73 77 135 -10 29 -16 35 -40 35 -15 0
-33 -7 -40 -15z m60 -9 c18 -23 8 -61 -17 -64 -17 -3 -24 3 -29 22 -12 48 18
75 46 42z"/>
<path d="M5407 2602 c-22 -24 -22 -100 -1 -130 34 -49 84 -10 84 66 0 24 -5
52 -10 63 -13 24 -52 25 -73 1z m57 -8 c3 -9 6 -33 6 -54 0 -48 -8 -70 -26
-70 -15 0 -34 39 -34 70 0 53 39 92 54 54z"/>
<path d="M8102 2512 l3 -87 62 -3 62 -3 -6 38 c-7 47 -13 55 -13 19 0 -14 -6
-29 -12 -31 -32 -11 -68 -13 -74 -3 -8 13 -8 123 0 136 3 5 -1 13 -9 16 -14 5
-15 -7 -13 -82z"/>
<path d="M3078 2584 c-5 -4 -8 -20 -8 -35 0 -24 -5 -28 -32 -32 l-33 -4 33 -1
c29 -2 32 -5 32 -32 0 -16 5 -30 10 -30 6 0 10 13 10 29 0 26 4 30 33 34 l32
4 -32 1 c-29 2 -32 5 -35 38 -2 20 -6 32 -10 28z"/>
<path d="M9580 2580 l-35 -7 43 -2 c23 0 42 4 42 9 0 6 -3 9 -7 9 -5 -1 -24
-5 -43 -9z"/>
<path d="M6065 2570 c-30 -8 -30 -8 8 -9 20 0 37 4 37 9 0 11 -2 11 -45 0z"/>
<path d="M2856 2555 c-13 -10 -23 -12 -30 -5 -5 5 -19 10 -30 10 -18 0 -18 -1
-3 -12 26 -20 26 -61 0 -73 -13 -5 -23 -15 -23 -22 0 -16 27 -6 34 13 8 21 23
17 29 -8 5 -18 8 -19 22 -8 13 11 13 14 1 24 -24 19 -23 50 2 61 12 5 22 15
22 22 0 16 0 16 -24 -2z"/>
<path d="M3326 2561 c-4 -6 -4 -15 -1 -21 3 -5 -2 -24 -12 -42 -17 -32 -17
-33 -21 -8 -7 59 -12 70 -35 70 -20 -1 -20 -2 -4 -11 13 -7 17 -23 17 -63 0
-52 -9 -66 -42 -70 -11 -1 -10 -20 1 -24 12 -4 98 98 111 133 11 29 -1 58 -14
36z"/>
<path d="M3927 2564 c-3 -4 1 -13 9 -21 26 -27 15 -54 -35 -80 -1 -1 0 -7 4
-13 5 -8 14 -5 30 10 l22 21 6 -20 c7 -26 23 -27 37 -1 8 16 8 18 -4 14 -10
-4 -17 2 -22 20 -7 31 1 46 27 46 10 0 19 4 19 8 0 18 -13 20 -35 6 -20 -13
-23 -13 -28 1 -7 16 -19 20 -30 9z"/>
<path d="M4525 2560 c-3 -5 1 -10 10 -10 13 0 15 -11 13 -62 -3 -57 -5 -63
-25 -66 -25 -4 -32 -22 -9 -22 16 0 81 72 103 113 15 29 11 63 -6 52 -6 -3 -8
-12 -5 -19 3 -8 -3 -29 -13 -48 l-18 -33 -3 30 c-5 55 -12 75 -27 75 -7 0 -17
-4 -20 -10z"/>
<path d="M8423 2563 c-19 -7 -16 -40 4 -47 21 -8 36 6 31 30 -3 19 -16 25 -35
17z m22 -33 c-5 -8 -11 -8 -17 -2 -6 6 -7 16 -3 22 5 8 11 8 17 2 6 -6 7 -16
3 -22z"/>
<path d="M10567 2557 c-8 -21 8 -39 29 -35 27 5 25 42 -2 46 -12 2 -24 -3 -27
-11z m43 -6 c0 -14 -18 -23 -30 -16 -6 4 -8 11 -5 16 8 12 35 12 35 0z"/>
<path d="M5736 2544 c-8 -21 1 -34 24 -34 10 0 21 4 24 9 10 16 -5 41 -24 41
-10 0 -21 -7 -24 -16z m42 -12 c2 -7 -6 -12 -17 -12 -21 0 -27 11 -14 24 9 9
26 2 31 -12z"/>
<path d="M8053 2520 c-6 -25 -10 -47 -8 -49 8 -7 26 52 23 73 -2 13 -7 4 -15
-24z"/>
<path d="M8230 2556 c0 -3 4 -14 9 -24 5 -9 13 -26 17 -37 6 -18 8 -18 11 -3
3 10 -5 30 -16 44 -12 15 -21 24 -21 20z"/>
<path d="M5191 2545 c11 -11 117 -16 124 -6 4 7 -16 11 -61 11 -37 0 -65 -2
-63 -5z"/>
<path d="M6065 2540 c-30 -8 -30 -8 8 -9 23 -1 36 3 32 9 -3 6 -7 9 -8 9 -1
-1 -15 -5 -32 -9z"/>
<path d="M7625 2526 c20 -30 25 -32 25 -11 0 8 -9 19 -21 25 -20 11 -20 11 -4
-14z"/>
<path d="M9580 2540 l-35 -7 43 -2 c23 0 42 4 42 9 0 6 -3 9 -7 9 -5 -1 -24
-5 -43 -9z"/>
<path d="M1615 2516 c10 -14 22 -26 27 -26 13 0 -15 43 -31 48 -9 3 -7 -5 4
-22z"/>
<path d="M2218 2535 c-3 -3 -25 -9 -49 -14 -32 -6 -36 -9 -16 -10 39 -1 35
-29 -5 -34 l-33 -4 33 -1 c25 -2 32 -6 32 -22 0 -20 -12 -24 -59 -20 -14 1
-21 -2 -17 -9 10 -16 159 -15 153 2 -2 6 -13 10 -23 9 -10 -2 -23 -5 -29 -5
-5 -1 -11 8 -13 20 -3 18 2 22 30 26 l33 4 -32 1 c-40 2 -45 28 -8 42 14 5 25
12 25 15 0 7 -15 7 -22 0z"/>
<path d="M6130 2536 c0 -3 10 -21 21 -41 12 -20 20 -37 18 -39 -2 -1 -20 -12
-39 -25 -28 -18 -30 -21 -10 -15 14 3 33 13 42 21 15 13 19 13 40 -1 24 -17
58 -22 58 -8 0 4 -14 13 -30 19 l-31 11 21 34 c11 18 20 36 20 41 0 4 -25 7
-55 7 -30 0 -55 -2 -55 -4z m80 -19 c0 -7 -6 -21 -13 -32 -13 -17 -15 -17 -30
6 -24 33 -21 39 13 39 18 0 30 -5 30 -13z"/>
<path d="M3470 2519 c0 -5 32 -9 72 -9 39 0 68 3 64 7 -10 10 -136 12 -136 2z"/>
<path d="M4074 2518 c-3 -4 27 -8 67 -8 40 0 69 3 65 7 -10 10 -126 11 -132 1z"/>
<path d="M4690 2520 c0 -6 28 -10 65 -10 37 0 65 4 65 10 0 6 -28 10 -65 10
-37 0 -65 -4 -65 -10z"/>
<path d="M6068 2503 c-25 -4 -28 -9 -28 -42 0 -36 1 -37 35 -33 33 4 35 6 35
43 0 21 -3 38 -7 38 -5 -1 -20 -4 -35 -6z m22 -39 c0 -33 -33 -30 -38 4 -3 17
2 22 17 22 16 0 21 -6 21 -26z"/>
<path d="M8814 2491 c21 -23 26 -26 26 -11 0 5 -10 15 -22 21 -23 12 -23 12
-4 -10z"/>
<path d="M9550 2471 l0 -37 40 4 c38 4 40 5 40 40 0 19 -3 32 -7 28 -5 -4 -8
-17 -8 -29 0 -16 -6 -22 -24 -22 -32 0 -39 23 -10 33 23 9 23 9 -4 14 -25 5
-27 3 -27 -31z"/>
<path d="M5217 2493 c18 -2 50 -2 70 0 21 2 7 4 -32 4 -38 0 -55 -2 -38 -4z"/>
<path d="M6940 2491 c0 -5 5 -13 10 -16 6 -3 10 -2 10 4 0 5 -4 13 -10 16 -5
3 -10 2 -10 -4z"/>
<path d="M9035 2462 c-16 -20 -23 -32 -15 -27 23 13 60 48 60 57 0 16 -16 6
-45 -30z"/>
<path d="M9150 2490 c0 -6 7 -13 15 -16 8 -3 17 -14 20 -25 7 -22 25 -26 25
-5 0 8 -13 24 -30 36 -16 12 -30 16 -30 10z"/>
<path d="M9957 2479 c4 -13 8 -18 11 -10 2 7 -1 18 -6 23 -8 8 -9 4 -5 -13z"/>
<path d="M2480 2483 c0 -4 5 -15 10 -23 8 -13 10 -13 10 2 0 9 -4 20 -10 23
-5 3 -10 3 -10 -2z"/>
<path d="M6900 2483 c0 -4 5 -15 10 -23 8 -13 10 -13 10 2 0 9 -4 20 -10 23
-5 3 -10 3 -10 -2z"/>
<path d="M9880 2470 c-6 -12 -9 -24 -7 -27 3 -2 11 5 17 17 6 12 9 24 7 27 -3
2 -11 -5 -17 -17z"/>
<path d="M2408 2453 c5 -21 7 -23 10 -9 2 10 0 22 -6 28 -6 6 -7 0 -4 -19z"/>
<path d="M2447 2459 c4 -13 8 -18 11 -10 2 7 -1 18 -6 23 -8 8 -9 4 -5 -13z"/>
<path d="M6822 2455 c-6 -14 -8 -25 -3 -25 4 0 13 11 19 25 6 14 8 25 3 25 -4
0 -13 -11 -19 -25z"/>
<path d="M6872 2460 c0 -14 2 -19 5 -12 2 6 2 18 0 25 -3 6 -5 1 -5 -13z"/>
<path d="M9302 2455 c0 -16 2 -22 5 -12 2 9 2 23 0 30 -3 6 -5 -1 -5 -18z"/>
<path d="M9356 2467 c3 -10 9 -15 12 -12 3 3 0 11 -7 18 -10 9 -11 8 -5 -6z"/>
<path d="M9921 2464 c0 -11 3 -14 6 -6 3 7 2 16 -1 19 -3 4 -6 -2 -5 -13z"/>
<path d="M302 2459 c3 -8 8 -13 11 -11 9 3 7 11 -5 18 -6 4 -8 0 -6 -7z"/>
<path d="M9331 2454 c0 -11 3 -14 6 -6 3 7 2 16 -1 19 -3 4 -6 -2 -5 -13z"/>
<path d="M2362 2448 c-14 -14 -16 -28 -3 -28 9 0 24 30 18 36 -2 2 -9 -2 -15
-8z"/>
<path d="M11285 1970 c14 -22 25 -42 25 -45 0 -3 -29 -5 -65 -5 -36 0 -65 2
-65 5 0 2 9 20 20 40 11 19 16 35 12 35 -4 0 -16 -16 -26 -35 -11 -19 -22 -35
-27 -35 -4 0 -10 -8 -14 -17 -4 -13 -3 -15 5 -7 15 15 70 5 70 -13 0 -21 -38
-81 -58 -93 -11 -6 -12 -10 -4 -10 20 0 58 46 68 82 8 27 15 34 42 36 31 3 32
2 32 -33 0 -51 -15 -74 -42 -68 -19 4 -20 3 -8 -6 33 -23 49 -13 55 37 11 75
13 81 38 74 18 -4 15 1 -15 30 -21 19 -38 43 -38 52 0 9 -7 16 -15 16 -12 0
-10 -9 10 -40z"/>
<path d="M10887 1970 c-14 -16 -28 -43 -32 -60 -7 -33 9 -96 33 -122 25 -30
31 -20 11 19 -10 21 -19 56 -19 78 0 22 9 57 19 78 23 45 20 46 -12 7z"/>
<path d="M11415 1980 c16 -18 20 -36 20 -95 0 -59 -4 -77 -20 -95 l-20 -23 21
11 c23 12 54 78 54 115 0 28 -40 99 -60 105 -11 4 -9 -2 5 -18z"/>
<path d="M1607 1970 c5 -18 0 -20 -53 -22 l-59 -1 55 -6 54 -6 4 -44 c6 -70
-5 -111 -30 -111 -27 0 -21 -5 15 -14 27 -6 27 -6 27 44 l0 51 38 -41 c39 -41
56 -48 67 -30 3 6 1 10 -6 10 -15 0 -79 48 -79 59 0 4 16 16 35 27 19 10 31
22 26 27 -5 5 -21 -3 -36 -17 -32 -30 -45 -26 -45 15 0 29 1 29 56 29 36 0 53
4 49 10 -4 6 -15 8 -26 5 -13 -4 -19 -2 -19 8 0 8 -7 17 -15 21 -13 4 -14 2
-5 -14 9 -18 8 -20 -16 -20 -21 0 -25 4 -21 20 3 12 0 20 -8 20 -8 0 -11 -8
-8 -20z"/>
<path d="M10953 1983 c-7 -2 -13 -12 -13 -21 0 -12 3 -13 12 -4 16 16 43 15
56 0 14 -17 -7 -65 -42 -97 -14 -14 -26 -28 -26 -33 0 -15 97 -9 103 6 4 11
-3 13 -36 9 l-42 -6 27 29 c56 61 57 125 0 123 -15 0 -33 -3 -39 -6z"/>
<path d="M798 1953 c-14 -16 -29 -39 -33 -51 -12 -41 4 -108 32 -136 33 -33
42 -26 14 10 -28 36 -29 126 -1 172 24 39 21 40 -12 5z"/>
<path d="M960 1976 c0 -4 9 -19 20 -33 29 -37 28 -130 -1 -167 -24 -30 -23
-41 2 -23 37 28 56 101 39 152 -10 29 -60 89 -60 71z"/>
<path d="M1957 1942 c-61 -64 -55 -144 11 -150 68 -7 140 111 97 158 -27 30
-76 26 -108 -8z m81 6 c18 -18 14 -56 -10 -99 -35 -63 -88 -61 -88 3 0 71 62
132 98 96z"/>
<path d="M2123 1935 c-29 -29 -34 -40 -31 -71 4 -50 42 -79 92 -70 30 6 36 11
42 42 3 19 13 38 22 43 11 6 5 9 -24 9 -21 0 -33 -3 -26 -5 18 -7 15 -37 -6
-64 -22 -26 -43 -22 -67 15 -45 68 63 170 109 104 l16 -22 0 27 c0 25 -3 27
-46 27 -39 0 -51 -5 -81 -35z"/>
<path d="M864 1906 c-10 -8 -16 -18 -11 -22 4 -4 13 1 21 11 7 10 18 15 24 11
20 -12 14 -25 -19 -41 -24 -13 -30 -22 -27 -43 3 -23 8 -27 38 -28 41 -1 68
10 51 20 -6 4 -11 27 -11 51 0 30 -5 45 -16 49 -22 9 -28 8 -50 -8z m44 -68
c-2 -13 -11 -24 -20 -26 -21 -4 -24 18 -6 36 19 19 30 14 26 -10z"/>
<path d="M1547 1894 c9 -15 19 -21 21 -15 4 13 -16 41 -29 41 -5 0 -2 -12 8
-26z"/>
<path d="M2448 1883 c12 -2 22 -11 22 -19 0 -17 -36 -19 -43 -1 -4 7 -6 8 -6
1 -1 -6 6 -17 15 -24 12 -11 18 -10 31 3 21 20 10 47 -19 46 l-23 -2 23 -4z"/>
<path d="M1548 1833 c-21 -14 -38 -30 -38 -34 0 -16 14 -9 54 26 46 41 37 45
-16 8z"/>
<path d="M11265 1369 c-11 -4 -15 -8 -8 -8 9 -1 53 -63 53 -77 0 -2 -32 -4
-70 -4 l-70 0 25 40 c28 44 30 50 15 50 -5 0 -10 -6 -10 -14 0 -7 -13 -30 -30
-51 -29 -36 -41 -60 -20 -39 14 14 70 5 70 -11 0 -15 -32 -75 -41 -75 -3 0
-14 -7 -25 -15 -12 -9 -14 -14 -5 -15 23 0 81 66 81 94 0 23 4 26 35 26 32 0
35 -3 35 -27 0 -57 -11 -75 -39 -70 -24 5 -25 4 -6 -9 39 -29 49 -15 57 81 2
22 8 30 21 29 24 -2 22 3 -12 32 -17 14 -31 35 -33 48 -2 19 -7 22 -23 15z"/>
<path d="M11400 1366 c0 -4 9 -19 20 -33 32 -40 22 -183 -12 -183 -4 0 -8 -5
-8 -12 0 -23 51 37 62 74 14 48 -1 104 -37 138 -14 13 -25 20 -25 16z"/>
<path d="M5180 1302 c-31 -68 -36 -85 -16 -52 15 24 15 21 16 -52 0 -43 4 -78
9 -78 6 0 8 38 7 88 -2 59 1 96 10 114 8 15 11 29 6 31 -4 3 -18 -20 -32 -51z"/>
<path d="M5550 1332 c0 -16 -7 -37 -15 -48 -14 -18 -14 -18 -15 7 0 23 -3 26
-27 21 -25 -5 -27 -4 -14 12 8 9 10 20 6 24 -4 4 -10 1 -12 -6 -3 -7 -13 -21
-23 -30 -11 -10 -17 -26 -15 -37 2 -11 4 -42 4 -70 l1 -50 40 0 40 -1 0 44 c0
28 8 57 21 79 19 30 26 34 57 31 29 -2 38 -8 43 -28 6 -23 7 -22 8 8 1 31 0
32 -44 32 -25 0 -45 5 -45 10 0 6 5 10 11 10 5 0 7 5 4 10 -12 19 -25 10 -25
-18z m-47 -54 c8 -29 1 -38 -29 -38 -20 0 -24 5 -24 30 0 25 4 30 24 30 16 0
26 -7 29 -22z m2 -78 c0 -20 -6 -26 -27 -28 -25 -3 -28 0 -28 28 0 28 3 31 28
28 21 -2 27 -8 27 -28z"/>
<path d="M5740 1347 c0 -8 -9 -22 -20 -32 -11 -10 -20 -23 -20 -28 0 -6 11 0
25 13 25 23 25 23 39 4 8 -10 18 -15 22 -11 5 4 2 12 -6 17 -12 8 -10 10 8 10
52 0 6 -67 -68 -100 -23 -10 -23 -10 5 -3 17 4 72 7 123 7 l93 -1 -38 17 c-50
23 -92 67 -71 75 8 3 19 5 24 4 27 -5 84 2 80 10 -3 5 -24 7 -46 4 -35 -5 -39
-3 -34 11 3 9 2 16 -4 16 -6 0 -12 -5 -14 -12 -6 -18 -78 -20 -78 -2 0 8 -4
14 -10 14 -5 0 -10 -6 -10 -13z m110 -98 c0 -5 -14 -9 -32 -9 -30 0 -31 0 -13
20 14 15 21 17 32 9 7 -6 13 -15 13 -20z"/>
<path d="M6096 1346 c6 -16 2 -18 -40 -15 -37 3 -47 1 -52 -13 -8 -25 3 -38
31 -38 18 0 23 -4 19 -15 -5 -11 0 -15 17 -14 13 0 18 3 11 6 -6 2 -10 9 -6
14 8 13 44 11 44 -3 0 -9 3 -9 12 0 7 7 24 12 39 12 17 0 28 6 31 18 3 9 7 21
9 27 2 6 -14 8 -39 6 -31 -2 -49 2 -63 15 -19 17 -20 17 -13 0z m-12 -41 c-4
-9 -19 -15 -40 -15 -24 0 -34 5 -34 15 0 11 11 15 40 15 31 0 38 -3 34 -15z
m106 6 c0 -15 -33 -22 -41 -9 -7 10 -11 10 -21 0 -16 -16 -28 -15 -28 3 0 11
12 15 45 15 25 0 45 -4 45 -9z"/>
<path d="M10877 1318 c-15 -23 -27 -52 -27 -65 0 -44 52 -135 67 -119 4 4 2
10 -4 14 -35 22 -43 119 -14 175 25 50 12 47 -22 -5z"/>
<path d="M2420 1336 c0 -7 -11 -34 -25 -60 -28 -53 -32 -70 -10 -40 13 17 14
12 15 -54 0 -46 4 -71 10 -67 6 3 10 45 10 93 0 61 4 94 15 109 13 19 13 22 0
27 -9 3 -15 0 -15 -8z"/>
<path d="M2480 1342 c0 -6 5 -14 10 -17 24 -15 9 -35 -25 -35 -33 0 -34 -1
-17 -18 12 -13 18 -14 20 -5 3 12 82 20 82 8 0 -29 -35 -135 -45 -135 -7 0
-17 23 -22 53 l-10 52 -2 -52 c-1 -47 -3 -53 -23 -53 -12 0 -18 -3 -14 -7 9
-9 121 -14 154 -7 36 8 15 23 -23 17 -19 -3 -35 -3 -35 1 0 3 8 34 17 68 11
41 23 62 35 66 32 8 9 21 -27 15 -27 -4 -35 -2 -35 9 0 8 -9 23 -20 33 -11 10
-20 13 -20 7z"/>
<path d="M2789 1304 c-22 -44 -27 -49 -54 -46 -39 5 -42 9 -26 34 11 17 10 23
-4 37 -16 15 -17 14 -10 -6 3 -13 2 -23 -3 -23 -5 0 -10 -25 -11 -56 -1 -30
-6 -67 -12 -80 -13 -36 -11 -43 6 -14 7 14 17 42 20 63 9 47 29 44 33 -6 4
-46 -12 -78 -36 -71 -14 4 -13 3 2 -7 16 -10 21 -9 33 7 7 10 13 32 13 50 0
22 10 43 35 70 19 21 35 45 35 53 0 9 13 -3 28 -26 15 -24 33 -43 40 -43 18 0
15 14 -8 27 -11 7 -28 29 -38 49 l-19 36 -24 -48z"/>
<path d="M3745 1341 c-3 -6 -1 -11 5 -11 6 0 9 -12 6 -27 -2 -16 -5 -31 -5
-35 -1 -4 -15 -23 -32 -43 -17 -19 -27 -35 -21 -35 13 0 62 58 62 73 0 7 8 -1
18 -18 22 -36 50 -60 59 -52 3 4 -8 20 -26 36 -34 31 -33 30 -35 80 -2 35 -18
51 -31 32z"/>
<path d="M4335 1333 c4 -15 1 -23 -12 -26 -10 -3 1 -5 25 -6 23 0 42 4 42 10
0 5 -5 7 -10 4 -6 -4 -20 4 -31 17 -20 23 -20 23 -14 1z"/>
<path d="M4476 1301 c4 -84 14 -126 39 -157 l24 -29 0 35 c0 26 -2 30 -8 16
-6 -16 -10 -13 -24 22 -9 24 -17 56 -17 72 0 25 4 30 25 30 30 0 32 13 5 40
-34 34 -47 26 -44 -29z m44 8 c0 -5 -7 -9 -15 -9 -9 0 -15 9 -15 21 0 18 2 19
15 9 8 -7 15 -16 15 -21z"/>
<path d="M4607 1315 c-10 -21 -13 -37 -6 -40 12 -8 2 -111 -14 -140 -9 -18 -9
-19 6 -6 10 7 17 24 17 37 0 19 5 24 25 24 22 0 25 3 19 25 -4 15 -2 25 5 25
6 0 12 -10 12 -22 1 -13 3 -33 4 -45 2 -17 -3 -23 -18 -23 -16 0 -17 -2 -7
-15 23 -27 40 1 39 65 -1 53 -3 57 -21 52 -15 -4 -19 -1 -16 9 3 8 12 13 22
11 9 -2 16 4 16 12 0 10 -6 13 -15 10 -17 -7 -21 11 -5 21 17 11 1 23 -22 17
-14 -3 -19 -2 -14 6 4 7 3 12 -2 12 -4 0 -16 -16 -25 -35z m39 -11 c-3 -9 -6
-24 -6 -35 0 -27 -17 -24 -22 4 -6 31 1 47 19 47 10 0 13 -6 9 -16z m-14 -96
c-9 -9 -12 -7 -12 12 0 19 3 21 12 12 9 -9 9 -15 0 -24z"/>
<path d="M4904 1340 c-30 -12 -37 -27 -24 -47 10 -16 11 -15 7 5 -3 12 -2 22
3 22 4 0 10 -11 12 -25 4 -20 1 -25 -16 -25 -19 -1 -19 -2 -4 -10 15 -9 16
-14 2 -48 -13 -33 -13 -35 1 -18 14 19 15 17 15 -27 0 -26 5 -47 10 -47 6 0
10 26 10 57 0 52 1 55 15 37 8 -10 15 -14 15 -8 0 6 -7 17 -15 24 -21 18 -19
30 6 30 18 0 19 2 9 15 -10 12 -10 18 1 32 12 14 12 16 -1 11 -8 -3 -15 -15
-14 -27 0 -11 -3 -21 -8 -21 -15 0 -8 53 10 66 14 11 14 13 2 13 -8 0 -25 -4
-36 -9z"/>
<path d="M4970 1319 c0 -23 3 -26 25 -21 14 2 25 0 25 -6 0 -6 -12 -13 -27
-15 l-28 -4 28 -2 c38 -2 34 -21 -5 -22 -18 -1 -25 -3 -15 -6 20 -5 23 -29 5
-36 -7 -3 -1 -6 15 -6 38 -1 34 -19 -5 -24 l-33 -4 32 -1 c26 -2 32 -7 36 -29
l4 -28 2 27 c1 23 6 27 39 31 l37 4 -37 1 c-45 2 -51 22 -7 22 18 0 28 4 24
10 -4 6 -11 8 -16 5 -5 -4 -9 1 -9 9 0 9 9 16 21 16 11 0 17 4 14 10 -3 5 -19
7 -35 3 -19 -3 -30 -1 -30 6 0 6 11 11 24 11 16 0 26 7 30 23 13 49 10 52 -54
52 -58 0 -60 -1 -60 -26z m30 1 c0 -5 -4 -10 -10 -10 -5 0 -10 5 -10 10 0 6 5
10 10 10 6 0 10 -4 10 -10z m40 0 c0 -5 -4 -10 -10 -10 -5 0 -10 5 -10 10 0 6
5 10 10 10 6 0 10 -4 10 -10z m30 0 c0 -5 -4 -10 -10 -10 -5 0 -10 5 -10 10 0
6 5 10 10 10 6 0 10 -4 10 -10z m0 -30 c0 -5 -9 -10 -21 -10 -11 0 -17 5 -14
10 3 6 13 10 21 10 8 0 14 -4 14 -10z m-32 -62 c-6 -18 -25 -20 -31 -3 -5 10
0 15 14 15 12 0 19 -5 17 -12z"/>
<path d="M5234 1308 c-10 -24 -21 -47 -23 -51 -1 -5 9 4 23 18 15 14 24 30 21
35 -3 5 -1 11 5 15 12 7 13 25 2 25 -5 0 -17 -19 -28 -42z"/>
<path d="M10970 1340 c-13 -8 -12 -10 3 -10 14 0 17 -10 17 -63 0 -36 -5 -68
-12 -75 -9 -9 -4 -12 23 -11 18 0 28 3 22 6 -9 3 -13 30 -13 84 0 81 -6 91
-40 69z"/>
<path d="M1850 1288 c0 -41 -3 -48 -20 -48 -11 0 -20 -4 -20 -10 0 -18 49 -6
54 13 4 16 13 18 65 15 60 -3 61 -3 61 24 0 14 2 32 5 40 4 10 -11 13 -70 13
l-75 0 0 -47z m130 22 c0 -5 -24 -10 -54 -10 -30 0 -58 5 -61 10 -4 6 17 10
54 10 34 0 61 -4 61 -10z m0 -30 c0 -5 -25 -10 -55 -10 -30 0 -55 5 -55 10 0
6 25 10 55 10 30 0 55 -4 55 -10z"/>
<path d="M2190 1330 c-59 -3 -82 -7 -52 -8 28 -1 52 -6 52 -10 0 -10 -45 -52
-80 -75 -13 -10 -20 -17 -14 -17 6 0 30 14 52 30 l42 30 0 -36 c0 -35 -1 -36
-30 -32 -30 4 -30 4 -30 -41 l0 -46 75 3 75 4 0 43 0 44 -36 -6 -35 -6 3 54 3
54 53 3 c30 2 50 7 47 13 -4 5 -9 8 -13 7 -4 -1 -54 -5 -112 -8z m78 -157 c-3
-27 -6 -28 -65 -31 -61 -3 -63 -2 -63 21 0 34 6 37 72 37 59 0 59 0 56 -27z"/>
<path d="M3400 1255 c0 -69 -3 -85 -15 -85 -8 0 -15 -7 -15 -16 0 -18 -2 -19
68 20 28 16 50 31 47 34 -2 3 -16 -3 -29 -12 -44 -28 -48 -22 -44 64 2 44 0
80 -4 80 -5 0 -8 -38 -8 -85z"/>
<path d="M3547 1310 c-3 -19 -9 -51 -12 -71 -5 -35 -46 -83 -90 -107 -11 -6
-14 -12 -7 -12 20 0 53 20 77 47 l21 26 26 -32 c15 -17 29 -31 32 -31 14 0 3
21 -24 47 -28 27 -29 30 -19 72 5 25 8 56 6 70 -3 23 -4 22 -10 -9z"/>
<path d="M4000 1321 c-13 -25 -13 -41 0 -41 6 0 10 9 10 19 0 26 15 34 46 27
29 -8 31 -29 4 -63 -29 -37 -25 -61 4 -26 33 40 40 68 21 87 -23 23 -72 21
-85 -3z"/>
<path d="M4705 1330 c4 -6 11 -8 16 -5 16 10 10 -32 -6 -45 -12 -10 -13 -15
-4 -20 8 -6 8 -13 -1 -30 -6 -12 -9 -24 -6 -28 3 -3 6 0 6 6 0 7 9 12 21 12
13 0 20 -6 18 -17 -4 -41 2 -83 11 -83 6 0 10 14 10 30 0 27 3 30 32 30 38 0
30 13 -9 14 -36 1 -36 20 0 24 15 2 25 8 22 13 -4 5 -17 6 -30 3 -20 -5 -23
-3 -18 15 3 12 11 21 18 21 10 0 35 47 35 66 0 2 -27 4 -61 4 -38 0 -58 -4
-54 -10z m90 -10 c3 -5 -5 -21 -19 -35 -14 -14 -25 -31 -23 -37 1 -6 -4 -13
-11 -15 -13 -5 -11 43 3 80 8 18 40 23 50 7z"/>
<path d="M785 1293 c-28 -42 -32 -87 -11 -138 14 -33 56 -67 56 -45 0 5 -4 10
-9 10 -35 0 -40 153 -6 190 10 11 13 20 7 20 -6 0 -23 -17 -37 -37z"/>
<path d="M854 1251 c4 -90 8 -101 39 -101 41 1 59 24 55 72 -3 41 -4 43 -35
43 -31 0 -33 2 -33 32 0 22 -5 33 -15 33 -11 0 -13 -15 -11 -79z m74 -18 c14
-26 -3 -63 -28 -63 -17 0 -20 6 -20 40 0 33 3 40 20 40 10 0 23 -8 28 -17z"/>
<path d="M1002 1292 c27 -51 20 -132 -12 -167 -13 -14 -19 -25 -13 -25 14 0
50 42 58 69 12 40 8 88 -11 120 -26 44 -45 46 -22 3z"/>
<path d="M1574 1320 c-51 -20 -86 -105 -60 -145 31 -47 109 -28 141 35 40 77
-7 140 -81 110z m66 -20 c16 -29 -5 -94 -37 -120 -47 -37 -81 -10 -69 54 13
69 82 112 106 66z"/>
<path d="M3112 1305 c-56 -47 -60 -119 -8 -143 31 -15 61 -11 91 13 20 16 20
16 -2 6 -12 -6 -36 -11 -53 -11 -40 0 -56 36 -39 87 20 63 96 85 110 33 4 -14
8 -20 8 -15 1 6 4 20 7 33 6 20 3 22 -39 22 -34 0 -53 -6 -75 -25z"/>
<path d="M3450 1315 c0 -5 9 -23 20 -40 13 -20 20 -24 20 -14 0 18 -39 71 -40
54z"/>
<path d="M2738 1303 c7 -3 16 -2 19 1 4 3 -2 6 -13 5 -11 0 -14 -3 -6 -6z"/>
<path d="M3661 1215 c-1 -59 3 -95 9 -95 6 0 10 34 10 85 0 74 2 85 18 86 14
0 14 2 -3 9 -11 5 -23 9 -26 9 -4 1 -7 -42 -8 -94z"/>
<path d="M3849 1303 c0 -5 0 -43 1 -85 l1 -78 -28 -1 -28 -1 28 -10 c16 -5 30
-8 32 -7 7 8 10 189 3 189 -5 0 -8 -3 -9 -7z"/>
<path d="M5310 1301 c-28 -4 -40 -9 -32 -14 7 -5 12 -32 12 -73 0 -63 0 -64
-27 -64 l-28 -1 25 -13 c14 -8 28 -12 32 -10 5 3 8 41 8 85 0 78 0 79 26 79
20 0 25 -4 20 -17 -6 -15 -5 -15 13 1 19 17 20 38 3 34 -4 0 -27 -4 -52 -7z"/>
<path d="M5870 1300 c0 -5 5 -10 10 -10 6 0 10 5 10 10 0 6 -4 10 -10 10 -5 0
-10 -4 -10 -10z"/>
<path d="M3798 1293 c7 -3 16 -2 19 1 4 3 -2 6 -13 5 -11 0 -14 -3 -6 -6z"/>
<path d="M4404 1291 c5 -8 56 -3 56 5 0 2 -14 4 -31 4 -16 0 -28 -4 -25 -9z"/>
<path d="M2246 1271 c18 -11 35 -24 38 -30 4 -6 14 -11 23 -11 24 0 -4 30 -44
47 -46 19 -53 16 -17 -6z"/>
<path d="M4345 1270 c-30 -8 -30 -8 8 -9 23 -1 36 3 32 9 -3 6 -7 9 -8 9 -1
-1 -15 -5 -32 -9z"/>
<path d="M6354 1255 c-9 -21 9 -38 32 -32 16 4 15 5 -3 6 -13 1 -23 7 -23 16
0 18 21 20 39 3 11 -11 13 -10 9 2 -6 21 -47 25 -54 5z"/>
<path d="M5560 1256 c0 -4 9 -19 20 -33 13 -17 20 -20 20 -11 0 8 -9 23 -20
33 -11 10 -20 15 -20 11z"/>
<path d="M6095 1250 c-3 -5 -20 -14 -38 -19 -26 -7 -28 -9 -9 -10 13 -1 32 3
42 9 12 6 28 6 50 -1 45 -16 49 -3 5 15 -44 19 -42 19 -50 6z"/>
<path d="M2019 1246 c-2 -2 -24 -6 -49 -9 -25 -3 -46 -6 -47 -6 -2 -1 -3 -21
-3 -46 0 -25 -4 -45 -10 -45 -14 0 -43 48 -35 60 3 5 3 10 -2 10 -4 -1 -18
-21 -29 -46 l-22 -45 24 22 c23 22 25 22 38 4 10 -14 30 -20 75 -23 35 -2 66
-1 71 4 5 5 -12 8 -40 6 -48 -4 -50 -3 -50 22 0 24 4 26 41 26 22 0 38 4 34 9
-3 5 -21 7 -40 4 -27 -4 -35 -2 -35 9 0 18 46 30 79 21 11 -3 21 -1 21 5 0 12
-15 24 -21 18z"/>
<path d="M2800 1245 c0 -6 38 -45 45 -45 14 0 2 20 -20 34 -14 9 -25 14 -25
11z"/>
<path d="M4400 1238 c0 -5 7 -8 15 -8 22 0 20 -56 -2 -69 -10 -5 -15 -12 -11
-16 3 -4 23 3 45 15 23 13 29 19 16 16 -20 -3 -23 0 -23 25 0 19 5 29 15 29 8
0 15 4 15 9 0 5 -16 9 -35 8 -19 -1 -35 -5 -35 -9z"/>
<path d="M5231 1213 c-24 -65 -23 -69 3 -23 27 48 30 60 18 60 -4 0 -14 -17
-21 -37z"/>
<path d="M5320 1248 c0 -2 11 -25 25 -52 14 -28 25 -41 25 -30 0 19 -35 84
-45 84 -3 0 -5 -1 -5 -2z"/>
<path d="M1875 1231 c-3 -6 3 -9 14 -8 11 0 17 5 15 9 -7 11 -22 10 -29 -1z"/>
<path d="M4316 1228 c7 -11 74 -10 74 1 0 5 -18 8 -39 7 -22 0 -37 -4 -35 -8z"/>
<path d="M5630 1209 c0 -45 -15 -68 -42 -62 -22 5 -22 5 -3 -10 27 -21 43 -11
51 31 3 21 8 45 11 55 2 9 0 17 -6 17 -6 0 -11 -14 -11 -31z"/>
<path d="M6100 1220 c0 -5 -19 -11 -42 -11 l-43 -2 40 -6 c38 -6 40 -8 46 -46
l6 -40 2 43 1 42 56 0 c30 0 53 4 50 9 -3 4 -29 6 -57 3 -37 -3 -50 -2 -45 7
4 6 2 11 -3 11 -6 0 -11 -4 -11 -10z"/>
<path d="M5752 1165 c2 -22 6 -39 11 -37 4 1 35 2 70 2 l62 0 0 38 0 37 -73 0
-73 0 3 -40z m123 0 c0 -17 -7 -20 -50 -22 -50 -3 -68 8 -58 34 4 10 20 13 57
11 43 -3 51 -6 51 -23z"/>
<path d="M4320 1162 c0 -38 0 -38 35 -34 32 4 35 7 35 38 0 32 -2 34 -35 34
-34 0 -35 -1 -35 -38z m50 3 c0 -25 -23 -35 -35 -15 -10 16 2 40 20 40 9 0 15
-9 15 -25z"/>
<path d="M2790 1177 c0 -2 14 -16 30 -32 20 -19 30 -24 30 -14 0 8 -13 23 -30
32 -16 10 -30 16 -30 14z"/>
<path d="M6036 1165 c-10 -8 -24 -16 -30 -18 -6 -2 -8 -8 -4 -12 3 -4 24 5 45
19 20 14 31 26 23 26 -8 0 -24 -7 -34 -15z"/>
<path d="M6155 1163 c17 -9 33 -21 37 -27 5 -7 8 -4 8 7 0 10 -11 22 -26 27
-40 15 -52 11 -19 -7z"/>
<path d="M4030 1149 c0 -11 5 -17 10 -14 6 3 10 13 10 21 0 8 -4 14 -10 14 -5
0 -10 -9 -10 -21z"/>
<path d="M9339 698 c-15 -47 -17 -49 -18 -21 -1 27 -4 30 -22 26 -18 -5 -20
-3 -14 16 3 11 2 21 -3 21 -5 0 -12 -9 -15 -20 -3 -11 -12 -20 -21 -20 -13 0
-16 -13 -16 -79 0 -44 5 -83 10 -86 6 -3 10 -1 10 4 0 15 43 14 58 -1 9 -9 12
0 12 40 0 39 7 63 25 92 14 22 22 40 19 40 -4 0 -1 6 5 13 10 13 6 27 -8 27
-4 0 -14 -24 -22 -52z m-35 -16 c3 -5 2 -18 -1 -30 -8 -32 -53 -31 -53 1 0 13
3 27 7 30 9 10 41 9 47 -1z m-4 -92 c0 -25 -4 -30 -25 -30 -21 0 -25 5 -25 30
0 25 4 30 25 30 21 0 25 -5 25 -30z"/>
<path d="M9562 700 c2 -35 -1 -50 -9 -50 -7 0 -13 7 -13 15 0 8 -4 15 -10 15
-5 0 -10 -18 -10 -39 0 -33 4 -40 23 -43 30 -4 28 -20 -3 -29 -24 -7 -24 -7
-2 -8 17 -1 22 -7 22 -27 0 -14 4 -23 10 -19 6 3 10 15 10 26 0 12 7 19 20 19
11 0 20 4 20 9 0 5 -9 7 -20 4 -14 -4 -20 0 -20 10 0 9 8 17 17 19 22 4 29 78
7 78 -8 0 -11 -6 -8 -15 4 -8 1 -15 -5 -15 -7 0 -11 20 -11 50 0 30 -4 50 -11
50 -7 0 -10 -18 -7 -50z m-3 -77 c0 -5 -3 -9 -9 -11 -5 -2 -10 4 -10 13 0 16
16 14 19 -2z m41 2 c0 -8 -4 -15 -10 -15 -5 0 -10 7 -10 15 0 8 5 15 10 15 6
0 10 -7 10 -15z"/>
<path d="M9659 718 c-1 -18 0 -45 1 -59 2 -31 -23 -95 -47 -121 -10 -11 -11
-18 -5 -18 7 0 23 17 36 38 19 28 26 55 30 115 2 44 0 77 -5 77 -5 0 -9 -15
-10 -32z"/>
<path d="M9955 733 c6 -20 3 -23 -27 -24 -30 -1 -30 -2 -9 -8 22 -6 25 -12 24
-53 -1 -50 -23 -102 -50 -117 -10 -5 -15 -13 -11 -16 9 -9 57 43 69 73 5 13 9
44 9 68 0 32 4 44 13 42 8 -3 12 -28 12 -78 0 -71 -1 -74 -25 -80 l-25 -6 24
-7 c14 -3 28 -4 33 -1 4 3 8 41 8 84 0 70 2 79 20 85 27 8 16 25 -11 18 -15
-4 -27 1 -41 18 -19 24 -19 24 -13 2z"/>
<path d="M10130 741 c0 -6 6 -13 13 -18 8 -5 2 -10 -18 -14 -21 -5 -13 -7 30
-7 33 0 51 3 40 5 -11 3 -28 14 -38 24 -20 21 -27 24 -27 10z"/>
<path d="M10445 733 c4 -15 1 -23 -12 -26 -10 -3 -3 -5 15 -6 17 0 32 -3 32
-5 0 -16 -28 -79 -51 -113 -16 -24 -24 -43 -19 -43 4 0 18 16 30 35 21 35 22
35 91 35 l70 0 -3 -32 c-4 -42 -34 -51 -47 -15 -12 30 -31 45 -24 18 7 -26 40
-61 58 -61 8 0 19 17 25 41 6 22 14 47 17 56 5 12 1 14 -17 8 -20 -6 -22 -5
-18 19 4 21 1 26 -14 26 -15 0 -18 5 -13 19 5 17 0 20 -32 23 -30 2 -37 7 -35
21 2 9 -2 17 -8 17 -5 0 -10 -10 -10 -22 l0 -23 -21 25 c-19 23 -20 23 -14 3z
m105 -48 c0 -10 -11 -15 -35 -15 -26 0 -33 3 -29 15 4 9 19 15 35 15 19 0 29
-5 29 -15z m28 -42 c-4 -23 -108 -33 -108 -10 0 22 11 27 62 27 42 0 49 -3 46
-17z"/>
<path d="M6050 721 c0 -16 -8 -21 -42 -24 l-43 -4 43 -1 c47 -2 59 -22 12 -22
-28 0 -30 -3 -30 -35 0 -32 2 -35 30 -35 34 0 35 -1 16 -39 -12 -22 -52 -51
-71 -51 -12 0 -4 197 8 209 10 11 9 13 -3 9 -8 -2 -17 -18 -21 -34 -3 -16 -11
-40 -18 -52 -7 -13 -10 -26 -7 -30 3 -3 6 0 6 6 0 7 5 12 11 12 8 0 10 -20 7
-61 -5 -72 4 -80 60 -52 33 16 43 17 68 6 16 -6 40 -12 54 -12 18 0 11 5 -23
17 -27 9 -48 20 -48 25 1 4 1 16 1 27 0 16 7 20 35 20 33 0 35 2 35 35 0 32
-2 35 -30 35 -16 0 -30 5 -30 10 0 6 18 10 40 10 22 0 40 5 40 10 0 6 -16 8
-41 4 -35 -6 -40 -5 -37 11 2 10 -3 20 -9 22 -8 3 -13 -4 -13 -16z m0 -86 c0
-18 -5 -25 -20 -25 -15 0 -20 7 -20 25 0 18 5 25 20 25 15 0 20 -7 20 -25z
m65 0 c0 -13 -8 -21 -22 -23 -19 -3 -23 1 -23 23 0 22 4 26 23 23 14 -2 22
-10 22 -23z"/>
<path d="M6244 710 c-10 -16 -22 -30 -26 -30 -4 0 -8 -4 -8 -10 0 -15 23 -1
48 30 12 16 18 31 13 34 -5 4 -18 -7 -27 -24z"/>
<path d="M8383 703 c2 -30 -2 -38 -17 -41 -16 -3 -18 1 -14 32 2 20 0 36 -4
36 -4 0 -8 -18 -8 -40 0 -33 3 -40 20 -40 23 0 23 -3 21 -82 -1 -34 3 -58 9
-58 6 0 10 39 10 99 0 55 3 106 6 115 4 11 1 16 -10 16 -12 0 -15 -9 -13 -37z"/>
<path d="M8438 709 c-27 -29 -26 -37 2 -19 9 6 20 5 29 -3 12 -10 14 -9 8 6
-5 13 -1 17 20 17 l26 0 -23 -24 c-17 -19 -29 -24 -50 -19 -16 3 -31 0 -35 -6
-5 -8 2 -10 22 -6 l28 6 -27 -18 c-31 -20 -36 -33 -12 -33 8 0 13 4 9 9 -3 5
4 13 16 16 27 9 100 75 94 85 -2 4 -16 5 -30 2 -15 -2 -25 0 -25 7 0 19 -24
10 -52 -20z"/>
<path d="M9820 695 c0 -35 3 -43 15 -39 12 5 15 -4 15 -44 0 -66 -20 -80 -21
-15 l-2 48 -7 -55 c-4 -30 -5 -57 -4 -59 2 -2 18 2 36 9 40 16 63 35 31 25
-20 -5 -23 -3 -23 19 0 19 5 26 20 26 14 0 18 -5 13 -17 -4 -12 -3 -15 4 -8
16 15 33 75 22 75 -5 0 -9 -8 -9 -17 0 -12 -8 -18 -25 -19 -18 -2 -25 3 -25
17 0 10 7 19 15 19 9 0 15 9 15 24 0 13 3 31 6 40 5 13 -2 16 -35 16 l-41 0 0
-45z m58 1 c-2 -13 -12 -22 -25 -24 -18 -3 -23 1 -23 21 0 30 6 36 31 30 14
-4 19 -13 17 -27z"/>
<path d="M10255 730 l-50 -7 53 -1 c52 -2 53 -3 50 -29 -3 -25 -7 -28 -45 -31
l-43 -3 0 -65 c0 -44 4 -64 13 -65 99 -11 115 -5 99 37 l-10 29 -1 -27 c-1
-26 -4 -28 -41 -28 -43 0 -41 -3 -44 73 -1 31 0 32 42 31 l42 -1 0 49 c0 26
-3 47 -7 46 -5 0 -30 -4 -58 -8z"/>
<path d="M3067 707 c-8 -13 -30 -31 -49 -41 -28 -15 -29 -17 -7 -12 26 6 26 5
21 -52 -2 -31 -10 -67 -18 -79 -21 -33 -16 -42 6 -14 11 13 20 29 20 37 0 10
15 14 58 14 43 1 53 3 40 11 -33 19 -21 39 22 39 46 0 56 -24 18 -40 l-23 -9
23 0 c35 -1 30 -41 -5 -42 -28 0 -28 0 -5 -10 13 -5 28 -7 33 -3 5 3 9 41 9
85 0 70 -2 80 -17 78 -38 -3 -48 0 -35 13 16 16 15 28 -2 28 -7 0 -16 -8 -19
-19 -3 -14 -16 -20 -47 -23 l-43 -4 32 26 c34 29 39 40 17 40 -7 0 -21 -11
-29 -23z m43 -67 c0 -16 -7 -20 -30 -20 -19 0 -30 5 -30 14 0 13 9 17 53 25 4
0 7 -8 7 -19z m83 -11 c-13 -13 -65 -8 -70 8 -3 7 9 13 29 15 38 4 57 -7 41
-23z m-83 -39 c0 -16 -7 -20 -30 -20 -23 0 -30 4 -30 20 0 16 7 20 30 20 23 0
30 -4 30 -20z"/>
<path d="M3400 652 l0 -78 -45 3 c-29 2 -44 -1 -40 -7 4 -6 23 -9 43 -8 32 3
37 0 40 -19 3 -22 0 -23 -52 -23 -31 0 -56 -3 -56 -7 0 -5 54 -7 121 -5 67 2
118 6 115 9 -3 4 -31 5 -62 4 -53 -2 -55 -1 -52 21 3 20 10 23 51 26 26 2 45
7 42 11 -2 5 -26 6 -51 3 l-46 -5 4 77 c2 42 0 76 -4 76 -5 0 -8 -35 -8 -78z"/>
<path d="M3620 700 c0 -22 -5 -30 -17 -31 -11 0 -13 -3 -5 -6 16 -6 15 -38 -3
-73 -9 -17 -11 -30 -5 -30 5 0 13 12 17 28 7 22 9 15 14 -38 l6 -65 1 69 c2
55 5 67 16 63 10 -4 13 -1 9 9 -3 7 -9 14 -14 14 -5 0 -9 5 -9 10 0 6 9 10 20
10 13 0 20 -7 20 -20 0 -17 7 -20 58 -22 l57 -1 -55 -7 -55 -7 60 -1 c56 -2
61 0 62 21 1 12 5 32 8 45 3 12 1 22 -5 22 -5 0 -10 -14 -10 -31 0 -20 -4 -29
-12 -26 -7 2 -12 10 -10 16 8 36 4 71 -8 71 -5 0 -10 -9 -10 -20 0 -11 -4 -20
-10 -20 -5 0 -10 9 -10 20 0 14 -6 20 -22 19 -13 0 -17 -3 -10 -6 19 -8 14
-33 -8 -34 -11 -1 -28 -2 -37 -3 -14 0 -18 6 -16 27 1 15 -2 27 -8 27 -5 0 -9
-13 -9 -30z m90 -44 c0 -8 -4 -18 -10 -21 -5 -3 -10 3 -10 14 0 12 5 21 10 21
6 0 10 -6 10 -14z m40 -6 c0 -11 -4 -20 -10 -20 -5 0 -10 9 -10 20 0 11 5 20
10 20 6 0 10 -9 10 -20z"/>
<path d="M4558 629 l-3 -104 -50 -6 c-34 -4 -13 -6 68 -7 91 -2 118 1 114 11
-2 6 -11 10 -18 8 -8 -3 -33 -6 -56 -9 l-43 -4 0 56 0 56 50 0 c28 0 50 4 50
9 0 17 -20 23 -35 11 -8 -6 -24 -10 -37 -8 -19 2 -23 9 -24 40 0 21 -3 41 -7
44 -3 4 -8 -40 -9 -97z"/>
<path d="M4789 706 c-7 -14 -16 -23 -20 -20 -5 3 -9 -33 -9 -80 0 -85 0 -85
23 -77 14 5 30 5 40 0 15 -9 17 -4 17 40 0 27 5 53 11 56 5 4 14 18 19 31 8
20 16 24 51 24 l42 0 -7 -71 c-8 -86 -11 -92 -44 -86 -25 5 -25 4 -7 -9 10 -8
22 -14 26 -14 19 0 32 37 38 110 l7 80 -49 0 c-43 0 -48 2 -37 15 14 17 8 31
-9 20 -6 -3 -11 -16 -11 -29 0 -12 -7 -31 -15 -42 -14 -18 -14 -18 -15 8 0 21
-4 25 -20 21 -22 -6 -30 22 -8 29 9 3 9 6 0 12 -7 4 -16 -2 -23 -18z m41 -61
c0 -21 -5 -25 -30 -25 -25 0 -30 4 -30 25 0 21 5 25 30 25 25 0 30 -4 30 -25z
m-2 -67 c3 -25 0 -28 -27 -28 -26 0 -31 4 -31 23 0 30 9 39 35 35 13 -2 21
-12 23 -30z"/>
<path d="M5386 719 c-22 -5 -42 -12 -45 -16 -3 -3 6 -3 22 1 15 3 27 2 27 -3
0 -5 -15 -12 -32 -14 l-33 -4 33 -1 c34 -2 46 -22 12 -22 -17 0 -20 -7 -20
-39 0 -34 3 -38 20 -34 11 3 20 0 20 -6 0 -6 -9 -11 -20 -11 -11 0 -20 -5 -20
-11 0 -6 9 -8 20 -4 14 5 20 2 20 -9 0 -9 -7 -17 -15 -17 -28 -3 -33 -4 -41
-11 -10 -11 32 -10 79 1 34 8 38 7 33 -7 -3 -10 8 -1 24 18 20 23 32 49 36 82
5 38 10 48 25 48 16 0 19 -8 19 -51 0 -58 -13 -89 -38 -89 -15 0 -15 -2 -2
-10 26 -16 42 14 49 89 l7 71 -29 0 c-26 0 -29 3 -25 25 3 14 1 28 -3 31 -5 3
-9 -8 -9 -25 0 -20 -6 -31 -17 -34 -17 -4 -16 -5 0 -6 15 -1 17 -7 12 -33 -10
-53 -26 -88 -40 -88 -8 0 -20 -3 -29 -6 -10 -4 -16 -1 -16 9 0 9 10 18 23 20
l22 4 -22 2 c-13 0 -23 6 -23 12 0 6 9 9 19 6 16 -4 20 2 23 34 3 35 1 39 -19
39 -13 0 -23 5 -23 10 0 6 14 10 31 10 18 0 28 4 24 10 -3 6 -17 7 -31 4 -14
-4 -24 -2 -24 5 0 6 12 11 26 11 14 0 23 4 19 10 -7 12 -15 11 -69 -1z m4 -79
c0 -5 -7 -10 -15 -10 -8 0 -15 5 -15 10 0 6 7 10 15 10 8 0 15 -4 15 -10z m50
0 c0 -5 -6 -10 -14 -10 -8 0 -18 5 -21 10 -3 6 3 10 14 10 12 0 21 -4 21 -10z
m-50 -30 c0 -5 -7 -10 -15 -10 -8 0 -15 5 -15 10 0 6 7 10 15 10 8 0 15 -4 15
-10z m50 0 c0 -5 -7 -10 -15 -10 -8 0 -15 5 -15 10 0 6 7 10 15 10 8 0 15 -4
15 -10z"/>
<path d="M5685 720 l-50 -5 0 -40 c0 -36 2 -40 23 -37 24 4 29 -7 10 -26 -9
-9 -9 -12 1 -12 8 0 11 -6 7 -15 -4 -12 3 -15 34 -15 37 0 40 -2 40 -28 0 -26
2 -27 49 -27 l49 0 4 48 c3 41 1 47 -16 47 -16 0 -17 -3 -8 -12 7 -7 12 -25
12 -41 0 -27 -2 -28 -37 -25 -38 3 -38 3 -34 53 0 8 10 15 21 15 12 0 20 6 19
13 -4 35 2 47 26 47 14 0 25 5 25 11 0 7 -10 9 -25 5 -23 -6 -25 -3 -25 24 0
16 -4 30 -10 30 -6 0 -10 -27 -10 -60 0 -53 -2 -60 -20 -60 -11 0 -20 -7 -20
-16 0 -11 -8 -14 -27 -12 -33 4 -34 20 -1 30 22 6 21 6 -4 7 -16 1 -28 6 -28
12 0 7 10 9 24 7 22 -5 25 -1 28 39 2 25 1 46 -2 47 -3 1 -28 -1 -55 -4z m-5
-40 c0 -19 -5 -30 -14 -30 -19 0 -29 17 -16 25 5 3 10 1 10 -6 0 -7 3 -10 6
-7 3 4 1 16 -6 27 -9 17 -8 21 5 21 10 0 15 -10 15 -30z m50 0 c0 -20 -5 -30
-15 -30 -17 0 -20 16 -5 25 6 3 10 11 10 17 0 7 -6 6 -15 -2 -12 -10 -15 -10
-15 4 0 9 8 16 20 16 16 0 20 -7 20 -30z"/>
<path d="M6310 685 l0 -40 47 1 47 1 1 39 1 39 -48 0 -48 0 0 -40z m80 15 c0
-5 -16 -10 -35 -10 -19 0 -35 5 -35 10 0 6 16 10 35 10 19 0 35 -4 35 -10z m0
-30 c0 -5 -16 -10 -35 -10 -19 0 -35 5 -35 10 0 6 16 10 35 10 19 0 35 -4 35
-10z"/>
<path d="M10979 721 c12 -8 10 -20 -10 -77 -13 -38 -28 -72 -34 -76 -5 -4 5
-8 23 -8 20 0 31 4 27 10 -3 6 1 42 11 80 17 69 17 70 50 70 21 0 37 -6 43
-17 9 -16 10 -16 11 5 0 21 -4 22 -67 22 -43 0 -63 -4 -54 -9z"/>
<path d="M1530 705 c10 -12 8 -16 -11 -24 -20 -8 -15 -10 29 -10 35 -1 51 3
47 10 -4 6 -13 8 -21 5 -7 -3 -18 4 -24 14 -6 11 -16 20 -22 20 -7 0 -6 -5 2
-15z"/>
<path d="M1620 700 c0 -12 -7 -35 -16 -53 l-15 -32 25 28 c26 28 36 77 16 77
-5 0 -10 -9 -10 -20z"/>
<path d="M1660 710 c-10 -6 -11 -10 -2 -10 6 0 12 -9 12 -19 0 -34 12 -51 35
-51 13 0 27 5 30 10 4 6 -5 10 -19 10 -23 0 -26 4 -26 35 0 37 -5 41 -30 25z"/>
<path d="M2457 701 c3 -13 -1 -21 -14 -24 -12 -3 -8 -5 11 -6 27 -1 28 -3 22
-32 -3 -18 -20 -55 -37 -83 l-30 -51 36 43 c37 42 37 42 106 42 65 0 69 -1 69
-23 0 -33 -22 -59 -43 -51 -9 3 -17 14 -17 24 0 11 -5 22 -11 26 -17 10 0 -39
19 -53 34 -27 56 -10 65 50 5 32 3 37 -14 37 -16 0 -18 5 -13 27 6 22 4 25
-10 20 -13 -5 -16 -2 -14 12 3 18 -1 21 -24 21 -10 0 -9 -3 1 -9 22 -14 3 -31
-35 -31 -32 0 -45 12 -25 24 5 3 9 17 9 31 0 31 -18 34 -19 3 l0 -23 -11 23
c-13 27 -28 29 -21 3z m131 -83 c-5 -15 -108 -24 -108 -10 0 17 14 22 63 22
34 0 47 -4 45 -12z"/>
<path d="M2810 711 c0 -6 -24 -12 -52 -14 l-53 -3 53 -2 c28 -1 52 -6 52 -11
0 -12 -37 -24 -50 -16 -6 4 -10 -23 -10 -74 0 -79 0 -80 -27 -84 -16 -2 14 -5
65 -6 l92 -1 0 69 c0 38 3 76 6 85 5 12 -1 14 -30 9 -29 -4 -36 -2 -36 11 0
13 11 16 55 16 30 0 55 4 55 9 0 4 -22 6 -50 3 -33 -3 -50 -1 -50 7 0 6 -4 11
-10 11 -5 0 -10 -4 -10 -9z m57 -73 c-2 -8 -19 -12 -45 -11 -23 2 -42 -2 -42
-7 0 -6 20 -10 43 -10 42 0 44 -1 44 -30 0 -31 -1 -31 -51 -28 l-50 3 -1 48
-2 47 54 0 c39 0 53 -4 50 -12z m3 -112 c0 -10 -13 -13 -52 -11 -63 3 -61 2
-53 15 10 16 105 13 105 -4z"/>
<path d="M2798 583 c7 -3 16 -2 19 1 4 3 -2 6 -13 5 -11 0 -14 -3 -6 -6z"/>
<path d="M3788 713 c6 -2 18 -2 25 0 6 3 1 5 -13 5 -14 0 -19 -2 -12 -5z"/>
<path d="M3897 709 c8 -8 16 -8 30 0 16 9 14 10 -11 11 -22 0 -27 -3 -19 -11z"/>
<path d="M3968 710 c19 -8 22 -17 22 -59 l0 -50 -57 -4 -58 -3 57 -2 57 -2 4
-52 3 -53 2 53 2 52 56 0 c30 0 53 4 50 9 -3 4 -28 6 -56 3 l-50 -5 0 50 c0
27 5 54 12 61 9 9 3 12 -27 11 -34 0 -37 -2 -17 -9z"/>
<path d="M4058 713 c6 -2 18 -2 25 0 6 3 1 5 -13 5 -14 0 -19 -2 -12 -5z"/>
<path d="M4180 710 c0 -5 7 -7 15 -4 8 4 15 8 15 10 0 2 -7 4 -15 4 -8 0 -15
-4 -15 -10z"/>
<path d="M4238 713 c7 -3 16 -2 19 1 4 3 -2 6 -13 5 -11 0 -14 -3 -6 -6z"/>
<path d="M4270 701 c0 -27 -24 -43 -54 -35 l-26 6 0 -83 0 -84 97 2 98 1 3 80
3 79 -50 -3 c-28 -2 -53 1 -56 5 -11 19 8 40 38 44 27 3 25 4 -10 5 -36 2 -43
-1 -43 -17z m-30 -117 c0 -57 -2 -65 -17 -62 -15 3 -19 16 -21 66 -3 57 -1 62
18 62 18 0 20 -6 20 -66z m70 51 c0 -9 -9 -15 -25 -15 -16 0 -25 6 -25 15 0 9
9 15 25 15 16 0 25 -6 25 -15z m60 -50 c0 -58 -2 -65 -20 -65 -18 0 -20 7 -20
65 0 58 2 65 20 65 18 0 20 -7 20 -65z m-54 9 c-3 -9 -6 -29 -6 -45 0 -24 -4
-29 -25 -29 -34 0 -36 39 -2 41 l22 2 -22 4 c-15 3 -23 12 -23 24 0 15 7 19
31 19 24 0 30 -3 25 -16z"/>
<path d="M4368 713 c6 -2 18 -2 25 0 6 3 1 5 -13 5 -14 0 -19 -2 -12 -5z"/>
<path d="M6858 704 c55 -38 -4 -169 -68 -149 -10 3 -22 14 -25 24 -7 23 19 84
47 111 17 16 18 20 6 20 -9 0 -30 -16 -47 -35 -72 -82 -12 -172 80 -118 64 38
65 163 1 163 -13 0 -12 -3 6 -16z"/>
<path d="M7448 711 c13 -3 29 -17 36 -30 l13 -24 5 29 c4 28 2 29 -37 30 -28
2 -33 0 -17 -5z"/>
<path d="M7559 706 c8 -10 6 -29 -9 -76 -11 -35 -25 -69 -31 -77 -9 -10 -6
-13 14 -13 23 0 26 5 29 38 3 31 7 37 28 40 37 4 68 22 73 43 8 31 -15 50 -67
54 -40 4 -46 3 -37 -9z m69 -8 c19 -19 14 -36 -14 -54 -33 -22 -45 -8 -28 34
15 35 23 39 42 20z"/>
<path d="M8884 675 c-1 -24 -10 -62 -21 -85 l-20 -40 28 0 c21 0 27 4 23 15
-4 8 -3 26 0 40 5 19 13 25 35 25 49 0 79 48 49 78 -7 7 -30 12 -52 12 l-41 0
-1 -45z m80 19 c8 -21 -20 -54 -46 -54 -22 0 -22 3 -3 40 17 33 39 39 49 14z"/>
<path d="M791 678 c-33 -41 -36 -124 -5 -164 30 -40 49 -42 24 -2 -27 45 -27
120 1 164 26 42 12 43 -20 2z"/>
<path d="M978 682 c31 -43 31 -138 0 -177 -13 -17 -16 -26 -8 -23 24 8 51 53
57 95 6 47 -18 108 -50 125 -19 10 -19 9 1 -20z"/>
<path d="M6965 700 c7 -12 -20 -103 -41 -137 -14 -22 -13 -23 18 -23 23 0 29
3 21 11 -8 8 -8 20 -1 40 8 23 16 29 38 29 37 0 62 25 58 59 -3 24 -8 26 -51
29 -33 2 -47 0 -42 -8z m69 -15 c8 -22 -3 -43 -26 -51 -26 -8 -31 -1 -23 35 7
33 38 43 49 16z"/>
<path d="M7367 682 c-37 -39 -38 -102 -2 -126 42 -28 105 -19 105 15 0 10 9
28 20 39 l20 20 -37 0 c-24 0 -33 -3 -25 -9 9 -5 11 -17 6 -34 -5 -23 -12 -27
-40 -27 -28 0 -36 5 -45 27 -12 33 3 81 34 105 16 13 18 18 6 18 -8 0 -27 -13
-42 -28z"/>
<path d="M9388 703 c7 -3 16 -2 19 1 4 3 -2 6 -13 5 -11 0 -14 -3 -6 -6z"/>
<path d="M9429 659 c1 -27 0 -66 -3 -85 -6 -29 -11 -34 -33 -34 -25 0 -26 -1
-8 -14 37 -27 49 -8 60 99 3 28 8 58 11 68 4 12 0 17 -13 17 -15 0 -18 -7 -14
-51z"/>
<path d="M2066 689 c9 -15 -26 -131 -45 -146 -12 -11 -10 -13 18 -13 18 0 30
4 27 9 -3 5 -3 23 0 40 6 26 11 31 35 31 28 0 69 30 69 49 0 5 -7 17 -16 25
-18 19 -99 23 -88 5z m72 -22 c5 -23 -15 -47 -39 -47 -16 0 -18 5 -13 28 4 15
9 31 11 35 8 14 38 2 41 -16z"/>
<path d="M3340 690 c0 -6 -11 -28 -25 -50 -14 -22 -21 -40 -15 -40 5 0 10 3
10 8 0 4 7 16 16 27 15 20 15 20 34 -5 15 -19 20 -21 20 -9 0 9 -7 22 -15 29
-9 7 -13 21 -10 31 4 11 2 19 -4 19 -6 0 -11 -5 -11 -10z"/>
<path d="M3452 653 c-12 -26 -19 -49 -17 -51 2 -3 10 7 16 22 15 33 22 33 48
-1 11 -16 21 -23 21 -17 0 6 -9 23 -21 38 -17 21 -19 29 -9 41 10 12 10 15 -2
15 -8 0 -24 -21 -36 -47z"/>
<path d="M9698 678 c7 -7 12 -42 12 -85 0 -66 2 -73 19 -73 25 0 30 9 20 40
-7 24 -7 24 -8 3 -1 -13 -5 -23 -11 -23 -6 0 -10 32 -10 75 0 64 -3 75 -17 75
-13 0 -14 -3 -5 -12z"/>
<path d="M3929 646 c9 -18 18 -29 20 -24 4 12 -19 58 -29 58 -4 0 0 -15 9 -34z"/>
<path d="M4047 644 c-20 -40 -8 -37 23 6 16 22 18 30 8 30 -8 0 -22 -16 -31
-36z"/>
<path d="M6238 640 c-16 -23 -21 -37 -13 -33 12 4 15 -7 17 -53 1 -52 2 -53 5
-14 5 76 13 109 29 125 12 11 12 15 2 15 -7 -1 -25 -18 -40 -40z"/>
<path d="M10133 663 c15 -2 37 -2 50 0 12 2 0 4 -28 4 -27 0 -38 -2 -22 -4z"/>
<path d="M11334 656 c-9 -24 4 -48 23 -44 12 2 18 12 18 28 0 29 -32 41 -41
16z m31 -16 c0 -7 -6 -15 -12 -17 -8 -3 -13 4 -13 17 0 13 5 20 13 18 6 -3 12
-11 12 -18z"/>
<path d="M1530 652 c-32 -4 -33 -5 -10 -11 31 -9 72 -2 64 10 -3 5 -8 8 -12 7
-4 0 -23 -3 -42 -6z"/>
<path d="M7933 653 c-21 -8 -15 -22 7 -16 14 4 20 0 20 -12 0 -12 -6 -16 -20
-12 -11 3 -20 1 -20 -4 0 -16 40 -10 47 7 7 18 -16 44 -34 37z"/>
<path d="M8509 638 c-1 -13 -2 -41 -3 -63 -1 -32 -5 -40 -18 -39 -24 2 -23
-12 1 -19 27 -7 31 0 31 46 0 30 4 40 20 44 11 3 17 9 15 14 -3 4 -12 6 -20 2
-18 -6 -20 8 -3 25 9 9 8 12 -5 12 -11 0 -17 -8 -18 -22z"/>
<path d="M10011 655 c0 -5 7 -26 14 -45 12 -32 14 -33 14 -9 1 14 -6 34 -14
45 -8 10 -14 15 -14 9z"/>
<path d="M866 634 c-26 -25 -20 -81 9 -100 24 -16 27 -16 45 1 26 23 26 39 1
23 -25 -15 -51 4 -51 37 0 32 24 50 40 30 16 -19 30 -19 30 -1 0 27 -50 34
-74 10z"/>
<path d="M9360 646 c0 -4 9 -19 20 -33 13 -17 20 -20 20 -11 0 8 -9 23 -20 33
-11 10 -20 15 -20 11z"/>
<path d="M5147 632 c-66 -2 -105 -6 -102 -12 8 -13 225 -13 225 -1 0 15 -9 16
-123 13z"/>
<path d="M7135 630 c8 -13 123 -11 131 2 3 4 -27 8 -66 8 -47 0 -69 -4 -65
-10z"/>
<path d="M10110 628 c0 -5 20 -8 45 -8 25 0 45 4 45 9 0 5 -20 9 -45 8 -25 -1
-45 -5 -45 -9z"/>
<path d="M4896 607 c10 -15 23 -27 28 -27 12 0 -18 43 -34 48 -8 3 -6 -5 6
-21z"/>
<path d="M6277 618 c2 -5 26 -8 54 -8 l49 0 0 -40 c0 -35 -3 -40 -22 -40 -21
-1 -21 -2 -5 -11 32 -18 47 -4 47 46 0 38 3 45 20 45 11 0 20 4 20 8 0 5 -38
8 -84 8 -46 -1 -82 -4 -79 -8z"/>
<path d="M1517 608 c-17 -11 23 -9 48 2 17 7 16 8 -8 7 -15 -1 -33 -5 -40 -9z"/>
<path d="M1648 610 l-48 -5 20 -33 c11 -18 20 -35 20 -37 0 -2 -17 -13 -37
-24 -21 -11 -32 -20 -25 -21 7 0 27 7 43 16 24 12 37 13 61 5 38 -14 48 -14
48 -1 0 6 -8 10 -17 10 -39 0 -45 15 -23 53 11 19 17 37 13 39 -4 2 -29 1 -55
-2z m32 -24 c0 -22 -26 -39 -37 -24 -25 33 -24 38 6 38 20 0 31 -5 31 -14z"/>
<path d="M8338 591 c2 -16 -1 -38 -7 -50 -7 -13 -8 -21 -2 -21 12 0 34 77 26
90 -12 20 -21 9 -17 -19z"/>
<path d="M6415 590 c-3 -5 3 -10 14 -10 12 0 21 5 21 10 0 6 -6 10 -14 10 -8
0 -18 -4 -21 -10z"/>
<path d="M7170 589 c-39 -5 -34 -6 29 -7 41 -1 71 1 67 6 -9 9 -36 9 -96 1z"/>
<path d="M10110 559 c0 -35 2 -40 18 -33 9 4 27 7 40 7 19 -1 22 4 22 33 0 19
-5 34 -10 34 -6 0 -8 -11 -4 -25 5 -22 3 -25 -20 -25 -21 0 -26 5 -26 25 0 14
-4 25 -10 25 -5 0 -10 -18 -10 -41z"/>
<path d="M10572 580 c14 -22 24 -19 15 5 -4 8 -11 15 -17 15 -6 0 -6 -7 2 -20z"/>
<path d="M3725 580 c-61 -4 -71 -7 -40 -10 38 -5 40 -7 46 -45 l6 -40 2 42 c1
42 1 42 44 45 23 2 38 5 32 8 -5 3 -46 3 -90 0z"/>
<path d="M6280 583 c8 -4 22 -16 32 -27 9 -12 17 -16 18 -9 0 6 -6 15 -12 20
-9 5 -1 10 22 14 29 5 26 6 -20 7 -30 0 -48 -2 -40 -5z"/>
<path d="M8450 569 c7 -11 14 -18 17 -15 8 8 -5 36 -17 36 -7 0 -7 -6 0 -21z"/>
<path d="M10453 563 c-7 -15 -11 -28 -9 -31 6 -6 28 38 24 48 -2 5 -9 -3 -15
-17z"/>
<path d="M10498 563 c5 -21 7 -23 10 -9 2 10 0 22 -6 28 -6 6 -7 0 -4 -19z"/>
<path d="M1511 580 c-1 -3 -3 -22 -5 -43 -2 -30 0 -37 11 -32 8 3 25 5 39 5
20 0 23 4 22 35 -2 43 -18 47 -18 5 0 -23 -5 -30 -19 -30 -15 0 -21 8 -24 33
-2 17 -5 30 -6 27z"/>
<path d="M5628 573 c6 -2 18 -2 25 0 6 3 1 5 -13 5 -14 0 -19 -2 -12 -5z"/>
<path d="M6005 570 c3 -5 11 -10 16 -10 6 0 7 5 4 10 -3 6 -11 10 -16 10 -6 0
-7 -4 -4 -10z"/>
<path d="M2502 546 c1 -15 6 -26 10 -26 12 0 10 38 -2 45 -6 4 -9 -5 -8 -19z"/>
<path d="M2586 557 c3 -10 9 -15 12 -12 3 3 0 11 -7 18 -10 9 -11 8 -5 -6z"/>
<path d="M2463 534 c-6 -13 -7 -24 -3 -24 9 0 25 39 18 45 -2 2 -8 -7 -15 -21z"/>
<path d="M3672 535 c-15 -17 -17 -25 -8 -25 13 0 46 31 46 43 0 14 -17 6 -38
-18z"/>
<path d="M3780 535 c13 -14 26 -23 28 -20 7 7 -29 45 -41 45 -6 0 0 -11 13
-25z"/>
<path d="M5633 534 c-6 -13 -7 -24 -3 -24 9 0 25 39 18 45 -2 2 -8 -7 -15 -21z"/>
<path d="M5661 553 c0 -4 4 -17 9 -28 8 -19 9 -19 9 2 1 12 -3 25 -9 28 -5 3
-10 3 -9 -2z"/>
<path d="M5697 539 c4 -13 8 -18 11 -10 2 7 -1 18 -6 23 -8 8 -9 4 -5 -13z"/>
<path d="M5720 553 c0 -4 5 -15 10 -23 8 -13 10 -13 10 2 0 9 -4 20 -10 23 -5
3 -10 3 -10 -2z"/>
<path d="M2895 510 c-3 -5 1 -10 9 -10 8 0 18 5 21 10 3 6 -1 10 -9 10 -8 0
-18 -4 -21 -10z"/>
<path d="M11250 408 c0 -4 7 -8 15 -8 8 0 15 -6 15 -14 0 -7 7 -19 15 -26 28
-23 15 -30 -56 -30 l-70 0 27 35 c15 20 24 38 20 42 -3 3 -7 4 -9 2 -1 -2 -17
-25 -35 -52 l-33 -47 35 4 c20 3 38 1 41 -4 9 -15 -15 -64 -43 -87 -15 -13
-21 -23 -14 -23 17 0 55 46 68 83 8 25 16 31 40 32 24 0 30 -5 32 -26 2 -14
-2 -38 -8 -53 -8 -22 -14 -26 -33 -21 -17 5 -19 4 -7 -4 34 -24 47 -13 56 46
7 44 13 58 26 58 31 0 30 13 -1 30 -21 10 -34 26 -37 45 -5 20 -12 28 -25 27
-10 -1 -19 -5 -19 -9z"/>
<path d="M8364 385 c-3 -14 -12 -25 -20 -25 -11 0 -14 -18 -14 -78 l0 -78 40
1 40 0 0 48 c0 26 4 47 9 47 5 0 18 22 30 49 24 56 25 61 12 61 -5 0 -14 -20
-20 -45 -6 -25 -16 -45 -21 -45 -6 0 -8 11 -4 24 5 21 3 23 -20 19 -29 -6 -35
11 -10 25 15 8 15 10 0 15 -11 4 -18 -1 -22 -18z m36 -60 c0 -20 -5 -25 -25
-25 -20 0 -25 5 -25 25 0 20 5 25 25 25 20 0 25 -5 25 -25z m0 -69 c0 -29 -3
-33 -25 -33 -31 0 -39 11 -31 43 5 17 13 24 31 24 22 0 25 -4 25 -34z"/>
<path d="M8740 399 c-41 -3 -67 -6 -57 -7 12 -1 17 -8 15 -19 -2 -13 -14 -19
-41 -21 l-37 -3 0 -85 c0 -47 4 -83 8 -80 5 3 7 37 5 76 -3 64 -1 70 17 70 18
0 20 -7 20 -65 0 -61 1 -65 23 -64 12 0 16 3 10 6 -7 2 -13 13 -13 24 0 14 7
19 25 19 20 0 25 -5 25 -25 0 -19 5 -25 23 -25 13 0 28 -5 35 -12 9 -9 12 4
12 59 0 39 3 78 6 87 5 14 -3 16 -55 16 -58 0 -61 1 -51 20 8 15 23 20 68 22
31 2 53 5 47 8 -5 3 -44 2 -85 -1z m-2 -100 c0 -34 -3 -39 -24 -39 -21 0 -24
5 -24 38 0 32 3 37 24 38 22 2 25 -2 24 -37z m60 -27 c3 -61 2 -62 -23 -62
-24 0 -25 2 -25 58 0 63 5 74 30 70 11 -2 16 -19 18 -66z"/>
<path d="M8923 403 c-7 -2 -13 -15 -13 -28 0 -17 -7 -25 -22 -28 l-23 -4 23
-2 c27 -1 28 -16 2 -64 -11 -20 -16 -37 -10 -37 5 0 10 4 10 8 0 21 38 52 56
45 18 -6 18 -6 0 15 -11 12 -17 24 -15 25 10 8 149 -6 149 -15 0 -6 -22 -8
-51 -6 l-50 3 2 -55 c2 -45 0 -56 -14 -58 -9 -2 -17 -8 -17 -13 0 -10 71 21
81 35 4 5 19 6 33 4 25 -5 26 -4 26 48 0 42 3 54 16 54 8 0 13 4 9 9 -3 5 -21
7 -40 4 -31 -5 -35 -3 -35 16 0 17 6 21 36 21 20 0 33 4 29 10 -3 5 -20 7 -37
3 -22 -4 -29 -3 -24 5 4 7 2 12 -3 12 -6 0 -11 -4 -11 -10 0 -5 -15 -11 -32
-11 l-33 -2 30 -6 c41 -8 44 -41 4 -41 -15 0 -31 5 -34 11 -4 6 -13 8 -21 5
-21 -8 -18 31 4 43 13 8 14 10 2 10 -8 0 -21 -3 -27 -6z m140 -110 c-13 -2
-33 -2 -45 0 -13 2 -3 4 22 4 25 0 35 -2 23 -4z m4 -27 c-14 -11 -15 -15 -5
-19 7 -3 -7 -5 -32 -5 -41 0 -42 1 -15 8 23 6 25 8 8 9 -46 2 -33 21 14 21 43
-1 46 -2 30 -14z"/>
<path d="M10886 382 c-39 -42 -46 -115 -14 -161 12 -19 30 -37 38 -39 13 -4
12 -2 -1 14 -45 53 -42 165 5 196 6 4 8 9 5 12 -3 3 -18 -7 -33 -22z"/>
<path d="M11422 373 c25 -48 20 -150 -8 -170 -10 -7 -14 -16 -10 -20 11 -11
44 36 56 77 12 43 -1 96 -30 128 -29 31 -31 28 -8 -15z"/>
<path d="M3695 383 c6 -20 2 -22 -47 -26 -29 -2 -2 -4 60 -5 68 -1 112 2 112
8 0 6 -18 7 -45 3 -39 -5 -47 -3 -65 18 -21 23 -21 24 -15 2z"/>
<path d="M4320 336 c0 -59 -2 -66 -20 -66 -11 0 -20 -6 -20 -12 0 -7 -14 -14
-31 -15 -36 -3 -35 18 2 28 24 7 24 7 -3 8 -35 1 -37 21 -3 21 23 0 25 4 25
45 0 26 -5 45 -11 45 -6 0 -9 -7 -5 -15 3 -9 0 -15 -9 -15 -8 0 -15 -5 -15
-11 0 -5 5 -7 10 -4 6 3 10 -3 10 -14 0 -12 -6 -21 -12 -21 -16 0 -20 53 -5
62 7 5 1 8 -15 8 -14 0 -33 3 -42 6 -13 5 -16 -2 -16 -40 0 -42 2 -46 25 -46
37 0 30 -20 -7 -21 l-33 -1 29 -7 c42 -9 44 -29 4 -34 -18 -2 -3 -5 35 -5 l67
-2 1 -37 c0 -21 3 -32 6 -25 3 7 23 12 49 12 l44 0 0 45 c0 42 -2 45 -26 45
-22 0 -25 4 -22 28 2 19 9 27 23 27 11 0 20 5 20 10 0 6 -11 9 -24 7 -20 -3
-23 0 -19 23 3 14 1 28 -3 31 -5 3 -9 -24 -9 -60z m-110 3 c0 -24 -4 -30 -17
-27 -10 2 -19 12 -21 23 -3 20 -3 20 13 1 17 -23 20 -14 5 15 -8 15 -7 19 5
19 10 0 15 -10 15 -31z m150 -114 c0 -33 -2 -35 -35 -35 -33 0 -35 2 -35 35 0
33 2 35 35 35 33 0 35 -2 35 -35z"/>
<path d="M5338 338 c-3 -53 -6 -63 -20 -62 -10 1 -18 -4 -18 -12 0 -9 -11 -14
-30 -14 -16 0 -30 5 -30 10 0 6 12 10 26 10 15 0 23 4 19 10 -4 6 -15 8 -26 5
-11 -4 -19 -2 -19 4 0 6 11 11 25 11 23 0 25 4 25 45 l0 45 -55 0 -55 0 0 -45
c0 -42 2 -45 27 -45 32 0 20 -16 -17 -23 -25 -4 -25 -4 2 -6 40 -2 45 -21 6
-21 -24 0 -29 -3 -19 -9 12 -8 13 -14 3 -36 -16 -35 -15 -44 3 -21 8 11 15 28
15 38 0 30 31 18 43 -16 4 -10 10 -16 13 -13 3 3 0 15 -6 27 -11 20 -9 21 17
18 24 -2 28 -8 31 -36 2 -18 7 -30 12 -27 4 3 6 23 3 45 l-6 40 38 0 c37 0 37
-1 33 -35 -3 -22 0 -35 8 -35 7 0 12 18 12 45 1 43 0 45 -23 39 -23 -6 -25 -3
-25 25 0 28 3 31 31 31 19 0 28 4 23 11 -3 6 -17 8 -31 4 -24 -6 -25 -4 -20
24 4 17 2 31 -3 31 -5 0 -10 -28 -12 -62z m-113 6 c0 -32 -27 -42 -33 -11 -2
9 1 17 7 17 5 0 12 -8 14 -17 4 -16 5 -16 6 -1 0 9 -3 20 -9 23 -14 9 -12 27
3 23 6 -3 12 -18 12 -34z m45 27 c0 -5 -7 -11 -15 -15 -9 -3 -15 0 -15 9 0 8
7 15 15 15 8 0 15 -4 15 -9z m0 -41 c0 -11 -7 -20 -15 -20 -18 0 -19 12 -3 28
16 16 18 15 18 -8z"/>
<path d="M6301 393 c4 -26 -5 -32 -53 -36 l-53 -3 53 -2 c57 -2 57 -2 55 -92
-1 -71 -2 -72 -25 -65 -23 7 -23 7 1 -10 29 -22 41 -8 41 47 l0 36 34 -34 c19
-19 44 -34 57 -34 18 0 14 6 -25 30 -51 33 -54 48 -13 68 15 7 27 17 27 23 0
14 -9 11 -37 -11 -35 -27 -43 -25 -43 10 0 30 0 30 56 30 36 0 53 4 49 10 -4
6 -15 8 -26 5 -13 -4 -19 -2 -19 8 0 8 -7 17 -15 21 -13 4 -14 2 -5 -14 9 -18
8 -20 -16 -20 -21 0 -25 4 -21 20 3 13 0 20 -9 20 -8 0 -13 -3 -13 -7z"/>
<path d="M6780 393 c0 -4 5 -15 10 -23 8 -13 10 -13 10 2 0 9 -4 20 -10 23 -5
3 -10 3 -10 -2z"/>
<path d="M6858 393 c-13 -3 -18 -15 -18 -41 0 -20 -4 -41 -8 -47 -10 -14 -42
-15 -42 -2 0 7 -4 7 -12 -1 -9 -9 -8 -15 6 -25 14 -10 15 -18 7 -40 -6 -15
-17 -30 -26 -33 -8 -3 -12 -10 -9 -16 3 -5 11 -4 20 3 10 8 22 8 45 0 38 -13
159 -15 159 -2 0 5 -9 7 -20 4 -11 -3 -20 -3 -20 0 0 14 24 57 32 57 4 0 8 5
8 10 0 6 -4 10 -9 10 -15 0 -42 -31 -35 -41 3 -5 -2 -12 -10 -15 -9 -3 -13
-10 -10 -15 3 -5 -14 -9 -37 -9 l-42 0 41 39 c24 23 37 43 31 46 -9 6 -49 -30
-49 -44 0 -12 -39 -31 -53 -25 -30 11 17 93 53 93 11 0 10 -3 -4 -14 -11 -8
-15 -15 -9 -15 6 0 16 7 23 15 14 17 40 20 40 5 0 -5 7 -10 16 -10 9 0 12 5 8
11 -5 9 1 10 20 5 15 -4 26 -2 26 4 0 5 -5 10 -11 10 -8 0 -10 14 -6 40 5 40
5 40 -28 40 -18 0 -39 2 -47 4 -7 2 -21 2 -30 -1z m65 -20 c-13 -2 -33 -2 -45
0 -13 2 -3 4 22 4 25 0 35 -2 23 -4z m-30 -40 c-7 -2 -19 -2 -25 0 -7 3 -2 5
12 5 14 0 19 -2 13 -5z m-10 -20 c-7 -2 -19 -2 -25 0 -7 3 -2 5 12 5 14 0 19
-2 13 -5z m60 0 c-7 -2 -19 -2 -25 0 -7 3 -2 5 12 5 14 0 19 -2 13 -5z"/>
<path d="M7090 390 c-30 -4 -47 -7 -37 -8 12 -2 17 -11 17 -36 0 -28 -4 -35
-22 -39 l-23 -4 23 -2 c27 -1 29 -24 6 -81 -9 -23 -14 -43 -12 -46 9 -9 38 63
38 95 0 24 4 31 20 31 17 0 20 -8 23 -67 l3 -68 2 68 c2 60 4 67 23 67 11 0
18 4 14 10 -3 5 -12 7 -20 3 -11 -4 -15 3 -15 27 0 23 5 33 20 37 17 5 19 25
2 21 -4 -1 -32 -4 -62 -8z m30 -45 c0 -28 -4 -35 -20 -35 -15 0 -20 7 -20 28
0 32 7 42 27 42 8 0 13 -13 13 -35z"/>
<path d="M7192 364 c-44 -44 -26 -44 24 1 21 19 32 34 24 33 -8 0 -30 -16 -48
-34z"/>
<path d="M8613 393 c9 -2 25 -2 35 0 9 3 1 5 -18 5 -19 0 -27 -2 -17 -5z"/>
<path d="M11000 391 c0 -4 -13 -25 -30 -46 -16 -21 -30 -46 -30 -56 0 -14 7
-19 30 -19 23 0 30 -4 30 -20 0 -28 13 -25 28 7 8 18 9 30 2 37 -5 5 -10 32
-10 58 0 26 -4 48 -10 48 -5 0 -10 -4 -10 -9z m0 -71 c0 -25 -4 -30 -25 -30
-24 0 -24 0 -7 30 22 38 32 38 32 0z"/>
<path d="M1540 378 c0 -7 -9 -31 -20 -53 -22 -42 -27 -73 -7 -40 10 17 13 10
18 -55 l5 -75 3 85 c4 121 5 123 19 128 11 3 13 -16 10 -102 -1 -58 0 -106 5
-106 4 0 7 11 7 25 0 21 5 25 30 25 17 0 30 5 30 10 0 6 -12 9 -27 8 -19 -2
-28 2 -31 15 -3 13 3 17 27 17 17 0 31 5 31 10 0 6 -12 9 -27 8 -20 -2 -28 2
-28 12 0 11 17 16 70 20 l70 5 0 30 c0 17 -4 30 -10 30 -5 0 -9 -12 -7 -27 3
-26 1 -28 -32 -28 -32 0 -36 3 -36 25 0 20 5 25 27 25 34 0 27 7 -12 12 -27 3
-30 0 -30 -27 0 -23 -5 -31 -22 -33 -17 -3 -23 2 -23 15 0 11 5 24 12 31 9 9
8 12 -4 12 -9 0 -23 3 -32 6 -10 4 -16 1 -16 -8z"/>
<path d="M1884 376 c5 -16 1 -18 -38 -14 -37 2 -46 0 -50 -15 -9 -35 4 -47 50
-47 l44 0 0 -55 c0 -59 -7 -66 -35 -35 -12 13 -15 27 -11 45 4 14 2 25 -4 25
-5 0 -10 -11 -10 -24 0 -14 -12 -39 -26 -56 -32 -37 -27 -50 5 -16 23 25 24
25 50 6 30 -21 107 -33 136 -20 15 6 4 9 -37 9 -58 1 -58 1 -58 31 0 28 2 30
40 30 22 0 40 5 40 10 0 6 -15 8 -40 4 -38 -6 -40 -5 -40 20 0 23 4 26 38 26
33 0 39 4 49 30 l11 30 -45 0 c-31 0 -50 6 -60 18 -14 16 -14 16 -9 -2z m96
-34 c0 -22 -29 -32 -97 -32 -66 0 -73 2 -73 20 0 18 7 20 85 20 47 0 85 -4 85
-8z"/>
<path d="M2697 383 c-4 -3 -7 -20 -7 -37 0 -56 -19 -106 -40 -106 -11 0 -20 7
-20 15 0 8 9 15 20 15 11 0 20 5 20 10 0 6 -8 10 -17 8 -11 -2 -18 3 -18 12 0
8 8 14 18 14 9 -1 17 2 17 7 0 5 -9 9 -20 9 -26 0 -26 27 1 35 11 4 18 9 16
12 -3 3 -15 2 -26 -2 -18 -6 -21 -14 -21 -71 0 -38 -4 -64 -11 -64 -5 0 -8 -4
-5 -9 6 -9 215 -5 225 5 3 3 -1 9 -8 13 -10 6 -12 26 -9 70 l4 60 -25 -6 c-34
-8 -39 -13 -13 -13 30 0 29 -30 0 -31 l-23 0 23 -9 c12 -5 22 -14 22 -20 0 -6
-10 -15 -22 -20 -18 -7 -19 -9 -5 -9 30 -1 20 -31 -12 -31 -28 0 -28 1 -21 42
10 51 7 58 -20 51 -11 -3 -20 0 -20 6 0 6 11 11 25 11 14 0 25 5 25 11 0 7 -9
9 -21 6 -15 -4 -19 -2 -15 9 6 14 -5 19 -17 7z m33 -93 c0 -21 -5 -30 -16 -30
-8 0 -12 -4 -9 -10 3 -5 0 -10 -8 -10 -12 0 -12 7 -4 40 13 47 37 54 37 10z"/>
<path d="M3357 370 c4 -14 -1 -22 -18 -29 -18 -7 -19 -10 -6 -10 22 -1 22 -18
-3 -59 -26 -42 -26 -51 0 -22 22 26 22 25 20 -42 -1 -29 3 -48 9 -48 9 0 18
112 12 158 -1 7 9 12 24 12 25 0 25 -1 26 -87 0 -49 3 -82 6 -75 6 14 83 17
83 2 0 -5 4 -10 9 -10 5 0 9 50 10 110 l0 110 -55 0 c-45 0 -54 -3 -54 -17 0
-12 -8 -18 -26 -20 -22 -1 -25 2 -21 23 3 15 0 24 -8 24 -8 0 -11 -8 -8 -20z
m153 -25 c0 -22 -4 -25 -34 -25 -22 0 -36 6 -40 16 -9 24 2 34 40 34 30 0 34
-3 34 -25z m0 -60 c0 -22 -4 -25 -40 -25 -36 0 -40 3 -40 25 0 23 4 25 40 25
36 0 40 -2 40 -25z m0 -65 c0 -28 -3 -30 -35 -30 -37 0 -52 17 -41 45 3 9 19
15 41 15 32 0 35 -2 35 -30z"/>
<path d="M3912 375 c2 -15 -3 -20 -19 -19 -13 0 -23 -3 -23 -8 0 -4 25 -8 55
-8 32 0 55 4 55 11 0 5 -9 9 -20 7 -10 -2 -26 6 -35 17 l-16 20 3 -20z"/>
<path d="M4016 358 c-18 -42 -45 -78 -46 -60 0 8 -5 12 -11 10 -6 -2 -13 -28
-15 -58 -3 -36 -10 -59 -21 -67 -15 -12 -15 -13 4 -13 23 0 33 24 33 83 0 21
4 36 9 32 9 -5 31 19 58 61 11 18 11 18 19 -1 10 -28 35 -55 50 -55 6 0 -1 14
-17 31 -27 29 -33 42 -30 62 3 21 -21 3 -33 -25z"/>
<path d="M5042 359 c-1 -39 -13 -52 -43 -47 -27 3 -39 45 -17 59 9 6 8 9 -7 9
-18 0 -20 -5 -17 -39 5 -49 -12 -102 -45 -141 -14 -17 -21 -30 -16 -30 14 0
49 51 63 94 l12 38 25 -42 c14 -23 23 -43 21 -45 -2 -2 -24 -13 -48 -24 -25
-11 -37 -21 -26 -21 10 0 34 9 52 20 l33 21 42 -21 c25 -13 45 -18 51 -12 5 5
-7 13 -32 21 -22 6 -40 14 -40 16 0 14 44 85 53 85 6 0 7 3 3 8 -4 4 -18 7
-29 7 -22 0 -26 17 -16 54 2 7 -1 15 -7 18 -6 2 -11 -10 -12 -28z m28 -72 c0
-20 -30 -58 -41 -52 -5 4 -16 19 -24 36 l-16 29 41 0 c26 0 40 -5 40 -13z"/>
<path d="M6490 293 l0 -93 100 0 100 0 0 79 c0 44 2 85 5 93 4 10 -16 13 -100
13 l-105 0 0 -92z m57 32 c-2 -25 -13 -55 -22 -65 -10 -11 -13 -20 -7 -20 17
0 52 65 52 99 0 24 4 31 20 31 16 0 19 -8 22 -57 3 -55 4 -58 31 -61 15 -2 27
1 27 7 0 6 -6 8 -14 5 -21 -8 -34 25 -29 69 4 31 9 37 29 37 23 0 24 -2 24
-80 l0 -81 -87 3 -88 3 -3 64 c-4 77 1 91 29 91 20 0 21 -4 16 -45z"/>
<path d="M7530 382 c-36 -16 -61 -41 -75 -76 -23 -54 -4 -90 49 -94 57 -5 106
49 106 116 0 41 -43 70 -80 54z m44 -21 c23 -25 14 -70 -21 -111 -55 -66 -109
-10 -68 70 14 26 50 60 66 60 3 0 14 -9 23 -19z"/>
<path d="M7899 369 c-82 -48 -66 -159 22 -159 40 0 47 6 65 58 10 29 10 32 -7
32 -13 0 -19 -7 -19 -23 0 -13 -6 -32 -14 -43 -14 -18 -17 -18 -43 -4 -22 12
-29 24 -31 53 -3 31 2 43 27 68 36 35 70 36 87 1 10 -20 12 -21 18 -7 12 32 6
40 -32 42 -23 2 -51 -5 -73 -18z"/>
<path d="M8057 379 c9 -11 8 -30 -7 -83 -10 -38 -24 -73 -32 -77 -9 -6 -4 -9
15 -9 18 0 26 4 21 11 -7 12 15 119 25 119 3 0 17 -30 31 -66 23 -60 25 -63
32 -39 5 19 2 32 -8 42 -8 8 -19 34 -25 59 -6 24 -15 44 -19 44 -5 0 -17 3
-27 7 -15 6 -16 4 -6 -8z"/>
<path d="M8164 368 c-1 -13 -4 -39 -8 -58 -5 -28 -3 -26 12 13 9 26 24 52 32
57 12 8 9 10 -10 10 -19 0 -25 -5 -26 -22z"/>
<path d="M5619 366 c8 -10 8 -21 1 -40 -5 -15 -10 -33 -9 -39 0 -7 6 4 14 23
l13 35 11 -30 c6 -16 17 -43 23 -60 19 -51 24 -48 43 22 10 37 25 76 33 86 14
16 13 17 -14 17 -18 0 -24 -3 -16 -8 9 -7 9 -20 -4 -63 l-17 -54 -24 55 c-14
30 -30 58 -36 62 -20 13 -30 9 -18 -6z"/>
<path d="M7674 372 c8 -14 -33 -136 -51 -149 -15 -11 -12 -13 17 -13 24 0 31
3 23 11 -10 10 -8 24 13 98 7 24 15 5 21 -50 3 -30 6 -55 8 -57 1 -1 21 25 45
58 23 34 44 60 46 58 7 -8 -18 -83 -34 -100 -14 -17 -13 -18 24 -18 27 0 35 3
25 9 -13 8 -12 20 6 85 11 42 16 76 11 76 -4 0 -29 -27 -55 -61 -50 -64 -61
-63 -62 3 -1 38 -11 58 -28 58 -8 0 -12 -4 -9 -8z"/>
<path d="M2286 359 c9 -15 -16 -128 -33 -145 -12 -12 -10 -14 19 -14 21 0 28
3 20 9 -11 6 -9 22 10 79 22 70 24 72 56 72 21 0 35 -6 39 -16 5 -13 7 -13 14
-2 16 25 9 28 -62 28 -48 0 -68 -3 -63 -11z"/>
<path d="M3050 341 c-60 -59 -48 -133 22 -139 36 -3 85 14 74 25 -3 3 -12 0
-20 -6 -25 -21 -69 -9 -84 22 -12 24 -11 32 10 70 20 36 28 42 61 45 32 3 37
0 37 -17 0 -12 5 -21 10 -21 6 0 10 11 10 25 0 23 -4 25 -46 25 -37 0 -51 -5
-74 -29z"/>
<path d="M4597 362 c9 -6 7 -25 -9 -77 -12 -39 -26 -73 -32 -77 -6 -4 3 -8 19
-8 20 0 26 3 17 9 -11 6 -11 16 -3 47 17 62 30 76 32 34 1 -19 4 -48 8 -63 6
-28 6 -28 46 27 34 47 55 67 55 52 0 -14 -26 -74 -38 -88 -14 -17 -13 -18 16
-18 25 0 29 3 25 20 -7 26 15 110 35 133 14 15 13 17 -4 17 -12 0 -36 -24 -62
-60 -44 -61 -62 -68 -62 -26 0 55 -12 86 -34 86 -13 0 -17 -3 -9 -8z"/>
<path d="M8498 363 c17 -2 32 -9 32 -14 0 -6 5 -7 10 -4 23 14 7 25 -32 23
-37 -1 -39 -2 -10 -5z"/>
<path d="M9075 360 c-3 -5 -2 -10 4 -10 5 0 13 5 16 10 3 6 2 10 -4 10 -5 0
-13 -4 -16 -10z"/>
<path d="M3632 310 c-18 -17 -28 -30 -22 -30 14 0 70 41 70 52 0 15 -15 8 -48
-22z"/>
<path d="M3764 311 c16 -17 32 -29 34 -26 7 7 -18 34 -42 47 -16 8 -14 3 8
-21z"/>
<path d="M6770 326 c26 -13 40 -12 40 5 0 5 -15 9 -32 9 l-33 0 25 -14z"/>
<path d="M7222 320 c-7 -11 -27 -29 -45 -40 -34 -21 -26 -28 9 -7 30 17 74 54
74 61 0 14 -26 4 -38 -14z"/>
<path d="M6240 323 c0 -5 7 -18 15 -29 12 -16 14 -16 15 -3 0 9 -7 22 -15 29
-8 7 -15 8 -15 3z"/>
<path d="M8530 284 c0 -56 -14 -84 -43 -85 l-22 0 23 -11 c16 -8 26 -8 34 0
13 13 28 142 16 142 -4 0 -8 -21 -8 -46z"/>
<path d="M9250 315 c-10 -12 -10 -18 0 -30 16 -19 39 -19 46 0 6 15 -11 45
-26 45 -4 0 -13 -7 -20 -15z m38 -17 c-6 -18 -28 -21 -28 -4 0 9 7 16 16 16 9
0 14 -5 12 -12z"/>
<path d="M3900 273 c0 -21 -7 -51 -15 -67 -19 -35 -19 -42 -1 -27 8 7 17 31
21 54 4 23 9 50 11 60 3 9 1 17 -5 17 -6 0 -11 -17 -11 -37z"/>
<path d="M5904 295 c-8 -19 3 -35 26 -35 19 0 34 25 24 41 -8 14 -44 10 -50
-6z m44 -7 c-3 -7 -11 -13 -18 -13 -7 0 -15 6 -17 13 -3 7 4 12 17 12 13 0 20
-5 18 -12z"/>
<path d="M8467 285 c19 -25 33 -32 33 -16 0 13 -29 41 -41 41 -6 0 -2 -11 8
-25z"/>
<path d="M3380 291 c0 -5 7 -14 15 -21 16 -14 18 -10 9 14 -6 17 -24 22 -24 7z"/>
<path d="M3660 294 c0 -6 9 -23 20 -37 11 -14 20 -28 20 -31 0 -3 -24 -20 -52
-37 -29 -16 -42 -27 -28 -23 14 3 37 15 52 25 33 24 46 24 83 -1 17 -11 39
-20 50 -19 14 0 10 5 -16 18 -66 30 -70 37 -47 77 11 19 16 34 11 34 -6 0 -15
-11 -21 -25 -15 -32 -25 -32 -51 3 -11 15 -21 22 -21 16z"/>
<path d="M1650 280 c0 -6 11 -8 27 -4 22 6 25 4 20 -10 -4 -10 -7 -22 -7 -27
0 -14 -18 -11 -23 4 -2 6 -2 1 0 -13 2 -19 -5 -30 -29 -47 -18 -13 -26 -23
-19 -23 8 0 24 9 36 20 20 18 23 19 35 5 7 -8 22 -15 33 -15 20 0 20 1 -3 17
-14 9 -26 17 -28 19 -2 1 6 20 18 43 l20 41 -40 0 c-22 0 -40 -5 -40 -10z"/>
<path d="M4035 270 c10 -11 23 -20 28 -20 6 0 2 9 -8 20 -10 11 -23 20 -28 20
-6 0 -2 -9 8 -20z"/>
<path d="M7234 254 c-10 -14 -33 -36 -53 -50 -37 -25 -36 -32 2 -13 21 11 87
75 87 85 0 13 -22 0 -36 -22z"/>
<path d="M5589 235 c-16 -33 -16 -35 2 -35 15 0 19 7 19 35 0 19 -1 35 -2 35
-2 -1 -10 -16 -19 -35z"/>
<path d="M6248 247 c-21 -12 -38 -28 -38 -35 0 -17 27 -2 59 32 29 31 27 32
-21 3z"/>
<path d="M8912 225 c-1 -25 3 -45 8 -45 6 0 10 20 10 45 0 25 -4 45 -9 45 -5
0 -9 -20 -9 -45z"/>
<path d="M4028 200 c18 -18 35 -30 38 -27 10 9 -6 26 -39 43 l-31 17 32 -33z"/>
<path d="M5212 205 c0 -16 2 -22 5 -12 2 9 2 23 0 30 -3 6 -5 -1 -5 -18z"/>
<path d="M4160 199 c-13 -24 -4 -41 10 -19 10 16 13 40 5 40 -2 0 -9 -9 -15
-21z"/>
<path d="M4193 200 c1 -11 5 -20 9 -20 11 0 10 28 -1 35 -6 3 -9 -4 -8 -15z"/>
<path d="M4246 205 c4 -8 10 -15 15 -15 4 0 6 7 3 15 -4 8 -10 15 -15 15 -4 0
-6 -7 -3 -15z"/>
<path d="M5271 204 c0 -11 3 -14 6 -6 3 7 2 16 -1 19 -3 4 -6 -2 -5 -13z"/>
<path d="M9070 205 c33 -19 50 -18 26 0 -11 8 -27 15 -35 15 -10 -1 -7 -6 9
-15z"/>
<path d="M2630 185 c-19 -14 -28 -25 -19 -25 8 0 30 11 49 25 44 32 16 32 -30
0z"/>
<path d="M2760 199 c13 -6 33 -17 42 -26 10 -9 18 -11 18 -5 0 16 -41 42 -65
41 -17 0 -17 -2 5 -10z"/>
</g>
</svg>
