<?xml version="1.0" standalone="no"?>
<!DOCTYPE svg PUBLIC "-//W3C//DTD SVG 20010904//EN"
 "http://www.w3.org/TR/2001/REC-SVG-20010904/DTD/svg10.dtd">
<svg version="1.0" xmlns="http://www.w3.org/2000/svg"
 width="876.000000pt" height="642.000000pt" viewBox="0 0 876.000000 642.000000"
 preserveAspectRatio="xMidYMid meet">
<metadata>
Created by potrace 1.16, written by Peter Selinger 2001-2019
</metadata>
<g transform="translate(0.000000,642.000000) scale(0.100000,-0.100000)"
fill="#000000" stroke="none">
<path d="M1117 6333 c-2 -5 -7 -21 -11 -38 -5 -24 -4 -26 4 -12 6 9 22 17 36
17 24 0 25 -2 22 -62 -3 -53 -6 -63 -20 -62 -10 1 -15 -2 -12 -7 8 -14 31 -11
37 5 3 8 9 42 13 75 l7 61 -36 0 c-28 0 -35 3 -31 15 6 15 -1 21 -9 8z"/>
<path d="M1261 6318 c-1 -20 -6 -28 -18 -28 -14 0 -15 -2 -4 -9 11 -7 11 -16
2 -42 -9 -30 -9 -32 4 -15 13 17 14 14 18 -30 l3 -49 2 53 c1 33 6 51 12 47 6
-3 10 -2 10 4 0 5 -5 13 -11 17 -8 4 -7 9 2 15 10 7 11 11 3 17 -7 4 -14 16
-17 27 -4 15 -5 14 -6 -7z"/>
<path d="M2655 6320 c-7 -23 -25 -27 -25 -5 0 8 -4 15 -10 15 -5 0 -7 -7 -4
-15 4 -9 0 -15 -10 -15 -9 0 -16 7 -16 15 0 11 -11 15 -37 15 -26 0 -34 -3
-24 -9 16 -10 5 -34 -12 -25 -7 3 -5 0 4 -8 15 -13 12 -58 -6 -88 -5 -9 -4
-11 3 -6 8 4 12 0 12 -12 0 -15 6 -18 30 -14 25 4 30 9 30 33 0 25 -4 29 -26
29 -20 0 -25 4 -20 16 3 9 6 20 6 25 0 5 7 9 16 9 14 0 14 -3 4 -15 -10 -12
-10 -15 0 -15 6 0 14 9 17 20 3 13 14 20 29 20 28 0 33 -26 7 -33 -17 -4 -17
-5 0 -6 25 -2 21 -29 -5 -34 -23 -4 -23 -4 -1 -6 16 -1 23 -9 26 -28 l4 -28 2
27 c1 19 7 28 24 31 l22 4 -22 2 c-29 1 -31 31 -2 31 11 0 18 4 14 10 -3 5
-12 7 -20 3 -9 -3 -15 1 -15 11 0 9 8 16 20 16 11 0 20 4 20 10 0 5 -7 7 -16
3 -13 -5 -15 -2 -9 15 3 12 4 22 1 22 -2 0 -8 -9 -11 -20z m-86 -17 c0 -5 -3
-9 -9 -11 -5 -2 -10 4 -10 13 0 16 16 14 19 -2z m11 -103 c0 -13 -7 -20 -20
-20 -13 0 -20 7 -20 20 0 13 7 20 20 20 13 0 20 -7 20 -20z"/>
<path d="M3218 6328 c-5 -11 -18 -18 -33 -18 -14 0 -25 -5 -25 -11 0 -6 9 -8
20 -4 30 9 26 -23 -7 -57 -25 -26 -21 -42 5 -16 9 9 12 3 13 -27 1 -30 3 -25
9 23 8 68 18 86 42 77 11 -4 15 -22 16 -65 1 -56 0 -59 -26 -63 -15 -2 1 -5
36 -6 34 0 62 3 62 9 0 5 -13 7 -30 3 l-31 -6 3 64 c3 58 6 64 25 64 12 0 25
3 29 8 4 4 -16 7 -44 7 -40 0 -51 4 -54 18 -3 16 -4 16 -10 0z"/>
<path d="M3620 6329 c0 -6 -10 -25 -22 -42 l-22 -32 26 23 c27 24 43 62 27 62
-5 0 -9 -5 -9 -11z"/>
<path d="M4510 6333 c-1 -7 -3 -21 -4 -30 0 -12 -12 -20 -31 -24 l-30 -6 35
-3 35 -3 -40 -7 -40 -7 38 -2 c23 0 36 -5 32 -11 -3 -5 -1 -10 4 -10 6 0 11 5
11 10 0 6 15 11 33 11 l32 2 -35 7 c-23 5 -27 8 -12 9 25 1 72 41 48 41 -8 0
-17 6 -19 13 -3 7 -6 5 -6 -5 -1 -10 -9 -18 -18 -19 -15 0 -15 -2 2 -9 19 -8
19 -9 -2 -9 -17 -1 -23 6 -26 32 -2 17 -5 26 -7 20z"/>
<path d="M4680 6330 c0 -5 -8 -10 -17 -12 -22 -4 -26 -88 -5 -88 9 0 11 -7 7
-19 -3 -11 0 -23 6 -27 9 -5 7 -10 -7 -15 -16 -6 -16 -8 -2 -8 9 -1 20 4 23 9
5 8 12 7 22 -1 12 -11 13 -9 8 13 -5 20 -3 27 12 31 15 4 14 5 -4 6 -14 1 -23
-5 -23 -14 0 -8 -7 -15 -15 -15 -13 0 -13 3 -3 20 7 11 21 20 30 20 12 0 18 7
17 23 -1 16 -2 18 -6 5 -8 -30 -32 -21 -28 10 2 15 4 30 4 35 1 4 6 7 11 7 6
0 9 -3 8 -7 -2 -5 1 -10 6 -13 5 -3 11 0 13 7 2 6 -10 18 -26 26 -17 9 -31 12
-31 7z m0 -55 c0 -19 -4 -35 -10 -35 -5 0 -10 16 -10 35 0 19 5 35 10 35 6 0
10 -16 10 -35z"/>
<path d="M5520 6328 c0 -7 -10 -31 -21 -53 -12 -22 -15 -34 -8 -28 12 9 13 3
11 -38 -3 -31 0 -49 7 -49 6 0 11 13 11 29 0 16 7 34 15 41 13 11 15 7 16 -26
1 -36 2 -35 9 13 11 77 14 81 62 86 l43 4 -43 1 c-26 1 -41 6 -37 12 3 6 1 10
-4 10 -6 0 -11 -4 -11 -10 0 -5 -8 -10 -17 -11 -11 0 -13 -3 -5 -6 18 -7 15
-27 -8 -54 l-19 -24 -1 33 c0 18 5 42 10 52 7 13 7 21 0 25 -5 3 -10 0 -10 -7z"/>
<path d="M600 6318 c0 -5 16 -8 35 -8 l35 0 0 -75 c0 -43 4 -75 10 -75 6 0 10
25 10 56 l0 56 26 -17 c14 -9 28 -15 30 -12 3 2 -11 14 -31 26 -44 25 -38 41
16 41 21 0 39 3 39 8 0 4 -38 7 -85 7 -47 0 -85 -3 -85 -7z"/>
<path d="M843 6323 c29 -3 37 -8 35 -21 -2 -12 -11 -16 -31 -14 -27 3 -27 3
-27 -60 l0 -63 75 0 75 0 0 63 c0 40 -4 61 -10 57 -5 -3 -10 -28 -10 -56 0
-37 -4 -49 -15 -49 -19 0 -22 96 -2 103 6 3 2 6 -10 6 -16 1 -21 -3 -17 -14 4
-10 0 -15 -15 -15 -12 0 -21 5 -21 10 0 6 4 10 9 10 5 0 11 9 14 19 4 15 16
21 48 24 24 2 4 4 -46 4 -49 0 -73 -2 -52 -4z m17 -93 c0 -38 -4 -50 -15 -50
-11 0 -15 12 -15 50 0 38 4 50 15 50 11 0 15 -12 15 -50z m50 5 c0 -8 -9 -15
-20 -15 -11 0 -20 7 -20 15 0 8 9 15 20 15 11 0 20 -7 20 -15z m0 -40 c0 -8
-9 -15 -20 -15 -11 0 -20 7 -20 15 0 8 9 15 20 15 11 0 20 -7 20 -15z"/>
<path d="M1038 6309 c-13 -14 -18 -36 -18 -81 1 -48 3 -59 11 -45 6 9 7 26 4
37 -5 17 -2 20 20 20 24 0 27 -3 23 -24 -3 -14 -1 -31 3 -38 5 -8 9 16 9 59 0
69 -1 71 -22 65 -21 -5 -22 -4 -9 11 19 23 0 20 -21 -4z m42 -39 c0 -21 -33
-29 -45 -10 -9 15 4 30 26 30 12 0 19 -7 19 -20z"/>
<path d="M1335 6310 c-4 -11 -14 -20 -23 -21 -11 0 -12 -3 -4 -6 6 -2 12 -9
12 -14 0 -6 -5 -7 -12 -3 -7 5 -8 3 -4 -5 5 -7 0 -22 -11 -34 l-18 -22 22 19
c12 10 25 27 28 37 4 13 17 19 38 20 l32 2 -30 5 c-22 3 -25 6 -14 11 14 5 15
8 4 18 -11 10 -15 9 -20 -7z"/>
<path d="M1461 6316 c13 -14 11 -56 -3 -56 -9 0 -10 -2 -2 -8 7 -4 14 -16 17
-27 4 -18 5 -18 6 3 0 12 7 22 15 22 11 0 16 -14 19 -47 l3 -48 2 48 c1 26 7
47 12 47 6 0 10 5 10 11 0 5 -4 7 -10 4 -6 -4 -10 7 -10 25 0 18 4 29 10 25 6
-3 10 -2 10 2 0 5 -20 8 -44 8 -28 0 -41 -4 -35 -9z m49 -31 c0 -16 -6 -25
-15 -25 -9 0 -15 9 -15 25 0 16 6 25 15 25 9 0 15 -9 15 -25z"/>
<path d="M1566 6302 l-19 -27 26 24 c28 26 32 31 20 31 -5 0 -17 -13 -27 -28z"/>
<path d="M1670 6321 c0 -5 9 -7 20 -4 15 4 20 0 20 -15 0 -11 8 -23 18 -26 9
-3 0 -4 -20 -3 -21 2 -38 -1 -38 -5 0 -4 30 -7 68 -7 52 1 60 3 37 9 -16 4
-22 8 -12 9 10 1 17 9 17 21 0 11 6 20 14 20 15 0 26 -67 18 -118 -4 -31 -6
-32 -53 -32 -29 0 -49 4 -49 11 0 7 15 10 40 7 l40 -4 -1 36 -1 35 -8 -30 c-4
-16 -8 -22 -9 -12 -1 10 -10 17 -23 18 -22 1 -22 1 2 9 22 7 21 8 -12 9 -38 1
-38 1 -38 -40 0 -32 -3 -40 -15 -36 -8 4 -17 2 -20 -3 -4 -6 28 -10 79 -10
l86 0 0 85 0 85 -80 0 c-44 0 -80 -4 -80 -9z m93 -8 c-7 -2 -21 -2 -30 0 -10
3 -4 5 12 5 17 0 24 -2 18 -5z m0 -20 c-7 -2 -21 -2 -30 0 -10 3 -4 5 12 5 17
0 24 -2 18 -5z m-46 -85 c-3 -7 -5 -2 -5 12 0 14 2 19 5 13 2 -7 2 -19 0 -25z
m40 6 c-3 -3 -12 -4 -19 -1 -8 3 -5 6 6 6 11 1 17 -2 13 -5z"/>
<path d="M1880 6303 c0 -34 15 -60 24 -44 4 6 2 11 -3 11 -6 0 -11 7 -11 15 0
9 9 15 25 15 27 0 32 -18 15 -50 -5 -10 -7 -26 -4 -35 6 -14 8 -14 20 2 17 22
18 37 2 27 -8 -5 -9 -2 -3 12 4 10 10 29 12 41 4 18 12 22 45 21 21 0 42 2 45
6 4 3 -33 6 -80 6 l-87 0 0 -27z m58 10 c-10 -2 -26 -2 -35 0 -10 3 -2 5 17 5
19 0 27 -2 18 -5z"/>
<path d="M2160 6320 l-55 -7 68 -1 c43 -1 66 2 62 8 -3 6 -9 9 -13 8 -4 -1
-32 -4 -62 -8z"/>
<path d="M2740 6300 c0 -26 3 -30 28 -29 l27 1 -25 8 -25 7 25 11 25 11 -25 1
-25 2 25 8 25 8 -27 1 c-25 1 -28 -3 -28 -29z"/>
<path d="M2803 6315 c0 -6 6 -12 14 -12 7 0 13 6 13 12 0 6 -6 12 -13 12 -8 0
-14 -6 -14 -12z"/>
<path d="M2855 6320 c11 -5 14 -9 6 -9 -11 -1 -11 -4 -1 -16 10 -12 9 -15 -6
-16 -18 0 -18 -1 1 -9 19 -8 19 -9 -2 -9 -13 -1 -23 5 -23 12 0 8 -7 14 -15
14 -10 0 -12 -4 -4 -13 7 -8 6 -12 -3 -11 -50 2 -77 -5 -83 -20 -5 -15 -4 -16
6 -5 8 7 41 12 87 12 56 0 71 -3 66 -12 -5 -10 -3 -10 7 0 12 11 12 14 0 21
-9 6 -11 18 -6 40 6 29 5 31 -22 30 -25 0 -26 -1 -8 -9z"/>
<path d="M3023 6310 c4 -15 0 -20 -15 -20 -14 0 -18 5 -14 15 11 31 -10 13
-26 -21 -15 -34 -15 -35 1 -20 36 32 51 21 51 -38 l0 -55 -42 -4 c-24 -2 -1
-4 50 -5 50 -1 92 2 92 7 0 5 -18 7 -40 4 l-40 -6 0 82 c0 53 -4 81 -11 81 -6
0 -9 -9 -6 -20z"/>
<path d="M3420 6323 c0 -6 -10 -14 -22 -16 l-23 -4 23 -2 c17 -1 22 -7 22 -31
0 -22 4 -28 15 -24 8 4 15 1 15 -4 0 -6 -19 -13 -42 -15 l-43 -4 42 -1 c41 -2
42 -3 46 -39 l4 -38 1 37 c2 36 3 37 45 41 l42 4 -43 1 c-26 1 -41 6 -37 12 4
6 11 8 16 5 5 -4 9 6 10 22 0 15 2 36 4 46 2 9 -1 17 -6 17 -5 0 -9 -16 -9
-35 0 -32 -3 -35 -27 -35 -22 0 -25 2 -13 10 10 6 11 10 3 10 -23 0 -14 20 10
21 20 1 20 2 2 6 -11 3 -23 10 -27 17 -6 8 -8 8 -8 -1z"/>
<path d="M3866 6315 c5 -12 -2 -15 -30 -15 l-36 0 2 -77 2 -78 3 73 c4 72 4
72 33 72 15 0 31 -6 34 -12 5 -10 7 -10 12 0 3 6 17 12 30 12 23 0 24 -3 24
-61 0 -51 -3 -60 -16 -55 -8 3 -12 2 -9 -4 5 -9 34 -15 36 -7 0 1 2 34 5 72
l5 71 -42 -4 c-36 -4 -41 -2 -36 12 4 10 1 16 -8 16 -9 0 -12 -6 -9 -15z"/>
<path d="M4027 6310 c-13 -15 -17 -36 -15 -83 1 -42 3 -50 5 -24 3 29 9 37 24
37 15 0 19 -8 21 -37 1 -24 4 -14 7 27 5 57 4 65 -12 68 -15 3 -16 6 -6 18 6
8 7 14 2 14 -5 0 -16 -9 -26 -20z m33 -40 c0 -13 -7 -20 -20 -20 -13 0 -20 7
-20 20 0 13 7 20 20 20 13 0 20 -7 20 -20z"/>
<path d="M4092 6301 c-7 -19 -10 -36 -8 -38 2 -3 7 5 11 16 4 15 15 21 36 21
28 0 29 -1 31 -52 l1 -53 6 50 c8 62 7 65 -29 65 -15 0 -30 6 -32 12 -3 7 -10
-3 -16 -21z"/>
<path d="M4222 6238 c2 -83 2 -85 5 -25 4 67 4 67 33 67 25 0 30 4 30 25 0 22
-4 25 -35 25 l-35 0 2 -92z m51 75 c-7 -2 -21 -2 -30 0 -10 3 -4 5 12 5 17 0
24 -2 18 -5z m0 -20 c-7 -2 -21 -2 -30 0 -10 3 -4 5 12 5 17 0 24 -2 18 -5z"/>
<path d="M4315 6308 c1 -17 9 -24 28 -26 26 -3 27 -6 27 -60 -1 -47 -3 -54
-13 -41 -7 9 -18 14 -26 11 -10 -3 -12 0 -8 12 4 10 7 22 7 28 0 6 7 8 15 4 8
-3 15 -1 15 3 0 5 -7 12 -16 15 -11 4 -18 -1 -21 -14 -3 -12 -14 -20 -25 -20
-15 0 -19 5 -15 20 6 24 -1 25 -28 3 -14 -11 -15 -14 -3 -10 23 8 33 -34 11
-50 -9 -7 -12 -13 -5 -13 7 0 17 9 24 20 15 24 28 26 28 5 0 -8 8 -15 18 -15
10 0 23 -5 30 -12 6 -6 14 -10 16 -7 5 5 9 56 8 97 -2 28 -6 32 -29 33 l-28 1
29 7 c46 10 45 31 -1 31 -35 0 -39 -3 -38 -22z m58 5 c-7 -2 -21 -2 -30 0 -10
3 -4 5 12 5 17 0 24 -2 18 -5z"/>
<path d="M4756 6314 c-10 -26 -7 -34 15 -34 18 0 20 -4 14 -27 -3 -16 -11 -29
-16 -31 -5 -2 -9 -9 -9 -15 0 -6 -7 -19 -17 -29 -20 -22 -10 -24 12 -2 15 15
17 15 30 -2 7 -11 17 -16 21 -11 4 4 0 13 -9 20 -14 10 -14 18 -4 55 6 23 15
42 20 42 4 0 6 4 3 9 -3 4 -17 6 -31 3 -27 -5 -33 6 -13 26 8 8 8 12 1 12 -6
0 -14 -7 -17 -16z"/>
<path d="M4880 6248 l0 -83 59 0 59 0 1 83 2 82 -61 0 -60 0 0 -82z m100 52
c0 -17 -7 -20 -45 -20 -38 0 -45 3 -45 20 0 17 7 20 45 20 38 0 45 -3 45 -20z
m0 -50 c0 -17 -7 -20 -45 -20 -38 0 -45 3 -45 20 0 17 7 20 45 20 38 0 45 -3
45 -20z m0 -50 c0 -17 -7 -20 -45 -20 -38 0 -45 3 -45 20 0 17 7 20 45 20 38
0 45 -3 45 -20z"/>
<path d="M5078 6309 c-13 -14 -18 -36 -18 -81 0 -59 12 -77 14 -21 1 22 7 29
25 31 22 3 23 1 18 -27 -4 -17 -2 -33 3 -36 6 -4 10 11 10 35 0 55 24 90 62
90 l29 0 -7 -57 c-8 -71 -10 -75 -37 -68 -21 5 -21 5 1 -7 32 -16 40 -4 48 75
l7 67 -37 0 c-22 0 -35 4 -31 10 3 6 2 10 -3 10 -5 0 -13 -15 -17 -32 -7 -27
-9 -29 -12 -12 -3 17 -9 21 -26 16 -20 -5 -20 -4 -8 11 19 23 0 20 -21 -4z
m42 -39 c0 -15 -7 -20 -25 -20 -18 0 -25 5 -25 20 0 15 7 20 25 20 18 0 25 -5
25 -20z"/>
<path d="M5317 6313 c-4 -10 -13 -27 -21 -38 -15 -19 -14 -21 11 -23 14 -1 28
-4 31 -6 6 -7 -19 -50 -42 -69 l-21 -18 23 11 c13 6 30 27 39 46 12 25 23 34
40 34 21 0 24 -4 21 -32 -2 -25 -9 -34 -28 -38 l-25 -6 23 -8 c30 -10 34 -5
42 47 3 25 11 41 18 40 17 -4 15 14 -3 21 -8 3 -20 17 -27 31 -6 14 -15 25
-20 25 -5 0 0 -13 11 -29 12 -16 21 -32 21 -35 0 -3 -25 -6 -56 -6 l-55 0 20
29 c23 32 26 41 12 41 -5 0 -11 -8 -14 -17z"/>
<path d="M51 6298 c-11 -30 3 -56 31 -60 23 -3 22 -4 -7 -32 -22 -22 -24 -26
-8 -17 64 33 72 131 11 131 -10 0 -22 -10 -27 -22z m47 -21 c2 -19 -1 -27 -13
-27 -19 0 -30 24 -21 46 9 23 31 11 34 -19z"/>
<path d="M1380 6310 c0 -5 5 -10 10 -10 6 0 10 5 10 10 0 6 -4 10 -10 10 -5 0
-10 -4 -10 -10z"/>
<path d="M3525 6310 c-3 -5 -1 -10 4 -10 6 0 11 5 11 10 0 6 -2 10 -4 10 -3 0
-8 -4 -11 -10z"/>
<path d="M3730 6310 c0 -5 5 -10 11 -10 5 0 7 5 4 10 -3 6 -8 10 -11 10 -2 0
-4 -4 -4 -10z"/>
<path d="M4458 6313 c7 -3 16 -2 19 1 4 3 -2 6 -13 5 -11 0 -14 -3 -6 -6z"/>
<path d="M3653 6303 c30 -8 20 -33 -13 -33 -25 0 -30 -4 -30 -24 0 -15 -7 -26
-17 -29 -10 -3 3 -5 29 -6 45 -1 47 -2 51 -33 l4 -33 1 32 c2 30 5 32 45 36
l42 4 -42 1 c-36 2 -43 5 -43 22 0 15 7 20 25 20 14 0 25 4 25 9 0 4 -11 6
-25 3 -20 -3 -25 0 -25 17 0 15 -6 21 -22 20 -17 -1 -19 -2 -5 -6z m17 -63 c0
-13 -7 -20 -20 -20 -13 0 -20 7 -20 20 0 13 7 20 20 20 13 0 20 -7 20 -20z"/>
<path d="M4430 6298 c0 -4 14 -8 30 -8 17 0 30 2 30 4 0 2 -13 6 -30 8 -16 3
-30 1 -30 -4z"/>
<path d="M1970 6254 c0 -33 -3 -43 -12 -38 -7 4 -5 -1 4 -12 14 -16 15 -23 5
-34 -6 -8 0 -5 14 8 14 12 32 22 40 22 10 0 11 -2 2 -8 -9 -6 -7 -11 7 -20 12
-7 20 -8 20 -2 0 5 -4 10 -8 10 -4 0 -5 27 -2 60 l6 60 -38 0 -38 0 0 -46z
m56 23 c4 -4 -5 -7 -19 -7 -15 0 -27 4 -27 10 0 11 35 8 46 -3z m2 -42 c-2
-19 -8 -25 -25 -25 -18 0 -23 6 -23 25 0 20 5 25 25 25 20 0 24 -4 23 -25z"/>
<path d="M5591 6223 c2 -70 6 -63 11 20 2 26 0 47 -4 47 -5 0 -7 -30 -7 -67z"/>
<path d="M1570 6255 c-13 -14 -19 -25 -14 -25 6 0 20 11 32 25 12 14 18 25 14
25 -5 0 -19 -11 -32 -25z"/>
<path d="M2160 6270 c-49 -4 -60 -7 -33 -8 l42 -2 4 -52 3 -53 2 53 2 52 40 0
c22 0 40 5 40 10 0 6 -6 9 -12 8 -7 -1 -47 -4 -88 -8z"/>
<path d="M4740 6263 c0 -4 5 -15 10 -23 8 -13 10 -13 10 2 0 9 -4 20 -10 23
-5 3 -10 3 -10 -2z"/>
<path d="M5637 6263 c-4 -3 -7 -22 -7 -40 0 -24 -4 -32 -12 -27 -10 5 -10 4
-1 -6 16 -18 19 -13 26 38 5 44 5 46 -6 35z"/>
<path d="M5765 6260 c-8 -13 14 -42 26 -34 5 3 9 14 9 25 0 20 -24 26 -35 9z
m25 -10 c0 -5 -4 -10 -10 -10 -5 0 -10 5 -10 10 0 6 5 10 10 10 6 0 10 -4 10
-10z"/>
<path d="M1131 6243 c7 -12 15 -20 18 -17 3 2 -3 12 -13 22 -17 16 -18 16 -5
-5z"/>
<path d="M1366 6245 c4 -8 1 -15 -5 -15 -6 0 -11 5 -11 11 0 6 -7 4 -15 -5
-17 -17 -20 -30 -5 -21 6 3 10 2 10 -4 0 -5 -15 -12 -32 -14 l-33 -4 32 -1
c21 -1 33 -8 36 -19 4 -16 5 -16 6 -1 1 11 12 18 34 21 l32 4 -32 1 c-18 1
-33 7 -33 13 0 8 11 9 32 5 l32 -6 -24 25 c-27 29 -32 31 -24 10z"/>
<path d="M2343 6253 c26 -2 67 -2 90 0 23 2 2 3 -48 3 -49 0 -68 -1 -42 -3z"/>
<path d="M3841 6234 c-13 -15 -17 -24 -10 -22 12 4 46 48 37 48 -2 0 -15 -12
-27 -26z"/>
<path d="M3899 6243 c12 -24 31 -39 31 -25 0 5 -10 17 -21 28 -22 19 -22 19
-10 -3z"/>
<path d="M4112 6240 c14 -22 24 -19 15 5 -4 8 -11 15 -17 15 -6 0 -6 -7 2 -20z"/>
<path d="M5170 6242 c6 -13 14 -21 18 -18 3 4 -2 14 -12 24 -18 16 -18 16 -6
-6z"/>
<path d="M1879 6245 c-6 -2 -3 -45 3 -45 4 0 8 5 8 11 0 5 6 7 13 3 6 -4 9 -4
5 1 -4 4 -3 14 3 21 8 10 6 13 -10 11 -12 -1 -21 -1 -22 -2z"/>
<path d="M2120 6236 c0 -7 -7 -19 -15 -26 -9 -7 -13 -15 -10 -18 5 -5 44 38
45 51 0 4 -4 7 -10 7 -5 0 -10 -6 -10 -14z"/>
<path d="M3075 6239 c-9 -14 -2 -20 14 -10 8 6 9 11 3 15 -6 3 -14 1 -17 -5z"/>
<path d="M1600 6229 c0 -5 -15 -23 -32 -40 -43 -39 -28 -37 17 2 35 31 44 49
25 49 -5 0 -10 -5 -10 -11z"/>
<path d="M2230 6213 c13 -18 26 -30 29 -28 3 3 -8 18 -23 33 l-29 27 23 -32z"/>
<path d="M2840 6230 c0 -5 -7 -10 -15 -10 -8 0 -15 -4 -15 -9 0 -6 -19 -12
-42 -14 l-43 -4 43 -1 c40 -2 56 -15 30 -25 -8 -3 -6 -6 5 -6 9 -1 17 6 17 14
0 11 11 15 40 15 22 0 40 4 40 9 0 5 -19 7 -42 5 -38 -4 -40 -3 -20 7 23 12
30 29 12 29 -5 0 -10 -4 -10 -10z"/>
<path d="M4565 6230 c-3 -5 -28 -10 -56 -10 -49 0 -49 0 -49 -32 l0 -33 55 0
c53 0 55 1 55 28 0 15 0 30 0 35 1 4 8 10 18 14 16 6 16 7 0 7 -9 1 -20 -3
-23 -9z m-5 -40 c0 -17 -7 -20 -45 -20 -38 0 -45 3 -45 20 0 17 7 20 45 20 38
0 45 -3 45 -20z"/>
<path d="M2978 6223 c7 -3 16 -2 19 1 4 3 -2 6 -13 5 -11 0 -14 -3 -6 -6z"/>
<path d="M150 6200 c0 -5 5 -10 11 -10 5 0 7 5 4 10 -3 6 -8 10 -11 10 -2 0
-4 -4 -4 -10z"/>
<path d="M3401 6189 c-13 -10 -19 -19 -14 -19 13 0 49 27 43 33 -3 3 -16 -3
-29 -14z"/>
<path d="M1456 6184 c-4 -9 -4 -19 -1 -22 2 -3 7 3 11 12 4 9 4 19 1 22 -2 3
-7 -3 -11 -12z"/>
<path d="M3511 6181 c13 -11 26 -17 29 -14 6 6 -30 33 -43 33 -5 0 1 -9 14
-19z"/>
<path d="M1875 6179 c-4 -6 -5 -12 -2 -15 2 -3 7 2 10 11 7 17 1 20 -8 4z"/>
<path d="M4150 6179 c0 -6 -9 -9 -20 -6 -11 3 -18 1 -14 -4 9 -15 44 -10 44 6
0 8 -2 15 -5 15 -3 0 -5 -5 -5 -11z"/>
<path d="M4072 5764 c-12 -19 -20 -34 -18 -34 7 0 49 61 44 65 -2 2 -13 -12
-26 -31z"/>
<path d="M4970 5790 c0 -5 -12 -10 -27 -10 -16 0 -35 -5 -43 -10 -11 -7 -3
-10 30 -11 l45 -2 -35 -7 -35 -7 33 -2 c26 -1 32 -5 33 -23 l2 -23 4 23 c3 17
11 22 34 22 16 0 29 4 29 9 0 5 8 11 18 14 9 2 -2 8 -25 12 -24 4 -43 11 -43
16 0 5 -4 9 -10 9 -5 0 -10 -4 -10 -10z m53 -37 c-7 -2 -21 -2 -30 0 -10 3 -4
5 12 5 17 0 24 -2 18 -5z"/>
<path d="M5150 5791 c0 -8 -7 -11 -20 -8 -23 6 -27 -4 -22 -49 3 -20 10 -34
18 -34 23 0 16 -18 -8 -23 -13 -2 1 -5 30 -6 40 -1 51 2 45 12 -4 6 -6 20 -5
30 2 10 -3 17 -12 17 -9 0 -16 7 -16 15 0 8 5 15 10 15 6 0 10 -5 10 -10 0 -6
6 -5 14 2 16 15 1 42 -16 32 -6 -4 -14 0 -19 7 -7 12 -9 12 -9 0z m-6 -46 c-4
-8 -9 -15 -13 -15 -4 0 -8 7 -8 15 0 8 6 15 13 15 8 0 11 -6 8 -15z m3 -31
c-3 -3 -12 -4 -19 -1 -8 3 -5 6 6 6 11 1 17 -2 13 -5z m23 -24 c0 -5 -5 -10
-11 -10 -5 0 -7 5 -4 10 3 6 8 10 11 10 2 0 4 -4 4 -10z"/>
<path d="M6031 5758 c-11 -25 -24 -49 -30 -52 -15 -10 -14 57 1 72 9 9 9 12 1
12 -7 0 -15 -10 -19 -22 -3 -13 -13 -31 -22 -40 -8 -10 -10 -18 -4 -18 6 0 13
6 15 13 3 6 6 -15 8 -48 1 -40 4 -49 6 -26 3 19 11 40 18 48 12 11 14 7 18
-24 l4 -38 1 43 c2 34 6 42 21 42 11 0 22 -6 24 -12 4 -10 6 -10 6 0 1 18 29
14 34 -5 3 -12 5 -8 6 9 1 21 -3 25 -18 21 -13 -3 -21 1 -24 14 -4 16 -5 16
-6 1 0 -10 -8 -18 -16 -18 -18 0 -19 14 -4 42 6 11 8 22 5 25 -3 3 -14 -15
-25 -39z"/>
<path d="M2782 5774 c-11 -12 -8 -14 20 -13 18 0 26 3 18 6 -8 3 -17 9 -20 13
-3 4 -11 2 -18 -6z"/>
<path d="M2874 5783 c5 -8 1 -13 -11 -14 -10 0 -13 -3 -6 -6 10 -4 10 -10 -2
-26 -21 -29 -19 -36 8 -30 l22 5 -24 -21 c-13 -12 -19 -21 -13 -21 6 0 25 18
42 40 17 22 27 40 21 40 -7 0 -14 -7 -17 -15 -4 -8 -13 -15 -21 -15 -13 0 -13
4 2 26 13 21 14 29 4 38 -9 8 -10 8 -5 -1z"/>
<path d="M3000 5780 c12 -8 13 -11 1 -19 -11 -7 -11 -10 0 -15 10 -4 11 -8 3
-11 -7 -3 -10 -15 -7 -26 3 -10 -1 -27 -8 -36 -10 -12 -10 -14 -1 -9 8 5 12
-1 13 -21 0 -15 3 -22 6 -15 2 6 16 12 29 12 20 0 24 5 24 32 0 17 -3 28 -7
24 -4 -4 -8 -15 -8 -24 0 -9 -8 -18 -17 -20 -15 -3 -18 4 -18 32 0 29 4 36 20
36 10 0 24 9 30 20 12 23 50 27 50 6 0 -8 -8 -17 -17 -19 -17 -4 -17 -5 0 -6
26 -2 21 -31 -5 -32 -22 0 -22 -1 -3 -8 11 -4 23 -21 26 -37 l7 -29 1 32 c1
24 6 33 24 36 l22 4 -22 2 c-13 0 -23 7 -23 15 0 8 10 17 23 19 l22 4 -22 2
c-13 0 -23 8 -23 16 0 9 9 15 23 16 21 0 21 1 2 9 -12 5 -14 9 -6 9 8 1 11 4
8 7 -4 4 -14 1 -23 -7 -13 -11 -18 -11 -21 -1 -3 6 -9 12 -14 12 -6 0 -7 -4
-4 -10 3 -5 -1 -10 -9 -10 -9 0 -16 5 -16 10 0 6 -17 10 -37 10 -29 0 -34 -3
-23 -10z m40 -10 c0 -5 -4 -10 -10 -10 -5 0 -10 5 -10 10 0 6 5 10 10 10 6 0
10 -4 10 -10z m5 -30 c-3 -5 -10 -10 -16 -10 -5 0 -9 5 -9 10 0 6 7 10 16 10
8 0 12 -4 9 -10z"/>
<path d="M3211 5778 c2 -21 17 -64 18 -51 1 13 47 13 68 0 7 -5 9 0 6 11 -2
10 -11 19 -18 19 -8 0 -11 -5 -8 -10 4 -6 -1 -8 -11 -4 -10 4 -23 7 -29 8 -7
0 -3 4 8 9 l20 9 -20 1 -20 1 20 9 c18 8 17 9 -7 9 -17 1 -28 -4 -27 -11z"/>
<path d="M3276 5778 c3 -4 9 -8 15 -8 5 0 9 4 9 8 0 5 -7 9 -15 9 -8 0 -12 -4
-9 -9z"/>
<path d="M3330 5780 c13 -9 13 -10 0 -10 -13 0 -13 -1 0 -10 12 -8 12 -10 -5
-11 -15 0 -16 -2 -5 -6 8 -3 18 -11 22 -17 5 -7 8 -6 8 4 0 8 3 25 6 38 5 18
2 22 -17 22 -19 0 -21 -2 -9 -10z"/>
<path d="M3490 5746 c0 -43 -1 -45 -32 -49 l-33 -4 33 -1 c27 -2 32 -6 32 -26
0 -22 -5 -25 -42 -29 -24 -2 -4 -4 45 -5 48 -1 87 1 87 6 0 4 -18 6 -40 4 -37
-4 -40 -2 -40 22 0 22 4 26 30 26 17 0 30 4 30 10 0 5 -13 7 -31 3 l-31 -6 3
47 c2 25 1 46 -3 46 -5 0 -8 -20 -8 -44z"/>
<path d="M3680 5780 c0 -5 -15 -11 -32 -11 -31 -2 -31 -2 -5 -6 34 -5 34 -13
1 -52 -24 -29 -21 -44 4 -19 9 9 12 3 12 -27 l0 -40 65 3 c36 2 65 7 65 11 0
5 -11 6 -25 3 -22 -4 -25 -1 -25 27 0 24 4 31 20 31 11 0 20 4 20 9 0 5 -9 7
-20 4 -16 -4 -20 0 -21 18 l0 24 -11 -22 c-6 -12 -18 -24 -27 -26 -14 -4 -13
-5 2 -6 12 -1 17 -10 17 -31 0 -25 -4 -30 -25 -30 -23 0 -25 4 -25 44 0 70 5
76 69 78 l56 2 -53 3 c-30 2 -50 8 -47 14 4 5 1 9 -4 9 -6 0 -11 -4 -11 -10z"/>
<path d="M3854 5781 c4 -5 0 -12 -6 -14 -7 -3 3 -5 22 -5 19 0 27 2 18 5 -10
2 -18 9 -18 14 0 5 -5 9 -11 9 -5 0 -8 -4 -5 -9z"/>
<path d="M3932 5774 c-15 -17 -4 -22 30 -15 l28 6 -23 11 c-17 8 -26 7 -35 -2z"/>
<path d="M4335 5780 c4 -6 -8 -10 -29 -10 l-36 0 2 -77 2 -78 3 73 4 72 29 0
c37 0 37 -10 4 -49 -14 -17 -21 -31 -16 -31 6 0 19 14 30 31 l19 31 19 -31
c10 -17 22 -31 26 -31 13 0 9 17 -8 30 -8 8 -20 22 -25 32 -8 16 -6 18 21 18
l30 0 0 -60 c0 -50 -3 -60 -17 -60 -15 0 -16 -2 -3 -10 22 -14 28 -1 32 73 l3
67 -38 0 c-23 0 -36 4 -32 10 3 6 -1 10 -10 10 -9 0 -13 -4 -10 -10z"/>
<path d="M4493 5775 c-7 -8 -13 -40 -13 -72 0 -58 0 -58 30 -58 27 0 30 3 30
33 0 18 9 51 20 72 23 45 19 55 -4 13 -11 -20 -15 -23 -16 -10 0 9 -7 17 -16
17 -8 0 -12 5 -9 10 9 15 -8 11 -22 -5z m37 -35 c0 -13 -7 -20 -20 -20 -13 0
-20 7 -20 20 0 13 7 20 20 20 13 0 20 -7 20 -20z m0 -55 c0 -18 -5 -25 -20
-25 -15 0 -20 7 -20 25 0 18 5 25 20 25 15 0 20 -7 20 -25z"/>
<path d="M4692 5703 l2 -88 3 83 c3 74 6 82 23 82 25 0 26 -17 3 -23 -14 -4
-14 -5 3 -6 14 -1 24 6 27 19 4 17 0 20 -29 20 l-34 0 2 -87z"/>
<path d="M4780 5771 c0 -14 8 -21 27 -23 23 -2 28 -8 28 -33 1 -16 -2 -42 -6
-57 -8 -30 5 -48 15 -22 3 9 6 47 6 85 l0 69 -35 0 c-28 0 -35 -4 -35 -19z
m50 -1 c0 -5 -9 -10 -20 -10 -11 0 -20 5 -20 10 0 6 9 10 20 10 11 0 20 -4 20
-10z"/>
<path d="M5219 5764 c-5 -15 -12 -32 -15 -38 -3 -6 1 -3 10 8 17 21 48 15 41
-9 -16 -49 -17 -51 -26 -25 -8 22 -8 21 -4 -6 5 -41 -24 -74 -45 -49 -7 8 -24
15 -39 14 -14 0 -20 -3 -13 -6 10 -4 9 -9 -5 -20 -16 -13 -16 -13 6 -3 17 9
30 9 46 2 17 -8 28 -7 46 6 16 11 24 12 27 4 2 -7 11 -12 20 -12 13 0 11 5 -8
19 -18 14 -21 22 -13 33 5 7 15 28 21 46 10 31 10 32 -15 32 -18 0 -24 4 -19
15 3 8 3 15 0 15 -2 0 -9 -12 -15 -26z"/>
<path d="M5340 5711 l0 -79 59 -4 60 -3 3 83 3 82 -62 0 -63 0 0 -79z m108 52
c2 -9 -10 -13 -42 -13 -35 0 -46 4 -46 16 0 12 9 14 42 12 23 -2 43 -9 46 -15z
m-1 -70 l-2 -48 -42 -3 -43 -3 0 50 0 51 45 0 44 0 -2 -47z"/>
<path d="M5560 5780 c0 -5 -7 -10 -15 -10 -12 0 -15 -14 -15 -62 l0 -63 35 0
c34 0 35 1 35 37 0 20 9 53 21 72 12 20 17 36 11 36 -5 0 -13 -12 -18 -27 -5
-21 -8 -24 -11 -10 -3 9 -11 17 -19 17 -8 0 -12 5 -9 10 3 6 1 10 -4 10 -6 0
-11 -4 -11 -10z m30 -40 c0 -15 -7 -20 -25 -20 -18 0 -25 5 -25 20 0 15 7 20
25 20 18 0 25 -5 25 -20z m0 -55 c0 -20 -5 -25 -25 -25 -20 0 -25 5 -25 25 0
20 5 25 25 25 20 0 25 -5 25 -25z"/>
<path d="M5766 5747 c-15 -23 -23 -37 -17 -31 11 10 61 8 61 -3 0 -14 -33 -64
-47 -72 -10 -6 -13 -11 -7 -11 15 0 50 41 59 68 4 15 14 22 31 22 21 0 24 -5
24 -35 0 -21 -6 -37 -16 -43 -10 -6 -12 -12 -6 -16 16 -9 30 16 34 59 2 33 6
39 22 37 14 -3 8 6 -19 32 -43 41 -60 48 -25 11 13 -14 21 -27 18 -31 -3 -3
-30 -4 -59 -2 l-54 3 23 23 c23 23 27 32 15 32 -5 -1 -21 -20 -37 -43z"/>
<path d="M3437 5751 c-25 -43 -21 -50 8 -11 27 37 29 40 17 40 -4 0 -15 -13
-25 -29z"/>
<path d="M2908 5763 c7 -3 16 -2 19 1 4 3 -2 6 -13 5 -11 0 -14 -3 -6 -6z"/>
<path d="M4141 5758 c-1 -13 -10 -18 -31 -18 -26 0 -30 -3 -30 -29 0 -20 -6
-31 -17 -34 -10 -3 4 -5 31 -6 46 -1 48 -2 44 -26 -3 -14 -1 -25 3 -25 5 0 9
11 9 25 0 22 4 25 35 25 19 0 35 4 35 9 0 6 -16 7 -35 4 -32 -5 -35 -4 -35 20
0 20 6 27 28 30 l27 4 -27 2 c-16 0 -28 8 -31 19 -4 16 -5 16 -6 0z m-1 -53
c0 -20 -5 -25 -25 -25 -20 0 -25 5 -25 25 0 20 5 25 25 25 20 0 25 -5 25 -25z"/>
<path d="M4627 5750 c3 -11 7 -20 9 -20 2 0 4 9 4 20 0 11 -4 20 -9 20 -5 0
-7 -9 -4 -20z"/>
<path d="M5673 5763 c14 -4 17 -11 13 -26 -3 -12 -6 -37 -6 -55 0 -24 -6 -35
-22 -41 -17 -6 -18 -9 -5 -14 24 -9 35 12 43 81 6 61 6 62 -17 61 -19 -1 -20
-2 -6 -6z"/>
<path d="M3548 5753 c7 -3 16 -2 19 1 4 3 -2 6 -13 5 -11 0 -14 -3 -6 -6z"/>
<path d="M2783 5743 c9 -2 25 -2 35 0 9 3 1 5 -18 5 -19 0 -27 -2 -17 -5z"/>
<path d="M3853 5743 c9 -2 23 -2 30 0 6 3 -1 5 -18 5 -16 0 -22 -2 -12 -5z"/>
<path d="M3964 5735 c-4 -8 -15 -15 -26 -15 -12 0 -17 4 -12 12 4 7 3 8 -4 4
-19 -12 -14 -36 6 -29 15 6 15 4 -2 -15 -25 -29 -13 -28 14 1 24 25 44 57 35
57 -3 0 -8 -7 -11 -15z"/>
<path d="M3356 5713 c-6 -14 -5 -15 5 -6 7 7 10 15 7 18 -3 3 -9 -2 -12 -12z"/>
<path d="M4581 5713 c7 -12 15 -20 18 -17 3 2 -3 12 -13 22 -17 16 -18 16 -5
-5z"/>
<path d="M4726 5715 c-11 -8 -15 -15 -9 -15 15 0 23 -36 10 -49 -8 -8 -8 -11
0 -11 7 0 18 9 26 20 l14 21 6 -21 c5 -21 47 -29 47 -10 0 6 -7 10 -16 8 -10
-2 -19 3 -21 10 -3 6 0 12 6 12 6 0 11 7 11 16 0 8 5 12 10 9 6 -3 10 -2 10 3
0 6 -7 12 -15 16 -8 3 -15 1 -15 -4 0 -6 -12 -10 -27 -10 -22 0 -25 2 -13 10
8 5 11 10 5 10 -5 -1 -19 -7 -29 -15z m57 -22 c-7 -2 -21 -2 -30 0 -10 3 -4 5
12 5 17 0 24 -2 18 -5z"/>
<path d="M5630 5724 c0 -5 7 -18 15 -28 12 -16 15 -17 15 -4 0 8 -7 21 -15 28
-8 7 -15 9 -15 4z"/>
<path d="M2793 5713 c9 -2 23 -2 30 0 6 3 -1 5 -18 5 -16 0 -22 -2 -12 -5z"/>
<path d="M2884 5673 c-22 -23 -37 -43 -33 -43 3 0 12 7 19 15 18 21 38 19 45
-6 4 -11 9 -18 13 -15 3 3 -1 17 -8 31 -11 20 -11 27 0 40 7 8 11 17 9 19 -2
1 -22 -17 -45 -41z"/>
<path d="M3853 5713 c9 -2 23 -2 30 0 6 3 -1 5 -18 5 -16 0 -22 -2 -12 -5z"/>
<path d="M3980 5711 c0 -8 -17 -29 -37 -49 -33 -31 -34 -33 -9 -17 29 18 30
17 48 -5 10 -12 18 -18 18 -12 0 6 -7 18 -15 26 -13 12 -14 20 -5 37 7 11 9
23 6 27 -3 3 -6 0 -6 -7z"/>
<path d="M3310 5700 c-20 -12 -5 -24 16 -12 9 5 12 12 7 15 -5 3 -15 2 -23 -3z"/>
<path d="M4621 5678 c0 -15 -8 -31 -17 -36 -10 -6 -12 -12 -6 -16 16 -10 34
21 29 51 l-4 28 -2 -27z"/>
<path d="M2770 5660 c0 -16 5 -30 10 -30 6 0 8 11 4 25 -5 21 -3 25 15 25 24
0 25 -4 10 -32 -8 -16 -8 -19 2 -16 7 2 14 16 16 31 3 24 1 27 -27 27 -27 0
-30 -3 -30 -30z"/>
<path d="M3840 5660 c0 -26 4 -30 28 -30 23 0 27 4 29 30 2 27 -1 30 -27 30
-27 0 -30 -3 -30 -30z m40 -1 c0 -24 -23 -21 -28 4 -2 10 3 17 12 17 10 0 16
-9 16 -21z"/>
<path d="M4920 5655 c0 -30 0 -30 56 -29 55 2 57 3 59 30 2 29 2 29 -56 29
-59 0 -59 0 -59 -30z m83 8 c-13 -2 -35 -2 -50 0 -16 2 -5 4 22 4 28 0 40 -2
28 -4z m0 -20 c-13 -2 -35 -2 -50 0 -16 2 -5 4 22 4 28 0 40 -2 28 -4z"/>
<path d="M3240 5669 l-45 -6 43 -1 c39 -2 57 -15 30 -24 -9 -3 -9 -6 1 -12 8
-5 14 -1 18 12 4 16 15 22 47 24 l41 3 -45 5 c-25 3 -65 2 -90 -1z"/>
<path d="M6071 5644 c0 -11 3 -14 6 -6 3 7 2 16 -1 19 -3 4 -6 -2 -5 -13z"/>
<path d="M6095 5650 c3 -5 8 -10 11 -10 2 0 4 5 4 10 0 6 -5 10 -11 10 -5 0
-7 -4 -4 -10z"/>
<path d="M4363 5543 c9 -2 25 -2 35 0 9 3 1 5 -18 5 -19 0 -27 -2 -17 -5z"/>
<path d="M4488 5543 c12 -2 30 -2 40 0 9 3 -1 5 -23 4 -22 0 -30 -2 -17 -4z"/>
<path d="M5158 5543 c338 -2 887 -2 1220 0 334 1 58 2 -613 2 -671 0 -944 -1
-607 -2z"/>
<path d="M1882 5198 l3 -343 2 337 3 338 963 3 962 2 -967 3 -968 2 2 -342z"/>
<path d="M3853 5533 c15 -2 37 -2 50 0 12 2 0 4 -28 4 -27 0 -38 -2 -22 -4z"/>
<path d="M6983 5465 c0 -33 2 -45 4 -27 2 18 2 45 0 60 -2 15 -4 0 -4 -33z"/>
<path d="M3266 5338 c-3 -24 -8 -54 -11 -68 l-6 -25 15 25 16 25 6 -22 c3 -13
10 -23 14 -23 10 0 -1 54 -13 61 -6 5 -6 18 1 38 9 24 8 31 -2 31 -8 0 -16
-17 -20 -42z"/>
<path d="M6982 5330 c0 -19 2 -27 5 -17 2 9 2 25 0 35 -3 9 -5 1 -5 -18z"/>
<path d="M3080 4131 c0 -985 0 -1010 -19 -1016 -11 -3 -185 -4 -388 -1 l-368
5 -5 73 -4 73 -6 -75 -5 -75 -197 -3 c-181 -2 -197 -1 -201 15 -4 14 -5 12 -6
-5 l-1 -23 635 2 c407 0 637 4 641 11 4 6 -7 8 -27 6 l-34 -3 -1 1007 -1 1007
183 1 c184 0 184 0 184 -23 1 -12 0 -191 0 -397 0 -284 -3 -376 -13 -382 -9
-6 -9 -8 1 -8 10 0 12 -124 12 -607 0 -335 2 -607 5 -605 3 1 94 2 203 2 l197
0 0 540 c0 297 -3 540 -7 540 -5 0 -8 -241 -8 -535 l0 -535 -185 0 -185 0 -6
24 c-3 14 -4 468 -2 1010 l3 986 -197 0 -198 0 0 -1009z"/>
<path d="M3294 5058 l-19 -23 23 19 c21 18 27 26 19 26 -2 0 -12 -10 -23 -22z"/>
<path d="M3350 5059 c0 -5 5 -7 10 -4 6 3 10 8 10 11 0 2 -4 4 -10 4 -5 0 -10
-5 -10 -11z"/>
<path d="M3385 4929 c-4 -6 -5 -12 -2 -15 2 -3 7 2 10 11 7 17 1 20 -8 4z"/>
<path d="M1560 4676 c0 -29 -9 -33 -29 -13 -11 10 -13 9 -9 -2 4 -14 78 -44
78 -31 0 4 12 11 26 14 34 9 70 -20 53 -41 -16 -19 -29 -16 -29 7 0 11 -5 20
-11 20 -7 0 -9 -11 -5 -30 3 -17 1 -30 -4 -30 -6 0 -10 9 -10 20 0 16 -7 20
-30 20 -16 0 -30 5 -30 10 0 6 -8 5 -19 -2 -11 -7 -17 -16 -14 -21 3 -5 -1
-13 -8 -18 -10 -6 -11 -9 -1 -9 6 0 12 -9 12 -20 0 -18 9 -24 27 -17 4 1 6 9
5 18 -2 10 5 15 23 15 14 0 25 -6 25 -14 0 -7 -4 -10 -10 -7 -5 3 -10 1 -10
-4 0 -6 7 -11 15 -11 8 0 15 7 15 16 0 8 5 12 11 9 6 -4 8 -13 5 -21 -8 -22 8
-16 23 8 l13 22 15 -25 c10 -16 12 -18 7 -4 -14 41 -16 63 -5 69 7 5 6 15 -6
32 -12 19 -13 28 -4 37 19 19 12 31 -7 13 -20 -17 -74 -14 -99 7 -10 7 -13 3
-13 -17z m70 -17 c0 -5 -3 -9 -7 -9 -5 0 -18 -3 -30 -6 -18 -5 -23 -2 -23 13
0 16 5 19 30 15 17 -2 30 -8 30 -13z m-20 -69 c0 -5 -11 -10 -25 -10 -14 0
-25 5 -25 10 0 6 11 10 25 10 14 0 25 -4 25 -10z"/>
<path d="M6972 4670 c0 -19 2 -27 5 -17 2 9 2 25 0 35 -3 9 -5 1 -5 -18z"/>
<path d="M6972 4560 c0 -19 2 -27 5 -17 2 9 2 25 0 35 -3 9 -5 1 -5 -18z"/>
<path d="M1642 4444 c-35 -36 -32 -45 6 -18 23 16 49 55 35 53 -4 -1 -23 -17
-41 -35z"/>
<path d="M6974 4210 c0 -151 2 -213 3 -137 2 75 2 199 0 275 -1 75 -3 13 -3
-138z"/>
<path d="M3180 4449 c0 -5 5 -7 10 -4 6 3 10 8 10 11 0 2 -4 4 -10 4 -5 0 -10
-5 -10 -11z"/>
<path d="M3985 4355 c0 -51 3 -65 15 -65 12 0 14 12 12 65 -5 89 -27 89 -27 0z"/>
<path d="M4088 4407 c-21 -16 -32 -59 -24 -92 5 -20 12 -25 34 -24 22 1 23 3
6 6 -24 4 -36 33 -24 53 12 19 40 4 40 -21 0 -12 3 -20 6 -16 14 14 -7 56 -29
59 l-22 3 23 23 c24 24 18 30 -10 9z"/>
<path d="M1545 4400 c-37 -7 -37 -7 -9 -9 52 -2 98 -21 128 -55 16 -17 25 -24
21 -16 -17 32 -49 59 -78 66 -22 4 -26 8 -16 15 15 10 13 9 -46 -1z"/>
<path d="M3345 4340 c-3 -6 1 -7 9 -4 18 7 21 14 7 14 -6 0 -13 -4 -16 -10z"/>
<path d="M3269 4313 l-24 -28 28 24 c25 23 32 31 24 31 -2 0 -14 -12 -28 -27z"/>
<path d="M3215 4320 c-3 -6 1 -7 9 -4 18 7 21 14 7 14 -6 0 -13 -4 -16 -10z"/>
<path d="M3395 4279 c-11 -16 -1 -19 13 -3 7 8 8 14 3 14 -5 0 -13 -5 -16 -11z"/>
<path d="M1677 4230 l6 -40 -82 0 c-52 0 -81 -4 -81 -11 0 -7 26 -10 78 -7
l77 3 6 -45 c4 -33 6 -21 7 48 1 50 -2 92 -7 92 -5 0 -7 -18 -4 -40z"/>
<path d="M3320 4255 c-11 -13 -10 -14 4 -9 9 3 16 10 16 15 0 13 -6 11 -20 -6z"/>
<path d="M3194 4238 l-19 -23 23 19 c12 11 22 21 22 23 0 8 -8 2 -26 -19z"/>
<path d="M1561 4234 c0 -11 3 -14 6 -6 3 7 2 16 -1 19 -3 4 -6 -2 -5 -13z"/>
<path d="M1611 4234 c0 -11 3 -14 6 -6 3 7 2 16 -1 19 -3 4 -6 -2 -5 -13z"/>
<path d="M2441 4138 c0 -38 2 -68 7 -68 4 0 6 21 4 48 -5 82 -9 89 -11 20z"/>
<path d="M2509 4184 c-13 -16 -12 -16 9 -5 18 9 27 10 37 1 15 -13 10 -34 -14
-65 -10 -13 -6 -12 12 5 36 32 34 74 -4 78 -15 2 -32 -4 -40 -14z"/>
<path d="M3940 4190 c0 -5 9 -10 20 -10 11 0 20 5 20 10 0 6 -9 10 -20 10 -11
0 -20 -4 -20 -10z"/>
<path d="M4025 4190 c3 -5 8 -10 11 -10 2 0 4 5 4 10 0 6 -5 10 -11 10 -5 0
-7 -4 -4 -10z"/>
<path d="M4075 4190 c-8 -13 5 -13 25 0 13 8 13 10 -2 10 -9 0 -20 -4 -23 -10z"/>
<path d="M4125 4190 c3 -5 12 -7 20 -3 21 7 19 13 -6 13 -11 0 -18 -4 -14 -10z"/>
<path d="M4180 4190 c0 -5 5 -10 10 -10 6 0 10 5 10 10 0 6 -4 10 -10 10 -5 0
-10 -4 -10 -10z"/>
<path d="M4227 3660 l3 -539 -38 -4 c-20 -2 322 -4 760 -5 700 -1 797 0 792
13 -4 8 -11 12 -18 7 -16 -11 -146 -11 -146 0 0 5 -6 6 -12 1 -7 -4 -45 -9
-85 -9 l-72 -2 0 333 -1 334 33 4 c32 4 32 4 -5 5 l-38 2 -2 -337 -3 -338
-187 -3 -188 -2 -1 22 c0 22 -1 22 -10 3 -9 -19 -21 -20 -189 -21 l-180 -2 0
238 c0 219 1 239 18 243 13 4 11 5 -5 6 l-23 1 0 -245 0 -245 -195 0 -195 0 0
534 c0 294 -3 537 -7 539 -5 3 -7 -237 -6 -533z"/>
<path d="M1520 4146 c0 -5 28 -19 85 -44 6 -3 -1 4 -15 15 -26 21 -70 39 -70
29z"/>
<path d="M3289 4113 c-13 -16 -12 -17 4 -4 16 13 21 21 13 21 -2 0 -10 -8 -17
-17z"/>
<path d="M2504 4078 c-3 -5 13 -8 35 -8 22 0 42 3 45 8 2 4 -14 7 -36 7 -22 0
-42 -3 -44 -7z"/>
<path d="M1590 4047 c0 -9 -1 -17 -3 -17 -1 0 -17 4 -35 9 -30 9 -32 8 -31
-17 0 -24 1 -25 9 -7 8 20 8 20 16 1 7 -19 8 -19 15 0 7 18 8 18 8 -1 1 -15 4
-16 10 -7 5 8 8 -10 8 -45 0 -39 -2 -51 -8 -38 l-8 20 -1 -20 -1 -20 -9 20
c-7 17 -9 17 -9 3 -1 -10 -5 -18 -10 -18 -5 0 -12 8 -14 18 -4 13 -5 12 -6 -4
-1 -17 6 -23 32 -26 17 -3 41 -8 52 -12 14 -6 16 -5 7 2 -10 6 -13 32 -11 86
1 42 -1 79 -4 83 -4 3 -7 -1 -7 -10z"/>
<path d="M1651 4055 c-2 -5 -2 -25 -1 -44 1 -22 -2 -31 -9 -27 -6 4 -11 2 -11
-3 0 -6 4 -11 9 -11 6 0 12 -19 14 -42 l4 -43 1 43 c1 26 6 41 12 37 6 -4 8
-11 5 -16 -4 -5 -1 -9 4 -9 6 0 11 9 11 20 0 11 -6 20 -14 20 -10 0 -16 14
-19 43 -2 23 -5 38 -6 32z"/>
<path d="M3989 4043 c-13 -16 -12 -17 4 -4 9 7 17 15 17 17 0 8 -8 3 -21 -13z"/>
<path d="M3204 4028 l-19 -23 23 19 c21 18 27 26 19 26 -2 0 -12 -10 -23 -22z"/>
<path d="M3325 4040 c-3 -5 -1 -10 4 -10 6 0 11 5 11 10 0 6 -2 10 -4 10 -3 0
-8 -4 -11 -10z"/>
<path d="M1611 3965 l2 -60 7 50 c4 28 3 54 -1 60 -5 5 -8 -16 -8 -50z"/>
<path d="M5535 3955 c0 -51 3 -65 15 -65 12 0 14 12 12 65 -5 89 -27 89 -27 0z"/>
<path d="M5635 3955 c0 -51 3 -65 15 -65 12 0 14 12 12 65 -5 89 -27 89 -27 0z"/>
<path d="M3386 3983 c-6 -14 -5 -15 5 -6 7 7 10 15 7 18 -3 3 -9 -2 -12 -12z"/>
<path d="M1520 3974 c0 -6 6 -14 14 -17 10 -4 14 0 13 12 -1 20 -27 25 -27 5z"/>
<path d="M1560 3976 c0 -9 5 -16 10 -16 6 0 10 4 10 9 0 6 -4 13 -10 16 -5 3
-10 -1 -10 -9z"/>
<path d="M2290 3953 c0 -12 3 -14 8 -6 5 8 61 11 189 11 178 0 182 0 186 -21
3 -18 5 -17 6 6 l1 27 -195 0 c-179 0 -195 -1 -195 -17z"/>
<path d="M3299 3953 c-13 -16 -12 -17 4 -4 16 13 21 21 13 21 -2 0 -10 -8 -17
-17z"/>
<path d="M3130 3950 c-9 -6 -10 -10 -3 -10 6 0 15 5 18 10 8 12 4 12 -15 0z"/>
<path d="M6970 3529 l0 -400 -206 2 c-113 1 -208 -1 -211 -5 -4 -3 91 -6 210
-6 l217 0 0 405 c0 223 -2 405 -5 405 -3 0 -5 -180 -5 -401z"/>
<path d="M2292 3900 c0 -14 2 -19 5 -12 2 6 2 18 0 25 -3 6 -5 1 -5 -13z"/>
<path d="M4135 3910 c-3 -6 1 -7 9 -4 18 7 21 14 7 14 -6 0 -13 -4 -16 -10z"/>
<path d="M2671 3874 c0 -11 3 -14 6 -6 3 7 2 16 -1 19 -3 4 -6 -2 -5 -13z"/>
<path d="M3220 3879 c0 -5 5 -7 10 -4 6 3 10 8 10 11 0 2 -4 4 -10 4 -5 0 -10
-5 -10 -11z"/>
<path d="M3995 3880 c-3 -6 1 -7 9 -4 18 7 21 14 7 14 -6 0 -13 -4 -16 -10z"/>
<path d="M3319 3863 c-13 -16 -12 -17 4 -4 16 13 21 21 13 21 -2 0 -10 -8 -17
-17z"/>
<path d="M2292 3845 c0 -16 2 -22 5 -12 2 9 2 23 0 30 -3 6 -5 -1 -5 -18z"/>
<path d="M2672 3820 c0 -14 2 -19 5 -12 2 6 2 18 0 25 -3 6 -5 1 -5 -13z"/>
<path d="M3324 3818 l-19 -23 23 19 c21 18 27 26 19 26 -2 0 -12 -10 -23 -22z"/>
<path d="M3199 3803 c-13 -16 -12 -17 4 -4 16 13 21 21 13 21 -2 0 -10 -8 -17
-17z"/>
<path d="M3369 3803 c-13 -16 -12 -17 4 -4 16 13 21 21 13 21 -2 0 -10 -8 -17
-17z"/>
<path d="M4089 3803 c-13 -16 -12 -17 4 -4 16 13 21 21 13 21 -2 0 -10 -8 -17
-17z"/>
<path d="M2292 3790 c0 -14 2 -19 5 -12 2 6 2 18 0 25 -3 6 -5 1 -5 -13z"/>
<path d="M4796 3794 c-19 -18 -19 -20 -6 -45 6 -10 20 -19 30 -19 28 0 25 -12
-7 -32 -16 -10 -22 -18 -15 -18 23 0 62 48 62 78 0 48 -34 67 -64 36z m49 -14
c8 -24 -1 -40 -21 -40 -17 0 -28 24 -20 45 8 22 34 18 41 -5z"/>
<path d="M5615 3800 c-19 -8 -19 -9 3 -9 12 -1 22 4 22 9 0 6 -1 10 -2 9 -2 0
-12 -4 -23 -9z"/>
<path d="M3400 3785 c-7 -9 -10 -18 -7 -21 3 -3 10 4 17 15 13 25 8 27 -10 6z"/>
<path d="M5480 3796 c0 -10 28 -13 41 -5 10 6 7 9 -13 9 -16 0 -28 -2 -28 -4z"/>
<path d="M5558 3793 c6 -2 18 -2 25 0 6 3 1 5 -13 5 -14 0 -19 -2 -12 -5z"/>
<path d="M5673 3793 c15 -2 39 -2 55 0 15 2 2 4 -28 4 -30 0 -43 -2 -27 -4z"/>
<path d="M5777 3478 c2 -178 3 -333 3 -345 0 -15 6 -23 18 -22 10 0 12 3 5 6
-10 4 -13 82 -13 344 0 186 -3 339 -7 339 -5 0 -7 -145 -6 -322z"/>
<path d="M2505 3779 c-4 -6 -5 -12 -2 -15 2 -3 7 2 10 11 7 17 1 20 -8 4z"/>
<path d="M2672 3770 c0 -14 2 -19 5 -12 2 6 2 18 0 25 -3 6 -5 1 -5 -13z"/>
<path d="M2440 3769 c0 -5 5 -7 10 -4 6 3 10 8 10 11 0 2 -4 4 -10 4 -5 0 -10
-5 -10 -11z"/>
<path d="M3110 3769 c0 -5 5 -7 10 -4 6 3 10 8 10 11 0 2 -4 4 -10 4 -5 0 -10
-5 -10 -11z"/>
<path d="M2292 3735 c0 -16 2 -22 5 -12 2 9 2 23 0 30 -3 6 -5 -1 -5 -18z"/>
<path d="M3184 3728 l-19 -23 23 19 c12 11 22 21 22 23 0 8 -8 2 -26 -19z"/>
<path d="M3250 3739 c0 -5 5 -7 10 -4 6 3 10 8 10 11 0 2 -4 4 -10 4 -5 0 -10
-5 -10 -11z"/>
<path d="M3289 3723 l-24 -28 28 24 c25 23 32 31 24 31 -2 0 -14 -12 -28 -27z"/>
<path d="M5669 3733 c-13 -16 -12 -17 4 -4 9 7 17 15 17 17 0 8 -8 3 -21 -13z"/>
<path d="M2455 3730 c-3 -5 -1 -10 4 -10 6 0 11 5 11 10 0 6 -2 10 -4 10 -3 0
-8 -4 -11 -10z"/>
<path d="M2672 3710 c0 -14 2 -19 5 -12 2 6 2 18 0 25 -3 6 -5 1 -5 -13z"/>
<path d="M2294 3595 c0 -60 1 -84 3 -52 2 32 2 81 0 110 -2 29 -3 3 -3 -58z"/>
<path d="M3186 3673 c-6 -14 -5 -15 5 -6 7 7 10 15 7 18 -3 3 -9 -2 -12 -12z"/>
<path d="M2672 3660 c0 -14 2 -19 5 -12 2 6 2 18 0 25 -3 6 -5 1 -5 -13z"/>
<path d="M5644 3649 c-19 -22 -19 -22 4 -8 12 8 22 17 22 21 0 12 -6 9 -26
-13z"/>
<path d="M4085 3639 c-4 -6 -5 -12 -2 -15 2 -3 7 2 10 11 7 17 1 20 -8 4z"/>
<path d="M4126 3623 c-6 -14 -5 -15 5 -6 7 7 10 15 7 18 -3 3 -9 -2 -12 -12z"/>
<path d="M5509 3623 c-13 -16 -12 -17 4 -4 9 7 17 15 17 17 0 8 -8 3 -21 -13z"/>
<path d="M2671 3604 c0 -11 3 -14 6 -6 3 7 2 16 -1 19 -3 4 -6 -2 -5 -13z"/>
<path d="M3169 3603 c-13 -16 -12 -17 4 -4 9 7 17 15 17 17 0 8 -8 3 -21 -13z"/>
<path d="M3279 3603 c-13 -16 -12 -17 4 -4 16 13 21 21 13 21 -2 0 -10 -8 -17
-17z"/>
<path d="M4706 3611 c-3 -4 14 -8 37 -8 31 0 37 2 22 8 -27 10 -53 11 -59 0z"/>
<path d="M4796 3610 c7 -7 154 -8 158 -1 2 3 -33 6 -79 6 -46 0 -82 -2 -79 -5z"/>
<path d="M4970 3611 c0 -5 12 -11 27 -14 26 -5 26 -4 8 9 -22 16 -35 18 -35 5z"/>
<path d="M2545 3600 c-3 -5 -1 -10 4 -10 6 0 11 5 11 10 0 6 -2 10 -4 10 -3 0
-8 -4 -11 -10z"/>
<path d="M2420 3585 c-7 -9 -11 -17 -9 -20 3 -2 10 5 17 15 14 24 10 26 -8 5z"/>
<path d="M3354 3568 l-29 -33 33 29 c17 17 32 31 32 33 0 8 -8 1 -36 -29z"/>
<path d="M3925 3590 c-3 -5 -2 -10 4 -10 5 0 13 5 16 10 3 6 2 10 -4 10 -5 0
-13 -4 -16 -10z"/>
<path d="M6360 3562 c-35 -52 -35 -52 -6 -52 16 0 26 -6 26 -15 0 -8 5 -15 10
-15 6 0 10 6 10 14 0 8 6 17 13 19 10 4 10 6 0 6 -8 1 -13 16 -13 41 0 22 -3
40 -7 40 -5 0 -19 -17 -33 -38z m30 -12 c0 -20 -25 -38 -36 -27 -7 6 18 47 28
47 5 0 8 -9 8 -20z"/>
<path d="M3136 3573 c-6 -14 -5 -15 5 -6 7 7 10 15 7 18 -3 3 -9 -2 -12 -12z"/>
<path d="M2338 3559 c-10 -10 -14 -19 -10 -19 5 0 17 9 27 20 10 11 14 20 9
19 -5 0 -17 -9 -26 -20z"/>
<path d="M3406 3563 c-6 -14 -5 -15 5 -6 7 7 10 15 7 18 -3 3 -9 -2 -12 -12z"/>
<path d="M2671 3544 c0 -11 3 -14 6 -6 3 7 2 16 -1 19 -3 4 -6 -2 -5 -13z"/>
<path d="M3209 3533 c-13 -16 -12 -17 4 -4 16 13 21 21 13 21 -2 0 -10 -8 -17
-17z"/>
<path d="M5614 3508 l-19 -23 23 19 c12 11 22 21 22 23 0 8 -8 2 -26 -19z"/>
<path d="M5659 3503 l-24 -28 28 24 c15 14 27 26 27 28 0 8 -8 1 -31 -24z"/>
<path d="M2672 3490 c0 -14 2 -19 5 -12 2 6 2 18 0 25 -3 6 -5 1 -5 -13z"/>
<path d="M3379 3483 l-24 -28 28 24 c25 23 32 31 24 31 -2 0 -14 -12 -28 -27z"/>
<path d="M5520 3473 c-22 -23 -26 -31 -12 -21 21 14 59 58 50 58 -2 0 -19 -17
-38 -37z"/>
<path d="M4804 3478 l-19 -23 23 19 c12 11 22 21 22 23 0 8 -8 2 -26 -19z"/>
<path d="M2293 3430 c0 -30 2 -43 4 -27 2 15 2 39 0 55 -2 15 -4 2 -4 -28z"/>
<path d="M4729 3453 l-24 -28 28 24 c25 23 32 31 24 31 -2 0 -14 -12 -28 -27z"/>
<path d="M5455 3469 c-4 -6 -5 -12 -2 -15 2 -3 7 2 10 11 7 17 1 20 -8 4z"/>
<path d="M3235 3450 c-10 -11 -13 -20 -8 -20 13 0 38 29 31 35 -3 3 -13 -4
-23 -15z"/>
<path d="M3960 3459 c0 -5 5 -7 10 -4 6 3 10 8 10 11 0 2 -4 4 -10 4 -5 0 -10
-5 -10 -11z"/>
<path d="M5006 3453 c-4 -9 -3 -20 2 -25 4 -4 9 4 10 17 2 29 -3 32 -12 8z"/>
<path d="M4934 3438 l-19 -23 23 19 c21 18 27 26 19 26 -2 0 -12 -10 -23 -22z"/>
<path d="M5599 3443 c-13 -16 -12 -17 4 -4 9 7 17 15 17 17 0 8 -8 3 -21 -13z"/>
<path d="M2380 3435 c-7 -9 -10 -18 -7 -21 3 -3 10 4 17 15 13 25 8 27 -10 6z"/>
<path d="M2671 3434 c0 -11 3 -14 6 -6 3 7 2 16 -1 19 -3 4 -6 -2 -5 -13z"/>
<path d="M5529 3423 c-13 -16 -12 -17 4 -4 16 13 21 21 13 21 -2 0 -10 -8 -17
-17z"/>
<path d="M5634 3418 l-19 -23 23 19 c21 18 27 26 19 26 -2 0 -12 -10 -23 -22z"/>
<path d="M3189 3403 c-13 -16 -12 -17 4 -4 16 13 21 21 13 21 -2 0 -10 -8 -17
-17z"/>
<path d="M3299 3403 c-13 -16 -12 -17 4 -4 16 13 21 21 13 21 -2 0 -10 -8 -17
-17z"/>
<path d="M4014 3398 l-19 -23 23 19 c12 11 22 21 22 23 0 8 -8 2 -26 -19z"/>
<path d="M5716 3394 c-23 -23 -20 -30 4 -9 11 10 20 20 20 22 0 7 -9 2 -24
-13z"/>
<path d="M2673 3355 c0 -27 2 -38 4 -22 2 15 2 37 0 50 -2 12 -4 0 -4 -28z"/>
<path d="M6180 3265 l0 -135 -62 -1 c-177 -2 -289 -7 -295 -13 -4 -4 92 -4
212 0 121 3 222 8 224 10 2 2 -12 4 -32 4 l-37 0 0 131 c0 101 3 130 13 126 6
-2 21 -1 32 4 15 6 11 8 -17 8 l-38 1 0 -135z"/>
<path d="M6260 3392 c0 -4 70 -7 155 -7 85 0 155 3 155 8 0 4 -70 7 -155 7
-85 0 -155 -3 -155 -8z"/>
<path d="M2599 3373 c-13 -16 -12 -17 4 -4 16 13 21 21 13 21 -2 0 -10 -8 -17
-17z"/>
<path d="M3204 3368 l-19 -23 23 19 c21 18 27 26 19 26 -2 0 -12 -10 -23 -22z"/>
<path d="M2293 3320 c0 -30 2 -43 4 -27 2 15 2 39 0 55 -2 15 -4 2 -4 -28z"/>
<path d="M2354 3348 l-19 -23 23 19 c21 18 27 26 19 26 -2 0 -12 -10 -23 -22z"/>
<path d="M4835 3343 l-18 -28 27 24 c28 26 31 31 17 31 -5 0 -17 -12 -26 -27z"/>
<path d="M5675 3360 c-3 -5 -1 -10 4 -10 6 0 11 5 11 10 0 6 -2 10 -4 10 -3 0
-8 -4 -11 -10z"/>
<path d="M3334 3328 l-29 -33 33 29 c17 17 32 31 32 33 0 8 -8 1 -36 -29z"/>
<path d="M3406 3343 c-6 -14 -5 -15 5 -6 7 7 10 15 7 18 -3 3 -9 -2 -12 -12z"/>
<path d="M3905 3350 c-3 -5 -1 -10 4 -10 6 0 11 5 11 10 0 6 -2 10 -4 10 -3 0
-8 -4 -11 -10z"/>
<path d="M4115 3338 l-20 -21 23 12 c12 6 22 16 22 21 0 13 -2 12 -25 -12z"/>
<path d="M5502 3348 c-7 -7 -12 -16 -12 -21 0 -5 7 -1 16 8 9 9 14 18 12 20
-2 3 -10 -1 -16 -7z"/>
<path d="M5551 3337 c-13 -21 -12 -21 5 -5 10 10 16 20 13 22 -3 3 -11 -5 -18
-17z"/>
<path d="M5705 3330 c-16 -17 -16 -20 -3 -15 9 4 19 13 22 21 7 19 2 18 -19
-6z"/>
<path d="M3204 3308 l-29 -33 33 29 c17 17 32 31 32 33 0 8 -8 1 -36 -29z"/>
<path d="M3922 3310 c-18 -17 -29 -30 -24 -30 5 0 21 14 37 30 37 38 30 38
-13 0z"/>
<path d="M4159 3323 c-13 -16 -12 -17 4 -4 9 7 17 15 17 17 0 8 -8 3 -21 -13z"/>
<path d="M3266 3314 c-5 -14 -4 -15 9 -4 17 14 19 20 6 20 -5 0 -12 -7 -15
-16z"/>
<path d="M2475 3310 c-3 -5 -1 -10 4 -10 6 0 11 5 11 10 0 6 -2 10 -4 10 -3 0
-8 -4 -11 -10z"/>
<path d="M3132 3294 c-7 -8 -8 -14 -3 -14 10 0 25 19 20 25 -2 1 -10 -3 -17
-11z"/>
<path d="M5620 3300 c-9 -6 -10 -10 -3 -10 6 0 15 5 18 10 8 12 4 12 -15 0z"/>
<path d="M6279 3283 l-24 -28 30 25 c17 14 32 26 34 28 2 1 0 2 -6 2 -5 0 -20
-12 -34 -27z"/>
<path d="M2614 3278 l-19 -23 23 19 c21 18 27 26 19 26 -2 0 -12 -10 -23 -22z"/>
<path d="M5544 3278 l-19 -23 23 19 c12 11 22 21 22 23 0 8 -8 2 -26 -19z"/>
<path d="M5654 3278 l-19 -23 23 19 c12 11 22 21 22 23 0 8 -8 2 -26 -19z"/>
<path d="M2329 3273 c-13 -16 -12 -17 4 -4 9 7 17 15 17 17 0 8 -8 3 -21 -13z"/>
<path d="M2671 3274 c0 -11 3 -14 6 -6 3 7 2 16 -1 19 -3 4 -6 -2 -5 -13z"/>
<path d="M4819 3273 c-13 -16 -12 -17 4 -4 9 7 17 15 17 17 0 8 -8 3 -21 -13z"/>
<path d="M6561 3274 c0 -11 3 -14 6 -6 3 7 2 16 -1 19 -3 4 -6 -2 -5 -13z"/>
<path d="M3209 3263 c-34 -42 -40 -55 -10 -24 17 18 30 35 28 37 -2 2 -10 -4
-18 -13z"/>
<path d="M3314 3258 l-19 -23 23 19 c12 11 22 21 22 23 0 8 -8 2 -26 -19z"/>
<path d="M2419 3253 c-13 -16 -12 -17 4 -4 16 13 21 21 13 21 -2 0 -10 -8 -17
-17z"/>
<path d="M2535 3260 c-3 -6 1 -7 9 -4 18 7 21 14 7 14 -6 0 -13 -4 -16 -10z"/>
<path d="M3149 3253 c-13 -16 -12 -17 4 -4 9 7 17 15 17 17 0 8 -8 3 -21 -13z"/>
<path d="M6470 3255 c-7 -9 -11 -18 -8 -20 3 -3 11 1 18 10 7 9 11 18 8 20 -3
3 -11 -1 -18 -10z"/>
<path d="M5665 3234 c-9 -15 -12 -23 -6 -20 11 7 35 46 28 46 -3 0 -12 -12
-22 -26z"/>
<path d="M4944 3228 l-19 -23 23 19 c12 11 22 21 22 23 0 8 -8 2 -26 -19z"/>
<path d="M5714 3229 c-19 -22 -19 -22 4 -8 12 8 22 17 22 21 0 12 -6 9 -26
-13z"/>
<path d="M6389 3223 c-13 -16 -12 -17 4 -4 16 13 21 21 13 21 -2 0 -10 -8 -17
-17z"/>
<path d="M2672 3210 c0 -14 2 -19 5 -12 2 6 2 18 0 25 -3 6 -5 1 -5 -13z"/>
<path d="M5534 3208 l-19 -23 23 19 c12 11 22 21 22 23 0 8 -8 2 -26 -19z"/>
<path d="M5595 3220 c-3 -5 -1 -10 4 -10 6 0 11 5 11 10 0 6 -2 10 -4 10 -3 0
-8 -4 -11 -10z"/>
<path d="M2539 3203 c-13 -16 -12 -17 4 -4 16 13 21 21 13 21 -2 0 -10 -8 -17
-17z"/>
<path d="M5464 3198 l-19 -23 23 19 c12 11 22 21 22 23 0 8 -8 2 -26 -19z"/>
<path d="M6250 3199 c0 -5 5 -7 10 -4 6 3 10 8 10 11 0 2 -4 4 -10 4 -5 0 -10
-5 -10 -11z"/>
<path d="M3189 3183 c-13 -16 -12 -17 4 -4 16 13 21 21 13 21 -2 0 -10 -8 -17
-17z"/>
<path d="M3409 3183 c-13 -16 -12 -17 4 -4 9 7 17 15 17 17 0 8 -8 3 -21 -13z"/>
<path d="M3900 3179 c0 -5 5 -7 10 -4 6 3 10 8 10 11 0 2 -4 4 -10 4 -5 0 -10
-5 -10 -11z"/>
<path d="M5716 3175 c-11 -8 -15 -15 -9 -15 6 0 16 7 23 15 16 19 11 19 -14 0z"/>
<path d="M2494 3158 l-19 -23 23 19 c21 18 27 26 19 26 -2 0 -12 -10 -23 -22z"/>
<path d="M2672 3160 c0 -14 2 -19 5 -12 2 6 2 18 0 25 -3 6 -5 1 -5 -13z"/>
<path d="M3939 3163 c-13 -17 -13 -17 6 -3 11 8 22 16 24 17 2 2 0 3 -6 3 -6
0 -17 -8 -24 -17z"/>
<path d="M2435 3160 c-3 -5 -1 -10 4 -10 6 0 11 5 11 10 0 6 -2 10 -4 10 -3 0
-8 -4 -11 -10z"/>
<path d="M3352 3125 c-11 -13 -10 -15 7 -15 14 0 19 5 15 15 -7 18 -6 18 -22
0z"/>
<path d="M6397 3128 c-7 -4 9 -8 36 -8 26 0 47 2 47 4 0 8 -71 12 -83 4z"/>
<path d="M6283 3123 c9 -2 23 -2 30 0 6 3 -1 5 -18 5 -16 0 -22 -2 -12 -5z"/>
<path d="M6330 3126 c0 -2 11 -6 25 -8 13 -3 22 -1 19 3 -5 9 -44 13 -44 5z"/>
<path d="M6503 3123 c9 -2 23 -2 30 0 6 3 -1 5 -18 5 -16 0 -22 -2 -12 -5z"/>
<path d="M3182 3108 c18 -11 88 -10 88 1 0 5 -23 8 -50 8 -29 0 -45 -4 -38 -9z"/>
<path d="M3280 3112 c0 -5 7 -9 15 -9 8 0 15 4 15 9 0 4 -7 8 -15 8 -8 0 -15
-4 -15 -8z"/>
<path d="M3390 3116 c0 -9 30 -14 35 -6 4 6 -3 10 -14 10 -12 0 -21 -2 -21 -4z"/>
<path d="M3893 3113 c9 -2 23 -2 30 0 6 3 -1 5 -18 5 -16 0 -22 -2 -12 -5z"/>
<path d="M3978 3113 c23 -2 61 -2 85 0 23 2 4 4 -43 4 -47 0 -66 -2 -42 -4z"/>
<path d="M4118 3113 c6 -2 18 -2 25 0 6 3 1 5 -13 5 -14 0 -19 -2 -12 -5z"/>
<path d="M3213 2949 c-30 -11 -29 -15 4 -14 39 0 40 -26 4 -68 -17 -19 -31
-38 -31 -41 0 -12 73 -2 77 10 2 7 -9 9 -29 6 l-33 -4 28 26 c17 17 27 37 27
55 0 33 -15 42 -47 30z"/>
<path d="M3987 2949 c-9 -6 -17 -15 -17 -22 0 -8 3 -8 9 1 5 8 17 12 27 10 27
-5 20 -46 -13 -80 -24 -25 -25 -28 -7 -29 10 0 27 -2 36 -4 9 -2 19 2 21 9 4
9 -5 11 -26 8 l-31 -5 27 32 c15 18 27 41 27 51 0 25 -30 41 -53 29z"/>
<path d="M4115 2953 c-39 -10 -46 -43 -12 -58 33 -15 29 -49 -8 -55 -21 -4
-26 -8 -17 -14 18 -11 62 20 62 44 0 20 -25 50 -41 50 -6 0 -7 5 -4 10 3 6 15
10 26 10 10 0 19 5 19 10 0 6 -1 9 -2 9 -2 -1 -12 -4 -23 -6z"/>
<path d="M4761 2947 c-8 -11 -5 -13 19 -9 26 4 30 1 30 -19 0 -13 -14 -38 -32
-56 l-32 -33 42 0 c23 0 42 5 42 10 0 6 -9 10 -21 10 l-21 0 21 34 c25 40 27
62 5 70 -24 9 -41 7 -53 -7z"/>
<path d="M4886 2944 c-42 -41 -45 -97 -5 -109 27 -9 51 13 47 44 -2 18 -10 27
-25 29 -27 4 -20 30 11 42 16 7 17 9 4 9 -9 1 -24 -6 -32 -15z m24 -74 c0 -35
-25 -42 -35 -10 -8 24 1 40 21 40 9 0 14 -11 14 -30z"/>
<path d="M5543 2953 c-23 -9 -14 -20 12 -15 36 6 33 -28 -6 -73 l-31 -35 41 0
c23 0 41 4 41 9 0 4 -11 6 -25 3 -27 -5 -36 15 -11 24 24 9 41 61 26 79 -13
15 -25 17 -47 8z"/>
<path d="M5629 2938 c-9 -19 -9 -21 2 -10 17 16 49 15 49 -2 0 -7 -7 -33 -15
-56 -8 -24 -13 -45 -10 -48 5 -5 5 -4 30 67 21 62 20 71 -15 71 -20 0 -33 -7
-41 -22z"/>
<path d="M6310 2945 c-11 -13 -8 -14 19 -9 28 6 31 4 31 -17 0 -13 -14 -38
-32 -56 l-32 -33 42 0 c23 0 42 4 42 9 0 4 -11 7 -25 6 -27 -3 -34 12 -11 21
24 9 41 61 26 79 -16 19 -44 19 -60 0z"/>
<path d="M6423 2953 c-21 -8 -15 -38 12 -63 28 -26 33 -50 11 -50 -8 0 -16 12
-18 28 -4 22 -6 24 -12 10 -12 -27 0 -48 29 -48 31 0 43 25 26 52 -9 14 -9 23
-1 33 23 28 -9 54 -47 38z m37 -24 c0 -24 -23 -21 -28 4 -2 10 3 17 12 17 10
0 16 -9 16 -21z"/>
<path d="M3318 2921 c-16 -18 -28 -37 -28 -42 0 -20 4 -24 22 -21 11 2 21 -5
26 -17 7 -19 8 -19 19 5 6 13 7 24 3 24 -5 0 -10 19 -12 42 l-3 42 -27 -33z
m22 -21 c0 -23 -4 -30 -20 -30 -24 0 -25 5 -2 35 22 31 22 31 22 -5z"/>
<path d="M2391 2926 c-9 -11 -6 -12 14 -8 28 5 33 -13 14 -51 -9 -19 -7 -18
10 3 24 29 26 41 9 58 -16 16 -33 15 -47 -2z"/>
<path d="M2481 2926 c-9 -11 -6 -12 14 -8 18 3 25 0 25 -11 0 -9 -5 -19 -11
-22 -6 -5 -4 -12 7 -20 23 -17 11 -49 -16 -42 -11 3 -20 1 -20 -4 0 -5 11 -9
25 -9 32 0 55 41 35 65 -9 11 -10 19 -1 28 8 10 7 17 -1 25 -16 16 -43 15 -57
-2z"/>
<path d="M2389 2824 c-9 -11 -5 -14 25 -14 41 0 49 15 11 22 -14 3 -30 -1 -36
-8z"/>
<path d="M4110 2615 c0 -18 -36 -20 -43 -2 -3 6 -5 -6 -5 -28 0 -22 2 -34 5
-27 2 6 16 12 29 12 20 0 24 5 24 30 0 17 -2 30 -5 30 -3 0 -5 -7 -5 -15z m-7
-32 c-7 -2 -19 -2 -25 0 -7 3 -2 5 12 5 14 0 19 -2 13 -5z"/>
<path d="M4151 2603 c-1 -29 2 -33 24 -33 24 0 25 -3 25 -57 -1 -48 -3 -55
-13 -42 -7 9 -18 14 -24 12 -17 -6 -16 -1 2 33 8 16 15 23 15 15 0 -8 3 -11 6
-8 8 8 -14 37 -28 37 -5 0 -6 -4 -3 -10 4 -6 -5 -10 -20 -10 -15 0 -24 4 -20
10 3 6 2 10 -4 10 -15 0 -19 -22 -9 -49 6 -18 4 -27 -9 -38 -16 -13 -16 -13 5
-3 12 6 22 15 22 20 0 6 5 10 10 10 6 0 10 -7 10 -15 0 -8 8 -15 18 -15 10 0
23 -5 30 -12 6 -6 14 -10 16 -7 8 8 11 179 4 179 -5 0 -8 -7 -8 -15 0 -21 -38
-19 -43 3 -3 9 -5 2 -6 -15z m42 -20 c-7 -2 -19 -2 -25 0 -7 3 -2 5 12 5 14 0
19 -2 13 -5z m-33 -63 c0 -5 -11 -10 -25 -10 -14 0 -25 5 -25 10 0 6 11 10 25
10 14 0 25 -4 25 -10z"/>
<path d="M4310 2620 l-35 -7 35 -2 c29 -2 32 -4 15 -11 -17 -7 -17 -9 -2 -9
10 -1 17 -9 17 -20 0 -15 -8 -21 -37 -24 l-38 -4 40 -3 40 -3 -45 -7 c-37 -6
-30 -7 43 -8 81 -2 105 6 75 25 -7 4 -25 6 -40 4 -23 -2 -28 2 -28 18 0 23 34
30 44 9 5 -10 7 -10 12 0 3 6 13 12 22 13 14 0 14 2 2 6 -8 3 -17 9 -20 13 -8
12 -63 17 -100 10z m83 -17 c-7 -2 -21 -2 -30 0 -10 3 -4 5 12 5 17 0 24 -2
18 -5z m15 -70 c-10 -2 -28 -2 -40 0 -13 2 -5 4 17 4 22 1 32 -1 23 -4z"/>
<path d="M4505 2622 c-40 -9 -41 -47 -2 -55 22 -4 22 -4 0 -6 -28 -1 -33 -40
-5 -42 11 -1 9 -4 -8 -9 -18 -6 -20 -8 -7 -9 10 -1 15 -5 12 -11 -3 -5 -1 -10
4 -10 18 0 12 -18 -6 -22 -10 -2 5 -4 34 -3 28 1 59 8 68 15 15 12 18 12 27
-3 5 -10 14 -15 19 -11 6 3 3 11 -8 19 -16 12 -17 16 -1 64 l16 51 -25 -6
c-24 -6 -25 -5 -20 22 5 24 3 22 -10 -8 -16 -39 -33 -50 -33 -23 0 8 5 15 11
15 13 0 -11 24 -31 31 -8 3 -24 3 -35 1z m12 -18 c-3 -3 -12 -4 -19 -1 -8 3
-5 6 6 6 11 1 17 -2 13 -5z m102 -56 c-1 -26 -30 -80 -46 -85 -6 -2 -17 2 -24
10 -8 7 -20 12 -27 9 -6 -2 -12 2 -12 8 0 7 8 10 19 7 10 -2 25 -1 32 4 9 5
10 9 2 9 -6 0 -9 9 -6 20 3 11 9 18 13 15 4 -3 10 2 14 10 9 24 36 18 35 -7z
m-99 -8 c0 -5 -4 -10 -10 -10 -5 0 -10 5 -10 10 0 6 5 10 10 10 6 0 10 -4 10
-10z m30 0 c0 -5 -4 -10 -10 -10 -5 0 -10 5 -10 10 0 6 5 10 10 10 6 0 10 -4
10 -10z"/>
<path d="M4714 2537 l-2 -82 59 0 59 0 0 83 0 82 -57 0 -58 0 -1 -83z m104 28
l1 -45 -42 -2 -42 -1 43 -4 c34 -3 42 -8 42 -24 0 -16 -7 -19 -45 -19 l-45 0
0 70 0 70 44 0 43 0 1 -45z"/>
<path d="M4268 2593 c7 -3 16 -2 19 1 4 3 -2 6 -13 5 -11 0 -14 -3 -6 -6z"/>
<path d="M4298 2573 c6 -2 18 -2 25 0 6 3 1 5 -13 5 -14 0 -19 -2 -12 -5z"/>
<path d="M4061 2514 c0 -11 3 -14 6 -6 3 7 2 16 -1 19 -3 4 -6 -2 -5 -13z"/>
<path d="M4290 2480 l0 -30 60 0 60 0 0 30 0 30 -60 0 -60 0 0 -30z m88 13
c-16 -2 -40 -2 -55 0 -16 2 -3 4 27 4 30 0 43 -2 28 -4z m17 -23 c4 -6 -13
-10 -44 -10 -28 0 -51 5 -51 10 0 6 20 10 44 10 25 0 48 -4 51 -10z"/>
<path d="M4062 2470 c0 -14 2 -19 5 -12 2 6 2 18 0 25 -3 6 -5 1 -5 -13z"/>
<path d="M7911 1963 c-1 -20 -7 -23 -43 -24 l-43 -2 40 -6 c38 -6 40 -8 43
-43 3 -31 0 -37 -20 -41 -22 -4 -22 -4 -1 -6 14 -1 23 -9 26 -23 l4 -23 2 23
c1 21 24 29 70 22 9 -1 0 15 -20 37 -37 43 -51 48 -26 9 17 -25 13 -36 -10
-36 -10 0 -13 11 -11 38 3 35 5 37 41 40 20 2 37 7 37 12 0 4 -18 6 -39 3 -35
-5 -40 -3 -44 18 -4 24 -4 24 -6 2z"/>
<path d="M8301 1963 c0 -15 -7 -23 -18 -23 -14 0 -15 -2 -4 -9 13 -8 13 -19
-4 -66 l-7 -20 17 20 c17 19 17 18 12 -22 -3 -24 -1 -43 4 -43 8 0 14 67 11
113 -2 24 14 22 21 -3 4 -16 14 -20 45 -20 25 0 40 -5 39 -12 -1 -46 5 -68 18
-68 9 0 15 9 14 23 0 21 -1 21 -9 2 -7 -16 -9 -13 -9 18 -1 20 4 37 9 37 6 0
10 5 10 11 0 5 -4 7 -10 4 -6 -4 -10 6 -10 24 0 16 3 31 8 34 4 2 3 3 -3 2 -5
-1 -11 -16 -13 -33 -4 -36 -21 -44 -23 -9 -1 21 -1 21 -10 -3 -8 -23 -8 -23
-6 7 3 28 0 32 -25 35 -19 3 -28 0 -28 -9 0 -22 -18 -15 -23 10 l-4 22 -2 -22z
m69 -23 c0 -5 -7 -10 -15 -10 -8 0 -15 5 -15 10 0 6 7 10 15 10 8 0 15 -4 15
-10z m0 -30 c0 -5 -7 -10 -15 -10 -8 0 -15 5 -15 10 0 6 7 10 15 10 8 0 15 -4
15 -10z"/>
<path d="M8574 1973 c5 -10 -3 -13 -31 -15 -37 -1 -37 -1 -5 -5 32 -4 41 -16
21 -29 -8 -5 -6 -10 5 -16 18 -10 46 5 46 25 0 7 -4 7 -12 -1 -17 -17 -29 -15
-22 3 4 10 20 15 51 15 24 0 42 4 39 8 -3 5 -19 7 -36 4 -17 -2 -37 2 -47 9
-12 10 -14 10 -9 2z"/>
<path d="M2915 1928 c-22 -22 -31 -36 -20 -31 11 6 26 8 33 6 23 -8 12 -33
-20 -48 -30 -13 -30 -14 -5 -9 24 6 27 3 27 -22 0 -29 1 -29 52 -26 53 4 53 4
53 38 0 33 -1 34 -38 34 l-38 0 31 38 31 37 -36 3 c-19 2 -33 7 -30 13 11 17
1 8 -40 -33z m75 4 c0 -5 -6 -17 -14 -28 -14 -18 -16 -18 -32 -2 -9 9 -13 21
-10 27 8 13 56 15 56 3z m30 -97 c0 -22 -4 -25 -40 -25 -36 0 -40 3 -40 25 0
23 4 25 40 25 36 0 40 -2 40 -25z"/>
<path d="M4225 1960 c-3 -5 -1 -10 4 -10 6 0 11 5 11 10 0 6 -2 10 -4 10 -3 0
-8 -4 -11 -10z"/>
<path d="M4612 1933 c-2 -38 -5 -43 -26 -43 -20 0 -25 6 -29 33 -4 31 -4 31
-5 -5 -2 -36 0 -38 28 -38 28 0 30 -3 30 -35 0 -32 -2 -35 -29 -35 -26 0 -30
4 -34 33 l-4 32 -1 -37 -2 -36 75 -4 75 -3 -2 40 c-1 37 -2 38 -5 8 -4 -29 -8
-33 -34 -33 -27 0 -29 3 -29 35 0 32 2 35 30 35 28 0 30 2 28 38 -1 36 -1 36
-5 5 -4 -27 -9 -33 -28 -33 -21 0 -24 5 -28 43 l-4 42 -1 -42z"/>
<path d="M4785 1950 c-3 -11 -11 -20 -16 -20 -5 0 -9 -26 -9 -57 0 -58 0 -58
30 -58 28 0 30 3 30 38 0 20 4 37 9 37 5 0 13 9 16 20 4 14 15 20 36 20 28 0
29 -2 29 -44 0 -56 -8 -76 -29 -76 -14 0 -14 -2 -1 -10 24 -15 34 5 40 75 l5
65 -33 0 c-20 0 -31 4 -27 10 3 6 2 10 -2 10 -5 0 -15 -15 -22 -32 -13 -30
-14 -31 -18 -11 -3 15 -9 20 -20 16 -12 -5 -14 -1 -8 15 3 12 4 22 1 22 -2 0
-8 -9 -11 -20z m25 -50 c0 -13 -7 -20 -20 -20 -13 0 -20 7 -20 20 0 13 7 20
20 20 13 0 20 -7 20 -20z m0 -50 c0 -13 -7 -20 -20 -20 -13 0 -20 7 -20 20 0
13 7 20 20 20 13 0 20 -7 20 -20z"/>
<path d="M5018 1963 c-13 -3 -18 -14 -18 -38 0 -19 -4 -37 -10 -40 -5 -3 -10
-12 -10 -18 0 -8 3 -8 9 1 6 10 29 13 80 11 39 -1 74 1 78 4 3 4 0 7 -7 7 -9
0 -11 10 -7 35 5 31 3 35 -16 35 -16 0 -18 -3 -8 -9 11 -7 11 -9 0 -14 -11 -4
-11 -6 1 -6 13 -1 13 -2 0 -11 -10 -6 -11 -10 -2 -10 6 0 12 -4 12 -10 0 -15
-30 -12 -31 3 -1 6 -1 22 -2 35 0 14 -6 22 -17 22 -9 0 -17 -6 -17 -14 0 -8 6
-12 14 -9 20 8 16 -14 -4 -22 -17 -7 -16 -8 2 -15 16 -7 12 -9 -17 -9 -32 -1
-38 2 -38 19 0 12 7 20 18 21 14 0 14 2 -3 9 -17 7 -17 9 -2 9 9 1 17 6 17 11
0 6 -1 9 -2 9 -2 -1 -11 -3 -20 -6z"/>
<path d="M5297 1963 c-4 -3 -7 -15 -7 -25 0 -11 -7 -18 -19 -18 -14 0 -18 6
-15 23 2 12 1 15 -2 7 -4 -8 -13 -28 -21 -45 -12 -26 -12 -28 0 -12 20 24 57
23 57 -2 0 -15 -8 -21 -32 -24 l-33 -4 33 -1 c27 -2 32 -6 32 -26 0 -22 -5
-25 -42 -29 -24 -2 -1 -4 51 -5 52 -1 91 1 87 5 -4 4 -25 6 -46 4 -37 -2 -40
-1 -40 23 0 22 4 26 30 26 17 0 30 4 30 8 0 5 -13 7 -30 4 -25 -4 -30 -1 -30
17 0 18 6 21 37 21 20 0 33 3 29 7 -4 4 -19 7 -34 8 -22 0 -27 4 -25 23 3 23
1 26 -10 15z"/>
<path d="M5501 1958 c-1 -13 -10 -18 -33 -19 -24 -1 -27 -3 -10 -6 28 -6 28
-23 0 -59 -14 -18 -16 -24 -5 -15 15 12 17 10 17 -25 l0 -39 70 3 c39 2 68 7
65 11 -2 5 -16 6 -30 3 -22 -4 -25 -1 -25 26 0 26 4 31 28 35 l27 4 -29 2
c-23 1 -27 5 -23 21 3 11 1 20 -4 20 -5 0 -9 -9 -9 -19 0 -12 -8 -21 -22 -24
l-23 -4 23 -2 c18 -1 22 -7 22 -31 0 -27 -3 -30 -30 -30 -28 0 -30 2 -30 41 0
67 12 79 77 79 31 0 53 3 49 7 -4 4 -26 6 -50 4 -36 -2 -45 1 -49 16 -4 16 -5
16 -6 1z"/>
<path d="M5766 1958 c4 -13 1 -18 -12 -18 -15 0 -16 -2 -5 -9 7 -5 10 -15 7
-22 -4 -8 -1 -6 7 4 8 9 26 17 41 17 14 0 26 5 26 11 0 6 -9 8 -21 4 -14 -5
-25 -1 -35 12 -13 16 -13 16 -8 1z"/>
<path d="M5911 1932 l-23 -37 24 23 c13 12 34 22 46 22 19 0 22 -6 22 -40 0
-33 -3 -40 -20 -40 -15 0 -20 7 -21 28 -2 27 -2 27 -6 2 -3 -14 -10 -28 -17
-32 -6 -4 6 -8 26 -8 34 0 37 -2 41 -32 l4 -33 1 32 c2 30 5 32 45 36 l42 4
-42 1 -42 2 1 39 c0 38 2 40 37 44 22 2 12 4 -27 5 -39 1 -61 6 -57 12 3 6 3
10 -2 10 -4 -1 -19 -18 -32 -38z"/>
<path d="M6196 1955 c5 -12 -2 -15 -30 -15 l-36 0 0 -77 c0 -42 3 -73 7 -70 3
4 5 36 4 72 l-2 65 30 0 c17 0 31 -3 31 -6 0 -11 -24 -50 -39 -62 -14 -11 -13
-12 6 -3 12 6 25 20 28 31 6 19 8 18 32 -10 14 -17 27 -29 30 -26 2 2 -7 15
-21 29 -34 34 -33 47 4 47 30 0 30 0 30 -59 0 -38 -4 -61 -12 -64 -8 -4 -7 -6
4 -6 13 -1 17 11 20 69 l3 70 -37 0 c-27 0 -38 4 -38 15 0 8 -4 15 -10 15 -5
0 -7 -7 -4 -15z"/>
<path d="M6358 1882 c-2 -45 0 -82 5 -82 4 0 7 26 7 59 0 57 1 58 25 53 22 -4
25 -1 25 24 0 25 -4 29 -29 29 l-30 0 -3 -83z m45 61 c-7 -2 -19 -2 -25 0 -7
3 -2 5 12 5 14 0 19 -2 13 -5z"/>
<path d="M6450 1939 c0 -22 4 -26 25 -24 24 3 25 1 24 -53 0 -32 -3 -51 -6
-44 -2 6 -13 12 -24 12 -10 0 -19 5 -19 10 0 6 5 10 10 10 6 0 10 7 10 16 0 9
5 12 13 8 7 -5 6 -1 -3 10 -8 11 -16 14 -18 7 -2 -6 -15 -11 -28 -11 -17 0
-23 4 -18 12 4 7 3 8 -4 4 -16 -10 -15 -46 1 -46 6 -1 1 -10 -12 -20 -13 -11
-20 -20 -15 -20 4 0 18 10 31 22 20 18 23 19 23 5 0 -10 8 -17 18 -17 10 0 23
-5 30 -12 19 -19 24 -4 25 78 l1 77 -32 1 c-28 1 -32 -2 -32 -25z m50 7 c0 -2
-9 -6 -20 -9 -11 -3 -20 -1 -20 4 0 5 9 9 20 9 11 0 20 -2 20 -4z m-47 -83
c-7 -2 -21 -2 -30 0 -10 3 -4 5 12 5 17 0 24 -2 18 -5z"/>
<path d="M6625 1960 l-30 -8 30 -2 c28 -3 27 -3 -10 -10 l-40 -7 40 -3 c39 -2
39 -3 10 -10 l-30 -8 28 -1 c20 -1 27 -6 27 -22 0 -18 -5 -21 -35 -17 -19 2
-35 0 -35 -4 0 -4 7 -8 16 -8 13 0 15 -7 11 -29 l-6 -29 59 -4 60 -3 0 38 c0
28 4 37 18 38 11 0 12 2 4 6 -7 3 -18 0 -25 -6 -7 -5 -22 -9 -33 -9 -31 3 -20
48 12 48 13 0 24 5 24 10 0 6 8 10 18 11 13 0 14 2 2 6 -8 3 -17 9 -20 13 -8
12 -63 17 -95 10z m78 -17 c-7 -2 -19 -2 -25 0 -7 3 -2 5 12 5 14 0 19 -2 13
-5z m0 -20 c-7 -2 -19 -2 -25 0 -7 3 -2 5 12 5 14 0 19 -2 13 -5z m7 -93 c0
-17 -7 -20 -49 -20 -44 0 -49 2 -44 20 4 16 14 20 49 20 37 0 44 -3 44 -20z"/>
<path d="M6644 1829 c-3 -5 9 -9 25 -9 17 0 31 2 31 4 0 8 -51 13 -56 5z"/>
<path d="M6891 1908 c1 -68 6 -61 11 15 2 26 0 47 -4 47 -5 0 -7 -28 -7 -62z"/>
<path d="M7056 1958 c4 -13 1 -18 -12 -19 -11 0 -14 -3 -6 -6 6 -2 12 -23 13
-46 1 -39 1 -40 9 -14 5 16 6 35 3 43 -4 10 3 14 21 14 14 0 26 5 26 11 0 6
-7 8 -16 5 -10 -4 -22 1 -30 11 -13 17 -14 17 -8 1z"/>
<path d="M7131 1935 c-8 -22 -18 -35 -28 -33 -11 2 -16 -7 -17 -34 -2 -20 -9
-45 -17 -54 -12 -15 -12 -17 1 -12 8 2 19 23 24 46 5 23 13 42 17 42 5 0 16
14 25 32 l16 31 20 -31 c11 -18 24 -32 30 -32 5 0 -2 14 -16 31 -14 17 -26 35
-26 40 0 22 -17 6 -29 -26z"/>
<path d="M8080 1955 c0 -8 -4 -15 -10 -15 -6 0 -10 -26 -10 -58 0 -56 1 -58
28 -57 24 0 28 4 32 40 7 58 1 85 -18 78 -11 -5 -14 -2 -9 10 3 9 2 17 -3 17
-6 0 -10 -7 -10 -15z m30 -45 c0 -13 -7 -20 -20 -20 -13 0 -20 7 -20 20 0 13
7 20 20 20 13 0 20 -7 20 -20z m0 -50 c0 -13 -7 -20 -20 -20 -13 0 -20 7 -20
20 0 13 7 20 20 20 13 0 20 -7 20 -20z"/>
<path d="M8137 1948 c-4 -12 -4 -24 -2 -27 3 -2 5 1 5 7 0 7 15 12 35 12 l34
0 -6 -52 c-3 -29 -12 -58 -20 -65 -10 -8 -11 -13 -3 -18 6 -4 14 -5 17 -2 8 9
23 80 23 115 0 30 -2 32 -36 32 -21 0 -33 4 -29 10 3 6 2 10 -3 10 -5 0 -12
-10 -15 -22z"/>
<path d="M630 1951 c0 -5 -10 -12 -22 -14 -20 -4 -19 -4 5 -6 15 0 27 -6 27
-12 0 -6 7 -4 15 5 17 17 20 30 5 21 -5 -3 -10 -1 -10 4 0 6 -4 11 -10 11 -5
0 -10 -4 -10 -9z"/>
<path d="M835 1940 c-27 -30 -12 -34 15 -5 13 14 19 25 13 25 -5 0 -18 -9 -28
-20z"/>
<path d="M891 1936 c-6 -16 -14 -34 -17 -40 -3 -6 1 -3 10 8 22 28 36 10 36
-47 0 -46 -1 -49 -14 -32 -8 11 -12 25 -9 32 3 7 0 13 -6 13 -19 0 -12 -36 12
-58 15 -15 35 -22 58 -21 l34 1 -30 7 c-42 9 -48 48 -8 54 l28 4 -27 2 c-20 1
-28 6 -28 19 0 27 21 44 37 31 9 -8 13 -8 13 0 0 6 -5 11 -11 11 -6 0 -9 9 -6
20 3 11 2 20 -3 20 -4 0 -11 -12 -14 -26 -8 -31 -28 -27 -37 7 l-6 24 -12 -29z"/>
<path d="M1064 1948 c3 -10 -2 -18 -12 -21 -9 -3 -2 -5 16 -6 18 -1 32 4 32
11 0 6 -3 8 -7 5 -3 -4 -12 1 -20 11 -13 15 -14 15 -9 0z"/>
<path d="M1145 1953 c3 -7 -4 -31 -15 -54 l-21 -41 23 8 c19 6 21 4 13 -8 -6
-7 0 -2 12 12 13 14 23 30 23 35 0 6 -5 2 -11 -7 -5 -10 -17 -18 -25 -18 -12
0 -12 4 -4 20 6 12 21 20 35 20 14 0 25 5 25 11 0 6 -7 8 -16 5 -10 -4 -22 1
-31 11 -8 10 -12 13 -8 6z"/>
<path d="M1374 1948 c6 -21 -23 -33 -30 -13 -4 8 -19 15 -35 15 -21 0 -27 -4
-23 -15 4 -9 0 -15 -7 -15 -11 0 -11 -3 1 -11 12 -9 13 -12 1 -16 -11 -4 -11
-7 0 -13 10 -7 10 -14 1 -35 -7 -15 -8 -24 -2 -20 5 3 10 -2 10 -13 0 -15 6
-18 30 -14 17 2 30 8 30 13 0 5 -11 7 -24 3 -16 -4 -25 -1 -29 10 -7 18 8 30
28 22 8 -3 17 -1 20 4 4 6 -5 10 -19 10 -14 0 -26 5 -26 10 0 6 9 10 20 10 11
0 20 6 20 14 0 13 20 26 41 26 16 0 9 -28 -8 -33 -17 -4 -17 -5 0 -6 9 0 17
-7 17 -15 0 -8 -8 -17 -17 -19 -16 -4 -16 -5 -1 -6 11 -1 18 -12 21 -33 l4
-33 1 32 c2 26 7 32 30 36 l27 4 -27 2 c-34 1 -38 28 -5 34 l22 4 -22 2 c-34
2 -29 31 5 32 24 2 24 2 4 6 -20 4 -21 7 -10 21 10 13 8 13 -9 -1 -20 -18 -22
-18 -33 0 -9 14 -10 15 -6 1z m-44 -18 c0 -5 -4 -10 -10 -10 -5 0 -10 5 -10
10 0 6 5 10 10 10 6 0 10 -4 10 -10z m0 -30 c0 -5 -7 -10 -15 -10 -8 0 -15 5
-15 10 0 6 7 10 15 10 8 0 15 -4 15 -10z"/>
<path d="M1580 1910 c0 -49 -1 -50 -29 -50 -27 0 -30 4 -34 38 l-4 37 -1 -42
c-2 -43 -2 -43 32 -43 33 0 35 -2 39 -37 l4 -38 1 38 c2 35 3 37 38 37 19 0
33 4 30 8 -3 5 -19 7 -37 4 l-31 -5 3 52 c2 28 1 51 -3 51 -5 0 -8 -22 -8 -50z"/>
<path d="M1733 1875 c0 -49 2 -80 4 -69 2 12 13 24 23 27 14 4 17 10 12 28
l-7 24 -3 -22 c-7 -45 -21 -22 -25 40 -2 46 -3 39 -4 -28z"/>
<path d="M1761 1944 c0 -11 3 -14 6 -6 3 7 2 16 -1 19 -3 4 -6 -2 -5 -13z"/>
<path d="M1823 1951 c-5 -3 -8 -13 -8 -21 0 -8 -6 -15 -14 -15 -8 0 -16 -12
-18 -27 -3 -20 1 -28 12 -28 8 0 15 5 15 11 0 5 -4 7 -10 4 -5 -3 -10 -2 -10
4 0 5 9 13 20 16 11 4 18 11 15 16 -4 5 1 9 10 9 9 0 13 -4 10 -10 -11 -18 7
-10 26 12 11 11 19 22 19 23 0 6 -60 11 -67 6z m40 -18 c-7 -2 -19 -2 -25 0
-7 3 -2 5 12 5 14 0 19 -2 13 -5z"/>
<path d="M2025 1940 c-5 -15 -15 -20 -43 -20 -26 0 -33 -3 -23 -9 12 -8 13
-14 3 -37 -7 -14 -10 -29 -8 -32 3 -2 11 7 17 21 7 15 17 23 23 20 6 -4 4 1
-4 12 -14 17 -13 18 17 13 22 -3 34 0 38 9 3 9 0 11 -6 7 -8 -4 -9 1 -4 15 3
11 4 21 1 21 -2 0 -8 -9 -11 -20z"/>
<path d="M2062 1930 c0 -19 2 -27 5 -17 2 9 2 25 0 35 -3 9 -5 1 -5 -18z"/>
<path d="M2090 1940 c-6 -11 -8 -25 -5 -30 7 -11 -9 -28 -39 -45 -10 -6 -24
-26 -32 -45 -12 -31 -12 -33 1 -16 8 11 15 24 15 29 0 5 8 3 18 -4 15 -13 16
-12 3 4 -16 20 -9 32 14 24 22 -9 19 -45 -6 -52 -11 -4 -18 -9 -16 -12 3 -2
15 1 27 7 16 9 25 9 33 1 15 -15 27 -14 27 4 0 9 -6 12 -17 8 -13 -5 -15 -2
-11 15 4 13 2 20 -5 19 -6 -1 -13 6 -15 16 -2 9 2 17 8 17 6 0 8 -4 5 -10 -3
-5 3 -10 15 -10 19 0 20 1 6 16 -18 18 -20 30 -6 39 6 3 10 11 10 17 0 6 -7 5
-17 -3 -15 -13 -15 -12 -4 9 6 12 9 22 7 22 -3 0 -10 -9 -16 -20z"/>
<path d="M2200 1945 c7 -9 15 -13 17 -11 7 7 -7 26 -19 26 -6 0 -6 -6 2 -15z"/>
<path d="M2241 1928 c-1 -24 4 -38 12 -38 8 0 7 -4 -3 -10 -13 -8 -12 -10 3
-10 9 0 17 -4 17 -10 0 -5 -8 -10 -17 -10 -14 0 -15 -2 -5 -9 10 -6 10 -10 -2
-20 -19 -16 -37 -6 -30 17 5 15 4 15 -5 2 -7 -8 -17 -24 -23 -35 -10 -17 -9
-18 4 -7 11 9 23 10 42 2 33 -12 116 -13 116 -1 0 4 -22 6 -50 3 -29 -2 -50 0
-50 5 0 11 41 35 56 32 21 -4 44 2 44 11 0 5 -7 7 -15 4 -8 -4 -15 -1 -15 4 0
6 8 13 18 15 15 4 14 5 -2 6 -20 1 -20 1 0 16 14 11 15 14 3 9 -10 -3 -20 -1
-24 5 -3 6 0 11 8 11 8 0 17 7 21 15 3 8 1 15 -4 15 -6 0 -10 -4 -10 -10 0
-17 -18 -11 -24 8 -3 9 -4 -2 -2 -26 4 -36 2 -43 -12 -39 -10 2 -16 9 -14 16
2 9 -3 11 -13 8 -8 -4 -15 -2 -15 3 0 6 6 10 14 10 8 0 16 7 20 15 3 8 1 15
-4 15 -6 0 -10 -4 -10 -10 0 -17 -18 -11 -23 8 -3 9 -5 0 -6 -20z m69 -68 c0
-5 -7 -10 -15 -10 -8 0 -15 5 -15 10 0 6 7 10 15 10 8 0 15 -4 15 -10z"/>
<path d="M2490 1925 c0 -30 -3 -35 -24 -35 -20 0 -25 6 -29 33 -4 31 -4 31 -5
-5 -2 -36 0 -38 28 -38 28 0 30 -3 30 -35 0 -32 -2 -35 -29 -35 -25 0 -30 5
-34 28 -3 23 -4 22 -6 -9 l-1 -35 62 3 c61 3 96 13 45 13 -24 0 -27 4 -27 36
0 34 2 36 29 32 27 -4 30 -1 33 29 2 19 0 36 -4 39 -4 3 -8 -9 -8 -25 0 -27
-4 -31 -26 -31 -24 0 -26 3 -22 35 2 19 0 35 -4 35 -4 0 -8 -16 -8 -35z"/>
<path d="M3123 1953 c-7 -2 -13 -16 -13 -29 0 -14 -5 -35 -12 -47 -10 -20 -10
-21 5 -9 10 9 40 13 86 11 39 -1 74 1 78 4 3 4 0 7 -7 7 -9 0 -11 10 -7 35 3
19 2 35 -4 35 -5 0 -9 -7 -9 -15 0 -8 -6 -15 -12 -15 -9 0 -8 -4 2 -10 12 -8
12 -10 -5 -11 l-20 0 20 -9 c19 -8 19 -9 -2 -9 -19 -1 -23 4 -23 32 0 21 -5
34 -13 34 -8 0 -14 -6 -14 -13 0 -7 4 -11 9 -8 4 3 8 1 8 -5 0 -5 -6 -12 -12
-14 -10 -4 -10 -7 0 -15 9 -6 1 -9 -25 -9 -33 -1 -35 0 -13 7 24 8 24 8 3 9
-32 1 -27 31 7 44 13 5 13 5 0 5 -8 0 -21 -2 -27 -5z"/>
<path d="M3861 1903 c-1 -40 3 -63 10 -63 7 0 4 -11 -6 -27 l-18 -28 30 28
c16 15 37 27 46 27 14 0 17 10 17 60 0 59 0 60 -27 59 -24 -2 -25 -2 -5 -6 31
-6 28 -33 -3 -33 -17 0 -29 7 -35 23 -7 17 -9 7 -9 -40z m69 -23 c0 -26 -4
-30 -28 -30 -25 0 -29 4 -29 30 0 26 4 30 29 30 24 0 28 -4 28 -30z"/>
<path d="M4012 1888 c-2 -73 -3 -78 -24 -79 -22 0 -22 -1 -3 -9 31 -12 36 1
32 86 l-3 79 -2 -77z"/>
<path d="M4325 1950 c3 -5 8 -10 11 -10 2 0 4 5 4 10 0 6 -5 10 -11 10 -5 0
-7 -4 -4 -10z"/>
<path d="M4362 1928 c2 -20 8 -32 16 -30 19 3 14 -36 -5 -41 -10 -3 -2 -5 18
-6 20 0 42 -8 49 -16 7 -8 18 -15 24 -15 6 0 2 6 -9 12 -19 12 -19 12 5 19 24
7 24 7 3 8 -16 1 -23 7 -23 20 0 12 8 21 23 24 19 4 18 4 -5 6 -32 1 -39 21
-8 21 11 0 20 7 20 15 0 9 -10 15 -26 15 -25 0 -26 -1 -19 -50 6 -43 5 -50
-10 -50 -13 0 -16 7 -13 29 3 23 1 27 -14 23 -10 -2 -18 1 -18 7 0 6 9 11 20
11 11 0 20 7 20 15 0 9 -10 15 -26 15 -23 0 -25 -3 -22 -32z m35 16 c-3 -3
-12 -4 -19 -1 -8 3 -5 6 6 6 11 1 17 -2 13 -5z m60 0 c-3 -3 -12 -4 -19 -1 -8
3 -5 6 6 6 11 1 17 -2 13 -5z"/>
<path d="M5685 1951 c3 -5 -3 -12 -12 -14 -10 -3 0 -5 22 -5 22 0 32 2 23 5
-10 2 -18 9 -18 14 0 5 -5 9 -11 9 -5 0 -8 -4 -4 -9z"/>
<path d="M7457 1953 c-13 -12 -7 -20 15 -19 36 1 34 -32 -3 -70 l-33 -34 41 0
c27 0 43 5 46 15 5 12 2 12 -19 3 -33 -15 -42 -3 -17 25 27 29 32 48 21 70 -9
17 -39 23 -51 10z"/>
<path d="M7572 1937 c-33 -35 -28 -107 8 -107 43 0 55 72 13 78 -27 4 -20 30
11 42 14 6 16 9 5 9 -8 1 -25 -9 -37 -22z m26 -70 c2 -19 -1 -27 -12 -27 -17
0 -31 34 -21 50 11 18 30 5 33 -23z"/>
<path d="M723 1941 c-26 -5 -30 -9 -23 -21 6 -10 10 -11 10 -2 0 6 11 12 25
12 14 0 25 5 25 10 0 6 -1 9 -2 9 -2 -1 -18 -4 -35 -8z"/>
<path d="M3351 1914 c-23 -38 -20 -55 7 -53 15 1 15 2 0 6 -14 3 -16 9 -8 23
8 15 22 19 66 19 31 0 58 2 62 5 6 6 -45 10 -87 6 -18 -1 -22 2 -18 14 11 27
0 18 -22 -20z"/>
<path d="M3968 1895 c-1 -30 0 -55 5 -55 4 0 7 25 7 55 0 71 -7 71 -12 0z"/>
<path d="M4090 1908 c0 -24 -4 -60 -9 -80 -5 -21 -5 -36 -1 -33 5 3 11 18 15
35 5 23 12 30 38 33 l32 4 -32 1 c-26 2 -33 6 -33 23 0 18 5 21 30 17 17 -3
30 -1 30 4 0 4 -13 8 -30 8 -30 0 -41 14 -17 23 7 3 5 6 -5 6 -15 1 -18 -7
-18 -41z"/>
<path d="M4170 1898 c0 -29 -7 -66 -15 -82 -14 -25 -14 -27 0 -16 8 7 18 30
21 51 5 29 11 39 25 39 15 0 19 -10 22 -52 l3 -53 2 53 c1 28 7 52 12 52 6 0
10 4 10 9 0 6 -16 7 -35 4 -30 -5 -35 -3 -35 15 0 11 8 23 18 25 13 4 11 5 -5
6 -21 1 -23 -3 -23 -51z"/>
<path d="M6830 1910 c-12 -23 -17 -39 -11 -35 15 8 44 65 37 72 -2 3 -14 -14
-26 -37z"/>
<path d="M3140 1929 c0 -5 5 -7 10 -4 6 3 10 8 10 11 0 2 -4 4 -10 4 -5 0 -10
-5 -10 -11z"/>
<path d="M6954 1921 c20 -22 26 -25 26 -13 0 4 -10 13 -22 21 -23 14 -23 14
-4 -8z"/>
<path d="M8526 1927 c3 -10 9 -15 12 -12 3 3 0 11 -7 18 -10 9 -11 8 -5 -6z"/>
<path d="M8635 1930 c-3 -5 -2 -10 4 -10 5 0 13 5 16 10 3 6 2 10 -4 10 -5 0
-13 -4 -16 -10z"/>
<path d="M1608 1923 c7 -3 16 -2 19 1 4 3 -2 6 -13 5 -11 0 -14 -3 -6 -6z"/>
<path d="M1640 1920 c0 -5 5 -10 10 -10 6 0 10 5 10 10 0 6 -4 10 -10 10 -5 0
-10 -4 -10 -10z"/>
<path d="M833 1885 c-13 -21 -16 -32 -8 -28 11 4 13 -3 8 -31 -4 -24 -2 -36 6
-36 7 0 11 20 11 53 0 29 5 58 12 65 7 7 8 12 3 12 -6 -1 -20 -16 -32 -35z"/>
<path d="M1751 1904 c0 -11 3 -14 6 -6 3 7 2 16 -1 19 -3 4 -6 -2 -5 -13z"/>
<path d="M2189 1911 c8 -5 11 -16 8 -24 -3 -9 2 -17 14 -20 10 -3 19 -1 19 4
0 5 -4 9 -9 9 -5 0 -7 8 -4 18 3 13 -2 18 -19 19 -16 2 -19 0 -9 -6z"/>
<path d="M4313 1913 c20 -5 22 -14 5 -31 -9 -9 -8 -12 6 -12 13 0 16 -5 10
-22 -4 -13 -14 -28 -22 -34 -11 -8 -12 -13 -4 -18 7 -4 12 -2 12 4 0 8 10 9
29 5 54 -12 120 -14 126 -4 4 5 -18 9 -52 9 -53 1 -56 2 -39 15 11 8 15 15 9
15 -6 0 -16 -7 -23 -15 -18 -22 -32 -7 -25 26 4 18 3 29 -5 29 -8 0 -8 6 0 20
10 18 8 20 -17 19 -17 -1 -21 -3 -10 -6z"/>
<path d="M5790 1911 c0 -5 -13 -23 -29 -40 -16 -17 -26 -31 -22 -31 7 0 34 27
60 63 9 11 10 17 2 17 -6 0 -11 -4 -11 -9z"/>
<path d="M1065 1900 c-19 -8 -19 -9 2 -9 12 -1 25 4 28 9 7 12 -2 12 -30 0z"/>
<path d="M2110 1901 c0 -5 5 -13 10 -16 6 -3 10 -2 10 4 0 5 -4 13 -10 16 -5
3 -10 2 -10 -4z"/>
<path d="M6028 1903 c7 -3 16 -2 19 1 4 3 -2 6 -13 5 -11 0 -14 -3 -6 -6z"/>
<path d="M7864 1874 c-17 -19 -28 -34 -24 -34 9 0 64 59 59 64 -2 2 -18 -12
-35 -30z"/>
<path d="M8630 1906 c0 -2 8 -10 18 -17 15 -13 16 -12 3 4 -13 16 -21 21 -21
13z"/>
<path d="M2020 1889 c0 -5 10 -9 22 -9 12 0 18 3 14 7 -10 11 -36 12 -36 2z"/>
<path d="M3633 1874 c0 -18 2 -22 8 -13 11 18 11 39 0 39 -5 0 -8 -12 -8 -26z"/>
<path d="M6930 1874 c-8 -14 -27 -32 -43 -41 -16 -8 -27 -17 -24 -20 9 -8 56
28 78 58 11 16 16 29 11 29 -5 0 -15 -12 -22 -26z"/>
<path d="M7155 1880 c10 -11 20 -20 23 -20 3 0 -3 9 -13 20 -10 11 -20 20 -23
20 -3 0 3 -9 13 -20z"/>
<path d="M8161 1883 c7 -12 15 -20 18 -17 3 2 -3 12 -13 22 -17 16 -18 16 -5
-5z"/>
<path d="M8520 1890 c-8 -5 -12 -12 -9 -15 4 -3 12 1 19 10 14 17 11 19 -10 5z"/>
<path d="M8553 1888 c-2 -5 3 -8 11 -8 9 0 16 -4 16 -10 0 -5 -16 -10 -35 -10
-19 0 -35 -5 -35 -11 0 -7 9 -9 23 -6 27 7 43 -2 50 -28 3 -15 5 -13 6 8 1 25
4 27 36 25 19 -1 37 1 41 5 4 4 -11 7 -34 7 -23 0 -42 5 -42 10 0 6 10 10 22
10 12 0 18 3 15 7 -10 9 -68 10 -74 1z"/>
<path d="M613 1883 c15 -2 27 -7 27 -11 0 -3 -12 -19 -27 -35 l-28 -30 28 18
c27 17 27 17 27 -9 0 -25 3 -26 50 -26 49 0 50 1 50 30 0 29 -1 30 -51 30 -44
0 -50 2 -39 15 6 8 34 16 63 18 29 2 12 3 -38 4 -49 0 -78 -2 -62 -4z m117
-63 c0 -17 -7 -20 -40 -20 -33 0 -40 3 -40 20 0 17 7 20 40 20 33 0 40 -3 40
-20z"/>
<path d="M1821 1868 c-1 -31 9 -40 29 -27 12 7 11 9 -5 10 l-20 0 20 9 c16 7
17 9 3 9 -9 1 -19 7 -21 14 -3 6 -6 0 -6 -15z"/>
<path d="M1869 1873 c-1 -10 0 -26 1 -37 1 -12 -2 -16 -11 -11 -8 5 -10 4 -5
-3 14 -22 24 -12 28 28 2 22 0 40 -4 40 -5 0 -9 -8 -9 -17z"/>
<path d="M2683 1883 c26 -2 67 -2 90 0 23 2 2 3 -48 3 -49 0 -68 -1 -42 -3z"/>
<path d="M3406 1873 c-4 -9 -3 -20 2 -25 4 -4 9 4 10 17 2 29 -3 32 -12 8z"/>
<path d="M4871 1873 c7 -12 15 -20 18 -17 3 2 -3 12 -13 22 -17 16 -18 16 -5
-5z"/>
<path d="M5740 1879 c0 -5 5 -7 10 -4 6 3 10 8 10 11 0 2 -4 4 -10 4 -5 0 -10
-5 -10 -11z"/>
<path d="M5777 1844 c-21 -24 -31 -41 -23 -38 9 3 16 10 16 15 0 17 28 9 43
-13 11 -16 16 -18 16 -8 1 8 -8 21 -20 28 -20 13 -20 14 -3 33 9 10 15 21 13
23 -2 2 -21 -16 -42 -40z"/>
<path d="M6608 1883 c7 -3 16 -2 19 1 4 3 -2 6 -13 5 -11 0 -14 -3 -6 -6z"/>
<path d="M1063 1873 c9 -2 23 -2 30 0 6 3 -1 5 -18 5 -16 0 -22 -2 -12 -5z"/>
<path d="M8331 1864 c0 -11 3 -14 6 -6 3 7 2 16 -1 19 -3 4 -6 -2 -5 -13z"/>
<path d="M1157 1834 c-34 -40 -57 -44 -57 -9 0 21 -5 25 -28 25 -27 0 -28 -2
-23 -32 5 -32 6 -32 9 -5 2 16 9 27 19 27 10 0 14 -6 10 -20 -7 -26 28 -37 52
-16 22 20 31 20 47 -1 7 -10 14 -13 14 -7 0 6 -7 17 -15 24 -14 12 -14 15 1
31 10 11 13 19 8 18 -5 0 -22 -16 -37 -35z"/>
<path d="M3165 1860 c28 -4 54 -3 60 1 5 5 -16 8 -50 8 l-60 -2 50 -7z"/>
<path d="M3448 1863 c6 -2 18 -2 25 0 6 3 1 5 -13 5 -14 0 -19 -2 -12 -5z"/>
<path d="M5011 1866 c8 -8 98 -10 105 -3 4 4 -19 7 -51 7 -32 0 -56 -2 -54 -4z"/>
<path d="M8352 1850 c-16 -27 -15 -38 1 -15 8 10 19 15 26 11 9 -6 8 -13 -6
-29 -14 -18 -12 -17 10 2 15 14 27 27 27 29 0 3 -3 2 -7 -1 -3 -4 -14 0 -23 8
-14 13 -17 12 -28 -5z"/>
<path d="M1978 1825 c-2 -19 0 -35 4 -35 4 0 8 16 8 35 0 19 -2 35 -4 35 -2 0
-6 -16 -8 -35z"/>
<path d="M2563 1825 c0 -22 2 -30 4 -17 2 12 2 30 0 40 -3 9 -5 -1 -4 -23z"/>
<path d="M5671 1828 c2 -31 2 -31 6 -5 5 33 30 36 36 5 4 -20 4 -19 6 5 1 23
-3 27 -24 27 -22 0 -25 -4 -24 -32z"/>
<path d="M3178 1821 c-2 -17 -1 -28 3 -26 10 7 18 55 9 55 -4 0 -10 -13 -12
-29z"/>
<path d="M5025 1839 l-40 -6 38 -2 c20 0 37 -5 37 -11 0 -5 -5 -10 -12 -10 -9
0 -9 -3 -1 -11 13 -13 33 -4 33 17 0 10 11 14 37 14 20 0 34 2 32 4 -9 8 -87
11 -124 5z"/>
<path d="M3100 1828 c0 -4 16 -8 35 -8 19 0 35 2 35 4 0 2 -16 6 -35 8 -19 2
-35 0 -35 -4z"/>
<path d="M3225 1830 l-30 -8 32 -1 c17 0 35 4 38 9 7 11 3 11 -40 0z"/>
<path d="M7036 1825 c-9 -26 -7 -32 5 -12 6 10 9 21 6 23 -2 3 -7 -2 -11 -11z"/>
<path d="M7155 1820 c10 -11 20 -18 23 -15 7 6 -18 35 -31 35 -5 0 -2 -9 8
-20z"/>
<path d="M1810 1819 c0 -5 -4 -7 -10 -4 -5 3 -18 2 -27 -4 -17 -9 -16 -10 2
-11 11 0 43 -2 70 -4 28 -2 31 -1 8 1 -32 3 -41 8 -36 19 3 7 2 14 -1 14 -3 0
-6 -5 -6 -11z"/>
<path d="M3926 1817 c3 -10 9 -15 12 -12 3 3 0 11 -7 18 -10 9 -11 8 -5 -6z"/>
<path d="M866 1803 c-6 -14 -5 -15 5 -6 7 7 10 15 7 18 -3 3 -9 -2 -12 -12z"/>
<path d="M3365 1800 c-38 -7 -36 -7 20 -8 42 -1 56 1 45 8 -8 5 -17 9 -20 8
-3 0 -23 -4 -45 -8z"/>
<path d="M3460 1800 c-12 -8 -11 -10 7 -10 12 0 25 5 28 10 8 13 -15 13 -35 0z"/>
<path d="M6816 1801 c-4 -5 3 -7 14 -4 23 6 26 13 6 13 -8 0 -17 -4 -20 -9z"/>
<path d="M997 1683 c-14 -14 -6 -19 23 -15 29 4 29 4 19 -29 -20 -62 -19 -85
0 -34 28 72 27 85 -7 85 -16 0 -32 -3 -35 -7z"/>
<path d="M626 1567 c3 -10 9 -15 12 -12 3 3 0 11 -7 18 -10 9 -11 8 -5 -6z"/>
<path d="M646 1549 c-3 -17 -6 -34 -6 -38 0 -4 18 -5 40 -3 24 3 40 0 40 -6 0
-6 -21 -13 -47 -15 -44 -3 -43 -4 14 -5 38 -1 63 -7 66 -14 3 -8 6 -6 6 5 1 9
-6 17 -15 17 -10 0 -14 6 -10 15 6 16 -5 19 -56 15 -26 -1 -27 1 -22 29 4 17
4 31 2 31 -3 0 -8 -14 -12 -31z"/>
<path d="M930 1491 c0 -6 44 -10 100 -9 55 0 100 4 100 9 0 5 -45 9 -100 9
-56 0 -100 -4 -100 -9z"/>
<path d="M1307 1493 c-15 -14 -6 -33 16 -32 16 1 18 2 5 6 -10 2 -18 8 -18 13
0 5 8 11 18 13 14 4 14 5 1 6 -9 0 -19 -2 -22 -6z"/>
<path d="M613 1458 c-15 -20 -25 -38 -20 -38 3 0 12 11 21 25 17 26 16 35 -1
13z"/>
<path d="M661 1444 c0 -11 3 -14 6 -6 3 7 2 16 -1 19 -3 4 -6 -2 -5 -13z"/>
<path d="M626 1433 c-6 -14 -5 -15 5 -6 7 7 10 15 7 18 -3 3 -9 -2 -12 -12z"/>
<path d="M737 1437 c-4 -10 -13 -15 -24 -11 -16 5 -16 4 0 -6 21 -14 42 -1 35
21 -3 9 -6 8 -11 -4z"/>
<path d="M963 1413 c-8 -3 -9 -13 -3 -34 9 -29 7 -60 -5 -79 -3 -6 2 -10 12
-10 15 0 18 7 15 48 -4 72 -6 79 -19 75z"/>
<path d="M1040 1400 c-16 -29 -8 -91 12 -103 26 -17 48 9 48 57 0 62 -37 89
-60 46z m40 -45 c0 -42 -3 -55 -15 -55 -8 0 -15 8 -16 18 0 9 -2 24 -3 32 -5
21 11 60 24 60 6 0 10 -24 10 -55z"/>
<path d="M1231 978 c-1 -12 -12 -18 -43 -21 l-43 -4 43 -1 42 -2 0 -60 c0 -50
-3 -60 -17 -60 -15 0 -16 -2 -3 -10 23 -15 31 2 31 69 l1 61 41 1 c23 1 33 4
22 6 -11 3 -25 13 -32 22 -12 15 -13 14 -7 -1 4 -12 1 -18 -9 -18 -9 0 -18 8
-20 18 -4 15 -5 15 -6 0z"/>
<path d="M1482 983 c-6 -3 -10 -8 -8 -12 3 -4 -1 -32 -9 -62 -18 -67 -18 -70
0 -39 l15 25 6 -22 c7 -24 28 -31 39 -13 4 6 1 9 -6 8 -20 -5 -22 32 -3 53 16
17 16 19 1 19 -10 0 -17 -7 -17 -15 0 -8 -4 -15 -10 -15 -13 0 -13 12 0 46 12
30 11 33 -8 27z"/>
<path d="M610 948 c-28 -46 -26 -91 6 -125 22 -25 24 -25 10 -3 -21 32 -20
104 0 135 9 14 13 25 10 25 -3 0 -15 -15 -26 -32z"/>
<path d="M754 948 c21 -29 21 -102 0 -122 -8 -9 -11 -16 -6 -16 16 0 42 47 42
76 0 28 -29 84 -43 84 -4 0 -1 -10 7 -22z"/>
<path d="M661 913 c0 -10 3 -13 6 -5 5 14 33 17 33 3 0 -5 -9 -12 -19 -16 -36
-11 -38 -55 -3 -55 14 0 14 2 3 9 -8 5 -11 16 -8 25 10 25 27 19 27 -9 0 -14
6 -25 13 -25 10 0 12 11 8 43 -5 37 -9 42 -33 45 -22 3 -28 -1 -27 -15z"/>
<path d="M1170 926 c0 -2 8 -10 18 -17 15 -13 16 -12 3 4 -13 16 -21 21 -21
13z"/>
<path d="M1269 913 c-13 -15 -12 -15 9 -4 23 12 28 21 13 21 -5 0 -15 -7 -22
-17z"/>
<path d="M1654 899 c-8 -14 11 -33 25 -25 16 10 13 36 -3 36 -8 0 -18 -5 -22
-11z m26 -9 c0 -5 -4 -10 -10 -10 -5 0 -10 5 -10 10 0 6 5 10 10 10 6 0 10 -4
10 -10z"/>
<path d="M1175 865 c-16 -14 -26 -25 -21 -25 4 0 21 11 38 25 16 14 26 25 21
25 -4 -1 -21 -12 -38 -25z"/>
<path d="M1273 856 c16 -14 33 -23 39 -19 7 4 2 10 -12 15 -13 5 -31 14 -39
20 -9 6 -3 -1 12 -16z"/>
<path d="M1224 503 c5 -9 -4 -13 -31 -15 -21 -1 -4 -4 37 -8 41 -3 79 -3 85 2
5 4 -9 8 -31 8 -22 0 -46 6 -53 13 -11 10 -13 10 -7 0z"/>
<path d="M1442 433 l-2 -83 -30 0 c-27 0 -30 3 -30 32 0 23 -3 29 -11 21 -6
-6 -9 -21 -7 -34 3 -22 8 -24 81 -29 l77 -5 -2 40 c-1 37 -2 38 -5 8 -4 -29
-8 -33 -33 -33 l-29 0 -4 83 -3 82 -2 -82z"/>
<path d="M1587 493 c3 -15 13 -23 27 -22 15 0 16 2 6 6 -8 4 -20 13 -27 22
-10 14 -11 13 -6 -6z"/>
<path d="M2014 466 c-18 -41 -19 -44 -2 -35 10 5 18 18 18 28 0 14 5 18 20 14
25 -7 25 -14 -2 -49 -13 -17 -15 -23 -6 -16 15 12 17 9 21 -25 3 -36 4 -35 5
9 2 37 5 46 17 42 9 -4 15 -24 18 -57 l3 -52 2 53 c2 39 6 52 17 52 10 0 15
-10 15 -30 0 -16 -5 -30 -11 -30 -5 0 -7 -5 -4 -10 11 -18 23 -1 27 40 3 35 1
40 -18 40 -12 0 -21 6 -21 15 0 10 10 15 30 15 17 0 27 3 23 7 -4 4 -23 6 -43
4 -29 -2 -35 0 -30 13 4 9 2 16 -3 16 -6 0 -10 -7 -10 -15 0 -20 -38 -19 -42
0 -2 9 -12 -4 -24 -29z m82 -23 c-10 -10 -19 5 -10 18 6 11 8 11 12 0 2 -7 1
-15 -2 -18z"/>
<path d="M2235 490 c-3 -11 -11 -20 -16 -20 -5 0 -9 -26 -9 -57 0 -58 0 -58
30 -58 28 0 30 3 30 38 0 20 4 37 9 37 5 0 13 9 16 20 4 14 15 20 36 20 28 0
29 -2 29 -44 0 -56 -8 -76 -29 -76 -14 0 -14 -2 -1 -10 24 -15 34 5 40 75 l5
65 -33 0 c-26 0 -33 3 -28 15 3 8 1 15 -4 15 -6 0 -10 -8 -10 -18 0 -10 -7
-27 -15 -38 -15 -19 -16 -19 -13 1 2 15 -2 19 -15 17 -15 -3 -17 1 -12 17 3
12 4 21 1 21 -2 0 -8 -9 -11 -20z m25 -45 c0 -8 -9 -15 -20 -15 -11 0 -20 7
-20 15 0 8 9 15 20 15 11 0 20 -7 20 -15z m0 -50 c0 -18 -5 -25 -20 -25 -15 0
-20 7 -20 25 0 18 5 25 20 25 15 0 20 -7 20 -25z"/>
<path d="M2527 493 c3 -10 13 -26 22 -36 15 -18 13 -18 -47 -16 -34 1 -67 -2
-73 -8 -6 -6 0 -8 21 -5 26 4 30 1 30 -18 0 -12 -15 -36 -32 -53 -22 -20 -26
-26 -11 -18 27 14 53 50 53 73 0 13 8 18 29 18 16 0 32 -6 34 -12 3 -8 6 -6 6
4 1 12 6 15 19 11 9 -3 5 4 -10 16 -16 12 -28 31 -28 42 0 10 -4 19 -10 19 -5
0 -7 -8 -3 -17z"/>
<path d="M2660 488 c0 -19 2 -20 10 -8 13 19 13 30 0 30 -5 0 -10 -10 -10 -22z"/>
<path d="M2720 495 c0 -9 -10 -15 -22 -16 -17 -1 -19 -2 -5 -6 22 -6 22 -14
-5 -49 -13 -17 -15 -23 -6 -16 15 12 17 9 21 -25 l4 -38 1 43 c1 29 6 42 16
42 11 0 16 -15 19 -52 l3 -53 2 53 c2 39 6 52 17 52 10 0 15 -10 15 -30 0 -16
-5 -30 -11 -30 -5 0 -7 -5 -4 -10 11 -18 23 -1 27 40 3 36 1 40 -19 40 -14 0
-23 6 -23 15 0 9 9 15 25 15 14 0 25 4 25 8 0 4 -16 6 -37 4 -30 -4 -35 -2
-30 12 4 9 2 16 -3 16 -6 0 -10 -7 -10 -15z m20 -40 c0 -8 -7 -15 -15 -15 -9
0 -12 6 -9 15 4 8 10 15 15 15 5 0 9 -7 9 -15z"/>
<path d="M2860 486 c0 -13 -6 -27 -12 -29 -10 -4 -10 -6 0 -6 16 -1 16 -71 0
-71 -6 0 -9 -3 -6 -6 4 -3 17 0 30 7 36 20 64 21 79 3 10 -12 10 -18 3 -21 -6
-2 -20 -11 -30 -19 -11 -9 -3 -7 17 4 l37 20 21 -21 21 -21 0 29 c0 23 -3 26
-10 15 -15 -23 -25 16 -12 46 7 15 8 24 2 24 -6 0 -10 -8 -11 -17 0 -15 -2
-15 -9 2 -7 17 -9 14 -9 -13 -1 -40 -21 -33 -21 7 0 25 -4 29 -39 35 -34 5
-38 8 -33 31 2 15 0 25 -7 25 -6 0 -11 -11 -11 -24z m38 -58 c-2 -13 -7 -23
-13 -23 -5 0 -11 10 -11 23 -1 13 5 22 13 22 9 0 13 -8 11 -22z m42 -3 c0 -8
-7 -15 -15 -15 -8 0 -15 7 -15 15 0 8 7 15 15 15 8 0 15 -7 15 -15z"/>
<path d="M2960 483 c0 -14 3 -23 7 -19 10 10 11 46 1 46 -4 0 -8 -12 -8 -27z"/>
<path d="M3629 475 l20 -35 -55 0 c-41 0 -53 3 -48 13 4 6 -2 3 -14 -7 -12
-11 -22 -20 -22 -21 0 -1 14 1 31 3 20 3 34 0 40 -9 6 -10 9 -11 9 -1 0 6 11
12 25 12 22 0 25 -4 25 -35 0 -22 -6 -38 -17 -44 -17 -10 -17 -10 -1 -11 17 0
24 16 30 70 2 19 8 24 23 22 16 -2 13 3 -12 23 -18 15 -33 33 -33 41 0 8 -5
14 -11 14 -6 0 -2 -15 10 -35z"/>
<path d="M3745 466 c-16 -35 -17 -41 -5 -34 16 10 43 78 31 78 -3 0 -15 -20
-26 -44z"/>
<path d="M3817 490 c4 -16 0 -20 -21 -20 -22 0 -25 -2 -14 -14 8 -8 15 -10 19
-4 4 5 19 9 35 8 43 -3 56 -1 50 9 -3 4 -17 6 -31 3 -18 -3 -25 0 -25 11 0 9
-4 18 -9 21 -5 4 -7 -3 -4 -14z"/>
<path d="M3970 502 c-32 -11 -33 -47 -2 -55 15 -4 15 -5 0 -6 -19 -1 -26 -31
-8 -31 6 0 10 -4 10 -10 0 -5 -7 -10 -16 -10 -14 0 -14 -2 1 -16 13 -14 14
-19 3 -26 -9 -7 -8 -8 5 -4 10 3 28 6 40 7 19 1 18 3 -8 15 -21 10 -24 14 -10
13 39 -2 55 1 55 12 0 7 -11 9 -30 5 -19 -3 -29 -2 -25 4 3 6 15 10 27 10 16
0 19 5 16 25 -3 14 -2 28 3 31 26 16 -26 47 -61 36z m47 -18 c-3 -3 -12 -4
-19 -1 -8 3 -5 6 6 6 11 1 17 -2 13 -5z m0 -20 c-3 -3 -12 -4 -19 -1 -8 3 -5
6 6 6 11 1 17 -2 13 -5z m0 -20 c-3 -3 -12 -4 -19 -1 -8 3 -5 6 6 6 11 1 17
-2 13 -5z m0 -20 c-3 -3 -12 -4 -19 -1 -8 3 -5 6 6 6 11 1 17 -2 13 -5z"/>
<path d="M4153 423 c0 -64 2 -72 4 -29 4 58 4 58 34 54 27 -4 29 -2 29 29 0
28 -3 33 -22 32 -17 -1 -19 -2 -5 -6 26 -7 20 -23 -9 -23 -19 0 -25 4 -20 15
3 8 2 15 -3 15 -5 0 -8 -39 -8 -87z m50 40 c-7 -2 -21 -2 -30 0 -10 3 -4 5 12
5 17 0 24 -2 18 -5z"/>
<path d="M4250 476 c0 -30 2 -33 26 -28 26 5 26 4 23 -52 -2 -31 -1 -56 4 -56
4 0 7 31 7 69 0 38 3 76 6 85 5 13 -1 16 -30 16 -34 0 -36 -2 -36 -34z m50 14
c0 -5 -9 -10 -20 -10 -11 0 -20 5 -20 10 0 6 9 10 20 10 11 0 20 -4 20 -10z
m-7 -27 c-7 -2 -19 -2 -25 0 -7 3 -2 5 12 5 14 0 19 -2 13 -5z"/>
<path d="M4368 480 c2 -16 6 -30 8 -30 2 0 4 14 4 30 0 17 -4 30 -8 30 -5 0
-7 -13 -4 -30z"/>
<path d="M4410 480 c0 -16 4 -30 8 -30 5 0 7 14 4 30 -2 17 -6 30 -8 30 -2 0
-4 -13 -4 -30z"/>
<path d="M4680 480 c0 -25 -4 -30 -24 -30 -19 0 -25 6 -28 28 -3 19 -7 10 -15
-33 -6 -33 -9 -62 -7 -64 2 -2 7 10 10 27 6 30 9 32 51 32 39 0 43 -2 34 -17
-15 -26 -55 -61 -82 -72 -13 -5 -17 -10 -9 -10 8 0 26 6 40 13 21 12 29 12 53
-1 16 -8 31 -12 34 -9 3 3 -6 10 -21 15 -31 12 -32 17 -6 59 l20 32 -21 0
c-19 0 -21 4 -15 30 3 17 1 30 -4 30 -6 0 -10 -13 -10 -30z"/>
<path d="M4811 493 c0 -15 -7 -23 -18 -23 -14 0 -15 -2 -4 -9 8 -6 11 -16 6
-31 -5 -15 -4 -20 3 -16 7 4 12 -10 15 -36 l4 -43 1 48 c2 36 5 46 15 41 7 -5
7 -1 -2 10 -13 15 -13 19 0 27 8 5 9 9 2 9 -6 0 -14 10 -16 23 l-4 22 -2 -22z"/>
<path d="M4911 498 c-1 -21 -17 -24 -24 -5 -4 10 -6 10 -6 0 -1 -7 -8 -13 -17
-13 -25 0 -15 -64 11 -67 15 -2 16 -1 5 5 -17 8 -27 52 -11 52 5 0 12 -10 14
-22 l4 -23 2 23 c0 12 6 22 12 22 6 0 9 -7 6 -15 -4 -8 -2 -17 4 -20 5 -4 7
-11 4 -16 -3 -5 0 -6 8 -3 19 7 28 64 11 64 -7 0 -15 8 -17 18 -4 16 -5 16 -6
0z m16 -60 c-3 -7 -5 -2 -5 12 0 14 2 19 5 13 2 -7 2 -19 0 -25z"/>
<path d="M4938 503 c7 -3 16 -2 19 1 4 3 -2 6 -13 5 -11 0 -14 -3 -6 -6z"/>
<path d="M5053 483 c-10 -32 -6 -73 8 -73 5 0 9 -6 9 -14 0 -10 -13 -16 -37
-19 l-38 -4 37 -1 c25 -1 38 -7 41 -19 4 -16 5 -16 6 -1 1 10 12 18 29 21 l27
4 -27 2 c-34 1 -36 18 -5 31 12 5 18 9 12 10 -5 1 1 6 15 10 24 8 24 8 3 9
-35 2 -32 41 3 41 14 0 23 4 19 10 -3 5 -13 6 -21 3 -9 -3 -20 0 -25 8 -6 10
-9 10 -9 2 0 -7 -7 -13 -16 -13 -8 0 -12 5 -9 10 3 6 2 10 -3 10 -6 0 -14 -12
-19 -27z m47 -23 c0 -11 -7 -20 -15 -20 -8 0 -15 9 -15 20 0 11 7 20 15 20 8
0 15 -9 15 -20z m-5 -40 c-3 -5 -10 -10 -16 -10 -5 0 -9 5 -9 10 0 6 7 10 16
10 8 0 12 -4 9 -10z"/>
<path d="M5254 502 c5 -8 -2 -12 -21 -13 -25 -2 -26 -2 -4 -6 27 -5 49 11 30
22 -8 5 -10 4 -5 -3z"/>
<path d="M5304 496 c-11 -6 -19 -17 -16 -24 2 -8 -8 -12 -30 -13 l-33 -2 35
-7 c38 -7 28 -16 -25 -23 -16 -2 7 -5 53 -6 45 0 82 3 82 7 0 4 -16 6 -35 4
-20 -2 -35 0 -35 6 0 6 15 13 33 15 l32 4 -32 1 c-46 3 -41 22 5 23 32 2 33 3
8 6 -22 4 -26 7 -15 14 20 13 -2 9 -27 -5z"/>
<path d="M610 468 c-28 -46 -26 -91 6 -125 22 -25 24 -25 10 -3 -21 32 -20
104 0 135 9 14 13 25 10 25 -3 0 -15 -15 -26 -32z"/>
<path d="M665 494 c-6 -2 -9 -32 -7 -69 4 -64 4 -65 33 -65 22 0 30 6 35 24 9
37 1 60 -21 65 -19 3 -20 3 -2 -17 21 -23 15 -62 -8 -62 -10 0 -14 16 -14 61
1 65 0 68 -16 63z"/>
<path d="M750 495 c1 -5 7 -19 15 -29 20 -26 19 -95 -1 -126 -14 -22 -12 -22
10 3 34 37 35 91 1 132 -14 17 -25 26 -25 20z"/>
<path d="M1674 493 c5 -9 0 -13 -16 -13 -18 0 -20 -2 -8 -10 12 -8 13 -13 3
-30 -16 -24 -16 -30 -3 -30 6 0 9 3 8 8 -6 19 25 52 48 52 14 0 23 4 19 10 -4
6 -11 8 -16 4 -5 -3 -17 0 -26 8 -12 9 -15 9 -9 1z"/>
<path d="M1830 492 c0 -6 -11 -24 -25 -40 l-24 -29 27 5 c15 3 21 7 15 9 -9 3
-8 11 4 29 8 14 13 27 9 31 -3 3 -6 1 -6 -5z"/>
<path d="M1900 470 l21 -30 -23 -1 c-17 -1 -18 -3 -5 -6 27 -7 24 -71 -5 -82
-18 -6 -19 -9 -5 -14 21 -8 37 20 37 62 0 22 5 31 16 31 13 0 11 6 -10 25 -14
13 -26 29 -26 35 0 5 -5 10 -11 10 -6 0 -1 -13 11 -30z"/>
<path d="M2457 479 c-4 -16 -3 -18 9 -8 16 13 19 29 5 29 -5 0 -11 -9 -14 -21z"/>
<path d="M2990 492 c0 -12 19 -26 26 -19 2 2 -2 10 -11 17 -9 8 -15 8 -15 2z"/>
<path d="M3310 428 l0 -73 78 1 77 0 3 72 3 72 -81 0 -80 0 0 -72z m50 34 c0
-15 -7 -39 -16 -52 -16 -24 -16 -24 1 -9 9 9 20 32 24 50 10 52 31 49 31 -5 0
-44 1 -46 28 -45 24 2 24 2 4 6 -20 4 -23 10 -20 41 2 29 7 37 23 37 17 0 20
-8 23 -57 l3 -58 -71 0 -70 0 0 53 c0 56 4 67 27 67 8 0 13 -11 13 -28z"/>
<path d="M3556 484 c-5 -14 -4 -15 9 -4 17 14 19 20 6 20 -5 0 -12 -7 -15 -16z"/>
<path d="M4442 425 c-1 -44 2 -75 8 -75 6 0 9 3 9 8 -5 31 3 42 30 42 24 0 29
5 33 30 4 28 3 30 -29 30 -26 0 -33 4 -33 20 0 11 -4 20 -8 20 -5 0 -10 -34
-10 -75z m68 5 c0 -15 -7 -20 -25 -20 -18 0 -25 5 -25 20 0 15 7 20 25 20 18
0 25 -5 25 -20z"/>
<path d="M1370 466 c0 -35 15 -40 16 -5 1 16 -3 29 -7 29 -5 0 -9 -11 -9 -24z"/>
<path d="M1499 460 c-7 -35 -4 -48 7 -38 3 4 4 21 2 40 l-3 33 -6 -35z"/>
<path d="M4047 458 c-3 -12 -3 -28 1 -35 5 -8 8 0 9 22 1 40 -2 44 -10 13z"/>
<path d="M1177 463 c-12 -11 -8 -53 5 -53 6 0 1 -12 -13 -27 -13 -14 -18 -23
-10 -18 11 6 13 4 8 -8 -3 -10 -4 -17 -1 -17 2 0 9 11 14 25 8 22 15 25 61 25
l51 0 -4 -32 c-5 -28 -4 -29 9 -13 7 11 13 27 13 37 0 15 -9 18 -52 20 -51 1
-51 2 -10 5 39 4 42 6 42 34 0 25 -4 29 -27 28 -23 0 -25 -2 -9 -8 11 -4 20
-15 22 -24 2 -14 -6 -17 -49 -16 -29 1 -42 4 -29 6 12 2 22 9 22 14 0 6 -9 7
-20 4 -11 -3 -20 -2 -20 4 0 5 10 12 23 14 20 4 20 4 1 6 -11 0 -24 -2 -27 -6z"/>
<path d="M4082 438 c-2 -18 -6 -35 -11 -38 -4 -3 -10 -15 -13 -27 -4 -15 -2
-20 7 -17 7 3 16 1 20 -5 3 -6 12 -11 18 -11 7 0 3 7 -7 15 -19 14 -19 17 -4
65 12 37 13 50 4 50 -6 0 -13 -14 -14 -32z"/>
<path d="M2642 439 c-8 -12 -9 -18 -3 -15 6 4 11 -14 13 -46 l3 -53 5 68 c3
37 3 67 0 67 -3 0 -11 -9 -18 -21z"/>
<path d="M1583 443 c9 -2 23 -2 30 0 6 3 -1 5 -18 5 -16 0 -22 -2 -12 -5z"/>
<path d="M1683 435 c-7 -8 -13 -19 -13 -24 0 -6 -10 -15 -21 -22 -17 -9 -23
-8 -30 2 -6 10 -9 6 -9 -13 0 -19 -5 -28 -16 -28 -12 0 -15 6 -10 25 4 14 2
25 -4 25 -5 0 -10 -13 -10 -30 0 -25 4 -30 25 -30 15 0 25 6 25 14 0 8 9 17
19 21 19 6 79 75 64 75 -4 -1 -14 -7 -20 -15z"/>
<path d="M4390 405 l-3 -50 -7 40 c-7 37 -7 38 -9 8 0 -17 -4 -38 -7 -47 -5
-14 -2 -14 27 -4 19 6 28 13 21 16 -18 6 -14 40 6 45 15 4 15 5 0 6 -9 0 -19
9 -21 19 -3 9 -6 -5 -7 -33z"/>
<path d="M5487 444 c-14 -15 -6 -34 14 -34 14 0 19 5 17 17 -3 18 -20 27 -31
17z m23 -14 c0 -5 -4 -10 -10 -10 -5 0 -10 5 -10 10 0 6 5 10 10 10 6 0 10 -4
10 -10z"/>
<path d="M1847 433 c-4 -3 -7 -14 -7 -24 0 -10 -12 -32 -27 -51 -22 -27 -23
-29 -4 -13 24 21 65 95 52 95 -4 0 -11 -3 -14 -7z"/>
<path d="M3140 425 c7 -9 15 -13 17 -11 7 7 -7 26 -19 26 -6 0 -6 -6 2 -15z"/>
<path d="M3845 410 c-4 -17 -5 -34 -2 -36 3 -3 8 9 12 26 4 17 5 34 2 36 -3 3
-8 -9 -12 -26z"/>
<path d="M5010 420 c-14 -11 -20 -20 -14 -20 6 0 19 9 29 20 23 25 17 25 -15
0z"/>
<path d="M2321 413 c7 -12 15 -20 18 -17 3 2 -3 12 -13 22 -17 16 -18 16 -5
-5z"/>
<path d="M4195 395 c0 -34 1 -35 38 -35 36 0 37 1 37 35 0 34 -1 35 -37 35
-37 0 -38 -1 -38 -35z m65 15 c0 -5 -11 -10 -25 -10 -14 0 -25 5 -25 10 0 6
11 10 25 10 14 0 25 -4 25 -10z m0 -30 c0 -5 -11 -10 -25 -10 -14 0 -25 5 -25
10 0 6 11 10 25 10 14 0 25 -4 25 -10z"/>
<path d="M4640 421 c0 -6 4 -13 10 -16 6 -3 7 1 4 9 -7 18 -14 21 -14 7z"/>
<path d="M1672 373 c-41 -42 -40 -50 1 -14 18 15 20 14 38 -8 10 -13 19 -19
19 -13 0 5 -7 15 -15 22 -19 16 -19 25 1 44 8 9 12 16 7 15 -4 0 -28 -21 -51
-46z"/>
<path d="M3801 388 c-1 -26 -6 -38 -18 -41 -10 -3 12 -5 50 -6 37 0 67 3 67 7
0 5 -19 8 -42 8 -41 -1 -43 0 -49 34 l-6 35 -2 -37z"/>
<path d="M5138 413 c7 -3 16 -2 19 1 4 3 -2 6 -13 5 -11 0 -14 -3 -6 -6z"/>
<path d="M4885 400 c-33 -4 -46 -7 -28 -8 26 -2 32 -7 36 -29 l4 -28 2 28 c1
23 5 27 31 27 17 0 30 5 30 10 0 6 -3 9 -7 8 -5 -1 -35 -4 -68 -8z"/>
<path d="M5227 377 l-17 -32 20 24 c17 20 26 41 18 41 -2 0 -11 -15 -21 -33z"/>
<path d="M5300 399 c-25 -3 -35 -7 -22 -7 37 -3 29 -40 -10 -45 -18 -2 -3 -5
35 -5 37 -1 67 2 67 6 0 5 -13 7 -30 4 -25 -4 -30 -1 -30 16 0 15 7 22 28 24
15 2 23 5 17 8 -5 3 -30 3 -55 -1z"/>
<path d="M3548 368 c-15 -15 -23 -28 -19 -28 9 0 56 49 50 53 -2 1 -16 -10
-31 -25z"/>
<path d="M2011 374 c0 -11 3 -14 6 -6 3 7 2 16 -1 19 -3 4 -6 -2 -5 -13z"/>
<path d="M1200 375 c0 -5 5 -17 10 -25 5 -8 10 -10 10 -5 0 6 -5 17 -10 25 -5
8 -10 11 -10 5z"/>
<path d="M2540 366 c0 -8 -8 -17 -17 -19 -14 -4 -12 -5 5 -6 16 -1 22 5 22 19
0 11 -2 20 -5 20 -3 0 -5 -6 -5 -14z"/>
<path d="M2908 373 c-10 -2 -18 -9 -18 -14 0 -6 10 -5 23 2 37 20 36 23 -5 12z"/>
<path d="M4844 358 l-19 -23 23 19 c12 11 22 21 22 23 0 8 -8 2 -26 -19z"/>
<path d="M4920 376 c0 -2 8 -10 18 -17 15 -13 16 -12 3 4 -13 16 -21 21 -21
13z"/>
<path d="M3751 354 c0 -11 3 -14 6 -6 3 7 2 16 -1 19 -3 4 -6 -2 -5 -13z"/>
<path d="M4579 353 c-13 -16 -12 -17 4 -4 16 13 21 21 13 21 -2 0 -10 -8 -17
-17z"/>
<path d="M2010 339 c0 -5 5 -7 10 -4 6 3 10 8 10 11 0 2 -4 4 -10 4 -5 0 -10
-5 -10 -11z"/>
<path d="M8525 270 c4 -6 11 -8 16 -5 14 9 11 15 -7 15 -8 0 -12 -5 -9 -10z"/>
<path d="M8237 253 c-34 -38 -29 -122 9 -153 12 -11 12 -8 -1 16 -19 38 -19
104 1 132 18 26 13 29 -9 5z"/>
<path d="M8300 251 c-15 -28 -13 -38 10 -44 11 -3 23 -12 26 -21 9 -23 -15
-48 -37 -41 -11 4 -19 2 -19 -4 0 -6 7 -11 16 -11 56 0 77 70 28 93 l-27 12
23 5 c30 7 38 30 11 30 -11 0 -25 -9 -31 -19z"/>
<path d="M8453 232 l-21 -38 29 4 c39 6 38 -17 -3 -65 -18 -20 -26 -33 -18
-28 32 18 49 38 55 66 5 22 12 29 31 29 23 0 25 -3 22 -37 -2 -29 -7 -38 -21
-37 -14 2 -15 -1 -6 -12 18 -22 37 1 41 49 2 34 7 41 21 39 24 -4 21 1 -15 28
-18 12 -27 17 -20 9 22 -23 13 -29 -44 -29 l-55 0 21 30 c12 17 18 30 13 30
-4 0 -18 -17 -30 -38z"/>
<path d="M8643 252 c22 -25 23 -109 1 -142 l-17 -25 22 21 c30 28 38 91 17
132 -9 18 -22 32 -28 32 -6 0 -4 -8 5 -18z"/>
</g>
</svg>
