<?xml version="1.0" standalone="no"?>
<!DOCTYPE svg PUBLIC "-//W3C//DTD SVG 20010904//EN"
 "http://www.w3.org/TR/2001/REC-SVG-20010904/DTD/svg10.dtd">
<svg version="1.0" xmlns="http://www.w3.org/2000/svg"
 width="1395.000000pt" height="312.000000pt" viewBox="0 0 1395.000000 312.000000"
 preserveAspectRatio="xMidYMid meet">
<metadata>
Created by potrace 1.16, written by Peter Selinger 2001-2019
</metadata>
<g transform="translate(0.000000,312.000000) scale(0.100000,-0.100000)"
fill="#000000" stroke="none">
<path d="M2612 3008 c-17 -17 -15 -33 3 -18 8 7 22 10 30 6 24 -9 17 -49 -15
-83 -17 -18 -30 -34 -30 -37 0 -11 79 -6 85 5 11 16 -1 22 -23 10 -30 -16 -33
-2 -7 34 30 38 32 71 6 85 -25 13 -34 13 -49 -2z"/>
<path d="M4317 3004 c-15 -15 -6 -24 12 -14 26 14 29 13 41 -9 8 -16 3 -28
-26 -66 -19 -26 -34 -48 -32 -49 2 -2 22 -1 46 2 45 4 59 22 16 22 l-25 0 21
30 c13 18 20 41 18 57 -2 23 -9 29 -33 31 -17 2 -34 0 -38 -4z"/>
<path d="M965 2950 c5 -16 2 -20 -14 -20 -12 0 -21 -4 -21 -10 0 -5 25 -10 56
-10 40 0 54 3 51 13 -2 6 -11 11 -20 9 -9 -1 -21 7 -27 18 -14 26 -33 26 -25
0z"/>
<path d="M1108 2962 c-32 -3 -38 -7 -38 -25 0 -13 -7 -33 -16 -45 -9 -13 -14
-26 -11 -29 11 -11 27 9 37 47 8 29 16 40 30 40 16 0 20 -7 20 -33 0 -18 5
-38 12 -45 15 -15 58 -16 58 -2 0 6 -11 10 -24 10 -22 0 -25 5 -28 43 l-3 42
-37 -3z"/>
<path d="M1870 2954 c0 -6 8 -19 19 -28 10 -9 24 -38 32 -63 15 -54 2 -119
-32 -166 l-21 -29 21 12 c49 25 79 112 61 175 -11 39 -80 124 -80 99z"/>
<path d="M5510 2935 c0 -25 -3 -27 -30 -23 -16 3 -30 1 -30 -4 0 -4 15 -8 33
-8 l33 0 -2 -57 c-1 -32 -2 -62 -3 -67 -1 -4 -17 -6 -36 -4 -19 2 -35 0 -35
-4 0 -4 66 -8 147 -8 135 0 146 1 131 16 -13 13 -19 14 -37 2 -18 -11 -23 -11
-30 1 -5 8 -8 26 -6 40 2 14 4 38 4 54 1 23 5 27 31 27 30 0 40 13 19 26 -6 3
-16 1 -22 -5 -19 -19 -29 -12 -23 14 5 18 2 25 -9 25 -9 0 -15 -9 -15 -25 0
-23 -4 -25 -46 -25 -41 0 -45 2 -42 22 2 15 -3 24 -14 26 -14 3 -18 -3 -18
-23z m120 -50 c0 -11 -12 -15 -50 -15 -38 0 -50 4 -50 15 0 11 12 15 50 15 38
0 50 -4 50 -15z m-2 -48 c3 -14 -5 -17 -47 -17 -36 0 -51 4 -51 13 0 22 9 25
53 23 30 -2 43 -7 45 -19z m1 -43 c12 -10 -16 -24 -49 -24 -38 0 -56 12 -46
29 5 8 84 4 95 -5z"/>
<path d="M5910 2929 c0 -30 0 -30 -51 -28 l-51 3 -4 -61 -3 -61 55 5 54 6 2
-59 1 -59 6 55 6 55 55 3 55 3 -1 56 0 57 -53 -3 -54 -3 6 31 c5 23 3 31 -8
31 -10 0 -15 -10 -15 -31z m0 -84 l0 -45 -45 0 -45 0 0 38 c0 48 4 52 52 52
l38 0 0 -45z m108 -2 l3 -43 -50 0 -51 0 0 38 c0 49 5 54 55 50 39 -3 40 -4
43 -45z"/>
<path d="M6656 2944 c-3 -9 -6 -25 -6 -37 0 -35 -31 -109 -68 -159 -18 -27
-29 -48 -22 -48 6 0 23 20 38 45 l27 44 88 1 87 0 0 -32 c0 -48 -13 -62 -46
-54 -27 6 -28 5 -10 -9 11 -8 26 -15 33 -15 19 0 40 39 47 87 5 38 4 41 -14
36 -17 -5 -20 0 -20 26 0 24 -4 31 -20 31 -21 0 -27 15 -10 25 20 12 -2 25
-41 25 -24 0 -38 -4 -34 -10 3 -5 18 -10 31 -10 41 0 22 -25 -21 -28 -41 -4
-39 -10 -20 71 8 29 -8 39 -19 11z m109 -119 c0 -17 -8 -20 -62 -23 -36 -2
-63 1 -63 7 0 30 13 37 68 36 50 0 57 -3 57 -20z"/>
<path d="M7317 2953 c-4 -3 -7 -17 -7 -30 0 -21 -4 -23 -47 -23 -25 0 -43 -3
-39 -7 4 -4 23 -6 43 -4 37 3 55 -11 46 -36 -3 -8 -21 -13 -44 -13 -21 0 -39
-5 -39 -10 0 -6 15 -8 40 -4 35 6 40 4 40 -13 0 -21 -36 -43 -70 -43 -11 0
-20 -7 -20 -15 0 -20 8 -19 48 5 18 11 35 20 37 20 15 0 1 -34 -26 -65 -19
-21 -26 -35 -17 -35 39 0 65 70 70 193 4 81 1 97 -15 80z"/>
<path d="M7387 2893 c-10 -104 -8 -223 3 -223 6 0 10 20 10 45 l0 45 50 0 c28
0 50 4 50 9 0 14 -23 19 -45 10 -41 -16 -55 -11 -55 22 0 25 4 30 23 29 44 -4
68 0 62 10 -4 6 -23 7 -46 4 -37 -6 -39 -5 -39 20 0 25 3 26 53 26 33 0 47 3
38 9 -7 5 -31 6 -52 4 -31 -5 -39 -2 -39 10 0 8 5 17 12 19 6 2 8 10 4 16 -15
25 -23 10 -29 -55z"/>
<path d="M8343 2948 c5 -16 0 -18 -40 -18 -32 0 -50 -5 -59 -17 -20 -27 -17
-39 5 -19 16 15 37 17 132 15 80 -2 114 1 117 9 2 8 -15 12 -59 12 -45 0 -68
5 -82 18 -19 16 -20 16 -14 0z"/>
<path d="M8690 2931 c0 -24 -4 -31 -20 -31 -11 0 -20 6 -20 14 0 18 -28 41
-38 31 -4 -4 -1 -10 6 -12 6 -3 12 -12 12 -20 0 -11 -7 -14 -23 -9 -19 4 -25
0 -34 -24 -13 -34 0 -41 17 -10 10 18 22 20 113 21 59 1 91 4 77 8 l-25 7 23
13 c12 6 20 16 17 22 -11 16 -25 10 -37 -16 -16 -35 -50 -34 -46 1 2 15 -3 29
-9 31 -9 3 -13 -6 -13 -26z"/>
<path d="M118 2942 c-15 -3 -16 -7 -7 -24 7 -13 10 -52 7 -98 -4 -64 -2 -76
11 -77 14 -1 16 11 13 80 -4 120 -5 123 -24 119z"/>
<path d="M284 2940 c-82 -33 -89 -200 -9 -200 54 0 78 95 31 125 -13 9 -31 13
-41 9 -17 -7 -17 -6 0 20 10 15 30 33 44 41 28 15 9 19 -25 5z m17 -107 c14
-37 4 -73 -21 -73 -29 0 -47 42 -32 75 15 33 40 32 53 -2z"/>
<path d="M1651 2924 c-31 -36 -43 -80 -35 -134 7 -49 36 -105 59 -114 21 -8
19 4 -5 29 -30 32 -38 133 -15 185 10 22 22 40 27 40 4 0 8 5 8 10 0 17 -16
11 -39 -16z"/>
<path d="M3314 2933 c3 -10 -7 -60 -23 -110 -22 -69 -26 -93 -16 -93 8 0 19
16 25 35 13 40 25 39 33 -5 4 -16 12 -30 20 -30 15 0 37 20 37 34 0 6 -5 5
-12 -2 -9 -9 -15 -5 -25 19 -15 36 -12 44 31 70 l31 19 -33 0 c-18 0 -31 -4
-28 -9 3 -4 -3 -16 -14 -26 -17 -16 -20 -16 -20 -2 0 9 4 26 9 39 4 13 11 35
15 51 5 23 3 27 -14 27 -16 0 -20 -5 -16 -17z"/>
<path d="M4064 2935 c-87 -36 -113 -182 -36 -202 48 -12 94 44 76 94 -8 23
-17 29 -49 33 l-40 5 30 31 c17 17 37 33 45 36 8 3 13 8 10 11 -3 3 -19 -1
-36 -8z m6 -104 c14 -27 13 -54 -3 -76 -13 -17 -15 -17 -35 3 -21 21 -30 71
-15 85 13 14 43 7 53 -12z"/>
<path d="M4185 2942 c-5 -4 -11 -25 -12 -47 -2 -21 -12 -66 -23 -98 -12 -33
-19 -62 -16 -64 10 -10 25 8 31 37 8 39 22 38 30 -1 4 -17 13 -33 21 -36 15
-6 44 13 44 29 0 6 -7 5 -15 -2 -19 -16 -21 -14 -29 26 -6 28 -3 35 26 58 l33
26 -26 0 c-18 0 -29 -8 -37 -25 -6 -14 -16 -25 -22 -25 -11 0 -6 29 16 93 13
37 5 49 -21 29z"/>
<path d="M6608 2938 c18 -18 15 -28 -8 -28 -11 0 -20 -4 -20 -10 0 -11 17 -12
41 -2 12 5 14 13 8 30 -5 12 -14 22 -21 22 -9 0 -9 -3 0 -12z"/>
<path d="M7685 2940 c-55 -3 -79 -7 -52 -8 l47 -2 0 -48 c0 -52 -18 -73 -87
-101 -18 -8 -33 -17 -33 -22 0 -5 12 -3 28 5 15 7 54 14 87 16 78 2 74 2 120
-5 l40 -6 -50 20 c-63 26 -85 52 -85 102 l0 39 50 0 c28 0 50 5 50 10 0 6 -3
9 -7 8 -5 -1 -53 -5 -108 -8z m35 -130 l23 -20 -43 0 c-42 0 -43 0 -25 20 10
11 19 20 20 20 1 0 12 -9 25 -20z"/>
<path d="M7940 2930 c0 -12 -9 -24 -20 -28 -19 -7 -21 -19 -26 -105 -5 -91 2
-118 22 -86 4 7 22 9 44 6 l37 -5 2 55 c1 31 8 62 16 69 7 8 17 23 20 34 5 17
15 20 57 20 l51 0 -7 -87 c-4 -48 -10 -91 -13 -96 -3 -5 -18 -6 -34 -3 -16 3
-29 1 -29 -3 0 -11 56 -25 69 -17 9 6 28 109 33 181 l3 39 -50 2 c-68 2 -69 2
-55 19 7 9 10 18 7 21 -11 12 -25 -6 -37 -51 -15 -55 -30 -67 -30 -25 0 27 -2
30 -25 24 -21 -5 -25 -3 -25 15 0 12 5 21 10 21 6 0 10 5 10 10 0 6 -7 10 -15
10 -8 0 -15 -9 -15 -20z m40 -81 c0 -28 -2 -30 -32 -27 -22 2 -32 9 -34 22 -4
29 4 36 37 36 26 0 29 -3 29 -31z m0 -84 c0 -32 -2 -35 -29 -35 -35 0 -45 12
-37 46 5 19 13 24 36 24 28 0 30 -3 30 -35z"/>
<path d="M8970 2939 c0 -7 -11 -9 -29 -6 -25 5 -30 3 -33 -16 -2 -12 -2 -32 0
-44 6 -30 30 -18 26 13 -1 15 4 28 12 31 21 8 32 -6 14 -17 -10 -7 -11 -10 -2
-10 6 0 12 -11 12 -25 0 -21 -5 -25 -30 -25 -27 0 -30 -3 -30 -31 0 -20 4 -29
12 -27 7 3 13 13 13 24 0 10 8 20 19 22 16 3 18 0 12 -24 -9 -35 -24 -45 -53
-37 -14 3 -23 1 -23 -6 0 -6 9 -11 20 -11 11 0 20 -6 20 -14 0 -8 8 -17 17
-20 21 -8 5 -26 -26 -29 -11 -1 -21 -5 -21 -9 0 -9 45 0 73 14 10 5 24 5 36
-2 29 -15 55 -12 83 10 25 19 26 19 43 0 17 -18 45 -27 45 -15 0 3 -11 16 -25
28 l-24 22 16 60 c9 33 23 64 30 68 24 15 4 25 -37 20 -36 -5 -40 -4 -34 13 4
11 11 24 16 30 5 7 3 14 -5 17 -9 3 -20 -14 -34 -59 -12 -35 -18 -64 -14 -64
8 0 31 -60 31 -81 0 -8 -11 -22 -24 -31 -21 -15 -28 -16 -49 -5 -20 10 -23 17
-15 30 5 9 20 17 33 17 14 0 25 5 25 10 0 12 -50 13 -65 2 -5 -4 -10 -14 -10
-22 0 -8 -10 -16 -22 -18 -25 -4 -31 12 -10 25 17 10 31 43 28 66 -2 13 3 18
16 15 10 -2 17 -11 17 -21 -1 -9 3 -17 10 -17 6 0 13 11 14 25 1 21 -2 25 -27
25 -26 0 -29 3 -27 33 2 32 6 37 26 37 13 0 9 -32 -5 -42 -6 -5 -5 -8 3 -8 6
0 21 9 32 20 11 11 16 20 10 20 -5 0 -10 7 -10 15 0 10 -10 15 -30 15 -16 0
-30 5 -30 10 0 6 -4 10 -10 10 -5 0 -10 -5 -10 -11z m170 -103 c0 -55 -24 -87
-36 -48 -3 9 -10 26 -16 36 -8 15 -7 22 7 32 23 17 45 7 45 -20z"/>
<path d="M2300 2925 c-18 -21 -6 -29 19 -13 17 11 23 10 36 -3 19 -19 11 -43
-18 -57 -22 -10 -22 -10 6 -21 21 -8 27 -17 27 -40 0 -34 -22 -46 -64 -35 -28
7 -37 -10 -10 -20 64 -24 139 62 90 103 -11 9 -12 18 -3 40 15 41 4 61 -36 61
-19 0 -40 -7 -47 -15z"/>
<path d="M3001 2931 c-9 -6 -10 -11 -2 -15 14 -9 15 -158 0 -173 -8 -8 -1 -11
26 -11 26 0 33 3 24 9 -11 6 -13 31 -12 104 2 97 -2 107 -36 86z"/>
<path d="M3120 2918 c-25 -28 -19 -34 13 -13 31 20 67 6 67 -25 0 -27 -35 -81
-70 -109 -16 -13 -30 -26 -30 -30 0 -10 113 -1 124 10 5 5 7 12 3 16 -4 4 -13
1 -19 -5 -16 -16 -58 -15 -58 1 0 7 9 18 20 25 24 15 58 81 54 105 -7 49 -68
64 -104 25z"/>
<path d="M3870 2929 c-11 -8 -12 -12 -2 -16 8 -3 12 -31 12 -89 0 -54 -4 -83
-10 -79 -5 3 -10 2 -10 -3 0 -6 17 -10 38 -10 20 0 31 3 25 5 -9 3 -13 34 -13
104 0 102 -5 113 -40 88z"/>
<path d="M4713 2928 c-19 -24 -20 -43 -5 -70 14 -25 14 -29 -1 -46 -35 -39
-15 -82 38 -82 53 0 72 42 39 88 -14 20 -14 24 0 44 9 12 16 30 16 40 0 32
-67 52 -87 26z m52 -18 c7 -24 -2 -60 -16 -60 -17 0 -31 51 -18 66 16 19 27
17 34 -6z m-1 -123 c7 -19 6 -31 -1 -38 -19 -19 -43 -2 -43 29 0 50 28 56 44
9z"/>
<path d="M6304 2922 c4 -10 -5 -58 -19 -106 -29 -99 -28 -96 -15 -96 5 0 13
14 18 32 11 44 30 46 38 4 7 -40 22 -45 48 -17 17 19 17 19 -3 14 -14 -3 -21
-1 -21 8 0 8 -3 24 -6 36 -5 17 1 26 27 42 30 19 32 21 11 21 -13 0 -34 -12
-47 -27 -31 -35 -32 -17 -5 55 l20 52 -26 0 c-20 0 -24 -4 -20 -18z"/>
<path d="M7566 2894 c-9 -36 1 -43 14 -10 12 33 12 36 1 36 -5 0 -12 -12 -15
-26z"/>
<path d="M7800 2899 c0 -18 2 -19 15 -9 8 7 15 16 15 21 0 5 -7 9 -15 9 -9 0
-15 -9 -15 -21z"/>
<path d="M2818 2863 c-3 -35 -6 -39 -38 -44 l-35 -6 38 -2 c36 -1 37 -2 37
-41 0 -51 18 -53 22 -2 3 35 5 37 36 34 17 -1 32 2 32 8 0 5 -9 11 -20 11 -11
1 -26 2 -32 3 -7 0 -14 18 -16 39 -2 20 -7 37 -12 37 -5 0 -10 -17 -12 -37z"/>
<path d="M8277 2872 c-10 -55 -2 -155 12 -160 10 -3 12 6 10 42 l-4 46 67 0
c66 0 66 0 63 -27 -1 -15 1 -37 6 -48 8 -20 10 1 13 100 1 25 6 31 29 33 15 2
27 8 27 13 0 7 -12 8 -30 4 -23 -5 -29 -3 -25 7 5 11 -11 15 -79 16 l-85 1 -4
-27z m73 -7 c0 -20 -5 -25 -25 -25 -25 0 -36 19 -12 21 9 0 9 2 -1 6 -17 7 -5
23 19 23 14 0 19 -7 19 -25z m75 0 c0 -14 -8 -21 -26 -23 -22 -3 -25 1 -23 20
1 13 3 24 3 26 1 2 11 2 24 0 14 -2 22 -10 22 -23z m0 -45 c4 -6 -20 -10 -64
-10 -41 0 -71 4 -71 10 0 6 28 10 64 10 36 0 68 -4 71 -10z"/>
<path d="M8820 2889 c0 -5 5 -7 10 -4 6 3 10 8 10 11 0 2 -4 4 -10 4 -5 0 -10
-5 -10 -11z"/>
<path d="M940 2880 c0 -5 20 -10 45 -10 25 0 45 5 45 10 0 6 -20 10 -45 10
-25 0 -45 -4 -45 -10z"/>
<path d="M3698 2858 c-3 -29 -7 -33 -35 -36 -18 -2 -33 -8 -33 -14 0 -6 12 -8
30 -4 17 3 31 1 31 -4 1 -6 3 -14 4 -20 1 -5 3 -19 4 -31 0 -11 5 -18 9 -15 5
3 7 19 4 36 -4 29 -3 30 32 30 45 0 48 18 4 22 -30 3 -33 6 -32 36 1 17 -2 32
-6 32 -5 0 -10 -15 -12 -32z"/>
<path d="M4530 2855 c0 -33 -2 -35 -35 -35 -19 0 -35 -4 -35 -10 0 -5 16 -10
35 -10 33 0 35 -2 35 -35 0 -19 5 -35 10 -35 6 0 10 16 10 35 0 33 2 35 35 35
19 0 35 5 35 10 0 6 -16 10 -35 10 -33 0 -35 2 -35 35 0 19 -4 35 -10 35 -5 0
-10 -16 -10 -35z"/>
<path d="M7601 2886 c12 -10 60 -16 54 -6 -3 5 -18 10 -32 10 -15 0 -24 -2
-22 -4z"/>
<path d="M7743 2883 c-21 -8 -15 -40 10 -47 31 -8 37 -7 37 4 0 6 -9 10 -19
10 -11 0 -23 5 -26 10 -3 6 3 10 14 10 12 0 21 5 21 10 0 10 -16 12 -37 3z"/>
<path d="M1468 2855 c-8 -19 -8 -31 0 -50 6 -13 7 -27 3 -30 -5 -3 -7 -14 -4
-24 3 -10 0 -22 -6 -25 -6 -4 -11 -16 -11 -26 0 -25 59 -37 100 -20 23 10 30
19 30 40 0 31 -15 40 -66 40 -19 0 -34 5 -34 10 0 6 13 10 28 10 36 0 52 16
52 52 0 15 5 28 10 28 6 0 10 5 10 10 0 6 -23 10 -50 10 -44 0 -52 -3 -62 -25z
m66 -8 c8 -12 8 -22 0 -34 -16 -25 -38 -22 -42 5 -7 50 18 67 42 29z m25 -116
c23 -15 -5 -41 -45 -41 -35 0 -49 12 -40 35 6 17 62 20 85 6z"/>
<path d="M1740 2871 c0 -5 6 -11 14 -14 7 -3 16 -18 20 -32 8 -32 -16 -65 -46
-65 -11 0 -16 -4 -13 -10 11 -17 43 -11 50 10 3 11 10 20 15 20 4 0 10 -9 13
-20 6 -24 30 -26 48 -4 11 14 10 15 -7 12 -16 -3 -19 3 -19 37 0 34 3 40 23
43 12 2 22 10 22 18 0 22 -28 17 -41 -8 l-12 -22 -15 22 c-14 21 -52 31 -52
13z"/>
<path d="M2460 2864 c0 -8 4 -12 10 -9 14 8 25 -45 13 -64 -5 -9 -19 -20 -31
-26 -12 -5 -22 -13 -22 -17 0 -16 30 -8 49 13 l19 21 7 -22 c7 -24 45 -25 53
-1 3 9 -1 11 -16 7 -16 -5 -20 -1 -24 23 -5 33 11 61 36 61 9 0 16 7 16 15 0
20 -10 19 -36 -6 l-22 -21 -11 21 c-14 24 -41 28 -41 5z"/>
<path d="M8795 2870 c-3 -5 -1 -10 4 -10 6 0 11 5 11 10 0 6 -2 10 -4 10 -3 0
-8 -4 -11 -10z"/>
<path d="M3448 2850 c32 -30 29 -65 -8 -82 -16 -7 -30 -19 -30 -25 0 -20 28
-15 42 7 15 24 28 26 28 4 0 -20 51 -15 58 6 4 12 3 13 -10 2 -13 -10 -17 -10
-22 4 -16 42 7 96 34 79 5 -3 10 1 10 9 0 20 -24 21 -40 1 -7 -8 -16 -15 -21
-15 -5 0 -9 7 -9 15 0 10 -10 15 -27 15 l-27 0 22 -20z"/>
<path d="M8225 2860 c3 -5 12 -7 20 -3 21 7 19 13 -6 13 -11 0 -18 -4 -14 -10z"/>
<path d="M8630 2835 c0 -32 2 -35 31 -35 20 0 29 -4 26 -12 -2 -8 -20 -12 -46
-11 l-41 2 0 -51 c0 -28 3 -48 7 -44 4 4 7 21 8 39 0 30 3 32 38 35 l37 3 0
-45 c0 -25 5 -46 10 -46 6 0 10 20 10 45 0 45 0 45 34 45 19 0 37 -4 40 -9 11
-17 -6 -41 -27 -41 -21 0 -21 0 2 -16 28 -20 37 -11 44 43 l5 42 -46 -2 c-29
-1 -47 2 -49 11 -3 8 6 12 26 12 29 0 31 3 31 35 l0 35 -70 0 -70 0 0 -35z
m108 16 c6 -1 12 -8 12 -16 0 -12 -13 -15 -55 -15 -41 0 -55 4 -55 14 0 15 28
23 65 20 11 -1 26 -3 33 -3z"/>
<path d="M2050 2849 c0 -5 34 -9 75 -9 41 0 75 4 75 9 0 5 -34 9 -75 9 -41 -1
-75 -5 -75 -9z"/>
<path d="M5100 2851 c0 -5 7 -14 15 -21 11 -9 13 -16 5 -24 -16 -16 -12 -30 5
-16 8 7 15 25 15 41 0 22 -5 29 -20 29 -11 0 -20 -4 -20 -9z"/>
<path d="M7618 2853 c-16 -2 -28 -9 -28 -14 0 -14 34 -11 56 6 10 8 15 14 9
13 -5 0 -22 -3 -37 -5z"/>
<path d="M940 2840 c0 -5 20 -10 45 -10 25 0 45 5 45 10 0 6 -20 10 -45 10
-25 0 -45 -4 -45 -10z"/>
<path d="M9350 2835 c-19 -23 -8 -50 23 -53 15 -2 28 1 28 7 1 6 2 17 3 24 5
32 -32 48 -54 22z m38 -22 c-5 -25 -28 -28 -28 -4 0 12 6 21 16 21 9 0 14 -7
12 -17z"/>
<path d="M1050 2833 c0 -3 11 -25 25 -49 l25 -43 -40 -17 c-22 -10 -40 -21
-40 -26 0 -8 35 3 71 22 14 8 27 7 48 -5 17 -8 37 -15 46 -15 21 0 19 20 -2
20 -10 0 -27 7 -37 15 -19 15 -19 16 2 54 12 21 22 41 22 45 0 3 -27 6 -60 6
-33 0 -60 -3 -60 -7z m90 -18 c0 -6 -7 -20 -15 -31 -15 -19 -15 -19 -35 5 -11
12 -18 26 -16 30 7 11 66 8 66 -4z"/>
<path d="M7005 2830 l-130 -6 143 -2 c93 -1 141 1 137 8 -3 6 -9 9 -13 8 -4
-1 -65 -5 -137 -8z"/>
<path d="M8050 2832 c0 -6 11 -24 25 -39 17 -20 24 -23 25 -12 0 8 -11 26 -25
39 -14 13 -25 18 -25 12z"/>
<path d="M940 2754 c0 -38 3 -45 16 -40 9 3 28 6 43 6 25 0 27 3 26 40 l0 40
-42 0 -43 0 0 -46z m60 6 c0 -23 -4 -30 -20 -30 -16 0 -20 7 -20 30 0 23 4 30
20 30 16 0 20 -7 20 -30z"/>
<path d="M2050 2790 c0 -6 32 -10 75 -10 43 0 75 4 75 10 0 6 -32 10 -75 10
-43 0 -75 -4 -75 -10z"/>
<path d="M8333 2783 c9 -2 23 -2 30 0 6 3 -1 5 -18 5 -16 0 -22 -2 -12 -5z"/>
<path d="M385 2770 c-4 -6 -3 -16 3 -22 6 -6 12 -6 17 2 4 6 3 16 -3 22 -6 6
-12 6 -17 -2z"/>
<path d="M6664 2748 c3 -13 6 -27 6 -33 0 -5 4 -4 9 4 10 16 3 51 -11 51 -6 0
-8 -10 -4 -22z"/>
<path d="M6710 2761 c0 -17 12 -41 20 -41 10 0 1 38 -11 46 -5 3 -9 1 -9 -5z"/>
<path d="M6760 2763 c0 -4 5 -15 10 -23 8 -13 10 -13 10 2 0 9 -4 20 -10 23
-5 3 -10 3 -10 -2z"/>
<path d="M6618 2730 c-9 -17 -13 -30 -8 -30 11 0 32 38 28 50 -2 5 -11 -4 -20
-20z"/>
<path d="M7615 2750 c-23 -5 -16 -7 32 -8 35 0 65 4 68 9 7 10 -56 10 -100 -1z"/>
<path d="M7747 2752 c-9 -2 -15 -7 -12 -12 9 -14 -34 -32 -58 -24 -20 5 -20 5
-7 -9 8 -9 29 -19 45 -22 24 -5 27 -4 15 5 -13 10 -13 13 3 23 43 28 50 34 41
39 -5 2 -17 3 -27 0z"/>
<path d="M8312 2755 c10 -10 88 -14 88 -4 0 5 -21 9 -47 9 -25 0 -44 -2 -41
-5z"/>
<path d="M5535 2741 c-3 -6 -24 -21 -47 -32 -22 -11 -37 -23 -34 -27 5 -5 67
22 105 46 3 1 0 7 -6 13 -8 8 -13 8 -18 0z"/>
<path d="M5611 2736 c16 -17 82 -56 86 -52 9 9 -50 56 -70 56 -11 0 -18 -2
-16 -4z"/>
<path d="M8310 2709 c-5 -9 -24 -20 -42 -24 -21 -5 -27 -9 -17 -12 10 -2 38 6
64 18 36 17 51 19 68 12 32 -15 77 -33 82 -33 3 0 5 4 5 9 0 5 -12 12 -27 16
-15 3 -31 11 -34 17 -4 5 -25 11 -48 12 -31 2 -45 -2 -51 -15z"/>
<path d="M1895 2151 c-6 -6 -27 -12 -47 -14 -48 -5 -62 -17 -20 -17 28 0 32
-4 32 -25 0 -24 -2 -25 -35 -19 -23 4 -35 2 -35 -5 0 -6 14 -11 30 -11 17 0
30 -5 30 -11 0 -6 -13 -31 -30 -56 -40 -59 -37 -67 5 -18 l35 40 0 -69 c0 -38
3 -66 7 -62 5 4 6 36 5 72 -2 35 0 64 4 64 4 0 18 -10 31 -22 17 -16 23 -18
23 -7 0 8 -14 23 -30 33 -37 21 -31 36 16 36 19 0 34 4 34 9 0 14 -25 20 -41
10 -21 -13 -26 -11 -32 10 -6 25 3 37 36 45 15 4 25 11 22 16 -8 13 -28 13
-40 1z"/>
<path d="M2038 2038 l-3 -123 -27 0 c-16 1 -28 -2 -28 -6 0 -8 52 -19 62 -12
5 2 8 58 8 124 0 73 4 119 10 119 6 0 10 5 10 10 0 6 -7 10 -15 10 -12 0 -15
-23 -17 -122z"/>
<path d="M2160 2153 c-1 -101 -13 -209 -26 -234 -8 -17 -13 -33 -11 -36 9 -8
35 41 41 80 7 35 9 37 46 37 l40 0 0 -49 c0 -28 5 -53 10 -56 6 -4 10 15 10
49 l0 56 40 0 40 0 0 -46 c0 -44 -1 -46 -25 -40 -14 4 -25 2 -25 -3 0 -11 52
-22 62 -13 9 9 16 262 7 262 -4 0 -10 -4 -14 -9 -6 -10 -168 -7 -185 4 -5 3
-10 3 -10 -2z m100 -48 c0 -22 -4 -25 -39 -25 -26 0 -41 5 -45 16 -11 29 -6
34 39 34 41 0 45 -2 45 -25z m98 3 c-2 -19 -10 -24 -45 -26 -40 -3 -43 -1 -43
22 0 24 3 26 46 26 41 0 45 -2 42 -22z m-98 -73 c0 -23 -4 -25 -45 -25 -41 0
-45 2 -45 25 0 23 4 25 45 25 41 0 45 -2 45 -25z m90 0 c0 -22 -4 -25 -40 -25
-36 0 -40 3 -40 25 0 23 4 25 40 25 36 0 40 -2 40 -25z"/>
<path d="M2515 2151 c-36 -4 -55 -9 -47 -14 6 -5 17 -5 22 -2 6 4 10 -5 10
-21 0 -22 -2 -25 -15 -14 -13 11 -15 -1 -15 -96 l0 -109 60 0 60 -1 0 109 c0
90 -2 108 -13 98 -15 -12 -27 -5 -27 15 0 8 11 16 25 20 14 3 22 10 19 15 -3
5 -8 8 -12 7 -4 -1 -34 -4 -67 -7z m24 -43 c-5 -59 1 -98 16 -98 11 0 15 -12
15 -51 l0 -50 -42 3 c-31 2 -44 8 -46 21 -3 14 4 17 37 17 23 0 41 5 41 10 0
6 -19 10 -41 10 l-41 0 17 26 c9 14 19 50 22 80 3 30 10 54 15 54 5 0 8 -10 7
-22z m-39 -53 c0 -14 -4 -25 -10 -25 -5 0 -10 11 -10 25 0 14 5 25 10 25 6 0
10 -11 10 -25z m70 -5 c0 -16 -4 -30 -10 -30 -5 0 -10 14 -10 30 0 17 5 30 10
30 6 0 10 -13 10 -30z"/>
<path d="M2918 2148 c27 -27 13 -38 -50 -39 -54 -1 -59 -2 -33 -10 17 -5 41
-7 54 -4 24 6 24 5 18 -50 -7 -65 -38 -122 -76 -137 -17 -7 -21 -12 -12 -15
28 -11 84 54 105 120 5 14 14 18 48 15 l42 -3 -3 -50 c-3 -61 -13 -74 -49 -68
-21 4 -24 2 -12 -6 20 -15 57 -14 67 2 4 6 10 35 14 62 3 28 8 57 10 65 3 12
-7 14 -53 11 l-58 -3 0 30 0 29 75 -2 c54 -2 75 0 72 9 -2 7 -24 10 -59 8 -49
-3 -56 -1 -72 22 -9 14 -22 26 -28 26 -9 0 -9 -3 0 -12z"/>
<path d="M3300 2131 c0 -30 -2 -31 -41 -31 -25 0 -38 -4 -34 -10 4 -6 14 -10
23 -9 45 4 53 -1 50 -28 -3 -25 -8 -29 -53 -34 -45 -5 -46 -6 -12 -7 20 -1 37
-5 37 -8 0 -9 -23 -48 -37 -62 -7 -7 -13 -21 -13 -31 0 -16 6 -17 58 -9 31 5
62 10 68 12 7 3 21 -2 33 -10 18 -13 21 -13 21 -1 0 16 -41 67 -54 67 -5 0 -3
-7 4 -15 18 -22 8 -28 -56 -33 -63 -5 -63 -5 -15 55 24 30 30 33 84 33 35 0
56 4 52 10 -3 5 -25 7 -49 4 -37 -6 -45 -4 -49 12 -5 20 -3 78 4 103 2 7 -2
16 -8 18 -9 3 -13 -6 -13 -26z"/>
<path d="M4763 2141 c-5 -18 -13 -21 -59 -21 -33 0 -54 -4 -54 -11 0 -8 18
-10 55 -7 41 4 55 1 55 -9 0 -9 -15 -13 -50 -13 -29 0 -50 -5 -50 -11 0 -6 18
-9 47 -8 29 2 48 -1 50 -8 6 -17 -53 -79 -88 -93 -16 -7 -29 -16 -29 -20 0
-10 38 -1 46 11 12 20 24 7 24 -27 0 -37 0 -37 37 -31 20 4 41 11 47 17 8 9 1
10 -26 5 l-38 -7 0 35 c0 47 31 77 79 77 19 0 31 3 27 8 -4 4 -18 7 -29 7 -12
0 -24 5 -27 10 -3 6 17 11 48 13 36 2 52 7 49 15 -2 8 -22 11 -58 9 -44 -3
-52 -1 -42 9 8 8 33 12 68 10 34 -1 55 2 55 8 0 12 -6 13 -72 11 -39 -1 -47 1
-42 13 3 8 0 18 -6 22 -7 4 -14 -2 -17 -14z"/>
<path d="M974 2127 c-33 -34 -44 -62 -44 -111 0 -56 10 -84 45 -119 35 -34 47
-26 14 9 -21 23 -24 35 -24 109 0 80 1 84 30 109 18 16 24 26 15 25 -8 0 -25
-10 -36 -22z"/>
<path d="M2620 2138 c0 -4 21 -8 46 -8 l45 0 -3 -37 c-3 -38 -3 -38 -46 -37
l-43 1 3 -81 3 -81 49 -3 c58 -4 67 3 58 43 -5 29 -6 29 -12 6 -7 -32 -31 -45
-63 -37 -26 6 -27 9 -27 71 l0 65 50 0 50 0 0 53 0 52 -55 1 c-30 0 -55 -4
-55 -8z"/>
<path d="M3169 2130 c21 -19 41 -26 41 -16 0 12 -33 36 -48 36 -14 -1 -12 -5
7 -20z"/>
<path d="M3900 2098 c0 -91 -12 -158 -26 -158 -8 0 -14 -7 -14 -15 0 -8 4 -15
9 -15 20 0 135 74 122 78 -7 2 -26 -5 -42 -17 -15 -11 -31 -21 -35 -21 -3 0
-5 45 -2 100 2 55 0 100 -4 100 -4 0 -8 -24 -8 -52z"/>
<path d="M4065 2093 c-3 -32 -9 -70 -11 -85 -6 -28 -70 -98 -91 -98 -6 0 -15
-5 -19 -11 -12 -20 39 1 79 33 41 32 50 31 73 -14 12 -22 19 -27 27 -19 8 8 2
20 -22 45 -31 32 -32 35 -26 97 3 35 8 74 11 87 2 12 0 22 -5 22 -5 0 -12 -26
-16 -57z"/>
<path d="M6546 2095 c-17 -53 -43 -70 -30 -19 6 23 4 24 -20 18 -28 -7 -36 12
-14 34 9 9 8 12 -5 12 -9 0 -19 -11 -23 -25 -5 -19 -11 -24 -25 -20 -17 6 -18
-2 -18 -94 0 -93 4 -112 23 -94 11 11 50 11 64 1 14 -12 14 -10 12 59 -1 33 3
54 12 60 7 4 21 20 31 36 12 19 26 27 46 27 57 0 61 -6 55 -79 -8 -107 -10
-111 -46 -111 -30 0 -31 -1 -12 -15 26 -20 41 -19 54 4 11 21 39 209 32 215
-2 3 -28 2 -58 -1 -46 -5 -54 -3 -54 11 0 9 5 16 11 16 5 0 7 5 4 10 -12 20
-22 9 -39 -45z m-46 -45 c0 -17 -6 -33 -14 -36 -21 -8 -56 14 -56 35 0 24 9
31 42 31 25 0 28 -4 28 -30z m0 -86 c0 -34 -1 -35 -32 -32 -29 3 -33 7 -36 36
-3 31 -2 32 32 32 35 0 36 -1 36 -36z"/>
<path d="M7121 2113 c-6 -21 -20 -53 -31 -70 -20 -33 -15 -44 9 -20 10 10 11
-2 6 -64 -5 -52 -4 -79 4 -83 8 -5 11 18 12 76 2 118 6 149 18 161 14 14 14
37 1 37 -5 0 -14 -17 -19 -37z"/>
<path d="M7566 2138 c-2 -7 -12 -34 -22 -61 -19 -52 -14 -76 6 -27 7 16 20 31
29 31 9 1 31 2 49 3 l33 1 -7 -80 c-8 -101 -16 -117 -52 -109 l-27 6 23 -17
c48 -35 68 0 76 132 l5 88 -51 -4 c-46 -3 -50 -2 -44 17 4 11 2 23 -4 27 -5 3
-12 0 -14 -7z"/>
<path d="M1175 2104 c24 -36 30 -57 27 -99 -4 -54 -15 -87 -34 -105 -12 -11
-18 -23 -15 -27 12 -12 54 36 66 76 20 68 8 133 -33 174 -30 30 -36 18 -11
-19z"/>
<path d="M1971 2043 c1 -76 3 -89 9 -58 4 22 6 59 5 82 -1 24 1 46 6 49 14 8
10 24 -6 24 -12 0 -15 -17 -14 -97z"/>
<path d="M4384 2129 c-2 -4 0 -9 5 -11 5 -1 -4 -43 -20 -93 -32 -101 -33 -105
-18 -105 5 0 17 17 26 38 l16 37 10 -33 c8 -27 14 -33 35 -30 28 3 43 27 16
24 -10 0 -21 10 -27 29 -8 24 -7 31 7 40 10 5 25 15 34 22 15 11 14 12 -10 13
-18 0 -28 -5 -28 -15 0 -8 -10 -19 -22 -26 -18 -9 -20 -9 -15 4 3 9 9 32 13
51 3 20 10 39 15 42 5 3 9 9 9 14 0 10 -39 9 -46 -1z"/>
<path d="M6760 2001 c0 -106 3 -131 13 -123 16 13 204 15 212 2 19 -30 25 2
25 123 l0 132 -125 0 -125 0 0 -134z m230 9 l0 -110 -86 0 c-61 0 -83 3 -78
11 4 8 27 10 65 6 55 -5 59 -4 60 16 0 12 2 37 5 55 3 22 0 32 -9 32 -10 0
-13 -13 -13 -42 l1 -43 -59 -3 -59 -3 5 45 c4 31 2 46 -6 46 -8 0 -12 -21 -11
-60 0 -51 -3 -60 -17 -60 -16 0 -18 12 -18 110 l0 110 110 0 110 0 0 -110z"/>
<path d="M6825 2093 c2 -10 4 -21 4 -25 1 -5 10 -8 21 -8 11 0 20 -5 20 -11 0
-6 -16 -9 -40 -8 -21 2 -42 0 -46 -4 -4 -4 39 -7 95 -7 58 0 100 4 97 9 -3 5
-24 7 -46 4 -26 -4 -40 -2 -40 6 0 6 11 11 25 11 20 0 25 5 25 25 0 24 -3 25
-59 25 -51 0 -59 -2 -56 -17z m95 -14 c0 -5 -18 -9 -40 -9 -45 0 -55 17 -12
22 32 4 52 -1 52 -13z"/>
<path d="M6840 1967 c0 -27 2 -28 38 -25 29 2 38 8 40 24 3 19 -3 22 -37 26
-39 3 -41 2 -41 -25z m60 -2 c0 -9 -9 -15 -25 -15 -24 0 -32 10 -18 23 12 13
43 7 43 -8z"/>
<path d="M7174 2103 c-26 -33 -29 -42 -20 -65 10 -29 21 -35 31 -18 3 6 1 10
-4 10 -6 0 -11 7 -11 15 0 10 10 15 30 15 20 0 30 -5 30 -15 0 -8 -7 -15 -15
-15 -8 0 -12 -6 -9 -14 3 -8 -7 -18 -26 -26 -17 -7 -33 -17 -36 -21 -6 -11 45
8 63 23 8 6 16 8 20 4 7 -7 -25 -33 -67 -54 -25 -12 -25 -12 5 -6 17 3 37 12
46 20 20 18 29 18 29 0 0 -8 -24 -26 -52 -40 -62 -30 -44 -35 20 -6 39 18 43
18 40 3 -2 -10 -14 -20 -28 -23 l-25 -6 22 -8 c31 -10 43 0 43 35 l0 30 35
-26 c19 -15 39 -24 45 -20 7 4 -2 14 -21 24 -43 23 -47 38 -13 51 20 8 24 14
16 22 -9 9 -17 7 -31 -6 -25 -22 -51 -14 -51 15 0 20 4 21 44 17 44 -5 44 -5
48 28 4 34 3 34 -36 34 -38 0 -39 0 -21 20 19 21 15 24 -34 20 -14 -1 -21 2
-17 9 4 6 1 11 -7 11 -7 0 -27 -17 -43 -37z m76 -8 c0 -11 -11 -15 -36 -15
-31 0 -35 2 -24 15 7 8 23 15 36 15 15 0 24 -6 24 -15z m46 -35 c8 0 14 -7 14
-15 0 -10 -10 -15 -30 -15 -24 0 -30 4 -30 21 0 15 4 19 16 15 9 -3 22 -6 30
-6z"/>
<path d="M7456 2115 c-4 -14 -13 -25 -21 -25 -12 0 -15 -18 -14 -102 0 -57 3
-97 6 -90 2 6 14 12 26 13 22 0 22 0 0 9 -18 7 -23 17 -23 45 0 33 2 35 35 35
34 0 35 -1 35 -40 0 -25 -5 -40 -12 -40 -7 0 -5 -5 5 -11 10 -6 20 -9 22 -7 2
1 5 46 6 98 l3 95 -34 -3 -34 -4 17 26 c14 21 15 26 3 26 -7 0 -17 -11 -20
-25z m44 -70 c0 -32 -2 -35 -29 -35 -35 0 -45 12 -37 46 5 19 13 24 36 24 28
0 30 -3 30 -35z"/>
<path d="M7770 2130 c-30 -5 -36 -7 -17 -8 l27 -2 0 -110 0 -110 -26 6 c-19 5
-25 4 -20 -5 4 -6 20 -11 37 -11 l29 0 1 88 c1 48 0 97 -1 110 -1 16 5 25 19
29 18 5 21 25 3 21 -4 0 -27 -4 -52 -8z"/>
<path d="M7860 2128 c0 -5 11 -8 25 -8 16 0 25 -6 25 -15 0 -9 -9 -15 -24 -15
-22 0 -23 -3 -25 -80 -1 -51 2 -80 8 -80 6 0 11 11 11 24 0 22 5 24 50 28 48
3 50 2 50 -24 0 -15 5 -30 10 -33 9 -5 15 140 8 162 -2 4 -20 6 -42 4 -28 -2
-37 1 -34 11 3 8 23 14 51 16 78 5 53 19 -33 18 -44 -1 -80 -4 -80 -8z m128
-65 c-2 -14 -15 -19 -56 -21 -47 -3 -52 -1 -52 17 0 19 6 21 56 21 47 0 55 -3
52 -17z m-8 -48 c0 -11 -12 -15 -50 -15 -38 0 -50 4 -50 15 0 11 12 15 50 15
38 0 50 -4 50 -15z"/>
<path d="M8090 2083 c0 -50 1 -53 26 -53 16 0 24 -5 22 -12 -3 -7 -14 -13 -25
-13 -12 0 -25 -3 -29 -7 -4 -5 7 -8 24 -8 23 0 32 -5 32 -16 0 -12 -7 -15 -30
-12 -16 3 -30 1 -30 -4 0 -4 34 -8 75 -8 l75 0 0 -42 c0 -33 3 -39 12 -30 7 7
34 12 60 12 l48 0 0 60 c0 58 -1 60 -20 50 -27 -15 -40 -5 -40 31 0 27 3 29
35 29 19 0 35 5 35 10 0 11 -12 13 -49 10 -22 -2 -23 1 -18 29 4 18 2 31 -3
31 -6 0 -11 -16 -11 -35 -1 -19 -3 -44 -4 -55 -1 -11 -3 -27 -4 -35 0 -8 -10
-15 -21 -15 -12 0 -20 -7 -20 -17 0 -13 -9 -18 -34 -20 -33 -1 -34 0 -33 33 1
31 4 35 26 32 25 -3 26 -1 26 51 l0 53 -63 2 -62 1 0 -52z m50 -3 c0 -29 -4
-40 -15 -40 -17 0 -32 27 -21 38 4 3 11 0 16 -8 8 -13 10 -12 10 2 0 9 -4 20
-10 23 -15 9 -12 25 5 25 11 0 15 -11 15 -40z m60 30 c0 -5 -5 -9 -11 -7 -6 1
-14 -4 -17 -12 -3 -10 0 -12 12 -8 12 5 16 0 16 -19 0 -43 -32 -26 -37 19 -3
32 -1 37 17 37 11 0 20 -4 20 -10z m130 -170 l0 -40 -43 0 c-43 0 -44 1 -45
32 -1 44 3 48 49 48 39 0 39 0 39 -40z"/>
<path d="M8467 2133 c-4 -3 -7 -15 -7 -25 0 -11 -7 -18 -19 -18 -18 0 -19 -8
-20 -102 0 -76 3 -98 11 -90 15 15 78 16 78 2 0 -5 5 -10 10 -10 6 0 10 26 10
59 0 43 6 70 21 95 19 33 25 36 66 36 l46 0 -5 -86 c-5 -93 -14 -107 -58 -98
l-25 6 23 -17 c51 -37 75 5 84 149 l4 68 -53 -4 c-54 -5 -66 5 -41 30 9 9 8
12 -4 12 -11 0 -23 -19 -36 -57 -19 -53 -20 -55 -21 -24 -1 30 -3 33 -25 27
-30 -7 -45 12 -23 29 9 7 14 15 10 18 -8 9 -18 9 -26 0z m43 -93 c0 -28 -3
-30 -35 -30 -32 0 -35 2 -35 30 0 28 3 30 35 30 32 0 35 -2 35 -30z m-5 -80
c0 -32 -3 -35 -32 -38 -32 -3 -33 -3 -33 38 0 41 1 41 33 38 29 -3 32 -6 32
-38z"/>
<path d="M8880 2055 l0 -85 -55 0 c-30 0 -55 -4 -55 -10 0 -5 25 -10 56 -10
54 0 55 0 52 -27 -3 -27 -6 -28 -73 -34 -52 -4 -33 -6 78 -7 86 -1 147 2 147
7 0 6 -29 7 -70 4 l-70 -6 0 32 0 31 56 0 c40 0 54 3 51 13 -2 8 -21 11 -56 9
l-53 -4 3 86 c2 47 1 86 -3 86 -5 0 -8 -38 -8 -85z"/>
<path d="M9139 2128 c-1 -7 -2 -22 -3 -33 -1 -15 -7 -19 -23 -17 -13 2 -23 -2
-23 -7 0 -6 9 -11 20 -11 11 0 20 -2 20 -4 0 -4 -35 -83 -48 -108 -2 -5 1 -8
8 -8 6 0 16 14 22 31 15 43 22 28 19 -40 -1 -34 2 -62 8 -66 8 -4 11 21 11 77
0 55 3 78 10 68 5 -8 13 -11 17 -6 4 4 0 13 -10 20 -23 17 -22 36 2 36 11 0
22 6 24 13 3 6 6 -3 6 -20 l1 -33 55 0 c54 0 55 0 55 30 0 21 5 30 16 30 12 0
15 -7 12 -30 -3 -16 -1 -30 4 -30 4 0 8 9 8 19 0 11 3 26 6 35 5 12 0 16 -21
16 -17 0 -25 5 -22 13 2 6 16 12 30 11 18 -1 27 4 27 13 0 10 -6 13 -16 9 -9
-3 -52 -6 -96 -6 -87 0 -101 -15 -18 -19 27 -2 -5 -19 -49 -26 l-44 -7 6 31
c4 18 2 31 -3 31 -6 0 -11 -6 -11 -12z m151 -23 c0 -8 -7 -15 -15 -15 -16 0
-20 12 -8 23 11 12 23 8 23 -8z m-48 -37 c7 -19 -2 -38 -18 -38 -8 0 -14 8
-14 18 0 30 23 44 32 20z m48 -13 c0 -16 -6 -25 -15 -25 -9 0 -15 9 -15 25 0
16 6 25 15 25 9 0 15 -9 15 -25z"/>
<path d="M5865 2090 c-37 -59 -37 -137 0 -190 15 -22 32 -40 36 -40 15 0 10
12 -13 37 -18 20 -22 35 -22 91 0 67 13 106 43 129 14 11 14 12 -1 13 -10 0
-29 -18 -43 -40z"/>
<path d="M6100 2124 c0 -4 7 -15 16 -25 41 -45 37 -169 -7 -215 -12 -13 -18
-24 -13 -24 6 0 23 13 39 30 53 55 43 199 -16 231 -11 5 -19 7 -19 3z"/>
<path d="M13540 2120 c-8 -5 -10 -10 -4 -10 6 0 17 -12 24 -27 8 -16 21 -36
29 -45 13 -17 9 -18 -72 -18 -55 0 -87 -4 -87 -11 0 -5 10 -9 22 -7 51 7 28
-75 -33 -118 -51 -35 -42 -45 10 -11 28 19 44 40 57 74 21 57 26 61 64 55 28
-4 30 -7 30 -51 0 -62 -10 -75 -49 -66 -18 4 -31 3 -31 -3 0 -11 69 -26 79
-17 3 3 11 36 16 73 10 65 12 67 38 64 15 -1 27 2 27 8 0 5 -6 10 -14 10 -26
0 -64 40 -70 75 -7 37 -12 40 -36 25z"/>
<path d="M3950 2114 c0 -5 11 -22 25 -39 16 -20 24 -25 25 -14 0 8 -11 26 -25
39 -14 13 -25 19 -25 14z"/>
<path d="M8800 2094 c-6 -14 -10 -28 -10 -32 0 -4 -9 -18 -20 -32 -31 -40 -22
-48 11 -10 l30 35 19 -25 c10 -14 22 -21 26 -17 4 4 -5 20 -20 36 -24 24 -25
29 -11 41 8 7 12 16 9 21 -10 16 -24 9 -34 -17z"/>
<path d="M3348 2103 c-29 -7 -20 -23 12 -23 20 0 30 5 30 15 0 15 -9 17 -42 8z"/>
<path d="M8960 2095 c0 -17 -28 -66 -44 -77 -6 -4 -7 -10 -3 -15 4 -4 18 6 31
21 l22 29 27 -34 c17 -22 27 -28 27 -18 0 9 -11 28 -25 43 -26 28 -32 46 -15
46 6 0 10 5 10 10 0 6 -7 10 -15 10 -8 0 -15 -7 -15 -15z"/>
<path d="M13080 2068 c-48 -66 -40 -159 19 -212 28 -25 39 -14 12 13 -27 27
-34 60 -29 127 4 43 11 61 33 84 22 23 25 30 12 30 -9 0 -30 -19 -47 -42z"/>
<path d="M13446 2078 c-10 -18 -30 -45 -44 -60 -14 -16 -21 -28 -16 -28 12 0
37 27 78 83 17 24 22 37 14 37 -8 0 -22 -15 -32 -32z"/>
<path d="M13710 2106 c0 -3 11 -17 25 -31 45 -49 42 -167 -5 -210 -31 -28 -24
-38 10 -14 32 24 60 83 60 127 0 31 -34 100 -59 119 -16 13 -31 17 -31 9z"/>
<path d="M13168 2089 c-10 -5 -18 -17 -18 -26 0 -14 2 -14 19 1 23 20 49 18
64 -5 14 -23 -5 -67 -48 -110 -19 -19 -35 -38 -35 -42 0 -4 26 -7 57 -5 49 3
58 6 61 23 3 16 1 18 -9 8 -15 -15 -69 -17 -69 -3 0 5 6 13 13 17 45 27 72
114 45 141 -15 15 -57 15 -80 1z"/>
<path d="M1042 2068 c-13 -13 -16 -38 -6 -38 4 0 12 7 19 17 7 9 19 14 29 10
26 -10 19 -26 -19 -41 -29 -12 -35 -20 -35 -45 0 -39 6 -42 66 -32 27 5 43 9
37 10 -9 1 -13 19 -13 54 0 57 -12 77 -45 77 -12 0 -26 -5 -33 -12z m58 -82
c0 -22 -16 -36 -41 -36 -13 0 -11 34 3 48 20 20 38 14 38 -12z"/>
<path d="M3151 2054 c13 -14 25 -20 27 -15 4 13 -22 41 -39 41 -7 0 -2 -11 12
-26z"/>
<path d="M3595 2050 c-4 -6 -1 -17 5 -25 10 -12 10 -18 0 -30 -10 -12 -10 -15
4 -15 17 0 32 41 22 65 -6 17 -22 20 -31 5z"/>
<path d="M5206 2052 c-3 -3 2 -10 10 -17 22 -15 31 -109 14 -130 -7 -8 -20
-15 -30 -15 -10 0 -20 -7 -24 -15 -3 -10 1 -15 13 -15 21 0 112 92 133 136 16
33 18 55 3 52 -5 -1 -9 -9 -7 -16 4 -15 -38 -82 -50 -82 -5 0 -8 19 -8 43 0
23 -4 47 -8 52 -8 11 -38 16 -46 7z"/>
<path d="M5693 2048 c-6 -7 -10 -41 -9 -75 1 -35 -2 -63 -7 -63 -5 0 -7 -10
-5 -22 3 -20 10 -23 55 -26 43 -3 54 0 67 19 21 30 5 59 -34 59 -34 0 -60 9
-60 21 0 5 11 9 24 9 42 0 56 11 56 41 0 16 5 29 10 29 6 0 10 3 10 8 0 13
-97 13 -107 0z m63 -22 c11 -45 -25 -65 -46 -25 -9 15 -8 24 1 35 18 21 38 17
45 -10z m24 -116 c13 -8 12 -11 -5 -25 -30 -23 -97 -3 -81 24 9 13 65 14 86 1z"/>
<path d="M6041 2041 c-25 -25 -31 -26 -31 -6 0 9 -9 15 -25 15 -14 0 -25 -4
-25 -10 0 -5 6 -10 14 -10 8 0 18 -9 21 -20 8 -25 -19 -70 -40 -70 -8 0 -15
-4 -15 -10 0 -19 35 -10 49 12 l14 22 8 -22 c10 -26 31 -29 50 -6 12 15 11 16
-7 10 -18 -6 -22 -2 -26 24 -5 34 13 67 30 56 14 -9 27 13 14 26 -7 7 -17 3
-31 -11z"/>
<path d="M4880 2040 c0 -5 -7 -10 -17 -10 -9 0 -14 -2 -11 -5 8 -9 58 6 58 16
0 5 -7 9 -15 9 -8 0 -15 -4 -15 -10z"/>
<path d="M4630 2030 c0 -6 22 -10 50 -9 28 1 50 6 50 11 0 4 -22 8 -50 8 -27
0 -50 -5 -50 -10z"/>
<path d="M5490 2030 l-75 -6 83 -2 c49 -1 82 2 82 8 0 6 -3 9 -7 8 -5 -1 -42
-4 -83 -8z"/>
<path d="M9543 2033 c-7 -2 -13 -15 -13 -28 0 -31 36 -43 58 -21 27 27 -8 65
-45 49z m37 -28 c0 -8 -9 -15 -20 -15 -20 0 -26 11 -13 23 12 13 33 7 33 -8z"/>
<path d="M6570 2022 c1 -12 40 -55 46 -49 8 8 -13 44 -31 51 -8 3 -15 2 -15
-2z"/>
<path d="M7570 2025 c1 -18 38 -60 46 -52 4 4 -4 20 -19 35 -15 14 -27 22 -27
17z"/>
<path d="M8581 2007 c8 -7 18 -20 22 -29 8 -21 27 -24 27 -5 0 18 -32 47 -51
47 -11 -1 -11 -3 2 -13z"/>
<path d="M4850 1995 c-14 -17 -50 -20 -50 -5 0 6 -5 10 -10 10 -17 0 27 -76
54 -93 14 -10 36 -17 48 -16 23 1 23 1 -2 12 -41 20 -70 41 -70 52 0 6 16 17
35 24 19 7 35 17 35 22 0 14 -26 11 -40 -6z"/>
<path d="M8190 2000 c0 -5 7 -10 15 -10 8 0 15 5 15 10 0 6 -7 10 -15 10 -8 0
-15 -4 -15 -10z"/>
<path d="M9260 2000 l-65 -7 78 -1 c46 -1 77 2 77 8 0 6 -6 9 -12 8 -7 -1 -42
-4 -78 -8z"/>
<path d="M3163 1964 c-24 -37 -31 -70 -13 -59 6 4 18 23 27 43 9 20 19 40 21
45 2 4 0 7 -5 7 -4 -1 -18 -17 -30 -36z"/>
<path d="M5430 1973 c0 -5 24 -7 52 -5 95 5 104 9 26 11 -43 0 -78 -2 -78 -6z"/>
<path d="M9263 1972 c-93 -3 -134 -22 -48 -22 l45 0 0 -46 c0 -27 4 -43 10
-39 6 3 10 24 10 46 l0 39 45 0 c25 0 45 4 45 9 0 15 -9 16 -107 13z"/>
<path d="M7890 1936 c0 -8 -12 -24 -27 -35 -14 -12 -23 -24 -20 -27 7 -7 87
55 87 68 0 4 -9 8 -20 8 -11 0 -20 -6 -20 -14z"/>
<path d="M9195 1910 c-16 -16 -26 -32 -24 -34 6 -7 69 43 69 55 0 17 -16 9
-45 -21z"/>
<path d="M9301 1933 c0 -5 13 -18 30 -31 21 -18 29 -20 29 -9 0 8 -11 22 -25
31 -27 18 -35 20 -34 9z"/>
<path d="M8084 1906 c-8 -35 1 -44 16 -16 8 15 9 25 1 33 -7 7 -12 2 -17 -17z"/>
<path d="M8128 1905 c2 -14 6 -25 8 -25 2 0 4 11 4 25 0 14 -4 25 -9 25 -4 0
-6 -11 -3 -25z"/>
<path d="M8160 1923 c0 -4 5 -15 10 -23 8 -13 10 -13 10 2 0 9 -4 20 -10 23
-5 3 -10 3 -10 -2z"/>
<path d="M8190 1921 c0 -5 5 -13 10 -16 6 -3 10 -2 10 4 0 5 -4 13 -10 16 -5
3 -10 2 -10 -4z"/>
<path d="M7975 1895 c31 -25 45 -31 45 -17 0 8 -53 42 -67 42 -4 0 6 -11 22
-25z"/>
<path d="M1875 1330 c-5 -16 -15 -20 -51 -20 -24 0 -44 -4 -44 -10 0 -5 18
-10 40 -10 22 0 40 -2 40 -5 0 -14 -35 -73 -58 -97 -14 -16 -21 -28 -14 -28 6
0 20 10 32 22 l20 22 0 -64 c0 -88 13 -67 15 26 2 42 9 87 16 100 12 23 18 24
101 24 52 0 88 4 88 10 0 12 -5 13 -97 10 -72 -2 -85 4 -61 28 9 9 8 12 -4 12
-9 0 -20 -9 -23 -20z"/>
<path d="M2150 1206 c0 -162 8 -180 11 -26 3 154 -4 145 112 145 l97 0 0 -114
0 -113 -25 6 c-14 4 -25 2 -25 -3 0 -8 49 -26 55 -19 1 2 5 53 9 113 3 61 7
118 8 128 3 18 -7 19 -119 20 l-123 2 0 -139z"/>
<path d="M2967 1335 c-4 -9 -26 -15 -69 -18 l-63 -3 63 -2 c46 -1 63 -6 60
-14 -3 -7 -19 -14 -36 -16 l-32 -3 0 -90 0 -89 -30 0 c-16 0 -30 -4 -30 -9 0
-5 63 -9 141 -10 109 -1 140 2 136 11 -2 8 -17 12 -34 10 -31 -3 -31 -3 -27
43 2 25 6 65 8 90 l4 45 -45 0 c-31 0 -43 4 -41 13 3 7 29 13 72 15 36 2 64 7
61 12 -3 5 -30 6 -60 3 -47 -5 -55 -3 -55 11 0 20 -16 21 -23 1z m56 -74 c4
-1 7 -7 7 -15 0 -16 -105 -22 -115 -6 -15 24 25 32 108 21z m7 -60 c0 -17 -7
-19 -60 -18 -50 1 -60 5 -60 19 0 15 9 18 60 18 52 0 60 -2 60 -19z m0 -46 c0
-12 -13 -15 -60 -15 -47 0 -60 3 -60 15 0 12 13 15 60 15 47 0 60 -3 60 -15z
m-16 -31 c34 -13 13 -24 -44 -24 -47 0 -60 3 -60 15 0 11 12 15 44 15 24 0 51
-3 60 -6z"/>
<path d="M3277 1337 c-3 -8 -27 -28 -54 -46 -37 -25 -42 -32 -24 -29 24 3 24
2 22 -61 -3 -69 -14 -111 -31 -111 -5 0 -10 -5 -10 -11 0 -22 26 -1 46 37 l20
39 87 1 87 1 0 -28 c0 -26 -4 -29 -32 -30 l-33 -1 28 -10 c51 -18 57 -8 57 97
l0 95 -34 0 c-19 0 -38 -5 -42 -11 -3 -6 1 -10 12 -9 34 4 44 0 44 -15 0 -11
-12 -15 -45 -15 -25 0 -45 3 -45 6 0 13 24 49 44 66 23 19 19 21 -38 18 -32
-1 -38 1 -33 14 4 10 1 16 -7 16 -8 0 -16 -6 -19 -13z m63 -42 c0 -11 -12 -15
-46 -15 -40 0 -45 2 -34 15 7 8 28 15 46 15 24 0 34 -5 34 -15z m-39 -35 c10
0 19 -7 19 -15 0 -11 -11 -15 -40 -15 -27 0 -40 4 -40 13 0 19 12 29 28 22 7
-3 22 -5 33 -5z m19 -70 c0 -17 -7 -20 -40 -20 -33 0 -40 3 -40 20 0 17 7 20
40 20 33 0 40 -3 40 -20z m100 0 c0 -17 -7 -20 -45 -20 -31 0 -45 4 -45 13 0
21 11 27 52 27 31 0 38 -3 38 -20z"/>
<path d="M3660 1260 l0 -89 -57 -4 -58 -3 58 -2 c56 -2 57 -2 57 -32 l0 -30
-72 0 c-53 0 -69 -3 -61 -11 8 -8 51 -9 148 -4 75 4 133 10 130 13 -4 4 -36 5
-71 3 l-66 -3 4 29 c3 27 6 28 63 34 68 6 64 12 -10 13 l-50 1 3 70 c2 39 6
78 8 88 4 11 0 17 -10 17 -13 0 -16 -15 -16 -90z"/>
<path d="M3928 1318 c-2 -21 -9 -34 -18 -34 -32 -3 -34 -6 -13 -14 23 -9 22
-30 -4 -80 -20 -39 -15 -48 10 -17 l23 27 -4 -65 c-3 -44 -1 -65 7 -65 7 0 11
28 11 81 0 71 2 80 15 69 8 -7 15 -8 15 -2 0 5 -7 15 -15 22 -18 15 -11 30 16
30 13 0 19 -7 19 -22 0 -22 3 -23 75 -20 65 3 75 6 75 22 0 10 3 25 6 34 5 12
0 16 -20 16 -14 0 -26 5 -26 10 0 6 16 10 35 10 19 0 35 5 35 10 0 6 -40 10
-100 10 -60 0 -100 -4 -100 -10 0 -5 14 -10 30 -10 17 0 30 -4 30 -10 0 -5 -9
-10 -19 -10 -11 0 -21 -4 -23 -10 -1 -5 -13 -7 -25 -4 -21 6 -24 28 -8 54 3 6
-1 10 -9 10 -9 0 -16 -12 -18 -32z m150 -38 c1 -29 -2 -40 -13 -40 -10 0 -13
11 -12 40 1 22 6 40 12 40 7 0 12 -18 13 -40z m-48 -15 c0 -16 -6 -25 -15 -25
-15 0 -21 31 -8 43 13 14 23 6 23 -18z m100 -6 c0 -10 -7 -19 -15 -19 -15 0
-21 31 -9 43 11 10 24 -3 24 -24z"/>
<path d="M4375 1339 c-6 -8 -51 -32 -125 -63 -8 -3 -1 -4 15 -2 45 7 147 55
140 66 -8 13 -22 13 -30 -1z"/>
<path d="M4714 1336 c-3 -7 -4 -19 -2 -27 2 -8 -10 -16 -32 -20 l-35 -6 33 -2
c31 -1 32 -2 32 -46 l0 -45 -41 0 -42 0 5 50 c4 39 2 50 -10 50 -9 0 -12 -6
-8 -16 3 -9 6 -35 6 -59 l0 -43 45 3 45 4 0 -62 c0 -73 17 -67 22 8 l3 50 53
-2 52 -2 0 62 0 62 -54 -3 c-55 -4 -63 3 -43 34 7 12 -1 24 -15 24 -5 0 -11
-6 -14 -14z m90 -62 c11 -4 16 -19 16 -46 l0 -39 -42 3 c-39 3 -43 6 -46 31
-2 16 -1 35 2 43 6 14 42 19 70 8z"/>
<path d="M957 1308 c-31 -42 -40 -79 -31 -135 7 -48 55 -115 71 -100 4 5 0 14
-9 21 -10 7 -23 36 -30 65 -14 64 1 137 35 163 18 15 19 18 5 18 -9 0 -28 -15
-41 -32z"/>
<path d="M1028 1243 c4 -108 15 -129 62 -118 34 8 50 32 50 76 0 49 -23 72
-62 63 -30 -6 -30 -6 -26 35 3 32 0 41 -12 41 -13 0 -14 -15 -12 -97z m86 -28
c7 -26 -8 -75 -23 -75 -29 0 -41 14 -41 51 0 58 51 77 64 24z"/>
<path d="M1160 1335 c0 -4 11 -20 25 -37 21 -25 25 -40 25 -95 0 -55 -4 -72
-25 -99 -30 -39 -31 -48 -5 -34 31 17 60 83 60 137 -1 36 -8 58 -28 87 -25 36
-52 57 -52 41z"/>
<path d="M5407 1333 c-4 -3 -7 -26 -7 -49 0 -39 2 -43 28 -46 19 -2 27 -9 27
-23 0 -17 -6 -19 -34 -17 -30 3 -33 2 -23 -11 9 -11 10 -26 3 -58 -14 -60 -13
-66 4 -43 8 10 15 30 15 44 0 33 15 54 30 45 9 -5 11 -23 7 -56 -5 -37 -3 -49
7 -49 11 0 13 25 11 118 -1 64 2 125 7 135 7 13 5 17 -9 17 -15 0 -18 -7 -15
-39 2 -23 -1 -42 -8 -46 -18 -11 -28 12 -23 51 4 32 -4 43 -20 27z"/>
<path d="M5550 1331 c0 -4 -12 -20 -27 -35 l-27 -27 27 10 c17 7 28 7 32 1 4
-6 11 -10 18 -10 8 0 8 3 -1 12 -19 19 -14 28 18 28 17 0 30 -4 30 -9 0 -12
-58 -61 -90 -75 -25 -11 -40 -25 -40 -38 0 -5 26 -8 58 -8 32 0 61 -2 63 -5 3
-2 3 -20 1 -40 -4 -30 -8 -35 -30 -35 l-26 0 22 -16 c36 -25 52 -12 52 46 0
47 1 50 26 50 22 0 24 2 14 14 -6 8 -18 12 -26 9 -12 -4 -14 0 -8 21 5 20 3
26 -11 26 -12 0 -16 -7 -13 -27 3 -27 2 -28 -49 -29 -60 -1 -66 5 -24 24 42
19 122 84 118 96 -2 6 -20 9 -40 8 -22 -2 -37 1 -37 7 0 6 -7 11 -15 11 -8 0
-15 -4 -15 -9z"/>
<path d="M7362 1310 c-8 -21 -16 -28 -26 -24 -14 5 -16 -8 -16 -95 0 -61 4
-101 10 -101 6 0 10 5 10 10 0 15 58 12 63 -2 10 -30 18 6 21 95 l2 96 -28 -6
c-21 -4 -28 -2 -28 10 0 8 7 18 16 21 8 3 12 10 9 16 -11 18 -23 11 -33 -20z
m47 -64 c4 -24 -23 -46 -49 -39 -14 4 -20 14 -20 35 0 27 2 29 32 26 23 -2 34
-9 37 -22z m-9 -91 c0 -32 -2 -35 -30 -35 -28 0 -30 3 -30 35 0 32 2 35 30 35
28 0 30 -3 30 -35z"/>
<path d="M7459 1295 c-6 -25 -15 -48 -20 -51 -12 -7 -12 -24 0 -24 5 0 14 14
21 30 12 29 16 31 59 28 l46 -3 -4 -75 c-4 -91 -14 -114 -47 -107 -33 6 -39
-8 -9 -21 28 -13 51 -7 59 15 5 12 20 159 21 198 0 5 -24 8 -52 6 -49 -2 -68
8 -43 24 6 4 8 11 5 16 -13 20 -25 7 -36 -36z"/>
<path d="M7678 1207 c-2 -73 -2 -136 0 -140 2 -4 9 -4 15 1 7 5 60 9 119 7
l107 -2 3 126 c3 120 -2 156 -16 132 -9 -14 -165 -15 -199 -2 l-25 10 -4 -132z
m115 96 c-49 -4 -53 -6 -53 -29 0 -16 5 -24 13 -21 6 2 12 10 12 18 0 9 11 14
35 14 23 0 34 -5 33 -13 -2 -6 4 -12 13 -12 12 0 15 7 12 25 -5 22 -2 25 24
25 l29 0 -3 -107 -3 -108 -107 -3 -108 -3 0 111 0 110 78 -2 c62 -1 67 -2 25
-5z"/>
<path d="M7776 1262 c-16 -27 65 -54 100 -33 15 9 11 10 -23 6 -38 -4 -43 -2
-43 15 0 20 -24 28 -34 12z"/>
<path d="M7713 1233 c9 -2 23 -2 30 0 6 3 -1 5 -18 5 -16 0 -22 -2 -12 -5z"/>
<path d="M7722 1159 l3 -51 73 -1 72 -2 0 53 c0 28 -3 52 -7 52 -5 0 -8 -19
-8 -42 l0 -43 -58 -3 -58 -3 3 38 c3 35 6 39 38 44 33 6 32 6 -13 8 l-48 1 3
-51z"/>
<path d="M7762 1158 c2 -19 8 -22 33 -19 28 3 44 15 45 34 0 4 -18 7 -41 7
-36 0 -40 -2 -37 -22z m53 2 c4 -6 -5 -10 -19 -10 -14 0 -26 5 -26 10 0 6 9
10 19 10 11 0 23 -4 26 -10z"/>
<path d="M8060 1323 c0 -10 -13 -42 -29 -70 -28 -51 -29 -66 -2 -40 11 10 13
-2 8 -70 -3 -47 -1 -83 4 -83 5 0 9 3 9 8 6 177 8 203 24 226 20 31 20 46 1
46 -8 0 -15 -8 -15 -17z"/>
<path d="M8108 1290 c-27 -37 -33 -50 -21 -50 11 0 14 -6 10 -21 -3 -13 -1
-19 6 -16 7 2 11 16 9 30 -3 24 0 27 27 27 24 0 31 -4 31 -20 0 -14 -7 -20
-22 -20 -17 0 -19 -3 -9 -9 10 -7 8 -12 -10 -25 -13 -9 -29 -16 -36 -16 -7 0
-13 -4 -13 -10 0 -9 43 5 67 22 6 5 14 4 18 -2 4 -6 -12 -19 -39 -31 -25 -11
-46 -22 -46 -25 0 -8 55 9 71 22 20 18 29 18 29 0 0 -7 -22 -23 -50 -35 -27
-12 -50 -24 -50 -27 0 -7 37 4 74 22 37 18 36 18 36 -7 0 -17 -5 -20 -25 -17
-14 3 -28 1 -31 -3 -3 -5 1 -9 8 -10 7 0 21 -2 31 -4 18 -3 40 31 30 48 -7 12
11 7 31 -8 11 -8 31 -15 45 -15 23 0 21 3 -17 22 -45 23 -50 41 -14 46 25 4
30 22 7 22 -8 0 -24 -6 -35 -12 -16 -11 -22 -9 -34 7 -21 29 -9 38 40 31 42
-5 44 -4 46 19 0 14 1 31 2 37 1 9 -12 12 -39 10 -32 -3 -38 -1 -27 9 19 21
14 29 -18 29 -17 0 -29 5 -27 11 6 30 -22 14 -55 -31z m82 -5 c0 -11 -11 -15
-36 -15 -31 0 -35 2 -24 15 7 8 23 15 36 15 15 0 24 -6 24 -15z m60 -45 c0
-15 -7 -20 -29 -20 -27 0 -31 7 -22 38 1 1 12 2 26 2 18 0 25 -5 25 -20z"/>
<path d="M8412 1311 c-6 -17 -18 -31 -26 -31 -13 0 -16 -16 -16 -101 0 -89 2
-100 15 -89 9 8 29 10 50 7 l35 -6 0 90 c0 49 0 92 0 97 -1 4 -12 6 -25 4 -26
-4 -36 22 -12 31 9 3 9 8 1 17 -9 9 -14 4 -22 -19z m46 -85 c-2 -16 -11 -22
-35 -24 -31 -3 -33 -1 -33 27 0 23 5 30 23 33 29 5 49 -10 45 -36z m-8 -71 c0
-32 -2 -35 -30 -35 -28 0 -30 3 -30 35 0 32 2 35 30 35 28 0 30 -3 30 -35z"/>
<path d="M8502 1293 c-6 -27 -13 -57 -17 -68 -3 -11 2 -5 11 13 16 29 22 32
66 32 l48 0 -1 -47 c0 -27 -3 -66 -7 -88 -7 -36 -11 -41 -42 -46 l-35 -6 29
-11 c21 -9 32 -9 42 -1 14 12 30 84 37 167 l4 52 -55 0 c-53 0 -54 1 -48 25 4
17 2 25 -7 25 -8 0 -18 -20 -25 -47z"/>
<path d="M8963 1329 c-6 -6 -38 -9 -72 -7 -34 1 -61 0 -61 -4 0 -5 14 -8 31
-8 38 0 35 -24 -4 -28 -27 -3 -27 -4 -27 -84 0 -67 2 -79 15 -74 9 3 15 0 15
-10 0 -8 -11 -19 -24 -24 -13 -5 -27 -14 -31 -20 -12 -20 36 0 64 26 25 23 45
29 84 26 14 -2 17 7 17 61 0 34 3 72 6 84 6 20 3 21 -36 16 -34 -5 -42 -3 -38
8 3 8 22 15 46 17 23 2 42 7 42 12 0 15 -16 20 -27 9z m-5 -81 c3 -14 -5 -16
-50 -15 -42 2 -53 6 -56 20 -3 15 3 17 50 15 40 -2 54 -7 56 -20z m0 -45 c3
-9 -12 -13 -52 -13 -44 0 -56 3 -56 16 0 12 10 14 52 12 30 -2 53 -8 56 -15z
m-15 -32 c9 -1 17 -8 17 -16 0 -12 -13 -15 -55 -15 -39 0 -55 4 -55 13 0 20 5
22 42 20 18 -1 41 -2 51 -2z"/>
<path d="M9260 1260 c0 -81 0 -82 -22 -75 -13 4 -38 9 -55 12 -26 4 -33 10
-33 27 0 27 25 64 36 53 5 -4 3 -17 -4 -27 -16 -27 -15 -30 8 -30 17 0 20 7
20 53 l0 52 -70 0 -71 0 3 -50 c2 -41 7 -50 23 -53 16 -3 18 -1 8 9 -18 18
-16 42 2 35 13 -4 13 -2 5 14 -13 25 -13 30 5 30 12 0 15 -12 14 -55 l-2 -55
-34 0 c-20 0 -32 -4 -28 -10 3 -5 20 -10 36 -10 31 0 38 -24 8 -26 -51 -5 -44
-8 26 -13 l80 -6 -3 -38 c-3 -34 -1 -38 16 -33 11 4 40 7 64 8 l44 0 -1 57
c-2 54 -3 56 -29 53 -24 -3 -26 0 -26 32 0 35 1 36 36 36 24 0 34 4 31 13 -4
13 -21 14 -50 2 -17 -7 -18 -3 -15 30 2 24 -2 40 -9 42 -10 4 -13 -16 -13 -77z
m-75 40 c3 -5 2 -10 -4 -10 -5 0 -17 -3 -25 -6 -12 -5 -15 -2 -10 10 7 18 29
21 39 6z m33 -131 c-6 -19 -68 -22 -68 -4 0 11 11 15 36 15 22 0 34 -4 32 -11z
m102 -39 l0 -40 -45 0 c-44 0 -45 0 -45 33 0 43 5 47 52 47 38 0 38 0 38 -40z"/>
<path d="M8745 1320 c-27 -4 -38 -8 -23 -8 15 -1 29 -5 31 -9 2 -5 1 -53 -2
-108 -5 -88 -8 -100 -23 -97 -10 2 -18 -1 -18 -6 0 -11 40 -23 52 -16 4 3 8
57 8 120 0 107 1 114 20 114 11 0 20 5 20 10 0 6 -3 9 -7 8 -5 0 -30 -4 -58
-8z"/>
<path d="M9523 1323 c-46 -2 -83 -8 -83 -14 0 -5 12 -8 28 -7 26 3 27 2 25
-45 -2 -65 -19 -112 -55 -153 -33 -38 -31 -59 3 -28 26 24 59 87 59 114 0 11
5 20 10 20 6 0 10 -5 10 -12 0 -6 11 -26 25 -44 28 -36 26 -38 -42 -70 -24
-10 -43 -22 -43 -27 0 -8 64 17 97 39 21 13 27 12 72 -13 38 -22 53 -25 62
-16 9 9 2 14 -30 24 -61 18 -64 28 -26 84 36 54 36 70 0 61 -31 -8 -35 1 -20
44 12 35 11 53 -4 48 -3 -1 -43 -4 -88 -5z m72 -45 c-9 -39 -15 -44 -52 -43
-21 0 -29 5 -31 23 -6 41 5 52 48 52 l42 0 -7 -32z m35 -69 c0 -19 -34 -69
-47 -69 -12 0 -53 56 -53 73 0 4 23 7 50 7 30 0 50 -4 50 -11z"/>
<path d="M11875 1318 c-2 -7 -9 -32 -15 -55 -13 -53 -33 -68 -28 -22 3 32 1
34 -24 31 -27 -3 -38 11 -18 23 12 8 13 25 2 25 -5 0 -14 -12 -21 -26 -7 -17
-17 -24 -26 -20 -13 4 -15 -11 -15 -99 0 -58 3 -105 6 -105 3 0 12 6 20 14 14
15 54 11 54 -5 0 -5 5 -9 10 -9 6 0 10 28 10 63 0 50 4 66 20 80 11 9 20 24
20 32 0 16 2 16 64 19 l38 1 -5 -80 c-7 -108 -12 -119 -51 -111 -31 6 -31 6
-8 -9 12 -9 31 -14 41 -10 22 7 27 24 36 115 3 36 8 75 11 88 4 21 1 22 -52
22 -51 0 -56 2 -51 20 6 22 -11 39 -18 18z m-65 -93 c0 -32 -2 -35 -30 -35
-26 0 -30 4 -30 28 0 35 6 42 37 42 20 0 23 -5 23 -35z m0 -80 c0 -32 -2 -35
-30 -35 -28 0 -30 3 -30 35 0 32 2 35 30 35 28 0 30 -3 30 -35z"/>
<path d="M3582 1293 c-6 -16 -21 -43 -32 -60 -12 -18 -17 -33 -12 -33 6 0 19
14 29 30 21 37 30 38 45 5 6 -14 15 -25 20 -25 15 0 8 23 -14 47 -17 18 -19
26 -10 35 16 16 15 28 -2 28 -8 0 -19 -12 -24 -27z"/>
<path d="M3722 1260 c-32 -63 -28 -83 6 -29 l19 31 26 -34 c18 -21 27 -27 27
-17 0 9 -12 28 -27 43 -20 20 -24 29 -15 38 14 14 16 28 4 28 -5 0 -23 -27
-40 -60z"/>
<path d="M6719 1298 c-28 -31 -39 -61 -39 -113 0 -54 12 -87 41 -114 30 -28
48 -27 21 2 -48 51 -48 173 -1 223 12 13 17 24 11 24 -6 0 -21 -10 -33 -22z"/>
<path d="M6952 1293 c48 -51 49 -167 3 -217 -16 -18 -19 -26 -10 -26 21 0 65
64 72 104 3 19 2 51 -1 70 -7 36 -55 96 -77 96 -7 0 -1 -12 13 -27z"/>
<path d="M12090 1205 c0 -60 -3 -119 -6 -130 -5 -19 0 -20 125 -20 l130 0 0
115 c0 64 1 122 3 129 2 9 -27 13 -125 14 l-127 2 0 -110z m228 -23 l3 -113
-108 3 -108 3 -3 99 c-1 55 0 106 2 113 4 11 29 13 108 11 l103 -3 3 -113z"/>
<path d="M12160 1263 c0 -16 6 -23 20 -23 41 0 18 -19 -27 -23 -27 -2 -4 -4
50 -5 53 -1 97 2 97 7 0 5 -18 7 -40 4 -26 -4 -40 -2 -40 6 0 6 11 11 25 11
19 0 25 5 25 23 0 20 -5 22 -55 22 -50 0 -55 -2 -55 -22z m90 -3 c0 -5 -18
-10 -40 -10 -22 0 -40 5 -40 10 0 6 18 10 40 10 22 0 40 -4 40 -10z"/>
<path d="M12133 1143 c1 -34 5 -53 13 -53 8 0 10 14 6 45 l-5 45 62 0 61 0 0
-39 c0 -39 -1 -40 -37 -44 l-38 -4 43 -1 c41 -2 42 -1 42 31 0 17 3 41 6 52 5
19 0 20 -74 20 l-79 0 0 -52z"/>
<path d="M12170 1145 c0 -22 4 -25 34 -25 32 0 46 13 46 41 0 5 -18 9 -40 9
-36 0 -40 -2 -40 -25z m58 -3 c2 -7 -6 -12 -17 -12 -21 0 -27 11 -14 24 9 9
26 2 31 -12z"/>
<path d="M12465 1288 c-4 -18 -16 -48 -26 -66 -23 -40 -24 -49 -4 -32 13 11
15 2 15 -69 0 -52 4 -80 10 -76 6 3 10 51 10 108 1 70 5 110 15 127 18 32 18
40 1 40 -8 0 -17 -14 -21 -32z"/>
<path d="M12523 1274 c-18 -24 -28 -44 -22 -44 7 0 9 -10 5 -26 -6 -24 -5 -25
24 -19 41 9 38 -3 -6 -21 -20 -8 -34 -18 -30 -21 3 -3 31 7 62 22 41 20 65 26
90 22 32 -5 34 -4 34 24 0 43 -2 44 -40 40 -34 -3 -35 -3 -17 16 22 25 13 34
-25 26 -20 -4 -28 -2 -26 7 7 29 -19 16 -49 -26z m75 -6 c-3 -7 -20 -14 -38
-16 -30 -3 -32 -2 -21 12 16 19 65 22 59 4z m-18 -48 c0 -15 -7 -20 -24 -20
-14 0 -28 5 -31 10 -10 16 4 30 31 30 17 0 24 -5 24 -20z m86 9 c3 -6 0 -15
-7 -20 -21 -12 -54 -4 -57 14 -3 13 4 17 27 17 16 0 33 -5 37 -11z"/>
<path d="M12827 1313 c-4 -3 -7 -15 -7 -25 0 -11 -7 -18 -20 -18 -19 0 -20 -7
-20 -100 0 -60 4 -100 10 -100 6 0 10 5 10 10 0 15 58 12 63 -2 9 -26 18 1 19
61 1 33 5 61 10 61 4 0 15 14 23 31 15 28 19 30 63 27 l47 -3 -3 -75 c-5 -95
-14 -114 -53 -106 -16 3 -29 1 -29 -4 0 -16 71 -24 81 -9 7 12 17 89 22 179
l2 35 -54 -4 c-53 -3 -54 -3 -47 23 6 26 -11 39 -18 14 -2 -7 -9 -32 -15 -55
-14 -50 -31 -58 -26 -12 4 29 3 30 -25 24 -29 -6 -42 7 -20 20 6 3 10 13 10
21 0 15 -12 19 -23 7z m38 -93 c0 -21 -5 -26 -32 -28 -31 -3 -33 -1 -33 28 0
29 2 31 33 28 27 -2 32 -7 32 -28z m5 -62 c-1 -40 -13 -58 -41 -58 -26 0 -29
3 -29 35 0 33 2 35 35 35 21 0 35 -5 35 -12z"/>
<path d="M13248 1313 c-74 -2 -128 -8 -128 -13 0 -6 11 -10 25 -10 l26 0 -3
-102 c-3 -100 -4 -102 -28 -109 l-25 -6 28 -8 c43 -12 41 -19 46 167 l1 57 44
6 c52 8 73 0 56 -20 -9 -11 -3 -14 32 -17 31 -2 44 -8 46 -20 3 -16 -5 -18
-53 -18 -56 0 -57 1 -51 25 4 17 2 25 -6 25 -10 0 -13 -22 -13 -83 1 -76 2
-82 20 -79 15 2 12 -5 -15 -28 -45 -40 -20 -39 30 1 30 24 46 30 69 27 l31 -5
0 68 c0 37 3 74 6 83 5 13 -2 16 -35 16 -41 0 -55 13 -25 24 9 3 29 6 45 6 16
0 29 5 29 10 0 6 -6 9 -12 8 -7 -1 -70 -4 -140 -5z m117 -124 c0 -9 -14 -15
-44 -17 -45 -3 -68 8 -56 28 10 17 100 7 100 -11z m0 -49 c0 -11 -13 -15 -52
-17 -47 -1 -53 1 -53 18 0 18 6 20 53 17 38 -2 52 -7 52 -18z"/>
<path d="M13670 1244 l0 -76 -32 6 c-18 4 -45 6 -60 6 -19 0 -28 5 -28 15 0
10 10 15 30 15 27 0 30 3 30 34 0 19 3 41 6 50 5 14 -4 16 -65 16 l-71 0 0
-53 0 -54 30 5 c23 3 30 0 30 -12 0 -12 -10 -16 -37 -17 l-38 -2 34 -6 c49 -9
53 -31 5 -31 -66 0 -27 -13 43 -14 l68 -1 3 -38 c3 -30 7 -37 18 -33 9 3 37 6
62 6 l47 0 0 55 c0 52 -1 55 -26 55 -33 0 -36 4 -31 40 4 27 8 30 39 30 20 0
32 4 28 10 -3 5 -21 9 -38 7 -33 -2 -38 7 -22 46 5 12 2 17 -9 17 -13 0 -16
-13 -16 -76z m-130 11 c0 -28 -4 -35 -19 -35 -10 0 -22 7 -25 16 -9 22 3 32
14 14 8 -13 10 -13 10 1 0 8 -5 20 -12 27 -9 9 -7 12 10 12 18 0 22 -6 22 -35z
m49 32 c-2 -1 -12 -9 -21 -16 -15 -12 -18 -11 -18 3 0 10 8 16 22 16 12 0 19
-1 17 -3z m1 -42 c0 -18 -5 -25 -20 -25 -20 0 -20 1 -4 25 9 14 18 25 20 25 2
0 4 -11 4 -25z m30 -84 c0 -9 -33 -21 -57 -21 -7 0 -13 7 -13 15 0 10 11 15
35 15 19 0 35 -4 35 -9z m108 -24 c2 -10 1 -29 -2 -43 -5 -20 -12 -24 -45 -24
-41 0 -51 11 -51 55 0 27 11 33 60 31 25 -1 36 -6 38 -19z"/>
<path d="M10585 1298 c-22 -12 -35 -28 -35 -42 0 -5 9 -1 20 9 13 12 27 15 45
11 42 -11 34 -57 -20 -115 -25 -26 -45 -51 -45 -55 0 -3 27 -6 59 -6 44 0 60
4 65 16 9 24 8 26 -13 14 -23 -12 -71 -14 -71 -2 0 4 16 23 35 41 19 19 38 43
41 54 10 30 -4 63 -31 75 -30 14 -25 14 -50 0z"/>
<path d="M10916 1281 c-15 -16 -31 -45 -36 -66 -11 -50 11 -133 41 -156 36
-28 44 -22 15 11 -35 42 -43 108 -21 166 9 25 23 48 31 51 15 6 19 23 6 23 -5
0 -21 -13 -36 -29z"/>
<path d="M11330 1307 c0 -5 8 -20 19 -33 10 -13 22 -40 25 -60 10 -51 -11
-141 -37 -159 -17 -12 -18 -15 -5 -15 40 0 86 101 74 165 -6 32 -75 125 -76
102z"/>
<path d="M2255 1290 l-70 -6 83 -2 c53 -1 81 2 77 8 -3 6 -9 9 -13 8 -4 -1
-38 -4 -77 -8z"/>
<path d="M4333 1267 c-49 -37 -58 -62 -17 -47 37 14 49 13 34 -5 -21 -25 4
-17 54 19 27 19 43 37 37 40 -6 4 -20 -3 -31 -14 -15 -15 -31 -20 -53 -18
l-32 3 33 20 c17 10 32 23 32 27 0 14 -14 8 -57 -25z"/>
<path d="M1956 1273 c-3 -3 -6 -19 -6 -34 0 -25 -4 -28 -37 -32 l-38 -4 38 -1
37 -2 0 -49 0 -50 -42 -4 c-24 -2 1 -4 54 -5 83 -2 97 0 92 13 -7 17 -20 20
-29 5 -3 -5 -19 -10 -34 -10 -27 0 -28 2 -26 48 2 46 3 47 39 50 35 3 46 14
27 27 -5 3 -12 1 -16 -5 -8 -13 -42 -13 -50 0 -3 5 -1 18 5 29 10 19 0 37 -14
24z"/>
<path d="M5523 1263 c-13 -2 -23 -11 -23 -18 0 -12 5 -12 25 -3 14 6 25 15 25
20 0 4 -1 7 -2 7 -2 -1 -13 -4 -25 -6z"/>
<path d="M6538 1246 c-20 -14 -24 -61 -8 -71 8 -5 7 -11 -1 -21 -6 -7 -9 -20
-6 -29 4 -8 2 -17 -3 -20 -14 -9 -12 -42 2 -51 20 -13 91 -5 110 13 10 9 18
24 18 34 0 19 -17 26 -74 31 -39 4 -47 28 -9 28 38 0 53 11 55 43 1 15 7 27
13 27 5 1 -5 7 -24 15 -40 18 -51 18 -73 1z m57 -41 c0 -38 -31 -47 -44 -13
-12 31 -3 50 23 46 16 -2 21 -10 21 -33z m31 -107 c12 -19 -27 -39 -61 -32
-37 8 -39 9 -32 29 8 18 82 21 93 3z"/>
<path d="M6063 1243 c-10 -3 -9 -8 2 -20 31 -30 9 -169 -23 -149 -6 3 -12 -1
-16 -9 -7 -19 20 -20 38 -2 6 6 35 40 64 75 50 61 63 94 42 107 -6 3 -10 -4
-10 -16 0 -12 -10 -38 -22 -58 l-23 -36 -9 58 c-9 54 -15 62 -43 50z"/>
<path d="M2207 1193 c1 -27 2 -50 2 -52 1 -2 7 1 14 6 6 5 23 8 37 6 53 -5 66
4 67 47 l2 40 -62 0 -62 0 2 -47z m95 19 c21 -21 1 -42 -42 -42 -35 0 -40 3
-40 23 0 13 2 26 4 28 9 8 67 2 78 -9z"/>
<path d="M2597 1233 c-175 -5 -156 -23 24 -23 117 0 139 2 139 15 0 8 -8 14
-17 13 -10 -1 -76 -4 -146 -5z"/>
<path d="M5063 1205 c2 -41 14 -45 27 -9 11 29 6 44 -15 44 -9 0 -13 -11 -12
-35z"/>
<path d="M6820 1220 c11 -11 20 -26 20 -33 0 -22 -29 -55 -53 -60 -21 -3 -21
-4 -3 -12 14 -6 24 -3 37 13 21 27 29 28 29 2 0 -11 5 -20 11 -20 18 0 49 20
49 32 0 9 -3 9 -12 0 -22 -22 -29 -13 -26 31 2 35 7 43 26 45 28 4 29 22 2 22
-11 0 -23 -7 -26 -15 -4 -8 -10 -15 -15 -15 -5 0 -9 7 -9 15 0 9 -9 15 -25 15
l-25 0 20 -20z"/>
<path d="M10187 1234 c-3 -4 -2 -15 3 -24 7 -13 4 -25 -11 -44 -27 -34 -39
-33 -39 3 0 46 -10 61 -39 60 -14 -1 -19 -3 -10 -6 18 -4 29 -44 29 -98 0 -33
-28 -68 -50 -63 -7 2 -15 -3 -17 -9 -3 -7 3 -13 13 -13 30 0 140 128 146 169
3 23 -12 38 -25 25z"/>
<path d="M10729 1216 c-7 -14 -8 -33 -4 -43 5 -10 7 -22 5 -28 -2 -5 -4 -19
-5 -30 -1 -11 -6 -28 -10 -37 -11 -28 3 -38 54 -38 36 0 53 5 67 21 28 31 8
53 -50 57 -58 4 -65 29 -8 34 34 3 37 6 40 36 2 21 9 32 19 32 36 0 0 13 -47
17 -45 4 -51 2 -61 -21z m61 -5 c13 -25 2 -53 -19 -49 -17 3 -26 31 -17 54 8
20 23 18 36 -5z m31 -122 c22 -13 -5 -33 -46 -33 -39 0 -50 7 -42 28 6 16 65
19 88 5z"/>
<path d="M4450 1215 c7 -9 11 -17 9 -20 -3 -2 -36 -7 -73 -11 -51 -5 -67 -4
-62 4 5 8 0 9 -15 3 -13 -4 -25 -13 -27 -20 -3 -9 9 -10 47 -5 l51 7 0 -42 c0
-37 -2 -42 -19 -36 -11 3 -22 2 -25 -4 -3 -5 6 -12 21 -16 32 -8 43 6 43 58 0
20 3 37 8 38 4 0 18 2 32 4 14 1 33 -4 43 -13 12 -11 17 -12 17 -3 0 18 -39
71 -52 71 -6 0 -6 -6 2 -15z"/>
<path d="M6265 1220 c-4 -6 23 -10 74 -10 47 0 81 4 81 10 0 6 -31 10 -74 10
-41 0 -78 -4 -81 -10z"/>
<path d="M11190 1220 c0 -5 6 -10 14 -10 8 0 17 -12 20 -26 8 -30 -16 -64 -46
-64 -10 0 -18 -4 -18 -10 0 -16 47 -12 54 5 3 8 10 15 16 15 5 0 10 -7 10 -15
0 -20 34 -19 51 1 12 15 11 16 -9 10 -16 -5 -22 -3 -22 8 0 8 -2 20 -5 28 -7
18 8 39 30 42 11 2 21 8 23 14 6 19 -29 14 -44 -5 -13 -17 -15 -17 -25 0 -11
18 -49 24 -49 7z"/>
<path d="M4050 1209 l-65 -6 78 -1 c42 -1 77 0 77 2 0 9 -29 11 -90 5z"/>
<path d="M7492 1190 c12 -16 26 -30 30 -30 10 0 2 16 -20 43 -25 29 -34 19
-10 -13z"/>
<path d="M8516 1212 c6 -4 16 -17 23 -29 13 -26 31 -31 31 -9 0 13 -41 46 -57
46 -4 0 -3 -4 3 -8z"/>
<path d="M10300 1210 c0 -6 33 -10 82 -10 45 0 79 2 76 5 -10 11 -158 15 -158
5z"/>
<path d="M11889 1193 c5 -10 16 -27 25 -38 21 -27 21 -1 0 30 -19 29 -40 35
-25 8z"/>
<path d="M12952 1170 c21 -28 38 -39 38 -22 -1 13 -38 52 -49 52 -7 0 -2 -13
11 -30z"/>
<path d="M10983 1178 c-2 -5 33 -7 79 -7 84 2 77 6 -20 11 -30 2 -56 0 -59 -4z"/>
<path d="M3967 1168 c-7 -4 9 -8 36 -8 l47 0 0 -45 c0 -25 5 -45 10 -45 6 0
10 20 10 45 l0 45 52 0 c28 0 48 3 44 7 -9 9 -185 10 -199 1z"/>
<path d="M6325 1169 c-59 -5 -63 -6 -25 -8 71 -5 110 -4 116 1 10 11 -22 13
-91 7z"/>
<path d="M5530 1151 c5 -11 15 -23 20 -26 14 -9 12 19 -2 33 -19 19 -30 14
-18 -7z"/>
<path d="M12557 1144 c-15 -13 -37 -24 -48 -24 -10 0 -19 -4 -19 -10 0 -14 5
-13 52 10 23 11 44 18 46 15 10 -10 -22 -35 -59 -47 -22 -6 -39 -15 -39 -20 0
-13 18 -9 61 13 43 22 55 20 45 -6 -4 -11 -13 -14 -28 -10 -18 5 -20 4 -8 -4
30 -21 50 -13 50 19 0 35 10 38 35 10 19 -21 65 -28 65 -10 0 6 -8 10 -17 10
-10 0 -29 9 -43 19 l-24 19 27 13 c15 7 27 16 27 21 0 13 -22 9 -42 -9 -16
-15 -20 -15 -35 0 -17 14 -20 13 -46 -9z"/>
<path d="M10303 1153 c7 -7 149 -4 156 3 2 2 -33 4 -79 4 -46 0 -80 -3 -77 -7z"/>
<path d="M3992 1120 c-13 -16 -19 -30 -14 -30 10 0 52 43 52 53 0 16 -18 5
-38 -23z"/>
<path d="M4090 1144 c0 -7 54 -53 63 -54 18 0 4 20 -28 39 -19 11 -35 18 -35
15z"/>
<path d="M4277 1118 c-26 -17 -46 -33 -44 -35 7 -6 67 19 67 28 0 5 6 9 14 9
7 0 19 7 26 15 21 25 -9 17 -63 -17z"/>
<path d="M4430 1140 c0 -5 4 -10 9 -10 5 0 23 -11 39 -25 17 -14 33 -22 36
-17 7 11 -4 24 -36 45 -31 19 -48 22 -48 7z"/>
<path d="M9076 1112 c-3 -9 -9 -23 -12 -31 -4 -8 -2 -12 6 -9 16 5 32 46 21
53 -5 2 -11 -3 -15 -13z"/>
<path d="M9110 1095 c0 -14 5 -25 10 -25 6 0 10 11 10 25 0 14 -4 25 -10 25
-5 0 -10 -11 -10 -25z"/>
<path d="M9150 1103 c0 -13 5 -23 10 -23 13 0 13 11 0 30 -8 12 -10 11 -10 -7z"/>
<path d="M9180 1111 c0 -5 5 -13 10 -16 6 -3 10 -2 10 4 0 5 -4 13 -10 16 -5
3 -10 2 -10 -4z"/>
<path d="M8930 1103 c1 -13 51 -46 58 -38 4 3 -4 15 -18 25 -26 21 -40 25 -40
13z"/>
<path d="M13478 1085 c-6 -28 6 -34 16 -9 8 22 7 34 -3 34 -5 0 -11 -11 -13
-25z"/>
<path d="M13520 1086 c0 -14 5 -26 10 -26 6 0 10 9 10 19 0 11 -4 23 -10 26
-6 4 -10 -5 -10 -19z"/>
<path d="M13550 1098 c0 -7 5 -20 10 -28 8 -12 10 -11 10 7 0 12 -4 25 -10 28
-5 3 -10 0 -10 -7z"/>
<path d="M13580 1103 c0 -4 5 -15 10 -23 8 -13 10 -13 10 2 0 9 -4 20 -10 23
-5 3 -10 3 -10 -2z"/>
<path d="M13340 1091 c0 -11 39 -41 53 -41 13 0 -12 29 -35 41 -12 6 -18 6
-18 0z"/>
<path d="M1935 901 c-19 -8 -19 -8 3 -15 12 -4 22 -13 22 -20 0 -7 9 -25 21
-40 l20 -26 -90 0 -90 0 29 44 c32 46 35 56 22 56 -5 0 -14 -11 -20 -24 -6
-14 -28 -43 -48 -65 -26 -29 -32 -41 -20 -41 9 0 16 5 16 10 0 15 70 12 76 -3
9 -24 -15 -68 -58 -108 -45 -42 -44 -50 4 -21 19 11 40 40 59 80 28 58 32 62
65 62 30 0 34 -3 34 -27 0 -16 -3 -45 -7 -66 -6 -38 -7 -39 -40 -32 -40 7 -38
-9 3 -19 38 -10 54 9 54 64 0 68 7 80 44 80 l31 0 -35 22 c-44 28 -59 47 -60
76 0 24 -4 25 -35 13z"/>
<path d="M2188 902 l-58 -3 0 -54 c0 -47 2 -53 17 -48 14 6 15 0 10 -46 -3
-28 -15 -65 -27 -80 -27 -39 -25 -52 3 -19 13 15 30 45 37 68 12 35 17 41 39
38 14 -2 25 -6 24 -10 -2 -5 -3 -27 -3 -49 0 -39 -2 -41 -25 -37 -28 6 -34 -6
-9 -16 33 -13 42 -6 49 37 3 23 8 54 11 69 5 26 4 26 -36 21 -37 -5 -42 -4
-38 13 2 14 13 20 38 22 34 3 35 4 37 47 1 25 -2 46 -5 47 -4 2 -33 2 -64 0z
m50 -49 c-3 -25 -7 -28 -45 -31 -42 -3 -43 -2 -43 27 0 30 1 31 46 31 44 0 45
-1 42 -27z"/>
<path d="M2353 878 c1 -18 0 -75 -1 -125 l-2 -93 -27 -1 c-25 0 -26 -1 -8 -9
53 -23 55 -19 55 109 0 71 4 122 10 126 13 8 3 25 -14 25 -8 0 -13 -12 -13
-32z"/>
<path d="M2489 891 c17 -30 14 -34 -19 -27 -17 3 -30 1 -30 -4 0 -11 1 -11 50
-12 65 -1 81 2 75 12 -4 6 -15 8 -26 5 -13 -4 -19 -2 -19 9 0 8 -9 20 -21 26
-19 10 -20 10 -10 -9z"/>
<path d="M2890 885 c0 -30 -16 -33 -23 -5 -3 11 -10 20 -17 20 -7 0 -9 -8 -5
-20 5 -16 2 -20 -15 -20 -12 0 -19 -4 -16 -8 3 -5 19 -7 36 -4 24 3 30 1 30
-14 -1 -26 -34 -97 -65 -138 -14 -18 -25 -37 -25 -41 0 -14 41 28 56 58 15 28
16 28 102 25 l87 -3 -3 -30 c-5 -40 -18 -54 -45 -48 -17 5 -19 3 -11 -6 7 -7
22 -11 35 -9 19 2 26 12 34 43 6 22 13 45 17 51 10 15 -1 24 -29 24 -24 0 -33
25 -11 32 6 2 8 10 4 17 -5 7 -14 10 -22 7 -11 -4 -14 1 -12 21 3 26 2 27 -46
24 -48 -3 -48 -2 -42 23 4 15 2 26 -4 26 -5 0 -10 -11 -10 -25z m80 -56 c0
-15 -7 -19 -40 -19 -27 0 -40 4 -40 13 0 21 8 25 46 25 27 0 34 -4 34 -19z
m30 -49 c0 -18 -6 -20 -65 -20 -61 0 -65 1 -56 18 8 15 23 19 66 21 49 1 55
-1 55 -19z"/>
<path d="M2583 885 c2 -5 24 -8 50 -6 52 3 64 -9 53 -55 -6 -24 -11 -26 -51
-22 l-45 3 0 -76 c0 -85 3 -89 70 -89 21 0 45 3 54 6 18 7 22 59 6 69 -6 4
-10 -5 -10 -20 0 -31 -29 -45 -74 -35 -30 6 -31 7 -31 65 l0 60 50 5 50 5 2
50 1 50 -64 0 c-36 0 -63 -4 -61 -10z"/>
<path d="M3710 889 c-30 -3 -43 -6 -28 -7 15 -1 29 -5 31 -9 3 -5 1 -37 -4
-72 -9 -62 -39 -127 -66 -144 -7 -4 -13 -13 -13 -19 0 -16 39 22 66 64 13 21
24 46 24 57 0 31 17 34 24 5 4 -15 14 -33 21 -41 26 -25 17 -40 -37 -64 -29
-12 -46 -24 -38 -26 9 -2 37 8 63 22 l48 25 39 -20 c41 -21 85 -27 75 -10 -3
6 -16 10 -28 10 -24 1 -57 22 -57 37 0 6 11 31 25 57 32 60 31 67 -5 60 -28
-6 -29 -5 -21 22 18 60 18 58 -24 59 -22 0 -65 -3 -95 -6z m102 -14 c2 -3 3
-18 0 -35 -4 -27 -8 -30 -43 -30 -38 0 -39 1 -39 35 0 34 1 35 38 35 21 0 41
-2 44 -5z m33 -104 c-8 -32 -37 -63 -50 -53 -18 12 -46 62 -41 71 3 4 26 8 51
8 45 0 46 -1 40 -26z"/>
<path d="M4858 888 c19 -19 14 -28 -14 -28 -14 0 -23 -4 -19 -10 3 -5 30 -10
60 -10 30 0 57 5 60 10 6 10 -6 14 -37 11 -9 -1 -19 7 -23 19 -3 11 -14 20
-23 20 -12 0 -13 -3 -4 -12z"/>
<path d="M4980 876 c0 -12 -9 -34 -20 -51 -26 -39 -26 -53 0 -30 11 10 24 32
28 49 6 21 15 32 30 34 20 3 22 -1 22 -37 0 -35 4 -42 24 -47 14 -3 33 -1 43
5 15 9 13 10 -15 11 -33 0 -33 0 -30 43 l3 42 -43 1 c-36 0 -42 -3 -42 -20z"/>
<path d="M5786 891 c-4 -6 -2 -11 3 -11 21 0 11 -29 -11 -33 -16 -3 -13 -5 10
-6 30 -1 33 1 27 22 -10 30 -21 41 -29 28z"/>
<path d="M5834 853 c-8 -58 -33 -116 -68 -162 -14 -19 -23 -37 -20 -40 3 -3
14 5 23 19 40 62 52 68 137 66 86 -2 94 -8 75 -59 -7 -17 -19 -27 -38 -29
l-28 -4 29 -9 c34 -9 56 12 56 55 0 14 5 31 11 37 16 16 3 32 -22 26 -18 -5
-20 -2 -17 23 2 23 -1 28 -15 26 -14 -2 -17 3 -15 25 3 28 2 28 -44 25 -45 -4
-63 8 -38 23 15 9 12 25 -4 25 -10 0 -17 -16 -22 -47z m86 -33 c0 -17 -7 -20
-40 -20 -27 0 -40 4 -40 13 0 21 11 27 47 27 26 0 33 -4 33 -20z m30 -50 c0
-18 -7 -20 -64 -20 -59 0 -64 2 -59 20 5 17 14 20 64 20 52 0 59 -2 59 -20z"/>
<path d="M6880 774 l0 -125 -55 2 c-30 1 -58 0 -62 -4 -3 -4 58 -7 136 -7 110
0 142 3 138 13 -2 6 -11 10 -18 8 -8 -3 -38 -7 -66 -9 l-53 -4 0 66 0 66 43 2
c23 0 50 1 60 0 9 -1 17 2 17 8 0 14 -19 22 -32 14 -6 -4 -28 -7 -47 -7 -33 0
-36 2 -39 32 -2 18 2 38 8 45 8 10 6 15 -6 20 -8 3 -18 6 -20 6 -2 0 -4 -57
-4 -126z"/>
<path d="M7144 875 c-3 -14 -12 -25 -20 -25 -11 0 -14 -21 -14 -97 l0 -98 45
0 45 -1 2 83 c0 46 1 89 2 96 1 7 -9 11 -26 9 -31 -3 -36 9 -13 28 8 7 12 16
9 21 -10 17 -24 9 -30 -16z m38 -75 c-5 -45 -56 -54 -58 -10 -1 36 4 42 34 38
22 -2 26 -8 24 -28z m-2 -86 c0 -32 -2 -35 -27 -32 -44 5 -41 68 3 68 21 0 24
-5 24 -36z"/>
<path d="M7240 875 c0 -15 -7 -40 -16 -56 -8 -17 -14 -35 -12 -41 2 -6 12 5
22 25 16 34 20 37 61 37 l45 0 -1 -67 c-1 -100 -9 -118 -47 -118 -38 0 -41 -8
-7 -23 49 -23 59 -6 70 118 3 36 8 73 11 83 5 15 -2 17 -50 17 -52 0 -78 11
-56 25 15 9 12 25 -5 25 -9 0 -15 -9 -15 -25z"/>
<path d="M7960 820 l0 -82 -25 4 c-17 4 -25 1 -25 -8 0 -8 -9 -15 -20 -15 -11
-1 -25 -2 -32 -3 -6 -1 -13 5 -15 12 -3 8 6 12 26 12 17 0 31 5 31 10 0 6 -13
10 -30 10 -32 0 -37 9 -18 28 9 9 9 12 -2 12 -10 0 -9 4 3 18 10 10 17 25 17
32 0 9 -5 7 -15 -6 -14 -19 -14 -18 -15 4 0 15 6 22 19 22 21 0 33 -39 19 -63
-5 -10 -4 -18 3 -22 15 -10 17 -6 20 50 2 35 0 50 -9 49 -7 -1 -37 -2 -67 -2
l-55 -2 0 -50 c0 -51 4 -57 30 -40 13 8 12 10 -2 10 -10 0 -18 6 -18 14 0 20
17 29 23 14 4 -9 6 -10 6 -1 1 6 -3 15 -9 18 -17 11 -11 25 10 25 19 0 21 -5
17 -57 l-3 -58 -32 3 c-18 1 -32 -2 -32 -8 0 -5 16 -10 36 -10 24 0 34 -4 31
-12 -2 -7 -18 -13 -35 -12 -18 0 -32 -3 -32 -9 0 -5 32 -8 75 -5 l75 3 1 -30
c1 -16 1 -33 0 -37 0 -5 108 0 116 6 1 0 3 24 4 51 3 49 3 50 -26 50 -30 0
-33 8 -26 65 0 6 15 10 32 10 18 0 28 4 24 10 -3 6 -18 7 -32 4 -23 -6 -25 -4
-21 26 2 20 -2 35 -9 37 -10 4 -13 -16 -13 -77z m50 -130 l0 -40 -40 0 -40 0
0 40 0 40 40 0 40 0 0 -40z"/>
<path d="M8135 863 c-3 -21 -15 -53 -26 -71 -22 -38 -25 -52 -7 -34 22 22 25
13 20 -62 -3 -43 0 -76 6 -79 6 -4 11 37 14 113 2 74 9 125 16 132 16 16 15
38 -2 38 -8 0 -17 -15 -21 -37z"/>
<path d="M8255 880 c6 -18 2 -20 -39 -20 -25 0 -46 -4 -46 -9 0 -5 19 -9 42
-8 25 1 43 -3 45 -10 3 -9 -7 -13 -31 -13 -32 0 -36 -3 -42 -35 -7 -42 -2 -50
33 -50 29 0 37 -12 23 -35 -8 -13 -11 -12 -24 5 -9 11 -16 15 -16 8 0 -6 5
-15 10 -18 19 -12 10 -33 -22 -54 -18 -11 -27 -21 -19 -21 7 0 28 9 46 20 33
20 33 20 76 0 48 -21 89 -26 89 -10 0 6 -7 10 -15 10 -13 0 -106 29 -113 34
-1 2 5 17 14 35 14 29 19 31 50 25 l34 -6 0 45 c0 46 0 46 -37 49 -49 4 -40
23 12 24 57 2 62 3 46 13 -7 5 -31 6 -52 4 -35 -5 -39 -3 -39 16 0 12 -6 21
-16 21 -11 0 -14 -6 -9 -20z m5 -105 c0 -21 -5 -25 -30 -25 -25 0 -30 4 -30
25 0 21 5 25 30 25 25 0 30 -4 30 -25z m70 0 c0 -20 -5 -25 -24 -25 -14 0 -27
4 -30 9 -11 18 6 41 30 41 19 0 24 -5 24 -25z"/>
<path d="M8480 879 c-7 -13 -22 -32 -34 -41 -11 -9 -18 -20 -14 -23 3 -4 24 9
45 28 29 27 35 39 26 47 -8 9 -14 7 -23 -11z"/>
<path d="M8550 835 l0 -50 60 3 60 4 0 39 c0 21 -1 42 -2 46 -2 3 -29 7 -61 7
l-57 1 0 -50z m100 20 c0 -16 -64 -22 -74 -6 -9 14 5 21 41 21 23 0 33 -5 33
-15z m0 -40 c0 -11 -11 -15 -40 -15 -29 0 -40 4 -40 15 0 11 11 15 40 15 29 0
40 -4 40 -15z"/>
<path d="M10157 861 c-6 -17 -17 -29 -23 -27 -9 3 -13 -23 -16 -92 -2 -53 -3
-99 -1 -101 2 -3 9 1 15 7 15 15 55 16 63 2 14 -22 25 4 25 56 0 41 5 60 20
76 11 12 20 28 20 35 0 10 13 13 48 11 l47 -3 -3 -50 c-1 -27 -5 -70 -8 -93
-6 -44 -6 -44 -40 -38 -38 8 -48 -8 -11 -18 61 -16 72 4 80 141 l5 81 -54 -5
c-35 -4 -54 -2 -54 5 0 6 5 14 10 17 11 7 4 25 -9 25 -4 0 -16 -26 -26 -57
-18 -54 -20 -56 -23 -26 -3 30 -5 32 -33 26 -32 -6 -37 2 -13 28 11 12 12 19
4 24 -7 4 -16 -6 -23 -24z m43 -71 c0 -28 -3 -30 -35 -30 -32 0 -35 2 -35 30
0 28 3 30 35 30 32 0 35 -2 35 -30z m0 -85 c0 -33 -2 -35 -35 -35 -33 0 -35 2
-35 35 0 33 2 35 35 35 33 0 35 -2 35 -35z"/>
<path d="M10835 878 c-61 -21 -61 -21 -37 -25 27 -5 29 -33 2 -33 -11 0 -20
-4 -20 -10 0 -5 9 -10 20 -10 17 0 19 -4 14 -27 -4 -16 -13 -37 -20 -48 -21
-30 -16 -43 6 -16 l20 23 0 -61 c0 -34 4 -61 10 -61 6 0 10 32 10 77 0 75 0
76 20 58 18 -16 20 -16 20 -2 0 9 -9 21 -20 27 -35 19 -22 31 28 27 26 -3 38
-2 27 0 -11 3 -24 9 -29 14 -6 5 -18 9 -29 9 -25 0 -18 31 11 46 12 6 19 14
15 17 -7 8 -9 8 -48 -5z"/>
<path d="M10960 876 c0 -10 -13 -16 -37 -19 l-38 -4 38 -1 c46 -2 49 -19 5
-25 l-33 -4 34 -1 c25 -2 32 -6 27 -17 -4 -12 5 -15 55 -15 33 0 58 4 55 9 -3
5 -23 7 -45 4 -36 -5 -38 -4 -38 21 0 24 3 26 38 26 22 0 39 5 39 10 0 7 -13
8 -35 4 -28 -5 -35 -3 -35 10 0 9 -7 16 -15 16 -8 0 -15 -6 -15 -14z"/>
<path d="M2298 800 c-3 -75 3 -103 16 -82 10 17 9 156 -2 160 -7 2 -12 -25
-14 -78z"/>
<path d="M3350 785 c-63 -84 -76 -115 -51 -115 4 0 11 15 16 33 8 26 16 33 43
35 27 3 32 0 32 -19 0 -12 -7 -27 -16 -33 -13 -10 -9 -12 24 -12 30 1 38 4 30
13 -6 7 -7 47 -3 102 4 50 5 91 2 91 -3 0 -37 -43 -77 -95z m48 -12 c-2 -9
-13 -18 -25 -19 -29 -5 -29 0 -1 39 18 25 23 28 26 14 2 -9 2 -24 0 -34z"/>
<path d="M4156 866 c6 -14 -27 -130 -46 -167 -11 -19 -9 -20 57 -17 62 3 69 5
83 30 13 24 13 31 1 50 -12 19 -11 23 3 34 26 19 28 52 3 69 -28 20 -109 21
-101 1z m86 -19 c15 -24 -13 -57 -49 -57 -27 0 -27 2 -11 47 10 27 16 32 33
27 11 -4 23 -11 27 -17z m-15 -93 c10 -26 -25 -64 -57 -64 -31 0 -36 9 -21 38
5 9 12 24 14 33 6 20 56 14 64 -7z"/>
<path d="M5376 871 c-3 -5 -1 -11 6 -13 9 -3 8 -14 -5 -40 -9 -20 -17 -43 -17
-52 0 -10 -9 -35 -19 -56 l-19 -40 23 0 c18 0 22 4 18 19 -3 11 3 44 13 73
l18 53 11 -75 10 -75 54 73 c30 40 56 70 58 68 9 -9 -30 -116 -45 -126 -13 -7
-6 -9 28 -10 30 0 40 3 31 9 -12 8 -11 20 5 82 10 41 27 81 36 91 9 9 14 18
12 21 -14 13 -45 -12 -99 -81 l-60 -76 -10 79 c-8 61 -14 81 -27 83 -9 2 -19
-1 -22 -7z"/>
<path d="M10459 868 c-15 -4 0 -6 39 -7 63 -1 73 -9 53 -40 -6 -10 -21 -12
-50 -8 l-41 5 0 -96 0 -97 120 0 120 0 0 75 c0 41 3 84 6 96 5 20 3 21 -72 16
l-78 -5 15 24 c14 21 26 24 83 27 36 2 66 6 66 10 0 9 -229 9 -261 0z m66
-148 c0 -68 -2 -75 -20 -75 -18 0 -20 8 -23 64 -4 75 2 94 25 89 15 -3 18 -15
18 -78z m85 60 c0 -15 -7 -20 -28 -20 -34 0 -43 7 -35 26 3 8 18 14 34 14 22
0 29 -5 29 -20z m70 -60 c0 -79 0 -80 -25 -80 -25 0 -25 1 -25 80 0 79 0 80
25 80 25 0 25 -1 25 -80z m-70 10 c0 -15 -7 -20 -28 -20 -34 0 -43 7 -35 26 3
8 18 14 34 14 22 0 29 -5 29 -20z m0 -66 c0 -23 -3 -25 -32 -22 -26 2 -33 8
-34 26 -1 19 4 22 32 22 30 0 34 -3 34 -26z"/>
<path d="M11180 861 c8 -16 6 -20 -13 -24 -13 -3 -7 -5 17 -6 36 -1 38 -2 31
-28 -10 -42 -46 -112 -73 -140 -13 -14 -21 -27 -18 -30 8 -9 26 8 52 48 l24
39 85 0 c46 0 86 -3 89 -8 2 -4 1 -23 -3 -42 -6 -29 -11 -35 -33 -35 -15 1
-24 -3 -22 -7 8 -13 52 -9 61 5 14 21 30 97 22 102 -4 3 -15 2 -25 -2 -15 -5
-16 -2 -11 25 6 28 4 32 -14 32 -18 0 -20 4 -15 25 6 24 5 25 -44 25 -47 0
-51 2 -45 20 5 14 2 20 -10 20 -9 0 -14 -4 -11 -8 2 -4 1 -14 -4 -21 -6 -10
-9 -8 -15 8 -3 11 -13 21 -21 21 -11 0 -12 -4 -4 -19z m130 -53 c0 -14 -8 -18
-40 -18 -27 0 -40 4 -40 13 0 21 10 26 46 25 26 -1 34 -6 34 -20z m30 -59 c0
-18 -5 -20 -60 -18 -34 1 -63 6 -66 11 -12 19 10 28 67 28 53 0 59 -2 59 -21z"/>
<path d="M12848 853 c-7 -16 -20 -28 -28 -28 -12 0 -16 -19 -18 -97 -2 -90 5
-118 23 -88 3 6 17 10 30 10 13 0 27 -4 30 -10 16 -25 25 -5 25 55 0 36 4 65
9 65 6 0 16 12 23 28 11 23 20 27 62 30 l49 3 -7 -80 c-8 -104 -12 -111 -50
-111 -26 -1 -28 -2 -13 -11 10 -6 28 -9 40 -7 18 2 24 13 34 63 6 33 13 83 14
110 l3 50 -57 -3 c-53 -4 -74 7 -47 23 15 9 12 25 -4 25 -8 0 -18 -18 -25 -42
-16 -63 -31 -81 -31 -40 0 30 -2 32 -25 26 -19 -5 -25 -2 -25 10 0 9 5 16 10
16 6 0 10 7 10 15 0 24 -18 17 -32 -12z m42 -72 c0 -23 -5 -30 -27 -34 -33 -6
-32 -6 -38 23 -6 32 1 40 36 40 25 0 29 -4 29 -29z m0 -86 c0 -33 -2 -35 -35
-35 -32 0 -35 3 -35 28 0 36 6 42 42 42 25 0 28 -3 28 -35z"/>
<path d="M13374 869 c-4 -7 -48 -9 -120 -7 -63 2 -114 0 -114 -4 0 -4 25 -8
55 -8 37 0 55 -4 55 -12 0 -28 -18 -40 -55 -37 l-37 4 -2 -95 -1 -95 117 0
118 0 0 88 c0 48 -1 90 -2 94 -2 4 -33 6 -70 4 -70 -3 -77 1 -54 32 10 13 28
17 80 17 36 0 66 4 66 9 0 14 -29 21 -36 10z m-156 -156 c-3 -65 -6 -78 -20
-81 -16 -3 -18 6 -18 77 0 75 2 81 20 81 19 0 21 -5 18 -77z m82 56 c0 -16 -5
-20 -27 -17 -17 2 -29 10 -31 21 -3 13 3 17 27 17 25 0 31 -4 31 -21z m70 -59
c0 -79 0 -80 -25 -80 -25 0 -25 1 -25 80 0 79 0 80 25 80 25 0 25 -1 25 -80z
m-70 5 c0 -21 -5 -25 -30 -25 -22 0 -30 5 -30 18 0 25 9 32 37 32 18 0 23 -5
23 -25z m0 -60 c0 -21 -5 -25 -30 -25 -25 0 -30 4 -30 25 0 21 5 25 30 25 25
0 30 -4 30 -25z"/>
<path d="M13525 870 c-3 -5 -15 -10 -25 -10 -10 0 -22 -5 -25 -11 -4 -6 0 -9
11 -7 13 2 19 -3 19 -17 0 -14 -6 -20 -22 -19 -13 0 -23 -3 -23 -8 0 -4 9 -8
20 -8 17 0 19 -4 14 -27 -4 -16 -13 -40 -21 -55 -7 -16 -9 -28 -4 -28 5 0 13
9 16 20 3 11 11 20 16 20 6 0 7 -23 3 -60 -5 -42 -3 -60 5 -60 7 0 11 26 11
75 0 41 3 75 6 75 4 0 13 -8 20 -17 11 -15 13 -15 14 -3 0 8 -8 20 -18 27 -13
7 -19 24 -20 52 -2 36 1 41 23 47 14 3 22 10 19 15 -7 12 -31 11 -39 -1z"/>
<path d="M13643 866 c-4 -8 -24 -16 -43 -19 l-35 -4 38 -1 c46 -2 49 -19 5
-25 l-33 -4 33 -1 c43 -3 41 -22 -3 -22 -19 0 -35 5 -35 10 0 6 -7 10 -15 10
-19 0 -19 -10 0 -24 18 -13 198 -9 190 4 -3 4 -23 6 -45 3 -26 -4 -40 -2 -40
6 0 6 16 11 35 11 19 0 35 5 35 10 0 7 -13 8 -37 4 l-36 -7 6 32 c7 32 -6 42
-20 17z"/>
<path d="M6360 861 c0 -5 -6 -16 -13 -23 -7 -7 -32 -39 -55 -70 -23 -32 -52
-67 -64 -78 l-22 -20 31 0 c26 0 30 3 26 19 -6 23 38 56 62 47 18 -7 20 -37 3
-54 -9 -9 -5 -12 21 -12 26 0 31 3 23 13 -7 8 -8 35 -2 82 12 91 12 105 0 105
-5 0 -10 -4 -10 -9z m-12 -78 c-2 -20 -9 -29 -25 -31 -13 -2 -23 1 -23 7 0 6
4 11 9 11 5 0 13 9 16 20 9 30 27 24 23 -7z"/>
<path d="M6468 861 c11 -6 9 -23 -9 -87 -12 -43 -28 -84 -36 -90 -22 -18 -16
-20 53 -14 53 5 70 10 85 29 24 29 24 47 2 61 -17 10 -16 12 5 26 24 18 29 53
10 72 -7 7 -37 12 -67 12 -34 0 -51 -4 -43 -9z m80 -13 c20 -20 14 -48 -14
-58 -14 -6 -29 -8 -34 -5 -15 9 10 75 29 75 4 0 12 -5 19 -12z m-8 -98 c14
-27 -2 -56 -35 -64 -38 -10 -44 -1 -33 44 9 32 15 40 34 40 13 0 28 -9 34 -20z"/>
<path d="M9033 790 c-67 -141 -70 -130 36 -130 50 0 91 2 91 5 0 2 -12 30 -26
62 -40 88 -52 117 -56 133 -3 8 -23 -23 -45 -70z m78 -87 c8 -22 7 -23 -51
-23 -33 0 -60 2 -60 4 0 6 44 98 54 115 9 14 21 -7 57 -96z"/>
<path d="M9248 844 c-92 -66 -85 -189 10 -186 45 2 81 27 104 73 24 45 23 90
-2 117 -28 29 -67 28 -112 -4z m101 -12 c19 -36 -18 -130 -60 -152 -38 -21
-79 1 -79 42 0 29 30 90 54 110 28 23 73 23 85 0z"/>
<path d="M9440 861 c0 -5 5 -11 12 -13 9 -3 9 -11 0 -34 -6 -16 -16 -48 -22
-72 -6 -24 -20 -52 -31 -63 -19 -19 -18 -19 44 -19 85 1 113 21 104 78 -5 29
-3 43 8 52 18 15 19 44 3 57 -18 14 -118 26 -118 14z m84 -17 c9 -3 16 -13 16
-22 0 -21 -29 -52 -49 -53 -10 0 -8 -3 7 -9 22 -9 28 -33 16 -64 -4 -10 -18
-16 -41 -16 -24 0 -34 4 -30 13 2 6 14 45 27 85 23 73 26 77 54 66z"/>
<path d="M9630 861 c0 -5 5 -11 11 -13 14 -5 -37 -159 -58 -175 -15 -11 -13
-13 15 -13 23 0 30 4 26 14 -3 8 2 41 12 73 l17 58 9 -50 c19 -106 14 -102 56
-50 20 26 47 59 59 74 l22 26 -9 -37 c-4 -21 -17 -53 -29 -73 l-20 -35 36 0
c28 0 33 3 25 13 -15 18 23 146 51 170 11 10 17 20 14 23 -15 15 -50 -13 -104
-81 -32 -41 -61 -75 -65 -75 -5 0 -8 19 -8 43 0 23 -3 59 -6 80 -6 31 -11 37
-30 37 -13 0 -24 -4 -24 -9z"/>
<path d="M11727 766 c-26 -54 -45 -102 -41 -107 7 -12 151 -12 158 0 3 5 -8
44 -25 87 -17 44 -34 88 -38 98 -6 15 -17 -1 -54 -78z m65 -28 c10 -29 18 -57
18 -63 0 -6 -24 -10 -55 -10 -30 0 -55 3 -55 6 0 14 63 130 68 125 3 -3 14
-29 24 -58z"/>
<path d="M11951 841 c-92 -49 -94 -191 -3 -191 69 0 132 66 132 138 0 31 -5
41 -29 55 -36 21 -57 21 -100 -2z m80 -1 c35 -19 17 -112 -30 -159 -25 -25
-76 -28 -85 -5 -21 54 10 138 58 159 17 7 32 14 34 14 2 1 12 -4 23 -9z"/>
<path d="M13695 850 c-17 -7 -14 -9 13 -9 20 -1 31 3 27 9 -7 12 -13 12 -40 0z"/>
<path d="M12185 788 c-27 -33 -62 -78 -77 -99 -26 -36 -27 -39 -8 -39 13 0 20
7 20 18 0 25 31 52 58 52 18 0 22 -6 22 -29 0 -16 -6 -32 -12 -34 -7 -3 5 -6
27 -6 27 0 35 2 26 8 -11 7 -12 27 -7 100 4 50 6 91 4 91 -2 0 -25 -28 -53
-62z m25 -28 c0 -23 -4 -30 -20 -30 -25 0 -25 13 -3 40 22 26 23 26 23 -10z"/>
<path d="M12337 839 c8 -8 4 -32 -14 -87 -14 -43 -30 -83 -36 -89 -7 -10 -3
-13 17 -13 15 0 24 4 21 10 -8 12 17 130 27 130 4 0 9 -19 9 -42 1 -24 4 -56
8 -73 l6 -30 40 50 c22 28 48 62 57 75 32 47 13 -39 -22 -102 -9 -15 -6 -18
20 -18 22 0 28 4 24 15 -8 20 35 157 54 173 14 10 12 12 -11 12 -15 0 -27 -4
-27 -8 0 -5 -13 -23 -30 -42 -16 -18 -40 -48 -52 -66 -13 -19 -26 -34 -29 -34
-7 0 -19 77 -19 121 0 25 -4 29 -27 29 -20 0 -24 -3 -16 -11z"/>
<path d="M8490 818 c-5 -13 -20 -36 -34 -52 -31 -35 -32 -40 -6 -26 19 10 20
8 20 -60 0 -45 4 -69 10 -65 6 3 10 39 10 80 0 71 14 125 32 125 4 0 8 5 8 10
0 19 -31 10 -40 -12z"/>
<path d="M11028 823 c7 -3 16 -2 19 1 4 3 -2 6 -13 5 -11 0 -14 -3 -6 -6z"/>
<path d="M2460 810 c0 -5 23 -10 50 -10 28 0 50 5 50 10 0 6 -22 10 -50 10
-27 0 -50 -4 -50 -10z"/>
<path d="M4840 810 c0 -5 20 -10 45 -10 25 0 45 5 45 10 0 6 -20 10 -45 10
-25 0 -45 -4 -45 -10z"/>
<path d="M4487 794 c-11 -11 -8 -52 3 -59 6 -3 19 -3 31 0 28 9 23 59 -6 63
-12 2 -24 0 -28 -4z m36 -18 c7 -16 -1 -26 -20 -26 -7 0 -13 9 -13 20 0 23 25
27 33 6z"/>
<path d="M7665 779 c-6 -8 -40 -10 -121 -7 -63 3 -114 1 -114 -3 0 -5 61 -9
136 -9 100 0 135 3 132 12 -6 17 -25 21 -33 7z"/>
<path d="M2460 768 c0 -5 23 -8 50 -8 28 0 50 4 50 8 0 5 -22 8 -50 8 -27 -1
-50 -4 -50 -8z"/>
<path d="M4870 770 c-34 -7 -34 -7 13 -9 30 0 46 3 42 9 -3 6 -9 9 -13 9 -4
-1 -23 -5 -42 -9z"/>
<path d="M7250 772 c1 -12 40 -55 46 -49 8 8 -13 44 -31 51 -8 3 -15 2 -15 -2z"/>
<path d="M4975 728 c14 -24 25 -46 25 -50 0 -4 -18 -17 -41 -28 -23 -12 -39
-24 -36 -26 3 -3 27 6 54 19 48 25 49 25 73 6 26 -19 70 -26 70 -10 0 5 -16
12 -36 15 -46 9 -51 26 -20 75 l26 41 -69 0 -70 0 24 -42z m85 25 c0 -5 -9
-19 -20 -33 l-20 -25 -20 24 c-29 34 -25 41 20 41 22 0 40 -3 40 -7z"/>
<path d="M8510 758 c0 -5 29 -8 65 -8 37 0 65 -4 65 -10 0 -6 -30 -10 -71 -10
-45 0 -68 -4 -64 -10 4 -6 34 -9 68 -8 l62 3 3 -32 c3 -31 1 -33 -27 -33 -40
0 -40 -16 1 -24 38 -7 40 -6 42 36 2 43 12 57 35 51 10 -3 22 0 25 6 5 7 -4
11 -23 11 -17 0 -31 5 -31 10 0 6 12 10 27 10 14 0 23 3 20 7 -9 9 -197 10
-197 1z"/>
<path d="M10282 741 c24 -31 38 -38 38 -21 0 15 -33 50 -48 50 -9 0 -6 -9 10
-29z"/>
<path d="M10906 754 c-3 -9 -6 -34 -6 -56 0 -37 2 -40 23 -35 l22 6 -21 -17
c-12 -9 -30 -23 -40 -30 -17 -11 -17 -12 6 -6 14 4 40 18 58 32 24 18 39 23
62 18 l30 -5 0 54 0 55 -64 0 c-49 0 -65 -4 -70 -16z m112 -19 c0 -23 -4 -25
-43 -25 -48 0 -55 4 -48 31 4 15 14 19 48 19 39 0 43 -2 43 -25z m2 -45 c0 -5
-20 -10 -45 -10 -25 0 -45 5 -45 10 0 6 20 10 45 10 25 0 45 -4 45 -10z"/>
<path d="M10963 733 c9 -2 23 -2 30 0 6 3 -1 5 -18 5 -16 0 -22 -2 -12 -5z"/>
<path d="M13590 745 c0 -11 -3 -37 -7 -59 -6 -37 -5 -38 18 -31 31 9 16 -8
-26 -29 -18 -10 -23 -16 -13 -16 19 0 78 32 78 43 0 4 17 7 38 7 l37 0 2 55
c1 31 -2 55 -7 55 -6 0 -10 -9 -10 -20 0 -17 -7 -20 -50 -20 -61 0 -67 18 -7
22 l42 3 -47 5 c-43 5 -48 3 -48 -15z m110 -35 c0 -5 -22 -10 -50 -10 -27 0
-50 5 -50 10 0 6 23 10 50 10 28 0 50 -4 50 -10z m0 -30 c0 -5 -22 -10 -50
-10 -27 0 -50 5 -50 10 0 6 23 10 50 10 28 0 50 -4 50 -10z"/>
<path d="M12960 757 c0 -2 11 -18 25 -37 21 -29 25 -31 25 -13 0 11 -11 28
-25 37 -14 9 -25 15 -25 13z"/>
<path d="M4878 732 l-38 -3 0 -52 c0 -40 3 -48 12 -39 7 7 26 12 43 12 29 0
30 2 29 40 -1 22 -3 42 -5 43 -2 1 -21 1 -41 -1z m27 -42 c0 -20 -6 -26 -27
-28 -24 -3 -28 0 -28 22 0 25 13 36 40 33 9 -1 15 -13 15 -27z"/>
<path d="M2460 692 l0 -38 48 0 47 1 0 38 0 37 -47 0 -48 0 0 -38z m80 -3 c0
-14 -7 -19 -30 -19 -23 0 -30 5 -30 19 0 11 6 21 13 24 22 7 47 -5 47 -24z"/>
<path d="M2990 723 c0 -4 5 -15 10 -23 8 -13 10 -13 10 2 0 9 -4 20 -10 23 -5
3 -10 3 -10 -2z"/>
<path d="M2900 691 c0 -17 5 -31 10 -31 6 0 10 11 10 24 0 14 -4 28 -10 31 -6
4 -10 -7 -10 -24z"/>
<path d="M2948 695 c2 -14 8 -25 13 -25 10 0 11 12 3 34 -10 25 -22 19 -16 -9z"/>
<path d="M5894 700 c3 -14 6 -28 6 -32 0 -5 5 -8 10 -8 15 0 12 24 -6 46 -15
18 -15 18 -10 -6z"/>
<path d="M5944 704 c3 -8 6 -18 6 -20 0 -2 5 -4 10 -4 16 0 11 27 -6 34 -12 5
-15 2 -10 -10z"/>
<path d="M2857 690 c-21 -24 -22 -41 -3 -34 12 5 30 44 23 51 -2 1 -11 -7 -20
-17z"/>
<path d="M5807 693 c-2 -10 -8 -27 -12 -38 -6 -16 -3 -15 14 5 21 26 27 50 12
50 -5 0 -11 -8 -14 -17z"/>
<path d="M5850 686 c0 -14 5 -26 10 -26 6 0 10 9 10 19 0 11 -4 23 -10 26 -6
4 -10 -5 -10 -19z"/>
<path d="M11334 697 c3 -10 6 -23 6 -28 0 -5 5 -9 10 -9 14 0 12 13 -6 36 -14
17 -15 17 -10 1z"/>
<path d="M8552 680 c13 -20 28 -27 28 -12 0 10 -22 32 -32 32 -5 0 -3 -9 4
-20z"/>
<path d="M11241 665 c0 -31 2 -36 9 -23 6 10 7 25 1 40 -9 20 -10 18 -10 -17z"/>
<path d="M11280 692 c0 -18 12 -42 21 -42 14 0 10 26 -6 40 -9 8 -15 8 -15 2z"/>
<path d="M7771 664 c-13 -29 -6 -47 9 -24 9 14 14 50 7 50 -2 0 -9 -12 -16
-26z"/>
<path d="M7840 681 c0 -17 12 -41 20 -41 10 0 1 38 -11 46 -5 3 -9 1 -9 -5z"/>
<path d="M7810 656 c0 -14 5 -26 10 -26 6 0 10 9 10 19 0 11 -4 23 -10 26 -6
4 -10 -5 -10 -19z"/>
<path d="M7876 665 c4 -8 8 -15 10 -15 2 0 4 7 4 15 0 8 -4 15 -10 15 -5 0 -7
-7 -4 -15z"/>
<path d="M11192 659 c-7 -12 -11 -24 -7 -27 7 -8 25 17 25 36 0 17 -3 15 -18
-9z"/>
<path d="M11000 653 c0 -13 59 -42 65 -33 3 5 -8 16 -24 25 -34 17 -41 18 -41
8z"/>
<path d="M13680 642 c0 -8 43 -32 55 -32 15 0 1 19 -20 28 -31 14 -35 15 -35
4z"/>
<path d="M1886 485 l16 -25 -56 0 c-96 0 -61 -19 40 -22 l97 -3 -29 -30 c-37
-39 -112 -98 -133 -106 -22 -9 -46 -38 -37 -46 3 -4 13 2 21 13 13 18 15 18
45 2 35 -20 200 -26 200 -8 0 6 -35 10 -86 10 -47 0 -94 5 -106 11 -18 10 -15
14 39 54 56 41 123 109 123 124 0 5 -21 6 -48 3 -43 -4 -49 -2 -61 22 -8 14
-20 26 -28 26 -11 0 -10 -5 3 -25z"/>
<path d="M2490 463 c-6 -27 -21 -58 -32 -70 -12 -13 -18 -26 -15 -30 4 -3 14
2 22 13 13 17 14 12 15 -58 0 -43 4 -78 9 -78 6 0 9 43 8 98 -1 74 3 104 16
129 21 39 21 43 3 43 -8 0 -19 -20 -26 -47z"/>
<path d="M2602 492 c6 -20 2 -22 -33 -22 l-39 0 20 -20 c31 -31 26 -58 -12
-63 -25 -3 -22 -4 15 -5 l47 -2 -15 36 c-8 20 -15 38 -15 40 0 11 79 2 83 -8
6 -19 -13 -56 -32 -61 -9 -3 10 -5 42 -6 32 0 56 3 53 8 -3 4 -17 6 -31 3 -14
-2 -25 -1 -25 2 0 14 23 51 39 63 18 14 12 16 -41 13 -28 -1 -38 2 -38 14 0 8
-5 18 -12 22 -8 5 -9 0 -6 -14z"/>
<path d="M3238 488 c-2 -17 -10 -22 -30 -23 -14 0 -30 -3 -34 -7 -4 -5 9 -8
30 -8 l37 0 -3 -62 -3 -63 -38 0 c-20 0 -37 -3 -37 -7 0 -5 66 -8 146 -8 97 0
143 3 139 10 -4 6 -21 8 -42 4 l-35 -7 4 97 c4 73 2 96 -8 96 -9 0 -11 -13 -8
-46 l4 -45 -53 3 c-62 4 -69 22 -9 26 23 2 42 7 42 12 0 4 -19 6 -41 4 -40 -5
-41 -4 -35 20 5 19 2 26 -8 26 -8 0 -16 -10 -18 -22z m117 -103 c0 -5 -21 -11
-47 -13 -36 -2 -48 0 -48 11 0 7 2 16 5 19 9 8 90 -7 90 -17z m-7 -47 c3 -15
-4 -18 -41 -18 -49 0 -58 5 -50 26 8 22 87 15 91 -8z"/>
<path d="M3638 483 c-3 -27 -6 -28 -54 -28 l-51 1 0 -62 1 -61 50 1 51 1 1
-45 c3 -68 7 -71 13 -10 l6 55 55 5 55 5 0 57 0 56 -54 -6 -54 -5 6 31 c5 24
3 32 -8 32 -8 0 -15 -12 -17 -27z m-6 -60 c1 -20 1 -54 -1 -65 0 -5 -19 -8
-41 -8 -40 0 -40 0 -40 38 0 47 0 47 45 50 27 2 35 -1 37 -15z m108 -29 l0
-45 -42 3 c-42 3 -43 4 -44 38 -1 48 2 50 47 50 l39 0 0 -46z"/>
<path d="M4425 487 c6 -21 4 -27 -9 -27 -9 0 -16 -5 -16 -11 0 -7 10 -9 25 -5
14 4 30 4 35 1 13 -8 -6 -63 -45 -126 -45 -74 -45 -85 1 -26 l37 47 76 0 77 0
0 35 c0 27 -4 35 -18 35 -15 0 -17 5 -12 25 6 24 4 25 -40 25 -42 0 -46 2 -46
25 0 14 -4 25 -10 25 -5 0 -10 -11 -10 -25 0 -14 -4 -25 -10 -25 -5 0 -10 6
-10 14 0 7 -7 19 -16 27 -13 11 -14 9 -9 -14z m135 -58 c0 -13 -41 -27 -62
-21 -17 4 -24 23 -13 33 8 9 75 -3 75 -12z m28 -49 c7 -20 -16 -27 -71 -23
-57 4 -59 5 -52 24 7 18 117 17 123 -1z"/>
<path d="M5238 432 c-3 -71 -5 -77 -23 -74 -11 2 -36 4 -55 5 -42 3 -47 21 -7
25 25 3 27 7 27 48 0 24 -1 47 -2 50 -2 3 -31 6 -66 7 l-62 2 0 -52 c0 -52 0
-53 31 -53 20 0 29 -4 26 -12 -2 -7 -18 -12 -36 -12 -17 1 -31 -2 -31 -7 0 -5
16 -9 35 -9 51 0 48 -29 -2 -32 -21 -1 -2 -4 42 -7 l80 -6 -3 -38 c-3 -35 -2
-38 15 -29 21 12 22 12 71 12 l37 0 0 55 c0 55 0 55 -26 50 -22 -5 -28 -2 -33
20 -9 35 -1 45 35 45 16 0 29 4 29 8 0 17 -13 21 -33 11 -25 -14 -39 5 -27 37
6 16 5 24 -5 28 -11 4 -15 -11 -17 -72z m-128 13 c0 -22 -6 -38 -15 -41 -21
-9 -34 3 -28 27 4 16 8 17 14 7 7 -10 9 -9 9 5 0 9 -4 17 -10 17 -5 0 -10 5
-10 10 0 6 9 10 20 10 16 0 20 -7 20 -35z m50 23 c0 -6 -3 -8 -7 -5 -3 4 -12
-1 -19 -11 -12 -15 -13 -15 -14 -1 0 9 3 19 7 22 11 11 33 8 33 -5z m8 -40
c-2 -13 -11 -24 -20 -26 -21 -4 -24 18 -6 36 19 19 30 14 26 -10z m29 -91 c-4
-13 -64 -19 -72 -7 -8 13 33 29 58 22 10 -2 16 -9 14 -15z m93 -37 l0 -40 -40
0 -40 0 0 40 0 40 40 0 40 0 0 -40z"/>
<path d="M4730 404 c0 -60 -5 -104 -16 -129 -12 -28 -12 -36 -2 -33 19 6 36
83 37 166 l1 72 35 0 c24 0 35 -5 35 -15 0 -8 -7 -15 -15 -15 -12 0 -15 -13
-15 -58 l0 -59 30 5 c30 4 30 4 30 -43 0 -43 -1 -46 -22 -40 -18 5 -20 4 -8
-4 8 -6 23 -11 33 -11 14 0 17 9 17 51 l0 52 40 -7 40 -6 0 58 0 58 -62 -4
-63 -5 19 22 c15 17 31 21 78 21 32 0 58 3 58 8 0 4 -56 7 -125 7 l-125 0 0
-91z m195 11 c0 -5 -28 -11 -62 -13 -52 -2 -63 0 -63 13 0 13 11 15 63 13 34
-2 62 -7 62 -13z m0 -45 c0 -12 -13 -15 -58 -15 -56 -1 -74 6 -64 23 3 4 31 7
64 7 45 0 58 -3 58 -15z"/>
<path d="M6737 479 c-5 -19 -12 -21 -56 -18 -28 2 -51 1 -51 -3 0 -5 25 -8 56
-8 40 0 54 -3 51 -12 -3 -8 -21 -12 -51 -11 -25 1 -46 -3 -46 -8 0 -5 23 -9
51 -9 36 0 49 -4 46 -12 -2 -9 -24 -13 -65 -12 -34 1 -62 -3 -62 -7 0 -5 25
-9 55 -9 30 0 55 -4 55 -10 0 -10 -59 -50 -95 -64 -12 -5 -15 -10 -8 -13 7 -2
21 0 32 6 32 18 41 13 41 -22 0 -43 6 -48 38 -31 15 8 33 14 40 14 6 0 12 5
12 10 0 13 -37 13 -45 0 -13 -21 -25 -8 -25 28 0 61 30 82 118 82 40 0 72 4
72 10 0 5 -29 8 -66 7 -46 -1 -68 2 -71 11 -3 8 10 12 47 12 31 0 49 4 45 10
-3 5 -25 7 -50 3 -38 -5 -45 -3 -45 11 0 13 11 16 62 16 34 0 58 3 54 8 -4 4
-31 7 -59 7 -44 0 -52 3 -49 18 4 25 -25 21 -31 -4z"/>
<path d="M7548 469 c-7 -19 -15 -28 -24 -25 -11 4 -14 -15 -14 -102 1 -91 3
-104 14 -89 14 18 66 24 66 7 0 -5 5 -10 10 -10 6 0 10 27 10 60 0 43 5 65 18
79 9 11 23 27 30 35 8 10 29 16 54 16 l41 0 -6 -79 c-6 -99 -18 -124 -52 -111
-14 5 -25 6 -25 1 0 -21 64 -28 76 -10 4 7 11 51 15 99 4 48 9 93 11 101 2 11
-10 13 -54 10 -54 -3 -75 8 -48 24 15 9 12 25 -4 25 -8 0 -15 -16 -19 -41 -3
-23 -13 -49 -22 -58 -15 -15 -16 -14 -13 14 3 28 1 30 -25 27 -26 -3 -28 -2
-18 17 14 25 14 41 0 41 -5 0 -15 -14 -21 -31z m44 -69 c5 -36 -2 -43 -37 -34
-19 5 -25 12 -25 35 0 25 4 29 29 29 24 0 29 -5 33 -30z m-2 -85 c0 -32 -2
-35 -30 -35 -28 0 -30 3 -30 35 0 32 2 35 30 35 28 0 30 -3 30 -35z"/>
<path d="M7970 410 l0 -90 -55 0 c-33 0 -55 -4 -55 -11 0 -7 19 -10 53 -7 50
3 52 2 55 -23 4 -31 -9 -36 -85 -34 -29 1 -53 -2 -53 -7 0 -4 63 -8 140 -8 81
0 140 4 140 9 0 15 -19 23 -32 14 -7 -4 -32 -8 -55 -8 -40 0 -43 2 -43 28 0
26 2 27 56 27 40 0 54 3 51 13 -3 8 -21 11 -56 8 l-53 -3 3 91 c2 50 1 91 -3
91 -5 0 -8 -40 -8 -90z"/>
<path d="M8215 488 c-2 -7 -3 -22 -2 -33 1 -14 -5 -21 -20 -23 -13 -2 -23 -8
-23 -13 0 -5 8 -9 18 -7 21 4 19 -28 -4 -79 -9 -18 -14 -37 -10 -40 3 -4 12 8
18 25 7 18 15 32 18 32 3 0 3 -27 2 -61 -2 -36 1 -66 7 -72 8 -8 11 14 11 78
0 80 1 87 15 69 13 -17 14 -17 15 -2 0 9 -8 21 -17 27 -14 7 -15 12 -6 22 16
16 43 4 43 -18 0 -16 10 -18 75 -18 60 0 75 3 76 15 0 8 2 26 5 38 3 16 0 22
-8 19 -8 -2 -12 -15 -10 -30 2 -19 -1 -27 -12 -27 -11 0 -15 11 -14 40 0 37 2
40 29 40 16 0 29 3 29 8 0 4 -40 7 -90 7 -85 0 -122 -10 -62 -17 29 -3 29 -24
0 -22 -10 0 -18 -3 -18 -6 0 -4 -12 -7 -26 -7 -24 0 -25 2 -19 33 6 33 -10 50
-20 22z m159 -33 c-1 -18 -34 -18 -34 0 0 10 7 15 18 13 9 -2 17 -8 16 -13z
m-51 -45 c-3 -11 -9 -20 -14 -20 -5 0 -9 9 -9 20 0 11 6 20 14 20 9 0 12 -7 9
-20z m47 0 c0 -11 -7 -20 -15 -20 -8 0 -15 9 -15 20 0 11 7 20 15 20 8 0 15
-9 15 -20z"/>
<path d="M2233 482 c-143 -4 -132 -22 13 -22 85 0 115 3 112 12 -5 15 -1 14
-125 10z"/>
<path d="M4087 475 c-82 -43 -115 -142 -60 -185 62 -49 153 11 170 113 3 23
-1 39 -17 60 -24 30 -51 34 -93 12z m73 -20 c18 -22 4 -93 -26 -133 -22 -28
-31 -33 -62 -30 -35 3 -37 5 -40 40 -7 86 85 175 128 123z"/>
<path d="M5880 389 c0 -92 -2 -101 -20 -106 -21 -5 -28 -23 -10 -23 19 0 130
60 130 70 0 6 -18 1 -41 -10 -23 -12 -42 -20 -43 -18 -2 2 0 45 3 96 5 70 3
92 -6 92 -10 0 -13 -27 -13 -101z"/>
<path d="M6050 441 c0 -91 -46 -170 -107 -187 -13 -3 -23 -11 -23 -16 0 -6 7
-7 16 -4 9 3 19 6 24 6 5 0 15 6 22 13 8 6 26 23 41 36 l26 24 22 -37 c11 -20
25 -36 30 -36 18 0 8 25 -21 55 -29 30 -30 33 -20 84 13 68 13 111 0 111 -5 0
-10 -22 -10 -49z"/>
<path d="M6371 481 c-7 -5 -9 -11 -4 -14 6 -4 -3 -45 -20 -97 -16 -50 -27 -94
-24 -97 10 -9 27 8 27 26 0 10 6 24 14 31 12 9 16 5 22 -25 5 -29 10 -35 27
-33 11 2 22 9 25 16 2 7 -2 10 -11 6 -9 -3 -17 3 -21 18 -11 42 -6 58 19 70
31 14 33 32 3 22 -22 -6 -33 -17 -41 -39 -3 -5 -7 -8 -10 -5 -4 3 0 28 8 55
22 72 19 87 -14 66z"/>
<path d="M3403 473 c-22 -8 -14 -23 13 -23 15 0 24 5 22 12 -5 14 -18 18 -35
11z"/>
<path d="M13525 469 c-16 -6 -17 -8 -3 -8 9 -1 20 -11 23 -23 4 -13 17 -33 28
-45 l20 -23 -92 0 -92 0 23 33 c13 17 26 34 31 35 13 6 8 32 -7 32 -8 0 -17
-12 -20 -26 -4 -14 -20 -40 -36 -58 -30 -31 -42 -58 -17 -38 19 16 81 7 85
-12 5 -24 -43 -94 -73 -108 -29 -13 -34 -31 -7 -20 46 18 92 74 92 111 0 27
24 43 57 38 24 -3 28 -9 31 -38 2 -19 -2 -48 -8 -63 -9 -24 -14 -27 -40 -21
-17 4 -30 2 -30 -3 0 -5 15 -12 32 -16 42 -8 53 7 62 85 7 57 9 61 30 55 39
-10 38 6 -1 29 -25 13 -42 32 -48 52 -13 40 -16 42 -40 32z"/>
<path d="M5952 433 c13 -24 26 -43 31 -43 15 0 6 21 -24 52 l-30 33 23 -42z"/>
<path d="M7155 461 c9 -15 -35 -165 -53 -178 -14 -11 -13 -13 9 -13 21 0 26 5
26 28 0 33 22 116 29 109 6 -6 12 -51 13 -99 1 -21 4 -38 9 -38 6 0 66 78 92
120 17 27 19 4 4 -45 -8 -28 -22 -56 -31 -62 -15 -11 -12 -13 20 -13 27 0 35
4 31 14 -8 21 35 159 54 174 14 10 13 12 -9 12 -19 0 -37 -16 -79 -75 -30 -41
-58 -75 -62 -75 -4 0 -8 20 -8 44 0 72 -10 106 -32 106 -10 0 -17 -4 -13 -9z"/>
<path d="M7885 443 c-3 -15 -16 -40 -27 -55 -28 -40 -15 -47 14 -8 l23 31 22
-27 c12 -16 25 -25 29 -21 4 4 -5 21 -21 37 -22 23 -26 33 -17 42 16 16 15 28
-2 28 -8 0 -17 -12 -21 -27z"/>
<path d="M8050 457 c0 -8 -13 -34 -29 -58 -33 -48 -32 -71 1 -26 25 34 45 35
60 2 6 -14 15 -25 20 -25 16 0 8 21 -18 47 -22 22 -25 30 -15 45 15 23 14 28
-4 28 -8 0 -15 -6 -15 -13z"/>
<path d="M13071 423 c-26 -31 -31 -46 -31 -90 0 -62 11 -94 41 -122 31 -29 48
-27 21 2 -49 52 -51 162 -5 217 14 17 20 30 15 30 -6 0 -24 -17 -41 -37z"/>
<path d="M13159 441 c-13 -11 -21 -23 -16 -27 4 -4 13 -2 19 4 18 18 45 14 51
-7 6 -24 -10 -51 -31 -51 -11 -1 -8 -6 11 -16 22 -12 28 -21 25 -42 -3 -23 -8
-27 -40 -30 -21 -2 -38 -7 -38 -13 0 -15 70 -10 87 6 23 23 27 70 7 90 -12 12
-14 19 -5 28 17 17 13 55 -8 67 -27 14 -35 13 -62 -9z"/>
<path d="M13700 452 c0 -5 6 -12 14 -15 8 -3 22 -29 31 -57 15 -45 15 -58 4
-98 -7 -26 -24 -57 -37 -69 -17 -16 -20 -23 -10 -23 8 0 24 10 35 23 55 59 61
137 17 200 -28 40 -54 58 -54 39z"/>
<path d="M2904 399 c-4 -7 -2 -15 4 -17 16 -5 15 -29 0 -35 -7 -2 -9 -8 -5
-13 12 -12 38 26 35 50 -4 23 -23 32 -34 15z"/>
<path d="M2307 388 c-10 -5 -49 -8 -88 -6 -38 2 -69 0 -69 -4 0 -5 43 -8 95
-8 53 0 95 4 95 9 0 16 -14 20 -33 9z"/>
<path d="M5483 384 c-8 -22 10 -49 32 -49 10 0 22 7 28 16 15 24 1 49 -28 49
-15 0 -28 -7 -32 -16z m47 -14 c0 -13 -5 -18 -15 -14 -16 7 -19 17 -8 27 12
13 23 7 23 -13z"/>
<path d="M7661 385 c16 -36 33 -65 41 -65 17 0 7 27 -18 51 -15 13 -25 20 -23
14z"/>
<path d="M8614 376 c-11 -28 4 -48 33 -44 22 2 28 8 28 28 0 20 -6 26 -28 28
-18 2 -29 -2 -33 -12z m46 -11 c0 -8 -6 -15 -13 -15 -8 0 -14 7 -14 15 0 8 6
15 14 15 7 0 13 -7 13 -15z"/>
<path d="M4620 324 c0 -54 -16 -77 -48 -70 -22 5 -24 4 -9 -5 33 -20 61 -7 68
31 3 19 9 45 13 58 6 16 3 22 -8 22 -12 0 -16 -10 -16 -36z"/>
<path d="M6820 339 c-22 -18 -25 -19 -36 -5 -15 22 -23 20 -17 -3 7 -29 82
-101 104 -101 30 0 22 13 -24 36 -50 26 -54 45 -9 58 18 5 31 14 29 19 -6 18
-21 17 -47 -4z"/>
<path d="M8283 348 c-2 -5 30 -8 71 -8 42 0 76 4 76 8 0 11 -140 10 -147 0z"/>
<path d="M2548 295 l4 -50 69 3 69 4 0 39 c0 21 -1 42 -2 45 -2 4 -34 7 -73 8
l-70 1 3 -50z m122 -1 l0 -35 -52 3 c-42 2 -54 7 -56 21 -7 37 5 47 58 47 l50
0 0 -36z"/>
<path d="M8343 322 c-83 -3 -119 -22 -43 -22 l40 0 0 -40 c0 -22 5 -40 10 -40
6 0 10 18 10 40 l0 40 46 0 c31 0 44 4 42 12 -5 15 -5 14 -105 10z"/>
<path d="M4484 295 c4 -35 16 -44 16 -12 0 14 -4 28 -9 32 -5 3 -8 -6 -7 -20z"/>
<path d="M4520 313 c0 -5 7 -17 15 -27 15 -20 20 -10 9 18 -6 16 -24 22 -24 9z"/>
<path d="M4576 306 c3 -9 11 -16 16 -16 13 0 5 23 -10 28 -7 2 -10 -2 -6 -12z"/>
<path d="M4772 283 c-17 -20 -30 -38 -28 -40 6 -6 76 57 76 68 0 17 -15 8 -48
-28z"/>
<path d="M4900 313 c0 -14 69 -72 75 -63 3 6 4 14 1 19 -8 12 -76 52 -76 44z"/>
<path d="M3222 268 c-29 -17 -51 -33 -48 -35 8 -9 117 48 111 57 -7 12 0 15
-63 -22z"/>
<path d="M4436 281 c-11 -12 -16 -24 -12 -28 9 -9 39 22 34 37 -2 7 -10 4 -22
-9z"/>
<path d="M2346 281 c-4 -6 -54 -8 -126 -6 -71 2 -120 0 -120 -6 0 -5 60 -9
141 -9 104 0 140 3 137 12 -6 16 -25 21 -32 9z"/>
<path d="M3355 273 c17 -8 38 -22 48 -31 15 -14 17 -13 17 1 0 18 -48 47 -77
47 -13 -1 -9 -6 12 -17z"/>
<path d="M5051 272 c-14 -26 -7 -42 10 -25 6 6 9 19 7 29 -3 17 -5 17 -17 -4z"/>
<path d="M5090 271 c0 -11 5 -23 10 -26 6 -3 10 3 10 14 0 11 -4 23 -10 26 -5
3 -10 -3 -10 -14z"/>
<path d="M5127 270 c3 -11 7 -20 9 -20 2 0 4 9 4 20 0 11 -4 20 -9 20 -5 0 -7
-9 -4 -20z"/>
<path d="M5160 269 c7 -11 14 -18 17 -15 8 8 -5 36 -17 36 -7 0 -7 -6 0 -21z"/>
<path d="M8276 264 c-15 -14 -26 -27 -23 -30 7 -8 54 24 61 42 8 21 -5 17 -38
-12z"/>
<path d="M8404 263 c14 -14 30 -23 34 -19 4 4 -4 16 -17 27 -35 28 -48 23 -17
-8z"/>
</g>
</svg>
