<?xml version="1.0" standalone="no"?>
<!DOCTYPE svg PUBLIC "-//W3C//DTD SVG 20010904//EN"
 "http://www.w3.org/TR/2001/REC-SVG-20010904/DTD/svg10.dtd">
<svg version="1.0" xmlns="http://www.w3.org/2000/svg"
 width="1391.000000pt" height="295.000000pt" viewBox="0 0 1391.000000 295.000000"
 preserveAspectRatio="xMidYMid meet">
<metadata>
Created by potrace 1.16, written by Peter Selinger 2001-2019
</metadata>
<g transform="translate(0.000000,295.000000) scale(0.100000,-0.100000)"
fill="#000000" stroke="none">
<path d="M4925 2846 c-11 -8 -16 -18 -12 -22 4 -5 12 -2 17 5 12 20 40 6 40
-20 0 -13 -7 -31 -17 -41 -9 -10 -13 -21 -10 -24 4 -4 15 4 26 17 21 24 29 89
12 89 -5 0 -15 2 -23 5 -7 3 -22 -1 -33 -9z"/>
<path d="M1820 2786 c0 -32 -6 -32 -31 -3 l-20 22 6 -22 c5 -19 2 -23 -14 -23
-12 0 -21 -4 -21 -10 0 -5 16 -10 36 -10 33 0 36 -2 30 -22 -3 -13 -6 -28 -6
-34 0 -6 -18 -39 -40 -72 -22 -34 -36 -62 -32 -62 10 0 52 56 52 69 0 5 7 12
16 15 23 9 162 7 168 -2 2 -4 1 -23 -3 -42 -5 -29 -12 -36 -36 -40 l-30 -6 25
-7 c31 -9 60 22 60 62 0 15 5 32 12 39 12 12 9 14 -27 16 -14 1 -19 7 -18 22
2 14 -4 24 -16 27 -14 3 -17 11 -14 31 5 25 4 26 -42 26 -41 0 -46 2 -40 19 3
11 1 22 -5 26 -6 4 -10 -4 -10 -19z m78 -63 c-2 -13 -13 -18 -38 -18 -25 0
-36 5 -38 18 -3 14 4 17 38 17 34 0 41 -3 38 -17z m32 -47 c0 -18 -22 -26 -74
-26 -47 0 -57 5 -49 26 7 20 123 20 123 0z"/>
<path d="M2510 2797 c0 -14 -10 -17 -48 -17 -40 0 -51 -4 -60 -22 -20 -40 -19
-52 8 -52 24 -1 25 -4 28 -73 3 -79 22 -102 22 -28 l0 45 43 2 42 1 -40 4
c-72 8 -63 23 13 23 68 0 98 -14 50 -23 -21 -4 -21 -4 3 -6 24 -1 25 -4 23
-46 -1 -25 2 -45 7 -45 5 0 9 21 10 48 2 96 2 96 34 103 l30 7 -32 1 c-24 1
-31 5 -27 16 4 10 0 15 -11 15 -11 0 -15 -5 -11 -15 4 -11 -2 -15 -24 -15 -17
0 -30 5 -30 10 0 6 10 10 22 10 12 0 19 3 15 6 -7 8 -67 -5 -66 -14 5 -30 -3
-42 -26 -42 -31 0 -33 20 -2 21 21 1 21 1 -3 9 l-25 7 25 11 25 11 -27 0 c-15
1 -31 -6 -36 -15 -5 -9 -17 -14 -26 -13 -15 4 -15 6 -2 25 13 18 26 21 115 22
83 1 101 -1 101 -13 0 -19 7 -19 25 -1 20 20 8 26 -53 26 -38 0 -61 5 -74 17
-17 15 -18 15 -18 0z m80 -97 c0 -5 -13 -10 -30 -10 -16 0 -30 5 -30 10 0 6
14 10 30 10 17 0 30 -4 30 -10z"/>
<path d="M6738 2783 c-8 -15 -20 -27 -26 -25 -9 1 -12 -26 -12 -97 l0 -99 35
8 c21 5 38 4 41 -2 13 -21 27 1 28 47 1 33 10 65 25 93 23 39 27 42 69 42 l43
0 -2 -71 c-4 -116 -6 -122 -45 -116 -42 7 -45 -9 -4 -18 54 -12 62 6 74 161
l4 62 -55 -5 -56 -6 7 27 c5 19 3 26 -8 26 -9 0 -17 -15 -21 -39 -3 -22 -13
-47 -21 -58 -13 -17 -14 -15 -10 15 4 32 4 33 -25 27 -22 -5 -29 -3 -29 8 0 9
6 17 13 20 9 3 9 7 1 17 -9 9 -15 6 -26 -17z m42 -78 c0 -32 -2 -35 -30 -35
-23 0 -31 5 -36 24 -8 34 2 46 37 46 27 0 29 -3 29 -35z m0 -80 c0 -33 -2 -35
-36 -35 -34 0 -35 1 -30 33 2 17 5 33 5 35 1 1 15 2 31 2 28 0 30 -3 30 -35z"/>
<path d="M7070 2775 c0 -33 -2 -35 -26 -29 -19 5 -25 4 -20 -5 4 -6 16 -11 27
-11 23 0 20 -17 -12 -82 -11 -21 -15 -38 -9 -38 6 0 16 12 23 28 11 25 12 22
15 -40 2 -41 7 -68 14 -68 7 0 9 25 5 80 -5 78 2 98 22 63 5 -10 13 -14 18
-10 4 5 -5 20 -21 34 -23 20 -26 27 -15 34 8 5 20 7 27 4 6 -2 12 3 12 11 0
12 -6 15 -21 11 -19 -5 -21 -2 -15 24 4 22 2 29 -9 29 -10 0 -15 -11 -15 -35z"/>
<path d="M7414 2786 c6 -23 4 -27 -8 -23 -9 4 -18 2 -21 -3 -4 -6 9 -10 29
-10 24 0 36 -5 36 -14 0 -25 -23 -81 -49 -121 -15 -22 -30 -47 -35 -55 -11
-21 49 43 62 66 8 14 25 18 91 20 91 3 100 -3 84 -53 -7 -20 -18 -30 -39 -34
l-29 -6 28 -8 c20 -5 33 -3 42 6 15 16 32 111 19 108 -28 -5 -36 2 -30 26 5
21 3 25 -15 25 -16 0 -20 5 -16 20 6 25 -8 35 -53 35 -31 0 -35 3 -32 23 2 12
-2 22 -7 22 -6 0 -11 -9 -11 -19 0 -11 -4 -23 -10 -26 -5 -3 -10 0 -10 8 0 8
-7 21 -17 28 -15 13 -16 11 -9 -15z m131 -56 c0 -10 -13 -16 -42 -18 -32 -2
-43 1 -43 11 0 22 12 28 50 25 23 -2 35 -8 35 -18z m25 -50 c0 -18 -7 -20 -65
-20 -63 0 -65 1 -55 20 9 16 21 20 65 20 48 0 55 -2 55 -20z"/>
<path d="M975 2780 c5 -16 2 -20 -14 -20 -12 0 -21 -4 -21 -10 0 -5 25 -10 56
-10 40 0 54 3 51 13 -2 6 -13 11 -24 9 -14 -2 -22 4 -26 18 -3 11 -10 20 -17
20 -7 0 -9 -8 -5 -20z"/>
<path d="M1085 2759 c-4 -21 -13 -43 -21 -50 -8 -6 -14 -17 -14 -23 1 -22 50
46 50 70 0 17 5 24 19 24 16 0 20 -8 23 -37 3 -36 5 -38 38 -40 19 0 25 1 13
4 -22 4 -37 35 -31 63 2 9 -10 16 -34 20 -36 7 -37 6 -43 -31z"/>
<path d="M2860 2775 c0 -30 -25 -34 -40 -5 -6 11 -15 20 -21 20 -6 0 -5 -8 2
-21 11 -21 9 -22 -18 -16 -25 5 -31 2 -40 -24 -9 -23 -9 -29 3 -29 8 0 14 9
14 20 0 19 7 20 105 20 89 0 105 -2 105 -16 0 -14 2 -14 15 0 22 22 19 26 -22
27 -37 0 -38 0 -15 16 12 8 22 19 22 24 0 17 -22 9 -42 -16 -11 -14 -26 -25
-35 -25 -11 0 -14 6 -9 25 5 18 2 25 -9 25 -9 0 -15 -9 -15 -25z"/>
<path d="M3130 2789 c0 -7 -10 -9 -25 -7 -19 4 -25 1 -25 -13 0 -9 -6 -20 -12
-22 -10 -4 -10 -6 0 -6 8 -1 12 -19 12 -57 0 -52 1 -55 21 -49 16 5 20 3 17
-6 -3 -9 -15 -13 -31 -11 -15 2 -27 -1 -27 -7 0 -6 9 -11 21 -11 11 0 17 -5
14 -10 -3 -6 1 -13 9 -16 24 -9 19 -23 -9 -30 -14 -3 -25 -10 -25 -15 0 -5 18
-2 40 7 23 9 51 13 65 10 14 -4 25 -2 25 4 0 5 -4 10 -10 10 -5 0 -10 9 -10
20 0 15 7 20 25 20 14 0 25 4 25 9 0 13 -53 21 -67 9 -10 -8 -13 -6 -13 6 0
11 9 16 29 16 24 0 29 4 29 25 0 20 -6 25 -24 25 -13 0 -24 5 -24 11 0 6 9 9
20 6 12 -3 20 0 20 8 0 7 7 18 15 25 13 11 13 14 -2 26 -10 7 -26 14 -35 14
-10 0 -18 5 -18 10 0 6 -7 10 -15 10 -8 0 -15 -5 -15 -11z m5 -29 c3 -5 -3
-10 -14 -10 -12 0 -21 5 -21 10 0 6 6 10 14 10 8 0 18 -4 21 -10z m55 0 c0 -5
-6 -10 -12 -11 -10 0 -10 -2 0 -6 19 -8 14 -23 -8 -23 -18 0 -21 13 -11 48 3
7 31 0 31 -8z m-55 -30 c3 -5 -3 -10 -14 -10 -12 0 -21 5 -21 10 0 6 6 10 14
10 8 0 18 -4 21 -10z m5 -30 c0 -5 -11 -10 -25 -10 -14 0 -25 5 -25 10 0 6 11
10 25 10 14 0 25 -4 25 -10z m-10 -35 c0 -8 -7 -15 -15 -15 -8 0 -15 7 -15 15
0 8 7 15 15 15 8 0 15 -7 15 -15z m58 -3 c2 -7 -6 -12 -17 -12 -21 0 -27 11
-14 24 9 9 26 2 31 -12z m-28 -77 c0 -8 -9 -15 -20 -15 -11 0 -20 7 -20 15 0
8 9 15 20 15 11 0 20 -7 20 -15z"/>
<path d="M3980 2791 c0 -6 5 -13 10 -16 28 -17 5 -25 -55 -19 -44 5 -65 3 -65
-4 0 -6 23 -12 53 -14 51 -3 52 -4 55 -36 4 -44 -35 -120 -75 -146 -18 -12
-33 -24 -33 -29 0 -4 17 3 38 16 24 16 46 43 65 80 28 55 29 57 68 55 42 -1
42 -2 39 -63 -2 -49 -17 -68 -47 -62 -32 6 -29 -9 3 -17 35 -9 51 7 59 57 3
23 8 54 11 70 6 27 5 27 -50 27 -53 0 -56 1 -56 25 0 24 2 25 75 25 43 0 75 4
75 10 0 14 -29 15 -98 4 -28 -4 -33 -1 -42 21 -9 24 -30 35 -30 16z"/>
<path d="M4265 2790 c-3 -5 -18 -11 -33 -11 -24 -2 -24 -2 -4 -6 32 -6 30 -43
-3 -43 -14 0 -25 -4 -25 -10 0 -5 9 -10 20 -10 11 0 20 -6 20 -13 0 -7 -9 -30
-20 -52 -23 -45 -23 -45 -11 -45 5 0 15 15 22 33 13 31 14 31 17 -40 2 -43 7
-73 14 -73 6 0 9 26 6 75 -3 68 3 95 15 63 2 -7 8 -10 12 -5 5 4 -2 17 -16 30
l-24 22 28 3 c34 4 36 22 2 22 -14 0 -25 4 -25 9 0 21 13 41 26 41 8 0 14 5
14 10 0 6 -6 10 -14 10 -8 0 -18 -4 -21 -10z"/>
<path d="M7150 2668 c0 -71 2 -128 5 -128 9 0 65 30 65 35 0 2 -13 2 -28 -1
l-29 -6 2 54 2 53 51 0 52 0 0 60 0 60 -60 0 -60 0 0 -127z m110 92 c0 -17 -7
-20 -44 -20 -45 0 -63 11 -51 30 3 6 26 10 51 10 37 0 44 -3 44 -20z m-2 -47
c-4 -23 -77 -31 -89 -11 -16 24 -9 28 42 28 43 0 50 -3 47 -17z"/>
<path d="M8405 2790 c-44 -4 -67 -7 -51 -8 l29 -2 -5 -63 c-6 -65 -25 -116
-61 -154 -11 -13 -16 -23 -11 -23 27 0 84 89 84 130 0 30 17 24 25 -7 3 -16
13 -36 22 -45 20 -23 10 -36 -51 -64 -28 -12 -44 -23 -36 -23 8 -1 39 10 69
24 l54 25 44 -21 c26 -13 50 -18 61 -14 13 6 9 10 -18 17 -19 5 -43 17 -52 25
-16 14 -14 18 18 64 19 27 34 51 34 54 0 3 -14 5 -31 5 -30 0 -31 1 -27 42 1
22 -1 42 -7 43 -5 0 -46 -2 -90 -5z m74 -42 c-5 -18 -9 -34 -9 -35 0 -2 -15
-3 -34 -3 -36 0 -47 15 -38 53 3 13 15 17 47 17 l44 0 -10 -32z m41 -58 c0
-24 -32 -70 -48 -70 -16 0 -52 49 -52 71 0 5 23 9 50 9 28 0 50 -5 50 -10z"/>
<path d="M3243 2730 c-11 -33 -17 -60 -14 -60 13 0 42 -71 34 -83 -4 -7 -17
-20 -30 -30 -38 -30 -26 -40 12 -11 l36 27 20 -22 c22 -23 35 -26 44 -11 3 6
1 10 -4 10 -6 0 -20 9 -30 19 -18 18 -18 23 -6 58 8 21 14 48 15 61 0 13 6 22
15 22 18 0 20 20 3 21 -7 1 -28 0 -45 -1 -28 -1 -32 1 -26 17 3 10 10 24 16
31 6 8 5 12 -5 12 -8 0 -23 -24 -35 -60z m57 -42 c0 -33 -11 -68 -20 -68 -5 0
-12 10 -16 23 -4 12 -11 25 -16 28 -16 11 4 39 28 39 18 0 24 -5 24 -22z"/>
<path d="M4330 2740 l0 -45 68 3 67 3 -3 40 c-2 21 -7 39 -11 40 -3 0 -32 2
-63 3 l-58 2 0 -46z m115 0 c0 -23 -4 -25 -52 -28 l-53 -3 0 31 0 31 53 -3
c48 -3 52 -5 52 -28z"/>
<path d="M5910 2782 c-34 -5 -50 -28 -50 -74 0 -41 26 -64 61 -55 41 11 13
-39 -36 -66 -28 -15 -28 -16 -7 -17 55 -1 102 59 102 130 0 67 -19 90 -70 82z
m44 -50 c12 -44 2 -64 -31 -60 -24 2 -29 8 -31 36 -5 47 3 63 30 59 16 -3 26
-14 32 -35z"/>
<path d="M8947 2773 c-9 -11 -32 -63 -52 -117 -19 -54 -40 -107 -46 -117 -7
-15 -6 -19 6 -19 8 0 21 16 30 36 13 31 17 34 35 24 44 -24 128 59 102 101 -9
14 -7 23 9 43 31 39 22 60 -27 64 -29 2 -45 -2 -57 -15z m73 -17 c0 -26 -14
-41 -45 -49 -19 -5 -19 -5 3 -12 26 -9 27 -14 8 -59 -15 -35 -51 -55 -68 -38
-11 11 21 118 48 160 20 30 54 30 54 -2z"/>
<path d="M116 2771 c-14 -5 -16 -10 -8 -15 16 -10 16 -158 0 -174 -9 -9 -3
-12 27 -11 22 0 34 3 28 6 -9 3 -13 34 -13 104 0 54 -3 99 -7 98 -5 0 -17 -4
-27 -8z"/>
<path d="M230 2759 c-13 -24 -5 -38 12 -21 7 7 27 12 44 12 33 0 33 0 23 -32
-6 -18 -14 -42 -18 -53 -20 -51 -30 -89 -26 -94 7 -6 34 31 35 47 0 7 9 38 20
69 31 87 29 93 -30 93 -40 0 -51 -4 -60 -21z"/>
<path d="M6346 2758 c-24 -34 -21 -129 5 -162 45 -57 99 -11 99 83 0 69 -19
101 -60 101 -18 0 -34 -8 -44 -22z m74 -27 c6 -25 7 -54 2 -78 -5 -21 -9 -42
-9 -48 1 -16 -35 -18 -44 -3 -12 18 -11 125 1 149 17 31 38 22 50 -20z"/>
<path d="M4920 2732 c-26 -9 -5 -22 35 -22 29 0 45 4 45 13 0 11 -54 17 -80 9z"/>
<path d="M5130 2701 c0 -39 -1 -40 -37 -44 l-38 -4 38 -1 c36 -2 37 -3 37 -43
0 -24 4 -38 10 -34 6 3 10 21 10 40 0 32 2 34 38 38 l37 4 -37 1 c-37 2 -38 3
-38 42 0 22 -4 40 -10 40 -5 0 -10 -18 -10 -39z"/>
<path d="M980 2710 c-34 -7 -34 -7 13 -9 26 0 47 4 47 9 0 11 -8 11 -60 0z"/>
<path d="M2798 2690 c-5 -37 -3 -40 34 -40 17 0 28 -5 28 -14 0 -11 -11 -13
-45 -10 l-45 3 0 -44 c0 -25 5 -45 10 -45 6 0 10 16 10 35 0 33 2 35 35 35 35
0 35 0 35 -46 0 -29 4 -43 10 -39 6 4 10 14 9 23 -5 55 0 62 41 62 36 0 40 -2
40 -25 0 -20 -5 -25 -27 -26 l-28 -1 28 -10 c16 -5 30 -8 31 -7 2 2 6 23 9 47
l5 42 -49 -6 c-41 -5 -49 -4 -49 9 0 10 11 17 32 19 28 3 32 7 32 33 l0 30
-71 3 -71 3 -4 -31z m120 11 c25 -2 11 -30 -18 -36 -38 -8 -90 3 -90 19 0 21
10 24 53 21 23 -2 48 -4 55 -4z"/>
<path d="M7945 2709 c-27 -13 -59 -81 -50 -108 5 -16 14 -21 38 -21 18 0 39 4
47 10 9 5 19 5 27 -1 16 -14 53 -2 53 18 0 13 -3 13 -15 3 -29 -24 -30 2 -2
52 28 50 29 81 1 43 -14 -19 -16 -19 -25 -2 -11 19 -42 21 -74 6z m49 -5 c21
-8 20 -39 -1 -74 -17 -30 -52 -45 -67 -30 -11 11 8 67 31 92 18 21 16 20 37
12z"/>
<path d="M1466 2689 c-30 -23 -47 -76 -34 -101 10 -20 49 -24 79 -8 28 16 24
32 -5 18 -56 -25 -78 32 -30 77 33 30 44 31 44 5 0 -24 18 -27 27 -4 13 35
-41 44 -81 13z"/>
<path d="M4778 2690 c12 -12 22 -29 22 -38 0 -26 -30 -64 -46 -58 -8 3 -14 -1
-14 -9 0 -24 27 -17 48 12 l20 28 7 -28 c8 -29 23 -35 43 -15 17 17 15 33 -2
19 -11 -9 -16 -6 -24 19 -14 39 -6 60 24 60 15 0 24 6 24 15 0 20 -19 19 -42
-1 -16 -16 -18 -16 -24 0 -3 9 -17 16 -32 16 l-26 0 22 -20z"/>
<path d="M5326 2677 c-41 -53 -31 -107 19 -107 21 0 71 38 61 47 -2 3 -15 -2
-28 -11 -29 -21 -35 -20 -48 4 -12 23 8 72 37 89 17 10 17 10 1 11 -9 0 -28
-15 -42 -33z"/>
<path d="M5394 2690 c0 -11 6 -20 13 -20 7 0 13 9 13 20 0 11 -6 20 -13 20 -7
0 -13 -9 -13 -20z"/>
<path d="M5453 2698 c29 -23 31 -61 3 -87 -13 -13 -29 -20 -35 -16 -6 3 -11
-1 -11 -9 0 -23 37 -20 50 4 12 23 30 27 30 6 0 -22 19 -30 35 -16 19 16 19
31 1 24 -9 -3 -15 4 -19 22 -7 37 0 52 26 56 27 4 35 28 8 28 -11 0 -25 -8
-31 -17 -10 -17 -10 -17 -20 0 -6 9 -21 17 -32 17 -20 0 -20 -1 -5 -12z"/>
<path d="M3514 2686 c-9 -25 0 -51 20 -54 26 -5 40 12 32 42 -7 29 -43 36 -52
12z m36 -21 c0 -8 -7 -15 -15 -15 -8 0 -15 7 -15 15 0 8 7 15 15 15 8 0 15 -7
15 -15z"/>
<path d="M6080 2690 c0 -6 33 -10 80 -10 47 0 80 4 80 10 0 6 -33 10 -80 10
-47 0 -80 -4 -80 -10z"/>
<path d="M9314 2685 c-9 -21 15 -47 40 -43 15 2 22 12 24 31 3 24 0 27 -28 27
-18 0 -33 -6 -36 -15z m46 -10 c0 -8 -7 -15 -15 -15 -8 0 -15 7 -15 15 0 8 7
15 15 15 8 0 15 -7 15 -15z"/>
<path d="M2178 2683 c-71 -2 -128 -7 -128 -11 0 -4 63 -6 140 -4 85 2 138 7
135 13 -4 5 -9 8 -13 7 -4 -1 -64 -4 -134 -5z"/>
<path d="M6873 2656 c13 -20 26 -30 31 -25 6 5 1 19 -14 34 -34 36 -43 31 -17
-9z"/>
<path d="M975 2670 c-27 -7 -25 -8 18 -9 30 -1 46 3 42 9 -7 11 -16 11 -60 0z"/>
<path d="M4405 2670 c-11 -5 -35 -9 -52 -9 -18 -1 -33 -5 -33 -10 0 -5 15 -8
33 -7 49 2 43 -27 -8 -35 l-40 -6 38 -2 c32 -1 37 -4 37 -25 0 -22 -5 -25 -47
-29 -27 -2 -4 -4 50 -5 60 -1 97 2 97 8 0 6 -15 8 -40 4 -38 -6 -40 -5 -40 20
0 23 4 26 35 26 19 0 35 5 35 11 0 6 -14 9 -32 7 -27 -2 -33 0 -33 17 0 14 8
21 28 23 15 2 25 8 22 13 -7 11 -23 11 -50 -1z"/>
<path d="M1086 2623 c24 -45 24 -48 7 -61 -10 -7 -28 -15 -40 -19 -13 -3 -23
-9 -23 -14 0 -14 12 -11 48 11 39 24 50 25 91 4 21 -10 36 -13 42 -7 6 6 -5
16 -31 26 l-41 16 25 40 c15 22 26 43 26 46 0 3 -29 5 -65 5 l-64 0 25 -47z
m74 25 c0 -7 -9 -24 -18 -36 l-18 -24 -17 26 c-25 37 -21 46 18 46 21 0 35 -5
35 -12z"/>
<path d="M5630 2658 c0 -5 34 -8 75 -8 45 0 75 4 75 10 0 7 -28 10 -75 8 -41
-2 -75 -6 -75 -10z"/>
<path d="M7215 2623 c20 -49 61 -91 75 -77 7 7 1 17 -20 32 -37 27 -38 40 -5
52 14 5 25 14 25 20 0 14 -13 13 -36 -5 -25 -19 -34 -19 -34 0 0 8 -5 15 -10
15 -6 0 -4 -16 5 -37z"/>
<path d="M2493 2633 c15 -2 39 -2 55 0 15 2 2 4 -28 4 -30 0 -43 -2 -27 -4z"/>
<path d="M6080 2630 c0 -6 33 -10 80 -10 47 0 80 4 80 10 0 6 -33 10 -80 10
-47 0 -80 -4 -80 -10z"/>
<path d="M950 2586 l0 -44 43 5 c23 3 42 6 43 7 1 0 -1 18 -4 39 -4 36 -6 37
-43 37 l-39 0 0 -44z m65 4 c0 -18 -6 -26 -22 -28 -18 -3 -23 1 -23 21 0 28 9
39 30 35 9 -2 15 -14 15 -28z"/>
<path d="M7560 2618 c0 -18 18 -34 28 -24 3 4 -2 14 -11 23 -16 16 -17 16 -17
1z"/>
<path d="M1874 2607 c3 -10 6 -25 6 -33 0 -9 5 -12 10 -9 14 9 13 18 -6 41
-14 17 -15 17 -10 1z"/>
<path d="M1920 2613 c0 -4 5 -15 10 -23 8 -13 10 -13 10 2 0 9 -4 20 -10 23
-5 3 -10 3 -10 -2z"/>
<path d="M7470 2598 c0 -15 5 -30 10 -33 13 -8 13 25 0 45 -8 12 -10 9 -10
-12z"/>
<path d="M7513 2606 c4 -10 7 -22 7 -27 0 -5 5 -9 11 -9 15 0 7 43 -10 48 -10
3 -12 0 -8 -12z"/>
<path d="M1830 2581 c0 -17 5 -31 10 -31 6 0 10 11 10 24 0 14 -4 28 -10 31
-6 4 -10 -7 -10 -24z"/>
<path d="M2498 2603 c18 -2 45 -2 60 0 15 2 0 4 -33 4 -33 0 -45 -2 -27 -4z"/>
<path d="M7426 2586 c-19 -29 -20 -36 -6 -36 11 0 34 50 27 57 -3 2 -12 -8
-21 -21z"/>
<path d="M380 2585 c0 -8 7 -15 15 -15 8 0 15 7 15 15 0 8 -7 15 -15 15 -8 0
-15 -7 -15 -15z"/>
<path d="M1787 2582 c-19 -21 -22 -32 -7 -32 10 0 34 39 27 46 -2 2 -11 -4
-20 -14z"/>
<path d="M2496 2573 c-11 -3 -26 -11 -34 -19 -7 -8 -22 -14 -32 -14 -10 0 -22
-4 -25 -10 -10 -17 27 -10 79 14 l48 23 50 -24 c28 -13 53 -21 56 -18 8 8 -18
25 -39 25 -9 0 -22 7 -29 15 -12 15 -37 17 -74 8z"/>
<path d="M3363 1975 c-19 -21 -16 -27 7 -13 22 14 29 10 35 -23 3 -17 -5 -34
-25 -56 -17 -18 -30 -35 -30 -38 0 -11 73 0 77 11 2 7 -6 10 -24 6 l-28 -5 22
24 c28 31 39 75 23 94 -16 19 -41 19 -57 0z"/>
<path d="M3962 1978 c-17 -17 -15 -33 3 -18 8 7 22 9 31 6 22 -8 11 -52 -22
-87 -13 -14 -24 -27 -24 -30 0 -12 79 -5 84 7 4 10 -2 12 -24 7 -37 -7 -38 2
-5 33 28 26 32 58 11 80 -18 17 -38 18 -54 2z"/>
<path d="M13560 1951 c0 -5 4 -11 8 -13 12 -5 52 -65 52 -77 0 -7 -29 -11 -80
-11 -80 0 -93 6 -65 30 8 7 15 17 15 23 0 6 7 19 17 29 13 14 13 18 2 18 -8 0
-27 -23 -44 -50 -16 -28 -33 -50 -37 -50 -4 0 -8 -7 -8 -16 0 -10 4 -12 13 -7
6 4 27 8 45 10 27 2 32 -2 32 -20 0 -29 -33 -82 -65 -103 -29 -19 -35 -40 -6
-25 35 19 76 70 87 108 10 34 14 38 47 41 l37 3 0 -46 c0 -66 -12 -84 -52 -79
l-33 5 29 -16 c15 -8 34 -15 42 -15 15 0 34 59 34 105 0 44 14 62 34 46 13
-11 16 -11 16 3 0 9 -4 16 -9 16 -22 0 -71 53 -71 76 0 17 -6 24 -20 24 -11 0
-20 -4 -20 -9z"/>
<path d="M13740 1944 c0 -4 11 -19 25 -36 24 -29 31 -64 26 -133 -3 -35 -27
-85 -41 -85 -6 0 -10 -5 -10 -10 0 -20 38 9 60 45 32 52 31 119 -4 172 -24 36
-56 63 -56 47z"/>
<path d="M1867 1933 c-4 -3 -7 -51 -7 -106 0 -90 -2 -99 -20 -104 -20 -5 -25
-15 -14 -26 5 -5 92 41 122 65 25 21 2 20 -33 -2 l-36 -22 2 96 c2 95 -1 113
-14 99z"/>
<path d="M2730 1926 c0 -19 -16 -23 -72 -21 -27 1 -48 -1 -48 -6 0 -5 27 -9
60 -9 74 0 81 -19 8 -22 l-53 -1 49 -6 c74 -9 72 -31 -3 -31 -34 0 -63 -5 -67
-12 -5 -8 8 -9 49 -4 34 3 57 2 57 -3 0 -13 -44 -47 -81 -63 -16 -7 -29 -16
-29 -20 0 -12 14 -9 36 7 33 25 44 18 44 -26 0 -34 3 -40 16 -35 9 3 27 9 40
12 13 3 24 11 24 16 0 6 -8 8 -17 5 -47 -13 -48 -12 -51 22 -3 26 3 40 25 63
27 29 31 30 96 25 37 -2 67 0 67 4 0 5 -32 9 -71 9 -52 0 -70 3 -67 13 3 7 23
12 49 13 24 1 44 5 44 10 0 5 -19 8 -41 6 -23 -2 -45 1 -49 7 -4 7 14 11 54
11 37 0 61 4 61 11 0 6 -20 9 -56 6 -51 -4 -55 -3 -51 14 3 12 0 19 -9 19 -8
0 -14 -6 -14 -14z"/>
<path d="M13137 1929 c-50 -29 -66 -150 -28 -212 19 -31 39 -47 59 -47 3 0 -4
10 -16 23 -28 29 -42 70 -42 118 0 44 11 72 43 107 21 23 14 29 -16 11z"/>
<path d="M13220 1933 c-16 -6 -30 -23 -30 -36 0 -4 9 -3 21 3 44 24 70 -24 29
-53 -20 -14 -19 -14 5 -25 46 -21 20 -80 -31 -74 -13 2 -24 -1 -24 -7 0 -16
52 -13 78 5 15 11 22 25 22 50 0 19 -4 34 -10 34 -6 0 -7 18 -3 46 7 56 -11
74 -57 57z"/>
<path d="M981 1893 c-28 -34 -31 -45 -31 -104 0 -61 3 -69 35 -105 19 -21 34
-34 35 -27 0 6 -5 15 -11 18 -13 9 -29 50 -35 96 -7 48 12 115 37 133 12 8 16
17 11 20 -6 3 -24 -11 -41 -31z"/>
<path d="M1170 1923 c0 -4 10 -17 23 -31 19 -20 22 -34 22 -102 0 -69 -3 -81
-24 -104 -14 -14 -22 -28 -19 -31 4 -5 29 17 56 49 19 24 26 99 12 140 -15 47
-70 108 -70 79z"/>
<path d="M2027 1864 c-8 -82 -29 -120 -91 -161 -27 -18 -43 -33 -36 -33 18 0
100 49 100 59 0 5 7 11 15 15 10 3 23 -6 38 -29 23 -37 37 -44 37 -21 0 8 -13
27 -29 42 -31 29 -32 35 -16 162 2 17 0 32 -4 32 -5 0 -11 -30 -14 -66z"/>
<path d="M3839 1907 c-9 -6 -20 -21 -26 -32 -12 -23 -83 -210 -83 -219 0 -17
18 -2 32 27 14 29 20 33 49 30 51 -5 83 27 84 82 1 24 7 50 14 59 7 8 11 25 9
38 -2 17 -10 24 -33 25 -16 2 -37 -3 -46 -10z m57 -11 c9 -23 -14 -56 -39 -56
-20 -1 -21 -2 -4 -14 24 -19 21 -59 -6 -85 -25 -22 -57 -20 -57 4 0 13 19 63
46 122 19 41 50 56 60 29z"/>
<path d="M1912 1903 c14 -30 44 -73 51 -73 12 0 -2 41 -21 63 -15 17 -37 24
-30 10z"/>
<path d="M3568 1833 c-3 -36 -5 -38 -43 -44 l-40 -6 42 -2 c40 -1 42 -2 40
-33 -1 -17 3 -33 11 -35 8 -3 12 7 12 31 0 33 2 35 38 39 l37 4 -37 1 c-36 2
-38 4 -38 36 0 48 -18 55 -22 9z"/>
<path d="M1057 1853 c-11 -10 -8 -43 3 -43 6 0 10 7 10 15 0 8 9 15 20 15 30
0 24 -27 -9 -44 -34 -18 -41 -33 -30 -63 7 -19 14 -21 54 -19 46 4 70 15 48
23 -8 3 -13 24 -13 58 0 39 -4 54 -16 59 -21 8 -59 8 -67 -1z m63 -74 c0 -17
-20 -49 -31 -49 -16 0 -22 29 -9 45 14 17 40 20 40 4z"/>
<path d="M2336 1817 c-41 -53 -31 -107 19 -107 12 0 30 9 40 20 21 23 14 26
-15 8 -16 -10 -23 -10 -36 4 -15 14 -15 21 -4 48 11 27 36 50 54 50 3 0 6 -9
6 -21 0 -12 5 -19 13 -16 6 2 12 12 12 23 0 14 -8 20 -32 22 -25 3 -36 -3 -57
-31z"/>
<path d="M3178 1825 c-29 -27 -42 -61 -36 -92 4 -22 48 -29 79 -13 17 10 23 9
30 -1 10 -16 40 -2 47 22 4 11 2 12 -9 2 -7 -7 -17 -13 -21 -13 -12 0 -10 38
2 45 14 9 43 66 36 72 -3 3 -13 -2 -22 -12 -16 -15 -18 -15 -26 -1 -13 24 -50
19 -80 -9z m72 -19 c0 -14 -12 -38 -26 -55 -47 -56 -75 -32 -44 37 15 33 24
42 45 42 20 0 25 -5 25 -24z"/>
<path d="M4314 1826 c-11 -28 4 -48 33 -44 22 2 28 8 28 28 0 20 -6 26 -28 28
-18 2 -29 -2 -33 -12z m46 -16 c0 -11 -7 -20 -15 -20 -8 0 -15 9 -15 20 0 11
7 20 15 20 8 0 15 -9 15 -20z"/>
<path d="M2812 1783 c-19 -13 -28 -14 -43 -5 -24 15 -24 5 0 -34 22 -36 85
-79 102 -68 8 4 -6 16 -35 31 -53 27 -55 41 -8 63 32 15 42 30 20 29 -7 0 -24
-7 -36 -16z"/>
<path d="M11006 1125 c-11 -8 -17 -18 -13 -21 4 -4 14 -1 23 7 14 11 18 11 30
-6 20 -28 18 -37 -21 -75 -19 -19 -35 -37 -35 -41 0 -12 81 -2 93 11 9 9 5 11
-20 5 -40 -8 -41 -2 -8 37 29 34 32 60 9 82 -19 20 -33 20 -58 1z"/>
<path d="M9407 1123 c-14 -14 -6 -22 20 -20 42 3 41 -30 -3 -81 l-37 -43 48 3
c27 2 50 8 53 15 2 9 -5 11 -29 6 l-32 -6 27 39 c29 42 32 64 14 82 -13 13
-50 16 -61 5z"/>
<path d="M10387 1123 c-15 -14 -6 -23 13 -13 16 8 21 6 31 -11 9 -18 6 -28
-20 -66 -17 -24 -31 -46 -31 -49 0 -11 74 2 78 14 3 9 -3 11 -22 6 -32 -8 -33
0 -1 38 27 32 32 57 13 76 -13 13 -50 16 -61 5z"/>
<path d="M12837 1083 c-4 -3 -7 -14 -7 -24 0 -15 -11 -19 -67 -22 l-68 -3 67
-2 c72 -2 80 -9 74 -62 -2 -14 -4 -49 -5 -77 -1 -51 -2 -53 -28 -53 l-28 -1
24 -13 c39 -22 51 -10 51 50 l0 53 45 -44 c42 -43 68 -55 79 -37 2 4 -14 18
-37 30 -24 12 -48 31 -54 41 -11 17 -8 22 24 38 38 20 55 43 32 43 -7 0 -26
-12 -41 -27 -24 -23 -30 -25 -38 -13 -5 8 -10 27 -10 43 0 27 1 27 65 27 36 0
65 4 65 10 0 5 -26 7 -65 3 -44 -4 -65 -2 -65 5 0 6 5 14 10 17 6 4 8 11 5 16
-7 11 -19 12 -28 2z"/>
<path d="M12885 1080 c-3 -5 4 -14 15 -20 16 -8 20 -8 20 4 0 16 -27 29 -35
16z"/>
<path d="M13553 1059 c-7 -17 -17 -28 -22 -24 -8 4 -11 -27 -11 -96 0 -80 3
-100 12 -91 14 14 68 16 68 2 0 -5 5 -10 10 -10 6 0 10 27 10 60 0 47 5 66 20
82 11 12 20 28 20 35 0 9 16 13 51 13 l51 0 -7 -67 c-11 -119 -13 -123 -48
-123 l-32 0 25 -13 c14 -8 30 -12 37 -10 19 7 31 53 37 139 l6 81 -27 6 c-16
3 -40 3 -55 0 -27 -5 -39 9 -18 22 12 7 4 25 -11 25 -5 0 -9 -5 -9 -12 0 -7
-7 -32 -16 -55 -18 -46 -35 -50 -26 -7 4 25 3 26 -22 22 -25 -5 -27 -4 -21 23
9 39 -8 37 -22 -2z m47 -74 c0 -28 -4 -35 -19 -35 -34 0 -51 12 -51 34 0 30 8
36 42 36 25 0 28 -3 28 -35z m0 -80 c0 -33 -2 -35 -35 -35 -33 0 -35 2 -35 35
0 33 2 35 35 35 33 0 35 -2 35 -35z"/>
<path d="M4000 1056 c-5 -13 -14 -27 -19 -31 -6 -3 -11 -11 -11 -17 0 -6 10
-2 23 10 29 27 33 27 40 2 3 -11 11 -20 18 -20 10 0 10 3 1 12 -21 21 -13 28
29 28 22 0 38 4 35 9 -3 5 -24 7 -46 4 -33 -5 -40 -3 -40 11 0 24 -19 19 -30
-8z"/>
<path d="M5420 1071 c0 -5 -12 -24 -26 -41 -33 -39 -25 -51 9 -14 l26 28 20
-25 c11 -13 20 -19 21 -13 0 5 -5 15 -12 22 -9 9 -4 12 25 12 30 0 35 -3 30
-17 -6 -16 -4 -16 15 1 22 19 23 19 37 0 8 -10 15 -22 15 -26 0 -5 -39 -9 -87
-10 -50 -1 -68 -3 -43 -5 25 -3 49 -9 55 -14 16 -16 -17 -30 -57 -23 -21 3
-38 2 -38 -3 0 -4 -3 -18 -6 -30 -6 -21 -3 -23 40 -23 46 0 62 -15 29 -27 -10
-4 -20 -10 -23 -15 -3 -4 -24 -14 -45 -22 -30 -11 -34 -15 -17 -15 26 -1 78
23 102 47 14 14 16 12 21 -29 l6 -44 1 53 2 52 50 0 c47 0 50 -2 50 -25 0 -21
-5 -25 -32 -26 -32 0 -32 -1 -9 -10 34 -13 45 -7 58 35 l11 36 -64 0 c-50 0
-64 3 -64 15 0 11 12 15 50 15 l50 0 0 35 c0 24 -5 35 -15 35 -8 0 -15 7 -15
15 0 8 -6 16 -12 17 -7 0 7 4 32 8 l45 7 -47 1 c-35 2 -48 6 -48 17 0 22 -21
18 -27 -5 -3 -11 -10 -17 -16 -13 -6 4 -27 6 -45 5 -27 -2 -33 0 -29 13 4 9 1
15 -8 15 -8 0 -15 -4 -15 -9z m180 -105 c0 -24 -62 -37 -75 -16 -11 18 5 30
41 30 22 0 34 -5 34 -14z m-90 -51 c0 -11 -12 -15 -45 -15 -42 0 -54 7 -38 23
3 4 24 7 45 7 27 0 38 -4 38 -15z"/>
<path d="M6913 1063 c-3 -10 -15 -28 -26 -40 -12 -13 -15 -23 -9 -23 7 0 20 9
29 20 10 11 23 20 29 20 6 0 14 -9 17 -20 4 -16 0 -20 -19 -20 -13 0 -24 -4
-24 -10 0 -5 23 -10 51 -10 42 0 50 -3 47 -17 -2 -14 -13 -17 -46 -16 -37 1
-44 -2 -53 -23 -5 -14 -9 -27 -9 -30 0 -2 20 -4 45 -4 25 0 45 -4 45 -9 0 -4
-28 -23 -62 -40 -54 -28 -58 -32 -28 -27 19 4 52 18 72 31 l38 25 0 -35 c0
-22 4 -34 10 -30 6 4 9 23 8 43 -3 36 -2 37 40 43 32 4 45 2 49 -8 9 -24 -6
-43 -34 -44 l-28 -1 28 -10 c35 -13 52 1 61 51 l6 34 -60 -6 c-46 -4 -60 -2
-60 8 0 8 19 16 48 20 46 6 49 8 44 33 -3 14 -14 35 -24 47 -19 20 -19 20 16
23 20 2 36 8 36 13 0 6 -17 8 -45 3 -39 -5 -44 -4 -39 10 4 10 1 16 -9 16 -8
0 -17 -10 -21 -22 -4 -17 -8 -20 -17 -11 -6 6 -26 9 -45 6 -27 -4 -34 -2 -34
11 0 21 -19 21 -27 -1z m98 -36 c-6 -8 -8 -17 -4 -20 3 -4 -3 -7 -14 -7 -12 0
-23 8 -26 20 -4 17 0 20 25 20 24 0 28 -3 19 -13z m59 9 c0 -2 3 -11 6 -20 5
-13 -1 -16 -25 -16 -29 0 -31 2 -21 20 9 17 40 29 40 16z m33 -71 c-2 -12 -43
-23 -60 -17 -7 2 -13 11 -13 19 0 10 10 13 38 11 20 -2 36 -7 35 -13z m-107
-35 c8 0 14 -7 14 -15 0 -11 -11 -15 -39 -15 -22 0 -42 4 -46 9 -7 12 26 32
43 26 8 -3 20 -5 28 -5z"/>
<path d="M8610 955 l0 -125 -37 -1 -38 -1 38 -10 c21 -6 40 -9 42 -7 7 8 10
269 3 269 -5 0 -8 -56 -8 -125z"/>
<path d="M8801 1063 c-2 -30 -18 -38 -26 -13 -3 11 -11 20 -16 20 -6 0 -8 -9
-4 -19 4 -15 0 -21 -17 -24 -15 -3 -9 -5 15 -6 35 -1 37 -2 31 -28 -8 -35 -51
-122 -72 -146 -8 -9 -13 -20 -10 -23 4 -3 20 15 38 40 28 41 35 46 69 46 21 0
58 3 83 6 51 7 62 -5 51 -56 -5 -26 -10 -30 -37 -30 -24 0 -27 -3 -16 -10 41
-26 64 -5 74 68 5 39 4 42 -18 42 -19 0 -22 4 -19 24 4 17 0 25 -15 28 -15 4
-19 11 -15 27 5 19 1 21 -40 21 -42 0 -46 2 -50 28 -3 21 -4 22 -6 5z m79 -63
c0 -17 -7 -20 -40 -20 -27 0 -40 4 -40 13 0 21 11 27 47 27 26 0 33 -4 33 -20z
m33 -50 c-5 -17 -14 -20 -69 -20 -35 0 -64 2 -64 4 0 28 16 36 75 36 58 0 63
-2 58 -20z"/>
<path d="M1892 1053 c2 -15 -4 -18 -34 -16 -21 1 -38 -2 -38 -7 0 -6 19 -10
41 -10 l42 0 -6 -45 c-6 -43 -5 -45 18 -45 16 0 25 -6 25 -16 0 -14 -10 -16
-60 -12 -33 2 -60 1 -60 -4 0 -4 27 -8 60 -8 l60 0 0 -50 c0 -27 5 -50 10 -50
6 0 10 23 10 50 l0 50 65 0 c36 0 65 4 65 10 0 5 -26 7 -65 3 -56 -5 -65 -4
-65 11 0 11 9 16 30 16 29 0 30 2 30 45 l0 45 41 0 c27 0 38 4 33 11 -4 7 -21
9 -40 6 -29 -5 -34 -3 -34 14 0 25 -16 25 -23 -1 -3 -13 -12 -18 -24 -16 -11
3 -26 0 -34 -5 -10 -6 -2 -9 24 -9 27 0 37 -4 35 -12 -3 -8 -21 -13 -44 -13
-39 0 -39 0 -37 38 1 27 -3 37 -13 37 -9 0 -14 -7 -12 -17z m94 -84 c3 -6 1
-14 -5 -18 -14 -9 -71 -2 -71 9 0 19 65 27 76 9z"/>
<path d="M2173 1035 c-31 -47 -29 -54 6 -21 27 26 29 26 34 7 3 -12 10 -21 17
-21 7 0 9 8 5 21 -6 17 -3 20 17 17 17 -2 24 -10 26 -30 3 -28 2 -28 -55 -30
l-58 -1 54 -6 c69 -8 82 -31 17 -31 -26 0 -46 -5 -46 -11 0 -6 16 -10 38 -9
78 4 102 0 102 -15 0 -12 -17 -15 -90 -15 -53 0 -90 -4 -90 -10 0 -5 16 -10
36 -10 19 0 33 -4 30 -9 -3 -4 3 -16 14 -26 16 -14 20 -15 20 -4 0 8 -5 20
-12 27 -9 9 0 12 41 12 51 0 52 -1 49 -27 -2 -23 -7 -27 -28 -25 l-25 3 23
-16 c33 -24 52 -13 52 30 0 34 1 35 40 35 22 0 40 5 40 10 0 11 -11 13 -52 10
-32 -2 -38 19 -8 27 37 10 21 21 -27 20 -38 -2 -48 2 -51 16 -3 15 5 17 60 19
l63 2 -57 3 c-47 3 -58 8 -64 25 -4 13 -1 24 7 29 21 13 26 11 32 -11 3 -11
10 -20 15 -20 6 0 8 8 5 19 -4 16 0 18 31 14 21 -2 36 1 36 7 0 5 -20 10 -44
10 -27 0 -46 5 -49 13 -3 9 -10 7 -25 -6 -11 -10 -23 -14 -26 -9 -3 5 -19 7
-37 4 -22 -3 -30 -1 -25 7 4 6 1 11 -6 11 -7 0 -23 -16 -35 -35z"/>
<path d="M2570 1051 c10 -20 8 -21 -35 -21 -28 0 -44 -4 -40 -10 3 -5 33 -10
66 -10 45 0 59 -3 59 -14 0 -11 -15 -16 -52 -19 l-53 -3 53 -2 c39 -2 52 -6
52 -17 0 -12 -15 -15 -67 -17 -38 0 -53 -3 -35 -5 20 -3 32 -10 32 -19 0 -20
-25 -68 -44 -83 -9 -8 -16 -18 -16 -24 0 -21 53 39 72 80 l19 42 79 -2 c44 -2
85 0 92 5 14 9 14 9 -57 11 -68 3 -74 21 -7 25 65 4 69 20 5 18 -74 -2 -68 19
5 22 44 2 62 7 59 15 -2 7 -19 11 -43 9 -35 -2 -37 -1 -21 11 20 17 22 27 4
27 -7 0 -18 -9 -25 -20 -13 -21 -72 -29 -72 -10 0 5 -9 14 -21 20 -19 11 -20
10 -9 -9z"/>
<path d="M2900 1059 c0 -7 -10 -9 -25 -7 -19 4 -25 1 -25 -13 0 -11 -4 -19
-10 -19 -5 0 -10 -5 -10 -11 0 -5 5 -7 10 -4 6 3 10 -4 10 -16 0 -12 3 -19 8
-15 4 4 7 20 7 34 1 17 7 28 18 30 14 3 17 -4 17 -37 0 -37 -2 -41 -25 -41
-21 0 -25 -5 -25 -30 0 -20 5 -30 15 -30 8 0 15 -5 15 -11 0 -7 -10 -9 -25 -7
-14 3 -25 1 -25 -3 0 -5 9 -9 21 -9 13 0 18 -4 13 -12 -4 -6 1 -17 11 -24 17
-13 16 -14 -13 -20 -18 -4 -32 -10 -32 -15 0 -12 5 -11 45 5 37 16 68 14 91
-5 12 -10 21 -6 44 16 l30 29 23 -22 c25 -23 47 -29 47 -12 0 6 -4 10 -10 10
-5 0 -18 10 -29 21 -17 19 -18 24 -7 43 8 11 17 38 20 59 4 20 12 37 17 37 6
0 9 6 7 12 -3 8 -19 12 -43 10 -31 -3 -37 -1 -31 12 3 9 9 23 12 31 4 10 0 15
-10 15 -9 0 -16 -8 -16 -20 0 -11 -6 -36 -14 -55 -13 -31 -13 -38 5 -74 24
-51 24 -53 -5 -80 -21 -20 -26 -21 -45 -9 -29 18 -22 42 14 49 25 5 27 7 12
14 -10 4 -31 5 -47 1 -22 -4 -30 -2 -30 9 0 10 11 15 34 15 29 0 34 3 34 25 0
19 -6 25 -22 24 -11 0 -15 -3 -8 -6 20 -8 14 -33 -8 -33 -17 0 -20 5 -17 28 3
19 9 27 23 27 28 0 48 42 30 61 -8 8 -24 14 -35 14 -12 0 -21 5 -21 10 0 6 -4
10 -10 10 -5 0 -10 -5 -10 -11z m55 -29 c3 -5 0 -10 -7 -11 -10 0 -10 -2 0 -6
19 -8 14 -23 -8 -23 -13 0 -20 7 -20 18 0 29 22 43 35 22z m112 -87 c-9 -54
-22 -61 -42 -20 -20 42 -14 57 22 57 24 0 25 -2 20 -37z m-167 -8 c0 -8 -6
-15 -14 -15 -17 0 -28 14 -19 24 12 12 33 6 33 -9z m28 -77 c-5 -15 -48 -24
-48 -10 0 14 12 22 33 22 10 0 17 -5 15 -12z"/>
<path d="M3410 945 l0 -125 -32 -1 c-22 -1 -26 -3 -13 -6 11 -3 25 -9 32 -15
19 -16 25 8 27 125 2 62 6 120 11 130 5 12 3 17 -9 17 -14 0 -16 -17 -16 -125z"/>
<path d="M3650 1051 c0 -10 -7 -37 -15 -60 -8 -22 -10 -41 -5 -41 4 0 11 14
15 30 7 30 8 31 58 28 l52 -3 -3 -55 c-1 -30 -5 -72 -8 -94 -6 -38 -7 -38 -43
-32 l-36 5 25 -19 c14 -11 28 -20 32 -20 18 0 37 51 43 115 3 39 9 83 12 99
l5 29 -57 -6 c-56 -6 -57 -6 -51 19 5 17 2 24 -9 24 -8 0 -15 -8 -15 -19z"/>
<path d="M3862 1030 c-25 -45 -20 -53 10 -15 15 19 30 25 61 27 l42 1 -38 4
c-20 2 -35 8 -32 14 4 5 0 9 -7 9 -7 0 -23 -18 -36 -40z"/>
<path d="M6375 1060 c-38 -4 -55 -7 -37 -8 25 -2 32 -6 32 -23 0 -17 -4 -20
-27 -15 l-28 6 0 -85 c0 -80 1 -84 20 -79 14 4 9 -4 -15 -25 -19 -17 -31 -31
-26 -31 16 0 74 40 80 56 3 8 10 12 16 9 5 -3 18 -1 27 5 14 8 7 10 -32 8 -41
-3 -50 0 -53 15 -3 16 3 18 55 15 53 -3 58 -5 55 -25 -2 -12 2 -24 8 -28 6 -4
10 17 10 64 0 38 3 76 6 85 5 14 -1 15 -42 9 -42 -5 -47 -4 -41 11 4 10 7 20
7 22 0 2 21 4 46 4 27 0 43 4 39 10 -3 6 -12 9 -18 8 -7 -1 -43 -4 -82 -8z
m70 -75 c0 -5 -26 -11 -57 -13 -54 -3 -69 4 -51 22 11 10 108 3 108 -9z m-1
-48 c-6 -17 -106 -17 -111 1 -4 9 12 12 56 12 45 0 59 -3 55 -13z"/>
<path d="M7780 1052 c-14 -7 -40 -11 -57 -8 -18 3 -35 1 -38 -4 -3 -5 5 -10
17 -12 21 -3 23 -9 26 -65 3 -62 2 -63 -23 -63 -16 0 -25 -6 -25 -15 0 -19 -2
-19 54 5 46 21 64 43 26 33 -18 -5 -20 0 -20 45 0 47 2 52 32 66 45 23 78 21
78 -5 0 -18 -4 -20 -25 -15 l-25 6 0 -84 c0 -81 1 -84 22 -78 30 7 15 -14 -24
-34 -16 -8 -27 -18 -24 -22 4 -3 27 9 53 27 35 25 54 32 78 29 32 -4 33 -3 39
47 12 102 11 105 -35 105 -33 0 -40 3 -37 18 2 12 16 19 48 23 56 8 44 11 -45
13 -41 0 -81 -4 -95 -12z m148 -64 c-3 -8 -26 -14 -56 -16 -42 -2 -52 0 -52
12 0 13 12 16 56 16 40 0 55 -4 52 -12z m-1 -50 c-2 -8 -22 -13 -52 -13 -30 0
-50 5 -53 13 -3 9 12 12 53 12 41 0 55 -3 52 -12z m3 -32 c0 -2 -3 -11 -6 -20
-8 -21 -99 -23 -107 -2 -3 8 -3 17 0 20 7 7 113 8 113 2z"/>
<path d="M8202 1025 c17 -25 30 -47 27 -49 -2 -2 -31 -5 -64 -6 -110 -3 -112
-1 -70 48 29 34 31 42 11 42 -8 0 -18 -13 -24 -28 -5 -15 -24 -42 -42 -60 -21
-21 -26 -32 -16 -32 8 0 17 4 20 8 8 14 76 1 76 -15 0 -26 -29 -71 -66 -102
-29 -23 -32 -29 -15 -24 34 9 79 60 92 104 11 37 15 39 51 39 37 0 38 -1 38
-37 0 -69 -9 -86 -41 -79 -16 3 -29 1 -29 -3 0 -12 56 -25 69 -17 5 4 13 35
16 71 7 63 8 65 36 65 16 0 29 5 29 10 0 6 -4 10 -10 10 -18 0 -80 62 -80 81
0 12 -7 19 -20 19 -18 0 -17 -4 12 -45z"/>
<path d="M8378 1016 c3 -42 7 -53 18 -49 10 3 14 -2 14 -18 0 -39 -21 -103
-36 -112 -22 -13 -17 -29 5 -17 11 6 26 31 33 58 12 40 17 47 38 47 23 0 25
-4 25 -45 0 -42 -2 -45 -30 -50 -25 -5 -27 -7 -12 -13 52 -20 60 -10 70 81 l5
42 -38 0 c-22 0 -42 5 -46 11 -9 15 16 30 41 25 30 -7 41 5 41 47 l1 37 -46 0
c-25 0 -55 3 -66 6 -19 5 -20 1 -17 -50z m102 20 c0 -8 3 -21 6 -30 5 -13 -2
-16 -45 -16 -50 0 -51 1 -51 30 0 29 2 30 45 30 32 0 45 -4 45 -14z"/>
<path d="M10870 1041 c-16 -16 -32 -41 -36 -57 -4 -16 -22 -65 -41 -109 -38
-92 -37 -85 -19 -85 8 0 20 16 26 35 10 30 15 34 36 29 58 -15 120 44 108 103
-4 20 -1 33 10 42 24 20 20 58 -6 65 -39 10 -49 7 -78 -23z m67 3 c9 -25 -14
-64 -39 -65 l-23 0 23 -9 c26 -11 28 -30 7 -69 -17 -34 -32 -41 -62 -30 -22 8
-23 26 -3 54 4 6 15 34 24 62 21 64 59 94 73 57z"/>
<path d="M11370 1059 c0 -5 10 -9 23 -7 21 3 22 0 21 -58 -1 -64 -29 -136 -62
-160 -10 -7 -13 -16 -9 -21 14 -13 65 59 77 110 14 53 25 60 35 20 3 -16 14
-36 22 -45 23 -26 10 -45 -46 -65 -28 -10 -51 -21 -51 -25 0 -9 47 5 94 27 35
17 38 17 87 -5 33 -14 55 -18 61 -12 6 6 0 12 -17 16 -15 4 -37 14 -50 22
l-23 15 34 52 c19 28 34 55 34 60 0 5 -14 5 -32 2 l-31 -7 6 46 7 46 -90 0
c-57 0 -90 -4 -90 -11z m154 -33 c-8 -42 -16 -48 -55 -44 -30 3 -34 7 -37 35
-3 34 3 38 66 39 31 0 33 -1 26 -30z m25 -96 c-12 -22 -27 -40 -34 -40 -12 0
-55 58 -55 74 0 3 25 6 55 6 l55 0 -21 -40z"/>
<path d="M1050 1051 c-17 -5 -21 -9 -12 -15 8 -5 12 -36 12 -97 0 -88 0 -90
27 -100 38 -14 76 15 84 65 8 49 -13 79 -52 74 -30 -5 -34 3 -29 60 1 12 0 22
-2 21 -2 -1 -14 -4 -28 -8z m78 -103 c27 -27 1 -106 -32 -95 -20 7 -31 54 -18
82 13 27 31 32 50 13z"/>
<path d="M3230 1049 c-41 -3 -63 -6 -49 -7 14 -1 28 -5 31 -8 9 -9 -10 -66
-32 -96 -23 -31 -20 -34 11 -15 17 10 22 9 35 -7 22 -31 17 -51 -22 -86 -20
-17 -34 -34 -31 -36 3 -3 23 10 44 29 36 33 72 92 88 145 6 20 3 22 -34 22
-26 0 -41 5 -41 13 0 23 15 33 55 36 21 1 41 3 43 5 8 9 -29 11 -98 5z m55
-78 c5 -9 -17 -61 -25 -61 -17 1 -52 40 -47 52 5 16 63 22 72 9z"/>
<path d="M3542 1034 c-7 -14 -17 -22 -22 -19 -6 4 -10 -30 -10 -94 0 -61 4
-101 10 -101 6 0 10 5 10 10 0 14 54 12 68 -2 9 -9 12 6 12 67 0 44 3 90 6
102 6 20 3 22 -30 16 -40 -6 -45 1 -19 29 14 15 14 18 1 18 -8 0 -20 -12 -26
-26z m53 -61 c-1 -24 -6 -28 -33 -31 -30 -3 -32 -1 -32 27 0 28 3 31 33 31 31
0 34 -3 32 -27z m-4 -80 c8 -39 4 -43 -33 -43 -25 0 -28 3 -28 33 0 40 7 49
34 45 14 -2 22 -13 27 -35z"/>
<path d="M4798 1053 c40 -5 41 -35 2 -43 -24 -5 -25 -9 -27 -83 -1 -65 1 -78
13 -73 26 10 14 -13 -16 -31 -27 -16 -40 -33 -23 -33 8 0 76 51 84 63 4 5 23
8 43 5 l36 -4 0 78 c0 59 -3 78 -14 78 -8 0 -12 -8 -9 -22 4 -21 0 -23 -46
-24 -43 -1 -51 2 -51 17 0 15 8 19 38 19 27 0 33 3 22 10 -12 7 -12 12 -2 22
22 22 13 28 -35 26 -38 -1 -41 -2 -15 -5z m100 -115 c-3 -8 -26 -14 -56 -16
-42 -2 -52 0 -52 12 0 13 12 16 56 16 40 0 55 -4 52 -12z m0 -50 c3 -15 -5
-18 -52 -18 -47 0 -56 3 -56 18 0 26 103 25 108 0z"/>
<path d="M4893 1053 c9 -2 23 -2 30 0 6 3 -1 5 -18 5 -16 0 -22 -2 -12 -5z"/>
<path d="M6583 1053 c25 -4 27 -8 27 -52 0 -61 -23 -128 -57 -163 -15 -15 -24
-30 -21 -33 11 -12 68 68 79 110 6 25 14 45 18 45 10 0 54 -97 48 -107 -3 -5
-24 -16 -47 -23 -23 -7 -44 -18 -47 -23 -7 -11 27 -2 76 21 31 14 38 14 81 -1
54 -19 80 -22 80 -7 0 6 -10 10 -22 10 -13 0 -35 8 -50 18 l-27 18 34 52 c19
28 35 54 35 57 0 3 -16 5 -36 5 -31 0 -35 3 -29 18 26 62 26 62 -76 61 -52 -1
-82 -4 -66 -6z m133 -25 c-3 -13 -6 -29 -6 -35 0 -8 -15 -13 -40 -13 -39 0
-40 1 -40 35 0 35 0 35 46 35 43 0 46 -2 40 -22z m34 -77 c0 -10 -9 -30 -21
-45 -17 -22 -24 -25 -36 -15 -14 12 -43 62 -43 74 0 3 23 5 50 5 42 0 50 -3
50 -19z"/>
<path d="M11864 1035 c-14 -22 -14 -26 2 -54 17 -28 17 -31 1 -49 -21 -23 -22
-46 -1 -66 18 -19 65 -21 82 -4 17 17 15 63 -3 78 -8 7 -15 18 -15 25 0 7 7
15 15 19 22 8 19 53 -4 66 -32 17 -60 12 -77 -15z m64 -22 c-4 -34 -23 -41
-38 -13 -13 25 -6 40 21 40 16 0 20 -6 17 -27z m2 -118 c0 -26 -22 -39 -39
-22 -12 12 -14 37 -5 62 6 14 8 14 25 -1 11 -9 19 -27 19 -39z"/>
<path d="M12072 1052 c-24 -2 -36 -11 -47 -32 -16 -31 -20 -54 -7 -46 4 2 22
-2 40 -11 24 -12 32 -22 32 -43 0 -37 -22 -53 -61 -45 -24 6 -30 4 -27 -6 7
-21 79 -16 95 7 30 41 2 124 -42 124 -8 0 -15 7 -15 15 0 10 10 15 29 15 17 0
33 5 36 11 9 14 6 15 -33 11z"/>
<path d="M976 1018 c-28 -38 -41 -94 -32 -141 7 -35 60 -106 71 -95 4 3 -3 16
-14 27 -28 28 -35 61 -28 133 4 43 12 67 28 84 12 13 17 24 11 24 -6 0 -22
-15 -36 -32z"/>
<path d="M1197 1028 c50 -55 53 -163 6 -219 -31 -37 -15 -38 19 -1 39 42 53
94 38 148 -13 45 -50 94 -71 94 -7 0 -4 -9 8 -22z"/>
<path d="M4380 1037 c-20 -8 -22 -11 -7 -14 14 -4 17 -16 17 -83 0 -43 -4 -82
-10 -85 -21 -13 -9 -21 26 -17 30 4 34 6 20 14 -15 8 -17 23 -15 99 2 48 1 90
-1 92 -3 3 -16 0 -30 -6z"/>
<path d="M5885 1030 c-22 -24 -14 -38 8 -15 20 20 53 19 61 -1 15 -39 5 -66
-43 -115 -26 -27 -45 -51 -41 -54 13 -8 105 -3 118 7 23 19 12 26 -35 21 l-48
-4 22 19 c30 27 63 83 63 109 0 50 -70 72 -105 33z"/>
<path d="M6240 1040 c-25 -4 -35 -8 -22 -8 20 -2 22 -7 22 -62 0 -56 -2 -61
-27 -71 -16 -6 -23 -13 -17 -19 6 -6 27 -1 57 12 48 22 64 41 27 31 -18 -5
-20 0 -20 51 0 49 2 56 20 56 11 0 20 5 20 10 0 6 -3 9 -7 8 -5 0 -28 -4 -53
-8z"/>
<path d="M7380 1035 c-16 -19 -5 -34 12 -17 7 7 20 12 30 12 23 0 26 -58 3
-66 -21 -8 -19 -21 5 -29 23 -7 27 -47 6 -64 -8 -7 -25 -9 -40 -5 -20 5 -26 2
-26 -10 0 -27 57 -20 85 10 29 31 31 46 9 79 -12 18 -13 28 -4 45 18 34 4 60
-34 60 -19 0 -39 -7 -46 -15z"/>
<path d="M8545 965 c0 -47 3 -85 8 -85 4 0 7 34 7 75 0 43 4 75 10 75 6 0 10
5 10 10 0 6 -8 10 -17 10 -16 0 -18 -11 -18 -85z"/>
<path d="M3349 1010 c-4 -103 0 -150 10 -150 5 0 11 41 13 90 2 67 0 90 -9 90
-7 0 -13 -13 -14 -30z"/>
<path d="M4676 1030 c18 -7 21 -18 23 -69 1 -57 0 -61 -24 -67 -22 -6 -36 -24
-18 -24 19 0 93 36 98 48 3 10 0 10 -15 2 -26 -14 -32 1 -28 61 3 40 6 44 33
50 22 5 13 7 -30 7 -42 1 -54 -2 -39 -8z"/>
<path d="M3910 1022 c0 -12 19 -26 26 -19 2 2 -2 10 -11 17 -9 8 -15 8 -15 2z"/>
<path d="M10600 975 c0 -33 -2 -35 -35 -35 -19 0 -35 -5 -35 -10 0 -6 15 -9
33 -8 30 3 32 1 35 -35 2 -20 7 -35 12 -32 5 3 7 19 3 35 -5 29 -4 30 30 30
20 0 39 5 42 10 4 6 -10 10 -36 10 l-41 0 4 35 c2 19 0 35 -4 35 -4 0 -8 -16
-8 -35z"/>
<path d="M10193 965 c-29 -29 -34 -40 -31 -72 3 -33 7 -38 30 -41 15 -2 37 2
48 8 15 8 25 8 34 1 15 -12 46 -5 46 11 0 5 -9 6 -20 3 -11 -4 -20 -2 -20 4 0
15 22 61 30 61 6 0 30 44 30 57 0 3 -12 -2 -26 -12 -25 -16 -28 -16 -36 -1
-14 26 -47 19 -85 -19z m77 0 c22 -26 -20 -93 -62 -97 -19 -3 -23 1 -21 25 2
32 38 87 57 87 8 0 19 -7 26 -15z"/>
<path d="M12750 995 c0 -14 33 -54 41 -49 10 6 -19 54 -32 54 -5 0 -9 -2 -9
-5z"/>
<path d="M13229 993 c-11 -3 -15 -11 -12 -23 3 -11 -2 -38 -11 -60 -19 -47
-19 -50 -6 -50 5 0 17 15 26 33 21 41 54 77 71 77 11 0 10 -7 -2 -36 -19 -45
-19 -74 -1 -74 20 0 40 27 24 32 -10 4 -10 10 0 32 6 15 12 36 12 46 0 27 -46
27 -62 0 -18 -28 -30 -25 -22 5 3 14 5 24 3 24 -2 -1 -11 -3 -20 -6z"/>
<path d="M3880 985 c8 -2 32 -6 53 -10 24 -4 37 -11 37 -21 0 -12 -10 -15 -47
-13 -43 3 -47 1 -54 -24 -7 -26 -6 -27 37 -27 62 0 57 -22 -12 -55 -31 -15
-54 -29 -51 -32 7 -7 93 32 101 46 14 22 26 10 26 -24 0 -19 5 -35 11 -35 6 0
9 18 8 48 l-3 47 43 3 c52 4 67 -7 51 -38 -8 -15 -18 -20 -31 -17 -10 3 -19 2
-19 -3 0 -10 35 -19 47 -11 14 9 33 47 33 65 0 12 -15 16 -62 18 -75 4 -83 21
-13 28 46 5 50 7 52 33 l2 27 -112 -1 c-62 -1 -105 -3 -97 -4z m180 -25 c0
-16 -7 -20 -35 -20 -22 0 -35 5 -35 13 0 20 10 27 42 27 21 0 28 -5 28 -20z
m-90 -45 c0 -11 -11 -15 -40 -15 -38 0 -49 8 -33 23 3 4 21 7 40 7 23 0 33 -5
33 -15z"/>
<path d="M9277 957 c-44 -37 -35 -117 12 -117 21 1 68 37 59 46 -4 3 -14 -1
-23 -10 -20 -19 -27 -20 -43 -4 -20 20 -14 48 17 79 34 34 16 39 -22 6z"/>
<path d="M9340 960 c0 -13 5 -20 13 -17 6 2 12 10 12 17 0 7 -6 15 -12 18 -8
2 -13 -5 -13 -18z"/>
<path d="M12344 965 c-10 -25 4 -45 31 -45 21 0 25 5 25 30 0 25 -4 30 -25 30
-14 0 -28 -7 -31 -15z m44 -17 c-3 -7 -11 -13 -18 -13 -7 0 -15 6 -17 13 -3 7
4 12 17 12 13 0 20 -5 18 -12z"/>
<path d="M5090 965 c0 -9 40 -45 50 -45 16 0 12 22 -7 36 -18 13 -43 19 -43 9z"/>
<path d="M9750 962 c0 -12 34 -42 48 -42 17 0 15 15 -6 33 -20 18 -42 22 -42
9z"/>
<path d="M13670 963 c1 -5 10 -19 21 -32 20 -25 34 -25 24 0 -6 16 -45 43 -45
32z"/>
<path d="M3682 920 c12 -16 26 -30 30 -30 10 0 2 16 -20 43 -25 29 -34 19 -10
-13z"/>
<path d="M12760 899 c-42 -28 -51 -40 -32 -47 4 -1 28 16 52 38 53 47 43 52
-20 9z"/>
<path d="M2637 893 c-39 -2 -65 -8 -62 -13 4 -6 19 -10 36 -10 24 0 29 -4 29
-25 0 -26 -15 -30 -77 -26 -11 1 -24 -3 -28 -8 -4 -7 31 -11 109 -10 66 0 116
4 116 10 0 5 -20 8 -43 8 -53 -2 -67 5 -60 31 4 15 14 20 39 20 36 0 53 14 28
24 -9 3 -16 5 -17 4 -1 -1 -33 -3 -70 -5z"/>
<path d="M8900 895 c0 -15 18 -40 24 -34 3 3 -1 14 -9 25 -8 10 -14 15 -15 9z"/>
<path d="M8808 861 c3 -24 7 -27 17 -18 9 9 9 16 1 29 -16 26 -23 22 -18 -11z"/>
<path d="M8853 868 c2 -12 9 -24 15 -26 13 -4 15 8 6 32 -9 24 -24 19 -21 -6z"/>
<path d="M1879 854 c-7 -9 -25 -21 -39 -26 -14 -6 -20 -12 -13 -15 14 -5 65
20 82 41 11 13 11 16 -2 16 -8 0 -21 -7 -28 -16z"/>
<path d="M1991 866 c9 -9 80 -56 84 -56 16 0 0 21 -29 39 -29 18 -68 30 -55
17z"/>
<path d="M8761 852 c-7 -13 -11 -26 -8 -28 8 -8 29 25 25 38 -3 8 -9 4 -17
-10z"/>
<path d="M6405 840 c3 -5 12 -10 19 -10 8 0 19 -7 26 -15 14 -17 30 -20 30 -4
0 5 -16 17 -35 25 -41 17 -48 17 -40 4z"/>
<path d="M7905 835 c35 -29 58 -39 53 -24 -2 7 -20 19 -39 26 -32 13 -33 12
-14 -2z"/>
<path d="M4889 819 c18 -11 36 -17 40 -14 9 10 -30 35 -53 35 -17 0 -14 -4 13
-21z"/>
<path d="M8278 600 c-22 -13 -42 -74 -34 -105 8 -32 42 -42 67 -19 30 27 25
60 -12 73 -28 9 -30 13 -18 27 7 9 22 20 34 24 20 9 20 9 0 9 -11 0 -28 -4
-37 -9z m26 -82 c3 -13 1 -27 -4 -32 -15 -15 -40 2 -40 29 0 33 35 35 44 3z"/>
<path d="M13565 559 c-11 -4 -14 -8 -7 -8 7 -1 15 -9 19 -18 3 -10 15 -28 26
-40 11 -13 18 -26 14 -29 -8 -8 -167 -13 -167 -5 0 4 13 25 30 48 27 36 30 53
9 53 -4 0 -13 -15 -19 -34 -6 -19 -23 -46 -37 -60 -14 -15 -23 -29 -19 -33 3
-4 11 -2 16 3 6 6 25 8 44 6 33 -4 34 -5 25 -34 -12 -44 -36 -77 -65 -90 -26
-12 -32 -28 -10 -28 21 0 82 73 96 114 11 33 14 36 52 36 l41 0 -7 -52 c-9
-66 -13 -71 -47 -64 -16 3 -29 1 -29 -4 0 -10 68 -26 75 -18 3 3 7 27 11 54
10 92 12 97 39 90 14 -4 25 -2 25 4 0 5 -4 10 -9 10 -20 0 -81 68 -75 83 7 20
-6 27 -31 16z"/>
<path d="M4910 554 c0 -4 7 -16 16 -26 19 -20 13 -25 -46 -31 -23 -2 -14 -4
23 -5 50 -2 58 -5 55 -19 -3 -12 -12 -17 -29 -16 -26 1 -26 0 -33 -89 -6 -91
-2 -115 13 -89 6 10 30 12 90 10 l81 -4 0 72 c0 39 3 79 6 88 6 15 0 16 -56
10 -56 -6 -62 -4 -56 10 3 9 6 19 6 21 0 2 32 4 70 4 43 0 70 4 70 11 0 7 -16
8 -45 3 -48 -7 -54 -1 -28 28 14 16 14 18 1 18 -9 0 -23 -11 -32 -25 -22 -33
-52 -32 -68 2 -12 25 -38 44 -38 27z m160 -129 c0 -12 -16 -15 -80 -15 -64 0
-80 3 -80 15 0 12 16 15 80 15 64 0 80 -3 80 -15z m-10 -46 c0 -16 -9 -18 -75
-17 -51 0 -75 4 -75 13 0 20 9 23 81 23 60 -1 69 -3 69 -19z m-2 -51 c3 -16
-6 -18 -72 -18 -70 0 -76 2 -76 20 0 19 5 21 72 18 60 -2 73 -6 76 -20z"/>
<path d="M6080 554 c0 -6 7 -17 15 -24 27 -22 16 -30 -42 -32 -40 -1 -28 -4
41 -7 l99 -6 -27 -32 c-14 -17 -62 -57 -106 -89 -49 -36 -76 -62 -71 -67 6 -6
16 -3 26 7 20 20 20 20 48 1 15 -9 50 -15 98 -16 96 -1 99 -1 99 11 0 6 -36
10 -88 10 -57 0 -95 5 -106 13 -16 12 -15 15 21 39 53 36 118 100 133 133 3 6
-12 8 -37 7 -37 -3 -46 1 -72 30 -17 18 -31 28 -31 22z"/>
<path d="M6788 518 l-3 -42 -57 3 c-36 1 -58 -2 -58 -8 0 -7 23 -11 55 -11 37
0 55 -4 55 -12 -1 -32 -41 -97 -80 -131 -24 -20 -37 -37 -29 -37 23 0 96 80
115 125 l16 40 23 -50 c28 -63 82 -116 109 -106 17 6 15 10 -16 28 -37 22 -76
69 -96 116 l-12 27 65 0 c40 0 65 4 65 11 0 7 -23 10 -67 7 -74 -3 -78 1 -59
60 5 16 3 22 -8 22 -10 0 -16 -13 -18 -42z"/>
<path d="M7042 533 c2 -21 -1 -28 -14 -28 -9 0 -20 -4 -24 -8 -4 -4 3 -7 16
-7 22 0 23 -2 18 -64 -3 -35 -13 -79 -22 -97 -16 -33 -13 -56 5 -29 12 21 29
80 29 108 0 15 6 22 20 22 17 0 20 -7 20 -39 0 -54 -16 -95 -35 -87 -8 3 -15
1 -15 -5 0 -17 31 -22 46 -7 9 8 18 39 21 69 4 39 12 58 28 71 12 9 28 31 35
48 16 38 25 38 45 1 20 -39 44 -63 57 -55 5 3 -4 20 -22 37 -17 17 -34 43 -37
59 -8 40 -25 34 -47 -15 -27 -61 -31 -63 -75 -59 -32 3 -41 8 -41 23 0 15 7
19 40 19 23 0 40 5 40 11 0 7 -11 9 -26 6 -20 -3 -27 1 -34 18 -14 36 -32 41
-28 8z"/>
<path d="M13730 551 c0 -4 7 -15 17 -22 56 -47 56 -167 1 -226 -12 -13 -16
-23 -9 -23 31 0 81 89 81 144 0 31 -39 103 -65 120 -14 9 -25 12 -25 7z"/>
<path d="M2280 425 l0 -125 -32 0 -33 -1 30 -13 c50 -22 55 -9 55 135 0 79 -4
129 -10 129 -6 0 -10 -48 -10 -125z"/>
<path d="M2650 531 c0 -16 -8 -21 -42 -24 l-43 -4 43 -1 c30 -1 42 -6 39 -14
-2 -7 -16 -12 -31 -11 l-26 2 0 -96 c0 -80 -2 -94 -15 -90 -8 4 -17 2 -20 -3
-4 -6 37 -10 104 -10 67 0 111 4 111 10 0 6 -11 10 -25 10 -25 0 -25 1 -25 90
l0 90 -30 -6 c-23 -5 -30 -3 -30 10 0 12 10 16 46 16 25 0 43 4 39 9 -3 5 -20
7 -39 4 -19 -3 -36 -1 -40 6 -4 6 -2 11 3 11 6 0 11 5 11 10 0 6 -7 10 -15 10
-8 0 -15 -9 -15 -19z m58 -88 c2 -9 -11 -13 -47 -13 -39 0 -51 4 -51 16 0 12
10 14 47 12 26 -2 48 -9 51 -15z m0 -40 c-2 -14 -15 -19 -51 -21 -42 -3 -47
-1 -47 17 0 18 6 21 51 21 43 0 50 -3 47 -17z m2 -48 c0 -11 -12 -15 -50 -15
-38 0 -50 4 -50 15 0 11 12 15 50 15 38 0 50 -4 50 -15z m-10 -50 c0 -11 -12
-15 -45 -15 -33 0 -45 4 -45 15 0 11 12 15 45 15 33 0 45 -4 45 -15z"/>
<path d="M2987 531 c4 -17 -1 -20 -43 -24 l-49 -3 48 -2 c34 -2 47 -6 47 -17
0 -11 -11 -15 -40 -15 l-40 0 0 -44 0 -45 35 6 c30 5 35 3 35 -14 0 -29 -11
-35 -32 -16 -10 9 -18 11 -18 6 0 -6 7 -16 15 -23 19 -15 5 -37 -35 -52 -16
-7 -20 -12 -12 -15 8 -3 27 4 43 16 l29 21 57 -19 c32 -11 62 -17 67 -13 6 3
-3 10 -19 15 -17 5 -44 15 -62 23 -31 12 -32 14 -22 43 10 28 15 31 56 31 37
0 44 3 39 16 -3 9 -6 26 -6 39 0 20 -6 24 -37 27 -54 4 -47 22 10 26 26 2 47
7 47 12 0 6 -20 7 -45 3 -41 -5 -45 -4 -45 16 0 11 -6 21 -14 21 -9 0 -12 -7
-9 -19z m1 -103 c3 -25 0 -28 -27 -28 -26 0 -31 4 -31 23 0 30 5 35 33 33 16
-1 23 -8 25 -28z m77 2 c0 -20 -6 -26 -28 -28 -18 -2 -29 2 -33 12 -11 27 3
45 33 43 23 -2 28 -7 28 -27z"/>
<path d="M3210 540 c0 -6 -12 -22 -26 -37 -14 -14 -22 -28 -19 -32 8 -7 65 54
65 69 0 6 -4 10 -10 10 -5 0 -10 -5 -10 -10z"/>
<path d="M3370 539 c-11 -8 -12 -12 -2 -16 25 -10 11 -23 -26 -23 -52 0 -61
12 -20 26 l33 12 -40 1 -40 1 3 -49 4 -49 36 5 c50 8 53 13 8 13 -53 0 -41 24
14 28 41 3 42 2 36 -22 -5 -19 -3 -26 9 -26 12 0 15 12 15 55 0 56 -4 62 -30
44z"/>
<path d="M3520 543 c0 -6 5 -15 10 -18 18 -11 11 -27 -10 -22 -11 3 -23 1 -26
-4 -3 -5 23 -9 58 -9 42 0 58 3 48 9 -8 6 -18 7 -22 5 -4 -3 -19 7 -33 23 -13
15 -25 23 -25 16z"/>
<path d="M3650 540 c0 -5 5 -10 10 -10 6 0 10 -7 10 -15 0 -9 -10 -15 -27 -16
-26 -1 -27 -1 -5 -8 l23 -6 -25 -38 c-30 -44 -28 -56 11 -50 l28 4 -30 -25
c-31 -27 -57 -34 -52 -15 1 7 -15 12 -41 13 l-42 1 0 -47 0 -46 40 5 c27 4 40
2 40 -6 0 -15 35 -5 72 20 36 26 53 24 77 -8 14 -19 20 -23 21 -12 0 8 -11 26
-25 39 l-25 23 26 34 c19 26 22 33 10 33 -9 0 -16 -4 -16 -10 0 -14 -99 -110
-114 -110 -13 0 -26 21 -26 41 0 5 10 9 21 9 26 0 135 111 122 124 -11 11 -22
6 -28 -13 -6 -21 -65 -48 -65 -30 0 5 10 23 22 39 18 25 29 30 65 30 29 0 42
4 38 11 -4 5 -19 7 -34 4 -23 -5 -31 -1 -45 20 -17 25 -36 33 -36 15z m-80
-210 c0 -23 -4 -30 -20 -30 -11 0 -23 7 -26 15 -9 23 3 45 26 45 16 0 20 -7
20 -30z"/>
<path d="M3910 539 c0 -7 -10 -9 -25 -7 -19 4 -25 1 -25 -13 0 -9 -6 -20 -12
-23 -10 -5 -10 -7 0 -12 6 -3 12 -12 12 -20 0 -8 6 -11 17 -7 11 4 12 8 5 11
-19 6 -14 42 6 42 13 0 18 -8 19 -35 0 -19 -4 -35 -9 -35 -6 0 -5 -7 2 -15 9
-11 10 -19 2 -27 -15 -15 -34 0 -27 23 4 11 2 19 -4 19 -6 0 -11 -13 -11 -30
0 -24 4 -30 21 -30 12 0 17 -4 13 -11 -3 -6 -17 -9 -30 -6 -13 2 -24 0 -24 -4
0 -5 7 -9 15 -9 8 0 15 -5 15 -11 0 -7 8 -17 17 -24 16 -12 14 -15 -17 -29
-33 -15 -33 -16 -5 -9 39 9 96 9 116 -1 11 -5 26 1 44 19 l28 25 22 -20 c23
-21 45 -26 45 -10 0 6 -4 10 -10 10 -5 0 -18 9 -29 21 -17 18 -18 23 -5 47 8
15 17 42 20 60 3 17 10 32 15 32 5 0 9 5 9 10 0 6 -18 10 -41 10 -33 0 -40 3
-35 15 3 8 9 22 12 30 4 9 1 15 -8 15 -8 0 -18 -18 -24 -42 -6 -24 -14 -52
-18 -63 -6 -17 -5 -17 10 3 18 24 64 30 64 8 0 -7 -5 -27 -11 -44 -12 -34 -29
-34 -29 -1 0 10 -5 19 -11 19 -7 0 -8 -7 -4 -17 19 -50 17 -73 -6 -93 -29 -24
-36 -24 -56 -5 -21 21 -9 45 22 45 14 0 25 4 25 9 0 13 -53 21 -65 10 -5 -5
-12 -9 -16 -9 -7 0 -5 57 2 64 8 8 -3 126 -12 126 -5 0 -9 -5 -9 -11z m30
-198 c0 -6 -5 -13 -10 -16 -15 -9 -43 3 -35 15 8 13 45 13 45 1z"/>
<path d="M4420 425 l0 -125 -27 0 c-24 -1 -26 -2 -10 -11 9 -6 26 -7 37 -4 18
6 20 16 20 120 0 62 3 120 6 129 4 11 1 16 -10 16 -14 0 -16 -17 -16 -125z"/>
<path d="M4660 531 c0 -10 -7 -35 -16 -56 -19 -46 -11 -58 11 -16 14 28 20 31
61 31 l45 0 -7 -87 c-7 -99 -16 -118 -46 -102 -23 12 -39 2 -18 -11 24 -15 59
-11 68 8 5 9 13 61 17 114 l7 97 -51 -3 c-49 -4 -73 5 -51 19 15 9 12 25 -5
25 -8 0 -15 -8 -15 -19z"/>
<path d="M5830 540 c-41 -4 -60 -7 -42 -8 26 -2 33 -6 30 -19 -3 -13 -12 -17
-31 -16 l-27 2 0 -86 c0 -72 2 -84 15 -79 24 9 18 -11 -10 -32 -14 -11 -25
-23 -25 -27 0 -8 71 43 81 58 4 6 25 7 48 4 l41 -5 0 79 0 79 -40 0 c-38 0
-40 2 -30 20 8 15 21 20 51 20 24 0 38 4 34 10 -3 6 -9 9 -13 8 -4 -1 -41 -4
-82 -8z m60 -75 c0 -12 -13 -15 -55 -15 -42 0 -55 3 -55 15 0 12 13 15 55 15
42 0 55 -3 55 -15z m0 -50 c0 -12 -13 -15 -55 -15 -42 0 -55 3 -55 15 0 12 13
15 55 15 42 0 55 -3 55 -15z m0 -45 c0 -18 -7 -20 -55 -20 -48 0 -55 2 -55 20
0 18 7 20 55 20 48 0 55 -2 55 -20z"/>
<path d="M6405 540 c-11 -5 -32 -9 -47 -9 -16 -1 -28 -6 -28 -12 0 -7 11 -9
30 -5 27 5 30 3 30 -19 0 -22 -5 -25 -37 -26 -28 -1 -31 -3 -13 -6 42 -8 43
-19 11 -77 -17 -31 -28 -56 -24 -56 10 0 43 43 43 56 0 7 5 16 11 20 7 4 10
-14 7 -60 -2 -48 0 -66 10 -66 8 0 12 21 12 73 l1 72 20 -24 c11 -13 23 -21
27 -17 4 4 -5 18 -20 31 -37 32 -36 47 5 43 l32 -3 0 -77 c0 -65 2 -77 15 -73
9 3 34 6 56 7 l40 1 -1 98 0 97 -52 4 c-45 3 -53 0 -55 -16 -2 -13 -12 -19
-35 -21 -29 -2 -33 0 -33 22 0 16 7 27 20 30 22 6 28 23 8 22 -7 0 -22 -4 -33
-9z m165 -125 l0 -85 -40 0 -40 0 0 85 0 85 40 0 40 0 0 -85z"/>
<path d="M13122 528 c-61 -66 -52 -204 17 -246 27 -16 27 -1 1 23 -47 43 -48
152 -3 212 29 37 18 45 -15 11z"/>
<path d="M1860 500 c0 -22 5 -40 10 -40 6 0 10 16 10 35 l0 35 69 0 c73 0 84
-7 76 -50 -2 -11 0 -20 6 -20 5 0 9 18 9 40 l0 40 -90 0 -90 0 0 -40z"/>
<path d="M2533 513 c-7 -15 -13 -32 -13 -39 0 -6 -9 -23 -21 -38 -20 -26 -14
-37 9 -14 9 9 12 -6 12 -70 0 -48 4 -82 10 -82 6 0 10 43 10 108 0 73 5 116
14 135 11 19 12 27 3 27 -7 0 -18 -12 -24 -27z"/>
<path d="M2860 490 c-7 -28 -16 -53 -21 -56 -15 -9 -10 -24 5 -18 11 4 14 -8
14 -63 1 -93 1 -97 8 -91 3 3 6 56 6 117 0 71 5 119 14 136 11 21 11 25 -1 25
-7 0 -18 -21 -25 -50z"/>
<path d="M4242 532 c-43 -2 -70 -7 -67 -12 4 -6 17 -10 31 -10 13 0 24 -5 24
-10 0 -16 -38 -88 -50 -95 -5 -3 -10 -11 -10 -17 0 -7 5 -6 15 2 19 16 61 5
70 -17 4 -13 -5 -29 -34 -56 -23 -21 -41 -40 -41 -43 0 -7 41 16 61 35 22 21
64 98 73 134 6 26 5 27 -33 27 -34 0 -38 3 -34 19 4 15 15 21 47 23 22 2 39 6
37 11 -6 12 -13 13 -89 9z m53 -82 c3 -5 -1 -23 -10 -39 l-15 -30 -25 23 c-32
29 -24 56 15 56 16 0 32 -4 35 -10z"/>
<path d="M4560 524 c0 -9 -9 -18 -20 -21 -18 -5 -20 -14 -20 -105 0 -74 3 -97
12 -92 17 11 68 12 68 2 0 -4 5 -8 10 -8 6 0 10 40 10 100 l0 100 -31 -7 -31
-6 17 27 c16 23 16 26 1 26 -9 0 -16 -7 -16 -16z m45 -66 c-1 -13 -3 -27 -4
-31 0 -5 -16 -7 -33 -5 -28 2 -34 8 -36 31 -3 25 -1 27 36 27 35 0 39 -3 37
-22z m-2 -85 c0 -13 -1 -27 -2 -33 0 -5 -17 -10 -36 -10 -32 0 -35 3 -35 28 0
37 8 44 44 40 25 -2 30 -7 29 -25z"/>
<path d="M8135 532 c-37 -8 -55 -41 -55 -102 0 -95 54 -141 99 -84 16 21 20
38 17 90 -3 71 -24 105 -61 96z m35 -48 c12 -31 5 -111 -11 -131 -15 -18 -36
-16 -43 3 -3 9 -6 40 -6 69 0 29 3 60 6 69 10 25 43 19 54 -10z"/>
<path d="M13249 528 c-1 -7 -2 -38 -3 -68 -1 -49 -3 -55 -23 -58 -29 -4 -29
13 -3 53 11 17 20 35 20 40 -1 14 -50 -48 -50 -62 0 -7 -4 -13 -10 -13 -5 0
-10 -7 -10 -15 0 -11 11 -15 40 -15 36 0 40 -2 40 -25 0 -16 6 -25 15 -25 9 0
15 9 15 25 0 14 6 25 13 25 8 0 7 3 -3 10 -11 7 -15 27 -15 75 0 46 -4 65 -12
65 -7 0 -13 -6 -14 -12z"/>
<path d="M3940 520 c0 -5 8 -10 18 -10 13 0 14 -2 3 -9 -9 -6 -10 -11 -2 -15
6 -4 9 -12 6 -17 -10 -15 4 -10 23 9 16 16 16 18 0 35 -20 19 -48 23 -48 7z"/>
<path d="M5680 520 c-25 -4 -35 -8 -22 -8 20 -2 22 -7 22 -66 0 -56 -3 -66
-20 -71 -19 -6 -28 -25 -13 -25 17 0 93 36 93 44 0 4 -7 6 -15 3 -10 -4 -16 3
-20 27 -10 53 -3 81 23 84 12 2 22 8 22 13 0 10 -2 10 -70 -1z"/>
<path d="M7552 518 c-7 -7 -12 -19 -12 -27 0 -12 2 -12 18 1 9 8 23 13 30 12
6 -1 16 -2 21 -3 18 -2 22 -40 7 -68 -8 -15 -31 -45 -50 -66 -20 -21 -36 -39
-36 -40 0 -1 27 -3 60 -5 49 -2 61 1 69 16 9 18 6 19 -42 15 l-52 -5 33 32
c56 54 70 101 42 135 -15 18 -71 20 -88 3z"/>
<path d="M7962 521 c-11 -7 -11 -9 2 -14 24 -10 23 -155 -1 -173 -16 -12 -13
-13 25 -14 23 0 42 5 42 10 0 6 -7 10 -15 10 -12 0 -15 17 -15 95 0 96 -5 107
-38 86z"/>
<path d="M4360 430 c0 -49 4 -90 9 -90 5 0 11 41 13 90 2 67 0 90 -9 90 -10 0
-13 -25 -13 -90z"/>
<path d="M1963 503 c9 -2 23 -2 30 0 6 3 -1 5 -18 5 -16 0 -22 -2 -12 -5z"/>
<path d="M3215 470 c-4 -11 -18 -34 -33 -51 -24 -29 -24 -31 -5 -25 20 6 21 4
16 -59 -4 -45 -2 -65 6 -65 7 0 11 26 11 78 0 53 5 84 15 98 8 10 15 25 15 32
0 19 -18 14 -25 -8z"/>
<path d="M1890 470 c0 -6 27 -10 60 -10 33 0 60 4 60 10 0 6 -27 10 -60 10
-33 0 -60 -4 -60 -10z"/>
<path d="M2196 432 c-9 -27 -26 -59 -37 -71 -22 -24 -19 -42 4 -23 15 13 67
115 67 131 0 28 -20 6 -34 -37z"/>
<path d="M2340 464 c0 -5 14 -29 30 -53 17 -24 30 -50 30 -58 0 -7 5 -13 10
-13 17 0 11 29 -14 68 -24 39 -56 71 -56 56z"/>
<path d="M7837 443 l-26 -27 -26 24 c-30 28 -43 22 -15 -8 25 -27 25 -30 -2
-59 -12 -13 -18 -26 -14 -30 5 -5 15 2 23 15 19 28 43 28 66 1 10 -11 21 -18
25 -15 3 4 -6 19 -21 33 l-27 27 27 28 c34 36 25 46 -10 11z"/>
<path d="M3528 453 c12 -2 32 -2 45 0 12 2 2 4 -23 4 -25 0 -35 -2 -22 -4z"/>
<path d="M5352 428 c0 -18 -5 -46 -11 -61 -13 -34 -14 -47 -2 -47 5 0 14 13
20 28 14 33 57 82 73 82 6 0 8 -10 5 -22 -20 -90 -20 -88 -3 -88 9 0 16 3 17
8 0 4 2 18 3 32 2 14 6 42 10 62 8 35 7 36 -18 34 -14 -2 -35 -14 -46 -27
l-21 -24 5 28 c5 22 3 27 -13 27 -15 0 -19 -7 -19 -32z"/>
<path d="M8597 446 c-22 -22 -10 -56 19 -56 28 0 42 25 27 48 -14 23 -29 25
-46 8z m33 -32 c0 -17 -22 -14 -28 4 -2 7 3 12 12 12 9 0 16 -7 16 -16z"/>
<path d="M1935 440 c-85 -3 -122 -8 -107 -13 18 -7 22 -16 22 -54 0 -32 -5
-50 -17 -59 -25 -17 -11 -27 21 -14 32 12 69 13 62 2 -2 -4 -1 -14 4 -22 7
-12 15 -12 49 0 31 10 50 11 76 3 28 -9 35 -8 35 2 0 7 -11 16 -25 19 -30 8
-31 15 -5 62 12 20 20 38 18 39 -2 2 -26 1 -54 -2 -47 -5 -50 -7 -46 -29 2
-13 8 -27 13 -30 16 -10 9 -39 -12 -52 -32 -20 -40 -3 -37 69 l3 64 60 1 c90
3 95 3 95 14 0 6 -6 9 -12 8 -7 -1 -71 -5 -143 -8z m-17 -27 c2 -9 -7 -13 -27
-13 -30 0 -39 9 -24 24 11 10 46 3 51 -11z m-3 -32 c7 -12 -31 -25 -45 -16 -5
3 -10 10 -10 16 0 12 47 12 55 0z m115 -10 c0 -28 -21 -37 -37 -16 -19 27 -16
35 12 35 18 0 25 -5 25 -19z m-115 -36 c0 -5 -12 -11 -27 -13 -21 -2 -28 1
-28 13 0 12 7 15 28 13 15 -2 27 -7 27 -13z"/>
<path d="M3961 424 c10 -13 10 -17 -2 -25 -11 -7 -9 -9 7 -9 17 0 20 5 16 25
-2 14 -11 25 -19 25 -13 0 -13 -3 -2 -16z"/>
<path d="M3322 423 c-105 -4 -119 -23 -16 -23 88 0 81 -18 -8 -23 l-73 -3 73
-2 72 -2 0 -40 c0 -39 0 -39 -32 -34 l-33 6 29 -16 c41 -23 45 -21 48 31 3 44
5 48 33 54 l30 7 -32 1 c-38 1 -45 21 -8 21 16 0 25 6 25 15 0 8 -3 14 -7 13
-5 -1 -50 -4 -101 -5z"/>
<path d="M4688 400 c18 -32 32 -39 32 -17 0 14 -31 47 -43 47 -3 0 2 -13 11
-30z"/>
<path d="M7192 403 c15 -15 31 -24 34 -20 10 10 -26 47 -45 47 -11 0 -8 -7 11
-27z"/>
<path d="M3510 410 c0 -5 21 -10 46 -10 27 0 43 4 39 10 -3 6 -24 10 -46 10
-21 0 -39 -4 -39 -10z"/>
<path d="M3287 331 c3 -12 10 -21 15 -21 13 0 6 32 -9 37 -7 3 -9 -3 -6 -16z"/>
<path d="M7190 316 c19 -19 37 -29 39 -23 4 12 -44 57 -62 57 -6 0 4 -15 23
-34z"/>
<path d="M5855 320 c11 -17 68 -44 63 -29 -2 7 -19 19 -37 26 -19 8 -30 9 -26
3z"/>
</g>
</svg>
