<?xml version="1.0" standalone="no"?>
<!DOCTYPE svg PUBLIC "-//W3C//DTD SVG 20010904//EN"
 "http://www.w3.org/TR/2001/REC-SVG-20010904/DTD/svg10.dtd">
<svg version="1.0" xmlns="http://www.w3.org/2000/svg"
 width="696.000000pt" height="601.000000pt" viewBox="0 0 696.000000 601.000000"
 preserveAspectRatio="xMidYMid meet">
<metadata>
Created by potrace 1.16, written by Peter Selinger 2001-2019
</metadata>
<g transform="translate(0.000000,601.000000) scale(0.100000,-0.100000)"
fill="#000000" stroke="none">
<path d="M4421 5908 c-1 -43 -5 -68 -13 -71 -8 -3 -6 -6 5 -6 13 -1 17 7 17
37 l1 37 20 -27 c11 -16 26 -28 32 -28 6 0 -2 13 -17 29 -16 16 -32 44 -36 63
-7 27 -8 22 -9 -34z"/>
<path d="M5677 5942 c-13 -28 -13 -28 9 -18 13 6 18 13 12 17 -6 4 -7 12 -4
18 4 6 5 11 2 11 -2 0 -11 -13 -19 -28z"/>
<path d="M482 5893 l2 -68 3 62 c4 61 4 62 36 66 31 4 31 4 -5 5 l-38 2 2 -67z"/>
<path d="M577 5952 c7 -4 14 -37 16 -72 l3 -65 2 73 c2 63 0 72 -15 72 -12 0
-14 -3 -6 -8z"/>
<path d="M923 5890 c1 -56 2 -62 4 -23 4 50 5 52 36 56 l32 4 -32 1 c-21 1
-33 8 -36 20 -3 9 -4 -17 -4 -58z"/>
<path d="M1676 5941 c-11 -12 -14 -21 -7 -26 6 -3 11 1 11 9 0 9 7 16 15 16 8
0 15 5 15 10 0 16 -15 12 -34 -9z"/>
<path d="M1915 5940 c-16 -17 -16 -20 -3 -15 9 4 19 13 22 21 7 19 2 18 -19
-6z"/>
<path d="M2073 5953 c-21 -4 -23 -10 -23 -64 0 -56 10 -74 26 -47 4 7 3 8 -4
4 -9 -5 -12 8 -12 43 0 28 5 51 10 51 6 0 10 -11 10 -25 0 -27 7 -30 30 -14
13 9 12 10 -2 5 -14 -4 -18 0 -18 18 0 14 6 27 13 29 14 6 1 6 -30 0z"/>
<path d="M2219 5935 c-3 -17 -2 -41 2 -55 6 -23 7 -23 8 -3 1 18 8 23 39 26
l37 4 -37 1 c-32 2 -37 5 -40 30 l-3 27 -6 -30z"/>
<path d="M2888 5930 c-3 -19 -1 -29 6 -27 14 4 21 57 8 57 -5 0 -12 -14 -14
-30z"/>
<path d="M2931 5933 c-1 -27 3 -33 20 -33 13 0 18 -4 13 -12 -4 -6 -3 -8 4 -4
5 3 13 0 16 -6 4 -9 5 -8 5 2 -2 30 1 39 14 36 6 -1 9 -1 4 1 -4 3 -5 9 -2 14
4 5 -1 6 -10 3 -11 -5 -14 -2 -9 10 3 9 1 16 -6 16 -6 0 -9 -4 -5 -9 3 -5 1
-13 -5 -16 -8 -5 -8 -11 0 -20 9 -11 7 -12 -9 -8 -12 3 -21 16 -24 32 -4 23
-4 22 -6 -6z"/>
<path d="M3071 5948 c0 -9 -7 -19 -13 -21 -10 -4 -10 -6 0 -6 6 -1 12 -7 12
-15 0 -8 -6 -17 -12 -19 -10 -4 -10 -6 0 -6 6 -1 12 -10 12 -20 0 -11 -6 -22
-12 -24 -8 -3 -6 -6 4 -6 13 -1 18 9 20 46 2 36 7 49 21 51 12 3 17 -3 17 -22
0 -15 -7 -26 -17 -29 -17 -4 -17 -5 0 -6 9 0 17 -5 17 -10 0 -5 -8 -12 -17
-15 -14 -4 -14 -4 2 -3 16 2 21 11 23 42 2 22 7 42 12 45 4 3 2 11 -6 18 -8 7
-14 9 -14 4 0 -18 -39 -21 -43 -3 -4 15 -5 15 -6 -1z"/>
<path d="M3162 5893 c1 -42 3 -54 5 -30 2 20 8 35 14 32 5 -4 9 -1 9 4 0 6 -5
11 -11 11 -7 0 -9 10 -7 25 3 14 1 25 -3 25 -5 0 -8 -30 -7 -67z"/>
<path d="M3240 5949 c0 -5 3 -8 8 -8 35 6 52 -3 52 -26 0 -29 -26 -35 -33 -7
-4 15 -5 15 -6 -1 -1 -11 7 -21 19 -24 11 -3 17 -9 14 -14 -3 -5 -10 -6 -16
-3 -7 5 -8 2 -4 -5 5 -7 0 -19 -10 -27 -18 -14 -17 -14 4 -4 12 6 39 8 60 6
l37 -6 -33 11 c-36 11 -38 32 -4 37 15 2 22 10 21 25 -1 17 -2 18 -6 5 -7 -28
-33 -22 -33 7 0 20 5 25 27 25 46 0 19 9 -40 13 -31 2 -57 0 -57 -4z"/>
<path d="M3409 5943 c-13 -16 -12 -17 4 -4 16 13 21 21 13 21 -2 0 -10 -8 -17
-17z"/>
<path d="M3450 5935 c0 -19 5 -25 23 -24 21 0 21 1 2 9 -19 8 -19 9 2 9 12 1
24 -5 26 -11 3 -7 6 -1 6 15 1 24 -3 27 -29 27 -25 0 -30 -4 -30 -25z m43 8
c-7 -2 -19 -2 -25 0 -7 3 -2 5 12 5 14 0 19 -2 13 -5z"/>
<path d="M4086 5947 c3 -10 9 -15 12 -12 3 3 0 11 -7 18 -10 9 -11 8 -5 -6z"/>
<path d="M4203 5945 c-8 -9 -9 -16 -3 -20 6 -3 13 1 16 10 9 21 2 26 -13 10z"/>
<path d="M4267 5939 c-4 -16 -3 -18 8 -9 11 9 16 7 25 -9 6 -12 15 -21 21 -21
11 0 -31 58 -42 59 -4 1 -9 -8 -12 -20z"/>
<path d="M4543 5953 c9 -2 23 -2 30 0 6 3 -1 5 -18 5 -16 0 -22 -2 -12 -5z"/>
<path d="M4593 5895 c0 -38 2 -53 4 -32 2 20 2 52 0 70 -2 17 -4 1 -4 -38z"/>
<path d="M4628 5953 c6 -2 18 -2 25 0 6 3 1 5 -13 5 -14 0 -19 -2 -12 -5z"/>
<path d="M4720 5947 c0 -9 -5 -17 -12 -17 -9 0 -9 -3 0 -12 17 -17 15 -45 -5
-57 -10 -6 -13 -11 -6 -11 30 0 38 11 36 56 -2 43 -13 78 -13 41z"/>
<path d="M4781 5943 c0 -13 -7 -23 -15 -23 -8 0 -18 -5 -22 -11 -4 -7 0 -9 14
-5 17 6 21 2 25 -21 4 -27 4 -26 6 5 1 25 5 32 21 32 11 0 20 4 20 9 0 5 -9 7
-19 4 -13 -3 -21 1 -24 14 -4 15 -5 14 -6 -4z"/>
<path d="M4872 5954 c8 -7 128 -7 136 0 3 4 -28 6 -68 6 -40 0 -71 -3 -68 -6z"/>
<path d="M5103 5900 c0 -36 2 -48 4 -28 4 31 8 37 31 41 l27 4 -27 2 c-19 1
-28 7 -31 24 -2 12 -4 -7 -4 -43z"/>
<path d="M5547 5953 c44 -3 52 -7 56 -26 4 -18 5 -17 6 6 1 27 0 27 -56 25
l-58 -2 52 -3z"/>
<path d="M5994 5951 c3 -5 -1 -29 -8 -55 -8 -25 -10 -46 -6 -46 4 0 11 11 14
24 3 14 16 26 30 30 28 7 42 36 24 48 -17 11 -61 10 -54 -1z m44 -18 c-5 -25
-28 -28 -28 -4 0 12 6 21 16 21 9 0 14 -7 12 -17z"/>
<path d="M6089 5939 c-16 -16 -20 -30 -17 -62 3 -45 12 -57 43 -56 18 0 18 1
-4 13 l-24 13 27 7 c57 14 76 106 21 106 -14 0 -34 -9 -46 -21z m61 -17 c0
-33 -32 -67 -55 -59 -33 13 -2 87 36 87 14 0 19 -7 19 -28z"/>
<path d="M6345 5950 c-3 -6 1 -7 9 -4 18 7 23 -21 5 -31 -6 -5 -4 -12 8 -21
15 -12 16 -15 3 -23 -8 -5 -18 -7 -22 -5 -4 3 -8 0 -8 -5 0 -15 12 -14 33 2
12 9 15 22 10 55 -5 40 -24 55 -38 32z"/>
<path d="M6416 5945 c-20 -52 8 -111 39 -85 11 9 15 27 13 54 -2 33 -7 42 -24
44 -13 2 -24 -4 -28 -13z m39 -14 c7 -22 -3 -71 -15 -71 -10 0 -20 26 -20 54
0 38 24 50 35 17z"/>
<path d="M63 5895 c0 -33 2 -45 4 -27 2 18 2 45 0 60 -2 15 -4 0 -4 -33z"/>
<path d="M116 5933 c-4 -9 2 -25 14 -38 21 -23 26 -45 10 -45 -5 0 -10 9 -10
21 0 11 -4 17 -10 14 -16 -10 -12 -32 7 -39 9 -4 23 0 31 8 13 13 13 18 2 31
-9 11 -10 19 -2 27 6 6 8 17 5 24 -7 19 -40 17 -47 -3z m34 -8 c0 -8 -4 -15
-10 -15 -5 0 -10 7 -10 15 0 8 5 15 10 15 6 0 10 -7 10 -15z"/>
<path d="M705 5940 c-4 -7 0 -10 11 -8 28 5 29 -30 3 -58 l-22 -24 34 1 c25 1
28 3 11 6 -22 4 -23 6 -7 23 9 10 15 29 13 42 -3 24 -32 36 -43 18z"/>
<path d="M1360 5941 c0 -6 -15 -12 -32 -14 l-33 -4 33 -1 c31 -2 32 -3 32 -47
0 -25 3 -45 8 -45 4 0 5 24 4 54 l-4 55 31 -1 c24 -1 31 -6 34 -27 3 -22 4
-21 6 7 1 31 0 32 -39 32 -22 0 -40 -4 -40 -9z"/>
<path d="M1563 5943 c9 -2 23 -2 30 0 6 3 -1 5 -18 5 -16 0 -22 -2 -12 -5z"/>
<path d="M1722 5930 c-7 -11 -9 -20 -4 -20 4 0 13 9 20 20 7 11 9 20 4 20 -4
0 -13 -9 -20 -20z"/>
<path d="M1838 5925 c3 -17 0 -25 -9 -25 -11 0 -11 -2 -1 -8 10 -7 10 -15 2
-38 -9 -23 -9 -26 1 -17 15 15 25 113 12 113 -6 0 -8 -11 -5 -25z"/>
<path d="M1871 5888 c0 -38 2 -68 7 -68 4 0 6 21 4 48 -5 82 -9 89 -11 20z"/>
<path d="M2474 5928 c0 -13 -4 -36 -8 -53 -5 -25 -5 -27 4 -9 6 11 25 25 42
32 39 15 35 46 -7 50 -25 2 -30 -1 -31 -20z m44 -5 c-2 -10 -11 -19 -20 -21
-12 -2 -15 2 -11 17 7 25 36 28 31 4z"/>
<path d="M2572 5927 c-23 -25 -29 -61 -12 -72 8 -5 8 -11 0 -20 -18 -21 50
-30 69 -8 15 15 15 16 0 5 -11 -9 -24 -9 -40 -3 -13 5 -18 10 -11 10 10 1 9 5
-3 17 -25 25 -1 84 35 84 27 0 31 -24 9 -59 -22 -36 -7 -43 17 -7 38 59 -16
104 -64 53z"/>
<path d="M2683 5944 c3 -3 0 -26 -8 -50 -7 -24 -10 -44 -5 -44 4 0 13 20 19
45 7 28 17 45 26 45 19 0 19 -9 0 -30 -15 -16 -10 -60 7 -60 5 0 6 9 3 20 -4
12 -1 27 5 35 18 22 4 45 -26 45 -15 0 -25 -3 -21 -6z"/>
<path d="M3707 5918 c-3 -18 -8 -41 -12 -50 -4 -10 -3 -18 2 -18 5 0 14 20 21
45 7 28 18 45 27 45 18 0 19 -11 3 -29 -11 -11 -10 -13 2 -9 8 3 16 14 18 26
3 18 -2 22 -26 22 -25 0 -30 -4 -35 -32z"/>
<path d="M3808 5933 c-22 -25 -29 -55 -18 -73 5 -9 5 -19 -2 -27 -8 -10 -2
-13 30 -13 23 0 43 4 46 8 3 5 -8 6 -24 4 -26 -4 -29 -1 -35 32 -5 26 -3 43 9
61 19 29 16 33 -6 8z"/>
<path d="M3867 5929 c4 -12 -3 -32 -16 -50 -12 -16 -17 -29 -12 -29 27 0 54
81 32 94 -5 4 -7 -3 -4 -15z"/>
<path d="M4459 5933 c-13 -16 -12 -17 4 -4 16 13 21 21 13 21 -2 0 -10 -8 -17
-17z"/>
<path d="M5788 5925 c2 -14 6 -25 8 -25 2 0 4 11 4 25 0 14 -4 25 -9 25 -4 0
-6 -11 -3 -25z"/>
<path d="M550 5930 c0 -5 5 -10 10 -10 6 0 10 5 10 10 0 6 -4 10 -10 10 -5 0
-10 -4 -10 -10z"/>
<path d="M873 5905 c0 -22 2 -30 4 -17 2 12 2 30 0 40 -3 9 -5 -1 -4 -23z"/>
<path d="M4120 5916 c-5 -15 -10 -35 -10 -44 1 -9 7 1 15 23 16 44 11 63 -5
21z"/>
<path d="M4630 5920 c-6 -11 -8 -20 -6 -20 3 0 10 9 16 20 6 11 8 20 6 20 -3
0 -10 -9 -16 -20z"/>
<path d="M4903 5932 c-21 -3 -23 -8 -21 -55 l2 -52 3 48 c5 58 23 62 24 5 1
-24 3 -35 6 -25 5 21 33 23 33 2 0 -8 3 -15 8 -15 4 0 6 18 4 40 -3 31 -1 40
11 40 11 0 17 -12 20 -42 l4 -43 1 46 2 47 -37 3 c-21 2 -48 3 -60 1z m47 -32
c0 -12 -7 -20 -17 -20 -15 0 -16 2 -3 10 10 6 11 10 3 10 -7 0 -13 5 -13 10 0
6 7 10 15 10 8 0 15 -9 15 -20z"/>
<path d="M5500 5896 c0 -25 3 -47 8 -49 4 -3 7 17 7 44 1 27 -3 49 -7 49 -4 0
-8 -20 -8 -44z"/>
<path d="M1992 5898 c1 -15 4 -28 9 -28 4 0 6 8 5 18 -2 9 3 22 11 27 12 9 11
11 -6 11 -15 0 -19 -7 -19 -28z"/>
<path d="M3227 5917 c-2 -7 -1 -30 3 -52 8 -40 8 -40 7 13 0 54 -1 61 -10 39z"/>
<path d="M3414 5912 c-5 -9 -7 -33 -4 -52 6 -34 6 -33 11 15 6 59 6 59 -7 37z"/>
<path d="M4019 5909 c-7 -13 -7 -19 -1 -15 7 4 12 -9 15 -31 3 -32 4 -29 5 15
2 57 -1 63 -19 31z"/>
<path d="M4556 5917 c3 -10 9 -15 12 -12 3 3 0 11 -7 18 -10 9 -11 8 -5 -6z"/>
<path d="M6527 5924 c-22 -22 3 -77 29 -67 20 7 17 21 -3 19 -12 0 -19 7 -21
22 -3 21 20 33 31 15 2 -5 3 -3 2 2 -2 12 -28 18 -38 9z"/>
<path d="M6591 5891 c1 -35 2 -35 8 -7 9 43 31 45 32 4 l1 -33 7 29 c9 42 29
44 34 4 l5 -33 -2 35 c-1 34 -2 35 -43 36 l-43 1 1 -36z"/>
<path d="M530 5909 c0 -5 11 -9 25 -9 14 0 25 2 25 4 0 2 -11 6 -25 8 -14 3
-25 1 -25 -3z"/>
<path d="M1918 5899 c-10 -10 -14 -19 -10 -19 5 0 17 9 27 20 10 11 14 20 9
19 -5 0 -17 -9 -26 -20z"/>
<path d="M5264 5905 c-4 -9 -4 -19 0 -22 3 -4 6 2 7 13 0 18 1 18 9 -1 7 -16
9 -17 9 -3 1 23 -18 33 -25 13z"/>
<path d="M6830 5905 c7 -9 15 -13 17 -11 7 7 -7 26 -19 26 -6 0 -6 -6 2 -15z"/>
<path d="M500 5868 c0 -49 5 -47 13 5 3 20 2 37 -4 37 -5 0 -9 -19 -9 -42z"/>
<path d="M1090 5894 c0 -8 5 -12 10 -9 6 4 8 11 5 16 -9 14 -15 11 -15 -7z"/>
<path d="M2158 5903 c6 -2 18 -2 25 0 6 3 1 5 -13 5 -14 0 -19 -2 -12 -5z"/>
<path d="M4071 5894 c0 -11 3 -14 6 -6 3 7 2 16 -1 19 -3 4 -6 -2 -5 -13z"/>
<path d="M4197 5878 c-6 -43 1 -50 9 -10 8 39 21 41 27 5 4 -26 4 -26 6 5 1
25 -3 32 -18 32 -13 0 -20 -9 -24 -32z"/>
<path d="M5680 5899 c-16 -4 -19 -7 -7 -8 22 -1 22 -19 0 -45 -12 -15 -9 -13
10 4 24 21 30 22 37 10 5 -8 10 -10 10 -4 0 5 -5 15 -12 22 -9 9 -7 12 12 12
13 0 20 3 16 7 -9 9 -37 10 -66 2z"/>
<path d="M1538 5893 c7 -3 16 -2 19 1 4 3 -2 6 -13 5 -11 0 -14 -3 -6 -6z"/>
<path d="M1688 5893 c24 -5 29 -18 10 -26 -7 -3 3 -5 22 -5 19 0 27 2 18 5
-27 7 -21 21 10 26 15 2 2 4 -28 4 -30 0 -45 -2 -32 -4z"/>
<path d="M2911 5884 c0 -11 3 -14 6 -6 3 7 2 16 -1 19 -3 4 -6 -2 -5 -13z"/>
<path d="M3453 5893 c15 -2 39 -2 55 0 15 2 2 4 -28 4 -30 0 -43 -2 -27 -4z"/>
<path d="M4375 5873 l-17 -28 23 22 c12 12 20 25 17 28 -3 3 -13 -7 -23 -22z"/>
<path d="M1318 5860 c-3 -17 -1 -33 3 -35 4 -3 9 11 11 30 5 43 -8 47 -14 5z"/>
<path d="M2025 5880 c3 -5 8 -10 11 -10 2 0 4 5 4 10 0 6 -5 10 -11 10 -5 0
-7 -4 -4 -10z"/>
<path d="M4538 5883 c7 -3 16 -2 19 1 4 3 -2 6 -13 5 -11 0 -14 -3 -6 -6z"/>
<path d="M4638 5883 c7 -3 16 -2 19 1 4 3 -2 6 -13 5 -11 0 -14 -3 -6 -6z"/>
<path d="M5792 5870 c0 -14 2 -19 5 -12 2 6 2 18 0 25 -3 6 -5 1 -5 -13z"/>
<path d="M6238 5883 c12 -2 30 -2 40 0 9 3 -1 5 -23 4 -22 0 -30 -2 -17 -4z"/>
<path d="M521 5864 c0 -11 3 -14 6 -6 3 7 2 16 -1 19 -3 4 -6 -2 -5 -13z"/>
<path d="M545 5870 c-3 -5 -1 -10 5 -10 7 0 9 -7 6 -16 -3 -8 -2 -12 4 -9 13
8 13 32 1 40 -5 3 -12 1 -16 -5z"/>
<path d="M1658 5849 c-9 -16 -14 -29 -9 -29 8 0 34 50 29 56 -2 1 -11 -11 -20
-27z"/>
<path d="M1919 5854 c-22 -25 -22 -26 -3 -16 12 6 24 18 28 27 8 21 3 19 -25
-11z"/>
<path d="M2090 5869 c0 -8 7 -24 15 -35 19 -25 19 -14 0 22 -8 16 -15 22 -15
13z"/>
<path d="M2240 5876 c0 -2 7 -9 15 -16 9 -7 15 -8 15 -2 0 5 -7 12 -15 16 -8
3 -15 4 -15 2z"/>
<path d="M3431 5877 c2 -1 13 -9 23 -17 11 -8 17 -10 13 -3 -5 7 2 13 20 16
19 3 14 4 -16 6 -24 0 -42 0 -40 -2z"/>
<path d="M5620 5866 c0 -8 -6 -17 -12 -19 -8 -3 -6 -6 5 -6 11 -1 17 6 17 19
0 11 -2 20 -5 20 -3 0 -5 -6 -5 -14z"/>
<path d="M4750 5865 c0 -36 78 -49 88 -15 4 12 2 13 -9 3 -19 -19 -56 -16 -68
5 -6 9 -10 13 -11 7z"/>
<path d="M2920 5845 c0 -8 4 -15 10 -15 5 0 7 7 4 15 -4 8 -8 15 -10 15 -2 0
-4 -7 -4 -15z"/>
<path d="M3000 5851 c0 -5 5 -13 10 -16 6 -3 10 -2 10 4 0 5 -4 13 -10 16 -5
3 -10 2 -10 -4z"/>
<path d="M4270 5856 c0 -2 7 -9 15 -16 9 -7 15 -8 15 -2 0 5 -7 12 -15 16 -8
3 -15 4 -15 2z"/>
<path d="M2975 5840 c-3 -5 -1 -10 4 -10 6 0 11 5 11 10 0 6 -2 10 -4 10 -3 0
-8 -4 -11 -10z"/>
<path d="M4075 5839 c-24 -5 -20 -7 23 -8 28 0 52 1 52 3 0 8 -47 11 -75 5z"/>
<path d="M1745 5830 c3 -5 10 -10 16 -10 5 0 9 5 9 10 0 6 -7 10 -16 10 -8 0
-12 -4 -9 -10z"/>
<path d="M3478 5833 c7 -3 16 -2 19 1 4 3 -2 6 -13 5 -11 0 -14 -3 -6 -6z"/>
<path d="M530 5713 c-1 -10 -7 -35 -14 -55 -12 -32 -12 -38 0 -38 8 0 13 3 13
8 -4 23 3 42 14 42 7 0 22 6 32 14 16 12 17 16 6 30 -18 22 -51 21 -51 -1z
m40 -7 c0 -16 -18 -31 -27 -22 -8 8 5 36 17 36 5 0 10 -6 10 -14z"/>
<path d="M620 5713 c-1 -10 -7 -35 -14 -55 -12 -32 -12 -38 0 -38 8 0 14 10
14 25 0 14 5 25 10 25 6 0 15 -11 20 -25 5 -14 14 -25 20 -25 6 0 6 7 -2 19
-10 16 -9 25 1 44 16 31 8 47 -25 47 -16 0 -24 -6 -24 -17z m43 1 c9 -10 -4
-34 -19 -34 -16 0 -16 2 -8 24 6 17 16 20 27 10z"/>
<path d="M855 5719 c-4 -6 0 -9 11 -7 27 4 30 -34 4 -57 -28 -25 -25 -35 10
-35 17 0 30 4 30 9 0 5 -9 7 -20 4 -26 -7 -25 1 2 37 17 24 19 32 8 45 -14 17
-36 20 -45 4z"/>
<path d="M941 5711 c-9 -15 -6 -22 14 -35 16 -11 22 -22 19 -34 -5 -14 -4 -15
5 -2 15 21 14 27 -11 50 -18 16 -19 20 -5 20 8 0 19 5 22 10 3 6 -3 10 -14 10
-11 0 -25 -9 -30 -19z"/>
<path d="M1360 5691 c0 -23 -8 -50 -21 -67 l-21 -29 26 28 c14 15 26 35 26 43
0 9 11 14 36 14 33 0 35 -2 23 -17 -7 -10 -15 -20 -16 -22 -2 -3 -10 4 -18 15
-14 18 -15 17 -4 -7 6 -14 25 -30 42 -37 32 -12 32 -11 9 6 -20 16 -21 19 -8
37 20 26 20 35 0 35 -11 0 -14 6 -9 20 4 11 2 20 -4 20 -6 0 -10 -3 -10 -7 4
-23 -3 -33 -22 -33 -16 0 -20 5 -16 20 3 11 1 20 -4 20 -5 0 -9 -17 -9 -39z"/>
<path d="M1646 5680 c-25 -27 -46 -52 -46 -55 0 -3 24 -4 53 -3 l52 1 -42 6
-42 6 39 44 c22 25 40 46 40 48 0 9 -11 -1 -54 -47z"/>
<path d="M1739 5709 c-17 -17 -20 -29 -16 -59 3 -21 0 -43 -6 -49 -8 -8 2 -11
35 -11 26 0 49 4 52 8 2 4 -11 6 -30 4 -42 -5 -45 10 -4 25 36 13 59 57 43 81
-15 25 -49 26 -74 1z m61 -17 c0 -33 -32 -67 -55 -59 -33 13 -2 87 36 87 14 0
19 -7 19 -28z"/>
<path d="M1850 5703 c0 -15 -7 -40 -14 -55 -13 -24 -13 -28 0 -28 8 0 14 9 14
21 0 13 10 23 31 31 40 14 38 51 -3 56 -25 3 -28 0 -28 -25z m45 -4 c0 -7 -8
-15 -17 -17 -12 -2 -15 2 -11 18 6 23 28 22 28 -1z"/>
<path d="M1943 5722 c4 -5 0 -30 -8 -55 -8 -26 -10 -47 -6 -47 5 0 12 11 15
25 4 14 10 25 15 25 5 0 12 -11 15 -25 4 -14 11 -25 16 -25 6 0 5 11 -2 26 -9
20 -9 27 1 33 23 14 8 46 -23 49 -15 2 -26 -1 -23 -6z m45 -19 c-2 -10 -11
-19 -20 -21 -12 -2 -15 2 -11 17 7 25 36 28 31 4z"/>
<path d="M2177 5723 c-15 -15 -7 -55 13 -60 26 -7 25 -17 -2 -31 -13 -6 -17
-11 -10 -11 20 -1 52 37 52 62 0 35 -33 60 -53 40z m33 -29 c0 -31 -23 -28
-28 4 -2 15 2 22 12 22 11 0 16 -9 16 -26z"/>
<path d="M2265 5721 c-3 -6 4 -9 15 -8 11 1 20 5 20 9 0 11 -28 10 -35 -1z"/>
<path d="M2323 5714 c-3 -8 -1 -20 6 -27 14 -14 47 15 37 32 -10 16 -36 13
-43 -5z m26 -11 c0 -5 -3 -9 -9 -11 -5 -2 -10 4 -10 13 0 16 16 14 19 -2z"/>
<path d="M1053 5693 c-19 -7 -16 -62 3 -70 8 -3 21 0 27 6 9 9 8 11 -5 6 -20
-8 -34 16 -24 41 5 13 9 14 21 4 9 -7 15 -8 15 -2 0 12 -21 21 -37 15z"/>
<path d="M2268 5684 c12 -9 22 -23 22 -31 0 -7 -10 -18 -22 -23 -18 -8 -19 -9
-4 -7 28 3 44 33 30 55 -6 9 -20 18 -30 20 -17 2 -16 0 4 -14z"/>
<path d="M1108 5655 c-2 -22 0 -35 7 -35 7 0 10 12 7 30 -3 23 -1 30 13 30 14
0 16 -7 13 -30 -3 -19 0 -30 7 -30 7 0 10 11 7 30 -3 23 -1 30 13 30 14 0 16
-7 13 -30 -3 -18 0 -30 7 -30 7 0 9 13 7 35 -4 34 -6 35 -47 35 -41 0 -43 -1
-47 -35z"/>
<path d="M2500 5673 c0 -10 4 -14 8 -8 4 6 11 13 16 18 5 4 2 7 -7 7 -10 0
-17 -8 -17 -17z"/>
<path d="M738 5643 c12 -2 32 -2 45 0 12 2 2 4 -23 4 -25 0 -35 -2 -22 -4z"/>
<path d="M2098 5643 c7 -3 16 -2 19 1 4 3 -2 6 -13 5 -11 0 -14 -3 -6 -6z"/>
<path d="M938 5623 c7 -3 16 -2 19 1 4 3 -2 6 -13 5 -11 0 -14 -3 -6 -6z"/>
<path d="M1360 5610 c-8 -5 -10 -10 -5 -10 6 0 17 5 25 10 8 5 11 10 5 10 -5
0 -17 -5 -25 -10z"/>
<path d="M2934 5491 c3 -5 -1 -27 -9 -50 -8 -23 -10 -41 -6 -41 8 0 12 12 26
63 2 4 3 12 4 17 1 14 31 13 31 -1 0 -7 -6 -17 -14 -23 -16 -13 -5 -56 15 -56
8 0 8 4 -1 15 -11 13 -11 20 0 39 15 30 6 46 -26 46 -14 0 -23 -4 -20 -9z"/>
<path d="M2935 5338 c-3 -7 -18 -74 -35 -148 -17 -74 -37 -162 -45 -195 -14
-57 -34 -148 -125 -550 -22 -99 -43 -190 -45 -202 -5 -20 -13 -23 -53 -25
l-47 -1 43 -4 c30 -3 42 -9 42 -20 0 -13 -39 -203 -56 -268 -2 -11 -29 -128
-59 -260 -29 -132 -57 -248 -60 -257 -8 -20 -12 -18 283 -88 508 -118 1032
-243 1093 -260 111 -31 1006 -240 1016 -238 6 2 -91 136 -217 298 -127 162
-268 345 -315 405 -47 61 -138 178 -202 260 -65 83 -164 211 -220 285 l-102
135 32 6 32 6 -36 2 c-41 1 -45 5 -155 150 -43 58 -122 161 -174 230 -53 69
-154 201 -225 292 -72 92 -181 232 -243 313 -63 80 -116 146 -118 146 -3 0 -7
-6 -9 -12z m117 -140 c51 -67 124 -163 162 -212 38 -50 119 -154 180 -231 61
-78 134 -171 161 -208 28 -38 75 -100 106 -140 30 -40 122 -160 204 -267 82
-107 210 -274 285 -370 75 -96 174 -224 221 -285 46 -60 177 -229 291 -375
187 -238 226 -292 200 -276 -4 2 -143 37 -307 76 -165 39 -376 89 -470 111
-93 23 -195 47 -225 54 -30 7 -208 49 -395 94 -484 117 -489 117 -610 146
-251 58 -330 78 -338 85 -5 5 7 79 27 166 79 344 97 423 121 539 14 66 41 185
60 265 18 80 61 267 95 415 104 461 124 544 131 539 4 -2 49 -59 101 -126z"/>
<path d="M5570 4220 l-45 -7 48 -1 c26 -1 47 3 47 8 0 6 -1 9 -2 8 -2 0 -23
-4 -48 -8z"/>
<path d="M5700 4220 c0 -11 21 -11 65 0 27 7 25 8 -17 9 -27 0 -48 -3 -48 -9z"/>
<path d="M5893 4223 c15 -2 37 -2 50 0 12 2 0 4 -28 4 -27 0 -38 -2 -22 -4z"/>
<path d="M6068 4223 c12 -2 32 -2 45 0 12 2 2 4 -23 4 -25 0 -35 -2 -22 -4z"/>
<path d="M6243 4223 c15 -2 37 -2 50 0 12 2 0 4 -28 4 -27 0 -38 -2 -22 -4z"/>
<path d="M6413 4223 c15 -2 37 -2 50 0 12 2 0 4 -28 4 -27 0 -38 -2 -22 -4z"/>
<path d="M6583 4223 c15 -2 37 -2 50 0 12 2 0 4 -28 4 -27 0 -38 -2 -22 -4z"/>
<path d="M6753 4223 c15 -2 37 -2 50 0 12 2 0 4 -28 4 -27 0 -38 -2 -22 -4z"/>
<path d="M1440 4180 c-27 -52 -12 -52 17 0 12 22 17 40 12 40 -5 0 -18 -18
-29 -40z"/>
<path d="M1583 4213 c15 -2 37 -2 50 0 12 2 0 4 -28 4 -27 0 -38 -2 -22 -4z"/>
<path d="M1753 4213 c15 -2 37 -2 50 0 12 2 0 4 -28 4 -27 0 -38 -2 -22 -4z"/>
<path d="M1905 4215 c23 -8 85 -10 85 -3 0 4 -21 8 -47 7 -27 0 -43 -2 -38 -4z"/>
<path d="M2093 4213 c15 -2 37 -2 50 0 12 2 0 4 -28 4 -27 0 -38 -2 -22 -4z"/>
<path d="M2273 4213 c15 -2 37 -2 50 0 12 2 0 4 -28 4 -27 0 -38 -2 -22 -4z"/>
<path d="M2443 4213 c15 -2 37 -2 50 0 12 2 0 4 -28 4 -27 0 -38 -2 -22 -4z"/>
<path d="M3993 4213 c15 -2 37 -2 50 0 12 2 0 4 -28 4 -27 0 -38 -2 -22 -4z"/>
<path d="M4163 4213 c15 -2 37 -2 50 0 12 2 0 4 -28 4 -27 0 -38 -2 -22 -4z"/>
<path d="M4343 4213 c15 -2 37 -2 50 0 12 2 0 4 -28 4 -27 0 -38 -2 -22 -4z"/>
<path d="M4513 4213 c15 -2 37 -2 50 0 12 2 0 4 -28 4 -27 0 -38 -2 -22 -4z"/>
<path d="M4683 4213 c15 -2 37 -2 50 0 12 2 0 4 -28 4 -27 0 -38 -2 -22 -4z"/>
<path d="M4858 4213 c12 -2 32 -2 45 0 12 2 2 4 -23 4 -25 0 -35 -2 -22 -4z"/>
<path d="M5033 4213 c15 -2 37 -2 50 0 12 2 0 4 -28 4 -27 0 -38 -2 -22 -4z"/>
<path d="M5203 4213 c15 -2 37 -2 50 0 12 2 0 4 -28 4 -27 0 -38 -2 -22 -4z"/>
<path d="M5373 4213 c15 -2 37 -2 50 0 12 2 0 4 -28 4 -27 0 -38 -2 -22 -4z"/>
<path d="M6746 4114 c-9 -20 -15 -39 -12 -41 2 -3 12 12 21 32 10 19 16 38 13
40 -2 3 -12 -12 -22 -31z"/>
<path d="M1360 4035 c-12 -20 -20 -38 -17 -41 2 -3 14 12 26 32 28 48 20 56
-9 9z"/>
<path d="M6663 3960 c-12 -22 -18 -40 -13 -40 4 0 17 18 29 40 11 22 17 40 13
40 -4 0 -17 -18 -29 -40z"/>
<path d="M1276 3884 c-23 -50 -15 -53 13 -4 12 22 18 40 13 40 -4 0 -16 -16
-26 -36z"/>
<path d="M6583 3809 c-12 -21 -17 -39 -13 -39 10 0 45 68 39 75 -3 2 -14 -14
-26 -36z"/>
<path d="M1197 3735 c-23 -49 -21 -57 4 -16 11 18 19 37 17 43 -2 5 -11 -7
-21 -27z"/>
<path d="M6500 3658 c-13 -22 -18 -38 -11 -34 13 8 44 66 39 72 -3 2 -15 -15
-28 -38z"/>
<path d="M1111 3580 c-12 -22 -18 -40 -13 -40 9 0 45 70 39 76 -2 2 -14 -14
-26 -36z"/>
<path d="M6416 3504 c-23 -50 -16 -52 12 -3 12 21 19 39 14 39 -4 0 -16 -16
-26 -36z"/>
<path d="M1030 3431 c-11 -23 -17 -41 -12 -41 10 0 45 70 38 77 -2 3 -14 -13
-26 -36z"/>
<path d="M2376 3395 c-4 -20 -10 -43 -13 -51 -3 -8 -1 -14 5 -14 6 0 13 18 17
40 7 42 18 56 36 45 7 -5 4 -14 -8 -27 -18 -21 -18 -21 5 -9 30 16 25 45 -9
49 -23 3 -27 -1 -33 -33z"/>
<path d="M6336 3355 c-11 -19 -17 -37 -15 -39 2 -3 14 13 26 35 12 21 18 39
14 39 -3 0 -15 -16 -25 -35z"/>
<path d="M946 3279 c-10 -17 -16 -33 -13 -36 3 -3 13 9 22 27 21 41 14 48 -9
9z"/>
<path d="M6255 3205 c-11 -19 -17 -36 -14 -39 2 -2 14 13 26 35 12 21 18 39
14 39 -4 0 -16 -16 -26 -35z"/>
<path d="M862 3129 c-12 -21 -18 -39 -13 -39 9 0 45 69 39 75 -2 2 -14 -14
-26 -36z"/>
<path d="M6171 3054 c-28 -48 -20 -56 9 -9 12 20 20 38 17 41 -2 3 -14 -12
-26 -32z"/>
<path d="M780 2978 c-11 -18 -20 -36 -20 -40 0 -17 11 -6 30 32 25 48 18 53
-10 8z"/>
<path d="M6086 2904 c-23 -50 -16 -52 11 -3 12 21 18 39 14 39 -4 0 -15 -16
-25 -36z"/>
<path d="M696 2825 c-11 -19 -17 -37 -15 -39 2 -3 14 13 26 35 12 21 18 39 14
39 -3 0 -15 -16 -25 -35z"/>
<path d="M4965 2815 c-42 -41 -26 -103 21 -85 23 9 54 47 54 67 0 14 -27 43
-41 43 -6 0 -21 -11 -34 -25z m53 -10 c6 -29 -19 -66 -42 -63 -17 2 -21 9 -19
33 4 48 53 72 61 30z"/>
<path d="M6002 2749 c-12 -21 -19 -39 -14 -39 8 0 45 70 40 76 -2 1 -14 -15
-26 -37z"/>
<path d="M4944 2708 c-3 -4 11 -8 30 -8 20 0 36 2 36 4 0 8 -61 12 -66 4z"/>
<path d="M611 2670 c-12 -22 -18 -40 -13 -40 9 0 45 70 39 76 -2 2 -14 -14
-26 -36z"/>
<path d="M5920 2601 c-11 -23 -17 -41 -12 -41 10 0 45 70 38 77 -2 3 -14 -13
-26 -36z"/>
<path d="M537 2531 c-9 -16 -17 -35 -17 -43 1 -7 10 4 21 25 24 46 21 59 -4
18z"/>
<path d="M3020 2488 c0 -5 20 -8 45 -8 25 0 45 3 45 8 0 4 -20 7 -45 7 -25 0
-45 -3 -45 -7z"/>
<path d="M3200 2488 c0 -4 18 -8 40 -8 22 0 40 3 40 8 0 4 -18 7 -40 7 -22 1
-40 -3 -40 -7z"/>
<path d="M3370 2488 c0 -5 20 -8 45 -8 25 0 45 4 45 9 0 5 -20 9 -45 8 -25 -1
-45 -5 -45 -9z"/>
<path d="M3540 2488 c0 -10 49 -9 75 2 15 6 7 9 -27 8 -27 -1 -48 -5 -48 -10z"/>
<path d="M3733 2493 c15 -2 37 -2 50 0 12 2 0 4 -28 4 -27 0 -38 -2 -22 -4z"/>
<path d="M3903 2493 c15 -2 37 -2 50 0 12 2 0 4 -28 4 -27 0 -38 -2 -22 -4z"/>
<path d="M4073 2493 c15 -2 37 -2 50 0 12 2 0 4 -28 4 -27 0 -38 -2 -22 -4z"/>
<path d="M4253 2493 c15 -2 37 -2 50 0 12 2 0 4 -28 4 -27 0 -38 -2 -22 -4z"/>
<path d="M4423 2493 c15 -2 37 -2 50 0 12 2 0 4 -28 4 -27 0 -38 -2 -22 -4z"/>
<path d="M4593 2493 c15 -2 37 -2 50 0 12 2 0 4 -28 4 -27 0 -38 -2 -22 -4z"/>
<path d="M4763 2493 c15 -2 37 -2 50 0 12 2 0 4 -28 4 -27 0 -38 -2 -22 -4z"/>
<path d="M4943 2493 c15 -2 37 -2 50 0 12 2 0 4 -28 4 -27 0 -38 -2 -22 -4z"/>
<path d="M5113 2493 c15 -2 37 -2 50 0 12 2 0 4 -28 4 -27 0 -38 -2 -22 -4z"/>
<path d="M5283 2493 c15 -2 37 -2 50 0 12 2 0 4 -28 4 -27 0 -38 -2 -22 -4z"/>
<path d="M5453 2493 c15 -2 39 -2 55 0 15 2 2 4 -28 4 -30 0 -43 -2 -27 -4z"/>
<path d="M5633 2493 c15 -2 37 -2 50 0 12 2 0 4 -28 4 -27 0 -38 -2 -22 -4z"/>
<path d="M5803 2493 c15 -2 37 -2 50 0 12 2 0 4 -28 4 -27 0 -38 -2 -22 -4z"/>
<path d="M623 2483 c15 -2 39 -2 55 0 15 2 2 4 -28 4 -30 0 -43 -2 -27 -4z"/>
<path d="M803 2483 c15 -2 37 -2 50 0 12 2 0 4 -28 4 -27 0 -38 -2 -22 -4z"/>
<path d="M973 2483 c15 -2 37 -2 50 0 12 2 0 4 -28 4 -27 0 -38 -2 -22 -4z"/>
<path d="M1143 2483 c15 -2 39 -2 55 0 15 2 2 4 -28 4 -30 0 -43 -2 -27 -4z"/>
<path d="M1313 2483 c15 -2 39 -2 55 0 15 2 2 4 -28 4 -30 0 -43 -2 -27 -4z"/>
<path d="M1493 2483 c15 -2 37 -2 50 0 12 2 0 4 -28 4 -27 0 -38 -2 -22 -4z"/>
<path d="M1663 2483 c15 -2 37 -2 50 0 12 2 0 4 -28 4 -27 0 -38 -2 -22 -4z"/>
<path d="M1833 2483 c15 -2 39 -2 55 0 15 2 2 4 -28 4 -30 0 -43 -2 -27 -4z"/>
<path d="M2003 2483 c15 -2 37 -2 50 0 12 2 0 4 -28 4 -27 0 -38 -2 -22 -4z"/>
<path d="M2173 2483 c15 -2 39 -2 55 0 15 2 2 4 -28 4 -30 0 -43 -2 -27 -4z"/>
<path d="M2353 2483 c15 -2 37 -2 50 0 12 2 0 4 -28 4 -27 0 -38 -2 -22 -4z"/>
<path d="M2523 2483 c15 -2 37 -2 50 0 12 2 0 4 -28 4 -27 0 -38 -2 -22 -4z"/>
<path d="M2693 2483 c15 -2 37 -2 50 0 12 2 0 4 -28 4 -27 0 -38 -2 -22 -4z"/>
<path d="M2873 2483 c15 -2 37 -2 50 0 12 2 0 4 -28 4 -27 0 -38 -2 -22 -4z"/>
<path d="M3499 2288 c-1 -54 -3 -58 -9 -28 -5 22 -8 27 -9 13 0 -12 -4 -28 -7
-37 -4 -12 0 -16 15 -16 19 0 21 6 21 65 0 83 -10 85 -11 3z"/>
<path d="M3589 2323 c-13 -16 -12 -17 3 -5 19 15 38 8 38 -13 0 -7 -11 -26
-24 -42 l-24 -29 36 5 c25 4 30 6 15 9 -20 3 -21 4 -5 31 27 47 -7 85 -39 44z"/>
<path d="M3440 2299 c0 -6 -8 -8 -18 -5 -15 5 -17 1 -14 -34 4 -36 7 -40 31
-39 23 2 24 2 4 6 -38 7 -30 59 8 55 3 -1 6 6 6 14 0 8 -4 14 -9 14 -4 0 -8
-5 -8 -11z"/>
<path d="M962 1963 c-2 -37 -6 -45 -33 -58 -17 -9 -29 -19 -26 -22 3 -2 17 3
31 12 25 17 26 17 26 -4 0 -14 -4 -20 -12 -15 -7 4 -8 3 -4 -4 13 -22 26 -12
26 20 l0 31 23 -21 c13 -12 27 -22 31 -22 5 0 -2 9 -15 20 -24 20 -24 20 -5
35 11 8 15 15 9 15 -7 0 -15 -4 -18 -10 -13 -20 -24 -9 -28 28 l-4 37 -1 -42z"/>
<path d="M996 1987 c3 -10 9 -15 12 -12 3 3 0 11 -7 18 -10 9 -11 8 -5 -6z"/>
<path d="M476 1968 c-21 -30 -20 -71 2 -95 9 -10 14 -14 11 -8 -16 26 -18 72
-5 98 18 33 13 35 -8 5z"/>
<path d="M583 1974 c22 -26 22 -82 0 -108 -16 -19 -15 -19 6 1 31 28 31 78 -1
107 l-22 21 17 -21z"/>
<path d="M517 1954 c-13 -13 -7 -27 6 -15 8 6 17 8 20 5 3 -4 -4 -15 -16 -25
-17 -13 -19 -20 -10 -29 8 -9 11 -8 10 5 -1 10 4 20 12 23 10 3 12 0 8 -11 -3
-9 -2 -19 4 -23 7 -4 9 8 7 32 -3 37 -23 55 -41 38z"/>
<path d="M926 1947 c3 -10 9 -15 12 -12 3 3 0 11 -7 18 -10 9 -11 8 -5 -6z"/>
<path d="M1637 1600 c-10 -12 -17 -37 -17 -60 0 -36 3 -40 25 -40 14 0 25 4
25 9 0 5 -9 7 -20 4 -18 -5 -20 -1 -18 28 1 19 8 44 16 57 18 27 12 29 -11 2z"/>
<path d="M1697 1613 c-14 -13 -6 -23 19 -23 24 0 25 -2 22 -47 -2 -34 -7 -47
-16 -45 -8 1 -11 -2 -7 -8 13 -22 33 11 37 60 3 49 2 50 -25 50 -16 0 -26 4
-22 10 7 11 2 13 -8 3z"/>
<path d="M1820 1601 c0 -10 -3 -39 -6 -65 -6 -44 -6 -46 17 -45 19 1 20 2 5 6
-14 4 -17 11 -12 35 3 17 6 41 6 54 0 20 6 23 43 27 l42 4 -47 1 c-41 2 -48
-1 -48 -17z"/>
<path d="M2020 1611 c0 -6 -6 -9 -12 -7 -7 1 -10 1 -5 -1 12 -8 8 -23 -7 -23
-8 0 -17 8 -19 18 -3 9 -5 -3 -4 -28 0 -25 2 -35 4 -22 4 20 11 22 61 23 31 1
49 3 40 6 -10 2 -18 8 -18 13 0 5 8 11 18 13 13 4 11 5 -5 6 -14 1 -23 -5 -23
-14 0 -8 -7 -15 -15 -15 -18 0 -20 17 -3 22 9 3 9 6 0 12 -7 4 -12 3 -12 -3z"/>
<path d="M917 1592 c-21 -23 -22 -71 -3 -98 13 -17 13 -14 3 23 -9 34 -8 45 6
67 20 30 17 34 -6 8z"/>
<path d="M1005 1587 c16 -25 17 -35 8 -70 -10 -37 -10 -40 3 -23 21 30 18 80
-8 102 l-21 19 18 -28z"/>
<path d="M1408 1603 c15 -3 22 -12 22 -29 0 -24 -31 -64 -50 -64 -18 0 -24 31
-13 61 15 38 8 37 -12 -1 -12 -23 -13 -35 -5 -50 6 -11 9 -24 6 -29 -3 -5 6
-11 21 -14 24 -5 26 -4 10 8 -16 11 -15 14 13 25 49 20 56 94 10 97 -22 1 -22
1 -2 -4z"/>
<path d="M1480 1593 c-1 -10 -7 -34 -14 -55 -11 -30 -11 -35 0 -31 8 3 14 14
14 24 0 27 15 23 29 -7 6 -15 14 -24 17 -21 3 3 0 15 -6 27 -10 18 -8 24 6 35
16 11 16 15 5 29 -18 22 -51 21 -51 -1z m40 -7 c0 -16 -18 -31 -27 -22 -8 8 5
36 17 36 5 0 10 -6 10 -14z"/>
<path d="M1670 1565 c-7 -9 -11 -17 -9 -20 3 -2 10 5 17 15 14 24 10 26 -8 5z"/>
<path d="M960 1540 c0 -16 4 -30 8 -30 5 0 7 14 4 30 -2 17 -6 30 -8 30 -2 0
-4 -13 -4 -30z"/>
<path d="M2186 1555 c4 -8 10 -15 15 -15 5 0 9 7 9 15 0 8 -7 15 -15 15 -9 0
-12 -6 -9 -15z"/>
<path d="M1700 1556 c0 -2 8 -10 18 -17 15 -13 16 -12 3 4 -13 16 -21 21 -21
13z"/>
<path d="M2014 1521 c10 -10 14 -21 9 -23 -4 -3 -2 -3 5 -2 7 2 24 -1 38 -6
17 -7 23 -7 19 0 -3 6 -13 10 -21 10 -8 0 -14 5 -14 11 0 5 -4 8 -9 4 -5 -3
-13 0 -17 6 -5 9 1 10 20 5 15 -4 26 -2 26 4 0 5 -16 10 -37 10 -35 0 -35 -1
-19 -19z"/>
<path d="M1876 1510 c12 -13 27 -21 33 -19 6 2 -4 12 -22 22 l-32 18 21 -21z"/>
<path d="M1961 1504 c0 -11 3 -14 6 -6 3 7 2 16 -1 19 -3 4 -6 -2 -5 -13z"/>
<path d="M917 1222 c-25 -27 -22 -85 5 -108 l22 -19 -17 25 c-21 31 -22 69 -1
98 18 27 13 29 -9 4z"/>
<path d="M1043 1220 c9 -13 17 -36 17 -50 0 -14 -8 -37 -17 -50 l-17 -25 22
19 c15 13 22 31 22 56 0 25 -7 43 -22 56 l-22 19 17 -25z"/>
<path d="M1417 1190 c-26 -26 -47 -51 -47 -54 0 -3 24 -5 53 -4 52 1 52 2 8 5
l-44 4 43 44 c24 25 42 47 39 49 -2 3 -26 -17 -52 -44z"/>
<path d="M1520 1223 c-1 -10 -7 -35 -14 -55 -12 -32 -12 -38 0 -38 8 0 13 3
13 8 -4 23 3 42 15 42 8 0 22 7 31 16 12 12 13 19 4 30 -16 20 -49 18 -49 -3z
m40 -7 c0 -16 -18 -31 -27 -22 -8 8 5 36 17 36 5 0 10 -6 10 -14z"/>
<path d="M1612 1217 c-26 -27 -29 -75 -6 -84 42 -16 95 47 74 88 -14 26 -42
24 -68 -4z m58 -15 c0 -33 -32 -67 -55 -59 -33 13 -2 87 36 87 14 0 19 -7 19
-28z"/>
<path d="M1716 1198 c-4 -23 -12 -48 -18 -55 -8 -10 -7 -13 5 -13 10 0 17 13
22 38 9 53 21 70 37 54 11 -11 10 -16 -6 -28 -16 -12 -18 -18 -8 -39 6 -14 16
-25 22 -25 6 0 6 7 -2 19 -10 16 -9 25 2 46 12 23 12 28 0 35 -32 20 -47 11
-54 -32z"/>
<path d="M955 1165 c0 -19 5 -35 10 -35 7 0 9 15 7 35 -2 19 -7 35 -11 35 -3
0 -6 -16 -6 -35z"/>
<path d="M998 1165 c-2 -21 0 -35 7 -35 6 0 11 16 12 35 1 19 -3 35 -7 35 -4
0 -10 -16 -12 -35z"/>
<path d="M1596 1108 c6 -10 61 -11 67 0 3 4 -12 7 -33 7 -21 1 -36 -3 -34 -7z"/>
<path d="M6539 1014 c-19 -23 -16 -81 5 -102 18 -16 18 -16 7 5 -14 27 -14 68
-1 94 13 23 7 25 -11 3z"/>
<path d="M6602 1009 c-8 -12 -9 -18 -3 -14 7 3 11 -2 11 -14 0 -12 -4 -21 -10
-21 -5 0 -10 5 -10 11 0 5 -4 7 -10 4 -17 -10 -11 -25 9 -25 11 0 22 -6 24
-12 4 -10 8 -10 16 1 6 10 6 21 0 33 -6 10 -7 28 -4 38 8 26 -7 25 -23 -1z"/>
<path d="M6719 1013 c-13 -16 -12 -17 4 -4 16 13 21 21 13 21 -2 0 -10 -8 -17
-17z"/>
<path d="M6864 1008 c9 -12 16 -32 16 -43 0 -11 -7 -31 -16 -43 -8 -12 -11
-22 -5 -22 15 0 31 34 31 65 0 31 -16 65 -31 65 -6 0 -3 -10 5 -22z"/>
<path d="M6786 1006 c3 -8 -2 -16 -13 -19 -15 -4 -15 -5 -1 -6 9 0 19 -11 21
-23 4 -23 4 -23 6 -1 0 12 7 23 15 25 10 2 7 8 -10 21 -18 13 -22 14 -18 3z"/>
<path d="M6741 974 c0 -11 3 -14 6 -6 3 7 2 16 -1 19 -3 4 -6 -2 -5 -13z"/>
<path d="M6715 930 c-10 -11 -13 -20 -8 -20 13 0 38 29 31 35 -3 3 -13 -4 -23
-15z"/>
<path d="M6770 920 c-13 -8 -12 -10 3 -10 9 0 17 5 17 10 0 12 -1 12 -20 0z"/>
<path d="M4090 628 c0 -37 7 -34 14 5 2 15 0 27 -5 27 -5 0 -9 -14 -9 -32z"/>
<path d="M4268 590 c-2 -39 0 -70 5 -70 4 0 7 17 8 38 0 20 1 52 2 70 1 17 -1
32 -5 32 -3 0 -8 -32 -10 -70z"/>
<path d="M4435 650 l-60 -7 63 -1 c36 -1 62 2 62 8 0 6 -1 9 -2 8 -2 -1 -30
-4 -63 -8z"/>
<path d="M4630 635 c0 -29 -16 -34 -23 -7 -3 9 -4 -10 -4 -43 0 -38 2 -46 4
-22 5 41 19 50 26 15 2 -13 5 1 6 30 0 28 -1 52 -4 52 -3 0 -5 -11 -5 -25z"/>
<path d="M4881 593 c2 -70 6 -63 11 20 2 26 0 47 -4 47 -5 0 -7 -30 -7 -67z"/>
<path d="M4962 635 c0 -16 2 -22 5 -12 2 9 2 23 0 30 -3 6 -5 -1 -5 -18z"/>
<path d="M4998 594 c-1 -36 0 -68 5 -71 4 -2 7 28 7 66 0 39 -2 71 -4 71 -2 0
-6 -30 -8 -66z"/>
<path d="M5067 640 c-3 -11 -2 -20 3 -20 4 0 10 9 13 20 3 11 2 20 -3 20 -4 0
-10 -9 -13 -20z"/>
<path d="M5418 643 c-18 -22 -12 -53 10 -52 11 0 12 2 5 6 -18 7 -16 43 2 43
8 0 15 5 15 10 0 15 -15 12 -32 -7z"/>
<path d="M5584 653 c3 -6 3 -13 -1 -16 -5 -2 -2 -2 5 -1 14 4 16 -20 3 -44 -8
-15 -3 -17 39 -14 40 3 49 1 53 -15 4 -17 5 -17 6 0 0 10 -6 25 -14 33 -8 9
-15 11 -15 5 0 -6 -13 -11 -29 -11 -24 0 -28 3 -24 20 3 11 14 20 25 20 12 0
17 -4 12 -12 -4 -7 -3 -8 4 -4 21 13 13 26 -16 26 -15 0 -34 6 -41 13 -9 8
-12 8 -7 0z"/>
<path d="M6420 650 c0 -6 7 -10 15 -10 8 0 15 2 15 4 0 2 -7 6 -15 10 -8 3
-15 1 -15 -4z"/>
<path d="M6490 649 c0 -5 -4 -7 -10 -4 -6 3 -7 -1 -4 -10 5 -12 10 -13 20 -4
8 6 11 15 8 20 -7 12 -14 11 -14 -2z"/>
<path d="M6740 600 c0 -33 4 -60 8 -60 11 0 32 22 32 34 0 5 -7 1 -15 -10 -13
-17 -14 -15 -15 33 0 49 2 52 28 56 25 4 25 4 -5 6 l-33 1 0 -60z"/>
<path d="M6816 648 c7 -11 32 -10 39 2 3 6 -4 9 -19 8 -13 -1 -22 -6 -20 -10z"/>
<path d="M913 643 c4 -7 0 -13 -10 -16 -10 -3 -3 -5 16 -6 19 0 32 0 30 2 -2
1 -13 9 -23 17 -11 8 -17 10 -13 3z"/>
<path d="M968 627 c-3 -19 -2 -25 4 -19 6 6 8 18 6 28 -3 14 -5 12 -10 -9z"/>
<path d="M1471 642 c-1 -7 -5 -11 -9 -8 -4 2 -14 1 -22 -5 -12 -7 -9 -9 10
-10 14 -1 31 -1 38 0 16 3 43 -30 36 -41 -3 -5 0 -8 5 -8 6 0 11 7 11 15 0 8
-4 15 -10 15 -5 0 -10 7 -10 15 0 8 -9 15 -19 15 -11 0 -22 6 -24 13 -4 9 -6
9 -6 -1z"/>
<path d="M2087 636 c-4 -10 -7 -19 -7 -20 0 -1 13 -1 29 2 22 3 30 0 34 -15 4
-15 5 -14 6 5 1 17 -4 22 -23 22 -13 0 -26 5 -28 12 -3 7 -7 5 -11 -6z"/>
<path d="M2357 643 c-4 -3 -7 -15 -7 -26 0 -25 9 -17 15 12 4 22 2 25 -8 14z"/>
<path d="M2378 609 c-2 -22 0 -43 4 -45 4 -3 8 9 8 25 0 17 5 31 11 31 5 0 7
-4 4 -10 -3 -5 -1 -10 4 -10 12 0 14 11 5 34 -12 31 -32 17 -36 -25z"/>
<path d="M2440 615 c0 -19 -4 -35 -10 -35 -5 0 -10 -13 -10 -30 0 -27 3 -30
30 -30 27 0 30 3 30 30 0 20 -5 30 -15 30 -21 0 -19 28 3 33 15 4 15 5 -2 6
-12 1 -16 6 -12 16 3 8 1 15 -4 15 -6 0 -10 -16 -10 -35z m30 -65 c0 -13 -7
-20 -20 -20 -13 0 -20 7 -20 20 0 13 7 20 20 20 13 0 20 -7 20 -20z"/>
<path d="M2798 638 c-13 -3 13 -6 56 -7 44 -1 77 1 74 4 -8 8 -104 11 -130 3z"/>
<path d="M3132 588 l-2 -68 68 2 67 2 -62 3 -62 4 -4 62 -3 62 -2 -67z"/>
<path d="M3163 643 c9 -2 25 -2 35 0 9 3 1 5 -18 5 -19 0 -27 -2 -17 -5z"/>
<path d="M3225 640 c-3 -5 -2 -10 4 -10 5 0 13 5 16 10 3 6 2 10 -4 10 -5 0
-13 -4 -16 -10z"/>
<path d="M3350 625 c0 -21 5 -25 30 -25 25 0 30 4 30 25 0 21 -5 25 -30 25
-25 0 -30 -4 -30 -25z m35 6 l-20 -8 20 -5 c18 -5 18 -6 -2 -7 -14 -1 -23 5
-23 14 0 9 9 15 23 14 21 0 21 -1 2 -8z"/>
<path d="M3477 630 c-3 -13 -4 -26 -2 -29 3 -2 5 1 5 7 0 7 5 12 10 12 21 0 9
-30 -12 -31 -17 -1 -19 -2 -5 -6 21 -6 22 -27 1 -47 -8 -9 -11 -16 -5 -16 6 0
15 9 21 21 10 17 14 18 28 7 12 -9 12 -7 -2 10 -19 22 -19 22 0 23 11 0 13 3
7 6 -7 2 -13 11 -13 18 0 7 6 16 13 18 6 3 2 6 -10 6 -12 1 -23 7 -25 13 -3 7
-7 2 -11 -12z"/>
<path d="M4058 643 c7 -3 16 -2 19 1 4 3 -2 6 -13 5 -11 0 -14 -3 -6 -6z"/>
<path d="M4138 643 c7 -3 16 -2 19 1 4 3 -2 6 -13 5 -11 0 -14 -3 -6 -6z"/>
<path d="M4561 638 c-1 -9 -7 -19 -13 -21 -10 -4 -10 -6 0 -6 6 -1 12 -11 12
-24 0 -13 -6 -29 -12 -36 -11 -10 -7 -10 16 0 15 7 23 15 17 17 -15 5 -14 42
2 42 8 0 9 3 1 8 -6 4 -14 14 -17 22 -4 12 -6 12 -6 -2z"/>
<path d="M4718 643 c7 -3 16 -2 19 1 4 3 -2 6 -13 5 -11 0 -14 -3 -6 -6z"/>
<path d="M4766 635 c-3 -8 -15 -15 -26 -15 -17 0 -20 -6 -20 -45 l0 -45 60 0
60 0 0 45 0 45 -37 0 c-36 1 -37 2 -19 15 16 12 17 15 4 15 -9 0 -18 -7 -22
-15z m-16 -60 c0 -19 -4 -35 -10 -35 -5 0 -10 16 -10 35 0 19 5 35 10 35 6 0
10 -16 10 -35z m80 0 c0 -33 -2 -35 -34 -35 -29 0 -33 3 -33 26 0 20 3 25 18
21 11 -3 19 -1 19 3 0 5 -10 11 -22 13 -14 3 -9 5 15 6 36 1 37 0 37 -34z"/>
<path d="M4929 648 c-6 -21 -5 -38 2 -38 5 0 9 9 9 20 0 16 -7 28 -11 18z"/>
<path d="M5280 641 c0 -5 7 -11 15 -15 12 -4 13 -10 3 -32 -11 -24 -13 -25
-25 -8 -7 10 -13 13 -13 8 0 -6 5 -15 11 -21 8 -8 4 -15 -12 -27 -13 -9 -19
-16 -13 -16 5 0 15 5 22 12 9 9 18 9 37 0 14 -7 31 -12 38 -12 7 1 -2 7 -20
15 -29 12 -31 16 -20 38 7 15 17 23 27 20 8 -3 2 6 -14 21 -32 28 -36 30 -36
17z"/>
<path d="M5850 641 c0 -5 10 -7 22 -3 19 5 21 2 15 -24 -3 -16 -8 -38 -11 -49
-4 -11 0 -6 8 10 31 67 30 75 -3 75 -17 0 -31 -4 -31 -9z"/>
<path d="M5931 631 c-23 -42 -1 -91 34 -77 23 8 17 90 -7 94 -9 2 -21 -6 -27
-17z m39 -31 c0 -29 -4 -40 -15 -40 -11 0 -15 11 -15 40 0 29 4 40 15 40 11 0
15 -11 15 -40z"/>
<path d="M6006 641 c-4 -5 3 -7 16 -3 17 4 20 2 15 -11 -4 -10 -2 -17 4 -17 6
0 9 8 7 17 -4 20 -33 29 -42 14z"/>
<path d="M6610 643 c14 -3 27 -9 30 -13 3 -4 11 -2 18 6 11 12 6 14 -30 13
-28 -1 -34 -3 -18 -6z"/>
<path d="M477 622 c-10 -10 -17 -32 -17 -48 0 -33 24 -73 36 -61 4 4 2 7 -4 7
-19 0 -25 58 -9 90 18 35 16 37 -6 12z"/>
<path d="M510 591 c0 -52 19 -73 47 -50 20 18 12 53 -13 57 -16 2 -20 8 -17
23 3 10 0 19 -6 19 -7 0 -11 -20 -11 -49z m50 -20 c0 -25 -20 -38 -31 -20 -15
23 -10 39 11 39 13 0 20 -7 20 -19z"/>
<path d="M595 617 c16 -25 17 -35 8 -70 -10 -37 -10 -40 3 -23 21 30 18 80 -8
102 l-21 19 18 -28z"/>
<path d="M1000 620 c0 -11 4 -20 9 -20 5 0 7 9 4 20 -3 11 -7 20 -9 20 -2 0
-4 -9 -4 -20z"/>
<path d="M1203 633 c3 -5 0 -31 -8 -56 -8 -27 -10 -47 -5 -47 6 0 10 10 10 23
0 12 5 29 10 37 7 11 10 7 10 -17 0 -39 10 -42 29 -10 13 20 13 21 -2 9 -14
-12 -16 -9 -19 24 -2 21 -9 39 -17 42 -8 3 -11 0 -8 -5z"/>
<path d="M1279 613 c-13 -14 -18 -23 -10 -18 14 8 13 -6 -4 -47 -4 -10 -3 -18
2 -18 5 0 17 25 25 55 8 30 14 55 13 55 -1 0 -12 -12 -26 -27z"/>
<path d="M1721 614 c-24 -30 -27 -54 -9 -72 10 -10 10 -15 -2 -22 -13 -8 -13
-10 2 -10 9 0 25 -2 35 -5 16 -5 16 -5 2 6 -15 11 -13 15 15 34 20 13 32 31
34 49 6 50 -43 63 -77 20z m64 5 c10 -14 -14 -66 -33 -74 -8 -3 -21 0 -28 7
-19 19 8 78 35 78 11 0 23 -5 26 -11z"/>
<path d="M1829 585 c-14 -47 -14 -55 -2 -55 8 0 12 4 9 9 -7 11 3 41 13 41 4
0 13 -12 20 -26 6 -15 14 -24 17 -21 3 3 0 15 -6 27 -10 18 -8 24 6 35 16 11
16 15 5 29 -26 31 -45 19 -62 -39z m49 28 c-5 -25 -28 -28 -28 -4 0 12 6 21
16 21 9 0 14 -7 12 -17z"/>
<path d="M3027 633 c-4 -3 -7 -26 -7 -49 0 -42 -1 -43 -37 -47 -21 -2 -4 -4
37 -4 41 0 60 2 43 4 -32 4 -33 6 -33 48 0 40 2 44 28 48 l27 4 -26 2 c-14 0
-29 -2 -32 -6z"/>
<path d="M3540 586 c0 -54 1 -57 23 -54 19 3 22 10 25 56 2 28 -1 52 -5 52 -4
0 -6 -22 -5 -50 3 -41 1 -50 -13 -50 -13 0 -16 8 -14 45 2 24 0 47 -4 51 -4 4
-7 -18 -7 -50z"/>
<path d="M3758 590 c-14 -43 -14 -50 -1 -50 8 0 12 4 9 9 -10 16 5 41 24 41
21 0 44 25 35 40 -11 18 -23 11 -18 -10 4 -14 0 -20 -12 -20 -12 0 -16 6 -12
20 11 43 -10 17 -25 -30z"/>
<path d="M3849 590 c-12 -40 -13 -50 -2 -50 7 0 13 11 13 25 0 14 4 25 10 25
5 0 12 -11 16 -25 3 -14 13 -25 23 -25 10 0 12 3 5 8 -6 4 -14 17 -18 30 -4
12 -12 22 -17 22 -6 0 -7 9 -4 20 3 11 3 20 -2 20 -4 0 -15 -23 -24 -50z"/>
<path d="M3897 619 c4 -13 9 -17 15 -11 11 11 3 32 -12 32 -4 0 -6 -9 -3 -21z"/>
<path d="M4309 623 c-13 -16 -12 -17 4 -4 9 7 17 15 17 17 0 8 -8 3 -21 -13z"/>
<path d="M5143 633 c9 -2 25 -2 35 0 9 3 1 5 -18 5 -19 0 -27 -2 -17 -5z"/>
<path d="M6781 618 c0 -16 2 -18 6 -8 3 8 11 18 17 22 7 5 4 8 -6 8 -12 0 -18
-7 -17 -22z"/>
<path d="M2024 615 c-3 -7 -4 -30 -1 -51 l4 -39 1 43 c1 29 6 42 16 42 11 0
14 -11 13 -40 -2 -22 0 -40 4 -40 9 0 16 65 9 82 -7 17 -40 20 -46 3z"/>
<path d="M2190 596 c0 -20 5 -36 10 -36 6 0 10 11 10 25 0 23 4 25 44 25 38 0
45 -3 49 -22 4 -20 4 -19 6 5 1 26 -1 27 -43 27 -24 0 -51 3 -60 6 -13 5 -16
-1 -16 -30z"/>
<path d="M3161 593 c1 -21 3 -30 6 -21 2 9 16 19 31 21 l27 4 -27 2 c-34 1
-37 18 -5 24 19 4 18 4 -5 6 -26 1 -28 -2 -27 -36z"/>
<path d="M3307 604 c-14 -19 -15 -24 -4 -24 8 0 17 10 20 22 8 30 5 30 -16 2z"/>
<path d="M4396 617 c3 -10 9 -15 12 -12 3 3 0 11 -7 18 -10 9 -11 8 -5 -6z"/>
<path d="M4471 608 c-14 -23 -14 -23 8 -4 22 20 25 26 13 26 -4 0 -13 -10 -21
-22z"/>
<path d="M4656 622 c-2 -4 -1 -14 5 -22 7 -12 9 -10 9 8 0 23 -5 28 -14 14z"/>
<path d="M5096 598 c2 -17 -1 -37 -7 -45 -9 -10 -8 -13 6 -13 14 0 16 6 13 31
-3 21 0 33 9 36 12 5 12 7 1 14 -22 14 -26 10 -22 -23z"/>
<path d="M5455 620 c-3 -5 -1 -10 4 -10 6 0 11 5 11 10 0 6 -2 10 -4 10 -3 0
-8 -4 -11 -10z"/>
<path d="M5495 620 c3 -5 10 -10 16 -10 5 0 9 5 9 10 0 6 -7 10 -16 10 -8 0
-12 -4 -9 -10z"/>
<path d="M6501 608 c-10 -15 -15 -18 -21 -8 -5 8 -9 9 -14 1 -4 -6 -2 -11 4
-11 6 0 8 -6 4 -12 -4 -7 6 -1 22 14 15 15 26 30 23 32 -3 3 -11 -4 -18 -16z"/>
<path d="M2826 604 c-4 -9 -4 -19 -1 -22 2 -3 7 3 11 12 4 9 4 19 1 22 -2 3
-7 -3 -11 -12z"/>
<path d="M2870 611 c0 -7 -6 -19 -14 -26 -8 -9 -11 -24 -8 -42 6 -28 6 -28 10
-3 1 14 8 35 14 47 6 13 8 26 5 30 -4 3 -7 1 -7 -6z"/>
<path d="M4058 613 c7 -3 16 -2 19 1 4 3 -2 6 -13 5 -11 0 -14 -3 -6 -6z"/>
<path d="M4145 595 c2 -16 -2 -25 -11 -25 -8 0 -14 5 -14 11 0 5 -4 7 -10 4
-22 -14 -8 -25 33 -24 23 0 36 3 30 6 -7 2 -13 16 -13 29 0 13 -4 24 -9 24 -4
0 -7 -11 -6 -25z"/>
<path d="M4246 603 c-4 -11 -15 -29 -27 -41 -11 -12 -15 -22 -10 -22 12 0 55
69 48 76 -3 3 -8 -3 -11 -13z"/>
<path d="M6418 613 c6 -2 18 -2 25 0 6 3 1 5 -13 5 -14 0 -19 -2 -12 -5z"/>
<path d="M908 603 c6 -2 18 -2 25 0 6 3 1 5 -13 5 -14 0 -19 -2 -12 -5z"/>
<path d="M1452 576 c-11 -30 -11 -31 6 -10 10 11 24 23 32 26 10 3 9 6 -6 10
-16 4 -23 -1 -32 -26z"/>
<path d="M5170 573 c-3 -23 -2 -39 3 -34 5 5 7 24 5 42 -3 33 -4 33 -8 -8z"/>
<path d="M6195 601 c-7 -12 12 -24 25 -16 6 3 10 12 9 18 0 9 -2 9 -6 0 -2 -7
-9 -13 -14 -13 -6 0 -7 5 -4 10 3 6 4 10 1 10 -3 0 -7 -4 -11 -9z"/>
<path d="M6823 575 c0 -22 2 -30 4 -17 2 12 2 30 0 40 -3 9 -5 -1 -4 -23z"/>
<path d="M2579 591 c11 -7 11 -9 0 -14 -10 -4 -9 -6 4 -6 9 -1 17 6 17 14 0 8
-8 15 -17 15 -14 0 -15 -2 -4 -9z"/>
<path d="M4967 593 c-4 -3 -7 -18 -7 -31 0 -31 12 -21 16 13 3 26 1 29 -9 18z"/>
<path d="M6490 561 c-28 -29 -30 -33 -9 -19 24 16 27 16 43 0 16 -16 17 -16
10 1 -3 9 -11 17 -16 17 -6 0 -5 7 2 15 26 31 4 21 -30 -14z"/>
<path d="M2100 581 c0 -6 4 -13 10 -16 6 -3 7 1 4 9 -7 18 -14 21 -14 7z"/>
<path d="M3388 555 c-2 -19 0 -35 4 -35 4 0 8 8 9 18 0 9 2 25 4 35 2 9 0 17
-5 17 -4 0 -10 -16 -12 -35z"/>
<path d="M4080 581 c0 -5 -10 -12 -22 -14 -20 -4 -19 -4 5 -6 18 -1 27 4 27
14 0 8 -2 15 -5 15 -3 0 -5 -4 -5 -9z"/>
<path d="M4310 565 c13 -14 26 -25 28 -25 3 0 -5 11 -18 25 -13 14 -26 25 -28
25 -3 0 5 -11 18 -25z"/>
<path d="M4410 579 c-26 -5 -18 -7 34 -8 38 0 66 2 63 6 -9 8 -54 9 -97 2z"/>
<path d="M4922 565 c0 -16 2 -22 5 -12 2 9 2 23 0 30 -3 6 -5 -1 -5 -18z"/>
<path d="M970 561 c10 -19 9 -25 -1 -32 -23 -14 -29 -10 -30 19 -2 23 -2 24
-6 5 -2 -13 -8 -23 -13 -23 -5 0 -11 10 -13 23 -4 20 -4 19 -6 -4 -1 -22 4
-28 26 -32 15 -3 35 -1 43 3 8 4 26 7 40 5 14 -1 17 0 7 2 -11 3 -16 10 -13
19 3 9 2 12 -5 9 -6 -4 -17 1 -25 11 -14 18 -14 17 -4 -5z"/>
<path d="M2245 570 c-3 -5 -1 -10 4 -10 6 0 11 5 11 10 0 6 -2 10 -4 10 -3 0
-8 -4 -11 -10z"/>
<path d="M5401 553 c-10 -26 -10 -27 4 -9 8 11 15 23 15 28 0 15 -7 8 -19 -19z"/>
<path d="M5508 575 c-4 -4 -4 -13 -2 -20 3 -7 -3 -15 -13 -18 -17 -4 -17 -5 0
-6 10 0 20 6 23 14 7 17 1 39 -8 30z"/>
<path d="M6412 555 c0 -16 2 -22 5 -12 2 9 2 23 0 30 -3 6 -5 -1 -5 -18z"/>
<path d="M6437 560 c3 -11 7 -20 9 -20 2 0 4 9 4 20 0 11 -4 20 -9 20 -5 0 -7
-9 -4 -20z"/>
<path d="M3312 545 c0 -16 2 -22 5 -12 2 9 2 23 0 30 -3 6 -5 -1 -5 -18z"/>
<path d="M2130 546 c0 -8 -8 -17 -17 -19 -14 -4 -12 -5 5 -6 16 -1 22 5 22 19
0 11 -2 20 -5 20 -3 0 -5 -6 -5 -14z"/>
<path d="M3350 550 c0 -5 5 -10 11 -10 5 0 7 5 4 10 -3 6 -8 10 -11 10 -2 0
-4 -4 -4 -10z"/>
<path d="M4671 544 c0 -11 3 -14 6 -6 3 7 2 16 -1 19 -3 4 -6 -2 -5 -13z"/>
<path d="M1532 535 c-11 -12 -10 -15 3 -15 8 0 15 7 15 15 0 18 -2 18 -18 0z"/>
<path d="M2804 534 c-18 -14 -18 -15 4 -4 12 6 22 13 22 15 0 8 -5 6 -26 -11z"/>
<path d="M2890 540 c8 -5 20 -10 25 -10 6 0 3 5 -5 10 -8 5 -19 10 -25 10 -5
0 -3 -5 5 -10z"/>
<path d="M4065 540 c-3 -5 -2 -10 4 -10 5 0 13 5 16 10 3 6 2 10 -4 10 -5 0
-13 -4 -16 -10z"/>
<path d="M4130 546 c0 -2 7 -7 16 -10 8 -3 12 -2 9 4 -6 10 -25 14 -25 6z"/>
<path d="M6603 543 c20 -2 54 -2 75 0 20 2 3 4 -38 4 -41 0 -58 -2 -37 -4z"/>
<path d="M5658 533 c7 -3 16 -2 19 1 4 3 -2 6 -13 5 -11 0 -14 -3 -6 -6z"/>
<path d="M4628 523 c6 -2 18 -2 25 0 6 3 1 5 -13 5 -14 0 -19 -2 -12 -5z"/>
<path d="M6341 447 c-13 -21 -12 -21 5 -5 10 10 16 20 13 22 -3 3 -11 -5 -18
-17z"/>
<path d="M6410 459 c0 -4 -10 -5 -22 -3 -21 4 -21 4 -3 -4 19 -9 18 -11 -12
-39 l-31 -30 43 7 c24 4 51 3 59 -2 10 -6 16 -5 16 2 0 5 -6 10 -13 10 -8 0
-22 9 -32 20 -19 21 -15 26 35 32 22 3 21 4 -7 9 -18 3 -33 2 -33 -2z m0 -49
c0 -5 -7 -10 -16 -10 -8 0 -12 5 -9 10 3 6 10 10 16 10 5 0 9 -4 9 -10z"/>
<path d="M6560 459 c0 -5 11 -9 25 -9 14 0 25 2 25 4 0 2 -11 6 -25 8 -14 3
-25 1 -25 -3z"/>
<path d="M2843 453 c5 -8 -5 -13 -30 -16 -21 -2 -4 -4 37 -4 41 0 62 2 45 4
-16 3 -36 10 -44 16 -11 9 -13 9 -8 0z"/>
<path d="M2997 442 c-10 -10 -17 -34 -17 -53 l0 -34 50 3 c51 4 60 -3 38 -27
-11 -11 -10 -13 2 -9 18 6 28 98 10 98 -6 0 -8 -4 -5 -10 4 -6 -11 -10 -39
-10 -35 0 -44 3 -42 16 1 8 9 19 16 24 8 5 12 11 9 15 -3 3 -13 -3 -22 -13z
m78 -62 c4 -6 -12 -10 -39 -10 -25 0 -46 5 -46 10 0 6 18 10 39 10 22 0 43 -4
46 -10z"/>
<path d="M3408 455 c-3 -6 -4 -18 -3 -27 4 -21 -11 -24 -18 -5 -4 9 -6 9 -6
-1 -1 -7 -5 -11 -10 -7 -5 3 -12 1 -16 -5 -4 -6 8 -10 29 -10 31 0 36 -3 36
-24 0 -31 -15 -40 -59 -37 -19 1 -33 0 -30 -3 3 -3 25 -7 49 -8 42 -3 44 -2
47 27 4 36 -10 114 -19 100z"/>
<path d="M4155 450 c3 -5 -3 -10 -12 -12 -15 -3 -15 -5 -3 -9 8 -3 25 -3 37 0
l22 6 -24 12 c-14 6 -23 7 -20 3z"/>
<path d="M4300 450 c0 -5 5 -10 11 -10 5 0 7 5 4 10 -3 6 -8 10 -11 10 -2 0
-4 -4 -4 -10z"/>
<path d="M4426 453 c-15 -4 -16 -7 -5 -14 11 -6 11 -14 2 -39 -6 -16 -7 -28
-2 -24 5 3 9 -9 9 -27 0 -57 10 -24 11 37 1 32 7 62 13 66 12 8 2 8 -28 1z"/>
<path d="M4598 425 c-2 -19 0 -35 4 -35 8 0 11 14 6 25 -2 3 4 10 12 15 11 7
11 10 2 10 -7 0 -10 5 -7 10 3 6 2 10 -3 10 -6 0 -12 -16 -14 -35z"/>
<path d="M4678 435 c2 -14 6 -25 8 -25 2 0 4 11 4 25 0 14 -4 25 -9 25 -4 0
-6 -11 -3 -25z"/>
<path d="M5155 446 c-17 -12 -17 -13 3 -11 26 2 37 11 24 19 -5 3 -17 -1 -27
-8z"/>
<path d="M5328 450 c26 -11 28 -23 7 -40 -8 -7 -15 -17 -15 -23 0 -5 9 2 21
17 17 21 19 29 9 41 -7 8 -20 15 -29 14 -11 0 -9 -3 7 -9z"/>
<path d="M5503 453 c4 -7 0 -13 -10 -16 -10 -3 -3 -5 16 -6 19 0 32 0 30 2 -2
1 -13 9 -23 17 -11 8 -17 10 -13 3z"/>
<path d="M5665 443 c-12 -21 -8 -103 4 -84 11 18 79 4 84 -18 4 -15 5 -15 6 1
0 9 11 19 24 21 l22 4 -23 2 c-13 0 -21 5 -17 10 3 5 1 12 -5 16 -5 3 -10 -1
-10 -9 0 -17 -17 -20 -44 -10 -18 7 -22 44 -5 44 5 0 7 -5 3 -12 -4 -7 -3 -8
4 -4 18 11 14 26 -7 26 -14 0 -21 -9 -24 -27 -4 -21 -4 -19 -3 7 1 23 5 34 14
32 8 -1 11 2 7 8 -9 15 -19 12 -30 -7z"/>
<path d="M5753 453 c20 -3 27 -9 23 -19 -3 -8 -1 -14 4 -14 6 0 10 9 10 20 0
16 -6 20 -32 19 -32 -2 -32 -2 -5 -6z"/>
<path d="M5838 453 c6 -3 12 -14 11 -26 0 -21 -1 -21 -9 -2 -6 15 -8 11 -7
-16 1 -21 5 -35 10 -32 4 2 8 -8 8 -24 l1 -28 7 30 c4 17 6 46 3 65 -4 29 -2
33 9 23 7 -7 22 -13 34 -13 18 -1 19 -2 3 -14 -15 -11 -16 -15 -3 -34 14 -19
13 -21 -7 -25 -20 -4 -19 -4 5 -6 17 -1 27 4 27 13 0 8 7 22 16 30 14 15 14
16 0 16 -9 0 -16 5 -16 10 0 6 7 10 15 10 8 0 15 7 15 15 0 11 -14 14 -67 13
-38 -1 -62 -3 -55 -5z m85 -10 c-7 -2 -19 -2 -25 0 -7 3 -2 5 12 5 14 0 19 -2
13 -5z m7 -53 c0 -5 -4 -10 -10 -10 -5 0 -10 5 -10 10 0 6 5 10 10 10 6 0 10
-4 10 -10z"/>
<path d="M6008 429 c-10 -17 -13 -27 -8 -24 6 4 11 -12 12 -37 1 -35 2 -31 8
22 3 36 6 66 5 67 0 1 -8 -12 -17 -28z"/>
<path d="M6042 433 c-9 -20 -9 -24 0 -15 28 28 41 14 36 -38 -3 -27 -1 -47 4
-44 4 3 8 26 8 51 0 36 3 44 15 40 8 -4 17 -2 20 3 4 6 -9 10 -29 10 -19 0
-36 4 -38 10 -1 5 -9 -3 -16 -17z"/>
<path d="M6178 446 c-25 -19 -22 -24 8 -18 20 4 25 1 22 -9 -3 -8 -13 -13 -22
-13 -9 1 -16 -2 -16 -7 0 -5 9 -9 20 -9 11 0 20 -7 20 -15 0 -18 -36 -20 -43
-2 -4 7 -6 6 -6 -4 -1 -11 9 -18 29 -21 28 -4 30 -2 30 26 0 17 7 40 15 50 8
11 15 25 15 30 -1 6 -7 0 -15 -14 -8 -14 -14 -19 -15 -12 0 6 -7 12 -16 12 -8
0 -12 5 -9 10 8 13 4 12 -17 -4z"/>
<path d="M6506 443 c-6 -14 -5 -15 5 -6 7 7 10 15 7 18 -3 3 -9 -2 -12 -12z"/>
<path d="M6616 443 c-6 -14 -5 -15 5 -6 7 7 10 15 7 18 -3 3 -9 -2 -12 -12z"/>
<path d="M950 440 c-12 -8 -10 -10 8 -10 13 0 20 4 17 10 -7 12 -6 12 -25 0z"/>
<path d="M1080 440 c-13 -8 -13 -10 2 -10 9 0 20 5 23 10 8 13 -5 13 -25 0z"/>
<path d="M1138 443 c-21 -5 -23 -19 -6 -29 7 -4 8 -3 4 4 -4 7 -2 12 3 12 6 0
11 -11 11 -25 0 -14 -5 -25 -11 -25 -5 0 -7 5 -4 10 3 6 1 10 -4 10 -6 0 -11
-20 -11 -47 0 -49 8 -56 12 -10 2 25 18 40 18 17 0 -5 4 -10 8 -10 5 0 6 20 2
45 -6 39 -5 44 14 48 20 4 20 4 1 4 -11 1 -28 -1 -37 -4z"/>
<path d="M1625 438 c-2 -7 -5 -30 -7 -50 -4 -35 -2 -38 22 -37 16 1 19 3 8 6
-10 2 -18 9 -18 15 0 5 8 7 18 4 14 -5 13 -3 -3 9 -16 13 -17 17 -6 24 11 7
11 9 0 14 -12 4 -11 7 1 16 11 8 11 11 2 11 -7 0 -14 -6 -17 -12z"/>
<path d="M1660 429 c0 -10 6 -19 14 -19 8 0 17 -6 19 -12 3 -8 6 -6 6 5 1 10
-6 17 -16 18 -16 0 -15 1 1 8 19 7 19 8 -2 13 -17 5 -22 2 -22 -13z"/>
<path d="M1725 441 c-3 -6 -3 -11 2 -11 4 0 1 -5 -7 -10 -10 -7 -11 -10 -2
-10 7 0 15 7 19 15 7 19 -2 31 -12 16z"/>
<path d="M1977 443 c32 -4 32 -5 32 -59 -1 -30 2 -58 5 -61 3 -4 6 21 6 55 0
59 1 61 28 65 15 2 -2 4 -38 4 -36 0 -51 -2 -33 -4z"/>
<path d="M2132 403 c-1 -33 -6 -53 -14 -53 -6 0 -9 -3 -5 -6 3 -3 11 -2 19 3
9 6 11 22 7 58 l-6 50 -1 -52z"/>
<path d="M2282 444 c8 -7 118 -7 126 0 3 3 -25 6 -63 6 -38 0 -66 -3 -63 -6z"/>
<path d="M2452 383 c1 -60 2 -62 5 -18 3 27 10 53 16 57 9 6 9 8 -1 8 -7 0
-10 5 -7 10 3 6 1 10 -4 10 -7 0 -10 -26 -9 -67z"/>
<path d="M2570 391 c0 -38 -4 -61 -12 -64 -8 -3 -6 -6 5 -6 14 -1 17 8 17 64
0 36 -2 65 -5 65 -3 0 -5 -27 -5 -59z"/>
<path d="M2633 434 c-7 -7 -13 -32 -13 -56 0 -39 2 -43 25 -43 23 0 25 3 25
49 0 27 -3 47 -6 43 -3 -3 -6 -22 -6 -41 0 -24 -5 -36 -14 -36 -17 0 -20 66
-2 72 6 2 9 9 7 15 -3 7 -8 7 -16 -3z"/>
<path d="M2687 431 c-4 -17 -3 -21 5 -13 5 5 8 16 6 23 -3 8 -7 3 -11 -10z"/>
<path d="M3035 441 c3 -6 -3 -14 -12 -20 -11 -6 -13 -11 -5 -11 13 0 42 23 42
34 0 3 -7 6 -16 6 -8 0 -13 -4 -9 -9z"/>
<path d="M3205 440 c3 -5 8 -10 11 -10 2 0 4 5 4 10 0 6 -5 10 -11 10 -5 0 -7
-4 -4 -10z"/>
<path d="M3245 440 c4 -6 1 -17 -5 -25 -7 -9 -8 -15 -2 -15 10 0 22 23 22 41
0 5 -5 9 -11 9 -5 0 -7 -5 -4 -10z"/>
<path d="M4079 439 c-10 -6 -7 -9 14 -9 29 0 35 5 14 13 -8 3 -20 1 -28 -4z"/>
<path d="M4246 433 c-6 -14 -5 -15 5 -6 7 7 10 15 7 18 -3 3 -9 -2 -12 -12z"/>
<path d="M4483 444 c20 -6 23 -34 3 -34 -16 0 -26 -49 -15 -76 5 -13 8 -6 8
24 1 23 6 42 12 42 5 0 8 -4 5 -8 -2 -4 0 -14 5 -22 7 -11 9 -1 7 30 -2 36 -7
45 -23 47 -16 1 -16 1 -2 -3z"/>
<path d="M4795 422 c-14 -19 -14 -23 -3 -14 14 12 17 10 20 -15 3 -23 5 -20 9
15 5 49 1 51 -26 14z"/>
<path d="M4953 443 l39 -4 -4 -55 c-3 -49 -1 -54 17 -53 11 0 14 3 8 6 -18 7
-16 53 1 53 8 0 17 4 20 9 4 5 -3 7 -14 4 -15 -4 -20 0 -20 15 0 11 6 23 13
25 6 3 -13 5 -43 5 -42 -1 -46 -2 -17 -5z"/>
<path d="M5098 418 c-3 -18 -2 -44 3 -58 6 -19 7 -14 8 27 1 31 6 53 14 56 7
4 6 6 -4 6 -11 1 -18 -9 -21 -31z"/>
<path d="M5291 434 c0 -11 3 -14 6 -6 3 7 2 16 -1 19 -3 4 -6 -2 -5 -13z"/>
<path d="M6285 439 c4 -6 4 -31 0 -55 -5 -37 -10 -44 -23 -39 -14 5 -15 4 -4
-6 19 -20 32 0 39 59 4 37 2 52 -6 52 -7 0 -9 -5 -6 -11z"/>
<path d="M905 429 c-11 -16 -1 -19 13 -3 7 8 8 14 3 14 -5 0 -13 -5 -16 -11z"/>
<path d="M1010 430 c10 -6 -2 -10 -40 -13 l-55 -4 54 1 c34 1 56 6 59 14 2 6
-4 12 -15 12 -15 0 -15 -2 -3 -10z"/>
<path d="M1333 434 c3 -3 0 -26 -8 -50 -13 -44 -4 -64 10 -21 4 12 8 25 10 30
1 4 3 14 4 22 0 8 8 15 17 15 11 0 15 -6 11 -20 -6 -24 8 -27 17 -4 9 24 -2
34 -36 34 -17 0 -29 -3 -25 -6z"/>
<path d="M1430 428 c0 -7 6 -30 14 -52 l13 -38 22 33 c20 30 20 31 2 11 l-21
-24 -6 41 c-6 37 -24 59 -24 29z"/>
<path d="M1516 428 c-20 -72 -23 -88 -16 -88 4 0 11 17 15 38 4 20 11 43 17
50 7 8 7 12 -1 12 -6 0 -13 -6 -15 -12z"/>
<path d="M2171 423 c0 -12 -7 -24 -13 -26 -10 -4 -10 -6 0 -6 7 -1 12 -15 12
-36 0 -34 1 -35 40 -35 32 0 40 4 39 18 0 10 -3 12 -6 5 -2 -7 -18 -13 -34
-13 -26 0 -29 3 -29 34 0 24 5 36 18 39 15 4 15 5 0 6 -9 0 -19 9 -21 19 -4
13 -5 12 -6 -5z"/>
<path d="M2743 395 c0 -27 2 -38 4 -22 2 15 2 37 0 50 -2 12 -4 0 -4 -28z"/>
<path d="M3150 430 c0 -13 11 -13 30 0 12 8 11 10 -7 10 -13 0 -23 -4 -23 -10z"/>
<path d="M3588 415 c-22 -29 -23 -45 -3 -45 8 0 15 -5 15 -10 0 -6 6 -5 14 2
8 7 10 15 6 18 -5 3 -10 17 -12 32 l-3 26 -17 -23z m8 -32 c-10 -10 -19 5 -10
18 6 11 8 11 12 0 2 -7 1 -15 -2 -18z"/>
<path d="M3644 415 c-8 -34 3 -75 21 -75 21 0 39 43 31 74 -9 35 -43 35 -52 1z
m36 -25 c0 -22 -4 -40 -10 -40 -12 0 -24 45 -16 65 11 29 26 15 26 -25z"/>
<path d="M3733 434 c20 -6 23 -21 5 -27 -8 -2 -7 -3 2 -3 22 2 18 30 -5 33
-16 1 -16 1 -2 -3z"/>
<path d="M4350 430 c-9 -6 -10 -10 -3 -10 6 0 15 5 18 10 8 12 4 12 -15 0z"/>
<path d="M5580 430 c-9 -6 -10 -10 -3 -10 6 0 14 -10 16 -22 3 -17 5 -14 6 10
1 36 2 35 -19 22z"/>
<path d="M5732 411 c-6 -17 -9 -31 -6 -31 7 0 25 52 20 57 -2 2 -8 -10 -14
-26z"/>
<path d="M6536 431 c-19 -7 -19 -8 -1 -15 16 -6 17 -9 5 -16 -18 -12 -2 -12
25 0 17 7 17 9 3 9 -11 1 -15 6 -12 16 7 17 7 17 -20 6z"/>
<path d="M1880 420 c-9 -6 -10 -10 -3 -10 6 0 15 5 18 10 8 12 4 12 -15 0z"/>
<path d="M2046 414 c-9 -24 -2 -26 12 -4 7 11 8 20 3 20 -5 0 -12 -7 -15 -16z"/>
<path d="M2491 414 c0 -11 3 -14 6 -6 3 7 2 16 -1 19 -3 4 -6 -2 -5 -13z"/>
<path d="M2530 420 c0 -5 7 -7 15 -4 8 4 15 8 15 10 0 2 -7 4 -15 4 -8 0 -15
-4 -15 -10z"/>
<path d="M4830 426 c0 -3 14 -12 30 -21 17 -9 30 -13 30 -11 0 3 -13 12 -30
21 -16 9 -30 13 -30 11z"/>
<path d="M5157 415 c-6 -13 -2 -54 6 -61 2 -2 3 14 3 36 0 44 -1 47 -9 25z"/>
<path d="M5180 386 c0 -26 -5 -46 -12 -49 -7 -3 5 -5 27 -5 22 0 30 3 18 5
-27 5 -31 39 -5 46 15 4 15 5 -2 6 -12 1 -16 6 -13 16 4 8 2 17 -3 20 -6 4
-10 -13 -10 -39z"/>
<path d="M1075 388 c0 -20 6 -33 15 -35 8 -1 10 0 3 3 -7 3 -9 12 -6 20 3 7
10 11 17 7 6 -4 6 0 -2 9 -10 13 -10 17 0 21 7 3 4 6 -7 6 -16 1 -20 -5 -20
-31z"/>
<path d="M1970 411 c0 -5 5 -13 10 -16 6 -3 10 -2 10 4 0 5 -4 13 -10 16 -5 3
-10 2 -10 -4z"/>
<path d="M2226 405 c4 -8 7 -15 9 -15 2 0 5 7 9 15 3 9 0 15 -9 15 -9 0 -12
-6 -9 -15z"/>
<path d="M2292 368 l2 -53 3 48 c5 58 22 62 24 5 2 -30 3 -35 6 -15 2 15 10
27 18 27 8 0 16 -12 18 -27 3 -20 4 -15 6 15 1 31 5 42 17 42 13 0 15 -9 12
-45 -2 -25 0 -45 4 -45 5 0 8 23 8 50 0 49 -1 50 -30 50 -22 0 -28 -4 -24 -15
4 -10 0 -15 -11 -15 -11 0 -15 5 -11 15 4 11 -1 15 -19 15 -24 0 -25 -3 -23
-52z"/>
<path d="M2809 403 c-13 -16 -12 -17 4 -4 16 13 21 21 13 21 -2 0 -10 -8 -17
-17z"/>
<path d="M2880 416 c0 -2 7 -9 15 -16 9 -7 15 -8 15 -2 0 5 -7 12 -15 16 -8 3
-15 4 -15 2z"/>
<path d="M3175 410 l-30 -8 27 -1 c15 0 30 4 33 9 3 6 5 9 3 9 -2 -1 -16 -5
-33 -9z"/>
<path d="M3312 390 c8 -23 7 -35 -3 -48 -13 -15 -12 -16 3 -3 20 15 21 81 1
81 -9 0 -9 -8 -1 -30z"/>
<path d="M4088 413 c6 -2 18 -2 25 0 6 3 1 5 -13 5 -14 0 -19 -2 -12 -5z"/>
<path d="M4175 410 c-4 -6 -14 -9 -22 -8 -9 2 -18 -3 -20 -10 -3 -8 1 -10 14
-5 16 6 16 5 4 -10 -7 -9 -11 -17 -8 -17 3 0 15 14 27 30 12 17 19 30 16 30
-3 0 -8 -5 -11 -10z"/>
<path d="M4953 380 c0 -25 2 -35 4 -22 2 12 2 32 0 45 -2 12 -4 2 -4 -23z"/>
<path d="M5503 413 c9 -2 23 -2 30 0 6 3 -1 5 -18 5 -16 0 -22 -2 -12 -5z"/>
<path d="M6715 411 c-7 -12 12 -24 25 -16 11 7 4 25 -10 25 -5 0 -11 -4 -15
-9z"/>
<path d="M1802 372 l-23 -37 26 28 c14 15 25 32 25 38 0 14 -3 11 -28 -29z"/>
<path d="M1850 406 c0 -13 53 -77 59 -71 3 3 1 9 -5 13 -5 4 -20 20 -32 36
-12 16 -22 26 -22 22z"/>
<path d="M3912 396 c7 -8 15 -12 17 -11 5 6 -10 25 -20 25 -5 0 -4 -6 3 -14z"/>
<path d="M4270 376 c0 -19 -6 -37 -12 -39 -8 -3 -6 -6 5 -6 10 -1 17 6 17 18
0 11 8 22 18 24 15 4 15 5 -2 6 -12 1 -16 6 -12 16 3 8 1 15 -4 15 -6 0 -10
-15 -10 -34z"/>
<path d="M4339 408 c-6 -15 -4 -58 3 -58 4 0 8 14 8 30 0 24 -6 40 -11 28z"/>
<path d="M4528 379 c3 -20 0 -34 -9 -40 -11 -7 -11 -9 3 -9 18 0 26 23 20 58
-7 34 -19 26 -14 -9z"/>
<path d="M6240 406 c0 -2 7 -9 15 -16 13 -11 14 -10 9 4 -5 14 -24 23 -24 12z"/>
<path d="M990 380 c0 -11 2 -20 4 -20 2 0 6 9 9 20 3 11 1 20 -4 20 -5 0 -9
-9 -9 -20z"/>
<path d="M1181 368 c-1 -20 -7 -39 -13 -41 -8 -4 -7 -6 3 -6 20 -1 28 25 18
59 -6 22 -7 20 -8 -12z"/>
<path d="M2835 385 c4 -11 8 -25 8 -32 0 -7 4 -10 8 -7 5 3 20 -3 34 -12 14
-9 28 -14 32 -11 3 4 -7 11 -22 17 -23 9 -26 14 -20 38 6 25 5 26 -8 8 -14
-19 -14 -19 -26 0 -12 18 -12 18 -6 -1z"/>
<path d="M4639 379 c12 -13 27 -19 43 -16 21 4 21 4 -4 6 -41 2 -34 19 10 24
30 3 27 4 -16 5 l-53 2 20 -21z"/>
<path d="M5132 370 c0 -19 2 -27 5 -17 2 9 2 25 0 35 -3 9 -5 1 -5 -18z"/>
<path d="M5533 393 c19 -3 27 -10 27 -24 0 -10 -5 -19 -12 -19 -6 0 -9 -2 -6
-5 13 -14 35 8 30 31 -4 20 -10 24 -36 23 -30 -2 -30 -2 -3 -6z"/>
<path d="M6111 380 c14 -31 19 -36 19 -24 0 6 -7 19 -16 30 -14 18 -14 18 -3
-6z"/>
<path d="M1421 383 c-1 -6 -4 -20 -7 -30 -5 -17 -5 -17 6 0 6 10 9 23 6 30 -3
9 -5 9 -5 0z"/>
<path d="M1716 375 c4 -9 0 -15 -10 -15 -9 0 -16 5 -16 11 0 5 -4 7 -10 4 -21
-13 -9 -25 24 -25 29 0 33 3 29 20 -3 11 -9 20 -14 20 -5 0 -6 -7 -3 -15z"/>
<path d="M2480 365 c0 -22 4 -25 33 -24 l32 1 -30 8 c-30 8 -30 8 -4 9 15 0
29 8 33 16 4 12 -3 15 -29 15 -31 0 -35 -3 -35 -25z m43 8 c-7 -2 -19 -2 -25
0 -7 3 -2 5 12 5 14 0 19 -2 13 -5z"/>
<path d="M3128 360 c-3 -23 -2 -27 8 -19 8 7 14 7 19 -1 3 -5 11 -10 17 -10 6
0 1 9 -11 19 -13 11 -20 25 -16 30 3 6 2 11 -3 11 -5 0 -12 -13 -14 -30z"/>
<path d="M3385 381 l20 -8 -20 -6 c-18 -5 -18 -6 -1 -4 29 3 32 27 4 26 -21 0
-22 -1 -3 -8z"/>
<path d="M4164 358 c-16 -18 -21 -26 -11 -19 14 11 20 11 35 0 15 -13 16 -12
3 4 -11 14 -11 20 -1 32 23 28 4 15 -26 -17z"/>
<path d="M6530 380 l-35 -7 32 -2 c21 -1 33 -7 36 -18 3 -11 5 -7 6 10 0 15 0
26 -1 26 -2 -1 -19 -5 -38 -9z"/>
<path d="M1958 373 c6 -2 18 -2 25 0 6 3 1 5 -13 5 -14 0 -19 -2 -12 -5z"/>
<path d="M2058 373 c7 -3 16 -2 19 1 4 3 -2 6 -13 5 -11 0 -14 -3 -6 -6z"/>
<path d="M3168 373 c7 -3 16 -2 19 1 4 3 -2 6 -13 5 -11 0 -14 -3 -6 -6z"/>
<path d="M4110 356 c0 -14 4 -27 8 -30 5 -3 6 8 4 25 -5 35 -12 38 -12 5z"/>
<path d="M4597 347 c-19 -32 -19 -32 1 -14 13 12 22 15 27 8 3 -6 13 -11 21
-11 8 0 12 5 9 10 -4 6 -11 8 -16 5 -5 -4 -13 3 -17 14 -7 19 -9 18 -25 -12z"/>
<path d="M4770 355 c0 -23 4 -25 48 -25 44 0 47 2 47 25 0 14 -5 25 -12 25 -6
0 -9 -9 -6 -20 5 -17 0 -20 -31 -20 -36 0 -51 22 -23 33 7 3 5 6 -5 6 -13 1
-18 -7 -18 -24z"/>
<path d="M6036 363 c-6 -14 -5 -15 5 -6 7 7 10 15 7 18 -3 3 -9 -2 -12 -12z"/>
<path d="M6361 353 c2 -24 2 -25 6 -5 6 28 59 32 66 5 4 -14 5 -12 6 5 1 19
-4 22 -39 22 -37 0 -40 -2 -39 -27z"/>
<path d="M5491 353 c-1 -17 5 -23 19 -23 14 0 20 6 19 23 -1 16 -2 18 -6 5 -2
-10 -8 -18 -13 -18 -5 0 -11 8 -13 18 -4 13 -5 11 -6 -5z"/>
<path d="M5607 352 c1 -8 3 -16 3 -18 0 -2 5 -4 10 -4 6 0 10 7 10 16 0 8 -4
13 -9 10 -5 -4 -11 -3 -14 1 -2 5 -2 2 0 -5z"/>
<path d="M6520 350 c-8 -5 -10 -10 -5 -10 6 0 17 5 25 10 8 5 11 10 5 10 -5 0
-17 -5 -25 -10z"/>
<path d="M6600 350 c8 -5 20 -10 25 -10 6 0 3 5 -5 10 -8 5 -19 10 -25 10 -5
0 -3 -5 5 -10z"/>
<path d="M938 343 c12 -2 32 -2 45 0 12 2 2 4 -23 4 -25 0 -35 -2 -22 -4z"/>
<path d="M5695 340 c-3 -5 -1 -10 4 -10 6 0 11 5 11 10 0 6 -2 10 -4 10 -3 0
-8 -4 -11 -10z"/>
<path d="M1630 330 c-9 -6 -10 -10 -3 -10 6 0 15 5 18 10 8 12 4 12 -15 0z"/>
<path d="M1710 336 c0 -2 7 -7 16 -10 8 -3 12 -2 9 4 -6 10 -25 14 -25 6z"/>
<path d="M2710 326 c7 -7 13 -7 20 0 6 6 3 10 -10 10 -13 0 -16 -4 -10 -10z"/>
<path d="M2810 330 c-9 -6 -10 -10 -3 -10 6 0 15 5 18 10 8 12 4 12 -15 0z"/>
<path d="M5038 333 c7 -3 16 -2 19 1 4 3 -2 6 -13 5 -11 0 -14 -3 -6 -6z"/>
<path d="M918 323 c12 -2 32 -2 45 0 12 2 2 4 -23 4 -25 0 -35 -2 -22 -4z"/>
<path d="M998 323 c6 -2 18 -2 25 0 6 3 1 5 -13 5 -14 0 -19 -2 -12 -5z"/>
<path d="M1820 326 c0 -2 7 -6 15 -10 8 -3 15 -1 15 4 0 6 -7 10 -15 10 -8 0
-15 -2 -15 -4z"/>
<path d="M3208 323 c12 -2 30 -2 40 0 9 3 -1 5 -23 4 -22 0 -30 -2 -17 -4z"/>
<path d="M6765 260 c3 -5 8 -10 11 -10 2 0 4 5 4 10 0 6 -5 10 -11 10 -5 0 -7
-4 -4 -10z"/>
<path d="M6541 247 c-21 -27 -24 -72 -4 -93 10 -10 15 -15 11 -10 -12 16 -9
91 4 104 7 7 9 12 6 12 -3 0 -11 -6 -17 -13z"/>
<path d="M6585 251 c-3 -6 1 -11 11 -11 11 0 15 -6 11 -20 -3 -11 -1 -23 5
-26 5 -3 7 -13 3 -23 -4 -11 -3 -13 5 -5 7 7 8 24 2 49 -8 39 -25 55 -37 36z"/>
<path d="M6716 244 c-5 -14 -4 -15 9 -4 17 14 19 20 6 20 -5 0 -12 -7 -15 -16z"/>
<path d="M6865 237 c16 -26 17 -47 0 -92 -7 -20 -6 -20 9 -1 23 29 20 79 -6
102 l-21 19 18 -28z"/>
<path d="M6786 214 c3 -29 14 -46 14 -22 0 9 6 18 12 20 8 3 5 9 -8 16 -19 10
-21 9 -18 -14z"/>
<path d="M6730 205 c7 -9 15 -13 17 -11 7 7 -7 26 -19 26 -6 0 -6 -6 2 -15z"/>
<path d="M6710 152 c-23 -22 -23 -24 -3 -13 12 6 25 16 28 22 13 20 0 15 -25
-9z"/>
<path d="M6780 161 c0 -5 -8 -12 -17 -14 -14 -4 -12 -5 5 -6 13 -1 22 5 22 14
0 8 -2 15 -5 15 -3 0 -5 -4 -5 -9z"/>
</g>
</svg>
