<?xml version="1.0" standalone="no"?>
<!DOCTYPE svg PUBLIC "-//W3C//DTD SVG 20010904//EN"
 "http://www.w3.org/TR/2001/REC-SVG-20010904/DTD/svg10.dtd">
<svg version="1.0" xmlns="http://www.w3.org/2000/svg"
 width="1157.000000pt" height="635.000000pt" viewBox="0 0 1157.000000 635.000000"
 preserveAspectRatio="xMidYMid meet">
<metadata>
Created by potrace 1.16, written by Peter Selinger 2001-2019
</metadata>
<g transform="translate(0.000000,635.000000) scale(0.100000,-0.100000)"
fill="#000000" stroke="none">
<path d="M787 6243 c-1 -1 -1 -54 1 -118 3 -105 5 -116 20 -109 25 12 166 12
174 0 13 -20 16 -1 19 113 l3 114 -108 1 c-59 0 -108 0 -109 -1z m63 -52 c0
-39 -34 -37 -38 2 -3 22 1 27 17 27 16 0 21 -6 21 -29z m130 -61 c0 -58 -4
-90 -11 -90 -7 0 -9 21 -7 59 2 33 0 63 -4 67 -14 14 -9 54 7 54 12 0 15 -17
15 -90z m-55 60 c-3 -5 -17 -10 -31 -10 -13 0 -24 5 -24 10 0 6 14 10 31 10
17 0 28 -4 24 -10z m-93 -95 c2 -39 -1 -55 -9 -55 -9 0 -13 18 -13 55 0 71 17
71 22 0z m101 48 c-13 -2 -33 -2 -45 0 -13 2 -3 4 22 4 25 0 35 -2 23 -4z m6
-45 c-2 -28 -3 -29 -6 -7 -3 21 -9 25 -38 26 -28 1 -35 -3 -35 -17 0 -10 6
-21 13 -23 7 -3 5 -6 -5 -6 -13 -1 -18 7 -18 29 0 29 2 30 45 30 44 0 45 0 44
-32z m-25 -13 c3 -8 1 -15 -5 -15 -6 0 -17 7 -25 15 -14 13 -13 15 4 15 11 0
22 -7 26 -15z m24 -42 c-10 -2 -28 -2 -40 0 -13 2 -5 4 17 4 22 1 32 -1 23 -4z"/>
<path d="M1420 6225 c0 -14 -6 -25 -12 -26 -7 0 -21 -2 -30 -4 -10 -2 -20 1
-24 6 -14 24 -21 3 -19 -53 3 -78 3 -74 17 -60 7 7 25 12 40 12 27 0 28 -2 28
-51 0 -31 4 -48 10 -44 6 3 10 26 10 51 l0 44 43 0 42 0 -1 48 c0 43 -4 54
-19 51 -3 -1 -17 -1 -32 -2 -24 0 -28 3 -26 26 1 18 -3 27 -13 27 -8 0 -14
-10 -14 -25z m0 -74 c0 -35 -8 -42 -38 -34 -16 4 -22 13 -22 34 0 26 4 29 30
29 27 0 30 -3 30 -29z m80 4 c0 -37 -2 -40 -32 -40 -25 -1 -28 3 -28 32 0 30
3 33 30 33 25 0 30 -4 30 -25z"/>
<path d="M2445 6241 c-3 -5 -1 -12 5 -16 16 -10 12 -28 -5 -21 -9 3 -15 0 -15
-8 0 -9 8 -12 25 -8 14 2 25 0 25 -7 0 -21 -33 -96 -52 -117 -20 -22 -23 -34
-9 -34 5 0 19 16 31 35 22 35 22 35 96 35 78 0 87 -7 64 -50 -12 -23 -50 -15
-50 11 0 11 -4 19 -9 19 -20 0 3 -52 27 -61 31 -12 46 1 60 53 11 40 8 48 -20
48 -16 0 -17 3 -8 20 10 19 4 26 -23 21 -5 -1 -7 9 -5 21 3 21 -1 23 -35 22
-36 -2 -38 0 -33 22 5 17 2 24 -9 24 -10 0 -15 -10 -15 -27 l-1 -28 -15 28
c-16 29 -20 32 -29 18z m115 -64 c0 -7 -13 -14 -30 -15 -21 -2 -30 2 -30 13 0
10 10 15 30 15 18 0 30 -5 30 -13z m28 -39 c-3 -8 -26 -14 -56 -16 -43 -3 -51
-1 -46 12 8 20 108 23 102 4z"/>
<path d="M3980 6205 c-14 -49 -32 -71 -27 -33 2 18 -2 23 -20 21 -23 -3 -31
11 -13 22 15 9 12 25 -4 25 -8 0 -16 -10 -18 -22 -2 -16 -9 -22 -20 -20 -16 3
-18 -7 -18 -82 0 -47 5 -88 10 -91 6 -3 10 -1 10 6 0 8 11 10 35 6 l35 -6 0
47 c1 62 33 102 84 102 l34 0 -4 -42 c-11 -99 -14 -108 -36 -108 -17 0 -18 -2
-8 -15 30 -37 56 5 65 108 l7 77 -47 0 c-39 0 -45 2 -36 14 8 10 8 16 -3 25
-11 9 -16 3 -26 -34z m-50 -55 c0 -15 -7 -20 -25 -20 -18 0 -25 5 -25 20 0 15
7 20 25 20 18 0 25 -5 25 -20z m0 -65 c0 -19 -5 -25 -22 -25 -18 0 -23 6 -23
25 0 19 5 25 23 25 17 0 22 -6 22 -25z"/>
<path d="M2707 6125 c1 -137 1 -131 15 -117 17 17 175 16 181 0 10 -30 16 5
18 111 l1 113 -108 1 -109 2 2 -110z m48 85 c-10 -16 -13 -130 -4 -136 5 -3 9
2 9 10 0 12 11 16 45 16 25 0 45 -4 45 -10 0 -5 -17 -10 -37 -10 -40 -1 -66
-14 -76 -40 -3 -8 -6 29 -6 83 -1 81 1 97 15 97 8 0 12 -4 9 -10z m145 -80 c0
-49 -3 -90 -6 -90 -8 0 -34 27 -30 31 8 10 13 98 5 93 -5 -3 -9 9 -9 25 0 24
4 31 20 31 19 0 20 -7 20 -90z m-72 53 c-10 -2 -28 -2 -40 0 -13 2 -5 4 17 4
22 1 32 -1 23 -4z m5 -40 c-13 -2 -35 -2 -50 0 -16 2 -5 4 22 4 28 0 40 -2 28
-4z m0 -30 c-13 -2 -35 -2 -50 0 -16 2 -5 4 22 4 28 0 40 -2 28 -4z m11 -58
c18 -14 15 -15 -40 -15 -58 1 -58 1 -29 15 39 17 46 17 69 0z"/>
<path d="M4520 6224 c0 -14 -9 -16 -55 -12 -36 3 -54 1 -52 -6 2 -6 24 -9 50
-7 41 2 47 0 47 -17 0 -10 6 -19 14 -19 7 0 13 7 12 16 -1 12 10 16 49 17 69
2 69 2 55 19 -9 11 -16 13 -24 5 -5 -5 -25 -10 -43 -10 -25 0 -31 4 -27 15 4
9 0 15 -10 15 -9 0 -16 -7 -16 -16z"/>
<path d="M4723 6205 c-32 -49 -28 -54 12 -15 37 36 43 50 23 50 -7 0 -23 -16
-35 -35z"/>
<path d="M4896 6229 c4 -8 -12 -10 -55 -7 -33 1 -61 0 -61 -4 0 -5 6 -8 14 -8
9 0 12 -7 9 -20 -5 -20 -23 -28 -23 -10 0 6 -7 10 -15 10 -8 0 -15 -6 -15 -13
0 -7 -12 -25 -26 -40 -14 -15 -23 -33 -21 -40 4 -9 6 -9 6 1 1 6 6 12 11 12 6
0 10 -25 10 -55 0 -30 5 -55 10 -55 6 0 10 31 10 73 0 61 12 113 22 97 2 -3
11 -20 21 -38 17 -33 17 -34 -3 -39 -28 -7 -25 -18 7 -20 16 0 21 2 13 7 -8 5
-9 10 -2 14 8 4 8 16 0 37 -8 24 -7 33 6 48 9 10 13 21 9 24 -3 4 2 7 11 7 10
0 16 -3 14 -7 -2 -5 -10 -20 -17 -34 -11 -23 -11 -30 5 -55 16 -24 19 -25 22
-10 2 10 -3 25 -11 34 -14 14 -13 17 9 34 13 11 22 24 19 29 -4 5 8 9 26 9 27
0 30 2 19 15 -14 17 -35 21 -24 4z"/>
<path d="M5370 6197 c0 -36 4 -46 20 -50 28 -7 26 -37 -2 -37 -21 0 -23 -5
-25 -56 -1 -58 15 -64 21 -8 2 16 4 32 5 37 0 4 6 7 11 7 6 0 10 -20 10 -45 0
-25 5 -45 10 -45 6 0 10 23 10 50 0 28 3 50 8 50 13 -1 42 -27 42 -39 0 -6 5
-11 10 -11 15 0 12 11 -7 33 -17 20 -17 20 0 14 10 -4 27 -7 38 -7 14 0 19 -7
19 -30 0 -26 -4 -30 -27 -30 l-28 -1 29 -15 c34 -19 44 -11 48 41 2 25 8 39
16 38 6 -2 12 7 12 18 0 19 -2 20 -17 8 -15 -13 -16 -11 -9 14 5 20 3 27 -9
27 -9 0 -15 -9 -15 -25 0 -23 -4 -25 -42 -25 l-43 1 54 34 c51 32 91 74 74 76
-4 1 -20 0 -35 -1 -16 -1 -28 3 -28 9 0 6 -7 11 -15 11 -8 0 -15 -6 -15 -14 0
-8 -12 -23 -27 -34 l-28 -20 38 1 c37 1 49 11 25 20 -7 3 2 6 20 6 31 1 32 0
17 -16 -16 -15 -32 -20 -77 -22 -10 -1 -18 -6 -18 -12 0 -6 7 -9 15 -5 20 7
19 4 -6 -18 l-22 -18 5 66 c5 52 3 66 -8 66 -10 0 -14 -13 -14 -40 0 -27 -4
-40 -14 -40 -10 0 -13 10 -10 35 1 19 -1 37 -7 40 -5 4 -9 -13 -9 -38z"/>
<path d="M6247 6228 l-39 -10 4 -69 c2 -54 0 -69 -12 -73 -8 -2 21 -4 64 -5
44 0 76 -4 73 -8 -4 -3 11 -19 34 -36 22 -16 43 -26 47 -22 7 6 -14 26 -54 52
-16 10 -13 12 24 12 27 1 41 5 37 11 -4 6 -11 7 -17 4 -10 -6 -4 74 8 118 6
21 -6 29 -34 21 -25 -6 -30 -23 -7 -23 8 0 15 -7 15 -15 0 -8 -8 -15 -17 -15
-17 -1 -17 -1 0 -11 21 -12 22 -29 2 -29 -8 0 -15 -4 -15 -10 0 -5 5 -10 10
-10 6 0 10 -7 10 -15 0 -9 -9 -15 -24 -15 -23 0 -24 2 -14 36 12 45 5 64 -21
57 -12 -3 -21 -1 -21 6 0 6 12 11 26 11 16 0 24 5 21 13 -2 6 -14 11 -25 9
-16 -2 -20 1 -16 12 7 18 -3 19 -59 4z m33 -62 c0 -41 -1 -43 -25 -38 -30 5
-34 32 -5 32 11 0 20 5 20 11 0 6 -9 8 -20 4 -14 -4 -20 -2 -20 9 0 12 13 20
43 25 4 0 7 -19 7 -43z m46 -22 c-3 -9 -6 -22 -6 -30 0 -8 -7 -14 -16 -14 -8
0 -12 -4 -9 -10 3 -5 1 -10 -5 -10 -6 0 -8 10 -4 27 4 15 7 33 7 40 0 7 9 13
20 13 13 0 17 -5 13 -16z m-53 -49 c-6 -18 -34 -16 -41 3 -2 7 6 12 22 12 19
0 24 -4 19 -15z"/>
<path d="M60 6209 c-13 -24 -5 -38 12 -21 13 13 58 17 58 5 0 -5 -9 -32 -20
-61 -22 -56 -25 -82 -11 -82 4 0 20 34 35 76 15 41 30 82 33 90 4 11 -5 14
-46 14 -41 0 -52 -4 -61 -21z"/>
<path d="M1160 6215 c-19 -11 -21 -14 -7 -15 14 0 17 -10 17 -63 0 -36 -5 -68
-12 -75 -9 -9 -5 -12 20 -12 18 0 32 5 32 10 0 6 -4 10 -10 10 -5 0 -10 36
-12 79 l-3 79 -25 -13z"/>
<path d="M2000 6221 c0 -5 4 -11 10 -13 14 -4 -26 -130 -47 -145 -14 -11 -11
-13 26 -13 36 0 41 2 32 14 -18 22 3 66 32 66 51 0 86 52 54 79 -17 14 -107
24 -107 12z m75 -27 c15 -15 15 -18 0 -35 -26 -28 -45 -15 -32 22 13 34 11 33
32 13z"/>
<path d="M2163 6201 c0 -53 -14 -116 -28 -127 -23 -17 -18 -24 17 -24 23 0 29
3 21 11 -14 14 4 72 20 66 6 -2 16 -19 22 -38 8 -22 19 -35 32 -37 l21 -3 -20
41 -21 41 22 15 c23 17 28 46 9 61 -7 6 -31 13 -54 15 -39 5 -41 4 -41 -21z
m87 -19 c0 -14 -24 -32 -42 -32 -20 0 -23 12 -8 41 9 15 15 17 30 9 11 -6 20
-14 20 -18z"/>
<path d="M7100 6205 c-5 -14 -15 -24 -21 -23 -7 2 -11 -22 -11 -72 0 -108 0
-108 17 -86 12 16 19 18 40 8 14 -6 26 -8 26 -4 1 4 3 26 4 49 5 63 29 93 76
93 l39 0 -6 -62 c-8 -87 -9 -89 -41 -82 l-28 6 25 -21 c25 -20 25 -20 41 -2 9
12 19 49 23 91 3 39 7 76 9 83 1 8 -12 11 -45 9 -48 -4 -58 4 -36 26 9 9 8 12
-4 12 -10 0 -21 -15 -29 -37 -9 -25 -14 -32 -17 -20 -3 13 -10 15 -28 11 -19
-5 -23 -3 -18 10 3 9 10 16 15 16 5 0 9 5 9 10 0 21 -31 9 -40 -15z m40 -62
c0 -18 -6 -23 -25 -23 -20 0 -25 5 -25 24 0 19 5 24 25 22 19 -1 25 -7 25 -23z
m0 -68 c0 -20 -5 -25 -25 -25 -20 0 -25 5 -25 25 0 20 5 25 25 25 20 0 25 -5
25 -25z"/>
<path d="M7446 6218 c7 -20 3 -21 -63 -18 -25 1 -43 -3 -43 -9 0 -6 19 -11 42
-11 l41 0 -39 -35 c-21 -19 -33 -34 -25 -35 17 0 82 56 74 64 -4 3 29 6 72 6
67 0 76 2 65 15 -7 8 -17 12 -23 8 -23 -14 -72 -8 -90 12 -14 16 -16 17 -11 3z"/>
<path d="M7630 6177 c0 -44 2 -48 20 -42 14 4 20 2 20 -8 0 -8 -8 -14 -17 -13
-10 0 -18 -3 -18 -9 0 -5 8 -9 18 -8 9 2 17 -1 17 -6 0 -6 -12 -12 -27 -14
-20 -3 -16 -4 14 -6 32 -1 41 2 37 13 -4 10 3 13 25 12 31 -1 45 -16 15 -16
-8 0 -22 -6 -30 -14 -17 -17 -19 -56 -3 -56 6 0 9 9 6 20 -3 11 -2 20 3 20 4
0 10 -9 13 -21 4 -13 10 -18 18 -13 7 4 10 3 5 -4 -3 -6 -2 -13 4 -17 5 -3 10
-1 10 4 0 6 20 11 45 11 l45 0 -1 50 c-2 47 -3 49 -25 44 -21 -6 -24 -3 -24
25 0 28 3 31 33 31 22 0 28 3 18 9 -7 5 -22 6 -32 4 -14 -4 -19 0 -19 16 0 11
5 21 10 21 6 0 10 5 10 10 0 6 -9 10 -20 10 -18 0 -20 -7 -20 -66 0 -59 -2
-65 -17 -58 -10 4 -30 7 -45 7 -18 0 -28 5 -28 14 0 9 9 13 27 11 28 -3 29 -2
25 59 -2 18 -9 22 -57 25 l-55 3 0 -48z m40 8 c0 -8 -2 -15 -4 -15 -2 0 -6 7
-10 15 -3 8 -1 15 4 15 6 0 10 -7 10 -15z m60 -26 c0 -5 -10 -9 -21 -9 -18 0
-19 2 -9 15 12 15 30 12 30 -6z m100 -99 c0 -11 1 -23 3 -27 2 -9 -42 -13 -60
-6 -7 3 -13 16 -13 29 0 21 5 24 35 24 28 0 35 -4 35 -20z m-83 -5 c0 -11 -4
-12 -14 -4 -7 6 -13 13 -13 15 0 2 6 4 13 4 8 0 14 -7 14 -15z"/>
<path d="M7935 6213 c5 -19 2 -23 -14 -23 -12 0 -21 -4 -21 -10 0 -5 25 -10
55 -10 30 0 55 5 55 10 0 6 -9 10 -21 10 -11 0 -30 10 -40 23 l-20 22 6 -22z"/>
<path d="M8220 6221 c0 -6 5 -13 10 -16 18 -11 10 -26 -10 -20 -11 4 -20 2
-20 -4 0 -6 12 -11 26 -11 24 0 25 -2 19 -32 -12 -51 -21 -72 -44 -92 -23 -21
-27 -36 -11 -36 6 0 20 16 31 35 30 51 57 44 50 -12 -1 -6 3 -14 9 -18 16 -10
23 21 10 44 -8 17 -8 21 4 21 8 0 19 -12 25 -27 l11 -28 -4 28 c-4 33 7 35 28
5 9 -12 19 -19 22 -15 4 4 1 13 -6 22 -10 12 -10 15 4 15 17 0 20 -17 10 -44
-4 -10 -18 -16 -38 -16 l-31 -1 29 -15 c35 -19 49 -8 65 50 12 45 7 58 -16 49
-13 -5 -15 -2 -9 20 6 27 0 32 -34 27 -12 -1 -13 1 -2 11 17 18 15 31 -5 28
-50 -5 -64 1 -58 21 5 14 2 20 -9 20 -11 0 -16 -10 -17 -27 l-1 -28 -10 28
c-9 26 -28 38 -28 18z m110 -61 c0 -5 -13 -10 -30 -10 -16 0 -30 5 -30 10 0 6
14 10 30 10 17 0 30 -4 30 -10z m30 -45 c0 -12 -13 -15 -55 -15 -44 0 -53 3
-49 15 4 11 21 15 55 15 37 0 49 -4 49 -15z"/>
<path d="M3142 6198 c1 -46 -21 -122 -38 -135 -10 -7 -16 -13 -13 -14 39 -7
58 -3 54 12 -8 25 12 70 28 63 22 -8 65 13 72 35 12 38 -11 61 -59 61 -39 0
-44 -3 -44 -22z m83 -9 c9 -14 -24 -49 -47 -49 -21 0 -22 1 -6 35 11 25 41 34
53 14z"/>
<path d="M3308 6191 c-54 -60 -60 -92 -25 -129 l22 -24 -24 -19 c-13 -11 -22
-21 -20 -23 2 -2 25 -6 50 -8 48 -5 109 12 109 32 0 7 -6 8 -19 0 -24 -12 -61
-13 -80 -1 -10 7 1 16 42 35 54 26 55 28 62 75 9 68 -5 91 -54 91 -29 0 -44
-7 -63 -29z m86 3 c20 -19 20 -35 1 -79 -21 -51 -84 -69 -99 -30 -8 23 12 76
39 101 31 28 38 29 59 8z"/>
<path d="M3484 6204 c8 -22 -22 -126 -42 -141 -9 -7 -14 -14 -11 -14 25 -7 60
-6 64 2 4 5 2 9 -3 9 -6 0 -6 13 1 35 6 19 14 35 19 35 7 0 11 -15 6 -22 0 -2
6 -17 15 -34 15 -30 18 -31 79 -29 82 3 77 1 90 30 10 23 8 29 -26 64 -41 41
-41 61 0 61 17 0 24 -5 24 -20 0 -23 15 -27 24 -5 10 26 -4 41 -40 43 -69 5
-84 -38 -34 -95 34 -38 37 -51 14 -60 -19 -7 -49 8 -49 25 0 23 -13 21 -19 -3
-9 -34 -24 -32 -41 8 -13 30 -13 33 11 50 48 37 21 77 -51 77 -30 0 -36 -3
-31 -16z m70 -13 c9 -13 -3 -39 -21 -45 -21 -8 -22 -6 -16 27 5 26 26 36 37
18z"/>
<path d="M6660 6209 c-14 -6 -37 -24 -52 -40 -35 -38 -39 -102 -9 -121 19 -11
19 -13 -7 -35 -15 -13 -25 -23 -22 -24 3 0 34 -3 70 -5 57 -5 68 -3 84 15 23
25 14 40 -10 17 -12 -12 -25 -15 -52 -10 -21 4 -39 8 -40 10 -2 1 21 14 50 28
59 28 78 55 78 111 0 24 -7 39 -22 49 -26 18 -33 19 -68 5z m53 -31 c27 -42
-43 -145 -82 -121 -34 21 -26 79 17 118 30 28 49 29 65 3z"/>
<path d="M6835 6212 c-36 -3 -65 -22 -65 -44 0 -4 16 -26 36 -48 42 -46 40
-73 -3 -68 -19 2 -29 10 -33 28 l-6 25 -7 -25 c-10 -37 -10 -37 28 -44 76 -15
101 44 45 107 -26 30 -28 36 -16 47 15 11 55 0 49 -14 -6 -13 -2 -27 6 -22 11
7 21 56 12 59 -3 1 -24 1 -46 -1z"/>
<path d="M8020 6205 c0 -6 17 -9 40 -7 39 4 40 3 40 -28 0 -31 -1 -32 -40 -28
l-41 4 3 -71 3 -70 58 -3 57 -3 -5 33 c-8 42 -15 49 -15 15 0 -25 -3 -27 -39
-27 l-39 0 -4 50 -3 50 43 0 42 0 0 48 0 47 -50 0 c-28 0 -50 -5 -50 -10z"/>
<path d="M5804 6188 c-2 -42 -30 -129 -45 -139 -10 -6 -2 -9 25 -9 32 0 36 2
27 14 -20 24 3 64 39 68 21 2 37 12 48 30 22 37 3 58 -52 58 -36 0 -41 -3 -42
-22z m74 -16 c2 -13 -4 -25 -18 -32 -31 -17 -42 -3 -24 31 17 33 37 34 42 1z"/>
<path d="M5959 6201 c11 -7 11 -17 -4 -62 -9 -30 -24 -64 -31 -76 -14 -22 -13
-23 22 -23 30 0 34 3 25 14 -11 13 0 66 14 66 3 0 12 -18 21 -40 13 -31 22
-40 40 -40 l24 0 -20 20 c-11 11 -20 24 -20 29 0 5 -3 16 -6 24 -3 10 2 18 15
22 11 3 23 15 26 26 11 33 -12 49 -69 49 -33 0 -46 -3 -37 -9z m81 -31 c0 -12
-33 -30 -55 -30 -14 0 -14 3 0 30 13 26 19 29 35 20 11 -6 20 -15 20 -20z"/>
<path d="M4880 6176 c-10 -20 -10 -28 3 -47 11 -16 13 -27 7 -40 -8 -14 -6
-17 10 -16 24 2 24 -3 4 47 -13 31 -14 44 -5 53 13 13 15 27 3 27 -5 0 -14
-11 -22 -24z"/>
<path d="M8607 6180 c-6 -24 5 -26 23 -5 21 25 31 6 15 -32 -8 -19 -15 -46
-15 -59 0 -12 -7 -30 -16 -38 -14 -15 -12 -16 23 -16 26 0 33 3 24 9 -11 7
-10 21 8 80 21 69 36 87 47 56 7 -18 24 -10 24 11 0 11 -15 14 -64 14 -55 0
-64 -3 -69 -20z"/>
<path d="M4467 6105 l2 -75 -29 0 c-17 0 -30 -4 -30 -10 0 -6 43 -10 110 -10
61 0 113 0 118 0 4 0 7 6 7 13 0 7 -10 11 -23 9 -23 -2 -23 0 -21 65 1 38 -2
69 -7 71 -5 1 -9 -4 -9 -10 0 -8 -18 -14 -46 -16 -40 -3 -47 0 -52 18 -12 45
-23 16 -20 -55z m121 8 c2 -9 -11 -13 -47 -13 -38 0 -51 4 -51 15 0 18 91 16
98 -2z m-20 -40 c-16 -2 -40 -2 -55 0 -16 2 -3 4 27 4 30 0 43 -2 28 -4z m22
-33 c0 -5 -22 -10 -50 -10 -27 0 -50 5 -50 10 0 6 23 10 50 10 28 0 50 -4 50
-10z"/>
<path d="M1685 6160 c-3 -5 -3 -16 2 -22 4 -7 6 -21 4 -32 -4 -24 18 -11 29
18 11 31 -19 63 -35 36z"/>
<path d="M7518 6143 c20 -21 28 -24 31 -14 3 16 -25 41 -45 41 -7 0 -1 -12 14
-27z"/>
<path d="M5076 6147 c-24 -17 -17 -51 11 -55 27 -4 42 34 21 54 -12 12 -17 12
-32 1z m24 -22 c0 -8 -4 -15 -10 -15 -5 0 -10 7 -10 15 0 8 5 15 10 15 6 0 10
-7 10 -15z"/>
<path d="M7910 6148 c0 -4 16 -8 35 -8 19 0 35 -4 35 -10 0 -10 -19 -14 -52
-11 -10 1 -18 -3 -18 -8 0 -6 19 -11 43 -11 42 0 44 1 44 29 0 28 -2 29 -44
28 -23 0 -43 -4 -43 -9z"/>
<path d="M3992 6143 c24 -49 32 -63 40 -63 14 0 8 24 -11 48 -18 21 -37 31
-29 15z"/>
<path d="M4233 6143 c-145 -5 -131 -23 18 -23 92 0 120 3 117 13 -5 14 -3 14
-135 10z"/>
<path d="M7190 6133 c0 -13 51 -65 58 -58 3 3 -3 17 -14 32 -21 27 -44 41 -44
26z"/>
<path d="M7410 6134 c0 -4 9 -21 20 -39 l21 -33 -29 -21 c-16 -11 -42 -25 -57
-31 -15 -6 -25 -13 -22 -16 9 -10 72 15 96 37 15 14 26 18 34 11 26 -21 85
-50 91 -45 10 10 7 23 -5 23 -23 0 -109 66 -120 92 -10 25 -29 39 -29 22z"/>
<path d="M7480 6115 c-18 -34 -5 -43 19 -14 24 28 26 39 8 39 -8 0 -20 -11
-27 -25z"/>
<path d="M8874 6125 c-9 -23 3 -45 25 -45 25 0 34 14 26 40 -7 23 -43 27 -51
5z m39 -21 c-4 -10 -9 -12 -15 -6 -12 12 -1 35 12 27 5 -3 6 -13 3 -21z"/>
<path d="M2580 6075 c7 -8 17 -15 22 -15 6 0 5 7 -2 15 -7 8 -17 15 -22 15 -6
0 -5 -7 2 -15z"/>
<path d="M190 6064 c0 -9 5 -14 12 -12 18 6 21 28 4 28 -9 0 -16 -7 -16 -16z"/>
<path d="M2462 6060 c-6 -11 -12 -25 -12 -31 0 -18 27 8 33 31 7 26 -5 26 -21
0z"/>
<path d="M2500 6061 c0 -11 5 -23 10 -26 8 -5 13 12 9 30 -4 16 -19 13 -19 -4z"/>
<path d="M4830 6049 c0 -30 -2 -31 -35 -27 -24 3 -35 0 -35 -9 0 -10 22 -13
83 -13 88 0 104 5 86 26 -8 10 -15 10 -29 2 -9 -6 -25 -8 -34 -5 -19 7 -22 43
-3 50 6 3 2 6 -10 6 -19 1 -23 -4 -23 -30z"/>
<path d="M7910 6039 c0 -33 3 -40 16 -35 9 3 28 6 44 6 25 0 27 3 25 32 -3 39
-25 51 -25 14 0 -20 -5 -26 -21 -26 -17 0 -20 5 -17 25 4 17 1 25 -8 25 -10 0
-14 -13 -14 -41z"/>
<path d="M8236 6044 c-9 -36 1 -43 14 -10 12 33 12 36 1 36 -5 0 -12 -12 -15
-26z"/>
<path d="M6238 6036 c-38 -21 -49 -36 -27 -36 17 0 79 40 79 51 0 13 -9 10
-52 -15z"/>
<path d="M7632 6035 c-15 -32 -15 -35 1 -35 7 0 14 13 15 30 3 37 -1 38 -16 5z"/>
<path d="M7661 6031 c-1 -27 2 -32 11 -23 8 8 8 17 0 34 -10 22 -11 21 -11
-11z"/>
<path d="M5570 5674 c-52 -8 -149 -28 -215 -45 -65 -16 -131 -32 -146 -34 -15
-3 -71 -23 -125 -46 -55 -22 -114 -45 -133 -51 -19 -5 -52 -21 -72 -34 -21
-13 -43 -24 -48 -24 -5 0 -17 -7 -25 -16 -14 -14 -28 -19 -57 -23 -3 -1 -14
-9 -25 -19 -10 -10 -39 -29 -64 -42 -184 -101 -527 -434 -635 -618 -5 -10 -28
-46 -51 -82 -22 -36 -53 -90 -68 -120 -15 -30 -35 -68 -44 -85 -15 -29 -41
-95 -102 -259 -17 -44 -33 -100 -36 -125 -3 -25 -8 -49 -10 -53 -5 -7 -19 -79
-35 -168 -5 -30 -12 -100 -15 -155 -3 -55 -7 -105 -9 -112 -5 -15 12 -265 20
-308 4 -16 17 -85 31 -153 13 -68 24 -131 24 -140 0 -9 21 -66 46 -127 24 -60
46 -119 48 -130 8 -50 222 -424 247 -433 5 -2 21 -20 34 -40 14 -21 42 -56 62
-80 66 -74 268 -272 278 -272 6 0 31 -20 57 -45 27 -25 53 -45 60 -45 7 0 23
-11 37 -23 26 -24 243 -157 256 -157 4 0 49 -20 101 -45 53 -25 121 -52 152
-61 31 -9 89 -27 127 -40 82 -27 139 -40 215 -49 30 -3 80 -10 110 -16 134
-23 457 -20 592 6 15 3 49 7 75 9 53 4 78 9 173 38 36 11 108 32 160 48 52 16
127 45 165 65 39 21 77 38 86 40 22 4 207 116 264 159 25 20 52 36 60 36 7 0
15 7 18 15 4 8 25 27 49 42 89 57 290 258 369 368 18 25 36 45 40 45 3 0 14
16 24 36 9 20 32 56 50 80 32 41 145 244 149 267 1 7 11 30 20 52 51 113 96
268 141 490 40 193 29 538 -25 770 -5 22 -16 72 -25 110 -9 39 -20 81 -25 95
-23 66 -63 166 -70 175 -4 6 -13 29 -19 53 -7 23 -23 58 -36 77 -13 20 -34 57
-46 83 -28 60 -169 272 -181 272 -5 0 -13 12 -19 27 -14 38 -180 209 -297 305
-31 26 -79 66 -105 88 -27 22 -63 48 -80 56 -18 9 -53 32 -79 50 -26 18 -62
40 -80 47 -18 8 -63 33 -100 55 -37 23 -79 44 -94 46 -14 3 -47 15 -72 26 -87
40 -135 57 -189 66 -15 2 -59 14 -98 25 -148 44 -271 61 -485 64 -145 2 -233
-1 -300 -11z m585 -38 c44 -9 103 -21 131 -26 28 -6 64 -13 80 -16 31 -5 199
-61 225 -75 9 -4 28 -10 43 -13 35 -6 290 -133 324 -161 15 -12 35 -24 44 -28
21 -8 205 -143 240 -176 14 -14 43 -39 63 -54 20 -16 35 -31 32 -33 -6 -6
-194 -23 -322 -29 -66 -3 -136 -7 -155 -10 -36 -5 -412 -41 -530 -50 -36 -3
-103 -10 -150 -15 -151 -16 -203 -20 -320 -26 -63 -2 -272 -20 -465 -39 -192
-19 -384 -37 -425 -39 -41 -3 -118 -8 -170 -11 -52 -3 -115 -8 -140 -11 -54
-5 -342 -32 -420 -39 -30 -3 -77 -8 -105 -11 l-50 -6 19 21 c11 11 15 21 11
21 -5 0 7 15 26 34 19 19 59 63 89 98 30 35 94 99 143 143 49 44 102 92 119
108 17 15 32 27 35 27 3 0 34 20 69 45 34 25 66 45 70 45 4 0 41 23 81 51 40
27 73 48 73 45 0 -2 47 20 105 50 58 30 113 54 123 54 10 0 55 15 100 34 45
19 101 37 125 41 73 12 81 14 122 24 41 10 187 37 240 44 74 11 444 -2 520
-17z m1132 -649 c-23 -22 -61 -52 -83 -68 -23 -15 -44 -35 -47 -43 -3 -8 -28
-29 -56 -47 -28 -18 -48 -35 -46 -37 5 -5 -50 -52 -61 -52 -5 0 -25 -17 -45
-37 -42 -43 -57 -57 -234 -206 -71 -60 -136 -117 -144 -128 -7 -10 -19 -19
-25 -19 -6 0 -34 -22 -63 -48 -29 -26 -74 -65 -100 -87 -25 -22 -68 -60 -94
-83 -53 -49 -45 -49 -169 -2 -41 15 -88 30 -105 33 -30 5 -112 31 -150 47 -30
13 -148 50 -176 55 -13 3 -85 25 -159 49 -74 25 -200 65 -280 90 -80 25 -212
66 -295 91 -82 26 -218 69 -302 96 -83 28 -162 52 -176 54 -14 3 -78 24 -143
46 -123 43 -137 47 -168 48 -11 1 -17 3 -15 6 5 4 190 22 514 50 33 3 71 8 85
10 14 2 66 7 115 10 50 4 92 8 95 10 3 2 66 6 140 9 74 4 155 8 180 11 25 2
74 7 110 10 36 3 103 10 150 15 95 11 142 15 315 30 66 6 134 12 150 15 17 2
93 6 170 10 77 3 147 8 155 10 8 2 53 7 100 10 47 4 96 8 110 10 42 5 141 14
215 20 39 3 86 8 105 10 19 2 116 11 215 20 99 9 187 17 195 18 57 9 60 4 17
-36z m164 -49 c45 -51 92 -109 104 -128 12 -19 34 -47 49 -61 14 -14 33 -42
41 -62 8 -20 19 -38 24 -41 10 -6 77 -121 70 -121 -2 0 15 -34 38 -75 54 -98
151 -358 157 -424 2 -17 11 -67 20 -111 21 -108 36 -236 36 -313 0 -57 -2 -63
-17 -57 -47 18 -132 44 -157 49 -34 6 -120 33 -161 51 -45 20 -131 46 -162 50
-25 3 -177 53 -228 75 -11 5 -36 12 -55 15 -37 7 -142 42 -249 81 -35 14 -66
22 -68 20 -3 -2 -62 15 -131 39 -70 24 -140 46 -157 49 -44 8 -320 105 -322
113 -1 5 36 39 83 78 47 38 90 77 95 87 5 10 16 18 23 18 7 0 34 21 59 46 26
25 47 43 47 39 0 -4 25 17 55 46 31 29 66 60 78 69 23 16 28 19 140 121 37 34
67 58 67 53 0 -5 10 3 23 19 12 15 45 46 74 70 143 115 322 271 327 283 3 8 8
14 10 14 3 0 42 -42 87 -92z m-3186 -253 c39 -14 86 -30 105 -34 61 -14 125
-33 135 -40 6 -4 51 -20 100 -35 50 -15 153 -47 230 -71 77 -24 192 -60 255
-79 119 -37 126 -39 352 -111 75 -25 150 -47 166 -50 16 -2 85 -25 154 -50 69
-25 138 -47 154 -49 16 -3 87 -25 157 -50 71 -26 134 -43 140 -39 15 8 -89
-91 -145 -139 -73 -61 -162 -138 -188 -162 -14 -12 -50 -42 -80 -67 -30 -24
-75 -62 -101 -84 -25 -22 -69 -60 -99 -85 -29 -25 -73 -64 -97 -87 -24 -24
-47 -43 -51 -43 -4 0 -34 -25 -67 -56 -69 -64 -126 -114 -210 -184 -69 -59
-110 -93 -258 -221 -60 -52 -126 -107 -148 -122 -22 -16 -49 -42 -61 -58 -12
-16 -27 -29 -33 -29 -6 0 -33 -22 -60 -50 -27 -27 -54 -50 -61 -50 -6 0 -31
-20 -55 -45 -24 -25 -49 -45 -56 -45 -6 0 -20 -11 -30 -24 -11 -13 -60 -57
-109 -97 -49 -41 -94 -78 -100 -84 -47 -43 -84 -75 -87 -75 -2 0 -5 228 -5
508 -1 279 -4 602 -6 717 -3 116 -8 443 -12 727 l-6 517 53 -14 c30 -7 86 -25
124 -40z m-201 -410 c4 -242 8 -537 11 -655 3 -118 7 -456 10 -750 3 -294 8
-545 11 -557 2 -13 1 -23 -3 -23 -8 0 -68 87 -72 105 -2 6 -18 30 -35 55 -18
25 -42 63 -53 85 -11 22 -36 72 -56 110 -19 39 -42 93 -50 120 -9 28 -25 75
-37 105 -31 83 -60 195 -66 259 -3 31 -9 72 -14 91 -33 129 -33 454 0 625 5
28 12 73 14 100 3 28 25 111 51 185 25 74 48 146 51 160 5 22 22 60 76 165 9
17 23 46 32 65 9 19 30 55 46 80 16 25 39 62 50 83 12 22 23 37 25 35 2 -2 6
-201 9 -443z m2306 -255 c47 -17 103 -35 125 -39 22 -4 96 -27 165 -51 68 -23
138 -44 155 -47 16 -2 64 -17 105 -33 87 -33 167 -59 204 -66 15 -2 57 -16 94
-30 89 -33 142 -50 232 -72 41 -11 116 -33 165 -50 50 -17 144 -47 210 -68
117 -36 155 -53 124 -55 -50 -5 -75 -12 -274 -84 -38 -13 -77 -25 -85 -25 -8
0 -57 -16 -108 -35 -51 -19 -123 -42 -160 -51 -37 -9 -71 -20 -77 -24 -5 -4
-19 -10 -30 -13 -11 -3 -58 -19 -104 -36 -46 -17 -86 -29 -89 -27 -4 5 -113
-33 -157 -54 -11 -5 -45 -16 -75 -25 -30 -9 -95 -30 -145 -47 -49 -17 -121
-40 -160 -51 -75 -21 -161 -51 -211 -73 -17 -7 -58 -20 -90 -28 -32 -8 -107
-32 -166 -54 -59 -23 -124 -43 -144 -46 -20 -4 -51 -13 -68 -20 -17 -8 -67
-26 -111 -40 -204 -66 -273 -90 -310 -106 -22 -10 -56 -21 -76 -24 -20 -3 -74
-20 -120 -37 -104 -39 -137 -49 -170 -54 -14 -2 -87 -26 -163 -54 -76 -28
-146 -51 -156 -51 -10 0 -67 -18 -127 -40 -59 -21 -119 -41 -133 -43 -31 -6
-211 -67 -225 -77 -5 -4 -19 -10 -30 -14 -18 -6 2 15 139 139 27 25 54 45 59
45 6 0 20 11 32 24 11 13 76 70 145 126 69 57 134 111 145 121 11 10 45 39 75
65 30 25 78 68 106 94 29 27 54 47 57 44 2 -3 16 8 29 24 13 16 42 42 64 58
39 29 59 46 164 143 30 28 63 54 73 57 9 3 17 9 17 13 0 4 37 39 82 77 159
135 344 295 390 339 26 25 51 45 55 45 7 0 46 33 143 123 14 13 45 38 69 57
25 19 58 50 74 68 16 17 34 32 41 32 6 0 31 21 56 46 51 51 46 51 170 4z
m1623 -587 c-3 -77 -30 -283 -43 -328 -5 -16 -11 -51 -15 -77 -3 -26 -21 -91
-41 -145 -20 -54 -46 -128 -59 -164 -12 -36 -34 -83 -47 -105 -13 -21 -31 -55
-39 -74 -18 -45 -168 -270 -179 -270 -5 0 -12 -10 -16 -22 -4 -12 -25 -41 -48
-65 -58 -59 -150 -162 -159 -179 -4 -8 -14 -14 -21 -14 -7 0 -35 -22 -62 -50
-27 -27 -54 -50 -60 -50 -7 0 -22 -11 -35 -25 -23 -25 -241 -175 -254 -175 -4
0 -32 -15 -63 -33 -31 -18 -73 -39 -92 -47 -19 -7 -58 -24 -85 -36 -90 -40
-156 -64 -192 -70 -19 -3 -53 -12 -75 -20 -165 -58 -321 -76 -618 -71 -245 4
-305 11 -455 52 -33 9 -99 27 -146 39 -47 13 -121 40 -164 61 -43 20 -83 38
-89 39 -21 3 -136 60 -136 67 0 4 -19 14 -42 24 -24 9 -45 20 -48 24 -3 4 -51
37 -106 74 -56 37 -104 74 -108 82 -3 8 -11 15 -17 15 -10 0 -66 47 -154 130
-20 20 -91 95 -157 170 -21 23 -38 46 -38 50 0 5 26 14 58 20 31 7 82 21 112
31 54 20 168 57 325 107 44 14 92 31 107 38 14 8 44 16 66 19 22 2 64 14 94
26 73 29 182 65 248 83 30 8 87 27 125 41 39 15 93 33 120 40 28 7 95 30 150
50 55 20 125 43 155 50 30 8 96 29 147 49 50 19 109 38 130 42 32 6 109 32
188 64 11 4 76 26 145 48 69 22 145 47 170 55 25 8 90 29 145 47 55 17 114 38
130 45 17 7 68 24 115 38 47 13 126 38 175 55 50 17 113 37 140 46 28 8 82 27
120 41 39 15 88 31 110 36 45 11 210 67 238 81 10 5 34 11 55 13 20 3 46 10
57 15 33 17 209 79 225 80 13 0 15 -12 13 -67z"/>
<path d="M6187 3953 c-4 -3 -7 -15 -7 -26 0 -19 1 -19 18 -4 19 18 42 23 42
10 0 -5 -11 -39 -25 -78 -13 -38 -25 -70 -25 -71 0 0 13 0 30 0 22 0 27 3 20
12 -13 15 29 144 47 144 7 0 13 -7 13 -16 0 -8 5 -12 10 -9 6 3 10 15 10 26 0
17 -7 19 -63 19 -35 0 -67 -3 -70 -7z"/>
<path d="M7460 5219 c0 -5 5 -7 11 -3 8 5 10 0 5 -17 -3 -13 -12 -46 -19 -72
-8 -27 -20 -53 -28 -58 -10 -6 -2 -9 26 -9 27 0 36 3 26 9 -12 8 -12 14 -1 41
l14 33 18 -23 c10 -12 18 -28 18 -35 0 -19 24 -35 39 -26 10 7 10 9 -2 14 -26
10 -30 57 -8 81 28 30 26 50 -4 64 -32 15 -46 15 -22 1 21 -13 22 -55 1 -63
-32 -12 -45 -7 -34 13 18 34 12 56 -15 59 -14 1 -25 -3 -25 -9z"/>
<path d="M3883 4910 c-46 -19 -77 -106 -53 -150 9 -16 8 -25 -1 -36 -16 -20
-9 -24 52 -31 45 -4 58 -2 79 16 18 14 21 20 10 21 -9 0 -21 -5 -26 -10 -7 -7
-25 -7 -50 -2 l-39 9 41 11 c30 9 49 23 68 50 58 84 9 158 -81 122z m58 -10
c28 -16 24 -60 -11 -108 -35 -48 -53 -52 -76 -17 -14 22 -15 29 -3 58 12 28
54 77 66 77 2 0 13 -5 24 -10z"/>
<path d="M8128 3589 c-28 -16 -22 -55 12 -86 33 -29 37 -45 16 -62 -20 -17
-56 3 -56 30 0 11 -4 17 -10 14 -5 -3 -10 -19 -10 -36 0 -25 4 -29 28 -31 48
-2 65 2 78 20 20 26 17 38 -23 75 -24 23 -34 40 -30 51 9 23 48 20 54 -4 3
-11 9 -20 14 -20 8 0 10 5 13 41 1 15 -64 21 -86 8z"/>
<path d="M3985 2177 c7 -25 -31 -137 -46 -137 -5 0 -9 -4 -9 -10 0 -5 16 -10
36 -10 31 0 35 3 29 20 -10 31 4 60 28 60 33 0 67 28 67 55 0 25 -39 45 -87
45 -19 0 -22 -4 -18 -23z m71 -12 c7 -18 -12 -45 -32 -45 -14 0 -20 41 -7 53
11 12 33 7 39 -8z"/>
<path d="M5807 1113 c-4 -3 -50 -6 -102 -5 l-95 0 0 -111 0 -112 110 0 110 0
0 112 c0 102 -6 133 -23 116z m-137 -42 c0 -11 3 -27 6 -36 5 -13 8 -14 15 -3
7 10 9 10 9 1 0 -15 56 -18 64 -4 4 5 7 21 8 35 2 18 8 26 18 24 22 -5 29
-178 7 -178 -11 0 -14 12 -13 48 l1 47 -57 3 c-32 2 -58 7 -58 12 0 6 -8 10
-17 9 -11 0 -13 -3 -5 -6 19 -7 16 -113 -3 -113 -12 0 -15 17 -15 90 0 83 1
90 20 90 13 0 20 -7 20 -19z m78 12 c-10 -2 -28 -2 -40 0 -13 2 -5 4 17 4 22
1 32 -1 23 -4z m2 -24 c0 -5 -13 -9 -30 -9 -39 0 -39 15 0 16 17 1 30 -3 30
-7z m-10 -70 c0 -7 -10 -9 -25 -7 -13 3 -26 0 -29 -6 -2 -6 -5 -3 -5 7 -1 12
7 17 29 17 17 0 30 -5 30 -11z m26 -45 c-3 -8 -11 -14 -18 -13 -10 0 -10 2 0
6 6 2 13 19 13 36 1 25 3 27 6 9 3 -13 2 -30 -1 -38z m-31 16 c-3 -5 -13 -10
-21 -10 -8 0 -14 5 -14 10 0 6 9 10 21 10 11 0 17 -4 14 -10z m18 -47 c-13 -2
-35 -2 -50 0 -16 2 -5 4 22 4 28 0 40 -2 28 -4z"/>
<path d="M5979 1083 c-1 -5 0 -12 1 -18 8 -39 5 -135 -4 -139 -6 -2 7 -5 29
-5 32 0 36 2 23 10 -15 8 -18 24 -18 84 0 60 -3 75 -15 75 -8 0 -16 -3 -16 -7z"/>
<path d="M840 415 c0 -10 -10 -15 -30 -15 -16 0 -30 -4 -30 -10 0 -5 14 -10
31 -10 30 0 59 -19 59 -39 0 -6 -20 -11 -46 -11 -30 0 -43 -4 -38 -11 3 -6 19
-9 34 -5 31 6 44 -2 32 -18 -13 -17 -2 -117 11 -109 7 4 32 8 57 9 25 1 51 2
58 3 15 1 17 81 2 81 -5 0 -10 -16 -10 -35 l0 -35 -51 0 -50 0 3 51 3 52 65 1
c36 0 67 6 69 11 2 6 -22 9 -65 7 -56 -3 -67 -1 -56 9 17 18 15 30 -3 23 -8
-4 -15 -2 -15 4 0 5 7 12 15 16 13 5 12 9 -5 26 -24 24 -40 26 -40 5z"/>
<path d="M940 415 c0 -8 -7 -15 -15 -15 -19 0 -19 -7 2 -28 12 -12 18 -13 21
-4 2 6 19 12 39 12 23 0 33 4 30 13 -2 6 -16 11 -31 9 -18 -2 -26 2 -26 13 0
8 -4 15 -10 15 -5 0 -10 -7 -10 -15z"/>
<path d="M5100 405 c0 -24 -3 -25 -57 -25 -39 0 -53 -3 -43 -9 8 -6 18 -7 22
-5 4 3 8 -1 8 -8 1 -14 34 -58 44 -58 12 0 6 28 -9 40 -21 18 -19 27 8 25 33
-2 37 -59 5 -85 -13 -11 -30 -20 -38 -20 -8 0 -22 -5 -30 -10 -11 -7 -12 -12
-3 -21 9 -9 20 -5 48 20 20 17 38 31 40 31 3 0 5 -13 5 -29 0 -23 -5 -31 -22
-34 l-23 -4 23 -8 c12 -4 22 -12 22 -17 0 -5 5 -6 10 -3 6 3 10 27 10 52 l0
45 38 -28 c20 -15 40 -32 43 -37 8 -11 29 -1 29 14 0 5 -6 9 -13 9 -19 0 -85
59 -67 60 22 1 63 38 55 50 -3 6 4 14 16 18 15 6 19 11 10 16 -6 4 -18 5 -25
3 -8 -3 -16 3 -19 14 -3 10 -13 19 -23 19 -14 0 -15 -3 -6 -12 19 -19 14 -28
-13 -28 -26 0 -33 14 -14 26 8 4 7 9 -2 15 -23 14 -29 10 -29 -16z m90 -46 c0
-3 -11 -16 -24 -28 -28 -26 -46 -21 -46 12 0 19 5 23 35 22 19 0 35 -3 35 -6z"/>
<path d="M2808 413 c-38 -2 -68 -8 -68 -14 0 -5 8 -9 18 -7 14 2 17 -4 15 -32
-5 -67 -14 -98 -39 -135 -17 -25 -20 -36 -10 -32 8 3 18 2 21 -2 7 -12 44 -2
77 21 27 19 28 18 69 -2 25 -13 45 -18 51 -12 5 5 -7 16 -32 27 -42 19 -48 29
-27 42 16 10 47 59 47 73 0 6 -12 9 -27 8 -16 -2 -27 2 -26 7 1 6 5 23 8 38 4
15 3 26 -1 25 -5 -1 -39 -3 -76 -5z m48 -48 c-5 -19 -13 -25 -34 -25 -22 0
-28 5 -30 24 -1 21 3 25 31 28 41 4 41 4 33 -27z m-34 -92 l19 -32 -40 -21
c-59 -30 -66 -25 -37 26 14 26 26 56 27 68 0 14 2 16 6 6 3 -8 14 -29 25 -47z
m78 50 c0 -10 -42 -63 -49 -63 -8 0 -31 44 -31 60 0 5 18 8 40 8 22 0 40 -3
40 -5z"/>
<path d="M6400 409 c-56 -4 -69 -8 -52 -14 22 -7 23 -13 21 -64 -3 -52 -25
-104 -53 -123 -6 -4 -7 -10 -3 -14 13 -13 46 30 67 86 10 30 19 48 20 39 0 -9
10 -29 21 -44 24 -30 22 -34 -38 -61 -45 -20 -43 -38 2 -20 19 8 43 19 52 25
12 6 28 4 56 -11 21 -10 46 -17 54 -14 20 8 9 22 -24 29 -55 12 -59 22 -25 63
41 50 41 67 2 60 -32 -5 -36 3 -19 36 16 29 3 34 -81 27z m66 -25 c-3 -9 -6
-22 -6 -29 0 -8 -12 -13 -35 -12 -29 1 -35 5 -35 23 0 18 7 24 33 27 17 2 36
5 41 5 4 1 5 -5 2 -14z m17 -89 c-9 -19 -20 -35 -23 -35 -10 0 -36 32 -43 53
-5 14 0 17 38 17 l45 0 -17 -35z"/>
<path d="M1371 382 c-51 -60 -113 -122 -129 -131 -27 -15 -8 -23 60 -22 102 0
109 0 103 11 -3 6 -33 10 -66 10 -32 0 -59 1 -59 3 0 2 29 33 65 70 60 61 77
87 58 87 -5 0 -19 -13 -32 -28z"/>
<path d="M1470 398 c0 -4 4 -9 10 -13 6 -4 6 -15 -1 -32 -5 -14 -12 -42 -14
-62 -3 -20 -12 -41 -20 -47 -12 -9 -13 -13 -3 -16 24 -9 46 3 41 22 -8 31 15
60 47 60 34 0 55 29 46 65 -5 20 -13 24 -56 27 -27 1 -50 0 -50 -4z m79 -22
c15 -18 4 -44 -21 -52 -27 -8 -30 -2 -17 34 12 35 21 39 38 18z"/>
<path d="M1628 388 c-24 -24 -23 -29 12 -73 33 -41 34 -44 21 -63 -13 -21 -46
-10 -49 16 -4 26 -17 29 -26 6 -15 -38 -7 -49 36 -51 69 -2 88 45 44 110 -22
31 -23 37 -10 48 15 13 25 6 37 -26 6 -14 14 -4 22 25 5 23 3 25 -31 26 -24 0
-44 -6 -56 -18z"/>
<path d="M1799 402 c-24 -10 -67 -65 -74 -95 -5 -20 -1 -36 15 -60 23 -33 23
-33 64 -20 76 25 116 124 66 165 -23 19 -43 22 -71 10z m61 -49 c0 -58 -9 -78
-40 -96 -36 -22 -47 -21 -60 3 -7 14 -7 32 1 64 11 45 33 64 77 65 19 1 22 -4
22 -36z"/>
<path d="M2219 377 c-35 -46 -59 -86 -59 -97 0 -6 15 -10 34 -10 26 0 35 -5
39 -21 3 -12 10 -18 16 -15 6 4 8 13 4 21 -3 9 1 15 11 15 9 0 16 5 16 10 0 6
-6 10 -13 10 -10 0 -13 15 -12 56 1 30 -2 57 -5 59 -4 2 -18 -10 -31 -28z m17
-63 c-2 -11 -12 -20 -24 -22 -26 -4 -27 1 -5 39 18 31 34 21 29 -17z"/>
<path d="M2337 396 c-10 -8 -13 -16 -8 -17 16 -6 18 -128 2 -138 -15 -9 -4
-18 19 -16 46 5 46 5 29 15 -13 8 -16 25 -14 90 1 44 -1 80 -4 80 -3 0 -14 -7
-24 -14z"/>
<path d="M2436 394 c-11 -30 -6 -53 15 -64 16 -9 25 -8 40 6 24 21 24 36 1 57
-23 21 -48 22 -56 1z m42 -27 c2 -10 -3 -17 -12 -17 -18 0 -29 16 -21 31 9 14
29 6 33 -14z"/>
<path d="M3253 324 c-46 -45 -83 -86 -83 -91 0 -14 163 -10 167 5 4 9 -13 12
-63 12 l-68 0 73 74 c40 40 69 76 65 78 -5 2 -46 -33 -91 -78z"/>
<path d="M3755 398 c-69 -38 -96 -117 -54 -159 l21 -21 -24 -16 c-23 -17 -22
-17 37 -23 43 -4 66 -2 83 8 13 8 21 17 18 20 -3 3 -12 0 -20 -6 -8 -7 -27
-10 -43 -7 -15 2 -31 5 -35 5 -15 2 -8 21 7 21 35 0 77 33 96 73 24 54 24 59
-6 91 -26 28 -48 32 -80 14z m66 -20 c4 -29 -3 -82 -11 -98 -5 -10 -24 -23
-41 -30 -28 -12 -33 -12 -45 5 -20 27 -8 85 22 113 27 24 73 30 75 10z"/>
<path d="M4205 400 c-70 -31 -95 -101 -55 -152 26 -34 53 -36 74 -6 33 47 8
116 -36 103 l-23 -7 24 26 c14 14 30 26 38 26 7 0 13 5 13 10 0 12 -8 12 -35
0z m6 -90 c1 -5 2 -16 3 -22 4 -22 -14 -47 -28 -42 -16 6 -30 50 -21 64 8 13
45 13 46 0z"/>
<path d="M4302 399 c-31 -12 -37 -34 -18 -63 13 -21 13 -26 1 -36 -21 -17 -19
-44 4 -64 23 -21 56 -14 72 16 9 16 7 26 -9 48 -21 27 -21 28 -2 45 34 30 -2
71 -48 54z m28 -40 c0 -10 -4 -19 -9 -19 -12 0 -23 29 -15 41 8 14 24 0 24
-22z m-4 -104 c-9 -23 -26 -9 -26 23 0 24 1 25 16 10 10 -9 14 -24 10 -33z"/>
<path d="M4411 401 c-28 -18 -11 -80 22 -81 4 0 16 9 28 21 18 18 19 23 6 42
-16 25 -36 31 -56 18z m39 -36 c0 -8 -9 -15 -20 -15 -11 0 -20 7 -20 15 0 8 9
15 20 15 11 0 20 -7 20 -15z"/>
<path d="M5535 323 c-44 -47 -80 -88 -80 -92 0 -3 36 -5 80 -4 97 2 118 23 23
23 l-64 0 69 71 c37 40 65 75 60 79 -4 5 -44 -30 -88 -77z"/>
<path d="M5693 370 c-1 -19 -4 -44 -7 -55 -2 -11 -5 -28 -5 -37 -1 -9 -8 -24
-17 -32 -14 -15 -12 -16 17 -16 24 0 30 3 22 11 -11 11 4 69 17 69 4 0 14 -18
24 -40 11 -26 24 -40 36 -40 17 0 17 1 -1 37 -18 36 -18 37 1 55 23 21 26 51
8 66 -7 5 -31 11 -53 13 -40 4 -40 4 -42 -31z m78 4 c11 -14 10 -19 -10 -36
-30 -23 -45 -11 -32 25 12 31 23 34 42 11z"/>
<path d="M5894 400 c-63 -25 -95 -119 -54 -160 19 -19 19 -19 -8 -39 -15 -11
-22 -21 -17 -22 41 -5 123 -4 138 3 26 13 21 29 -6 17 -15 -7 -36 -7 -57 -2
l-34 9 45 21 c44 21 70 44 76 67 15 57 14 75 -6 95 -22 22 -43 25 -77 11z m64
-27 c16 -31 -9 -95 -46 -116 -45 -26 -66 -9 -59 46 9 68 81 116 105 70z"/>
<path d="M6036 389 c-23 -19 -17 -38 25 -91 25 -30 20 -58 -11 -58 -13 0 -24
10 -31 27 -11 29 -25 22 -31 -16 -3 -21 1 -24 39 -27 35 -3 45 0 57 18 22 31
20 42 -11 89 -21 31 -24 42 -14 52 10 9 17 7 32 -11 l19 -24 10 27 c5 14 10
27 10 29 0 10 -77 -2 -94 -15z"/>
<path d="M6900 374 c-92 -95 -110 -113 -110 -106 0 4 -5 -1 -11 -11 -6 -10 -9
-21 -6 -23 4 -4 105 -8 150 -5 9 1 17 6 17 11 0 6 -29 10 -66 10 l-67 0 29 29
c70 71 105 112 102 122 -2 5 -19 -7 -38 -27z"/>
<path d="M7202 395 c-22 -10 -39 -28 -52 -57 -25 -55 -25 -69 0 -96 l21 -22
-21 -17 c-11 -10 -20 -20 -20 -24 0 -11 131 -1 146 12 20 17 10 23 -13 8 -13
-7 -34 -9 -57 -5 -37 7 -41 26 -6 26 38 0 110 81 110 125 0 19 -44 65 -62 65
-7 -1 -28 -7 -46 -15z m62 -50 c-2 -60 -8 -76 -35 -91 -31 -17 -44 -17 -62 1
-35 35 26 140 77 133 18 -3 21 -9 20 -43z"/>
<path d="M7354 392 c-23 -22 -13 -64 23 -101 8 -7 13 -21 11 -30 -5 -24 -41
-20 -53 7 -11 24 -25 30 -25 10 0 -7 -3 -22 -6 -33 -5 -18 0 -21 33 -22 80 -3
107 50 53 102 -34 33 -38 50 -13 60 12 4 24 -1 35 -15 19 -23 20 -23 33 25 4
15 -76 13 -91 -3z"/>
<path d="M11178 383 c-7 -16 -23 -41 -37 -56 l-25 -28 47 6 c36 4 47 3 47 -8
0 -18 -57 -97 -70 -97 -6 0 -10 -4 -10 -10 0 -35 73 34 92 88 10 26 17 32 41
32 22 0 28 -4 23 -16 -3 -9 -6 -32 -6 -51 0 -33 -2 -35 -25 -29 -32 8 -32 -6
0 -20 33 -16 43 -2 51 69 6 53 8 56 30 51 37 -9 28 9 -16 34 -25 14 -40 30
-40 42 0 11 -7 20 -15 20 -8 0 -15 -4 -15 -10 0 -5 4 -10 8 -10 8 0 20 -20 33
-55 5 -13 -109 -16 -117 -3 -3 5 6 22 20 37 14 15 23 30 19 34 -13 13 -23 7
-35 -20z"/>
<path d="M3423 373 c0 -41 -21 -110 -38 -127 -21 -20 -19 -23 15 -23 22 0 30
5 29 16 -5 59 0 70 38 73 30 2 41 9 51 31 19 39 2 57 -53 57 -39 0 -42 -2 -42
-27z m68 1 c11 -14 10 -19 -10 -35 -39 -32 -50 -24 -31 25 11 30 22 33 41 10z"/>
<path d="M3546 384 c-10 -25 -1 -28 27 -9 15 10 28 12 31 6 4 -5 2 -12 -4 -16
-5 -3 -10 -15 -10 -25 0 -35 -32 -100 -48 -100 -12 0 -13 -3 -5 -11 7 -7 25
-9 49 -4 24 4 33 9 25 14 -9 6 -10 18 -3 47 6 21 13 51 16 67 4 18 13 27 26
27 11 0 20 -4 20 -10 0 -18 18 -10 23 10 5 19 0 20 -68 20 -58 0 -74 -3 -79
-16z"/>
<path d="M7009 391 c11 -7 10 -21 -8 -80 -12 -39 -27 -71 -33 -71 -18 0 -3
-10 22 -15 27 -5 47 4 31 14 -8 5 -8 16 0 39 9 26 17 32 38 32 30 0 61 27 61
51 0 27 -23 39 -74 39 -33 0 -46 -3 -37 -9z m81 -26 c0 -15 -38 -50 -46 -42
-12 12 17 66 32 60 8 -3 14 -11 14 -18z"/>
<path d="M10870 360 c-11 -21 -20 -56 -20 -76 0 -48 36 -113 63 -114 4 0 -2
13 -13 28 -17 22 -22 44 -22 95 0 58 3 70 23 87 20 16 21 19 7 20 -11 0 -26
-16 -38 -40z"/>
<path d="M10994 390 c-6 -6 -9 -33 -6 -60 4 -46 3 -50 -17 -50 -25 0 -25 -1
-5 39 24 49 10 48 -19 0 -30 -50 -27 -61 14 -54 26 5 29 2 29 -20 0 -16 6 -25
15 -25 9 0 15 10 15 26 0 14 4 23 10 19 6 -3 10 -1 10 4 0 6 -4 11 -10 11 -6
0 -10 27 -10 60 0 59 -6 70 -26 50z"/>
<path d="M11410 379 c22 -19 25 -29 25 -89 0 -53 -4 -73 -19 -89 -17 -18 -17
-21 -3 -21 29 0 50 46 51 111 0 54 -2 62 -28 84 -16 14 -34 25 -40 25 -6 -1 0
-10 14 -21z"/>
<path d="M3988 333 c-90 -5 -88 -23 2 -23 56 0 70 3 70 15 0 8 -1 14 -2 13 -2
-1 -33 -3 -70 -5z"/>
<path d="M4710 332 c0 -4 5 -13 12 -20 8 -8 8 -15 -3 -28 -12 -14 -11 -16 6
-13 18 4 39 52 27 63 -8 9 -42 7 -42 -2z"/>
<path d="M7660 326 c-27 -33 18 -72 48 -42 13 13 14 20 6 34 -15 23 -38 26
-54 8z m40 -21 c0 -8 -7 -15 -15 -15 -8 0 -15 7 -15 15 0 8 7 15 15 15 8 0 15
-7 15 -15z"/>
<path d="M1960 320 c0 -6 28 -10 65 -10 37 0 65 4 65 10 0 6 -28 10 -65 10
-37 0 -65 -4 -65 -10z"/>
<path d="M1964 272 c8 -13 126 -15 126 -3 0 7 -26 11 -66 11 -36 0 -63 -4 -60
-8z"/>
<path d="M3924 273 c10 -10 126 -12 132 -1 3 4 -27 8 -67 8 -40 0 -69 -3 -65
-7z"/>
<path d="M800 250 c-14 -10 -22 -22 -18 -25 7 -8 57 25 58 38 0 12 -14 8 -40
-13z"/>
<path d="M1731 196 c-10 -12 -2 -15 54 -18 62 -3 85 4 85 25 0 5 -7 4 -15 -3
-14 -11 -61 -8 -99 6 -7 3 -18 -2 -25 -10z"/>
</g>
</svg>
