<?xml version="1.0" standalone="no"?>
<!DOCTYPE svg PUBLIC "-//W3C//DTD SVG 20010904//EN"
 "http://www.w3.org/TR/2001/REC-SVG-20010904/DTD/svg10.dtd">
<svg version="1.0" xmlns="http://www.w3.org/2000/svg"
 width="1097.000000pt" height="450.000000pt" viewBox="0 0 1097.000000 450.000000"
 preserveAspectRatio="xMidYMid meet">
<metadata>
Created by potrace 1.16, written by Peter Selinger 2001-2019
</metadata>
<g transform="translate(0.000000,450.000000) scale(0.100000,-0.100000)"
fill="#000000" stroke="none">
<path d="M1280 4124 c0 -26 -2 -26 -45 -21 l-46 5 2 -59 c1 -33 6 -59 11 -59
4 0 8 5 8 10 0 6 16 10 36 10 36 0 36 0 32 -40 -2 -22 0 -40 4 -40 5 0 8 18 8
40 0 39 1 40 35 40 19 0 35 -4 35 -10 0 -5 5 -10 10 -10 6 0 10 26 10 59 l0
59 -46 -6 c-47 -5 -47 -5 -40 22 4 15 2 26 -4 26 -5 0 -10 -12 -10 -26z m-2
-71 c-2 -23 -8 -27 -33 -28 -25 0 -30 4 -33 28 -3 25 -1 27 33 27 34 0 36 -2
33 -27z m80 0 c-2 -23 -8 -27 -33 -28 -25 0 -30 4 -33 28 -3 25 -1 27 33 27
34 0 36 -2 33 -27z"/>
<path d="M940 4037 l0 -102 97 2 98 1 3 102 c2 75 0 101 -9 98 -8 -3 -11 -31
-10 -91 2 -71 -1 -87 -12 -87 -11 0 -14 11 -12 44 1 24 5 48 9 55 4 6 1 11 -8
11 -18 0 -20 13 -7 38 8 15 3 18 -40 19 -45 1 -49 -1 -49 -22 0 -14 7 -25 18
-28 9 -3 -2 -5 -25 -6 -37 -1 -41 1 -38 19 6 30 15 41 28 34 7 -4 9 -3 4 1 -4
5 -16 10 -27 12 -19 3 -20 -3 -20 -100z m113 56 c-7 -2 -21 -2 -30 0 -10 3 -4
5 12 5 17 0 24 -2 18 -5z m-20 -40 l-53 -4 0 -45 c0 -32 -4 -44 -12 -42 -8 3
-13 23 -13 51 l0 47 65 -2 c63 -2 64 -2 13 -5z m20 -40 c-3 -7 -11 -13 -19
-13 -8 0 -14 6 -14 13 0 7 8 13 19 13 11 0 17 -5 14 -13z m23 -31 c-12 -11
-18 7 -10 30 l8 23 4 -23 c2 -13 1 -26 -2 -30z m-13 -19 c-13 -2 -33 -2 -45 0
-13 2 -3 4 22 4 25 0 35 -2 23 -4z"/>
<path d="M1498 4135 c-3 -3 -16 -8 -28 -10 -12 -2 -24 -6 -25 -7 -1 -2 -5 -46
-7 -98 -5 -84 -4 -92 8 -65 7 17 13 38 14 48 0 15 7 18 31 15 30 -3 32 -1 36
35 3 29 0 38 -9 35 -8 -3 -12 -16 -10 -31 3 -23 0 -27 -22 -27 -19 0 -26 5
-26 19 0 11 6 22 13 24 10 4 10 6 0 6 -29 2 -11 30 22 37 19 3 35 10 35 15 0
10 -23 12 -32 4z"/>
<path d="M1595 4131 c-11 -5 -28 -7 -37 -5 -16 2 -18 -6 -18 -62 0 -39 -6 -77
-15 -94 -9 -17 -11 -30 -6 -30 17 0 35 32 40 73 4 28 11 42 21 42 12 0 14 -12
11 -64 -2 -50 0 -62 10 -59 10 3 14 22 14 59 0 39 4 56 15 60 26 11 6 23 -32
20 -32 -2 -38 0 -38 18 0 15 9 22 35 27 19 3 35 10 35 15 0 11 -8 11 -35 0z"/>
<path d="M2050 4131 c-14 -4 -37 -6 -52 -4 -20 3 -31 -3 -47 -26 -25 -35 -26
-42 -5 -34 13 5 15 -1 11 -41 -3 -26 -13 -58 -22 -72 -16 -25 -16 -25 3 -15
11 6 22 7 26 3 8 -8 26 17 26 37 0 11 -3 11 -17 0 -14 -12 -16 -12 -11 1 3 11
25 16 77 20 l72 5 -3 -25 c-4 -31 -34 -39 -43 -11 -6 21 -25 29 -25 11 0 -15
42 -50 61 -50 18 0 24 12 33 63 4 22 1 27 -14 27 -13 0 -17 5 -14 15 4 10 0
15 -10 15 -11 0 -16 7 -14 18 2 11 -3 17 -17 17 -11 0 -21 8 -23 18 -6 30 44
22 52 -8 4 -14 13 -25 21 -25 19 0 19 14 0 30 -8 7 -15 19 -15 26 0 15 -11 16
-50 5z m-25 -40 c0 -8 9 -17 20 -22 24 -9 21 -11 -28 -13 -27 -1 -36 2 -33 11
3 7 1 13 -4 13 -6 0 -10 7 -10 16 0 11 8 14 28 12 15 -2 27 -9 27 -17z m65
-61 c0 -6 -27 -10 -61 -10 -37 0 -58 4 -54 10 3 6 31 10 61 10 30 0 54 -4 54
-10z"/>
<path d="M284 4116 c-10 -8 -15 -18 -11 -22 4 -5 12 -2 17 5 10 17 40 7 40
-13 0 -9 -10 -21 -22 -27 l-23 -12 28 -10 c41 -13 32 -41 -16 -45 -43 -4 -41
-22 2 -22 40 0 50 17 48 85 -1 74 -20 92 -63 61z"/>
<path d="M395 4107 c-4 -13 -4 -36 -2 -53 3 -24 8 -29 30 -28 22 0 24 -3 16
-19 -6 -10 -20 -22 -32 -27 -22 -9 -22 -9 1 -9 37 -1 80 51 78 93 -1 42 -15
57 -55 62 -25 3 -32 -1 -36 -19z m61 -23 c8 -33 -9 -52 -31 -34 -15 13 -20 42
-8 53 14 15 33 6 39 -19z"/>
<path d="M1710 4118 c0 -5 34 -8 75 -8 41 0 75 4 75 8 0 5 -34 8 -75 8 -41 -1
-75 -4 -75 -8z"/>
<path d="M1765 4070 c-55 -3 -93 -8 -85 -9 8 -2 32 -3 53 -2 l37 3 0 -66 c0
-84 18 -87 22 -3 3 66 1 64 66 66 17 0 32 6 32 11 0 6 -6 9 -12 8 -7 -1 -58
-5 -113 -8z"/>
<path d="M1719 4025 c-1 -3 -2 -10 -3 -16 0 -5 -12 -19 -26 -29 -14 -10 -22
-22 -18 -26 9 -9 33 10 59 48 17 23 18 28 5 28 -9 0 -17 -2 -17 -5z"/>
<path d="M1832 4013 c9 -10 19 -28 22 -40 9 -28 26 -30 26 -3 0 11 -4 20 -9
20 -5 0 -11 9 -14 20 -3 11 -13 20 -23 20 -15 0 -16 -2 -2 -17z"/>
<path d="M515 3980 c3 -5 10 -10 16 -10 5 0 9 5 9 10 0 6 -7 10 -16 10 -8 0
-12 -4 -9 -10z"/>
<path d="M2010 3966 c0 -14 5 -26 10 -26 6 0 10 9 10 19 0 11 -4 23 -10 26 -6
4 -10 -5 -10 -19z"/>
<path d="M2075 3980 c3 -5 8 -10 11 -10 2 0 4 5 4 10 0 6 -5 10 -11 10 -5 0
-7 -4 -4 -10z"/>
<path d="M6170 3570 c-13 -8 -12 -10 3 -10 13 0 17 -9 19 -35 0 -19 1 -41 2
-47 1 -7 -9 -17 -21 -23 -13 -5 -23 -15 -23 -22 0 -24 18 -13 64 41 44 52 62
91 42 91 -6 0 -11 -11 -12 -24 -4 -30 -28 -48 -32 -23 -11 66 -14 70 -42 52z"/>
<path d="M3564 3496 c-17 -44 27 -73 60 -41 12 12 13 21 6 36 -13 22 -58 26
-66 5z m46 -22 c0 -8 -7 -14 -15 -14 -15 0 -21 21 -9 33 10 9 24 -2 24 -19z"/>
<path d="M6328 3448 c-13 -24 -32 -62 -42 -85 -11 -24 -23 -43 -28 -43 -4 0
-8 -7 -8 -15 0 -8 6 -15 13 -15 14 0 17 6 57 93 12 26 23 47 24 47 1 0 1 -48
0 -107 -1 -60 -2 -199 -3 -310 l-1 -203 -46 0 c-27 0 -43 -4 -39 -10 3 -5 26
-10 50 -10 36 0 43 -3 40 -17 -1 -10 -6 -409 -10 -888 -4 -478 -9 -872 -11
-875 -3 -2 -19 -5 -37 -6 -47 -3 -49 -3 -42 -14 3 -5 24 -10 47 -10 l40 0 -4
-135 -3 -135 -223 0 c-175 0 -223 -3 -219 -12 4 -13 41 -15 352 -17 l90 -1 -3
-215 c-2 -192 -1 -214 13 -209 14 6 16 34 15 213 l-2 206 846 0 846 0 0 -22
c0 -13 5 -23 10 -23 6 0 10 10 10 23 0 22 1 22 153 20 83 0 459 -2 835 -3
l682 -2 0 -24 c0 -13 5 -24 10 -24 6 0 10 10 10 23 l0 22 385 -3 c268 -2 385
0 385 7 0 6 -3 10 -7 10 -5 -1 -178 -1 -385 0 l-378 1 0 45 c0 25 -5 45 -10
45 -6 0 -10 -6 -9 -12 1 -7 1 -28 0 -47 l-1 -34 -552 6 c-304 4 -680 7 -835 7
l-283 0 0 30 c0 17 -4 30 -10 30 -5 0 -10 -13 -10 -29 l0 -28 -557 4 c-307 2
-689 6 -850 9 l-292 6 4 52 c2 28 4 88 4 134 l1 82 45 0 c25 0 45 5 45 10 0
11 -16 14 -66 12 l-30 -1 3 147 c1 81 4 482 7 891 3 409 7 745 10 748 12 12
150 -40 198 -75 72 -51 180 -155 231 -221 23 -30 50 -63 60 -73 9 -10 17 -24
17 -32 0 -8 7 -16 15 -20 8 -3 15 -11 15 -18 0 -7 14 -28 30 -47 17 -18 30
-40 30 -47 0 -8 4 -14 8 -14 5 0 22 -24 37 -52 16 -29 31 -55 35 -58 4 -3 10
-12 13 -20 4 -8 25 -42 47 -75 22 -33 47 -77 56 -97 9 -21 20 -38 25 -38 5 0
9 -8 9 -18 0 -11 9 -27 20 -37 11 -10 23 -27 26 -39 4 -11 17 -35 30 -52 13
-17 24 -34 24 -37 0 -7 73 -124 89 -143 5 -6 12 -20 15 -32 4 -12 12 -22 17
-22 5 0 9 -4 9 -10 0 -14 81 -130 91 -130 5 0 9 -5 9 -11 0 -10 117 -156 174
-217 63 -66 182 -146 227 -151 6 0 9 -8 6 -16 -4 -8 -2 -17 3 -20 6 -4 10 2
10 12 0 14 2 15 9 4 5 -7 13 -11 18 -8 6 4 24 2 41 -3 19 -5 43 -5 59 1 16 5
59 18 97 30 38 12 76 29 86 38 10 9 35 27 55 41 47 31 138 120 185 180 19 24
43 52 53 62 9 10 17 22 17 26 0 5 9 17 20 27 11 10 20 23 20 30 0 7 9 20 21
31 12 10 30 36 40 57 11 20 24 37 29 37 5 0 12 9 15 21 6 18 18 39 65 109 6 8
20 31 32 50 66 105 88 143 88 149 0 4 8 16 18 27 14 15 80 118 167 262 6 10
28 43 50 75 22 32 45 66 50 75 6 9 12 19 16 22 3 3 25 34 50 70 87 126 230
268 315 312 25 12 56 29 70 36 14 7 43 15 64 17 52 5 80 14 80 26 0 13 -100 8
-100 -5 0 -6 -8 -2 -17 9 -11 15 -14 16 -10 3 6 -16 -11 -26 -70 -43 -13 -3
-23 -10 -23 -15 0 -4 -21 -21 -47 -36 -61 -36 -183 -152 -230 -221 -20 -29
-40 -53 -43 -53 -4 0 -10 -8 -14 -17 -3 -10 -21 -38 -41 -63 -19 -25 -43 -60
-52 -77 -9 -18 -20 -33 -25 -33 -4 0 -8 -6 -8 -13 0 -8 -11 -27 -25 -43 -13
-15 -30 -41 -36 -56 -6 -15 -16 -28 -21 -28 -5 0 -17 -19 -28 -42 -22 -47 -38
-75 -58 -96 -7 -8 -22 -33 -34 -56 -11 -22 -25 -44 -30 -47 -5 -3 -10 -13 -12
-21 -1 -9 -14 -32 -29 -51 -15 -20 -27 -38 -27 -41 0 -2 -19 -33 -42 -68 -24
-35 -43 -65 -43 -68 0 -3 -12 -21 -28 -41 -15 -20 -27 -39 -27 -44 0 -4 -17
-28 -38 -54 -21 -25 -55 -72 -77 -104 -22 -32 -48 -63 -58 -68 -9 -6 -15 -14
-12 -19 3 -5 -3 -15 -15 -22 -11 -7 -20 -17 -20 -21 0 -8 -59 -65 -103 -99
-12 -9 -36 -28 -53 -42 -16 -13 -57 -37 -90 -52 -50 -24 -71 -28 -144 -28 -75
1 -93 5 -149 32 -36 18 -73 41 -83 52 -10 11 -22 20 -26 20 -11 0 -101 92
-155 157 -68 83 -203 266 -205 278 -1 6 -9 18 -18 29 -9 10 -17 24 -18 30 -1
6 -12 26 -24 43 -12 17 -22 35 -22 40 0 6 -9 18 -21 29 -11 10 -27 32 -35 49
-16 34 -26 52 -69 115 -16 25 -29 47 -29 50 2 6 -42 80 -102 175 -24 39 -52
83 -61 99 -121 198 -262 377 -363 461 -33 28 -69 57 -79 67 -11 9 -40 25 -65
37 -25 11 -46 24 -46 29 0 6 -6 10 -12 9 -7 0 -32 1 -56 1 l-44 2 3 309 c3
251 6 308 16 299 7 -6 13 -16 13 -23 0 -16 32 -79 43 -83 4 -2 4 -8 1 -14 -4
-6 -2 -9 5 -7 6 2 11 9 11 14 0 16 -84 185 -91 185 -4 0 -18 -19 -31 -42z"/>
<path d="M3465 3440 c24 -26 13 -70 -17 -70 -17 0 -19 -3 -10 -12 10 -9 16 -8
29 4 14 15 18 15 27 2 10 -13 14 -13 31 1 17 14 17 16 3 11 -10 -3 -18 -2 -19
2 -1 4 -2 19 -3 33 -4 36 -14 49 -38 49 -20 0 -20 -1 -3 -20z"/>
<path d="M3517 3453 c-13 -12 -7 -23 13 -23 11 0 20 7 20 15 0 15 -21 21 -33
8z"/>
<path d="M1630 3340 c-11 -22 -18 -40 -14 -40 3 0 -4 -15 -15 -34 -26 -41 -26
-46 -2 -46 14 0 18 6 16 25 -3 22 0 25 32 25 32 0 35 -2 31 -25 -4 -21 -1 -25
18 -25 28 0 26 13 -10 89 -14 30 -23 58 -20 63 3 4 1 8 -5 8 -6 0 -20 -18 -31
-40z m30 -19 c0 -5 3 -16 6 -25 4 -12 0 -16 -15 -16 -22 0 -25 8 -15 34 7 17
24 22 24 7z"/>
<path d="M3875 3360 c-4 -14 -12 -19 -24 -15 -15 5 -17 -4 -20 -74 -2 -74 9
-111 23 -76 6 17 46 21 46 5 0 -5 5 -10 10 -10 6 0 10 21 10 46 0 54 25 84 72
84 30 0 32 -3 29 -70 -3 -56 -8 -63 -36 -56 -13 3 -26 2 -29 -3 -7 -10 41 -21
60 -14 11 4 21 57 27 143 2 23 -1 24 -36 21 -35 -2 -38 -1 -32 18 12 38 -14
22 -34 -21 -16 -33 -20 -37 -18 -18 2 21 -2 25 -21 23 -20 -3 -21 0 -12 17 7
12 7 20 1 20 -5 0 -13 -9 -16 -20z m23 -58 c3 -16 -2 -22 -17 -22 -23 0 -35
15 -28 35 9 21 42 11 45 -13z m0 -54 c-2 -15 -10 -23 -23 -23 -13 0 -21 8 -23
23 -3 18 1 22 23 22 22 0 26 -4 23 -22z"/>
<path d="M4100 3275 l0 -100 97 1 98 1 2 64 c2 35 4 79 6 97 2 17 1 32 -3 32
-3 1 -49 2 -103 3 l-97 2 0 -100z m93 78 c-42 -4 -58 -23 -33 -38 6 -4 9 -1 8
7 -2 8 8 14 25 16 19 2 27 -1 27 -12 0 -22 20 -20 21 2 1 9 1 20 0 25 0 4 8 7
19 7 17 0 19 -6 16 -62 -2 -35 -4 -73 -5 -85 -1 -21 -6 -23 -62 -23 -40 0 -58
4 -54 11 4 6 28 9 54 7 l46 -3 3 51 c3 50 2 51 -23 47 -15 -3 -25 -1 -25 6 0
6 -7 11 -15 11 -8 0 -15 -5 -15 -11 0 -6 -10 -9 -23 -7 -22 4 -22 2 -20 -54 1
-32 -2 -58 -7 -58 -6 0 -10 37 -10 85 l0 85 58 -2 c49 -1 51 -2 15 -5z m31
-78 c-10 -8 -23 -14 -29 -14 -5 0 -19 6 -29 14 -18 14 -16 15 29 15 45 0 47
-1 29 -15z m16 -30 c0 -14 -4 -25 -10 -25 -5 0 -10 11 -10 25 0 14 5 25 10 25
6 0 10 -11 10 -25z m-32 -7 c-3 -7 -8 -13 -13 -13 -5 0 -10 6 -12 13 -3 6 3
12 12 12 9 0 15 -6 13 -12z"/>
<path d="M4374 3343 c-9 -21 -21 -46 -26 -57 -7 -13 -7 -16 1 -12 7 5 11 -11
11 -48 0 -31 5 -56 10 -56 6 0 10 28 10 65 0 36 6 81 14 100 9 21 11 37 5 41
-5 3 -17 -12 -25 -33z"/>
<path d="M2655 3288 c0 -75 1 -78 24 -78 17 0 22 4 17 16 -3 9 -6 44 -6 79 0
55 -3 64 -17 62 -16 -1 -18 -12 -18 -79z"/>
<path d="M2942 3358 c-19 -19 -14 -29 8 -16 17 11 22 10 29 -1 12 -18 3 -41
-15 -41 -21 0 -17 -17 5 -23 20 -5 22 -21 8 -45 -5 -7 -18 -10 -34 -6 -18 5
-24 3 -19 -5 9 -14 41 -14 67 -1 21 12 25 41 8 73 -9 16 -9 22 0 25 18 6 13
30 -8 42 -25 13 -34 13 -49 -2z"/>
<path d="M4422 3345 c-25 -31 -16 -72 14 -67 12 1 7 -4 -11 -15 -34 -19 -18
-31 17 -12 21 11 22 11 9 -4 -7 -10 -22 -17 -32 -17 -11 0 -19 -5 -19 -10 0
-6 15 -4 36 5 45 19 50 19 35 1 -7 -8 -26 -18 -42 -21 -16 -4 -29 -11 -29 -17
0 -6 10 -8 25 -4 14 4 25 2 25 -4 0 -5 11 -10 25 -10 20 0 25 5 25 27 l0 26
25 -23 c20 -18 28 -21 37 -12 7 7 8 12 3 12 -6 0 -19 7 -30 16 -17 12 -18 16
-5 24 8 5 15 27 17 50 3 39 2 40 -23 34 -23 -6 -25 -4 -19 15 5 17 2 21 -14
21 -10 0 -26 3 -34 6 -9 3 -23 -6 -35 -21z m68 -5 c0 -6 -6 -13 -14 -16 -8 -3
-12 -12 -9 -20 4 -10 -3 -14 -21 -14 -30 0 -32 7 -10 38 15 22 54 31 54 12z
m40 -41 c0 -5 -11 -9 -25 -9 -17 0 -23 4 -19 14 6 15 44 10 44 -5z m-1 -28 c2
-1 -2 -8 -9 -16 -10 -12 -16 -13 -26 -4 -29 24 -17 30 35 20z m-49 -76 c0 -8
-4 -15 -10 -15 -5 0 -10 7 -10 15 0 8 5 15 10 15 6 0 10 -7 10 -15z"/>
<path d="M2810 3328 c-4 -11 -7 -26 -9 -38 0 -5 -13 -11 -28 -11 l-28 -1 30
-7 c25 -5 30 -11 29 -34 -1 -15 3 -27 7 -27 5 0 9 13 9 29 0 25 5 30 28 34
l27 4 -27 2 c-21 1 -28 7 -31 29 -2 15 -5 24 -7 20z"/>
<path d="M2303 3308 c11 -8 18 -28 19 -54 1 -46 -6 -64 -28 -64 -8 0 -14 -4
-14 -10 0 -21 24 -9 60 30 20 22 35 42 33 44 -2 2 3 9 12 16 20 16 19 50 -1
50 -10 0 -13 -6 -9 -19 3 -11 -3 -28 -14 -42 l-20 -24 -1 43 c0 39 -2 42 -27
42 -24 0 -25 -1 -10 -12z"/>
<path d="M3080 3301 c-34 -64 19 -122 65 -71 21 23 14 26 -15 8 -17 -11 -22
-10 -30 2 -15 23 -7 64 13 68 10 2 17 -3 17 -12 0 -9 5 -16 10 -16 6 0 10 9
10 20 0 28 -55 28 -70 1z"/>
<path d="M3173 3291 c-10 -42 8 -76 44 -79 37 -4 63 25 55 63 -9 49 -87 62
-99 16z m67 -1 c14 -26 3 -69 -17 -66 -25 4 -37 35 -24 62 13 29 27 31 41 4z"/>
<path d="M3290 3299 c0 -12 12 -32 26 -44 21 -18 23 -23 10 -28 -8 -3 -18 -2
-21 3 -10 15 -25 12 -25 -6 0 -12 9 -14 38 -12 32 3 37 6 37 28 0 16 -8 28
-22 35 -25 11 -32 38 -8 29 8 -4 15 -10 15 -15 0 -5 5 -9 10 -9 20 0 9 28 -12
34 -38 10 -48 7 -48 -15z"/>
<path d="M2460 3295 c0 -12 10 -14 53 -11 28 3 55 5 60 6 4 0 7 5 7 10 0 6
-27 10 -60 10 -47 0 -60 -3 -60 -15z"/>
<path d="M4680 3276 c0 -29 11 -39 35 -30 24 10 15 48 -12 52 -19 3 -23 -1
-23 -22z m35 -6 c-3 -5 -10 -10 -16 -10 -5 0 -9 5 -9 10 0 6 7 10 16 10 8 0
12 -4 9 -10z"/>
<path d="M3967 3270 c19 -22 29 -19 20 5 -4 8 -13 15 -22 15 -13 0 -12 -3 2
-20z"/>
<path d="M3405 3270 c7 -12 255 -14 255 -2 0 5 -59 9 -130 10 -84 1 -129 -2
-125 -8z"/>
<path d="M2463 3258 c2 -7 11 -13 20 -12 10 0 35 1 57 2 64 3 46 22 -21 22
-44 0 -60 -3 -56 -12z"/>
<path d="M1756 3241 c-4 -7 -5 -15 -2 -18 9 -9 19 4 14 18 -4 11 -6 11 -12 0z"/>
<path d="M3480 3165 c-19 -22 -3 -31 18 -11 11 9 26 14 36 10 28 -11 18 -47
-25 -92 l-41 -42 55 0 c40 0 56 4 61 15 4 13 -2 14 -37 9 -42 -5 -42 -5 -21
13 34 30 54 76 43 96 -13 22 -72 23 -89 2z"/>
<path d="M6120 2855 c-15 -18 -7 -31 11 -19 9 5 59 13 59 9 0 0 -9 -24 -20
-53 -21 -55 -25 -82 -12 -82 8 0 41 89 49 133 5 26 3 27 -35 27 -23 0 -45 -6
-52 -15z"/>
<path d="M6490 2799 c0 -5 5 -7 10 -4 6 3 10 8 10 11 0 2 -4 4 -10 4 -5 0 -10
-5 -10 -11z"/>
<path d="M6554 2798 c-3 -5 9 -8 25 -8 17 0 31 4 31 10 0 11 -49 9 -56 -2z"/>
<path d="M6655 2800 c-3 -5 1 -10 10 -10 9 0 13 5 10 10 -3 6 -8 10 -10 10 -2
0 -7 -4 -10 -10z"/>
<path d="M6690 2800 c0 -5 5 -10 10 -10 6 0 10 5 10 10 0 6 -4 10 -10 10 -5 0
-10 -4 -10 -10z"/>
<path d="M6720 2800 c0 -5 5 -10 10 -10 6 0 10 5 10 10 0 6 -4 10 -10 10 -5 0
-10 -4 -10 -10z"/>
<path d="M6755 2800 c-3 -5 -1 -10 4 -10 6 0 11 5 11 10 0 6 -2 10 -4 10 -3 0
-8 -4 -11 -10z"/>
<path d="M6780 2800 c0 -5 7 -10 15 -10 8 0 15 5 15 10 0 6 -7 10 -15 10 -8 0
-15 -4 -15 -10z"/>
<path d="M6820 2800 c0 -5 5 -10 10 -10 6 0 10 5 10 10 0 6 -4 10 -10 10 -5 0
-10 -4 -10 -10z"/>
<path d="M6855 2800 c3 -5 8 -10 11 -10 2 0 4 5 4 10 0 6 -5 10 -11 10 -5 0
-7 -4 -4 -10z"/>
<path d="M6885 2800 c6 -10 55 -9 55 1 0 4 -13 7 -30 7 -16 -1 -27 -4 -25 -8z"/>
<path d="M6955 2800 c-3 -5 -1 -10 4 -10 6 0 11 5 11 10 0 6 -2 10 -4 10 -3 0
-8 -4 -11 -10z"/>
<path d="M6990 2800 c0 -5 5 -10 11 -10 5 0 7 5 4 10 -3 6 -8 10 -11 10 -2 0
-4 -4 -4 -10z"/>
<path d="M7020 2800 c0 -5 5 -10 10 -10 6 0 10 5 10 10 0 6 -4 10 -10 10 -5 0
-10 -4 -10 -10z"/>
<path d="M7055 2800 c-3 -5 1 -10 10 -10 9 0 13 5 10 10 -3 6 -8 10 -10 10 -2
0 -7 -4 -10 -10z"/>
<path d="M7090 2800 c0 -5 5 -10 10 -10 6 0 10 5 10 10 0 6 -4 10 -10 10 -5 0
-10 -4 -10 -10z"/>
<path d="M7120 2799 c0 -5 11 -9 25 -9 33 0 33 15 0 16 -14 1 -25 -2 -25 -7z"/>
<path d="M7190 2800 c0 -5 5 -10 11 -10 5 0 7 5 4 10 -3 6 -8 10 -11 10 -2 0
-4 -4 -4 -10z"/>
<path d="M7225 2800 c-3 -5 -1 -10 4 -10 6 0 11 5 11 10 0 6 -2 10 -4 10 -3 0
-8 -4 -11 -10z"/>
<path d="M7250 2800 c0 -5 7 -10 15 -10 8 0 15 5 15 10 0 6 -7 10 -15 10 -8 0
-15 -4 -15 -10z"/>
<path d="M7295 2800 c-3 -5 -1 -10 4 -10 6 0 11 5 11 10 0 6 -2 10 -4 10 -3 0
-8 -4 -11 -10z"/>
<path d="M7320 2800 c0 -5 5 -10 10 -10 6 0 10 5 10 10 0 6 -4 10 -10 10 -5 0
-10 -4 -10 -10z"/>
<path d="M7350 2798 c0 -4 7 -8 15 -8 8 0 15 4 15 8 0 5 -7 9 -15 9 -8 0 -15
-4 -15 -9z"/>
<path d="M7390 2794 c0 -8 5 -12 10 -9 6 4 8 11 5 16 -9 14 -15 11 -15 -7z"/>
<path d="M7420 2800 c0 -5 5 -10 11 -10 5 0 7 5 4 10 -3 6 -8 10 -11 10 -2 0
-4 -4 -4 -10z"/>
<path d="M7482 2799 c3 -8 8 -13 11 -11 9 3 7 11 -5 18 -6 4 -8 0 -6 -7z"/>
<path d="M7527 2803 c-4 -3 -7 -11 -7 -17 0 -6 5 -5 12 2 6 6 9 14 7 17 -3 3
-9 2 -12 -2z"/>
<path d="M7555 2801 c-3 -5 -1 -12 5 -16 5 -3 10 1 10 9 0 18 -6 21 -15 7z"/>
<path d="M7585 2801 c-6 -11 9 -23 19 -14 9 9 7 23 -3 23 -6 0 -12 -4 -16 -9z"/>
<path d="M7620 2795 c0 -8 5 -15 10 -15 6 0 10 7 10 15 0 8 -4 15 -10 15 -5 0
-10 -7 -10 -15z"/>
<path d="M7661 2794 c0 -11 3 -14 6 -6 3 7 2 16 -1 19 -3 4 -6 -2 -5 -13z"/>
<path d="M7686 2802 c-3 -6 -1 -14 5 -17 15 -10 25 3 12 16 -7 7 -13 7 -17 1z"/>
<path d="M7720 2795 c0 -8 5 -15 10 -15 6 0 10 7 10 15 0 8 -4 15 -10 15 -5 0
-10 -7 -10 -15z"/>
<path d="M7755 2801 c-3 -5 -1 -12 5 -16 5 -3 10 1 10 9 0 18 -6 21 -15 7z"/>
<path d="M7783 2798 c-5 -9 -5 -9 30 -14 17 -2 27 2 27 11 0 14 -48 16 -57 3z"/>
<path d="M7855 2801 c-3 -5 -1 -12 5 -16 5 -3 10 1 10 9 0 18 -6 21 -15 7z"/>
<path d="M7886 2802 c-8 -14 -9 -13 27 -18 19 -2 27 2 27 12 0 11 -4 12 -19 4
-14 -7 -21 -6 -23 2 -3 9 -6 9 -12 0z"/>
<path d="M7950 2796 c0 -9 5 -16 10 -16 6 0 10 4 10 9 0 6 -4 13 -10 16 -5 3
-10 -1 -10 -9z"/>
<path d="M8016 2802 c-3 -6 -1 -14 5 -17 15 -10 25 3 12 16 -7 7 -13 7 -17 1z"/>
<path d="M8050 2796 c0 -9 5 -16 10 -16 6 0 10 4 10 9 0 6 -4 13 -10 16 -5 3
-10 -1 -10 -9z"/>
<path d="M8085 2801 c-3 -5 -1 -12 5 -16 5 -3 10 1 10 9 0 18 -6 21 -15 7z"/>
<path d="M8156 2801 c-4 -7 -5 -15 -2 -18 9 -9 19 4 14 18 -4 11 -6 11 -12 0z"/>
<path d="M8185 2801 c-3 -5 -1 -12 5 -16 5 -3 10 1 10 9 0 18 -6 21 -15 7z"/>
<path d="M8251 2801 c-8 -5 -21 -7 -29 -3 -9 3 -13 1 -9 -5 10 -16 57 -13 57
3 0 16 -1 16 -19 5z"/>
<path d="M8286 2801 c-4 -7 -5 -15 -2 -18 9 -9 19 4 14 18 -4 11 -6 11 -12 0z"/>
<path d="M8356 2801 c-4 -7 -5 -15 -2 -18 9 -9 19 4 14 18 -4 11 -6 11 -12 0z"/>
<path d="M8380 2795 c0 -8 5 -15 10 -15 6 0 10 7 10 15 0 8 -4 15 -10 15 -5 0
-10 -7 -10 -15z"/>
<path d="M8460 2800 c-28 -9 -27 -11 13 -16 18 -2 27 2 27 12 0 15 -3 16 -40
4z"/>
<path d="M7455 2790 c3 -5 8 -10 11 -10 2 0 4 5 4 10 0 6 -5 10 -11 10 -5 0
-7 -4 -4 -10z"/>
<path d="M7985 2790 c3 -5 8 -10 11 -10 2 0 4 5 4 10 0 6 -5 10 -11 10 -5 0
-7 -4 -4 -10z"/>
<path d="M8115 2790 c4 -6 11 -8 16 -5 14 9 11 15 -7 15 -8 0 -12 -5 -9 -10z"/>
<path d="M8315 2790 c3 -5 8 -10 11 -10 2 0 4 5 4 10 0 6 -5 10 -11 10 -5 0
-7 -4 -4 -10z"/>
<path d="M8415 2790 c3 -5 8 -10 11 -10 2 0 4 5 4 10 0 6 -5 10 -11 10 -5 0
-7 -4 -4 -10z"/>
<path d="M8510 2790 c0 -5 5 -10 10 -10 6 0 10 5 10 10 0 6 -4 10 -10 10 -5 0
-10 -4 -10 -10z"/>
<path d="M8545 2790 c6 -10 55 -9 55 1 0 4 -13 7 -30 7 -16 -1 -27 -4 -25 -8z"/>
<path d="M8610 2790 c0 -5 5 -10 10 -10 6 0 10 5 10 10 0 6 -4 10 -10 10 -5 0
-10 -4 -10 -10z"/>
<path d="M8645 2790 c3 -5 8 -10 11 -10 2 0 4 5 4 10 0 6 -5 10 -11 10 -5 0
-7 -4 -4 -10z"/>
<path d="M8675 2790 c3 -5 10 -10 16 -10 5 0 9 5 9 10 0 6 -7 10 -16 10 -8 0
-12 -4 -9 -10z"/>
<path d="M8710 2790 c0 -5 5 -10 10 -10 6 0 10 5 10 10 0 6 -4 10 -10 10 -5 0
-10 -4 -10 -10z"/>
<path d="M8740 2790 c0 -5 5 -10 10 -10 6 0 10 5 10 10 0 6 -4 10 -10 10 -5 0
-10 -4 -10 -10z"/>
<path d="M8772 2788 c3 -7 15 -12 28 -12 13 0 25 5 28 12 2 8 -7 12 -28 12
-21 0 -30 -4 -28 -12z"/>
<path d="M8840 2784 c0 -8 5 -12 10 -9 6 3 10 10 10 16 0 5 -4 9 -10 9 -5 0
-10 -7 -10 -16z"/>
<path d="M8872 2788 c3 -7 15 -12 28 -12 13 0 25 5 28 12 2 8 -7 12 -28 12
-21 0 -30 -4 -28 -12z"/>
<path d="M8945 2790 c-3 -5 -1 -10 4 -10 6 0 11 5 11 10 0 6 -2 10 -4 10 -3 0
-8 -4 -11 -10z"/>
<path d="M8975 2791 c-3 -5 -1 -12 5 -16 5 -3 10 1 10 9 0 18 -6 21 -15 7z"/>
<path d="M9010 2784 c0 -8 5 -12 10 -9 6 3 10 10 10 16 0 5 -4 9 -10 9 -5 0
-10 -7 -10 -16z"/>
<path d="M9040 2784 c0 -8 5 -12 10 -9 6 3 10 10 10 16 0 5 -4 9 -10 9 -5 0
-10 -7 -10 -16z"/>
<path d="M9075 2791 c-3 -5 -1 -12 5 -16 5 -3 10 1 10 9 0 18 -6 21 -15 7z"/>
<path d="M9103 2788 c-5 -9 -2 -10 29 -11 12 -1 23 4 25 10 4 12 -46 13 -54 1z"/>
<path d="M9170 2785 c0 -8 5 -15 10 -15 6 0 10 7 10 15 0 8 -4 15 -10 15 -5 0
-10 -7 -10 -15z"/>
<path d="M9202 2788 c3 -7 15 -12 28 -12 13 0 25 5 28 12 2 8 -7 12 -28 12
-21 0 -30 -4 -28 -12z"/>
<path d="M9270 2784 c0 -8 5 -12 10 -9 6 4 8 11 5 16 -9 14 -15 11 -15 -7z"/>
<path d="M9300 2784 c0 -8 5 -12 10 -9 6 4 8 11 5 16 -9 14 -15 11 -15 -7z"/>
<path d="M9330 2786 c0 -7 12 -13 30 -13 17 0 30 6 30 12 0 7 -13 12 -30 13
-18 0 -30 -4 -30 -12z"/>
<path d="M9405 2790 c-3 -5 -1 -10 4 -10 6 0 11 5 11 10 0 6 -2 10 -4 10 -3 0
-8 -4 -11 -10z"/>
<path d="M9432 2788 c2 -6 10 -14 18 -16 8 -3 10 0 5 9 -6 11 -5 12 6 2 18
-17 29 -16 29 2 0 10 -10 15 -31 15 -19 0 -29 -4 -27 -12z"/>
<path d="M9500 2791 c0 -6 5 -13 10 -16 6 -3 10 1 10 9 0 9 -4 16 -10 16 -5 0
-10 -4 -10 -9z"/>
<path d="M9536 2792 c-3 -6 -1 -14 5 -17 15 -10 25 3 12 16 -7 7 -13 7 -17 1z"/>
<path d="M9570 2785 c0 -8 5 -15 10 -15 6 0 10 7 10 15 0 8 -4 15 -10 15 -5 0
-10 -7 -10 -15z"/>
<path d="M9606 2791 c-4 -7 -5 -15 -2 -18 9 -9 19 4 14 18 -4 11 -6 11 -12 0z"/>
<path d="M9755 2750 c-3 -5 1 -10 10 -10 9 0 13 5 10 10 -3 6 -8 10 -10 10 -2
0 -7 -4 -10 -10z"/>
<path d="M9750 2710 c0 -5 7 -10 16 -10 8 0 12 5 9 10 -3 6 -10 10 -16 10 -5
0 -9 -4 -9 -10z"/>
<path d="M9750 2661 c0 -21 4 -29 13 -25 16 6 15 46 -1 52 -8 2 -12 -8 -12
-27z"/>
<path d="M3934 2655 c-8 -20 2 -45 18 -45 10 0 10 2 0 9 -11 7 -11 11 2 24 14
13 14 16 0 21 -8 3 -17 -1 -20 -9z"/>
<path d="M1588 2590 c2 -46 0 -70 -7 -70 -6 0 -11 -4 -11 -8 0 -5 13 -7 30 -4
16 2 27 8 24 13 -11 18 -12 49 -3 55 16 10 59 -5 59 -20 0 -8 -8 -22 -17 -32
-17 -17 -17 -17 7 -11 14 4 28 7 33 7 15 0 7 48 -10 54 -12 5 -14 9 -5 18 34
34 0 68 -65 68 l-38 0 3 -70z m77 39 c8 -24 8 -24 -25 -32 -22 -6 -25 -3 -26
23 -1 25 2 30 21 30 15 0 26 -8 30 -21z"/>
<path d="M2650 2644 c-7 -8 -8 -14 -3 -14 5 0 9 -27 9 -60 0 -33 -4 -60 -9
-60 -4 0 -5 -4 -2 -10 3 -5 17 -10 31 -10 13 0 24 5 24 10 0 6 -5 10 -11 10
-7 0 -9 24 -7 70 3 72 -8 94 -32 64z"/>
<path d="M2937 2642 c-21 -23 -22 -39 -2 -22 18 15 45 6 45 -14 0 -8 -9 -18
-21 -21 -20 -7 -18 -20 4 -20 7 0 13 -13 15 -29 4 -28 2 -29 -32 -23 -36 6
-51 -8 -21 -19 46 -18 90 30 67 73 -6 10 -7 24 -2 34 6 10 4 23 -6 37 -18 27
-26 27 -47 4z"/>
<path d="M4008 2622 c-13 -30 -16 -33 -17 -14 -1 12 -5 22 -11 22 -10 0 -14
-37 -10 -92 1 -24 -2 -28 -24 -28 -21 0 -26 5 -26 24 0 15 7 26 18 29 16 4 16
5 0 6 -13 1 -18 10 -18 31 0 17 -4 30 -9 30 -5 0 -11 -34 -13 -76 -3 -73 5
-101 22 -74 5 8 19 11 39 7 l31 -6 -4 40 c-3 32 1 45 20 64 13 13 34 26 46 28
l23 4 -22 2 c-26 1 -29 11 -11 29 9 9 9 12 -2 12 -8 0 -22 -17 -32 -38z"/>
<path d="M4171 2660 c-2 -3 -4 -49 -6 -102 -3 -89 -2 -97 16 -95 12 1 15 5 9
11 -13 13 -13 109 0 101 6 -3 10 -26 10 -49 0 -27 6 -48 15 -56 13 -11 14 -10
9 4 -5 13 1 16 40 16 43 0 61 -12 34 -23 -7 -3 -3 -4 9 -4 16 1 19 5 14 17 -5
8 -6 22 -3 30 4 12 2 13 -9 3 -20 -20 -27 -16 -21 12 4 22 1 25 -26 25 -19 0
-35 -7 -41 -17 -9 -16 -10 -15 -8 5 1 12 5 22 10 22 4 0 5 5 2 10 -4 6 10 10
34 10 32 0 41 -4 47 -22 7 -22 7 -22 15 -3 13 33 11 35 -28 36 -30 2 -32 3
-11 6 18 3 28 11 30 25 2 12 9 23 16 26 9 3 12 -20 12 -92 0 -53 3 -96 8 -96
4 0 8 45 9 100 1 87 -1 100 -15 100 -10 0 -26 -7 -36 -15 -24 -18 -76 -20 -76
-2 0 8 -4 7 -10 -3 -15 -22 -12 -30 13 -40 19 -8 17 -9 -15 -9 -35 -1 -37 1
-41 37 -2 20 -5 35 -6 32z m107 -47 c-10 -2 -26 -2 -35 0 -10 3 -2 5 17 5 19
0 27 -2 18 -5z m-13 -83 c3 -5 -1 -10 -10 -10 -9 0 -13 5 -10 10 3 6 8 10 10
10 2 0 7 -4 10 -10z m-2 -27 c-7 -2 -21 -2 -30 0 -10 3 -4 5 12 5 17 0 24 -2
18 -5z"/>
<path d="M4251 2650 c10 -7 49 -2 49 5 0 2 -14 3 -31 3 -17 -1 -25 -4 -18 -8z"/>
<path d="M4426 2609 c-15 -29 -24 -54 -21 -57 3 -3 5 0 5 6 0 7 5 12 10 12 6
0 10 -27 10 -60 0 -33 4 -60 10 -60 6 0 10 10 10 23 0 19 8 24 47 33 40 10 44
9 27 -3 -10 -8 -29 -16 -41 -20 -13 -3 -23 -9 -23 -14 0 -10 40 -3 54 11 5 5
17 10 26 10 13 -1 12 -3 -2 -14 -20 -14 -14 -28 8 -19 8 3 14 14 14 24 0 23
13 25 30 4 14 -17 40 -20 40 -5 0 6 -6 10 -14 10 -7 0 -19 7 -26 16 -11 13
-10 16 8 21 12 3 22 9 22 14 0 15 -22 10 -42 -8 -17 -15 -20 -15 -28 -3 -14
22 -12 30 7 30 15 0 14 2 -3 14 -18 14 -18 15 -1 21 9 4 24 4 33 1 13 -5 14
-9 4 -21 -10 -12 -10 -15 3 -15 9 0 16 12 19 29 4 25 1 29 -19 26 -16 -1 -22
2 -21 13 3 15 -47 36 -64 26 -17 -11 -7 -24 20 -25 l27 -1 -25 -7 c-14 -4 -27
-4 -30 0 -3 4 -13 2 -22 -5 -23 -17 -13 -56 16 -57 18 -1 17 -3 -7 -12 -16 -6
-26 -16 -23 -24 3 -7 1 -13 -4 -13 -13 0 -13 91 0 124 17 46 -6 28 -34 -25z
m104 -25 c0 -9 -7 -14 -17 -12 -25 5 -28 28 -4 28 12 0 21 -6 21 -16z m-14
-60 c-11 -7 -22 -12 -25 -9 -2 3 4 12 15 19 10 8 21 12 24 9 3 -2 -4 -11 -14
-19z"/>
<path d="M3411 2629 c-12 -20 -11 -21 6 -14 35 14 48 10 51 -16 2 -19 -7 -37
-32 -64 -20 -21 -36 -39 -36 -41 0 -2 22 -4 49 -4 34 0 51 5 55 15 4 12 -2 14
-31 9 -35 -6 -36 -5 -23 13 8 10 22 26 32 36 21 20 24 57 6 75 -19 19 -62 14
-77 -9z"/>
<path d="M3663 2643 c-18 -7 -16 -48 2 -63 32 -26 78 25 49 54 -16 16 -29 19
-51 9z m37 -34 c0 -24 -23 -21 -28 4 -2 10 3 17 12 17 10 0 16 -9 16 -21z"/>
<path d="M4090 2628 c0 -1 -2 -33 -5 -71 -5 -81 -9 -89 -43 -81 -23 4 -25 4
-9 -6 10 -7 29 -9 42 -6 21 5 25 14 30 74 4 37 6 70 5 75 -3 7 -20 21 -20 15z"/>
<path d="M2807 2613 c-4 -6 -4 -18 -1 -27 6 -15 -9 -21 -43 -17 -7 1 -13 -2
-13 -7 0 -12 51 -20 90 -14 17 2 30 9 30 14 0 5 -10 8 -22 6 -18 -2 -24 3 -28
27 -3 18 -8 25 -13 18z"/>
<path d="M9750 2610 c0 -5 5 -10 10 -10 6 0 10 5 10 10 0 6 -4 10 -10 10 -5 0
-10 -4 -10 -10z"/>
<path d="M2297 2604 c-3 -4 1 -13 9 -21 24 -24 15 -95 -13 -108 -26 -11 -32
-31 -7 -21 9 3 19 6 24 6 5 0 15 12 22 28 23 48 -6 145 -35 116z"/>
<path d="M2370 2581 c0 -17 -4 -33 -10 -36 -12 -8 -13 -25 -2 -25 11 0 32 46
32 70 0 11 -4 20 -10 20 -5 0 -10 -13 -10 -29z"/>
<path d="M3076 2588 c-19 -27 -20 -57 -2 -80 18 -24 48 -23 64 2 7 12 8 20 2
20 -5 0 -10 -4 -10 -8 0 -9 -40 -11 -41 -2 0 3 -2 13 -4 24 -2 10 -1 24 2 32
6 16 33 19 33 4 0 -5 7 -10 15 -10 18 0 19 12 3 28 -19 19 -45 14 -62 -10z"/>
<path d="M3186 2597 c-19 -14 -23 -39 -13 -79 6 -22 13 -28 36 -28 40 0 65 31
56 69 -10 45 -46 62 -79 38z m49 -37 c7 -33 1 -50 -20 -50 -21 0 -34 31 -24
58 12 31 36 27 44 -8z"/>
<path d="M3292 2598 c-18 -18 -15 -29 16 -61 l27 -29 -32 7 c-28 5 -32 4 -27
-9 8 -20 57 -21 74 -1 10 13 10 19 -5 35 -10 11 -24 20 -32 20 -14 0 -17 12
-6 23 3 4 15 0 25 -10 17 -15 18 -15 18 5 0 12 -4 22 -9 22 -5 0 -15 2 -23 5
-7 3 -19 0 -26 -7z"/>
<path d="M3545 2591 c-3 -6 2 -14 11 -19 28 -16 15 -43 -35 -69 -1 -1 0 -7 4
-13 5 -8 14 -5 30 10 22 21 24 21 33 3 11 -17 11 -17 29 1 17 18 17 18 1 13
-14 -5 -18 -1 -18 21 -1 44 -38 80 -55 53z"/>
<path d="M3613 2593 c-20 -7 -15 -23 7 -23 11 0 20 4 20 9 0 13 -12 19 -27 14z"/>
<path d="M2455 2581 c-8 -14 5 -18 45 -15 19 1 43 3 53 3 9 1 17 6 17 11 0 13
-107 13 -115 1z"/>
<path d="M4746 2574 c-20 -20 -9 -44 20 -44 19 0 24 5 24 24 0 29 -24 40 -44
20z m34 -14 c0 -5 -7 -10 -16 -10 -8 0 -12 5 -9 10 3 6 10 10 16 10 5 0 9 -4
9 -10z"/>
<path d="M9745 2580 c-3 -5 3 -10 15 -10 12 0 18 5 15 10 -3 6 -10 10 -15 10
-5 0 -12 -4 -15 -10z"/>
<path d="M4030 2550 c6 -11 15 -20 20 -20 16 0 11 27 -6 34 -24 9 -26 8 -14
-14z"/>
<path d="M9747 2554 c-11 -11 3 -24 18 -18 8 4 12 10 9 15 -6 11 -18 12 -27 3z"/>
<path d="M2455 2541 c-9 -15 8 -20 63 -19 36 1 52 6 52 15 0 15 -105 19 -115
4z"/>
<path d="M1735 2521 c-7 -12 12 -24 25 -16 11 7 4 25 -10 25 -5 0 -11 -4 -15
-9z"/>
<path d="M2806 2521 c-4 -7 -5 -15 -2 -18 9 -9 19 4 14 18 -4 11 -6 11 -12 0z"/>
<path d="M9750 2510 c0 -5 5 -10 10 -10 6 0 10 5 10 10 0 6 -4 10 -10 10 -5 0
-10 -4 -10 -10z"/>
<path d="M9745 2480 c-3 -5 1 -10 9 -10 9 0 16 5 16 10 0 6 -4 10 -9 10 -6 0
-13 -4 -16 -10z"/>
<path d="M4255 2470 c-19 -8 -19 -9 3 -9 12 -1 22 4 22 9 0 6 -1 10 -2 9 -2 0
-12 -4 -23 -9z"/>
<path d="M9748 2443 c5 -10 7 -24 4 -32 -2 -8 0 -11 5 -8 16 10 13 57 -4 57
-10 0 -11 -5 -5 -17z"/>
<path d="M9745 2380 c4 -6 11 -8 16 -5 14 9 11 15 -7 15 -8 0 -12 -5 -9 -10z"/>
<path d="M9752 2330 c1 -16 4 -27 8 -25 10 6 9 55 -1 55 -4 0 -7 -13 -7 -30z"/>
<path d="M9745 2280 c4 -6 11 -8 16 -5 14 9 11 15 -7 15 -8 0 -12 -5 -9 -10z"/>
<path d="M9745 2250 c3 -5 10 -10 16 -10 5 0 9 5 9 10 0 6 -7 10 -16 10 -8 0
-12 -4 -9 -10z"/>
<path d="M9746 2215 c4 -8 10 -12 15 -9 14 8 10 24 -6 24 -9 0 -12 -6 -9 -15z"/>
<path d="M9750 2179 c0 -5 5 -7 10 -4 6 3 10 8 10 11 0 2 -4 4 -10 4 -5 0 -10
-5 -10 -11z"/>
<path d="M9745 2138 c2 -31 23 -34 23 -3 0 14 -6 25 -13 25 -6 0 -11 -10 -10
-22z"/>
<path d="M9745 2090 c-3 -5 1 -10 10 -10 9 0 13 5 10 10 -3 6 -8 10 -10 10 -2
0 -7 -4 -10 -10z"/>
<path d="M9740 2056 c0 -2 7 -6 15 -10 8 -3 15 -1 15 4 0 6 -7 10 -15 10 -8 0
-15 -2 -15 -4z"/>
<path d="M9745 2020 c-3 -5 1 -10 10 -10 9 0 13 5 10 10 -3 6 -8 10 -10 10 -2
0 -7 -4 -10 -10z"/>
<path d="M3595 2000 c-8 -25 10 -50 36 -50 22 0 38 26 32 51 -8 27 -59 26 -68
-1z m55 -15 c0 -16 -35 -21 -44 -6 -8 12 4 21 26 21 10 0 18 -7 18 -15z"/>
<path d="M9750 1984 c0 -8 5 -12 10 -9 6 3 10 10 10 16 0 5 -4 9 -10 9 -5 0
-10 -7 -10 -16z"/>
<path d="M3480 1961 c0 -5 6 -11 14 -14 7 -3 17 -22 20 -42 8 -39 32 -57 47
-34 13 21 11 32 -6 25 -11 -4 -15 2 -15 20 0 17 7 28 20 31 11 3 20 9 20 14 0
13 -14 11 -28 -3 -10 -10 -17 -10 -32 0 -23 14 -40 16 -40 3z"/>
<path d="M9745 1950 c4 -6 11 -8 16 -5 14 9 11 15 -7 15 -8 0 -12 -5 -9 -10z"/>
<path d="M9749 1929 c-6 -29 -3 -49 6 -49 12 0 14 35 2 46 -4 4 -7 5 -8 3z"/>
<path d="M3483 1892 c-25 -4 -30 -17 -12 -28 6 -3 18 1 27 10 19 18 15 23 -15
18z"/>
<path d="M3906 1875 c-4 -14 -11 -22 -19 -19 -10 4 -14 -14 -15 -76 -2 -78 3
-91 25 -69 8 8 17 8 32 0 20 -11 21 -9 21 33 0 54 14 65 44 37 28 -27 40 -27
26 -1 -6 11 -17 20 -25 20 -17 0 -17 2 -9 24 4 10 18 16 41 16 l35 0 -4 -61
c-5 -63 -16 -80 -49 -72 -10 3 -19 1 -19 -5 0 -5 12 -13 27 -16 42 -11 56 12
59 97 l2 73 -34 -1 c-34 -2 -44 8 -23 21 8 5 6 10 -5 16 -22 12 -24 10 -31
-32 -3 -19 -13 -42 -22 -50 -14 -14 -15 -12 -9 18 5 30 4 33 -15 27 -18 -6
-19 -4 -10 13 10 19 6 32 -10 32 -4 0 -10 -11 -13 -25z m24 -60 c0 -18 -5 -25
-20 -25 -15 0 -20 7 -20 25 0 18 5 25 20 25 15 0 20 -7 20 -25z m6 -60 c0 -20
-5 -25 -27 -25 -23 0 -26 3 -21 25 3 18 11 25 26 25 17 0 22 -6 22 -25z"/>
<path d="M1593 1868 c-29 -32 -26 -104 6 -129 30 -25 52 -24 85 2 33 26 26 38
-8 15 -19 -12 -31 -13 -51 -6 -21 8 -25 16 -25 53 0 24 5 48 12 55 19 19 54
14 71 -10 18 -28 27 -22 20 13 -4 23 -10 26 -47 27 -33 2 -47 -3 -63 -20z"/>
<path d="M2695 1876 c-31 -41 -65 -97 -65 -106 0 -5 16 -10 36 -10 31 0 35 -3
29 -20 -3 -11 -2 -20 4 -20 5 0 11 10 13 23 2 12 9 21 16 20 6 -2 12 2 12 7 0
6 -7 10 -16 10 -12 0 -15 10 -13 50 3 54 -1 66 -16 46z m5 -61 c0 -31 -3 -35
-25 -35 -14 0 -25 5 -25 10 0 6 4 10 8 10 5 0 14 11 20 25 16 34 22 31 22 -10z"/>
<path d="M4130 1786 l0 -101 90 3 c69 3 90 1 90 -9 0 -8 3 -9 9 -4 6 6 11 54
12 108 l2 98 -102 3 -101 3 0 -101z m60 59 c0 -17 6 -25 18 -26 14 0 14 -2 -3
-9 -16 -7 -10 -9 25 -11 l45 -2 -39 -4 c-21 -3 -43 0 -49 6 -19 19 -22 12 -19
-45 3 -39 1 -54 -7 -50 -7 4 -11 40 -11 87 0 72 2 79 20 79 15 0 20 -7 20 -25z
m124 -48 c-1 -39 -2 -78 -3 -84 -1 -9 -20 -13 -59 -13 -32 0 -61 2 -63 5 -3 2
-3 20 -1 40 4 33 6 35 43 35 36 0 39 -2 39 -29 0 -16 -6 -32 -12 -34 -7 -3 -3
-6 10 -6 18 -1 22 4 23 32 0 17 2 40 4 50 2 13 -4 17 -28 18 -18 1 -25 3 -16
6 10 2 19 13 22 23 4 16 -2 20 -37 23 -33 3 -29 4 19 5 l60 2 -1 -73z m-58 44
c-3 -5 -15 -7 -26 -4 -28 7 -25 13 6 13 14 0 23 -4 20 -9z"/>
<path d="M4200 1750 c0 -16 7 -20 30 -20 23 0 30 4 30 20 0 11 -7 20 -16 20
-8 0 -12 -4 -9 -10 3 -5 -1 -10 -10 -10 -9 0 -13 5 -10 10 3 6 1 10 -4 10 -6
0 -11 -9 -11 -20z"/>
<path d="M4198 1713 c7 -3 16 -2 19 1 4 3 -2 6 -13 5 -11 0 -14 -3 -6 -6z"/>
<path d="M4405 1849 c-4 -22 -13 -43 -21 -46 -8 -3 -14 -12 -14 -20 0 -13 3
-13 15 -3 13 11 15 4 15 -50 0 -94 12 -65 14 36 2 68 7 90 19 99 22 16 21 25
-2 25 -15 0 -21 -10 -26 -41z"/>
<path d="M4458 1856 c-34 -42 -29 -75 10 -69 26 4 27 4 7 -13 -20 -16 -20 -16
3 -11 31 7 19 -8 -19 -24 -28 -11 -30 -14 -13 -20 17 -7 17 -8 2 -8 -10 -1
-18 -6 -18 -12 0 -6 8 -8 20 -4 11 3 30 -1 44 -11 25 -16 26 -15 36 10 9 26
11 26 34 11 13 -9 27 -12 30 -7 7 13 -4 22 -26 22 -23 0 -24 27 0 34 13 4 17
16 17 48 -1 41 -2 43 -30 41 -17 -1 -24 0 -17 3 19 9 14 24 -7 24 -11 0 -23 5
-26 10 -10 16 -18 12 -47 -24z m57 -6 c-3 -6 -17 -10 -31 -10 -33 0 -24 15 11
18 15 1 24 -2 20 -8z m-10 -40 c4 -6 -5 -10 -19 -10 -14 0 -26 5 -26 10 0 6 9
10 19 10 11 0 23 -4 26 -10z m55 0 c0 -5 -9 -10 -20 -10 -11 0 -20 5 -20 10 0
6 9 10 20 10 11 0 20 -4 20 -10z m5 -29 c9 -16 -30 -32 -43 -19 -7 7 -12 16
-12 20 0 11 48 10 55 -1z m-70 -58 c-20 -15 -20 -15 3 -10 12 3 22 1 22 -4 0
-13 -37 -11 -45 2 -4 6 1 16 11 24 26 18 34 7 9 -12z"/>
<path d="M2970 1865 c-12 -14 -12 -16 1 -15 51 8 62 -7 27 -40 -19 -17 -19
-20 -5 -20 23 0 33 -26 17 -45 -8 -10 -21 -13 -37 -8 -19 4 -24 2 -21 -8 6
-16 53 -15 74 2 14 12 20 69 7 69 -5 0 -8 17 -8 37 0 31 -4 39 -21 41 -11 2
-27 -4 -34 -13z"/>
<path d="M2840 1845 c-1 -5 -1 -20 0 -32 1 -19 -4 -23 -29 -23 -17 0 -31 -4
-31 -10 0 -5 13 -10 29 -10 25 0 30 -5 34 -27 l4 -28 2 28 c1 23 5 27 32 27
17 0 28 4 24 10 -3 6 -17 10 -30 10 -19 0 -24 6 -28 33 -2 17 -5 28 -7 22z"/>
<path d="M3117 1818 c-33 -24 -34 -49 -3 -85 20 -23 28 -26 43 -17 10 6 20 19
21 28 3 15 1 16 -17 4 -24 -15 -31 -9 -34 28 -2 26 1 29 25 27 19 -1 25 2 22
12 -9 23 -29 24 -57 3z"/>
<path d="M2292 1816 c22 -17 28 -94 7 -107 -7 -5 -20 -9 -26 -9 -15 0 -17 -16
-4 -24 11 -7 87 69 107 107 8 15 12 32 9 37 -9 14 -25 2 -19 -13 5 -14 -21
-55 -30 -46 -3 3 -6 19 -8 37 -2 27 -6 32 -28 32 -22 -1 -23 -2 -8 -14z"/>
<path d="M3213 1815 c-28 -32 -4 -105 35 -105 18 0 52 42 52 65 0 44 -60 71
-87 40z m58 -17 c0 -7 2 -20 4 -29 5 -27 -12 -46 -31 -33 -18 11 -26 37 -17
60 6 17 43 19 44 2z"/>
<path d="M3323 1813 c-3 -10 -8 -21 -10 -26 -3 -4 9 -12 25 -18 16 -5 29 -16
29 -24 0 -21 -27 -19 -43 3 -12 16 -13 16 -14 0 0 -35 55 -46 72 -14 9 17 6
24 -23 48 -20 17 -27 28 -18 28 8 0 20 -5 27 -12 9 -9 12 -7 12 10 0 17 -6 22
-25 22 -15 0 -28 -7 -32 -17z"/>
<path d="M9745 1790 c3 -57 15 -63 15 -7 0 26 -4 47 -9 47 -4 0 -7 -18 -6 -40z"/>
<path d="M2478 1803 c17 -2 47 -2 65 0 17 2 3 4 -33 4 -36 0 -50 -2 -32 -4z"/>
<path d="M4747 1804 c-3 -3 -3 -12 0 -20 3 -8 0 -14 -6 -14 -6 0 -11 7 -11 15
0 8 -5 15 -11 15 -20 0 -4 -35 19 -38 18 -3 22 1 22 22 0 27 -2 30 -13 20z"/>
<path d="M3420 1780 c0 -6 52 -10 135 -10 83 0 135 4 135 10 0 6 -52 10 -135
10 -83 0 -135 -4 -135 -10z"/>
<path d="M2468 1763 c17 -2 47 -2 65 0 17 2 3 4 -33 4 -36 0 -50 -2 -32 -4z"/>
<path d="M4435 1760 c-3 -5 -1 -10 4 -10 6 0 11 5 11 10 0 6 -2 10 -4 10 -3 0
-8 -4 -11 -10z"/>
<path d="M1724 1749 c-10 -17 13 -36 27 -22 12 12 4 33 -11 33 -5 0 -12 -5
-16 -11z"/>
<path d="M9745 1720 c-3 -5 -1 -10 4 -10 6 0 11 5 11 10 0 6 -2 10 -4 10 -3 0
-8 -4 -11 -10z"/>
<path d="M3522 1684 c-32 -22 -27 -34 8 -21 23 9 33 8 42 -1 10 -10 8 -21 -10
-52 -26 -45 -5 -47 25 -2 24 37 24 51 2 73 -23 23 -38 24 -67 3z"/>
<path d="M9742 1676 c5 -35 18 -45 18 -13 0 14 -5 29 -10 32 -7 4 -10 -3 -8
-19z"/>
<path d="M9745 1620 c3 -5 8 -10 11 -10 2 0 4 5 4 10 0 6 -5 10 -11 10 -5 0
-7 -4 -4 -10z"/>
<path d="M9742 1575 c1 -14 5 -25 9 -25 4 0 7 11 7 25 0 14 -4 25 -9 25 -5 0
-8 -11 -7 -25z"/>
<path d="M3508 1553 c-12 -15 -12 -15 45 -17 37 -1 56 7 57 24 0 11 -92 4
-102 -7z"/>
<path d="M9740 1519 c0 -5 5 -7 10 -4 6 3 10 8 10 11 0 2 -4 4 -10 4 -5 0 -10
-5 -10 -11z"/>
<path d="M9740 1490 c0 -5 5 -10 10 -10 6 0 10 5 10 10 0 6 -4 10 -10 10 -5 0
-10 -4 -10 -10z"/>
<path d="M9740 1460 c0 -5 5 -10 10 -10 6 0 10 5 10 10 0 6 -4 10 -10 10 -5 0
-10 -4 -10 -10z"/>
<path d="M9740 1420 c0 -5 5 -10 10 -10 6 0 10 5 10 10 0 6 -4 10 -10 10 -5 0
-10 -4 -10 -10z"/>
<path d="M9740 1339 c0 -18 3 -29 7 -25 11 11 13 45 3 51 -6 4 -10 -7 -10 -26z"/>
<path d="M9740 1239 c0 -18 3 -29 7 -25 10 10 11 46 1 52 -4 3 -8 -9 -8 -27z"/>
<path d="M9740 1189 c0 -5 5 -7 10 -4 6 3 10 8 10 11 0 2 -4 4 -10 4 -5 0 -10
-5 -10 -11z"/>
<path d="M3977 1159 c-4 -14 -11 -20 -21 -16 -9 4 -17 -1 -19 -11 -7 -28 -2
-140 6 -148 4 -4 7 -1 7 6 0 9 10 11 35 7 l35 -6 0 43 c0 51 31 86 76 86 30 0
30 0 28 -51 -4 -72 -9 -82 -38 -75 -34 8 -41 -8 -11 -22 40 -18 52 -6 59 56 4
31 9 69 12 85 5 26 4 27 -36 27 -34 0 -40 3 -31 13 6 8 8 17 4 20 -12 13 -21
7 -26 -15 -8 -29 -38 -70 -36 -48 3 31 -1 39 -17 33 -13 -5 -15 -2 -9 15 3 12
2 22 -3 22 -5 0 -12 -10 -15 -21z m23 -54 c0 -20 -5 -25 -25 -25 -33 0 -35 37
-2 43 12 2 23 5 25 6 1 0 2 -10 2 -24z m0 -70 c0 -20 -5 -25 -25 -25 -20 0
-25 5 -25 25 0 20 5 25 25 25 20 0 25 -5 25 -25z"/>
<path d="M4462 1119 c-21 -41 -27 -59 -17 -55 12 4 15 -5 15 -49 0 -30 5 -55
10 -55 6 0 10 30 10 70 0 39 0 73 0 78 1 4 8 18 16 31 10 14 12 27 7 32 -6 6
-22 -15 -41 -52z"/>
<path d="M1568 1163 c16 -6 16 -125 0 -141 -21 -21 73 -15 108 7 31 19 42 46
36 87 -4 30 -53 54 -109 53 -26 0 -42 -3 -35 -6z m102 -29 c32 -38 6 -104 -42
-104 -15 0 -18 9 -18 60 0 57 1 60 24 60 13 0 29 -7 36 -16z"/>
<path d="M4200 1075 c0 -52 0 -98 0 -101 0 -4 44 -6 97 -6 l97 0 4 101 4 101
-101 0 -101 0 0 -95z m53 56 c-3 -13 1 -21 14 -24 10 -3 4 -5 -14 -6 -18 0
-33 2 -34 7 0 4 -2 15 -4 25 -2 12 3 17 20 17 18 0 22 -4 18 -19z m51 13 c25
-9 19 -24 -9 -24 -24 0 -32 10 -18 23 8 8 8 8 27 1z m71 -36 c-2 -91 -5 -118
-14 -118 -8 0 -8 61 1 101 2 8 -3 13 -9 12 -14 -3 -16 7 -7 31 12 32 30 16 29
-26z m-140 -68 c0 -27 -4 -49 -9 -47 -8 3 -10 26 -7 82 1 8 4 15 9 15 4 0 7
-22 7 -50z m96 41 c-9 -6 -10 -11 -2 -15 6 -4 11 -18 11 -32 0 -18 -6 -24 -22
-25 -22 -1 -22 -1 2 -9 20 -6 14 -8 -25 -8 -37 -1 -45 2 -30 8 17 7 17 9 3 9
-37 2 -17 60 21 62 22 1 21 3 -9 9 -33 7 -32 7 15 9 31 0 45 -3 36 -8z"/>
<path d="M4271 1051 c-19 -12 -4 -31 25 -31 17 0 24 5 24 20 0 11 -4 20 -10
20 -5 0 -7 -7 -4 -15 4 -10 0 -15 -11 -15 -11 0 -15 5 -11 15 6 17 6 18 -13 6z"/>
<path d="M4525 1140 c-18 -27 -21 -38 -16 -69 0 -5 11 -7 24 -5 16 3 15 1 -5
-7 -16 -6 -28 -15 -28 -20 0 -6 8 -6 19 1 24 12 31 13 31 1 0 -5 -12 -14 -27
-19 -18 -7 -22 -11 -10 -11 10 -1 29 7 44 16 20 13 25 14 21 3 -2 -7 -18 -18
-35 -24 -43 -15 -52 -26 -20 -26 14 0 29 -4 32 -10 11 -19 33 -10 39 15 6 24
8 25 29 10 25 -18 37 -19 37 -5 0 6 -12 15 -27 21 -26 9 -26 10 -7 24 14 9 20
24 19 52 0 34 -2 38 -24 35 -18 -3 -22 0 -18 12 3 8 2 18 -2 21 -5 2 -11 -4
-14 -15 -4 -14 -13 -20 -34 -20 -25 1 -26 2 -10 14 17 13 23 36 10 36 -5 0
-17 -13 -28 -30z m45 -40 c0 -5 -11 -10 -25 -10 -14 0 -25 5 -25 10 0 6 11 10
25 10 14 0 25 -4 25 -10z m60 0 c0 -5 -12 -10 -26 -10 -14 0 -23 4 -19 10 3 6
15 10 26 10 10 0 19 -4 19 -10z m-10 -45 c-10 -12 -16 -13 -26 -4 -20 16 -18
19 12 19 22 0 25 -2 14 -15z m-35 -66 c-8 -12 -35 -12 -35 0 0 11 22 20 33 14
4 -2 5 -9 2 -14z"/>
<path d="M9740 1160 c0 -5 5 -10 11 -10 5 0 7 5 4 10 -3 6 -8 10 -11 10 -2 0
-4 -4 -4 -10z"/>
<path d="M2674 1137 c-21 -23 -54 -72 -54 -82 0 -3 16 -5 35 -5 31 0 35 -3 35
-25 0 -14 5 -25 10 -25 6 0 10 11 10 24 0 13 6 27 13 29 10 4 10 6 0 6 -9 1
-13 18 -13 51 0 55 -5 59 -36 27z m16 -42 c0 -28 -4 -35 -20 -35 -11 0 -20 3
-20 6 0 7 33 64 37 64 2 0 3 -16 3 -35z"/>
<path d="M2962 1148 c-19 -19 -14 -29 8 -16 15 10 22 10 32 0 11 -11 8 -17
-12 -32 l-25 -19 28 -10 c15 -6 27 -14 27 -19 0 -17 -25 -32 -55 -32 -23 0
-26 -3 -15 -10 23 -15 55 -12 73 8 20 22 20 22 8 55 -7 18 -8 35 -1 46 17 33
-39 58 -68 29z"/>
<path d="M3446 1141 c-11 -13 -14 -21 -7 -26 6 -3 14 1 17 9 6 16 43 23 45 9
0 -5 2 -16 4 -26 2 -11 -11 -34 -31 -55 -19 -20 -34 -40 -34 -44 0 -9 61 -11
84 -2 9 3 16 13 16 22 0 12 -3 13 -12 4 -12 -12 -58 -17 -58 -6 0 3 11 15 24
25 34 26 44 78 20 96 -25 18 -48 16 -68 -6z"/>
<path d="M3690 1145 c-14 -17 -5 -51 17 -59 15 -6 53 19 53 35 0 12 -30 39
-44 39 -8 0 -19 -7 -26 -15z m50 -19 c0 -8 -7 -17 -16 -20 -23 -9 -24 -8 -24
14 0 13 7 20 20 20 11 0 20 -6 20 -14z"/>
<path d="M9739 1136 c-5 -23 -2 -46 5 -48 12 -4 15 41 4 48 -4 3 -8 3 -9 0z"/>
<path d="M2830 1100 c0 -24 -4 -31 -17 -29 -10 1 -25 1 -33 0 -12 -1 -13 -3
-1 -10 7 -5 22 -6 32 -4 15 4 19 0 19 -21 0 -14 5 -26 10 -26 6 0 10 6 9 13
-3 27 2 36 21 32 11 -2 22 0 25 6 4 5 -5 9 -19 9 -24 0 -30 8 -27 37 1 6 -3
14 -9 18 -6 4 -10 -6 -10 -25z"/>
<path d="M2286 1102 c33 -21 22 -128 -12 -115 -8 3 -14 -1 -14 -11 0 -30 26
-16 73 38 44 51 61 96 36 96 -6 0 -9 -6 -6 -14 3 -8 -3 -24 -14 -37 -13 -15
-19 -18 -20 -8 -1 8 -2 19 -4 24 -1 6 -3 16 -3 23 -1 6 -12 12 -24 12 -14 0
-18 -3 -12 -8z"/>
<path d="M3094 1084 c-15 -59 33 -106 70 -68 24 23 19 40 -5 18 -17 -16 -22
-16 -29 -4 -16 24 -12 70 5 70 8 0 15 -4 15 -10 0 -5 7 -10 16 -10 32 0 6 25
-29 28 -32 3 -37 0 -43 -24z"/>
<path d="M3200 1089 c-17 -31 -3 -78 26 -85 34 -9 52 1 60 31 10 41 -3 75 -29
75 -20 -1 -20 -2 -4 -11 18 -11 24 -73 8 -83 -24 -15 -39 6 -37 50 3 47 -7 56
-24 23z"/>
<path d="M3317 1103 c-15 -14 -6 -40 18 -51 14 -6 25 -18 25 -27 0 -18 -21
-20 -38 -3 -9 9 -12 9 -12 1 0 -15 33 -25 54 -17 24 9 19 41 -9 60 -28 18 -33
34 -10 34 8 0 15 -4 15 -10 0 -5 4 -10 8 -10 5 0 9 7 9 15 0 15 -47 22 -60 8z"/>
<path d="M3570 1101 c0 -6 7 -11 15 -11 8 0 15 -6 16 -12 4 -63 17 -85 43 -75
19 7 22 28 4 25 -7 -2 -14 7 -16 20 -3 17 2 25 17 29 12 3 21 12 21 20 0 13
-3 13 -24 -1 -14 -8 -26 -12 -28 -7 -5 13 -48 24 -48 12z"/>
<path d="M2440 1090 c0 -6 28 -10 65 -10 37 0 65 4 65 10 0 6 -28 10 -65 10
-37 0 -65 -4 -65 -10z"/>
<path d="M4780 1085 c-11 -13 -11 -18 2 -31 20 -20 50 -7 46 20 -4 26 -30 32
-48 11z m30 -21 c0 -14 -3 -14 -15 -4 -8 7 -15 14 -15 16 0 2 7 4 15 4 8 0 15
-7 15 -16z"/>
<path d="M4050 1082 c0 -5 9 -17 20 -27 16 -14 20 -15 20 -4 0 16 -19 39 -32
39 -4 0 -8 -4 -8 -8z"/>
<path d="M6140 1069 c-11 -8 -12 -12 -2 -16 16 -6 16 -105 0 -121 -9 -9 -6
-12 16 -12 24 0 26 2 16 14 -7 9 -10 40 -9 75 3 67 0 75 -21 60z"/>
<path d="M2440 1048 c0 -5 27 -8 60 -8 33 0 60 4 60 9 0 5 -27 8 -60 8 -33 -1
-60 -5 -60 -9z"/>
<path d="M1732 1028 c3 -7 13 -15 22 -16 12 -3 17 1 14 10 -3 7 -13 15 -22 16
-12 3 -17 -1 -14 -10z"/>
<path d="M9736 1031 c-4 -5 -2 -12 3 -15 5 -4 12 -2 15 3 4 5 2 12 -3 15 -5 4
-12 2 -15 -3z"/>
<path d="M3570 1021 c-15 -4 -20 -10 -13 -14 13 -8 43 1 43 14 0 5 -1 9 -2 8
-2 -1 -14 -4 -28 -8z"/>
<path d="M6460 990 c0 -5 5 -10 10 -10 6 0 10 5 10 10 0 6 -4 10 -10 10 -5 0
-10 -4 -10 -10z"/>
<path d="M6490 990 c0 -5 4 -10 9 -10 6 0 13 5 16 10 3 6 -1 10 -9 10 -9 0
-16 -4 -16 -10z"/>
<path d="M6530 989 c0 -5 5 -7 10 -4 6 3 10 8 10 11 0 2 -4 4 -10 4 -5 0 -10
-5 -10 -11z"/>
<path d="M6560 990 c0 -5 5 -10 10 -10 6 0 10 5 10 10 0 6 -4 10 -10 10 -5 0
-10 -4 -10 -10z"/>
<path d="M6590 990 c0 -5 5 -10 10 -10 6 0 10 5 10 10 0 6 -4 10 -10 10 -5 0
-10 -4 -10 -10z"/>
<path d="M6625 990 c-3 -5 -2 -10 4 -10 5 0 13 5 16 10 3 6 2 10 -4 10 -5 0
-13 -4 -16 -10z"/>
<path d="M6660 990 c0 -5 5 -10 10 -10 6 0 10 5 10 10 0 6 -4 10 -10 10 -5 0
-10 -4 -10 -10z"/>
<path d="M6693 987 c4 -14 49 -15 54 -1 2 6 -10 11 -27 12 -20 0 -30 -4 -27
-11z"/>
<path d="M6760 984 c0 -8 5 -12 10 -9 6 3 10 10 10 16 0 5 -4 9 -10 9 -5 0
-10 -7 -10 -16z"/>
<path d="M6790 991 c0 -6 5 -13 10 -16 6 -3 10 0 10 7 0 10 2 10 9 -1 5 -7 14
-10 20 -7 21 13 11 26 -19 26 -16 0 -30 -4 -30 -9z"/>
<path d="M6860 990 c0 -5 5 -10 11 -10 5 0 7 5 4 10 -3 6 -8 10 -11 10 -2 0
-4 -4 -4 -10z"/>
<path d="M6890 985 c0 -8 5 -15 10 -15 6 0 10 7 10 15 0 8 -4 15 -10 15 -5 0
-10 -7 -10 -15z"/>
<path d="M6920 992 c0 -17 13 -22 27 -11 9 9 13 8 13 0 0 -6 5 -11 10 -11 6 0
10 7 10 15 0 10 -10 15 -30 15 -16 0 -30 -4 -30 -8z"/>
<path d="M6990 991 c0 -6 5 -13 10 -16 6 -3 10 1 10 9 0 9 -4 16 -10 16 -5 0
-10 -4 -10 -9z"/>
<path d="M7026 992 c-11 -10 6 -22 30 -22 14 0 24 6 24 14 0 13 -43 20 -54 8z"/>
<path d="M7096 991 c-4 -7 -5 -15 -2 -18 9 -9 19 4 14 18 -4 11 -6 11 -12 0z"/>
<path d="M7130 983 c0 -7 11 -13 26 -13 15 0 24 5 22 12 -6 16 -48 18 -48 1z"/>
<path d="M7196 991 c-4 -7 -5 -15 -2 -18 9 -9 19 4 14 18 -4 11 -6 11 -12 0z"/>
<path d="M7230 985 c0 -8 4 -15 8 -15 5 0 9 7 9 15 0 8 -4 15 -9 15 -4 0 -8
-7 -8 -15z"/>
<path d="M7257 994 c-8 -8 1 -24 14 -24 5 0 9 7 9 15 0 15 -12 20 -23 9z"/>
<path d="M7290 985 c0 -8 5 -15 10 -15 6 0 10 7 10 15 0 8 -4 15 -10 15 -5 0
-10 -7 -10 -15z"/>
<path d="M7330 984 c0 -8 5 -12 10 -9 6 4 8 11 5 16 -9 14 -15 11 -15 -7z"/>
<path d="M7360 985 c0 -8 5 -15 10 -15 6 0 10 7 10 15 0 8 -4 15 -10 15 -5 0
-10 -7 -10 -15z"/>
<path d="M7390 984 c0 -17 16 -18 26 -3 4 8 9 7 15 -2 7 -11 9 -11 9 2 0 11
-9 17 -25 17 -15 0 -25 -6 -25 -14z"/>
<path d="M7460 985 c0 -8 4 -15 10 -15 5 0 7 7 4 15 -4 8 -8 15 -10 15 -2 0
-4 -7 -4 -15z"/>
<path d="M7497 993 c-15 -14 -6 -23 23 -23 29 0 40 13 20 25 -5 3 -10 1 -10
-6 0 -8 -3 -9 -13 0 -8 6 -17 8 -20 4z"/>
<path d="M7566 991 c-4 -7 -5 -15 -2 -18 9 -9 19 4 14 18 -4 11 -6 11 -12 0z"/>
<path d="M7626 993 c-11 -11 -6 -23 9 -23 8 0 15 4 15 9 0 13 -16 22 -24 14z"/>
<path d="M7660 980 c0 -19 3 -21 12 -12 9 9 9 15 0 24 -9 9 -12 7 -12 -12z"/>
<path d="M7725 992 c-12 -13 -3 -24 15 -19 11 3 20 1 20 -5 0 -5 5 -6 10 -3 6
3 10 10 10 14 0 10 -47 21 -55 13z"/>
<path d="M9735 990 c4 -6 11 -8 16 -5 14 9 11 15 -7 15 -8 0 -12 -5 -9 -10z"/>
<path d="M7590 980 c0 -5 5 -10 10 -10 6 0 10 5 10 10 0 6 -4 10 -10 10 -5 0
-10 -4 -10 -10z"/>
<path d="M7690 980 c0 -5 5 -10 10 -10 6 0 10 5 10 10 0 6 -4 10 -10 10 -5 0
-10 -4 -10 -10z"/>
<path d="M7790 980 c0 -5 5 -10 11 -10 5 0 7 5 4 10 -3 6 -8 10 -11 10 -2 0
-4 -4 -4 -10z"/>
<path d="M7823 977 c4 -14 49 -15 54 -1 2 6 -10 11 -27 12 -20 0 -30 -4 -27
-11z"/>
<path d="M7890 981 c0 -6 5 -13 10 -16 6 -3 10 1 10 9 0 9 -4 16 -10 16 -5 0
-10 -4 -10 -9z"/>
<path d="M8045 940 c3 -5 8 -10 11 -10 2 0 4 5 4 10 0 6 -5 10 -11 10 -5 0 -7
-4 -4 -10z"/>
<path d="M9739 938 c-6 -24 -5 -58 2 -58 5 0 9 14 9 30 0 17 -2 30 -5 30 -3 0
-5 -1 -6 -2z"/>
<path d="M8040 910 c0 -5 5 -10 10 -10 6 0 10 5 10 10 0 6 -4 10 -10 10 -5 0
-10 -4 -10 -10z"/>
<path d="M8045 870 c3 -5 8 -10 11 -10 2 0 4 5 4 10 0 6 -5 10 -11 10 -5 0 -7
-4 -4 -10z"/>
<path d="M8040 840 c0 -5 5 -10 10 -10 6 0 10 5 10 10 0 6 -4 10 -10 10 -5 0
-10 -4 -10 -10z"/>
<path d="M9730 820 c0 -5 5 -10 10 -10 6 0 10 5 10 10 0 6 -4 10 -10 10 -5 0
-10 -4 -10 -10z"/>
<path d="M8040 810 c0 -5 5 -10 10 -10 6 0 10 5 10 10 0 6 -4 10 -10 10 -5 0
-10 -4 -10 -10z"/>
<path d="M9730 790 c0 -5 5 -10 10 -10 6 0 10 5 10 10 0 6 -4 10 -10 10 -5 0
-10 -4 -10 -10z"/>
<path d="M10402 759 c5 -14 12 -18 93 -57 51 -24 56 -46 13 -62 -52 -19 -102
-48 -106 -60 -3 -9 1 -9 17 -1 11 7 21 9 21 6 0 -3 18 6 39 19 21 14 42 22 45
19 3 -3 14 1 23 9 10 8 26 18 36 21 9 4 17 10 17 14 -1 4 -41 28 -91 53 -111
55 -113 56 -107 39z"/>
<path d="M6164 586 c-40 -40 -46 -92 -14 -121 57 -51 159 64 116 130 -24 36
-61 32 -102 -9z m79 -34 c-1 -52 -26 -84 -62 -80 -22 3 -26 9 -27 42 -3 46 32
89 69 84 19 -3 22 -9 20 -46z"/>
<path d="M7956 565 c-36 -36 -26 -95 17 -95 l22 0 -24 19 c-28 21 -25 56 4 56
16 0 20 -7 21 -35 1 -48 -14 -77 -43 -85 -14 -3 -23 -9 -20 -12 14 -13 59 10
77 40 26 42 25 79 -3 105 -28 26 -31 27 -51 7z"/>
<path d="M8057 539 c-15 -33 -13 -94 5 -116 16 -20 56 -15 68 6 5 11 10 38 10
61 0 53 -15 80 -44 80 -16 0 -28 -9 -39 -31z m61 -52 c-3 -57 -22 -72 -39 -33
-17 37 5 114 27 95 10 -9 14 -27 12 -62z"/>
<path d="M9604 555 c-12 -9 -14 -14 -5 -15 10 0 12 -16 9 -70 -4 -68 -3 -70
20 -70 18 0 23 4 18 16 -3 9 -6 47 -6 85 0 38 -4 69 -8 69 -5 0 -17 -7 -28
-15z"/>
<path d="M9718 559 c-20 -11 -24 -54 -7 -65 8 -5 6 -10 -5 -16 -19 -11 -21
-49 -4 -66 29 -29 78 -7 78 35 0 12 -7 26 -16 31 -14 8 -14 10 0 21 22 18 20
48 -3 61 -23 12 -22 12 -43 -1z m32 -34 c0 -14 -4 -25 -9 -25 -12 0 -23 29
-15 41 10 18 24 9 24 -16z m3 -75 c3 -14 0 -23 -10 -27 -20 -8 -34 17 -22 39
12 22 24 17 32 -12z"/>
<path d="M9817 542 c-24 -26 -23 -104 1 -125 22 -20 46 -22 60 -4 16 19 23 79
14 112 -10 37 -49 46 -75 17z m56 -24 c15 -23 -3 -93 -23 -93 -11 0 -16 14
-18 58 -3 51 -1 58 14 55 9 -1 22 -11 27 -20z"/>
<path d="M10587 554 c-3 -4 1 -13 9 -21 20 -20 14 -46 -14 -58 -24 -10 -28
-20 -12 -30 5 -3 15 3 22 15 16 25 25 25 33 -1 6 -19 8 -20 26 -3 17 16 17 40
-1 29 -4 -3 -11 2 -14 11 -7 18 11 47 24 39 5 -3 11 -1 14 4 11 17 -17 24 -29
7 -11 -14 -14 -15 -25 -1 -13 16 -23 19 -33 9z"/>
</g>
</svg>
