<?xml version="1.0" standalone="no"?>
<!DOCTYPE svg PUBLIC "-//W3C//DTD SVG 20010904//EN"
 "http://www.w3.org/TR/2001/REC-SVG-20010904/DTD/svg10.dtd">
<svg version="1.0" xmlns="http://www.w3.org/2000/svg"
 width="1082.000000pt" height="477.000000pt" viewBox="0 0 1082.000000 477.000000"
 preserveAspectRatio="xMidYMid meet">
<metadata>
Created by potrace 1.16, written by Peter Selinger 2001-2019
</metadata>
<g transform="translate(0.000000,477.000000) scale(0.100000,-0.100000)"
fill="#000000" stroke="none">
<path d="M8193 4404 c6 -7 -53 -59 -76 -67 -7 -2 -9 -8 -5 -12 4 -4 15 -2 24
5 14 13 15 8 13 -41 -1 -30 -9 -65 -17 -79 l-15 -25 21 19 c12 11 22 25 22 33
0 10 18 13 70 13 63 0 70 -2 70 -20 0 -14 -7 -20 -22 -21 l-23 0 23 -12 c32
-15 39 -1 40 84 1 50 -2 69 -11 68 -6 -1 -23 -1 -37 0 -22 1 -23 3 -7 12 22
13 13 29 -18 29 -13 0 -27 5 -30 10 -3 6 -11 10 -17 10 -6 0 -8 -3 -5 -6z m37
-47 c-9 -7 -14 -20 -12 -29 3 -14 -3 -18 -27 -18 -36 0 -41 17 -8 30 12 5 16
9 9 9 -25 2 0 21 26 21 23 -1 25 -2 12 -13z m68 -34 c2 -9 -7 -13 -27 -13 -21
0 -31 5 -31 16 0 19 51 16 58 -3z m-78 -43 c0 -14 -6 -18 -25 -16 -46 5 -47
30 -1 32 19 1 26 -3 26 -16z m80 4 c0 -13 -58 -25 -66 -13 -6 10 26 28 48 26
10 -1 18 -7 18 -13z"/>
<path d="M9410 4351 c0 -48 -3 -61 -15 -61 -8 0 -15 -7 -15 -16 0 -14 3 -14
15 -4 13 11 15 7 15 -24 0 -28 -4 -36 -17 -36 -15 0 -16 -2 -3 -10 26 -17 30
-11 30 40 0 50 0 50 28 44 35 -9 38 -12 24 -26 -16 -16 -15 -29 2 -22 7 3 29
-4 47 -15 43 -26 57 -27 35 -2 -17 18 -17 21 -2 43 9 13 19 21 23 18 3 -3 8 0
10 7 3 8 -8 10 -38 6 -30 -4 -40 -3 -35 5 4 7 22 12 41 12 19 0 37 5 40 10 6
10 -7 14 -34 10 -12 -1 -11 3 2 24 23 34 22 38 -9 30 -18 -5 -25 -3 -21 3 4 6
0 13 -8 17 -9 3 -15 -1 -15 -10 0 -12 -6 -15 -24 -10 -14 3 -28 2 -31 -4 -4
-6 15 -10 51 -10 56 0 57 0 39 -20 -22 -25 -34 -25 -52 -2 -14 16 -14 16 -9 0
4 -14 0 -18 -20 -18 -16 0 -23 -4 -18 -11 3 -6 19 -9 35 -7 23 4 26 2 18 -9
-13 -15 -47 -17 -67 -4 -19 12 -10 46 11 45 9 -1 17 3 17 8 0 6 -9 8 -21 5
-18 -5 -20 -2 -16 19 2 13 0 27 -4 30 -5 3 -9 -22 -9 -55z m124 -79 c2 -4 1
-14 -3 -20 -10 -17 -41 -4 -34 14 6 15 29 19 37 6z"/>
<path d="M9793 4399 c-6 -6 -27 -11 -47 -12 l-36 -2 -1 -55 c0 -30 -2 -63 -4
-73 -2 -9 1 -15 6 -11 5 3 12 23 15 45 5 29 11 39 25 39 16 0 19 -8 19 -55 0
-30 5 -55 10 -55 6 0 10 25 10 55 0 52 1 55 25 55 14 0 25 5 25 10 0 6 -20 8
-55 4 -45 -6 -55 -4 -55 8 0 16 28 28 67 28 12 0 24 4 27 9 8 13 -20 21 -31
10z"/>
<path d="M9912 4385 c-6 -14 -17 -22 -24 -20 -10 4 -13 -14 -13 -75 0 -57 4
-80 13 -80 6 0 12 5 12 10 0 6 9 10 20 10 11 0 20 -5 20 -12 0 -8 3 -8 9 -2 5
5 11 41 12 79 2 61 0 70 -15 68 -13 -1 -16 4 -13 18 8 29 -9 32 -21 4z m28
-60 c0 -17 -6 -25 -17 -26 -17 -1 -17 -2 0 -6 20 -5 23 -39 4 -46 -25 -9 -35
8 -34 56 2 42 5 47 25 47 17 0 22 -6 22 -25z"/>
<path d="M9986 4363 c-9 -26 -14 -49 -11 -51 3 -3 5 -2 5 2 0 4 11 -6 24 -21
13 -15 27 -25 31 -21 4 4 -5 18 -20 32 -33 30 -25 46 22 46 l35 0 -7 -52 c-9
-69 -20 -88 -45 -81 -11 3 -20 1 -20 -5 0 -12 44 -22 59 -13 12 8 19 39 25
112 l5 57 -39 -5 c-40 -6 -50 3 -29 24 7 7 6 12 -5 16 -10 4 -19 -7 -30 -40z"/>
<path d="M10230 4394 c0 -10 -5 -14 -16 -10 -8 3 -13 2 -9 -3 3 -5 3 -15 0
-23 -7 -19 -45 -21 -45 -2 0 8 7 14 15 14 8 0 15 5 15 10 0 6 -11 10 -24 10
-23 0 -25 -3 -29 -77 -2 -43 -6 -88 -10 -100 -9 -35 2 -27 19 12 7 19 14 50
14 70 0 28 4 35 20 35 13 0 20 -7 20 -20 0 -16 6 -19 38 -16 35 2 37 5 40 40
l3 37 -24 -16 c-19 -12 -27 -13 -33 -4 -9 15 24 41 40 32 6 -4 5 1 -3 10 -17
21 -31 22 -31 1z m35 -69 c0 -5 -10 -11 -22 -13 -15 -2 -23 2 -23 11 0 8 9 14
23 13 12 0 22 -5 22 -11z"/>
<path d="M5997 4394 c-4 -4 -7 -17 -7 -29 0 -17 -6 -22 -25 -22 -31 0 -33 23
-3 30 12 4 19 9 16 13 -4 3 -18 4 -31 0 -23 -5 -24 -10 -23 -66 1 -33 -1 -60
-6 -60 -4 0 -8 -4 -8 -8 0 -5 29 -8 65 -7 36 1 65 -2 65 -7 0 -13 42 -47 58
-48 23 0 12 18 -24 39 -32 19 -35 25 -32 59 2 30 7 38 26 40 22 3 23 1 17 -30
-4 -18 -11 -34 -16 -36 -20 -8 -7 -19 17 -16 26 2 47 14 27 14 -7 0 -9 21 -6
60 5 50 3 61 -11 66 -10 4 -22 2 -29 -5 -8 -8 -7 -11 6 -11 9 0 17 -7 17 -15
0 -11 -10 -14 -40 -13 -40 1 -58 18 -20 18 11 0 20 5 20 10 0 6 -9 10 -19 10
-11 0 -21 5 -23 11 -2 5 -7 7 -11 3z m23 -101 c0 -18 -5 -33 -11 -33 -7 0 -9
10 -5 25 4 14 2 25 -4 25 -5 0 -10 -6 -10 -14 0 -19 -29 -48 -41 -41 -16 10
-10 35 9 36 16 1 16 2 0 6 -10 2 -18 11 -18 19 0 10 11 13 40 12 38 -1 40 -3
40 -35z"/>
<path d="M7360 4296 c0 -78 3 -106 13 -106 9 0 11 18 9 66 l-4 66 33 -4 c30
-3 32 -1 34 32 2 42 -6 61 -15 35 -8 -24 -52 -32 -48 -9 2 10 -3 19 -9 21 -10
4 -13 -21 -13 -101z m55 44 c-27 -12 -35 -12 -35 0 0 6 12 10 28 9 24 0 25 -1
7 -9z"/>
<path d="M7540 4390 c-12 -8 -12 -10 -1 -10 23 0 2 -14 -22 -15 -12 0 -25 7
-29 15 -4 8 -7 -3 -7 -26 -1 -39 0 -40 29 -36 l30 4 0 -55 c0 -45 -3 -56 -17
-60 -17 -4 -17 -4 0 -12 10 -4 22 -4 27 1 9 9 19 204 10 204 -3 0 -12 -5 -20
-10z m0 -47 c0 -5 -11 -9 -25 -9 -14 -1 -25 2 -25 7 0 5 11 9 25 9 14 0 25 -3
25 -7z"/>
<path d="M7704 4383 c1 -14 -8 -19 -41 -21 -67 -5 -50 -17 23 -17 36 0 69 -2
75 -5 5 -4 -16 -28 -46 -54 -34 -29 -55 -42 -55 -32 0 8 -4 18 -10 21 -11 7
-40 -55 -32 -70 3 -5 11 4 18 20 l12 30 13 -27 c7 -16 17 -29 23 -29 51 -6
127 -5 131 1 2 4 -27 10 -66 12 -76 6 -94 14 -65 30 10 5 25 19 34 29 9 10 22
19 30 19 7 0 15 8 19 18 3 9 13 25 21 35 16 19 14 20 -37 17 -30 -2 -33 1 -28
19 3 13 0 21 -8 21 -7 0 -12 -8 -11 -17z"/>
<path d="M7960 4385 c0 -11 -12 -15 -45 -15 -25 0 -45 -4 -45 -8 0 -9 198 -7
206 1 3 2 -2 10 -11 17 -10 8 -15 9 -15 1 0 -6 -16 -11 -36 -11 -28 0 -35 3
-30 15 3 9 0 15 -9 15 -8 0 -15 -7 -15 -15z"/>
<path d="M8390 4392 c0 -4 9 -13 21 -20 19 -12 19 -11 9 8 -10 19 -30 28 -30
12z"/>
<path d="M8456 4388 c-12 -40 -16 -48 -23 -46 -13 5 -56 -44 -47 -51 5 -3 9
-12 9 -18 0 -7 5 -12 10 -10 6 1 9 9 8 17 -2 18 15 50 27 50 6 0 10 -15 10
-32 l0 -33 60 3 c60 4 84 21 33 23 -24 2 -25 2 -5 6 27 5 29 23 2 23 -13 0
-20 7 -20 20 0 15 7 20 26 20 16 0 24 5 21 13 -2 6 -10 11 -17 9 -7 -2 -17 3
-22 10 -8 10 -11 10 -15 1 -2 -7 -14 -13 -24 -13 -11 0 -17 5 -14 10 3 6 1 10
-5 10 -6 0 -12 -6 -14 -12z m44 -53 c0 -14 -6 -25 -13 -25 -20 0 -25 9 -20 31
8 28 33 24 33 -6z m-5 -45 c-3 -5 -10 -10 -16 -10 -5 0 -9 5 -9 10 0 6 7 10
16 10 8 0 12 -4 9 -10z"/>
<path d="M8757 4394 c-3 -6 -35 -9 -71 -8 -36 1 -66 -3 -66 -7 0 -5 7 -9 15
-9 12 0 14 -7 9 -27 -4 -16 -11 -36 -15 -45 -12 -23 -11 -31 3 -22 8 5 9 -4 5
-34 -7 -41 5 -66 17 -35 5 12 9 14 18 5 21 -21 25 -13 26 49 0 55 -2 60 -19
56 -15 -4 -19 0 -19 23 0 22 5 29 25 32 22 5 25 2 20 -16 -6 -19 -5 -20 8 -3
26 31 40 20 20 -15 -15 -25 -18 -47 -15 -88 l4 -55 59 3 c32 2 59 8 59 13 0 5
-12 8 -27 7 -25 -3 -28 0 -28 27 0 23 6 31 25 36 23 6 22 9 -5 13 -5 0 -10 6
-11 11 0 6 8 9 18 7 16 -3 19 1 14 16 -4 11 -2 23 4 27 21 13 9 25 -24 25 -19
0 -36 5 -38 12 -3 8 -7 8 -11 2z m53 -44 c0 -11 -5 -20 -11 -20 -5 0 -7 5 -4
10 3 6 -1 10 -9 10 -9 0 -16 -4 -16 -10 0 -5 -4 -10 -9 -10 -7 0 -8 17 -2 38
1 1 12 2 26 2 18 0 25 -5 25 -20z m-51 -47 c0 -5 -3 -9 -9 -11 -5 -2 -10 4
-10 13 0 16 16 14 19 -2z m-79 -38 c0 -22 -5 -35 -13 -35 -8 0 -13 13 -13 35
0 22 5 35 13 35 8 0 13 -13 13 -35z m86 4 c3 -6 1 -15 -6 -19 -10 -6 -10 -8 1
-12 7 -2 9 -10 5 -16 -14 -23 -26 -12 -26 23 0 34 12 46 26 24z"/>
<path d="M8965 4390 c-49 -3 -73 -7 -52 -8 24 -1 37 -7 37 -16 0 -30 -13 -46
-36 -46 -13 0 -24 -4 -24 -10 0 -5 18 -10 40 -10 29 0 40 -4 40 -15 0 -11 -11
-15 -41 -15 -27 0 -38 -4 -33 -11 4 -7 21 -9 40 -6 31 5 34 3 34 -19 0 -22 -4
-24 -52 -26 -32 -1 -13 -4 47 -8 103 -7 129 -4 120 11 -3 5 -26 6 -50 2 -41
-5 -45 -4 -45 15 0 16 7 21 33 24 17 2 31 8 31 13 -1 6 -16 9 -33 7 -26 -3
-31 0 -31 17 0 23 28 28 61 11 32 -17 23 13 -11 38 -33 24 -40 27 -40 12 0 -5
7 -10 15 -10 34 0 12 -15 -25 -18 -45 -3 -46 -1 -24 33 14 21 24 25 66 25 30
0 47 4 43 10 -3 6 -9 9 -13 8 -4 -1 -47 -5 -97 -8z"/>
<path d="M9160 4363 c1 -34 2 -36 14 -20 19 24 106 25 106 0 0 -25 18 -3 22
27 2 20 -1 24 -17 22 -11 -2 -26 -4 -32 -4 -7 -1 -13 -5 -13 -10 0 -14 -48 -9
-54 7 -10 28 -26 15 -26 -22z"/>
<path d="M9655 4380 c10 -11 22 -17 28 -13 6 4 3 12 -8 20 -28 20 -41 16 -20
-7z"/>
<path d="M953 4382 l-93 -3 0 -94 c0 -52 -1 -97 -2 -101 -2 -3 41 -6 94 -7
l97 -2 3 103 c2 57 1 105 -2 105 -3 1 -47 1 -97 -1z m24 -37 c0 -19 -53 -21
-60 -2 -3 6 -6 2 -6 -10 -1 -15 5 -23 15 -23 8 0 13 -4 10 -9 -4 -5 -14 -8
-24 -6 -9 2 -23 4 -29 4 -8 1 -13 14 -13 31 0 30 1 30 53 30 41 0 54 -4 54
-15z m53 -70 c0 -66 -3 -85 -14 -85 -8 0 -13 7 -10 18 9 43 11 102 3 102 -5 0
-9 -4 -9 -9 0 -5 -11 -8 -25 -7 -32 1 -31 4 1 16 19 8 25 16 21 30 -4 15 0 20
14 20 17 0 19 -8 19 -85z m-138 -35 c-5 -61 -22 -56 -22 6 0 28 4 44 13 44 8
0 11 -15 9 -50z m98 10 c0 -16 -4 -30 -8 -30 -5 0 -7 14 -4 30 2 17 6 30 8 30
2 0 4 -13 4 -30z m-30 16 c0 -2 -11 -6 -25 -8 -14 -3 -25 -1 -25 3 0 5 11 9
25 9 14 0 25 -2 25 -4z m-3 -22 c-3 -3 -12 -4 -19 -1 -8 3 -5 6 6 6 11 1 17
-2 13 -5z m0 -20 c-3 -3 -12 -4 -19 -1 -8 3 -5 6 6 6 11 1 17 -2 13 -5z m33
-18 c0 -3 -4 -8 -10 -11 -5 -3 -10 -1 -10 4 0 6 5 11 10 11 6 0 10 -2 10 -4z"/>
<path d="M1190 4367 c0 -21 -4 -24 -40 -21 -42 2 -44 0 -43 -51 1 -55 1 -55
43 -50 l40 5 0 -45 c0 -25 4 -45 9 -45 5 0 8 19 7 43 l-1 42 43 -1 42 -1 0 44
c0 58 0 58 -40 59 -51 2 -52 2 -40 24 9 16 8 20 -5 20 -9 0 -15 -9 -15 -23z
m9 -49 c11 -10 13 -10 7 0 -5 8 3 12 28 12 35 0 36 -1 36 -36 0 -34 -1 -35
-32 -32 -25 2 -32 7 -30 21 2 9 -2 17 -8 17 -5 0 -10 -9 -10 -20 0 -16 -7 -20
-30 -20 -28 0 -30 3 -30 35 0 32 3 35 28 35 15 0 34 -6 41 -12z"/>
<path d="M1390 4375 c-40 -14 -37 -6 -43 -120 -4 -80 -3 -87 8 -60 8 17 16 38
19 49 5 14 13 17 36 12 29 -5 30 -5 30 34 0 39 -1 40 -35 40 -43 0 -46 16 -5
25 30 7 47 20 33 27 -5 3 -24 -1 -43 -7z m38 -82 c-2 -11 -14 -19 -31 -21 -22
-3 -27 1 -27 17 0 17 6 21 31 21 24 0 30 -4 27 -17z"/>
<path d="M1510 4380 c-8 -5 -25 -10 -37 -10 -22 0 -23 -4 -23 -67 0 -41 -6
-80 -15 -97 -17 -33 -18 -36 -7 -36 15 0 42 59 42 92 0 27 4 34 21 34 18 0 20
-6 18 -60 -2 -39 1 -61 9 -64 8 -2 12 16 12 62 0 36 3 65 8 64 4 -2 7 2 7 7 0
6 -17 8 -37 7 -32 -3 -38 -1 -38 16 0 13 10 22 32 28 17 5 33 15 36 22 4 14
-7 15 -28 2z"/>
<path d="M1744 4380 c-5 -5 -36 -11 -69 -13 -57 -3 -56 -3 18 -5 43 -1 77 2
77 7 0 15 -16 21 -26 11z"/>
<path d="M1957 4383 c-2 -1 -22 -3 -46 -5 -23 -2 -41 -6 -39 -9 2 -4 -6 -16
-16 -28 -11 -12 -16 -24 -12 -28 4 -4 12 -1 17 7 16 24 8 -81 -7 -107 -19 -31
-18 -32 14 -24 15 4 28 16 30 27 4 18 3 18 -12 -1 -16 -20 -21 -10 -10 19 8
22 114 23 114 2 0 -8 5 -18 11 -22 8 -4 9 0 4 15 -5 16 -2 21 10 21 12 0 15
-5 9 -22 -11 -36 -27 -39 -51 -10 -12 15 -22 22 -23 15 0 -13 39 -53 51 -53
23 0 39 15 39 35 0 13 5 27 10 30 17 11 -1 26 -22 19 -18 -5 -20 -3 -15 15 3
13 0 21 -8 21 -8 0 -11 8 -8 20 4 16 0 20 -21 20 -16 0 -26 5 -26 15 0 26 45
18 58 -10 6 -14 16 -25 22 -25 15 0 12 16 -5 30 -8 7 -15 19 -15 26 0 9 -10
13 -26 12 -14 -2 -26 -3 -27 -5z m-22 -33 c4 -6 -7 -10 -25 -10 -18 0 -29 4
-25 10 3 6 15 10 25 10 10 0 22 -4 25 -10z m40 -40 c-3 -5 -24 -10 -46 -10
-21 0 -39 5 -39 10 0 6 21 10 46 10 27 0 43 -4 39 -10z m25 -35 c0 -11 -13
-15 -54 -15 -51 0 -74 9 -59 24 3 3 30 6 60 6 40 0 53 -4 53 -15z"/>
<path d="M2940 4379 c-58 -3 -100 -6 -95 -8 6 -2 29 -2 53 -1 23 1 42 -3 42
-8 0 -18 -29 -34 -56 -30 l-26 3 -2 -78 c-1 -75 5 -100 19 -77 8 14 155 13
155 -1 0 -5 5 -7 11 -4 6 4 9 38 7 85 l-2 78 -54 -5 c-53 -6 -54 -5 -43 15 9
16 22 22 64 24 28 2 48 5 42 8 -5 3 -57 3 -115 -1z m-34 -119 c0 -43 -4 -60
-13 -60 -9 0 -13 17 -13 60 0 42 4 60 13 60 8 0 13 -18 13 -60z m64 46 c0 -8
-9 -12 -22 -11 -30 3 -30 3 -23 15 9 15 45 12 45 -4z m58 -49 c3 -52 1 -57
-18 -57 -18 0 -20 6 -20 61 0 52 2 60 18 57 13 -2 18 -15 20 -61z m-58 8 c0
-9 -9 -15 -25 -15 -24 0 -32 10 -18 23 12 13 43 7 43 -8z m0 -45 c0 -13 -7
-20 -18 -20 -24 0 -32 8 -25 26 8 22 43 17 43 -6z"/>
<path d="M3111 4368 c2 -13 -3 -34 -10 -46 -7 -13 -9 -27 -5 -30 4 -4 9 -1 11
6 3 6 17 12 33 12 23 0 27 -3 23 -20 -6 -21 -18 -26 -27 -11 -4 5 0 12 6 14 8
4 7 6 -4 6 -13 1 -17 -11 -20 -56 -2 -32 -1 -62 4 -67 5 -6 8 -6 8 1 0 7 23 9
69 6 l68 -5 17 41 c9 23 16 44 16 46 0 3 -22 5 -50 5 -46 0 -50 -2 -50 -24 0
-13 6 -26 13 -29 9 -3 9 -7 0 -17 -21 -22 -34 0 -32 55 2 48 4 53 20 44 23
-12 38 -11 19 1 -12 8 -10 10 8 10 13 0 20 -4 17 -10 -8 -13 8 -13 22 1 8 8
13 8 17 0 4 -6 15 -11 24 -11 13 0 14 2 4 9 -9 5 -12 21 -10 42 2 25 -1 34
-12 34 -8 0 -18 5 -22 10 -5 6 -12 4 -18 -5 -9 -13 -10 -13 -10 0 0 12 -2 12
-8 2 -5 -7 -16 -10 -25 -7 -11 5 -17 -1 -20 -22 l-4 -28 -2 31 c0 19 -6 31
-15 31 -8 0 -12 -6 -9 -12 2 -7 -3 -15 -13 -19 -13 -5 -15 -2 -11 14 3 13 0
20 -10 20 -9 0 -13 -8 -12 -22z m117 -15 c-2 -5 2 -8 7 -8 6 0 9 3 8 8 -2 4 2
7 7 7 12 0 12 -3 4 -24 -9 -24 -44 -20 -44 4 0 11 5 20 10 20 6 0 9 -3 8 -7z
m-68 -103 c0 -5 -4 -10 -10 -10 -5 0 -10 5 -10 10 0 6 5 10 10 10 6 0 10 -4
10 -10z m110 0 c0 -5 -11 -10 -25 -10 -14 0 -25 5 -25 10 0 6 11 10 25 10 14
0 25 -4 25 -10z m-110 -40 c0 -13 -5 -18 -15 -14 -16 7 -19 17 -8 27 12 13 23
7 23 -13z m100 5 c0 -8 -4 -15 -9 -15 -5 0 -11 7 -15 15 -3 9 0 15 9 15 8 0
15 -7 15 -15z"/>
<path d="M4600 4371 c0 -15 -8 -21 -37 -24 l-38 -4 38 -1 c37 -2 38 -3 35 -34
-2 -27 -11 -36 -50 -56 -30 -16 -45 -29 -41 -38 4 -10 14 -6 41 16 46 38 54
38 50 -2 -3 -28 -7 -33 -28 -31 l-25 3 23 -12 c14 -7 26 -8 32 -2 11 11 19
204 8 204 -5 0 -8 -9 -8 -19z"/>
<path d="M4630 4380 c0 -5 5 -10 10 -10 6 0 10 -7 10 -15 0 -8 5 -15 10 -15
18 0 11 29 -10 40 -14 7 -20 7 -20 0z"/>
<path d="M4754 4381 c-11 -12 11 -18 46 -14 l40 6 0 -52 0 -51 -45 0 c-25 0
-45 -4 -45 -10 0 -5 20 -8 45 -6 l45 3 0 -38 c0 -22 5 -39 10 -39 6 0 10 18
10 40 l0 40 55 0 c30 0 55 5 55 10 0 6 -20 8 -55 4 l-55 -7 0 52 0 51 52 0
c28 0 49 3 46 6 -7 6 -197 11 -204 5z"/>
<path d="M5003 4378 c-2 -5 17 -8 42 -8 39 0 46 -3 41 -16 -3 -9 -6 -17 -6
-18 0 -1 -13 -1 -30 2 l-30 4 0 -78 0 -79 48 4 c26 3 39 6 30 9 -14 2 -18 14
-18 43 0 35 3 39 25 39 32 0 34 -27 3 -33 -23 -4 -23 -4 1 -6 19 -1 22 -5 19
-25 -4 -20 -1 -23 21 -23 14 0 20 2 14 4 -20 7 -18 123 2 123 12 0 15 -14 15
-70 0 -97 18 -88 22 11 l3 81 -51 -4 c-44 -3 -50 -1 -46 15 3 13 15 17 53 17
27 0 49 4 49 8 0 11 -200 10 -207 0z m67 -118 c0 -53 -2 -60 -20 -60 -18 0
-20 7 -20 60 0 53 2 60 20 60 18 0 20 -7 20 -60z m60 51 c0 -12 -21 -19 -37
-13 -22 8 -14 22 12 22 14 0 25 -4 25 -9z"/>
<path d="M6245 4380 c-65 -4 -75 -7 -37 -8 l52 -2 0 -45 0 -45 -56 0 c-34 0
-53 -4 -49 -10 3 -5 28 -10 54 -10 48 0 48 0 47 -32 0 -18 4 -33 9 -33 6 0 10
15 11 34 0 34 1 34 45 35 24 1 44 6 44 11 0 6 -20 9 -46 7 l-45 -4 2 44 c2 42
2 43 40 46 22 2 43 8 49 13 5 5 2 8 -10 7 -11 -1 -60 -5 -110 -8z"/>
<path d="M6418 4383 c7 -3 16 -2 19 1 4 3 -2 6 -13 5 -11 0 -14 -3 -6 -6z"/>
<path d="M6483 4383 c9 -2 17 -13 17 -24 0 -15 -7 -19 -35 -19 l-35 0 0 -72 0
-73 90 0 90 0 0 68 c0 37 -1 70 -2 75 -2 4 -25 5 -51 4 -46 -4 -48 -3 -38 16
15 28 15 27 -22 28 -17 1 -24 -1 -14 -3z m-3 -113 c0 -54 -2 -60 -20 -60 -19
0 -20 6 -18 60 2 50 5 60 20 60 15 0 18 -9 18 -60z m58 43 c2 -8 -5 -13 -17
-13 -21 0 -35 13 -24 24 10 10 36 3 41 -11z m52 -43 c0 -47 -3 -60 -15 -60
-16 0 -16 0 -16 65 0 58 -1 55 16 55 12 0 15 -13 15 -60z m-50 5 c0 -16 -35
-21 -44 -6 -8 12 4 21 26 21 10 0 18 -7 18 -15z m0 -51 c0 -8 -10 -14 -25 -14
-24 0 -30 18 -11 32 13 9 36 -2 36 -18z"/>
<path d="M6568 4383 c12 -2 32 -2 45 0 12 2 2 4 -23 4 -25 0 -35 -2 -22 -4z"/>
<path d="M6995 4380 c-31 -12 -64 -53 -71 -87 -5 -26 -1 -36 22 -58 31 -28 65
-28 94 2 13 14 12 14 -10 8 -14 -4 -30 -10 -36 -12 -6 -2 -19 4 -29 13 -12 13
-15 26 -10 53 11 62 84 97 100 49 l7 -23 7 25 c4 14 7 25 7 26 -6 7 -66 10
-81 4z"/>
<path d="M7130 4382 c-8 -4 -16 -20 -18 -37 -2 -16 -5 -39 -7 -50 -2 -11 -4
-25 -4 -32 -1 -6 -9 -19 -18 -29 -16 -16 -14 -17 42 -12 48 4 63 10 82 32 36
42 40 74 12 101 -26 25 -66 37 -89 27z m64 -31 c13 -15 16 -28 11 -53 -10 -47
-22 -58 -62 -58 -24 0 -34 4 -31 13 3 6 13 36 22 65 19 56 33 63 60 33z"/>
<path d="M10287 4378 c6 -11 43 -10 43 1 0 5 -11 8 -24 7 -13 0 -22 -4 -19 -8z"/>
<path d="M2430 4370 c-79 -5 -87 -6 -45 -10 l50 -5 3 -77 c3 -74 2 -78 -18
-78 -20 0 -21 5 -19 57 2 32 -2 58 -8 60 -6 2 -9 -18 -9 -54 2 -57 1 -58 -29
-64 -16 -4 23 -7 88 -8 66 0 116 3 113 8 -3 5 -26 6 -51 3 l-45 -5 0 42 c0 40
1 41 35 41 19 0 35 5 35 10 0 6 -16 10 -35 10 -32 0 -35 2 -35 31 0 29 2 31
38 27 20 -1 38 0 38 5 2 12 -8 13 -106 7z"/>
<path d="M2600 4285 l0 -90 95 0 c88 0 95 1 96 20 0 11 2 52 4 90 l4 70 -100
0 -99 0 0 -90z m60 36 c0 -27 -24 -71 -40 -71 -6 0 -7 53 -1 102 1 3 10 4 21
1 14 -4 20 -14 20 -32z m50 -11 c0 -54 14 -69 48 -55 15 7 13 9 -8 14 -27 7
-35 29 -26 67 5 19 12 25 29 22 20 -3 22 -8 22 -73 l0 -70 -81 -3 c-67 -2 -81
0 -81 13 0 8 6 15 13 15 24 0 44 31 44 69 0 40 6 51 27 51 9 0 13 -15 13 -50z"/>
<path d="M3807 4348 c-44 -42 -55 -79 -33 -112 8 -14 24 -27 35 -31 23 -7 94
23 85 36 -3 5 -16 1 -30 -8 -62 -40 -105 47 -49 102 30 31 58 32 78 3 l16 -23
0 28 c1 15 -4 27 -11 27 -7 0 -22 3 -34 6 -15 4 -31 -4 -57 -28z"/>
<path d="M5432 4323 c-22 -32 -49 -67 -61 -77 -26 -23 -27 -36 -3 -36 9 0 23
13 30 30 16 35 52 42 52 10 0 -11 -4 -20 -10 -20 -5 0 -10 -4 -10 -8 0 -9 47
-8 57 1 3 4 0 7 -7 7 -10 0 -11 17 -6 75 4 41 5 75 2 75 -3 0 -23 -26 -44 -57z
m22 -28 c-4 -8 -13 -15 -21 -15 -13 0 -13 3 -3 15 7 8 16 15 21 15 5 0 6 -7 3
-15z"/>
<path d="M5544 4343 c-1 -31 -17 -79 -42 -125 -2 -4 18 -4 45 -2 60 7 94 35
76 63 -10 15 -9 22 2 31 36 30 6 70 -52 70 -26 0 -28 -3 -29 -37z m63 1 c3 -8
-1 -23 -10 -31 -12 -13 -13 -20 -4 -35 10 -16 9 -22 -7 -34 -27 -19 -50 -18
-42 2 3 9 6 25 6 35 0 12 4 17 11 14 6 -4 9 -1 8 6 -4 20 11 59 22 59 5 0 12
-7 16 -16z"/>
<path d="M5676 4349 c-37 -44 -38 -91 -3 -120 28 -24 45 -23 82 1 20 14 25 20
13 20 -9 0 -20 -4 -23 -10 -9 -15 -42 -12 -60 6 -11 12 -14 25 -10 43 4 14 7
30 8 36 2 13 48 45 65 45 7 0 17 -11 22 -25 12 -32 15 -32 18 5 2 29 1 30 -42
30 -37 0 -48 -5 -70 -31z"/>
<path d="M6824 4358 c4 -30 -23 -110 -43 -125 -13 -10 -7 -12 35 -13 40 0 55
5 73 23 22 24 20 62 -3 51 -6 -3 -3 1 7 9 43 35 24 77 -34 77 -35 0 -38 -2
-35 -22z m61 -17 c0 -16 -31 -38 -40 -29 -4 4 -4 16 0 28 7 23 40 24 40 1z
m-13 -59 c8 -8 8 -15 -2 -27 -16 -19 -50 -20 -50 -1 0 41 25 55 52 28z"/>
<path d="M3570 4361 c0 -10 -56 -81 -90 -116 -25 -26 -25 -35 -1 -35 12 0 21
9 25 25 5 18 13 25 31 25 27 0 33 -18 13 -38 -9 -9 -4 -12 22 -12 24 0 31 3
21 9 -10 7 -12 25 -6 80 5 49 4 71 -4 71 -6 0 -11 -4 -11 -9z m-5 -58 c-2 -10
-4 -21 -4 -25 -1 -9 -31 -11 -31 -3 0 5 33 45 36 45 1 0 1 -8 -1 -17z"/>
<path d="M3653 4325 c-1 -25 -10 -61 -22 -80 l-20 -35 48 0 c66 0 104 43 69
78 -9 9 -8 12 5 12 17 0 21 11 17 40 -3 21 -20 30 -60 30 -35 0 -35 -1 -37
-45z m77 11 c0 -18 -25 -38 -43 -34 -23 5 -2 48 23 48 11 0 20 -6 20 -14z
m-21 -59 c13 -17 -4 -42 -34 -51 -19 -5 -21 -2 -17 29 4 37 29 48 51 22z"/>
<path d="M3955 4360 c4 -6 1 -25 -5 -44 -6 -18 -13 -43 -15 -56 -2 -12 -9 -28
-16 -36 -10 -12 -4 -14 36 -14 71 0 125 41 125 96 0 31 -47 64 -90 64 -25 0
-39 -4 -35 -10z m92 -38 c8 -33 -14 -73 -51 -91 -40 -19 -47 -3 -26 57 10 28
16 52 14 52 -3 0 -3 4 0 9 11 18 56 -1 63 -27z"/>
<path d="M229 4333 c-26 -28 -59 -78 -59 -88 0 -3 16 -5 35 -5 28 0 35 -4 35
-20 0 -11 5 -20 10 -20 6 0 10 9 10 20 0 11 7 20 16 20 8 0 12 5 9 10 -4 6
-10 8 -15 5 -5 -3 -10 20 -12 50 l-3 56 -26 -28z m17 -45 c-1 -26 -6 -34 -24
-36 -27 -4 -27 1 -5 39 22 38 31 37 29 -3z"/>
<path d="M322 4351 c-32 -20 -17 -145 19 -154 36 -10 60 26 58 86 -1 29 -6 58
-12 65 -11 14 -46 16 -65 3z m52 -27 c9 -25 7 -73 -5 -95 -23 -44 -59 33 -40
84 12 30 36 36 45 11z"/>
<path d="M4685 4350 c-3 -5 1 -10 10 -10 9 0 13 5 10 10 -3 6 -8 10 -10 10 -2
0 -7 -4 -10 -10z"/>
<path d="M6210 4348 c0 -6 -10 -22 -22 -35 -12 -13 -16 -23 -9 -23 15 0 61 52
54 62 -7 12 -23 9 -23 -4z"/>
<path d="M8375 4350 c3 -5 11 -10 16 -10 6 0 7 5 4 10 -3 6 -11 10 -16 10 -6
0 -7 -4 -4 -10z"/>
<path d="M9630 4354 c0 -10 28 -34 39 -34 20 0 11 17 -14 28 -14 6 -25 9 -25
6z"/>
<path d="M4498 4343 c7 -3 16 -2 19 1 4 3 -2 6 -13 5 -11 0 -14 -3 -6 -6z"/>
<path d="M4783 4315 c-26 -41 -5 -36 26 5 14 19 17 30 9 30 -7 -1 -23 -16 -35
-35z"/>
<path d="M4880 4347 c0 -2 14 -16 30 -32 33 -32 42 -17 10 15 -17 17 -40 27
-40 17z"/>
<path d="M6316 4325 c17 -27 33 -33 30 -12 -3 21 -17 37 -32 37 -12 0 -12 -4
2 -25z"/>
<path d="M7898 4320 c-23 -21 -27 -28 -13 -23 26 9 74 53 58 53 -7 0 -27 -14
-45 -30z"/>
<path d="M8008 4343 c-2 -4 6 -19 19 -32 16 -17 23 -20 23 -9 0 18 -36 53 -42
41z"/>
<path d="M8535 4340 c3 -5 10 -10 16 -10 5 0 9 5 9 10 0 6 -7 10 -16 10 -8 0
-12 -4 -9 -10z"/>
<path d="M9198 4343 c7 -3 16 -2 19 1 4 3 -2 6 -13 5 -11 0 -14 -3 -6 -6z"/>
<path d="M10300 4340 c0 -5 5 -10 10 -10 6 0 10 5 10 10 0 6 -4 10 -10 10 -5
0 -10 -4 -10 -10z"/>
<path d="M1770 4319 c-8 -5 -55 -9 -104 -9 -49 0 -86 -3 -83 -7 4 -4 30 -6 59
-4 l51 2 -5 -66 c-4 -47 -2 -65 6 -62 6 2 12 31 14 65 l3 62 44 0 c25 0 45 4
45 9 0 16 -15 20 -30 10z"/>
<path d="M9215 4320 c-55 -3 -94 -7 -86 -8 10 -2 12 -15 9 -56 -4 -54 -4 -54
19 -45 35 13 46 11 39 -6 -3 -9 0 -15 9 -15 10 0 13 14 12 55 -1 38 2 56 11
60 24 9 93 5 87 -5 -3 -5 -13 -6 -22 -3 -11 4 -14 3 -9 -5 4 -7 4 -21 1 -33
-5 -16 -10 -18 -21 -8 -8 6 -14 18 -14 25 0 8 -4 14 -10 14 -16 0 -12 -21 7
-43 17 -18 17 -19 1 -31 -10 -7 -15 -16 -11 -19 3 -4 12 -2 20 5 10 8 20 8 39
-1 31 -14 44 -14 44 -1 0 5 -11 12 -25 16 -23 6 -36 34 -16 34 8 0 35 60 30
68 -5 7 -23 7 -114 2z m-25 -20 c0 -5 -4 -10 -10 -10 -5 0 -10 5 -10 10 0 6 5
10 10 10 6 0 10 -4 10 -10z m10 -30 c0 -5 -9 -10 -20 -10 -11 0 -20 5 -20 10
0 6 9 10 20 10 11 0 20 -4 20 -10z m-10 -30 c-19 -13 -30 -13 -30 0 0 6 10 10
23 10 18 0 19 -2 7 -10z"/>
<path d="M10459 4323 c0 -5 -2 -15 -4 -25 -4 -21 30 -31 45 -13 9 11 7 12 -9
8 -12 -3 -21 -1 -21 6 0 6 7 11 15 11 8 0 15 5 15 10 0 11 -40 14 -41 3z"/>
<path d="M4520 4312 c0 -10 21 -32 32 -32 16 0 8 19 -12 30 -11 6 -20 7 -20 2z"/>
<path d="M4660 4305 c-7 -8 -19 -15 -26 -15 -8 0 -14 -4 -14 -10 0 -13 60 -80
71 -80 18 0 9 29 -11 35 -11 3 -25 15 -30 25 -9 16 -6 21 15 26 25 6 32 18 16
28 -5 3 -14 -1 -21 -9z"/>
<path d="M7985 4289 c-9 -17 -19 -28 -22 -25 -4 3 -11 -4 -17 -15 -6 -12 -27
-30 -46 -40 -19 -11 -29 -19 -23 -19 22 0 66 21 78 37 11 15 15 14 45 -10 35
-30 39 -31 59 -18 10 6 4 12 -22 20 -41 14 -64 36 -48 46 18 11 32 43 21 50
-5 3 -16 -8 -25 -26z"/>
<path d="M2277 4303 c-4 -3 -36 -5 -71 -4 -35 1 -67 -2 -69 -6 -5 -8 152 -7
160 1 2 2 0 7 -5 10 -5 3 -12 3 -15 -1z"/>
<path d="M4229 4308 c-9 -19 -3 -47 11 -51 21 -5 36 3 34 21 -1 6 -2 17 -3 22
-1 8 -38 15 -42 8z m28 -34 c-9 -9 -28 6 -21 18 4 6 10 6 17 -1 6 -6 8 -13 4
-17z"/>
<path d="M7912 4289 c-7 -12 -10 -24 -7 -27 4 -4 11 1 16 10 5 10 16 15 24 11
11 -4 13 -1 9 11 -8 22 -27 20 -42 -5z"/>
<path d="M2095 4290 c-3 -5 -2 -10 4 -10 5 0 13 5 16 10 3 6 2 10 -4 10 -5 0
-13 -4 -16 -10z"/>
<path d="M7420 4248 c0 -29 4 -48 8 -42 12 18 44 25 58 13 8 -6 14 -8 15 -3 0
5 1 26 3 47 2 20 -1 37 -6 37 -4 0 -8 -7 -8 -15 0 -10 -10 -15 -32 -15 -31 1
-32 1 -14 15 19 15 19 15 -2 15 -20 0 -22 -5 -22 -52z m58 -5 c-10 -2 -26 -2
-35 0 -10 3 -2 5 17 5 19 0 27 -2 18 -5z"/>
<path d="M9630 4289 c0 -5 5 -7 10 -4 6 3 10 8 10 11 0 2 -4 4 -10 4 -5 0 -10
-5 -10 -11z"/>
<path d="M9659 4293 c-3 -36 -12 -60 -24 -69 -19 -14 -19 -24 0 -24 9 0 18 7
22 15 5 14 8 14 24 -1 20 -18 129 -27 152 -12 6 4 -16 8 -51 8 -82 0 -102 11
-102 55 0 19 -4 35 -10 35 -5 0 -10 -3 -11 -7z"/>
<path d="M10170 4278 c0 -5 5 -8 10 -8 12 0 53 -40 48 -46 -3 -2 -22 -10 -44
-18 -21 -8 -32 -15 -24 -15 8 0 33 6 55 14 22 8 44 10 50 6 16 -14 51 -17 56
-6 2 6 -8 11 -23 13 -33 4 -36 22 -7 40 12 7 18 16 15 19 -9 9 -136 9 -136 1z
m94 -23 c-4 -8 -12 -15 -19 -15 -7 0 -15 7 -19 15 -4 11 1 15 19 15 18 0 23
-4 19 -15z"/>
<path d="M1613 4240 c-12 -22 -17 -42 -12 -46 5 -3 13 5 18 18 5 13 16 30 25
37 19 16 21 31 4 31 -7 0 -23 -18 -35 -40z"/>
<path d="M1730 4272 c0 -5 9 -17 20 -27 11 -10 20 -24 20 -32 0 -7 5 -13 10
-13 18 0 10 36 -13 58 -24 23 -37 28 -37 14z"/>
<path d="M8470 4253 c0 -7 -21 -13 -52 -16 l-53 -3 52 -2 c48 -2 52 -4 56 -29
l4 -28 2 28 c1 26 3 27 52 27 27 0 48 4 45 9 -3 5 -24 7 -47 4 -29 -4 -44 -2
-50 8 -6 9 -9 10 -9 2z"/>
<path d="M8800 4250 c0 -5 5 -10 10 -10 6 0 10 5 10 10 0 6 -4 10 -10 10 -5 0
-10 -4 -10 -10z"/>
<path d="M1920 4221 c0 -12 5 -21 10 -21 6 0 10 6 10 14 0 8 -4 18 -10 21 -5
3 -10 -3 -10 -14z"/>
<path d="M5970 4230 c0 -6 -15 -17 -32 -25 -32 -14 -32 -14 -7 -15 27 0 73 32
62 44 -10 9 -23 7 -23 -4z"/>
<path d="M435 4219 c-10 -15 3 -25 16 -12 7 7 7 13 1 17 -6 3 -14 1 -17 -5z"/>
<path d="M9460 4204 c-23 -8 -28 -13 -15 -13 30 -1 65 10 65 20 0 11 -5 10
-50 -7z"/>
<path d="M3285 4190 c-3 -5 1 -10 9 -10 9 0 16 5 16 10 0 6 -4 10 -9 10 -6 0
-13 -4 -16 -10z"/>
<path d="M8642 3832 c-41 -48 -92 -117 -92 -124 0 -5 7 -8 15 -8 8 0 15 6 15
13 0 16 32 47 48 47 7 0 12 -9 12 -20 0 -11 -4 -20 -10 -20 -5 0 -10 -4 -10
-9 0 -11 46 -8 57 2 3 4 1 7 -4 7 -7 0 -10 25 -8 70 2 39 3 70 2 69 -1 0 -12
-12 -25 -27z m8 -36 c0 -15 -18 -31 -26 -23 -7 7 7 37 17 37 5 0 9 -6 9 -14z"/>
<path d="M2250 3791 c-5 -11 -7 -22 -2 -25 4 -2 7 -17 7 -33 -1 -21 -7 -29
-25 -31 -22 -4 -23 -2 -10 13 8 9 15 24 16 34 2 10 -7 5 -22 -14 -32 -40 -30
-55 5 -55 20 0 30 -6 34 -20 7 -27 24 -25 29 3 6 37 -3 147 -13 147 -4 0 -13
-9 -19 -19z"/>
<path d="M2336 3794 c-19 -18 -19 -20 -6 -45 8 -13 7 -25 0 -39 -6 -11 -8 -31
-4 -45 5 -19 13 -25 33 -25 37 0 56 33 41 71 -10 23 -10 32 0 44 10 13 9 19
-5 35 -22 24 -38 25 -59 4z m47 -17 c7 -19 -8 -41 -22 -33 -16 10 -14 46 3 46
8 0 16 -6 19 -13z m0 -103 c-3 -8 -12 -14 -19 -14 -18 0 -28 24 -20 46 6 15 8
15 26 -1 10 -9 16 -23 13 -31z"/>
<path d="M2440 3790 c-28 -28 -11 -63 28 -58 30 3 42 39 22 64 -17 19 -26 18
-50 -6z m40 -25 c0 -8 -7 -15 -15 -15 -8 0 -15 7 -15 15 0 8 7 15 15 15 8 0
15 -7 15 -15z"/>
<path d="M1540 3738 c-12 -35 -29 -71 -38 -80 -14 -17 -13 -18 10 -18 19 0 24
5 24 23 -1 18 4 22 29 22 25 0 30 -4 29 -22 0 -19 5 -23 29 -23 29 0 29 1 14
18 -10 10 -17 23 -17 28 0 16 -43 114 -51 114 -3 0 -16 -28 -29 -62z m40 -14
c0 -8 -9 -14 -20 -14 -17 0 -19 3 -8 19 13 21 28 19 28 -5z"/>
<path d="M1670 3655 c0 -8 5 -15 10 -15 6 0 10 7 10 15 0 8 -4 15 -10 15 -5 0
-10 -7 -10 -15z"/>
<path d="M8500 3564 c-52 -46 -112 -102 -133 -124 -21 -22 -41 -40 -46 -40 -4
0 -19 -12 -33 -27 -29 -32 -156 -147 -208 -189 -50 -41 -209 -183 -250 -224
-19 -19 -38 -35 -41 -35 -3 0 -17 -12 -30 -26 -13 -15 -76 -71 -139 -126 -63
-55 -134 -119 -158 -142 -23 -22 -45 -41 -48 -41 -3 0 -34 -28 -68 -62 -35
-35 -89 -85 -122 -113 -32 -27 -90 -79 -129 -114 -38 -36 -81 -74 -93 -85 -13
-12 -40 -36 -59 -53 -19 -18 -39 -33 -44 -33 -4 0 -18 -13 -31 -30 -12 -16
-25 -30 -29 -30 -4 0 -29 -21 -56 -47 -26 -27 -100 -93 -162 -148 -150 -131
-188 -166 -278 -253 l-76 -72 37 -25 c20 -14 41 -25 47 -25 6 0 27 -9 47 -20
20 -11 75 -37 122 -59 156 -70 185 -84 199 -95 7 -6 19 -11 25 -11 6 0 52 -21
101 -45 50 -25 92 -45 95 -45 3 -1 50 -23 105 -49 55 -26 116 -54 135 -63 19
-8 64 -29 99 -46 35 -17 69 -32 76 -33 6 -1 30 -14 53 -28 23 -14 46 -26 51
-26 6 0 27 -10 48 -21 21 -12 38 -20 38 -18 1 2 21 -6 45 -18 25 -12 97 -46
160 -76 63 -30 171 -82 240 -115 69 -33 152 -72 185 -87 61 -26 174 -79 210
-98 11 -5 27 -14 35 -18 86 -45 231 -109 245 -109 10 0 50 32 89 70 153 151
371 362 522 505 396 376 464 443 464 456 0 5 4 9 8 9 4 0 31 21 58 48 27 26
80 76 117 111 37 35 67 71 67 81 0 9 -12 34 -27 54 -149 197 -203 273 -248
346 -21 36 -43 70 -47 75 -5 6 -20 24 -34 40 -13 17 -38 54 -55 83 -17 28 -34
52 -38 52 -4 0 -13 11 -19 24 -6 14 -18 33 -26 43 -33 40 -86 113 -86 119 0 2
-5 10 -10 17 -6 7 -28 37 -50 67 -21 30 -46 62 -55 71 -8 9 -15 20 -15 26 0 6
-7 16 -16 24 -8 7 -32 38 -52 68 -20 31 -42 61 -48 66 -7 6 -25 30 -40 54 -46
71 -48 74 -64 93 -8 10 -15 22 -15 26 0 4 -10 18 -22 32 -13 13 -23 27 -23 31
0 5 -20 33 -68 94 -4 6 -27 39 -51 75 -24 36 -47 67 -50 70 -11 8 -81 110 -81
116 0 7 -55 79 -114 150 -15 18 -31 34 -35 33 -3 0 -49 -38 -101 -85z m104
-344 c4 -223 9 -592 11 -820 3 -228 7 -489 11 -579 5 -133 4 -165 -7 -172 -8
-5 -9 -9 -3 -9 8 0 14 -96 19 -332 3 -183 8 -389 10 -458 7 -251 7 -395 -2
-397 -4 -2 -60 23 -123 53 -63 31 -120 57 -125 58 -6 1 -27 12 -46 24 -20 12
-40 22 -45 22 -9 0 -36 13 -244 112 -80 38 -172 82 -205 98 -33 15 -116 55
-185 88 -69 33 -136 63 -150 67 -14 4 -42 19 -62 31 -21 13 -41 24 -45 24 -3
0 -36 14 -72 31 -91 43 -225 106 -291 137 -30 13 -81 38 -112 54 -32 16 -58
26 -58 23 0 -4 -13 3 -29 14 -16 12 -34 21 -41 21 -6 0 -41 16 -77 35 -36 19
-72 35 -80 35 -7 0 -13 4 -13 8 0 5 -25 17 -55 27 -30 11 -55 22 -55 26 0 4
-10 11 -22 14 -13 4 -41 15 -63 26 -22 10 -58 26 -80 35 -32 14 -36 18 -20 21
32 8 44 26 13 21 -15 -3 -32 -2 -38 2 -10 6 19 34 266 257 17 15 53 48 81 73
27 25 65 58 84 75 57 50 223 197 249 222 14 13 39 35 55 49 17 14 53 47 80 73
28 26 91 83 140 126 50 44 109 98 133 122 24 24 45 43 49 43 3 0 23 18 44 40
22 22 43 40 47 40 5 0 18 14 31 31 13 17 25 29 27 26 3 -2 24 14 47 37 23 22
89 81 145 131 56 49 102 93 102 97 0 5 5 8 11 8 6 0 33 23 60 50 27 28 53 50
58 50 6 0 14 6 18 14 8 14 49 51 188 170 33 28 84 75 113 104 28 28 52 50 52
48 0 -6 132 117 168 157 14 15 26 26 28 25 1 -2 5 -185 8 -408z m77 305 c13
-19 27 -35 32 -35 4 0 7 -6 7 -13 0 -7 7 -22 15 -32 8 -11 28 -37 45 -59 16
-21 30 -42 30 -45 0 -4 10 -18 23 -31 12 -14 22 -27 22 -30 0 -4 8 -14 18 -24
9 -10 17 -21 17 -25 0 -5 13 -24 30 -42 16 -19 30 -39 30 -45 0 -6 7 -18 17
-25 9 -8 45 -57 80 -109 86 -130 178 -260 202 -288 11 -13 28 -36 38 -53 10
-16 21 -29 25 -29 4 0 8 -4 8 -10 0 -5 15 -29 33 -53 17 -24 50 -70 72 -101
37 -53 78 -109 108 -146 7 -8 39 -56 72 -105 33 -49 67 -97 76 -106 8 -8 30
-41 47 -71 18 -31 39 -61 47 -68 8 -7 15 -17 15 -22 0 -8 45 -73 88 -124 9
-12 24 -32 32 -44 8 -13 25 -35 38 -51 21 -25 16 -49 -7 -35 -5 4 -20 2 -33
-3 -20 -8 -17 -10 20 -10 l43 -1 -53 -47 c-29 -26 -135 -129 -236 -230 -100
-101 -185 -183 -188 -183 -2 0 -36 -30 -73 -68 -38 -37 -102 -98 -142 -137
-41 -38 -186 -178 -323 -312 -137 -134 -252 -243 -254 -243 -3 0 -11 -8 -18
-17 -12 -16 -13 -12 -14 32 -3 261 -13 1079 -14 1110 -1 36 2 40 29 46 l30 7
-32 1 -33 1 -1 143 c0 78 -2 187 -4 242 -2 55 -6 244 -9 420 -4 176 -9 460
-12 630 -3 171 -7 358 -7 417 l-2 107 21 -25 c12 -13 32 -40 45 -59z"/>
<path d="M8298 1642 c-16 -2 -28 -8 -28 -13 0 -12 77 -12 84 0 7 11 -20 17
-56 13z"/>
<path d="M8380 1639 c0 -4 4 -10 9 -14 12 -7 94 5 86 13 -8 8 -95 9 -95 1z"/>
<path d="M8500 1640 c0 -5 18 -10 39 -10 22 0 43 5 46 10 4 6 -12 10 -39 10
-25 0 -46 -4 -46 -10z"/>
<path d="M8150 1625 c0 -11 12 -15 45 -15 35 0 43 3 39 15 -4 10 -20 15 -45
15 -28 0 -39 -4 -39 -15z"/>
<path d="M7925 1620 c-7 -11 0 -12 40 -12 40 0 47 1 40 12 -3 6 -21 10 -40 10
-19 0 -37 -4 -40 -10z"/>
<path d="M8043 1618 c3 -11 19 -14 65 -9 6 0 12 6 12 11 0 6 -18 10 -41 10
-28 0 -39 -4 -36 -12z"/>
<path d="M7695 1610 c-4 -6 10 -10 34 -10 23 0 41 5 41 10 0 6 -15 10 -34 10
-19 0 -38 -4 -41 -10z"/>
<path d="M7810 1610 c0 -5 15 -10 34 -10 19 0 38 5 41 10 4 6 -10 10 -34 10
-23 0 -41 -4 -41 -10z"/>
<path d="M7353 1603 c-29 -11 -10 -24 30 -21 23 2 41 8 39 13 -4 11 -49 16
-69 8z"/>
<path d="M7450 1598 c0 -4 21 -8 47 -8 25 0 43 3 39 7 -10 11 -86 12 -86 1z"/>
<path d="M7570 1600 c0 -12 79 -10 86 2 3 4 -15 8 -40 8 -25 0 -46 -4 -46 -10z"/>
<path d="M7106 1585 c-4 -12 4 -15 39 -15 33 0 45 4 45 15 0 11 -11 15 -39 15
-25 0 -41 -5 -45 -15z"/>
<path d="M7223 1588 c5 -16 65 -14 80 1 8 8 -2 11 -37 11 -34 0 -46 -4 -43
-12z"/>
<path d="M6910 1582 c-39 -4 -66 -21 -34 -23 30 -2 79 2 83 7 11 10 -17 19
-49 16z"/>
<path d="M6985 1580 c-3 -6 0 -12 7 -15 23 -9 81 0 86 13 5 15 -84 17 -93 2z"/>
<path d="M6761 1571 c-12 -8 -10 -11 10 -15 32 -8 62 -2 67 12 4 14 -56 16
-77 3z"/>
<path d="M6525 1560 c-4 -6 10 -10 34 -10 22 0 43 5 46 10 4 6 -10 10 -34 10
-22 0 -43 -4 -46 -10z"/>
<path d="M6645 1560 c8 -13 45 -13 65 0 11 7 3 10 -28 10 -26 0 -41 -4 -37
-10z"/>
<path d="M6410 1551 c8 -5 33 -5 55 -1 40 8 40 8 -15 9 -35 0 -50 -3 -40 -8z"/>
<path d="M9550 1682 c0 -17 72 -12 78 5 2 9 -9 12 -37 10 -26 -1 -41 -7 -41
-15z"/>
<path d="M9654 1688 c-3 -5 15 -8 40 -8 25 0 46 3 46 8 0 4 -18 7 -41 7 -22 0
-43 -3 -45 -7z"/>
<path d="M9770 1690 c0 -12 24 -12 60 0 21 7 19 8 -17 9 -24 1 -43 -3 -43 -9z"/>
<path d="M9333 1683 c-13 -2 -23 -9 -23 -14 0 -15 83 -6 88 9 4 12 -19 14 -65
5z"/>
<path d="M9426 1681 c-8 -13 14 -19 52 -14 50 8 49 23 -2 23 -25 0 -47 -4 -50
-9z"/>
<path d="M9108 1673 c-45 -7 -32 -24 15 -21 23 2 42 7 42 13 0 11 -19 14 -57
8z"/>
<path d="M9190 1671 c0 -17 21 -23 56 -17 49 10 42 26 -11 26 -25 0 -45 -4
-45 -9z"/>
<path d="M8883 1663 c-46 -6 -41 -21 5 -18 53 4 54 4 47 15 -3 6 -9 9 -13 8
-4 0 -22 -3 -39 -5z"/>
<path d="M8966 1661 c-7 -11 11 -18 48 -17 16 1 31 7 34 14 4 14 -73 18 -82 3z"/>
<path d="M8735 1650 c-4 -6 10 -10 34 -10 22 0 43 5 46 10 4 6 -10 10 -34 10
-22 0 -43 -4 -46 -10z"/>
<path d="M1504 3228 c15 -23 16 -95 2 -129 -6 -14 0 -16 43 -14 28 1 58 8 66
15 17 14 20 46 5 55 -5 3 -7 18 -4 33 8 37 -13 53 -76 59 l-51 4 15 -23z m74
-7 c23 -14 10 -46 -20 -49 -24 -3 -26 0 -23 25 2 15 4 29 4 31 2 5 27 1 39 -7z
m20 -87 c2 -16 -4 -23 -24 -28 -33 -9 -45 2 -37 32 8 31 57 27 61 -4z"/>
<path d="M2216 3225 c-22 -33 -21 -38 15 -54 22 -10 29 -19 27 -35 -2 -16 -9
-21 -31 -19 -27 2 -38 -19 -17 -32 10 -6 70 21 71 33 0 4 2 15 4 24 3 17 -29
58 -45 58 -6 0 -10 5 -10 10 0 6 11 10 24 10 13 0 26 7 30 15 10 27 -49 19
-68 -10z"/>
<path d="M2320 3235 c-15 -18 -5 -34 11 -18 14 14 39 6 39 -13 0 -8 -7 -17
-15 -20 -8 -4 -15 -10 -15 -16 0 -5 4 -7 9 -4 14 9 34 -22 27 -40 -5 -12 -14
-15 -36 -11 -33 7 -47 -5 -25 -23 11 -9 20 -9 42 2 25 12 28 19 30 63 2 77 -4
95 -31 95 -13 0 -29 -7 -36 -15z"/>
<path d="M2429 3248 c0 -2 -3 -17 -5 -35 -4 -25 -1 -33 16 -38 39 -12 67 34
38 63 -10 10 -46 17 -49 10z m45 -26 c8 -13 -11 -35 -23 -28 -16 10 -14 36 3
36 8 0 17 -4 20 -8z"/>
<path d="M1660 3095 c0 -8 5 -15 10 -15 6 0 10 7 10 15 0 8 -4 15 -10 15 -5 0
-10 -7 -10 -15z"/>
<path d="M2255 2691 c-37 -16 -58 -49 -58 -92 0 -45 13 -59 54 -59 30 0 36 10
34 60 0 30 -4 35 -28 38 -23 3 -26 6 -17 23 6 10 17 19 25 19 7 0 17 5 20 10
7 12 -2 12 -30 1z m10 -90 c7 -23 -3 -51 -20 -51 -14 0 -25 22 -25 51 0 25 37
26 45 0z"/>
<path d="M1523 2671 c-12 -11 -24 -29 -28 -40 -8 -27 22 -89 47 -97 24 -7 70
4 80 19 14 22 8 30 -10 14 -24 -21 -68 -22 -76 -1 -10 27 -7 89 6 102 19 19
54 14 71 -10 l16 -23 -2 26 c-1 23 -6 26 -42 28 -29 1 -47 -4 -62 -18z"/>
<path d="M2320 2671 c-5 -11 -10 -36 -10 -56 0 -20 5 -45 10 -56 13 -23 53
-25 70 -4 18 21 18 98 1 118 -18 23 -58 21 -71 -2z m59 -13 c4 -12 7 -32 6
-43 -1 -11 -3 -28 -4 -38 -1 -21 -30 -35 -40 -19 -5 9 -7 74 -2 115 2 17 32 5
40 -15z"/>
<path d="M2426 2674 c-7 -18 10 -54 26 -54 21 0 46 31 41 51 -7 24 -58 27 -67
3z m47 -9 c7 -16 -8 -29 -23 -20 -15 9 -12 35 4 35 8 0 16 -7 19 -15z"/>
<path d="M1657 2554 c-8 -8 1 -24 14 -24 5 0 9 7 9 15 0 15 -12 20 -23 9z"/>
<path d="M1490 2130 c0 -6 5 -8 10 -5 13 8 13 -128 0 -141 -7 -7 7 -10 46 -9
47 1 59 5 75 26 35 45 18 129 -25 129 l-25 0 24 -25 c33 -32 32 -74 -1 -98
-44 -32 -59 -20 -59 48 -1 45 3 62 15 67 11 5 10 7 -7 7 -12 1 -28 4 -37 7 -9
3 -16 1 -16 -6z"/>
<path d="M2239 2133 c-27 -3 -38 -10 -42 -24 -5 -19 -4 -20 12 -5 36 33 67 17
46 -23 -17 -34 -31 -110 -17 -96 10 10 52 127 52 145 0 6 -3 9 -7 8 -5 -1 -24
-3 -44 -5z"/>
<path d="M2347 2132 c-10 -2 -14 -8 -10 -15 4 -7 6 -40 5 -73 -3 -64 8 -83 39
-63 11 7 11 9 1 9 -10 0 -13 18 -11 70 1 39 0 72 -2 73 -2 2 -12 2 -22 -1z"/>
<path d="M2430 2125 c-20 -25 -8 -50 25 -50 24 0 31 5 33 24 6 37 -34 55 -58
26z m44 -4 c9 -14 -4 -41 -20 -41 -8 0 -14 8 -14 18 0 29 22 43 34 23z"/>
<path d="M1670 1991 c0 -12 5 -21 10 -21 6 0 10 6 10 14 0 8 -4 18 -10 21 -5
3 -10 -3 -10 -14z"/>
<path d="M10089 1778 c0 -2 -2 -19 -3 -38 -3 -29 -18 -73 -44 -122 -8 -17 73
-7 103 12 44 27 61 69 44 109 -7 16 -22 32 -34 35 -20 6 -65 8 -66 4z m71 -28
c13 -7 17 -18 14 -37 -9 -52 -15 -61 -46 -72 -33 -12 -49 -7 -44 12 2 7 10 33
16 60 13 48 25 56 60 37z"/>
<path d="M6113 1587 c7 -18 -28 -120 -42 -125 -26 -9 -8 -22 29 -22 54 0 90
18 90 46 0 12 -5 24 -12 26 -7 3 -4 12 10 26 33 33 15 62 -39 62 -30 0 -40 -4
-36 -13z m67 -25 c0 -14 -24 -32 -42 -32 -21 0 -21 1 -7 34 10 21 15 23 30 15
11 -5 19 -13 19 -17z m-36 -48 c32 -12 13 -54 -25 -54 -5 0 -7 10 -5 23 3 12
5 25 5 30 1 9 5 9 25 1z"/>
<path d="M8664 320 c-52 -20 -85 -115 -52 -148 24 -24 108 -8 108 21 0 9 -3 8
-9 -1 -5 -8 -23 -12 -47 -10 -37 3 -39 5 -42 40 -3 31 2 43 24 63 33 31 74 34
74 5 0 -27 16 -25 23 2 4 12 5 23 4 24 -11 7 -66 10 -83 4z"/>
</g>
</svg>
