<?xml version="1.0" standalone="no"?>
<!DOCTYPE svg PUBLIC "-//W3C//DTD SVG 20010904//EN"
 "http://www.w3.org/TR/2001/REC-SVG-20010904/DTD/svg10.dtd">
<svg version="1.0" xmlns="http://www.w3.org/2000/svg"
 width="1362.000000pt" height="520.000000pt" viewBox="0 0 1362.000000 520.000000"
 preserveAspectRatio="xMidYMid meet">
<metadata>
Created by potrace 1.16, written by Peter Selinger 2001-2019
</metadata>
<g transform="translate(0.000000,520.000000) scale(0.100000,-0.100000)"
fill="#000000" stroke="none">
<path d="M1470 4742 l0 -39 -55 5 -55 4 0 -69 0 -70 56 5 56 5 -2 -44 c-3 -61
-1 -69 10 -69 6 0 10 24 10 53 0 30 2 56 5 59 3 3 26 2 53 -3 26 -4 48 -6 48
-5 1 0 4 32 6 70 l4 68 -58 -4 c-48 -4 -58 -2 -58 12 0 9 5 21 11 27 13 13 4
33 -17 33 -10 0 -14 -12 -14 -38z m0 -97 l0 -45 -45 0 -45 0 0 45 0 45 45 0
45 0 0 -45z m110 0 l0 -45 -45 0 -45 0 0 45 0 45 45 0 45 0 0 -45z"/>
<path d="M1266 4761 c-6 -8 -41 -12 -124 -10 l-115 1 1 -131 1 -132 125 -2
125 -2 3 128 c3 130 -2 172 -16 148z m-175 -53 c1 -13 1 -26 0 -30 0 -5 11 -8
27 -9 26 0 26 -1 5 -11 -12 -6 -33 -8 -47 -4 -22 5 -26 12 -26 41 0 28 4 35
20 35 14 0 20 -7 21 -22z m168 -88 l2 -110 -83 2 -83 2 68 3 67 4 2 47 c0 26
1 53 1 60 -1 6 4 12 9 12 6 0 6 6 -2 14 -8 11 -18 12 -34 6 -13 -5 -29 -4 -37
1 -15 9 -6 13 24 10 9 -1 17 2 17 8 0 5 3 16 6 25 5 12 -5 16 -48 19 -48 3
-46 3 18 5 l72 2 1 -110z m-81 73 c-10 -2 -28 -2 -40 0 -13 2 -5 4 17 4 22 1
32 -1 23 -4z m-30 -60 c-74 -4 -70 1 -70 -80 0 -31 -4 -43 -14 -43 -11 0 -14
16 -14 65 l0 65 83 -2 82 -2 -67 -3z m70 -42 c5 -31 -11 -45 -56 -48 -50 -3
-68 9 -53 33 9 17 10 17 11 2 0 -14 8 -18 35 -18 32 0 35 2 35 31 0 36 23 36
28 0z m-101 13 c-3 -3 -12 -4 -19 -1 -8 3 -5 6 6 6 11 1 17 -2 13 -5z m46 -1
c-7 -2 -19 -2 -25 0 -7 3 -2 5 12 5 14 0 19 -2 13 -5z m7 -23 c0 -5 -9 -10
-20 -10 -11 0 -20 5 -20 10 0 6 9 10 20 10 11 0 20 -4 20 -10z"/>
<path d="M2550 4751 c0 -23 -10 -27 -27 -10 -20 20 -31 0 -27 -45 3 -32 0 -45
-11 -49 -9 -4 -13 -17 -12 -37 2 -26 6 -30 30 -30 34 0 32 -15 -5 -43 -36 -27
-51 -14 -45 39 l5 44 -34 0 c-18 0 -36 -4 -39 -10 -4 -6 5 -10 19 -10 38 0 37
-51 -1 -78 -21 -16 -25 -24 -17 -32 9 -9 15 -6 27 10 l14 21 36 -21 c30 -18
49 -20 123 -18 55 2 89 7 91 15 3 8 -8 10 -38 6 l-43 -6 21 29 c11 16 18 35
16 42 -3 7 4 12 16 12 23 0 28 15 9 24 -9 3 -8 9 5 20 18 14 18 15 -3 26 -19
10 -22 18 -17 52 l5 40 -38 -6 c-31 -5 -38 -3 -36 10 0 9 -5 19 -11 21 -8 3
-13 -4 -13 -16z m60 -51 c0 -5 -18 -10 -40 -10 -22 0 -40 5 -40 10 0 6 18 10
40 10 22 0 40 -4 40 -10z m-64 -58 c-22 -5 -30 3 -21 18 5 8 11 7 22 -2 15
-12 14 -13 -1 -16z m64 8 c0 -5 -7 -10 -16 -10 -8 0 -12 5 -9 10 3 6 10 10 16
10 5 0 9 -4 9 -10z m-95 -30 c-3 -5 -10 -10 -16 -10 -5 0 -9 5 -9 10 0 6 7 10
16 10 8 0 12 -4 9 -10z m65 0 c0 -6 10 -15 23 -20 l22 -9 -22 0 c-13 -1 -23 4
-23 9 0 6 -7 10 -15 10 -8 0 -15 -4 -15 -10 0 -5 -9 -10 -21 -10 -21 0 -21 0
2 20 26 21 49 26 49 10z m18 -47 c-10 -2 -26 -2 -35 0 -10 3 -2 5 17 5 19 0
27 -2 18 -5z m2 -28 c0 -9 -9 -15 -21 -15 -18 0 -19 -2 -9 -15 11 -13 7 -15
-29 -15 -22 0 -41 2 -41 5 0 3 12 17 28 30 31 28 72 33 72 10z"/>
<path d="M2420 4744 c0 -12 31 -35 41 -32 8 3 6 10 -5 21 -17 17 -36 23 -36
11z"/>
<path d="M2787 4743 c-39 -2 -65 -8 -62 -13 4 -6 15 -10 26 -10 28 0 28 -70
-1 -77 -11 -3 -17 -10 -14 -15 3 -5 13 -7 21 -3 23 8 11 -70 -16 -106 -25 -33
-26 -39 -6 -39 23 0 45 42 52 99 5 40 9 51 22 49 13 -3 16 -18 16 -80 l-1 -77
26 5 c14 3 35 7 46 9 32 7 130 103 117 116 -7 7 -21 -3 -43 -31 -18 -22 -50
-50 -71 -61 l-39 -19 0 60 c0 41 -4 60 -12 61 -7 0 2 5 20 10 32 9 36 29 6 29
-9 0 -14 11 -14 35 0 25 4 35 16 35 19 0 13 25 -7 26 -8 0 -45 -1 -82 -3z m39
-66 c2 -31 0 -37 -17 -37 -16 0 -19 7 -19 41 0 33 3 40 17 37 12 -2 18 -14 19
-41z"/>
<path d="M2917 4709 c-21 -22 -32 -39 -25 -39 18 0 109 66 101 74 -14 13 -40
1 -76 -35z"/>
<path d="M4236 4739 c-15 -51 -17 -52 -28 -41 -7 7 -14 12 -17 12 -4 0 -6 -49
-6 -110 0 -81 3 -110 13 -110 6 0 12 5 12 10 0 6 11 10 24 10 14 0 28 -4 31
-10 15 -25 25 -5 25 48 0 49 4 62 25 82 14 13 25 29 25 37 0 18 79 18 86 -1 3
-7 1 -46 -3 -87 l-8 -74 -45 -5 c-49 -5 -45 -14 12 -25 33 -6 39 -4 48 16 10
25 29 197 22 204 -2 2 -26 1 -53 -2 -32 -4 -49 -2 -49 5 0 6 5 14 10 17 15 9
12 35 -5 35 -8 0 -19 -16 -24 -38 -6 -21 -18 -46 -27 -57 -15 -19 -15 -18 -10
13 5 30 3 33 -17 32 -36 -3 -40 -1 -27 15 10 12 10 19 2 27 -8 8 -12 8 -16 -3z
m24 -93 c0 -30 -2 -33 -25 -28 -20 3 -25 10 -25 33 0 24 4 29 25 29 22 0 25
-4 25 -34z m0 -81 c0 -31 -3 -35 -25 -35 -22 0 -25 4 -25 35 0 31 3 35 25 35
22 0 25 -4 25 -35z"/>
<path d="M250 4724 c-19 -10 -21 -13 -7 -14 15 0 17 -11 17 -79 0 -44 -4 -83
-10 -86 -21 -13 -9 -25 25 -25 34 0 46 12 25 25 -5 3 -10 46 -10 95 0 49 -3
91 -8 94 -4 2 -18 -2 -32 -10z"/>
<path d="M2060 4618 c0 -115 8 -144 33 -119 14 14 181 15 207 1 10 -6 21 -6
24 -2 3 5 6 59 7 121 l1 113 -136 2 -136 1 0 -117z m80 59 c0 -37 -23 -97 -38
-97 -8 0 -16 116 -8 128 2 4 14 8 25 8 18 0 21 -6 21 -39z m76 -24 c8 -61 11
-68 33 -71 31 -5 41 7 33 43 -6 29 -6 29 -12 6 -10 -42 -30 -37 -30 7 0 22 -3
47 -6 56 -5 13 2 16 37 15 24 0 38 -3 32 -6 -15 -6 -17 -49 -3 -58 11 -7 14
-74 4 -99 -9 -24 -214 -24 -214 0 0 9 9 18 20 21 25 7 64 86 56 117 -6 26 0
36 24 36 14 0 19 -14 26 -67z"/>
<path d="M4638 4732 c-74 -1 -128 -7 -128 -12 0 -6 27 -10 60 -10 61 0 67 -4
51 -29 -7 -10 -20 -12 -50 -7 l-41 6 1 -105 c0 -58 5 -108 10 -111 5 -3 9 0 9
5 0 16 193 14 208 -1 9 -9 12 8 12 78 0 49 3 99 6 110 5 21 3 21 -65 16 -41
-3 -71 -1 -71 5 0 22 28 33 88 33 45 0 62 4 60 12 -5 15 3 14 -150 10z m42
-93 c0 -22 -7 -27 -35 -21 -37 7 -33 37 5 37 21 0 30 -5 30 -16z m-90 -64 c0
-58 -3 -75 -14 -75 -11 0 -15 18 -18 68 -4 75 -3 82 18 82 11 0 14 -16 14 -75z
m160 0 c0 -73 -1 -75 -25 -75 -24 0 -25 2 -25 75 0 73 1 75 25 75 24 0 25 -2
25 -75z m-72 8 c-2 -9 -15 -18 -30 -20 -23 -3 -28 0 -28 17 0 16 6 20 31 20
23 0 30 -4 27 -17z m2 -64 c0 -14 -7 -19 -30 -19 -23 0 -30 5 -30 19 0 13 8
21 23 23 29 5 37 1 37 -23z"/>
<path d="M4871 4725 c-21 -7 -29 -15 -22 -19 6 -4 16 -4 21 -1 6 3 10 -3 10
-14 0 -14 -6 -21 -20 -21 -22 0 -27 -15 -9 -26 6 -3 15 0 20 7 21 33 8 -20
-16 -65 -33 -62 -31 -69 6 -26 l30 35 -7 -67 -7 -66 44 5 c56 7 89 20 89 33 0
14 -11 13 -53 -5 -20 -8 -40 -15 -44 -15 -4 0 -8 29 -9 65 0 45 3 62 10 55 13
-13 36 -13 36 0 0 6 -11 15 -25 20 -14 5 -25 14 -25 19 0 19 20 22 43 7 21
-14 23 -22 19 -74 l-4 -59 56 5 c46 4 55 2 51 -10 -4 -9 4 -20 20 -28 27 -14
50 -5 25 10 -21 13 -14 130 9 146 12 10 13 15 4 24 -6 7 -17 9 -25 4 -23 -15
-60 -16 -56 -2 3 7 18 13 34 13 18 0 28 5 27 13 -2 6 2 12 7 12 6 0 10 5 10
11 0 7 -11 9 -29 6 -19 -4 -33 -1 -41 8 -14 17 -40 20 -40 5 0 -5 -13 -10 -30
-10 -16 0 -30 5 -30 10 0 13 -36 11 -79 -5z m79 -15 c0 -5 17 -11 38 -11 l37
-2 -35 -7 c-25 -5 -31 -9 -19 -14 9 -4 22 -6 29 -4 7 2 15 -3 17 -9 7 -18 -51
-17 -67 1 -6 8 -18 12 -26 9 -19 -7 -31 27 -13 38 19 12 39 11 39 -1z m128
-17 c-10 -2 -26 -2 -35 0 -10 3 -2 5 17 5 19 0 27 -2 18 -5z m-8 -63 c0 -6
-11 -8 -27 -4 -40 10 -41 14 -5 14 18 0 32 -5 32 -10z m-12 -27 c-16 -2 -40
-2 -55 0 -16 2 -3 4 27 4 30 0 43 -2 28 -4z m19 -27 c3 -3 -17 -6 -46 -6 -29
0 -50 3 -48 8 6 8 85 8 94 -2z m-35 -31 c15 2 30 -1 33 -6 4 -5 -16 -9 -44 -9
-41 0 -49 3 -45 15 4 10 10 12 18 6 6 -5 23 -7 38 -6z"/>
<path d="M5325 4730 c-16 -4 -49 -8 -71 -9 -30 -1 -43 -6 -48 -18 -3 -10 -11
-26 -18 -35 -18 -24 1 -37 19 -13 14 18 15 15 9 -48 -3 -44 -13 -81 -27 -103
-11 -19 -16 -34 -10 -34 5 0 12 4 15 9 3 5 14 7 24 4 12 -3 22 4 30 21 13 29
-1 36 -17 9 -5 -10 -12 -15 -15 -12 -3 3 4 19 14 37 l20 32 90 0 c97 0 99 -1
84 -57 -8 -31 -64 -33 -64 -4 0 19 -17 38 -25 29 -12 -12 11 -48 38 -61 44
-22 64 -8 73 51 8 53 6 58 -19 55 -14 -2 -16 2 -11 22 5 21 3 25 -15 25 -15 0
-20 6 -18 22 1 17 -4 23 -27 28 -30 5 -49 30 -24 30 7 0 22 3 34 6 16 4 24 -3
39 -30 10 -19 23 -33 27 -30 13 9 9 22 -14 44 -12 11 -16 20 -10 20 7 0 12 5
12 10 0 11 -50 11 -95 0z m-22 -34 c4 -10 -4 -15 -26 -19 -37 -6 -60 9 -37 23
22 14 57 12 63 -4z m57 -57 c0 -5 -20 -9 -44 -9 -24 0 -51 -3 -60 -6 -10 -4
-16 -1 -16 9 0 10 11 17 33 19 44 4 87 -2 87 -13z m38 -41 c-5 -13 -128 -24
-155 -14 -34 13 4 26 78 26 60 0 80 -3 77 -12z"/>
<path d="M385 4701 c-19 -37 -10 -61 21 -61 27 0 58 -39 49 -62 -8 -20 -52
-40 -60 -28 -11 18 -35 10 -35 -10 0 -16 7 -20 34 -20 41 0 86 39 86 74 0 28
-45 86 -66 86 -17 0 -19 20 -1 21 6 1 23 2 36 2 44 3 37 27 -8 27 -35 0 -43
-4 -56 -29z"/>
<path d="M3295 4638 c-39 -50 -76 -97 -83 -105 -11 -11 -11 -14 2 -19 24 -9
39 0 43 26 4 30 10 36 46 44 25 6 27 4 27 -24 0 -16 -4 -30 -10 -30 -5 0 -10
-4 -10 -10 0 -5 16 -10 35 -10 19 0 35 5 35 10 0 6 -5 10 -11 10 -7 0 -8 32
-3 100 3 55 5 100 3 100 -3 0 -36 -41 -74 -92z m42 -35 c-3 -3 -13 -3 -21 -1
-15 3 -15 6 1 28 l18 25 3 -23 c2 -13 1 -26 -1 -29z"/>
<path d="M3450 4720 c0 -5 4 -10 10 -12 12 -4 -22 -154 -39 -171 -21 -21 -11
-27 47 -27 83 1 130 46 98 95 -13 19 -12 23 5 33 22 14 25 55 5 71 -17 14
-126 23 -126 11z m93 -22 c22 -17 12 -54 -16 -62 -30 -7 -38 5 -31 42 7 34 20
40 47 20z m-8 -94 c14 -14 14 -19 2 -38 -15 -22 -62 -44 -72 -34 -4 3 -1 24 5
47 12 45 36 54 65 25z"/>
<path d="M3674 4711 c-37 -23 -74 -79 -74 -112 0 -24 23 -67 44 -81 29 -20
119 1 131 31 9 23 -3 24 -31 2 -46 -36 -90 -26 -100 24 -13 71 35 140 94 133
21 -2 28 -9 30 -30 2 -16 7 -28 11 -28 7 0 21 47 21 69 0 3 -21 7 -48 9 -32 1
-57 -4 -78 -17z"/>
<path d="M3853 4668 c-1 -28 -6 -54 -11 -57 -5 -3 -12 -19 -16 -36 -4 -16 -15
-38 -23 -47 -15 -17 -12 -18 56 -18 70 0 73 1 114 39 38 36 42 44 42 86 0 64
-26 85 -104 85 l-56 0 -2 -52z m119 15 c49 -44 -11 -153 -84 -153 -16 0 -28 5
-28 11 0 11 26 121 35 147 6 17 55 15 77 -5z"/>
<path d="M2390 4692 c0 -12 48 -37 57 -29 4 4 2 11 -3 16 -14 14 -54 23 -54
13z"/>
<path d="M2950 4652 c-19 -20 -44 -42 -55 -48 -29 -17 -12 -28 18 -12 40 21
98 78 92 88 -10 15 -17 11 -55 -28z"/>
<path d="M1794 4656 c-3 -9 -1 -23 6 -31 10 -12 10 -18 0 -30 -10 -12 -10 -15
4 -15 16 0 30 36 24 66 -4 23 -26 30 -34 10z"/>
<path d="M4330 4625 c0 -12 33 -55 41 -55 15 0 10 26 -9 43 -19 17 -32 22 -32
12z"/>
<path d="M527 4554 c-14 -14 -7 -35 11 -32 9 2 17 10 17 17 0 16 -18 25 -28
15z"/>
<path d="M5292 4515 c2 -16 8 -29 13 -27 16 4 16 17 0 37 -15 19 -15 19 -13
-10z"/>
<path d="M5382 4529 c2 -7 10 -15 17 -17 8 -3 12 1 9 9 -2 7 -10 15 -17 17 -8
3 -12 -1 -9 -9z"/>
<path d="M3783 3963 c-7 -2 -13 -11 -13 -19 0 -11 4 -12 19 -5 42 23 42 -35 0
-84 l-31 -35 51 0 c36 0 51 4 51 13 0 10 -10 12 -32 9 l-33 -5 33 37 c34 39
40 64 20 84 -12 12 -43 15 -65 5z"/>
<path d="M11702 3954 c-51 -36 -68 -127 -32 -174 16 -21 26 -25 66 -23 37 1
52 7 65 25 23 30 10 34 -33 10 -34 -19 -35 -19 -61 0 -31 23 -35 62 -12 112
25 52 115 71 115 26 0 -11 5 -22 10 -25 6 -3 10 1 10 9 0 9 4 16 8 16 4 0 8 9
9 20 2 18 -4 20 -60 20 -41 0 -70 -6 -85 -16z"/>
<path d="M2014 3883 c-8 -33 -75 -166 -86 -171 -20 -9 -4 -22 27 -22 33 0 34
1 29 29 -6 27 -4 29 31 33 29 3 39 0 47 -16 8 -15 8 -21 -1 -24 -26 -9 -8 -22
29 -22 42 0 50 9 25 30 -8 7 -15 17 -15 22 0 5 -10 30 -22 56 -11 26 -24 60
-27 76 -9 39 -29 44 -37 9z m36 -100 c0 -7 -11 -13 -25 -13 -28 0 -30 6 -14
47 l11 28 13 -25 c8 -14 14 -31 15 -37z"/>
<path d="M2888 3899 c-22 -12 -23 -29 -3 -29 12 0 15 -16 15 -80 0 -47 -4 -80
-10 -80 -5 0 -10 -4 -10 -10 0 -5 16 -10 35 -10 19 0 35 5 35 10 0 6 -4 10
-10 10 -6 0 -10 40 -10 100 0 104 -4 112 -42 89z"/>
<path d="M3065 3872 c-88 -107 -93 -132 -25 -132 36 0 40 -2 40 -25 0 -16 6
-25 15 -25 9 0 15 9 15 24 0 13 6 26 13 29 10 4 10 7 0 18 -8 8 -13 40 -13 81
0 37 -3 68 -7 68 -5 0 -22 -17 -38 -38z m15 -62 c0 -28 -4 -40 -14 -40 -8 0
-21 -3 -30 -6 -9 -3 -16 -1 -16 5 0 15 43 81 53 81 4 0 7 -18 7 -40z"/>
<path d="M3231 3888 c-5 -13 -22 -37 -38 -54 -32 -35 -55 -79 -46 -88 4 -3 24
-6 45 -6 34 0 38 -3 38 -25 0 -16 6 -25 15 -25 9 0 15 9 15 24 0 13 8 27 18
31 16 6 16 7 -1 17 -16 8 -18 20 -15 76 2 46 -1 67 -9 69 -7 3 -17 -6 -22 -19z
m2 -90 c-4 -31 -9 -38 -27 -38 -35 0 -38 10 -11 42 14 16 25 35 25 41 0 7 3 7
9 2 4 -6 6 -27 4 -47z"/>
<path d="M3408 3823 c-51 -32 -42 -119 15 -134 21 -6 34 -2 55 16 32 28 24 43
-11 20 -24 -15 -26 -15 -41 7 -21 29 -20 52 1 73 15 16 18 16 28 1 15 -20 35
-21 35 -1 0 13 -29 35 -47 35 -4 0 -20 -8 -35 -17z"/>
<path d="M3528 3768 c4 -45 1 -62 -9 -69 -9 -6 -1 -9 26 -9 25 0 35 3 27 9 -9
5 -12 24 -10 57 2 38 7 50 21 52 17 3 18 -3 16 -60 -2 -44 1 -63 9 -62 46 4
55 6 45 11 -20 7 -17 99 3 107 9 3 20 4 25 0 13 -8 11 -88 -3 -102 -9 -9 -5
-12 18 -12 l30 0 -6 59 c-3 33 -9 64 -14 68 -4 4 -47 9 -96 9 l-88 2 6 -60z"/>
<path d="M4120 3800 c-13 -25 3 -60 28 -60 43 0 59 63 20 74 -34 9 -36 8 -48
-14z m40 -20 c0 -11 -7 -20 -15 -20 -8 0 -15 9 -15 20 0 11 7 20 15 20 8 0 15
-9 15 -20z"/>
<path d="M2160 3709 c0 -14 5 -19 17 -17 26 5 29 38 4 38 -15 0 -21 -6 -21
-21z"/>
<path d="M11680 3699 c-27 -22 -188 -129 -194 -129 -2 0 -18 -13 -36 -30 -18
-16 -38 -30 -45 -30 -8 0 -33 -15 -57 -33 -24 -18 -70 -50 -103 -71 -33 -20
-68 -43 -79 -49 -10 -7 -30 -22 -44 -34 -14 -13 -30 -23 -36 -23 -5 0 -60 -34
-121 -75 -61 -41 -117 -75 -123 -75 -7 0 -12 -4 -12 -10 0 -5 -7 -10 -15 -10
-8 0 -15 -5 -15 -10 0 -6 -12 -16 -27 -22 -16 -7 -75 -44 -133 -83 -58 -38
-122 -79 -142 -89 -21 -11 -38 -23 -38 -28 0 -5 -8 -12 -17 -15 -10 -4 -66
-38 -124 -77 -58 -39 -126 -83 -150 -98 -24 -14 -93 -61 -154 -103 -60 -42
-132 -87 -158 -101 -26 -14 -50 -31 -54 -39 -3 -8 -9 -15 -14 -15 -12 0 -72
-39 -175 -112 -44 -32 -85 -58 -90 -58 -5 0 -24 -13 -42 -30 -18 -17 -35 -30
-38 -30 -5 0 -121 -77 -182 -120 -23 -16 -47 -30 -51 -30 -5 0 -23 -13 -41
-30 -18 -16 -35 -30 -39 -30 -6 0 -82 -51 -193 -131 -35 -25 -71 -48 -81 -52
-9 -3 -17 -11 -17 -16 0 -5 -9 -13 -20 -16 -12 -4 -57 -32 -102 -63 -44 -31
-101 -72 -127 -89 -25 -18 -51 -33 -58 -33 -7 0 -17 -9 -22 -19 -6 -10 -23
-24 -38 -30 -16 -6 -75 -44 -133 -86 -58 -41 -116 -81 -130 -87 -13 -7 -36
-24 -50 -37 -14 -13 -34 -27 -45 -31 -11 -5 -87 -56 -168 -114 -82 -58 -151
-106 -154 -106 -3 0 -49 -31 -102 -68 -153 -110 -230 -162 -238 -162 -5 0 -42
-25 -83 -55 -41 -30 -78 -55 -82 -55 -5 0 -8 -7 -8 -15 0 -13 37 -15 273 -15
941 0 2434 -14 2445 -23 8 -6 17 -5 27 3 12 10 18 10 29 1 10 -8 16 -9 21 -1
8 13 72 13 80 0 4 -6 77 -10 185 -10 108 0 181 4 185 10 8 13 82 13 90 0 4 -6
198 -10 549 -10 l543 0 37 55 c20 30 36 57 36 59 0 3 30 54 68 113 37 59 73
120 79 136 7 15 17 27 22 27 5 0 14 13 19 29 6 17 35 67 65 113 30 46 67 106
82 133 15 28 42 70 60 95 18 25 48 74 66 110 19 36 39 69 46 73 7 4 13 13 13
19 0 6 29 54 63 107 35 53 79 123 97 156 39 71 127 214 145 235 7 8 27 42 45
75 18 33 50 85 71 116 20 31 51 83 68 115 17 33 67 115 111 184 43 69 79 128
80 133 0 4 23 42 50 84 28 42 50 81 50 85 0 5 -20 17 -45 28 -25 11 -45 24
-45 30 0 5 -6 10 -12 11 -7 0 -53 25 -103 54 -49 30 -115 68 -145 84 -31 16
-94 52 -140 80 -47 28 -88 51 -93 51 -4 0 -40 20 -81 45 -40 24 -104 60 -142
80 -85 44 -234 132 -254 150 -8 7 -44 26 -80 43 -36 17 -82 42 -103 56 -89 61
-117 67 -157 35z m26 -946 c-3 -516 -9 -1119 -12 -1340 l-6 -403 -159 0 -159
0 0 -136 0 -137 -1522 8 c-838 4 -1745 8 -2015 9 -271 0 -493 4 -493 9 0 4 5
7 11 7 10 0 111 67 265 177 34 23 64 43 68 43 7 0 124 80 167 114 41 32 131
95 156 109 33 18 202 136 248 172 22 18 63 44 90 60 28 15 54 33 58 41 4 8 13
14 19 14 6 0 42 22 79 50 38 27 100 68 139 91 38 23 70 46 70 51 0 5 4 7 9 4
5 -3 12 1 15 9 3 9 16 19 28 24 21 8 232 154 268 185 8 8 38 26 65 41 28 15
73 44 100 64 71 53 205 144 235 159 15 7 55 35 90 61 138 101 213 153 229 159
9 3 67 41 130 84 63 43 118 78 122 78 4 0 20 11 35 25 15 14 31 25 35 25 5 0
65 38 133 85 68 47 129 85 135 85 6 0 11 4 11 8 0 4 28 25 63 45 34 21 105 67
157 102 52 36 100 65 106 65 7 0 14 6 17 13 3 8 22 22 44 32 21 10 79 46 128
80 50 34 106 70 125 80 19 10 39 24 43 31 4 8 13 14 19 14 5 0 59 34 119 75
60 42 117 79 127 82 18 7 176 114 247 168 22 16 62 41 88 54 27 14 53 33 58
43 5 10 12 18 16 18 3 0 3 -422 -1 -937z m82 902 c20 -14 42 -25 48 -25 6 0
58 -28 115 -62 57 -35 124 -73 149 -86 25 -13 68 -37 95 -54 28 -17 75 -44
107 -59 31 -16 58 -32 60 -36 1 -5 44 -28 93 -53 50 -25 93 -48 96 -53 3 -4
39 -25 80 -46 58 -30 147 -84 178 -108 6 -4 -27 -67 -81 -154 -27 -42 -48 -78
-48 -81 0 -7 127 -81 178 -103 51 -22 50 -29 -18 -130 -27 -38 -62 -98 -80
-133 -17 -34 -35 -62 -39 -62 -4 0 -15 -18 -24 -39 -10 -22 -47 -83 -82 -135
-36 -53 -65 -99 -65 -102 0 -4 -34 -61 -75 -129 -41 -67 -75 -127 -75 -133 0
-7 -4 -12 -8 -12 -5 0 -15 -12 -22 -27 -8 -16 -34 -56 -57 -91 -24 -35 -61
-96 -82 -136 -36 -66 -92 -155 -177 -281 -19 -28 -34 -54 -34 -58 0 -4 -18
-35 -40 -68 -22 -33 -61 -98 -87 -144 -26 -47 -50 -85 -55 -85 -4 0 -8 -4 -8
-9 0 -13 -101 -181 -109 -181 -10 0 0 984 11 997 6 7 5 14 -2 18 -6 3 -8 11
-5 16 12 18 14 49 4 54 -5 4 -6 11 -3 17 11 18 14 107 4 113 -13 8 -13 92 0
100 7 4 10 200 9 585 -1 318 1 582 3 587 3 4 2 52 -1 106 -3 54 -2 102 2 107
5 4 7 51 5 104 -1 53 -2 96 0 96 2 0 20 -11 40 -25z m1152 -650 c47 -30 88
-55 93 -55 15 0 5 -22 -53 -111 -33 -51 -61 -97 -63 -102 -1 -4 -29 8 -62 27
-33 20 -79 45 -102 56 -43 21 -52 33 -33 45 5 3 28 38 51 78 63 109 69 117 77
117 4 0 45 -25 92 -55z m-1250 -2146 l0 -130 -132 5 c-73 3 -141 5 -150 5 -16
1 -18 14 -18 126 l0 125 150 -1 150 -1 0 -129z"/>
<path d="M12478 3692 c-9 -4 -29 -22 -43 -41 -32 -45 -35 -121 -5 -151 44 -44
104 -10 102 56 -2 48 -19 67 -54 62 -15 -3 -28 -1 -28 4 0 13 51 58 66 58 7 0
16 5 19 10 7 11 -31 12 -57 2z m12 -117 c10 -26 -2 -75 -18 -75 -18 0 -32 26
-32 62 0 31 3 38 20 38 13 0 24 -10 30 -25z"/>
<path d="M12651 3611 c-18 -32 -13 -96 7 -114 23 -21 56 -22 76 -1 18 17 21
44 6 44 -5 0 -10 -7 -10 -15 0 -9 -9 -15 -25 -15 -32 0 -52 42 -36 77 10 23
41 32 41 13 0 -5 9 -10 21 -10 14 0 19 5 17 18 -5 27 -83 30 -97 3z"/>
<path d="M12764 3618 c-3 -4 0 -8 5 -8 15 0 14 -103 -1 -118 -9 -9 -5 -12 20
-12 31 0 42 13 22 25 -13 8 -7 82 8 97 6 6 18 8 26 5 20 -8 22 -97 4 -115 -9
-9 -5 -12 18 -12 l29 0 0 62 c0 53 3 63 19 66 17 4 18 -2 14 -62 l-4 -66 35 0
c32 0 33 1 19 18 -10 11 -14 28 -11 49 9 56 -3 83 -37 83 -16 0 -32 -5 -35
-10 -4 -7 -11 -8 -18 -1 -15 11 -106 11 -113 -1z"/>
<path d="M3770 3075 c-16 -20 -5 -32 14 -16 8 7 20 10 26 6 18 -11 10 -44 -20
-78 -16 -19 -30 -38 -30 -41 0 -14 93 -1 98 13 4 11 -2 13 -27 8 -38 -8 -39 2
-6 33 33 31 34 75 3 84 -35 9 -44 7 -58 -9z"/>
<path d="M13197 3024 c8 -22 -25 -139 -48 -163 -27 -28 -25 -31 24 -31 116 0
164 28 173 102 5 38 3 52 -15 77 -21 29 -27 31 -81 31 -50 0 -58 -3 -53 -16z
m106 -22 c44 -39 0 -135 -69 -148 -19 -3 -37 -4 -39 -2 -7 6 34 150 46 165 12
13 35 8 62 -15z"/>
<path d="M1930 3011 c15 -29 13 -178 -2 -185 -7 -3 25 -4 72 -3 80 2 85 3 99
29 14 25 14 29 -7 50 -20 22 -21 25 -5 41 14 13 15 21 5 42 -15 32 -48 45
-118 45 -51 0 -54 -1 -44 -19z m114 -26 c19 -19 10 -44 -15 -46 -10 -1 -24 -2
-30 -3 -6 -1 -13 14 -14 32 -2 28 1 32 20 32 13 0 30 -7 39 -15z m-3 -75 c19
-10 27 -54 12 -63 -5 -3 -21 -7 -38 -8 -27 -4 -29 -2 -31 31 -1 19 0 38 3 43
6 10 31 9 54 -3z"/>
<path d="M2888 3023 c-22 -6 -23 -17 -3 -33 12 -10 15 -28 10 -84 -2 -39 -9
-72 -15 -74 -6 -2 -8 -8 -4 -13 7 -12 64 -12 64 1 0 6 -5 10 -10 10 -7 0 -9
34 -6 100 4 103 4 104 -36 93z"/>
<path d="M3054 3002 c-41 -35 -54 -61 -54 -109 0 -79 65 -113 109 -57 25 32
27 62 5 93 -13 18 -23 22 -45 17 -16 -3 -29 -2 -29 3 0 13 45 51 62 51 9 0 18
7 22 15 9 25 -36 17 -70 -13z m36 -104 c11 -21 12 -32 4 -45 -14 -23 -44 -29
-55 -11 -10 16 -12 72 -2 82 13 13 37 1 53 -26z"/>
<path d="M3197 3023 c-43 -11 -63 -124 -32 -183 12 -23 23 -30 44 -30 47 0 66
32 66 110 0 53 -4 73 -19 89 -19 21 -26 23 -59 14z m43 -42 c22 -43 6 -151
-24 -151 -19 0 -26 22 -26 81 0 51 13 89 30 89 5 0 14 -9 20 -19z"/>
<path d="M3403 2948 c-52 -25 -36 -130 21 -136 28 -3 66 21 66 42 0 6 -5 5
-12 -2 -17 -17 -55 -15 -62 4 -11 28 -6 61 10 75 14 11 18 11 29 -4 15 -21 35
-22 35 -2 0 15 -30 35 -52 34 -7 0 -23 -5 -35 -11z"/>
<path d="M3586 2952 c-4 -3 -24 -5 -46 -4 -23 2 -40 -2 -40 -8 0 -5 7 -10 15
-10 18 0 21 -70 5 -101 -10 -17 -7 -19 21 -19 26 0 29 2 20 14 -7 8 -11 34 -9
58 2 36 7 44 26 46 20 3 22 -1 22 -45 0 -27 -5 -54 -12 -61 -9 -9 -4 -12 22
-12 l35 0 0 57 c0 47 3 58 18 61 14 3 17 -5 17 -51 0 -35 -5 -57 -12 -60 -7
-3 5 -6 27 -6 30 -1 36 2 27 11 -7 7 -12 36 -12 65 0 57 -19 80 -52 62 -10 -6
-26 -5 -41 0 -14 5 -28 7 -31 3z"/>
<path d="M4117 2933 c-12 -12 -7 -50 8 -63 12 -10 20 -9 40 4 30 20 31 28 7
49 -19 18 -44 22 -55 10z m43 -27 c0 -16 -18 -31 -27 -22 -8 8 5 36 17 36 5 0
10 -6 10 -14z"/>
<path d="M2142 2833 c5 -26 38 -29 38 -4 0 15 -6 21 -21 21 -14 0 -19 -5 -17
-17z"/>
<path d="M8776 2564 c-24 -35 -16 -50 13 -25 13 12 28 21 32 21 8 0 39 -28 39
-36 0 -18 -44 -86 -70 -107 -16 -14 -30 -28 -30 -32 0 -3 30 -5 67 -3 51 2 69
7 71 18 2 12 -7 14 -44 12 l-46 -4 39 40 c64 66 52 142 -22 142 -24 0 -37 -7
-49 -26z"/>
<path d="M8967 2552 c-42 -43 -55 -89 -37 -133 36 -86 145 -29 114 60 -8 22
-16 26 -47 26 -20 0 -37 3 -37 6 0 12 47 49 62 49 9 0 18 7 22 15 11 31 -40
15 -77 -23z m43 -83 c18 -33 9 -64 -20 -64 -27 0 -48 39 -37 69 9 23 44 20 57
-5z"/>
<path d="M9177 2510 c-29 -23 -37 -73 -17 -111 15 -28 74 -26 94 3 20 29 12
36 -15 13 -29 -27 -54 -9 -54 40 0 45 29 72 46 43 13 -24 29 -23 29 2 0 11 -6
20 -14 20 -8 0 -21 2 -28 5 -8 3 -26 -4 -41 -15z"/>
<path d="M9356 2523 c-4 -4 -21 -6 -39 -5 l-32 2 0 -70 0 -70 35 1 c19 0 29 3
23 6 -20 7 -17 102 3 110 25 9 32 -9 25 -64 l-7 -53 30 0 c20 0 27 3 18 9 -9
5 -12 25 -10 57 3 45 5 49 28 49 23 0 25 -4 26 -45 1 -25 -3 -51 -9 -57 -7
-10 -2 -13 23 -13 25 0 30 3 22 13 -6 7 -12 37 -14 67 l-3 55 -45 0 c-25 1
-50 4 -56 8 -6 3 -14 3 -18 0z"/>
<path d="M3760 2195 c-16 -20 -5 -32 14 -16 8 7 20 10 26 6 19 -12 10 -50 -20
-83 -16 -18 -30 -35 -30 -38 0 -2 23 -4 50 -4 39 0 50 4 50 16 0 12 -7 14 -30
9 l-30 -7 30 46 c30 43 30 46 13 65 -21 25 -55 27 -73 6z"/>
<path d="M1969 2127 c-59 -39 -65 -122 -13 -174 22 -22 32 -25 70 -20 42 4 84
29 84 49 0 15 -27 8 -45 -12 -26 -29 -52 -25 -86 12 -34 38 -37 75 -8 112 27
34 68 35 97 1 26 -30 41 -26 35 9 -4 16 -15 28 -36 35 -44 16 -60 14 -98 -12z"/>
<path d="M2888 2143 c-19 -5 -25 -33 -8 -33 15 0 13 -153 -2 -168 -9 -9 -3
-12 27 -12 30 0 36 3 27 12 -8 8 -12 47 -12 110 0 54 -3 97 -7 97 -5 -1 -16
-3 -25 -6z"/>
<path d="M3090 2141 c-14 -4 -39 -6 -57 -6 -26 2 -32 -2 -36 -24 -7 -34 -1
-38 21 -18 10 10 31 17 45 17 31 0 35 -19 14 -61 -27 -50 -46 -118 -36 -125 6
-3 16 2 23 12 18 24 67 197 58 205 -4 3 -18 3 -32 0z"/>
<path d="M3176 2129 c-30 -23 -33 -45 -11 -77 14 -19 14 -24 0 -46 -32 -48 14
-97 69 -76 41 15 48 42 22 80 -22 32 -22 34 -4 52 24 24 23 43 -4 68 -27 25
-39 25 -72 -1z m61 -29 c2 -8 -2 -22 -7 -30 -9 -13 -12 -12 -25 4 -8 11 -15
26 -15 34 0 18 44 11 47 -8z m-9 -102 c7 -7 12 -20 12 -31 0 -32 -44 -18 -48
16 -4 29 14 37 36 15z"/>
<path d="M3405 2073 c-50 -12 -62 -87 -20 -128 31 -32 50 -31 81 2 27 29 16
46 -12 19 -20 -20 -19 -20 -44 6 -25 28 -25 50 0 73 22 20 22 20 39 -13 12
-23 31 -22 31 3 0 17 -28 45 -43 44 -7 -1 -21 -3 -32 -6z"/>
<path d="M3490 2060 c0 -4 7 -13 15 -20 18 -15 20 -71 3 -88 -17 -17 4 -36 32
-27 16 5 19 10 10 20 -6 7 -10 33 -8 57 2 35 7 43 23 43 17 0 20 -8 23 -52 2
-38 -1 -53 -10 -53 -8 0 -7 -4 4 -10 27 -16 48 -1 48 35 0 19 -5 37 -11 40
-13 8 18 45 38 45 18 0 18 -106 1 -113 -7 -3 5 -6 27 -6 22 0 35 3 28 7 -6 4
-13 34 -15 67 l-3 60 -102 1 c-57 1 -103 -2 -103 -6z"/>
<path d="M4117 2053 c-14 -13 -7 -64 9 -70 21 -8 48 9 53 32 5 28 -43 58 -62
38z m33 -33 c0 -19 -11 -26 -23 -14 -8 8 3 34 14 34 5 0 9 -9 9 -20z"/>
<path d="M2140 1950 c0 -11 7 -20 15 -20 8 0 15 9 15 20 0 11 -7 20 -15 20 -8
0 -15 -9 -15 -20z"/>
<path d="M12548 1689 c-32 -24 -35 -44 -12 -70 15 -17 15 -20 0 -43 -19 -30
-21 -57 -4 -74 16 -16 80 -16 96 0 18 18 14 56 -9 79 l-21 21 21 19 c28 27 26
44 -8 68 -35 25 -30 25 -63 0z m46 -52 c-8 -21 -18 -21 -34 -2 -10 12 -10 18
0 31 11 13 15 13 27 1 8 -7 11 -21 7 -30z m6 -108 c0 -15 -30 -23 -42 -11 -6
6 -8 22 -3 39 l7 28 19 -24 c10 -13 19 -27 19 -32z"/>
<path d="M12762 1617 c-42 -45 -18 -127 37 -127 26 0 70 34 59 45 -2 3 -19 -1
-37 -8 -27 -10 -33 -9 -41 3 -15 23 -12 66 5 80 13 11 18 10 31 -9 16 -22 34
-20 34 3 0 12 -40 36 -59 36 -4 0 -17 -10 -29 -23z"/>
<path d="M12946 1633 c-3 -3 -21 -6 -39 -5 l-33 1 4 -60 c3 -45 1 -64 -9 -70
-9 -5 17 -9 66 -9 46 0 74 4 67 9 -9 5 -12 24 -10 57 2 38 7 50 21 52 17 3 19
-2 15 -57 l-3 -61 35 0 c26 0 31 3 22 12 -7 7 -12 35 -12 63 0 46 -3 53 -26
64 -19 8 -30 9 -39 1 -10 -8 -20 -8 -33 -1 -11 6 -22 7 -26 4z m12 -81 c3 -50
2 -52 -22 -52 -24 0 -26 4 -26 43 0 43 15 70 35 64 5 -2 11 -27 13 -55z"/>
<path d="M3818 1319 c-28 -16 -21 -29 12 -22 26 5 30 3 30 -17 0 -12 -13 -39
-30 -60 -16 -21 -30 -41 -30 -44 0 -3 20 -6 44 -6 30 0 46 5 50 15 5 13 0 15
-29 9 l-35 -6 30 32 c36 38 38 73 8 94 -26 19 -27 19 -50 5z"/>
<path d="M1920 1250 c-8 -5 -7 -9 4 -13 23 -9 23 -165 1 -173 -8 -4 -15 -12
-15 -20 0 -11 16 -14 65 -14 36 0 65 3 65 8 0 4 13 13 29 20 31 14 51 54 51
102 0 42 -34 77 -82 85 -64 11 -106 13 -118 5z m124 -33 c34 -25 44 -58 28
-97 -7 -19 -21 -41 -30 -47 -19 -15 -68 -17 -77 -3 -3 6 -2 10 3 10 5 0 9 30
10 68 0 37 1 70 1 75 2 12 46 8 65 -6z"/>
<path d="M2882 1235 c-33 -28 -24 -43 12 -20 21 14 29 15 41 5 26 -22 17 -57
-30 -114 -25 -31 -45 -60 -45 -66 0 -6 26 -10 60 -10 48 0 61 4 70 19 15 28
15 28 -42 24 -47 -4 -51 -3 -36 10 35 28 78 90 78 112 0 51 -66 76 -108 40z"/>
<path d="M3042 1238 c-17 -17 -15 -48 5 -70 14 -16 14 -20 1 -35 -26 -31 -28
-51 -7 -78 22 -27 54 -30 83 -6 20 17 21 65 1 81 -17 14 -20 40 -5 40 16 0 23
49 10 65 -15 18 -71 20 -88 3z m68 -31 c0 -31 -9 -38 -31 -26 -29 15 -25 49 6
49 20 0 25 -5 25 -23z m-12 -89 c7 -7 12 -22 12 -35 0 -18 -6 -23 -25 -23 -22
0 -25 4 -25 35 0 36 15 46 38 23z"/>
<path d="M3197 1243 c-10 -10 -8 -62 3 -83 7 -13 7 -21 0 -25 -5 -3 -10 -15
-10 -26 0 -10 -4 -19 -10 -19 -16 0 24 -59 43 -64 66 -17 111 70 58 111 -14
10 -14 13 2 30 21 24 22 69 1 77 -21 8 -79 8 -87 -1z m63 -37 c0 -31 -14 -40
-30 -21 -15 18 -6 45 15 45 9 0 15 -9 15 -24z m10 -126 c0 -13 -29 -32 -40
-25 -11 7 -14 58 -3 69 8 7 43 -29 43 -44z"/>
<path d="M3415 1164 c-35 -37 -33 -83 3 -117 20 -19 35 -26 48 -21 19 7 53 43
54 57 0 12 -21 8 -36 -8 -26 -26 -54 -2 -54 46 0 49 22 61 49 28 14 -17 23
-21 30 -13 15 14 -22 54 -50 54 -11 0 -31 -12 -44 -26z"/>
<path d="M3542 1183 c-6 -2 -9 -10 -5 -15 7 -13 6 -80 -3 -120 -5 -25 -3 -28
20 -28 25 0 25 2 20 44 -11 79 13 121 46 81 10 -12 10 -18 1 -29 -19 -23 -10
-90 13 -94 25 -5 44 14 28 30 -25 25 -10 108 19 108 15 0 19 -10 21 -67 2 -36
8 -68 13 -70 22 -7 30 15 27 75 -3 53 -8 65 -27 78 -17 11 -29 13 -41 6 -11
-6 -27 -7 -42 -1 -14 6 -31 5 -43 -1 -13 -7 -19 -7 -19 0 0 11 -7 12 -28 3z"/>
<path d="M4172 1158 c-27 -27 -3 -73 35 -66 27 5 25 72 -2 76 -11 1 -26 -3
-33 -10z m38 -34 c0 -16 -16 -19 -25 -4 -8 13 4 32 16 25 5 -4 9 -13 9 -21z"/>
<path d="M2152 1068 c-8 -8 -9 -15 -1 -25 16 -19 29 -16 29 6 0 25 -13 34 -28
19z"/>
<path d="M7108 824 c-4 -3 -4 -12 -1 -20 8 -22 -27 -165 -43 -171 -29 -11 -13
-20 36 -22 88 -1 130 30 110 83 -7 19 -5 33 7 54 25 43 12 62 -40 62 -24 0
-48 5 -53 10 -6 6 -13 8 -16 4z m86 -39 c8 -22 -3 -43 -26 -51 -26 -8 -31 -1
-23 35 7 33 38 43 49 16z m-29 -81 c14 -9 25 -22 25 -30 0 -18 -40 -44 -68
-44 -24 0 -25 4 -1 68 10 26 13 27 44 6z"/>
<path d="M11720 581 c0 -4 -16 -28 -35 -52 -19 -24 -35 -48 -35 -52 0 -5 -18
-26 -40 -47 -22 -21 -40 -43 -40 -49 0 -14 50 -15 51 -1 5 42 21 60 50 60 31
0 41 -26 14 -36 -32 -13 -16 -34 26 -34 37 0 40 2 33 23 -10 31 -11 128 -2
133 15 10 9 64 -7 64 -8 0 -15 -4 -15 -9z m-10 -75 c0 -25 -12 -46 -26 -46
-17 0 -17 2 -2 35 12 27 28 33 28 11z"/>
</g>
</svg>
