<?xml version="1.0" standalone="no"?>
<!DOCTYPE svg PUBLIC "-//W3C//DTD SVG 20010904//EN"
 "http://www.w3.org/TR/2001/REC-SVG-20010904/DTD/svg10.dtd">
<svg version="1.0" xmlns="http://www.w3.org/2000/svg"
 width="1406.000000pt" height="645.000000pt" viewBox="0 0 1406.000000 645.000000"
 preserveAspectRatio="xMidYMid meet">
<metadata>
Created by potrace 1.16, written by Peter Selinger 2001-2019
</metadata>
<g transform="translate(0.000000,645.000000) scale(0.100000,-0.100000)"
fill="#000000" stroke="none">
<path d="M4613 6135 c-20 -22 -15 -33 12 -27 18 3 25 0 25 -12 0 -21 -40 -96
-52 -96 -5 0 -6 -4 -3 -10 10 -16 71 -12 86 6 12 15 10 16 -19 10 -37 -9 -41
2 -12 29 11 10 20 24 20 32 0 7 5 13 10 13 18 0 11 26 -13 48 -27 25 -37 27
-54 7z"/>
<path d="M1670 6079 l0 -31 -55 4 -55 5 0 -79 c0 -76 1 -78 23 -74 25 6 56 9
75 7 10 -1 13 -15 11 -48 -2 -30 1 -48 9 -51 8 -2 12 12 12 46 0 57 6 62 65
51 22 -4 41 -7 41 -6 1 1 4 35 6 75 l5 72 -58 0 c-45 0 -59 4 -59 14 0 8 5 18
11 22 8 4 7 9 -2 15 -23 15 -29 10 -29 -22z m-7 -58 c4 -1 7 -19 7 -41 l0 -40
-45 0 -45 0 0 39 c0 47 6 50 83 42z m117 -38 l0 -43 -45 0 -45 0 0 39 c0 43 4
46 55 46 35 0 35 -1 35 -42z"/>
<path d="M1229 5973 c-1 -68 -2 -128 -3 -134 -1 -8 37 -12 126 -13 l128 -1 0
128 c0 70 -1 130 -2 133 -2 3 -58 7 -125 8 l-123 1 -1 -122z m171 97 c0 -6
-18 -10 -40 -10 -52 0 -52 14 0 17 22 2 40 -2 40 -7z m-95 -32 c0 -26 4 -32
18 -30 9 2 17 -2 17 -8 0 -7 -18 -10 -45 -8 -45 3 -45 3 -45 41 0 34 2 37 28
37 24 0 27 -4 27 -32z m155 -78 l0 -110 -105 0 -105 0 0 65 0 65 83 -2 c76 -2
77 -2 20 -5 l-63 -4 0 -39 c0 -21 -4 -42 -10 -45 -24 -15 -4 -21 70 -20 l80 0
1 50 c1 28 1 53 0 58 0 4 4 7 10 7 5 0 8 4 5 9 -3 5 -25 7 -48 4 -31 -5 -39
-3 -34 6 5 7 14 10 21 7 18 -6 35 14 35 41 0 16 6 23 20 23 19 0 20 -7 20
-110z m-75 80 c7 -11 4 -12 -37 -14 -17 -1 -28 3 -28 11 0 15 56 18 65 3z m25
-120 c0 -22 -4 -40 -9 -40 -5 0 -8 12 -7 28 1 30 -1 32 -44 32 -27 0 -30 -3
-30 -30 0 -16 -4 -30 -10 -30 -5 0 -10 15 -10 34 0 38 8 43 73 45 37 1 37 1
37 -39z m-40 -5 c0 -8 -7 -15 -15 -15 -8 0 -15 7 -15 15 0 8 7 15 15 15 8 0
15 -7 15 -15z m-7 -32 c-7 -2 -19 -2 -25 0 -7 3 -2 5 12 5 14 0 19 -2 13 -5z"/>
<path d="M1967 6089 c-10 -6 -31 -11 -47 -11 l-30 -1 0 -94 c0 -59 -5 -106
-14 -128 -13 -30 -13 -35 -1 -35 8 0 19 18 26 43 6 23 13 48 15 55 2 6 19 12
39 12 21 0 35 -5 35 -12 0 -9 4 -8 10 2 12 19 13 107 1 115 -5 3 -12 2 -15 -3
-7 -11 -64 -14 -71 -3 -7 12 10 23 55 36 32 10 38 17 21 30 -3 2 -14 0 -24 -6z
m23 -114 c0 -22 -4 -25 -40 -25 -36 0 -40 3 -40 25 0 23 4 25 40 25 36 0 40
-2 40 -25z"/>
<path d="M2104 6090 c-5 -5 -25 -11 -44 -13 l-35 -2 -5 -102 c-4 -77 -9 -105
-22 -120 -20 -22 -23 -33 -8 -33 5 0 22 19 36 42 21 32 25 49 21 80 -5 37 -4
38 25 38 l30 0 -3 -82 c-3 -59 -1 -82 9 -85 9 -4 12 17 12 81 0 85 0 86 25 86
14 0 25 4 25 9 0 14 -31 22 -44 12 -16 -14 -66 -7 -76 9 -12 19 7 50 29 50 10
0 33 5 50 11 24 9 29 14 19 20 -17 12 -32 11 -44 -1z"/>
<path d="M2705 6089 c-22 -4 -59 -8 -82 -8 -38 -1 -42 -4 -53 -35 -6 -19 -16
-37 -23 -39 -7 -2 -9 -8 -5 -12 4 -4 14 -2 23 5 25 20 21 -86 -5 -128 -24 -39
-27 -60 -6 -43 7 6 20 9 29 6 9 -4 21 3 31 16 18 27 13 37 -9 19 -21 -18 -29
-6 -13 19 10 17 24 21 65 22 129 3 133 3 133 -25 0 -13 -7 -30 -16 -37 -14
-11 -19 -9 -36 14 -17 24 -48 37 -48 21 0 -10 28 -34 40 -34 6 0 9 -4 6 -9 -6
-10 16 -21 42 -21 19 0 39 40 44 85 3 26 0 30 -21 27 -20 -2 -22 1 -17 23 5
21 3 25 -14 25 -16 0 -20 5 -16 18 9 28 -8 46 -31 33 -23 -12 -33 -6 -33 21 0
14 8 18 31 18 33 0 58 -22 59 -52 0 -10 4 -18 9 -18 20 0 22 22 5 48 -10 15
-17 33 -16 40 3 13 -13 14 -73 1z m-35 -49 c0 -15 -7 -20 -29 -20 -17 0 -33 5
-36 10 -11 17 5 30 36 30 22 0 29 -5 29 -20z m58 -47 c3 -10 -13 -13 -57 -13
-44 0 -61 4 -61 13 0 18 111 18 118 0z m32 -43 c0 -6 -32 -10 -75 -10 -43 0
-75 4 -75 10 0 6 32 10 75 10 43 0 75 -4 75 -10z"/>
<path d="M2333 6082 c-129 -4 -118 -22 13 -22 77 0 105 3 102 12 -5 15 -3 14
-115 10z"/>
<path d="M4971 6054 c-12 -33 -14 -34 -27 -17 -12 16 -13 3 -14 -94 0 -64 4
-114 10 -118 6 -3 10 1 10 9 0 12 10 16 35 16 19 0 35 -4 35 -10 0 -5 5 -10
10 -10 6 0 10 27 10 60 0 39 5 62 14 67 7 4 18 18 24 30 10 18 19 21 54 18
l43 -3 -3 -64 c-4 -106 -7 -111 -52 -104 -25 4 -40 2 -40 -4 0 -5 9 -10 19
-10 11 0 22 -4 26 -9 11 -18 44 -7 55 19 14 34 29 193 20 203 -4 5 -17 4 -29
-2 -14 -8 -21 -8 -21 -1 0 6 -11 8 -27 4 -27 -7 -28 -6 -10 13 22 25 21 29 -3
36 -16 4 -21 -1 -26 -21 -16 -73 -53 -127 -40 -58 7 37 -7 49 -31 25 -8 -8
-13 -7 -18 2 -5 7 0 18 11 26 16 12 17 15 4 23 -23 14 -25 13 -39 -26z m49
-74 c0 -28 -3 -30 -35 -30 -30 0 -35 3 -35 23 0 31 7 37 42 37 24 0 28 -4 28
-30z m-2 -77 c3 -32 2 -33 -32 -33 -35 0 -36 1 -36 36 0 34 1 35 33 32 28 -3
32 -7 35 -35z"/>
<path d="M6800 6050 l0 -40 -43 0 c-24 0 -48 5 -55 12 -9 9 -12 -5 -12 -63 l0
-76 55 5 55 4 0 -56 c0 -31 5 -56 10 -56 6 0 10 25 10 56 l0 56 55 -4 55 -5 0
46 c0 25 3 56 6 68 6 20 4 21 -55 16 -60 -6 -61 -5 -61 20 0 14 5 29 11 33 8
4 7 9 -2 15 -24 15 -29 10 -29 -31z m-2 -93 c-3 -42 -3 -42 -43 -42 -40 0 -40
0 -43 41 l-3 41 46 1 46 0 -3 -41z m110 -2 c-3 -40 -3 -40 -43 -40 -40 0 -40
0 -43 40 l-3 40 46 0 46 0 -3 -40z"/>
<path d="M396 6060 c-50 -32 -71 -127 -40 -175 12 -18 25 -25 50 -25 39 0 64
29 64 76 0 38 -22 59 -61 56 -16 -1 -29 1 -29 6 0 15 56 62 73 62 9 0 17 5 17
10 0 16 -42 10 -74 -10z m38 -106 c11 -29 6 -65 -9 -71 -23 -8 -55 26 -55 59
0 24 4 28 29 28 17 0 31 -6 35 -16z"/>
<path d="M3822 6064 c-30 -21 -50 -62 -57 -120 -5 -40 -2 -57 17 -93 24 -46
62 -79 72 -63 3 5 -6 22 -19 36 -14 15 -25 36 -25 46 0 10 -4 22 -10 25 -5 3
-10 22 -10 41 0 19 5 34 10 34 6 0 10 11 10 25 0 14 11 37 25 51 37 37 29 48
-13 18z"/>
<path d="M4355 6070 c-3 -5 -3 -15 0 -20 4 -6 2 -16 -3 -23 -14 -18 -44 -147
-38 -163 3 -8 19 -14 39 -14 55 0 94 51 85 111 -2 20 -9 24 -36 24 -21 0 -31
4 -28 12 3 6 8 28 12 47 5 29 3 36 -9 36 -9 0 -19 -4 -22 -10z m55 -133 c0
-38 -33 -80 -58 -75 -22 4 -17 43 10 80 27 39 48 36 48 -5z"/>
<path d="M4464 6058 c9 -13 23 -33 32 -45 19 -27 22 -130 4 -164 -7 -13 -22
-30 -32 -37 -22 -16 -15 -32 12 -25 28 7 62 80 63 134 1 72 -43 159 -81 159
-12 0 -12 -4 2 -22z"/>
<path d="M5280 6075 c-1 0 -2 -59 -5 -131 -3 -136 2 -167 25 -139 16 19 199
22 218 3 9 -9 12 2 13 53 1 35 2 98 4 139 l3 75 -129 0 c-71 0 -129 0 -129 0z
m231 -19 c2 -2 3 -54 1 -115 l-3 -111 -105 0 -104 0 0 70 c0 53 3 68 13 64 10
-3 12 -21 9 -62 l-4 -57 83 2 84 2 1 43 c0 24 4 53 8 66 7 22 6 22 -33 16 -29
-5 -41 -3 -41 5 0 7 10 11 23 9 18 -2 22 2 22 25 0 27 -2 28 -57 32 l-58 3 0
-29 c0 -22 5 -29 20 -29 11 0 20 -4 20 -10 0 -12 -15 -13 -59 -4 -28 6 -31 10
-31 45 l0 39 103 0 c57 0 106 -2 108 -4z m-83 -35 c29 -2 9 -21 -23 -21 -19 0
-35 4 -35 8 0 14 10 20 28 17 9 -2 23 -4 30 -4z m15 -68 c-18 -2 -48 -2 -65 0
-18 2 -4 4 32 4 36 0 50 -2 33 -4z m25 -50 c-2 -27 -8 -39 -21 -41 -16 -3 -17
-1 -6 16 16 26 4 59 -15 43 -10 -8 -16 -9 -21 -1 -13 22 -35 10 -35 -19 0 -25
5 -30 28 -34 22 -3 20 -4 -10 -6 -38 -1 -38 -1 -38 39 l0 40 61 0 60 0 -3 -37z
m-48 -13 c0 -5 -6 -10 -14 -10 -8 0 -18 5 -21 10 -3 6 3 10 14 10 12 0 21 -4
21 -10z"/>
<path d="M5647 6042 c-4 -20 -18 -53 -32 -72 -26 -35 -26 -52 0 -30 13 11 15
3 15 -63 0 -42 5 -79 10 -82 6 -4 10 25 10 80 0 85 22 185 41 185 5 0 9 5 9
10 0 6 -11 10 -24 10 -19 0 -24 -6 -29 -38z"/>
<path d="M5707 6033 c-19 -30 -24 -48 -17 -53 6 -4 8 -14 4 -23 -5 -14 -1 -16
25 -11 41 9 39 -1 -4 -22 -19 -9 -35 -20 -35 -25 0 -13 17 -11 50 6 19 10 30
11 30 5 0 -6 -19 -19 -42 -30 -27 -12 -35 -19 -23 -19 11 0 31 6 45 14 28 16
50 19 50 8 0 -9 -78 -43 -98 -43 -6 0 -12 -5 -12 -11 0 -7 11 -8 30 -4 18 4
30 3 30 -4 0 -6 9 -15 21 -21 26 -14 49 3 49 36 0 29 7 30 36 3 15 -14 29 -19
43 -14 24 7 19 25 -8 25 -9 0 -26 6 -36 14 -18 13 -17 14 14 31 25 12 30 20
22 28 -6 6 -11 29 -11 50 0 39 -1 39 -30 34 -22 -5 -30 -3 -30 8 0 7 5 17 10
20 21 13 9 25 -25 25 -19 0 -35 5 -35 10 0 24 -27 5 -53 -37z m81 -5 c-5 -13
-53 -29 -62 -21 -2 3 -2 11 1 19 6 17 66 19 61 2z m-19 -47 c12 -8 9 -11 -11
-16 -28 -7 -48 -1 -48 16 0 12 40 12 59 0z m81 -6 c0 -10 -10 -15 -30 -15 -29
0 -38 9 -23 23 13 13 53 7 53 -8z m0 -40 c0 -7 -8 -19 -18 -29 -18 -15 -20
-15 -36 3 -10 11 -15 24 -12 29 8 13 66 11 66 -3z m-55 -96 c-4 -5 -16 -9 -28
-9 -21 1 -21 1 -3 15 20 15 41 11 31 -6z"/>
<path d="M6400 6060 c0 -16 -7 -20 -30 -20 -20 0 -30 -5 -30 -15 0 -10 10 -15
30 -15 l30 0 0 -66 0 -67 -35 6 c-19 3 -35 2 -35 -3 0 -8 239 -19 274 -12 34
7 14 22 -26 20 l-43 -3 -3 63 -3 62 41 0 c34 0 41 3 38 18 -3 13 -12 16 -43
14 -32 -3 -38 -1 -27 9 18 19 15 29 -8 29 -13 0 -20 -7 -20 -20 0 -17 -7 -20
-47 -20 -37 0 -44 3 -35 12 18 18 15 28 -8 28 -13 0 -20 -7 -20 -20z m110 -65
c0 -11 -12 -15 -45 -15 -33 0 -45 4 -45 15 0 11 12 15 45 15 33 0 45 -4 45
-15z m0 -40 c0 -11 -12 -15 -45 -15 -33 0 -45 4 -45 15 0 11 12 15 45 15 33 0
45 -4 45 -15z m0 -61 c0 -10 -12 -14 -39 -14 -38 0 -58 11 -47 28 8 14 86 1
86 -14z"/>
<path d="M8784 6070 c-12 -5 -48 -10 -80 -13 -45 -3 -59 -8 -65 -23 -4 -11
-14 -26 -23 -33 -9 -7 -16 -20 -16 -28 0 -11 4 -11 21 -3 11 7 23 10 25 7 3
-2 1 -30 -2 -62 -5 -39 -15 -66 -32 -86 -25 -30 -24 -51 1 -30 8 6 21 9 30 5
10 -3 20 2 26 15 18 32 13 46 -9 26 -19 -17 -19 -17 -7 14 l11 31 93 0 c89 0
92 -1 91 -22 -3 -49 -45 -66 -63 -26 -6 12 -17 24 -25 26 -11 4 -11 0 3 -19
10 -13 20 -32 23 -41 3 -9 13 -19 22 -23 21 -8 61 37 64 71 0 13 1 30 2 37 1
6 -8 12 -19 12 -15 0 -19 6 -17 24 1 15 -4 24 -17 28 -13 3 -17 11 -14 24 4
16 0 19 -26 19 -24 0 -31 4 -31 20 0 15 9 21 40 26 23 4 39 11 37 17 -5 15
-18 17 -43 7z m-66 -58 c3 -20 1 -22 -25 -16 -36 9 -37 10 -29 29 9 25 50 15
54 -13z m66 -42 c-6 -6 -34 -13 -62 -17 -44 -5 -52 -3 -52 11 0 13 11 16 62
16 42 0 59 -3 52 -10z m26 -50 c0 -18 -7 -20 -69 -20 -67 0 -89 9 -76 30 3 6
37 10 76 10 62 0 69 -2 69 -20z"/>
<path d="M9050 6072 c0 -4 5 -13 12 -20 8 -8 8 -15 -2 -27 -17 -21 -40 -19
-40 4 0 21 -27 48 -37 37 -4 -3 -1 -12 5 -18 22 -22 14 -41 -13 -34 -24 6 -45
-14 -45 -43 0 -19 29 -12 40 9 9 18 21 20 100 20 73 0 90 -3 90 -15 0 -18 21
-20 38 -3 21 21 13 28 -30 28 -40 0 -41 1 -24 19 10 11 15 25 11 30 -11 19
-23 12 -34 -19 -13 -39 -35 -40 -29 0 3 19 0 31 -10 35 -20 7 -32 6 -32 -3z"/>
<path d="M7480 6058 c0 -4 15 -8 33 -10 30 -3 32 -5 35 -49 2 -25 -1 -56 -6
-70 -5 -13 -11 -28 -12 -34 -1 -5 -17 -29 -36 -52 -37 -45 -40 -53 -21 -53 24
1 87 93 87 127 0 18 5 33 10 33 6 0 10 -10 10 -22 0 -13 7 -32 15 -42 22 -29
19 -35 -30 -57 -25 -11 -45 -25 -45 -30 0 -14 63 0 72 16 16 28 59 27 100 -1
28 -19 42 -24 50 -16 15 15 4 27 -41 42 -47 15 -49 20 -21 45 11 10 20 24 20
31 0 7 7 20 16 28 20 21 9 38 -22 30 -21 -6 -24 -3 -24 24 0 17 5 34 11 37 5
4 8 12 7 17 -4 12 -208 18 -208 6z m168 -42 c4 -33 -10 -46 -50 -46 -25 0 -28
4 -28 33 0 42 7 49 45 45 25 -2 31 -8 33 -32z m42 -61 c0 -18 -44 -83 -53 -79
-13 5 -47 59 -47 75 0 5 23 9 50 9 28 0 50 -2 50 -5z"/>
<path d="M8307 6025 c6 -44 5 -45 -23 -46 -29 -1 -29 -1 -4 -8 21 -6 25 -13
28 -53 3 -42 1 -46 -23 -52 -25 -6 -33 -20 -16 -31 12 -7 91 34 91 47 0 6 -7
8 -15 4 -12 -4 -15 4 -15 41 0 40 2 44 15 33 19 -16 130 -20 130 -5 0 6 -20 9
-48 7 -47 -4 -48 -3 -38 17 10 18 21 21 76 21 37 0 65 -4 65 -10 0 -5 -4 -10
-9 -10 -5 0 -7 -27 -5 -60 3 -36 0 -60 -6 -60 -5 0 -10 -9 -10 -21 0 -18 -5
-20 -37 -17 -46 4 -53 -14 -11 -30 46 -17 75 4 82 60 9 73 14 166 10 171 -3 2
-22 1 -44 -3 -26 -5 -41 -3 -44 4 -3 7 -5 7 -5 -1 -1 -18 -31 -16 -31 1 0 8 5
18 10 21 15 9 12 25 -4 25 -8 0 -23 -20 -35 -45 -22 -47 -27 -50 -50 -36 -10
6 -12 20 -8 45 5 31 3 36 -13 36 -17 0 -19 -5 -13 -45z"/>
<path d="M9330 6060 c0 -6 -12 -9 -27 -8 -22 2 -29 -2 -31 -19 -2 -13 -8 -23
-14 -23 -7 0 -7 -4 0 -13 6 -7 12 -33 14 -57 3 -43 4 -45 31 -42 15 2 27 -1
27 -7 0 -6 -18 -11 -40 -11 -22 0 -40 -4 -40 -10 0 -5 12 -10 27 -10 26 0 26
0 7 -21 l-19 -21 35 7 c31 7 33 6 21 -9 -7 -9 -22 -16 -32 -16 -11 0 -19 -4
-19 -10 0 -13 33 -13 64 1 19 9 32 9 57 -1 30 -13 33 -12 55 15 l23 29 31 -29
c21 -20 33 -26 41 -18 7 7 2 17 -20 32 -34 24 -38 46 -16 75 8 11 15 32 15 48
0 19 5 28 16 28 9 0 14 6 11 13 -2 7 -18 11 -40 9 -31 -3 -37 0 -37 15 0 11 5
24 12 31 9 9 9 15 1 23 -17 17 -33 1 -33 -34 -1 -18 -9 -47 -19 -66 -16 -30
-19 -32 -23 -13 -3 11 1 30 9 41 8 12 10 21 4 21 -6 0 -11 11 -11 25 0 22 -3
24 -32 18 -22 -4 -29 -3 -24 5 4 7 1 12 -8 12 -9 0 -16 -5 -16 -10z m8 -38 c2
-7 -6 -12 -17 -12 -21 0 -27 11 -14 24 9 9 26 2 31 -12z m38 -17 c0 -14 -7
-25 -13 -25 -11 0 -12 20 -4 48 1 1 5 2 10 2 5 0 8 -11 7 -25z m-46 -15 c0 -5
-7 -10 -15 -10 -8 0 -15 5 -15 10 0 6 7 10 15 10 8 0 15 -4 15 -10z m0 -30 c0
-5 -4 -10 -9 -10 -6 0 -13 5 -16 10 -3 6 1 10 9 10 9 0 16 -4 16 -10z m50 0
c0 -5 -7 -10 -15 -10 -8 0 -15 5 -15 10 0 6 7 10 15 10 8 0 15 -4 15 -10z
m110 -22 c0 -18 -4 -40 -10 -48 -10 -17 -14 -10 -24 48 -5 27 -3 32 14 32 16
0 20 -7 20 -32z m-162 -10 c-6 -18 -28 -21 -28 -4 0 9 7 16 16 16 9 0 14 -5
12 -12z m52 -3 c0 -9 -6 -12 -15 -9 -8 4 -15 10 -15 15 0 5 7 9 15 9 8 0 15
-7 15 -15z m79 -65 c0 -8 -13 -25 -28 -37 -28 -22 -29 -22 -46 -3 -21 23 -12
40 21 40 13 0 24 5 24 11 0 8 -13 9 -40 5 -33 -5 -40 -3 -40 10 0 11 6 15 19
11 10 -2 29 4 42 14 24 18 24 18 36 -9 7 -15 12 -34 12 -42z m-99 -10 c0 -5
-9 -10 -20 -10 -11 0 -20 5 -20 10 0 6 9 10 20 10 11 0 20 -4 20 -10z"/>
<path d="M7994 6012 c-1 -26 -11 -68 -22 -94 -12 -26 -22 -52 -22 -58 0 -15
48 -31 75 -24 31 8 78 75 73 106 -2 19 -10 24 -41 26 -41 4 -42 4 -21 75 4 13
0 17 -18 17 -21 0 -23 -5 -24 -48z m66 -92 c0 -32 -30 -70 -56 -70 -13 0 -15
7 -9 38 8 45 21 62 46 62 14 0 19 -7 19 -30z"/>
<path d="M10308 6055 c-3 -4 -61 -7 -127 -7 -87 0 -121 -3 -118 -12 2 -6 15
-11 28 -12 13 -1 41 -2 63 -3 l38 -1 -3 -117 c-5 -145 14 -174 21 -35 l5 93
42 -35 c48 -41 53 -43 53 -16 0 13 -15 26 -50 42 -43 20 -50 27 -48 48 3 23 6
24 66 24 51 -1 62 2 60 14 -3 17 -21 26 -30 17z"/>
<path d="M10526 6048 c-11 -6 -41 -8 -73 -4 -42 5 -54 3 -51 -6 3 -7 13 -13
23 -13 10 0 20 -5 22 -12 5 -13 -22 -69 -45 -96 -8 -9 -12 -20 -8 -25 4 -4 13
1 20 10 12 16 15 16 36 -7 25 -27 21 -39 -27 -78 -25 -20 -30 -37 -12 -37 19
0 98 84 113 121 32 80 32 79 -19 79 -39 0 -46 3 -41 16 3 9 6 18 6 20 0 2 18
1 40 -2 32 -5 41 -3 46 10 9 24 -7 37 -30 24z m-6 -93 c0 -4 -7 -20 -16 -37
l-16 -31 -23 29 c-13 16 -21 32 -18 36 5 9 73 11 73 3z"/>
<path d="M10648 5942 c3 -98 0 -121 -12 -132 -12 -9 -19 -10 -30 -1 -9 8 -16
8 -20 2 -4 -5 8 -17 26 -26 30 -15 34 -15 45 2 9 11 13 53 13 122 0 58 3 116
6 129 5 17 2 22 -12 22 -18 0 -19 -8 -16 -118z"/>
<path d="M10777 6053 c-4 -3 -7 -16 -7 -27 0 -12 -11 -41 -25 -65 -30 -51 -33
-76 -5 -41 l20 25 0 -87 c0 -52 4 -88 10 -88 6 0 10 41 10 104 0 112 12 168
32 148 7 -7 43 -12 85 -12 l73 0 -1 -95 c-2 -100 -14 -130 -43 -106 -8 7 -17
8 -20 3 -6 -11 9 -25 38 -36 37 -13 46 10 46 125 0 93 2 109 16 109 9 0 14 7
12 17 -3 15 -16 17 -106 14 -68 -2 -102 1 -102 8 0 12 -23 15 -33 4z"/>
<path d="M11190 6034 c0 -25 -1 -26 -45 -20 -29 5 -45 4 -45 -3 0 -6 20 -11
45 -11 33 0 45 -4 45 -15 0 -12 -13 -15 -60 -15 -33 0 -60 -4 -60 -10 0 -6 31
-10 73 -10 l72 0 -30 -24 c-16 -14 -49 -29 -72 -35 -24 -6 -43 -16 -43 -22 0
-11 6 -10 68 7 21 6 22 4 22 -47 l0 -54 77 2 78 2 1 65 c1 46 -2 66 -11 66 -6
0 -20 9 -30 20 -18 20 -17 20 33 20 29 0 52 5 52 10 0 11 -11 13 -55 10 l-30
-2 28 29 c29 32 35 53 13 53 -7 0 -21 -15 -29 -33 -16 -32 -58 -62 -71 -50
-14 15 -4 33 18 33 28 0 43 17 29 31 -6 6 -15 4 -23 -6 -19 -23 -33 -18 -26
10 5 18 2 25 -9 25 -10 0 -15 -9 -15 -26z m70 -120 c0 -9 -11 -14 -30 -14 -21
0 -28 4 -24 14 6 15 33 26 47 19 4 -2 7 -11 7 -19z m30 -39 c0 -12 -13 -15
-55 -15 -42 0 -55 3 -55 15 0 12 13 15 55 15 42 0 55 -3 55 -15z m7 -39 c16
-15 -23 -36 -68 -36 -41 0 -49 3 -49 18 0 10 2 21 4 23 6 6 106 2 113 -5z"/>
<path d="M11930 6034 c-9 -22 -13 -24 -25 -14 -9 7 -17 11 -18 9 -29 -41 -36
-59 -23 -59 7 0 16 7 20 15 3 8 12 15 20 15 13 0 12 -6 -5 -35 -21 -36 -33
-43 -44 -25 -3 5 -19 7 -35 3 -19 -3 -30 -1 -30 6 0 6 5 11 10 11 6 0 10 6 9
13 -4 29 3 37 31 37 20 0 30 5 30 15 0 18 -65 21 -75 5 -5 -8 -12 -7 -22 1
-12 10 -16 10 -23 -1 -10 -16 8 -33 23 -23 15 9 -3 -87 -21 -116 -16 -24 -16
-25 1 -18 15 5 17 0 17 -43 0 -28 5 -50 10 -50 6 0 10 5 10 10 0 14 33 13 48
-2 9 -9 12 1 12 45 0 47 3 58 21 68 21 11 21 10 14 -58 l-6 -68 83 3 c46 2 85
6 87 8 2 2 -2 10 -9 19 -10 12 -16 13 -26 4 -17 -14 -44 -5 -44 16 0 11 10 15
36 15 23 0 33 4 28 11 -3 6 -19 9 -35 5 -21 -4 -29 -2 -29 9 0 7 12 15 27 17
14 2 28 9 31 17 3 10 -3 11 -27 6 -27 -6 -31 -4 -31 14 0 17 6 21 35 21 19 0
35 5 35 11 0 8 -12 9 -37 4 -31 -6 -35 -4 -25 8 7 7 9 17 5 21 -4 4 -15 -3
-24 -16 -20 -26 -34 -20 -24 11 8 26 65 31 65 6 0 -14 3 -13 25 1 35 23 22 35
-32 27 -46 -6 -46 -6 -39 20 8 35 -11 36 -24 1z m20 -114 c0 -13 -7 -20 -18
-20 -26 0 -34 11 -21 27 17 20 39 16 39 -7z m-124 0 c16 -16 2 -95 -16 -95
-10 0 -16 12 -18 39 -5 58 9 81 34 56z m124 -55 c0 -16 -35 -21 -44 -6 -8 12
4 21 26 21 10 0 18 -7 18 -15z m0 -40 c0 -9 -7 -18 -16 -22 -18 -7 -39 11 -30
26 11 17 46 13 46 -4z"/>
<path d="M11543 6042 c-100 -2 -123 -5 -123 -17 0 -12 14 -15 59 -15 33 0 61
-3 63 -7 2 -5 1 -51 -2 -103 -5 -91 -6 -95 -28 -96 -23 -1 -24 0 -21 80 3 70
1 81 -14 84 -15 3 -17 -6 -17 -82 0 -78 -2 -86 -19 -86 -11 0 -21 6 -24 13 -2
6 -8 9 -12 5 -4 -4 -5 -13 -2 -20 3 -10 39 -13 148 -13 121 0 144 2 144 15 0
8 -10 16 -22 18 -13 2 -23 -1 -23 -6 0 -13 -67 -13 -78 1 -5 7 -9 30 -8 52 2
39 3 40 34 37 21 -2 32 1 32 10 0 9 3 9 10 -2 7 -11 12 -12 21 -3 21 21 0 33
-46 26 l-45 -6 0 41 0 41 55 -3 c36 -2 59 1 66 10 18 22 -20 29 -148 26z"/>
<path d="M12191 6028 c-13 -14 -21 -33 -19 -48 3 -28 23 -25 23 4 0 27 30 44
53 30 25 -16 27 -43 4 -67 -29 -31 -45 -78 -32 -91 7 -7 10 -4 10 8 0 10 16
36 35 57 39 44 43 64 17 96 -27 34 -66 39 -91 11z"/>
<path d="M8820 6023 c0 -12 8 -29 18 -39 16 -17 17 -17 20 0 2 10 -5 28 -17
39 l-21 21 0 -21z"/>
<path d="M10586 6028 c-8 -24 -14 -178 -8 -178 24 1 31 23 33 100 1 56 -2 85
-9 88 -7 2 -14 -2 -16 -10z"/>
<path d="M4160 5986 c0 -35 -1 -36 -40 -36 -22 0 -40 -4 -40 -10 0 -10 6 -12
50 -14 21 -1 25 -6 28 -38 4 -51 22 -49 22 2 l0 40 40 0 c22 0 40 5 40 10 0 6
-18 10 -41 10 -40 0 -40 1 -37 32 2 19 -2 33 -9 35 -9 3 -13 -7 -13 -31z"/>
<path d="M2328 6003 c-74 -2 -128 -8 -128 -13 0 -6 31 -10 68 -10 l69 0 -1
-82 c-1 -56 3 -82 12 -85 9 -4 12 17 12 81 l0 86 71 0 c52 0 70 3 67 13 -5 14
-4 14 -170 10z"/>
<path d="M3115 5991 c-3 -6 2 -11 13 -11 17 0 21 -9 27 -60 8 -68 -2 -90 -41
-90 -17 0 -24 -6 -24 -19 0 -11 4 -22 8 -25 16 -9 112 93 135 144 6 14 16 28
21 31 15 11 -2 41 -21 37 -12 -2 -17 -11 -15 -24 3 -26 -14 -74 -27 -74 -6 0
-11 21 -13 48 -3 43 -5 47 -30 50 -14 2 -29 -2 -33 -7z"/>
<path d="M3630 5971 c-31 -30 -46 -71 -36 -96 8 -21 35 -30 55 -18 11 7 22 7
33 -1 14 -8 22 -7 35 7 10 10 12 17 6 17 -9 0 -8 13 2 48 20 65 20 67 -26 69
-33 2 -46 -3 -69 -26z m70 -18 c0 -31 -35 -73 -62 -73 -25 0 -24 40 3 74 28
35 59 35 59 -1z"/>
<path d="M3900 5990 c-13 -8 -11 -11 8 -16 39 -11 23 -94 -18 -94 -11 0 -20
-7 -20 -15 0 -21 23 -19 54 6 21 16 26 17 26 5 0 -22 17 -29 40 -16 25 14 26
33 1 25 -15 -4 -20 1 -24 27 -5 35 7 60 26 53 7 -3 19 -1 27 5 12 7 12 12 2
22 -9 9 -18 7 -42 -10 -22 -17 -30 -19 -30 -8 0 7 -7 17 -16 20 -19 7 -16 8
-34 -4z"/>
<path d="M3330 5971 c0 -10 84 -18 143 -13 73 6 35 22 -53 22 -49 0 -90 -4
-90 -9z"/>
<path d="M6065 5970 c-4 -6 -2 -17 4 -23 5 -7 7 -24 4 -38 -6 -24 -6 -24 15
-5 26 22 29 61 6 70 -21 8 -22 8 -29 -4z"/>
<path d="M7200 5949 c-16 -16 -32 -43 -35 -60 -11 -48 27 -78 55 -44 9 11 16
12 31 2 14 -9 21 -9 31 2 10 10 10 15 1 18 -9 3 -8 14 3 45 20 59 18 65 -22
66 -29 1 -43 -5 -64 -29z m60 -19 c0 -30 -32 -70 -57 -70 -20 0 -15 38 9 70
28 39 48 39 48 0z"/>
<path d="M8990 5946 c0 -34 13 -55 24 -38 8 13 52 9 46 -3 -3 -5 -24 -10 -48
-10 -42 0 -42 0 -44 -37 0 -21 -1 -43 -2 -50 -1 -6 5 -13 12 -15 8 -3 12 8 12
36 l0 41 40 0 c41 0 49 -7 29 -27 -16 -16 -7 -57 15 -61 17 -4 18 1 12 42 l-7
46 35 0 c29 0 36 -4 36 -20 0 -13 -7 -20 -20 -20 -27 0 -26 -27 1 -35 29 -10
47 12 51 60 l3 40 -52 -3 c-36 -3 -53 0 -53 8 0 7 11 10 28 8 25 -3 27 0 30
35 l3 37 -75 0 -76 0 0 -34z m96 14 c24 0 34 -4 34 -16 0 -12 -10 -15 -50 -12
-27 2 -52 7 -56 10 -11 11 7 30 23 24 8 -3 30 -6 49 -6z"/>
<path d="M10830 5923 c0 -36 -4 -53 -12 -53 -7 0 -4 -6 6 -12 15 -8 21 -8 24
0 5 15 38 16 47 2 14 -23 25 -7 25 38 0 26 5 53 12 60 13 13 14 13 -59 16
l-43 1 0 -52z m70 -2 c0 -23 -5 -30 -25 -33 -23 -5 -25 -2 -25 28 0 30 3 34
25 34 21 0 25 -5 25 -29z"/>
<path d="M5080 5965 c0 -14 47 -74 53 -68 15 15 5 40 -23 56 -16 10 -30 15
-30 12z"/>
<path d="M2265 5933 c-10 -16 -29 -40 -43 -55 -20 -22 -22 -28 -10 -28 19 0
99 90 92 102 -9 15 -21 8 -39 -19z"/>
<path d="M9708 5949 c-25 -14 -22 -36 6 -54 34 -22 58 -10 54 29 -3 34 -28 44
-60 25z m42 -22 c0 -8 -3 -17 -7 -20 -9 -9 -34 13 -27 24 8 14 34 11 34 -4z"/>
<path d="M2428 5900 c17 -31 33 -50 44 -50 10 0 18 5 18 10 0 6 -4 10 -10 10
-5 0 -10 6 -10 13 0 13 -50 67 -63 67 -3 0 6 -22 21 -50z"/>
<path d="M3345 5920 c-13 -22 9 -30 80 -30 75 0 96 9 71 30 -11 8 -25 9 -50 1
-22 -5 -36 -6 -36 0 0 12 -57 12 -65 -1z"/>
<path d="M8418 5903 c-69 -6 -59 -23 12 -23 47 0 60 3 60 15 0 8 -6 14 -12 13
-7 -1 -34 -3 -60 -5z"/>
<path d="M507 5893 c-14 -13 -6 -33 12 -33 24 0 35 26 15 34 -19 7 -19 7 -27
-1z"/>
<path d="M2740 5892 c0 -5 7 -16 16 -23 14 -12 16 -11 13 5 -4 20 -29 35 -29
18z"/>
<path d="M2650 5871 c0 -20 17 -37 27 -28 7 8 -7 47 -18 47 -5 0 -9 -9 -9 -19z"/>
<path d="M8707 5863 c-8 -12 3 -53 14 -53 15 0 17 15 5 39 -7 13 -16 19 -19
14z"/>
<path d="M8800 5861 c0 -6 5 -13 10 -16 6 -3 10 1 10 9 0 9 -4 16 -10 16 -5 0
-10 -4 -10 -9z"/>
<path d="M6380 5834 c-25 -14 -46 -29 -48 -34 -5 -15 46 -12 55 3 4 7 23 19
40 26 18 7 30 17 27 22 -8 14 -25 10 -74 -17z"/>
<path d="M6500 5853 c0 -7 60 -51 83 -61 19 -9 4 36 -15 46 -35 17 -68 24 -68
15z"/>
<path d="M12203 5814 c-3 -8 -1 -20 6 -27 14 -14 47 15 37 32 -10 16 -36 13
-43 -5z"/>
<path d="M8854 5283 c-16 -50 -27 -73 -40 -84 -12 -10 -14 -3 -14 40 0 50 -1
51 -30 51 -35 0 -37 -3 -10 -30 14 -14 20 -33 20 -66 0 -50 -14 -70 -51 -76
-29 -4 -32 -22 -4 -26 20 -3 85 51 85 70 0 5 16 25 35 44 21 20 35 43 35 58 0
31 -18 44 -26 19z"/>
<path d="M4053 5259 c-7 -7 -41 -10 -92 -8 -73 4 -100 -5 -41 -13 23 -3 25 -7
24 -48 -1 -66 -10 -93 -50 -145 -39 -52 -38 -72 2 -34 33 31 64 90 65 126 l1
28 10 -30 c6 -16 20 -40 31 -53 20 -22 20 -22 1 -37 -10 -8 -34 -19 -51 -25
-18 -7 -33 -16 -33 -21 0 -11 29 -5 74 17 38 18 45 18 100 -7 44 -19 66 -19
66 2 0 5 -7 9 -16 9 -9 0 -32 9 -50 21 l-33 20 35 50 c37 53 37 74 -2 65 -27
-7 -32 10 -14 44 10 18 4 50 -9 50 -4 0 -12 -5 -18 -11z m1 -46 c-8 -34 -2
-29 -46 -36 -37 -6 -38 -5 -38 27 0 32 1 33 45 34 45 2 45 2 39 -25z m36 -62
c0 -16 -35 -71 -45 -71 -14 0 -55 61 -49 72 7 11 94 10 94 -1z"/>
<path d="M2158 5228 c-8 -13 -23 -46 -32 -75 -10 -28 -26 -63 -37 -77 l-20
-26 28 0 c25 0 29 4 28 28 0 25 4 27 42 30 35 3 42 0 48 -19 5 -14 2 -25 -6
-30 -9 -6 2 -9 30 -9 43 0 44 1 27 19 -10 11 -30 54 -45 97 -15 43 -32 79 -38
81 -6 2 -17 -7 -25 -19z m34 -73 c4 -21 1 -25 -18 -25 -27 0 -27 0 -14 35 12
30 26 26 32 -10z"/>
<path d="M3535 5225 c-21 -20 -25 -34 -25 -83 0 -51 4 -63 27 -86 32 -32 49
-30 77 7 16 22 21 43 21 89 0 51 -4 63 -24 79 -31 25 -47 24 -76 -6z m69 -37
c13 -50 -3 -122 -28 -126 -10 -2 -22 2 -27 10 -13 20 -11 132 3 146 21 21 43
9 52 -30z"/>
<path d="M4448 5233 c6 -9 6 -24 2 -32 -5 -9 -16 -44 -26 -78 -14 -51 -15 -65
-4 -78 30 -37 95 -6 119 56 19 51 -10 90 -54 72 -15 -5 -17 -3 -10 13 4 10 10
29 12 42 5 18 1 22 -21 22 -22 0 -25 -3 -18 -17z m61 -97 c25 -29 -36 -101
-68 -81 -13 7 7 66 27 83 20 16 27 15 41 -2z"/>
<path d="M8996 5218 c-8 -18 -24 -49 -35 -68 -26 -45 -71 -141 -71 -152 0 -4
7 -8 15 -8 8 0 15 6 15 13 0 7 11 28 24 46 13 18 30 52 37 77 18 61 33 56 25
-8 -3 -29 -6 -179 -6 -332 l0 -279 -373 7 c-206 3 -376 3 -380 0 -3 -3 -3 -12
0 -20 4 -12 68 -14 380 -14 l374 0 -5 -672 c-11 -1251 -17 -1591 -26 -1632 -5
-23 -18 -59 -28 -81 -18 -38 -63 -182 -84 -270 -5 -21 -13 -44 -17 -50 -5 -5
-27 -86 -51 -180 -23 -93 -48 -181 -55 -195 -14 -28 -44 -134 -81 -285 -14
-55 -31 -113 -38 -130 -14 -32 -30 -82 -40 -127 -5 -21 -3 -28 9 -28 8 0 18
12 21 28 4 15 12 33 18 41 6 8 10 15 8 15 -2 1 -1 8 1 16 3 8 14 51 26 95 44
170 70 262 89 317 12 31 35 113 52 182 17 69 38 138 45 153 8 16 15 33 15 40
0 19 80 305 94 338 8 17 16 37 19 45 3 8 3 -360 0 -819 -5 -703 -4 -833 7
-829 15 5 15 -7 24 1168 5 602 5 605 28 675 13 39 29 79 34 90 6 11 21 52 34
90 30 91 62 177 71 190 4 6 23 57 43 114 20 56 54 141 76 187 22 46 40 88 40
93 0 8 34 89 70 166 10 22 35 76 55 120 21 44 46 92 56 107 11 14 19 31 19 37
0 6 21 48 46 93 26 46 63 112 82 148 19 36 59 99 89 141 29 42 53 82 53 87 0
6 8 16 18 21 10 5 24 22 32 38 39 77 279 333 313 333 7 0 22 9 34 19 56 53
170 84 303 85 179 0 293 -53 468 -218 88 -83 225 -245 248 -294 9 -19 24 -42
33 -51 9 -9 34 -48 56 -87 21 -38 50 -87 64 -109 24 -36 70 -127 202 -400 45
-94 109 -253 109 -272 0 -7 5 -13 12 -13 6 0 9 -3 5 -6 -3 -4 4 -27 17 -53 13
-25 38 -86 56 -136 18 -49 37 -95 42 -102 5 -7 16 -31 23 -55 7 -24 30 -88 50
-143 49 -136 58 -164 95 -285 17 -58 38 -121 46 -140 13 -32 80 -273 92 -330
2 -14 8 -30 13 -35 4 -6 28 -95 53 -198 26 -103 51 -196 56 -205 5 -9 30 -102
56 -207 25 -104 49 -194 54 -200 4 -5 13 -31 20 -57 12 -45 19 -55 32 -43 6 6
-36 169 -51 200 -5 11 -31 108 -57 215 -26 107 -51 200 -55 206 -5 6 -20 58
-33 115 -34 149 -67 272 -76 284 -4 6 -17 46 -28 90 -55 210 -64 240 -74 252
-6 7 -7 13 -3 13 4 0 3 6 -3 13 -5 6 -31 82 -57 167 -26 85 -51 160 -55 165
-4 6 -26 64 -49 130 -23 66 -50 138 -60 160 -34 72 -61 137 -61 147 0 5 -15
43 -34 86 -19 42 -51 118 -72 167 -21 50 -41 92 -46 93 -4 2 -6 8 -2 13 3 5 1
9 -4 9 -5 0 -15 15 -22 33 -7 17 -22 55 -35 82 -12 28 -25 60 -29 73 -4 12
-12 22 -17 22 -6 0 -7 5 -4 10 3 6 2 10 -3 10 -6 0 -12 10 -16 23 -3 12 -29
60 -57 107 -28 47 -65 110 -82 140 -34 64 -74 121 -166 239 -68 86 -186 211
-200 211 -5 0 -14 7 -21 16 -13 14 -109 90 -139 108 -8 5 -44 20 -80 32 l-66
24 360 -5 c198 -3 821 -5 1384 -6 670 0 1020 -4 1013 -11 -5 -5 -25 -15 -43
-21 -54 -19 -119 -60 -119 -74 0 -20 15 -16 67 16 27 16 81 44 121 62 40 18
71 38 69 44 -4 11 -112 67 -167 86 -19 6 -47 20 -62 31 -27 19 -28 19 -28 1 0
-19 53 -48 148 -83 17 -7 32 -17 32 -22 0 -12 -918 -9 -926 4 -7 11 -87 6 -96
-7 -4 -5 -15 -5 -30 2 -20 10 -1725 23 -3045 23 l-293 0 0 331 c0 181 3 328 8
325 9 -5 57 -100 73 -143 12 -36 39 -45 39 -14 0 11 -4 22 -9 25 -4 3 -23 40
-42 83 -18 43 -39 82 -46 86 -7 4 -13 17 -13 27 0 31 -28 23 -44 -12z m759
-747 l600 -2 -67 -22 c-92 -32 -165 -83 -284 -202 -94 -93 -244 -281 -244
-305 0 -5 -14 -24 -30 -42 -17 -17 -40 -50 -50 -72 -11 -23 -34 -63 -52 -91
-59 -92 -257 -484 -278 -550 -7 -22 -29 -76 -50 -120 -37 -78 -80 -185 -95
-235 -4 -14 -20 -52 -35 -85 -15 -33 -44 -109 -65 -170 -20 -60 -43 -123 -50
-140 -7 -16 -18 -47 -25 -67 -6 -21 -14 -38 -16 -38 -5 0 4 1401 11 1705 2 88
4 224 4 302 l1 143 63 -4 c34 -2 332 -4 662 -5z"/>
<path d="M4905 5213 c-59 -64 -10 -214 61 -186 39 15 70 123 42 151 -7 7 -8
12 -3 12 5 0 -2 11 -15 25 -30 32 -53 32 -85 -2z m66 -20 c13 -34 6 -120 -10
-136 -20 -19 -41 20 -41 76 0 79 30 114 51 60z"/>
<path d="M3260 5185 c0 -8 11 -17 25 -21 14 -3 25 -10 25 -14 0 -5 14 -11 30
-15 39 -8 31 -20 -31 -46 -27 -12 -49 -28 -49 -35 0 -10 13 -8 53 10 28 13 65
29 81 36 35 13 31 18 -57 64 -77 41 -77 41 -77 21z"/>
<path d="M3090 5182 c-21 -4 -70 -76 -70 -102 0 -34 29 -51 56 -34 18 13 23
12 34 -1 12 -14 15 -14 31 1 23 21 24 34 3 34 -14 0 -14 1 0 16 9 8 16 24 16
34 0 10 3 25 6 33 4 11 -4 16 -28 19 -18 2 -40 2 -48 0z m30 -40 c0 -35 -26
-72 -51 -72 -24 0 -24 10 2 60 25 47 49 53 49 12z"/>
<path d="M4630 5180 c0 -6 8 -14 18 -18 9 -4 37 -18 61 -31 l44 -23 -44 -18
c-24 -10 -52 -21 -62 -24 -18 -6 -19 -32 -1 -30 16 0 153 69 154 76 0 3 -16
12 -35 18 -19 6 -35 15 -35 19 0 8 -76 41 -93 41 -4 0 -7 -5 -7 -10z"/>
<path d="M2307 5067 c-5 -14 17 -39 27 -30 3 4 6 15 6 25 0 20 -25 25 -33 5z"/>
<path d="M4054 4489 c-4 -7 -37 -10 -88 -8 -46 2 -81 -1 -81 -6 0 -6 12 -9 28
-7 26 2 27 0 27 -44 0 -67 -18 -118 -57 -164 -24 -27 -30 -40 -20 -40 20 0 76
68 83 100 3 14 8 32 11 40 5 13 6 13 11 0 2 -8 14 -28 25 -44 l20 -29 -23 -19
c-13 -11 -37 -22 -52 -25 -16 -3 -31 -10 -34 -14 -10 -16 41 -9 81 11 49 25
51 25 101 -2 22 -12 48 -18 57 -15 28 10 19 24 -18 30 -19 3 -42 13 -51 21
-14 14 -13 19 5 45 12 16 21 34 21 40 0 6 5 11 10 11 6 0 10 9 10 20 0 17 -6
20 -27 18 -16 -2 -27 2 -26 7 1 6 4 27 8 48 7 36 -5 51 -21 26z m-4 -36 c0
-33 -19 -51 -52 -49 -33 2 -46 21 -35 49 7 18 87 19 87 0z m30 -80 c-1 -29
-34 -65 -52 -58 -22 9 -51 53 -43 65 3 6 26 10 51 10 35 0 44 -3 44 -17z"/>
<path d="M2083 4469 c14 -8 17 -24 17 -90 0 -67 -3 -81 -17 -87 -29 -11 50
-20 103 -12 25 4 50 13 55 21 12 19 11 59 -1 59 -6 0 -7 18 -4 44 8 59 -15 76
-106 76 -49 -1 -61 -3 -47 -11z m108 -19 c37 -21 11 -60 -40 -60 -17 0 -21 6
-21 35 0 29 4 35 21 35 11 0 29 -5 40 -10z m7 -96 c28 -20 28 -30 -3 -50 -37
-24 -65 -10 -65 32 0 29 3 34 23 34 12 0 33 -7 45 -16z"/>
<path d="M3544 4470 c-48 -19 -56 -141 -12 -187 48 -52 98 -6 98 89 0 49 -4
63 -25 83 -26 27 -30 28 -61 15z m44 -22 c12 -12 17 -114 6 -142 -10 -26 -43
-19 -55 12 -18 45 3 142 30 142 4 0 12 -5 19 -12z"/>
<path d="M4436 4471 c-4 -5 -2 -11 3 -13 6 -2 0 -39 -14 -87 -13 -46 -21 -89
-18 -96 6 -18 41 -25 68 -15 28 11 65 69 65 103 0 30 -29 51 -56 40 -14 -5
-16 -2 -11 13 20 67 21 64 -6 64 -14 0 -28 -4 -31 -9z m74 -124 c0 -34 -28
-67 -56 -67 -28 0 -30 10 -8 56 12 25 23 34 40 34 18 0 24 -5 24 -23z"/>
<path d="M4901 4451 c-44 -34 -37 -166 11 -192 69 -37 123 85 77 173 -22 43
-50 49 -88 19z m59 -20 c5 -11 10 -41 10 -66 0 -51 -14 -85 -34 -85 -17 0 -26
31 -26 88 0 45 14 82 30 82 5 0 14 -9 20 -19z"/>
<path d="M3251 4416 c-9 -11 -6 -15 15 -20 15 -4 33 -14 41 -21 8 -8 23 -15
35 -15 34 0 15 -21 -42 -45 -30 -13 -55 -28 -55 -34 0 -16 3 -15 77 18 37 17
73 31 79 31 26 0 -2 25 -68 61 -59 33 -72 37 -82 25z"/>
<path d="M3081 4408 c-32 -12 -74 -83 -67 -113 8 -33 32 -42 55 -21 22 20 31
20 31 1 0 -20 24 -19 41 2 11 13 11 17 2 20 -14 5 -18 33 -5 33 4 0 13 18 18
39 l11 39 -33 4 c-18 2 -42 1 -53 -4z m34 -19 c16 -25 -20 -89 -51 -89 -20 0
-17 23 7 64 22 37 33 44 44 25z"/>
<path d="M4692 4379 c-67 -37 -71 -42 -55 -55 10 -7 23 -14 29 -14 6 0 33 -11
60 -25 29 -14 52 -21 57 -16 6 6 -16 23 -54 42 -61 30 -63 33 -37 39 39 11 88
43 88 57 0 19 -8 17 -88 -28z"/>
<path d="M8806 4362 c-35 -24 -86 -97 -86 -123 0 -9 8 -21 38 -54 7 -8 31 -15
51 -15 94 0 159 135 95 195 -34 31 -50 31 -98 -3z m84 -17 c8 -9 9 -28 5 -57
-10 -55 -54 -101 -92 -96 -24 3 -29 8 -31 37 -5 48 4 74 34 104 30 30 65 35
84 12z"/>
<path d="M2294 4295 c-9 -23 14 -45 26 -25 5 8 8 19 7 24 -6 17 -27 18 -33 1z"/>
<path d="M13417 4273 c-12 -11 -8 -23 9 -23 12 0 14 -9 12 -37 -2 -30 -8 -39
-25 -41 -26 -4 -38 -31 -18 -38 9 -4 24 4 36 17 11 13 22 20 25 14 15 -34 21
-37 43 -24 11 8 21 22 21 33 0 15 -3 16 -15 6 -12 -10 -16 -9 -21 3 -10 27 0
52 24 55 14 2 22 10 22 23 0 27 -36 25 -44 -3 l-7 -23 -16 23 c-15 22 -34 28
-46 15z"/>
<path d="M4045 3720 c-3 -5 -44 -10 -91 -10 -49 0 -84 -4 -84 -10 0 -5 16 -10
36 -10 l37 0 -7 -62 c-7 -62 -29 -110 -69 -155 -11 -13 -17 -26 -13 -30 18
-18 95 100 97 149 0 19 3 17 16 -12 8 -19 22 -43 30 -52 20 -23 12 -33 -47
-54 -27 -10 -50 -22 -50 -26 0 -14 25 -9 78 18 l52 26 34 -21 c34 -22 81 -28
90 -12 7 10 -16 21 -44 21 -10 0 -25 7 -33 15 -8 8 -17 11 -21 8 -3 -4 -6 -1
-6 5 0 6 4 13 9 17 17 10 61 97 55 107 -3 5 -17 7 -30 4 -27 -7 -32 10 -14 44
16 30 -8 68 -25 40z m-4 -57 c-6 -23 -14 -29 -44 -31 -35 -3 -37 -2 -37 27 0
30 2 31 44 31 43 0 44 -1 37 -27z m39 -55 c0 -23 -40 -80 -53 -75 -6 2 -20 18
-31 36 -16 28 -17 34 -5 42 22 14 89 11 89 -3z"/>
<path d="M2113 3695 c-54 -38 -54 -138 1 -180 33 -25 96 -35 96 -15 0 6 6 10
14 10 8 0 17 7 20 16 12 31 6 35 -20 15 -32 -25 -61 -27 -92 -5 -29 20 -32
112 -4 137 33 30 90 17 105 -25 8 -24 19 0 13 29 -6 26 -10 28 -59 31 -34 2
-59 -2 -74 -13z"/>
<path d="M3527 3690 c-31 -25 -41 -73 -26 -139 8 -40 17 -55 35 -63 22 -10 29
-8 56 19 28 28 31 37 29 89 -1 75 -6 89 -37 102 -31 15 -27 16 -57 -8z m47
-16 c22 -9 23 -136 1 -154 -29 -24 -45 5 -45 80 0 80 5 89 44 74z"/>
<path d="M4437 3704 c-3 -3 -3 -12 -1 -19 3 -7 -4 -47 -15 -87 -12 -41 -21
-82 -21 -91 0 -23 22 -31 63 -23 26 5 36 14 54 53 27 58 19 87 -25 91 -29 3
-30 5 -22 28 15 38 12 54 -8 54 -10 0 -21 -3 -25 -6z m67 -113 c9 -14 -14 -71
-33 -81 -10 -5 -23 -5 -31 0 -11 7 -11 16 -1 49 9 33 16 41 36 41 13 0 26 -4
29 -9z"/>
<path d="M4915 3688 c-35 -19 -45 -40 -45 -98 0 -58 15 -91 51 -111 17 -9 25
-7 45 12 13 12 24 30 24 39 0 9 3 20 6 23 13 13 12 72 -2 99 -8 15 -23 32 -33
38 -23 12 -21 12 -46 -2z m45 -34 c18 -46 12 -112 -12 -136 -21 -21 -22 -21
-29 -2 -4 10 -8 43 -8 72 -1 81 28 121 49 66z"/>
<path d="M3047 3610 c-33 -34 -38 -44 -35 -77 2 -31 7 -39 26 -41 14 -2 29 4
37 15 13 17 14 17 20 1 9 -22 28 -23 44 -4 10 11 9 16 -3 23 -14 7 -14 12 -1
36 27 52 24 70 -15 78 -31 7 -38 3 -73 -31z m63 -13 c0 -20 -8 -42 -20 -55
-23 -24 -50 -29 -50 -9 0 16 52 97 62 97 5 0 8 -15 8 -33z"/>
<path d="M3350 3637 c-14 -6 -28 -16 -32 -22 -5 -6 -8 -6 -8 0 0 6 -3 6 -8 0
-4 -6 -19 -16 -34 -22 -16 -7 -28 -16 -28 -20 1 -7 151 -83 165 -83 13 0 3 31
-12 36 -49 16 -103 40 -103 45 0 5 33 23 93 51 15 7 27 16 27 20 0 11 -31 9
-60 -5z"/>
<path d="M4625 3641 c-5 -9 29 -32 99 -69 17 -8 14 -12 -29 -31 -26 -11 -54
-21 -61 -21 -8 0 -14 -9 -14 -21 0 -11 3 -19 8 -17 70 32 152 75 152 80 0 4
-17 17 -37 28 -21 11 -51 29 -68 40 -35 22 -42 23 -50 11z"/>
<path d="M2280 3510 c0 -13 7 -20 20 -20 13 0 20 7 20 20 0 13 -7 20 -20 20
-13 0 -20 -7 -20 -20z"/>
<path d="M13432 3178 c-20 -20 -14 -29 14 -22 51 13 48 -42 -5 -90 -31 -28
-26 -36 24 -36 32 0 47 5 52 15 8 22 -4 30 -22 15 -20 -17 -33 -4 -17 18 7 9
17 27 24 40 23 46 -34 96 -70 60z"/>
<path d="M12670 3117 c-58 -29 -81 -166 -39 -233 21 -35 52 -58 62 -47 4 3 -7
21 -23 40 -27 30 -30 40 -30 103 0 63 3 72 31 105 36 40 35 50 -1 32z"/>
<path d="M13177 3101 c3 -10 -5 -53 -16 -95 -26 -95 -26 -94 3 -107 36 -17 93
20 102 66 10 55 3 70 -35 70 -30 0 -32 2 -27 25 2 14 8 33 11 43 6 13 2 17
-18 17 -20 0 -24 -4 -20 -19z m65 -110 c-3 -31 -39 -81 -59 -81 -12 0 -13 8
-8 43 9 52 22 69 49 65 15 -2 20 -9 18 -27z"/>
<path d="M13290 3111 c0 -5 7 -14 15 -21 23 -19 45 -70 45 -105 0 -31 -24 -88
-56 -132 -14 -19 -14 -23 -2 -23 19 0 64 48 77 83 14 37 14 103 0 130 -24 46
-79 93 -79 68z"/>
<path d="M12984 3055 c-4 -8 -4 -24 -1 -35 4 -17 0 -20 -29 -20 -24 0 -34 -5
-34 -16 0 -11 8 -14 33 -12 31 3 32 2 29 -34 -3 -33 -1 -38 17 -38 22 0 30 33
11 45 -22 13 11 36 42 30 21 -5 28 -3 28 9 0 12 -10 16 -40 16 -41 0 -49 7
-29 27 13 13 5 43 -11 43 -6 0 -13 -7 -16 -15z"/>
<path d="M11968 3045 c-4 -4 2 -15 13 -26 13 -13 19 -33 19 -67 0 -51 -12 -72
-42 -72 -11 0 -18 -7 -18 -19 0 -33 16 -32 53 4 20 19 34 35 31 35 -3 0 7 11
23 24 31 26 60 96 49 115 -12 19 -29 12 -23 -10 5 -19 -30 -95 -40 -85 -2 2
-5 26 -6 53 -2 43 -4 48 -27 51 -14 2 -29 0 -32 -3z"/>
<path d="M12495 3038 c-53 -31 -83 -85 -65 -119 12 -21 50 -25 68 -7 10 10 15
10 21 -1 18 -28 38 -4 39 45 0 27 5 50 11 52 19 6 12 32 -8 32 -11 0 -25 2
-33 5 -7 2 -22 -1 -33 -7z m39 -16 c9 -15 -16 -78 -36 -91 -15 -9 -23 -9 -33
-1 -16 13 -7 35 29 78 21 23 32 27 40 14z"/>
<path d="M12730 3030 c0 -5 6 -10 14 -10 20 0 31 -57 16 -75 -7 -8 -21 -15
-31 -15 -11 0 -19 -7 -19 -15 0 -22 33 -18 48 6 l13 20 19 -23 c15 -18 22 -21
36 -12 26 16 31 38 6 30 -15 -5 -21 -1 -26 18 -8 33 1 54 27 58 11 2 22 9 25
16 6 18 -37 15 -44 -3 -4 -8 -12 -15 -20 -15 -8 0 -14 7 -14 15 0 9 -9 15 -25
15 -14 0 -25 -4 -25 -10z"/>
<path d="M12180 3020 c0 -5 29 -11 65 -11 36 -1 70 -2 77 -3 6 -1 13 5 16 12
3 9 -17 12 -77 12 -47 0 -81 -4 -81 -10z"/>
<path d="M12184 2971 c-2 -2 -4 -10 -4 -18 0 -10 20 -13 81 -13 71 0 80 2 77
17 -3 15 -15 17 -76 18 -41 0 -75 -2 -78 -4z"/>
<path d="M2064 2929 c-2 -4 3 -9 11 -13 22 -8 22 -161 0 -170 -8 -3 -15 -10
-15 -16 0 -13 117 -13 125 0 3 5 11 7 18 5 7 -3 21 8 32 25 11 16 23 30 28 30
18 0 6 76 -17 105 -22 27 -30 30 -101 35 -42 3 -79 2 -81 -1z m146 -46 c42
-53 5 -133 -61 -133 l-29 0 0 80 0 80 34 0 c26 0 40 -7 56 -27z"/>
<path d="M3860 2930 c0 -5 16 -10 36 -10 l37 0 -5 -70 c-5 -65 -9 -74 -48
-121 -51 -61 -45 -78 9 -25 26 26 43 54 51 85 l12 46 14 -35 c8 -19 22 -38 30
-43 7 -4 14 -11 14 -16 0 -9 -86 -51 -105 -51 -8 0 -15 -4 -15 -10 0 -17 34
-11 87 15 l51 26 34 -21 c33 -20 88 -27 88 -11 0 5 -15 12 -33 15 -19 3 -42
12 -52 20 -18 13 -17 16 13 65 39 63 40 71 3 71 -29 0 -29 1 -20 32 5 18 9 36
9 39 0 4 -47 7 -105 8 -66 1 -105 -2 -105 -9z m180 -24 c0 -35 -13 -46 -51
-46 -37 0 -39 2 -39 30 0 29 2 30 45 30 32 0 45 -4 45 -14z m21 -108 c-11 -18
-27 -33 -36 -33 -9 0 -25 15 -36 33 l-21 32 57 0 57 0 -21 -32z"/>
<path d="M3514 2909 c-15 -16 -19 -36 -19 -89 0 -105 46 -142 99 -79 20 24 26
41 26 80 0 50 -13 87 -34 101 -21 14 -53 8 -72 -13z m64 -26 c18 -39 15 -104
-6 -131 -17 -22 -19 -22 -32 -7 -7 9 -15 40 -18 69 -7 83 29 127 56 69z"/>
<path d="M4429 2916 c9 -10 5 -33 -15 -96 -14 -45 -23 -88 -20 -96 3 -8 20
-14 41 -14 61 0 113 81 83 130 -10 16 -20 20 -40 16 -28 -6 -35 2 -19 20 5 5
12 19 16 32 6 20 3 22 -26 22 -26 0 -29 -3 -20 -14z m71 -110 c0 -43 -57 -95
-74 -67 -8 12 12 73 26 83 26 16 48 9 48 -16z"/>
<path d="M4880 2900 c-6 -11 -14 -42 -17 -68 -15 -127 104 -181 123 -57 7 53
0 110 -17 131 -18 22 -76 18 -89 -6z m74 -22 c13 -52 1 -148 -21 -155 -27 -9
-59 116 -33 132 6 3 10 15 10 26 0 27 36 25 44 -3z"/>
<path d="M3308 2842 c-43 -20 -78 -39 -77 -42 0 -5 112 -60 152 -75 11 -5 17
-2 17 7 0 13 -48 40 -105 58 -16 5 -9 12 40 36 32 16 61 35 63 42 5 18 -4 15
-90 -26z"/>
<path d="M3042 2837 c-36 -38 -50 -81 -32 -102 17 -20 50 -19 66 3 13 16 13
16 14 0 0 -22 23 -23 41 -2 10 13 10 17 0 24 -11 6 -10 14 2 41 27 57 25 60
-19 65 -35 3 -44 -1 -72 -29z m68 -12 c0 -27 -36 -75 -56 -75 -20 0 -17 29 8
65 25 37 48 41 48 10z"/>
<path d="M4676 2830 l-69 -38 49 -25 c27 -14 53 -24 57 -23 5 0 13 -7 18 -16
12 -22 39 -24 39 -3 0 15 -68 55 -95 55 -30 0 -14 15 38 36 28 12 53 29 55 38
5 24 -16 19 -92 -24z"/>
<path d="M2292 2743 c5 -26 38 -29 38 -4 0 15 -6 21 -21 21 -14 0 -19 -5 -17
-17z"/>
</g>
</svg>
