<?xml version="1.0" standalone="no"?>
<!DOCTYPE svg PUBLIC "-//W3C//DTD SVG 20010904//EN"
 "http://www.w3.org/TR/2001/REC-SVG-20010904/DTD/svg10.dtd">
<svg version="1.0" xmlns="http://www.w3.org/2000/svg"
 width="1388.000000pt" height="602.000000pt" viewBox="0 0 1388.000000 602.000000"
 preserveAspectRatio="xMidYMid meet">
<metadata>
Created by potrace 1.16, written by Peter Selinger 2001-2019
</metadata>
<g transform="translate(0.000000,602.000000) scale(0.100000,-0.100000)"
fill="#000000" stroke="none">
<path d="M1625 5644 l6 -37 -58 5 -59 6 -1 -69 c0 -66 8 -92 22 -69 3 5 24 10
46 10 l39 0 0 -56 c0 -40 3 -54 13 -51 7 2 12 23 12 56 l-1 53 56 -4 55 -3 0
47 c0 25 3 50 8 54 4 4 7 13 7 20 0 9 -16 11 -60 7 -56 -5 -60 -4 -60 15 0 11
5 24 10 27 15 9 2 25 -22 25 -18 0 -19 -4 -13 -36z m-5 -100 c0 -38 -3 -45
-16 -40 -9 3 -24 6 -35 6 -16 0 -19 7 -19 40 0 39 1 40 35 40 35 0 35 0 35
-46z m110 6 c0 -40 0 -40 -38 -40 -48 0 -54 5 -39 37 9 19 8 26 -4 34 -9 6 1
9 34 9 l47 0 0 -40z"/>
<path d="M1178 5530 c-2 -74 -1 -139 0 -143 2 -4 10 -3 17 3 8 7 56 10 127 9
l113 -2 5 132 c3 72 3 131 0 131 -3 1 -62 2 -132 3 l-127 2 -3 -135z m72 85
c0 -29 4 -35 21 -35 11 0 18 -4 15 -8 -2 -4 -23 -6 -45 -4 -39 4 -41 6 -41 36
0 37 6 46 32 46 14 0 18 -8 18 -35z m160 -81 c0 -88 -3 -115 -12 -111 -13 4
-17 76 -8 127 5 23 3 24 -40 23 -32 0 -35 1 -12 4 28 4 32 8 32 34 0 29 -13
39 -25 19 -10 -16 -72 -12 -79 5 -4 13 7 15 69 15 l75 0 0 -116z m-65 66 c-3
-5 -22 -10 -41 -10 -19 0 -34 5 -34 10 0 6 18 10 41 10 24 0 38 -4 34 -10z
m-111 -108 c1 -51 -2 -62 -15 -62 -12 0 -16 12 -18 56 -1 30 1 60 5 65 14 24
26 -1 28 -59z m131 58 c-3 -5 -30 -9 -58 -8 l-52 1 45 7 c69 11 72 11 65 0z
m5 -44 c0 -31 -9 -56 -21 -56 -5 0 -6 14 -2 30 5 29 5 30 -36 30 -37 0 -41 -2
-41 -24 0 -20 6 -26 33 -29 26 -4 24 -4 -8 -3 -38 1 -40 2 -43 37 l-3 36 60 2
c59 2 61 1 61 -23z m-50 -26 c0 -5 -6 -10 -14 -10 -8 0 -18 5 -21 10 -3 6 3
10 14 10 12 0 21 -4 21 -10z m23 -52 c-23 -8 -43 -8 -65 0 -30 9 -27 10 32 10
59 0 62 -1 33 -10z"/>
<path d="M1886 5658 c-14 -46 -16 -49 -36 -43 -19 6 -20 2 -20 -99 0 -97 9
-130 24 -91 6 17 51 20 61 5 14 -22 25 4 25 59 0 52 2 59 22 64 12 4 19 9 15
13 -11 11 25 30 62 32 l34 3 -6 -87 c-5 -85 -19 -116 -41 -94 -15 15 -36 12
-36 -4 0 -15 56 -30 72 -20 20 13 36 71 39 144 l4 75 -48 -3 c-42 -3 -47 -1
-47 17 0 12 5 21 11 21 5 0 7 5 4 10 -10 17 -35 11 -35 -7 0 -10 -12 -36 -26
-58 -25 -40 -25 -40 -22 -10 3 26 0 30 -19 28 -24 -3 -32 20 -13 32 6 3 10 10
10 16 0 14 -30 11 -34 -3z m32 -85 c-2 -23 -8 -29 -35 -31 -31 -3 -33 -1 -33
27 0 29 3 31 36 31 33 0 35 -2 32 -27z m-24 -53 c19 -7 26 -17 26 -35 0 -22
-4 -25 -35 -25 -32 0 -35 3 -35 28 0 25 7 42 16 42 1 0 14 -4 28 -10z"/>
<path d="M2170 5543 c0 -67 -2 -127 -5 -135 -4 -10 20 -13 126 -11 73 1 133 4
135 5 1 2 4 61 5 131 l2 129 -131 1 -132 2 0 -122z m70 73 c0 -28 4 -36 23
-39 12 -3 2 -4 -22 -3 -47 1 -55 12 -40 54 13 36 39 28 39 -12z m95 19 c0 -5
-16 -11 -36 -13 -26 -2 -38 1 -43 13 -5 14 1 16 37 13 23 -2 42 -7 42 -13z
m63 -104 c2 -88 0 -112 -10 -109 -16 6 -19 116 -5 136 10 13 8 14 -43 14 -31
-1 -32 0 -10 6 19 6 26 16 28 40 3 25 8 32 20 30 15 -3 17 -20 20 -117z m-63
69 c-3 -5 -22 -10 -41 -10 -19 0 -34 5 -34 10 0 6 18 10 41 10 24 0 38 -4 34
-10z m15 -50 c0 -6 -23 -9 -52 -8 l-53 1 45 7 c25 4 48 8 53 8 4 1 7 -2 7 -8z
m-126 -59 c-2 -77 -17 -102 -24 -41 -6 58 -1 100 14 100 7 0 11 -21 10 -59z
m124 -3 c2 -22 -1 -38 -7 -38 -6 0 -8 12 -4 30 5 29 5 30 -36 30 -30 0 -41 -4
-41 -15 0 -8 -1 -18 -2 -22 -2 -5 13 -11 32 -14 l35 -6 -42 -2 -43 -1 0 41 0
40 53 -3 52 -3 3 -37z m-28 2 c0 -5 -12 -10 -26 -10 -14 0 -23 4 -19 10 3 6
15 10 26 10 10 0 19 -4 19 -10z m30 -61 c0 -7 -11 -9 -31 -5 -17 3 -39 1 -49
-4 -13 -7 -19 -6 -24 5 -4 12 5 15 49 15 34 0 55 -4 55 -11z"/>
<path d="M2540 5644 c-6 -14 -10 -28 -10 -31 0 -3 -11 -21 -25 -39 -14 -18
-25 -40 -25 -50 0 -16 1 -16 20 1 22 20 40 14 22 -8 -9 -10 -8 -17 1 -26 9
-11 9 -14 0 -18 -26 -10 -10 -93 18 -93 3 0 6 49 6 108 0 81 4 117 17 142 20
40 20 40 1 40 -9 0 -20 -12 -25 -26z"/>
<path d="M2604 5633 c-15 -21 -32 -41 -37 -44 -5 -4 -4 -9 2 -13 6 -4 11 -16
11 -28 0 -17 4 -19 25 -14 39 10 30 -13 -12 -31 -21 -9 -33 -18 -26 -20 6 -2
25 3 42 11 35 19 45 20 35 5 -3 -6 -25 -19 -48 -30 l-41 -19 40 6 c22 3 46 11
53 16 7 6 16 8 19 4 10 -10 -15 -24 -64 -38 -24 -7 -43 -18 -43 -25 0 -18 9
-16 58 7 50 24 70 26 52 6 -6 -8 -18 -12 -26 -9 -22 8 -17 -15 6 -27 27 -15
40 -5 40 31 0 32 11 37 30 14 14 -17 60 -21 60 -5 0 6 -8 10 -17 10 -10 0 -27
7 -38 16 -17 13 -18 16 -5 24 8 5 23 10 33 10 18 0 22 11 10 24 -5 4 -8 26 -8
49 0 42 0 42 -35 39 -28 -3 -33 -1 -22 9 20 21 14 39 -12 39 -14 0 -28 5 -31
10 -11 17 -22 11 -51 -27z m71 -23 c-3 -5 -23 -10 -43 -10 -28 0 -33 3 -22 10
20 13 73 13 65 0z m-17 -42 c-7 -20 -58 -23 -58 -4 0 11 10 16 31 16 20 0 29
-4 27 -12z m72 -3 c0 -16 -45 -21 -54 -6 -8 12 4 21 31 21 14 0 23 -6 23 -15z
m0 -38 c0 -8 -9 -22 -19 -31 -19 -17 -20 -17 -30 3 -17 32 -13 41 19 41 18 0
30 -5 30 -13z"/>
<path d="M2890 5660 c-54 -5 -55 -6 -58 -38 -2 -21 3 -41 13 -52 15 -17 15
-19 -1 -28 -16 -9 -16 -12 -4 -27 12 -15 11 -19 -8 -34 -30 -22 -20 -30 29
-24 33 5 39 3 39 -13 0 -11 5 -26 11 -34 8 -11 9 -7 5 18 -4 26 -2 32 12 33
26 2 47 -2 50 -9 1 -4 23 -5 48 -3 34 2 45 0 39 -9 -8 -14 34 -62 47 -54 5 3
3 13 -4 21 -9 11 -12 43 -9 110 l3 93 -25 0 c-14 0 -28 4 -31 9 -7 10 17 21
45 21 10 0 19 6 19 13 0 13 -113 17 -220 7z m40 -25 c0 -10 -10 -15 -30 -15
-20 0 -30 5 -30 15 0 10 10 15 30 15 20 0 30 -5 30 -15z m90 -6 c0 -12 -7 -19
-20 -19 -18 0 -20 -7 -20 -64 0 -61 -1 -64 -24 -62 l-25 1 21 22 c19 20 19 23
5 29 -14 5 -16 14 -11 48 8 51 16 61 48 62 19 2 26 -3 26 -17z m-90 -29 c0 -5
-13 -10 -30 -10 -16 0 -30 5 -30 10 0 6 14 10 30 10 17 0 30 -4 30 -10z m148
-22 c-3 -7 -21 -14 -41 -16 -28 -2 -37 1 -37 12 0 12 11 16 41 16 28 0 39 -4
37 -12z m-148 -2 c0 -17 -15 -36 -29 -36 -9 0 -22 -5 -29 -12 -9 -9 -12 -9
-12 -1 0 7 5 15 11 18 6 4 8 13 5 21 -4 10 3 14 24 14 17 0 30 -2 30 -4z m139
-39 c15 -19 4 -27 -36 -27 -26 0 -33 4 -33 20 0 15 7 20 29 20 16 0 34 -6 40
-13z m-154 -38 c10 -15 -1 -23 -20 -15 -9 3 -13 10 -10 16 8 13 22 13 30 -1z
m163 -16 c2 -9 -9 -13 -37 -13 -36 0 -50 8 -37 21 10 10 70 3 74 -8z"/>
<path d="M4067 5642 c-3 -17 -9 -42 -13 -57 -6 -26 -6 -27 25 -20 29 6 31 5
31 -23 0 -37 -9 -62 -22 -62 -6 0 -8 16 -6 35 3 28 1 35 -11 33 -10 -2 -17
-16 -19 -36 -3 -26 -7 -32 -28 -32 -15 0 -24 6 -24 15 0 8 7 15 15 15 8 0 15
7 15 15 0 9 -9 15 -21 15 -27 0 -19 24 9 28 30 5 28 22 -3 22 -16 0 -25 6 -25
15 0 8 9 15 19 15 23 0 37 18 25 30 -5 5 -22 6 -38 3 l-28 -6 4 -83 c4 -76 3
-84 -14 -84 -10 0 -18 -4 -18 -10 0 -6 57 -10 150 -10 93 0 150 4 150 10 0 6
-7 10 -16 10 -15 0 -16 10 -10 85 l6 85 -32 -4 c-39 -4 -51 -26 -14 -26 26 0
32 -7 18 -25 -10 -15 -104 -13 -109 3 -3 7 5 12 21 12 16 0 26 6 26 15 0 18
-26 20 -34 3 -3 -7 -4 -2 -3 11 3 35 -19 37 -26 3z m123 -91 c0 -23 -16 -36
-25 -21 -4 6 -11 8 -16 4 -14 -8 0 -24 22 -24 10 0 19 -7 19 -15 0 -11 -11
-15 -36 -15 -33 0 -36 2 -30 23 3 12 6 32 6 45 0 18 6 22 30 22 23 0 30 -5 30
-19z"/>
<path d="M3277 5653 c-64 -3 -87 -7 -84 -16 2 -8 35 -13 97 -15 108 -3 128 1
110 23 -7 8 -18 14 -24 13 -6 -1 -51 -4 -99 -5z"/>
<path d="M5660 5630 c0 -30 -1 -30 -55 -30 -30 0 -55 -4 -55 -10 0 -6 41 -10
103 -10 l102 -1 -64 -59 c-64 -60 -91 -73 -91 -45 0 27 -25 15 -42 -21 -22
-43 -23 -64 -3 -64 8 0 15 9 15 19 0 33 17 33 49 1 30 -30 32 -31 118 -28 51
2 88 7 87 13 -1 6 -28 9 -68 7 -46 -3 -72 0 -83 10 -9 7 -19 12 -22 11 -3 0
-12 2 -19 6 -10 6 -3 16 27 38 58 43 143 124 137 131 -4 3 -31 4 -62 3 l-56
-2 7 30 c5 24 3 31 -9 31 -11 0 -16 -9 -16 -30z"/>
<path d="M5882 5515 c-3 -126 -1 -145 12 -145 13 0 16 15 16 91 l0 91 43 -4
42 -3 3 53 3 52 -45 0 c-24 0 -50 2 -58 5 -10 4 -14 -24 -16 -140z m84 98 c-1
-9 -38 -12 -51 -5 -5 4 1 9 15 13 26 7 38 4 36 -8z m14 -33 c0 -5 -16 -10 -35
-10 -19 0 -35 5 -35 10 0 6 16 10 35 10 19 0 35 -4 35 -10z"/>
<path d="M6268 5633 c-9 -18 -21 -27 -33 -26 -19 2 -20 -5 -20 -108 0 -60 3
-109 7 -109 4 0 12 9 18 20 13 24 58 27 66 5 13 -33 22 -12 19 41 -3 53 -1 57
34 90 29 27 44 34 79 34 35 0 42 -3 42 -19 0 -11 -4 -23 -10 -26 -5 -3 -10
-25 -10 -48 0 -61 -10 -87 -31 -87 -11 0 -19 5 -19 10 0 6 -7 10 -15 10 -26 0
-16 -25 15 -37 52 -20 69 5 83 120 l13 97 -54 0 c-39 0 -53 3 -49 13 20 49 20
49 1 45 -11 -2 -22 -17 -28 -38 -17 -57 -64 -99 -50 -45 5 22 3 25 -20 25 -25
0 -26 1 -11 23 14 22 12 37 -6 37 -4 0 -14 -12 -21 -27z m37 -79 c1 -21 -4
-24 -32 -24 -28 0 -33 3 -33 24 0 19 6 25 28 28 34 4 37 2 37 -28z m-5 -84 c0
-27 -3 -30 -30 -30 -27 0 -30 3 -30 30 0 27 3 30 30 30 27 0 30 -3 30 -30z"/>
<path d="M6587 5628 l-28 -32 22 -16 c18 -14 19 -20 10 -37 -6 -11 -18 -23
-26 -27 -25 -9 -8 -24 21 -18 l27 5 -7 -67 c-6 -49 -4 -66 5 -66 22 0 79 41
96 71 18 30 39 40 29 13 -3 -9 -6 -24 -6 -35 0 -10 -7 -19 -15 -19 -20 0 -19
-16 1 -24 29 -11 33 -6 36 45 l3 52 25 -39 c16 -26 34 -40 50 -42 25 -3 24 -2
-7 28 -39 35 -41 47 -11 52 28 4 36 28 9 28 -11 0 -23 -4 -26 -10 -9 -15 -22
-12 -29 6 -9 23 3 37 20 23 16 -13 19 -7 28 59 l6 42 -34 0 c-29 0 -33 3 -29
20 4 14 0 20 -11 20 -9 0 -16 -8 -16 -20 0 -15 -7 -20 -25 -20 -23 0 -25 -3
-25 -49 0 -48 12 -72 25 -51 5 8 11 7 21 -1 24 -20 16 -29 -26 -29 -22 0 -40
-4 -40 -10 0 -5 9 -10 20 -10 23 0 26 -10 8 -28 -17 -17 -28 -15 -28 7 0 11
-4 23 -10 26 -14 9 -13 -28 2 -43 8 -8 8 -15 -2 -27 -23 -28 -31 -16 -28 43 3
48 6 57 21 54 19 -3 25 32 7 43 -5 3 -10 1 -10 -4 0 -6 -10 -11 -22 -11 -21 0
-20 2 10 33 33 34 34 61 1 31 -12 -11 -19 -12 -24 -4 -4 6 2 20 14 31 12 11
19 24 16 30 -10 14 -18 10 -48 -23z m193 -38 c0 -5 -16 -10 -35 -10 -19 0 -35
5 -35 10 0 6 16 10 35 10 19 0 35 -4 35 -10z m0 -36 c0 -9 -12 -14 -35 -14
-23 0 -35 5 -35 14 0 9 12 14 35 14 23 0 35 -5 35 -14z"/>
<path d="M6939 5658 c0 -2 -3 -67 -5 -145 -3 -89 -1 -143 5 -147 14 -9 21 45
18 142 -1 45 1 82 6 82 4 0 7 -7 7 -15 0 -8 5 -15 10 -15 19 0 10 32 -11 37
-12 3 -18 11 -15 19 3 8 9 21 12 29 4 10 0 15 -10 15 -9 0 -16 -1 -17 -2z"/>
<path d="M7070 5616 c0 -36 -4 -46 -16 -46 -12 0 -15 6 -10 25 5 20 3 25 -11
25 -13 0 -23 -16 -36 -56 -22 -66 -18 -77 13 -35 12 17 30 31 41 31 29 0 23
-65 -6 -66 -57 -3 -60 -4 -45 -13 8 -6 27 -7 43 -4 28 6 28 5 25 -38 l-3 -44
-41 3 c-23 2 -45 -1 -49 -7 -4 -8 27 -11 102 -11 101 0 106 1 90 17 -13 13
-19 15 -29 5 -7 -7 -20 -12 -30 -12 -15 0 -18 8 -18 45 0 45 0 45 36 45 24 0
34 4 31 13 -4 13 -21 14 -49 2 -15 -6 -18 -1 -18 29 0 35 1 36 41 36 28 0 39
4 36 13 -4 13 -16 13 -55 1 -23 -6 -23 -5 -20 36 2 28 -1 44 -9 47 -9 3 -13
-9 -13 -41z"/>
<path d="M7610 5620 c-6 -22 -24 -56 -41 -74 -16 -19 -26 -37 -20 -40 5 -3 14
1 21 9 24 28 30 15 30 -65 0 -47 4 -80 10 -80 6 0 10 43 10 108 0 75 5 115 15
136 19 36 19 46 0 46 -8 0 -19 -17 -25 -40z"/>
<path d="M8433 5641 c-4 -17 -13 -21 -44 -21 -22 0 -39 -4 -39 -10 0 -5 18
-10 40 -10 29 0 40 -4 40 -15 0 -8 7 -15 16 -15 9 0 14 -6 11 -12 -2 -8 -24
-13 -58 -14 -54 -1 -65 -10 -33 -29 12 -7 18 -6 21 3 7 18 43 15 43 -5 0 -9
-18 -33 -40 -53 -22 -20 -40 -43 -40 -50 0 -8 16 1 35 20 l35 34 0 -45 0 -44
90 0 90 0 0 43 c0 23 -1 45 -2 50 -2 4 -30 8 -63 8 -84 2 -85 2 -85 18 0 19
26 40 35 26 9 -14 71 -13 96 3 17 10 23 9 26 -1 6 -15 23 -6 23 13 0 11 -16
12 -76 8 -75 -6 -76 -6 -69 15 5 16 2 22 -9 22 -9 0 -16 5 -16 10 0 6 14 10
30 10 20 0 30 -5 30 -15 0 -8 5 -15 10 -15 6 0 10 7 10 15 0 11 12 15 45 15
46 0 52 4 35 30 -6 10 -10 11 -10 3 0 -21 -44 -15 -58 7 -17 27 -32 25 -32 -5
0 -21 -5 -25 -30 -25 -23 0 -30 5 -30 19 0 28 -20 37 -27 12z m145 -208 c-3
-27 -6 -28 -64 -31 -59 -3 -62 -2 -66 22 -3 14 -3 28 0 31 3 3 34 5 69 5 64 0
64 0 61 -27z"/>
<path d="M9840 5654 c0 -3 4 -14 10 -24 13 -25 4 -47 -23 -54 -16 -4 -19 -8
-11 -16 9 -9 17 -8 33 2 18 11 23 11 31 -2 8 -13 11 -13 22 -1 10 11 10 14 1
18 -18 6 -16 43 1 43 17 0 29 27 15 36 -5 3 -17 0 -25 -7 -11 -9 -18 -9 -26
-1 -13 13 -28 16 -28 6z"/>
<path d="M310 5625 c-23 -24 -21 -50 2 -27 7 7 22 12 35 12 30 0 33 -46 3 -55
-26 -8 -25 -18 2 -30 26 -11 35 -42 19 -58 -6 -6 -27 -10 -47 -9 -26 2 -35 -1
-32 -10 9 -26 73 -22 102 8 20 19 21 64 2 89 -10 14 -11 23 -3 36 8 13 8 25
-1 43 -15 34 -51 34 -82 1z"/>
<path d="M468 5636 c-10 -7 -18 -24 -18 -36 0 -22 1 -22 18 -7 23 21 58 22 66
2 8 -23 -13 -65 -58 -112 -22 -24 -38 -44 -35 -46 2 -2 34 -2 72 1 57 4 67 7
67 23 0 16 -4 17 -26 9 -14 -6 -36 -10 -50 -10 -23 0 -21 3 21 43 37 36 45 50
45 80 0 56 -59 86 -102 53z"/>
<path d="M4510 5640 c-12 -7 -12 -12 -2 -22 16 -16 16 -160 0 -176 -9 -9 -3
-12 28 -11 21 0 33 3 27 6 -9 3 -13 35 -13 109 0 107 -4 117 -40 94z"/>
<path d="M6040 5598 l0 -54 40 4 40 4 0 -76 c0 -72 -1 -76 -22 -76 l-22 0 23
-16 c41 -29 50 -5 52 136 l1 125 -56 3 -56 3 0 -53z m80 14 c0 -5 -13 -7 -30
-4 -16 2 -30 6 -30 8 0 2 14 4 30 4 17 0 30 -4 30 -8z m0 -32 c0 -5 -13 -10
-30 -10 -16 0 -30 5 -30 10 0 6 14 10 30 10 17 0 30 -4 30 -10z"/>
<path d="M7227 5643 c-10 -9 -9 -273 1 -273 21 1 27 23 27 105 l0 90 30 3 30
4 -20 -22 c-16 -17 -17 -24 -7 -41 11 -17 9 -19 -10 -19 -22 -1 -22 -1 -5 -15
13 -9 17 -20 12 -35 -6 -19 -4 -21 14 -15 15 4 21 2 21 -9 0 -8 -9 -18 -20
-21 -11 -3 -20 -11 -20 -16 0 -18 22 -8 51 22 21 22 29 41 29 66 0 31 -3 35
-21 30 -20 -5 -20 -5 -2 15 12 14 14 22 6 25 -8 3 -10 21 -6 59 l6 54 -55 0
c-30 0 -58 -3 -61 -7z m81 -30 c-10 -2 -26 -2 -35 0 -10 3 -2 5 17 5 19 0 27
-2 18 -5z m12 -23 c0 -5 -13 -10 -30 -10 -16 0 -30 5 -30 10 0 6 14 10 30 10
17 0 30 -4 30 -10z m0 -65 c0 -8 -4 -15 -10 -15 -5 0 -7 7 -4 15 4 8 8 15 10
15 2 0 4 -7 4 -15z m10 -65 c0 -11 -4 -20 -10 -20 -5 0 -10 9 -10 20 0 11 5
20 10 20 6 0 10 -9 10 -20z"/>
<path d="M7382 5595 c3 -34 1 -56 -6 -58 -7 -3 -3 -13 8 -26 15 -17 16 -21 4
-21 -11 0 -14 -13 -14 -57 1 -35 5 -56 11 -53 6 3 10 14 10 24 0 29 23 31 30
3 7 -25 43 -43 57 -29 3 4 8 67 11 140 l5 132 -60 0 -60 0 4 -55z m66 18 c-10
-2 -26 -2 -35 0 -10 3 -2 5 17 5 19 0 27 -2 18 -5z m22 -23 c0 -5 -16 -10 -35
-10 -19 0 -35 5 -35 10 0 6 16 10 35 10 19 0 35 -4 35 -10z m2 -67 c4 -62 -4
-119 -17 -113 -5 3 -9 25 -8 49 2 37 0 42 -15 36 -14 -5 -15 -4 -4 6 6 7 12
20 12 28 0 11 -4 10 -20 -4 -17 -16 -20 -16 -20 -2 0 9 5 19 10 22 6 4 8 11 5
16 -4 5 7 9 23 9 29 0 30 -2 34 -47z m-44 -63 c-15 -23 -28 -26 -28 -7 0 17
10 27 27 27 11 0 11 -4 1 -20z"/>
<path d="M7735 5643 c-16 -3 -34 -9 -39 -14 -6 -5 -18 -9 -28 -9 -10 0 -18 -4
-18 -10 0 -5 13 -7 31 -3 25 5 31 3 27 -8 -2 -8 -15 -15 -27 -17 -18 -3 -20
-6 -10 -18 6 -8 18 -14 26 -14 24 0 9 -24 -25 -40 -46 -22 -39 -33 14 -25 l47
7 -5 -61 c-3 -46 -1 -61 9 -61 9 0 13 17 13 61 l0 62 45 -5 c48 -6 55 3 31 35
-16 20 -48 23 -40 3 4 -9 -5 -15 -28 -19 -45 -6 -49 1 -14 27 72 53 73 54 53
62 -14 5 -25 -1 -42 -22 -19 -23 -26 -26 -36 -17 -22 22 26 63 73 63 27 0 38
4 38 15 0 15 -27 17 -95 8z"/>
<path d="M10570 5543 c0 -101 4 -115 28 -91 24 24 11 -5 -19 -44 -17 -21 -29
-41 -26 -44 10 -10 77 48 77 66 0 21 34 32 49 17 6 -6 13 -9 15 -6 2 2 6 48 8
102 l3 99 -68 1 -67 2 0 -102z m110 52 c0 -11 -11 -15 -39 -15 -38 0 -57 10
-44 24 3 3 24 6 45 6 27 0 38 -4 38 -15z m-2 -47 c2 -11 -6 -17 -26 -20 -39
-6 -52 0 -52 22 0 16 7 18 37 16 25 -1 39 -7 41 -18z m0 -61 c3 -14 -4 -17
-37 -17 -34 0 -41 3 -41 20 0 17 6 20 37 17 26 -2 39 -8 41 -20z"/>
<path d="M10809 5648 c-1 -2 -3 -59 -4 -128 l-4 -125 -25 3 c-34 4 -33 -11 1
-27 44 -20 51 -2 55 147 2 101 0 132 -9 132 -7 0 -14 -1 -14 -2z"/>
<path d="M10740 5618 c-1 -2 -3 -43 -6 -91 -5 -83 -5 -89 13 -85 13 2 18 13
19 38 1 19 3 57 5 85 3 41 0 50 -14 53 -9 2 -17 2 -17 0z"/>
<path d="M6893 5563 c-14 -30 -11 -38 12 -30 15 6 22 57 8 57 -5 0 -14 -12
-20 -27z"/>
<path d="M3154 5565 c2 -6 29 -9 64 -7 l61 3 3 -87 c2 -59 7 -89 16 -92 9 -3
12 18 12 82 l0 85 62 3 c34 2 63 8 65 13 2 6 -50 10 -142 10 -92 0 -144 -4
-141 -10z"/>
<path d="M4610 5551 c-46 -45 -38 -96 20 -124 16 -9 30 -11 30 -6 0 5 8 9 19
9 34 0 47 86 19 122 -25 32 -56 32 -88 -1z m58 -3 c18 -18 15 -95 -3 -102 -22
-8 -45 21 -45 58 0 29 14 56 30 56 3 0 11 -5 18 -12z"/>
<path d="M4769 5562 c-40 -28 -16 -92 34 -92 40 0 57 15 57 52 0 15 5 28 11
28 5 0 8 4 5 9 -10 15 -86 18 -107 3z m49 -41 c3 -27 0 -32 -15 -29 -19 3 -28
30 -19 54 10 26 31 10 34 -25z"/>
<path d="M3660 5561 c0 -5 7 -11 15 -15 18 -7 20 -57 3 -74 -7 -7 -20 -12 -30
-12 -10 0 -18 -7 -18 -15 0 -22 37 -18 53 6 l15 21 7 -21 c7 -23 34 -28 53 -9
14 14 16 32 3 24 -17 -11 -41 6 -41 28 0 27 18 46 42 46 10 0 18 7 18 15 0 20
-19 19 -43 -2 -18 -17 -19 -17 -28 0 -10 17 -49 24 -49 8z"/>
<path d="M5178 5563 c-22 -5 -22 -4 -3 -39 32 -61 13 -126 -39 -135 -28 -5
-16 -24 13 -22 27 2 61 30 61 49 0 7 15 25 34 41 37 30 59 74 50 98 -7 18 -16
19 -32 3 -7 -7 -8 -16 -2 -23 5 -7 1 -23 -12 -44 -24 -38 -38 -28 -38 31 0 40
-6 47 -32 41z"/>
<path d="M1985 5550 c-3 -5 4 -23 16 -40 31 -41 49 -22 20 19 -25 34 -27 36
-36 21z"/>
<path d="M8920 5551 c0 -6 6 -11 14 -11 10 0 15 -18 18 -62 5 -67 -6 -98 -34
-98 -24 0 -33 -19 -12 -27 13 -5 31 9 71 53 78 88 104 154 58 154 -11 0 -14
-6 -9 -24 6 -25 -19 -86 -36 -86 -5 0 -10 24 -12 53 -3 48 -5 52 -30 55 -16 2
-28 -1 -28 -7z"/>
<path d="M9409 5547 c8 -11 7 -26 -4 -63 -18 -60 -18 -64 -2 -64 7 0 23 25 37
55 14 30 31 55 38 55 16 0 15 -7 -4 -64 -22 -64 -4 -85 20 -23 17 44 61 96 72
84 6 -6 -14 -74 -29 -94 -4 -6 -4 -14 2 -17 10 -7 41 2 42 13 0 3 2 24 5 46 2
22 5 49 7 60 3 27 -27 31 -52 6 -26 -26 -31 -26 -31 -1 0 22 -20 26 -38 8 -9
-9 -12 -9 -12 0 0 7 -14 12 -31 12 -25 0 -29 -3 -20 -13z"/>
<path d="M9647 5553 c-4 -3 -2 -12 5 -20 8 -10 8 -19 0 -36 -7 -12 -16 -34
-22 -49 -8 -24 -7 -28 9 -28 12 0 27 18 45 51 30 59 31 63 11 55 -13 -4 -14
-2 -5 14 9 17 8 20 -13 20 -13 0 -27 -3 -30 -7z"/>
<path d="M9715 5550 c-8 -13 4 -32 16 -25 13 9 11 -6 -6 -55 -8 -23 -15 -44
-15 -46 0 -11 49 -2 60 11 10 12 10 15 -4 15 -20 0 -20 9 0 49 13 25 13 35 4
46 -14 17 -46 20 -55 5z"/>
<path d="M8000 5535 c-18 -22 -1 -50 31 -50 20 0 24 5 24 30 0 23 -5 31 -21
33 -11 2 -27 -4 -34 -13z m40 -26 c0 -5 -4 -9 -10 -9 -5 0 -10 7 -10 16 0 8 5
12 10 9 6 -3 10 -10 10 -16z"/>
<path d="M10215 5540 c-4 -6 -2 -17 4 -24 6 -7 9 -21 5 -30 -3 -9 -1 -16 5
-16 16 0 35 45 28 64 -7 18 -33 21 -42 6z"/>
<path d="M11127 5530 c3 -10 -2 -40 -11 -66 -15 -44 -14 -64 3 -64 4 0 13 17
19 38 12 41 66 100 76 84 6 -10 -11 -69 -26 -88 -5 -7 -3 -16 6 -23 22 -18 38
12 43 79 4 54 2 60 -15 60 -11 0 -25 -7 -32 -15 -7 -8 -16 -15 -21 -15 -5 0
-6 7 -3 15 5 11 -1 15 -19 15 -20 0 -24 -4 -20 -20z"/>
<path d="M6380 5530 c0 -15 31 -60 41 -60 15 0 10 24 -10 48 -21 24 -31 28
-31 12z"/>
<path d="M9140 5525 c0 -12 16 -15 80 -15 64 0 80 3 80 15 0 12 -16 15 -80 15
-64 0 -80 -3 -80 -15z"/>
<path d="M11336 5532 c-14 -24 6 -32 80 -32 61 0 74 3 74 16 0 13 -11 15 -70
12 -39 -2 -71 1 -73 7 -2 5 -7 4 -11 -3z"/>
<path d="M3220 5514 c0 -9 -17 -32 -37 -50 -26 -24 -34 -37 -26 -45 7 -7 22 4
52 37 43 49 52 74 26 74 -8 0 -15 -7 -15 -16z"/>
<path d="M3340 5525 c0 -11 72 -105 81 -105 22 0 6 40 -31 73 -37 35 -50 43
-50 32z"/>
<path d="M5960 5464 c0 -60 13 -84 26 -49 8 20 43 19 66 -2 10 -9 18 -12 19
-7 1 5 2 35 4 66 l3 58 -59 -1 -59 -1 0 -64z m100 26 c0 -5 -18 -10 -40 -10
-22 0 -40 5 -40 10 0 6 18 10 40 10 22 0 40 -4 40 -10z m-5 -41 c-8 -12 -75
-12 -75 0 0 6 15 11 33 13 37 4 50 0 42 -13z"/>
<path d="M4943 5493 c-13 -2 -23 -10 -23 -17 0 -9 9 -12 25 -8 18 3 25 0 25
-11 0 -8 -6 -17 -12 -20 -10 -3 -8 -10 6 -25 26 -30 15 -53 -24 -46 -31 7 -43
-9 -14 -20 47 -18 90 26 72 73 -5 14 -6 31 -3 39 5 14 -11 43 -24 41 -3 -1
-16 -4 -28 -6z"/>
<path d="M6566 5468 c-2 -7 -8 -28 -14 -45 -5 -18 -6 -35 -2 -38 10 -6 51 76
44 87 -8 12 -24 9 -28 -4z"/>
<path d="M9140 5470 c0 -6 33 -10 80 -10 47 0 80 4 80 10 0 6 -33 10 -80 10
-47 0 -80 -4 -80 -10z"/>
<path d="M615 5461 c-8 -15 3 -31 21 -31 9 0 14 7 12 17 -4 20 -24 28 -33 14z"/>
<path d="M4757 5463 c-3 -4 -8 -25 -12 -47 -9 -46 2 -56 62 -56 47 0 73 19 73
55 0 26 -17 35 -64 35 -18 0 -37 5 -43 11 -6 6 -13 7 -16 2z m66 -44 c45 -12
48 -25 7 -34 -49 -11 -89 13 -63 38 8 9 11 9 56 -4z"/>
<path d="M7652 5430 c-13 -26 -17 -40 -9 -40 15 0 68 65 60 74 -15 14 -31 3
-51 -34z"/>
<path d="M7770 5463 c1 -9 57 -73 65 -73 14 0 2 39 -18 58 -23 22 -47 29 -47
15z"/>
<path d="M11330 5460 c0 -6 33 -10 80 -10 47 0 80 4 80 10 0 6 -33 10 -80 10
-47 0 -80 -4 -80 -10z"/>
<path d="M2870 5426 c0 -14 5 -28 10 -31 6 -3 10 5 10 19 0 14 -4 28 -10 31
-6 3 -10 -5 -10 -19z"/>
<path d="M2940 5431 c5 -11 7 -27 3 -36 -5 -14 -2 -16 18 -10 13 4 29 13 35
21 6 7 13 11 16 8 3 -2 8 2 11 11 7 17 -6 19 -33 5 -13 -7 -21 -6 -30 5 -18
22 -33 18 -20 -4z"/>
<path d="M3998 5424 c-38 -24 -49 -44 -25 -44 20 0 97 53 91 62 -8 13 -27 8
-66 -18z"/>
<path d="M4120 5443 c0 -5 19 -19 43 -33 57 -34 57 -34 57 -16 0 9 -18 25 -40
36 -41 21 -60 25 -60 13z"/>
<path d="M2820 5431 c0 -5 -3 -16 -6 -25 -4 -11 -1 -16 10 -16 10 0 16 9 16
25 0 14 -4 25 -10 25 -5 0 -10 -4 -10 -9z"/>
<path d="M10660 5428 c1 -20 38 -64 47 -55 9 10 -17 59 -34 65 -7 2 -13 -2
-13 -10z"/>
<path d="M3094 4795 c-12 -9 -14 -14 -6 -15 11 0 13 -20 10 -95 l-3 -95 28 0
c15 0 27 5 27 10 0 6 -4 10 -10 10 -6 0 -10 40 -10 100 0 55 -4 100 -8 100 -5
0 -17 -7 -28 -15z"/>
<path d="M10778 4700 c3 -68 0 -100 -7 -100 -6 0 -11 -4 -11 -10 0 -5 14 -10
31 -10 25 0 30 3 25 17 -4 9 -7 59 -7 110 0 81 -2 93 -17 93 -15 0 -17 -11
-14 -100z"/>
<path d="M10863 4713 c-24 -16 -33 -76 -13 -88 6 -4 8 -10 5 -14 -5 -10 39
-31 65 -31 24 0 60 50 60 85 0 53 -69 82 -117 48z m71 -19 c3 -9 6 -31 6 -50
0 -38 -21 -54 -45 -34 -15 12 -21 81 -8 93 12 13 41 7 47 -9z"/>
<path d="M11020 4715 c-8 -9 -10 -28 -6 -49 4 -21 1 -51 -8 -77 -17 -49 -10
-64 32 -73 44 -10 86 7 97 38 12 36 -12 56 -67 56 -21 0 -38 5 -38 10 0 6 13
10 28 10 31 0 62 27 62 53 0 9 6 19 13 24 8 5 2 10 -18 14 -52 11 -82 9 -95
-6z m54 -11 c19 -7 21 -37 3 -53 -18 -14 -37 5 -37 36 0 24 7 27 34 17z m44
-136 c-3 -8 -22 -13 -48 -13 -26 0 -45 5 -47 13 -3 8 10 12 47 12 37 0 50 -4
48 -12z"/>
<path d="M11406 4711 c-3 -5 3 -11 14 -14 17 -4 20 -14 20 -64 0 -61 -11 -83
-41 -83 -23 0 -34 -19 -20 -33 12 -12 62 34 134 121 33 41 36 82 7 82 -22 0
-26 -10 -9 -27 8 -8 5 -19 -12 -42 -27 -36 -39 -27 -39 32 0 33 -3 37 -24 37
-14 0 -27 -4 -30 -9z"/>
<path d="M11193 4653 c-22 -8 -14 -23 12 -23 29 0 34 -24 8 -35 -17 -6 -17 -7
0 -16 9 -6 17 -21 17 -35 0 -24 -3 -25 -32 -18 -29 6 -31 5 -19 -10 30 -36 88
-4 76 43 -3 14 -6 33 -6 41 -1 54 -17 69 -56 53z"/>
<path d="M11654 4633 c-3 -10 -10 -25 -15 -33 -45 -73 -109 -214 -101 -222 11
-11 42 27 42 49 0 8 11 31 25 53 14 22 25 44 25 49 0 5 7 15 16 22 15 12 16
11 11 -6 -3 -11 -7 -226 -9 -477 l-3 -458 -77 0 c-45 0 -78 -4 -78 -10 0 -12
10 -13 72 -10 80 3 81 8 -37 -173 -23 -34 -51 -82 -64 -107 -12 -25 -38 -68
-57 -97 -19 -28 -45 -73 -59 -100 -14 -26 -54 -93 -90 -148 -36 -55 -79 -127
-96 -160 -18 -33 -51 -90 -75 -126 -23 -36 -53 -86 -65 -110 -13 -24 -37 -65
-53 -90 -54 -81 -108 -174 -105 -177 2 -1 -1 -6 -7 -10 -7 -4 -24 -29 -39 -57
-16 -27 -51 -86 -80 -130 -28 -44 -58 -93 -67 -110 -17 -34 -81 -139 -143
-235 -23 -36 -45 -73 -48 -83 -4 -9 -24 -44 -46 -75 -22 -32 -56 -90 -77 -128
-20 -38 -56 -98 -79 -134 -23 -36 -56 -89 -75 -117 -18 -29 -35 -53 -37 -53
-3 0 -3 12 -1 27 2 15 -2 28 -9 30 -10 3 -13 -11 -13 -51 l0 -56 -733 0 c-495
0 -736 3 -743 10 -8 8 -15 6 -24 -5 -7 -8 -11 -17 -9 -19 2 -2 338 -6 746 -8
409 -1 743 -6 743 -10 0 -4 -24 -45 -53 -90 -29 -46 -58 -95 -65 -111 -6 -15
-16 -27 -21 -27 -5 0 -18 -21 -30 -46 -12 -25 -46 -83 -76 -128 -55 -85 -76
-136 -56 -136 6 0 18 15 27 32 9 18 27 47 39 63 12 17 25 37 28 47 3 9 35 60
70 115 35 54 72 114 82 133 10 19 21 37 24 40 3 3 15 23 26 45 l20 40 3 -40
c2 -22 8 -44 13 -50 10 -10 12 -2 9 68 l-1 47 727 0 727 0 -6 -415 c-6 -401
-3 -446 23 -419 5 5 10 162 12 349 1 187 4 372 6 410 l3 70 847 -3 c466 -1
869 -3 895 -5 l49 -2 -96 -49 c-65 -34 -93 -53 -86 -60 7 -7 31 1 76 24 36 19
93 49 127 67 34 18 60 36 57 40 -6 10 -52 37 -100 59 -19 9 -57 27 -85 40 -27
14 -56 24 -64 24 -26 0 6 -25 88 -65 44 -22 80 -43 81 -46 0 -3 -44 -5 -97 -4
-54 1 -457 3 -897 3 l-799 2 7 747 c3 412 9 970 12 1241 l7 492 73 0 c43 0 74
4 74 10 0 6 -30 10 -70 10 -38 0 -70 2 -70 5 0 3 18 31 40 62 22 32 40 62 40
66 0 4 29 55 65 111 36 57 68 112 72 122 4 11 35 63 70 116 35 54 63 100 63
104 0 3 14 25 30 49 35 51 36 55 11 55 -13 0 -30 -22 -56 -72 -20 -40 -43 -80
-49 -88 -7 -8 -37 -55 -66 -105 -30 -49 -62 -101 -73 -115 -10 -14 -25 -40
-32 -58 -8 -18 -30 -56 -48 -85 -19 -28 -45 -70 -57 -92 l-22 -40 6 330 c3
182 6 391 7 465 0 131 1 134 16 100 54 -122 103 -198 103 -159 0 17 -118 257
-130 264 -6 4 -13 -2 -16 -12z m-8 -1125 c-3 -18 -8 -359 -12 -758 -9 -871
-10 -982 -14 -995 -6 -22 -7 -51 -9 -343 l-1 -303 -712 7 c-392 3 -715 8 -717
10 -2 2 13 28 33 58 20 30 36 58 36 62 0 4 22 42 49 83 27 42 62 99 78 127 15
28 35 61 44 75 15 23 83 134 219 359 35 58 72 122 82 143 10 20 22 37 27 37 5
0 19 21 31 48 12 26 47 84 76 129 30 45 54 84 54 87 0 3 34 60 75 125 41 66
75 124 75 129 0 5 11 21 25 36 14 15 25 31 25 37 0 5 29 57 65 114 36 58 65
109 65 114 0 4 13 26 28 47 36 50 122 194 122 204 0 4 7 13 16 21 8 7 27 36
41 63 14 28 45 80 68 116 22 36 54 90 69 120 16 30 33 61 38 68 18 22 29 13
24 -20z"/>
<path d="M2074 4505 l-50 -105 29 0 c22 0 28 4 23 15 -10 27 16 55 51 55 36 0
54 -30 33 -55 -11 -13 -6 -15 29 -15 47 0 49 3 21 33 -11 12 -18 27 -16 34 3
6 2 13 -2 15 -4 2 -16 30 -27 62 -12 33 -25 61 -30 63 -6 1 -33 -44 -61 -102z
m76 -7 c0 -5 -11 -8 -25 -8 -27 0 -31 10 -14 42 11 21 12 21 25 -3 7 -13 13
-27 14 -31z"/>
<path d="M3563 4523 c-18 -7 -16 -52 3 -60 19 -7 64 16 64 33 0 23 -40 39 -67
27z m32 -22 c7 -12 -12 -24 -25 -16 -11 7 -4 25 10 25 5 0 11 -4 15 -9z"/>
<path d="M2940 4480 c0 -6 63 -10 170 -10 107 0 170 4 170 10 0 6 -63 10 -170
10 -107 0 -170 -4 -170 -10z"/>
<path d="M2252 4423 c5 -26 38 -29 38 -4 0 15 -6 21 -21 21 -14 0 -19 -5 -17
-17z"/>
<path d="M3006 4354 c-20 -19 -20 -38 -1 -68 14 -21 14 -24 0 -36 -21 -18 -19
-64 5 -85 20 -18 61 -15 87 7 23 18 15 65 -13 87 -20 16 -22 21 -10 21 22 0
39 46 26 71 -13 24 -72 26 -94 3z m62 -17 c11 -13 -7 -47 -25 -47 -11 0 -24
46 -15 55 9 9 29 5 40 -8z m-3 -114 c17 -25 17 -27 -1 -40 -10 -7 -21 -13 -26
-13 -11 0 -21 47 -14 65 8 22 21 18 41 -12z"/>
<path d="M3183 4363 c-26 -5 -30 -18 -8 -27 23 -9 21 -151 -2 -165 -27 -15 -9
-23 33 -15 22 4 33 9 27 11 -9 3 -13 33 -13 104 0 54 -3 98 -7 98 -5 -1 -18
-4 -30 -6z"/>
<path d="M11331 3655 c-11 -19 -25 -35 -30 -35 -5 0 -18 -19 -30 -42 l-21 -43
47 -5 c43 -4 48 -7 45 -27 -2 -16 2 -23 12 -23 9 0 16 9 16 20 0 11 7 23 15
26 8 4 15 12 15 20 0 8 -7 14 -15 14 -12 0 -15 14 -15 65 0 36 -4 65 -9 65 -5
0 -18 -16 -30 -35z m17 -60 c1 -32 -1 -35 -28 -35 l-29 0 22 35 c12 19 25 34
28 35 3 0 6 -16 7 -35z"/>
<path d="M3028 3583 c-19 -5 -25 -23 -8 -23 6 0 10 -35 10 -85 0 -50 -4 -85
-10 -85 -5 0 -10 -4 -10 -10 0 -5 18 -10 40 -10 22 0 40 5 40 10 0 6 -7 10
-15 10 -12 0 -15 18 -15 100 0 55 -3 99 -7 99 -5 -1 -16 -3 -25 -6z"/>
<path d="M2030 3380 c19 -12 19 -163 0 -185 -11 -13 -3 -15 57 -15 98 0 137
33 99 85 -9 12 -12 33 -8 58 7 54 -12 67 -97 67 -45 0 -61 -3 -51 -10z m118
-48 c3 -33 3 -33 -35 -30 -27 2 -39 8 -41 21 -7 34 6 48 40 45 29 -3 33 -7 36
-36z m0 -64 c21 -21 14 -57 -12 -64 -45 -11 -61 -2 -64 39 -3 36 -2 37 30 37
19 0 39 -5 46 -12z"/>
<path d="M3424 3296 c-10 -26 1 -51 22 -54 30 -4 48 21 34 47 -12 24 -48 28
-56 7z m35 -23 c0 -5 -3 -9 -9 -11 -5 -2 -10 4 -10 13 0 16 16 14 19 -2z"/>
<path d="M2930 3260 c0 -6 42 -10 105 -10 63 0 105 4 105 10 0 6 -42 10 -105
10 -63 0 -105 -4 -105 -10z"/>
<path d="M2236 3201 c-7 -11 18 -33 27 -24 4 3 7 12 7 20 0 15 -26 18 -34 4z"/>
<path d="M2997 3132 c-20 -22 -22 -83 -5 -100 7 -7 25 -12 40 -12 15 0 28 -4
28 -9 0 -15 -49 -61 -65 -61 -8 0 -15 -5 -15 -11 0 -7 10 -9 28 -4 66 16 116
107 91 167 -20 48 -72 64 -102 30z m67 -27 c23 -34 20 -54 -8 -61 -34 -8 -46
2 -46 40 0 53 26 63 54 21z"/>
<path d="M2083 2403 c-55 -10 -82 -104 -48 -169 16 -32 36 -42 82 -43 33 -1
94 41 80 55 -4 4 -17 -2 -30 -14 -30 -29 -62 -28 -92 3 -35 34 -34 85 3 126
23 25 34 31 54 26 13 -4 30 -18 36 -32 14 -31 34 -24 29 10 -1 13 -5 26 -7 28
-9 7 -84 14 -107 10z"/>
<path d="M2940 2403 c-31 -12 -50 -37 -50 -68 0 -47 20 -69 58 -63 18 2 32 0
32 -5 0 -15 -58 -67 -75 -67 -9 0 -13 -5 -10 -10 9 -14 45 -3 73 24 57 51 69
130 27 171 -25 26 -30 27 -55 18z m44 -46 c3 -12 6 -32 6 -45 0 -20 -4 -23
-32 -20 -29 3 -33 7 -36 36 -2 18 2 39 8 47 15 18 47 8 54 -18z"/>
<path d="M3237 2314 c-15 -15 -7 -53 13 -59 27 -8 52 12 48 39 -3 21 -46 35
-61 20z m33 -29 c0 -8 -4 -15 -9 -15 -13 0 -22 16 -14 24 11 11 23 6 23 -9z"/>
<path d="M2232 2220 c-10 -17 -10 -21 3 -26 22 -9 30 2 19 26 l-9 20 -13 -20z"/>
<path d="M2018 1638 c17 -17 16 -185 0 -191 -7 -3 19 -6 57 -6 65 -1 73 1 103
28 26 24 32 37 32 71 0 52 -13 76 -50 95 -36 19 -160 21 -142 3z m132 -28 c31
-31 27 -94 -7 -126 -17 -16 -36 -24 -52 -22 -25 3 -26 5 -29 86 l-3 82 36 0
c22 0 43 -8 55 -20z"/>
<path d="M2912 1638 c-15 -15 -16 -70 0 -86 9 -9 8 -16 -5 -30 -34 -38 -8 -92
44 -92 54 0 80 53 47 95 -20 26 -19 34 4 68 10 12 10 22 2 35 -13 21 -74 28
-92 10z m64 -22 c3 -8 0 -25 -7 -37 -11 -22 -12 -22 -25 -4 -21 28 -18 55 6
55 11 0 23 -6 26 -14z m-15 -96 c22 -12 25 -43 6 -59 -20 -16 -51 20 -42 48 7
24 9 25 36 11z"/>
<path d="M3080 1635 c-24 -14 -24 -14 -3 -15 20 0 22 -4 19 -67 -2 -38 -6 -80
-10 -95 -8 -26 -6 -28 23 -28 17 0 31 5 31 10 0 6 -5 10 -11 10 -6 0 -9 34 -8
97 1 53 -2 98 -7 100 -5 1 -20 -4 -34 -12z"/>
<path d="M3382 1561 c-8 -4 -12 -19 -10 -32 2 -19 9 -24 32 -24 39 0 59 31 32
51 -23 16 -35 17 -54 5z m46 -28 c2 -8 -5 -13 -17 -13 -12 0 -21 6 -21 16 0
18 31 15 38 -3z"/>
<path d="M2242 1458 c2 -13 8 -23 13 -23 6 0 11 10 13 23 2 15 -2 22 -13 22
-11 0 -15 -7 -13 -22z"/>
<path d="M11403 960 c-64 -38 -89 -145 -43 -182 44 -36 98 -19 149 46 40 50
44 116 9 140 -30 22 -76 20 -115 -4z m95 -43 c4 -46 -36 -122 -69 -130 -36
-10 -59 9 -59 49 0 66 47 127 95 122 27 -3 30 -7 33 -41z"/>
<path d="M13448 893 c12 -8 22 -23 22 -32 -1 -19 -34 -61 -49 -61 -15 0 -14
-17 1 -26 6 -4 21 5 35 22 16 20 23 24 23 13 0 -27 27 -44 45 -29 8 7 15 19
15 27 0 12 -3 13 -14 4 -11 -9 -15 -5 -19 21 -6 40 -2 48 24 48 10 0 19 7 19
15 0 17 -31 20 -47 4 -8 -8 -13 -8 -17 0 -4 6 -19 11 -34 10 l-27 0 23 -16z"/>
<path d="M10240 880 c-22 -22 -26 -40 -10 -40 6 0 10 4 10 9 0 14 29 22 56 15
38 -10 30 -44 -26 -106 -27 -31 -50 -61 -50 -67 0 -7 22 -11 53 -11 40 0 58 5
70 18 10 10 17 21 17 24 0 3 -24 3 -52 1 l-53 -4 25 20 c14 11 28 21 32 21 10
0 38 67 38 90 0 23 -17 36 -58 43 -25 5 -37 2 -52 -13z"/>
<path d="M10050 770 c0 -6 33 -10 80 -10 47 0 80 4 80 10 0 6 -33 10 -80 10
-47 0 -80 -4 -80 -10z"/>
</g>
</svg>
