<?xml version="1.0" standalone="no"?>
<!DOCTYPE svg PUBLIC "-//W3C//DTD SVG 20010904//EN"
 "http://www.w3.org/TR/2001/REC-SVG-20010904/DTD/svg10.dtd">
<svg version="1.0" xmlns="http://www.w3.org/2000/svg"
 width="1483.000000pt" height="735.000000pt" viewBox="0 0 1483.000000 735.000000"
 preserveAspectRatio="xMidYMid meet">
<metadata>
Created by potrace 1.16, written by Peter Selinger 2001-2019
</metadata>
<g transform="translate(0.000000,735.000000) scale(0.100000,-0.100000)"
fill="#000000" stroke="none">
<path d="M1649 7003 c-1 -5 0 -19 1 -31 2 -23 -1 -24 -54 -20 l-56 3 0 -50 c0
-27 -3 -60 -6 -72 -6 -20 -4 -21 53 -16 l58 5 -3 -57 c-3 -45 -1 -56 10 -53 8
3 13 22 13 54 l0 49 53 0 c49 -1 52 1 53 25 0 14 1 45 2 69 l2 45 -58 -3 -57
-2 10 26 c5 14 10 28 10 31 0 7 -30 4 -31 -3z m-4 -120 c-2 -21 -8 -38 -14
-37 -6 1 -24 2 -41 3 -27 1 -30 4 -30 36 0 35 0 35 43 35 l44 0 -2 -37z m105
-1 l0 -38 -42 1 c-24 1 -42 4 -40 8 1 4 2 21 2 37 0 28 2 30 40 30 40 0 40 0
40 -38z"/>
<path d="M1204 6991 c-2 -2 -4 -61 -4 -130 l0 -126 111 3 c84 3 114 1 120 -9
4 -8 10 -11 12 -9 3 3 7 66 9 140 l3 135 -123 0 c-68 0 -126 -2 -128 -4z m71
-46 c0 -22 6 -31 25 -36 18 -5 11 -7 -27 -8 l-52 -1 4 38 c1 20 3 38 4 40 1 2
11 2 23 0 17 -2 22 -10 23 -33z m91 28 c-11 -11 -76 -13 -76 -2 0 5 19 9 42 9
23 0 38 -3 34 -7z m64 -103 c0 -85 -3 -110 -13 -110 -9 0 -13 10 -11 28 2 15
5 48 7 73 l4 47 -36 -3 c-20 -1 -28 -1 -19 2 16 4 31 31 27 49 -3 19 2 24 21
24 19 0 20 -7 20 -110z m-72 68 c-3 -7 -15 -13 -28 -13 -13 0 -25 6 -27 13 -3
8 6 12 27 12 21 0 30 -4 28 -12z m-108 -113 c0 -51 -3 -65 -15 -65 -12 0 -15
14 -15 65 0 51 3 65 15 65 12 0 15 -14 15 -65z m70 55 c0 -5 -11 -10 -24 -10
-14 0 -28 5 -31 10 -4 6 7 10 24 10 17 0 31 -4 31 -10z m60 0 c-20 -13 -50
-13 -50 0 0 6 15 10 33 10 24 0 28 -3 17 -10z m2 -55 c-2 -16 -8 -34 -14 -40
-7 -7 -9 2 -5 28 l6 37 -40 0 c-37 0 -39 -1 -39 -32 0 -35 -8 -34 -15 2 -7 35
3 41 58 38 51 -3 52 -3 49 -33z m-42 0 c0 -8 -7 -15 -15 -15 -8 0 -15 7 -15
15 0 8 7 15 15 15 8 0 15 -7 15 -15z m0 -29 c0 -2 -7 -6 -15 -10 -8 -3 -15 -1
-15 4 0 6 7 10 15 10 8 0 15 -2 15 -4z m18 -33 c-16 -2 -40 -2 -55 0 -16 2 -3
4 27 4 30 0 43 -2 28 -4z"/>
<path d="M3465 6979 c-22 -4 -57 -8 -78 -8 -30 -1 -39 -6 -47 -25 -5 -13 -14
-27 -19 -31 -19 -11 -12 -27 9 -20 18 6 19 2 13 -47 -6 -55 -15 -81 -35 -110
-15 -21 -3 -35 16 -19 8 7 20 10 25 7 12 -8 47 42 37 52 -4 3 -11 0 -15 -7 -6
-9 -11 -10 -15 -2 -4 6 -1 18 8 26 11 11 38 15 105 15 50 0 91 -4 91 -9 0 -5
-4 -21 -10 -35 -12 -32 -42 -34 -55 -4 -12 25 -35 36 -35 16 0 -8 16 -29 36
-46 43 -38 54 -33 84 34 25 54 25 52 -7 56 -24 3 -28 7 -25 31 3 25 1 28 -17
22 -21 -6 -30 9 -11 20 16 10 1 25 -24 25 -28 0 -56 27 -35 34 51 16 56 14 73
-25 10 -22 22 -39 27 -39 17 0 9 33 -13 57 -12 13 -16 23 -9 23 7 0 9 5 6 10
-7 11 -23 11 -80 -1z m-27 -46 c2 -9 -8 -13 -32 -13 -26 0 -36 4 -36 16 0 19
61 16 68 -3z m57 -43 c-3 -5 -33 -10 -66 -10 -33 0 -59 4 -59 10 0 6 29 10 66
10 41 0 63 -4 59 -10z m25 -50 c0 -19 -5 -21 -72 -18 -60 2 -73 6 -76 21 -3
15 6 17 72 17 70 0 76 -2 76 -20z"/>
<path d="M355 6970 c-17 -7 -17 -9 -2 -9 15 -1 17 -12 17 -86 0 -50 -4 -85
-10 -85 -5 0 -10 -4 -10 -10 0 -5 19 -10 42 -10 40 0 41 1 24 19 -10 11 -15
24 -12 30 4 5 2 13 -4 16 -8 5 -8 11 0 20 6 7 10 37 8 67 -3 56 -14 65 -53 48z"/>
<path d="M479 6954 c-12 -34 -4 -42 19 -21 20 18 72 23 72 7 0 -5 -11 -39 -25
-76 -28 -73 -31 -98 -13 -92 10 4 67 167 68 196 0 8 -18 12 -55 12 -51 0 -56
-2 -66 -26z"/>
<path d="M4355 6945 c-16 -17 -30 -36 -30 -41 -1 -18 30 -3 57 28 26 30 27 31
53 14 34 -23 148 -19 153 5 2 13 -9 15 -83 11 -59 -3 -85 -1 -85 7 0 21 -35 8
-65 -24z"/>
<path d="M5150 6970 c-8 -5 -23 -11 -32 -14 -13 -4 -18 -16 -18 -40 0 -32 3
-35 33 -39 28 -3 26 -4 -10 -5 -24 -1 -43 -5 -44 -9 -1 -5 -2 -23 -4 -41 -3
-31 -1 -33 25 -27 16 3 31 2 34 -3 8 -13 -26 -41 -55 -44 -23 -3 -24 0 -24 47
0 48 -1 50 -25 47 -36 -5 -49 -21 -22 -28 29 -8 29 -40 0 -71 -26 -27 -16 -44
11 -19 18 17 20 17 39 -2 24 -24 84 -35 162 -30 43 2 56 7 58 21 4 20 -19 23
-48 5 -29 -19 -36 -1 -11 26 30 32 20 46 -26 39 -28 -5 -34 -3 -28 7 5 9 22
10 56 6 46 -6 65 3 39 19 -15 10 -12 35 5 35 8 0 15 5 15 10 0 6 -11 10 -25
10 -16 0 -25 -6 -25 -15 0 -22 -23 -18 -38 5 -11 18 -10 20 17 20 26 0 29 4
33 35 5 42 3 45 -34 45 -15 0 -28 5 -28 10 0 12 -10 12 -30 0z m60 -61 c0 -7
-9 -9 -22 -6 -12 4 -27 2 -34 -4 -8 -6 -13 -5 -18 6 -4 12 3 15 34 15 23 0 40
-5 40 -11z m-91 -70 c-22 -14 -33 -10 -19 6 7 8 17 12 22 9 6 -4 5 -10 -3 -15z
m61 -5 c0 -8 5 -14 12 -14 6 0 8 -3 4 -7 -4 -5 -14 1 -22 11 -12 17 -14 18
-14 3 0 -9 -7 -17 -15 -17 -19 0 -19 9 1 31 18 20 34 17 34 -7z m20 -74 c0 -5
-10 -10 -22 -11 -13 0 -17 -3 -10 -6 18 -7 14 -33 -5 -33 -10 0 -26 7 -36 14
-16 13 -16 14 5 29 26 18 68 22 68 7z"/>
<path d="M2449 6927 c-19 -23 -46 -57 -60 -77 -15 -19 -36 -45 -48 -57 -28
-29 -27 -33 8 -33 24 0 30 5 35 30 5 25 10 30 35 30 24 0 28 -3 24 -20 -3 -11
-9 -20 -14 -20 -5 0 -9 -4 -9 -10 0 -5 18 -10 40 -10 22 0 40 5 40 10 0 6 -7
10 -15 10 -16 0 -21 40 -6 56 11 11 20 123 11 129 -4 2 -22 -14 -41 -38z m1
-52 c0 -19 -5 -25 -20 -25 -20 0 -20 1 -3 25 22 30 23 30 23 0z"/>
<path d="M2580 6948 c-1 -37 -38 -162 -49 -166 -6 -2 -11 -8 -11 -13 0 -5 27
-9 60 -9 51 0 65 4 85 25 28 27 31 47 11 67 -12 12 -10 18 10 37 13 13 24 29
24 36 0 23 -42 45 -87 45 -38 0 -43 -3 -43 -22z m74 -4 c33 -13 11 -64 -27
-64 -15 0 -18 5 -13 23 3 12 6 28 6 35 0 13 10 15 34 6z m0 -100 c11 -28 -21
-64 -54 -64 -28 0 -30 2 -24 28 4 15 11 33 17 40 14 17 54 15 61 -4z"/>
<path d="M2769 6932 c-33 -30 -42 -46 -46 -82 -4 -39 -1 -48 21 -69 17 -16 38
-25 60 -25 36 0 100 34 77 42 -7 2 -18 -1 -24 -7 -6 -6 -28 -11 -49 -11 -45 0
-63 25 -54 76 7 33 54 100 64 90 3 -3 11 -1 17 4 19 16 45 1 45 -26 0 -15 6
-24 15 -24 8 0 15 9 15 19 0 11 3 26 6 35 5 13 -3 16 -50 16 -52 0 -60 -3 -97
-38z"/>
<path d="M2970 6955 c9 -11 9 -25 -3 -67 -8 -29 -18 -65 -21 -79 -3 -15 -16
-30 -28 -35 -17 -6 -3 -9 49 -11 87 -5 126 12 150 62 12 26 14 43 7 77 -11 52
-37 68 -113 68 -46 0 -52 -2 -41 -15z m104 -30 c23 -21 26 -30 21 -62 -9 -49
-46 -83 -91 -83 -19 0 -34 3 -34 8 0 12 38 140 45 152 10 17 30 12 59 -15z"/>
<path d="M3985 6960 c3 -5 33 -10 66 -10 l59 0 0 -66 0 -66 -66 4 c-42 2 -65
-1 -63 -7 2 -5 32 -10 67 -10 l63 0 -2 -46 c-2 -25 1 -51 5 -57 14 -23 26 -1
26 49 l0 49 70 0 c70 0 83 7 56 29 -10 8 -16 9 -21 1 -3 -5 -28 -10 -56 -10
l-49 0 0 65 0 65 65 0 c37 0 65 4 65 10 0 6 -55 10 -146 10 -94 0 -143 -4
-139 -10z"/>
<path d="M4667 6963 c-4 -3 -3 -11 1 -17 12 -20 13 -59 2 -66 -9 -5 -8 -13 1
-29 12 -17 12 -25 0 -42 -11 -18 -11 -23 1 -30 10 -7 10 -9 1 -9 -13 0 -18
-42 -6 -53 3 -4 12 -2 20 5 8 6 54 11 110 12 83 1 97 -1 109 -18 12 -18 13
-18 18 5 3 13 7 72 8 130 l3 106 -124 2 c-68 1 -127 3 -131 6 -4 2 -10 2 -13
-2z m76 -45 c-2 -5 -3 -23 -3 -42 0 -19 -9 -44 -20 -57 l-19 -24 -1 68 c0 65
1 68 23 65 12 -2 21 -6 20 -10z m77 -53 l0 -65 34 0 c36 0 55 13 36 25 -6 4
-8 15 -5 26 4 11 2 19 -4 19 -6 0 -11 -11 -11 -25 0 -16 -6 -25 -15 -25 -12 0
-15 13 -15 55 l0 55 35 0 35 0 0 -90 0 -91 -107 3 c-74 2 -108 7 -111 16 -2 6
3 12 11 12 26 0 55 47 62 100 6 44 10 50 31 50 23 0 24 -3 24 -65z"/>
<path d="M5020 6959 c0 -6 7 -17 16 -26 21 -21 43 -1 24 22 -14 17 -40 20 -40
4z"/>
<path d="M5398 6962 c-66 -3 -90 -18 -48 -29 15 -4 20 -14 20 -39 0 -27 -4
-34 -20 -34 -11 0 -20 -5 -20 -11 0 -7 9 -9 21 -6 20 5 21 3 16 -40 -2 -25
-14 -58 -25 -73 -19 -26 -20 -40 -1 -40 14 0 49 87 49 124 0 30 3 37 18 34 15
-3 17 -13 13 -81 -3 -81 -2 -82 44 -77 33 3 67 25 113 71 27 27 39 46 32 53
-6 6 -19 -1 -38 -20 -44 -45 -93 -84 -106 -84 -7 0 -11 23 -11 65 0 57 2 65
20 67 23 3 18 23 -5 23 -8 0 -14 3 -12 8 1 4 2 18 2 32 0 16 6 25 16 25 9 0
14 7 12 17 -4 20 -5 20 -90 15z m32 -67 c0 -28 -4 -35 -20 -35 -16 0 -20 7
-20 35 0 28 4 35 20 35 16 0 20 -7 20 -35z"/>
<path d="M5537 6934 c-16 -19 -35 -34 -43 -34 -8 0 -14 -4 -14 -10 0 -21 31
-9 70 26 22 20 40 40 40 45 0 19 -26 6 -53 -27z"/>
<path d="M8210 6960 c-8 -5 -32 -10 -52 -10 -21 0 -38 -4 -38 -10 0 -5 -16
-10 -35 -10 -19 0 -35 -4 -35 -10 0 -5 -9 -19 -21 -31 -24 -24 -18 -39 7 -18
15 12 16 8 12 -51 -2 -36 -12 -80 -21 -99 -21 -42 -21 -47 -1 -30 9 7 23 29
32 48 l17 36 93 3 c70 2 92 0 91 -10 -3 -37 -17 -63 -37 -68 -22 -5 -22 -5 -3
-17 27 -17 49 5 57 58 4 21 11 39 16 39 5 0 6 5 2 11 -3 6 -17 8 -30 5 -22 -6
-23 -4 -18 24 5 24 3 30 -10 30 -11 0 -16 7 -14 18 2 13 -5 18 -29 20 -53 5
-48 29 8 36 39 5 50 11 47 23 -4 21 -19 26 -38 13z m-72 -57 c2 -9 -9 -13 -40
-13 -38 1 -41 2 -25 14 21 16 59 15 65 -1z m62 -43 c0 -6 -27 -10 -60 -10 -33
0 -60 4 -60 10 0 6 27 10 60 10 33 0 60 -4 60 -10z m28 -52 c-3 -9 -30 -14
-76 -16 -59 -2 -72 1 -72 13 0 12 15 15 76 15 56 0 75 -3 72 -12z"/>
<path d="M6505 6952 c-10 -11 8 -22 36 -22 28 0 29 -2 29 -42 0 -66 -18 -116
-57 -159 -20 -22 -32 -43 -28 -47 13 -13 84 78 99 126 11 36 14 41 15 21 1
-15 10 -38 21 -52 24 -30 25 -37 6 -37 -8 0 -21 -6 -28 -13 -7 -8 -26 -17 -42
-21 -21 -5 -26 -10 -18 -18 13 -13 66 5 98 34 20 18 21 18 47 -2 30 -23 97
-39 97 -22 0 8 -17 19 -40 27 -3 1 -17 7 -33 15 -27 13 -27 14 -9 34 9 12 28
36 40 54 24 34 16 47 -24 40 -20 -3 -22 10 -9 62 l6 26 -100 0 c-56 0 -103 -2
-106 -4z m171 -38 c-3 -9 -6 -22 -6 -30 0 -10 -12 -14 -41 -14 -33 0 -40 3
-35 16 3 9 6 22 6 30 0 10 12 14 41 14 33 0 40 -3 35 -16z m34 -73 c0 -12 -33
-71 -40 -71 -19 1 -64 63 -53 74 10 10 93 7 93 -3z"/>
<path d="M7482 6948 c3 -7 14 -14 25 -16 12 -2 24 -13 27 -25 4 -12 21 -40 40
-61 25 -30 38 -37 52 -32 18 7 17 9 -6 27 -53 41 -69 61 -72 87 -2 23 -8 28
-37 30 -24 3 -32 0 -29 -10z"/>
<path d="M7696 6953 c-3 -4 -6 -28 -6 -55 0 -41 3 -48 20 -48 11 0 20 -7 20
-15 0 -25 -31 -109 -48 -128 -8 -9 -12 -20 -9 -24 11 -10 42 23 66 72 27 54
61 63 61 16 0 -45 -10 -61 -37 -61 -22 0 -24 -2 -13 -15 17 -20 47 -19 58 3 5
9 12 41 15 70 l6 53 -34 -7 c-33 -6 -35 -5 -35 21 0 24 3 26 31 23 25 -2 32 1
35 17 1 11 5 32 8 47 7 34 0 38 -50 29 -22 -4 -50 -4 -61 0 -12 4 -24 5 -27 2z
m110 -49 c-3 -9 -6 -20 -6 -25 0 -10 -73 -13 -82 -3 -3 3 -4 14 -1 25 4 15 14
19 50 19 37 0 44 -3 39 -16z"/>
<path d="M7924 6882 c-4 -185 -1 -172 -29 -172 -35 0 -31 -17 6 -25 22 -5 34
-3 40 6 5 8 9 64 9 126 0 65 4 114 10 118 14 9 2 25 -18 25 -14 0 -17 -12 -18
-78z"/>
<path d="M6184 6913 c0 -42 -31 -150 -45 -159 -5 -3 -3 -11 4 -18 8 -9 14 -10
18 -4 4 6 13 7 20 2 12 -7 29 -8 87 -5 17 1 45 54 34 65 -3 3 -15 -6 -28 -19
-16 -18 -34 -25 -59 -25 -40 0 -41 5 -19 58 l15 37 24 -27 c23 -27 23 -27 29
-5 3 12 6 33 6 46 0 23 -1 24 -20 6 -25 -23 -34 -15 -25 24 5 24 12 31 30 31
13 0 30 -7 39 -15 20 -20 36 -19 36 4 0 29 -20 38 -85 40 l-60 1 -1 -37z"/>
<path d="M7390 6883 c-55 -83 -57 -88 -32 -74 26 14 82 14 82 1 0 -23 -31 -70
-66 -98 -20 -17 -31 -32 -25 -36 17 -11 100 77 107 112 6 30 9 32 49 32 l43 0
-5 -42 c-7 -65 -9 -68 -50 -68 -44 0 -35 -16 15 -26 27 -6 33 -3 41 19 14 37
25 147 15 147 -5 0 -15 -4 -23 -9 -7 -5 -28 -5 -47 -1 -19 4 -36 4 -39 -1 -3
-4 -12 -6 -20 -4 -8 3 -21 7 -29 9 -11 4 -6 15 20 43 19 20 33 42 31 47 -8 25
-26 11 -67 -51z"/>
<path d="M9246 6941 c-4 -7 -42 -11 -92 -11 -59 0 -83 -3 -78 -11 3 -6 17 -8
31 -4 l26 6 -5 -69 c-4 -57 -11 -78 -37 -116 -18 -25 -36 -46 -41 -46 -6 0
-10 -4 -10 -10 0 -18 26 -11 47 13 27 29 53 81 53 107 0 29 12 24 42 -19 30
-45 27 -52 -46 -84 -59 -27 -34 -33 34 -8 l61 22 40 -20 c47 -25 59 -26 59 -7
0 8 -10 17 -22 20 -13 3 -33 14 -46 24 l-22 17 22 26 c54 60 61 94 19 84 -37
-8 -43 3 -24 43 11 23 13 36 6 43 -8 8 -13 7 -17 0z m-9 -30 c1 -1 -2 -13 -6
-28 -6 -23 -13 -28 -44 -30 -36 -2 -37 -1 -37 32 0 33 0 34 43 30 23 -2 43 -4
44 -4z m33 -78 c0 -5 -11 -26 -24 -47 l-24 -40 -21 35 c-31 51 -28 59 24 59
25 0 45 -3 45 -7z"/>
<path d="M10546 6938 c-14 -46 -16 -49 -36 -43 -19 6 -20 2 -20 -104 0 -106 8
-132 28 -96 7 13 14 14 36 5 39 -14 46 -6 46 56 0 30 4 54 8 54 4 0 16 14 25
30 16 26 24 30 64 30 l45 0 -7 -67 c-11 -112 -11 -113 -58 -113 -46 0 -40 -14
10 -25 43 -9 59 18 68 115 3 41 9 83 12 93 4 17 -1 18 -46 16 -53 -3 -75 6
-52 21 8 5 11 15 7 26 -9 22 -18 11 -40 -48 -21 -57 -42 -76 -33 -30 6 30 5
32 -24 32 -26 0 -29 2 -19 19 5 11 10 24 10 30 0 15 -20 14 -24 -1z m24 -98
c0 -25 -4 -30 -25 -30 -21 0 -25 5 -25 30 0 25 4 30 25 30 21 0 25 -5 25 -30z
m0 -83 c0 -29 -3 -33 -27 -32 -25 0 -28 4 -28 33 0 28 3 32 28 32 24 0 27 -4
27 -33z"/>
<path d="M10268 6823 l-3 -118 -63 -3 c-36 -2 -60 -7 -57 -12 8 -13 285 -13
285 -1 0 18 -18 21 -60 12 -70 -16 -81 -7 -78 58 l3 56 50 3 c56 4 68 11 56
31 -7 11 -13 11 -38 -1 -19 -10 -37 -12 -52 -6 -19 7 -22 14 -19 49 2 27 -2
44 -9 46 -9 3 -13 -26 -15 -114z"/>
<path d="M11027 6934 c-4 -4 -7 -38 -7 -76 0 -64 -1 -68 -22 -68 -21 0 -23 -5
-23 -65 -1 -61 6 -78 20 -55 9 14 68 13 83 -2 17 -17 24 8 20 73 -3 50 -5 54
-25 51 -20 -3 -23 1 -23 32 0 33 2 36 30 36 17 0 30 4 30 9 0 13 -28 22 -35
11 -13 -21 -26 -8 -23 22 3 29 -10 46 -25 32z m48 -202 c0 -35 -2 -37 -36 -40
-36 -3 -37 -2 -41 37 l-4 41 41 0 c40 0 40 0 40 -38z"/>
<path d="M4049 6908 c-6 -13 -21 -33 -32 -45 -11 -13 -16 -23 -11 -23 15 0 85
75 78 83 -13 12 -23 8 -35 -15z"/>
<path d="M7039 6921 c12 -8 10 -21 -7 -87 -12 -42 -27 -81 -33 -85 -20 -12 -1
-26 30 -21 25 3 28 7 20 21 -17 27 5 71 36 71 16 0 25 -6 25 -15 0 -31 18 -13
22 23 6 41 1 53 -11 33 -5 -7 -20 -11 -34 -9 -25 3 -26 5 -14 28 15 31 74 41
93 16 10 -14 12 -13 16 9 l5 25 -81 0 c-51 0 -76 -4 -67 -9z"/>
<path d="M7870 6845 c0 -50 4 -85 10 -85 6 0 10 30 10 69 0 38 3 76 6 85 4 11
1 16 -10 16 -13 0 -16 -14 -16 -85z"/>
<path d="M8628 6889 c-21 -22 -38 -42 -38 -45 0 -10 -71 -99 -86 -107 -20 -11
-8 -27 22 -27 18 0 24 5 24 23 0 12 4 27 8 33 10 15 47 23 63 13 11 -6 9 -13
-9 -32 -26 -28 -20 -37 25 -37 22 0 33 5 33 14 0 8 -5 16 -10 18 -8 2 -8 31
-1 93 6 49 10 90 8 91 -1 1 -19 -16 -39 -37z m5 -60 c-6 -21 -29 -36 -39 -26
-8 8 27 58 36 52 5 -3 6 -14 3 -26z"/>
<path d="M8753 6917 c7 -19 -14 -127 -25 -127 -4 0 -8 -6 -8 -14 0 -8 -7 -22
-16 -30 -23 -24 -8 -36 44 -35 84 1 145 59 102 96 -20 17 -20 18 7 39 25 19
26 24 15 48 -10 22 -18 26 -51 26 -22 0 -47 3 -57 7 -13 5 -16 3 -11 -10z m87
-27 c12 -7 12 -12 -3 -28 -14 -16 -67 -37 -67 -27 0 1 5 16 11 34 11 31 31 39
59 21z m-20 -105 c0 -24 -25 -45 -54 -45 -19 0 -20 9 -6 44 13 36 60 37 60 1z"/>
<path d="M10832 6870 c3 -51 5 -55 26 -52 12 2 22 -2 22 -7 0 -6 -9 -11 -20
-11 -11 0 -20 -4 -20 -10 0 -5 9 -10 20 -10 11 0 20 -4 20 -10 0 -5 -11 -10
-24 -10 -27 0 -41 -14 -31 -30 5 -8 11 -8 20 0 7 6 36 13 64 17 28 3 51 10 51
15 0 5 -13 7 -30 3 -19 -4 -30 -3 -30 4 0 6 14 11 31 11 20 0 29 4 26 13 -2 6
-13 11 -25 9 -11 -2 -23 2 -27 8 -5 8 3 11 26 8 l34 -3 3 55 3 55 -71 0 -71 0
3 -55z m48 25 c0 -9 -6 -12 -15 -9 -8 4 -12 10 -9 15 8 14 24 10 24 -6z m48 1
c-25 -18 -23 -39 2 -31 11 4 20 2 20 -4 0 -6 -11 -11 -25 -11 -21 0 -25 5 -25
30 0 25 4 30 23 30 20 -1 21 -2 5 -14z m-57 -30 c5 3 9 0 9 -5 0 -6 -7 -11
-15 -11 -8 0 -15 8 -14 18 0 10 3 12 6 4 2 -6 9 -10 14 -6z"/>
<path d="M12277 6923 c-4 -3 -7 -15 -7 -26 0 -15 -5 -18 -25 -13 l-25 6 0
-110 c0 -87 3 -110 14 -110 8 0 16 6 19 13 5 14 41 16 53 4 17 -17 24 -3 24
52 0 75 21 89 62 40 15 -18 31 -29 35 -25 13 13 -11 40 -55 63 -2 1 -1 11 3
22 5 17 15 21 54 21 l48 0 -5 -72 c-6 -95 -13 -108 -60 -109 l-37 -1 30 -13
c17 -8 36 -14 42 -15 25 0 41 47 48 138 l7 92 -51 0 c-48 0 -65 10 -41 25 6 4
8 11 5 16 -13 21 -31 6 -45 -38 -17 -53 -40 -69 -40 -29 0 19 -5 26 -20 26
-21 0 -27 15 -10 25 6 3 10 10 10 16 0 10 -23 12 -33 2z m33 -93 c0 -27 -3
-30 -30 -30 -27 0 -30 3 -30 30 0 27 3 30 30 30 27 0 30 -3 30 -30z m0 -85 c0
-32 -2 -35 -30 -35 -28 0 -30 3 -30 35 0 32 2 35 30 35 28 0 30 -3 30 -35z"/>
<path d="M12924 6903 c-18 -25 -19 -31 -6 -56 12 -25 12 -31 -2 -46 -20 -23
-20 -33 0 -29 10 2 19 -3 21 -9 3 -8 -4 -13 -16 -13 -14 0 -21 -6 -21 -19 0
-11 -4 -23 -10 -26 -5 -3 -10 -15 -10 -26 0 -30 23 -18 35 19 17 50 28 51 22
1 -4 -26 -4 -49 -1 -52 14 -13 83 35 100 70 l19 38 3 -28 c4 -32 -3 -58 -15
-56 -22 4 -25 -2 -7 -15 28 -21 44 -2 44 53 l0 46 19 -30 c27 -44 59 -71 71
-59 7 7 0 18 -20 32 -37 27 -38 40 -5 48 26 7 32 18 14 29 -5 4 -19 -1 -29
-10 -20 -18 -40 -13 -40 11 0 8 10 14 25 14 22 0 25 4 27 40 0 22 1 46 2 53 1
8 -10 11 -31 9 -27 -3 -31 0 -26 17 3 13 1 21 -7 21 -6 0 -14 -9 -17 -20 -4
-14 -12 -20 -25 -18 -17 3 -20 -4 -24 -49 -4 -51 -3 -53 21 -53 16 0 25 -6 25
-15 0 -8 -3 -14 -7 -14 -5 1 -25 1 -45 0 -31 -1 -38 -5 -38 -20 0 -27 17 -35
23 -11 4 17 37 30 37 15 0 -9 -62 -75 -71 -75 -5 0 -9 25 -9 56 0 51 2 56 20
51 15 -4 20 0 20 14 0 22 -11 24 -28 7 -6 -6 -14 -9 -17 -7 -8 9 19 59 33 59
6 0 12 7 12 15 0 20 -27 19 -38 -1 -7 -12 -11 -13 -17 -5 -4 7 0 20 9 30 17
19 21 41 8 41 -5 0 -17 -12 -28 -27z m196 -33 c0 -5 -20 -10 -45 -10 -25 0
-45 5 -45 10 0 6 20 10 45 10 25 0 45 -4 45 -10z m-5 -45 c0 -5 -19 -11 -42
-13 -32 -2 -43 0 -43 11 0 11 11 14 43 13 23 0 42 -5 42 -11z"/>
<path d="M4170 6913 c1 -19 52 -64 68 -61 14 3 11 10 -17 36 -32 31 -51 40
-51 25z"/>
<path d="M4357 6868 c-27 -28 -46 -53 -42 -56 3 -3 11 0 17 6 23 23 28 12 28
-58 0 -38 4 -70 9 -70 15 0 20 31 16 102 -3 59 -1 68 21 89 13 12 24 26 24 31
0 19 -28 2 -73 -44z"/>
<path d="M8230 6913 c0 -5 6 -18 14 -29 17 -22 35 -11 20 13 -12 19 -34 29
-34 16z"/>
<path d="M9619 6900 c-39 -21 -59 -59 -59 -115 0 -71 100 -107 155 -55 33 31
24 37 -20 16 -35 -17 -66 -15 -92 6 -20 16 -15 69 10 105 36 53 117 65 117 17
0 -13 5 -24 10 -24 6 0 10 6 10 13 0 6 3 22 6 35 6 21 4 22 -47 22 -33 -1 -68
-8 -90 -20z"/>
<path d="M9813 6905 c10 -10 15 -21 10 -24 -5 -3 -17 -35 -28 -71 -10 -36 -24
-70 -32 -76 -24 -20 -14 -24 57 -24 67 0 71 1 110 38 35 34 40 44 40 84 0 62
-21 79 -107 86 -65 5 -67 4 -50 -13z m104 -27 c13 -12 23 -33 23 -48 0 -31
-51 -90 -77 -90 -11 0 -24 -5 -29 -10 -8 -8 -14 -7 -22 3 -9 10 -7 22 7 48 10
19 22 50 26 69 4 19 9 38 12 43 8 14 37 7 60 -15z"/>
<path d="M12590 6910 l-35 -7 33 -2 c17 0 32 -3 32 -6 0 -3 -12 -23 -26 -45
-14 -22 -23 -44 -19 -51 5 -7 -2 -19 -16 -30 -23 -17 -23 -18 -5 -25 12 -5 21
-3 24 4 2 7 8 10 13 6 18 -11 8 -39 -21 -63 -17 -13 -30 -27 -30 -31 0 -13 37
0 55 20 15 16 17 16 53 0 54 -26 175 -36 192 -15 11 13 4 15 -58 15 -139 0
-164 17 -137 96 16 49 12 72 -10 54 -22 -18 -24 12 -3 42 17 25 17 50 0 47 -4
-1 -23 -5 -42 -9z m36 -122 c-3 -13 -6 -26 -6 -30 0 -19 -18 -5 -22 17 -6 27
-1 35 20 35 10 0 13 -7 8 -22z"/>
<path d="M12745 6908 c-95 -23 -93 -22 -47 -26 l42 -3 0 -70 c0 -55 -3 -69
-15 -69 -12 0 -15 13 -15 56 0 38 -4 54 -12 52 -12 -4 -20 -90 -12 -119 9 -33
154 -36 154 -3 0 16 -36 19 -45 4 -12 -20 -35 3 -35 36 0 32 2 34 35 34 37 0
44 10 22 29 -10 7 -17 7 -24 0 -17 -17 -33 -1 -33 32 0 22 5 29 19 29 28 0 52
11 45 21 -6 11 -25 10 -79 -3z"/>
<path d="M13262 6906 c-21 -10 -22 -15 -17 -82 5 -67 4 -72 -16 -77 -66 -17
48 -25 264 -18 24 1 21 21 -4 21 -17 0 -20 5 -15 28 3 15 6 50 8 77 2 44 0 50
-18 48 -86 -10 -105 -9 -100 4 3 7 -1 13 -9 13 -8 0 -15 -7 -15 -15 0 -8 -4
-15 -10 -15 -11 0 -14 -53 -3 -63 3 -4 12 -2 20 5 23 19 36 -5 28 -51 -4 -23
-11 -41 -17 -41 -7 0 -8 14 -5 35 5 30 3 35 -14 35 -14 0 -19 -7 -19 -29 0
-28 -22 -47 -41 -35 -17 10 -9 34 12 34 12 0 17 4 14 11 -4 6 -13 8 -21 5 -7
-3 -16 -1 -19 4 -9 15 7 40 27 40 11 0 16 5 13 10 -4 6 -15 8 -26 5 -30 -10
-24 24 7 35 14 6 22 14 19 20 -7 12 -12 11 -43 -4z m198 -36 c0 -17 -6 -19
-55 -18 -59 2 -70 18 -19 29 57 13 74 10 74 -11z m-12 -42 c19 -19 15 -40 -7
-33 -11 3 -22 1 -26 -5 -3 -5 2 -10 13 -10 20 0 38 -26 24 -33 -4 -3 -18 -3
-32 -2 -21 2 -25 7 -24 34 3 58 23 78 52 49z"/>
<path d="M14298 6898 c-2 -13 -10 -23 -18 -23 -12 0 -16 -20 -21 -100 -5 -94
2 -139 17 -102 7 18 64 24 64 7 0 -5 5 -10 10 -10 6 0 10 24 10 54 0 47 4 58
33 90 26 28 41 36 69 36 l35 0 -5 -72 c-6 -94 -15 -111 -52 -103 -16 3 -31 2
-35 -4 -4 -7 3 -11 17 -11 13 0 29 -5 34 -10 7 -7 16 -6 28 3 13 10 20 36 27
98 5 46 12 92 15 102 6 18 1 20 -58 17 -36 -1 -50 11 -28 25 17 10 11 25 -10
25 -14 0 -22 -11 -31 -42 -7 -24 -19 -50 -26 -58 -13 -13 -14 -11 -11 20 3 32
1 35 -20 32 -21 -3 -22 -1 -13 17 15 27 14 31 -8 31 -13 0 -21 -8 -23 -22z
m42 -73 c0 -32 -2 -35 -30 -35 -28 0 -30 3 -30 35 0 32 2 35 30 35 28 0 30 -3
30 -35z m-2 -87 c-2 -28 -8 -34 -30 -36 -26 -3 -28 -1 -28 32 0 33 2 36 31 36
28 0 30 -2 27 -32z"/>
<path d="M5015 6890 c10 -11 22 -20 27 -20 15 0 9 28 -8 34 -30 11 -37 6 -19
-14z"/>
<path d="M11747 6866 c-20 -25 -37 -49 -37 -55 0 -6 -8 -15 -18 -20 -19 -10
-72 -80 -72 -95 0 -4 10 -6 23 -4 13 2 22 10 22 20 0 24 25 46 55 50 20 2 26
-2 28 -20 2 -13 -3 -25 -12 -28 -28 -11 -17 -24 18 -24 35 0 55 13 36 25 -11
7 -14 118 -3 129 9 9 13 66 4 66 -4 0 -23 -20 -44 -44z m13 -40 c0 -26 -12
-46 -27 -46 -8 0 -12 6 -9 13 3 6 9 20 12 30 8 20 24 23 24 3z"/>
<path d="M11870 6899 c0 -4 5 -9 10 -11 15 -5 -27 -160 -47 -175 -15 -11 -15
-13 1 -19 31 -12 126 2 154 23 63 47 78 136 28 168 -23 14 -146 26 -146 14z
m105 -21 c26 -12 30 -22 26 -73 -2 -28 -49 -91 -59 -80 -3 3 -11 0 -18 -6 -24
-20 -47 -2 -40 31 6 33 53 140 60 140 3 0 17 -5 31 -12z"/>
<path d="M1974 6860 c1 -47 21 -54 31 -10 7 33 1 50 -19 50 -9 0 -13 -13 -12
-40z"/>
<path d="M4574 6889 c-3 -6 -37 -9 -80 -7 -41 2 -74 0 -74 -4 0 -4 23 -8 50
-8 l50 0 0 -71 0 -71 -30 6 c-21 4 -30 2 -30 -7 0 -15 54 -37 69 -28 6 4 12
43 13 89 l2 82 33 0 c18 0 33 4 33 9 0 13 -28 22 -36 10z"/>
<path d="M5567 6876 c-9 -13 -32 -34 -51 -46 -45 -27 -47 -46 -3 -24 40 21 87
64 87 81 0 20 -16 15 -33 -11z"/>
<path d="M13764 6885 c11 -9 15 -18 10 -27 -5 -7 -9 -15 -10 -18 -4 -25 -38
-127 -45 -136 -14 -17 8 -22 78 -16 57 4 64 7 77 33 18 36 4 48 -17 15 -17
-25 -75 -42 -90 -27 -13 13 19 81 38 81 8 0 15 -7 15 -15 0 -8 5 -15 10 -15 6
0 10 6 10 13 0 6 3 23 7 36 6 23 6 23 -21 6 -34 -23 -41 -15 -26 29 9 27 17
36 35 36 12 0 28 -7 35 -15 18 -22 30 -18 30 10 0 25 -1 25 -77 25 -69 -1 -76
-2 -59 -15z"/>
<path d="M13948 6875 c6 -33 -27 -157 -46 -172 -13 -11 -10 -13 23 -13 28 0
36 3 28 11 -7 7 -7 23 -1 50 11 42 34 51 62 24 16 -17 20 -13 30 28 7 30 -4
36 -24 12 -7 -8 -18 -15 -26 -15 -20 0 -27 19 -14 35 7 8 9 15 5 15 -4 0 -2 7
5 15 17 20 76 20 84 -1 8 -22 25 -8 19 16 -5 18 -14 20 -78 20 -72 0 -72 0
-67 -25z"/>
<path d="M3768 6873 c-76 -2 -128 -8 -128 -14 0 -6 54 -9 148 -7 89 2 147 7
147 13 0 12 -3 12 -167 8z"/>
<path d="M5780 6850 c-15 -28 4 -62 33 -58 16 2 23 11 25 32 5 44 -38 64 -58
26z m40 -20 c0 -21 -15 -27 -25 -10 -7 12 2 30 16 30 5 0 9 -9 9 -20z"/>
<path d="M11274 6826 c-3 -8 -4 -25 -2 -38 2 -17 9 -23 28 -23 22 0 25 4 25
34 0 28 -4 35 -23 37 -13 2 -25 -2 -28 -10z m41 -25 c7 -12 -12 -24 -25 -16
-11 7 -4 25 10 25 5 0 11 -4 15 -9z"/>
<path d="M10640 6815 c0 -12 33 -55 41 -55 15 0 10 26 -9 43 -19 17 -32 22
-32 12z"/>
<path d="M640 6785 c0 -8 7 -15 15 -15 8 0 15 7 15 15 0 8 -7 15 -15 15 -8 0
-15 -7 -15 -15z"/>
<path d="M3510 6788 c0 -18 18 -34 28 -24 3 4 -2 14 -11 23 -16 16 -17 16 -17
1z"/>
<path d="M14400 6793 c1 -13 38 -53 49 -53 17 0 13 25 -7 43 -19 18 -42 23
-42 10z"/>
<path d="M3413 6776 c4 -10 7 -22 7 -27 0 -5 5 -9 11 -9 15 0 7 43 -10 48 -10
3 -12 0 -8 -12z"/>
<path d="M8214 6754 c3 -8 6 -18 6 -20 0 -2 5 -4 10 -4 16 0 11 27 -6 34 -12
5 -15 2 -10 -10z"/>
<path d="M8120 6736 c0 -24 16 -43 27 -32 8 8 -6 56 -17 56 -6 0 -10 -11 -10
-24z"/>
<path d="M8160 6752 c0 -5 6 -16 13 -27 10 -13 16 -15 21 -6 4 6 2 18 -4 26
-13 16 -30 20 -30 7z"/>
<path d="M8067 6724 c-11 -14 -16 -28 -12 -32 7 -7 45 34 45 49 0 16 -15 9
-33 -17z"/>
<path d="M10940 6731 c0 -19 12 -41 20 -36 10 6 1 45 -11 45 -5 0 -9 -4 -9 -9z"/>
<path d="M10904 6716 c-4 -10 -2 -22 4 -28 8 -8 13 -7 18 6 4 10 2 22 -4 28
-8 8 -13 7 -18 -6z"/>
<path d="M10833 6695 c-8 -22 6 -33 17 -15 13 20 12 30 0 30 -6 0 -13 -7 -17
-15z"/>
<path d="M10870 6696 c0 -8 5 -18 10 -21 6 -3 10 3 10 14 0 12 -4 21 -10 21
-5 0 -10 -6 -10 -14z"/>
<path d="M13281 6690 c-13 -11 -29 -20 -37 -20 -8 0 -14 -4 -14 -10 0 -5 5
-10 11 -10 16 0 89 42 89 52 0 14 -24 8 -49 -12z"/>
<path d="M13390 6703 c0 -16 82 -55 93 -44 6 6 0 15 -14 24 -31 20 -79 32 -79
20z"/>
<path d="M1562 6528 c-7 -7 -12 -17 -12 -24 0 -7 -6 -14 -12 -17 -10 -3 -10
-10 2 -31 14 -26 13 -29 -8 -47 -26 -21 -20 -43 9 -34 13 5 19 2 19 -10 0 -9
-7 -15 -17 -13 -17 3 -30 -25 -32 -69 -2 -36 17 -27 25 12 10 55 28 56 22 2
-3 -25 -4 -48 -1 -51 15 -14 113 68 113 95 0 5 3 9 8 9 4 0 6 -18 4 -40 -3
-33 -8 -40 -26 -40 -20 -1 -20 -1 4 -14 14 -8 28 -12 32 -10 5 3 8 30 8 60 0
31 4 54 11 54 5 0 8 -3 6 -7 -8 -14 38 -88 56 -91 26 -5 21 27 -9 51 l-26 20
27 15 c19 10 24 17 17 24 -8 8 -16 8 -26 -1 -17 -15 -36 -7 -36 15 0 9 7 14
17 12 14 -2 19 7 23 45 6 50 -7 76 -27 56 -16 -16 -37 -1 -24 15 11 13 5 26
-11 26 -5 0 -13 -12 -18 -26 -9 -22 -13 -24 -26 -13 -13 11 -15 5 -12 -47 3
-52 5 -59 26 -62 34 -5 26 -19 -15 -28 -23 -4 -31 -9 -20 -11 21 -5 22 -17 3
-32 -11 -9 -15 -6 -20 14 -4 14 -11 25 -16 25 -14 0 -13 -33 1 -47 12 -12 4
-33 -12 -33 -5 0 -9 23 -9 50 0 44 3 50 21 50 14 0 19 5 17 18 -2 12 -11 16
-33 14 l-30 -3 33 30 c17 17 32 33 32 36 0 11 -39 4 -42 -7 -3 -7 -10 -8 -17
-4 -9 6 -7 14 10 32 15 16 19 28 13 34 -7 7 -14 6 -22 -2z m178 -58 c0 -5 -18
-10 -40 -10 -22 0 -40 5 -40 10 0 6 18 10 40 10 22 0 40 -4 40 -10z m0 -40 c0
-5 -18 -10 -40 -10 -22 0 -40 5 -40 10 0 6 18 10 40 10 22 0 40 -4 40 -10z"/>
<path d="M1896 6533 c-3 -4 -6 -22 -6 -41 0 -27 -3 -33 -16 -28 -9 3 -21 3
-27 -1 -8 -5 -2 -10 15 -13 l27 -5 -24 -50 c-27 -57 -30 -68 -13 -63 6 2 17
20 24 39 12 32 13 29 13 -48 1 -48 5 -83 11 -83 6 0 10 33 10 79 0 77 15 117
27 72 6 -24 23 -28 23 -6 0 8 -11 22 -25 31 -33 22 -32 34 5 34 30 0 40 13 20
25 -6 4 -17 1 -25 -5 -12 -10 -16 -9 -21 5 -4 9 -2 21 5 28 6 6 11 14 11 18 0
10 -27 19 -34 12z"/>
<path d="M1228 6522 c-37 -3 -48 -14 -28 -27 6 -4 17 -1 25 5 23 19 19 -12 -6
-54 l-21 -36 33 7 c31 6 32 5 25 -23 -10 -41 -26 -54 -26 -21 0 34 -13 35 -30
2 -14 -26 -5 -50 9 -26 6 10 10 9 15 -5 4 -11 -2 -26 -19 -44 -25 -26 -33 -50
-16 -50 5 0 18 11 29 25 24 30 25 30 60 6 17 -12 52 -21 97 -25 70 -6 103 2
91 23 -9 14 -36 14 -36 0 0 -7 -7 -8 -17 -4 -10 5 -36 9 -58 9 -39 2 -105 29
-105 44 0 4 7 18 16 30 8 12 19 36 24 52 8 29 7 30 -22 30 l-30 0 22 36 c24
43 19 50 -32 46z"/>
<path d="M1390 6518 c-14 -5 -41 -11 -60 -12 -22 -2 -35 -8 -35 -17 0 -10 10
-13 33 -11 l32 4 0 -77 c0 -57 -3 -76 -12 -72 -9 2 -13 24 -13 60 0 40 -3 57
-12 57 -9 0 -13 -18 -13 -60 0 -56 2 -61 27 -71 33 -12 120 -8 113 6 -3 6 -17
9 -32 7 -16 -1 -28 1 -29 5 0 5 -2 20 -4 35 -4 28 8 42 35 43 8 0 15 5 15 10
0 6 -10 9 -21 7 -16 -2 -23 4 -27 24 -4 21 1 28 29 42 56 26 33 45 -26 20z"/>
<path d="M2300 6506 c0 -23 -2 -23 -60 -19 -40 3 -60 1 -60 -6 0 -6 16 -11 35
-11 44 0 44 -12 0 -47 -38 -30 -44 -43 -20 -43 22 0 87 61 81 76 -4 11 13 14
84 14 53 0 90 4 90 10 0 10 -16 15 -35 10 -5 -1 -27 -4 -47 -5 -34 -2 -38 0
-38 21 0 15 -6 24 -15 24 -9 0 -15 -9 -15 -24z"/>
<path d="M2550 6499 c0 -28 -2 -31 -25 -25 -14 4 -25 2 -25 -4 0 -5 9 -10 20
-10 16 0 20 -7 20 -32 -1 -41 -17 -116 -32 -145 -6 -13 -8 -26 -5 -29 14 -14
36 20 43 64 4 26 11 58 16 71 8 23 10 23 26 8 14 -14 14 -21 4 -37 -6 -11 -12
-36 -12 -55 0 -28 -4 -35 -20 -35 -24 0 -26 -15 -3 -24 27 -11 53 25 60 82 4
35 10 52 20 52 7 0 18 10 24 23 22 48 41 77 50 77 5 0 9 -5 9 -11 0 -6 11 -24
24 -40 13 -15 26 -34 29 -41 4 -10 7 -11 18 0 11 10 7 19 -23 50 -20 20 -38
46 -40 57 -2 12 -11 20 -23 20 -11 0 -21 -9 -25 -20 -12 -44 -42 -87 -52 -77
-6 6 -24 8 -39 5 -25 -5 -29 -2 -29 16 0 19 5 21 36 19 25 -2 39 2 42 11 4 11
-3 12 -32 7 -35 -7 -36 -7 -30 24 5 23 3 30 -10 30 -11 0 -16 -9 -16 -31z"/>
<path d="M1980 6378 c0 -110 3 -139 12 -130 7 7 30 12 53 12 23 0 46 -5 53
-12 7 -7 12 -10 13 -7 0 2 2 66 4 142 l5 137 -70 0 -70 0 0 -142z m110 86 c0
-23 -3 -25 -42 -22 -36 2 -44 7 -46 26 -3 20 1 22 42 22 43 0 46 -2 46 -26z
m0 -69 c0 -35 0 -35 -45 -35 -45 0 -45 0 -45 35 0 35 0 35 45 35 45 0 45 0 45
-35z m-2 -77 c-3 -30 -5 -32 -43 -33 -38 0 -40 2 -43 33 -3 32 -3 32 43 32 46
0 46 0 43 -32z"/>
<path d="M4212 6508 c-7 -7 -12 -18 -12 -25 0 -7 -9 -27 -20 -45 -11 -18 -20
-43 -20 -55 0 -19 5 -23 34 -23 19 0 38 -4 41 -10 3 -5 1 -10 -4 -10 -6 0 -11
-9 -11 -21 0 -11 -13 -34 -30 -51 -34 -33 -36 -38 -16 -38 8 0 29 17 46 37
l33 37 23 -29 c20 -26 24 -27 30 -11 4 11 -2 26 -20 45 -34 35 -33 48 4 53
l30 5 0 -69 c0 -64 13 -89 26 -53 7 18 60 20 67 3 10 -28 15 2 19 107 l3 110
-57 1 -58 1 0 -38 c0 -30 -3 -37 -15 -33 -8 4 -15 1 -15 -5 0 -6 -7 -11 -16
-11 -26 0 -14 54 14 58 12 2 22 7 22 12 0 14 -19 22 -32 13 -19 -12 -58 -11
-58 2 0 6 5 16 12 23 8 8 9 15 2 22 -7 7 -14 6 -22 -2z m198 -148 c0 -89 0
-90 -24 -90 -34 0 -38 10 -40 101 l-1 79 33 0 32 0 0 -90z m-179 70 c5 -40 3
-45 -23 -48 -30 -4 -35 7 -16 38 13 21 37 27 39 10z"/>
<path d="M4050 6500 c-8 -5 -61 -10 -118 -10 -59 0 -101 -4 -98 -9 4 -5 51 -8
106 -8 l100 2 0 -32 0 -33 -86 0 c-81 0 -86 1 -81 20 4 14 0 20 -11 20 -15 0
-17 -13 -17 -95 0 -54 5 -99 11 -105 7 -7 52 -10 125 -8 l114 3 1 43 c0 50
-12 55 -24 10 l-8 -33 -97 -3 -97 -3 0 62 0 61 95 -4 94 -3 7 51 c8 67 4 86
-16 74z"/>
<path d="M13510 6496 c-17 -17 -11 -27 15 -20 39 10 41 -18 6 -70 -17 -24 -31
-47 -31 -51 0 -12 84 0 88 13 3 9 -4 13 -19 12 -38 -3 -39 -1 -14 26 27 29 33
75 13 91 -17 13 -44 13 -58 -1z"/>
<path d="M3087 6479 c-28 -16 -67 -86 -67 -119 0 -16 3 -30 8 -30 4 0 12 -10
17 -22 6 -13 15 -23 20 -24 6 0 18 -4 27 -8 11 -5 34 -2 55 7 31 12 40 22 49
53 6 21 16 40 22 42 24 8 11 19 -22 18 -31 -1 -66 -16 -38 -16 17 0 15 -46 -4
-64 -20 -20 -43 -20 -72 0 -17 11 -22 25 -22 56 0 80 107 144 135 81 11 -26
25 -30 25 -9 0 8 3 21 6 30 5 14 -3 16 -57 16 -35 0 -72 -5 -82 -11z"/>
<path d="M4770 6471 c0 -6 5 -11 10 -11 12 0 13 -37 1 -44 -4 -3 -16 -33 -25
-66 -9 -33 -21 -60 -27 -60 -5 0 -9 -7 -9 -16 0 -14 10 -16 69 -12 99 7 150
51 151 129 0 59 -24 80 -103 86 -47 4 -67 2 -67 -6z m119 -31 c20 -18 23 -26
17 -61 -6 -40 -37 -78 -64 -79 -7 0 -21 -6 -32 -12 -25 -16 -50 3 -33 24 6 7
16 33 23 57 26 98 41 110 89 71z"/>
<path d="M5010 6450 c0 -15 -4 -30 -9 -35 -4 -6 -14 -32 -20 -60 -7 -27 -19
-60 -27 -72 -14 -22 -13 -23 21 -23 34 0 46 12 25 25 -6 4 -6 12 -1 23 5 9 12
25 15 35 3 10 15 17 31 17 17 0 25 -6 26 -17 0 -10 7 0 15 21 10 27 11 43 4
50 -7 7 -10 5 -10 -6 0 -17 -36 -35 -47 -24 -3 3 -2 20 4 38 8 30 12 33 48 32
22 -1 41 -7 43 -13 6 -19 22 -12 22 9 0 22 0 22 -82 24 -56 1 -58 0 -58 -24z"/>
<path d="M6820 6469 c0 -5 16 -9 36 -9 l37 0 -7 -60 c-7 -60 -31 -114 -69
-157 -28 -32 -12 -42 19 -12 31 29 64 90 64 119 0 12 5 18 10 15 6 -3 10 -14
10 -24 0 -9 9 -27 20 -39 11 -12 20 -24 20 -26 0 -9 -78 -46 -95 -46 -8 0 -15
-4 -15 -10 0 -16 27 -12 72 10 51 25 59 25 103 1 20 -10 45 -17 55 -14 24 6
26 23 3 23 -28 0 -83 23 -83 35 0 6 4 15 9 21 5 5 19 26 30 47 21 38 20 59 -2
56 -32 -4 -36 1 -26 33 5 18 9 36 9 40 0 5 -45 8 -100 7 -55 0 -100 -5 -100
-10z m170 -28 c0 -23 -24 -44 -56 -47 -21 -2 -24 1 -24 32 0 33 1 34 40 34 32
0 40 -4 40 -19z m21 -103 c-27 -43 -46 -46 -65 -9 -9 16 -16 32 -16 36 0 3 23
5 51 5 l51 0 -21 -32z"/>
<path d="M5417 6450 c7 -26 -26 -147 -43 -161 -23 -19 -16 -29 21 -29 33 0 35
2 29 25 -3 14 -3 37 0 51 5 20 12 25 34 22 15 -2 26 -9 25 -15 -6 -30 15 -10
25 24 13 42 7 57 -12 30 -7 -9 -21 -17 -31 -17 -13 0 -16 5 -11 23 3 12 6 28
6 35 0 7 15 12 40 12 22 0 40 -4 40 -10 0 -5 7 -10 15 -10 8 0 15 9 15 20 0
18 -7 20 -79 20 -74 0 -79 -1 -74 -20z"/>
<path d="M5606 6440 c-39 -34 -51 -71 -40 -125 9 -51 52 -72 113 -55 23 6 45
18 48 26 9 24 -5 29 -27 9 -11 -10 -20 -15 -20 -10 0 4 -6 2 -14 -4 -11 -9
-20 -10 -35 -1 -35 18 -44 47 -31 96 15 53 36 73 80 76 28 2 37 -1 45 -19 11
-26 25 -30 25 -9 0 8 3 21 6 30 5 14 -3 16 -55 16 -53 0 -64 -4 -95 -30z"/>
<path d="M6113 6458 c-13 -6 -23 -17 -23 -25 0 -15 16 -17 25 -3 3 6 17 10 31
10 19 0 24 -5 24 -25 0 -15 -8 -29 -22 -36 l-22 -12 27 -14 c32 -16 34 -32 7
-63 -16 -19 -22 -20 -35 -10 -8 7 -22 9 -31 6 -13 -5 -14 -9 -4 -21 14 -17 53
-20 80 -5 21 11 54 70 39 70 -5 0 -9 9 -9 19 0 11 -5 21 -11 23 -7 2 -7 11 1
30 24 52 -19 84 -77 56z"/>
<path d="M6460 6404 c-27 -37 -50 -73 -50 -80 0 -10 14 -14 45 -14 43 0 45 -1
45 -30 0 -20 5 -30 15 -30 8 0 15 9 15 20 0 11 9 28 19 37 21 18 19 35 -3 27
-10 -4 -13 9 -14 53 0 80 -1 83 -12 83 -5 0 -32 -30 -60 -66z m36 -60 c-5 -13
-46 -21 -46 -9 0 2 10 24 23 47 l22 43 3 -33 c2 -19 1 -40 -2 -48z"/>
<path d="M7509 6448 c-16 -32 -120 -170 -139 -186 -13 -11 -11 -12 14 -10 19
2 30 9 32 21 4 28 24 47 50 47 18 0 24 -5 24 -23 0 -13 -5 -28 -12 -35 -9 -9
-2 -12 33 -12 29 0 39 3 30 9 -11 7 -12 27 -7 97 4 49 8 92 9 97 4 21 -22 17
-34 -5z m-12 -105 c-3 -3 -13 -3 -21 -1 -15 3 -15 6 1 28 l18 25 3 -23 c2 -13
1 -26 -1 -29z"/>
<path d="M9850 6454 c0 -10 -6 -13 -17 -10 -10 3 -31 2 -48 -3 -28 -9 -27 -9
17 -10 40 -1 47 -4 51 -23 l4 -23 8 23 c11 33 68 28 73 -6 4 -26 22 -20 22 9
0 16 7 19 45 19 25 0 45 5 45 11 0 7 -16 8 -45 3 -39 -5 -44 -4 -39 10 5 12 0
16 -22 15 -16 0 -23 -3 -16 -6 24 -10 11 -23 -23 -23 -26 0 -33 3 -29 15 4 9
0 15 -10 15 -9 0 -16 -7 -16 -16z"/>
<path d="M2350 6449 c0 -6 9 -13 20 -16 11 -3 20 -10 20 -15 0 -6 -7 -7 -15
-4 -11 4 -22 -6 -36 -29 -26 -43 -34 -44 -48 -5 -12 37 -21 37 -50 4 -16 -18
-20 -29 -12 -37 7 -7 12 -5 17 6 9 23 27 21 43 -4 12 -20 10 -24 -16 -45 -15
-13 -43 -29 -60 -36 -18 -7 -33 -16 -33 -20 0 -21 66 5 103 40 l27 26 28 -21
c48 -36 87 -52 102 -43 17 11 20 8 -53 43 -32 15 -57 31 -55 35 25 50 33 62
46 67 8 3 20 1 27 -5 18 -15 27 13 12 34 -16 20 -67 39 -67 25z"/>
<path d="M7617 6448 c9 -11 7 -32 -10 -97 -13 -45 -30 -87 -38 -92 -9 -6 11
-9 60 -9 72 0 74 1 112 39 34 33 39 45 39 83 0 69 -15 82 -101 86 -63 4 -72 2
-62 -10z m117 -30 c18 -25 22 -78 6 -78 -5 0 -10 -8 -10 -19 0 -24 -21 -41
-65 -51 -40 -9 -57 8 -35 35 7 8 10 24 7 35 -3 11 -1 20 3 20 5 0 12 15 15 33
4 17 9 35 12 40 9 15 53 6 67 -15z"/>
<path d="M8038 6453 c6 -2 12 -11 12 -20 0 -22 -41 -156 -53 -170 -10 -13 23
-18 98 -13 96 5 153 155 74 195 -16 9 -53 15 -86 14 -32 0 -52 -3 -45 -6z
m108 -21 c33 -21 27 -95 -10 -135 -20 -22 -96 -45 -96 -29 0 16 22 89 36 119
8 17 14 36 14 42 0 12 39 15 56 3z"/>
<path d="M8280 6442 c-26 -12 -39 -28 -48 -57 -27 -81 6 -145 75 -145 51 0 70
15 78 60 4 24 12 40 20 40 8 0 17 5 20 10 4 6 -12 10 -41 10 -39 0 -45 -2 -35
-14 8 -10 9 -25 3 -48 -17 -67 -102 -37 -102 37 0 51 50 105 97 105 26 0 36
-5 40 -20 6 -23 33 -27 33 -6 0 8 3 21 6 30 9 23 -99 22 -146 -2z"/>
<path d="M8774 6445 c-11 -8 -14 -15 -6 -15 16 0 17 -161 0 -178 -9 -9 -3 -12
27 -12 30 0 36 3 27 12 -8 8 -12 47 -12 110 0 54 -4 98 -8 98 -5 0 -17 -7 -28
-15z"/>
<path d="M9068 6446 c-24 -10 -25 -13 -11 -22 22 -14 19 -141 -4 -166 -15 -17
-13 -18 27 -18 36 0 41 2 31 14 -8 9 -12 47 -10 106 1 50 0 92 -2 94 -2 2 -16
-2 -31 -8z"/>
<path d="M11470 6435 c-9 -18 -19 -23 -32 -19 -17 5 -18 -3 -18 -105 0 -67 4
-111 10 -111 6 0 10 7 10 15 0 17 55 21 65 5 15 -24 25 -6 25 46 0 46 5 61 30
92 25 32 36 38 67 37 l38 0 -1 -65 c0 -36 -4 -78 -8 -94 -6 -25 -10 -28 -36
-22 -36 7 -50 -9 -15 -18 14 -4 25 -11 25 -17 0 -21 49 37 56 66 14 63 19 157
10 163 -6 3 -29 5 -53 3 -44 -3 -53 5 -31 27 16 16 1 29 -18 17 -9 -6 -15 -12
-13 -15 3 -7 -40 -90 -47 -90 -3 0 -4 15 -2 33 3 28 0 32 -19 30 -23 -3 -31
11 -13 22 14 9 12 25 -3 25 -8 0 -20 -11 -27 -25z m38 -73 c3 -32 2 -33 -30
-30 -53 5 -49 67 5 64 17 -1 23 -8 25 -34z m0 -79 c-3 -35 -6 -38 -35 -41 -32
-3 -33 -2 -33 37 0 40 1 41 36 41 35 0 35 -1 32 -37z"/>
<path d="M11887 6452 c-86 -1 -136 -6 -132 -12 3 -6 33 -10 66 -10 60 0 70 -8
50 -39 -6 -10 -21 -12 -50 -8 l-41 5 -1 -89 c-1 -49 -2 -95 -3 -101 -1 -7 7
-14 17 -16 9 -2 17 1 17 7 0 18 175 14 190 -4 23 -28 30 -4 30 100 l0 104 -54
-6 c-30 -3 -62 -3 -72 1 -16 6 -16 8 1 26 14 16 31 20 82 20 46 0 63 4 61 12
-5 15 4 14 -161 10z m-42 -163 c0 -62 -3 -74 -17 -77 -16 -3 -18 5 -18 71 0
40 3 77 7 81 19 18 28 -6 28 -75z m90 61 c0 -10 -12 -16 -32 -18 -32 -3 -45
13 -26 32 13 12 58 2 58 -14z m60 -60 c0 -68 -2 -75 -20 -75 -18 0 -20 7 -22
65 -2 79 2 92 24 88 15 -3 18 -15 18 -78z m-67 8 c-2 -17 -10 -23 -28 -23 -18
0 -26 6 -28 23 -3 19 1 22 28 22 27 0 31 -3 28 -22z m2 -63 c0 -21 -5 -25 -30
-25 -25 0 -30 4 -30 25 0 21 5 25 30 25 25 0 30 -4 30 -25z"/>
<path d="M12160 6450 c-8 -5 -28 -10 -43 -10 -17 0 -26 -4 -22 -10 4 -6 16
-10 28 -8 16 2 22 -2 22 -17 0 -14 -8 -21 -28 -23 -31 -4 -27 -22 4 -22 17 0
19 -4 13 -22 -4 -13 -18 -37 -31 -55 -15 -19 -20 -34 -14 -38 6 -3 20 9 31 27
22 37 22 37 20 -47 -1 -47 1 -57 11 -48 7 8 12 39 11 85 -1 62 1 70 12 56 7
-10 16 -18 20 -18 13 0 5 21 -13 37 -25 21 -19 32 13 26 23 -5 24 -8 22 -79
-1 -61 -4 -75 -18 -80 -10 -3 -18 -9 -18 -13 0 -17 13 -18 38 -5 15 8 33 14
40 14 8 0 12 6 9 13 -2 6 -11 11 -18 9 -8 -2 -10 0 -6 5 11 10 77 11 70 0 -6
-9 37 -46 55 -47 6 0 12 6 12 14 0 8 -6 16 -12 19 -9 2 -12 23 -10 69 l4 66
-64 -4 c-53 -3 -58 -2 -33 6 17 6 51 9 78 6 45 -5 64 5 32 18 -17 6 -21 46 -5
46 6 0 10 5 10 11 0 8 -12 10 -35 6 -26 -4 -35 -2 -35 9 0 8 -7 14 -15 14 -8
0 -15 -4 -15 -10 0 -5 -16 -10 -35 -10 -47 0 -45 -20 3 -21 l37 -2 -35 -6
c-23 -4 -31 -9 -22 -14 6 -5 16 -6 21 -3 5 3 14 -1 21 -9 11 -13 8 -15 -16
-15 -16 0 -38 7 -48 15 -16 12 -22 12 -28 2 -5 -7 -8 -2 -8 16 0 15 7 30 15
33 8 4 15 10 15 15 0 12 -21 11 -40 -1z m173 -37 c-7 -2 -21 -2 -30 0 -10 3
-4 5 12 5 17 0 24 -2 18 -5z m12 -33 c4 -6 -7 -10 -25 -10 -18 0 -29 4 -25 10
3 6 15 10 25 10 10 0 22 -4 25 -10z m-32 -57 c-13 -2 -35 -2 -50 0 -16 2 -5 4
22 4 28 0 40 -2 28 -4z m15 -35 c-3 -8 -21 -13 -43 -13 -22 0 -40 5 -42 13 -3
8 9 12 42 12 33 0 45 -4 43 -12z m-15 -35 c-13 -2 -35 -2 -50 0 -16 2 -5 4 22
4 28 0 40 -2 28 -4z"/>
<path d="M12605 6450 c-16 -4 -51 -8 -77 -9 -27 0 -48 -5 -48 -10 0 -5 -12
-24 -27 -42 l-27 -32 27 5 c25 5 27 3 27 -31 0 -52 -18 -109 -38 -120 -26 -15
-8 -23 29 -13 25 6 35 14 37 33 4 24 3 24 -13 4 -15 -18 -16 -18 -11 -2 3 10
6 23 6 28 0 5 45 9 101 9 l101 0 -7 -27 c-3 -16 -10 -32 -15 -36 -11 -12 -50
2 -50 17 0 8 -7 19 -15 26 -12 10 -15 10 -15 -2 0 -18 28 -51 56 -66 27 -14
47 6 63 63 15 55 15 55 -21 55 -30 0 -31 0 -13 20 16 17 16 20 2 26 -9 3 -21
3 -27 -1 -6 -4 -10 4 -10 19 0 29 -19 44 -31 25 -8 -12 -11 -12 -19 1 -17 27
-11 40 20 40 23 0 35 -8 52 -35 13 -19 26 -35 31 -35 15 0 6 25 -20 52 -24 25
-25 28 -7 28 16 0 17 2 4 10 -17 11 -22 11 -65 0z m-50 -49 c0 -8 -12 -15 -27
-17 -29 -3 -44 9 -33 27 10 15 60 7 60 -10z m63 -43 c-7 -19 -118 -20 -118 -2
0 10 16 14 61 14 44 0 60 -3 57 -12z m22 -43 c0 -12 -14 -15 -70 -15 -56 0
-70 3 -70 15 0 12 14 15 70 15 56 0 70 -3 70 -15z"/>
<path d="M14269 6445 c-1 0 -3 -46 -5 -102 -4 -94 3 -122 21 -93 4 6 22 8 43
4 20 -4 41 -7 47 -8 5 0 10 36 11 84 1 47 3 91 5 99 4 13 -22 16 -122 16z m99
-42 c-2 -13 -13 -18 -38 -18 -25 0 -36 5 -38 18 -3 14 4 17 38 17 34 0 41 -3
38 -17z m-3 -53 c0 -18 -62 -27 -77 -12 -17 17 0 29 39 27 26 0 38 -5 38 -15z
m0 -55 c0 -15 -8 -21 -34 -23 -37 -4 -57 9 -48 31 3 9 19 14 44 13 31 -1 38
-5 38 -21z"/>
<path d="M14490 6324 l0 -125 -25 3 c-33 4 -34 -14 -2 -32 40 -22 47 -4 47
132 0 64 3 123 6 132 4 11 1 16 -10 16 -14 0 -16 -17 -16 -126z"/>
<path d="M10381 6397 c-30 -54 -72 -159 -66 -165 5 -5 178 -3 183 3 2 2 -7 23
-21 47 -14 24 -33 69 -43 101 -10 31 -20 57 -23 57 -3 0 -17 -19 -30 -43z m47
-87 l21 -60 -55 0 c-31 0 -54 4 -52 9 12 32 54 110 60 111 3 0 15 -27 26 -60z"/>
<path d="M10585 6426 c18 -13 18 -15 3 -47 -10 -19 -22 -57 -28 -86 -8 -33
-18 -53 -28 -56 -10 -3 18 -5 60 -6 73 -1 79 1 112 30 45 39 56 88 31 135 -20
37 -38 44 -114 44 -49 0 -53 -1 -36 -14z m115 -26 c24 -24 25 -51 5 -95 -16
-33 -40 -49 -87 -59 -31 -7 -43 6 -29 31 14 24 41 110 41 128 0 22 46 19 70
-5z"/>
<path d="M10815 6419 c4 -11 0 -35 -8 -52 -8 -18 -18 -51 -22 -75 -4 -24 -13
-46 -21 -49 -26 -10 -14 -23 20 -23 37 0 56 14 31 24 -12 4 -12 9 0 33 8 15
15 34 15 41 0 6 9 12 20 12 11 0 20 -7 20 -15 0 -23 17 -18 24 8 11 43 8 49
-19 31 -32 -21 -36 -17 -28 29 5 35 7 37 45 37 25 0 41 -5 44 -15 8 -20 24 -9
24 16 0 17 -7 19 -76 19 -72 0 -75 -1 -69 -21z"/>
<path d="M11027 6431 c-30 -11 -77 -90 -77 -128 0 -50 37 -83 94 -83 51 0 71
15 81 61 4 17 13 33 21 36 28 10 13 23 -26 23 -36 0 -39 -2 -29 -18 8 -13 9
-28 2 -48 -8 -24 -16 -30 -45 -32 -62 -5 -84 40 -54 112 18 42 51 66 93 66 27
0 35 -5 44 -27 11 -29 23 -22 33 20 l6 27 -62 -1 c-35 0 -71 -4 -81 -8z"/>
<path d="M12918 6429 c-10 -5 -18 -20 -18 -32 1 -20 2 -21 14 -4 16 21 42 22
50 1 7 -17 -10 -54 -24 -54 -18 0 -10 -18 11 -23 16 -4 20 -12 17 -39 -3 -31
-5 -33 -45 -36 -48 -4 -56 -16 -18 -26 33 -8 72 11 93 45 14 25 14 29 -7 57
-13 19 -17 33 -11 37 18 11 11 64 -9 75 -24 12 -31 12 -53 -1z"/>
<path d="M14437 6423 c-4 -3 -7 -39 -7 -79 0 -40 -4 -76 -10 -79 -17 -10 -11
-25 9 -25 18 0 20 9 23 88 3 84 -1 110 -15 95z"/>
<path d="M3447 6402 c-30 -33 4 -72 47 -56 12 5 16 16 14 38 -4 38 -35 47 -61
18z m43 -28 c0 -18 -14 -18 -29 0 -9 11 -9 15 1 19 17 6 28 -1 28 -19z"/>
<path d="M5236 6411 c-9 -14 4 -41 20 -41 8 0 14 10 14 25 0 25 -23 35 -34 16z"/>
<path d="M2686 6402 c-3 -5 10 -23 28 -41 26 -25 35 -29 39 -17 6 16 -58 72
-67 58z"/>
<path d="M6296 6401 c-9 -15 23 -36 36 -23 5 5 7 15 4 21 -9 13 -33 14 -40 2z"/>
<path d="M7866 6394 c-8 -20 1 -34 20 -34 15 0 17 9 8 34 -8 20 -20 20 -28 0z"/>
<path d="M8924 6386 c-7 -19 3 -36 22 -36 10 0 14 8 12 22 -4 26 -26 36 -34
14z"/>
<path d="M9873 6380 c-5 -17 -14 -20 -65 -20 -41 0 -57 -3 -52 -11 4 -7 24 -9
50 -6 59 6 57 -10 -8 -67 -51 -44 -49 -66 2 -26 35 28 40 25 40 -20 0 -38 12
-52 25 -30 8 13 112 13 120 0 12 -20 21 -1 23 52 l2 53 -76 -3 c-69 -4 -76 -3
-71 13 4 9 7 19 7 21 0 2 41 4 91 4 68 0 90 3 86 13 -3 8 -26 11 -81 8 -76 -3
-78 -2 -71 18 4 13 2 21 -5 21 -7 0 -14 -9 -17 -20z m110 -134 c-5 -23 -9 -25
-64 -24 -55 1 -59 2 -59 24 0 23 3 24 64 24 62 0 63 -1 59 -24z"/>
<path d="M5840 6370 c0 -6 35 -10 85 -10 50 0 85 4 85 10 0 6 -35 10 -85 10
-50 0 -85 -4 -85 -10z"/>
<path d="M8522 6358 c3 -9 27 -13 76 -13 99 0 97 19 -1 23 -61 2 -78 0 -75
-10z"/>
<path d="M9377 6363 c-13 -12 -7 -51 9 -57 27 -10 43 -7 54 13 15 29 2 51 -29
51 -15 0 -31 -3 -34 -7z m51 -25 c-6 -18 -28 -21 -28 -4 0 9 7 16 16 16 9 0
14 -5 12 -12z"/>
<path d="M13127 6358 c-31 -11 -42 -42 -33 -91 8 -43 57 -65 93 -42 13 9 23
23 23 32 0 14 -2 14 -21 -3 -27 -25 -53 -8 -57 38 -4 44 23 72 43 45 7 -9 17
-17 24 -17 18 0 13 28 -8 40 -23 12 -27 12 -64 -2z"/>
<path d="M13382 6361 c-8 -4 -45 -6 -83 -4 -62 3 -86 -5 -61 -21 5 -3 5 -30 2
-61 -5 -43 -3 -58 7 -62 21 -8 26 2 27 64 1 51 3 58 21 58 16 0 21 -8 23 -43
2 -24 -2 -50 -9 -58 -10 -12 -5 -14 26 -14 31 0 35 2 26 14 -7 8 -10 31 -7 52
2 22 5 42 5 47 1 4 10 7 22 7 19 0 20 -5 18 -62 -2 -54 0 -63 15 -66 10 -2 23
1 29 7 8 8 8 11 -1 11 -8 0 -12 19 -12 54 0 36 -5 60 -16 70 -18 19 -15 18
-32 7z"/>
<path d="M11570 6341 c0 -5 6 -11 14 -14 8 -3 16 -16 18 -28 2 -12 9 -24 16
-27 20 -6 14 36 -8 58 -21 21 -40 26 -40 11z"/>
<path d="M13850 6336 c0 -8 5 -16 11 -18 9 -3 9 -10 0 -27 -7 -12 -10 -26 -6
-29 11 -11 45 38 45 64 0 19 -5 24 -25 24 -15 0 -25 -6 -25 -14z"/>
<path d="M2662 6322 c4 -11 84 -82 92 -82 3 0 6 7 6 15 0 8 -20 28 -44 45 -45
30 -60 37 -54 22z"/>
<path d="M5842 6318 c6 -17 160 -17 165 0 4 9 -17 12 -82 12 -63 0 -86 -3 -83
-12z"/>
<path d="M8523 6307 c-8 -14 0 -16 70 -18 41 -1 72 2 79 9 7 7 10 12 8 13 -33
5 -153 2 -157 -4z"/>
<path d="M5235 6290 c-8 -14 3 -30 21 -30 8 0 14 9 14 20 0 21 -24 28 -35 10z"/>
<path d="M6302 6287 c-7 -8 -7 -18 -2 -27 8 -13 11 -13 25 1 14 13 14 17 2 27
-11 10 -17 9 -25 -1z"/>
<path d="M7872 6281 c-14 -8 -6 -41 9 -41 14 0 23 30 13 40 -5 5 -15 6 -22 1z"/>
<path d="M8927 6274 c-14 -15 -6 -34 14 -34 14 0 19 5 17 17 -3 18 -20 27 -31
17z"/>
<path d="M12630 6253 c0 -14 19 -38 25 -32 8 8 -5 39 -16 39 -5 0 -9 -3 -9 -7z"/>
<path d="M12538 6225 c2 -14 11 -25 18 -25 19 0 18 36 -2 44 -22 8 -22 9 -16
-19z"/>
<path d="M14268 6210 c-28 -28 -36 -50 -19 -50 5 0 11 7 15 15 3 8 12 15 19
15 14 0 47 31 47 43 0 16 -37 2 -62 -23z"/>
<path d="M14350 6237 c0 -18 25 -57 37 -57 20 0 16 14 -12 40 -14 13 -25 21
-25 17z"/>
<path d="M1560 6075 c-5 -13 -18 -30 -30 -37 -23 -15 -26 -28 -7 -28 19 0 80
67 73 79 -12 18 -26 12 -36 -14z"/>
<path d="M2326 6082 c-6 -18 -11 -20 -27 -12 -17 10 -19 7 -19 -36 0 -41 2
-46 20 -41 11 3 22 1 25 -3 3 -5 -12 -10 -32 -12 -35 -3 -38 -6 -41 -35 -3
-29 -1 -32 30 -35 l33 -3 -22 -22 c-13 -13 -32 -23 -43 -23 -17 0 -20 7 -20
52 0 40 -3 49 -12 40 -7 -7 -20 -12 -31 -12 -10 0 -15 -5 -12 -10 4 -6 11 -8
16 -5 5 4 9 -10 9 -29 0 -26 -5 -36 -20 -41 -21 -7 -27 -30 -11 -40 5 -3 16 3
23 13 16 21 25 21 58 0 21 -14 124 -25 188 -19 29 2 9 21 -23 21 -38 0 -42 5
-20 34 22 30 19 35 -27 39 -37 3 -35 4 15 5 31 1 57 7 57 12 0 6 -4 10 -10 10
-5 0 -10 7 -10 15 0 8 6 14 13 13 6 -2 12 4 12 12 0 8 -8 14 -17 14 -14 -1
-16 6 -11 47 5 39 3 49 -9 49 -8 0 -20 -6 -27 -12 -10 -11 -16 -8 -30 11 l-19
24 -6 -21z m69 -57 c6 -2 -14 -4 -43 -4 -29 -1 -51 3 -48 7 4 7 67 5 91 -3z
m-5 -30 c11 -13 8 -15 -13 -15 -19 0 -25 4 -21 15 4 8 10 15 14 15 4 0 13 -7
20 -15z m-90 -40 c0 -8 -7 -15 -15 -15 -16 0 -20 12 -8 23 11 12 23 8 23 -8z
m58 -2 c2 -7 -3 -13 -12 -13 -9 0 -16 -4 -16 -10 0 -5 -10 -10 -22 -10 -21 1
-21 2 -5 11 9 5 17 17 17 25 0 18 31 15 38 -3z m42 7 c0 -5 -4 -10 -10 -10 -5
0 -10 5 -10 10 0 6 5 10 10 10 6 0 10 -4 10 -10z m-2 -37 c-10 -2 -26 -2 -35
0 -10 3 -2 5 17 5 19 0 27 -2 18 -5z m-28 -48 c-3 -5 -14 -9 -25 -7 -15 2 -17
0 -7 -10 22 -22 13 -34 -23 -30 -42 5 -44 14 -8 42 26 21 73 24 63 5z"/>
<path d="M1308 6082 c-99 -2 -118 -5 -118 -18 0 -13 11 -15 58 -12 l57 3 3
-62 3 -63 -66 0 c-46 0 -64 -3 -59 -11 4 -8 26 -9 66 -5 l60 7 -4 -53 c-1 -29
2 -55 7 -58 6 -3 11 18 13 52 l3 58 61 -3 c41 -1 63 2 65 10 3 9 -12 11 -61 6
l-66 -6 0 62 0 61 61 0 c51 0 60 3 57 17 -4 20 3 19 -140 15z"/>
<path d="M1746 6083 c-4 -4 -34 -7 -68 -8 -40 0 -63 -4 -65 -12 -4 -10 16 -13
76 -13 64 0 81 3 81 14 0 17 -14 28 -24 19z"/>
<path d="M2190 6082 c0 -5 11 -19 25 -32 25 -23 25 -23 25 -2 0 12 -9 26 -19
32 -24 12 -31 13 -31 2z"/>
<path d="M2715 6057 c-16 -19 -39 -39 -50 -45 -32 -17 -11 -24 26 -8 38 16 69
48 69 71 0 23 -12 18 -45 -18z"/>
<path d="M1850 5950 c0 -72 4 -130 9 -130 5 0 11 5 13 11 2 6 43 11 101 12 76
1 100 -2 107 -13 5 -8 11 -12 13 -10 3 3 7 62 9 133 4 114 0 145 -16 118 -7
-11 -216 -11 -216 1 0 4 -4 8 -10 8 -6 0 -10 -50 -10 -130z m70 53 c0 -21 -9
-53 -20 -71 -28 -45 -25 -50 10 -17 30 29 56 97 45 115 -3 6 3 10 14 10 18 0
20 -8 23 -62 l3 -63 43 0 c40 0 43 -2 40 -25 -2 -14 -9 -25 -15 -24 -7 1 -53
2 -103 3 l-90 1 0 85 c0 84 0 85 25 85 22 0 25 -4 25 -37z m159 -20 c-1 -32
-3 -49 -6 -38 -7 30 -23 43 -23 19 0 -28 -10 -36 -27 -23 -7 7 -13 31 -13 55
0 44 0 44 35 44 l35 0 -1 -57z"/>
<path d="M2620 6071 c-8 -5 -39 -8 -68 -7 -35 2 -51 -1 -49 -8 2 -6 12 -10 21
-10 12 1 16 -7 16 -36 0 -33 -3 -37 -20 -33 -12 3 -20 0 -20 -7 0 -6 9 -14 20
-17 11 -3 20 -12 20 -21 0 -22 -22 -95 -33 -110 -5 -7 -7 -16 -3 -20 14 -13
45 43 52 93 8 60 10 66 29 58 11 -4 15 -23 15 -79 l0 -74 28 4 c41 4 83 30
125 75 40 43 44 51 25 51 -7 0 -26 -16 -42 -36 -29 -36 -81 -74 -103 -74 -8 0
-11 20 -9 68 3 54 7 66 19 64 24 -4 32 19 8 25 -26 7 -31 63 -6 63 8 0 15 9
15 20 0 21 -15 25 -40 11z m-16 -52 c7 -37 1 -49 -25 -49 -15 0 -19 7 -19 33
0 56 33 68 44 16z"/>
<path d="M4008 6050 c-8 -24 -15 -30 -29 -27 -18 5 -19 -2 -19 -104 0 -60 2
-109 5 -109 3 0 14 9 26 21 19 19 22 19 44 5 14 -9 27 -16 30 -16 3 0 5 24 5
54 0 47 4 58 33 90 27 29 41 36 71 36 l38 0 -7 -82 c-4 -46 -9 -86 -12 -90 -2
-5 -21 -8 -41 -8 -40 0 -35 -14 9 -25 34 -8 59 16 59 59 0 18 3 36 7 40 5 4 9
23 9 41 1 19 4 45 8 60 6 25 5 25 -49 25 -51 0 -72 11 -42 23 9 4 8 8 -3 16
-21 15 -30 14 -36 -6 -3 -10 -14 -36 -25 -58 -20 -40 -20 -40 -15 -7 5 29 3
32 -20 32 -23 0 -25 3 -20 24 9 37 -13 42 -26 6z m40 -77 c-3 -24 -8 -28 -33
-28 -25 0 -30 4 -33 28 -3 25 -1 27 33 27 34 0 36 -2 33 -27z m2 -83 c0 -28
-3 -30 -35 -30 -32 0 -35 2 -35 30 0 28 3 30 35 30 32 0 35 -2 35 -30z"/>
<path d="M4670 6049 c-50 -15 -53 -24 -8 -20 11 2 16 -5 15 -19 -1 -15 -7 -20
-24 -18 -12 2 -21 -1 -20 -7 1 -5 7 -9 14 -7 20 4 16 -39 -7 -73 -21 -32 -25
-45 -12 -45 5 0 15 11 22 25 7 14 17 25 22 25 12 0 10 -98 -2 -105 -18 -11 0
-24 28 -20 45 5 112 27 112 37 0 12 -23 10 -63 -7 -20 -8 -39 -15 -42 -15 -3
0 -5 27 -5 60 0 49 3 58 15 54 8 -4 15 -1 15 5 0 7 -7 14 -15 17 -8 4 -15 15
-15 26 0 14 5 18 16 14 9 -3 20 -6 25 -6 5 0 9 -29 9 -64 0 -59 11 -89 24 -68
3 5 15 8 28 6 13 -1 32 -3 43 -3 15 -1 16 -4 7 -10 -17 -11 28 -41 60 -41 23
1 23 1 -4 23 -37 30 -38 86 -3 132 13 18 22 35 19 37 -3 3 -25 3 -49 0 -30 -3
-45 -1 -45 7 0 6 17 11 41 11 24 0 38 4 34 10 -3 6 -1 10 4 10 6 0 11 5 11 11
0 8 -13 9 -40 5 -32 -5 -40 -3 -40 9 0 8 -7 15 -15 15 -8 0 -15 -6 -15 -13 0
-17 -60 -11 -75 7 -8 9 -22 8 -65 -5z m70 -19 c0 -5 17 -11 38 -11 l37 -2 -40
-7 -40 -7 38 -2 c20 0 37 -5 37 -11 0 -13 -67 -13 -75 1 -4 6 -13 8 -21 5 -14
-6 -20 24 -7 37 10 11 33 8 33 -3z m123 -17 c-7 -2 -19 -2 -25 0 -7 3 -2 5 12
5 14 0 19 -2 13 -5z m31 -52 c3 -5 -23 -8 -59 -8 -36 0 -65 4 -65 9 0 11 117
10 124 -1z m-51 -38 c-13 -2 -33 -2 -45 0 -13 2 -3 4 22 4 25 0 35 -2 23 -4z
m17 -23 c0 -5 -20 -10 -45 -10 -25 0 -45 5 -45 10 0 6 20 10 45 10 25 0 45 -4
45 -10z m0 -30 c0 -5 -21 -10 -46 -10 -27 0 -43 4 -39 10 3 6 24 10 46 10 21
0 39 -4 39 -10z"/>
<path d="M5163 6059 c-6 -6 -42 -13 -81 -16 -43 -3 -72 -10 -72 -17 0 -6 -9
-17 -20 -24 -27 -16 -25 -34 3 -30 21 3 22 0 19 -52 -3 -39 -11 -64 -29 -88
-25 -33 -25 -55 0 -34 7 6 23 9 35 6 17 -5 22 -1 28 20 7 31 -3 47 -16 26 -9
-13 -10 -13 -10 0 0 35 15 41 104 39 47 -1 88 -5 91 -9 2 -4 1 -20 -4 -36 -11
-42 -43 -43 -63 -2 -16 32 -17 32 -17 7 -1 -25 37 -65 59 -63 6 1 17 2 25 3 8
0 17 17 21 39 4 20 11 45 16 55 9 18 2 21 -35 17 -14 -1 -16 4 -11 25 6 25 5
27 -15 20 -20 -6 -22 -3 -19 22 3 24 -1 28 -22 28 -15 0 -26 6 -28 18 -3 13 3
17 25 17 21 0 33 -8 46 -30 19 -32 31 -37 43 -19 3 6 -6 22 -22 35 -16 13 -23
23 -16 24 19 0 10 23 -10 26 -9 1 -20 -2 -25 -7z m-73 -54 c-8 -16 -60 -15
-60 2 0 10 9 13 33 11 17 -2 30 -7 27 -13z m58 -42 c-3 -15 -14 -18 -58 -18
-44 0 -55 3 -58 18 -3 15 5 17 58 17 53 0 61 -2 58 -17z m32 -48 c0 -12 -15
-15 -75 -15 -60 0 -75 3 -75 15 0 12 15 15 75 15 60 0 75 -3 75 -15z"/>
<path d="M4415 6050 c-82 -3 -124 -8 -113 -14 10 -4 38 -6 63 -4 41 3 45 1 43
-17 -3 -17 -10 -20 -50 -18 l-48 1 0 -104 c0 -93 7 -122 24 -95 6 9 184 7 193
-3 18 -17 23 2 23 83 0 50 5 93 10 96 24 15 -4 22 -70 17 -40 -3 -70 -1 -70 5
0 23 28 33 92 33 54 0 68 3 68 15 0 8 -8 14 -17 13 -10 -1 -76 -5 -148 -8z
m-35 -150 c0 -73 -2 -80 -19 -80 -28 0 -36 18 -20 46 9 18 10 33 2 58 -11 36
-2 56 24 56 10 0 13 -21 13 -80z m85 60 c0 -10 -12 -16 -32 -18 -28 -3 -33 0
-33 18 0 18 5 21 33 18 20 -2 32 -8 32 -18z m65 -60 c0 -73 -2 -80 -20 -80
-18 0 -20 7 -20 80 0 73 2 80 20 80 18 0 20 -7 20 -80z m-60 5 c0 -10 -11 -15
-35 -15 -24 0 -35 5 -35 15 0 10 11 15 35 15 24 0 35 -5 35 -15z m-5 -60 c0
-15 -8 -21 -32 -23 -30 -3 -33 -1 -33 23 0 24 3 26 33 23 24 -2 32 -8 32 -23z"/>
<path d="M3052 5950 c-45 -55 -82 -102 -82 -104 0 -2 11 -3 25 -3 17 0 25 5
25 17 0 23 32 50 58 50 26 0 31 -37 7 -46 -27 -11 -16 -20 25 -22 38 -3 53 9
30 23 -12 8 -13 87 -1 101 15 16 21 84 7 84 -6 0 -49 -45 -94 -100z m58 10 c0
-23 -5 -30 -19 -30 -18 0 -19 2 -5 30 9 17 17 30 20 30 2 0 4 -13 4 -30z"/>
<path d="M3229 6037 c16 -21 -27 -177 -49 -177 -5 0 -10 -3 -10 -8 0 -4 30 -8
66 -9 58 -2 69 1 85 20 20 24 24 58 9 73 -7 7 -2 18 15 34 31 29 32 44 3 64
-29 21 -136 23 -119 3z m97 -22 c9 -21 -14 -45 -42 -45 -21 0 -22 2 -13 30 12
32 45 42 55 15z m-18 -98 c5 -27 -17 -47 -50 -47 -27 0 -30 3 -24 23 3 12 6
28 6 35 0 21 64 11 68 -11z"/>
<path d="M3436 6031 c-62 -41 -76 -125 -30 -175 23 -24 32 -27 62 -22 31 5 88
44 78 53 -2 3 -18 -3 -35 -11 -60 -31 -101 -8 -101 57 0 53 40 97 90 97 32 0
39 -4 42 -22 5 -38 28 -33 28 6 l0 36 -52 0 c-36 0 -63 -7 -82 -19z"/>
<path d="M3624 6039 c-2 -4 1 -9 7 -11 15 -5 -26 -150 -47 -165 -24 -17 -8
-34 21 -23 16 6 27 6 31 -1 11 -19 78 1 111 34 56 53 53 143 -5 166 -29 11
-111 11 -118 0z m117 -30 c27 -27 21 -95 -11 -121 -21 -17 -87 -35 -96 -26 -2
3 5 42 17 87 20 72 25 81 46 81 12 0 33 -10 44 -21z"/>
<path d="M1228 5999 c-42 -59 -34 -66 17 -13 25 25 45 48 45 50 0 2 -8 4 -17
4 -10 -1 -30 -19 -45 -41z"/>
<path d="M1360 6026 c0 -8 11 -23 25 -34 14 -11 25 -25 25 -32 0 -6 5 -8 10
-5 17 11 11 33 -17 60 -31 28 -43 31 -43 11z"/>
<path d="M1542 5982 c-25 -27 -39 -49 -33 -55 5 -5 11 -4 15 2 18 28 28 7 25
-51 -2 -36 0 -65 6 -68 6 -3 11 26 13 75 2 83 16 125 39 125 7 0 13 5 13 10 0
24 -38 5 -78 -38z"/>
<path d="M2176 6023 c-7 -7 37 -42 46 -36 5 2 8 8 8 12 0 10 -46 31 -54 24z"/>
<path d="M1688 6002 c-82 -3 -110 -22 -33 -22 l45 0 0 -70 0 -70 -32 0 c-44 0
-22 -21 23 -23 l34 -2 3 83 3 82 30 0 c19 0 29 4 27 12 -5 14 -5 15 -100 10z"/>
<path d="M2711 5969 c-18 -21 -40 -39 -47 -39 -8 0 -14 -4 -14 -10 0 -22 32
-8 79 34 46 41 54 57 27 55 -6 0 -26 -18 -45 -40z"/>
<path d="M4117 5954 c-7 -7 33 -64 45 -64 4 0 8 6 8 13 0 17 -44 59 -53 51z"/>
<path d="M5167 5850 c3 -11 9 -20 14 -20 5 0 9 9 9 20 0 11 -6 20 -14 20 -9 0
-12 -7 -9 -20z"/>
<path d="M5087 5853 c-11 -10 -8 -53 3 -53 6 0 10 14 10 30 0 31 -2 35 -13 23z"/>
<path d="M10650 5446 c-33 -19 -69 -68 -76 -106 -5 -25 -1 -35 29 -65 35 -35
64 -42 115 -29 16 5 25 18 33 50 6 24 15 44 20 44 5 0 9 4 9 8 0 4 -16 8 -35
9 -33 1 -48 -11 -23 -19 15 -5 -2 -58 -24 -71 -8 -6 -27 -7 -41 -3 -47 12 -53
86 -10 142 23 31 31 35 67 32 34 -2 42 -7 44 -25 5 -31 22 -29 22 2 0 14 -1
28 -2 32 -5 14 -103 13 -128 -1z"/>
<path d="M3743 5283 c-7 -2 -13 -12 -13 -21 0 -12 3 -13 12 -4 22 22 38 13 38
-21 0 -23 -8 -41 -25 -57 -14 -13 -25 -27 -25 -32 0 -15 93 -5 98 10 3 10 -5
12 -34 6 l-39 -6 33 34 c33 35 40 66 20 86 -12 12 -43 15 -65 5z"/>
<path d="M2120 5216 c0 -27 -78 -186 -91 -186 -9 0 -10 -3 -2 -11 15 -15 59
-7 55 11 -2 7 2 24 8 36 17 31 70 28 82 -6 6 -16 5 -26 -1 -28 -25 -8 -8 -21
24 -20 36 1 42 7 26 24 -5 5 -23 50 -39 99 -19 58 -36 91 -46 93 -9 2 -16 -3
-16 -12z m24 -86 c14 -30 14 -30 -15 -30 -16 0 -29 2 -29 5 0 6 23 55 26 55 1
0 9 -13 18 -30z"/>
<path d="M2988 5223 c-19 -5 -25 -23 -8 -23 15 0 13 -177 -2 -183 -7 -3 7 -6
32 -6 39 0 43 1 28 13 -15 11 -18 30 -18 110 0 53 -3 95 -7 95 -5 -1 -16 -3
-25 -6z"/>
<path d="M3120 5217 c-14 -7 -26 -23 -28 -35 -4 -27 9 -29 26 -2 26 42 81 7
68 -43 -3 -12 -26 -43 -51 -69 -25 -26 -45 -50 -45 -53 0 -3 29 -5 64 -5 50 0
65 4 70 16 9 24 5 25 -37 12 -50 -15 -57 -4 -19 35 30 31 52 74 52 103 0 20
-36 54 -57 54 -10 0 -29 -6 -43 -13z"/>
<path d="M10603 5122 c-28 -42 -62 -97 -75 -121 -12 -24 -32 -53 -44 -65 -12
-12 -32 -45 -46 -72 -14 -27 -53 -90 -87 -139 -33 -48 -61 -93 -61 -100 0 -6
-8 -20 -19 -31 -10 -11 -24 -31 -31 -45 -7 -13 -43 -70 -79 -126 -36 -56 -93
-145 -126 -198 -33 -53 -74 -115 -92 -139 -18 -24 -42 -63 -55 -87 -12 -24
-43 -75 -68 -114 -100 -151 -140 -214 -140 -219 0 -3 -36 -58 -80 -122 -44
-65 -80 -123 -80 -130 0 -7 -6 -17 -14 -21 -8 -4 -29 -35 -47 -68 -17 -33 -57
-96 -88 -140 -31 -44 -64 -96 -73 -115 -10 -19 -42 -73 -72 -120 -30 -47 -68
-107 -83 -134 -15 -26 -63 -102 -105 -167 -43 -66 -78 -124 -78 -129 0 -6 -5
-10 -11 -10 -5 0 -8 -4 -5 -9 3 -5 -1 -12 -9 -15 -9 -3 -19 -16 -24 -30 -6
-13 -40 -70 -78 -127 -38 -57 -75 -116 -82 -131 -8 -15 -21 -36 -30 -45 -9
-10 -24 -34 -35 -54 -10 -19 -31 -53 -47 -75 -15 -21 -42 -64 -60 -94 -18 -30
-75 -118 -127 -195 -52 -77 -97 -147 -100 -155 -3 -8 -22 -40 -42 -70 -80
-119 -149 -227 -175 -275 -16 -27 -56 -91 -90 -141 -34 -49 -66 -100 -69 -112
-4 -12 -12 -22 -17 -22 -5 0 -14 -12 -20 -26 -5 -15 -36 -67 -69 -116 -33 -49
-60 -96 -60 -104 0 -12 28 -14 164 -14 91 0 176 -4 190 -10 16 -6 27 -6 31 0
4 6 14 5 25 -3 16 -9 24 -9 41 1 13 9 25 10 32 4 7 -6 460 -13 1147 -17 624
-4 1138 -9 1141 -11 5 -3 1152 -6 1432 -4 20 0 37 5 37 10 0 6 33 61 73 123
41 61 80 123 87 137 7 14 19 30 26 35 7 6 27 37 45 70 18 33 57 96 89 140 31
44 61 92 68 107 6 16 16 28 21 28 5 0 14 13 19 29 6 16 32 61 59 101 26 39 57
86 67 103 27 45 121 191 167 259 21 31 50 78 65 105 15 26 53 87 86 135 32 48
58 93 58 100 0 7 12 24 25 37 14 13 25 27 25 32 0 11 63 110 107 167 19 25 42
61 52 81 21 42 126 208 145 231 8 8 29 42 47 75 18 33 46 79 62 103 16 24 27
45 25 47 -2 2 -490 7 -1083 10 -594 3 -1186 7 -1315 9 l-235 4 -6 59 c-4 32
-7 92 -8 134 -1 41 -5 79 -10 85 -4 5 -14 112 -21 238 -6 127 -13 237 -15 245
-1 9 -6 70 -9 136 -4 66 -13 212 -21 325 -8 113 -19 297 -26 410 -6 113 -15
210 -19 215 -4 6 -10 78 -14 160 -8 172 -16 255 -25 255 -3 -1 -29 -35 -58
-78z m50 -67 c4 -44 14 -208 23 -365 8 -157 20 -293 25 -302 5 -10 4 -18 -3
-20 -8 -3 -8 -9 0 -23 10 -19 16 -89 42 -520 6 -88 14 -223 20 -300 5 -77 14
-221 20 -320 6 -99 13 -200 16 -224 l6 -44 -769 8 c-422 4 -770 9 -771 10 -2
2 5 16 16 32 77 113 102 152 102 158 0 3 11 18 25 33 14 15 25 32 25 38 0 6
29 55 65 110 36 54 65 103 65 108 0 4 15 29 34 55 53 74 176 259 176 266 0 3
19 35 43 70 75 114 162 249 179 282 10 17 42 68 73 113 30 45 55 88 55 96 0 8
5 14 10 14 6 0 10 4 10 9 0 6 11 22 25 37 14 15 25 31 25 35 0 4 32 56 70 115
39 60 70 113 70 120 0 6 14 26 30 44 17 18 30 35 30 39 0 4 30 52 66 106 36
55 77 121 90 147 13 26 28 49 33 53 6 3 22 28 37 55 15 28 28 49 29 48 2 -2 5
-39 8 -83z m-598 -2139 c407 -3 741 -5 743 -6 1 0 2 -31 2 -68 0 -37 4 -72 9
-78 5 -5 11 -58 15 -119 3 -60 15 -245 26 -410 11 -165 25 -374 31 -465 5 -91
16 -248 24 -350 8 -102 21 -277 29 -390 8 -113 17 -234 20 -269 l6 -64 -658 6
c-361 4 -1062 10 -1557 13 -495 4 -902 8 -904 10 -3 3 3 10 11 17 9 6 29 35
44 62 15 28 54 88 86 134 32 46 58 90 58 97 0 6 11 22 25 35 13 13 25 30 25
37 0 6 5 12 10 12 6 0 10 6 10 13 0 8 19 40 41 73 23 32 57 85 74 117 34 62
146 236 330 515 61 92 114 175 118 184 3 10 36 63 72 117 36 55 65 104 65 110
0 5 11 19 25 32 13 13 25 28 25 33 0 5 34 59 75 121 41 62 75 116 75 119 0 3
17 31 39 63 104 155 160 244 176 276 15 32 19 35 53 31 20 -2 370 -6 777 -8z
m3062 -28 c15 -12 114 -8 131 5 10 8 16 7 22 -2 5 -10 27 -12 79 -9 39 2 71 2
71 0 0 -2 -31 -51 -70 -108 -38 -58 -70 -107 -70 -111 0 -3 -31 -55 -70 -114
-38 -60 -70 -113 -70 -118 0 -6 -11 -23 -25 -38 -28 -31 -127 -181 -170 -259
-31 -55 -94 -154 -166 -261 -27 -39 -49 -74 -49 -78 0 -3 -46 -75 -101 -158
-56 -84 -113 -172 -127 -197 -14 -25 -50 -83 -81 -130 -31 -47 -59 -93 -63
-102 -4 -10 -12 -18 -17 -18 -5 0 -18 -19 -29 -43 -11 -23 -47 -83 -81 -132
-34 -49 -61 -93 -61 -97 0 -4 -34 -59 -75 -122 l-76 -116 -269 0 c-168 0 -271
4 -275 10 -4 6 -98 10 -249 10 l-243 0 -6 98 c-31 550 -50 830 -58 844 -5 10
-9 39 -9 65 0 41 -10 198 -44 683 -3 41 -10 154 -16 250 -5 96 -12 196 -15
222 l-5 47 1137 -6 c690 -3 1143 -9 1150 -15z"/>
<path d="M3341 5141 c-29 -29 -29 -93 0 -122 21 -21 59 -20 86 3 15 12 17 38
3 38 -5 0 -10 -4 -10 -9 0 -5 -8 -12 -17 -16 -25 -9 -63 37 -56 67 11 41 47
52 56 17 5 -20 28 -23 34 -3 5 17 -13 34 -44 40 -24 5 -36 1 -52 -15z"/>
<path d="M3526 5151 c-4 -5 -22 -7 -41 -4 -34 5 -44 -3 -26 -22 5 -6 6 -34 2
-62 l-7 -53 35 0 c23 0 31 3 23 9 -9 5 -12 25 -10 57 3 42 6 49 26 52 20 3 22
-1 22 -45 0 -27 -5 -54 -12 -61 -9 -9 -9 -12 2 -12 8 0 24 -3 35 -6 19 -5 20
0 20 58 0 53 3 63 19 66 17 4 18 -2 14 -62 l-4 -66 28 0 c15 0 28 5 28 10 0 6
-4 10 -10 10 -5 0 -10 28 -12 63 l-3 62 -40 1 c-22 0 -50 4 -62 8 -12 4 -24 2
-27 -3z"/>
<path d="M4108 5129 c-35 -20 -15 -69 28 -69 34 0 45 38 18 64 -18 19 -23 19
-46 5z m32 -44 c-9 -11 -16 -13 -23 -6 -7 7 -6 15 3 26 9 11 16 13 23 6 7 -7
6 -15 -3 -26z"/>
<path d="M2266 5038 c-15 -8 -16 -12 -5 -19 21 -13 39 -11 39 5 0 21 -13 26
-34 14z"/>
<path d="M3717 4393 c-15 -14 -6 -23 18 -17 19 5 25 2 25 -11 0 -21 -17 -54
-43 -82 -17 -20 -18 -23 -4 -28 24 -10 70 -1 75 13 3 9 -3 11 -22 6 -29 -7
-35 6 -11 26 8 7 21 24 28 39 11 23 11 29 -3 44 -17 17 -51 23 -63 10z"/>
<path d="M2020 4341 c0 -5 7 -11 15 -15 12 -4 15 -24 15 -90 0 -78 -2 -84 -22
-92 -17 -6 -2 -9 51 -11 87 -5 121 11 121 56 0 16 -7 34 -15 41 -11 9 -13 16
-5 24 16 16 12 51 -7 68 -19 17 -153 33 -153 19z m128 -33 c31 -26 7 -58 -44
-58 -21 0 -24 5 -24 33 0 19 3 37 7 40 8 8 42 -1 61 -15z m7 -98 c17 -19 17
-21 0 -40 -10 -11 -31 -20 -47 -20 -26 0 -28 3 -28 40 0 37 2 40 28 40 16 0
37 -9 47 -20z"/>
<path d="M2970 4330 c-10 -6 -11 -10 -2 -10 9 0 12 -25 12 -90 0 -57 -4 -90
-11 -90 -5 0 -7 -4 -4 -10 3 -5 22 -10 41 -10 19 0 34 5 34 10 0 6 -7 10 -16
10 -13 0 -15 14 -13 97 3 79 0 98 -11 100 -8 2 -22 -1 -30 -7z"/>
<path d="M3145 4303 c-50 -62 -65 -87 -65 -111 0 -22 3 -23 46 -16 45 6 45 6
42 -21 -2 -16 2 -30 10 -32 7 -3 12 4 12 18 0 12 8 28 18 35 16 13 16 15 -2
29 -15 12 -18 24 -14 75 5 71 -4 76 -47 23z m25 -58 c0 -34 -1 -35 -37 -35
l-36 0 19 22 c10 12 24 28 29 35 17 21 25 14 25 -22z"/>
<path d="M3326 4248 c-35 -50 -9 -128 43 -128 29 0 61 26 61 50 0 10 -5 9 -18
-3 -10 -10 -23 -17 -29 -17 -18 0 -43 36 -43 63 0 34 35 47 55 20 11 -14 16
-15 26 -6 19 19 -7 43 -47 43 -23 0 -38 -7 -48 -22z"/>
<path d="M3450 4260 c-8 -5 -9 -10 -2 -14 13 -8 14 -94 1 -102 -20 -12 -7 -24
28 -24 29 0 34 3 25 12 -20 20 -15 96 7 107 10 6 21 7 25 4 11 -11 6 -99 -6
-111 -9 -9 -2 -12 32 -12 40 1 43 2 28 14 -33 25 -19 106 18 106 18 0 26 -49
15 -87 -9 -32 -9 -33 21 -33 24 0 28 3 20 13 -6 7 -11 28 -10 47 2 64 -2 79
-22 85 -12 4 -27 1 -35 -5 -9 -7 -22 -9 -32 -4 -24 10 -98 13 -113 4z"/>
<path d="M4054 4225 c-7 -26 9 -55 31 -55 23 0 43 34 34 58 -12 32 -57 30 -65
-3z m46 -15 c0 -11 -7 -20 -15 -20 -8 0 -15 9 -15 20 0 11 7 20 15 20 8 0 15
-9 15 -20z"/>
<path d="M2232 4148 c7 -20 48 -23 48 -4 0 11 -9 16 -26 16 -16 0 -24 -5 -22
-12z"/>
<path d="M3698 3509 c-28 -16 -21 -29 12 -22 26 5 30 3 30 -17 0 -28 -30 -80
-47 -80 -7 0 -13 -5 -13 -11 0 -6 19 -9 48 -7 26 2 46 8 44 13 -2 6 -15 8 -30
7 l-27 -4 22 24 c31 33 38 71 18 92 -19 18 -33 20 -57 5z"/>
<path d="M2052 3435 c-35 -29 -46 -67 -36 -120 5 -28 14 -40 44 -55 44 -23
100 -18 126 11 22 25 10 37 -14 16 -23 -21 -85 -22 -102 -2 -6 8 -14 32 -17
53 -4 33 -1 44 24 72 29 32 32 33 61 21 16 -7 32 -22 35 -33 9 -32 24 -13 19
24 -4 32 -5 33 -57 36 -44 2 -57 -1 -83 -23z"/>
<path d="M2964 3444 c-13 -11 -15 -17 -6 -20 16 -7 17 -155 0 -172 -9 -9 -3
-12 27 -12 30 0 36 3 27 12 -8 8 -12 47 -12 110 0 54 -4 98 -8 98 -5 0 -17 -7
-28 -16z"/>
<path d="M3120 3453 c-31 -12 -40 -57 -18 -93 10 -15 9 -23 -7 -40 -15 -16
-17 -26 -9 -48 8 -22 16 -28 47 -30 63 -5 87 35 51 86 -15 21 -15 25 1 42 12
14 15 27 10 47 -10 40 -34 51 -75 36z m48 -57 c-2 -13 -10 -21 -23 -21 -23 0
-32 30 -14 51 16 19 41 -1 37 -30z m-16 -83 c27 -24 23 -53 -6 -53 -30 0 -40
14 -32 46 7 28 13 30 38 7z"/>
<path d="M3327 3378 c-28 -21 -37 -70 -20 -106 8 -17 23 -34 33 -37 22 -7 67
13 75 33 8 22 -2 27 -20 8 -9 -9 -23 -16 -30 -16 -22 0 -44 42 -38 72 6 31 39
44 52 21 5 -10 15 -14 27 -9 15 6 16 9 3 21 -21 21 -62 28 -82 13z"/>
<path d="M3435 3312 c0 -56 3 -68 18 -75 10 -4 26 -3 35 3 11 6 12 10 4 10 -9
0 -12 15 -10 53 3 44 6 52 23 52 16 0 21 -8 23 -43 2 -24 -2 -50 -8 -57 -9
-11 -6 -16 15 -21 30 -7 41 -1 29 18 -10 17 -5 79 8 96 24 29 38 13 38 -43 0
-30 -4 -55 -10 -55 -5 0 -10 -4 -10 -10 0 -5 16 -10 35 -10 19 0 35 5 35 10 0
6 -4 10 -10 10 -5 0 -10 22 -10 49 0 27 -3 56 -6 65 -7 18 -59 22 -69 6 -4 -7
-11 -7 -18 -2 -7 5 -34 10 -62 10 l-50 1 0 -67z"/>
<path d="M4047 3354 c-14 -14 -7 -53 12 -63 26 -14 54 8 49 40 -2 17 -10 25
-28 27 -14 2 -29 0 -33 -4z m39 -40 c-5 -13 -10 -14 -18 -6 -6 6 -8 18 -4 28
5 13 10 14 18 6 6 -6 8 -18 4 -28z"/>
<path d="M2225 3270 c-8 -13 3 -30 20 -30 20 0 30 21 14 31 -18 11 -26 11 -34
-1z"/>
<path d="M10934 3178 c-2 -3 1 -8 6 -10 12 -4 -8 -108 -21 -108 -5 0 -11 -16
-15 -35 -3 -19 -11 -33 -16 -32 -6 1 -13 -4 -15 -11 -4 -10 5 -13 33 -10 33 3
39 6 39 28 3 66 4 70 30 70 16 0 25 -6 25 -15 0 -8 5 -15 10 -15 6 0 10 7 10
15 0 8 5 24 12 35 16 25 1 41 -16 17 -12 -15 -56 -25 -56 -12 0 3 7 22 15 41
11 26 19 34 31 30 8 -3 27 -6 40 -6 15 0 24 -6 24 -16 0 -8 5 -12 10 -9 17 11
11 45 -7 46 -84 4 -136 3 -139 -3z"/>
<path d="M13593 3070 c-39 -24 -62 -57 -69 -102 -8 -46 34 -98 78 -98 35 0 88
29 88 48 0 10 -5 10 -22 -2 -29 -20 -72 -20 -92 0 -22 21 -20 72 4 111 30 50
102 60 108 15 4 -23 22 -31 22 -9 0 6 3 21 6 32 5 18 0 21 -43 23 -33 1 -58
-4 -80 -18z"/>
<path d="M8966 3046 c3 -8 0 -34 -7 -57 -7 -24 -12 -47 -11 -51 1 -5 -2 -8 -8
-8 -5 0 -10 -9 -10 -19 0 -11 -7 -26 -15 -35 -23 -23 -19 -26 40 -26 105 0
165 46 165 126 0 64 -24 84 -100 84 -47 0 -58 -3 -54 -14z m112 -18 c7 -7 12
-30 12 -51 0 -32 -7 -46 -36 -73 -36 -34 -99 -49 -92 -21 44 164 40 157 73
157 17 0 36 -5 43 -12z"/>
<path d="M3728 2629 c-27 -15 -22 -30 7 -23 22 5 25 3 25 -23 0 -16 -10 -40
-26 -56 -31 -34 -24 -49 22 -43 53 5 68 26 20 26 l-38 0 31 35 c27 31 30 39
20 58 -20 36 -34 42 -61 26z"/>
<path d="M2000 2572 c0 -6 5 -14 10 -17 6 -3 10 -42 10 -85 0 -65 -3 -81 -17
-89 -13 -8 4 -10 65 -11 75 0 85 2 107 25 20 19 25 34 25 73 0 40 -5 53 -29
76 -25 24 -40 29 -100 34 -47 3 -71 1 -71 -6z m151 -48 c44 -40 7 -130 -56
-136 l-30 -3 -3 84 -3 84 37 -6 c20 -3 45 -14 55 -23z"/>
<path d="M2968 2566 c-12 -6 -24 -22 -26 -34 -4 -26 4 -28 24 -7 20 19 48 19
65 -1 16 -19 -5 -60 -64 -121 l-41 -43 67 0 c56 0 68 3 77 20 10 18 8 19 -22
14 -18 -3 -38 -7 -45 -9 -25 -8 -19 9 16 44 50 50 59 86 31 116 -28 29 -52 36
-82 21z"/>
<path d="M3140 2560 c-13 -9 -13 -11 1 -20 23 -14 26 -141 4 -164 -15 -15 -13
-16 21 -16 30 0 34 3 25 14 -7 8 -10 47 -8 105 2 76 0 91 -13 91 -8 0 -22 -5
-30 -10z"/>
<path d="M3310 2485 c-7 -8 -13 -34 -14 -56 0 -32 5 -45 23 -60 13 -10 29 -19
37 -19 18 0 71 47 62 56 -5 4 -17 -1 -27 -10 -38 -35 -79 2 -65 58 4 19 13 26
30 26 15 0 24 -6 24 -16 0 -9 6 -14 13 -11 6 2 12 12 12 23 0 15 -8 20 -41 22
-28 2 -45 -2 -54 -13z"/>
<path d="M3424 2489 c-3 -5 0 -9 5 -9 7 0 11 -23 11 -55 0 -32 -4 -55 -11 -55
-5 0 -7 -4 -4 -10 3 -5 19 -10 34 -10 27 0 27 0 23 60 -4 50 -2 61 13 66 10 4
21 1 26 -7 12 -19 11 -86 -1 -94 -6 -4 -8 -11 -5 -16 8 -12 55 -12 55 1 0 6
-5 10 -11 10 -15 0 -5 78 13 97 9 8 21 12 27 9 14 -9 15 -106 1 -106 -5 0 -10
-4 -10 -10 0 -5 13 -10 28 -10 l28 0 -4 63 c-5 77 -20 96 -62 80 -16 -6 -32
-8 -35 -3 -7 11 -114 10 -121 -1z"/>
<path d="M4067 2473 c-12 -12 -7 -50 8 -63 12 -10 20 -9 40 4 28 19 30 24 11
49 -13 17 -47 23 -59 10z m41 -30 c-2 -10 -8 -18 -13 -18 -5 0 -11 8 -13 18
-2 10 3 17 13 17 10 0 15 -7 13 -17z"/>
<path d="M2232 2383 c5 -26 38 -29 38 -4 0 15 -6 21 -21 21 -14 0 -19 -5 -17
-17z"/>
<path d="M7679 525 c-40 -52 -77 -95 -81 -95 -5 0 -8 -4 -8 -10 0 -5 14 -10
31 -10 24 0 30 3 25 16 -9 23 15 48 47 52 26 3 28 1 22 -20 -4 -12 -12 -29
-17 -35 -8 -10 -1 -13 32 -13 36 0 41 2 30 15 -11 14 -7 129 6 178 11 38 -17
13 -87 -78z m41 0 c0 -19 -5 -25 -20 -25 -20 0 -20 1 -3 25 22 30 23 30 23 0z"/>
<path d="M12084 572 c7 -31 -27 -165 -43 -170 -29 -10 -6 -21 41 -20 90 0 131
37 103 91 -11 21 -10 26 6 36 22 13 24 39 4 65 -9 12 -30 19 -65 22 -51 3 -51
3 -46 -24z m85 -16 c16 -19 3 -45 -26 -52 -31 -8 -40 2 -25 27 7 11 10 24 7
29 -10 15 31 12 44 -4z m-19 -86 c16 -16 18 -25 10 -40 -6 -11 -16 -20 -23
-20 -7 0 -22 -3 -34 -6 -27 -7 -29 3 -9 51 17 40 28 43 56 15z"/>
<path d="M10947 558 c11 -18 4 -57 -18 -102 -10 -22 -19 -45 -19 -52 0 -6 -7
-15 -16 -18 -8 -3 -13 -9 -11 -14 4 -6 43 -7 158 -3 16 1 44 49 34 59 -3 3
-14 -4 -25 -16 -23 -25 -100 -32 -100 -9 1 37 13 58 34 55 11 -2 20 -9 19 -16
-4 -17 8 -15 23 6 13 16 19 52 10 52 -3 0 -16 -4 -29 -9 -32 -12 -38 -6 -25
30 8 24 15 29 44 29 22 0 37 -6 40 -15 8 -20 24 -9 24 16 0 17 -7 19 -76 19
-58 0 -73 -3 -67 -12z"/>
</g>
</svg>
