<?xml version="1.0" standalone="no"?>
<!DOCTYPE svg PUBLIC "-//W3C//DTD SVG 20010904//EN"
 "http://www.w3.org/TR/2001/REC-SVG-20010904/DTD/svg10.dtd">
<svg version="1.0" xmlns="http://www.w3.org/2000/svg"
 width="1418.000000pt" height="647.000000pt" viewBox="0 0 1418.000000 647.000000"
 preserveAspectRatio="xMidYMid meet">
<metadata>
Created by potrace 1.16, written by Peter Selinger 2001-2019
</metadata>
<g transform="translate(0.000000,647.000000) scale(0.100000,-0.100000)"
fill="#000000" stroke="none">
<path d="M12530 6015 l0 -125 -27 -1 c-28 0 -28 0 -5 -11 14 -7 26 -8 32 -2
10 11 18 264 8 264 -5 0 -8 -56 -8 -125z"/>
<path d="M12300 6035 c0 -80 2 -93 15 -89 16 6 21 24 7 24 -7 0 -8 34 -3 83 1
4 9 7 19 8 14 0 13 2 -4 9 -16 6 -20 15 -17 34 3 15 1 26 -6 26 -7 0 -11 -32
-11 -95z"/>
<path d="M12393 6123 c-10 -4 -10 -7 0 -18 16 -15 13 -121 -3 -141 -8 -8 -6
-13 6 -18 8 -3 18 -6 20 -6 2 0 4 43 4 95 0 52 -3 95 -7 94 -5 0 -14 -3 -20
-6z"/>
<path d="M3313 6106 c-28 -6 -55 -15 -60 -20 -5 -5 -2 -6 6 -1 9 5 19 2 28
-10 12 -17 13 -17 13 -2 0 11 8 17 23 17 33 0 67 11 67 21 0 10 -8 10 -77 -5z"/>
<path d="M6300 6090 c0 -27 -3 -30 -32 -31 -31 -1 -31 -2 -8 -8 29 -9 29 -29
-2 -79 -25 -42 -19 -51 7 -11 11 16 24 29 28 29 5 0 7 -32 5 -70 -2 -39 0 -70
5 -70 4 0 7 34 7 75 0 71 10 95 24 59 4 -9 9 -14 13 -10 4 3 -4 17 -16 30 -26
27 -21 46 12 46 17 0 19 2 8 9 -8 5 -21 7 -29 3 -12 -4 -14 1 -9 26 4 19 2 32
-3 32 -6 0 -10 -13 -10 -30z"/>
<path d="M6707 6101 c-4 -16 -16 -21 -63 -24 -33 -2 1 -4 74 -5 73 -1 132 2
132 7 0 5 -27 7 -60 4 -56 -5 -60 -4 -60 16 0 26 -16 28 -23 2z"/>
<path d="M6960 6095 c0 -20 -5 -25 -27 -26 -25 -2 -25 -2 -5 -6 22 -4 23 -7
16 -76 -4 -40 -13 -85 -21 -102 l-14 -30 20 22 c10 13 22 45 26 72 5 34 12 51
23 54 14 4 14 5 -2 6 -19 1 -19 -2 1 89 3 12 1 22 -6 22 -6 0 -11 -11 -11 -25z"/>
<path d="M8210 6105 c0 -11 -12 -15 -42 -17 l-43 -1 40 -4 c22 -3 43 -10 47
-16 6 -9 8 -9 8 1 0 20 78 16 83 -5 4 -17 5 -17 6 0 1 13 10 17 47 17 25 0 43
4 40 9 -3 5 -24 7 -46 4 -35 -5 -39 -3 -34 11 3 9 1 16 -5 16 -6 0 -11 -7 -11
-15 0 -10 -11 -15 -35 -15 -24 0 -35 5 -35 15 0 8 -4 15 -10 15 -5 0 -10 -7
-10 -15z"/>
<path d="M10165 6111 l-40 -5 42 -5 41 -6 -13 -37 c-10 -30 -10 -38 0 -38 7 0
15 15 18 33 3 17 8 40 12 50 5 11 3 16 -6 15 -8 -1 -32 -4 -54 -7z"/>
<path d="M12338 6113 c7 -3 16 -2 19 1 4 3 -2 6 -13 5 -11 0 -14 -3 -6 -6z"/>
<path d="M13110 6105 c0 -8 -11 -54 -25 -101 -14 -47 -25 -88 -25 -91 0 -2 10
-3 23 -1 17 2 21 9 19 29 -2 14 2 38 9 55 6 16 13 42 14 57 2 16 8 34 14 40
17 17 13 27 -9 27 -11 0 -20 -7 -20 -15z"/>
<path d="M13477 6098 c3 -20 -17 -98 -42 -160 -5 -14 -2 -18 14 -18 13 0 19 5
15 14 -3 8 4 33 15 57 12 23 21 51 21 62 0 51 50 76 84 41 14 -13 16 -13 16
-1 0 20 -22 27 -79 27 -45 0 -48 -2 -44 -22z"/>
<path d="M1560 6085 c0 -13 -8 -29 -17 -34 -10 -6 -13 -11 -7 -11 15 0 25 -38
18 -67 -4 -14 -14 -23 -28 -24 -20 -1 -20 -2 -1 -6 28 -7 33 -19 28 -63 -3
-21 0 -41 6 -45 7 -4 11 12 11 49 0 38 4 56 13 56 9 0 9 2 -1 9 -9 5 -12 30
-10 84 2 43 0 77 -4 77 -4 0 -8 -11 -8 -25z"/>
<path d="M3850 5973 l0 -133 25 12 c30 14 33 28 4 21 -21 -6 -21 -4 -17 103
l4 109 27 3 c24 3 27 0 27 -27 0 -24 4 -29 16 -24 13 5 13 7 2 14 -11 8 -11
10 1 18 11 7 11 9 0 14 -8 3 9 5 36 6 37 0 45 -3 30 -9 -17 -7 -17 -9 -2 -9
28 -1 19 -21 -10 -22 l-28 -1 30 -7 c24 -5 32 -3 38 12 4 10 5 23 1 28 -3 5 6
9 21 9 17 0 29 -7 35 -22 l9 -23 0 23 c1 12 2 25 4 28 1 3 -55 7 -126 7 l-127
2 0 -132z"/>
<path d="M5221 6096 c-22 -10 -23 -15 -18 -82 3 -46 1 -76 -6 -83 -8 -8 -5
-11 11 -11 19 0 21 4 16 25 -5 21 -3 25 15 25 12 0 21 5 21 11 0 6 -8 8 -19 4
-18 -5 -20 -1 -19 44 0 45 3 51 26 59 17 5 21 10 11 13 -7 3 -25 0 -38 -5z"/>
<path d="M5298 6104 c-5 -4 -8 -24 -8 -44 0 -35 2 -37 27 -32 26 5 26 4 19
-39 -8 -52 -20 -67 -39 -51 -8 7 -17 9 -20 5 -16 -15 -5 -23 31 -23 38 0 38 0
40 44 1 25 3 50 4 58 2 7 -7 14 -19 16 -28 4 -31 32 -3 32 11 0 20 5 20 11 0
6 -8 8 -19 4 -13 -4 -20 -1 -23 10 -2 9 -6 13 -10 9z"/>
<path d="M6445 6101 l-60 -6 -3 -122 c-2 -80 1 -123 8 -123 5 0 10 5 10 11 0
8 18 10 55 7 l55 -5 0 108 c0 59 3 114 6 123 3 9 2 15 -2 14 -5 -1 -36 -4 -69
-7z m53 -76 l1 -65 -32 -2 -32 -1 33 -4 c29 -4 32 -7 32 -39 l0 -34 -50 0 -50
0 0 35 c0 26 4 35 18 36 13 0 12 2 -5 9 -26 11 -26 10 -13 44 5 14 6 28 1 30
-5 3 -6 17 -3 31 4 23 9 25 52 25 l48 0 0 -65z"/>
<path d="M7082 6071 c-7 -21 -19 -44 -27 -51 -8 -7 -15 -17 -15 -23 0 -17 25
13 47 55 l20 37 38 -52 c21 -28 40 -47 42 -41 2 6 -12 28 -32 49 -19 22 -35
45 -35 52 0 29 -28 10 -38 -26z"/>
<path d="M10068 6103 c32 -4 32 -5 32 -57 0 -61 -18 -110 -56 -155 -14 -17
-21 -31 -15 -31 15 0 71 88 78 123 3 15 8 27 12 27 3 0 4 22 3 50 l-4 50 -41
-2 c-37 -1 -38 -2 -9 -5z"/>
<path d="M11095 6098 c-2 -7 -18 -51 -35 -97 -16 -47 -30 -90 -30 -95 1 -14
64 140 74 177 6 27 -1 39 -9 15z"/>
<path d="M11151 6018 c-17 -51 -31 -100 -30 -108 0 -8 16 32 34 90 19 57 33
106 31 108 -2 2 -18 -39 -35 -90z"/>
<path d="M11538 6094 c-15 -8 -39 -34 -54 -59 -23 -40 -24 -49 -14 -79 11 -34
64 -71 83 -59 5 3 -4 11 -21 18 -57 24 -55 103 4 154 19 17 40 31 47 31 33 -1
57 -14 57 -32 0 -10 5 -16 10 -13 6 3 10 14 10 24 0 13 -10 20 -37 25 -51 8
-54 8 -85 -10z"/>
<path d="M12467 6103 c-4 -3 -6 -43 -5 -87 l1 -81 7 85 c7 90 7 94 -3 83z"/>
<path d="M12912 6017 c-51 -52 -92 -96 -92 -100 0 -3 9 -5 20 -4 11 1 20 8 20
16 0 9 37 53 82 98 46 46 78 83 72 83 -5 0 -51 -42 -102 -93z"/>
<path d="M13178 6104 c19 -9 14 -51 -9 -73 -13 -12 -17 -21 -10 -26 21 -12 12
-53 -16 -73 l-28 -20 28 5 c40 8 58 38 45 74 -8 24 -7 34 7 49 22 24 16 64
-10 67 -11 2 -14 0 -7 -3z"/>
<path d="M13357 6092 c-11 -12 -14 -29 -10 -60 5 -40 4 -42 -21 -42 -31 0 -31
2 -9 38 25 41 1 14 -46 -50 -29 -41 -37 -58 -26 -58 8 0 15 6 15 13 0 22 34
47 63 47 24 0 25 -2 17 -30 -7 -25 -6 -30 9 -30 15 0 19 9 20 55 0 30 5 73 10
95 10 43 3 50 -22 22z"/>
<path d="M1110 5973 l0 -128 120 0 c73 0 120 4 121 10 1 6 3 63 4 128 l3 117
-36 -1 c-31 -2 -32 -3 -9 -6 l27 -4 0 -115 0 -114 -105 0 c-93 0 -105 2 -106
18 -4 60 -4 104 1 152 l5 55 70 6 70 5 -82 2 -83 2 0 -127z"/>
<path d="M3193 6066 c-21 -32 -21 -34 -2 -29 16 5 19 0 20 -33 0 -22 3 -33 6
-26 3 8 30 12 84 12 64 0 79 -3 79 -15 0 -8 -8 -15 -17 -15 -17 -1 -17 -1 0
-11 10 -6 25 -8 33 -5 12 5 15 -2 12 -37 -3 -39 -5 -42 -31 -42 -26 1 -27 0
-11 -12 10 -7 21 -13 26 -13 12 0 35 51 39 85 3 25 0 31 -19 33 -17 3 -21 8
-17 23 5 15 2 19 -15 19 -19 0 -21 4 -16 25 6 25 6 25 -68 25 -70 0 -100 10
-76 25 5 3 10 10 10 16 0 18 -15 8 -37 -25z m155 -43 c-2 -14 -15 -19 -57 -21
-30 -2 -58 1 -64 7 -19 19 5 31 64 31 52 0 60 -2 57 -17z"/>
<path d="M5410 6090 c-8 -5 -10 -10 -3 -10 7 0 11 -17 10 -46 0 -37 -4 -47
-21 -54 -19 -8 -19 -9 -2 -9 14 -1 17 -7 14 -26 -5 -22 -2 -25 23 -25 16 0 29
5 29 10 0 6 -7 10 -16 10 -14 0 -16 11 -12 80 5 82 4 86 -22 70z"/>
<path d="M7457 6089 c7 -7 3 -33 -14 -87 -14 -42 -29 -84 -33 -93 -7 -13 -4
-15 16 -11 13 2 21 8 18 13 -3 5 0 25 6 44 9 27 17 35 36 35 13 0 24 -6 24
-12 0 -21 20 14 20 35 0 17 -1 17 -16 3 -20 -20 -33 -20 -41 0 -8 21 16 64 36
64 14 0 14 2 1 10 -21 14 -67 13 -53 -1z"/>
<path d="M7545 6088 c11 -6 23 -16 27 -22 5 -6 8 -1 8 12 0 17 -6 22 -27 22
-26 -1 -27 -1 -8 -12z"/>
<path d="M8813 6073 c-11 -15 -24 -35 -28 -43 -8 -13 -7 -13 8 -1 15 12 17 11
17 -7 0 -34 -11 -52 -32 -52 -14 0 -18 5 -14 15 12 32 -11 12 -46 -40 -31 -45
-34 -55 -20 -55 11 0 18 8 19 21 3 31 22 49 54 49 24 0 29 -4 29 -23 0 -13 -5
-28 -12 -35 -9 -9 -6 -12 16 -12 24 0 27 3 23 22 -3 12 -2 57 4 101 5 44 8 81
6 84 -3 2 -14 -8 -24 -24z"/>
<path d="M8913 6050 c-1 -25 -11 -70 -22 -100 -12 -30 -21 -56 -21 -57 0 -2
19 -3 43 -3 78 0 135 58 95 98 -9 9 -7 17 11 36 18 19 21 28 12 44 -8 15 -23
21 -63 24 l-53 3 -2 -45z m92 0 c0 -17 -8 -29 -28 -38 -36 -17 -41 -12 -33 33
6 32 10 36 34 33 21 -2 27 -8 27 -28z m-11 -76 c12 -30 -29 -74 -68 -74 -18 0
-21 26 -6 64 7 20 17 26 39 26 17 0 31 -6 35 -16z"/>
<path d="M9616 6022 c-10 -42 -25 -89 -33 -104 l-14 -28 52 0 c81 0 159 58
159 118 0 27 -36 79 -59 85 -28 7 -27 -1 4 -25 54 -43 18 -138 -60 -159 -54
-15 -60 -3 -36 75 26 83 39 108 53 100 7 -4 8 -3 4 4 -4 7 -17 12 -29 12 -19
0 -24 -10 -41 -78z"/>
<path d="M10814 6092 c7 -11 -36 -166 -51 -184 -13 -15 -14 -15 94 -2 61 7
103 51 103 107 0 48 -6 59 -37 76 -25 13 -117 15 -109 3z m106 -22 c53 -53
-10 -160 -95 -160 -14 0 -25 5 -25 11 0 13 40 150 47 162 9 14 53 7 73 -13z"/>
<path d="M11333 6081 c-2 -29 -33 -143 -44 -163 -8 -16 -4 -18 40 -18 58 0
101 28 101 66 0 13 -4 24 -10 24 -16 0 -12 27 5 34 20 7 20 62 -1 70 -9 3 -32
6 -53 6 -29 0 -37 -4 -38 -19z m82 -21 c0 -16 -9 -29 -27 -39 -34 -19 -42 -11
-34 34 6 32 10 36 34 33 21 -2 27 -8 27 -28z m-14 -81 c9 -18 8 -25 -7 -40
-11 -10 -31 -21 -46 -24 -24 -6 -28 -4 -28 13 0 12 4 32 10 46 12 33 54 36 71
5z"/>
<path d="M2332 6063 c-11 -16 -36 -49 -56 -76 -35 -46 -48 -73 -24 -49 7 7 25
12 40 12 30 0 36 -16 18 -51 -10 -17 -7 -19 21 -19 27 0 30 2 19 15 -12 15 -8
113 6 172 8 30 2 29 -24 -4z m-9 -75 c-4 -19 -12 -28 -24 -28 -23 0 -23 4 -2
41 20 33 34 26 26 -13z"/>
<path d="M2449 6081 c11 -7 12 -15 3 -38 -6 -15 -18 -50 -26 -78 -8 -27 -17
-58 -21 -67 -6 -15 -1 -18 33 -18 56 0 90 15 104 46 9 20 9 30 -1 46 -10 16
-10 23 3 37 22 24 20 58 -3 71 -25 13 -112 14 -92 1z m88 -30 c4 -18 0 -29
-15 -42 -25 -20 -28 -29 -8 -29 9 0 12 -9 8 -27 -7 -40 -20 -53 -54 -53 -29 0
-30 1 -23 38 3 20 12 42 18 47 7 6 11 17 9 26 -1 8 2 27 7 42 13 34 49 33 58
-2z"/>
<path d="M2650 6077 c-32 -16 -60 -71 -60 -119 0 -73 92 -103 144 -46 20 21
20 21 1 6 -38 -31 -71 -32 -99 -4 -31 31 -33 56 -5 113 15 32 29 45 52 52 21
6 25 9 12 10 -11 0 -31 -5 -45 -12z"/>
<path d="M2733 6079 c9 -5 17 -17 17 -24 0 -8 5 -15 10 -15 6 0 10 4 10 9 0 5
3 16 6 25 5 13 -1 16 -27 16 -28 -1 -31 -2 -16 -11z"/>
<path d="M2840 6063 c0 -31 -29 -143 -42 -159 -12 -16 53 -25 95 -13 64 17
104 76 92 136 -8 43 -39 63 -97 63 -45 0 -48 -1 -48 -27z m102 0 c12 -11 18
-30 18 -60 0 -59 -41 -103 -95 -103 -42 0 -41 -9 -8 118 14 55 19 62 41 62 14
0 34 -7 44 -17z"/>
<path d="M3391 6067 c7 -15 16 -27 21 -27 14 0 9 16 -13 36 -21 19 -21 19 -8
-9z"/>
<path d="M4748 6056 c-51 -64 -128 -167 -128 -172 0 -2 6 -4 13 -4 6 0 19 15
27 33 9 18 25 34 40 38 14 4 19 7 13 8 -20 2 -16 17 12 48 l24 28 1 -32 c0
-18 -3 -33 -7 -33 -5 0 -8 -20 -8 -45 0 -39 3 -45 21 -45 19 0 21 4 15 33 -7
37 -7 64 3 130 4 26 6 47 4 47 -2 0 -15 -15 -30 -34z"/>
<path d="M4884 6071 c-32 -20 -64 -74 -64 -111 0 -12 13 -35 29 -51 33 -33 76
-38 107 -13 18 15 18 15 -3 5 -56 -28 -103 4 -103 68 0 55 52 111 103 111 29
0 36 -4 41 -26 8 -30 11 -29 20 9 6 27 6 27 -46 27 -34 0 -64 -7 -84 -19z"/>
<path d="M5734 6081 c6 -8 -35 -146 -53 -179 -10 -18 -7 -19 43 -17 29 2 63 9
75 17 27 16 37 53 21 73 -10 13 -10 19 4 33 19 22 21 53 4 70 -14 14 -102 17
-94 3z m70 -7 c33 -13 3 -74 -36 -74 -19 0 -22 17 -12 58 6 22 20 27 48 16z
m-6 -101 c17 -34 -11 -73 -52 -73 -34 0 -39 13 -22 55 12 27 21 35 40 35 14 0
29 -8 34 -17z"/>
<path d="M5913 6064 c-1 -33 -29 -141 -42 -164 -7 -13 1 -15 55 -12 56 3 66 7
98 38 30 29 36 42 36 78 0 63 -17 79 -86 84 -59 4 -59 4 -61 -24z m108 -5 c35
-35 5 -140 -45 -153 -32 -9 -76 -7 -76 3 0 7 30 112 45 159 7 19 53 14 76 -9z"/>
<path d="M9520 6071 c-5 -11 -10 -38 -10 -60 0 -34 -3 -41 -20 -41 -24 0 -25
8 -4 38 9 13 14 25 12 27 -2 3 -18 -15 -35 -39 l-32 -45 35 6 c33 5 34 5 34
-29 0 -25 4 -34 18 -35 15 -1 17 10 19 98 1 54 0 99 -2 99 -3 0 -9 -9 -15 -19z"/>
<path d="M10676 6025 c-25 -36 -46 -67 -46 -69 0 -2 11 -1 25 2 25 4 33 17 15
24 -5 2 2 17 16 33 l25 30 -6 -30 c-12 -60 -11 -120 3 -120 9 0 14 27 18 98 3
53 3 97 0 97 -2 0 -25 -29 -50 -65z"/>
<path d="M407 6062 c-20 -21 -23 -82 -5 -100 7 -7 25 -12 40 -12 26 0 27 -1
16 -26 -7 -15 -26 -33 -43 -40 -16 -7 -24 -13 -17 -14 23 0 71 30 84 53 22 40
26 103 9 125 -24 31 -63 37 -84 14z m69 -38 c6 -33 -7 -64 -27 -64 -16 0 -39
32 -39 55 0 29 25 56 45 49 8 -3 17 -21 21 -40z"/>
<path d="M6995 6070 c-17 -8 -16 -8 8 -7 15 1 27 5 27 9 0 10 -9 9 -35 -2z"/>
<path d="M282 6020 c5 -30 5 -70 0 -100 -9 -47 -8 -50 12 -50 20 0 21 4 18
100 -3 88 -5 100 -21 100 -16 0 -17 -5 -9 -50z"/>
<path d="M1180 6044 c0 -16 5 -24 13 -21 6 2 11 11 9 21 -2 12 5 16 33 16 24
0 35 -4 33 -12 -5 -21 16 -18 24 3 7 17 3 19 -52 19 -58 0 -60 -1 -60 -26z"/>
<path d="M1448 5998 c-2 -35 -3 -64 -3 -65 1 -1 14 2 31 6 24 8 25 9 7 10 -20
1 -23 6 -23 46 0 25 5 45 11 45 5 0 7 5 4 10 -14 23 -23 6 -27 -52z"/>
<path d="M1660 6005 c0 -45 -3 -55 -17 -56 -15 0 -15 -2 2 -9 34 -14 35 -12
35 55 0 37 -4 65 -10 65 -5 0 -10 -25 -10 -55z"/>
<path d="M6625 6018 c-22 -23 -31 -36 -20 -30 27 14 65 51 65 62 0 14 -1 14
-45 -32z"/>
<path d="M6751 6053 c0 -13 59 -56 66 -49 4 3 -2 13 -13 21 -30 24 -54 36 -53
28z"/>
<path d="M8236 6033 c-4 -13 -14 -23 -21 -23 -9 0 -12 -6 -8 -16 4 -10 -10
-32 -38 -62 l-44 -46 38 28 37 27 0 -45 c0 -48 2 -50 35 -36 17 7 17 9 3 9
-14 1 -18 10 -18 36 l0 35 65 0 65 0 0 -34 c0 -32 -3 -35 -32 -39 -30 -3 -29
-4 8 -5 l41 -2 -1 47 -1 46 -77 -2 c-43 -1 -78 2 -78 6 0 5 9 19 21 31 11 13
19 32 17 45 l-4 22 -8 -22z"/>
<path d="M10246 6033 c-3 -3 -6 -14 -6 -24 0 -23 -49 -81 -62 -73 -5 3 -18 20
-29 38 -11 18 -19 24 -19 15 0 -9 9 -28 21 -43 25 -31 19 -42 -35 -67 -22 -10
-34 -19 -26 -19 8 0 30 9 48 20 40 25 48 25 97 0 42 -21 65 -25 65 -11 0 5
-12 11 -27 14 -16 3 -37 13 -48 21 -17 12 -18 18 -8 33 30 43 52 92 44 97 -4
3 -11 3 -15 -1z"/>
<path d="M13531 6031 c-9 -6 -11 -14 -4 -26 9 -15 11 -14 15 9 3 14 5 26 4 26
0 0 -7 -4 -15 -9z"/>
<path d="M1220 6009 c0 -11 5 -17 10 -14 6 3 10 13 10 21 0 8 -4 14 -10 14 -5
0 -10 -9 -10 -21z"/>
<path d="M11940 6022 c0 -4 6 -14 12 -20 10 -10 10 -15 -2 -23 -13 -9 -13 -10
0 -6 21 5 26 57 6 57 -9 0 -16 -4 -16 -8z"/>
<path d="M13733 6023 c20 -2 54 -2 75 0 20 2 3 4 -38 4 -41 0 -58 -2 -37 -4z"/>
<path d="M3900 5964 c0 -51 2 -55 20 -49 25 8 26 -10 3 -25 -17 -11 -17 -11 0
-6 10 3 23 6 28 6 5 0 9 9 9 20 0 13 -7 20 -20 20 -11 0 -20 5 -20 10 0 6 24
10 54 10 50 0 54 -1 54 -25 0 -14 -6 -25 -12 -25 -6 0 -3 -5 7 -11 23 -14 22
-33 -3 -26 -11 3 -22 1 -25 -3 -3 -5 19 -8 48 -7 l54 2 0 35 c0 19 -2 26 -4
15 -3 -11 -9 -24 -14 -30 -17 -17 -29 17 -29 83 0 34 -4 62 -10 62 -10 0 -14
-21 -11 -47 1 -9 -15 -13 -54 -13 -48 0 -55 2 -55 20 0 11 6 20 13 20 8 0 7 4
-3 10 -26 17 -30 11 -30 -46z"/>
<path d="M7000 5961 c0 -74 -6 -91 -34 -91 -20 -1 -20 -1 -2 -12 15 -9 22 -7
33 8 7 10 13 28 13 40 0 11 3 42 6 68 5 31 3 46 -5 46 -7 0 -11 -22 -11 -59z"/>
<path d="M7777 6013 c-4 -3 -7 -17 -7 -30 0 -19 5 -23 30 -23 17 0 30 4 30 9
0 4 -11 6 -25 3 -18 -3 -25 0 -25 11 0 22 18 31 35 17 9 -7 15 -8 15 -2 0 16
-40 28 -53 15z"/>
<path d="M8335 6010 l-40 -7 53 -2 c33 0 51 3 47 9 -3 6 -9 9 -13 9 -4 -1 -25
-5 -47 -9z"/>
<path d="M1296 5995 c-4 -11 -21 -15 -65 -15 l-59 0 -4 -47 c-3 -27 -4 -50 -2
-53 1 -3 33 -3 71 0 l68 5 5 63 c5 59 -1 80 -14 47z m-4 -37 c2 -6 2 -24 0
-40 -4 -27 -7 -28 -58 -28 l-54 0 0 40 0 40 54 0 c32 0 56 -5 58 -12z"/>
<path d="M1200 5929 c0 -18 3 -29 7 -25 10 10 11 46 1 52 -4 3 -8 -9 -8 -27z"/>
<path d="M1240 5950 c-11 -7 -11 -10 -2 -10 7 0 12 -6 10 -12 -2 -7 2 -15 7
-18 6 -3 11 7 13 23 4 29 -3 33 -28 17z"/>
<path d="M1875 6001 c-3 -5 -1 -13 5 -16 6 -4 8 -16 4 -28 -6 -19 -5 -20 10
-8 20 17 21 61 2 61 -8 0 -17 -4 -21 -9z"/>
<path d="M3746 6001 c-3 -5 -59 -10 -123 -10 -64 -1 -119 -4 -122 -6 -2 -3 57
-5 132 -5 79 0 137 4 137 9 0 14 -18 23 -24 12z"/>
<path d="M4313 6000 c25 -16 22 -42 -5 -38 -15 2 -22 9 -21 22 1 11 -2 15 -8
9 -18 -18 2 -44 30 -41 20 2 26 8 26 28 0 17 -6 26 -20 28 -18 2 -18 2 -2 -8z"/>
<path d="M6648 5985 c-20 -27 -22 -35 -9 -35 5 0 13 9 16 21 7 20 8 19 27 -11
l19 -32 -22 -24 c-12 -13 -40 -30 -63 -39 -40 -15 -40 -15 -7 -10 19 3 50 17
69 32 34 25 35 25 61 9 47 -31 93 -48 103 -38 6 6 -7 13 -34 20 -24 6 -52 18
-63 26 -20 15 -20 15 3 55 25 45 26 51 12 51 -5 0 -10 -6 -10 -12 0 -7 -9 -24
-19 -36 -16 -22 -19 -23 -34 -7 -9 9 -17 23 -17 30 0 24 -14 24 -32 0z"/>
<path d="M9139 5999 c-9 -5 15 -9 60 -9 41 0 72 3 69 6 -10 9 -115 12 -129 3z"/>
<path d="M1163 5993 c9 -2 23 -2 30 0 6 3 -1 5 -18 5 -16 0 -22 -2 -12 -5z"/>
<path d="M5290 5980 c0 -11 2 -20 4 -20 2 0 6 9 9 20 3 11 1 20 -4 20 -5 0 -9
-9 -9 -20z"/>
<path d="M7090 5996 c0 -3 14 -14 30 -26 17 -12 30 -17 30 -11 0 6 -13 17 -30
26 -16 9 -30 13 -30 11z"/>
<path d="M13569 5954 c-7 -9 -22 -20 -34 -24 -18 -8 -18 -9 5 -9 15 -1 30 7
38 20 16 26 10 35 -9 13z"/>
<path d="M13733 5963 c20 -2 54 -2 75 0 20 2 3 4 -38 4 -41 0 -58 -2 -37 -4z"/>
<path d="M3205 5950 c-3 -5 1 -10 9 -10 9 0 16 5 16 10 0 6 -4 10 -9 10 -6 0
-13 -4 -16 -10z"/>
<path d="M9130 5948 c0 -5 35 -7 78 -7 78 2 69 6 -26 11 -28 2 -52 0 -52 -4z"/>
<path d="M7542 5930 c-7 -11 -19 -20 -27 -20 -8 0 -15 -4 -15 -9 0 -14 42 -4
52 11 7 12 11 38 5 38 -1 0 -8 -9 -15 -20z"/>
<path d="M9407 5922 c-21 -23 -21 -32 -3 -32 7 0 16 11 18 25 6 30 6 30 -15 7z"/>
<path d="M10591 5916 l-22 -23 25 4 c17 4 24 11 23 24 -2 23 1 24 -26 -5z"/>
<path d="M12333 5933 c-7 -3 -13 -10 -13 -18 0 -7 -10 -20 -22 -28 -13 -9 -18
-16 -13 -16 14 0 67 48 63 58 -2 4 -9 6 -15 4z"/>
<path d="M3360 5924 c0 -5 7 -18 15 -28 12 -16 15 -17 15 -4 0 8 -7 21 -15 28
-8 7 -15 9 -15 4z"/>
<path d="M12884 5923 c11 -11 76 -12 76 -1 0 4 -19 8 -42 8 -23 0 -38 -3 -34
-7z"/>
<path d="M12970 5926 c0 -9 30 -14 35 -6 4 6 -3 10 -14 10 -12 0 -21 -2 -21
-4z"/>
<path d="M2208 5899 c-17 -18 -17 -19 2 -19 13 0 20 7 20 20 0 24 0 24 -22 -1z"/>
<path d="M7110 5888 c19 -19 39 -32 43 -30 12 6 -12 30 -47 47 l-31 16 35 -33z"/>
<path d="M11580 5910 c-8 -5 -10 -10 -5 -10 6 0 17 5 25 10 8 5 11 10 5 10 -5
0 -17 -5 -25 -10z"/>
<path d="M12402 5900 c7 -11 16 -20 21 -20 4 0 3 9 -3 20 -6 11 -15 20 -20 20
-6 0 -5 -9 2 -20z"/>
<path d="M3326 5895 c4 -8 11 -15 16 -15 6 0 5 6 -2 15 -7 8 -14 15 -16 15 -2
0 -1 -7 2 -15z"/>
<path d="M550 5885 c0 -8 5 -15 10 -15 6 0 10 7 10 15 0 8 -4 15 -10 15 -5 0
-10 -7 -10 -15z"/>
<path d="M3175 5873 l-17 -28 23 22 c12 12 20 25 17 28 -3 3 -13 -7 -23 -22z"/>
<path d="M3220 5885 c-7 -9 -10 -18 -7 -21 3 -3 10 4 17 15 13 25 8 27 -10 6z"/>
<path d="M3282 5880 c0 -14 2 -19 5 -12 2 6 2 18 0 25 -3 6 -5 1 -5 -13z"/>
<path d="M5228 5872 c-21 -14 -36 -27 -34 -29 5 -5 95 41 96 50 0 13 -25 5
-62 -21z"/>
<path d="M5360 5893 c1 -11 71 -45 78 -38 8 7 1 12 -41 30 -20 8 -37 12 -37 8z"/>
<path d="M3930 5860 c0 -5 7 -10 16 -10 8 0 12 5 9 10 -3 6 -10 10 -16 10 -5
0 -9 -4 -9 -10z"/>
<path d="M11868 5312 c10 -7 8 -26 -12 -96 -14 -48 -28 -92 -32 -97 -3 -5 19
-9 50 -9 45 0 60 5 87 27 47 40 63 84 45 127 -8 18 -19 37 -25 41 -18 10 -128
18 -113 7z m116 -54 c17 -67 -19 -118 -93 -133 l-34 -7 7 38 c4 22 15 63 24
92 16 52 17 53 51 50 32 -3 37 -7 45 -40z"/>
<path d="M2042 5263 c-24 -66 -25 -70 -12 -50 6 9 15 17 19 17 11 0 32 -50 25
-61 -3 -5 2 -17 11 -26 10 -9 15 -26 12 -40 -4 -20 -1 -23 30 -23 31 0 33 2
19 15 -8 8 -29 52 -46 97 -38 100 -45 108 -58 71z"/>
<path d="M2941 5280 c-10 -6 -31 -46 -31 -58 0 -6 13 -15 29 -20 38 -13 54
-43 42 -75 -11 -27 -40 -39 -65 -25 -12 7 -16 5 -16 -7 0 -10 10 -15 29 -15
35 0 71 40 71 77 0 24 -40 73 -60 73 -5 0 -10 6 -10 14 0 9 12 16 32 18 17 2
33 9 36 15 4 13 -39 15 -57 3z"/>
<path d="M3068 5276 c-10 -7 -18 -17 -18 -22 0 -4 5 -3 12 4 18 18 46 14 59
-9 9 -17 7 -25 -10 -43 -20 -21 -20 -22 -1 -34 26 -16 26 -58 0 -72 -11 -6
-32 -7 -46 -4 -19 5 -25 4 -20 -5 11 -18 64 -13 86 9 22 22 27 79 9 97 -8 8
-7 16 2 31 11 18 10 24 -5 41 -22 24 -43 26 -68 7z"/>
<path d="M3212 5278 c-30 -30 -3 -82 40 -76 25 3 33 26 24 64 -7 26 -43 33
-64 12z m58 -34 c0 -19 -5 -24 -25 -24 -32 0 -45 28 -21 46 24 17 46 7 46 -22z"/>
<path d="M3579 5203 c18 -4 22 -10 18 -30 -3 -16 -1 -21 5 -15 18 18 4 47 -22
49 -24 1 -24 1 -1 -4z"/>
<path d="M1990 5145 c-13 -27 -29 -53 -34 -57 -6 -4 1 -8 16 -8 20 0 26 4 22
14 -9 22 14 56 39 57 16 1 17 3 5 6 -9 2 -18 12 -21 21 -2 11 -12 -1 -27 -33z"/>
<path d="M3550 5172 c0 -12 19 -26 26 -19 2 2 -2 10 -11 17 -9 8 -15 8 -15 2z"/>
<path d="M10755 5164 c-135 -21 -219 -39 -335 -72 -93 -26 -278 -95 -328 -121
-9 -5 -30 -16 -47 -24 -29 -13 -58 -29 -155 -85 -194 -112 -410 -293 -558
-468 -132 -155 -149 -177 -211 -277 -241 -385 -365 -789 -380 -1232 -5 -173
-2 -271 14 -380 35 -247 68 -384 136 -562 46 -123 162 -363 194 -403 6 -8 29
-44 50 -80 87 -148 321 -404 480 -526 209 -162 527 -330 715 -380 8 -2 47 -13
85 -24 157 -46 315 -64 560 -64 248 -1 368 12 559 60 288 73 602 230 846 425
98 78 301 282 352 354 16 22 49 67 74 100 210 280 381 684 424 1005 6 47 13
96 15 110 17 104 20 159 19 335 -1 396 -82 738 -257 1093 -122 247 -347 530
-564 712 -171 143 -410 286 -598 360 -44 17 -89 35 -100 40 -11 5 -58 19 -105
30 -47 11 -96 25 -108 30 -13 6 -97 22 -187 35 -190 29 -438 33 -590 9z m595
-28 c36 -8 145 -34 243 -57 116 -28 177 -47 177 -55 0 -7 -44 -34 -97 -60 -91
-43 -192 -93 -655 -325 -97 -49 -181 -89 -186 -89 -4 0 -33 -15 -63 -33 -30
-17 -88 -47 -129 -66 -41 -19 -78 -39 -82 -45 -4 -6 -8 -7 -8 -2 0 5 -6 4 -12
-2 -7 -6 -146 -76 -308 -157 -162 -80 -306 -153 -320 -161 -14 -8 -50 -27 -80
-40 -30 -14 -77 -37 -105 -51 -313 -160 -822 -413 -831 -413 -11 0 88 262 107
286 5 6 29 49 52 95 53 101 121 207 199 310 81 106 275 307 361 374 83 64 336
235 349 235 5 0 27 12 51 27 145 92 494 199 792 244 88 13 472 3 545 -15z
m725 -249 c263 -144 467 -315 649 -543 81 -101 126 -162 126 -169 0 -3 24 -41
53 -83 29 -42 61 -95 71 -117 9 -22 31 -67 48 -100 48 -94 126 -317 152 -434
61 -270 70 -351 71 -608 0 -133 -3 -244 -7 -248 -8 -8 -116 14 -413 85 -110
27 -234 56 -275 65 -41 9 -129 29 -195 45 -66 16 -169 38 -230 50 -60 12 -150
32 -200 45 -49 14 -146 36 -215 50 -69 15 -173 38 -232 52 -119 27 -115 23
-88 99 19 50 -7 204 -47 277 -29 52 -104 127 -155 153 -27 13 -48 31 -48 40 0
8 14 43 31 77 17 34 69 148 115 252 46 105 95 213 109 240 13 28 46 97 73 155
27 58 83 175 124 260 110 225 208 436 208 447 0 44 76 20 275 -90z m-295 90
c0 -6 -22 -57 -49 -112 -27 -55 -67 -138 -89 -185 -22 -47 -80 -168 -129 -270
-91 -188 -119 -247 -238 -515 -120 -270 -350 -756 -370 -783 -3 -3 -235 43
-314 62 -130 32 -647 148 -851 192 -85 18 -175 38 -200 44 -94 24 -323 75
-400 90 -78 14 -220 53 -220 60 0 3 60 35 133 71 231 115 981 490 1002 502 52
29 1711 857 1718 857 4 0 7 -6 7 -13z m-2706 -1481 c78 -19 180 -42 229 -52
99 -19 98 -17 66 -112 -28 -84 -95 -172 -166 -220 -55 -37 -129 -69 -139 -60
-2 3 -17 42 -33 89 -16 46 -52 149 -80 229 -28 80 -51 148 -51 153 0 13 30 8
174 -27z m-154 -101 c22 -66 44 -129 50 -140 6 -11 14 -33 19 -50 21 -69 202
-592 211 -610 10 -19 55 -151 141 -410 21 -66 43 -129 49 -140 5 -11 36 -101
70 -200 33 -99 65 -189 70 -200 6 -11 32 -85 59 -165 92 -274 141 -415 156
-447 8 -17 15 -35 15 -40 0 -4 14 -43 31 -87 16 -43 29 -80 27 -82 -6 -6 -102
58 -200 133 -204 156 -467 471 -562 673 -12 25 -38 74 -58 110 -20 36 -49 101
-64 145 -15 44 -30 85 -34 90 -11 15 -45 128 -69 225 -60 247 -78 427 -70 690
4 107 12 218 18 245 5 28 13 66 15 85 8 54 25 139 36 179 5 20 15 55 20 79 6
24 16 42 21 40 6 -2 28 -57 49 -123z m2294 75 c56 -38 80 -66 109 -125 29 -57
57 -158 57 -203 0 -53 -22 -132 -37 -132 -26 0 -403 86 -410 94 -3 2 28 71 67
153 40 81 83 172 97 201 22 49 27 53 50 47 14 -3 45 -19 67 -35z m-1696 -74
c53 -14 151 -36 217 -51 66 -14 197 -43 290 -64 94 -22 233 -53 310 -70 77
-16 209 -46 293 -65 85 -20 176 -39 204 -42 27 -4 52 -12 55 -19 2 -7 -16 -54
-42 -104 -25 -51 -54 -113 -64 -139 -11 -26 -38 -86 -60 -134 -23 -48 -41 -92
-41 -97 0 -6 -33 -79 -74 -163 -93 -194 -146 -306 -146 -312 0 -2 -27 -60 -59
-128 -33 -68 -87 -181 -121 -253 -34 -71 -84 -175 -110 -230 -26 -55 -51 -110
-55 -122 -3 -13 -35 -82 -69 -155 -71 -149 -107 -227 -157 -340 -19 -43 -38
-78 -44 -78 -5 0 -24 42 -42 93 -38 110 -125 362 -217 622 -37 105 -83 237
-102 295 -19 58 -39 114 -44 125 -11 21 -76 211 -160 466 -26 80 -53 154 -59
165 -7 10 -29 73 -51 139 -21 66 -53 158 -70 204 -31 84 -30 100 6 101 24 0
152 87 191 129 49 53 76 105 99 191 10 33 19 60 21 60 3 0 48 -11 101 -24z
m1542 -345 c384 -90 488 -114 620 -142 202 -42 210 -44 350 -78 69 -16 188
-44 265 -60 129 -28 388 -87 630 -145 55 -14 137 -32 183 -42 49 -10 81 -22
79 -28 -2 -6 -48 -33 -103 -61 -54 -27 -101 -52 -104 -55 -3 -3 -36 -21 -75
-40 -79 -39 -330 -170 -420 -219 -33 -19 -157 -83 -275 -144 -118 -60 -294
-151 -390 -202 -96 -50 -227 -118 -290 -150 -63 -31 -188 -96 -278 -144 -89
-47 -197 -104 -240 -126 -42 -23 -138 -72 -212 -111 -200 -105 -345 -180 -535
-279 -93 -48 -174 -91 -180 -95 -5 -5 -51 -29 -102 -54 -94 -47 -125 -57 -105
-33 6 7 31 59 55 115 24 55 48 107 54 114 5 7 22 42 37 78 16 36 44 97 62 137
19 40 34 75 34 78 0 3 25 58 56 123 153 319 314 661 314 666 0 4 34 77 156
332 19 39 34 74 34 78 0 28 232 515 245 516 6 0 66 -13 135 -29z m2170 -533
c0 -11 -4 -37 -9 -57 -6 -20 -19 -86 -30 -146 -66 -348 -245 -717 -499 -1025
-188 -228 -389 -395 -647 -537 -296 -163 -533 -232 -935 -271 -246 -24 -624
31 -875 127 -44 17 -83 31 -86 31 -22 0 -272 133 -276 147 -2 5 43 33 99 61
57 28 193 99 303 157 110 58 240 125 289 150 48 24 93 48 100 54 6 5 115 62
241 126 127 65 264 137 305 160 41 23 208 110 370 192 162 83 313 160 335 173
22 12 123 65 225 117 102 53 228 118 280 146 52 28 167 88 255 135 88 47 194
101 235 120 41 20 77 39 80 42 3 4 46 28 95 53 50 25 99 52 110 60 24 18 35
13 35 -15z"/>
<path d="M11772 3509 c-18 -7 -23 -15 -20 -35 7 -56 69 -57 76 -1 4 32 -23 49
-56 36z m44 -24 c7 -18 -13 -45 -33 -45 -17 0 -27 24 -19 45 7 20 45 19 52 0z"/>
<path d="M11437 3503 c-4 -3 -7 -12 -7 -20 0 -10 5 -11 19 -3 17 9 81 15 81 7
0 -1 -14 -38 -30 -81 -32 -81 -36 -132 -6 -61 15 36 56 153 56 162 0 6 -107 3
-113 -4z"/>
<path d="M11618 3444 c-26 -37 -45 -70 -42 -75 3 -5 23 -9 44 -9 32 0 39 -4
42 -22 4 -28 21 -30 27 -3 2 11 8 23 15 28 8 5 8 9 -1 15 -8 5 -13 33 -14 70
-1 38 -6 62 -13 62 -6 0 -32 -30 -58 -66z m42 -14 l0 -50 -36 0 c-20 0 -34 3
-32 8 4 10 62 91 66 92 1 0 2 -22 2 -50z"/>
<path d="M10772 3328 c-12 -51 -28 -96 -35 -100 -7 -4 23 -8 66 -8 74 0 78 1
87 26 14 36 12 39 -8 14 -11 -13 -33 -23 -60 -27 -38 -5 -42 -3 -42 15 0 11 5
33 10 48 9 23 15 26 40 20 17 -3 30 -1 30 3 0 5 3 18 7 28 7 17 6 17 -11 1 -9
-10 -27 -18 -38 -18 -15 0 -18 4 -13 18 16 41 17 72 4 72 -9 0 -22 -32 -37
-92z"/>
<path d="M10879 3411 c7 -5 17 -15 22 -22 6 -10 9 -8 9 9 0 16 -6 22 -22 22
-17 0 -19 -3 -9 -9z"/>
<path d="M2190 5095 c0 -8 5 -15 10 -15 6 0 10 7 10 15 0 8 -4 15 -10 15 -5 0
-10 -7 -10 -15z"/>
<path d="M1970 4511 c5 -11 10 -54 10 -95 0 -61 -3 -77 -17 -85 -14 -8 -3 -10
44 -11 101 0 143 33 109 86 -13 19 -14 29 -6 45 24 44 -27 79 -117 79 -30 0
-33 -2 -23 -19z m99 -10 c23 -23 18 -57 -11 -64 -29 -8 -45 1 -50 28 -10 50
26 71 61 36z m17 -102 c22 -24 11 -49 -28 -63 -41 -15 -58 -2 -58 44 0 39 1
40 33 40 22 0 41 -8 53 -21z"/>
<path d="M2916 4493 c-17 -36 -11 -52 20 -53 17 0 44 -35 44 -57 0 -30 -25
-46 -60 -39 -22 4 -30 2 -30 -9 0 -8 9 -15 19 -15 89 0 120 99 45 139 -34 18
-34 41 -1 41 19 0 60 18 47 21 -54 11 -68 6 -84 -28z"/>
<path d="M3061 4520 c-4 -3 -11 -14 -15 -25 -6 -16 -5 -18 5 -7 12 11 89 18
89 7 0 -2 -13 -40 -29 -85 -16 -44 -26 -82 -21 -85 4 -3 10 3 13 13 3 9 17 50
31 90 35 101 35 103 -20 100 -25 -2 -49 -5 -53 -8z"/>
<path d="M3205 4506 c-14 -20 -14 -28 -3 -45 23 -38 78 -21 78 24 0 47 -49 60
-75 21z m65 -21 c0 -19 -25 -36 -44 -29 -21 8 -21 40 1 53 20 10 43 -3 43 -24z"/>
<path d="M3556 4442 c-3 -5 5 -8 17 -8 18 1 21 -4 19 -24 -2 -18 0 -22 9 -13
16 16 1 53 -21 53 -10 0 -21 -4 -24 -8z"/>
<path d="M3550 4406 c0 -2 7 -9 15 -16 9 -7 15 -8 15 -2 0 5 -7 12 -15 16 -8
3 -15 4 -15 2z"/>
<path d="M2180 4335 c0 -8 5 -15 10 -15 6 0 10 7 10 15 0 8 -4 15 -10 15 -5 0
-10 -7 -10 -15z"/>
<path d="M1997 3750 c-14 -11 -31 -36 -37 -55 -32 -97 73 -176 147 -110 l28
26 -36 -21 c-68 -38 -127 11 -115 95 11 73 74 99 120 50 l22 -24 -4 28 c-4 26
-7 28 -51 30 -35 1 -55 -4 -74 -19z"/>
<path d="M2937 3748 c-35 -33 -47 -61 -47 -107 0 -42 26 -81 53 -81 43 0 75
58 57 104 -7 20 -16 26 -40 26 -46 0 -32 48 21 69 23 9 23 10 2 10 -12 1 -33
-9 -46 -21z m33 -71 c0 -1 4 -16 9 -34 12 -42 -10 -78 -39 -63 -41 22 -32 100
10 100 11 0 20 -1 20 -3z"/>
<path d="M3056 3748 c-17 -25 -21 -65 -7 -87 5 -7 24 -14 42 -15 24 -2 33 -7
31 -17 -5 -20 -33 -49 -48 -49 -7 0 -16 -5 -20 -11 -15 -25 42 4 74 37 27 28
32 41 32 82 0 35 -5 54 -18 65 -26 24 -68 21 -86 -5z m74 -8 c18 -34 9 -74
-19 -78 -13 -2 -28 2 -32 10 -10 16 -12 72 -2 81 13 14 43 6 53 -13z"/>
<path d="M3214 3762 c-21 -14 -23 -50 -4 -67 36 -32 79 -1 66 48 -6 27 -37 36
-62 19z m46 -17 c18 -21 5 -45 -25 -45 -20 0 -25 5 -25 23 0 39 26 50 50 22z"/>
<path d="M3599 3683 c18 -4 22 -10 18 -30 -3 -16 -1 -21 5 -15 18 18 4 47 -22
49 -24 1 -24 1 -1 -4z"/>
<path d="M8709 3608 c-24 -35 -59 -80 -78 -101 -33 -37 -36 -55 -7 -44 8 3 16
16 18 29 2 13 13 27 26 33 12 5 20 15 18 20 -2 6 7 24 20 40 l24 30 -1 -25 c0
-14 -4 -46 -8 -72 -7 -42 -6 -48 9 -48 15 0 18 11 19 67 0 37 4 82 7 100 3 18
4 33 2 33 -3 0 -25 -28 -49 -62z"/>
<path d="M2170 3575 c0 -8 5 -15 10 -15 6 0 10 7 10 15 0 8 -4 15 -10 15 -5 0
-10 -7 -10 -15z"/>
<path d="M1958 3013 c8 -3 12 -33 12 -98 0 -65 -4 -95 -12 -98 -7 -3 13 -6 45
-6 93 -1 136 32 137 107 0 52 -34 92 -77 92 l-28 -1 30 -13 c29 -13 55 -51 55
-82 0 -28 -28 -70 -55 -82 -34 -16 -65 -15 -67 1 -11 92 -3 167 17 167 8 0 15
5 15 10 0 6 -19 10 -42 9 -24 0 -37 -3 -30 -6z"/>
<path d="M2892 3000 c-11 -19 -10 -20 13 -15 90 18 84 26 50 -76 -14 -41 -24
-81 -22 -89 3 -14 67 167 67 190 0 6 -21 10 -48 10 -37 0 -50 -5 -60 -20z"/>
<path d="M3093 2983 c-28 -35 -63 -95 -63 -108 0 -3 18 -5 39 -5 36 0 40 -3
43 -27 4 -35 22 -37 27 -3 1 14 8 28 15 33 8 5 7 10 -3 16 -11 7 -14 26 -12
70 1 34 -2 61 -7 61 -5 0 -22 -17 -39 -37z m17 -53 c0 -38 -2 -40 -30 -40 -16
0 -30 2 -30 4 0 12 43 76 51 76 5 0 9 -18 9 -40z"/>
<path d="M3202 3008 c-29 -29 2 -84 42 -74 30 7 45 48 26 71 -15 18 -51 20
-68 3z m56 -31 c3 -23 0 -27 -23 -27 -30 0 -43 24 -25 46 19 22 45 13 48 -19z"/>
<path d="M3583 2943 c-15 -5 -18 -53 -4 -53 5 0 7 9 4 20 -4 16 0 20 17 20 18
0 21 -4 17 -21 -5 -17 -3 -19 6 -10 21 21 -11 56 -40 44z"/>
<path d="M2180 2823 c0 -7 7 -13 15 -13 8 0 15 6 15 13 0 8 -7 14 -15 14 -8 0
-15 -6 -15 -14z"/>
<path d="M13412 2610 c-88 -54 -75 -191 18 -190 24 1 23 1 -7 15 -47 20 -55
43 -38 103 18 61 34 75 87 76 37 1 43 -2 48 -24 5 -22 7 -23 13 -7 13 35 8 42
-41 45 -33 2 -56 -4 -80 -18z"/>
<path d="M13476 2445 c-11 -8 -15 -15 -10 -15 6 0 19 7 30 15 10 8 15 14 9 14
-5 0 -19 -6 -29 -14z"/>
<path d="M9746 677 c3 -10 1 -29 -4 -41 -11 -21 -42 -127 -42 -141 0 -12 110
2 126 16 17 14 19 79 2 79 -6 0 -2 10 10 23 26 27 29 62 6 71 -24 9 -26 8 -14
-13 13 -25 13 -27 -6 -45 -8 -9 -26 -16 -39 -16 -20 0 -23 4 -19 27 3 15 10
33 15 39 7 8 2 13 -16 16 -22 5 -25 2 -19 -15z m62 -89 c30 -30 0 -78 -49 -78
-33 0 -35 7 -15 55 16 36 41 46 64 23z"/>
</g>
</svg>
