<?xml version="1.0" standalone="no"?>
<!DOCTYPE svg PUBLIC "-//W3C//DTD SVG 20010904//EN"
 "http://www.w3.org/TR/2001/REC-SVG-20010904/DTD/svg10.dtd">
<svg version="1.0" xmlns="http://www.w3.org/2000/svg"
 width="1474.000000pt" height="558.000000pt" viewBox="0 0 1474.000000 558.000000"
 preserveAspectRatio="xMidYMid meet">
<metadata>
Created by potrace 1.16, written by Peter Selinger 2001-2019
</metadata>
<g transform="translate(0.000000,558.000000) scale(0.100000,-0.100000)"
fill="#000000" stroke="none">
<path d="M1500 5319 l0 -31 -55 4 -55 3 0 -67 c0 -69 3 -75 30 -58 10 6 11 10
3 10 -9 0 -13 17 -13 50 l0 50 45 0 45 0 0 -44 c0 -39 -3 -45 -27 -54 l-28
-10 28 -1 c26 -1 27 -3 27 -51 0 -29 5 -50 11 -50 7 0 9 18 7 48 -3 47 -3 47
32 53 l35 6 -35 4 c-34 4 -35 5 -35 49 l0 45 49 3 49 3 -5 -56 c-3 -31 -1 -58
4 -61 4 -3 8 17 8 45 0 27 3 56 6 65 5 13 -3 16 -49 16 -57 0 -73 12 -61 45 4
8 1 15 -5 15 -6 0 -11 -14 -11 -31z"/>
<path d="M3333 5343 c-13 -2 -23 -8 -23 -12 0 -10 59 -1 66 10 5 9 -4 10 -43
2z"/>
<path d="M3877 5343 c-4 -3 -7 -16 -7 -28 0 -12 -3 -25 -7 -28 -3 -4 -7 -17
-8 -30 -1 -12 -5 -33 -10 -47 -7 -22 -6 -23 8 -12 14 12 16 6 20 -60 l3 -73 2
83 c2 73 13 104 25 70 2 -7 7 -10 11 -7 3 3 -3 18 -14 32 -24 31 -17 37 47 40
l48 2 2 -48 c2 -46 1 -47 -28 -47 -29 0 -30 2 -24 30 4 19 3 30 -4 30 -6 0
-11 -8 -11 -17 0 -10 -3 -28 -6 -40 -6 -21 -4 -22 27 -16 l33 6 -23 -31 c-12
-17 -32 -38 -44 -47 -12 -8 -17 -15 -11 -15 5 0 25 16 44 35 19 19 38 35 42
35 4 0 8 -20 8 -45 0 -25 5 -45 11 -45 5 0 9 8 8 18 -1 9 -1 34 0 55 1 34 3
37 31 37 23 0 30 -5 30 -19 0 -11 -9 -26 -20 -34 -19 -13 -18 -27 2 -27 10 0
38 62 38 84 0 11 -9 13 -40 9 l-40 -6 0 45 c0 51 4 58 31 51 21 -6 27 -33 7
-33 -9 0 -9 -3 0 -12 15 -15 18 -11 25 30 6 31 6 32 -20 25 l-27 -6 17 26 c13
20 14 27 5 27 -7 0 -18 -10 -23 -22 -11 -26 -45 -37 -45 -15 0 8 -7 21 -17 28
-15 13 -15 12 -5 -8 14 -26 9 -30 -46 -32 -43 -1 -44 -1 -37 29 7 30 4 36 -8
23z"/>
<path d="M1058 5263 c-2 -43 -1 -103 2 -133 l5 -55 115 0 115 0 5 130 c3 72 5
131 4 133 -1 1 -12 -2 -25 -7 -18 -7 -20 -10 -6 -10 16 -1 17 -11 15 -113 l-3
-113 -108 -3 -108 -3 2 121 c1 135 -8 175 -13 53z"/>
<path d="M4275 5327 c-18 -11 -20 -23 -20 -135 0 -85 3 -122 11 -122 8 0 12
30 12 93 -1 147 0 155 20 159 9 2 12 6 7 10 -6 3 -19 1 -30 -5z"/>
<path d="M4383 5325 c-3 -9 -22 -27 -42 -40 -19 -14 -32 -25 -26 -25 5 0 23
10 41 22 35 24 61 58 44 58 -6 0 -13 -7 -17 -15z"/>
<path d="M4570 5215 l0 -124 -32 -4 c-18 -2 24 -5 95 -5 85 -1 127 2 127 9 0
7 -11 8 -30 4 -29 -6 -30 -5 -31 32 -1 21 -1 77 1 125 1 86 1 86 -22 80 -12
-3 -17 -7 -10 -10 6 -2 12 -17 12 -33 0 -28 -1 -29 -50 -29 -49 0 -50 1 -50
29 0 16 5 31 12 33 7 3 6 7 -5 11 -15 6 -17 -5 -17 -118z m110 0 l0 -35 -50 0
-50 0 0 35 0 35 50 0 50 0 0 -35z m0 -85 l0 -40 -50 0 -50 0 0 40 0 40 50 0
50 0 0 -40z"/>
<path d="M3181 5295 c-11 -19 -16 -35 -11 -35 6 0 10 5 10 10 0 6 5 10 11 10
15 0 3 -123 -16 -160 -8 -16 -13 -30 -10 -30 15 0 50 99 49 138 l-2 42 65 0
c59 0 65 -2 60 -19 -3 -13 1 -21 14 -24 26 -7 24 -31 -3 -46 -21 -10 -21 -11
-2 -6 30 8 54 -4 54 -27 0 -29 -19 -58 -38 -58 -15 0 -15 -2 -2 -10 22 -14 48
17 56 69 7 42 6 43 -16 36 -21 -7 -23 -5 -17 24 6 27 4 31 -11 29 -12 -2 -16
3 -15 20 2 19 -2 22 -33 22 -33 0 -36 2 -32 25 5 22 2 25 -23 25 -15 0 -31 -4
-34 -10 -4 -6 3 -9 17 -7 14 1 23 -4 26 -15 3 -15 -4 -18 -37 -18 -39 0 -53
11 -31 25 12 8 13 25 1 25 -5 0 -18 -16 -30 -35z"/>
<path d="M6540 5320 c-49 -3 -72 -7 -55 -10 29 -5 29 -6 26 -60 -3 -64 -18
-103 -54 -146 -33 -39 -35 -55 -4 -25 21 19 52 78 72 136 7 18 8 17 18 -10 5
-16 16 -39 23 -50 22 -31 17 -43 -28 -64 -24 -11 -37 -20 -29 -21 7 0 31 10
52 22 l39 22 39 -22 c41 -23 71 -28 71 -12 0 6 -10 10 -22 10 -13 0 -33 8 -46
18 l-24 18 32 51 c18 29 29 56 25 62 -10 17 -25 3 -25 -22 0 -12 -11 -35 -23
-51 l-24 -29 -22 22 c-12 12 -24 35 -28 51 -3 17 -9 30 -14 30 -5 0 -9 16 -9
35 0 35 0 35 46 35 41 0 45 -2 40 -20 -3 -11 -9 -29 -12 -40 -4 -16 -1 -20 18
-20 15 0 19 3 11 8 -10 6 -10 17 -3 42 12 42 12 51 3 48 -5 -1 -46 -4 -93 -8z"/>
<path d="M10520 5320 c-14 -4 -47 -9 -75 -9 -47 -2 -51 -4 -66 -37 -13 -26
-13 -32 -3 -23 23 19 19 -107 -5 -154 -10 -20 -14 -34 -9 -31 6 4 19 26 30 50
l19 44 87 0 88 0 -2 28 c-1 20 -6 26 -19 24 -14 -3 -17 2 -13 22 5 24 2 26
-27 26 -24 0 -34 5 -38 20 -4 17 1 20 44 26 27 4 49 10 49 15 0 11 -25 10 -60
-1z m-50 -24 c0 -2 3 -11 6 -20 5 -13 -2 -16 -35 -16 -39 0 -53 14 -34 33 7 8
63 10 63 3z m70 -55 c0 -6 -10 -17 -21 -25 -21 -14 -21 -15 12 -18 63 -6 35
-23 -43 -26 -65 -2 -78 0 -78 13 0 10 11 15 38 16 l37 2 -35 6 c-22 4 -36 12
-38 24 -3 15 5 17 62 17 36 0 66 -4 66 -9z"/>
<path d="M11491 5304 c-6 -14 -8 -30 -5 -36 5 -8 34 41 34 58 0 14 -19 0 -29
-22z"/>
<path d="M11613 5318 c-19 -31 -53 -111 -48 -116 3 -3 5 -1 5 5 0 5 12 23 27
39 14 16 27 41 28 56 3 31 0 34 -12 16z"/>
<path d="M11910 5299 l0 -31 -55 4 -55 3 0 -62 c0 -58 10 -78 25 -53 3 6 1 10
-5 10 -7 0 -10 16 -8 43 l3 42 48 3 47 3 0 -45 c0 -43 -2 -46 -27 -47 l-28 -1
25 -7 c23 -6 25 -12 25 -59 -1 -68 13 -67 17 1 l3 52 53 0 52 -1 0 41 c0 22 3
49 6 61 5 19 2 20 -57 16 l-62 -5 6 32 c4 18 2 31 -3 31 -6 0 -10 -14 -10 -31z
m110 -84 l0 -45 -50 0 -50 0 0 45 0 45 50 0 50 0 0 -45z"/>
<path d="M12320 5255 c0 -73 -1 -75 -25 -75 -24 0 -25 -3 -25 -60 0 -55 6 -70
23 -53 4 3 2 12 -4 19 -7 8 -9 28 -5 49 6 32 10 35 41 35 28 0 36 -5 40 -22 9
-39 0 -63 -23 -62 -28 1 -19 -12 12 -18 23 -5 25 -2 28 54 3 58 3 58 -25 58
l-28 0 3 75 c3 41 1 75 -4 75 -4 0 -8 -34 -8 -75z"/>
<path d="M13620 5311 c0 -10 -3 -34 -6 -52 -5 -23 -3 -31 4 -24 5 6 12 19 14
30 2 11 11 20 20 20 9 0 20 4 24 8 4 4 -5 7 -19 7 -19 0 -25 4 -21 15 4 8 1
15 -5 15 -6 0 -11 -8 -11 -19z"/>
<path d="M235 5312 c-5 -4 -10 -49 -10 -99 0 -76 3 -93 15 -93 12 0 14 13 12
72 -4 113 -6 128 -17 120z"/>
<path d="M357 5309 c-20 -12 -22 -41 -5 -69 10 -16 10 -24 0 -40 -6 -11 -12
-31 -12 -45 0 -43 63 -61 93 -27 22 25 21 44 -4 71 -20 21 -20 51 0 51 19 0
20 31 1 50 -26 26 -49 26 -25 0 15 -17 16 -24 7 -46 -7 -14 -17 -22 -23 -19
-18 11 -28 49 -16 63 13 17 6 23 -16 11z m59 -145 c4 -17 2 -29 -7 -35 -29
-18 -56 13 -45 55 6 23 9 25 26 16 11 -6 23 -22 26 -36z"/>
<path d="M2255 5239 c-33 -44 -66 -87 -72 -94 -17 -18 -16 -25 2 -25 8 0 15 8
15 18 0 23 19 42 43 42 14 0 17 3 9 13 -7 8 -3 20 14 42 l24 30 0 -32 c0 -17
-5 -35 -11 -39 -8 -5 -8 -8 0 -14 8 -5 9 -14 2 -33 -9 -24 -8 -27 12 -27 21 0
22 4 24 100 1 55 1 100 0 100 -1 0 -29 -36 -62 -81z"/>
<path d="M2417 5278 c-3 -24 -15 -69 -25 -100 l-19 -58 43 0 c23 0 54 4 68 10
30 11 44 53 26 75 -10 13 -10 19 4 33 37 42 10 82 -57 82 -33 0 -35 -2 -40
-42z m83 17 c11 -13 11 -20 0 -40 -7 -14 -20 -25 -29 -25 -14 -1 -14 -2 2 -14
39 -30 12 -86 -44 -86 -20 0 -21 3 -15 42 4 22 10 46 14 52 3 6 8 22 10 36 6
47 38 64 62 35z"/>
<path d="M2619 5305 c-80 -44 -84 -172 -5 -187 12 -3 31 -1 42 3 15 6 12 8
-13 8 -62 2 -79 50 -43 128 19 44 45 58 91 51 16 -2 25 -11 27 -26 4 -29 22
-18 22 14 0 22 -4 24 -47 24 -27 -1 -60 -7 -74 -15z"/>
<path d="M2806 5305 c5 -12 -20 -111 -42 -170 -5 -12 3 -15 40 -15 63 0 111
22 136 62 46 76 7 138 -86 138 -43 0 -52 -3 -48 -15z m106 -12 c22 -20 24 -73
3 -112 -19 -38 -104 -68 -119 -42 -3 5 6 45 21 90 24 72 29 81 52 81 13 0 33
-7 43 -17z"/>
<path d="M3377 5295 c18 -25 33 -32 33 -17 0 10 -33 42 -44 42 -4 0 1 -11 11
-25z"/>
<path d="M4198 5285 c2 -19 -1 -42 -8 -50 -9 -10 -9 -15 -1 -15 18 0 13 -57
-9 -102 -11 -23 -18 -44 -15 -46 3 -3 14 16 26 42 23 52 33 206 14 206 -7 0
-9 -15 -7 -35z"/>
<path d="M5599 5293 c-30 -78 -60 -176 -55 -180 3 -3 8 0 10 8 49 146 65 199
60 199 -3 0 -9 -12 -15 -27z"/>
<path d="M5660 5220 c-17 -56 -30 -104 -27 -106 2 -3 19 41 36 97 18 55 30
103 27 106 -2 3 -19 -41 -36 -97z"/>
<path d="M9495 5310 c-28 -7 -27 -8 13 -9 23 0 42 4 42 9 0 11 -11 11 -55 0z"/>
<path d="M9600 5295 c0 -14 -7 -38 -16 -53 l-16 -27 21 24 c12 13 21 32 21 42
0 11 10 24 23 29 21 8 21 9 -5 9 -23 1 -28 -3 -28 -24z"/>
<path d="M9668 5276 c3 -29 9 -47 19 -51 13 -4 14 -3 4 9 -7 9 -11 30 -8 51 3
22 1 35 -7 35 -7 0 -10 -16 -8 -44z"/>
<path d="M12125 5273 c0 -27 5 -48 10 -48 6 0 9 14 7 30 -3 29 -3 30 13 10 16
-19 16 -18 1 8 -10 16 -12 27 -6 27 6 0 8 5 5 10 -16 26 -31 8 -30 -37z"/>
<path d="M12210 5312 l-35 -3 2 -59 c1 -57 0 -59 -25 -63 l-27 -4 29 -2 c23
-1 27 -5 23 -21 -4 -16 0 -20 16 -19 12 0 16 3 10 6 -26 10 -13 33 18 33 18 0
28 4 24 10 -3 6 -17 7 -29 4 -23 -5 -24 -3 -22 48 1 44 4 53 21 56 12 2 16 0
9 -5 -6 -4 -14 -17 -17 -28 -7 -19 -6 -19 7 -2 17 22 30 7 21 -23 -4 -11 -2
-20 3 -20 10 0 22 90 12 94 -3 0 -21 0 -40 -2z"/>
<path d="M13545 5304 c-17 -13 -19 -24 -16 -92 3 -83 4 -87 21 -77 8 5 8 11
-1 21 -14 17 -12 20 21 33 l25 10 -27 0 c-24 1 -26 4 -26 46 0 35 4 45 19 50
10 4 19 11 19 16 0 13 -12 11 -35 -7z"/>
<path d="M13747 5313 c-2 -5 -5 -41 -6 -82 -1 -40 -3 -78 -4 -84 -3 -12 31
-18 39 -6 3 5 -2 9 -10 9 -14 0 -15 10 -10 58 3 31 7 67 10 79 4 21 -10 41
-19 26z"/>
<path d="M1123 5285 c0 -20 5 -25 26 -26 14 0 20 -3 13 -6 -15 -6 -6 -23 14
-23 8 0 14 9 14 20 0 15 -7 20 -25 20 -19 0 -25 5 -23 16 2 10 -2 19 -8 21 -7
2 -11 -7 -11 -22z"/>
<path d="M1190 5300 c-25 -8 -25 -8 4 -9 21 -1 26 -4 18 -13 -7 -9 -6 -17 4
-26 12 -11 14 -9 14 13 0 42 -4 46 -40 35z"/>
<path d="M5181 5258 c-100 -132 -111 -148 -96 -148 8 0 21 16 30 36 12 30 19
35 42 32 25 -3 28 -7 27 -35 -2 -28 2 -33 20 -33 20 0 21 5 22 100 1 55 0 100
-2 100 -1 0 -21 -24 -43 -52z m17 -35 c-2 -20 -9 -29 -25 -31 -27 -4 -28 1 -7
33 22 33 36 32 32 -2z"/>
<path d="M5324 5301 c6 -10 -29 -147 -45 -175 -10 -18 -8 -19 54 -14 76 6 121
34 138 85 13 40 -2 87 -32 103 -22 12 -122 13 -115 1z m107 -22 c17 -17 20
-29 16 -61 -3 -22 -13 -48 -23 -59 -20 -22 -93 -44 -105 -32 -5 5 2 45 17 91
22 74 27 82 49 82 14 0 35 -10 46 -21z"/>
<path d="M5846 5297 c3 -8 -8 -53 -24 -100 l-29 -87 46 0 c62 0 95 18 99 54 2
16 -1 33 -7 39 -7 7 -4 18 9 35 25 31 25 49 1 62 -30 15 -102 13 -95 -3z m84
-17 c9 -16 6 -24 -13 -44 -21 -21 -22 -25 -9 -44 21 -32 -8 -75 -46 -70 -33 4
-34 25 -2 116 23 66 49 82 70 42z"/>
<path d="M6043 5294 c-34 -17 -63 -66 -63 -109 0 -27 48 -85 69 -85 17 0 13 9
-16 34 -30 26 -33 67 -9 115 20 38 47 53 89 49 24 -2 33 -8 35 -26 4 -29 22
-18 22 14 0 22 -4 24 -47 24 -27 0 -62 -8 -80 -16z"/>
<path d="M7103 5232 c-34 -42 -59 -79 -57 -81 2 -3 10 1 16 7 7 7 25 12 41 12
27 0 29 -2 24 -29 -5 -23 -2 -30 13 -34 16 -4 18 0 13 27 -3 18 0 64 6 101 5
38 9 70 8 72 -2 1 -31 -32 -64 -75z m31 -9 c4 -22 -11 -43 -30 -43 -18 0 -18
15 2 46 18 27 24 26 28 -3z"/>
<path d="M7264 5301 c4 -6 0 -33 -9 -60 -9 -27 -18 -62 -21 -78 -3 -15 -9 -32
-15 -37 -15 -16 -10 -23 14 -21 15 1 21 7 20 21 -2 10 8 53 20 94 27 85 44 96
91 59 25 -19 28 -27 23 -62 -6 -40 -36 -82 -69 -93 -10 -3 -18 -9 -18 -14 0
-17 84 35 97 60 18 36 16 84 -5 110 -14 18 -32 24 -77 28 -42 3 -56 2 -51 -7z"/>
<path d="M7684 5283 c0 -16 -10 -61 -22 -100 -19 -67 -19 -73 -4 -73 12 0 17
10 19 36 1 20 9 44 17 53 9 10 13 20 10 24 -10 9 4 54 22 71 14 15 13 16 -13
16 -24 0 -28 -4 -29 -27z"/>
<path d="M7750 5299 c0 -5 5 -9 10 -9 11 0 14 -60 3 -60 -5 0 -15 -5 -23 -10
-13 -8 -12 -11 4 -23 28 -20 15 -62 -24 -75 -38 -14 -40 -24 -2 -12 50 15 62
22 63 39 2 27 -2 46 -12 49 -5 2 1 16 12 32 24 32 19 65 -11 73 -11 3 -20 1
-20 -4z"/>
<path d="M7888 5294 c-38 -20 -71 -87 -63 -125 10 -43 52 -72 94 -65 19 3 42
12 50 21 15 15 13 15 -14 1 -40 -21 -61 -20 -85 4 -39 39 -16 137 38 159 40
17 64 11 78 -17 10 -20 12 -21 18 -7 14 38 7 45 -41 45 -27 -1 -60 -8 -75 -16z"/>
<path d="M8377 5292 c-19 -21 -23 -42 -5 -24 19 19 56 14 68 -8 13 -24 -3 -58
-53 -112 -19 -21 -32 -40 -29 -43 3 -3 27 -5 53 -5 39 0 51 4 59 21 10 19 10
20 -9 10 -21 -12 -71 -15 -71 -5 0 3 15 24 34 47 44 56 52 91 26 117 -25 25
-52 26 -73 2z"/>
<path d="M8724 5300 c-12 -5 -25 -13 -29 -19 -8 -13 -3 -14 29 -1 21 8 27 6
36 -9 7 -15 5 -25 -9 -42 -18 -22 -18 -23 7 -44 26 -22 26 -23 8 -49 -14 -23
-22 -26 -47 -21 -19 4 -29 3 -29 -5 0 -7 14 -10 37 -8 26 2 42 11 57 31 20 27
20 28 2 61 -14 26 -15 38 -7 53 7 15 6 25 -5 41 -17 24 -19 25 -50 12z"/>
<path d="M11153 5298 c-37 -10 -80 -61 -88 -104 -8 -40 26 -94 57 -93 15 1 17
3 7 6 -43 11 -50 101 -11 153 14 18 30 26 59 28 37 3 41 1 48 -25 l8 -28 7 25
c5 14 8 30 9 35 1 12 -53 14 -96 3z"/>
<path d="M13225 5302 c-59 -13 -105 -76 -99 -136 4 -36 45 -76 77 -75 20 1 19
2 -5 12 -15 6 -34 24 -42 41 -21 44 6 114 54 138 41 20 80 14 80 -13 0 -26 16
-24 23 3 4 12 5 23 4 24 -7 5 -75 10 -92 6z"/>
<path d="M10034 5291 c5 -8 -24 -117 -44 -168 -9 -23 -8 -23 60 -23 58 0 71 3
80 19 18 34 11 41 -15 16 -27 -28 -95 -36 -95 -11 0 56 39 93 68 64 9 -9 12
-7 12 9 0 16 -5 19 -25 15 -27 -5 -31 9 -19 56 5 18 13 22 45 22 30 0 39 -4
39 -17 0 -15 2 -16 9 -3 16 24 3 30 -60 30 -33 0 -58 -4 -55 -9z"/>
<path d="M10577 5274 c9 -15 19 -21 21 -15 4 13 -16 41 -29 41 -5 0 -2 -12 8
-26z"/>
<path d="M10925 5290 c6 -10 -28 -142 -45 -172 -9 -15 -6 -18 16 -18 14 0 22
4 19 10 -3 5 -1 28 5 50 9 32 15 40 33 40 54 0 63 -51 15 -80 -28 -17 -30 -20
-12 -20 28 0 74 37 74 60 0 9 -7 23 -15 30 -12 10 -12 15 5 33 23 24 25 48 8
65 -14 14 -112 17 -103 2z m83 -29 c4 -27 -20 -51 -51 -51 -16 0 -18 5 -12 33
10 44 14 49 38 45 15 -2 23 -11 25 -27z"/>
<path d="M13058 5278 c-9 -14 -13 -38 -10 -59 3 -30 0 -37 -16 -42 -30 -7 -34
3 -16 32 8 14 -1 8 -20 -14 -20 -22 -36 -44 -36 -49 0 -5 -7 -18 -17 -28 -13
-15 -13 -18 -2 -18 8 0 19 13 25 29 8 19 20 30 40 34 38 7 51 -6 36 -38 -10
-22 -9 -25 6 -25 13 0 18 9 18 38 1 20 4 65 8 100 3 34 4 62 2 62 -2 0 -10
-10 -18 -22z"/>
<path d="M14076 5287 c3 -8 -4 -52 -14 -99 l-19 -86 22 -4 c69 -14 141 32 152
95 12 77 -17 107 -102 107 -33 0 -43 -3 -39 -13z m104 -17 c50 -50 -2 -160
-77 -160 -35 0 -35 1 -30 33 3 17 12 58 22 90 14 49 20 57 41 57 13 0 33 -9
44 -20z"/>
<path d="M14296 5286 c3 -7 -6 -52 -19 -99 -21 -75 -22 -87 -9 -92 18 -7 39
10 23 19 -5 4 -8 12 -6 19 2 7 13 45 25 85 21 71 21 72 55 72 22 0 38 -6 44
-17 9 -16 10 -16 11 5 0 21 -4 22 -65 22 -50 0 -63 -3 -59 -14z"/>
<path d="M9500 5280 l-45 -7 47 -1 c26 -1 50 3 53 8 3 6 3 9 -2 8 -4 0 -28 -4
-53 -8z"/>
<path d="M11449 5274 c-4 -40 0 -186 5 -191 3 -3 6 -1 6 5 0 6 8 13 18 15 16
4 16 5 0 6 -26 2 -25 67 1 76 10 3 25 3 34 0 18 -8 29 -55 16 -72 -9 -10 6
-31 16 -21 2 2 5 44 6 93 2 71 -1 91 -12 93 -11 2 -13 -8 -10 -44 3 -41 1 -46
-14 -41 -9 4 -26 7 -37 7 -16 0 -19 6 -17 34 2 19 0 38 -4 42 -4 4 -7 3 -8 -2z"/>
<path d="M11673 5274 c21 -7 26 -75 12 -161 -6 -33 -10 -36 -55 -35 -22 1 -21
0 7 -10 50 -17 60 -1 68 100 4 48 7 92 8 97 1 6 -11 11 -28 12 -16 1 -22 -1
-12 -3z"/>
<path d="M4377 5234 c-16 -19 -39 -39 -50 -44 -15 -6 -17 -9 -6 -9 17 -1 99
65 99 80 0 18 -15 8 -43 -27z"/>
<path d="M12360 5260 c0 -5 4 -10 9 -10 6 0 13 5 16 10 3 6 -1 10 -9 10 -9 0
-16 -4 -16 -10z"/>
<path d="M13665 5248 c-9 -29 -9 -108 0 -108 5 0 11 27 13 60 2 56 -3 76 -13
48z"/>
<path d="M1240 5239 c0 -5 5 -7 10 -4 6 3 10 8 10 11 0 2 -4 4 -10 4 -5 0 -10
-5 -10 -11z"/>
<path d="M7500 5235 c0 -9 5 -15 10 -13 12 4 11 16 -1 24 -5 3 -9 -2 -9 -11z"/>
<path d="M9528 5243 c7 -3 16 -2 19 1 4 3 -2 6 -13 5 -11 0 -14 -3 -6 -6z"/>
<path d="M9715 5240 c-3 -5 -1 -10 4 -10 6 0 11 5 11 10 0 6 -2 10 -4 10 -3 0
-8 -4 -11 -10z"/>
<path d="M1820 5232 c0 -4 5 -13 12 -20 8 -8 8 -15 -2 -27 -11 -13 -10 -15 3
-10 16 7 30 43 21 57 -7 10 -34 11 -34 0z"/>
<path d="M3735 5230 c-3 -5 1 -10 10 -10 9 0 13 5 10 10 -3 6 -8 10 -10 10 -2
0 -7 -4 -10 -10z"/>
<path d="M8570 5230 c0 -5 7 -10 15 -10 8 0 15 5 15 10 0 6 -7 10 -15 10 -8 0
-15 -4 -15 -10z"/>
<path d="M14347 5216 c-15 -12 -15 -15 -2 -26 12 -10 16 -9 21 4 10 25 1 36
-19 22z"/>
<path d="M1103 5166 c1 -30 5 -58 10 -62 8 -8 8 -6 9 63 1 26 -4 49 -10 51 -7
2 -10 -17 -9 -52z"/>
<path d="M1229 5216 c-8 -9 3 -106 12 -100 11 7 12 104 1 104 -5 0 -11 -2 -13
-4z"/>
<path d="M8115 5210 c3 -5 35 -10 71 -10 36 0 64 4 64 10 0 6 -30 10 -71 10
-44 0 -68 -4 -64 -10z"/>
<path d="M9073 5204 c-9 -24 24 -46 48 -33 20 10 25 34 10 43 -5 4 -7 -3 -4
-14 4 -15 0 -20 -15 -20 -26 0 -39 19 -21 31 11 7 11 9 1 9 -7 0 -15 -7 -19
-16z"/>
<path d="M12557 5214 c-13 -13 -7 -42 9 -48 22 -8 56 12 52 32 -3 17 -48 29
-61 16z m47 -13 c8 -12 -21 -34 -34 -26 -17 11 -11 35 9 35 11 0 22 -4 25 -9z"/>
<path d="M1163 5203 c9 -2 25 -2 35 0 9 3 1 5 -18 5 -19 0 -27 -2 -17 -5z"/>
<path d="M9490 5200 l-35 -7 43 -2 c23 0 42 4 42 9 0 6 -3 9 -7 9 -5 -1 -24
-5 -43 -9z"/>
<path d="M11616 5185 c9 -14 20 -25 26 -25 13 0 -9 37 -27 44 -13 5 -13 2 1
-19z"/>
<path d="M13610 5181 c0 -16 -6 -32 -12 -34 -7 -3 1 -6 17 -6 18 0 25 2 18 7
-7 5 -10 19 -8 35 3 15 1 27 -5 27 -5 0 -10 -13 -10 -29z"/>
<path d="M9580 5193 c0 -5 9 -23 20 -41 28 -46 25 -58 -17 -75 -22 -9 -30 -16
-20 -16 11 -1 32 7 48 16 27 16 31 16 64 0 40 -19 69 -22 60 -7 -3 6 -14 10
-24 10 -9 0 -25 6 -35 13 -17 12 -17 15 8 51 30 44 32 56 11 56 -8 0 -15 -8
-15 -18 0 -20 -27 -62 -40 -62 -13 0 -42 59 -35 70 3 6 -1 10 -9 10 -9 0 -16
-3 -16 -7z"/>
<path d="M1140 5164 c0 -20 4 -25 16 -20 9 4 26 0 38 -7 20 -13 21 -12 22 19
0 33 -1 34 -38 34 -34 0 -38 -3 -38 -26z m55 5 c10 -15 2 -19 -23 -12 -12 3
-19 9 -16 14 7 12 31 11 39 -2z"/>
<path d="M3285 5180 c-3 -5 -1 -10 4 -10 6 0 11 5 11 10 0 6 -2 10 -4 10 -3 0
-8 -4 -11 -10z"/>
<path d="M4385 5146 c-20 -25 -51 -50 -68 -55 -16 -6 -28 -14 -25 -17 11 -10
62 24 108 70 24 25 39 46 33 46 -6 0 -28 -20 -48 -44z"/>
<path d="M3825 5169 c-4 -6 -5 -12 -2 -15 2 -3 7 2 10 11 7 17 1 20 -8 4z"/>
<path d="M8117 5158 c-7 -4 24 -8 67 -8 44 0 77 2 74 5 -8 9 -128 11 -141 3z"/>
<path d="M10600 5146 c0 -47 -17 -75 -42 -69 -22 4 -22 4 -4 -11 24 -20 42 -7
51 37 4 18 9 40 11 50 3 9 1 17 -5 17 -6 0 -11 -11 -11 -24z"/>
<path d="M2694 5144 c-18 -14 -18 -15 4 -4 12 6 22 13 22 15 0 8 -5 6 -26 -11z"/>
<path d="M3350 5151 c0 -5 7 -15 17 -22 15 -13 15 -12 4 9 -12 23 -21 28 -21
13z"/>
<path d="M9460 5110 c0 -54 3 -58 26 -35 9 8 11 15 5 15 -6 0 -11 16 -11 35 0
19 -4 35 -10 35 -5 0 -10 -22 -10 -50z"/>
<path d="M9525 5115 c0 -25 3 -45 8 -45 4 0 7 16 7 35 0 41 0 43 -9 50 -3 3
-6 -15 -6 -40z"/>
<path d="M3310 5145 c0 -5 5 -17 10 -25 5 -8 10 -10 10 -5 0 6 -5 17 -10 25
-5 8 -10 11 -10 5z"/>
<path d="M495 5131 c-6 -11 9 -23 19 -14 9 9 7 23 -3 23 -6 0 -12 -4 -16 -9z"/>
<path d="M3267 5119 c4 -13 8 -18 11 -10 2 7 -1 18 -6 23 -8 8 -9 4 -5 -13z"/>
<path d="M7020 5125 c-10 -12 -10 -15 4 -15 9 0 16 7 16 15 0 8 -2 15 -4 15
-2 0 -9 -7 -16 -15z"/>
<path d="M11180 5119 c-27 -15 -30 -19 -14 -19 11 0 29 9 39 20 21 23 21 23
-25 -1z"/>
<path d="M12120 5131 c0 -5 9 -7 20 -4 11 3 20 7 20 9 0 2 -9 4 -20 4 -11 0
-20 -4 -20 -9z"/>
<path d="M14360 5118 l-35 -18 33 0 c20 0 35 6 39 15 8 23 2 23 -37 3z"/>
<path d="M3202 5110 c-7 -11 -8 -20 -3 -20 9 0 24 30 18 36 -1 2 -8 -6 -15
-16z"/>
<path d="M7500 5115 c0 -8 5 -15 10 -15 6 0 10 7 10 15 0 8 -4 15 -10 15 -5 0
-10 -7 -10 -15z"/>
<path d="M8575 5121 c-6 -11 9 -23 19 -14 9 9 7 23 -3 23 -6 0 -12 -4 -16 -9z"/>
<path d="M10555 5120 c3 -5 8 -10 11 -10 2 0 4 5 4 10 0 6 -5 10 -11 10 -5 0
-7 -4 -4 -10z"/>
<path d="M13250 5115 c-17 -10 -20 -14 -9 -15 9 0 22 7 29 15 15 18 12 18 -20
0z"/>
<path d="M10467 5099 c4 -13 8 -18 11 -10 2 7 -1 18 -6 23 -8 8 -9 4 -5 -13z"/>
<path d="M10510 5111 c0 -5 5 -13 10 -16 6 -3 10 -2 10 4 0 5 -4 13 -10 16 -5
3 -10 2 -10 -4z"/>
<path d="M12200 5105 c0 -8 4 -15 10 -15 5 0 7 7 4 15 -4 8 -8 15 -10 15 -2 0
-4 -7 -4 -15z"/>
<path d="M12241 5104 c0 -11 3 -14 6 -6 3 7 2 16 -1 19 -3 4 -6 -2 -5 -13z"/>
<path d="M10401 5093 c-7 -8 -11 -16 -8 -19 2 -2 10 2 17 11 17 20 9 27 -9 8z"/>
<path d="M12170 5093 c0 -13 5 -23 10 -23 13 0 13 11 0 30 -8 12 -10 11 -10
-7z"/>
<path d="M13586 5101 c-3 -5 -22 -16 -42 -26 -19 -9 -33 -19 -31 -22 3 -2 23
5 45 16 41 21 62 41 43 41 -5 0 -12 -4 -15 -9z"/>
<path d="M13712 5085 c41 -28 48 -30 48 -14 0 5 -16 17 -35 25 -50 21 -55 17
-13 -11z"/>
<path d="M12126 5084 c-4 -9 -4 -19 -1 -22 2 -3 7 3 11 12 4 9 4 19 1 22 -2 3
-7 -3 -11 -12z"/>
<path d="M6804 4905 c-18 -13 -17 -14 11 -12 24 2 31 -2 33 -21 2 -13 -2 -30
-8 -38 -7 -7 -9 -14 -5 -14 12 0 34 33 35 51 0 14 -29 49 -41 49 -3 0 -14 -7
-25 -15z"/>
<path d="M1093 4825 c-1 -25 -14 -69 -28 -98 -23 -48 -14 -45 23 9 11 16 12 6
7 -58 -4 -51 -2 -78 5 -78 6 0 10 37 11 98 0 53 1 114 3 135 2 22 -2 37 -8 37
-6 0 -12 -20 -13 -45z"/>
<path d="M1493 4845 c-10 -22 -9 -25 7 -25 12 0 18 8 18 25 0 32 -10 32 -25 0z"/>
<path d="M1740 4866 c0 -60 -25 -214 -38 -235 -16 -24 -16 -25 0 -13 22 17 36
63 41 131 3 29 10 57 17 61 9 5 9 9 1 14 -8 5 -8 13 -1 27 9 15 7 19 -5 19 -8
0 -15 -2 -15 -4z"/>
<path d="M1883 4858 c-5 -7 -16 -28 -23 -47 -7 -18 -23 -42 -34 -52 -11 -11
-15 -19 -9 -19 14 0 34 25 54 67 l16 35 37 -52 c20 -28 41 -48 47 -45 6 4 -6
23 -27 45 -21 21 -39 46 -40 55 -4 24 -10 27 -21 13z"/>
<path d="M2990 4856 c0 -10 -14 -16 -42 -19 l-43 -4 42 -1 c30 -2 43 -7 46
-19 4 -17 5 -17 6 0 1 13 10 17 41 17 31 0 40 -4 40 -17 1 -17 1 -17 11 0 7
11 22 17 49 17 22 0 40 4 40 10 0 6 -18 7 -45 3 -39 -5 -45 -4 -39 11 3 9 1
16 -5 16 -6 0 -11 -7 -11 -15 0 -11 -11 -15 -40 -15 -31 0 -38 3 -34 15 4 8 1
15 -5 15 -6 0 -11 -6 -11 -14z"/>
<path d="M4526 4844 c-5 -20 -12 -25 -26 -21 -19 5 -20 -1 -20 -100 0 -93 2
-104 15 -93 9 8 29 10 50 7 l35 -6 0 95 0 94 -27 0 c-21 0 -24 3 -15 12 14 14
16 38 3 38 -5 0 -12 -12 -15 -26z m36 -51 c8 -35 -3 -53 -32 -53 -22 0 -29 5
-33 27 -7 36 -2 43 32 43 19 0 30 -6 33 -17z m-2 -103 c0 -38 -2 -40 -30 -40
-34 0 -45 17 -36 55 5 20 13 25 36 25 28 0 30 -2 30 -40z"/>
<path d="M4617 4807 c-24 -55 -24 -59 -5 -34 11 16 30 33 42 37 17 7 18 9 4 9
-20 1 -23 12 -7 28 6 6 7 13 1 17 -5 3 -21 -23 -35 -57z"/>
<path d="M5215 4860 c-3 -5 -21 -10 -38 -11 -30 -1 -30 -1 -7 -8 25 -7 43 -51
21 -51 -6 0 -8 -7 -5 -15 4 -8 0 -25 -8 -38 -7 -12 -19 -35 -26 -52 -11 -28
-11 -28 3 -11 8 11 15 23 15 27 0 4 7 10 16 13 14 5 15 -2 12 -53 -1 -33 0
-63 5 -67 4 -4 7 28 7 71 0 68 2 76 15 65 20 -17 19 -1 -2 22 -22 25 -9 35 28
21 19 -7 39 -8 52 -3 19 7 17 8 -11 7 -19 0 -37 5 -41 12 -4 7 -14 11 -22 9
-8 -2 -15 7 -17 20 -3 17 2 25 17 29 11 3 18 9 15 14 -7 12 -21 11 -29 -1z"/>
<path d="M5329 4858 c-6 -62 0 -88 19 -87 9 0 12 3 6 5 -6 3 -9 16 -6 29 4 22
10 25 44 25 22 0 37 4 33 9 -3 5 -21 7 -40 4 -28 -4 -35 -2 -35 11 0 19 -19
22 -21 4z"/>
<path d="M5675 4860 c-11 -5 -37 -9 -57 -9 -38 -1 -55 -21 -18 -21 13 0 20 -7
20 -20 0 -11 4 -20 10 -20 6 0 6 9 0 25 -9 23 -7 25 18 25 39 0 73 11 66 21
-6 11 -12 10 -39 -1z"/>
<path d="M1180 4726 c0 -101 3 -127 12 -118 16 16 95 16 101 0 3 -7 6 12 7 42
1 30 4 89 6 130 l5 75 -66 0 -65 0 0 -129z m110 84 c0 -24 -4 -30 -22 -31
l-23 -2 23 -4 c17 -3 22 -11 22 -34 0 -16 -5 -29 -12 -29 -9 0 -9 -3 0 -12 7
-7 12 -25 12 -40 0 -27 -2 -28 -50 -28 -48 0 -50 1 -50 28 0 15 5 33 12 40 9
9 9 12 1 12 -7 0 -11 14 -11 30 1 19 6 30 15 30 12 0 12 3 -1 16 -18 18 -18
17 -10 38 4 11 19 16 50 16 42 0 44 -1 44 -30z"/>
<path d="M4818 4848 c5 -5 16 -8 23 -6 8 3 3 7 -10 11 -17 4 -21 3 -13 -5z"/>
<path d="M4965 4850 c-55 -3 -85 -7 -67 -8 35 -2 42 -20 18 -45 -10 -9 -16
-43 -18 -101 l-3 -86 72 0 c39 0 78 -3 87 -6 14 -5 16 7 16 96 0 65 -4 99 -10
95 -5 -3 -10 -44 -10 -91 0 -84 0 -84 -26 -84 l-25 0 3 85 3 85 -32 0 c-33 0
-38 6 -27 34 5 13 21 16 76 16 43 0 67 4 63 10 -3 6 -9 9 -13 8 -4 -1 -52 -5
-107 -8z m23 -92 c3 -15 -4 -18 -37 -18 -34 0 -40 3 -38 20 1 18 7 20 37 18
24 -2 36 -9 38 -20z m2 -46 c0 -10 -5 -23 -12 -30 -9 -9 -9 -12 1 -12 7 0 11
-9 9 -22 -2 -18 -11 -24 -35 -26 -35 -3 -35 -3 -35 58 0 17 1 35 1 40 1 6 17
10 36 10 27 0 35 -4 35 -18z"/>
<path d="M7520 4758 c0 -84 2 -97 16 -91 11 4 12 9 5 16 -6 6 -11 19 -11 29 0
15 8 18 46 18 46 0 46 0 41 -30 -4 -16 -2 -32 3 -35 6 -4 10 10 10 32 1 21 2
65 3 98 l3 60 -58 0 -58 0 0 -97z m100 57 c0 -17 -6 -25 -17 -26 -17 -1 -17
-2 0 -6 9 -2 17 -13 17 -24 0 -16 -7 -19 -45 -19 -38 0 -45 3 -45 20 0 11 5
20 11 20 8 0 8 5 -1 15 -21 26 -4 45 40 45 36 0 40 -2 40 -25z"/>
<path d="M7746 4851 c-3 -5 -5 -44 -5 -88 2 -154 2 -153 -28 -154 -28 -1 -28
-1 5 -12 18 -5 34 -8 36 -6 3 2 6 64 8 137 3 121 -1 148 -16 123z"/>
<path d="M7877 4853 c-3 -5 -8 -30 -12 -58 -4 -27 -14 -65 -21 -84 -20 -47
-17 -52 6 -11 21 39 23 33 20 -57 -1 -40 2 -63 9 -63 7 0 11 29 11 80 0 72 10
101 23 68 4 -8 6 -9 6 -2 1 6 -6 17 -14 24 -21 17 -19 29 8 40 l22 9 -24 0
c-21 1 -23 5 -17 31 5 27 -6 41 -17 23z"/>
<path d="M7972 4835 c7 -16 17 -33 23 -37 16 -12 16 -88 -1 -95 -8 -3 -14 -10
-14 -16 0 -6 -17 -29 -37 -51 -38 -39 -38 -39 -6 -17 18 12 39 32 47 43 15 21
15 21 22 -6 3 -14 4 -35 1 -46 -3 -11 -1 -22 3 -25 5 -3 10 20 12 52 3 51 6
58 28 64 l25 7 -27 1 c-24 1 -26 4 -24 43 2 28 7 44 17 46 18 3 40 50 28 58
-5 3 -14 -6 -21 -20 -15 -33 -33 -33 -64 2 l-24 27 12 -30z"/>
<path d="M10809 4855 c-3 -2 -39 -10 -81 -16 -66 -10 -77 -14 -89 -38 -22 -44
-23 -46 -6 -32 20 16 21 14 17 -69 -1 -30 1 -52 5 -48 4 4 8 22 9 40 l2 33 77
3 c59 2 77 0 77 -11 0 -7 -5 -18 -11 -24 -9 -9 -7 -11 7 -7 26 7 29 54 4 54
-13 0 -17 5 -13 20 4 17 0 20 -25 20 -22 0 -31 5 -35 22 -4 12 -5 23 -4 24 2
2 75 13 90 14 10 0 -1 20 -12 20 -4 0 -10 -2 -12 -5z m-78 -47 c7 -13 10 -25
8 -28 -2 -3 8 -6 24 -8 15 -2 27 -9 27 -18 0 -11 -15 -14 -60 -14 -45 0 -60 4
-60 14 0 8 6 17 13 19 7 3 5 6 -5 6 -26 1 -22 30 5 41 32 13 35 12 48 -12z"/>
<path d="M1590 4833 c-25 -13 -24 -13 13 -11 37 2 49 12 25 20 -7 3 -24 -1
-38 -9z"/>
<path d="M2229 4841 c12 -8 11 -22 -9 -93 -13 -45 -28 -89 -33 -95 -7 -10 -3
-13 16 -13 19 0 25 4 21 15 -3 8 -1 30 6 50 10 29 16 35 41 35 20 0 29 -5 29
-17 0 -25 6 -12 13 27 6 29 4 32 -6 20 -29 -35 -62 -16 -46 27 15 41 11 53
-18 53 -21 0 -24 -3 -14 -9z"/>
<path d="M2315 4838 c22 -6 43 -16 47 -22 5 -6 8 -1 8 12 0 20 -5 22 -47 21
l-48 -1 40 -10z"/>
<path d="M3492 4758 c-23 -53 -42 -100 -42 -107 0 -7 28 -11 85 -11 47 0 85 4
85 9 0 10 -36 99 -66 160 l-21 44 -41 -95z m88 -80 c0 -14 -9 -18 -37 -19 -41
-1 -66 1 -72 7 -2 2 9 33 25 69 l29 65 27 -52 c15 -29 27 -61 28 -70z"/>
<path d="M3713 4831 c-94 -58 -81 -191 18 -191 21 0 40 3 42 8 3 4 -11 7 -30
7 -27 0 -41 7 -56 27 -19 25 -19 31 -7 68 28 85 107 120 137 60 7 -14 13 -20
13 -15 0 6 3 19 6 30 4 18 0 20 -43 23 -34 2 -57 -3 -80 -17z"/>
<path d="M3904 4818 c-1 -45 -31 -143 -50 -162 -14 -15 -8 -16 61 -16 72 0 76
1 85 26 14 36 13 36 -15 9 -25 -26 -78 -34 -90 -15 -4 6 -1 27 5 46 11 32 15
35 40 30 22 -4 29 -1 33 14 6 23 -3 26 -21 8 -19 -19 -33 3 -24 37 7 24 14 31
41 33 18 2 39 -2 47 -9 11 -9 14 -8 14 4 0 20 -21 27 -79 27 -46 0 -47 0 -47
-32z"/>
<path d="M4090 4835 c9 -10 -28 -141 -50 -177 -9 -16 -6 -18 22 -18 22 0 29 3
20 9 -11 7 -11 16 -1 51 13 41 13 42 51 37 33 -4 38 -2 38 14 0 17 -3 18 -21
9 -11 -7 -26 -9 -34 -7 -21 9 5 77 30 78 34 2 59 -3 73 -13 8 -7 12 -7 12 0 0
22 -30 33 -88 30 -42 -1 -58 -6 -52 -13z"/>
<path d="M5533 4833 c-3 -10 -13 -27 -22 -37 -15 -18 -15 -19 2 -13 15 6 17
-1 17 -57 0 -49 -5 -69 -21 -90 -12 -15 -19 -29 -16 -32 8 -8 47 47 47 67 0
11 5 19 10 19 6 0 8 11 4 25 l-6 25 76 0 c59 0 76 -3 76 -14 0 -8 -8 -17 -17
-19 -12 -3 -9 -5 8 -6 21 -1 28 4 31 24 4 20 1 25 -14 25 -13 0 -18 6 -16 18
2 11 -1 21 -7 23 -5 2 -11 -6 -13 -18 -3 -21 -9 -23 -63 -23 -52 0 -60 2 -57
18 1 9 -1 23 -6 30 -4 7 -3 19 4 27 7 9 8 15 0 20 -5 3 -13 -2 -17 -12z"/>
<path d="M6263 4835 c-43 -18 -73 -69 -73 -122 0 -47 26 -83 59 -83 26 0 61
46 61 80 0 36 -22 53 -60 48 -16 -3 -30 -3 -30 0 0 17 39 63 64 75 39 20 22
21 -21 2z m3 -93 c6 -4 15 -17 18 -30 9 -27 -16 -72 -39 -72 -29 0 -48 93 -22
103 18 8 31 8 43 -1z"/>
<path d="M8225 4840 c-33 -4 -52 -7 -42 -8 13 -2 17 -11 17 -42 0 -31 -4 -40
-17 -40 -17 -1 -17 -1 0 -11 21 -12 22 -57 2 -106 -8 -20 -14 -38 -11 -40 6
-7 36 64 36 87 0 32 18 60 35 54 11 -5 15 -24 15 -80 0 -43 4 -74 10 -74 6 0
10 32 10 75 0 73 4 81 33 76 5 -1 7 4 4 11 -2 7 -11 12 -21 10 -13 -2 -16 5
-16 38 0 34 3 40 21 40 11 0 17 5 14 10 -3 6 -12 9 -18 8 -7 -1 -39 -4 -72 -8z
m39 -25 c3 -8 3 -28 0 -44 -5 -22 -10 -27 -25 -24 -28 8 -28 83 0 83 10 0 21
-7 25 -15z"/>
<path d="M8362 4814 c-35 -36 -32 -45 6 -18 23 16 49 55 35 53 -4 -1 -23 -17
-41 -35z"/>
<path d="M9653 4825 c-6 -14 -8 -25 -4 -25 4 0 13 11 19 25 6 14 8 25 4 25 -4
0 -12 -11 -19 -25z"/>
<path d="M9765 4840 c-3 -5 -3 -10 0 -10 3 0 -6 -21 -21 -47 l-27 -48 32 34
c18 18 30 36 27 38 -3 3 -1 14 5 24 10 20 -4 28 -16 9z"/>
<path d="M10055 4840 c-71 -3 -102 -7 -67 -8 56 -2 62 -4 62 -23 0 -11 -8 -23
-17 -25 -16 -4 -18 -16 -15 -89 l3 -85 -26 0 -27 0 3 85 c2 47 1 85 -3 85 -9
0 -14 -105 -8 -160 3 -28 8 -40 13 -32 6 8 38 12 102 12 66 0 95 -4 98 -12 9
-28 15 1 19 95 2 70 0 97 -9 97 -6 0 -15 -4 -18 -10 -3 -5 -3 -10 2 -10 4 0 7
-26 6 -57 -1 -32 -2 -66 -2 -75 -1 -12 -9 -18 -27 -18 -25 0 -25 0 -23 82 1
56 -2 83 -10 86 -8 3 -10 -4 -5 -22 4 -18 2 -26 -7 -26 -10 0 -10 -3 -1 -12 7
-7 12 -20 12 -30 0 -10 -5 -18 -12 -18 -9 0 -9 -3 0 -12 7 -7 12 -20 12 -30 0
-14 -8 -18 -34 -18 l-35 0 0 54 c0 48 3 55 22 59 22 4 22 4 0 6 -27 1 -33 41
-7 41 8 0 12 4 9 10 -3 5 -1 19 5 30 9 17 21 20 76 20 41 0 63 4 59 10 -3 6
-9 9 -13 8 -4 -1 -65 -5 -137 -8z"/>
<path d="M10325 4840 c-16 -4 -24 -8 -17 -9 15 -1 16 -43 0 -59 -9 -9 -9 -12
0 -12 14 0 7 -21 -25 -75 l-24 -40 25 28 c14 15 28 27 31 27 3 0 5 -28 5 -62
0 -80 10 -69 15 17 2 37 6 70 9 73 3 3 6 0 6 -6 0 -7 5 -12 12 -12 6 0 4 7 -5
18 -23 25 -22 91 1 108 19 15 12 15 -33 4z"/>
<path d="M10450 4841 c0 -6 -15 -12 -32 -14 l-33 -4 33 -1 c31 -2 32 -4 29
-35 -3 -25 0 -33 12 -33 13 0 16 8 13 33 -4 28 -1 33 17 33 12 0 21 -6 21 -15
0 -8 5 -15 10 -15 6 0 10 6 10 14 0 8 6 17 13 19 6 3 -7 6 -31 6 -26 1 -41 5
-37 11 3 6 -1 10 -9 10 -9 0 -16 -4 -16 -9z"/>
<path d="M5273 4833 c9 -2 23 -2 30 0 6 3 -1 5 -18 5 -16 0 -22 -2 -12 -5z"/>
<path d="M5716 4815 c9 -14 21 -25 27 -25 6 0 0 11 -13 25 -13 14 -25 25 -27
25 -2 0 4 -11 13 -25z"/>
<path d="M6040 4825 c-10 -12 -6 -13 23 -8 30 4 36 2 42 -17 5 -14 1 -28 -12
-42 -13 -15 -15 -22 -5 -25 22 -8 34 -41 22 -63 -8 -15 -21 -20 -51 -20 -24 0
-38 -4 -34 -10 10 -16 61 -12 83 8 29 23 37 65 18 84 -12 13 -13 21 -4 46 9
24 9 34 -1 46 -17 20 -65 21 -81 1z"/>
<path d="M9110 4822 c-51 -25 -83 -78 -77 -125 6 -46 20 -64 57 -72 29 -6 109
20 96 32 -3 4 -12 1 -18 -5 -16 -16 -81 -15 -96 0 -17 17 -15 83 3 118 9 16
32 39 53 49 46 25 30 28 -18 3z"/>
<path d="M1398 4823 c12 -2 32 -2 45 0 12 2 2 4 -23 4 -25 0 -35 -2 -22 -4z"/>
<path d="M1785 4820 c-3 -5 1 -10 9 -10 9 0 16 5 16 10 0 6 -4 10 -9 10 -6 0
-13 -4 -16 -10z"/>
<path d="M7679 4828 c-7 -12 -5 -168 1 -162 11 11 18 164 8 164 -5 0 -9 -1 -9
-2z"/>
<path d="M8896 4819 c6 -11 -27 -133 -47 -171 -10 -20 -6 -22 61 -19 31 2 50
9 63 23 19 22 23 63 7 73 -6 4 -2 15 10 27 23 25 24 36 6 61 -15 20 -113 26
-100 6z m82 -27 c5 -30 -14 -52 -45 -52 -21 0 -23 4 -18 23 4 12 9 30 12 40 7
27 47 18 51 -11z m-19 -80 c16 -30 -9 -66 -48 -70 l-33 -3 7 38 c4 21 9 41 11
45 10 15 53 8 63 -10z"/>
<path d="M9178 4823 c6 -2 12 -13 12 -24 0 -10 5 -19 10 -19 6 0 10 11 10 25
0 19 -5 25 -22 24 -13 0 -17 -3 -10 -6z"/>
<path d="M9276 4822 c12 -7 -15 -138 -36 -174 -8 -15 -6 -18 12 -19 92 -6 141
17 164 78 20 51 8 94 -32 112 -27 12 -126 15 -108 3z m104 -22 c27 -27 26 -79
-3 -121 -19 -28 -30 -35 -65 -37 -30 -2 -42 1 -42 10 0 11 30 113 45 156 7 19
43 14 65 -8z"/>
<path d="M10820 4826 c0 -15 38 -57 44 -48 3 5 -6 20 -19 32 -14 13 -25 20
-25 16z"/>
<path d="M4709 4811 c9 -6 13 -30 12 -80 -1 -90 -11 -111 -54 -112 l-32 -1 35
-10 c46 -13 56 2 65 103 3 45 9 88 12 95 4 10 -3 14 -23 14 -20 0 -25 -3 -15
-9z"/>
<path d="M5366 4808 c3 -4 15 -8 26 -8 12 0 18 3 14 7 -10 10 -46 11 -40 1z"/>
<path d="M8752 4778 c-18 -24 -50 -66 -72 -94 -38 -49 -43 -68 -15 -57 8 2 12
10 9 17 -7 19 34 56 59 52 27 -4 33 -28 12 -50 -15 -15 -14 -16 12 -16 28 0
28 1 29 63 0 34 3 77 7 95 9 43 -2 40 -41 -10z m8 -38 c0 -23 -4 -30 -20 -30
-24 0 -25 5 -2 35 22 31 22 31 22 -5z"/>
<path d="M1416 4768 c-35 -37 -36 -38 -10 -25 35 18 68 53 57 60 -4 2 -25 -13
-47 -35z"/>
<path d="M1541 4803 c1 -12 69 -67 69 -56 0 10 -35 44 -57 57 -7 4 -13 4 -12
-1z"/>
<path d="M8078 4785 c3 -16 0 -25 -9 -25 -10 0 -10 -3 -1 -12 15 -15 18 -11
25 30 5 23 3 32 -7 32 -9 0 -12 -8 -8 -25z"/>
<path d="M9603 4701 c-1 -88 1 -103 11 -88 14 19 76 24 76 6 0 -5 5 -7 10 -4
16 10 13 196 -2 190 -9 -4 -12 -29 -11 -85 l3 -80 -35 0 -36 0 3 80 c2 49 -1
81 -7 84 -7 2 -11 -34 -12 -103z"/>
<path d="M6800 4785 c-11 -13 -7 -15 29 -15 22 0 41 4 41 9 0 5 -9 7 -21 4
-12 -3 -24 -1 -28 6 -6 9 -11 8 -21 -4z"/>
<path d="M9818 4793 c7 -3 16 -2 19 1 4 3 -2 6 -13 5 -11 0 -14 -3 -6 -6z"/>
<path d="M9851 4743 c1 -86 -10 -133 -34 -142 -16 -6 -17 -10 -7 -16 20 -12
50 31 51 74 0 20 3 60 5 89 3 32 1 52 -5 52 -6 0 -10 -25 -10 -57z"/>
<path d="M3015 4778 c-5 -14 -21 -18 -64 -20 l-56 -2 48 -3 c26 -2 47 -8 47
-14 0 -5 -19 -31 -42 -57 l-43 -47 38 28 37 28 0 -46 c0 -28 4 -44 10 -40 6 3
7 17 4 31 -4 14 -1 31 7 40 10 13 10 17 0 23 -10 7 -10 13 -2 30 11 19 20 21
98 21 47 0 83 3 80 7 -4 3 -38 5 -76 4 -60 -2 -70 0 -74 16 -4 17 -4 17 -12 1z"/>
<path d="M4840 4788 c0 -2 -3 -45 -7 -97 -4 -71 -3 -93 6 -90 14 5 22 189 9
189 -5 0 -8 -1 -8 -2z"/>
<path d="M5393 4773 c9 -2 23 -2 30 0 6 3 -1 5 -18 5 -16 0 -22 -2 -12 -5z"/>
<path d="M8392 4760 c-7 -11 -27 -29 -45 -40 -21 -13 -26 -20 -15 -20 19 0 88
56 88 71 0 16 -15 10 -28 -11z"/>
<path d="M10350 4776 c0 -2 7 -6 15 -10 8 -3 15 -1 15 4 0 6 -7 10 -15 10 -8
0 -15 -2 -15 -4z"/>
<path d="M1770 4760 c-10 -6 -11 -10 -2 -10 8 0 12 -15 12 -42 0 -58 -9 -88
-27 -88 -8 0 -11 -4 -8 -10 20 -33 39 5 49 98 7 62 4 70 -24 52z"/>
<path d="M2554 4759 c-4 -8 0 -9 15 -4 15 4 23 1 27 -10 9 -23 -4 -31 -28 -16
-17 10 -19 10 -16 -1 7 -21 52 -16 56 6 6 29 -38 50 -54 25z"/>
<path d="M6422 4758 c-19 -25 -24 -60 -12 -88 20 -47 71 -52 98 -9 13 21 13
21 -9 5 -29 -20 -34 -20 -53 0 -22 21 -21 80 2 93 15 9 15 10 1 11 -9 0 -21
-6 -27 -12z"/>
<path d="M6482 4750 c7 -11 16 -16 21 -11 12 12 0 31 -19 31 -12 0 -12 -3 -2
-20z"/>
<path d="M6548 4720 c2 -26 -1 -57 -7 -69 -11 -20 -9 -21 21 -20 18 0 27 3 21
6 -8 3 -13 25 -13 58 0 45 3 55 20 60 11 3 24 3 30 0 14 -9 13 -98 -2 -113 -9
-9 -7 -12 13 -12 23 0 24 3 24 57 0 56 1 58 28 61 26 3 27 2 27 -45 0 -27 -5
-54 -12 -61 -9 -9 -5 -12 21 -12 28 0 32 2 21 15 -7 9 -10 30 -6 53 3 26 0 46
-9 58 -12 16 -18 17 -44 7 -17 -6 -33 -7 -36 -3 -3 5 -27 8 -54 8 l-48 -1 5
-47z"/>
<path d="M10505 4760 c-18 -8 -17 -9 7 -9 15 -1 30 4 33 9 7 12 -12 12 -40 0z"/>
<path d="M1120 4752 c0 -5 7 -15 15 -22 8 -7 15 -8 15 -2 0 5 -7 15 -15 22 -8
7 -15 8 -15 2z"/>
<path d="M1534 4738 c-11 -37 -25 -50 -40 -37 -10 8 -13 5 -11 -18 2 -25 -5
-31 -53 -57 -34 -17 -44 -26 -27 -22 16 4 46 19 68 33 36 24 41 25 57 10 26
-23 90 -48 97 -38 3 5 -18 17 -46 26 -28 9 -53 23 -56 31 -3 8 4 30 16 49 24
41 25 45 12 45 -5 0 -13 -10 -17 -22z"/>
<path d="M7160 4751 c0 -6 5 -13 10 -16 6 -4 8 -16 4 -28 -4 -15 -3 -19 4 -12
10 10 15 30 13 53 -1 14 -31 17 -31 3z"/>
<path d="M7936 4729 c-9 -46 -8 -55 5 -42 13 13 21 73 9 73 -4 0 -10 -14 -14
-31z"/>
<path d="M1437 4732 c-19 -21 -22 -32 -8 -32 5 0 13 9 16 21 5 16 9 18 21 8
12 -10 13 -9 8 5 -8 21 -17 20 -37 -2z"/>
<path d="M1894 4723 c14 -15 29 -24 33 -19 4 4 -3 16 -17 26 -36 28 -45 24
-16 -7z"/>
<path d="M4646 4727 c10 -15 23 -27 28 -27 12 0 -18 43 -34 48 -8 3 -6 -5 6
-21z"/>
<path d="M5270 4698 l0 -53 57 3 c34 2 53 -1 46 -5 -9 -6 -4 -14 18 -27 17
-10 33 -15 36 -12 3 3 -2 8 -11 12 -12 5 -16 20 -16 70 l0 64 -47 -2 c-47 -1
-48 -2 -8 -5 l40 -4 -3 -39 c-4 -40 -4 -40 -47 -40 -40 0 -42 2 -43 29 0 23 4
31 21 34 17 3 15 5 -8 6 -23 1 -27 3 -15 11 13 8 12 10 -2 10 -15 0 -18 -9
-18 -52z"/>
<path d="M9760 4736 c0 -15 38 -57 44 -48 3 5 -6 20 -19 32 -14 13 -25 20 -25
16z"/>
<path d="M10395 4685 c0 -30 2 -55 5 -54 3 0 14 4 25 9 14 6 15 9 5 9 -11 1
-15 12 -15 41 l0 40 43 0 44 0 -4 -60 c-3 -54 -1 -60 21 -70 13 -6 26 -8 29
-6 3 3 -3 8 -12 12 -12 5 -16 20 -16 70 l0 64 -62 0 -63 0 0 -55z"/>
<path d="M3128 4703 c-3 -7 -3 -54 1 -96 1 -5 6 -5 11 -2 13 8 13 105 1 105
-6 0 -11 -3 -13 -7z"/>
<path d="M8084 4678 c1 -26 -4 -33 -24 -38 -22 -6 -23 -8 -7 -15 24 -10 43 10
50 53 5 23 3 32 -7 32 -9 0 -13 -11 -12 -32z"/>
<path d="M8402 4677 c-12 -20 -36 -46 -54 -57 -18 -11 -29 -20 -24 -20 33 0
112 77 104 102 -2 6 -14 -5 -26 -25z"/>
<path d="M5738 4663 c-2 -28 -9 -41 -26 -49 -25 -13 -14 -28 12 -18 9 3 16 7
16 8 0 0 7 22 15 49 12 40 12 47 0 47 -9 0 -15 -14 -17 -37z"/>
<path d="M10858 4660 c5 -35 -12 -60 -42 -60 -20 -1 -20 -1 -2 -11 14 -9 22
-7 36 7 22 24 34 94 16 94 -8 0 -11 -10 -8 -30z"/>
<path d="M1885 4640 c40 -32 66 -40 44 -14 -12 15 -61 44 -75 44 -4 0 10 -13
31 -30z"/>
<path d="M5690 4661 c0 -5 5 -13 10 -16 6 -3 10 -2 10 4 0 5 -4 13 -10 16 -5
3 -10 2 -10 -4z"/>
<path d="M5600 4640 c0 -11 4 -20 9 -20 5 0 7 9 4 20 -3 11 -7 20 -9 20 -2 0
-4 -9 -4 -20z"/>
<path d="M5650 4651 c0 -5 5 -13 10 -16 6 -3 10 -2 10 4 0 5 -4 13 -10 16 -5
3 -10 2 -10 -4z"/>
<path d="M7530 4630 c-25 -36 -13 -40 19 -6 13 14 18 26 13 30 -6 3 -20 -7
-32 -24z"/>
<path d="M10806 4645 c4 -8 8 -15 10 -15 2 0 4 7 4 15 0 8 -4 15 -10 15 -5 0
-7 -7 -4 -15z"/>
<path d="M5541 4627 c-13 -21 -12 -21 5 -5 10 10 16 20 13 22 -3 3 -11 -5 -18
-17z"/>
<path d="M7615 4627 c10 -15 20 -25 23 -22 3 3 -5 16 -17 28 l-23 22 17 -28z"/>
<path d="M10662 4622 c-11 -25 -11 -25 4 -10 9 9 15 21 13 27 -2 6 -10 -2 -17
-17z"/>
<path d="M10717 4629 c4 -13 8 -18 11 -10 2 7 -1 18 -6 23 -8 8 -9 4 -5 -13z"/>
<path d="M10766 4635 c4 -8 10 -15 15 -15 4 0 6 7 3 15 -4 8 -10 15 -15 15 -4
0 -6 -7 -3 -15z"/>
<path d="M10633 4628 c-23 -30 -24 -41 -2 -21 12 12 20 25 17 28 -3 3 -10 0
-15 -7z"/>
<path d="M5258 4617 c-16 -6 -28 -14 -28 -19 0 -6 76 18 89 29 10 7 -36 0 -61
-10z"/>
<path d="M10385 4599 c-16 -10 -27 -19 -24 -19 11 0 79 30 79 35 0 10 -26 3
-55 -16z"/>
<path d="M3770 4029 c-13 -9 -13 -10 1 -6 42 14 51 -41 14 -89 -14 -18 -25
-35 -25 -38 0 -11 69 -6 76 5 5 8 -1 10 -18 6 -37 -10 -41 2 -13 35 27 32 32
67 13 86 -15 15 -28 15 -48 1z"/>
<path d="M12666 3997 c6 -16 -27 -133 -47 -169 -8 -15 -5 -18 17 -18 14 0 23
4 19 9 -3 5 5 46 17 90 23 80 23 81 55 81 43 0 68 -36 59 -85 -8 -41 -38 -72
-81 -84 l-30 -9 32 -1 c23 -1 41 8 67 33 31 29 36 40 36 79 0 57 -25 78 -101
85 -42 4 -48 2 -43 -11z"/>
<path d="M9225 3962 c-99 -133 -123 -172 -110 -172 9 0 20 12 26 27 12 32 26
43 57 43 16 0 22 -6 22 -23 0 -13 -5 -28 -12 -35 -9 -9 -7 -12 13 -12 23 0 24
3 26 68 1 37 5 82 8 100 7 39 -3 41 -30 4z m1 -78 c-6 -15 -46 -20 -46 -5 0 4
10 21 23 37 22 28 22 29 25 6 2 -13 1 -30 -2 -38z"/>
<path d="M2862 3963 c-7 -2 -17 -14 -23 -25 -11 -20 -10 -20 12 -4 29 20 43
20 63 0 26 -25 19 -50 -34 -113 -27 -33 -50 -61 -50 -63 0 -9 116 6 122 16 12
18 9 31 -4 18 -12 -12 -78 -17 -78 -6 0 4 18 26 40 50 27 30 40 53 40 72 0 46
-43 73 -88 55z"/>
<path d="M3047 3962 c-9 -2 -14 -8 -11 -14 10 -16 13 -128 4 -160 -9 -30 2
-44 22 -31 10 6 12 34 8 108 -4 89 -7 100 -23 97z"/>
<path d="M3220 3957 c-63 -32 -90 -129 -49 -181 26 -33 44 -33 74 0 47 50 22
122 -37 110 -28 -6 -28 -5 -14 23 8 15 30 35 48 44 18 9 26 17 18 17 -8 0 -26
-6 -40 -13z m15 -137 c0 -41 -2 -45 -25 -45 -20 0 -26 7 -32 35 -10 48 -3 62
29 58 26 -3 28 -6 28 -48z"/>
<path d="M1979 3933 c-6 -15 -20 -52 -31 -82 -11 -29 -29 -62 -39 -72 -19 -19
-18 -19 6 -19 19 0 25 5 25 23 0 31 18 47 52 47 28 0 52 -27 46 -53 -3 -14 3
-17 32 -17 18 0 18 2 5 28 -23 43 -65 142 -65 152 0 23 -21 18 -31 -7z m25
-55 c20 -40 21 -38 -14 -38 -16 0 -30 2 -30 4 0 7 22 66 25 66 2 0 11 -14 19
-32z"/>
<path d="M3403 3890 c-39 -16 -43 -89 -7 -124 21 -21 37 -20 65 4 l24 20 -32
-6 c-26 -5 -34 -2 -48 20 -32 49 6 106 47 70 21 -20 37 -11 18 11 -14 17 -34
18 -67 5z"/>
<path d="M3512 3893 c-9 -3 -10 -9 -3 -17 6 -7 9 -37 8 -66 -2 -43 1 -55 14
-58 13 -2 15 7 11 57 -4 53 -2 60 17 66 35 11 44 -3 39 -65 -4 -55 -3 -58 18
-56 15 1 19 5 13 11 -5 5 -9 28 -9 51 0 45 19 70 46 60 12 -5 15 -18 12 -64
-3 -50 -1 -58 15 -58 14 0 17 10 17 57 0 70 -17 93 -56 79 -17 -7 -32 -6 -45
0 -13 8 -25 7 -41 -1 -16 -9 -23 -9 -26 0 -4 12 -9 13 -30 4z"/>
<path d="M4105 3860 c-8 -27 1 -40 30 -40 27 0 41 26 24 46 -17 20 -47 17 -54
-6z m45 -10 c0 -11 -6 -20 -14 -20 -18 0 -29 16 -21 30 11 18 35 11 35 -10z"/>
<path d="M2130 3770 c0 -5 5 -10 10 -10 6 0 10 5 10 10 0 6 -4 10 -10 10 -5 0
-10 -4 -10 -10z"/>
<path d="M9260 3678 c-24 -46 -48 -90 -55 -98 -7 -8 -30 -49 -51 -90 -20 -41
-53 -99 -71 -128 -18 -29 -33 -56 -33 -60 0 -5 -13 -28 -28 -53 -16 -24 -51
-87 -78 -139 -28 -52 -89 -162 -136 -245 -47 -82 -125 -222 -173 -310 -96
-174 -148 -266 -219 -390 -25 -44 -46 -84 -46 -89 0 -5 -10 -23 -23 -40 -12
-17 -33 -51 -46 -76 -13 -25 -45 -83 -71 -130 -26 -47 -91 -166 -145 -265 -54
-99 -102 -181 -106 -183 -5 -2 -9 -8 -9 -14 0 -11 -79 -152 -274 -492 -31 -54
-56 -106 -54 -115 3 -14 51 -16 498 -17 272 -1 1547 -5 2833 -9 l2337 -6 0 24
c0 14 -16 87 -36 164 -20 76 -51 199 -69 273 -18 74 -50 207 -73 295 -36 145
-65 265 -123 515 -32 137 -148 608 -170 695 -12 44 -43 170 -69 280 -88 366
-170 690 -195 773 -4 9 -340 12 -1639 12 l-1634 0 -42 -82z m3277 58 c4 -3
-99 -163 -167 -261 -27 -39 -144 -214 -226 -337 -35 -53 -64 -101 -64 -106 0
-4 -9 -18 -20 -30 -12 -12 -117 -165 -234 -340 -176 -261 -340 -505 -352 -520
-2 -4 -23 11 -199 145 -50 37 -100 75 -112 83 -12 8 -83 62 -160 119 -76 58
-169 128 -208 156 -121 89 -710 532 -738 555 -37 30 -264 203 -387 294 -293
216 -319 237 -320 246 0 6 3182 2 3187 -4z m-3074 -114 c78 -59 174 -130 212
-157 39 -27 75 -54 81 -60 7 -5 34 -27 60 -47 27 -20 76 -58 109 -83 33 -25
71 -53 85 -62 14 -10 47 -35 75 -58 71 -58 76 -61 120 -95 22 -16 63 -46 91
-65 29 -19 58 -40 65 -48 8 -7 77 -60 155 -118 77 -58 147 -110 155 -117 8 -7
52 -40 99 -74 129 -93 271 -198 308 -227 61 -48 156 -120 202 -153 25 -18 75
-55 112 -84 l67 -51 -37 -54 c-20 -30 -40 -58 -44 -64 -5 -5 -103 -152 -218
-325 -236 -355 -350 -523 -359 -530 -4 -3 -23 -30 -44 -60 -20 -30 -45 -66
-56 -80 -12 -14 -21 -29 -21 -33 0 -4 -32 -55 -71 -113 l-71 -105 -1429 2
c-785 1 -1433 5 -1439 9 -8 5 17 57 75 155 48 82 91 158 96 169 5 12 25 46 44
76 19 30 48 81 65 112 16 32 63 115 103 185 41 71 97 173 127 228 29 55 56
105 60 110 14 19 103 179 157 285 29 57 60 111 67 120 8 8 34 53 58 100 25 47
59 108 76 136 18 28 32 53 32 56 0 3 39 74 87 159 47 85 107 192 133 239 26
47 64 114 84 148 20 35 36 66 36 69 0 3 38 71 83 151 46 81 103 183 127 227
24 44 54 98 67 120 13 22 31 57 40 78 10 20 22 37 26 37 5 0 72 -49 150 -108z
m3120 26 c38 -147 161 -642 187 -753 16 -66 38 -156 49 -200 34 -128 133 -538
166 -680 7 -33 18 -78 24 -100 14 -49 46 -190 72 -310 10 -49 30 -130 44 -180
13 -49 42 -162 64 -250 22 -88 53 -211 69 -272 16 -62 25 -113 20 -113 -10 0
-130 86 -248 179 -71 56 -131 101 -436 328 -73 54 -203 152 -289 218 -86 66
-170 129 -185 140 -80 56 -276 204 -360 271 -52 41 -118 91 -147 110 -28 18
-64 45 -79 59 -15 14 -31 25 -35 25 -12 0 -11 27 0 32 11 4 43 50 317 460 117
175 227 337 244 360 17 24 105 156 195 293 254 387 300 453 306 449 3 -2 13
-32 22 -66z m-968 -1639 c123 -94 227 -173 600 -452 88 -66 174 -131 190 -144
44 -34 47 -36 85 -63 19 -13 37 -27 40 -30 3 -4 54 -43 114 -86 163 -118 197
-143 281 -209 43 -33 97 -73 120 -90 23 -16 58 -44 77 -61 20 -17 61 -48 92
-69 31 -20 56 -41 56 -47 0 -9 -2689 -2 -2698 7 -2 2 28 52 66 112 68 104 99
149 258 373 41 58 95 137 121 175 25 39 125 188 222 333 97 145 189 283 205
308 16 24 32 44 35 44 3 -1 65 -46 136 -101z"/>
<path d="M11437 2462 c5 -22 -23 -127 -43 -158 -12 -20 -11 -22 12 -27 19 -3
24 0 23 12 -2 9 1 31 5 49 7 31 11 34 42 30 22 -3 35 1 39 10 10 28 4 32 -21
16 -34 -23 -48 -4 -30 40 10 26 19 32 49 34 27 2 39 -1 43 -13 6 -13 8 -14 15
-3 16 25 9 28 -65 28 -67 0 -74 -2 -69 -18z"/>
<path d="M3780 3140 c-11 -8 -8 -10 15 -8 26 3 30 -1 33 -24 2 -18 -6 -37 -27
-61 -17 -19 -31 -37 -31 -41 0 -3 18 -6 40 -6 23 0 40 5 40 11 0 6 -9 9 -20 6
-30 -8 -32 6 -5 43 28 37 31 60 13 78 -15 15 -38 15 -58 2z"/>
<path d="M2842 3068 c-7 -7 -12 -19 -12 -27 1 -13 2 -13 11 2 12 20 49 23 67
5 26 -26 13 -65 -39 -122 l-51 -56 61 0 c50 0 62 3 71 20 6 12 7 20 1 20 -5 0
-11 -5 -13 -11 -2 -6 -21 -9 -43 -7 l-40 3 24 22 c60 56 77 115 43 146 -22 20
-63 22 -80 5z"/>
<path d="M3054 3066 c-20 -9 -39 -29 -53 -58 -25 -53 -26 -60 -5 -104 14 -29
22 -34 50 -34 38 0 64 29 64 72 0 35 -24 58 -61 58 -29 0 -29 0 -13 25 9 14
29 32 43 40 33 18 16 19 -25 1z m14 -88 c17 -17 15 -73 -3 -88 -13 -10 -19
-10 -35 5 -32 29 -22 95 15 95 6 0 16 -5 23 -12z"/>
<path d="M1919 2983 c3 -75 1 -89 -15 -100 -15 -11 -8 -13 52 -13 74 0 98 10
109 47 4 16 0 27 -14 39 -18 16 -18 20 -5 38 8 11 14 24 14 28 0 19 -42 48
-67 47 l-28 -1 27 -9 c54 -20 44 -79 -13 -79 -28 0 -29 2 -29 45 0 36 -3 45
-17 45 -16 0 -18 -9 -14 -87z m101 -33 c27 -27 25 -49 -6 -60 -53 -20 -64 -14
-64 35 0 41 2 45 25 45 14 0 34 -9 45 -20z"/>
<path d="M3197 3038 c-70 -95 -71 -106 -19 -110 24 -2 37 -8 38 -18 1 -8 2
-21 3 -27 2 -24 21 -13 21 12 0 13 7 28 16 33 15 8 15 10 0 15 -12 5 -16 20
-16 67 0 33 -4 60 -9 60 -6 0 -21 -15 -34 -32z m21 -54 c-3 -40 -21 -53 -55
-40 -13 5 -11 12 11 40 14 19 26 40 26 47 0 9 3 10 11 2 6 -6 9 -28 7 -49z"/>
<path d="M3389 3000 c-26 -15 -33 -77 -14 -106 22 -33 71 -30 94 6 15 25 15
25 -5 8 -42 -37 -77 -13 -72 49 2 28 8 39 22 41 10 2 23 -3 28 -12 11 -20 28
-21 28 -2 0 24 -50 34 -81 16z"/>
<path d="M3500 3000 c-10 -6 -11 -10 -2 -10 16 0 16 -92 0 -108 -9 -9 -4 -12
22 -11 19 0 29 3 23 6 -18 7 -17 88 2 103 30 25 47 4 43 -55 -3 -52 -2 -55 20
-55 15 0 21 4 16 11 -12 20 -14 70 -4 90 15 26 46 24 54 -3 9 -37 7 -73 -6
-86 -9 -9 -4 -12 23 -11 18 0 28 3 22 6 -8 3 -13 25 -13 58 0 64 -17 84 -59
69 -19 -8 -32 -7 -44 0 -12 8 -23 7 -39 -3 -16 -10 -23 -10 -26 -2 -4 13 -12
14 -32 1z"/>
<path d="M4134 2976 c-10 -26 4 -48 28 -44 17 2 23 10 23 28 0 18 -6 26 -23
28 -13 2 -25 -3 -28 -12z m46 -16 c0 -13 -7 -20 -20 -20 -13 0 -20 7 -20 20 0
13 7 20 20 20 13 0 20 -7 20 -20z"/>
<path d="M2116 2893 c-11 -11 -6 -23 9 -23 8 0 15 4 15 9 0 13 -16 22 -24 14z"/>
<path d="M3768 2262 c-27 -5 -21 -20 6 -15 31 6 41 -20 22 -58 -8 -16 -10 -27
-5 -24 16 11 39 63 33 78 -6 17 -30 25 -56 19z"/>
<path d="M1990 2191 c0 -6 6 -11 14 -11 8 0 24 -12 35 -26 l21 -27 0 32 c0 24
-4 31 -19 31 -11 0 -26 3 -35 6 -9 3 -16 1 -16 -5z"/>
<path d="M2840 2183 c-11 -8 -20 -21 -20 -29 0 -10 5 -9 20 6 25 25 42 25 65
0 24 -27 14 -55 -40 -114 -25 -26 -45 -50 -45 -52 0 -2 27 -4 59 -4 44 0 60 4
65 16 9 24 7 29 -6 16 -12 -12 -78 -17 -78 -6 0 3 18 26 40 51 58 67 52 120
-14 127 -14 2 -35 -3 -46 -11z"/>
<path d="M3020 2187 c-31 -15 -39 -56 -15 -73 16 -12 16 -15 -4 -47 -19 -30
-19 -35 -5 -55 10 -15 26 -22 48 -22 54 0 72 37 40 85 -14 22 -14 26 1 49 16
24 16 28 1 51 -19 28 -30 30 -66 12z m50 -27 c0 -26 -10 -50 -21 -50 -5 0 -14
11 -21 25 -8 18 -8 28 1 39 16 19 41 10 41 -14z m-8 -104 c12 -29 5 -56 -15
-56 -24 0 -38 26 -31 54 8 33 31 34 46 2z"/>
<path d="M3165 2180 c-12 -14 -20 -40 -22 -78 -5 -74 11 -106 55 -110 29 -3
34 1 47 32 34 80 4 176 -54 176 -4 0 -16 -9 -26 -20z m59 -17 c20 -73 13 -138
-17 -157 -14 -8 -20 -8 -27 4 -11 17 -14 153 -3 163 13 13 42 7 47 -10z"/>
<path d="M1919 2161 c-29 -29 -31 -36 -26 -79 9 -82 92 -121 148 -71 l24 21
-28 -17 c-56 -33 -117 8 -117 80 0 28 16 66 34 77 6 4 7 10 4 14 -4 3 -21 -8
-39 -25z"/>
<path d="M3748 2133 c-8 -10 -2 -13 30 -13 51 0 64 16 17 22 -22 2 -40 -1 -47
-9z"/>
<path d="M3376 2114 c-43 -43 -25 -117 31 -122 18 -2 37 3 47 13 22 23 20 42
-2 22 -10 -10 -26 -17 -35 -17 -31 0 -49 66 -27 100 8 12 13 13 27 2 29 -20
43 -25 51 -17 10 10 -28 35 -54 35 -13 0 -30 -7 -38 -16z"/>
<path d="M3495 2119 c-11 -4 -14 -8 -7 -8 10 -1 13 -16 10 -61 -3 -58 -2 -60
22 -59 14 0 19 3 13 6 -17 6 -17 85 -1 101 7 7 20 12 31 12 17 0 18 -7 15 -60
-3 -54 -1 -60 17 -60 18 0 20 7 20 57 0 48 3 58 19 61 10 2 22 -2 27 -10 11
-16 9 -87 -3 -94 -17 -10 -7 -21 15 -17 21 4 22 8 17 64 -7 71 -19 87 -55 71
-20 -9 -30 -9 -45 0 -14 9 -25 9 -44 0 -13 -6 -26 -7 -28 -3 -2 5 -12 5 -23 0z"/>
<path d="M4097 2103 c-4 -3 -7 -11 -7 -17 0 -6 5 -5 12 2 21 21 41 14 36 -13
-6 -29 7 -34 15 -6 8 31 -34 56 -56 34z"/>
<path d="M2106 2013 c-11 -11 -6 -23 9 -23 8 0 15 4 15 9 0 13 -16 22 -24 14z"/>
<path d="M3743 1373 c-7 -2 -13 -9 -13 -15 0 -7 5 -6 14 1 19 16 46 3 46 -23
0 -12 -14 -38 -31 -59 l-30 -37 40 0 c22 0 43 5 46 11 5 7 -5 8 -32 3 l-38 -7
26 29 c58 63 39 125 -28 97z"/>
<path d="M1901 1283 c13 -35 11 -147 -3 -161 -9 -9 3 -12 56 -12 61 0 70 3 97
29 51 52 33 128 -37 157 -50 21 -65 16 -21 -7 45 -24 62 -55 53 -102 -12 -62
-99 -94 -112 -42 -7 29 -1 121 11 147 5 14 1 17 -23 16 -28 -1 -30 -3 -21 -25z"/>
<path d="M2832 1298 c-7 -7 -12 -16 -12 -22 0 -6 5 -5 12 2 18 18 46 15 57 -6
12 -22 -3 -52 -27 -53 -13 0 -12 -3 6 -11 50 -25 34 -92 -21 -86 -32 3 -43
-15 -12 -21 26 -5 82 27 88 49 3 11 -2 31 -10 47 -10 19 -11 34 -5 48 15 33
-3 65 -36 65 -15 0 -33 -5 -40 -12z"/>
<path d="M2992 1303 c-7 -2 -17 -14 -23 -25 -10 -19 -10 -19 15 -3 51 34 89
-10 59 -68 -8 -16 -31 -45 -51 -64 l-37 -34 64 3 c36 2 66 8 68 13 2 6 -16 9
-44 7 l-48 -4 37 39 c43 45 56 85 38 119 -13 23 -45 30 -78 17z"/>
<path d="M3157 1298 c-9 -7 -21 -35 -26 -63 -22 -120 72 -187 108 -77 30 91
-24 182 -82 140z m53 -17 c17 -33 12 -126 -8 -151 -16 -20 -19 -21 -32 -5 -22
26 -26 120 -6 150 20 30 32 32 46 6z"/>
<path d="M3361 1224 c-12 -15 -21 -37 -21 -49 0 -26 36 -75 55 -75 7 0 23 9
36 21 l24 20 -22 -6 c-42 -12 -63 3 -63 44 0 48 17 67 41 45 25 -22 47 -14 25
9 -25 24 -51 21 -75 -9z"/>
<path d="M3479 1227 c15 -15 14 -100 -1 -116 -11 -10 -9 -12 7 -9 16 3 21 12
23 55 3 55 19 77 47 67 14 -6 16 -17 13 -66 -2 -47 0 -58 12 -56 11 2 14 15
11 49 -1 32 3 51 14 62 18 19 44 12 46 -12 3 -37 2 -57 -5 -78 -6 -19 -4 -23
13 -23 18 0 19 5 15 58 -3 31 -7 63 -9 70 -5 15 -51 16 -60 2 -4 -7 -11 -8
-18 -2 -17 14 -122 13 -108 -1z"/>
<path d="M4092 1218 c-16 -16 -15 -33 3 -48 21 -18 55 -3 55 25 0 32 -35 46
-58 23z m46 -21 c4 -21 -25 -34 -40 -19 -8 8 -8 16 2 27 16 19 34 15 38 -8z"/>
<path d="M2112 1118 c6 -18 28 -21 28 -4 0 9 -7 16 -16 16 -9 0 -14 -5 -12
-12z"/>
<path d="M7490 678 c0 -13 -13 -60 -29 -105 -25 -72 -27 -83 -12 -84 27 -2 75
2 94 7 25 8 40 50 26 75 -8 16 -7 25 5 38 19 21 21 55 4 68 -7 6 -30 13 -50
17 -35 6 -38 5 -38 -16z m70 -17 c5 -11 10 -22 10 -25 0 -12 -34 -36 -52 -36
-17 0 -19 4 -13 33 4 17 9 35 12 40 8 14 32 7 43 -12z m-22 -83 c31 -31 3 -78
-47 -78 -22 0 -25 9 -15 59 5 23 12 31 28 31 12 0 27 -5 34 -12z"/>
<path d="M13448 673 c7 -3 16 -2 19 1 4 3 -2 6 -13 5 -11 0 -14 -3 -6 -6z"/>
<path d="M13496 670 c-14 -4 -16 -9 -8 -14 7 -4 12 -17 12 -29 0 -15 3 -18 11
-10 6 6 9 22 7 35 -2 20 -7 24 -22 18z"/>
<path d="M13397 651 c-67 -44 -85 -131 -34 -166 28 -20 88 -19 113 1 19 15 19
16 -1 9 -61 -22 -106 -9 -117 33 -7 25 23 93 53 121 28 26 23 27 -14 2z"/>
<path d="M10512 638 c0 -7 -12 -49 -25 -93 l-24 -80 61 -6 c64 -6 86 5 86 40
0 11 -5 9 -16 -7 -12 -17 -25 -22 -60 -22 -49 0 -48 -2 -32 51 11 38 38 53 53
29 10 -16 25 -1 24 23 0 12 -3 16 -6 10 -2 -7 -16 -13 -29 -13 -27 0 -30 13
-10 53 14 25 13 27 -3 27 -10 0 -18 -6 -19 -12z"/>
<path d="M10605 640 c3 -5 10 -10 16 -10 5 0 9 5 9 10 0 6 -7 10 -16 10 -8 0
-12 -4 -9 -10z"/>
</g>
</svg>
