<?xml version="1.0" standalone="no"?>
<!DOCTYPE svg PUBLIC "-//W3C//DTD SVG 20010904//EN"
 "http://www.w3.org/TR/2001/REC-SVG-20010904/DTD/svg10.dtd">
<svg version="1.0" xmlns="http://www.w3.org/2000/svg"
 width="1457.000000pt" height="614.000000pt" viewBox="0 0 1457.000000 614.000000"
 preserveAspectRatio="xMidYMid meet">
<metadata>
Created by potrace 1.16, written by Peter Selinger 2001-2019
</metadata>
<g transform="translate(0.000000,614.000000) scale(0.100000,-0.100000)"
fill="#000000" stroke="none">
<path d="M12586 5825 c-4 -15 -13 -25 -25 -25 -16 0 -18 -10 -20 -100 -1 -63
2 -100 9 -100 5 0 10 5 10 11 0 7 15 10 40 7 l40 -4 0 93 0 93 -27 0 c-21 0
-24 3 -15 12 14 14 16 38 3 38 -5 0 -12 -11 -15 -25z m39 -70 c0 -27 -4 -30
-32 -33 -30 -3 -33 -1 -33 26 0 36 4 39 38 38 23 -1 27 -5 27 -31z m3 -87 c3
-37 3 -38 -32 -38 -35 0 -36 1 -36 41 0 39 1 40 33 37 29 -3 32 -6 35 -40z"/>
<path d="M12707 5842 c-3 -4 -15 -32 -26 -62 -13 -36 -15 -48 -6 -36 8 11 15
23 15 27 0 4 10 9 23 13 18 5 19 8 8 15 -12 8 -12 12 -2 24 7 10 8 18 2 21 -5
4 -12 3 -14 -2z"/>
<path d="M12970 5835 c0 -8 -3 -15 -7 -15 -5 -1 -24 -14 -43 -31 -19 -17 -28
-29 -20 -27 22 4 26 -99 6 -147 -8 -19 -11 -33 -6 -30 5 3 14 21 20 40 11 34
14 35 60 35 47 0 49 1 47 28 -2 25 1 27 41 30 l42 3 0 -60 c0 -60 -1 -61 -27
-62 -24 -2 -25 -2 -5 -6 12 -2 22 -9 22 -16 0 -7 3 -8 10 -1 11 11 20 215 8
208 -4 -3 -8 -16 -8 -30 0 -21 -4 -24 -39 -24 -22 0 -42 4 -45 9 -3 5 5 25 19
45 14 20 25 39 25 41 0 3 -12 5 -27 5 -20 0 -24 -3 -14 -9 11 -7 10 -12 -5
-27 -11 -11 -18 -29 -16 -41 3 -21 -1 -23 -37 -23 -23 0 -41 4 -41 9 0 26 22
62 43 72 25 11 32 39 10 39 -7 0 -13 -7 -13 -15z m40 -141 c0 -23 -3 -25 -37
-22 -31 2 -39 7 -41 26 -3 20 1 22 37 22 37 0 41 -2 41 -26z"/>
<path d="M13445 5840 c-3 -5 1 -10 10 -10 9 0 13 5 10 10 -3 6 -8 10 -10 10
-2 0 -7 -4 -10 -10z"/>
<path d="M13670 5846 c0 -2 11 -6 25 -8 14 -3 25 -1 25 3 0 5 -11 9 -25 9 -14
0 -25 -2 -25 -4z"/>
<path d="M13907 5827 c-13 -20 -13 -26 -1 -42 18 -24 18 -27 -6 -53 l-21 -22
21 0 c11 0 20 -5 20 -12 0 -6 8 -4 19 6 11 10 25 15 32 11 7 -5 10 -3 7 6 -3
9 -16 13 -39 11 l-34 -4 34 36 c19 20 32 39 28 43 -4 3 -13 -2 -21 -12 -14
-19 -36 -13 -36 11 0 8 7 17 15 20 8 4 15 10 15 15 0 17 -18 9 -33 -14z"/>
<path d="M14058 5843 c7 -3 16 -2 19 1 4 3 -2 6 -13 5 -11 0 -14 -3 -6 -6z"/>
<path d="M11080 5830 c-14 -4 -47 -8 -75 -9 -48 -1 -51 -3 -73 -43 -20 -38
-21 -40 -2 -23 20 18 20 18 20 -46 0 -47 -6 -73 -21 -98 -22 -37 -20 -55 3
-19 24 39 41 87 34 103 -4 10 1 15 17 16 15 1 17 3 6 6 -18 4 -34 72 -20 86 5
5 21 7 37 5 21 -2 30 -9 32 -26 2 -12 7 -20 12 -17 5 3 6 13 3 21 -8 21 14 34
55 34 20 0 31 4 27 10 -7 11 -19 11 -55 0z"/>
<path d="M13280 5830 c-9 -6 -10 -10 -3 -10 6 0 15 5 18 10 8 12 4 12 -15 0z"/>
<path d="M13338 5770 l4 -70 -53 -2 -54 -1 50 -6 50 -6 0 -53 c0 -28 3 -52 8
-52 4 0 7 25 8 55 0 30 0 87 1 127 0 40 -4 74 -9 75 -5 2 -7 -28 -5 -67z"/>
<path d="M13384 5828 c10 -6 22 -6 26 -2 5 5 -3 10 -18 11 -22 1 -24 0 -8 -9z"/>
<path d="M13583 5772 c-23 -35 -37 -59 -30 -53 7 5 22 9 33 7 10 -2 13 -1 7 1
-7 3 -13 7 -13 9 0 11 23 50 42 70 11 12 16 24 11 26 -4 3 -27 -24 -50 -60z"/>
<path d="M9015 5804 c-14 -21 -15 -31 -6 -51 12 -26 0 -62 -22 -64 -7 -1 -1
-4 13 -8 23 -6 25 -13 30 -71 l4 -65 6 70 c5 66 6 70 28 68 21 -3 22 -1 11 20
-8 13 -14 17 -17 9 -4 -13 -42 -17 -42 -4 0 5 11 19 25 32 14 13 25 28 25 34
0 6 -7 3 -15 -8 -15 -20 -45 -16 -45 7 0 8 10 21 22 29 13 9 18 17 11 21 -6 4
-19 -5 -28 -19z"/>
<path d="M9160 5816 c0 -10 -9 -16 -25 -16 -24 0 -25 -3 -25 -54 0 -51 1 -53
25 -48 24 4 25 3 25 -55 0 -32 -5 -64 -11 -70 -8 -8 -8 -13 0 -18 14 -8 20 8
23 65 l3 45 17 -32 c23 -40 47 -65 59 -58 5 4 -3 17 -19 31 l-27 24 24 20 c15
13 18 20 9 20 -8 0 -19 -5 -26 -12 -14 -14 -17 -11 -27 21 -6 21 -5 23 14 18
18 -4 21 -1 21 26 0 18 3 42 6 55 6 19 3 22 -25 22 -18 0 -30 4 -26 9 3 5 1
12 -5 16 -5 3 -10 -1 -10 -9z m50 -46 c0 -17 -7 -20 -45 -20 -31 0 -45 4 -45
13 0 21 11 27 52 27 31 0 38 -3 38 -20z m0 -45 c0 -11 -12 -15 -45 -15 -33 0
-45 4 -45 15 0 11 12 15 45 15 33 0 45 -4 45 -15z"/>
<path d="M9899 5823 c-1 -4 -1 -11 0 -15 0 -5 -6 -8 -14 -8 -12 0 -12 -3 2
-20 15 -17 19 -18 26 -5 11 20 67 20 67 0 0 -21 18 -19 22 3 5 23 -2 52 -13
52 -5 0 -9 -7 -9 -15 0 -11 -11 -15 -36 -15 -19 0 -33 4 -29 9 3 5 1 12 -5 16
-5 3 -11 3 -11 -2z"/>
<path d="M14000 5775 c0 -45 3 -53 15 -49 13 5 13 9 3 21 -10 12 -9 18 7 29
17 13 17 14 1 14 -28 0 -13 24 20 31 27 6 27 7 -8 8 l-38 1 0 -55z"/>
<path d="M14095 5820 c-3 -5 -2 -10 4 -10 6 0 9 -17 7 -40 -2 -22 0 -43 5 -46
5 -3 9 20 9 50 0 52 -10 70 -25 46z"/>
<path d="M6585 5810 c-3 -5 -25 -10 -48 -10 -29 -1 -37 -3 -27 -9 17 -11 120
7 120 20 0 12 -37 11 -45 -1z"/>
<path d="M6930 5801 c0 -11 -4 -23 -10 -26 -5 -3 -10 -15 -10 -26 0 -11 -9
-23 -21 -27 -20 -8 -20 -8 0 -26 19 -18 20 -17 19 0 -1 11 7 32 17 47 20 32
29 77 14 77 -5 0 -9 -9 -9 -19z"/>
<path d="M7506 5765 c-14 -30 -42 -73 -63 -97 -33 -37 -34 -40 -10 -25 l27 17
0 -56 c0 -75 7 -66 15 19 5 49 15 80 34 109 14 22 25 43 24 47 0 3 3 14 8 24
6 11 6 17 0 17 -6 0 -22 -25 -35 -55z"/>
<path d="M8366 5808 c-2 -7 -7 -21 -10 -30 -9 -31 9 -20 21 12 7 17 7 30 2 30
-5 0 -11 -6 -13 -12z"/>
<path d="M8454 5768 c-10 -29 -21 -57 -23 -63 -2 -5 8 7 23 28 14 21 26 44 26
50 0 7 5 18 12 25 9 9 9 12 -3 12 -9 0 -23 -21 -35 -52z"/>
<path d="M8670 5771 c0 -39 -4 -51 -17 -54 -17 -4 -17 -5 0 -6 13 -1 17 -10
17 -38 0 -52 11 -65 51 -61 30 3 34 7 36 33 2 28 1 28 -5 5 -6 -18 -15 -25
-32 -25 -23 0 -25 5 -28 47 l-3 47 40 11 c23 6 41 15 41 20 0 13 -3 13 -36 -4
-37 -20 -47 -11 -42 35 2 27 0 39 -9 39 -9 0 -13 -16 -13 -49z"/>
<path d="M11848 5806 c18 -9 32 -23 33 -33 0 -14 3 -12 10 6 12 29 13 28 -36
36 l-40 6 33 -15z"/>
<path d="M12156 5810 c18 -18 -23 -175 -49 -192 -7 -4 23 -8 65 -8 66 0 79 3
88 19 16 31 12 34 -16 12 -35 -28 -94 -29 -94 -2 0 56 38 89 67 60 7 -7 12 -3
15 14 4 23 3 23 -23 13 -37 -13 -41 -8 -27 37 10 34 14 37 49 37 20 0 40 -6
42 -12 4 -8 6 -7 6 3 1 21 -10 25 -79 28 -41 2 -52 0 -44 -9z"/>
<path d="M13720 5814 c0 -20 75 -97 90 -92 10 3 5 10 -16 21 -17 9 -41 31 -53
49 -11 18 -21 28 -21 22z"/>
<path d="M4338 5779 c-8 -22 -15 -29 -29 -26 -16 4 -18 -4 -17 -94 0 -55 4
-102 9 -105 5 -3 9 2 9 11 0 14 8 16 40 13 l40 -4 0 72 c0 40 3 79 6 88 4 10
1 16 -7 16 -11 0 -13 -18 -11 -80 l2 -80 -35 0 -35 0 0 75 c0 71 1 75 23 75
18 0 22 6 24 35 2 43 -5 45 -19 4z"/>
<path d="M6805 5800 c-3 -5 3 -10 15 -10 12 0 18 5 15 10 -3 6 -10 10 -15 10
-5 0 -12 -4 -15 -10z"/>
<path d="M7090 5686 c0 -69 3 -127 8 -129 4 -3 16 -1 27 4 18 7 18 8 2 8 -17
1 -18 10 -15 121 2 91 0 120 -9 120 -10 0 -13 -32 -13 -124z"/>
<path d="M7183 5803 c9 -2 23 -2 30 0 6 3 -1 5 -18 5 -16 0 -22 -2 -12 -5z"/>
<path d="M7295 5803 c11 -3 23 -10 27 -16 10 -16 7 -207 -4 -213 -10 -6 -1
-24 13 -24 5 0 9 55 9 130 l0 130 -32 -1 c-22 -1 -26 -3 -13 -6z"/>
<path d="M8802 5799 c2 -7 10 -15 17 -17 8 -3 12 1 9 9 -2 7 -10 15 -17 17 -8
3 -12 -1 -9 -9z"/>
<path d="M8893 5703 c-1 -97 -4 -109 -23 -125 -16 -13 -18 -18 -7 -18 26 0 38
27 43 102 3 40 6 90 8 111 3 23 0 37 -7 37 -8 0 -13 -34 -14 -107z"/>
<path d="M10040 5800 c-24 -8 -23 -8 8 -9 17 -1 32 4 32 9 0 11 -5 11 -40 0z"/>
<path d="M10579 5797 c12 -15 -7 -105 -34 -157 -8 -16 -15 -30 -15 -32 0 -3
64 -2 107 1 7 1 20 15 28 32 14 27 15 33 2 53 -14 20 -13 24 4 34 25 16 25 58
0 72 -11 5 -39 10 -62 10 -33 0 -39 -3 -30 -13z m75 -13 c29 -29 12 -64 -31
-64 -25 0 -29 14 -13 54 11 30 22 32 44 10z m-11 -92 c24 -27 2 -66 -41 -70
-36 -4 -39 5 -21 57 12 35 37 41 62 13z"/>
<path d="M11137 5784 c9 -15 19 -21 21 -15 4 13 -16 41 -29 41 -5 0 -2 -12 8
-26z"/>
<path d="M11566 5710 c-55 -55 -98 -101 -95 -103 2 -3 49 -1 104 3 l100 7 -82
1 c-46 1 -83 5 -83 9 0 4 39 47 87 95 48 49 83 88 78 88 -6 0 -55 -45 -109
-100z"/>
<path d="M11749 5771 c-32 -32 -39 -45 -39 -79 0 -32 6 -45 29 -65 33 -28 84
-28 111 -1 14 14 12 14 -14 0 -24 -12 -34 -13 -60 -2 -28 11 -31 17 -34 65 -3
48 0 55 31 86 19 19 30 35 25 35 -6 0 -28 -17 -49 -39z"/>
<path d="M12024 5783 c-15 -23 -45 -63 -120 -155 -12 -16 -12 -18 6 -18 13 0
20 7 20 18 0 26 32 52 63 52 21 0 27 -5 27 -23 0 -13 -5 -28 -12 -35 -9 -9 -4
-12 23 -11 18 0 28 3 21 6 -10 4 -12 26 -6 99 4 52 4 94 2 94 -3 0 -14 -12
-24 -27z m-4 -63 c0 -23 -4 -30 -20 -30 -24 0 -26 17 -3 42 21 24 23 23 23
-12z"/>
<path d="M2824 5788 c-38 -9 -40 -12 -40 -44 1 -19 6 -32 11 -31 6 2 9 15 7
29 -2 19 2 27 20 32 39 10 46 7 68 -30 12 -19 25 -33 27 -30 3 3 -4 17 -15 31
-12 15 -18 33 -15 41 6 16 -3 16 -63 2z"/>
<path d="M3249 5794 c-1 -5 -1 -57 1 -117 1 -70 -2 -112 -9 -121 -9 -10 -9
-16 -1 -21 6 -4 13 -5 15 -3 7 6 8 259 1 265 -3 4 -7 2 -7 -3z"/>
<path d="M4435 5753 c-28 -67 -29 -71 -5 -40 18 22 29 27 67 27 l46 0 -7 -80
c-8 -97 -12 -108 -39 -114 -14 -2 -11 -4 7 -3 35 2 42 22 48 135 l4 72 -49 0
c-47 0 -49 1 -43 25 11 42 -8 28 -29 -22z"/>
<path d="M4638 5702 c-2 -53 -1 -114 2 -134 5 -34 6 -36 24 -22 16 11 17 14 4
14 -13 0 -16 16 -17 101 -1 58 3 107 9 114 8 9 6 14 -4 18 -12 5 -15 -11 -18
-91z"/>
<path d="M4869 5793 c-1 -5 -1 -11 -1 -14 3 -25 3 -207 1 -218 -2 -7 2 -16 9
-18 9 -4 12 26 12 126 0 81 -4 131 -10 131 -5 0 -11 -3 -11 -7z"/>
<path d="M5085 5775 c17 -13 35 -24 40 -24 6 0 -3 11 -20 24 -16 14 -34 25
-40 25 -5 0 4 -11 20 -25z"/>
<path d="M6450 5786 c0 -9 -9 -25 -20 -36 -11 -11 -20 -23 -20 -27 0 -4 5 -2
12 5 22 22 28 12 28 -50 0 -35 4 -58 8 -52 4 6 14 14 22 17 12 4 11 6 -2 6
-11 1 -18 9 -18 21 0 18 7 20 80 20 l80 0 1 -27 1 -28 9 29 c9 31 5 41 -14 41
-7 0 -11 10 -9 23 2 12 -2 22 -7 22 -6 0 -11 -11 -11 -25 0 -25 -1 -26 -62
-23 -48 2 -63 7 -63 18 0 8 -4 21 -9 28 -4 7 -3 19 4 27 7 9 8 15 0 20 -5 3
-10 -1 -10 -9z"/>
<path d="M6768 5793 c7 -3 16 -2 19 1 4 3 -2 6 -13 5 -11 0 -14 -3 -6 -6z"/>
<path d="M7151 5768 c-1 -21 3 -38 8 -38 17 0 19 15 6 45 l-13 30 -1 -37z"/>
<path d="M9828 5793 c6 -2 18 -2 25 0 6 3 1 5 -13 5 -14 0 -19 -2 -12 -5z"/>
<path d="M10461 5782 c-5 -9 -7 -30 -4 -46 4 -21 1 -33 -12 -43 -36 -26 -49
-5 -18 29 9 10 14 20 11 23 -3 3 -18 -14 -33 -37 -16 -24 -42 -58 -59 -75 -29
-32 -29 -33 -8 -33 15 0 22 6 22 18 0 26 32 52 63 52 29 0 35 -17 17 -51 -9
-16 -7 -19 12 -19 21 0 23 5 23 48 0 26 4 71 8 100 8 53 -3 70 -22 34z"/>
<path d="M12768 5793 c20 -4 22 -10 22 -73 0 -98 -10 -120 -57 -121 l-38 -1
35 -10 c30 -8 37 -7 52 12 10 12 18 39 18 59 0 20 3 60 6 89 l7 52 -34 -1
c-24 -1 -27 -3 -11 -6z"/>
<path d="M13260 5765 c-12 -19 -27 -35 -32 -35 -6 0 -8 -3 -5 -6 4 -4 14 -1
22 6 25 20 57 70 46 70 -5 0 -19 -16 -31 -35z"/>
<path d="M1568 5758 c-3 -33 -4 -33 -54 -32 l-50 2 0 -62 0 -62 56 4 55 4 -3
-56 c-3 -36 0 -56 7 -56 7 0 11 22 11 56 l0 56 53 -4 54 -3 0 63 c0 34 -4 62
-9 62 -4 0 -8 -25 -8 -55 l0 -55 -45 0 -45 0 0 45 c0 29 4 45 13 45 9 0 8 3
-2 9 -9 6 -12 20 -9 40 3 21 0 31 -8 31 -7 0 -14 -15 -16 -32z m2 -93 l0 -45
-45 0 -45 0 0 45 0 45 45 0 45 0 0 -45z"/>
<path d="M3015 5660 c0 -72 3 -130 8 -130 4 0 7 54 7 120 0 131 0 128 -9 135
-3 3 -6 -54 -6 -125z"/>
<path d="M4698 5783 c6 -2 18 -2 25 0 6 3 1 5 -13 5 -14 0 -19 -2 -12 -5z"/>
<path d="M6066 5710 c-10 -44 -24 -91 -32 -105 -12 -23 -11 -25 10 -23 19 2
23 8 24 35 1 18 7 43 14 56 7 12 11 25 10 30 -1 4 4 23 12 41 13 30 13 35 -1
40 -8 3 -15 6 -16 6 -1 0 -10 -36 -21 -80z"/>
<path d="M6166 5782 c-3 -5 4 -13 15 -20 15 -10 19 -10 19 2 0 15 -27 29 -34
18z"/>
<path d="M8040 5748 c-19 -23 -47 -61 -61 -84 -15 -23 -37 -49 -50 -58 l-23
-16 27 0 c20 0 27 5 27 18 0 11 9 27 20 37 11 10 20 23 20 29 1 16 36 56 50
56 12 0 5 -37 -10 -54 -5 -5 -5 -19 0 -32 7 -17 5 -28 -6 -39 -14 -13 -12 -15
17 -15 26 0 30 2 19 15 -7 8 -9 26 -6 42 7 32 17 143 14 143 -2 0 -19 -19 -38
-42z"/>
<path d="M13421 5763 c25 -31 36 -35 26 -9 -3 8 -16 20 -28 27 -22 12 -22 11
2 -18z"/>
<path d="M1359 5773 c0 -5 0 -61 1 -125 l1 -118 -105 0 c-91 0 -105 2 -109 18
-3 9 -5 63 -4 120 1 56 -1 102 -5 102 -5 0 -8 -57 -8 -127 l0 -128 122 2 123
2 3 131 c2 84 -1 130 -8 130 -5 0 -10 -3 -11 -7z"/>
<path d="M4008 5773 c6 -2 18 -2 25 0 6 3 1 5 -13 5 -14 0 -19 -2 -12 -5z"/>
<path d="M4069 5771 c-12 -5 -13 -10 -3 -29 l12 -23 6 27 c8 31 6 34 -15 25z"/>
<path d="M5841 5693 c-13 -49 -27 -94 -33 -100 -8 -10 0 -13 38 -12 77 1 116
19 142 67 21 37 22 46 12 77 -11 34 -35 55 -61 55 -6 0 0 -9 15 -21 33 -26 36
-84 5 -122 -21 -28 -96 -54 -110 -40 -10 10 26 150 43 170 8 10 6 13 -9 13
-16 0 -23 -16 -42 -87z"/>
<path d="M6635 5760 c10 -11 20 -18 23 -15 7 6 -18 35 -31 35 -5 0 -2 -9 8
-20z"/>
<path d="M6990 5770 c0 -5 7 -10 15 -10 8 0 15 5 15 10 0 6 -7 10 -15 10 -8 0
-15 -4 -15 -10z"/>
<path d="M7250 5760 c0 -11 5 -20 10 -20 6 0 10 9 10 20 0 11 -4 20 -10 20 -5
0 -10 -9 -10 -20z"/>
<path d="M7645 5770 c-18 -8 -17 -9 8 -9 15 -1 27 4 27 9 0 12 -8 12 -35 0z"/>
<path d="M2700 5756 c0 -7 -7 -19 -15 -26 -8 -7 -15 -17 -15 -22 0 -6 6 -6 14
1 20 16 28 0 24 -47 l-3 -37 55 -1 c51 -1 52 -1 8 3 -48 4 -60 17 -37 40 8 8
8 13 0 17 -20 13 -11 26 17 27 26 1 26 1 -5 10 -35 10 -40 18 -21 37 9 9 8 12
-5 12 -9 0 -17 -6 -17 -14z"/>
<path d="M3623 5724 c-34 -46 -35 -61 -2 -21 l18 22 1 -27 c0 -16 -10 -38 -22
-50 -17 -17 -18 -20 -4 -15 16 6 18 2 14 -28 -3 -27 0 -35 12 -35 12 0 16 15
18 73 1 39 5 84 8 100 8 39 -6 33 -43 -19z"/>
<path d="M3756 5698 c-10 -40 -24 -85 -31 -100 l-13 -28 46 0 c26 0 58 6 72
13 30 15 42 56 23 79 -13 14 -12 19 6 37 12 12 21 27 21 34 0 18 -21 37 -39
37 -12 0 -12 -3 -3 -12 30 -30 8 -68 -39 -68 -23 0 -24 15 -5 53 13 24 13 27
-2 27 -13 0 -22 -18 -36 -72z m72 -30 c25 -25 14 -58 -23 -74 -55 -23 -66 -9
-41 51 16 36 41 46 64 23z"/>
<path d="M3941 5735 c-17 -20 -34 -47 -37 -60 -9 -35 14 -85 45 -97 32 -12 85
-3 102 19 13 15 11 14 -18 -1 -42 -21 -79 -12 -98 24 -18 34 -10 65 27 113 37
47 20 49 -21 2z"/>
<path d="M4704 5755 c-4 -9 -2 -21 3 -26 7 -7 12 -3 16 10 6 25 -11 39 -19 16z"/>
<path d="M4804 5755 c4 -11 -2 -15 -22 -16 l-27 -1 28 -10 c32 -11 32 -11 41
20 6 17 3 22 -9 22 -11 0 -15 -5 -11 -15z"/>
<path d="M6541 5754 c0 -11 3 -14 6 -6 3 7 2 16 -1 19 -3 4 -6 -2 -5 -13z"/>
<path d="M7588 5763 c7 -3 16 -2 19 1 4 3 -2 6 -13 5 -11 0 -14 -3 -6 -6z"/>
<path d="M8315 5676 c0 -52 4 -98 8 -102 4 -4 7 0 7 9 0 9 11 17 28 20 l27 4
-28 2 -28 1 3 80 c3 51 0 80 -7 80 -6 0 -10 -36 -10 -94z"/>
<path d="M8400 5731 c0 -33 -4 -40 -22 -44 l-23 -4 23 -2 c21 -1 23 -6 22 -38
-3 -54 -1 -63 10 -63 6 0 10 38 10 95 0 57 -4 95 -10 95 -5 0 -10 -18 -10 -39z"/>
<path d="M8558 5679 c-2 -73 -6 -92 -20 -100 -10 -6 -18 -14 -18 -19 0 -18 19
-10 34 13 17 27 33 197 18 197 -6 0 -12 -40 -14 -91z"/>
<path d="M8813 5735 c0 -22 2 -30 4 -17 2 12 2 30 0 40 -3 9 -5 -1 -4 -23z"/>
<path d="M11090 5752 c0 -10 -5 -23 -12 -30 -9 -9 -5 -12 20 -12 34 0 40 -8
20 -28 -9 -9 -6 -12 15 -12 24 0 27 -4 27 -35 0 -36 -22 -57 -49 -47 -8 3 -11
0 -7 -7 10 -15 41 -14 53 2 6 6 13 31 17 55 6 38 4 42 -15 42 -15 0 -20 5 -17
23 2 17 -3 23 -20 25 -17 3 -21 8 -17 23 4 11 2 19 -4 19 -6 0 -11 -8 -11 -18z"/>
<path d="M2310 5719 c-34 -35 -40 -48 -40 -84 0 -46 22 -75 56 -74 17 0 16 1
-3 9 -12 5 -25 21 -29 35 -8 34 20 104 54 132 15 13 21 23 14 23 -6 0 -30 -19
-52 -41z"/>
<path d="M2426 5735 c24 -36 3 -105 -43 -145 -38 -34 -36 -37 8 -15 40 21 69
71 69 121 0 41 -13 64 -37 64 -10 0 -10 -6 3 -25z"/>
<path d="M3080 5738 c0 -21 4 -23 52 -19 48 3 67 13 68 34 0 4 -7 7 -15 7 -9
0 -12 -6 -9 -15 5 -12 -3 -15 -35 -15 -30 0 -41 4 -41 15 0 8 -4 15 -10 15 -5
0 -10 -10 -10 -22z"/>
<path d="M285 5680 c-44 -66 -51 -98 -18 -86 30 12 63 -5 64 -33 2 -22 2 -23
6 -4 2 12 11 27 18 33 12 10 12 14 2 25 -8 8 -12 33 -10 68 1 31 -2 59 -7 62
-4 3 -29 -26 -55 -65z m43 -26 c-3 -36 -6 -39 -36 -42 l-33 -3 26 52 c30 58
48 55 43 -7z"/>
<path d="M7218 5743 c7 -3 16 -2 19 1 4 3 -2 6 -13 5 -11 0 -14 -3 -6 -6z"/>
<path d="M9920 5735 c0 -12 -13 -15 -57 -15 -31 0 -53 -3 -50 -7 4 -3 25 -6
47 -5 22 1 40 -3 40 -8 0 -20 -34 -63 -65 -81 -16 -11 -25 -19 -19 -19 6 0 23
9 37 20 14 11 32 20 41 20 9 0 13 6 10 14 -3 8 -1 24 6 35 10 19 20 21 97 21
47 0 83 3 79 7 -4 4 -41 6 -83 4 -66 -2 -75 -1 -70 13 4 9 2 16 -3 16 -6 0
-10 -7 -10 -15z"/>
<path d="M14334 5720 c1 -36 20 -34 24 3 2 18 -1 27 -11 27 -9 0 -14 -10 -13
-30z"/>
<path d="M447 5734 c-4 -4 -3 -12 1 -18 4 -6 7 -47 7 -91 0 -63 3 -80 15 -83
13 -2 15 13 12 98 -2 72 -7 100 -16 100 -7 0 -16 -3 -19 -6z"/>
<path d="M1200 5720 c0 -13 7 -20 20 -20 11 0 20 -7 20 -15 0 -8 5 -15 10 -15
6 0 10 7 10 15 0 9 9 15 23 15 16 0 23 6 24 20 2 18 -4 20 -53 20 -47 0 -54
-2 -54 -20z m90 0 c0 -5 -16 -10 -35 -10 -19 0 -35 5 -35 10 0 6 16 10 35 10
19 0 35 -4 35 -10z"/>
<path d="M6785 5730 l-40 -6 38 -5 c20 -3 42 -2 48 2 18 11 -3 15 -46 9z"/>
<path d="M6938 5695 c-15 -25 -42 -54 -60 -65 -19 -11 -26 -20 -17 -20 9 0 31
16 50 36 19 20 44 47 55 60 20 20 21 35 5 34 -3 0 -18 -21 -33 -45z"/>
<path d="M7579 5728 c-6 -72 -2 -168 6 -168 6 0 9 20 6 47 -2 36 1 50 15 60
17 13 17 13 0 13 -15 0 -17 5 -12 30 3 17 1 30 -4 30 -6 0 -10 -6 -11 -12z"/>
<path d="M13731 5731 c-11 -7 -11 -9 0 -13 10 -3 10 -17 3 -59 -8 -51 -11 -54
-37 -54 -26 1 -27 0 -11 -12 24 -18 31 -16 45 8 13 26 28 128 19 134 -3 2 -12
0 -19 -4z"/>
<path d="M14048 5733 c6 -2 12 -11 12 -19 0 -8 4 -14 9 -14 5 0 14 -15 21 -34
12 -37 46 -73 57 -62 5 4 0 12 -10 17 -19 11 -57 80 -57 104 0 9 -9 15 -22 14
-13 0 -17 -3 -10 -6z"/>
<path d="M2839 5721 c8 -5 11 -16 6 -31 -5 -16 -3 -21 5 -18 7 2 14 16 16 31
2 22 -1 27 -19 27 -16 0 -18 -3 -8 -9z"/>
<path d="M5046 5640 c3 -101 6 -110 37 -109 22 0 22 0 -1 10 -22 8 -23 13 -20
99 2 62 0 90 -8 90 -8 0 -11 -28 -8 -90z"/>
<path d="M12710 5705 c13 -14 26 -23 28 -20 7 7 -29 45 -41 45 -6 0 0 -11 13
-25z"/>
<path d="M13626 5715 c11 -27 -5 -63 -44 -101 -23 -23 -29 -32 -15 -25 29 15
69 68 77 103 4 19 14 28 34 31 19 3 15 4 -15 6 -34 1 -41 -2 -37 -14z"/>
<path d="M6135 5705 c-17 -14 -18 -17 -3 -31 14 -14 16 -13 20 15 2 17 4 31 4
31 -1 0 -10 -7 -21 -15z"/>
<path d="M7140 5668 l0 -53 67 2 c40 2 60 -1 50 -5 -17 -7 -17 -9 5 -19 23
-10 23 -10 23 58 l0 69 -72 0 -73 0 0 -52z m126 2 l0 -40 -57 0 c-54 0 -58 2
-56 23 0 12 6 25 12 29 6 5 6 8 -2 8 -7 0 -13 5 -13 10 0 6 26 10 58 10 l58 0
0 -40z"/>
<path d="M7203 5683 c9 -2 25 -2 35 0 9 3 1 5 -18 5 -19 0 -27 -2 -17 -5z"/>
<path d="M9421 5716 c12 -10 60 -16 54 -6 -3 5 -18 10 -32 10 -15 0 -24 -2
-22 -4z"/>
<path d="M11018 5713 c7 -3 16 -2 19 1 4 3 -2 6 -13 5 -11 0 -14 -3 -6 -6z"/>
<path d="M3185 5699 c-11 -4 -14 -8 -7 -8 7 -1 12 -16 12 -41 l0 -40 -55 0
c-70 0 -72 18 -2 23 l52 3 -52 2 c-49 2 -53 4 -53 26 0 22 5 25 43 29 39 4 39
4 -7 3 l-49 -1 0 -49 0 -49 69 1 c42 1 62 -2 50 -7 -19 -7 -19 -8 -1 -14 10
-4 20 -6 22 -3 2 2 3 33 1 68 -3 61 -4 65 -23 57z"/>
<path d="M4690 5658 l0 -53 75 0 75 0 0 53 0 52 -75 0 -75 0 0 -52z m130 32
c0 -5 -10 -11 -22 -11 l-23 -2 23 -4 c15 -3 22 -11 22 -29 0 -23 -3 -24 -58
-24 -63 0 -61 -3 -53 68 1 15 111 17 111 2z"/>
<path d="M8481 5681 c26 -35 29 -37 29 -17 0 7 -12 21 -26 31 l-26 17 23 -31z"/>
<path d="M13420 5700 l-45 -7 53 -1 c29 -1 52 2 52 8 0 6 -3 9 -7 8 -5 0 -28
-4 -53 -8z"/>
<path d="M14117 5696 c-4 -10 -1 -13 9 -9 7 3 14 9 14 14 0 14 -17 10 -23 -5z"/>
<path d="M5404 5685 c-10 -25 22 -53 44 -39 9 6 17 20 17 30 0 25 -52 33 -61
9z m56 -10 c0 -9 -7 -18 -16 -22 -18 -7 -39 11 -30 26 11 17 46 13 46 -4z"/>
<path d="M14016 5693 c-3 -3 -6 -14 -6 -23 0 -9 -11 -29 -25 -44 -13 -14 -21
-26 -16 -26 10 0 46 40 60 67 10 21 1 40 -13 26z"/>
<path d="M1323 5678 c-21 -28 -24 -38 -10 -38 8 0 17 10 20 22 7 27 3 33 -10
16z"/>
<path d="M1903 5650 c2 -35 4 -38 15 -23 15 21 12 55 -5 60 -7 3 -11 -10 -10
-37z"/>
<path d="M2880 5665 c0 -17 -8 -29 -22 -35 -21 -9 -21 -10 -3 -9 46 3 64 -2
61 -13 -3 -7 -7 -25 -10 -40 -5 -20 -13 -28 -29 -28 -20 -1 -21 -1 -4 -11 24
-14 36 -3 47 42 4 19 9 41 11 49 3 9 -4 14 -16 15 -16 0 -19 6 -17 28 1 15 -2
27 -8 27 -5 0 -10 -11 -10 -25z"/>
<path d="M4462 5659 c12 -16 24 -25 26 -19 4 12 -26 50 -40 50 -5 0 2 -14 14
-31z"/>
<path d="M5211 5653 c22 -45 29 -52 29 -29 0 8 -11 28 -25 43 l-24 28 20 -42z"/>
<path d="M6818 5683 c7 -3 16 -2 19 1 4 3 -2 6 -13 5 -11 0 -14 -3 -6 -6z"/>
<path d="M6966 5650 c-14 -22 -45 -54 -68 -70 -22 -17 -37 -30 -33 -30 4 0 23
11 41 25 41 31 42 31 76 -2 15 -15 28 -22 28 -15 0 6 -14 21 -30 34 l-30 22
31 32 c17 17 26 34 21 38 -5 3 -21 -12 -36 -34z"/>
<path d="M7640 5680 c-12 -8 -11 -10 8 -10 12 0 22 5 22 10 0 13 -11 13 -30 0z"/>
<path d="M8791 5654 c-7 -19 -28 -51 -47 -69 -19 -19 -31 -35 -25 -35 15 0 80
78 87 105 10 40 -1 39 -15 -1z"/>
<path d="M9420 5681 c0 -5 5 -13 10 -16 6 -3 10 -2 10 4 0 5 -4 13 -10 16 -5
3 -10 2 -10 -4z"/>
<path d="M1168 5673 c7 -3 16 -2 19 1 4 3 -2 6 -13 5 -11 0 -14 -3 -6 -6z"/>
<path d="M7523 5673 c9 -2 23 -2 30 0 6 3 -1 5 -18 5 -16 0 -22 -2 -12 -5z"/>
<path d="M13882 5639 c-12 -47 0 -41 16 9 6 17 7 32 3 32 -5 0 -13 -19 -19
-41z"/>
<path d="M13961 5675 c1 -19 18 -51 18 -35 0 8 -4 22 -9 30 -5 8 -9 11 -9 5z"/>
<path d="M14062 5660 c0 -14 2 -19 5 -12 2 6 2 18 0 25 -3 6 -5 1 -5 -13z"/>
<path d="M3570 5653 c-9 -10 -26 -33 -38 -50 -22 -32 -22 -33 -3 -33 14 0 19
5 15 15 -3 8 6 26 21 41 14 14 25 30 23 36 -2 5 -10 1 -18 -9z"/>
<path d="M9103 5653 c21 -5 21 -13 3 -39 -14 -18 -15 -18 -25 6 -6 16 -10 19
-10 8 -1 -9 4 -20 9 -23 8 -5 7 -11 -1 -21 -10 -12 -9 -13 4 -8 15 5 57 63 57
78 0 3 -12 5 -27 5 -17 -1 -21 -3 -10 -6z"/>
<path d="M9980 5650 l-55 -7 58 -1 c52 -2 57 -4 57 -25 0 -13 -5 -28 -11 -34
-7 -7 -6 -12 5 -16 13 -5 16 1 16 27 0 19 3 41 6 50 4 10 1 15 -7 14 -8 -1
-39 -4 -69 -8z"/>
<path d="M1181 5618 c2 -28 2 -29 6 -8 3 14 10 28 17 32 7 5 5 8 -6 8 -14 0
-18 -8 -17 -32z"/>
<path d="M4972 5625 c-7 -15 -11 -30 -8 -32 7 -7 28 36 24 49 -2 6 -9 -2 -16
-17z"/>
<path d="M6513 5643 c9 -2 25 -2 35 0 9 3 1 5 -18 5 -19 0 -27 -2 -17 -5z"/>
<path d="M6648 5643 c27 -11 7 -75 -27 -85 -12 -3 -12 -6 2 -11 20 -8 42 22
51 71 5 28 3 32 -17 31 -12 0 -16 -3 -9 -6z"/>
<path d="M8990 5631 c0 -11 -3 -28 -6 -38 -4 -14 -4 -15 4 -3 17 27 24 60 13
60 -6 0 -11 -9 -11 -19z"/>
<path d="M6750 5588 c0 -28 3 -48 8 -44 4 4 7 24 7 44 0 33 3 37 25 37 20 0
26 -6 28 -27 3 -21 -1 -27 -20 -30 -22 -3 -22 -4 4 -9 25 -6 26 -4 30 38 l3
43 -42 0 -43 0 0 -52z"/>
<path d="M11070 5622 c6 -13 14 -21 18 -18 3 4 -2 14 -12 24 -18 16 -18 16 -6
-6z"/>
<path d="M11116 5625 c4 -8 8 -15 10 -15 2 0 4 7 4 15 0 8 -4 15 -10 15 -5 0
-7 -7 -4 -15z"/>
<path d="M1220 5603 c0 -20 5 -23 35 -23 30 0 35 3 35 23 0 20 -5 23 -35 23
-29 -1 -35 -5 -35 -23z m50 -3 c0 -5 -9 -10 -20 -10 -11 0 -20 5 -20 10 0 6 9
10 20 10 11 0 20 -4 20 -10z"/>
<path d="M1316 5621 c-4 -5 -3 -16 0 -24 3 -8 0 -18 -5 -22 -12 -7 -5 -25 10
-25 5 0 8 18 7 40 -1 42 -3 46 -12 31z"/>
<path d="M6170 5623 c0 -6 -13 -16 -30 -22 -38 -13 -38 -21 -1 -21 21 0 32 6
36 21 4 11 4 23 1 26 -3 4 -6 2 -6 -4z"/>
<path d="M9891 5600 l-1 -35 48 5 47 5 -42 3 c-37 3 -42 6 -46 30 -3 23 -4 21
-6 -8z"/>
<path d="M11027 5609 c4 -13 8 -18 11 -10 2 7 -1 18 -6 23 -8 8 -9 4 -5 -13z"/>
<path d="M6570 5602 c6 -13 14 -21 18 -18 3 4 -2 14 -12 24 -18 16 -18 16 -6
-6z"/>
<path d="M6610 5605 c7 -9 15 -13 17 -11 7 7 -7 26 -19 26 -6 0 -6 -6 2 -15z"/>
<path d="M10960 5605 c-7 -9 -11 -18 -8 -20 3 -3 11 1 18 10 7 9 11 18 8 20
-3 3 -11 -1 -18 -10z"/>
<path d="M14055 5610 c-3 -5 -13 -6 -23 -3 -15 6 -15 5 -3 -10 18 -22 28 -21
34 3 5 21 2 26 -8 10z"/>
<path d="M2690 5580 c-8 -19 -15 -39 -18 -45 -2 -5 6 5 18 22 12 18 20 38 18
45 -3 7 -11 -3 -18 -22z"/>
<path d="M2870 5590 c6 -11 13 -20 16 -20 2 0 0 9 -6 20 -6 11 -13 20 -16 20
-2 0 0 -9 6 -20z"/>
<path d="M6427 5584 c-13 -18 -14 -22 -3 -18 8 3 17 13 20 21 10 25 3 23 -17
-3z"/>
<path d="M6462 5589 c-7 -11 -11 -23 -9 -25 7 -7 29 24 25 36 -2 6 -9 1 -16
-11z"/>
<path d="M7150 5594 l-25 -15 25 5 c14 3 31 6 38 6 6 0 12 5 12 10 0 14 -21
12 -50 -6z"/>
<path d="M2771 5593 c0 -4 4 -17 9 -28 8 -19 9 -19 9 2 1 12 -3 25 -9 28 -5 3
-10 3 -9 -2z"/>
<path d="M4705 5584 c-26 -13 -27 -14 -5 -10 14 3 31 6 38 6 6 0 12 5 12 10 0
13 -8 12 -45 -6z"/>
<path d="M4810 5585 c33 -19 50 -18 26 0 -11 8 -27 15 -35 15 -10 -1 -7 -6 9
-15z"/>
<path d="M2831 5574 c0 -11 3 -14 6 -6 3 7 2 16 -1 19 -3 4 -6 -2 -5 -13z"/>
<path d="M3090 5580 c-13 -8 -13 -10 2 -10 9 0 20 5 23 10 8 13 -5 13 -25 0z"/>
<path d="M5171 5576 c-1 -10 -9 -25 -18 -32 -16 -12 -16 -13 6 -9 32 6 33 8
22 36 -8 20 -10 20 -10 5z"/>
<path d="M1180 5557 c0 -14 3 -17 13 -10 6 6 19 12 27 15 9 3 4 7 -12 10 -23
4 -28 2 -28 -15z"/>
<path d="M2715 5560 c-10 -11 -13 -20 -8 -20 13 0 38 29 31 35 -3 3 -13 -4
-23 -15z"/>
<path d="M7660 5570 c0 -5 7 -10 16 -10 8 0 12 5 9 10 -3 6 -10 10 -16 10 -5
0 -9 -4 -9 -10z"/>
<path d="M570 5560 c0 -5 5 -10 10 -10 6 0 10 5 10 10 0 6 -4 10 -10 10 -5 0
-10 -4 -10 -10z"/>
<path d="M1245 5560 c3 -5 8 -10 11 -10 2 0 4 5 4 10 0 6 -5 10 -11 10 -5 0
-7 -4 -4 -10z"/>
<path d="M7193 5563 c9 -2 23 -2 30 0 6 3 -1 5 -18 5 -16 0 -22 -2 -12 -5z"/>
<path d="M3188 5543 c6 -2 18 -2 25 0 6 3 1 5 -13 5 -14 0 -19 -2 -12 -5z"/>
<path d="M1368 5218 c-3 -121 -3 -122 -28 -129 -24 -7 -19 -10 23 -13 9 -1 13
34 17 132 3 72 2 132 -2 132 -4 0 -9 -55 -10 -122z"/>
<path d="M1140 5235 c0 -80 2 -93 15 -89 8 4 12 11 8 18 -4 6 -8 30 -9 54 -1
42 -1 42 35 43 l36 2 -34 6 c-38 7 -52 27 -26 37 13 5 14 8 3 15 -25 16 -28 8
-28 -86z"/>
<path d="M1215 5320 c-29 -7 -29 -8 -4 -9 25 -1 26 -3 27 -71 2 -65 0 -71 -20
-80 l-23 -9 23 0 c12 -1 25 -2 28 -3 3 -2 7 39 8 90 0 50 -1 91 -4 91 -3 -1
-18 -5 -35 -9z"/>
<path d="M2170 5298 c-40 -27 -60 -61 -60 -103 0 -38 25 -75 50 -75 17 0 17 2
-5 25 -28 27 -29 35 -15 87 20 71 109 107 130 53 12 -33 20 -32 20 3 0 26 -3
28 -43 30 -31 2 -53 -4 -77 -20z"/>
<path d="M2395 5311 c-53 -22 -91 -106 -71 -155 16 -40 39 -48 24 -9 -16 42
-2 101 32 135 49 48 100 33 100 -30 0 -39 -13 -66 -48 -104 -34 -37 -9 -36 28
0 38 38 55 103 38 140 -10 21 -21 27 -48 29 -19 1 -44 -2 -55 -6z"/>
<path d="M1301 5223 c1 -100 6 -93 11 15 2 39 0 72 -4 72 -4 0 -7 -39 -7 -87z"/>
<path d="M1750 5218 c-47 -49 -86 -94 -88 -99 -2 -5 36 -9 87 -9 59 0 91 4 91
11 0 7 -23 9 -69 5 -39 -3 -72 -3 -74 2 -3 4 30 45 74 91 43 46 79 86 79 88 0
12 -26 -10 -100 -89z"/>
<path d="M2024 5272 c-17 -20 -37 -48 -44 -62 -7 -14 -16 -27 -19 -30 -3 -3
-18 -19 -33 -36 -26 -28 -26 -30 -8 -31 13 -1 20 4 20 16 0 25 32 51 63 51 29
0 35 -17 17 -49 -8 -15 -5 -18 13 -18 21 0 22 3 23 98 1 55 1 99 0 99 -1 0
-15 -17 -32 -38z m6 -47 c0 -31 -3 -35 -25 -35 l-25 0 22 35 c13 19 24 35 26
35 1 0 2 -16 2 -35z"/>
<path d="M2643 5223 c20 -2 54 -2 75 0 20 2 3 4 -38 4 -41 0 -58 -2 -37 -4z"/>
<path d="M2610 5169 c0 -10 136 -6 148 5 3 3 -29 6 -71 6 -48 0 -77 -4 -77
-11z"/>
<path d="M2241 5140 c-13 -11 -19 -20 -14 -20 6 0 18 9 28 20 23 25 17 25 -14
0z"/>
<path d="M11255 5150 c-60 -4 -135 -13 -165 -19 -30 -6 -80 -16 -110 -22 -246
-48 -544 -177 -785 -340 -130 -88 -164 -117 -320 -274 -174 -175 -202 -206
-266 -300 -223 -324 -362 -674 -409 -1032 -33 -248 -24 -564 21 -768 16 -68
73 -268 97 -335 72 -201 218 -443 362 -601 187 -204 366 -349 545 -440 33 -17
79 -41 101 -53 39 -21 156 -71 266 -111 25 -9 108 -30 185 -45 133 -27 136
-28 78 -30 -64 -2 -1278 -9 -1702 -10 -167 0 -253 -4 -253 -10 0 -10 3159 -5
3535 5 83 2 351 4 598 5 332 0 447 3 447 12 0 10 -763 8 -1790 -6 -63 0 -135
1 -160 4 -42 5 -38 7 56 22 92 16 209 49 359 100 170 59 487 248 662 394 137
115 368 373 417 464 10 19 35 60 55 90 20 30 69 120 108 200 248 503 313 1012
195 1515 -22 94 -48 190 -58 215 -74 191 -154 355 -221 456 -16 23 -41 61 -58
85 -84 125 -301 355 -395 421 -19 13 -61 42 -92 66 -31 23 -59 42 -62 42 -2 0
-35 19 -72 42 -38 23 -112 61 -164 83 -53 23 -105 47 -117 53 -77 42 -400 110
-573 123 -137 9 -154 9 -315 -1z m405 -26 c95 -11 281 -52 390 -88 94 -30 146
-51 260 -104 124 -58 304 -181 439 -301 177 -158 380 -438 467 -643 13 -32 35
-81 48 -110 50 -112 109 -321 104 -366 -3 -24 -12 -27 -154 -62 -83 -21 -177
-45 -210 -55 -32 -9 -66 -18 -74 -20 -46 -10 -377 -89 -515 -124 -88 -22 -182
-45 -210 -51 -27 -7 -79 -20 -115 -31 -76 -22 -363 -90 -365 -86 -1 1 -10 25
-20 52 -26 73 -121 176 -192 210 -104 49 -142 58 -219 51 -83 -6 -203 -56
-243 -100 -14 -14 -27 -26 -31 -26 -9 0 -91 72 -195 171 -196 187 -462 435
-690 644 -132 121 -259 237 -282 259 -24 22 -43 45 -43 52 0 13 146 161 234
237 110 95 385 266 493 307 27 10 78 32 114 48 103 47 352 112 509 132 143 18
353 20 500 4z m-1829 -865 c58 -163 61 -173 69 -184 4 -5 23 -55 43 -110 30
-86 48 -131 98 -250 4 -11 19 -51 33 -90 13 -38 52 -140 86 -225 59 -148 87
-218 132 -340 12 -30 30 -75 41 -99 10 -25 34 -86 52 -135 18 -50 43 -113 55
-141 12 -27 37 -93 55 -145 17 -52 46 -126 64 -164 17 -38 40 -97 51 -132 10
-35 28 -85 38 -111 11 -26 34 -86 52 -133 18 -47 39 -101 48 -120 8 -19 41
-102 73 -185 79 -206 136 -350 164 -410 12 -28 30 -73 40 -100 9 -28 31 -88
50 -135 18 -47 47 -120 64 -164 17 -43 31 -83 31 -89 0 -22 -292 9 -466 48
-244 56 -576 229 -799 415 -126 106 -309 317 -403 465 -52 83 -159 314 -185
400 -9 28 -25 80 -36 118 -53 169 -81 379 -81 594 0 143 3 191 25 373 23 183
119 475 226 685 95 187 303 482 333 472 5 -2 26 -50 47 -108z m124 -35 c72
-70 259 -241 302 -275 23 -19 42 -37 42 -41 1 -11 -64 -100 -88 -120 -21 -18
-142 -80 -146 -76 -7 8 -55 120 -55 128 0 6 -5 18 -10 28 -6 9 -23 53 -39 97
-16 44 -52 140 -80 214 -28 74 -51 141 -51 149 0 14 31 -12 125 -104z m482
-442 c172 -164 254 -242 384 -363 68 -64 184 -172 257 -240 73 -68 157 -146
186 -172 l54 -48 133 31 c74 17 154 37 179 44 25 8 108 29 185 46 77 18 187
45 245 61 58 15 175 44 260 63 85 20 166 40 180 45 14 5 88 24 165 41 77 18
185 45 240 60 55 15 154 40 220 54 66 15 135 33 153 41 54 25 80 15 49 -17 -7
-7 -46 -53 -87 -102 -67 -79 -110 -132 -215 -266 -41 -51 -178 -220 -201 -246
-11 -12 -53 -64 -94 -115 -41 -51 -91 -111 -111 -133 -32 -37 -173 -212 -274
-342 -34 -44 -190 -236 -242 -299 -10 -11 -38 -45 -63 -76 -25 -31 -61 -76
-81 -100 -20 -24 -96 -118 -169 -209 -73 -91 -138 -169 -144 -175 -7 -5 -30
-33 -51 -61 -22 -29 -85 -105 -140 -170 -55 -66 -112 -135 -127 -156 -15 -20
-33 -42 -40 -50 -7 -7 -29 -34 -48 -60 -19 -26 -40 -48 -47 -48 -6 0 -18 19
-26 43 -26 71 -128 340 -142 372 -25 54 -146 359 -172 430 -14 39 -34 89 -44
113 -11 23 -33 79 -50 125 -16 45 -39 101 -49 124 -11 24 -20 46 -20 50 0 5
-6 19 -13 33 -7 14 -26 66 -42 115 -15 50 -38 113 -50 140 -28 63 -75 181 -75
189 0 6 -56 151 -170 441 -32 83 -75 193 -95 245 -20 52 -68 173 -106 269 -38
95 -69 175 -69 177 0 3 30 19 66 36 47 22 81 49 122 94 31 35 62 63 67 63 6 1
56 -43 112 -97z m2964 -389 c18 -88 18 -504 0 -618 -62 -389 -243 -816 -475
-1119 -55 -72 -225 -261 -251 -278 -5 -3 -23 -18 -40 -33 -45 -40 -243 -187
-305 -227 -115 -74 -338 -178 -487 -227 -174 -58 -338 -89 -522 -98 l-125 -6
92 114 c116 143 173 213 290 353 51 61 163 199 250 306 86 107 169 209 183
225 30 34 119 142 194 236 28 34 77 95 110 134 33 40 83 103 110 140 93 124
146 188 222 273 23 26 57 66 75 89 68 85 234 290 286 353 74 90 82 99 121 150
19 25 41 51 48 58 7 8 26 30 41 50 15 20 34 44 42 53 8 9 37 44 64 78 28 33
53 61 56 61 4 0 13 -30 21 -67z m-1914 -57 c102 -53 212 -180 213 -246 0 -18
-36 -29 -318 -94 l-64 -15 -139 131 c-76 72 -139 135 -139 140 0 11 60 68 72
68 4 0 31 11 60 24 29 13 60 27 68 30 8 3 51 4 96 2 69 -3 90 -9 151 -40z"/>
<path d="M11279 3676 c-2 -2 -3 -47 -1 -100 3 -90 5 -96 25 -96 16 0 18 3 9
12 -8 8 -12 45 -12 100 0 77 -5 99 -21 84z"/>
<path d="M11396 3664 c-23 -22 -20 -40 3 -20 36 33 80 3 68 -46 -4 -14 -19
-39 -34 -55 -62 -66 -62 -63 6 -63 33 0 61 4 61 10 0 5 -13 7 -30 4 -16 -4
-37 -3 -47 1 -16 6 -14 10 13 33 33 28 64 80 64 106 0 19 -38 46 -67 46 -12 0
-29 -7 -37 -16z"/>
<path d="M11576 3611 c-25 -38 -46 -71 -46 -74 0 -3 19 -7 43 -9 35 -2 43 -7
45 -25 5 -31 22 -29 22 2 0 14 5 25 12 25 9 0 9 3 0 12 -7 7 -12 39 -12 75 0
35 -4 63 -9 63 -5 0 -30 -31 -55 -69z m44 -21 c0 -34 -4 -41 -26 -46 -14 -4
-29 -3 -34 2 -11 11 40 95 52 88 4 -3 8 -23 8 -44z"/>
<path d="M11711 3666 c-15 -18 -11 -58 7 -64 11 -3 11 -1 0 17 -11 17 -10 23
4 37 20 20 58 10 58 -16 0 -11 -8 -24 -17 -30 -11 -7 -12 -10 -4 -7 24 6 37
35 25 55 -14 22 -57 27 -73 8z"/>
<path d="M11272 2860 c-33 -20 -68 -68 -78 -108 -10 -35 14 -80 45 -87 111
-24 208 166 105 205 -33 13 -34 13 -72 -10z m69 0 c39 -21 17 -127 -36 -168
-50 -40 -87 -21 -87 43 0 55 52 125 100 134 2 1 12 -4 23 -9z"/>
<path d="M1151 5104 c-29 -34 -21 -41 9 -9 13 14 21 27 18 30 -2 3 -15 -7 -27
-21z"/>
<path d="M1230 5124 c0 -5 7 -18 15 -28 12 -16 15 -17 15 -4 0 8 -7 21 -15 28
-8 7 -15 9 -15 4z"/>
<path d="M9633 4622 c-91 -50 -106 -149 -28 -187 30 -13 38 -14 67 -2 l33 14
-46 -4 c-40 -5 -48 -2 -63 18 -30 43 -13 106 40 148 40 32 72 27 89 -11 8 -18
14 -26 15 -18 0 8 3 24 6 35 4 17 0 20 -38 22 -27 2 -56 -4 -75 -15z"/>
<path d="M2939 4511 l-24 -20 42 6 c34 4 44 2 49 -11 9 -24 -3 -61 -32 -95
-14 -17 -21 -31 -15 -31 19 0 71 82 71 110 0 48 -53 72 -91 41z"/>
<path d="M3160 4522 c-54 -24 -80 -62 -80 -119 0 -75 53 -108 98 -60 43 46 14
115 -42 101 -14 -3 -26 -3 -26 0 0 18 38 60 65 72 16 7 23 13 15 13 -8 0 -22
-3 -30 -7z m10 -117 c14 -37 -4 -77 -32 -73 -24 3 -45 54 -35 82 10 26 56 20
67 -9z"/>
<path d="M3246 4514 c-38 -38 5 -88 58 -68 23 9 21 61 -3 74 -27 14 -37 13
-55 -6z m59 -28 c0 -29 -31 -44 -50 -25 -23 23 -9 51 24 47 18 -2 26 -9 26
-22z"/>
<path d="M2040 4433 c-17 -43 -38 -88 -46 -100 -14 -22 -13 -23 11 -23 16 0
24 4 20 11 -4 5 -4 21 -1 35 6 23 11 25 49 22 40 -3 42 -4 42 -35 0 -29 3 -33
27 -33 31 0 33 3 18 28 -6 9 -24 51 -40 92 -15 41 -33 76 -38 78 -5 1 -24 -32
-42 -75z m50 1 c15 -39 13 -44 -20 -44 -16 0 -30 2 -30 4 0 15 24 66 31 66 5
0 14 -12 19 -26z"/>
<path d="M3615 4440 c-3 -5 -1 -10 4 -10 6 0 11 5 11 10 0 6 -2 10 -4 10 -3 0
-8 -4 -11 -10z"/>
<path d="M3648 4424 c4 -24 2 -26 -17 -21 -11 3 -21 1 -21 -4 0 -5 11 -9 25
-9 31 0 43 26 23 47 -14 13 -15 12 -10 -13z"/>
<path d="M2925 4341 c-16 -15 2 -22 52 -19 74 4 80 23 8 24 -31 0 -58 -2 -60
-5z"/>
<path d="M2213 4328 c2 -7 7 -13 12 -13 5 0 10 6 13 13 2 6 -4 12 -13 12 -9 0
-15 -6 -12 -12z"/>
<path d="M2936 3754 c-20 -19 -21 -31 -2 -15 8 7 27 11 43 9 23 -2 29 -8 31
-34 2 -25 -6 -43 -43 -88 l-46 -57 57 3 c32 2 59 8 61 13 2 7 -12 9 -37 7 -22
-2 -40 -1 -40 3 0 4 16 25 35 46 37 41 47 93 23 117 -17 17 -64 15 -82 -4z"/>
<path d="M3102 3758 c-15 -15 -15 -43 -1 -66 9 -14 8 -25 -4 -48 -13 -26 -13
-33 -1 -57 16 -30 30 -33 69 -15 37 16 43 53 15 83 -22 23 -22 26 -7 43 21 23
22 58 1 66 -25 10 -59 7 -72 -6z m65 -14 c7 -18 -7 -46 -25 -52 -13 -4 -27 42
-17 57 10 17 35 13 42 -5z m-15 -101 c23 -20 23 -59 1 -67 -29 -12 -51 30 -37
68 8 20 13 20 36 -1z"/>
<path d="M3241 3756 c-28 -34 20 -87 60 -66 15 9 19 19 17 43 -3 28 -7 32 -34
35 -18 2 -36 -3 -43 -12z m59 -11 c17 -20 5 -45 -20 -45 -23 0 -35 22 -26 45
7 19 30 19 46 0z"/>
<path d="M1998 3753 c15 -6 17 -174 2 -189 -6 -6 16 -7 60 -4 72 5 84 11 94
47 5 15 0 27 -14 41 -14 13 -18 22 -11 27 15 9 14 58 -1 73 -7 7 -39 12 -77
11 -37 0 -60 -3 -53 -6z m106 -22 c23 -25 13 -61 -17 -61 -21 -1 -20 -2 4 -15
54 -30 44 -85 -16 -85 -29 0 -35 4 -35 23 -1 12 -3 45 -5 72 -2 28 -2 58 1 68
7 23 46 22 68 -2z"/>
<path d="M3614 3660 c1 -32 31 -38 46 -10 9 17 9 25 0 34 -9 8 -11 7 -10 -4 4
-28 0 -40 -14 -40 -8 0 -17 10 -19 23 -3 19 -4 19 -3 -3z"/>
<path d="M13530 3669 c0 -25 -27 -127 -40 -151 -15 -26 -13 -28 22 -28 29 0
30 1 14 13 -18 13 -18 15 3 62 11 26 21 57 21 69 0 35 15 49 44 42 34 -8 34
-38 1 -64 -21 -16 -22 -21 -9 -26 23 -9 14 -59 -13 -71 -13 -5 -23 -13 -23
-17 0 -10 3 -10 35 2 34 13 47 48 29 77 -13 20 -12 24 6 35 22 14 26 48 8 66
-7 7 -31 12 -55 12 -37 0 -43 -3 -43 -21z"/>
<path d="M2210 3570 c0 -5 5 -10 10 -10 6 0 10 5 10 10 0 6 -4 10 -10 10 -5 0
-10 -4 -10 -10z"/>
<path d="M3240 3000 c-11 -11 -20 -24 -20 -29 0 -16 30 -41 49 -41 40 0 57 61
22 80 -26 13 -28 13 -51 -10z m57 -20 c5 -26 -13 -43 -36 -35 -20 6 -28 34
-14 49 12 12 48 2 50 -14z"/>
<path d="M2053 2998 c-75 -20 -86 -155 -16 -187 41 -19 78 -13 104 16 l24 27
-29 -22 c-37 -28 -61 -28 -91 3 -30 29 -34 97 -9 133 21 31 85 31 108 0 l17
-23 -7 25 c-4 14 -7 25 -8 26 -9 8 -68 9 -93 2z"/>
<path d="M2932 2998 c-7 -7 -12 -16 -12 -22 0 -6 5 -5 12 2 17 17 55 15 62 -4
4 -9 0 -27 -8 -39 -13 -20 -13 -24 5 -42 17 -16 18 -24 9 -48 -9 -24 -9 -26 4
-16 22 18 25 47 9 78 -11 22 -12 32 -2 50 9 18 9 26 -1 38 -15 18 -61 20 -78
3z"/>
<path d="M3110 3000 c-11 -7 -12 -10 -2 -10 10 0 13 -21 10 -90 -3 -88 -2 -90
20 -90 20 0 21 3 12 21 -7 12 -10 53 -9 97 4 76 -3 90 -31 72z"/>
<path d="M3576 2921 c-4 -5 -3 -17 0 -26 10 -25 58 -16 62 13 2 12 -1 22 -6
22 -6 0 -8 -9 -5 -21 5 -17 2 -20 -18 -17 -16 2 -24 9 -23 21 2 19 -2 22 -10
8z"/>
<path d="M2206 2823 c-11 -11 -6 -23 9 -23 8 0 15 4 15 9 0 13 -16 22 -24 14z"/>
<path d="M2920 2822 c0 -15 32 -24 44 -12 7 7 7 10 -1 10 -6 0 -18 3 -27 6 -9
3 -16 2 -16 -4z"/>
<path d="M3247 2258 c-10 -5 -17 -21 -17 -38 0 -23 5 -31 25 -36 40 -10 57 2
53 37 -3 35 -33 53 -61 37z m51 -34 c3 -23 -18 -37 -43 -28 -16 6 -20 35 -8
48 14 14 48 1 51 -20z"/>
<path d="M2936 2244 c-20 -20 -21 -30 -1 -14 21 17 65 4 65 -19 0 -10 -7 -24
-15 -31 -12 -10 -12 -15 5 -33 24 -25 25 -36 5 -65 -15 -20 -15 -21 0 -16 28
11 37 52 21 86 -12 22 -13 35 -4 53 21 46 -39 76 -76 39z"/>
<path d="M3143 2245 c-24 -27 -73 -109 -73 -122 0 -9 14 -13 40 -13 36 0 40
-2 40 -25 0 -14 5 -25 10 -25 6 0 10 9 10 20 0 11 7 23 15 26 8 4 15 10 15 15
0 5 -7 9 -15 9 -12 0 -15 14 -15 65 0 66 -5 75 -27 50z m7 -70 c0 -43 -1 -45
-30 -45 -16 0 -30 5 -30 10 0 14 43 80 53 80 4 0 7 -20 7 -45z"/>
<path d="M2005 2150 l0 -100 55 0 c43 0 62 5 85 24 27 22 30 30 30 79 0 74
-25 96 -110 97 l-60 0 0 -100z m101 84 c26 -7 44 -43 44 -90 0 -45 -37 -84
-80 -84 l-30 0 0 90 c0 87 1 90 23 90 12 0 32 -3 43 -6z"/>
<path d="M3582 2170 c-7 -11 -8 -20 -3 -20 5 0 11 7 15 15 9 25 38 18 34 -7
-2 -18 -9 -22 -28 -20 -18 2 -22 0 -13 -9 21 -21 48 -6 48 26 0 37 -33 47 -53
15z"/>
<path d="M2916 2071 c-9 -14 34 -25 47 -12 8 8 8 11 0 11 -6 0 -18 3 -26 6 -8
3 -18 1 -21 -5z"/>
<path d="M2220 2060 c0 -5 7 -10 15 -10 8 0 15 5 15 10 0 6 -7 10 -15 10 -8 0
-15 -4 -15 -10z"/>
<path d="M13467 677 c7 -12 -27 -148 -43 -174 l-14 -23 69 0 c59 0 72 3 81 19
5 11 10 26 9 33 0 7 -5 3 -11 -9 -10 -22 -35 -33 -75 -33 -24 0 -29 21 -17 68
7 24 53 32 55 10 0 -7 4 -4 9 7 13 29 12 41 -2 27 -20 -20 -48 -15 -48 9 0 39
19 59 55 59 19 0 35 -5 35 -11 0 -5 5 -7 11 -3 6 3 7 10 2 14 -11 11 -123 17
-116 7z"/>
<path d="M8809 658 c-1 -2 -3 -12 -4 -23 -2 -11 -8 -40 -15 -65 -6 -25 -14
-56 -17 -70 -3 -14 -11 -29 -17 -33 -6 -5 21 -7 59 -5 54 3 76 8 92 23 79 76
45 175 -61 175 -20 0 -37 -1 -37 -2z m95 -29 c63 -49 1 -159 -90 -159 -13 0
-24 5 -24 11 0 13 40 150 47 162 8 13 40 7 67 -14z"/>
<path d="M11153 616 c-38 -50 -45 -75 -8 -31 25 31 31 23 18 -23 -5 -20 -11
-23 -34 -18 -23 4 -32 0 -51 -27 -12 -18 -27 -35 -33 -39 -5 -4 0 -8 13 -8 15
0 22 6 22 18 0 26 20 42 53 42 27 0 29 -3 25 -30 -3 -23 -1 -30 11 -30 12 0
16 10 15 37 0 21 2 64 6 96 3 31 4 57 1 57 -4 0 -21 -20 -38 -44z"/>
</g>
</svg>
