<?xml version="1.0" standalone="no"?>
<!DOCTYPE svg PUBLIC "-//W3C//DTD SVG 20010904//EN"
 "http://www.w3.org/TR/2001/REC-SVG-20010904/DTD/svg10.dtd">
<svg version="1.0" xmlns="http://www.w3.org/2000/svg"
 width="731.000000pt" height="768.000000pt" viewBox="0 0 731.000000 768.000000"
 preserveAspectRatio="xMidYMid meet">
<metadata>
Created by potrace 1.16, written by Peter Selinger 2001-2019
</metadata>
<g transform="translate(0.000000,768.000000) scale(0.100000,-0.100000)"
fill="#000000" stroke="none">
<path d="M2851 7398 c-1 -45 2 -56 13 -52 25 10 25 -12 0 -39 -27 -29 -22 -37
7 -11 17 15 18 14 17 -15 -1 -17 2 -34 5 -38 4 -3 7 8 7 26 0 21 4 30 11 25 8
-5 8 -1 0 14 -16 29 -14 43 6 40 13 -2 17 7 19 50 2 32 -1 50 -6 47 -6 -4 -10
-17 -10 -31 0 -20 -5 -24 -31 -24 -21 0 -30 4 -26 13 2 6 1 21 -4 32 -5 14 -8
2 -8 -37z m69 -28 c0 -5 -13 -10 -30 -10 -16 0 -30 5 -30 10 0 6 14 10 30 10
17 0 30 -4 30 -10z"/>
<path d="M3160 7440 c-10 -26 -5 -103 6 -107 7 -2 9 8 6 27 -3 21 0 30 9 30
10 0 11 2 3 8 -7 4 -14 18 -16 32 -2 16 -5 20 -8 10z"/>
<path d="M5397 7438 c-15 -5 -24 -14 -21 -20 4 -6 0 -14 -7 -19 -11 -7 -9 -9
8 -9 16 0 20 5 16 20 -4 16 0 20 20 20 14 0 29 5 32 10 8 12 -11 12 -48 -2z"/>
<path d="M5583 7442 c-26 -3 -33 -8 -33 -25 0 -18 6 -22 34 -22 28 0 35 4 39
23 5 27 2 29 -40 24z m27 -22 c0 -5 -11 -10 -25 -10 -14 0 -25 5 -25 10 0 6
11 10 25 10 14 0 25 -4 25 -10z"/>
<path d="M5827 7443 c-4 -3 -7 -11 -7 -17 0 -6 5 -5 12 2 6 6 9 14 7 17 -3 3
-9 2 -12 -2z"/>
<path d="M6296 7433 c-6 -14 -5 -15 5 -6 7 7 10 15 7 18 -3 3 -9 -2 -12 -12z"/>
<path d="M6374 7425 c-3 -13 -12 -29 -20 -36 -8 -6 -14 -17 -14 -23 1 -6 9 -1
19 12 12 14 30 22 50 22 31 0 31 -1 32 -52 1 -62 6 -54 12 17 l4 50 -40 -4
c-36 -3 -39 -2 -32 18 3 11 4 21 1 21 -3 0 -8 -11 -12 -25z"/>
<path d="M6637 7415 c9 -19 19 -33 21 -30 6 6 -21 65 -30 65 -4 0 0 -16 9 -35z"/>
<path d="M6782 7404 c-12 -25 -18 -43 -12 -39 6 4 10 -18 10 -61 0 -37 3 -65
6 -61 3 3 6 38 6 79 0 40 4 84 9 97 16 42 4 32 -19 -15z"/>
<path d="M6867 7436 c-3 -8 -18 -16 -34 -19 l-28 -4 29 -2 c27 -1 28 -2 14
-23 -11 -17 -13 -38 -8 -78 l7 -55 2 53 c1 44 4 52 20 52 17 0 19 -7 16 -60
-1 -33 1 -60 6 -60 5 0 9 27 9 60 0 48 3 60 16 60 13 0 15 -9 12 -45 -2 -25 0
-45 4 -45 5 0 8 23 8 50 0 43 -3 50 -19 50 -11 0 -22 6 -24 13 -4 10 -6 10 -6
0 -1 -7 -10 -13 -21 -13 -17 0 -19 3 -10 19 7 14 23 21 53 24 l42 4 -42 1
c-33 2 -41 5 -37 17 4 8 4 15 1 15 -3 0 -7 -6 -10 -14z"/>
<path d="M1330 7431 c0 -5 -7 -16 -15 -25 -14 -13 -13 -15 4 -13 19 1 38 47
20 47 -5 0 -9 -4 -9 -9z"/>
<path d="M1410 7429 c0 -5 5 -7 10 -4 6 3 10 8 10 11 0 2 -4 4 -10 4 -5 0 -10
-5 -10 -11z"/>
<path d="M1580 7418 c0 -17 -6 -28 -17 -31 -10 -3 -3 -5 15 -6 21 -1 31 -5 26
-12 -3 -6 -17 -9 -30 -6 -13 2 -25 -1 -28 -8 -3 -8 7 -10 32 -6 37 6 61 41 28
41 -9 0 -16 5 -16 10 0 6 7 10 15 10 8 0 15 5 15 11 0 5 -5 7 -11 3 -6 -3 -15
0 -20 7 -6 10 -9 6 -9 -13z"/>
<path d="M1657 7407 c-14 -19 -23 -37 -20 -41 11 -11 91 -7 99 5 3 6 -7 24
-23 41 l-30 29 -26 -34z m51 -7 l23 -30 -46 0 -46 0 21 22 c11 12 20 25 20 30
0 13 5 9 28 -22z"/>
<path d="M1850 7419 c0 -11 5 -17 10 -14 6 3 10 13 10 21 0 8 -4 14 -10 14 -5
0 -10 -9 -10 -21z"/>
<path d="M1920 7421 c0 -11 4 -22 9 -25 4 -3 6 6 3 19 -5 30 -12 33 -12 6z"/>
<path d="M2049 7413 c-1 -16 -3 -52 -5 -81 -1 -30 -1 -52 2 -49 5 5 13 67 13
115 l1 32 80 0 80 0 0 -86 0 -86 -90 4 c-56 2 -90 -1 -90 -7 0 -6 38 -10 94
-10 l95 0 3 98 3 97 -92 0 -93 0 -1 -27z"/>
<path d="M2301 7400 c2 -21 0 -42 -4 -46 -17 -17 -5 -25 13 -9 16 14 17 20 8
27 -8 5 -1 8 20 8 30 0 31 -2 20 -20 -7 -11 -18 -20 -25 -20 -6 0 -14 -4 -17
-9 -4 -5 3 -7 14 -4 14 4 20 0 20 -11 0 -11 -4 -14 -12 -9 -21 13 -37 12 -49
-3 -9 -11 -2 -13 42 -10 30 2 60 0 67 -6 9 -8 12 -1 12 31 0 39 2 41 30 41 28
0 30 -2 30 -40 0 -22 -4 -40 -10 -40 -5 0 -2 -8 8 -18 19 -20 29 -21 16 -1 -4
7 -7 44 -7 83 1 39 -1 61 -4 49 -3 -18 -11 -23 -34 -23 -16 0 -29 5 -29 10 0
6 6 10 14 10 8 0 18 4 21 10 4 6 -5 9 -19 8 -24 -2 -26 -6 -26 -55 0 -41 -3
-51 -14 -47 -20 8 -29 35 -16 48 5 5 10 24 10 42 0 18 6 35 13 37 6 3 -1 6
-18 6 -23 1 -26 -2 -15 -9 11 -7 6 -10 -20 -9 -29 0 -31 2 -15 9 19 8 19 9 -3
9 -21 1 -23 -3 -21 -39z m69 0 c0 -5 -13 -10 -30 -10 -16 0 -30 5 -30 10 0 6
14 10 30 10 17 0 30 -4 30 -10z"/>
<path d="M2436 7432 c-3 -5 8 -6 25 -4 16 2 29 6 29 8 0 8 -49 4 -54 -4z"/>
<path d="M3097 7433 c-4 -3 -7 -20 -7 -36 0 -39 11 -28 14 12 2 34 2 34 -7 24z"/>
<path d="M3630 7408 c0 -18 -3 -44 -6 -58 -6 -24 -5 -24 10 3 15 28 18 87 4
87 -5 0 -8 -15 -8 -32z"/>
<path d="M3818 7419 c-14 -15 -18 -35 -16 -86 1 -42 3 -53 5 -30 3 29 9 37 24
37 19 0 23 -7 21 -47 -1 -13 3 -23 8 -23 6 0 9 32 9 70 -1 63 -3 70 -21 70
-17 0 -18 3 -8 15 18 22 -2 17 -22 -6z m35 -31 c7 -21 -4 -38 -24 -38 -14 0
-19 7 -19 25 0 18 5 25 19 25 11 0 21 -6 24 -12z"/>
<path d="M3906 7424 c-9 -24 -9 -24 33 -24 37 0 40 -2 44 -32 4 -32 4 -32 5 5
2 36 1 37 -34 37 -28 0 -35 3 -30 15 3 8 1 15 -3 15 -5 0 -12 -7 -15 -16z"/>
<path d="M4170 7425 c-11 -13 -8 -15 16 -14 17 1 22 3 11 6 -9 2 -15 9 -12 14
10 15 -1 10 -15 -6z"/>
<path d="M4361 7424 c0 -11 3 -14 6 -6 3 7 2 16 -1 19 -3 4 -6 -2 -5 -13z"/>
<path d="M4420 7424 c0 -8 5 -12 10 -9 6 3 10 10 10 16 0 5 -4 9 -10 9 -5 0
-10 -7 -10 -16z"/>
<path d="M4806 7425 c4 -8 8 -15 10 -15 2 0 4 7 4 15 0 8 -4 15 -10 15 -5 0
-7 -7 -4 -15z"/>
<path d="M4942 7420 c-1 -14 -5 -43 -8 -65 -4 -32 -3 -36 6 -22 6 9 9 39 7 65
-2 26 -4 36 -5 22z"/>
<path d="M5640 7415 c0 -19 4 -23 17 -18 11 4 12 8 5 11 -23 7 -12 22 18 22
31 0 43 -19 13 -21 -10 0 -13 -3 -7 -5 6 -3 9 -16 6 -29 -5 -30 -48 -36 -55
-7 -4 16 -5 16 -6 0 -1 -12 -9 -18 -26 -18 -19 0 -25 5 -25 22 0 33 -13 13
-17 -27 -2 -22 1 -35 8 -35 6 0 9 7 5 15 -4 11 2 15 24 15 22 0 30 -5 33 -22
l4 -23 2 23 c1 16 7 22 26 22 19 0 25 -6 26 -22 1 -13 5 -3 10 22 4 25 11 57
14 73 7 26 6 27 -34 27 -37 0 -41 -2 -41 -25z"/>
<path d="M5900 7421 c0 -15 -8 -21 -32 -24 -18 -2 0 -5 40 -5 40 -1 71 2 68 6
-3 5 -20 7 -37 4 -29 -4 -31 -2 -26 17 3 11 1 21 -4 21 -5 0 -9 -9 -9 -19z"/>
<path d="M6070 7436 c0 -2 7 -7 16 -10 8 -3 12 -2 9 4 -6 10 -25 14 -25 6z"/>
<path d="M1130 7415 c0 -8 2 -15 4 -15 2 0 6 7 10 15 3 8 1 15 -4 15 -6 0 -10
-7 -10 -15z"/>
<path d="M4040 7343 c0 -56 4 -83 9 -74 5 8 7 29 4 48 -5 28 -3 33 15 33 17 0
22 -8 25 -37 2 -26 4 -18 5 24 1 34 5 68 8 77 3 9 1 16 -5 16 -6 0 -11 -16
-11 -36 0 -28 -3 -35 -17 -32 -13 2 -18 13 -18 36 0 17 -3 32 -7 32 -5 0 -8
-39 -8 -87z"/>
<path d="M5178 7423 c6 -2 18 -2 25 0 6 3 1 5 -13 5 -14 0 -19 -2 -12 -5z"/>
<path d="M5296 7403 c-17 -23 -17 -26 -3 -20 14 5 17 -1 18 -36 1 -39 1 -40 9
-14 5 16 6 35 4 42 -3 7 3 15 13 18 14 4 12 5 -6 6 -20 1 -21 3 -11 16 7 8 9
15 4 15 -5 0 -18 -13 -28 -27z"/>
<path d="M6546 7405 c-9 -14 -13 -25 -9 -25 10 0 36 40 30 46 -2 3 -12 -7 -21
-21z"/>
<path d="M155 7400 c-21 -23 -11 -27 11 -5 12 11 20 12 35 5 29 -16 23 -45
-17 -90 l-36 -40 40 0 c23 0 43 4 46 8 3 5 -8 6 -25 4 -35 -5 -36 1 -4 40 25
30 30 53 19 82 -9 22 -47 20 -69 -4z"/>
<path d="M276 7404 c-10 -25 -7 -59 6 -72 19 -19 33 -14 15 6 -21 23 -22 46
-1 66 13 14 13 16 1 16 -8 0 -18 -7 -21 -16z"/>
<path d="M330 7391 c6 -21 6 -40 -1 -52 -5 -11 -7 -19 -4 -19 3 0 1 -9 -5 -20
-6 -11 -17 -20 -25 -20 -8 0 -15 -5 -15 -10 0 -17 36 7 59 39 26 36 27 62 1
92 l-19 24 9 -34z"/>
<path d="M891 7328 c0 -51 2 -88 4 -83 8 20 10 175 3 175 -5 0 -8 -42 -7 -92z"/>
<path d="M2133 7413 c20 -2 37 -9 37 -15 0 -6 -15 -8 -35 -6 -19 2 -35 0 -35
-4 0 -4 6 -8 14 -8 8 0 17 -6 20 -12 5 -10 7 -10 12 0 3 6 12 12 20 12 8 0 14
9 14 20 0 17 -6 20 -42 18 l-43 -1 38 -4z"/>
<path d="M3343 7413 l37 -4 0 -69 0 -69 -47 -4 c-27 -2 -2 -4 54 -5 56 -1 104
2 107 7 3 5 -18 8 -47 7 l-52 -1 -3 67 -3 67 43 4 c24 2 5 4 -42 4 -47 0 -68
-2 -47 -4z"/>
<path d="M4666 7395 c-22 -34 -20 -82 6 -113 22 -28 22 -27 -5 40 -9 21 -8 35
6 63 19 41 16 46 -7 10z"/>
<path d="M4871 7403 c7 -12 15 -20 18 -17 3 2 -3 12 -13 22 -17 16 -18 16 -5
-5z"/>
<path d="M5450 7408 c0 -9 5 -20 10 -23 13 -8 13 5 0 25 -8 13 -10 13 -10 -2z"/>
<path d="M6293 7412 c-18 -2 -33 -6 -33 -10 -6 -75 -5 -142 2 -142 4 0 8 18 8
40 0 36 3 40 24 40 21 0 25 -5 29 -37 2 -21 4 -9 4 27 0 36 -2 55 -4 43 -7
-34 -53 -32 -53 1 0 21 5 25 38 28 20 2 33 5 27 8 -5 3 -25 4 -42 2z"/>
<path d="M1359 7405 c-6 -10 6 -55 14 -55 3 0 11 8 18 18 13 15 12 16 -3 4
-15 -12 -17 -10 -20 15 -2 15 -6 24 -9 18z"/>
<path d="M1400 7399 c0 -5 9 -9 20 -9 11 0 20 2 20 4 0 2 -9 6 -20 9 -11 3
-20 1 -20 -4z"/>
<path d="M1474 7351 c-2 -72 -16 -101 -46 -95 -22 4 -22 4 1 -6 15 -6 28 -7
33 -2 21 21 37 145 21 155 -5 3 -9 -21 -9 -52z"/>
<path d="M3050 7365 c0 -25 3 -45 8 -45 4 0 7 20 7 45 0 25 -3 45 -7 45 -5 0
-8 -20 -8 -45z"/>
<path d="M4337 7397 c-4 -11 -1 -17 8 -17 8 0 15 -7 15 -15 0 -16 -26 -21 -32
-6 -1 5 -9 3 -16 -5 -11 -12 -9 -14 8 -14 11 0 20 -4 20 -10 0 -5 -4 -10 -9
-10 -10 0 -9 -14 3 -42 4 -9 5 -22 1 -28 -3 -5 -1 -10 4 -10 6 0 11 12 11 26
0 24 2 25 18 13 15 -12 15 -11 -1 8 -18 21 -18 21 5 26 23 4 23 4 1 6 -32 2
-29 21 3 21 14 0 23 4 19 10 -4 6 -11 8 -16 5 -5 -4 -9 0 -9 9 0 8 6 17 13 19
6 3 2 6 -10 6 -12 1 -23 6 -25 13 -3 7 -7 6 -11 -5z"/>
<path d="M5807 7393 c-9 -34 -6 -142 3 -148 6 -4 10 26 10 79 0 84 -4 104 -13
69z"/>
<path d="M1827 7387 c-3 -8 -1 -20 4 -28 6 -10 9 -7 9 14 0 29 -5 35 -13 14z"/>
<path d="M1878 7388 c-9 -23 3 -38 30 -37 l27 1 -25 7 c-16 5 -24 13 -22 24 3
20 -4 23 -10 5z"/>
<path d="M3208 7393 c7 -3 16 -2 19 1 4 3 -2 6 -13 5 -11 0 -14 -3 -6 -6z"/>
<path d="M4805 7344 c2 -39 -2 -57 -11 -61 -8 -3 -14 -9 -14 -14 0 -10 49 10
81 34 l24 19 -28 -17 c-16 -9 -31 -14 -35 -11 -3 4 -5 29 -3 56 1 28 -2 50 -7
50 -5 0 -8 -25 -7 -56z"/>
<path d="M5419 7398 c-6 -25 -6 -38 1 -38 12 0 20 29 10 35 -6 4 -10 5 -11 3z"/>
<path d="M6113 7353 c1 -45 -3 -57 -28 -83 -16 -16 -24 -30 -18 -30 16 0 52
53 59 87 3 15 1 39 -4 53 -8 21 -9 16 -9 -27z"/>
<path d="M1117 7383 c-4 -3 -7 -33 -7 -65 0 -51 -2 -58 -19 -58 -11 0 -22 8
-24 18 -3 11 -5 9 -6 -8 -1 -25 0 -25 83 -25 l85 0 3 73 c2 39 0 72 -4 72 -5
0 -8 -29 -8 -65 0 -58 -2 -65 -20 -65 -18 0 -20 7 -20 60 0 33 -4 60 -10 60
-5 0 -7 -6 -4 -14 3 -8 -2 -16 -13 -19 -14 -4 -15 -5 -2 -6 12 -1 17 -11 17
-41 1 -36 -2 -40 -23 -40 -23 0 -24 3 -21 65 1 36 1 65 1 65 -1 0 -5 -3 -8 -7z"/>
<path d="M3886 7373 c-6 -14 -5 -15 5 -6 7 7 10 15 7 18 -3 3 -9 -2 -12 -12z"/>
<path d="M4463 7383 c9 -2 23 -2 30 0 6 3 -1 5 -18 5 -16 0 -22 -2 -12 -5z"/>
<path d="M2718 7373 c7 -3 16 -2 19 1 4 3 -2 6 -13 5 -11 0 -14 -3 -6 -6z"/>
<path d="M5091 7373 c5 -34 -6 -68 -32 -98 -17 -19 -25 -33 -17 -30 38 15 91
135 59 135 -6 0 -10 -3 -10 -7z"/>
<path d="M5140 7331 c0 -72 6 -81 51 -81 36 0 39 2 38 28 0 26 -1 26 -9 5 -6
-16 -18 -23 -35 -23 -24 0 -25 2 -25 60 0 33 -4 60 -10 60 -5 0 -10 -22 -10
-49z"/>
<path d="M6670 7371 c0 -10 30 -24 37 -17 3 2 -5 9 -16 16 -12 6 -21 7 -21 1z"/>
<path d="M939 7353 c6 -13 19 -23 28 -23 9 0 14 1 12 3 -2 1 -15 11 -28 22
l-24 20 12 -22z"/>
<path d="M2088 7363 c6 -2 18 -2 25 0 6 3 1 5 -13 5 -14 0 -19 -2 -12 -5z"/>
<path d="M2170 7360 c11 -7 0 -10 -37 -10 l-53 0 2 -42 1 -43 4 38 c4 37 5 37
49 37 l44 0 1 -37 2 -38 7 45 c8 51 6 60 -18 60 -15 0 -15 -2 -2 -10z"/>
<path d="M2630 7303 c0 -36 2 -64 4 -62 8 9 13 129 5 129 -5 0 -9 -30 -9 -67z"/>
<path d="M5442 7345 c0 -16 2 -22 5 -12 2 9 2 23 0 30 -3 6 -5 -1 -5 -18z"/>
<path d="M5776 7353 c-6 -14 -5 -15 5 -6 7 7 10 15 7 18 -3 3 -9 -2 -12 -12z"/>
<path d="M5937 7343 c-3 -16 -9 -37 -13 -48 -5 -14 -4 -17 4 -10 13 13 33 85
22 85 -4 0 -10 -12 -13 -27z"/>
<path d="M6507 7351 c-10 -12 -9 -13 3 -6 19 12 52 7 62 -9 6 -8 8 -8 8 2 0 7
14 12 35 12 30 0 35 -3 35 -22 0 -49 -11 -69 -34 -63 -20 6 -20 5 -2 -6 26
-16 46 12 46 65 l0 41 -71 0 c-50 0 -74 -4 -82 -14z"/>
<path d="M7082 7350 c0 -14 2 -19 5 -12 2 6 2 18 0 25 -3 6 -5 1 -5 -13z"/>
<path d="M7114 7350 c0 -13 4 -16 10 -10 7 7 7 13 0 20 -6 6 -10 3 -10 -10z"/>
<path d="M3915 7340 c10 -11 20 -20 22 -20 2 0 -1 9 -7 20 -6 11 -16 20 -22
20 -6 0 -3 -9 7 -20z"/>
<path d="M4209 7353 c-5 -36 -5 -83 1 -83 3 0 7 20 9 45 1 25 -1 45 -4 45 -3
0 -5 -3 -6 -7z"/>
<path d="M6381 7343 c7 -12 15 -20 18 -17 3 2 -3 12 -13 22 -17 16 -18 16 -5
-5z"/>
<path d="M1410 7342 c0 -5 7 -15 15 -22 8 -7 15 -8 15 -2 0 5 -7 15 -15 22 -8
7 -15 8 -15 2z"/>
<path d="M2375 7340 c-3 -5 -1 -10 4 -10 6 0 11 5 11 10 0 6 -2 10 -4 10 -3 0
-8 -4 -11 -10z"/>
<path d="M3090 7338 c0 -11 22 -10 39 1 10 7 7 9 -12 8 -15 -1 -27 -5 -27 -9z"/>
<path d="M3220 7335 c-8 -9 -8 -15 -2 -15 12 0 26 19 19 26 -2 2 -10 -2 -17
-11z"/>
<path d="M4450 7340 c-23 -5 -27 -8 -12 -9 19 -1 22 -7 24 -48 l1 -48 6 50 c4
32 10 49 19 48 6 -2 12 2 12 7 0 6 -3 9 -7 9 -5 -1 -24 -5 -43 -9z"/>
<path d="M6810 7339 c0 -5 5 -7 10 -4 6 3 10 8 10 11 0 2 -4 4 -10 4 -5 0 -10
-5 -10 -11z"/>
<path d="M1320 7336 c0 -2 11 -6 25 -8 13 -3 22 -1 19 3 -5 9 -44 13 -44 5z"/>
<path d="M1605 7330 c-3 -5 -1 -10 4 -10 6 0 11 5 11 10 0 6 -2 10 -4 10 -3 0
-8 -4 -11 -10z"/>
<path d="M2568 7310 c-22 -39 -15 -39 12 0 12 17 18 30 13 30 -4 0 -16 -14
-25 -30z"/>
<path d="M2696 7320 c6 -8 16 -24 22 -35 6 -11 12 -15 12 -8 0 7 -10 22 -22
35 -13 13 -18 17 -12 8z"/>
<path d="M1578 7308 c-2 -13 -1 -34 3 -48 5 -19 7 -14 8 23 1 50 -4 62 -11 25z"/>
<path d="M1681 7314 c0 -11 3 -14 6 -6 3 7 2 16 -1 19 -3 4 -6 -2 -5 -13z"/>
<path d="M1880 7316 c0 -9 -9 -12 -27 -9 -22 2 -24 1 -9 -5 17 -8 15 -11 -17
-31 -53 -32 -46 -37 8 -5 l45 26 0 -29 c1 -24 2 -25 11 -10 5 9 8 21 5 26 -8
12 18 21 61 21 20 0 33 3 29 7 -4 4 -27 6 -52 4 -31 -2 -44 1 -40 8 4 6 2 11
-3 11 -6 0 -11 -6 -11 -14z"/>
<path d="M3668 7314 c18 -33 69 -77 76 -65 4 6 3 11 -3 11 -6 0 -27 16 -47 36
-20 21 -32 28 -26 18z"/>
<path d="M5467 7298 c-6 -30 -13 -38 -30 -38 -18 0 -19 -2 -7 -10 8 -5 18 -10
21 -10 11 0 31 57 27 77 -3 11 -7 3 -11 -19z"/>
<path d="M5872 7305 c0 -16 2 -22 5 -12 2 9 2 23 0 30 -3 6 -5 -1 -5 -18z"/>
<path d="M3600 7300 c-6 -11 -8 -20 -6 -20 3 0 10 9 16 20 6 11 8 20 6 20 -3
0 -10 -9 -16 -20z"/>
<path d="M1356 7295 c-3 -8 -1 -15 4 -15 6 0 10 7 10 15 0 8 -2 15 -4 15 -2 0
-6 -7 -10 -15z"/>
<path d="M1788 7298 c9 -9 15 -9 24 0 9 9 7 12 -12 12 -19 0 -21 -3 -12 -12z"/>
<path d="M2110 7300 c0 -5 5 -10 11 -10 5 0 7 5 4 10 -3 6 -8 10 -11 10 -2 0
-4 -4 -4 -10z"/>
<path d="M3130 7300 l-55 -7 63 -1 c36 -1 62 2 62 8 0 6 -3 9 -7 8 -5 -1 -33
-4 -63 -8z"/>
<path d="M4130 7306 c0 -2 7 -9 15 -16 9 -7 15 -8 15 -2 0 5 -7 12 -15 16 -8
3 -15 4 -15 2z"/>
<path d="M4900 7285 c-13 -14 -29 -25 -36 -25 -7 0 -16 -4 -19 -10 -10 -17 31
3 61 29 l28 24 23 -27 c14 -17 23 -22 23 -13 0 12 -40 47 -53 47 -2 0 -14 -11
-27 -25z"/>
<path d="M6533 7273 c-18 -18 -29 -33 -25 -33 10 0 67 59 61 63 -2 2 -18 -12
-36 -30z"/>
<path d="M3965 7278 c-7 -16 -17 -22 -35 -21 l-25 3 24 -10 c29 -12 55 6 49
34 -2 14 -5 13 -13 -6z"/>
<path d="M1939 7270 c25 -22 37 -25 45 -12 3 5 -11 14 -32 20 l-37 11 24 -19z"/>
<path d="M2945 7270 c19 -21 45 -27 45 -11 0 5 -14 14 -32 20 -31 11 -31 11
-13 -9z"/>
<path d="M5290 7267 c-10 -20 -10 -21 3 -4 11 13 16 14 19 6 3 -9 6 -10 11 -2
4 6 0 13 -8 17 -9 3 -19 -3 -25 -17z"/>
<path d="M5360 7274 c0 -8 5 -12 10 -9 6 4 8 11 5 16 -9 14 -15 11 -15 -7z"/>
<path d="M2321 7264 c0 -11 3 -14 6 -6 3 7 2 16 -1 19 -3 4 -6 -2 -5 -13z"/>
<path d="M2399 7261 c-13 -11 -19 -20 -14 -20 14 0 50 28 43 34 -3 3 -16 -3
-29 -14z"/>
<path d="M2806 7265 c-11 -8 -15 -15 -9 -15 6 0 16 7 23 15 16 19 11 19 -14 0z"/>
<path d="M3551 7260 c-13 -11 -19 -20 -14 -20 6 0 18 9 28 20 23 25 17 25 -14
0z"/>
<path d="M4388 7258 c-10 -10 -14 -18 -9 -18 10 0 36 29 30 34 -2 1 -12 -6
-21 -16z"/>
<path d="M6430 7272 c0 -7 -10 -13 -22 -13 -19 -1 -20 -2 -4 -6 20 -5 44 12
33 24 -4 3 -7 1 -7 -5z"/>
<path d="M3130 7260 l-95 -6 103 -2 c67 -1 101 2 97 8 -3 6 -7 9 -8 8 -1 -1
-45 -5 -97 -8z"/>
<path d="M5895 7260 l-70 -6 78 -2 c46 -1 77 2 77 8 0 6 -3 9 -7 8 -5 -1 -39
-4 -78 -8z"/>
<path d="M4176 7249 c3 -5 11 -9 19 -9 8 0 16 4 19 9 3 5 -5 9 -19 9 -14 0
-22 -4 -19 -9z"/>
<path d="M3030 6648 c0 -156 -3 -337 -5 -403 -6 -163 -16 -1239 -11 -1234 14
14 36 1919 22 1919 -3 0 -6 -127 -6 -282z"/>
<path d="M3303 6857 c5 -32 3 -37 -14 -37 -11 0 -17 5 -14 10 3 6 1 10 -4 10
-6 0 -11 -4 -11 -10 0 -5 -9 -10 -21 -10 -11 0 -17 5 -14 10 3 6 1 10 -4 10
-6 0 -11 -4 -11 -9 0 -5 -10 -12 -22 -14 l-23 -4 23 -2 c16 -1 22 -7 22 -26 0
-14 4 -25 9 -25 4 0 6 11 3 25 -3 20 0 25 17 25 11 0 21 -6 21 -12 0 -8 13
-13 30 -13 17 0 30 5 30 13 0 6 11 12 25 12 14 0 25 5 25 10 0 6 -11 8 -26 4
-19 -5 -25 -4 -20 5 4 6 2 11 -5 11 -6 0 -9 8 -6 20 3 11 0 23 -5 27 -8 4 -9
-6 -5 -30z m0 -54 c-7 -2 -19 -2 -25 0 -7 3 -2 5 12 5 14 0 19 -2 13 -5z"/>
<path d="M1749 6868 c-1 -7 -1 -19 0 -25 1 -7 -5 -13 -12 -13 -11 0 -15 -12
-14 -42 0 -24 2 -33 4 -20 3 15 11 22 28 22 17 0 25 -7 28 -22 2 -13 5 -4 6
19 1 32 -3 42 -16 46 -15 3 -14 6 7 15 18 8 20 11 8 11 -10 1 -18 6 -18 11 0
15 -20 12 -21 -2z m31 -58 c0 -5 -11 -10 -25 -10 -14 0 -25 5 -25 10 0 6 11
10 25 10 14 0 25 -4 25 -10z"/>
<path d="M1830 6838 l-33 -43 38 37 c22 21 36 40 33 43 -3 3 -20 -13 -38 -37z"/>
<path d="M2290 6869 c0 -5 5 -7 10 -4 6 3 10 8 10 11 0 2 -4 4 -10 4 -5 0 -10
-5 -10 -11z"/>
<path d="M2485 6869 c-11 -17 1 -21 15 -4 8 9 8 15 2 15 -6 0 -14 -5 -17 -11z"/>
<path d="M2759 6858 c8 -10 16 -39 18 -65 4 -40 0 -55 -22 -87 -14 -21 -24
-40 -23 -42 2 -2 16 15 31 38 35 54 37 117 5 150 -13 13 -17 16 -9 6z"/>
<path d="M3236 6865 c-3 -8 -1 -15 4 -15 6 0 10 7 10 15 0 8 -2 15 -4 15 -2 0
-6 -7 -10 -15z"/>
<path d="M3551 6853 c-43 -53 -39 -105 10 -160 35 -40 38 -34 5 10 -43 58 -42
111 4 157 11 11 16 20 11 20 -5 0 -19 -12 -30 -27z"/>
<path d="M3675 6838 c-27 -62 -28 -65 -16 -48 8 11 11 -4 11 -59 0 -41 2 -72
6 -69 3 3 6 42 6 86 1 45 7 91 14 104 11 20 13 20 14 4 0 -15 2 -16 15 -6 13
11 13 15 3 21 -24 16 -35 9 -53 -33z"/>
<path d="M3933 6842 c-9 -23 -20 -42 -25 -42 -4 0 -8 -4 -8 -10 0 -5 6 -7 14
-4 11 4 14 -6 14 -48 -1 -29 -5 -61 -10 -72 -8 -14 -7 -17 4 -14 9 3 14 31 16
98 1 52 8 100 14 107 6 8 8 16 4 20 -3 4 -14 -12 -23 -35z"/>
<path d="M4025 6870 c-3 -5 -1 -10 4 -10 6 0 11 5 11 10 0 6 -2 10 -4 10 -3 0
-8 -4 -11 -10z"/>
<path d="M4190 6875 c0 -2 10 -10 23 -16 20 -11 21 -11 8 4 -13 16 -31 23 -31
12z"/>
<path d="M3763 6863 c25 -7 21 -41 -5 -46 l-23 -4 23 -2 c26 -1 30 -27 5 -34
-10 -3 -2 -5 17 -5 19 0 29 2 23 5 -19 7 -16 31 5 36 15 4 15 5 -2 6 -14 1
-17 7 -14 26 5 22 2 25 -21 24 -17 -1 -20 -3 -8 -6z"/>
<path d="M3820 6863 c8 -3 18 -11 22 -17 5 -7 8 -4 8 7 0 11 -7 17 -22 16 -16
0 -18 -2 -8 -6z"/>
<path d="M2081 6842 c-19 -36 -14 -117 9 -137 25 -22 25 -32 3 -38 -10 -3 -6
-4 9 -4 28 1 27 4 -4 49 -20 29 -24 88 -7 120 6 11 8 22 6 25 -3 2 -10 -4 -16
-15z"/>
<path d="M2561 6847 c0 -10 -4 -16 -8 -14 -5 3 -17 1 -28 -4 -14 -5 -3 -8 35
-8 30 0 62 4 70 9 10 6 4 8 -22 4 -30 -5 -37 -3 -41 12 -4 18 -5 18 -6 1z"/>
<path d="M1880 6842 c0 -6 5 -14 11 -18 8 -4 7 -9 -2 -15 -8 -5 -9 -9 -4 -9 6
0 16 4 23 8 9 7 8 13 -8 27 -11 10 -20 13 -20 7z"/>
<path d="M4020 6842 c0 -6 -15 -13 -32 -15 -18 -2 0 -5 40 -5 43 -1 72 2 72 8
0 6 -11 8 -25 4 -15 -4 -32 -1 -40 6 -9 8 -15 9 -15 2z"/>
<path d="M2470 6825 c0 -8 -4 -15 -10 -15 -5 0 -15 -10 -21 -22 -12 -23 -12
-23 9 -5 l21 19 0 -65 c0 -53 -3 -67 -17 -70 -12 -3 -10 -5 6 -6 21 -1 22 2
22 89 0 50 -2 90 -5 90 -3 0 -5 -7 -5 -15z"/>
<path d="M4235 6817 c11 -41 -3 -93 -32 -128 -22 -25 -23 -29 -6 -19 46 29 73
135 42 165 -7 7 -8 1 -4 -18z"/>
<path d="M2282 6804 c-11 -12 -2 -14 54 -14 37 0 64 3 60 7 -4 4 -25 6 -48 4
-22 -1 -44 2 -47 7 -4 6 -11 4 -19 -4z"/>
<path d="M3711 6738 c0 -50 3 -78 8 -69 8 13 6 139 -3 148 -2 2 -4 -33 -5 -79z"/>
<path d="M2595 6765 c-9 -26 -15 -48 -13 -51 3 -2 13 16 23 41 9 26 15 48 13
51 -3 2 -13 -16 -23 -41z"/>
<path d="M1851 6793 c4 -23 -3 -33 -23 -34 -22 -1 -22 -1 2 -8 22 -6 25 -12
22 -49 -2 -25 1 -42 7 -42 6 0 10 3 10 8 -1 4 -1 24 0 44 1 30 5 37 24 41 l22
4 -22 2 c-16 1 -23 7 -23 21 0 11 -4 20 -10 20 -5 0 -9 -3 -9 -7z"/>
<path d="M2208 6793 c12 -2 30 -2 40 0 9 3 -1 5 -23 4 -22 0 -30 -2 -17 -4z"/>
<path d="M4057 6757 c-9 -26 -14 -47 -12 -47 8 0 36 73 32 84 -2 6 -11 -11
-20 -37z"/>
<path d="M2288 6720 c-1 -33 0 -60 5 -60 4 0 7 27 7 60 0 77 -7 77 -12 0z"/>
<path d="M3340 6769 c0 -5 5 -7 10 -4 6 3 10 8 10 11 0 2 -4 4 -10 4 -5 0 -10
-5 -10 -11z"/>
<path d="M1750 6751 c0 -12 -8 -21 -22 -24 l-23 -4 23 -2 c18 -1 22 -7 22 -33
0 -35 12 -32 14 4 1 16 8 24 24 26 12 2 20 7 17 12 -3 5 -12 7 -20 3 -13 -5
-20 7 -16 30 0 4 -3 7 -9 7 -5 0 -10 -9 -10 -19z"/>
<path d="M3263 6758 c1 -7 -6 -12 -15 -12 -10 1 -14 -4 -11 -12 3 -8 -9 -19
-33 -29 -20 -8 -34 -18 -31 -21 3 -4 27 6 53 21 l46 27 -4 -36 c-4 -36 -4 -36
32 -35 31 2 32 3 7 6 -25 4 -28 8 -25 36 3 30 6 32 40 32 21 1 40 4 43 7 4 3
-14 5 -39 4 -32 -1 -46 2 -46 11 0 7 -4 13 -10 13 -5 0 -9 -6 -7 -12z"/>
<path d="M3991 6760 c0 -8 4 -24 9 -35 5 -13 9 -14 9 -5 0 8 -4 24 -9 35 -5
13 -9 14 -9 5z"/>
<path d="M3800 6745 c0 -18 -36 -20 -43 -2 -3 7 -6 5 -6 -5 -1 -13 7 -18 29
-18 23 0 30 4 30 20 0 11 -2 20 -5 20 -3 0 -5 -7 -5 -15z"/>
<path d="M3175 6740 c4 -6 11 -8 16 -5 14 9 11 15 -7 15 -8 0 -12 -5 -9 -10z"/>
<path d="M3297 6719 c7 -7 15 -10 18 -7 3 3 -2 9 -12 12 -14 6 -15 5 -6 -5z"/>
<path d="M3335 6700 c3 -5 13 -10 21 -10 8 0 12 5 9 10 -3 6 -13 10 -21 10 -8
0 -12 -4 -9 -10z"/>
<path d="M2490 6688 c0 -5 23 -8 50 -8 28 0 50 4 50 9 0 4 -22 8 -50 7 -27 -1
-50 -4 -50 -8z"/>
<path d="M2610 6690 c-12 -8 -11 -10 7 -10 12 0 25 5 28 10 8 13 -15 13 -35 0z"/>
<path d="M3825 6690 c3 -5 8 -10 11 -10 2 0 4 5 4 10 0 6 -5 10 -11 10 -5 0
-7 -4 -4 -10z"/>
<path d="M4020 6690 l-75 -6 83 -2 c49 -1 82 2 82 8 0 6 -3 9 -7 8 -5 -1 -42
-4 -83 -8z"/>
<path d="M2218 6663 c7 -3 16 -2 19 1 4 3 -2 6 -13 5 -11 0 -14 -3 -6 -6z"/>
<path d="M2658 6663 c7 -3 16 -2 19 1 4 3 -2 6 -13 5 -11 0 -14 -3 -6 -6z"/>
<path d="M2778 6663 c7 -3 16 -2 19 1 4 3 -2 6 -13 5 -11 0 -14 -3 -6 -6z"/>
<path d="M2848 6663 c12 -2 30 -2 40 0 9 3 -1 5 -23 4 -22 0 -30 -2 -17 -4z"/>
<path d="M3168 6663 c6 -2 18 -2 25 0 6 3 1 5 -13 5 -14 0 -19 -2 -12 -5z"/>
<path d="M3418 6663 c17 -2 47 -2 65 0 17 2 3 4 -33 4 -36 0 -50 -2 -32 -4z"/>
<path d="M2861 6558 c-1 -10 -4 -18 -9 -18 -4 0 -13 -10 -21 -22 -14 -23 -14
-23 8 -4 21 19 21 19 21 -12 0 -28 -4 -32 -26 -32 -16 0 -23 4 -18 12 4 7 3 8
-4 4 -7 -4 -12 -14 -12 -23 0 -11 8 -14 30 -11 25 4 30 1 30 -16 0 -20 2 -20
20 4 16 21 17 26 4 33 -9 5 -12 18 -10 33 3 14 1 35 -4 47 -7 17 -9 18 -9 5z"/>
<path d="M3182 6545 c-25 -54 -7 -135 29 -135 18 0 49 51 49 80 0 33 -29 80
-49 80 -10 0 -23 -11 -29 -25z m52 -7 c11 -41 6 -86 -10 -103 -21 -20 -33 -9
-40 36 -10 64 34 124 50 67z"/>
<path d="M3702 6558 c-19 -19 -14 -30 7 -17 24 16 51 5 51 -21 0 -11 -16 -37
-35 -59 -19 -21 -35 -41 -35 -43 0 -5 19 -4 73 0 9 1 17 6 17 10 0 4 -16 6
-36 4 l-35 -4 26 28 c30 33 42 71 28 93 -13 20 -45 25 -61 9z"/>
<path d="M4220 6550 c-10 -19 -9 -20 8 -9 11 7 27 9 36 6 27 -11 19 -54 -19
-91 -19 -20 -35 -38 -35 -41 0 -11 81 -1 91 11 8 10 3 12 -27 7 l-39 -6 27 31
c34 41 42 66 28 92 -14 26 -56 26 -70 0z"/>
<path d="M4746 6554 c-4 -9 -4 -19 -1 -22 3 -3 5 0 5 7 0 7 10 11 23 9 36 -5
34 -49 -3 -92 -18 -20 -27 -36 -21 -37 47 -4 75 -1 78 7 2 6 -12 8 -34 6 l-37
-5 32 37 c33 38 41 73 20 94 -17 17 -55 15 -62 -4z"/>
<path d="M5288 6520 c-40 -57 -40 -75 -2 -67 18 3 24 0 24 -14 0 -27 13 -23
27 6 6 14 7 25 3 25 -5 0 -10 23 -12 52 l-3 51 -37 -53z m22 -20 c0 -23 -4
-30 -20 -30 -20 0 -20 1 -5 30 9 17 18 30 20 30 3 0 5 -13 5 -30z"/>
<path d="M5826 6553 c-3 -10 -17 -33 -31 -52 -27 -37 -24 -55 7 -46 14 5 21 1
25 -14 3 -12 9 -21 13 -21 12 0 16 30 12 93 -4 57 -14 73 -26 40z m4 -53 c0
-24 -4 -30 -21 -30 -20 0 -20 1 -2 30 9 17 19 30 20 30 2 0 3 -13 3 -30z"/>
<path d="M6348 6565 c-3 -3 -3 -26 0 -50 5 -45 5 -45 -27 -45 -18 0 -30 -4
-26 -9 3 -5 17 -8 30 -5 20 3 25 0 25 -16 0 -11 4 -20 9 -20 13 0 17 33 13 98
-4 48 -10 61 -24 47z"/>
<path d="M6822 6558 c-7 -7 -12 -16 -12 -22 0 -6 5 -5 12 2 10 10 68 18 68 9
0 -2 -9 -30 -20 -62 -26 -75 -19 -82 9 -9 30 80 28 94 -12 94 -18 0 -38 -5
-45 -12z"/>
<path d="M6323 6518 c-20 -26 -26 -41 -15 -34 12 7 36 46 29 46 -3 0 -9 -6
-14 -12z"/>
<path d="M3180 6268 c-22 -37 -24 -56 -10 -78 7 -11 10 -7 10 17 0 44 16 80
37 86 17 4 17 5 0 6 -10 0 -26 -13 -37 -31z"/>
<path d="M6318 6289 c-26 -14 -22 -29 18 -73 31 -34 33 -41 20 -54 -21 -21
-39 -5 -32 30 5 26 4 29 -9 18 -35 -29 -3 -75 43 -63 27 7 30 44 6 68 -15 15
-15 17 1 29 11 8 16 20 12 30 -9 23 -24 20 -23 -5 1 -12 -4 -24 -10 -26 -17
-6 -26 27 -13 43 13 16 10 17 -13 3z"/>
<path d="M6870 6280 c25 -25 25 -46 0 -60 -15 -8 -21 -6 -30 10 -6 12 -8 30
-5 40 8 26 -1 26 -15 1 -7 -14 -7 -28 0 -46 8 -22 15 -26 35 -23 l24 5 -20
-28 c-24 -35 -11 -38 19 -6 29 31 31 102 3 117 -30 15 -33 12 -11 -10z"/>
<path d="M2821 6268 c-7 -19 -4 -24 15 -31 14 -5 28 -21 33 -40 l10 -32 -2 35
c-1 26 -8 38 -25 45 -27 12 -24 27 9 36 23 7 23 7 -4 8 -20 1 -30 -5 -36 -21z"/>
<path d="M3700 6264 c-13 -32 -13 -56 0 -89 23 -60 80 -32 80 40 0 22 -6 49
-12 58 -11 15 -13 6 -13 -50 0 -61 -2 -68 -20 -68 -17 0 -20 8 -23 53 -2 31 2
60 9 68 8 10 8 14 0 14 -6 0 -16 -12 -21 -26z"/>
<path d="M4254 6216 c0 -41 3 -73 8 -70 10 6 11 144 1 144 -5 0 -8 -34 -9 -74z"/>
<path d="M4746 6282 c-2 -4 8 -8 22 -7 24 0 27 -3 25 -33 -1 -22 -10 -42 -28
-58 -15 -14 -25 -28 -22 -31 8 -7 54 46 68 79 16 38 5 58 -30 58 -16 0 -32 -4
-35 -8z"/>
<path d="M5285 6281 c27 -6 30 -10 28 -41 -1 -33 -1 -34 13 -15 8 11 13 29 12
40 -2 16 -11 20 -43 22 -36 1 -37 1 -10 -6z"/>
<path d="M5802 6267 c-30 -32 -31 -102 -1 -117 11 -7 23 -9 27 -6 3 3 0 6 -7
6 -15 0 -32 45 -25 65 15 38 61 -6 49 -45 -4 -12 -2 -20 5 -20 7 0 10 16 8 43
-2 34 -7 43 -25 45 -16 2 -20 8 -16 20 4 9 11 20 17 24 8 6 8 8 0 8 -6 0 -20
-10 -32 -23z"/>
<path d="M3235 6215 c0 -45 2 -59 9 -48 11 19 10 93 -2 104 -4 5 -7 -21 -7
-56z"/>
<path d="M5278 6178 l-23 -23 39 -3 c21 -2 43 1 49 7 7 7 -2 8 -29 4 l-39 -6
19 21 c25 29 12 28 -16 0z"/>
<path d="M4795 6160 l-30 -8 33 -1 c17 0 32 4 32 9 0 6 -1 9 -2 9 -2 -1 -16
-5 -33 -9z"/>
<path d="M2810 6150 c0 -5 7 -10 16 -10 8 0 12 5 9 10 -3 6 -10 10 -16 10 -5
0 -9 -4 -9 -10z"/>
<path d="M2837 6010 c-32 -25 -43 -72 -27 -111 14 -33 45 -39 66 -11 26 34 11
82 -25 82 -13 -1 -13 -2 2 -11 10 -6 17 -22 17 -39 0 -33 -11 -43 -35 -34 -12
5 -15 17 -13 52 3 40 8 50 37 69 19 13 27 23 19 23 -8 0 -27 -9 -41 -20z"/>
<path d="M3181 6016 c-9 -11 -6 -12 14 -8 22 4 25 1 25 -22 0 -14 -5 -26 -12
-26 -6 0 -4 -6 6 -13 26 -19 17 -51 -17 -55 -31 -4 -37 -22 -8 -22 36 0 50 26
47 83 -1 29 -6 59 -10 65 -10 16 -31 15 -45 -2z"/>
<path d="M4246 6016 c-26 -20 -24 -49 4 -56 16 -4 26 -14 28 -28 5 -30 -16
-54 -39 -47 -11 4 -19 2 -19 -4 0 -12 29 -14 46 -3 37 24 33 89 -6 99 -32 8
-24 31 13 35 27 3 29 4 10 9 -12 4 -29 2 -37 -5z"/>
<path d="M4761 6019 c-30 -12 -26 -16 10 -11 l31 5 -7 -44 c-6 -43 -6 -44 9
-17 24 45 24 71 0 73 -12 1 -31 -2 -43 -6z"/>
<path d="M3716 6012 c-3 -5 8 -6 25 -4 16 2 29 6 29 8 0 8 -49 4 -54 -4z"/>
<path d="M3700 5980 c0 -5 12 -15 27 -22 50 -24 37 -84 -15 -71 -17 4 -23 2
-18 -6 11 -17 41 -13 59 7 20 22 21 51 4 73 -13 17 -57 32 -57 19z"/>
<path d="M4776 5905 c-3 -9 -6 -22 -5 -28 0 -7 5 -1 10 12 5 13 8 26 5 28 -2
2 -6 -3 -10 -12z"/>
<path d="M2814 5742 c-8 -8 -12 -17 -8 -21 4 -3 9 -1 11 5 2 6 15 9 28 6 21
-4 24 -9 19 -31 -4 -21 -2 -20 11 8 8 18 15 35 15 36 0 12 -64 9 -76 -3z"/>
<path d="M3174 5728 c-26 -51 -5 -128 36 -128 36 0 54 96 24 138 -21 31 -41
28 -60 -10z m57 -22 c8 -49 1 -83 -19 -91 -22 -8 -32 12 -32 66 0 74 40 94 51
25z"/>
<path d="M2843 5639 c-7 -18 -11 -34 -9 -37 7 -7 27 39 24 55 -2 9 -8 2 -15
-18z"/>
<path d="M3178 5482 c-10 -2 -18 -11 -17 -20 0 -11 2 -12 6 -4 8 21 49 14 61
-10 l12 -23 -3 24 c-2 25 -29 40 -59 33z"/>
<path d="M2810 5456 c0 -14 5 -28 11 -31 7 -5 6 -14 -3 -28 -14 -22 -13 -57 1
-57 5 0 6 11 4 24 -3 13 0 27 6 31 17 10 43 -16 38 -37 -3 -10 -1 -16 4 -12
13 8 11 38 -3 52 -10 10 -10 17 0 32 14 23 16 50 3 50 -5 0 -7 -9 -4 -20 3
-13 -1 -22 -12 -26 -19 -8 -38 13 -30 34 2 6 0 12 -5 12 -6 0 -10 -11 -10 -24z"/>
<path d="M3716 5461 c-27 -30 -35 -72 -19 -103 17 -34 47 -36 68 -4 21 32 5
76 -27 76 l-22 0 22 -16 c27 -19 27 -67 0 -72 -42 -8 -46 80 -5 118 11 11 16
20 10 20 -5 0 -18 -9 -27 -19z"/>
<path d="M3200 5388 l-23 -31 26 19 c15 10 27 25 27 32 0 18 -4 15 -30 -20z"/>
<path d="M3200 5350 l-45 -7 42 -1 c23 -1 45 3 48 8 3 6 5 9 3 8 -2 0 -23 -4
-48 -8z"/>
<path d="M2812 5208 c-29 -29 -3 -98 33 -84 35 13 11 -28 -30 -52 -14 -8 -15
-11 -5 -11 24 0 49 23 65 63 14 33 14 39 0 66 -16 31 -42 39 -63 18z m46 -10
c17 -17 15 -55 -4 -62 -20 -8 -44 10 -44 33 0 17 18 41 30 41 3 0 11 -5 18
-12z"/>
<path d="M3186 5202 c-3 -5 8 -6 25 -4 16 2 29 6 29 8 0 8 -49 4 -54 -4z"/>
<path d="M3176 5173 c-3 -3 4 -11 16 -17 13 -6 28 -23 35 -36 11 -22 13 -22
13 -5 0 11 -4 25 -8 31 -10 16 -48 34 -56 27z"/>
<path d="M3210 5080 c-8 -5 -23 -7 -32 -4 -10 3 -18 1 -18 -5 0 -6 10 -11 23
-11 24 0 55 16 46 24 -2 3 -11 1 -19 -4z"/>
<path d="M1796 4661 c-16 -29 -21 -176 -7 -167 4 3 9 37 10 76 1 40 6 82 11
96 13 33 4 30 -14 -5z"/>
<path d="M2044 4649 c-6 -24 -14 -53 -18 -64 -6 -16 -6 -17 3 -5 13 18 14 10
11 -52 -1 -21 3 -38 8 -38 12 0 19 96 12 159 l-5 45 -11 -45z"/>
<path d="M2295 4680 c-3 -6 1 -7 9 -4 18 7 21 14 7 14 -6 0 -13 -4 -16 -10z"/>
<path d="M3110 4681 c0 -6 -19 -12 -42 -14 l-43 -4 43 -1 c38 -2 42 -5 42 -27
0 -23 -4 -25 -52 -27 l-53 -2 50 -3 50 -4 -35 -29 c-29 -24 -31 -28 -12 -23
19 5 23 2 20 -13 -2 -11 -12 -25 -23 -31 l-20 -13 20 4 c28 4 75 24 75 31 0 4
-9 3 -21 0 -18 -6 -20 -3 -17 27 4 38 32 51 43 18 7 -21 64 -80 78 -80 16 0 6
17 -20 32 -16 9 -36 30 -46 47 l-18 31 52 0 c29 0 49 3 46 7 -4 4 -30 6 -57 4
l-50 -2 5 32 c3 18 8 36 11 41 3 4 -2 8 -10 8 -9 0 -16 -4 -16 -9z"/>
<path d="M3565 4679 c-4 -6 -5 -12 -2 -15 2 -3 7 2 10 11 7 17 1 20 -8 4z"/>
<path d="M3650 4660 c0 -23 -5 -30 -19 -30 -11 0 -21 6 -24 13 -2 6 -4 -1 -4
-18 0 -16 2 -24 4 -17 3 6 13 12 23 12 15 0 20 -9 23 -47 2 -31 4 -19 5 35 1
45 0 82 -3 82 -3 0 -5 -13 -5 -30z"/>
<path d="M3810 4679 c0 -5 5 -7 10 -4 6 3 10 8 10 11 0 2 -4 4 -10 4 -5 0 -10
-5 -10 -11z"/>
<path d="M3960 4675 c0 -8 -9 -15 -21 -15 -11 0 -17 5 -14 10 3 6 1 10 -4 10
-6 0 -11 -15 -11 -34 0 -30 2 -33 26 -28 25 4 25 4 22 -54 -2 -43 -7 -58 -16
-56 -8 1 -11 -2 -7 -8 3 -5 13 -10 21 -10 10 0 14 13 15 48 0 26 2 71 3 100 1
28 -2 52 -6 52 -4 0 -8 -7 -8 -15z m0 -35 c0 -5 -7 -10 -15 -10 -8 0 -15 5
-15 10 0 6 7 10 15 10 8 0 15 -4 15 -10z"/>
<path d="M4160 4683 c0 -6 -12 -14 -27 -16 l-28 -4 28 -2 c17 0 27 -7 27 -16
0 -14 -28 -20 -70 -16 -10 1 -11 -1 -4 -6 7 -4 43 -6 80 -3 40 2 55 6 37 8
-41 4 -45 31 -5 33 27 2 27 2 2 6 -14 3 -28 10 -32 17 -6 8 -8 8 -8 -1z"/>
<path d="M4340 4668 c0 -19 2 -20 10 -8 13 19 13 30 0 30 -5 0 -10 -10 -10
-22z"/>
<path d="M4411 4674 c0 -11 3 -14 6 -6 3 7 2 16 -1 19 -3 4 -6 -2 -5 -13z"/>
<path d="M4563 4669 c-3 -11 -11 -18 -18 -15 -10 3 -13 -15 -14 -76 0 -45 2
-78 5 -75 4 3 7 36 7 72 l1 65 36 1 c23 1 27 3 13 6 -26 5 -29 13 -11 31 9 9
9 12 -1 12 -7 0 -15 -9 -18 -21z"/>
<path d="M4650 4679 c0 -5 5 -7 10 -4 6 3 10 8 10 11 0 2 -4 4 -10 4 -5 0 -10
-5 -10 -11z"/>
<path d="M5065 4654 c-10 -25 -12 -41 -5 -53 7 -13 9 -10 10 14 0 17 7 41 16
53 8 12 10 22 5 22 -6 0 -18 -16 -26 -36z"/>
<path d="M5148 4678 c-5 -11 -19 -19 -35 -19 -24 -2 -25 -2 -5 -6 26 -5 27 -9
7 -46 -8 -15 -10 -25 -5 -22 4 3 11 -1 13 -7 3 -8 6 -6 6 5 1 9 7 17 14 17 8
0 8 3 -2 9 -26 17 6 41 58 43 l46 1 -42 4 c-29 3 -43 9 -45 21 -3 16 -4 16
-10 0z"/>
<path d="M955 4670 c-3 -6 1 -7 9 -4 18 7 21 14 7 14 -6 0 -13 -4 -16 -10z"/>
<path d="M1212 4650 c0 -19 2 -27 5 -17 2 9 2 25 0 35 -3 9 -5 1 -5 -18z"/>
<path d="M1350 4670 c0 -5 7 -7 15 -4 8 4 15 8 15 10 0 2 -7 4 -15 4 -8 0 -15
-4 -15 -10z"/>
<path d="M1391 4660 c-1 -14 -4 -43 -5 -65 -2 -22 -4 -48 -5 -57 0 -9 -9 -24
-18 -33 -16 -16 -15 -17 2 -13 23 4 38 74 32 147 -2 25 -5 35 -6 21z"/>
<path d="M1424 4580 c0 -58 1 -81 3 -52 2 28 2 76 0 105 -2 28 -3 5 -3 -53z"/>
<path d="M1830 4588 l0 -93 65 0 65 0 -2 95 -2 95 -3 -87 -4 -88 -55 0 -55 0
3 85 c2 47 0 85 -4 85 -5 0 -8 -42 -8 -92z"/>
<path d="M1889 4633 c3 -39 6 -43 11 -23 4 14 6 32 4 40 -1 8 -3 18 -3 23 -1
4 -4 7 -9 7 -4 0 -5 -21 -3 -47z"/>
<path d="M2091 4628 c1 -55 5 -50 11 15 2 20 0 37 -4 37 -4 0 -7 -24 -7 -52z"/>
<path d="M2930 4595 l0 -85 -27 -1 c-28 0 -28 0 -5 -10 13 -5 28 -7 33 -3 5 3
9 43 9 89 0 71 3 84 18 88 13 4 11 5 -5 6 -22 1 -23 -2 -23 -84z"/>
<path d="M3393 4673 c9 -2 25 -2 35 0 9 3 1 5 -18 5 -19 0 -27 -2 -17 -5z"/>
<path d="M3842 4610 c1 -45 3 -58 5 -33 3 33 8 43 26 46 l22 4 -22 2 c-13 0
-23 6 -23 11 0 6 10 11 23 11 20 1 20 2 2 6 -11 3 -23 10 -27 17 -4 6 -7 -23
-6 -64z"/>
<path d="M4458 4673 c7 -3 16 -2 19 1 4 3 -2 6 -13 5 -11 0 -14 -3 -6 -6z"/>
<path d="M5412 4661 c9 -15 7 -24 -11 -50 -12 -17 -20 -37 -18 -44 4 -9 6 -8
6 2 1 7 12 26 26 42 25 30 25 53 -1 63 -11 4 -11 2 -2 -13z"/>
<path d="M871 4623 c1 -27 4 -38 6 -25 l4 23 37 -23 c19 -12 32 -16 28 -10 -4
7 -21 19 -38 28 -22 11 -29 21 -25 35 3 10 1 19 -4 19 -5 0 -8 -21 -8 -47z"/>
<path d="M1162 4645 c0 -16 2 -22 5 -12 2 9 2 23 0 30 -3 6 -5 -1 -5 -18z"/>
<path d="M1271 4606 c0 -39 3 -66 7 -60 5 5 6 36 2 69 l-7 60 -2 -69z"/>
<path d="M1312 4650 c0 -14 2 -19 5 -12 2 6 2 18 0 25 -3 6 -5 1 -5 -13z"/>
<path d="M2361 4633 c-1 -36 1 -41 19 -36 12 3 20 0 20 -7 0 -6 7 -18 15 -26
13 -14 17 -13 37 1 l23 17 -27 -6 c-21 -5 -28 -3 -28 9 0 8 7 15 15 15 10 0
15 11 15 35 0 27 -4 35 -17 35 -11 0 -14 -3 -8 -8 6 -4 12 -17 12 -29 2 -20
-3 -23 -34 -23 -24 0 -34 4 -30 13 2 6 1 21 -4 32 -6 15 -8 9 -8 -22z"/>
<path d="M2388 4663 c7 -3 16 -2 19 1 4 3 -2 6 -13 5 -11 0 -14 -3 -6 -6z"/>
<path d="M2580 4662 c0 -4 16 -6 37 -4 30 4 35 2 30 -12 -4 -9 -2 -16 2 -16
11 0 22 26 14 34 -9 9 -83 7 -83 -2z"/>
<path d="M3158 4663 c12 -2 30 -2 40 0 9 3 -1 5 -23 4 -22 0 -30 -2 -17 -4z"/>
<path d="M2280 4653 c0 -6 5 -15 10 -18 6 -4 7 -12 4 -18 -4 -7 5 -1 19 12 28
26 29 44 1 21 -13 -12 -17 -11 -25 1 -5 9 -9 10 -9 2z"/>
<path d="M2703 4605 c0 -33 2 -45 4 -27 2 18 2 45 0 60 -2 15 -4 0 -4 -33z"/>
<path d="M3787 4622 l-19 -37 22 21 c12 12 20 28 18 37 -2 9 -10 2 -21 -21z"/>
<path d="M4628 4625 l-20 -30 20 23 c14 15 31 22 55 22 33 0 36 -3 40 -32 3
-30 4 -30 5 7 l2 40 -41 0 c-35 0 -44 -5 -61 -30z"/>
<path d="M4813 4630 c-24 -29 -28 -41 -15 -39 4 1 17 1 29 0 28 -1 21 -35 -15
-73 -14 -16 -21 -28 -14 -28 13 0 62 69 62 87 0 8 14 13 39 13 23 0 41 5 44
13 3 9 8 9 21 -2 9 -8 19 -12 22 -9 2 3 -12 18 -33 34 -21 15 -32 21 -25 12 8
-10 11 -22 7 -28 -7 -11 -125 -14 -125 -3 0 3 7 15 17 25 9 10 14 20 12 22 -2
2 -14 -9 -26 -24z"/>
<path d="M3536 4625 c-20 -30 -21 -41 -1 -25 12 10 15 2 18 -52 3 -59 3 -58 5
20 1 45 0 82 -2 82 -2 0 -11 -11 -20 -25z"/>
<path d="M3700 4625 c0 -14 2 -25 4 -25 2 0 6 11 8 25 3 14 1 25 -3 25 -5 0
-9 -11 -9 -25z"/>
<path d="M4312 4638 c-7 -7 -12 -17 -12 -24 0 -7 -6 -15 -12 -17 -8 -3 -6 -6
5 -6 10 -1 17 6 17 18 0 11 6 21 13 24 6 2 9 7 6 10 -3 4 -11 1 -17 -5z"/>
<path d="M1044 4606 l-15 -31 21 24 c14 17 27 22 45 18 14 -2 28 -1 30 3 3 4
-11 10 -31 12 -32 4 -37 1 -50 -26z"/>
<path d="M2610 4631 c0 -6 -15 -12 -32 -14 -18 -2 1 -4 42 -4 41 0 58 2 37 4
-20 2 -35 8 -32 14 4 5 1 9 -4 9 -6 0 -11 -4 -11 -9z"/>
<path d="M2801 4624 c0 -11 3 -14 6 -6 3 7 2 16 -1 19 -3 4 -6 -2 -5 -13z"/>
<path d="M2868 4610 c2 -16 6 -30 8 -30 2 0 4 14 4 30 0 17 -4 30 -8 30 -5 0
-7 -13 -4 -30z"/>
<path d="M4341 4612 l-20 -28 32 5 c19 3 25 6 15 9 -14 3 -16 7 -8 23 16 28 4
23 -19 -9z"/>
<path d="M4448 4633 c6 -2 18 -2 25 0 6 3 1 5 -13 5 -14 0 -19 -2 -12 -5z"/>
<path d="M3315 4623 c27 -3 53 -10 57 -16 6 -9 8 -9 8 0 0 6 10 14 23 16 12 2
-14 4 -58 4 -51 0 -62 -2 -30 -4z"/>
<path d="M3438 4623 c6 -2 18 -2 25 0 6 3 1 5 -13 5 -14 0 -19 -2 -12 -5z"/>
<path d="M4397 4587 c-3 -26 -15 -59 -24 -75 -17 -25 -17 -26 0 -13 21 16 40
78 35 111 -2 17 -6 10 -11 -23z"/>
<path d="M5164 4608 c-6 -10 -7 -9 34 -11 17 -1 32 1 32 4 0 10 -60 17 -66 7z"/>
<path d="M1161 4594 c0 -11 3 -14 6 -6 3 7 2 16 -1 19 -3 4 -6 -2 -5 -13z"/>
<path d="M1610 4600 l-95 -6 103 -2 c62 -1 102 2 102 8 0 6 -3 9 -7 8 -5 -1
-51 -5 -103 -8z"/>
<path d="M2321 4601 c-8 -5 -20 -7 -27 -4 -6 2 -15 -1 -20 -8 -5 -9 -2 -10 9
-6 13 5 17 -3 20 -46 l3 -52 2 53 c2 39 6 52 17 52 8 0 15 5 15 10 0 12 -1 12
-19 1z"/>
<path d="M4043 4603 c9 -2 23 -2 30 0 6 3 -1 5 -18 5 -16 0 -22 -2 -12 -5z"/>
<path d="M5035 4600 c-3 -5 -1 -10 4 -10 6 0 11 5 11 10 0 6 -2 10 -4 10 -3 0
-8 -4 -11 -10z"/>
<path d="M1096 4567 c-11 -18 -28 -42 -39 -54 -11 -13 -17 -23 -13 -23 10 0
43 39 62 73 22 40 12 44 -10 4z"/>
<path d="M1351 4584 c0 -11 3 -14 6 -6 3 7 2 16 -1 19 -3 4 -6 -2 -5 -13z"/>
<path d="M2150 4590 c0 -5 5 -10 11 -10 5 0 7 5 4 10 -3 6 -8 10 -11 10 -2 0
-4 -4 -4 -10z"/>
<path d="M2565 4589 c-4 -6 -4 -13 -1 -16 3 -4 6 -1 6 5 0 7 15 11 38 10 36
-1 36 -1 5 -5 -44 -6 -46 -39 -4 -45 25 -4 30 -1 35 23 3 15 13 29 23 32 10 3
-8 5 -39 6 -31 0 -60 -4 -63 -10z m65 -29 c0 -5 -7 -10 -15 -10 -8 0 -15 5
-15 10 0 6 7 10 15 10 8 0 15 -4 15 -10z"/>
<path d="M2801 4570 c0 -24 2 -30 8 -21 6 9 20 12 40 9 17 -2 31 -1 31 4 0 4
-15 8 -34 8 -24 0 -36 5 -39 18 -3 9 -5 1 -6 -18z"/>
<path d="M4180 4551 c0 -43 -3 -50 -22 -54 -20 -4 -19 -4 5 -6 20 -1 27 4 27
17 0 9 3 34 6 55 5 24 3 37 -5 37 -7 0 -11 -19 -11 -49z"/>
<path d="M4661 4583 c7 -12 15 -20 18 -17 3 2 -3 12 -13 22 -17 16 -18 16 -5
-5z"/>
<path d="M1066 4577 c3 -10 9 -15 12 -12 3 3 0 11 -7 18 -10 9 -11 8 -5 -6z"/>
<path d="M1211 4574 c0 -11 3 -14 6 -6 3 7 2 16 -1 19 -3 4 -6 -2 -5 -13z"/>
<path d="M3306 4565 c-9 -14 -12 -25 -7 -25 12 0 35 39 28 46 -2 3 -12 -7 -21
-21z"/>
<path d="M3604 4545 l1 -50 59 0 c49 0 60 3 62 18 1 9 -2 17 -7 17 -5 0 -9 -7
-9 -16 0 -12 -10 -14 -47 -12 l-48 3 -6 45 -7 45 2 -50z"/>
<path d="M4441 4538 c1 -55 5 -50 11 15 2 20 0 37 -4 37 -4 0 -7 -24 -7 -52z"/>
<path d="M1461 4558 c0 -14 -7 -29 -13 -31 -10 -4 -10 -6 0 -6 16 -1 25 22 19
46 -3 12 -5 9 -6 -9z"/>
<path d="M2366 4572 c-15 -3 -16 -6 -5 -12 11 -7 9 -15 -11 -37 -21 -24 -19
-23 9 3 35 34 38 52 7 46z"/>
<path d="M3176 4571 c-4 -5 3 -7 14 -4 23 6 26 13 6 13 -8 0 -17 -4 -20 -9z"/>
<path d="M3428 4564 c11 -22 42 -51 42 -40 0 4 -12 19 -26 34 -20 21 -24 22
-16 6z"/>
<path d="M5063 4535 c0 -27 2 -38 4 -22 2 15 2 37 0 50 -2 12 -4 0 -4 -28z"/>
<path d="M1300 4561 c0 -6 4 -13 10 -16 6 -3 7 1 4 9 -7 18 -14 21 -14 7z"/>
<path d="M2092 4533 l-2 -41 65 -1 c36 0 65 3 65 8 0 4 -27 6 -59 4 l-60 -3
-4 37 -4 38 -1 -42z"/>
<path d="M4293 4563 c21 -6 22 -17 2 -33 -8 -7 -15 -17 -15 -22 0 -13 49 25
50 39 0 6 10 14 23 16 12 2 0 4 -28 4 -27 1 -42 -1 -32 -4z"/>
<path d="M873 4520 c0 -25 2 -35 4 -22 2 12 2 32 0 45 -2 12 -4 2 -4 -23z"/>
<path d="M1326 4528 l-17 -33 20 24 c18 20 27 41 18 41 -1 0 -11 -15 -21 -32z"/>
<path d="M2271 4542 c-6 -12 -11 -27 -11 -34 1 -7 8 0 16 15 9 16 13 31 11 34
-3 2 -10 -4 -16 -15z"/>
<path d="M2563 4542 c0 -12 5 -22 9 -22 11 0 10 12 -2 30 -7 12 -9 10 -7 -8z"/>
<path d="M3675 4550 c3 -5 10 -10 16 -10 5 0 9 5 9 10 0 6 -7 10 -16 10 -8 0
-12 -4 -9 -10z"/>
<path d="M4711 4543 c0 -12 -11 -29 -23 -37 -18 -13 -19 -16 -6 -16 21 0 41
34 35 58 -3 12 -5 11 -6 -5z"/>
<path d="M2440 4521 c6 -12 15 -21 20 -21 18 0 11 19 -11 30 -19 11 -20 10 -9
-9z"/>
<path d="M2700 4524 c0 -13 -13 -15 -90 -12 -56 2 -90 -1 -90 -7 0 -6 38 -10
95 -10 92 0 95 1 95 23 0 12 -2 22 -5 22 -3 0 -5 -7 -5 -16z"/>
<path d="M4345 4530 c3 -5 8 -10 11 -10 2 0 4 5 4 10 0 6 -5 10 -11 10 -5 0
-7 -4 -4 -10z"/>
<path d="M5121 4524 c0 -11 3 -14 6 -6 3 7 2 16 -1 19 -3 4 -6 -2 -5 -13z"/>
<path d="M5190 4526 c0 -2 7 -6 15 -10 8 -3 15 -1 15 4 0 6 -7 10 -15 10 -8 0
-15 -2 -15 -4z"/>
<path d="M5370 4515 c0 -8 5 -15 10 -15 6 0 10 7 10 15 0 8 -4 15 -10 15 -5 0
-10 -7 -10 -15z"/>
<path d="M1210 4512 c0 -7 -10 -12 -22 -13 -22 0 -22 -1 -3 -8 20 -8 44 13 31
26 -3 4 -6 1 -6 -5z"/>
<path d="M3841 4504 c0 -11 3 -14 6 -6 3 7 2 16 -1 19 -3 4 -6 -2 -5 -13z"/>
<path d="M2376 4498 c3 -4 9 -8 15 -8 5 0 9 4 9 8 0 5 -7 9 -15 9 -8 0 -12 -4
-9 -9z"/>
<path d="M4888 4498 c5 -5 16 -8 23 -6 8 3 3 7 -10 11 -17 4 -21 3 -13 -5z"/>
<path d="M1470 4057 c-12 -27 -19 -51 -16 -54 6 -6 26 40 26 60 0 18 19 -6 23
-28 2 -11 9 -30 15 -43 7 -12 10 -27 7 -32 -3 -6 3 -10 14 -10 19 0 19 1 -3
59 -41 102 -42 103 -66 48z"/>
<path d="M2210 3895 l0 -125 -45 0 c-25 0 -45 -4 -45 -10 0 -5 20 -10 45 -10
l45 0 0 -125 0 -125 1225 0 c1160 0 1225 1 1226 18 2 29 6 145 8 190 l1 42
110 0 c67 0 110 4 110 10 0 6 -43 10 -110 10 l-110 0 0 125 0 125 -1230 0
-1230 0 0 -125z m448 106 c9 -1 12 -55 12 -235 0 -178 -3 -235 -12 -238 -11
-3 -373 -2 -415 1 -16 1 -19 467 -3 473 9 3 388 2 418 -1z m1825 -1 l167 0 0
-235 0 -235 -707 -1 c-390 0 -833 -1 -986 -2 l-277 -2 0 237 c0 169 3 237 11
240 7 2 375 3 818 1 443 -1 881 -2 974 -3z"/>
<path d="M1432 3970 c-11 -17 -10 -20 7 -20 14 0 18 5 14 20 -3 11 -6 20 -7
20 -1 0 -7 -9 -14 -20z"/>
<path d="M1590 3960 c0 -5 5 -10 10 -10 6 0 10 5 10 10 0 6 -4 10 -10 10 -5 0
-10 -4 -10 -10z"/>
<path d="M1431 2945 c0 -53 4 -75 13 -75 8 0 11 12 8 35 -4 30 -1 35 16 35 50
0 72 -37 35 -59 -20 -11 -4 -15 21 -5 19 7 21 45 4 62 -8 8 -8 15 1 26 17 20
-3 56 -31 56 -21 0 -21 -1 -4 -13 26 -19 17 -52 -14 -52 -22 0 -25 5 -25 33 0
18 -5 32 -12 32 -8 0 -12 -23 -12 -75z"/>
<path d="M3198 2922 l-47 -3 -3 -117 -3 -117 -522 -3 c-337 -1 -523 -6 -523
-12 0 -7 185 -10 526 -10 l525 0 -3 -125 -3 -125 745 2 745 3 3 123 3 122 114
0 c70 0 115 4 115 10 0 6 -45 10 -115 10 l-115 0 0 120 0 120 -127 1 c-484 3
-1276 3 -1315 1z m1418 -38 c4 -14 4 -87 1 -162 -4 -75 -6 -172 -7 -214 l0
-78 -495 0 -495 0 0 228 c0 125 4 233 8 239 9 14 296 20 729 15 l253 -3 6 -25z
m-1008 -211 l-3 -238 -223 -3 -224 -2 5 237 c3 131 6 239 6 241 1 1 100 2 221
2 l220 0 -2 -237z"/>
<path d="M1468 1933 c6 -2 18 -2 25 0 6 3 1 5 -13 5 -14 0 -19 -2 -12 -5z"/>
<path d="M1426 1908 c-19 -27 -21 -78 -3 -101 6 -9 26 -18 42 -21 17 -2 22 -1
13 1 -40 10 -60 72 -37 115 15 28 4 34 -15 6z"/>
<path d="M1521 1913 c7 -10 15 -20 16 -22 2 -2 3 5 3 17 0 14 -6 22 -16 22
-14 0 -15 -3 -3 -17z"/>
<path d="M2818 1718 l-3 -123 -355 -5 c-195 -3 -350 -8 -345 -11 6 -4 165 -6
355 -6 l345 -1 3 -123 3 -124 656 -2 c361 0 662 1 668 3 6 3 12 22 12 42 0 20
1 75 2 122 l1 85 140 0 c77 0 140 3 140 8 0 4 -63 7 -140 7 l-140 0 0 125 0
125 -670 0 -669 0 -3 -122z m662 -133 l0 -235 -319 0 -320 0 -6 53 c-3 28 -4
93 -1 142 3 50 5 132 5 183 l1 92 320 0 320 0 0 -235z m656 93 c-3 -79 -5
-185 -5 -235 l-1 -93 -315 0 c-245 0 -315 3 -316 13 0 6 0 71 0 142 0 72 1
172 1 223 l0 92 320 0 320 0 -4 -142z"/>
<path d="M1519 1803 c-13 -16 -12 -17 4 -4 9 7 17 15 17 17 0 8 -8 3 -21 -13z"/>
<path d="M1570 1789 c0 -5 5 -7 10 -4 6 3 10 8 10 11 0 2 -4 4 -10 4 -5 0 -10
-5 -10 -11z"/>
<path d="M4462 1582 c-6 -5 82 -8 198 -7 115 1 213 4 216 8 10 10 -398 8 -414
-1z"/>
<path d="M1415 775 l0 -75 36 0 c56 0 89 31 89 85 0 34 -5 47 -19 55 -32 17
-45 11 -20 -8 45 -37 16 -122 -42 -122 -17 0 -19 8 -19 70 0 49 -4 70 -12 70
-9 0 -13 -22 -13 -75z"/>
<path d="M2318 638 l-3 -123 -100 -5 c-121 -6 -114 -19 10 -18 l90 0 3 -126 3
-126 524 0 525 0 0 125 0 125 760 0 c497 0 760 3 760 10 0 6 -264 11 -757 12
l-758 3 -3 123 -3 122 -524 0 -524 0 -3 -122z m235 103 l137 -1 0 -235 0 -235
-175 0 -175 0 0 233 c0 129 2 236 4 238 2 2 19 3 38 2 18 -1 95 -2 171 -2z
m707 0 l95 -1 -1 -158 c0 -86 -1 -192 -2 -234 l-2 -78 -320 0 -320 0 0 235 0
234 68 3 c37 2 139 2 227 1 88 -1 203 -2 255 -2z"/>
<path d="M1575 710 c3 -5 8 -10 11 -10 2 0 4 5 4 10 0 6 -5 10 -11 10 -5 0 -7
-4 -4 -10z"/>
</g>
</svg>
