<?xml version="1.0" standalone="no"?>
<!DOCTYPE svg PUBLIC "-//W3C//DTD SVG 20010904//EN"
 "http://www.w3.org/TR/2001/REC-SVG-20010904/DTD/svg10.dtd">
<svg version="1.0" xmlns="http://www.w3.org/2000/svg"
 width="1285.000000pt" height="858.000000pt" viewBox="0 0 1285.000000 858.000000"
 preserveAspectRatio="xMidYMid meet">
<metadata>
Created by potrace 1.16, written by Peter Selinger 2001-2019
</metadata>
<g transform="translate(0.000000,858.000000) scale(0.100000,-0.100000)"
fill="#000000" stroke="none">
<path d="M1640 8340 c-12 -8 -10 -10 8 -10 13 0 20 4 17 10 -7 12 -6 12 -25 0z"/>
<path d="M1784 8325 c-5 -19 -13 -25 -32 -25 -14 0 -22 -3 -18 -7 4 -4 25 -6
46 -4 40 3 40 2 40 -33 0 -34 -2 -36 -34 -36 -19 0 -37 6 -39 13 -3 6 -5 -4
-5 -23 0 -19 2 -27 5 -17 3 12 15 17 40 17 l36 0 -6 -45 c-4 -24 -2 -47 3 -50
5 -3 10 36 12 90 3 93 2 95 -19 95 -26 0 -27 3 -13 31 7 13 7 19 1 19 -6 0
-13 -11 -17 -25z"/>
<path d="M1890 8337 c0 -7 -9 -30 -20 -52 -11 -21 -18 -41 -15 -43 2 -3 10 7
16 22 11 23 18 26 61 26 l48 0 0 -42 c0 -51 5 -47 13 10 l5 42 -50 0 c-49 0
-50 1 -44 25 4 14 2 25 -4 25 -5 0 -10 -6 -10 -13z"/>
<path d="M2099 8333 c0 -10 -2 -33 -4 -51 -1 -19 1 -30 5 -25 12 11 19 93 9
93 -5 0 -9 -8 -10 -17z"/>
<path d="M2145 8303 c1 -43 4 -48 26 -50 14 -1 17 0 7 3 -10 3 -18 14 -18 24
0 11 8 24 18 30 16 11 16 11 -1 6 -13 -4 -17 -1 -15 11 2 9 -2 18 -8 20 -7 2
-11 -13 -9 -44z"/>
<path d="M2236 8301 c-8 -27 -20 -60 -26 -73 -10 -20 -10 -21 3 -6 8 10 17 15
20 11 6 -6 12 30 8 51 -1 4 5 19 14 32 17 27 19 34 5 34 -5 0 -16 -22 -24 -49z"/>
<path d="M2590 8274 c0 -71 -1 -76 -20 -71 -19 5 -20 0 -20 -61 0 -41 4 -62 9
-54 5 9 23 13 52 11 41 -4 44 -2 47 24 2 15 -1 27 -6 27 -5 0 -9 -8 -8 -17 1
-14 -8 -19 -41 -21 l-43 -3 0 41 0 42 50 -4 c34 -2 50 1 50 9 0 7 -12 11 -27
10 -25 -2 -28 1 -31 36 -3 35 -2 37 27 37 17 0 31 4 31 8 0 5 -14 6 -32 4 -30
-5 -31 -4 -25 27 4 18 2 31 -3 31 -6 0 -10 -33 -10 -76z"/>
<path d="M3265 8339 c-33 -3 -48 -6 -32 -7 24 -2 27 -5 22 -29 l-5 -28 11 27
c8 21 18 27 47 30 20 2 33 5 27 8 -5 3 -37 3 -70 -1z"/>
<path d="M4295 8340 c-3 -5 -1 -10 4 -10 6 0 11 5 11 10 0 6 -2 10 -4 10 -3 0
-8 -4 -11 -10z"/>
<path d="M1200 8330 c-73 -3 -99 -7 -62 -8 l62 -2 0 -117 c0 -64 2 -114 5
-112 2 3 5 56 6 117 l2 112 58 0 c33 0 59 4 59 10 0 6 -1 9 -2 8 -2 -1 -59 -5
-128 -8z"/>
<path d="M1423 8333 c9 -2 25 -2 35 0 9 3 1 5 -18 5 -19 0 -27 -2 -17 -5z"/>
<path d="M1498 8333 c27 -5 28 -26 2 -51 -14 -13 -18 -26 -14 -47 8 -43 14
-44 14 -2 0 32 3 37 23 37 16 0 18 3 9 9 -22 13 7 49 43 54 16 2 1 4 -35 4
-36 0 -55 -2 -42 -4z"/>
<path d="M2400 8330 c0 -5 4 -10 9 -10 6 0 13 5 16 10 3 6 -1 10 -9 10 -9 0
-16 -4 -16 -10z"/>
<path d="M2516 8325 c4 -9 0 -15 -9 -15 -8 0 -18 -8 -22 -17 -5 -15 -4 -16 6
-5 18 17 27 15 32 -5 2 -10 4 -1 4 20 1 20 -3 37 -8 37 -4 0 -6 -7 -3 -15z"/>
<path d="M2740 8215 l0 -125 109 0 c60 0 116 -3 125 -6 14 -5 16 10 16 125 l0
131 -125 0 -125 0 0 -125z m238 0 l-1 -115 -113 0 -114 0 0 108 c0 60 3 112 7
115 3 4 55 7 114 7 l108 0 -1 -115z"/>
<path d="M2810 8293 c0 -16 6 -23 20 -23 10 0 24 -8 29 -17 10 -17 10 -17 11
-1 0 11 -10 20 -25 24 -44 11 -27 26 25 22 29 -2 50 1 50 7 0 6 -25 10 -55 10
-50 0 -55 -2 -55 -22z"/>
<path d="M2790 8166 c0 -32 3 -56 7 -52 4 4 6 26 4 51 -2 43 -2 44 31 47 l33
3 -37 6 -38 5 0 -60z"/>
<path d="M2917 8223 c-2 -5 -1 -19 4 -33 4 -15 7 -18 8 -8 1 9 4 23 7 32 6 16
-11 23 -19 9z"/>
<path d="M2835 8190 c-3 -6 1 -7 9 -4 18 7 21 14 7 14 -6 0 -13 -4 -16 -10z"/>
<path d="M2884 8175 c-1 -14 2 -25 7 -25 5 0 9 11 9 25 0 33 -15 33 -16 0z"/>
<path d="M2917 8140 c-3 -11 -1 -20 4 -20 5 0 9 9 9 20 0 11 -2 20 -4 20 -2 0
-6 -9 -9 -20z"/>
<path d="M2848 8123 c6 -2 18 -2 25 0 6 3 1 5 -13 5 -14 0 -19 -2 -12 -5z"/>
<path d="M3080 8299 c0 -22 4 -38 9 -35 5 3 7 19 5 36 -4 29 -3 30 41 30 54 0
60 -17 8 -23 l-38 -4 39 -1 c29 -2 37 -5 33 -17 -4 -8 -2 -17 2 -20 5 -3 11
13 13 35 l4 40 -58 0 -58 0 0 -41z"/>
<path d="M3525 8330 l-90 -6 103 -2 c67 -1 101 2 97 8 -3 6 -9 9 -13 8 -4 -1
-47 -5 -97 -8z"/>
<path d="M4222 8327 c-22 -10 -23 -15 -20 -89 2 -43 7 -78 11 -78 4 0 5 34 2
75 -6 74 -5 75 20 85 14 5 25 12 25 15 0 7 -12 5 -38 -8z"/>
<path d="M5091 8328 c0 -9 -4 -23 -7 -32 -5 -12 0 -16 17 -16 14 0 19 3 13 8
-7 4 -14 18 -17 32 -2 14 -5 17 -6 8z"/>
<path d="M5508 8332 l-48 -3 0 -46 c0 -26 3 -43 7 -39 4 4 8 15 8 24 0 10 11
19 30 23 l30 7 -32 1 c-48 2 -40 21 8 21 32 0 40 -3 36 -15 -4 -8 -2 -17 2
-20 5 -2 11 7 14 20 5 30 5 31 -55 27z"/>
<path d="M5686 8314 c-5 -20 -12 -25 -26 -21 -19 5 -20 -1 -20 -96 0 -55 3
-97 7 -93 4 3 6 27 4 51 l-2 45 38 0 c37 0 38 -1 37 -34 -1 -19 -5 -39 -9 -45
-3 -6 1 -11 9 -11 13 0 16 15 16 85 0 47 0 88 0 93 -1 4 -12 6 -25 4 -25 -3
-34 11 -15 23 12 8 13 25 1 25 -5 0 -12 -12 -15 -26z m36 -41 c0 -5 2 -20 3
-35 2 -26 -1 -28 -36 -28 -38 0 -39 1 -39 35 0 33 2 35 35 35 19 0 36 -3 37
-7z"/>
<path d="M5800 8325 c0 -8 2 -15 4 -15 2 0 6 7 10 15 3 8 1 15 -4 15 -6 0 -10
-7 -10 -15z"/>
<path d="M6028 8332 l-48 -3 0 -131 c0 -72 2 -129 4 -127 3 2 6 53 7 112 1 59
7 107 12 107 5 0 4 7 -3 15 -11 13 -7 15 29 15 41 0 56 -15 24 -23 -16 -4 -16
-5 -1 -6 19 -1 14 -36 -9 -63 -10 -11 -11 -18 -4 -23 6 -3 11 1 11 9 0 9 4 16
10 16 11 0 23 58 18 86 -2 16 -11 19 -50 16z"/>
<path d="M6360 8296 c-14 -34 -17 -53 -10 -64 8 -14 9 -12 10 11 0 15 7 42 16
58 8 17 13 33 10 36 -3 3 -15 -15 -26 -41z"/>
<path d="M223 8315 c-31 -22 -29 -40 2 -19 36 24 65 10 65 -31 0 -23 -11 -46
-36 -77 -20 -23 -41 -46 -48 -50 -12 -9 -11 -9 24 -14 32 -4 90 5 90 14 0 4
-18 6 -40 4 -44 -4 -49 4 -22 34 48 52 64 99 44 131 -13 20 -56 25 -79 8z"/>
<path d="M390 8310 c-19 -19 -19 -23 -5 -56 13 -32 13 -37 0 -51 -32 -31 -6
-83 40 -83 23 0 55 32 55 55 0 6 -10 21 -21 34 l-21 23 22 29 c17 24 19 33 10
45 -19 22 -27 17 -23 -13 5 -39 -10 -61 -31 -44 -21 18 -20 58 2 70 9 6 11 11
5 11 -7 0 -22 -9 -33 -20z m50 -114 c18 -23 8 -61 -17 -64 -24 -4 -38 25 -28
58 7 23 28 26 45 6z"/>
<path d="M4415 8283 c1 -27 -2 -65 -6 -85 -5 -28 -3 -38 7 -38 8 0 11 8 9 21
-2 11 -1 49 4 85 5 44 4 64 -3 64 -6 0 -11 -20 -11 -47z"/>
<path d="M5310 8198 c0 -156 8 -168 11 -15 l2 107 40 0 c37 0 39 -2 33 -24 -3
-14 -2 -28 4 -31 6 -4 10 13 10 44 0 42 -3 51 -17 50 -11 0 -13 -3 -5 -6 26
-10 10 -23 -28 -23 -45 0 -54 16 -12 23 25 4 25 4 -5 6 l-33 1 0 -132z"/>
<path d="M6130 8295 c0 -19 5 -35 10 -35 6 0 8 13 5 30 -5 29 -4 30 36 30 32
0 40 -3 35 -15 -3 -8 -2 -15 3 -15 5 0 11 9 14 20 5 18 0 20 -49 20 l-54 0 0
-35z"/>
<path d="M6480 8320 c-19 -4 -29 -8 -21 -9 8 0 11 -8 7 -18 -5 -16 -5 -16 6
-2 7 8 33 20 58 26 36 8 39 11 15 10 -16 0 -46 -3 -65 -7z"/>
<path d="M7565 8320 c-3 -5 1 -10 10 -10 9 0 13 5 10 10 -3 6 -8 10 -10 10 -2
0 -7 -4 -10 -10z"/>
<path d="M7690 8210 c0 -100 -2 -120 -15 -120 -16 0 -20 -16 -6 -24 21 -13 30
27 33 142 2 67 0 122 -4 122 -5 0 -8 -54 -8 -120z"/>
<path d="M7820 8319 c0 -5 5 -7 10 -4 6 3 10 8 10 11 0 2 -4 4 -10 4 -5 0 -10
-5 -10 -11z"/>
<path d="M8220 8316 c0 -10 -14 -16 -42 -19 l-43 -4 44 -1 c42 -2 43 -3 39
-31 -2 -17 -1 -28 4 -25 4 3 8 16 8 30 0 20 5 24 31 24 16 0 28 4 25 9 -3 4
-18 6 -32 3 -22 -4 -26 -2 -21 12 4 9 2 16 -3 16 -6 0 -10 -6 -10 -14z"/>
<path d="M8899 8313 c-1 -10 -2 -35 -3 -56 -1 -22 -7 -42 -16 -47 -8 -5 -11
-10 -6 -10 5 0 1 -9 -10 -21 -11 -13 -19 -36 -19 -58 0 -30 -4 -37 -22 -39
-13 -2 -23 -8 -23 -14 0 -5 6 -8 13 -6 6 3 36 13 65 23 29 9 51 19 49 21 -2 3
-16 0 -30 -5 -14 -5 -28 -7 -31 -4 -13 13 -4 59 15 82 19 23 20 23 34 5 14
-18 14 -17 6 7 -5 15 -9 52 -8 83 1 31 -1 56 -5 56 -5 0 -9 -8 -9 -17z"/>
<path d="M10791 8314 c0 -11 3 -14 6 -6 3 7 2 16 -1 19 -3 4 -6 -2 -5 -13z"/>
<path d="M4288 8290 c-3 -16 -1 -30 3 -30 4 0 9 14 11 30 3 17 1 30 -3 30 -4
0 -9 -13 -11 -30z"/>
<path d="M7133 8313 c15 -2 39 -2 55 0 15 2 2 4 -28 4 -30 0 -43 -2 -27 -4z"/>
<path d="M7338 8313 c6 -2 18 -2 25 0 6 3 1 5 -13 5 -14 0 -19 -2 -12 -5z"/>
<path d="M7940 8310 l-85 -6 73 -2 72 -2 0 -111 0 -111 -27 6 -28 6 25 -14
c14 -8 28 -11 33 -7 4 4 8 56 8 115 0 98 2 109 20 113 10 3 16 9 13 14 -3 5
-8 8 -12 7 -4 -1 -45 -5 -92 -8z"/>
<path d="M8281 8260 c-35 -33 -59 -60 -53 -60 5 0 15 7 22 15 7 8 27 15 44 15
23 0 27 3 16 10 -12 7 -11 12 5 32 11 13 26 29 34 36 8 6 11 12 5 12 -5 -1
-38 -28 -73 -60z"/>
<path d="M8560 8310 l-125 -6 138 -2 c86 -1 137 2 137 8 0 6 -6 9 -12 8 -7 -1
-69 -5 -138 -8z"/>
<path d="M9225 8310 l-90 -6 103 -2 c67 -1 101 2 97 8 -3 6 -9 9 -13 8 -4 -1
-47 -5 -97 -8z"/>
<path d="M9920 8304 l-25 -15 25 7 c14 3 32 10 40 15 13 7 13 8 0 8 -8 0 -26
-6 -40 -15z"/>
<path d="M11011 8288 c2 -32 2 -33 6 -4 4 27 6 28 49 23 24 -2 44 -1 44 4 0 5
-22 9 -50 9 l-50 0 1 -32z"/>
<path d="M11158 8309 c-5 -16 3 -89 11 -89 3 0 5 20 3 45 l-4 45 41 0 c30 0
41 -4 41 -15 0 -8 -5 -15 -12 -15 -9 0 -9 -3 0 -12 20 -20 14 -36 -15 -41
l-28 -4 27 -2 c26 -1 27 -4 30 -58 3 -41 5 -27 8 50 l5 107 -52 0 c-28 0 -53
-5 -55 -11z"/>
<path d="M11382 8295 c-6 -14 -8 -25 -4 -25 4 0 12 11 19 25 6 14 8 25 4 25
-4 0 -13 -11 -19 -25z"/>
<path d="M11485 8284 c-19 -45 -19 -49 0 -30 8 8 15 21 15 28 0 8 5 19 12 26
9 9 9 12 0 12 -6 0 -19 -16 -27 -36z"/>
<path d="M11680 8183 c0 -75 2 -134 4 -132 8 10 14 269 5 269 -5 0 -9 -61 -9
-137z"/>
<path d="M11760 8310 c0 -5 5 -10 10 -10 6 0 10 5 10 10 0 6 -4 10 -10 10 -5
0 -10 -4 -10 -10z"/>
<path d="M11832 8272 c3 -28 1 -55 -4 -60 -6 -6 -6 -12 1 -16 15 -10 14 -34
-1 -38 -9 -2 -11 -17 -7 -53 3 -27 7 -39 7 -26 2 19 6 23 27 19 20 -4 25 -1
24 16 0 11 -3 15 -6 9 -2 -7 -13 -13 -22 -13 -21 0 -22 37 0 51 8 5 10 9 4 9
-5 0 -2 5 8 11 9 5 17 15 17 21 0 7 -6 6 -15 -2 -18 -15 -34 -5 -17 12 7 7 8
17 1 29 -5 10 -7 30 -5 44 3 13 0 28 -6 31 -7 5 -9 -9 -6 -44z"/>
<path d="M11919 8304 c0 -10 0 -67 1 -126 1 -74 -2 -108 -10 -108 -6 0 -8 -5
-4 -11 15 -24 23 20 25 135 1 64 -1 120 -5 123 -3 4 -6 -2 -7 -13z"/>
<path d="M12051 8283 c-8 -21 -23 -51 -34 -68 l-21 -30 22 19 21 18 4 -88 3
-89 2 108 c2 103 11 143 36 159 7 5 5 8 -4 8 -9 0 -22 -16 -29 -37z"/>
<path d="M12200 8310 c-14 -4 -43 -9 -65 -11 -38 -2 -38 -2 -7 -6 29 -4 31 -6
21 -24 -6 -12 -9 -23 -6 -25 2 -2 9 7 17 20 13 25 37 36 77 36 12 0 25 5 28
10 7 12 -29 12 -65 0z"/>
<path d="M7230 8277 c0 -26 5 -35 28 -44 15 -7 37 -20 50 -29 12 -9 22 -12 22
-8 0 5 -21 22 -46 37 -39 23 -45 32 -41 52 2 14 0 25 -4 25 -5 0 -9 -15 -9
-33z"/>
<path d="M7482 8268 c-8 -24 -21 -52 -30 -62 -16 -18 -16 -19 2 -12 12 4 26 0
37 -10 11 -10 19 -12 19 -6 0 6 -9 16 -21 22 -19 11 -19 13 -4 36 8 13 13 24
10 24 -2 0 0 11 5 25 5 14 6 25 2 25 -4 0 -13 -19 -20 -42z"/>
<path d="M10090 8306 c0 -2 11 -6 25 -8 14 -3 25 -1 25 3 0 5 -11 9 -25 9 -14
0 -25 -2 -25 -4z"/>
<path d="M12440 8300 c-11 -7 -6 -8 17 -4 63 12 80 -29 38 -86 -14 -19 -24
-43 -24 -54 1 -21 1 -21 6 -1 3 11 16 33 29 48 26 31 31 76 12 95 -14 14 -57
15 -78 2z"/>
<path d="M3222 8233 c-1 -39 -5 -78 -8 -87 -3 -9 -1 -16 5 -16 6 0 11 14 11
30 0 28 2 30 39 30 36 0 40 -3 44 -27 2 -16 5 2 6 39 0 36 4 74 8 84 4 12 2
15 -8 12 -9 -3 -13 -19 -12 -51 l2 -47 -39 0 -39 0 -4 53 c-3 46 -4 43 -5 -20z"/>
<path d="M5183 8293 c-7 -3 -13 -11 -13 -19 0 -8 -11 -26 -25 -39 -13 -14 -21
-25 -16 -25 4 0 24 18 44 40 34 38 37 53 10 43z"/>
<path d="M6178 8293 c7 -3 16 -2 19 1 4 3 -2 6 -13 5 -11 0 -14 -3 -6 -6z"/>
<path d="M7795 8258 c-10 -24 -21 -47 -23 -53 -2 -5 3 -1 12 10 14 19 16 14
17 -70 l3 -90 6 120 c3 66 5 121 4 123 0 1 -9 -17 -19 -40z"/>
<path d="M9000 8289 c0 -5 5 -7 10 -4 6 3 10 8 10 11 0 2 -4 4 -10 4 -5 0 -10
-5 -10 -11z"/>
<path d="M9990 8270 c0 -16 4 -30 10 -30 5 0 9 10 7 22 -1 17 5 24 28 29 29 6
29 7 -7 8 -36 1 -38 -1 -38 -29z"/>
<path d="M2301 8281 c-7 -5 -9 -11 -4 -14 5 -3 15 -2 22 2 7 5 9 11 4 14 -5 3
-15 2 -22 -2z"/>
<path d="M5038 8283 c6 -2 18 -2 25 0 6 3 1 5 -13 5 -14 0 -19 -2 -12 -5z"/>
<path d="M5784 8278 c-34 -58 -35 -61 -7 -29 27 30 33 33 76 30 26 -2 47 -1
47 3 0 14 -108 9 -116 -4z"/>
<path d="M8650 8194 c0 -61 4 -93 10 -89 6 3 10 46 10 96 0 53 -4 89 -10 89
-6 0 -10 -39 -10 -96z"/>
<path d="M11090 8274 c0 -8 5 -12 10 -9 6 4 8 11 5 16 -9 14 -15 11 -15 -7z"/>
<path d="M11735 8281 c33 -7 36 -31 9 -62 -16 -17 -18 -29 -6 -29 12 0 42 56
42 79 0 18 -6 21 -37 20 -37 -1 -37 -2 -8 -8z"/>
<path d="M1577 8273 c-4 -3 -7 -44 -7 -90 l0 -83 34 0 c19 0 37 -6 39 -12 3
-7 5 14 4 47 0 47 -1 51 -4 18 -4 -40 -6 -43 -34 -43 l-30 0 3 85 c2 47 3 85
2 85 0 0 -4 -3 -7 -7z"/>
<path d="M1630 8271 c0 -6 5 -13 10 -16 6 -3 10 1 10 9 0 9 -4 16 -10 16 -5 0
-10 -4 -10 -9z"/>
<path d="M6508 8254 c-23 -23 -26 -24 -41 -10 -22 22 -34 20 -13 -3 19 -20 11
-32 -35 -50 l-24 -10 25 0 c25 0 130 82 119 93 -3 3 -17 -6 -31 -20z"/>
<path d="M9904 8244 c2 -22 4 -48 5 -59 1 -13 4 -16 9 -9 4 7 18 14 32 17 24
4 24 4 -4 6 -24 1 -28 4 -24 25 3 13 -1 31 -8 41 -11 15 -13 12 -10 -21z"/>
<path d="M10780 8270 c0 -5 7 -10 16 -10 8 0 12 5 9 10 -3 6 -10 10 -16 10 -5
0 -9 -4 -9 -10z"/>
<path d="M10878 8272 c-10 -2 -18 -11 -18 -20 0 -9 -17 -34 -37 -56 -36 -38
-36 -38 -5 -13 35 29 87 86 81 91 -2 1 -12 1 -21 -2z"/>
<path d="M12422 8260 c0 -14 2 -19 5 -12 2 6 2 18 0 25 -3 6 -5 1 -5 -13z"/>
<path d="M2450 8255 c0 -8 7 -15 15 -15 9 0 12 6 9 15 -4 8 -10 15 -15 15 -5
0 -9 -7 -9 -15z"/>
<path d="M4333 8258 c0 -7 -1 -30 -1 -52 -2 -35 -4 -38 -27 -34 -14 3 -28 1
-31 -3 -3 -5 12 -9 33 -9 l38 0 1 55 c0 30 -3 55 -7 55 -4 0 -7 -6 -6 -12z"/>
<path d="M11340 8220 c0 -48 1 -50 20 -38 18 11 18 14 4 16 -12 3 -15 12 -12
38 2 19 0 34 -4 34 -4 0 -8 -23 -8 -50z"/>
<path d="M11418 8245 c2 -14 6 -25 8 -25 2 0 4 11 4 25 0 14 -4 25 -9 25 -4 0
-6 -11 -3 -25z"/>
<path d="M11582 8203 c-3 -100 -9 -120 -40 -132 -25 -9 -25 -9 -5 -10 13 -1
29 9 37 22 16 25 32 187 19 187 -5 0 -10 -30 -11 -67z"/>
<path d="M1260 8231 c19 -16 37 -27 40 -24 6 6 -51 53 -65 53 -5 0 6 -13 25
-29z"/>
<path d="M5540 8250 c0 -5 5 -10 11 -10 5 0 7 5 4 10 -3 6 -8 10 -11 10 -2 0
-4 -4 -4 -10z"/>
<path d="M7559 8258 c-5 -19 -8 -70 -4 -66 12 11 23 68 14 68 -5 0 -9 -1 -10
-2z"/>
<path d="M8570 8258 c-6 -33 -5 -110 1 -113 4 -3 9 20 11 51 1 31 0 58 -4 61
-5 2 -8 3 -8 1z"/>
<path d="M8985 8250 c3 -5 8 -10 11 -10 2 0 4 5 4 10 0 6 -5 10 -11 10 -5 0
-7 -4 -4 -10z"/>
<path d="M12204 8239 c-12 -13 -25 -18 -40 -15 -18 5 -21 2 -17 -14 5 -19 6
-19 35 -2 34 20 66 52 51 52 -5 0 -18 -9 -29 -21z"/>
<path d="M3095 8240 c-3 -5 -1 -10 4 -10 6 0 11 5 11 10 0 6 -2 10 -4 10 -3 0
-8 -4 -11 -10z"/>
<path d="M3531 8163 c-1 -61 2 -83 9 -73 12 19 13 160 1 160 -5 0 -9 -39 -10
-87z"/>
<path d="M3925 8223 c8 -16 12 -36 9 -45 -3 -10 -1 -18 5 -18 6 0 11 -9 11
-20 0 -11 4 -20 9 -20 14 0 23 18 12 24 -20 12 -22 58 -4 80 9 11 11 15 3 9
-19 -17 -30 -16 -30 2 0 8 -6 15 -14 15 -13 0 -13 -4 -1 -27z"/>
<path d="M4688 8238 c5 -7 13 -37 17 -66 4 -30 11 -50 15 -45 13 14 -11 123
-28 123 -10 0 -12 -4 -4 -12z"/>
<path d="M4776 8242 c-2 -4 -1 -14 5 -22 7 -12 9 -10 9 8 0 23 -5 28 -14 14z"/>
<path d="M5891 8234 c0 -11 3 -14 6 -6 3 7 2 16 -1 19 -3 4 -6 -2 -5 -13z"/>
<path d="M6137 8229 c-15 -17 -15 -20 -2 -25 21 -9 19 -21 -6 -27 -16 -4 -19
-9 -11 -24 6 -10 8 -32 5 -48 -4 -26 -3 -28 7 -12 7 11 9 32 6 48 -4 19 -1 29
7 29 14 1 52 50 38 50 -5 0 -13 -5 -16 -10 -4 -6 -11 -8 -16 -4 -6 4 -6 11 2
20 6 8 10 16 7 19 -2 2 -12 -5 -21 -16z"/>
<path d="M7937 8218 c8 -46 13 -48 13 -5 0 21 -4 37 -10 37 -5 0 -7 -14 -3
-32z"/>
<path d="M8346 8242 c-2 -4 4 -8 15 -8 10 0 19 4 19 8 0 4 -6 8 -14 8 -8 0
-17 -4 -20 -8z"/>
<path d="M8480 8188 c0 -34 3 -58 7 -55 9 10 10 117 1 117 -5 0 -8 -28 -8 -62z"/>
<path d="M10035 8240 c3 -5 10 -10 16 -10 5 0 9 5 9 10 0 6 -7 10 -16 10 -8 0
-12 -4 -9 -10z"/>
<path d="M10116 8235 c4 -8 8 -15 10 -15 2 0 4 7 4 15 0 8 -4 15 -10 15 -5 0
-7 -7 -4 -15z"/>
<path d="M11012 8230 c0 -14 2 -19 5 -12 2 6 2 18 0 25 -3 6 -5 1 -5 -13z"/>
<path d="M1642 8220 c0 -14 2 -19 5 -12 2 6 2 18 0 25 -3 6 -5 1 -5 -13z"/>
<path d="M9350 8230 c0 -5 5 -10 10 -10 6 0 10 5 10 10 0 6 -4 10 -10 10 -5 0
-10 -4 -10 -10z"/>
<path d="M1900 8212 c6 -13 14 -21 18 -18 3 4 -2 14 -12 24 -18 16 -18 16 -6
-6z"/>
<path d="M2157 8211 c4 -17 -1 -20 -43 -24 l-49 -3 46 -2 47 -2 0 -40 c1 -31
-3 -40 -16 -40 -15 0 -15 -2 -2 -10 22 -14 27 -2 32 73 3 48 1 67 -8 67 -7 0
-10 -8 -7 -19z"/>
<path d="M2450 8222 c0 -6 -8 -13 -17 -15 -10 -3 6 -5 35 -6 32 -1 51 3 47 9
-3 5 -12 7 -20 3 -9 -3 -22 0 -30 7 -9 8 -15 8 -15 2z"/>
<path d="M4287 8211 c-4 -17 -3 -21 5 -13 5 5 8 16 6 23 -3 8 -7 3 -11 -10z"/>
<path d="M5553 8175 c0 -33 2 -45 4 -27 2 18 2 45 0 60 -2 15 -4 0 -4 -33z"/>
<path d="M6795 8204 c0 -13 3 -24 8 -24 4 0 7 9 7 19 0 11 -3 22 -7 24 -5 3
-8 -6 -8 -19z"/>
<path d="M7233 8150 c0 -47 2 -66 4 -42 2 23 2 61 0 85 -2 23 -4 4 -4 -43z"/>
<path d="M9151 8226 c9 -8 99 -13 99 -5 0 5 -23 9 -52 9 -28 0 -49 -2 -47 -4z"/>
<path d="M9303 8223 c9 -2 23 -2 30 0 6 3 -1 5 -18 5 -16 0 -22 -2 -12 -5z"/>
<path d="M9614 8217 c14 -10 17 -23 14 -45 -2 -17 -1 -29 4 -26 4 3 10 -7 14
-21 3 -14 12 -25 20 -25 16 0 18 11 5 26 -4 5 -14 30 -21 57 -10 37 -17 47
-33 47 -20 0 -20 -1 -3 -13z"/>
<path d="M9671 8216 c-10 -12 -8 -13 9 -9 25 7 37 23 17 23 -8 0 -20 -6 -26
-14z"/>
<path d="M10387 8218 c6 -7 13 -36 17 -63 5 -38 2 -57 -10 -75 -12 -19 -9 -17
15 7 30 31 41 50 21 38 -6 -4 -10 10 -10 34 0 50 -8 71 -27 71 -11 0 -13 -4
-6 -12z"/>
<path d="M10481 8214 c0 -11 3 -14 6 -6 3 7 2 16 -1 19 -3 4 -6 -2 -5 -13z"/>
<path d="M2241 8212 c-1 -7 4 -22 9 -33 14 -25 -2 -54 -43 -79 -18 -11 -27
-20 -20 -20 6 0 25 11 41 25 36 30 44 31 67 5 10 -11 22 -20 28 -20 5 0 -5 14
-23 30 -20 19 -30 36 -26 46 3 8 2 13 -3 9 -5 -3 -14 7 -19 22 -6 16 -11 22
-11 15z"/>
<path d="M3075 8210 c3 -5 8 -10 11 -10 2 0 4 5 4 10 0 6 -5 10 -11 10 -5 0
-7 -4 -4 -10z"/>
<path d="M3092 8184 c-12 -19 -18 -34 -14 -34 12 0 53 58 44 64 -4 2 -17 -11
-30 -30z"/>
<path d="M4238 8213 c7 -3 16 -2 19 1 4 3 -2 6 -13 5 -11 0 -14 -3 -6 -6z"/>
<path d="M5813 8195 c7 -14 16 -25 20 -25 9 0 -9 36 -22 44 -5 4 -4 -5 2 -19z"/>
<path d="M6060 8200 c-6 -11 -18 -20 -28 -21 -10 0 -12 -3 -4 -6 6 -2 12 -18
12 -34 0 -21 4 -27 15 -23 9 4 15 0 15 -9 0 -9 -9 -19 -21 -22 -11 -4 -18 -9
-16 -12 3 -2 14 0 24 6 25 13 49 89 34 104 -8 8 -11 2 -11 -21 0 -22 -5 -32
-15 -32 -21 0 -19 33 6 64 11 14 16 26 10 26 -6 0 -15 -9 -21 -20z"/>
<path d="M6555 8210 c3 -5 0 -10 -7 -11 -7 -1 -2 -4 12 -8 31 -10 36 -6 20 14
-14 17 -35 21 -25 5z"/>
<path d="M8285 8210 c3 -5 11 -10 16 -10 6 0 7 5 4 10 -3 6 -11 10 -16 10 -6
0 -7 -4 -4 -10z"/>
<path d="M9015 8210 c-3 -6 1 -7 9 -4 18 7 21 14 7 14 -6 0 -13 -4 -16 -10z"/>
<path d="M3140 8205 c0 -1 6 -8 14 -14 10 -8 16 -8 24 1 8 10 4 13 -14 14 -13
1 -24 1 -24 -1z"/>
<path d="M3433 8157 l-33 -52 40 45 c39 44 48 61 33 59 -5 0 -23 -24 -40 -52z"/>
<path d="M5380 8153 c0 -41 3 -53 10 -43 5 8 7 32 4 52 l-4 38 45 0 c33 0 45
-4 45 -15 0 -8 -5 -15 -10 -15 -7 0 -7 -6 -2 -17 5 -10 7 -24 5 -30 -3 -7 0
-13 6 -13 5 0 10 22 9 50 l0 50 -54 0 -54 0 0 -57z"/>
<path d="M9990 8190 c0 -11 2 -20 4 -20 2 0 6 9 9 20 3 11 1 20 -4 20 -5 0 -9
-9 -9 -20z"/>
<path d="M10110 8200 c-13 -8 -12 -10 3 -10 9 0 17 5 17 10 0 12 -1 12 -20 0z"/>
<path d="M11497 8186 c20 -26 27 -28 17 -3 -3 8 -12 18 -20 21 -11 4 -10 0 3
-18z"/>
<path d="M11750 8179 c-19 -16 -29 -29 -22 -29 7 0 12 -11 12 -25 0 -36 46
-36 52 0 3 13 1 22 -3 19 -5 -3 -9 -12 -9 -20 0 -8 -7 -14 -15 -14 -9 0 -15 9
-15 25 0 19 5 25 23 26 18 1 18 2 4 6 -18 5 -18 5 0 18 10 7 16 16 13 18 -3 3
-21 -8 -40 -24z"/>
<path d="M12246 8196 c6 -16 1 -18 -52 -16 -83 3 -104 1 -104 -9 0 -5 18 -7
40 -4 28 4 40 2 40 -7 0 -9 4 -9 13 -2 16 13 68 18 85 9 20 -13 14 8 -8 28
-20 18 -20 18 -14 1z"/>
<path d="M5080 8180 c-14 -11 -20 -20 -14 -20 6 0 19 9 29 20 23 25 17 25 -15
0z"/>
<path d="M6485 8190 c-11 -5 -14 -9 -6 -9 10 -1 12 -14 9 -56 -3 -30 -1 -55 4
-55 4 0 8 27 8 59 0 48 3 60 18 64 11 3 12 5 2 5 -8 0 -24 -3 -35 -8z"/>
<path d="M8195 8192 c-7 -4 -9 -31 -4 -72 7 -72 11 -70 13 5 l1 50 58 3 c31 2
57 -1 58 -5 5 -53 4 -80 -4 -90 -7 -9 -5 -13 7 -13 13 0 16 11 16 60 l0 60
-54 0 c-30 0 -60 2 -68 5 -7 3 -18 1 -23 -3z"/>
<path d="M11177 8193 c-4 -3 -7 -24 -7 -45 0 -38 0 -38 -41 -38 l-41 0 4 40
c2 22 0 40 -4 40 -5 0 -8 -21 -8 -47 l0 -48 50 0 c49 0 50 1 51 30 0 17 2 40
5 53 4 23 2 27 -9 15z"/>
<path d="M11410 8190 c0 -5 5 -10 10 -10 6 0 10 5 10 10 0 6 -4 10 -10 10 -5
0 -10 -4 -10 -10z"/>
<path d="M1489 8173 c-6 -74 -6 -73 21 -72 16 1 19 3 8 6 -19 5 -21 12 -18 56
1 15 -1 27 -4 27 -3 0 -7 -8 -7 -17z"/>
<path d="M3627 8165 c11 -16 23 -37 26 -45 4 -11 6 -9 6 6 1 11 -11 31 -26 45
l-27 24 21 -30z"/>
<path d="M9143 8144 c-18 -24 -28 -44 -23 -44 5 0 23 20 40 45 40 58 25 58
-17 -1z"/>
<path d="M11128 8183 c6 -2 18 -2 25 0 6 3 1 5 -13 5 -14 0 -19 -2 -12 -5z"/>
<path d="M2445 8169 c-5 -7 5 -8 32 -3 51 9 54 14 10 14 -20 0 -39 -5 -42 -11z"/>
<path d="M7495 8122 c-47 -54 -36 -56 13 -2 22 24 46 60 40 60 -2 0 -25 -26
-53 -58z"/>
<path d="M8990 8170 c0 -5 4 -10 9 -10 6 0 13 5 16 10 3 6 -1 10 -9 10 -9 0
-16 -4 -16 -10z"/>
<path d="M9326 8143 c16 -23 33 -42 37 -43 10 0 -26 52 -49 71 -10 8 -4 -5 12
-28z"/>
<path d="M3145 8160 c-3 -5 -2 -10 4 -10 5 0 13 5 16 10 3 6 2 10 -4 10 -5 0
-13 -4 -16 -10z"/>
<path d="M7865 8160 c-3 -5 -1 -10 4 -10 6 0 11 5 11 10 0 6 -2 10 -4 10 -3 0
-8 -4 -11 -10z"/>
<path d="M7930 8160 c0 -5 5 -10 10 -10 6 0 10 5 10 10 0 6 -4 10 -10 10 -5 0
-10 -4 -10 -10z"/>
<path d="M11420 8141 c0 -25 -5 -30 -27 -34 -26 -4 -26 -4 5 -6 30 -1 32 1 32
34 0 19 -2 35 -5 35 -3 0 -5 -13 -5 -29z"/>
<path d="M11878 8163 c7 -3 16 -2 19 1 4 3 -2 6 -13 5 -11 0 -14 -3 -6 -6z"/>
<path d="M1738 8136 c-3 -14 -2 -26 2 -26 12 0 19 26 10 39 -5 9 -9 4 -12 -13z"/>
<path d="M1972 8140 c0 -14 2 -19 5 -12 2 6 2 18 0 25 -3 6 -5 1 -5 -13z"/>
<path d="M2075 8150 c-3 -5 -1 -10 4 -10 6 0 11 5 11 10 0 6 -2 10 -4 10 -3 0
-8 -4 -11 -10z"/>
<path d="M9980 8150 c0 -5 5 -10 11 -10 5 0 7 5 4 10 -3 6 -8 10 -11 10 -2 0
-4 -4 -4 -10z"/>
<path d="M5030 8140 c-9 -6 -10 -10 -3 -10 6 0 15 5 18 10 8 12 4 12 -15 0z"/>
<path d="M5878 8128 c-2 -12 -14 -28 -26 -34 -17 -8 -20 -14 -11 -19 15 -10
49 29 49 56 0 26 -8 24 -12 -3z"/>
<path d="M6170 8125 c0 -14 2 -25 4 -25 2 0 6 11 8 25 3 14 1 25 -3 25 -5 0
-9 -11 -9 -25z"/>
<path d="M6413 8120 c-24 -29 -30 -45 -13 -35 14 9 52 65 43 64 -4 0 -18 -13
-30 -29z"/>
<path d="M8940 8141 c0 -11 70 -71 82 -71 19 0 5 16 -23 29 -18 8 -34 22 -36
32 -5 19 -23 27 -23 10z"/>
<path d="M10687 8113 l-18 -38 21 25 c15 17 23 21 27 12 10 -26 36 -42 66 -41
33 1 30 3 -14 13 -15 3 -36 19 -46 36 l-19 30 -17 -37z"/>
<path d="M10749 8133 c-13 -16 -12 -17 4 -4 9 7 17 15 17 17 0 8 -8 3 -21 -13z"/>
<path d="M525 8130 c3 -5 8 -10 11 -10 2 0 4 5 4 10 0 6 -5 10 -11 10 -5 0 -7
-4 -4 -10z"/>
<path d="M2476 8127 c3 -10 9 -15 12 -12 3 3 0 11 -7 18 -10 9 -11 8 -5 -6z"/>
<path d="M3870 8130 c0 -5 7 -10 15 -10 8 0 15 5 15 10 0 6 -7 10 -15 10 -8 0
-15 -4 -15 -10z"/>
<path d="M2451 8114 c0 -11 3 -14 6 -6 3 7 2 16 -1 19 -3 4 -6 -2 -5 -13z"/>
<path d="M4225 8104 c-22 -13 -35 -24 -28 -24 12 0 83 39 83 46 0 8 -16 2 -55
-22z"/>
<path d="M4351 8127 c25 -20 79 -44 79 -36 0 5 -16 17 -35 25 -31 13 -54 19
-44 11z"/>
<path d="M4976 8121 c-4 -7 -5 -15 -2 -18 9 -9 19 4 14 18 -4 11 -6 11 -12 0z"/>
<path d="M6560 8122 c0 -5 7 -15 15 -22 8 -7 15 -8 15 -2 0 5 -7 15 -15 22 -8
7 -15 8 -15 2z"/>
<path d="M9593 8123 c-13 -2 -23 -9 -23 -14 0 -14 26 -11 40 6 7 8 11 14 9 14
-2 -1 -14 -4 -26 -6z"/>
<path d="M12101 8097 l-25 -32 32 29 c33 31 37 36 25 35 -5 0 -19 -14 -32 -32z"/>
<path d="M12251 8101 c23 -31 36 -35 26 -7 -3 8 -16 20 -27 26 -22 12 -22 11
1 -19z"/>
<path d="M1430 8110 c0 -5 5 -10 11 -10 5 0 7 5 4 10 -3 6 -8 10 -11 10 -2 0
-4 -4 -4 -10z"/>
<path d="M3067 8113 c-4 -3 -7 -11 -7 -17 0 -6 5 -5 12 2 6 6 9 14 7 17 -3 3
-9 2 -12 -2z"/>
<path d="M3111 8104 c0 -11 3 -14 6 -6 3 7 2 16 -1 19 -3 4 -6 -2 -5 -13z"/>
<path d="M3140 8110 c0 -5 5 -10 11 -10 5 0 7 5 4 10 -3 6 -8 10 -11 10 -2 0
-4 -4 -4 -10z"/>
<path d="M3210 8100 c-33 -26 -14 -26 25 0 17 11 23 20 15 20 -8 0 -26 -9 -40
-20z"/>
<path d="M3311 8101 c13 -11 26 -17 29 -14 6 6 -30 33 -43 33 -5 0 1 -9 14
-19z"/>
<path d="M5041 8105 c12 -12 39 -18 101 -22 47 -3 88 -2 91 3 3 5 -32 9 -76
10 -47 0 -93 6 -107 13 -23 13 -24 12 -9 -4z"/>
<path d="M9936 8089 c-21 -16 -35 -29 -30 -29 17 0 87 47 78 52 -5 3 -27 -8
-48 -23z"/>
<path d="M11340 8101 c0 -25 6 -27 13 -6 4 8 2 17 -3 20 -6 4 -10 -3 -10 -14z"/>
<path d="M12176 8111 c-4 -7 -5 -15 -2 -18 9 -9 19 4 14 18 -4 11 -6 11 -12 0z"/>
<path d="M1920 8101 l-35 -7 30 -6 c20 -4 35 -2 45 8 15 15 14 15 -40 5z"/>
<path d="M4690 8095 c-7 -8 -21 -15 -31 -15 -11 0 -19 -4 -19 -10 0 -5 4 -10
9 -10 11 0 70 49 60 50 -4 0 -12 -7 -19 -15z"/>
<path d="M10075 8098 c11 -6 28 -18 38 -26 10 -9 17 -11 17 -4 0 6 -13 18 -30
27 -33 17 -56 20 -25 3z"/>
<path d="M6200 8090 c-23 -5 -23 -7 -6 -13 11 -4 24 -3 30 3 14 14 5 18 -24
10z"/>
<path d="M11251 8093 c-1 -7 -13 -13 -28 -14 l-28 0 24 -10 c27 -11 47 1 38
23 -4 9 -6 10 -6 1z"/>
<path d="M12460 8085 c0 -8 5 -15 10 -15 6 0 10 7 10 15 0 8 -4 15 -10 15 -5
0 -10 -7 -10 -15z"/>
<path d="M5525 8080 c3 -5 10 -10 16 -10 5 0 9 5 9 10 0 6 -7 10 -16 10 -8 0
-12 -4 -9 -10z"/>
<path d="M8615 8075 c29 -13 45 -11 45 3 0 4 -17 8 -38 8 l-37 2 30 -13z"/>
<path d="M11750 8074 c-17 -9 -20 -14 -9 -14 9 0 22 7 29 15 15 18 13 18 -20
-1z"/>
<path d="M10865 8070 l-50 -7 52 -1 c28 -1 55 3 58 8 3 6 3 9 -2 8 -4 0 -30
-4 -58 -8z"/>
<path d="M10348 8043 c7 -3 16 -2 19 1 4 3 -2 6 -13 5 -11 0 -14 -3 -6 -6z"/>
<path d="M3168 7513 c6 -2 12 -16 12 -29 0 -13 4 -24 8 -24 12 0 11 32 -1 48
-5 6 -15 12 -21 11 -7 0 -6 -2 2 -6z"/>
<path d="M3250 7513 c0 -5 5 -15 10 -23 8 -12 10 -11 10 8 0 12 -4 22 -10 22
-5 0 -10 -3 -10 -7z"/>
<path d="M3234 7441 c-20 -33 -34 -40 -34 -17 0 8 -5 18 -11 22 -8 5 -10 -3
-7 -27 3 -19 1 -43 -4 -54 -13 -24 -3 -15 47 48 21 26 35 50 32 53 -3 3 -13
-8 -23 -25z"/>
<path d="M3300 7323 c-66 -132 -80 -163 -71 -163 4 0 27 41 51 90 23 50 47 93
53 97 6 4 7 -217 3 -633 -5 -545 -18 -2209 -20 -2604 l-1 -125 -273 -3 c-176
-1 -271 -6 -267 -12 4 -6 108 -10 271 -10 204 0 264 -3 265 -12 1 -7 1 -127 0
-265 -2 -173 1 -253 8 -253 8 0 11 85 11 265 l0 265 1448 -5 c796 -3 1836 -7
2312 -10 476 -2 979 -5 1119 -5 287 0 288 0 149 -66 -46 -21 -76 -40 -68 -42
9 -1 38 9 65 24 115 60 165 89 165 95 0 9 -221 120 -233 116 -5 -1 29 -22 76
-45 47 -23 88 -46 92 -52 5 -8 -21 -14 -55 -12 -3 0 -806 3 -1785 6 -2138 7
-3266 15 -3278 23 -5 3 -6 132 -3 297 3 160 8 824 11 1476 5 971 9 1345 15
1568 0 30 19 6 59 -79 23 -50 46 -88 49 -84 6 6 -109 244 -118 245 -3 0 -25
-39 -50 -87z"/>
<path d="M3120 7330 c0 -5 4 -10 9 -10 6 0 13 5 16 10 3 6 -1 10 -9 10 -9 0
-16 -4 -16 -10z"/>
<path d="M7573 7122 c-9 -15 -14 -15 -33 -4 -26 16 -37 10 -15 -8 14 -12 14
-15 -1 -31 -15 -17 -15 -19 -1 -19 9 0 19 5 22 11 5 7 14 4 26 -7 20 -18 25
-9 10 15 -6 9 -6 22 1 34 12 24 6 31 -9 9z"/>
<path d="M7117 6912 c-14 -14 -21 -14 -37 -4 -29 18 -36 15 -15 -8 17 -19 17
-21 0 -40 -10 -11 -13 -20 -7 -20 7 0 12 5 12 10 0 6 9 10 19 10 11 0 23 -4
26 -10 3 -5 11 -10 17 -10 6 0 3 9 -7 20 -17 19 -17 21 0 40 23 25 15 36 -8
12z"/>
<path d="M7244 6781 c14 -15 15 -24 6 -40 -6 -12 -7 -21 -1 -21 5 0 11 6 14
13 3 9 9 9 26 -1 23 -13 29 -4 9 16 -9 9 -7 17 8 34 l19 22 -27 -17 c-23 -14
-28 -14 -38 -2 -7 8 -17 15 -23 15 -5 0 -2 -9 7 -19z"/>
<path d="M7770 6722 c0 -4 5 -13 12 -20 9 -9 7 -16 -7 -32 -21 -23 -9 -27 16
-5 15 14 18 14 33 0 18 -19 21 -12 6 15 -7 13 -7 21 0 25 5 3 10 11 10 17 0 7
-5 6 -14 -1 -11 -9 -20 -10 -35 -1 -12 6 -21 7 -21 2z"/>
<path d="M6974 6591 c15 -16 15 -19 1 -31 -25 -21 -17 -32 10 -14 24 16 27 16
40 -2 17 -22 20 -12 5 16 -7 13 -7 21 0 25 20 12 10 26 -11 14 -15 -8 -24 -8
-32 0 -19 19 -31 12 -13 -8z"/>
<path d="M7335 6540 c17 -19 17 -21 2 -38 -26 -28 -20 -38 6 -13 21 19 25 20
37 6 7 -8 21 -15 31 -15 23 0 24 -13 4 -30 -22 -18 -11 -24 15 -8 18 10 24 10
27 1 3 -7 9 -13 14 -13 5 0 4 10 -3 21 -10 17 -10 23 0 26 6 3 12 12 12 21 0
15 -1 15 -17 0 -17 -17 -22 -16 -82 19 -2 2 4 12 14 23 10 11 13 20 8 20 -6 0
-16 -7 -23 -15 -12 -14 -15 -14 -30 0 -24 22 -36 18 -15 -5z"/>
<path d="M6636 6509 c18 -20 18 -22 1 -34 -24 -17 -22 -28 3 -13 16 10 24 10
40 0 21 -13 27 -3 9 15 -8 8 -7 17 2 34 12 23 11 24 -8 6 -18 -16 -22 -16 -33
-2 -7 8 -17 15 -23 15 -5 0 -2 -9 9 -21z"/>
<path d="M7002 6391 c9 -15 9 -23 -1 -35 -8 -9 -20 -16 -27 -16 -8 0 -14 -4
-14 -10 0 -5 4 -10 9 -10 18 0 21 -33 4 -45 -10 -8 -15 -17 -11 -21 5 -4 17 1
29 12 19 17 21 18 30 1 6 -9 15 -17 21 -17 7 0 6 5 -2 15 -15 19 -5 65 15 65
18 0 19 12 4 27 -8 8 -8 17 0 32 7 12 8 21 2 21 -5 0 -11 -6 -14 -12 -3 -10
-9 -10 -26 0 -29 17 -33 15 -19 -7z m25 -66 c-9 -8 -20 -15 -26 -15 -18 0 -12
18 11 35 26 18 37 3 15 -20z"/>
<path d="M7510 6406 c0 -3 6 -15 13 -27 10 -17 9 -22 -5 -33 -28 -21 -21 -30
8 -11 24 16 27 16 45 -1 21 -19 27 -6 7 14 -10 10 -10 17 0 32 18 29 15 35 -8
15 -19 -17 -21 -17 -40 0 -11 10 -20 15 -20 11z"/>
<path d="M6337 6373 c-13 -13 -19 -14 -29 -5 -19 19 -29 14 -16 -7 14 -22 -3
-51 -30 -51 -13 0 -13 -2 1 -18 22 -24 21 -38 0 -51 -15 -9 -15 -10 -2 -11 8
0 20 5 27 12 9 9 16 7 32 -7 11 -10 20 -13 20 -8 0 6 -7 16 -15 23 -14 12 -14
15 1 31 10 11 24 19 32 19 12 0 11 5 -6 23 -20 22 -21 24 -5 40 9 9 15 19 12
22 -3 2 -13 -3 -22 -12z m-17 -78 c-7 -8 -16 -15 -21 -15 -13 0 -11 24 3 38
18 18 35 -3 18 -23z"/>
<path d="M6600 6384 c0 -6 5 -15 12 -22 9 -9 7 -16 -7 -32 -20 -23 -14 -26 15
-8 15 10 22 10 32 0 20 -20 32 -13 13 8 -17 19 -17 21 0 40 10 11 13 20 8 20
-6 0 -16 -7 -23 -15 -12 -14 -15 -14 -31 1 -11 10 -19 13 -19 8z"/>
<path d="M6812 6360 c10 -16 10 -24 0 -40 -14 -23 -10 -25 18 -8 15 10 22 10
32 0 20 -20 32 -13 13 8 -17 19 -17 21 0 40 19 21 7 28 -13 8 -10 -10 -17 -10
-32 0 -28 17 -32 15 -18 -8z"/>
<path d="M7158 6310 c6 -8 12 -22 12 -31 0 -10 -6 -19 -12 -22 -7 -2 -10 -7
-6 -11 3 -4 15 -2 27 6 16 10 23 10 33 0 6 -6 17 -12 23 -12 5 0 1 7 -10 16
-16 12 -18 18 -7 34 18 29 15 33 -10 16 -20 -14 -24 -14 -42 1 -12 10 -15 11
-8 3z"/>
<path d="M7260 6284 c0 -6 5 -15 12 -22 9 -9 9 -15 0 -24 -7 -7 -12 -19 -12
-27 0 -11 4 -10 20 4 19 17 21 17 38 2 26 -24 39 -21 16 4 -15 16 -16 24 -6
39 18 29 15 35 -8 15 -19 -17 -21 -17 -40 0 -11 10 -20 14 -20 9z"/>
<path d="M6560 6254 c0 -6 6 -16 12 -22 10 -10 10 -17 0 -33 -16 -25 -10 -36
8 -14 18 21 26 19 50 -16 21 -29 21 -31 5 -50 -21 -23 -11 -26 12 -4 14 14 17
14 32 0 25 -22 37 -19 17 4 -17 18 -17 21 0 48 18 28 18 28 -2 11 -26 -23 -36
-23 -57 2 -20 24 -22 51 -5 68 8 8 8 12 1 12 -6 0 -16 -7 -23 -15 -12 -14 -15
-14 -31 1 -11 10 -19 13 -19 8z"/>
<path d="M6354 6179 c15 -23 15 -28 1 -39 -8 -7 -15 -17 -15 -23 0 -5 9 -2 20
8 16 15 22 16 35 5 9 -7 19 -10 22 -6 4 4 1 11 -7 16 -12 8 -13 13 -2 30 13
22 3 27 -16 8 -9 -9 -17 -7 -33 8 l-22 19 17 -26z"/>
<path d="M7151 6157 c10 -21 10 -30 1 -39 -20 -20 -13 -32 8 -13 19 17 21 17
47 0 28 -18 28 -18 11 2 -10 11 -18 23 -18 28 0 5 8 18 18 29 17 20 17 20 -11
2 -28 -17 -29 -17 -49 1 -19 17 -19 17 -7 -10z"/>
<path d="M7087 6153 c-13 -13 -19 -14 -29 -5 -19 19 -29 14 -16 -8 10 -15 10
-22 0 -32 -20 -20 -13 -32 8 -13 16 14 23 16 32 7 18 -18 32 -14 17 4 -10 13
-10 19 0 36 16 26 9 32 -12 11z"/>
<path d="M5970 6145 c-9 -11 -17 -12 -30 -5 -28 15 -38 11 -16 -5 16 -12 17
-17 6 -30 -15 -18 -5 -34 12 -17 8 8 17 7 34 -5 27 -18 33 -7 7 12 -17 13 -17
14 0 32 9 11 17 23 17 26 0 12 -17 7 -30 -8z"/>
<path d="M6453 6131 c15 -23 15 -26 0 -43 -10 -11 -12 -18 -5 -18 7 0 12 5 12
10 0 16 32 11 46 -7 7 -10 14 -13 14 -6 0 6 -4 15 -10 18 -5 3 -10 15 -10 26
0 10 5 19 10 19 6 0 10 5 10 12 0 8 -6 6 -16 -4 -16 -15 -19 -15 -43 0 l-25
17 17 -24z"/>
<path d="M6777 6135 c-17 -17 -47 -20 -47 -5 0 6 -5 10 -10 10 -7 0 -7 -7 1
-21 8 -15 8 -24 0 -32 -18 -18 -12 -28 9 -15 15 10 22 10 32 0 6 -6 17 -12 22
-12 6 0 5 5 -2 12 -17 17 -15 39 5 54 10 7 15 15 12 19 -4 3 -14 -1 -22 -10z"/>
<path d="M6957 6043 c-13 -13 -19 -14 -29 -5 -19 19 -29 14 -16 -8 10 -15 10
-22 0 -32 -20 -20 -13 -32 8 -13 19 17 21 17 40 0 11 -10 20 -13 20 -8 0 6 -7
16 -15 23 -14 12 -14 15 1 31 22 24 13 34 -9 12z"/>
<path d="M6190 6026 c0 -4 7 -14 15 -23 14 -14 14 -17 -1 -34 -10 -11 -12 -19
-6 -19 7 0 12 5 12 10 0 16 32 12 52 -7 11 -10 18 -12 18 -4 0 6 -7 14 -15 17
-19 8 -19 28 0 44 9 7 13 15 10 18 -3 3 -14 -3 -25 -13 -19 -17 -21 -17 -40 0
-11 10 -20 15 -20 11z"/>
<path d="M5673 5948 c15 -24 15 -28 1 -42 -17 -18 -8 -21 16 -6 10 6 20 4 32
-7 16 -15 18 -15 18 0 0 8 -6 17 -12 19 -9 3 -7 13 6 34 l19 29 -27 -19 c-27
-17 -28 -17 -49 1 l-21 18 17 -27z"/>
<path d="M6530 5943 c0 -5 5 -14 12 -21 9 -9 7 -16 -7 -32 -20 -23 -14 -26 15
-8 16 10 23 9 42 -7 l22 -20 -16 26 c-15 23 -15 29 -2 48 13 18 13 20 -1 15
-8 -3 -15 -10 -15 -15 0 -14 -17 -11 -34 7 -9 8 -16 12 -16 7z"/>
<path d="M6332 5920 c10 -16 10 -24 0 -41 -12 -19 -11 -19 8 -9 14 8 26 8 40
0 19 -10 19 -9 8 16 -10 22 -10 28 0 32 6 2 12 8 12 13 0 5 -12 3 -27 -4 -21
-9 -27 -9 -31 1 -2 6 -8 12 -13 12 -5 0 -4 -9 3 -20z"/>
<path d="M6675 5920 c17 -19 17 -21 0 -40 -10 -11 -13 -20 -8 -20 6 0 16 7 23
15 12 14 15 14 30 0 24 -22 36 -18 15 5 -18 20 -18 21 1 34 10 8 16 18 12 22
-5 4 -16 0 -27 -10 -16 -15 -19 -15 -31 -1 -7 8 -17 15 -23 15 -5 0 -2 -9 8
-20z"/>
<path d="M5823 5902 c18 -20 22 -42 8 -42 -5 0 -11 -7 -14 -14 -4 -10 -1 -13
8 -10 7 3 16 13 19 21 6 14 9 14 26 -2 11 -10 23 -15 27 -12 3 4 2 7 -4 7 -20
0 -24 33 -6 52 17 19 17 19 -10 7 -21 -10 -30 -10 -39 -1 -20 20 -32 14 -15
-6z"/>
<path d="M6060 5842 c0 -4 5 -13 12 -20 9 -9 9 -15 0 -24 -7 -7 -12 -16 -12
-22 0 -6 5 -5 12 2 15 15 48 16 48 2 0 -5 8 -10 18 -10 15 1 15 2 -3 16 -16
12 -18 18 -7 34 17 28 15 32 -8 18 -16 -10 -24 -10 -40 0 -11 7 -20 9 -20 4z"/>
<path d="M6225 5830 c17 -19 17 -21 0 -40 -20 -23 -14 -26 15 -8 15 10 22 10
32 0 20 -20 30 -14 14 9 -13 19 -13 23 0 37 8 8 12 17 9 20 -3 4 -10 0 -15 -8
-8 -12 -15 -13 -41 -3 -31 12 -31 12 -14 -7z"/>
<path d="M5940 5833 c0 -5 5 -14 12 -21 9 -9 9 -15 0 -24 -19 -19 -14 -29 8
-16 16 10 24 10 40 0 24 -15 27 -4 3 13 -16 12 -16 14 0 29 23 24 21 28 -8 14
-19 -8 -28 -8 -40 2 -8 7 -15 8 -15 3z"/>
<path d="M6504 5771 c16 -18 13 -51 -5 -51 -5 0 -9 -5 -9 -12 0 -6 10 -2 23
10 l23 22 22 -22 c13 -13 22 -17 22 -10 0 7 -7 15 -15 18 -19 8 -19 28 0 44 9
7 13 15 10 18 -3 3 -14 -3 -26 -14 -20 -18 -22 -18 -34 -1 -6 9 -16 17 -20 17
-5 0 -1 -8 9 -19z"/>
<path d="M6017 5703 c-13 -13 -19 -14 -29 -5 -7 7 -19 12 -27 12 -11 0 -11 -3
3 -19 16 -17 16 -20 0 -35 -9 -9 -14 -19 -12 -22 3 -2 11 2 18 11 16 19 29 19
52 -2 10 -9 18 -11 18 -6 0 6 -7 16 -15 23 -14 12 -14 15 1 31 22 24 13 34 -9
12z"/>
<path d="M6160 5711 c0 -5 6 -11 13 -14 10 -3 10 -9 0 -26 -17 -28 -16 -36 2
-21 12 10 21 10 41 1 25 -11 25 -11 10 11 -14 20 -14 24 1 40 18 20 4 25 -15
6 -10 -10 -17 -10 -32 0 -11 7 -20 8 -20 3z"/>
<path d="M5450 5693 c0 -5 6 -15 12 -21 10 -10 10 -17 0 -33 -16 -25 -10 -36
8 -14 16 19 40 19 40 0 0 -8 5 -15 10 -15 14 0 13 13 -2 28 -10 10 -10 17 0
32 17 28 15 36 -6 17 -16 -15 -20 -15 -40 -1 -12 8 -22 11 -22 7z"/>
<path d="M5675 5680 c17 -19 17 -21 -1 -42 l-19 -22 27 16 c25 17 27 16 42 -5
11 -16 15 -18 15 -6 1 8 -4 20 -11 27 -9 9 -9 15 0 24 7 7 12 17 12 22 0 6 -5
5 -12 -2 -15 -15 -48 -16 -48 -2 0 6 -5 10 -12 10 -6 0 -3 -9 7 -20z"/>
<path d="M6290 5674 c0 -6 6 -16 12 -22 10 -10 10 -17 0 -32 -18 -29 -15 -35
8 -15 19 17 21 17 40 0 21 -19 29 -8 8 13 -9 9 -9 18 0 37 12 26 12 26 -10 11
-20 -14 -24 -14 -40 1 -10 9 -18 12 -18 7z"/>
<path d="M5480 5554 c0 -6 5 -15 12 -22 9 -9 9 -15 0 -24 -7 -7 -12 -19 -12
-27 0 -11 4 -11 19 3 12 11 21 14 26 7 3 -6 13 -11 21 -11 14 0 13 2 0 16 -19
19 -20 26 -3 44 10 12 9 12 -6 1 -15 -12 -20 -11 -37 4 -11 10 -20 14 -20 9z"/>
<path d="M5907 5493 c-14 -15 -21 -15 -37 -5 -29 18 -35 15 -15 -8 14 -16 16
-23 7 -32 -20 -20 -13 -32 7 -14 17 16 20 16 35 0 9 -9 19 -14 22 -12 2 3 -2
11 -11 18 -16 14 -20 40 -6 40 5 0 11 7 15 15 7 19 4 19 -17 -2z"/>
<path d="M5147 5454 c13 -20 14 -29 5 -32 -6 -2 -12 -8 -12 -14 0 -6 8 -4 18
5 17 15 19 15 36 -4 9 -12 20 -18 23 -15 4 3 -1 14 -10 24 -15 16 -15 20 -1
40 17 25 3 30 -16 7 -11 -14 -15 -14 -37 0 l-24 16 18 -27z"/>
<path d="M5516 5335 c15 -23 15 -26 0 -41 -10 -9 -14 -19 -11 -22 3 -3 11 0
17 6 16 16 45 15 51 0 2 -7 8 -9 13 -5 5 5 1 14 -9 22 -17 12 -14 45 4 45 5 0
9 5 9 12 0 6 -9 3 -20 -7 -19 -17 -21 -17 -38 -2 -27 25 -35 21 -16 -8z"/>
<path d="M6038 5338 c15 -15 16 -48 2 -48 -5 0 -10 -7 -10 -17 0 -14 2 -14 20
2 16 14 23 16 32 7 19 -19 29 -14 16 8 -10 16 -10 24 0 40 7 11 8 20 3 20 -6
0 -15 -8 -21 -17 -10 -17 -10 -17 -20 0 -6 9 -16 17 -22 17 -9 0 -9 -3 0 -12z"/>
<path d="M4800 5322 c0 -4 5 -13 12 -20 9 -9 7 -16 -7 -32 -20 -23 -14 -26 15
-8 15 10 23 9 39 -6 12 -11 21 -14 21 -9 0 6 -7 16 -15 23 -14 11 -14 15 0 36
16 25 8 33 -13 12 -10 -10 -17 -10 -32 0 -11 7 -20 9 -20 4z"/>
<path d="M5328 5308 c17 -17 15 -39 -5 -54 -10 -7 -13 -14 -6 -14 6 0 15 5 18
10 9 14 42 12 48 -2 2 -7 8 -10 12 -6 4 4 2 15 -5 24 -11 12 -11 20 -2 35 7
10 8 19 3 19 -5 0 -11 -6 -14 -12 -3 -10 -9 -10 -26 0 -26 15 -39 16 -23 0z"/>
<path d="M5780 5221 c0 -5 7 -14 15 -21 14 -12 14 -15 -1 -31 -19 -21 -6 -27
14 -7 9 9 15 9 24 0 19 -19 29 -14 16 8 -10 15 -10 22 0 32 19 19 14 29 -8 16
-16 -10 -24 -10 -40 0 -11 7 -20 8 -20 3z"/>
<path d="M5082 5180 c10 -15 10 -22 0 -32 -20 -20 -14 -28 13 -16 19 9 28 9
37 0 21 -21 32 -13 13 8 -14 16 -16 23 -7 32 19 19 14 29 -8 16 -15 -10 -22
-10 -32 0 -19 19 -29 14 -16 -8z"/>
<path d="M5607 5103 c-14 -15 -21 -15 -37 -5 -29 18 -36 15 -15 -8 17 -19 17
-21 0 -40 -19 -21 -7 -28 13 -8 10 10 17 10 32 0 28 -17 32 -15 18 7 -9 15 -9
25 0 45 14 31 12 32 -11 9z"/>
<path d="M5290 4959 c0 -8 5 -20 12 -27 9 -9 9 -15 0 -24 -20 -20 -13 -32 8
-13 19 17 21 17 40 0 11 -10 20 -13 20 -8 0 6 -7 16 -15 23 -14 12 -14 15 1
31 18 20 6 27 -14 7 -9 -9 -16 -7 -32 7 -16 14 -20 15 -20 4z"/>
<path d="M5040 4894 c0 -6 6 -16 12 -22 10 -10 10 -17 0 -33 -16 -26 -5 -41
12 -17 11 16 15 16 34 2 22 -15 22 -15 10 11 -9 19 -9 28 0 37 21 21 13 32 -8
13 -19 -17 -21 -17 -40 0 -11 10 -20 14 -20 9z"/>
<path d="M4840 4875 c7 -9 10 -25 6 -40 -6 -23 -5 -25 13 -16 14 8 22 7 31 -4
7 -8 17 -15 23 -15 5 0 2 9 -9 21 -15 17 -16 23 -6 40 12 18 11 19 -8 7 -18
-11 -23 -10 -34 5 -7 9 -17 17 -21 17 -4 0 -2 -7 5 -15z"/>
<path d="M4387 4853 c-13 -14 -19 -14 -32 -3 -20 17 -32 5 -15 -15 11 -13 9
-19 -6 -37 l-19 -22 28 17 c25 16 29 16 43 2 20 -20 31 -11 14 11 -11 13 -11
19 -1 36 16 26 10 32 -12 11z"/>
<path d="M4580 4652 c0 -4 6 -14 13 -21 10 -10 8 -15 -7 -27 -25 -18 -14 -29
12 -13 17 10 23 10 36 0 19 -16 22 -1 4 17 -9 9 -9 15 0 24 18 18 15 33 -4 17
-12 -10 -20 -10 -35 -1 -10 7 -19 9 -19 4z"/>
<path d="M3135 3828 c28 -16 35 -28 35 -66 0 -32 -33 -95 -63 -120 -26 -22
-70 -11 -81 20 -13 37 8 104 44 140 32 31 27 37 -7 9 -85 -71 -80 -191 9 -191
37 0 99 60 115 113 12 39 -4 79 -37 97 -26 14 -40 12 -15 -2z"/>
<path d="M8509 3790 c5 -14 13 -42 16 -63 6 -40 29 -58 48 -38 9 9 8 11 -5 6
-14 -6 -19 1 -24 35 -4 22 -15 51 -26 63 l-18 22 9 -25z"/>
<path d="M8561 3796 c-10 -12 -8 -13 8 -9 12 3 21 9 21 14 0 14 -16 11 -29 -5z"/>
<path d="M8460 3680 c0 -5 5 -10 10 -10 6 0 10 5 10 10 0 6 -4 10 -10 10 -5 0
-10 -4 -10 -10z"/>
<path d="M2910 2876 c0 -15 -7 -26 -17 -29 -10 -3 11 -5 47 -5 36 0 59 2 52 5
-10 4 -10 9 3 23 9 10 12 21 7 24 -6 3 -17 -5 -26 -19 -9 -14 -26 -25 -37 -25
-17 0 -20 5 -17 25 3 14 1 25 -3 25 -5 0 -9 -11 -9 -24z"/>
<path d="M4405 2880 c6 -17 2 -20 -32 -21 l-38 -2 35 -6 c31 -5 35 -10 33 -34
-1 -15 2 -27 8 -27 5 0 9 14 9 30 0 28 3 30 36 30 19 0 33 4 30 8 -3 5 -20 7
-37 4 -26 -4 -31 -2 -26 11 3 9 -1 18 -9 21 -12 4 -14 1 -9 -14z"/>
<path d="M2849 2873 c11 -21 10 -23 -18 -23 -21 0 -32 -6 -36 -21 -4 -11 -5
-23 -2 -26 3 -2 8 5 12 16 4 15 15 21 36 21 33 0 39 20 12 41 -15 13 -15 12
-4 -8z"/>
<path d="M3593 2868 c-2 -18 0 -20 7 -8 12 18 13 30 2 30 -4 0 -9 -10 -9 -22z"/>
<path d="M3766 2883 c-3 -3 2 -12 11 -18 12 -9 18 -29 19 -64 1 -57 14 -84 14
-30 0 19 5 40 10 45 8 8 2 20 -18 42 -16 17 -32 29 -36 25z"/>
<path d="M3948 2861 c-2 -18 -2 -48 2 -65 l7 -31 4 35 c2 19 2 49 -1 65 l-6
30 -6 -34z"/>
<path d="M5629 2855 c-3 -22 -3 -51 1 -65 7 -25 7 -25 11 5 2 17 2 46 -1 65
l-6 35 -5 -40z"/>
<path d="M1961 2815 c-36 -78 -36 -76 -16 -69 8 4 13 9 11 13 -6 10 22 71 33
71 5 0 12 -18 16 -40 4 -22 11 -42 16 -46 5 -3 9 -18 9 -35 0 -25 4 -29 26
-29 20 0 24 3 17 13 -6 6 -23 48 -38 92 -16 44 -31 84 -35 88 -4 5 -22 -22
-39 -58z"/>
<path d="M3677 2851 c-9 -16 -17 -46 -17 -68 l0 -38 52 4 c29 2 47 6 41 8 -7
3 -13 20 -13 39 0 19 -4 34 -8 34 -4 0 -6 -16 -4 -35 4 -33 3 -35 -27 -35 -26
0 -31 4 -31 23 0 12 9 39 19 60 22 44 13 50 -12 8z"/>
<path d="M4268 2872 l-38 -3 0 -111 c0 -61 3 -108 7 -105 3 4 5 32 4 62 l-2
55 32 0 c30 0 30 -1 28 -45 -2 -24 0 -47 3 -51 4 -3 8 40 10 96 2 56 1 103 -2
104 -3 1 -22 0 -42 -2z m32 -52 c0 -38 -2 -40 -30 -40 -28 0 -30 2 -30 40 0
38 2 40 30 40 28 0 30 -2 30 -40z"/>
<path d="M5275 2861 c-6 -20 2 -121 11 -130 2 -2 4 14 4 37 0 27 5 42 13 42 8
0 8 3 -2 9 -8 5 -12 19 -9 35 6 30 -8 35 -17 7z"/>
<path d="M5361 2845 c-12 -20 -18 -41 -15 -47 4 -5 15 9 25 33 24 53 18 61
-10 14z"/>
<path d="M5433 2873 c9 -2 23 -2 30 0 6 3 -1 5 -18 5 -16 0 -22 -2 -12 -5z"/>
<path d="M3016 2836 c3 -8 12 -12 20 -9 17 6 9 23 -11 23 -8 0 -12 -6 -9 -14z"/>
<path d="M4065 2790 c0 -78 12 -78 17 0 2 36 -1 60 -7 60 -6 0 -10 -27 -10
-60z"/>
<path d="M4143 2838 c2 -7 7 -13 12 -13 5 0 10 6 13 13 2 6 -4 12 -13 12 -9 0
-15 -6 -12 -12z"/>
<path d="M5475 2841 c3 -6 8 -28 11 -50 5 -39 5 -40 -28 -44 l-33 -4 38 -1
c37 -2 37 -2 37 39 0 29 3 38 13 33 6 -4 3 2 -7 14 -19 22 -43 31 -31 13z"/>
<path d="M3588 2828 c-3 -7 -2 -24 2 -38 6 -25 6 -25 12 5 7 30 -5 58 -14 33z"/>
<path d="M4008 2799 c5 -47 7 -47 16 4 5 27 4 37 -6 37 -10 0 -12 -12 -10 -41z"/>
<path d="M5751 2823 c0 -11 3 -13 6 -5 7 18 72 15 79 -3 4 -9 3 -50 -1 -91
l-7 -76 -39 4 c-23 2 -40 -1 -43 -8 -3 -8 9 -10 40 -6 29 3 44 1 44 -7 0 -6 3
-11 8 -11 4 0 8 50 10 110 l3 110 -50 0 c-42 0 -51 -3 -50 -17z"/>
<path d="M5693 2780 c-2 -65 14 -65 19 0 2 29 -1 50 -7 50 -5 0 -11 -23 -12
-50z"/>
<path d="M5408 2780 c-2 -22 0 -40 4 -40 5 0 8 18 8 40 0 22 -2 40 -4 40 -2 0
-6 -18 -8 -40z"/>
<path d="M2850 2780 c0 -16 4 -30 9 -30 4 0 8 13 7 30 -1 39 -16 39 -16 0z"/>
<path d="M2965 2780 c0 -16 3 -30 6 -30 4 0 9 14 11 30 3 17 0 30 -6 30 -6 0
-11 -13 -11 -30z"/>
<path d="M3767 2790 c-3 -11 -3 -20 -1 -20 2 0 8 9 14 20 6 11 7 20 2 20 -6 0
-12 -9 -15 -20z"/>
<path d="M4480 2800 c0 -5 5 -10 11 -10 5 0 7 5 4 10 -3 6 -8 10 -11 10 -2 0
-4 -4 -4 -10z"/>
<path d="M3295 2783 c12 -11 15 -25 11 -46 -3 -17 -3 -27 1 -24 4 4 13 -5 20
-20 12 -27 13 -26 8 19 -4 27 -2 49 5 53 5 3 10 12 10 18 0 7 -4 6 -10 -3 -9
-13 -12 -13 -21 3 -5 9 -17 17 -25 17 -13 0 -13 -2 1 -17z"/>
<path d="M3360 2790 c0 -5 5 -10 10 -10 6 0 10 5 10 10 0 6 -4 10 -10 10 -5 0
-10 -4 -10 -10z"/>
<path d="M3696 2787 c3 -10 9 -15 12 -12 3 3 0 11 -7 18 -10 9 -11 8 -5 -6z"/>
<path d="M4153 2760 c0 -25 2 -35 4 -22 2 12 2 32 0 45 -2 12 -4 2 -4 -23z"/>
<path d="M5457 2793 c-4 -3 -7 -11 -7 -17 0 -6 5 -5 12 2 6 6 9 14 7 17 -3 3
-9 2 -12 -2z"/>
<path d="M4690 2781 c0 -6 5 -13 11 -16 6 -4 8 -14 5 -22 -3 -8 -1 -11 4 -8
16 10 12 55 -5 55 -8 0 -15 -4 -15 -9z"/>
<path d="M4968 2778 c7 -7 12 -37 12 -68 0 -44 -5 -61 -19 -74 -11 -10 -25
-15 -30 -11 -6 3 -11 -1 -11 -10 0 -12 4 -13 18 -6 44 24 62 52 62 94 0 58
-10 87 -28 87 -12 0 -13 -3 -4 -12z"/>
<path d="M5056 2776 c3 -8 0 -25 -6 -38 -11 -22 -10 -22 4 -4 18 22 21 56 6
56 -5 0 -7 -6 -4 -14z"/>
<path d="M5380 2781 c0 -6 4 -13 10 -16 6 -3 7 1 4 9 -7 18 -14 21 -14 7z"/>
<path d="M6026 2771 c-3 -4 6 -6 21 -3 23 4 25 2 20 -18 -4 -16 -3 -20 5 -12
6 6 8 18 5 26 -7 17 -42 22 -51 7z"/>
<path d="M2888 2763 c7 -3 16 -2 19 1 4 3 -2 6 -13 5 -11 0 -14 -3 -6 -6z"/>
<path d="M4439 2758 c0 -7 0 -37 1 -65 1 -49 0 -53 -21 -53 -26 0 -23 -7 6
-12 17 -3 21 4 25 47 4 40 10 52 30 62 l25 13 -23 0 c-13 0 -20 4 -17 10 3 6
-1 10 -9 10 -9 0 -16 -6 -17 -12z"/>
<path d="M5749 2763 c0 -5 -2 -22 -5 -40 -2 -18 1 -35 6 -38 6 -4 10 12 10 39
0 25 -2 46 -5 46 -3 0 -5 -3 -6 -7z"/>
<path d="M5621 2737 c-1 -15 -8 -44 -16 -65 -13 -32 -13 -35 0 -18 17 22 30
79 22 98 -3 7 -6 0 -6 -15z"/>
<path d="M4011 2723 c0 -17 -6 -44 -11 -58 -8 -21 -14 -25 -33 -20 -17 6 -19
4 -11 -5 32 -33 71 24 61 89 -4 23 -4 23 -6 -6z"/>
<path d="M5358 2743 c6 -2 18 -2 25 0 6 3 1 5 -13 5 -14 0 -19 -2 -12 -5z"/>
<path d="M2947 2732 c-40 -2 -55 -6 -50 -15 4 -6 8 -24 10 -39 3 -26 1 -28
-37 -28 l-40 0 3 40 c2 22 0 40 -5 40 -4 0 -8 -18 -8 -40 0 -22 -1 -43 -2 -46
-2 -3 41 -6 94 -7 l96 -2 4 48 c2 27 1 50 -2 50 -3 1 -31 1 -63 -1z m51 -47
c0 -34 -1 -35 -38 -35 -37 0 -38 1 -38 35 0 34 1 35 38 35 37 0 38 -1 38 -35z"/>
<path d="M1912 2705 c-10 -21 -9 -25 3 -25 9 0 15 10 15 25 0 14 -2 25 -3 25
-2 0 -9 -11 -15 -25z"/>
<path d="M3590 2713 c0 -7 -7 -13 -15 -13 -8 0 -15 -4 -15 -10 0 -5 2 -10 4
-10 5 0 76 41 76 43 0 1 -11 2 -25 2 -14 0 -25 -6 -25 -12z"/>
<path d="M3780 2680 c0 -27 5 -50 10 -50 6 0 10 23 10 50 0 28 -4 50 -10 50
-5 0 -10 -22 -10 -50z"/>
<path d="M3678 2676 c-2 -25 -1 -46 2 -46 11 0 34 20 24 20 -6 0 -11 14 -12
31 -1 48 -9 45 -14 -5z"/>
<path d="M4060 2711 c0 -6 4 -13 10 -16 6 -3 7 1 4 9 -7 18 -14 21 -14 7z"/>
<path d="M5270 2704 c0 -8 -7 -14 -15 -14 -8 0 -15 -4 -15 -10 0 -5 3 -10 6
-10 6 0 74 40 74 43 0 1 -11 3 -25 3 -15 1 -25 -3 -25 -12z"/>
<path d="M5360 2676 l0 -44 60 -4 60 -3 0 48 c0 26 -4 47 -8 47 -5 0 -7 -18
-6 -40 l2 -40 -48 0 -48 0 2 40 c1 22 -1 40 -6 40 -4 0 -8 -20 -8 -44z"/>
<path d="M5020 2699 c0 -5 5 -7 10 -4 6 3 10 8 10 11 0 2 -4 4 -10 4 -5 0 -10
-5 -10 -11z"/>
<path d="M2130 2684 c0 -8 5 -12 10 -9 6 3 10 10 10 16 0 5 -4 9 -10 9 -5 0
-10 -7 -10 -16z"/>
<path d="M5692 2680 c0 -14 2 -19 5 -12 2 6 2 18 0 25 -3 6 -5 1 -5 -13z"/>
<path d="M3905 2654 c-9 -14 -14 -28 -12 -31 3 -3 13 9 22 26 19 38 14 41 -10
5z"/>
<path d="M4067 2653 c-4 -3 -7 -11 -7 -17 0 -6 5 -5 12 2 6 6 9 14 7 17 -3 3
-9 2 -12 -2z"/>
<path d="M4145 2650 c3 -5 8 -10 11 -10 2 0 4 5 4 10 0 6 -5 10 -11 10 -5 0
-7 -4 -4 -10z"/>
<path d="M5655 2641 c-25 -5 -27 -8 -12 -14 27 -10 34 -9 41 8 3 8 4 14 3 14
-1 -1 -15 -4 -32 -8z"/>
<path d="M2902 2122 c3 -26 1 -27 -46 -30 -47 -3 -76 -21 -75 -47 0 -5 7 0 16
13 14 20 23 22 119 22 94 0 103 -2 97 -17 -6 -16 -5 -16 10 -4 26 21 20 31
-20 31 -34 0 -35 1 -20 18 18 20 22 32 9 32 -4 0 -12 -10 -17 -22 -6 -13 -18
-24 -29 -26 -22 -5 -39 18 -25 34 6 8 4 14 -6 18 -13 5 -16 0 -13 -22z"/>
<path d="M3945 2130 c-3 -5 -1 -10 4 -10 6 0 11 5 11 10 0 6 -2 10 -4 10 -3 0
-8 -4 -11 -10z"/>
<path d="M2846 2117 c3 -10 9 -15 12 -12 3 3 0 11 -7 18 -10 9 -11 8 -5 -6z"/>
<path d="M3590 2100 c0 -17 -5 -30 -12 -30 -9 0 -10 -3 -2 -8 6 -4 14 -14 17
-22 4 -12 6 -12 6 2 1 9 9 19 19 21 15 4 15 5 -2 6 -14 1 -17 7 -14 31 3 17 1
30 -4 30 -4 0 -8 -13 -8 -30z"/>
<path d="M3751 2123 c26 -7 45 -58 40 -110 -1 -7 -12 -13 -26 -13 -22 0 -25 4
-25 35 0 19 -4 35 -9 35 -6 0 -7 -16 -4 -35 5 -34 5 -35 -26 -35 -28 0 -31 3
-31 31 0 32 15 69 34 81 8 6 8 8 -1 8 -24 0 -50 -53 -45 -92 l4 -38 72 3 c71
2 71 2 74 32 2 17 7 34 11 38 11 11 -47 67 -67 66 -15 -1 -15 -2 -1 -6z"/>
<path d="M4400 2116 c0 -10 -13 -16 -37 -19 l-38 -4 39 -1 c37 -2 38 -3 34
-32 -3 -19 -1 -29 6 -27 6 2 10 16 8 30 -3 25 -1 27 33 27 20 0 34 4 31 8 -3
5 -19 7 -36 4 -29 -4 -43 11 -17 21 7 3 5 6 -5 6 -10 1 -18 -5 -18 -13z"/>
<path d="M5260 2122 c0 -5 7 -15 15 -22 8 -7 15 -8 15 -2 0 5 -7 15 -15 22 -8
7 -15 8 -15 2z"/>
<path d="M5437 2123 c-10 -10 -8 -55 2 -49 5 3 9 17 9 31 0 27 -1 28 -11 18z"/>
<path d="M5480 2115 c6 -8 9 -19 5 -25 -7 -11 8 -14 18 -4 9 9 -11 44 -25 44
-7 0 -6 -5 2 -15z"/>
<path d="M5710 2120 c0 -5 4 -10 9 -10 6 0 13 5 16 10 3 6 -1 10 -9 10 -9 0
-16 -4 -16 -10z"/>
<path d="M1907 2108 c6 -7 10 -51 10 -98 l0 -85 29 -2 c16 -1 21 1 12 3 -14 4
-18 16 -18 50 0 25 5 44 11 44 6 0 4 6 -4 14 -19 19 -10 76 12 76 46 -1 62
-12 59 -44 -2 -24 -8 -32 -28 -34 -23 -4 -23 -5 8 -18 28 -11 33 -18 30 -41
-2 -17 -13 -33 -28 -41 l-25 -14 30 7 c16 4 36 11 42 17 18 14 16 48 -3 69
-12 14 -13 21 -3 37 26 42 -15 72 -98 72 -35 0 -43 -3 -36 -12z"/>
<path d="M4268 2113 c-34 -4 -36 -6 -40 -43 -5 -57 1 -66 42 -60 30 4 35 9 35
33 1 15 -3 27 -7 27 -4 0 -8 -11 -8 -25 0 -20 -5 -25 -25 -25 -22 0 -25 4 -25
40 0 35 3 40 23 40 13 0 28 -5 35 -12 9 -9 12 -7 12 10 0 12 -1 21 -2 20 -2
-1 -19 -3 -40 -5z"/>
<path d="M4062 2050 c1 -44 1 -44 5 -7 4 36 6 37 43 37 32 0 39 -4 43 -22 3
-18 5 -17 6 7 1 30 0 30 -49 30 l-50 0 2 -45z"/>
<path d="M5320 2063 c0 -43 5 -41 13 5 4 18 2 32 -3 32 -6 0 -10 -16 -10 -37z"/>
<path d="M5710 2085 c0 -8 5 -15 10 -15 6 0 10 7 10 15 0 8 -4 15 -10 15 -5 0
-10 -7 -10 -15z"/>
<path d="M3925 2079 c-20 -4 -23 -7 -9 -8 11 0 24 -5 30 -10 5 -6 14 -4 21 4
16 18 -2 24 -42 14z"/>
<path d="M3996 2072 c7 -4 14 -18 17 -32 4 -21 4 -20 6 8 1 24 -3 32 -16 32
-12 0 -14 -3 -7 -8z"/>
<path d="M5630 2054 c-6 -15 -20 -41 -32 -58 -15 -21 -17 -27 -5 -18 22 18 68
102 56 102 -5 0 -14 -12 -19 -26z"/>
<path d="M5814 2051 c16 -17 32 -29 34 -26 7 7 -18 34 -42 47 -16 8 -14 3 8
-21z"/>
<path d="M2966 2052 c-2 -4 -1 -14 5 -22 7 -12 9 -10 9 8 0 23 -5 28 -14 14z"/>
<path d="M3762 2032 c-11 -25 -11 -25 4 -10 9 9 15 21 13 27 -2 6 -10 -2 -17
-17z"/>
<path d="M2851 2024 c-1 -29 1 -31 27 -25 24 5 25 6 5 9 -13 2 -23 12 -26 25
-3 16 -5 13 -6 -9z"/>
<path d="M3343 2028 c-20 -19 -23 -20 -29 -5 -11 30 -23 18 -14 -14 5 -18 7
-36 4 -40 -3 -5 -1 -9 5 -9 5 0 11 -10 13 -22 2 -13 8 -21 13 -18 6 3 8 10 6
15 -2 6 -6 25 -9 42 -4 28 0 34 23 43 14 5 23 14 20 20 -8 13 -7 13 -32 -12z"/>
<path d="M5291 2034 c0 -11 3 -14 6 -6 3 7 2 16 -1 19 -3 4 -6 -2 -5 -13z"/>
<path d="M3690 2030 c0 -5 5 -10 11 -10 5 0 7 5 4 10 -3 6 -8 10 -11 10 -2 0
-4 -4 -4 -10z"/>
<path d="M4965 2023 c4 -10 10 -42 13 -71 4 -43 7 -50 18 -41 8 7 11 16 6 23
-5 6 -10 29 -11 51 -3 45 -7 55 -23 55 -6 0 -7 -7 -3 -17z"/>
<path d="M5050 2033 c0 -4 5 -15 10 -23 8 -13 10 -13 10 2 0 9 -4 20 -10 23
-5 3 -10 3 -10 -2z"/>
<path d="M5482 2011 c-6 -17 -16 -31 -21 -31 -6 0 -11 -12 -11 -27 0 -24 4
-20 26 25 14 30 24 56 21 58 -3 3 -9 -9 -15 -25z"/>
<path d="M4690 2021 c0 -6 5 -13 10 -16 6 -3 10 1 10 9 0 9 -4 16 -10 16 -5 0
-10 -4 -10 -9z"/>
<path d="M4440 2005 c0 -10 -16 -15 -62 -18 l-63 -3 63 -2 63 -2 -3 -47 c-3
-42 -6 -48 -25 -47 -28 1 -29 -2 -2 -17 29 -15 39 2 39 64 0 40 3 47 20 47 11
0 20 4 20 9 0 5 -10 7 -22 3 -17 -4 -20 -2 -15 11 4 10 2 17 -3 17 -6 0 -10
-7 -10 -15z"/>
<path d="M5323 1980 c0 -25 2 -35 4 -22 2 12 2 32 0 45 -2 12 -4 2 -4 -23z"/>
<path d="M2950 2006 c0 -2 7 -6 15 -10 8 -3 15 -1 15 4 0 6 -7 10 -15 10 -8 0
-15 -2 -15 -4z"/>
<path d="M4150 1955 l0 -55 -39 0 c-37 0 -40 2 -44 33 -3 23 -4 18 -5 -18 -1
-32 2 -45 7 -36 6 9 22 12 50 9 l41 -4 0 63 c0 35 -2 63 -5 63 -3 0 -5 -25 -5
-55z"/>
<path d="M5276 1995 c-3 -9 -6 -22 -5 -28 0 -7 5 -1 10 12 5 13 8 26 5 28 -2
2 -6 -3 -10 -12z"/>
<path d="M5774 1970 c-29 -39 -107 -90 -138 -90 -9 0 -16 -4 -16 -10 0 -10 13
-7 75 21 37 16 138 119 118 119 -5 0 -22 -18 -39 -40z"/>
<path d="M4006 1985 c-3 -8 -1 -15 4 -15 6 0 10 7 10 15 0 8 -2 15 -4 15 -2 0
-6 -7 -10 -15z"/>
<path d="M5358 1993 c7 -3 16 -2 19 1 4 3 -2 6 -13 5 -11 0 -14 -3 -6 -6z"/>
<path d="M5400 1958 c0 -49 9 -45 16 6 2 20 0 36 -6 36 -5 0 -10 -19 -10 -42z"/>
<path d="M4296 1978 c-11 -36 -13 -58 -6 -63 4 -3 10 13 12 35 4 40 1 51 -6
28z"/>
<path d="M5045 1979 c-4 -6 -5 -12 -2 -15 2 -3 7 2 10 11 7 17 1 20 -8 4z"/>
<path d="M5710 1981 c0 -6 -10 -11 -22 -11 -19 0 -20 -2 -8 -10 8 -5 20 -10
26 -10 15 0 26 28 14 35 -6 4 -10 1 -10 -4z"/>
<path d="M6020 1978 c0 -5 11 -8 25 -8 14 0 25 3 25 8 0 4 -11 7 -25 7 -14 0
-25 -3 -25 -7z"/>
<path d="M2810 1928 l0 -53 97 5 98 5 3 48 c2 30 -1 47 -8 47 -7 0 -10 -16 -8
-42 l3 -43 -40 0 -40 0 3 38 c2 22 -1 37 -7 37 -6 0 -11 -18 -11 -40 0 -39 -1
-40 -35 -40 -34 0 -34 0 -32 42 1 26 -3 43 -10 45 -9 3 -13 -10 -13 -49z"/>
<path d="M4220 1963 c0 -10 5 -25 10 -33 8 -12 10 -9 10 12 0 15 -4 30 -10 33
-5 3 -10 -2 -10 -12z"/>
<path d="M5351 1963 c-1 -12 4 -25 9 -28 12 -7 12 2 0 30 -8 19 -9 19 -9 -2z"/>
<path d="M3590 1958 c0 -5 -10 -13 -22 -18 -21 -8 -21 -9 -3 -9 11 0 30 7 43
17 22 17 22 18 2 18 -11 0 -20 -4 -20 -8z"/>
<path d="M3670 1921 l0 -48 51 5 c37 3 54 1 60 -9 6 -9 9 0 9 28 0 23 3 48 6
57 3 9 1 16 -5 16 -6 0 -11 -17 -11 -40 l0 -40 -48 0 c-48 0 -49 0 -50 32 0
18 5 36 11 40 8 5 6 8 -5 8 -15 0 -18 -9 -18 -49z"/>
<path d="M4000 1929 c0 -35 -13 -51 -35 -43 -13 5 -16 4 -11 -4 4 -7 16 -12
26 -12 14 0 21 10 26 35 3 20 4 39 0 42 -3 4 -6 -5 -6 -18z"/>
<path d="M4360 1935 c7 -9 15 -13 17 -11 7 7 -7 26 -19 26 -6 0 -6 -6 2 -15z"/>
<path d="M5252 1943 c-8 -3 -10 -9 -3 -16 5 -7 11 -25 14 -42 3 -22 4 -17 6
18 0 26 0 47 -1 46 -2 0 -9 -3 -16 -6z"/>
<path d="M2110 1930 c0 -5 4 -10 9 -10 6 0 13 5 16 10 3 6 -1 10 -9 10 -9 0
-16 -4 -16 -10z"/>
<path d="M3255 1930 c-16 -7 -17 -9 -3 -9 9 -1 20 4 23 9 7 11 7 11 -20 0z"/>
<path d="M5302 1898 c-10 -30 -10 -31 3 -14 13 17 21 46 12 46 -1 0 -8 -15
-15 -32z"/>
<path d="M5396 1894 c-15 -14 -26 -27 -24 -29 2 -3 17 9 33 25 35 36 30 39 -9
4z"/>
<path d="M5470 1914 c0 -12 38 -63 40 -54 5 18 7 62 3 48 -2 -10 -8 -18 -13
-18 -5 0 -14 8 -19 18 -6 9 -11 12 -11 6z"/>
<path d="M3900 1895 c-7 -9 -10 -18 -7 -21 3 -3 10 4 17 15 13 25 8 27 -10 6z"/>
<path d="M4948 1877 c-16 -6 -28 -14 -28 -19 0 -14 17 -9 41 12 27 22 26 22
-13 7z"/>
<path d="M3805 1350 c-17 -7 -15 -9 13 -9 28 -1 32 -4 32 -29 0 -15 -5 -33
-12 -40 -7 -7 -9 -12 -5 -12 3 0 14 11 22 24 12 18 13 30 6 50 -11 27 -22 30
-56 16z"/>
<path d="M3214 1275 c-3 -19 -10 -38 -15 -41 -25 -15 -1 -24 64 -22 39 0 57 3
40 5 -36 5 -44 19 -15 26 9 3 -2 5 -26 6 -39 1 -42 3 -32 20 13 25 13 41 0 41
-5 0 -12 -16 -16 -35z m41 -45 c-3 -5 -15 -10 -26 -10 -10 0 -19 5 -19 10 0 6
12 10 26 10 14 0 23 -4 19 -10z"/>
<path d="M3073 1245 c0 -33 2 -45 4 -27 2 18 2 45 0 60 -2 15 -4 0 -4 -33z"/>
<path d="M3110 1273 c0 -22 2 -25 10 -13 13 20 13 40 0 40 -5 0 -10 -12 -10
-27z"/>
<path d="M4498 1281 c-9 -11 -14 -22 -11 -25 4 -3 13 3 21 15 18 26 11 34 -10
10z"/>
<path d="M4627 1270 c3 -11 9 -17 14 -15 10 7 1 35 -11 35 -5 0 -6 -9 -3 -20z"/>
<path d="M4690 1279 c0 -5 5 -7 10 -4 6 3 10 8 10 11 0 2 -4 4 -10 4 -5 0 -10
-5 -10 -11z"/>
<path d="M1916 1249 c-79 -94 32 -225 121 -143 l28 25 -31 -21 c-24 -17 -39
-20 -62 -15 -43 9 -56 29 -56 86 0 37 6 54 24 74 13 14 19 25 13 25 -6 0 -23
-14 -37 -31z"/>
<path d="M2028 1255 c9 -11 18 -22 19 -24 2 -2 3 7 3 20 0 18 -5 25 -20 25
-18 0 -18 -1 -2 -21z"/>
<path d="M4170 1208 c0 -39 2 -69 5 -67 8 8 10 139 3 139 -5 0 -8 -32 -8 -72z"/>
<path d="M4520 1250 c-6 -11 -21 -25 -33 -30 l-22 -9 22 0 c18 -1 23 -8 26
-38 3 -33 4 -31 5 13 1 27 7 55 14 62 6 6 9 14 6 18 -4 3 -12 -4 -18 -16z"/>
<path d="M3142 1226 c7 -8 15 -12 17 -11 5 6 -10 25 -20 25 -5 0 -4 -6 3 -14z"/>
<path d="M4600 1232 l35 -5 -35 -7 -35 -7 38 -2 c27 -1 37 3 37 14 0 11 -10
15 -37 13 l-38 -1 35 -5z"/>
<path d="M3790 1219 c0 -5 18 -9 40 -9 22 0 40 3 40 8 0 4 -18 8 -40 8 -22 1
-40 -2 -40 -7z"/>
<path d="M4670 1220 c-7 -5 -3 -9 12 -12 27 -5 58 1 58 10 0 9 -56 11 -70 2z"/>
<path d="M4203 1213 c4 -3 36 -5 72 -4 75 3 79 -4 40 -61 -18 -26 -30 -35 -42
-31 -12 5 -14 3 -8 -7 5 -8 -1 -20 -16 -33 l-24 -19 28 17 c25 15 31 15 51 1
38 -24 98 -47 94 -35 -2 6 -21 17 -42 24 -52 18 -64 31 -48 53 16 22 52 90 52
97 0 3 -37 5 -82 5 -45 0 -78 -3 -75 -7z"/>
<path d="M2792 1173 c5 -20 8 -53 6 -75 -2 -21 -3 -38 -3 -38 0 0 12 13 27 29
22 23 24 28 10 27 -13 -1 -18 9 -20 47 -2 31 -8 47 -17 47 -11 0 -11 -7 -3
-37z"/>
<path d="M2870 1203 c0 -5 5 -15 10 -23 8 -12 10 -11 10 8 0 12 -4 22 -10 22
-5 0 -10 -3 -10 -7z"/>
<path d="M3100 1207 c0 -5 5 -17 11 -29 13 -25 3 -72 -14 -62 -9 5 -9 4 0 -6
15 -16 33 -4 33 21 0 14 6 19 18 17 9 -1 17 2 18 7 0 6 -7 9 -17 7 -11 -2 -23
7 -33 25 -8 15 -15 24 -16 20z"/>
<path d="M3642 1193 c8 -10 18 -26 21 -35 7 -19 -30 -71 -44 -63 -5 4 -9 1 -9
-4 0 -17 11 -13 37 11 l24 22 6 -22 c5 -22 14 -27 26 -16 3 4 -1 13 -9 21 -8
9 -14 25 -13 37 4 28 -18 66 -38 66 -14 0 -15 -2 -1 -17z"/>
<path d="M3710 1200 c-12 -8 -10 -10 8 -10 13 0 20 4 17 10 -7 12 -6 12 -25 0z"/>
<path d="M3299 1194 c-1 -5 -1 -21 -1 -36 -1 -26 -4 -28 -39 -28 -37 0 -39 2
-39 32 0 42 -6 33 -14 -19 -3 -25 -1 -43 4 -43 6 0 10 5 10 10 0 6 18 10 40
10 28 0 40 -4 40 -14 0 -8 -6 -16 -12 -19 -7 -2 -10 -8 -5 -12 4 -5 11 -4 16
1 11 11 18 111 8 120 -4 4 -7 3 -8 -2z"/>
<path d="M4480 1184 c0 -8 5 -12 10 -9 6 4 8 11 5 16 -9 14 -15 11 -15 -7z"/>
<path d="M4630 1171 c0 -17 2 -31 4 -31 8 0 13 51 5 56 -5 3 -9 -9 -9 -25z"/>
<path d="M4220 1181 c0 -6 4 -13 10 -16 6 -3 7 1 4 9 -7 18 -14 21 -14 7z"/>
<path d="M4564 1173 c-3 -10 -11 -30 -19 -45 -8 -15 -11 -27 -7 -27 17 3 30
-2 48 -19 11 -10 33 -22 49 -25 17 -3 24 -4 18 -1 -16 7 -17 31 -1 40 7 4 28
11 48 15 l35 8 -40 -1 c-22 0 -58 0 -80 1 -41 1 -41 1 -37 36 4 36 -5 48 -14
18z m74 -75 c-7 -19 -31 -21 -53 -4 -19 15 -18 15 18 16 27 0 37 -4 35 -12z"/>
<path d="M4667 1183 c-13 -13 -7 -25 7 -14 11 10 15 8 19 -6 4 -14 5 -13 6 5
1 21 -18 30 -32 15z"/>
<path d="M4957 1161 c-4 -16 -11 -22 -21 -18 -9 4 -16 2 -16 -3 0 -6 9 -10 20
-10 22 0 35 20 28 42 -3 7 -7 2 -11 -11z"/>
<path d="M3069 1085 c-6 -40 -4 -53 7 -43 3 3 4 23 2 44 l-3 39 -6 -40z"/>
<path d="M2106 1101 c-4 -7 -5 -15 -2 -18 9 -9 19 4 14 18 -4 11 -6 11 -12 0z"/>
<path d="M3143 1072 c-29 -28 -30 -42 -3 -17 20 18 22 18 49 2 35 -21 46 -22
29 -3 -7 8 -16 12 -20 10 -4 -2 -13 4 -20 13 -12 17 -14 17 -35 -5z"/>
<path d="M4500 1090 c-9 -6 -10 -10 -3 -10 6 0 15 5 18 10 8 12 4 12 -15 0z"/>
<path d="M4190 1045 c-14 -8 -20 -14 -14 -15 5 0 19 7 30 15 24 18 16 19 -16
0z"/>
<path d="M2775 1039 c-4 -6 -13 -8 -21 -5 -8 3 -14 -1 -14 -9 0 -21 14 -19 35
5 10 11 15 20 12 20 -3 0 -9 -5 -12 -11z"/>
<path d="M3275 1039 c18 -5 33 -5 39 1 7 7 -4 10 -29 9 -40 -1 -40 -1 -10 -10z"/>
<path d="M4688 1038 c17 -8 26 -8 34 0 9 9 4 12 -22 11 -33 0 -34 -1 -12 -11z"/>
<path d="M4495 1030 c-3 -6 1 -7 9 -4 18 7 21 14 7 14 -6 0 -13 -4 -16 -10z"/>
<path d="M3920 513 c8 -3 21 -13 28 -22 11 -14 12 -14 10 4 -2 13 -12 21 -28
22 -15 2 -19 0 -10 -4z"/>
<path d="M3060 385 c0 -49 2 -86 4 -84 7 7 10 159 3 166 -4 3 -7 -33 -7 -82z"/>
<path d="M3100 460 c-11 -7 -12 -10 -2 -10 9 0 11 -8 8 -22 l-6 -23 11 23 c7
12 16 22 21 22 5 0 6 5 3 10 -8 12 -16 12 -35 0z"/>
<path d="M3220 459 c0 -7 -13 -10 -34 -7 -19 2 -32 0 -30 -4 3 -4 16 -8 30 -8
29 0 30 -4 3 -41 -14 -20 -16 -27 -6 -23 9 3 21 19 27 35 11 26 17 29 64 31
l51 2 -48 3 c-26 2 -45 8 -42 14 4 5 1 9 -4 9 -6 0 -11 -5 -11 -11z"/>
<path d="M3932 448 c9 -7 19 -22 21 -33 3 -12 5 -8 4 10 -1 21 -8 31 -22 33
-18 3 -19 3 -3 -10z"/>
<path d="M4683 453 c9 -2 25 -2 35 0 9 3 1 5 -18 5 -19 0 -27 -2 -17 -5z"/>
<path d="M4770 440 c-6 -11 -7 -20 -3 -20 5 0 14 9 21 20 7 11 8 20 2 20 -5 0
-14 -9 -20 -20z"/>
<path d="M1895 351 l0 -101 53 0 c64 0 87 11 107 50 22 42 19 85 -9 116 -20
24 -33 28 -87 32 l-64 4 0 -101z m119 68 c21 -16 26 -29 26 -63 0 -58 -30 -96
-75 -96 -40 0 -44 12 -37 109 5 69 5 71 32 71 15 0 39 -9 54 -21z"/>
<path d="M4468 443 c7 -3 16 -2 19 1 4 3 -2 6 -13 5 -11 0 -14 -3 -6 -6z"/>
<path d="M3793 433 c15 -2 39 -2 55 0 15 2 2 4 -28 4 -30 0 -43 -2 -27 -4z"/>
<path d="M4360 405 c0 -19 2 -35 4 -35 2 0 6 16 8 35 2 19 0 35 -4 35 -4 0 -8
-16 -8 -35z"/>
<path d="M4616 423 c-6 -14 -5 -15 5 -6 7 7 10 15 7 18 -3 3 -9 -2 -12 -12z"/>
<path d="M4718 433 c7 -3 16 -2 19 1 4 3 -2 6 -13 5 -11 0 -14 -3 -6 -6z"/>
<path d="M3285 420 c-3 -5 -1 -10 4 -10 6 0 11 5 11 10 0 6 -2 10 -4 10 -3 0
-8 -4 -11 -10z"/>
<path d="M4800 419 c0 -5 5 -7 10 -4 6 3 10 8 10 11 0 2 -4 4 -10 4 -5 0 -10
-5 -10 -11z"/>
<path d="M3245 396 c0 -13 5 -22 11 -19 7 2 10 13 7 24 -7 27 -18 24 -18 -5z"/>
<path d="M4713 397 c4 -12 -2 -17 -26 -20 -31 -4 -31 -4 6 -5 37 -2 52 18 25
34 -7 5 -9 2 -5 -9z"/>
<path d="M3091 384 c0 -11 3 -14 6 -6 3 7 2 16 -1 19 -3 4 -6 -2 -5 -13z"/>
<path d="M4580 390 l-25 -6 24 -7 c24 -6 24 -6 5 -24 -11 -10 -14 -14 -7 -10
6 5 16 6 21 3 6 -3 12 6 15 19 5 30 0 34 -33 25z"/>
<path d="M4764 389 c-23 -9 -17 -11 35 -13 22 0 37 2 35 5 -7 11 -49 16 -70 8z"/>
<path d="M3294 375 c4 -12 -4 -15 -44 -15 l-50 0 0 -65 c0 -64 -10 -81 -29
-48 -9 17 -11 16 -30 -1 -12 -11 -21 -23 -21 -28 0 -5 7 -2 16 6 17 18 30 20
38 7 10 -16 62 -30 77 -20 12 8 12 10 -1 8 -37 -4 -39 1 -39 66 l1 65 45 0
c35 0 43 -3 36 -12 -5 -7 -7 -24 -4 -37 5 -18 9 -11 17 33 8 46 7 56 -4 56 -8
0 -12 -6 -8 -15z"/>
<path d="M3898 383 c7 -3 16 -2 19 1 4 3 -2 6 -13 5 -11 0 -14 -3 -6 -6z"/>
<path d="M2783 365 c15 -57 18 -117 6 -133 -8 -10 -4 -9 8 3 20 18 21 24 11
75 -6 30 -15 60 -20 65 -7 7 -8 3 -5 -10z"/>
<path d="M2869 348 c-3 -22 -1 -34 4 -29 5 5 7 21 5 37 -3 27 -4 26 -9 -8z"/>
<path d="M4280 364 c0 -8 5 -12 10 -9 6 4 8 11 5 16 -9 14 -15 11 -15 -7z"/>
<path d="M3633 363 c9 -2 18 -12 19 -21 4 -40 6 -48 16 -74 8 -18 16 -26 26
-22 14 5 14 8 0 21 -23 24 -15 77 14 81 12 2 22 8 22 13 0 15 -26 10 -41 -7
-11 -14 -13 -14 -21 0 -5 9 -19 15 -31 15 -17 -1 -18 -2 -4 -6z"/>
<path d="M3107 323 c5 -41 4 -43 -21 -43 -21 0 -26 -5 -25 -22 1 -18 2 -19 6
-5 3 12 12 17 26 15 17 -2 22 4 28 29 4 21 2 39 -7 50 -11 16 -12 12 -7 -24z"/>
<path d="M4360 331 c0 -17 2 -31 4 -31 8 0 13 51 5 56 -5 3 -9 -9 -9 -25z"/>
<path d="M4651 356 c8 -8 78 -10 85 -3 4 4 -14 7 -41 7 -27 0 -46 -2 -44 -4z"/>
<path d="M4757 353 c-4 -3 -7 -11 -7 -17 0 -6 5 -5 12 2 6 6 9 14 7 17 -3 3
-9 2 -12 -2z"/>
<path d="M4780 339 c0 -11 4 -18 10 -14 5 3 7 12 3 20 -7 21 -13 19 -13 -6z"/>
<path d="M5010 356 c0 -2 11 -6 25 -8 13 -3 22 -1 19 3 -5 9 -44 13 -44 5z"/>
<path d="M4438 343 c7 -3 16 -2 19 1 4 3 -2 6 -13 5 -11 0 -14 -3 -6 -6z"/>
<path d="M3157 333 c-4 -3 -7 -11 -7 -17 0 -6 5 -5 12 2 6 6 9 14 7 17 -3 3
-9 2 -12 -2z"/>
<path d="M4647 305 c-10 -21 -26 -37 -42 -41 -14 -3 -25 -10 -25 -15 0 -5 13
-3 30 6 27 14 32 14 56 -1 19 -13 22 -19 12 -26 -9 -7 -5 -8 12 -4 14 3 45 -2
69 -10 27 -9 48 -11 53 -6 6 6 -8 12 -36 16 -51 8 -57 17 -24 40 22 16 22 16
-12 15 -25 0 -30 -2 -17 -8 17 -6 18 -8 3 -20 -26 -22 -68 4 -64 38 2 14 7 29
12 32 4 4 4 9 -1 12 -5 4 -17 -9 -26 -28z"/>
<path d="M4785 280 c-3 -5 1 -10 9 -10 9 0 16 5 16 10 0 6 -4 10 -9 10 -6 0
-13 -4 -16 -10z"/>
<path d="M2110 260 c0 -5 7 -10 15 -10 8 0 15 5 15 10 0 6 -7 10 -15 10 -8 0
-15 -4 -15 -10z"/>
<path d="M4281 254 c0 -11 3 -14 6 -6 3 7 2 16 -1 19 -3 4 -6 -2 -5 -13z"/>
<path d="M3261 249 c18 -11 39 -11 39 0 0 5 -12 9 -26 9 -18 0 -22 -3 -13 -9z"/>
<path d="M3600 250 c0 -5 5 -10 10 -10 6 0 10 5 10 10 0 6 -4 10 -10 10 -5 0
-10 -4 -10 -10z"/>
<path d="M3061 214 c0 -11 3 -14 6 -6 3 7 2 16 -1 19 -3 4 -6 -2 -5 -13z"/>
<path d="M4358 223 c7 -3 16 -2 19 1 4 3 -2 6 -13 5 -11 0 -14 -3 -6 -6z"/>
<path d="M3278 213 c6 -2 18 -2 25 0 6 3 1 5 -13 5 -14 0 -19 -2 -12 -5z"/>
</g>
</svg>
