<?xml version="1.0" standalone="no"?>
<!DOCTYPE svg PUBLIC "-//W3C//DTD SVG 20010904//EN"
 "http://www.w3.org/TR/2001/REC-SVG-20010904/DTD/svg10.dtd">
<svg version="1.0" xmlns="http://www.w3.org/2000/svg"
 width="912.000000pt" height="878.000000pt" viewBox="0 0 912.000000 878.000000"
 preserveAspectRatio="xMidYMid meet">
<metadata>
Created by potrace 1.16, written by Peter Selinger 2001-2019
</metadata>
<g transform="translate(0.000000,878.000000) scale(0.100000,-0.100000)"
fill="#000000" stroke="none">
<path d="M126 8581 c-4 -5 3 -7 14 -4 15 4 20 0 20 -13 0 -13 3 -15 11 -7 6 6
8 16 5 22 -9 13 -43 15 -50 2z"/>
<path d="M216 8582 c-3 -5 6 -7 19 -4 21 4 25 1 25 -21 0 -14 -12 -39 -26 -56
l-26 -31 36 0 c20 0 36 4 36 9 0 4 -12 6 -26 3 l-25 -5 26 39 c14 21 24 45 23
53 -3 18 -53 28 -62 13z"/>
<path d="M4148 8510 c4 -46 2 -52 -17 -57 -11 -3 -21 -9 -21 -15 0 -11 36 8
46 24 10 15 6 80 -5 91 -5 5 -6 -15 -3 -43z"/>
<path d="M154 8525 c22 -23 16 -39 -20 -46 -29 -7 -29 -7 -3 -8 47 -2 69 59
25 67 -19 4 -19 3 -2 -13z"/>
<path d="M4246 8453 c-20 -37 -34 -72 -32 -78 2 -5 14 14 26 43 13 28 27 52
32 52 5 0 7 -61 4 -147 -3 -82 -6 -393 -6 -693 -1 -300 -4 -560 -8 -578 l-7
-32 -60 37 c-33 20 -62 40 -65 44 -3 3 -36 30 -75 60 -260 198 -482 486 -585
759 -17 47 -38 101 -45 120 -8 19 -19 60 -25 90 -20 95 -30 121 -23 65 14
-133 106 -368 207 -530 99 -159 208 -289 363 -434 46 -42 210 -167 246 -186
46 -24 47 -35 5 -37 -25 -1 -21 -3 16 -7 l48 -6 0 -72 c-1 -40 -1 -140 -1
-223 l-1 -150 -547 -3 -548 -2 547 -3 547 -2 4 -137 3 -138 2 138 2 137 898 0
897 -1 -65 -34 c-86 -45 -63 -45 30 1 42 20 69 39 64 44 -15 14 -135 72 -141
67 -2 -3 21 -16 51 -30 31 -14 56 -28 56 -31 0 -4 -403 -6 -896 -6 l-897 0 6
215 c4 119 9 220 12 225 4 6 25 11 48 12 l42 1 -48 6 -48 6 0 460 c1 253 4
582 7 732 l7 272 23 -48 c12 -27 27 -52 33 -56 9 -5 -50 124 -65 143 -1 2 -18
-27 -38 -65z"/>
<path d="M5502 7298 c11 -32 23 -38 13 -7 -5 14 -2 25 6 30 10 6 8 8 -7 7 -19
-2 -20 -5 -12 -30z"/>
<path d="M5391 7273 c-22 -80 -23 -83 -17 -83 7 0 38 110 34 121 -2 6 -9 -12
-17 -38z"/>
<path d="M4988 7258 c21 -21 15 -75 -10 -92 -12 -9 -18 -16 -12 -16 6 0 23 14
39 30 16 17 23 30 17 30 -7 0 -12 14 -12 30 0 22 -5 30 -17 30 -13 0 -14 -3
-5 -12z"/>
<path d="M5041 7254 c0 -11 3 -14 6 -6 3 7 2 16 -1 19 -3 4 -6 -2 -5 -13z"/>
<path d="M5282 7257 c-6 -6 -13 -24 -17 -40 -6 -24 -4 -27 16 -27 21 0 21 1 6
13 -15 11 -15 15 -3 40 16 29 15 35 -2 14z"/>
<path d="M5324 7248 c0 -13 -2 -29 -5 -37 -2 -7 1 -15 6 -17 6 -2 10 6 11 19
0 12 4 30 8 40 6 11 4 17 -5 17 -8 0 -14 -10 -15 -22z"/>
<path d="M5422 7258 c17 -12 17 -15 2 -43 -13 -26 -13 -28 0 -15 24 24 25 63
1 68 -19 4 -19 3 -3 -10z"/>
<path d="M5138 7253 c12 -2 32 -2 45 0 12 2 2 4 -23 4 -25 0 -35 -2 -22 -4z"/>
<path d="M5135 7220 c-27 -7 -25 -8 18 -9 30 -1 46 3 42 9 -7 11 -16 11 -60 0z"/>
<path d="M4046 7042 c-3 -5 5 -8 17 -8 20 1 22 -4 22 -51 0 -28 3 -49 7 -47 4
3 7 28 5 57 -2 45 -5 52 -24 55 -11 2 -24 -1 -27 -6z"/>
<path d="M4293 6982 c9 -13 289 -151 362 -178 39 -14 94 -35 124 -46 55 -20
235 -69 346 -94 83 -18 252 -42 360 -49 96 -6 306 -8 312 -2 2 2 -85 7 -194
10 -108 4 -233 11 -277 17 -78 11 -108 17 -276 56 -94 22 -268 71 -295 83 -11
5 -74 31 -140 56 -66 26 -124 51 -130 55 -15 12 -183 100 -190 100 -3 0 -4 -3
-2 -8z"/>
<path d="M4101 6444 c-28 -35 -34 -60 -21 -84 28 -52 114 3 108 69 -2 19 -9
36 -16 39 -11 3 -12 0 -2 -17 21 -39 -14 -101 -57 -101 -20 0 -23 5 -23 35 0
25 8 44 25 60 13 14 20 25 15 25 -5 0 -18 -12 -29 -26z"/>
<path d="M6100 6409 c8 -15 6 -21 -10 -31 -11 -7 -20 -17 -20 -22 0 -5 8 -2
18 7 23 21 32 21 32 1 0 -8 5 -12 11 -8 8 4 8 9 0 17 -18 18 -13 37 12 46 19
7 16 9 -15 9 -34 0 -37 -2 -28 -19z"/>
<path d="M1100 5850 c-9 -6 -10 -10 -3 -10 6 0 15 5 18 10 8 12 4 12 -15 0z"/>
<path d="M2337 5844 c3 -8 -1 -22 -8 -32 -13 -15 -12 -16 3 -4 13 10 17 10 22
0 3 -7 4 -3 2 10 -2 13 2 26 11 31 13 7 10 9 -10 9 -18 0 -24 -5 -20 -14z"/>
<path d="M2628 5845 c-3 -11 -9 -29 -13 -40 -6 -17 -5 -17 9 3 10 12 16 30 14
40 -3 15 -5 14 -10 -3z"/>
<path d="M2980 5845 c0 -8 2 -15 4 -15 2 0 6 7 10 15 3 8 1 15 -4 15 -6 0 -10
-7 -10 -15z"/>
<path d="M3451 5850 c-6 -41 -5 -120 2 -120 4 0 7 6 7 14 0 9 13 16 33 19 l32
4 -32 1 c-18 1 -33 6 -33 11 0 6 15 12 33 14 l32 4 -32 1 c-28 2 -32 6 -36 35
-2 17 -5 25 -6 17z"/>
<path d="M3690 5849 c0 -5 5 -7 10 -4 6 3 10 8 10 11 0 2 -4 4 -10 4 -5 0 -10
-5 -10 -11z"/>
<path d="M713 5810 c0 -25 2 -35 4 -22 2 12 2 32 0 45 -2 12 -4 2 -4 -23z"/>
<path d="M853 5780 c0 -41 2 -58 4 -37 2 20 2 54 0 75 -2 20 -4 3 -4 -38z"/>
<path d="M953 5835 c-3 -9 -3 -18 -1 -21 3 -3 8 4 11 16 6 23 -1 27 -10 5z"/>
<path d="M991 5768 c2 -86 6 -76 11 25 2 31 0 57 -4 57 -5 0 -7 -37 -7 -82z"/>
<path d="M1530 5843 c0 -5 5 -15 10 -23 8 -13 10 -13 10 2 0 9 6 19 13 21 6 3
2 6 -10 6 -13 1 -23 -2 -23 -6z"/>
<path d="M2240 5831 c0 -10 -7 -38 -15 -62 -15 -43 -9 -60 20 -58 6 0 4 3 -2
6 -21 8 -15 51 8 63 28 16 35 5 22 -31 -10 -26 -10 -29 3 -19 8 7 14 25 14 41
0 23 -5 29 -21 29 -17 0 -20 5 -17 25 3 14 1 25 -3 25 -5 0 -9 -8 -9 -19z"/>
<path d="M2752 5830 c0 -14 2 -19 5 -12 2 6 2 18 0 25 -3 6 -5 1 -5 -13z"/>
<path d="M2901 5834 c0 -11 3 -14 6 -6 3 7 2 16 -1 19 -3 4 -6 -2 -5 -13z"/>
<path d="M3023 5838 c-19 -25 -24 -38 -14 -38 6 0 11 5 11 11 0 7 8 18 18 25
9 7 12 14 6 14 -6 0 -16 -6 -21 -12z"/>
<path d="M3517 5835 c-4 -8 -2 -17 3 -20 6 -4 10 3 10 14 0 25 -6 27 -13 6z"/>
<path d="M4650 5826 c0 -13 -6 -27 -12 -29 -10 -4 -10 -6 0 -6 6 -1 12 -14 12
-29 0 -15 -6 -34 -12 -41 -11 -10 -10 -11 5 -6 11 5 17 18 17 41 0 32 2 34 26
30 15 -3 24 -2 21 1 -4 3 1 20 9 37 14 28 14 29 -1 12 -8 -11 -15 -23 -15 -27
0 -4 -9 -7 -21 -6 -16 1 -19 7 -16 24 2 13 0 23 -4 23 -5 0 -9 -11 -9 -24z"/>
<path d="M4915 5839 c-4 -6 -4 -13 -1 -16 3 -4 6 -1 6 5 0 17 35 15 50 -3 7
-8 16 -15 21 -15 5 0 0 9 -11 20 -22 22 -55 26 -65 9z"/>
<path d="M5086 5837 c3 -10 9 -15 12 -12 3 3 0 11 -7 18 -10 9 -11 8 -5 -6z"/>
<path d="M5167 5843 c-4 -3 -7 -11 -7 -17 0 -6 5 -5 12 2 6 6 9 14 7 17 -3 3
-9 2 -12 -2z"/>
<path d="M5278 5842 c-11 -2 -18 -12 -17 -25 1 -17 2 -18 6 -4 8 32 23 17 23
-25 0 -24 -7 -49 -17 -60 -15 -17 -15 -18 0 -18 10 0 17 -5 17 -11 0 -5 5 -7
10 -4 6 4 17 2 25 -5 12 -10 12 -8 2 14 -7 14 -15 20 -18 14 -4 -6 -12 -7 -18
-4 -8 5 -8 11 1 20 7 7 13 31 12 54 0 23 3 42 8 42 4 0 8 -7 8 -16 0 -13 3
-14 15 -4 8 7 13 16 10 20 -6 10 -45 17 -67 12z"/>
<path d="M5370 5835 c0 -8 2 -15 4 -15 2 0 6 7 10 15 3 8 1 15 -4 15 -6 0 -10
-7 -10 -15z"/>
<path d="M6000 5840 c-25 -4 -37 -8 -27 -8 21 -2 21 -5 1 -45 -9 -18 -13 -29
-9 -24 5 4 17 0 27 -10 18 -16 18 -17 -4 -42 l-23 -26 28 24 c15 14 27 26 27
27 0 2 -9 12 -20 22 -18 17 -19 23 -9 46 8 17 20 26 36 26 12 0 23 5 23 10 0
6 -1 9 -2 8 -2 0 -23 -4 -48 -8z"/>
<path d="M6122 5830 c0 -14 2 -19 5 -12 2 6 2 18 0 25 -3 6 -5 1 -5 -13z"/>
<path d="M6265 5840 c3 -5 8 -10 11 -10 2 0 4 5 4 10 0 6 -5 10 -11 10 -5 0
-7 -4 -4 -10z"/>
<path d="M6327 5843 c-4 -3 -7 -11 -7 -17 0 -6 5 -5 12 2 6 6 9 14 7 17 -3 3
-9 2 -12 -2z"/>
<path d="M6740 5845 c-4 -34 -1 -158 4 -162 3 -4 6 33 6 80 0 48 -2 87 -5 87
-3 0 -5 -2 -5 -5z"/>
<path d="M6945 5770 c0 -44 3 -80 8 -80 4 0 7 36 7 80 0 44 -3 80 -7 80 -5 0
-8 -36 -8 -80z"/>
<path d="M7035 5839 c-4 -6 -5 -12 -2 -15 2 -3 7 2 10 11 7 17 1 20 -8 4z"/>
<path d="M7064 5823 c-17 -26 -13 -53 8 -53 10 0 10 2 -1 9 -10 7 -11 13 -2
30 16 30 45 29 35 -1 -4 -13 -8 -31 -8 -40 0 -9 -4 -14 -8 -12 -4 3 -16 0 -25
-6 -15 -9 -14 -10 7 -5 24 6 24 5 6 -9 -11 -9 -15 -16 -9 -16 7 0 15 5 18 10
3 6 11 10 17 10 17 0 -12 -30 -31 -31 -11 0 -12 -2 -3 -6 7 -3 20 1 29 9 15
11 16 10 11 -9 -8 -29 8 -30 17 -2 5 15 10 18 18 10 6 -6 15 -11 21 -11 5 0 1
7 -10 16 -13 11 -15 17 -6 20 6 3 12 10 12 16 0 6 -6 6 -15 -2 -11 -9 -18 -10
-29 -1 -14 12 -10 57 5 67 16 10 9 22 -16 26 -18 4 -29 -1 -41 -19z"/>
<path d="M7290 5839 l-85 -5 73 -2 72 -2 0 -65 c0 -39 -4 -65 -11 -65 -5 0 -7
-5 -3 -11 13 -21 24 15 24 78 0 51 3 62 18 65 41 8 -10 13 -88 7z"/>
<path d="M8150 5840 c-8 -5 -12 -12 -9 -15 4 -3 12 1 19 10 14 17 11 19 -10 5z"/>
<path d="M8192 5825 c0 -16 2 -22 5 -12 2 9 2 23 0 30 -3 6 -5 -1 -5 -18z"/>
<path d="M1141 5793 c1 -27 4 -38 6 -25 2 12 11 22 18 22 10 0 15 -17 18 -57
l3 -58 2 57 c2 44 6 58 20 61 9 3 0 5 -22 6 -33 1 -38 4 -33 21 3 11 1 20 -4
20 -5 0 -8 -21 -8 -47z"/>
<path d="M1477 5826 c-3 -8 0 -16 6 -19 7 -3 13 3 13 14 0 22 -12 25 -19 5z"/>
<path d="M1590 5836 c0 -2 8 -10 18 -17 15 -13 16 -12 3 4 -13 16 -21 21 -21
13z"/>
<path d="M2790 5824 c0 -8 5 -12 10 -9 6 4 8 11 5 16 -9 14 -15 11 -15 -7z"/>
<path d="M3068 5833 c7 -3 16 -2 19 1 4 3 -2 6 -13 5 -11 0 -14 -3 -6 -6z"/>
<path d="M4171 5812 c-1 -32 1 -33 32 -32 56 3 59 2 47 -21 -6 -11 -24 -28
-40 -38 l-30 -17 33 -1 c17 0 43 -3 57 -6 22 -6 22 -5 -2 5 -33 14 -34 21 -7
59 11 16 18 30 15 30 -3 1 -11 2 -16 3 -6 0 -14 7 -19 14 -7 11 -9 11 -14 -2
-11 -28 -45 -19 -50 12 -4 25 -4 24 -6 -6z"/>
<path d="M4447 5782 c-19 -64 -20 -72 -9 -72 4 0 9 12 10 26 3 35 10 44 33 44
21 0 24 -12 9 -41 -6 -10 -8 -19 -6 -19 12 0 27 43 21 61 -5 14 -12 18 -26 14
-17 -6 -18 -3 -9 19 5 14 6 26 2 26 -4 0 -15 -26 -25 -58z"/>
<path d="M5793 5833 c26 -2 67 -2 90 0 23 2 2 3 -48 3 -49 0 -68 -1 -42 -3z"/>
<path d="M6172 5778 l2 -63 3 58 c2 31 9 57 14 57 6 0 9 -19 8 -45 -2 -24 -1
-47 2 -50 3 -3 7 20 8 50 2 50 0 55 -18 55 -19 0 -21 -6 -19 -62z"/>
<path d="M6237 5821 c-2 -10 -1 -25 4 -32 6 -10 9 -4 9 19 0 36 -5 42 -13 13z"/>
<path d="M6292 5820 c0 -14 2 -19 5 -12 2 6 2 18 0 25 -3 6 -5 1 -5 -13z"/>
<path d="M6648 5833 c6 -2 18 -2 25 0 6 3 1 5 -13 5 -14 0 -19 -2 -12 -5z"/>
<path d="M6692 5808 c-1 -20 -8 -38 -14 -41 -7 -2 -1 -6 15 -9 15 -3 27 -1 27
3 0 5 -4 9 -9 9 -6 0 -12 17 -14 38 l-4 37 -1 -37z"/>
<path d="M6802 5768 c-2 -68 0 -78 16 -78 11 0 13 3 5 8 -7 4 -14 38 -16 77
l-3 70 -2 -77z"/>
<path d="M7677 5833 c18 -2 50 -2 70 0 21 2 7 4 -32 4 -38 0 -55 -2 -38 -4z"/>
<path d="M8252 5833 c9 -2 19 -12 21 -21 3 -12 5 -10 6 6 1 17 -4 22 -21 21
-16 -1 -18 -3 -6 -6z"/>
<path d="M8469 5827 c6 -8 8 -33 4 -65 -4 -36 -2 -52 6 -52 7 0 11 23 11 65 0
53 -3 65 -16 65 -13 0 -14 -3 -5 -13z"/>
<path d="M2530 5820 c0 -5 5 -10 11 -10 5 0 7 5 4 10 -3 6 -8 10 -11 10 -2 0
-4 -4 -4 -10z"/>
<path d="M2588 5800 c-3 -16 -1 -30 4 -30 4 0 8 14 8 30 0 17 -2 30 -4 30 -2
0 -6 -13 -8 -30z"/>
<path d="M3658 5822 c-37 -3 -38 -4 -38 -43 0 -22 4 -38 8 -35 5 3 7 19 4 36
l-4 30 65 0 66 0 4 -37 4 -38 1 41 c2 41 2 42 -35 45 -21 2 -55 3 -75 1z"/>
<path d="M6603 5800 c-6 -17 -7 -30 -2 -30 9 0 24 48 17 55 -2 2 -9 -9 -15
-25z"/>
<path d="M6850 5816 c0 -8 6 -17 13 -19 6 -3 1 -6 -13 -6 -24 -1 -25 -4 -22
-41 2 -22 8 -40 12 -40 4 0 6 12 4 28 -2 15 -1 19 2 10 3 -10 9 -18 14 -18 14
0 6 35 -10 42 -9 4 -1 7 20 7 23 1 30 4 22 10 -10 6 -9 10 7 14 25 6 28 27 4
27 -15 0 -16 -2 -3 -10 12 -8 9 -10 -13 -10 -16 0 -26 4 -22 10 3 6 1 10 -4
10 -6 0 -11 -6 -11 -14z"/>
<path d="M1570 5806 c0 -8 -10 -17 -22 -19 -17 -3 -15 -5 9 -6 21 -1 33 -7 36
-18 4 -14 5 -12 6 5 0 12 -4 22 -10 22 -6 0 -9 7 -5 15 3 8 1 15 -4 15 -6 0
-10 -6 -10 -14z"/>
<path d="M2692 5795 c0 -16 2 -22 5 -12 2 9 2 23 0 30 -3 6 -5 -1 -5 -18z"/>
<path d="M2966 5805 c-3 -8 -1 -15 4 -15 6 0 10 7 10 15 0 8 -2 15 -4 15 -2 0
-6 -7 -10 -15z"/>
<path d="M3053 5803 c-3 -10 -13 -26 -21 -36 -15 -16 -14 -17 4 -12 18 6 18 6
-1 -10 -20 -17 -20 -17 5 -11 23 6 23 6 8 -7 -16 -12 -14 -14 15 -14 18 0 41
-3 52 -7 14 -5 14 -3 -2 5 -28 14 -29 25 -5 38 22 14 6 14 -18 1 -16 -9 -21
-6 -26 15 -3 14 -4 32 0 40 3 8 3 15 0 15 -2 0 -7 -8 -11 -17z"/>
<path d="M3100 5809 c0 -5 5 -7 10 -4 6 3 10 8 10 11 0 2 -4 4 -10 4 -5 0 -10
-5 -10 -11z"/>
<path d="M4845 5809 c-5 -8 -4 -10 3 -5 8 5 13 -5 14 -31 l1 -38 4 34 c5 36
-9 61 -22 40z"/>
<path d="M5050 5809 c0 -5 5 -7 10 -4 6 3 10 8 10 11 0 2 -4 4 -10 4 -5 0 -10
-5 -10 -11z"/>
<path d="M5190 5809 c0 -5 5 -7 10 -4 6 3 10 8 10 11 0 2 -4 4 -10 4 -5 0 -10
-5 -10 -11z"/>
<path d="M913 5797 c2 -6 14 -11 25 -9 19 3 22 -2 24 -40 l1 -43 6 45 c4 25 6
45 6 46 0 1 -15 4 -33 7 -25 5 -32 3 -29 -6z"/>
<path d="M2821 5803 c-1 -17 16 -25 25 -12 4 7 3 9 -4 5 -5 -3 -13 0 -15 6 -4
9 -6 10 -6 1z"/>
<path d="M2903 5765 c0 -27 2 -38 4 -22 2 15 2 37 0 50 -2 12 -4 0 -4 -28z"/>
<path d="M5356 5788 c-5 -18 -8 -20 -15 -9 -6 9 -11 10 -15 2 -4 -6 -4 -11 1
-12 4 0 15 -2 25 -4 10 -2 18 5 21 21 5 30 -9 32 -17 2z"/>
<path d="M5400 5790 c0 -11 2 -20 4 -20 2 0 6 9 9 20 3 11 1 20 -4 20 -5 0 -9
-9 -9 -20z"/>
<path d="M5830 5802 c0 -4 14 -16 30 -25 17 -10 30 -16 30 -14 0 2 -13 13 -30
25 -16 13 -30 19 -30 14z"/>
<path d="M7012 5789 c-8 -12 -9 -18 -3 -15 5 4 12 -4 14 -16 3 -15 5 -9 6 15
1 43 0 44 -17 16z"/>
<path d="M7152 5790 c0 -14 2 -19 5 -12 2 6 2 18 0 25 -3 6 -5 1 -5 -13z"/>
<path d="M7301 5794 c0 -11 3 -14 6 -6 3 7 2 16 -1 19 -3 4 -6 -2 -5 -13z"/>
<path d="M8142 5770 c0 -25 2 -37 5 -27 2 9 10 17 16 17 9 0 9 2 1 8 -7 4 -14
16 -17 27 -2 11 -5 0 -5 -25z"/>
<path d="M8217 5776 c-5 -21 -6 -41 -3 -44 12 -11 17 7 14 44 l-3 39 -8 -39z"/>
<path d="M740 5790 c-12 -8 -12 -10 5 -10 11 0 27 5 35 10 12 8 12 10 -5 10
-11 0 -27 -5 -35 -10z"/>
<path d="M878 5793 c7 -3 16 -2 19 1 4 3 -2 6 -13 5 -11 0 -14 -3 -6 -6z"/>
<path d="M1293 5793 c26 -2 67 -2 90 0 23 2 2 3 -48 3 -49 0 -68 -1 -42 -3z"/>
<path d="M1830 5781 c16 -31 12 -70 -10 -83 -11 -7 -20 -17 -20 -23 0 -5 21
12 45 39 47 51 60 72 25 41 -20 -18 -20 -17 -20 13 0 22 -5 32 -15 32 -12 0
-13 -4 -5 -19z"/>
<path d="M2121 5774 c-32 -41 -27 -54 19 -52 29 1 40 6 40 17 0 9 3 26 6 39 4
12 2 22 -4 22 -6 0 -12 -12 -14 -26 -3 -28 -32 -54 -45 -41 -4 5 0 22 9 38 21
36 16 37 -11 3z"/>
<path d="M2860 5753 c0 -53 7 -55 11 -3 2 19 8 38 14 42 6 5 3 8 -7 8 -15 0
-18 -9 -18 -47z"/>
<path d="M3691 5784 c0 -11 3 -14 6 -6 3 7 2 16 -1 19 -3 4 -6 -2 -5 -13z"/>
<path d="M3949 5783 c-13 -15 -12 -15 9 -4 18 10 23 9 28 -4 4 -9 -2 -25 -11
-35 -11 -12 -13 -20 -7 -20 7 0 15 -1 19 -2 3 -2 7 6 8 17 1 11 5 29 8 40 6
17 2 21 -17 23 -13 1 -30 -6 -37 -15z"/>
<path d="M5087 5793 c-20 -19 -5 -33 38 -33 40 0 45 2 44 23 -1 16 -2 18 -6 5
-3 -13 -15 -18 -39 -18 -33 0 -46 13 -21 23 6 3 7 6 1 6 -6 1 -14 -2 -17 -6z"/>
<path d="M6031 5793 c-1 -6 -4 -20 -7 -30 -5 -17 -5 -17 6 0 6 10 9 23 6 30
-3 9 -5 9 -5 0z"/>
<path d="M6073 5765 c0 -22 2 -30 4 -17 2 12 2 30 0 40 -3 9 -5 -1 -4 -23z"/>
<path d="M7713 5784 c-2 -6 -2 -33 0 -60 l3 -49 2 53 c2 51 2 52 35 53 17 1
35 1 40 0 4 0 7 3 7 7 0 12 -82 8 -87 -4z"/>
<path d="M8519 5779 c-13 -25 2 -69 23 -69 10 0 10 2 0 9 -18 11 -11 66 8 66
11 0 15 -11 15 -38 0 -32 2 -35 13 -20 15 21 15 29 2 54 -14 25 -46 24 -61 -2z"/>
<path d="M8620 5785 c-14 -16 -7 -45 11 -45 8 0 8 4 -1 15 -9 11 -10 19 -2 27
15 15 35 -1 29 -23 -3 -11 -1 -17 4 -13 5 3 9 12 9 20 0 8 6 14 13 15 13 0
-21 17 -39 18 -6 1 -17 -6 -24 -14z"/>
<path d="M1973 5783 c15 -2 37 -2 50 0 12 2 0 4 -28 4 -27 0 -38 -2 -22 -4z"/>
<path d="M3246 5775 c4 -8 8 -15 10 -15 2 0 4 7 4 15 0 8 -4 15 -10 15 -5 0
-7 -7 -4 -15z"/>
<path d="M5536 5783 c6 -4 14 -15 17 -23 5 -11 6 -9 4 4 -1 11 -9 21 -17 23
-10 3 -11 2 -4 -4z"/>
<path d="M6915 5750 c0 -52 12 -52 17 0 2 24 -1 40 -7 40 -6 0 -10 -18 -10
-40z"/>
<path d="M7678 5783 c7 -3 16 -2 19 1 4 3 -2 6 -13 5 -11 0 -14 -3 -6 -6z"/>
<path d="M7949 5781 c8 -5 12 -18 8 -30 -3 -12 -1 -19 4 -15 5 3 9 -2 9 -10 0
-19 16 -21 26 -4 4 6 3 8 -3 5 -6 -4 -13 2 -16 13 -3 13 2 25 16 35 12 8 17
15 11 15 -5 0 -15 -5 -21 -11 -8 -8 -13 -8 -17 0 -4 6 -13 11 -19 11 -8 0 -7
-3 2 -9z"/>
<path d="M8858 5765 c2 -14 6 -25 8 -25 2 0 4 11 4 25 0 14 -4 25 -9 25 -4 0
-6 -11 -3 -25z"/>
<path d="M8911 5774 c0 -11 3 -14 6 -6 3 7 2 16 -1 19 -3 4 -6 -2 -5 -13z"/>
<path d="M881 5743 c2 -35 2 -35 6 -8 3 16 10 33 16 37 8 5 6 8 -5 8 -14 0
-18 -8 -17 -37z"/>
<path d="M2630 5776 c0 -2 8 -10 18 -17 15 -13 16 -12 3 4 -13 16 -21 21 -21
13z"/>
<path d="M2973 5745 c0 -22 2 -30 4 -17 2 12 2 30 0 40 -3 9 -5 -1 -4 -23z"/>
<path d="M6321 5756 c11 -23 10 -29 -2 -37 -11 -7 -11 -9 4 -9 22 0 23 42 1
60 -13 12 -14 10 -3 -14z"/>
<path d="M7490 5770 c0 -6 -15 -20 -32 -31 -23 -14 -26 -19 -10 -14 27 8 30
-12 5 -31 -16 -12 -16 -12 5 -7 16 4 22 13 22 34 0 42 14 43 53 4 19 -19 41
-35 49 -35 7 1 1 8 -14 16 -30 16 -37 34 -13 34 8 0 15 5 15 10 0 7 -7 7 -21
-1 -17 -8 -23 -8 -30 2 -4 7 -5 17 -3 21 3 4 -2 8 -10 8 -9 0 -16 -5 -16 -10z"/>
<path d="M1056 5753 c-6 -14 -5 -15 5 -6 7 7 10 15 7 18 -3 3 -9 -2 -12 -12z"/>
<path d="M1276 5742 l-19 -27 24 22 c12 12 21 24 18 27 -2 2 -13 -8 -23 -22z"/>
<path d="M1381 5755 c9 -11 19 -27 22 -35 5 -13 6 -13 6 1 1 9 -9 24 -21 35
-23 19 -23 19 -7 -1z"/>
<path d="M2782 5740 c0 -19 2 -27 5 -17 2 9 2 25 0 35 -3 9 -5 1 -5 -18z"/>
<path d="M8249 5761 c7 -5 10 -14 7 -20 -5 -7 1 -11 16 -10 13 0 17 3 11 6 -7
2 -13 11 -13 19 0 8 -8 14 -17 14 -14 0 -15 -2 -4 -9z"/>
<path d="M901 5744 c0 -11 3 -14 6 -6 3 7 2 16 -1 19 -3 4 -6 -2 -5 -13z"/>
<path d="M933 5745 c0 -8 4 -12 9 -9 4 3 8 9 8 15 0 5 -4 9 -8 9 -5 0 -9 -7
-9 -15z"/>
<path d="M1485 5749 c-4 -6 -5 -12 -2 -15 2 -3 7 2 10 11 7 17 1 20 -8 4z"/>
<path d="M1615 5750 c3 -5 8 -10 11 -10 2 0 4 5 4 10 0 6 -5 10 -11 10 -5 0
-7 -4 -4 -10z"/>
<path d="M2841 5744 c0 -11 3 -14 6 -6 3 7 2 16 -1 19 -3 4 -6 -2 -5 -13z"/>
<path d="M3690 5720 c0 -22 2 -40 4 -40 2 0 6 18 8 40 2 22 0 40 -4 40 -5 0
-8 -18 -8 -40z"/>
<path d="M3927 5746 c-4 -11 -3 -24 3 -30 14 -14 18 -5 10 24 -5 23 -7 23 -13
6z"/>
<path d="M4190 5756 c0 -2 8 -10 18 -17 15 -13 16 -12 3 4 -13 16 -21 21 -21
13z"/>
<path d="M5372 5723 c-15 -23 -17 -32 -7 -23 12 10 19 10 27 2 7 -7 17 -12 23
-12 5 0 2 7 -8 15 -13 9 -17 20 -12 34 9 30 3 26 -23 -16z"/>
<path d="M6230 5749 c0 -5 5 -7 10 -4 6 3 10 8 10 11 0 2 -4 4 -10 4 -5 0 -10
-5 -10 -11z"/>
<path d="M6259 5730 c-2 -22 -9 -34 -17 -32 -8 1 -11 -2 -7 -9 13 -20 37 16
33 47 -4 28 -4 28 -9 -6z"/>
<path d="M6293 5720 c0 -25 2 -35 4 -22 2 12 2 32 0 45 -2 12 -4 2 -4 -23z"/>
<path d="M6891 5733 c0 -25 1 -26 9 -8 12 27 12 35 0 35 -5 0 -10 -12 -9 -27z"/>
<path d="M7273 5753 c-23 -3 -33 -9 -32 -21 0 -11 3 -12 6 -4 2 6 18 12 34 12
16 0 29 5 29 10 0 6 -1 9 -2 8 -2 0 -18 -3 -35 -5z"/>
<path d="M7650 5727 l-23 -32 29 27 c15 15 26 30 23 33 -3 2 -16 -10 -29 -28z"/>
<path d="M7765 5740 c10 -11 20 -20 23 -20 3 0 -3 9 -13 20 -10 11 -20 20 -23
20 -3 0 3 -9 13 -20z"/>
<path d="M1973 5743 c15 -2 37 -2 50 0 12 2 0 4 -28 4 -27 0 -38 -2 -22 -4z"/>
<path d="M4713 5743 c9 -2 25 -2 35 0 9 3 1 5 -18 5 -19 0 -27 -2 -17 -5z"/>
<path d="M4990 5734 c0 -11 -5 -25 -12 -32 -9 -9 -9 -12 0 -12 13 0 28 47 18
57 -3 4 -6 -3 -6 -13z"/>
<path d="M5120 5740 c0 -5 5 -10 11 -10 5 0 7 5 4 10 -3 6 -8 10 -11 10 -2 0
-4 -4 -4 -10z"/>
<path d="M5181 5727 c-1 -19 -5 -26 -13 -21 -7 5 -8 3 -3 -5 11 -19 27 3 22
30 -4 22 -4 21 -6 -4z"/>
<path d="M8717 5743 c-3 -5 6 -8 19 -8 13 0 24 3 24 8 0 4 -9 7 -19 7 -11 0
-22 -3 -24 -7z"/>
<path d="M8866 5714 c-21 -19 -35 -38 -32 -41 3 -4 7 -4 9 -2 1 2 18 21 36 42
44 47 37 48 -13 1z"/>
<path d="M2681 5723 c-1 -12 -9 -24 -18 -26 -17 -4 -17 -5 0 -6 19 -1 32 21
24 41 -3 7 -6 3 -6 -9z"/>
<path d="M3558 5733 c7 -3 16 -2 19 1 4 3 -2 6 -13 5 -11 0 -14 -3 -6 -6z"/>
<path d="M4136 5712 l-19 -27 24 22 c12 12 21 24 18 27 -2 2 -13 -8 -23 -22z"/>
<path d="M4781 5724 c0 -11 3 -14 6 -6 3 7 2 16 -1 19 -3 4 -6 -2 -5 -13z"/>
<path d="M1051 5714 c0 -11 3 -14 6 -6 3 7 2 16 -1 19 -3 4 -6 -2 -5 -13z"/>
<path d="M2531 5714 c0 -11 3 -14 6 -6 3 7 2 16 -1 19 -3 4 -6 -2 -5 -13z"/>
<path d="M4853 5720 c2 -8 7 -15 12 -15 5 0 10 7 12 15 4 12 3 12 -5 1 -8 -11
-11 -11 -16 0 -4 10 -5 10 -3 -1z"/>
<path d="M6205 5703 l-17 -28 23 22 c12 12 20 25 17 28 -3 3 -13 -7 -23 -22z"/>
<path d="M6683 5723 c9 -2 23 -2 30 0 6 3 -1 5 -18 5 -16 0 -22 -2 -12 -5z"/>
<path d="M7022 5705 c0 -16 2 -22 5 -12 2 9 2 23 0 30 -3 6 -5 -1 -5 -18z"/>
<path d="M8610 5716 c0 -6 12 -11 28 -11 15 0 27 -4 27 -10 0 -5 -12 -10 -27
-10 -16 0 -28 -3 -28 -7 0 -14 57 -8 70 7 16 19 11 25 -34 35 -25 5 -36 4 -36
-4z"/>
<path d="M1476 5708 c3 -4 9 -8 15 -8 5 0 9 4 9 8 0 5 -7 9 -15 9 -8 0 -12 -4
-9 -9z"/>
<path d="M1602 5704 c-7 -8 -8 -14 -3 -14 10 0 25 19 20 25 -2 1 -10 -3 -17
-11z"/>
<path d="M3440 5705 c-14 -8 -20 -14 -14 -15 5 0 19 7 30 15 24 18 16 19 -16
0z"/>
<path d="M8159 5703 c-13 -15 -12 -15 9 -4 23 12 28 21 13 21 -5 0 -15 -7 -22
-17z"/>
<path d="M653 5703 c9 -2 23 -2 30 0 6 3 -1 5 -18 5 -16 0 -22 -2 -12 -5z"/>
<path d="M708 5703 c6 -2 18 -2 25 0 6 3 1 5 -13 5 -14 0 -19 -2 -12 -5z"/>
<path d="M3530 5706 c0 -2 7 -7 16 -10 8 -3 12 -2 9 4 -6 10 -25 14 -25 6z"/>
<path d="M8257 5699 c7 -7 15 -10 18 -7 3 3 -2 9 -12 12 -14 6 -15 5 -6 -5z"/>
<path d="M4740 5696 c0 -9 30 -14 35 -6 4 6 -3 10 -14 10 -12 0 -21 -2 -21 -4z"/>
<path d="M6090 5690 c18 -12 30 -13 30 -2 0 4 -10 9 -22 9 -18 2 -20 0 -8 -7z"/>
<path d="M6898 5693 c6 -2 18 -2 25 0 6 3 1 5 -13 5 -14 0 -19 -2 -12 -5z"/>
<path d="M710 5566 c0 -9 -13 -16 -32 -19 -32 -4 -32 -4 5 -5 31 -2 37 1 37
18 0 11 -2 20 -5 20 -3 0 -5 -6 -5 -14z"/>
<path d="M842 5553 c2 -23 8 -29 36 -31 30 -3 32 -1 32 27 0 29 -3 31 -36 31
-33 0 -35 -2 -32 -27z m55 -3 c-1 -14 -8 -20 -24 -20 -16 0 -23 6 -23 20 0 15
7 20 24 20 19 0 24 -5 23 -20z"/>
<path d="M962 5573 c19 -3 26 -10 25 -24 -1 -10 -6 -19 -12 -19 -5 0 -4 -4 4
-9 10 -6 12 -23 9 -61 -3 -28 -2 -48 3 -43 4 4 9 43 11 86 l3 77 -35 -1 c-29
-2 -31 -3 -8 -6z"/>
<path d="M1067 5560 c-22 -26 -22 -28 9 -22 25 4 25 4 21 -47 -3 -28 -1 -54 4
-57 5 -3 9 22 9 55 0 49 -3 61 -16 61 -10 0 -14 6 -10 15 7 20 4 19 -17 -5z"/>
<path d="M1140 5561 c0 -11 -4 -23 -10 -26 -5 -3 -10 -12 -10 -18 0 -7 5 -4
11 6 15 26 66 23 72 -5 4 -20 4 -19 6 5 1 24 -3 27 -30 27 -24 0 -30 4 -25 15
3 8 1 15 -4 15 -6 0 -10 -9 -10 -19z"/>
<path d="M1281 5571 c27 -6 28 -11 11 -66 -5 -16 -6 -39 -1 -50 7 -19 8 -19 8
3 1 12 6 22 11 22 15 0 12 -23 -7 -50 l-17 -25 22 19 c26 23 28 54 5 72 -15
10 -16 15 -5 25 6 7 12 23 12 36 0 20 -5 23 -32 22 -31 -1 -31 -2 -7 -8z"/>
<path d="M1353 5535 c2 -24 -1 -49 -7 -55 -16 -16 -3 -18 24 -3 14 7 19 13 12
13 -7 0 -10 5 -6 12 4 6 3 8 -3 5 -6 -4 -10 8 -11 28 -1 29 2 35 18 35 11 0
20 -7 20 -15 0 -8 -6 -15 -12 -15 -10 0 -10 -2 -1 -8 6 -4 13 -32 16 -62 3
-44 4 -38 5 28 l2 82 -31 0 c-30 0 -30 -1 -26 -45z"/>
<path d="M1478 5540 c-9 -22 -13 -38 -8 -35 4 3 11 -1 13 -7 3 -7 6 0 6 15 1
16 6 37 11 48 6 10 7 19 3 19 -4 0 -16 -18 -25 -40z"/>
<path d="M1555 5570 c-17 -4 -22 -8 -11 -9 14 -1 16 -4 7 -15 -6 -7 -9 -21 -5
-30 4 -11 -1 -19 -17 -25 -21 -9 -19 -10 16 -10 27 0 34 3 21 8 -17 7 -16 9 8
24 14 10 26 23 26 30 0 6 -5 4 -11 -5 -10 -18 -39 -25 -39 -10 0 13 32 39 55
45 l20 5 -20 0 c-11 0 -33 -4 -50 -8z"/>
<path d="M1724 5569 c-4 -7 0 -9 12 -5 28 8 47 -8 39 -33 -3 -11 -11 -21 -16
-21 -5 0 -9 -5 -9 -12 0 -6 9 -3 20 7 23 20 26 45 8 63 -15 15 -45 16 -54 1z"/>
<path d="M1250 5545 c0 -8 4 -15 8 -15 5 0 9 7 9 15 0 8 -4 15 -9 15 -4 0 -8
-7 -8 -15z"/>
<path d="M743 5543 c18 -5 18 -6 1 -24 -25 -28 -9 -23 20 6 l25 25 -32 -1
c-18 -1 -24 -3 -14 -6z"/>
<path d="M1710 5540 c0 -5 5 -10 11 -10 5 0 7 5 4 10 -3 6 -8 10 -11 10 -2 0
-4 -4 -4 -10z"/>
<path d="M1051 5504 c0 -11 3 -14 6 -6 3 7 2 16 -1 19 -3 4 -6 -2 -5 -13z"/>
<path d="M1253 5465 c0 -33 2 -45 4 -27 2 18 2 45 0 60 -2 15 -4 0 -4 -33z"/>
<path d="M1610 5502 c6 -13 14 -21 18 -18 3 4 -2 14 -12 24 -18 16 -18 16 -6
-6z"/>
<path d="M1140 5506 c0 -2 8 -10 18 -17 15 -13 16 -12 3 4 -13 16 -21 21 -21
13z"/>
<path d="M843 5455 c0 -27 2 -38 4 -22 2 15 2 37 0 50 -2 12 -4 0 -4 -28z"/>
<path d="M892 5470 c0 -19 2 -27 5 -17 2 9 2 25 0 35 -3 9 -5 1 -5 -18z"/>
<path d="M692 5467 c-17 -18 -19 -26 -10 -35 7 -7 16 -12 22 -12 5 0 2 6 -8
13 -18 13 -17 15 9 35 15 12 23 22 18 22 -5 0 -19 -10 -31 -23z"/>
<path d="M657 5473 c-4 -3 -7 -11 -7 -17 0 -6 5 -5 12 2 6 6 9 14 7 17 -3 3
-9 2 -12 -2z"/>
<path d="M1052 5450 c0 -14 2 -19 5 -12 2 6 2 18 0 25 -3 6 -5 1 -5 -13z"/>
<path d="M1191 5455 c0 -12 -7 -28 -13 -35 -7 -8 -5 -8 6 1 10 10 16 25 13 35
-4 17 -5 17 -6 -1z"/>
<path d="M1522 5450 c-7 -11 -9 -20 -4 -20 4 0 13 9 20 20 7 11 9 20 4 20 -4
0 -13 -9 -20 -20z"/>
<path d="M1600 5464 c0 -5 7 -18 15 -28 8 -11 15 -16 15 -10 0 5 -7 18 -15 28
-8 11 -15 16 -15 10z"/>
<path d="M935 5450 c-3 -5 -1 -10 4 -10 6 0 11 5 11 10 0 6 -2 10 -4 10 -3 0
-8 -4 -11 -10z"/>
<path d="M738 5413 c7 -3 16 -2 19 1 4 3 -2 6 -13 5 -11 0 -14 -3 -6 -6z"/>
<path d="M668 5048 c-10 -23 -16 -43 -13 -46 2 -2 10 11 18 29 13 29 16 31 22
15 5 -11 3 -21 -6 -27 -11 -7 -11 -9 3 -9 9 0 20 -9 23 -20 3 -11 10 -20 15
-20 4 0 -1 27 -12 60 -12 33 -24 60 -27 60 -3 0 -14 -19 -23 -42z"/>
<path d="M4496 5028 c2 -53 5 -63 20 -66 12 -2 15 0 7 5 -6 4 -11 32 -11 61
-1 52 0 53 25 50 32 -4 39 -20 19 -41 -14 -13 -14 -16 -1 -21 20 -7 19 -26 -2
-42 -17 -12 -16 -13 4 -8 25 7 38 31 24 48 -6 7 -7 22 -4 35 7 28 -10 41 -52
41 l-30 0 1 -62z"/>
<path d="M635 4980 c-3 -5 -1 -10 4 -10 6 0 11 5 11 10 0 6 -2 10 -4 10 -3 0
-8 -4 -11 -10z"/>
<path d="M2075 4900 c0 -33 3 -60 8 -60 4 0 7 27 7 60 0 33 -3 60 -7 60 -5 0
-8 -27 -8 -60z"/>
<path d="M5108 4913 c5 -76 10 -83 11 -15 0 34 -2 62 -7 62 -4 0 -6 -21 -4
-47z"/>
<path d="M2223 4908 c-4 -7 -8 -27 -10 -44 -1 -27 1 -31 17 -27 11 3 28 2 37
-2 17 -6 17 -7 -1 -21 -11 -8 -15 -14 -10 -14 6 0 15 5 22 12 15 15 -3 38 -32
39 l-21 0 21 9 c24 10 38 46 19 53 -8 4 -10 -3 -7 -19 3 -18 0 -24 -13 -24
-13 0 -16 6 -13 25 6 28 3 31 -9 13z"/>
<path d="M5156 4898 c-11 -15 -12 -26 -5 -40 14 -26 20 -22 13 9 -5 19 -2 30
11 40 11 7 14 13 7 13 -6 0 -18 -10 -26 -22z"/>
<path d="M5243 4904 c-3 -8 1 -23 10 -31 13 -13 19 -14 31 -3 21 16 20 36 0
44 -13 5 -14 3 -6 -7 13 -16 -1 -42 -18 -32 -6 4 -10 16 -7 26 6 23 -1 25 -10
3z"/>
<path d="M2127 4903 c-13 -12 -7 -51 10 -64 15 -13 15 -12 4 10 -7 12 -11 32
-8 42 5 20 4 23 -6 12z"/>
<path d="M2171 4903 c0 -4 4 -17 9 -28 8 -19 9 -19 9 2 1 12 -3 25 -9 28 -5 3
-10 3 -9 -2z"/>
<path d="M2454 4868 c1 -35 -3 -44 -24 -55 -16 -8 -19 -13 -9 -13 26 0 49 34
49 73 0 20 -4 37 -8 37 -5 0 -8 -19 -8 -42z"/>
<path d="M5198 4876 c-2 -20 -1 -36 3 -36 11 0 19 43 10 58 -6 11 -10 4 -13
-22z"/>
<path d="M5481 4875 c-1 -44 -8 -59 -31 -68 -13 -5 -13 -6 0 -6 8 -1 27 15 43
34 15 19 21 32 13 29 -10 -4 -16 3 -19 23 -3 22 -4 20 -6 -12z"/>
<path d="M2325 4863 c11 -3 23 -10 27 -17 5 -7 8 -5 8 7 0 12 -7 17 -27 16
-22 -1 -23 -2 -8 -6z"/>
<path d="M5353 4863 c9 -2 23 -2 30 0 6 3 -1 5 -18 5 -16 0 -22 -2 -12 -5z"/>
<path d="M5240 4845 c0 -8 8 -11 20 -8 11 3 28 -1 37 -8 14 -12 16 -12 11 1
-6 19 -68 33 -68 15z"/>
<path d="M5362 4821 c-6 -17 -9 -31 -6 -31 7 0 25 52 20 57 -2 2 -8 -10 -14
-26z"/>
<path d="M2210 4810 c0 -6 7 -10 15 -10 8 0 15 2 15 4 0 2 -7 6 -15 10 -8 3
-15 1 -15 -4z"/>
<path d="M5239 4807 c5 -5 19 -7 32 -5 20 3 19 5 -9 9 -20 3 -29 2 -23 -4z"/>
<path d="M2497 4751 c-39 -85 -43 -106 -7 -38 17 31 32 57 33 57 2 0 2 -35 1
-77 -1 -43 -2 -139 -3 -213 l-1 -135 -56 -60 c-30 -33 -137 -144 -237 -246
-169 -172 -228 -233 -505 -522 l-102 -107 -218 -2 -217 -3 208 -2 c115 -2 207
-7 205 -12 -2 -5 -75 -84 -163 -175 -88 -92 -162 -173 -164 -179 -2 -7 50 44
115 113 66 68 147 153 180 187 l61 63 444 -2 444 -3 -3 -227 c-2 -161 1 -228
8 -228 7 0 9 8 5 21 -4 12 -4 116 0 230 l7 209 204 0 c112 0 204 -4 204 -9 0
-5 -25 -19 -55 -31 -30 -12 -55 -26 -55 -30 0 -10 136 55 145 69 3 6 -24 26
-66 46 -87 42 -106 39 -23 -4 l59 -30 -208 -1 -208 0 2 466 1 465 145 150 c80
82 144 152 141 154 -3 3 -65 -58 -139 -135 -73 -77 -136 -140 -139 -140 -5 0
-2 375 4 394 1 5 14 -16 29 -47 27 -57 45 -78 27 -33 -17 46 -60 126 -68 126
-4 0 -19 -27 -35 -59z m20 -1338 c-2 -2 -200 -2 -440 -1 l-437 3 98 100 c165
171 561 582 672 697 l105 109 3 -452 c1 -249 1 -454 -1 -456z"/>
<path d="M5515 4730 c-19 -38 -35 -73 -35 -77 1 -5 14 18 31 50 16 31 32 57
35 57 6 0 4 -347 -3 -376 -4 -18 -20 -5 -113 90 -59 61 -120 125 -134 141 -15
17 -26 25 -24 18 2 -6 54 -65 116 -131 61 -66 121 -131 132 -145 20 -25 21
-38 20 -478 -1 -248 -4 -458 -7 -465 -4 -11 -42 -14 -181 -14 -96 0 -173 -2
-171 -4 3 -3 83 -7 179 -9 173 -5 175 -5 181 -28 l7 -24 1 25 1 25 448 -3 447
-3 50 -52 c28 -29 103 -109 167 -177 64 -69 119 -122 121 -120 3 3 -62 75
-144 160 -82 85 -154 163 -160 173 -9 16 4 17 223 16 l233 -1 -63 -30 c-35
-17 -61 -32 -59 -34 6 -6 157 65 157 74 0 4 -34 24 -75 45 -41 20 -75 33 -75
29 0 -4 24 -18 53 -32 l52 -25 -240 -3 -240 -2 -95 97 c-53 54 -124 130 -159
168 -35 39 -109 117 -165 176 -166 173 -390 411 -432 459 l-39 45 5 214 5 214
29 -62 c15 -34 30 -60 32 -58 7 6 -58 147 -67 147 -5 0 -25 -31 -44 -70z m171
-547 c65 -69 166 -176 224 -237 166 -175 276 -292 398 -424 l114 -122 -436 0
-437 0 2 455 c1 250 5 455 9 455 4 0 60 -57 126 -127z"/>
<path d="M2373 3308 c-32 -34 -34 -91 -5 -103 14 -5 15 -4 5 6 -21 21 -15 68
12 94 13 14 21 25 16 25 -4 0 -17 -10 -28 -22z"/>
<path d="M2438 3318 c19 -19 14 -48 -15 -87 l-27 -35 27 19 c43 32 54 115 15
115 -9 0 -9 -3 0 -12z"/>
<path d="M5404 3312 c-33 -23 -57 -93 -36 -106 5 -3 9 8 9 25 0 16 10 43 22
59 22 31 23 35 5 22z"/>
<path d="M5462 3301 c11 -19 10 -27 -10 -61 -14 -26 -18 -38 -9 -34 35 13 49
102 19 112 -11 3 -11 1 0 -17z"/>
<path d="M2985 3286 c4 -19 1 -35 -12 -50 -17 -20 -17 -21 2 -4 17 16 19 16
31 0 10 -14 11 -12 7 12 -4 21 -1 33 12 43 11 7 14 13 8 13 -7 0 -15 -5 -18
-11 -5 -6 -12 -4 -22 8 -13 17 -14 16 -8 -11z"/>
<path d="M6960 3295 c0 -5 5 -17 10 -25 6 -10 3 -22 -13 -40 -14 -16 -15 -19
-3 -8 18 16 20 16 33 0 12 -15 13 -14 7 12 -5 22 -2 32 11 43 11 7 14 13 8 13
-7 0 -15 -5 -18 -11 -5 -6 -12 -4 -21 8 -7 10 -13 14 -14 8z"/>
<path d="M5530 3279 c0 -5 5 -7 10 -4 6 3 10 8 10 11 0 2 -4 4 -10 4 -5 0 -10
-5 -10 -11z"/>
<path d="M5532 3240 c0 -14 2 -19 5 -12 2 6 2 18 0 25 -3 6 -5 1 -5 -13z"/>
<path d="M5398 3193 c7 -3 16 -2 19 1 4 3 -2 6 -13 5 -11 0 -14 -3 -6 -6z"/>
<path d="M5534 3060 c0 -80 2 -112 3 -72 2 39 2 105 0 145 -1 39 -3 7 -3 -73z"/>
<path d="M642 2383 c-23 -9 -34 -54 -22 -84 11 -25 55 -48 68 -34 3 3 -2 5
-11 5 -42 0 -62 67 -30 102 17 19 16 20 -5 11z"/>
<path d="M695 2380 c3 -5 8 -10 11 -10 2 0 4 5 4 10 0 6 -5 10 -11 10 -5 0 -7
-4 -4 -10z"/>
<path d="M4478 2320 c-3 -55 -1 -60 17 -60 15 0 17 2 6 9 -9 6 -12 24 -10 60
2 28 1 51 -3 51 -3 0 -8 -27 -10 -60z"/>
<path d="M4548 2364 c35 -24 25 -82 -18 -97 -11 -4 -11 -6 3 -6 28 -1 47 24
47 61 0 36 -15 58 -39 58 -11 0 -9 -5 7 -16z"/>
<path d="M740 2269 c0 -5 5 -7 10 -4 6 3 10 8 10 11 0 2 -4 4 -10 4 -5 0 -10
-5 -10 -11z"/>
<path d="M2058 2203 c5 -83 9 -90 11 -20 0 37 -2 67 -7 67 -4 0 -6 -21 -4 -47z"/>
<path d="M5085 2187 c0 -36 4 -64 10 -64 6 0 9 26 7 64 -5 82 -17 82 -17 0z"/>
<path d="M2113 2203 c-12 -4 -19 -73 -9 -73 2 0 13 -3 23 -7 17 -7 17 -6 1 11
-22 22 -23 55 -2 63 20 7 36 -15 31 -44 -2 -12 0 -20 4 -17 10 6 12 35 3 58
-6 16 -27 19 -51 9z"/>
<path d="M2201 2196 c-15 -18 -3 -46 20 -46 23 0 42 41 25 52 -17 12 -32 9
-45 -6z m39 -16 c0 -11 -7 -20 -15 -20 -8 0 -15 9 -15 20 0 11 7 20 15 20 8 0
15 -9 15 -20z"/>
<path d="M2428 2204 c-3 -3 -1 -21 5 -41 10 -32 9 -37 -12 -54 -13 -11 -21
-22 -17 -26 3 -3 7 -4 9 -2 1 2 16 19 32 38 17 19 24 31 18 27 -9 -5 -13 2
-13 23 0 29 -11 46 -22 35z"/>
<path d="M2482 2190 c0 -14 2 -19 5 -12 2 6 2 18 0 25 -3 6 -5 1 -5 -13z"/>
<path d="M5142 2198 c-23 -23 -8 -78 21 -78 5 0 1 7 -8 16 -18 18 -17 55 2 61
6 2 19 -8 27 -24 8 -15 15 -22 16 -15 0 21 -19 52 -33 52 -7 0 -18 -5 -25 -12z"/>
<path d="M5233 2202 c-6 -4 -11 -23 -12 -42 0 -19 -2 -44 -3 -55 -3 -24 37
-34 56 -14 8 9 7 11 -6 6 -27 -10 -51 2 -37 19 7 9 17 10 35 4 13 -5 24 -6 24
-1 0 4 -15 13 -32 19 -27 8 -29 10 -10 11 40 2 47 61 7 61 -5 0 -15 -4 -22 -8z
m33 -13 c3 -6 1 -16 -5 -22 -9 -9 -14 -8 -21 3 -9 15 -4 30 10 30 5 0 12 -5
16 -11z"/>
<path d="M5446 2192 c6 -4 14 -19 18 -34 3 -16 12 -28 18 -28 9 0 9 3 0 12 -7
7 -12 22 -12 35 0 15 -6 23 -17 23 -11 0 -14 -3 -7 -8z"/>
<path d="M2313 2153 c13 -3 16 -10 11 -26 -15 -48 -15 -51 0 -27 23 37 20 60
-6 59 -18 -1 -19 -2 -5 -6z"/>
<path d="M5320 2156 c0 -2 11 -6 25 -8 14 -3 25 -1 25 3 0 5 -11 9 -25 9 -14
0 -25 -2 -25 -4z"/>
<path d="M2194 2113 c1 -21 7 -29 25 -31 13 -2 28 2 35 8 8 9 6 11 -9 6 -11
-3 -27 -1 -35 4 -23 15 7 31 37 19 12 -5 23 -5 23 0 0 9 -34 21 -61 21 -11 0
-16 -8 -15 -27z"/>
<path d="M5443 2106 c-13 -6 -23 -14 -23 -18 0 -14 17 -8 35 12 20 22 20 22
-12 6z"/>
<path d="M5337 2091 c-4 -17 -3 -21 5 -13 5 5 8 16 6 23 -3 8 -7 3 -11 -10z"/>
<path d="M2476 2023 c-20 -41 -35 -78 -32 -80 3 -3 18 23 35 58 l29 64 1 -242
1 -243 -454 0 -454 0 -129 138 c-72 75 -147 155 -168 177 -20 22 -35 35 -33
28 1 -7 53 -65 114 -130 61 -65 129 -138 152 -163 l42 -45 -197 -5 -198 -6
204 -2 204 -2 61 -64 c34 -35 117 -123 186 -196 69 -73 145 -154 170 -180 25
-25 144 -149 265 -274 l220 -229 5 -206 6 -206 2 193 c1 105 4 192 6 192 3 0
29 -26 58 -57 123 -133 217 -227 217 -218 0 6 -63 75 -140 155 l-141 145 4
383 c3 222 1 382 -4 382 -5 0 -9 -39 -8 -87 1 -49 1 -218 1 -377 l-1 -288 -62
64 c-35 36 -139 145 -233 243 -93 97 -192 201 -220 229 -185 193 -361 380
-363 387 -3 6 165 9 439 7 l444 -3 6 -30 7 -30 1 33 1 32 158 -4 c86 -2 175
-1 197 4 26 5 -29 8 -157 9 l-198 1 0 237 c0 145 4 233 9 228 5 -6 21 -32 36
-60 14 -27 23 -39 19 -25 -7 27 -26 66 -53 111 l-17 28 -38 -76z"/>
<path d="M5497 2016 c-45 -94 -48 -113 -4 -31 l32 60 3 -230 c1 -126 0 -235
-2 -241 -3 -8 -37 -12 -103 -12 -202 -1 -256 -2 -250 -8 3 -3 83 -6 179 -7
l173 -2 -2 -125 c-1 -69 -2 -279 -2 -467 l-1 -343 -132 -136 c-73 -75 -137
-143 -141 -152 -5 -10 55 48 133 128 l142 145 -5 -187 c-4 -125 -3 -189 4
-194 7 -4 10 8 9 32 -1 22 -2 112 -1 200 l1 162 148 153 c180 187 256 265 425
439 73 75 176 182 230 238 l98 102 242 0 242 -1 -59 -30 c-32 -17 -56 -32 -53
-35 6 -7 157 69 157 79 0 9 -150 80 -156 74 -3 -2 24 -18 58 -35 l63 -31 -239
0 -239 -1 45 48 c24 26 60 63 79 82 177 184 209 218 209 226 0 8 -82 -74 -257
-259 l-92 -98 -446 2 -445 1 0 246 1 247 25 -40 c13 -22 27 -50 30 -62 4 -13
10 -23 14 -23 9 0 -35 102 -60 140 -16 22 -17 22 -53 -54z m895 -479 c17 -2
-14 -36 -315 -347 -330 -341 -406 -420 -458 -475 -103 -111 -93 -153 -86 364
4 251 11 457 16 460 8 5 803 3 843 -2z"/>
<path d="M2824 1642 c2 -4 28 -19 56 -32 30 -14 49 -29 46 -36 -3 -7 0 -15 7
-17 7 -3 -17 -17 -52 -33 -35 -15 -59 -30 -54 -31 14 -5 145 59 150 72 2 6
-31 27 -72 48 -78 38 -90 43 -81 29z"/>
<path d="M2367 1478 c-25 -20 -39 -66 -27 -89 15 -28 20 -23 13 12 -4 22 0 38
16 60 24 32 23 35 -2 17z"/>
<path d="M2436 1477 c9 -24 -2 -59 -26 -85 -11 -12 -17 -22 -12 -22 14 0 49
43 55 67 2 12 -1 30 -9 40 -13 17 -14 17 -8 0z"/>
<path d="M5383 1458 c-28 -31 -36 -63 -23 -88 15 -28 52 -25 82 8 35 37 43 66
23 86 -22 22 -28 20 -13 -4 19 -30 -17 -94 -54 -98 -26 -3 -28 -1 -28 31 0 20
9 46 21 61 25 32 20 34 -8 4z"/>
<path d="M2512 1445 c0 -16 2 -22 5 -12 2 9 2 23 0 30 -3 6 -5 -1 -5 -18z"/>
<path d="M2966 1452 c21 -14 21 -37 0 -62 l-21 -25 22 18 c20 18 22 18 32 0 9
-14 9 -12 5 14 -5 25 -2 34 10 39 9 3 16 11 16 16 0 6 -7 5 -15 -2 -12 -10
-19 -10 -27 -2 -7 7 -17 12 -22 12 -7 0 -7 -3 0 -8z"/>
<path d="M6947 1438 c6 -7 13 -25 17 -40 3 -16 11 -28 17 -28 6 0 6 7 -1 20
-12 23 -6 40 16 40 8 0 14 5 14 10 0 13 -13 13 -27 -1 -8 -8 -13 -8 -17 0 -4
6 -12 11 -18 11 -7 0 -7 -4 -1 -12z"/>
<path d="M6928 1373 c7 -3 16 -2 19 1 4 3 -2 6 -13 5 -11 0 -14 -3 -6 -6z"/>
</g>
</svg>
