<?xml version="1.0" standalone="no"?>
<!DOCTYPE svg PUBLIC "-//W3C//DTD SVG 20010904//EN"
 "http://www.w3.org/TR/2001/REC-SVG-20010904/DTD/svg10.dtd">
<svg version="1.0" xmlns="http://www.w3.org/2000/svg"
 width="1391.000000pt" height="547.000000pt" viewBox="0 0 1391.000000 547.000000"
 preserveAspectRatio="xMidYMid meet">
<metadata>
Created by potrace 1.16, written by Peter Selinger 2001-2019
</metadata>
<g transform="translate(0.000000,547.000000) scale(0.100000,-0.100000)"
fill="#000000" stroke="none">
<path d="M1480 5125 l0 -37 -55 4 -55 3 0 -62 c0 -40 4 -63 11 -63 6 0 8 7 5
16 -3 8 -3 33 0 55 6 38 7 39 50 39 l44 0 0 -44 c0 -44 0 -45 -37 -49 l-38 -4
38 -1 37 -2 0 -62 c0 -34 3 -58 7 -54 4 4 7 30 8 59 l0 52 44 3 c28 2 47 -1
52 -10 5 -8 9 9 10 45 1 31 2 62 3 69 1 8 -15 11 -51 9 -53 -2 -53 -2 -53 28
0 16 -4 33 -10 36 -6 4 -10 -9 -10 -30z m110 -90 l0 -45 -44 0 c-49 0 -54 6
-48 56 4 33 6 34 48 34 l44 0 0 -45z"/>
<path d="M2515 5144 c-22 -7 -58 -13 -80 -14 -34 -1 -43 -6 -62 -36 -21 -32
-21 -34 -3 -24 18 10 20 7 20 -25 0 -22 4 -34 10 -30 6 3 7 17 4 31 -6 24 -5
24 61 24 62 0 67 -1 62 -20 -3 -13 0 -20 9 -20 7 0 11 6 8 14 -3 8 0 17 5 21
20 12 1 24 -29 18 -18 -3 -30 -1 -30 5 0 6 -3 17 -6 26 -5 13 2 16 34 16 23 0
43 4 47 9 10 16 -9 18 -50 5z m-45 -28 c0 -2 3 -11 6 -20 5 -13 -1 -16 -33
-16 -44 0 -54 5 -46 26 4 12 73 21 73 10z"/>
<path d="M8765 5139 c-5 -16 -12 -19 -31 -15 -13 4 -24 2 -24 -3 0 -5 -3 -18
-6 -28 -5 -17 -5 -17 6 0 6 9 20 17 31 17 17 0 18 -3 8 -22 -14 -29 -50 -68
-61 -68 -4 0 -7 3 -5 8 1 4 -2 7 -7 7 -5 0 -9 -18 -9 -40 0 -22 -3 -49 -7 -60
-5 -13 -3 -25 6 -33 12 -11 14 -4 14 42 0 44 4 57 19 66 27 14 31 3 27 -66
l-3 -59 66 3 c36 2 71 8 76 14 7 7 -2 8 -27 4 -36 -7 -38 -5 -38 19 0 20 5 25
25 25 14 0 25 4 25 9 0 4 -11 6 -25 3 -18 -3 -25 0 -25 12 0 10 9 16 24 16 14
0 28 5 32 11 4 8 -3 9 -25 4 -28 -6 -31 -4 -31 19 0 22 4 26 31 26 16 0 28 4
25 9 -3 4 -18 6 -33 3 -25 -5 -27 -4 -14 11 9 12 10 17 2 17 -6 0 -14 -7 -17
-15 -4 -8 -15 -15 -25 -15 -16 0 -17 3 -7 25 9 20 18 25 50 25 29 0 37 -3 32
-12 -5 -9 -2 -8 9 1 24 19 13 26 -35 22 -33 -2 -40 0 -35 13 3 8 2 18 -3 21
-5 3 -12 -4 -15 -16z m20 -99 c4 -6 3 -19 -1 -28 -4 -9 -6 -25 -5 -34 2 -12
-5 -18 -17 -18 -16 0 -20 7 -20 45 -1 38 2 45 18 45 10 0 22 -5 25 -10z m-5
-115 c0 -18 -5 -25 -20 -25 -15 0 -20 7 -20 25 0 18 5 25 20 25 15 0 20 -7 20
-25z"/>
<path d="M1748 5130 l-48 -15 2 -95 c1 -52 3 -80 5 -62 4 33 5 33 51 31 l47
-3 3 48 c3 37 1 47 -10 44 -8 -3 -12 -17 -10 -41 4 -37 3 -37 -36 -37 l-40 0
3 50 c1 28 4 52 6 54 2 2 24 10 48 19 24 8 40 16 35 18 -5 3 -30 -2 -56 -11z"/>
<path d="M1900 5133 c-14 -7 -35 -13 -47 -13 -22 0 -23 -4 -23 -83 0 -61 -5
-92 -19 -120 -10 -20 -14 -34 -9 -31 22 14 39 80 40 150 l0 73 39 6 c21 4 42
11 45 17 10 15 1 16 -26 1z"/>
<path d="M2810 5114 c0 -33 -2 -36 -25 -32 l-25 5 0 -85 c0 -47 3 -82 8 -78 4
4 7 18 7 29 0 20 6 22 59 25 58 3 59 3 54 -23 -3 -14 -1 -28 3 -31 10 -6 10
-1 14 94 l2 62 -38 0 c-28 0 -39 4 -39 15 0 12 13 15 59 15 33 0 62 4 65 9 3
5 -23 6 -59 3 -56 -4 -65 -2 -65 12 0 9 -4 16 -10 16 -5 0 -10 -16 -10 -36z
m78 -84 l1 -40 -59 0 -59 0 4 38 c2 20 4 38 4 40 1 1 25 2 55 2 l54 0 0 -40z"/>
<path d="M3046 5125 c-15 -22 -15 -27 -1 -48 14 -21 13 -25 -5 -45 -21 -23
-27 -37 -10 -27 6 4 18 1 26 -6 13 -10 17 -10 24 1 4 7 15 10 25 6 13 -5 16
-2 11 10 -3 8 -6 18 -6 21 0 3 -7 0 -15 -7 -8 -6 -22 -10 -31 -8 -15 2 -12 9
15 41 34 38 35 46 1 25 -15 -10 -22 -10 -32 0 -10 10 -8 15 10 28 12 8 22 19
22 25 0 17 -18 9 -34 -16z"/>
<path d="M3190 5135 c0 -9 -9 -15 -25 -15 -23 0 -25 -3 -25 -50 0 -27 4 -50
10 -50 5 0 9 10 7 23 -2 20 3 22 47 25 48 3 48 3 42 -22 -3 -14 -2 -26 3 -26
5 0 11 23 13 50 l3 50 -34 0 c-25 0 -32 4 -27 15 3 8 1 15 -4 15 -6 0 -10 -7
-10 -15z m50 -40 c0 -11 -12 -15 -45 -15 -33 0 -45 4 -45 15 0 11 12 15 45 15
33 0 45 -4 45 -15z"/>
<path d="M5500 5129 c0 -12 -8 -23 -20 -26 -35 -9 -22 -19 20 -15 l40 4 0 -37
0 -37 -42 4 -43 3 -3 -60 c-2 -48 -1 -58 9 -47 7 6 24 13 39 13 23 1 23 2 -5
8 -25 5 -31 12 -33 39 -3 31 -3 32 39 32 l42 0 -5 -45 c-3 -25 -2 -48 3 -50 4
-3 9 38 11 90 3 94 3 95 -21 95 -20 0 -22 4 -17 25 4 14 2 25 -4 25 -5 0 -10
-9 -10 -21z"/>
<path d="M5610 5125 c-5 -14 -17 -40 -25 -58 l-16 -32 23 28 c19 21 32 27 66
27 47 0 46 2 42 -90 -2 -67 -21 -100 -58 -101 l-27 -1 28 -10 c45 -16 59 6 72
117 l11 95 -54 0 c-53 0 -54 1 -48 25 8 32 -2 32 -14 0z"/>
<path d="M5806 5143 c-3 -4 -6 -63 -6 -132 l0 -126 125 0 125 0 0 123 c0 67 0
124 0 127 0 3 -3 4 -6 3 -3 -2 -6 -55 -7 -118 l-2 -115 -87 -3 c-86 -3 -100 2
-76 26 9 9 9 12 0 12 -7 0 -12 14 -12 35 0 27 4 35 18 35 14 0 15 2 2 10 -27
17 -30 11 -30 -56 0 -57 -2 -65 -17 -62 -16 3 -18 18 -20 115 -2 98 0 112 15
115 16 3 16 4 0 10 -9 4 -19 4 -22 1z"/>
<path d="M6166 5116 c-4 -19 -15 -45 -26 -59 -23 -29 -26 -45 -6 -28 19 16 27
-18 20 -85 -3 -32 -1 -55 5 -59 8 -4 11 27 11 100 0 75 4 114 15 135 13 25 13
30 1 30 -8 0 -16 -14 -20 -34z"/>
<path d="M6250 5141 c0 -5 -13 -23 -29 -40 -16 -17 -25 -31 -20 -31 5 0 9 -11
9 -25 0 -14 4 -25 10 -25 5 0 7 13 3 32 -6 31 -6 31 27 24 19 -3 36 -8 38 -11
12 -12 -24 -55 -59 -71 -50 -22 -44 -31 6 -10 43 18 55 20 55 7 0 -5 -21 -18
-47 -29 -54 -24 -42 -30 14 -7 20 8 39 12 42 9 3 -4 0 -9 -6 -11 -7 -3 -13 -9
-13 -15 0 -6 7 -7 16 -4 12 4 15 0 12 -17 -2 -17 -9 -21 -28 -19 -22 2 -23 1
-7 -9 26 -15 47 -4 47 26 0 30 20 33 45 5 18 -20 35 -26 35 -12 0 4 -14 15
-30 24 -38 22 -38 31 2 46 17 6 29 15 25 18 -4 4 -23 -1 -42 -12 -31 -17 -37
-17 -45 -4 -13 20 -13 87 0 95 5 3 21 3 35 -1 18 -4 25 -13 25 -31 0 -34 15
-21 18 16 2 29 0 31 -33 31 -19 0 -35 5 -35 10 0 6 5 10 10 10 6 0 10 5 10 10
0 6 -7 10 -15 10 -8 0 -15 -6 -15 -14 0 -22 -23 -33 -55 -26 l-30 7 31 14 c17
8 29 20 27 27 -5 14 -33 17 -33 3z"/>
<path d="M7386 5141 c-3 -5 1 -11 9 -15 8 -3 15 -1 15 4 0 13 -18 22 -24 11z"/>
<path d="M7505 5025 l-7 -125 -27 -1 -26 -1 29 -10 c40 -15 46 -1 46 124 0 58
3 113 6 122 3 9 2 16 -4 16 -5 0 -13 -54 -17 -125z"/>
<path d="M7629 5107 c-12 -32 -14 -63 -10 -137 l6 -95 5 111 c4 82 10 117 23
137 12 19 14 27 5 27 -7 0 -20 -19 -29 -43z"/>
<path d="M8040 5135 c0 -11 -11 -15 -42 -15 -23 0 -38 -3 -34 -7 4 -4 21 -7
39 -8 22 0 33 -5 35 -17 3 -14 -7 -18 -55 -21 l-58 -3 68 -2 c84 -2 88 -18 15
-56 -34 -17 -43 -25 -25 -21 27 5 27 5 27 -49 0 -46 3 -54 15 -50 12 5 13 10
4 20 -23 28 -3 44 56 44 52 0 55 -1 55 -25 0 -23 -4 -25 -47 -26 -56 -1 -48
-5 20 -12 l47 -5 0 65 c0 54 -3 64 -15 59 -9 -3 -15 0 -15 8 0 7 -7 19 -15 26
-23 19 -18 1 10 -35 13 -18 21 -35 18 -39 -11 -11 -123 -7 -123 4 0 6 18 29
39 50 36 36 44 40 90 40 28 0 51 4 51 9 0 5 -19 7 -42 4 l-43 -6 29 32 c16 17
26 34 22 38 -3 4 -20 -10 -37 -30 -35 -42 -79 -52 -79 -17 0 16 7 20 36 20 19
0 33 4 30 8 -3 5 -19 7 -36 4 -25 -3 -29 -1 -24 12 3 9 1 16 -5 16 -6 0 -11
-7 -11 -15z"/>
<path d="M1040 5005 c0 -76 3 -136 6 -132 8 7 7 257 -1 265 -3 3 -5 -57 -5
-133z"/>
<path d="M1100 5130 c0 -5 5 -10 11 -10 5 0 7 5 4 10 -3 6 -8 10 -11 10 -2 0
-4 -4 -4 -10z"/>
<path d="M1259 5126 c14 -16 14 -213 0 -222 -5 -3 -7 -10 -4 -15 17 -27 24 4
27 121 3 122 2 130 -16 130 -15 0 -16 -3 -7 -14z"/>
<path d="M2212 5131 c-11 -7 -11 -9 0 -13 18 -7 39 2 32 13 -6 11 -15 11 -32
0z"/>
<path d="M5943 5133 c9 -2 23 -2 30 0 6 3 -1 5 -18 5 -16 0 -22 -2 -12 -5z"/>
<path d="M7140 5130 c-22 -7 -21 -8 13 -9 20 -1 37 4 37 9 0 11 -14 11 -50 0z"/>
<path d="M7833 5133 c-9 -3 -13 -37 -13 -119 l0 -114 -27 -1 -28 0 24 -10 c35
-14 44 1 42 68 -2 91 9 163 26 163 8 0 11 5 8 10 -7 11 -13 11 -32 3z"/>
<path d="M8485 5130 c-3 -5 3 -10 15 -10 12 0 18 5 15 10 -3 6 -10 10 -15 10
-5 0 -12 -4 -15 -10z"/>
<path d="M8635 5130 c-22 -4 -32 -8 -22 -9 15 -1 18 -7 13 -33 l-6 -33 15 33
c11 24 22 32 41 32 14 0 23 4 19 10 -3 6 -9 9 -13 9 -4 -1 -25 -5 -47 -9z"/>
<path d="M9010 5115 c-10 -20 -11 -28 -2 -37 9 -9 12 -6 12 15 0 14 8 31 18
36 14 9 15 10 1 11 -9 0 -22 -11 -29 -25z"/>
<path d="M9083 5129 c23 -13 22 -55 -3 -86 -31 -40 -23 -48 10 -10 42 49 37
108 -9 107 -13 -1 -13 -2 2 -11z"/>
<path d="M2068 5123 c7 -3 16 -2 19 1 4 3 -2 6 -13 5 -11 0 -14 -3 -6 -6z"/>
<path d="M4660 5115 c0 -9 -10 -49 -22 -90 -17 -58 -19 -78 -10 -87 9 -9 12
-6 12 16 0 30 27 83 45 90 40 15 50 -51 15 -90 -13 -13 -19 -24 -13 -24 16 0
51 43 58 71 8 34 -18 63 -51 55 -27 -7 -28 -4 -15 42 8 25 7 32 -5 32 -8 0
-14 -7 -14 -15z"/>
<path d="M5124 5122 c-39 -26 -47 -133 -13 -176 11 -14 29 -26 39 -26 32 0 60
47 60 102 0 68 -22 108 -60 108 -8 0 -20 -4 -26 -8z m61 -97 c0 -48 -4 -69
-17 -82 -17 -16 -19 -16 -35 0 -25 25 -23 145 3 164 31 23 49 -7 49 -82z"/>
<path d="M6988 5123 l62 -4 2 -122 1 -122 6 88 c5 61 11 91 21 97 13 8 12 10
-2 10 -20 0 -23 13 -8 41 10 18 7 19 -67 17 -77 -2 -77 -2 -15 -5z"/>
<path d="M7288 5123 c25 -5 24 -20 -5 -75 -12 -24 -12 -28 1 -28 8 0 21 -9 29
-20 8 -11 17 -17 20 -13 4 3 -6 17 -21 30 l-27 24 24 19 c13 11 18 20 12 20
-17 0 0 31 23 40 15 7 8 9 -29 8 -27 0 -40 -3 -27 -5z"/>
<path d="M7778 5123 c7 -3 16 -2 19 1 4 3 -2 6 -13 5 -11 0 -14 -3 -6 -6z"/>
<path d="M8313 5123 c9 -2 23 -2 30 0 6 3 -1 5 -18 5 -16 0 -22 -2 -12 -5z"/>
<path d="M8390 5120 c0 -5 5 -10 10 -10 6 0 10 5 10 10 0 6 -4 10 -10 10 -5 0
-10 -4 -10 -10z"/>
<path d="M365 5078 c-41 -55 -65 -92 -65 -100 0 -5 18 -8 40 -8 36 0 40 -3 40
-24 0 -14 5 -28 10 -31 6 -3 10 3 10 14 0 11 7 26 15 35 13 13 13 16 1 23 -10
5 -16 29 -18 70 l-3 62 -30 -41z m25 -41 c0 -39 -15 -57 -47 -57 -30 0 -29 13
3 56 33 43 44 43 44 1z"/>
<path d="M2575 5097 c10 -15 20 -25 23 -22 3 3 -5 16 -17 28 l-23 22 17 -28z"/>
<path d="M2703 5113 c15 -2 39 -2 55 0 15 2 2 4 -28 4 -30 0 -43 -2 -27 -4z"/>
<path d="M5870 5093 c0 -16 6 -23 20 -23 12 0 20 -7 20 -17 1 -17 1 -17 14 0
7 9 23 17 35 17 15 0 21 6 21 23 0 20 -5 22 -55 22 -50 0 -55 -2 -55 -22z m90
-3 c0 -5 -18 -10 -40 -10 -22 0 -40 5 -40 10 0 6 18 10 40 10 22 0 40 -4 40
-10z"/>
<path d="M7440 5038 c0 -96 7 -102 11 -8 1 36 6 71 12 78 7 8 5 12 -7 12 -13
0 -16 -13 -16 -82z"/>
<path d="M189 5101 c11 -7 14 -30 13 -96 -2 -69 1 -87 13 -92 20 -7 29 2 19
19 -5 7 -7 50 -5 96 l3 82 -28 0 c-22 0 -25 -3 -15 -9z"/>
<path d="M1110 5102 c0 -5 19 -8 43 -8 35 1 41 -2 39 -16 -2 -10 1 -18 6 -18
11 0 22 36 14 44 -9 9 -102 7 -102 -2z"/>
<path d="M1110 5069 c0 -5 5 -7 10 -4 6 3 10 8 10 11 0 2 -4 4 -10 4 -5 0 -10
-5 -10 -11z"/>
<path d="M1144 5064 c3 -9 6 -18 6 -20 0 -2 5 -4 10 -4 6 0 10 9 10 20 0 12
-7 20 -16 20 -11 0 -14 -5 -10 -16z"/>
<path d="M3842 5048 c-1 -21 -7 -38 -13 -38 -8 0 -8 -4 -1 -12 6 -7 12 -26 15
-43 l4 -30 2 33 c1 26 5 32 24 32 12 0 29 5 37 10 11 7 6 10 -22 10 -35 0 -37
2 -41 38 l-4 37 -1 -37z"/>
<path d="M7379 5078 c0 -2 -2 -13 -4 -24 -9 -46 -27 -77 -72 -126 -27 -29 -38
-46 -26 -40 27 15 78 76 97 117 22 49 28 75 17 75 -6 0 -11 -1 -12 -2z"/>
<path d="M2255 5060 c-3 -5 1 -10 10 -10 9 0 13 5 10 10 -3 6 -8 10 -10 10 -2
0 -7 -4 -10 -10z"/>
<path d="M4462 5043 c-1 -17 -8 -34 -14 -36 -10 -4 -10 -8 -1 -14 6 -4 13 -22
16 -38 l4 -30 2 33 c1 30 3 32 36 32 19 0 35 5 35 10 0 6 -15 10 -34 10 -32 0
-35 3 -39 33 l-4 32 -1 -32z"/>
<path d="M7689 5053 c0 -10 -2 -38 -5 -61 -4 -30 -2 -42 5 -37 6 3 11 29 11
56 0 49 1 50 28 47 25 -3 27 -7 27 -45 0 -23 3 -45 8 -49 4 -4 7 11 7 34 0 22
3 47 6 56 5 13 -2 16 -40 16 -37 0 -46 -3 -47 -17z"/>
<path d="M2018 5053 c6 -2 18 -2 25 0 6 3 1 5 -13 5 -14 0 -19 -2 -12 -5z"/>
<path d="M2068 5053 c6 -2 18 -2 25 0 6 3 1 5 -13 5 -14 0 -19 -2 -12 -5z"/>
<path d="M2218 5053 c7 -3 16 -2 19 1 4 3 -2 6 -13 5 -11 0 -14 -3 -6 -6z"/>
<path d="M2699 5018 c0 -24 -2 -67 -2 -95 -1 -29 1 -53 5 -53 5 0 8 5 8 10 0
6 47 10 120 10 66 0 120 3 120 8 0 4 -54 5 -121 3 l-121 -3 4 81 c2 45 0 81
-4 81 -5 0 -8 -19 -9 -42z"/>
<path d="M3603 5042 c9 -10 19 -34 21 -53 8 -58 15 -70 37 -58 22 11 26 31 5
23 -9 -3 -15 5 -19 23 -5 22 0 33 20 51 14 13 22 26 18 30 -4 4 -15 -3 -25
-16 -19 -23 -19 -23 -30 -2 -6 11 -18 20 -27 20 -15 0 -15 -1 0 -18z"/>
<path d="M4037 5028 c-32 -43 -40 -86 -18 -97 18 -9 41 -4 41 10 0 4 -7 6 -15
3 -24 -10 -19 55 7 83 12 13 19 25 16 29 -3 3 -17 -10 -31 -28z"/>
<path d="M4104 5024 c0 -18 -7 -41 -16 -51 -15 -17 -15 -19 0 -33 21 -19 27
-16 28 18 1 15 5 43 9 63 5 27 4 36 -7 36 -9 0 -14 -12 -14 -33z"/>
<path d="M4208 5048 c5 -7 13 -37 17 -66 8 -61 -11 -102 -47 -102 -17 0 -19
-3 -11 -11 9 -9 18 -8 37 5 15 9 26 20 26 24 0 5 20 32 45 61 43 50 60 101 34
101 -6 0 -9 -9 -6 -19 5 -21 -26 -81 -42 -81 -6 0 -13 17 -16 38 -10 55 -13
62 -31 62 -12 0 -14 -3 -6 -12z"/>
<path d="M5985 5041 c-3 -11 -14 -22 -23 -24 -16 -4 -16 -5 0 -6 30 -2 30 -70
-1 -72 -12 0 -11 -2 4 -8 29 -12 35 -5 33 42 -1 23 1 52 6 65 4 13 3 22 -3 22
-5 0 -12 -9 -16 -19z"/>
<path d="M8318 5035 c-3 -14 -2 -28 2 -30 4 -3 10 9 12 25 5 36 -8 40 -14 5z"/>
<path d="M1228 5043 c7 -3 16 -2 19 1 4 3 -2 6 -13 5 -11 0 -14 -3 -6 -6z"/>
<path d="M1900 4965 c0 -47 4 -85 9 -85 5 0 10 38 10 85 0 48 -4 85 -9 85 -6
0 -10 -37 -10 -85z"/>
<path d="M2140 4965 c0 -50 4 -85 10 -85 6 0 10 35 10 85 0 50 -4 85 -10 85
-6 0 -10 -35 -10 -85z"/>
<path d="M6574 5035 c-9 -23 3 -45 25 -45 21 0 37 28 22 43 -6 6 -9 2 -8 -9 1
-11 -6 -20 -17 -22 -15 -3 -18 1 -14 22 6 28 1 35 -8 11z"/>
<path d="M7122 5023 c15 -15 31 -24 34 -20 8 8 -34 47 -50 47 -6 0 2 -12 16
-27z"/>
<path d="M7590 5028 c-12 -22 -12 -22 6 -6 10 10 15 20 12 24 -4 3 -12 -5 -18
-18z"/>
<path d="M8472 5034 c-10 -12 -10 -14 2 -14 17 0 30 16 19 23 -5 3 -14 -1 -21
-9z"/>
<path d="M8597 5013 c-15 -29 -15 -34 -3 -24 8 7 20 10 25 6 6 -3 8 0 5 8 -3
8 0 18 5 22 11 6 6 25 -7 25 -4 0 -15 -17 -25 -37z"/>
<path d="M2560 5014 l0 -25 -83 3 -83 3 -21 -54 c-12 -29 -16 -48 -10 -42 7 7
17 26 23 44 l11 32 96 3 97 3 0 -35 c0 -24 -6 -38 -19 -45 -10 -6 -20 -9 -22
-8 -3 1 -1 -2 4 -8 14 -18 41 11 53 58 12 46 12 47 -12 47 -21 0 -24 4 -18 25
4 15 2 25 -5 25 -6 0 -11 -12 -11 -26z"/>
<path d="M4850 5033 c0 -9 129 -8 138 1 3 3 -27 6 -66 6 -40 0 -72 -3 -72 -7z"/>
<path d="M8390 4983 c0 -31 3 -54 6 -50 3 3 6 22 6 41 0 20 4 39 9 42 11 6 2
24 -12 24 -5 0 -9 -25 -9 -57z"/>
<path d="M3188 5023 c13 -5 16 -62 6 -100 -4 -15 -14 -23 -28 -24 -20 0 -20
-1 -1 -9 32 -14 33 -12 40 33 3 23 9 57 12 75 5 29 3 32 -18 31 -13 0 -18 -3
-11 -6z"/>
<path d="M5626 5005 c9 -14 19 -24 21 -21 7 7 -16 46 -28 46 -5 0 -2 -11 7
-25z"/>
<path d="M1090 4963 c0 -31 3 -53 7 -49 10 9 10 106 1 106 -5 0 -8 -25 -8 -57z"/>
<path d="M1218 4985 c2 -19 -1 -42 -8 -50 -10 -12 -9 -15 4 -15 13 0 16 11 16
50 0 28 -4 50 -8 50 -4 0 -6 -16 -4 -35z"/>
<path d="M5918 5013 c7 -3 16 -2 19 1 4 3 -2 6 -13 5 -11 0 -14 -3 -6 -6z"/>
<path d="M2060 4973 c-42 -63 -44 -70 -6 -28 19 22 36 46 36 53 0 18 -2 16
-30 -25z"/>
<path d="M2210 5004 c0 -6 7 -18 16 -25 9 -7 20 -23 25 -36 5 -13 13 -23 19
-23 7 0 8 5 0 18 -18 31 -60 77 -60 66z"/>
<path d="M3770 4999 c0 -5 9 -9 20 -9 11 0 20 2 20 4 0 2 -9 6 -20 9 -11 3
-20 1 -20 -4z"/>
<path d="M4400 5000 c0 -5 7 -10 16 -10 8 0 12 5 9 10 -3 6 -10 10 -16 10 -5
0 -9 -4 -9 -10z"/>
<path d="M3255 4989 c-4 -6 -13 -8 -21 -5 -8 3 -14 0 -14 -6 0 -16 49 -78 62
-78 7 0 -1 14 -17 30 -25 26 -27 32 -15 40 8 5 21 10 28 10 6 0 12 5 12 10 0
13 -27 13 -35 -1z"/>
<path d="M5880 4990 c0 -5 4 -10 9 -10 6 0 13 5 16 10 3 6 -1 10 -9 10 -9 0
-16 -4 -16 -10z"/>
<path d="M5935 4975 c0 -14 6 -25 13 -25 6 0 12 11 12 25 0 14 -6 25 -12 25
-7 0 -13 -11 -13 -25z"/>
<path d="M1120 4970 c0 -16 7 -20 35 -20 28 0 35 4 35 20 0 16 -7 20 -35 20
-28 0 -35 -4 -35 -20z m60 0 c0 -5 -9 -10 -20 -10 -11 0 -20 5 -20 10 0 6 9
10 20 10 11 0 20 -4 20 -10z"/>
<path d="M3104 4976 c-3 -8 -1 -23 5 -33 9 -15 10 -13 5 10 -5 23 -3 27 15 27
28 0 26 -16 -5 -58 -24 -31 -25 -33 -5 -23 11 7 21 16 21 21 0 4 12 22 26 39
l26 31 -41 0 c-27 0 -44 -5 -47 -14z"/>
<path d="M4900 4979 l-65 -6 83 -1 c79 -2 102 2 65 9 -10 2 -47 1 -83 -2z"/>
<path d="M8316 4965 c-14 -56 -14 -64 0 -69 18 -7 21 2 14 54 -6 43 -6 44 -14
15z"/>
<path d="M3021 4944 c-14 -49 -7 -56 9 -9 7 20 10 39 7 42 -3 3 -10 -12 -16
-33z"/>
<path d="M7928 4973 c7 -3 16 -2 19 1 4 3 -2 6 -13 5 -11 0 -14 -3 -6 -6z"/>
<path d="M8615 4971 c-3 -5 -2 -12 3 -15 5 -3 9 1 9 9 0 17 -3 19 -12 6z"/>
<path d="M5880 4960 c0 -5 5 -10 10 -10 6 0 10 5 10 10 0 6 -4 10 -10 10 -5 0
-10 -4 -10 -10z"/>
<path d="M2550 4946 c0 -9 5 -16 10 -16 6 0 10 4 10 9 0 6 -4 13 -10 16 -5 3
-10 -1 -10 -9z"/>
<path d="M3063 4920 c0 -25 2 -35 4 -22 2 12 2 32 0 45 -2 12 -4 2 -4 -23z"/>
<path d="M3582 4949 c-13 -5 -20 -14 -17 -20 5 -7 13 -4 26 7 10 9 19 19 19
21 0 4 0 4 -28 -8z"/>
<path d="M2462 4925 c0 -16 2 -22 5 -12 2 9 2 23 0 30 -3 6 -5 -1 -5 -18z"/>
<path d="M2506 4937 c3 -10 9 -15 12 -12 3 3 0 11 -7 18 -10 9 -11 8 -5 -6z"/>
<path d="M475 4931 c-6 -11 9 -23 19 -14 9 9 7 23 -3 23 -6 0 -12 -4 -16 -9z"/>
<path d="M8612 4913 c-1 -15 1 -22 5 -17 5 5 12 11 16 15 4 3 2 11 -5 17 -11
9 -14 5 -16 -15z"/>
<path d="M2396 4913 c-6 -14 -5 -15 5 -6 7 7 10 15 7 18 -3 3 -9 -2 -12 -12z"/>
<path d="M9045 4921 c-3 -5 -1 -12 5 -16 5 -3 10 1 10 9 0 18 -6 21 -15 7z"/>
<path d="M1686 4905 c-9 -26 -7 -32 5 -12 6 10 9 21 6 23 -2 3 -7 -2 -11 -11z"/>
<path d="M6215 4910 c-16 -7 -17 -9 -3 -9 9 -1 20 4 23 9 7 11 7 11 -20 0z"/>
<path d="M8385 4910 c-3 -5 1 -10 10 -10 9 0 13 5 10 10 -3 6 -8 10 -10 10 -2
0 -7 -4 -10 -10z"/>
<path d="M8490 4910 c-12 -8 -11 -10 8 -10 12 0 22 5 22 10 0 13 -11 13 -30 0z"/>
<path d="M1308 4308 c7 -7 12 -43 12 -93 0 -50 -5 -86 -12 -93 -9 -9 -4 -12
26 -12 34 0 37 2 26 16 -19 22 -18 173 1 185 10 6 2 9 -25 9 -31 0 -37 -3 -28
-12z"/>
<path d="M2414 4295 c-11 -16 -17 -47 -17 -82 0 -49 3 -59 27 -80 21 -18 31
-21 46 -13 29 15 42 47 43 100 1 88 -60 134 -99 75z m67 -6 c14 -27 7 -135 -9
-151 -9 -9 -17 -10 -30 -2 -20 13 -29 122 -12 154 14 26 36 26 51 -1z"/>
<path d="M9903 4248 c7 -24 12 -56 10 -72 -2 -34 -29 -67 -49 -59 -8 3 -14 0
-14 -6 0 -27 33 -5 89 60 39 44 61 79 61 95 0 13 -5 24 -10 24 -6 0 -8 -10 -5
-23 4 -15 -1 -32 -15 -50 -27 -34 -40 -34 -40 1 0 42 -11 72 -26 72 -11 0 -11
-7 -1 -42z"/>
<path d="M2223 4229 c-35 -16 -63 -33 -63 -37 0 -4 29 -22 65 -40 36 -17 65
-28 65 -24 0 5 -22 19 -50 32 -27 13 -50 27 -50 32 0 5 15 16 33 23 44 20 84
44 72 44 -5 0 -38 -13 -72 -30z"/>
<path d="M1960 4222 c-40 -36 -47 -95 -11 -100 13 -2 28 1 34 7 15 15 25 14
29 -5 3 -13 5 -13 23 1 11 9 14 13 7 10 -10 -6 -12 1 -6 32 4 21 11 46 15 55
12 23 13 23 -26 25 -26 2 -42 -4 -65 -25z m63 -16 c-1 -16 -12 -39 -24 -52
-54 -58 -79 5 -25 64 27 31 52 25 49 -12z"/>
<path d="M10040 4104 c-66 -140 -64 -134 -53 -134 4 0 28 42 53 92 l45 93 3
-595 c1 -327 0 -601 -3 -607 -3 -10 -141 -13 -640 -13 -422 0 -634 -3 -630
-10 4 -6 229 -10 641 -10 l635 0 -5 -392 c-3 -216 -5 -398 -5 -405 -1 -10
-100 -83 -278 -203 -29 -19 -131 -89 -229 -155 -97 -66 -193 -131 -215 -145
-112 -73 -451 -305 -455 -312 -15 -24 34 5 203 118 104 70 318 214 477 321
159 107 307 209 330 227 23 19 55 41 71 50 17 9 45 28 63 42 36 30 34 33 34
-51 0 -19 -1 -217 -1 -440 l-1 -405 -50 0 c-27 0 -50 -4 -50 -10 0 -5 23 -10
50 -10 l50 0 0 -206 c0 -134 3 -203 10 -199 6 4 10 83 10 206 l0 199 55 0 c30
0 55 5 55 10 0 6 -25 10 -56 10 l-56 0 4 467 c3 495 2 479 51 504 12 6 86 55
165 108 79 53 151 101 160 106 9 6 34 23 55 39 44 33 77 55 397 271 129 87
251 170 270 185 19 14 51 36 70 47 35 21 42 21 1088 27 578 4 1052 4 1052 1 0
-3 -42 -26 -92 -51 -102 -51 -104 -52 -96 -59 6 -7 248 114 248 123 0 12 -238
133 -244 124 -2 -4 33 -27 80 -51 46 -24 84 -47 84 -52 0 -5 -109 -9 -247 -10
-137 0 -593 -2 -1015 -5 -519 -4 -768 -2 -768 5 0 11 46 48 96 78 18 10 67 42
110 72 44 30 113 77 154 104 41 28 93 64 115 82 22 18 173 121 335 230 415
278 410 275 410 285 0 11 -65 -23 -95 -50 -11 -9 -40 -30 -65 -46 -25 -16 -82
-55 -127 -86 -45 -32 -84 -58 -87 -58 -6 0 -187 -122 -304 -206 -93 -66 -151
-106 -304 -209 -56 -38 -107 -73 -113 -78 -5 -4 -50 -34 -100 -67 l-90 -60
-592 0 -593 0 0 601 c0 443 3 600 11 597 10 -3 78 -121 91 -158 3 -8 8 -12 12
-9 10 9 -108 249 -122 249 -4 0 -32 -52 -62 -116z m1200 -1204 c-14 -11 -124
-86 -245 -166 -121 -81 -231 -155 -245 -165 -24 -18 -97 -69 -230 -160 -36
-24 -81 -56 -100 -71 -19 -14 -49 -34 -67 -45 -17 -10 -76 -48 -131 -85 -55
-38 -104 -68 -110 -68 -8 0 -10 83 -7 288 2 158 4 333 4 390 l1 102 578 0 577
0 -25 -20z"/>
<path d="M12896 4149 c-2 -8 -15 -52 -30 -97 -14 -46 -24 -88 -20 -93 10 -16
22 -9 17 10 -10 39 50 113 77 96 15 -9 12 -58 -5 -83 -13 -17 -13 -21 -2 -16
18 6 37 47 37 79 0 27 -28 40 -60 30 -20 -6 -21 -6 -5 31 10 25 12 41 6 47 -7
7 -12 6 -15 -4z"/>
<path d="M13325 4120 c-8 -16 -15 -45 -15 -65 0 -40 24 -105 39 -105 5 0 2 14
-6 32 -27 52 -12 158 21 158 20 0 46 -51 46 -87 0 -16 -9 -45 -19 -66 -20 -40
-14 -48 13 -18 27 30 31 110 7 149 -27 43 -64 44 -86 2z"/>
<path d="M1410 4125 c0 -8 5 -15 10 -15 6 0 10 7 10 15 0 8 -4 15 -10 15 -5 0
-10 -7 -10 -15z"/>
<path d="M12061 4063 c-1 -30 -4 -33 -32 -33 -17 0 -28 -4 -24 -10 3 -5 17
-10 31 -10 20 0 24 -5 24 -31 0 -18 4 -28 11 -24 5 4 8 12 6 18 -9 25 14 49
39 43 13 -4 24 -2 24 3 0 5 -15 11 -32 13 -27 2 -34 8 -39 33 l-7 30 -1 -32z"/>
<path d="M12687 4063 c-7 -28 -13 -33 -39 -33 -17 0 -28 -3 -24 -7 4 -5 20 -8
34 -8 21 0 28 -6 33 -30 l7 -30 1 34 c1 22 5 32 14 28 6 -2 21 -1 32 4 16 6
14 8 -12 8 -28 1 -32 5 -35 34 l-3 32 -8 -32z"/>
<path d="M11837 4074 c-3 -3 -1 -17 5 -30 14 -31 -3 -71 -34 -84 -21 -8 -21
-9 -3 -9 11 -1 26 9 34 21 l14 22 8 -22 c5 -12 15 -22 24 -22 14 0 14 3 -1 25
-9 14 -14 34 -11 45 3 11 1 20 -4 20 -5 0 -9 6 -9 14 0 17 -14 29 -23 20z"/>
<path d="M11897 4073 c-12 -12 -7 -22 8 -17 8 4 15 10 15 15 0 11 -14 12 -23
2z"/>
<path d="M12265 4043 c-33 -49 -34 -93 -2 -93 13 0 29 6 35 12 10 10 14 10 21
0 4 -7 15 -10 25 -6 14 5 15 9 4 15 -10 6 -10 13 -2 27 6 9 15 32 19 50 5 27
4 31 -9 26 -9 -4 -16 -18 -16 -33 0 -31 -52 -87 -69 -77 -21 13 -11 57 18 87
18 17 24 29 16 29 -8 0 -26 -17 -40 -37z"/>
<path d="M12444 4064 c24 -23 22 -126 -3 -148 -10 -9 -22 -16 -27 -14 -5 2
-10 -1 -11 -7 -4 -16 10 -12 38 10 36 28 47 54 42 95 -8 69 -13 80 -34 80 -19
0 -19 -1 -5 -16z"/>
<path d="M13103 4053 c20 -2 54 -2 75 0 20 2 3 4 -38 4 -41 0 -58 -2 -37 -4z"/>
<path d="M12512 4008 c-7 -7 -12 -16 -12 -21 0 -5 7 -1 16 8 9 9 14 18 12 20
-2 3 -10 -1 -16 -7z"/>
<path d="M13080 4000 c0 -6 29 -10 65 -10 36 0 65 4 65 9 0 4 -29 9 -65 9 -36
1 -65 -3 -65 -8z"/>
<path d="M1954 3908 c0 -13 -10 -56 -22 -95 -11 -40 -17 -75 -12 -78 5 -3 12
7 15 22 4 15 11 39 17 53 6 14 12 32 13 40 2 8 6 30 10 48 6 24 4 32 -6 32 -8
0 -14 -10 -15 -22z"/>
<path d="M2457 3903 c25 -37 22 -142 -4 -160 -16 -12 -20 -11 -35 8 -23 27
-24 116 -2 147 8 12 11 22 5 22 -35 0 -54 -108 -29 -162 34 -72 108 -20 108
74 0 35 -24 83 -45 91 -13 5 -12 2 2 -20z"/>
<path d="M1315 3820 c0 -84 2 -100 16 -100 13 0 15 13 11 85 -3 59 0 90 8 100
10 13 9 15 -11 15 -24 0 -24 -1 -24 -100z"/>
<path d="M1408 3907 c13 -15 18 -132 8 -165 -6 -17 -3 -22 11 -22 16 0 18 8
14 85 -2 58 1 90 9 100 11 13 7 15 -20 15 -26 0 -30 -3 -22 -13z"/>
<path d="M2203 3837 c-34 -18 -62 -35 -62 -39 -1 -8 131 -70 137 -64 2 3 -21
17 -52 33 -31 15 -56 30 -56 33 0 3 23 16 50 29 28 13 53 28 56 33 8 13 -7 8
-73 -25z"/>
<path d="M1985 3851 c-2 -5 4 -11 15 -14 27 -7 26 -54 -2 -84 -12 -13 -17 -23
-10 -23 21 0 53 53 50 83 -3 30 -41 56 -53 38z"/>
<path d="M1515 3730 c3 -5 8 -10 11 -10 2 0 4 5 4 10 0 6 -5 10 -11 10 -5 0
-7 -4 -4 -10z"/>
<path d="M2423 3502 c-1 -20 -11 -64 -22 -97 -19 -55 -19 -61 -4 -72 9 -7 19
-10 22 -7 3 3 -1 9 -8 13 -11 7 -11 16 -1 45 12 38 51 72 70 61 19 -12 11 -65
-15 -90 -29 -30 -18 -34 13 -5 24 22 36 58 30 87 -3 14 -12 18 -39 17 l-36 -1
13 36 c9 27 9 38 1 43 -20 13 -22 9 -24 -30z"/>
<path d="M1430 3522 c-12 -6 -15 -27 -15 -100 0 -75 3 -92 15 -92 12 0 15 18
15 100 0 55 0 100 0 99 0 0 -7 -3 -15 -7z"/>
<path d="M1526 3522 c-7 -12 -10 -197 -2 -194 3 1 14 2 24 2 13 0 14 2 4 9
-10 6 -12 30 -9 95 3 78 -3 111 -17 88z"/>
<path d="M1315 3422 c0 -89 2 -98 17 -94 11 3 15 9 10 17 -4 8 -5 50 -2 94 4
68 3 81 -10 81 -12 0 -15 -18 -15 -98z"/>
<path d="M2212 3437 c-35 -18 -59 -36 -55 -40 6 -7 60 -34 116 -59 9 -4 17 -3
17 1 0 5 -25 19 -55 32 -30 12 -55 26 -55 31 0 5 25 19 55 33 30 13 55 26 55
29 0 10 -14 5 -78 -27z"/>
<path d="M1955 3432 c-26 -28 -41 -74 -30 -93 7 -11 33 -9 69 6 14 6 17 5 11
-4 -5 -9 -2 -12 11 -9 12 2 18 11 16 24 -1 11 4 38 12 60 l14 40 -39 1 c-31 2
-45 -4 -64 -25z m65 -12 c0 -34 -42 -85 -63 -77 -7 2 -11 19 -10 36 3 64 73
102 73 41z"/>
<path d="M1610 3335 c0 -8 5 -15 10 -15 6 0 10 7 10 15 0 8 -4 15 -10 15 -5 0
-10 -7 -10 -15z"/>
<path d="M3197 2800 c-4 -16 -14 -20 -49 -22 l-43 -1 38 -4 c22 -3 37 -9 37
-18 0 -7 -21 -34 -47 -59 -25 -25 -42 -46 -36 -46 5 0 20 11 33 25 22 23 48
35 36 17 -11 -18 12 -27 54 -21 l45 6 -46 1 c-33 2 -46 6 -46 17 0 12 15 15
69 15 52 0 68 -3 68 -14 0 -8 -10 -17 -22 -19 l-23 -4 23 -2 c28 -1 32 -47 5
-54 -15 -4 -16 -5 -2 -6 9 0 19 -10 22 -21 4 -16 0 -20 -21 -20 l-26 0 23 -16
c33 -24 41 -6 41 92 l0 80 -60 -4 c-76 -6 -95 1 -80 28 7 13 22 21 43 21 31 2
31 2 4 6 -22 4 -27 8 -22 24 4 10 2 19 -3 19 -5 0 -12 -9 -15 -20z"/>
<path d="M2800 2730 c0 -45 4 -80 10 -80 5 0 9 24 8 53 -1 28 2 62 6 73 4 15
2 23 -9 28 -13 4 -15 -7 -15 -74z"/>
<path d="M3867 2798 c2 -5 15 -8 29 -8 16 0 28 -8 34 -22 l9 -23 0 23 c1 19 6
22 47 22 l46 0 -7 -32 c-4 -18 -13 -36 -19 -40 -6 -4 3 -8 19 -8 21 0 26 3 16
9 -8 5 -11 17 -7 30 17 61 24 56 -78 56 -52 0 -92 -3 -89 -7z"/>
<path d="M9897 2799 c-29 -17 -67 -86 -67 -122 0 -39 31 -77 63 -76 21 0 21 1
2 9 -12 4 -27 15 -34 24 -27 33 15 147 62 166 12 5 15 9 7 9 -8 0 -23 -4 -33
-10z"/>
<path d="M9975 2796 c35 -25 17 -117 -31 -161 -30 -28 -21 -34 14 -9 34 24 65
91 58 127 -7 37 -23 57 -44 57 -13 0 -12 -2 3 -14z"/>
<path d="M2970 2790 c0 -5 5 -10 10 -10 13 0 13 -83 0 -96 -8 -8 -6 -15 5 -24
13 -11 15 -4 15 64 0 61 -3 76 -15 76 -8 0 -15 -4 -15 -10z"/>
<path d="M1955 2760 c-9 -18 -26 -58 -36 -88 -11 -31 -27 -64 -36 -74 -15 -17
-15 -18 11 -18 16 0 25 4 21 11 -10 15 36 139 51 139 13 0 30 -57 21 -67 -3
-2 4 -14 15 -25 12 -12 18 -28 15 -39 -4 -15 0 -19 23 -19 l28 0 -19 38 c-10
20 -32 68 -48 106 l-29 69 -17 -33z"/>
<path d="M3310 2780 l-45 -7 53 -1 c29 -1 52 2 52 8 0 6 -3 9 -7 8 -5 0 -28
-4 -53 -8z"/>
<path d="M3600 2782 c0 -4 5 -13 11 -19 12 -12 8 -137 -5 -165 -7 -15 -3 -18
19 -18 20 0 26 4 21 15 -3 9 -6 52 -7 96 -1 59 2 84 12 90 10 6 4 9 -18 9 -18
0 -33 -4 -33 -8z"/>
<path d="M4348 2778 c15 -15 16 -152 2 -179 -11 -20 2 -25 34 -13 13 5 14 10
5 20 -17 20 -8 162 11 174 11 7 4 10 -24 10 -31 0 -37 -3 -28 -12z"/>
<path d="M4448 2781 c10 -6 13 -32 10 -100 -2 -50 -1 -91 2 -91 3 0 16 -3 30
-7 21 -5 23 -4 13 8 -18 22 -20 179 -2 190 9 6 1 9 -26 9 -25 0 -35 -3 -27 -9z"/>
<path d="M13407 2772 c20 -13 33 -58 20 -71 -8 -8 -7 -11 6 -11 11 0 17 -8 17
-21 0 -15 4 -19 16 -15 9 3 18 6 20 6 2 0 4 4 4 10 0 5 -7 7 -15 4 -10 -4 -15
0 -16 12 -4 50 -7 65 -19 79 -7 8 -20 15 -29 15 -11 0 -12 -3 -4 -8z"/>
<path d="M13467 2766 c-4 -10 0 -12 14 -9 22 6 26 23 5 23 -8 0 -16 -6 -19
-14z"/>
<path d="M3925 2710 c-3 -5 1 -10 9 -10 8 0 26 -23 40 -50 l25 -51 -32 -19
c-39 -24 -30 -26 17 -4 33 16 36 16 71 -5 37 -21 65 -27 65 -13 0 4 -20 14
-45 21 -25 7 -45 17 -45 22 0 5 16 32 35 59 41 58 41 60 15 60 -13 0 -18 -5
-14 -15 3 -8 -7 -33 -24 -55 -33 -45 -35 -44 -71 28 -21 42 -34 51 -46 32z"/>
<path d="M3910 2656 c-6 -19 -23 -52 -37 -73 l-25 -38 26 24 c26 24 64 107 53
117 -3 3 -10 -10 -17 -30z"/>
<path d="M13370 2660 c0 -5 4 -10 9 -10 6 0 13 5 16 10 3 6 -1 10 -9 10 -9 0
-16 -4 -16 -10z"/>
<path d="M2850 2630 c0 -6 -20 -25 -45 -42 -25 -17 -43 -34 -40 -36 6 -6 45
20 79 51 28 26 32 37 16 37 -5 0 -10 -5 -10 -10z"/>
<path d="M3167 2626 c-5 -13 0 -16 26 -15 21 1 25 3 12 6 -11 3 -23 10 -26 15
-3 5 -9 3 -12 -6z"/>
<path d="M2985 2592 c22 -23 41 -39 43 -37 8 7 -34 54 -58 65 -20 9 -17 4 15
-28z"/>
<path d="M2110 2595 c0 -8 5 -15 10 -15 6 0 10 7 10 15 0 8 -4 15 -10 15 -5 0
-10 -7 -10 -15z"/>
<path d="M3188 2038 c-6 -13 -13 -28 -14 -35 -3 -20 -44 -72 -65 -83 -10 -6
-19 -16 -19 -22 0 -7 13 0 28 15 15 15 31 27 35 27 4 0 7 -37 7 -82 0 -113 8
-94 13 32 4 86 8 107 23 119 20 16 28 51 13 51 -4 0 -14 -10 -21 -22z"/>
<path d="M2801 1965 c0 -44 3 -74 6 -67 6 15 173 17 173 1 0 -5 4 -8 8 -5 4 2
9 37 10 78 l2 73 -100 0 -100 0 1 -80z m179 10 l0 -56 -82 3 -83 3 -3 53 -3
52 85 0 86 0 0 -55z"/>
<path d="M3889 2043 l34 -4 -5 -67 c-5 -69 -25 -120 -61 -159 -11 -13 -15 -23
-9 -23 17 0 58 67 73 118 l12 42 69 0 69 0 -15 -27 c-8 -16 -22 -37 -30 -48
-16 -20 -16 -20 -36 5 -11 14 -20 20 -20 13 0 -6 7 -18 15 -27 8 -8 15 -17 15
-20 0 -4 -24 -18 -52 -31 -29 -14 -42 -22 -28 -19 14 3 39 14 55 23 29 17 32
17 78 -7 34 -16 52 -21 59 -14 7 7 -2 14 -30 22 -23 6 -44 15 -47 20 -7 11 46
110 58 110 5 0 5 4 2 10 -3 5 -20 7 -37 3 -30 -6 -31 -5 -25 23 3 16 9 37 12
47 7 16 -1 17 -91 15 -55 0 -84 -3 -65 -5z m133 -8 c3 -3 2 -20 -1 -38 -6 -28
-11 -32 -43 -35 -33 -3 -37 -1 -43 27 -3 17 -4 35 0 41 6 10 77 14 87 5z"/>
<path d="M3330 2030 c-12 -8 -9 -10 13 -10 16 0 26 4 22 10 -8 12 -16 12 -35
0z"/>
<path d="M3600 2026 c15 -15 13 -183 -2 -189 -7 -3 2 -6 19 -6 29 -1 32 1 25
22 -14 42 -8 167 8 177 11 7 4 9 -23 8 -26 -1 -35 -4 -27 -12z"/>
<path d="M4341 2029 c17 -10 22 -167 7 -186 -8 -10 -1 -13 28 -12 22 1 31 3
22 6 -16 4 -18 17 -18 93 0 74 3 91 18 99 13 7 7 10 -27 9 -27 0 -38 -3 -30
-9z"/>
<path d="M4443 2029 c14 -8 17 -24 17 -92 0 -51 -5 -88 -12 -95 -9 -9 -4 -12
26 -12 32 0 35 2 24 14 -17 17 -14 176 3 187 6 4 -8 7 -32 7 -34 1 -40 -2 -26
-9z"/>
<path d="M4550 2025 c16 -20 16 -175 -1 -186 -9 -6 -1 -8 26 -8 22 0 34 3 28
6 -16 6 -18 174 -3 189 7 7 -2 10 -25 11 -28 1 -34 -2 -25 -12z"/>
<path d="M1890 2011 c16 -31 13 -157 -5 -174 -13 -13 -7 -15 50 -12 92 5 113
20 105 75 -1 8 -9 19 -17 26 -12 8 -13 13 -5 18 7 4 12 20 12 36 0 38 -23 50
-95 50 -52 0 -55 -1 -45 -19z m98 0 c8 -5 12 -21 10 -37 -3 -26 -7 -29 -40
-32 l-38 -3 0 40 c0 38 2 41 28 41 15 0 33 -4 40 -9z m11 -95 c7 -8 11 -27 9
-43 -3 -25 -7 -28 -45 -31 l-43 -3 0 45 c0 46 0 46 34 46 18 0 39 -6 45 -14z"/>
<path d="M3128 2023 c7 -3 16 -2 19 1 4 3 -2 6 -13 5 -11 0 -14 -3 -6 -6z"/>
<path d="M3307 1974 c-8 -8 3 -34 14 -34 5 0 9 9 9 20 0 19 -11 26 -23 14z"/>
<path d="M3290 1920 c-23 -7 -23 -8 -4 -9 19 -1 22 -7 22 -51 0 -47 -2 -50
-27 -51 -23 0 -24 -1 -6 -9 39 -17 43 -12 47 60 2 39 1 70 -2 69 -3 -1 -16 -5
-30 -9z"/>
<path d="M2805 1834 c-39 -36 -43 -43 -20 -31 32 16 95 77 79 77 -5 -1 -31
-21 -59 -46z"/>
<path d="M2976 1837 c22 -23 41 -38 43 -34 4 10 -59 77 -72 77 -5 0 8 -19 29
-43z"/>
<path d="M2095 1841 c-3 -5 -1 -12 4 -15 5 -3 11 1 15 9 6 16 -9 21 -19 6z"/>
<path d="M3193 1290 c-4 -16 -14 -20 -57 -22 l-51 -1 48 -6 47 -6 -24 -36
c-14 -20 -38 -46 -53 -58 -15 -11 -23 -21 -17 -21 5 0 20 9 32 20 12 11 25 20
29 20 4 0 8 -32 8 -71 0 -39 3 -73 8 -76 7 -4 11 46 7 99 -1 23 3 27 32 31
l33 4 -32 1 c-22 1 -33 7 -33 17 0 8 5 15 12 15 9 0 9 3 0 12 -7 7 -8 17 -1
30 8 15 22 18 101 18 50 0 88 3 84 7 -4 4 -42 6 -86 4 -75 -3 -78 -2 -73 18 3
12 2 21 -2 21 -4 0 -9 -9 -12 -20z"/>
<path d="M4045 1289 c-49 -3 -75 -6 -56 -7 l34 -2 -5 -63 c-6 -65 -25 -115
-62 -156 -14 -16 -16 -22 -6 -19 21 6 58 64 70 110 7 25 17 38 28 38 16 1 16
1 0 11 -12 6 -18 22 -18 44 l0 35 50 0 c35 0 48 -4 46 -12 -12 -37 -15 -68 -8
-68 9 0 31 90 23 93 -3 1 -46 -1 -96 -4z"/>
<path d="M2799 1263 c-2 -16 -1 -50 2 -78 3 -27 7 -44 7 -37 2 8 27 12 87 12
61 0 85 -4 86 -12 1 -7 5 21 9 62 4 41 6 77 4 79 -2 2 -11 0 -21 -4 -12 -5
-14 -9 -5 -12 7 -3 12 -24 12 -54 l0 -49 -85 0 -85 0 0 50 c0 29 5 50 11 50 5
0 7 5 4 10 -11 18 -23 10 -26 -17z"/>
<path d="M1904 1246 c-38 -38 -44 -77 -19 -126 27 -52 90 -66 133 -31 32 28
27 35 -7 10 -58 -43 -116 6 -107 91 7 75 74 107 115 54 l21 -27 0 25 c0 21 -6
27 -31 32 -55 11 -70 7 -105 -28z"/>
<path d="M2863 1273 c9 -2 23 -2 30 0 6 3 -1 5 -18 5 -16 0 -22 -2 -12 -5z"/>
<path d="M2918 1273 c7 -3 16 -2 19 1 4 3 -2 6 -13 5 -11 0 -14 -3 -6 -6z"/>
<path d="M3598 1268 c16 -16 16 -160 0 -176 -9 -9 -7 -12 12 -12 25 0 25 0 21
85 -2 58 1 90 9 100 11 13 7 15 -21 15 -26 0 -30 -3 -21 -12z"/>
<path d="M3693 1273 c16 -4 18 -15 15 -99 l-3 -94 25 1 c14 0 19 3 13 6 -9 3
-13 31 -13 88 0 69 3 86 18 94 13 8 7 10 -28 10 -25 -1 -37 -3 -27 -6z"/>
<path d="M4436 1272 c16 -10 27 -132 15 -165 -9 -24 -8 -27 12 -27 21 0 22 3
19 91 -3 68 0 94 10 100 8 6 -2 9 -27 9 -22 0 -35 -4 -29 -8z"/>
<path d="M4548 1271 c10 -6 13 -32 10 -100 -3 -90 -3 -91 21 -91 18 0 21 3 13
13 -16 19 -9 167 9 178 10 6 2 9 -26 9 -25 0 -35 -3 -27 -9z"/>
<path d="M4655 1181 l0 -99 28 -5 c19 -2 24 0 17 7 -15 15 -13 183 3 189 6 3
-1 6 -18 6 l-30 1 0 -99z"/>
<path d="M9849 1253 c0 -5 0 -46 1 -92 1 -60 -2 -86 -12 -92 -8 -6 0 -8 22 -8
19 0 29 3 23 6 -9 3 -13 33 -13 99 0 56 -4 94 -10 94 -5 0 -10 -3 -11 -7z"/>
<path d="M3295 1210 c-3 -5 -1 -10 4 -10 6 0 11 -6 11 -14 0 -10 -13 -16 -37
-19 l-38 -4 36 -1 37 -2 0 -50 c0 -49 -1 -50 -32 -51 l-31 -1 30 -9 c16 -4 33
-5 36 -1 4 4 9 44 11 90 2 59 0 82 -9 82 -6 0 -15 -4 -18 -10z"/>
<path d="M4154 1194 c3 -9 6 -18 6 -21 0 -3 7 0 15 7 21 18 19 30 -6 30 -15 0
-19 -4 -15 -16z"/>
<path d="M4060 1157 c0 -9 4 -19 10 -22 5 -3 15 -15 20 -25 9 -17 5 -22 -29
-40 -22 -11 -48 -20 -58 -21 -12 0 -14 -2 -4 -6 7 -3 34 4 60 16 l46 22 49
-20 c54 -24 56 -24 56 -13 0 5 -18 15 -40 22 -44 14 -48 27 -24 68 16 26 15
26 -10 -3 -14 -16 -27 -27 -29 -25 -2 3 -13 18 -25 34 -15 19 -22 23 -22 13z"/>
<path d="M9624 1142 c6 -11 132 -10 142 1 4 4 -27 7 -70 7 -42 0 -75 -4 -72
-8z"/>
<path d="M2821 1100 c-19 -21 -44 -43 -55 -49 -14 -6 -16 -10 -6 -10 19 -1
115 84 104 92 -5 2 -24 -12 -43 -33z"/>
<path d="M2975 1088 c22 -25 41 -45 43 -43 8 8 -21 45 -50 67 -32 22 -32 22 7
-24z"/>
<path d="M2090 1084 c0 -8 5 -12 10 -9 6 3 10 10 10 16 0 5 -4 9 -10 9 -5 0
-10 -7 -10 -16z"/>
<path d="M3753 527 c-3 -6 -1 -7 5 -3 21 13 18 -101 -4 -158 -5 -13 -4 -17 4
-12 6 4 14 22 18 41 6 35 24 59 24 33 0 -7 11 -30 25 -50 14 -20 25 -40 25
-43 0 -3 -24 -17 -52 -31 -29 -13 -42 -22 -28 -18 14 3 40 15 58 25 l33 19 45
-26 c28 -17 51 -23 62 -19 13 6 5 11 -32 24 -28 10 -51 22 -54 29 -2 6 10 31
27 56 34 49 39 68 16 60 -8 -4 -12 -10 -10 -15 3 -4 -7 -27 -22 -50 l-27 -41
-29 32 c-18 20 -27 39 -24 51 3 12 0 19 -9 19 -10 0 -14 13 -14 43 0 33 -4 44
-15 44 -9 0 -19 -5 -22 -10z"/>
<path d="M3873 495 c-1 -25 1 -45 6 -45 4 0 8 6 8 13 0 6 3 27 7 45 6 24 4 32
-6 32 -8 0 -14 -15 -15 -45z"/>
<path d="M4185 520 c-16 -4 -24 -8 -17 -9 16 -1 17 -162 0 -179 -9 -9 -3 -12
28 -12 25 0 34 3 26 9 -10 6 -13 33 -10 105 2 53 3 96 3 95 0 -1 -13 -5 -30
-9z"/>
<path d="M4273 523 c13 -8 8 -191 -5 -196 -7 -3 5 -6 27 -6 25 0 35 2 27 8
-10 6 -13 32 -10 100 2 65 0 91 -9 91 -6 0 -17 2 -25 3 -7 2 -10 2 -5 0z"/>
<path d="M4379 517 c9 -12 12 -41 10 -107 -4 -89 -4 -90 20 -90 19 0 21 3 11
14 -7 10 -10 44 -8 100 2 48 0 86 -4 86 -3 0 -15 3 -25 7 -16 6 -16 5 -4 -10z"/>
<path d="M1878 512 c10 -7 13 -33 10 -101 l-3 -91 47 0 c59 0 90 14 111 50 24
40 21 84 -7 117 -21 24 -31 28 -97 31 -47 2 -69 0 -61 -6z m128 -23 c41 -33
20 -142 -30 -155 -54 -13 -61 -5 -64 75 -4 97 0 105 44 98 20 -3 42 -11 50
-18z"/>
<path d="M2766 508 c12 -19 14 -149 3 -170 -8 -15 -6 -18 13 -18 22 0 23 3 23
100 0 98 -1 100 -23 100 -16 0 -21 -4 -16 -12z"/>
<path d="M3356 455 c1 -36 -2 -81 -6 -100 -8 -34 -7 -35 22 -35 25 0 28 2 18
14 -7 10 -10 44 -8 100 2 73 1 86 -13 86 -12 0 -15 -12 -13 -65z"/>
<path d="M3455 420 c0 -99 0 -100 24 -100 18 0 21 3 13 13 -7 8 -9 46 -6 100
4 78 3 87 -13 87 -16 0 -18 -11 -18 -100z"/>
<path d="M3061 414 c15 -16 25 -21 28 -13 2 7 -4 18 -15 26 -30 22 -39 15 -13
-13z"/>
<path d="M2100 324 c0 -8 5 -12 10 -9 6 3 10 10 10 16 0 5 -4 9 -10 9 -5 0
-10 -7 -10 -16z"/>
<path d="M3714 309 c-22 -24 -24 -29 -8 -21 24 13 49 40 42 47 -2 3 -18 -9
-34 -26z"/>
</g>
</svg>
