<?xml version="1.0" standalone="no"?>
<!DOCTYPE svg PUBLIC "-//W3C//DTD SVG 20010904//EN"
 "http://www.w3.org/TR/2001/REC-SVG-20010904/DTD/svg10.dtd">
<svg version="1.0" xmlns="http://www.w3.org/2000/svg"
 width="1469.000000pt" height="538.000000pt" viewBox="0 0 1469.000000 538.000000"
 preserveAspectRatio="xMidYMid meet">
<metadata>
Created by potrace 1.16, written by Peter Selinger 2001-2019
</metadata>
<g transform="translate(0.000000,538.000000) scale(0.100000,-0.100000)"
fill="#000000" stroke="none">
<path d="M13542 5117 c-1 -18 -9 -30 -24 -36 l-22 -8 22 -5 c34 -9 30 -63 -5
-82 l-28 -15 25 -1 c23 0 26 -4 27 -40 2 -35 -1 -40 -20 -40 -16 0 -18 -3 -10
-11 25 -25 43 -2 43 57 0 47 3 55 16 50 9 -3 24 -6 35 -6 22 0 26 -29 7 -48
-9 -9 -7 -12 10 -12 15 0 20 4 15 15 -3 9 2 24 11 34 9 10 13 21 9 24 -3 4 -1
7 5 7 12 0 12 21 1 30 -3 3 -14 19 -23 35 -10 17 -14 21 -11 10 4 -11 8 -24 9
-30 1 -5 5 -16 9 -22 13 -21 -2 -33 -39 -33 -24 0 -33 4 -28 12 5 8 2 9 -9 5
-14 -5 -17 0 -17 24 0 22 5 32 20 36 11 3 17 9 15 14 -3 4 -12 6 -20 3 -9 -4
-15 4 -18 28 -3 29 -4 30 -5 5z"/>
<path d="M13670 5126 c0 -10 -14 -16 -42 -19 -33 -3 -29 -4 21 -5 67 -2 68 -2
46 -54 -4 -10 -3 -18 3 -18 9 0 23 30 26 55 1 6 10 13 21 17 13 4 6 6 -22 7
-33 1 -41 4 -37 16 4 8 1 15 -5 15 -6 0 -11 -6 -11 -14z"/>
<path d="M14067 5134 c-3 -4 -21 -10 -39 -15 -32 -9 -32 -9 6 -4 39 4 53 11
44 20 -2 3 -7 2 -11 -1z"/>
<path d="M14210 5126 c0 -19 -29 -48 -41 -41 -5 4 -9 -37 -9 -97 0 -61 4 -97
9 -90 5 8 6 34 3 59 l-5 44 39 -3 39 -3 -3 -47 c-3 -30 0 -48 7 -48 7 0 11 33
11 95 l0 95 -25 0 c-22 0 -24 3 -15 19 13 25 13 31 0 31 -5 0 -10 -6 -10 -14z
m30 -81 c0 -33 -2 -35 -35 -35 -32 0 -35 3 -35 28 0 36 6 42 42 42 25 0 28 -3
28 -35z"/>
<path d="M14320 5127 c0 -7 -9 -30 -20 -52 -11 -21 -18 -41 -15 -43 2 -3 10 7
16 22 11 24 17 27 58 24 45 -3 46 -4 52 -43 6 -36 6 -37 8 -8 0 17 4 38 7 47
5 13 -3 16 -50 16 -53 0 -56 1 -46 19 13 25 13 31 0 31 -5 0 -10 -6 -10 -13z"/>
<path d="M10840 5090 c0 -25 -5 -40 -12 -40 -9 0 -9 -3 1 -9 20 -13 16 -92 -6
-108 -28 -21 -8 -25 25 -6 22 14 27 21 18 29 -17 16 -8 84 11 84 8 0 11 5 8
10 -4 6 -11 8 -16 5 -14 -10 -22 21 -10 43 8 16 7 21 -4 26 -12 4 -15 -3 -15
-34z"/>
<path d="M10999 5103 c-2 -48 2 -87 13 -128 11 -42 6 -49 -62 -97 -19 -14 -20
-16 -5 -11 11 4 32 16 47 27 l28 20 28 -27 c36 -35 42 -34 41 6 -1 17 -3 24
-6 15 -6 -25 -22 -22 -35 7 -9 21 -8 32 10 65 11 22 17 42 12 45 -4 3 -13 -9
-19 -26 -14 -42 -31 -28 -31 27 l0 44 37 0 c35 0 36 0 18 20 -21 23 -44 28
-25 5 11 -13 8 -15 -15 -15 -24 0 -26 3 -21 25 4 14 2 25 -4 25 -5 0 -10 -12
-11 -27z"/>
<path d="M11196 5105 c-4 -16 -13 -25 -26 -25 -19 0 -20 -7 -20 -102 0 -61 4
-97 9 -90 5 9 22 13 47 10 l39 -3 3 93 3 92 -26 0 c-22 0 -24 3 -15 19 12 24
13 31 1 31 -5 0 -12 -11 -15 -25z m42 -72 c3 -32 3 -33 -38 -33 -34 0 -41 3
-36 16 3 9 6 25 6 35 0 17 6 20 33 17 28 -3 32 -7 35 -35z m-4 -69 c8 -32 -8
-54 -40 -54 -21 0 -24 5 -24 40 0 37 2 40 29 40 23 0 30 -6 35 -26z"/>
<path d="M11310 5117 c0 -8 -11 -35 -24 -60 -26 -52 -21 -64 7 -17 11 18 27
30 40 31 18 1 19 2 4 6 -14 4 -17 11 -13 29 4 14 2 24 -4 24 -5 0 -10 -6 -10
-13z"/>
<path d="M11732 5121 c-11 -7 -11 -9 2 -14 10 -4 16 -1 16 8 0 17 -1 17 -18 6z"/>
<path d="M11880 5120 c-8 -5 -26 -10 -40 -11 -25 -2 -25 -2 -2 -6 22 -4 23 -8
18 -56 -4 -28 -14 -62 -22 -75 -9 -13 -13 -26 -11 -29 3 -3 12 8 21 24 8 15
15 22 16 16 0 -19 20 -16 20 3 0 11 5 14 17 10 15 -6 15 -5 2 11 -22 25 -25
103 -4 103 8 0 15 5 15 10 0 13 -11 13 -30 0z"/>
<path d="M11996 5114 c-3 -9 -4 -20 0 -25 3 -5 -3 -9 -12 -9 -16 0 -16 -1 2
-14 18 -14 18 -15 -6 -25 -21 -8 -13 -10 42 -10 37 -1 69 3 73 8 3 6 -11 9
-32 8 -47 -2 -61 17 -15 21 17 2 32 7 32 12 0 5 -17 6 -37 3 -27 -4 -35 -2
-28 5 6 6 26 12 45 15 l35 4 -37 1 c-21 1 -38 7 -38 12 0 16 -17 12 -24 -6z"/>
<path d="M12180 5126 c0 -2 7 -9 15 -16 9 -7 15 -8 15 -2 0 5 -7 12 -15 16 -8
3 -15 4 -15 2z"/>
<path d="M12270 5119 c0 -19 -32 -79 -42 -79 -5 0 -21 -9 -35 -20 -14 -11 -21
-20 -14 -20 6 0 11 -11 11 -25 0 -14 4 -25 8 -25 4 0 8 16 8 35 0 39 1 40 32
49 20 7 22 4 22 -34 0 -34 3 -41 16 -36 9 3 45 6 81 6 37 0 63 3 59 7 -4 4
-23 6 -42 4 -26 -2 -34 1 -34 13 0 12 10 16 37 16 20 0 33 3 29 8 -4 4 -19 7
-34 7 -22 0 -26 4 -26 30 0 26 4 30 32 33 18 2 32 7 32 12 0 5 -15 7 -32 3
-30 -6 -32 -5 -19 10 9 12 10 17 2 17 -6 0 -14 -7 -17 -15 -4 -8 -19 -15 -35
-15 -21 0 -27 4 -23 15 4 8 1 15 -5 15 -6 0 -11 -5 -11 -11z m57 -64 c-1 -32
-4 -36 -26 -33 -20 2 -24 9 -25 36 -1 28 2 32 26 32 23 0 26 -4 25 -35z m3
-60 c0 -16 -45 -21 -54 -6 -8 12 4 21 31 21 14 0 23 -6 23 -15z"/>
<path d="M12666 5114 c-4 -10 -14 -14 -26 -11 -13 3 -24 -1 -30 -13 -13 -25
-12 -40 1 -17 12 21 39 23 39 3 0 -8 -12 -29 -27 -46 -21 -25 -28 -29 -34 -17
-5 9 -18 13 -34 9 -21 -4 -25 -1 -25 21 0 44 10 57 43 57 18 0 27 4 22 9 -6 4
-32 5 -60 1 -27 -4 -42 -8 -31 -9 16 -1 18 -6 12 -42 -4 -23 -14 -55 -23 -73
-15 -29 -15 -30 0 -17 16 12 17 8 17 -44 0 -50 2 -56 15 -45 8 7 12 18 8 24
-7 10 -8 24 -4 84 1 15 7 22 21 22 17 0 20 -7 20 -48 0 -26 -5 -53 -11 -59 -7
-7 -6 -12 5 -16 13 -5 16 2 16 43 0 39 4 52 20 60 23 12 23 12 20 -75 -1 -49
1 -58 11 -47 7 6 42 13 78 14 40 1 51 3 30 5 l-37 4 4 76 c2 41 6 84 9 94 4
10 2 19 -3 19 -12 0 -25 -38 -22 -67 1 -18 -4 -23 -24 -23 -19 0 -26 5 -26 20
0 11 5 20 11 20 5 0 7 5 4 10 -11 18 25 62 46 57 10 -3 17 -1 13 4 -3 5 -12 9
-20 9 -8 0 -12 5 -9 10 3 6 2 10 -3 10 -6 0 -13 -7 -16 -16z m22 -179 c0 -41
-2 -45 -24 -45 -22 0 -24 4 -24 45 0 41 2 45 24 45 22 0 24 -4 24 -45z"/>
<path d="M12940 5120 c-63 -3 -91 -7 -61 -8 44 -2 52 -5 47 -18 -3 -9 -9 -27
-12 -40 -6 -22 -20 -29 -51 -25 -7 1 -13 -3 -13 -10 0 -7 15 -9 49 -4 l49 7 0
-66 0 -65 -41 -10 c-37 -8 -31 -9 50 -9 52 0 90 5 87 10 -3 5 -22 7 -42 6
l-37 -3 0 65 0 65 40 6 c23 4 45 3 53 -3 7 -6 12 -6 12 -1 0 13 -59 68 -65 61
-3 -3 1 -11 10 -18 27 -22 16 -30 -40 -30 -30 0 -55 2 -55 4 0 2 7 20 15 40
l15 36 65 0 c37 0 65 4 65 10 0 6 -6 9 -12 8 -7 -1 -65 -5 -128 -8z"/>
<path d="M13210 5091 c0 -23 2 -41 4 -41 8 0 12 71 4 76 -4 3 -8 -13 -8 -35z"/>
<path d="M13368 5089 c5 -47 7 -47 15 4 4 25 2 37 -6 37 -9 0 -11 -13 -9 -41z"/>
<path d="M13866 5115 c10 -8 24 -14 29 -14 6 0 1 6 -9 14 -11 8 -24 15 -30 15
-5 0 -1 -7 10 -15z"/>
<path d="M1559 5088 c-1 -18 -1 -52 1 -76 1 -23 -4 -49 -10 -57 -8 -10 -9 -15
-2 -15 7 0 11 -19 10 -45 0 -25 2 -49 6 -52 3 -4 7 16 7 43 4 165 3 234 -3
234 -5 0 -9 -15 -9 -32z"/>
<path d="M4000 5100 c0 -13 -10 -24 -25 -30 -24 -9 -25 -12 -25 -106 0 -85 2
-95 15 -84 9 8 29 10 50 7 l35 -6 -1 95 c-1 63 -6 93 -13 91 -6 -2 -9 -20 -8
-40 3 -35 2 -37 -27 -37 -20 0 -32 6 -36 19 -8 26 4 51 26 51 10 0 19 6 19 14
0 8 3 21 6 30 3 9 1 16 -5 16 -6 0 -11 -9 -11 -20z m30 -160 c0 -38 -2 -40
-29 -40 -36 0 -43 9 -35 49 6 26 11 31 35 31 27 0 29 -3 29 -40z"/>
<path d="M4104 5085 c-3 -19 -15 -46 -26 -60 -11 -14 -16 -25 -11 -25 12 0 49
60 57 93 3 15 2 27 -3 27 -6 0 -13 -16 -17 -35z"/>
<path d="M4420 5106 c0 -8 -6 -17 -12 -19 -10 -4 -10 -6 0 -6 6 -1 12 -10 12
-21 0 -11 5 -20 10 -20 6 0 10 9 10 20 0 11 6 20 13 20 9 0 8 3 -2 9 -7 5 -10
14 -7 20 4 6 0 11 -8 11 -9 0 -16 -6 -16 -14z"/>
<path d="M4656 5080 c-14 -22 -25 -40 -23 -40 2 0 20 18 40 40 19 22 30 40 23
40 -8 0 -25 -18 -40 -40z"/>
<path d="M5135 5110 c-16 -4 -49 -8 -72 -9 -36 -1 -44 -5 -63 -38 -14 -24 -16
-32 -6 -24 18 15 19 14 17 -57 -1 -29 -8 -67 -17 -83 -8 -17 -13 -33 -10 -36
3 -3 15 16 26 42 19 44 24 88 17 155 -2 22 2 25 33 25 29 0 36 -4 38 -22 2
-13 7 -23 12 -23 6 0 6 10 0 24 -11 31 -5 36 42 36 21 0 38 5 38 10 0 11 -11
11 -55 0z"/>
<path d="M6935 5108 c-6 -9 -26 -18 -45 -21 l-35 -4 36 -1 c28 -2 38 -7 44
-24 l8 -23 4 23 c3 17 11 22 38 22 25 0 34 -5 40 -22 l8 -23 4 23 c4 18 11 22
44 22 22 0 38 4 35 8 -3 5 -19 7 -36 4 -22 -3 -35 1 -45 14 -13 18 -14 18 -15
2 0 -14 -8 -18 -34 -18 -25 0 -36 5 -38 18 -3 16 -4 16 -13 0z"/>
<path d="M9598 5093 c-2 -16 1 -40 7 -56 6 -19 6 -33 -1 -44 -11 -17 -92 -77
-116 -86 -7 -2 -10 -7 -6 -11 7 -8 76 33 97 58 20 24 27 13 23 -34 -3 -31 -10
-43 -25 -49 -19 -7 -19 -8 -2 -15 33 -12 42 8 44 102 1 17 5 32 9 32 4 0 16
-15 27 -32 23 -41 53 -68 74 -68 13 1 12 4 -4 16 -39 29 -65 54 -65 62 0 4 14
16 31 26 17 10 28 20 25 23 -3 3 -18 -4 -34 -16 l-30 -21 -17 26 c-9 14 -15
35 -12 45 3 10 1 22 -4 25 -5 3 -5 13 1 25 8 15 7 19 -4 19 -9 0 -16 -11 -18
-27z"/>
<path d="M9811 4983 c-1 -78 2 -133 8 -133 5 0 9 35 8 78 -1 142 2 172 18 172
9 0 15 -9 16 -22 0 -22 1 -22 10 2 13 32 11 34 -27 36 l-31 1 -2 -134z"/>
<path d="M9960 5112 c0 -11 -81 -92 -91 -92 -4 0 -10 8 -13 18 -5 17 0 -16 11
-71 3 -15 0 -33 -6 -41 -10 -12 -5 -13 30 -9 37 5 42 4 36 -11 -4 -10 -7 -20
-7 -22 0 -2 -11 -4 -25 -4 -14 0 -25 -4 -25 -10 0 -13 5 -12 91 1 53 8 73 8
84 -1 9 -7 15 -8 15 -2 0 5 -12 17 -26 27 -15 9 -24 13 -20 7 6 -10 -25 -22
-61 -22 -28 0 -20 28 11 40 16 7 11 9 -24 9 -45 1 -46 2 -56 40 -10 35 -8 40
14 60 14 12 31 20 40 16 9 -3 12 0 9 9 -3 8 3 22 14 32 18 16 20 16 38 -7 24
-31 78 -62 85 -50 3 5 -5 12 -18 15 -13 3 -38 22 -55 41 -29 33 -51 45 -51 27z"/>
<path d="M10169 5113 c-4 -42 -3 -76 3 -80 8 -4 12 27 9 55 -1 6 3 12 9 12 6
0 8 5 5 10 -7 12 -25 13 -26 3z"/>
<path d="M10240 5110 l-35 -7 30 -2 c25 -1 31 -5 31 -23 0 -13 -5 -26 -10 -30
-7 -5 -4 -8 7 -8 10 0 17 7 17 18 0 9 3 27 6 40 4 12 2 21 -2 21 -5 -1 -25 -5
-44 -9z"/>
<path d="M10595 5110 c-71 -3 -122 -7 -112 -8 13 -2 17 -12 18 -49 l2 -48 10
48 10 47 114 0 c74 0 112 4 108 10 -3 6 -9 9 -13 8 -4 -1 -65 -5 -137 -8z"/>
<path d="M11503 5113 c15 -2 39 -2 55 0 15 2 2 4 -28 4 -30 0 -43 -2 -27 -4z"/>
<path d="M11613 5113 c-7 -3 -13 -13 -13 -24 0 -10 -8 -24 -17 -30 -15 -9 -17
-23 -15 -90 3 -58 0 -79 -9 -79 -7 0 -9 -3 -5 -7 4 -5 43 -7 87 -5 50 2 79 -1
79 -8 0 -5 5 -10 10 -10 6 0 10 40 10 100 0 65 -4 100 -11 100 -7 0 -8 -21 -4
-64 9 -80 1 -106 -31 -106 -19 0 -24 5 -25 28 -1 15 -3 38 -4 51 -1 14 1 38 6
53 6 22 4 28 -7 28 -8 0 -14 -6 -13 -12 3 -26 -2 -37 -18 -41 -16 -4 -16 -5
-1 -6 12 -1 16 -12 16 -50 1 -50 -10 -62 -49 -54 -22 5 -22 103 0 103 11 0 10
3 -4 14 -16 12 -17 16 -6 30 7 9 17 13 22 10 5 -3 6 2 3 10 -3 8 0 24 6 36 13
24 11 29 -7 23z"/>
<path d="M1233 5102 l-123 -3 0 -129 c0 -72 4 -130 8 -130 16 0 22 13 12 26
-6 7 -10 55 -8 115 l3 104 110 0 110 0 3 -107 c3 -103 2 -107 -20 -114 l-23
-7 24 -9 c13 -4 26 -7 28 -5 2 3 2 62 1 133 l-3 129 -122 -3z"/>
<path d="M2330 5066 l0 -45 -47 -4 -48 -3 48 -2 c40 -2 47 -5 47 -23 0 -11 -4
-29 -10 -39 -7 -13 -6 -21 5 -30 13 -11 15 -5 15 39 l0 51 46 0 c25 0 43 4 40
9 -3 5 -25 7 -47 4 l-41 -6 3 47 c2 25 1 46 -3 46 -5 0 -8 -20 -8 -44z"/>
<path d="M2550 4996 c0 -63 -2 -120 -5 -128 -4 -10 20 -13 120 -13 l125 0 0
128 c0 73 -4 127 -9 127 -13 0 -23 -18 -14 -23 7 -4 8 -68 4 -194 -1 -22 -4
-23 -93 -22 -78 1 -89 3 -65 12 15 6 27 14 27 18 0 4 -13 2 -30 -4 -16 -6 -30
-15 -30 -19 0 -4 -4 -8 -10 -8 -15 0 -13 217 2 222 7 3 6 7 -5 11 -15 6 -17
-4 -17 -107z"/>
<path d="M4540 5101 c0 -6 -17 -12 -37 -14 -31 -3 -27 -4 16 -5 46 -2 52 0 41
13 -14 17 -20 19 -20 6z"/>
<path d="M4810 5100 l-65 -7 73 -1 c42 -1 72 2 72 8 0 6 -3 9 -7 8 -5 -1 -37
-4 -73 -8z"/>
<path d="M9663 5099 c9 -5 17 -17 17 -24 0 -10 10 -15 30 -15 17 0 30 5 30 11
0 7 -9 9 -24 5 -18 -4 -25 -1 -29 14 -3 11 -13 20 -24 20 -17 -1 -17 -1 0 -11z"/>
<path d="M10342 5074 c-19 -19 -31 -34 -27 -34 10 0 75 54 75 63 0 13 -15 4
-48 -29z"/>
<path d="M11938 5103 c7 -3 16 -2 19 1 4 3 -2 6 -13 5 -11 0 -14 -3 -6 -6z"/>
<path d="M12730 5098 c0 -4 5 -8 11 -8 5 0 7 -6 3 -12 -5 -9 -2 -9 9 1 23 18
21 30 -3 28 -11 -1 -20 -5 -20 -9z"/>
<path d="M13941 5043 c1 -38 4 -57 6 -43 3 14 9 30 14 37 7 7 6 14 -1 18 -19
12 -11 43 13 48 19 4 18 4 -5 6 l-28 1 1 -67z"/>
<path d="M2251 5080 c-8 -14 -23 -35 -34 -47 -30 -34 -5 -28 27 6 16 17 26 37
24 48 -3 16 -6 15 -17 -7z"/>
<path d="M2613 5093 c15 -2 39 -2 55 0 15 2 2 4 -28 4 -30 0 -43 -2 -27 -4z"/>
<path d="M2710 5090 c0 -5 -22 -10 -50 -10 -46 0 -50 -2 -49 -22 1 -17 2 -19
6 -5 6 23 83 25 83 2 0 -27 18 -15 22 15 3 17 1 30 -4 30 -4 0 -8 -4 -8 -10z"/>
<path d="M3584 5086 c-79 -35 -112 -137 -59 -184 15 -12 31 -20 36 -16 5 3 -2
15 -16 26 -52 40 -16 145 59 172 23 8 34 15 26 15 -8 0 -29 -6 -46 -13z"/>
<path d="M13268 5093 c18 -2 45 -2 60 0 15 2 0 4 -33 4 -33 0 -45 -2 -27 -4z"/>
<path d="M455 5071 c-54 -33 -70 -59 -70 -113 0 -40 5 -53 24 -69 29 -24 32
-24 65 2 19 15 26 30 26 54 0 39 -14 52 -60 57 l-35 3 43 43 c24 23 42 42 40
42 -2 0 -16 -8 -33 -19z m16 -108 c13 -35 -3 -73 -31 -73 -25 0 -43 41 -34 76
9 35 51 33 65 -3z"/>
<path d="M2422 5057 c18 -19 35 -29 37 -24 3 9 -47 56 -62 57 -4 0 7 -15 25
-33z"/>
<path d="M3239 5068 c-16 -29 -109 -150 -128 -165 -13 -11 -12 -13 5 -13 13 0
24 11 31 30 7 19 20 31 38 36 36 9 52 -8 37 -41 -11 -23 -9 -25 11 -25 21 0
22 4 25 100 1 55 0 100 -2 100 -3 0 -11 -10 -17 -22z m-3 -54 c-3 -9 -6 -22
-6 -30 0 -8 -10 -14 -26 -14 l-26 0 24 29 c25 32 44 40 34 15z"/>
<path d="M3357 5048 c-3 -24 -15 -69 -25 -100 l-19 -58 43 0 c23 0 54 4 68 10
32 12 44 54 23 78 -15 16 -15 19 3 30 22 14 26 52 8 70 -7 7 -31 12 -54 12
-41 0 -41 0 -47 -42z m87 16 c9 -24 8 -31 -10 -48 -24 -25 -54 -20 -54 8 0 39
11 56 35 56 13 0 26 -7 29 -16z m-16 -91 c18 -34 -12 -73 -55 -73 -26 0 -30
21 -13 64 11 31 54 36 68 9z"/>
<path d="M3663 5060 c6 -16 12 -28 13 -27 0 1 4 14 8 30 5 22 3 27 -13 27 -17
0 -18 -3 -8 -30z"/>
<path d="M4313 5083 c15 -2 39 -2 55 0 15 2 2 4 -28 4 -30 0 -43 -2 -27 -4z"/>
<path d="M5196 5064 c18 -26 28 -27 18 -1 -3 8 -12 18 -20 21 -11 4 -11 0 2
-20z"/>
<path d="M5575 5070 c-10 -11 -13 -20 -7 -20 6 0 14 5 17 10 10 16 34 11 44
-9 8 -14 6 -25 -10 -45 -17 -21 -18 -26 -5 -26 17 0 31 -41 22 -65 -3 -10 -19
-15 -46 -15 -25 0 -39 -4 -35 -10 11 -17 64 -11 85 10 22 22 27 69 8 88 -9 9
-9 18 0 37 15 32 15 30 -4 49 -21 22 -47 20 -69 -4z"/>
<path d="M7574 5053 c-15 -21 -31 -40 -34 -43 -19 -15 -89 -120 -80 -120 18 0
25 5 27 20 2 18 40 50 59 50 21 0 29 -29 15 -51 -10 -17 -8 -19 21 -19 21 0
28 3 20 8 -10 7 -11 28 -4 98 5 49 8 90 7 92 -1 1 -15 -14 -31 -35z m2 -69
c-3 -8 -18 -14 -33 -14 l-27 0 30 31 c23 24 30 27 32 14 2 -9 1 -23 -2 -31z"/>
<path d="M7705 5068 c-30 -23 -55 -74 -55 -111 0 -13 12 -37 26 -52 22 -24 30
-27 67 -21 23 4 49 14 57 23 14 14 13 14 -7 4 -31 -16 -88 -14 -103 5 -32 37
2 137 54 160 25 11 27 13 10 14 -12 0 -34 -10 -49 -22z"/>
<path d="M7792 5083 c10 -2 21 -16 24 -30 5 -18 9 -21 15 -11 19 30 10 48 -23
47 -18 -1 -25 -3 -16 -6z"/>
<path d="M8195 5070 c-10 -11 -13 -20 -7 -20 6 0 14 5 17 10 3 6 17 10 30 10
18 0 26 -7 31 -26 8 -32 -5 -62 -52 -114 l-37 -41 58 3 c32 2 60 8 62 13 2 7
-12 9 -37 7 -47 -5 -50 5 -14 39 29 27 54 70 54 93 0 43 -73 62 -105 26z"/>
<path d="M10659 5088 c-6 -15 -4 -80 3 -84 4 -3 8 15 8 40 0 37 -5 58 -11 44z"/>
<path d="M279 5073 c0 -5 0 -46 1 -92 1 -60 -2 -86 -12 -92 -9 -6 -5 -9 12 -9
l25 0 -3 100 c-2 55 -8 100 -13 100 -5 0 -9 -3 -10 -7z"/>
<path d="M1278 5074 c-5 -4 -8 -19 -8 -33 0 -18 3 -22 11 -14 6 6 9 21 7 33
-1 12 -6 18 -10 14z"/>
<path d="M4750 5068 c0 -6 -7 -19 -16 -29 -14 -15 -13 -20 5 -50 12 -19 21
-28 21 -21 0 7 -5 21 -12 31 -9 15 -8 24 5 45 20 29 21 36 7 36 -5 0 -10 -5
-10 -12z"/>
<path d="M4791 5050 c-21 -29 -21 -31 -4 -55 23 -32 38 -32 18 -1 -15 23 -15
27 1 51 24 37 12 41 -15 5z"/>
<path d="M4851 5050 l-22 -30 22 -29 c12 -16 19 -37 16 -45 -4 -10 -1 -16 9
-16 17 0 12 29 -12 68 -13 19 -12 25 2 47 24 37 12 40 -15 5z"/>
<path d="M10570 5039 c0 -25 4 -38 10 -34 6 4 8 16 5 26 -4 11 -1 26 5 34 10
12 9 15 -4 15 -12 0 -16 -10 -16 -41z"/>
<path d="M10918 5073 c12 -2 32 -2 45 0 12 2 2 4 -23 4 -25 0 -35 -2 -22 -4z"/>
<path d="M11379 5073 c23 -5 23 -6 16 -85 -9 -105 -10 -108 -54 -109 l-36 -1
33 -9 c57 -17 63 -4 76 154 l5 57 -32 -1 c-26 -1 -27 -3 -8 -6z"/>
<path d="M12176 5065 c4 -8 8 -15 10 -15 2 0 4 7 4 15 0 8 -4 15 -10 15 -5 0
-7 -7 -4 -15z"/>
<path d="M1180 5044 c0 -28 15 -25 23 6 3 13 0 20 -9 20 -8 0 -14 -10 -14 -26z"/>
<path d="M4200 5068 c0 -2 -2 -42 -4 -89 -2 -48 -6 -92 -10 -98 -4 -6 -22 -11
-39 -12 l-32 -1 29 -10 c45 -17 66 15 66 101 0 36 3 76 6 89 4 13 2 22 -5 22
-6 0 -11 -1 -11 -2z"/>
<path d="M12385 5060 c-3 -5 -1 -10 4 -10 6 0 11 5 11 10 0 6 -2 10 -4 10 -3
0 -8 -4 -11 -10z"/>
<path d="M13328 5063 c7 -3 16 -2 19 1 4 3 -2 6 -13 5 -11 0 -14 -3 -6 -6z"/>
<path d="M13841 5067 c2 -1 13 -9 24 -17 19 -14 19 -14 6 3 -7 9 -18 17 -24
17 -6 0 -8 -1 -6 -3z"/>
<path d="M1450 4994 c0 -37 3 -64 7 -60 10 10 11 116 1 122 -4 3 -8 -25 -8
-62z"/>
<path d="M1670 5058 c-5 -28 -3 -121 2 -125 5 -2 8 25 8 61 0 36 -2 66 -5 66
-3 0 -5 -1 -5 -2z"/>
<path d="M4661 5007 c-19 -29 -27 -46 -18 -38 16 12 17 8 17 -53 0 -39 4 -66
10 -66 7 0 10 30 9 80 -1 62 2 85 15 99 17 19 21 31 9 30 -5 0 -23 -23 -42
-52z"/>
<path d="M9980 5050 c-13 -8 -12 -10 3 -10 9 0 17 5 17 10 0 12 -1 12 -20 0z"/>
<path d="M11508 5003 c-6 -64 -4 -131 4 -138 3 -3 11 1 18 10 9 11 9 15 1 15
-9 0 -12 24 -10 80 2 95 -6 116 -13 33z"/>
<path d="M11905 5050 c3 -5 11 -10 16 -10 6 0 7 5 4 10 -3 6 -11 10 -16 10 -6
0 -7 -4 -4 -10z"/>
<path d="M14078 5053 c7 -3 16 -2 19 1 4 3 -2 6 -13 5 -11 0 -14 -3 -6 -6z"/>
<path d="M4370 5003 c0 -28 -3 -63 -6 -79 l-6 -29 76 0 76 0 0 78 c0 44 -4 77
-10 77 -5 0 -9 -10 -7 -22 2 -21 -2 -23 -53 -23 -45 0 -55 3 -55 17 0 9 -4 20
-8 24 -4 4 -7 -15 -7 -43z m127 -53 l0 -40 -57 0 -57 0 0 40 0 40 57 0 57 0 0
-40z"/>
<path d="M5153 5036 c3 -7 1 -18 -5 -24 -8 -8 -3 -13 16 -18 20 -5 25 -11 21
-25 -4 -11 -2 -19 4 -19 6 0 11 13 11 30 0 22 -4 28 -15 24 -11 -5 -15 1 -15
20 0 14 -5 26 -11 26 -6 0 -9 -6 -6 -14z"/>
<path d="M12735 5040 c-3 -5 1 -10 9 -10 9 0 16 5 16 10 0 6 -4 10 -9 10 -6 0
-13 -4 -16 -10z"/>
<path d="M14031 4973 c2 -79 6 -70 11 25 2 28 0 52 -4 52 -5 0 -7 -35 -7 -77z"/>
<path d="M1225 5030 c-3 -5 -3 -11 2 -11 4 -1 -5 -5 -22 -9 -24 -6 -20 -8 25
-7 30 0 45 2 32 4 -12 2 -20 8 -17 13 3 5 1 11 -4 14 -5 4 -12 2 -16 -4z"/>
<path d="M6950 5020 c-8 -15 -22 -20 -53 -22 l-42 -1 43 -6 43 -6 -26 -35
c-14 -19 -37 -41 -50 -48 -26 -13 -32 -22 -16 -22 5 0 23 12 40 26 l31 26 0
-41 c0 -22 5 -43 10 -46 6 -3 10 -1 10 5 0 8 22 11 70 8 59 -2 70 -1 70 13 0
9 3 31 7 49 5 25 3 32 -8 28 -9 -3 -13 -17 -11 -41 l4 -37 -66 0 -66 0 0 48
c0 26 6 56 13 67 20 29 28 55 17 55 -5 0 -14 -9 -20 -20z"/>
<path d="M10210 5026 c0 -10 -13 -16 -37 -19 -21 -2 2 -4 50 -5 53 -1 86 2 82
7 -3 5 -22 7 -42 4 -31 -5 -35 -4 -30 10 4 11 1 17 -8 17 -8 0 -15 -6 -15 -14z"/>
<path d="M10378 5022 c-7 -9 -26 -28 -42 -40 -16 -12 -24 -22 -18 -22 17 0 93
68 83 74 -5 4 -16 -2 -23 -12z"/>
<path d="M10958 5033 c-16 -4 -16 -6 -3 -19 11 -12 12 -20 5 -35 -8 -15 -7
-19 5 -19 11 0 15 11 15 40 0 22 -1 39 -2 39 -2 -1 -11 -3 -20 -6z"/>
<path d="M13405 5030 c-3 -5 1 -10 10 -10 9 0 13 5 10 10 -3 6 -8 10 -10 10
-2 0 -7 -4 -10 -10z"/>
<path d="M13748 5033 c7 -3 16 -2 19 1 4 3 -2 6 -13 5 -11 0 -14 -3 -6 -6z"/>
<path d="M4311 4933 c0 -54 3 -92 6 -85 2 6 12 12 21 12 13 0 13 2 -2 13 -16
11 -18 25 -14 85 2 40 0 72 -4 72 -4 0 -8 -44 -7 -97z"/>
<path d="M8425 5000 c-21 -41 -19 -67 10 -96 24 -23 28 -25 47 -12 29 20 39
45 10 27 -10 -7 -26 -10 -34 -6 -17 6 -31 58 -22 81 9 24 37 29 51 10 7 -10
16 -15 19 -11 12 11 -18 37 -42 37 -16 0 -28 -10 -39 -30z"/>
<path d="M8545 5021 c-3 -5 -1 -12 5 -16 13 -8 13 -71 0 -96 -9 -16 -7 -19 14
-19 22 0 23 3 17 33 -10 45 1 81 26 85 27 4 34 -18 24 -73 -8 -42 -7 -45 13
-45 19 0 21 5 18 54 -3 47 -1 56 17 66 27 14 34 -2 29 -70 -3 -48 -2 -50 22
-50 17 0 21 3 12 9 -7 4 -12 12 -11 17 1 5 1 31 0 57 -1 53 -19 69 -53 48 -15
-9 -23 -10 -34 0 -11 9 -21 9 -39 1 -15 -7 -25 -8 -25 -2 0 13 -27 13 -35 1z"/>
<path d="M10909 5023 c-4 -44 -2 -72 5 -70 11 4 14 77 4 77 -5 0 -8 -3 -9 -7z"/>
<path d="M13180 4966 c0 -42 -4 -66 -12 -69 -23 -9 26 -7 60 2 30 9 32 8 32
-15 0 -37 15 -29 16 9 0 17 2 54 4 81 3 33 0 51 -8 54 -7 2 -12 -5 -12 -17 0
-17 -6 -21 -31 -21 -26 0 -29 3 -24 20 5 14 2 20 -9 20 -13 0 -16 -13 -16 -64z
m77 -18 c-2 -28 -6 -33 -29 -36 -24 -3 -26 0 -25 32 1 32 4 36 28 36 24 0 27
-3 26 -32z"/>
<path d="M13228 5023 c7 -3 16 -2 19 1 4 3 -2 6 -13 5 -11 0 -14 -3 -6 -6z"/>
<path d="M2590 4964 c0 -34 4 -53 10 -49 6 3 10 19 10 36 0 29 1 29 55 29 55
0 75 -15 33 -23 l-23 -4 23 -2 c12 0 22 -5 22 -10 0 -5 -10 -12 -22 -14 -22
-4 -22 -4 2 -6 21 -2 22 -3 7 -10 -17 -6 -17 -8 5 -18 23 -10 23 -10 23 58 l0
69 -35 -1 c-30 -2 -31 -3 -7 -6 48 -7 29 -23 -28 -23 -57 0 -76 16 -27 23 22
3 20 4 -10 6 l-38 1 0 -56z"/>
<path d="M5776 4998 c-23 -32 -20 -71 7 -96 28 -27 49 -28 70 -4 19 21 23 42
5 24 -19 -19 -46 -14 -64 13 -14 21 -15 31 -6 50 13 28 47 33 56 8 5 -12 10
-13 17 -6 18 18 1 33 -36 33 -24 0 -39 -7 -49 -22z"/>
<path d="M5908 4959 c3 -45 1 -64 -9 -71 -10 -6 -8 -8 9 -6 21 3 24 9 27 53 1
28 4 57 6 65 3 9 -4 16 -17 18 -19 3 -20 -1 -16 -59z"/>
<path d="M5975 5004 c13 -9 16 -25 14 -66 -2 -41 0 -54 12 -56 13 -2 15 6 11
52 -4 48 -2 55 18 66 32 17 43 1 38 -64 -3 -51 -1 -56 18 -56 16 0 20 5 18 23
-2 12 -6 43 -9 68 l-6 46 -65 0 c-55 -1 -63 -3 -49 -13z"/>
<path d="M9054 5001 c10 -11 15 -25 10 -32 -4 -8 -3 -10 4 -5 7 4 12 18 12 32
0 18 -5 24 -22 24 -20 0 -20 -1 -4 -19z"/>
<path d="M9527 4996 c10 -13 20 -20 21 -15 5 12 -17 39 -30 39 -5 0 -1 -11 9
-24z"/>
<path d="M9953 5013 c31 -3 47 -9 47 -18 0 -7 -6 -16 -12 -18 -7 -3 6 -6 30
-6 24 -1 41 3 38 8 -3 5 -16 7 -29 4 -18 -5 -20 -3 -9 8 22 24 13 29 -50 27
-57 -1 -58 -2 -15 -5z"/>
<path d="M11941 4965 c-1 -33 2 -55 8 -55 6 0 11 16 11 35 l0 35 50 0 c48 0
73 -19 28 -21 -16 -1 -18 -3 -7 -6 23 -6 32 -53 10 -53 -9 -1 -1 -7 18 -16 19
-8 36 -12 39 -9 3 2 -3 7 -12 11 -12 5 -16 20 -16 70 0 35 -4 64 -10 64 -5 0
-7 -7 -4 -15 5 -12 -4 -15 -45 -15 -48 0 -67 12 -38 23 6 3 3 6 -9 6 -18 1
-21 -5 -23 -54z"/>
<path d="M12003 5013 c9 -2 23 -2 30 0 6 3 -1 5 -18 5 -16 0 -22 -2 -12 -5z"/>
<path d="M14327 4996 c10 -13 20 -20 21 -15 5 12 -17 39 -30 39 -5 0 -1 -11 9
-24z"/>
<path d="M1148 5003 c8 -3 12 -26 12 -66 0 -34 5 -69 11 -77 9 -13 10 -12 5 3
-5 15 2 17 59 17 l65 0 2 40 c1 22 2 48 2 58 1 9 6 21 11 25 6 5 4 7 -5 4 -10
-2 -17 -21 -20 -58 l-5 -54 -52 -3 -53 -3 0 40 0 40 48 4 47 3 -52 2 c-40 2
-53 6 -53 17 0 8 -8 15 -17 14 -11 0 -13 -3 -5 -6z"/>
<path d="M1894 4980 c1 -36 20 -34 24 3 2 18 -1 27 -11 27 -9 0 -14 -10 -13
-30z"/>
<path d="M6403 4994 c-3 -8 -1 -20 5 -26 8 -8 9 -5 5 10 -4 16 1 21 19 25 l23
4 -23 2 c-12 0 -25 -6 -29 -15z"/>
<path d="M7075 5000 c-18 -8 -17 -9 7 -9 15 -1 30 4 33 9 7 12 -12 12 -40 0z"/>
<path d="M11317 4986 c10 -13 20 -20 21 -15 5 12 -17 39 -30 39 -5 0 -1 -11 9
-24z"/>
<path d="M4116 4977 c10 -15 23 -27 28 -27 12 0 -18 43 -34 48 -8 3 -6 -5 6
-21z"/>
<path d="M6998 4993 c6 -2 18 -2 25 0 6 3 1 5 -13 5 -14 0 -19 -2 -12 -5z"/>
<path d="M7978 4993 c23 -2 59 -2 80 0 20 2 1 4 -43 4 -44 0 -61 -2 -37 -4z"/>
<path d="M10501 4943 c-1 -34 3 -64 9 -68 14 -9 181 -14 210 -7 14 4 -25 9
-90 12 l-115 5 -3 50 c-4 74 -10 79 -11 8z"/>
<path d="M13311 4983 c0 -11 3 -13 6 -5 5 13 59 17 67 4 8 -13 -19 -57 -34
-54 -7 2 -10 -3 -7 -12 4 -10 -3 -21 -21 -30 -32 -18 -24 -21 12 -5 19 9 32 9
56 -1 17 -7 33 -10 37 -7 3 4 -6 11 -21 16 -29 12 -33 33 -11 71 21 37 19 40
-35 40 -41 0 -50 -3 -49 -17z"/>
<path d="M13730 4990 c-8 -5 -17 -7 -21 -4 -4 2 -10 -12 -13 -31 -5 -26 -12
-35 -26 -35 -11 0 -19 -5 -17 -12 1 -7 -18 -18 -43 -24 -26 -7 -35 -13 -22
-13 12 -1 39 6 58 14 32 13 39 13 65 0 16 -9 29 -12 29 -7 0 5 -11 14 -25 20
-23 11 -24 13 -11 44 9 20 23 35 38 38 12 3 18 9 12 12 -5 4 -16 3 -24 -2z"/>
<path d="M13848 4990 c29 -12 31 -65 2 -80 -11 -6 -20 -16 -20 -22 0 -6 9 -3
20 7 19 17 21 17 47 -1 31 -20 203 -35 203 -17 0 6 -29 8 -72 6 -57 -3 -81 0
-108 14 -32 16 -35 22 -34 61 1 41 0 42 -30 41 -29 0 -29 -1 -8 -9z"/>
<path d="M6450 4975 c-8 -9 -8 -15 -2 -15 12 0 26 19 19 26 -2 2 -10 -2 -17
-11z"/>
<path d="M10162 4957 c2 -18 7 -30 13 -27 5 3 8 11 7 19 -2 8 2 17 8 21 8 5 4
9 -10 13 -19 5 -21 2 -18 -26z"/>
<path d="M10260 4959 c0 -17 4 -28 10 -24 6 3 10 17 10 31 0 13 -4 24 -10 24
-5 0 -10 -14 -10 -31z"/>
<path d="M10530 4940 c0 -29 3 -51 6 -47 9 8 9 85 1 94 -4 3 -7 -18 -7 -47z"/>
<path d="M10583 4979 c9 -5 17 -21 17 -34 0 -17 -6 -25 -17 -25 -17 -1 -17 -1
0 -11 23 -13 23 -13 30 39 5 40 4 42 -21 42 -23 -1 -25 -2 -9 -11z"/>
<path d="M10640 4935 c0 -27 4 -45 8 -39 4 6 14 14 22 17 12 4 11 6 -2 6 -12
1 -18 9 -18 26 0 13 8 28 18 34 15 9 14 10 -5 8 -21 -1 -23 -6 -23 -52z"/>
<path d="M10696 4950 c2 -39 13 -69 15 -39 0 8 2 29 3 47 2 20 -1 32 -8 32 -8
0 -12 -15 -10 -40z"/>
<path d="M12728 4983 c6 -2 18 -2 25 0 6 3 1 5 -13 5 -14 0 -19 -2 -12 -5z"/>
<path d="M14400 4966 c0 -48 -18 -76 -47 -77 l-28 -1 29 -10 c25 -9 31 -8 43
8 7 10 13 30 13 45 0 15 3 34 6 43 3 9 1 16 -5 16 -6 0 -11 -11 -11 -24z"/>
<path d="M9923 4973 c9 -2 25 -2 35 0 9 3 1 5 -18 5 -19 0 -27 -2 -17 -5z"/>
<path d="M13020 4964 l-25 -14 33 0 c17 0 32 4 32 9 0 17 -14 18 -40 5z"/>
<path d="M13922 4946 c-17 -37 -15 -45 4 -18 8 12 14 27 12 33 -2 6 -9 -1 -16
-15z"/>
<path d="M1197 4953 c-12 -12 -7 -43 6 -43 8 0 13 9 12 20 -2 23 -9 33 -18 23z"/>
<path d="M1257 4953 c-11 -10 -8 -43 3 -43 6 0 10 11 10 25 0 26 -2 29 -13 18z"/>
<path d="M5215 4941 c3 -11 3 -31 -1 -45 -5 -20 -13 -26 -33 -26 -20 0 -23 -2
-11 -10 35 -22 52 -6 64 63 6 30 4 37 -9 37 -12 0 -15 -6 -10 -19z"/>
<path d="M10382 4931 c-11 -15 -40 -37 -64 -49 -24 -12 -37 -21 -30 -22 34 -1
144 82 124 94 -5 3 -18 -7 -30 -23z"/>
<path d="M11860 4911 c0 -31 4 -50 10 -46 10 6 7 82 -4 92 -3 4 -6 -17 -6 -46z"/>
<path d="M2438 4943 c7 -3 16 -2 19 1 4 3 -2 6 -13 5 -11 0 -14 -3 -6 -6z"/>
<path d="M7954 4938 c-7 -12 109 -9 126 2 10 7 -6 9 -53 7 -38 -1 -71 -5 -73
-9z"/>
<path d="M12285 4939 c-6 -9 -19 -19 -30 -22 -18 -4 -18 -5 3 -6 16 -1 22 -7
22 -25 0 -14 5 -28 10 -31 6 -4 10 7 10 24 l0 31 60 0 c33 0 60 4 60 8 0 5
-27 6 -59 4 -52 -4 -60 -2 -63 14 -3 17 -5 17 -13 3z"/>
<path d="M4790 4895 c0 -30 4 -45 13 -45 8 0 12 15 12 45 0 29 -4 45 -12 45
-9 0 -13 -16 -13 -45z"/>
<path d="M7008 4933 c6 -2 18 -2 25 0 6 3 1 5 -13 5 -14 0 -19 -2 -12 -5z"/>
<path d="M10015 4930 c-28 -7 -28 -8 12 -9 23 0 45 4 48 9 7 11 -16 11 -60 0z"/>
<path d="M10210 4905 c0 -21 -5 -35 -12 -35 -9 0 -9 -3 0 -12 16 -16 23 -6 32
42 6 31 4 40 -6 40 -9 0 -14 -12 -14 -35z"/>
<path d="M10950 4924 c-14 -7 -33 -14 -42 -14 -9 0 -20 -4 -23 -10 -3 -5 -2
-10 4 -10 20 0 91 32 91 41 0 5 -1 9 -2 8 -2 -1 -14 -7 -28 -15z"/>
<path d="M3635 4911 c-6 -5 -21 -11 -35 -14 l-25 -4 26 -2 c15 0 32 6 39 14
14 16 10 21 -5 6z"/>
<path d="M5176 4907 c3 -10 9 -15 12 -12 3 3 0 11 -7 18 -10 9 -11 8 -5 -6z"/>
<path d="M12173 4913 c9 -2 25 -2 35 0 9 3 1 5 -18 5 -19 0 -27 -2 -17 -5z"/>
<path d="M5087 4889 c4 -13 8 -18 11 -10 2 7 -1 18 -6 23 -8 8 -9 4 -5 -13z"/>
<path d="M5136 4897 c3 -10 9 -15 12 -12 3 3 0 11 -7 18 -10 9 -11 8 -5 -6z"/>
<path d="M10155 4891 c-16 -19 -16 -20 3 -18 12 0 23 9 25 19 7 24 -5 23 -28
-1z"/>
<path d="M10260 4895 c7 -9 15 -13 17 -11 7 7 -7 26 -19 26 -6 0 -6 -6 2 -15z"/>
<path d="M540 4890 c0 -5 7 -10 15 -10 8 0 15 5 15 10 0 6 -7 10 -15 10 -8 0
-15 -4 -15 -10z"/>
<path d="M2322 4870 c1 -16 5 -27 10 -24 11 7 10 54 -1 54 -5 0 -9 -13 -9 -30z"/>
<path d="M5020 4885 c-8 -9 -8 -15 -2 -15 12 0 26 19 19 26 -2 2 -10 -2 -17
-11z"/>
<path d="M11930 4879 c-19 -11 -27 -18 -17 -15 11 4 30 9 43 12 13 3 24 10 24
15 0 13 -11 11 -50 -12z"/>
<path d="M12837 4879 c7 -7 15 -10 18 -7 3 3 -2 9 -12 12 -14 6 -15 5 -6 -5z"/>
<path d="M13060 4880 c0 -5 7 -10 15 -10 8 0 15 5 15 10 0 6 -7 10 -15 10 -8
0 -15 -4 -15 -10z"/>
<path d="M4445 4870 l-80 -6 93 -2 c56 -1 92 2 92 8 0 6 -6 9 -12 8 -7 -1 -49
-5 -93 -8z"/>
<path d="M4876 4872 c-3 -6 -1 -14 5 -17 15 -10 25 3 12 16 -7 7 -13 7 -17 1z"/>
<path d="M4718 4863 c12 -2 30 -2 40 0 9 3 -1 5 -23 4 -22 0 -30 -2 -17 -4z"/>
<path d="M2115 4636 c-19 -13 -18 -14 6 -9 47 9 46 -45 0 -94 -28 -30 -27 -33
14 -33 19 0 35 4 35 9 0 5 -9 7 -20 4 -12 -3 -20 0 -20 7 0 6 9 23 20 37 23
29 26 63 8 81 -15 15 -20 15 -43 -2z"/>
<path d="M1175 4550 c-24 -26 -31 -124 -13 -160 17 -33 58 -38 83 -10 28 31
31 117 6 158 -24 37 -50 41 -76 12z m56 -6 c7 -9 13 -41 13 -79 0 -64 -13 -95
-40 -95 -22 0 -36 50 -31 108 8 73 30 99 58 66z"/>
<path d="M1394 4545 c-23 -35 -23 -124 -1 -158 40 -62 100 -11 101 84 0 87
-62 132 -100 74z m66 -4 c5 -11 10 -45 10 -76 0 -61 -12 -95 -35 -95 -22 0
-35 33 -35 89 0 86 33 131 60 82z"/>
<path d="M1570 4560 c-10 -6 -11 -10 -2 -10 9 0 12 -25 12 -89 0 -62 -4 -91
-12 -94 -7 -3 3 -5 22 -5 19 0 29 2 23 5 -9 3 -13 34 -13 104 0 54 -3 99 -7
99 -5 0 -15 -5 -23 -10z"/>
<path d="M1730 4485 c-21 -25 -15 -87 10 -107 12 -10 28 -18 36 -18 16 0 54
35 54 50 0 6 -9 1 -20 -10 -25 -25 -32 -25 -54 -1 -24 26 -18 84 8 90 11 2 26
-5 33 -15 15 -20 29 -13 20 11 -8 20 -70 20 -87 0z"/>
<path d="M1855 4492 c-2 -2 0 -15 5 -28 5 -13 8 -29 6 -36 -17 -53 -16 -68 2
-68 16 0 18 6 14 55 -4 50 -3 55 19 64 36 13 42 4 37 -60 -4 -50 -2 -59 12
-59 14 0 16 9 12 54 -4 47 -2 55 17 65 34 19 44 4 39 -60 -4 -57 -3 -59 20
-59 19 0 22 3 14 13 -6 7 -12 37 -14 67 l-3 55 -88 0 c-49 0 -90 -1 -92 -3z"/>
<path d="M2461 4473 c0 -10 3 -13 6 -5 5 13 29 16 36 5 2 -5 3 -3 2 2 -1 6
-11 11 -23 13 -16 3 -22 -2 -21 -15z"/>
<path d="M2467 4438 c2 -5 10 -8 18 -8 8 0 16 3 18 8 3 4 -5 7 -18 7 -13 0
-21 -3 -18 -7z"/>
<path d="M1316 4381 c-4 -7 -5 -15 -2 -18 9 -9 19 4 14 18 -4 11 -6 11 -12 0z"/>
<path d="M10688 3819 c-36 -14 -68 -67 -68 -113 0 -46 36 -86 77 -86 l28 0
-34 18 c-46 23 -55 41 -47 87 10 54 56 97 98 93 25 -2 34 -8 36 -26 4 -29 22
-18 22 14 0 22 -4 24 -42 23 -24 0 -55 -5 -70 -10z"/>
<path d="M3887 3763 c-4 -3 -7 -11 -7 -17 0 -6 4 -5 9 3 13 20 41 5 41 -22 0
-13 -11 -38 -25 -57 -33 -44 -32 -51 7 -45 42 8 49 15 15 15 -32 0 -34 10 -7
35 26 24 33 50 20 75 -10 19 -40 27 -53 13z"/>
<path d="M3149 3686 c-13 -6 -25 -20 -27 -31 -4 -19 -3 -19 10 -2 9 13 24 18
43 15 42 -4 47 -52 10 -97 -35 -41 -20 -40 17 1 57 64 18 150 -53 114z"/>
<path d="M2021 3628 c-13 -35 -34 -82 -47 -105 -22 -41 -22 -43 -3 -43 13 0
19 7 19 23 0 31 18 47 53 47 36 0 59 -27 46 -52 -8 -16 -5 -18 27 -18 35 0 36
1 21 18 -10 10 -17 22 -17 26 0 4 -11 32 -25 61 -13 30 -27 66 -31 80 -3 14
-9 25 -13 25 -3 0 -17 -28 -30 -62z m38 -29 c14 -41 15 -39 -12 -39 -33 0 -37
7 -24 41 14 37 22 37 36 -2z"/>
<path d="M2910 3675 c-15 -19 -25 -103 -16 -139 3 -14 18 -33 32 -43 26 -17
27 -16 55 15 23 26 29 42 29 78 0 64 -23 104 -59 104 -16 0 -34 -7 -41 -15z
m73 -35 c18 -70 -20 -174 -51 -137 -17 20 -24 107 -11 144 15 46 49 43 62 -7z"/>
<path d="M3297 3684 c-14 -15 -6 -20 23 -16 28 4 30 2 30 -26 0 -19 -7 -35
-17 -41 -11 -6 -13 -11 -5 -11 7 0 17 -11 23 -24 17 -37 -3 -66 -47 -66 -21 0
-33 -4 -29 -10 12 -19 56 -10 82 16 20 21 24 31 18 57 -3 18 -7 52 -8 77 -2
42 -4 45 -32 48 -17 2 -34 0 -38 -4z"/>
<path d="M10750 3649 c0 -5 5 -7 10 -4 6 3 10 8 10 11 0 2 -4 4 -10 4 -5 0
-10 -5 -10 -11z"/>
<path d="M3519 3616 c-49 -24 -47 -100 4 -127 21 -12 68 12 66 34 0 9 -2 9 -6
0 -8 -22 -51 -15 -69 12 -18 28 -12 60 16 75 13 7 21 6 30 -5 15 -18 33 -20
28 -3 -7 19 -44 27 -69 14z"/>
<path d="M3682 3621 c-7 -4 -24 -6 -37 -3 -22 4 -23 2 -15 -31 4 -20 5 -47 2
-62 -4 -24 9 -44 28 -45 3 0 3 27 2 60 -3 50 -1 61 14 67 10 4 21 0 28 -9 12
-16 13 -79 1 -97 -3 -7 2 -11 14 -11 14 0 19 6 19 23 -4 61 2 86 23 92 29 10
33 2 30 -60 -2 -46 1 -55 15 -55 14 0 16 9 12 60 -5 73 -17 88 -54 71 -19 -8
-30 -9 -38 -1 -12 12 -26 13 -44 1z"/>
<path d="M10370 3550 c-142 -18 -329 -50 -400 -69 -41 -11 -86 -23 -100 -27
-78 -20 -328 -113 -410 -151 -407 -191 -770 -490 -1047 -864 -124 -166 -239
-360 -277 -465 -8 -22 -24 -61 -37 -89 -13 -27 -24 -52 -24 -55 -1 -3 -5 -12
-8 -20 -17 -42 -103 -351 -111 -400 -2 -14 -9 -45 -14 -70 -29 -129 -51 -443
-34 -489 4 -11 441 -12 2721 -6 1494 4 2717 9 2719 10 9 8 9 104 2 225 -13
208 -71 505 -131 675 -83 234 -238 535 -361 702 -21 29 -38 54 -38 57 0 10
-75 91 -210 227 -168 168 -267 257 -342 306 -29 20 -62 44 -73 53 -49 44 -414
231 -535 275 -171 62 -300 99 -437 125 -87 16 -178 35 -203 41 -55 14 -558 21
-650 9z m160 -30 c0 -26 16 -26 23 0 5 20 47 29 47 10 0 -5 -7 -10 -15 -10 -9
0 -20 -11 -25 -24 -15 -41 -70 -56 -70 -20 0 8 -5 14 -11 14 -11 0 -38 29 -39
41 0 3 20 7 45 7 39 2 45 -1 45 -18z m415 10 c50 -5 106 -14 125 -19 19 -5 86
-19 148 -31 222 -42 519 -144 692 -239 8 -4 67 -36 129 -70 63 -35 126 -72
140 -82 15 -11 53 -40 86 -64 89 -66 89 -66 177 -146 311 -283 442 -450 605
-774 127 -254 192 -448 253 -760 13 -64 27 -209 36 -352 5 -91 3 -114 -7 -117
-22 -8 -5389 -17 -5389 -10 0 4 117 122 259 263 143 141 498 492 789 781 291
289 659 652 818 807 159 155 412 403 562 552 l274 271 106 0 c59 0 148 -5 197
-10z m-525 -15 c0 -8 7 -15 15 -15 8 0 15 -7 15 -15 0 -8 7 -15 15 -15 8 0 15
-4 15 -10 0 -5 7 -10 15 -10 8 0 15 -3 15 -6 0 -14 -96 -104 -111 -104 -10 0
-16 -7 -15 -17 0 -10 -11 -23 -26 -31 -16 -7 -28 -19 -28 -27 0 -18 -46 -49
-60 -40 -5 3 -10 13 -10 21 0 8 -7 14 -15 14 -8 0 -15 7 -15 15 0 8 -4 14 -8
13 -10 -4 -82 69 -82 82 0 5 -7 7 -15 4 -9 -4 -15 0 -15 9 0 8 -7 18 -16 21
-8 3 -13 10 -10 15 3 5 -3 11 -14 14 -11 3 -20 13 -20 22 0 10 -5 13 -12 9 -6
-4 -8 -3 -5 3 8 13 57 23 57 12 0 -5 7 -6 15 -3 9 4 15 0 15 -10 0 -9 7 -16
15 -16 8 0 15 -7 15 -15 0 -8 7 -15 15 -15 8 0 15 -7 15 -15 0 -8 7 -15 15
-15 8 0 15 -9 15 -20 0 -13 5 -18 15 -14 9 4 15 0 15 -10 0 -9 7 -16 15 -16 8
0 15 -7 15 -15 0 -8 7 -15 15 -15 8 0 15 -8 16 -17 0 -15 2 -15 9 2 12 27 12
37 1 31 -5 -4 -21 7 -34 24 -14 16 -30 30 -36 30 -6 0 -11 7 -11 15 0 8 -7 15
-15 15 -8 0 -15 5 -15 10 0 13 -37 50 -51 50 -6 0 -9 8 -7 18 4 24 68 31 68 7
0 -9 6 -15 12 -13 7 3 13 13 13 24 0 13 8 20 27 22 33 4 68 -13 68 -33 0 -8 3
-14 8 -13 11 4 52 -35 52 -49 0 -7 7 -10 15 -7 10 4 15 0 15 -15 0 -13 5 -19
14 -15 17 7 9 44 -10 44 -8 0 -14 6 -14 14 0 7 -9 16 -21 19 -12 3 -18 10 -14
16 3 6 -1 11 -9 11 -16 0 -22 21 -9 33 13 14 63 7 63 -8z m-366 -98 c20 -20
36 -40 36 -46 0 -6 7 -11 15 -11 8 0 15 -4 15 -10 0 -13 37 -50 50 -50 6 0 10
-7 10 -15 0 -8 7 -15 15 -15 8 0 15 -6 15 -13 0 -8 12 -20 28 -27 15 -8 28
-15 30 -16 9 -5 -20 -44 -33 -44 -8 0 -19 -8 -24 -18 -17 -32 -102 -113 -112
-107 -5 4 -9 0 -9 -7 0 -15 -103 -108 -119 -108 -6 0 -11 7 -11 15 0 8 -7 15
-15 15 -8 0 -15 6 -15 14 0 7 -11 22 -25 32 -14 10 -25 24 -25 31 0 7 -6 13
-13 13 -14 0 -47 35 -47 51 0 5 -5 7 -10 4 -6 -3 -14 4 -19 17 -6 13 -10 19
-10 14 -1 -13 -81 70 -81 84 0 6 -4 8 -10 5 -16 -10 -12 -45 5 -45 8 0 15 -7
15 -15 0 -8 7 -15 15 -15 8 0 15 -7 15 -15 0 -8 7 -15 15 -15 8 0 15 -7 15
-15 0 -8 3 -14 8 -12 9 3 52 -40 52 -54 0 -5 5 -7 11 -4 6 4 13 -2 16 -14 3
-11 9 -18 14 -15 5 3 9 -4 9 -15 0 -14 5 -19 15 -15 10 4 15 0 15 -15 0 -12 6
-21 15 -21 8 0 15 -4 15 -10 0 -5 7 -10 15 -10 8 0 15 -3 15 -6 0 -11 -157
-164 -169 -164 -6 0 -11 9 -11 20 0 13 -5 18 -15 14 -10 -4 -15 0 -15 14 0 15
-5 18 -24 15 -23 -5 -23 -6 17 -45 l42 -40 -24 -19 c-25 -20 -41 -22 -42 -4 0
6 -9 13 -19 17 -11 4 -18 13 -16 20 1 7 1 10 -1 5 -8 -13 -23 3 -23 24 0 10
-7 19 -15 19 -8 0 -15 5 -15 10 0 6 -7 10 -15 10 -8 0 -15 7 -15 15 0 8 -7 15
-15 15 -8 0 -15 7 -15 15 0 8 -6 14 -12 13 -7 -2 -14 7 -16 20 -2 12 -8 20
-13 16 -11 -7 -49 29 -49 46 0 5 -7 10 -15 10 -8 0 -15 7 -15 15 0 8 -7 15
-15 15 -8 0 -15 5 -15 10 0 6 -9 19 -20 30 -11 11 -24 20 -30 20 -5 0 -10 7
-10 15 0 8 -6 14 -12 13 -7 -2 -12 5 -12 15 1 9 -4 17 -12 17 -8 0 -14 7 -14
15 0 8 -7 15 -16 15 -8 0 -22 6 -30 14 -12 13 -11 17 8 30 29 20 48 20 48 0 0
-8 5 -12 10 -9 6 3 10 -1 10 -9 0 -9 5 -16 10 -16 14 0 50 -37 50 -51 0 -6 7
-9 15 -5 10 4 15 -1 15 -14 0 -11 7 -20 15 -20 8 0 15 -7 15 -15 0 -8 7 -15
15 -15 8 0 15 -7 15 -16 0 -8 5 -12 11 -9 6 4 13 -2 16 -13 3 -13 11 -18 19
-15 8 3 14 -1 14 -10 0 -8 7 -17 15 -21 8 -3 15 -13 15 -21 0 -9 5 -13 11 -10
6 4 13 -2 16 -14 3 -12 12 -21 19 -21 8 0 14 -7 14 -15 0 -8 7 -15 15 -15 8 0
15 -7 15 -15 0 -8 9 -15 20 -15 11 0 20 5 20 10 0 6 -4 10 -10 10 -5 0 -10 7
-10 15 0 8 -7 15 -15 15 -8 0 -15 9 -15 20 0 13 -5 18 -15 14 -10 -4 -15 0
-15 15 0 14 -5 19 -15 15 -9 -4 -15 0 -15 10 0 9 -7 16 -15 16 -8 0 -15 7 -15
15 0 8 -7 15 -15 15 -8 0 -15 7 -15 15 0 8 -7 15 -15 15 -8 0 -15 7 -15 15 0
8 -7 15 -15 15 -8 0 -15 7 -15 15 0 9 -6 12 -15 9 -10 -4 -15 0 -15 15 0 12
-6 21 -15 21 -8 0 -15 7 -15 15 0 8 -7 15 -15 15 -8 0 -15 7 -15 15 0 9 -6 12
-15 9 -10 -4 -15 0 -15 16 0 11 -4 19 -9 15 -16 -9 -24 15 -11 30 16 20 60 20
60 0 0 -8 7 -15 15 -15 8 0 15 -9 15 -20 0 -13 5 -18 15 -14 9 4 15 0 15 -10
0 -9 7 -16 15 -16 8 0 15 -7 15 -15 0 -8 7 -15 15 -15 8 0 15 -7 15 -16 0 -8
5 -12 11 -9 6 4 13 -2 16 -14 3 -12 12 -21 19 -21 8 0 14 -7 14 -15 0 -8 7
-15 15 -15 8 0 15 -7 15 -16 0 -8 5 -12 11 -9 6 4 13 -2 16 -14 3 -11 10 -18
15 -15 5 3 12 -3 15 -15 3 -12 12 -21 19 -21 8 0 14 -4 14 -10 0 -5 7 -10 15
-10 8 0 15 -9 15 -20 0 -11 7 -20 15 -20 8 0 15 -7 15 -15 0 -8 5 -15 10 -15
6 0 10 -7 10 -16 0 -10 5 -14 15 -10 9 3 18 -1 21 -9 9 -22 23 -18 21 5 -1 11
-5 20 -9 20 -14 0 -48 40 -48 56 0 14 -3 14 -15 4 -13 -11 -15 -8 -15 13 0 19
-4 25 -15 21 -9 -4 -15 0 -15 10 0 9 -7 16 -15 16 -8 0 -15 7 -15 15 0 8 -7
15 -15 15 -8 0 -15 9 -15 21 0 11 -5 17 -10 14 -6 -3 -13 1 -16 9 -3 9 -12 16
-20 16 -8 0 -14 7 -14 16 0 8 -5 12 -11 9 -6 -4 -13 2 -16 14 -3 12 -12 21
-19 21 -8 0 -14 6 -14 13 0 7 -10 17 -22 22 -13 6 -27 19 -33 31 -6 11 -16 19
-23 16 -7 -2 -12 5 -12 18 0 12 -4 19 -8 16 -17 -10 -29 9 -21 32 10 28 44 29
61 2 7 -11 18 -20 25 -20 7 0 13 -7 13 -15 0 -8 7 -15 15 -15 8 0 15 -7 15
-15 0 -8 4 -15 9 -15 14 0 81 -66 81 -79 0 -7 5 -9 11 -6 6 4 13 -2 16 -14 3
-12 12 -21 19 -21 8 0 14 -4 14 -10 0 -5 7 -10 15 -10 8 0 15 -9 15 -21 0 -12
4 -17 11 -14 6 4 13 -2 16 -14 3 -11 9 -18 14 -15 5 3 9 -1 9 -9 0 -8 9 -17
20 -20 11 -3 20 -13 20 -22 0 -9 5 -13 11 -10 6 4 13 -2 16 -14 3 -12 9 -21
14 -21 5 0 9 -7 9 -15 0 -8 5 -15 10 -15 6 0 10 14 10 30 0 19 -5 29 -12 28
-8 -2 -12 5 -11 17 1 11 0 14 -3 7 -4 -9 -13 -5 -30 13 -13 14 -24 30 -24 36
0 5 -7 9 -15 9 -8 0 -15 9 -15 21 0 11 -5 17 -10 14 -6 -3 -13 1 -16 9 -3 9
-12 16 -20 16 -8 0 -14 7 -14 15 0 8 -7 15 -15 15 -8 0 -15 7 -15 15 0 8 -7
15 -15 15 -8 0 -15 7 -15 15 0 8 -5 15 -10 15 -6 0 -22 12 -36 28 -14 15 -29
25 -32 22 -4 -3 -8 5 -10 18 -2 12 -9 22 -17 22 -7 0 -16 7 -19 16 -3 8 -10
12 -16 9 -5 -3 -10 1 -10 9 0 9 -4 16 -10 16 -18 0 -10 16 15 30 22 12 27 11
49 -13 14 -15 30 -27 36 -27 5 0 10 -7 10 -15 0 -8 7 -15 15 -15 8 0 15 -7 15
-16 0 -9 6 -14 13 -11 6 2 11 7 10 10 -2 4 -3 14 -3 22 0 8 -7 15 -15 15 -8 0
-15 5 -15 10 0 6 -7 10 -15 10 -8 0 -15 7 -15 15 0 8 -7 15 -15 15 -21 0 -19
27 3 33 9 2 25 8 35 12 12 5 17 2 17 -9 0 -9 7 -16 15 -16 8 0 15 -7 15 -15 0
-8 5 -15 10 -15 13 0 50 -37 50 -51 0 -5 5 -7 10 -4 6 3 13 -2 17 -12 12 -33
53 -47 53 -18 0 8 -7 15 -15 15 -8 0 -15 7 -15 16 0 8 -5 12 -10 9 -6 -3 -13
1 -16 9 -3 9 -11 16 -16 16 -13 0 -47 41 -48 57 0 7 -7 10 -15 7 -18 -7 -20 7
-3 24 17 17 58 15 58 -3 0 -9 6 -12 15 -9 8 4 15 1 15 -5 0 -13 67 -81 80 -81
6 0 10 -5 10 -11 0 -7 11 -22 25 -35 14 -13 25 -28 25 -34 0 -5 6 -10 13 -10
15 0 47 -35 47 -51 0 -6 7 -9 15 -5 10 4 15 -1 15 -14 0 -11 5 -20 10 -20 6 0
21 -11 34 -25 27 -29 36 -31 36 -10 0 17 -36 56 -44 48 -3 -3 -9 2 -13 12 -7
19 -39 55 -48 55 -11 0 -45 35 -45 47 0 7 -6 12 -12 11 -7 -2 -12 3 -10 10 1
7 -5 15 -13 18 -8 4 -15 12 -15 20 0 8 -6 11 -15 8 -8 -4 -15 -2 -15 3 0 5
-13 23 -30 39 -16 16 -30 34 -30 41 0 7 -7 10 -15 7 -28 -11 -15 15 15 31 27
14 31 14 36 0 3 -8 12 -15 20 -15 8 0 14 -6 14 -14 0 -8 7 -17 16 -20 8 -3 12
-11 8 -17 -4 -7 -1 -10 7 -7 20 7 24 38 5 38 -9 0 -16 7 -16 15 0 8 -7 15 -15
15 -27 0 -16 28 15 39 25 8 32 7 37 -4 3 -8 10 -15 16 -15 6 0 7 3 4 7 -4 3
-1 13 5 21 19 22 72 8 112 -31z m-794 -283 c0 -8 6 -14 13 -14 14 0 47 -35 47
-50 0 -6 7 -10 15 -10 8 0 15 -7 15 -15 0 -8 7 -15 15 -15 8 0 15 -7 15 -15 0
-8 7 -15 15 -15 8 0 15 -7 15 -16 0 -8 5 -12 11 -9 6 4 13 -2 16 -14 3 -11 10
-18 15 -15 5 3 12 -3 15 -15 3 -11 9 -19 13 -16 5 3 12 -4 15 -16 4 -12 12
-18 21 -15 9 3 14 -1 14 -14 0 -11 5 -20 11 -20 13 0 33 -20 42 -43 3 -9 11
-16 16 -15 5 2 20 -9 34 -24 14 -16 31 -28 38 -28 6 0 9 -7 5 -15 -4 -10 1
-15 15 -15 15 0 19 -5 15 -15 -3 -9 0 -15 9 -15 24 0 17 -13 -32 -55 -25 -22
-62 -57 -81 -77 -40 -43 -52 -47 -52 -17 0 11 -4 18 -8 15 -10 -6 -58 45 -54
57 1 4 -5 7 -13 7 -8 0 -15 7 -15 16 0 10 -6 14 -15 10 -10 -4 -15 1 -15 14 0
11 -6 20 -13 20 -15 0 -47 35 -47 53 0 8 -3 7 -10 -3 -8 -12 -10 -12 -16 4 -9
22 -71 86 -84 86 -6 0 -10 7 -10 15 0 8 -4 15 -10 15 -5 0 -10 6 -10 14 0 7
-9 16 -20 19 -13 3 -18 10 -14 21 4 11 1 16 -11 16 -18 0 -45 23 -45 39 0 6
-7 11 -15 11 -8 0 -15 6 -15 14 0 14 -29 31 -37 22 -8 -7 21 -46 34 -46 7 0
13 -6 13 -14 0 -8 7 -16 15 -20 8 -3 15 -10 15 -16 0 -16 35 -47 48 -42 7 2
12 -6 12 -17 0 -12 5 -21 10 -21 6 0 10 -7 10 -16 0 -10 6 -14 15 -10 9 3 15
0 15 -9 0 -8 7 -15 15 -15 9 0 18 -7 22 -17 8 -19 122 -133 135 -133 4 0 8 -7
8 -15 0 -8 5 -15 10 -15 6 0 10 -7 10 -15 0 -8 7 -15 15 -15 9 0 18 -7 21 -15
4 -8 12 -15 20 -15 8 0 14 -7 14 -15 0 -8 5 -15 12 -15 6 0 3 -9 -7 -20 -21
-23 -55 -27 -55 -5 0 8 -4 15 -10 15 -5 0 -10 7 -10 15 0 8 -7 15 -15 15 -8 0
-15 7 -15 15 0 8 -7 15 -15 15 -8 0 -15 7 -15 15 0 8 -7 15 -15 15 -8 0 -15 7
-15 15 0 9 -6 12 -15 9 -10 -4 -15 0 -15 15 0 14 -5 19 -15 15 -10 -4 -15 0
-15 15 0 12 -6 21 -15 21 -8 0 -15 5 -15 10 0 6 -7 10 -15 10 -8 0 -15 5 -15
11 0 7 -11 22 -25 35 -14 13 -25 27 -25 31 0 5 -10 13 -22 18 -13 6 -27 20
-33 33 -5 12 -15 22 -22 22 -7 0 -13 7 -13 15 0 8 -6 14 -12 13 -7 -2 -14 7
-16 20 -2 12 -8 20 -13 16 -6 -3 -13 3 -16 14 -3 13 -11 18 -19 15 -8 -3 -14
1 -14 11 0 9 -4 16 -10 16 -5 0 -10 -12 -10 -26 0 -19 4 -25 15 -20 10 4 15
-1 15 -14 0 -11 5 -20 10 -20 14 0 50 -37 50 -51 0 -6 8 -9 19 -6 14 3 17 0
14 -14 -4 -15 -1 -18 11 -13 10 4 16 1 16 -7 1 -8 14 -25 30 -39 17 -13 30
-30 30 -38 0 -7 5 -10 10 -7 6 3 10 -3 10 -14 0 -14 5 -19 15 -15 8 4 15 1 15
-5 0 -14 36 -51 50 -51 6 0 10 -7 10 -15 0 -8 7 -15 15 -15 8 0 15 -4 15 -10
0 -13 37 -50 50 -50 6 0 10 -7 10 -15 0 -8 3 -14 8 -13 14 5 50 -35 44 -50 -3
-10 -1 -13 6 -8 7 4 12 1 12 -8 0 -8 -9 -20 -19 -26 -25 -13 -31 -13 -31 0 0
13 -37 50 -50 50 -5 0 -10 7 -10 15 0 8 -7 15 -15 15 -8 0 -15 7 -15 15 0 8
-7 15 -15 15 -8 0 -15 7 -15 16 0 8 -5 12 -11 9 -6 -4 -13 3 -16 15 -3 13 -11
19 -19 16 -8 -3 -14 1 -14 10 0 18 -23 44 -39 44 -6 0 -11 7 -11 15 0 9 -7 18
-15 21 -8 4 -15 13 -15 21 0 8 -5 11 -11 8 -6 -4 -13 2 -16 13 -3 13 -11 18
-19 15 -8 -3 -14 0 -14 6 0 14 -36 51 -50 51 -5 0 -10 9 -10 20 0 13 -5 18
-15 14 -9 -4 -15 0 -15 10 0 9 -7 16 -16 16 -10 0 -14 6 -11 14 4 10 1 13 -9
9 -7 -3 -14 0 -14 5 0 6 -14 24 -31 40 l-32 30 28 18 c27 17 28 17 42 -2 15
-18 15 -18 10 4 -6 25 30 76 39 54 8 -17 24 -5 24 18 0 11 11 22 31 29 27 9
32 8 36 -9 3 -11 12 -20 19 -20 8 0 14 -7 14 -15 0 -8 3 -14 8 -13 11 4 52
-35 52 -49 0 -7 5 -13 11 -13 13 0 33 -20 42 -42 3 -10 13 -18 22 -18 8 0 15
-7 15 -15 0 -8 5 -15 10 -15 6 0 10 -7 10 -15 0 -8 7 -15 15 -15 8 0 15 -7 15
-15 0 -9 6 -12 15 -9 9 4 15 0 15 -9 0 -8 7 -17 15 -21 8 -3 15 -12 15 -20 0
-10 6 -13 15 -10 8 4 15 1 15 -5 0 -12 108 -121 121 -121 5 0 11 -11 15 -25 3
-14 10 -25 15 -25 5 0 9 11 9 25 0 14 -4 25 -10 25 -5 0 -10 7 -10 15 0 9 -6
12 -15 9 -10 -4 -15 0 -15 16 0 12 -4 18 -11 15 -6 -4 -13 2 -16 14 -3 12 -9
21 -14 21 -12 0 -49 38 -49 50 0 5 -7 7 -15 4 -8 -4 -15 -1 -15 5 0 14 -36 51
-50 51 -5 0 -10 7 -10 15 0 8 -7 15 -15 15 -8 0 -15 7 -15 15 0 8 -4 15 -9 15
-5 0 -12 9 -16 20 -3 11 -9 19 -13 17 -11 -3 -51 36 -46 45 3 4 -2 8 -10 8
-10 0 -16 9 -17 23 0 12 -3 16 -6 10 -8 -20 -23 -15 -23 7 0 11 -7 20 -15 20
-8 0 -15 7 -15 16 0 8 -5 12 -10 9 -6 -3 -15 6 -21 22 -8 23 -7 30 8 41 15 11
20 10 29 -3 6 -8 16 -15 23 -15 6 0 11 -7 11 -15 0 -8 7 -15 16 -15 11 0 14 5
10 16 -3 9 -6 20 -6 25 0 5 -9 9 -21 9 -26 0 -20 21 11 37 27 13 40 9 40 -13z
m-350 -234 c0 -11 3 -19 8 -18 9 3 82 -69 82 -82 0 -5 7 -7 15 -4 10 4 15 0
15 -15 0 -12 3 -20 8 -18 4 1 40 -31 80 -70 40 -40 77 -73 83 -73 5 0 9 -7 9
-15 0 -8 5 -15 10 -15 6 0 10 -7 10 -15 0 -8 7 -15 15 -15 8 0 15 -7 15 -15 0
-8 7 -15 15 -15 8 0 15 -7 15 -15 0 -8 7 -15 15 -15 8 0 15 -7 15 -15 0 -13
12 -19 32 -16 4 0 5 -6 1 -15 -3 -8 -1 -14 4 -12 5 2 24 -12 42 -30 l33 -33
-22 -19 c-30 -26 -40 -25 -41 3 l0 22 -10 -24 c-6 -16 -6 -28 2 -37 8 -9 4
-17 -15 -29 -25 -16 -52 -13 -41 6 4 5 -1 9 -9 9 -9 0 -16 7 -16 15 0 8 -7 15
-15 15 -8 0 -15 9 -15 21 0 11 -4 18 -8 15 -9 -6 -42 29 -42 44 0 6 -9 10 -20
10 -11 0 -20 7 -20 15 0 8 -4 15 -10 15 -5 0 -10 7 -10 15 0 8 -7 15 -15 15
-8 0 -15 7 -15 15 0 8 -6 15 -13 15 -14 0 -47 35 -47 51 0 5 -5 7 -11 4 -6 -4
-13 3 -16 15 -3 13 -11 19 -19 16 -9 -4 -14 2 -14 15 0 11 -5 17 -10 14 -6 -3
-13 1 -16 9 -3 9 -10 14 -14 11 -5 -3 -11 4 -15 15 -3 11 -13 20 -21 20 -8 0
-14 7 -14 15 0 8 -7 15 -16 15 -10 0 -14 6 -10 15 4 10 -1 15 -14 15 -12 0
-20 7 -20 18 0 14 -2 15 -10 2 -12 -18 -13 -41 -2 -37 9 3 52 -40 52 -53 0 -5
7 -7 15 -4 10 4 15 0 15 -10 0 -9 7 -19 15 -22 8 -4 15 -12 15 -20 0 -8 7 -14
15 -14 8 0 15 -4 15 -10 0 -5 7 -10 15 -10 8 0 15 -7 15 -15 0 -8 7 -15 15
-15 8 0 15 -7 15 -15 0 -8 7 -15 15 -15 8 0 15 -7 15 -15 0 -8 7 -15 15 -15 8
0 15 -7 15 -15 0 -8 7 -15 15 -15 8 0 15 -7 15 -16 0 -8 5 -12 11 -9 6 4 13
-2 16 -14 3 -12 12 -21 19 -21 8 0 14 -7 14 -15 0 -8 5 -15 11 -15 11 0 39
-24 39 -34 0 -3 19 -24 42 -47 l43 -41 -24 -19 c-30 -24 -41 -24 -41 1 0 13
-5 18 -15 14 -9 -4 -15 0 -15 9 0 8 -7 18 -16 21 -8 3 -12 10 -9 16 3 5 0 10
-7 10 -15 0 -54 41 -50 53 1 4 -5 7 -13 7 -8 0 -15 7 -15 15 0 8 -9 15 -20 15
-11 0 -20 7 -20 15 0 8 -4 15 -10 15 -5 0 -10 7 -10 15 0 8 -7 15 -15 15 -8 0
-15 7 -15 15 0 8 -7 15 -15 15 -8 0 -15 7 -15 15 0 8 -7 15 -15 15 -8 0 -15 7
-15 16 0 8 -5 12 -10 9 -6 -3 -14 4 -19 17 l-8 23 -7 -22 c-7 -22 22 -63 44
-63 6 0 10 -7 10 -15 0 -8 7 -15 15 -15 8 0 15 -7 15 -15 0 -8 7 -15 15 -15 8
0 15 -7 15 -15 0 -8 5 -15 10 -15 13 0 50 -37 50 -51 0 -5 4 -8 9 -4 5 3 13
-4 16 -16 4 -11 9 -18 12 -15 3 2 18 -9 34 -25 15 -16 33 -29 39 -29 5 0 10
-7 10 -15 0 -8 4 -15 9 -15 5 0 11 -10 14 -22 7 -27 -22 -66 -34 -46 -4 7 -5
16 -2 22 4 5 -1 7 -11 3 -12 -5 -19 0 -25 16 -5 12 -12 20 -16 17 -4 -3 -15 9
-24 25 -9 17 -23 30 -31 30 -8 0 -14 6 -12 13 1 6 -5 12 -13 12 -8 0 -15 9
-15 20 0 11 -7 20 -15 20 -8 0 -15 5 -15 10 0 6 -6 10 -14 10 -8 0 -16 7 -20
15 -3 8 -12 15 -20 15 -10 0 -13 6 -10 15 4 9 0 15 -10 15 -9 0 -16 7 -16 15
0 8 -7 15 -15 15 -8 0 -15 7 -15 15 0 8 -7 15 -15 15 -8 0 -15 7 -15 16 0 8
-5 12 -11 9 -6 -4 -13 2 -16 14 -3 11 -9 19 -13 16 -5 -3 -11 4 -15 15 -3 11
-12 19 -18 17 -7 -1 -11 6 -9 16 2 13 -2 17 -15 15 -12 -2 -18 3 -17 14 1 10
-3 15 -8 12 -13 -8 -48 30 -49 53 0 15 -2 14 -11 -5 -10 -20 -7 -27 23 -57 19
-19 40 -35 47 -35 6 0 12 -7 12 -15 0 -8 5 -15 10 -15 6 0 10 -9 10 -19 0 -15
5 -18 22 -13 17 4 20 2 15 -11 -4 -11 -1 -17 8 -17 8 0 15 -7 15 -15 0 -8 7
-15 15 -15 8 0 15 -7 15 -16 0 -10 6 -14 15 -10 10 4 15 -1 15 -14 0 -11 7
-20 15 -20 8 0 15 -7 15 -15 0 -8 7 -15 15 -15 8 0 15 -7 15 -15 0 -9 6 -12
15 -9 10 4 15 0 15 -16 0 -11 4 -19 8 -16 5 3 19 -8 32 -25 14 -16 30 -29 37
-29 7 0 13 -7 13 -15 0 -8 7 -15 15 -15 8 0 15 -9 15 -21 0 -11 5 -17 10 -14
6 3 10 -1 10 -9 0 -9 7 -16 15 -16 7 0 18 -8 24 -17 12 -23 -4 -53 -29 -53
-13 0 -20 -7 -20 -18 0 -10 -13 -28 -30 -40 l-30 -23 0 26 c0 14 -5 25 -11 25
-16 0 -39 26 -39 44 0 9 -7 16 -15 16 -8 0 -15 7 -15 16 0 9 -5 14 -12 12 -13
-5 -48 26 -48 42 0 6 -7 10 -15 10 -8 0 -15 9 -15 19 0 14 -5 18 -20 14 -16
-4 -19 -2 -14 11 4 11 1 16 -10 16 -9 0 -16 7 -16 15 0 8 -7 15 -15 15 -8 0
-15 9 -15 21 0 11 -4 18 -9 15 -4 -3 -19 8 -31 24 -13 17 -29 30 -36 30 -8 0
-14 5 -14 11 0 6 -11 20 -25 31 -14 11 -25 26 -25 34 0 8 -9 14 -20 14 -11 0
-19 6 -18 13 2 6 -3 11 -9 9 -7 -1 -13 7 -13 19 0 11 -5 17 -10 14 -6 -3 -14
4 -19 17 -6 13 -10 19 -10 15 -1 -5 -6 -5 -12 -2 -15 10 19 45 43 45 10 0 18
-7 18 -15 0 -8 7 -15 15 -15 8 0 15 -7 15 -15 0 -8 5 -15 10 -15 6 0 10 11 10
25 0 17 -4 23 -14 19 -9 -3 -21 5 -31 20 -14 21 -15 29 -5 41 7 8 18 15 24 14
26 -3 35 2 30 16 -4 9 14 34 45 66 43 43 53 50 66 39 8 -7 15 -20 15 -28 0
-13 2 -14 13 -3 10 10 7 16 -11 31 -23 19 -23 19 -3 37 99 92 111 99 111 63z
m-350 -355 c0 -8 7 -15 15 -15 8 0 15 -7 15 -15 0 -8 7 -15 15 -15 8 0 15 -7
15 -15 0 -8 7 -15 15 -15 8 0 15 -7 15 -15 0 -8 7 -15 15 -15 8 0 15 -7 15
-15 0 -8 5 -15 10 -15 6 0 10 -7 10 -15 0 -8 9 -15 21 -15 11 0 18 -4 15 -8
-6 -9 29 -42 44 -42 6 0 10 -9 10 -20 0 -11 7 -20 15 -20 8 0 15 -7 15 -16 0
-8 5 -12 10 -9 6 3 13 -1 16 -9 3 -9 12 -16 20 -16 8 0 14 -9 14 -20 0 -11 7
-20 15 -20 8 0 15 -7 15 -16 0 -8 5 -12 10 -9 6 3 10 -1 10 -9 0 -9 7 -16 15
-16 9 0 18 -7 21 -15 4 -8 12 -15 20 -15 8 0 14 -4 14 -10 0 -14 32 -50 45
-50 6 0 12 -13 13 -30 2 -20 -4 -32 -18 -40 -17 -9 -20 -8 -20 10 0 11 -7 20
-15 20 -8 0 -15 7 -15 15 0 8 -6 15 -13 15 -14 0 -47 35 -47 50 0 5 -7 7 -15
4 -10 -4 -15 0 -15 15 0 12 -4 20 -9 19 -5 -2 -20 9 -34 25 -14 15 -31 27 -37
27 -5 0 -10 9 -10 21 0 11 -4 18 -9 15 -5 -3 -19 8 -32 24 -13 16 -30 30 -36
30 -7 0 -13 9 -13 21 0 11 -4 18 -8 15 -9 -6 -42 29 -42 44 0 6 -6 10 -13 10
-14 0 -47 35 -47 50 0 6 -7 10 -15 10 -8 0 -15 7 -15 15 0 8 -7 15 -15 15 -8
0 -15 7 -15 15 0 8 -7 15 -15 15 -8 0 -15 7 -15 16 0 8 -4 12 -10 9 -5 -3 -10
-15 -10 -26 0 -10 5 -19 10 -19 13 0 50 -37 50 -50 0 -5 7 -10 15 -10 8 0 15
-7 15 -15 0 -8 7 -15 15 -15 8 0 15 -7 15 -15 0 -8 7 -15 15 -15 8 0 15 -7 15
-16 0 -8 5 -12 10 -9 6 3 13 -2 17 -11 10 -27 35 -54 45 -48 4 3 8 -2 8 -10 0
-9 7 -16 15 -16 8 0 15 -7 15 -15 0 -8 7 -15 15 -15 8 0 15 -9 15 -20 0 -13 5
-18 15 -14 9 4 15 0 15 -10 0 -9 7 -16 15 -16 8 0 15 -7 15 -15 0 -8 7 -15 15
-15 8 0 15 -6 15 -14 0 -8 7 -17 16 -20 8 -3 12 -10 9 -16 -3 -5 3 -10 14 -10
12 0 21 -7 21 -15 0 -8 7 -15 15 -15 8 0 15 -7 15 -15 0 -8 6 -15 14 -15 31 0
29 -55 -3 -65 -10 -3 -27 -19 -39 -35 -26 -35 -42 -38 -42 -9 0 11 -4 18 -9
14 -11 -6 -81 59 -81 75 0 5 -7 7 -15 4 -10 -4 -15 0 -15 15 0 12 -4 21 -10
21 -13 0 -50 37 -50 50 0 6 -4 10 -10 10 -18 0 -48 33 -43 46 3 9 -2 14 -16
14 -12 0 -21 6 -21 14 0 7 -9 16 -20 19 -11 3 -23 13 -26 22 -9 22 -71 85 -84
85 -6 0 -10 7 -10 16 0 10 -6 14 -15 10 -10 -4 -15 1 -15 15 0 11 -4 18 -9 14
-5 -3 -12 4 -16 15 -3 11 -13 20 -21 20 -18 0 -17 20 2 45 11 14 18 16 21 8 3
-7 11 -13 19 -13 8 0 14 -7 14 -15 0 -8 7 -15 15 -15 8 0 15 -7 15 -15 0 -8 7
-15 15 -15 8 0 15 -4 15 -10 0 -5 7 -10 15 -10 8 0 15 -9 15 -21 0 -11 4 -18
8 -15 5 3 19 -8 31 -24 12 -17 28 -30 36 -30 8 0 15 -9 15 -21 0 -11 5 -17 10
-14 6 3 10 -1 10 -9 0 -9 7 -16 15 -16 8 0 15 -7 15 -15 0 -8 7 -15 15 -15 8
0 15 -4 15 -10 0 -13 37 -50 50 -50 6 0 10 -7 10 -15 0 -8 7 -15 15 -15 8 0
15 -7 15 -15 0 -8 7 -15 15 -15 8 0 15 -7 15 -16 0 -8 5 -12 10 -9 6 3 13 -2
17 -12 9 -23 28 -43 42 -43 6 0 11 -8 12 -17 0 -15 2 -15 8 2 6 13 4 23 -6 28
-7 5 -10 13 -7 19 5 7 2 8 -5 4 -8 -5 -14 0 -18 13 -3 12 -12 21 -19 21 -8 0
-14 7 -14 15 0 8 -4 15 -10 15 -15 0 -50 33 -50 48 0 7 -5 10 -11 7 -6 -4 -13
2 -16 14 -3 12 -12 21 -19 21 -8 0 -14 7 -14 15 0 8 -7 15 -15 15 -8 0 -15 5
-15 10 0 6 -7 10 -15 10 -8 0 -15 7 -15 15 0 8 -4 15 -10 15 -5 0 -10 9 -10
20 0 13 -7 20 -20 20 -11 0 -20 5 -20 10 0 6 -7 10 -16 10 -10 0 -14 6 -10 15
3 9 0 15 -9 15 -8 0 -15 9 -15 20 0 13 -5 18 -15 14 -9 -4 -15 0 -15 10 0 9
-7 16 -15 16 -8 0 -15 7 -15 16 0 8 -5 12 -11 9 -6 -4 -13 2 -16 14 -3 12 -13
21 -25 21 -27 0 -16 32 30 88 35 42 62 54 62 27z m-150 -200 c0 -9 7 -18 15
-21 8 -4 15 -12 15 -20 0 -8 7 -14 15 -14 8 0 15 -7 15 -15 0 -8 5 -15 11 -15
7 0 22 -11 35 -25 13 -14 28 -25 34 -25 5 0 10 -9 10 -20 0 -11 4 -19 8 -17
11 3 102 -88 102 -102 0 -6 7 -11 15 -11 8 0 15 -7 15 -15 0 -8 5 -15 10 -15
13 0 50 -37 50 -50 0 -5 7 -10 15 -10 8 0 15 -7 15 -15 0 -8 7 -15 15 -15 8 0
15 -7 15 -15 0 -8 7 -15 15 -15 8 0 15 -7 15 -15 0 -8 5 -14 11 -13 6 2 15 -7
20 -19 6 -18 4 -26 -13 -37 -22 -15 -43 -12 -33 5 4 5 -1 9 -9 9 -10 0 -16 9
-16 23 0 18 -2 19 -10 7 -8 -13 -11 -11 -16 8 -4 12 -13 22 -20 22 -8 0 -14 7
-14 15 0 8 -7 15 -15 15 -8 0 -15 7 -15 15 0 8 -7 15 -15 15 -8 0 -15 7 -15
16 0 8 -4 12 -10 9 -5 -3 -10 3 -10 14 0 14 -6 21 -20 21 -11 0 -20 6 -20 14
0 8 -7 17 -16 20 -9 3 -12 11 -8 18 5 8 2 9 -9 5 -13 -5 -17 -1 -17 16 0 18
-2 19 -10 7 -15 -24 -12 -50 5 -44 8 4 15 1 15 -5 0 -16 32 -51 47 -51 7 0 13
-6 13 -14 0 -8 7 -17 16 -20 8 -3 12 -10 9 -16 -3 -5 1 -10 9 -10 9 0 16 -7
16 -15 0 -9 6 -12 15 -9 9 4 15 0 15 -9 0 -8 7 -17 15 -21 8 -3 15 -12 15 -21
0 -8 7 -15 15 -15 8 0 15 -7 15 -16 0 -8 5 -12 10 -9 6 3 10 0 10 -9 0 -8 6
-16 13 -19 8 -3 7 -10 -7 -26 -22 -25 -36 -27 -36 -6 0 8 -7 15 -15 15 -8 0
-15 7 -15 15 0 8 -7 15 -15 15 -8 0 -15 9 -15 20 0 13 -5 18 -15 14 -9 -4 -15
0 -15 10 0 9 -6 16 -12 16 -7 0 -22 14 -33 30 -11 16 -26 30 -34 30 -8 0 -11
6 -7 15 3 9 0 15 -9 15 -8 0 -15 7 -15 15 0 8 -7 15 -15 15 -8 0 -15 7 -15 15
0 8 -7 15 -15 15 -8 0 -15 7 -15 15 0 8 -7 15 -15 15 -8 0 -15 7 -15 15 0 9
-6 12 -15 9 -9 -4 -15 0 -15 9 0 8 -7 17 -15 21 -8 3 -15 13 -15 21 0 9 -5 13
-10 10 -6 -3 -13 1 -16 9 -3 8 -14 18 -25 21 -11 4 -16 11 -13 17 5 7 2 8 -5
4 -8 -5 -14 0 -18 13 -3 12 -12 21 -19 21 -20 0 -17 33 6 63 11 14 20 30 20
36 0 10 39 41 52 41 5 0 8 -7 8 -15z m-70 -172 c9 -18 20 -30 23 -26 4 3 9 -2
13 -11 3 -9 12 -16 20 -16 8 0 14 -7 14 -15 0 -8 7 -15 15 -15 8 0 15 -9 15
-20 0 -13 5 -18 15 -14 9 4 15 0 15 -10 0 -9 7 -16 15 -16 8 0 15 -7 15 -15 0
-8 7 -15 15 -15 8 0 15 -7 15 -15 0 -8 7 -15 15 -15 8 0 15 -5 15 -10 0 -15
64 -80 79 -80 6 0 11 -7 11 -15 0 -8 5 -15 10 -15 6 0 10 -7 10 -15 0 -8 5
-15 11 -15 14 0 39 -25 39 -39 0 -6 7 -11 15 -11 9 0 20 -10 25 -22 7 -18 4
-27 -13 -42 -22 -18 -22 -18 -25 3 -2 12 -8 19 -13 16 -5 -4 -12 1 -15 9 -8
22 -24 20 -24 -3 0 -10 9 -21 19 -24 15 -4 18 -11 14 -28 -7 -27 -22 -49 -33
-49 -5 0 -10 6 -13 13 -2 6 -3 4 -2 -5 3 -21 -22 -58 -40 -58 -7 0 -15 -6 -18
-12 -2 -7 -2 -1 0 15 3 15 0 27 -6 27 -6 0 -11 7 -11 15 0 9 -6 12 -15 9 -9
-4 -15 0 -15 9 0 8 -8 17 -19 20 -10 2 -24 18 -32 36 -8 17 -20 31 -26 31 -7
0 -13 4 -13 9 0 5 -9 11 -21 14 -12 3 -18 10 -14 16 3 6 -1 11 -9 11 -9 0 -16
9 -16 20 0 13 -5 18 -15 14 -9 -4 -15 0 -15 10 0 9 -7 16 -15 16 -8 0 -15 5
-15 10 0 14 -37 50 -45 42 -3 -3 -8 4 -12 16 -3 12 -10 19 -15 16 -5 -3 -12 3
-15 15 -3 12 -11 21 -19 21 -7 0 -11 6 -8 14 3 9 -1 13 -12 13 -18 -2 -35 37
-26 61 6 17 42 15 42 -3 0 -8 7 -15 15 -15 8 0 15 -4 15 -10 0 -13 32 -45 54
-53 9 -4 14 -11 11 -17 -3 -5 1 -10 9 -10 9 0 16 -7 16 -15 0 -8 7 -15 15 -15
8 0 15 -7 15 -15 0 -8 7 -15 15 -15 8 0 15 -7 15 -15 0 -8 7 -15 15 -15 8 0
15 -7 15 -16 0 -8 5 -12 10 -9 6 3 10 15 10 26 0 10 -4 19 -10 19 -5 0 -19 9
-30 20 -11 11 -20 25 -20 30 0 6 -7 10 -15 10 -8 0 -15 7 -15 15 0 8 -6 15
-13 15 -15 0 -77 64 -77 79 0 6 -7 11 -15 11 -8 0 -14 6 -12 13 1 7 -7 12 -19
11 -27 -1 -22 22 19 89 35 57 60 60 87 10z m-154 -203 c8 0 14 -7 14 -15 0 -8
7 -15 15 -15 8 0 15 -7 15 -15 0 -8 7 -15 15 -15 8 0 15 -4 15 -10 0 -10 36
-50 45 -50 9 0 45 -40 45 -50 0 -5 3 -9 8 -7 12 4 49 -38 44 -52 -3 -9 2 -11
17 -6 17 5 21 2 21 -14 0 -21 18 -24 33 -6 4 6 5 -3 1 -19 -5 -21 -4 -27 5
-22 10 6 15 -6 12 -26 0 -5 8 -8 19 -8 11 0 20 -7 20 -15 0 -8 5 -15 11 -15
34 0 52 -66 24 -90 -14 -11 -19 -7 -16 13 0 4 -5 7 -12 7 -15 0 -47 35 -47 51
0 6 -7 9 -15 5 -13 -5 -20 5 -16 27 0 4 -6 7 -14 7 -8 0 -15 7 -15 16 0 10 -6
14 -15 10 -10 -4 -15 1 -15 14 0 11 -7 20 -15 20 -9 0 -15 9 -15 21 0 15 -5
19 -15 15 -9 -3 -15 0 -15 9 0 8 -4 15 -10 15 -5 0 -10 7 -10 15 0 8 -4 15
-10 15 -5 0 -10 -4 -10 -9 0 -5 -3 -16 -6 -25 -4 -11 -1 -16 10 -16 9 0 16 -4
16 -10 0 -5 7 -10 15 -10 8 0 15 -7 15 -15 0 -17 35 -55 50 -55 6 0 10 -7 10
-15 0 -8 7 -15 15 -15 8 0 15 -7 15 -16 0 -8 4 -13 9 -9 5 3 12 -4 16 -15 4
-11 11 -18 16 -15 5 4 9 -3 9 -15 0 -14 5 -20 17 -18 10 2 19 -5 21 -15 4 -21
-26 -60 -39 -51 -5 3 -13 -6 -19 -21 -5 -14 -16 -28 -25 -31 -15 -6 -45 17
-45 35 0 6 -7 11 -15 11 -8 0 -15 9 -15 20 0 13 -5 18 -15 14 -10 -4 -15 0
-15 15 0 12 -6 21 -15 21 -8 0 -15 5 -15 10 0 6 -7 10 -15 10 -8 0 -15 7 -15
15 0 8 -7 15 -15 15 -8 0 -15 9 -15 20 0 13 -5 18 -15 14 -9 -4 -15 0 -15 10
0 9 -7 16 -15 16 -8 0 -15 7 -15 15 0 8 -7 15 -15 15 -8 0 -15 9 -15 21 0 11
-4 18 -9 14 -5 -3 -12 3 -15 13 -3 10 -19 25 -35 35 -22 13 -28 22 -24 40 11
44 43 65 43 27 0 -11 5 -20 10 -20 6 0 10 -7 10 -15 0 -8 5 -15 10 -15 6 0 21
-11 34 -25 13 -14 28 -25 35 -25 6 0 11 -9 11 -21 0 -11 5 -17 10 -14 6 3 10
17 10 31 0 14 -4 23 -10 19 -6 -3 -13 1 -16 9 -3 9 -12 16 -20 16 -8 0 -14 5
-14 10 0 6 -18 28 -41 50 -40 38 -40 40 -29 75 11 34 30 40 30 9 0 -8 5 -14
10 -14 6 0 10 -7 10 -15 0 -8 7 -15 15 -15 8 0 15 -4 15 -10 0 -5 7 -10 15
-10 8 0 15 -9 15 -21 0 -12 4 -17 11 -14 6 4 13 -2 16 -14 3 -12 12 -21 20
-21 10 0 13 6 9 16 -3 9 -6 22 -6 30 0 9 -5 12 -10 9 -6 -3 -13 1 -16 9 -3 9
-12 16 -20 16 -8 0 -14 7 -14 16 0 8 -5 12 -11 9 -6 -4 -13 2 -16 14 -3 12
-10 21 -16 21 -22 0 -35 33 -24 64 6 17 12 25 15 18 2 -6 10 -12 18 -12z m-96
-245 c0 -8 7 -15 15 -15 8 0 15 -7 15 -16 0 -9 11 -27 25 -40 14 -13 25 -28
25 -34 0 -5 7 -10 15 -10 8 0 15 -7 15 -15 0 -8 7 -15 15 -15 8 0 15 -7 15
-16 0 -8 5 -12 11 -9 6 4 13 -2 16 -14 3 -12 12 -21 20 -21 8 0 11 -4 8 -10
-3 -5 3 -10 14 -10 12 0 21 -7 21 -15 0 -8 7 -15 15 -15 9 0 15 -9 15 -21 0
-16 5 -20 19 -16 14 3 18 1 14 -9 -3 -8 2 -17 11 -20 22 -8 20 -37 -4 -59 -19
-18 -20 -17 -20 6 0 18 -3 20 -9 10 -7 -11 -10 -9 -16 8 -3 11 -18 24 -31 27
-17 4 -27 15 -31 35 -3 16 -9 26 -14 23 -5 -3 -13 5 -18 18 -6 13 -10 19 -10
14 -1 -5 -14 5 -29 22 -16 18 -34 32 -40 32 -7 0 -12 6 -12 14 0 8 -7 17 -16
20 -8 3 -12 10 -9 16 3 5 -1 10 -9 10 -9 0 -16 5 -16 10 0 6 -11 15 -25 20
-27 10 -41 47 -31 85 7 27 36 35 36 10z m-30 -100 c0 -8 7 -15 15 -15 8 0 15
-7 15 -16 0 -8 5 -12 11 -9 6 4 13 -2 16 -14 3 -11 9 -18 14 -15 5 3 9 -5 9
-16 0 -16 5 -20 15 -16 8 3 15 0 15 -7 1 -7 14 -23 30 -37 17 -13 30 -30 30
-37 0 -7 7 -10 15 -7 10 4 15 0 15 -16 0 -11 5 -18 10 -15 6 3 10 -1 10 -9 0
-9 9 -16 20 -16 11 0 20 -6 20 -14 0 -8 7 -16 15 -20 33 -12 15 -54 -30 -70
-16 -6 -18 -5 -7 5 16 17 15 29 -3 29 -8 0 -15 7 -15 15 0 9 -6 12 -15 9 -10
-4 -15 0 -15 15 0 12 -6 21 -15 21 -8 0 -15 7 -15 15 0 8 -7 15 -15 15 -8 0
-15 7 -15 16 0 8 -4 13 -9 10 -5 -3 -17 5 -27 19 -19 25 -34 25 -34 -1 0 -8 5
-12 10 -9 6 3 10 -3 10 -14 0 -14 5 -19 15 -15 8 4 15 1 15 -5 0 -14 36 -51
50 -51 6 0 10 -9 10 -20 0 -11 6 -19 13 -17 6 1 11 -4 10 -10 -2 -7 3 -13 11
-13 18 0 26 -32 14 -54 -13 -22 -28 -20 -28 5 0 11 -4 17 -10 14 -5 -3 -10
-21 -10 -39 0 -30 -15 -56 -32 -56 -4 0 -8 7 -8 16 0 8 -5 12 -10 9 -6 -3 -14
3 -18 14 -4 11 -11 21 -17 23 -18 5 -45 32 -45 45 0 7 -7 13 -16 13 -10 0 -14
6 -11 14 4 10 1 13 -9 9 -9 -3 -14 2 -14 16 0 14 -5 19 -15 15 -9 -4 -15 0
-15 10 0 9 -6 16 -14 16 -9 0 -12 -7 -9 -20 3 -11 12 -20 19 -20 8 0 14 -7 14
-15 0 -8 7 -15 15 -15 9 0 12 -6 9 -15 -4 -10 0 -15 15 -15 12 0 21 -6 21 -15
0 -8 5 -15 10 -15 6 0 10 -7 10 -15 0 -8 7 -15 15 -15 8 0 15 -7 15 -15 0 -8
9 -15 20 -15 11 0 20 -4 20 -9 0 -11 -78 -104 -92 -109 -5 -2 -20 8 -33 23
-23 24 -25 25 -25 6 0 -12 5 -21 10 -21 16 0 12 -56 -5 -70 -12 -10 -15 -10
-15 4 0 9 -5 16 -11 16 -7 0 -27 16 -46 35 l-34 35 7 82 c3 46 13 110 21 143
9 33 16 74 17 91 1 17 7 44 13 60 6 16 19 64 29 107 11 47 23 77 31 77 7 0 13
-7 13 -15z m-115 -595 c7 0 15 -9 18 -20 4 -14 10 -18 22 -14 28 11 15 -49
-13 -61 -12 -5 -25 -18 -28 -27 -8 -27 -24 -22 -24 7 0 14 7 28 16 32 11 4 12
8 4 13 -6 4 -13 27 -16 51 -2 24 -1 38 2 32 3 -7 12 -13 19 -13z"/>
<path d="M10246 3475 c-9 -23 -8 -25 9 -25 8 0 15 -7 15 -15 0 -8 7 -15 15
-15 8 0 15 -7 15 -16 0 -8 5 -12 11 -9 6 4 13 -2 16 -14 3 -12 9 -21 13 -21 5
0 17 -3 27 -6 17 -5 17 -5 1 9 -10 8 -18 23 -18 33 0 16 -2 17 -10 4 -8 -13
-11 -12 -16 5 -3 12 -15 25 -27 30 -12 6 -27 20 -33 33 -10 20 -12 21 -18 7z"/>
<path d="M9947 3417 c-3 -8 -1 -20 4 -28 5 -8 9 -10 9 -5 0 6 9 0 20 -12 11
-12 20 -26 20 -32 0 -5 7 -10 15 -10 8 0 15 -6 15 -12 0 -7 14 -22 30 -33 16
-11 30 -26 30 -32 0 -7 7 -13 15 -13 8 0 15 -7 15 -16 0 -8 5 -12 11 -9 6 4
13 -2 16 -14 3 -12 12 -21 19 -21 8 0 14 -8 14 -17 0 -12 3 -14 11 -6 8 8 5
19 -12 42 -12 17 -26 31 -31 31 -4 0 -8 7 -8 15 0 8 -7 15 -15 15 -8 0 -15 7
-15 16 0 8 -5 12 -11 9 -6 -4 -13 2 -16 14 -3 11 -10 18 -15 15 -5 -3 -12 3
-15 15 -3 12 -12 21 -19 21 -8 0 -14 7 -14 16 0 8 -4 13 -8 10 -9 -6 -42 29
-42 44 0 15 -17 12 -23 -3z"/>
<path d="M9917 3344 c-15 -16 -7 -44 13 -44 11 0 20 -7 20 -15 0 -8 5 -15 10
-15 6 0 10 -7 10 -15 0 -8 7 -15 15 -15 8 0 15 -7 15 -15 0 -8 4 -15 10 -15
13 0 80 -66 80 -79 0 -6 7 -11 15 -11 8 0 15 -7 15 -15 0 -8 6 -12 14 -9 8 3
12 13 9 25 -3 10 -10 16 -15 13 -5 -3 -12 3 -15 15 -3 12 -11 21 -17 21 -13 0
-46 36 -46 50 0 6 -7 10 -15 10 -8 0 -15 7 -15 16 0 8 -4 13 -8 10 -9 -6 -42
29 -42 44 0 6 -7 10 -15 10 -9 0 -19 9 -23 20 -4 12 -11 18 -15 14z"/>
<path d="M9826 3191 c-9 -14 4 -41 20 -41 8 0 14 -7 14 -15 0 -8 5 -15 10 -15
6 0 10 -7 10 -15 0 -8 6 -12 14 -9 8 3 16 -3 19 -15 3 -12 13 -21 22 -21 9 0
13 -4 10 -10 -3 -5 1 -10 9 -10 9 0 16 -9 16 -20 0 -13 5 -18 15 -14 10 4 15
0 15 -16 0 -11 5 -18 10 -15 6 3 10 13 10 21 0 16 -35 54 -50 54 -5 0 -10 7
-10 15 0 8 -7 15 -15 15 -8 0 -15 7 -15 15 0 8 -7 15 -15 15 -8 0 -15 7 -15
15 0 8 -4 15 -10 15 -5 0 -10 7 -10 16 0 10 -6 14 -15 10 -9 -3 -15 0 -15 9 0
17 -17 29 -24 16z"/>
<path d="M9247 3060 c-3 -14 -2 -26 3 -28 6 -2 10 -10 10 -18 0 -8 7 -14 15
-14 7 0 19 -8 24 -17 6 -10 11 -14 11 -9 0 16 40 -32 40 -48 0 -10 6 -13 15
-10 10 4 15 0 15 -10 0 -9 7 -19 15 -22 8 -4 15 -13 15 -21 0 -8 5 -11 11 -8
6 4 13 -2 16 -14 3 -11 10 -18 15 -15 5 3 12 -3 15 -15 3 -11 9 -18 14 -15 5
3 12 -2 15 -10 3 -9 12 -16 20 -16 8 0 14 -9 14 -21 0 -11 4 -18 8 -15 9 6 42
-29 42 -44 0 -6 7 -10 15 -10 9 0 18 -7 21 -15 4 -8 15 -15 26 -15 14 0 18 -5
14 -15 -3 -8 -1 -15 4 -15 6 0 10 11 10 25 0 18 -4 23 -15 19 -10 -4 -15 0
-15 16 0 11 -4 19 -9 16 -11 -7 -33 19 -24 28 4 4 0 4 -10 0 -12 -4 -17 -1
-17 10 0 9 -7 16 -15 16 -8 0 -15 4 -15 9 0 12 -69 81 -81 81 -5 0 -9 7 -9 16
0 8 -5 12 -10 9 -6 -3 -13 2 -17 11 -8 22 -40 54 -53 54 -5 0 -10 7 -10 15 0
8 -7 15 -15 15 -8 0 -15 6 -15 14 0 8 -7 17 -16 20 -8 3 -12 10 -9 16 3 5 -3
10 -14 10 -12 0 -21 7 -21 15 0 8 -4 15 -9 15 -5 0 -11 8 -13 18 -3 13 -5 11
-11 -8z"/>
<path d="M8860 2840 c0 -11 5 -20 10 -20 6 0 10 -7 10 -15 0 -8 7 -15 15 -15
8 0 15 -7 15 -15 0 -9 6 -12 15 -9 10 4 15 0 15 -15 0 -14 6 -21 19 -21 12 0
24 -12 32 -29 8 -17 18 -27 26 -24 7 3 13 0 13 -6 0 -14 36 -51 50 -51 6 0 10
-7 10 -15 0 -8 7 -15 15 -15 8 0 15 -7 15 -15 0 -8 5 -15 10 -15 6 0 10 -7 10
-15 0 -8 5 -15 10 -15 6 0 10 6 10 13 0 23 -25 67 -37 67 -7 0 -13 7 -13 15 0
8 -3 14 -7 13 -12 -4 -53 35 -53 50 0 7 -5 10 -11 7 -6 -4 -13 2 -16 13 -3 13
-11 18 -19 15 -8 -3 -14 1 -14 11 0 9 -7 16 -15 16 -8 0 -15 7 -15 15 0 8 -7
15 -15 15 -8 0 -15 5 -15 10 0 13 -37 50 -51 50 -5 0 -7 5 -4 10 3 6 1 10 -4
10 -6 0 -11 -9 -11 -20z"/>
<path d="M8740 2750 c-9 -24 -5 -40 11 -45 10 -4 19 -13 19 -21 0 -8 5 -12 10
-9 6 3 10 2 10 -4 0 -13 67 -81 80 -81 6 0 10 -7 10 -15 0 -8 7 -15 15 -15 8
0 15 5 15 10 0 6 -5 10 -11 10 -6 0 -9 7 -5 15 3 8 1 15 -4 15 -15 0 -50 33
-50 47 0 7 -3 12 -7 11 -12 -4 -53 35 -47 44 3 4 -4 8 -15 8 -11 0 -22 8 -24
18 -3 9 -6 15 -7 12z"/>
<path d="M8688 2574 c-13 -13 -9 -44 6 -44 9 0 12 -7 9 -20 -4 -16 -2 -19 11
-14 11 4 16 1 16 -10 0 -9 5 -16 10 -16 13 0 50 -37 50 -50 0 -5 4 -10 10 -10
15 0 50 -33 50 -47 0 -7 7 -13 15 -13 8 0 15 -7 15 -16 0 -8 5 -12 10 -9 6 3
14 -4 19 -17 6 -13 10 -19 10 -13 1 5 14 -5 30 -23 17 -17 35 -32 40 -32 6 0
11 -4 11 -9 0 -14 65 -81 79 -81 6 0 11 -5 11 -11 0 -6 7 -17 15 -25 12 -12
15 -12 15 -2 0 34 -14 58 -32 58 -10 0 -16 5 -13 10 3 6 0 10 -7 10 -17 0 -48
35 -48 54 0 7 -9 16 -21 19 -12 3 -18 10 -14 16 3 6 0 9 -8 5 -17 -6 -47 21
-47 42 0 8 -4 12 -10 9 -5 -3 -12 5 -16 19 -4 16 -11 23 -20 19 -8 -3 -14 1
-14 11 0 9 -7 16 -15 16 -8 0 -15 7 -15 15 0 8 -7 15 -15 15 -8 0 -15 6 -15
14 0 8 -7 17 -16 20 -8 3 -12 11 -9 16 4 6 3 10 -2 9 -21 -4 -33 2 -33 18 0 9
-3 14 -6 11 -8 -9 -41 26 -46 47 -1 9 -6 13 -10 9z"/>
<path d="M9180 2525 c0 -16 6 -25 15 -25 17 0 20 16 5 25 -6 4 -8 11 -5 16 4
5 1 9 -4 9 -6 0 -11 -11 -11 -25z"/>
<path d="M9210 2485 c0 -8 5 -15 10 -15 6 0 10 -7 10 -15 0 -9 6 -12 15 -9 10
4 15 0 15 -10 0 -9 7 -19 15 -22 8 -4 15 -12 15 -20 0 -8 7 -14 15 -14 8 0 15
-6 15 -13 0 -8 7 -14 15 -14 10 0 14 6 10 14 -3 8 -5 19 -5 24 0 5 -7 9 -15 9
-8 0 -15 7 -15 15 0 8 -7 15 -15 15 -8 0 -15 7 -15 15 0 8 -7 15 -15 15 -8 0
-15 6 -15 14 0 8 -7 17 -16 20 -22 9 -24 8 -24 -9z"/>
<path d="M8358 2304 c-11 -11 -10 -44 2 -44 12 0 80 -68 80 -80 0 -5 7 -7 15
-4 10 4 15 0 15 -15 0 -14 5 -19 15 -15 8 4 15 1 15 -5 0 -14 37 -51 51 -51 6
0 8 7 5 16 -3 9 -6 20 -6 25 0 5 -7 9 -15 9 -8 0 -15 7 -15 16 0 8 -5 12 -11
9 -6 -4 -13 2 -16 13 -3 13 -11 18 -19 15 -8 -3 -14 1 -14 11 0 9 -6 16 -12
16 -7 0 -22 14 -33 30 -11 16 -25 30 -32 30 -6 0 -13 7 -15 16 -2 9 -6 12 -10
8z"/>
<path d="M8260 2141 c0 -11 9 -21 21 -24 12 -3 18 -10 14 -16 -3 -6 0 -11 7
-11 17 0 48 -35 48 -55 0 -9 6 -12 15 -9 8 4 15 1 15 -5 0 -13 67 -81 80 -81
6 0 10 -7 10 -15 0 -8 5 -15 10 -15 6 0 10 -7 10 -15 0 -8 9 -15 20 -15 11 0
20 -7 20 -15 0 -8 7 -15 15 -15 8 0 15 -5 15 -11 0 -14 25 -39 39 -39 6 0 11
-4 11 -10 0 -11 39 -34 47 -27 2 3 -14 23 -36 45 -23 22 -41 48 -41 58 0 16
-2 17 -10 4 -8 -13 -11 -11 -16 8 -4 12 -10 22 -15 22 -13 0 -49 38 -49 51 0
5 -5 7 -10 4 -6 -3 -14 4 -19 17 -4 13 -10 21 -12 18 -7 -7 -49 34 -49 48 0 7
-5 10 -10 7 -6 -3 -14 4 -19 17 -6 13 -10 19 -10 13 -1 -11 -51 44 -51 56 0 5
-7 6 -15 3 -9 -4 -15 0 -15 10 0 9 -4 16 -10 16 -5 0 -10 -8 -10 -19z"/>
<path d="M8477 1843 c-14 -13 -6 -34 23 -63 17 -16 30 -34 30 -40 0 -5 5 -10
11 -10 16 0 39 -27 39 -47 0 -15 2 -16 10 -3 8 13 11 11 16 -7 8 -30 24 -30
24 0 0 14 -9 26 -22 32 -13 6 -24 20 -26 32 -2 14 -8 20 -18 16 -8 -3 -14 1
-14 10 0 8 -8 17 -18 19 -10 3 -25 19 -33 37 -9 17 -19 28 -22 24z"/>
<path d="M8268 1694 c-14 -14 -9 -54 7 -54 8 0 15 -7 15 -15 0 -8 7 -15 15
-15 8 0 15 -4 15 -10 0 -5 7 -10 15 -10 8 0 15 -9 15 -21 0 -12 4 -17 11 -14
6 4 13 -2 16 -14 3 -12 12 -21 19 -21 8 0 14 -4 14 -10 0 -5 7 -10 15 -10 8 0
15 -6 15 -14 0 -19 27 -28 34 -10 3 8 1 14 -4 14 -6 0 -10 6 -10 14 0 8 -8 13
-17 12 -10 0 -17 5 -15 12 1 6 -5 12 -13 12 -8 0 -15 7 -15 15 0 8 -7 15 -15
15 -8 0 -15 9 -15 20 0 13 -5 18 -15 14 -9 -4 -15 0 -15 10 0 9 -7 16 -15 16
-8 0 -15 7 -15 15 0 8 -6 15 -14 15 -8 0 -16 9 -18 21 -2 11 -6 17 -10 13z"/>
<path d="M8037 1564 c-13 -13 -7 -44 8 -44 8 0 15 -4 15 -10 0 -5 7 -10 15
-10 8 0 15 -7 15 -15 0 -8 7 -15 16 -15 11 0 14 5 10 16 -3 9 -6 18 -6 20 0 2
-6 4 -13 4 -13 0 -42 29 -48 49 -3 7 -8 9 -12 5z"/>
<path d="M8000 1458 c0 -9 7 -18 15 -22 8 -3 15 -12 15 -20 0 -9 6 -13 14 -10
8 3 16 -2 19 -13 4 -14 5 -14 6 5 0 12 -3 22 -9 22 -5 0 -10 8 -10 17 0 9 -3
13 -7 10 -3 -4 -15 0 -25 10 -16 14 -18 14 -18 1z"/>
<path d="M8088 1394 c-10 -9 3 -36 29 -60 13 -12 23 -29 23 -37 0 -10 6 -14
15 -11 8 4 15 1 15 -5 0 -11 35 -51 45 -51 3 0 5 11 5 25 0 16 -6 25 -15 25
-8 0 -15 7 -15 15 0 8 -7 15 -15 15 -8 0 -15 7 -15 16 0 8 -4 12 -10 9 -5 -3
-10 -3 -10 2 -1 14 -46 64 -52 57z"/>
<path d="M7966 1261 c-9 -14 1 -31 20 -31 8 0 14 -7 14 -15 0 -8 7 -15 15 -15
8 0 15 -7 15 -15 0 -8 5 -15 10 -15 6 0 10 -7 10 -15 0 -9 6 -12 16 -8 10 4
17 -1 21 -16 3 -11 11 -21 18 -21 10 0 11 5 2 25 -7 14 -18 25 -24 25 -7 0
-13 6 -13 14 0 8 -7 17 -16 20 -9 3 -12 11 -8 18 5 8 2 9 -9 5 -13 -5 -17 -1
-17 14 0 15 -5 19 -15 15 -8 -3 -18 2 -23 11 -6 11 -11 12 -16 4z"/>
<path d="M7950 1165 c0 -16 26 -55 37 -55 7 0 13 -7 13 -16 0 -8 5 -12 10 -9
16 10 12 45 -5 45 -8 0 -15 6 -15 14 0 7 -9 16 -20 19 -11 3 -20 4 -20 2z"/>
<path d="M3121 3504 c-12 -10 -4 -13 42 -15 51 -4 77 3 77 21 0 10 -103 5
-119 -6z"/>
<path d="M2190 3494 c0 -8 5 -12 10 -9 6 4 8 11 5 16 -9 14 -15 11 -15 -7z"/>
<path d="M3053 3498 c2 -7 7 -13 12 -13 5 0 10 6 13 13 2 6 -4 12 -13 12 -9 0
-15 -6 -12 -12z"/>
<path d="M3893 2883 c-7 -2 -13 -9 -13 -15 0 -6 6 -6 15 2 39 32 47 -30 11
-83 -13 -19 -22 -38 -18 -41 10 -11 61 -6 68 5 5 9 -1 10 -20 5 -32 -8 -33 3
-3 54 17 31 20 43 11 57 -12 19 -31 25 -51 16z"/>
<path d="M2930 2813 c-58 -23 -64 -174 -9 -204 45 -24 98 55 85 126 -6 32 -41
86 -54 84 -4 0 -14 -3 -22 -6z m40 -32 c14 -28 12 -123 -4 -143 -33 -44 -56
-13 -56 75 0 54 13 87 35 87 8 0 19 -9 25 -19z"/>
<path d="M3292 2807 c-22 -10 -38 -37 -22 -37 6 0 10 5 10 10 0 6 14 10 30 10
23 0 33 -6 42 -24 9 -22 6 -32 -22 -76 -18 -28 -41 -55 -52 -61 -31 -17 -13
-25 48 -19 37 3 59 10 62 19 3 10 0 12 -14 7 -22 -9 -22 -9 -52 -7 -21 1 -20
4 18 52 25 32 40 61 40 79 0 45 -41 68 -88 47z"/>
<path d="M1960 2796 c14 -14 13 -169 -2 -184 -9 -9 1 -12 49 -12 91 0 139 45
97 92 -14 14 -14 20 -4 33 22 27 4 63 -38 74 -49 14 -117 12 -102 -3z m100
-14 c17 -13 21 -24 16 -40 -8 -23 -47 -39 -65 -27 -15 9 -14 72 2 78 20 9 24
8 47 -11z m20 -102 c16 -31 -12 -70 -50 -70 -20 0 -37 30 -32 59 4 28 8 31 38
31 23 0 37 -6 44 -20z"/>
<path d="M3144 2774 c-8 -20 -14 -37 -12 -38 2 -2 18 -8 36 -16 63 -25 54 -97
-12 -93 -20 1 -36 -1 -36 -6 0 -17 32 -21 65 -7 61 26 54 112 -11 137 -35 13
-25 33 19 37 47 4 48 22 1 22 -31 0 -37 -4 -50 -36z"/>
<path d="M3501 2724 c-28 -36 -26 -58 7 -95 26 -29 30 -31 53 -19 26 14 39 29
39 45 -1 6 -5 2 -11 -7 -12 -21 -49 -24 -67 -6 -21 21 -15 76 10 89 17 9 24 9
33 -5 15 -20 25 -21 25 -2 0 15 -21 26 -50 26 -10 0 -28 -12 -39 -26z"/>
<path d="M3630 2740 c-11 -7 -11 -10 -2 -10 10 0 11 -14 6 -60 -6 -54 -5 -60
12 -60 16 0 19 8 19 57 0 55 1 58 25 58 22 0 25 -5 28 -43 2 -24 -2 -50 -9
-58 -9 -11 -7 -14 12 -14 22 0 24 4 24 51 0 39 4 54 18 63 26 16 39 -9 33 -66
-4 -41 -2 -48 12 -48 16 0 17 7 12 60 -7 73 -19 88 -56 71 -20 -9 -30 -9 -40
0 -11 9 -21 9 -39 1 -15 -7 -25 -8 -25 -2 0 13 -11 12 -30 0z"/>
<path d="M2170 2615 c0 -8 5 -15 10 -15 6 0 10 7 10 15 0 8 -4 15 -10 15 -5 0
-10 -7 -10 -15z"/>
<path d="M3050 2614 c0 -14 3 -14 15 -4 8 7 15 14 15 16 0 2 -7 4 -15 4 -8 0
-15 -7 -15 -16z"/>
<path d="M3885 1999 c-4 -6 -4 -13 -1 -16 3 -4 6 -1 6 5 0 19 18 14 30 -8 9
-17 6 -30 -19 -70 l-31 -50 35 0 c18 0 37 5 40 10 4 6 -5 10 -19 10 -31 0 -32
4 -8 38 10 15 22 35 25 44 11 31 -42 65 -58 37z"/>
<path d="M2025 1932 c-48 -9 -89 -78 -79 -132 8 -39 57 -80 95 -80 32 0 79 26
79 43 0 5 -9 2 -20 -8 -41 -37 -110 -14 -124 41 -9 35 11 102 34 114 30 16 62
12 87 -12 16 -15 23 -17 23 -7 0 8 -4 19 -8 25 -8 13 -57 21 -87 16z"/>
<path d="M2906 1921 c-27 -29 -36 -86 -22 -133 13 -48 33 -63 68 -55 34 9 52
54 46 117 -8 79 -53 114 -92 71z m61 -22 c28 -54 7 -154 -32 -154 -24 0 -37
45 -31 109 8 76 37 97 63 45z"/>
<path d="M3166 1918 c-74 -55 -72 -188 4 -188 36 0 60 29 60 72 0 42 -20 62
-55 56 -45 -9 -22 44 28 66 24 11 27 15 12 15 -11 0 -33 -9 -49 -21z m28 -84
c31 -31 15 -94 -25 -94 -33 0 -43 95 -11 103 9 3 18 5 19 6 1 0 9 -6 17 -15z"/>
<path d="M3339 1928 c-1 -7 -1 -36 1 -64 2 -49 0 -52 -27 -57 -43 -8 -46 5
-12 46 17 21 29 40 26 43 -6 7 -67 -77 -67 -92 0 -8 16 -14 38 -16 32 -3 37
-7 40 -30 4 -35 22 -37 22 -3 0 13 7 28 16 33 15 8 15 10 0 15 -12 5 -16 21
-16 72 0 37 -4 65 -10 65 -5 0 -11 -6 -11 -12z"/>
<path d="M3500 1848 c-41 -44 -16 -118 41 -118 26 0 49 16 49 34 0 6 -5 5 -12
-2 -30 -30 -83 11 -76 59 5 33 36 49 52 27 14 -18 36 -24 36 -10 0 15 -24 32
-47 32 -12 0 -31 -10 -43 -22z"/>
<path d="M3629 1863 c0 -5 0 -32 1 -62 1 -35 -3 -57 -12 -62 -9 -6 -5 -9 12
-9 24 0 25 3 22 45 -4 50 9 75 39 75 16 0 19 -8 19 -54 0 -34 -5 -56 -12 -59
-7 -3 3 -6 22 -6 26 -1 31 2 22 11 -18 18 -15 95 4 102 40 15 46 8 42 -54 -3
-58 -2 -60 22 -59 14 0 19 3 13 6 -9 3 -13 26 -13 63 0 50 -3 60 -20 65 -12 4
-27 2 -35 -5 -10 -8 -19 -8 -34 2 -17 10 -25 10 -41 1 -12 -8 -21 -9 -25 -3
-7 12 -25 13 -26 3z"/>
<path d="M3046 1753 c-11 -11 -6 -23 9 -23 8 0 15 4 15 9 0 13 -16 22 -24 14z"/>
<path d="M2160 1740 c0 -5 5 -10 10 -10 6 0 10 5 10 10 0 6 -4 10 -10 10 -5 0
-10 -4 -10 -10z"/>
<path d="M3856 1111 c-4 -5 3 -7 14 -4 39 10 39 -53 0 -94 -27 -30 -26 -33 15
-33 19 0 35 4 35 9 0 4 -12 6 -26 3 -29 -5 -29 -2 9 50 26 36 17 78 -18 78
-13 0 -26 -4 -29 -9z"/>
<path d="M2891 1041 c-7 -5 -9 -11 -4 -14 14 -9 16 -156 2 -173 -9 -12 -6 -14
22 -13 19 0 28 3 22 6 -9 3 -13 34 -13 104 0 98 -3 107 -29 90z"/>
<path d="M3114 1042 c-21 -14 -34 -51 -34 -97 0 -97 59 -140 101 -72 48 76 -5
211 -67 169z m45 -16 c11 -13 16 -61 13 -118 -1 -15 -9 -34 -18 -43 -27 -27
-49 4 -49 68 1 93 23 131 54 93z"/>
<path d="M3240 1029 c-14 -26 -7 -35 10 -14 17 21 80 20 80 -1 0 -9 -13 -49
-30 -91 -34 -83 -33 -83 -21 -83 7 0 81 188 81 206 0 2 -25 4 -55 4 -45 0 -56
-4 -65 -21z"/>
<path d="M1958 940 l-3 -100 53 0 c90 0 132 36 132 111 0 37 -48 89 -82 89
-23 -1 -23 -1 3 -15 58 -31 63 -126 10 -158 -16 -9 -41 -17 -55 -17 -26 0 -26
0 -26 83 0 51 5 88 12 95 9 9 6 12 -14 12 l-27 0 -3 -100z"/>
<path d="M3472 968 c-5 -7 -13 -27 -16 -44 -10 -44 29 -90 67 -80 15 3 32 16
38 29 9 18 9 20 -2 10 -7 -7 -26 -13 -41 -13 -30 0 -43 26 -36 71 4 30 37 37
55 13 15 -20 29 -13 20 11 -8 18 -70 21 -85 3z"/>
<path d="M3598 908 c3 -46 8 -68 16 -68 9 0 11 15 8 54 -4 48 -2 55 18 66 32
17 43 1 38 -64 -2 -47 0 -56 14 -56 14 0 18 11 20 56 2 42 8 60 21 68 26 16
39 -9 34 -71 -3 -43 -1 -53 12 -53 13 0 16 10 13 48 -6 95 0 90 -104 89 l-93
-1 3 -68z"/>
<path d="M3010 855 c0 -8 5 -15 10 -15 6 0 10 7 10 15 0 8 -4 15 -10 15 -5 0
-10 -7 -10 -15z"/>
<path d="M2170 850 c0 -5 7 -10 15 -10 8 0 15 5 15 10 0 6 -7 10 -15 10 -8 0
-15 -4 -15 -10z"/>
<path d="M13407 748 c-5 -32 -14 -68 -35 -135 -9 -28 -8 -33 6 -33 12 0 18 9
19 30 3 41 20 70 42 70 49 0 52 -71 4 -88 l-28 -10 26 -1 c45 -2 77 57 48 86
-8 8 -5 17 10 32 12 12 21 27 21 34 0 23 -33 44 -71 46 -34 1 -37 -1 -42 -31z
m83 -13 c0 -27 -22 -48 -47 -43 -14 3 -17 11 -14 33 4 34 15 45 42 38 12 -3
19 -14 19 -28z"/>
<path d="M7813 683 c-28 -37 -64 -82 -80 -100 -30 -32 -32 -43 -6 -43 7 0 13
8 13 17 0 29 38 61 66 55 23 -4 26 -8 21 -37 -5 -29 -3 -32 14 -28 11 3 18 11
15 18 -2 6 0 49 5 95 5 46 8 85 5 87 -2 2 -26 -27 -53 -64z m23 -39 c-3 -8
-15 -14 -26 -14 -20 0 -20 0 2 35 20 30 23 32 26 14 2 -11 1 -27 -2 -35z"/>
</g>
</svg>
