<?xml version="1.0" standalone="no"?>
<!DOCTYPE svg PUBLIC "-//W3C//DTD SVG 20010904//EN"
 "http://www.w3.org/TR/2001/REC-SVG-20010904/DTD/svg10.dtd">
<svg version="1.0" xmlns="http://www.w3.org/2000/svg"
 width="1428.000000pt" height="557.000000pt" viewBox="0 0 1428.000000 557.000000"
 preserveAspectRatio="xMidYMid meet">
<metadata>
Created by potrace 1.16, written by Peter Selinger 2001-2019
</metadata>
<g transform="translate(0.000000,557.000000) scale(0.100000,-0.100000)"
fill="#000000" stroke="none">
<path d="M3886 5351 c-4 -6 5 -9 21 -8 40 3 41 -27 3 -79 l-31 -44 40 0 c23 0
41 4 41 10 0 5 -13 7 -31 3 l-31 -6 33 47 c27 37 31 50 23 64 -12 19 -59 28
-68 13z"/>
<path d="M1477 5286 l6 -36 -57 0 -56 0 0 -63 0 -63 38 5 c37 5 37 5 7 11 -28
5 -30 8 -30 53 l-1 48 46 -3 c45 -3 45 -3 48 -42 2 -24 -2 -42 -10 -47 -10 -7
-10 -11 -1 -17 7 -4 10 -26 9 -55 -2 -26 0 -47 5 -47 5 0 9 24 9 54 0 44 4 55
18 59 16 4 16 5 0 6 -14 1 -18 10 -18 47 l0 45 47 -3 47 -3 -3 -51 c-1 -29 2
-55 8 -59 7 -4 11 14 11 54 0 34 -1 64 -2 68 -2 3 -27 5 -56 4 l-54 -3 4 33
c2 19 -2 34 -9 36 -8 3 -10 -6 -6 -31z"/>
<path d="M2507 5303 c-43 -13 -47 -16 -41 -39 6 -23 4 -24 -36 -24 -40 0 -42
1 -36 25 4 14 2 25 -4 25 -5 0 -10 -6 -10 -14 0 -7 -7 -19 -15 -26 -8 -7 -15
-17 -15 -22 0 -6 7 -5 15 2 13 11 15 4 15 -51 0 -38 -6 -76 -15 -93 -9 -16
-14 -31 -11 -33 2 -2 11 13 21 34 9 21 24 44 33 51 9 7 11 12 4 12 -16 0 -15
37 1 43 10 4 10 6 0 6 -7 1 -13 8 -13 16 0 12 14 15 65 15 66 0 85 -13 43 -30
-21 -8 -21 -9 8 -9 38 -1 46 -9 33 -32 -8 -16 -6 -19 16 -19 20 0 25 -5 25
-24 0 -35 -10 -56 -26 -56 -8 0 -14 -4 -14 -10 0 -17 29 -11 39 8 5 9 12 34
16 55 7 34 5 37 -15 37 -19 0 -21 4 -16 25 6 22 3 25 -19 25 -23 0 -24 2 -15
20 10 18 8 20 -25 20 -31 0 -35 3 -35 25 0 20 5 25 28 26 33 1 69 14 56 21 -5
2 -30 -2 -57 -9z"/>
<path d="M7160 5284 l0 -36 -55 4 -55 3 0 -69 c0 -38 3 -66 7 -63 3 4 5 32 4
62 l-2 55 50 0 51 0 0 -45 0 -45 -42 -1 -43 -2 40 -6 40 -6 6 -55 6 -55 1 57
c1 34 7 58 15 61 10 4 10 6 0 6 -9 1 -13 17 -13 46 l0 45 50 0 50 0 0 -44 c0
-44 0 -45 -37 -48 l-38 -3 43 -5 42 -6 0 47 c0 26 2 54 5 61 5 12 -6 13 -56
10 l-62 -5 6 37 c3 20 2 36 -4 36 -5 0 -9 -16 -9 -36z"/>
<path d="M11850 5286 c0 -45 -17 -47 -23 -3 l-4 32 -1 -32 c-2 -29 -6 -33 -29
-33 -47 0 -16 -12 39 -14 29 -2 77 -6 106 -11 l53 -8 -3 -76 c-3 -71 -5 -76
-28 -82 -16 -4 -19 -7 -7 -8 9 -1 17 -6 17 -12 0 -8 5 -8 15 1 11 9 15 34 15
96 0 66 3 84 14 84 8 0 18 5 22 11 4 8 -1 9 -16 4 -22 -7 -23 -5 -17 34 3 22
1 41 -4 41 -5 0 -9 -18 -9 -40 0 -39 -1 -40 -34 -40 -19 0 -36 4 -38 10 -1 5
-16 11 -31 12 -25 2 -28 6 -24 31 2 15 0 30 -5 33 -4 3 -8 -11 -8 -30z"/>
<path d="M12490 5300 c0 -11 -5 -20 -12 -20 -9 0 -9 -3 0 -12 19 -19 14 -28
-13 -28 -23 0 -25 -3 -25 -50 0 -47 2 -50 25 -50 26 0 34 -15 13 -23 -10 -4
-10 -8 -1 -14 6 -4 13 -22 16 -38 2 -19 5 -11 6 23 1 45 4 52 21 52 17 0 20 7
20 50 0 43 -3 50 -20 50 -11 0 -20 7 -20 15 0 8 6 15 13 15 9 0 9 2 -1 8 -7 5
-10 16 -6 25 3 10 1 17 -5 17 -6 0 -11 -9 -11 -20z m-3 -111 c2 -33 -1 -40
-15 -37 -23 4 -26 78 -3 78 13 0 17 -10 18 -41z m39 4 c-1 -52 -26 -56 -26 -4
0 28 4 41 14 41 9 0 13 -12 12 -37z"/>
<path d="M12620 5285 c0 -31 -3 -35 -25 -35 l-25 0 0 -101 c0 -55 4 -98 8 -95
4 2 6 45 5 95 -3 85 -2 91 17 91 18 0 20 -7 20 -85 0 -61 3 -85 13 -85 8 0 11
16 9 57 -4 72 -5 95 -2 108 1 6 2 27 1 48 -1 47 -21 49 -21 2z"/>
<path d="M12815 5290 c-5 -21 -13 -30 -26 -30 -17 0 -19 -8 -19 -97 0 -61 4
-93 9 -84 6 10 21 12 49 9 l40 -6 4 62 c2 33 2 75 0 92 -3 28 -6 30 -29 26
-21 -4 -25 -2 -20 12 4 9 10 23 13 31 3 8 2 15 -4 15 -6 0 -13 -13 -17 -30z
m34 -115 l0 -75 -34 0 -34 0 1 75 0 75 33 0 34 0 0 -75z"/>
<path d="M12913 5261 c-19 -49 -20 -53 -3 -33 14 17 29 22 66 22 l47 0 -6 -77
c-5 -67 -9 -81 -31 -100 -18 -15 -21 -23 -11 -26 24 -10 46 29 51 89 3 33 7
74 9 92 l4 32 -51 0 c-48 0 -50 1 -46 25 9 47 -7 34 -29 -24z"/>
<path d="M13230 5301 c0 -11 -5 -23 -11 -27 -6 -3 -9 -15 -6 -25 8 -29 -12
-100 -38 -141 -15 -23 -19 -35 -11 -32 20 8 65 117 62 148 -2 15 2 30 8 34 12
8 16 62 4 62 -4 0 -8 -9 -8 -19z"/>
<path d="M13489 5304 c-8 -9 -12 -27 -11 -40 3 -20 -1 -24 -25 -25 -23 -2 -24
-2 -5 -6 27 -5 27 -15 2 -73 l-20 -45 22 30 23 30 6 -70 5 -70 2 84 c2 77 3
83 17 65 8 -10 15 -14 15 -8 0 6 -7 17 -15 24 -21 17 -19 30 5 30 11 0 20 5
20 11 0 6 -9 8 -20 4 -16 -5 -20 -2 -20 20 0 14 7 28 15 31 8 4 15 10 15 15 0
14 -16 10 -31 -7z"/>
<path d="M13935 5310 l-30 -8 30 0 c17 0 39 3 50 8 l20 9 -20 -1 c-11 0 -33
-4 -50 -8z"/>
<path d="M1753 5296 c-33 -16 -28 -27 7 -15 17 6 30 15 30 20 0 11 -8 10 -37
-5z"/>
<path d="M1900 5294 l-25 -15 25 7 c28 7 35 12 29 18 -2 2 -15 -2 -29 -10z"/>
<path d="M5349 5286 c-7 -14 -20 -26 -31 -26 -16 0 -18 -10 -18 -100 0 -60 4
-100 10 -100 6 0 10 7 10 15 0 8 6 15 13 15 9 0 9 2 1 8 -7 4 -13 32 -14 62
-4 84 -2 90 22 90 12 0 18 3 15 6 -3 4 -2 15 4 26 6 11 8 22 5 25 -3 3 -11 -6
-17 -21z"/>
<path d="M5460 5299 c0 -19 -43 -99 -53 -99 -5 0 -7 14 -3 30 4 21 2 30 -7 30
-10 0 -12 -20 -9 -79 2 -66 0 -80 -13 -83 -13 -2 -12 -5 5 -16 19 -12 20 -10
20 42 0 47 4 58 33 90 19 20 34 42 34 49 0 6 4 20 8 30 4 10 3 17 -4 17 -6 0
-11 -5 -11 -11z"/>
<path d="M5649 5289 c-1 -25 -1 -147 0 -209 l1 -35 52 4 c29 3 43 7 30 9 -31
5 -22 26 14 33 28 5 28 5 -8 10 -34 5 -38 3 -38 -18 0 -17 -6 -23 -21 -23 -19
0 -20 5 -18 121 1 66 -1 123 -5 126 -3 4 -6 -5 -7 -18z"/>
<path d="M5880 5186 l0 -126 -57 -2 -58 -1 60 -6 c33 -4 63 -5 68 -3 10 5 7
251 -4 257 -5 4 -9 -45 -9 -119z"/>
<path d="M6020 5284 c-5 -16 -15 -38 -22 -49 -6 -11 -18 -31 -26 -45 -12 -22
-12 -23 1 -7 8 9 17 17 21 17 3 0 6 -37 6 -82 0 -114 8 -94 13 33 2 58 10 116
17 128 6 13 9 25 6 28 -3 3 -10 -7 -16 -23z"/>
<path d="M6089 5288 c-6 -13 -21 -33 -32 -45 -11 -13 -15 -23 -9 -23 7 0 12
-9 12 -20 0 -14 5 -18 17 -13 11 4 12 8 5 11 -7 2 -12 10 -12 18 0 9 11 14 35
14 24 0 35 -5 35 -15 0 -8 -6 -15 -14 -15 -7 0 -16 -9 -19 -20 -3 -10 -20 -26
-38 -34 -19 -8 -27 -15 -19 -15 8 0 26 6 40 14 30 17 40 18 40 5 0 -6 -19 -20
-42 -30 -26 -12 -35 -20 -23 -19 11 0 31 6 45 14 30 17 40 18 40 5 0 -5 -17
-19 -37 -30 -21 -12 -29 -18 -18 -14 49 16 65 16 65 0 0 -9 -10 -20 -22 -25
-15 -5 -18 -10 -9 -15 17 -11 41 12 41 40 0 29 5 30 37 4 14 -11 30 -17 35
-14 5 4 -5 15 -23 26 -32 19 -32 21 -14 34 10 8 23 14 28 14 4 0 5 5 1 12 -4
6 -7 31 -5 54 l2 43 -36 -6 c-30 -5 -34 -3 -29 11 3 9 10 16 16 16 5 0 6 5 3
10 -11 17 -23 11 -29 -15 -5 -21 -12 -25 -41 -25 -19 0 -35 3 -35 8 0 13 15
30 25 29 5 -1 11 6 13 16 5 25 -15 21 -29 -5z m124 -102 c0 -37 -14 -56 -40
-56 -17 0 -36 38 -26 53 4 6 6 20 5 30 -3 15 2 18 29 15 31 -3 33 -5 32 -42z"/>
<path d="M6764 5287 c-7 -15 -7 -33 -2 -48 5 -13 8 -44 6 -69 -3 -44 -4 -45
-43 -51 -22 -3 27 -7 108 -8 97 -1 146 2 142 9 -4 6 -23 7 -47 4 l-40 -7 4 97
c3 67 1 95 -6 93 -6 -2 -11 -22 -10 -45 l1 -42 -49 0 -48 0 5 45 c4 49 -4 58
-21 22z m111 -122 l0 -40 -47 -3 -46 -3 0 46 1 46 46 -3 46 -3 0 -40z"/>
<path d="M8659 5269 c-1 -24 -1 -67 1 -95 1 -44 -2 -54 -21 -68 -36 -24 -17
-28 29 -5 44 22 56 35 22 24 -18 -6 -20 -2 -20 40 0 43 2 46 23 43 27 -3 86
41 79 60 -2 7 2 19 8 27 7 9 8 15 2 15 -5 0 -21 -19 -35 -42 -18 -31 -31 -42
-51 -43 -25 -1 -27 2 -25 37 2 20 0 40 -4 44 -4 4 -8 -13 -8 -37z"/>
<path d="M9130 5305 c-8 -2 -33 -7 -54 -10 -38 -6 -38 -7 -16 -18 41 -21 36
-37 -10 -37 -40 0 -42 2 -38 25 7 34 -3 31 -29 -11 -21 -32 -21 -34 -3 -24 19
10 20 7 20 -47 0 -32 -7 -71 -15 -87 -9 -16 -14 -31 -11 -33 12 -12 42 80 40
121 l-3 46 64 0 c52 0 63 -3 59 -14 -3 -8 -20 -17 -37 -19 -21 -2 -13 -4 22
-5 52 -2 53 -3 47 -28 -5 -18 -3 -25 5 -22 21 7 18 50 -3 56 -13 3 -17 10 -13
23 5 16 1 19 -23 19 -22 0 -31 6 -35 21 -3 11 0 22 6 24 69 19 79 23 62 23
-11 0 -27 -2 -35 -3z"/>
<path d="M9340 5302 c0 -6 5 -14 10 -17 18 -11 10 -25 -15 -25 -16 0 -25 -6
-25 -15 0 -8 -4 -15 -10 -15 -5 0 -10 -6 -10 -12 1 -7 9 -3 19 10 17 19 29 22
98 22 73 0 79 2 90 25 13 30 3 33 -22 5 -26 -29 -49 -26 -43 5 3 14 1 25 -3
25 -5 0 -9 -11 -9 -25 0 -20 -5 -25 -25 -25 -15 0 -25 6 -25 14 0 7 -7 19 -15
26 -9 8 -15 9 -15 2z"/>
<path d="M9690 5285 c0 -16 -6 -25 -16 -25 -10 0 -14 6 -10 15 3 9 0 15 -9 15
-8 0 -15 -6 -15 -14 0 -8 -6 -17 -12 -19 -10 -4 -10 -6 0 -6 8 -1 12 -18 12
-51 0 -27 4 -50 9 -50 13 0 19 48 8 59 -8 8 -5 11 10 11 23 0 26 -15 16 -72
-4 -23 -10 -28 -36 -29 -25 -1 -27 -3 -9 -6 15 -3 22 -10 18 -19 -3 -9 1 -14
14 -14 25 0 26 -16 3 -29 -15 -9 -15 -10 -2 -11 8 0 20 5 26 11 8 8 20 8 46
-2 31 -11 38 -10 66 11 l32 22 23 -21 c30 -28 45 -27 19 2 -32 35 -34 43 -18
81 8 19 15 47 15 61 0 14 5 25 10 25 6 0 10 4 10 9 0 5 -9 7 -20 4 -11 -3 -19
-13 -18 -22 4 -54 -3 -83 -21 -88 -12 -3 -17 -11 -14 -19 6 -17 -33 -64 -53
-64 -7 0 -20 8 -30 17 -9 10 -26 17 -37 18 -11 0 -22 6 -25 13 -3 10 4 13 24
12 49 -3 74 0 74 9 0 5 -18 7 -40 4 -38 -5 -54 7 -30 22 8 5 8 11 0 20 -8 10
-8 15 0 20 8 5 8 11 -1 21 -9 11 -7 14 16 14 24 0 26 -3 24 -34 -2 -19 0 -38
4 -42 7 -8 8 -2 12 60 1 21 8 42 16 47 10 6 10 9 2 9 -7 0 -13 7 -13 15 0 8
-6 15 -14 15 -9 0 -12 -10 -10 -30 3 -24 0 -30 -16 -30 -22 0 -27 16 -7 23 8
4 6 6 -4 6 -12 1 -15 8 -11 26 2 15 0 25 -7 25 -6 0 -11 -11 -11 -25z m0 -45
c0 -5 -7 -10 -15 -10 -8 0 -15 5 -15 10 0 6 7 10 15 10 8 0 15 -4 15 -10z"/>
<path d="M9826 5295 c-4 -11 -16 -44 -28 -73 -11 -29 -18 -56 -14 -59 3 -4 6
-1 6 5 0 7 5 12 10 12 6 0 10 -9 10 -20 0 -11 4 -20 10 -20 6 0 6 9 0 26 -15
39 -12 54 13 64 17 7 18 9 5 9 -21 1 -22 5 -7 32 6 11 8 25 6 32 -3 7 -8 4
-11 -8z"/>
<path d="M10610 5291 c0 -11 -5 -23 -10 -26 -6 -4 -8 -10 -5 -14 7 -13 -32
-44 -46 -35 -8 4 -10 3 -5 -4 4 -7 17 -17 28 -23 18 -9 20 -9 15 4 -3 9 4 28
16 44 21 27 31 73 15 73 -4 0 -8 -9 -8 -19z"/>
<path d="M10762 5176 c2 -75 6 -136 11 -136 4 0 7 56 7 125 0 140 1 133 -11
141 -5 3 -8 -54 -7 -130z"/>
<path d="M11006 5302 c-2 -4 -5 -58 -5 -120 0 -61 -2 -116 -3 -123 -2 -6 3
-14 10 -16 9 -4 12 27 12 131 0 129 -2 147 -14 128z"/>
<path d="M11140 5291 c-5 -11 -10 -26 -10 -33 0 -7 -9 -24 -20 -38 -23 -30
-26 -48 -5 -30 13 11 15 7 15 -30 0 -61 8 -46 15 29 3 35 12 76 21 92 8 16 10
29 5 29 -6 0 -15 -9 -21 -19z"/>
<path d="M11211 5287 c-5 -13 -15 -28 -23 -35 -16 -13 -12 -76 4 -66 5 3 6 14
3 25 -5 16 -1 19 30 19 26 0 34 -4 29 -12 -6 -10 -4 -10 7 0 7 6 22 13 34 13
16 1 17 2 3 6 -20 5 -23 18 -8 28 18 11 11 25 -12 25 -17 0 -19 -3 -10 -12 17
-17 -4 -38 -39 -38 -34 0 -38 14 -9 32 21 13 27 38 10 38 -6 0 -14 -10 -19
-23z"/>
<path d="M11476 5285 c-4 -17 -13 -25 -29 -25 -21 0 -22 -4 -23 -100 0 -55 3
-100 8 -100 4 0 8 6 8 14 0 8 12 17 28 19 l27 4 -27 2 c-25 1 -28 5 -28 35 0
19 6 37 13 39 10 4 10 6 0 6 -8 1 -13 14 -13 32 0 22 5 32 20 36 24 6 56 63
35 63 -7 0 -16 -11 -19 -25z"/>
<path d="M11580 5270 c-7 -22 -19 -45 -27 -51 -7 -6 -13 -16 -13 -21 0 -18 57
58 64 85 10 42 -9 32 -24 -13z"/>
<path d="M12149 5300 c-11 -6 -15 -18 -11 -35 4 -22 1 -25 -24 -26 -24 -1 -25
-2 -6 -6 27 -5 28 -22 2 -76 -13 -25 -15 -34 -5 -23 8 11 15 23 15 28 0 4 5 8
10 8 6 0 10 -29 10 -67 0 -86 12 -74 14 14 1 48 5 67 14 66 14 -3 16 13 2 22
-20 12 -10 27 14 21 20 -5 28 0 45 28 23 36 25 46 13 46 -5 0 -16 -17 -27 -37
-10 -21 -20 -33 -22 -27 -2 7 -13 9 -25 6 -17 -4 -19 -2 -13 19 4 13 14 30 23
37 13 10 13 12 1 12 -8 0 -21 -5 -30 -10z"/>
<path d="M12293 5303 c-22 -4 -22 -6 -8 -34 9 -16 18 -29 21 -29 2 0 0 9 -6
21 -14 25 -11 29 32 39 26 6 27 8 8 8 -14 -1 -35 -3 -47 -5z"/>
<path d="M13673 5302 c-7 -5 -9 -13 -4 -21 5 -7 6 -22 4 -32 -4 -15 -15 -19
-55 -19 l-50 0 4 35 c3 23 0 35 -8 35 -15 0 -17 -87 -3 -96 5 -3 9 0 9 7 0 8
18 10 59 7 l59 -4 4 44 c3 46 -1 55 -19 44z"/>
<path d="M1039 5298 c-6 -17 -4 -260 2 -264 5 -3 9 54 9 130 0 75 -2 136 -5
136 -3 0 -5 -1 -6 -2z"/>
<path d="M1259 5180 c-1 -66 -2 -124 -3 -130 -1 -5 3 -11 9 -12 5 -2 10 51 12
130 1 80 -1 132 -7 132 -6 0 -11 -50 -11 -120z"/>
<path d="M2205 5290 c-3 -5 3 -10 15 -10 12 0 18 5 15 10 -3 6 -10 10 -15 10
-5 0 -12 -4 -15 -10z"/>
<path d="M4975 5288 c3 -7 -6 -52 -19 -100 -21 -77 -22 -89 -9 -100 12 -10 14
-9 12 3 -6 30 13 89 33 103 47 33 66 -32 23 -78 -28 -31 -19 -35 13 -6 48 45
38 106 -16 104 -29 -2 -30 -1 -21 30 13 43 11 56 -6 56 -8 0 -12 -6 -10 -12z"/>
<path d="M7998 5258 c-3 -42 -4 -43 -40 -46 -35 -3 -38 -1 -39 25 -1 15 -1 34
0 41 1 6 -2 12 -7 12 -5 0 -12 -33 -15 -74 -5 -71 -34 -141 -67 -161 -5 -3
-10 -10 -10 -16 0 -11 33 21 55 55 9 14 22 44 29 67 l12 41 27 -54 c24 -49 34
-58 84 -81 31 -14 61 -23 67 -20 5 4 -3 11 -20 17 -58 21 -70 33 -57 53 17 24
53 91 53 98 0 3 -7 5 -15 5 -9 0 -15 -9 -15 -22 0 -25 -35 -88 -48 -88 -15 0
-40 34 -47 63 -7 26 -6 27 31 27 34 0 39 3 39 23 1 12 4 34 8 50 6 20 4 27 -7
27 -10 0 -16 -13 -18 -42z"/>
<path d="M10498 5293 c7 -3 16 -2 19 1 4 3 -2 6 -13 5 -11 0 -14 -3 -6 -6z"/>
<path d="M10828 5293 c7 -3 16 -2 19 1 4 3 -2 6 -13 5 -11 0 -14 -3 -6 -6z"/>
<path d="M11886 5284 c-9 -24 -7 -28 9 -14 17 14 20 30 6 30 -5 0 -12 -7 -15
-16z"/>
<path d="M13793 5265 c-22 -35 -19 -46 6 -22 21 19 9 -121 -14 -159 l-17 -29
21 24 c12 13 21 32 21 42 0 15 8 19 43 21 l42 1 -37 4 c-29 3 -38 9 -38 23 0
10 6 21 13 23 9 4 9 8 -2 15 -22 16 -3 32 40 32 41 0 42 2 33 38 -4 14 -13 22
-28 21 -15 -1 -16 -3 -5 -6 10 -2 19 -13 22 -24 5 -17 0 -19 -39 -19 -42 0
-44 1 -38 25 8 33 3 31 -23 -10z"/>
<path d="M2428 5283 c7 -3 16 -2 19 1 4 3 -2 6 -13 5 -11 0 -14 -3 -6 -6z"/>
<path d="M3565 5270 c-10 -11 -15 -23 -12 -26 4 -4 9 1 13 10 6 16 30 21 58
10 10 -4 16 -18 16 -40 0 -28 -10 -45 -47 -85 -25 -27 -44 -51 -42 -52 10 -8
123 9 126 19 3 8 -13 10 -48 6 l-52 -5 41 44 c49 52 61 92 36 120 -22 25 -66
24 -89 -1z"/>
<path d="M5721 5259 c-1 -34 1 -36 27 -31 24 5 26 4 13 -11 -12 -15 -9 -17 35
-17 27 0 44 -4 38 -8 -6 -4 -8 -16 -4 -26 7 -22 14 -14 23 24 6 24 5 25 -33
22 -27 -3 -40 0 -40 8 0 8 9 11 25 8 21 -4 25 -1 25 18 0 16 -6 24 -16 24 -14
0 -14 -3 -4 -15 11 -13 7 -15 -29 -15 -41 0 -56 15 -23 23 13 4 12 5 -5 6 -12
0 -24 7 -26 14 -3 6 -6 -4 -6 -24z"/>
<path d="M8354 5282 c2 -4 -4 -45 -15 -92 -22 -94 -20 -111 13 -109 19 1 20 2
4 6 -15 4 -17 12 -13 46 6 40 27 67 54 67 30 0 28 -63 -3 -94 -8 -9 -11 -16
-5 -16 15 0 51 55 51 78 0 27 -25 45 -55 40 -20 -4 -24 -2 -21 11 18 59 18 71
1 71 -9 0 -14 -4 -11 -8z"/>
<path d="M11786 5277 c3 -10 9 -15 12 -12 3 3 0 11 -7 18 -10 9 -11 8 -5 -6z"/>
<path d="M1700 5196 c0 -47 -5 -97 -10 -112 -6 -15 -8 -29 -6 -32 12 -11 28
56 28 111 l-1 57 41 0 41 0 -6 -35 c-3 -19 -1 -37 4 -40 8 -5 13 63 7 82 -2 4
-23 6 -47 4 -42 -3 -43 -2 -39 23 3 14 1 26 -3 26 -5 0 -9 -38 -9 -84z"/>
<path d="M1822 5187 c-2 -61 -8 -100 -18 -115 -9 -13 -13 -26 -11 -29 9 -8 34
50 42 97 4 25 7 64 6 87 -1 32 3 43 16 46 12 3 10 5 -7 6 -25 1 -25 0 -28 -92z"/>
<path d="M2560 5274 c0 -5 7 -18 15 -28 12 -16 15 -17 15 -4 0 8 -7 21 -15 28
-8 7 -15 9 -15 4z"/>
<path d="M6936 5273 c-11 -11 -6 -23 9 -23 8 0 15 4 15 9 0 13 -16 22 -24 14z"/>
<path d="M12340 5273 c0 -5 9 -18 20 -28 11 -10 20 -14 20 -8 0 5 -9 18 -20
28 -11 10 -20 14 -20 8z"/>
<path d="M13315 5270 c-28 -7 -27 -8 13 -9 27 -1 41 3 37 9 -7 11 -7 11 -50 0z"/>
<path d="M14001 5256 c7 -15 15 -23 17 -16 3 7 -3 19 -13 28 -15 16 -16 15 -4
-12z"/>
<path d="M166 5254 c-9 -24 -8 -26 13 -14 24 12 68 13 75 2 3 -5 -8 -44 -25
-86 -17 -43 -28 -81 -25 -84 3 -3 8 -3 9 -1 5 5 67 186 67 194 0 3 -24 5 -54
5 -40 0 -55 -4 -60 -16z"/>
<path d="M1100 5245 c0 -17 6 -25 17 -25 13 0 14 3 6 11 -6 6 -9 18 -6 25 3 8
0 14 -6 14 -6 0 -11 -11 -11 -25z"/>
<path d="M1188 5264 c-4 -3 -4 -12 -1 -20 3 -10 -3 -14 -20 -14 -18 0 -25 -5
-23 -17 2 -10 7 -16 12 -13 5 3 8 8 7 13 -2 4 6 7 16 7 21 0 37 28 23 42 -5 5
-11 6 -14 2z"/>
<path d="M8866 5260 c-18 -6 -19 -7 -1 -13 16 -7 17 -15 11 -80 -8 -77 -28
-122 -52 -113 -8 3 -14 1 -14 -4 0 -21 50 -10 60 13 12 26 29 197 21 201 -4 2
-15 0 -25 -4z"/>
<path d="M10540 5259 c0 -5 5 -7 10 -4 6 3 10 8 10 11 0 2 -4 4 -10 4 -5 0
-10 -5 -10 -11z"/>
<path d="M10655 5260 c-3 -5 3 -10 14 -10 12 0 21 5 21 10 0 6 -6 10 -14 10
-8 0 -18 -4 -21 -10z"/>
<path d="M10830 5250 c0 -11 7 -20 15 -20 9 0 12 6 9 15 -5 12 3 15 35 15 23
0 41 -4 41 -10 0 -5 -13 -10 -30 -10 -21 0 -28 -4 -24 -14 4 -11 -5 -16 -38
-19 -28 -2 -17 -4 32 -5 l75 -2 3 -50 3 -50 -61 0 -62 0 3 40 c2 21 0 42 -4
46 -4 4 -7 -17 -7 -47 l0 -54 67 0 c38 0 71 4 74 9 4 4 7 29 7 54 1 26 6 48
12 50 25 9 -4 20 -40 15 -26 -4 -40 -2 -40 6 0 6 11 11 25 11 18 0 25 5 25 20
0 18 -7 20 -60 20 -53 0 -60 -2 -60 -20z"/>
<path d="M5549 5253 c0 -5 0 -28 1 -53 2 -61 -15 -132 -35 -142 -8 -5 -13 -14
-9 -19 14 -23 43 24 49 80 3 31 8 75 10 99 3 24 0 42 -5 42 -6 0 -10 -3 -11
-7z"/>
<path d="M9190 5251 c0 -5 5 -13 10 -16 6 -3 10 -2 10 4 0 5 -4 13 -10 16 -5
3 -10 2 -10 -4z"/>
<path d="M9519 5251 c8 -5 10 -14 5 -22 -6 -12 -5 -12 9 0 23 19 21 31 -5 31
-17 0 -19 -3 -9 -9z"/>
<path d="M10443 5253 c15 -2 39 -2 55 0 15 2 2 4 -28 4 -30 0 -43 -2 -27 -4z"/>
<path d="M11515 5192 c2 -38 0 -74 -5 -82 -9 -15 -2 -40 11 -40 5 0 9 43 9 95
0 54 -4 95 -10 95 -5 0 -8 -29 -5 -68z"/>
<path d="M11650 5251 c24 -7 25 -10 25 -84 -1 -67 -4 -80 -25 -103 -23 -24
-23 -26 -5 -22 26 4 41 52 48 146 l5 72 -36 -1 c-32 -1 -34 -2 -12 -8z"/>
<path d="M12678 5254 c-3 -3 -1 -18 5 -34 8 -22 8 -33 0 -41 -7 -7 -8 -22 -1
-46 6 -24 6 -39 -2 -48 -12 -15 -6 -35 11 -35 5 0 9 46 9 105 0 94 -5 117 -22
99z"/>
<path d="M11329 5245 c-1 -3 -1 -16 -1 -30 0 -41 2 -46 12 -40 6 3 10 22 10
41 0 19 -4 34 -10 34 -5 0 -10 -2 -11 -5z"/>
<path d="M13933 5243 c18 -5 24 -33 6 -33 -5 0 -7 -5 -4 -10 4 -6 16 -8 27 -4
16 5 19 2 16 -18 -2 -18 -11 -24 -43 -29 -39 -6 -39 -6 13 -8 52 -1 52 -1 52
30 0 23 -5 32 -20 36 -15 4 -19 11 -15 24 5 16 1 19 -22 18 -17 -1 -21 -3 -10
-6z"/>
<path d="M4149 5210 c-4 -31 -8 -36 -39 -41 l-35 -6 35 -4 c31 -4 36 -8 41
-39 l6 -35 4 35 c4 31 8 36 39 41 l35 6 -35 4 c-31 4 -36 8 -41 39 l-6 35 -4
-35z"/>
<path d="M4769 5203 c-5 -53 1 -113 11 -113 5 0 8 15 7 33 -2 30 0 32 38 36
l40 5 -40 5 c-35 5 -40 9 -41 34 -2 42 -11 43 -15 0z"/>
<path d="M2242 5221 c-11 -7 -11 -9 0 -13 18 -7 39 2 32 13 -6 11 -15 11 -32
0z"/>
<path d="M3019 5225 c-1 -5 -1 -21 0 -35 1 -14 -8 -36 -19 -50 -17 -21 -21
-23 -30 -10 -5 8 -10 32 -10 53 0 34 -3 37 -27 37 -23 0 -25 -2 -11 -12 24
-19 32 -118 12 -146 -8 -13 -21 -21 -27 -20 -13 3 -22 -16 -9 -19 11 -3 32 17
79 74 51 62 67 98 53 121 -5 9 -10 13 -11 7z"/>
<path d="M4445 5219 c-4 -6 -12 -8 -19 -6 -8 3 -10 -6 -8 -29 3 -26 -2 -38
-23 -59 -32 -29 -50 -32 -59 -10 -8 21 23 81 48 93 16 8 17 11 4 11 -14 1 -66
-49 -69 -67 -12 -61 5 -81 49 -58 27 14 31 14 36 -1 10 -25 19 -8 37 68 16 68
17 79 4 58z"/>
<path d="M9350 5189 c0 -25 4 -38 10 -34 6 4 8 15 5 24 -7 24 12 39 60 44 33
3 29 4 -17 5 l-58 2 0 -41z"/>
<path d="M9473 5195 c-1 -19 3 -35 8 -35 5 0 9 16 9 35 0 19 -4 35 -8 35 -4 0
-8 -16 -9 -35z"/>
<path d="M10490 5220 c0 -5 7 -10 15 -10 8 0 15 5 15 10 0 6 -7 10 -15 10 -8
0 -15 -4 -15 -10z"/>
<path d="M10621 5191 c-11 -21 -36 -49 -56 -61 -43 -27 -47 -38 -4 -13 28 16
99 93 99 107 0 19 -22 0 -39 -33z"/>
<path d="M12280 5220 c0 -5 -13 -10 -30 -10 -29 0 -30 -2 -30 -45 0 -34 -4
-45 -16 -45 -14 0 -14 -2 1 -17 10 -9 15 -26 12 -40 -2 -12 0 -23 4 -23 5 0 9
16 9 35 l0 35 55 0 c48 0 55 -3 55 -20 0 -10 -7 -23 -16 -28 -13 -7 -14 -11
-4 -17 15 -9 30 12 30 43 0 14 6 22 18 22 16 1 16 1 -1 11 -14 8 -18 20 -15
52 l3 42 -34 -3 c-22 -3 -31 0 -27 7 4 6 2 11 -3 11 -6 0 -11 -4 -11 -10z m0
-40 c0 -15 -7 -20 -25 -20 -18 0 -25 5 -25 20 0 15 7 20 25 20 18 0 25 -5 25
-20z m58 3 c5 -17 -26 -29 -40 -15 -6 6 -7 15 -3 22 9 14 37 9 43 -7z m-58
-48 c0 -9 -9 -15 -25 -15 -16 0 -25 6 -25 15 0 9 9 15 25 15 16 0 25 -6 25
-15z m60 0 c0 -9 -9 -15 -25 -15 -16 0 -25 6 -25 15 0 9 9 15 25 15 16 0 25
-6 25 -15z"/>
<path d="M1918 5213 c-16 -4 -18 -16 -16 -91 l2 -87 3 79 c3 68 7 79 23 83 11
3 20 9 20 14 0 9 -4 10 -32 2z"/>
<path d="M2017 5209 c7 -7 15 -10 18 -7 3 3 -2 9 -12 12 -14 6 -15 5 -6 -5z"/>
<path d="M2098 5213 c6 -2 18 -2 25 0 6 3 1 5 -13 5 -14 0 -19 -2 -12 -5z"/>
<path d="M2140 5123 c0 -113 8 -122 11 -11 2 81 5 92 29 101 9 3 4 6 -12 6
l-28 1 0 -97z"/>
<path d="M3741 5210 c39 -22 25 -110 -16 -110 -8 0 -15 -4 -15 -10 0 -16 15
-12 35 10 10 11 21 20 25 20 4 0 10 -9 13 -20 3 -11 11 -20 17 -20 8 0 9 6 5
18 -4 9 -11 33 -15 52 -12 56 -21 70 -44 70 -18 -1 -19 -2 -5 -10z"/>
<path d="M3808 5209 c-27 -15 -21 -29 7 -16 14 7 25 15 25 20 0 10 -11 8 -32
-4z"/>
<path d="M4512 5213 c23 -6 35 -68 17 -89 -7 -9 -22 -19 -33 -23 -13 -5 -16
-10 -8 -15 7 -4 22 4 36 19 24 25 24 25 31 6 7 -23 30 -28 41 -9 4 7 3 8 -4 4
-8 -4 -16 4 -23 21 -13 35 3 73 31 73 11 0 20 5 20 10 0 15 -21 12 -43 -7 -18
-17 -19 -17 -28 0 -6 9 -20 16 -32 16 -16 -1 -18 -2 -5 -6z"/>
<path d="M7553 5184 c-21 -23 -33 -45 -33 -64 0 -38 14 -45 50 -26 26 12 30
12 30 0 0 -17 16 -19 26 -2 4 6 8 25 10 42 1 17 5 42 9 56 6 23 3 25 -26 27
-25 2 -39 -5 -66 -33z m62 15 c17 -26 -29 -99 -62 -99 -22 0 -14 47 13 79 27
33 39 38 49 20z"/>
<path d="M11800 5213 c0 -4 5 -15 10 -23 8 -13 10 -13 10 2 0 9 -4 20 -10 23
-5 3 -10 3 -10 -2z"/>
<path d="M11853 5194 c-13 -14 -23 -34 -23 -44 0 -13 -9 -20 -27 -23 l-28 -4
28 -2 c22 -1 27 -6 27 -26 0 -14 -7 -28 -15 -30 -8 -3 -22 -7 -31 -10 -9 -3
-14 -8 -11 -11 12 -12 78 18 76 34 -3 35 2 42 27 42 14 0 23 4 19 10 -3 5 -13
6 -21 3 -17 -6 -36 15 -28 29 3 4 16 8 30 8 13 0 24 5 24 10 0 6 -3 9 -7 9
-20 -3 -24 2 -13 16 22 26 -4 16 -27 -11z"/>
<path d="M1218 5203 c7 -3 16 -2 19 1 4 3 -2 6 -13 5 -11 0 -14 -3 -6 -6z"/>
<path d="M5718 5203 c7 -3 16 -2 19 1 4 3 -2 6 -13 5 -11 0 -14 -3 -6 -6z"/>
<path d="M6443 5176 c1 -28 4 -33 14 -24 16 13 13 50 -4 55 -7 3 -11 -9 -10
-31z"/>
<path d="M8800 5200 c0 -5 7 -10 15 -10 8 0 15 5 15 10 0 6 -7 10 -15 10 -8 0
-15 -4 -15 -10z"/>
<path d="M10074 5196 c-10 -26 0 -51 21 -51 16 0 20 7 20 30 0 33 -30 49 -41
21z m36 -27 c0 -10 -7 -19 -15 -19 -15 0 -21 31 -9 43 11 10 24 -3 24 -24z"/>
<path d="M13256 5201 c2 -3 17 -5 32 -6 26 0 27 -2 27 -54 -1 -44 -5 -57 -24
-72 -23 -18 -23 -19 -2 -19 21 0 32 28 45 118 l6 43 -45 -2 c-24 -2 -42 -5
-39 -8z"/>
<path d="M2438 5193 c6 -2 18 -2 25 0 6 3 1 5 -13 5 -14 0 -19 -2 -12 -5z"/>
<path d="M3168 5193 c23 -2 59 -2 80 0 20 2 1 4 -43 4 -44 0 -61 -2 -37 -4z"/>
<path d="M11236 5181 c-10 -11 -32 -26 -49 -35 -18 -8 -26 -16 -19 -16 7 0 27
7 43 16 32 16 51 12 32 -7 -6 -6 -28 -17 -49 -24 -31 -11 -34 -14 -14 -14 14
0 36 6 50 14 54 31 56 9 3 -24 -21 -12 -29 -20 -18 -16 50 18 55 18 55 -3 0
-11 -8 -23 -17 -25 -14 -4 -12 -5 5 -6 17 -1 24 6 29 29 7 36 7 36 40 10 37
-29 43 -14 8 15 -30 25 -28 34 10 48 6 3 7 8 3 12 -5 5 -16 1 -26 -8 -25 -23
-39 -21 -53 5 -10 18 -8 24 7 35 17 12 17 13 -3 13 -11 0 -28 -9 -37 -19z"/>
<path d="M12920 5192 c0 -7 4 -12 8 -12 5 0 14 -10 20 -22 7 -16 11 -18 11 -7
1 9 -8 24 -19 34 -11 10 -20 13 -20 7z"/>
<path d="M5471 5167 c7 -15 16 -27 21 -27 14 0 9 16 -13 36 -21 19 -21 19 -8
-9z"/>
<path d="M5700 5153 c0 -43 5 -41 13 5 4 18 2 32 -3 32 -6 0 -10 -16 -10 -37z"/>
<path d="M11605 5167 c10 -15 20 -25 23 -22 3 3 -5 16 -17 28 l-23 22 17 -28z"/>
<path d="M13622 5183 c-18 -4 -21 -9 -16 -28 5 -21 2 -24 -33 -28 l-38 -4 39
-1 c38 -2 38 -3 34 -37 l-4 -35 53 0 c29 0 53 5 53 10 0 6 -15 8 -40 4 -40 -6
-40 -6 -40 25 0 28 3 31 33 32 l32 2 -30 4 c-16 3 -34 9 -39 13 -12 12 10 38
37 43 19 4 19 4 2 4 -11 0 -30 -2 -43 -4z"/>
<path d="M1080 5124 c0 -47 3 -55 16 -50 9 3 21 6 27 7 7 0 2 4 -10 9 -17 7
-23 18 -23 40 0 16 5 30 10 30 6 0 10 5 10 10 0 6 -7 10 -15 10 -12 0 -15 -13
-15 -56z"/>
<path d="M1210 5164 c0 -8 5 -12 10 -9 6 3 10 10 10 16 0 5 -4 9 -10 9 -5 0
-10 -7 -10 -16z"/>
<path d="M10498 5173 c7 -3 16 -2 19 1 4 3 -2 6 -13 5 -11 0 -14 -3 -6 -6z"/>
<path d="M11930 5174 c0 -5 7 -19 15 -30 8 -10 15 -14 15 -8 0 5 -7 19 -15 30
-8 10 -15 14 -15 8z"/>
<path d="M2049 5123 c-18 -26 -25 -42 -15 -34 24 20 59 71 53 77 -3 3 -20 -16
-38 -43z"/>
<path d="M3418 5163 c23 -2 59 -2 80 0 20 2 1 4 -43 4 -44 0 -61 -2 -37 -4z"/>
<path d="M4713 5163 c9 -2 23 -2 30 0 6 3 -1 5 -18 5 -16 0 -22 -2 -12 -5z"/>
<path d="M9408 5163 c6 -2 12 -11 12 -20 0 -12 -10 -14 -47 -11 l-48 3 -1 -42
c0 -24 3 -43 8 -43 4 0 8 16 8 35 0 34 1 35 41 35 l40 0 -4 -40 c-2 -22 0 -40
5 -40 4 0 8 18 8 40 0 40 0 40 39 40 48 0 54 -8 36 -43 -12 -23 -12 -27 1 -27
8 0 14 3 15 8 0 7 6 39 11 64 2 10 -11 12 -51 9 -51 -3 -54 -2 -48 18 4 17 1
21 -16 20 -12 0 -16 -3 -9 -6z"/>
<path d="M10635 5131 c-17 -21 -49 -51 -72 -66 -24 -15 -43 -29 -43 -32 0 -5
13 2 67 39 l42 28 25 -33 c16 -19 26 -26 26 -17 0 9 -9 22 -20 30 -25 18 -25
25 1 61 31 44 7 35 -26 -10z"/>
<path d="M13558 5163 c7 -3 16 -2 19 1 4 3 -2 6 -13 5 -11 0 -14 -3 -6 -6z"/>
<path d="M1738 5153 c7 -3 16 -2 19 1 4 3 -2 6 -13 5 -11 0 -14 -3 -6 -6z"/>
<path d="M2231 5120 c18 -22 34 -40 36 -40 10 0 0 22 -23 49 -38 46 -50 38
-13 -9z"/>
<path d="M5736 5153 c-3 -3 -6 -15 -6 -25 0 -14 8 -18 40 -18 36 0 40 3 40 25
0 25 -14 33 -25 15 -3 -5 -1 -10 4 -10 6 0 11 -4 11 -10 0 -5 -12 -10 -26 -10
-19 0 -25 4 -21 15 7 15 -6 29 -17 18z"/>
<path d="M10850 5133 c0 -20 5 -23 40 -23 22 0 40 4 40 10 0 5 -13 7 -30 4
-19 -4 -30 -2 -30 5 0 6 14 11 30 11 17 0 30 4 30 8 0 4 -18 8 -40 7 -35 0
-40 -3 -40 -22z"/>
<path d="M14017 5154 c-3 -3 -3 -12 0 -20 9 -25 -7 -65 -30 -74 l-22 -9 22 0
c26 -1 34 10 43 61 7 36 1 55 -13 42z"/>
<path d="M1120 5126 c0 -20 4 -23 23 -18 18 5 19 7 5 10 -21 4 -24 18 -5 25 7
3 5 6 -5 6 -13 1 -18 -7 -18 -23z"/>
<path d="M1173 5125 c0 -14 3 -25 8 -25 5 0 9 11 9 25 0 14 -4 25 -9 25 -5 0
-8 -11 -8 -25z"/>
<path d="M2473 5143 c9 -2 23 -2 30 0 6 3 -1 5 -18 5 -16 0 -22 -2 -12 -5z"/>
<path d="M8775 5140 l-50 -7 58 -1 c32 -1 57 2 57 8 0 6 -3 9 -7 8 -5 0 -30
-4 -58 -8z"/>
<path d="M9205 5131 c8 -27 -11 -70 -37 -81 l-23 -9 22 0 c26 -1 48 29 57 77
4 25 2 32 -10 32 -10 0 -13 -6 -9 -19z"/>
<path d="M3168 5133 c23 -2 59 -2 80 0 20 2 1 4 -43 4 -44 0 -61 -2 -37 -4z"/>
<path d="M10430 5082 c0 -45 2 -51 14 -40 8 8 10 17 5 24 -16 20 2 54 28 54
24 0 25 -3 20 -35 -3 -19 -1 -37 4 -40 8 -5 14 63 7 81 -2 4 -20 7 -41 8 l-37
1 0 -53z"/>
<path d="M2546 5105 c4 -8 10 -15 15 -15 4 0 6 7 3 15 -4 8 -10 15 -15 15 -4
0 -6 -7 -3 -15z"/>
<path d="M9156 5107 c3 -10 9 -15 12 -12 3 3 0 11 -7 18 -10 9 -11 8 -5 -6z"/>
<path d="M12520 5110 c0 -5 7 -7 15 -4 8 4 15 8 15 10 0 2 -7 4 -15 4 -8 0
-15 -4 -15 -10z"/>
<path d="M13920 5115 c0 -5 5 -17 10 -25 5 -8 10 -10 10 -5 0 6 -5 17 -10 25
-5 8 -10 11 -10 5z"/>
<path d="M13976 5107 c3 -10 9 -15 12 -12 3 3 0 11 -7 18 -10 9 -11 8 -5 -6z"/>
<path d="M2450 5103 c0 -4 5 -15 10 -23 8 -13 10 -13 10 2 0 9 -4 20 -10 23
-5 3 -10 3 -10 -2z"/>
<path d="M2500 5101 c0 -5 5 -13 10 -16 6 -3 10 -2 10 4 0 5 -4 13 -10 16 -5
3 -10 2 -10 -4z"/>
<path d="M5805 5100 l-30 -6 30 -6 c32 -7 39 -5 34 9 -2 5 -17 6 -34 3z"/>
<path d="M9012 5085 c-7 -15 -11 -30 -8 -32 7 -7 28 36 24 49 -2 6 -9 -2 -16
-17z"/>
<path d="M9120 5090 c6 -11 13 -20 16 -20 2 0 0 9 -6 20 -6 11 -13 20 -16 20
-2 0 0 -9 6 -20z"/>
<path d="M11120 5081 c0 -39 17 -49 18 -11 0 16 -4 32 -9 35 -5 4 -9 -7 -9
-24z"/>
<path d="M13820 5091 c-12 -24 -13 -34 -1 -27 9 6 22 46 15 46 -2 0 -8 -9 -14
-19z"/>
<path d="M327 5094 c-8 -8 1 -24 14 -24 5 0 9 7 9 15 0 15 -12 20 -23 9z"/>
<path d="M1196 5091 c-19 -7 -19 -8 2 -13 15 -4 22 -2 22 8 0 8 -1 14 -2 13
-2 0 -12 -4 -22 -8z"/>
<path d="M2392 5079 c-7 -11 -11 -23 -9 -25 7 -7 29 24 25 36 -2 6 -9 1 -16
-11z"/>
<path d="M6781 5086 c-7 -8 -28 -22 -47 -31 -20 -9 -33 -19 -31 -22 3 -2 28 9
57 25 28 16 47 32 42 36 -5 3 -15 -1 -21 -8z"/>
<path d="M9071 5084 c0 -11 3 -14 6 -6 3 7 2 16 -1 19 -3 4 -6 -2 -5 -13z"/>
<path d="M13881 5084 c0 -11 3 -14 6 -6 3 7 2 16 -1 19 -3 4 -6 -2 -5 -13z"/>
<path d="M6910 5061 c34 -29 49 -34 35 -12 -3 6 -21 18 -38 27 l-32 15 35 -30z"/>
<path d="M7920 5060 c-9 -6 -10 -10 -3 -10 6 0 15 5 18 10 8 12 4 12 -15 0z"/>
<path d="M10817 5053 c18 -2 50 -2 70 0 21 2 7 4 -32 4 -38 0 -55 -2 -38 -4z"/>
<path d="M13115 5050 c-3 -6 1 -7 9 -4 18 7 21 14 7 14 -6 0 -13 -4 -16 -10z"/>
<path d="M1957 4428 c-13 -29 -30 -71 -36 -91 -7 -20 -17 -39 -22 -42 -16 -10
-10 -25 11 -25 13 0 19 6 18 18 -3 40 2 52 25 52 16 0 18 3 8 9 -14 9 -7 66
10 77 15 9 39 -58 27 -73 -8 -10 -6 -13 6 -13 17 0 32 -42 21 -59 -4 -7 6 -11
25 -11 29 0 30 1 16 23 -7 12 -26 56 -41 97 -15 41 -31 79 -36 84 -4 5 -19
-16 -32 -46z"/>
<path d="M3322 4468 c-7 -7 -12 -16 -12 -22 0 -6 5 -5 12 2 19 19 56 14 68 -8
13 -25 6 -53 -23 -85 -40 -43 -58 -67 -55 -70 3 -4 64 -8 89 -6 9 1 19 7 22
14 4 11 -5 12 -39 7 -24 -4 -44 -3 -44 1 0 4 16 26 35 49 45 53 53 85 30 110
-20 22 -65 26 -83 8z"/>
<path d="M2864 4395 c10 -8 19 -27 21 -42 1 -15 7 -41 14 -57 9 -23 14 -26 26
-16 16 13 21 25 7 16 -5 -3 -14 10 -19 29 -9 28 -8 37 6 49 10 9 24 16 31 16
11 0 11 3 2 12 -9 9 -16 7 -32 -7 -18 -16 -20 -16 -26 -1 -3 9 -16 16 -28 16
-20 -1 -20 -1 -2 -15z"/>
<path d="M3702 4391 c-8 -5 -12 -17 -10 -27 5 -29 62 -26 66 2 2 13 -4 24 -14
28 -14 5 -15 4 -4 -9 16 -20 -1 -41 -25 -31 -13 4 -14 10 -5 26 12 22 11 23
-8 11z"/>
<path d="M9200 4389 c0 -5 4 -8 9 -5 13 9 21 -19 21 -77 0 -54 -21 -90 -46
-80 -8 3 -14 -1 -14 -11 0 -24 13 -20 53 19 44 43 65 78 42 69 -12 -5 -15 2
-15 29 0 20 -3 42 -6 51 -7 18 -44 22 -44 5z"/>
<path d="M9303 4378 c4 -12 1 -28 -5 -35 -7 -8 -7 -13 0 -13 5 0 13 7 16 16
10 25 7 54 -5 54 -7 0 -9 -9 -6 -22z"/>
<path d="M3052 4385 c9 -9 148 -12 148 -4 0 5 -34 9 -77 9 -42 0 -74 -2 -71
-5z"/>
<path d="M3060 4330 c0 -6 29 -9 70 -9 39 1 70 5 70 10 0 5 -31 9 -70 9 -40 0
-70 -4 -70 -10z"/>
<path d="M9377 4202 c-31 -64 -57 -120 -57 -124 0 -12 20 -10 20 2 0 5 14 40
32 77 65 136 62 162 56 -516 -4 -441 -9 -616 -17 -621 -7 -3 -187 -6 -402 -6
-215 1 -396 -2 -402 -6 -7 -4 29 -8 78 -8 50 -1 235 -2 412 -3 l323 -2 0 -897
0 -898 -35 -1 c-52 -2 -55 -3 -52 -14 1 -5 19 -8 40 -7 26 3 37 0 37 -10 -1
-14 -20 -91 -44 -178 -9 -30 -29 -121 -46 -201 -16 -80 -36 -165 -44 -190 -15
-46 -66 -277 -66 -297 0 -7 4 -12 9 -12 4 0 16 39 25 88 10 48 33 148 51 222
19 74 41 171 50 215 29 144 57 255 67 261 7 4 9 -136 6 -410 -3 -229 -1 -416
4 -416 4 0 8 46 9 103 1 56 3 262 4 457 2 195 3 358 4 363 1 4 19 7 41 7 23 0
40 5 40 11 0 7 -15 10 -40 7 -44 -4 -44 -3 -29 62 6 25 12 53 14 62 2 9 18 65
35 125 18 59 45 158 61 218 16 61 47 164 68 230 21 66 53 167 71 225 17 58 37
119 44 135 8 17 34 91 59 165 66 193 108 311 153 423 38 95 39 97 51 70 13
-30 13 -31 16 47 l2 35 784 0 785 0 23 -60 c13 -33 31 -74 39 -92 31 -67 103
-264 142 -388 80 -251 141 -450 152 -495 6 -25 27 -94 46 -153 19 -60 46 -154
59 -210 13 -56 37 -154 53 -217 16 -63 42 -171 57 -240 15 -69 33 -143 40
-165 7 -22 26 -101 43 -175 18 -74 51 -216 74 -315 22 -99 45 -184 50 -190 14
-16 9 23 -18 128 -14 56 -36 153 -50 217 -13 63 -30 142 -38 175 -130 537
-217 887 -237 946 -10 31 -32 105 -50 165 -17 60 -37 129 -44 154 -8 25 -32
106 -55 180 -69 231 -131 410 -191 550 -31 74 -59 146 -61 160 l-3 25 883 3
c485 2 882 -1 882 -5 -1 -4 -41 -28 -90 -52 -50 -24 -90 -47 -90 -52 0 -5 2
-9 5 -9 13 0 245 123 245 130 0 4 -24 18 -52 30 -29 12 -84 38 -122 56 -38 19
-71 32 -74 29 -8 -8 28 -33 66 -46 55 -19 120 -59 97 -60 -23 0 -1732 0 -1756
0 -10 1 -34 41 -68 114 -29 61 -73 145 -97 185 -24 40 -44 75 -44 77 0 8 -114
191 -149 240 -72 99 -194 210 -272 249 -70 34 -80 36 -174 37 -141 1 -230 -37
-344 -145 -69 -66 -184 -221 -245 -331 -16 -27 -48 -84 -71 -125 -24 -41 -60
-114 -80 -162 -37 -86 -55 -109 -55 -67 0 11 -5 17 -10 14 -6 -4 -8 -24 -6
-45 4 -33 2 -39 -18 -44 -13 -3 -138 -5 -279 -5 -229 1 -256 2 -259 17 -2 9
-2 290 0 624 l4 608 27 -43 c15 -23 40 -69 55 -102 16 -33 31 -54 33 -48 5 15
-109 245 -123 250 -5 1 -35 -50 -67 -115z m1598 -332 c109 -50 220 -162 333
-339 89 -140 266 -473 267 -503 0 -9 -1534 -18 -1539 -9 -2 3 7 29 20 56 13
28 42 88 63 135 41 86 57 114 132 237 23 37 57 93 76 123 52 85 169 210 242
259 88 59 163 79 273 70 53 -4 101 -14 133 -29z m-988 -884 c3 -3 -15 -59 -42
-123 -26 -65 -66 -172 -90 -238 -23 -66 -68 -192 -99 -280 -31 -88 -68 -198
-82 -245 -14 -47 -43 -137 -64 -200 -22 -63 -51 -162 -65 -220 -15 -58 -39
-148 -55 -200 -16 -52 -33 -111 -38 -130 -7 -24 -10 232 -11 794 0 475 3 834
8 840 10 11 527 13 538 2z"/>
<path d="M2855 4300 c-3 -5 -12 -7 -20 -3 -8 3 -15 0 -15 -6 0 -16 25 -13 40
4 7 8 10 15 7 15 -3 0 -8 -4 -12 -10z"/>
<path d="M2120 4285 c0 -8 5 -15 10 -15 6 0 10 7 10 15 0 8 -4 15 -10 15 -5 0
-10 -7 -10 -15z"/>
<path d="M12207 4217 c-16 -11 -14 -12 15 -12 30 0 33 -2 31 -30 -1 -16 -7
-31 -13 -33 -5 -2 -10 -9 -10 -15 1 -15 50 44 50 60 0 15 -28 43 -44 43 -7 0
-20 -6 -29 -13z"/>
<path d="M13276 4146 c3 -7 -4 -48 -15 -91 -26 -96 -26 -102 -2 -110 27 -8 70
15 87 46 29 56 9 104 -37 92 -22 -6 -23 -1 -10 45 8 28 7 32 -9 32 -12 0 -17
-5 -14 -14z m64 -111 c0 -39 -36 -85 -66 -85 -14 0 -16 7 -11 36 8 48 33 84
57 84 16 0 20 -7 20 -35z"/>
<path d="M11882 4138 c-7 -7 -12 -16 -12 -22 0 -6 5 -5 12 2 7 7 24 12 39 12
38 0 47 -40 19 -87 -26 -44 -20 -54 9 -14 30 42 37 84 16 104 -19 20 -66 22
-83 5z"/>
<path d="M12200 4095 c-12 -15 -9 -16 30 -13 24 2 45 9 48 16 3 9 -2 10 -21 3
-15 -6 -28 -6 -34 0 -6 6 -15 4 -23 -6z"/>
<path d="M12470 4075 c-5 -37 -8 -41 -40 -46 l-35 -6 37 -2 c35 -1 37 -3 41
-38 l4 -38 1 38 c2 36 3 37 40 38 38 1 36 3 -10 13 -22 5 -27 12 -30 44 l-4
37 -4 -40z"/>
<path d="M13079 4075 c-4 -38 -6 -40 -36 -39 -18 1 -33 -2 -33 -7 0 -5 15 -9
34 -9 33 0 35 -2 39 -37 l4 -38 1 38 c2 35 4 37 37 37 19 0 35 4 35 9 0 5 -15
8 -32 7 -31 -1 -33 1 -39 39 l-5 40 -5 -40z"/>
<path d="M12665 4058 c-43 -41 -56 -91 -27 -107 14 -8 24 -7 38 4 18 13 18 14
-3 8 -46 -11 -37 56 13 102 15 14 24 25 20 25 -3 0 -22 -15 -41 -32z"/>
<path d="M11247 4072 c7 -4 15 -37 19 -73 8 -76 0 -87 -65 -98 -3 -1 0 -6 7
-13 15 -15 40 7 99 86 40 55 56 106 32 106 -6 0 -8 -8 -4 -19 3 -11 -4 -35
-17 -57 l-23 -39 -9 58 c-8 48 -12 57 -30 57 -14 0 -17 -3 -9 -8z"/>
<path d="M12067 4049 c13 -26 13 -35 2 -56 -8 -14 -22 -29 -33 -33 -12 -4 -15
-9 -9 -13 6 -4 20 4 31 18 24 30 32 32 32 5 0 -21 33 -29 45 -10 3 6 -1 10 -9
10 -20 0 -32 48 -19 69 6 9 18 16 28 16 10 0 20 6 23 13 6 18 -18 15 -41 -5
-18 -17 -19 -17 -32 0 -21 29 -35 20 -18 -14z"/>
<path d="M12728 4053 c2 -13 -3 -34 -12 -47 -18 -28 -11 -59 11 -54 10 2 16
16 18 38 1 19 6 46 9 60 6 21 4 26 -12 26 -14 0 -17 -6 -14 -23z"/>
<path d="M12834 4064 c9 -8 16 -25 16 -37 0 -28 -28 -69 -41 -62 -5 4 -9 1 -9
-4 0 -19 25 -12 39 11 l13 21 18 -24 c10 -13 22 -21 26 -17 4 4 2 13 -3 20
-17 22 -23 61 -11 75 8 10 7 12 -4 8 -9 -4 -18 1 -21 9 -4 9 -14 16 -22 16
-15 0 -15 -1 -1 -16z"/>
<path d="M12908 4068 c9 -9 15 -9 24 0 9 9 7 12 -12 12 -19 0 -21 -3 -12 -12z"/>
<path d="M11488 4053 c23 -2 59 -2 80 0 20 2 1 4 -43 4 -44 0 -61 -2 -37 -4z"/>
<path d="M11770 4030 l-75 -6 78 -2 c46 -1 77 2 77 8 0 6 -1 9 -2 8 -2 -1 -37
-4 -78 -8z"/>
<path d="M11488 3993 c23 -2 59 -2 80 0 20 2 1 4 -43 4 -44 0 -61 -2 -37 -4z"/>
<path d="M11887 3972 c-19 -20 -18 -21 15 -27 36 -7 88 8 88 25 0 7 -6 8 -19
0 -29 -15 -59 -12 -63 6 -3 14 -6 13 -21 -4z"/>
<path d="M1905 3623 l0 -103 55 0 c59 1 83 12 94 47 5 15 1 27 -14 41 -18 17
-19 20 -5 32 39 33 4 72 -71 80 l-59 5 0 -102z m96 77 c39 -21 16 -70 -33 -70
-26 0 -28 3 -28 40 0 34 3 40 21 40 11 0 29 -5 40 -10z m7 -96 c43 -30 18 -74
-41 -74 -14 0 -28 7 -31 16 -8 21 -8 59 1 67 11 12 48 7 71 -9z"/>
<path d="M3314 3709 c-19 -22 -19 -22 2 -9 12 7 29 10 38 7 22 -9 22 -65 0
-74 -14 -5 -13 -9 7 -24 20 -15 22 -21 13 -46 -8 -23 -15 -28 -42 -27 -18 1
-32 -2 -32 -7 0 -18 60 -9 81 12 16 16 19 28 14 52 -4 18 -7 50 -8 72 -1 22
-6 46 -10 53 -12 19 -42 14 -63 -9z"/>
<path d="M2863 3636 c8 -8 17 -32 21 -53 3 -21 10 -45 16 -53 8 -13 12 -13 27
3 13 13 14 17 4 15 -18 -4 -31 41 -19 65 5 9 15 17 23 17 8 0 15 5 15 10 0 16
-27 12 -34 -5 -3 -8 -10 -15 -16 -15 -5 0 -10 7 -10 15 0 9 -9 15 -21 15 -18
0 -19 -2 -6 -14z"/>
<path d="M3697 3633 c-14 -14 -6 -42 14 -48 14 -5 27 -1 38 11 15 17 15 17 -1
5 -21 -16 -48 -8 -48 15 0 12 7 15 25 12 14 -3 25 -1 25 3 0 10 -44 12 -53 2z"/>
<path d="M3088 3623 c23 -2 59 -2 80 0 20 2 1 4 -43 4 -44 0 -61 -2 -37 -4z"/>
<path d="M3066 3570 c11 -4 45 -5 75 0 l54 8 -75 0 c-50 1 -68 -2 -54 -8z"/>
<path d="M2838 3542 c-10 -2 -18 -8 -18 -13 0 -11 11 -11 30 1 18 11 11 18
-12 12z"/>
<path d="M2110 3530 c0 -5 5 -10 10 -10 6 0 10 5 10 10 0 6 -4 10 -10 10 -5 0
-10 -4 -10 -10z"/>
<path d="M1926 2948 c-69 -60 -42 -167 44 -181 28 -5 80 18 80 35 0 6 -8 4
-18 -5 -27 -25 -78 -22 -96 5 -24 34 -21 113 5 139 27 27 79 23 95 -8 13 -28
23 -21 17 10 -4 20 -11 24 -53 26 -38 1 -53 -3 -74 -21z"/>
<path d="M3332 2958 c-21 -27 -24 -58 -6 -65 33 -13 54 -37 54 -64 0 -34 -23
-53 -55 -45 -14 4 -25 2 -25 -4 0 -5 3 -10 8 -11 4 0 14 -2 23 -4 30 -6 69 42
69 84 0 22 -23 50 -56 70 -17 9 -17 12 -4 21 8 5 25 10 38 10 12 0 22 5 22 10
0 14 -56 12 -68 -2z"/>
<path d="M2864 2878 c23 -33 20 -53 -15 -82 -17 -14 -25 -26 -17 -26 7 0 19 9
26 20 14 23 32 26 32 6 0 -7 6 -18 13 -24 9 -8 16 -6 25 8 10 16 9 18 -3 14
-10 -4 -16 5 -21 33 -9 50 -21 73 -40 73 -13 0 -13 -2 0 -22z"/>
<path d="M2921 2886 c-10 -12 -8 -13 8 -9 12 3 21 9 21 14 0 14 -16 11 -29 -5z"/>
<path d="M3052 2875 c7 -8 128 -8 135 -1 4 3 -27 6 -67 6 -40 0 -71 -2 -68 -5z"/>
<path d="M3691 2857 c-1 -25 2 -28 26 -25 14 2 27 8 28 13 1 6 0 7 -2 3 -10
-18 -42 -7 -46 15 -4 18 -4 17 -6 -6z"/>
<path d="M9201 2853 c-34 -27 -61 -76 -61 -113 0 -52 79 -78 130 -43 41 29 49
39 62 86 10 39 9 49 -5 71 -10 14 -24 26 -32 26 -12 0 -10 -5 5 -20 23 -23 24
-34 9 -81 -24 -71 -92 -112 -127 -77 -31 31 -4 119 50 160 13 10 19 18 13 18
-5 0 -25 -12 -44 -27z"/>
<path d="M13434 2834 c9 -8 16 -26 16 -39 0 -40 18 -77 37 -73 9 2 18 9 21 16
2 7 -2 10 -11 6 -10 -3 -17 3 -21 21 -8 30 8 65 29 65 8 0 15 5 15 10 0 15
-11 12 -33 -7 -18 -17 -19 -17 -28 0 -6 9 -17 17 -25 17 -14 0 -14 -2 0 -16z"/>
<path d="M3050 2820 c0 -6 30 -10 70 -10 40 0 70 4 70 10 0 6 -30 10 -70 10
-40 0 -70 -4 -70 -10z"/>
<path d="M2100 2780 c0 -5 7 -10 15 -10 8 0 15 5 15 10 0 6 -7 10 -15 10 -8 0
-15 -4 -15 -10z"/>
<path d="M10010 2750 c-10 -6 -11 -10 -2 -10 9 0 12 -25 12 -90 0 -84 1 -90
20 -90 17 0 19 4 12 17 -5 9 -7 54 -4 100 5 87 0 97 -38 73z"/>
<path d="M13385 2730 c-3 -5 3 -10 14 -10 11 0 23 5 26 10 3 6 -3 10 -14 10
-11 0 -23 -4 -26 -10z"/>
<path d="M1902 2180 c5 -17 8 -63 6 -102 l-4 -70 59 5 c86 8 125 51 111 124
-9 48 -52 73 -126 73 l-57 0 11 -30z m110 6 c25 -18 38 -61 31 -96 -7 -38 -49
-72 -82 -68 -25 3 -26 5 -29 91 l-3 87 33 0 c18 0 41 -6 50 -14z"/>
<path d="M3332 2198 c-15 -15 -16 -50 -1 -65 9 -9 8 -21 -5 -48 -17 -35 -17
-38 0 -56 9 -10 22 -19 28 -19 6 0 5 5 -2 12 -14 14 -16 57 -3 76 6 11 13 7
30 -16 26 -37 26 -48 4 -61 -16 -9 -16 -10 -2 -11 37 0 54 51 26 80 -20 22
-20 24 -4 52 13 22 14 34 7 49 -12 22 -59 26 -78 7z m62 -14 c6 -16 -9 -54
-22 -54 -13 0 -32 39 -26 55 8 20 40 19 48 -1z"/>
<path d="M2864 2121 c13 -14 16 -33 14 -76 -3 -58 -7 -64 -53 -81 -20 -7 -20
-7 0 -12 31 -7 145 127 145 171 0 9 -5 17 -11 17 -6 0 -8 -7 -5 -16 7 -17 -29
-84 -45 -84 -5 0 -9 12 -9 28 0 48 -11 72 -33 72 -19 0 -19 -1 -3 -19z"/>
<path d="M3692 2103 c2 -22 8 -28 28 -28 26 0 40 29 22 47 -6 6 -8 0 -4 -17 4
-22 1 -26 -14 -23 -12 2 -19 12 -18 26 0 12 -3 22 -8 22 -5 0 -8 -12 -6 -27z"/>
<path d="M3103 2113 c20 -2 54 -2 75 0 20 2 3 4 -38 4 -41 0 -58 -2 -37 -4z"/>
<path d="M3070 2060 c0 -6 30 -10 70 -10 40 0 70 4 70 10 0 6 -30 10 -70 10
-40 0 -70 -4 -70 -10z"/>
<path d="M2126 2031 c-4 -7 -5 -15 -2 -18 9 -9 19 4 14 18 -4 11 -6 11 -12 0z"/>
<path d="M9000 1300 c-10 -6 -11 -10 -2 -10 16 0 17 -161 0 -178 -9 -9 -4 -12
22 -12 26 0 31 3 22 12 -8 8 -12 46 -12 105 0 51 -3 93 -7 93 -5 0 -15 -5 -23
-10z"/>
<path d="M9130 1295 c-6 -8 -14 -40 -17 -72 -8 -100 49 -157 96 -97 26 33 29
128 5 162 -18 26 -65 30 -84 7z m70 -25 c8 -19 10 -50 7 -82 -12 -95 -59 -102
-73 -11 -14 94 36 165 66 93z"/>
<path d="M8794 1181 c20 -8 126 -5 134 4 3 3 -30 5 -74 4 -46 0 -71 -4 -60 -8z"/>
</g>
</svg>
