<?xml version="1.0" standalone="no"?>
<!DOCTYPE svg PUBLIC "-//W3C//DTD SVG 20010904//EN"
 "http://www.w3.org/TR/2001/REC-SVG-20010904/DTD/svg10.dtd">
<svg version="1.0" xmlns="http://www.w3.org/2000/svg"
 width="1478.000000pt" height="642.000000pt" viewBox="0 0 1478.000000 642.000000"
 preserveAspectRatio="xMidYMid meet">
<metadata>
Created by potrace 1.16, written by Peter Selinger 2001-2019
</metadata>
<g transform="translate(0.000000,642.000000) scale(0.100000,-0.100000)"
fill="#000000" stroke="none">
<path d="M13539 6152 c-9 -26 -19 -55 -23 -65 -7 -13 -5 -16 9 -11 14 6 16 -2
15 -67 -2 -118 3 -104 10 26 4 66 10 130 14 143 5 12 4 22 0 22 -5 0 -16 -22
-25 -48z"/>
<path d="M13960 6185 c0 -8 -5 -15 -10 -15 -6 0 -5 -8 2 -21 11 -17 10 -22 -6
-35 -19 -14 -19 -14 1 -14 15 0 22 8 27 30 4 24 11 30 31 30 15 0 24 4 21 9
-3 4 -17 6 -31 3 -20 -3 -24 -1 -19 12 3 9 1 16 -5 16 -6 0 -11 -7 -11 -15z"/>
<path d="M13300 6180 c-12 -8 -10 -10 8 -10 13 0 20 4 17 10 -7 12 -6 12 -25
0z"/>
<path d="M13422 6153 c1 -21 1 -75 0 -120 l-2 -83 -27 -1 -28 0 24 -10 c46
-18 50 -9 53 125 2 93 0 126 -9 126 -7 0 -12 -14 -11 -37z"/>
<path d="M13753 6182 c-7 -4 -45 -9 -85 -11 -40 -1 -75 -5 -78 -8 -3 -3 29 -3
70 -1 l75 3 3 -108 3 -107 -33 -1 -33 -1 29 -8 c16 -5 33 -7 38 -4 4 3 8 54 8
114 0 90 3 111 16 118 9 5 12 12 7 15 -5 3 -14 2 -20 -1z"/>
<path d="M14030 6138 c-27 -30 -68 -62 -105 -79 -47 -24 -54 -29 -30 -27 25 3
30 -1 36 -27 7 -32 11 -27 13 15 1 23 5 25 58 28 l58 3 -3 -52 c-1 -30 3 -54
9 -56 7 -2 11 19 12 57 l1 60 -61 0 -61 0 26 20 c14 11 29 20 34 20 7 0 49 49
67 78 17 28 -12 7 -54 -40z"/>
<path d="M14300 6180 c-77 -4 -94 -7 -52 -8 l63 -2 -3 -102 -3 -103 -33 -3
-34 -3 4 75 c2 42 0 76 -4 76 -4 0 -8 -33 -10 -72 -3 -72 -3 -73 -33 -79 -16
-4 34 -7 113 -8 78 0 142 3 142 8 0 5 -29 6 -65 3 l-65 -5 0 57 0 56 51 0 c27
0 48 4 45 9 -3 5 -26 6 -51 3 l-46 -5 3 44 3 44 58 3 c31 2 57 7 57 12 0 6 -6
9 -12 8 -7 -1 -65 -5 -128 -8z"/>
<path d="M12965 6170 c-99 -4 -109 -6 -60 -10 l60 -5 2 -109 c1 -59 4 -111 7
-114 3 -3 6 31 6 76 0 90 4 95 52 61 16 -12 31 -19 34 -16 3 3 -15 17 -40 32
-34 20 -46 33 -46 51 0 23 3 24 60 24 33 0 60 4 60 10 0 6 -3 9 -7 8 -5 -1
-62 -5 -128 -8z"/>
<path d="M13220 6169 c-14 -4 -19 -7 -11 -8 19 -1 7 -54 -20 -93 l-22 -30 22
14 c19 11 24 11 35 -4 7 -10 17 -18 21 -18 5 0 -2 11 -15 25 -16 17 -20 28
-13 37 6 7 13 25 17 40 4 17 14 28 29 30 21 3 21 4 2 9 -11 3 -31 2 -45 -2z"/>
<path d="M10619 6138 c0 -18 0 -57 1 -86 l2 -53 -44 3 -43 3 -1 48 c-1 72 -14
69 -14 -4 l0 -64 50 3 50 4 0 -52 c0 -30 4 -49 10 -45 5 3 8 23 6 43 -2 20 1
42 6 49 5 7 5 14 -2 18 -14 9 -13 78 2 93 9 9 9 12 -1 12 -9 0 -11 9 -6 30 4
19 3 30 -4 30 -6 0 -11 -15 -12 -32z"/>
<path d="M13361 6083 c2 -92 6 -82 11 25 2 34 0 62 -4 62 -5 0 -7 -39 -7 -87z"/>
<path d="M10239 6148 c0 -7 -1 -52 -2 -100 -2 -76 0 -86 15 -85 10 1 14 5 9
12 -4 5 -8 27 -8 48 l-1 37 54 0 c49 0 54 2 55 23 0 12 2 34 4 50 2 15 -1 27
-6 27 -9 0 -12 -12 -13 -60 -1 -23 -5 -25 -46 -25 l-45 0 2 43 c1 23 -3 42 -8
42 -5 0 -9 -6 -10 -12z"/>
<path d="M8810 6124 c-6 -14 -10 -30 -10 -36 0 -14 13 -2 16 15 1 7 5 20 9 30
4 9 4 17 1 17 -4 0 -11 -12 -16 -26z"/>
<path d="M8920 6139 c0 -6 -11 -34 -25 -63 l-25 -51 29 35 c16 19 27 39 24 46
-2 7 0 15 6 19 14 8 14 25 1 25 -5 0 -10 -5 -10 -11z"/>
<path d="M9106 6123 c9 -36 14 -42 14 -15 0 28 -1 31 -12 38 -5 3 -6 -6 -2
-23z"/>
<path d="M9330 6129 c6 -10 9 -67 7 -129 -2 -60 0 -110 5 -110 4 0 8 54 8 120
0 66 1 123 3 127 1 3 -6 7 -15 9 -14 2 -16 -1 -8 -17z"/>
<path d="M9461 6101 c-11 -28 -26 -53 -31 -56 -6 -3 -10 -11 -10 -18 0 -6 7
-2 15 9 13 18 14 16 15 -20 0 -57 10 -38 16 30 2 31 11 68 19 81 9 13 11 23 6
23 -4 0 -18 -22 -30 -49z"/>
<path d="M9550 6142 c0 -6 -14 -24 -31 -41 -17 -17 -26 -31 -20 -31 6 0 11
-11 11 -24 0 -19 4 -23 20 -19 18 5 19 7 5 17 -21 15 -4 66 26 73 11 3 18 10
16 16 -4 14 -27 21 -27 9z"/>
<path d="M11086 6135 c-37 -28 -37 -155 0 -182 22 -16 36 -16 58 0 38 28 38
153 0 182 -24 18 -34 18 -58 0z m54 -14 c11 -21 13 -103 4 -138 -7 -25 -25
-35 -44 -23 -18 11 -26 130 -11 159 15 26 37 27 51 2z"/>
<path d="M6155 6121 c-11 -5 -47 -12 -80 -16 -50 -6 -64 -12 -84 -37 -24 -30
-24 -30 -3 -24 21 7 22 4 22 -51 0 -41 -6 -68 -21 -92 -11 -18 -18 -35 -16
-37 6 -6 32 35 41 64 5 15 16 22 34 23 21 1 22 2 7 6 -29 7 -41 21 -28 34 7 7
8 23 2 47 -12 53 -13 52 27 52 45 0 124 20 124 31 0 10 1 10 -25 0z"/>
<path d="M9607 6110 c3 -12 -1 -22 -10 -26 -9 -3 -13 -12 -10 -20 6 -17 -38
-61 -75 -75 -13 -5 -22 -12 -19 -15 3 -3 23 4 45 15 23 12 43 17 47 11 6 -10
-20 -27 -70 -47 -16 -6 -23 -12 -15 -12 8 0 34 8 57 19 25 11 45 15 49 9 3 -5
-20 -21 -50 -35 -71 -32 -72 -40 -3 -14 28 11 53 20 55 20 1 0 2 -9 2 -20 0
-14 -7 -20 -22 -20 -21 -1 -21 -2 -5 -11 20 -12 37 -4 37 16 0 25 22 63 44 74
17 10 21 21 21 61 0 46 -2 50 -24 50 -23 0 -24 -1 -6 -13 22 -17 12 -37 -20
-37 -33 0 -36 9 -15 53 18 36 18 37 0 37 -13 0 -17 -5 -13 -20z m63 -93 c0 -8
-9 -22 -21 -33 -20 -18 -21 -18 -35 1 -23 32 -17 45 21 45 23 0 35 -5 35 -13z"/>
<path d="M10395 6120 c-3 -5 1 -10 9 -10 9 0 16 5 16 10 0 6 -4 10 -9 10 -6 0
-13 -4 -16 -10z"/>
<path d="M11823 6098 c-35 -18 -63 -34 -63 -37 0 -6 69 -43 115 -63 l20 -9
-20 17 c-11 9 -35 22 -52 30 -18 8 -33 18 -33 23 0 4 18 16 40 26 22 10 45 24
51 32 15 18 13 17 -58 -19z"/>
<path d="M5080 6089 l0 -31 -55 4 -55 5 0 -62 0 -62 55 5 55 4 0 -56 c0 -36 4
-55 10 -51 6 3 10 29 10 57 l0 50 49 -4 c56 -3 61 2 61 78 l0 41 -55 -5 c-57
-5 -60 -2 -56 41 1 9 -3 17 -8 17 -6 0 -11 -14 -11 -31z m0 -84 l0 -45 -44 0
c-49 0 -62 16 -50 64 5 23 11 26 50 26 l44 0 0 -45z m110 0 l0 -45 -45 0 -45
0 0 45 0 45 45 0 45 0 0 -45z"/>
<path d="M5370 6104 c-14 -7 -33 -14 -42 -14 -16 0 -18 -10 -18 -77 0 -43 4
-73 8 -66 4 6 21 13 37 16 l30 4 -33 2 c-31 1 -33 3 -30 34 3 29 6 32 41 35
l39 3 -3 -43 c-2 -24 1 -43 6 -43 6 0 11 21 13 48 l3 47 -50 0 c-66 0 -69 22
-6 40 25 7 45 17 45 21 0 12 -10 10 -40 -7z"/>
<path d="M5490 6102 l-45 -16 -2 -59 c-1 -43 1 -57 9 -49 6 6 10 31 10 56 -1
45 -1 46 38 56 22 6 42 15 45 20 7 12 2 11 -55 -8z"/>
<path d="M7510 6102 c0 -9 -11 -53 -25 -96 -14 -43 -25 -83 -25 -87 0 -20 16
-7 27 21 6 17 16 30 23 30 6 0 16 -13 21 -30 12 -34 21 -37 39 -15 11 13 10
14 -2 10 -10 -4 -17 2 -22 17 -9 37 -7 44 20 72 15 14 22 26 16 26 -6 0 -25
-15 -41 -32 -30 -32 -31 -32 -31 -10 0 13 4 31 9 40 4 9 11 29 15 45 5 20 3
27 -9 27 -8 0 -15 -8 -15 -18z"/>
<path d="M8109 6099 c-11 -11 -18 -23 -15 -26 3 -3 13 2 22 11 9 10 23 15 31
12 8 -3 19 -6 24 -6 5 0 9 -16 9 -35 0 -26 -9 -46 -37 -77 -21 -24 -42 -46
-48 -50 -5 -4 18 -8 51 -8 48 0 63 4 68 16 5 12 2 15 -10 10 -69 -26 -85 -14
-45 35 58 71 63 111 14 130 -34 13 -40 12 -64 -12z"/>
<path d="M8422 6108 c-34 -34 6 -90 48 -68 25 13 28 65 4 74 -24 9 -39 7 -52
-6z m46 -7 c21 -13 10 -46 -16 -49 -17 -3 -22 1 -22 21 0 35 13 45 38 28z"/>
<path d="M9180 6093 c0 -16 6 -23 20 -23 11 0 20 -7 20 -15 0 -8 5 -15 11 -15
6 0 9 7 5 15 -4 11 1 15 19 15 16 0 25 6 25 15 0 8 1 18 3 21 1 4 -22 7 -51 8
-48 1 -52 -1 -52 -21z m90 -3 c0 -5 -18 -10 -40 -10 -22 0 -40 5 -40 10 0 6
18 10 40 10 22 0 40 -4 40 -10z"/>
<path d="M11332 6086 l-64 -32 71 -35 c39 -20 71 -32 71 -28 0 4 -25 19 -55
34 -30 14 -55 28 -55 30 0 2 25 15 55 29 30 14 55 27 55 30 0 11 -14 5 -78
-28z"/>
<path d="M13287 6114 c-3 -3 -3 -12 0 -19 7 -20 -45 -112 -80 -141 -16 -13
-23 -24 -17 -24 27 0 101 104 115 163 7 25 -3 36 -18 21z"/>
<path d="M13661 6111 c-10 -7 -11 -9 0 -13 8 -3 12 -20 11 -51 -1 -26 2 -47 8
-47 6 0 10 26 10 60 0 60 -4 67 -29 51z"/>
<path d="M3290 6100 c-14 -4 -41 -9 -60 -10 -23 -2 -28 -4 -15 -7 24 -6 37
-23 30 -40 -3 -9 6 -13 26 -13 24 0 30 -4 27 -17 -2 -13 -16 -20 -53 -24 -49
-6 -49 -6 18 -7 52 -2 67 -5 67 -17 0 -12 -16 -15 -80 -15 -73 0 -91 6 -73 23
12 13 8 67 -6 72 -11 4 -10 9 4 25 16 18 16 20 2 20 -10 0 -17 -5 -17 -12 0
-6 -10 -22 -21 -34 l-21 -23 21 6 c19 5 21 1 21 -43 l0 -49 105 3 105 3 0 -25
c0 -30 -35 -70 -52 -60 -7 4 -8 3 -4 -4 4 -7 15 -12 25 -12 18 0 33 27 45 83
6 24 3 27 -19 27 -22 0 -25 3 -19 26 5 21 3 25 -12 22 -15 -2 -18 2 -16 20 3
18 -1 22 -26 22 -25 0 -42 14 -42 35 0 2 20 7 45 11 25 3 45 10 45 15 0 10
-15 10 -50 -1z"/>
<path d="M3580 6085 c0 -31 -35 -35 -43 -5 -3 11 -10 20 -16 20 -9 0 -9 -5 -1
-20 9 -17 8 -20 -13 -20 -24 0 -47 -17 -47 -34 0 -5 8 -2 18 7 14 13 38 17
102 17 46 0 80 3 77 7 -4 3 0 15 10 25 11 12 12 18 4 18 -7 0 -21 -10 -30 -22
-22 -27 -56 -18 -46 12 4 11 2 20 -4 20 -6 0 -11 -11 -11 -25z"/>
<path d="M3860 6100 c0 -5 -11 -10 -24 -10 -26 0 -53 -25 -38 -34 5 -3 9 -27
9 -53 0 -40 3 -48 19 -50 10 -2 13 0 7 3 -21 9 -15 34 8 34 17 0 20 -4 15 -22
-3 -13 -6 -26 -6 -30 0 -5 -7 -8 -16 -8 -8 0 -12 -5 -9 -10 4 -6 1 -17 -5 -25
-10 -13 -8 -15 14 -15 36 0 33 -18 -6 -29 -21 -6 -25 -9 -13 -10 11 0 31 5 45
13 21 11 30 10 52 -1 24 -12 29 -10 58 13 l31 27 23 -22 c12 -11 29 -21 36
-21 8 0 -1 13 -19 28 l-34 28 17 50 c10 27 22 57 28 67 11 22 7 30 -13 22 -9
-3 -15 -21 -15 -46 -1 -22 -8 -47 -16 -56 -14 -13 -17 -9 -27 31 -14 57 -14
56 5 56 12 0 14 3 6 13 -7 8 -7 18 -2 27 13 20 12 40 0 40 -5 0 -10 -6 -10
-13 0 -27 -31 -117 -40 -117 -13 0 -13 67 0 75 15 9 -14 35 -39 35 -12 0 -21
5 -21 10 0 6 -4 10 -10 10 -5 0 -10 -4 -10 -10z m-2 -60 c2 -33 -1 -40 -17
-40 -14 0 -18 8 -18 40 0 31 4 40 17 40 13 0 17 -10 18 -40z m58 20 c0 -13 -7
-20 -20 -20 -11 0 -16 3 -13 7 4 3 2 12 -4 20 -9 10 -6 13 13 13 17 0 24 -6
24 -20z m-2 -45 c-1 -18 -34 -18 -34 0 0 10 7 15 18 13 9 -2 17 -8 16 -13z m6
-34 c0 -5 -7 -12 -16 -15 -22 -9 -24 -8 -24 9 0 8 9 15 20 15 11 0 20 -4 20
-9z m49 -97 c-26 -27 -41 -30 -58 -10 -14 16 -4 46 15 46 8 0 14 4 14 8 0 4
-16 6 -35 4 -21 -3 -35 0 -35 7 0 10 21 16 43 12 4 -1 18 8 30 19 l22 21 13
-41 c13 -39 13 -43 -9 -66z m-81 19 c-2 -10 -10 -18 -18 -18 -8 0 -16 8 -18
18 -2 12 3 17 18 17 15 0 20 -5 18 -17z"/>
<path d="M4628 6105 c-3 -6 -6 -65 -6 -130 l1 -120 128 0 128 0 -1 128 c0 70
-5 127 -9 127 -5 0 -9 -54 -9 -120 l0 -120 -110 0 -109 0 -3 123 c-2 67 -6
117 -10 112z"/>
<path d="M4708 6103 c7 -3 16 -2 19 1 4 3 -2 6 -13 5 -11 0 -14 -3 -6 -6z"/>
<path d="M5750 6100 l-85 -6 98 -2 c59 -1 97 2 97 8 0 6 -6 9 -12 8 -7 -1 -51
-5 -98 -8z"/>
<path d="M7074 6102 c3 -5 -6 -43 -20 -86 -26 -84 -29 -106 -14 -106 6 0 10 8
10 18 0 10 7 28 16 40 8 12 13 26 9 31 -3 5 1 29 10 53 19 54 19 58 -1 58 -8
0 -13 -4 -10 -8z"/>
<path d="M10730 6044 c0 -37 4 -63 9 -59 12 7 13 125 0 125 -5 0 -9 -30 -9
-66z"/>
<path d="M13600 6053 c0 -31 3 -53 7 -49 10 9 10 106 1 106 -5 0 -8 -25 -8
-57z"/>
<path d="M13863 6103 c9 -2 25 -2 35 0 9 3 1 5 -18 5 -19 0 -27 -2 -17 -5z"/>
<path d="M2819 6078 c-1 -13 -2 -56 -3 -96 -1 -59 -5 -75 -18 -83 -36 -20 -17
-27 21 -8 44 21 62 40 31 32 -18 -5 -20 0 -20 36 0 30 5 43 17 48 9 4 19 1 21
-5 2 -7 15 1 29 18 20 24 34 30 66 32 l42 1 -44 6 c-43 6 -44 7 -27 24 14 14
15 17 2 17 -8 0 -18 -10 -22 -22 -4 -13 -13 -33 -21 -44 -12 -19 -17 -20 -39
-10 -21 9 -25 16 -20 44 2 17 1 32 -5 32 -5 0 -10 -10 -10 -22z"/>
<path d="M8760 5998 c1 -88 3 -100 14 -85 15 20 56 23 74 5 9 -9 12 6 12 69 0
45 3 89 7 99 4 12 2 15 -8 12 -9 -3 -13 -15 -11 -32 2 -15 -2 -33 -8 -41 -7
-9 -8 -15 0 -20 5 -3 10 -19 10 -36 0 -26 -3 -29 -34 -29 l-34 0 -4 66 c-1 36
0 68 5 71 9 6 -1 23 -14 23 -5 0 -9 -45 -9 -102z"/>
<path d="M9002 6066 c15 -49 2 -142 -23 -160 -12 -8 -16 -17 -11 -20 20 -12
41 25 47 81 3 32 7 75 9 96 3 30 1 37 -14 37 -16 0 -17 -4 -8 -34z"/>
<path d="M2045 6080 c-49 -3 -75 -7 -57 -8 32 -2 32 -2 32 -54 -1 -29 -7 -71
-15 -93 -8 -21 -12 -41 -10 -43 5 -5 35 66 35 82 0 7 12 17 28 23 18 8 21 11
7 10 -16 -2 -21 5 -23 36 l-3 37 45 0 c32 0 44 -4 42 -12 -18 -56 -16 -68 6
-68 17 0 19 3 9 9 -13 8 -12 32 5 75 3 9 2 15 -2 14 -5 -1 -49 -5 -99 -8z"/>
<path d="M6197 6070 c10 -11 22 -20 27 -20 5 0 1 9 -9 20 -10 11 -22 20 -26
20 -5 0 -1 -9 8 -20z"/>
<path d="M7680 6069 c-8 -11 -13 -26 -11 -32 2 -7 5 -34 7 -61 4 -57 15 -72
41 -61 17 8 17 8 1 12 -26 6 -26 113 -1 113 15 0 15 1 1 13 -9 6 -17 18 -19
25 -3 8 -9 5 -19 -9z"/>
<path d="M12027 6070 c-28 -22 -42 -67 -32 -100 8 -25 51 -27 78 -3 18 17 19
17 33 -2 13 -18 15 -18 31 -3 15 16 15 17 -5 11 -30 -7 -29 17 4 73 14 24 21
44 15 44 -5 0 -15 -8 -21 -17 -10 -17 -10 -17 -20 0 -14 23 -51 22 -83 -3z
m73 -5 c16 -19 6 -45 -30 -80 -38 -37 -64 -29 -55 17 14 68 55 99 85 63z"/>
<path d="M14027 6079 c7 -7 15 -10 18 -7 3 3 -2 9 -12 12 -14 6 -15 5 -6 -5z"/>
<path d="M1140 6070 c-34 -7 -34 -7 13 -9 30 0 46 3 42 9 -3 6 -9 9 -13 9 -4
-1 -23 -5 -42 -9z"/>
<path d="M1242 6051 c0 -16 -9 -42 -18 -58 l-18 -28 21 18 c12 10 24 34 27 53
6 28 11 34 31 34 22 0 25 -4 25 -39 0 -31 4 -41 20 -46 22 -7 40 1 40 17 0 7
-4 7 -13 -1 -21 -17 -36 6 -30 45 l6 34 -45 0 c-43 0 -45 -1 -46 -29z"/>
<path d="M1668 6073 c-9 -2 -15 -10 -12 -16 3 -10 -8 -55 -43 -169 -3 -10 0
-18 6 -18 6 0 13 11 17 24 6 27 70 93 80 83 3 -3 -1 -27 -10 -53 -17 -50 -13
-72 10 -53 7 6 11 15 8 20 -3 5 1 27 7 49 17 56 1 73 -41 42 -34 -26 -35 -25
-16 46 8 28 13 51 13 51 -1 -1 -10 -3 -19 -6z"/>
<path d="M2506 6067 c2 -7 -7 -47 -21 -88 -27 -81 -30 -99 -15 -99 6 0 10 8
10 19 0 10 7 24 15 31 12 10 17 5 29 -24 15 -37 38 -41 50 -9 5 13 4 14 -8 4
-13 -11 -16 -7 -24 21 -8 27 -6 37 11 56 15 16 17 22 6 22 -8 0 -20 -9 -27
-20 -14 -22 -32 -27 -32 -7 0 6 7 25 15 41 9 16 13 31 10 34 -3 3 0 11 6 19 9
10 7 13 -9 13 -14 0 -20 -5 -16 -13z"/>
<path d="M3345 6057 c10 -15 20 -25 23 -22 3 3 -5 16 -17 28 l-23 22 17 -28z"/>
<path d="M4700 6056 c0 -19 4 -23 20 -19 14 4 20 0 20 -11 0 -9 5 -16 10 -16
6 0 10 6 10 14 0 8 10 16 22 18 13 2 24 11 26 21 3 14 -5 17 -52 17 -52 0 -56
-2 -56 -24z m90 4 c0 -5 -18 -10 -40 -10 -22 0 -40 5 -40 10 0 6 18 10 40 10
22 0 40 -4 40 -10z"/>
<path d="M9111 6080 c-6 -10 -8 -200 -2 -200 13 0 36 20 24 20 -8 0 -13 29
-16 93 -1 50 -4 90 -6 87z"/>
<path d="M11557 6072 c6 -4 16 -19 22 -34 8 -22 6 -31 -11 -53 -11 -14 -27
-24 -34 -21 -8 3 -14 1 -14 -4 0 -17 26 -11 46 11 l18 20 8 -21 c8 -23 38 -24
46 -2 2 7 -2 10 -11 6 -10 -3 -16 4 -20 23 -7 36 8 63 34 63 11 0 17 5 14 10
-9 14 -21 12 -40 -7 -16 -16 -18 -16 -27 0 -5 9 -17 17 -26 17 -11 0 -13 -3
-5 -8z"/>
<path d="M12450 6069 c0 -5 5 -7 10 -4 6 3 10 8 10 11 0 2 -4 4 -10 4 -5 0
-10 -5 -10 -11z"/>
<path d="M12485 6070 c3 -5 8 -10 11 -10 2 0 4 5 4 10 0 6 -5 10 -11 10 -5 0
-7 -4 -4 -10z"/>
<path d="M3024 6047 c16 -12 17 -21 8 -96 -11 -89 -21 -105 -62 -96 -24 5 -24
4 4 -11 45 -25 58 -4 71 116 l11 100 -25 0 c-23 0 -23 -1 -7 -13z"/>
<path d="M3678 6053 c6 -2 12 -12 12 -20 0 -13 3 -13 15 -3 23 19 18 30 -12
29 -16 0 -22 -3 -15 -6z"/>
<path d="M6048 6053 c7 -3 16 -2 19 1 4 3 -2 6 -13 5 -11 0 -14 -3 -6 -6z"/>
<path d="M6118 6053 c25 -3 32 -9 30 -21 -2 -12 -18 -19 -53 -23 -47 -7 -47
-7 15 -5 51 1 65 -2 68 -14 1 -10 -9 -20 -25 -27 -25 -9 -23 -10 20 -6 l47 4
0 -34 c0 -36 -12 -52 -45 -59 -19 -4 -18 -4 3 -10 27 -8 47 18 57 75 7 35 6
37 -20 37 -21 0 -25 4 -20 19 4 13 0 20 -16 24 -16 4 -19 11 -14 26 6 19 3 21
-37 19 -38 -1 -39 -2 -10 -5z"/>
<path d="M7772 6048 c-6 -6 -12 -19 -12 -27 1 -13 3 -13 15 2 14 20 46 20 52
1 2 -6 -12 -21 -32 -33 -43 -25 -53 -47 -31 -69 13 -13 20 -14 34 -5 12 7 24
8 36 1 10 -5 19 -8 20 -6 4 5 -9 126 -14 132 -13 13 -56 16 -68 4z m56 -83
c-2 -15 -10 -28 -21 -31 -27 -9 -40 16 -20 38 23 26 43 23 41 -7z"/>
<path d="M9294 6045 c-4 -9 -19 -15 -37 -15 -35 0 -33 -8 4 -13 20 -3 25 -10
27 -40 l3 -37 -60 0 -61 0 0 33 c0 18 6 39 13 46 10 11 10 13 0 7 -7 -4 -13
-3 -13 3 0 5 8 12 18 14 9 3 1 5 -18 5 -19 0 -29 -2 -22 -5 7 -3 12 -25 12
-61 l0 -57 70 0 70 0 0 35 c0 19 4 50 9 68 10 32 -4 47 -15 17z"/>
<path d="M9893 6026 c1 -28 4 -33 14 -24 16 13 13 50 -4 55 -7 3 -11 -9 -10
-31z"/>
<path d="M251 6036 c-10 -12 -7 -14 20 -13 27 2 34 -2 39 -23 7 -23 8 -23 15
-6 5 10 4 26 -2 35 -13 21 -57 26 -72 7z"/>
<path d="M400 6035 c-16 -20 -15 -85 2 -96 7 -5 25 -9 41 -9 15 0 27 -3 27 -8
0 -16 -33 -54 -54 -62 l-21 -9 21 0 c13 -1 34 13 52 33 60 68 47 166 -22 166
-18 0 -39 -7 -46 -15z m70 -14 c26 -49 0 -98 -39 -74 -19 12 -25 36 -17 69 8
29 41 32 56 5z"/>
<path d="M1180 6040 c-13 -8 -12 -10 3 -10 9 0 17 5 17 10 0 12 -1 12 -20 0z"/>
<path d="M7891 6034 c7 -9 10 -36 7 -69 -4 -45 -2 -55 11 -55 13 0 15 10 13
53 -4 58 11 83 43 71 14 -6 16 -17 13 -65 -4 -51 -2 -59 13 -59 15 0 17 8 12
58 -7 82 -5 80 -68 80 -46 -1 -53 -3 -44 -14z"/>
<path d="M8293 6032 c29 -32 14 -92 -23 -92 -11 0 -20 -4 -20 -10 0 -17 22
-11 46 11 l22 21 7 -21 c8 -25 18 -27 35 -6 11 13 10 14 -2 10 -11 -4 -18 2
-22 20 -8 30 8 65 29 65 8 0 15 5 15 10 0 15 -11 12 -33 -7 -18 -17 -19 -17
-28 0 -6 9 -17 17 -26 17 -15 0 -15 -2 0 -18z"/>
<path d="M10350 6040 c-1 -8 -3 -26 -4 -40 -1 -20 -7 -26 -36 -31 -30 -6 -28
-7 19 -8 42 -1 51 2 43 12 -6 6 -12 28 -15 47 -2 19 -5 28 -7 20z"/>
<path d="M12450 6040 c0 -5 5 -10 11 -10 5 0 7 5 4 10 -3 6 -8 10 -11 10 -2 0
-4 -4 -4 -10z"/>
<path d="M12485 6040 c-3 -5 -1 -10 4 -10 6 0 11 5 11 10 0 6 -2 10 -4 10 -3
0 -8 -4 -11 -10z"/>
<path d="M1113 6033 c9 -2 23 -2 30 0 6 3 -1 5 -18 5 -16 0 -22 -2 -12 -5z"/>
<path d="M3647 6033 c-5 -7 -5 -18 -2 -23 4 -6 2 -17 -5 -25 -8 -10 -8 -15 0
-20 17 -11 22 -1 18 41 -2 25 -6 34 -11 27z"/>
<path d="M5875 6030 c-3 -5 1 -10 10 -10 9 0 13 5 10 10 -3 6 -8 10 -10 10 -2
0 -7 -4 -10 -10z"/>
<path d="M6583 6033 c-9 -3 -9 -12 -2 -29 13 -36 11 -118 -3 -132 -7 -7 -20
-12 -30 -12 -10 0 -18 -4 -18 -10 0 -25 32 -6 72 43 23 28 51 61 61 71 9 11
17 23 17 27 0 4 3 14 6 23 4 11 1 16 -10 16 -12 0 -15 -6 -11 -23 4 -16 -2
-30 -25 -52 l-30 -29 -1 40 c-1 48 -10 72 -26 67z"/>
<path d="M7104 6018 l-19 -23 22 18 c29 25 36 8 18 -43 -19 -54 -19 -62 1 -58
11 2 18 16 20 43 3 22 5 49 7 60 3 28 -26 30 -49 3z"/>
<path d="M3563 6023 c9 -2 23 -2 30 0 6 3 -1 5 -18 5 -16 0 -22 -2 -12 -5z"/>
<path d="M5530 6022 c-12 -5 -15 -26 -15 -90 0 -45 3 -82 8 -82 4 0 7 36 7 80
0 63 3 80 14 80 8 0 18 5 21 10 7 11 -12 12 -35 2z"/>
<path d="M5760 5939 c0 -60 3 -88 10 -84 7 4 10 38 8 83 l-3 77 35 6 35 6 -42
2 -43 1 0 -91z"/>
<path d="M8929 6013 c12 -24 31 -39 31 -25 0 5 -10 17 -21 28 -22 19 -22 19
-10 -3z"/>
<path d="M3514 5993 c4 -38 23 -41 22 -3 -1 16 -6 30 -13 30 -7 0 -10 -11 -9
-27z"/>
<path d="M4810 6005 c0 -12 -14 -15 -65 -15 -56 0 -65 -3 -64 -17 0 -11 3 -13
6 -5 3 8 27 12 68 12 l64 0 -5 -27 c-3 -16 -7 -36 -10 -45 -3 -12 0 -18 9 -18
12 0 16 16 19 65 2 47 0 65 -9 65 -7 0 -13 -7 -13 -15z"/>
<path d="M6785 6010 c-4 -6 11 -10 36 -10 48 0 49 4 2 13 -18 4 -35 2 -38 -3z"/>
<path d="M6885 6010 c-4 -6 3 -10 14 -10 25 0 27 6 6 13 -8 4 -17 2 -20 -3z"/>
<path d="M7305 6008 c-4 -11 -19 -19 -39 -19 l-31 -2 30 -4 c17 -2 36 -12 43
-21 11 -15 12 -15 12 0 0 11 11 18 33 21 l32 4 -32 1 c-21 1 -33 8 -36 20 -4
16 -4 16 -12 0z"/>
<path d="M1145 6000 c-30 -8 -30 -8 8 -9 23 -1 36 3 32 9 -3 6 -7 9 -8 9 -1
-1 -15 -5 -32 -9z"/>
<path d="M2159 5983 c-1 -23 -31 -75 -47 -81 -6 -2 -21 13 -33 33 -12 20 -23
34 -26 32 -2 -3 5 -20 16 -38 12 -19 21 -39 21 -45 0 -6 -21 -21 -47 -32 -27
-12 -42 -21 -35 -22 7 0 32 9 57 21 l45 21 46 -22 c29 -13 50 -18 56 -12 6 6
-2 11 -19 15 -15 3 -37 12 -47 20 -19 14 -19 16 12 66 37 59 37 61 17 61 -8 0
-15 -8 -16 -17z"/>
<path d="M2968 5993 c7 -3 16 -2 19 1 4 3 -2 6 -13 5 -11 0 -14 -3 -6 -6z"/>
<path d="M4281 5983 c-1 -25 -20 -30 -40 -10 -11 10 -13 9 -9 -3 6 -21 47 -25
54 -6 3 8 4 21 1 28 -3 7 -6 3 -6 -9z"/>
<path d="M9190 5977 c0 -20 5 -24 35 -25 19 -1 35 3 35 7 0 5 3 16 6 25 4 11
1 16 -11 16 -11 0 -15 -5 -12 -15 7 -18 -6 -27 -26 -19 -9 3 -13 12 -10 20 3
8 0 14 -6 14 -6 0 -11 -11 -11 -23z"/>
<path d="M5682 5958 c-7 -13 -20 -34 -29 -48 -28 -38 2 -14 37 30 21 27 27 40
17 40 -7 0 -19 -10 -25 -22z"/>
<path d="M5853 5937 c17 -24 34 -40 35 -35 4 9 -49 76 -60 77 -4 1 7 -18 25
-42z"/>
<path d="M10400 5970 c0 -5 9 -10 20 -10 11 0 20 5 20 10 0 6 -9 10 -20 10
-11 0 -20 -4 -20 -10z"/>
<path d="M287 5961 c-17 -6 -16 -8 7 -19 50 -22 24 -91 -29 -78 -15 4 -25 2
-25 -4 0 -7 15 -10 37 -8 44 4 70 39 60 80 -8 29 -24 38 -50 29z"/>
<path d="M1140 5960 l-35 -7 43 -2 c23 0 42 4 42 9 0 6 -3 9 -7 9 -5 -1 -24
-5 -43 -9z"/>
<path d="M3576 5956 c3 -8 -2 -16 -13 -19 -16 -4 -16 -5 0 -6 14 -1 17 -11 17
-52 0 -29 4 -48 9 -44 6 3 8 15 6 27 -3 12 -2 32 1 45 6 21 12 24 43 21 29 -2
37 -8 39 -26 2 -15 -3 -25 -19 -30 -20 -8 -21 -9 -4 -16 24 -9 31 0 38 47 l6
37 -56 0 c-48 0 -54 2 -43 15 10 13 9 15 -8 15 -14 0 -20 -5 -16 -14z"/>
<path d="M4710 5943 c0 -13 5 -23 10 -23 6 0 10 7 10 15 0 9 9 15 21 15 15 0
19 -5 15 -15 -3 -9 0 -15 9 -15 9 0 15 9 15 23 0 20 -5 23 -40 22 -35 0 -40
-3 -40 -22z"/>
<path d="M6086 5961 c-4 -5 3 -7 14 -4 23 6 26 13 6 13 -8 0 -17 -4 -20 -9z"/>
<path d="M9451 5938 c-1 -21 4 -38 9 -38 12 0 12 27 0 55 -7 16 -9 13 -9 -17z"/>
<path d="M10173 5963 c9 -2 25 -2 35 0 9 3 1 5 -18 5 -19 0 -27 -2 -17 -5z"/>
<path d="M11820 5960 l-65 -7 68 -1 c39 -1 67 2 67 8 0 6 -1 9 -2 8 -2 -1 -32
-4 -68 -8z"/>
<path d="M13927 5964 c-10 -17 7 -32 28 -23 16 6 16 8 3 8 -9 1 -18 6 -20 13
-3 7 -7 8 -11 2z"/>
<path d="M1246 5913 l25 -47 -23 -18 c-41 -32 -58 -24 -58 28 0 28 -4 43 -10
39 -6 -4 -9 -19 -8 -33 2 -21 -2 -28 -19 -30 -20 -3 -23 1 -23 27 0 16 -4 32
-9 36 -6 3 -10 -16 -9 -44 0 -49 0 -50 24 -39 18 9 28 8 36 0 16 -16 41 -15
83 5 33 16 37 16 70 0 41 -20 45 -20 45 -8 0 5 -10 12 -22 15 -49 13 -52 21
-24 64 14 23 26 44 26 47 0 3 -29 5 -65 5 l-64 0 25 -47z m70 8 c-21 -40 -36
-48 -53 -26 -25 35 -16 51 27 53 l41 3 -15 -30z"/>
<path d="M5441 5941 c0 -13 -11 -40 -23 -59 -12 -20 -16 -32 -10 -28 20 12 43
66 39 89 -4 21 -4 21 -6 -2z"/>
<path d="M6818 5953 c23 -2 59 -2 80 0 20 2 1 4 -43 4 -44 0 -61 -2 -37 -4z"/>
<path d="M11288 5949 c24 -9 119 -6 129 5 4 3 -29 6 -73 5 -59 0 -73 -3 -56
-10z"/>
<path d="M14018 5953 c7 -3 16 -2 19 1 4 3 -2 6 -13 5 -11 0 -14 -3 -6 -6z"/>
<path d="M2935 5940 l-50 -7 58 -1 c32 -1 57 2 57 8 0 6 -3 9 -7 8 -5 0 -30
-4 -58 -8z"/>
<path d="M4681 5916 c-1 -26 2 -37 9 -30 6 6 6 21 1 39 -9 30 -9 30 -10 -9z"/>
<path d="M9659 5930 c21 -18 51 -27 51 -15 0 6 -56 35 -67 35 -4 -1 3 -10 16
-20z"/>
<path d="M10245 5940 c-3 -6 -23 -19 -43 -30 -20 -10 -32 -19 -26 -20 12 0
104 49 104 56 0 8 -29 4 -35 -6z"/>
<path d="M10360 5930 c19 -13 37 -26 38 -31 5 -12 22 -11 22 1 0 12 -37 36
-70 45 -20 5 -18 2 10 -15z"/>
<path d="M3491 5893 c1 -27 3 -39 6 -28 2 11 8 32 13 48 7 21 6 27 -6 27 -10
0 -14 -12 -13 -47z"/>
<path d="M6170 5922 c6 -13 14 -21 18 -18 3 4 -2 14 -12 24 -18 16 -18 16 -6
-6z"/>
<path d="M5300 5909 c0 -11 -5 -29 -10 -40 -6 -10 -8 -19 -5 -19 6 0 35 63 35
75 0 3 -4 5 -10 5 -5 0 -10 -9 -10 -21z"/>
<path d="M3320 5902 c6 -13 14 -21 18 -18 3 4 -2 14 -12 24 -18 16 -18 16 -6
-6z"/>
<path d="M6021 5899 c-7 -12 -10 -23 -8 -26 3 -3 11 5 17 17 15 28 8 35 -9 9z"/>
<path d="M6130 5911 c0 -6 4 -13 10 -16 6 -3 7 1 4 9 -7 18 -14 21 -14 7z"/>
<path d="M3172 5879 c-7 -11 -11 -23 -9 -25 7 -7 29 24 25 36 -2 6 -9 1 -16
-11z"/>
<path d="M3232 5880 c0 -14 2 -19 5 -12 2 6 2 18 0 25 -3 6 -5 1 -5 -13z"/>
<path d="M3280 5891 c0 -5 5 -13 10 -16 6 -3 10 -2 10 4 0 5 -4 13 -10 16 -5
3 -10 2 -10 -4z"/>
<path d="M9208 5893 c6 -2 18 -2 25 0 6 3 1 5 -13 5 -14 0 -19 -2 -12 -5z"/>
<path d="M9298 5893 c7 -3 16 -2 19 1 4 3 -2 6 -13 5 -11 0 -14 -3 -6 -6z"/>
<path d="M550 5865 c0 -9 5 -15 10 -13 12 4 11 16 -1 24 -5 3 -9 -2 -9 -11z"/>
<path d="M1960 5855 c-20 -24 -6 -28 15 -5 10 11 13 20 8 20 -6 0 -16 -7 -23
-15z"/>
<path d="M1274 5635 c-4 -8 -14 -15 -25 -15 -10 0 -24 -10 -30 -22 -12 -23
-12 -23 10 -4 40 36 40 -7 0 -58 -22 -28 -42 -35 -33 -11 4 9 0 15 -8 15 -11
0 -13 -13 -10 -60 4 -56 3 -60 -17 -60 -21 0 -22 4 -20 73 2 39 6 84 10 100 7
24 5 27 -14 26 -12 0 -16 -3 -9 -6 15 -6 7 -63 -16 -108 -14 -28 -14 -29 2
-16 16 14 18 11 16 -40 -2 -72 -1 -77 11 -56 12 20 35 23 42 5 3 -7 6 12 6 43
1 42 5 58 17 63 31 12 34 5 30 -60 -3 -54 -1 -64 11 -60 8 3 39 6 69 6 30 0
54 4 54 9 0 6 -12 9 -27 8 -19 -1 -28 3 -31 16 -3 13 3 17 22 17 14 0 26 5 26
10 0 6 -11 8 -25 4 -21 -5 -25 -3 -25 15 0 17 6 21 31 21 16 0 28 4 25 9 -3 4
-17 6 -31 3 -20 -3 -25 0 -25 17 0 17 6 21 30 21 17 0 30 5 30 10 0 6 -11 8
-25 4 -21 -5 -25 -3 -25 17 l0 23 -16 -22 c-8 -12 -22 -22 -30 -22 -17 0 -17
1 -4 34 8 21 16 26 45 26 27 0 35 -4 35 -17 1 -15 2 -16 9 -3 19 31 15 34 -31
31 -40 -2 -47 0 -42 13 3 9 3 16 0 16 -4 0 -9 -7 -12 -15z m22 -111 c-1 -8 -8
-19 -15 -23 -10 -6 -9 -10 3 -14 21 -8 9 -37 -15 -37 -16 0 -19 8 -19 45 0 41
2 45 24 45 16 0 23 -5 22 -16z m-1 -104 c0 -8 -10 -16 -22 -18 -18 -3 -23 2
-23 18 0 16 5 21 23 18 12 -2 22 -10 22 -18z"/>
<path d="M1528 5628 c-21 -16 -27 -49 -10 -55 8 -3 10 1 6 11 -14 35 46 62 74
34 18 -18 15 -41 -13 -78 -14 -19 -25 -43 -25 -54 0 -17 3 -15 18 11 9 17 26
43 36 58 18 25 18 30 5 54 -17 30 -64 40 -91 19z"/>
<path d="M1180 5620 c0 -5 5 -10 10 -10 6 0 10 5 10 10 0 6 -4 10 -10 10 -5 0
-10 -4 -10 -10z"/>
<path d="M1556 5421 c-4 -7 -5 -15 -2 -18 9 -9 19 4 14 18 -4 11 -6 11 -12 0z"/>
<path d="M9050 4882 c0 -4 4 -12 10 -18 5 -5 11 -33 12 -61 2 -53 -18 -93 -49
-93 -7 0 -13 -4 -13 -10 0 -13 6 -13 30 0 20 10 110 123 110 136 0 4 -11 -6
-23 -24 -27 -36 -37 -33 -37 14 0 42 -9 64 -26 64 -8 0 -14 -4 -14 -8z"/>
<path d="M9142 4874 c2 -11 8 -18 13 -16 15 3 12 25 -3 30 -9 3 -13 -2 -10
-14z"/>
<path d="M2056 4858 c-24 -82 -47 -189 -43 -200 3 -9 7 -7 12 7 13 39 34 70
59 89 14 11 28 18 30 15 3 -3 -2 -29 -10 -58 -9 -29 -13 -55 -10 -58 8 -8 37
18 30 28 -2 5 0 27 6 50 16 57 1 71 -41 40 -17 -12 -33 -20 -36 -17 -3 3 2 26
11 52 9 26 16 51 16 56 0 13 -20 9 -24 -4z"/>
<path d="M2522 4863 c-36 -14 -54 -115 -30 -167 22 -49 79 -45 97 6 19 55 14
112 -14 142 -24 26 -30 28 -53 19z m48 -54 c10 -37 8 -69 -6 -121 -3 -10 -13
-18 -23 -18 -26 0 -45 51 -39 105 10 81 50 101 68 34z"/>
<path d="M1400 4831 c14 -27 13 -154 -2 -169 -9 -9 -5 -12 21 -12 29 0 32 2
21 15 -9 10 -11 41 -8 100 4 84 4 85 -19 85 -20 0 -22 -3 -13 -19z"/>
<path d="M9230 4753 c-18 -37 -45 -94 -61 -126 -32 -65 -33 -67 -20 -67 9 0
41 63 82 158 8 17 17 32 22 32 4 0 6 -159 5 -352 l-3 -353 -63 -3 c-79 -4 -72
-22 9 -22 l59 0 -1 -1380 -1 -1380 -61 -2 c-34 0 -66 -2 -72 -3 -5 -2 -92 -3
-193 -4 -127 -1 -181 -4 -177 -12 5 -7 87 -10 254 -8 l246 2 5 -249 c3 -137 8
-242 12 -234 5 8 9 120 10 248 l3 233 250 4 c138 2 610 7 1050 10 440 3 999 8
1243 11 l442 7 0 -62 c0 -34 4 -61 10 -61 6 0 10 27 10 60 l0 59 198 3 c108 2
382 5 607 7 226 1 463 3 528 4 64 1 117 -1 117 -4 0 -3 -43 -25 -95 -50 -86
-40 -113 -59 -84 -59 20 0 239 115 238 125 0 5 -48 33 -107 62 -130 63 -148
71 -138 54 4 -6 43 -29 87 -51 43 -22 79 -44 79 -48 0 -4 -145 -9 -322 -10
-178 0 -500 -4 -715 -8 l-393 -7 0 72 c0 41 -4 71 -10 71 -5 0 -10 -17 -10
-37 -1 -36 -2 -34 -31 37 -16 41 -47 120 -68 175 -49 129 -154 337 -249 495
-96 160 -236 373 -258 391 -9 8 -35 39 -58 69 -127 173 -545 583 -711 698 -33
23 -87 61 -120 85 -397 286 -815 496 -1290 648 -38 12 -79 26 -90 30 -19 7
-19 8 3 8 12 1 22 6 22 11 0 6 -30 10 -70 10 l-70 0 -1 308 c-1 169 -3 324 -4
344 -3 67 10 59 55 -32 24 -50 48 -90 52 -90 4 0 8 2 8 5 0 8 -111 230 -119
238 -5 5 -23 -22 -41 -60z m165 -768 c131 -36 432 -143 460 -164 5 -4 39 -18
75 -31 36 -13 108 -45 160 -71 52 -26 118 -57 145 -70 28 -12 100 -51 160 -88
61 -36 118 -70 127 -76 37 -21 197 -132 268 -185 41 -31 89 -64 105 -75 131
-82 513 -455 670 -654 28 -35 64 -80 82 -100 37 -43 220 -319 280 -424 66
-115 190 -365 220 -442 14 -38 43 -113 63 -165 21 -53 41 -110 45 -128 l7 -32
-294 -2 c-362 -3 -387 -3 -1438 -12 -470 -5 -944 -9 -1053 -10 l-197 -1 0 270
c-1 149 -2 768 -3 1377 -2 979 0 1108 13 1108 8 0 56 -11 105 -25z"/>
<path d="M2234 4792 c3 -5 30 -19 60 -32 40 -16 53 -26 49 -37 -5 -13 -3 -14
18 -3 23 13 22 14 -35 41 -71 35 -101 45 -92 31z"/>
<path d="M2280 4692 c-44 -21 -44 -21 -38 -28 6 -6 88 33 88 41 0 8 -13 5 -50
-13z"/>
<path d="M1493 4658 c2 -7 7 -13 12 -13 5 0 10 6 13 13 2 6 -4 12 -13 12 -9 0
-15 -6 -12 -12z"/>
<path d="M2050 4450 c0 -11 -9 -53 -20 -92 -11 -40 -20 -79 -20 -87 0 -21 17
-1 22 24 5 28 32 25 36 -3 4 -28 29 -40 45 -22 9 10 9 11 0 6 -13 -7 -33 23
-33 50 0 10 10 28 22 41 18 20 19 23 5 23 -9 0 -17 -7 -17 -15 0 -8 -9 -19
-20 -25 -17 -9 -20 -8 -20 10 0 11 7 37 15 56 15 36 13 54 -6 54 -5 0 -9 -9
-9 -20z"/>
<path d="M2524 4458 c-43 -20 -57 -97 -30 -163 29 -68 95 -34 103 52 8 82 -26
132 -73 111z m48 -48 c11 -47 1 -115 -19 -131 -13 -11 -18 -10 -35 11 -19 24
-21 75 -5 135 3 11 6 21 6 23 1 2 11 2 23 0 16 -2 24 -13 30 -38z"/>
<path d="M1398 4438 c15 -15 16 -142 2 -169 -10 -17 -7 -19 22 -19 25 0 29 3
20 12 -16 16 -16 160 0 176 9 9 4 12 -22 12 -26 0 -31 -3 -22 -12z"/>
<path d="M1495 4442 c15 -11 20 -159 5 -177 -11 -13 -8 -15 20 -15 27 0 30 2
20 14 -7 10 -10 44 -8 100 3 86 3 86 -22 86 -14 0 -20 -4 -15 -8z"/>
<path d="M2306 4370 l-69 -38 62 -32 c35 -17 67 -30 73 -28 6 2 -15 16 -46 31
-31 15 -56 29 -56 31 0 1 25 16 55 31 30 16 55 33 55 37 0 11 4 12 -74 -32z"/>
<path d="M1596 4273 c-11 -11 -6 -23 9 -23 8 0 15 4 15 9 0 13 -16 22 -24 14z"/>
<path d="M8935 4100 c-17 -19 -17 -19 13 -8 51 20 78 -18 49 -68 -6 -12 -18
-32 -26 -45 l-14 -24 23 20 c28 25 50 67 50 96 0 45 -63 65 -95 29z"/>
<path d="M3168 3989 c4 -70 1 -93 -9 -100 -10 -6 -7 -9 11 -9 l25 0 -3 100
c-2 71 -7 100 -16 100 -9 0 -11 -23 -8 -91z"/>
<path d="M8932 3938 c-23 -23 -12 -29 45 -26 49 3 58 6 61 23 3 16 1 18 -9 8
-16 -15 -61 -17 -75 -3 -7 7 -14 6 -22 -2z"/>
<path d="M2648 3855 c-10 -22 -9 -29 9 -46 38 -38 89 3 63 51 -16 29 -58 26
-72 -5z m62 0 c17 -20 5 -45 -20 -45 -23 0 -35 22 -26 45 7 19 30 19 46 0z"/>
<path d="M1400 3844 c13 -34 13 -140 0 -165 -10 -17 -7 -19 21 -19 27 0 30 2
19 15 -8 10 -11 44 -9 105 4 87 3 90 -18 90 -20 0 -21 -3 -13 -26z"/>
<path d="M1494 3854 c18 -18 23 -143 6 -173 -8 -15 -5 -18 22 -19 23 -1 28 2
19 11 -15 15 -15 169 1 185 9 9 4 12 -26 12 -34 0 -36 -1 -22 -16z"/>
<path d="M1598 3858 c15 -15 16 -170 2 -184 -6 -6 0 -10 20 -9 17 0 30 3 30 7
0 5 -4 8 -10 8 -15 0 -13 163 2 178 9 9 4 12 -22 12 -26 0 -31 -3 -22 -12z"/>
<path d="M2024 3823 c-11 -19 -4 -136 9 -149 4 -4 17 -2 29 4 17 8 18 11 7 11
-32 2 -41 85 -11 107 10 8 12 13 5 14 -7 0 -13 7 -13 15 0 20 -13 19 -26 -2z"/>
<path d="M2110 3795 c-7 -9 -10 -19 -6 -23 4 -4 13 1 20 11 14 19 41 23 51 7
3 -5 -10 -19 -29 -31 -35 -20 -54 -57 -42 -78 4 -5 28 -8 54 -6 69 5 68 5 51
15 -11 6 -16 24 -16 53 0 25 -3 49 -7 56 -10 16 -61 14 -76 -4z m68 -72 c-3
-29 -32 -43 -50 -25 -15 15 9 52 33 52 16 0 20 -5 17 -27z"/>
<path d="M2239 3806 c0 -1 -1 -31 -2 -69 -2 -64 -1 -67 21 -67 19 0 21 3 12
19 -17 34 -12 78 12 95 16 11 25 13 35 4 16 -13 17 -90 1 -106 -9 -9 -6 -12
16 -12 15 0 25 4 21 10 -3 5 -8 33 -11 61 -3 29 -7 56 -9 60 -4 5 -93 10 -96
5z"/>
<path d="M2485 3801 c-33 -14 -57 -73 -44 -108 10 -27 59 -32 79 -8 9 11 16
12 31 2 14 -9 21 -9 31 1 11 11 10 12 -3 7 -28 -10 -29 20 -3 69 13 25 20 46
15 46 -6 0 -14 -8 -20 -17 -9 -17 -10 -17 -16 0 -7 18 -36 21 -70 8z m60 -21
c11 -36 -36 -100 -74 -100 -25 0 -6 93 23 112 20 14 45 8 51 -12z"/>
<path d="M12122 3712 c-12 -53 -23 -101 -22 -105 0 -17 20 5 20 22 0 10 6 24
14 30 12 10 15 6 21 -18 8 -39 23 -48 43 -27 16 16 16 17 0 11 -27 -11 -40 54
-16 79 10 11 15 22 12 25 -3 3 -15 -6 -26 -22 -30 -42 -39 -32 -21 26 20 68
20 69 8 73 -5 2 -20 -40 -33 -94z"/>
<path d="M12742 3794 c-12 -8 -22 -20 -22 -26 0 -6 9 -3 19 6 23 21 60 18 74
-5 14 -22 -4 -64 -49 -113 -19 -21 -33 -40 -31 -42 2 -2 25 -5 51 -6 32 -1 51
3 56 13 12 19 5 23 -18 10 -10 -5 -28 -7 -40 -4 -21 5 -20 7 13 45 43 51 53
92 29 119 -21 23 -52 24 -82 3z"/>
<path d="M13047 3796 c-32 -33 7 -82 51 -65 19 7 23 15 20 41 -2 27 -8 34 -29
36 -15 2 -33 -4 -42 -12z m51 -5 c21 -13 10 -46 -16 -49 -24 -4 -38 18 -28 43
6 17 24 19 44 6z"/>
<path d="M2875 3790 c-47 -6 -46 -7 25 -8 50 0 68 2 55 8 -11 5 -22 8 -25 8
-3 -1 -27 -4 -55 -8z"/>
<path d="M11705 3790 c3 -5 -6 -48 -20 -95 -15 -47 -25 -91 -23 -97 2 -6 18
13 35 44 29 50 58 76 71 64 2 -3 -2 -27 -11 -53 -17 -50 -15 -65 7 -57 8 3 14
20 15 37 1 18 2 46 3 62 3 25 0 29 -17 27 -11 -2 -29 -11 -39 -20 -21 -18 -21
-21 1 76 4 16 1 22 -11 22 -10 0 -14 -4 -11 -10z"/>
<path d="M12318 3758 c-11 -17 -14 -29 -8 -33 6 -3 10 -33 10 -66 0 -45 3 -59
14 -59 8 0 18 5 22 12 4 7 3 8 -4 4 -9 -5 -12 10 -12 53 0 42 4 61 13 61 8 0
9 2 1 8 -7 4 -13 16 -15 26 -4 18 -6 17 -21 -6z"/>
<path d="M3066 3762 c5 -4 56 -5 114 -2 l105 6 -114 2 c-63 1 -111 -1 -105 -6z"/>
<path d="M12408 3739 c-10 -5 -18 -17 -18 -26 0 -14 4 -13 21 6 16 17 24 20
35 10 21 -18 17 -27 -21 -45 -28 -13 -35 -22 -35 -45 0 -32 24 -49 43 -30 8 8
7 11 -5 11 -21 0 -32 31 -16 42 47 31 50 31 47 -4 -4 -40 6 -59 27 -51 11 4
12 9 5 16 -6 6 -11 33 -11 59 0 43 -3 50 -26 58 -30 12 -25 12 -46 -1z"/>
<path d="M12580 3740 c-8 -5 -26 -6 -39 -3 -20 5 -23 3 -18 -11 4 -10 7 -40 7
-67 0 -65 18 -63 22 2 2 37 8 55 21 63 25 16 37 -7 37 -72 0 -37 4 -52 12 -50
14 5 12 102 -3 130 -11 20 -18 22 -39 8z"/>
<path d="M2834 3733 c8 -8 127 -5 135 2 2 3 -29 5 -69 5 -40 0 -70 -3 -66 -7z"/>
<path d="M11930 3711 c0 -26 -4 -30 -32 -34 l-33 -4 33 -1 c30 -2 32 -4 33
-39 l2 -38 6 35 c5 30 11 36 41 41 l35 6 -32 2 c-32 1 -37 8 -34 44 1 9 -3 17
-8 17 -6 0 -11 -13 -11 -29z"/>
<path d="M12931 3711 c5 -15 9 -32 8 -37 -4 -16 20 -64 32 -64 7 0 8 7 3 18
-16 37 -10 77 14 87 23 10 30 25 11 25 -7 0 -18 -8 -25 -17 -13 -17 -15 -17
-25 0 -16 28 -29 20 -18 -12z"/>
<path d="M11205 3703 c4 -10 11 -40 15 -67 6 -45 4 -52 -18 -73 -13 -12 -28
-20 -33 -17 -5 3 -9 0 -9 -5 0 -14 6 -14 30 -1 24 13 86 92 66 84 -13 -5 -16
1 -16 26 0 17 -5 40 -10 51 -13 24 -35 26 -25 2z"/>
<path d="M11290 3705 c0 -8 5 -15 10 -15 6 0 10 7 10 15 0 8 -4 15 -10 15 -5
0 -10 -7 -10 -15z"/>
<path d="M11438 3693 c23 -2 59 -2 80 0 20 2 1 4 -43 4 -44 0 -61 -2 -37 -4z"/>
<path d="M1700 3675 c0 -8 5 -15 10 -15 6 0 10 7 10 15 0 8 -4 15 -10 15 -5 0
-10 -7 -10 -15z"/>
<path d="M11280 3658 c-12 -22 -12 -22 6 -6 10 10 15 20 12 24 -4 3 -12 -5
-18 -18z"/>
<path d="M3154 3651 c3 -4 -6 -48 -20 -96 -25 -85 -28 -142 -4 -77 15 40 36
41 45 2 7 -33 25 -39 46 -14 12 15 11 16 -7 10 -19 -6 -22 -2 -27 26 -4 26 -1
37 19 56 19 17 21 22 9 22 -9 0 -27 -12 -40 -27 -31 -36 -33 -15 -6 57 19 49
19 50 -1 50 -10 0 -17 -4 -14 -9z"/>
<path d="M11410 3642 c0 -5 28 -7 63 -4 89 5 94 10 10 11 -40 1 -73 -3 -73 -7z"/>
<path d="M12901 3630 c-17 -15 -19 -20 -7 -20 8 0 20 9 26 20 13 25 11 25 -19
0z"/>
<path d="M3290 2945 c0 -8 -7 -15 -16 -15 -13 0 -14 -3 -4 -15 9 -11 3 -23
-36 -65 -26 -28 -45 -52 -42 -55 2 -3 15 6 28 20 13 14 27 25 32 25 4 0 8 -34
8 -77 0 -86 8 -94 13 -12 l3 54 67 3 c55 2 67 0 67 -13 0 -8 -5 -15 -11 -15
-8 0 -8 -4 -1 -13 17 -21 7 -51 -19 -57 -24 -6 -24 -6 5 -14 15 -4 30 -6 32
-4 1 2 4 44 5 93 1 59 -2 90 -9 93 -8 2 -10 -6 -6 -27 l7 -31 -66 0 c-69 0
-93 14 -63 36 12 9 14 13 4 16 -10 4 -9 10 3 29 26 40 30 59 14 59 -8 0 -15
-7 -15 -15z"/>
<path d="M4126 2949 c-2 -8 -9 -29 -15 -48 -14 -43 -15 -41 12 -41 14 0 18 3
10 8 -10 6 -10 17 -2 46 10 35 5 67 -5 35z"/>
<path d="M3989 2943 l33 -4 -6 -61 c-7 -58 -44 -149 -66 -163 -5 -3 -10 -11
-10 -17 0 -18 41 34 61 77 10 22 19 47 19 56 0 9 10 20 23 24 20 6 20 8 4 12
-15 4 -18 12 -15 44 l4 39 -41 -2 c-38 -1 -39 -1 -6 -5z"/>
<path d="M4063 2943 c9 -2 25 -2 35 0 9 3 1 5 -18 5 -19 0 -27 -2 -17 -5z"/>
<path d="M2894 2871 c1 -38 4 -73 9 -77 4 -4 7 -2 7 4 0 17 167 16 173 0 6
-15 7 -10 10 80 l2 62 -45 -1 c-44 -2 -44 -2 -10 -8 34 -6 35 -7 38 -58 l3
-53 -86 0 -87 0 4 60 c2 38 -1 60 -8 60 -6 0 -10 -27 -10 -69z"/>
<path d="M2948 2933 c7 -3 16 -2 19 1 4 3 -2 6 -13 5 -11 0 -14 -3 -6 -6z"/>
<path d="M3437 2933 c-12 -12 -7 -22 8 -17 8 4 15 10 15 15 0 11 -14 12 -23 2z"/>
<path d="M3700 2926 c11 -14 11 -139 0 -176 -3 -10 2 -15 15 -15 18 0 19 6 16
86 -2 69 1 89 14 102 15 16 14 17 -21 17 -31 0 -35 -2 -24 -14z"/>
<path d="M4450 2914 c14 -36 12 -148 -2 -162 -9 -9 -7 -12 13 -12 24 0 24 0
20 91 -2 69 0 94 10 100 10 6 4 9 -18 9 -31 0 -32 -1 -23 -26z"/>
<path d="M4549 2931 c10 -6 12 -31 10 -100 -4 -91 -4 -91 21 -91 19 0 21 3 12
12 -17 17 -16 175 1 181 6 3 -4 6 -23 6 -23 0 -30 -2 -21 -8z"/>
<path d="M3228 2923 c7 -3 16 -2 19 1 4 3 -2 6 -13 5 -11 0 -14 -3 -6 -6z"/>
<path d="M3325 2920 c3 -5 10 -10 16 -10 5 0 9 5 9 10 0 6 -7 10 -16 10 -8 0
-12 -4 -9 -10z"/>
<path d="M3368 2923 c7 -3 16 -2 19 1 4 3 -2 6 -13 5 -11 0 -14 -3 -6 -6z"/>
<path d="M2043 2879 c-11 -24 -28 -66 -38 -92 -10 -26 -22 -50 -26 -53 -18
-11 -8 -24 17 -24 22 0 24 3 15 14 -21 25 7 63 42 57 4 0 7 4 7 9 0 6 -7 10
-15 10 -18 0 -18 -1 -4 38 12 35 25 33 40 -6 7 -18 6 -27 -2 -33 -8 -5 -5 -10
10 -18 13 -7 21 -21 21 -36 0 -21 5 -25 28 -25 15 0 22 4 16 8 -5 4 -23 41
-38 83 -15 43 -33 85 -40 94 -11 16 -15 13 -33 -26z"/>
<path d="M4160 2853 c0 -23 -49 -85 -61 -77 -6 3 -19 20 -30 38 -11 18 -19 24
-19 15 0 -9 9 -28 21 -43 25 -32 19 -43 -37 -68 -24 -10 -44 -21 -44 -24 0 -6
73 25 85 37 14 14 42 11 77 -11 35 -21 58 -26 58 -12 0 5 -18 14 -40 21 -50
15 -57 27 -32 54 10 12 26 37 35 55 13 27 13 32 1 32 -8 0 -14 -7 -14 -17z"/>
<path d="M2944 2775 c-4 -9 -27 -32 -52 -51 -25 -18 -38 -34 -31 -34 23 0 115
85 101 94 -7 4 -15 1 -18 -9z"/>
<path d="M3030 2788 c0 -9 90 -90 90 -81 0 12 -47 61 -72 74 -10 5 -18 8 -18
7z"/>
<path d="M3308 2763 c12 -2 32 -2 45 0 12 2 2 4 -23 4 -25 0 -35 -2 -22 -4z"/>
<path d="M2200 2730 c0 -5 7 -10 15 -10 8 0 15 5 15 10 0 6 -7 10 -15 10 -8 0
-15 -4 -15 -10z"/>
<path d="M3295 2193 c-6 -20 -15 -23 -59 -25 l-51 -2 48 -3 c26 -2 47 -8 47
-12 0 -5 -20 -31 -45 -59 -50 -56 -60 -77 -18 -37 15 14 31 25 35 25 5 0 9
-35 9 -77 1 -68 2 -73 9 -38 5 22 6 50 3 63 -5 21 -3 22 66 22 55 0 71 -3 71
-14 0 -8 -6 -17 -12 -20 -10 -5 -10 -7 0 -12 20 -9 14 -44 -10 -53 -20 -7 -20
-8 -3 -15 10 -3 22 -3 26 1 11 12 15 189 4 183 -6 -3 -9 -14 -7 -24 3 -27 -15
-36 -76 -36 -61 0 -70 11 -49 62 l15 35 78 2 c72 2 94 6 83 14 -2 2 -36 1 -76
-2 -71 -6 -72 -6 -76 19 -4 25 -4 25 -12 3z"/>
<path d="M4117 2194 c-3 -3 -3 -11 -1 -18 3 -7 0 -24 -5 -38 -7 -20 -7 -28 4
-32 8 -3 13 2 13 12 -1 9 2 32 6 50 7 29 -1 42 -17 26z"/>
<path d="M2895 2107 c0 -42 3 -77 8 -77 4 0 7 5 7 10 0 15 167 13 173 -2 3 -7
6 14 6 47 1 33 4 69 7 80 5 19 0 20 -98 20 l-103 0 0 -78z m183 6 l3 -53 -85
0 -86 0 0 48 c0 27 3 52 7 56 4 4 41 5 83 4 l75 -3 3 -52z"/>
<path d="M4016 2143 c2 -53 -24 -132 -57 -176 -11 -16 -18 -31 -15 -34 9 -9
65 88 72 124 3 18 10 34 15 34 5 1 13 2 18 3 21 3 21 15 1 21 -18 6 -21 13
-18 41 2 20 0 34 -7 34 -6 0 -10 -20 -9 -47z"/>
<path d="M3698 2168 c16 -16 16 -164 0 -174 -8 -5 -6 -10 8 -14 10 -4 22 -6
25 -4 4 2 4 42 2 89 -4 60 -2 89 7 100 11 13 8 15 -21 15 -26 0 -30 -3 -21
-12z"/>
<path d="M4449 2162 c5 -10 7 -55 4 -101 -6 -77 -5 -83 13 -79 17 3 18 12 15
92 -2 66 1 91 11 97 9 6 2 9 -20 9 -28 0 -31 -2 -23 -18z"/>
<path d="M4541 2172 c19 -8 26 -122 10 -165 -10 -27 -5 -32 21 -22 10 4 12 25
10 86 -2 52 1 85 8 95 11 12 6 14 -26 13 -23 0 -33 -3 -23 -7z"/>
<path d="M4655 2080 c0 -98 0 -100 24 -100 18 0 22 4 16 18 -9 22 -9 157 0
171 4 7 -3 11 -17 11 -22 0 -23 -2 -23 -100z"/>
<path d="M1979 2151 c11 -7 15 -31 14 -100 l-2 -91 52 0 c65 0 97 20 97 60 0
16 -5 32 -10 35 -6 4 -7 23 -4 45 6 36 4 40 -20 50 -35 13 -147 14 -127 1z
m102 -11 c39 -21 16 -70 -33 -70 -26 0 -28 3 -28 40 0 34 3 40 21 40 11 0 29
-5 40 -10z m4 -92 c27 -12 34 -45 13 -66 -7 -7 -27 -12 -45 -12 -32 0 -33 1
-33 45 0 50 14 57 65 33z"/>
<path d="M4163 2113 c-7 -2 -10 -10 -7 -17 5 -14 -37 -81 -51 -80 -6 0 -20 15
-32 34 -28 41 -30 27 -3 -18 25 -40 20 -49 -36 -74 -24 -10 -44 -21 -44 -24 0
-7 73 26 91 42 14 13 22 12 68 -12 39 -21 55 -24 63 -16 9 9 8 12 -5 12 -15 0
-73 24 -86 36 -2 2 2 12 11 21 25 30 57 92 50 96 -4 3 -12 2 -19 0z"/>
<path d="M2930 2002 c-14 -15 -38 -38 -55 -50 -19 -14 -22 -19 -10 -15 30 10
73 44 90 70 21 31 6 28 -25 -5z"/>
<path d="M3052 2007 c15 -12 36 -33 47 -47 11 -14 20 -20 21 -13 0 16 -67 83
-83 83 -7 0 0 -10 15 -23z"/>
<path d="M2190 1970 c0 -5 4 -10 9 -10 6 0 13 5 16 10 3 6 -1 10 -9 10 -9 0
-16 -4 -16 -10z"/>
<path d="M3293 1430 c-4 -16 -15 -20 -57 -22 l-51 -2 48 -3 c45 -4 47 -5 36
-26 -6 -12 -28 -39 -48 -61 -25 -27 -29 -35 -14 -27 12 6 25 16 28 21 16 26
25 3 26 -67 2 -60 3 -69 8 -38 l6 40 68 3 c66 3 67 3 67 -23 0 -21 -5 -25 -27
-25 l-28 -1 25 -14 c14 -7 28 -11 32 -7 9 10 14 177 6 180 -5 1 -27 1 -50 1
l-43 -2 40 -6 c39 -6 40 -7 42 -48 l1 -43 -69 0 c-53 0 -69 3 -69 14 0 8 6 16
13 19 9 3 9 7 -2 20 -11 14 -11 20 -1 32 7 8 9 15 5 15 -4 0 -1 10 7 23 20 30
28 67 16 67 -5 0 -12 -9 -15 -20z"/>
<path d="M4220 1405 c0 -22 -6 -38 -17 -44 -16 -9 -15 -10 7 -11 20 0 25 5 26
28 1 15 5 35 9 45 5 12 3 17 -9 17 -12 0 -16 -9 -16 -35z"/>
<path d="M2895 1348 c0 -43 3 -78 7 -78 5 0 8 5 8 10 0 15 167 13 173 -2 6
-14 6 -12 11 90 3 64 1 68 -24 52 -10 -6 -11 -10 -2 -10 8 0 12 -18 12 -55 l0
-55 -85 0 -85 0 0 55 0 55 73 1 c82 1 72 6 -23 11 l-65 4 0 -78z"/>
<path d="M4120 1378 c-1 -64 -18 -115 -55 -166 l-28 -37 27 26 c15 14 37 51
50 82 17 43 25 54 34 45 9 -9 12 -8 12 4 0 9 6 19 13 21 6 3 0 6 -15 6 -24 1
-28 5 -28 30 0 20 6 31 18 34 13 4 11 5 -5 6 -21 1 -23 -3 -23 -51z"/>
<path d="M4575 1423 c-19 -3 -20 -11 -18 -101 1 -90 3 -97 22 -100 22 -3 29
12 11 23 -15 9 -13 162 3 168 18 6 5 13 -18 10z"/>
<path d="M4670 1424 c-12 -4 -15 -22 -13 -97 1 -94 2 -97 28 -97 13 0 14 4 5
21 -12 22 -9 132 4 162 8 17 5 18 -24 11z"/>
<path d="M4757 1410 c4 -8 8 -52 8 -97 0 -82 0 -83 25 -82 14 0 19 3 13 6 -16
6 -18 164 -2 180 7 7 1 10 -20 9 -24 -1 -29 -4 -24 -16z"/>
<path d="M3420 1410 c-22 -7 -21 -8 13 -9 23 -1 36 3 32 9 -7 11 -10 11 -45 0z"/>
<path d="M3699 1411 c10 -6 12 -31 10 -100 -4 -89 -4 -91 19 -91 13 0 20 4 17
10 -9 14 -9 165 -1 179 5 7 -4 11 -26 11 -22 0 -29 -3 -19 -9z"/>
<path d="M3799 1411 c10 -6 12 -31 10 -100 -4 -86 -3 -91 16 -91 19 0 20 7 20
100 l0 100 -30 0 c-21 0 -26 -3 -16 -9z"/>
<path d="M2024 1396 c-24 -11 -34 -24 -43 -58 -23 -82 27 -148 102 -134 32 6
83 46 59 46 -6 0 -15 -8 -21 -17 -13 -24 -77 -23 -96 3 -24 31 -28 77 -11 117
14 35 17 37 61 37 38 0 47 -4 55 -22 8 -21 9 -21 9 7 1 28 -1 30 -42 32 -23 1
-56 -4 -73 -11z"/>
<path d="M3343 1403 c9 -2 25 -2 35 0 9 3 1 5 -18 5 -19 0 -27 -2 -17 -5z"/>
<path d="M4267 1338 c-4 -13 -17 -38 -30 -56 l-25 -33 -26 33 c-27 34 -37 27
-11 -8 23 -31 18 -41 -37 -68 -29 -14 -44 -26 -33 -26 10 0 37 11 61 25 l43
25 47 -24 c27 -14 52 -22 57 -19 5 3 -11 15 -37 26 -44 19 -58 39 -36 52 10 6
50 78 50 90 0 15 -19 2 -23 -17z"/>
<path d="M2900 1218 c-30 -28 -44 -45 -30 -38 34 18 113 90 97 90 -6 -1 -37
-24 -67 -52z"/>
<path d="M3074 1227 c23 -24 43 -39 45 -33 4 10 -63 76 -77 76 -5 0 10 -19 32
-43z"/>
<path d="M2190 1214 c0 -8 5 -12 10 -9 6 3 10 10 10 16 0 5 -4 9 -10 9 -5 0
-10 -7 -10 -16z"/>
<path d="M9017 1082 c-28 -17 -67 -84 -67 -116 0 -26 18 -54 43 -67 21 -12 21
-11 5 8 -37 41 -11 144 42 173 27 15 60 9 74 -12 17 -27 -9 -108 -44 -140 -31
-28 -25 -37 11 -18 26 15 59 82 59 123 0 62 -62 87 -123 49z"/>
<path d="M13764 1077 c9 -7 18 -25 20 -40 1 -15 6 -30 9 -34 4 -3 7 -15 7 -25
0 -10 6 -18 14 -18 22 0 28 17 10 24 -12 5 -15 16 -12 45 2 22 0 37 -3 35 -4
-2 -9 3 -13 11 -3 8 -15 15 -28 15 -20 0 -20 -1 -4 -13z"/>
<path d="M13835 1080 c-3 -5 1 -10 9 -10 8 0 18 5 21 10 3 6 -1 10 -9 10 -8 0
-18 -4 -21 -10z"/>
<path d="M12232 1015 c-43 -36 -53 -115 -15 -115 10 0 13 4 7 13 -13 17 -10
37 9 73 20 39 41 48 62 28 23 -23 19 -40 -22 -86 -33 -37 -34 -40 -11 -25 23
14 31 15 48 5 15 -10 22 -10 32 0 9 9 8 12 -9 12 -17 0 -20 5 -16 23 4 12 15
35 26 50 21 31 14 53 -8 24 -13 -18 -14 -18 -27 2 -17 28 -40 27 -76 -4z"/>
<path d="M13770 992 c0 -7 -9 -12 -20 -12 -11 0 -20 -4 -20 -10 0 -5 6 -10 14
-10 17 0 41 28 32 37 -3 3 -6 1 -6 -5z"/>
<path d="M3980 665 c0 -34 -1 -38 -11 -57 -8 -15 -5 -18 21 -18 16 0 30 -5 30
-10 0 -14 -43 -80 -52 -80 -4 0 -19 17 -32 37 -19 27 -23 40 -14 50 8 10 6 13
-11 13 -17 0 -21 6 -21 34 0 24 5 36 18 39 11 3 9 5 -8 6 -24 1 -25 -1 -26
-67 -1 -66 -16 -111 -53 -158 -9 -11 -1 -5 17 15 17 19 32 39 32 45 1 6 7 24
13 40 l13 30 28 -49 c28 -47 28 -49 10 -63 -11 -8 -34 -21 -53 -29 -18 -8 -31
-17 -28 -20 3 -3 30 8 60 24 l54 30 44 -23 c48 -25 69 -29 69 -14 0 5 -15 12
-32 15 -18 4 -42 13 -52 21 -18 12 -18 15 -4 31 16 19 44 70 48 88 1 6 -12 9
-30 7 -27 -3 -31 -1 -26 15 15 53 17 73 7 73 -6 0 -11 -11 -11 -25z"/>
<path d="M4485 576 c0 -94 1 -101 20 -101 19 0 20 7 20 97 0 89 -2 97 -20 100
-19 4 -20 -1 -20 -96z"/>
<path d="M3455 570 c0 -97 1 -100 22 -100 20 0 21 3 12 27 -11 30 -9 129 3
156 7 14 4 17 -14 17 -22 0 -23 -3 -23 -100z"/>
<path d="M3558 569 l-3 -99 30 1 c17 0 24 3 18 6 -16 6 -18 164 -2 180 7 7 3
11 -15 11 -25 0 -25 -1 -28 -99z"/>
<path d="M4280 656 c7 -10 10 -44 8 -100 -3 -72 -1 -86 12 -86 12 0 15 17 15
100 0 99 0 100 -24 100 -19 0 -21 -3 -11 -14z"/>
<path d="M4387 573 c1 -74 5 -99 15 -101 11 -2 14 18 13 98 0 82 -3 100 -15
100 -12 0 -15 -17 -13 -97z"/>
<path d="M2867 648 c14 -18 16 -143 3 -168 -10 -18 -8 -20 22 -20 25 0 29 3
20 12 -16 16 -16 160 0 176 9 9 5 12 -21 12 -25 0 -31 -3 -24 -12z"/>
<path d="M1986 638 c5 -7 7 -51 6 -99 l-1 -86 37 -1 c85 -4 132 35 132 108 0
65 -32 90 -115 90 -50 0 -64 -3 -59 -12z m113 -13 c69 -35 28 -170 -49 -162
-24 2 -25 4 -28 90 l-3 87 26 0 c14 0 39 -7 54 -15z"/>
<path d="M3150 583 c0 -5 7 -19 16 -32 11 -15 20 -19 26 -13 6 6 7 15 4 21
-10 15 -46 34 -46 24z"/>
<path d="M2200 470 c0 -5 7 -10 15 -10 8 0 15 5 15 10 0 6 -7 10 -15 10 -8 0
-15 -4 -15 -10z"/>
</g>
</svg>
