<?xml version="1.0" standalone="no"?>
<!DOCTYPE svg PUBLIC "-//W3C//DTD SVG 20010904//EN"
 "http://www.w3.org/TR/2001/REC-SVG-20010904/DTD/svg10.dtd">
<svg version="1.0" xmlns="http://www.w3.org/2000/svg"
 width="1471.000000pt" height="659.000000pt" viewBox="0 0 1471.000000 659.000000"
 preserveAspectRatio="xMidYMid meet">
<metadata>
Created by potrace 1.16, written by Peter Selinger 2001-2019
</metadata>
<g transform="translate(0.000000,659.000000) scale(0.100000,-0.100000)"
fill="#000000" stroke="none">
<path d="M9358 6210 c-15 -17 -15 -19 2 -23 10 -2 24 -1 31 4 11 7 11 9 1 9
-7 0 -11 4 -7 9 11 19 -12 20 -27 1z"/>
<path d="M10996 6218 c-2 -7 -7 -22 -11 -33 -3 -11 -5 -21 -3 -21 2 -1 -5 -11
-15 -22 -11 -12 -26 -18 -35 -15 -11 4 -8 -2 7 -15 28 -25 43 -28 35 -7 -3 8
4 28 16 45 12 17 19 34 16 37 -3 3 -1 12 5 19 7 8 7 14 -1 19 -5 3 -12 0 -14
-7z"/>
<path d="M12197 6200 c-8 -22 -17 -30 -29 -27 -13 4 -16 -2 -16 -26 1 -29 2
-30 11 -10 5 12 18 24 29 26 11 3 17 10 14 16 -3 5 1 16 9 25 10 10 12 17 5
21 -6 4 -16 -7 -23 -25z"/>
<path d="M12300 6187 c-6 -23 -17 -48 -22 -55 -6 -7 -9 -15 -6 -18 6 -6 42 53
52 84 4 11 3 23 -2 26 -5 3 -15 -14 -22 -37z"/>
<path d="M12610 6215 c0 -12 -13 -15 -55 -15 l-55 0 1 -47 c0 -36 3 -43 9 -28
5 11 9 30 9 43 1 21 4 22 116 22 63 0 115 4 115 9 0 5 -27 7 -60 4 -53 -5 -60
-4 -54 11 4 11 1 16 -10 16 -9 0 -16 -7 -16 -15z"/>
<path d="M12950 6181 l0 -50 -42 -4 -43 -4 43 -1 43 -2 -6 -85 c-3 -54 -1 -85
5 -85 10 0 15 61 11 133 l-3 37 47 0 c25 0 44 4 41 9 -3 5 -25 7 -47 4 l-42
-6 5 51 c3 29 1 52 -3 52 -5 0 -9 -22 -9 -49z"/>
<path d="M13176 6190 c-14 -22 -24 -40 -22 -40 8 0 66 64 66 73 0 18 -20 4
-44 -33z"/>
<path d="M13946 6214 c-5 -14 -17 -16 -71 -11 -39 4 -65 2 -65 -3 0 -6 39 -10
93 -9 50 0 86 3 80 6 -7 2 -13 11 -13 19 0 19 -16 18 -24 -2z"/>
<path d="M1538 6188 c-3 -33 -3 -33 -55 -33 l-53 1 0 -62 0 -63 38 6 c48 7 54
13 14 13 -31 0 -32 1 -32 45 l0 45 45 0 45 0 0 -38 c0 -21 -5 -43 -12 -50 -9
-9 -9 -12 0 -12 8 0 12 -19 12 -57 0 -67 6 -67 14 0 4 26 7 51 7 55 1 4 0 12
-1 17 -2 6 -3 27 -4 47 -1 31 2 38 19 39 18 0 18 1 -2 9 -25 10 -28 22 -13 51
8 15 7 19 -4 19 -9 0 -16 -12 -18 -32z"/>
<path d="M1792 6188 c-7 -20 -16 -29 -25 -25 -12 4 -16 -12 -19 -86 -3 -51 -1
-96 3 -101 6 -6 9 -5 9 2 0 7 14 12 35 12 19 0 35 -4 35 -10 0 -5 4 -10 9 -10
6 0 9 42 8 98 -2 94 -3 97 -24 94 -26 -4 -30 10 -8 31 11 12 12 16 2 20 -8 3
-18 -7 -25 -25z m38 -73 c0 -21 -5 -35 -12 -36 -10 0 -10 -2 0 -6 6 -2 12 -20
12 -39 0 -32 -2 -34 -35 -34 l-35 0 0 68 c0 38 3 72 7 75 3 4 19 7 35 7 25 0
28 -3 28 -35z"/>
<path d="M1889 6162 c-33 -77 -34 -82 -9 -44 12 17 26 32 32 32 5 0 6 4 3 10
-3 5 -1 18 5 29 5 11 6 22 2 25 -5 3 -20 -20 -33 -52z"/>
<path d="M2468 6212 c-34 -3 -38 -6 -38 -30 -1 -15 -7 -38 -15 -52 -18 -32
-18 -41 0 -34 13 5 15 -8 16 -77 1 -56 4 -72 8 -49 5 27 11 36 30 38 22 3 23
1 18 -27 -4 -17 -3 -31 2 -31 15 0 21 29 21 96 l0 64 78 0 79 0 1 46 c0 30 -4
44 -11 41 -7 -2 -11 -20 -11 -40 1 -21 -2 -37 -7 -37 -5 0 -9 20 -9 45 0 25
-4 45 -10 45 -5 0 -10 -20 -10 -45 0 -25 -4 -45 -10 -45 -5 0 -8 15 -6 34 1
18 -1 42 -5 52 -6 16 -9 13 -14 -13 -8 -33 -25 -46 -25 -18 0 8 -4 15 -10 15
-5 0 -10 -13 -10 -30 0 -46 -19 -36 -22 13 l-3 42 -37 -3z m20 -29 c0 -10 1
-24 3 -32 2 -7 -2 -16 -10 -19 -10 -3 -13 1 -8 17 3 11 1 24 -4 27 -5 3 -9 -6
-9 -20 0 -14 -4 -26 -10 -26 -5 0 -10 16 -10 35 0 30 3 35 24 35 17 0 25 -5
24 -17z m82 -53 c0 -5 -2 -10 -4 -10 -3 0 -8 5 -11 10 -3 6 -1 10 4 10 6 0 11
-4 11 -10z m-70 -20 c0 -5 -15 -10 -34 -10 -19 0 -38 5 -41 10 -4 6 10 10 34
10 23 0 41 -4 41 -10z m-12 -55 c-1 -30 -5 -35 -25 -35 -24 0 -31 14 -12 26 8
5 8 9 -1 14 -17 10 -3 30 20 30 16 0 19 -7 18 -35z"/>
<path d="M2870 6190 c0 -22 -6 -33 -22 -40 l-23 -9 22 0 c20 -1 22 -6 19 -33
-3 -30 -7 -34 -42 -39 l-39 -6 36 -2 c33 -1 37 -4 42 -33 6 -44 3 -48 -48 -48
l-43 0 0 79 c0 79 0 80 26 84 22 3 20 4 -9 6 l-36 1 -1 -100 c-1 -61 2 -100 8
-100 5 0 10 5 10 10 0 16 207 13 213 -2 6 -15 7 -6 10 113 l2 86 -55 -1 -55
-1 3 33 c1 17 -2 32 -8 32 -5 0 -10 -14 -10 -30z m109 -130 l0 -80 -49 0 -48
0 0 80 0 80 48 0 49 0 0 -80z"/>
<path d="M2928 6063 c7 -3 16 -2 19 1 4 3 -2 6 -13 5 -11 0 -14 -3 -6 -6z"/>
<path d="M3153 6195 c-6 -14 -7 -25 -2 -25 5 0 9 -23 9 -52 0 -40 3 -49 12
-40 18 18 38 14 38 -8 0 -11 -6 -20 -14 -20 -7 0 -16 -9 -19 -19 -2 -11 -27
-31 -53 -46 -27 -14 -38 -23 -24 -19 14 4 42 18 62 30 21 13 40 24 43 24 3 0
5 -17 5 -37 0 -24 3 -33 9 -25 4 7 6 24 4 36 -3 16 2 28 16 39 22 14 22 14 1
20 -11 3 -20 10 -20 16 0 17 31 26 40 12 10 -17 16 8 19 82 2 35 -2 57 -8 57
-11 0 -15 -19 -12 -57 2 -20 -3 -23 -38 -23 -38 0 -61 13 -43 24 10 6 4 56 -7
56 -3 0 -11 -11 -18 -25z m107 -80 c0 -11 -11 -15 -39 -15 -38 0 -57 10 -44
24 3 3 24 6 45 6 27 0 38 -4 38 -15z"/>
<path d="M3546 6205 c-3 -10 -20 -16 -48 -17 l-43 -1 45 -6 c31 -4 45 -11 45
-21 0 -9 -9 -15 -25 -15 -24 0 -25 -3 -30 -75 -6 -86 -4 -96 16 -79 9 7 37 10
74 7 l60 -4 0 77 0 78 -35 -6 c-41 -7 -51 9 -36 50 8 21 8 27 -3 27 -8 0 -16
-7 -20 -15z m79 -90 c0 -11 -89 -19 -112 -11 -8 3 -11 11 -8 16 8 14 120 9
120 -5z m-7 -65 l0 -41 -56 3 c-33 2 -57 8 -60 16 -2 6 4 12 13 12 15 0 15 1
1 16 -25 24 -10 34 49 34 l54 0 -1 -40z"/>
<path d="M3880 6197 c0 -13 -5 -28 -12 -35 -9 -9 -7 -12 11 -12 19 0 22 4 18
22 -4 12 -1 28 5 35 8 10 6 13 -6 13 -10 0 -16 -8 -16 -23z"/>
<path d="M4100 6081 c0 -117 2 -132 16 -127 9 3 56 6 105 6 l89 0 -11 27 c-6
15 -9 52 -7 82 l3 55 -64 -3 c-52 -2 -63 0 -55 11 5 7 9 22 9 33 0 11 4 23 10
27 15 11 75 9 75 -2 0 -5 -4 -10 -9 -10 -4 0 -6 -11 -3 -25 7 -37 22 -30 22
11 0 31 3 35 22 32 29 -4 35 -33 28 -150 -4 -77 1 -110 15 -96 2 2 5 61 6 131
l2 128 -126 2 -127 2 0 -134z m60 109 c4 0 4 -17 -1 -37 -5 -21 -9 -61 -9 -88
l0 -50 46 4 c36 2 49 -1 56 -13 5 -9 16 -16 23 -16 8 0 15 -4 15 -10 0 -15
-137 -13 -143 3 -4 9 -8 8 -16 -3 -9 -13 -11 -12 -12 5 0 11 -2 40 -3 65 -2
25 -1 69 2 98 4 41 8 52 19 48 8 -4 18 -6 23 -6z m120 -90 c0 -5 -21 -11 -47
-12 l-48 -2 46 -3 c42 -4 47 -7 47 -28 0 -23 -4 -25 -54 -25 l-54 0 0 40 0 40
55 0 c30 0 55 -4 55 -10z"/>
<path d="M4170 6000 c-12 -8 -11 -10 7 -10 12 0 25 5 28 10 8 13 -15 13 -35 0z"/>
<path d="M4464 6198 c-3 -13 -15 -35 -25 -49 l-18 -26 24 5 c20 3 25 0 25 -16
0 -13 -8 -22 -22 -25 l-23 -4 23 -2 c20 -1 22 -6 22 -50 0 -41 -4 -51 -20 -56
-11 -3 -20 -10 -20 -15 0 -10 87 17 95 29 2 5 -7 6 -20 3 -23 -4 -25 -2 -25
38 0 33 4 43 20 47 24 6 27 25 3 21 -10 -2 -19 4 -21 15 -2 12 3 17 17 17 12
0 21 -4 21 -10 0 -5 7 -7 15 -4 13 5 15 -8 15 -80 0 -47 3 -86 6 -86 3 0 12 7
20 15 9 8 11 15 5 15 -6 0 -11 11 -11 25 0 18 5 25 20 25 12 0 21 -7 22 -17 0
-10 1 -25 2 -33 1 -18 71 -26 82 -9 5 9 0 10 -15 6 -33 -8 -51 2 -51 29 0 19
5 24 25 24 14 0 25 5 25 11 0 5 -10 9 -22 7 -35 -5 -32 43 2 53 l25 7 -27 1
c-40 1 -38 31 1 31 17 0 33 5 37 11 4 8 -3 9 -24 4 -34 -7 -49 7 -27 25 17 14
20 30 5 30 -6 0 -15 -11 -20 -25 -5 -14 -20 -29 -32 -34 -21 -7 -21 -8 -2 -13
17 -4 20 -13 19 -49 -1 -37 -4 -44 -23 -47 -18 -3 -22 1 -22 27 0 20 6 31 18
34 16 4 16 5 0 6 -23 1 -24 48 -3 78 9 13 11 24 5 28 -5 3 -19 -15 -31 -40
-15 -32 -26 -44 -36 -41 -8 4 -28 6 -43 6 l-29 0 17 29 17 30 22 -21 c13 -12
23 -17 23 -12 -1 14 -37 54 -48 54 -6 0 -14 -10 -18 -22z"/>
<path d="M4780 6186 c0 -20 -8 -49 -17 -64 -14 -21 -14 -24 -2 -15 10 8 52 11
137 8 l122 -4 0 34 c0 43 -2 51 -15 47 -5 -2 -15 4 -21 13 -11 15 -13 14 -19
-4 -3 -12 -3 -26 1 -32 4 -7 1 -10 -7 -7 -8 3 -14 11 -15 19 -3 36 -4 42 -11
35 -4 -4 -8 -26 -9 -49 -1 -50 -17 -56 -21 -8 -4 48 -13 52 -13 7 0 -52 -25
-42 -26 10 0 35 -3 39 -25 36 -30 -5 -39 -12 -13 -12 19 0 21 -8 15 -62 -1 -5
-6 -8 -12 -8 -7 0 -9 10 -7 25 6 31 -9 33 -22 3 -8 -20 -9 -18 -8 14 1 20 -1
40 -5 44 -4 4 -7 -9 -7 -30z m230 -16 c0 -5 -4 -10 -10 -10 -5 0 -10 5 -10 10
0 6 5 10 10 10 6 0 10 -4 10 -10z m-45 -30 c3 -5 -1 -10 -10 -10 -9 0 -13 5
-10 10 3 6 8 10 10 10 2 0 7 -4 10 -10z m45 0 c0 -5 -7 -10 -16 -10 -8 0 -12
5 -9 10 3 6 10 10 16 10 5 0 9 -4 9 -10z"/>
<path d="M5513 6195 c-6 -14 -7 -27 -2 -31 5 -3 9 -26 9 -52 0 -31 3 -42 9
-33 11 17 41 7 41 -14 0 -12 -14 -15 -67 -17 l-68 -1 59 -6 c55 -6 57 -7 40
-22 -11 -9 -37 -26 -59 -38 -24 -13 -30 -19 -15 -15 14 4 42 18 62 30 21 13
40 24 44 24 3 0 4 -16 3 -34 -2 -19 0 -38 4 -42 4 -4 7 11 7 34 0 23 3 42 6
42 3 0 25 -14 50 -31 25 -17 52 -29 62 -27 10 2 -5 14 -41 31 -31 16 -57 33
-57 38 0 5 26 9 57 9 31 0 53 3 49 7 -4 5 -34 6 -67 5 -54 -4 -59 -2 -59 17 0
22 24 29 35 11 13 -20 25 2 25 45 0 25 5 45 13 48 10 4 10 6 0 6 -7 1 -13 10
-13 21 0 27 -13 25 -27 -5 -6 -14 -7 -25 -2 -25 5 0 9 -7 9 -15 0 -11 -12 -15
-44 -15 l-44 0 5 40 c6 45 -6 53 -24 15z m107 -79 c0 -7 -10 -15 -22 -18 -37
-6 -68 2 -68 18 0 10 13 14 45 14 32 0 45 -4 45 -14z"/>
<path d="M5900 6171 l0 -50 -42 -4 -43 -4 43 -1 c39 -2 42 -4 42 -30 0 -15 -5
-33 -12 -40 -9 -9 -9 -12 0 -12 8 0 12 -17 12 -45 0 -25 4 -45 9 -45 11 0 20
101 11 113 -4 4 -5 19 -2 33 4 21 10 24 49 24 24 0 42 4 39 9 -3 5 -25 7 -47
4 l-42 -6 5 51 c4 40 2 52 -8 52 -10 0 -14 -15 -14 -49z"/>
<path d="M6280 6192 c0 -24 -5 -32 -17 -32 -17 -1 -17 -1 0 -11 12 -7 17 -23
17 -55 0 -44 -1 -45 -46 -64 -25 -11 -42 -24 -39 -30 4 -6 17 -3 35 10 39 27
50 25 50 -10 0 -26 -4 -30 -27 -30 l-27 0 23 -16 c13 -9 26 -13 31 -8 5 5 10
45 12 89 2 56 6 74 12 60 32 -75 50 -107 63 -112 27 -10 24 5 -7 36 -35 35
-36 60 -2 77 16 8 20 14 12 19 -6 4 -20 -1 -30 -10 -17 -16 -19 -15 -30 5 -13
24 -8 34 18 35 55 4 63 6 57 15 -3 5 -12 7 -20 3 -9 -3 -15 1 -15 10 0 8 -7
20 -15 27 -9 8 -15 9 -15 2 0 -6 5 -14 10 -17 18 -11 10 -26 -12 -23 -16 2
-23 10 -23 25 0 12 -4 25 -8 29 -4 4 -7 -7 -7 -24z"/>
<path d="M6466 6193 c3 -12 -1 -36 -10 -54 -19 -39 -19 -40 -3 -36 9 1 12 -19
13 -76 1 -43 4 -81 8 -84 3 -4 6 10 6 31 0 33 3 37 22 34 28 -4 36 -35 11 -41
-17 -4 -17 -4 0 -12 10 -4 21 -5 24 -1 5 5 10 53 12 116 1 12 16 14 86 11 52
-2 85 1 85 7 0 6 -25 8 -62 5 -35 -3 -74 0 -88 5 -22 10 -19 11 25 12 28 1 65
1 83 0 30 -1 32 0 32 34 0 46 -2 52 -19 48 -8 -2 -18 2 -23 10 -8 10 -11 10
-15 1 -7 -19 -23 -16 -23 4 0 24 -13 7 -15 -19 -1 -12 -7 -24 -14 -26 -7 -2
-11 2 -9 9 1 8 -2 16 -7 19 -6 3 -11 -10 -13 -27 -5 -48 -22 -40 -22 10 l0 42
-45 0 c-41 0 -44 -2 -39 -22z m64 -3 c0 -5 -7 -10 -15 -10 -8 0 -15 -9 -15
-20 0 -11 -4 -20 -10 -20 -5 0 -10 14 -10 30 0 25 4 30 25 30 14 0 25 -4 25
-10z m120 -35 c0 -14 -4 -25 -9 -25 -5 0 -8 11 -8 25 0 14 3 25 8 25 5 0 9
-11 9 -25z m40 -6 c0 -20 -4 -29 -12 -26 -7 2 -12 7 -10 10 1 4 2 16 2 27 0
11 5 20 10 20 6 0 10 -14 10 -31z m-160 -4 c0 -8 -4 -15 -10 -15 -5 0 -10 7
-10 15 0 8 5 15 10 15 6 0 10 -7 10 -15z m80 -10 c0 -8 -4 -15 -9 -15 -13 0
-22 16 -14 24 11 11 23 6 23 -9z m-70 -25 c0 -5 -15 -10 -34 -10 -19 0 -38 5
-41 10 -4 6 10 10 34 10 23 0 41 -4 41 -10z m-10 -35 c0 -9 -9 -15 -25 -15
-24 0 -32 10 -18 23 12 13 43 7 43 -8z m-2 -42 c2 -8 -6 -13 -22 -13 -25 0
-33 10 -19 24 10 10 36 3 41 -11z"/>
<path d="M6818 6184 c-15 -33 -15 -38 -1 -52 14 -14 13 -18 -13 -39 -29 -23
-27 -27 14 -23 23 2 24 -1 20 -58 -1 -33 0 -64 5 -68 4 -4 7 22 7 59 0 65 13
93 31 66 5 -9 9 -10 9 -2 0 19 -12 43 -22 43 -5 0 -6 -4 -3 -10 3 -5 -3 -10
-14 -10 -26 0 -27 14 -3 32 29 22 44 46 33 53 -6 3 -16 -5 -22 -19 -7 -14 -17
-22 -25 -19 -19 7 -17 26 5 50 18 19 18 33 1 33 -3 0 -13 -16 -22 -36z"/>
<path d="M7263 6193 c2 -26 -1 -28 -43 -34 l-45 -6 46 -1 47 -2 7 -47 c3 -27
9 -58 12 -70 4 -17 -4 -27 -37 -48 -23 -15 -39 -29 -36 -32 3 -4 14 1 23 9 44
38 61 40 97 13 37 -28 56 -32 56 -11 0 8 2 23 5 33 3 11 1 9 -6 -4 -15 -29
-21 -29 -55 0 l-27 23 37 52 c25 36 32 52 22 52 -8 0 -23 -16 -32 -35 -23 -50
-31 -51 -43 -8 -14 50 -14 73 1 73 9 0 9 3 0 12 -7 7 -12 22 -12 35 0 13 -4
23 -9 23 -6 0 -9 -12 -8 -27z"/>
<path d="M8300 6200 c0 -16 -7 -20 -32 -20 -20 0 -28 -3 -21 -8 7 -4 16 -22
19 -39 6 -29 5 -31 -17 -26 -13 3 -21 2 -16 -2 11 -12 157 -16 157 -5 0 6 -11
10 -24 10 -23 0 -24 2 -15 30 6 17 18 30 26 30 8 0 11 5 8 11 -4 6 -19 7 -37
3 -28 -6 -30 -4 -25 15 3 14 0 21 -9 21 -8 0 -14 -9 -14 -20z m37 -45 c3 -9
-3 -25 -13 -36 l-18 -20 -18 23 c-10 13 -18 29 -18 36 0 18 59 15 67 -3z"/>
<path d="M8405 6079 c0 -76 3 -139 7 -139 11 0 14 261 3 270 -7 5 -10 -39 -10
-131z"/>
<path d="M8715 6210 c-20 -9 -20 -9 0 -9 15 -1 25 -12 34 -36 13 -37 76 -93
89 -80 4 4 0 10 -8 13 -28 10 -80 73 -80 98 0 26 -4 27 -35 14z"/>
<path d="M8946 6189 c-5 -25 -9 -29 -26 -24 -19 6 -20 2 -20 -94 0 -61 4 -101
10 -101 6 0 10 5 10 11 0 8 15 10 43 7 l44 -5 -5 49 c-4 41 -1 52 19 72 41 42
54 60 51 74 -2 7 2 20 9 28 9 11 8 14 -2 14 -8 0 -20 -19 -27 -42 -8 -24 -18
-49 -24 -55 -19 -23 -31 -14 -24 17 5 28 4 30 -19 24 -20 -5 -25 -2 -25 13 0
10 5 24 12 31 9 9 9 12 -4 12 -9 0 -18 -12 -22 -31z m44 -69 c0 -28 -3 -30
-35 -30 -32 0 -35 2 -35 30 0 28 3 30 35 30 32 0 35 -2 35 -30z m-5 -80 c0
-32 -3 -35 -32 -38 -32 -3 -33 -3 -33 38 0 41 1 41 33 38 29 -3 32 -6 32 -38z"/>
<path d="M9620 6185 c0 -31 -3 -35 -27 -36 -24 -2 -25 -2 -5 -6 27 -5 27 -13
1 -64 -25 -49 -18 -65 8 -17 l18 33 6 -80 5 -80 2 76 c1 42 5 79 9 82 3 4 15
0 25 -10 10 -9 18 -11 18 -5 0 6 -11 19 -25 30 -26 21 -24 32 7 32 10 0 18 5
18 11 0 6 -9 9 -19 6 -24 -6 -35 17 -21 44 8 15 7 19 -5 19 -11 0 -15 -10 -15
-35z"/>
<path d="M9922 6080 l1 -135 7 110 c4 61 8 118 9 128 1 15 13 17 100 17 55 0
101 -3 103 -7 2 -5 2 -57 0 -116 -3 -103 -4 -109 -23 -104 -17 4 -18 3 -8 -9
15 -19 35 -18 43 2 3 9 6 67 6 129 l0 114 -120 3 -120 3 2 -135z"/>
<path d="M10845 6210 l-40 -7 48 -2 c30 0 46 3 42 9 -3 6 -7 9 -8 9 -1 -1 -20
-5 -42 -9z"/>
<path d="M11151 6081 c-2 -119 0 -133 14 -127 9 3 29 6 43 7 15 0 21 3 15 6
-21 8 -15 20 15 28 15 4 21 10 15 12 -7 3 -27 -2 -44 -11 -17 -9 -35 -14 -39
-11 -9 5 -11 169 -3 198 4 15 18 17 108 17 120 0 115 6 115 -126 0 -62 -4 -85
-16 -95 -14 -11 -14 -13 1 -22 9 -5 18 -7 20 -5 2 1 5 62 7 133 l3 130 -127 0
-126 0 -1 -134z"/>
<path d="M11499 6172 l-35 -48 28 4 c21 3 28 0 28 -12 0 -10 -9 -16 -22 -17
l-23 0 23 -9 c18 -8 22 -17 22 -50 0 -22 4 -40 9 -40 5 0 9 28 9 63 -1 50 3
63 16 65 9 2 16 -2 16 -9 0 -10 3 -10 12 -1 21 21 26 13 24 -35 0 -27 4 -48 9
-48 6 0 9 15 7 33 -3 28 0 32 22 32 23 0 24 -3 24 -60 0 -57 -1 -60 -24 -60
-13 0 -24 5 -24 10 0 6 -4 10 -10 10 -5 0 -10 -11 -10 -25 0 -14 5 -25 10 -25
6 0 10 5 10 10 0 6 30 11 68 11 37 1 54 4 37 6 -39 6 -49 16 -40 42 4 14 15
21 31 21 14 0 23 4 20 9 -3 5 -14 7 -25 4 -11 -3 -21 2 -25 12 -9 24 1 35 30
35 14 0 23 4 20 9 -3 5 -15 7 -26 4 -15 -4 -20 0 -20 16 0 17 6 21 31 21 18 0
28 4 24 10 -3 6 -17 7 -31 4 -28 -7 -31 2 -7 28 15 17 15 18 -1 18 -9 0 -21
-11 -26 -24 -5 -13 -15 -26 -22 -29 -10 -4 -10 -6 0 -6 6 -1 12 -10 12 -21 0
-15 -7 -20 -25 -20 -18 0 -25 5 -25 20 0 11 4 20 9 20 5 0 7 8 4 19 -3 10 0
22 6 25 12 8 15 26 3 26 -4 0 -18 -20 -31 -45 -23 -44 -35 -53 -45 -36 -3 4
-17 6 -31 3 -31 -5 -34 17 -6 42 18 16 20 16 35 -6 11 -16 16 -18 16 -7 0 14
-29 49 -41 49 -2 0 -20 -22 -40 -48z"/>
<path d="M11830 6187 c0 -18 -7 -42 -15 -53 -20 -27 -19 -40 3 -21 10 10 28
17 40 17 15 0 20 5 16 15 -3 8 -2 20 2 27 6 9 11 1 15 -22 4 -19 6 -36 4 -38
-2 -2 -17 -4 -34 -4 l-31 -1 0 -79 c0 -45 4 -78 10 -78 6 0 10 14 10 30 0 23
4 30 20 30 13 0 20 -7 20 -20 0 -11 -5 -20 -12 -20 -9 0 -9 -3 0 -12 21 -21
32 9 32 90 l0 72 80 0 c69 0 80 2 80 18 0 9 3 27 6 40 5 18 2 22 -19 22 -14 0
-28 6 -30 13 -4 10 -6 10 -6 0 -1 -7 -7 -13 -15 -13 -8 0 -17 6 -19 13 -4 10
-6 10 -6 0 -1 -7 -10 -13 -21 -13 -16 0 -20 -7 -20 -30 0 -20 -5 -30 -15 -30
-11 0 -15 11 -15 40 l0 40 -40 0 c-39 0 -40 -1 -40 -33z m60 13 c0 -5 -7 -10
-15 -10 -10 0 -15 -10 -15 -27 0 -20 -3 -24 -11 -16 -18 18 -2 63 21 63 11 0
20 -4 20 -10z m88 -22 c-3 -7 -8 -13 -13 -13 -5 0 -10 6 -12 13 -3 6 3 12 12
12 9 0 15 -6 13 -12z m38 -15 c-4 -38 -23 -40 -24 -3 0 19 4 30 13 30 9 0 13
-9 11 -27z m40 0 c-4 -38 -23 -40 -23 -3 0 17 6 30 13 30 8 0 12 -10 10 -27z
m-86 -23 c0 -5 -4 -10 -10 -10 -5 0 -10 5 -10 10 0 6 5 10 10 10 6 0 10 -4 10
-10z m-80 -82 c0 -32 -3 -39 -17 -36 -32 6 -30 75 1 75 12 0 16 -10 16 -39z"/>
<path d="M13320 6210 l-75 -6 83 -2 c49 -1 82 2 82 8 0 6 -3 9 -7 8 -5 -1 -42
-4 -83 -8z"/>
<path d="M13654 6205 c3 -8 3 -29 -1 -45 -5 -27 -9 -30 -44 -30 -38 0 -39 1
-39 34 0 33 2 35 38 39 20 2 3 4 -38 4 -41 0 -60 -2 -42 -4 29 -4 32 -7 32
-40 0 -53 -28 -139 -57 -174 -14 -16 -23 -32 -20 -35 11 -11 65 77 72 115 7
44 20 51 98 51 46 0 48 -1 42 -22 -8 -25 -44 -68 -57 -68 -4 0 -16 17 -27 38
-11 20 -20 32 -21 27 0 -6 9 -27 20 -48 l20 -37 -50 -25 c-87 -44 -56 -41 41
5 22 10 32 9 67 -9 44 -22 62 -26 62 -13 0 5 -18 14 -40 21 -50 15 -57 27 -33
54 20 23 53 73 53 81 0 3 -15 6 -32 8 -18 2 -32 8 -32 13 1 6 5 25 9 43 5 26
3 32 -10 32 -11 0 -15 -5 -11 -15z"/>
<path d="M14297 6213 c12 -2 24 -14 27 -28 7 -27 67 -95 85 -95 20 0 11 15
-23 37 -20 13 -40 37 -47 58 -11 28 -18 35 -39 34 -22 -2 -22 -2 -3 -6z"/>
<path d="M1099 6141 c-1 -36 -2 -96 -4 -133 -3 -70 -1 -75 25 -57 11 8 12 12
3 16 -9 3 -13 36 -13 113 0 105 1 109 23 112 20 3 20 4 -5 9 l-28 6 -1 -66z"/>
<path d="M1330 6208 c-4 -38 -1 -261 4 -265 3 -4 6 45 6 108 0 63 3 124 6 137
4 13 2 22 -5 22 -6 0 -11 -1 -11 -2z"/>
<path d="M2089 6173 c-2 -119 0 -226 5 -231 7 -7 7 -4 6 128 0 58 3 110 7 116
5 7 19 14 33 17 19 3 15 5 -12 6 -37 1 -38 0 -39 -36z"/>
<path d="M2199 6174 c-1 -21 -2 -50 -3 -64 -1 -18 -7 -26 -23 -28 -20 -3 -23
-9 -23 -45 l0 -42 60 0 60 0 0 47 c0 38 -3 46 -15 42 -12 -5 -13 -10 -4 -20 6
-7 8 -22 4 -34 -5 -16 -15 -20 -46 -20 -37 0 -39 2 -39 30 0 24 4 30 23 30 21
0 22 4 21 65 -1 71 -13 102 -15 39z"/>
<path d="M2318 6096 c3 -93 1 -115 -11 -118 -11 -2 -10 -7 5 -22 18 -19 18
-17 18 95 0 63 3 124 6 137 4 15 2 22 -7 22 -11 0 -13 -23 -11 -114z"/>
<path d="M5165 6199 c-11 -4 -15 -8 -9 -8 7 -1 14 -13 17 -28 9 -46 -13 -121
-49 -168 -19 -25 -30 -45 -24 -45 13 0 54 59 70 100 18 49 27 56 35 29 4 -13
16 -36 27 -52 l20 -27 -54 -25 c-29 -14 -47 -25 -39 -25 8 0 35 10 59 21 l44
22 42 -22 c47 -23 66 -26 66 -11 0 6 -4 10 -10 10 -5 0 -27 7 -48 17 l-38 16
33 50 c18 27 33 53 33 58 0 5 -14 9 -31 9 -24 0 -29 4 -25 18 18 59 18 72 2
72 -11 0 -15 -9 -14 -33 2 -46 -7 -57 -48 -57 -32 0 -34 2 -34 35 0 33 2 35
32 35 17 0 29 2 27 4 -9 9 -65 13 -84 5z m148 -106 c-9 -27 -43 -73 -53 -73
-10 0 -50 63 -50 79 0 7 21 11 55 11 48 0 54 -2 48 -17z"/>
<path d="M7320 6195 c7 -9 15 -13 17 -11 7 7 -7 26 -19 26 -6 0 -6 -6 2 -15z"/>
<path d="M8020 6200 c-82 -4 -102 -7 -58 -8 65 -2 90 -14 71 -33 -6 -6 -7 -27
-3 -51 4 -22 5 -51 1 -64 -9 -35 -34 -14 -35 30 -1 32 -4 36 -26 35 -17 -1
-19 -3 -7 -6 21 -6 21 -19 -3 -63 -20 -38 -30 -30 -28 25 1 54 8 75 26 76 10
1 7 4 -8 8 l-25 7 -5 -101 c-3 -55 -2 -104 2 -109 5 -6 8 2 8 17 0 15 11 37
27 53 24 24 28 25 38 10 7 -9 17 -16 24 -16 6 0 11 -13 11 -30 0 -16 5 -30 10
-30 6 0 10 9 10 20 0 12 9 34 21 49 l21 28 24 -24 c29 -29 28 -60 -1 -55 -20
3 -20 3 0 -12 11 -8 24 -11 28 -6 5 4 11 53 14 109 4 84 3 100 -9 96 -10 -4
-13 -22 -10 -73 l3 -67 -21 25 c-13 15 -20 33 -17 47 4 19 0 23 -22 23 -21 -1
-23 -2 -10 -10 19 -11 15 -53 -7 -71 -12 -10 -14 -1 -14 49 l0 61 38 4 37 4
-37 1 c-31 2 -38 6 -38 22 0 18 7 20 60 20 33 0 60 4 60 10 0 6 -6 9 -12 8 -7
-1 -69 -5 -138 -8z"/>
<path d="M8476 6196 c3 -8 0 -24 -6 -36 -20 -37 -4 -33 19 5 26 44 26 45 1 45
-13 0 -17 -5 -14 -14z"/>
<path d="M9470 6200 c-12 -8 -10 -10 8 -10 13 0 20 4 17 10 -7 12 -6 12 -25 0z"/>
<path d="M9708 6084 c-3 -117 2 -149 17 -124 8 13 95 13 95 -1 0 -5 5 -7 10
-4 6 4 10 58 10 131 0 76 -4 124 -10 124 -5 0 -10 -18 -10 -40 l0 -40 -50 0
c-46 0 -50 2 -50 24 0 14 5 28 10 31 6 4 8 11 5 16 -17 27 -24 -3 -27 -117z
m112 -34 l0 -70 -50 0 c-49 0 -50 1 -50 30 0 17 5 30 12 30 9 0 9 3 0 12 -13
13 -16 50 -5 61 3 4 26 7 50 7 l43 0 0 -70z"/>
<path d="M12880 6201 c0 -4 -11 -24 -24 -44 -14 -20 -19 -34 -12 -31 7 2 20
18 30 34 9 17 22 30 27 30 6 0 7 5 4 10 -8 12 -25 13 -25 1z"/>
<path d="M13010 6208 c0 -10 60 -71 65 -66 3 2 -11 20 -30 38 -19 19 -35 31
-35 28z"/>
<path d="M14040 6200 l-35 -7 43 -2 c23 0 42 4 42 9 0 6 -3 9 -7 9 -5 -1 -24
-5 -43 -9z"/>
<path d="M14210 6181 c-6 -16 -22 -39 -36 -52 -13 -12 -24 -25 -24 -28 0 -4
20 -5 45 -3 37 3 45 1 45 -13 0 -25 -18 -55 -59 -100 l-36 -39 35 25 c32 24
61 67 74 112 4 12 16 17 46 17 l40 0 0 -49 c0 -56 -18 -81 -52 -75 -16 3 -14
1 5 -7 40 -16 53 1 62 79 l7 62 -92 0 -92 0 37 50 c25 34 32 50 22 50 -8 0
-20 -13 -27 -29z"/>
<path d="M1168 6160 c2 -23 8 -37 14 -34 5 4 8 19 6 35 -4 27 -3 28 46 32 l51
3 -60 2 -61 2 4 -40z"/>
<path d="M3625 6190 c-38 -7 -38 -7 18 -9 37 0 56 3 52 9 -7 11 -10 11 -70 0z"/>
<path d="M5813 6154 c-18 -24 -29 -44 -24 -44 10 0 71 73 71 84 0 16 -18 1
-47 -40z"/>
<path d="M5970 6195 c1 -17 59 -79 67 -72 4 4 -10 24 -30 45 -20 20 -37 32
-37 27z"/>
<path d="M6123 6184 c19 -10 27 -21 23 -31 -3 -8 -6 -21 -6 -28 0 -7 -8 -16
-17 -18 -17 -4 -17 -5 0 -6 27 -2 24 -77 -4 -91 -39 -21 -11 -21 35 0 48 22
60 32 26 23 -17 -5 -20 0 -20 27 0 23 5 33 20 37 11 3 20 10 20 15 0 5 -9 6
-20 3 -17 -6 -20 -2 -20 28 0 29 5 37 28 45 23 9 19 10 -33 11 -59 0 -60 0
-32 -15z"/>
<path d="M6920 6085 c0 -111 -1 -116 -22 -125 -21 -8 -21 -9 7 -9 30 -1 30 0
27 39 -3 28 0 40 9 40 10 0 10 3 1 12 -7 7 -12 25 -12 40 0 26 3 28 40 28 38
0 40 -2 40 -30 0 -17 -7 -33 -17 -39 -17 -10 -17 -10 0 -11 12 0 17 -8 17 -30
0 -17 -7 -33 -17 -39 -14 -8 -9 -10 26 -11 24 0 41 3 37 8 -4 4 -13 7 -19 7
-9 0 -12 35 -12 118 l0 117 -52 0 -53 0 0 -115z m90 69 c0 -35 -1 -35 -37 -32
-27 2 -39 8 -41 21 -7 33 6 47 43 47 33 0 35 -2 35 -36z"/>
<path d="M8632 6169 c-9 -17 -27 -43 -38 -58 l-22 -26 44 4 c37 2 44 0 44 -15
1 -18 1 -18 11 -1 6 11 22 17 44 17 28 0 36 -5 41 -23 10 -40 -9 -91 -37 -97
l-24 -6 22 -8 c13 -4 27 -5 32 -1 8 4 25 96 26 139 0 5 -37 8 -82 7 -46 -1
-83 1 -83 4 0 4 14 26 30 51 17 24 26 44 20 44 -6 0 -19 -14 -28 -31z"/>
<path d="M9256 6139 c-3 -34 -6 -83 -6 -108 0 -26 -5 -52 -12 -59 -6 -6 -9
-14 -6 -18 14 -14 30 44 35 129 3 51 10 98 16 105 7 8 5 12 -5 12 -11 0 -17
-17 -22 -61z"/>
<path d="M9428 6193 c7 -3 16 -2 19 1 4 3 -2 6 -13 5 -11 0 -14 -3 -6 -6z"/>
<path d="M9758 6193 c6 -2 18 -2 25 0 6 3 1 5 -13 5 -14 0 -19 -2 -12 -5z"/>
<path d="M269 6183 c0 -5 0 -48 0 -98 0 -58 -5 -92 -12 -97 -7 -4 3 -8 23 -8
26 0 31 3 22 12 -8 8 -12 46 -12 105 0 55 -4 93 -10 93 -5 0 -10 -3 -11 -7z"/>
<path d="M381 6177 c-19 -19 -12 -26 24 -20 63 10 66 4 34 -88 -16 -45 -27
-84 -24 -87 3 -3 7 -3 9 -1 5 6 66 188 66 197 0 13 -96 12 -109 -1z"/>
<path d="M3080 6180 c0 -6 7 -10 15 -10 8 0 15 2 15 4 0 2 -7 6 -15 10 -8 3
-15 1 -15 -4z"/>
<path d="M3310 6180 c-18 -12 -2 -12 25 0 13 6 15 9 5 9 -8 0 -22 -4 -30 -9z"/>
<path d="M3428 6183 c7 -3 16 -2 19 1 4 3 -2 6 -13 5 -11 0 -14 -3 -6 -6z"/>
<path d="M5675 6180 c-3 -5 3 -10 15 -10 12 0 18 5 15 10 -3 6 -10 10 -15 10
-5 0 -12 -4 -15 -10z"/>
<path d="M11050 6180 c-12 -8 -10 -10 8 -10 13 0 20 4 17 10 -7 12 -6 12 -25
0z"/>
<path d="M11217 6178 c-2 -7 -2 -20 0 -28 5 -21 113 -15 113 6 0 8 0 17 0 22
0 4 -4 9 -10 10 -5 2 -10 -6 -10 -17 0 -18 -6 -21 -41 -21 -36 0 -40 2 -34 20
3 11 2 20 -3 20 -6 0 -12 -6 -15 -12z"/>
<path d="M13261 6155 c-12 -21 -18 -41 -13 -44 4 -3 12 -15 15 -25 4 -10 10
-16 14 -12 3 3 0 17 -7 31 -12 22 -11 27 4 44 10 11 16 25 14 32 -2 7 -14 -5
-27 -26z"/>
<path d="M13313 6156 l-21 -33 24 -29 c13 -16 23 -25 24 -20 0 5 -8 18 -17 28
-15 17 -15 20 5 48 12 16 18 31 14 34 -4 2 -17 -10 -29 -28z"/>
<path d="M13369 6156 c-14 -32 -14 -36 4 -60 30 -41 17 -56 -50 -57 -32 -1
-49 -4 -38 -6 11 -3 24 -10 28 -17 6 -8 10 -8 14 2 2 6 17 12 31 12 48 0 54
12 32 55 -18 35 -18 41 -5 62 8 12 15 27 15 33 0 20 -15 8 -31 -24z"/>
<path d="M3977 6165 c-16 -11 -15 -12 8 -12 14 0 25 3 25 8 0 15 -15 17 -33 4z"/>
<path d="M10880 6170 c0 -5 5 -10 10 -10 6 0 10 5 10 10 0 6 -4 10 -10 10 -5
0 -10 -4 -10 -10z"/>
<path d="M12227 6174 c-3 -3 -2 -16 3 -28 4 -13 5 -28 0 -35 -4 -7 -5 -32 -2
-56 4 -39 2 -44 -19 -48 -24 -4 -24 -4 -1 -6 12 0 22 -6 22 -13 0 -8 3 -8 9
-2 9 8 14 73 12 157 -1 34 -9 45 -24 31z"/>
<path d="M1248 6163 c23 -9 12 -23 -18 -23 -21 0 -28 -4 -24 -14 4 -11 -6 -16
-43 -19 -35 -2 -25 -4 37 -7 47 -2 72 -5 55 -8 -30 -5 -30 -5 -5 -11 20 -6 26
-14 28 -44 l3 -37 -61 0 -61 0 3 37 c3 33 7 39 33 44 29 7 29 7 -7 8 l-36 1
-4 -65 c-2 -47 0 -65 10 -65 6 0 11 6 10 13 -2 8 15 12 60 12 34 0 62 2 63 5
0 3 1 29 2 58 1 35 6 52 15 52 7 0 11 4 8 9 -3 5 -24 7 -46 4 -27 -4 -40 -2
-40 6 0 7 10 11 23 9 16 -2 23 3 25 20 3 17 -1 22 -20 21 -13 0 -17 -3 -10 -6z"/>
<path d="M7136 6092 c-7 -83 -10 -106 -22 -137 -5 -15 -4 -17 5 -9 7 6 17 41
23 77 10 64 12 67 39 67 35 0 39 -7 30 -50 -5 -25 -12 -35 -25 -34 -13 2 -14
-1 -5 -13 18 -21 39 4 46 56 3 22 10 41 14 41 5 0 9 4 9 9 0 4 -23 6 -51 3
l-52 -5 5 32 c3 18 2 34 -2 36 -4 3 -10 -30 -14 -73z"/>
<path d="M7330 6160 c-22 -7 -21 -8 12 -9 20 -1 40 4 43 9 7 12 -19 12 -55 0z"/>
<path d="M9147 6088 c-7 -111 -12 -121 -53 -116 -19 2 -30 0 -26 -4 5 -5 22
-10 37 -11 22 -2 32 4 41 23 14 29 26 190 14 190 -4 0 -10 -37 -13 -82z"/>
<path d="M9400 6154 c-25 -7 -38 -13 -29 -13 16 -1 32 -35 21 -45 -3 -3 -20
-6 -39 -6 -26 0 -33 4 -33 19 0 11 5 21 12 23 7 3 6 7 -5 11 -15 6 -17 -2 -17
-63 0 -55 -3 -71 -17 -79 -32 -18 -8 -20 45 -5 60 18 69 28 16 18 -35 -6 -35
-6 -32 27 3 31 6 34 38 37 33 3 37 0 48 -32 12 -32 63 -86 82 -86 8 0 21 62
13 70 -2 2 -6 -6 -10 -18 -3 -12 -8 -22 -12 -22 -22 0 -77 71 -64 83 3 4 21 7
40 7 18 0 33 4 33 9 0 5 -18 7 -40 4 -38 -5 -40 -4 -40 21 0 21 6 28 30 33 17
3 30 9 30 14 0 11 -13 10 -70 -7z"/>
<path d="M10085 6160 c-3 -5 1 -10 9 -10 9 0 16 5 16 10 0 6 -4 10 -9 10 -6 0
-13 -4 -16 -10z"/>
<path d="M12388 6158 c5 -7 8 -24 7 -38 -2 -14 -4 -46 -4 -72 -1 -56 -21 -80
-59 -73 -21 4 -20 2 5 -7 47 -16 60 0 68 80 3 37 8 79 10 95 4 22 1 27 -16 27
-16 0 -19 -3 -11 -12z"/>
<path d="M12688 6163 c6 -2 18 -2 25 0 6 3 1 5 -13 5 -14 0 -19 -2 -12 -5z"/>
<path d="M13200 6140 c-7 -17 -24 -40 -38 -50 -13 -11 -20 -20 -15 -20 5 0 14
5 21 12 9 9 12 -4 12 -60 0 -41 4 -72 10 -72 6 0 10 34 10 83 0 58 5 89 15
103 17 22 19 34 6 34 -5 0 -14 -14 -21 -30z"/>
<path d="M13880 6138 l0 -33 75 3 75 4 0 29 c0 17 -5 29 -13 29 -8 0 -13 -10
-13 -22 1 -21 -3 -23 -54 -23 -51 0 -55 2 -53 23 2 12 -2 22 -7 22 -6 0 -10
-15 -10 -32z"/>
<path d="M1620 6150 l-25 -8 28 -1 c25 -1 27 -4 27 -41 0 -25 -6 -42 -16 -48
-15 -8 -14 -10 1 -16 10 -3 19 -5 20 -4 2 2 5 31 7 66 4 65 3 67 -42 52z"/>
<path d="M1944 6153 c2 -3 12 -6 23 -7 16 -3 18 -12 15 -82 -2 -43 -7 -83 -13
-90 -5 -6 -21 -9 -37 -7 l-27 5 29 -16 c49 -27 59 -6 69 146 l4 57 -34 -1
c-18 -1 -31 -3 -29 -5z"/>
<path d="M9103 6153 c9 -2 23 -2 30 0 6 3 -1 5 -18 5 -16 0 -22 -2 -12 -5z"/>
<path d="M12598 6153 l-48 -4 0 -70 c0 -39 -4 -69 -10 -69 -5 0 -10 -6 -10
-14 0 -10 13 -9 61 7 61 20 79 34 21 18 -17 -5 -34 -6 -36 -3 -2 4 -4 33 -4
65 l1 57 33 0 c19 0 34 -3 35 -7 7 -81 20 -108 73 -147 23 -18 28 -19 36 -6 5
8 9 24 9 35 0 19 -1 18 -11 -2 -14 -30 -21 -29 -51 6 -24 29 -44 111 -32 131
3 5 0 9 -7 8 -7 -1 -34 -3 -60 -5z"/>
<path d="M2260 6140 c-20 -12 -9 -21 18 -13 12 3 19 9 16 14 -7 11 -15 11 -34
-1z"/>
<path d="M2133 6133 c9 -2 25 -2 35 0 9 3 1 5 -18 5 -19 0 -27 -2 -17 -5z"/>
<path d="M10840 6130 c-34 -7 -34 -7 13 -9 26 0 47 4 47 9 0 11 -8 11 -60 0z"/>
<path d="M11006 6111 c-9 -16 -35 -46 -58 -66 -39 -34 -40 -36 -11 -21 28 14
103 94 103 110 0 17 -21 3 -34 -23z"/>
<path d="M3430 6094 c0 -19 4 -33 9 -29 6 3 8 14 6 25 -2 11 1 20 6 20 6 0 7
5 4 10 -13 21 -25 9 -25 -26z"/>
<path d="M3947 6113 c-3 -10 -11 -42 -17 -71 -7 -28 -19 -56 -28 -61 -20 -11
-10 -26 12 -18 8 3 17 25 21 49 4 23 14 60 21 80 7 21 9 38 4 38 -5 0 -11 -8
-13 -17z"/>
<path d="M11200 6070 l0 -55 67 2 c40 2 60 -1 50 -5 -17 -7 -17 -9 5 -19 l24
-11 2 72 3 71 -76 0 -75 0 0 -55z m110 30 c-21 -7 -12 -15 13 -11 4 1 6 -11 4
-26 -3 -26 -7 -28 -55 -31 l-52 -3 0 40 0 41 58 -1 c43 -1 51 -3 32 -9z"/>
<path d="M11265 6090 c-3 -5 -1 -10 4 -10 6 0 11 5 11 10 0 6 -2 10 -4 10 -3
0 -8 -4 -11 -10z"/>
<path d="M3824 6060 c5 -33 14 -60 18 -60 9 0 1 59 -13 98 -14 37 -16 25 -5
-38z"/>
<path d="M6223 6095 c7 -14 15 -25 20 -25 10 0 9 8 -3 31 -16 28 -30 23 -17
-6z"/>
<path d="M7583 6085 c1 -19 5 -35 9 -35 11 0 21 47 13 59 -13 22 -24 10 -22
-24z"/>
<path d="M8450 6115 c0 -3 9 -18 21 -34 28 -38 23 -83 -11 -91 -24 -6 -24 -6
-4 -12 32 -8 48 7 48 45 0 23 -9 45 -27 66 -15 18 -27 30 -27 26z"/>
<path d="M10356 6104 c-9 -8 -16 -18 -16 -22 0 -3 5 -1 12 6 19 19 38 14 38
-9 0 -16 -5 -20 -20 -16 -11 3 -18 1 -14 -4 9 -15 33 -10 44 10 14 26 13 29
-9 41 -15 7 -23 6 -35 -6z"/>
<path d="M4780 6023 c0 -49 4 -83 10 -83 6 0 9 15 8 33 -3 28 0 32 25 35 29 4
37 -14 15 -36 -13 -13 -5 -27 11 -17 6 3 11 35 11 71 0 53 3 64 17 64 40 0 0
11 -46 13 l-51 2 0 -82z m60 52 c0 -8 -5 -15 -12 -15 -6 0 -3 -6 8 -14 18 -14
18 -15 2 -21 -31 -12 -45 1 -40 34 3 22 10 31 23 31 11 0 19 -7 19 -15z"/>
<path d="M9980 6054 c0 -49 2 -55 15 -44 8 7 32 10 55 8 35 -3 40 -1 41 17 0
11 3 32 5 48 3 19 0 27 -9 27 -10 0 -14 -12 -13 -37 1 -37 0 -38 -37 -41 -42
-4 -59 17 -39 48 6 10 8 21 5 24 -16 16 -23 1 -23 -50z"/>
<path d="M11995 6100 l-80 -6 88 -2 c52 -1 87 2 87 8 0 6 -3 9 -7 8 -5 -1 -44
-5 -88 -8z"/>
<path d="M12150 6066 c0 -26 5 -46 11 -46 5 0 7 5 4 10 -11 18 6 50 26 50 10
0 19 4 19 10 0 5 -7 7 -15 4 -8 -4 -22 -1 -30 6 -13 11 -15 6 -15 -34z"/>
<path d="M12309 6093 c12 -23 29 -38 37 -31 2 3 -8 15 -22 29 -25 23 -26 23
-15 2z"/>
<path d="M12709 6099 c-10 -6 -7 -9 14 -9 29 0 35 5 14 13 -8 3 -20 1 -28 -4z"/>
<path d="M1916 6070 c10 -21 19 -30 22 -21 2 7 -6 23 -18 35 l-22 21 18 -35z"/>
<path d="M2560 6090 c0 -5 5 -10 11 -10 5 0 7 5 4 10 -3 6 -8 10 -11 10 -2 0
-4 -4 -4 -10z"/>
<path d="M2625 6090 c-16 -7 -13 -9 17 -9 20 -1 40 4 43 9 7 12 -32 12 -60 0z"/>
<path d="M5000 6090 c0 -5 7 -7 15 -4 8 4 15 8 15 10 0 2 -7 4 -15 4 -8 0 -15
-4 -15 -10z"/>
<path d="M9067 6075 c18 -25 33 -32 33 -17 0 10 -33 42 -44 42 -4 0 1 -11 11
-25z"/>
<path d="M10845 6090 c-28 -7 -27 -8 13 -9 27 -1 41 3 37 9 -7 11 -7 11 -50 0z"/>
<path d="M11558 6093 c7 -3 16 -2 19 1 4 3 -2 6 -13 5 -11 0 -14 -3 -6 -6z"/>
<path d="M13830 6021 c0 -86 12 -90 14 -4 l1 58 108 3 107 3 0 -51 c0 -45 -2
-50 -22 -51 l-23 0 23 -11 c31 -15 37 -5 38 62 l0 59 -123 3 -123 3 0 -74z"/>
<path d="M4918 6083 c7 -3 16 -2 19 1 4 3 -2 6 -13 5 -11 0 -14 -3 -6 -6z"/>
<path d="M11016 6045 c-39 -48 -66 -69 -103 -80 -21 -6 -23 -3 -23 37 l0 43
-43 0 -43 0 -2 -47 c-2 -45 8 -62 23 -38 3 6 15 10 26 10 10 0 19 -4 19 -10 0
-18 44 -10 89 15 45 26 75 26 85 0 3 -8 11 -15 18 -15 6 0 -1 13 -16 29 -28
29 -28 30 -10 55 11 14 22 26 27 26 10 0 9 20 -1 20 -4 0 -25 -20 -46 -45z
m-136 -24 c0 -25 -14 -41 -36 -41 -19 0 -24 5 -24 25 0 21 5 25 30 25 17 0 30
-4 30 -9z"/>
<path d="M12499 6045 c-4 -27 -9 -59 -13 -70 -3 -11 1 -5 9 14 9 18 15 50 13
70 -3 33 -4 32 -9 -14z"/>
<path d="M11946 6063 c-3 -3 -6 -17 -6 -30 0 -21 5 -23 45 -23 47 0 56 -9 29
-31 -14 -11 -18 -10 -31 6 -12 15 -14 16 -10 3 4 -12 -1 -18 -21 -21 -15 -2
10 -5 56 -6 48 0 81 3 78 8 -3 5 -15 7 -26 4 -24 -6 -26 9 -5 31 20 19 20 66
0 66 -9 0 -14 -8 -12 -22 2 -20 -3 -23 -42 -26 -40 -3 -43 -1 -38 17 5 21 -5
36 -17 24z"/>
<path d="M13050 6060 c-12 -8 -11 -10 8 -10 12 0 22 5 22 10 0 13 -11 13 -30
0z"/>
<path d="M1180 6036 c0 -23 4 -26 34 -26 26 0 36 5 41 21 8 23 1 34 -14 25 -6
-4 -8 -13 -4 -21 3 -10 -2 -15 -16 -15 -12 0 -21 6 -21 14 0 8 -4 18 -10 21
-6 4 -10 -5 -10 -19z"/>
<path d="M2540 6032 c0 -26 2 -27 40 -24 42 4 50 -6 30 -38 -10 -16 -12 -15
-28 15 -11 20 -11 20 -12 -2 0 -16 -7 -23 -27 -26 -16 -2 -3 -5 28 -6 l55 -1
17 48 c20 55 21 62 7 62 -5 0 -10 -9 -10 -20 0 -17 -7 -20 -45 -20 -46 0 -54
7 -33 28 9 9 8 12 -5 12 -12 0 -17 -8 -17 -28z"/>
<path d="M3328 6053 c7 -3 16 -2 19 1 4 3 -2 6 -13 5 -11 0 -14 -3 -6 -6z"/>
<path d="M4890 6031 c0 -28 1 -28 45 -23 49 5 58 -7 28 -40 -15 -17 -15 -18
11 -18 15 0 24 4 21 10 -3 5 1 23 10 39 17 34 20 61 5 61 -5 0 -10 -9 -10 -20
0 -17 -7 -20 -46 -20 -41 0 -46 2 -41 20 3 13 0 20 -9 20 -9 0 -14 -11 -14
-29z"/>
<path d="M6010 6050 c-12 -8 -12 -10 3 -16 21 -8 35 2 21 16 -5 5 -15 6 -24 0z"/>
<path d="M6580 6031 c0 -28 1 -29 41 -24 38 6 41 4 37 -17 -4 -32 -26 -37 -37
-8 -10 22 -10 22 -10 1 -1 -12 -7 -24 -13 -26 -7 -3 9 -6 35 -6 27 -1 46 3 43
8 -3 5 1 25 9 45 21 50 19 56 -17 55 -30 -1 -31 -2 -8 -8 40 -11 29 -26 -22
-29 -51 -3 -65 12 -25 28 21 8 21 9 -5 9 -24 1 -28 -3 -28 -28z"/>
<path d="M8250 6005 c0 -46 3 -56 12 -47 16 16 85 15 91 0 3 -7 6 -1 6 13 1
15 4 41 8 59 5 25 3 32 -8 28 -9 -3 -13 -17 -11 -42 l4 -37 -44 3 c-41 3 -43
4 -43 35 0 17 -3 35 -7 39 -5 4 -8 -19 -8 -51z"/>
<path d="M11560 6034 c-6 -14 -8 -29 -5 -34 3 -4 -10 -11 -29 -14 -19 -4 -40
-14 -47 -23 -12 -14 -11 -15 11 -8 52 16 105 44 86 44 -17 1 -17 2 -2 26 19
28 20 35 6 35 -6 0 -15 -12 -20 -26z"/>
<path d="M3430 5995 c0 -46 3 -56 12 -47 7 7 45 13 88 14 l75 2 -79 5 -80 6
-4 35 c-6 56 -12 48 -12 -15z"/>
<path d="M4430 6043 c0 -4 5 -15 10 -23 8 -13 10 -13 10 2 0 9 -4 20 -10 23
-5 3 -10 3 -10 -2z"/>
<path d="M4510 6035 c-6 -8 -10 -20 -8 -26 2 -6 12 0 21 15 18 27 8 37 -13 11z"/>
<path d="M8633 6011 c-13 -22 -32 -42 -43 -46 -11 -3 -20 -11 -20 -16 0 -16
35 7 64 42 14 17 26 37 26 45 0 20 -3 18 -27 -25z"/>
<path d="M11480 6043 c0 -4 5 -15 10 -23 8 -13 10 -13 10 2 0 9 -4 20 -10 23
-5 3 -10 3 -10 -2z"/>
<path d="M13900 6023 c0 -27 2 -28 55 -28 53 0 55 1 55 28 0 18 -5 27 -16 27
-13 0 -14 -3 -5 -13 15 -19 4 -27 -42 -27 -34 0 -39 2 -34 20 3 11 1 20 -4 20
-5 0 -9 -12 -9 -27z"/>
<path d="M6785 6009 c-10 -43 -2 -45 18 -4 14 29 14 35 3 35 -8 0 -17 -14 -21
-31z"/>
<path d="M6871 6035 c1 -19 18 -51 18 -35 0 8 -4 22 -9 30 -5 8 -9 11 -9 5z"/>
<path d="M3274 5994 c22 -19 48 -34 58 -34 32 0 18 14 -40 42 l-57 27 39 -35z"/>
<path d="M532 5999 c3 -8 8 -13 11 -11 9 3 7 11 -5 18 -6 4 -8 0 -6 -7z"/>
<path d="M12150 5995 c0 -8 4 -15 9 -15 5 0 11 7 15 15 3 9 0 15 -9 15 -8 0
-15 -7 -15 -15z"/>
<path d="M4920 5976 c0 -14 5 -26 10 -26 6 0 10 9 10 19 0 11 -4 23 -10 26 -6
4 -10 -5 -10 -19z"/>
<path d="M13310 5986 c0 -8 -8 -17 -17 -19 -10 -3 15 -5 55 -6 41 -1 72 3 72
9 0 6 -18 7 -45 3 -38 -5 -45 -3 -45 11 0 9 -4 16 -10 16 -5 0 -10 -6 -10 -14z"/>
<path d="M3997 5984 c-13 -13 -7 -24 14 -24 11 0 19 5 17 12 -5 14 -22 21 -31
12z"/>
<path d="M3635 5970 c-28 -7 -27 -8 13 -9 27 -1 41 3 37 9 -7 11 -7 11 -50 0z"/>
<path d="M9425 5964 c-18 -13 -18 -14 8 -14 15 0 27 4 27 9 0 17 -15 19 -35 5z"/>
<path d="M11260 5970 c-9 -6 -10 -10 -3 -10 6 0 15 5 18 10 8 12 4 12 -15 0z"/>
<path d="M12605 5970 l-80 -6 88 -2 c52 -1 87 2 87 8 0 6 -3 9 -7 8 -5 -1 -44
-5 -88 -8z"/>
<path d="M1230 5960 c-24 -8 -23 -8 8 -9 17 -1 32 4 32 9 0 11 -5 11 -40 0z"/>
<path d="M2228 5963 c7 -3 16 -2 19 1 4 3 -2 6 -13 5 -11 0 -14 -3 -6 -6z"/>
<path d="M2650 5960 c-12 -8 -11 -10 8 -10 12 0 22 5 22 10 0 13 -11 13 -30 0z"/>
<path d="M5010 5960 c0 -5 7 -10 15 -10 8 0 15 5 15 10 0 6 -7 10 -15 10 -8 0
-15 -4 -15 -10z"/>
<path d="M6695 5960 c-3 -5 1 -10 9 -10 9 0 16 5 16 10 0 6 -4 10 -9 10 -6 0
-13 -4 -16 -10z"/>
<path d="M13238 5963 c7 -3 16 -2 19 1 4 3 -2 6 -13 5 -11 0 -14 -3 -6 -6z"/>
<path d="M1330 5695 l0 -125 -32 -1 c-22 -1 -26 -3 -13 -6 11 -3 25 -9 31 -14
8 -6 14 -3 19 8 11 24 13 263 3 263 -4 0 -8 -56 -8 -125z"/>
<path d="M1580 5810 c-14 -4 -45 -9 -70 -9 -40 -1 -47 -5 -69 -39 -13 -20 -17
-31 -9 -24 20 16 30 2 24 -30 -4 -23 -3 -23 80 -19 72 3 84 1 84 -13 0 -13
-14 -16 -85 -16 -75 0 -85 -2 -85 -18 0 -9 -9 -35 -21 -56 -11 -21 -15 -35 -8
-31 6 4 20 27 31 51 l19 44 96 0 96 0 -7 -32 c-8 -40 -23 -58 -44 -51 -15 4
-15 3 -2 -6 32 -23 48 -5 64 72 6 24 3 27 -19 27 -25 0 -33 14 -15 25 16 10 2
25 -16 18 -13 -5 -15 0 -12 23 3 27 1 29 -28 26 -25 -3 -33 1 -37 17 -4 17 1
22 32 27 44 8 77 24 46 23 -11 -1 -31 -5 -45 -9z m-44 -45 c5 -19 13 -25 35
-25 31 0 32 -1 23 -24 -5 -12 -21 -16 -66 -16 -57 0 -60 1 -55 22 4 12 1 28
-4 35 -16 18 -2 33 31 33 23 0 31 -5 36 -25z"/>
<path d="M2850 5810 c-57 -3 -81 -7 -60 -10 35 -5 35 -6 34 -52 -2 -80 -13
-113 -50 -156 -20 -23 -31 -42 -25 -42 15 0 70 79 77 109 12 54 15 56 34 15
10 -23 23 -45 29 -48 22 -14 10 -27 -41 -51 -29 -13 -46 -24 -38 -24 8 0 35
10 59 23 l45 23 49 -24 c30 -16 53 -21 58 -16 6 6 -6 14 -31 22 -23 7 -44 19
-47 26 -3 8 9 37 26 65 28 46 29 50 11 50 -12 0 -17 -5 -14 -13 5 -15 -36 -80
-51 -81 -10 -1 -55 61 -55 75 0 5 20 9 44 9 39 0 44 2 39 20 -3 11 0 33 5 49
6 17 8 32 4 33 -4 2 -50 1 -102 -2z m80 -27 c-1 -50 -11 -63 -51 -63 -39 0
-39 0 -39 40 l0 40 45 0 c36 0 45 -3 45 -17z"/>
<path d="M4620 5795 c0 -23 -3 -24 -67 -28 l-68 -3 66 -2 67 -2 4 -36 c4 -30
-1 -39 -26 -61 -17 -14 -45 -32 -63 -41 -18 -9 -33 -19 -33 -24 0 -11 18 -10
33 2 53 43 76 60 81 60 3 0 6 -20 6 -45 0 -44 -1 -45 -32 -46 l-33 -1 28 -10
c33 -12 59 4 56 36 0 12 -1 39 0 61 2 38 2 39 17 20 44 -60 77 -95 90 -95 14
0 20 20 7 20 -5 0 -24 14 -43 30 l-35 29 35 30 c19 17 29 30 23 31 -7 0 -22
-9 -33 -20 -11 -11 -24 -20 -29 -20 -8 0 -31 52 -31 71 0 5 29 9 65 9 41 0 65
4 65 11 0 7 -11 9 -30 6 -22 -5 -30 -3 -30 7 0 8 -7 17 -16 20 -26 10 -28 7
-9 -14 18 -20 17 -20 -12 -20 -37 0 -45 8 -32 31 7 15 6 19 -6 19 -9 0 -15 -9
-15 -25z"/>
<path d="M4870 5810 l-35 -7 43 -2 c23 0 42 4 42 9 0 6 -3 9 -7 9 -5 -1 -24
-5 -43 -9z"/>
<path d="M5015 5799 c-6 -17 -14 -20 -53 -18 -26 1 -55 -2 -65 -6 -10 -4 -31
-5 -47 -1 -19 3 -30 1 -30 -6 0 -8 26 -9 90 -4 74 6 90 4 90 -7 0 -18 -24 -39
-33 -30 -4 3 -7 2 -7 -3 0 -15 22 -34 39 -34 11 0 12 3 3 12 -8 8 -7 18 6 40
14 24 23 28 59 28 24 0 43 5 43 10 0 6 -16 8 -42 4 -39 -7 -41 -6 -36 14 8 28
-8 29 -17 1z"/>
<path d="M5298 5813 l-118 -4 0 -131 c0 -103 3 -129 12 -120 15 15 218 17 218
2 0 -5 5 -10 10 -10 6 0 10 52 10 135 0 74 -3 134 -7 133 -5 -1 -61 -4 -125
-5z m-8 -38 c0 -17 -6 -25 -17 -25 -15 0 -15 -1 2 -13 13 -10 16 -21 11 -40
-6 -25 -4 -27 24 -27 28 0 30 -2 30 -40 0 -22 5 -40 10 -40 6 0 10 23 10 50 0
49 -1 50 -25 44 -27 -7 -26 -9 -29 74 l-1 43 55 -3 55 -3 -1 -60 c-1 -33 -2
-81 -3 -107 l-1 -48 -110 0 -110 0 1 110 1 110 49 0 c46 0 49 -2 49 -25z"/>
<path d="M5354 5749 c-9 -15 -2 -18 20 -9 17 6 18 7 3 13 -9 3 -19 2 -23 -4z"/>
<path d="M5240 5639 c0 -45 2 -50 15 -39 10 8 12 17 6 24 -5 6 -5 20 0 31 11
30 11 35 -6 35 -11 0 -15 -12 -15 -51z"/>
<path d="M5525 5805 c-2 -5 -5 -23 -8 -40 -2 -16 -8 -39 -12 -50 -8 -19 -8
-19 12 -2 11 9 27 17 36 17 12 0 17 9 17 30 0 38 -17 39 -23 3 -4 -26 -4 -26
-6 5 -1 27 2 32 22 32 19 0 23 -5 22 -32 0 -18 4 -39 8 -45 11 -16 -15 -27
-43 -20 -19 5 -20 0 -18 -81 1 -48 3 -70 5 -49 4 33 7 38 26 35 27 -4 36 -38
10 -38 -15 0 -16 -2 -3 -10 27 -17 30 -11 30 60 l0 70 33 -5 c25 -4 27 -3 8 3
-40 12 -36 29 6 28 30 -1 38 2 37 17 -1 9 5 17 13 17 9 0 13 -6 9 -15 -3 -9 0
-15 10 -15 11 0 15 8 12 32 -2 19 2 33 9 35 9 3 12 -6 10 -29 -2 -18 1 -39 6
-45 11 -15 -1 -20 -53 -26 -22 -2 -14 -4 24 -5 49 -2 57 0 52 14 -3 9 -6 36
-6 60 0 36 -3 44 -18 44 -10 0 -23 5 -30 12 -9 9 -12 9 -12 0 0 -7 -7 -12 -16
-12 -8 0 -12 5 -9 10 3 6 1 10 -4 10 -6 0 -11 -4 -11 -10 0 -5 -9 -10 -20 -10
-16 0 -20 -7 -20 -30 0 -20 -5 -30 -15 -30 -11 0 -15 11 -15 38 0 38 -1 38
-36 38 -20 -1 -38 -5 -39 -11z m143 -45 c-1 -16 -4 -30 -8 -30 -9 0 -19 47
-12 55 13 12 21 3 20 -25z m36 9 c-3 -5 -10 -7 -15 -3 -5 3 -7 10 -3 15 3 5
10 7 15 3 5 -3 7 -10 3 -15z m-118 -111 c-1 -25 -6 -33 -21 -33 -15 0 -20 8
-21 33 -1 27 2 32 21 32 19 0 22 -5 21 -32z"/>
<path d="M5886 5794 c-5 -20 -12 -25 -26 -21 -19 5 -20 0 -19 -99 0 -57 5
-104 10 -104 5 0 9 5 9 11 0 7 15 10 40 7 l40 -4 0 88 c0 49 0 91 0 96 -1 4
-13 5 -27 4 -26 -4 -26 -4 -10 22 14 21 15 26 3 26 -7 0 -17 -12 -20 -26z m42
-72 c3 -31 2 -32 -32 -32 -33 0 -36 2 -36 29 0 20 6 31 18 34 35 10 47 2 50
-31z m-10 -52 c6 0 12 -9 12 -19 0 -37 -12 -51 -41 -51 -27 0 -29 2 -29 41 0
38 2 41 23 35 12 -3 28 -6 35 -6z"/>
<path d="M5994 5793 c-4 -16 -13 -41 -21 -56 -8 -16 -12 -31 -9 -34 2 -3 12 9
21 26 14 28 20 31 60 31 l45 0 -1 -62 c-2 -108 -8 -122 -54 -129 -22 -3 -33
-7 -25 -8 8 -1 25 -4 37 -7 33 -9 50 29 58 129 l7 87 -52 0 c-51 0 -52 1 -46
25 4 14 2 25 -4 25 -5 0 -13 -12 -16 -27z"/>
<path d="M6220 5810 c0 -5 -8 -18 -17 -27 -17 -17 -17 -20 -2 -50 l16 -32 32
39 c23 28 28 40 17 40 -9 0 -22 -12 -30 -27 -12 -24 -15 -26 -21 -10 -4 10 0
28 9 42 19 28 20 35 6 35 -5 0 -10 -4 -10 -10z"/>
<path d="M6359 5808 c-1 -7 -2 -22 -3 -33 -1 -11 -6 -19 -11 -18 -6 1 -11 -7
-12 -17 -1 -13 4 -16 18 -13 26 7 25 -24 -1 -32 -11 -3 -20 -11 -20 -16 0 -6
-5 -7 -11 -4 -14 9 -5 111 10 108 6 -2 11 2 11 7 0 6 -9 10 -20 10 -18 0 -20
-7 -20 -74 0 -73 0 -73 25 -68 14 2 22 8 20 13 -8 12 34 32 52 24 19 -7 7 -21
-22 -27 -11 -3 -1 -6 23 -9 l42 -5 0 63 c0 35 -1 66 -2 70 -4 11 -48 13 -48 2
0 -5 9 -9 20 -9 28 0 25 -23 -5 -36 -31 -15 -35 -10 -29 37 4 25 2 39 -5 39
-6 0 -12 -6 -12 -12z m71 -100 c-1 -31 -2 -32 -15 -15 -7 11 -11 25 -8 33 10
25 23 15 23 -18z"/>
<path d="M6637 5801 c-4 -16 -16 -21 -53 -24 l-49 -3 53 -2 c28 -1 52 -6 52
-12 0 -5 -5 -10 -12 -10 -9 0 -9 -3 0 -12 28 -28 13 -38 -55 -40 l-68 -2 58
-3 c31 -2 57 -6 57 -9 0 -9 -23 -29 -62 -53 -21 -12 -38 -24 -38 -27 0 -5 33
8 49 20 11 8 15 8 18 -1 3 -7 9 -13 15 -13 6 0 8 6 5 14 -3 8 5 26 19 41 l24
26 9 -24 c21 -54 111 -131 126 -107 3 5 -9 16 -27 23 -36 15 -64 42 -51 50 4
2 20 7 36 11 15 3 27 11 27 16 0 14 -13 12 -46 -5 -27 -14 -30 -14 -48 7 l-18
23 66 3 c86 4 86 19 -1 18 -44 -1 -67 3 -70 12 -3 6 3 12 14 12 17 1 17 1 -1
15 -21 16 -15 20 34 28 24 4 23 4 -3 6 -20 1 -31 7 -34 21 -7 25 -19 26 -26 1z"/>
<path d="M6970 5810 c-100 -4 -113 -6 -65 -10 53 -4 60 -7 57 -25 -2 -11 -9
-24 -15 -30 -7 -6 -12 -41 -12 -90 0 -76 -1 -80 -24 -83 -23 -4 -23 -3 -20 87
3 60 1 87 -6 80 -5 -5 -12 -49 -13 -97 l-4 -87 111 3 c87 3 111 1 113 -10 1
-7 4 34 8 92 3 58 2 109 -2 115 -5 5 -8 4 -8 -4 0 -8 -7 -10 -21 -6 l-21 7 21
-21 c17 -17 20 -32 19 -81 -2 -69 -8 -83 -34 -78 -17 3 -19 13 -19 86 0 53 -4
82 -11 82 -7 0 -9 -10 -6 -25 4 -23 1 -25 -32 -25 -30 0 -36 4 -36 20 0 11 7
23 15 26 8 4 13 9 10 13 -2 4 3 17 11 29 13 18 25 22 75 22 38 0 58 4 54 10
-3 6 -9 9 -13 8 -4 -1 -63 -5 -132 -8z m50 -150 c0 -16 -7 -20 -35 -20 -28 0
-35 4 -35 20 0 16 7 20 35 20 28 0 35 -4 35 -20z m-5 -60 c0 -21 -5 -26 -32
-28 -31 -3 -33 -1 -33 28 0 29 2 31 33 28 27 -2 32 -7 32 -28z"/>
<path d="M7310 5810 c-74 -3 -107 -7 -72 -8 54 -2 62 -4 62 -22 0 -22 -27 -40
-50 -33 -10 4 -9 1 3 -9 15 -11 17 -26 15 -88 -3 -67 -5 -75 -23 -75 -18 0
-20 7 -20 88 0 48 -3 87 -6 87 -14 0 -19 -34 -19 -122 0 -78 2 -89 15 -78 10
8 47 11 120 8 l105 -3 0 98 c0 70 -3 98 -11 95 -8 -3 -11 -33 -10 -92 2 -86 2
-88 -21 -84 -22 3 -23 7 -23 91 l0 87 -32 0 c-21 0 -33 5 -33 13 0 26 25 37
82 37 32 0 58 4 58 10 0 6 -1 9 -2 8 -2 -1 -64 -5 -138 -8z m44 -86 c9 -23 -2
-34 -34 -34 -29 0 -45 21 -29 37 15 15 57 14 63 -3z m4 -62 c2 -8 -6 -16 -19
-19 l-23 -6 23 -9 c16 -5 21 -14 19 -30 -2 -19 -9 -23 -38 -23 -35 0 -35 0
-36 45 -1 25 1 49 3 53 8 13 66 3 71 -11z"/>
<path d="M7550 5806 l-35 -13 33 -5 c17 -2 32 -1 32 4 0 4 7 8 15 8 8 0 15 5
15 10 0 13 -16 12 -60 -4z"/>
<path d="M7695 5811 c-6 -5 -23 -11 -40 -14 l-30 -4 33 -2 c39 -1 43 -18 5
-24 l-28 -4 28 -2 c24 -1 27 -4 22 -21 -5 -15 -2 -20 13 -20 15 0 19 5 15 20
-5 17 0 20 32 20 31 0 35 2 26 14 -10 11 -8 15 6 19 10 3 -1 5 -25 6 -26 1
-41 5 -37 11 8 13 -8 13 -20 1z m55 -31 c0 -5 -9 -10 -20 -10 -11 0 -20 5 -20
10 0 6 9 10 20 10 11 0 20 -4 20 -10z"/>
<path d="M1100 5754 c0 -30 4 -53 9 -50 5 3 7 24 4 46 -6 40 -5 40 27 40 40 0
37 5 -7 13 l-33 7 0 -56z"/>
<path d="M1190 5800 c-13 -8 -12 -10 4 -10 16 0 18 -5 12 -39 -3 -23 -2 -42 4
-46 6 -4 10 10 10 34 0 21 3 46 6 55 7 18 -12 21 -36 6z"/>
<path d="M3353 5759 c-15 -23 -36 -53 -45 -68 -27 -40 -23 -51 22 -51 36 0 40
-2 40 -25 0 -35 12 -31 31 10 14 31 15 35 2 35 -13 0 -15 12 -11 65 3 36 2 68
-3 71 -5 2 -21 -14 -36 -37z m17 -49 l0 -50 -34 0 -35 0 32 50 c18 27 33 50
35 50 1 0 2 -22 2 -50z"/>
<path d="M1270 5709 c0 -44 4 -78 9 -75 4 3 9 35 9 70 0 36 3 70 7 76 3 5 -1
10 -9 10 -13 0 -16 -14 -16 -81z"/>
<path d="M1637 5764 c9 -15 19 -21 21 -15 4 13 -16 41 -29 41 -5 0 -2 -12 8
-26z"/>
<path d="M1962 5778 c-19 -19 -14 -29 7 -16 15 9 23 9 35 -1 23 -19 20 -37 -9
-60 -26 -19 -26 -20 -4 -23 12 -2 27 -11 33 -20 17 -27 -5 -52 -50 -59 -29 -4
-35 -7 -22 -13 27 -12 72 8 86 38 11 22 11 33 2 57 -7 16 -10 40 -6 53 3 13 3
32 0 40 -7 19 -55 21 -72 4z"/>
<path d="M6735 5780 c-3 -5 1 -10 9 -10 8 0 18 5 21 10 3 6 -1 10 -9 10 -8 0
-18 -4 -21 -10z"/>
<path d="M6723 5753 c-18 -6 -16 -23 1 -23 17 0 30 16 19 23 -5 2 -14 2 -20 0z"/>
<path d="M7540 5750 c-16 -5 -19 -8 -7 -9 23 -1 22 -36 -3 -86 l-21 -40 26 30
25 30 2 -65 2 -65 3 60 c5 79 9 91 28 75 8 -7 15 -8 15 -2 0 5 -10 16 -22 25
-18 12 -20 18 -11 28 10 10 18 10 38 1 36 -16 56 -15 24 2 -37 19 -71 25 -99
16z"/>
<path d="M6560 5740 c-13 -8 -12 -10 3 -10 9 0 17 5 17 10 0 12 -1 12 -20 0z"/>
<path d="M4900 5730 c0 -5 5 -10 10 -10 6 0 10 5 10 10 0 6 -4 10 -10 10 -5 0
-10 -4 -10 -10z"/>
<path d="M5034 5715 c-3 -13 -24 -40 -45 -60 -45 -40 -41 -47 6 -10 41 31 81
95 60 95 -8 0 -17 -11 -21 -25z"/>
<path d="M7745 5730 c-11 -5 -14 -9 -7 -9 7 -1 10 -6 7 -11 -4 -6 -22 -8 -43
-4 -20 4 -34 3 -30 -1 4 -5 25 -11 45 -15 37 -7 37 -8 -14 -9 -43 -1 -51 2
-47 14 4 8 1 15 -5 15 -7 0 -11 -23 -11 -60 0 -50 2 -58 16 -53 9 3 11 9 6 12
-5 3 -8 17 -7 31 1 22 6 25 45 25 39 0 43 -2 46 -27 2 -26 0 -28 -34 -29 l-37
-2 35 -7 c19 -4 28 -8 20 -9 -8 -1 2 -11 23 -22 22 -11 41 -18 44 -16 3 3 -5
11 -17 17 -19 10 -21 18 -18 81 2 47 7 69 16 69 6 0 12 5 12 10 0 12 -17 12
-45 0z"/>
<path d="M2190 5723 c-43 -15 -55 -88 -20 -123 26 -26 42 -25 70 5 13 14 18
25 12 25 -6 0 -14 -4 -17 -10 -13 -20 -45 -10 -56 17 -20 53 14 96 49 61 6 -6
15 -8 19 -4 5 4 -1 14 -11 22 -21 15 -23 15 -46 7z"/>
<path d="M2342 5721 c-7 -4 -23 -6 -35 -4 -21 4 -22 1 -22 -64 0 -64 2 -69 22
-71 19 -1 21 1 14 21 -10 27 -2 89 13 99 31 21 38 9 34 -56 -4 -59 -2 -64 17
-62 18 1 20 6 17 57 -3 46 0 57 13 63 28 10 43 -11 40 -58 -1 -23 -5 -48 -9
-54 -5 -8 0 -12 13 -12 19 0 21 6 21 65 0 59 -2 67 -22 74 -13 5 -31 5 -40 -1
-11 -5 -25 -5 -37 2 -23 12 -23 12 -39 1z"/>
<path d="M3535 5705 c-14 -13 -25 -31 -25 -41 0 -21 31 -72 48 -79 19 -7 49
11 63 38 12 21 11 21 -8 5 -11 -10 -27 -18 -37 -18 -23 0 -48 58 -34 83 14 26
39 33 53 14 15 -21 25 -22 25 -3 0 14 -21 26 -46 26 -8 0 -26 -11 -39 -25z"/>
<path d="M3655 5720 c-3 -5 -1 -10 6 -10 8 0 10 -18 7 -60 -4 -50 -2 -60 11
-60 13 0 16 12 16 57 0 55 1 58 25 58 22 0 25 -5 28 -43 2 -24 -2 -50 -9 -58
-9 -11 -7 -14 13 -14 22 0 23 3 23 58 0 52 2 57 23 60 24 4 25 2 22 -70 -1
-40 1 -48 17 -48 16 0 18 7 15 59 -4 70 -20 90 -56 73 -17 -7 -27 -7 -35 1 -8
8 -19 8 -41 0 -17 -6 -30 -7 -30 -2 0 12 -27 12 -35 -1z"/>
<path d="M1136 5705 c8 -19 -23 -114 -43 -137 -10 -11 -12 -18 -5 -18 13 0 52
71 52 95 0 8 3 15 8 15 4 0 7 14 7 30 0 17 -5 30 -12 30 -7 0 -10 -7 -7 -15z"/>
<path d="M4140 5705 c-17 -21 -5 -45 24 -45 28 0 37 17 24 43 -11 21 -31 22
-48 2z m38 -18 c2 -10 -3 -17 -12 -17 -18 0 -29 16 -21 31 9 14 29 6 33 -14z"/>
<path d="M4547 5694 c9 -15 19 -21 21 -15 4 13 -16 41 -29 41 -5 0 -2 -12 8
-26z"/>
<path d="M6260 5699 c0 -6 -12 -10 -27 -9 -42 3 -53 1 -53 -10 0 -5 9 -10 20
-10 18 0 20 -7 20 -66 0 -44 4 -63 11 -59 6 4 10 30 9 59 -3 79 -3 79 25 74
28 -6 27 -6 19 16 -7 18 -24 22 -24 5z"/>
<path d="M7960 5686 c0 -34 43 -50 54 -20 5 14 4 15 -8 5 -18 -15 -36 -6 -36
16 0 11 7 14 25 11 13 -3 22 -1 19 3 -3 5 -16 9 -30 9 -19 0 -24 -5 -24 -24z"/>
<path d="M4870 5690 l-45 -7 53 -1 c33 -1 51 2 47 8 -3 6 -7 9 -8 8 -1 0 -22
-4 -47 -8z"/>
<path d="M6006 5677 c10 -15 23 -27 28 -27 12 0 -18 43 -34 48 -8 3 -6 -5 6
-21z"/>
<path d="M5045 5647 c-32 -43 -88 -87 -111 -87 -10 0 -14 14 -14 44 l0 44 -45
4 c-35 2 -44 0 -40 -10 3 -8 5 -32 5 -55 0 -29 3 -38 11 -30 7 7 21 8 44 0 25
-7 42 -7 67 3 34 14 140 115 130 125 -10 10 -17 4 -47 -38z m-147 -40 c3 -23
0 -27 -22 -27 -21 0 -26 5 -26 23 0 13 3 27 7 31 15 14 38 0 41 -27z"/>
<path d="M1204 5657 c3 -13 1 -40 -5 -61 -10 -34 -13 -37 -37 -31 -25 6 -26 5
-8 -8 33 -24 54 -10 61 42 4 25 9 54 12 64 3 11 -1 17 -12 17 -13 0 -16 -6
-11 -23z"/>
<path d="M5640 5632 c0 -18 4 -31 9 -28 5 3 12 -1 15 -10 11 -29 6 -36 -19
-32 -14 3 -25 1 -25 -3 0 -5 36 -9 80 -9 48 0 80 4 80 10 0 6 -11 8 -25 4 -28
-7 -32 3 -10 32 8 10 15 30 15 44 0 24 -3 25 -60 25 l-60 0 0 -33z m103 3 c-1
-5 -12 -13 -25 -17 -13 -3 -17 -6 -10 -7 17 -1 15 -26 -3 -41 -19 -16 -27 -9
-29 24 0 14 -4 26 -8 26 -5 0 -8 7 -8 16 0 12 9 14 43 12 23 -2 41 -7 40 -13z"/>
<path d="M6183 5610 c-13 -50 -8 -51 12 -4 17 42 18 44 7 44 -4 0 -13 -18 -19
-40z"/>
<path d="M6380 5641 c0 -5 5 -13 10 -16 6 -3 10 -2 10 4 0 5 -4 13 -10 16 -5
3 -10 2 -10 -4z"/>
<path d="M6338 5634 c-10 -9 -10 -46 -2 -68 4 -11 19 -16 45 -16 33 0 39 3 39
21 0 19 -1 19 -16 5 -28 -28 -51 -15 -56 33 -2 18 -6 29 -10 25z"/>
<path d="M1610 5623 c0 -4 5 -15 10 -23 8 -13 10 -13 10 2 0 9 -4 20 -10 23
-5 3 -10 3 -10 -2z"/>
<path d="M6266 5617 c3 -10 9 -15 12 -12 3 3 0 11 -7 18 -10 9 -11 8 -5 -6z"/>
<path d="M1520 5610 c0 -8 5 -22 10 -30 9 -13 10 -13 10 0 0 8 -5 22 -10 30
-9 13 -10 13 -10 0z"/>
<path d="M1570 5613 c0 -4 5 -15 10 -23 8 -13 10 -13 10 2 0 9 -4 20 -10 23
-5 3 -10 3 -10 -2z"/>
<path d="M6292 5595 c-6 -14 -7 -25 -2 -25 9 0 25 39 18 46 -3 2 -10 -7 -16
-21z"/>
<path d="M6430 5613 c0 -5 7 -18 15 -29 12 -16 14 -16 15 -3 0 9 -7 22 -15 29
-8 7 -15 8 -15 3z"/>
<path d="M1467 5592 c-19 -21 -22 -32 -7 -32 10 0 34 39 27 46 -2 2 -11 -4
-20 -14z"/>
<path d="M5065 5576 c10 -14 21 -23 26 -20 13 8 12 10 -17 29 l-25 16 16 -25z"/>
<path d="M6590 5586 c0 -14 -18 -21 -43 -17 -5 1 -7 -4 -5 -11 3 -7 9 -12 14
-10 81 24 114 37 114 44 0 4 -12 3 -26 -2 -19 -7 -31 -7 -40 1 -11 9 -14 8
-14 -5z"/>
<path d="M7630 5569 c-19 -10 -28 -18 -19 -19 21 0 73 26 62 32 -4 3 -24 -3
-43 -13z"/>
<path d="M3855 4981 c-3 -7 0 -8 10 -5 23 9 47 -15 39 -40 -3 -12 -20 -36 -37
-53 l-31 -33 47 0 c26 0 47 4 47 9 0 4 -11 6 -25 3 -31 -5 -32 9 -4 47 28 38
22 75 -13 79 -14 2 -29 -2 -33 -7z"/>
<path d="M11424 4883 c-21 -31 -44 -62 -51 -68 -6 -7 -31 -39 -55 -72 -155
-218 -250 -348 -360 -493 -150 -200 -269 -360 -340 -458 -29 -40 -63 -85 -76
-100 -13 -15 -40 -52 -60 -82 -33 -49 -175 -242 -306 -415 -61 -80 -257 -346
-326 -442 -30 -42 -117 -160 -194 -262 -76 -102 -143 -197 -149 -211 -15 -39
-16 -204 -1 -314 25 -177 86 -415 124 -484 5 -9 19 -39 31 -67 87 -204 227
-409 407 -593 111 -114 266 -239 342 -277 19 -10 42 -23 50 -31 23 -20 231
-122 265 -130 17 -4 35 -10 40 -14 12 -9 135 -49 185 -60 272 -59 427 -74 626
-60 137 9 339 46 465 86 158 50 382 156 500 238 243 168 417 348 583 606 123
191 226 442 265 647 29 150 45 321 37 386 -8 64 -29 98 -185 307 -47 63 -127
174 -178 245 -95 135 -137 194 -253 355 -38 52 -86 119 -107 148 -21 29 -65
89 -98 133 -94 124 -178 240 -198 272 -10 17 -24 36 -30 43 -7 6 -70 94 -142
194 -71 100 -155 214 -186 253 -30 40 -91 122 -134 182 -43 61 -82 112 -85
115 -4 3 -30 39 -58 80 -73 105 -121 172 -137 192 -8 10 -38 50 -67 90 -57 81
-88 118 -98 118 -4 0 -24 -25 -46 -57z m87 -15 c16 -24 73 -101 125 -173 53
-71 159 -218 236 -325 78 -107 153 -209 167 -226 14 -17 55 -73 91 -123 36
-51 83 -116 105 -144 22 -29 85 -115 140 -192 54 -77 131 -182 170 -234 38
-51 84 -114 102 -140 18 -25 51 -72 75 -104 24 -31 120 -166 214 -300 95 -133
210 -293 258 -356 47 -63 84 -117 82 -119 -6 -5 -83 36 -91 48 -3 5 -16 10
-28 10 l-22 0 23 -18 c12 -9 53 -33 90 -52 75 -39 80 -44 122 -115 75 -125 4
-234 -224 -345 -107 -52 -173 -76 -320 -116 -134 -37 -159 -43 -286 -65 -109
-19 -149 -25 -350 -49 -47 -6 -98 -12 -115 -14 -16 -2 -75 -7 -130 -12 -55 -4
-111 -8 -125 -10 -48 -5 -665 -5 -720 0 -30 3 -113 10 -185 16 -486 41 -892
128 -1130 244 -138 67 -205 116 -238 177 -37 65 -36 114 6 176 17 27 37 58 44
68 6 11 16 19 22 17 15 -3 171 87 171 99 0 15 -12 10 -80 -31 -36 -22 -67 -35
-68 -30 -2 6 14 32 35 58 47 57 115 148 258 347 59 83 125 173 147 200 49 63
358 480 418 566 25 35 173 234 330 444 157 209 293 392 303 405 50 72 170 237
224 311 34 46 72 99 85 116 13 18 26 33 30 33 5 0 22 -19 39 -42z m1890 -2808
c0 -28 -10 -106 -21 -173 -52 -308 -190 -606 -422 -906 -51 -67 -244 -261
-284 -287 -16 -10 -64 -45 -107 -76 -43 -32 -83 -58 -89 -58 -6 0 -31 -15 -57
-33 -99 -71 -400 -186 -566 -215 -33 -6 -87 -16 -120 -22 -213 -39 -445 -31
-701 25 -87 19 -170 39 -184 44 -252 93 -397 170 -581 308 -136 102 -313 294
-422 456 -155 231 -234 418 -298 702 -19 89 -41 285 -31 285 4 0 33 -25 65
-55 86 -80 271 -168 477 -225 25 -7 73 -21 106 -32 34 -10 65 -18 70 -17 5 2
27 -2 49 -9 58 -16 294 -48 485 -67 91 -8 200 -20 244 -26 103 -15 785 -16
891 -1 44 6 173 21 287 32 193 19 501 69 558 89 14 5 77 24 140 41 63 18 140
43 170 57 174 79 222 107 277 162 32 31 60 56 62 54 2 -1 3 -25 2 -53z"/>
<path d="M11260 2751 c0 -5 4 -11 10 -13 21 -7 180 4 180 13 0 5 -43 9 -95 9
-52 0 -95 -4 -95 -9z"/>
<path d="M11500 2750 c0 -5 23 -10 50 -11 28 0 69 -1 92 -1 23 -1 44 4 46 10
3 9 -24 12 -92 12 -57 0 -96 -4 -96 -10z"/>
<path d="M11025 2740 c-4 -6 28 -10 89 -10 57 0 96 4 96 10 0 6 -36 10 -89 10
-50 0 -93 -4 -96 -10z"/>
<path d="M11740 2742 c0 -9 178 -23 189 -15 2 2 1 6 -3 11 -12 11 -186 16
-186 4z"/>
<path d="M10823 2733 c-47 -5 -59 -23 -15 -23 61 0 162 13 162 21 0 9 -63 9
-147 2z"/>
<path d="M11980 2733 c0 -6 28 -13 61 -17 88 -9 129 -8 129 4 0 6 -12 10 -27
10 -16 0 -58 3 -95 7 -43 4 -68 2 -68 -4z"/>
<path d="M10615 2708 c-92 -14 -95 -31 -5 -23 87 8 110 13 110 26 0 11 -23 10
-105 -3z"/>
<path d="M12220 2711 c0 -10 35 -17 130 -27 92 -9 66 11 -33 25 -94 13 -97 13
-97 2z"/>
<path d="M10405 2674 c-33 -8 -71 -16 -84 -19 -14 -4 -20 -10 -15 -15 10 -9
153 15 167 29 17 17 -8 18 -68 5z"/>
<path d="M12464 2671 c3 -5 20 -12 38 -15 18 -3 42 -8 53 -10 87 -19 85 -19
85 -1 0 10 -3 16 -6 13 -3 -3 -29 0 -57 8 -59 16 -121 18 -113 5z"/>
<path d="M10151 2622 c-41 -10 -76 -23 -79 -30 -3 -9 4 -11 25 -7 15 4 51 11
78 17 72 15 75 16 75 28 0 13 -8 12 -99 -8z"/>
<path d="M12700 2631 c0 -12 18 -18 103 -36 64 -13 89 -13 76 0 -5 4 -76 23
-151 39 -16 4 -28 2 -28 -3z"/>
<path d="M9921 2551 c-41 -15 -77 -33 -79 -40 -3 -8 1 -11 9 -8 8 3 49 17 92
32 42 15 77 31 77 36 0 14 -19 10 -99 -20z"/>
<path d="M12932 2569 c5 -15 127 -61 153 -57 12 2 -12 16 -63 36 -94 36 -95
36 -90 21z"/>
<path d="M2889 4900 c-13 -10 -19 -19 -13 -20 5 0 15 5 21 11 6 6 20 8 32 4
27 -8 28 -49 1 -68 -21 -14 -21 -14 -1 -20 25 -6 38 -52 20 -73 -9 -11 -22
-14 -46 -9 -37 7 -43 1 -13 -15 49 -26 108 48 80 100 -7 12 -9 33 -5 47 14 59
-28 84 -76 43z"/>
<path d="M3051 4894 c-15 -19 -21 -41 -21 -78 0 -69 18 -101 54 -101 40 0 68
39 68 98 0 94 -56 139 -101 81z m58 7 c22 -14 21 -145 -1 -167 -9 -9 -23 -14
-32 -11 -29 11 -32 139 -4 175 12 14 18 15 37 3z"/>
<path d="M1995 4823 c-21 -49 -42 -94 -47 -100 -8 -10 -5 -13 11 -13 15 0 21
6 21 23 0 31 18 47 52 47 29 0 54 -31 44 -56 -4 -10 3 -14 25 -14 28 0 29 1
16 23 -8 12 -27 57 -42 100 -15 42 -31 77 -35 77 -4 0 -24 -39 -45 -87z m59
-10 c7 -21 4 -23 -24 -23 -28 0 -31 2 -24 23 3 12 11 28 17 35 12 15 18 7 31
-35z"/>
<path d="M3209 4831 l-24 -19 29 5 c27 6 28 5 16 -18 -7 -13 -21 -36 -31 -51
-21 -30 -23 -38 -9 -38 6 0 22 27 37 60 29 63 61 84 49 33 -18 -82 -19 -93 -4
-93 9 0 22 8 29 17 10 12 10 14 1 9 -21 -12 -26 23 -9 60 9 19 23 34 32 34 8
0 15 5 15 10 0 19 -106 12 -131 -9z"/>
<path d="M3467 4832 c-10 -10 -17 -34 -17 -54 0 -61 57 -90 95 -48 21 23 14
26 -16 8 -18 -11 -23 -10 -40 11 -24 29 -22 69 4 85 15 9 21 7 32 -8 16 -22
31 -16 22 9 -9 21 -60 19 -80 -3z"/>
<path d="M3595 4807 c3 -24 1 -55 -4 -70 -9 -24 -8 -27 12 -27 20 0 22 5 22
57 0 55 1 58 25 58 22 0 25 -5 28 -43 2 -24 -2 -50 -9 -58 -9 -11 -7 -14 12
-14 22 0 24 3 21 48 -4 53 16 86 44 75 13 -5 15 -18 12 -64 -4 -58 -4 -59 21
-59 19 0 22 3 12 9 -9 6 -12 19 -8 39 9 46 -10 92 -38 92 -13 0 -27 -4 -30
-10 -4 -6 -13 -5 -25 2 -14 9 -25 9 -44 0 -16 -7 -26 -8 -26 -2 0 6 -7 10 -15
10 -13 0 -14 -9 -10 -43z"/>
<path d="M2175 4730 c-4 -6 -3 -16 3 -22 6 -6 12 -6 17 2 4 6 3 16 -3 22 -6 6
-12 6 -17 -2z"/>
<path d="M3843 4103 c-7 -2 -13 -9 -13 -15 0 -7 5 -6 14 1 11 9 18 8 30 -4 19
-19 20 -29 5 -58 -9 -19 -7 -18 10 3 25 31 26 42 3 63 -19 17 -28 19 -49 10z"/>
<path d="M2889 4020 l-24 -19 37 6 c29 4 39 2 44 -10 8 -21 -13 -57 -34 -57
-12 -1 -8 -6 11 -16 23 -13 28 -21 25 -47 -3 -30 -6 -32 -41 -32 -25 0 -37 -5
-37 -14 0 -19 71 -7 87 16 16 20 17 75 3 89 -7 7 -8 19 -1 36 7 19 6 31 -5 47
-19 26 -35 27 -65 1z"/>
<path d="M3053 4028 c-32 -16 -28 -25 8 -20 24 4 31 0 36 -17 7 -29 23 -27 23
4 0 14 -8 29 -19 35 -23 12 -20 12 -48 -2z"/>
<path d="M1948 4018 c7 -7 12 -43 12 -93 0 -50 -5 -86 -12 -93 -9 -9 -1 -12
39 -12 94 0 141 37 109 85 -12 18 -13 30 -6 50 8 22 6 30 -15 51 -20 20 -34
24 -82 24 -44 0 -54 -3 -45 -12z m86 -8 c20 -7 26 -16 26 -40 0 -30 -2 -31
-37 -28 -31 2 -39 7 -41 26 -2 13 2 30 8 38 15 17 12 16 44 4z m11 -90 c22 -8
26 -15 23 -42 -3 -31 -6 -33 -45 -36 l-43 -3 0 39 c0 55 12 62 65 42z"/>
<path d="M3837 3982 c-16 -17 -15 -18 28 -21 27 -1 45 2 45 9 0 6 -12 9 -27 8
-18 -2 -27 1 -25 10 3 17 -2 15 -21 -6z"/>
<path d="M3451 3949 c-12 -13 -21 -33 -21 -46 0 -33 27 -83 46 -83 20 0 64 30
64 43 0 7 -4 7 -12 -1 -19 -19 -45 -14 -62 10 -20 29 -20 52 0 73 9 9 14 18
11 21 -3 3 -14 -5 -26 -17z"/>
<path d="M3502 3950 c7 -11 18 -20 25 -20 17 0 16 5 -3 24 -22 23 -37 20 -22
-4z"/>
<path d="M3577 3962 c-14 -3 -16 -7 -6 -18 7 -9 10 -35 7 -68 -4 -43 -2 -53
10 -52 11 2 15 17 16 56 1 39 6 56 19 64 26 16 38 -8 35 -69 -2 -38 1 -50 12
-50 12 0 14 12 12 52 -3 44 -1 53 17 63 33 17 43 3 40 -58 -2 -46 0 -58 13
-60 14 -3 15 6 11 60 -7 77 -19 94 -56 77 -20 -9 -30 -9 -40 0 -10 8 -22 8
-40 2 -14 -6 -27 -7 -29 -3 -2 4 -11 6 -21 4z"/>
<path d="M3077 3946 c-16 -13 -16 -15 8 -30 43 -28 24 -81 -27 -74 -12 2 -23
-1 -23 -7 0 -19 59 -7 77 15 22 28 24 76 2 84 -8 3 -12 10 -9 16 9 14 -7 12
-28 -4z"/>
<path d="M3191 3946 c-10 -12 -8 -13 8 -9 12 3 21 2 21 -1 0 -14 -29 -63 -44
-75 -18 -15 -21 -41 -6 -41 6 0 23 27 38 60 19 42 33 60 46 60 13 0 16 -5 11
-17 -33 -82 -25 -127 17 -86 l21 22 -21 -6 c-26 -6 -28 4 -8 52 8 19 22 35 30
35 8 0 18 5 21 10 10 17 -120 13 -134 -4z"/>
<path d="M2157 3844 c-8 -8 1 -24 14 -24 5 0 9 7 9 15 0 15 -12 20 -23 9z"/>
<path d="M3844 3208 c-5 -8 -2 -9 11 -5 19 8 45 -8 45 -28 0 -7 -14 -29 -30
-50 -19 -24 -27 -41 -20 -45 13 -8 70 0 70 9 0 4 -14 6 -30 3 -25 -3 -29 -1
-24 12 3 9 10 16 16 16 5 0 16 16 24 36 12 28 12 39 3 50 -14 17 -55 19 -65 2z"/>
<path d="M1981 3134 c-50 -36 -60 -126 -18 -171 28 -32 96 -32 123 -1 l19 22
-25 -17 c-73 -50 -141 24 -110 118 19 58 74 68 112 21 l18 -21 0 26 c0 23 -5
27 -37 33 -53 8 -56 8 -82 -10z"/>
<path d="M2903 3085 c-24 -36 -43 -69 -43 -74 0 -6 17 -11 38 -13 32 -3 37 -7
40 -31 2 -16 8 -26 15 -24 7 2 11 14 10 26 -2 12 4 24 12 28 11 3 12 9 6 17
-6 6 -11 38 -13 71 -2 32 -7 60 -13 61 -5 2 -29 -26 -52 -61z m33 -61 c-6 -16
-42 -19 -51 -4 -3 6 6 28 22 49 l28 40 3 -36 c2 -19 1 -41 -2 -49z"/>
<path d="M3039 3126 c-10 -21 -9 -30 5 -51 16 -24 16 -28 2 -44 -19 -21 -21
-62 -4 -79 7 -7 26 -12 43 -12 17 0 36 5 43 12 17 17 15 58 -4 79 -15 16 -14
20 2 49 24 40 10 64 -39 68 -31 3 -39 -1 -48 -22z m70 0 c15 -18 -2 -56 -24
-56 -16 0 -31 43 -20 59 9 15 30 14 44 -3z m-7 -113 c31 -28 18 -63 -22 -63
-15 0 -29 36 -23 58 6 26 20 28 45 5z"/>
<path d="M3208 3069 c-10 -5 -18 -15 -18 -21 0 -7 6 -6 15 2 38 31 28 -22 -12
-70 -14 -17 -23 -33 -20 -36 11 -11 27 8 52 62 14 31 31 54 40 54 19 0 19 -7
0 -61 -11 -30 -12 -46 -5 -53 12 -12 41 2 49 25 4 12 2 12 -13 0 -25 -21 -30
-7 -14 41 11 31 21 44 36 46 12 2 22 8 22 13 0 12 -111 11 -132 -2z"/>
<path d="M3454 3055 c-20 -31 -10 -91 18 -109 21 -13 69 2 76 24 5 13 3 13
-12 1 -13 -11 -22 -12 -42 -2 -22 10 -25 16 -22 54 2 35 7 43 26 45 15 2 22
-2 22 -12 0 -9 7 -16 16 -16 9 0 14 7 12 18 -2 12 -14 18 -40 20 -30 3 -40 -1
-54 -23z"/>
<path d="M3588 3017 c3 -43 1 -62 -9 -68 -10 -6 -3 -8 21 -8 19 0 29 3 23 6
-8 3 -13 24 -13 53 0 37 4 52 18 59 32 17 44 -2 41 -63 -4 -51 -2 -56 16 -56
18 0 20 5 16 56 -2 38 1 59 10 64 33 21 53 -21 40 -82 -8 -36 -8 -38 16 -38
17 0 22 4 16 13 -4 6 -10 37 -13 67 l-5 55 -90 1 -91 0 4 -59z"/>
<path d="M2150 2956 c0 -9 5 -16 10 -16 6 0 10 4 10 9 0 6 -4 13 -10 16 -5 3
-10 -1 -10 -9z"/>
<path d="M3823 2333 c-23 -8 -14 -20 11 -16 47 9 41 -42 -12 -99 l-26 -28 47
0 c26 0 47 5 47 10 0 6 -14 10 -31 10 l-31 0 31 35 c23 27 29 40 22 57 -8 23
-38 38 -58 31z"/>
<path d="M2927 2263 c-20 -3 -33 -15 -47 -44 l-20 -39 23 0 c31 0 67 -35 67
-64 0 -35 -23 -49 -66 -41 -28 5 -35 3 -32 -7 3 -7 17 -14 32 -16 86 -10 115
119 33 147 -25 9 -28 13 -17 26 7 8 18 15 24 14 29 -4 46 2 46 16 0 8 -3 14
-7 14 -5 -1 -20 -4 -36 -6z"/>
<path d="M3065 2260 c-4 -6 -7 -55 -8 -110 -2 -97 -1 -100 20 -100 19 0 21 4
15 23 -5 12 -7 59 -6 105 1 77 -6 106 -21 82z"/>
<path d="M1938 2248 c17 -17 16 -185 0 -191 -7 -3 13 -6 45 -6 70 -1 112 20
127 62 32 93 -19 147 -139 147 -35 0 -42 -3 -33 -12z m105 -9 c42 -19 56 -69
36 -127 -11 -32 -26 -42 -71 -48 -26 -3 -26 -3 -30 64 -6 123 4 139 65 111z"/>
<path d="M3183 2189 c-13 -4 -23 -13 -23 -18 0 -6 7 -8 16 -4 14 5 16 2 10
-22 -4 -16 -16 -41 -27 -56 -22 -31 -23 -39 -8 -39 6 0 22 27 36 60 19 44 31
60 46 60 14 0 17 -4 12 -17 -33 -82 -25 -127 17 -86 l21 22 -23 -6 c-21 -6
-22 -4 -16 23 10 41 34 74 53 74 9 0 13 3 9 7 -10 11 -98 12 -123 2z"/>
<path d="M3430 2180 c-29 -29 -27 -94 2 -114 29 -21 51 -20 71 2 19 21 23 42
5 24 -36 -36 -88 7 -74 63 9 36 32 42 56 14 19 -24 19 -24 20 -3 0 37 -48 46
-80 14z"/>
<path d="M3555 2189 c-11 -4 -14 -8 -7 -8 15 -1 17 -84 2 -112 -9 -16 -7 -19
12 -19 22 0 23 3 20 59 -3 54 -2 60 18 66 37 12 50 -26 31 -93 -9 -29 -8 -32
12 -32 20 0 22 5 22 56 0 43 4 59 18 68 26 16 38 -8 35 -72 -3 -49 -2 -52 22
-52 19 0 21 3 12 12 -7 7 -12 35 -12 64 0 63 -18 84 -54 65 -19 -10 -27 -10
-44 0 -17 11 -23 10 -37 -1 -11 -9 -19 -10 -23 -3 -4 6 -15 7 -27 2z"/>
<path d="M2160 2065 c0 -8 5 -15 10 -15 6 0 10 7 10 15 0 8 -4 15 -10 15 -5 0
-10 -7 -10 -15z"/>
</g>
</svg>
