<?xml version="1.0" standalone="no"?>
<!DOCTYPE svg PUBLIC "-//W3C//DTD SVG 20010904//EN"
 "http://www.w3.org/TR/2001/REC-SVG-20010904/DTD/svg10.dtd">
<svg version="1.0" xmlns="http://www.w3.org/2000/svg"
 width="1373.000000pt" height="630.000000pt" viewBox="0 0 1373.000000 630.000000"
 preserveAspectRatio="xMidYMid meet">
<metadata>
Created by potrace 1.16, written by Peter Selinger 2001-2019
</metadata>
<g transform="translate(0.000000,630.000000) scale(0.100000,-0.100000)"
fill="#000000" stroke="none">
<path d="M1540 5979 l0 -31 -55 4 -55 5 0 -74 c0 -67 9 -89 25 -63 3 6 23 10
43 10 28 0 33 3 22 10 -8 5 -25 10 -37 10 -20 0 -23 5 -23 40 l0 40 41 0 41 0
-4 -105 c-2 -79 0 -105 10 -105 8 0 12 18 12 55 l0 55 38 0 c21 0 43 -5 50
-12 17 -17 20 -10 24 67 l3 70 -57 -3 c-47 -3 -58 -1 -58 11 0 9 5 19 10 22
13 8 3 25 -16 25 -9 0 -14 -11 -14 -31z m108 -89 c-1 -23 -4 -43 -8 -45 -4 -2
-23 -2 -43 2 -35 5 -37 8 -37 44 l0 39 45 0 45 0 -2 -40z"/>
<path d="M1098 5910 c-2 -145 5 -221 19 -182 6 16 194 17 211 0 6 -6 14 -10
16 -7 3 2 6 64 7 138 l2 133 -126 1 -127 2 -2 -85z m85 63 c-7 -2 -13 -17 -13
-33 0 -23 3 -27 20 -23 11 3 20 0 20 -6 0 -6 -19 -11 -45 -11 -45 0 -45 0 -45
34 0 30 4 35 28 39 40 6 49 6 35 0z m147 -35 c0 -30 -3 -33 -31 -35 -24 -2
-30 1 -25 13 3 9 6 24 6 35 0 14 7 19 25 19 22 0 25 -4 25 -32z m-80 2 c0 -5
-13 -10 -30 -10 -16 0 -30 5 -30 10 0 6 14 10 30 10 17 0 30 -4 30 -10z m0
-30 c0 -5 -4 -10 -10 -10 -5 0 -10 5 -10 10 0 6 5 10 10 10 6 0 10 -4 10 -10z
m-100 -49 c9 -39 -1 -101 -16 -101 -11 0 -14 16 -14 66 0 47 3 65 12 62 7 -3
15 -15 18 -27z m176 -97 c-3 -8 -12 -11 -22 -7 -19 7 -15 57 7 108 14 30 14
29 17 -29 2 -32 1 -65 -2 -72z m-49 110 c-3 -3 -12 -4 -19 -1 -8 3 -5 6 6 6
11 1 17 -2 13 -5z m-87 -40 c0 -14 -4 -23 -10 -19 -5 3 -10 15 -10 26 0 10 5
19 10 19 6 0 10 -12 10 -26z m43 19 c-7 -2 -19 -2 -25 0 -7 3 -2 5 12 5 14 0
19 -2 13 -5z m47 -28 c0 -19 -4 -35 -10 -35 -5 0 -10 16 -10 35 0 19 5 35 10
35 6 0 10 -16 10 -35z m-40 -5 c0 -5 -7 -10 -15 -10 -8 0 -15 5 -15 10 0 6 7
10 15 10 8 0 15 -4 15 -10z m18 -57 c-15 -2 -42 -2 -60 0 -18 2 -6 4 27 4 33
0 48 -2 33 -4z"/>
<path d="M6960 5985 c0 -11 -12 -15 -45 -15 -25 0 -45 -4 -45 -10 0 -5 20 -10
45 -10 33 0 45 -4 45 -15 0 -20 16 -19 24 1 7 19 62 16 59 -3 -2 -7 6 -13 17
-13 11 0 20 7 20 15 0 11 11 15 41 15 28 0 39 4 36 13 -2 7 -18 11 -41 9 -22
-2 -35 1 -32 6 3 6 -1 13 -10 16 -25 10 -34 7 -34 -9 0 -9 -10 -15 -26 -15
-14 0 -23 4 -20 9 3 5 -1 12 -10 15 -22 9 -24 8 -24 -9z"/>
<path d="M8890 5881 c0 -91 2 -102 15 -91 11 9 12 16 5 25 -18 22 0 45 34 45
45 0 64 -14 46 -35 -11 -14 -11 -19 3 -33 16 -15 17 -10 19 76 0 51 1 97 2
103 1 7 -23 12 -62 13 l-62 1 0 -104z m110 66 c0 -7 -5 -18 -11 -24 -8 -8 -8
-13 0 -17 6 -4 11 -14 11 -22 0 -10 -12 -14 -44 -14 l-44 0 0 45 1 45 44 0
c29 0 43 -4 43 -13z"/>
<path d="M9120 5864 l0 -126 -30 7 c-37 8 -39 -6 -2 -23 43 -20 52 3 52 135 0
69 4 113 10 113 6 0 10 5 10 10 0 6 -9 10 -20 10 -19 0 -20 -7 -20 -126z"/>
<path d="M250 5965 c-9 -10 -9 -15 -1 -15 16 0 15 -167 -1 -173 -7 -3 7 -5 32
-5 25 0 39 2 33 5 -9 3 -13 34 -13 104 0 90 -2 99 -19 99 -10 0 -24 -7 -31
-15z"/>
<path d="M403 5973 c-16 -6 -17 -75 -3 -89 7 -7 4 -16 -10 -29 -25 -23 -25
-30 1 -66 25 -35 61 -38 83 -7 21 29 20 67 -1 90 -15 17 -15 19 0 36 41 45 -8
91 -70 65z m47 -43 c0 -35 -14 -39 -31 -9 -9 17 -8 23 2 30 23 15 29 10 29
-21z m0 -91 c15 -27 6 -49 -20 -49 -16 0 -20 6 -20 35 0 40 22 48 40 14z"/>
<path d="M2342 5877 c-56 -56 -102 -106 -102 -110 0 -4 47 -7 105 -7 122 0
144 18 28 22 l-78 3 63 62 c34 34 62 66 62 69 0 4 7 15 16 25 9 10 14 23 12
29 -1 5 -49 -36 -106 -93z"/>
<path d="M2619 5926 c-19 -31 -37 -56 -41 -56 -4 0 -20 -19 -35 -42 -14 -24
-33 -48 -42 -55 -14 -10 -11 -12 18 -13 24 0 32 4 28 14 -7 17 33 56 56 56 20
0 23 -40 5 -58 -9 -9 -4 -12 25 -12 33 0 36 2 26 18 -8 13 -9 42 -1 103 5 46
6 88 2 92 -4 5 -23 -16 -41 -47z m1 -56 c0 -14 -7 -20 -22 -20 -21 0 -21 0 -2
19 24 25 24 25 24 1z"/>
<path d="M4193 5969 c-55 -16 -95 -100 -79 -165 8 -30 60 -56 97 -48 40 9 69
27 69 42 0 13 -3 13 -18 -1 -23 -21 -75 -25 -96 -8 -18 15 -21 76 -6 115 22
59 101 73 115 19 5 -21 8 -24 16 -12 5 7 9 25 9 39 0 22 -5 25 -38 26 -20 1
-51 -2 -69 -7z"/>
<path d="M5175 5966 c-48 -21 -68 -51 -73 -109 -6 -72 18 -102 78 -100 45 2
95 28 84 44 -4 7 -12 5 -23 -5 -25 -23 -88 -21 -101 3 -14 27 -13 54 6 99 18
45 51 67 88 58 19 -5 26 -13 26 -31 0 -31 16 -33 24 -2 12 46 8 52 -37 54 -23
1 -56 -4 -72 -11z"/>
<path d="M5345 5957 c8 -32 -19 -132 -46 -169 l-20 -28 67 0 c86 0 124 18 147
70 23 54 22 84 -5 115 -19 20 -36 26 -86 32 l-63 6 6 -26z m116 -31 c26 -57
-27 -146 -87 -146 -26 0 -29 11 -14 56 5 16 14 48 20 72 10 38 14 42 41 42 21
0 32 -6 40 -24z"/>
<path d="M5859 5951 c-49 -49 -31 -111 32 -111 l30 0 -16 -30 c-8 -16 -27 -33
-40 -36 -14 -3 -25 -10 -25 -15 0 -22 56 0 93 36 23 24 27 36 27 86 0 46 -5
64 -20 79 -27 27 -46 25 -81 -9z m67 -25 c9 -37 1 -61 -21 -61 -16 0 -21 8
-23 43 -3 37 -1 42 17 42 13 0 23 -9 27 -24z"/>
<path d="M6033 5970 c-43 -17 -55 -156 -17 -195 19 -18 68 -20 82 -2 29 34 32
137 7 178 -13 22 -45 30 -72 19z m57 -102 c0 -54 -13 -88 -34 -88 -8 0 -17 7
-20 16 -10 27 -7 124 5 147 l12 21 18 -23 c13 -16 19 -39 19 -73z"/>
<path d="M6157 5962 c-23 -26 -21 -45 8 -72 21 -20 28 -22 50 -12 19 9 25 19
25 43 0 52 -51 77 -83 41z m58 -37 c0 -30 -39 -27 -43 3 -3 20 0 23 20 20 15
-2 23 -10 23 -23z"/>
<path d="M7562 5949 c-21 -39 -112 -160 -132 -176 -13 -10 -10 -12 17 -13 24
0 31 4 27 14 -7 19 30 56 56 56 24 0 27 -32 4 -54 -14 -15 -12 -16 27 -16 35
0 40 2 30 14 -9 11 -10 42 -5 110 4 53 4 96 0 96 -4 0 -15 -14 -24 -31z m-7
-78 c-3 -12 -13 -21 -21 -21 -12 0 -12 4 2 25 19 29 29 27 19 -4z"/>
<path d="M2747 5947 c6 -29 -33 -168 -49 -179 -7 -4 18 -8 58 -8 56 0 74 4 87
18 19 21 23 82 5 82 -6 0 -2 10 10 23 46 48 18 87 -62 87 -50 0 -53 -1 -49
-23z m91 -20 c5 -24 -15 -47 -40 -47 -16 0 -19 5 -14 23 3 12 6 28 6 35 0 20
44 10 48 -11z m-19 -81 c21 -25 -12 -66 -53 -66 -18 0 -20 18 -6 54 10 28 40
35 59 12z"/>
<path d="M2937 5950 c7 -28 -26 -145 -49 -170 -19 -20 -19 -20 43 -20 35 0 78
6 97 12 66 24 92 146 39 183 -13 9 -44 15 -78 15 -52 0 -57 -2 -52 -20z m111
-12 c16 -16 15 -73 -2 -107 -15 -28 -53 -51 -86 -51 -24 0 -24 2 -6 66 8 27
17 61 20 77 5 21 12 27 34 27 15 0 33 -5 40 -12z"/>
<path d="M3517 5872 c-53 -54 -97 -100 -97 -104 0 -12 220 -10 220 2 0 6 -33
10 -80 10 -44 0 -80 3 -80 8 0 4 36 43 80 87 44 44 80 83 80 87 0 22 -34 -3
-123 -90z"/>
<path d="M3775 5894 c-33 -41 -62 -81 -64 -87 -2 -7 -10 -20 -19 -29 -14 -17
-13 -18 11 -18 21 0 27 5 27 23 0 30 18 47 51 47 23 0 26 -3 21 -27 -3 -16 -9
-31 -15 -34 -5 -4 5 -8 22 -11 17 -2 36 -1 43 4 10 6 10 8 -1 8 -11 0 -13 18
-7 100 4 55 3 100 -2 100 -4 0 -35 -34 -67 -76z m35 -24 c0 -14 -7 -20 -22
-20 -20 0 -21 1 -3 20 10 11 20 20 22 20 1 0 3 -9 3 -20z"/>
<path d="M3928 5963 c6 -2 12 -12 12 -21 0 -30 -40 -146 -57 -164 -15 -17 -13
-18 56 -18 40 0 81 4 91 10 55 29 79 141 40 180 -16 16 -33 20 -87 19 -38 0
-62 -3 -55 -6z m117 -30 c27 -26 14 -91 -25 -125 -35 -33 -80 -38 -80 -10 0
15 19 92 35 140 6 18 51 15 70 -5z"/>
<path d="M4737 5872 c-53 -53 -97 -101 -97 -105 0 -4 47 -7 105 -7 122 0 144
18 28 22 l-78 3 63 62 c34 34 62 66 62 70 0 5 9 15 20 23 11 8 20 18 20 22 0
24 -36 -2 -123 -90z"/>
<path d="M4948 5961 c11 -7 10 -21 -7 -78 -12 -39 -21 -76 -21 -83 0 -7 -8
-19 -17 -26 -16 -12 -9 -13 47 -14 42 0 73 5 87 15 26 18 38 62 22 81 -9 11
-8 18 5 32 19 22 21 53 4 70 -7 7 -39 12 -72 12 -37 0 -56 -4 -48 -9z m92 -34
c0 -28 -17 -47 -42 -47 -21 0 -23 22 -6 50 18 28 48 26 48 -3z m-12 -96 c4
-29 -20 -51 -56 -51 -19 0 -22 4 -17 23 4 12 9 30 12 40 8 29 57 19 61 -12z"/>
<path d="M7677 5950 c7 -26 -26 -150 -45 -172 -14 -17 -11 -18 56 -18 62 0 73
3 86 22 18 25 21 64 6 73 -6 4 -2 16 10 32 21 27 19 60 -4 75 -6 4 -34 8 -63
8 -46 0 -51 -2 -46 -20z m91 -26 c4 -25 -20 -47 -47 -42 -19 3 -20 4 -4 36 18
37 46 40 51 6z m-20 -92 c5 -30 -14 -52 -45 -52 -21 0 -24 4 -19 23 3 12 6 30
6 40 0 29 54 19 58 -11z"/>
<path d="M8190 5951 c-5 -11 -17 -45 -25 -77 -8 -32 -19 -62 -25 -68 -13 -13
-13 -29 1 -21 6 4 17 -2 25 -14 18 -25 37 -27 54 -6 16 19 5 34 -12 17 -7 -7
-16 -12 -20 -12 -15 0 -8 57 8 71 24 20 44 65 44 99 0 23 -4 30 -20 30 -10 0
-24 -9 -30 -19z m20 -61 c-17 -32 -22 -18 -8 21 8 22 13 28 16 17 2 -9 -2 -27
-8 -38z"/>
<path d="M9050 5875 c0 -57 4 -95 10 -95 6 0 10 28 10 64 0 35 3 78 6 95 5 24
3 31 -10 31 -14 0 -16 -14 -16 -95z"/>
<path d="M9456 5940 c-110 -97 -29 -244 93 -169 43 26 32 38 -14 13 -33 -18
-37 -18 -63 -2 -23 15 -27 23 -26 63 1 85 94 143 127 79 15 -29 20 -25 31 19
l6 27 -59 0 c-53 0 -65 -4 -95 -30z"/>
<path d="M9655 5950 c13 -14 15 -23 7 -32 -5 -7 -17 -40 -26 -73 -8 -33 -22
-65 -31 -71 -21 -16 -8 -24 40 -24 71 0 103 11 140 47 29 29 35 41 35 78 0 36
-5 47 -31 69 -25 22 -41 26 -91 26 -60 0 -61 0 -43 -20z m112 -26 c20 -20 24
-31 19 -57 -9 -47 -53 -87 -94 -87 l-34 0 7 43 c4 23 11 44 15 47 5 3 11 22
15 43 9 45 34 49 72 11z"/>
<path d="M6983 5899 c-5 -19 -11 -21 -59 -17 -30 3 -54 1 -54 -4 0 -4 20 -8
45 -8 25 0 45 -4 45 -8 0 -5 -21 -30 -46 -56 -49 -49 -54 -73 -8 -37 36 29 44
27 44 -11 l0 -33 85 0 c94 0 86 -7 89 75 l1 35 -78 -4 c-78 -3 -78 -3 -65 18
12 20 20 21 91 18 45 -3 80 0 83 5 9 15 -18 29 -32 17 -14 -12 -124 -9 -124 3
0 4 5 8 10 8 6 0 10 5 10 10 0 19 -32 10 -37 -11z m115 -121 c3 -28 3 -28 -57
-28 l-61 0 0 30 0 31 58 -3 c54 -3 57 -4 60 -30z"/>
<path d="M1870 5880 c0 -13 7 -20 20 -20 13 0 20 7 20 20 0 13 -7 20 -20 20
-13 0 -20 -7 -20 -20z"/>
<path d="M3175 5870 c3 -5 39 -10 80 -10 41 0 77 5 80 10 4 6 -25 10 -80 10
-55 0 -84 -4 -80 -10z"/>
<path d="M4390 5870 c0 -13 150 -13 170 0 10 7 -14 10 -77 10 -56 0 -93 -4
-93 -10z"/>
<path d="M5590 5870 c0 -6 35 -10 86 -10 54 0 83 4 79 10 -3 6 -42 10 -86 10
-46 0 -79 -4 -79 -10z"/>
<path d="M7885 5871 c14 -13 166 -19 162 -6 -2 6 -41 11 -88 13 -54 2 -80 -1
-74 -7z"/>
<path d="M9910 5865 c0 -12 14 -15 64 -15 68 0 96 6 96 21 0 5 -36 9 -80 9
-64 0 -80 -3 -80 -15z"/>
<path d="M5595 5823 c-3 -10 16 -13 75 -13 44 0 80 4 80 9 0 15 -149 18 -155
4z"/>
<path d="M3170 5820 c0 -6 33 -10 80 -10 47 0 80 4 80 10 0 6 -33 10 -80 10
-47 0 -80 -4 -80 -10z"/>
<path d="M4390 5820 c0 -6 33 -10 80 -10 47 0 80 4 80 10 0 6 -33 10 -80 10
-47 0 -80 -4 -80 -10z"/>
<path d="M7880 5820 c0 -6 33 -10 80 -10 47 0 80 4 80 10 0 6 -33 10 -80 10
-47 0 -80 -4 -80 -10z"/>
<path d="M9910 5810 c0 -18 7 -20 74 -20 70 0 86 7 86 36 0 2 -36 4 -80 4 -73
0 -80 -2 -80 -20z"/>
<path d="M532 5783 c2 -10 10 -18 18 -18 8 0 16 8 18 18 2 12 -3 17 -18 17
-15 0 -20 -5 -18 -17z"/>
<path d="M8898 5755 c-38 -45 -35 -50 12 -19 22 15 39 32 37 37 -7 21 -22 15
-49 -18z"/>
<path d="M8960 5783 c0 -4 14 -21 30 -36 19 -19 30 -24 30 -14 0 13 -21 36
-47 51 -7 4 -13 4 -13 -1z"/>
<path d="M13081 5075 c-40 -52 -77 -95 -82 -95 -5 0 -9 -4 -9 -10 0 -5 14 -10
31 -10 17 0 28 4 24 10 -12 20 15 50 45 50 32 0 43 -26 15 -36 -8 -4 -12 -10
-9 -15 7 -12 84 -11 84 1 0 6 -7 10 -16 10 -13 0 -14 13 -8 95 4 52 5 95 2 95
-3 0 -38 -43 -77 -95z m39 -10 c0 -16 -6 -25 -15 -25 -18 0 -19 4 -3 30 16 26
18 25 18 -5z"/>
<path d="M2017 5128 c-7 -18 -24 -61 -36 -95 -13 -35 -27 -63 -32 -63 -5 0 -9
-4 -9 -10 0 -5 13 -10 28 -10 24 0 28 4 27 28 0 24 4 27 37 30 30 3 37 -1 43
-19 5 -14 2 -25 -6 -30 -9 -6 2 -9 30 -9 41 0 43 1 29 18 -9 9 -23 40 -31 67
-22 74 -45 125 -56 125 -6 0 -17 -15 -24 -32z m35 -73 c4 -21 1 -25 -18 -25
-25 0 -28 7 -18 34 9 24 31 19 36 -9z"/>
<path d="M3175 5150 c-8 -14 3 -30 21 -30 8 0 14 9 14 20 0 21 -24 28 -35 10z"/>
<path d="M3515 5138 c-48 -38 -78 -132 -59 -182 11 -27 58 -19 96 17 66 62 76
187 15 187 -14 0 -37 -10 -52 -22z m65 -24 c0 -7 -5 -25 -12 -41 -6 -15 -12
-30 -13 -33 -2 -11 -36 -70 -39 -70 -3 0 -11 -3 -20 -6 -12 -5 -15 0 -12 23
12 94 55 174 82 152 8 -6 14 -17 14 -25z"/>
<path d="M2916 5104 c-14 -25 -28 -61 -32 -80 -3 -19 -10 -34 -15 -34 -5 0 -9
-7 -9 -16 0 -13 3 -14 14 -5 11 9 15 7 19 -9 3 -11 13 -20 24 -20 26 0 59 25
45 34 -6 3 -13 2 -17 -4 -3 -5 -13 -10 -21 -10 -21 0 -17 44 7 66 48 43 67
124 30 124 -12 0 -28 -16 -45 -46z m28 -26 c-14 -20 -15 -20 -9 -3 4 11 10 29
13 40 5 17 7 18 10 3 2 -10 -4 -28 -14 -40z"/>
<path d="M3056 5085 c-28 -28 -19 -62 22 -84 27 -15 29 -31 2 -31 -11 0 -20 5
-20 10 0 6 -4 10 -10 10 -5 0 -10 -12 -10 -26 0 -23 3 -25 43 -22 39 3 42 5
45 36 3 27 -2 35 -27 50 -32 18 -42 42 -17 42 8 0 17 -7 20 -16 8 -22 26 -7
22 18 -4 27 -48 35 -70 13z"/>
<path d="M3180 5093 c-12 -3 -15 -20 -15 -77 l0 -73 55 -1 c30 0 61 4 70 8 10
6 11 10 3 10 -17 0 -17 82 -1 98 22 22 28 12 28 -53 l0 -65 32 0 c29 0 30 1
15 18 -20 21 -22 53 -6 69 9 9 6 19 -10 42 -24 34 -29 35 -51 21 -8 -5 -17 -5
-20 -1 -3 5 -16 4 -30 -1 -15 -6 -20 -12 -12 -15 7 -3 12 -25 12 -59 0 -47 -2
-54 -20 -54 -18 0 -20 7 -20 64 0 66 -4 75 -30 69z"/>
<path d="M3855 5049 c-8 -35 6 -51 39 -47 32 5 43 34 22 57 -28 31 -53 27 -61
-10z m53 -12 c2 -12 -3 -17 -17 -17 -12 0 -21 6 -21 13 0 31 32 34 38 4z"/>
<path d="M2170 4959 c0 -24 23 -21 28 4 2 10 -3 17 -12 17 -10 0 -16 -9 -16
-21z"/>
<path d="M13050 4873 c-19 -8 -48 -22 -65 -31 -16 -8 -68 -35 -115 -59 -47
-24 -90 -48 -97 -53 -7 -6 -15 -10 -18 -10 -7 0 -407 -197 -420 -207 -5 -5
-57 -30 -115 -57 -58 -27 -106 -53 -108 -58 -2 -4 -8 -8 -13 -8 -5 0 -98 -43
-206 -97 -109 -53 -299 -145 -423 -205 -124 -60 -232 -114 -240 -119 -8 -5
-58 -30 -110 -55 -52 -25 -104 -50 -115 -57 -11 -6 -47 -24 -80 -39 -33 -16
-73 -36 -90 -45 -16 -9 -66 -33 -110 -54 -44 -22 -100 -50 -125 -63 -25 -13
-178 -90 -340 -170 -162 -81 -313 -157 -335 -168 -22 -11 -60 -31 -85 -44 -25
-12 -207 -102 -405 -199 -198 -97 -376 -185 -395 -196 -19 -11 -64 -33 -100
-49 -36 -17 -83 -40 -105 -51 -80 -41 -151 -77 -195 -98 -25 -11 -52 -25 -60
-30 -13 -9 -295 -145 -390 -190 -29 -13 -97 -54 -108 -65 -1 -2 13 -34 32 -72
54 -109 116 -244 116 -255 0 -5 5 -9 11 -9 5 0 7 -4 4 -10 -3 -5 -2 -10 4 -10
5 0 12 -10 16 -22 11 -42 70 -162 88 -180 9 -10 17 -22 17 -28 0 -12 81 -193
89 -200 4 -3 22 -39 40 -80 19 -41 80 -170 137 -286 57 -116 104 -216 104
-222 0 -6 15 -37 34 -69 19 -32 44 -80 55 -108 42 -96 82 -172 101 -193 20
-21 22 -21 63 -5 23 9 49 22 58 30 8 7 19 13 23 13 13 0 183 69 261 105 39 18
104 45 145 60 41 16 84 34 95 41 12 8 50 24 85 38 137 51 160 61 160 69 0 4 5
5 11 1 6 -3 14 -2 18 3 3 6 53 28 111 51 58 23 137 57 177 77 39 19 76 35 82
35 6 0 36 11 68 26 32 14 60 25 63 25 3 1 10 5 15 9 6 5 44 21 85 36 41 14 80
30 85 34 6 4 25 11 43 15 18 4 36 13 39 21 3 8 10 14 17 14 15 0 163 59 246
97 36 17 76 34 90 38 25 8 96 38 176 76 22 10 44 19 48 19 4 0 37 14 73 30 35
17 69 30 74 30 5 0 47 18 93 40 46 22 88 40 93 40 12 0 96 35 133 55 14 7 55
24 90 38 36 13 94 38 130 55 82 38 236 102 246 102 4 0 38 16 75 35 38 19 74
35 81 35 7 0 40 14 73 30 70 35 278 120 294 120 6 0 11 4 11 9 0 5 10 13 23
16 35 11 184 73 285 121 51 24 100 44 107 44 13 0 15 26 16 153 0 83 2 646 4
1249 2 604 1 1099 -3 1101 -4 3 -23 -2 -42 -10z m15 -224 c-3 -105 -5 -195 -5
-200 0 -10 -41 -4 -117 18 -60 16 -182 93 -232 146 l-34 37 56 25 c31 13 74
35 94 48 21 13 69 36 106 52 37 16 71 34 75 40 4 7 14 15 22 18 41 15 41 15
35 -184z m-391 -53 c30 -32 125 -99 190 -133 17 -9 67 -26 111 -37 l80 -21 5
-100 c3 -55 6 -500 5 -990 l0 -890 -360 -6 c-198 -4 -1017 -7 -1820 -8 -803
-1 -1665 -2 -1915 -3 -613 -2 -790 0 -790 11 0 5 15 14 33 21 17 7 65 27 105
46 40 19 77 34 82 34 4 0 10 4 12 8 2 5 50 31 108 58 58 27 111 54 118 61 7 7
18 13 24 13 12 0 179 81 188 91 3 3 28 15 55 28 94 43 160 76 165 83 3 4 24
15 45 24 76 31 150 64 165 74 27 17 194 97 218 104 12 4 22 12 22 17 0 5 5 9
10 9 11 0 397 189 415 203 19 15 196 97 210 97 7 0 15 7 19 15 3 8 13 15 23
15 10 0 41 14 68 30 28 16 58 30 68 30 9 0 26 9 37 20 11 11 25 20 31 20 9 0
32 11 159 76 19 9 38 22 42 28 5 7 8 7 8 1 0 -7 3 -7 8 0 9 13 138 75 155 75
7 0 22 8 33 18 10 10 66 40 124 67 58 27 107 52 108 57 2 4 10 8 19 8 8 0 45
15 81 34 37 18 123 61 192 95 69 34 132 67 140 74 8 6 15 10 15 8 0 -2 36 14
80 34 44 21 87 41 95 45 8 4 49 25 90 47 41 22 92 46 113 53 21 6 41 18 44 26
3 8 9 14 15 14 15 0 135 57 432 207 154 78 283 142 285 142 2 1 18 -14 35 -33z
m266 -2234 c-36 -15 -87 -39 -115 -53 -27 -15 -68 -32 -90 -39 -22 -7 -65 -25
-95 -41 -30 -15 -98 -44 -150 -65 -52 -20 -108 -44 -125 -54 -16 -10 -41 -21
-55 -25 -26 -7 -131 -51 -215 -90 -27 -13 -75 -33 -105 -45 -30 -12 -71 -29
-90 -38 -19 -8 -37 -16 -40 -17 -3 -1 -31 -14 -63 -28 -32 -15 -62 -27 -66
-27 -5 0 -52 -20 -104 -45 -53 -25 -99 -45 -104 -45 -11 0 -122 -45 -198 -80
-33 -16 -82 -35 -109 -44 -26 -9 -76 -30 -110 -47 -76 -38 -253 -109 -272
-109 -8 0 -14 -4 -14 -9 0 -5 -44 -26 -97 -46 -54 -21 -134 -54 -178 -75 -44
-21 -98 -43 -120 -50 -22 -7 -71 -27 -110 -45 -38 -17 -114 -49 -167 -70 -54
-21 -98 -42 -98 -47 0 -4 -5 -8 -11 -8 -15 0 -176 -64 -266 -106 -39 -19 -93
-41 -120 -50 -26 -9 -79 -31 -118 -49 -38 -18 -106 -48 -150 -65 -44 -18 -107
-44 -140 -60 -33 -15 -94 -40 -135 -55 -41 -16 -88 -37 -105 -47 -16 -10 -37
-18 -45 -18 -9 1 -43 60 -90 157 -41 86 -92 191 -112 234 -21 42 -38 82 -38
87 0 6 -6 17 -13 24 -7 7 -20 31 -29 53 -21 52 -81 179 -88 185 -3 3 -20 39
-39 80 -59 130 -162 344 -182 380 -11 19 -38 73 -60 120 -45 93 -180 372 -184
380 -2 3 952 7 2118 8 1167 2 2123 5 2124 6 2 1 146 3 320 4 l318 1 -65 -27z"/>
<path d="M12716 4347 c-43 -35 -66 -114 -50 -174 5 -17 14 -23 36 -23 59 0
113 91 106 178 -3 33 -6 37 -33 40 -20 2 -40 -6 -59 -21z m62 -34 c-3 -39 -21
-52 -55 -39 -14 6 -13 9 1 31 9 14 13 25 9 25 -13 0 21 20 35 20 9 0 12 -12
10 -37z m-18 -77 c0 -23 -45 -70 -58 -62 -13 8 -16 35 -6 60 8 21 64 22 64 2z"/>
<path d="M3566 4391 c-39 -26 -64 -68 -72 -118 -10 -66 1 -93 36 -93 45 0 87
44 104 110 15 60 10 87 -20 107 -16 10 -24 9 -48 -6z m44 -40 c0 -39 -20 -68
-40 -56 -16 10 -12 -7 6 -19 13 -10 13 -16 3 -38 -13 -30 -37 -44 -52 -29 -8
8 -5 45 8 94 2 4 3 11 4 16 2 14 51 71 62 71 5 0 9 -17 9 -39z"/>
<path d="M1965 4391 c-20 -4 -26 -9 -17 -14 8 -6 12 -35 12 -87 0 -65 -3 -81
-17 -89 -14 -8 1 -10 57 -11 82 0 91 3 109 38 10 20 10 27 -3 40 -10 12 -13
29 -9 58 3 27 1 43 -8 51 -19 14 -87 22 -124 14z m90 -51 c0 -21 -5 -26 -31
-28 -27 -3 -30 0 -28 20 1 13 3 27 3 31 1 5 13 7 29 5 21 -2 27 -8 27 -28z
m-3 -67 c36 -32 18 -63 -38 -63 -21 0 -24 4 -24 40 0 34 3 40 22 40 12 0 30
-7 40 -17z"/>
<path d="M2925 4370 c-3 -11 -13 -27 -21 -35 -8 -8 -18 -32 -21 -52 -3 -21
-13 -47 -22 -57 -15 -18 -15 -19 1 -13 11 4 19 0 23 -14 8 -23 47 -26 65 -4
16 20 5 32 -14 16 -17 -14 -36 -7 -36 12 0 7 13 29 30 49 34 41 53 85 46 105
-8 20 -44 15 -51 -7z m19 -44 c-10 -20 -22 -36 -27 -36 -5 0 -4 7 3 15 7 9 10
18 7 21 -3 3 2 14 11 25 23 27 25 17 6 -25z"/>
<path d="M3060 4320 c-40 -40 -19 -140 29 -140 20 0 71 40 71 56 0 19 -16 18
-24 -1 -7 -20 -52 -19 -60 1 -11 27 -7 61 9 74 12 10 16 9 21 -4 6 -16 44 -23
44 -8 0 14 -35 42 -53 42 -9 0 -26 -9 -37 -20z"/>
<path d="M3220 4333 c-30 -11 -50 -37 -50 -65 0 -81 64 -115 117 -62 21 21 24
32 19 62 -8 53 -44 80 -86 65z m44 -39 c11 -28 6 -71 -9 -84 -25 -20 -45 5
-45 56 0 40 2 44 24 44 13 0 27 -7 30 -16z"/>
<path d="M3339 4314 l-24 -26 38 -33 c22 -19 36 -39 32 -44 -10 -17 -22 -13
-45 12 l-22 22 4 -30 c3 -33 27 -42 75 -30 20 5 24 11 21 38 -2 21 -11 35 -26
43 -39 19 -48 32 -27 40 11 5 22 1 30 -9 13 -19 25 -12 25 14 0 9 -10 19 -22
23 -33 8 -32 9 -59 -20z"/>
<path d="M3921 4306 c-8 -10 -11 -26 -7 -42 5 -20 12 -25 34 -22 24 3 27 7 27
38 0 28 -4 36 -21 38 -11 2 -26 -4 -33 -12z m39 -27 c0 -24 -23 -21 -28 4 -2
10 3 17 12 17 10 0 16 -9 16 -21z"/>
<path d="M2157 4223 c-9 -9 -9 -43 1 -43 18 1 34 19 29 34 -7 17 -19 21 -30 9z"/>
<path d="M3165 3621 c-8 -15 3 -31 21 -31 9 0 14 7 12 17 -4 20 -24 28 -33 14z"/>
<path d="M4204 3619 c-26 -13 -56 -62 -71 -119 -10 -37 -9 -49 4 -77 20 -42
41 -42 86 2 56 54 79 173 38 195 -23 12 -29 12 -57 -1z m46 -47 c0 -34 -16
-52 -47 -52 -27 0 -31 25 -7 58 23 33 54 29 54 -6z m-20 -85 c0 -18 -49 -68
-61 -62 -10 7 -12 58 -2 68 12 12 63 7 63 -6z"/>
<path d="M1971 3598 c-46 -49 -47 -122 -1 -168 27 -27 100 -28 123 -2 27 30
20 46 -9 23 -33 -26 -55 -26 -84 -3 -37 30 -29 135 11 147 31 10 67 -2 74 -25
10 -32 27 -23 23 13 -3 32 -4 32 -60 35 -48 3 -59 0 -77 -20z"/>
<path d="M2929 3603 c-26 -32 -49 -81 -49 -102 0 -12 -8 -33 -17 -48 -14 -21
-14 -25 -3 -21 8 2 21 -4 30 -14 13 -16 20 -18 43 -9 37 14 35 32 -3 25 -40
-9 -40 15 1 66 35 43 52 120 27 120 -8 0 -21 -8 -29 -17z m10 -57 c-7 -19 -16
-33 -20 -30 -5 3 -1 20 8 39 21 44 29 38 12 -9z"/>
<path d="M3504 3606 c-11 -8 -28 -34 -38 -58 -10 -24 -22 -51 -27 -60 -14 -27
-11 -40 14 -72 l23 -28 33 20 c62 38 103 124 87 186 -5 21 -12 26 -39 26 -18
0 -42 -6 -53 -14z m66 -34 c0 -15 -5 -33 -12 -40 -13 -13 -68 -17 -68 -4 0 4
9 22 20 40 26 42 60 44 60 4z m-30 -82 c0 -20 -35 -67 -47 -63 -7 3 -13 20
-13 39 0 31 3 34 30 34 17 0 30 -4 30 -10z"/>
<path d="M3720 3591 c0 -5 -6 -16 -13 -23 -17 -17 -6 -139 14 -160 11 -13 16
-12 33 4 19 17 20 17 41 -2 20 -19 22 -19 38 -3 16 16 18 16 30 -1 10 -13 16
-15 21 -8 4 7 22 12 41 12 l34 0 3 58 c3 49 6 57 23 57 18 0 20 -7 20 -58 0
-52 2 -57 22 -57 20 0 21 3 16 58 -6 68 -32 104 -58 82 -12 -10 -18 -11 -24
-2 -7 12 -51 5 -51 -9 0 -5 5 -9 10 -9 11 0 14 -93 4 -103 -13 -13 -34 23 -34
58 0 65 -30 90 -84 69 -18 -7 -22 -44 -6 -60 10 -10 -32 -64 -50 -64 -6 0 -10
25 -10 56 0 31 4 53 9 49 5 -3 12 -1 16 5 3 6 -1 13 -9 16 -9 3 -16 15 -16 25
0 10 -4 19 -10 19 -5 0 -10 -4 -10 -9z m130 -70 c0 -10 -7 -22 -16 -25 -22 -8
-24 -5 -17 22 7 27 33 29 33 3z m-14 -89 c-15 -15 -16 -14 -16 10 0 14 6 28
13 31 19 6 21 -23 3 -41z"/>
<path d="M3040 3540 c-14 -27 -5 -54 25 -74 31 -20 34 -46 5 -39 -11 3 -20 12
-20 19 0 8 -4 14 -10 14 -5 0 -10 -11 -10 -25 0 -18 5 -25 19 -25 11 0 22 -6
24 -12 4 -10 6 -10 6 0 1 6 10 12 20 12 10 0 21 6 24 14 6 16 -2 56 -12 56
-17 1 -53 39 -46 49 5 9 14 6 32 -11 l25 -23 -4 30 c-2 26 -8 30 -35 33 -24 2
-34 -2 -43 -18z"/>
<path d="M3161 3551 c-10 -7 -11 -13 -1 -30 11 -22 9 -78 -4 -100 -5 -7 2 -11
18 -11 26 0 26 1 26 75 0 76 -6 87 -39 66z"/>
<path d="M3236 3548 c-13 -7 -15 -13 -6 -24 7 -7 10 -35 8 -64 -3 -46 -1 -50
20 -50 20 0 22 4 22 60 0 46 3 60 15 60 19 0 29 -41 22 -86 -5 -30 -3 -34 16
-34 21 0 22 3 17 63 -3 34 -9 67 -13 74 -9 14 -76 15 -101 1z"/>
<path d="M4560 3505 c0 -32 2 -35 30 -35 28 0 30 3 30 35 0 32 -2 35 -30 35
-28 0 -30 -3 -30 -35z m40 -1 c0 -17 -22 -14 -28 4 -2 7 3 12 12 12 9 0 16 -7
16 -16z"/>
<path d="M2147 3443 c-14 -13 -6 -33 13 -33 11 0 20 4 20 9 0 13 -26 32 -33
24z"/>
<path d="M2952 2797 c-16 -19 -42 -95 -42 -122 0 -12 -7 -28 -15 -35 -8 -7
-15 -16 -15 -21 0 -5 7 -6 15 -3 8 4 15 1 15 -5 0 -5 10 -15 21 -22 17 -9 25
-8 37 5 19 19 8 34 -13 16 -23 -19 -32 17 -12 49 32 49 58 112 55 129 -4 22
-31 27 -46 9z m8 -74 c-14 -26 -19 -30 -15 -13 12 50 29 86 33 68 2 -9 -6 -34
-18 -55z"/>
<path d="M3551 2776 c-56 -58 -73 -174 -28 -192 7 -2 29 2 49 10 27 12 40 26
57 65 52 122 1 199 -78 117z m64 -27 c0 -31 -3 -34 -32 -37 -39 -4 -43 13 -12
52 27 34 44 29 44 -15z m-20 -86 c-9 -37 -23 -53 -47 -53 -24 0 -31 20 -19 53
8 21 17 27 42 27 29 0 31 -2 24 -27z"/>
<path d="M3082 2755 c-17 -20 -21 -30 -13 -38 6 -6 11 -37 11 -69 0 -52 2 -58
21 -58 11 0 29 5 40 10 11 6 19 7 19 1 0 -17 93 -19 113 -3 9 9 13 18 8 21 -5
3 -10 24 -12 46 -4 63 -15 77 -56 73 -41 -3 -65 -30 -45 -50 10 -10 14 -8 19
10 3 14 12 22 21 20 26 -5 24 -25 -2 -32 -14 -3 -30 -15 -36 -25 -13 -25 -39
-51 -51 -51 -5 0 -9 24 -9 54 0 47 3 55 23 61 l22 8 -22 4 c-12 2 -23 13 -25
25 -3 19 -4 18 -26 -7z m139 -124 c-7 -12 -16 -21 -21 -21 -15 0 -12 48 3 53
20 7 30 -9 18 -32z"/>
<path d="M3298 2733 c-19 -5 -25 -23 -8 -23 14 0 12 -94 -2 -108 -9 -9 -5 -12
17 -12 30 0 30 0 30 57 0 53 2 58 23 61 20 3 22 0 22 -51 0 -35 -5 -57 -12
-60 -7 -3 5 -6 27 -6 30 -1 36 2 27 11 -7 7 -12 35 -12 64 0 63 -19 86 -53 65
-15 -10 -22 -11 -25 -2 -4 11 -6 12 -34 4z"/>
<path d="M1930 2600 c0 -5 5 -10 10 -10 6 0 10 -37 10 -90 0 -53 -4 -90 -10
-90 -5 0 -10 -5 -10 -11 0 -8 21 -10 65 -7 51 3 70 9 91 28 39 37 47 67 33
119 -10 34 -19 46 -45 57 -38 16 -144 19 -144 4z m131 -29 c20 -16 24 -28 23
-69 0 -53 -16 -79 -50 -82 -43 -5 -44 -3 -44 85 0 83 1 85 24 85 13 0 34 -9
47 -19z"/>
<path d="M3941 2516 c-29 -35 18 -76 54 -46 16 14 16 50 -1 50 -7 0 -19 2 -27
5 -7 3 -19 -1 -26 -9z m39 -27 c0 -5 -7 -9 -15 -9 -15 0 -20 12 -9 23 8 8 24
-1 24 -14z"/>
<path d="M7827 2486 c3 -13 -2 -39 -10 -57 -9 -19 -21 -53 -27 -76 -6 -24 -15
-43 -20 -43 -6 0 -10 -4 -10 -10 0 -16 109 -11 146 6 52 25 74 59 74 115 0 69
-22 89 -99 89 -56 0 -58 -1 -54 -24z m115 -19 c4 -6 8 -29 8 -49 0 -47 -47
-98 -90 -98 -37 0 -43 11 -25 46 8 16 15 36 15 45 0 9 5 31 11 48 11 30 15 32
42 27 17 -4 35 -12 39 -19z"/>
<path d="M2840 2480 c0 -6 83 -10 228 -10 125 -1 292 -1 372 -1 233 -1 252 0
245 11 -4 6 -157 10 -426 10 -273 0 -419 -3 -419 -10z"/>
<path d="M13179 2451 c12 -8 12 -19 -4 -78 -10 -37 -27 -80 -37 -95 l-19 -28
60 0 c33 0 72 5 86 12 32 14 43 53 21 76 -14 17 -14 19 4 35 48 41 10 87 -71
87 -36 0 -49 -3 -40 -9z m88 -22 c17 -17 4 -47 -24 -54 -33 -8 -35 -4 -22 33
11 33 27 40 46 21z m-19 -107 c4 -28 -14 -52 -39 -52 -20 0 -24 17 -13 58 9
31 48 26 52 -6z"/>
<path d="M2160 2410 c0 -11 7 -20 15 -20 8 0 15 9 15 20 0 11 -7 20 -15 20 -8
0 -15 -9 -15 -20z"/>
<path d="M3469 2348 c-38 -41 -59 -90 -59 -137 0 -44 14 -61 50 -61 34 1 53
17 78 65 63 124 12 220 -69 133z m61 -33 c0 -45 0 -45 -35 -45 -19 0 -35 2
-35 5 0 13 51 85 60 85 6 0 10 -20 10 -45z m-15 -77 c-11 -36 -34 -68 -50 -68
-21 0 -27 16 -19 55 6 32 9 35 41 35 31 0 34 -2 28 -22z"/>
<path d="M3015 2302 c-36 -7 -55 -33 -55 -74 0 -70 71 -106 106 -53 9 14 13
29 9 33 -4 4 -10 1 -12 -5 -3 -7 -17 -13 -33 -13 -23 0 -29 5 -33 30 -11 54
20 82 48 43 13 -17 35 -10 35 11 0 16 -39 33 -65 28z"/>
<path d="M3106 2278 c-23 -33 -19 -64 12 -99 24 -27 33 -30 59 -25 50 11 73
95 35 129 -28 25 -87 22 -106 -5z m82 -47 c4 -51 -13 -69 -40 -44 -21 19 -24
79 -5 86 30 13 42 1 45 -42z"/>
<path d="M3267 2293 c-16 -16 -5 -50 25 -75 26 -21 30 -29 21 -39 -10 -10 -16
-9 -31 4 -25 23 -32 21 -32 -8 0 -19 5 -25 23 -25 44 0 67 12 74 38 5 21 0 31
-33 59 -35 29 -37 33 -16 33 13 0 22 -6 22 -15 0 -8 5 -15 10 -15 6 0 10 11
10 25 0 22 -4 25 -33 25 -19 0 -37 -3 -40 -7z"/>
<path d="M8915 528 c-43 -15 -60 -33 -75 -78 -20 -60 1 -117 46 -129 38 -11
71 -5 97 17 25 22 21 36 -5 18 -30 -21 -71 -20 -91 2 -31 35 -25 82 17 126 42
45 73 47 87 6 6 -16 15 -30 20 -30 8 0 14 23 10 44 -1 5 4 13 11 17 9 6 7 9
-8 9 -12 0 -34 2 -50 5 -16 2 -42 -1 -59 -7z"/>
</g>
</svg>
