<?xml version="1.0" standalone="no"?>
<!DOCTYPE svg PUBLIC "-//W3C//DTD SVG 20010904//EN"
 "http://www.w3.org/TR/2001/REC-SVG-20010904/DTD/svg10.dtd">
<svg version="1.0" xmlns="http://www.w3.org/2000/svg"
 width="1477.000000pt" height="560.000000pt" viewBox="0 0 1477.000000 560.000000"
 preserveAspectRatio="xMidYMid meet">
<metadata>
Created by potrace 1.16, written by Peter Selinger 2001-2019
</metadata>
<g transform="translate(0.000000,560.000000) scale(0.100000,-0.100000)"
fill="#000000" stroke="none">
<path d="M1544 5289 c-3 -6 -3 -21 0 -34 3 -13 1 -27 -4 -30 -7 -4 -7 -11 -2
-18 5 -7 9 -29 9 -49 l1 -38 -44 0 -44 0 0 38 c0 21 4 42 10 48 6 6 3 14 -10
22 -19 12 -20 9 -20 -63 l0 -75 28 6 c29 7 28 7 55 5 14 -1 17 -11 17 -56 0
-42 3 -55 15 -55 12 0 15 13 15 58 0 57 0 58 28 56 15 -1 39 -5 55 -9 l27 -7
0 71 0 71 -27 -6 c-34 -8 -42 -14 -20 -14 13 0 17 -10 17 -45 l0 -45 -40 0
-40 0 0 45 c0 40 3 45 23 46 l22 0 -24 10 c-19 8 -22 14 -18 38 6 30 -15 52
-29 30z"/>
<path d="M1110 5158 c0 -71 -1 -131 -2 -134 -2 -3 54 -6 124 -7 l127 -2 3 133
c2 72 1 132 -2 132 -3 1 -60 2 -128 3 l-122 2 0 -127z m68 67 c2 -16 9 -33 15
-37 7 -5 3 -8 -10 -8 -41 0 -53 11 -53 47 0 30 3 34 23 31 16 -2 23 -11 25
-33z m92 25 c0 -5 -15 -10 -34 -10 -19 0 -38 5 -41 10 -4 6 10 10 34 10 23 0
41 -4 41 -10z m60 -24 c0 -31 -3 -34 -36 -41 -20 -3 -39 -4 -42 -1 -3 3 2 6
10 6 17 0 28 20 28 51 0 12 7 19 20 19 16 0 20 -7 20 -34z m-70 -6 c0 -5 -16
-10 -36 -10 -21 0 -33 4 -29 10 3 6 19 10 36 10 16 0 29 -4 29 -10z m-110
-120 c0 -40 -4 -70 -10 -70 -6 0 -10 30 -10 70 0 40 4 70 10 70 6 0 10 -30 10
-70z m136 63 c-10 -10 -88 -11 -106 -2 -9 5 10 9 49 9 35 0 61 -3 57 -7z m44
-62 l0 -68 -72 1 c-41 0 -73 5 -73 11 0 6 24 8 58 6 l57 -3 2 49 c0 26 1 54 1
61 -1 6 5 12 13 12 11 0 14 -17 14 -69z m-140 9 c0 -16 -4 -30 -10 -30 -5 0
-10 14 -10 30 0 17 5 30 10 30 6 0 10 -13 10 -30z m100 -11 c0 -17 -5 -29 -13
-29 -9 0 -12 11 -9 35 5 41 22 37 22 -6z m-52 9 c-2 -6 -10 -14 -16 -16 -7 -2
-10 2 -6 12 7 18 28 22 22 4z m5 -35 c-7 -2 -21 -2 -30 0 -10 3 -4 5 12 5 17
0 24 -2 18 -5z"/>
<path d="M273 5262 c-22 -3 -33 -22 -13 -22 6 0 10 -35 10 -85 0 -53 -4 -85
-11 -85 -5 0 -7 -4 -4 -10 7 -12 65 -14 65 -2 0 4 -4 12 -10 18 -5 5 -10 50
-12 99 -3 87 -4 90 -25 87z"/>
<path d="M402 5231 c-12 -21 -22 -41 -22 -44 0 -2 13 -7 30 -10 16 -4 37 -18
46 -33 25 -37 9 -59 -42 -59 -28 0 -39 -4 -39 -15 0 -17 35 -25 71 -16 62 16
63 127 2 148 -26 9 -28 12 -14 20 9 5 22 8 29 5 11 -4 36 20 37 36 0 4 -17 7
-38 7 -34 0 -41 -4 -60 -39z"/>
<path d="M2443 5232 c-11 -20 -49 -70 -82 -110 -47 -56 -58 -74 -46 -78 22 -9
46 3 39 20 -6 16 31 46 58 46 22 0 23 -23 3 -44 -14 -13 -12 -16 20 -22 34 -6
63 4 38 13 -15 6 -16 56 -3 138 12 73 2 86 -27 37z m-13 -82 c0 -11 -7 -20
-15 -20 -13 0 -14 4 -5 20 6 11 13 20 15 20 3 0 5 -9 5 -20z"/>
<path d="M3888 5264 c-4 -3 -45 -6 -92 -6 -47 0 -86 -4 -86 -9 0 -5 14 -9 30
-9 25 0 30 -4 30 -24 0 -59 -22 -133 -50 -168 -36 -45 -39 -66 -6 -41 32 24
59 69 66 113 l5 35 28 -49 c15 -27 24 -53 20 -57 -5 -4 -30 -19 -58 -34 l-50
-26 37 5 c20 2 50 14 66 26 l30 22 50 -27 c46 -25 72 -27 72 -6 0 7 -8 12 -50
25 -3 1 -14 7 -25 13 -20 12 -20 12 -1 45 10 18 27 42 38 54 22 24 15 34 -24
34 -31 0 -36 17 -16 50 12 19 0 48 -14 34z m-18 -36 c-1 -41 -12 -56 -43 -54
-32 2 -45 21 -33 52 7 18 76 20 76 2z m35 -78 c7 -11 -31 -70 -45 -70 -11 0
-50 67 -43 74 10 10 81 7 88 -4z"/>
<path d="M2557 5254 c-3 -3 -3 -12 -1 -19 7 -18 -33 -169 -46 -173 -5 -2 -10
-8 -10 -13 0 -10 83 -10 120 0 32 9 49 54 31 83 -11 17 -10 22 8 35 29 19 27
57 -4 77 -24 16 -86 22 -98 10z m81 -58 c-2 -13 -12 -22 -25 -24 -18 -3 -23 1
-23 20 0 13 5 29 12 36 16 16 40 -5 36 -32z m-22 -67 c23 -26 9 -53 -30 -57
-27 -3 -28 -2 -21 30 12 56 21 60 51 27z"/>
<path d="M3180 5247 c0 -10 -7 -20 -15 -23 -8 -4 -15 -11 -15 -18 0 -6 -9 -17
-20 -24 -11 -7 -20 -17 -20 -23 0 -12 -56 -87 -80 -106 -13 -10 -10 -12 18
-13 21 0 32 5 31 13 -5 27 14 47 42 47 22 0 29 -5 29 -20 0 -12 -10 -24 -22
-30 -19 -7 -14 -9 26 -9 42 -1 47 1 36 14 -9 11 -9 34 0 101 8 61 8 90 1 97
-8 8 -11 6 -11 -6z m-20 -86 c0 -19 -26 -48 -36 -39 -7 7 17 58 28 58 4 0 8
-8 8 -19z"/>
<path d="M3270 5246 c0 -8 4 -17 9 -20 10 -7 -19 -118 -34 -128 -5 -4 -6 -8
-1 -8 5 0 -1 -11 -13 -24 l-23 -24 64 -4 c95 -5 115 0 123 29 8 34 -2 42 -21
15 -11 -16 -25 -22 -55 -22 -43 0 -42 -4 -23 60 3 11 12 20 20 20 8 0 14 -9
14 -20 0 -34 17 -22 23 17 7 43 3 51 -18 33 -22 -18 -31 -5 -19 28 8 22 15 27
39 25 17 -2 35 -10 41 -18 10 -13 12 -12 16 10 7 34 -7 42 -79 44 -51 2 -63
-1 -63 -13z"/>
<path d="M8980 5241 c0 -18 -6 -21 -45 -21 -25 0 -45 -4 -45 -10 0 -5 20 -10
45 -10 34 0 45 -4 45 -16 0 -9 6 -14 13 -11 6 2 11 10 10 16 -2 6 11 11 31 11
26 0 35 -5 39 -21 6 -23 27 -17 27 7 0 10 13 14 46 14 32 0 44 4 41 13 -3 8
-20 11 -48 9 -24 -2 -40 0 -37 4 7 6 -15 34 -26 34 -3 0 -6 -9 -6 -20 0 -15
-7 -20 -29 -20 -21 0 -28 5 -27 17 0 10 -7 19 -16 21 -13 2 -18 -3 -18 -17z"/>
<path d="M13936 5234 c-4 -10 -13 -13 -26 -9 -18 6 -20 2 -20 -37 0 -24 -5
-49 -11 -55 -6 -6 -13 -25 -15 -42 -3 -27 -1 -31 21 -31 31 0 33 -23 3 -44
-29 -20 -49 -4 -46 38 2 42 -9 61 -27 46 -8 -7 -19 -9 -25 -5 -5 3 -10 1 -10
-4 0 -6 6 -11 14 -11 7 0 16 -12 19 -27 5 -22 0 -33 -18 -48 -18 -15 -22 -24
-14 -35 8 -13 11 -13 20 3 12 21 28 22 65 2 39 -20 177 -21 193 -1 10 12 6 13
-29 9 l-40 -6 15 29 c8 16 15 35 15 42 0 6 7 12 15 12 17 0 20 16 4 25 -7 5
-4 14 7 26 17 19 17 20 -5 26 -21 5 -22 10 -16 50 l7 45 -30 -7 c-22 -4 -31
-2 -35 9 -8 20 -23 20 -31 0z m47 -31 c-13 -2 -35 -2 -50 0 -16 2 -5 4 22 4
28 0 40 -2 28 -4z m0 -20 c-13 -2 -35 -2 -50 0 -16 2 -5 4 22 4 28 0 40 -2 28
-4z m-43 -43 c0 -5 -7 -10 -15 -10 -8 0 -15 5 -15 10 0 6 7 10 15 10 8 0 15
-4 15 -10z m60 0 c0 -5 -7 -10 -15 -10 -8 0 -15 5 -15 10 0 6 7 10 15 10 8 0
15 -4 15 -10z m-90 -29 c0 -5 -7 -12 -16 -15 -14 -5 -15 -4 -4 9 14 17 20 19
20 6z m55 -1 c3 -6 -4 -10 -17 -10 -18 0 -20 2 -8 10 19 12 18 12 25 0z m25
-85 c0 -10 -10 -15 -27 -15 -26 0 -26 -1 -7 -15 19 -14 19 -14 -1 -15 -11 0
-30 3 -42 6 l-21 6 21 24 c24 27 77 34 77 9z"/>
<path d="M4458 5223 c-8 -10 -33 -35 -54 -55 -22 -20 -55 -53 -74 -72 -19 -20
-38 -36 -42 -36 -4 0 -8 -7 -8 -15 0 -12 18 -15 105 -15 87 0 105 3 105 15 0
12 -16 15 -82 15 l-83 0 83 83 c45 45 82 86 82 90 0 12 -15 8 -32 -10z"/>
<path d="M4580 5230 c0 -5 4 -10 9 -10 8 0 -9 -82 -27 -130 -3 -8 -4 -19 -3
-23 1 -5 -8 -11 -19 -14 -39 -10 -20 -23 34 -23 61 0 95 10 119 35 21 21 21
39 1 59 -14 15 -14 18 7 34 28 23 20 67 -13 76 -37 9 -108 7 -108 -4z m98 -43
c-2 -13 -14 -24 -32 -28 -27 -8 -28 -7 -22 24 3 17 12 34 18 38 17 11 40 -11
36 -34z m-26 -64 c25 -23 23 -36 -11 -56 -52 -30 -56 -24 -34 56 6 21 21 22
45 0z"/>
<path d="M4827 5187 c-20 -28 -57 -74 -82 -101 -25 -26 -45 -50 -45 -52 0 -2
14 -4 31 -4 20 0 29 4 26 13 -8 23 13 47 43 47 23 0 30 -4 30 -20 0 -11 -4
-20 -10 -20 -5 0 -10 -4 -10 -10 0 -5 15 -10 33 -10 l32 0 1 105 c1 58 -2 105
-5 105 -3 0 -23 -24 -44 -53z m13 -45 c0 -21 -5 -28 -20 -28 -24 0 -24 1 -2
31 22 31 22 31 22 -3z"/>
<path d="M4964 5224 c9 -23 -32 -165 -52 -180 -14 -11 -3 -13 68 -14 l86 0 11
29 c14 37 4 49 -17 21 -8 -11 -32 -23 -53 -27 -34 -5 -37 -4 -37 19 0 13 7 33
15 44 15 19 15 19 34 -3 l19 -22 10 41 c13 50 9 57 -16 35 -29 -26 -43 -21
-36 11 4 15 11 32 16 38 5 8 3 14 -8 18 -29 11 -46 7 -40 -10z"/>
<path d="M5030 5230 c0 -4 11 -12 25 -18 14 -6 25 -16 25 -22 0 -6 5 -8 10 -5
6 3 10 17 10 30 0 21 -4 24 -35 23 -19 -1 -35 -4 -35 -8z"/>
<path d="M5598 5206 c-20 -20 -41 -36 -47 -36 -6 0 -11 -4 -11 -9 0 -4 -25
-34 -55 -66 -30 -31 -52 -62 -49 -67 5 -7 40 -9 101 -5 93 5 113 10 100 24 -7
6 -25 8 -121 12 l-30 1 29 30 c16 17 35 30 42 30 7 0 13 4 13 10 0 5 16 28 36
50 46 51 40 74 -8 26z"/>
<path d="M5736 5226 c9 -23 -27 -167 -43 -173 -7 -3 -13 -9 -13 -14 0 -14 112
-10 140 4 27 13 38 55 22 83 -7 12 -4 22 9 35 40 40 15 69 -66 76 -48 4 -54 3
-49 -11z m94 -36 c0 -19 -36 -47 -47 -36 -3 3 -3 17 1 31 8 31 46 36 46 5z
m-16 -84 c9 -14 6 -21 -13 -37 -27 -22 -61 -25 -61 -5 0 8 4 26 10 40 11 30
47 31 64 2z"/>
<path d="M5953 5225 c-35 -15 -73 -77 -73 -118 0 -13 9 -36 21 -51 17 -21 29
-26 65 -26 45 0 98 25 88 41 -3 5 -15 2 -27 -6 -35 -24 -85 -20 -98 9 -27 58
23 146 82 146 22 0 30 -6 35 -25 3 -14 10 -25 14 -25 7 0 20 34 20 55 0 16
-91 16 -127 0z"/>
<path d="M6140 5230 c-14 -4 -19 -8 -11 -9 9 -1 11 -8 7 -23 -4 -13 -14 -50
-22 -83 -9 -33 -24 -65 -33 -73 -13 -11 -3 -12 67 -10 80 3 85 5 113 36 58 65
28 155 -56 165 -22 3 -51 1 -65 -3z m106 -48 c13 -27 3 -87 -19 -109 -8 -8
-32 -17 -55 -20 l-40 -5 20 73 c10 40 22 77 24 81 11 17 58 3 70 -20z"/>
<path d="M6950 5226 c-45 -14 -80 -66 -80 -118 0 -31 6 -46 29 -67 16 -15 38
-27 48 -26 30 3 68 22 83 41 14 16 13 17 -5 9 -11 -5 -39 -10 -62 -13 -38 -4
-44 -1 -52 21 -12 31 2 94 26 119 29 28 75 28 88 0 13 -29 29 -23 33 14 3 27
1 29 -35 30 -21 1 -54 -3 -73 -10z"/>
<path d="M13130 5138 c0 -53 4 -99 9 -102 5 -4 11 -1 13 6 3 8 7 8 11 2 3 -6
-7 -25 -23 -43 -32 -35 -35 -41 -20 -41 19 0 79 61 73 76 -4 10 2 14 21 14 14
0 26 -5 26 -11 0 -6 -6 -9 -14 -6 -10 4 -8 -6 6 -35 13 -27 23 -37 30 -30 6 6
6 17 1 28 -6 11 -7 65 -4 122 3 57 4 107 1 110 -3 4 -33 7 -67 7 l-63 0 0 -97z
m108 55 c2 -9 -9 -13 -37 -13 -30 0 -41 4 -41 16 0 11 9 14 37 12 20 -2 38 -9
41 -15z m2 -53 c0 -17 -7 -20 -40 -20 -33 0 -40 3 -40 20 0 17 7 20 40 20 33
0 40 -3 40 -20z m-6 -55 c-4 -9 -19 -15 -40 -15 -24 0 -34 5 -34 15 0 11 11
15 40 15 31 0 38 -3 34 -15z"/>
<path d="M13360 5115 l0 -125 -25 0 c-14 0 -25 -3 -25 -7 0 -12 47 -31 59 -24
6 4 12 58 15 126 3 66 8 128 11 138 6 13 2 17 -14 17 -20 0 -21 -5 -21 -125z"/>
<path d="M14314 5207 c-18 -18 -44 -43 -58 -57 l-26 -25 0 38 c0 30 4 37 20
37 12 0 20 7 20 16 0 13 -7 15 -31 10 -17 -3 -54 -6 -81 -6 -30 0 -47 -4 -43
-10 3 -5 15 -10 26 -10 28 0 26 -54 -3 -75 l-23 -15 23 -6 c21 -6 31 -24 13
-24 -6 0 -8 -9 -6 -20 2 -11 -5 -36 -17 -56 -22 -37 -18 -55 6 -34 9 6 18 28
21 49 4 20 11 45 16 56 5 11 8 42 6 70 -2 41 1 50 16 53 15 3 17 -8 17 -123 0
-117 1 -127 18 -120 9 3 29 9 44 12 15 3 38 16 50 28 45 45 79 87 74 92 -8 8
-47 -8 -41 -18 4 -5 1 -9 -5 -9 -6 0 -15 -11 -19 -24 -5 -13 -29 -33 -53 -45
l-43 -21 -3 61 c-4 72 2 93 23 85 10 -4 15 1 15 14 0 11 4 20 10 20 16 0 80
61 80 76 0 21 -12 16 -46 -19z"/>
<path d="M6725 5135 c-52 -52 -95 -97 -95 -100 0 -3 45 -5 100 -5 60 0 100 4
100 10 0 6 -32 10 -77 10 l-78 0 83 83 c45 45 82 86 82 90 0 21 -30 -2 -115
-88z"/>
<path d="M7118 5222 c10 -7 7 -26 -12 -92 -13 -47 -29 -86 -36 -88 -8 -3 -8
-8 1 -18 9 -11 15 -11 25 -3 8 6 23 9 34 6 32 -8 96 13 122 40 18 19 23 36 23
75 0 68 -24 88 -109 88 -35 0 -56 -4 -48 -8z m103 -22 c30 -16 27 -93 -6 -125
-30 -31 -102 -37 -90 -7 4 9 14 45 22 80 15 66 29 75 74 52z"/>
<path d="M7336 5206 c7 -30 -22 -147 -41 -162 -20 -15 19 -38 43 -25 10 5 24
6 31 2 36 -22 91 10 91 53 0 19 -1 19 -24 -3 -13 -12 -40 -24 -60 -28 l-36 -6
6 34 c4 19 11 39 16 45 5 7 8 16 6 20 -1 5 2 24 6 42 6 27 12 32 37 32 17 0
32 -6 35 -15 9 -24 24 -17 24 10 0 24 -2 25 -70 25 -69 0 -70 0 -64 -24z"/>
<path d="M7819 5212 c-45 -37 -19 -117 40 -124 l26 -3 -34 -33 c-40 -39 -38
-47 7 -25 37 18 72 77 72 121 0 38 -35 82 -65 82 -12 0 -33 -8 -46 -18z m59
-14 c15 -15 16 -75 1 -84 -13 -8 -48 33 -49 57 0 15 18 39 30 39 3 0 11 -5 18
-12z"/>
<path d="M7987 5215 c-56 -55 -27 -212 36 -199 58 11 85 105 50 174 -20 40
-60 51 -86 25z m53 -44 c0 -9 5 -22 11 -28 8 -8 7 -23 -6 -57 -29 -74 -55 -54
-55 42 0 56 16 88 36 71 8 -6 14 -19 14 -28z"/>
<path d="M8128 5219 c-36 -20 -12 -89 31 -89 10 0 25 8 34 18 42 47 -10 103
-65 71z m57 -39 c0 -18 -33 -26 -47 -12 -6 6 -7 15 -3 22 10 16 50 8 50 -10z"/>
<path d="M13572 5222 c-84 -2 -112 -6 -109 -15 2 -7 22 -12 45 -12 44 0 48 -6
36 -50 -4 -17 -12 -20 -42 -17 -42 5 -39 -6 4 -14 16 -3 29 -6 30 -7 1 -1 -3
-27 -10 -57 -12 -54 -13 -55 -52 -61 -75 -11 -10 -20 121 -17 99 2 129 6 133
17 4 11 -2 13 -27 8 -35 -7 -35 -7 -31 80 l2 53 -47 -3 c-52 -3 -59 2 -51 41
6 26 9 27 68 27 37 0 63 5 65 11 6 17 -12 19 -135 16z m46 -116 c19 -6 22 -14
22 -62 l0 -54 -50 0 c-27 0 -50 4 -50 8 0 5 5 33 11 64 12 57 17 61 67 44z"/>
<path d="M13828 5208 c12 -12 24 -19 28 -15 10 10 -16 37 -34 37 -13 0 -12 -4
6 -22z"/>
<path d="M9538 5207 c12 -14 -19 -159 -39 -183 -16 -20 12 -28 69 -20 72 9
121 78 75 105 -17 9 -16 11 5 26 27 20 29 61 3 75 -11 5 -43 10 -72 10 -41 0
-49 -3 -41 -13z m96 -23 c7 -19 -20 -54 -41 -54 -17 0 -18 56 0 63 23 10 35 7
41 -9z m-16 -103 c4 -26 -12 -41 -45 -41 -24 0 -27 9 -17 48 9 33 58 27 62 -7z"/>
<path d="M9765 5210 c-36 -14 -65 -55 -74 -103 -5 -27 -5 -47 0 -47 5 0 9 -6
9 -14 0 -20 39 -46 67 -46 25 0 93 37 93 51 0 13 -3 12 -49 -13 -41 -22 -42
-22 -60 -2 -11 10 -20 26 -21 34 -10 75 25 130 84 130 28 0 35 -4 38 -22 5
-34 23 -28 26 10 l3 32 -48 -1 c-26 0 -57 -4 -68 -9z"/>
<path d="M10290 5206 c-61 -34 -86 -107 -55 -165 27 -52 95 -58 140 -11 34 35
29 37 -20 10 -45 -25 -53 -25 -76 3 -25 30 -24 77 4 118 19 29 29 34 62 34 34
0 40 -3 43 -22 6 -42 32 -19 32 28 0 16 -7 19 -52 19 -29 -1 -64 -7 -78 -14z"/>
<path d="M10474 5203 c4 -9 -1 -41 -11 -72 -9 -31 -17 -58 -18 -61 -7 -28 -18
-50 -26 -50 -6 0 -7 -4 -4 -10 8 -13 102 -13 110 1 4 6 13 8 21 5 22 -9 73 42
84 85 20 74 -22 119 -114 119 -41 0 -47 -3 -42 -17z m118 -26 c27 -42 -13
-137 -57 -137 -14 0 -25 -4 -25 -10 0 -5 -7 -10 -16 -10 -19 0 -16 37 11 129
16 52 17 53 48 47 17 -3 35 -12 39 -19z"/>
<path d="M11020 5211 c0 -5 5 -11 11 -13 13 -4 1 -52 -27 -115 -8 -17 -14 -36
-14 -42 0 -6 -4 -11 -10 -11 -5 0 -10 -7 -10 -15 0 -33 158 -13 188 24 25 32
48 88 42 102 -21 44 -29 55 -51 66 -28 15 -129 17 -129 4z m128 -40 c18 -21 9
-89 -15 -111 -23 -22 -93 -36 -93 -19 0 11 22 100 36 147 5 17 54 5 72 -17z"/>
<path d="M11244 5209 c-3 -5 0 -9 6 -9 13 0 9 -28 -17 -117 -9 -32 -20 -53
-29 -53 -8 0 -14 -6 -14 -14 0 -11 16 -14 78 -11 42 2 80 3 83 4 7 1 29 48 29
63 0 5 -16 -4 -35 -21 -60 -53 -96 -40 -78 27 5 20 11 23 34 20 23 -4 29 -1
29 13 0 10 5 21 10 24 6 4 8 10 5 15 -3 5 -15 0 -25 -10 -21 -21 -40 -26 -40
-11 0 28 24 71 40 71 29 0 50 -11 50 -26 0 -8 5 -14 10 -14 6 0 10 14 10 30
l0 30 -70 -1 c-39 -1 -73 -5 -76 -10z"/>
<path d="M11740 5208 c-20 -8 -22 -11 -9 -17 23 -9 28 -158 5 -167 -35 -13 13
-25 63 -15 3 1 -3 7 -12 14 -13 9 -17 32 -19 103 l-3 91 -25 -9z"/>
<path d="M11906 5199 c-26 -21 -66 -91 -66 -116 0 -15 29 -64 45 -75 18 -13
41 -9 63 12 42 39 18 129 -30 117 -31 -8 -18 25 19 48 18 11 32 23 33 28 0 15
-38 6 -64 -14z m18 -95 c21 -20 21 -73 1 -81 -33 -12 -59 68 -30 89 13 10 11
10 29 -8z"/>
<path d="M13300 5120 c0 -53 4 -90 10 -90 6 0 10 33 10 78 0 47 5 83 12 90 9
9 7 12 -10 12 -21 0 -22 -4 -22 -90z"/>
<path d="M1879 5188 c-1 -2 -3 -22 -3 -45 -2 -29 2 -43 10 -43 15 0 30 63 19
79 -5 10 -23 15 -26 9z"/>
<path d="M8998 5155 c-7 -15 -20 -25 -32 -25 -21 -1 -21 -1 -2 -15 19 -14 18
-17 -29 -60 -55 -50 -55 -72 -1 -30 l36 27 0 -39 0 -40 75 5 c54 3 75 1 75 -7
0 -7 5 -9 10 -6 6 3 10 25 10 49 0 23 5 47 12 54 14 14 11 15 -91 12 -76 -2
-89 10 -33 31 20 8 23 12 12 19 -11 7 -11 12 -2 23 7 7 9 17 5 20 -14 14 -34
6 -45 -18z m122 -125 l0 -30 -60 0 -60 0 0 30 0 30 60 0 60 0 0 -30z"/>
<path d="M13795 5160 c19 -21 45 -27 45 -10 0 11 -33 30 -51 30 -8 0 -5 -7 6
-20z"/>
<path d="M2762 5158 c3 -9 31 -14 81 -16 64 -2 77 0 77 13 0 12 -15 15 -81 15
-60 0 -80 -3 -77 -12z"/>
<path d="M7400 5150 l-25 -19 21 -21 21 -22 7 37 c4 20 6 39 4 40 -2 2 -14 -5
-28 -15z"/>
<path d="M14344 5145 c-9 -14 -35 -37 -58 -50 -40 -24 -40 -25 -13 -25 29 0
107 64 107 88 0 20 -19 13 -36 -13z"/>
<path d="M5182 5144 c3 -16 14 -19 72 -22 128 -6 130 22 3 33 -74 7 -79 6 -75
-11z"/>
<path d="M8466 5141 c-28 -31 -13 -63 27 -59 26 2 32 7 32 27 0 13 -9 30 -21
37 -18 13 -23 12 -38 -5z m42 -29 c2 -7 -6 -12 -17 -12 -21 0 -27 11 -14 24 9
9 26 2 31 -12z"/>
<path d="M12086 5134 c-14 -15 -26 -38 -26 -52 0 -25 43 -92 60 -92 15 0 60
53 60 70 -1 11 -6 9 -19 -7 -24 -29 -35 -29 -55 2 -21 32 -20 48 5 71 17 16
22 16 29 4 6 -8 10 -18 10 -22 0 -17 20 -7 20 10 0 46 -45 54 -84 16z"/>
<path d="M12200 5150 c-12 -7 -12 -12 -2 -22 14 -14 16 -94 2 -103 -18 -11 0
-25 30 -23 24 2 27 5 19 21 -6 10 -10 37 -9 60 3 81 -3 91 -40 67z"/>
<path d="M12256 5145 c-3 -9 0 -15 9 -15 15 0 19 -20 15 -91 -1 -32 1 -36 22
-35 21 1 23 6 26 64 3 53 6 63 20 60 21 -4 30 -92 11 -114 -9 -12 -6 -14 19
-11 33 2 36 5 28 27 -3 8 -7 37 -8 64 -4 58 -25 79 -59 58 -15 -10 -24 -11
-32 -3 -16 16 -44 13 -51 -4z"/>
<path d="M6372 5139 c2 -7 32 -11 76 -11 105 1 104 1 97 12 -9 14 -178 13
-173 -1z"/>
<path d="M7560 5130 c0 -20 5 -21 78 -18 60 2 77 6 77 18 0 12 -17 16 -77 18
-73 3 -78 2 -78 -18z"/>
<path d="M8896 5141 c-3 -5 5 -11 19 -13 20 -4 23 -3 14 8 -13 16 -25 18 -33
5z"/>
<path d="M9145 5141 c-3 -6 -23 -11 -43 -11 -25 0 -33 -3 -25 -11 16 -16 98
-7 98 10 0 18 -21 26 -30 12z"/>
<path d="M12700 5135 c-10 -12 -10 -19 -2 -27 9 -9 9 -15 0 -25 -15 -18 -2
-29 17 -13 16 13 21 80 6 80 -5 0 -14 -7 -21 -15z"/>
<path d="M10727 5133 c-4 -3 -7 -12 -7 -20 0 -17 155 -19 166 -2 13 21 -12 28
-73 20 -35 -4 -66 -4 -71 1 -5 5 -11 5 -15 1z"/>
<path d="M9975 5120 c-10 -16 17 -21 90 -18 44 2 70 8 73 16 5 15 -153 17
-163 2z"/>
<path d="M11475 5120 c-10 -16 17 -21 91 -18 40 2 67 7 64 13 -7 13 -147 18
-155 5z"/>
<path d="M2760 5095 c0 -12 16 -15 81 -15 60 0 80 3 77 13 -3 8 -30 13 -81 14
-62 2 -77 -1 -77 -12z"/>
<path d="M5187 5094 c-18 -19 0 -24 79 -24 64 0 85 3 82 13 -5 13 -148 23
-161 11z"/>
<path d="M540 5070 c0 -15 5 -20 18 -18 9 2 17 10 17 18 0 8 -8 16 -17 18 -13
2 -18 -3 -18 -18z"/>
<path d="M6375 5080 c3 -5 44 -10 91 -10 49 0 84 4 84 10 0 6 -37 10 -91 10
-57 0 -88 -4 -84 -10z"/>
<path d="M7562 5078 c3 -9 27 -13 76 -13 99 0 97 19 -1 23 -61 2 -78 0 -75
-10z"/>
<path d="M9980 5065 c0 -13 13 -15 77 -13 50 2 78 7 81 16 3 9 -17 12 -77 12
-66 0 -81 -3 -81 -15z"/>
<path d="M10727 5073 c-18 -18 0 -23 78 -23 69 0 85 3 85 15 0 12 -15 15 -78
15 -43 0 -82 -3 -85 -7z"/>
<path d="M11480 5064 c0 -11 18 -14 74 -14 41 0 78 5 81 10 7 12 11 11 -82 15
-57 2 -73 0 -73 -11z"/>
<path d="M2255 4810 c-5 -25 -11 -30 -26 -25 -18 6 -19 0 -19 -99 0 -97 11
-142 23 -96 5 21 51 29 62 10 15 -25 25 -5 25 49 0 75 17 85 59 34 17 -20 34
-34 37 -30 12 12 -15 57 -41 69 -35 16 -14 38 36 38 l39 0 -1 -62 c-1 -35 -4
-74 -8 -88 -6 -22 -12 -25 -47 -22 l-39 3 39 -21 c34 -19 41 -20 53 -7 14 14
32 117 33 188 l0 36 -50 -5 c-53 -5 -60 1 -34 30 16 16 15 18 0 24 -22 8 -29
0 -46 -54 -16 -51 -32 -66 -28 -25 3 26 1 28 -26 25 -29 -3 -29 -3 -13 21 16
25 13 37 -9 37 -7 0 -15 -14 -19 -30z m43 -77 c-2 -22 -8 -28 -28 -28 -20 0
-26 6 -28 28 -3 24 0 27 28 27 28 0 31 -3 28 -27z m0 -75 c3 -25 0 -28 -27
-28 -26 0 -31 4 -31 23 0 30 9 39 35 35 13 -2 21 -12 23 -30z"/>
<path d="M2668 4832 c-74 -1 -128 -7 -128 -12 0 -6 25 -10 55 -10 53 0 55 -1
55 -26 0 -26 -2 -26 -44 -22 l-45 5 -3 -104 c-3 -100 5 -133 23 -101 9 16 73
19 96 5 6 -4 14 -3 18 3 3 5 15 10 27 10 16 0 18 3 9 14 -18 21 -9 127 11 140
25 15 29 6 29 -69 1 -46 -4 -70 -13 -76 -10 -7 -10 -9 0 -9 6 0 12 -7 12 -15
0 -8 6 -15 14 -15 12 0 15 21 18 100 2 55 2 104 0 108 -1 4 -31 6 -67 4 -68
-5 -78 3 -46 32 14 13 29 15 75 10 46 -6 56 -4 56 9 0 21 -9 22 -152 19z m-46
-104 c3 -7 2 -40 -1 -73 -4 -44 -10 -60 -21 -60 -12 0 -16 16 -18 73 -3 66 -1
72 16 72 11 0 22 -6 24 -12z m83 -8 c0 -9 -11 -16 -27 -18 -23 -3 -28 1 -28
18 0 17 5 21 28 18 16 -2 27 -9 27 -18z m3 -52 c3 -14 -3 -18 -27 -18 -25 0
-31 4 -31 21 0 16 5 20 27 17 17 -2 29 -10 31 -20z m0 -55 c-2 -11 -14 -19
-31 -21 -22 -3 -27 1 -27 17 0 17 6 21 31 21 24 0 30 -4 27 -17z"/>
<path d="M2926 4825 c-16 -9 -36 -13 -43 -11 -7 3 -13 1 -13 -4 0 -6 9 -10 20
-10 32 0 26 -38 -7 -43 -27 -4 -27 -4 -5 -12 27 -9 28 -34 2 -81 -24 -43 -17
-60 11 -25 l19 23 0 -50 c0 -28 5 -54 10 -57 6 -4 10 20 10 64 0 41 4 71 10
71 6 0 10 -4 10 -10 0 -5 7 -10 15 -10 21 0 19 14 -5 35 -22 20 -13 40 13 29
13 -5 17 -19 17 -64 0 -32 3 -65 6 -74 4 -10 -2 -17 -20 -22 -38 -9 -33 -28 6
-20 36 7 58 23 58 42 0 8 9 14 20 14 11 0 20 -6 20 -12 0 -10 2 -10 9 0 6 11
9 9 13 -6 7 -26 48 -50 48 -28 0 8 -4 18 -10 21 -5 3 -10 35 -10 71 0 49 4 66
15 70 11 5 13 10 5 19 -6 7 -8 25 -4 40 6 26 5 27 -23 21 -25 -6 -31 -4 -36
13 -8 30 -27 26 -40 -9 -7 -19 -18 -30 -31 -30 -11 0 -17 3 -13 6 5 6 -32 54
-42 54 -3 0 -19 -7 -35 -15z m58 -40 c5 -20 13 -25 38 -25 17 0 29 -3 26 -6
-4 -3 -31 -3 -61 1 -54 7 -55 8 -45 31 14 31 34 31 42 -1z m123 -31 c-3 -3
-12 -4 -19 -1 -8 3 -5 6 6 6 11 1 17 -2 13 -5z m-64 -31 c-7 -2 -21 -2 -30 0
-10 3 -4 5 12 5 17 0 24 -2 18 -5z m60 0 c-7 -2 -19 -2 -25 0 -7 3 -2 5 12 5
14 0 19 -2 13 -5z m-38 -23 c-3 -5 -12 -10 -20 -10 -8 0 -17 5 -20 10 -4 6 5
10 20 10 15 0 24 -4 20 -10z m18 -37 c-13 -2 -33 -2 -45 0 -13 2 -3 4 22 4 25
0 35 -2 23 -4z m0 -30 c-13 -2 -35 -2 -50 0 -16 2 -5 4 22 4 28 0 40 -2 28 -4z"/>
<path d="M3386 4825 c-16 -8 -54 -15 -87 -15 -43 0 -59 -4 -59 -14 0 -7 -10
-26 -22 -41 l-22 -28 22 5 c18 5 22 2 23 -15 0 -12 2 -32 3 -44 1 -12 -8 -44
-20 -70 -25 -50 -24 -64 1 -43 9 7 18 10 22 6 11 -10 43 26 43 48 -1 21 -1 21
-15 2 -18 -24 -26 -18 -18 12 5 21 11 22 99 22 93 0 94 0 94 -24 0 -32 -10
-56 -23 -56 -5 0 -25 17 -43 38 -18 20 -33 31 -34 25 0 -7 4 -13 9 -13 5 0 11
-10 13 -22 2 -12 15 -29 30 -38 36 -20 61 -5 69 41 4 19 10 42 14 52 6 14 2
17 -20 17 -24 0 -26 3 -21 25 5 20 3 25 -13 25 -14 0 -18 5 -14 20 4 17 0 20
-25 20 -17 0 -32 6 -35 15 -7 16 -3 20 34 28 22 6 27 2 38 -28 7 -19 19 -35
27 -35 20 0 17 27 -5 42 -11 8 -19 22 -18 32 3 25 -12 29 -47 11z m-56 -45 c0
-16 -7 -20 -35 -20 -37 0 -43 8 -23 28 20 20 58 15 58 -8z m60 -50 c0 -5 -25
-10 -55 -10 -30 0 -55 5 -55 10 0 6 25 10 55 10 30 0 55 -4 55 -10z m30 -45
c0 -12 -14 -15 -70 -15 -56 0 -70 3 -70 15 0 12 14 15 70 15 56 0 70 -3 70
-15z"/>
<path d="M1223 4818 c-29 -45 -33 -62 -21 -70 9 -5 5 -7 -11 -6 -15 2 -27 -4
-35 -17 -6 -11 -28 -41 -49 -67 l-38 -48 31 0 c19 0 30 5 29 13 -5 27 14 47
42 47 33 0 37 -15 12 -42 -15 -17 -14 -18 27 -18 36 0 41 2 31 14 -9 11 -10
42 -5 110 7 93 4 110 -13 84z m-23 -102 c0 -18 -17 -29 -30 -21 -8 5 -7 11 1
21 15 18 29 18 29 0z"/>
<path d="M1570 4819 c0 -6 -6 -9 -14 -6 -8 3 -31 -9 -52 -27 -33 -28 -38 -38
-42 -87 -4 -52 -2 -57 24 -78 22 -18 36 -21 64 -16 47 9 70 23 70 41 0 13 -2
13 -22 0 -35 -25 -86 -21 -99 7 -16 35 5 100 42 131 40 34 56 33 77 -4 21 -37
28 -38 35 -3 5 29 -7 45 -29 36 -6 -2 -15 0 -19 6 -8 14 -35 14 -35 0z"/>
<path d="M1327 4803 c9 -22 -28 -146 -50 -170 l-20 -23 61 0 c33 0 73 5 87 12
33 15 43 53 20 78 -16 17 -16 19 4 30 25 13 28 52 5 71 -9 7 -38 14 -64 15
-38 1 -47 -2 -43 -13z m81 -15 c7 -7 12 -15 12 -19 0 -14 -32 -39 -50 -39 -14
0 -17 5 -13 23 6 24 22 47 32 47 4 0 12 -5 19 -12z m-14 -100 c12 -21 -17 -58
-46 -58 -19 0 -22 17 -12 58 8 27 41 27 58 0z"/>
<path d="M1705 4802 c6 -15 -33 -161 -47 -179 -12 -15 -13 -15 37 -18 70 -5
113 12 145 57 63 86 25 149 -93 152 -35 1 -46 -2 -42 -12z m97 -22 c17 -16 20
-27 15 -67 -6 -56 -33 -83 -82 -83 l-32 0 15 58 c8 31 17 59 21 62 3 3 6 11 7
18 2 28 5 32 19 32 9 0 25 -9 37 -20z"/>
<path d="M1963 4813 c-36 -4 -43 -8 -43 -25 0 -41 -32 -153 -47 -165 -13 -10
-12 -13 9 -18 14 -4 51 -5 83 -3 54 3 59 5 68 31 12 36 2 45 -20 20 -20 -23
-79 -38 -88 -23 -8 13 22 80 35 80 7 0 14 -9 17 -20 8 -31 20 -24 28 16 6 35
-3 62 -12 37 -6 -17 -43 -17 -43 0 0 8 3 17 8 21 4 4 7 13 7 19 0 7 15 13 33
15 27 3 32 0 32 -17 0 -12 5 -21 10 -21 6 0 10 11 10 25 0 14 -4 25 -9 25 -5
0 -15 1 -23 3 -7 2 -32 2 -55 0z"/>
<path d="M3400 4633 c1 -18 28 -44 35 -33 4 6 1 17 -5 25 -13 16 -30 20 -30 8z"/>
<path d="M3315 4609 c12 -39 27 -48 23 -15 -2 16 -9 31 -17 34 -10 3 -11 -2
-6 -19z"/>
<path d="M9390 4411 c0 -5 5 -11 11 -13 16 -5 -35 -172 -55 -176 -9 -2 -16 -8
-16 -14 0 -6 25 -9 69 -6 86 5 115 25 109 77 -3 19 2 48 10 65 25 48 -4 73
-90 75 -21 1 -38 -3 -38 -8z m98 -48 c-2 -20 -10 -29 -32 -34 -25 -7 -27 -6
-22 14 3 12 6 28 6 35 0 6 12 12 26 12 22 0 25 -4 22 -27z m-15 -73 c14 -12
-11 -50 -40 -61 -35 -13 -38 -6 -24 41 10 36 15 40 34 34 12 -3 26 -10 30 -14z"/>
<path d="M13196 4386 c7 -31 -23 -139 -47 -165 -17 -18 -17 -20 -1 -25 31 -8
142 0 154 12 7 7 8 12 4 12 -5 0 -3 7 4 15 20 24 4 29 -19 6 -13 -13 -34 -21
-56 -21 -38 0 -42 10 -25 54 10 28 40 36 40 11 0 -28 17 -15 24 17 6 31 -3 55
-11 31 -3 -7 -11 -13 -19 -13 -15 0 -17 12 -8 48 5 16 14 22 35 22 17 0 32 -6
35 -15 9 -24 24 -17 24 10 0 24 -2 25 -70 25 -69 0 -70 0 -64 -24z"/>
<path d="M9514 4158 c-10 -16 -13 -318 -18 -2025 -2 -805 -1 -1465 3 -1468 5
-2 555 -5 1224 -6 669 0 1219 -4 1222 -8 5 -9 32 -7 59 4 10 5 21 4 25 -2 10
-16 1077 -15 1090 1 11 13 18 474 26 1776 5 797 8 1679 6 1708 -2 26 -29 9
-106 -68 -44 -44 -84 -80 -89 -80 -9 0 -76 -62 -170 -158 -33 -34 -66 -62 -73
-62 -6 0 -23 -15 -38 -32 -15 -18 -38 -40 -50 -48 -12 -8 -72 -61 -133 -118
-61 -57 -128 -117 -148 -133 -31 -24 -131 -116 -449 -414 -16 -15 -61 -55
-100 -88 -38 -33 -85 -77 -103 -99 -19 -21 -40 -38 -47 -38 -7 0 -32 -22 -55
-50 -23 -27 -48 -50 -54 -50 -7 0 -36 -24 -64 -52 -29 -29 -60 -60 -70 -68
-10 -8 -28 -23 -40 -33 -26 -24 -23 -26 -178 118 -65 61 -155 143 -199 183
-44 41 -104 96 -132 123 -29 27 -56 49 -60 49 -5 0 -31 23 -60 52 -88 90 -145
143 -163 153 -10 6 -141 123 -291 261 -151 138 -296 270 -324 293 -61 50 -61
51 -105 95 -19 20 -39 36 -45 36 -7 0 -31 23 -54 50 -23 28 -48 50 -56 50 -8
0 -25 15 -39 33 -41 53 -134 129 -142 115z m101 -113 c35 -36 68 -65 73 -65 5
0 25 -17 44 -37 18 -21 47 -49 64 -63 37 -30 240 -212 489 -440 99 -91 203
-185 230 -209 28 -24 73 -64 101 -90 145 -133 206 -186 215 -189 5 -2 9 -10 9
-18 0 -8 9 -18 19 -22 11 -4 48 -34 83 -67 35 -33 103 -96 152 -140 50 -44
122 -110 160 -147 44 -42 80 -68 94 -68 12 0 22 4 22 9 0 10 79 88 145 143 22
18 61 54 88 80 27 26 64 57 83 70 19 13 34 28 34 35 0 6 14 22 31 35 17 13 54
44 82 70 29 26 140 127 247 225 107 97 242 220 300 272 138 127 211 192 301
271 40 36 98 88 127 115 29 28 72 66 95 85 23 19 71 64 107 100 36 36 76 74
89 85 l23 19 -7 -1469 c-7 -1679 -10 -1943 -19 -1952 -11 -11 -40 -12 -52 -2
-8 7 -14 7 -18 0 -8 -13 -365 -15 -398 -2 -17 6 -29 6 -36 -1 -6 -6 -19 -7
-29 -3 -31 13 -67 15 -80 3 -9 -7 -13 -7 -13 1 0 14 -57 15 -65 1 -8 -13 -45
-13 -45 1 0 6 -15 10 -32 8 -18 -1 -657 -1 -1420 0 l-1388 1 4 723 c2 397 5
1166 5 1710 1 725 4 987 12 987 6 0 40 -29 74 -65z"/>
<path d="M11350 2373 c-24 -36 -79 -104 -122 -150 l-20 -23 31 0 c20 0 31 5
30 13 -5 27 14 47 42 47 22 0 29 -5 29 -20 0 -11 -4 -20 -10 -20 -5 0 -10 -4
-10 -10 0 -5 19 -10 41 -10 36 0 40 2 29 15 -10 11 -11 39 -6 105 4 50 3 90
-1 90 -4 0 -19 -17 -33 -37z m0 -68 c0 -18 -5 -25 -20 -25 -14 0 -18 5 -13 18
6 14 22 31 31 32 1 0 2 -11 2 -25z"/>
<path d="M3617 4033 c-4 -3 -7 -13 -7 -22 1 -14 2 -14 14 1 10 13 15 15 24 6
16 -16 15 -43 -3 -58 -8 -7 -15 -17 -15 -23 0 -6 -7 -19 -17 -29 -15 -17 -14
-18 15 -19 18 -1 38 -2 44 -3 7 -1 14 7 16 17 3 15 -1 17 -22 11 -31 -7 -34 6
-6 31 26 24 33 50 20 75 -10 19 -49 28 -63 13z"/>
<path d="M2019 3943 c-21 -64 -70 -163 -82 -163 -23 0 5 -14 32 -16 26 -2 29
1 27 28 -2 42 24 57 59 34 21 -14 25 -23 21 -42 -6 -22 -3 -24 29 -24 38 0 42
5 20 34 -8 11 -15 28 -15 38 0 22 -60 148 -71 148 -4 0 -13 -17 -20 -37z m32
-73 c5 0 9 -4 9 -10 0 -5 -11 -10 -25 -10 -28 0 -30 3 -13 33 11 19 13 20 16
5 2 -10 8 -18 13 -18z"/>
<path d="M2938 3972 c-51 -3 -57 -5 -63 -29 -8 -32 3 -43 19 -20 11 14 76 26
76 13 0 -3 -14 -43 -31 -91 -16 -48 -28 -89 -26 -91 8 -8 37 8 36 20 -1 6 3
23 9 38 19 47 44 138 40 151 -2 8 -21 11 -60 9z"/>
<path d="M3071 3966 c-19 -11 -21 -14 -7 -19 13 -5 16 -22 16 -85 0 -43 -5
-83 -11 -89 -16 -16 25 -27 48 -14 10 6 12 11 6 11 -10 0 -13 28 -13 105 0 58
-3 105 -7 105 -5 -1 -19 -7 -32 -14z"/>
<path d="M3263 3903 c-54 -10 -70 -88 -27 -128 15 -14 31 -25 35 -25 18 0 58
24 64 38 8 22 0 25 -24 10 -31 -19 -56 0 -56 43 0 25 5 35 19 37 10 2 23 -3
28 -12 12 -22 28 -20 28 4 0 16 -30 44 -42 39 -2 -1 -13 -4 -25 -6z"/>
<path d="M3340 3891 c0 -5 7 -14 15 -21 17 -14 20 -66 5 -75 -6 -4 -8 -11 -5
-16 4 -5 1 -9 -4 -9 -6 0 -11 -3 -11 -8 0 -4 52 -7 115 -7 63 0 115 2 115 6 0
3 -4 9 -9 15 -6 5 -11 34 -13 64 l-3 55 -102 2 c-57 1 -103 -2 -103 -6z m98
-69 c3 -47 1 -52 -17 -52 -18 0 -21 6 -21 48 0 27 3 52 7 56 16 16 28 -4 31
-52z m82 -3 c0 -47 -2 -50 -22 -47 -20 3 -23 10 -26 50 -2 38 0 47 15 50 29 7
33 0 33 -53z"/>
<path d="M3984 3876 c-10 -27 1 -51 26 -54 31 -5 53 23 39 49 -12 22 -57 25
-65 5z m44 -23 c-2 -10 -8 -18 -13 -18 -5 0 -11 8 -13 18 -2 10 3 17 13 17 10
0 15 -7 13 -17z"/>
<path d="M2177 3794 c-14 -14 -7 -35 11 -32 9 2 17 10 17 17 0 16 -18 25 -28
15z"/>
<path d="M3756 3144 c-22 -22 -21 -23 19 -17 31 5 35 3 35 -16 0 -11 -16 -39
-35 -60 -20 -22 -32 -41 -28 -44 4 -3 26 -4 48 -3 28 1 41 6 43 17 2 12 -4 15
-30 11 l-33 -5 33 37 c35 40 37 48 22 77 -13 23 -53 25 -74 3z"/>
<path d="M1948 3079 c7 -8 12 -43 12 -96 0 -77 -2 -84 -22 -93 -17 -6 1 -9 63
-9 73 -1 89 2 104 19 18 20 14 68 -7 81 -6 4 -5 14 3 27 12 18 11 25 -7 49
-19 25 -28 28 -90 31 -55 2 -67 1 -56 -9z m107 -29 c24 -27 13 -50 -25 -50
-28 0 -30 3 -30 35 0 27 4 35 18 35 11 0 27 -9 37 -20z m2 -92 c38 -36 25 -58
-33 -58 -21 0 -24 4 -24 40 0 47 20 53 57 18z"/>
<path d="M2890 3080 c0 -5 -7 -7 -15 -4 -8 4 -15 1 -15 -5 0 -6 7 -11 16 -11
14 0 16 -12 12 -82 -2 -53 -8 -83 -16 -86 -26 -8 -10 -22 28 -22 22 0 40 5 40
10 0 6 -4 10 -10 10 -6 0 -10 40 -10 100 0 82 -3 100 -15 100 -8 0 -15 -4 -15
-10z"/>
<path d="M3002 3067 c-22 -23 -29 -47 -14 -47 4 0 13 9 20 20 17 28 50 25 64
-5 9 -21 7 -30 -15 -65 -15 -22 -38 -47 -52 -56 -45 -29 -32 -44 39 -44 57 0
65 3 71 21 8 25 -1 37 -17 21 -7 -7 -25 -12 -41 -12 l-29 0 36 40 c41 46 52
78 39 117 -13 39 -69 45 -101 10z"/>
<path d="M3163 3064 c-16 -25 -16 -28 0 -57 16 -27 16 -31 2 -47 -35 -39 -5
-93 49 -88 40 4 62 44 45 82 -7 14 -17 26 -22 26 -6 0 -3 8 6 18 22 24 22 78
1 86 -34 13 -64 6 -81 -20z m62 -4 c8 -13 -3 -50 -15 -50 -12 0 -23 37 -15 50
3 5 10 10 15 10 5 0 12 -5 15 -10z m-5 -115 c15 -18 9 -50 -10 -50 -10 0 -16
12 -18 33 -3 34 8 41 28 17z"/>
<path d="M3377 3000 c-21 -17 -26 -28 -24 -55 6 -70 67 -98 106 -48 25 30 20
44 -7 20 -10 -10 -24 -17 -31 -17 -18 0 -34 45 -27 74 7 30 23 33 42 9 10 -14
15 -15 25 -6 10 10 9 15 -1 28 -17 21 -52 19 -83 -5z"/>
<path d="M3490 3010 c-10 -6 -11 -10 -2 -10 8 0 12 -18 12 -55 0 -30 -4 -55
-10 -55 -5 0 -10 -4 -10 -10 0 -5 16 -10 35 -10 36 0 43 8 24 27 -6 6 -9 28
-7 49 2 31 7 39 23 39 16 0 20 -6 19 -35 0 -19 -4 -45 -8 -57 -7 -21 -4 -23
26 -23 l34 0 -1 57 c0 47 3 58 18 61 14 3 17 -4 17 -47 0 -28 -4 -51 -10 -51
-5 0 -10 -4 -10 -10 0 -5 18 -10 40 -10 22 0 40 5 40 10 0 6 -7 10 -15 10 -10
0 -15 16 -17 63 -3 56 -5 62 -26 65 -13 2 -30 -2 -38 -8 -10 -9 -14 -9 -14 -1
0 15 -53 14 -68 -1 -9 -9 -12 -9 -12 0 0 14 -19 15 -40 2z"/>
<path d="M4113 3003 c-19 -7 -16 -62 3 -70 23 -9 48 9 52 37 5 31 -21 47 -55
33z m37 -26 c0 -8 -3 -17 -7 -20 -9 -9 -34 13 -27 24 8 14 34 11 34 -4z"/>
<path d="M2150 2895 c0 -8 2 -15 4 -15 2 0 11 -3 20 -6 12 -4 16 0 16 15 0 14
-6 21 -20 21 -11 0 -20 -7 -20 -15z"/>
<path d="M3750 2255 c-18 -21 -6 -29 20 -15 27 14 45 1 36 -26 -3 -11 -19 -33
-36 -51 -16 -18 -30 -34 -30 -37 0 -4 23 -6 50 -6 37 0 50 4 50 15 0 11 -8 13
-32 8 l-33 -6 33 37 c35 40 37 48 22 77 -13 23 -62 26 -80 4z"/>
<path d="M2000 2200 c0 -5 -6 -10 -14 -10 -7 0 -19 -13 -26 -30 -7 -16 -16
-30 -21 -30 -15 0 -10 -59 8 -88 26 -42 43 -52 88 -52 31 0 47 6 63 23 27 29
18 43 -11 16 -48 -44 -107 -9 -107 65 0 33 6 52 23 70 21 23 27 24 50 13 15
-6 30 -20 33 -29 10 -32 24 -19 24 23 0 36 -2 40 -15 29 -12 -10 -19 -10 -27
-2 -15 15 -68 16 -68 2z"/>
<path d="M2890 2197 c-12 -9 -14 -30 -12 -95 2 -54 -1 -88 -8 -98 -11 -12 -7
-14 24 -14 34 0 37 2 29 23 -4 12 -8 59 -8 104 0 45 -2 84 -5 86 -3 3 -12 0
-20 -6z"/>
<path d="M3023 2197 c-23 -12 -43 -47 -43 -75 0 -26 30 -64 46 -58 8 3 21 3
29 0 22 -9 0 -43 -36 -56 -32 -11 -41 -33 -9 -24 11 3 29 9 40 12 46 13 83
110 60 155 -12 23 -50 60 -60 58 -3 -1 -15 -6 -27 -12z m47 -36 c23 -44 -3
-98 -35 -71 -18 15 -20 76 -2 83 21 9 26 7 37 -12z"/>
<path d="M3155 2186 c-35 -28 -28 -47 9 -23 22 15 25 15 41 -3 24 -27 12 -71
-35 -123 -45 -49 -37 -61 33 -53 23 2 45 5 50 5 4 1 7 7 7 15 0 8 6 16 13 19
6 2 -10 2 -38 -1 l-50 -5 21 24 c19 22 54 89 54 103 0 16 -45 66 -59 66 -9 0
-29 -11 -46 -24z"/>
<path d="M3399 2133 c-18 -4 -41 -46 -45 -81 -3 -26 39 -71 67 -72 15 0 59 39
59 53 0 4 -9 3 -19 -3 -11 -5 -27 -10 -36 -10 -19 0 -38 45 -30 71 7 23 45 26
45 4 0 -20 19 -19 27 1 4 11 -1 22 -12 30 -19 14 -27 15 -56 7z"/>
<path d="M3657 2134 c-4 -4 -42 -7 -85 -6 l-77 1 0 -67 c0 -69 6 -83 34 -75
13 3 15 14 12 54 -3 57 9 80 34 59 18 -15 20 -81 3 -98 -9 -9 -7 -12 12 -12
14 -1 50 -3 80 -6 43 -3 52 -2 42 8 -6 6 -12 33 -12 59 0 47 -27 99 -43 83z
m1 -82 c3 -47 1 -52 -17 -52 -18 0 -21 6 -21 48 0 27 3 52 7 56 16 16 28 -4
31 -52z"/>
<path d="M4093 2104 c-8 -21 16 -64 36 -64 32 0 43 16 36 49 -6 26 -11 31 -36
31 -18 0 -32 -6 -36 -16z m51 -13 c3 -5 -1 -14 -8 -20 -16 -13 -32 2 -21 19 8
12 22 13 29 1z"/>
<path d="M2147 2023 c-14 -13 -7 -33 11 -33 26 0 34 11 21 27 -13 14 -22 16
-32 6z"/>
<path d="M3793 1380 c-13 -5 -23 -17 -23 -27 0 -13 3 -14 12 -5 15 15 45 16
53 2 4 -6 -1 -24 -9 -42 -9 -17 -14 -33 -11 -36 10 -11 35 22 41 56 5 28 3 38
-11 49 -21 15 -22 15 -52 3z"/>
<path d="M1939 1297 c9 -11 12 -42 9 -101 -3 -97 -3 -98 70 -90 85 10 112 37
112 113 0 61 -34 85 -128 90 -68 3 -75 2 -63 -12z m106 -11 c16 -8 32 -21 36
-28 13 -20 11 -82 -3 -101 -14 -18 -73 -39 -82 -29 -3 3 -6 43 -6 89 0 91 4
95 55 69z"/>
<path d="M2866 1288 c-20 -28 -9 -44 14 -23 27 25 64 16 68 -16 2 -20 -9 -40
-47 -82 -28 -30 -51 -58 -51 -61 0 -3 29 -6 64 -6 49 0 65 4 70 16 11 28 7 35
-14 24 -12 -6 -32 -10 -45 -8 -25 3 -25 3 11 40 39 42 55 98 34 123 -20 24
-86 19 -104 -7z"/>
<path d="M3016 1288 c-19 -27 -10 -44 13 -24 21 19 43 20 59 4 24 -24 12 -59
-39 -114 l-52 -54 65 0 c51 0 67 4 72 16 11 28 7 35 -13 24 -11 -5 -30 -10
-42 -10 l-23 0 25 28 c49 55 64 113 37 140 -21 21 -85 15 -102 -10z"/>
<path d="M3216 1270 c-14 -22 -26 -44 -26 -49 0 -5 -7 -14 -15 -21 -8 -7 -15
-21 -15 -31 0 -16 8 -19 44 -19 41 0 43 -1 38 -25 -3 -20 0 -25 17 -25 16 0
21 6 21 25 0 14 5 25 10 25 6 0 10 7 10 15 0 8 -4 15 -10 15 -6 0 -10 28 -10
65 0 57 -2 65 -19 65 -10 0 -30 -17 -45 -40z m26 -77 c-4 -13 -52 -19 -52 -7
0 4 10 23 22 43 l23 36 6 -30 c3 -16 3 -36 1 -42z"/>
<path d="M3784 1257 c-27 -15 -14 -27 30 -27 39 0 56 11 56 34 0 6 -73 0 -86
-7z"/>
<path d="M3412 1242 c-23 -15 -33 -71 -17 -108 12 -29 19 -34 48 -34 33 0 67
24 67 48 0 17 -17 15 -24 -3 -7 -18 -37 -20 -54 -3 -7 7 -12 27 -12 45 0 44
26 55 51 22 16 -21 18 -22 24 -6 14 35 -45 63 -83 39z"/>
<path d="M3518 1238 c-10 -6 -10 -10 1 -17 10 -7 13 -23 8 -65 l-6 -56 32 0
c24 0 28 3 19 12 -13 13 -16 66 -6 92 3 9 15 16 25 16 16 0 19 -8 19 -48 0
-26 -5 -53 -12 -60 -9 -9 -4 -12 25 -12 20 0 37 5 37 10 0 6 -4 10 -10 10 -5
0 -10 20 -10 45 0 49 18 67 45 45 19 -16 19 -47 1 -82 -15 -28 -15 -28 17 -28
l33 0 -6 59 c-3 32 -12 66 -19 75 -15 18 -47 21 -56 6 -4 -7 -11 -7 -18 -2
-15 11 -102 12 -119 0z"/>
<path d="M2162 1123 c4 -21 33 -25 33 -3 0 8 -8 16 -18 18 -14 3 -18 -1 -15
-15z"/>
<path d="M13186 601 c20 -21 -32 -189 -59 -192 -7 -1 13 -5 43 -9 104 -14 188
50 175 135 -3 22 -12 47 -20 55 -18 18 -156 29 -139 11z m98 -21 c23 -8 26
-15 26 -56 0 -37 -5 -51 -29 -75 -20 -19 -40 -29 -60 -29 -30 0 -49 14 -32 24
5 3 17 37 26 76 18 73 23 78 69 60z"/>
<path d="M9352 580 c-18 -11 -41 -34 -52 -52 -64 -105 38 -204 131 -129 13 11
21 23 17 27 -5 4 -16 0 -26 -9 -28 -26 -78 -22 -98 8 -17 25 -14 42 14 107 13
29 24 39 49 44 38 7 53 0 53 -26 0 -33 19 -32 28 2 8 30 6 34 -17 39 -46 12
-65 9 -99 -11z"/>
</g>
</svg>
