<?xml version="1.0" standalone="no"?>
<!DOCTYPE svg PUBLIC "-//W3C//DTD SVG 20010904//EN"
 "http://www.w3.org/TR/2001/REC-SVG-20010904/DTD/svg10.dtd">
<svg version="1.0" xmlns="http://www.w3.org/2000/svg"
 width="1406.000000pt" height="618.000000pt" viewBox="0 0 1406.000000 618.000000"
 preserveAspectRatio="xMidYMid meet">
<metadata>
Created by potrace 1.16, written by Peter Selinger 2001-2019
</metadata>
<g transform="translate(0.000000,618.000000) scale(0.100000,-0.100000)"
fill="#000000" stroke="none">
<path d="M1620 5835 l0 -35 -50 0 -50 0 1 -72 c0 -40 3 -67 6 -60 3 7 23 12
49 12 48 0 47 1 44 -69 -1 -32 2 -42 12 -39 8 3 13 22 13 58 l0 52 58 -5 58
-5 -3 67 -2 67 -58 -4 -58 -4 10 27 c11 30 6 45 -16 45 -9 0 -14 -11 -14 -35z
m1 -60 c3 -2 3 -21 1 -40 -4 -35 -5 -36 -46 -33 -40 3 -41 4 -43 41 l-2 37 43
0 c23 0 45 -2 47 -5z m109 -35 l0 -40 -40 0 c-25 0 -40 5 -41 13 -1 6 -2 24
-3 40 -3 26 -1 27 41 27 l43 0 0 -40z"/>
<path d="M2378 5838 c-3 -21 -10 -24 -90 -32 -49 -4 -88 -13 -88 -19 0 -5 14
-7 35 -4 19 3 37 1 40 -4 4 -5 -12 -9 -35 -9 -25 0 -39 -4 -35 -10 3 -5 27
-10 52 -10 35 0 44 3 40 14 -6 15 12 26 44 26 12 0 16 -5 13 -15 -4 -10 -13
-13 -25 -10 -27 9 -23 -10 6 -33 32 -26 32 -36 -6 -62 -37 -27 -32 -37 9 -16
34 18 113 106 106 118 -11 17 -32 7 -44 -22 -14 -33 -25 -38 -34 -15 -10 26
30 55 75 55 28 0 39 4 36 13 -2 7 -17 11 -35 9 -25 -3 -31 1 -34 19 -4 31 -26
36 -30 7z"/>
<path d="M1187 5843 c-2 -4 -5 -62 -6 -128 l-2 -120 130 0 131 0 0 128 c0 92
-3 128 -11 125 -8 -3 -12 -42 -11 -121 1 -112 0 -117 -20 -117 -19 0 -20 4
-15 62 3 34 11 64 17 66 8 3 8 7 0 17 -6 8 -18 11 -26 8 -11 -4 -13 2 -7 28 3
19 11 37 17 41 6 4 -28 8 -76 8 -47 0 -93 3 -101 6 -8 3 -17 2 -20 -3z m69
-46 c0 -17 -6 -33 -15 -39 -13 -8 -15 -24 -13 -80 3 -55 1 -69 -10 -66 -9 3
-14 31 -15 99 -2 112 0 121 29 117 16 -2 22 -10 24 -31z m51 19 c-4 -10 0 -12
14 -9 10 3 19 1 19 -5 0 -10 -50 -23 -62 -16 -12 7 4 44 19 44 9 0 13 -6 10
-14z m-7 -50 c0 -11 -19 -15 -25 -6 -3 5 1 10 9 10 9 0 16 -2 16 -4z m50 -6
c0 -5 -6 -10 -14 -10 -8 0 -18 5 -21 10 -3 6 3 10 14 10 12 0 21 -4 21 -10z
m-30 -24 c0 -2 3 -11 6 -20 5 -12 0 -16 -20 -16 -19 0 -26 5 -26 20 0 13 7 20
20 20 11 0 20 -2 20 -4z m49 -63 c1 -13 -3 -23 -9 -23 -5 0 -10 21 -9 48 1 38
2 42 9 22 4 -14 8 -35 9 -47z m-99 7 c0 -16 -4 -32 -10 -35 -6 -4 -10 10 -10
35 0 25 4 39 10 35 6 -3 10 -19 10 -35z m53 -7 c-7 -2 -21 -2 -30 0 -10 3 -4
5 12 5 17 0 24 -2 18 -5z m37 -53 c0 -5 -25 -10 -55 -10 -30 0 -55 5 -55 10 0
6 25 10 55 10 30 0 55 -4 55 -10z"/>
<path d="M2200 5839 c0 -5 24 -9 53 -9 35 0 47 3 37 9 -18 12 -90 12 -90 0z"/>
<path d="M2775 5840 c-4 -6 -60 -10 -126 -10 -73 0 -119 -4 -119 -10 0 -6 27
-10 60 -10 49 0 60 -3 60 -16 0 -14 -9 -16 -55 -12 l-55 5 0 -109 c0 -89 3
-108 15 -108 10 0 15 10 15 28 1 15 9 37 20 50 l19 23 21 -21 c11 -11 20 -33
20 -50 0 -16 5 -30 10 -30 6 0 10 13 10 28 0 17 10 38 24 51 l24 23 21 -21
c30 -30 27 -51 -6 -51 -32 0 -21 -15 19 -25 l26 -7 7 89 c3 48 7 97 8 108 2
18 -3 20 -55 17 -47 -3 -58 -1 -58 12 0 12 14 16 62 18 34 2 63 8 65 14 5 14
-24 26 -32 14z m-156 -76 c29 -6 31 -9 31 -52 0 -50 -16 -48 -22 3 -2 24 -8
31 -30 33 -16 2 -28 8 -28 13 0 11 7 11 49 3z m141 -51 c0 -51 -16 -50 -22 2
-2 24 -9 31 -33 36 -27 6 -26 7 13 8 l42 1 0 -47z m-160 -8 c0 -14 -5 -25 -11
-25 -5 0 -7 -4 -4 -10 3 -5 1 -10 -4 -10 -12 0 -15 52 -4 63 13 14 23 6 23
-18z m108 -1 c1 -11 -7 -25 -19 -32 -19 -12 -21 -12 -15 3 3 9 6 26 6 37 0 25
24 18 28 -8z"/>
<path d="M2990 5836 c0 -13 -13 -16 -70 -16 -40 0 -70 -4 -70 -10 0 -6 30 -10
70 -10 45 0 70 -4 70 -11 0 -7 -10 -9 -25 -7 -24 5 -24 5 -27 -86 -3 -79 -5
-91 -22 -94 -17 -4 -18 2 -15 77 4 70 2 81 -13 85 -16 4 -18 -6 -18 -100 0
-94 7 -122 25 -94 4 6 55 10 121 10 98 0 114 2 114 16 0 12 -6 15 -21 11 -20
-5 -21 -3 -17 84 l3 89 -42 0 c-24 0 -43 5 -43 10 0 6 28 10 65 10 51 0 65 3
65 15 0 14 -41 14 -111 1 -10 -2 -16 3 -15 12 0 8 -5 17 -11 19 -7 3 -13 -2
-13 -11z m68 -88 c-3 -7 -8 -12 -11 -10 -4 1 -25 2 -47 2 -22 0 -40 5 -40 10
0 6 23 10 51 10 36 0 49 -4 47 -12z m0 -50 c3 -15 -4 -18 -47 -18 -45 0 -51 3
-51 21 0 18 5 20 47 17 36 -2 49 -7 51 -20z m2 -48 c0 -5 -22 -10 -50 -10 -27
0 -50 5 -50 10 0 6 23 10 50 10 28 0 50 -4 50 -10z m-14 -30 c13 0 24 -4 24
-10 0 -5 -25 -10 -55 -10 -44 0 -55 3 -55 16 0 13 7 15 31 10 17 -3 42 -6 55
-6z"/>
<path d="M3221 5821 c-18 -25 -19 -32 -8 -60 10 -28 10 -34 -6 -45 -24 -18
-22 -39 3 -31 11 4 20 2 20 -4 0 -6 -7 -11 -15 -11 -8 0 -17 -12 -21 -27 -3
-16 -8 -36 -11 -47 -10 -35 21 -11 31 25 l11 34 3 -47 c5 -71 21 -58 24 20 3
63 4 67 26 65 13 -2 22 3 22 12 0 19 -21 30 -30 15 -6 -9 -9 -9 -15 0 -4 7 4
23 20 40 29 30 20 49 -14 28 -30 -18 -38 -2 -13 25 20 21 21 37 1 37 -4 0 -17
-13 -28 -29z"/>
<path d="M3366 5834 c-3 -8 -17 -19 -31 -24 -22 -8 -25 -15 -25 -60 0 -44 3
-51 18 -48 12 3 16 12 14 31 -3 25 0 27 38 27 36 0 41 -2 35 -19 -3 -11 1 -25
9 -34 13 -12 13 -17 2 -26 -15 -13 -26 -5 -26 21 0 11 -7 18 -19 18 -14 0 -18
-5 -14 -19 4 -15 0 -19 -19 -19 -40 1 -78 -6 -78 -14 0 -3 5 -19 10 -34 8 -19
8 -30 0 -38 -13 -13 -13 -26 0 -26 6 0 25 20 42 45 36 50 48 56 48 22 0 -28
-17 -47 -36 -40 -26 10 -14 -12 12 -24 37 -17 44 -9 44 45 1 40 2 44 12 27 15
-27 50 -65 60 -65 15 0 8 24 -14 47 -23 24 -20 32 17 47 6 2 1 10 -9 18 -16
12 -18 24 -14 66 l5 52 -30 0 c-21 0 -28 4 -24 14 3 8 0 17 -8 20 -7 2 -16 -2
-19 -10z m54 -54 c0 -5 -18 -10 -40 -10 -22 0 -40 5 -40 10 0 6 18 10 40 10
22 0 40 -4 40 -10z m-96 -118 c2 -4 -2 -15 -9 -25 -12 -16 -13 -16 -17 8 -5
24 14 36 26 17z"/>
<path d="M3587 5844 c-4 -4 -7 -20 -7 -35 0 -24 -5 -28 -32 -32 -30 -4 -31 -5
-10 -12 27 -9 27 -15 2 -67 -11 -23 -20 -45 -20 -50 0 -17 17 -7 28 17 20 44
32 28 32 -41 0 -45 4 -64 11 -62 7 2 12 33 13 80 1 42 4 74 9 71 4 -2 7 -11 7
-19 0 -8 5 -14 10 -14 18 0 10 39 -12 60 l-22 20 28 0 c18 0 26 4 23 13 -2 6
-12 11 -21 11 -14 -2 -17 5 -14 29 3 29 -10 45 -25 31z"/>
<path d="M3990 5825 c-9 -23 -15 -25 -70 -25 -68 0 -82 -17 -17 -22 l42 -3
-39 -37 c-22 -21 -37 -40 -34 -43 8 -9 93 61 91 74 -2 6 11 11 32 11 27 0 42
-8 74 -42 36 -39 41 -41 41 -20 0 15 -11 29 -32 42 l-33 20 53 0 c53 0 63 8
37 30 -12 10 -18 10 -29 1 -8 -7 -32 -11 -53 -9 -33 3 -38 6 -35 26 4 30 -16
28 -28 -3z"/>
<path d="M4240 5820 c0 -25 -4 -30 -25 -30 -30 0 -33 -16 -5 -23 17 -4 20 -14
20 -55 0 -28 -4 -53 -9 -56 -5 -3 -11 -16 -14 -28 -2 -13 -8 -31 -12 -40 -4
-10 -3 -18 3 -18 11 0 44 72 52 114 9 52 30 43 30 -12 0 -64 -7 -82 -32 -82
-17 0 -18 -3 -8 -15 29 -34 60 -4 60 58 0 24 10 45 33 71 17 21 40 52 50 69 9
18 17 26 17 18 0 -7 14 -31 31 -52 24 -31 34 -37 44 -29 11 9 6 19 -26 51 -21
21 -39 46 -39 54 0 23 -28 18 -36 -7 -3 -13 -19 -40 -34 -61 -26 -36 -28 -37
-34 -15 -4 17 -8 19 -14 10 -10 -15 -45 -5 -39 12 2 6 18 12 35 14 21 2 32 9
32 19 0 11 -6 14 -26 9 -22 -6 -25 -4 -20 10 6 17 -9 44 -25 44 -5 0 -9 -13
-9 -30z"/>
<path d="M5370 5829 c0 -14 -7 -19 -25 -19 -14 0 -25 -4 -25 -10 0 -5 12 -10
26 -10 15 0 23 -4 19 -11 -4 -6 -13 -8 -21 -5 -11 4 -14 -7 -15 -47 -1 -29 -1
-58 0 -64 1 -7 -3 -13 -9 -13 -5 0 -10 -4 -10 -10 0 -5 14 -10 30 -10 28 0 30
-3 30 -35 0 -19 5 -35 10 -35 6 0 10 16 10 35 0 33 2 35 32 35 25 0 29 3 20
12 -15 15 -16 94 -2 103 15 9 -9 37 -27 31 -7 -3 -13 -1 -13 4 0 6 14 10 31
10 l31 0 -2 -107 c-3 -131 -3 -130 12 -115 7 7 30 12 53 12 23 0 46 -5 53 -12
9 -9 12 -5 12 18 0 16 3 69 7 118 l5 88 -30 -7 c-35 -7 -50 8 -31 31 9 11 9
18 1 26 -16 16 -32 0 -32 -33 0 -35 -21 -38 -50 -7 -17 19 -24 21 -40 10 -17
-11 -19 -10 -17 9 1 14 -4 23 -15 24 -12 2 -18 -3 -18 -16z m140 -93 c0 -21
-6 -36 -15 -40 -12 -4 -15 3 -15 34 0 29 4 40 15 40 10 0 15 -10 15 -34z m60
-2 c0 -28 -3 -35 -17 -32 -31 6 -29 68 2 68 11 0 15 -10 15 -36z m-200 17 c0
-6 -4 -13 -10 -16 -5 -3 -10 1 -10 9 0 9 5 16 10 16 6 0 10 -4 10 -9z m40 -1
c0 -5 -4 -10 -10 -10 -5 0 -10 5 -10 10 0 6 5 10 10 10 6 0 10 -4 10 -10z
m-40 -56 c0 -8 -4 -14 -10 -14 -5 0 -10 9 -10 21 0 11 5 17 10 14 6 -3 10 -13
10 -21z m40 4 c0 -16 -3 -19 -11 -11 -6 6 -8 16 -5 22 11 17 16 13 16 -11z
m100 -58 c0 -29 -4 -40 -15 -40 -11 0 -15 11 -15 40 0 29 4 40 15 40 11 0 15
-11 15 -40z m60 -1 c0 -33 -3 -40 -17 -37 -13 2 -19 14 -21 41 -3 32 0 37 17
37 18 0 21 -6 21 -41z m-200 21 c0 -5 -7 -10 -16 -10 -8 0 -12 5 -9 10 3 6 10
10 16 10 5 0 9 -4 9 -10z m45 0 c3 -5 -1 -10 -9 -10 -9 0 -16 5 -16 10 0 6 4
10 9 10 6 0 13 -4 16 -10z"/>
<path d="M5771 5733 c-1 -64 -4 -120 -7 -125 -3 -4 -27 -8 -55 -8 -27 0 -49
-4 -49 -10 0 -6 54 -10 141 -10 108 0 140 3 136 13 -3 8 -23 11 -70 8 l-67 -3
0 66 0 66 56 0 c40 0 54 3 51 13 -2 8 -21 11 -57 8 l-53 -3 7 49 c5 43 4 49
-12 50 -18 1 -19 -8 -21 -114z"/>
<path d="M6038 5820 c-7 -22 -15 -29 -27 -25 -14 4 -16 -7 -16 -99 0 -102 8
-138 22 -100 3 10 11 22 17 26 7 5 7 8 -1 8 -8 0 -13 13 -13 30 0 26 4 30 28
30 25 0 29 -4 30 -30 0 -20 -4 -30 -14 -30 -11 0 -10 -4 4 -18 26 -28 42 -8
42 53 0 74 22 90 46 35 20 -46 34 -52 34 -14 0 17 -6 28 -19 31 -21 5 -35 29
-25 44 3 5 26 9 51 9 l46 0 -7 -77 c-7 -85 -22 -107 -63 -97 -26 7 -32 -11 -5
-19 9 -2 24 -8 33 -11 10 -4 23 -1 32 8 14 15 19 42 30 169 l5 47 -56 0 c-44
0 -53 3 -44 12 7 7 12 20 12 30 0 31 -27 9 -39 -32 -14 -48 -31 -61 -31 -24 0
24 -2 26 -32 20 -30 -6 -30 -5 -15 12 21 23 21 28 1 36 -11 4 -18 -3 -26 -24z
m37 -80 c0 -20 -6 -26 -27 -28 -25 -3 -28 0 -28 28 0 28 3 31 28 28 21 -2 27
-8 27 -28z"/>
<path d="M6860 5770 l0 -82 -25 6 c-24 6 -25 5 -25 -40 0 -58 -13 -50 -14 8
-1 39 -4 43 -25 43 -26 0 -39 19 -22 30 6 3 20 1 31 -5 18 -10 20 -8 20 22 0
18 3 43 6 55 6 21 4 22 -55 18 -39 -2 -63 0 -68 8 -5 7 -11 -12 -14 -43 -7
-60 2 -80 25 -61 10 8 16 9 21 1 9 -15 -4 -30 -27 -30 -12 0 -18 -3 -14 -7 7
-8 11 -9 37 -12 20 -2 -3 -21 -27 -21 -26 0 -31 -9 -12 -28 10 -10 10 -17 0
-32 -16 -26 -15 -30 3 -30 14 0 20 16 17 51 -1 17 25 29 66 29 15 0 22 -6 22
-19 0 -11 7 -26 15 -35 8 -8 15 -19 15 -25 0 -6 5 -11 10 -11 6 0 10 5 10 10
0 15 77 12 83 -2 8 -25 15 -2 18 62 4 62 3 65 -19 63 -19 -2 -22 2 -22 32 0
31 3 35 25 35 26 0 33 14 15 25 -6 4 -17 2 -25 -5 -11 -9 -14 -5 -17 26 -2 21
-9 39 -15 42 -10 3 -13 -17 -13 -78z m-137 24 c-3 -9 -9 -12 -12 -7 -3 4 -10
11 -15 16 -5 4 0 7 12 7 15 0 20 -4 15 -16z m43 1 c-8 -8 -17 -15 -20 -15 -3
0 -6 7 -6 15 0 9 9 15 21 15 18 0 19 -2 5 -15z m-69 -37 c-3 -8 -6 -5 -6 6 -1
11 2 17 5 13 3 -3 4 -12 1 -19z m83 7 c0 -8 -4 -15 -10 -15 -5 0 -7 7 -4 15 4
8 8 15 10 15 2 0 4 -7 4 -15z m3 -92 c-7 -2 -21 -2 -30 0 -10 3 -4 5 12 5 17
0 24 -2 18 -5z m127 -39 c0 -35 -1 -35 -37 -32 -35 3 -38 6 -41 36 -3 31 -2
32 37 32 40 0 41 -1 41 -36z"/>
<path d="M311 5806 c-13 -14 -18 -26 -13 -30 6 -3 12 -1 14 4 2 6 17 12 33 13
27 2 30 -1 33 -30 3 -27 -5 -41 -42 -81 -25 -27 -46 -52 -46 -56 0 -3 29 -6
64 -6 48 0 65 4 70 15 7 20 -15 29 -54 23 l-31 -5 30 31 c16 17 36 47 43 66
13 31 12 36 -6 57 -26 30 -66 30 -95 -1z"/>
<path d="M485 5800 c-21 -41 -19 -48 19 -64 68 -28 55 -93 -17 -81 -34 6 -38
5 -35 -11 8 -42 98 -23 117 24 17 42 1 84 -40 104 l-34 17 31 1 c29 0 54 15
54 32 0 4 -18 8 -40 8 -34 0 -42 -4 -55 -30z"/>
<path d="M3660 5693 c0 -82 4 -133 10 -133 6 0 10 5 10 11 0 8 19 10 60 6 42
-3 60 -2 61 6 0 7 1 64 2 127 l2 115 -72 0 -73 0 0 -132z m110 87 c0 -17 -7
-20 -45 -20 -31 0 -45 4 -45 13 0 21 11 27 52 27 31 0 38 -3 38 -20z m0 -70
c0 -29 -2 -30 -45 -30 -40 0 -45 2 -45 23 0 32 7 37 52 37 36 0 38 -2 38 -30z
m0 -81 c0 -29 -1 -30 -42 -27 -39 3 -43 6 -46 31 -3 26 -2 27 42 27 45 0 46
-1 46 -31z"/>
<path d="M4763 5819 c-7 -7 -47 -10 -117 -7 -68 2 -105 -1 -103 -7 2 -5 32
-11 66 -13 l62 -3 -3 -97 c-3 -96 -3 -97 -28 -97 -25 0 -25 1 -25 78 0 71 -3
81 -22 75 -4 -2 -6 -36 -5 -75 3 -77 0 -81 -55 -74 -7 1 -13 -3 -13 -9 0 -5
17 -10 38 -11 77 -2 257 2 261 7 3 2 -1 10 -7 16 -9 9 -17 10 -30 2 -14 -9
-51 -11 -84 -5 -9 1 -10 37 -2 69 5 17 14 22 40 22 22 0 37 6 41 15 8 23 -5
31 -27 17 -36 -22 -50 -15 -50 26 l0 38 53 10 c28 5 52 13 52 19 0 14 -29 17
-42 4z"/>
<path d="M7695 5821 c-4 -7 -56 -12 -128 -13 -67 -1 -94 -3 -59 -5 l62 -4 0
-119 c0 -68 4 -121 10 -125 10 -6 16 59 13 138 -2 46 13 48 52 7 32 -33 45
-38 45 -15 0 9 -20 28 -45 43 -31 19 -44 34 -45 50 0 18 5 22 23 21 56 -5 109
1 105 13 -6 16 -25 21 -33 9z"/>
<path d="M7910 5821 c0 -7 -25 -11 -67 -11 -36 0 -63 -3 -59 -7 4 -4 17 -8 28
-8 33 0 31 -16 -6 -73 -24 -36 -30 -52 -20 -52 8 0 14 5 14 10 0 17 26 11 45
-10 20 -22 15 -34 -39 -82 -26 -23 -28 -28 -12 -28 33 0 102 82 119 141 9 29
14 56 12 59 -2 4 -18 5 -35 2 -23 -3 -30 0 -30 12 0 12 10 16 41 16 32 0 40 3
37 17 -3 18 -28 31 -28 14z m-10 -85 c0 -1 -5 -17 -11 -33 l-10 -31 -26 24
c-13 12 -22 28 -18 33 5 10 65 16 65 7z"/>
<path d="M8035 5798 c1 -18 -2 -38 -7 -45 -5 -6 -5 -14 1 -17 7 -5 7 -15 1
-31 -5 -14 -6 -25 -2 -25 5 0 4 -20 -2 -45 -9 -37 -15 -45 -33 -45 -31 0 -29
-12 5 -28 43 -20 52 3 52 133 0 73 4 115 12 123 9 9 7 12 -9 12 -16 0 -20 -6
-18 -32z"/>
<path d="M8160 5813 c0 -9 -13 -40 -30 -69 -16 -29 -26 -55 -21 -58 5 -3 11 1
15 9 13 34 22 11 20 -52 -1 -38 2 -75 7 -83 10 -19 11 -10 11 119 -1 52 4 98
10 105 7 7 39 10 89 8 l79 -4 0 -99 c0 -99 0 -99 -25 -99 -33 0 -32 -14 2 -29
40 -19 48 -2 51 119 3 100 5 110 23 110 21 0 27 19 7 21 -7 1 -55 0 -105 -1
-62 -1 -93 2 -93 9 0 6 -9 11 -20 11 -12 0 -20 -7 -20 -17z"/>
<path d="M8557 5809 c-5 -17 -10 -19 -43 -13 -26 5 -35 4 -30 -5 4 -6 23 -11
42 -11 24 0 34 -4 34 -16 0 -13 -10 -15 -55 -12 -39 2 -55 -1 -55 -9 0 -9 19
-13 61 -13 44 0 60 -3 57 -12 -5 -15 -61 -44 -100 -52 -16 -4 -28 -11 -28 -16
0 -9 21 -7 73 7 15 4 17 -3 17 -51 0 -52 10 -70 25 -46 9 15 102 13 108 -2 8
-24 14 -3 20 65 3 39 1 67 -5 67 -10 0 -38 25 -38 34 0 3 23 6 51 6 43 0 50 2
40 14 -9 10 -24 13 -49 9 l-37 -6 28 30 c30 32 34 43 15 43 -7 0 -26 -16 -41
-35 -28 -36 -67 -47 -67 -20 0 10 10 15 29 15 32 0 49 14 31 25 -6 4 -17 1
-25 -5 -17 -15 -36 -5 -28 15 3 9 -1 15 -10 15 -8 0 -17 -9 -20 -21z m68 -109
c4 -6 -6 -10 -22 -10 -22 0 -25 2 -13 10 19 12 27 12 35 0z m35 -45 c0 -12
-13 -15 -55 -15 -42 0 -55 3 -55 15 0 12 13 15 55 15 42 0 55 -3 55 -15z m0
-50 c0 -23 -4 -25 -42 -25 -51 0 -73 12 -65 34 5 12 20 16 57 16 47 0 50 -2
50 -25z"/>
<path d="M9286 5814 c-4 -10 -13 -13 -25 -9 -11 3 -22 1 -26 -5 -4 -7 2 -14
14 -17 26 -7 26 -10 0 -52 -17 -29 -23 -32 -30 -19 -5 10 -17 14 -34 10 -24
-4 -26 -3 -19 24 9 40 12 44 35 44 12 0 19 5 16 13 -2 6 -9 11 -14 10 -6 -1
-29 -3 -52 -4 -41 -3 -59 -19 -20 -19 18 0 20 -4 14 -32 -4 -18 -16 -48 -27
-66 -11 -18 -17 -36 -13 -40 4 -4 10 -1 12 6 11 30 23 7 23 -43 0 -30 5 -55
10 -55 6 0 10 5 10 11 0 7 10 9 25 5 24 -6 25 -5 25 42 0 44 12 72 32 72 4 0
8 -31 8 -70 0 -40 4 -70 10 -70 6 0 10 4 10 8 0 4 29 6 65 4 56 -4 65 -2 65
13 0 14 -6 16 -36 11 -31 -6 -35 -5 -32 11 2 11 14 19 31 21 22 3 26 6 17 17
-6 7 -20 11 -30 8 -11 -3 -20 -1 -20 5 0 6 12 12 27 14 14 2 28 9 31 17 3 10
-3 11 -28 6 -27 -6 -31 -4 -28 12 2 11 13 19 31 21 27 3 35 16 18 27 -5 3 -12
1 -16 -4 -3 -6 -13 -7 -22 -4 -12 5 -8 10 17 22 51 25 50 41 -4 41 -36 0 -44
3 -40 15 4 9 0 15 -9 15 -8 0 -18 -7 -21 -16z m27 -58 c-3 -16 -10 -23 -19
-19 -10 4 -11 10 -3 24 14 27 27 24 22 -5z m44 18 c-3 -3 -12 -4 -19 -1 -8 3
-5 6 6 6 11 1 17 -2 13 -5z m-57 -74 c0 -11 -7 -20 -15 -20 -8 0 -15 9 -15 20
0 11 7 20 15 20 8 0 15 -9 15 -20z m-110 -50 c0 -38 -4 -50 -15 -50 -11 0 -15
12 -15 50 0 38 4 50 15 50 11 0 15 -12 15 -50z m115 -1 c-8 -12 -35 -12 -35 0
0 11 22 20 33 14 4 -2 5 -9 2 -14z m-5 -50 c0 -24 -23 -21 -28 4 -2 10 3 17
12 17 10 0 16 -9 16 -21z"/>
<path d="M8935 5808 c-49 -5 -102 -7 -117 -5 -15 2 -25 0 -22 -5 3 -4 32 -8
65 -8 l60 0 -3 -97 -3 -98 -29 -3 -28 -4 3 75 c3 55 1 74 -8 74 -14 0 -18 -34
-14 -104 l3 -43 -36 0 c-20 0 -36 -4 -36 -10 0 -6 57 -10 151 -10 116 0 150 3
146 13 -3 8 -23 11 -65 9 l-62 -4 0 51 0 51 45 0 c33 0 45 4 45 15 0 12 -9 13
-45 8 l-45 -6 0 42 0 41 61 0 c44 0 60 3 57 13 -6 16 -16 16 -123 5z"/>
<path d="M9537 5802 c-21 -23 -22 -62 -2 -62 10 0 15 10 15 30 0 26 3 30 29
30 42 0 56 -21 37 -59 -9 -16 -20 -33 -26 -36 -5 -3 -10 -18 -9 -33 0 -25 1
-25 12 -9 7 10 22 31 34 45 29 34 31 87 4 102 -30 16 -76 12 -94 -8z"/>
<path d="M7968 5728 c-3 -74 3 -110 16 -97 10 10 9 173 -2 177 -7 2 -12 -26
-14 -80z"/>
<path d="M9215 5769 c-4 -6 -5 -13 -2 -16 7 -7 27 6 27 18 0 12 -17 12 -25 -2z"/>
<path d="M5038 5753 c-22 -6 -23 -19 -3 -27 13 -4 15 -20 13 -73 -3 -67 -3
-67 -37 -76 -31 -8 -33 -10 -18 -24 14 -14 18 -14 42 5 14 11 48 48 75 83 50
61 65 109 35 109 -10 0 -15 -10 -15 -28 0 -29 -24 -72 -41 -72 -5 0 -9 18 -9
39 0 42 -8 72 -19 70 -3 -1 -14 -3 -23 -6z"/>
<path d="M8200 5693 c0 -49 3 -63 15 -63 8 0 15 5 15 10 0 13 43 13 57 -1 15
-15 21 -1 24 61 l3 55 -57 0 -57 0 0 -62z m90 7 c0 -27 -3 -30 -30 -30 -27 0
-30 3 -30 30 0 27 3 30 30 30 27 0 30 -3 30 -30z"/>
<path d="M1968 5738 c-3 -7 -2 -22 2 -32 6 -19 7 -19 12 1 7 25 -6 53 -14 31z"/>
<path d="M4029 5708 c-19 -43 -35 -45 -55 -7 l-16 32 -19 -24 c-18 -24 -25
-49 -13 -49 4 0 13 8 20 17 11 16 13 15 25 -11 12 -26 11 -30 -10 -47 -13 -10
-41 -24 -62 -30 -21 -7 -39 -16 -39 -21 0 -21 88 9 116 39 l24 26 23 -20 c34
-32 82 -53 105 -46 32 8 27 20 -10 28 -47 10 -88 33 -88 49 0 7 10 26 21 40
19 24 20 29 7 42 -12 13 -16 10 -29 -18z"/>
<path d="M6570 5731 c0 -7 -43 -11 -126 -11 -81 0 -123 -4 -119 -10 4 -6 64
-10 146 -10 128 0 140 2 137 17 -4 19 -38 31 -38 14z"/>
<path d="M7118 5729 c-39 -22 -5 -79 34 -58 21 11 24 39 6 57 -14 14 -18 14
-40 1z m30 -26 c-2 -10 -8 -18 -13 -18 -5 0 -11 8 -13 18 -2 10 3 17 13 17 10
0 15 -7 13 -17z"/>
<path d="M2243 5723 c-18 -2 -33 -9 -33 -14 0 -15 83 -6 88 9 2 6 -2 11 -10
10 -7 0 -28 -3 -45 -5z"/>
<path d="M2430 5710 c0 -26 -106 -120 -135 -120 -4 0 -5 21 -3 46 l3 46 -47 2
-48 2 0 -51 c0 -59 5 -68 30 -52 14 8 25 8 44 -1 29 -13 48 -8 92 25 40 30 45
29 66 -8 23 -39 44 -29 23 11 -8 15 -20 30 -27 33 -9 3 -4 14 15 34 15 16 24
32 20 36 -10 11 -33 8 -33 -3z m-162 -72 c-5 -34 -38 -37 -38 -4 0 20 5 26 21
26 15 0 20 -5 17 -22z"/>
<path d="M4370 5712 c0 -12 57 -62 64 -55 13 13 5 29 -23 46 -32 19 -41 21
-41 9z"/>
<path d="M612 5643 c2 -10 12 -18 23 -18 11 0 21 8 23 18 3 13 -3 17 -23 17
-20 0 -26 -4 -23 -17z"/>
<path d="M4366 5627 c10 -12 30 -33 44 -45 22 -21 25 -22 28 -7 4 19 -40 60
-71 69 -18 4 -18 4 -1 -17z"/>
<path d="M6750 5616 c0 -14 5 -28 10 -31 6 -3 10 5 10 19 0 14 -4 28 -10 31
-6 3 -10 -5 -10 -19z"/>
<path d="M6710 5595 c0 -14 5 -25 10 -25 6 0 10 11 10 25 0 14 -4 25 -10 25
-5 0 -10 -11 -10 -25z"/>
<path d="M9570 5589 c0 -18 2 -19 15 -9 8 7 15 16 15 21 0 5 -7 9 -15 9 -9 0
-15 -9 -15 -21z"/>
<path d="M1545 5080 c-11 -5 -14 -9 -7 -9 15 -1 18 -181 2 -181 -5 0 -10 -4
-10 -10 0 -5 16 -10 35 -10 34 0 46 12 25 25 -15 9 -13 148 2 163 10 10 10 15
-2 22 -18 11 -19 11 -45 0z"/>
<path d="M2564 5057 c-23 -28 -26 -38 -22 -93 4 -70 26 -104 65 -104 48 0 80
104 54 173 -5 14 -23 32 -40 40 -30 15 -31 14 -57 -16z m67 -34 c6 -16 7 -47
2 -77 -7 -41 -12 -52 -29 -54 -17 -2 -23 4 -28 29 -9 44 -8 74 4 103 12 34 38
33 51 -1z"/>
<path d="M2395 5004 c-28 -13 -54 -24 -58 -24 -15 0 -38 -30 -32 -40 5 -8 129
-70 141 -70 2 0 4 6 4 14 0 12 -55 45 -100 59 -9 2 8 15 42 31 31 14 59 30 63
35 12 20 -13 18 -60 -5z"/>
<path d="M2129 5007 c-23 -17 -49 -71 -49 -102 0 -29 24 -43 49 -28 11 7 21 7
33 0 12 -8 21 -7 32 2 18 15 22 36 6 26 -11 -7 -6 27 11 73 5 13 9 27 9 31 0
12 -74 10 -91 -2z m48 -37 c-6 -30 -39 -70 -57 -70 -18 0 -10 53 12 77 31 33
52 30 45 -7z"/>
<path d="M9330 4921 c0 -6 9 -11 20 -11 18 0 20 -7 20 -65 0 -63 -1 -67 -30
-83 -32 -18 -36 -27 -18 -38 15 -10 115 97 136 145 23 52 23 61 0 61 -16 0
-19 -5 -15 -22 4 -14 -2 -35 -16 -57 l-22 -36 -5 55 c-5 54 -6 55 -37 58 -19
2 -33 -1 -33 -7z"/>
<path d="M9612 4921 c-8 -4 -26 -32 -41 -62 -15 -30 -32 -63 -38 -74 -27 -51
-53 -118 -49 -122 14 -14 35 11 55 65 12 33 31 71 42 84 l20 23 -5 -565 c-4
-311 -6 -861 -6 -1222 0 -410 -4 -658 -10 -658 -5 0 -47 28 -92 63 -46 35 -98
72 -117 83 -18 10 -47 31 -63 47 -17 15 -35 27 -40 27 -6 0 -49 28 -97 63
-150 110 -231 167 -237 167 -4 0 -36 21 -72 48 -180 130 -270 192 -280 192 -5
0 -22 14 -38 30 -16 17 -42 37 -59 45 -16 9 -73 47 -125 86 -52 39 -105 75
-117 80 -13 5 -23 12 -23 17 0 5 -12 15 -27 23 -27 14 -165 111 -289 203 -34
25 -64 46 -69 46 -4 0 -42 26 -85 58 -209 154 -248 182 -258 182 -6 0 -17 9
-24 19 -8 10 -31 29 -53 42 -22 12 -58 37 -80 54 -22 17 -67 50 -100 73 -33
23 -80 58 -105 77 -25 19 -48 35 -53 35 -10 0 -124 79 -273 190 -23 16 -44 30
-47 30 -3 0 -60 39 -127 88 -66 48 -131 94 -145 102 -39 24 -43 1 -5 -31 37
-32 258 -189 265 -189 2 0 53 -35 112 -78 135 -97 202 -142 212 -142 4 0 20
-13 37 -28 16 -16 36 -31 44 -34 8 -3 64 -42 124 -87 60 -44 113 -81 118 -81
5 0 23 -14 40 -31 17 -17 41 -34 52 -39 12 -4 86 -56 166 -116 80 -59 154
-112 165 -118 11 -6 58 -38 104 -71 45 -33 93 -67 105 -75 12 -8 46 -33 76
-56 30 -22 63 -43 73 -47 9 -3 17 -11 17 -17 0 -6 5 -8 10 -5 6 3 10 2 10 -3
0 -5 12 -15 27 -23 23 -12 147 -100 283 -201 25 -18 56 -39 70 -46 14 -7 47
-30 75 -50 80 -60 136 -100 195 -139 30 -20 72 -47 93 -61 20 -14 37 -29 37
-33 0 -5 5 -9 11 -9 6 0 64 -38 129 -85 65 -47 123 -85 128 -85 6 0 23 -13 39
-30 15 -17 32 -30 38 -30 5 0 55 -34 110 -75 55 -41 103 -75 108 -75 4 0 7 -4
7 -9 0 -10 -94 -82 -122 -93 -10 -4 -18 -12 -18 -17 0 -5 -23 -23 -50 -40 -28
-17 -117 -82 -198 -144 -81 -62 -155 -116 -165 -120 -9 -3 -17 -11 -17 -16 0
-5 -28 -27 -62 -49 -35 -22 -125 -88 -201 -146 -76 -58 -141 -106 -145 -106
-4 -1 -25 -19 -47 -40 -22 -22 -43 -40 -48 -40 -5 0 -72 -48 -150 -106 l-142
-107 -1197 7 c-1072 6 -1198 5 -1198 -9 0 -13 23 -15 153 -16 83 0 211 -2 282
-3 72 -2 533 -3 1025 -4 528 -2 889 -6 881 -11 -8 -5 -28 -21 -45 -36 -31 -26
-123 -96 -216 -165 -26 -19 -75 -56 -108 -82 -33 -27 -64 -48 -69 -48 -4 0
-23 -16 -42 -35 -19 -19 -38 -35 -43 -35 -18 0 -218 -156 -218 -170 0 -23 33
-5 123 65 52 41 99 75 104 75 5 0 27 15 49 33 21 18 74 60 118 92 112 86 136
104 204 157 33 27 65 48 70 48 6 0 22 14 35 30 14 17 29 30 32 30 4 0 21 10
38 23 l32 22 688 0 689 0 -4 -382 c-2 -335 1 -409 16 -392 2 3 11 411 16 772
0 4 334 7 743 6 l742 -2 115 -86 c119 -88 188 -138 218 -156 9 -5 22 -17 29
-25 7 -8 13 -10 13 -5 0 6 3 5 8 -1 4 -6 59 -46 122 -89 63 -43 144 -100 179
-128 36 -27 72 -52 81 -54 8 -3 40 -25 72 -49 52 -41 88 -55 88 -36 0 10 -222
176 -268 201 -13 7 -88 59 -168 117 -81 58 -157 109 -169 114 -13 5 -31 20
-40 34 -9 14 -27 28 -38 32 -18 6 -143 92 -181 126 -6 4 195 6 445 3 249 -2
753 -4 1119 -5 l665 0 -82 -47 c-46 -26 -83 -53 -83 -60 0 -19 11 -17 92 23
120 58 168 86 168 98 0 17 -217 136 -248 136 -30 0 -3 -27 59 -58 137 -70 238
-64 -1039 -58 l-1153 5 -69 50 c-38 28 -73 51 -77 51 -5 0 -19 12 -32 25 -13
14 -28 25 -33 25 -6 0 -39 20 -74 45 -34 25 -65 45 -68 45 -3 0 -17 11 -32 25
-15 14 -31 25 -35 25 -5 0 -62 38 -127 85 -66 47 -122 85 -125 85 -3 0 -21 14
-39 30 -18 17 -38 30 -44 30 -6 0 -21 8 -32 18 -12 9 -36 27 -54 40 -18 13
-69 49 -113 81 -44 33 -99 69 -121 82 -23 13 -55 34 -70 47 -52 40 -197 140
-266 182 -38 22 -68 44 -68 48 0 4 16 18 34 32 18 14 59 44 89 67 31 24 59 43
62 43 3 0 45 30 93 67 163 127 240 183 249 183 4 0 24 16 43 35 19 19 38 35
43 35 4 0 77 52 161 115 84 63 157 115 162 115 6 0 25 16 44 35 19 19 39 35
45 35 6 0 29 15 51 33 65 54 173 137 179 137 4 0 72 50 153 112 279 212 301
228 311 228 6 0 15 9 21 19 5 11 27 30 47 42 21 13 104 74 185 136 81 63 158
119 170 126 13 7 39 27 58 45 19 17 39 32 45 32 5 0 40 24 76 53 150 118 261
202 272 206 7 2 23 15 37 29 14 13 32 27 41 31 31 12 268 196 269 209 0 30 6
33 -328 -216 -101 -75 -211 -157 -245 -181 -34 -24 -104 -76 -155 -115 -158
-120 -207 -155 -218 -155 -7 -1 -14 -7 -17 -14 -3 -8 -29 -30 -59 -49 -42 -29
-247 -183 -318 -241 -8 -7 -46 -35 -84 -62 -133 -97 -311 -230 -330 -247 -11
-10 -24 -18 -29 -18 -5 0 -28 -18 -50 -41 -23 -22 -57 -49 -78 -59 -20 -11
-47 -28 -60 -39 -37 -32 -359 -271 -364 -271 -6 0 -30 -18 -227 -168 -74 -56
-140 -102 -147 -102 -6 0 -11 -5 -11 -10 0 -6 -24 -26 -53 -44 -29 -19 -78
-55 -107 -80 -30 -25 -57 -46 -61 -46 -3 0 -5 26 -3 57 2 31 4 451 6 932 2
482 4 1004 6 1161 l3 285 24 -45 c13 -25 33 -64 45 -87 23 -46 35 -59 45 -44
3 6 -19 59 -48 118 -30 59 -58 118 -63 130 -6 15 -13 20 -22 14z m-30 -3078
c-2 -289 -8 -493 -14 -500 -7 -8 -88 -11 -311 -8 -166 2 -456 3 -645 4 -200 1
-342 5 -340 10 3 10 126 106 204 161 28 19 113 82 188 139 76 57 150 110 166
117 15 8 31 21 34 29 3 8 24 26 48 42 24 15 108 76 187 136 79 60 153 114 165
121 11 6 37 26 56 44 19 17 38 32 43 32 8 0 132 93 147 110 9 10 65 49 71 50
3 0 3 -219 1 -487z m53 467 c3 -5 20 -16 38 -25 18 -8 55 -32 83 -54 91 -68
242 -171 253 -171 6 0 11 -3 11 -7 0 -5 43 -37 96 -73 52 -36 121 -84 152
-107 31 -23 62 -43 68 -43 6 0 22 -11 36 -24 14 -12 32 -26 39 -29 8 -4 37
-24 65 -44 145 -106 184 -133 193 -133 6 0 11 -4 11 -10 0 -10 116 -90 131
-90 5 0 9 -4 9 -10 0 -5 21 -22 48 -37 56 -32 154 -104 149 -109 -2 -2 -318
-4 -703 -4 l-699 0 -3 490 c-2 455 1 516 23 480z"/>
<path d="M6588 4913 c-10 -2 -17 -12 -16 -21 4 -58 -1 -67 -39 -67 -31 0 -41
-6 -60 -35 -15 -22 -23 -45 -21 -65 3 -29 4 -30 58 -31 58 0 92 13 69 27 -10
6 -6 29 14 97 34 113 35 106 -5 95z m-28 -112 c0 -17 -46 -76 -63 -79 -21 -4
-21 8 -3 53 12 27 21 35 40 35 15 0 26 -4 26 -9z"/>
<path d="M12627 4896 c3 -13 -2 -39 -10 -57 -25 -54 -40 -120 -29 -131 5 -5
27 -8 48 -6 31 2 43 10 61 37 31 46 31 89 -1 97 -14 3 -30 3 -37 -2 -12 -7
-10 12 7 69 4 13 0 17 -19 17 -20 0 -23 -4 -20 -24z m58 -118 c-9 -43 -22 -58
-50 -58 -21 0 -22 3 -15 36 9 39 23 54 53 54 16 0 17 -5 12 -32z"/>
<path d="M13224 4904 c-13 -11 -15 -17 -6 -20 16 -7 17 -155 0 -172 -9 -9 -3
-12 27 -12 30 0 36 3 27 12 -8 8 -12 47 -12 110 0 54 -4 98 -8 98 -5 0 -17 -7
-28 -16z"/>
<path d="M1640 4890 c0 -11 7 -20 15 -20 8 0 15 9 15 20 0 11 -7 20 -15 20 -8
0 -15 -9 -15 -20z"/>
<path d="M7125 4894 c-14 -11 -16 -18 -7 -21 8 -3 12 -31 12 -89 0 -60 -4 -84
-12 -85 -7 0 -3 -4 10 -9 30 -13 56 -2 41 16 -6 7 -10 43 -8 81 4 129 2 136
-36 107z"/>
<path d="M12430 4836 c0 -35 -1 -36 -40 -36 -29 0 -40 -4 -40 -15 0 -10 11
-15 35 -15 36 0 40 -7 36 -52 -1 -10 4 -18 13 -18 12 0 16 10 16 35 0 32 2 35
31 35 38 0 35 24 -4 28 -22 3 -27 8 -27 32 0 16 -4 32 -10 35 -6 4 -10 -8 -10
-29z"/>
<path d="M6270 4821 c0 -28 -3 -31 -30 -31 -20 0 -30 -5 -30 -15 0 -10 10 -15
30 -15 28 0 30 -3 30 -35 0 -19 5 -35 10 -35 6 0 10 13 10 29 0 35 14 46 52
42 20 -2 28 2 28 13 0 12 -10 16 -39 16 -37 0 -40 2 -38 26 1 15 -4 29 -10 31
-9 3 -13 -6 -13 -26z"/>
<path d="M12006 4809 c-47 -56 -27 -133 26 -100 15 10 23 10 34 0 20 -16 34
-1 39 42 1 19 6 46 10 62 7 26 6 27 -38 27 -38 0 -49 -5 -71 -31z m74 0 c0
-27 -37 -79 -56 -79 -23 0 -16 44 11 74 29 31 45 33 45 5z"/>
<path d="M12178 4823 c39 -27 23 -77 -31 -96 -10 -4 -15 -11 -12 -17 10 -16
34 -11 47 10 17 26 22 25 37 -6 11 -26 12 -26 31 -9 23 21 26 40 6 32 -9 -4
-16 4 -19 21 -6 29 7 52 29 52 8 0 14 7 14 15 0 20 -19 19 -42 -2 -17 -15 -18
-15 -18 0 0 13 -9 17 -32 16 -33 0 -33 0 -10 -16z"/>
<path d="M12750 4831 c0 -5 5 -11 11 -13 6 -2 13 -31 16 -64 6 -63 -2 -78 -41
-85 -29 -6 -34 -31 -5 -27 32 4 149 140 149 173 0 16 -6 25 -16 25 -12 0 -15
-6 -11 -20 3 -13 -3 -31 -19 -48 l-23 -27 -1 25 c-1 50 -11 70 -36 70 -13 0
-24 -4 -24 -9z"/>
<path d="M5893 4815 c-13 -9 -28 -33 -34 -55 -14 -47 -1 -70 41 -70 28 0 69
35 55 48 -4 4 -10 1 -12 -5 -3 -7 -16 -13 -29 -13 -20 0 -24 5 -24 30 0 17 9
39 20 50 24 24 42 26 34 5 -4 -9 0 -15 10 -15 9 0 16 8 16 20 0 25 -45 28 -77
5z"/>
<path d="M6020 4824 c0 -3 7 -12 15 -20 30 -30 13 -84 -27 -84 -11 0 -15 -5
-12 -15 9 -22 30 -18 48 7 13 18 16 19 16 6 0 -22 37 -33 55 -18 19 16 19 34
0 26 -8 -3 -19 3 -25 14 -17 32 -11 48 20 55 17 4 30 13 30 21 0 20 -37 17
-50 -3 -10 -17 -10 -17 -20 0 -10 15 -50 25 -50 11z"/>
<path d="M6645 4821 c-3 -6 1 -11 9 -11 13 0 16 -13 16 -64 0 -62 -16 -96 -38
-82 -12 7 -35 -18 -25 -27 18 -19 47 -1 102 63 73 85 95 145 45 126 -12 -5
-14 -9 -5 -20 9 -11 5 -21 -16 -47 l-28 -33 -5 49 c-4 42 -9 51 -27 53 -11 2
-24 -2 -28 -7z"/>
<path d="M12967 4824 c-18 -18 -1 -24 73 -24 47 0 80 4 80 10 0 6 -26 10 -59
10 -33 0 -66 2 -73 5 -8 3 -17 2 -21 -1z"/>
<path d="M6860 4800 c0 -5 29 -11 65 -11 36 -1 70 -2 77 -3 6 -1 13 5 16 12 3
9 -17 12 -77 12 -47 0 -81 -4 -81 -10z"/>
<path d="M12960 4760 c0 -6 33 -10 80 -10 47 0 80 4 80 10 0 6 -33 10 -80 10
-47 0 -80 -4 -80 -10z"/>
<path d="M6865 4751 c-4 -7 14 -11 54 -11 33 0 63 -4 66 -10 10 -17 35 -11 35
8 0 15 -11 18 -74 20 -44 2 -77 -1 -81 -7z"/>
<path d="M1535 4683 c14 -13 16 -31 12 -96 -3 -47 -9 -82 -17 -87 -17 -10 18
-18 50 -10 17 4 21 8 12 14 -16 10 -17 167 0 184 9 9 3 12 -31 12 -40 0 -41
-1 -26 -17z"/>
<path d="M1633 4689 c24 -14 25 -173 1 -187 -14 -8 -11 -10 14 -14 35 -5 61 5
43 16 -14 9 -15 151 -1 177 10 17 7 19 -32 19 -34 -1 -39 -3 -25 -11z"/>
<path d="M2546 4687 c-38 -28 -40 -149 -3 -194 16 -21 52 -15 78 13 20 22 24
36 24 91 0 56 -3 67 -24 84 -27 22 -50 24 -75 6z m58 -23 c3 -9 6 -42 6 -73 0
-44 -5 -62 -19 -75 -13 -12 -21 -14 -26 -6 -13 20 -17 115 -6 143 12 30 35 36
45 11z"/>
<path d="M2286 4643 c-14 -14 -3 -25 49 -49 l55 -25 -52 -28 c-60 -32 -78 -58
-32 -47 16 4 36 13 44 21 8 7 30 20 48 29 41 21 37 35 -11 52 -21 7 -51 22
-66 33 -16 11 -31 18 -35 14z"/>
<path d="M2117 4619 c-21 -12 -47 -61 -47 -88 0 -23 25 -51 45 -51 20 0 74 49
55 50 -9 0 -21 -5 -27 -11 -15 -15 -43 -4 -43 16 0 30 30 75 50 75 11 0 19 -6
18 -12 -2 -7 4 -13 12 -13 8 0 15 9 15 20 0 15 -7 21 -30 22 -16 2 -38 -2 -48
-8z"/>
<path d="M1737 4514 c-3 -3 -3 -12 0 -20 4 -11 9 -12 19 -3 8 6 14 15 14 20 0
10 -24 12 -33 3z"/>
<path d="M2109 4308 c0 -2 -2 -12 -4 -23 -1 -11 -12 -54 -23 -95 -25 -89 -17
-107 42 -96 41 8 76 47 76 86 0 33 -30 63 -55 54 -15 -6 -16 -2 -10 34 6 35 4
42 -9 42 -9 0 -16 -1 -17 -2z m59 -126 c5 -33 -24 -72 -53 -72 -21 0 -23 3
-16 28 20 68 62 94 69 44z"/>
<path d="M2668 4303 c-10 -3 -18 -16 -20 -36 -2 -26 -8 -33 -30 -37 -53 -10
-96 -67 -86 -117 6 -30 128 -28 128 3 0 8 -4 13 -9 9 -6 -3 -1 27 11 67 24 85
32 118 27 117 -2 -1 -12 -3 -21 -6z m-38 -112 c0 -24 -37 -71 -56 -71 -22 0
-16 36 12 69 27 32 44 33 44 2z"/>
<path d="M1538 4195 c3 -95 5 -105 22 -105 17 0 19 10 22 105 l3 105 -25 0
-25 0 3 -105z"/>
<path d="M1638 4195 c3 -95 5 -105 22 -105 17 0 19 10 22 105 l3 105 -25 0
-25 0 3 -105z"/>
<path d="M1737 4288 c4 -7 8 -53 8 -103 0 -82 2 -90 20 -93 19 -3 20 2 16 94
-2 73 0 99 10 105 9 6 1 9 -24 9 -28 0 -36 -3 -30 -12z"/>
<path d="M2280 4200 c0 -19 5 -21 77 -18 65 3 78 6 81 21 3 15 -6 17 -77 17
-75 0 -81 -2 -81 -20z"/>
<path d="M2282 4148 c3 -9 30 -14 82 -16 60 -2 77 0 74 10 -3 9 -30 14 -82 16
-60 2 -77 0 -74 -10z"/>
<path d="M1840 4110 c0 -13 5 -20 13 -17 6 2 12 10 12 17 0 7 -6 15 -12 18 -8
2 -13 -5 -13 -18z"/>
<path d="M3314 3566 c-6 -24 -11 -26 -56 -26 -30 0 -47 -4 -43 -10 3 -5 24
-10 46 -10 37 0 39 -2 29 -20 -6 -11 -29 -38 -52 -60 -23 -22 -36 -40 -28 -40
8 0 27 12 42 27 l28 27 0 -82 c0 -44 4 -83 9 -86 11 -7 21 18 21 55 0 28 1 29
54 29 40 0 55 -4 60 -16 9 -22 -3 -37 -25 -31 -32 9 -31 -10 2 -23 42 -18 48
-5 50 93 1 42 2 83 3 89 1 10 -18 12 -72 10 -63 -3 -71 -2 -66 12 5 13 23 16
94 16 49 0 92 5 95 10 8 12 -2 14 -87 10 -62 -2 -67 -1 -70 21 -4 32 -26 35
-34 5z m110 -138 c-4 -24 -7 -44 -8 -44 -1 -1 -25 1 -53 3 l-53 6 0 38 0 39
60 0 60 0 -6 -42z"/>
<path d="M3345 3420 c3 -5 17 -10 31 -10 13 0 24 5 24 10 0 6 -14 10 -31 10
-17 0 -28 -4 -24 -10z"/>
<path d="M2929 3500 c-1 -39 -2 -76 -3 -82 -1 -7 8 -12 19 -10 11 1 46 3 78 3
31 1 60 5 63 10 3 5 -26 9 -65 9 l-71 0 0 55 0 55 75 0 75 0 0 -69 c0 -39 5
-73 10 -76 6 -4 10 16 10 53 0 33 3 74 6 91 5 24 3 31 -10 31 -9 0 -16 -4 -16
-9 0 -12 -114 -13 -146 -1 -24 9 -24 9 -25 -60z"/>
<path d="M3970 3561 c0 -6 15 -11 33 -13 l32 -3 -1 -65 c-1 -71 -16 -109 -60
-153 -15 -15 -24 -30 -20 -34 14 -14 84 69 96 116 12 42 13 44 20 21 4 -14 13
-35 21 -47 11 -19 10 -24 -12 -42 -13 -12 -34 -24 -46 -27 -13 -3 -23 -10 -23
-15 0 -12 53 1 62 15 5 6 8 7 8 1 0 -5 4 -5 8 2 13 21 58 26 76 8 9 -9 16 -13
16 -8 0 4 4 3 8 -4 7 -11 26 -16 50 -14 20 2 14 19 -10 27 -13 4 -33 13 -45
21 l-22 15 29 53 c31 57 30 65 -7 65 -19 0 -23 4 -19 18 17 59 18 72 3 72 -9
0 -19 -5 -22 -10 -5 -8 -11 -7 -20 0 -8 7 -20 8 -27 4 -9 -6 -5 -10 12 -14 19
-4 26 -13 28 -38 3 -31 2 -32 -38 -32 -37 0 -41 2 -35 21 4 11 4 31 1 45 -6
21 -12 24 -51 24 -25 0 -45 -4 -45 -9z m199 -130 c-6 -17 -17 -35 -25 -42 -18
-15 -39 1 -53 42 l-10 29 49 0 49 0 -10 -29z"/>
<path d="M2088 3529 c-6 -18 -28 -65 -48 -106 l-37 -73 26 0 c23 0 27 4 26 28
0 24 4 27 38 30 34 3 38 1 43 -26 4 -20 13 -31 28 -34 42 -8 45 2 17 55 -16
29 -36 74 -46 100 -23 61 -33 66 -47 26z m26 -65 c10 -26 7 -34 -14 -34 -11 0
-20 4 -20 9 0 17 12 41 20 41 4 0 11 -7 14 -16z"/>
<path d="M3708 3541 c10 -6 13 -33 10 -105 l-3 -96 35 0 c26 0 31 3 22 12 -16
16 -16 170 0 186 9 9 2 12 -32 12 -28 0 -40 -3 -32 -9z"/>
<path d="M4474 3440 c-1 -95 0 -100 20 -100 20 0 21 5 21 100 0 93 -1 100 -20
100 -19 0 -20 -7 -21 -100z"/>
<path d="M4575 3440 c0 -100 0 -100 25 -100 l25 0 -3 100 c-3 95 -4 100 -25
100 -21 0 -22 -4 -22 -100z"/>
<path d="M2964 3386 c-3 -7 -25 -28 -50 -46 -54 -41 -58 -60 -6 -29 42 25 92
69 92 81 0 13 -30 9 -36 -6z"/>
<path d="M3060 3397 c0 -2 20 -25 44 -51 31 -34 46 -44 51 -35 5 8 -7 26 -33
51 -35 32 -62 47 -62 35z"/>
<path d="M2230 3366 c0 -21 21 -31 30 -15 5 7 6 17 4 21 -9 14 -34 9 -34 -6z"/>
<path d="M3306 2805 c-6 -22 -12 -25 -53 -25 -54 0 -48 -17 7 -22 l35 -3 -49
-53 c-55 -59 -55 -84 0 -31 l36 34 -4 -84 c-2 -61 0 -85 10 -88 8 -3 12 8 12
36 l0 41 61 0 c52 0 60 -2 57 -17 -3 -12 -12 -17 -26 -16 -29 4 -27 -8 4 -31
17 -12 29 -15 36 -8 5 5 11 52 14 104 l5 95 -72 -5 c-58 -4 -71 -2 -67 9 3 10
27 15 84 17 82 3 107 13 86 34 -9 9 -15 9 -24 0 -14 -14 -114 -16 -123 -3 -3
5 -1 12 5 16 13 8 3 25 -15 25 -7 0 -16 -11 -19 -25z m114 -105 c0 -11 0 -11
-67 -12 -27 -1 -49 4 -51 11 -2 7 16 11 57 11 34 0 61 -4 61 -10z m0 -50 c0
-18 -7 -20 -60 -20 -52 0 -60 2 -60 19 0 16 8 19 60 20 53 0 60 -2 60 -19z"/>
<path d="M2920 2726 c0 -86 1 -88 18 -73 27 24 147 24 156 0 12 -31 24 1 28
80 3 42 2 77 -1 77 -3 1 -50 2 -104 3 l-97 2 0 -89z m170 14 l0 -48 -70 -4
-70 -3 0 50 0 51 70 1 70 1 0 -48z"/>
<path d="M4063 2812 c-51 -1 -93 -7 -93 -12 0 -6 15 -10 34 -10 l33 0 -3 -46
c-5 -73 -15 -107 -40 -133 -13 -13 -24 -30 -24 -37 0 -8 -4 -14 -10 -14 -5 0
-10 -8 -10 -17 0 -35 88 76 95 120 l7 40 24 -48 c26 -55 25 -57 -46 -92 -24
-12 -30 -18 -19 -21 9 -1 37 8 62 23 56 31 57 31 87 3 14 -13 27 -22 30 -22 3
1 11 -1 18 -3 6 -3 20 -2 30 2 14 5 12 9 -13 22 -70 36 -78 43 -62 61 16 20
47 81 47 95 0 5 -12 6 -26 3 -25 -7 -26 -5 -22 26 3 18 7 39 9 47 5 17 3 17
-108 13z m72 -32 c3 -5 3 -21 -1 -35 -5 -21 -12 -25 -40 -25 -32 0 -34 2 -34
35 0 33 2 35 34 35 19 0 37 -4 41 -10z m35 -93 c0 -19 -29 -57 -44 -57 -14 0
-46 42 -46 60 0 5 20 10 45 10 30 0 45 -4 45 -13z"/>
<path d="M2000 2801 c0 -6 5 -11 10 -11 6 0 10 -35 10 -84 0 -47 -4 -88 -10
-91 -25 -16 -5 -25 54 -25 49 0 69 5 90 21 28 22 34 57 14 77 -7 7 -11 29 -9
50 1 23 -3 43 -11 49 -19 16 -148 28 -148 14z m110 -21 c13 0 20 -43 8 -57
-14 -18 -48 -16 -48 2 0 8 -4 15 -9 15 -5 0 -4 11 2 25 7 14 18 23 25 20 8 -3
17 -5 22 -5z m20 -105 c15 -19 4 -52 -21 -60 -26 -9 -59 3 -59 21 0 44 53 71
80 39z"/>
<path d="M3718 2704 c2 -53 -1 -91 -7 -97 -17 -17 -13 -22 17 -24 38 -3 61 5
43 16 -16 10 -23 104 -11 155 8 34 7 36 -19 36 l-26 0 3 -86z"/>
<path d="M4458 2783 c19 -7 17 -172 -3 -179 -8 -4 -12 -10 -9 -15 6 -10 45
-12 68 -3 14 5 14 7 0 22 -13 12 -15 30 -11 88 3 41 8 78 12 84 4 6 -8 10 -32
9 -21 0 -32 -3 -25 -6z"/>
<path d="M4563 2772 c22 -24 24 -144 2 -165 -19 -19 -9 -27 32 -27 32 0 43 12
23 25 -15 9 -13 172 3 178 6 3 -8 6 -32 6 -42 1 -43 0 -28 -17z"/>
<path d="M4668 2778 c19 -19 16 -167 -3 -174 -28 -11 -15 -24 24 -24 42 0 62
14 36 24 -13 4 -15 22 -14 83 1 43 6 84 11 91 8 9 1 12 -28 12 -30 0 -35 -3
-26 -12z"/>
<path d="M2915 2595 c-33 -30 -54 -55 -47 -55 28 0 135 86 126 102 -9 14 -17
9 -79 -47z"/>
<path d="M3050 2646 c0 -2 20 -25 45 -52 31 -33 48 -45 55 -38 8 8 -3 24 -34
52 -39 36 -66 52 -66 38z"/>
<path d="M2215 2620 c-8 -14 3 -30 21 -30 8 0 14 9 14 20 0 21 -24 28 -35 10z"/>
<path d="M3307 2063 c-4 -3 -7 -15 -7 -25 0 -15 -8 -18 -51 -18 -31 0 -48 -4
-44 -10 3 -5 22 -10 41 -10 19 0 34 -5 34 -12 0 -6 -20 -31 -45 -55 -25 -23
-45 -45 -45 -48 0 -12 21 -3 49 21 l31 26 0 -81 c0 -86 15 -110 26 -41 l7 40
53 0 c41 0 54 -4 54 -15 0 -14 -12 -19 -32 -16 -15 2 -8 -16 13 -35 20 -18 21
-18 35 1 12 16 21 155 12 183 -2 4 -33 5 -71 3 -58 -3 -66 -1 -61 13 6 16 30
19 125 16 48 -1 70 13 50 33 -8 8 -14 8 -23 -1 -14 -14 -124 -16 -133 -3 -3 5
-1 12 5 16 5 3 10 10 10 16 0 10 -23 12 -33 2z m108 -122 c-16 -15 -125 -18
-125 -3 0 8 20 12 67 12 41 0 63 -4 58 -9z m-5 -51 c0 -17 -7 -20 -53 -20 -58
0 -68 4 -60 26 3 10 22 14 59 14 47 0 54 -2 54 -20z"/>
<path d="M2916 1972 c1 -83 8 -109 20 -78 9 23 154 24 154 1 0 -8 5 -15 10
-15 6 0 11 29 12 65 1 36 2 74 2 86 1 19 -5 21 -99 22 l-100 2 1 -83z m174 8
l0 -50 -75 0 -75 0 0 48 0 48 75 2 75 2 0 -50z"/>
<path d="M4157 2053 c-59 -2 -95 -8 -92 -13 4 -6 20 -10 37 -10 l31 0 -5 -67
c-4 -55 -11 -77 -37 -115 -18 -26 -36 -50 -42 -53 -5 -4 -7 -10 -4 -16 12 -18
104 112 106 149 0 9 5 4 11 -13 6 -16 17 -38 24 -48 10 -16 9 -22 -8 -39 -11
-11 -32 -24 -47 -28 -20 -7 -22 -8 -6 -9 11 -1 37 8 58 19 l37 20 40 -20 c39
-20 80 -26 80 -12 0 7 -37 25 -77 37 -23 6 -30 20 -14 27 11 4 61 85 61 98 0
7 -13 9 -35 4 -22 -4 -35 -2 -35 4 0 6 4 12 9 14 12 4 26 79 15 76 -5 -1 -53
-4 -107 -5z m79 -45 c-3 -13 -6 -29 -6 -35 0 -8 -14 -13 -35 -13 -33 0 -35 2
-35 35 0 34 1 35 41 35 38 0 41 -2 35 -22z m14 -118 c-26 -37 -31 -37 -53 -1
-25 43 -22 50 26 53 50 4 57 -9 27 -52z"/>
<path d="M2046 2029 c-42 -33 -59 -81 -46 -128 12 -47 27 -60 74 -68 40 -6
106 21 106 44 0 9 -12 6 -37 -8 -36 -20 -39 -20 -69 -4 -59 31 -53 120 9 155
27 15 29 14 58 -18 31 -34 44 -28 37 19 -3 18 -11 22 -54 26 -41 3 -56 0 -78
-18z"/>
<path d="M3709 1941 c2 -65 -1 -96 -9 -101 -7 -4 1 -10 21 -14 33 -6 60 6 40
18 -14 9 -15 168 -1 182 5 6 -3 9 -23 9 l-32 0 4 -94z"/>
<path d="M3818 1943 c3 -80 2 -94 -13 -99 -23 -9 0 -24 37 -24 31 0 45 15 22
24 -14 6 -16 18 -11 84 3 42 8 84 11 92 5 11 -1 15 -21 15 l-28 0 3 -92z"/>
<path d="M4565 2030 c-24 -4 -26 -7 -12 -12 14 -6 17 -21 17 -88 0 -62 -3 -82
-15 -86 -24 -10 -7 -24 29 -24 41 0 49 8 30 27 -11 12 -14 32 -9 90 3 42 7 79
10 83 7 12 -17 17 -50 10z"/>
<path d="M4653 2019 c14 -8 17 -25 17 -94 0 -50 -4 -85 -10 -85 -5 0 -10 -4
-10 -10 0 -5 18 -10 40 -10 22 0 40 5 40 10 0 6 -4 10 -10 10 -15 0 -13 177 3
183 6 3 -10 6 -38 6 -39 0 -46 -2 -32 -10z"/>
<path d="M4763 2019 c23 -14 26 -166 2 -175 -30 -12 -14 -24 30 -24 44 0 60
12 30 24 -19 7 -22 155 -3 174 9 9 2 12 -32 12 -36 -1 -41 -3 -27 -11z"/>
<path d="M2935 1856 c-16 -18 -41 -40 -54 -49 -42 -29 -15 -30 31 -1 48 30 78
58 78 74 0 19 -25 9 -55 -24z"/>
<path d="M3050 1883 c1 -5 21 -30 45 -58 39 -43 45 -47 45 -26 0 13 -15 38
-34 57 -32 32 -57 44 -56 27z"/>
<path d="M2205 1860 c-8 -14 3 -30 21 -30 8 0 14 9 14 20 0 21 -24 28 -35 10z"/>
<path d="M3870 1288 c0 -5 16 -8 36 -8 l37 0 -5 -68 c-5 -72 -25 -120 -66
-164 -38 -41 -17 -47 23 -8 20 19 41 53 47 75 15 54 24 62 32 29 4 -16 17 -35
28 -42 20 -14 19 -15 -13 -31 -48 -23 -79 -44 -79 -54 0 -9 42 1 50 12 11 14
75 39 85 34 5 -4 21 -13 34 -22 25 -16 59 -22 66 -11 2 4 -15 17 -38 30 -54
30 -52 27 -39 42 23 29 52 90 47 99 -4 5 -18 6 -32 3 -24 -6 -25 -5 -18 27 15
64 19 61 -92 63 -57 0 -103 -2 -103 -6z m168 -50 c-3 -30 -6 -33 -39 -36 -34
-3 -37 -1 -37 25 0 39 4 43 44 43 34 0 35 -1 32 -32z m36 -75 c-8 -29 -38 -63
-49 -55 -5 4 -18 22 -28 40 l-18 32 49 0 c43 0 49 -3 46 -17z"/>
<path d="M1998 1278 c15 -15 17 -188 2 -188 -5 0 -10 -4 -10 -10 0 -6 29 -10
66 -10 62 0 68 2 100 34 28 28 34 41 34 78 0 75 -43 108 -139 108 -51 0 -62
-3 -53 -12z m111 -17 c7 -5 21 -26 30 -47 16 -36 16 -40 -1 -76 -19 -38 -52
-56 -83 -44 -12 4 -15 22 -14 78 1 40 6 79 11 86 12 14 37 16 57 3z"/>
<path d="M3500 1281 c0 -6 5 -13 10 -16 6 -3 10 -44 10 -90 0 -46 -4 -87 -10
-90 -22 -13 -8 -25 30 -25 44 0 48 4 25 26 -12 12 -14 33 -10 100 4 78 3 84
-15 84 -11 0 -20 5 -20 10 0 6 -4 10 -10 10 -5 0 -10 -4 -10 -9z"/>
<path d="M2890 1245 c0 -20 4 -26 18 -23 9 2 17 12 17 23 0 11 -8 21 -17 23
-14 3 -18 -3 -18 -23z"/>
<path d="M3628 1180 c3 -75 1 -91 -12 -96 -23 -9 -9 -24 23 -24 34 0 44 9 30
26 -6 8 -9 48 -7 98 3 80 2 86 -17 86 -19 0 -20 -5 -17 -90z"/>
<path d="M4368 1258 c18 -18 16 -153 -3 -172 -23 -22 -19 -26 25 -26 22 0 40
5 40 10 0 6 -5 10 -11 10 -7 0 -9 32 -7 95 l3 95 -29 0 c-23 0 -27 -3 -18 -12z"/>
<path d="M4478 1184 c2 -53 -1 -91 -7 -97 -19 -19 -12 -27 23 -27 38 0 55 14
30 24 -13 5 -15 21 -12 96 3 85 2 90 -17 90 -19 0 -20 -6 -17 -86z"/>
<path d="M4578 1175 c2 -63 0 -95 -7 -95 -6 0 -11 -4 -11 -10 0 -5 18 -10 40
-10 22 0 40 5 40 10 0 6 -5 10 -11 10 -7 0 -9 32 -7 95 l3 95 -25 0 -25 0 3
-95z"/>
<path d="M3150 1194 c0 -15 42 -64 51 -59 15 10 10 37 -8 51 -19 14 -43 18
-43 8z"/>
<path d="M9362 1170 c-64 -39 -92 -127 -56 -178 19 -28 76 -30 119 -4 40 25
79 103 70 142 -13 58 -73 76 -133 40z m87 -13 c18 -22 7 -82 -22 -126 -22 -33
-33 -41 -57 -41 -19 0 -33 7 -40 20 -37 68 72 203 119 147z"/>
<path d="M2890 1120 c0 -61 4 -67 30 -50 12 8 13 12 2 19 -8 4 -13 19 -12 32
4 41 0 59 -10 59 -6 0 -10 -27 -10 -60z"/>
<path d="M13420 1111 c0 -5 7 -12 16 -15 27 -10 14 -68 -19 -84 -15 -7 -25
-17 -22 -23 9 -14 31 -11 45 6 7 8 16 15 21 15 5 0 9 -7 9 -15 0 -18 31 -20
48 -3 17 17 15 26 -5 24 -13 -1 -19 8 -21 31 -3 28 1 33 22 39 14 3 26 12 26
20 0 17 -14 18 -41 2 -17 -10 -23 -10 -26 0 -5 14 -53 17 -53 3z"/>
<path d="M2215 1100 c-10 -16 16 -43 28 -31 11 11 2 41 -12 41 -5 0 -13 -5
-16 -10z"/>
</g>
</svg>
