<?xml version="1.0" standalone="no"?>
<!DOCTYPE svg PUBLIC "-//W3C//DTD SVG 20010904//EN"
 "http://www.w3.org/TR/2001/REC-SVG-20010904/DTD/svg10.dtd">
<svg version="1.0" xmlns="http://www.w3.org/2000/svg"
 width="955.000000pt" height="839.000000pt" viewBox="0 0 955.000000 839.000000"
 preserveAspectRatio="xMidYMid meet">
<metadata>
Created by potrace 1.16, written by Peter Selinger 2001-2019
</metadata>
<g transform="translate(0.000000,839.000000) scale(0.100000,-0.100000)"
fill="#000000" stroke="none">
<path d="M1756 8119 c-4 -23 -10 -29 -23 -25 -16 5 -18 -4 -19 -104 0 -85 3
-110 13 -110 7 0 13 5 13 11 0 8 14 10 39 6 46 -6 49 -1 46 66 -1 32 2 47 11
47 7 0 18 14 26 30 11 27 18 30 56 30 l44 0 -7 -72 c-10 -108 -11 -111 -51
-106 -22 3 -34 0 -34 -8 0 -13 53 -26 75 -18 19 8 33 61 37 152 l4 72 -54 0
c-49 0 -52 1 -42 19 13 26 13 31 -5 31 -9 0 -19 -17 -26 -45 -14 -55 -29 -68
-29 -25 0 30 -2 31 -30 25 -34 -7 -37 -3 -14 19 16 17 11 36 -10 36 -8 0 -16
-14 -20 -31z m44 -79 c0 -27 -3 -30 -30 -30 -27 0 -30 3 -30 30 0 27 3 30 30
30 27 0 30 -3 30 -30z m-2 -82 c-2 -28 -8 -34 -30 -36 -26 -3 -28 -1 -28 32 0
33 2 36 31 36 28 0 30 -2 27 -32z"/>
<path d="M2090 8130 c0 -16 -7 -20 -31 -20 -17 0 -28 -4 -24 -10 3 -5 17 -10
31 -10 13 0 24 -5 24 -11 0 -6 -9 -8 -20 -4 -19 6 -20 2 -20 -55 0 -58 1 -61
21 -55 17 6 20 3 17 -12 -3 -13 -12 -17 -32 -16 -17 1 -26 -2 -23 -10 2 -7 16
-11 31 -9 26 3 27 1 21 -27 -5 -24 -3 -31 9 -31 11 0 16 9 16 31 0 28 3 31 24
27 27 -5 55 7 43 18 -3 4 -19 7 -34 8 -16 1 -26 6 -23 11 5 10 85 9 102 -1 5
-4 9 -22 8 -43 -3 -54 -1 -63 10 -56 6 3 10 28 10 56 l0 49 36 0 c24 0 34 4
31 13 -2 7 -17 11 -35 9 -47 -5 -41 22 8 37 22 6 40 15 40 19 0 5 -16 23 -35
42 -19 19 -35 40 -35 47 0 7 -9 13 -20 13 -13 0 -20 -7 -20 -19 0 -10 -7 -21
-15 -25 -8 -3 -15 -12 -15 -19 0 -8 -7 -20 -15 -27 -13 -10 -15 -9 -15 9 0 18
-4 20 -25 15 -15 -4 -25 -2 -25 5 0 6 16 11 36 11 31 0 35 2 24 15 -8 10 -21
13 -39 8 -23 -5 -24 -4 -13 9 10 13 10 17 -4 22 -23 9 -24 8 -24 -14z m176
-56 c15 -22 15 -27 3 -35 -16 -10 -69 -12 -69 -3 0 5 42 62 47 63 2 1 10 -11
19 -25z m-148 -36 c-7 -20 -48 -23 -48 -4 0 11 9 16 26 16 16 0 24 -5 22 -12z
m112 -39 c0 -15 -7 -19 -35 -19 -27 0 -35 4 -35 18 0 26 6 29 40 24 21 -3 30
-10 30 -23z m-100 1 c0 -5 -13 -10 -30 -10 -16 0 -30 5 -30 10 0 6 14 10 30
10 17 0 30 -4 30 -10z"/>
<path d="M1297 8134 c-3 -3 -58 -6 -121 -6 -93 0 -116 -3 -116 -14 0 -10 15
-14 60 -14 l60 0 0 -120 c0 -73 4 -120 10 -120 6 0 10 39 10 96 l0 95 45 -37
c25 -20 48 -35 50 -32 12 11 -8 35 -50 61 -65 42 -60 57 21 57 56 0 65 2 62
17 -3 18 -20 27 -31 17z"/>
<path d="M1502 8133 c-76 -2 -121 -7 -117 -13 3 -6 31 -10 61 -10 30 0 54 -3
54 -7 -1 -23 -20 -35 -54 -32 l-37 4 -2 -108 c-2 -80 1 -107 10 -107 7 0 13 4
13 9 0 13 171 13 187 -1 7 -6 15 -9 17 -7 2 2 6 51 8 109 l3 105 -68 -3 c-67
-4 -68 -4 -55 17 11 18 23 21 76 21 47 0 63 3 60 13 -5 14 1 14 -156 10z m-34
-161 c3 -67 1 -72 -18 -72 -18 0 -20 6 -20 68 0 38 3 72 7 76 18 17 28 -7 31
-72z m85 71 c10 -10 -13 -33 -34 -33 -21 0 -33 15 -24 30 7 11 48 14 58 3z
m67 -68 c0 -67 -2 -75 -19 -75 -23 0 -29 21 -26 86 4 67 3 64 25 64 18 0 20
-7 20 -75z m-67 -1 c-7 -18 -54 -15 -60 3 -2 6 6 13 19 15 33 5 48 -1 41 -18z
m-15 -52 c3 -18 -2 -22 -23 -22 -14 0 -24 3 -22 8 2 4 7 15 10 25 9 24 31 17
35 -11z"/>
<path d="M2460 8124 c0 -14 -8 -16 -45 -11 -32 3 -45 1 -42 -7 2 -6 21 -10 46
-8 25 1 41 -2 41 -9 0 -6 -7 -9 -15 -5 -9 3 -19 -3 -25 -14 -6 -11 -20 -20
-30 -20 -11 0 -20 -4 -20 -9 0 -4 10 -8 23 -7 19 1 22 -5 25 -36 3 -35 1 -38
-22 -38 -14 0 -26 -4 -26 -10 0 -5 20 -10 44 -10 62 0 64 -14 6 -39 -28 -12
-50 -26 -50 -31 0 -10 47 2 92 24 40 20 38 21 38 -14 0 -16 4 -30 9 -30 11 0
24 48 16 60 -10 16 3 12 46 -16 40 -25 69 -28 76 -9 2 6 -17 17 -42 24 -58 17
-58 31 0 31 25 0 45 2 45 5 0 3 -7 17 -16 31 -12 17 -22 23 -35 19 -14 -5 -19
-1 -19 14 0 15 6 21 23 21 29 0 51 15 43 29 -9 15 -36 14 -36 -1 0 -6 -9 -2
-20 10 -28 30 -25 35 14 28 37 -7 57 7 37 27 -8 8 -14 8 -23 -1 -18 -18 -49
-15 -42 3 4 10 0 15 -15 15 -14 0 -19 -5 -15 -15 5 -11 -1 -15 -25 -15 -21 0
-31 5 -31 15 0 8 -7 15 -15 15 -8 0 -15 -7 -15 -16z m95 -45 c5 -6 5 -13 -3
-21 -9 -9 -18 -5 -39 17 l-28 28 30 -7 c17 -4 34 -12 40 -17z m-70 -18 c-3 -6
-11 -8 -17 -5 -6 4 -5 9 3 15 16 10 23 4 14 -10z m5 -52 c0 -10 -7 -19 -15
-19 -9 0 -15 9 -15 25 0 18 4 23 15 19 8 -4 15 -15 15 -25z m70 15 c0 -2 -12
-4 -26 -4 -14 0 -23 4 -20 9 6 8 46 4 46 -5z m-7 -31 c-7 -2 -21 -2 -30 0 -10
3 -4 5 12 5 17 0 24 -2 18 -5z m-60 -30 c-7 -2 -21 -2 -30 0 -10 3 -4 5 12 5
17 0 24 -2 18 -5z m105 0 c-16 -2 -40 -2 -55 0 -16 2 -3 4 27 4 30 0 43 -2 28
-4z"/>
<path d="M2710 8000 l0 -135 130 0 130 0 2 123 c0 67 1 127 2 133 1 7 -43 11
-132 12 l-132 2 0 -135z m78 83 c-2 -22 2 -29 20 -31 40 -6 23 -22 -23 -22
l-45 0 0 40 c0 36 2 40 25 40 22 0 25 -4 23 -27z m45 20 c-7 -2 -19 -2 -25 0
-7 3 -2 5 12 5 14 0 19 -2 13 -5z m50 0 c-7 -2 -19 -2 -25 0 -7 3 -2 5 12 5
14 0 19 -2 13 -5z m60 -5 c-2 -5 -3 -21 -3 -36 0 -21 -5 -28 -20 -28 -16 0
-19 6 -17 38 2 32 5 38 22 36 11 -2 19 -6 18 -10z m-85 -25 c-10 -2 -26 -2
-35 0 -10 3 -2 5 17 5 19 0 27 -2 18 -5z m22 -33 c0 -5 -7 -10 -16 -10 -8 0
-12 5 -9 10 3 6 10 10 16 10 5 0 9 -4 9 -10z m-110 -85 c0 -57 -2 -65 -19 -65
-16 0 -18 7 -15 55 1 30 6 60 9 65 16 25 25 5 25 -55z m68 58 c-10 -2 -26 -2
-35 0 -10 3 -2 5 17 5 19 0 27 -2 18 -5z m104 -58 c-4 -73 -22 -89 -22 -19 0
37 13 84 23 84 1 0 0 -29 -1 -65z m-145 -17 c-2 -13 -4 -5 -4 17 -1 22 1 32 4
23 2 -10 2 -28 0 -40z m56 45 c-7 -2 -19 -2 -25 0 -7 3 -2 5 12 5 14 0 19 -2
13 -5z m44 -45 c-2 -13 -4 -5 -4 17 -1 22 1 32 4 23 2 -10 2 -28 0 -40z m-47
19 c0 -8 -7 -14 -15 -14 -25 0 -17 17 13 26 1 1 2 -5 2 -12z m28 -64 c-15 -2
-42 -2 -60 0 -18 2 -6 4 27 4 33 0 48 -2 33 -4z"/>
<path d="M3053 8073 c3 -41 1 -64 -7 -66 -8 -3 -8 -10 1 -25 10 -17 10 -24 -2
-36 -25 -24 -17 -33 28 -32 36 1 42 -2 45 -21 2 -13 8 -23 14 -23 6 0 8 11 6
25 -3 14 -1 25 3 25 9 0 13 -21 11 -52 -2 -22 -3 -22 53 2 25 11 43 24 40 30
-13 21 7 8 34 -22 25 -27 32 -31 43 -20 11 11 10 15 -5 24 -17 9 -19 21 -16
107 l4 96 -27 -3 c-21 -2 -26 1 -22 13 4 10 14 13 30 9 19 -5 24 -2 24 12 0
18 -10 19 -131 19 l-131 0 5 -62z m80 30 c-13 -2 -33 -2 -45 0 -13 2 -3 4 22
4 25 0 35 -2 23 -4z m97 -7 c0 -8 -10 -16 -22 -18 -19 -2 -24 -10 -26 -40 -2
-25 -8 -38 -18 -38 -8 0 -14 -5 -14 -12 0 -6 -3 -9 -6 -5 -3 3 1 16 10 29 9
12 16 39 16 60 0 36 2 38 30 38 19 0 30 -5 30 -14z m-97 -23 c-13 -2 -33 -2
-45 0 -13 2 -3 4 22 4 25 0 35 -2 23 -4z m147 -28 c0 -16 -55 -22 -64 -6 -8
13 5 21 36 21 18 0 28 -5 28 -15z m-130 -5 c0 -5 -4 -10 -10 -10 -5 0 -10 -7
-10 -15 0 -8 -6 -15 -14 -15 -8 0 -23 -3 -33 -6 -15 -6 -16 -4 -5 7 6 7 12 21
12 31 0 13 8 18 30 18 17 0 30 -4 30 -10z m130 -45 c0 -10 -10 -15 -30 -15
-20 0 -30 5 -30 15 0 10 10 15 30 15 20 0 30 -5 30 -15z m-151 -42 c-8 -9 -16
-10 -22 -4 -13 13 0 31 19 24 11 -4 12 -8 3 -20z m151 -3 c0 -16 -7 -20 -30
-20 -23 0 -30 4 -30 20 0 16 7 20 30 20 23 0 30 -4 30 -20z m-87 -44 c17 -13
16 -14 -2 -19 -13 -3 -21 1 -24 14 -6 22 1 24 26 5z"/>
<path d="M3790 8120 c0 -19 -5 -21 -42 -18 -24 1 -43 -2 -43 -7 0 -6 19 -11
43 -13 l43 -3 -2 -44 c-3 -47 7 -68 20 -46 9 14 31 7 31 -11 0 -7 -23 -9 -65
-6 -52 3 -65 1 -65 -10 0 -12 10 -14 50 -9 69 8 67 -14 -5 -48 -30 -14 -55
-30 -55 -35 0 -6 2 -10 4 -10 11 0 85 35 108 51 28 20 43 14 27 -11 -15 -25
-11 -52 9 -48 12 2 17 12 16 36 -1 39 14 41 46 7 24 -25 90 -36 90 -15 0 6 -7
10 -17 10 -21 0 -103 48 -103 60 0 5 24 8 53 7 29 -1 52 2 52 8 0 6 -24 9 -57
7 -48 -3 -58 -1 -58 12 0 9 5 16 10 16 6 0 10 -4 10 -10 0 -5 5 -10 10 -10 6
0 10 23 10 50 l0 50 45 0 c46 0 56 9 31 29 -10 8 -16 9 -21 1 -11 -19 -45 -11
-45 10 0 11 -7 20 -15 20 -8 0 -15 -9 -15 -20 0 -17 -7 -20 -39 -20 -30 0 -38
4 -37 16 0 9 -5 19 -11 21 -8 3 -13 -4 -13 -17z m97 -75 c1 -34 0 -35 -38 -35
-42 0 -44 2 -29 31 7 13 7 19 0 19 -5 0 -10 5 -10 10 0 6 17 10 38 10 37 0 38
-1 39 -35z"/>
<path d="M4508 8083 l-3 -58 -55 3 c-68 3 -101 -13 -47 -23 20 -4 53 -4 72 -1
l35 7 0 -55 c0 -32 -5 -58 -12 -62 -6 -4 -31 -7 -55 -5 -25 1 -43 -3 -43 -9 0
-6 45 -10 126 -10 96 0 125 3 121 13 -3 8 -22 11 -61 9 l-57 -4 3 58 3 58 64
1 c40 0 66 4 68 12 6 16 -35 27 -52 13 -16 -14 -85 -3 -85 14 0 6 4 27 10 46
7 25 7 36 -3 42 -22 14 -26 8 -29 -49z"/>
<path d="M4818 8133 c-21 -2 -38 -8 -38 -13 0 -5 17 -10 38 -12 20 -2 35 -7
32 -13 -6 -11 -77 -13 -100 -2 -13 6 -15 -10 -14 -115 1 -80 6 -124 13 -126 7
-2 11 13 11 42 0 34 4 46 15 46 7 0 31 20 51 44 l37 45 16 -31 c16 -31 28 -41
64 -52 10 -3 17 -15 17 -31 0 -21 -5 -25 -30 -25 -16 0 -30 -3 -30 -8 0 -12
61 -35 70 -26 5 5 10 61 11 124 1 94 -1 114 -12 111 -8 -3 -32 -5 -54 -5 -36
-1 -40 2 -40 23 0 27 -5 29 -57 24z m32 -76 c0 -7 -20 -35 -45 -62 l-44 -50
-1 57 c0 57 0 57 33 61 17 2 38 5 45 5 6 1 12 -4 12 -11z m98 1 c17 -17 16
-88 -2 -88 -17 0 -66 56 -66 75 0 8 10 16 23 18 12 2 24 5 28 6 3 0 10 -4 17
-11z"/>
<path d="M5225 8130 c-16 -4 -56 -11 -87 -15 -32 -3 -58 -11 -58 -17 0 -7 19
-9 55 -4 35 4 55 2 55 -4 0 -6 -30 -10 -70 -10 -40 0 -70 -4 -70 -10 0 -5 16
-10 35 -10 28 0 35 -4 35 -20 0 -16 -7 -20 -32 -20 -17 0 -28 -3 -24 -7 4 -4
19 -7 34 -8 36 0 34 -19 -3 -25 -16 -3 -28 -8 -27 -12 1 -5 2 -13 2 -18 0 -6
13 -4 30 5 28 15 30 14 30 -4 0 -18 -35 -54 -63 -64 -7 -2 -9 -8 -4 -12 10
-11 51 12 94 54 l36 35 -6 -57 c-6 -47 -5 -57 8 -57 11 0 15 12 15 51 l0 52
45 -42 c47 -44 52 -46 74 -32 11 7 4 14 -26 30 -56 28 -93 75 -93 117 0 52 18
41 22 -13 3 -44 5 -48 33 -53 33 -6 75 -1 75 9 0 3 -5 13 -11 21 -8 11 -12 12
-16 3 -5 -15 -53 -18 -53 -4 0 11 25 21 51 21 21 0 26 15 8 26 -6 3 -16 1 -22
-5 -18 -18 -36 -13 -30 9 4 15 14 20 40 20 23 0 33 4 30 13 -3 8 -22 11 -65 8
-76 -4 -85 15 -12 25 51 7 63 17 34 28 -19 7 -30 7 -69 -4z m-37 -98 c4 -24
-14 -62 -28 -62 -11 0 -13 33 -4 68 8 27 28 24 32 -6z"/>
<path d="M5520 8121 c0 -18 -6 -21 -45 -21 -29 0 -45 4 -46 13 0 6 -5 2 -11
-10 -6 -13 -15 -23 -20 -23 -4 0 -8 -7 -8 -15 0 -21 18 -19 32 5 13 20 52 27
62 11 3 -5 -13 -25 -35 -46 -46 -41 -46 -54 -1 -31 32 16 66 12 59 -8 -2 -6
-24 -18 -50 -26 -53 -17 -75 -35 -34 -28 26 5 27 4 27 -43 0 -46 11 -62 25
-39 8 13 105 13 105 -1 0 -5 5 -7 10 -4 6 3 10 21 10 40 0 35 12 49 44 50 29
0 32 25 3 25 -27 0 -87 19 -87 27 0 3 10 14 21 24 12 11 19 25 15 34 -6 17
-51 21 -61 5 -3 -5 1 -10 9 -10 19 0 21 -14 3 -28 -8 -7 -18 -7 -27 -2 -11 7
-12 14 -3 33 10 21 20 26 62 28 38 3 50 1 46 -8 -6 -18 13 -16 31 2 25 24 7
34 -52 28 -50 -5 -55 -4 -52 13 2 11 -4 20 -14 22 -13 2 -18 -3 -18 -17z m44
-154 c16 -12 14 -13 -18 -9 -20 2 -33 8 -30 13 8 13 27 11 48 -4z m16 -51 c0
-17 -7 -25 -25 -28 -40 -8 -75 2 -75 21 0 26 9 31 57 31 39 0 43 -2 43 -24z"/>
<path d="M5772 8110 c-8 -21 -16 -28 -26 -24 -14 5 -16 -9 -16 -105 0 -101 8
-135 24 -96 6 17 51 20 61 5 15 -25 25 -5 25 49 0 43 4 60 15 65 8 3 20 17 25
31 8 21 16 25 50 25 l40 0 0 -71 c0 -93 -11 -113 -56 -104 -21 3 -34 2 -34 -5
0 -5 10 -10 23 -10 13 0 29 -6 36 -12 25 -25 48 23 55 119 4 48 6 93 4 98 -2
6 -24 8 -50 7 -48 -4 -58 4 -36 26 10 10 10 15 -2 22 -18 11 -30 4 -31 -18 0
-9 -9 -35 -20 -57 l-19 -40 3 35 c2 33 0 35 -25 32 -29 -3 -36 6 -17 25 12 12
5 33 -11 33 -4 0 -13 -13 -18 -30z m46 -83 c3 -27 1 -28 -30 -25 -28 3 -34 7
-36 31 -3 27 -1 28 30 25 28 -3 34 -7 36 -31z m2 -71 c0 -27 -16 -43 -45 -42
-15 1 -21 9 -23 34 -3 31 -2 32 32 32 31 0 36 -3 36 -24z"/>
<path d="M6093 8075 c-34 -69 -28 -88 9 -30 20 29 29 35 61 35 33 0 37 -3 37
-25 0 -23 -4 -25 -44 -25 l-43 0 -6 -47 c-7 -59 2 -69 39 -49 29 15 29 16 7
22 -16 4 -23 14 -23 30 0 21 5 24 34 24 l35 0 0 -75 c0 -88 14 -122 21 -55 4
40 8 45 30 45 14 0 31 4 38 8 7 5 12 4 12 -2 0 -14 37 -14 46 0 3 6 0 18 -9
26 -13 13 -17 13 -40 -2 -17 -10 -27 -13 -32 -6 -3 6 -15 11 -27 11 -14 0 -18
5 -14 16 3 9 6 20 6 25 0 5 18 9 41 9 28 0 39 4 36 13 -2 8 -19 11 -46 9 -40
-4 -42 -2 -39 20 3 20 9 23 56 26 36 2 52 7 49 15 -3 9 -31 11 -98 9 -77 -3
-92 -1 -81 9 17 18 15 29 -5 29 -12 0 -29 -22 -50 -65z"/>
<path d="M6530 8110 c0 -24 -4 -30 -21 -30 -15 0 -20 5 -17 23 2 16 -3 23 -19
25 -19 3 -23 -1 -23 -22 0 -21 -5 -26 -26 -26 -14 0 -23 -4 -19 -10 3 -5 40
-10 81 -10 61 0 74 -3 74 -16 0 -14 -10 -15 -70 -9 l-70 7 0 -61 c0 -34 -7
-77 -14 -96 -8 -19 -12 -35 -7 -35 14 0 31 24 31 45 0 17 2 18 11 5 8 -11 12
-12 16 -3 2 7 13 23 24 35 l19 23 -2 -34 c-3 -30 -8 -36 -35 -43 -18 -5 -33
-13 -33 -18 0 -29 81 10 115 54 28 37 45 39 45 5 0 -12 -13 -25 -35 -36 -19
-9 -35 -20 -35 -25 0 -13 17 -9 53 12 l34 20 18 -20 c24 -26 41 -25 49 3 15
55 -2 80 -20 30 -10 -28 -10 -28 -22 -7 -10 18 -8 28 13 58 22 33 23 37 8 43
-9 4 -18 2 -20 -4 -2 -5 -10 -19 -18 -29 -13 -18 -14 -16 -15 17 0 34 1 35 35
33 25 -2 35 1 35 11 0 8 -9 15 -20 15 -11 0 -20 5 -20 10 0 6 9 10 20 10 11 0
20 6 20 14 0 11 -13 13 -57 11 -32 -1 -39 0 -15 2 28 3 42 8 39 16 -2 7 -18
11 -39 9 -25 -2 -37 1 -41 12 -10 27 -27 18 -27 -14z m75 -70 c3 -5 2 -10 -4
-10 -5 0 -13 5 -16 10 -3 6 -2 10 4 10 5 0 13 -4 16 -10z m-45 -30 c0 -4 -6
-8 -12 -7 -7 0 -32 -1 -55 -1 -47 -2 -60 -22 -15 -23 26 0 26 -1 4 -9 -12 -5
-27 -20 -32 -32 -7 -19 -9 -15 -9 24 -1 41 2 47 22 50 44 7 97 6 97 -2z m16
-41 c4 -8 0 -9 -15 -4 -15 4 -21 2 -21 -9 0 -8 -4 -18 -10 -21 -6 -4 -10 5
-10 19 0 21 5 26 24 26 14 0 28 -5 32 -11z"/>
<path d="M6775 8110 c-5 -25 -11 -30 -26 -25 -18 6 -19 0 -19 -104 0 -101 7
-130 25 -101 9 14 58 13 73 -2 9 -9 12 2 12 53 0 53 3 66 20 77 17 10 20 10
20 -3 0 -9 7 -18 15 -21 8 -4 15 -12 15 -20 0 -8 7 -14 15 -14 25 0 17 22 -17
50 -28 24 -31 30 -19 44 8 10 29 16 54 16 l40 0 -7 -72 c-10 -106 -12 -110
-51 -106 -19 1 -37 -1 -41 -5 -4 -4 2 -7 14 -7 11 0 24 -4 27 -10 11 -17 44
-11 55 10 11 20 31 201 24 209 -3 3 -27 4 -54 2 -51 -3 -65 9 -32 28 15 9 15
12 2 21 -24 16 -28 13 -44 -44 -19 -65 -39 -85 -34 -35 3 32 1 34 -26 31 -29
-3 -29 -3 -13 21 16 25 13 37 -9 37 -7 0 -15 -14 -19 -30z m45 -80 c0 -27 -3
-30 -30 -30 -27 0 -30 3 -30 30 0 27 3 30 30 30 27 0 30 -3 30 -30z m0 -85 c0
-32 -2 -35 -30 -35 -28 0 -30 3 -30 35 0 32 2 35 30 35 28 0 30 -3 30 -35z"/>
<path d="M212 8110 c-23 -22 -29 -40 -13 -40 6 0 13 5 16 10 8 13 42 13 50 0
10 -17 -4 -47 -25 -53 -27 -7 -25 -25 3 -29 17 -2 22 -10 22 -33 0 -28 -3 -30
-38 -33 -24 -2 -37 -8 -34 -15 6 -21 52 -19 80 3 29 23 36 65 16 102 -8 14 -8
23 0 31 41 41 -34 97 -77 57z"/>
<path d="M372 8105 c-42 -35 -50 -89 -23 -149 23 -52 41 -64 76 -48 49 23 58
151 14 198 -28 30 -31 30 -67 -1z m52 -21 c11 -29 6 -130 -7 -148 -13 -17 -14
-17 -30 8 -22 32 -22 99 -1 131 19 29 29 31 38 9z"/>
<path d="M3493 8123 c-73 -3 -93 -7 -93 -18 0 -12 19 -15 103 -15 57 0 107 3
110 7 8 7 -12 34 -22 31 -3 -1 -48 -4 -98 -5z"/>
<path d="M4050 8003 c0 -80 4 -124 11 -129 19 -11 142 -17 203 -10 l56 7 0 39
c0 21 -4 42 -10 45 -5 3 -10 -2 -10 -13 0 -39 -35 -55 -114 -55 -109 1 -116 5
-116 64 l0 49 95 0 c57 0 95 -4 95 -10 0 -5 7 -10 15 -10 12 0 15 15 15 73 l0
72 -120 0 -120 0 0 -122z m110 51 l0 -35 -42 3 c-40 3 -43 5 -46 36 -3 32 -3
32 42 32 46 0 46 0 46 -36z m100 0 c0 -35 -1 -35 -37 -32 -35 3 -38 6 -41 36
-3 31 -2 32 37 32 40 0 41 -1 41 -36z"/>
<path d="M7190 8120 c0 -6 12 -13 28 -16 20 -4 31 -16 43 -44 10 -21 14 -41
11 -44 -8 -9 -152 -7 -152 2 1 4 14 23 30 42 34 39 36 46 15 54 -10 4 -20 -5
-29 -27 -8 -18 -28 -48 -45 -67 -35 -40 -40 -55 -12 -40 22 11 81 14 81 3 0
-27 -28 -73 -56 -93 -34 -22 -44 -40 -23 -40 5 0 28 14 50 32 29 24 41 41 45
70 6 37 8 38 46 38 l39 0 -3 -52 c-3 -52 -3 -53 -36 -53 -38 0 -37 -15 1 -28
40 -13 53 4 61 75 7 70 10 76 29 59 15 -12 47 -5 47 9 0 5 -10 10 -22 12 -27
4 -68 61 -68 94 0 21 -5 24 -40 24 -22 0 -40 -5 -40 -10z"/>
<path d="M7456 8105 c-4 -14 -20 -48 -37 -76 -31 -49 -33 -82 -4 -43 13 17 14
11 15 -63 0 -49 4 -83 10 -83 6 0 10 36 10 89 0 50 5 93 10 96 6 3 10 15 10
26 0 14 7 19 30 19 39 0 39 -19 -1 -65 -31 -35 -34 -60 -4 -35 13 11 15 5 15
-44 0 -76 18 -71 22 7 3 54 5 62 23 62 18 0 20 -8 23 -77 4 -100 22 -102 22
-3 0 68 2 75 20 75 17 0 20 -7 20 -46 0 -37 -3 -45 -15 -40 -20 7 -19 -8 0
-24 24 -20 33 -2 36 70 l2 65 -31 -3 c-32 -3 -37 3 -26 32 4 10 18 16 39 16
40 0 53 15 26 30 -13 7 -22 7 -26 0 -3 -5 -24 -10 -46 -10 -37 0 -39 1 -25 16
18 18 21 34 5 34 -13 0 -39 -25 -39 -39 0 -5 -12 -8 -27 -7 -38 5 -37 4 -24
19 12 15 5 27 -15 27 -6 0 -15 -11 -18 -25z m124 -60 c0 -14 -7 -28 -15 -32
-21 -8 -24 -3 -18 30 7 34 33 36 33 2z"/>
<path d="M3493 8043 c-128 -4 -176 -23 -57 -23 l67 0 -5 -85 c-3 -66 -1 -85 9
-85 10 0 13 21 13 85 l0 84 68 3 c37 2 67 8 67 13 0 12 -4 12 -162 8z"/>
<path d="M1860 8014 c0 -8 7 -17 15 -20 8 -4 15 -12 15 -20 0 -8 7 -14 15 -14
27 0 16 38 -15 54 -26 13 -30 13 -30 0z"/>
<path d="M5880 8008 c1 -20 38 -64 47 -55 9 10 -17 59 -34 65 -7 2 -13 -2 -13
-10z"/>
<path d="M7835 8000 c-14 -43 44 -67 68 -29 16 26 1 49 -32 49 -21 0 -32 -6
-36 -20z m55 -9 c0 -11 -26 -22 -34 -14 -12 12 -5 23 14 23 11 0 20 -4 20 -9z"/>
<path d="M3406 7944 c-20 -31 -35 -58 -33 -60 8 -8 98 96 92 106 -11 18 -20
11 -59 -46z"/>
<path d="M3560 7995 c0 -3 17 -28 37 -56 31 -44 38 -49 44 -33 5 14 -3 29 -29
57 -33 33 -52 46 -52 32z"/>
<path d="M6060 7948 c0 -18 18 -34 28 -24 3 4 -2 14 -11 23 -16 16 -17 16 -17
1z"/>
<path d="M502 7923 c2 -10 10 -18 18 -18 8 0 16 8 18 18 2 12 -3 17 -18 17
-15 0 -20 -5 -18 -17z"/>
<path d="M3042 7898 c-15 -15 -16 -38 -2 -38 12 0 23 25 18 40 -2 7 -7 7 -16
-2z"/>
<path d="M3090 7887 c0 -15 4 -27 10 -27 5 0 9 9 7 20 -5 31 -17 36 -17 7z"/>
<path d="M4030 6500 c0 -587 3 -890 10 -890 7 0 10 303 10 890 0 587 -3 890
-10 890 -7 0 -10 -303 -10 -890z"/>
<path d="M2326 7365 c-3 -9 -18 -15 -36 -15 -18 0 -29 -4 -25 -10 3 -5 19 -10
36 -10 16 0 29 -5 29 -10 0 -6 -11 -8 -25 -4 -25 6 -25 5 -25 -56 0 -56 2 -61
19 -55 11 3 22 1 26 -5 6 -9 -21 -15 -52 -11 -7 1 -13 -5 -13 -13 0 -10 7 -13
20 -11 34 7 50 -5 50 -36 0 -26 -3 -29 -35 -29 -19 0 -35 -4 -35 -10 0 -17
1601 -23 1610 -5 3 6 -36 12 -104 15 -99 5 -107 6 -91 20 65 54 56 212 -15
250 -38 20 -41 9 -7 -25 59 -59 61 -141 6 -208 l-30 -37 -169 0 -168 0 4 98
c5 120 11 152 31 152 20 0 11 24 -11 28 -11 2 -19 -4 -23 -16 -3 -12 -18 -47
-34 -78 -29 -60 -31 -76 -4 -54 13 11 15 4 15 -59 l0 -71 -105 0 -105 0 0 75
0 75 66 0 c48 0 65 3 61 13 -3 8 -23 11 -67 8 l-63 -3 6 56 c4 45 3 56 -9 56
-10 0 -14 -14 -14 -55 l0 -55 -71 0 c-44 0 -68 -4 -64 -10 3 -5 35 -10 71 -10
l64 0 0 -75 0 -75 -99 0 -99 0 -35 40 c-20 23 -34 50 -33 63 1 12 -2 27 -7 34
-12 17 -1 46 39 98 35 47 36 52 3 35 -33 -18 -69 -86 -69 -130 0 -47 11 -73
48 -112 l26 -28 -165 0 -164 0 3 50 4 50 40 0 c35 0 39 2 28 15 -9 11 -22 14
-42 10 -24 -6 -28 -3 -28 14 0 14 6 21 18 21 10 0 27 6 38 14 18 14 18 16 -18
49 -21 19 -38 40 -38 46 0 6 -7 11 -15 11 -8 0 -15 -6 -15 -13 0 -8 -9 -22
-20 -32 -11 -10 -20 -22 -20 -27 0 -15 19 -8 40 14 20 21 20 21 35 2 19 -26
14 -38 -19 -42 -27 -3 -86 17 -86 30 0 4 -10 9 -22 11 -20 4 -19 4 5 6 18 1
27 7 27 17 0 12 -6 15 -26 10 -21 -6 -25 -4 -21 8 4 10 1 16 -7 16 -8 0 -16
-7 -20 -15z m42 -84 c3 -9 -6 -11 -29 -9 -42 4 -49 23 -7 22 18 0 34 -6 36
-13z m78 -21 c8 0 14 -9 14 -20 0 -16 -7 -20 -35 -20 -27 0 -35 4 -35 18 0 24
10 34 28 27 7 -3 20 -5 28 -5z m-86 -20 c0 -5 -13 -10 -30 -10 -16 0 -30 5
-30 10 0 6 14 10 30 10 17 0 30 -4 30 -10z m24 -42 c-7 -11 -34 -10 -34 1 0 6
9 9 19 8 11 0 17 -5 15 -9z m76 -48 l0 -50 -56 0 -55 0 3 33 c2 27 7 32 28 32
17 0 25 6 24 18 -1 12 6 17 27 17 28 0 29 -2 29 -50z"/>
<path d="M3400 7350 c0 -28 -2 -30 -40 -30 -22 0 -40 -4 -40 -10 0 -6 40 -10
101 -10 76 0 100 3 96 13 -2 8 -20 11 -50 9 -37 -3 -47 0 -47 12 0 8 5 18 10
21 13 8 3 25 -16 25 -9 0 -14 -11 -14 -30z"/>
<path d="M4310 7366 c0 -10 -12 -12 -50 -8 -33 3 -50 1 -50 -7 0 -13 10 -15
63 -12 23 2 37 -2 37 -9 0 -7 -7 -10 -15 -6 -9 3 -18 -1 -21 -9 -4 -8 -17 -15
-30 -15 -13 0 -24 -4 -24 -10 0 -5 11 -10 25 -10 23 0 25 -4 25 -40 0 -38 -2
-40 -30 -40 -16 0 -30 -4 -30 -10 0 -5 20 -10 45 -10 56 0 58 -16 5 -38 -39
-17 -52 -32 -27 -32 27 0 91 29 104 46 12 16 13 14 13 -19 l0 -37 -76 0 c-56
0 -75 -3 -72 -12 4 -10 178 -13 817 -15 638 -2 812 0 808 10 -2 8 -40 14 -118
17 -72 3 -106 8 -92 13 37 14 68 98 58 158 -8 44 -57 109 -83 109 -11 0 -5
-11 19 -36 32 -33 34 -39 34 -106 0 -69 -1 -71 -39 -104 l-39 -34 -160 0 -159
0 3 103 c2 75 7 110 20 134 9 17 15 34 12 37 -11 11 -33 6 -33 -8 0 -7 -13
-40 -30 -72 -35 -69 -37 -84 -10 -59 19 17 19 16 17 -59 l-2 -76 -49 0 -49 0
6 133 5 132 -86 0 c-48 0 -98 4 -112 8 -24 7 -26 4 -52 -66 -31 -82 -34 -101
-14 -74 12 16 14 9 15 -57 l1 -76 -48 0 c-41 0 -53 5 -79 33 -64 66 -66 132
-6 205 39 48 37 51 -11 20 -39 -25 -56 -66 -56 -130 0 -44 20 -84 60 -115 12
-10 -26 -12 -182 -13 l-198 0 0 30 c0 17 2 30 5 30 3 0 24 -12 46 -26 39 -25
74 -29 71 -9 -1 6 -20 16 -42 23 -42 14 -53 32 -20 32 38 0 20 19 -22 23 -41
3 -41 4 9 5 43 2 51 -1 47 -13 -4 -11 0 -15 16 -15 14 0 20 5 16 13 -3 6 -9
20 -12 29 -5 14 -17 16 -68 14 -33 -2 -45 -2 -25 1 26 3 38 10 42 24 4 14 14
19 37 19 21 0 30 4 27 13 -2 7 -18 11 -38 9 -18 -1 -30 0 -26 4 4 4 -1 13 -11
21 -15 12 -12 13 28 11 35 -2 45 0 45 12 0 11 -9 14 -32 12 -17 -2 -34 2 -38
7 -8 14 -45 14 -45 1 0 -5 -9 -10 -19 -10 -11 0 -23 5 -26 10 -9 15 -25 12
-25 -4z m640 -141 c0 -120 -1 -125 -21 -125 -20 0 -21 4 -18 103 3 98 13 147
31 147 4 0 8 -56 8 -125z m-559 105 c27 -15 24 -30 -6 -30 -14 0 -24 5 -22 11
1 6 -4 14 -10 16 -7 3 -13 -2 -13 -10 0 -15 -24 -30 -33 -20 -9 8 27 41 46 42
10 1 27 -4 38 -9z m639 -11 c0 -17 -5 -20 -25 -17 -14 3 -25 2 -25 -3 0 -4 10
-9 23 -11 14 -2 23 -11 25 -26 3 -20 0 -23 -17 -17 -19 6 -21 2 -21 -45 0 -46
2 -51 18 -45 19 9 40 10 62 4 12 -3 16 7 18 44 3 46 2 48 -18 42 -18 -6 -21
-3 -18 17 2 15 11 24 26 26 12 2 22 8 22 14 0 6 -10 8 -25 4 -20 -5 -25 -3
-25 14 0 16 7 20 30 20 l30 0 0 -105 0 -105 -70 0 -70 0 0 89 c0 106 4 121 36
121 18 0 24 -6 24 -21z m-692 -67 c3 -18 -1 -22 -22 -22 -19 0 -26 5 -26 18 0
39 43 43 48 4z m62 18 c0 -5 -9 -10 -21 -10 -11 0 -17 5 -14 10 3 6 13 10 21
10 8 0 14 -4 14 -10z m670 -59 c0 -20 -46 -36 -56 -19 -11 17 6 38 31 38 18 0
25 -5 25 -19z m-727 -8 c-7 -2 -21 -2 -30 0 -10 3 -4 5 12 5 17 0 24 -2 18 -5z
m766 -98 c2 -3 -28 -5 -68 -5 -46 0 -70 4 -66 10 6 10 123 5 134 -5z"/>
<path d="M5356 7372 c-3 -3 -6 -16 -6 -29 0 -20 -5 -23 -35 -23 -19 0 -35 -4
-35 -10 0 -6 40 -10 101 -10 86 0 100 2 90 14 -8 10 -24 12 -51 9 -41 -6 -54
9 -29 34 7 7 4 12 -10 16 -11 2 -22 2 -25 -1z"/>
<path d="M3451 7223 c-21 -99 -16 -93 -82 -93 -33 0 -59 -4 -59 -10 0 -6 46
-10 117 -10 115 0 116 0 98 20 -13 15 -22 17 -36 10 -32 -18 -37 -12 -27 33 5
23 15 54 23 69 13 27 11 38 -10 38 -7 0 -17 -26 -24 -57z"/>
<path d="M5416 7268 c-3 -7 -9 -35 -16 -63 -15 -67 -24 -75 -81 -75 -27 0 -49
-4 -49 -10 0 -6 42 -10 106 -10 80 0 105 3 101 13 -2 7 -18 11 -41 9 -20 -2
-36 -1 -36 1 0 2 11 32 25 66 13 35 22 68 19 72 -8 13 -24 11 -28 -3z"/>
<path d="M3354 7243 c4 -16 9 -45 13 -65 3 -21 10 -38 14 -38 13 0 11 58 -3
97 -14 40 -33 44 -24 6z"/>
<path d="M5306 7249 c4 -13 10 -42 13 -63 7 -47 31 -62 30 -19 -1 38 -23 96
-38 101 -10 3 -11 -2 -5 -19z"/>
<path d="M3797 6963 c-5 -7 -17 -13 -28 -13 -10 0 -19 -4 -19 -10 0 -5 7 -10
15 -10 12 0 15 -16 15 -80 0 -47 -4 -80 -10 -80 -5 0 -10 -4 -10 -10 0 -5 16
-10 35 -10 19 0 35 5 35 10 0 6 -4 10 -10 10 -5 0 -11 45 -12 103 -2 56 -7 96
-11 90z"/>
<path d="M4254 6954 c4 -10 -14 -94 -40 -181 -5 -17 -2 -23 9 -23 8 0 17 10
21 23 7 29 62 94 71 85 4 -4 2 -28 -5 -53 -7 -25 -10 -49 -6 -52 9 -9 38 9 44
27 3 7 0 10 -7 6 -8 -5 -8 0 -1 19 14 38 12 82 -4 88 -8 3 -24 -4 -36 -15 -27
-26 -35 -17 -21 23 16 47 14 65 -9 65 -12 0 -19 -5 -16 -12z"/>
<path d="M4951 6890 c-29 -43 -50 -83 -47 -89 4 -5 24 -8 46 -5 37 4 40 3 40
-21 0 -16 6 -25 15 -25 8 0 15 8 15 18 0 10 6 24 13 31 10 11 10 14 0 18 -9 3
-13 27 -13 73 0 38 -3 71 -7 73 -5 3 -32 -30 -62 -73z m39 -30 c0 -38 -2 -40
-29 -40 l-30 0 26 40 c15 22 28 40 30 40 2 0 3 -18 3 -40z"/>
<path d="M5663 6933 c-48 -45 -61 -94 -39 -146 27 -67 117 -51 124 21 4 41
-37 87 -69 77 -18 -6 -19 -5 -10 14 6 11 21 26 34 33 21 12 25 13 45 17 10 2
-20 21 -34 21 -6 0 -29 -17 -51 -37z m36 -87 c18 -22 10 -70 -13 -74 -22 -5
-36 14 -36 49 0 40 26 53 49 25z"/>
<path d="M3743 6590 c-13 -5 -23 -18 -23 -29 0 -19 1 -19 29 -3 24 14 31 14
45 3 28 -24 18 -57 -34 -114 -27 -30 -50 -58 -50 -61 0 -3 29 -6 64 -6 57 0
65 3 71 21 8 25 -1 37 -17 21 -12 -12 -58 -17 -58 -6 0 4 16 24 35 45 28 31
35 47 35 79 0 54 -38 74 -97 50z"/>
<path d="M4238 6589 c-19 -11 -25 -39 -8 -39 6 0 10 5 10 10 0 16 47 11 54 -6
9 -23 9 -23 -26 -44 -22 -13 -27 -21 -17 -24 8 -2 22 -7 32 -10 20 -6 23 -36
5 -54 -7 -7 -27 -12 -46 -12 -42 0 -39 -24 4 -28 43 -4 84 30 84 72 0 17 -6
38 -12 44 -10 10 -10 17 -1 31 29 47 -28 90 -79 60z"/>
<path d="M4929 6581 c-28 -22 -20 -38 9 -20 27 17 52 5 52 -25 0 -16 -7 -27
-20 -31 -23 -7 -27 -25 -6 -25 26 0 40 -28 28 -55 -10 -21 -16 -23 -47 -18
-28 4 -35 2 -35 -11 0 -12 10 -16 38 -16 57 0 76 19 74 71 -1 24 -2 62 -2 83
0 22 -5 45 -11 53 -16 19 -53 16 -80 -6z"/>
<path d="M5638 6589 c-10 -5 -18 -17 -18 -24 0 -17 12 -19 26 -5 15 15 44 1
44 -21 0 -10 -9 -24 -20 -31 -25 -16 -25 -24 1 -31 16 -4 20 -12 17 -39 -3
-32 -4 -33 -42 -30 -29 3 -37 0 -34 -10 7 -21 67 -22 90 -1 34 30 40 61 21 94
-13 22 -15 31 -5 41 20 20 14 44 -13 56 -31 14 -45 15 -67 1z"/>
<path d="M6348 6533 c-27 -36 -48 -72 -48 -79 0 -8 16 -14 43 -16 39 -3 42 -5
39 -30 -2 -22 1 -28 18 -28 15 0 20 6 20 29 0 16 6 32 13 35 10 5 10 7 0 12
-9 4 -13 29 -13 75 0 49 -4 69 -12 69 -7 -1 -34 -31 -60 -67z m38 -59 c-5 -13
-56 -21 -56 -8 0 3 12 23 28 44 l27 39 3 -31 c2 -16 1 -36 -2 -44z"/>
<path d="M7084 6586 c-43 -19 -84 -75 -84 -115 0 -61 57 -114 98 -92 25 13 58
81 44 90 -10 6 -12 11 -12 31 0 6 -16 10 -35 10 -23 0 -35 5 -35 13 0 17 28
43 58 51 23 8 31 26 10 26 -7 -1 -27 -7 -44 -14z m12 -120 c9 -37 1 -61 -21
-61 -20 0 -35 36 -27 68 7 26 41 21 48 -7z"/>
<path d="M7706 6568 c-9 -37 -7 -40 16 -24 21 15 78 22 78 11 0 -3 -7 -22 -17
-43 -15 -34 -42 -117 -43 -134 0 -5 7 -8 15 -8 8 0 15 8 15 18 0 9 6 29 14 44
15 28 46 128 46 147 0 7 -23 11 -59 11 -52 0 -59 -2 -65 -22z"/>
<path d="M8425 6583 c-22 -6 -35 -21 -35 -41 0 -9 5 -10 19 -2 11 5 33 10 50
10 l30 0 -30 -87 c-34 -102 -33 -93 -15 -93 9 0 24 29 39 78 42 128 42 129 6
136 -33 6 -33 6 -64 -1z"/>
<path d="M3739 6214 l-24 -27 25 7 c45 13 55 11 58 -11 2 -13 -5 -27 -19 -37
-13 -8 -21 -17 -18 -18 2 -2 13 -8 24 -14 47 -26 24 -76 -31 -67 -27 4 -34 2
-34 -11 0 -12 10 -16 38 -16 57 0 76 19 74 71 0 24 -1 61 -1 83 0 69 -47 89
-92 40z"/>
<path d="M4258 6233 c-19 -5 -25 -23 -8 -23 6 0 10 -35 10 -85 0 -50 -4 -85
-10 -85 -5 0 -10 -4 -10 -10 0 -5 18 -10 40 -10 22 0 40 5 40 10 0 6 -7 10
-15 10 -12 0 -15 18 -15 100 0 55 -3 99 -7 99 -5 -1 -16 -3 -25 -6z"/>
<path d="M4937 6233 c-18 -5 -42 -51 -32 -61 3 -3 16 5 30 18 l25 24 22 -21
c19 -19 20 -25 9 -51 -7 -16 -30 -46 -52 -68 -21 -21 -39 -42 -39 -46 0 -4 29
-8 64 -8 49 0 65 4 70 16 10 27 7 39 -6 26 -14 -14 -68 -16 -68 -4 0 5 9 17
21 28 83 75 54 172 -44 147z"/>
<path d="M5627 6222 c-10 -10 -17 -27 -17 -37 0 -17 2 -17 21 4 12 12 28 20
36 17 8 -3 17 -6 19 -6 2 0 4 -11 4 -25 0 -34 -38 -103 -66 -122 -35 -22 -20
-33 46 -33 48 0 61 4 70 19 10 21 -3 40 -15 21 -3 -5 -22 -10 -41 -10 l-35 0
19 28 c11 15 29 36 40 48 34 36 36 61 8 89 -30 29 -66 32 -89 7z"/>
<path d="M6342 6232 c-14 -2 -27 -14 -33 -29 -12 -32 -2 -44 15 -20 31 42 89
1 65 -45 -6 -13 -30 -42 -52 -65 -22 -24 -38 -45 -36 -48 3 -3 32 -6 63 -6 40
-1 61 3 67 12 16 25 10 29 -38 22 l-48 -6 37 41 c43 48 53 77 39 114 -10 26
-37 36 -79 30z"/>
<path d="M7052 6201 c-48 -51 -52 -59 -52 -99 0 -45 36 -92 70 -92 24 0 60 33
61 58 1 9 2 24 3 32 2 23 -25 50 -51 50 -12 0 -23 3 -23 8 0 18 33 52 51 52
10 0 19 5 19 10 0 22 -52 9 -78 -19z m38 -90 c14 -27 13 -56 -4 -70 -21 -17
-51 29 -42 64 8 30 31 33 46 6z"/>
<path d="M7722 6218 c-15 -15 -16 -53 -2 -78 7 -13 5 -27 -6 -49 -14 -29 -14
-34 1 -57 13 -21 23 -25 53 -22 50 4 67 37 46 87 -10 23 -11 38 -4 45 16 16
12 51 -8 69 -22 20 -63 22 -80 5z m58 -23 c12 -15 5 -55 -10 -55 -14 0 -32 40
-26 56 7 18 20 18 36 -1z m10 -142 c0 -20 -4 -24 -22 -21 -24 3 -35 35 -24 65
6 14 9 14 26 -2 11 -10 20 -29 20 -42z"/>
<path d="M4959 5888 c-1 -2 -2 -18 -4 -36 -1 -18 -12 -54 -23 -80 -31 -73 -37
-112 -18 -112 10 0 19 12 23 30 3 17 11 30 18 30 7 0 15 -13 19 -30 6 -31 24
-38 44 -18 18 18 16 44 -2 29 -11 -9 -15 -5 -20 21 -6 27 -2 37 19 55 14 12
25 25 25 28 0 13 -44 -8 -62 -29 -17 -20 -17 -20 -4 19 27 83 28 95 6 95 -11
0 -20 -1 -21 -2z"/>
<path d="M3756 5805 c-54 -74 -54 -95 -2 -95 28 0 35 -4 38 -22 4 -28 26 -35
34 -11 3 10 10 27 16 38 8 14 8 20 -1 23 -7 2 -11 29 -11 68 0 46 -4 64 -13
64 -7 0 -35 -29 -61 -65z m36 -35 c-3 -24 -9 -30 -28 -30 -15 0 -24 6 -24 15
0 8 5 15 10 15 6 0 10 6 10 14 0 14 19 26 31 20 3 -2 4 -17 1 -34z"/>
<path d="M4229 5854 c-7 -9 -15 -44 -17 -78 -3 -52 -1 -65 18 -89 18 -23 28
-27 49 -22 41 9 61 41 61 97 0 71 -22 108 -64 108 -19 0 -39 -7 -47 -16z m69
-25 c25 -46 4 -148 -31 -149 -24 0 -35 95 -16 149 13 36 28 36 47 0z"/>
<path d="M1110 5180 c0 -5 6 -10 13 -10 6 0 4 -5 -6 -11 -11 -6 -32 -9 -48 -7
-16 3 -29 1 -29 -4 0 -4 15 -8 34 -8 25 0 39 -7 50 -22 27 -38 20 -48 -34 -48
-63 0 -66 -18 -4 -22 l46 -3 -46 -48 c-25 -26 -46 -50 -46 -52 0 -12 19 -3 44
20 l26 24 0 -44 c0 -42 11 -58 25 -35 3 6 33 10 66 10 33 0 59 -4 59 -10 0 -5
4 -10 9 -10 9 0 22 110 14 123 -3 5 -14 0 -24 -9 -13 -12 -16 -21 -9 -28 5 -5
10 -18 10 -28 0 -16 -9 -18 -66 -18 l-65 0 4 38 c8 71 10 72 104 72 63 0 84 3
80 13 -3 8 -24 11 -75 8 -67 -3 -72 -2 -72 17 0 12 -4 24 -10 27 -18 11 -10
25 15 25 15 0 25 -6 25 -14 0 -24 20 -29 35 -10 8 11 26 19 42 19 15 0 28 5
28 10 0 6 -17 9 -39 7 -31 -3 -38 -1 -33 11 3 9 -2 17 -14 20 -14 4 -19 0 -19
-14 0 -14 -7 -19 -26 -19 -16 0 -23 4 -18 11 7 12 -12 29 -33 29 -7 0 -13 -4
-13 -10z"/>
<path d="M1480 5060 l0 -120 -61 0 c-37 0 -58 -4 -54 -10 4 -6 62 -10 141 -10
108 0 134 3 134 14 0 17 -27 29 -35 16 -4 -6 -26 -10 -51 -10 l-44 0 0 60 0
60 56 0 c40 0 54 3 51 13 -3 8 -21 11 -57 9 l-53 -4 5 51 c4 45 3 51 -13 51
-17 0 -19 -10 -19 -120z"/>
<path d="M1720 5173 c1 -13 45 -59 63 -66 23 -9 22 -71 -3 -122 l-19 -40 1 50
2 50 -37 0 c-40 0 -50 -13 -17 -22 28 -7 27 -56 -2 -75 -13 -9 -18 -19 -14
-27 6 -9 12 -9 25 3 16 14 22 15 52 2 52 -21 185 -28 200 -10 6 8 10 14 8 14
-2 1 -45 2 -96 3 -51 2 -95 6 -99 9 -3 4 3 19 15 34 11 15 21 37 21 49 0 37
12 85 21 85 5 0 9 -38 9 -85 0 -109 18 -112 22 -2 4 102 22 109 26 10 l3 -73
34 0 c33 0 35 2 35 35 0 39 -17 48 -22 13 -6 -41 -23 -14 -23 35 1 26 -3 47
-7 47 -4 0 -8 5 -8 10 0 6 14 10 31 10 20 0 29 4 26 13 -2 6 -11 11 -20 11 -9
-1 -15 2 -12 6 7 12 -16 27 -52 35 -31 6 -33 5 -33 -19 0 -24 -4 -26 -40 -26
-28 0 -40 4 -40 15 0 8 -9 19 -19 25 -23 12 -31 13 -31 3z m190 -28 c11 -13 8
-15 -14 -15 -16 0 -26 5 -26 15 0 8 6 15 14 15 7 0 19 -7 26 -15z"/>
<path d="M2150 5169 c0 -6 8 -13 18 -16 23 -6 66 -73 54 -85 -5 -5 -42 -8 -82
-6 -69 3 -73 4 -57 20 9 9 17 23 17 32 0 8 9 18 21 21 25 8 20 29 -8 33 -17 2
-23 -4 -28 -28 -4 -17 -21 -47 -37 -66 -29 -33 -33 -57 -6 -37 7 5 28 7 45 4
l33 -6 -23 -43 c-12 -24 -34 -51 -49 -60 -31 -18 -36 -32 -11 -32 23 0 91 76
98 112 6 26 10 29 43 26 44 -4 51 -23 27 -74 -13 -29 -20 -33 -41 -28 -29 8
-32 -6 -3 -24 43 -27 76 9 81 88 2 34 7 44 18 41 50 -12 67 9 23 28 -31 12
-73 67 -73 94 0 12 -9 17 -30 17 -16 0 -30 -5 -30 -11z"/>
<path d="M2400 5143 c-7 -21 -21 -53 -32 -72 -20 -36 -18 -51 7 -31 13 11 15
3 15 -69 0 -52 4 -80 10 -76 6 3 10 30 10 59 0 42 4 55 18 60 9 3 23 9 30 12
9 4 12 -9 12 -50 0 -31 5 -56 10 -56 6 0 10 28 10 65 0 50 3 65 15 65 11 0 15
-18 17 -77 2 -54 7 -78 17 -81 10 -3 13 2 9 22 -4 20 -1 26 11 26 10 0 22 -5
28 -11 18 -18 32 21 32 85 l-1 57 -32 -3 c-27 -3 -31 0 -34 25 -3 26 -1 27 37
27 39 0 53 11 30 26 -6 3 -16 1 -22 -5 -13 -13 -77 -15 -77 -2 0 6 5 13 10 16
6 4 8 11 5 16 -11 16 -25 10 -35 -16 -10 -25 -34 -32 -59 -16 -10 6 -10 10 -1
16 9 6 9 10 -1 16 -23 14 -27 11 -39 -28z m90 -32 c0 -17 -46 -76 -63 -79 -15
-3 -17 3 -15 42 3 46 3 46 41 46 20 0 37 -4 37 -9z m36 -7 c-3 -9 -6 -22 -6
-30 0 -8 -6 -14 -14 -14 -12 0 -12 5 -3 30 6 17 15 30 20 30 5 0 6 -7 3 -16z
m64 -99 c0 -30 -4 -45 -13 -45 -23 0 -33 19 -29 55 3 26 9 35 23 35 16 0 19
-8 19 -45z"/>
<path d="M2737 5173 c-4 -3 -7 -15 -7 -26 0 -14 -5 -18 -20 -14 -19 5 -20 0
-20 -104 0 -66 4 -109 10 -109 6 0 10 5 10 11 0 8 14 10 45 6 l45 -7 0 59 c0
71 18 86 50 41 20 -28 50 -41 50 -22 0 12 -44 52 -58 52 -17 0 -15 15 6 33 10
10 33 17 50 17 l32 0 0 -64 c0 -36 -5 -77 -10 -91 -9 -24 -15 -27 -45 -23 -46
5 -45 -7 2 -23 34 -11 38 -10 55 11 11 14 19 41 20 74 4 136 4 141 -12 137
-21 -6 -71 -3 -79 5 -3 3 2 11 12 19 16 11 16 13 1 19 -26 10 -34 7 -35 -11 0
-10 -9 -36 -20 -58 l-19 -40 3 35 c2 33 0 35 -25 32 -30 -3 -38 15 -12 25 13
5 13 7 2 14 -16 11 -23 11 -31 2z m41 -95 c3 -26 1 -28 -32 -28 -33 0 -36 2
-36 31 0 28 2 30 33 27 27 -2 33 -8 35 -30z m2 -64 c0 -29 -21 -54 -45 -54
-22 0 -25 4 -25 35 0 33 2 35 35 35 25 0 35 -4 35 -16z"/>
<path d="M3173 5173 c-28 -5 -31 -23 -4 -23 12 0 26 -14 39 -40 18 -37 18 -41
3 -49 -9 -4 -44 -5 -79 -2 l-63 6 32 43 c26 36 29 46 18 53 -10 6 -17 2 -23
-14 -5 -12 -27 -44 -49 -70 -21 -27 -36 -51 -33 -54 4 -4 12 -1 18 5 7 7 27
12 46 12 32 0 34 -2 28 -26 -9 -34 -35 -70 -63 -85 -13 -7 -23 -18 -23 -26 0
-11 5 -11 28 1 34 18 82 84 82 114 0 19 5 22 41 22 l40 0 -3 -52 c-3 -52 -4
-53 -35 -56 -38 -4 -43 -17 -10 -26 57 -15 73 8 79 111 2 39 3 41 18 28 9 -8
22 -15 28 -15 19 0 14 28 -6 34 -29 10 -60 48 -64 80 -3 31 -10 36 -45 29z"/>
<path d="M3400 5154 c-6 -14 -10 -31 -10 -37 0 -7 -9 -27 -20 -45 -26 -43 -25
-60 1 -36 l22 19 -7 -82 c-5 -71 -4 -83 9 -83 11 0 15 12 15 48 0 42 4 51 31
71 l31 23 -2 -48 c-3 -66 -2 -76 10 -69 6 3 10 32 10 65 0 54 8 70 36 70 2 0
4 -36 4 -81 0 -60 3 -80 13 -77 6 3 13 14 15 26 3 19 6 20 23 9 28 -17 39 4
39 81 l0 64 -30 -7 c-27 -6 -30 -4 -30 19 0 24 4 26 40 26 43 0 52 13 21 30
-13 7 -22 7 -26 0 -8 -13 -75 -13 -75 0 0 5 7 13 16 18 14 8 13 10 -5 15 -17
4 -24 0 -31 -19 -7 -17 -17 -24 -36 -24 -20 0 -25 4 -20 17 6 15 -8 32 -27 33
-4 0 -12 -12 -17 -26z m80 -53 c0 -14 -44 -74 -57 -79 -14 -4 -17 27 -7 66 5
16 14 22 35 22 16 0 29 -4 29 -9z m50 -21 c0 -13 -7 -20 -20 -20 -18 0 -19 3
-10 20 6 11 15 20 20 20 6 0 10 -9 10 -20z m60 -86 c0 -38 -3 -45 -17 -42 -10
2 -18 9 -17 16 1 6 2 26 3 42 0 19 6 30 16 30 11 0 15 -12 15 -46z"/>
<path d="M3715 5141 c5 -36 2 -43 -17 -51 l-23 -9 22 -6 c17 -6 21 -14 20 -46
-1 -23 -9 -43 -19 -51 -12 -9 -15 -18 -9 -27 7 -11 15 -9 42 11 19 14 39 24
46 21 6 -2 14 1 18 6 9 16 45 13 45 -4 0 -8 -14 -17 -35 -21 -37 -7 -53 -20
-39 -34 5 -5 29 1 54 13 l45 22 0 55 0 55 -39 3 c-68 6 -107 47 -74 80 8 8 9
12 1 12 -6 0 -19 3 -27 6 -14 5 -15 0 -11 -35z m65 -100 c0 -17 -6 -31 -16
-35 -24 -9 -24 -9 -24 29 0 28 4 35 20 35 15 0 20 -7 20 -29z m60 -1 c0 -13
-7 -20 -20 -20 -19 0 -27 20 -13 33 13 14 33 6 33 -13z"/>
<path d="M3880 5150 c0 -22 -5 -30 -17 -30 -16 -1 -17 -1 -1 -10 10 -7 18 -30
23 -71 6 -54 5 -63 -15 -84 -12 -13 -33 -26 -46 -29 -13 -4 -24 -13 -24 -21 0
-12 5 -13 28 -3 15 7 37 21 49 31 22 19 22 19 46 -8 30 -36 57 -29 57 15 0 33
-14 40 -25 13 -6 -17 -7 -17 -20 1 -12 16 -12 24 1 55 9 20 18 42 21 49 3 6
-2 12 -11 12 -9 0 -19 -12 -22 -27 -7 -25 -8 -25 -15 -8 -4 11 -8 33 -8 49 -1
27 1 28 33 22 19 -4 37 -3 39 1 9 14 -63 73 -87 73 -3 0 -6 -13 -6 -30z m46
-27 c-7 -7 -26 7 -26 19 0 6 6 6 15 -2 9 -7 13 -15 11 -17z"/>
<path d="M4490 5101 c0 -80 0 -81 -25 -81 -32 0 -32 -12 1 -27 36 -17 44 -9
44 41 0 23 4 46 9 52 5 5 11 27 13 49 3 35 0 40 -20 43 -21 3 -22 1 -22 -77z"/>
<path d="M4880 5170 c-14 -4 -51 -8 -82 -9 -42 -1 -58 -5 -58 -15 0 -7 -9 -25
-20 -39 -25 -32 -25 -36 1 -30 21 6 21 3 17 -54 -3 -43 -10 -66 -26 -83 -32
-35 -30 -56 3 -23 14 13 18 14 25 3 12 -19 40 5 40 34 -1 21 -1 21 -17 1 -14
-18 -15 -18 -9 -2 3 10 6 25 6 33 0 12 17 14 93 12 l92 -3 3 -27 c2 -16 2 -28
0 -28 -2 0 -17 -4 -34 -9 -27 -8 -31 -7 -27 8 4 17 -23 49 -33 38 -12 -12 28
-67 53 -73 36 -9 56 6 66 50 11 45 4 66 -23 66 -15 0 -19 6 -17 23 1 16 -3 22
-16 21 -12 -1 -15 2 -8 10 6 7 4 18 -5 30 -8 11 -14 14 -14 8 0 -18 -27 -14
-34 4 -8 20 -7 21 24 29 22 5 28 1 43 -29 17 -37 31 -45 42 -25 4 6 -3 21 -14
33 -12 13 -21 29 -19 37 4 16 -19 20 -52 9z m-60 -34 c0 -2 3 -11 6 -20 5 -13
-1 -16 -30 -16 -34 0 -47 15 -29 33 7 8 53 10 53 3z m60 -66 c0 -5 -25 -10
-55 -10 -30 0 -55 5 -55 10 0 6 25 10 55 10 30 0 55 -4 55 -10z m30 -37 c0 -9
-21 -13 -70 -13 -66 0 -97 14 -47 22 51 8 117 3 117 -9z"/>
<path d="M6290 5054 l0 -124 -30 0 c-36 0 -39 -16 -6 -32 51 -22 56 -10 56
127 0 77 4 125 10 125 18 0 10 18 -10 23 -19 5 -20 0 -20 -119z"/>
<path d="M4142 5163 c-76 -2 -121 -7 -117 -13 3 -6 28 -10 56 -10 27 0 49 -2
49 -4 0 -1 -5 -17 -11 -35 -9 -27 -16 -31 -45 -31 -24 0 -34 -4 -34 -16 0 -13
10 -15 55 -12 51 3 56 1 53 -17 -2 -16 -10 -19 -38 -17 -19 1 -41 0 -50 -3
-12 -5 -10 -9 10 -20 17 -9 29 -10 37 -3 20 16 43 1 43 -27 0 -23 -3 -25 -52
-27 -29 0 -59 -1 -65 -1 -14 1 -18 -16 -5 -18 35 -5 275 -3 278 2 9 15 -24 28
-52 21 -50 -13 -84 -4 -84 23 0 27 43 43 66 24 18 -15 40 2 31 24 -4 11 -17
13 -51 10 -41 -5 -46 -3 -46 15 0 26 66 37 93 14 15 -14 17 -13 17 6 0 12 -16
33 -40 52 -30 24 -40 28 -40 16 0 -9 7 -16 15 -16 8 0 15 -7 15 -15 0 -11 -12
-15 -50 -15 l-50 0 13 33 c13 32 14 32 90 35 73 3 96 13 61 26 -9 3 -19 5 -22
4 -4 -1 -62 -4 -130 -5z"/>
<path d="M6058 5062 c3 -89 5 -103 19 -98 14 6 14 4 2 -11 -7 -10 -19 -23 -27
-30 -8 -6 -12 -17 -10 -24 2 -7 18 0 41 21 20 17 34 36 31 41 -9 15 26 23 39
9 9 -10 9 -11 -2 -5 -7 4 -12 4 -9 -1 20 -43 33 -64 40 -64 10 0 11 37 0 44
-5 3 -5 35 -1 73 5 37 8 86 8 108 l1 40 -68 0 -67 0 3 -103z m102 65 c0 -7 -5
-18 -12 -25 -9 -9 -9 -12 0 -12 7 0 12 -9 12 -20 0 -17 -7 -20 -40 -20 -29 0
-40 4 -40 15 0 8 9 15 19 15 11 0 23 5 26 10 4 6 -5 10 -19 10 -19 0 -26 5
-26 20 0 17 7 20 40 20 26 0 40 -4 40 -13z m-2 -109 c-2 -19 -10 -24 -40 -26
-32 -3 -38 0 -38 17 0 15 8 21 33 24 17 2 36 5 40 5 5 1 7 -8 5 -20z"/>
<path d="M6625 5160 c-4 -6 -55 -10 -131 -10 -81 0 -123 -4 -119 -10 3 -5 33
-10 66 -10 l59 0 0 -120 c0 -73 4 -120 10 -120 12 0 12 1 12 102 l0 78 43 -30
c50 -34 55 -36 55 -16 0 8 -21 25 -46 37 -52 27 -56 31 -48 53 5 12 21 16 70
16 64 0 76 7 50 29 -10 8 -16 9 -21 1z"/>
<path d="M6958 5048 c-3 -123 -3 -123 -28 -126 -42 -6 -43 -19 -3 -25 20 -4
41 -3 45 1 12 13 13 265 0 270 -8 2 -12 -33 -14 -120z"/>
<path d="M7081 5124 c-7 -25 -19 -57 -28 -70 -18 -28 -9 -47 10 -20 10 14 12
2 9 -64 -4 -68 -2 -80 12 -80 14 0 16 16 16 113 0 61 4 117 8 122 4 6 42 9 90
7 l83 -4 -3 -101 -3 -102 -33 0 c-38 0 -37 -15 1 -28 53 -17 57 -8 57 118 0
96 3 115 15 115 8 0 15 4 15 9 0 16 -20 23 -34 12 -15 -12 -156 -4 -170 10
-20 19 -34 8 -45 -37z"/>
<path d="M7493 5149 c-5 -18 -11 -21 -44 -16 -22 3 -39 1 -39 -4 0 -5 17 -9
39 -9 30 0 40 -4 44 -20 5 -18 0 -20 -54 -20 -84 0 -73 -19 13 -22 l73 -3 -79
-40 c-73 -37 -91 -62 -25 -35 37 16 42 11 41 -42 l-1 -43 79 0 80 0 0 45 c0
25 3 56 7 69 5 21 3 23 -15 19 -15 -4 -22 -2 -22 8 0 8 -7 14 -15 14 -8 0 -12
-6 -9 -14 4 -11 -2 -14 -25 -14 -17 1 -31 2 -31 4 0 13 67 34 105 34 33 0 45
4 42 13 -2 7 -17 11 -35 9 -39 -4 -41 10 -5 38 20 16 24 23 15 32 -9 9 -20 2
-48 -30 -38 -45 -64 -54 -64 -22 0 16 7 20 32 20 31 0 32 1 14 18 -13 12 -20
14 -23 5 -8 -21 -25 -14 -18 7 5 15 2 20 -10 20 -9 0 -19 -10 -22 -21z m97
-143 c0 -2 3 -11 6 -20 5 -13 -3 -16 -50 -16 -49 0 -56 2 -56 20 0 17 7 20 50
20 28 0 50 -2 50 -4z m10 -71 c0 -12 -13 -15 -55 -15 -42 0 -55 3 -55 15 0 12
13 15 55 15 42 0 55 -3 55 -15z"/>
<path d="M8220 5160 c-19 -5 -57 -11 -83 -13 -27 -3 -49 -7 -50 -9 -1 -1 -10
-18 -20 -37 -19 -37 -16 -51 7 -32 13 11 14 6 11 -38 -4 -62 -13 -91 -32 -113
-9 -10 -11 -18 -4 -22 5 -4 12 -2 16 3 3 6 12 8 20 4 21 -7 45 15 44 41 0 21
0 21 -16 -1 -22 -32 -35 -29 -21 5 7 15 13 29 14 31 2 1 43 4 93 6 l91 2 0
-27 c0 -15 -6 -33 -14 -39 -15 -13 -21 -9 -50 33 -8 12 -18 16 -26 11 -10 -6
-9 -10 4 -17 9 -5 16 -18 16 -28 0 -11 7 -20 15 -20 7 0 19 -8 24 -17 9 -17
12 -16 28 7 10 14 21 36 24 50 4 14 10 33 14 42 5 13 1 19 -19 24 -18 4 -25
12 -23 28 1 14 -3 21 -14 20 -9 -1 -15 7 -15 20 1 17 -4 20 -29 18 -25 -2 -31
1 -31 17 0 14 9 21 29 24 25 3 31 -1 45 -30 18 -38 48 -47 36 -10 -4 12 -12
25 -18 29 -6 4 -11 15 -11 24 0 21 -11 24 -55 14z m-50 -34 c0 -2 3 -11 6 -20
5 -13 -1 -16 -28 -16 -41 0 -52 8 -37 27 10 12 59 19 59 9z m21 -56 c21 0 39
-4 39 -10 0 -12 -107 -13 -114 -1 -8 12 6 22 22 16 7 -3 31 -5 53 -5z m69 -50
c0 -11 -11 -12 -85 -12 -66 0 -67 0 -60 12 3 6 37 10 76 10 39 0 69 -4 69 -10z"/>
<path d="M6778 5153 c-38 -2 -68 -8 -68 -13 0 -6 11 -10 25 -10 14 0 25 -5 25
-10 0 -15 -29 -71 -48 -92 -13 -15 -13 -18 -1 -18 8 0 20 5 26 11 8 8 15 4 27
-12 23 -33 20 -43 -19 -78 -19 -17 -35 -33 -35 -36 0 -28 94 53 120 105 10 20
20 50 22 65 3 26 0 29 -32 29 -24 1 -36 6 -38 18 -3 14 6 17 45 20 26 2 48 7
48 13 0 12 -9 12 -97 8z m52 -87 c0 -10 -23 -66 -27 -66 -9 0 -42 45 -43 58 0
7 13 12 35 12 19 0 35 -2 35 -4z"/>
<path d="M7831 5124 c28 -29 35 -32 38 -18 4 20 -32 54 -57 54 -11 0 -5 -11
19 -36z"/>
<path d="M8890 5145 c0 -8 -9 -15 -20 -15 -11 0 -20 4 -20 8 0 4 -12 7 -27 6
-16 -1 -47 -2 -70 -3 -24 0 -43 -5 -43 -11 0 -5 7 -10 15 -10 20 0 19 -30 -5
-90 -23 -58 -23 -60 -11 -60 5 0 12 8 14 18 3 9 5 -9 6 -40 0 -32 6 -58 11
-58 6 0 10 5 10 11 0 7 11 9 30 6 l30 -6 0 53 c0 39 4 55 15 60 12 4 15 -6 15
-64 0 -66 11 -97 24 -65 4 13 17 14 61 10 62 -7 82 -1 64 21 -8 10 -16 11 -29
4 -25 -13 -30 -13 -30 5 0 9 10 15 26 15 16 0 24 5 21 13 -2 6 -14 11 -26 10
-15 -2 -21 3 -21 17 0 17 5 19 25 14 19 -5 25 -2 25 10 0 10 -7 15 -21 13 -12
-1 -24 4 -26 11 -3 7 4 12 19 12 13 0 29 4 36 9 19 12 -8 22 -40 14 -18 -5
-16 -1 11 18 46 32 45 43 -6 47 -32 2 -41 7 -36 18 3 8 -1 14 -11 14 -9 0 -16
-7 -16 -15z m-60 -33 c0 -4 -5 -13 -12 -20 -9 -9 -8 -12 4 -12 9 0 19 8 22 17
5 12 9 14 18 5 9 -9 6 -18 -12 -37 -15 -16 -27 -22 -33 -16 -6 6 -23 7 -39 4
-28 -5 -29 -4 -22 23 4 16 9 32 11 37 6 10 63 9 63 -1z m120 -14 c0 -6 -7 -7
-16 -4 -11 4 -18 -1 -21 -14 -3 -11 -12 -20 -19 -20 -20 0 -17 17 6 40 19 19
50 18 50 -2z m-40 -67 c0 -15 -16 -22 -34 -15 -25 9 -19 24 9 24 14 0 25 -4
25 -9z m-120 -51 c0 -43 -3 -50 -20 -50 -17 0 -20 7 -20 50 0 43 3 50 20 50
17 0 20 -7 20 -50z m118 3 c-4 -22 -48 -31 -48 -10 0 19 10 27 32 27 13 0 18
-6 16 -17z m2 -53 c0 -5 -11 -10 -25 -10 -14 0 -25 5 -25 10 0 6 11 10 25 10
14 0 25 -4 25 -10z"/>
<path d="M5206 5134 c-9 -8 -16 -20 -16 -25 0 -12 17 -12 25 1 10 16 45 12 52
-7 4 -10 -3 -24 -19 -38 l-25 -21 29 -17 c50 -29 26 -75 -33 -62 -26 6 -30 4
-27 -11 9 -49 103 -13 114 43 4 20 2 39 -4 45 -6 6 -8 23 -5 38 8 40 -12 70
-47 70 -16 0 -36 -7 -44 -16z"/>
<path d="M5360 5125 c-19 -20 -20 -25 -7 -25 9 0 19 5 22 10 3 6 15 10 26 10
26 0 26 -44 -1 -63 -20 -14 -19 -14 6 -25 20 -10 25 -18 22 -40 -3 -24 -7 -27
-46 -30 -50 -4 -54 -25 -6 -30 43 -4 84 30 84 72 0 17 -4 36 -10 42 -6 6 -6
21 -1 40 5 18 5 37 -1 47 -14 25 -61 21 -88 -8z"/>
<path d="M6220 5078 c0 -40 -3 -83 -6 -95 -5 -17 -2 -23 10 -23 13 0 16 13 16
85 0 97 0 93 -11 101 -5 3 -9 -27 -9 -68z"/>
<path d="M7920 5121 c0 -27 -28 -76 -76 -134 l-24 -29 0 70 c0 53 -4 71 -15
76 -13 4 -15 -8 -15 -82 l0 -87 -43 -19 c-23 -10 -36 -20 -29 -23 7 -3 20 -1
30 3 9 4 57 8 107 8 l89 1 2 33 c2 42 -12 51 -21 12 -6 -28 -9 -30 -56 -30
-27 0 -49 3 -49 6 0 4 20 29 45 55 25 26 52 65 61 86 9 21 20 45 25 54 9 19 2
29 -18 29 -8 0 -13 -11 -13 -29z"/>
<path d="M8497 5143 c-73 -2 -115 -7 -112 -13 3 -6 33 -10 66 -10 l59 0 0
-100 0 -100 -26 0 -26 0 4 75 c3 64 1 75 -13 75 -12 0 -15 -7 -12 -24 3 -13 0
-27 -6 -30 -7 -5 -7 -13 2 -27 10 -16 9 -22 -3 -30 -11 -8 -12 -12 -2 -16 24
-10 11 -23 -23 -23 -19 0 -35 -4 -35 -10 0 -6 57 -10 151 -10 129 0 150 2 140
14 -9 10 -27 13 -72 9 l-60 -6 3 49 3 49 48 3 c32 2 47 7 44 15 -2 8 -21 11
-51 9 l-47 -4 3 39 3 38 58 3 c40 2 57 7 54 15 -4 14 1 14 -150 10z"/>
<path d="M9137 5132 c-21 -23 -23 -72 -3 -72 9 0 16 12 18 33 2 25 8 33 26 35
25 4 52 -13 52 -33 0 -7 -13 -29 -30 -50 -30 -37 -40 -75 -20 -75 6 0 10 6 10
13 0 7 14 26 30 42 54 52 32 125 -37 125 -16 0 -37 -8 -46 -18z"/>
<path d="M4416 5099 c-9 -23 -26 -49 -38 -58 -11 -10 -19 -23 -17 -29 6 -17
52 26 78 71 20 36 21 57 1 57 -4 0 -15 -19 -24 -41z"/>
<path d="M6890 5056 c0 -47 5 -88 10 -91 6 -4 10 21 10 69 0 41 5 78 10 81 13
8 3 25 -16 25 -11 0 -14 -18 -14 -84z"/>
<path d="M1700 5117 c0 -14 31 -47 43 -47 13 0 7 29 -9 44 -19 20 -34 21 -34
3z"/>
<path d="M3770 5113 c0 -9 10 -11 33 -6 43 8 44 10 3 15 -25 3 -36 0 -36 -9z"/>
<path d="M4595 5090 c41 -42 55 -49 55 -26 0 18 -56 66 -78 66 -11 0 -4 -12
23 -40z"/>
<path d="M7140 5023 c0 -60 12 -89 24 -57 3 9 6 33 6 55 0 32 3 39 20 39 16 0
20 -7 20 -30 0 -17 -5 -29 -11 -27 -23 4 -18 -18 5 -29 22 -10 25 -9 29 20 3
17 8 45 11 62 l7 32 -56 -2 -55 -1 0 -62z"/>
<path d="M5690 5055 c0 -8 7 -15 15 -15 18 0 19 -12 3 -28 -9 -9 -8 -12 5 -12
19 0 41 36 33 56 -7 19 -56 18 -56 -1z"/>
<path d="M4555 5015 c-21 -34 -39 -50 -82 -70 -30 -14 -61 -25 -67 -25 -7 0
-21 -7 -32 -16 -18 -14 -16 -15 21 -9 72 12 140 51 179 104 40 54 42 61 21 61
-8 0 -26 -20 -40 -45z"/>
<path d="M7746 5035 c-5 -16 -15 -41 -23 -54 -10 -15 -12 -26 -5 -33 17 -17
44 36 40 79 l-4 38 -8 -30z"/>
<path d="M7956 5013 c21 -51 34 -63 34 -32 0 26 -25 69 -40 69 -5 0 -2 -17 6
-37z"/>
<path d="M4810 4953 c0 -18 5 -33 10 -33 13 0 13 30 0 50 -7 11 -10 7 -10 -17z"/>
<path d="M4900 4961 c13 -25 33 -28 28 -4 -2 10 -11 19 -21 21 -16 3 -17 1 -7
-17z"/>
<path d="M8240 4962 c0 -5 7 -16 16 -23 14 -12 16 -11 13 5 -4 20 -29 35 -29
18z"/>
<path d="M8153 4946 c4 -10 7 -22 7 -27 0 -5 5 -9 11 -9 15 0 7 43 -10 48 -10
3 -12 0 -8 -12z"/>
<path d="M9157 4926 c-7 -16 1 -26 20 -26 7 0 13 9 13 20 0 23 -25 27 -33 6z"/>
<path d="M1390 4380 c-10 -6 -11 -10 -2 -10 9 0 12 -26 12 -95 0 -69 -3 -95
-12 -96 -7 0 -2 -5 11 -10 30 -12 68 -2 52 14 -15 15 -14 170 1 185 9 9 8 12
-4 12 -9 0 -22 2 -30 5 -7 3 -20 0 -28 -5z"/>
<path d="M2455 4382 c-5 -4 -10 -26 -11 -50 0 -24 -4 -46 -10 -50 -9 -6 -34
-89 -34 -112 0 -24 27 -6 44 30 10 21 30 49 44 62 l25 23 -7 -25 c-17 -67 -19
-100 -4 -100 15 0 38 19 38 33 0 4 -5 5 -12 1 -8 -5 -9 -2 -3 12 5 10 10 38
13 62 5 47 -7 54 -47 25 -24 -16 -24 -16 -17 12 18 70 19 85 5 85 -8 0 -18 -4
-24 -8z"/>
<path d="M1964 4348 c-22 -42 -22 -129 0 -163 18 -28 52 -33 80 -12 25 18 39
102 25 147 -16 49 -27 60 -60 60 -22 0 -32 -7 -45 -32z m70 -10 c10 -40 6
-124 -6 -141 -22 -29 -41 -4 -46 61 -4 61 8 102 32 102 8 0 16 -10 20 -22z"/>
<path d="M2882 4357 c-26 -27 -17 -45 9 -21 16 15 20 15 34 1 21 -22 19 -48
-5 -54 -26 -7 -26 -19 0 -26 25 -6 36 -35 23 -56 -7 -11 -22 -15 -47 -13 -27
3 -36 0 -36 -12 0 -23 72 -22 92 2 35 39 39 58 18 85 -13 16 -16 28 -10 32 14
9 13 58 -2 73 -19 19 -53 14 -76 -11z"/>
<path d="M2288 4353 c-10 -2 -18 -8 -18 -12 0 -4 -25 -18 -55 -30 -30 -13 -55
-27 -55 -31 0 -5 33 -27 73 -49 l72 -41 -72 0 c-58 0 -73 -3 -73 -15 0 -12 15
-15 75 -15 l75 0 0 34 c0 31 -5 37 -49 59 l-49 24 49 23 c32 16 49 30 49 42 0
10 -1 17 -2 17 -2 -1 -11 -3 -20 -6z"/>
<path d="M2725 4329 c-27 -16 -57 -29 -66 -29 -9 0 -22 -7 -29 -15 -10 -12 -5
-18 31 -35 73 -34 115 -59 104 -61 -5 -1 -39 -3 -74 -4 -39 -1 -67 -7 -69 -13
-3 -9 21 -12 81 -12 l84 0 1 29 c0 25 -7 33 -55 59 l-55 29 56 26 c52 24 67
40 49 50 -5 2 -30 -9 -58 -24z"/>
<path d="M1492 4183 c2 -10 10 -18 18 -18 8 0 16 8 18 18 2 12 -3 17 -18 17
-15 0 -20 -5 -18 -17z"/>
<path d="M1388 3968 c8 -8 12 -45 12 -100 0 -81 2 -88 20 -88 18 0 20 7 20 88
0 55 4 92 12 100 9 9 2 12 -32 12 -34 0 -41 -3 -32 -12z"/>
<path d="M1488 3968 c8 -8 12 -45 12 -100 0 -85 1 -88 23 -88 21 0 22 2 19 86
-2 56 1 90 8 100 11 12 6 14 -31 14 -33 0 -40 -3 -31 -12z"/>
<path d="M1956 3964 c-15 -15 -21 -34 -11 -34 3 0 14 5 24 12 10 6 26 8 35 5
25 -10 20 -46 -9 -59 l-25 -11 30 -18 c49 -30 33 -69 -27 -69 -32 0 -43 -12
-23 -25 6 -4 28 -4 48 0 48 8 71 50 54 99 -6 17 -8 43 -5 59 3 15 0 34 -7 42
-16 20 -64 19 -84 -1z"/>
<path d="M2420 3971 c0 -5 6 -11 13 -14 9 -3 9 -9 1 -23 -6 -11 -19 -46 -28
-79 -9 -33 -19 -68 -22 -77 -4 -12 0 -18 10 -18 9 0 18 11 22 25 3 13 12 29
19 35 10 8 14 3 19 -25 8 -41 38 -48 56 -14 13 24 4 41 -10 19 -11 -18 -17
-12 -21 22 -3 18 4 35 20 52 l24 26 -25 0 c-18 0 -28 -7 -33 -22 -4 -14 -8
-18 -12 -10 -2 7 2 33 11 59 9 26 16 48 16 50 0 2 -13 3 -30 3 -16 0 -30 -4
-30 -9z"/>
<path d="M2890 3969 c-32 -13 -40 -26 -40 -71 0 -40 19 -58 60 -58 18 0 20 -4
14 -22 -3 -13 -7 -23 -8 -23 0 -1 -14 -7 -31 -15 l-30 -14 30 -4 c23 -3 35 3
53 25 53 64 60 133 17 171 -29 25 -30 25 -65 11z m51 -46 c13 -34 8 -57 -13
-61 -22 -4 -41 33 -34 64 8 32 34 31 47 -3z"/>
<path d="M2218 3923 c-38 -21 -68 -43 -68 -49 0 -9 57 -39 138 -71 6 -3 12 2
12 10 0 8 -24 25 -55 38 l-56 24 56 30 c30 17 55 36 55 43 0 18 -8 15 -82 -25z"/>
<path d="M2760 3953 c-8 -3 -43 -18 -77 -35 -63 -31 -79 -54 -45 -64 9 -3 41
-16 70 -30 58 -27 72 -29 72 -13 0 5 -25 22 -56 36 -50 23 -54 27 -38 36 11 6
25 17 32 24 7 7 22 13 33 13 11 0 22 7 26 15 7 19 3 24 -17 18z"/>
<path d="M1593 3788 c2 -7 10 -13 17 -13 7 0 15 6 18 13 2 7 -5 12 -18 12 -13
0 -20 -5 -17 -12z"/>
<path d="M2147 3784 c-4 -4 -4 -11 -1 -15 7 -12 141 -12 148 0 9 14 -133 29
-147 15z"/>
<path d="M2617 3784 c-4 -4 -7 -11 -7 -16 0 -12 158 -10 165 2 4 6 -18 10 -59
10 -35 0 -71 2 -78 5 -8 3 -17 2 -21 -1z"/>
<path d="M1960 3565 c-27 -28 -22 -43 8 -24 23 14 52 6 52 -15 0 -9 -12 -23
-26 -33 -25 -16 -25 -17 -6 -24 57 -21 41 -84 -18 -72 -23 4 -30 2 -30 -11 0
-12 9 -16 38 -16 46 0 58 8 71 43 8 21 8 35 -3 54 -10 20 -11 33 -3 54 9 23 8
32 -8 48 -24 28 -46 26 -75 -4z"/>
<path d="M2420 3581 c0 -6 4 -13 10 -16 6 -4 6 -12 1 -23 -5 -9 -17 -46 -26
-81 -10 -36 -19 -71 -22 -78 -3 -7 2 -13 10 -13 8 0 20 14 26 30 5 17 14 30
19 30 5 0 12 -13 16 -30 6 -33 39 -42 50 -14 9 22 8 24 -8 18 -9 -3 -15 4 -19
22 -3 20 2 34 19 51 31 31 30 33 -6 33 -30 0 -30 1 -24 40 6 38 5 40 -20 40
-14 0 -26 -4 -26 -9z m50 -91 c0 -5 -4 -10 -10 -10 -5 0 -10 5 -10 10 0 6 5
10 10 10 6 0 10 -4 10 -10z"/>
<path d="M2865 3582 c-2 -2 1 -12 8 -22 8 -14 8 -24 -1 -42 -14 -26 -42 -117
-42 -135 0 -7 7 -13 15 -13 8 0 15 6 15 13 0 7 7 22 15 32 46 61 54 69 60 63
3 -3 0 -29 -9 -56 -12 -42 -12 -51 -1 -56 7 -2 20 3 29 13 19 21 21 35 4 25
-8 -5 -9 -2 -4 12 5 10 10 36 13 57 5 33 3 37 -16 37 -11 0 -30 -9 -41 -20
-24 -24 -24 -24 -5 31 9 24 13 49 11 55 -4 12 -41 15 -51 6z"/>
<path d="M1398 3475 c3 -102 4 -105 26 -105 30 0 38 9 22 25 -17 17 -12 165 6
176 8 6 1 9 -22 9 l-35 0 3 -105z"/>
<path d="M1488 3573 c8 -3 12 -33 12 -98 0 -65 -4 -95 -12 -98 -7 -3 7 -6 32
-6 34 -1 41 2 32 11 -17 17 -16 185 1 191 6 3 -8 5 -33 5 -25 0 -39 -2 -32 -5z"/>
<path d="M1589 3571 c10 -6 12 -32 10 -105 l-4 -96 35 1 c19 0 29 3 23 6 -9 3
-13 33 -13 98 0 65 4 95 13 98 6 3 -8 6 -33 6 -29 0 -40 -2 -31 -8z"/>
<path d="M3323 3530 c-16 -30 -18 -40 -8 -40 49 0 84 -45 64 -82 -8 -15 -17
-17 -43 -12 -36 6 -59 -11 -35 -27 21 -13 71 0 92 23 24 29 22 83 -5 108 -12
11 -25 20 -30 20 -4 0 -8 5 -8 10 0 6 13 10 29 10 16 0 34 7 41 15 11 13 6 15
-31 15 -41 0 -46 -3 -66 -40z"/>
<path d="M2270 3550 c-8 -5 -41 -20 -73 -34 -53 -23 -57 -27 -47 -46 6 -11 17
-20 26 -20 21 0 97 -40 90 -47 -3 -4 -33 -5 -66 -4 -48 2 -60 -1 -60 -13 0
-13 14 -16 78 -16 l79 0 1 28 c0 24 -7 31 -60 57 -55 27 -58 30 -36 38 75 29
98 41 98 54 0 15 -8 16 -30 3z"/>
<path d="M3118 3516 c-62 -31 -66 -35 -50 -49 24 -20 118 -67 137 -67 31 0 13
19 -40 44 -30 14 -55 29 -55 34 0 5 23 18 52 29 52 20 75 44 41 42 -10 0 -48
-15 -85 -33z"/>
<path d="M2600 3445 c0 -12 16 -15 80 -15 64 0 80 3 80 15 0 12 -16 15 -80 15
-64 0 -80 -3 -80 -15z"/>
<path d="M1694 3399 c-8 -14 11 -33 25 -25 6 4 11 14 11 22 0 16 -26 19 -36 3z"/>
<path d="M3055 3381 c-3 -5 -2 -12 3 -15 14 -8 162 6 156 15 -7 12 -151 11
-159 0z"/>
<path d="M3201 2857 c-6 -8 -8 -17 -4 -20 3 -4 -17 -7 -45 -7 -40 0 -52 -4
-52 -15 0 -10 11 -15 35 -15 19 0 35 -5 35 -10 0 -6 -19 -31 -41 -55 -47 -51
-46 -75 1 -30 l30 29 0 -82 c0 -82 16 -115 22 -44 l3 37 65 0 c51 0 65 -3 65
-15 0 -10 -8 -14 -27 -12 -35 3 -35 -7 -2 -32 20 -14 29 -15 37 -7 15 15 26
191 12 192 -5 0 -41 0 -79 -1 -62 -1 -68 0 -57 14 10 12 33 16 98 16 75 0 84
2 81 17 -3 15 -14 17 -83 14 -68 -2 -77 -1 -67 11 11 14 7 28 -8 28 -4 0 -13
-6 -19 -13z m117 -119 c-5 -15 -59 -22 -105 -13 -57 10 -36 25 38 25 52 0 70
-3 67 -12z m-10 -50 c3 -16 -5 -18 -62 -18 -36 0 -66 4 -66 8 0 21 28 33 75
30 38 -2 51 -7 53 -20z"/>
<path d="M2805 2770 c-1 -63 3 -90 11 -90 7 0 14 7 18 15 9 23 141 21 155 -2
13 -24 18 -7 24 83 l4 70 -89 -4 c-58 -3 -93 -1 -101 7 -6 6 -13 11 -16 11 -4
0 -6 -41 -6 -90z m183 3 l3 -43 -80 0 -81 0 0 38 c0 21 3 42 7 46 4 4 39 5 78
4 l70 -3 3 -42z"/>
<path d="M1962 2803 c-11 -21 -27 -60 -37 -88 -10 -27 -25 -57 -32 -66 -12
-14 -11 -17 3 -23 25 -10 57 3 45 18 -6 7 -8 22 -4 35 5 18 11 22 42 19 33 -3
36 -5 36 -35 0 -32 1 -33 39 -33 37 0 38 1 23 18 -9 10 -25 43 -36 73 -29 85
-45 119 -53 119 -4 0 -16 -17 -26 -37z m42 -84 c-3 -5 -14 -9 -25 -9 -19 0
-24 15 -13 44 5 14 9 14 25 -5 10 -12 16 -26 13 -30z"/>
<path d="M3592 2819 c9 -5 15 -16 12 -23 -3 -8 0 -17 6 -21 9 -6 9 -10 -1 -17
-11 -7 -11 -11 -1 -15 6 -2 9 -10 5 -16 -4 -7 -8 -27 -8 -46 -1 -19 -7 -37
-13 -39 -29 -9 -8 -22 36 -22 41 1 45 2 30 14 -15 11 -18 29 -18 99 0 73 3 86
18 90 9 3 -5 5 -33 6 -38 0 -46 -2 -33 -10z"/>
<path d="M2842 2670 c-6 -11 -30 -32 -52 -46 -26 -17 -37 -31 -31 -37 6 -6 25
2 53 22 67 48 78 57 78 70 0 19 -34 12 -48 -9z"/>
<path d="M2940 2681 c0 -6 14 -21 31 -33 17 -13 35 -33 40 -45 5 -13 13 -23
19 -23 20 0 10 37 -17 62 -35 32 -73 52 -73 39z"/>
<path d="M2112 2643 c2 -10 10 -18 18 -18 8 0 16 8 18 18 2 12 -3 17 -18 17
-15 0 -20 -5 -18 -17z"/>
<path d="M3194 2101 c12 -18 -24 -34 -65 -28 -34 4 -40 3 -37 -11 2 -12 15
-18 41 -20 l38 -3 -17 -27 c-9 -15 -31 -39 -47 -53 -21 -17 -27 -28 -19 -33 7
-4 25 5 43 23 l30 31 -6 -85 c-4 -72 -3 -85 10 -85 11 0 15 11 15 40 l0 40 65
0 c58 0 65 -2 65 -20 0 -16 -5 -19 -30 -13 -19 3 -30 1 -30 -6 0 -6 5 -11 12
-11 6 0 19 -7 28 -15 14 -12 19 -13 28 -3 15 19 20 200 5 205 -6 2 -14 -1 -18
-6 -8 -14 -115 -15 -115 -2 0 18 22 23 94 24 77 0 104 10 85 33 -8 9 -16 11
-23 5 -14 -12 -126 -11 -126 0 0 5 5 9 10 9 6 0 10 5 10 10 0 6 -12 10 -26 10
-14 0 -23 -4 -20 -9z m105 -116 c19 -11 2 -24 -27 -20 -15 2 -42 4 -59 4 -21
1 -33 6 -33 15 0 10 13 13 54 11 30 -1 59 -6 65 -10z m6 -55 c0 -11 -15 -16
-62 -18 -48 -2 -63 0 -63 11 0 24 12 28 70 25 41 -2 55 -7 55 -18z"/>
<path d="M2800 2008 c0 -54 4 -88 10 -88 6 0 13 7 16 15 9 22 136 21 154 0 21
-25 28 -6 31 79 l4 78 -108 2 -107 1 0 -87z m188 10 l3 -48 -80 0 -81 0 0 50
0 51 78 -3 77 -3 3 -47z"/>
<path d="M1880 2081 c0 -5 7 -14 15 -21 10 -9 15 -32 15 -75 0 -72 -6 -95 -26
-95 -8 0 -14 -4 -14 -10 0 -6 31 -10 73 -10 89 0 117 15 117 66 0 19 -5 34
-10 34 -6 0 -8 15 -4 38 5 34 3 42 -21 60 -21 17 -41 22 -86 22 -33 0 -59 -4
-59 -9z m112 -28 c23 -21 24 -53 1 -54 -10 0 -26 -2 -35 -4 -14 -3 -18 4 -18
29 0 49 18 60 52 29z m6 -89 c16 -5 22 -14 22 -34 0 -29 -15 -40 -56 -40 -21
0 -24 4 -24 40 0 42 8 47 58 34z"/>
<path d="M3598 2048 c14 -40 6 -151 -12 -163 -23 -17 -9 -25 43 -25 40 1 44 2
29 14 -15 11 -18 29 -18 105 0 90 0 91 -25 91 -21 0 -23 -3 -17 -22z"/>
<path d="M3706 2043 c4 -16 7 -30 6 -33 -1 -90 -4 -111 -17 -123 -8 -8 -11
-17 -8 -21 10 -10 73 -7 73 4 0 6 -5 10 -11 10 -7 0 -9 32 -7 95 3 93 3 95
-20 95 -19 0 -22 -4 -16 -27z"/>
<path d="M2835 1907 c-11 -12 -36 -34 -55 -49 -19 -15 -32 -30 -28 -33 8 -9
77 36 112 74 26 27 27 31 10 31 -10 0 -28 -10 -39 -23z"/>
<path d="M2930 1923 c0 -9 96 -103 105 -103 17 0 0 41 -27 67 -33 31 -78 52
-78 36z"/>
<path d="M2105 1902 c-15 -11 -16 -30 -1 -35 20 -8 40 9 33 27 -7 17 -16 20
-32 8z"/>
<path d="M3192 1329 c-11 -17 -21 -20 -58 -17 -31 2 -44 -1 -44 -10 0 -9 11
-10 40 -6 52 9 52 -5 -1 -68 -46 -55 -47 -72 -1 -33 l31 26 -4 -86 c-3 -69 -1
-85 11 -85 10 0 14 12 14 43 l0 43 65 2 c59 2 65 1 65 -17 0 -15 -8 -20 -32
-23 l-32 -3 28 -18 c42 -28 54 -9 58 94 l3 87 -80 -6 -80 -5 16 24 c18 26 74
37 106 21 11 -5 31 -5 51 0 28 8 32 11 21 24 -8 10 -15 12 -23 4 -5 -5 -36
-10 -69 -10 -54 0 -58 2 -52 20 9 27 -16 26 -33 -1z m110 -107 c9 -9 -2 -12
-55 -12 -52 0 -67 3 -67 15 0 18 103 16 122 -3z m3 -52 c0 -11 -15 -16 -62
-18 -48 -2 -63 0 -63 11 0 24 12 28 70 25 41 -2 55 -7 55 -18z"/>
<path d="M2796 1251 c1 -54 5 -86 12 -89 7 -2 12 3 12 12 0 9 7 16 15 16 32 0
6 -41 -50 -80 -48 -33 -54 -62 -7 -33 54 33 115 87 104 91 -29 9 -7 22 38 22
36 0 52 -4 56 -15 5 -12 10 -13 20 -4 10 8 14 35 14 88 l0 76 -108 0 -107 0 1
-84z m176 9 l3 -50 -77 0 -78 0 0 50 0 50 74 0 74 0 4 -50z"/>
<path d="M3840 1328 c0 -11 47 -21 59 -13 14 8 14 -87 0 -138 -5 -21 -23 -53
-40 -71 -16 -19 -25 -37 -20 -40 15 -10 69 61 81 106 15 60 18 66 19 41 1 -12
12 -35 26 -51 14 -17 25 -32 25 -35 0 -2 -21 -12 -47 -22 -53 -20 -70 -31 -60
-42 7 -6 17 -2 93 34 28 13 34 13 76 -10 32 -17 51 -21 62 -15 25 14 19 26
-16 33 -67 15 -70 20 -41 70 13 25 29 45 34 45 14 0 10 27 -5 33 -8 3 -24 3
-36 0 -18 -5 -21 -3 -17 13 4 10 9 30 12 44 l6 25 -106 0 c-58 0 -105 -3 -105
-7z m180 -20 c-1 -43 -13 -58 -47 -58 -32 0 -34 2 -31 27 3 27 13 33 71 42 4
0 7 -5 7 -11z m30 -84 c0 -14 -33 -74 -40 -74 -8 0 -34 33 -54 68 -5 9 6 12
43 12 28 0 51 -3 51 -6z"/>
<path d="M1909 1299 c-16 -18 -28 -38 -25 -45 3 -7 0 -14 -7 -17 -16 -5 7 -78
32 -101 29 -26 95 -32 126 -12 14 9 25 24 25 33 0 15 -2 14 -19 -1 -23 -21
-77 -24 -96 -5 -8 8 -17 32 -20 54 -7 48 23 105 55 105 21 0 60 -33 60 -50 0
-5 5 -10 10 -10 12 0 13 50 2 66 -4 6 -31 12 -60 13 -48 2 -55 0 -83 -30z"/>
<path d="M3582 1309 c25 -14 25 -177 1 -186 -25 -10 15 -21 54 -16 32 5 32 5
12 26 -28 30 -27 134 1 165 l21 22 -53 0 c-40 -1 -49 -3 -36 -11z"/>
<path d="M4349 1226 c3 -77 1 -92 -15 -103 -16 -11 -12 -13 32 -13 38 1 45 3
32 11 -15 8 -18 24 -18 85 0 41 4 83 9 93 8 15 6 18 -17 18 l-27 0 4 -91z"/>
<path d="M4439 1307 c15 -15 15 -169 -1 -185 -9 -9 -2 -12 32 -12 34 0 41 3
32 12 -8 8 -12 46 -12 103 l0 92 -31 1 c-24 1 -29 -2 -20 -11z"/>
<path d="M4558 1228 c3 -80 2 -94 -14 -105 -16 -11 -12 -13 32 -13 38 1 45 3
32 11 -15 8 -18 25 -18 94 0 69 3 86 18 94 14 9 10 10 -19 11 l-36 0 5 -92z"/>
<path d="M2930 1162 c0 -5 12 -15 26 -22 14 -8 33 -27 42 -42 17 -29 27 -34
37 -18 8 14 -64 90 -86 90 -11 0 -19 -4 -19 -8z"/>
<path d="M2085 1140 c-9 -15 4 -30 26 -30 12 0 19 7 19 20 0 21 -33 29 -45 10z"/>
<path d="M3180 570 c0 -17 -7 -20 -45 -20 -25 0 -45 -4 -45 -10 0 -5 16 -10
35 -10 48 0 45 -20 -10 -73 -51 -49 -50 -70 2 -31 l33 25 0 -80 c0 -47 4 -81
10 -81 6 0 10 17 10 39 l0 39 58 4 c65 6 82 2 82 -18 0 -9 -11 -14 -30 -14
-16 0 -30 -4 -30 -9 0 -13 60 -25 70 -15 5 5 10 47 11 94 l2 85 -77 -4 c-77
-3 -78 -3 -67 18 10 19 20 21 92 20 85 -1 111 9 84 31 -12 10 -19 10 -27 2 -7
-7 -39 -12 -72 -12 -47 0 -57 3 -48 12 19 19 14 28 -13 28 -18 0 -25 -5 -25
-20z m123 -100 c4 0 7 -4 7 -10 0 -6 -30 -10 -70 -10 -63 0 -81 6 -65 22 3 3
31 3 63 2 31 -2 60 -3 65 -4z m0 -47 c17 -16 -19 -33 -69 -33 -52 0 -71 10
-59 30 7 11 118 14 128 3z"/>
<path d="M2795 491 c1 -54 5 -86 12 -88 6 -2 13 4 15 13 3 15 13 17 72 15 50
-2 73 -7 81 -18 17 -23 22 -7 26 81 l4 79 -105 1 -105 1 0 -84z m176 44 c1 -8
1 -24 1 -35 0 -51 2 -50 -77 -50 l-75 0 0 50 0 50 75 0 c60 0 75 -3 76 -15z"/>
<path d="M4030 571 c-52 -3 -90 -10 -83 -14 7 -4 24 -5 38 -1 24 6 25 5 25
-47 0 -75 -17 -127 -51 -161 -29 -30 -37 -48 -20 -48 19 0 71 72 81 112 6 24
12 48 14 53 2 6 6 -4 10 -21 4 -18 16 -40 27 -50 10 -9 19 -20 19 -24 0 -4
-21 -15 -47 -25 -27 -10 -52 -22 -58 -28 -14 -14 51 -1 89 19 29 14 34 14 78
-7 45 -21 78 -21 78 1 0 5 -9 10 -20 10 -12 0 -35 7 -51 16 l-30 15 35 50 c44
61 45 71 4 67 -36 -3 -37 0 -24 60 6 24 4 32 -6 30 -7 -1 -56 -4 -108 -7z m83
-45 c-2 -33 -18 -47 -48 -44 -28 4 -35 64 -8 71 41 11 58 3 56 -27z m37 -66
c0 -18 -30 -70 -40 -70 -11 0 -50 54 -50 69 0 6 19 11 45 11 25 0 45 -5 45
-10z"/>
<path d="M1880 560 c0 -5 5 -10 10 -10 6 0 10 -37 10 -90 0 -53 -4 -90 -10
-90 -5 0 -10 -5 -10 -11 0 -18 136 -5 159 15 10 9 23 34 30 56 24 82 -33 140
-138 140 -28 0 -51 -4 -51 -10z m136 -32 c21 -16 26 -75 10 -112 -13 -32 -19
-36 -50 -36 l-36 0 0 78 c0 43 3 82 6 85 8 8 54 -2 70 -15z"/>
<path d="M3585 544 c19 -20 19 -131 -1 -169 -13 -25 -13 -25 34 -25 37 1 43 3
30 11 -15 8 -18 24 -18 89 0 43 5 82 10 85 22 14 8 25 -31 25 -37 0 -39 -1
-24 -16z"/>
<path d="M3688 548 c7 -7 12 -44 12 -95 0 -68 -3 -84 -17 -92 -14 -8 -7 -10
32 -10 40 0 46 2 32 10 -15 9 -18 22 -16 82 1 41 7 82 15 95 14 21 14 22 -28
22 -33 0 -39 -3 -30 -12z"/>
<path d="M4438 548 c7 -7 12 -44 12 -95 0 -68 -3 -84 -17 -92 -14 -8 -7 -10
32 -10 39 0 46 2 33 10 -25 14 -26 159 -2 183 14 15 12 16 -27 16 -34 0 -40
-3 -31 -12z"/>
<path d="M4538 548 c16 -16 16 -170 0 -186 -9 -9 -2 -12 32 -12 34 0 41 3 32
12 -16 16 -16 170 0 186 9 9 2 12 -32 12 -34 0 -41 -3 -32 -12z"/>
<path d="M4648 548 c7 -7 12 -44 12 -95 0 -68 -3 -84 -17 -92 -14 -8 -7 -10
32 -10 39 0 46 2 33 10 -25 14 -26 159 -2 183 14 15 12 16 -27 16 -34 0 -40
-3 -31 -12z"/>
<path d="M2834 396 c-3 -7 -25 -28 -49 -46 -47 -35 -52 -61 -7 -33 34 21 92
74 92 85 0 14 -30 9 -36 -6z"/>
<path d="M2930 401 c0 -5 23 -28 50 -51 42 -35 50 -39 50 -22 0 20 -29 52 -47
52 -6 0 -16 7 -23 15 -14 17 -30 20 -30 6z"/>
<path d="M2110 370 c0 -11 7 -20 15 -20 8 0 15 9 15 20 0 11 -7 20 -15 20 -8
0 -15 -9 -15 -20z"/>
</g>
</svg>
