<?xml version="1.0" standalone="no"?>
<!DOCTYPE svg PUBLIC "-//W3C//DTD SVG 20010904//EN"
 "http://www.w3.org/TR/2001/REC-SVG-20010904/DTD/svg10.dtd">
<svg version="1.0" xmlns="http://www.w3.org/2000/svg"
 width="1480.000000pt" height="752.000000pt" viewBox="0 0 1480.000000 752.000000"
 preserveAspectRatio="xMidYMid meet">
<metadata>
Created by potrace 1.16, written by Peter Selinger 2001-2019
</metadata>
<g transform="translate(0.000000,752.000000) scale(0.100000,-0.100000)"
fill="#000000" stroke="none">
<path d="M1590 7134 l0 -36 -52 4 -53 4 1 -70 c1 -43 6 -72 13 -74 6 -2 11 1
11 7 0 5 18 9 40 8 l40 -1 0 -59 c0 -78 24 -74 28 5 3 54 3 55 35 55 18 0 38
-4 45 -10 17 -14 19 -11 25 66 l5 67 -55 0 -54 0 3 32 c2 24 -1 33 -14 36 -15
3 -18 -4 -18 -34z m0 -97 l0 -43 -37 1 c-37 0 -38 1 -41 43 l-3 42 40 0 41 0
0 -43z m108 1 c-3 -42 -4 -43 -40 -46 l-38 -3 0 45 0 46 41 0 40 0 -3 -42z"/>
<path d="M1148 7020 c-2 -74 0 -139 4 -144 16 -20 22 7 19 84 -1 52 1 80 8 80
7 0 11 -27 11 -70 0 -53 3 -70 14 -70 8 0 17 7 20 16 5 13 18 16 67 12 68 -5
66 -8 72 75 3 43 0 57 -10 57 -8 0 -13 13 -13 35 0 29 4 35 21 35 21 0 21 -3
18 -127 -3 -95 -1 -127 9 -130 9 -4 12 26 14 126 0 72 1 136 2 142 1 7 -41 11
-126 12 l-127 2 -3 -135z m70 73 c3 -30 1 -33 -22 -33 -23 0 -26 4 -26 36 0
31 3 35 23 32 17 -2 23 -11 25 -35z m88 21 c-3 -9 -6 -20 -6 -25 0 -5 -12 -9
-26 -9 -19 0 -25 4 -20 15 3 8 1 15 -4 15 -6 0 -10 5 -10 10 0 6 16 10 36 10
29 0 35 -3 30 -16z m2 -81 c-15 -2 -42 -2 -60 0 -18 2 -6 4 27 4 33 0 48 -2
33 -4z m-18 -23 c0 -5 -9 -10 -20 -10 -11 0 -20 5 -20 10 0 6 9 10 20 10 11 0
20 -4 20 -10z m40 -35 c0 -19 -4 -35 -10 -35 -5 0 -10 16 -10 35 0 19 5 35 10
35 6 0 10 -16 10 -35z m-43 -1 c-3 -3 -12 -4 -19 -1 -8 3 -5 6 6 6 11 1 17 -2
13 -5z m-4 -31 c-7 -2 -19 -2 -25 0 -7 3 -2 5 12 5 14 0 19 -2 13 -5z"/>
<path d="M1872 7144 c-18 -8 -37 -12 -41 -9 -11 6 -24 -61 -16 -75 6 -10 -10
-145 -21 -173 -3 -9 -2 -17 2 -17 11 0 30 43 39 88 5 24 12 32 28 33 l22 0
-22 9 c-16 6 -23 18 -23 35 0 22 4 25 35 25 27 0 35 -4 35 -18 0 -10 -5 -23
-11 -29 -9 -9 -8 -16 3 -27 21 -20 28 -11 28 35 0 21 4 40 8 43 15 9 -5 -133
-22 -159 -10 -15 -15 -30 -11 -33 11 -11 44 41 51 78 11 66 20 85 42 88 21 3
22 0 22 -82 0 -51 4 -86 10 -86 6 0 10 35 10 85 0 79 1 85 21 85 12 0 19 5 16
13 -2 8 -20 11 -56 9 -52 -4 -53 -4 -49 24 2 23 9 30 34 35 51 10 68 19 58 29
-15 14 -118 -24 -124 -46 -4 -15 -16 -20 -53 -22 -43 -4 -48 -2 -45 14 2 13
17 21 46 27 26 5 42 14 42 23 0 17 -15 17 -58 -2z"/>
<path d="M2640 7150 c-14 -4 -49 -8 -78 -9 -45 -1 -54 -4 -61 -24 -5 -13 -16
-29 -25 -36 -18 -16 -12 -33 9 -24 12 4 15 -4 15 -37 0 -51 -20 -121 -31 -114
-5 3 -9 -2 -9 -10 0 -22 30 -20 31 2 0 10 3 12 6 5 8 -21 33 -15 45 12 13 29
1 49 -13 22 -15 -27 -30 -20 -17 8 10 23 16 25 79 25 63 0 67 -1 73 -25 4 -14
11 -25 16 -25 15 0 12 37 -2 43 -7 3 -2 6 11 6 17 1 22 -3 17 -15 -3 -9 -6
-24 -6 -35 0 -13 -6 -18 -21 -16 -27 3 -36 -18 -13 -27 27 -10 54 3 54 27 0
12 7 35 15 51 19 37 19 36 -10 36 -22 0 -25 4 -23 28 2 20 -1 27 -14 26 -12
-1 -17 5 -15 20 2 18 -2 21 -30 18 -38 -4 -46 20 -14 38 31 16 40 12 58 -25
16 -33 33 -46 33 -25 0 6 -6 28 -12 50 -13 41 -22 45 -68 30z m-53 -46 c4 -12
-46 -26 -60 -17 -4 3 -3 11 4 19 14 17 50 15 56 -2z m60 -48 c-6 -16 -107 -16
-107 0 0 10 16 13 55 12 35 -1 54 -6 52 -12z m23 -48 c0 -16 -10 -18 -70 -18
-38 0 -70 2 -70 4 0 28 15 34 76 33 54 -2 64 -5 64 -19z"/>
<path d="M2903 7129 c-6 -30 -7 -30 -57 -28 -30 2 -49 -1 -46 -6 3 -6 24 -10
47 -9 l42 1 -16 -30 c-8 -16 -31 -45 -51 -63 -20 -18 -33 -36 -29 -40 4 -4 13
-2 19 4 26 26 38 13 38 -38 0 -27 4 -50 9 -50 10 0 21 49 21 99 0 20 9 54 19
77 15 34 24 41 48 42 29 1 29 -1 24 -36 -4 -20 -12 -38 -19 -38 -6 -1 -24 -2
-38 -3 -14 0 -22 -5 -19 -11 3 -6 16 -8 28 -5 35 8 49 -8 45 -51 -3 -38 -4
-39 -45 -42 -67 -5 -51 -24 17 -21 33 1 63 -1 67 -4 11 -11 48 -8 67 6 16 12
16 15 3 26 -10 8 -17 9 -22 1 -3 -5 -19 -10 -36 -10 -28 0 -29 2 -29 46 0 44
1 46 24 40 15 -4 28 0 36 9 14 17 3 40 -13 27 -7 -5 -20 -9 -30 -9 -14 0 -17
7 -14 35 4 34 5 35 47 36 25 1 45 6 47 13 4 10 -15 11 -76 6 -78 -6 -81 -5
-81 16 0 11 5 21 11 21 5 0 7 5 4 10 -13 21 -36 9 -42 -21z"/>
<path d="M3950 7146 c0 -9 -3 -16 -7 -17 -5 0 -35 -1 -68 -2 -73 -2 -73 -22 0
-23 70 -2 75 -3 75 -15 0 -7 -12 -10 -30 -7 l-30 5 0 -94 c0 -79 -2 -93 -16
-93 -14 0 -16 12 -12 80 3 73 -2 90 -25 90 -1 0 -2 -45 -2 -100 0 -93 1 -99
19 -94 10 3 66 6 125 6 58 0 110 2 114 5 12 7 -25 32 -40 26 -10 -4 -13 12
-13 65 0 41 4 72 11 74 5 2 7 11 4 20 -5 12 -15 15 -46 11 -30 -4 -39 -2 -39
9 0 11 15 14 70 13 39 -1 70 1 70 5 0 18 -29 30 -51 22 -13 -4 -30 -7 -36 -6
-7 1 -20 2 -28 3 -8 0 -14 6 -12 13 1 6 -6 14 -15 16 -11 2 -18 -2 -18 -12z
m70 -96 c0 -5 -25 -10 -55 -10 -30 0 -55 5 -55 10 0 6 25 10 55 10 30 0 55 -4
55 -10z m0 -45 c0 -15 -7 -17 -55 -17 -48 0 -55 2 -55 17 0 12 13 15 55 15 42
0 55 -3 55 -15z m0 -44 c0 -12 -57 -22 -86 -15 -43 11 -26 24 31 24 30 0 55
-4 55 -9z m-3 -43 c-2 -8 -22 -13 -52 -13 -30 0 -50 5 -53 13 -3 9 12 12 53
12 41 0 56 -3 52 -12z"/>
<path d="M4225 7116 c-22 -22 -49 -47 -60 -54 -19 -12 -18 -12 8 -9 27 4 27 3
27 -50 0 -52 -20 -109 -44 -126 -7 -5 -3 -7 9 -5 11 2 29 20 40 41 l20 37 83
0 c80 0 83 -1 80 -22 -2 -14 -12 -24 -27 -28 l-24 -6 27 -18 c44 -28 54 -9 57
109 l3 100 -45 -3 c-40 -3 -42 -2 -25 11 21 15 16 50 -6 42 -30 -10 -68 -13
-68 -4 0 5 5 9 10 9 6 0 10 5 10 10 0 22 -37 5 -75 -34z m90 -21 c0 -5 -20
-11 -45 -13 -41 -3 -43 -2 -26 11 22 16 71 17 71 2z m-25 -45 c0 -12 -45 -24
-59 -15 -22 13 -10 25 24 25 19 0 35 -4 35 -10z m100 -6 c0 -12 -7 -14 -32 -9
-52 11 -57 25 -10 25 32 0 42 -4 42 -16z m-100 -49 c0 -22 -4 -25 -35 -25 -31
0 -35 3 -35 25 0 22 4 25 35 25 31 0 35 -3 35 -25z m98 -2 c3 -20 -1 -23 -32
-23 -32 0 -36 3 -36 26 0 23 3 25 33 22 24 -2 33 -8 35 -25z"/>
<path d="M4620 7070 l0 -90 -42 -1 c-24 -1 -49 -1 -57 0 -7 2 -11 -4 -9 -11 3
-9 20 -12 57 -10 52 4 52 4 49 -24 -2 -22 -10 -29 -43 -38 -28 -8 -36 -14 -27
-20 8 -5 18 -4 24 2 5 5 24 7 41 3 18 -4 61 -7 97 -6 58 0 65 2 65 20 0 21 -3
22 -82 10 -43 -7 -43 -7 -43 24 0 30 1 31 45 29 47 -1 61 4 51 20 -3 5 -27 8
-53 6 -27 -2 -42 -1 -35 2 6 3 12 10 12 16 0 5 6 16 14 24 8 7 17 19 19 26 6
15 46 -28 47 -49 0 -24 20 -13 20 11 0 14 -11 33 -24 44 -18 14 -22 22 -14 30
12 12 4 42 -12 42 -5 0 -10 -9 -10 -19 0 -11 -6 -26 -13 -33 -7 -7 -21 -24
-31 -38 -18 -25 -18 -24 -14 48 3 64 2 72 -14 72 -16 0 -18 -10 -18 -90z"/>
<path d="M4877 7154 c-4 -4 -7 -22 -7 -41 0 -27 -4 -33 -22 -34 -17 -1 -19 -2
-5 -6 20 -5 21 -24 2 -78 -20 -54 -18 -65 5 -36 l20 23 0 -61 c0 -34 4 -61 10
-61 9 0 15 76 11 145 -1 25 0 27 9 12 6 -9 16 -15 21 -11 6 4 4 15 -5 30 -21
30 -20 34 4 34 14 0 20 -7 21 -25 1 -14 2 -31 3 -37 1 -9 23 -13 74 -13 39 0
72 -3 72 -7 0 -5 -38 -8 -85 -8 -50 0 -85 -4 -85 -10 0 -5 9 -10 20 -10 28 0
25 -20 -7 -46 -41 -33 -20 -41 22 -9 22 16 34 33 31 41 -3 8 -1 14 4 14 6 0
10 -13 10 -30 0 -21 -4 -28 -14 -24 -7 3 -16 -1 -19 -9 -4 -10 3 -17 21 -20
31 -6 47 13 47 53 0 22 5 25 43 28 41 3 53 14 31 28 -12 7 -7 115 6 148 8 17
5 19 -25 13 -18 -4 -61 -7 -97 -7 -44 0 -62 -3 -57 -11 3 -6 15 -9 25 -6 11 3
19 0 19 -8 0 -14 -56 -29 -72 -19 -5 3 -8 17 -6 32 3 25 -11 39 -25 26z m153
-44 c0 -5 -2 -10 -4 -10 -3 0 -8 5 -11 10 -3 6 -1 10 4 10 6 0 11 -4 11 -10z
m60 0 c0 -5 -7 -10 -15 -10 -8 0 -15 5 -15 10 0 6 7 10 15 10 8 0 15 -4 15
-10z m-102 -48 c2 -7 -3 -12 -12 -12 -9 0 -16 7 -16 16 0 17 22 14 28 -4z m52
3 c0 -8 -7 -15 -15 -15 -8 0 -15 7 -15 15 0 8 7 15 15 15 8 0 15 -7 15 -15z
m40 -5 c0 -11 -4 -20 -10 -20 -5 0 -10 9 -10 20 0 11 5 20 10 20 6 0 10 -9 10
-20z m-13 -36 c-10 -10 -97 -12 -103 -2 -3 4 21 8 52 8 32 0 54 -3 51 -6z"/>
<path d="M5375 7148 c-16 -6 -37 -13 -45 -16 -8 -3 -26 -7 -40 -9 -90 -12
-109 -16 -104 -24 7 -13 58 -11 71 2 8 8 13 8 17 0 10 -16 -2 -31 -19 -24 -22
8 -18 -11 6 -33 19 -17 19 -19 3 -31 -10 -7 -29 -13 -42 -13 -17 0 -23 -5 -20
-17 2 -12 11 -17 26 -15 29 4 28 0 -13 -42 -19 -19 -30 -38 -25 -41 6 -4 10
-3 10 2 0 4 19 19 41 33 22 14 37 30 35 37 -3 7 1 13 9 13 10 0 15 -15 17 -52
4 -71 22 -67 26 5 l3 57 44 0 c25 0 45 -4 45 -10 0 -5 7 -10 16 -10 28 0 0 61
-38 81 -16 9 -18 7 -13 -14 6 -23 4 -25 -39 -29 -28 -2 -45 1 -43 7 3 9 49 43
87 65 12 7 13 11 2 22 -11 11 -16 10 -26 -4 -7 -10 -18 -18 -23 -18 -6 0 -16
-7 -23 -15 -9 -11 -16 -13 -23 -6 -20 20 36 60 106 75 16 4 27 12 25 18 -6 16
-18 17 -53 6z"/>
<path d="M6797 7153 c-4 -3 -2 -12 4 -19 14 -18 7 -59 -10 -59 -8 0 -16 -6
-18 -12 -6 -16 23 -17 32 -3 5 8 11 7 21 -1 12 -10 18 -9 32 4 15 16 15 17 -1
17 -11 0 -17 8 -17 25 0 16 6 25 15 25 8 0 15 7 15 15 0 18 -12 19 -27 4 -8
-8 -13 -8 -17 0 -8 12 -20 14 -29 4z"/>
<path d="M2258 7142 c-122 -4 -112 -22 13 -22 73 0 100 3 97 12 -5 15 -4 14
-110 10z"/>
<path d="M3155 7139 c-2 -3 -5 -63 -6 -134 -1 -87 2 -130 10 -133 11 -4 16 74
11 184 -1 33 3 55 11 60 7 4 53 8 101 8 l88 1 0 -112 c0 -106 -1 -113 -20
-113 -24 0 -27 -15 -4 -24 36 -14 44 -7 44 37 0 24 5 48 12 55 9 9 9 17 -1 35
-10 20 -10 28 0 45 10 16 10 23 0 35 -8 11 -9 17 -1 22 6 4 10 14 8 22 -2 12
-25 15 -126 17 -68 0 -125 -2 -127 -5z"/>
<path d="M5630 7024 l0 -126 -42 3 c-24 1 -49 7 -56 12 -17 14 -27 1 -13 -17
9 -11 40 -14 135 -14 134 0 158 6 136 32 -11 14 -15 15 -29 3 -9 -8 -34 -14
-56 -13 l-40 1 -5 63 -5 62 58 0 c57 0 69 8 43 29 -10 8 -16 9 -21 1 -3 -5
-22 -10 -42 -10 l-36 0 6 50 c5 45 4 50 -13 50 -19 0 -20 -8 -20 -126z"/>
<path d="M7216 7138 c-14 -46 -16 -49 -36 -43 -19 6 -20 2 -20 -99 0 -97 11
-142 23 -96 3 14 14 20 31 20 14 0 26 -4 26 -10 0 -5 7 -10 15 -10 12 0 15 13
15 58 1 76 29 112 91 112 l41 0 -5 -80 c-3 -44 -9 -85 -13 -91 -3 -6 -19 -9
-35 -5 -38 7 -37 -8 2 -24 48 -20 62 1 67 105 2 47 8 85 13 85 5 0 9 9 9 20 0
17 -5 18 -50 13 -41 -5 -50 -3 -50 10 0 9 5 19 10 22 17 10 11 25 -9 25 -12 0
-21 -9 -25 -25 -4 -14 -16 -40 -27 -58 l-20 -32 3 30 c3 26 0 30 -19 28 -24
-3 -32 20 -13 32 6 3 10 10 10 16 0 14 -30 11 -34 -3z m34 -79 c0 -48 -63 -63
-68 -16 -3 25 0 27 32 27 20 0 36 -5 36 -11z m-12 -96 c3 -28 1 -29 -27 -25
-24 3 -31 9 -31 26 0 29 8 36 34 32 15 -2 22 -11 24 -33z"/>
<path d="M7504 7141 c-9 -10 -4 -281 6 -281 6 0 10 3 10 8 0 4 55 7 122 7
l123 0 0 133 0 133 -128 2 c-71 1 -131 0 -133 -2z m71 -59 c0 -36 -1 -38 -27
-34 -23 4 -28 9 -28 31 0 33 7 41 34 41 18 0 21 -6 21 -38z m90 28 c4 -6 -8
-10 -29 -10 -20 0 -36 5 -36 10 0 6 13 10 29 10 17 0 33 -4 36 -10z m65 -23
c0 -24 -5 -33 -18 -34 -14 -1 -18 6 -18 33 0 26 4 34 18 34 14 0 18 -8 18 -33z
m-72 -14 c-10 -2 -28 -2 -40 0 -13 2 -5 4 17 4 22 1 32 -1 23 -4z m9 -19 c-3
-3 -12 -4 -19 -1 -8 3 -5 6 6 6 11 1 17 -2 13 -5z m-109 -91 c-3 -51 -7 -68
-18 -68 -11 0 -16 15 -18 54 -4 63 2 81 24 81 13 0 15 -10 12 -67z m130 17 c2
-32 -1 -50 -9 -50 -7 0 -9 9 -5 23 9 36 -3 64 -27 62 -11 -1 -23 -7 -25 -13
-2 -7 -8 -12 -14 -12 -6 0 -7 8 -3 18 4 11 3 14 -4 7 -5 -5 -11 -28 -14 -50
-3 -36 -4 -35 -5 13 l-2 52 53 0 52 0 3 -50z m42 -20 l0 -70 -75 0 c-57 0 -75
3 -75 14 0 10 14 12 65 8 l65 -4 2 48 c0 27 1 55 1 62 -1 6 3 12 8 12 5 0 9
-31 9 -70z m-80 0 c0 -5 -9 -10 -20 -10 -11 0 -20 5 -20 10 0 6 9 10 20 10 11
0 20 -4 20 -10z m-7 -27 c-7 -2 -21 -2 -30 0 -10 3 -4 5 12 5 17 0 24 -2 18
-5z"/>
<path d="M7876 7115 c-4 -19 -13 -41 -21 -49 -8 -8 -19 -26 -25 -41 -9 -24 -8
-26 10 -20 19 6 20 2 20 -69 0 -81 16 -111 26 -49 4 27 11 39 22 39 10 1 31 4
47 8 l30 8 -33 -21 c-18 -12 -37 -21 -42 -21 -6 0 -10 -4 -10 -10 0 -12 20
-13 40 0 10 6 20 3 33 -11 27 -29 51 -21 55 20 l3 33 28 -26 c24 -23 30 -25
40 -12 10 12 7 18 -20 32 -31 16 -32 17 -14 30 10 8 25 14 33 14 8 0 10 5 5
13 -4 6 -8 32 -8 57 0 48 -2 49 -55 35 -23 -6 -24 -5 -7 8 9 8 17 19 17 26 0
10 -4 12 -36 15 -6 1 -19 8 -29 16 -16 13 -19 13 -29 -4 -6 -11 -23 -33 -38
-50 -30 -34 -38 -20 -14 26 14 27 12 38 -10 38 -6 0 -15 -16 -18 -35z m134
-26 c0 -5 -14 -9 -32 -9 -30 0 -30 1 -13 14 19 14 45 11 45 -5z m-20 -44 c0
-10 -10 -15 -30 -15 -29 0 -38 9 -23 23 13 13 53 7 53 -8z m70 0 c0 -9 -9 -15
-25 -15 -24 0 -32 10 -18 23 12 13 43 7 43 -8z m-148 -17 c2 -16 9 -22 21 -20
26 4 21 -13 -8 -26 -36 -16 -35 -17 -35 28 0 42 16 56 22 18z m152 -27 c8 -13
-21 -34 -39 -27 -25 9 -18 36 9 36 14 0 27 -4 30 -9z m-109 -42 c-22 -10 -47
-18 -55 -18 -19 1 60 38 80 37 8 0 -3 -8 -25 -19z m55 -54 c0 -8 -7 -15 -15
-15 -26 0 -18 20 13 29 1 1 2 -6 2 -14z"/>
<path d="M9420 7139 c0 -5 5 -9 10 -9 6 0 10 -12 10 -26 0 -17 -6 -28 -20 -31
-11 -3 -20 -12 -20 -19 0 -18 15 -18 33 1 13 13 16 13 21 0 7 -18 36 -9 36 12
0 8 -4 11 -10 8 -16 -10 -11 31 5 45 24 20 18 26 -25 27 -22 1 -40 -2 -40 -8z"/>
<path d="M9857 7144 c-4 -4 -7 -18 -7 -32 0 -21 -3 -23 -25 -18 l-25 6 0 -104
c0 -105 7 -129 30 -101 16 20 39 19 62 -2 17 -15 18 -14 18 46 0 59 2 64 37
97 30 28 43 34 72 32 l35 -3 -3 -65 c-3 -80 -20 -110 -62 -110 -37 0 -30 -16
12 -25 48 -11 61 10 74 120 6 52 9 97 7 100 -3 3 -27 5 -54 5 -35 0 -48 4 -48
14 0 8 6 16 13 19 9 3 9 7 0 17 -14 16 -33 4 -33 -20 0 -25 -31 -90 -43 -90
-5 0 -7 14 -3 30 5 27 3 30 -20 30 -21 0 -25 4 -19 18 3 9 7 21 8 26 3 11 -17
18 -26 10z m31 -101 c-2 -22 -8 -28 -27 -28 -31 0 -52 31 -31 45 8 5 25 10 38
10 20 0 23 -4 20 -27z m2 -89 c0 -21 -5 -24 -35 -24 -32 0 -35 2 -35 29 0 23
5 30 23 33 29 5 47 -9 47 -38z"/>
<path d="M10525 7137 c-2 -6 -6 -24 -9 -38 -3 -14 -17 -42 -30 -62 -25 -36
-16 -52 13 -24 11 10 13 -1 9 -63 -6 -79 -2 -104 13 -94 5 3 9 53 9 112 1 74
5 115 15 132 18 32 18 37 0 44 -9 3 -17 0 -20 -7z"/>
<path d="M11310 7126 c0 -22 -4 -26 -30 -26 -16 0 -30 -4 -30 -10 0 -5 14 -10
30 -10 l30 0 0 -65 0 -65 -37 -1 -38 -2 40 -6 c22 -3 40 -12 40 -19 0 -7 -18
-23 -40 -37 -34 -21 -37 -24 -17 -25 26 0 57 14 84 38 14 11 15 18 7 29 -9 10
-3 13 32 12 24 0 38 -3 32 -6 -16 -6 -17 -23 -2 -23 6 0 25 -11 43 -25 36 -27
46 -30 46 -15 0 5 -16 20 -35 32 -46 30 -44 40 7 36 28 -2 43 1 46 11 3 10 -4
12 -37 6 l-41 -7 0 66 0 66 36 0 c24 0 34 4 31 13 -2 6 -16 11 -30 9 -20 -2
-26 2 -29 19 -5 33 -28 36 -28 5 0 -24 -4 -26 -39 -26 -33 0 -40 4 -43 22 -5
32 -28 35 -28 4z m108 -58 c-3 -7 -23 -14 -46 -16 -33 -2 -42 0 -42 12 0 12
11 16 46 16 32 0 44 -4 42 -12z m0 -51 c3 -16 -2 -18 -40 -15 -32 2 -44 8 -46
21 -3 16 2 18 40 15 32 -2 44 -8 46 -21z m0 -49 c-3 -7 -23 -14 -46 -16 -33
-2 -42 0 -42 12 0 12 11 16 46 16 32 0 44 -4 42 -12z"/>
<path d="M11700 7114 l0 -37 -57 6 -58 6 0 -68 0 -69 58 6 57 5 0 -57 c0 -68
20 -76 21 -8 1 26 1 50 0 55 -2 11 84 8 96 -4 15 -15 23 13 21 83 l-2 56 -53
-5 c-43 -5 -54 -3 -59 11 -4 10 -2 22 5 29 17 17 13 27 -9 27 -16 0 -20 -7
-20 -36z m0 -89 l0 -45 -45 0 -45 0 0 38 c0 48 4 52 52 52 l38 0 0 -45z m108
-3 l3 -43 -43 3 c-39 3 -43 6 -46 31 -5 44 2 53 44 52 39 0 39 0 42 -43z"/>
<path d="M13621 7105 c-22 -47 -27 -50 -50 -36 -9 6 -12 19 -8 40 6 26 4 31
-13 31 -17 0 -20 -7 -20 -40 0 -33 -3 -40 -20 -40 -11 0 -20 -4 -20 -9 0 -5 9
-11 20 -14 16 -4 20 -14 20 -51 0 -39 -3 -46 -20 -46 -13 0 -20 -7 -20 -20 0
-25 6 -25 58 2 39 21 61 55 27 42 -12 -5 -15 3 -15 35 0 23 5 41 10 41 6 0 10
-4 10 -8 0 -5 33 -10 73 -11 58 -2 70 0 59 10 -7 8 -31 12 -59 10 -42 -2 -45
-1 -34 13 10 11 31 16 72 16 l59 0 0 -34 c0 -19 -4 -37 -9 -40 -5 -3 -8 -21
-7 -40 4 -45 -16 -69 -54 -68 -38 1 -38 -3 2 -22 30 -15 33 -15 54 5 12 11 21
28 19 37 -1 9 1 22 5 27 4 6 10 43 12 83 l4 72 -63 0 c-62 0 -73 6 -53 26 8 8
6 14 -3 23 -12 9 -18 3 -36 -34z"/>
<path d="M14005 7143 c-11 -3 -24 -8 -30 -12 -5 -4 -30 -7 -54 -6 -39 1 -44
-1 -53 -27 -6 -15 -16 -28 -23 -28 -7 0 -16 -7 -19 -16 -6 -16 -5 -16 39 2 7
3 9 -18 5 -60 -4 -46 -12 -74 -29 -96 -12 -17 -20 -35 -16 -38 4 -4 13 2 21
13 11 15 17 17 23 7 6 -11 10 -11 18 0 17 21 26 58 14 58 -6 0 -11 -5 -11 -12
0 -6 -2 -9 -5 -6 -3 3 -3 13 1 22 5 12 20 16 69 16 59 0 63 -2 69 -25 4 -14
11 -25 16 -25 14 0 12 24 -2 38 -9 9 -6 12 15 12 30 0 32 -6 17 -44 -13 -35
-42 -33 -58 4 -8 17 -18 30 -24 30 -11 0 0 -43 13 -48 5 -2 9 -10 9 -18 0 -16
43 -29 60 -19 13 8 24 35 35 83 6 29 5 32 -19 32 -21 0 -24 4 -23 28 2 20 -2
27 -15 26 -12 -1 -17 5 -15 20 2 17 -3 21 -25 18 -24 -2 -28 1 -28 23 0 23 4
26 26 23 15 -2 32 -12 38 -23 18 -31 35 -47 45 -40 14 8 2 35 -15 35 -9 0 -14
11 -14 30 0 31 -8 34 -55 23z m-64 -43 c5 0 9 -7 9 -15 0 -10 -10 -15 -30 -15
-18 0 -30 5 -30 13 0 19 12 29 28 22 7 -3 18 -5 23 -5z m67 -52 c-3 -8 -24
-13 -58 -13 -34 0 -55 5 -57 13 -4 9 12 12 57 12 45 0 61 -3 58 -12z m22 -48
c0 -18 -7 -20 -70 -20 -52 0 -70 3 -70 13 0 23 11 27 77 27 56 0 63 -2 63 -20z"/>
<path d="M290 7115 c-28 -30 -19 -46 11 -19 20 18 21 18 35 -1 18 -24 14 -37
-14 -50 -23 -10 -30 -25 -12 -25 18 0 50 -39 44 -55 -4 -10 -20 -15 -51 -15
-53 0 -56 -23 -4 -28 50 -5 81 21 81 66 0 21 -5 43 -12 50 -9 9 -9 15 0 24 17
17 15 42 -6 61 -26 23 -45 21 -72 -8z"/>
<path d="M431 7114 c-34 -43 -26 -59 11 -24 22 20 50 14 61 -13 11 -28 -51
-127 -80 -127 -7 0 -13 -7 -13 -15 0 -12 13 -15 60 -15 48 0 61 4 70 19 15 29
14 30 -32 24 -38 -4 -41 -3 -25 10 9 8 17 17 17 22 0 4 9 18 20 32 24 31 25
61 4 91 -22 31 -67 29 -93 -4z"/>
<path d="M6646 7131 c-4 -5 -2 -13 4 -16 7 -5 8 -11 1 -19 -5 -6 -16 -38 -24
-71 -8 -33 -18 -68 -22 -77 -5 -13 0 -20 20 -28 38 -15 74 -2 96 34 37 61 17
115 -38 102 -16 -4 -23 -3 -16 2 20 13 21 76 1 80 -9 2 -19 -1 -22 -7z m60
-145 c-6 -34 -29 -56 -57 -56 -20 0 -2 73 22 93 29 24 43 8 35 -37z"/>
<path d="M8180 7130 c0 -5 5 -10 11 -10 5 0 7 5 4 10 -3 6 -8 10 -11 10 -2 0
-4 -4 -4 -10z"/>
<path d="M8220 7130 c-13 -8 -12 -10 4 -10 17 0 18 -6 13 -69 -6 -77 -15 -99
-60 -151 -17 -19 -25 -36 -19 -38 24 -8 92 84 92 125 0 12 5 25 10 28 6 3 10
0 10 -9 0 -8 11 -28 25 -45 l26 -30 -44 -25 c-24 -14 -49 -26 -55 -26 -7 0
-12 -4 -12 -10 0 -16 21 -12 77 17 51 25 53 26 73 8 11 -10 20 -15 20 -11 0 3
11 -1 25 -10 23 -15 45 -12 45 5 0 4 -23 18 -50 31 -49 23 -50 24 -32 44 24
28 62 84 62 91 0 3 -16 5 -36 5 -33 0 -36 2 -29 23 14 44 11 62 -10 62 -14 0
-19 -6 -17 -19 2 -10 1 -29 -2 -42 -5 -20 -13 -24 -42 -24 -34 0 -35 1 -32 33
2 24 8 33 26 35 12 2 20 8 17 13 -8 12 -66 11 -85 -1z m160 -107 c0 -13 -39
-73 -47 -73 -12 0 -53 67 -46 74 9 9 93 7 93 -1z"/>
<path d="M10150 7003 l0 -138 130 0 130 0 0 122 c0 67 3 128 6 137 5 14 -10
16 -130 16 l-136 0 0 -137z m69 105 c-5 -38 2 -57 24 -61 12 -3 3 -3 -20 -2
-24 1 -43 -1 -43 -6 0 -5 5 -9 10 -9 6 0 10 -30 10 -70 0 -58 -3 -70 -16 -70
-15 0 -16 12 -11 103 4 56 7 108 7 115 0 6 9 12 20 12 12 0 20 -6 19 -12z
m101 2 c0 -5 -21 -10 -46 -10 -27 0 -43 4 -39 10 3 6 24 10 46 10 21 0 39 -4
39 -10z m65 -105 c0 -91 -3 -110 -15 -110 -12 0 -15 14 -15 68 0 37 3 67 7 67
5 0 8 5 8 10 0 6 -17 8 -42 5 -24 -2 -34 -2 -23 1 27 8 36 24 30 52 -5 21 -2
23 22 20 l28 -3 0 -110z m-87 68 c-10 -2 -28 -2 -40 0 -13 2 -5 4 17 4 22 1
32 -1 23 -4z m29 -50 c-11 -10 -106 -12 -112 -2 -4 5 21 9 56 9 34 0 59 -3 56
-7z m-100 -80 c-3 -10 -5 -2 -5 17 0 19 2 27 5 18 2 -10 2 -26 0 -35z m60 41
c-3 -3 -12 -4 -19 -1 -8 3 -5 6 6 6 11 1 17 -2 13 -5z m43 -24 c0 -16 -4 -30
-8 -30 -5 0 -7 14 -4 30 2 17 6 30 8 30 2 0 4 -13 4 -30z m-40 0 c0 -5 -9 -10
-20 -10 -11 0 -20 5 -20 10 0 6 9 10 20 10 11 0 20 -4 20 -10z m3 -27 c-7 -2
-21 -2 -30 0 -10 3 -4 5 12 5 17 0 24 -2 18 -5z m37 -33 c0 -5 -25 -10 -55
-10 -30 0 -55 5 -55 10 0 6 25 10 55 10 30 0 55 -4 55 -10z"/>
<path d="M10572 7095 c-18 -25 -28 -45 -22 -45 5 0 10 -12 10 -26 0 -20 4 -24
19 -19 35 11 31 -11 -5 -24 -18 -7 -34 -17 -34 -22 0 -13 12 -11 56 6 l39 16
-25 -20 c-14 -11 -35 -21 -47 -21 -13 0 -23 -4 -23 -10 0 -13 17 -12 63 4 48
18 47 12 -2 -14 -51 -26 -64 -45 -26 -37 18 3 34 -1 42 -9 8 -8 23 -14 34 -14
15 0 19 7 19 35 0 33 1 35 22 23 13 -7 28 -20 35 -28 11 -13 14 -13 23 0 12
19 13 30 1 30 -5 0 -22 5 -38 11 l-28 11 34 14 c24 10 31 18 27 30 -3 9 -6 36
-6 60 0 41 -2 44 -19 34 -11 -5 -27 -10 -37 -10 -13 0 -14 3 -4 15 14 17 6 50
-11 40 -5 -4 -14 -18 -19 -31 -7 -18 -17 -24 -41 -24 -31 0 -32 1 -14 20 9 10
22 18 28 17 6 -1 13 6 15 16 7 34 -33 17 -66 -28z m58 -50 c0 -9 -9 -15 -25
-15 -16 0 -25 6 -25 15 0 9 9 15 25 15 16 0 25 -6 25 -15z m90 0 c0 -10 -10
-15 -30 -15 -20 0 -30 5 -30 15 0 10 10 15 30 15 20 0 30 -5 30 -15z m-2 -53
c5 -16 -39 -33 -55 -20 -7 6 -13 17 -13 25 0 18 61 14 68 -5z m-68 -97 c0 -8
-4 -15 -10 -15 -5 0 -10 7 -10 15 0 8 5 15 10 15 6 0 10 -7 10 -15z"/>
<path d="M12706 7132 c-2 -4 -34 -7 -70 -7 -36 1 -63 -2 -60 -7 3 -4 15 -8 26
-8 20 0 20 -4 14 -61 -6 -66 -39 -143 -68 -163 -17 -12 -15 -26 3 -26 17 0 63
73 74 117 l12 46 26 -48 c31 -54 28 -58 -43 -92 -26 -12 -30 -17 -18 -20 10
-3 39 8 66 23 l47 26 40 -26 c21 -15 45 -25 54 -24 21 4 26 28 6 28 -21 0 -75
31 -75 43 0 5 14 28 30 52 39 56 39 68 -1 60 l-31 -7 7 51 c6 47 5 51 -13 51
-12 0 -23 -4 -26 -8z m14 -34 c0 -34 -13 -49 -46 -51 -24 -2 -29 2 -32 24 -3
22 2 28 30 36 47 16 48 15 48 -9z m33 -80 c4 -13 -31 -68 -44 -68 -10 0 -48
67 -42 74 12 11 81 6 86 -6z"/>
<path d="M14383 7121 c-25 -21 -21 -31 13 -31 29 0 40 18 23 35 -12 12 -18 11
-36 -4z"/>
<path d="M4536 7086 c-9 -25 -24 -50 -32 -56 -16 -14 -19 -40 -5 -40 5 0 19
16 31 35 l22 35 20 -25 c22 -28 38 -32 38 -10 0 8 -11 22 -25 31 -20 13 -23
20 -14 35 10 19 5 39 -10 39 -5 0 -16 -20 -25 -44z"/>
<path d="M12189 7123 c-1 -5 -1 -12 0 -17 1 -4 -8 -49 -21 -98 -20 -78 -21
-90 -8 -98 28 -18 61 -10 91 20 26 25 30 36 27 72 -3 40 -5 43 -36 46 -31 3
-32 4 -26 43 5 32 4 39 -10 39 -9 0 -17 -3 -17 -7z m61 -131 c0 -35 -26 -72
-51 -72 -24 0 -25 29 -4 70 21 40 55 41 55 2z"/>
<path d="M14175 7100 c4 -6 11 -8 16 -5 14 9 11 15 -7 15 -8 0 -12 -5 -9 -10z"/>
<path d="M14285 6995 c0 -113 1 -116 23 -122 29 -7 42 5 20 18 -15 8 -17 23
-15 103 2 51 7 98 11 104 5 8 -1 12 -16 12 -23 0 -23 -2 -23 -115z"/>
<path d="M3263 7093 c-88 -5 -79 -23 12 -23 60 0 75 3 75 15 0 8 -6 14 -12 13
-7 -1 -41 -3 -75 -5z"/>
<path d="M2375 7070 c-4 -6 -53 -10 -126 -10 -83 0 -118 -3 -114 -11 4 -6 26
-10 49 -9 84 4 78 10 75 -87 -2 -52 1 -88 6 -88 6 0 11 39 13 88 l3 87 59 0
c61 0 80 10 56 29 -10 8 -16 9 -21 1z"/>
<path d="M6145 7050 c-3 -5 0 -10 8 -10 22 0 34 -125 14 -145 -9 -8 -23 -12
-31 -9 -12 4 -16 0 -16 -15 0 -40 30 -26 75 34 16 22 34 43 41 48 17 10 44 65
44 89 0 10 -7 18 -15 18 -10 0 -14 -9 -13 -24 2 -25 -20 -76 -33 -76 -4 0 -10
23 -14 50 -6 44 -10 50 -30 50 -13 0 -27 -4 -30 -10z"/>
<path d="M8808 7053 c-20 -5 -24 -19 -7 -25 14 -5 22 -114 9 -139 -6 -11 -19
-18 -28 -17 -9 2 -18 -5 -20 -14 -6 -31 22 -20 65 25 81 83 119 167 77 167
-12 0 -15 -6 -11 -22 3 -11 -1 -34 -9 -51 l-16 -29 -14 27 c-8 15 -14 38 -14
51 0 26 -7 32 -32 27z"/>
<path d="M9286 7030 c-38 -34 -52 -71 -36 -100 14 -26 71 -27 93 -2 22 24 10
35 -17 17 -23 -17 -50 -20 -41 -5 3 6 1 10 -5 10 -16 0 -2 40 23 68 23 25 39
29 31 7 -4 -10 0 -15 10 -15 22 0 33 30 15 41 -23 14 -37 10 -73 -21z"/>
<path d="M14208 6978 l-3 -83 -30 -6 c-35 -8 -33 -9 20 -13 22 -2 49 0 60 5
16 6 16 8 3 8 -13 1 -17 14 -20 64 -2 34 -1 69 4 79 7 14 -7 28 -27 28 -2 0
-5 -37 -7 -82z"/>
<path d="M3210 6988 c0 -54 10 -72 25 -48 9 14 72 13 77 -2 10 -29 28 8 28 55
l0 52 -65 0 -65 0 0 -57z m100 7 c0 -23 -4 -25 -41 -25 -33 0 -40 3 -35 16 3
9 6 20 6 25 0 5 16 9 35 9 31 0 35 -3 35 -25z"/>
<path d="M3603 7042 c-77 -1 -133 -7 -133 -12 0 -6 3 -10 8 -11 4 0 68 -1 142
-2 111 -2 135 1 135 12 0 18 7 17 -152 13z"/>
<path d="M6364 7041 c-15 -15 6 -21 76 -21 44 0 80 4 80 9 0 9 -148 20 -156
12z"/>
<path d="M10939 7048 c-5 -16 -4 -88 2 -88 28 0 38 79 12 88 -7 2 -13 2 -14 0z"/>
<path d="M13160 7037 c-20 -16 -40 -62 -40 -93 0 -35 42 -53 78 -34 31 18 45
47 16 35 -11 -4 -28 -8 -39 -9 -17 -1 -20 5 -18 33 1 36 25 67 42 57 6 -4 11
-14 11 -22 0 -8 4 -14 9 -14 16 0 31 27 25 44 -7 19 -62 21 -84 3z"/>
<path d="M7310 7030 c0 -23 45 -76 54 -62 3 6 -7 26 -23 44 -19 21 -31 27 -31
18z"/>
<path d="M9007 7033 c-18 -17 0 -23 73 -23 77 0 104 11 58 24 -31 8 -123 8
-131 -1z"/>
<path d="M14367 7022 c-16 -18 -15 -18 13 -14 25 3 28 7 19 18 -14 17 -13 18
-32 -4z"/>
<path d="M9971 6995 c20 -34 39 -46 39 -25 0 19 -32 60 -46 60 -10 0 -8 -9 7
-35z"/>
<path d="M2205 7012 c-13 -9 -75 -89 -75 -96 0 -3 4 -6 9 -6 14 0 93 98 83
104 -4 2 -12 2 -17 -2z"/>
<path d="M2320 7005 c0 -10 64 -95 72 -95 19 0 5 39 -25 68 -30 29 -47 39 -47
27z"/>
<path d="M6362 6968 c3 -9 28 -13 78 -13 50 0 75 4 77 13 4 9 -16 12 -77 12
-61 0 -81 -3 -78 -12z"/>
<path d="M13648 6973 c-69 -6 -59 -23 12 -23 47 0 60 3 60 15 0 8 -6 14 -12
13 -7 -1 -34 -3 -60 -5z"/>
<path d="M5360 6965 c0 -8 66 -75 74 -75 18 0 2 32 -27 54 -33 26 -47 31 -47
21z"/>
<path d="M9000 6960 c0 -6 33 -10 80 -10 47 0 80 4 80 10 0 6 -33 10 -80 10
-47 0 -80 -4 -80 -10z"/>
<path d="M585 6950 c-8 -14 3 -30 21 -30 8 0 14 9 14 20 0 21 -24 28 -35 10z"/>
<path d="M2575 6933 c8 -32 13 -39 21 -30 10 9 -5 57 -17 57 -7 0 -9 -10 -4
-27z"/>
<path d="M2623 6935 c13 -26 22 -31 32 -16 6 10 -21 41 -35 41 -4 0 -3 -11 3
-25z"/>
<path d="M5050 6945 c0 -5 50 -55 55 -55 12 0 3 29 -13 43 -17 16 -42 23 -42
12z"/>
<path d="M13934 6930 c3 -14 6 -28 6 -32 0 -5 5 -8 10 -8 15 0 12 24 -6 46
-15 18 -15 18 -10 -6z"/>
<path d="M14400 6905 c-7 -8 -22 -15 -34 -16 -19 -1 -18 -2 4 -9 59 -19 93 -2
56 29 -10 9 -16 8 -26 -4z"/>
<path d="M1247 6893 c6 -16 23 -17 23 -2 0 8 4 8 14 0 10 -8 16 -9 21 -1 3 5
0 10 -7 11 -7 0 -23 2 -35 3 -14 2 -19 -2 -16 -11z"/>
<path d="M1320 6900 c0 -6 7 -10 15 -10 8 0 15 2 15 4 0 2 -7 6 -15 10 -8 3
-15 1 -15 -4z"/>
<path d="M4492 6888 c3 -7 13 -15 22 -16 12 -3 17 1 14 10 -3 7 -13 15 -22 16
-12 3 -17 -1 -14 -10z"/>
<path d="M1260 6616 c0 -14 -5 -28 -11 -32 -8 -5 -8 -9 1 -14 7 -4 9 -13 6
-19 -11 -17 -26 -3 -26 23 0 13 -9 31 -20 41 -24 22 -39 13 -19 -11 12 -16 12
-17 -7 -12 -17 4 -23 -1 -33 -29 -16 -43 -7 -53 19 -25 12 12 22 22 23 22 1 0
1 -21 -1 -46 l-4 -45 36 6 c30 6 36 4 36 -10 0 -15 -6 -17 -44 -12 l-44 6 -4
-39 c-4 -44 -1 -60 13 -60 5 0 9 16 9 35 0 33 2 35 36 35 35 0 36 -1 33 -37
-3 -52 -1 -63 11 -63 6 0 10 23 10 50 l0 50 35 0 c24 0 35 -5 35 -15 0 -8 -7
-15 -15 -15 -20 0 -19 -26 2 -34 23 -9 41 12 45 54 l3 35 -52 -3 c-43 -3 -53
-1 -53 12 0 12 8 15 33 14 31 -3 32 -1 35 36 l3 39 -36 -6 c-26 -4 -35 -2 -32
6 2 7 23 13 46 15 39 3 42 2 36 -17 -8 -26 7 -27 29 -2 22 24 13 41 -21 41
-21 0 -23 3 -14 14 9 11 9 16 0 21 -6 5 -21 -5 -34 -21 -19 -23 -26 -26 -36
-17 -9 9 -9 16 -1 26 13 15 6 27 -15 27 -7 0 -13 -11 -13 -24z m60 -102 c0
-12 -10 -14 -52 -12 -74 4 -77 28 -4 28 44 0 56 -3 56 -16z"/>
<path d="M1532 6633 c-6 -2 -9 -9 -6 -15 5 -7 -2 -9 -19 -4 -20 5 -29 2 -37
-13 -5 -11 -7 -27 -3 -37 3 -9 7 -35 7 -58 1 -37 3 -41 24 -38 15 1 22 -2 19
-10 -2 -7 -17 -13 -33 -13 -31 -1 -35 -16 -7 -26 12 -4 13 -8 5 -13 -19 -11
-3 -27 21 -22 13 3 11 1 -5 -6 -31 -13 -38 -36 -10 -33 9 1 30 8 45 15 22 11
33 11 47 2 21 -13 46 -7 74 20 18 16 20 16 38 -7 20 -25 48 -34 48 -15 0 6
-11 21 -25 33 l-24 22 16 60 c10 33 21 62 25 63 4 2 8 10 8 18 0 12 -8 13 -37
8 -32 -6 -35 -5 -31 12 3 10 7 25 9 33 2 8 -4 17 -13 19 -14 3 -18 -3 -18 -25
-1 -37 -35 -101 -43 -80 -3 8 2 25 11 38 11 16 12 24 4 27 -7 2 -12 11 -12 19
0 11 -7 14 -25 9 -18 -5 -25 -2 -25 9 0 15 -6 17 -28 8z m48 -58 c0 -14 -4
-25 -10 -25 -5 0 -10 11 -10 25 0 14 5 25 10 25 6 0 10 -11 10 -25z m-60 -5
c0 -11 -4 -20 -8 -20 -4 0 -8 9 -8 20 0 11 4 20 8 20 4 0 8 -9 8 -20z m169
-52 c-1 -13 -4 -34 -9 -48 -7 -24 -7 -24 -17 10 -11 40 -7 60 13 60 8 0 14 -9
13 -22z m-172 6 c-3 -3 -12 -4 -19 -1 -8 3 -5 6 6 6 11 1 17 -2 13 -5z m70 0
c-3 -3 -12 -4 -19 -1 -8 3 -5 6 6 6 11 1 17 -2 13 -5z m-7 -24 c0 -5 -4 -10
-10 -10 -5 0 -10 5 -10 10 0 6 5 10 10 10 6 0 10 -4 10 -10z m-60 -10 c0 -5
-2 -10 -4 -10 -3 0 -8 5 -11 10 -3 6 -1 10 4 10 6 0 11 -4 11 -10z m133 -55
c1 -22 -4 -32 -22 -41 -13 -7 -30 -10 -37 -7 -19 7 -18 33 0 33 21 0 31 21 15
30 -10 7 -10 11 1 25 11 14 15 14 27 2 8 -7 15 -26 16 -42z m-65 17 c2 -7 -6
-12 -17 -12 -21 0 -27 11 -14 24 9 9 26 2 31 -12z m-36 -44 c-9 -9 -15 -9 -24
0 -9 9 -7 12 12 12 19 0 21 -3 12 -12z"/>
<path d="M2410 6620 c0 -16 -7 -20 -30 -20 -18 0 -29 5 -27 12 1 6 -6 14 -15
16 -11 2 -18 -2 -18 -12 0 -12 -11 -16 -46 -16 -27 0 -43 -4 -39 -10 3 -5 21
-10 39 -10 22 0 39 -8 53 -24 12 -13 19 -27 16 -30 -4 -3 -30 -6 -60 -6 -69 0
-69 -18 0 -22 l52 -3 -53 -54 c-58 -58 -63 -79 -8 -37 19 14 37 26 40 26 3 0
6 -17 6 -37 l0 -38 80 0 80 0 2 38 c0 20 1 43 2 49 1 10 -18 12 -71 10 -57 -3
-73 -1 -73 10 0 29 24 38 102 38 45 0 78 4 78 10 0 12 -7 13 -88 10 -53 -2
-61 0 -56 14 4 11 1 16 -10 16 -9 0 -16 7 -16 15 0 24 47 18 65 -7 l15 -23 6
23 c5 18 13 22 46 22 27 0 38 4 35 13 -2 7 -18 11 -43 9 -21 -2 -36 0 -31 4 8
8 -10 34 -24 34 -5 0 -9 -9 -9 -20z m50 -215 c0 -24 -3 -25 -60 -25 -57 0 -60
1 -60 25 0 24 3 25 60 25 57 0 60 -1 60 -25z"/>
<path d="M5176 6624 c-3 -9 -6 -30 -6 -48 0 -31 -1 -32 -35 -28 -26 3 -35 9
-35 23 0 13 7 19 24 19 24 0 43 16 32 27 -3 3 -21 2 -41 -1 l-35 -7 0 -84 c0
-50 -4 -85 -10 -85 -5 0 -10 -4 -10 -10 0 -5 21 -10 47 -10 45 0 46 0 28 -20
-10 -11 -26 -20 -35 -20 -10 0 -23 -7 -30 -15 -18 -22 14 -20 68 5 41 19 55
38 30 42 -7 1 29 4 81 7 62 4 96 10 99 19 2 6 -4 12 -13 12 -15 0 -16 11 -14
83 3 60 0 82 -9 81 -6 -1 -21 -2 -32 -2 -11 -1 -20 -6 -20 -12 0 -5 9 -10 20
-10 31 0 26 -37 -5 -42 -14 -3 -28 -1 -31 3 -3 5 -16 6 -30 3 -18 -5 -24 -2
-24 10 0 11 9 16 31 16 17 0 28 4 24 10 -3 6 -15 10 -26 10 -10 0 -19 6 -19
14 0 22 -17 28 -24 10z m-13 -99 c11 -5 12 -13 3 -45 -8 -32 -15 -40 -33 -40
-16 0 -23 6 -23 20 0 15 7 20 26 20 14 0 23 4 19 10 -3 6 -17 10 -31 10 -23 0
-31 10 -17 23 8 8 36 9 56 2z m47 -40 c0 -34 -4 -45 -15 -45 -12 0 -14 6 -8
28 3 15 6 35 5 45 0 9 3 17 9 17 5 0 9 -20 9 -45z m84 30 c-4 -8 -12 -15 -20
-15 -8 0 -14 -4 -14 -10 0 -5 7 -10 15 -10 8 0 15 -9 15 -20 0 -15 -7 -20 -24
-20 -31 0 -34 6 -29 53 5 33 8 37 34 37 21 0 27 -4 23 -15z"/>
<path d="M3030 6505 l0 -125 -25 0 c-14 0 -25 -4 -25 -8 0 -12 50 -33 61 -27
5 4 9 42 9 86 0 81 11 101 28 51 14 -40 70 -102 92 -102 29 0 34 19 8 30 -32
13 -53 31 -68 59 -13 26 -15 24 45 67 15 11 17 16 7 26 -9 9 -19 5 -42 -17
-29 -28 -30 -28 -45 -9 -14 19 -19 42 -16 77 1 9 -4 17 -13 17 -14 0 -16 -18
-16 -125z"/>
<path d="M3475 6620 c-4 -6 -52 -10 -121 -10 -69 0 -114 -4 -114 -10 0 -6 27
-10 60 -10 l60 0 -2 -120 c-1 -80 3 -125 10 -132 9 -9 12 1 12 43 0 30 5 60
12 67 8 8 8 15 -1 26 -7 8 -11 35 -9 63 l3 48 63 3 c63 3 74 10 48 31 -10 8
-16 9 -21 1z"/>
<path d="M3620 6620 c0 -5 -10 -18 -22 -29 -21 -20 -21 -21 -3 -40 19 -22 14
-51 -10 -51 -8 0 -15 -7 -15 -15 0 -8 9 -15 19 -15 11 0 23 -4 26 -10 3 -5 -3
-10 -14 -10 -15 0 -23 -10 -30 -37 -13 -47 -13 -53 -2 -53 5 0 15 16 21 35 15
47 30 44 30 -5 0 -22 5 -40 10 -40 6 0 10 28 10 65 0 61 9 80 26 54 3 -6 2
-14 -5 -18 -7 -5 -8 -17 -2 -39 6 -20 6 -32 0 -32 -5 0 -9 -4 -9 -10 0 -21 24
-8 61 32 l39 43 0 -33 c0 -25 -4 -32 -20 -32 -11 0 -20 -4 -20 -8 0 -16 22
-30 41 -25 15 4 19 15 20 52 0 25 3 39 6 31 21 -54 83 -96 83 -55 0 8 -6 15
-13 15 -8 0 -22 8 -31 19 -16 18 -16 19 15 30 27 9 30 13 19 26 -12 14 -15 14
-30 0 -22 -20 -27 -19 -33 5 -4 17 -2 20 14 15 17 -6 19 -1 19 34 0 22 4 42
10 46 18 11 -2 35 -31 35 -21 0 -27 4 -23 15 4 9 0 15 -10 15 -9 0 -16 -6 -16
-14 0 -9 -12 -16 -27 -18 -27 -3 -28 -6 -31 -61 l-3 -59 32 7 c24 5 30 4 27
-6 -3 -8 -17 -15 -32 -17 -22 -3 -28 2 -37 27 -11 32 -24 40 -32 19 -2 -7 -7
-10 -11 -7 -3 3 5 21 19 39 15 21 21 38 16 43 -12 12 -31 0 -31 -20 0 -13 -2
-13 -16 -2 -15 12 -14 15 5 30 25 20 27 39 6 39 -8 0 -15 -4 -15 -10z m180
-55 c0 -16 -64 -22 -74 -6 -9 14 5 21 41 21 23 0 33 -5 33 -15z m0 -45 c0 -5
-18 -10 -40 -10 -22 0 -40 5 -40 10 0 6 18 10 40 10 22 0 40 -4 40 -10z m-100
-87 c0 -5 -4 -14 -9 -21 -6 -10 -10 -9 -14 7 -3 14 0 21 9 21 8 0 14 -3 14 -7z"/>
<path d="M4537 6623 c-30 -5 -27 -23 4 -23 10 0 19 -6 19 -14 0 -8 12 -28 26
-45 l26 -31 -87 0 c-93 0 -92 -2 -49 56 21 29 22 44 3 44 -5 0 -16 -15 -25
-32 -9 -18 -30 -48 -47 -65 -17 -18 -27 -36 -24 -40 4 -4 13 -1 19 5 14 14 64
16 72 3 10 -16 -35 -87 -68 -107 -26 -15 -28 -19 -12 -22 29 -6 67 29 95 86
22 44 30 52 54 52 26 0 27 -2 27 -55 0 -54 0 -55 -30 -55 -39 0 -39 -16 0 -25
36 -8 50 0 50 26 0 10 5 19 10 19 6 0 10 20 10 43 0 52 6 60 31 44 14 -9 21
-9 30 0 8 8 4 15 -19 27 -39 20 -72 62 -72 92 0 13 -3 23 -7 23 -5 -1 -20 -4
-36 -6z"/>
<path d="M4972 6613 c0 -10 0 -66 0 -125 l-2 -108 -30 0 c-42 0 -37 -16 7 -23
24 -4 40 -2 45 6 4 7 8 65 8 130 0 64 1 120 3 124 1 4 -6 9 -16 11 -11 2 -17
-2 -15 -15z"/>
<path d="M5900 6609 c0 -18 -5 -21 -30 -17 -19 3 -29 1 -27 -6 2 -6 16 -12 30
-14 30 -4 27 -22 -4 -22 -16 0 -19 -7 -19 -52 0 -29 -3 -63 -6 -75 -6 -20 -3
-23 25 -23 29 0 31 -2 31 -37 0 -43 17 -34 22 12 2 21 9 31 23 33 18 2 20 10
20 72 0 67 -1 70 -23 70 -33 0 -23 24 11 28 15 2 25 8 22 13 -4 5 -18 6 -33 2
-23 -5 -25 -4 -15 9 14 16 8 28 -14 28 -7 0 -13 -10 -13 -21z m0 -89 c0 -5 -7
-10 -15 -10 -8 0 -15 5 -15 10 0 6 7 10 15 10 8 0 15 -4 15 -10z m40 0 c0 -5
-4 -10 -10 -10 -5 0 -10 5 -10 10 0 6 5 10 10 10 6 0 10 -4 10 -10z m-45 -50
c-5 -8 -11 -8 -17 -2 -6 6 -7 16 -3 22 5 8 11 8 17 2 6 -6 7 -16 3 -22z m36
-3 c-8 -8 -11 -7 -11 4 0 9 3 19 7 23 4 4 9 2 11 -4 3 -7 -1 -17 -7 -23z m-31
-37 c0 -5 -12 -10 -27 -10 -22 0 -25 2 -13 10 20 13 40 13 40 0z m40 0 c0 -5
-4 -10 -10 -10 -5 0 -10 5 -10 10 0 6 5 10 10 10 6 0 10 -4 10 -10z"/>
<path d="M6040 6594 c0 -35 -1 -36 -29 -31 l-30 6 -3 -107 c-2 -59 -2 -109 -1
-111 1 -2 26 2 54 9 40 10 54 10 57 1 6 -17 30 -13 36 7 2 9 4 51 4 92 0 41 1
82 3 90 3 12 -4 14 -33 12 -32 -2 -38 0 -38 17 0 11 5 23 11 27 8 4 7 9 -2 15
-24 15 -29 10 -29 -27z m0 -84 c0 -23 -4 -30 -20 -30 -16 0 -20 7 -20 30 0 23
4 30 20 30 16 0 20 -7 20 -30z m50 0 c0 -20 -5 -30 -15 -30 -10 0 -15 10 -15
30 0 20 5 30 15 30 10 0 15 -10 15 -30z m-52 -94 c-2 -20 -9 -32 -20 -34 -15
-3 -18 4 -18 36 0 21 3 42 7 45 13 14 34 -17 31 -47z m52 8 c0 -32 -4 -44 -12
-42 -14 5 -23 51 -14 74 11 30 26 12 26 -32z"/>
<path d="M7397 6594 c5 -31 2 -40 -18 -55 -24 -18 -24 -19 -2 -19 12 0 23 6
26 13 3 9 8 9 21 -2 15 -12 19 -12 34 2 15 16 15 17 -1 17 -21 0 -23 38 -2 46
15 6 21 34 7 34 -4 0 -14 -6 -21 -12 -11 -10 -14 -10 -18 0 -3 6 -11 12 -18
12 -10 0 -12 -10 -8 -36z"/>
<path d="M4738 6562 c-3 -46 -1 -52 15 -48 27 7 22 -60 -8 -113 -14 -24 -23
-47 -19 -50 9 -9 51 47 61 83 7 24 15 32 37 34 28 3 29 2 22 -28 -3 -18 -6
-38 -6 -46 0 -8 -15 -14 -37 -16 l-38 -4 35 -16 c43 -20 57 -11 65 41 3 20 8
48 10 64 4 26 3 27 -41 27 -32 0 -44 4 -41 13 2 7 19 12 41 11 34 -1 36 1 36
30 0 17 3 40 6 51 5 19 0 20 -65 20 l-69 1 -4 -54z m112 6 c0 -26 -3 -28 -45
-28 -43 0 -45 1 -45 29 0 27 2 28 45 27 42 -1 45 -3 45 -28z"/>
<path d="M7752 6591 c-8 -23 -15 -28 -31 -24 -20 5 -21 2 -21 -101 0 -102 8
-126 28 -90 9 16 23 16 65 -1 15 -6 17 -1 17 48 0 47 4 59 29 86 22 24 38 31
66 31 l37 0 -4 -76 c-3 -60 -7 -79 -22 -90 -15 -10 -23 -11 -33 -2 -7 6 -17 8
-21 4 -9 -10 39 -46 58 -43 25 4 43 57 48 148 l5 87 -48 -6 c-39 -4 -47 -2
-43 9 4 8 9 22 13 32 5 11 2 17 -7 17 -7 0 -24 -23 -37 -50 -29 -60 -43 -73
-39 -33 3 24 0 28 -21 25 -17 -1 -22 2 -17 13 3 8 9 22 12 30 4 9 0 15 -9 15
-8 0 -20 -13 -25 -29z m38 -76 c0 -21 -5 -25 -30 -25 -25 0 -30 4 -30 25 0 21
5 25 30 25 25 0 30 -4 30 -25z m0 -80 c0 -32 -2 -35 -30 -35 -26 0 -30 4 -30
28 0 35 6 42 37 42 20 0 23 -5 23 -35z"/>
<path d="M8038 6482 c-3 -133 3 -162 30 -140 17 15 191 12 209 -4 14 -11 14
-10 19 42 8 96 11 219 5 227 -3 4 -63 8 -133 8 l-127 0 -3 -133z m74 73 c3
-29 1 -35 -14 -35 -10 0 -18 -4 -18 -10 0 -5 3 -10 8 -10 4 0 7 -29 7 -65 0
-55 -3 -65 -17 -65 -16 0 -18 12 -18 103 0 57 3 107 7 110 19 19 41 5 45 -28z
m90 23 c-8 -8 -9 -15 -1 -25 9 -10 4 -13 -25 -13 -20 0 -36 5 -36 11 0 6 7 9
15 6 8 -4 17 -2 20 3 4 6 -3 10 -14 10 -12 0 -21 5 -21 10 0 6 17 10 37 10 28
0 34 -3 25 -12z m68 -22 c0 -29 -4 -34 -20 -33 -16 1 -20 8 -20 34 0 26 4 33
20 33 16 0 20 -7 20 -34z m-67 -63 c-18 -2 -48 -2 -65 0 -18 2 -4 4 32 4 36 0
50 -2 33 -4z m67 -58 c0 -52 -3 -65 -16 -65 -8 0 -13 4 -10 8 3 5 6 34 7 65 3
79 19 72 19 -8z m-80 35 c0 -5 -13 -10 -29 -10 -26 0 -30 -4 -34 -32 -3 -29
-4 -27 -5 10 -2 42 -2 42 33 42 19 0 35 -4 35 -10z m40 -30 c0 -16 -3 -31 -8
-34 -4 -2 -7 13 -7 34 0 21 3 36 7 34 5 -3 8 -18 8 -34z m-53 -6 c-3 -3 -12
-4 -19 -1 -8 3 -5 6 6 6 11 1 17 -2 13 -5z m6 -31 c-7 -2 -21 -2 -30 0 -10 3
-4 5 12 5 17 0 24 -2 18 -5z m25 -30 c-15 -2 -42 -2 -60 0 -18 2 -6 4 27 4 33
0 48 -2 33 -4z"/>
<path d="M8415 6591 c-3 -17 -20 -49 -36 -71 -30 -41 -33 -64 -5 -41 19 16 28
0 25 -47 -3 -65 1 -113 10 -108 5 3 8 41 7 83 -2 76 6 113 24 113 5 0 10 -10
12 -22 2 -16 9 -22 21 -20 28 5 19 -15 -13 -28 -16 -7 -30 -17 -30 -22 0 -11
36 -2 66 18 12 7 25 10 28 7 7 -7 -61 -42 -81 -43 -15 0 -18 -20 -3 -20 6 0
27 7 47 15 19 8 40 15 46 15 21 0 -28 -27 -60 -34 -43 -10 -52 -26 -16 -26 16
0 38 -7 49 -15 38 -28 64 -14 64 36 0 18 1 18 20 -1 11 -11 28 -20 38 -20 36
0 31 13 -11 33 l-42 19 33 14 c32 14 40 28 22 39 -5 3 -10 17 -10 30 0 13 5
27 10 30 24 15 8 27 -30 23 -22 -2 -40 -3 -40 -1 0 1 7 9 16 17 20 21 10 36
-26 36 -16 0 -32 5 -35 10 -11 19 -26 10 -40 -23 -8 -19 -21 -39 -29 -47 -14
-10 -16 -10 -16 7 0 10 7 28 15 39 15 22 11 34 -11 34 -7 0 -15 -13 -19 -29z
m135 -20 c0 -12 -8 -16 -45 -25 -29 -7 -29 -7 -11 13 19 21 56 29 56 12z m-20
-56 c0 -10 -10 -15 -30 -15 -20 0 -30 5 -30 15 0 10 10 15 30 15 20 0 30 -5
30 -15z m70 0 c0 -9 -9 -15 -25 -15 -24 0 -32 10 -18 23 12 13 43 7 43 -8z m0
-49 c0 -7 -7 -19 -16 -27 -13 -10 -17 -10 -25 2 -15 25 -10 39 16 39 15 0 25
-6 25 -14z m-50 -86 c0 -5 -12 -10 -27 -9 l-28 1 25 8 c14 4 26 8 28 9 1 1 2
-3 2 -9z"/>
<path d="M8855 6609 c-22 -5 -62 -8 -90 -7 -54 2 -70 -15 -19 -20 31 -3 31 -4
27 -50 -8 -92 -14 -109 -48 -150 -21 -24 -31 -43 -25 -47 21 -13 89 90 91 139
1 19 2 18 12 -6 7 -14 20 -35 30 -46 19 -21 11 -34 -30 -46 -13 -4 -23 -12
-23 -17 0 -5 -9 -9 -20 -9 -11 0 -20 -4 -20 -10 0 -12 47 -14 52 -2 2 4 19 15
39 25 36 18 36 18 87 -6 43 -21 53 -23 63 -11 9 11 7 15 -7 20 -11 3 -34 12
-52 20 l-33 14 31 44 c43 63 40 82 -12 77 -14 -2 -15 4 -7 40 6 23 6 45 2 49
-4 4 -26 3 -48 -1z m21 -43 c-3 -12 -6 -26 -6 -32 0 -7 -16 -14 -35 -16 -35
-4 -35 -4 -35 34 l0 39 41 -3 c35 -2 40 -5 35 -22z m34 -72 c0 -14 -33 -74
-40 -74 -12 0 -50 50 -50 66 0 10 14 14 45 14 25 0 45 -3 45 -6z"/>
<path d="M9860 6609 c0 -5 5 -9 10 -9 6 0 10 -12 10 -26 0 -17 -6 -28 -20 -31
-22 -6 -26 -18 -9 -29 7 -4 16 1 21 10 9 16 10 16 22 0 14 -19 36 -11 36 12 0
8 -4 12 -10 9 -6 -4 -10 5 -10 20 0 18 6 29 20 32 35 9 21 21 -25 21 -25 0
-45 -4 -45 -9z"/>
<path d="M10238 6590 c-8 -24 -15 -29 -29 -25 -18 6 -19 0 -19 -99 0 -96 7
-125 25 -96 3 6 19 10 36 10 16 0 29 -4 29 -10 0 -5 5 -10 10 -10 6 0 10 26
10 59 0 51 4 63 29 90 24 25 37 31 71 31 l43 0 -7 -69 c-8 -94 -12 -101 -52
-101 -41 0 -43 -11 -7 -27 55 -26 69 -10 78 83 3 33 8 76 11 97 l4 37 -50 0
c-51 0 -60 6 -38 28 9 9 7 13 -7 18 -10 4 -20 3 -22 -2 -2 -5 -15 -31 -28 -59
-22 -43 -25 -46 -21 -18 5 31 -13 51 -35 37 -5 -3 -9 -1 -9 5 0 5 5 13 10 16
15 9 12 22 -6 29 -11 4 -18 -3 -26 -24z m42 -75 c0 -21 -5 -25 -30 -25 -25 0
-30 4 -30 25 0 21 5 25 30 25 25 0 30 -4 30 -25z m-2 -82 c3 -32 2 -33 -32
-33 -37 0 -41 6 -30 48 5 18 13 22 33 20 21 -2 27 -9 29 -35z"/>
<path d="M10658 6612 l-117 -3 -3 -137 c-2 -75 -2 -139 0 -142 2 -2 11 1 20 7
25 15 200 17 218 2 12 -10 14 7 16 115 1 69 2 134 2 143 1 20 7 19 -136 15z
m-48 -56 c0 -28 4 -35 23 -39 12 -2 1 -4 -25 -4 l-48 0 0 39 c0 34 3 38 25 38
22 0 25 -4 25 -34z m90 24 c0 -6 -17 -10 -40 -8 -22 1 -40 6 -40 10 0 4 18 8
40 8 22 0 40 -5 40 -10z m68 -97 c0 -116 -2 -125 -21 -117 -10 3 -11 19 -6 62
4 31 10 65 14 75 5 12 2 17 -9 17 -12 0 -16 10 -16 35 0 28 4 35 19 35 19 0
20 -7 19 -107z m-90 60 c-10 -2 -26 -2 -35 0 -10 3 -2 5 17 5 19 0 27 -2 18
-5z m35 -30 c-7 -2 -21 -2 -30 0 -10 3 -4 5 12 5 17 0 24 -2 18 -5z m-123 -78
c0 -51 -3 -65 -15 -65 -12 0 -15 14 -15 65 0 51 3 65 15 65 12 0 15 -14 15
-65z m108 58 c-15 -2 -42 -2 -60 0 -18 2 -6 4 27 4 33 0 48 -2 33 -4z m-81
-75 c-2 -13 -4 -5 -4 17 -1 22 1 32 4 23 2 -10 2 -28 0 -40z m63 42 c0 -5 -4
-10 -10 -10 -5 0 -10 5 -10 10 0 6 5 10 10 10 6 0 10 -4 10 -10z m40 -30 c0
-29 -2 -30 -42 -28 -37 1 -39 2 -11 5 25 3 34 10 39 29 8 33 14 30 14 -6z
m-45 0 c-3 -5 -13 -10 -21 -10 -8 0 -14 5 -14 10 0 6 9 10 21 10 11 0 17 -4
14 -10z m23 -57 c-15 -2 -42 -2 -60 0 -18 2 -6 4 27 4 33 0 48 -2 33 -4z"/>
<path d="M10886 6549 c-20 -39 -34 -74 -30 -78 4 -3 9 0 11 7 11 30 18 6 18
-65 0 -52 4 -78 13 -80 8 -3 12 8 12 39 l0 43 53 17 c42 14 48 14 32 2 -11 -8
-30 -17 -42 -21 -13 -3 -23 -9 -23 -14 0 -13 15 -11 57 6 20 8 38 13 41 11 5
-6 -65 -36 -84 -36 -8 0 -14 -5 -14 -11 0 -7 12 -10 28 -7 17 2 35 -3 47 -14
27 -26 45 -22 58 12 13 34 19 36 37 15 14 -17 50 -21 50 -5 0 5 -16 17 -36 26
l-36 17 28 15 c39 20 39 19 24 37 -8 9 -10 27 -6 51 6 30 5 35 -11 34 -38 -4
-44 -1 -37 27 7 25 6 26 -29 20 -23 -4 -36 -2 -34 5 5 24 -23 17 -36 -9 -8
-15 -24 -36 -35 -46 -29 -26 -38 -4 -13 32 19 26 19 41 1 41 -4 0 -24 -32 -44
-71z m164 21 c0 -11 -8 -15 -55 -24 l-30 -6 24 20 c25 21 61 27 61 10z m-22
-57 c2 -9 -7 -13 -27 -13 -21 0 -31 5 -31 16 0 19 51 16 58 -3z m72 2 c0 -9
-9 -15 -25 -15 -16 0 -25 6 -25 15 0 9 9 15 25 15 16 0 25 -6 25 -15z m-150
-19 c0 -19 4 -23 20 -19 31 8 24 -13 -9 -27 -38 -16 -51 -7 -51 36 0 27 4 34
20 34 14 0 20 -7 20 -24z m150 -31 c0 -8 -9 -19 -20 -25 -15 -8 -21 -6 -30 9
-15 29 -13 31 20 31 20 0 30 -5 30 -15z m-55 -85 c-3 -5 -14 -10 -23 -10 -15
0 -15 2 -2 10 20 13 33 13 25 0z"/>
<path d="M11257 6585 c6 -35 5 -35 -31 -35 -22 0 -35 -4 -31 -10 3 -5 15 -10
26 -10 25 0 24 -8 -7 -64 -15 -26 -23 -50 -19 -54 4 -4 12 1 19 12 6 10 19 28
28 40 16 20 16 17 11 -58 -5 -65 -4 -78 8 -74 10 3 15 26 17 77 3 63 5 71 18
60 8 -6 17 -9 20 -6 8 7 -14 47 -26 47 -6 0 -10 5 -10 10 0 6 9 10 21 10 12 0
19 5 16 13 -2 6 -12 11 -22 10 -14 -1 -16 5 -12 33 5 29 3 34 -13 34 -16 0
-18 -5 -13 -35z"/>
<path d="M11669 6615 c-1 -3 -2 -8 -3 -12 -5 -26 -22 -33 -77 -33 -38 0 -58
-4 -54 -10 3 -5 23 -10 42 -10 l37 0 -29 -30 c-16 -16 -35 -30 -42 -30 -7 0
-13 -4 -13 -10 0 -23 42 -7 81 30 23 22 50 40 60 40 10 0 35 -16 56 -35 40
-37 53 -43 53 -22 0 6 -15 22 -33 35 l-32 22 42 0 c46 0 61 11 39 29 -10 8
-16 9 -21 1 -8 -12 -82 -13 -90 -1 -3 5 -1 12 5 16 15 9 12 25 -5 25 -8 0 -16
-2 -16 -5z"/>
<path d="M11908 6593 c-2 -19 -11 -29 -28 -34 l-25 -7 24 -8 c23 -7 23 -10 17
-76 -3 -38 -14 -80 -22 -94 -22 -32 -9 -45 14 -14 22 31 30 56 31 98 1 37 31
47 31 10 0 -59 -13 -98 -31 -98 -11 0 -19 -4 -19 -8 0 -12 22 -32 36 -32 17 0
34 54 34 107 0 29 4 42 11 37 15 -9 66 42 74 75 l7 26 13 -30 c15 -37 62 -72
77 -57 6 6 -5 21 -31 43 -26 20 -41 41 -41 55 0 12 -6 24 -14 27 -18 7 -26 -1
-26 -26 0 -22 -40 -97 -52 -97 -4 0 -8 5 -8 10 0 6 -14 10 -31 10 -41 0 -33
24 9 28 21 2 32 9 32 18 0 12 -7 14 -30 9 -31 -7 -36 0 -20 25 6 9 5 17 -3 22
-20 13 -26 9 -29 -19z"/>
<path d="M7243 6567 c-1 -23 -9 -62 -17 -86 -23 -63 -21 -89 8 -97 49 -12 110
51 104 108 -3 30 -6 33 -36 33 -35 0 -35 2 -16 68 4 13 0 17 -18 17 -20 0 -23
-5 -25 -43z m62 -87 c8 -24 -29 -80 -52 -80 -12 0 -14 8 -10 36 10 59 48 87
62 44z"/>
<path d="M11335 6599 c-2 -3 -4 -62 -4 -132 0 -117 8 -159 23 -122 8 21 82 20
90 -1 5 -13 9 -14 21 -4 12 10 15 39 15 139 l0 126 -71 0 c-39 0 -72 -3 -74
-6z m109 -35 c10 -25 -2 -34 -44 -34 -41 0 -55 11 -46 35 8 21 82 20 90 -1z
m-2 -59 c3 -3 3 -17 0 -30 -4 -22 -10 -25 -43 -25 -41 0 -57 16 -45 45 5 14
76 22 88 10z m0 -81 c3 -3 4 -14 1 -25 -4 -15 -14 -19 -49 -19 -40 0 -44 2
-44 25 0 23 4 25 43 25 24 0 46 -3 49 -6z"/>
<path d="M13433 6595 c2 -5 15 -10 28 -10 23 -1 24 -3 22 -63 -3 -67 -20 -111
-61 -154 -14 -15 -22 -31 -18 -35 15 -15 85 74 92 116 7 47 17 45 41 -7 9 -20
18 -40 20 -43 2 -3 -19 -16 -46 -28 -27 -11 -53 -26 -57 -33 -12 -19 61 -2 94
22 l30 22 40 -27 c42 -28 77 -30 77 -5 0 9 -19 20 -47 28 -47 13 -58 24 -38
37 14 9 60 82 60 95 0 5 -16 10 -36 10 -32 0 -35 2 -28 23 19 58 17 59 -83 61
-58 1 -92 -3 -90 -9z m157 -22 c-1 -38 -14 -53 -46 -53 -29 0 -34 3 -34 23 0
13 3 27 7 30 9 10 73 9 73 0z m30 -83 c0 -18 -30 -70 -40 -70 -10 0 -40 52
-40 70 0 5 18 10 40 10 22 0 40 -5 40 -10z"/>
<path d="M4107 6581 c8 -32 -27 -169 -45 -177 -24 -10 41 -21 96 -16 35 3 45
9 53 30 13 33 3 42 -17 14 -11 -15 -25 -22 -50 -22 -19 0 -34 1 -34 3 0 1 9
36 21 77 13 48 28 81 42 92 22 17 21 18 -25 18 -40 0 -46 -2 -41 -19z"/>
<path d="M4908 6588 c-9 -26 -6 -158 3 -164 20 -12 27 11 31 94 3 71 1 82 -13
82 -9 0 -19 -6 -21 -12z"/>
<path d="M12477 6569 c-8 -19 -45 -69 -82 -111 -45 -53 -61 -78 -51 -79 9 -1
22 -2 29 -3 6 -1 11 5 9 12 -5 27 18 52 48 52 32 0 41 -25 18 -48 -9 -9 -4
-12 26 -12 30 0 36 3 28 13 -7 8 -7 44 -3 102 9 99 0 126 -22 74z m-17 -94
c-7 -8 -17 -12 -22 -9 -5 3 -1 15 9 26 20 22 32 6 13 -17z"/>
<path d="M14003 6591 c-39 -11 -90 -68 -98 -107 -10 -56 9 -92 56 -104 32 -9
46 -8 74 6 35 16 51 43 18 29 -34 -15 -83 -17 -98 -5 -18 15 -20 72 -4 103 16
30 60 66 82 67 10 0 26 -13 35 -30 9 -16 20 -30 23 -30 9 0 17 60 10 64 -15 9
-78 13 -98 7z"/>
<path d="M13126 6573 c3 -10 -4 -51 -14 -92 -15 -56 -25 -77 -43 -87 -22 -12
-18 -13 43 -14 37 0 78 4 92 10 30 11 44 53 26 75 -10 13 -10 19 4 33 40 45 6
92 -66 92 -39 0 -45 -3 -42 -17z m79 -39 c0 -24 -4 -30 -28 -32 -26 -3 -28 -1
-22 20 17 54 50 62 50 12z m-11 -76 c12 -21 -17 -58 -46 -58 -20 0 -21 3 -12
49 5 25 11 31 27 29 11 -2 25 -11 31 -20z"/>
<path d="M3300 6556 c0 -8 -11 -24 -25 -37 -26 -26 -31 -39 -15 -39 14 0 89
77 82 84 -11 12 -42 6 -42 -8z"/>
<path d="M3420 6564 c0 -9 43 -68 52 -72 12 -5 10 -32 -3 -32 -5 0 -7 -4 -4
-10 8 -13 42 -13 50 1 4 5 0 18 -9 28 -9 10 -16 22 -16 27 0 6 -13 22 -28 37
-27 26 -42 33 -42 21z"/>
<path d="M2904 6541 c-11 -11 12 -21 47 -21 l40 0 -15 -27 c-8 -16 -31 -45
-51 -67 -40 -42 -41 -57 -1 -31 37 25 96 112 96 143 0 7 -108 10 -116 3z"/>
<path d="M6844 6526 c-3 -7 -4 -17 -2 -22 1 -5 -4 -25 -11 -44 l-14 -35 -10
53 c-9 48 -12 52 -38 52 -16 0 -29 -4 -29 -10 0 -5 6 -10 13 -10 8 0 15 -6 16
-12 17 -111 10 -138 -35 -138 -17 0 -24 -6 -24 -20 0 -37 37 -22 82 33 58 70
84 109 82 125 -1 6 -2 19 -3 27 -1 19 -20 20 -27 1z"/>
<path d="M1900 6515 c-21 -25 -8 -50 28 -53 28 -3 32 0 32 20 0 42 -36 62 -60
33z m38 -23 c2 -7 -3 -12 -12 -12 -9 0 -16 7 -16 16 0 17 22 14 28 -4z"/>
<path d="M5546 6521 c-3 -5 3 -11 14 -14 29 -8 29 -116 0 -142 -11 -10 -20
-13 -20 -7 0 7 -4 12 -10 12 -5 0 -10 -11 -10 -25 0 -43 26 -29 95 52 47 55
65 84 65 105 0 19 -5 28 -16 28 -12 0 -15 -6 -11 -22 4 -14 -2 -35 -16 -57
l-22 -36 -3 35 c-5 67 -11 80 -37 80 -13 0 -26 -4 -29 -9z"/>
<path d="M9235 6521 c-18 -7 -18 -8 -2 -18 15 -8 17 -21 15 -79 -3 -60 -6 -70
-25 -79 -26 -11 -31 -35 -8 -35 8 0 39 30 70 67 58 71 84 128 67 145 -17 17
-32 -1 -26 -30 6 -31 -17 -69 -35 -58 -6 4 -9 19 -7 33 3 13 0 33 -7 44 -13
21 -13 21 -42 10z"/>
<path d="M9721 6504 c-60 -50 -46 -145 19 -129 31 8 50 23 50 41 0 12 -4 12
-24 -1 -54 -35 -77 21 -28 68 33 31 40 33 38 11 -2 -23 20 -29 28 -8 8 21 -10
44 -34 44 -10 0 -32 -12 -49 -26z"/>
<path d="M2693 6513 c-176 -5 -157 -23 23 -23 129 0 145 2 134 15 -7 8 -18 14
-24 13 -6 -1 -66 -4 -133 -5z"/>
<path d="M6350 6511 c0 -5 7 -14 15 -21 8 -7 15 -19 15 -26 0 -8 7 -14 15 -14
21 0 19 40 -2 56 -21 15 -43 18 -43 5z"/>
<path d="M6950 6500 c0 -6 35 -10 85 -10 50 0 85 4 85 10 0 6 -35 10 -85 10
-50 0 -85 -4 -85 -10z"/>
<path d="M9440 6495 c0 -12 15 -15 81 -15 60 0 80 3 77 13 -3 8 -31 13 -81 15
-64 2 -77 0 -77 -13z"/>
<path d="M11602 6480 c-26 -34 -28 -50 -7 -50 8 0 15 6 15 14 0 28 18 26 28
-4 10 -28 9 -31 -33 -60 -24 -16 -51 -30 -59 -30 -9 0 -16 -7 -16 -15 0 -20 0
-20 78 21 l68 36 53 -32 c48 -28 56 -30 69 -16 14 14 14 16 -4 21 -10 4 -36
14 -57 23 -34 14 -38 19 -32 41 4 14 13 34 22 43 15 16 11 38 -7 38 -5 0 -19
-19 -31 -42 l-21 -42 -19 42 c-11 23 -21 42 -22 42 -2 0 -13 -13 -25 -30z"/>
<path d="M12720 6502 c0 -5 13 -21 30 -37 27 -26 30 -27 36 -10 5 12 0 24 -15
37 -24 19 -51 24 -51 10z"/>
<path d="M7860 6487 c1 -17 38 -63 45 -56 12 12 -7 57 -26 62 -11 3 -19 0 -19
-6z"/>
<path d="M10340 6495 c0 -11 44 -65 52 -65 16 0 8 27 -15 48 -23 21 -37 28
-37 17z"/>
<path d="M12040 6492 c0 -5 9 -17 20 -27 11 -10 20 -24 20 -32 0 -7 5 -13 10
-13 18 0 10 36 -13 58 -24 23 -37 28 -37 14z"/>
<path d="M14300 6480 c0 -13 7 -20 20 -20 13 0 20 7 20 20 0 13 -7 20 -20 20
-13 0 -20 -7 -20 -20z"/>
<path d="M3230 6474 c0 -21 26 -34 67 -34 24 0 43 5 43 10 0 6 -19 10 -43 10
-24 0 -48 5 -55 12 -7 7 -12 8 -12 2z"/>
<path d="M3415 6450 c3 -5 10 -10 16 -10 5 0 9 5 9 10 0 6 -7 10 -16 10 -8 0
-12 -4 -9 -10z"/>
<path d="M6950 6436 c0 -10 20 -14 85 -15 69 0 85 2 85 14 0 12 -17 15 -85 15
-65 0 -85 -3 -85 -14z"/>
<path d="M9435 6430 c3 -5 42 -10 86 -10 46 0 79 4 79 10 0 6 -35 10 -86 10
-54 0 -83 -4 -79 -10z"/>
<path d="M12021 6413 c0 -5 21 -25 45 -47 39 -34 44 -36 44 -17 0 13 -14 29
-40 46 -42 26 -51 30 -49 18z"/>
<path d="M5255 6386 c56 -35 65 -39 72 -32 13 13 -34 47 -73 52 l-39 6 40 -26z"/>
<path d="M1150 6081 c0 -88 2 -102 15 -97 12 4 13 2 6 -13 -6 -10 -17 -23 -25
-31 -15 -12 -22 -40 -11 -40 11 0 70 74 67 83 -2 6 12 7 33 4 l35 -6 1 47 c0
26 1 71 2 101 l1 55 -62 0 -62 1 0 -104z m100 59 c0 -17 -7 -20 -40 -20 -27 0
-40 4 -40 13 0 21 11 27 47 27 26 0 33 -4 33 -20z m0 -55 c0 -11 -11 -15 -40
-15 -29 0 -40 4 -40 15 0 11 11 15 40 15 29 0 40 -4 40 -15z m0 -55 c0 -17 -7
-20 -40 -20 -33 0 -40 3 -40 20 0 17 7 20 40 20 33 0 40 -3 40 -20z"/>
<path d="M1370 6065 l0 -125 -25 0 c-14 0 -25 -4 -25 -10 0 -5 9 -10 19 -10
11 0 21 -6 24 -12 3 -10 8 -9 20 2 12 12 16 44 19 148 3 120 1 132 -14 132
-16 0 -18 -13 -18 -125z"/>
<path d="M2028 6068 l-3 -123 -27 -3 c-31 -4 -38 -22 -9 -22 11 0 21 -6 24
-12 3 -10 7 -10 20 1 14 11 17 34 17 132 0 75 4 120 11 125 11 6 -6 23 -23 24
-4 0 -9 -55 -10 -122z"/>
<path d="M2149 6148 c-6 -24 -20 -58 -31 -75 -19 -32 -14 -45 10 -21 9 9 12
-7 12 -75 0 -51 4 -87 10 -87 12 0 13 3 14 126 1 129 6 135 94 130 37 -3 70
-5 75 -5 4 -1 7 -46 7 -101 l0 -100 -30 0 c-16 0 -30 -3 -30 -7 0 -9 48 -33
66 -33 15 0 26 57 24 124 -3 98 -1 116 15 116 18 0 20 16 3 26 -7 4 -54 7
-105 5 -62 -2 -93 1 -93 8 0 6 -7 11 -15 11 -8 0 -19 -17 -26 -42z"/>
<path d="M2560 6169 c0 -20 -4 -21 -45 -15 -30 5 -45 4 -45 -4 0 -13 30 -24
83 -29 4 -1 7 -5 7 -11 0 -5 -24 -10 -54 -10 -83 0 -78 -19 5 -22 l71 -3 -43
-28 c-23 -16 -55 -31 -71 -34 -15 -3 -28 -10 -28 -15 0 -10 37 -6 73 7 15 6
17 0 17 -56 1 -55 2 -62 14 -46 9 12 27 17 61 17 34 0 52 -5 61 -17 12 -16 13
-10 14 42 0 33 3 69 6 80 4 16 -3 24 -33 37 l-38 17 59 0 c51 1 57 3 46 16 -8
9 -21 13 -36 9 -15 -4 -24 -2 -24 5 0 6 5 11 10 11 6 0 10 5 10 11 0 7 8 18
18 25 16 12 16 13 -2 20 -13 5 -23 2 -31 -9 -7 -10 -23 -16 -36 -15 -16 2 -24
-2 -24 -12 0 -8 6 -14 14 -12 12 3 12 0 1 -12 -7 -9 -19 -16 -27 -16 -12 0
-13 9 -9 45 5 36 4 45 -9 45 -9 0 -15 -9 -15 -21z m70 -119 c8 -5 11 -10 5
-11 -5 0 -19 -2 -29 -4 -26 -5 -42 5 -25 16 18 11 31 11 49 -1z m8 -39 c47 -3
19 -21 -33 -21 -41 0 -55 4 -55 14 0 10 10 13 33 12 17 -2 42 -4 55 -5z m22
-56 c0 -12 -13 -15 -55 -15 -42 0 -55 3 -55 15 0 12 13 15 55 15 42 0 55 -3
55 -15z"/>
<path d="M3284 6175 c-5 -12 -14 -15 -30 -11 -19 5 -24 2 -24 -12 0 -10 -5
-23 -12 -30 -20 -20 1 -26 22 -7 25 23 26 9 0 -32 -20 -34 -32 -42 -27 -20 1
8 -9 11 -31 9 -31 -3 -32 -2 -26 25 10 40 12 43 40 43 13 0 24 6 24 13 0 10
-15 13 -55 13 -37 -1 -55 -5 -55 -13 0 -7 7 -13 15 -13 17 0 14 -25 -12 -98
-16 -42 -11 -70 7 -42 7 10 10 -1 10 -37 0 -28 5 -55 10 -58 6 -3 10 3 10 14
0 22 14 28 25 11 3 -5 13 -10 21 -10 10 0 14 14 14 54 0 40 4 55 16 60 13 5
15 -4 14 -57 -2 -94 -3 -93 18 -74 13 12 37 17 76 17 42 0 56 3 53 13 -2 6
-16 11 -31 9 -18 -2 -26 2 -26 13 0 9 4 14 9 11 12 -8 41 4 41 16 0 6 -11 8
-25 6 -19 -4 -25 -1 -25 12 0 13 6 17 19 13 21 -5 36 11 26 27 -5 8 -11 8 -19
1 -15 -12 -26 -5 -26 17 0 10 8 13 26 9 23 -4 25 -2 20 19 -3 12 -2 26 4 29 5
3 10 15 10 26 0 16 -7 19 -40 19 -24 0 -39 4 -37 11 4 19 -22 22 -29 4z m66
-49 c0 -9 -7 -12 -20 -9 -14 4 -20 0 -20 -11 0 -9 -4 -16 -9 -16 -17 0 -23 20
-11 35 16 19 60 20 60 1z m-50 -69 c0 -19 -10 -27 -26 -20 -21 8 -17 33 6 33
11 0 20 -6 20 -13z m-112 -46 c3 -41 -7 -60 -30 -61 -5 0 -8 25 -8 56 0 47 3
55 18 52 12 -2 18 -15 20 -47z m116 -22 c-3 -5 -14 -9 -25 -9 -21 0 -26 26 -6
33 15 5 39 -12 31 -24z m-4 -34 c0 -8 -9 -15 -20 -15 -11 0 -20 7 -20 15 0 8
9 15 20 15 11 0 20 -7 20 -15z"/>
<path d="M1583 6173 c-71 -2 -123 -8 -123 -13 0 -6 27 -10 61 -10 l60 0 -2
-116 c-1 -74 3 -120 10 -127 8 -8 11 13 11 81 0 51 3 92 7 92 3 0 21 -11 39
-25 36 -27 54 -32 54 -12 -1 14 -36 41 -67 51 -13 4 -24 12 -24 17 -6 32 -2
34 61 39 36 3 65 9 65 15 0 12 1 12 -152 8z"/>
<path d="M1784 6171 c-8 -8 8 -21 27 -21 26 0 24 -26 -6 -79 -30 -52 -32 -71
-5 -46 20 18 21 18 44 -4 l24 -23 -39 -36 c-37 -35 -50 -62 -29 -62 6 0 10 4
10 9 0 4 17 20 39 35 37 26 59 66 77 139 6 26 5 27 -35 27 -39 0 -41 1 -31 20
8 15 21 20 51 20 28 0 39 4 37 12 -3 9 -30 13 -82 13 -43 0 -79 -2 -82 -4z
m116 -93 c0 -7 -4 -20 -10 -28 -7 -12 -13 -12 -34 -1 -14 8 -22 19 -19 27 6
18 63 19 63 2z"/>
<path d="M3542 6165 c-17 -13 -22 -25 -20 -48 3 -37 23 -34 23 3 0 18 6 26 23
28 27 4 52 -14 52 -37 0 -9 -11 -26 -24 -38 -25 -24 -40 -72 -26 -87 4 -4 11
3 15 15 4 13 23 41 42 62 35 39 37 65 9 94 -20 22 -69 25 -94 8z"/>
<path d="M1311 6156 c-15 -18 -11 -168 5 -173 15 -5 26 38 14 52 -6 7 -5 16 3
24 9 11 9 14 -1 18 -8 3 -10 9 -4 16 28 36 11 97 -17 63z"/>
<path d="M2897 6163 c-73 -2 -115 -7 -112 -13 3 -6 33 -10 66 -10 l59 0 0
-100 0 -100 -25 0 c-17 0 -25 6 -26 18 -3 53 -2 89 5 110 6 19 4 22 -18 22
-26 0 -26 -1 -26 -75 0 -73 -1 -75 -25 -75 -14 0 -25 -4 -25 -10 0 -6 55 -10
145 -10 80 0 145 4 145 9 0 16 -28 33 -35 21 -3 -5 -26 -10 -51 -10 l-44 0 0
53 0 52 50 -3 c50 -4 62 5 36 27 -10 8 -16 9 -21 1 -3 -5 -20 -10 -36 -10 -29
0 -30 2 -27 38 l3 37 58 3 c42 2 57 7 57 17 0 8 -8 14 -17 13 -10 -1 -71 -4
-136 -5z"/>
<path d="M1970 6070 c0 -53 4 -90 10 -90 6 0 11 21 12 48 1 26 2 61 3 77 0 17
4 36 8 43 6 8 2 12 -12 12 -20 0 -21 -6 -21 -90z"/>
<path d="M2202 6043 c-1 -64 9 -87 26 -56 9 15 12 16 35 0 32 -21 37 -14 37
45 0 28 5 48 11 48 6 0 9 6 7 12 -3 8 -25 13 -60 13 l-55 0 -1 -62z m68 2 c0
-28 -4 -35 -20 -35 -16 0 -20 7 -20 35 0 28 4 35 20 35 16 0 20 -7 20 -35z"/>
<path d="M1230 5975 c0 -12 33 -55 41 -55 15 0 10 26 -9 43 -19 17 -32 22 -32
12z"/>
<path d="M3555 5950 c-8 -14 3 -30 21 -30 8 0 14 9 14 20 0 21 -24 28 -35 10z"/>
<path d="M2081 5409 c-19 -8 -21 -12 -11 -24 8 -10 9 -19 3 -27 -14 -18 -45
-147 -38 -159 4 -5 23 -9 44 -9 57 0 101 58 87 116 -5 19 -13 24 -37 24 -24 0
-29 4 -25 18 22 74 20 79 -23 61z m55 -142 c-8 -40 -23 -57 -52 -57 -21 0 -24
3 -18 28 7 31 51 75 66 66 5 -4 7 -20 4 -37z"/>
<path d="M1490 5401 c0 -5 7 -14 16 -22 23 -19 17 -136 -10 -166 l-19 -23 46
0 c26 0 47 5 47 10 0 6 -7 10 -15 10 -12 0 -15 16 -15 80 0 69 3 82 20 92 31
20 24 28 -25 28 -25 0 -45 -4 -45 -9z"/>
<path d="M2318 5312 c-31 -15 -59 -32 -62 -39 -7 -16 133 -88 146 -75 7 7 -6
19 -41 36 -28 15 -51 31 -51 36 0 5 20 18 44 28 24 11 47 25 50 31 12 18 -25
11 -86 -17z"/>
<path d="M2519 5301 c-40 -41 -41 -97 -1 -112 31 -12 74 7 80 36 4 15 2 15
-21 1 -51 -34 -80 19 -34 62 27 26 37 28 37 7 0 -8 7 -15 15 -15 9 0 15 9 15
25 0 37 -52 35 -91 -4z"/>
<path d="M8340 5311 c0 -5 5 -11 10 -13 6 -2 13 -26 16 -54 7 -54 -14 -104
-42 -104 -8 0 -14 -7 -14 -15 0 -8 5 -15 12 -15 16 0 128 119 139 148 13 35
11 62 -5 62 -10 0 -14 -10 -14 -28 1 -30 -17 -72 -31 -72 -5 0 -12 23 -16 50
-6 44 -10 50 -31 50 -13 0 -24 -4 -24 -9z"/>
<path d="M8595 5308 c-16 -50 -75 -246 -75 -251 0 -4 7 -7 15 -7 8 0 19 17 25
43 6 23 15 53 20 67 5 15 9 -226 9 -582 l1 -608 -58 0 c-31 0 -64 0 -72 1 -8
1 -286 3 -618 6 -545 3 -603 2 -600 -12 3 -14 67 -16 598 -19 327 -1 613 -5
635 -9 22 -3 44 -2 50 3 12 10 34 8 52 -3 10 -6 12 -64 8 -250 -2 -133 -7
-631 -10 -1107 -4 -475 -8 -867 -11 -869 -2 -2 -32 -11 -67 -18 -34 -8 -71
-16 -82 -19 -44 -12 -358 -63 -485 -79 -74 -9 -142 -21 -151 -25 -9 -5 -84
-14 -165 -21 -146 -12 -183 -21 -155 -38 14 -9 73 -7 206 9 44 5 105 12 135
16 30 3 60 9 65 14 6 4 73 15 150 25 77 9 171 23 208 31 91 19 115 16 47 -5
-30 -10 -64 -23 -75 -29 -27 -15 -95 -34 -255 -72 -74 -18 -142 -35 -150 -38
-19 -6 -22 -7 -90 -25 -30 -8 -89 -20 -130 -26 -95 -16 -127 -28 -112 -43 8
-8 61 -1 193 26 100 21 189 41 198 46 9 5 84 25 166 46 83 20 159 42 170 48
11 5 28 9 38 7 9 -1 17 2 17 8 0 6 19 15 43 21 74 20 190 61 240 86 l47 23 0
-235 0 -236 -765 3 c-421 1 -768 -1 -772 -5 -4 -4 -1 -11 7 -16 9 -6 323 -10
774 -10 l758 0 -3 -312 c-3 -243 -1 -312 9 -315 13 -5 13 1 16 437 l1 185 780
0 c429 0 1457 -2 2285 -4 l1505 -3 -67 -22 c-63 -19 -85 -37 -73 -56 5 -8 106
16 114 28 3 4 39 18 79 30 41 13 72 29 72 36 0 7 -21 19 -47 26 -27 8 -57 19
-68 26 -27 17 -135 45 -147 38 -13 -8 11 -34 31 -34 9 0 21 -4 27 -9 5 -5 25
-14 44 -20 25 -8 -612 -9 -2245 -6 -1253 3 -2282 9 -2285 13 -3 4 -4 111 -2
237 l3 230 142 35 c78 19 144 37 147 40 3 3 43 16 90 29 145 40 255 74 265 82
6 4 53 22 105 39 52 18 128 48 168 66 40 19 76 34 81 34 11 0 78 29 201 87 52
25 118 54 147 64 28 11 62 28 75 39 13 10 55 34 94 52 75 37 259 143 284 163
8 7 41 26 73 43 31 17 117 75 190 130 72 54 137 101 144 103 7 2 34 23 60 45
26 23 80 68 118 100 157 129 495 485 535 564 10 19 30 48 44 63 41 44 146 203
188 287 22 41 52 97 68 124 l28 50 377 3 c207 1 380 5 385 8 5 3 7 12 4 20 -5
12 -65 14 -367 14 -199 0 -367 0 -374 0 -8 1 -4 16 11 46 14 25 22 45 19 45
-3 0 -1 6 5 13 5 6 22 57 37 112 37 136 55 196 65 220 8 18 28 113 45 217 6
38 -6 57 -22 35 -5 -6 -15 -50 -21 -96 -6 -46 -16 -89 -21 -95 -4 -6 -11 -29
-15 -51 -4 -22 -13 -60 -20 -85 -8 -25 -21 -74 -31 -110 -25 -93 -34 -117 -68
-187 l-31 -63 -98 -1 c-54 -1 -105 -1 -113 -1 -8 0 -162 0 -341 1 l-326 1 7
23 c22 69 39 129 52 182 8 33 19 65 24 71 19 23 94 407 84 431 -12 32 -25 -4
-45 -118 -26 -152 -47 -249 -58 -263 -5 -6 -15 -36 -22 -66 -14 -64 -70 -242
-79 -253 -8 -9 -1971 -10 -1994 -1 -10 3 -17 2 -17 -2 0 -5 -64 -9 -143 -8
l-142 1 4 604 c2 332 6 608 9 613 3 5 14 -20 24 -55 21 -69 31 -85 46 -75 10
6 -37 161 -70 238 -14 30 -26 36 -33 16z m111 -1370 c4 -5 497 -8 1096 -8
l1089 0 -16 -30 c-8 -16 -15 -35 -15 -41 0 -20 -149 -318 -186 -374 -19 -27
-34 -54 -34 -58 0 -7 -40 -70 -121 -187 -63 -92 -162 -220 -170 -220 -5 0 -13
-10 -18 -23 -10 -26 -139 -173 -262 -297 -85 -87 -242 -230 -251 -230 -3 0
-24 -18 -47 -40 -23 -22 -54 -48 -69 -58 -15 -9 -72 -51 -127 -92 -125 -95
-221 -160 -234 -160 -6 0 -11 -4 -11 -8 0 -5 -12 -15 -27 -23 -43 -22 -132
-76 -148 -89 -13 -11 -83 -48 -255 -135 -41 -21 -91 -47 -110 -57 -54 -29
-141 -68 -166 -74 l-23 -6 6 1099 c3 606 10 1103 14 1109 10 12 73 13 85 2z
m3104 -14 c0 -3 -12 -26 -27 -52 -14 -26 -46 -85 -71 -132 -25 -47 -55 -98
-68 -115 -38 -51 -93 -127 -133 -188 -22 -31 -52 -70 -68 -86 -15 -15 -44 -50
-63 -77 -44 -63 -368 -384 -387 -384 -7 0 -16 -7 -19 -14 -3 -8 -33 -35 -67
-60 -34 -25 -68 -55 -75 -66 -7 -11 -17 -20 -24 -20 -6 0 -32 -17 -57 -38 -54
-45 -193 -145 -259 -186 -26 -16 -82 -51 -125 -78 -42 -27 -98 -58 -125 -69
-26 -11 -51 -25 -57 -32 -5 -7 -50 -32 -100 -57 -49 -25 -92 -48 -95 -52 -3
-4 -55 -28 -115 -54 -61 -25 -147 -64 -192 -85 -45 -22 -86 -39 -92 -39 -5 0
-39 -13 -74 -30 -64 -29 -221 -87 -264 -97 -13 -3 -23 -10 -23 -15 0 -5 -4 -6
-10 -3 -5 3 -10 2 -10 -3 0 -5 -19 -14 -42 -20 -24 -6 -101 -27 -173 -47 -71
-19 -134 -37 -140 -38 -5 -1 -15 -6 -22 -10 -6 -4 -14 -3 -17 2 -4 5 20 21 51
36 32 14 69 32 83 40 14 7 63 34 110 58 47 24 117 65 155 90 39 26 74 47 79
47 12 0 182 116 230 156 21 18 53 40 72 49 19 9 50 32 69 51 19 19 38 34 42
34 4 1 20 11 34 23 15 12 69 57 120 100 178 149 450 439 583 622 16 22 33 42
38 43 5 2 17 20 28 40 11 21 52 82 90 137 39 55 70 104 70 110 0 6 8 20 18 31
9 11 40 65 67 120 28 54 53 101 57 104 5 4 62 140 97 233 l11 27 445 0 c245 0
445 -3 445 -6z m-3010 -2154 c0 -5 -4 -10 -10 -10 -5 0 -10 5 -10 10 0 6 5 10
10 10 6 0 10 -4 10 -10z"/>
<path d="M10959 3866 c19 -22 -26 -175 -53 -186 -20 -7 -19 -8 7 -15 15 -4 52
-4 82 0 42 5 59 12 71 30 16 25 10 75 -9 75 -6 0 -1 7 11 16 24 17 30 62 10
82 -7 7 -38 12 -71 12 -50 0 -58 -2 -48 -14z m84 -27 c15 -25 1 -49 -29 -49
-22 0 -25 3 -20 23 3 12 6 28 6 35 0 18 30 11 43 -9z m-25 -75 c24 -7 30 -42
10 -62 -16 -16 -69 -16 -64 1 3 6 7 24 10 40 7 29 9 30 44 21z"/>
<path d="M1600 5210 c0 -11 7 -20 15 -20 8 0 15 9 15 20 0 11 -7 20 -15 20 -8
0 -15 -9 -15 -20z"/>
<path d="M11217 5000 c5 -36 3 -40 -16 -40 -11 0 -21 -4 -21 -10 0 -13 23 -13
37 1 8 8 13 8 17 0 11 -17 46 -13 46 5 0 8 -4 12 -10 9 -6 -4 -10 5 -10 19 0
16 6 26 15 26 8 0 15 7 15 15 0 17 -16 20 -26 4 -4 -8 -9 -8 -17 0 -23 23 -35
12 -30 -29z"/>
<path d="M2070 5015 c10 -12 10 -21 1 -38 -16 -31 -41 -118 -41 -143 0 -49 91
-33 120 21 13 25 16 77 5 95 -4 6 -18 10 -31 7 -20 -3 -24 -1 -19 14 3 11 8
28 11 39 4 17 1 20 -27 20 -27 0 -30 -2 -19 -15z m59 -99 c14 -17 2 -53 -27
-79 -42 -38 -53 13 -16 71 17 25 27 28 43 8z"/>
<path d="M12510 5022 c0 -4 6 -14 13 -21 10 -10 7 -16 -12 -32 -27 -22 -20
-39 9 -21 16 10 21 9 29 -5 8 -14 12 -15 25 -4 21 18 20 28 -4 36 -27 9 -25
19 8 35 16 7 22 14 14 17 -7 3 -20 -1 -29 -9 -13 -10 -17 -10 -20 0 -5 13 -33
17 -33 4z"/>
<path d="M1497 5001 c16 -14 19 -21 10 -30 -8 -8 -8 -11 2 -11 10 0 11 -3 2
-13 -8 -10 -7 -17 2 -26 7 -7 8 -14 2 -19 -6 -4 -11 -24 -12 -44 -2 -36 0 -38
30 -38 24 0 28 3 19 12 -7 7 -12 43 -12 90 0 72 2 79 23 88 17 7 10 9 -33 9
-55 0 -55 0 -33 -18z"/>
<path d="M1590 5014 c0 -3 6 -12 14 -19 16 -16 20 -151 5 -161 -17 -10 0 -21
26 -16 19 3 23 8 16 15 -15 15 -14 160 1 175 9 9 4 12 -25 12 -20 0 -37 -3
-37 -6z"/>
<path d="M2648 5013 c-19 -5 -25 -23 -8 -23 6 0 10 -33 10 -79 0 -44 -4 -83
-10 -86 -21 -13 -9 -25 25 -25 19 0 35 5 35 10 0 6 -4 10 -10 10 -6 0 -10 40
-10 100 0 55 -3 99 -7 99 -5 -1 -16 -3 -25 -6z"/>
<path d="M11056 5011 c-4 -5 -2 -11 3 -13 6 -2 -2 -44 -16 -96 -22 -79 -24
-95 -12 -103 64 -40 165 75 114 131 -14 15 -22 17 -37 9 -28 -15 -31 -6 -14
36 9 21 16 39 16 41 0 8 -49 3 -54 -5z m74 -122 c0 -30 -38 -79 -61 -79 -16 0
-18 5 -13 28 10 42 32 72 54 72 14 0 20 -7 20 -21z"/>
<path d="M2385 4960 c-4 -6 -5 -12 -4 -13 2 -1 13 -8 24 -15 11 -7 35 -19 54
-28 l35 -16 -57 -30 c-31 -17 -57 -35 -57 -39 0 -14 13 -11 78 21 34 17 67 30
72 30 17 0 11 30 -7 36 -10 3 -44 19 -75 35 -37 20 -59 26 -63 19z"/>
<path d="M2221 4925 c-53 -61 -35 -141 26 -119 29 10 51 39 39 51 -4 4 -13 1
-19 -7 -7 -8 -20 -16 -29 -18 -24 -4 -24 40 -1 79 20 34 29 36 36 9 8 -31 27
-24 27 10 0 44 -38 41 -79 -5z"/>
<path d="M10569 4933 c-8 -10 -9 -14 -2 -10 17 10 22 -3 29 -70 6 -63 -3 -81
-43 -87 -19 -3 -32 -36 -13 -36 23 0 72 46 110 105 43 66 52 109 23 103 -12
-3 -17 -12 -16 -27 3 -25 -13 -61 -27 -61 -6 0 -10 17 -10 38 0 35 -14 62 -31
62 -4 0 -13 -8 -20 -17z"/>
<path d="M12382 4926 c-39 -26 -60 -82 -43 -115 15 -27 62 -28 86 -1 24 26 13
36 -17 16 -30 -19 -38 -13 -38 29 0 20 8 39 24 54 23 22 23 22 29 2 6 -25 25
-27 34 -5 6 16 -9 37 -29 40 -7 0 -28 -8 -46 -20z"/>
<path d="M11890 4930 c-12 -8 -12 -10 3 -16 14 -5 17 -19 17 -69 0 -66 -8 -80
-45 -80 -25 0 -27 -28 -2 -33 33 -7 124 111 141 181 6 24 4 28 -11 25 -11 -2
-17 -11 -15 -23 1 -11 -7 -38 -18 -60 l-20 -39 0 46 c0 73 -13 92 -50 68z"/>
<path d="M10770 4910 c0 -6 33 -10 79 -10 44 0 83 5 86 10 4 6 -25 10 -79 10
-51 0 -86 -4 -86 -10z"/>
<path d="M12086 4911 c-9 -14 21 -21 95 -21 55 0 69 3 69 15 0 12 -15 15 -79
15 -44 0 -82 -4 -85 -9z"/>
<path d="M10770 4855 c0 -12 16 -15 85 -15 69 0 85 3 85 15 0 12 -16 15 -85
15 -69 0 -85 -3 -85 -15z"/>
<path d="M12096 4862 c-9 -2 -16 -8 -16 -13 0 -5 39 -9 87 -9 53 0 83 4 78 9
-10 9 -119 19 -149 13z"/>
<path d="M1700 4824 c0 -9 5 -14 12 -12 18 6 21 28 4 28 -9 0 -16 -7 -16 -16z"/>
<path d="M2240 4623 c0 -13 -129 -186 -142 -191 -18 -8 -6 -22 18 -22 18 0 25
4 21 14 -7 18 24 46 51 46 24 0 30 -28 10 -48 -9 -9 -4 -12 25 -12 33 0 36 2
26 18 -8 12 -8 41 -1 97 5 44 6 87 1 95 -5 9 -9 10 -9 3z m-30 -118 c-7 -8
-17 -12 -22 -9 -5 3 -1 15 9 26 20 22 32 6 13 -17z"/>
<path d="M2370 4610 c-25 -3 -40 -8 -34 -12 16 -10 -22 -158 -44 -175 -13 -11
-4 -13 55 -13 55 0 73 4 86 18 20 21 23 68 5 74 -7 3 -3 15 12 36 20 26 21 34
10 47 -21 25 -42 31 -90 25z m56 -35 c8 -20 -13 -45 -37 -45 -21 0 -22 4 -13
38 7 25 41 30 50 7z m-22 -84 c20 -22 12 -47 -17 -55 -48 -13 -52 -5 -31 62 5
18 28 15 48 -7z"/>
<path d="M1580 4408 c0 -5 5 -8 10 -8 6 0 10 -37 10 -90 0 -53 -4 -90 -10 -90
-5 0 -10 -4 -10 -10 0 -5 18 -10 40 -10 22 0 40 5 40 10 0 6 -4 10 -10 10 -15
0 -13 177 3 183 6 2 -7 6 -30 8 -24 3 -43 1 -43 -3z"/>
<path d="M2850 4410 c-12 -7 -12 -12 -2 -22 16 -16 16 -160 0 -176 -9 -9 -3
-12 27 -12 30 0 36 3 27 12 -8 8 -12 47 -12 110 0 100 -5 111 -40 88z"/>
<path d="M1489 4401 c20 -13 23 -181 4 -181 -7 0 -13 -4 -13 -10 0 -5 20 -10
45 -10 25 0 45 5 45 10 0 6 -6 10 -14 10 -8 0 -16 10 -19 23 -8 31 2 139 15
154 8 10 1 13 -33 13 -30 0 -40 -3 -30 -9z"/>
<path d="M1688 4401 c17 -10 20 -173 3 -179 -26 -9 -8 -22 29 -22 22 0 40 5
40 10 0 6 -4 10 -10 10 -15 0 -13 177 3 183 6 3 -8 6 -33 6 -27 0 -40 -3 -32
-8z"/>
<path d="M2954 4339 c-31 -16 -47 -75 -29 -109 33 -64 117 -39 123 36 2 21 -3
47 -10 56 -17 22 -57 30 -84 17z m61 -50 c14 -62 -18 -91 -49 -44 -20 31 -20
44 0 66 21 23 41 14 49 -22z"/>
<path d="M3097 4332 c-19 -21 -23 -57 -7 -67 7 -4 6 -13 -1 -26 -6 -12 -8 -23
-5 -26 3 -4 1 -12 -5 -19 -17 -20 -3 -61 23 -67 52 -14 108 19 108 64 0 25 -4
28 -52 37 -29 5 -41 10 -27 11 14 0 33 9 42 19 15 17 40 72 35 77 -2 1 -24 5
-49 9 -37 5 -48 3 -62 -12z m51 -40 c2 -24 -1 -32 -12 -32 -12 0 -16 10 -16
36 0 45 24 42 28 -4z m31 -108 c11 -3 11 -7 1 -19 -24 -29 -89 -12 -77 19 6
16 26 16 76 0z"/>
<path d="M3535 4329 c-24 -12 -55 -63 -55 -89 0 -24 26 -50 50 -50 10 0 32 12
47 26 l28 26 -25 -7 c-14 -3 -32 -7 -40 -8 -22 -3 -25 51 -4 74 21 23 34 24
34 4 0 -19 36 -20 43 -1 12 31 -35 46 -78 25z"/>
<path d="M2590 4310 c0 -6 33 -10 80 -10 47 0 80 4 80 10 0 6 -33 10 -80 10
-47 0 -80 -4 -80 -10z"/>
<path d="M2020 4280 c0 -19 7 -20 245 -20 238 0 245 1 245 20 0 19 -7 20 -245
20 -238 0 -245 -1 -245 -20z"/>
<path d="M3279 4275 c-4 -14 -7 -22 -16 -45 -6 -14 -14 -44 -18 -67 l-7 -43
35 0 c41 0 56 15 64 65 5 31 3 37 -16 42 -18 4 -21 11 -17 29 5 17 2 24 -9 24
-8 0 -16 -2 -16 -5z m31 -98 c0 -23 -17 -47 -32 -47 -11 0 -10 28 2 51 14 26
30 24 30 -4z"/>
<path d="M2585 4250 c3 -5 39 -10 80 -10 41 0 77 5 80 10 4 6 -25 10 -80 10
-55 0 -84 -4 -80 -10z"/>
<path d="M1795 4230 c-8 -14 3 -30 21 -30 8 0 14 9 14 20 0 21 -24 28 -35 10z"/>
<path d="M2147 4050 c-42 -55 -73 -100 -69 -101 4 0 15 -2 25 -4 12 -2 17 3
17 19 0 30 18 46 52 46 31 0 37 -20 13 -40 -22 -18 -10 -28 31 -28 23 0 32 3
24 8 -10 6 -12 31 -7 104 4 53 3 96 -1 96 -4 0 -42 -45 -85 -100z m53 0 c0
-13 -7 -20 -20 -20 -18 0 -19 2 -8 20 7 11 16 20 20 20 5 0 8 -9 8 -20z"/>
<path d="M2308 4108 c-49 -54 -52 -101 -9 -147 29 -31 73 -42 86 -21 4 6 10 8
14 5 5 -2 19 7 31 20 26 27 9 35 -23 11 -32 -25 -109 8 -106 46 2 28 46 94 71
106 34 16 68 1 68 -28 0 -27 16 -25 24 3 12 44 9 47 -56 47 -59 0 -62 -1 -100
-42z"/>
<path d="M12765 4020 c4 -12 1 -27 -5 -35 -7 -8 -9 -15 -5 -15 4 0 3 -6 -2
-12 -6 -7 -16 -35 -22 -62 -7 -27 -20 -55 -29 -63 -14 -10 -5 -12 60 -13 82 0
82 0 92 43 7 31 -13 39 -21 7 -3 -11 -9 -17 -15 -14 -5 3 -15 0 -23 -6 -8 -6
-19 -9 -25 -5 -13 8 -13 45 0 45 6 0 10 6 9 13 -4 22 26 109 38 114 25 10 12
23 -23 23 -31 0 -35 -2 -29 -20z"/>
<path d="M11926 3879 c-85 -24 -127 -139 -70 -196 21 -21 32 -25 66 -20 22 3
48 13 59 23 26 23 18 28 -17 10 -29 -16 -73 -12 -86 8 -16 23 -8 84 15 117 19
29 29 34 62 34 33 0 40 -4 40 -19 0 -33 24 -29 33 6 5 18 9 34 8 34 -6 7 -88
9 -110 3z"/>
<path d="M8460 3804 c-30 -41 -67 -88 -82 -103 -23 -23 -25 -30 -13 -35 19 -7
47 3 39 15 -9 15 30 58 54 59 17 0 22 -6 22 -25 0 -13 -8 -29 -17 -34 -14 -8
-6 -10 32 -10 28 1 42 3 33 6 -20 5 -25 61 -9 91 13 25 17 105 6 108 -6 2 -35
-30 -65 -72z m23 -22 c-3 -12 -12 -22 -20 -22 -11 0 -10 5 4 24 21 28 24 28
16 -2z"/>
<path d="M3280 3424 c-9 -23 -14 -25 -55 -21 -25 2 -45 0 -45 -5 0 -4 18 -8
41 -8 l40 0 -18 -31 c-10 -17 -30 -41 -45 -52 -16 -11 -28 -24 -28 -29 0 -15
30 -8 50 12 19 19 19 19 22 -58 3 -82 21 -106 26 -34 l3 42 52 0 c77 0 102
-28 44 -49 -21 -8 -21 -8 2 -20 38 -21 49 1 52 101 3 90 -1 108 -23 90 -7 -6
-39 -10 -70 -10 -53 1 -56 2 -45 19 10 16 25 19 99 19 87 0 102 6 73 30 -13
10 -19 10 -33 -4 -12 -10 -36 -16 -66 -16 -46 0 -48 1 -42 25 9 35 -21 34 -34
-1z m105 -95 c10 -15 6 -16 -47 -21 -50 -5 -75 3 -64 21 9 14 103 14 111 0z
m9 -58 c9 -13 -19 -21 -75 -21 -37 0 -49 4 -49 15 0 12 13 15 59 15 33 0 62
-4 65 -9z"/>
<path d="M2885 3351 c0 -59 4 -86 13 -88 6 -3 12 0 12 6 0 6 7 11 15 11 23 0
-1 -33 -52 -71 -54 -41 -45 -59 10 -19 78 55 100 77 86 83 -8 3 12 6 43 6 37
1 58 -3 61 -11 9 -26 15 -1 20 82 l6 85 -107 0 -107 0 0 -84z m183 7 l3 -48
-55 -1 c-31 -1 -66 -2 -78 -2 -20 -1 -23 4 -26 45 -4 54 1 57 93 55 l60 -2 3
-47z"/>
<path d="M4025 3430 c-50 -3 -77 -7 -60 -10 28 -5 30 -8 33 -54 4 -61 -19
-126 -58 -163 -27 -25 -31 -43 -10 -43 16 0 63 71 81 123 10 29 18 43 19 33 0
-11 11 -34 25 -52 l25 -32 -46 -26 c-26 -14 -50 -26 -55 -26 -5 0 -9 -4 -9
-10 0 -17 30 -11 79 16 l47 27 46 -27 c50 -29 68 -32 68 -12 0 8 -20 23 -45
35 l-45 21 35 56 c20 30 33 59 31 63 -3 4 -20 6 -37 3 -30 -4 -32 -3 -25 19
18 56 18 69 5 67 -8 -1 -54 -4 -104 -8z m75 -45 c0 -34 -1 -35 -38 -35 -33 0
-38 3 -37 23 0 34 13 47 46 47 27 0 29 -3 29 -35z m40 -67 c0 -7 -11 -26 -24
-43 l-24 -29 -21 34 c-11 19 -21 38 -21 43 0 4 20 7 45 7 29 0 45 -4 45 -12z"/>
<path d="M2046 3396 c-8 -19 -25 -63 -37 -96 -12 -34 -28 -64 -36 -67 -20 -8
-16 -23 6 -23 31 0 55 12 41 20 -9 6 -9 13 -1 29 17 31 76 30 85 -1 3 -13 1
-25 -4 -26 -21 -7 3 -22 36 -22 37 0 41 5 20 29 -7 9 -23 45 -35 81 -41 121
-52 132 -75 76z m34 -82 c0 -16 -26 -19 -34 -5 -4 5 -3 16 0 25 5 13 9 14 20
5 8 -6 14 -18 14 -25z"/>
<path d="M3688 3398 c18 -18 16 -142 -3 -158 -25 -21 -17 -30 28 -30 37 1 40
2 25 14 -14 10 -18 28 -18 80 0 37 5 76 10 87 10 17 7 19 -22 19 -25 0 -29 -3
-20 -12z"/>
<path d="M4438 3329 c2 -49 -1 -86 -7 -92 -20 -20 -11 -27 32 -27 33 1 38 3
25 11 -15 8 -18 25 -18 94 0 57 4 85 13 88 6 3 -1 6 -18 6 l-30 1 3 -81z"/>
<path d="M4535 3310 l0 -100 34 0 c30 0 32 2 20 16 -9 11 -13 42 -11 100 2 81
1 84 -20 84 -22 0 -23 -3 -23 -100z"/>
<path d="M3020 3263 c0 -4 14 -17 30 -28 16 -11 30 -25 30 -31 0 -15 29 -39
36 -31 12 12 -6 55 -28 69 -30 20 -68 31 -68 21z"/>
<path d="M2200 3230 c0 -11 7 -20 15 -20 8 0 15 9 15 20 0 11 -7 20 -15 20 -8
0 -15 -9 -15 -20z"/>
<path d="M3280 2680 c-8 -15 -21 -20 -55 -20 -33 0 -45 -4 -45 -15 0 -10 11
-15 35 -15 19 0 35 -5 35 -10 0 -6 -18 -30 -40 -54 -22 -24 -40 -46 -40 -50 0
-15 23 -4 45 22 l24 27 1 -88 c0 -56 4 -86 10 -82 6 3 10 24 10 46 l0 39 65 0
c58 0 65 -2 65 -20 0 -15 -7 -20 -25 -20 -15 0 -25 -6 -25 -14 0 -17 47 -27
59 -12 5 6 11 51 12 100 l4 89 -74 -2 c-67 -2 -73 -1 -62 13 10 12 33 16 98
16 75 0 84 2 81 17 -3 15 -14 17 -83 14 -68 -2 -77 -1 -67 11 11 14 7 28 -9
28 -5 0 -13 -9 -19 -20z m107 -116 c3 -8 -12 -13 -39 -15 -61 -5 -88 0 -88 17
0 12 13 14 62 12 35 -2 63 -8 65 -14z m-39 -44 c31 0 43 -3 36 -10 -11 -11
-111 -17 -120 -7 -11 10 8 28 23 23 8 -3 35 -6 61 -6z"/>
<path d="M2880 2593 c0 -45 4 -84 9 -87 5 -4 11 -1 13 5 2 7 11 10 19 7 10 -4
-2 -20 -41 -57 -31 -30 -48 -51 -38 -51 23 0 128 83 123 98 -3 9 11 12 49 12
35 0 56 -5 59 -12 9 -26 15 -1 19 82 l4 85 -108 0 -108 0 0 -82z m185 7 l0
-45 -76 -3 -77 -3 -4 41 c-2 22 1 45 7 51 5 5 41 8 80 7 l70 -3 0 -45z"/>
<path d="M3970 2669 l-35 -6 34 -2 34 -1 -6 -60 c-8 -72 -29 -125 -63 -161
-14 -15 -21 -29 -16 -33 21 -13 92 91 92 135 0 18 2 19 15 9 9 -7 13 -15 11
-18 -3 -2 4 -16 14 -30 24 -30 18 -39 -45 -71 -25 -12 -45 -25 -45 -28 0 -11
63 7 90 27 35 25 45 25 80 0 37 -27 73 -30 78 -7 2 10 -3 17 -13 17 -8 0 -31
7 -51 15 l-35 14 40 55 c22 29 37 56 34 60 -4 3 -21 6 -40 6 l-33 0 15 37 c8
20 13 38 10 41 -7 8 -124 8 -165 1z m130 -28 c0 -38 -11 -51 -46 -51 -31 0
-34 3 -34 28 0 37 6 42 47 42 26 0 33 -4 33 -19z m30 -86 c0 -19 -29 -65 -41
-65 -9 0 -39 53 -39 70 0 5 18 10 40 10 29 0 40 -4 40 -15z"/>
<path d="M1970 2661 c0 -6 5 -13 10 -16 6 -3 10 -42 10 -85 0 -65 -3 -81 -17
-89 -16 -9 -15 -11 7 -12 56 -3 136 4 148 13 15 13 16 52 2 79 -7 12 -7 25 -1
36 10 19 -2 50 -28 70 -19 14 -131 17 -131 4z m103 -25 c9 -7 17 -23 17 -35 0
-17 -6 -21 -35 -21 -28 0 -35 4 -35 19 0 48 20 62 53 37z m5 -92 c15 -10 22
-24 20 -37 -2 -18 -10 -22 -38 -22 -33 0 -35 2 -38 38 -3 30 0 37 15 37 10 0
29 -7 41 -16z"/>
<path d="M3681 2565 c1 -74 -2 -99 -12 -106 -9 -6 1 -9 30 -9 37 0 42 2 32 14
-8 9 -11 46 -10 103 2 84 1 88 -20 91 -22 3 -22 1 -20 -93z"/>
<path d="M4629 2647 c14 -14 15 -177 1 -177 -5 0 -10 -4 -10 -10 0 -5 18 -10
39 -10 40 0 40 0 26 26 -16 31 -9 164 9 176 5 4 -9 7 -33 6 -30 0 -40 -3 -32
-11z"/>
<path d="M4430 2566 c0 -46 -3 -91 -6 -100 -5 -13 1 -16 32 -16 30 0 35 3 26
12 -8 8 -12 45 -12 100 0 81 -2 88 -20 88 -18 0 -20 -7 -20 -84z"/>
<path d="M4534 2565 c-1 -52 -6 -90 -14 -100 -11 -13 -7 -15 29 -15 22 0 41 5
41 10 0 6 -5 10 -11 10 -7 0 -9 31 -7 90 3 85 2 90 -17 90 -19 0 -20 -7 -21
-85z"/>
<path d="M3052 2463 c54 -58 62 -63 66 -40 5 22 -21 52 -61 72 -50 25 -52 17
-5 -32z"/>
<path d="M2180 2480 c-11 -7 -12 -12 -3 -21 15 -15 43 -5 43 16 0 17 -18 19
-40 5z"/>
<path d="M3269 1917 c-14 -19 -24 -22 -59 -19 -33 3 -41 1 -38 -9 3 -9 17 -13
41 -11 23 2 37 -1 37 -8 0 -6 -21 -33 -47 -61 -49 -53 -52 -81 -3 -34 l29 28
3 -84 c3 -87 21 -116 26 -43 l3 41 55 -1 c49 -1 54 -3 54 -23 0 -23 -18 -27
-32 -8 -5 6 -8 6 -8 -1 0 -7 12 -19 26 -29 41 -26 52 -6 55 100 l3 90 -77 -4
c-67 -3 -76 -1 -71 13 8 21 28 26 111 24 75 -2 95 4 76 23 -8 8 -21 8 -40 2
-24 -8 -45 -9 -101 -4 -9 1 -11 8 -7 21 9 28 -16 26 -36 -3z m101 -109 c0 -9
-18 -13 -55 -13 -37 0 -55 4 -55 13 0 8 18 12 55 12 37 0 55 -4 55 -12z m-63
-37 c9 9 13 8 13 0 0 -8 5 -9 19 -1 27 14 31 13 31 -10 0 -18 -7 -20 -55 -20
-39 0 -55 4 -55 13 0 20 12 29 24 17 6 -6 14 -6 23 1z"/>
<path d="M4128 1923 c-49 -2 -88 -8 -88 -13 0 -6 11 -10 25 -10 24 0 25 -3 25
-60 0 -69 -19 -122 -57 -162 -19 -20 -22 -28 -12 -28 27 0 67 54 82 110 9 30
16 49 16 42 1 -7 13 -30 27 -52 15 -22 25 -42 23 -44 -2 -2 -25 -15 -51 -29
-30 -16 -42 -27 -33 -30 7 -3 15 -3 17 1 2 4 22 15 45 24 41 16 45 15 93 -5
39 -16 53 -18 62 -9 9 9 8 12 -6 12 -10 0 -34 9 -52 21 l-34 21 20 25 c11 14
20 31 20 37 0 6 9 17 21 24 20 13 20 14 3 26 -9 7 -26 11 -36 8 -14 -3 -18 1
-18 19 0 13 4 30 9 38 9 15 4 43 -8 39 -3 -1 -45 -4 -93 -5z m72 -35 c-1 -43
-13 -58 -46 -58 -32 0 -34 2 -34 35 0 34 1 35 40 35 25 0 40 -5 40 -12z m30
-88 c0 -6 -7 -25 -16 -42 l-17 -32 -28 32 c-16 18 -29 37 -29 42 0 6 20 10 45
10 25 0 45 -5 45 -10z"/>
<path d="M2880 1833 c0 -49 4 -83 10 -83 6 0 10 7 10 15 0 12 13 15 55 15 48
0 55 -2 55 -20 0 -21 33 -60 50 -60 6 0 10 -5 10 -10 0 -6 9 -20 20 -32 l20
-22 0 25 c0 30 -26 62 -65 82 -26 14 -28 16 -11 23 11 4 21 2 26 -6 16 -26 25
1 25 75 l0 77 -103 2 -102 1 0 -82z m167 52 c8 -3 12 -20 11 -45 l-1 -40 -79
0 -78 0 0 49 0 49 68 -5 c37 -2 73 -6 79 -8z"/>
<path d="M1992 1887 c-12 -13 -22 -32 -22 -43 0 -11 -5 -25 -11 -31 -7 -7 -7
-17 -1 -29 5 -11 15 -31 22 -45 13 -29 48 -49 84 -49 29 0 76 36 76 57 0 14
-4 12 -23 -5 -35 -33 -83 -30 -102 8 -19 36 -19 61 -1 105 13 29 20 35 45 35
22 0 35 -7 47 -25 23 -35 34 -31 31 10 l-2 35 -61 0 c-50 0 -64 -4 -82 -23z"/>
<path d="M3655 1900 c-3 -4 2 -10 10 -14 20 -7 21 -130 1 -168 l-15 -28 47 0
c41 1 45 2 30 14 -24 18 -26 157 -3 176 8 7 15 16 15 20 0 10 -78 11 -85 0z"/>
<path d="M3760 1900 c0 -5 5 -10 10 -10 6 0 10 -37 10 -90 0 -53 -4 -90 -10
-90 -5 0 -10 -4 -10 -10 0 -5 19 -10 42 -10 33 0 39 3 30 12 -19 19 -16 177 3
184 8 4 12 10 9 15 -7 12 -84 11 -84 -1z"/>
<path d="M4510 1898 c0 -4 5 -8 10 -8 6 0 10 -37 10 -90 0 -74 -3 -91 -17 -99
-14 -8 -7 -10 32 -11 38 0 46 3 37 12 -15 15 -17 188 -2 188 6 0 10 4 10 10 0
5 -18 9 -40 8 -22 -1 -40 -5 -40 -10z"/>
<path d="M4610 1900 c0 -5 5 -10 10 -10 15 0 13 -173 -2 -188 -9 -9 10 -12 86
-12 89 0 97 1 85 16 -15 18 -14 177 2 182 23 9 5 19 -31 19 -22 0 -40 -4 -40
-9 0 -4 5 -8 10 -8 14 0 13 -177 -1 -185 -5 -4 -21 -4 -35 -1 -23 6 -24 9 -24
96 0 53 4 90 10 90 6 0 10 5 10 10 0 6 -18 10 -40 10 -22 0 -40 -4 -40 -10z"/>
<path d="M2913 1738 c-10 -13 -35 -37 -55 -55 -43 -36 -35 -54 8 -21 43 32 94
81 94 90 0 16 -29 7 -47 -14z"/>
<path d="M2162 1713 c2 -10 12 -18 23 -18 11 0 21 8 23 18 3 13 -3 17 -23 17
-20 0 -26 -4 -23 -17z"/>
<path d="M3932 1162 c-56 -2 -90 -7 -87 -12 4 -6 17 -10 31 -10 22 0 24 -4 24
-47 0 -64 -16 -116 -45 -152 -36 -42 -31 -61 6 -24 17 17 39 54 49 82 l17 51
26 -49 25 -49 -48 -21 c-27 -12 -52 -26 -55 -31 -12 -19 33 -10 79 16 l47 26
40 -27 c22 -14 48 -25 57 -23 30 6 18 32 -18 43 -58 17 -64 24 -43 49 32 35
54 76 48 86 -4 6 -17 7 -30 4 -30 -7 -37 6 -20 39 22 43 4 52 -103 49z m74
-38 c-3 -9 -6 -24 -6 -33 0 -16 -6 -18 -51 -12 -11 2 -19 30 -13 46 4 9 19 15
41 15 28 0 34 -3 29 -16z m32 -79 c6 -6 -29 -65 -38 -65 -11 0 -50 54 -50 69
0 8 14 9 43 5 23 -4 43 -8 45 -9z"/>
<path d="M1956 1151 c-3 -5 1 -11 9 -15 12 -4 15 -24 15 -87 0 -72 -2 -81 -20
-86 -11 -3 -20 -10 -20 -16 0 -6 29 -8 81 -4 103 7 129 27 129 97 0 65 -17 96
-61 109 -44 13 -126 14 -133 2z m121 -26 c12 -8 26 -30 33 -49 19 -59 -14
-106 -74 -106 -26 0 -26 1 -26 78 0 43 3 82 7 85 11 11 37 8 60 -8z"/>
<path d="M3481 1128 c13 -24 11 -162 -2 -175 -14 -14 22 -27 52 -18 15 5 18
10 9 20 -7 9 -10 46 -8 99 2 48 1 86 -2 87 -3 0 -17 2 -32 3 -22 1 -25 -1 -17
-16z"/>
<path d="M3567 1138 c2 -5 11 -8 19 -8 11 0 14 -18 14 -85 0 -79 -2 -86 -22
-94 -20 -7 -19 -9 14 -15 19 -3 43 -4 52 0 15 6 15 8 -2 23 -26 23 -27 125 -3
160 l19 26 -48 0 c-27 0 -46 -3 -43 -7z"/>
<path d="M4320 1140 c0 -5 5 -10 10 -10 6 0 10 -35 10 -85 0 -69 -3 -86 -17
-94 -10 -6 -16 -11 -13 -11 40 -9 59 -10 80 -4 23 6 23 7 6 13 -16 6 -20 19
-23 76 -2 48 2 75 12 92 21 31 20 33 -25 33 -22 0 -40 -4 -40 -10z"/>
<path d="M4420 1140 c0 -5 5 -10 10 -10 6 0 10 -37 10 -90 0 -53 -4 -90 -10
-90 -5 0 -10 -4 -10 -10 0 -5 20 -10 45 -10 25 0 45 5 45 10 0 6 -7 10 -15 10
-16 0 -17 3 -16 100 0 46 4 68 15 76 9 6 13 14 9 17 -10 11 -83 8 -83 -3z"/>
<path d="M4533 1132 c23 -25 24 -154 2 -176 -13 -13 -13 -15 5 -21 11 -4 35
-3 53 1 30 6 31 7 10 15 -21 8 -23 15 -23 81 0 50 5 81 16 96 15 22 15 22 -32
22 -45 0 -46 -1 -31 -18z"/>
<path d="M2847 1129 c13 -13 6 -157 -9 -175 -10 -14 23 -25 52 -17 16 4 18 9
9 19 -6 8 -9 46 -7 98 l3 86 -29 0 c-22 0 -27 -3 -19 -11z"/>
<path d="M8342 1084 c-33 -23 -72 -89 -72 -122 0 -31 42 -82 66 -82 19 0 18 6
-7 39 -16 22 -19 36 -13 67 8 44 64 107 90 102 50 -10 46 -105 -6 -157 -32
-31 -30 -47 4 -29 66 35 95 136 54 185 -15 18 -89 16 -116 -3z"/>
<path d="M3110 1062 c0 -5 13 -21 30 -37 27 -26 30 -27 36 -10 5 12 0 24 -15
37 -24 19 -51 24 -51 10z"/>
<path d="M13220 1025 c0 -7 6 -18 13 -22 22 -13 26 -39 10 -63 -8 -12 -21 -19
-29 -16 -20 8 -25 -9 -9 -30 14 -18 15 -18 39 11 20 24 25 26 26 12 0 -23 26
-33 45 -17 22 19 19 39 -6 33 -18 -5 -20 -2 -17 28 2 26 8 34 23 34 22 0 39
20 30 35 -9 15 -26 12 -47 -6 -16 -16 -18 -16 -24 0 -8 20 -54 22 -54 1z"/>
<path d="M2190 960 c0 -11 7 -20 15 -20 8 0 15 9 15 20 0 11 -7 20 -15 20 -8
0 -15 -9 -15 -20z"/>
</g>
</svg>
