<?xml version="1.0" standalone="no"?>
<!DOCTYPE svg PUBLIC "-//W3C//DTD SVG 20010904//EN"
 "http://www.w3.org/TR/2001/REC-SVG-20010904/DTD/svg10.dtd">
<svg version="1.0" xmlns="http://www.w3.org/2000/svg"
 width="1479.000000pt" height="695.000000pt" viewBox="0 0 1479.000000 695.000000"
 preserveAspectRatio="xMidYMid meet">
<metadata>
Created by potrace 1.16, written by Peter Selinger 2001-2019
</metadata>
<g transform="translate(0.000000,695.000000) scale(0.100000,-0.100000)"
fill="#000000" stroke="none">
<path d="M1824 6692 c-11 -34 -22 -47 -38 -44 -13 2 -16 -9 -17 -70 -2 -129 3
-159 22 -125 11 18 59 24 59 7 0 -5 7 -10 15 -10 12 0 15 13 15 59 0 40 5 62
15 71 9 7 17 11 18 9 2 -2 12 -21 22 -41 23 -44 35 -48 35 -13 0 15 -9 31 -24
41 -37 23 -23 44 30 44 l44 0 -5 -70 c-4 -72 -19 -105 -44 -105 -20 0 -25 -21
-6 -28 42 -17 66 25 75 132 4 48 5 89 3 93 -2 4 -25 5 -50 1 l-46 -6 6 31 c11
53 -20 40 -35 -15 -15 -52 -38 -70 -38 -28 0 22 -3 25 -20 20 -14 -4 -20 -2
-20 9 0 8 5 18 10 21 15 9 12 22 -5 29 -10 3 -18 -1 -21 -12z m29 -84 c8 -24
-5 -38 -34 -38 -24 0 -29 4 -29 25 0 21 5 25 29 25 16 0 31 -6 34 -12z m-3
-93 c0 -36 -10 -42 -44 -29 -16 6 -22 45 -9 57 3 4 17 7 30 7 20 0 23 -5 23
-35z"/>
<path d="M5833 6678 c-7 -26 -14 -32 -31 -31 -21 3 -22 0 -22 -102 0 -96 9
-129 24 -90 6 17 51 20 61 5 15 -25 25 -5 25 49 0 74 17 85 59 35 20 -25 31
-32 36 -23 5 8 -5 24 -28 45 -41 38 -36 48 29 58 l42 6 -4 -68 c-3 -37 -10
-79 -16 -94 -10 -28 -31 -37 -43 -18 -3 6 -10 10 -16 10 -18 0 -8 -16 22 -34
29 -17 31 -17 50 0 11 10 19 30 19 49 0 17 3 34 6 38 4 3 8 35 9 71 l3 65 -49
-6 c-40 -5 -49 -3 -49 10 0 9 5 19 10 22 15 9 12 25 -4 25 -8 0 -27 -25 -41
-55 -15 -30 -29 -55 -32 -55 -2 0 -2 12 -1 28 3 23 0 27 -19 25 -25 -3 -31 15
-12 34 11 11 5 33 -10 33 -5 0 -12 -15 -18 -32z m37 -83 c0 -21 -5 -25 -30
-25 -25 0 -30 4 -30 25 0 21 5 25 30 25 25 0 30 -4 30 -25z m0 -74 c0 -35 -8
-42 -38 -34 -14 3 -22 13 -22 27 0 29 8 36 37 36 19 0 23 -5 23 -29z"/>
<path d="M11760 6692 c-79 -14 -87 -18 -108 -50 -25 -37 -23 -53 4 -31 16 13
17 9 12 -55 -4 -48 -12 -77 -28 -98 -24 -33 -22 -45 7 -29 10 5 26 12 36 15
11 3 17 15 17 33 0 26 -1 26 -15 7 -14 -18 -15 -18 -6 6 8 24 13 25 85 26 42
1 73 -2 70 -7 -7 -13 5 -49 17 -49 5 0 8 12 7 26 -2 15 3 29 10 31 18 7 5 -48
-16 -64 -18 -15 -30 -9 -42 23 -12 31 -34 32 -24 2 3 -13 7 -23 8 -24 0 0 16
-11 33 -23 18 -12 37 -20 43 -16 13 8 41 105 34 117 -3 5 -13 7 -21 4 -12 -5
-14 -1 -10 20 3 20 0 28 -14 31 -14 4 -18 11 -14 24 5 16 1 19 -28 19 -23 0
-37 6 -41 16 -9 23 -9 22 27 26 27 2 35 -2 48 -26 9 -17 21 -32 27 -34 17 -5
15 23 -3 38 -8 6 -13 21 -12 32 3 27 -3 28 -103 10z m-6 -47 c4 -12 -3 -15
-36 -15 -35 0 -39 2 -28 15 7 8 23 15 35 15 13 0 25 -7 29 -15z m51 -45 c-3
-5 -31 -10 -61 -10 -30 0 -54 5 -54 10 0 6 27 10 61 10 37 0 58 -4 54 -10z
m35 -39 c0 -15 -10 -18 -82 -26 -64 -6 -68 -5 -68 14 0 19 6 21 75 21 41 0 75
-4 75 -9z"/>
<path d="M13845 6671 c-4 -20 -17 -55 -30 -78 -23 -41 -15 -61 10 -26 10 14
12 2 11 -68 -1 -111 18 -122 22 -11 3 79 4 82 27 82 23 0 24 -3 27 -72 l3 -73
83 -3 82 -3 0 41 c0 22 -4 40 -10 40 -5 0 -10 -9 -10 -19 0 -27 -16 -35 -77
-38 l-53 -3 0 75 c0 60 3 75 15 75 12 0 15 -13 15 -60 0 -47 3 -60 15 -60 8 0
15 7 15 15 0 18 12 19 28 3 21 -21 35 7 43 79 4 38 5 71 3 75 -3 4 -20 0 -40
-8 l-36 -15 4 38 c2 31 -1 38 -16 41 -16 4 -18 0 -13 -27 8 -37 0 -61 -19 -61
-8 0 -14 10 -14 24 0 41 -19 39 -22 -1 -2 -31 -7 -39 -25 -41 -18 -3 -23 1
-23 20 1 13 7 34 15 48 19 33 18 37 -4 43 -16 4 -20 -2 -26 -32z m191 -137
c-4 -15 -14 -24 -26 -24 -17 0 -20 7 -20 49 0 44 3 50 23 53 18 2 23 -2 25
-26 2 -16 1 -39 -2 -52z"/>
<path d="M14170 6681 c0 -25 -5 -30 -27 -34 -27 -4 -27 -4 -5 -12 19 -6 22
-14 22 -59 -1 -28 -7 -69 -15 -91 -18 -49 -19 -63 -3 -47 8 8 18 7 39 -5 27
-16 29 -16 44 2 9 12 14 43 15 77 0 43 3 56 13 52 7 -2 25 15 41 41 16 25 32
45 35 45 3 0 16 -18 29 -40 14 -25 30 -40 42 -40 28 0 25 11 -14 50 -19 18
-36 42 -38 54 -6 39 -32 22 -62 -39 -16 -33 -31 -54 -33 -47 -3 9 -16 11 -39
6 -19 -3 -34 -2 -34 2 0 20 17 32 45 36 33 3 33 23 0 23 -14 1 -19 7 -18 20 1
18 -12 34 -29 35 -5 0 -8 -13 -8 -29z m48 -144 c2 -21 -2 -51 -9 -66 -11 -24
-16 -27 -30 -18 -13 8 -15 16 -8 34 5 14 9 40 9 59 0 28 4 35 18 32 12 -2 18
-14 20 -41z"/>
<path d="M1355 6690 c-4 -6 -57 -10 -126 -10 -73 0 -119 -4 -119 -10 0 -6 27
-10 60 -10 l60 0 0 -119 c0 -69 4 -122 10 -126 6 -4 10 10 10 34 0 23 5 41 11
41 5 0 8 3 6 8 -3 4 -2 27 2 52 l6 45 28 -27 c30 -30 47 -35 47 -15 0 14 -52
57 -70 57 -5 0 -10 11 -10 25 0 24 3 25 58 25 64 0 78 6 61 27 -14 16 -26 17
-34 3z"/>
<path d="M1562 6692 c-83 -1 -131 -6 -127 -12 3 -6 31 -10 61 -10 55 0 64 -8
45 -39 -6 -9 -19 -12 -40 -8 -28 6 -31 4 -32 -21 -1 -15 -4 -38 -6 -52 -10
-55 -8 -122 4 -132 9 -7 14 -6 19 6 9 25 179 24 188 -1 13 -34 26 9 25 82 -1
39 2 82 6 97 l7 27 -77 -6 -77 -6 17 26 c16 25 23 27 82 27 45 0 63 4 61 12
-5 15 3 14 -156 10z m-42 -162 c0 -56 -3 -70 -15 -70 -12 0 -15 14 -15 70 0
56 3 70 15 70 12 0 15 -14 15 -70z m90 61 c0 -16 -19 -23 -40 -16 -30 10 -24
25 10 25 17 0 30 -4 30 -9z m65 -63 c2 -65 1 -68 -22 -68 -22 0 -23 3 -23 71
0 67 1 70 22 67 20 -3 22 -9 23 -70z m-71 16 c9 -22 -1 -34 -30 -34 -19 0 -24
5 -24 25 0 20 5 25 24 25 13 0 27 -7 30 -16z m-1 -50 c12 -12 -6 -34 -29 -34
-17 0 -24 6 -24 20 0 14 7 20 23 20 13 0 26 -3 30 -6z"/>
<path d="M2100 6620 c0 -42 5 -81 11 -87 8 -8 8 -13 0 -17 -15 -9 -14 -93 1
-102 6 -4 17 1 23 10 7 9 19 15 26 14 8 -2 13 2 12 8 -1 7 9 15 22 18 14 4 25
11 25 16 0 6 9 10 20 10 11 0 20 -4 20 -9 0 -5 9 -13 20 -16 34 -11 22 -24
-16 -19 -32 4 -35 2 -24 -11 14 -17 60 -21 60 -5 0 16 30 12 36 -5 5 -12 10
-13 20 -4 11 9 14 43 14 143 l0 131 -135 0 -135 0 0 -75z m66 -50 c-1 -72 -4
-100 -13 -100 -10 0 -13 27 -13 100 0 79 3 100 14 100 11 0 13 -21 12 -100z
m101 80 c-1 -15 -8 -20 -32 -20 -24 0 -31 4 -31 20 0 16 7 20 33 20 26 0 31
-4 30 -20z m71 -93 c2 -71 -1 -107 -8 -107 -15 0 -18 13 -24 123 -5 90 -4 98
12 95 15 -3 17 -18 20 -111z m-75 46 c-13 -2 -35 -2 -50 0 -16 2 -5 4 22 4 28
0 40 -2 28 -4z m-5 -30 c-16 -2 -40 -2 -55 0 -16 2 -3 4 27 4 30 0 43 -2 28
-4z m22 -23 c0 -5 -22 -10 -50 -10 -27 0 -50 5 -50 10 0 6 23 10 50 10 28 0
50 -4 50 -10z m-22 -37 c-16 -2 -40 -2 -55 0 -16 2 -3 4 27 4 30 0 43 -2 28
-4z"/>
<path d="M2553 6689 c-7 -7 -35 -10 -72 -7 -64 5 -76 -1 -38 -17 15 -7 23 -20
25 -42 3 -30 1 -33 -22 -33 -14 0 -26 -4 -26 -10 0 -5 12 -10 26 -10 25 0 25
-2 19 -42 -4 -24 -16 -57 -26 -75 -12 -19 -16 -34 -10 -37 16 -10 61 77 61
117 0 26 4 37 15 37 11 0 15 -18 17 -77 3 -71 5 -77 26 -78 25 -2 68 25 127
79 32 29 37 39 25 46 -15 10 -30 4 -30 -11 0 -12 -63 -69 -96 -87 -30 -16 -35
-6 -32 67 3 56 5 61 26 61 29 0 28 18 -3 30 -18 7 -23 15 -20 32 3 13 12 28
20 34 16 12 21 34 7 34 -4 0 -13 -5 -19 -11z m-33 -65 c0 -24 -5 -34 -15 -34
-11 0 -15 11 -15 40 0 31 3 38 15 34 9 -4 15 -19 15 -40z"/>
<path d="M2648 6686 c-10 -7 -18 -18 -18 -24 0 -5 -15 -19 -32 -31 -30 -19
-31 -21 -10 -21 29 0 101 65 87 79 -7 6 -16 5 -27 -3z"/>
<path d="M2764 6685 c-2 -5 -2 -68 -1 -140 2 -110 4 -129 17 -126 23 6 199 3
220 -4 10 -3 21 -2 23 2 3 5 7 69 8 142 l2 133 -133 2 c-81 0 -134 -3 -136 -9z
m76 -34 c0 -30 -11 -51 -26 -51 -9 0 -14 12 -14 35 0 28 4 35 20 35 13 0 20
-7 20 -19z m90 9 c0 -5 -13 -10 -29 -10 -17 0 -33 5 -36 10 -4 6 8 10 29 10
20 0 36 -4 36 -10z m70 -11 c7 -13 9 -52 6 -106 -6 -90 -11 -107 -28 -97 -12
8 -7 126 6 135 12 9 -3 31 -18 26 -8 -3 -12 7 -12 29 0 26 4 34 18 34 9 0 22
-9 28 -21z m-70 -19 c0 -5 -17 -9 -37 -9 -38 1 -38 1 -8 9 43 11 45 11 45 0z
m-111 -115 c-2 -47 -6 -65 -16 -65 -7 0 -14 5 -14 10 -6 46 8 120 23 120 5 0
8 -29 7 -65z m109 58 c-15 -2 -42 -2 -60 0 -18 2 -6 4 27 4 33 0 48 -2 33 -4z
m-81 -75 c-2 -13 -4 -5 -4 17 -1 22 1 32 4 23 2 -10 2 -28 0 -40z m96 -9 c-5
-5 -7 7 -4 29 5 34 6 35 9 8 2 -16 0 -32 -5 -37z m-33 22 c0 -5 -9 -7 -20 -4
-11 3 -20 7 -20 9 0 2 9 4 20 4 11 0 20 -4 20 -9z m-7 -28 c-7 -2 -19 -2 -25
0 -7 3 -2 5 12 5 14 0 19 -2 13 -5z m47 -30 c0 -12 -99 -13 -105 -2 -4 5 18 9
49 9 31 0 56 -3 56 -7z"/>
<path d="M3161 6692 l-53 -3 4 -60 c3 -45 1 -59 -9 -59 -11 0 -11 -6 1 -29 14
-27 14 -29 -4 -34 -24 -6 -27 -27 -3 -27 15 0 15 -1 0 -18 -18 -20 -22 -42 -9
-42 14 0 32 23 32 41 0 10 3 20 8 22 4 3 7 -9 7 -25 0 -36 25 -52 26 -16 l0
23 9 -22 c14 -35 23 -27 17 12 -5 32 -3 35 17 35 31 0 54 -26 38 -42 -9 -9
-12 -7 -12 10 0 16 -6 22 -22 22 -17 0 -19 -3 -10 -12 7 -7 12 -22 12 -35 0
-28 23 -30 49 -4 10 10 25 21 32 24 12 5 11 7 -1 16 -12 9 -10 11 12 11 20 0
26 -4 22 -15 -4 -8 -1 -15 4 -15 6 0 14 -9 17 -20 3 -11 13 -20 21 -20 18 0
19 39 1 46 -8 3 -12 18 -10 37 1 18 4 58 6 90 l4 57 -30 0 c-37 0 -31 23 9 30
16 3 27 9 24 14 -5 9 -114 13 -209 8z m119 -38 c0 -8 -8 -14 -18 -14 -15 0
-19 -8 -20 -36 -2 -43 -8 -52 -24 -36 -10 10 -10 17 0 32 6 11 12 33 12 48 0
26 3 29 25 24 14 -2 25 -11 25 -18z m-80 6 c0 -5 -16 -10 -35 -10 -19 0 -35 5
-35 10 0 6 16 10 35 10 19 0 35 -4 35 -10z m-12 -37 c-10 -2 -28 -2 -40 0 -13
2 -5 4 17 4 22 1 32 -1 23 -4z m152 -18 c0 -10 -11 -15 -35 -15 -24 0 -35 5
-35 15 0 10 11 15 35 15 24 0 35 -5 35 -15z m-160 -29 c-5 -13 -6 -34 -3 -46
4 -17 2 -21 -8 -18 -8 3 -13 14 -11 26 2 12 -2 30 -8 42 -9 18 -8 20 14 20 23
0 25 -3 16 -24z m148 -15 c-2 -9 -15 -17 -31 -19 -21 -3 -27 1 -27 15 0 13 8
18 30 19 23 1 30 -3 28 -15z m-123 -1 c3 -5 1 -10 -4 -10 -6 0 -11 5 -11 10 0
6 2 10 4 10 3 0 8 -4 11 -10z m35 -33 c0 -7 -9 -13 -21 -14 -17 -2 -18 1 -9
13 15 17 30 18 30 1z m94 -21 c-7 -19 -64 -18 -64 1 0 8 12 13 35 13 26 0 33
-4 29 -14z"/>
<path d="M3801 6663 c-6 -21 -20 -53 -31 -72 -22 -35 -20 -52 4 -32 12 10 14
0 13 -68 -2 -77 -3 -81 -25 -81 -13 0 -20 -4 -17 -10 4 -6 130 -10 346 -10
219 0 339 4 339 10 0 6 -18 10 -39 10 -38 0 -39 1 -32 28 4 15 8 70 10 122 1
52 4 103 7 113 3 9 1 17 -5 18 -6 0 -37 0 -68 1 l-58 0 -1 -33 c-4 -156 -1
-145 -46 -198 l-43 -50 -97 0 -98 -1 0 25 c0 23 4 25 46 25 32 0 44 4 41 13
-2 8 -18 11 -45 9 -26 -2 -42 1 -42 7 0 6 16 11 35 11 34 0 46 12 25 25 -5 3
-10 22 -10 41 l0 34 -70 0 -70 0 0 -36 c0 -27 -5 -37 -20 -41 -11 -3 -20 -9
-20 -14 0 -5 9 -9 20 -9 11 0 20 -4 20 -10 0 -5 -11 -10 -25 -10 -14 0 -25 -6
-25 -13 0 -10 14 -13 55 -9 54 4 55 4 55 -22 0 -25 -2 -26 -60 -26 l-60 0 0
103 0 102 121 -3 c97 -3 120 -1 116 10 -2 7 -14 12 -26 11 -15 -2 -21 3 -21
17 0 21 -16 35 -24 21 -9 -15 -45 -1 -39 15 3 9 -2 14 -16 14 -13 0 -21 -6
-21 -16 0 -12 -7 -15 -30 -12 -16 3 -30 1 -30 -3 0 -4 10 -9 22 -11 39 -6 33
-28 -7 -28 -39 0 -40 4 -20 53 5 12 2 17 -9 17 -9 0 -19 -14 -25 -37z m539
-21 c0 -26 -4 -29 -35 -30 -32 -1 -35 1 -35 28 0 28 3 30 35 30 32 0 35 -3 35
-28z m-380 3 c0 -8 -9 -15 -20 -15 -11 0 -20 7 -20 15 0 8 9 15 20 15 11 0 20
-7 20 -15z m380 -79 c0 -32 -1 -33 -32 -27 -26 5 -34 12 -36 34 -3 25 -1 27
32 27 34 0 36 -2 36 -34z m-360 4 c0 -10 -4 -12 -57 -14 -21 0 -33 4 -33 12 0
8 16 12 45 12 25 0 45 -4 45 -10z m-40 -42 c0 -5 -13 -8 -30 -8 -16 0 -30 3
-30 8 0 4 14 7 30 7 17 0 30 -3 30 -7z m55 2 c3 -6 -4 -10 -17 -10 -18 0 -20
2 -8 10 19 12 18 12 25 0z m345 -40 c0 -25 -4 -30 -24 -30 -14 0 -28 -4 -31
-10 -3 -5 0 -10 8 -10 8 0 20 -7 27 -15 11 -13 3 -15 -59 -15 -39 0 -71 3 -71
8 0 4 13 20 29 35 17 15 33 36 36 47 5 16 15 20 46 20 37 0 39 -2 39 -30z
m-400 0 c0 -5 -12 -10 -26 -10 -14 0 -23 4 -19 10 3 6 15 10 26 10 10 0 19 -4
19 -10z"/>
<path d="M4110 6697 c-1 -1 -2 -48 -3 -104 -2 -77 1 -103 10 -103 7 0 13 5 13
11 0 6 15 9 34 8 19 -2 37 -1 40 1 2 3 5 43 7 90 3 85 3 85 -21 82 -13 -1 -37
2 -52 7 -15 6 -28 9 -28 8z m75 -47 c9 -27 -1 -40 -31 -40 -20 0 -24 5 -24 30
0 25 4 30 24 30 16 0 27 -7 31 -20z m3 -87 c-2 -22 -9 -29 -30 -31 -25 -3 -28
0 -28 27 0 28 3 31 31 31 27 0 30 -3 27 -27z"/>
<path d="M4468 6673 c-2 -20 -8 -27 -20 -25 -10 2 -18 -2 -18 -8 0 -5 7 -10
15 -10 20 0 20 -79 0 -145 -8 -27 -13 -51 -10 -53 9 -10 38 53 43 94 4 34 8
44 21 42 11 -2 17 -16 19 -42 4 -46 -15 -89 -36 -81 -10 4 -12 0 -8 -11 3 -8
6 -18 6 -20 0 -2 6 -4 14 -4 22 0 46 46 46 89 0 31 6 46 27 66 17 15 29 21 32
14 4 -14 63 -68 74 -69 4 0 7 7 7 15 0 8 -3 15 -7 15 -5 1 -23 13 -41 29 -30
26 -32 30 -21 55 11 24 29 36 29 18 0 -4 14 -25 31 -45 22 -27 35 -35 42 -28
8 8 2 20 -20 43 -18 18 -36 45 -42 61 -15 39 -28 34 -52 -23 -21 -49 -49 -84
-49 -61 0 6 -11 8 -30 5 -26 -6 -30 -4 -30 15 0 18 6 21 42 21 39 0 41 1 26
17 -14 13 -20 14 -32 4 -18 -15 -30 1 -21 29 5 15 2 20 -14 20 -14 0 -21 -8
-23 -27z"/>
<path d="M4850 6686 c0 -15 -21 -21 -62 -17 -10 1 -18 -4 -18 -12 0 -9 12 -13
38 -13 l37 1 3 -48 c3 -46 4 -49 28 -43 17 5 24 2 24 -9 0 -12 -14 -15 -65
-15 -37 0 -65 -4 -65 -10 0 -5 23 -10 52 -10 50 0 51 0 33 -20 -10 -11 -23
-20 -30 -20 -13 0 -55 -33 -55 -44 0 -3 8 -2 18 4 9 5 28 14 42 20 14 5 35 17
48 26 22 16 22 16 22 -25 0 -22 5 -41 10 -41 9 0 14 34 13 77 -1 16 22 4 65
-36 38 -35 45 -37 62 -16 10 12 1 19 -52 44 l-63 29 58 1 c41 1 57 5 57 15 0
11 -14 13 -65 8 -57 -4 -65 -3 -65 12 0 14 6 16 30 11 l30 -7 0 50 0 49 40 -3
c43 -2 50 5 24 27 -9 8 -18 9 -22 3 -12 -16 -37 -10 -34 9 2 10 -3 17 -13 17
-8 0 -15 -7 -15 -15 0 -8 -7 -15 -15 -16 -51 -4 -60 -2 -60 11 0 8 -8 16 -17
18 -11 2 -18 -3 -18 -12z m98 -45 c7 0 10 -5 7 -11 -9 -15 -75 -13 -75 3 0 12
15 13 68 8z m12 -51 c0 -5 -18 -10 -40 -10 -22 0 -40 5 -40 10 0 6 18 10 40
10 22 0 40 -4 40 -10z"/>
<path d="M5149 6695 c-4 0 -7 -111 -2 -118 2 -4 11 -3 18 3 22 18 70 6 73 -18
3 -18 -2 -22 -22 -22 -14 0 -26 5 -26 10 0 6 5 10 10 10 6 0 10 5 10 10 0 21
-27 9 -51 -22 -54 -72 -53 -70 -33 -68 11 1 40 2 67 1 39 -1 47 -4 47 -20 0
-17 -8 -19 -67 -19 -41 0 -69 -4 -71 -11 -3 -8 38 -11 142 -11 115 0 146 3
146 13 0 21 -12 28 -26 16 -21 -17 -98 -7 -102 14 -3 14 4 17 43 17 33 0 45 4
42 13 -2 8 -18 11 -45 9 -26 -2 -42 1 -42 7 0 7 21 11 50 11 51 0 57 4 41 29
-6 9 -11 10 -15 2 -4 -6 -20 -11 -35 -11 -23 0 -30 5 -33 25 -5 22 -2 25 21
25 15 0 32 -5 39 -12 9 -9 12 -2 14 35 1 26 2 54 2 63 1 14 -46 19 -195 19z
m171 -40 c0 -12 -14 -15 -69 -15 -65 0 -90 8 -74 24 3 3 37 6 75 6 54 0 68 -3
68 -15z m0 -44 c0 -9 -137 -7 -147 3 -4 3 28 6 70 6 43 0 77 -4 77 -9z m-80
-101 c0 -5 -18 -10 -41 -10 -24 0 -38 4 -34 10 3 6 22 10 41 10 19 0 34 -4 34
-10z"/>
<path d="M5470 6675 c0 -17 -6 -25 -17 -25 -17 -1 -17 -1 0 -14 23 -18 25
-126 2 -126 -8 0 -15 -4 -15 -10 0 -5 14 -10 32 -10 l32 0 -32 -31 c-18 -17
-32 -35 -32 -41 0 -15 36 9 65 44 29 34 40 30 52 -24 3 -16 9 -28 14 -28 12 0
69 80 69 97 0 7 11 13 25 13 23 0 25 -4 25 -40 0 -38 -13 -54 -23 -27 -2 6 -8
8 -13 4 -5 -5 1 -17 15 -28 40 -33 49 -11 53 133 l3 126 -53 4 c-44 3 -52 0
-52 -14 0 -13 -8 -18 -26 -18 -21 0 -24 3 -15 13 12 15 5 27 -16 27 -7 0 -13
-11 -13 -25 0 -18 -5 -25 -19 -25 -23 0 -36 16 -21 25 15 9 2 25 -21 25 -14 0
-19 -7 -19 -25z m220 -34 c0 -25 -3 -28 -25 -23 -14 2 -25 8 -25 12 0 22 14
40 31 40 14 0 19 -7 19 -29z m-70 -65 c0 -62 0 -63 -25 -58 -23 4 -25 9 -25
57 0 53 3 58 43 64 4 0 7 -28 7 -63z m-70 44 c0 -5 -11 -10 -25 -10 -14 0 -25
5 -25 10 0 6 11 10 25 10 14 0 25 -4 25 -10z m140 -50 c0 -25 -4 -30 -25 -30
-20 0 -25 5 -25 23 0 28 7 37 32 37 13 0 18 -8 18 -30z m-140 5 c0 -9 -9 -15
-25 -15 -16 0 -25 6 -25 15 0 9 9 15 25 15 16 0 25 -6 25 -15z m0 -45 c0 -13
-7 -20 -19 -20 -22 0 -35 15 -26 30 12 19 45 11 45 -10z m50 -55 c-10 -12 -16
-13 -26 -4 -20 16 -18 19 12 19 22 0 25 -2 14 -15z"/>
<path d="M6238 6673 c-3 -26 -4 -27 -65 -24 -40 1 -63 -2 -63 -8 0 -7 25 -11
65 -11 58 0 65 -2 65 -20 0 -17 -7 -20 -42 -20 -39 0 -40 -1 -25 -18 10 -10
17 -23 17 -29 0 -6 10 -22 21 -37 12 -15 20 -28 18 -29 -2 -2 -31 -16 -63 -32
-75 -37 -55 -46 23 -11 70 31 73 31 136 1 36 -17 53 -20 63 -13 9 8 6 14 -14
24 -14 8 -32 14 -38 14 -7 0 -20 6 -29 13 -15 11 -14 16 14 60 16 26 27 52 24
57 -3 4 -23 6 -45 3 -36 -5 -40 -3 -40 16 0 19 5 21 63 21 69 0 83 6 66 27 -9
10 -15 10 -25 3 -7 -6 -32 -10 -56 -8 -38 3 -43 6 -40 26 2 14 -2 22 -12 22
-8 0 -16 -11 -18 -27z m65 -120 c-9 -25 -34 -53 -48 -53 -14 0 -39 28 -48 53
-6 15 1 17 48 17 47 0 54 -2 48 -17z"/>
<path d="M6590 6645 l0 -55 -46 0 -46 0 4 42 c2 27 -1 43 -9 45 -10 4 -13 -11
-13 -54 l0 -59 53 1 52 0 3 -52 3 -53 -62 0 -62 0 7 40 c5 32 3 40 -9 40 -12
0 -15 -13 -15 -59 0 -58 12 -86 24 -56 6 18 96 21 113 4 8 -8 13 -8 17 0 11
17 82 13 96 -4 19 -23 28 -7 32 54 2 37 -1 56 -9 58 -9 3 -13 -8 -13 -36 0
-40 -1 -41 -34 -41 -19 0 -41 -3 -50 -6 -14 -5 -16 3 -16 56 l0 63 45 -5 c33
-4 48 -1 57 10 10 12 10 16 0 19 -6 3 -9 10 -5 16 9 14 12 49 6 60 -10 17 -33
-17 -33 -49 0 -32 -2 -34 -36 -34 l-36 0 4 55 c4 41 1 55 -9 55 -9 0 -13 -16
-13 -55z"/>
<path d="M7327 6693 c-4 -3 -7 -14 -7 -23 0 -9 -11 -39 -25 -65 -13 -27 -22
-51 -18 -55 3 -3 8 1 10 8 11 31 21 7 19 -45 -5 -98 -6 -103 -21 -103 -12 0
-22 -17 -12 -21 10 -5 591 -8 623 -4 30 4 45 12 54 30 13 24 15 24 38 9 22
-14 26 -14 40 -1 8 9 18 38 23 67 6 39 18 62 48 97 23 25 41 51 41 56 0 6 13
-10 30 -36 16 -26 36 -47 45 -47 23 0 18 14 -19 54 -19 20 -36 46 -38 58 -4
31 -24 33 -32 4 -3 -14 -16 -40 -29 -59 -20 -31 -25 -34 -62 -29 -46 6 -49 7
-40 21 3 6 18 11 33 11 34 0 59 15 43 24 -6 4 -20 5 -30 1 -21 -6 -38 10 -21
20 8 5 7 11 -1 21 -20 24 -39 16 -39 -16 0 -23 -4 -30 -20 -30 -11 0 -20 -4
-20 -10 0 -5 9 -10 19 -10 18 0 19 -6 14 -57 -2 -32 -11 -79 -20 -105 -14 -46
-16 -48 -53 -48 -38 0 -39 1 -30 28 5 15 10 77 12 138 l3 111 -62 1 -63 1 0
-75 c0 -87 -14 -127 -63 -171 -34 -32 -37 -33 -127 -33 -89 0 -91 1 -88 23 2
18 9 22 38 22 24 0 35 5 35 15 0 11 -9 14 -32 12 -19 -2 -33 1 -33 7 0 6 14
11 31 11 25 0 29 3 20 14 -6 7 -22 11 -36 8 -14 -2 -25 0 -25 6 0 6 8 8 19 5
13 -3 20 2 24 19 13 46 10 48 -62 48 -64 0 -69 -2 -75 -24 -3 -14 -3 -32 0
-40 4 -11 1 -16 -10 -16 -9 0 -16 -4 -16 -10 0 -5 7 -10 15 -10 8 0 15 -4 15
-10 0 -5 -6 -10 -14 -10 -8 0 -21 -3 -30 -6 -14 -5 -16 5 -16 72 0 50 6 89 15
108 18 34 5 63 -18 39z m531 -50 c-3 -24 -8 -28 -40 -31 -34 -3 -38 -1 -38 21
0 31 7 37 47 37 32 0 34 -2 31 -27z m-2 -54 c3 -6 3 -21 0 -33 -5 -21 -10 -23
-38 -17 -38 8 -53 46 -21 53 36 7 53 7 59 -3z m-356 -19 c0 -5 -3 -10 -7 -11
-60 -6 -83 -4 -83 8 0 9 15 13 45 13 25 0 45 -4 45 -10z m530 -54 c0 -31 -5
-57 -12 -63 -19 -14 -44 -9 -39 7 2 8 6 36 9 63 4 37 8 47 23 47 16 0 19 -8
19 -54z m-580 13 c0 -5 -11 -9 -25 -9 -33 0 -33 15 0 16 14 1 25 -2 25 -7z
m400 -49 c0 -38 -12 -52 -25 -30 -10 17 -27 11 -23 -7 2 -10 8 -18 15 -18 6 0
15 -3 19 -7 4 -5 -26 -8 -66 -8 l-74 0 31 33 c17 17 36 42 42 55 9 16 21 22
46 22 34 0 35 -1 35 -40z m-390 10 c0 -5 -11 -10 -25 -10 -14 0 -25 5 -25 10
0 6 11 10 25 10 14 0 25 -4 25 -10z m-5 -55 c0 -18 -8 -20 -66 -23 l-66 -3 5
26 c4 25 7 26 66 23 53 -3 61 -5 61 -23z"/>
<path d="M7420 6685 c0 -9 -10 -16 -27 -16 -24 -2 -25 -2 -5 -6 34 -7 28 -33
-8 -33 -16 0 -30 -4 -30 -10 0 -6 44 -10 111 -10 94 0 110 2 100 14 -7 8 -20
12 -30 9 -15 -4 -18 0 -13 22 4 22 2 26 -14 23 -13 -3 -18 -11 -17 -26 2 -19
-2 -22 -30 -22 l-32 1 24 19 c17 15 19 20 7 20 -10 0 -13 6 -10 15 4 9 0 15
-10 15 -9 0 -16 -7 -16 -15z"/>
<path d="M8460 6676 c-7 -20 -17 -26 -42 -27 -18 -1 -40 -2 -48 -3 -8 -2 -35
-3 -59 -4 -54 -2 -44 -19 14 -25 l40 -4 -42 -1 c-66 -3 -51 -22 17 -22 48 0
63 -4 80 -22 26 -28 25 -32 -7 -58 -23 -18 -29 -19 -31 -7 -2 10 -19 16 -53
19 l-49 3 0 -57 c0 -32 2 -58 4 -58 3 0 16 4 30 10 16 6 27 6 31 0 12 -20 62
-9 102 20 l42 31 22 -30 c12 -17 26 -28 31 -25 14 9 9 23 -17 46 l-25 21 26
35 c18 22 23 37 16 44 -6 6 -20 -5 -40 -34 -27 -39 -96 -98 -115 -98 -4 0 -7
11 -7 24 0 17 7 26 24 30 27 7 128 114 120 128 -11 17 -30 7 -41 -23 -10 -26
-15 -30 -27 -20 -24 20 22 61 68 61 26 0 36 4 33 13 -2 7 -17 11 -36 9 -29 -3
-32 -1 -29 19 4 32 -20 36 -32 5z m-18 -53 c-6 -2 -10 -9 -6 -14 3 -5 -8 -9
-25 -9 -32 0 -50 15 -29 23 7 3 27 5 43 5 17 0 24 -2 17 -5z m-92 -147 c0 -23
-22 -41 -34 -29 -3 4 -6 17 -6 30 0 16 6 23 20 23 14 0 20 -7 20 -24z"/>
<path d="M8970 6675 c0 -16 -6 -25 -15 -25 -8 0 -15 -4 -15 -10 0 -5 7 -10 15
-10 12 0 15 -14 15 -65 0 -53 -3 -63 -15 -59 -8 4 -15 1 -15 -5 0 -6 11 -11
25 -11 14 0 25 -4 25 -9 0 -4 -11 -20 -25 -35 -27 -29 -30 -36 -16 -36 19 0
72 53 67 66 -3 8 1 14 8 14 8 0 21 -19 30 -41 l17 -42 24 23 c14 13 29 38 35
56 9 26 17 34 36 34 21 0 24 -4 24 -40 0 -22 -3 -39 -7 -39 -38 6 -45 -16 -8
-23 44 -9 56 26 53 154 l-3 111 -55 2 -55 1 0 -85 c0 -82 -1 -86 -22 -89 -22
-3 -23 0 -23 57 0 48 3 61 15 61 20 0 19 16 -1 24 -12 5 -14 10 -5 20 12 14 5
26 -16 26 -7 0 -13 -11 -13 -25 0 -20 -5 -25 -25 -25 -26 0 -35 15 -13 22 17
6 0 28 -23 28 -14 0 -19 -7 -19 -25z m220 -35 c0 -25 -4 -30 -25 -30 -21 0
-25 5 -25 30 0 25 4 30 25 30 21 0 25 -5 25 -30z m-140 -25 c0 -16 -17 -19
-44 -9 -22 9 -10 24 20 24 15 0 24 -6 24 -15z m140 -49 c0 -22 -31 -42 -44
-28 -13 13 -5 51 12 55 25 5 32 -1 32 -27z m-140 10 c0 -8 -6 -16 -13 -19 -19
-7 -41 8 -33 22 10 16 46 14 46 -3z m-1 -51 c3 -3 -1 -10 -9 -15 -16 -10 -53
6 -45 20 6 9 43 5 54 -5z m55 -50 c-7 -18 -14 -18 -38 0 -19 14 -18 15 12 15
24 0 30 -4 26 -15z"/>
<path d="M9383 6669 l-6 -31 -54 5 c-39 4 -53 2 -50 -6 2 -7 23 -12 50 -11 43
0 45 -1 35 -19 -6 -11 -28 -40 -51 -64 -39 -42 -46 -73 -9 -40 10 10 22 17 25
17 4 0 7 -27 7 -60 0 -90 17 -72 21 23 5 102 30 147 82 146 18 0 27 -3 20 -5
-8 -4 -10 -16 -6 -35 3 -16 2 -29 -3 -30 -5 -1 -22 -2 -38 -3 -16 0 -31 -7
-34 -14 -3 -9 3 -13 14 -12 40 5 52 -1 58 -25 8 -32 -10 -67 -32 -64 -31 3
-52 -1 -52 -9 0 -11 198 -13 205 -2 3 4 -2 13 -9 19 -11 9 -19 9 -34 0 -32
-20 -52 -5 -52 41 0 22 5 40 10 40 6 0 10 7 10 15 0 8 -4 15 -10 15 -5 0 -9
15 -8 34 1 32 3 33 40 33 44 0 72 18 45 28 -8 4 -24 2 -35 -4 -41 -22 -150 1
-113 24 16 9 13 25 -4 25 -9 0 -18 -13 -22 -31z"/>
<path d="M9730 6692 c0 -4 5 -13 11 -19 22 -22 -3 -33 -72 -33 -44 0 -68 -4
-64 -10 3 -5 32 -10 63 -10 l57 -1 -63 -60 c-65 -61 -77 -89 -24 -50 40 28 42
27 42 -13 0 -24 -7 -39 -21 -50 -35 -24 -12 -40 25 -16 19 11 42 20 52 20 11
0 30 7 43 16 22 16 24 15 56 -16 24 -23 39 -31 52 -26 16 7 15 10 -12 32 -16
13 -32 24 -35 24 -3 0 -14 14 -24 31 -21 35 -14 44 37 56 30 6 36 27 10 37
-10 4 -25 -2 -39 -15 -25 -23 -39 -20 -47 11 -5 18 0 20 54 20 45 0 59 3 59
14 0 21 -20 30 -33 17 -17 -17 -87 -14 -87 3 0 8 5 18 10 21 6 4 8 11 5 16 -7
11 -55 12 -55 1z m35 -109 c4 -21 13 -49 20 -64 14 -26 13 -26 -26 -39 -35
-12 -42 -12 -50 1 -11 18 -1 76 19 112 22 36 28 34 37 -10z"/>
<path d="M10000 6684 c0 -9 -6 -14 -12 -12 -15 5 -34 -28 -43 -74 l-6 -33 21
28 c29 36 40 34 40 -9 0 -31 -4 -37 -30 -47 -16 -6 -30 -14 -30 -18 0 -12 29
-19 35 -9 15 24 25 6 25 -45 0 -30 5 -55 10 -55 6 0 10 29 10 66 0 36 4 63 8
60 4 -2 13 4 20 15 10 15 10 19 -2 19 -8 0 -17 -6 -20 -12 -3 -7 -4 2 -3 21 1
24 7 35 20 37 15 2 16 0 6 -12 -6 -8 -9 -18 -5 -22 4 -4 16 3 26 16 10 12 23
22 29 22 21 0 11 -30 -24 -69 -43 -47 -46 -70 -7 -42 16 11 40 40 53 66 20 38
39 58 39 40 0 -27 -48 -120 -72 -140 -33 -28 -33 -44 0 -26 32 17 60 59 79
117 10 32 22 54 31 54 11 0 13 -13 7 -72 -8 -80 -19 -110 -38 -103 -6 3 -19 0
-27 -5 -13 -9 -13 -11 0 -20 22 -15 38 -12 59 9 18 18 26 63 34 186 l2 30 -64
-4 c-59 -3 -63 -2 -57 15 12 30 12 36 -1 41 -7 3 -13 -2 -13 -10 0 -28 -33
-57 -58 -51 -19 6 -22 11 -17 35 5 22 3 29 -9 29 -9 0 -16 -7 -16 -16z"/>
<path d="M10408 6618 c-2 -124 -2 -126 -10 -134 -16 -15 -8 -44 12 -44 18 0
20 7 20 70 l0 70 60 0 c35 0 60 4 60 10 0 17 -23 21 -73 11 l-48 -9 1 42 c3
58 1 66 -10 66 -6 0 -11 -35 -12 -82z"/>
<path d="M10677 6693 c-4 -3 -7 -17 -7 -30 0 -20 -4 -23 -20 -18 -19 6 -20 2
-20 -99 0 -97 9 -130 24 -91 6 17 46 21 46 5 0 -5 7 -10 16 -10 12 0 15 10 13
53 -2 47 1 55 30 85 26 25 41 32 73 32 l41 0 -5 -75 c-5 -74 -20 -110 -44
-101 -22 8 -24 -7 -3 -22 18 -12 22 -12 39 3 21 19 26 41 34 151 l6 71 -50 -5
c-41 -4 -50 -2 -50 11 0 9 5 19 10 22 13 8 3 25 -16 25 -8 0 -14 -9 -14 -20 0
-24 -37 -100 -48 -100 -4 0 -6 16 -4 36 4 33 3 36 -17 29 -15 -4 -21 -2 -21 9
0 8 5 18 10 21 6 3 10 10 10 16 0 10 -23 12 -33 2z m33 -82 c0 -23 -14 -41
-31 -41 -14 0 -19 7 -19 25 0 20 5 25 25 25 14 0 25 -4 25 -9z m-10 -96 c0
-28 -4 -35 -20 -35 -16 0 -20 7 -20 35 0 28 4 35 20 35 16 0 20 -7 20 -35z"/>
<path d="M11088 6678 c-3 -21 -9 -23 -65 -26 -83 -4 -81 -22 2 -22 58 0 65 -2
65 -20 0 -17 -7 -20 -45 -20 -25 0 -45 -2 -45 -5 0 -6 4 -12 51 -68 17 -21 30
-39 28 -41 -15 -12 -56 -30 -66 -28 -7 2 -13 -2 -13 -8 0 -5 -9 -10 -20 -10
-11 0 -20 -4 -20 -10 0 -16 28 -12 86 15 30 14 57 25 59 25 2 0 29 -11 60 -25
53 -24 75 -26 75 -4 0 5 -7 9 -15 9 -8 0 -23 4 -33 9 -9 5 -30 14 -46 20 -24
10 -26 14 -14 24 26 21 59 77 53 88 -4 5 -17 9 -28 8 -39 -3 -47 1 -47 21 0
18 7 20 65 20 65 0 72 3 56 29 -6 10 -13 11 -29 2 -11 -6 -37 -11 -57 -11 -35
0 -37 2 -31 25 5 18 2 25 -8 25 -8 0 -16 -10 -18 -22z m62 -116 c0 -4 -11 -22
-23 -40 l-24 -32 -19 23 c-51 58 -52 57 10 57 31 0 56 -4 56 -8z"/>
<path d="M11421 6663 c4 -77 3 -79 -41 -75 l-41 4 7 44 c5 37 4 44 -10 44 -13
0 -16 -11 -16 -59 l0 -58 50 5 50 5 0 -61 c0 -49 -3 -61 -17 -65 -10 -3 17 -5
60 -6 63 -1 77 -4 77 -17 0 -9 6 -14 13 -11 8 2 12 24 12 60 0 64 -18 83 -23
25 -3 -38 -4 -38 -48 -38 l-44 0 0 56 0 57 50 -5 50 -5 0 48 c0 27 1 52 3 56
1 3 -4 8 -10 11 -9 2 -13 -10 -13 -42 l0 -46 -41 0 -41 0 4 55 c4 49 3 55 -15
55 -15 0 -18 -6 -16 -37z"/>
<path d="M12230 6690 c0 -5 -9 -11 -19 -15 -11 -3 -22 -19 -26 -36 -6 -25 -2
-36 19 -58 17 -17 26 -38 26 -58 0 -38 -19 -54 -27 -24 -7 29 -23 27 -23 -3 0
-17 7 -27 23 -32 12 -4 25 -11 28 -17 11 -16 79 42 79 68 0 12 -15 35 -35 54
-37 33 -41 46 -25 71 9 13 13 12 30 -9 17 -19 21 -20 26 -7 3 8 3 19 0 25 -9
15 -76 51 -76 41z m0 -62 c0 -16 -3 -19 -11 -11 -6 6 -8 16 -5 22 11 17 16 13
16 -11z m40 -132 c-18 -23 -30 -20 -30 7 0 32 11 40 29 23 12 -12 12 -18 1
-30z"/>
<path d="M13600 6670 l0 -30 -66 0 c-44 0 -63 -3 -58 -11 3 -6 29 -9 63 -7
l56 3 3 -32 c3 -28 -3 -36 -38 -62 -23 -17 -51 -33 -61 -36 -21 -7 -26 -35 -6
-35 7 0 30 16 52 35 22 19 43 35 48 35 4 0 7 -16 7 -35 0 -36 -28 -62 -53 -50
-6 4 -1 -3 12 -14 45 -41 60 -22 62 79 1 55 1 55 14 24 16 -35 88 -89 106 -79
13 9 -19 39 -58 55 -32 13 -29 25 14 54 30 21 34 26 19 32 -11 4 -25 -1 -40
-15 -12 -11 -25 -21 -28 -21 -8 0 -28 57 -22 63 2 2 31 2 64 0 62 -5 69 -1 46
30 -12 16 -14 16 -20 1 -5 -14 -9 -12 -27 10 -11 14 -28 26 -36 26 -14 0 -14
-2 0 -18 23 -26 21 -32 -9 -32 -24 0 -26 3 -20 30 4 22 2 30 -9 30 -10 0 -15
-10 -15 -30z"/>
<path d="M3553 6682 c-129 -4 -118 -22 13 -22 77 0 105 3 102 12 -5 15 -3 14
-115 10z"/>
<path d="M7620 6588 c0 -59 4 -98 10 -98 6 0 10 4 10 10 0 5 11 13 26 16 18 5
29 1 38 -11 19 -27 24 -9 27 90 l2 88 -57 1 -56 1 0 -97z m78 65 c14 -27 3
-43 -29 -43 -24 0 -29 4 -29 23 0 13 3 27 7 30 12 13 42 7 51 -10z m0 -90 c-2
-22 -9 -29 -30 -31 -25 -3 -28 0 -28 27 0 28 3 31 31 31 27 0 30 -3 27 -27z"/>
<path d="M8280 6679 c0 -12 24 -15 70 -9 25 3 40 8 35 12 -13 8 -105 5 -105
-3z"/>
<path d="M8659 6665 c0 -11 -1 -37 -2 -57 -1 -25 3 -38 11 -40 9 -2 2 -18 -22
-48 -21 -27 -31 -47 -24 -49 6 -2 19 5 28 16 20 25 90 38 90 17 0 -9 -11 -14
-35 -14 -19 0 -35 -5 -35 -11 0 -8 12 -10 35 -6 32 5 35 4 35 -19 0 -23 -3
-24 -65 -24 -36 0 -65 -4 -65 -9 0 -6 57 -10 134 -10 104 0 137 3 146 14 10
12 2 14 -56 12 -66 -2 -69 -1 -72 22 -3 22 -1 23 27 18 42 -9 65 1 50 19 -9
11 -8 14 5 14 20 0 21 26 2 33 -7 3 -18 1 -24 -5 -5 -5 -20 -8 -33 -6 -17 2
-23 8 -21 22 2 10 -2 23 -10 28 -14 10 33 5 65 -7 13 -6 17 -2 17 16 0 13 3
40 6 60 l6 35 -96 0 c-89 -1 -96 -2 -97 -21z m161 -10 c0 -12 -14 -15 -70 -15
-64 0 -81 6 -63 23 3 4 35 7 70 7 49 0 63 -3 63 -15z m0 -45 c0 -6 -30 -10
-69 -10 -39 0 -73 5 -76 10 -4 6 22 10 69 10 44 0 76 -4 76 -10z m-80 -56 c0
-19 -5 -24 -25 -24 -14 0 -25 5 -25 10 0 6 5 10 11 10 6 0 9 6 6 14 -6 15 11
27 26 19 4 -2 7 -15 7 -29z m75 -49 c0 -5 -12 -11 -27 -13 -21 -2 -28 1 -28
13 0 12 7 15 28 13 15 -2 27 -7 27 -13z"/>
<path d="M251 6654 c-11 -15 -18 -31 -15 -36 3 -5 12 -1 20 10 15 21 45 20 64
-3 11 -13 -5 -75 -20 -75 -4 0 -10 -9 -13 -20 -3 -11 -17 -24 -31 -30 -14 -5
-26 -16 -26 -25 0 -12 11 -14 62 -10 55 4 77 15 78 37 0 4 -16 4 -35 1 -23 -4
-35 -2 -35 6 0 6 5 11 10 11 6 0 10 5 10 11 0 6 9 22 20 36 22 28 26 64 10 94
-16 30 -73 26 -99 -7z"/>
<path d="M416 6655 c-34 -52 -6 -131 43 -118 23 6 23 6 6 -21 -10 -14 -28 -29
-41 -32 -31 -8 -31 -24 -1 -24 14 0 39 16 61 39 49 50 60 111 26 154 -28 35
-71 37 -94 2z m62 -7 c7 -7 12 -27 12 -45 0 -28 -4 -33 -24 -33 -25 0 -36 16
-36 54 0 36 24 48 48 24z"/>
<path d="M12386 6658 c-16 -22 -21 -48 -11 -48 3 0 15 9 27 20 16 14 25 17 39
9 11 -5 19 -17 19 -25 0 -28 -31 -83 -61 -108 -16 -14 -29 -29 -29 -35 0 -15
113 -14 128 1 22 22 13 28 -34 21 l-46 -6 41 54 c47 62 51 87 18 117 -30 29
-71 28 -91 0z"/>
<path d="M12572 6622 c-22 -32 -44 -70 -47 -85 -7 -26 -6 -27 33 -27 34 0 41
-3 44 -22 4 -27 33 -31 33 -6 0 10 6 23 12 29 9 9 8 15 -3 26 -11 11 -13 29
-8 79 9 84 -8 85 -64 6z m36 -39 c-2 -30 -8 -38 -30 -44 -34 -9 -35 2 -7 47
27 44 41 43 37 -3z"/>
<path d="M12719 6667 c-22 -17 -50 -99 -38 -113 5 -6 6 -13 3 -16 -3 -3 4 -21
14 -39 24 -43 69 -48 89 -9 29 60 32 80 15 125 -25 63 -49 79 -83 52z m45 -29
c11 -44 7 -135 -8 -147 -20 -17 -36 15 -36 73 0 76 30 126 44 74z"/>
<path d="M2635 6584 c-22 -23 -46 -43 -52 -43 -16 -1 -17 -21 -2 -21 6 0 24
10 39 23 16 12 40 30 54 40 29 20 33 32 14 40 -7 2 -31 -15 -53 -39z"/>
<path d="M3675 6611 c-4 -7 -53 -11 -126 -11 -78 0 -118 -4 -114 -10 3 -5 34
-10 67 -10 l61 0 -5 -85 c-5 -68 -3 -85 8 -85 11 0 14 19 14 85 l0 85 66 0
c56 0 65 2 62 17 -4 20 -24 28 -33 14z"/>
<path d="M13502 6603 c24 -49 32 -63 40 -63 15 0 8 37 -10 53 -19 17 -36 23
-30 10z"/>
<path d="M6890 6585 c-10 -12 -10 -21 -1 -41 15 -35 64 -31 69 5 6 41 -43 66
-68 36z m50 -19 c0 -15 -24 -28 -34 -19 -7 7 13 33 25 33 5 0 9 -6 9 -14z"/>
<path d="M13080 6586 c-6 -8 -10 -25 -8 -38 4 -30 39 -35 63 -8 17 19 17 21 0
40 -21 24 -38 25 -55 6z m35 -26 c0 -7 -6 -15 -12 -17 -8 -3 -13 4 -13 17 0
13 5 20 13 18 6 -3 12 -11 12 -18z"/>
<path d="M10770 6581 c0 -5 7 -14 15 -21 8 -7 15 -18 15 -26 0 -20 19 -27 26
-9 4 10 -3 26 -16 41 -24 25 -40 31 -40 15z"/>
<path d="M14300 6583 c1 -9 57 -73 66 -73 3 0 4 9 2 20 -3 20 -68 71 -68 53z"/>
<path d="M8120 6573 c0 -4 12 -22 26 -40 18 -23 30 -31 36 -25 13 13 -19 58
-44 65 -10 3 -18 3 -18 0z"/>
<path d="M8323 6572 c-60 -4 -54 -22 7 -22 28 0 50 4 50 9 0 14 -10 16 -57 13z"/>
<path d="M9512 6558 c-18 -18 -15 -28 7 -28 26 0 34 15 18 29 -10 8 -17 7 -25
-1z"/>
<path d="M3483 6541 c-3 -9 -17 -31 -30 -49 -27 -35 -24 -54 3 -31 15 12 64
83 64 92 0 12 -33 1 -37 -12z"/>
<path d="M3620 6541 c0 -5 7 -14 16 -22 8 -7 22 -25 30 -41 17 -32 34 -37 34
-9 0 10 -14 33 -32 50 -32 31 -48 39 -48 22z"/>
<path d="M11300 6475 c0 -37 4 -65 10 -65 6 0 10 6 10 14 0 9 13 16 33 19 l32
3 -34 9 c-32 8 -33 9 -27 46 5 31 3 39 -9 39 -12 0 -15 -14 -15 -65z"/>
<path d="M555 6490 c-8 -14 3 -30 21 -30 8 0 14 9 14 20 0 21 -24 28 -35 10z"/>
<path d="M4625 6456 c47 -42 75 -47 62 -12 -6 15 -81 56 -101 56 -6 0 12 -20
39 -44z"/>
<path d="M8090 6490 c0 -5 7 -10 15 -10 8 0 27 -16 42 -35 33 -41 43 -44 43
-11 0 19 -10 29 -43 45 -49 24 -57 25 -57 11z"/>
<path d="M11740 6476 c0 -26 15 -43 24 -28 7 12 -4 52 -15 52 -5 0 -9 -11 -9
-24z"/>
<path d="M14280 6490 c0 -5 4 -10 10 -10 5 0 25 -13 43 -30 19 -16 37 -27 41
-23 15 15 3 32 -34 52 -45 23 -60 26 -60 11z"/>
<path d="M10530 6460 c-8 -5 -25 -7 -37 -3 -14 3 -23 1 -23 -6 0 -7 20 -11 51
-11 35 0 49 4 47 12 -6 16 -20 19 -38 8z"/>
<path d="M1925 6450 c-3 -5 1 -10 9 -10 9 0 16 5 16 10 0 6 -4 10 -9 10 -6 0
-13 -4 -16 -10z"/>
<path d="M10285 6450 c-4 -6 15 -10 46 -10 29 0 50 3 46 6 -11 11 -86 14 -92
4z"/>
<path d="M1290 6235 c0 -22 -4 -25 -35 -25 -46 0 -50 2 -48 21 2 14 -6 16 -43
14 -71 -5 -71 -16 0 -19 11 -1 21 -7 24 -14 2 -8 -11 -12 -45 -12 -40 -1 -45
-3 -29 -12 12 -7 45 -8 92 -4 63 6 73 5 68 -8 -5 -12 -21 -14 -85 -9 -55 4
-79 2 -79 -6 0 -7 22 -11 58 -11 51 0 62 -4 86 -29 29 -30 29 -31 -21 -58 -19
-10 -23 -9 -23 3 0 9 -10 14 -27 14 -16 0 -38 3 -51 6 -22 6 -23 5 -20 -51 l3
-58 56 -3 c47 -3 61 1 100 27 l44 29 28 -30 c23 -26 28 -28 34 -14 4 12 -2 24
-21 39 l-27 22 25 30 c22 26 24 32 12 43 -12 9 -18 6 -30 -17 -16 -32 -100
-113 -116 -113 -5 0 -10 11 -10 24 0 19 7 26 29 31 29 6 47 23 94 87 21 29 24
37 12 42 -9 3 -21 -6 -32 -24 -11 -19 -20 -25 -24 -18 -4 6 0 22 8 35 12 18
24 23 59 23 24 0 44 4 44 9 0 14 -28 21 -60 14 -29 -5 -42 8 -20 22 13 8 3 25
-16 25 -8 0 -14 -10 -14 -25z m-112 -202 c-2 -17 -9 -28 -18 -28 -9 0 -16 11
-18 28 -3 22 1 27 18 27 17 0 21 -5 18 -27z"/>
<path d="M1800 6240 c0 -12 -10 -25 -22 -30 l-23 -9 23 -7 c20 -6 22 -13 22
-65 0 -52 -2 -59 -20 -59 -11 0 -20 -4 -20 -10 0 -5 9 -10 19 -10 31 0 33 -15
6 -44 -14 -15 -20 -28 -14 -32 13 -7 69 44 69 63 0 7 5 13 11 13 5 0 8 -4 5
-9 -3 -5 1 -14 9 -21 8 -7 15 -21 15 -31 0 -11 4 -19 9 -19 14 0 60 59 67 86
5 19 13 24 36 24 28 0 29 -2 26 -37 -2 -30 -8 -38 -28 -43 l-25 -6 24 -13 c41
-22 49 -1 53 139 l3 125 -57 0 c-51 0 -57 -2 -52 -17 4 -13 0 -18 -15 -18 -14
0 -21 6 -21 19 0 10 -7 22 -16 25 -24 9 -25 8 -18 -19 5 -21 3 -25 -16 -25
-17 0 -21 4 -17 19 3 12 -1 22 -10 25 -22 9 -23 8 -23 -14z m218 -47 c3 -20
-1 -23 -27 -23 -27 0 -31 4 -31 26 0 22 4 25 28 22 19 -2 28 -9 30 -25z m-82
-35 c-2 -24 -4 -52 -5 -63 -1 -13 -8 -21 -21 -22 -18 -2 -20 4 -20 57 0 58 3
63 42 69 4 0 6 -18 4 -41z m-68 20 c-7 -19 -38 -22 -38 -4 0 10 9 16 21 16 12
0 19 -5 17 -12z m150 -50 c-2 -17 -11 -24 -30 -26 -24 -3 -28 0 -28 22 0 22 4
26 31 26 26 0 30 -3 27 -22z m-148 -3 c0 -8 -9 -15 -20 -15 -11 0 -20 7 -20
15 0 8 9 15 20 15 11 0 20 -7 20 -15z m0 -44 c0 -5 -9 -11 -20 -14 -13 -3 -20
0 -20 9 0 8 9 14 20 14 11 0 20 -4 20 -9z m50 -47 c0 -17 -24 -18 -38 -1 -8 9
-4 12 14 13 15 1 24 -4 24 -12z"/>
<path d="M2197 6230 c-6 -29 -9 -30 -57 -30 -27 0 -50 -4 -50 -10 0 -5 20 -10
45 -10 43 0 45 -1 35 -21 -7 -11 -30 -39 -52 -61 -22 -22 -37 -42 -34 -46 4
-3 12 0 18 6 25 25 38 13 38 -37 0 -45 18 -81 27 -54 3 7 39 10 109 7 106 -4
123 3 92 34 -9 9 -16 8 -29 -4 -32 -29 -54 -14 -57 40 l-3 48 35 -6 c38 -7 55
6 36 30 -10 11 -16 12 -27 2 -31 -25 -43 -18 -41 23 l3 39 48 0 c35 0 47 4 47
15 0 13 -10 14 -64 9 -76 -8 -104 -1 -86 21 13 16 6 35 -14 35 -8 0 -16 -13
-19 -30z m63 -79 c0 -35 -14 -46 -55 -43 -39 3 -21 -15 20 -20 26 -3 30 -7 33
-39 4 -45 -16 -63 -59 -54 l-31 7 4 62 c5 72 29 116 64 116 20 0 24 -5 24 -29z"/>
<path d="M2550 6235 c-12 -22 -20 -25 -72 -25 -37 0 -57 -4 -53 -10 3 -5 22
-10 41 -10 44 0 43 -11 -3 -49 -29 -24 -33 -31 -19 -31 28 0 88 49 82 66 -4
11 12 14 85 14 68 0 90 3 86 13 -3 8 -22 11 -61 8 l-57 -3 7 26 c8 35 -18 35
-36 1z"/>
<path d="M3477 6253 c-4 -3 -7 -16 -7 -28 0 -28 -10 -37 -26 -24 -18 15 -20 4
-14 -111 3 -68 8 -99 14 -87 9 18 56 24 56 7 0 -5 7 -10 15 -10 11 0 15 13 15
53 1 43 5 57 30 85 24 26 37 32 70 32 l40 0 0 -59 c0 -88 -12 -111 -55 -111
-46 0 -45 -16 2 -23 24 -4 42 -2 50 6 17 18 30 75 32 149 l2 67 -50 -6 c-54
-6 -67 6 -38 36 11 13 9 16 -16 24 -5 1 -16 -20 -25 -47 -18 -53 -50 -81 -38
-33 4 17 1 27 -9 31 -8 3 -15 1 -15 -4 0 -6 -7 -10 -15 -10 -15 0 -10 29 8 41
5 4 6 12 3 18 -8 12 -19 14 -29 4z m22 -88 c0 -3 1 -32 1 -65 0 -57 -1 -60
-25 -60 -21 0 -25 5 -25 31 0 22 5 32 20 36 11 3 20 9 20 14 0 13 -14 11 -28
-3 -9 -9 -12 -5 -12 19 0 22 6 33 18 36 17 5 28 2 31 -8z"/>
<path d="M3890 6229 l0 -31 -65 4 c-47 2 -65 0 -65 -9 0 -9 20 -13 65 -13 58
0 65 -2 65 -20 0 -17 -7 -20 -46 -20 l-45 0 20 -26 c12 -15 21 -31 21 -36 0
-5 10 -18 21 -27 l22 -18 -34 -20 c-19 -12 -46 -25 -61 -28 -16 -4 -28 -12
-28 -17 0 -14 45 -2 100 26 l45 24 45 -24 c51 -27 90 -31 90 -9 0 8 -8 15 -18
15 -15 0 -76 24 -91 36 -2 2 13 23 33 48 41 49 36 62 -21 57 -28 -2 -33 1 -33
18 0 19 6 21 64 21 68 0 90 12 57 30 -13 7 -22 7 -26 0 -3 -5 -27 -10 -51 -10
-45 0 -46 0 -39 30 5 23 3 30 -9 30 -11 0 -16 -9 -16 -31z m60 -115 c0 -10
-41 -64 -48 -64 -15 1 -39 26 -46 48 -7 21 -5 22 43 22 28 0 51 -3 51 -6z"/>
<path d="M4230 6201 l0 -61 -40 0 -40 0 0 40 c0 29 -4 40 -15 40 -11 0 -15
-13 -15 -53 l0 -54 56 5 55 5 -3 -59 -3 -59 -47 -3 c-46 -3 -48 -2 -49 25 -1
15 -1 36 0 46 1 9 -4 17 -13 17 -13 0 -16 -13 -16 -65 0 -37 4 -65 10 -65 6 0
10 5 10 10 0 16 227 13 233 -2 8 -24 15 -3 19 60 3 47 1 62 -9 62 -9 0 -13
-15 -13 -45 l0 -45 -50 0 -50 0 0 61 0 61 50 -4 c50 -3 50 -3 50 27 0 17 3 40
6 53 5 16 2 22 -10 22 -12 0 -16 -10 -16 -40 l0 -40 -41 0 -41 0 4 57 c2 39
-1 58 -9 60 -10 4 -13 -12 -13 -56z"/>
<path d="M1480 6188 c0 -32 4 -58 10 -58 20 0 9 -32 -20 -62 -31 -30 -34 -52
-5 -28 11 9 18 10 29 1 8 -7 25 -9 39 -6 27 7 41 -12 27 -35 -6 -9 -25 -11
-69 -7 -52 4 -60 3 -51 -9 18 -20 280 -18 280 2 0 12 -11 14 -60 8 -60 -7 -60
-6 -60 19 0 24 3 25 35 20 27 -4 35 -2 35 10 0 20 -21 27 -42 13 -9 -6 -20 -7
-24 -3 -13 12 6 22 43 22 21 0 38 6 41 13 3 11 -6 12 -42 7 -45 -7 -46 -7 -46
20 0 26 2 27 35 21 l35 -7 2 46 c0 25 1 50 2 57 1 9 -27 12 -96 12 l-98 1 0
-57z m160 25 c0 -9 -17 -13 -65 -13 -45 0 -65 4 -65 13 0 8 20 12 65 13 48 1
65 -3 65 -13z m0 -43 c0 -6 -28 -10 -65 -10 -37 0 -65 4 -65 10 0 6 28 10 65
10 37 0 65 -4 65 -10z m-78 -36 c12 -11 -5 -44 -23 -44 -20 0 -25 15 -9 25 6
4 8 11 5 16 -7 10 18 13 27 3z m-2 -71 c0 -8 -12 -13 -30 -13 -29 0 -38 9 -24
23 12 11 54 3 54 -10z"/>
<path d="M2770 6242 c0 -10 43 -52 53 -52 16 0 5 30 -15 44 -25 18 -38 20 -38
8z"/>
<path d="M2920 6240 c-41 -4 -69 -7 -62 -8 8 -1 27 -15 42 -32 l28 -30 -27 0
c-15 0 -32 5 -39 12 -14 14 -14 11 -14 -104 0 -69 -2 -76 -15 -63 -9 10 -13
29 -11 53 3 35 2 37 -29 40 -36 4 -45 -12 -13 -21 28 -7 25 -41 -6 -71 -15
-14 -23 -29 -19 -36 5 -8 13 -6 29 9 l23 21 23 -20 c19 -16 37 -20 101 -20 42
0 84 3 93 6 20 8 21 24 2 24 -11 0 -14 9 -11 33 11 86 13 147 5 152 -5 3 -11
1 -15 -5 -6 -11 -55 -14 -55 -4 0 10 44 43 58 44 15 0 11 23 -4 25 -5 1 -43
-2 -84 -5z m40 -19 c0 -12 -21 -19 -37 -13 -22 8 -14 22 12 22 14 0 25 -4 25
-9z m-40 -71 c0 -5 -11 -10 -25 -10 -14 0 -25 5 -25 10 0 6 11 10 25 10 14 0
25 -4 25 -10z m80 0 c0 -5 -11 -10 -25 -10 -14 0 -25 5 -25 10 0 6 11 10 25
10 14 0 25 -4 25 -10z m-80 -45 c0 -16 -35 -21 -44 -6 -8 12 4 21 26 21 10 0
18 -7 18 -15z m75 0 c0 -5 -10 -11 -22 -13 -16 -2 -23 2 -23 13 0 11 7 15 23
13 12 -2 22 -7 22 -13z m-75 -65 c0 -29 15 -41 22 -19 3 9 10 9 26 0 35 -19
26 -31 -24 -31 -64 0 -82 12 -76 49 3 25 9 31 28 31 20 0 24 -5 24 -30z m80
15 c0 -9 -9 -15 -25 -15 -16 0 -25 6 -25 15 0 9 9 15 25 15 16 0 25 -6 25 -15z"/>
<path d="M3208 6128 l-3 -123 -63 -3 c-36 -2 -60 -7 -57 -12 4 -6 68 -10 146
-10 132 0 139 1 139 20 0 21 -33 29 -45 10 -3 -5 -26 -10 -51 -10 l-44 0 0 65
0 64 58 3 c34 2 55 7 52 13 -3 6 -29 8 -58 7 l-54 -4 4 48 c2 31 -1 49 -9 51
-9 3 -13 -27 -15 -119z"/>
<path d="M2750 6181 c0 -13 60 -45 68 -36 3 3 -1 12 -9 19 -19 19 -59 30 -59
17z"/>
<path d="M2597 6169 c7 -7 8 -18 3 -28 -4 -9 -13 -28 -19 -43 -14 -37 -27 -35
-42 7 -7 19 -16 35 -21 35 -9 0 -38 -54 -38 -70 0 -21 20 -9 26 16 l7 26 14
-33 c13 -31 13 -35 -3 -44 -9 -5 -25 -17 -34 -26 -9 -9 -29 -19 -44 -23 -14
-3 -26 -11 -26 -17 0 -6 8 -8 18 -6 9 3 29 8 45 11 15 4 27 11 27 16 0 5 13
16 30 25 28 15 32 14 80 -16 48 -29 53 -30 68 -15 15 15 15 16 0 16 -23 0 -98
42 -98 54 0 6 9 26 20 44 11 18 18 39 14 45 -3 7 1 4 9 -5 8 -10 23 -18 33
-18 16 1 13 6 -14 30 -18 17 -40 30 -49 30 -13 0 -14 -3 -6 -11z"/>
<path d="M4535 6131 c-7 -24 10 -61 29 -61 21 0 38 26 34 52 -4 31 -53 38 -63
9z m45 -22 c0 -24 -23 -21 -28 4 -2 10 3 17 12 17 10 0 16 -9 16 -21z"/>
<path d="M3590 6100 c12 -23 25 -38 31 -35 13 9 1 47 -19 63 -29 22 -33 13
-12 -28z"/>
<path d="M1115 6120 c-4 -6 15 -10 50 -10 35 0 54 4 50 10 -3 6 -26 10 -50 10
-24 0 -47 -4 -50 -10z"/>
<path d="M2918 5449 c-34 -25 -36 -61 -7 -90 15 -15 19 -30 16 -62 -3 -35 -5
-38 -11 -19 -12 32 -26 27 -26 -8 0 -23 5 -30 19 -30 10 0 22 -7 25 -16 5 -13
13 -10 46 16 48 38 50 62 8 102 -35 33 -47 88 -16 80 9 -2 19 -10 22 -18 8
-21 26 -17 26 5 0 11 -15 28 -36 40 -19 12 -36 21 -37 21 -1 0 -14 -10 -29
-21z m58 -154 c13 -12 12 -15 -6 -25 -18 -9 -20 -8 -20 15 0 29 5 31 26 10z"/>
<path d="M2050 5440 c0 -5 -19 -49 -42 -97 -24 -49 -44 -91 -46 -95 -2 -5 10
-8 27 -8 17 0 31 5 31 10 0 6 -4 10 -9 10 -5 0 -7 9 -4 20 8 28 78 29 86 1 2
-11 0 -24 -6 -30 -8 -8 0 -11 29 -11 47 0 58 7 41 26 -28 31 -34 42 -57 112
-14 39 -30 72 -37 72 -7 0 -13 -4 -13 -10z m24 -97 c6 -18 4 -20 -14 -16 -22
6 -23 7 -13 42 6 25 14 18 27 -26z"/>
<path d="M3132 5412 c-13 -20 -34 -52 -47 -71 -14 -19 -25 -38 -25 -42 0 -5
20 -9 45 -9 41 0 45 -2 45 -25 0 -16 6 -25 15 -25 9 0 15 9 15 24 0 13 8 27
18 31 16 6 16 7 0 19 -14 10 -18 28 -18 75 0 72 -14 79 -48 23z m14 -88 c-4
-12 -10 -12 -26 -4 -20 11 -20 11 2 41 l23 31 3 -27 c2 -15 1 -33 -2 -41z"/>
<path d="M3253 5423 c-25 -38 -25 -134 1 -162 26 -28 71 -28 90 2 22 34 29 92
16 131 -20 60 -77 75 -107 29z m67 -13 c17 -32 8 -131 -13 -144 -25 -16 -37 7
-37 72 0 79 26 117 50 72z"/>
<path d="M10565 5395 c-11 -2 -69 -9 -130 -15 -60 -7 -114 -15 -120 -19 -5 -3
-19 -6 -30 -7 -11 -1 -27 -4 -35 -7 -8 -3 -82 -22 -165 -43 -82 -20 -168 -44
-190 -54 -22 -9 -67 -27 -100 -39 -33 -12 -87 -36 -120 -54 -33 -17 -94 -48
-137 -69 -42 -21 -110 -60 -152 -88 -41 -27 -79 -50 -83 -50 -5 0 -28 -18 -52
-40 -24 -22 -49 -40 -55 -40 -38 0 -413 -378 -489 -492 -30 -46 -83 -122 -116
-170 -67 -97 -183 -330 -226 -453 -15 -44 -38 -108 -51 -142 -13 -34 -31 -97
-40 -140 -32 -160 -44 -229 -44 -263 0 -20 -5 -41 -12 -48 -14 -14 -18 -421
-6 -507 4 -27 12 -81 17 -120 22 -157 73 -380 91 -395 3 -3 5 -12 5 -20 -1 -8
2 -19 5 -25 4 -5 21 -50 39 -99 28 -80 65 -159 149 -321 14 -27 40 -70 57 -95
17 -25 37 -58 45 -73 8 -16 22 -33 32 -38 10 -5 18 -16 18 -23 0 -29 100 -148
259 -306 158 -157 298 -273 405 -334 27 -16 64 -39 83 -52 52 -35 291 -150
363 -175 36 -12 76 -28 90 -35 43 -23 390 -107 435 -106 10 1 24 -3 30 -8 17
-14 231 -32 390 -33 147 -1 423 20 440 33 6 4 32 11 60 15 76 11 325 75 370
95 22 10 72 29 112 43 102 37 298 135 392 197 31 20 63 39 72 42 60 22 325
250 483 416 67 70 198 241 220 287 8 17 23 39 33 50 16 18 47 73 102 180 9 16
19 32 23 35 3 3 25 50 48 105 23 55 52 123 65 151 25 54 58 163 82 279 8 39
19 75 23 80 5 6 17 67 26 135 34 238 17 788 -26 868 -5 10 -19 60 -31 112 -25
108 -67 242 -78 250 -4 3 -12 21 -18 40 -20 61 -80 198 -101 227 -11 15 -36
61 -56 101 -21 39 -41 72 -46 72 -4 0 -15 15 -24 34 -22 46 -185 263 -230 305
-20 19 -36 40 -36 45 0 6 -12 20 -26 31 -72 57 -94 78 -94 91 0 8 -8 17 -17
21 -10 3 -34 21 -53 39 -49 46 -258 201 -297 219 -18 9 -38 21 -45 28 -16 14
-42 29 -118 70 -30 15 -62 34 -70 41 -8 6 -26 17 -40 23 -94 41 -149 63 -158
63 -5 0 -34 11 -63 25 -30 13 -121 41 -204 61 -82 20 -157 39 -165 42 -8 3
-24 5 -35 5 -11 1 -22 4 -25 7 -12 16 -201 32 -410 35 -124 2 -234 2 -245 0z
m441 -37 c63 -6 114 -15 114 -20 0 -4 15 -8 34 -8 80 0 401 -77 482 -115 29
-14 58 -25 65 -25 19 0 132 -52 164 -76 17 -12 53 -31 80 -41 66 -25 241 -136
381 -242 154 -117 501 -494 531 -578 3 -10 21 -39 39 -65 53 -75 129 -217 163
-303 18 -44 41 -98 51 -120 35 -74 74 -209 101 -350 7 -38 16 -72 19 -75 15
-11 32 -187 37 -365 6 -195 -18 -506 -38 -513 -5 -2 -9 -13 -9 -24 0 -45 -83
-346 -106 -383 -7 -11 -24 -49 -37 -85 -33 -89 -145 -304 -190 -366 -20 -28
-37 -55 -37 -59 0 -4 -15 -26 -33 -49 -19 -23 -36 -48 -39 -56 -20 -54 -319
-370 -328 -346 -3 8 -48 59 -100 113 -53 54 -167 177 -255 273 -88 96 -191
209 -230 250 -39 41 -113 120 -165 175 -124 132 -251 264 -272 284 -10 8 -18
19 -18 22 0 4 -18 25 -40 47 -22 21 -40 43 -40 49 0 5 -10 15 -22 22 -13 6
-34 26 -48 42 -14 17 -52 59 -85 95 -130 138 -127 135 -111 153 16 18 42 110
52 188 10 83 -18 190 -70 260 -106 143 -189 190 -361 202 l-79 6 -29 70 c-16
39 -49 113 -72 165 -23 52 -51 115 -61 140 -10 25 -24 52 -32 62 -7 9 -22 45
-33 80 -11 34 -40 102 -64 151 -25 49 -45 92 -45 97 0 5 -11 34 -25 64 -14 30
-25 59 -25 65 0 5 -6 16 -14 24 -8 8 -36 70 -62 138 -26 68 -53 131 -60 139
-6 8 -28 58 -49 110 -20 52 -43 105 -50 116 -12 19 -57 123 -98 229 -7 17 -15
33 -20 36 -11 8 -77 189 -77 210 0 4 33 17 73 29 39 13 77 27 83 31 13 11 174
53 280 74 44 9 86 19 94 22 8 3 26 7 40 8 14 1 27 3 30 5 3 1 52 8 110 15 142
16 368 18 506 3z m-1214 -299 c21 -52 52 -123 69 -159 18 -36 38 -83 46 -105
7 -22 29 -71 48 -110 19 -38 51 -113 71 -165 21 -52 41 -97 45 -100 4 -3 29
-58 54 -123 25 -64 54 -131 65 -149 10 -18 28 -57 40 -87 11 -30 41 -96 65
-147 25 -52 45 -100 45 -108 0 -8 4 -17 9 -20 5 -3 12 -18 16 -33 4 -16 19
-55 35 -88 15 -33 45 -98 66 -145 21 -47 41 -86 46 -88 4 -2 8 -9 8 -15 0 -17
67 -186 83 -211 17 -25 117 -272 117 -287 0 -8 -105 -9 -352 -5 -528 10 -866
15 -1463 22 -297 4 -569 8 -605 8 l-65 1 -1 65 c-1 36 2 70 6 75 4 6 10 46 14
90 3 44 11 105 17 135 24 125 62 277 74 300 7 14 28 70 45 125 18 55 47 127
65 160 17 33 42 86 55 118 13 31 31 65 39 75 9 10 23 30 31 45 38 67 192 286
205 291 8 3 15 11 15 18 1 7 19 31 40 53 22 22 40 43 40 48 0 4 7 7 15 7 8 0
15 6 15 14 0 14 73 86 88 86 4 0 23 20 42 44 19 25 50 53 68 63 17 10 32 21
32 26 0 10 41 46 52 47 4 0 34 20 65 43 101 76 214 147 308 193 49 24 108 55
130 69 22 14 44 23 50 22 5 -2 27 -46 47 -98z m997 -1835 c36 -9 85 -30 108
-46 45 -30 134 -128 144 -156 3 -9 13 -35 23 -56 10 -22 20 -63 23 -91 6 -58
-19 -193 -42 -229 l-15 -23 -40 40 c-22 21 -40 43 -40 47 0 4 -10 15 -21 26
-12 10 -59 60 -103 110 -66 74 -87 105 -110 165 -51 135 -80 204 -88 207 -4 2
-8 8 -8 13 0 15 98 10 169 -7z m-1869 -320 c278 -4 570 -8 650 -9 80 -2 297
-4 483 -4 l337 -2 0 -175 c0 -130 3 -176 13 -179 6 -3 82 -7 167 -8 l155 -4
-2 -234 c-2 -129 -7 -398 -12 -599 -13 -530 -21 -933 -21 -1107 0 -133 -2
-152 -17 -155 -23 -4 -265 16 -283 25 -8 3 -60 13 -115 22 -55 9 -145 27 -200
42 -55 14 -111 28 -125 31 -14 3 -27 8 -30 11 -3 3 -43 19 -90 35 -47 16 -129
51 -183 77 -53 27 -102 49 -107 49 -6 0 -55 29 -111 66 -55 36 -111 69 -125
74 -13 5 -24 14 -24 20 0 6 -12 16 -27 22 -97 43 -543 482 -543 535 0 5 -11
22 -25 38 -49 58 -138 202 -183 295 -25 52 -46 97 -47 100 0 3 -10 23 -21 45
-12 22 -34 78 -49 125 -16 47 -39 113 -52 147 -27 71 -70 291 -79 403 -4 41
-10 80 -15 85 -8 11 -10 224 -2 237 2 4 43 5 91 3 48 -2 314 -7 592 -11z
m1820 -184 l0 -160 -37 -2 c-41 -2 -58 -2 -199 1 l-92 1 2 34 c0 19 4 38 9 42
4 4 7 61 7 126 l0 118 155 0 155 0 0 -160z m60 108 c0 -5 24 -33 53 -62 149
-150 234 -244 253 -284 10 -19 -41 -89 -86 -117 -21 -13 -57 -30 -79 -37 -23
-7 -41 -15 -41 -18 0 -7 -44 -4 -99 5 l-44 8 6 171 c4 94 7 215 7 270 0 86 2
97 15 86 8 -7 15 -17 15 -22z m374 -405 c13 -16 65 -71 114 -123 48 -52 126
-135 172 -185 46 -49 127 -135 179 -190 83 -86 244 -258 411 -438 25 -27 50
-56 55 -66 6 -9 36 -41 68 -70 31 -30 57 -58 57 -62 0 -5 48 -56 106 -114
l106 -106 -43 -37 c-82 -70 -164 -132 -176 -132 -7 0 -13 -5 -13 -10 0 -6 -12
-16 -27 -23 -16 -6 -32 -15 -38 -20 -37 -29 -159 -102 -205 -123 -30 -14 -89
-42 -130 -63 -41 -20 -115 -50 -165 -66 -49 -17 -92 -33 -95 -36 -12 -13 -257
-72 -375 -90 -44 -6 -89 -15 -100 -20 -11 -4 -94 -13 -184 -19 -132 -9 -166
-8 -173 2 -5 7 -7 51 -4 98 3 47 8 292 11 545 4 312 10 467 18 483 8 17 8 28
0 41 -7 11 -8 22 -3 27 10 10 15 408 6 423 -4 5 -1 13 5 16 5 4 10 23 9 44 -1
20 -2 68 -1 106 1 67 2 71 24 70 12 -1 30 -5 40 -9 9 -5 32 -5 50 -2 17 3 39
7 47 9 31 5 126 56 152 81 15 14 35 39 44 56 10 16 22 30 26 30 3 0 18 -12 32
-27z"/>
<path d="M11607 4001 c6 -22 -36 -33 -96 -25 -23 3 -42 1 -46 -5 -4 -7 14 -11
54 -11 37 0 61 -4 61 -11 0 -6 -24 -35 -54 -65 -52 -51 -56 -72 -8 -38 22 15
22 15 22 -26 0 -33 -4 -43 -20 -47 -17 -4 -30 -33 -16 -33 18 0 146 54 146 62
0 5 -8 7 -17 4 -73 -21 -73 -22 -73 25 0 28 8 54 23 76 25 38 37 42 37 13 0
-63 78 -170 124 -170 29 0 17 26 -19 40 -21 8 -42 26 -50 44 -8 16 -14 30 -13
31 2 1 20 12 41 24 20 13 35 27 31 32 -9 15 -26 10 -51 -13 -26 -24 -38 -18
-48 25 l-7 27 66 0 c36 0 66 4 66 9 0 15 -25 19 -71 11 -51 -10 -62 -5 -54 21
5 14 2 19 -13 19 -15 0 -19 -5 -15 -19z"/>
<path d="M11860 4009 c0 -6 -6 -9 -12 -6 -8 2 -20 -15 -30 -42 -19 -49 -10
-77 12 -36 19 36 30 31 30 -14 0 -35 -4 -40 -31 -50 -36 -12 -29 -36 8 -26 24
6 24 4 22 -41 -2 -31 1 -49 9 -52 8 -2 12 14 12 57 0 51 3 62 21 71 11 7 19
17 16 23 -2 7 9 26 24 42 24 24 29 27 29 12 0 -25 -17 -56 -48 -89 -19 -20
-22 -28 -11 -28 23 0 59 43 74 87 13 39 32 44 27 8 -5 -38 -57 -130 -79 -140
-21 -9 -32 -25 -17 -25 9 0 48 22 59 34 12 13 39 67 60 120 8 22 18 36 21 33
4 -3 6 -39 5 -79 -1 -77 -16 -104 -53 -94 -26 6 -32 -11 -9 -23 56 -30 77 3
87 130 l6 95 -68 -4 c-68 -4 -69 -4 -51 15 22 25 22 33 -2 33 -13 0 -20 -10
-25 -31 -4 -23 -10 -30 -22 -25 -9 3 -23 6 -31 6 -11 0 -14 7 -9 25 5 18 2 25
-9 25 -8 0 -15 -5 -15 -11z m60 -68 c0 -5 -7 -14 -15 -21 -8 -7 -13 -16 -10
-20 3 -5 1 -11 -5 -15 -6 -4 -10 8 -10 29 0 29 4 36 20 36 11 0 20 -4 20 -9z"/>
<path d="M11098 3323 c-22 -5 -24 -23 -3 -23 12 0 15 -15 15 -78 0 -43 -5 -83
-11 -89 -16 -16 25 -27 48 -14 10 6 12 11 6 11 -10 0 -13 27 -13 100 0 103 0
104 -42 93z"/>
<path d="M11265 3317 c-51 -26 -73 -143 -35 -185 44 -47 110 -13 110 56 0 45
-14 62 -52 62 -15 0 -28 4 -28 8 0 12 44 52 58 52 6 0 14 5 17 10 8 13 -43 11
-70 -3z m35 -108 c7 -11 9 -31 6 -44 -8 -30 -43 -39 -56 -15 -11 21 -13 63 -3
73 13 14 43 6 53 -14z"/>
<path d="M11381 3296 c-51 -82 0 -213 69 -176 27 14 40 50 40 106 0 64 -23
104 -59 104 -22 0 -34 -8 -50 -34z m70 -8 c15 -27 5 -126 -14 -145 -12 -12
-16 -11 -31 12 -19 29 -18 87 2 128 16 33 27 34 43 5z"/>
<path d="M11532 3318 c-27 -27 -5 -88 32 -88 25 0 49 22 53 48 5 39 -57 68
-85 40z m57 -21 c8 -11 6 -18 -8 -31 -16 -15 -19 -15 -31 -1 -10 12 -10 18 0
30 15 19 24 19 39 2z"/>
<path d="M9267 3904 c-4 -4 -7 -15 -7 -25 0 -16 -7 -18 -60 -14 -36 3 -60 1
-60 -5 0 -6 18 -10 40 -10 22 0 40 -3 40 -7 0 -4 -17 -24 -37 -45 -39 -40 -31
-50 15 -21 35 23 51 44 45 60 -4 10 16 13 88 13 87 0 92 1 77 17 -13 12 -20
13 -30 6 -7 -6 -29 -10 -48 -9 -27 1 -35 6 -35 20 0 20 -16 31 -28 20z"/>
<path d="M9640 3902 c-42 -2 -77 -8 -81 -14 -6 -9 -14 -9 -35 0 -34 16 -42 8
-19 -18 21 -23 55 -27 55 -5 0 20 6 19 46 -6 40 -25 43 -39 9 -39 -14 0 -25 5
-25 10 0 6 -4 10 -10 10 -6 0 -10 -36 -10 -89 0 -84 -1 -89 -20 -84 -23 6 -27
42 -8 73 17 27 5 34 -39 22 -34 -9 -36 -11 -15 -17 29 -10 31 -59 2 -77 -11
-7 -20 -18 -20 -25 0 -18 10 -16 32 4 19 17 21 17 50 0 33 -19 192 -25 203 -7
3 6 0 10 -8 10 -12 0 -13 17 -9 96 4 80 2 96 -9 92 -8 -2 -15 -14 -17 -26 -2
-14 -11 -22 -23 -22 -16 0 -18 5 -13 28 6 26 15 37 49 57 31 19 -5 30 -85 27z
m27 -38 c-3 -3 -12 -4 -19 -1 -8 3 -5 6 6 6 11 1 17 -2 13 -5z m-37 -64 c12
-8 9 -10 -13 -10 -16 0 -26 4 -22 10 8 12 16 12 35 0z m20 -40 c0 -5 -13 -10
-30 -10 -16 0 -30 5 -30 10 0 6 14 10 30 10 17 0 30 -4 30 -10z m60 0 c0 -5
-9 -10 -20 -10 -11 0 -20 5 -20 10 0 6 9 10 20 10 11 0 20 -4 20 -10z m-68
-62 c-2 -20 2 -28 13 -28 10 0 15 10 15 30 0 23 4 30 20 30 13 0 20 -7 20 -20
0 -11 -7 -20 -15 -20 -22 0 -18 -15 8 -28 18 -9 10 -11 -48 -11 l-71 -1 4 41
c4 37 6 40 31 37 22 -3 26 -7 23 -30z"/>
<path d="M9470 3841 c0 -5 14 -19 30 -31 24 -17 30 -18 30 -6 0 8 -10 22 -22
30 -26 18 -38 20 -38 7z"/>
<path d="M9310 3833 c0 -16 75 -74 79 -62 2 7 -11 26 -30 41 -33 28 -49 35
-49 21z"/>
<path d="M9211 3759 c-26 -35 -18 -55 9 -22 l18 22 12 -29 c16 -39 5 -53 -61
-76 -43 -16 -65 -34 -40 -34 18 0 96 31 111 45 14 13 23 11 75 -15 46 -23 62
-27 73 -18 11 10 5 15 -30 30 -24 10 -51 21 -60 24 -25 9 -22 30 7 62 26 28
31 42 16 42 -20 0 -41 -13 -41 -25 0 -7 -7 -18 -15 -25 -13 -11 -17 -8 -28 19
-6 17 -14 31 -17 31 -4 0 -16 -14 -29 -31z"/>
<path d="M9413 2113 l-33 -4 0 -102 c0 -56 -4 -118 -10 -136 -11 -40 -7 -49
15 -31 12 10 18 10 30 0 23 -19 45 5 45 51 l0 39 99 0 c56 0 103 4 106 10 4 6
-5 10 -19 10 -19 0 -26 5 -26 20 0 14 7 20 21 20 39 0 8 20 -34 22 l-42 1 38
4 c47 5 45 29 -2 25 -17 -1 -31 2 -31 8 0 5 17 10 38 10 21 0 42 3 45 7 11 10
-13 32 -29 26 -8 -3 -14 1 -14 11 0 23 -19 20 -39 -6 l-18 -22 -19 22 c-23 27
-37 28 -29 2 4 -14 2 -20 -9 -20 -8 0 -20 9 -26 20 -6 11 -14 19 -18 18 -4 0
-22 -3 -39 -5z m24 -57 c-4 -9 -11 -16 -17 -16 -11 0 -14 33 -3 44 11 10 26
-11 20 -28z m80 4 c18 0 33 -4 33 -10 0 -5 -18 -10 -41 -10 -26 0 -38 -4 -34
-11 4 -6 19 -7 35 -4 16 3 31 2 35 -4 4 -7 -10 -11 -39 -11 l-46 0 0 37 c0 29
3 34 12 25 7 -7 27 -12 45 -12z m-81 -56 c-3 -9 -6 -22 -6 -30 0 -8 -4 -14
-10 -14 -5 0 -10 14 -10 30 0 21 5 30 16 30 11 0 14 -5 10 -16z m58 -31 c8
-20 -1 -33 -19 -26 -8 3 -15 16 -15 29 0 26 24 24 34 -3z m56 -9 c0 -27 -14
-25 -30 7 -9 16 -7 19 10 19 15 0 20 -7 20 -26z m50 22 c0 -2 -3 -11 -6 -20
-9 -23 -24 -20 -24 4 0 11 7 20 15 20 8 0 15 -2 15 -4z m-172 -83 c-3 -42 -19
-51 -26 -14 -4 28 4 51 18 51 7 0 10 -15 8 -37z"/>
<path d="M9830 2108 c0 -15 -68 -78 -84 -78 -7 0 -21 -7 -32 -15 -18 -14 -16
-15 19 -9 l38 6 -3 -68 c-3 -60 -6 -70 -26 -80 -18 -9 -20 -13 -10 -22 15 -12
118 30 118 49 0 6 -7 8 -15 5 -8 -3 -22 -9 -30 -12 -11 -5 -15 1 -15 20 0 48
39 32 124 -50 22 -21 53 -25 66 -9 10 12 9 15 -6 15 -32 1 -72 40 -41 40 21 0
40 17 33 29 -5 8 -16 6 -36 -6 -23 -13 -33 -14 -52 -5 -21 11 -21 12 12 9 l35
-2 0 49 0 50 -70 -3 c-38 -1 -67 0 -63 4 13 13 126 11 144 -2 21 -15 60 -17
69 -3 3 6 -1 10 -10 10 -24 0 -87 35 -114 64 -26 27 -51 34 -51 14z m40 -37
c0 -9 -24 -21 -42 -21 -6 0 -6 6 2 15 14 16 40 20 40 6z m8 -78 c-16 -2 -40
-2 -55 0 -16 2 -3 4 27 4 30 0 43 -2 28 -4z m18 -34 c3 -5 -20 -9 -50 -9 -31
0 -56 4 -56 9 0 19 94 19 106 0z"/>
<path d="M9480 1875 l0 -40 75 0 75 0 0 43 0 42 -75 -2 -75 -3 0 -40z m120 5
c0 -17 -7 -20 -44 -20 -25 0 -48 5 -51 10 -12 19 6 30 51 30 37 0 44 -3 44
-20z"/>
<path d="M10887 2175 c-21 -44 -21 -55 -3 -55 8 0 27 -11 43 -24 25 -22 26
-26 15 -51 -11 -24 -16 -26 -48 -20 -31 5 -35 4 -32 -12 5 -25 36 -28 74 -8
58 31 51 109 -11 137 -29 13 -24 28 9 28 25 0 51 22 39 33 -3 4 -20 7 -38 7
-26 0 -34 -6 -48 -35z"/>
<path d="M11031 2184 c-28 -35 -30 -132 -3 -162 49 -57 112 -18 112 69 0 69
-26 119 -61 119 -18 0 -35 -9 -48 -26z m75 -50 c9 -50 -7 -109 -31 -109 -24 0
-38 46 -30 100 11 74 47 80 61 9z"/>
<path d="M11182 2198 c-27 -27 -5 -88 31 -88 30 0 47 18 47 50 0 31 -17 50
-45 50 -12 0 -26 -5 -33 -12z m54 -23 c4 -8 0 -22 -7 -31 -10 -13 -14 -13 -26
-1 -16 16 -7 47 13 47 8 0 17 -7 20 -15z"/>
<path d="M11089 1502 c-1 -4 -1 -15 0 -24 2 -15 -6 -18 -39 -18 -25 0 -39 -4
-35 -10 3 -5 22 -10 41 -10 l34 0 0 -59 c0 -66 -14 -86 -55 -79 -14 3 -28 1
-31 -3 -3 -5 20 -9 51 -9 66 0 65 -12 -4 -43 -43 -20 -44 -22 -19 -25 31 -4
100 37 93 56 -3 9 18 12 85 12 60 0 90 4 90 11 0 8 -14 10 -40 6 l-40 -5 0 69
0 69 31 0 c20 0 29 4 26 13 -2 6 -16 11 -31 10 -22 -2 -26 2 -21 16 3 12 0 21
-10 25 -11 4 -15 -1 -15 -19 0 -23 -4 -25 -46 -25 -40 0 -45 2 -39 19 3 12 0
21 -10 25 -8 3 -16 2 -16 -2z m109 -79 c-2 -13 -15 -19 -46 -21 -37 -3 -42 -1
-42 17 0 18 6 21 46 21 38 0 45 -3 42 -17z m2 -48 c0 -11 -12 -15 -45 -15 -33
0 -45 4 -45 15 0 11 12 15 45 15 33 0 45 -4 45 -15z m0 -43 c0 -18 -26 -32
-57 -32 -26 0 -33 4 -33 20 0 17 7 20 45 20 25 0 45 -4 45 -8z"/>
<path d="M11407 1502 c-2 -4 -7 -20 -11 -35 -4 -16 -18 -46 -31 -68 -30 -46
-33 -69 -7 -46 10 10 22 17 25 17 4 0 7 -36 7 -81 0 -51 4 -78 10 -74 6 3 10
37 10 75 0 64 7 80 36 80 2 0 4 -29 4 -65 0 -62 1 -66 28 -76 25 -10 132 -6
151 5 11 7 2 56 -10 56 -5 0 -9 -7 -9 -15 0 -18 -34 -27 -91 -23 l-44 3 0 65
c0 61 1 65 24 68 24 4 24 3 18 -57 -6 -58 6 -92 19 -56 4 10 13 13 25 10 23
-8 39 27 39 84 0 20 5 42 12 49 10 10 9 15 -3 27 -14 14 -17 14 -34 -5 -10
-11 -13 -20 -7 -20 7 0 12 -11 12 -24 0 -45 -13 -86 -26 -86 -11 0 -14 19 -12
92 1 64 -1 93 -10 96 -8 2 -12 -10 -12 -37 0 -30 -5 -43 -19 -51 -31 -16 -34
-13 -27 30 5 32 3 40 -9 40 -11 0 -15 -11 -15 -44 0 -40 -11 -56 -36 -56 -10
0 -2 58 11 84 8 15 15 30 15 31 0 7 -30 13 -33 7z"/>
<path d="M11210 1250 c19 -16 40 -29 47 -30 21 0 2 30 -28 45 -46 24 -56 17
-19 -15z"/>
<path d="M2185 5270 c-8 -14 3 -30 21 -30 8 0 14 9 14 20 0 21 -24 28 -35 10z"/>
<path d="M2930 4631 c0 -5 -9 -11 -20 -14 -16 -4 -20 -14 -20 -44 0 -27 6 -42
20 -51 15 -9 20 -23 20 -55 l-1 -42 -20 24 c-21 26 -45 18 -33 -12 7 -20 65
-51 73 -40 3 5 15 13 25 19 11 5 26 20 34 32 13 20 12 24 -22 58 -25 25 -36
45 -36 66 0 34 19 34 36 0 13 -26 24 -19 24 15 0 14 -7 26 -17 29 -10 3 -26
10 -35 15 -22 11 -28 11 -28 0z m-3 -68 c-3 -10 -5 -4 -5 12 0 17 2 24 5 18 2
-7 2 -21 0 -30z m43 -103 c0 -10 -4 -22 -10 -25 -6 -4 -10 7 -10 25 0 18 4 29
10 25 6 -3 10 -15 10 -25z"/>
<path d="M1959 4620 c-7 -5 -5 -9 5 -13 23 -9 23 -153 -1 -179 -15 -17 -13
-18 59 -18 65 0 77 3 96 23 25 27 28 50 8 66 -9 8 -12 25 -9 54 4 29 1 46 -8
54 -16 12 -134 22 -150 13z m116 -55 c0 -27 -4 -30 -32 -33 -36 -4 -43 12 -20
48 19 32 52 22 52 -15z m3 -67 c17 -17 15 -55 -4 -62 -9 -3 -27 -6 -40 -6 -21
0 -24 5 -24 33 0 19 3 37 7 40 11 11 48 8 61 -5z"/>
<path d="M3145 4616 c-59 -26 -90 -85 -80 -148 13 -73 97 -86 124 -20 18 42
-3 86 -42 90 -15 2 -27 6 -27 8 0 17 25 46 46 54 13 5 24 14 24 20 0 13 -8 12
-45 -4z m9 -112 c11 -28 6 -65 -9 -70 -24 -10 -45 15 -45 52 0 29 3 34 24 34
13 0 27 -7 30 -16z"/>
<path d="M3263 4618 c-55 -26 -55 -180 -1 -209 45 -24 107 67 93 133 -7 28
-50 89 -63 87 -4 0 -17 -5 -29 -11z m43 -35 c29 -38 8 -157 -26 -151 -11 2
-16 19 -18 63 -5 96 12 130 44 88z"/>
<path d="M2173 4434 c-8 -20 8 -36 26 -25 15 10 8 41 -9 41 -6 0 -13 -7 -17
-16z"/>
<path d="M2903 3788 c-40 -28 -41 -39 -3 -81 22 -25 30 -45 30 -71 0 -20 -4
-36 -9 -36 -10 0 -26 20 -26 33 0 4 -4 6 -10 5 -21 -6 -9 -42 20 -58 31 -18
38 -15 94 26 2 2 5 16 7 31 2 22 -3 33 -26 48 -23 15 -30 28 -30 53 0 36 7 40
25 15 13 -17 35 -10 35 11 0 9 -58 46 -73 46 -1 0 -17 -10 -34 -22z m24 -45
c-3 -10 -5 -4 -5 12 0 17 2 24 5 18 2 -7 2 -21 0 -30z m43 -114 c0 -10 -4 -19
-10 -19 -5 0 -10 12 -10 26 0 14 4 23 10 19 6 -3 10 -15 10 -26z"/>
<path d="M1988 3773 c-25 -26 -32 -53 -29 -111 1 -13 15 -37 32 -53 42 -39 86
-39 124 1 16 16 25 33 21 37 -4 4 -11 2 -15 -6 -5 -7 -19 -18 -32 -25 -31 -15
-76 5 -89 40 -19 50 16 123 59 124 8 0 27 -12 43 -27 29 -28 46 -26 33 4 -5
10 -7 23 -6 29 1 7 -21 12 -57 13 -51 1 -61 -2 -84 -26z"/>
<path d="M3091 3787 c-58 -29 -45 -122 17 -122 17 0 32 -3 32 -6 0 -4 -17 -23
-37 -43 -31 -30 -34 -36 -18 -36 50 0 114 101 100 158 -14 56 -47 73 -94 49z
m47 -19 c15 -15 16 -74 1 -83 -15 -10 -49 24 -49 50 0 20 17 45 30 45 3 0 11
-5 18 -12z"/>
<path d="M3241 3779 c-35 -38 -37 -106 -4 -171 38 -78 133 22 109 115 -7 30
-50 77 -70 77 -8 0 -24 -9 -35 -21z m59 -84 c0 -71 -6 -95 -25 -95 -24 0 -35
123 -14 161 19 37 39 4 39 -66z"/>
<path d="M2164 3615 c-7 -18 3 -35 22 -35 8 0 14 10 14 25 0 27 -27 35 -36 10z"/>
<path d="M2901 2975 c-34 -33 -35 -59 -6 -87 18 -16 25 -34 25 -60 0 -43 -9
-48 -28 -17 -10 15 -17 18 -24 11 -16 -16 -3 -39 31 -57 28 -14 33 -14 56 1
14 9 30 25 35 35 13 23 -3 64 -30 79 -14 8 -20 21 -20 45 0 42 16 46 32 8 11
-28 12 -28 16 -5 5 34 -4 52 -28 52 -11 0 -20 5 -20 10 0 16 -13 11 -39 -15z
m16 -47 c-3 -7 -5 -2 -5 12 0 14 2 19 5 13 2 -7 2 -19 0 -25z m43 -114 c0 -13
-4 -24 -10 -24 -5 0 -10 14 -10 31 0 17 4 28 10 24 6 -3 10 -17 10 -31z"/>
<path d="M1950 2981 c0 -6 5 -11 10 -11 6 0 10 -37 10 -90 0 -74 -3 -91 -17
-99 -14 -8 1 -10 56 -11 70 0 74 1 107 34 46 46 48 104 5 147 -25 25 -37 29
-84 29 -31 0 -62 3 -71 6 -9 3 -16 1 -16 -5z m128 -37 c12 -8 22 -24 22 -34 0
-10 5 -20 12 -22 9 -3 7 -14 -5 -41 -20 -41 -43 -57 -81 -57 -26 0 -26 1 -26
78 0 43 3 82 7 85 11 12 48 7 71 -9z"/>
<path d="M3075 2965 c-11 -8 -14 -15 -7 -15 16 0 17 -151 1 -167 -16 -16 34
-28 58 -14 10 6 13 11 6 11 -9 0 -13 29 -15 97 -2 55 -7 98 -13 100 -6 2 -20
-3 -30 -12z"/>
<path d="M3200 2955 c-27 -28 -20 -47 8 -22 10 10 26 17 35 17 26 0 22 -47 -5
-61 -22 -12 -22 -12 6 -26 21 -11 27 -20 24 -41 -3 -25 -7 -27 -46 -26 -34 1
-42 -2 -40 -15 5 -25 60 -26 91 -1 28 23 38 75 17 96 -8 8 -7 19 1 36 27 60
-43 94 -91 43z"/>
<path d="M3368 2938 c-10 -23 -17 -42 -15 -42 22 -7 63 -35 71 -48 18 -29 -5
-53 -48 -51 -25 2 -36 -2 -36 -12 0 -47 112 -10 118 40 6 46 -6 72 -38 85 -38
16 -34 33 10 40 52 8 50 30 -2 30 -41 0 -44 -2 -60 -42z"/>
<path d="M2180 2779 c0 -24 23 -21 28 4 2 10 -3 17 -12 17 -10 0 -16 -9 -16
-21z"/>
</g>
</svg>
