<?xml version="1.0" standalone="no"?>
<!DOCTYPE svg PUBLIC "-//W3C//DTD SVG 20010904//EN"
 "http://www.w3.org/TR/2001/REC-SVG-20010904/DTD/svg10.dtd">
<svg version="1.0" xmlns="http://www.w3.org/2000/svg"
 width="1491.000000pt" height="737.000000pt" viewBox="0 0 1491.000000 737.000000"
 preserveAspectRatio="xMidYMid meet">
<metadata>
Created by potrace 1.16, written by Peter Selinger 2001-2019
</metadata>
<g transform="translate(0.000000,737.000000) scale(0.100000,-0.100000)"
fill="#000000" stroke="none">
<path d="M1634 7006 c-3 -14 -3 -30 1 -37 5 -8 1 -9 -15 -4 -15 5 -25 2 -31
-6 -6 -11 -11 -11 -21 -1 -6 6 -20 12 -29 12 -14 0 -17 -11 -17 -75 0 -41 4
-75 9 -75 5 0 9 5 9 11 0 6 19 9 47 7 l47 -3 1 -40 c0 -22 -4 -46 -9 -52 -6
-9 -3 -13 7 -13 12 0 17 13 19 53 3 51 4 52 36 55 18 2 40 -2 48 -9 8 -6 16
-10 18 -8 2 2 6 36 8 74 3 67 2 70 -21 73 -32 5 -73 -7 -66 -18 3 -6 20 -10
37 -10 23 0 29 -4 24 -16 -3 -9 -6 -27 -6 -40 0 -21 -4 -24 -41 -24 l-40 0 4
80 c4 79 -6 115 -19 66z m-3 -65 c1 -3 2 -24 2 -46 2 -35 -1 -39 -20 -38 -13
0 -34 1 -48 2 -21 1 -25 6 -25 34 0 18 4 37 10 43 10 10 79 14 81 5z"/>
<path d="M1187 6994 c-7 -37 -8 -244 -2 -254 5 -8 11 -7 21 1 9 7 50 10 124 7
l110 -3 2 122 c0 68 1 128 2 134 1 7 -43 11 -126 12 -121 2 -127 1 -131 -19z
m73 -39 c0 -31 -3 -35 -25 -35 -22 0 -25 4 -25 35 0 31 3 35 25 35 22 0 25 -4
25 -35z m83 28 c-13 -2 -33 -2 -45 0 -13 2 -3 4 22 4 25 0 35 -2 23 -4z m70
-14 c7 -27 -1 -49 -19 -49 -9 0 -14 12 -14 35 0 39 24 49 33 14z m-77 -9 c8 0
14 -4 14 -10 0 -5 -11 -10 -25 -10 -14 0 -25 -4 -25 -10 0 -5 -4 -10 -10 -10
-11 0 -14 33 -3 44 4 3 13 4 21 1 7 -3 20 -5 28 -5z m29 -40 c3 -5 -3 -10 -15
-10 -12 0 -18 5 -15 10 3 6 10 10 15 10 5 0 12 -4 15 -10z m-125 -85 c0 -51
-3 -65 -15 -65 -12 0 -15 14 -15 65 0 51 3 65 15 65 12 0 15 -14 15 -65z m108
58 c-15 -2 -42 -2 -60 0 -18 2 -6 4 27 4 33 0 48 -2 33 -4z m77 -1 c-14 -9
-17 -90 -3 -98 6 -4 5 -10 -3 -15 -26 -17 -30 -9 -27 56 2 58 5 65 23 65 11 0
15 -3 10 -8z m-56 -55 l-2 -42 -6 35 c-6 32 -9 35 -44 36 -57 2 -55 11 3 13
l50 1 -1 -43z m-102 -14 c-3 -10 -5 -4 -5 12 0 17 2 24 5 18 2 -7 2 -21 0 -30z
m56 -3 c3 -13 0 -20 -10 -20 -8 0 -11 5 -8 10 3 6 1 10 -4 10 -6 0 -11 5 -11
10 0 19 28 10 33 -10z m25 -47 c-15 -2 -42 -2 -60 0 -18 2 -6 4 27 4 33 0 48
-2 33 -4z"/>
<path d="M2825 6999 c-22 -4 -57 -8 -77 -8 -31 -1 -39 -5 -44 -26 -3 -13 -12
-29 -20 -36 -8 -6 -11 -15 -8 -21 3 -5 12 -4 20 3 23 19 19 -88 -6 -134 -20
-36 -16 -49 8 -25 9 9 12 9 12 0 0 -21 20 -13 32 13 14 32 3 45 -17 19 -13
-18 -14 -18 -8 4 8 33 19 36 116 39 91 2 93 2 81 -44 -4 -16 -14 -23 -30 -23
-30 0 -31 -16 -3 -25 28 -9 48 12 60 64 11 48 6 63 -18 54 -13 -5 -15 -2 -10
16 4 18 1 24 -14 28 -14 4 -18 11 -14 24 5 16 1 19 -24 19 -20 0 -34 7 -41 21
-11 19 -9 20 27 17 32 -2 40 -8 53 -35 18 -39 30 -42 30 -9 0 14 -10 32 -22
40 -12 9 -17 16 -10 16 6 0 12 5 12 10 0 11 -28 11 -85 -1z m-27 -47 c3 -10
-5 -13 -29 -10 -18 2 -34 9 -37 16 -3 10 5 13 29 10 18 -2 34 -9 37 -16z m57
-42 c-3 -5 -31 -10 -61 -10 -30 0 -54 5 -54 10 0 6 27 10 61 10 37 0 58 -4 54
-10z m25 -45 c0 -12 -15 -15 -75 -15 -60 0 -75 3 -75 15 0 12 15 15 75 15 60
0 75 -3 75 -15z"/>
<path d="M3017 6874 l1 -136 126 -1 126 -2 0 117 c0 64 3 123 6 131 5 13 -13
15 -115 16 -66 1 -126 4 -133 6 -10 4 -13 -25 -11 -131z m68 72 c0 -18 -4 -32
-10 -30 -8 4 -13 -71 -7 -111 1 -6 22 -9 47 -7 28 3 45 0 45 -7 0 -6 6 -11 14
-11 8 0 18 -4 21 -10 4 -6 -14 -9 -47 -9 -29 1 -43 4 -30 6 12 2 22 9 22 14 0
12 -26 12 -68 0 l-32 -10 0 105 c0 101 1 104 23 104 18 0 22 -5 22 -34z m88
27 c-13 -2 -35 -2 -50 0 -16 2 -5 4 22 4 28 0 40 -2 28 -4z m73 -106 c1 -59
-2 -107 -7 -107 -14 0 -22 49 -16 101 4 29 2 49 -4 49 -5 0 -9 16 -7 35 1 26
6 35 18 33 12 -3 15 -23 16 -111z m-78 46 c-10 -2 -28 -2 -40 0 -13 2 -5 4 17
4 22 1 32 -1 23 -4z m10 -30 c-16 -2 -40 -2 -55 0 -16 2 -3 4 27 4 30 0 43 -2
28 -4z m0 -30 c-15 -2 -42 -2 -60 0 -18 2 -6 4 27 4 33 0 48 -2 33 -4z m-38
-33 c0 -5 -4 -10 -10 -10 -5 0 -10 5 -10 10 0 6 5 10 10 10 6 0 10 -4 10 -10z"/>
<path d="M4890 6985 c-6 -16 -9 -34 -6 -42 7 -17 29 -17 23 0 -2 6 0 20 5 31
7 12 6 22 -1 29 -7 7 -13 2 -21 -18z"/>
<path d="M4992 6966 c-6 -22 -18 -50 -26 -61 -15 -19 -16 -18 -13 15 1 26 -2
35 -13 35 -12 0 -14 -10 -12 -42 4 -42 3 -43 -27 -43 -29 0 -30 2 -33 48 -2
26 -7 47 -13 47 -6 0 -11 -46 -13 -112 -2 -96 0 -113 13 -113 8 0 15 5 15 11
0 6 17 9 43 7 l42 -3 -2 53 c-1 42 3 58 22 78 44 50 50 60 52 86 3 44 -22 40
-35 -6z m-64 -153 c3 -31 1 -33 -27 -33 -29 0 -31 3 -31 36 0 33 2 35 28 32
22 -2 28 -8 30 -35z"/>
<path d="M317 6982 c-18 -20 -22 -42 -8 -42 5 0 12 7 15 16 4 10 15 14 33 12
53 -6 37 -84 -31 -147 -14 -14 -26 -28 -26 -33 0 -4 27 -8 60 -8 49 0 61 3 70
20 10 19 9 20 -30 14 -22 -4 -40 -4 -40 -1 0 3 16 28 35 57 19 29 35 62 35 74
0 50 -79 76 -113 38z"/>
<path d="M508 6993 c-19 -5 -25 -23 -8 -23 6 0 10 -35 10 -85 0 -50 -4 -85
-10 -85 -5 0 -10 -4 -10 -10 0 -5 16 -10 35 -10 19 0 35 5 35 10 0 6 -4 10
-10 10 -6 0 -10 40 -10 100 0 55 -3 99 -7 99 -5 -1 -16 -3 -25 -6z"/>
<path d="M5190 6860 l0 -135 110 3 c77 3 115 0 125 -8 13 -11 15 -2 15 66 0
44 2 108 5 144 l4 65 -130 0 -129 0 0 -135z m65 80 c0 -23 5 -26 55 -31 54 -6
54 -6 -12 -5 l-68 2 0 -63 0 -63 28 6 c35 9 26 0 -15 -14 l-33 -11 0 105 c0
104 0 105 23 102 16 -2 22 -10 22 -28z m165 -80 c0 -67 -4 -110 -10 -110 -11
0 -12 10 -10 94 1 35 -3 62 -10 66 -15 9 -2 60 16 60 11 0 14 -23 14 -110z
m-70 80 c0 -5 -16 -10 -35 -10 -19 0 -35 5 -35 10 0 6 16 10 35 10 19 0 35 -4
35 -10z m13 -57 c-7 -2 -19 -2 -25 0 -7 3 -2 5 12 5 14 0 19 -2 13 -5z m-66
-29 c-3 -3 -12 -4 -19 -1 -8 3 -5 6 6 6 11 1 17 -2 13 -5z m63 -36 c0 -4 -20
-8 -45 -8 -25 0 -45 4 -45 9 0 5 20 9 45 8 25 -1 45 -5 45 -9z m-4 -48 l39
-19 -80 0 c-64 1 -73 3 -45 9 19 5 36 13 38 19 5 14 2 14 48 -9z"/>
<path d="M5610 6992 c0 -4 16 -22 35 -41 35 -33 35 -34 35 -9 0 18 -9 29 -35
41 -19 9 -35 13 -35 9z"/>
<path d="M7506 6938 c-3 -35 -7 -79 -9 -98 -1 -28 -7 -36 -24 -38 -30 -4 -32
33 -3 41 11 3 20 11 20 17 0 8 -9 10 -23 6 -17 -4 -24 -1 -24 9 0 9 11 18 24
21 27 7 32 27 5 22 -11 -2 -20 0 -20 5 -6 25 0 37 17 37 25 0 36 16 16 23 -22
9 -75 -22 -75 -43 0 -10 4 -21 9 -24 8 -5 9 -35 3 -98 -1 -12 -7 -15 -18 -11
-12 4 -15 2 -12 -8 3 -8 23 -16 49 -19 l44 -5 -43 -32 c-52 -38 -38 -54 17
-18 23 14 46 25 52 25 6 0 9 7 5 15 -4 11 2 15 26 15 17 0 28 -3 25 -6 -9 -9
82 -66 94 -58 15 9 0 25 -45 45 l-41 19 52 0 c57 0 75 13 43 30 -16 9 -20 21
-20 68 0 32 4 62 10 68 19 19 -4 33 -40 24 -32 -7 -33 -9 -12 -15 12 -4 22
-15 22 -24 0 -14 -10 -17 -55 -18 -37 0 -55 3 -52 11 2 6 16 12 31 14 15 2 25
9 23 15 -2 7 -13 11 -24 9 -15 -2 -20 2 -19 14 0 9 -4 19 -11 21 -7 3 -13 -17
-17 -59z m36 -43 c19 -7 9 -86 -11 -93 -11 -4 -13 4 -8 37 3 23 1 41 -5 41 -5
0 -6 5 -3 10 7 12 9 12 27 5z m86 -18 c3 -13 -3 -16 -22 -15 -25 2 -34 17 -19
32 12 12 38 2 41 -17z m-17 -37 c5 0 9 -9 9 -20 0 -15 -7 -20 -25 -20 -20 0
-25 5 -25 26 0 20 4 25 16 20 9 -3 20 -6 25 -6z"/>
<path d="M7911 6969 c-9 -26 -15 -29 -50 -29 -33 0 -40 3 -38 18 2 20 -1 22
-53 22 -22 0 -40 -4 -40 -10 0 -5 18 -10 41 -10 28 0 39 -4 37 -12 -3 -8 -20
-11 -47 -9 -29 2 -41 -1 -37 -8 4 -7 42 -11 91 -11 73 0 84 -2 78 -16 -4 -11
-13 -14 -32 -9 -41 12 -131 11 -128 0 2 -5 26 -10 53 -11 67 -1 89 -10 102
-39 12 -26 11 -27 -35 -52 -19 -9 -23 -9 -23 2 0 12 -75 27 -92 18 -11 -6 -10
-101 1 -107 5 -3 14 1 21 9 16 19 40 19 40 0 0 -24 36 -18 88 15 l47 29 31
-30 c23 -23 34 -27 40 -18 5 8 -4 22 -24 39 l-31 26 25 32 c49 62 12 50 -55
-18 -72 -74 -91 -84 -91 -47 1 17 13 28 50 45 28 13 50 28 50 34 0 6 11 26 25
43 13 18 21 35 18 39 -14 14 -31 4 -43 -25 -11 -26 -15 -28 -22 -14 -15 26 18
55 63 55 43 0 56 12 34 30 -12 10 -18 10 -30 0 -18 -15 -37 -3 -30 20 10 32
-22 32 -34 -1z m-111 -204 c0 -18 -5 -25 -20 -25 -15 0 -20 7 -20 25 0 18 5
25 20 25 15 0 20 -7 20 -25z"/>
<path d="M2368 6975 c-15 -9 -34 -32 -43 -53 -9 -20 -21 -45 -26 -54 -14 -28
-11 -43 16 -72 28 -30 70 -34 115 -11 60 31 92 152 52 188 -23 21 -78 21 -114
2z m92 -25 c27 -50 -39 -166 -91 -158 -30 4 -36 42 -18 105 18 67 84 99 109
53z"/>
<path d="M3582 6905 c-34 -46 -62 -89 -62 -93 0 -5 -12 -15 -27 -22 l-28 -12
24 -9 c33 -13 43 -8 48 22 4 25 28 49 50 49 15 0 18 -46 3 -55 -19 -12 1 -25
36 -25 35 0 42 8 23 27 -7 7 -7 37 0 99 5 49 6 92 2 97 -4 4 -35 -31 -69 -78z
m38 -20 c0 -16 -27 -32 -37 -21 -7 7 16 36 28 36 5 0 9 -7 9 -15z"/>
<path d="M8072 6848 c3 -122 5 -142 18 -138 34 10 190 11 210 0 28 -15 29 -10
32 145 3 112 1 129 -12 125 -19 -6 -197 -2 -228 5 l-23 6 3 -143z m64 70 c-16
-96 -17 -130 -5 -144 7 -9 8 -14 1 -14 -6 0 -17 -3 -26 -6 -14 -5 -16 6 -16
88 0 94 8 118 38 118 12 0 13 -9 8 -42z m114 32 c0 -5 -5 -10 -11 -10 -5 0 -7
-4 -4 -10 3 -5 1 -10 -4 -10 -6 0 -11 5 -11 10 0 6 -7 10 -15 10 -8 0 -15 -4
-15 -10 0 -5 -5 -10 -12 -10 -6 0 -8 3 -5 7 4 3 2 12 -4 20 -9 10 -3 13 35 13
25 0 46 -4 46 -10z m58 -103 c2 -85 0 -108 -10 -105 -9 3 -14 30 -16 81 -2 42
-6 77 -11 77 -4 0 -8 14 -8 30 0 26 4 30 21 28 20 -3 21 -10 24 -111z m-80 46
c-16 -2 -40 -2 -55 0 -16 2 -3 4 27 4 30 0 43 -2 28 -4z m10 -30 c-15 -2 -42
-2 -60 0 -18 2 -6 4 27 4 33 0 48 -2 33 -4z m22 -33 c0 -5 -25 -10 -55 -10
-30 0 -55 5 -55 10 0 6 25 10 55 10 30 0 55 -4 55 -10z m-32 -27 c-16 -2 -40
-2 -55 0 -16 2 -3 4 27 4 30 0 43 -2 28 -4z m12 -43 l20 -20 -57 1 c-32 1 -48
4 -35 6 12 2 22 11 22 19 0 20 27 17 50 -6z"/>
<path d="M8450 6956 c0 -30 -4 -35 -27 -39 -27 -4 -27 -4 -5 -12 27 -9 23 -29
-14 -87 -19 -30 -21 -38 -9 -38 8 0 24 15 35 33 l20 32 0 -77 c0 -45 4 -78 10
-78 6 0 10 29 10 68 0 75 6 91 26 64 12 -15 13 -15 14 9 0 15 -7 32 -15 39
-21 17 -19 30 6 30 12 0 19 5 16 13 -2 6 -12 11 -21 11 -14 -2 -17 5 -14 29 2
24 -1 33 -14 35 -14 3 -18 -4 -18 -32z"/>
<path d="M8858 6968 c-3 -20 -10 -23 -60 -26 -64 -3 -78 -19 -22 -24 l36 -3
-38 -37 c-31 -32 -34 -38 -18 -38 25 0 79 54 70 69 -5 8 22 11 88 11 95 0 110
6 81 30 -12 10 -19 10 -27 2 -14 -14 -88 -16 -88 -3 0 6 5 13 10 16 13 8 3 25
-15 25 -7 0 -15 -10 -17 -22z"/>
<path d="M9108 6960 c4 -28 2 -30 -27 -30 -19 0 -30 -4 -26 -10 3 -5 14 -10
25 -10 16 0 18 -7 13 -62 -3 -35 -13 -80 -23 -101 -18 -39 -15 -52 10 -37 10
6 21 4 32 -7 27 -24 46 -1 54 68 5 47 11 62 31 74 13 9 31 32 40 50 15 32 33
46 33 27 0 -4 14 -25 31 -45 22 -27 35 -35 42 -28 7 7 -3 24 -31 55 -23 25
-42 52 -42 61 0 8 -7 15 -15 15 -8 0 -15 -7 -15 -15 0 -9 -9 -33 -20 -54 -18
-35 -22 -38 -60 -37 -31 0 -40 5 -40 18 0 14 8 18 34 18 37 0 56 14 32 23 -8
3 -24 3 -37 0 -19 -5 -21 -3 -16 19 6 22 -5 38 -27 38 -1 0 -1 -13 2 -30z m36
-167 c-7 -65 -14 -76 -37 -67 -12 4 -14 11 -8 22 5 10 12 36 16 60 4 26 12 42
21 42 11 0 13 -11 8 -57z"/>
<path d="M3738 6963 c10 -17 1 -66 -24 -120 -8 -17 -14 -38 -14 -47 0 -9 -4
-16 -10 -16 -5 0 -10 -4 -10 -10 0 -13 91 -13 123 -1 14 5 31 23 39 39 13 24
13 32 2 47 -12 16 -11 21 6 37 46 43 8 88 -73 88 -42 0 -47 -2 -39 -17z m86
-19 c9 -23 -12 -54 -36 -54 -16 0 -19 4 -14 23 3 12 6 28 6 35 0 18 37 15 44
-4z m-16 -108 c4 -33 -10 -46 -52 -46 -21 0 -26 3 -19 13 6 6 13 25 17 40 9
40 50 35 54 -7z"/>
<path d="M3936 6959 c-57 -45 -75 -135 -36 -177 28 -29 88 -30 124 -1 34 27
28 34 -10 14 -65 -34 -113 0 -99 72 7 39 62 103 88 103 20 0 47 -27 47 -47 0
-24 27 2 33 32 4 24 3 25 -58 25 -48 0 -68 -5 -89 -21z"/>
<path d="M4127 6965 c8 -22 -29 -176 -44 -182 -30 -12 -9 -23 42 -23 70 0 116
19 144 59 12 17 19 31 15 31 -3 0 -1 6 5 14 17 20 2 74 -27 96 -32 26 -145 30
-135 5z m111 -17 c21 -21 15 -104 -10 -132 -24 -26 -98 -47 -98 -28 0 21 33
136 43 154 13 21 47 24 65 6z"/>
<path d="M4348 6968 c13 -16 -23 -168 -44 -184 -23 -18 -5 -24 73 -24 70 0 74
1 83 26 16 41 12 49 -14 25 -23 -22 -96 -41 -96 -25 0 5 5 26 11 47 11 39 32
48 48 20 12 -22 19 -15 27 25 4 21 3 32 -5 32 -6 0 -11 -4 -11 -10 0 -5 -9
-10 -20 -10 -23 0 -26 26 -6 53 17 22 62 22 74 1 8 -14 10 -12 14 10 l5 26
-75 0 c-58 0 -72 -3 -64 -12z"/>
<path d="M4538 6968 c7 -9 4 -35 -8 -83 -24 -92 -30 -105 -46 -105 -8 0 -14
-4 -14 -10 0 -5 17 -10 38 -10 l37 0 2 46 c1 26 6 51 11 56 14 14 52 0 52 -20
0 -26 17 -1 23 36 7 33 -1 40 -20 21 -6 -6 -20 -9 -31 -7 -19 3 -20 5 -7 36
12 27 19 32 49 32 23 0 39 -6 45 -17 9 -15 10 -14 11 10 l0 27 -76 0 c-60 0
-74 -3 -66 -12z"/>
<path d="M8598 6973 l-56 -4 -4 -132 c-2 -73 -3 -134 -1 -136 1 -2 10 2 19 10
21 17 76 13 91 -8 7 -9 15 -15 17 -12 9 9 9 283 0 284 -5 1 -34 -1 -66 -2z
m50 -57 c3 -23 0 -28 -13 -22 -9 3 -30 6 -46 6 -24 0 -29 4 -29 26 0 23 3 25
43 22 38 -3 42 -6 45 -32z m0 -68 c-3 -31 -6 -33 -45 -36 l-43 -3 0 35 c0 36
0 36 46 36 45 0 45 0 42 -32z m0 -79 c3 -22 -1 -27 -25 -31 -49 -7 -63 1 -63
33 0 29 1 30 43 27 37 -3 42 -6 45 -29z"/>
<path d="M6442 6953 c-13 -24 -82 -190 -82 -197 0 -3 41 -6 90 -6 50 0 90 4
90 8 0 17 -59 173 -74 193 -14 20 -15 20 -24 2z m29 -100 c9 -27 19 -56 23
-65 7 -15 3 -18 -20 -18 -55 0 -76 11 -70 34 10 39 36 96 44 96 4 0 15 -21 23
-47z"/>
<path d="M6628 6957 c13 -16 -23 -166 -44 -183 -19 -15 -7 -24 34 -24 29 0 33
2 22 15 -9 11 -9 22 0 50 10 30 16 35 41 35 43 0 83 42 74 78 -9 36 -20 42
-84 42 -42 0 -51 -3 -43 -13z m88 -32 c4 -15 1 -32 -6 -40 -15 -18 -61 -20
-55 -2 20 56 26 67 40 67 8 0 17 -11 21 -25z"/>
<path d="M6840 6944 c-41 -35 -60 -74 -60 -123 0 -29 6 -44 20 -54 l20 -14
-20 -18 c-34 -31 -24 -43 41 -50 64 -8 102 4 114 33 8 22 -5 30 -16 9 -11 -19
-73 -24 -99 -7 -19 12 -9 20 48 39 40 14 51 23 70 61 24 48 25 108 2 135 -21
25 -84 19 -120 -11z m98 -18 c6 -32 -8 -100 -26 -123 -9 -13 -31 -25 -49 -29
-28 -6 -34 -3 -44 20 -26 56 34 160 89 154 17 -2 28 -10 30 -22z"/>
<path d="M7030 6961 c0 -5 5 -11 12 -13 8 -3 7 -18 -5 -53 -10 -27 -17 -58
-17 -70 0 -12 -9 -34 -21 -49 l-20 -26 41 0 c34 0 40 3 32 13 -10 12 -2 81 11
93 6 6 47 -77 47 -94 0 -7 14 -12 32 -12 l31 0 -19 23 c-11 12 -25 34 -31 48
-10 24 -8 29 18 48 36 27 37 53 3 80 -27 22 -114 30 -114 12z m88 -23 c20 -20
14 -48 -14 -59 -34 -12 -37 -9 -29 35 7 37 22 45 43 24z"/>
<path d="M13057 6962 c-64 -2 -87 -6 -84 -15 2 -7 16 -13 32 -15 l28 -4 -7
-65 c-8 -75 -16 -95 -59 -140 -17 -18 -27 -36 -24 -40 13 -13 77 61 97 112 10
27 19 42 19 32 1 -11 9 -32 18 -49 18 -29 18 -29 -7 -49 -14 -10 -35 -22 -47
-25 -13 -3 -23 -11 -23 -16 0 -15 50 -1 84 24 l28 20 37 -20 c43 -24 83 -31
88 -16 2 7 -9 16 -24 22 -15 5 -37 17 -47 25 -19 14 -19 16 17 65 39 54 34 77
-12 65 -22 -6 -23 -4 -16 23 11 42 11 67 0 68 -5 1 -50 0 -98 -2z m73 -46 c0
-33 -13 -46 -46 -46 -31 0 -33 2 -31 30 2 28 5 30 40 30 25 0 37 -4 37 -14z
m40 -72 c0 -4 -10 -23 -22 -42 l-22 -35 -27 33 c-16 18 -26 37 -23 42 6 9 94
11 94 2z"/>
<path d="M14275 6950 c6 -18 2 -20 -40 -20 -28 0 -44 -4 -40 -10 3 -5 24 -10
46 -10 28 0 39 -4 39 -15 0 -8 7 -15 16 -15 14 0 14 -2 3 -16 -10 -12 -24 -15
-60 -10 -55 7 -70 -5 -32 -25 21 -11 27 -11 30 -1 6 15 43 16 43 0 0 -7 -23
-33 -50 -59 -57 -53 -54 -75 3 -28 l37 30 0 -43 0 -43 85 0 85 0 2 43 c0 23 1
48 2 54 1 10 -18 12 -70 10 -77 -4 -100 8 -62 32 27 17 107 20 125 4 9 -7 17
-6 27 5 13 13 13 17 2 26 -10 8 -16 9 -21 1 -3 -5 -31 -10 -62 -10 -50 0 -55
2 -50 20 3 13 0 20 -9 20 -8 0 -14 5 -14 10 0 6 11 10 25 10 16 0 25 -6 25
-15 0 -8 5 -15 10 -15 6 0 13 7 16 15 4 10 20 15 44 15 42 0 59 15 41 33 -9 9
-16 8 -31 -1 -27 -17 -37 -15 -43 8 -3 11 -12 20 -21 20 -9 0 -16 -8 -16 -20
0 -15 -7 -20 -26 -20 -21 0 -24 4 -19 20 5 17 2 20 -20 20 -22 0 -25 -3 -20
-20z m143 -207 c-3 -27 -6 -28 -61 -31 -44 -2 -59 0 -63 12 -13 35 3 46 66 46
61 0 61 0 58 -27z"/>
<path d="M5083 6945 c-8 -9 -9 -16 -3 -20 13 -8 13 -90 -1 -139 -10 -36 -12
-38 -44 -33 -18 3 -36 3 -39 -1 -6 -5 47 -32 64 -32 21 0 39 35 45 87 3 32 8
79 11 106 5 49 -8 62 -33 32z"/>
<path d="M9689 6938 c-19 -37 -131 -178 -140 -178 -5 0 -9 -4 -9 -10 0 -5 14
-10 31 -10 20 0 29 4 26 13 -8 23 13 47 43 47 30 0 42 -22 20 -35 -21 -13 -9
-25 26 -25 30 0 34 2 25 14 -12 14 -9 79 5 174 6 37 -10 43 -27 10z m-16 -90
c-3 -16 -12 -28 -19 -28 -18 0 -18 5 2 36 20 30 24 28 17 -8z"/>
<path d="M10355 6950 c-3 -4 2 -11 11 -14 12 -4 13 -10 6 -19 -6 -6 -18 -41
-27 -77 -9 -36 -24 -73 -32 -82 -15 -17 -12 -18 48 -18 87 0 112 17 107 74 -4
29 1 49 14 68 l19 28 -26 24 c-19 18 -37 24 -70 24 -25 0 -47 -3 -50 -8z m93
-43 c3 -21 -2 -29 -20 -36 -30 -11 -31 -10 -23 32 8 43 38 45 43 4z m-10 -93
c4 -28 -23 -54 -55 -54 -22 0 -24 3 -18 27 4 16 11 34 17 41 17 20 53 10 56
-14z"/>
<path d="M11127 6934 c-66 -43 -85 -122 -43 -171 19 -22 32 -28 63 -27 22 1
52 10 68 20 30 20 19 32 -14 15 -26 -15 -74 -14 -89 1 -16 16 -15 73 2 107 33
62 108 81 114 29 2 -16 6 -28 10 -28 10 0 34 58 28 68 -3 5 -27 9 -53 10 -36
1 -57 -5 -86 -24z"/>
<path d="M11861 6853 c-12 -49 -28 -93 -36 -99 -22 -16 -7 -24 45 -24 90 0
158 47 167 117 4 31 0 43 -21 66 -21 23 -33 27 -79 27 l-55 0 -21 -87z m129
38 c12 -18 16 -32 10 -36 -5 -3 -10 -17 -10 -30 0 -31 -44 -65 -86 -65 -32 0
-33 0 -22 33 6 17 12 44 15 60 3 15 10 27 15 27 6 0 8 9 5 20 -4 17 0 20 23
20 20 0 35 -9 50 -29z"/>
<path d="M12654 6928 c3 -28 -38 -170 -51 -175 -33 -13 -7 -23 60 -23 82 0 91
4 101 43 8 33 4 34 -28 2 -16 -16 -36 -25 -56 -25 -33 0 -35 3 -19 49 13 36
36 41 48 9 10 -26 15 -17 25 40 6 36 1 39 -26 15 -24 -22 -30 -13 -17 26 10
28 15 32 43 29 20 -2 30 -8 28 -16 -1 -8 3 -12 10 -10 7 3 12 8 11 11 -2 4 -3
14 -3 22 0 12 -14 15 -64 15 -45 0 -63 -4 -62 -12z"/>
<path d="M13503 6902 c-2 -46 -33 -152 -45 -152 -4 0 -8 -4 -8 -10 0 -5 13
-10 28 -10 25 0 28 4 29 35 2 59 45 89 62 43 9 -26 17 -16 26 35 7 37 -7 53
-19 22 -7 -20 -46 -20 -46 1 0 36 20 54 60 54 31 0 40 -4 40 -17 0 -21 13 -8
17 17 3 18 -3 20 -70 20 l-72 0 -2 -38z"/>
<path d="M5590 6826 l0 -106 53 -1 c28 0 60 -2 69 -4 25 -5 36 15 31 58 -6 44
-23 50 -23 7 0 -16 -3 -31 -7 -31 -104 -16 -111 -1 -89 165 0 6 -7 12 -16 14
-16 3 -18 -7 -18 -102z"/>
<path d="M1959 6913 c-5 -23 -3 -83 2 -83 18 0 41 41 35 65 -6 23 -34 36 -37
18z"/>
<path d="M8920 6889 c22 -18 23 -20 4 -14 -17 4 -23 -1 -33 -35 -15 -49 -26
-50 -48 -5 -20 41 -30 44 -39 10 -3 -14 -10 -25 -15 -25 -5 0 -9 -7 -9 -15 0
-20 17 -19 29 2 8 14 12 15 25 4 16 -14 22 -41 9 -41 -5 0 -23 -14 -42 -30
-18 -17 -42 -30 -52 -30 -11 0 -19 -5 -19 -11 0 -15 61 -1 85 21 45 40 57 41
115 5 50 -31 85 -36 77 -12 -4 12 -13 17 -74 43 -24 9 -43 19 -43 21 0 10 35
68 45 75 5 4 14 3 19 -2 6 -6 16 -10 23 -10 24 0 13 25 -20 48 -42 28 -72 29
-37 1z"/>
<path d="M5960 6885 c-15 -19 -6 -61 16 -69 21 -8 54 20 54 45 0 17 -27 39
-48 39 -5 0 -15 -7 -22 -15z m38 -23 c2 -7 -3 -12 -12 -12 -9 0 -16 7 -16 16
0 17 22 14 28 -4z"/>
<path d="M4990 6886 c0 -3 10 -22 22 -42 19 -32 23 -34 29 -18 4 13 0 27 -14
42 -19 20 -37 29 -37 18z"/>
<path d="M5536 6857 c-5 -20 -12 -40 -17 -43 -12 -7 -12 -44 0 -44 15 0 33 56
29 91 l-4 34 -8 -38z"/>
<path d="M5744 6880 c2 -8 10 -32 17 -52 14 -43 29 -50 29 -14 0 14 -12 38
-26 53 -14 15 -23 21 -20 13z"/>
<path d="M9944 6869 c-7 -13 34 -59 53 -59 17 0 17 34 1 47 -22 17 -47 22 -54
12z"/>
<path d="M7780 6863 c-60 -7 -59 -23 3 -23 46 0 55 3 51 15 -4 8 -9 14 -13 13
-3 0 -22 -3 -41 -5z"/>
<path d="M9260 6825 c23 -24 37 -32 44 -25 7 7 1 18 -19 35 -46 38 -64 30 -25
-10z"/>
<path d="M10708 6853 c6 -2 12 -13 12 -24 0 -10 5 -19 10 -19 16 0 11 37 -6
44 -9 3 -19 6 -22 5 -4 0 -1 -3 6 -6z"/>
<path d="M12260 6836 c0 -8 5 -18 10 -21 6 -3 10 3 10 14 0 12 -4 21 -10 21
-5 0 -10 -6 -10 -14z"/>
<path d="M627 6814 c-14 -15 -6 -34 14 -34 14 0 19 5 17 17 -3 18 -20 27 -31
17z"/>
<path d="M2782 6786 c2 -16 9 -31 16 -34 17 -5 15 20 -3 44 -15 18 -15 18 -13
-10z"/>
<path d="M2820 6798 c0 -19 18 -43 25 -36 9 9 -4 48 -16 48 -5 0 -9 -6 -9 -12z"/>
<path d="M2870 6803 c0 -5 4 -15 10 -23 11 -18 25 -7 17 15 -6 15 -27 21 -27
8z"/>
<path d="M9210 6777 c0 -1 20 -20 45 -40 46 -39 82 -43 48 -5 -25 28 -93 61
-93 45z"/>
<path d="M3003 6545 c2 -5 17 -12 33 -15 23 -4 29 -10 27 -30 -4 -63 -26 -128
-54 -163 -41 -50 -27 -63 17 -15 21 24 36 52 40 78 8 47 20 51 34 13 6 -16 15
-36 20 -45 14 -25 15 -23 -42 -49 -41 -18 -48 -24 -31 -27 12 -2 40 6 62 17
l40 21 47 -20 c45 -20 74 -21 74 -2 0 4 -20 14 -45 21 -46 14 -56 30 -30 51
15 13 45 67 45 82 0 5 -13 7 -30 3 -25 -5 -30 -3 -30 12 0 10 7 29 16 41 9 13
13 26 10 29 -10 10 -206 9 -203 -2z m155 -42 c-2 -22 -9 -29 -32 -31 -35 -4
-50 9 -41 37 5 16 15 21 41 21 33 0 35 -2 32 -27z m40 -77 c-14 -27 -39 -56
-48 -56 -7 0 -40 61 -40 73 0 3 22 5 50 5 47 0 49 -1 38 -22z"/>
<path d="M6039 6559 c0 -2 -3 -46 -6 -97 -5 -103 0 -133 19 -114 16 16 85 15
91 0 9 -28 15 1 19 99 l4 102 -48 -6 c-31 -4 -53 -1 -63 7 -8 7 -15 11 -16 9z
m101 -59 c0 -17 -7 -20 -40 -20 -33 0 -40 3 -40 20 0 17 7 20 40 20 33 0 40
-3 40 -20z m0 -51 c0 -17 -5 -20 -37 -17 -27 2 -39 8 -41 21 -3 14 4 17 37 17
35 0 41 -3 41 -21z m-2 -51 c-2 -19 -10 -24 -40 -26 -35 -3 -38 -1 -38 22 0
24 4 26 41 26 36 0 40 -2 37 -22z"/>
<path d="M6270 6557 c-1 -1 -3 -55 -5 -119 -2 -65 -6 -122 -10 -128 -3 -5 -18
-10 -33 -11 -16 0 -21 -3 -12 -6 8 -3 23 -12 32 -20 15 -13 18 -12 31 9 21 31
28 265 10 273 -7 2 -13 3 -13 2z"/>
<path d="M1335 6464 c-44 -47 -86 -91 -92 -99 -28 -30 -14 -36 85 -33 115 4
130 21 24 28 l-73 5 76 75 c41 41 75 82 75 92 0 10 -3 18 -7 18 -5 -1 -44 -39
-88 -86z"/>
<path d="M1545 6538 c-72 -40 -109 -144 -66 -187 19 -19 19 -20 0 -37 -32 -29
-23 -41 39 -48 59 -7 92 -1 92 15 0 5 7 9 15 9 8 0 15 7 15 15 0 8 -4 15 -9
15 -5 0 -16 -7 -25 -15 -18 -19 -36 -19 -70 -2 -28 15 -25 27 8 27 30 0 85 36
95 62 31 77 32 91 9 128 -14 24 -25 30 -50 30 -18 0 -42 -6 -53 -12z m73 -49
c4 -51 -31 -127 -62 -135 -40 -10 -56 1 -56 40 0 72 45 139 90 134 21 -3 25
-9 28 -39z"/>
<path d="M1719 6540 c-8 -6 -8 -9 1 -12 10 -3 10 -15 -3 -53 -8 -28 -19 -65
-22 -83 -4 -18 -13 -36 -21 -39 -26 -10 -15 -23 19 -23 31 0 33 2 33 33 0 53
10 67 46 67 39 0 51 7 67 37 13 25 0 72 -21 74 -62 5 -89 5 -99 -1z m91 -44
c0 -28 -18 -46 -47 -46 -20 0 -22 3 -12 27 6 15 15 33 20 40 15 17 39 5 39
-21z"/>
<path d="M1906 6525 c7 -29 -34 -165 -52 -172 -28 -10 -13 -23 27 -23 36 0 40
2 34 20 -9 28 4 82 18 77 7 -2 17 -23 23 -48 10 -40 13 -44 45 -47 31 -3 33
-3 18 15 -8 10 -21 31 -29 47 -14 27 -13 29 13 48 20 15 27 28 27 53 0 36 -1
37 -97 48 -29 3 -32 1 -27 -18z m91 -31 c5 -16 -11 -32 -39 -39 l-26 -7 10 41
c10 39 12 41 31 28 12 -8 22 -18 24 -23z"/>
<path d="M2362 6528 c-7 -7 -12 -21 -12 -32 1 -20 1 -20 14 -3 15 20 37 22 54
5 19 -19 14 -32 -19 -47 l-31 -14 29 -12 c59 -25 40 -85 -21 -69 -30 7 -43
-11 -17 -25 26 -14 79 -3 91 20 13 23 13 86 0 94 -6 4 -5 13 2 25 20 32 -4 70
-45 70 -18 0 -38 -5 -45 -12z"/>
<path d="M2517 6519 c-16 -23 -11 -60 10 -72 11 -7 10 -13 -7 -34 -39 -49 -17
-83 53 -83 23 0 37 6 41 16 11 28 6 71 -9 84 -13 11 -13 14 0 27 18 17 19 55
3 71 -20 20 -75 15 -91 -9z m68 -9 c8 -13 -3 -50 -15 -50 -12 0 -23 37 -15 50
3 5 10 10 15 10 5 0 12 -5 15 -10z m-7 -115 c16 -36 15 -45 -7 -45 -22 0 -32
20 -24 49 7 28 17 26 31 -4z"/>
<path d="M2659 6517 c-15 -33 4 -77 34 -77 40 0 59 38 41 84 -10 25 -62 21
-75 -7z m59 -25 c3 -17 -2 -22 -17 -22 -14 0 -21 6 -21 18 0 38 33 41 38 4z"/>
<path d="M3683 6523 c-9 -25 -135 -183 -146 -183 -4 0 -5 -4 -2 -10 9 -15 58
-13 52 3 -8 23 13 47 43 47 23 0 30 -4 30 -20 0 -11 -4 -20 -10 -20 -5 0 -10
-4 -10 -10 0 -5 16 -10 35 -10 19 0 35 5 35 10 0 6 -5 10 -10 10 -6 0 -8 16
-5 38 14 111 15 162 5 162 -6 0 -14 -8 -17 -17z m-13 -76 c0 -19 -27 -53 -35
-45 -4 4 1 18 12 32 21 29 23 31 23 13z"/>
<path d="M3780 6532 c0 -6 5 -12 11 -14 14 -5 -26 -159 -46 -174 -8 -6 -15
-14 -15 -18 0 -10 106 -7 134 4 35 13 54 55 38 81 -10 16 -10 23 3 35 17 18
20 70 4 79 -19 13 -129 18 -129 7z m98 -42 c4 -25 -20 -50 -46 -50 -10 0 -12
7 -7 27 13 55 47 69 53 23z m-14 -82 c8 -13 8 -23 0 -35 -11 -18 -60 -41 -68
-32 -3 3 0 24 6 47 9 35 15 42 31 40 11 -2 25 -11 31 -20z"/>
<path d="M4323 6528 c-13 -6 -23 -17 -23 -24 0 -7 -10 -20 -22 -28 -12 -9 -18
-16 -13 -16 6 0 5 -4 -1 -8 -11 -6 -18 -40 -15 -68 1 -6 12 -23 26 -38 17 -19
34 -26 60 -26 38 0 95 24 95 40 0 14 -12 12 -34 -5 -45 -34 -106 -9 -106 43 1
45 36 111 64 118 41 10 61 1 64 -29 6 -47 32 -25 32 27 0 21 -5 23 -52 24 -29
0 -63 -4 -75 -10z"/>
<path d="M4504 6516 c9 -37 -35 -176 -56 -176 -4 0 -8 -5 -8 -11 0 -8 23 -10
76 -7 88 6 121 25 141 82 26 76 -11 124 -102 133 l-58 6 7 -27z m111 -26 c39
-43 -5 -133 -72 -146 -27 -5 -33 -3 -33 11 0 14 20 94 35 143 7 19 50 14 70
-8z"/>
<path d="M5129 6532 c-62 -3 -66 -5 -62 -23 9 -31 -28 -151 -51 -171 -20 -17
-18 -17 70 -18 91 0 92 0 98 26 9 33 0 43 -17 20 -14 -19 -97 -35 -97 -19 0 6
5 24 11 42 11 32 39 43 39 16 0 -25 15 -17 27 15 8 22 8 32 0 37 -6 3 -13 1
-15 -5 -6 -18 -32 -15 -32 4 0 52 58 74 81 32 12 -23 13 -23 20 7 5 16 5 32 1
35 -4 3 -37 4 -73 2z"/>
<path d="M5305 6530 c-41 -3 -65 -8 -57 -13 13 -9 17 -49 5 -61 -4 -3 -8 -12
-9 -19 -6 -32 -36 -102 -47 -109 -7 -4 4 -8 27 -8 31 0 37 3 32 16 -3 9 -3 21
1 27 4 7 8 14 9 17 8 43 47 54 59 18 6 -20 8 -18 16 16 11 46 8 52 -20 35 -26
-17 -33 -9 -25 29 6 28 10 32 40 32 23 0 38 -7 48 -22 12 -17 16 -19 16 -6 0
9 3 23 6 31 7 19 -16 23 -101 17z"/>
<path d="M6870 6501 c-24 -16 -49 -39 -56 -52 -19 -34 -17 -104 2 -124 16 -15
15 -18 -4 -44 l-21 -29 37 -6 c67 -11 109 -7 133 13 13 11 21 23 17 27 -4 4
-14 1 -22 -5 -18 -15 -98 -10 -103 6 -3 7 8 15 24 19 57 12 64 16 91 51 37 49
38 126 1 154 -33 25 -49 24 -99 -10z m77 -7 c31 -31 8 -130 -36 -154 -11 -5
-28 -10 -39 -10 -55 0 -53 89 4 146 39 38 49 41 71 18z"/>
<path d="M7123 6523 c-12 -2 -41 -25 -63 -50 -33 -38 -40 -53 -40 -87 0 -62
18 -81 75 -80 36 1 52 7 75 29 26 25 53 79 55 110 1 17 -22 55 -41 70 -20 15
-23 15 -61 8z m46 -29 c7 5 11 -8 11 -41 0 -77 -49 -139 -98 -126 -51 13 -29
125 31 161 19 11 35 15 38 9 4 -5 12 -6 18 -3z"/>
<path d="M6190 6430 c0 -53 4 -90 10 -90 6 0 10 31 10 74 0 41 5 78 10 81 17
10 11 25 -10 25 -19 0 -20 -7 -20 -90z"/>
<path d="M6657 6422 c-53 -53 -97 -101 -97 -105 0 -4 45 -7 100 -7 116 0 137
18 26 22 l-74 3 79 83 c73 77 91 102 71 102 -4 0 -51 -44 -105 -98z"/>
<path d="M7289 6510 c-1 -3 -1 -9 0 -13 4 -23 -41 -163 -55 -174 -15 -11 -12
-13 27 -13 24 0 39 4 32 8 -15 9 4 95 20 89 6 -2 17 -21 24 -43 19 -53 36 -69
59 -55 11 6 14 11 8 11 -7 0 -19 19 -29 42 l-16 42 25 19 c29 21 34 58 10 78
-15 12 -103 20 -105 9z m84 -32 c8 -22 -13 -48 -38 -48 -27 0 -28 3 -19 38 7
24 49 32 57 10z"/>
<path d="M2110 6440 c0 -6 33 -10 80 -10 47 0 80 4 80 10 0 6 -33 10 -80 10
-47 0 -80 -4 -80 -10z"/>
<path d="M4005 6442 c-16 -16 3 -22 75 -22 64 0 80 3 80 15 0 11 -15 14 -75
13 -41 0 -77 -3 -80 -6z"/>
<path d="M5670 6436 c0 -8 5 -18 10 -21 8 -5 8 -11 1 -19 -17 -20 0 -28 21 -9
10 9 18 27 18 40 0 18 -5 23 -25 23 -15 0 -25 -6 -25 -14z"/>
<path d="M4750 6430 c0 -6 33 -10 80 -10 47 0 80 4 80 10 0 6 -33 10 -80 10
-47 0 -80 -4 -80 -10z"/>
<path d="M7490 6421 c0 -15 28 -21 96 -21 50 0 64 3 64 15 0 12 -16 15 -80 15
-44 0 -80 -4 -80 -9z"/>
<path d="M2110 6380 c0 -6 33 -10 80 -10 47 0 80 4 80 10 0 6 -33 10 -80 10
-47 0 -80 -4 -80 -10z"/>
<path d="M4007 6383 c-18 -17 0 -23 73 -23 64 0 80 3 80 15 0 12 -15 15 -73
15 -41 0 -77 -3 -80 -7z"/>
<path d="M4783 6383 c-63 -8 -32 -23 47 -23 47 0 80 4 80 10 0 6 -12 10 -27
10 -16 0 -37 2 -48 4 -11 2 -35 1 -52 -1z"/>
<path d="M7490 6361 c0 -15 50 -22 106 -15 81 10 65 24 -26 24 -44 0 -80 -4
-80 -9z"/>
<path d="M6037 6314 c-20 -23 -24 -34 -14 -34 15 0 67 47 67 61 0 19 -26 6
-53 -27z"/>
<path d="M6131 6315 c12 -19 25 -33 30 -30 13 8 0 32 -27 49 l-23 16 20 -35z"/>
<path d="M2086 5665 c-20 -41 -36 -79 -36 -84 0 -5 -7 -14 -15 -21 -23 -19
-18 -30 15 -30 28 0 29 2 23 31 l-6 30 44 -3 c41 -3 44 -5 42 -30 -2 -26 1
-28 39 -28 39 0 40 1 25 18 -8 9 -30 56 -47 105 -18 48 -36 87 -40 87 -4 0
-24 -34 -44 -75z m53 -42 c1 -13 -31 -18 -42 -7 -3 4 1 18 10 31 16 24 17 24
24 7 4 -11 8 -25 8 -31z"/>
<path d="M2970 5728 c-21 -9 -22 -12 -7 -15 14 -4 17 -16 17 -80 0 -60 -4 -78
-17 -89 -16 -12 -13 -13 25 -14 23 0 42 5 42 10 0 6 -4 10 -10 10 -6 0 -10 38
-10 95 0 52 -3 95 -7 94 -5 0 -19 -5 -33 -11z"/>
<path d="M3105 5716 c-20 -20 -25 -35 -25 -76 0 -28 7 -65 16 -81 13 -26 20
-30 52 -27 45 4 62 31 62 104 0 85 -57 128 -105 80z m57 -28 c6 -13 13 -34 14
-48 3 -29 -22 -90 -37 -90 -17 0 -31 54 -25 98 9 68 25 81 48 40z"/>
<path d="M3270 5733 c-26 -9 -40 -35 -40 -73 0 -43 14 -60 52 -60 35 0 35 -12
1 -45 -26 -24 -27 -25 -6 -25 11 0 35 16 52 35 26 30 31 44 31 85 0 41 -4 52
-26 69 -27 21 -37 24 -64 14z m50 -44 c15 -27 9 -63 -12 -67 -22 -4 -52 41
-43 68 8 26 41 26 55 -1z"/>
<path d="M3387 5723 c-12 -12 -7 -60 7 -72 8 -7 27 -11 43 -9 34 4 54 47 33
72 -12 16 -71 22 -83 9z m63 -33 c0 -13 -7 -20 -19 -20 -22 0 -35 15 -26 30
12 19 45 11 45 -10z"/>
<path d="M8934 5663 c0 -49 -30 -155 -46 -165 -8 -4 2 -8 25 -8 24 0 36 4 32
10 -4 6 -4 28 0 49 6 37 8 38 44 37 48 -1 71 18 71 58 0 44 -16 56 -74 56
l-51 0 -1 -37z m94 -9 c3 -24 -31 -59 -52 -51 -12 5 -12 11 2 42 18 39 45 44
50 9z"/>
<path d="M3762 5648 c-27 -27 -3 -73 35 -66 27 5 25 72 -2 76 -11 1 -26 -3
-33 -10z m38 -28 c0 -19 -11 -26 -23 -14 -8 8 3 34 14 34 5 0 9 -9 9 -20z"/>
<path d="M2250 5550 c0 -11 7 -20 15 -20 8 0 15 9 15 20 0 11 -7 20 -15 20 -8
0 -15 -9 -15 -20z"/>
<path d="M3230 5524 c0 -8 5 -12 10 -9 6 3 10 10 10 16 0 5 -4 9 -10 9 -5 0
-10 -7 -10 -16z"/>
<path d="M8947 5423 c-3 -5 -26 -98 -51 -208 -26 -110 -51 -208 -57 -218 -5
-10 -19 -61 -30 -115 -12 -53 -25 -113 -29 -132 -4 -19 -13 -59 -19 -88 -6
-29 -15 -61 -21 -72 -6 -10 -9 -23 -9 -27 1 -4 -3 -20 -9 -35 -14 -34 -82
-314 -82 -338 0 -10 -5 -22 -10 -25 -6 -4 -8 -10 -5 -15 3 -5 -25 -34 -62 -66
-38 -31 -85 -77 -106 -101 -21 -23 -45 -43 -53 -43 -8 0 -14 -5 -14 -11 0 -6
-21 -32 -47 -59 -27 -26 -52 -55 -58 -63 -5 -9 -47 -67 -92 -130 -46 -63 -83
-120 -83 -126 0 -6 -9 -20 -19 -30 -11 -11 -38 -63 -60 -118 -23 -54 -49 -114
-60 -133 -21 -39 -58 -176 -86 -315 -10 -49 -21 -92 -25 -95 -12 -10 -27 -158
-29 -295 -2 -143 12 -312 28 -343 5 -9 17 -57 26 -107 28 -153 55 -247 92
-323 l36 -73 -17 -67 c-10 -37 -21 -76 -26 -87 -5 -11 -18 -60 -30 -110 -12
-49 -25 -106 -30 -125 -5 -19 -14 -60 -21 -90 -6 -30 -15 -60 -20 -66 -5 -6
-6 -14 -2 -17 3 -4 1 -12 -4 -19 -6 -7 -13 -26 -17 -41 -13 -55 -5 -57 239
-56 123 1 227 -1 232 -4 4 -3 47 -5 94 -4 l87 1 63 -55 c67 -59 261 -199 275
-199 10 0 109 -50 157 -78 18 -11 77 -34 132 -53 55 -19 102 -37 105 -40 9
-11 175 -49 290 -66 79 -12 178 -17 315 -17 201 0 308 12 470 49 39 9 82 19
98 22 15 3 27 9 27 13 0 5 15 12 33 15 47 10 238 85 267 105 14 10 52 31 85
47 72 35 187 116 273 190 l62 55 895 -2 c650 0 895 2 895 10 0 11 -68 92 -162
193 -27 28 -48 55 -48 59 0 5 -19 28 -43 51 -23 24 -52 55 -64 71 -20 25 -73
83 -298 326 -38 41 -149 163 -245 269 -96 107 -182 201 -191 210 -8 9 -25 30
-37 48 -21 30 -22 35 -11 155 6 67 8 166 4 218 -7 116 -24 260 -32 280 -3 8
-7 20 -8 25 -35 157 -93 348 -107 353 -4 2 -6 7 -3 12 3 5 -4 23 -14 42 -11
18 -29 57 -41 87 -11 29 -33 72 -48 95 -15 22 -33 52 -40 66 -7 14 -42 64 -77
112 -36 48 -65 92 -65 97 0 6 -16 22 -35 37 -19 14 -35 32 -35 38 0 15 -140
152 -206 202 -27 20 -55 46 -62 56 -7 10 -18 18 -24 18 -6 0 -46 27 -89 59
-44 33 -105 72 -136 87 -32 14 -60 30 -63 34 -3 5 -7 8 -10 8 -3 0 -32 12 -65
27 -33 15 -90 37 -126 50 -37 13 -77 29 -90 35 -24 14 -97 31 -224 54 -159 29
-226 36 -349 36 l-124 0 -64 66 c-35 36 -64 69 -66 74 -2 5 -22 28 -45 52 -23
24 -71 77 -107 118 -36 41 -80 89 -97 106 -18 18 -33 37 -33 42 0 6 -3 12 -7
14 -5 2 -51 50 -103 108 -52 58 -99 110 -105 116 -191 208 -188 205 -198 187z
m58 -75 c16 -18 65 -73 110 -123 45 -49 92 -103 106 -119 13 -17 34 -40 47
-52 12 -12 36 -39 52 -60 17 -22 55 -66 85 -99 30 -33 111 -122 180 -199 69
-76 125 -143 125 -147 0 -5 -14 -9 -30 -9 -86 0 -442 -71 -469 -93 -8 -7 -17
-11 -20 -11 -7 2 -29 -5 -56 -16 -11 -5 -51 -21 -90 -36 -85 -33 -250 -125
-325 -182 -30 -23 -55 -40 -57 -39 -3 4 77 328 88 352 10 24 41 150 74 302 14
62 29 121 34 130 9 16 21 68 87 356 10 42 21 77 24 77 4 0 19 -15 35 -32z
m830 -925 c44 -48 134 -146 200 -217 66 -72 157 -171 203 -221 46 -49 107
-115 137 -145 30 -30 55 -59 55 -65 0 -14 67 -85 79 -85 6 0 11 -6 11 -14 0
-7 20 -32 45 -55 25 -23 45 -44 45 -47 0 -4 60 -70 133 -148 72 -78 227 -245
342 -371 116 -126 237 -258 270 -293 33 -35 64 -70 68 -79 5 -8 32 -38 60 -68
29 -29 66 -70 82 -90 17 -21 56 -64 88 -97 31 -32 57 -62 57 -66 0 -3 21 -28
47 -54 38 -39 44 -50 34 -62 -7 -8 -11 -20 -10 -28 3 -17 -8 -74 -33 -168 -11
-41 -25 -98 -33 -126 -7 -28 -29 -84 -48 -125 -19 -41 -37 -84 -41 -96 -7 -23
-7 -23 -79 15 -83 43 -192 92 -206 92 -5 0 -16 6 -23 13 -12 13 -125 65 -205
97 -18 7 -33 16 -33 21 0 5 -6 9 -13 9 -14 0 -62 22 -242 111 -56 27 -105 49
-110 49 -10 0 -142 63 -337 161 -54 27 -102 49 -108 49 -13 0 -122 50 -140 64
-8 7 -55 30 -105 51 -49 21 -97 44 -105 50 -28 22 -150 75 -173 75 -12 0 -43
-17 -68 -37 -25 -21 -63 -51 -84 -68 -21 -16 -55 -44 -74 -60 -75 -64 -229
-185 -235 -185 -6 0 -454 -355 -491 -389 -11 -11 -39 -32 -61 -47 -57 -40
-146 -110 -301 -236 -72 -59 -136 -108 -142 -108 -5 0 -18 -11 -29 -25 -11
-14 -22 -25 -25 -25 -6 0 -87 119 -87 128 0 4 -15 30 -32 57 -18 28 -44 73
-57 101 l-23 52 26 113 c14 63 30 123 36 134 5 11 30 106 55 210 25 105 50
199 55 210 5 11 17 56 26 100 25 130 75 328 90 362 8 17 14 38 14 47 0 9 7 42
15 74 8 31 26 109 41 172 15 63 30 120 35 125 4 6 26 91 48 190 23 99 48 196
56 215 8 19 19 58 25 85 22 119 71 322 82 343 9 18 206 162 222 162 2 0 33 16
68 36 69 39 217 100 266 110 18 4 32 10 32 14 0 3 6 7 13 8 6 0 46 10 89 22
88 24 300 58 373 59 l50 1 80 -87z m350 63 c120 -21 228 -48 236 -60 4 -5 14
-6 22 -3 8 3 18 2 23 -3 5 -4 38 -18 74 -30 167 -57 384 -182 544 -316 34 -27
69 -53 79 -57 11 -4 21 -15 24 -25 3 -9 27 -34 54 -55 27 -20 49 -44 49 -51 0
-8 20 -32 45 -54 25 -22 45 -43 45 -47 0 -4 27 -43 60 -86 33 -43 74 -105 90
-138 17 -33 34 -61 39 -63 11 -4 117 -246 142 -323 19 -60 69 -268 75 -315 2
-14 8 -52 14 -85 12 -65 16 -442 6 -453 -11 -10 -40 12 -54 41 -7 15 -31 41
-53 59 -21 17 -39 36 -39 41 0 6 -21 33 -47 61 -27 28 -93 101 -148 161 -55
60 -131 143 -170 185 -174 188 -498 543 -593 649 -31 35 -76 83 -99 105 -24
23 -43 46 -43 51 0 6 -22 33 -49 60 -54 54 -339 363 -400 434 -11 13 -67 73
-124 135 -57 61 -123 133 -148 160 l-44 49 150 -6 c83 -3 191 -13 240 -21z
m-1590 -438 c-39 -174 -69 -285 -77 -295 -6 -7 -7 -20 -4 -29 4 -9 2 -22 -3
-28 -5 -6 -28 -96 -52 -201 -24 -104 -46 -192 -49 -195 -9 -8 -25 -69 -65
-240 -19 -85 -39 -164 -44 -175 -9 -19 -43 -160 -87 -365 -10 -47 -21 -87 -24
-90 -3 -3 -28 -95 -55 -205 -27 -110 -52 -207 -57 -215 -10 -19 -48 -185 -48
-211 0 -10 -3 -19 -7 -19 -26 1 -99 251 -124 423 -6 45 -17 88 -23 96 -15 20
-15 462 0 482 6 8 15 37 19 64 14 101 68 331 87 370 11 22 33 74 49 115 35 87
131 263 164 300 12 14 46 59 74 101 45 66 306 339 325 339 3 0 4 -10 1 -22z
m1223 -1550 c37 -18 69 -36 70 -40 2 -4 10 -8 17 -8 7 0 44 -14 81 -31 96 -43
113 -51 162 -77 l44 -23 -24 -21 c-45 -40 -104 -75 -163 -98 -33 -12 -75 -30
-93 -38 -18 -8 -36 -12 -39 -8 -3 3 -12 1 -18 -4 -19 -16 -192 -23 -255 -12
-54 10 -187 57 -223 78 -15 9 1 25 119 120 76 60 146 112 156 116 10 4 18 12
18 17 0 9 67 61 78 61 2 0 33 -14 70 -32z m499 -234 c37 -19 106 -52 153 -71
47 -20 96 -44 110 -54 14 -9 70 -36 125 -59 55 -23 107 -48 115 -54 8 -7 40
-23 70 -35 52 -22 105 -47 355 -166 61 -29 157 -75 215 -103 58 -27 115 -53
128 -57 22 -6 22 -8 8 -30 -16 -24 -37 -61 -86 -148 -47 -85 -214 -291 -308
-379 -65 -62 -71 -64 -189 -44 -18 3 -35 1 -38 -5 -4 -6 -13 -5 -24 1 -10 5
-20 7 -22 5 -7 -6 -71 -6 -1283 -6 l-1129 1 -97 97 c-53 54 -110 119 -128 145
-28 41 -31 50 -20 68 7 11 16 20 19 20 4 0 53 37 110 82 57 45 109 85 114 90
6 4 26 21 45 38 19 17 56 45 83 62 26 17 47 35 47 39 0 4 21 21 48 38 26 18
88 65 137 105 191 157 305 246 314 246 5 0 18 11 29 25 11 13 22 22 25 19 3
-3 10 4 17 15 6 12 16 21 22 21 6 0 20 7 30 17 17 15 21 15 61 -4 124 -59 218
-83 332 -83 67 0 221 25 239 38 6 5 38 19 70 31 62 23 95 43 160 98 22 18 47
33 57 33 10 0 48 -16 86 -36z m1583 -110 c36 -38 124 -135 195 -214 72 -79
176 -195 233 -256 56 -62 102 -115 102 -119 0 -3 15 -19 34 -35 18 -16 44 -45
57 -65 13 -19 29 -35 34 -35 6 0 20 -15 32 -33 12 -17 39 -49 60 -71 21 -21
45 -49 54 -62 8 -13 46 -55 83 -94 38 -38 66 -70 63 -70 -3 0 -41 16 -84 37
-43 20 -81 36 -85 35 -3 -1 -12 5 -18 13 -7 8 -18 15 -24 15 -6 0 -72 30 -146
66 -199 97 -379 185 -515 249 -303 144 -326 157 -320 174 4 9 11 27 15 41 4
14 19 48 34 75 14 28 39 104 56 170 17 66 33 127 37 135 3 8 6 27 7 42 1 14 4
30 9 34 4 4 7 16 7 27 0 26 7 21 80 -59z m-3845 -541 c56 -107 95 -171 132
-216 25 -31 29 -47 12 -47 -7 0 -35 -20 -63 -44 -99 -84 -240 -195 -244 -192
-2 2 6 39 17 83 11 43 32 130 46 193 15 63 30 119 35 125 5 6 14 41 20 78 7
37 14 67 16 67 2 0 15 -21 29 -47z m3638 3 c26 -10 47 -23 47 -27 0 -5 7 -9
15 -9 8 0 29 -8 47 -18 18 -10 65 -31 103 -47 39 -16 77 -34 85 -40 8 -6 49
-26 90 -45 41 -18 102 -48 135 -66 34 -18 81 -41 105 -49 25 -9 61 -26 80 -39
20 -13 69 -38 110 -56 41 -18 129 -59 196 -91 66 -33 126 -59 132 -59 7 0 12
-4 12 -10 0 -13 -1579 -14 -1600 0 -9 5 -19 5 -27 -2 -8 -6 -16 -8 -20 -4 -4
3 22 36 58 72 35 36 76 78 90 93 14 14 39 46 56 71 17 25 49 68 72 95 23 28
49 66 59 85 31 64 96 170 102 168 3 -2 26 -11 53 -22z m-3431 -323 c14 -21 64
-79 112 -130 51 -53 82 -94 76 -98 -6 -4 -17 -2 -24 4 -15 13 -58 11 -67 -3
-4 -5 -19 -5 -35 1 -16 5 -114 11 -219 12 -104 1 -190 3 -192 4 -1 2 38 34 88
72 49 39 113 90 141 115 45 40 71 57 89 59 4 1 18 -16 31 -36z m2811 -301
c-56 -48 -160 -122 -172 -122 -5 0 -14 -6 -18 -14 -4 -7 -26 -22 -48 -33 -22
-11 -80 -40 -130 -65 -127 -64 -170 -82 -250 -103 -38 -10 -75 -22 -81 -26
-16 -12 -166 -45 -279 -60 -127 -18 -423 -18 -540 0 -110 16 -249 48 -290 66
-16 7 -43 17 -60 21 -47 11 -188 65 -205 78 -8 7 -53 29 -100 50 -47 21 -92
47 -102 57 -9 11 -19 19 -23 19 -13 0 -177 121 -220 162 -6 6 445 9 1273 6
l1283 -3 -38 -33z"/>
<path d="M9723 2805 c-87 -75 -78 -185 15 -185 103 0 184 152 109 205 -36 26
-79 19 -124 -20z m103 -2 c26 -35 13 -81 -40 -140 -22 -26 -58 -30 -76 -8 -22
26 -6 93 31 131 36 38 65 43 85 17z"/>
<path d="M2020 4970 c0 -5 5 -10 10 -10 6 0 10 -35 10 -85 0 -50 -4 -85 -10
-85 -5 0 -10 -4 -10 -10 0 -13 116 -13 140 0 34 18 43 47 26 82 -12 23 -13 35
-5 44 16 19 1 54 -28 65 -32 12 -133 12 -133 -1z m115 -24 c27 -19 13 -46 -25
-46 -27 0 -30 3 -30 30 0 34 22 40 55 16z m12 -96 c19 -29 6 -50 -32 -50 -26
0 -34 5 -37 23 -2 12 -3 28 0 35 6 19 56 14 69 -8z"/>
<path d="M2968 4973 c-19 -5 -25 -23 -8 -23 15 0 13 -153 -2 -168 -9 -9 -4
-12 25 -12 20 0 37 5 37 10 0 6 -5 10 -11 10 -7 0 -10 31 -8 92 3 92 0 100
-33 91z"/>
<path d="M3123 4967 c-23 -10 -31 -27 -13 -27 15 0 13 -143 -2 -158 -9 -9 -4
-12 25 -12 35 0 45 8 30 24 -4 4 -6 44 -4 90 1 46 -1 86 -6 89 -4 2 -18 0 -30
-6z"/>
<path d="M3231 4948 c-11 -29 -8 -32 17 -19 12 6 33 11 48 11 21 0 25 -4 21
-17 -4 -10 -12 -38 -19 -63 -7 -25 -16 -47 -19 -50 -3 -3 -9 -15 -13 -27 -5
-16 -3 -23 7 -23 17 0 32 28 58 114 11 37 23 75 26 82 4 11 -8 14 -56 14 -55
0 -63 -3 -70 -22z"/>
<path d="M3380 4951 c-14 -27 -13 -37 6 -55 38 -39 110 6 84 53 -15 28 -75 29
-90 2z m68 -24 c3 -12 -3 -17 -22 -17 -25 0 -35 18 -19 34 12 12 38 2 41 -17z"/>
<path d="M3754 4886 c-12 -31 0 -61 25 -61 31 0 50 28 35 53 -14 22 -52 28
-60 8z m46 -26 c0 -11 -7 -20 -15 -20 -8 0 -15 9 -15 20 0 11 7 20 15 20 8 0
15 -9 15 -20z"/>
<path d="M9933 4813 c-7 -2 -13 -11 -13 -18 0 -8 -32 -52 -71 -99 l-70 -86 31
0 c19 0 30 5 28 13 -1 6 3 22 10 34 18 32 58 25 54 -8 -1 -13 -7 -26 -12 -27
-21 -7 3 -22 35 -22 36 0 54 14 30 24 -17 6 -22 111 -5 121 12 7 14 75 3 74
-5 0 -14 -3 -20 -6z m-23 -93 c0 -11 -7 -20 -15 -20 -13 0 -13 3 -3 20 7 11
14 20 15 20 2 0 3 -9 3 -20z"/>
<path d="M2235 4800 c-8 -14 3 -30 21 -30 8 0 14 9 14 20 0 21 -24 28 -35 10z"/>
<path d="M8448 4277 c12 -14 -17 -134 -43 -173 -15 -24 -15 -24 27 -24 30 0
39 3 29 9 -12 8 -13 16 -2 50 12 42 27 51 49 29 9 -9 15 -9 24 0 7 7 9 12 5
12 -4 0 -3 9 3 20 13 23 0 27 -30 8 -25 -16 -33 -6 -25 31 6 28 11 31 42 31
22 0 41 -7 49 -17 12 -16 13 -15 14 10 l0 27 -76 0 c-61 0 -74 -3 -66 -13z"/>
<path d="M2080 4224 c-43 -23 -60 -53 -60 -104 0 -70 27 -100 89 -100 34 0 53
5 64 18 27 30 21 49 -7 23 -19 -18 -31 -21 -54 -16 -36 8 -49 21 -52 55 -4 50
0 70 21 91 25 25 55 18 86 -19 l23 -27 0 43 c0 38 -2 43 -19 37 -11 -3 -22 -1
-26 5 -8 13 -34 11 -65 -6z"/>
<path d="M3118 4222 c-15 -2 -37 -15 -48 -29 -24 -31 -18 -43 10 -18 13 12 27
15 45 11 20 -5 25 -13 25 -37 0 -23 -13 -44 -51 -85 l-52 -54 62 0 c41 0 67 5
77 14 23 24 17 37 -12 26 -14 -6 -34 -10 -45 -10 -18 0 -16 5 15 42 25 28 36
51 36 72 -1 43 -28 72 -62 68z"/>
<path d="M3240 4203 c-24 -31 -20 -39 10 -23 12 6 28 9 36 6 21 -8 17 -44 -6
-56 -20 -10 -19 -11 7 -35 23 -20 26 -27 17 -42 -9 -13 -22 -17 -48 -15 -27 2
-36 -1 -36 -13 0 -19 82 -21 98 -2 21 25 25 66 8 92 -10 15 -12 26 -6 30 14 9
12 51 -2 62 -30 23 -58 21 -78 -4z"/>
<path d="M2953 4213 c-18 -7 -16 -23 2 -23 24 0 21 -148 -2 -166 -16 -12 -13
-13 25 -14 23 0 42 5 42 10 0 6 -4 10 -10 10 -6 0 -10 38 -10 95 0 99 -4 106
-47 88z"/>
<path d="M3386 4207 c-28 -20 -18 -69 16 -81 53 -19 91 47 46 78 -27 19 -39
20 -62 3z m59 -37 c0 -18 -33 -26 -47 -12 -6 6 -7 15 -3 22 10 16 50 8 50 -10z"/>
<path d="M3790 4099 c0 -5 5 -7 10 -4 6 3 10 8 10 11 0 2 -4 4 -10 4 -5 0 -10
-5 -10 -11z"/>
<path d="M2227 4044 c-9 -10 2 -24 19 -24 8 0 14 7 14 15 0 15 -21 21 -33 9z"/>
<path d="M2018 3468 c15 -15 17 -188 2 -188 -5 0 -10 -5 -10 -11 0 -19 137 -5
160 16 38 34 66 115 40 115 -5 0 -10 9 -10 20 0 22 -43 55 -60 45 -5 -3 -10
-1 -10 4 0 7 -25 11 -62 11 -48 0 -59 -3 -50 -12z m97 -18 c4 -6 10 -8 14 -5
5 2 16 -10 26 -29 25 -47 14 -101 -25 -121 -50 -26 -60 -13 -60 74 0 43 3 81
7 84 10 10 31 8 38 -3z"/>
<path d="M2952 3456 l-24 -13 24 -16 c15 -10 19 -19 13 -24 -15 -11 -17 -60
-5 -84 7 -13 7 -19 0 -19 -5 0 -10 -7 -10 -15 0 -8 -6 -16 -12 -16 -7 -1 1 -4
17 -8 33 -8 73 -2 56 8 -5 4 -11 49 -13 101 -2 51 -7 95 -13 96 -5 2 -20 -3
-33 -10z"/>
<path d="M3100 3399 c-42 -58 -49 -73 -39 -85 7 -8 19 -14 28 -13 32 3 40 -1
43 -23 4 -28 31 -30 36 -3 2 11 11 27 18 36 13 14 13 17 -1 22 -11 5 -15 22
-15 72 0 36 -4 65 -9 65 -5 0 -33 -32 -61 -71z m37 -21 c-2 -36 -7 -44 -25
-46 -12 -2 -22 1 -22 7 0 9 42 80 47 81 2 0 1 -19 0 -42z"/>
<path d="M3219 3438 c-13 -32 -3 -53 12 -25 12 21 52 22 68 3 16 -19 -3 -57
-53 -108 -20 -20 -36 -42 -36 -48 0 -6 25 -10 60 -10 50 0 61 3 70 21 13 24 5
38 -12 21 -7 -7 -28 -12 -47 -12 l-35 0 42 43 c52 52 63 94 32 122 -12 11 -37
20 -55 20 -28 1 -36 -3 -46 -27z"/>
<path d="M3382 3458 c-7 -7 -12 -27 -12 -45 0 -26 5 -34 24 -39 57 -14 91 26
62 71 -18 27 -54 33 -74 13z m58 -43 c0 -15 -27 -28 -41 -19 -13 7 -11 28 3
42 13 13 38 -2 38 -23z"/>
<path d="M2240 3280 c0 -15 5 -20 18 -18 9 2 17 10 17 18 0 8 -8 16 -17 18
-13 2 -18 -3 -18 -18z"/>
<path d="M11939 2491 c21 -13 -24 -175 -53 -190 -16 -9 -3 -10 62 -8 60 1 85
6 92 17 13 20 13 67 0 75 -5 3 -1 14 10 25 44 44 7 90 -72 90 -34 0 -48 -3
-39 -9z m79 -23 c21 -21 14 -47 -13 -54 -33 -8 -37 -4 -29 34 7 33 22 40 42
20z m-10 -90 c27 -27 0 -67 -47 -68 -18 0 -22 4 -16 18 4 9 10 27 12 40 6 24
32 29 51 10z"/>
<path d="M7799 1757 c12 -15 -8 -107 -35 -161 -8 -16 -13 -31 -11 -32 2 -2 35
-6 75 -8 64 -4 73 -3 83 15 5 11 8 30 6 42 l-4 22 -8 -23 c-4 -13 -18 -25 -34
-28 -14 -3 -33 -8 -43 -10 -24 -7 -29 8 -16 49 12 39 38 51 38 17 0 -11 5 -20
10 -20 6 0 10 7 10 15 0 8 5 15 10 15 6 0 10 11 10 25 0 28 -3 30 -30 13 -25
-16 -33 -6 -25 31 6 27 11 31 41 31 22 0 37 -6 41 -16 5 -13 7 -13 14 -2 21
32 10 38 -67 38 -63 0 -74 -2 -65 -13z"/>
<path d="M7659 1041 c13 -8 13 -16 1 -53 -8 -24 -14 -46 -14 -50 -1 -3 -4 -10
-8 -14 -5 -4 -8 -15 -8 -24 0 -10 -7 -23 -15 -30 -21 -18 -10 -28 29 -27 19 0
32 5 29 10 -7 12 6 97 16 97 4 0 15 -25 25 -55 16 -51 19 -55 48 -55 l31 0
-21 23 c-11 12 -23 34 -27 49 -6 21 -2 30 19 43 28 19 35 62 14 83 -7 7 -39
12 -72 12 -41 0 -56 -3 -47 -9z m97 -26 c9 -21 -14 -45 -42 -45 -18 0 -22 4
-18 18 3 9 8 23 10 30 5 17 43 15 50 -3z"/>
<path d="M13074 1036 c-33 -15 -63 -51 -83 -101 -10 -25 -9 -36 4 -63 9 -18
23 -32 31 -32 22 0 16 -13 -16 -35 -16 -11 -30 -22 -30 -25 0 -3 35 -6 78 -8
72 -3 79 -2 101 22 14 14 19 26 13 26 -6 0 -14 -4 -17 -10 -7 -12 -105 -14
-105 -2 0 14 24 32 42 32 27 0 67 29 84 61 17 34 18 99 2 122 -18 23 -67 30
-104 13z m67 -17 c18 -9 19 -17 14 -52 -13 -78 -49 -115 -102 -105 -41 7 -24
110 25 148 28 23 36 24 63 9z"/>
<path d="M8360 931 c0 -5 4 -11 9 -13 13 -4 -27 -150 -45 -164 -24 -19 -16
-24 46 -24 83 0 127 20 146 67 25 58 24 69 -4 103 -24 28 -34 32 -89 35 -35 3
-63 0 -63 -4z m118 -33 c21 -21 15 -95 -10 -117 -21 -21 -84 -39 -94 -28 -4 3
1 27 9 54 8 26 18 60 21 76 5 21 12 27 34 27 15 0 33 -5 40 -12z"/>
<path d="M11194 906 c-38 -17 -73 -65 -81 -109 -8 -49 35 -97 87 -97 37 0 90
30 90 51 0 6 -12 1 -26 -10 -30 -23 -74 -27 -92 -9 -7 7 -12 33 -12 59 0 36 6
55 26 78 33 40 79 43 96 6 13 -30 28 -33 28 -6 0 11 2 25 5 33 7 19 -80 22
-121 4z"/>
</g>
</svg>
