<?xml version="1.0" standalone="no"?>
<!DOCTYPE svg PUBLIC "-//W3C//DTD SVG 20010904//EN"
 "http://www.w3.org/TR/2001/REC-SVG-20010904/DTD/svg10.dtd">
<svg version="1.0" xmlns="http://www.w3.org/2000/svg"
 width="1481.000000pt" height="647.000000pt" viewBox="0 0 1481.000000 647.000000"
 preserveAspectRatio="xMidYMid meet">
<metadata>
Created by potrace 1.16, written by Peter Selinger 2001-2019
</metadata>
<g transform="translate(0.000000,647.000000) scale(0.100000,-0.100000)"
fill="#000000" stroke="none">
<path d="M1570 6129 c0 -39 0 -39 -39 -39 -22 0 -43 5 -46 10 -3 6 -10 10 -16
10 -12 0 -12 -147 1 -155 6 -3 10 -1 10 4 0 6 20 11 45 11 l45 0 0 -56 c0 -35
4 -53 10 -49 6 4 10 12 9 18 -1 7 -1 29 0 50 l1 38 50 -2 c27 -2 51 -1 53 2 3
2 7 31 10 65 l5 61 -57 -1 c-51 -1 -56 1 -59 22 -2 12 1 22 7 22 19 0 12 17
-9 23 -17 4 -20 0 -20 -34z m0 -94 l0 -45 -40 0 -40 0 0 45 0 45 40 0 40 0 0
-45z m108 3 c-3 -43 -3 -43 -45 -46 l-43 -3 0 45 0 46 46 0 45 0 -3 -42z"/>
<path d="M1248 6152 l-118 -3 0 -141 c0 -118 2 -139 14 -129 16 14 196 13 213
0 6 -6 14 -6 17 -1 9 14 9 263 0 270 -5 4 -62 6 -126 4z m-58 -56 c0 -28 4
-36 23 -39 12 -2 5 -3 -15 -1 -22 3 -38 0 -38 -6 0 -5 5 -10 10 -10 7 0 10
-27 8 -70 -2 -58 -5 -70 -18 -68 -12 3 -15 20 -16 86 -1 45 2 82 7 82 5 0 9
14 9 30 0 20 5 30 15 30 10 0 15 -10 15 -34z m100 24 c0 -5 -18 -10 -40 -10
-22 0 -40 5 -40 10 0 6 18 10 40 10 22 0 40 -4 40 -10z m68 -102 c-3 -96 -6
-113 -20 -116 -13 -3 -16 4 -12 37 14 136 16 122 -19 118 -18 -2 -24 -2 -14 0
12 3 17 14 17 39 0 30 3 34 25 34 l26 0 -3 -112z m-80 65 c-10 -2 -28 -2 -40
0 -13 2 -5 4 17 4 22 1 32 -1 23 -4z m32 -52 c0 -5 -27 -9 -60 -10 -33 0 -60
4 -60 9 0 6 27 10 60 10 33 0 60 -4 60 -9z m-40 -31 c0 -5 -12 -10 -26 -10
-14 0 -23 4 -19 10 3 6 15 10 26 10 10 0 19 -4 19 -10z m-7 -37 c-7 -2 -19 -2
-25 0 -7 3 -2 5 12 5 14 0 19 -2 13 -5z m34 -15 c-3 -8 -6 -5 -6 6 -1 11 2 17
5 13 3 -3 4 -12 1 -19z m3 -38 c0 -5 -22 -10 -50 -10 -27 0 -50 5 -50 10 0 6
23 10 50 10 28 0 50 -4 50 -10z"/>
<path d="M3113 6150 c-12 -5 -46 -10 -76 -12 -50 -2 -57 -6 -73 -33 -10 -16
-22 -33 -28 -37 -6 -4 -7 -10 -3 -14 4 -4 13 -2 19 4 21 21 26 13 26 -43 -1
-30 -5 -55 -9 -55 -5 0 -9 -8 -9 -18 0 -10 -7 -27 -15 -38 -8 -10 -15 -22 -15
-27 0 -10 52 3 66 17 17 16 27 56 15 56 -6 0 -11 -6 -11 -14 0 -7 -6 -19 -14
-25 -12 -10 -13 -8 -8 11 10 41 25 47 116 47 l86 -1 -6 -27 c-10 -46 -12 -49
-36 -53 l-23 -3 23 -13 c31 -17 49 -2 58 47 4 20 11 39 17 42 18 12 -4 31 -29
25 -22 -6 -24 -4 -22 26 2 22 -1 32 -9 31 -8 -2 -12 6 -10 20 2 19 -2 22 -29
19 -42 -4 -55 24 -18 38 36 14 37 13 55 -22 8 -17 21 -34 27 -36 17 -5 15 23
-3 38 -8 6 -13 21 -12 33 2 24 -17 31 -50 17z m-60 -50 c4 -17 0 -20 -24 -20
-22 0 -29 5 -29 20 0 14 7 20 24 20 15 0 26 -7 29 -20z m62 -45 c0 -6 -26 -11
-57 -13 -67 -3 -80 15 -15 21 57 5 72 3 72 -8z m25 -55 c0 -18 -7 -20 -70 -20
-63 0 -70 2 -70 20 0 18 7 20 70 20 63 0 70 -2 70 -20z"/>
<path d="M3614 6141 c-2 -2 -4 -65 -4 -140 l0 -136 127 2 128 2 -3 62 c-2 38
1 71 9 86 8 16 10 27 3 31 -11 8 -11 30 0 54 16 36 4 40 -128 42 -70 0 -130
-1 -132 -3z m61 -68 c-4 -27 -8 -70 -8 -98 -1 -44 -14 -75 -31 -75 -8 0 -7
205 1 213 3 4 15 7 26 7 18 0 19 -4 12 -47z m166 40 c1 -16 1 -110 0 -163 -1
-46 -3 -52 -13 -35 -6 10 -10 46 -9 79 1 32 -2 62 -7 65 -15 9 -2 61 14 61 8
0 14 -3 15 -7z m-78 -30 c-13 -2 -33 -2 -45 0 -13 2 -3 4 22 4 25 0 35 -2 23
-4z m15 -30 c-10 -2 -26 -2 -35 0 -10 3 -2 5 17 5 19 0 27 -2 18 -5z m8 -22
c-3 -5 -24 -7 -46 -4 -26 4 -40 2 -40 -6 0 -6 14 -12 30 -12 48 -2 53 -3 57
-14 2 -6 -18 -10 -47 -10 -48 0 -50 1 -50 28 0 26 2 27 51 27 27 0 48 -4 45
-9z m-18 -68 c-16 -2 -40 -2 -55 0 -16 2 -3 4 27 4 30 0 43 -2 28 -4z m2 -32
c0 -5 9 -13 20 -16 40 -13 18 -25 -45 -25 -66 0 -86 12 -40 24 14 4 25 11 25
16 0 6 9 10 20 10 11 0 20 -4 20 -9z"/>
<path d="M4615 6140 c-11 -5 -33 -9 -50 -10 -16 0 -39 -7 -49 -15 -18 -14 -17
-15 22 -15 l42 0 0 -75 c0 -62 -3 -75 -16 -75 -14 0 -16 10 -12 60 3 46 1 60
-9 60 -11 0 -13 -16 -11 -67 l3 -68 40 -6 c46 -8 105 -1 105 12 0 5 -18 9 -41
9 l-40 0 3 38 c3 34 6 37 36 40 20 2 32 8 29 15 -2 7 -18 11 -35 9 -28 -3 -32
0 -32 22 0 19 9 29 35 42 19 9 35 20 35 25 0 11 -28 10 -55 -1z"/>
<path d="M4790 6073 c0 -64 -2 -73 -18 -73 -10 0 -23 5 -30 12 -9 9 -12 8 -12
-4 0 -11 10 -18 27 -20 24 -3 28 -7 28 -38 0 -35 -14 -60 -34 -60 -6 0 -11 -7
-11 -16 0 -11 6 -14 23 -9 40 12 127 58 127 68 0 5 -7 6 -16 3 -9 -3 -27 -9
-40 -12 -22 -6 -24 -3 -24 30 0 32 3 36 25 36 17 0 32 -11 48 -36 14 -19 39
-46 58 -60 33 -24 79 -33 79 -14 0 6 -7 10 -15 10 -8 0 -15 4 -15 9 0 5 -11
12 -25 15 -14 4 -25 10 -25 15 0 4 11 13 25 19 14 6 25 16 25 22 0 14 -13 13
-46 -5 -20 -10 -32 -11 -41 -3 -25 21 -12 28 52 28 66 0 72 3 55 30 -8 12 -11
12 -28 -3 -20 -18 -102 -24 -102 -7 0 6 -7 6 -19 -1 -22 -15 -51 -5 -51 16 0
12 15 15 81 15 60 0 80 3 76 13 -3 8 -25 11 -80 8 -52 -2 -77 1 -77 8 0 7 28
11 80 11 44 0 80 4 80 9 0 5 -35 7 -81 4 -76 -6 -81 -5 -77 13 3 16 13 19 73
20 90 2 95 2 95 12 0 4 -43 7 -95 7 l-95 0 0 -72z"/>
<path d="M5920 6141 c-116 -6 -157 -23 -68 -29 47 -3 47 -3 37 -30 -12 -32
-28 -43 -51 -36 -13 4 -18 0 -18 -15 0 -23 16 -36 25 -21 3 5 19 10 36 10 24
0 29 -4 29 -25 0 -23 -4 -25 -46 -25 -27 0 -43 -4 -39 -10 3 -5 24 -10 46 -10
37 0 39 -2 39 -30 l0 -30 -60 0 c-33 0 -60 -4 -60 -10 0 -6 55 -10 145 -10 80
0 145 4 145 9 0 16 -28 33 -35 21 -3 -5 -26 -10 -49 -10 -41 0 -44 2 -48 30
l-5 30 54 0 c55 0 64 8 38 30 -12 10 -19 10 -27 2 -7 -7 -22 -12 -35 -12 -19
0 -23 5 -23 29 0 25 4 29 34 33 25 3 37 -1 45 -15 14 -21 31 -14 31 13 0 11
-15 26 -40 39 -51 26 -58 26 -35 1 18 -20 17 -20 -33 -20 l-51 0 10 30 c8 20
18 30 32 31 117 4 122 4 122 19 0 18 0 18 -145 11z"/>
<path d="M6673 6138 c-4 -7 -18 -38 -30 -68 -26 -62 -30 -99 -8 -60 13 23 14
18 15 -67 l0 -92 38 6 c20 3 52 14 71 25 34 19 34 19 76 -3 40 -21 75 -21 75
1 0 5 -9 10 -21 10 -12 0 -36 7 -55 16 -28 13 -34 22 -34 46 0 30 1 31 40 25
44 -6 40 -14 44 80 1 15 -6 17 -35 15 -21 -2 -40 1 -44 7 -4 7 11 11 44 11 38
0 51 4 51 15 0 12 -9 13 -46 8 -40 -5 -45 -4 -42 12 4 26 -22 31 -29 6 -4 -17
-13 -21 -44 -21 -22 0 -39 -4 -39 -10 0 -5 18 -10 40 -10 23 0 40 -5 40 -11 0
-8 -12 -10 -33 -6 l-34 5 -2 -48 c-1 -27 3 -52 9 -55 8 -5 8 -11 0 -20 -7 -8
-8 -20 -4 -26 5 -9 10 -8 19 5 11 15 14 15 25 1 18 -21 -4 -44 -54 -55 l-37
-8 2 109 c1 90 5 113 20 133 17 22 16 36 -2 36 -4 0 -11 -6 -16 -12z m107
-117 c0 -24 -3 -28 -20 -24 -13 3 -20 14 -20 29 0 17 6 24 20 24 15 0 20 -7
20 -29z m80 -2 c0 -27 -3 -30 -22 -24 -13 4 -27 11 -32 15 -15 15 3 40 29 40
21 0 25 -5 25 -31z m-80 -61 c0 -12 -1 -19 -3 -17 -1 2 -9 12 -16 22 -12 14
-11 17 3 17 10 0 16 -8 16 -22z"/>
<path d="M6991 6109 c-18 -22 -30 -43 -27 -46 9 -9 86 68 80 79 -9 14 -18 9
-53 -33z"/>
<path d="M7080 6090 l0 -56 52 1 c32 0 53 -5 55 -12 4 -10 -12 -13 -59 -13
-38 0 -69 5 -77 13 -10 10 -12 8 -9 -8 3 -17 12 -20 66 -23 34 -2 62 -7 62
-13 0 -14 -150 -9 -151 5 -3 28 4 53 22 72 22 24 24 34 7 34 -7 0 -30 -25 -50
-54 -40 -57 -48 -77 -23 -56 13 11 15 4 15 -54 0 -52 3 -66 15 -66 14 0 21 33
16 83 -3 27 28 20 60 -14 31 -33 52 -32 32 0 -11 17 -8 19 23 23 33 4 34 3 34
-28 0 -28 -4 -33 -27 -36 l-28 -3 23 -13 c37 -21 52 -9 52 43 l0 45 36 0 c31
0 35 2 24 15 -6 8 -9 18 -6 23 6 10 -27 45 -35 38 -2 -3 -3 21 -1 52 l4 57
-66 0 -66 0 0 -55z m100 15 c0 -11 -11 -15 -40 -15 -38 0 -49 8 -33 23 3 4 21
7 40 7 23 0 33 -5 33 -15z m0 -35 c0 -5 -18 -10 -40 -10 -22 0 -40 5 -40 10 0
6 18 10 40 10 22 0 40 -4 40 -10z m35 -90 c-3 -5 -10 -10 -16 -10 -5 0 -9 5
-9 10 0 6 7 10 16 10 8 0 12 -4 9 -10z"/>
<path d="M8132 6139 c-13 -5 -28 -7 -32 -4 -5 3 -11 1 -15 -5 -3 -5 -23 -10
-43 -10 -31 0 -40 -5 -57 -33 -26 -43 -30 -55 -14 -39 26 24 35 13 32 -42 -1
-31 -11 -69 -23 -90 -24 -44 -27 -64 -5 -46 8 6 19 9 24 6 11 -7 41 32 41 54
0 10 -7 7 -21 -10 -11 -14 -18 -18 -15 -10 3 8 9 23 12 33 5 14 20 17 94 17
96 0 104 -5 87 -52 -7 -21 -16 -28 -35 -28 l-26 0 23 -17 c23 -16 25 -15 47
12 12 16 22 36 22 44 0 9 4 27 8 40 6 22 5 23 -19 19 -25 -5 -27 -3 -24 26 1
24 -2 31 -15 30 -12 -1 -17 5 -15 20 2 18 -2 21 -31 18 -30 -3 -33 -1 -30 20
2 16 11 24 29 26 20 2 29 -4 44 -33 11 -19 23 -35 27 -35 14 0 9 28 -7 44 -9
9 -15 23 -13 33 4 20 -18 26 -50 12z m-52 -54 c0 -10 -10 -15 -30 -15 -20 0
-30 5 -30 15 0 10 10 15 30 15 20 0 30 -5 30 -15z m58 -37 c-3 -8 -26 -14 -56
-16 -42 -2 -52 0 -52 12 0 13 12 16 56 16 40 0 55 -4 52 -12z m32 -53 c0 -12
-15 -15 -75 -15 -69 0 -86 6 -68 23 3 4 37 7 75 7 54 0 68 -3 68 -15z"/>
<path d="M9480 6116 c-8 -24 -16 -33 -26 -29 -11 4 -14 -11 -16 -86 -1 -50 -2
-98 -2 -108 -1 -9 5 -18 12 -20 7 -3 12 4 12 16 0 26 44 29 58 5 17 -30 32 -4
32 52 0 44 5 62 26 90 22 28 33 34 65 34 l39 0 -1 -67 c-1 -98 -9 -118 -44
-120 -51 -2 -51 -3 -10 -18 62 -22 66 -13 79 157 l5 67 -49 -6 c-40 -5 -50 -3
-50 9 0 8 5 19 12 26 6 6 9 15 5 18 -12 13 -34 -5 -40 -33 -3 -15 -13 -37 -21
-48 -15 -19 -15 -19 -16 9 0 26 -2 28 -30 23 -28 -6 -29 -5 -18 19 8 17 8 28
1 35 -8 8 -14 0 -23 -25z m34 -52 c11 -4 13 -10 7 -18 -9 -11 -11 -17 -11 -36
0 -5 -11 -10 -25 -10 -22 0 -25 4 -25 35 0 36 15 44 54 29z m0 -115 c1 -19 -5
-25 -27 -27 -25 -3 -27 -1 -27 31 0 33 1 35 27 28 20 -5 27 -14 27 -32z"/>
<path d="M10141 6115 c-16 -27 -19 -41 -11 -50 12 -14 3 -65 -11 -65 -5 0 -9
-7 -9 -16 0 -11 6 -14 20 -9 11 4 20 2 20 -4 0 -6 -6 -11 -13 -11 -14 0 -43
-78 -33 -88 7 -6 7 -6 28 38 l17 35 0 -47 c1 -27 6 -48 11 -48 6 0 10 30 10
71 0 71 0 71 25 65 28 -7 31 1 12 28 -12 17 -14 17 -20 2 -4 -9 -13 -16 -21
-16 -21 0 -8 36 20 55 13 8 24 20 24 25 0 14 -28 12 -32 -2 -3 -7 -12 -9 -23
-5 -17 7 -17 9 5 32 17 18 21 28 13 36 -7 7 -17 -1 -32 -26z"/>
<path d="M10284 6127 c-6 -15 -17 -21 -32 -20 -21 3 -22 -1 -22 -57 0 -60 6
-70 27 -49 13 13 36 3 31 -13 -3 -9 -40 -18 -85 -21 -16 0 -16 -8 -3 -43 8
-19 8 -30 0 -38 -16 -16 -12 -28 8 -17 9 5 28 28 42 50 30 49 42 52 38 9 -2
-22 -10 -36 -27 -44 l-23 -12 21 -12 c32 -17 51 3 51 54 l0 41 26 -42 c14 -24
32 -43 40 -43 21 0 17 16 -13 46 l-28 28 28 11 c25 10 26 13 13 24 -11 10 -16
31 -16 73 0 59 0 60 -25 54 -20 -5 -25 -3 -25 13 0 29 -14 33 -26 8z m56 -47
c0 -5 -20 -10 -45 -10 -25 0 -45 5 -45 10 0 6 20 10 45 10 25 0 45 -4 45 -10z
m0 -40 c0 -5 -20 -10 -45 -10 -25 0 -45 5 -45 10 0 6 20 10 45 10 25 0 45 -4
45 -10z m5 -44 c12 -12 12 -16 1 -25 -15 -13 -26 -5 -26 21 0 22 7 23 25 4z
m-105 -55 c0 -17 -18 -21 -24 -6 -3 9 0 15 9 15 8 0 15 -4 15 -9z"/>
<path d="M11330 6143 c-8 -3 -18 -10 -21 -15 -3 -4 -31 -9 -62 -9 -38 -1 -57
-6 -57 -14 0 -7 -10 -25 -22 -40 l-21 -27 23 7 c22 7 22 6 18 -59 -3 -51 -9
-71 -27 -90 -13 -14 -18 -26 -12 -30 5 -4 13 -2 16 4 4 6 15 8 26 5 14 -5 22
0 29 21 6 15 9 32 7 38 -3 6 -10 -2 -16 -18 -15 -38 -24 -28 -10 12 l11 32 94
0 c92 0 94 -1 94 -23 0 -27 -28 -57 -54 -57 -13 0 -16 5 -12 16 6 17 -9 44
-25 44 -15 0 17 -60 41 -77 22 -16 24 -15 47 11 12 15 24 38 25 52 0 13 1 30
2 37 1 6 -7 11 -16 11 -19 -2 -32 22 -17 32 15 9 -9 34 -27 27 -10 -4 -13 1
-12 18 3 21 -1 24 -24 21 -20 -3 -28 1 -28 12 0 9 7 16 15 16 8 0 15 5 15 10
0 23 28 7 46 -25 19 -35 34 -45 34 -23 0 6 -8 20 -17 31 -10 10 -18 26 -18 35
0 18 -20 24 -45 15z m-50 -58 c0 -10 -11 -15 -35 -15 -24 0 -35 5 -35 15 0 10
11 15 35 15 24 0 35 -5 35 -15z m50 -40 c0 -12 -13 -15 -60 -15 -74 0 -80 18
-7 23 28 2 55 4 60 5 4 1 7 -5 7 -13z m28 -52 c-3 -15 -16 -18 -76 -21 -67 -2
-72 -1 -72 18 0 18 6 20 76 20 66 0 75 -2 72 -17z"/>
<path d="M14228 6127 c-2 -18 -12 -23 -48 -28 l-45 -6 46 -1 c35 -2 48 -7 53
-19 3 -10 9 -24 12 -30 4 -10 -9 -13 -50 -13 -43 0 -56 -3 -56 -15 0 -11 13
-15 53 -15 l52 -1 -52 -48 c-29 -26 -53 -53 -53 -59 0 -18 9 -15 52 20 l40 31
-4 -44 c-3 -39 -1 -44 17 -41 38 7 112 5 124 -2 17 -11 19 -8 22 54 l4 55 -74
-4 c-66 -3 -73 -1 -67 14 3 9 6 20 6 24 0 4 27 5 61 3 70 -4 112 4 106 21 -3
8 -27 11 -80 8 -68 -3 -76 -1 -71 13 4 11 1 16 -11 16 -30 0 -9 25 23 28 27 3
32 0 32 -17 0 -12 5 -21 10 -21 6 0 10 9 10 20 0 17 7 20 40 20 22 0 40 5 40
10 0 7 -13 8 -34 5 -28 -6 -34 -4 -39 14 -7 27 -23 27 -30 1 -7 -27 -57 -28
-57 -1 0 28 -28 35 -32 8z m142 -217 l0 -30 -60 0 -60 0 0 30 0 30 60 0 60 0
0 -30z"/>
<path d="M2545 6130 c-3 -5 -16 -10 -28 -10 -27 -1 -44 -14 -80 -63 -36 -47
-36 -115 0 -133 l23 -11 -25 -21 c-35 -31 -31 -42 18 -44 75 -4 110 1 129 18
24 22 17 28 -15 13 -30 -14 -100 -4 -94 14 2 6 20 16 39 22 20 5 45 18 56 29
27 23 51 95 45 130 -6 29 -58 73 -68 56z m19 -33 c30 -22 14 -101 -27 -138
-17 -16 -38 -29 -47 -29 -19 0 -50 34 -50 55 0 26 47 100 71 112 30 16 31 16
53 0z"/>
<path d="M4410 6125 c0 -9 10 -15 26 -15 l26 0 -21 -34 c-12 -18 -21 -42 -21
-53 0 -12 -7 -26 -15 -33 -12 -10 -13 -16 -4 -26 9 -11 15 -11 25 -3 26 22 16
-26 -11 -51 -14 -13 -25 -27 -25 -32 0 -17 25 -7 45 18 l20 26 29 -23 c22 -18
47 -24 108 -29 78 -5 98 0 98 27 0 15 -26 18 -35 3 -3 -5 -21 -10 -40 -10 -19
0 -37 5 -40 10 -3 6 -21 10 -38 10 -18 0 -40 7 -51 15 -18 13 -18 16 -2 55 23
57 21 84 -4 77 -24 -6 -26 10 -5 37 25 34 18 46 -25 46 -29 0 -40 -4 -40 -15z
m59 -107 c0 -13 -4 -32 -8 -42 -7 -18 -8 -18 -14 5 -11 39 -8 59 8 59 9 0 15
-9 14 -22z"/>
<path d="M8307 6133 c-4 -3 -7 -69 -7 -146 0 -119 2 -138 14 -128 10 8 53 11
128 10 l113 -2 2 124 c3 137 0 157 -21 140 -7 -6 -33 -10 -56 -9 -26 1 -45 -3
-48 -10 -2 -7 -15 -12 -29 -12 -19 0 -24 4 -19 16 3 8 2 12 -4 9 -6 -3 -10
-22 -10 -41 0 -19 -4 -34 -9 -34 -6 0 -9 -30 -8 -68 1 -67 -5 -92 -24 -92 -13
0 -12 203 1 216 8 8 7 14 -3 22 -8 7 -17 9 -20 5z m231 -136 c2 -68 -1 -108
-8 -112 -19 -12 -24 3 -24 83 -1 42 -5 80 -10 84 -14 9 11 61 27 55 8 -2 13
-36 15 -110z m-85 76 c-13 -2 -33 -2 -45 0 -13 2 -3 4 22 4 25 0 35 -2 23 -4z
m17 -23 c11 -7 0 -10 -38 -10 -33 0 -51 4 -47 10 8 13 65 13 85 0z m10 -35 c0
-16 -52 -21 -84 -9 -32 12 -15 24 34 24 38 0 50 -4 50 -15z m-22 -32 c-16 -2
-40 -2 -55 0 -16 2 -3 4 27 4 30 0 43 -2 28 -4z m0 -30 c-16 -2 -40 -2 -55 0
-16 2 -3 4 27 4 30 0 43 -2 28 -4z m7 -39 c39 -26 30 -34 -35 -33 -62 2 -79
14 -35 25 14 3 25 10 25 15 0 14 18 11 45 -7z"/>
<path d="M8730 6115 c-9 -23 -15 -25 -65 -25 -35 0 -54 -4 -50 -10 3 -5 26
-10 50 -10 l45 0 -22 -45 c-12 -25 -27 -45 -33 -45 -7 0 -20 -9 -30 -20 -22
-24 -4 -27 30 -4 l25 16 0 -61 c0 -34 4 -61 10 -61 6 0 10 3 10 8 0 4 47 6
105 4 87 -3 105 -1 105 11 0 19 -30 31 -44 17 -5 -5 -20 -10 -33 -10 -21 0
-23 4 -23 51 0 50 0 51 28 45 35 -8 62 8 44 26 -9 9 -15 9 -24 0 -7 -7 -20
-12 -31 -12 -15 0 -18 6 -15 38 2 28 -1 37 -12 37 -11 0 -14 -9 -12 -37 l4
-38 -42 0 c-25 0 -39 -4 -35 -10 3 -5 22 -10 41 -10 34 0 34 0 34 -45 l0 -45
-45 0 -45 0 0 60 c0 69 24 126 57 134 12 4 52 4 88 0 54 -4 65 -3 65 10 0 13
-12 14 -81 9 l-80 -6 7 26 c8 35 -13 36 -26 2z"/>
<path d="M9800 6095 c0 -31 -5 -47 -15 -51 -8 -4 -15 -11 -15 -16 0 -6 7 -8
15 -4 12 4 15 -5 15 -49 l0 -55 45 0 c43 0 45 -1 35 -20 -6 -11 -17 -20 -25
-20 -15 0 -30 -18 -22 -26 2 -2 15 0 29 5 38 14 78 92 90 172 10 67 11 69 39
69 l29 0 -1 -77 c-1 -43 -4 -91 -8 -108 -6 -26 -11 -30 -39 -29 -41 2 -41 -8
0 -24 44 -16 55 -3 67 83 17 128 18 181 1 176 -8 -3 -49 -8 -90 -11 -41 -4
-62 -7 -46 -8 l29 -2 -5 -64 c-3 -35 -10 -72 -16 -82 -10 -18 -11 -18 -20 5
-9 24 -9 24 -14 3 -4 -16 -14 -22 -32 -22 -24 0 -26 3 -26 49 l0 48 41 6 c47
6 57 13 42 28 -8 8 -18 7 -34 -5 -41 -29 -52 -21 -46 29 5 36 4 45 -8 45 -11
0 -15 -12 -15 -45z"/>
<path d="M12735 6110 c-5 -25 -11 -30 -26 -25 -18 6 -19 0 -19 -107 0 -112 1
-113 19 -89 18 23 19 23 50 8 l31 -15 0 58 c0 38 5 62 13 67 7 4 21 19 30 33
12 18 27 25 57 27 l40 3 0 -73 c0 -90 -17 -122 -61 -113 -38 7 -37 -8 1 -24
59 -25 74 -2 84 137 l7 92 -50 -6 c-46 -5 -51 -4 -51 14 0 10 5 24 12 31 9 9
7 12 -10 12 -16 0 -22 -6 -22 -21 0 -26 -29 -89 -41 -89 -13 0 -11 28 3 32 23
8 -4 30 -28 24 -24 -6 -33 7 -14 19 15 9 12 35 -4 35 -8 0 -17 -14 -21 -30z
m35 -75 c0 -32 -2 -35 -30 -35 -26 0 -30 4 -30 28 0 35 6 42 37 42 20 0 23 -5
23 -35z m0 -86 c0 -27 -3 -30 -27 -27 -22 2 -29 9 -31 31 -3 24 0 27 27 27 28
0 31 -3 31 -31z"/>
<path d="M13085 6131 c-3 -5 9 -11 27 -13 22 -2 34 -9 36 -20 3 -15 -4 -18
-40 -18 -24 0 -49 5 -56 12 -15 15 -14 25 -16 -120 -1 -92 2 -122 12 -122 7 0
12 14 12 35 0 28 8 42 45 76 24 22 47 51 51 62 6 20 8 19 19 -12 12 -37 59
-80 72 -67 4 4 0 12 -9 17 -15 8 -58 81 -58 98 0 13 70 9 71 -3 1 -6 2 -48 4
-93 2 -81 1 -82 -24 -85 l-26 -3 23 -13 c46 -26 52 -12 52 112 l0 115 -57 -6
-56 -6 6 31 7 32 -45 0 c-24 0 -46 -4 -50 -9z m52 -98 c-9 -15 -29 -41 -46
-57 l-31 -30 0 57 0 56 43 3 c23 2 43 2 45 1 2 0 -3 -14 -11 -30z"/>
<path d="M13450 6128 c0 -7 16 -26 35 -41 30 -24 35 -25 35 -10 0 10 -16 28
-35 41 -23 14 -35 18 -35 10z"/>
<path d="M298 6083 c-78 -111 -78 -109 -13 -115 22 -2 31 -9 33 -25 5 -31 32
-30 32 1 0 13 6 27 13 30 10 5 10 7 0 12 -9 4 -13 29 -13 75 0 38 -4 69 -9 69
-5 0 -24 -21 -43 -47z m22 -48 c0 -38 -3 -45 -20 -45 -11 0 -20 6 -20 14 0 13
31 76 38 76 1 0 2 -20 2 -45z"/>
<path d="M452 6123 c-6 -2 -9 -9 -6 -14 9 -14 10 -169 2 -169 -5 0 -8 -4 -8
-10 0 -5 14 -10 32 -10 25 0 29 3 20 12 -8 8 -12 46 -12 105 0 51 -3 93 -7 92
-5 0 -14 -3 -21 -6z"/>
<path d="M2684 6121 c-10 -2 -25 -8 -31 -13 -18 -14 -16 -55 2 -61 8 -4 26
-24 41 -46 22 -34 24 -44 14 -56 -16 -19 -59 -19 -65 0 -16 49 -17 51 -25 25
-16 -51 -13 -55 41 -58 93 -5 117 52 54 128 -42 51 -43 60 -7 60 34 0 53 -17
44 -39 -5 -14 -4 -14 12 -2 9 8 15 20 12 26 -2 7 0 17 6 23 10 10 -61 20 -98
13z"/>
<path d="M5297 6122 c-21 -3 -26 -7 -18 -16 11 -14 1 -67 -25 -123 -8 -17 -14
-36 -14 -42 0 -6 -4 -11 -10 -11 -5 0 -10 -4 -10 -10 0 -5 16 -10 35 -10 34 0
47 13 23 23 -10 4 -10 8 -1 14 6 4 11 10 11 13 -1 3 2 15 6 28 6 17 15 22 40
22 39 0 76 31 76 65 0 37 -44 55 -113 47z m73 -37 c11 -13 9 -19 -10 -35 -24
-21 -50 -26 -50 -11 0 5 4 21 10 35 11 29 31 33 50 11z"/>
<path d="M5499 6108 c-48 -29 -66 -52 -73 -97 -6 -42 6 -91 24 -91 18 0 10
-27 -12 -43 -13 -8 -20 -18 -17 -21 3 -3 38 -7 76 -9 58 -2 75 2 92 17 25 23
21 32 -6 15 -22 -13 -117 -4 -108 11 3 5 23 15 45 21 103 31 153 179 70 207
-34 12 -41 -1 -10 -18 26 -14 25 -48 -2 -100 -28 -52 -59 -74 -93 -66 -22 6
-25 12 -25 50 0 51 35 109 68 114 12 2 22 7 22 12 0 19 -18 18 -51 -2z"/>
<path d="M6342 6122 c-6 -2 -9 -9 -6 -15 8 -22 -34 -168 -53 -183 -16 -12 -14
-13 25 -14 23 0 42 5 42 10 0 6 -5 10 -10 10 -14 0 -2 51 16 69 14 15 21 4 47
-71 4 -11 17 -18 33 -18 26 0 26 1 11 18 -9 10 -22 33 -28 50 -10 30 -9 34 15
53 27 21 32 44 17 68 -9 14 -87 31 -109 23z m73 -52 c0 -20 -6 -26 -27 -28
-16 -2 -28 1 -28 7 0 6 5 11 10 11 6 0 10 9 10 21 0 14 5 19 18 17 11 -2 17
-12 17 -28z"/>
<path d="M2272 6103 c2 -35 -35 -165 -49 -170 -24 -9 -14 -19 22 -20 19 -1 38
3 41 8 3 5 0 9 -6 9 -8 0 -10 9 -5 27 9 39 23 53 52 53 26 0 73 41 73 64 0 29
-30 46 -80 46 -40 0 -49 -3 -48 -17z m88 -28 c0 -18 -7 -28 -26 -36 -34 -12
-38 -8 -29 30 5 24 12 31 31 31 19 0 24 -5 24 -25z"/>
<path d="M7506 6106 c8 -21 -24 -153 -42 -171 -21 -20 -17 -25 20 -25 29 0 33
3 29 23 -2 12 1 35 6 51 14 36 33 23 50 -34 7 -26 18 -40 29 -41 9 0 39 -2 67
-4 27 -1 60 1 72 6 45 17 36 86 -16 133 -25 22 -27 42 -6 50 23 9 45 -4 45
-26 0 -14 5 -18 16 -14 9 3 18 6 20 6 2 0 4 13 4 28 0 28 -1 29 -54 27 -29 -1
-58 -5 -65 -9 -13 -8 -15 -76 -2 -76 4 0 21 -18 36 -40 26 -37 27 -42 13 -57
-23 -23 -64 -10 -76 24 l-10 28 -8 -34 -7 -34 -19 22 c-24 31 -23 73 2 89 21
13 26 47 11 71 -5 8 -32 16 -65 19 -49 4 -56 2 -50 -12z m88 -25 c11 -16 -6
-41 -31 -47 -31 -8 -36 -3 -24 30 10 26 44 36 55 17z"/>
<path d="M9152 6098 c-22 -22 -13 -56 28 -98 46 -48 48 -73 7 -78 -34 -4 -57
13 -57 42 0 17 -2 18 -10 6 -5 -8 -10 -26 -10 -40 0 -23 4 -25 54 -28 47 -3
56 0 70 20 24 34 20 52 -24 98 -45 47 -47 63 -7 68 22 3 29 -2 38 -25 10 -26
12 -27 19 -8 19 45 13 52 -43 54 -30 1 -58 -4 -65 -11z"/>
<path d="M10937 6089 c3 -11 1 -30 -5 -42 -6 -12 -18 -46 -27 -74 -9 -29 -21
-53 -26 -53 -5 0 -9 -4 -9 -8 0 -4 15 -9 33 -10 32 -2 32 -2 33 42 0 25 6 51
11 58 6 7 16 31 23 53 7 22 18 43 24 47 6 4 -5 8 -26 8 -32 0 -35 -3 -31 -21z"/>
<path d="M11757 6062 c-10 -26 -31 -73 -47 -104 l-29 -58 95 0 c111 0 107 -9
48 118 -19 40 -34 77 -34 82 0 25 -17 6 -33 -38z m42 -82 l31 -60 -53 0 -54 0
20 60 c11 33 21 60 23 60 1 0 16 -27 33 -60z"/>
<path d="M11984 6100 c-30 -12 -81 -77 -88 -113 -5 -23 0 -40 17 -66 l23 -35
-25 -22 -25 -21 65 -7 c77 -8 123 3 127 30 3 15 1 17 -9 7 -7 -7 -37 -13 -66
-13 -51 0 -53 1 -43 20 7 13 21 20 39 20 54 0 101 65 101 139 0 61 -51 88
-116 61z m81 -29 c9 -29 -11 -100 -36 -127 -15 -16 -34 -24 -55 -24 -31 0 -33
2 -36 38 -3 39 21 97 50 120 25 19 70 15 77 -7z"/>
<path d="M12165 6091 c7 -24 -18 -131 -40 -164 l-17 -27 36 0 c24 0 35 4 31
11 -9 14 3 79 15 79 4 0 15 -19 22 -42 l15 -43 69 -6 c136 -11 174 38 93 120
-35 35 -39 43 -29 57 18 21 52 14 66 -13 13 -27 24 -20 24 16 0 24 -4 26 -46
29 -51 3 -84 -16 -84 -50 0 -10 18 -38 40 -62 46 -49 47 -56 21 -80 -16 -15
-22 -15 -40 -4 -12 7 -25 24 -30 38 l-9 25 -7 -28 c-10 -38 -37 -31 -49 12 -9
30 -7 35 17 53 19 14 27 29 27 49 0 34 -27 49 -91 49 -35 0 -40 -3 -34 -19z
m79 -7 c22 -8 20 -23 -6 -51 -39 -42 -60 -25 -38 31 10 27 17 30 44 20z"/>
<path d="M13420 5967 c0 -100 1 -105 23 -111 38 -10 112 -7 125 6 14 14 16 88
2 88 -5 0 -10 -10 -10 -22 -1 -52 -59 -77 -94 -42 -18 17 -24 101 -13 168 1 6
-6 12 -15 14 -16 3 -18 -7 -18 -101z"/>
<path d="M1891 6047 c-9 -11 -8 -17 4 -27 12 -10 13 -16 4 -27 -15 -17 -5 -28
16 -19 12 4 15 16 13 43 -3 40 -18 52 -37 30z"/>
<path d="M3515 6040 c-5 -7 -48 -10 -131 -7 -85 2 -123 0 -121 -7 4 -11 217
-26 217 -16 0 4 16 4 35 2 36 -4 45 7 21 27 -10 9 -16 9 -21 1z"/>
<path d="M4044 6036 c-3 -8 -4 -25 -2 -38 2 -18 9 -23 33 -23 28 0 30 3 30 35
0 31 -3 35 -28 38 -17 2 -29 -2 -33 -12z m41 -36 c-5 -8 -11 -8 -17 -2 -6 6
-7 16 -3 22 5 8 11 8 17 2 6 -6 7 -16 3 -22z"/>
<path d="M10554 6026 c-3 -8 -4 -25 -2 -38 2 -17 9 -23 28 -23 22 0 25 4 25
35 0 29 -4 36 -23 38 -13 2 -24 -3 -28 -12z m36 -26 c0 -21 -15 -27 -25 -10
-7 12 2 30 16 30 5 0 9 -9 9 -20z"/>
<path d="M13794 6026 c-11 -29 1 -61 23 -64 27 -4 44 25 32 56 -9 25 -46 30
-55 8z m36 -26 c0 -11 -4 -20 -10 -20 -5 0 -10 9 -10 20 0 11 5 20 10 20 6 0
10 -9 10 -20z"/>
<path d="M9580 6021 c0 -5 7 -14 15 -21 8 -7 15 -19 15 -26 0 -8 6 -14 13 -14
27 0 27 14 0 42 -27 28 -43 35 -43 19z"/>
<path d="M12830 6024 c0 -16 43 -73 51 -68 9 5 1 24 -24 57 -14 17 -27 22 -27
11z"/>
<path d="M13382 6012 c-1 -13 -9 -37 -18 -54 -11 -21 -13 -33 -5 -41 15 -15
33 38 28 82 -2 20 -4 26 -5 13z"/>
<path d="M13570 6028 c0 -14 44 -98 52 -98 18 0 6 42 -22 72 -16 18 -30 30
-30 26z"/>
<path d="M3132 5943 c2 -9 9 -18 16 -21 18 -6 15 25 -4 32 -11 4 -14 1 -12
-11z"/>
<path d="M565 5941 c-3 -5 -1 -12 4 -15 12 -8 41 3 41 15 0 12 -37 12 -45 0z"/>
<path d="M3040 5926 c0 -27 16 -44 23 -24 5 18 -3 48 -14 48 -5 0 -9 -11 -9
-24z"/>
<path d="M3090 5941 c0 -18 12 -41 21 -41 15 0 10 37 -6 44 -8 3 -15 1 -15 -3z"/>
<path d="M8150 5943 c0 -5 4 -15 10 -23 11 -18 25 -7 17 15 -6 15 -27 21 -27
8z"/>
<path d="M11340 5943 c0 -5 7 -18 15 -29 15 -18 15 -18 13 5 -3 23 -28 44 -28
24z"/>
<path d="M8065 5919 c12 -39 27 -48 23 -15 -2 16 -9 31 -17 34 -10 3 -11 -2
-6 -19z"/>
<path d="M8117 5920 c3 -11 12 -20 21 -20 13 0 12 3 -3 20 -10 11 -19 20 -21
20 -1 0 0 -9 3 -20z"/>
<path d="M11258 5933 c-7 -13 19 -56 26 -44 4 6 1 20 -7 32 -8 11 -17 17 -19
12z"/>
<path d="M5807 5703 c-4 -3 -7 -62 -7 -130 l0 -123 -25 0 c-14 0 -25 -4 -25
-9 0 -13 51 -24 63 -12 5 5 9 60 8 121 -1 71 2 117 9 126 18 20 -5 46 -23 27z"/>
<path d="M2845 5691 c-3 -6 9 -11 27 -13 33 -3 33 -4 32 -53 0 -71 -9 -97 -50
-150 -37 -49 -39 -72 -3 -39 37 33 60 72 68 116 l8 43 8 -30 c4 -16 16 -42 27
-57 l18 -27 -50 -23 c-46 -21 -64 -38 -40 -38 15 0 63 23 82 38 13 11 21 12
31 3 8 -6 17 -8 21 -3 4 4 12 -1 17 -11 6 -10 22 -17 39 -17 40 0 47 17 10 25
-16 4 -30 10 -30 15 0 5 -9 12 -20 15 -19 6 -19 8 10 50 38 55 39 75 4 75 -25
0 -26 2 -20 44 l7 44 -95 1 c-52 1 -97 -3 -101 -8z m160 -21 c3 -5 3 -21 -1
-35 -5 -21 -12 -25 -40 -25 -31 0 -34 3 -34 28 0 16 3 32 7 35 10 10 61 8 68
-3z m35 -95 c0 -21 -30 -65 -44 -65 -12 0 -46 50 -46 69 0 6 19 11 45 11 34 0
45 -4 45 -15z"/>
<path d="M5570 5599 c0 -96 1 -100 20 -94 28 9 25 1 -16 -45 -47 -52 -21 -53
30 -1 27 28 34 40 24 45 -7 3 4 4 25 2 l37 -5 0 68 c0 38 3 83 6 101 6 28 4
32 -12 28 -14 -2 -18 -10 -16 -31 3 -26 1 -27 -38 -27 -34 0 -41 3 -38 18 2
10 12 17 26 16 17 0 19 2 11 13 -6 7 -22 13 -35 13 -24 0 -24 -1 -24 -101z
m100 7 c0 -7 -13 -16 -28 -18 -37 -5 -52 0 -52 18 0 10 12 14 40 14 27 0 40
-4 40 -14z m0 -57 c0 -15 -8 -19 -40 -19 -28 0 -40 4 -40 14 0 15 18 22 58 23
15 0 22 -5 22 -18z"/>
<path d="M1257 5582 c-54 -54 -95 -101 -91 -105 4 -4 52 -7 107 -7 87 0 98 2
87 15 -9 11 -33 15 -84 15 l-71 0 38 25 c20 14 37 29 37 33 0 5 23 34 51 65
83 93 31 65 -74 -41z"/>
<path d="M1466 5653 c3 -16 0 -41 -7 -58 -7 -16 -13 -32 -13 -35 -4 -21 -30
-70 -37 -70 -5 0 -9 -4 -9 -10 0 -5 18 -10 40 -10 38 0 40 1 29 21 -6 13 -7
24 -2 28 5 3 15 32 22 64 7 31 19 63 27 71 21 22 18 26 -21 26 -32 0 -34 -2
-29 -27z"/>
<path d="M1562 5663 c15 -16 15 -22 5 -43 -7 -14 -19 -47 -27 -73 -7 -27 -19
-51 -27 -54 -27 -10 -12 -23 28 -23 35 0 40 2 29 15 -7 9 -9 23 -4 37 4 13 8
26 9 30 0 4 5 12 12 19 8 8 16 -2 29 -45 15 -47 21 -56 41 -56 13 0 23 5 23
10 0 6 -4 10 -9 10 -5 0 -15 16 -21 35 -11 33 -10 37 19 64 35 33 37 39 17 66
-10 14 -30 20 -77 23 -63 4 -64 4 -47 -15z m82 -27 c9 -13 7 -20 -8 -32 -35
-25 -45 -18 -33 21 11 37 23 41 41 11z"/>
<path d="M1795 5673 c-47 -12 -85 -70 -88 -135 -1 -28 4 -44 16 -53 23 -16 22
-32 -3 -45 -34 -18 -23 -28 39 -35 61 -7 110 6 118 32 3 9 -3 9 -24 1 -17 -6
-45 -8 -67 -4 -35 7 -37 8 -20 21 11 8 27 15 36 15 38 0 108 85 108 130 0 9
-6 28 -12 42 -17 35 -49 44 -103 31z m68 -34 c28 -44 -31 -149 -84 -149 -34 0
-45 28 -34 86 13 69 89 110 118 63z"/>
<path d="M2244 5665 c-11 -8 -14 -15 -6 -15 15 0 18 -160 2 -160 -5 0 -10 -4
-10 -10 0 -5 17 -10 37 -10 29 0 34 3 25 12 -8 8 -12 46 -12 105 0 51 -4 93
-8 93 -5 0 -17 -7 -28 -15z"/>
<path d="M2366 5661 c-25 -28 -20 -44 8 -26 20 14 28 14 45 3 12 -7 21 -19 21
-27 0 -18 -66 -107 -85 -115 -35 -13 -11 -26 49 -26 59 0 76 8 76 35 0 1 -21
0 -47 -3 l-47 -5 42 50 c61 72 56 115 -15 126 -22 4 -36 0 -47 -12z"/>
<path d="M2516 5665 c-33 -34 -11 -85 38 -85 33 0 57 47 38 77 -13 21 -58 26
-76 8z m54 -35 c0 -21 -33 -29 -45 -10 -9 15 4 30 26 30 12 0 19 -7 19 -20z"/>
<path d="M3466 5576 c-53 -52 -96 -97 -96 -100 0 -3 47 -6 105 -6 63 0 105 4
105 10 0 6 -36 10 -87 11 -49 0 -81 3 -73 6 23 8 90 75 90 90 0 7 7 13 16 13
8 0 13 4 10 9 -3 4 6 13 19 19 23 11 35 42 16 42 -4 0 -52 -42 -105 -94z"/>
<path d="M3677 5659 c14 -14 -23 -159 -45 -176 -14 -11 -11 -13 15 -13 27 0
31 4 39 42 8 39 11 43 44 44 23 1 41 10 57 28 45 53 20 86 -65 86 -41 0 -53
-3 -45 -11z m93 -32 c0 -30 -36 -65 -51 -50 -7 7 -8 24 -4 42 5 24 12 31 31
31 19 0 24 -5 24 -23z"/>
<path d="M3850 5651 c-18 -34 -11 -57 26 -90 24 -22 34 -40 32 -54 -6 -43 -78
-29 -78 14 0 11 -4 19 -10 19 -5 0 -10 -6 -10 -12 0 -7 -3 -23 -6 -35 -5 -19
-2 -23 18 -23 13 0 29 -5 35 -11 7 -7 20 -5 44 9 47 26 50 61 10 111 -39 48
-40 71 -5 71 17 0 28 -6 31 -20 7 -25 19 -26 27 -2 3 9 8 22 11 28 4 8 -14 12
-54 13 -50 1 -62 -2 -71 -18z"/>
<path d="M4031 5644 c-52 -44 -65 -129 -25 -169 15 -15 15 -18 -6 -40 l-22
-23 44 -8 c24 -4 54 -6 68 -5 29 3 70 27 70 41 0 6 -10 4 -22 -4 -23 -15 -113
-12 -103 3 2 4 28 20 59 35 60 30 86 69 86 128 0 46 -25 68 -78 68 -29 0 -49
-7 -71 -26z m104 0 c29 -29 -5 -127 -54 -154 -26 -13 -58 -1 -65 24 -8 33 11
90 40 120 30 30 56 33 79 10z"/>
<path d="M4520 5649 c-15 -26 -7 -34 18 -20 29 15 62 14 62 -3 0 -7 -11 -43
-25 -80 -13 -36 -22 -73 -18 -82 8 -21 17 -6 44 76 12 36 25 70 29 75 4 6 10
20 13 33 5 21 2 22 -54 22 -49 0 -60 -3 -69 -21z"/>
<path d="M4684 5644 c-18 -27 -23 -91 -11 -136 17 -63 96 -57 118 9 14 44 6
108 -17 134 -25 28 -70 25 -90 -7z m74 -64 c2 -47 -2 -71 -13 -85 -15 -20 -15
-20 -30 -1 -15 20 -21 109 -9 141 4 9 15 15 28 13 19 -3 21 -10 24 -68z"/>
<path d="M4828 5644 c-21 -46 23 -80 71 -54 23 12 28 49 9 68 -22 22 -67 14
-80 -14z m68 -5 c3 -6 0 -17 -7 -24 -12 -12 -17 -12 -33 0 -10 7 -15 18 -11
24 8 14 42 14 51 0z"/>
<path d="M5738 5588 c-4 -76 4 -122 16 -87 11 34 11 169 0 169 -8 0 -13 -29
-16 -82z"/>
<path d="M6191 5570 l-103 -100 75 0 c42 0 78 -4 81 -9 7 -10 25 -9 44 2 28
18 7 27 -65 27 l-78 0 40 41 c22 22 59 59 83 81 40 39 51 58 34 58 -5 0 -54
-45 -111 -100z"/>
<path d="M6410 5656 c-33 -18 -69 -68 -77 -107 -4 -22 0 -38 17 -61 l22 -30
-21 -22 c-12 -12 -21 -25 -21 -29 0 -14 155 -7 174 8 25 19 14 30 -14 15 -24
-13 -100 -4 -100 11 0 8 15 13 33 10 4 0 7 4 7 9 0 6 9 10 19 10 22 0 62 34
79 67 18 34 15 97 -6 116 -22 20 -78 21 -112 3z m90 -21 c25 -30 -16 -129 -57
-140 -13 -3 -23 -10 -23 -16 0 -6 -7 -6 -20 1 -11 6 -20 17 -20 25 0 7 -5 15
-10 17 -12 4 22 82 48 111 18 21 65 22 82 2z"/>
<path d="M6604 5654 c9 -24 -23 -149 -44 -172 -18 -19 -18 -21 -2 -24 34 -8
52 3 52 32 0 44 10 60 37 60 40 0 83 37 83 70 0 36 -23 50 -85 50 -39 0 -46
-3 -41 -16z m80 -10 c22 -9 20 -30 -6 -54 -34 -31 -51 -26 -43 13 11 50 16 54
49 41z"/>
<path d="M6776 5655 c-26 -26 -19 -54 24 -97 22 -23 40 -44 40 -47 -1 -16 -18
-31 -40 -33 -19 -2 -29 4 -41 30 -16 31 -17 31 -23 10 -10 -40 -7 -53 17 -54
12 -1 31 -5 42 -8 25 -9 75 33 75 62 0 11 -19 38 -41 60 -46 44 -47 72 -4 72
18 0 29 -8 37 -25 13 -28 28 -17 28 20 0 17 -8 20 -49 23 -35 2 -53 -2 -65
-13z"/>
<path d="M5210 5598 c0 -8 5 -19 12 -26 8 -8 8 -15 -2 -27 -17 -20 -5 -32 15
-15 22 18 16 74 -7 78 -10 2 -18 -3 -18 -10z"/>
<path d="M1998 5593 c-10 -2 -18 -9 -18 -14 0 -10 -5 -10 85 -12 54 -2 70 1
70 12 0 10 -16 15 -60 16 -33 1 -68 0 -77 -2z"/>
<path d="M4267 5584 c-15 -15 5 -19 82 -16 46 2 79 8 76 13 -7 10 -148 13
-158 3z"/>
<path d="M7048 5573 c18 -2 45 -2 60 0 15 2 0 4 -33 4 -33 0 -45 -2 -27 -4z"/>
<path d="M1980 5523 c0 -9 23 -13 80 -13 44 0 80 4 80 9 0 5 -36 11 -80 13
-59 2 -80 0 -80 -9z"/>
<path d="M4260 5520 c0 -6 35 -10 85 -10 50 0 85 4 85 10 0 6 -35 10 -85 10
-50 0 -85 -4 -85 -10z"/>
<path d="M7020 5510 c0 -5 25 -10 55 -10 30 0 55 5 55 10 0 6 -25 10 -55 10
-30 0 -55 -4 -55 -10z"/>
<path d="M5650 5497 c0 -13 33 -67 41 -67 16 0 10 36 -9 53 -17 16 -32 22 -32
14z"/>
<path d="M2031 4812 c-11 -37 -32 -84 -46 -104 -14 -20 -25 -39 -25 -42 0 -4
15 -6 34 -6 34 0 35 1 29 35 -6 34 -5 35 29 35 41 0 67 -23 49 -43 -15 -19 -4
-27 36 -27 37 0 40 5 18 26 -8 9 -18 27 -21 42 -3 15 -11 38 -18 52 -8 14 -19
42 -25 63 -7 20 -18 37 -25 37 -7 0 -23 -30 -35 -68z m43 -34 c5 -24 3 -28
-15 -28 -17 0 -20 4 -15 23 3 12 6 29 6 37 0 21 16 0 24 -32z"/>
<path d="M2905 4860 c-19 -21 -13 -42 7 -22 24 24 76 3 78 -30 0 -4 -22 -36
-50 -72 -27 -36 -50 -68 -50 -71 0 -3 29 -5 64 -5 57 0 65 3 71 21 9 27 1 33
-23 20 -25 -13 -62 -14 -62 -2 0 5 14 21 30 35 55 46 65 127 18 140 -41 10
-65 6 -83 -14z"/>
<path d="M3086 4813 c-25 -38 -46 -74 -46 -80 0 -9 16 -13 45 -13 44 0 45 -1
45 -31 0 -37 23 -35 28 2 2 13 9 30 15 38 9 11 9 15 0 18 -9 3 -13 26 -13 69
0 84 -15 84 -74 -3z m37 -64 c-5 -5 -18 -6 -30 -3 -21 6 -21 6 5 49 l27 43 3
-41 c2 -22 0 -43 -5 -48z"/>
<path d="M3222 4868 c-20 -20 -14 -65 9 -82 19 -13 24 -13 45 1 42 27 27 93
-21 93 -12 0 -26 -5 -33 -12z m56 -36 c3 -18 -1 -22 -22 -22 -19 0 -26 5 -26
18 0 39 43 43 48 4z"/>
<path d="M9957 4812 c-26 -29 -20 -60 18 -99 20 -21 35 -46 35 -60 0 -22 -4
-24 -37 -21 -31 2 -39 7 -41 26 -4 27 -22 30 -22 3 0 -11 -2 -26 -5 -34 -5
-11 7 -14 54 -16 54 -1 62 1 76 23 20 31 14 56 -27 101 -35 40 -34 70 2 70 20
0 26 -6 28 -27 4 -31 17 -37 26 -12 9 24 7 56 -3 49 -5 -3 -12 -1 -16 5 -10
17 -71 11 -88 -8z"/>
<path d="M3577 4776 c-9 -23 2 -44 24 -51 26 -9 51 13 47 39 -4 27 -62 36 -71
12z m43 -16 c0 -5 -7 -10 -15 -10 -8 0 -15 5 -15 10 0 6 7 10 15 10 8 0 15 -4
15 -10z"/>
<path d="M8810 4763 c-102 -16 -247 -46 -255 -53 -5 -4 -35 -13 -65 -20 -84
-19 -228 -75 -311 -120 -40 -23 -93 -50 -116 -60 -24 -10 -43 -24 -43 -29 0
-6 -5 -11 -11 -11 -24 0 -195 -131 -312 -240 -107 -99 -327 -367 -327 -397 0
-7 -4 -13 -10 -13 -5 0 -10 -6 -10 -14 0 -7 -6 -19 -14 -25 -8 -7 -31 -47 -51
-89 -20 -42 -43 -84 -51 -93 -15 -17 -45 -96 -75 -203 -11 -38 -28 -88 -38
-110 -29 -65 -73 -289 -92 -471 -12 -119 -4 -410 15 -510 52 -281 55 -292 87
-361 10 -22 19 -47 19 -56 0 -23 60 -191 74 -208 7 -8 33 -53 57 -100 24 -47
47 -87 52 -88 4 -2 5 -8 1 -13 -3 -5 0 -9 5 -9 6 0 11 -5 11 -11 0 -15 92
-145 140 -199 23 -25 62 -72 88 -104 67 -85 103 -119 247 -237 93 -76 184
-139 202 -139 7 0 13 -4 13 -9 0 -19 287 -151 395 -181 61 -17 119 -35 130
-40 95 -45 473 -70 678 -45 123 14 225 34 242 45 6 4 42 15 80 25 98 25 238
76 251 92 6 7 17 13 23 13 18 0 181 82 181 91 0 4 10 11 22 15 63 19 313 226
425 350 144 161 293 355 293 384 0 5 21 44 46 87 42 70 124 261 124 287 0 6 7
25 16 41 15 29 55 188 69 272 7 44 9 45 75 59 19 3 46 11 60 17 14 6 27 11 30
12 3 1 12 5 20 8 8 4 38 13 65 21 123 35 221 66 237 76 10 5 52 19 95 30 115
30 257 73 263 80 3 3 25 11 50 18 25 6 77 21 115 32 39 11 97 27 130 36 33 9
65 20 70 24 14 10 122 44 240 75 55 14 104 30 110 35 6 5 38 16 71 24 77 18
265 76 279 84 5 4 41 16 80 27 74 21 92 42 53 61 -29 14 -189 98 -383 201
-177 94 -189 100 -214 112 -81 40 -301 157 -330 175 -20 12 -52 28 -71 36 -19
8 -75 37 -125 65 -49 29 -115 64 -145 78 -30 15 -71 36 -90 48 -19 11 -57 30
-84 40 -27 11 -61 28 -75 38 -14 10 -69 40 -121 67 -52 27 -99 54 -103 61 -4
7 -14 13 -21 13 -8 0 -45 16 -82 35 -38 19 -75 35 -81 35 -7 0 -13 4 -13 9 0
5 -30 25 -67 43 -90 45 -339 172 -383 196 -19 10 -53 27 -75 38 -22 10 -72 38
-112 61 -39 24 -78 43 -85 44 -7 0 -40 16 -73 34 -33 19 -105 57 -160 84 -55
28 -120 61 -145 75 -156 85 -285 139 -410 170 -36 9 -74 21 -85 26 -88 39
-266 60 -496 59 -107 -1 -205 -4 -219 -6z m580 -48 c90 -18 92 -19 105 -27 6
-3 53 -17 105 -31 112 -30 210 -65 210 -76 0 -4 18 -13 40 -20 22 -6 40 -16
40 -21 0 -5 -25 -42 -55 -82 -30 -40 -55 -78 -55 -84 0 -6 -16 -27 -35 -47
-19 -20 -35 -39 -35 -42 0 -8 -54 -84 -125 -179 -105 -138 -114 -151 -115
-160 0 -5 -23 -41 -52 -80 -127 -175 -175 -243 -187 -267 -7 -14 -57 -86 -113
-160 -55 -74 -103 -143 -108 -154 -4 -11 -19 -31 -32 -45 -14 -14 -31 -36 -38
-50 -7 -14 -59 -88 -115 -165 -56 -77 -112 -158 -125 -180 -13 -22 -52 -77
-86 -121 -33 -45 -87 -120 -118 -168 -31 -47 -61 -86 -66 -86 -6 0 -9 -3 -8
-7 2 -5 -21 -42 -50 -83 -28 -41 -72 -104 -96 -140 -25 -36 -53 -74 -64 -85
-11 -11 -30 -38 -42 -60 -12 -22 -39 -62 -60 -90 -57 -77 -170 -235 -170 -240
0 -6 -38 -60 -132 -187 -48 -64 -99 -136 -114 -160 -15 -24 -31 -44 -35 -46
-5 -2 -16 -18 -24 -35 -25 -52 -70 -101 -87 -94 -15 5 -158 189 -158 202 0 3
-19 39 -43 78 -24 40 -54 95 -67 122 -13 28 -28 53 -34 57 -7 5 -7 8 -1 8 6 0
5 4 -1 8 -13 8 -99 257 -108 312 -1 3 -4 10 -7 15 -9 14 -17 53 -34 148 -33
194 -37 252 -36 450 1 211 0 207 58 545 3 17 9 32 13 32 4 0 7 6 8 13 2 35 96
310 112 330 5 7 31 53 56 102 25 50 52 97 59 105 7 8 20 31 29 50 40 87 265
342 413 467 139 119 195 155 373 245 47 23 87 46 88 50 2 4 9 8 15 8 6 0 38
11 71 24 34 13 102 35 151 47 50 13 92 27 95 30 3 4 55 16 115 27 96 18 140
20 355 17 171 -3 268 -9 320 -20z m566 -267 c17 -34 52 -106 76 -158 25 -52
75 -156 111 -230 36 -74 80 -169 98 -210 17 -41 35 -77 39 -80 4 -3 27 -50 50
-105 23 -55 48 -107 54 -115 6 -8 27 -49 45 -90 18 -41 57 -124 86 -185 29
-60 60 -126 69 -145 9 -19 20 -42 26 -50 20 -30 170 -353 170 -365 0 -7 11
-29 25 -49 14 -20 25 -39 25 -42 0 -3 34 -74 75 -158 41 -84 76 -164 77 -177
3 -21 -4 -25 -80 -45 -45 -12 -88 -26 -95 -32 -6 -5 -20 -8 -29 -7 -10 2 -18
-1 -18 -6 0 -5 -5 -9 -12 -9 -17 0 -287 -80 -323 -95 -17 -8 -97 -32 -179 -55
-82 -22 -154 -44 -160 -48 -6 -3 -15 -8 -21 -9 -100 -27 -328 -97 -350 -108
-17 -8 -51 -19 -75 -25 -25 -5 -76 -19 -115 -30 -38 -11 -91 -26 -117 -33 -27
-6 -48 -15 -48 -19 0 -5 -7 -8 -15 -8 -8 0 -41 -8 -72 -19 -32 -10 -96 -29
-143 -41 -47 -13 -98 -29 -115 -36 -28 -12 -181 -58 -305 -91 -30 -8 -59 -19
-65 -23 -9 -8 -122 -42 -254 -76 -30 -8 -68 -21 -85 -29 -17 -7 -63 -22 -103
-33 -68 -19 -78 -18 -81 8 0 3 -15 39 -33 80 -29 69 -95 168 -132 199 -14 11
-12 18 14 62 17 27 34 49 38 49 4 0 14 12 22 28 7 15 32 52 54 82 117 161 195
272 195 277 0 4 17 29 38 57 70 92 188 261 194 276 3 8 35 54 72 102 93 124
156 215 156 227 0 6 9 15 19 21 11 5 23 20 27 32 3 12 12 28 18 35 6 7 28 36
49 65 21 29 69 96 107 150 39 53 70 99 70 103 0 6 108 156 170 236 15 19 41
59 56 88 16 29 41 64 56 79 15 15 28 30 28 35 0 4 41 63 90 131 50 68 90 126
90 129 0 3 14 19 30 37 17 18 30 37 30 42 0 6 39 63 88 127 118 157 128 171
148 209 9 18 28 45 43 61 14 15 32 40 40 54 8 15 17 25 20 23 3 -2 20 -33 37
-68z m54 30 c0 -6 3 -9 6 -5 13 13 277 -183 338 -252 11 -11 25 -21 32 -21 8
0 31 -21 51 -48 21 -26 70 -86 109 -132 129 -154 172 -222 291 -462 13 -26 39
-94 58 -150 19 -57 41 -122 49 -145 23 -61 64 -300 76 -443 11 -118 6 -342 -9
-449 l-6 -45 -54 110 c-141 288 -211 438 -211 452 0 7 -4 12 -8 12 -5 0 -28
46 -52 103 -23 56 -48 109 -55 117 -13 16 -78 160 -90 198 -3 12 -11 22 -16
22 -5 0 -8 3 -7 8 1 7 -39 95 -130 282 -31 63 -64 133 -75 155 -10 22 -27 56
-37 75 -10 19 -35 71 -56 115 -20 44 -69 148 -109 230 -40 83 -83 175 -95 205
-13 30 -29 62 -37 71 -7 9 -10 18 -7 22 9 9 44 -11 44 -25z m346 -170 c49 -22
94 -46 99 -53 6 -6 53 -31 105 -55 52 -24 100 -48 105 -52 23 -18 166 -88 180
-88 8 0 15 -8 15 -17 0 -9 3 -14 6 -11 3 3 51 -18 107 -48 56 -30 147 -77 202
-105 55 -28 154 -80 220 -114 66 -35 162 -84 213 -109 51 -25 113 -59 138 -76
25 -16 49 -30 54 -30 9 0 63 -29 150 -80 26 -15 58 -31 70 -35 13 -4 38 -16
54 -26 68 -40 182 -99 192 -99 6 0 22 -8 35 -18 13 -11 62 -38 109 -61 47 -23
96 -49 110 -56 14 -8 68 -36 120 -62 52 -26 100 -53 105 -58 6 -6 53 -31 105
-55 52 -25 102 -51 110 -59 13 -12 9 -13 -25 -8 -22 3 -92 11 -155 17 -63 6
-124 15 -135 20 -11 5 -87 15 -170 24 -484 48 -682 68 -695 73 -8 3 -31 6 -50
5 -19 0 -39 4 -45 8 -5 4 -87 15 -181 25 l-171 18 31 26 c17 14 33 26 35 28 3
2 0 8 -6 14 -9 9 -22 3 -50 -20 l-38 -32 -27 33 c-16 18 -28 36 -28 40 0 4 -7
8 -15 8 -23 0 -18 -22 16 -63 18 -22 25 -37 17 -37 -18 0 -68 -48 -68 -65 0
-22 24 -18 46 6 39 43 52 43 74 -1 11 -22 27 -40 35 -40 18 0 18 1 0 36 -8 15
-12 30 -10 32 6 7 226 -18 250 -28 11 -4 72 -13 135 -20 63 -6 174 -17 245
-25 72 -8 227 -24 345 -35 118 -12 224 -26 235 -30 11 -4 94 -15 185 -25 91
-9 185 -19 210 -22 l45 -6 -40 -14 c-22 -7 -50 -18 -62 -24 -11 -6 -26 -9 -31
-5 -6 3 -12 1 -14 -4 -2 -6 -19 -15 -38 -20 -19 -5 -75 -20 -125 -34 -49 -15
-103 -29 -120 -33 -16 -3 -32 -9 -35 -13 -3 -5 -81 -29 -175 -55 -93 -26 -172
-51 -175 -55 -3 -4 -23 -12 -45 -17 -147 -40 -300 -85 -309 -91 -12 -9 -73
-28 -231 -72 -60 -17 -119 -35 -130 -40 -11 -5 -63 -21 -115 -35 -105 -30
-170 -51 -215 -71 -46 -20 -105 -33 -105 -24 0 5 4 42 10 82 5 40 11 96 12
123 2 28 7 56 12 63 9 15 6 183 -4 197 -4 6 -10 51 -14 100 -9 141 -76 480
-97 495 -3 3 -21 48 -39 100 -33 97 -135 304 -198 400 -19 30 -64 90 -99 132
-35 43 -63 82 -63 87 0 5 -18 24 -40 41 -22 17 -40 37 -40 43 0 15 -61 77 -76
77 -7 0 -27 18 -44 40 -17 22 -36 40 -42 40 -5 0 -21 9 -35 20 -39 30 -15 24
83 -22z m613 -2179 c-11 -57 -29 -122 -39 -144 -10 -22 -23 -58 -30 -80 -7
-22 -21 -62 -31 -90 -10 -27 -20 -60 -24 -72 -3 -13 -11 -23 -16 -23 -6 0 -7
-4 -4 -10 3 -5 1 -10 -4 -10 -6 0 -11 -5 -11 -10 0 -6 -21 -48 -47 -95 -27
-47 -57 -102 -69 -123 -78 -146 -331 -420 -518 -561 -53 -40 -112 -80 -129
-89 -18 -8 -39 -20 -47 -27 -8 -7 -42 -26 -75 -42 -165 -84 -241 -115 -351
-143 -65 -17 -128 -35 -139 -40 -70 -33 -399 -56 -578 -40 -108 10 -250 32
-257 40 -3 4 -43 17 -90 29 -47 13 -114 34 -150 47 -36 13 -71 24 -77 24 -6 0
-13 3 -15 8 -1 4 -41 25 -88 47 -47 22 -93 47 -103 56 -9 9 -30 22 -45 30
-135 68 -458 356 -437 390 4 5 13 8 21 5 8 -3 14 -1 14 4 0 6 10 10 22 10 29
0 116 26 388 114 41 13 122 36 180 52 58 15 110 31 116 35 5 5 35 15 65 23
116 31 274 78 284 85 6 5 87 30 180 56 94 27 172 51 175 55 3 3 50 18 105 33
209 57 250 69 260 76 11 8 53 21 230 71 61 17 124 37 140 45 17 7 74 25 127
39 129 33 212 59 218 68 3 4 26 12 50 17 25 6 77 20 115 31 39 11 93 26 121
34 28 8 60 19 70 24 20 10 293 92 307 92 4 0 28 9 52 20 43 20 147 50 153 45
1 -1 -7 -49 -19 -106z m-2975 -519 c42 -55 96 -174 96 -209 0 -15 -16 -24 -72
-42 -40 -12 -77 -22 -82 -20 -4 1 -13 -2 -20 -7 -12 -10 -83 -34 -166 -57 -30
-8 -76 -21 -103 -29 -55 -18 -56 -23 21 85 29 41 67 95 85 121 18 26 63 90
101 143 78 108 71 107 140 15z"/>
<path d="M11337 3420 c3 -12 -1 -44 -10 -73 -8 -29 -18 -64 -21 -79 -4 -17
-13 -28 -24 -29 -14 0 -14 -2 3 -9 11 -5 30 -9 43 -9 19 -1 22 3 17 19 -9 28
24 151 48 178 l20 22 -40 0 c-36 0 -41 -2 -36 -20z"/>
<path d="M2190 4680 c0 -11 7 -20 15 -20 8 0 15 9 15 20 0 11 -7 20 -15 20 -8
0 -15 -9 -15 -20z"/>
<path d="M1968 4108 c17 -17 17 -188 0 -189 -7 -1 3 -5 24 -8 61 -12 118 0
141 31 l21 28 -22 29 c-13 18 -18 32 -12 36 18 11 11 54 -12 69 -28 20 -159
23 -140 4z m115 -29 c15 -24 1 -49 -28 -49 -22 0 -25 4 -25 36 0 31 3 35 21
32 12 -2 27 -10 32 -19z m1 -90 c26 -20 26 -22 10 -41 -11 -11 -28 -18 -43
-16 -21 2 -26 9 -27 33 -2 52 16 59 60 24z"/>
<path d="M2905 4100 c-21 -23 -13 -39 10 -20 8 7 22 10 30 6 22 -8 19 -44 -5
-58 -23 -15 -26 -28 -7 -28 8 0 21 -8 30 -17 24 -28 -2 -58 -48 -55 -27 2 -33
-1 -29 -13 9 -24 69 -19 94 7 23 25 25 87 3 95 -10 4 -9 11 4 34 16 27 16 29
-2 49 -23 26 -57 26 -80 0z"/>
<path d="M3046 4104 c-3 -9 -6 -23 -6 -32 0 -12 3 -13 12 -4 17 17 78 16 78
-1 0 -8 -9 -40 -20 -72 -22 -63 -26 -100 -10 -90 9 5 48 121 64 188 l6 27 -59
0 c-44 0 -60 -4 -65 -16z"/>
<path d="M3211 4106 c-7 -8 -11 -30 -9 -48 3 -29 7 -33 36 -36 27 -3 34 1 42
23 13 35 13 41 -6 59 -19 20 -48 21 -63 2z m47 -39 c-2 -11 -9 -22 -15 -25
-16 -4 -27 22 -19 43 8 22 38 6 34 -18z"/>
<path d="M2174 3929 c-8 -14 11 -33 25 -25 6 4 11 14 11 22 0 16 -26 19 -36 3z"/>
<path d="M2003 3347 c-25 -13 -43 -54 -43 -99 0 -94 98 -141 162 -78 35 35 30
55 -5 22 -29 -27 -78 -29 -100 -4 -26 29 -23 103 6 130 13 12 32 22 43 22 23
-1 54 -23 54 -39 0 -6 5 -11 10 -11 6 0 10 15 10 33 l0 33 -57 1 c-32 0 -68
-4 -80 -10z"/>
<path d="M2943 3325 c-13 -19 -23 -38 -23 -42 0 -5 -9 -19 -20 -33 -30 -38
-25 -50 19 -50 36 0 40 -3 43 -27 4 -35 32 -37 37 -3 1 14 8 29 15 33 8 6 8
10 -1 14 -9 3 -13 28 -13 74 0 59 -3 69 -17 69 -10 0 -28 -16 -40 -35z m8 -98
c-5 -5 -16 -7 -25 -4 -13 5 -12 12 7 46 l22 41 3 -36 c2 -20 -1 -41 -7 -47z"/>
<path d="M3055 3340 c-22 -24 -14 -36 13 -19 26 16 52 5 52 -24 0 -16 -8 -26
-27 -34 l-28 -10 28 -11 c36 -15 44 -38 21 -63 -13 -15 -25 -18 -46 -14 -21 5
-28 3 -28 -9 0 -20 68 -22 92 -3 25 18 33 80 14 99 -12 13 -13 21 -4 46 9 24
9 34 -1 46 -19 22 -64 20 -86 -4z"/>
<path d="M3223 3352 c-6 -4 -16 -19 -22 -34 -8 -21 -6 -29 8 -42 36 -32 81
-17 81 28 0 47 -32 70 -67 48z m44 -56 c-4 -9 -13 -16 -21 -16 -19 0 -29 30
-15 47 11 12 14 12 27 -1 8 -8 12 -22 9 -30z"/>
<path d="M3566 3262 c-12 -19 7 -52 29 -52 28 0 47 22 39 44 -6 17 -59 23 -68
8z m44 -22 c0 -5 -7 -10 -15 -10 -8 0 -15 5 -15 10 0 6 7 10 15 10 8 0 15 -4
15 -10z"/>
<path d="M2170 3160 c0 -11 7 -20 15 -20 8 0 15 9 15 20 0 11 -7 20 -15 20 -8
0 -15 -9 -15 -20z"/>
<path d="M13146 2976 c7 -30 -23 -135 -47 -162 -26 -28 -25 -30 20 -26 29 3
38 8 34 18 -9 24 7 84 22 84 8 0 15 -6 15 -12 0 -7 5 -30 11 -50 9 -33 14 -38
40 -38 l29 0 -26 40 c-27 40 -27 70 0 70 7 0 17 7 20 16 19 51 -13 84 -81 84
-41 0 -43 -2 -37 -24z m82 -8 c18 -18 14 -33 -12 -47 -34 -19 -44 -11 -34 27
9 33 25 41 46 20z"/>
<path d="M1954 2599 c-3 -5 0 -9 6 -9 8 0 10 -29 8 -95 l-3 -95 57 0 c31 0 68
4 82 10 60 23 71 127 18 167 -29 21 -158 38 -168 22z m153 -45 c7 -10 13 -35
13 -56 0 -48 -40 -91 -79 -86 -25 3 -26 5 -29 87 l-3 84 43 -6 c23 -3 48 -13
55 -23z"/>
<path d="M2927 2580 c-30 -24 -51 -101 -39 -145 5 -16 20 -37 35 -45 24 -13
28 -13 53 6 39 28 50 68 30 99 -10 15 -26 25 -41 25 -13 0 -26 4 -30 10 -7 12
30 50 49 50 8 0 18 5 21 10 11 18 -52 10 -78 -10z m33 -95 c18 -22 19 -48 2
-67 -14 -17 -16 -17 -28 0 -18 23 -18 82 0 82 7 0 19 -7 26 -15z"/>
<path d="M3040 2581 c-17 -32 -12 -46 9 -27 11 10 30 16 43 14 18 -2 24 -10
26 -35 3 -27 -5 -40 -48 -83 -28 -29 -49 -54 -46 -57 10 -10 111 -10 124 0 14
11 17 47 3 47 -5 0 -14 -7 -21 -15 -12 -14 -50 -21 -50 -9 0 3 15 24 34 45 40
48 50 85 30 117 -19 30 -88 32 -104 3z"/>
<path d="M3198 2589 c-37 -21 -9 -89 36 -89 39 0 62 60 34 88 -15 15 -47 15
-70 1z m58 -24 c4 -8 0 -22 -7 -31 -10 -13 -14 -13 -26 -1 -16 16 -7 47 13 47
8 0 17 -7 20 -15z"/>
<path d="M3572 2514 c-17 -18 -12 -44 10 -58 14 -8 22 -6 39 11 l21 21 -21 21
c-25 25 -31 25 -49 5z m38 -29 c0 -8 -7 -15 -15 -15 -8 0 -15 7 -15 15 0 8 7
15 15 15 8 0 15 -7 15 -15z"/>
<path d="M2183 2408 c2 -7 10 -13 17 -13 7 0 15 6 18 13 2 7 -5 12 -18 12 -13
0 -20 -5 -17 -12z"/>
<path d="M11122 2170 c-67 -41 -92 -126 -51 -178 l20 -27 -22 -18 c-12 -9 -20
-20 -17 -22 2 -3 32 -8 66 -11 48 -5 67 -3 87 10 34 22 32 38 -2 21 -18 -8
-42 -11 -67 -7 l-40 7 25 16 c13 9 34 19 46 23 27 9 71 59 79 92 11 42 -4 90
-32 102 -35 17 -54 15 -92 -8z m87 -22 c11 -30 -6 -98 -31 -125 -28 -30 -73
-30 -89 -2 -8 16 -8 32 0 59 22 74 101 119 120 68z"/>
<path d="M7358 1167 c12 -14 0 -78 -24 -134 -8 -17 -14 -34 -14 -38 0 -4 -8
-14 -17 -21 -16 -12 -12 -13 31 -14 41 0 47 2 36 15 -9 11 -9 22 0 50 10 30
16 35 41 35 35 0 79 39 79 69 0 30 -38 51 -93 51 -39 0 -47 -3 -39 -13z m86
-29 c14 -23 -3 -52 -33 -56 -22 -4 -26 12 -15 56 7 26 31 26 48 0z"/>
</g>
</svg>
