<?xml version="1.0" standalone="no"?>
<!DOCTYPE svg PUBLIC "-//W3C//DTD SVG 20010904//EN"
 "http://www.w3.org/TR/2001/REC-SVG-20010904/DTD/svg10.dtd">
<svg version="1.0" xmlns="http://www.w3.org/2000/svg"
 width="1479.000000pt" height="473.000000pt" viewBox="0 0 1479.000000 473.000000"
 preserveAspectRatio="xMidYMid meet">
<metadata>
Created by potrace 1.16, written by Peter Selinger 2001-2019
</metadata>
<g transform="translate(0.000000,473.000000) scale(0.100000,-0.100000)"
fill="#000000" stroke="none">
<path d="M1522 4375 c-11 -14 -42 -40 -70 -59 -53 -35 -60 -56 -12 -31 l28 14
-5 -42 c-4 -23 -10 -43 -14 -45 -5 -2 -9 -19 -9 -37 0 -25 -5 -35 -21 -40 -41
-13 -5 -19 131 -21 114 -2 140 0 140 12 0 8 -10 14 -21 14 -19 0 -20 4 -15 35
6 30 4 35 -12 35 -15 0 -18 6 -15 28 8 49 12 55 27 43 10 -8 16 -8 24 2 9 11
3 19 -29 37 -23 12 -54 35 -69 51 -15 16 -30 29 -33 29 -3 0 -14 -11 -25 -25z
m47 -24 c9 -17 6 -19 -23 -23 -33 -4 -34 -3 -17 19 20 28 27 28 40 4z m48 -55
c-2 -6 -34 -12 -70 -14 -55 -2 -67 0 -67 13 0 12 13 15 70 13 45 -1 69 -5 67
-12z m-7 -46 c0 -6 -29 -10 -66 -10 -41 0 -63 4 -59 10 3 6 33 10 66 10 33 0
59 -4 59 -10z m-33 -37 c-20 -2 -52 -2 -70 0 -17 2 0 4 38 4 39 0 53 -2 32 -4z
m-79 -50 c-4 -39 -28 -42 -28 -4 0 21 5 31 16 31 11 0 14 -8 12 -27z m60 -6
c3 -22 -1 -27 -17 -27 -17 0 -21 6 -21 31 0 24 4 30 18 27 10 -2 18 -14 20
-31z m62 3 c0 -20 -5 -30 -15 -30 -10 0 -15 10 -15 30 0 20 5 30 15 30 10 0
15 -10 15 -30z"/>
<path d="M2180 4387 c0 -7 5 -18 11 -24 22 -22 -1 -34 -55 -29 l-53 4 5 -48
c3 -29 0 -50 -7 -54 -6 -4 -11 -14 -11 -22 0 -11 11 -13 55 -8 l55 7 1 -34 c1
-52 5 -78 12 -86 16 -15 24 13 26 85 1 29 4 32 34 32 18 0 38 -5 44 -11 21
-21 31 1 29 68 l-1 67 -51 -3 c-45 -2 -52 0 -57 18 -3 12 -1 24 5 27 6 4 5 10
-3 15 -20 13 -39 11 -39 -4z m0 -96 c0 -11 5 -23 10 -26 18 -11 -17 -35 -49
-35 -24 0 -31 5 -32 20 -1 11 -2 26 -3 33 -4 21 4 27 40 27 27 0 34 -4 34 -19z
m114 -24 c1 -36 0 -37 -36 -37 -40 0 -46 8 -40 52 4 26 8 29 40 26 33 -3 35
-5 36 -41z"/>
<path d="M2493 4370 c-4 -17 -14 -20 -54 -20 -27 0 -49 -4 -49 -10 0 -5 20
-10 45 -10 44 0 45 -1 33 -22 -21 -38 -61 -78 -77 -78 -11 0 -12 -3 -4 -11 9
-9 19 -6 42 10 l31 22 0 -80 c0 -102 18 -111 32 -16 3 17 12 21 56 23 49 3 52
2 52 -22 0 -19 -4 -23 -20 -19 -26 7 -26 -9 1 -25 35 -22 46 1 51 101 4 82 -2
112 -17 87 -3 -5 -33 -10 -67 -10 -51 0 -59 2 -54 16 3 9 6 18 6 20 0 2 41 4
90 4 68 0 90 3 90 13 0 11 -18 13 -81 9 -79 -5 -81 -4 -74 17 5 16 2 21 -10
21 -9 0 -19 -9 -22 -20z m107 -115 c0 -15 -15 -16 -102 -6 -5 1 -8 6 -8 11 0
6 25 10 55 10 43 0 55 -3 55 -15z m0 -43 c0 -18 -9 -19 -97 -13 -7 1 -13 8
-13 16 0 12 13 15 55 15 46 0 55 -3 55 -18z"/>
<path d="M214 4355 c-21 -32 -11 -44 15 -21 30 28 55 17 59 -25 3 -30 -4 -42
-42 -84 -25 -26 -43 -52 -40 -57 3 -4 30 -8 59 -8 45 0 56 4 65 21 17 30 8 40
-21 25 -44 -22 -55 -4 -21 34 61 66 47 140 -24 140 -25 0 -38 -7 -50 -25z"/>
<path d="M377 4373 c-4 -3 -7 -18 -7 -32 0 -19 3 -22 12 -13 7 7 27 12 46 12
30 0 33 -2 26 -22 -3 -13 -10 -28 -14 -33 -11 -13 -40 -96 -40 -112 0 -28 29
-11 36 20 3 17 17 55 30 82 12 28 26 63 29 78 l7 27 -59 0 c-33 0 -63 -3 -66
-7z"/>
<path d="M1770 4370 c0 -11 34 -14 115 -11 46 2 48 1 30 -12 -11 -8 -29 -16
-40 -18 -13 -3 -21 -14 -23 -32 -3 -26 -5 -27 -63 -27 -33 0 -59 -4 -59 -10 0
-6 27 -10 60 -10 l60 0 0 -55 c0 -46 -3 -54 -17 -52 -28 3 -26 -17 3 -27 35
-11 44 4 44 77 l0 57 71 0 c52 0 70 3 66 13 -2 8 -26 12 -68 12 -80 0 -86 19
-17 55 76 40 64 50 -57 50 -63 0 -105 -4 -105 -10z"/>
<path d="M3423 4359 c-4 -13 -19 -48 -35 -78 -16 -30 -25 -57 -22 -60 4 -3 9
0 11 7 12 33 23 4 23 -63 0 -41 4 -75 9 -75 13 0 19 41 21 138 0 46 6 95 13
110 10 23 12 6 15 -110 1 -81 7 -138 12 -138 6 0 10 5 10 10 0 14 133 13 147
-1 18 -18 21 1 24 135 l2 128 -94 2 c-52 1 -102 5 -112 10 -14 7 -20 4 -24
-15z m117 -38 c0 -25 -11 -32 -38 -24 -13 3 -22 13 -22 24 0 14 7 19 30 19 23
0 30 -5 30 -19z m90 -63 c0 -129 0 -128 -81 -128 l-69 0 0 76 c0 65 2 75 16
70 9 -3 22 -6 30 -6 8 0 14 -7 14 -15 0 -9 -6 -12 -15 -9 -12 5 -15 -2 -15
-29 0 -20 -2 -41 -5 -49 -4 -10 6 -13 40 -13 44 0 45 1 47 33 0 17 1 38 2 45
1 6 -7 11 -17 11 -12 -1 -17 4 -15 15 2 10 11 15 26 13 17 -2 22 2 22 17 0 23
-15 28 -26 10 -4 -8 -9 -7 -14 2 -14 21 1 39 31 39 l29 0 0 -82z m-60 -58 c0
-13 -7 -20 -20 -20 -13 0 -20 7 -20 20 0 13 7 20 20 20 13 0 20 -7 20 -20z"/>
<path d="M3790 4364 c0 -13 -7 -15 -35 -10 -22 4 -35 3 -35 -4 0 -5 16 -10 35
-10 24 0 35 -5 35 -14 0 -8 3 -22 7 -32 6 -15 1 -17 -46 -11 -39 5 -51 3 -48
-6 2 -7 13 -13 25 -15 20 -3 22 -9 22 -63 0 -56 2 -60 20 -54 34 11 22 -5 -15
-21 -32 -13 -48 -34 -26 -34 23 0 102 41 96 50 -4 6 6 10 24 10 17 0 31 -4 31
-9 0 -5 15 -14 33 -22 17 -7 35 -18 39 -23 5 -7 11 -7 20 2 16 16 3 28 -42 40
-24 7 -28 10 -13 11 28 1 32 9 34 65 2 42 5 46 26 46 15 0 23 5 20 13 -3 8
-20 11 -49 9 -44 -3 -45 -2 -46 28 -1 29 1 30 44 30 30 0 43 4 38 11 -4 6 -19
9 -36 5 -20 -4 -30 -1 -34 9 -8 20 -34 19 -34 0 0 -10 -10 -15 -31 -15 -16 0
-28 4 -25 9 3 5 -1 12 -10 15 -22 9 -24 8 -24 -10z m90 -34 c0 -5 -13 -10 -30
-10 -16 0 -30 5 -30 10 0 6 14 10 30 10 17 0 30 -4 30 -10z m0 -40 c0 -5 -16
-10 -35 -10 -19 0 -35 5 -35 10 0 6 16 10 35 10 19 0 35 -4 35 -10z m-52 -37
c-10 -2 -28 -2 -40 0 -13 2 -5 4 17 4 22 1 32 -1 23 -4z m90 0 c-10 -2 -26 -2
-35 0 -10 3 -2 5 17 5 19 0 27 -2 18 -5z m-78 -33 c0 -5 -13 -10 -30 -10 -16
0 -30 5 -30 10 0 6 14 10 30 10 17 0 30 -4 30 -10z m80 0 c0 -5 -11 -10 -25
-10 -14 0 -25 5 -25 10 0 6 11 10 25 10 14 0 25 -4 25 -10z m-85 -35 c0 -5
-12 -11 -27 -13 -21 -2 -28 1 -28 13 0 12 7 15 28 13 15 -2 27 -7 27 -13z m85
0 c0 -9 -9 -15 -25 -15 -16 0 -25 6 -25 15 0 9 9 15 25 15 16 0 25 -6 25 -15z"/>
<path d="M4210 4351 c0 -29 -2 -31 -39 -31 -22 0 -43 -4 -46 -10 -4 -6 12 -10
39 -10 l46 0 0 -45 c0 -42 -2 -46 -41 -66 -34 -17 -41 -18 -36 -5 4 9 3 15 -1
15 -23 -4 -32 4 -32 26 0 19 5 25 21 25 12 0 19 5 16 13 -2 6 -12 11 -21 9
-14 -3 -17 3 -14 30 2 25 8 34 26 36 47 7 19 20 -38 19 -33 -1 -60 -5 -60 -9
0 -5 11 -8 25 -8 22 0 25 -4 25 -35 0 -24 -5 -35 -15 -35 -8 0 -15 -4 -15 -10
0 -5 7 -10 15 -10 24 0 19 -56 -6 -74 -12 -8 -18 -19 -15 -24 8 -14 48 -3 64
16 10 14 12 13 12 -6 0 -29 16 -28 57 4 l33 25 0 -30 c0 -24 -4 -31 -19 -31
-11 0 -23 -4 -26 -10 -3 -5 0 -10 9 -10 8 0 16 -5 18 -12 2 -6 12 -9 21 -5 14
5 17 21 18 84 0 71 2 75 12 47 17 -43 56 -94 73 -94 20 0 18 6 -18 51 -27 34
-30 42 -18 50 44 26 45 28 32 41 -11 11 -16 10 -26 -4 -14 -19 -36 -24 -36 -9
0 5 -3 16 -6 25 -5 13 2 16 40 16 34 0 46 4 46 15 0 8 -6 15 -14 15 -8 0 -16
6 -19 14 -3 7 -16 16 -29 18 -13 3 -31 9 -40 13 -15 6 -18 2 -18 -24z m50 -29
c-27 -4 -34 2 -26 23 5 13 8 13 26 -2 l21 -18 -21 -3z"/>
<path d="M4482 4362 c-56 -2 -90 -7 -87 -12 4 -6 17 -10 31 -10 22 0 24 -4 24
-47 0 -68 -16 -118 -51 -157 -31 -36 -35 -46 -19 -46 20 0 60 55 76 107 17 51
17 51 64 55 89 6 97 -3 50 -54 -19 -22 -30 -28 -30 -18 0 9 -9 22 -19 30 -11
7 -18 17 -15 22 3 4 0 8 -5 8 -15 0 -14 -5 8 -51 22 -44 21 -45 -51 -68 -21
-7 -38 -17 -38 -22 0 -11 25 -12 48 0 9 4 31 15 47 23 28 14 33 14 75 -8 25
-13 50 -24 56 -24 17 0 26 30 11 35 -6 2 -29 9 -49 15 -41 13 -46 21 -23 40 8
7 15 17 15 22 0 5 9 19 20 30 27 29 20 44 -19 40 -34 -2 -36 1 -20 47 7 18 8
35 3 39 -5 4 -51 6 -102 4z m69 -54 c-6 -29 -11 -33 -42 -36 -35 -3 -35 -3
-31 33 4 33 6 35 42 35 37 0 37 0 31 -32z"/>
<path d="M5510 4359 c0 -8 -13 -39 -30 -69 -35 -66 -36 -70 -10 -70 17 0 19
-5 14 -51 -6 -56 2 -107 15 -93 5 5 11 59 13 119 2 61 9 119 16 130 9 16 11
-6 12 -107 0 -107 2 -128 15 -128 8 0 15 5 15 11 0 16 131 4 142 -13 17 -27
24 13 27 140 l2 127 -88 1 c-48 0 -100 4 -115 8 -21 6 -28 5 -28 -5z m104 -25
c26 -10 20 -44 -8 -44 -28 0 -40 14 -32 35 6 16 16 18 40 9z m94 -21 c-2 -11
-14 -19 -31 -21 -29 -4 -30 -2 -21 22 9 23 56 21 52 -1z m-78 -59 c0 -8 -9
-14 -20 -14 -17 0 -20 -7 -20 -47 l0 -48 44 0 44 0 4 44 c3 36 0 45 -15 49
-10 2 -17 12 -15 21 2 9 7 15 11 14 4 -2 16 -3 27 -3 18 0 20 -7 20 -76 0 -65
-2 -75 -16 -70 -9 3 -40 6 -70 6 l-54 0 0 69 c0 64 2 70 23 73 28 5 37 1 37
-18z m30 -59 c0 -18 -5 -25 -20 -25 -15 0 -20 7 -20 25 0 18 5 25 20 25 15 0
20 -7 20 -25z"/>
<path d="M5831 4288 l2 -78 44 0 c37 0 44 -3 41 -17 -3 -15 -14 -18 -66 -16
-60 1 -85 -13 -42 -24 24 -6 25 -16 5 -33 -17 -14 -20 -40 -5 -40 12 0 41 55
33 64 -4 3 3 6 15 6 18 0 22 -6 22 -35 0 -26 4 -35 16 -35 13 0 15 7 11 35 -5
32 -4 35 19 35 19 0 26 -6 31 -30 3 -17 10 -33 14 -36 15 -9 21 23 9 45 -9 19
-8 21 13 21 17 0 29 -10 43 -35 10 -19 22 -35 26 -35 14 0 8 33 -9 52 -15 17
-15 18 5 18 25 0 28 12 8 29 -10 8 -16 9 -21 1 -3 -5 -26 -10 -51 -10 -37 0
-44 3 -44 20 0 17 7 20 48 20 l47 0 -1 76 -1 75 -107 2 -107 2 2 -77z m93 37
c3 -8 1 -25 -3 -37 -9 -24 -9 -24 -25 25 -3 9 -12 17 -21 17 -12 0 -14 -4 -5
-19 14 -27 13 -41 -5 -41 -10 0 -15 11 -15 35 0 33 2 35 34 35 21 0 36 -6 40
-15z m94 -17 c-2 -25 -8 -34 -25 -36 -26 -4 -30 10 -8 28 19 15 19 30 1 30 -7
0 -18 -15 -24 -32 l-10 -33 -1 38 c-1 36 0 37 35 37 34 0 35 -1 32 -32z m-98
-68 c0 -5 -16 -10 -35 -10 -19 0 -35 5 -35 10 0 6 16 10 35 10 19 0 35 -4 35
-10z m100 0 c0 -5 -16 -10 -35 -10 -19 0 -35 5 -35 10 0 6 16 10 35 10 19 0
35 -4 35 -10z"/>
<path d="M6290 4336 c0 -33 -1 -33 -40 -31 -22 2 -40 -1 -40 -6 0 -5 18 -9 40
-9 l39 0 0 -90 c-1 -83 -2 -90 -19 -85 -30 10 -34 -14 -4 -25 38 -15 48 -1 54
73 l5 62 23 -47 c28 -57 43 -70 62 -57 13 8 13 11 -3 20 -9 5 -24 24 -33 41
-16 31 -16 32 6 50 18 14 20 22 12 30 -9 9 -15 7 -26 -8 -11 -15 -17 -16 -27
-7 -22 22 -2 43 41 43 41 0 54 15 23 27 -10 4 -21 11 -24 16 -5 8 -72 36 -86
37 -2 0 -3 -15 -3 -34z m66 -7 c7 -12 -15 -31 -28 -23 -4 3 -8 12 -8 20 0 17
26 19 36 3z"/>
<path d="M6173 4352 c-42 -3 -62 -22 -23 -22 16 0 20 -7 20 -34 0 -28 -4 -35
-22 -39 l-23 -4 22 -8 c18 -6 22 -14 21 -41 -1 -23 -7 -35 -20 -40 -10 -3 -18
-12 -18 -20 0 -16 26 -19 35 -4 3 6 15 10 26 10 10 0 19 -4 19 -10 0 -16 13
-12 45 16 27 23 28 25 7 21 -13 -3 -25 1 -31 10 -6 11 -10 12 -15 4 -13 -20
-26 -11 -26 18 0 23 5 30 28 34 15 3 28 2 30 -1 1 -4 7 -14 12 -22 14 -23 25
-3 12 24 -9 20 -17 24 -46 22 -35 -3 -36 -2 -36 30 0 28 4 33 27 36 45 5 4 23
-44 20z"/>
<path d="M7076 4345 c5 -12 -3 -15 -41 -15 -28 0 -44 -4 -40 -10 3 -5 24 -10
46 -10 28 0 39 -4 39 -15 0 -9 7 -18 16 -22 27 -10 -5 -23 -58 -23 -27 0 -48
-4 -48 -10 0 -5 20 -10 45 -10 38 0 44 -3 39 -17 -4 -10 -25 -35 -48 -55 -44
-41 -30 -55 18 -17 l26 20 0 -45 c0 -25 5 -46 10 -46 6 0 10 5 10 10 0 14 114
12 128 -2 17 -17 20 -10 23 52 l3 55 -71 -3 c-75 -4 -94 5 -67 32 11 12 36 16
95 16 46 0 79 4 79 10 0 12 -4 12 -89 10 -52 -1 -63 1 -58 13 4 10 -2 17 -15
20 -28 8 -13 27 21 27 21 0 31 -6 36 -22 l8 -23 4 23 c4 19 11 22 50 22 31 0
43 4 40 13 -2 8 -19 11 -46 9 -29 -2 -41 0 -39 9 2 7 -6 15 -16 17 -14 3 -17
0 -13 -12 5 -13 -1 -16 -28 -16 -26 0 -33 3 -29 15 4 10 0 15 -15 15 -14 0
-19 -5 -15 -15z m144 -210 c0 -24 -2 -25 -65 -25 -63 0 -65 1 -65 25 0 24 2
25 65 25 63 0 65 -1 65 -25z"/>
<path d="M7357 4325 c-41 -52 -28 -63 21 -18 39 36 45 53 18 53 -6 0 -24 -16
-39 -35z"/>
<path d="M7447 4320 c-14 -36 -18 -40 -41 -34 -18 4 -26 2 -26 -6 0 -7 -11
-28 -25 -46 -29 -37 -31 -49 -10 -40 12 4 15 -6 15 -59 0 -37 4 -65 10 -65 6
0 10 33 10 79 0 61 4 83 18 98 9 10 13 13 8 6 -5 -9 -4 -13 5 -13 8 0 23 13
33 29 l20 29 13 -25 c7 -14 13 -52 13 -85 0 -53 -2 -59 -15 -48 -8 7 -15 25
-15 41 0 46 -18 43 -25 -6 -4 -25 -11 -45 -15 -45 -4 0 -12 -11 -18 -25 -7
-16 -8 -25 -2 -25 6 0 16 11 22 25 14 32 29 32 57 -1 19 -22 29 -25 73 -22 68
4 79 28 13 28 -46 0 -46 0 -43 33 3 29 6 32 41 35 24 2 37 8 34 15 -2 7 -19
11 -41 9 -34 -3 -37 -1 -31 17 4 14 2 21 -7 21 -7 0 -3 9 10 23 l23 22 19 -22
c22 -28 30 -29 30 -4 0 10 -10 25 -21 33 -18 12 -20 17 -10 35 7 14 8 24 1 28
-14 8 -30 -3 -30 -21 0 -8 -7 -26 -16 -39 l-16 -25 -18 23 c-12 15 -15 27 -9
38 8 16 3 29 -11 29 -4 0 -14 -18 -23 -40z"/>
<path d="M7840 4336 c0 -24 -3 -26 -44 -25 -32 2 -43 6 -42 18 1 11 -10 15
-41 16 -28 0 -43 -4 -43 -12 0 -8 14 -13 35 -13 19 0 35 -4 35 -8 0 -5 -16 -7
-35 -6 -19 2 -37 -2 -41 -8 -5 -8 17 -9 80 -5 77 5 87 4 82 -9 -3 -9 -6 -18
-6 -20 0 -2 -9 -4 -20 -4 -27 0 -25 -6 8 -36 l27 -24 -30 -25 c-35 -29 -57
-33 -48 -8 5 14 1 15 -27 10 -19 -4 -38 -3 -46 4 -12 9 -14 1 -14 -50 0 -34 4
-61 10 -61 6 0 10 5 10 10 0 6 9 10 19 10 11 0 23 -4 26 -10 10 -17 40 -11 79
15 20 14 43 25 51 25 8 0 22 -11 31 -25 20 -30 34 -32 34 -6 0 11 -13 28 -30
38 l-30 17 32 33 c26 27 29 35 19 46 -10 10 -14 8 -23 -8 -17 -31 -129 -136
-139 -130 -5 4 -9 17 -9 31 0 19 5 24 25 24 24 0 95 60 95 80 0 5 9 14 20 20
15 8 19 17 15 31 -5 15 -2 19 14 19 12 0 21 7 21 15 0 8 -9 15 -20 15 -14 0
-27 -14 -42 -47 -13 -27 -27 -48 -32 -48 -20 0 -16 24 8 52 14 17 22 33 18 37
-4 4 -7 15 -7 23 0 9 -6 18 -12 20 -8 3 -13 -5 -13 -21z m-110 -201 c0 -18 -5
-25 -20 -25 -15 0 -20 7 -20 25 0 18 5 25 20 25 15 0 20 -7 20 -25z"/>
<path d="M8107 4334 c-18 -25 -86 -78 -110 -87 -7 -2 -9 -7 -5 -11 3 -4 16 -3
27 4 19 10 21 8 21 -25 0 -28 4 -35 19 -35 25 0 36 16 15 24 -33 13 -1 25 61
23 52 -2 65 -5 63 -17 -2 -10 -16 -14 -50 -14 -26 1 -45 -3 -42 -7 3 -5 23 -9
45 -9 22 0 39 -5 39 -11 0 -7 -27 -10 -85 -8 l-84 4 -3 -40 c-2 -27 -7 -39
-16 -37 -8 1 -11 -2 -7 -8 8 -12 285 -14 285 -1 0 14 -26 32 -35 23 -4 -4 -5
8 -2 26 5 24 3 34 -9 39 -11 4 -14 16 -12 41 l3 36 -81 -3 c-51 -2 -84 1 -88
8 -11 17 155 14 177 -4 19 -13 47 -11 47 5 0 4 -13 13 -29 18 -17 6 -50 29
-74 51 -24 23 -46 41 -48 41 -2 0 -12 -12 -22 -26z m53 -40 c0 -9 -11 -14 -30
-14 -35 0 -36 3 -12 28 18 20 42 12 42 -14z m-70 -178 c0 -24 -23 -41 -41 -30
-5 3 -9 16 -9 30 0 19 5 24 25 24 20 0 25 -5 25 -24z m60 7 c0 -26 -16 -47
-29 -39 -12 8 -15 39 -4 49 13 13 33 7 33 -10z m68 -10 c-2 -20 -9 -28 -23
-28 -14 0 -21 8 -23 28 -3 23 0 27 23 27 23 0 26 -4 23 -27z"/>
<path d="M8789 4352 c-1 -4 0 -22 1 -40 l2 -33 -47 4 c-26 3 -51 10 -55 17
-11 18 -17 -5 -19 -81 l-2 -65 59 4 60 4 -2 -53 c-2 -75 18 -79 22 -5 l3 59
54 -6 53 -5 4 65 c2 38 -1 67 -7 69 -5 2 -23 0 -40 -5 -25 -8 -26 -9 -7 -10
19 -1 22 -6 22 -46 l0 -45 -40 0 -40 0 0 44 c0 34 4 46 18 49 15 4 15 5 -2 6
-16 1 -18 7 -13 35 4 25 1 36 -9 40 -8 3 -14 2 -15 -2z m-1 -129 l3 -43 -45 0
-46 0 0 46 0 45 43 -3 c42 -3 42 -3 45 -45z"/>
<path d="M4946 4335 c-9 -9 -16 -24 -16 -32 0 -14 2 -14 19 1 29 26 55 17 59
-20 2 -24 -7 -43 -42 -87 -26 -31 -46 -58 -46 -61 0 -11 116 -6 128 6 19 19
15 41 -5 33 -31 -13 -73 -18 -73 -8 0 5 12 20 26 34 65 59 63 141 -2 147 -19
2 -38 -3 -48 -13z"/>
<path d="M5104 4329 c-28 -31 -27 -148 0 -178 29 -32 76 -25 96 14 21 42 19
124 -3 158 -22 34 -65 36 -93 6z m70 -15 c10 -25 7 -124 -4 -145 -13 -23 -36
-25 -44 -3 -11 28 -6 140 6 152 17 17 35 15 42 -4z"/>
<path d="M8997 4211 c1 -75 3 -139 3 -143 0 -5 5 -8 10 -8 6 0 10 15 10 34 0
29 3 33 20 29 16 -4 21 1 26 26 8 38 20 40 27 5 3 -18 -2 -32 -20 -49 -17 -15
-21 -25 -13 -30 6 -4 20 1 30 10 11 10 20 12 24 6 11 -16 67 -41 96 -41 14 0
35 6 46 14 18 14 18 15 1 21 -10 5 -16 14 -13 24 3 9 6 42 8 74 2 31 6 57 10
57 5 0 8 5 8 11 0 7 -10 9 -25 6 -14 -2 -24 0 -23 4 2 5 7 8 11 7 9 -4 35 44
30 54 -2 4 -24 5 -49 1 -38 -5 -44 -4 -38 11 4 11 1 16 -10 16 -9 0 -16 -7
-16 -15 0 -17 -14 -19 -40 -5 -10 5 -40 11 -67 13 l-48 4 2 -136z m42 97 c0
-7 -4 -22 -9 -33 -7 -17 -9 -15 -9 13 -1 17 4 32 9 32 6 0 10 -6 9 -12z m61 1
c0 -6 9 -9 20 -6 23 6 25 -5 8 -33 -11 -18 -14 -18 -30 -3 -24 22 -36 8 -14
-16 14 -15 29 -18 79 -16 34 1 42 0 17 -2 l-45 -4 0 -59 c0 -33 -4 -60 -8 -60
-5 0 -7 21 -6 48 3 45 2 47 -26 50 -25 3 -54 25 -55 42 0 3 9 20 20 38 19 32
40 43 40 21z m120 -9 c0 -5 -4 -10 -10 -10 -5 0 -10 5 -10 10 0 6 5 10 10 10
6 0 10 -4 10 -10z m-30 -40 c0 -13 -11 -13 -30 0 -12 8 -11 10 8 10 12 0 22
-4 22 -10z m-141 -96 c-20 -25 -29 -15 -29 34 l0 47 20 -33 c16 -27 18 -37 9
-48z m176 36 c-3 -6 -18 -8 -32 -6 -40 8 -40 16 1 16 22 0 35 -4 31 -10z m5
-30 c0 -5 -16 -10 -36 -10 -21 0 -33 4 -29 10 3 6 19 10 36 10 16 0 29 -4 29
-10z m-17 -37 c-28 -5 -29 -12 -5 -29 16 -12 16 -13 0 -19 -28 -11 -48 2 -48
30 0 23 4 25 38 24 23 -1 28 -3 15 -6z"/>
<path d="M9357 4308 c6 -38 5 -41 -15 -36 -26 7 -28 0 -7 -16 14 -10 14 -16 0
-55 -8 -24 -15 -48 -15 -53 0 -15 21 2 31 26 6 15 8 1 6 -48 -1 -48 2 -71 10
-73 18 -6 70 33 78 58 6 19 8 19 19 3 10 -13 15 -14 20 -5 5 7 1 20 -8 30 -9
10 -16 23 -16 30 0 21 34 7 49 -21 15 -25 14 -28 -12 -52 -16 -14 -35 -26 -43
-26 -7 0 -14 -4 -14 -10 0 -16 18 -12 59 14 l39 25 23 -25 c32 -34 39 -30 39
18 0 38 -1 40 -13 23 -10 -13 -16 -15 -21 -6 -5 7 0 21 10 32 9 10 13 19 8 19
-5 0 -1 7 10 15 19 15 14 35 -10 35 -8 0 -14 4 -14 10 0 5 7 7 15 4 18 -7 20
17 4 33 -8 8 -8 13 0 17 16 10 14 26 -4 26 -7 0 -19 -8 -24 -17 -9 -16 -10
-16 -11 -2 0 9 7 22 15 29 19 16 19 30 0 30 -8 0 -17 -11 -21 -25 -3 -14 -10
-25 -15 -25 -6 0 -5 -8 1 -19 13 -26 13 -31 -4 -31 -19 0 -26 56 -9 80 13 18
12 20 -11 20 -21 0 -26 -5 -26 -24 0 -13 -7 -26 -15 -30 -18 -6 -20 5 -4 21
12 12 4 33 -12 33 -5 0 -9 -6 -9 -14 0 -7 -7 -19 -15 -26 -12 -10 -12 -15 1
-36 15 -22 15 -24 0 -30 -9 -3 -24 -3 -33 1 -16 6 -15 8 7 17 l25 9 -25 19
c-21 16 -23 22 -13 39 10 16 9 20 -3 25 -29 11 -32 6 -27 -36z m122 -97 c19
-12 -4 -24 -30 -16 -17 6 -19 9 -8 16 17 11 21 11 38 0z m71 -7 c0 -2 -9 -4
-21 -4 -11 0 -18 4 -14 10 5 8 35 3 35 -6z m-120 -57 c0 -21 -28 -67 -41 -67
-5 0 -9 30 -9 66 l0 66 25 -23 c13 -13 25 -32 25 -42z m128 21 c-6 -18 -28
-21 -28 -4 0 9 7 16 16 16 9 0 14 -5 12 -12z"/>
<path d="M9700 4309 c0 -36 -2 -41 -20 -36 -11 3 -20 2 -20 -3 0 -4 9 -10 20
-13 15 -4 20 -14 20 -36 0 -18 -5 -31 -12 -31 -22 0 -41 -17 -34 -29 5 -8 13
-8 26 -1 15 8 18 5 22 -25 5 -40 -9 -60 -29 -44 -8 7 -13 8 -13 1 0 -5 11 -17
25 -26 30 -20 33 -15 37 63 2 44 7 57 26 69 l24 16 -3 -72 c-3 -47 1 -76 9
-84 9 -9 12 -8 12 5 0 14 10 17 59 17 33 0 63 -4 66 -10 18 -29 25 0 25 99 l0
110 -37 -6 -36 -6 6 36 c3 21 1 39 -5 43 -16 10 -29 -18 -24 -48 6 -32 -7 -35
-80 -17 -45 12 -58 32 -27 43 15 6 15 8 3 16 -30 19 -40 11 -40 -31z m70 -69
c0 -11 -4 -20 -9 -20 -5 0 -16 -3 -25 -6 -11 -4 -16 0 -16 13 0 24 8 33 32 33
11 0 18 -7 18 -20z m70 -14 c0 -15 -7 -26 -19 -29 -25 -6 -31 0 -31 30 0 18 5
23 25 23 20 0 25 -5 25 -24z m68 -3 c-2 -17 -10 -29 -20 -31 -14 -3 -18 3 -18
27 0 25 4 31 21 31 16 0 20 -5 17 -27z m-70 -85 c3 -35 1 -38 -22 -38 -24 0
-26 4 -26 41 0 36 2 40 23 37 18 -2 23 -10 25 -40z m72 2 c0 -33 -3 -40 -20
-40 -17 0 -20 7 -20 40 0 33 3 40 20 40 17 0 20 -7 20 -40z"/>
<path d="M10128 4290 l4 -60 -47 0 -48 0 7 46 c4 34 3 45 -7 42 -7 -3 -13 -27
-15 -60 l-3 -55 56 5 55 4 0 -56 0 -56 -56 0 -57 0 6 40 c4 30 2 40 -9 40 -11
0 -14 -17 -14 -71 0 -44 4 -68 10 -64 6 3 10 13 10 21 0 23 210 18 227 -5 16
-23 20 -14 25 57 4 53 2 62 -11 60 -11 -2 -17 -17 -19 -45 -2 -32 -7 -41 -18
-36 -8 3 -14 -1 -14 -8 0 -10 -3 -10 -12 -1 -7 7 -20 12 -30 12 -15 0 -18 9
-18 56 l0 57 49 -5 49 -5 5 56 c3 30 4 57 2 59 -11 12 -25 -14 -25 -49 l0 -39
-41 0 -41 0 4 55 c4 49 -2 65 -26 65 -1 0 0 -27 2 -60z"/>
<path d="M8360 4330 c0 -6 32 -10 75 -10 80 0 98 -13 45 -33 -22 -8 -30 -18
-30 -35 0 -23 -2 -24 -65 -20 -47 2 -65 0 -65 -9 0 -9 20 -13 65 -13 l65 0 0
-55 c0 -54 -1 -56 -26 -53 -15 2 -29 -2 -31 -9 -5 -13 51 -28 67 -18 5 3 10
35 10 71 l0 64 71 0 c52 0 70 3 66 13 -3 8 -23 11 -70 8 -86 -4 -89 13 -9 63
23 14 42 31 42 36 0 6 -43 10 -105 10 -63 0 -105 -4 -105 -10z"/>
<path d="M10714 4301 c-4 -22 -17 -52 -30 -66 -28 -31 -31 -47 -6 -43 14 3 18
-8 23 -72 l5 -75 3 85 c2 47 3 91 2 98 -1 6 2 12 7 12 5 0 13 19 18 43 7 33
10 14 12 -95 1 -76 5 -138 8 -138 22 0 29 30 25 106 l-3 84 31 0 c36 0 44 -27
9 -32 -20 -3 -23 -10 -26 -50 l-3 -47 48 3 48 4 3 46 c2 36 0 46 -12 46 -9 0
-16 7 -16 15 0 8 9 15 20 15 11 0 20 5 20 10 0 6 -9 10 -20 10 -15 0 -20 7
-20 26 0 22 4 25 28 22 l27 -3 3 -104 c2 -74 -1 -107 -9 -112 -10 -6 -10 -11
1 -23 7 -9 15 -14 19 -11 3 3 5 53 6 110 0 57 3 107 8 111 4 4 7 17 7 28 0 20
-6 21 -87 22 -49 0 -100 4 -115 8 -26 8 -28 6 -34 -33z m126 -16 c0 -21 -5
-25 -30 -25 -25 0 -30 4 -30 25 0 21 5 25 30 25 25 0 30 -4 30 -25z m23 -114
c5 -22 0 -31 -19 -31 -14 0 -27 28 -18 41 9 16 31 10 37 -10z"/>
<path d="M11170 4310 c0 -29 -2 -30 -45 -30 -25 0 -45 -4 -45 -10 0 -5 20 -10
45 -10 l45 0 0 -45 c0 -42 -2 -46 -36 -60 -44 -18 -47 -18 -38 -3 5 8 0 9 -14
6 -23 -6 -26 1 -16 40 4 12 13 22 20 22 8 0 14 5 14 10 0 6 -8 10 -18 10 -15
0 -18 6 -14 30 3 21 10 30 23 30 19 0 26 15 12 23 -5 2 -33 1 -63 -3 -53 -6
-54 -7 -27 -18 21 -9 27 -18 27 -43 0 -26 -3 -31 -20 -26 -11 3 -23 1 -26 -4
-3 -5 6 -9 20 -9 24 0 26 -4 26 -40 0 -33 -3 -40 -19 -40 -22 0 -35 -15 -26
-29 3 -6 20 -4 42 5 33 14 37 14 45 0 8 -14 13 -13 42 9 18 14 36 25 39 25 11
0 8 -60 -3 -61 -5 -1 -14 -3 -20 -4 -5 -1 -16 -3 -22 -4 -7 -1 0 -8 16 -16 44
-23 56 -6 57 79 0 70 1 71 14 35 18 -50 60 -93 82 -84 16 6 13 11 -20 38 -43
37 -47 64 -12 77 32 12 32 30 -1 30 -14 0 -23 -4 -20 -9 3 -5 -1 -11 -9 -15
-8 -3 -15 -1 -15 3 0 5 -3 16 -6 25 -5 13 2 16 40 16 25 0 46 3 46 8 0 11 -71
65 -77 58 -3 -3 0 -13 7 -22 12 -13 11 -17 0 -24 -22 -13 -33 0 -26 31 4 22 2
29 -9 29 -10 0 -15 -10 -15 -30z"/>
<path d="M11790 4237 c0 -97 9 -134 25 -107 8 13 85 13 85 -1 0 -6 -9 -8 -21
-4 -19 6 -18 4 7 -34 18 -28 31 -38 37 -32 7 7 5 18 -6 34 -9 14 -13 28 -9 31
3 4 7 41 8 84 1 42 4 86 6 97 3 18 -2 20 -50 17 -32 -3 -59 1 -67 8 -13 11
-15 -1 -15 -93z m99 60 c15 -19 4 -27 -36 -27 -26 0 -33 4 -33 20 0 15 7 20
29 20 16 0 34 -6 40 -13z m11 -62 c0 -11 -11 -15 -40 -15 -29 0 -40 4 -40 15
0 11 11 15 40 15 29 0 40 -4 40 -15z m-5 -55 c0 -10 -12 -16 -37 -18 -33 -3
-38 0 -38 18 0 18 5 21 38 18 25 -2 37 -8 37 -18z"/>
<path d="M12020 4210 c0 -119 -2 -131 -17 -129 -38 3 -46 0 -34 -15 6 -8 21
-16 32 -19 36 -10 47 27 50 163 2 110 0 125 -14 128 -15 3 -17 -10 -17 -128z"/>
<path d="M12150 4305 c0 -31 -3 -35 -26 -35 -14 0 -23 -4 -19 -10 3 -5 15 -10
26 -10 15 0 19 -7 19 -35 0 -31 -3 -35 -25 -35 -16 0 -25 -6 -25 -16 0 -12 6
-15 25 -10 23 6 25 4 25 -29 0 -32 -8 -40 -33 -36 -15 3 -3 -31 15 -43 30 -18
38 5 39 105 1 86 2 95 20 96 13 1 19 -5 19 -18 0 -10 -7 -19 -15 -19 -8 0 -15
-5 -15 -11 0 -6 7 -9 15 -5 17 6 18 -1 16 -86 -2 -54 11 -84 23 -53 3 10 19
15 47 15 35 0 40 2 30 14 -7 8 -11 27 -9 43 2 22 9 29 31 31 25 3 27 1 27 -33
0 -22 -6 -38 -14 -41 -12 -4 -11 -9 6 -26 11 -11 21 -18 23 -16 1 2 5 54 7
115 l6 113 -40 -6 -40 -7 4 39 c2 29 -1 39 -12 39 -10 0 -16 -12 -18 -38 l-3
-39 -42 8 c-23 4 -48 7 -54 7 -15 0 -17 33 -3 42 13 8 3 25 -16 25 -9 0 -14
-11 -14 -35z m130 -96 c0 -26 -3 -30 -22 -27 -17 2 -24 11 -26 31 -3 23 0 27
22 27 22 0 26 -4 26 -31z m78 4 c-2 -20 -9 -28 -23 -28 -14 0 -21 8 -23 28 -3
23 0 27 23 27 23 0 26 -4 23 -27z m-80 -90 c-2 -30 -7 -38 -23 -38 -16 0 -21
8 -23 38 -3 34 -1 37 23 37 24 0 26 -3 23 -37z"/>
<path d="M12576 4333 c-3 -4 -6 -30 -6 -60 l0 -53 -41 0 -42 0 5 44 c4 36 3
43 -11 41 -12 -1 -16 -14 -16 -56 l0 -54 50 0 50 0 0 -63 c0 -52 3 -62 18 -62
14 0 17 10 17 66 l0 67 50 -5 50 -5 0 53 c0 29 -4 56 -10 59 -6 4 -10 -6 -10
-24 0 -49 -9 -61 -47 -61 l-35 0 4 55 c3 37 1 56 -8 59 -7 2 -15 2 -18 -1z"/>
<path d="M12848 4318 c-3 -7 -18 -11 -36 -10 -18 1 -32 -2 -32 -8 0 -5 15 -10
34 -10 28 0 34 -4 38 -25 5 -24 3 -25 -38 -25 -72 0 -50 -20 24 -22 56 -1 59
-2 20 -5 l-48 -4 0 -53 c0 -58 6 -71 27 -54 7 6 16 8 20 5 9 -9 -39 -46 -59
-47 -10 0 -18 -4 -18 -10 0 -16 46 -12 60 5 7 8 19 15 27 15 10 0 14 7 10 20
-4 17 0 20 29 20 24 0 34 -5 34 -15 0 -8 5 -15 11 -15 6 0 22 -9 36 -20 14
-11 32 -20 40 -20 26 0 8 24 -38 48 -41 23 -42 24 -12 19 31 -6 32 -6 29 28
-2 20 0 38 5 41 6 3 7 14 4 25 -5 15 -1 19 20 19 17 0 25 5 22 13 -3 8 -20 11
-51 9 -45 -4 -47 -3 -44 20 2 19 10 24 41 26 25 2 37 8 37 18 0 12 -8 13 -35
8 -23 -4 -35 -2 -35 5 0 6 -7 11 -15 11 -8 0 -15 -4 -15 -10 0 -5 -13 -10 -30
-10 -16 0 -30 5 -30 10 0 14 -28 12 -32 -2z m92 -38 c0 -5 -11 -10 -25 -10
-14 0 -25 5 -25 10 0 6 11 10 25 10 14 0 25 -4 25 -10z m-12 -37 c-10 -2 -28
-2 -40 0 -13 2 -5 4 17 4 22 1 32 -1 23 -4z m60 -30 c-10 -2 -28 -2 -40 0 -13
2 -5 4 17 4 22 1 32 -1 23 -4z m-90 -40 c2 -9 -7 -13 -27 -13 -21 0 -31 5 -31
16 0 19 51 16 58 -3z m87 2 c0 -5 -12 -11 -27 -13 -21 -2 -28 1 -28 13 0 12 7
15 28 13 15 -2 27 -7 27 -13z m-85 -45 c0 -5 -13 -10 -30 -10 -16 0 -30 5 -30
10 0 6 14 10 30 10 17 0 30 -4 30 -10z m90 0 c0 -5 -13 -10 -30 -10 -16 0 -30
5 -30 10 0 6 14 10 30 10 17 0 30 -4 30 -10z"/>
<path d="M13270 4300 c0 -29 -2 -30 -46 -30 -27 0 -43 -4 -39 -10 3 -5 24 -10
46 -10 l39 0 0 -45 c0 -39 -4 -46 -30 -60 -35 -18 -54 -19 -44 -3 5 7 1 9 -13
6 -17 -4 -20 0 -21 24 -1 22 5 31 25 39 29 11 43 0 43 -35 0 -14 3 -17 11 -9
5 5 7 22 3 37 -5 22 -12 26 -40 26 -30 0 -34 3 -34 26 0 18 6 28 20 31 28 8
19 29 -11 25 -13 -2 -36 -3 -51 -4 -32 0 -39 -18 -8 -18 16 0 20 -7 20 -35 0
-26 -3 -33 -15 -29 -8 4 -15 1 -15 -5 0 -6 7 -11 15 -11 11 0 15 -11 15 -40 0
-28 -4 -40 -14 -40 -20 0 -31 -19 -18 -32 7 -7 19 -4 36 7 25 17 28 17 39 1
11 -15 15 -14 50 9 l37 26 0 -36 c0 -31 -3 -35 -25 -35 -32 0 -32 -12 -1 -26
37 -17 46 0 46 86 l0 75 32 -62 c21 -43 38 -63 50 -63 21 0 24 25 4 33 -14 6
-51 66 -44 71 2 2 14 10 27 19 21 14 22 17 8 23 -10 3 -24 1 -32 -6 -16 -14
-35 -5 -35 16 0 10 12 14 45 14 25 0 45 4 45 9 0 11 -92 71 -108 71 -7 0 -12
-13 -12 -30z m49 -3 c12 -15 5 -27 -16 -27 -7 0 -13 9 -13 20 0 23 13 26 29 7z"/>
<path d="M13485 4300 c-5 -25 -11 -30 -26 -25 -18 6 -19 0 -19 -99 0 -96 7
-125 25 -96 9 14 48 13 63 -2 9 -9 12 2 12 50 0 50 3 63 19 72 16 8 24 4 50
-28 26 -31 30 -34 31 -16 0 22 -28 54 -48 54 -7 0 -12 4 -12 9 0 19 30 32 67
29 45 -4 49 -18 30 -113 -12 -60 -12 -60 -49 -63 -49 -4 -49 -18 -1 -25 53 -9
63 6 74 104 5 46 12 92 15 102 5 15 -2 17 -50 17 -42 0 -56 4 -56 14 0 8 5 18
10 21 13 8 3 25 -16 25 -8 0 -14 -9 -14 -20 0 -24 -31 -90 -42 -90 -12 0 -10
28 2 35 19 12 -2 27 -27 20 -20 -5 -24 -3 -19 9 3 9 9 23 12 31 4 9 0 15 -9
15 -9 0 -18 -13 -22 -30z m40 -70 c-6 -32 -14 -39 -35 -33 -13 3 -20 14 -20
29 0 20 5 24 29 24 24 0 29 -4 26 -20z m0 -85 c0 -25 -4 -30 -27 -33 -26 -3
-28 -1 -28 33 0 34 2 36 27 33 24 -3 28 -8 28 -33z"/>
<path d="M13800 4295 c0 -24 -5 -35 -15 -35 -18 0 -20 -17 -3 -22 9 -3 9 -18
-4 -61 -15 -56 -10 -74 12 -39 8 13 10 6 9 -33 -1 -69 0 -75 11 -75 6 0 10 31
10 74 0 69 1 74 20 69 15 -4 20 -14 20 -42 0 -20 -5 -42 -11 -48 -6 -6 -8 -16
-4 -23 5 -7 17 -3 40 14 28 22 34 23 39 9 4 -8 1 -22 -5 -29 -9 -11 -8 -14 5
-14 11 0 25 18 38 50 11 28 24 50 29 50 4 0 7 -18 7 -41 0 -22 4 -45 10 -51
11 -11 47 -7 44 5 -1 4 -2 23 -2 42 0 44 -20 47 -21 3 0 -28 -2 -30 -9 -12
-12 31 0 114 17 114 8 0 13 6 10 13 -2 6 -12 11 -21 11 -12 -1 -16 7 -16 37 0
33 3 39 21 39 11 0 19 5 17 11 -2 6 -29 11 -63 11 -126 0 -123 0 -127 -29 -4
-31 -38 -43 -38 -13 0 10 5 22 10 25 13 8 3 25 -16 25 -9 0 -14 -11 -14 -35z
m120 -15 c0 -13 -7 -20 -19 -20 -22 0 -35 15 -26 30 12 19 45 11 45 -10z m27
-42 c-2 -13 -4 -3 -4 22 0 25 2 35 4 23 2 -13 2 -33 0 -45z m43 17 c0 -19 -4
-35 -10 -35 -5 0 -10 16 -10 35 0 19 5 35 10 35 6 0 10 -16 10 -35z m-130 -35
c0 -11 -4 -20 -10 -20 -5 0 -14 9 -20 20 -9 17 -8 20 10 20 13 0 20 -7 20 -20z
m60 5 c0 -9 -9 -15 -25 -15 -16 0 -25 6 -25 15 0 9 9 15 25 15 16 0 25 -6 25
-15z m0 -37 c0 -9 3 -9 12 0 7 7 22 12 34 12 20 0 21 -3 14 -35 -4 -20 -14
-43 -21 -51 -11 -14 -15 -11 -31 21 -10 19 -23 33 -28 30 -7 -4 -6 -13 0 -25
7 -13 7 -21 0 -25 -23 -14 -31 15 -21 78 2 12 41 8 41 -5z"/>
<path d="M14230 4310 c0 -18 -7 -20 -60 -20 -33 0 -60 -4 -60 -10 0 -5 26 -10
58 -10 49 -1 55 -2 40 -14 -16 -12 -16 -14 0 -29 12 -13 13 -20 5 -28 -16 -16
-39 -5 -55 27 -7 15 -19 29 -25 32 -20 6 -15 -12 9 -38 21 -22 21 -23 3 -36
-10 -8 -22 -14 -27 -14 -4 0 -8 -7 -8 -15 0 -22 16 -18 35 8 15 20 17 21 26 5
5 -10 21 -18 34 -18 16 0 25 -6 25 -16 0 -14 -10 -16 -65 -12 -43 3 -64 0 -62
-7 2 -5 31 -11 65 -13 l62 -3 0 -34 c0 -19 5 -35 10 -35 6 0 10 17 10 39 l0
39 65 -6 c55 -4 65 -2 65 11 0 14 -10 15 -64 10 -63 -6 -65 -5 -63 16 1 18 6
22 24 18 26 -5 32 20 11 41 -16 16 -28 15 -28 -3 0 -8 -4 -15 -10 -15 -17 0
-11 15 15 40 14 13 25 27 25 32 0 15 -38 8 -44 -8 -4 -9 -9 -14 -13 -11 -3 4
0 13 7 22 8 10 30 15 66 15 53 0 79 15 53 31 -8 5 -15 4 -17 -1 -2 -6 -24 -10
-49 -10 -40 0 -44 2 -38 20 5 14 2 20 -9 20 -9 0 -16 -9 -16 -20z"/>
<path d="M11950 4215 c0 -57 4 -95 10 -95 6 0 10 28 10 64 0 35 3 78 6 95 5
24 3 31 -10 31 -14 0 -16 -14 -16 -95z"/>
<path d="M1313 4279 c-7 -7 -49 -10 -121 -7 -61 1 -107 -1 -103 -5 5 -5 68
-11 141 -14 126 -6 132 -5 128 13 -4 22 -29 29 -45 13z"/>
<path d="M2958 4267 c7 -9 5 -24 -8 -52 -23 -49 -25 -75 -5 -75 8 0 15 6 15
13 0 17 60 110 67 103 3 -3 -2 -28 -11 -55 -20 -61 -20 -61 -1 -61 8 0 19 16
25 38 9 36 26 58 57 76 9 5 8 -5 -2 -35 -19 -53 -19 -79 -1 -79 20 0 30 18 33
60 1 19 4 44 5 55 4 25 -39 35 -48 11 -8 -20 -24 -21 -24 -1 0 20 -29 19 -53
-2 -19 -17 -20 -17 -14 0 5 13 1 17 -20 17 -19 0 -23 -3 -15 -13z"/>
<path d="M4163 4260 c4 -14 7 -28 7 -32 0 -5 5 -8 10 -8 16 0 11 36 -7 51 -15
13 -16 11 -10 -11z"/>
<path d="M7670 4260 c0 -5 20 -10 45 -10 25 0 45 5 45 10 0 6 -20 10 -45 10
-25 0 -45 -4 -45 -10z"/>
<path d="M6581 4251 c-23 -15 -5 -61 23 -61 26 0 40 23 31 51 -7 20 -31 24
-54 10z m37 -23 c-6 -18 -28 -21 -28 -4 0 9 7 16 16 16 9 0 14 -5 12 -12z"/>
<path d="M14317 4240 c-19 -23 -12 -54 21 -83 15 -14 22 -15 28 -6 4 8 -3 21
-21 36 -15 13 -26 25 -24 27 2 2 14 9 27 15 12 6 22 16 22 21 0 17 -35 11 -53
-10z"/>
<path d="M11110 4227 c0 -22 26 -51 38 -43 9 5 7 14 -5 31 -20 27 -33 32 -33
12z"/>
<path d="M7670 4218 c0 -5 10 -8 23 -8 12 0 32 -3 45 -6 16 -5 22 -2 22 9 0
13 -10 16 -45 14 -25 -1 -45 -5 -45 -9z"/>
<path d="M10447 4223 c-179 -5 -155 -23 30 -23 128 0 144 2 133 15 -7 8 -18
14 -24 13 -6 -1 -69 -4 -139 -5z"/>
<path d="M11470 4195 c0 -14 5 -25 10 -25 6 0 10 11 10 25 0 14 -4 25 -10 25
-5 0 -10 -11 -10 -25z"/>
<path d="M530 4194 c-9 -10 -10 -18 -2 -26 12 -12 32 -2 32 17 0 21 -16 26
-30 9z"/>
<path d="M12443 4127 c-2 -23 -4 -51 -5 -62 -2 -12 3 -20 12 -20 11 0 15 13
17 48 1 27 4 55 7 63 3 9 -1 14 -12 14 -13 0 -18 -10 -19 -43z"/>
<path d="M12690 4124 c0 -46 -1 -46 -28 -41 -15 3 -34 2 -42 -4 -11 -6 -4 -9
23 -9 24 0 40 -5 43 -15 11 -28 20 -15 30 45 8 48 7 60 -4 65 -22 8 -22 7 -22
-41z"/>
<path d="M11792 4090 c-19 -24 -28 -40 -20 -40 17 0 78 55 78 69 0 23 -26 9
-58 -29z"/>
<path d="M10816 4078 c3 -4 21 -8 41 -8 20 0 34 2 31 5 -9 9 -77 12 -72 3z"/>
<path d="M1714 3944 c-13 -11 -15 -17 -6 -20 15 -7 17 -154 2 -154 -5 0 -10
-4 -10 -10 0 -5 17 -10 37 -10 29 0 34 3 25 12 -8 8 -12 46 -12 105 0 51 -4
93 -8 93 -5 0 -17 -7 -28 -16z"/>
<path d="M1250 3790 c-14 -4 -49 -8 -77 -9 -37 -1 -53 -5 -53 -14 0 -8 -9 -22
-20 -32 -11 -10 -20 -25 -20 -34 0 -12 3 -12 12 -3 22 22 28 12 28 -47 0 -50
-4 -63 -25 -82 -33 -32 -31 -37 11 -37 28 0 38 5 46 24 14 31 2 43 -17 18 -14
-18 -14 -17 -4 9 12 27 13 27 108 27 74 0 92 -3 83 -12 -7 -7 -12 -20 -12 -30
0 -13 -8 -18 -25 -18 -15 0 -25 6 -25 14 0 7 -7 19 -15 26 -12 10 -15 10 -15
-2 0 -22 51 -78 70 -78 18 0 42 41 54 93 6 24 4 27 -19 27 -21 0 -25 5 -25 31
0 23 -4 30 -15 25 -10 -4 -14 1 -12 17 2 18 -2 22 -25 19 -22 -2 -28 1 -28 18
0 11 4 20 9 20 5 0 16 2 24 6 9 3 20 -7 31 -30 9 -20 21 -36 26 -36 19 0 21
22 4 42 -10 11 -19 27 -19 36 0 19 -20 24 -55 12z m-52 -53 c3 -15 -2 -18 -25
-15 -17 2 -29 10 -31 21 -3 15 2 18 25 15 17 -2 29 -10 31 -21z m56 -48 c-7
-12 -101 -12 -109 0 -7 12 18 17 72 12 23 -1 40 -7 37 -12z m26 -39 c0 -18 -7
-20 -71 -20 -92 0 -91 22 2 31 35 3 65 6 67 7 1 1 2 -7 2 -18z"/>
<path d="M2606 3783 c-3 -3 -6 -19 -6 -35 l0 -30 -65 7 c-45 5 -65 4 -65 -4 0
-10 62 -17 113 -13 13 1 17 -6 17 -36 0 -31 -6 -43 -30 -60 -16 -12 -35 -22
-43 -22 -7 0 -22 -6 -33 -14 -14 -11 -16 -18 -8 -26 13 -13 46 3 92 44 l22 19
0 -36 c0 -31 -3 -36 -27 -39 -35 -4 -39 -20 -7 -35 44 -21 54 -8 54 68 0 38 3
69 8 69 4 0 18 -19 32 -41 31 -51 63 -74 85 -62 12 7 6 15 -31 42 l-47 33 33
30 c26 23 30 32 19 38 -9 6 -20 2 -32 -11 -18 -19 -37 -25 -37 -11 0 4 -3 16
-6 28 -5 18 -1 20 28 17 41 -3 88 6 88 17 0 14 -32 21 -46 9 -11 -9 -14 -7
-14 9 0 12 -8 25 -17 30 -28 14 -69 22 -77 15z m59 -43 c14 -15 15 -20 4 -20
-22 0 -42 17 -35 29 9 14 10 14 31 -9z"/>
<path d="M3389 3775 c-11 -43 -21 -56 -40 -50 -18 6 -19 0 -19 -92 0 -99 12
-147 26 -109 6 15 14 17 50 11 l44 -6 0 60 c0 34 4 61 8 61 5 0 15 11 22 25
11 21 21 25 57 25 l43 0 0 -46 c0 -25 -5 -66 -11 -91 -12 -45 -12 -45 -48 -39
l-36 5 34 -21 c59 -38 77 -8 83 135 l3 82 -37 -3 c-46 -4 -63 4 -48 23 7 8 9
19 5 25 -8 12 -30 8 -31 -6 0 -5 -9 -29 -19 -54 l-20 -45 -5 30 c-3 17 -12 30
-20 31 -30 2 -32 4 -20 19 6 8 9 19 5 25 -6 10 -24 14 -26 5z m29 -102 c-2
-22 -8 -28 -28 -28 -20 0 -26 6 -28 28 -3 24 0 27 28 27 28 0 31 -3 28 -27z
m0 -80 c3 -31 1 -33 -27 -33 -27 0 -31 3 -31 28 0 35 8 44 35 40 15 -2 21 -12
23 -35z"/>
<path d="M3697 3705 c-20 -41 -33 -75 -27 -75 5 0 14 8 19 18 8 12 10 -8 11
-75 0 -55 4 -93 10 -93 6 0 10 36 10 89 0 49 3 103 6 120 6 30 7 31 65 31 37
0 59 -4 59 -11 0 -7 -10 -9 -25 -5 l-25 6 0 -95 c0 -61 -4 -95 -11 -95 -7 0
-9 29 -7 85 3 80 -1 95 -27 95 -2 0 -4 -46 -3 -103 l0 -103 91 4 c101 4 117 7
117 21 0 6 -31 7 -76 4 -63 -5 -76 -4 -72 8 3 9 21 14 54 14 27 0 52 4 56 10
4 5 8 43 8 82 l0 73 -30 -6 c-19 -4 -30 -2 -30 5 0 6 17 11 40 11 29 0 40 4
40 15 0 13 -7 15 -36 9 -31 -6 -35 -4 -32 12 4 25 -28 31 -34 6 -4 -15 -16
-21 -51 -23 -40 -4 -46 -2 -44 15 5 44 -21 21 -56 -49z m203 -35 c0 -5 -18
-10 -40 -10 -22 0 -40 5 -40 10 0 6 18 10 40 10 22 0 40 -4 40 -10z m0 -45 c0
-11 -11 -15 -40 -15 -38 0 -49 8 -33 23 3 4 21 7 40 7 23 0 33 -5 33 -15z m0
-40 c0 -11 -11 -15 -40 -15 -51 0 -53 17 -2 23 20 2 38 4 40 5 1 1 2 -5 2 -13z"/>
<path d="M2135 3677 c-10 -8 -16 -23 -13 -38 2 -19 9 -24 33 -24 25 0 31 4 33
27 4 34 -26 54 -53 35z m35 -33 c0 -8 -7 -14 -15 -14 -15 0 -21 21 -9 33 10 9
24 -2 24 -19z"/>
<path d="M2500 3680 c0 -5 4 -10 10 -10 5 0 15 -12 23 -26 11 -22 15 -23 26
-11 10 12 7 19 -15 36 -29 23 -44 27 -44 11z"/>
<path d="M2985 3682 c-5 -4 -10 -23 -11 -42 -1 -19 -5 -50 -9 -69 -12 -50 16
-36 35 17 16 42 50 87 50 65 0 -6 -7 -30 -15 -53 -19 -53 -19 -60 -1 -60 8 0
19 15 26 34 6 18 22 44 37 57 l26 24 -8 -35 c-4 -19 -9 -45 -12 -57 -6 -25 14
-32 35 -11 14 14 16 32 3 24 -5 -3 -3 15 5 41 10 35 11 49 3 60 -10 11 -16 11
-36 -3 -23 -14 -26 -14 -37 1 -10 14 -16 15 -34 6 -14 -8 -22 -8 -22 -1 0 12
-20 13 -35 2z"/>
<path d="M1590 3645 c0 -13 22 -15 140 -15 113 0 140 3 140 14 0 9 -10 13 -25
12 -14 0 -25 -5 -25 -11 0 -5 -4 -4 -9 4 -8 12 -12 12 -24 2 -10 -8 -17 -9
-22 -1 -3 5 -42 10 -91 10 -68 0 -84 -3 -84 -15z"/>
<path d="M3502 3625 c24 -36 33 -42 42 -26 8 12 -32 61 -50 61 -11 0 -9 -8 8
-35z"/>
<path d="M4140 3650 c0 -5 5 -10 10 -10 6 0 10 5 10 10 0 6 -4 10 -10 10 -5 0
-10 -4 -10 -10z"/>
<path d="M1272 3581 c16 -25 31 -27 26 -4 -2 10 -11 19 -21 21 -16 3 -17 1 -5
-17z"/>
<path d="M1180 3578 c0 -19 18 -43 25 -36 9 9 -4 48 -16 48 -5 0 -9 -6 -9 -12z"/>
<path d="M1653 3413 c0 -27 -5 -49 -11 -51 -16 -5 -15 -42 1 -42 12 0 67 82
67 100 0 6 5 10 10 10 11 0 4 -42 -11 -72 -13 -24 -11 -38 5 -38 8 0 19 15 26
34 11 34 60 89 60 68 0 -6 -5 -32 -12 -57 -14 -50 -6 -66 20 -42 13 12 18 33
20 77 3 62 -3 69 -38 50 -14 -7 -25 -7 -39 2 -15 9 -23 9 -35 -1 -11 -9 -16
-10 -16 -2 0 6 -10 11 -23 11 -21 0 -24 -4 -24 -47z"/>
<path d="M2014 2793 c-3 -10 -15 -38 -26 -63 -11 -25 -20 -47 -21 -50 0 -3
-11 -22 -23 -42 -30 -47 -30 -50 4 -46 23 2 27 7 24 29 -4 32 14 48 51 46 28
-2 42 -25 35 -57 -3 -16 34 -25 59 -16 14 6 13 9 -5 29 -11 12 -33 59 -48 105
-27 81 -40 98 -50 65z m20 -79 c10 -27 7 -34 -19 -34 -25 0 -29 13 -10 37 14
17 22 16 29 -3z"/>
<path d="M2872 2788 c-5 -7 -13 -23 -16 -35 -4 -13 -13 -23 -20 -23 -7 0 -20
-16 -29 -36 -22 -45 -9 -66 37 -62 26 2 32 -1 34 -19 4 -30 32 -30 32 0 0 13
5 28 12 35 9 9 9 12 0 12 -8 0 -12 22 -12 70 0 53 -3 70 -14 70 -7 0 -18 -6
-24 -12z m8 -88 c0 -36 -3 -40 -24 -40 -35 0 -38 11 -14 48 27 43 38 40 38 -8z"/>
<path d="M2150 2610 c0 -11 7 -20 15 -20 8 0 15 9 15 20 0 11 -7 20 -15 20 -8
0 -15 -9 -15 -20z"/>
<path d="M1923 2062 c23 -25 24 -154 2 -176 -8 -8 -15 -17 -15 -20 0 -11 125
-5 150 7 31 16 41 74 15 93 -10 8 -12 14 -6 19 6 3 11 22 11 40 0 45 -20 55
-106 55 -64 0 -66 -1 -51 -18z m115 -40 c3 -32 2 -33 -30 -30 -22 2 -34 9 -36
21 -6 33 6 49 35 45 24 -2 29 -8 31 -36z m-4 -65 c11 -8 17 -23 14 -38 -2 -20
-8 -24 -38 -24 -29 0 -36 4 -38 23 -7 49 23 68 62 39z"/>
<path d="M2816 2030 c-20 -49 -20 -50 -1 -50 27 0 63 -23 69 -43 8 -33 -19
-56 -60 -50 -27 4 -34 2 -34 -10 0 -19 33 -31 62 -21 59 18 77 97 32 139 -15
14 -31 25 -35 25 -5 0 -9 4 -9 9 0 6 17 11 37 13 55 5 55 28 0 28 -43 0 -45
-2 -61 -40z"/>
<path d="M2134 1895 c-3 -8 -3 -19 1 -25 11 -17 35 -11 35 9 0 23 -29 36 -36
16z"/>
<path d="M2005 1360 c-3 -5 -15 -10 -25 -10 -10 0 -30 -14 -45 -32 -23 -28
-27 -39 -22 -81 5 -59 30 -87 84 -94 32 -4 45 -1 69 20 16 14 26 29 22 33 -5
4 -17 -1 -28 -11 -24 -22 -85 -13 -100 15 -29 54 2 130 54 130 26 0 56 -23 56
-43 0 -8 3 -8 11 0 5 5 7 22 3 37 -4 19 -13 26 -30 26 -13 0 -24 5 -24 10 0 6
-4 10 -9 10 -6 0 -13 -4 -16 -10z"/>
<path d="M2833 1340 c-26 -11 -31 -30 -8 -30 17 0 17 -2 15 -85 -1 -33 -6 -66
-12 -72 -8 -10 -2 -13 26 -13 32 0 36 2 28 18 -5 9 -7 56 -5 105 4 92 2 95
-44 77z"/>
<path d="M2976 1315 c-23 -35 -20 -49 14 -62 58 -22 48 -101 -12 -89 -32 6
-44 -6 -23 -24 19 -16 59 -6 86 23 15 17 19 30 15 56 -6 36 -31 71 -53 71 -27
0 -12 19 19 22 45 4 49 28 5 28 -26 0 -39 -6 -51 -25z"/>
<path d="M2122 1163 c2 -10 10 -18 18 -18 8 0 16 8 18 18 2 12 -3 17 -18 17
-15 0 -20 -5 -18 -17z"/>
<path d="M1909 621 c11 -7 14 -30 12 -98 -1 -48 -6 -90 -12 -91 -24 -9 7 -22
50 -22 99 0 141 36 141 120 0 33 -6 48 -29 71 -27 27 -35 29 -103 29 -48 0
-68 -3 -59 -9z m128 -33 c17 -16 23 -33 23 -63 0 -56 -22 -85 -66 -85 l-34 0
0 85 0 85 27 0 c15 0 37 -10 50 -22z"/>
<path d="M2802 614 c-14 -9 -22 -25 -21 -42 0 -26 1 -26 9 -4 11 26 51 30 70
7 19 -23 5 -56 -45 -108 -25 -26 -45 -50 -45 -53 0 -3 30 -4 67 -2 53 2 68 7
71 19 3 14 -5 16 -45 12 -27 -3 -43 -1 -36 4 6 4 25 26 42 47 39 49 40 87 5
115 -32 25 -43 26 -72 5z"/>
<path d="M2963 584 c-28 -43 -29 -54 -5 -54 35 0 63 -30 60 -63 -3 -31 -4 -32
-45 -29 -44 2 -52 -5 -31 -26 34 -34 108 8 108 63 0 47 -9 65 -36 76 -35 13
-31 39 6 39 20 0 30 5 30 15 0 10 -10 15 -32 15 -27 -1 -37 -8 -55 -36z"/>
<path d="M2132 433 c4 -21 33 -25 33 -3 0 8 -8 16 -18 18 -14 3 -18 -1 -15
-15z"/>
</g>
</svg>
