<?xml version="1.0" standalone="no"?>
<!DOCTYPE svg PUBLIC "-//W3C//DTD SVG 20010904//EN"
 "http://www.w3.org/TR/2001/REC-SVG-20010904/DTD/svg10.dtd">
<svg version="1.0" xmlns="http://www.w3.org/2000/svg"
 width="976.000000pt" height="879.000000pt" viewBox="0 0 976.000000 879.000000"
 preserveAspectRatio="xMidYMid meet">
<metadata>
Created by potrace 1.16, written by Peter Selinger 2001-2019
</metadata>
<g transform="translate(0.000000,879.000000) scale(0.100000,-0.100000)"
fill="#000000" stroke="none">
<path d="M1280 8457 c0 -89 -2 -96 -20 -99 -21 -3 -21 -3 -1 -15 17 -11 22
-10 30 5 14 27 17 195 2 200 -8 3 -11 -24 -11 -91z"/>
<path d="M1380 8537 c0 -7 -9 -29 -20 -50 -24 -44 -25 -54 -6 -38 12 10 14 3
15 -50 0 -34 2 -64 5 -67 4 -3 6 35 6 84 0 49 5 96 10 104 6 10 10 11 10 3 0
-9 19 -13 61 -13 l62 0 -7 -37 c-3 -21 -6 -55 -6 -75 0 -33 -3 -38 -22 -39
l-23 0 23 -10 c13 -5 28 -7 33 -3 5 3 9 39 9 81 0 60 4 78 18 89 15 11 6 13
-60 14 -42 0 -80 5 -83 10 -9 14 -25 12 -25 -3z"/>
<path d="M1670 8535 c0 -9 -9 -15 -25 -15 -14 0 -25 -4 -25 -10 0 -5 11 -10
25 -10 14 0 25 -4 25 -10 0 -5 -19 -10 -42 -10 -56 0 -44 -9 15 -11 55 -3 50
-18 -13 -39 -23 -7 -43 -17 -46 -22 -7 -11 24 -10 47 2 17 10 19 7 19 -36 0
-40 2 -45 15 -34 10 8 32 11 60 8 l45 -6 0 47 c0 40 -4 49 -27 64 l-28 18 41
-6 c26 -4 45 -2 49 4 7 12 -5 14 -45 11 l-25 -2 27 25 c21 19 24 27 13 31 -8
3 -23 -7 -35 -24 -21 -29 -50 -41 -50 -20 0 6 9 10 20 10 11 0 20 7 20 16 0
11 -6 14 -20 9 -15 -5 -18 -3 -14 9 4 11 1 16 -10 16 -9 0 -16 -7 -16 -15z
m53 -92 c-7 -2 -19 -2 -25 0 -7 3 -2 5 12 5 14 0 19 -2 13 -5z m27 -33 c0 -5
-20 -10 -45 -10 -25 0 -45 5 -45 10 0 6 20 10 45 10 25 0 45 -4 45 -10z m0
-35 c0 -11 -12 -15 -45 -15 -33 0 -45 4 -45 15 0 11 12 15 45 15 33 0 45 -4
45 -15z"/>
<path d="M950 8530 c-55 -4 -74 -7 -47 -8 l49 -2 -4 -90 c-1 -50 0 -90 5 -90
4 0 7 29 7 65 0 69 6 77 35 45 10 -11 25 -20 33 -20 12 0 10 6 -8 25 -13 14
-32 25 -42 25 -11 0 -18 7 -18 20 0 17 7 20 50 20 28 0 50 5 50 10 0 6 -3 9
-7 8 -5 -1 -51 -5 -103 -8z"/>
<path d="M1145 8530 c-27 -4 -40 -8 -27 -8 25 -2 27 -10 9 -37 -8 -11 -17 -29
-21 -39 -5 -15 -4 -17 7 -8 10 9 17 8 25 0 18 -18 15 -39 -10 -65 -12 -13 -19
-26 -16 -29 11 -11 73 68 84 107 15 49 0 52 -16 3 -12 -34 -13 -35 -26 -16 -9
13 -12 32 -8 51 6 29 10 31 48 31 30 0 37 3 26 10 -8 5 -17 9 -20 8 -3 -1 -27
-4 -55 -8z"/>
<path d="M1932 8532 c-122 -3 -131 -22 -11 -22 l80 0 -3 -77 c-3 -75 -4 -78
-27 -77 -23 1 -23 0 -5 -13 32 -23 39 -9 42 80 3 79 5 87 22 87 19 0 28 16 13
22 -5 2 -54 2 -111 0z"/>
<path d="M2180 8525 c0 -11 -11 -15 -40 -15 -54 0 -51 -20 3 -22 l42 -1 -45
-7 -45 -7 43 -1 c58 -3 53 -22 -5 -24 -38 -1 -41 -2 -15 -5 40 -5 38 -22 -6
-43 -17 -8 -32 -18 -32 -23 0 -4 14 -1 30 8 30 15 30 15 30 -10 0 -18 -5 -25
-20 -25 -11 0 -20 -4 -20 -10 0 -13 3 -13 61 6 27 9 49 20 49 25 0 12 -11 11
-30 -1 -19 -12 -32 17 -18 43 11 21 28 23 28 3 0 -19 80 -87 93 -79 6 3 -2 15
-16 25 -32 24 -34 38 -6 38 16 0 20 5 16 20 -3 11 -1 20 4 20 5 0 9 4 9 9 0 4
-22 6 -50 3 -33 -3 -50 -1 -50 7 0 6 17 11 41 11 24 0 38 4 34 10 -3 6 -1 10
4 10 6 0 11 7 11 15 0 12 -9 13 -45 8 -39 -5 -45 -4 -39 11 3 9 1 16 -5 16 -6
0 -11 -7 -11 -15z m53 -42 c-7 -2 -21 -2 -30 0 -10 3 -4 5 12 5 17 0 24 -2 18
-5z m13 -58 c-8 -8 -19 -15 -24 -15 -6 0 -12 7 -16 15 -4 11 2 15 25 15 27 0
29 -2 15 -15z"/>
<path d="M2667 8520 c-4 -16 -14 -20 -49 -21 l-43 -2 38 -6 37 -6 -24 -36
c-14 -20 -33 -39 -42 -43 -9 -4 -14 -9 -11 -12 3 -3 15 -1 26 6 20 10 21 8 21
-35 0 -28 4 -44 10 -40 6 3 10 26 10 49 0 24 7 60 15 80 l15 36 65 0 c36 0 65
4 65 9 0 5 -27 7 -61 4 -59 -6 -61 -5 -54 16 3 11 2 21 -3 21 -5 0 -12 -9 -15
-20z"/>
<path d="M3645 8514 c-9 -14 -27 -30 -41 -36 -26 -12 -34 -31 -9 -22 21 8 21
-83 0 -114 -14 -19 -14 -21 -1 -16 8 3 21 19 28 35 12 28 16 29 75 29 56 0 63
-2 63 -20 0 -14 -7 -20 -22 -21 -16 0 -18 -2 -8 -6 8 -3 18 -10 21 -16 17 -25
29 10 29 81 l0 77 -72 -2 c-56 -2 -69 0 -55 8 10 6 34 8 53 5 27 -6 34 -4 34
9 0 8 -9 15 -21 15 -11 0 -29 4 -39 10 -14 8 -21 4 -35 -16z m45 -59 c0 -9 -9
-15 -25 -15 -16 0 -25 6 -25 15 0 9 9 15 25 15 16 0 25 -6 25 -15z m70 0 c0
-10 -10 -15 -30 -15 -20 0 -30 5 -30 15 0 10 10 15 30 15 20 0 30 -5 30 -15z
m-70 -41 c0 -11 -8 -14 -27 -12 -39 4 -42 28 -4 28 21 0 31 -5 31 -16z m70 1
c0 -10 -10 -15 -30 -15 -20 0 -30 5 -30 15 0 10 10 15 30 15 20 0 30 -5 30
-15z"/>
<path d="M223 8523 c-22 -8 -16 -35 6 -28 27 8 36 -13 15 -36 -15 -16 -15 -19
-2 -19 17 0 31 -26 22 -41 -3 -5 -16 -9 -30 -9 -15 0 -24 -6 -24 -15 0 -22 36
-19 60 5 21 21 27 65 10 75 -6 4 -5 13 2 25 21 33 -17 60 -59 43z"/>
<path d="M335 8514 c-14 -14 -14 -19 -2 -38 12 -18 12 -24 -1 -44 -13 -19 -13
-25 2 -47 20 -30 37 -32 59 -7 19 21 22 53 6 69 -8 8 -7 16 2 30 27 44 -28 74
-66 37z m51 -15 c3 -6 2 -15 -2 -19 -12 -12 -38 5 -30 19 9 14 23 14 32 0z
m-6 -78 c14 -27 13 -31 -10 -31 -15 0 -20 7 -20 25 0 30 15 33 30 6z"/>
<path d="M1236 8468 c-4 -37 -2 -66 4 -72 7 -7 10 9 10 46 0 31 3 63 6 72 3 9
2 16 -4 16 -5 0 -12 -28 -16 -62z"/>
<path d="M2360 8518 c0 -7 128 -16 148 -10 33 11 4 18 -68 18 -44 -1 -80 -4
-80 -8z"/>
<path d="M2850 8423 c0 -74 3 -103 10 -93 5 8 10 52 10 98 l0 82 75 0 75 0 0
-80 c0 -76 -1 -80 -22 -80 -21 -1 -21 -2 -5 -11 39 -23 47 -5 47 96 l0 95 -95
0 -95 0 0 -107z"/>
<path d="M3434 8519 c-4 -7 -25 -9 -56 -7 -33 4 -48 2 -45 -6 2 -6 25 -11 50
-12 46 -1 82 -14 39 -14 -19 0 -22 -6 -22 -42 0 -24 -3 -53 -6 -65 -6 -21 -4
-22 49 -16 37 4 57 2 62 -7 5 -9 2 -10 -14 -5 -11 3 -21 2 -21 -3 0 -5 10 -8
23 -7 12 1 29 3 37 4 12 1 12 4 -2 15 -14 10 -18 28 -18 70 0 53 -1 56 -25 56
-14 0 -25 3 -25 8 0 4 18 7 40 7 45 1 59 10 42 27 -9 9 -15 9 -24 0 -15 -15
-58 -16 -58 -2 0 13 -17 13 -26 -1z m64 -66 c2 -9 -9 -14 -35 -15 l-38 -1 38
-4 c50 -6 48 -23 -3 -23 -36 0 -40 3 -40 24 0 18 7 26 23 29 33 7 50 3 55 -10z
m2 -63 c0 -5 -18 -10 -40 -10 -22 0 -40 5 -40 10 0 6 18 10 40 10 22 0 40 -4
40 -10z"/>
<path d="M3939 8493 c-1 -21 0 -51 1 -67 2 -28 1 -28 -44 -25 -25 3 -46 1 -46
-3 0 -5 21 -8 46 -8 41 0 45 -2 42 -22 -2 -19 -11 -24 -53 -29 l-50 -6 58 -1
57 -2 0 30 c0 28 3 30 35 30 19 0 35 5 35 10 0 7 -13 8 -35 4 -42 -7 -43 -2
-9 34 l25 27 20 -24 c11 -13 22 -21 26 -17 3 3 -2 15 -12 26 -10 11 -18 30
-19 42 -2 34 -19 28 -32 -12 -18 -54 -37 -52 -33 4 2 25 1 46 -3 46 -5 0 -8
-17 -9 -37z"/>
<path d="M4120 8510 c0 -11 -7 -23 -16 -27 -12 -4 -13 -8 -3 -14 11 -6 10 -15
-4 -45 -20 -41 -15 -58 8 -28 13 17 14 15 15 -31 1 -44 2 -47 11 -25 6 14 8
42 6 63 -4 32 -3 36 9 26 11 -9 14 -8 14 4 0 9 -8 21 -17 26 -16 9 -16 10 5
11 13 0 22 -6 22 -15 0 -8 4 -15 8 -15 5 0 7 13 4 28 -3 25 -7 28 -29 24 -23
-4 -24 -3 -14 17 10 17 9 21 -4 21 -8 0 -15 -9 -15 -20z"/>
<path d="M4160 8520 c0 -5 9 -10 20 -10 16 0 20 -7 20 -34 0 -32 3 -35 33 -39
24 -3 21 -4 -15 -5 -65 -3 -61 -22 5 -23 28 0 46 -3 40 -6 -18 -7 -16 -21 6
-49 14 -17 22 -21 27 -13 4 7 -2 20 -16 31 -22 18 -22 18 -1 18 12 0 21 5 21
10 0 6 -4 10 -9 10 -9 0 -7 34 5 73 3 11 0 17 -10 17 -8 0 -16 -12 -19 -27 -4
-26 -4 -26 -6 5 -1 26 3 32 19 32 11 0 20 5 20 10 0 6 -30 10 -70 10 -40 0
-70 -4 -70 -10z m78 -40 c1 -16 -2 -30 -8 -30 -5 0 -10 14 -10 30 0 17 4 30 8
30 4 0 9 -13 10 -30z"/>
<path d="M4413 8517 c-67 -11 -85 -27 -30 -27 24 0 28 -3 17 -10 -13 -8 -12
-11 5 -24 19 -15 19 -16 -12 -28 -38 -14 -43 -28 -11 -28 21 0 21 -1 -6 -29
-27 -28 -27 -29 -6 -24 12 3 27 16 32 29 18 39 38 29 40 -18 l1 -43 6 45 6 45
43 -1 c34 -1 42 2 40 15 -4 17 -21 19 -78 8 -30 -6 -33 -6 -16 5 32 21 58 49
52 56 -3 3 -17 -5 -30 -17 -14 -13 -29 -20 -35 -17 -21 14 3 36 55 51 30 8 54
18 54 20 0 7 -56 3 -127 -8z"/>
<path d="M4680 8441 l0 -90 -47 -4 c-27 -2 0 -4 60 -5 59 -1 107 2 107 6 0 5
-25 7 -57 4 l-56 -5 6 39 c4 22 7 45 7 52 0 7 15 12 40 12 22 0 40 5 40 10 0
6 -16 8 -41 4 l-42 -7 5 37 c3 25 0 36 -9 36 -10 0 -13 -23 -13 -89z"/>
<path d="M5418 8522 c-10 -2 -18 -10 -18 -17 0 -7 -8 -21 -17 -31 -13 -13 -14
-19 -5 -22 14 -4 16 -68 2 -77 -21 -13 -8 -25 28 -25 33 1 35 2 20 14 -23 17
-25 86 -3 86 8 0 15 5 15 10 0 6 -7 10 -15 10 -8 0 -15 7 -15 16 0 12 6 15 25
10 14 -4 25 -2 25 3 0 14 -24 28 -42 23z"/>
<path d="M5957 8509 c-4 -15 -11 -20 -21 -16 -14 5 -16 -5 -16 -73 l0 -79 38
6 c20 3 38 6 38 7 1 1 4 31 7 69 5 66 4 67 -21 67 -24 0 -25 0 -7 20 15 17 16
20 3 20 -9 0 -18 -10 -21 -21z m23 -53 c0 -19 -4 -23 -20 -19 -11 3 -20 14
-20 24 0 12 7 19 20 19 14 0 20 -7 20 -24z m0 -61 c0 -18 -5 -25 -20 -25 -15
0 -20 7 -20 25 0 18 5 25 20 25 15 0 20 -7 20 -25z"/>
<path d="M6026 8483 c-15 -47 -15 -48 3 -25 11 12 25 22 33 22 10 0 10 2 0 8
-7 5 -10 16 -6 25 3 9 2 17 -4 17 -6 0 -17 -21 -26 -47z"/>
<path d="M6170 8425 l0 -101 90 4 c70 3 90 2 90 -9 0 -8 3 -9 9 -3 6 5 11 53
12 108 l2 99 -102 2 -101 2 0 -102z m60 60 c0 -16 6 -25 16 -25 8 0 12 -5 9
-10 -4 -6 -16 -8 -27 -4 -19 6 -20 2 -16 -50 1 -31 0 -56 -4 -56 -5 0 -8 38
-8 85 0 69 3 85 15 85 9 0 15 -9 15 -25z m120 -54 c0 -50 -4 -83 -12 -87 -8
-5 -9 9 -5 54 6 60 2 73 -19 52 -6 -6 -15 -6 -24 0 -12 8 -10 10 8 10 15 0 22
6 22 19 0 16 -8 21 -42 24 -37 3 -35 4 15 5 l57 2 0 -79z m-67 52 c-7 -2 -19
-2 -25 0 -7 3 -2 5 12 5 14 0 19 -2 13 -5z m-46 -100 c-3 -10 -5 -4 -5 12 0
17 2 24 5 18 2 -7 2 -21 0 -30z m46 30 c-7 -2 -19 -2 -25 0 -7 3 -2 5 12 5 14
0 19 -2 13 -5z m24 -30 c-3 -10 -5 -4 -5 12 0 17 2 24 5 18 2 -7 2 -21 0 -30z
m-24 10 c-7 -2 -19 -2 -25 0 -7 3 -2 5 12 5 14 0 19 -2 13 -5z m10 -50 c-13
-2 -33 -2 -45 0 -13 2 -3 4 22 4 25 0 35 -2 23 -4z"/>
<path d="M6444 8493 c-8 -33 -3 -205 6 -178 7 21 8 32 9 83 0 28 6 52 11 52 6
0 10 -6 10 -14 0 -9 8 -13 23 -9 21 4 22 4 3 -11 -11 -9 -24 -16 -30 -16 -5 0
-7 -2 -5 -5 3 -2 19 -1 36 4 26 8 30 6 29 -10 -1 -21 -22 -39 -46 -38 -8 0 -2
7 13 15 34 18 30 28 -7 18 -19 -4 -25 -12 -24 -28 2 -17 7 -21 23 -18 12 2 29
-3 37 -11 16 -17 38 -5 38 20 0 15 16 17 25 3 3 -5 14 -10 23 -10 15 1 14 3
-3 16 -70 52 -81 74 -40 74 27 0 32 -9 13 -28 -7 -7 -8 -12 -2 -12 20 0 30 17
32 53 2 33 0 37 -22 37 -20 0 -23 4 -19 21 5 18 3 20 -17 14 -15 -5 -26 -2
-31 6 -8 12 -11 11 -19 -2 -5 -9 -18 -27 -29 -40 -16 -19 -20 -21 -21 -7 0 9
5 20 10 23 14 9 12 35 -3 35 -7 0 -17 -17 -23 -37z m99 -10 c-7 -2 -21 -2 -30
0 -10 3 -4 5 12 5 17 0 24 -2 18 -5z m-8 -33 c-3 -5 -15 -10 -26 -10 -11 0
-17 5 -14 10 3 6 15 10 26 10 11 0 17 -4 14 -10z m65 0 c0 -5 -11 -10 -25 -10
-14 0 -25 5 -25 10 0 6 11 10 25 10 14 0 25 -4 25 -10z m-50 -100 c0 -5 -5
-10 -11 -10 -5 0 -7 5 -4 10 3 6 8 10 11 10 2 0 4 -4 4 -10z"/>
<path d="M6748 8522 c-38 -2 -68 -7 -68 -12 0 -6 12 -10 26 -10 25 0 26 -2 22
-43 -3 -24 -17 -61 -32 -83 -33 -49 -33 -60 -1 -32 14 12 28 36 31 55 8 42 15
41 36 -2 20 -39 22 -36 -47 -60 -12 -4 -15 -9 -8 -12 7 -2 28 3 48 13 34 16
39 16 71 0 39 -18 54 -20 54 -7 0 5 -10 12 -22 15 -48 13 -51 20 -24 61 28 41
32 55 15 55 -5 0 -16 -15 -24 -32 -7 -18 -17 -36 -21 -41 -11 -10 -44 23 -44
45 0 10 -4 18 -10 18 -5 0 -10 11 -10 25 0 21 5 25 30 25 32 0 36 -9 20 -41
-9 -16 -7 -19 9 -19 14 0 19 5 15 14 -3 8 0 24 6 36 16 31 5 35 -72 32z"/>
<path d="M8316 8505 c-4 -14 -12 -22 -19 -20 -9 4 -12 -14 -12 -68 l0 -73 39
1 c38 1 38 2 42 43 2 23 4 45 5 49 5 33 -3 53 -22 53 -16 0 -19 4 -14 20 3 11
2 20 -3 20 -6 0 -13 -11 -16 -25z m24 -50 c0 -18 -5 -25 -20 -25 -25 0 -27 37
-2 43 9 3 18 5 20 6 1 0 2 -10 2 -24z m-2 -62 c-2 -17 -10 -29 -20 -31 -14 -3
-18 3 -18 27 0 25 4 31 21 31 16 0 20 -5 17 -27z"/>
<path d="M8392 8497 c-15 -42 -15 -54 0 -39 7 7 27 12 45 12 31 0 33 -2 33
-34 0 -18 -3 -48 -6 -65 -6 -27 -11 -31 -38 -32 -26 0 -28 -2 -11 -9 45 -19
53 -13 60 48 3 31 8 69 10 84 4 25 3 26 -30 21 -33 -5 -35 -4 -35 21 0 36 -14
33 -28 -7z"/>
<path d="M8539 8515 c0 -5 -2 -52 -4 -103 -2 -85 4 -117 20 -92 9 15 152 13
158 -2 10 -29 17 4 22 103 l5 104 -100 0 c-60 0 -100 -4 -101 -10z m51 -40 c0
-16 -6 -25 -15 -25 -9 0 -15 9 -15 25 0 16 6 25 15 25 9 0 15 -9 15 -25z m74
10 c-4 -8 -17 -15 -30 -15 -15 0 -24 6 -24 15 0 10 10 15 30 15 22 0 28 -4 24
-15z m46 -10 c0 -16 -6 -25 -15 -25 -9 0 -15 9 -15 25 0 16 6 25 15 25 9 0 15
-9 15 -25z m-43 -21 c-3 -3 -12 -4 -19 -1 -8 3 -5 6 6 6 11 1 17 -2 13 -5z
m-95 -76 c2 -21 0 -38 -4 -38 -4 0 -7 24 -7 53 1 54 5 49 11 -15z m81 55 c-13
-2 -33 -2 -45 0 -13 2 -3 4 22 4 25 0 35 -2 23 -4z m57 -43 l0 -50 -57 2 -58
2 53 3 52 4 0 45 c0 24 2 44 5 44 3 0 5 -22 5 -50z m-113 -7 c-3 -10 -5 -4 -5
12 0 17 2 24 5 18 2 -7 2 -21 0 -30z m46 30 c-7 -2 -19 -2 -25 0 -7 3 -2 5 12
5 14 0 19 -2 13 -5z m4 -19 c-3 -3 -12 -4 -19 -1 -8 3 -5 6 6 6 11 1 17 -2 13
-5z m20 -26 c-3 -7 -5 -2 -5 12 0 14 2 19 5 13 2 -7 2 -19 0 -25z m-24 -5 c-7
-2 -19 -2 -25 0 -7 3 -2 5 12 5 14 0 19 -2 13 -5z"/>
<path d="M8811 8494 c-6 -20 -18 -45 -27 -55 -10 -11 -14 -22 -10 -27 4 -4 14
1 21 12 13 16 14 11 18 -50 3 -68 3 -68 5 17 1 63 6 90 17 99 19 16 19 40 0
40 -8 0 -18 -16 -24 -36z"/>
<path d="M8855 8492 c-18 -23 -24 -37 -17 -40 7 -2 12 -10 12 -18 0 -8 8 -14
18 -14 13 -1 11 -4 -8 -16 l-25 -15 30 5 30 6 -33 -18 c-18 -10 -30 -21 -26
-24 8 -9 34 1 57 20 16 14 17 14 12 0 -4 -9 -23 -23 -43 -32 -28 -12 -30 -15
-11 -11 17 3 31 -1 39 -10 18 -21 29 -19 42 10 10 23 13 24 29 9 10 -9 23 -13
30 -9 8 6 3 13 -16 23 -27 14 -28 15 -10 28 11 8 20 30 22 54 4 37 2 40 -22
40 -15 0 -24 4 -20 10 3 6 -2 13 -12 16 -10 3 -25 9 -34 14 -11 6 -23 -1 -44
-28z m58 -9 c-7 -2 -21 -2 -30 0 -10 3 -4 5 12 5 17 0 24 -2 18 -5z m-13 -33
c0 -5 -9 -10 -20 -10 -11 0 -20 5 -20 10 0 6 9 10 20 10 11 0 20 -4 20 -10z
m60 0 c0 -5 -9 -10 -20 -10 -11 0 -20 5 -20 10 0 6 9 10 20 10 11 0 20 -4 20
-10z m-6 -45 c-4 -8 -10 -15 -14 -15 -4 0 -13 7 -20 15 -11 13 -8 15 13 15 19
0 25 -4 21 -15z m-37 -61 c-3 -3 -12 -4 -19 -1 -8 3 -5 6 6 6 11 1 17 -2 13
-5z"/>
<path d="M3863 8475 c-29 -57 -29 -64 1 -36 22 21 25 21 34 6 5 -10 15 -16 22
-13 10 3 8 10 -7 25 -14 14 -20 29 -16 42 9 37 -11 22 -34 -24z"/>
<path d="M5511 8501 c-39 -39 -36 -137 5 -178 21 -21 27 -15 10 11 -28 44 -31
100 -7 146 23 44 21 50 -8 21z"/>
<path d="M5680 8516 c0 -4 6 -17 14 -29 25 -39 28 -82 10 -123 -10 -22 -20
-43 -22 -49 -3 -5 5 -1 17 9 32 29 46 86 32 129 -10 30 -51 81 -51 63z"/>
<path d="M7772 8508 c-7 -7 -12 -20 -12 -29 0 -10 -8 -20 -17 -22 -17 -4 -17
-5 0 -6 13 -1 17 -10 17 -41 0 -27 -6 -42 -17 -49 -14 -8 -10 -10 22 -10 22 0
34 3 28 6 -8 3 -13 23 -13 48 0 33 4 45 18 48 16 4 16 5 0 6 -11 1 -18 9 -18
21 0 21 15 27 25 10 4 -6 11 -8 16 -4 6 4 6 11 -2 20 -14 17 -31 18 -47 2z"/>
<path d="M7880 8495 c-17 -18 -25 -40 -28 -79 -4 -48 -2 -56 27 -87 17 -19 31
-29 31 -22 0 6 -7 18 -15 27 -8 8 -18 35 -21 60 -5 36 -2 53 15 82 26 44 23
53 -9 19z"/>
<path d="M9102 8508 c-15 -15 -16 -58 -2 -58 6 0 10 9 10 19 0 24 13 33 34 25
20 -8 21 -38 1 -54 -8 -7 -15 -22 -14 -34 0 -12 3 -15 6 -8 3 7 16 24 29 37
30 30 30 49 2 69 -27 19 -50 20 -66 4z"/>
<path d="M7456 8501 c-18 -7 -18 -8 -2 -14 14 -5 17 -17 15 -49 -1 -24 -6 -53
-11 -65 -6 -20 -4 -23 18 -23 16 0 23 4 18 12 -4 6 -7 42 -6 80 1 37 -2 68 -6
67 -4 0 -16 -4 -26 -8z"/>
<path d="M8052 8503 c42 -81 44 -127 10 -166 -8 -9 -12 -20 -8 -25 12 -11 43
34 51 74 7 41 -16 109 -42 118 -8 3 -13 3 -11 -1z"/>
<path d="M2970 8490 c-12 -8 -10 -10 8 -10 13 0 20 4 17 10 -7 12 -6 12 -25 0z"/>
<path d="M1410 8438 c0 -45 11 -61 25 -38 4 6 15 8 26 5 16 -5 19 -1 19 24 0
16 2 35 5 43 4 9 -6 13 -35 13 l-40 0 0 -47z m60 7 c0 -18 -5 -25 -20 -25 -15
0 -20 7 -20 25 0 18 5 25 20 25 15 0 20 -7 20 -25z"/>
<path d="M1861 8442 c-2 -54 5 -65 29 -49 16 9 24 9 40 -1 19 -12 20 -10 20
40 l0 53 -43 0 -44 0 -2 -43z m69 3 c0 -18 -5 -25 -20 -25 -15 0 -20 7 -20 25
0 18 5 25 20 25 15 0 20 -7 20 -25z"/>
<path d="M6099 8481 c10 -7 12 -21 7 -57 -10 -70 -15 -84 -32 -84 -8 0 -12 -4
-9 -10 11 -18 33 -11 41 13 4 12 10 50 14 85 6 58 5 62 -14 62 -16 0 -18 -2
-7 -9z"/>
<path d="M2427 8472 c-59 -1 -95 -7 -92 -12 4 -6 26 -10 51 -10 l44 0 0 -66
c0 -41 4 -63 10 -59 6 3 10 33 10 66 l0 59 51 0 c35 0 49 4 47 12 -5 15 -2 14
-121 10z"/>
<path d="M2710 8454 c0 -23 -3 -26 -25 -22 -14 3 -25 1 -25 -3 0 -5 12 -9 26
-9 25 0 26 -2 22 -45 -2 -25 -1 -45 2 -44 3 0 14 4 25 9 19 8 19 9 1 9 -14 1
-17 6 -12 24 3 12 6 28 6 35 0 7 8 12 18 11 30 -3 42 1 42 12 0 7 -12 9 -31 7
-28 -4 -30 -3 -24 19 4 16 1 23 -10 23 -10 0 -15 -9 -15 -26z"/>
<path d="M3350 8395 c0 -43 4 -75 10 -75 6 0 10 3 10 8 0 4 19 7 43 6 l42 -2
-40 6 -40 7 0 63 c0 43 -4 62 -12 62 -9 0 -13 -21 -13 -75z"/>
<path d="M5025 8461 c-3 -5 -1 -12 5 -16 5 -3 10 -28 10 -55 0 -42 -3 -49 -22
-52 -24 -3 -38 -28 -15 -28 21 0 108 96 110 122 1 13 -2 23 -8 23 -5 0 -9 -6
-7 -12 4 -17 -16 -53 -28 -53 -6 0 -10 18 -10 40 0 28 -4 40 -14 40 -8 0 -17
-4 -21 -9z"/>
<path d="M5590 8440 c15 -28 3 -60 -21 -60 -10 0 -19 -7 -19 -15 0 -22 25 -18
43 8 13 18 16 19 16 5 1 -23 19 -32 36 -18 19 16 19 34 0 26 -11 -4 -15 2 -15
24 0 23 4 30 20 30 11 0 20 5 20 10 0 13 -23 13 -37 -1 -8 -8 -13 -8 -17 0 -4
6 -14 11 -22 11 -12 0 -12 -4 -4 -20z"/>
<path d="M7107 8433 c4 -15 8 -44 8 -63 0 -29 -4 -36 -22 -38 -13 -2 -23 -10
-23 -18 0 -32 26 -14 97 69 23 28 34 65 18 63 -5 -1 -9 -5 -7 -9 3 -11 -17
-47 -28 -47 -5 0 -10 15 -12 32 -2 22 -9 34 -21 36 -15 3 -17 -1 -10 -25z"/>
<path d="M7957 8454 c-3 -4 -2 -15 4 -26 14 -26 2 -58 -22 -58 -10 0 -19 -4
-19 -10 0 -18 29 -10 44 12 l16 22 0 -22 c0 -12 6 -22 14 -22 17 0 41 28 32
37 -4 4 -11 1 -15 -6 -7 -10 -10 -9 -16 8 -7 23 11 55 25 46 5 -3 11 -1 14 4
10 15 -13 24 -29 11 -9 -7 -15 -8 -20 0 -7 11 -19 13 -28 4z"/>
<path d="M2892 8410 c-1 -22 2 -40 8 -40 5 0 10 15 10 34 0 24 5 36 18 39 11
3 9 5 -8 6 -22 1 -25 -3 -28 -39z"/>
<path d="M2966 8413 c2 -52 24 -56 24 -4 0 26 -5 41 -12 41 -8 0 -13 -13 -12
-37z"/>
<path d="M3180 8440 l-95 -6 108 -2 c66 -1 107 2 107 8 0 6 -6 9 -12 8 -7 -1
-56 -5 -108 -8z"/>
<path d="M5180 8440 c0 -6 27 -10 60 -10 33 0 60 4 60 10 0 6 -27 10 -60 10
-33 0 -60 -4 -60 -10z"/>
<path d="M2380 8429 c0 -6 -11 -25 -25 -41 -14 -17 -23 -33 -20 -37 8 -7 74
72 68 82 -7 11 -23 8 -23 -4z"/>
<path d="M6045 8420 c10 -11 20 -18 23 -15 7 6 -18 35 -31 35 -5 0 -2 -9 8
-20z"/>
<path d="M6410 8430 c0 -5 5 -10 10 -10 6 0 10 5 10 10 0 6 -4 10 -10 10 -5 0
-10 -4 -10 -10z"/>
<path d="M7263 8434 c10 -11 117 -14 117 -4 0 6 -28 10 -62 10 -34 0 -59 -3
-55 -6z"/>
<path d="M8407 8416 c10 -13 21 -22 25 -20 11 7 -15 44 -30 44 -9 0 -8 -7 5
-24z"/>
<path d="M2482 8423 c13 -28 44 -73 51 -73 13 0 7 21 -14 51 -18 25 -47 42
-37 22z"/>
<path d="M7560 8410 c0 -6 27 -10 60 -10 33 0 60 4 60 10 0 6 -27 10 -60 10
-33 0 -60 -4 -60 -10z"/>
<path d="M5185 8400 c3 -5 31 -10 61 -10 30 0 54 5 54 10 0 6 -27 10 -61 10
-37 0 -58 -4 -54 -10z"/>
<path d="M4168 8393 c17 -7 15 -18 -5 -39 -17 -17 -17 -18 1 -11 12 5 25 2 36
-8 21 -19 31 -9 34 36 1 18 -3 29 -11 29 -7 0 -10 -6 -7 -15 8 -20 -3 -48 -16
-40 -8 5 -7 11 0 20 15 19 4 35 -23 34 -12 0 -16 -3 -9 -6z"/>
<path d="M7252 8395 c10 -11 128 -15 128 -5 0 6 -28 10 -67 10 -36 0 -64 -2
-61 -5z"/>
<path d="M440 8380 c0 -5 7 -10 15 -10 8 0 15 5 15 10 0 6 -7 10 -15 10 -8 0
-15 -4 -15 -10z"/>
<path d="M4497 8371 c3 -11 12 -22 20 -26 33 -12 27 17 -7 35 -15 8 -17 6 -13
-9z"/>
<path d="M2765 8349 c-10 -14 -1 -21 19 -13 9 3 13 10 10 15 -7 12 -21 11 -29
-2z"/>
<path d="M9120 8345 c0 -8 5 -15 10 -15 6 0 10 7 10 15 0 8 -4 15 -10 15 -5 0
-10 -7 -10 -15z"/>
<path d="M4010 8340 c-12 -8 -9 -10 13 -10 15 0 27 5 27 10 0 13 -20 13 -40 0z"/>
<path d="M902 7896 c-12 -20 -26 -53 -32 -75 -6 -22 -16 -42 -23 -44 -6 -3 0
-6 14 -6 20 -1 25 4 25 22 -1 18 4 22 29 22 23 0 31 -5 33 -22 3 -17 10 -23
28 -23 l25 0 -20 28 c-11 16 -25 48 -30 72 -14 61 -25 67 -49 26z m28 -53 c0
-7 -7 -13 -16 -13 -11 0 -14 5 -10 16 3 9 6 21 6 27 0 16 20 -14 20 -30z"/>
<path d="M5458 7903 c15 -6 17 -133 2 -133 -5 0 -10 -4 -10 -10 0 -13 86 -13
110 0 15 8 18 21 18 67 -1 32 -6 64 -11 71 -6 7 -32 12 -66 11 -31 0 -50 -3
-43 -6z m81 -17 c17 -20 3 -46 -25 -46 -18 0 -24 5 -24 23 0 38 26 50 49 23z
m-5 -62 c9 -3 16 -17 16 -30 0 -19 -5 -24 -25 -24 -27 0 -41 20 -31 45 6 16
16 18 40 9z"/>
<path d="M1010 7780 c0 -5 6 -10 14 -10 8 0 18 5 21 10 3 6 -3 10 -14 10 -12
0 -21 -4 -21 -10z"/>
<path d="M5620 7760 c0 -5 5 -10 10 -10 6 0 10 5 10 10 0 6 -4 10 -10 10 -5 0
-10 -4 -10 -10z"/>
<path d="M1527 7663 c-4 -3 -3 -11 2 -17 5 -6 11 -29 13 -51 2 -33 -1 -41 -19
-50 -13 -5 -23 -15 -23 -22 0 -19 12 -15 44 13 25 22 29 32 27 71 0 25 -4 49
-7 54 -6 11 -28 12 -37 2z"/>
<path d="M1600 7647 c0 -13 -5 -28 -12 -35 -6 -6 -8 -15 -4 -19 4 -5 14 1 22
11 16 23 19 66 4 66 -5 0 -10 -10 -10 -23z"/>
<path d="M1654 7593 c-15 -32 -29 -61 -31 -65 -2 -4 1 -10 7 -13 6 -4 15 7 21
24 6 17 14 31 17 31 4 0 6 -44 5 -97 -2 -54 -4 -522 -5 -1040 -2 -518 -6 -944
-9 -947 -3 -3 -71 -6 -152 -7 -83 0 -147 -5 -147 -10 0 -5 65 -9 152 -9 l151
0 -7 -565 c-4 -333 -4 -565 2 -565 11 0 22 397 22 810 l0 315 265 -3 c146 -1
265 -4 265 -5 -1 -11 -38 -101 -76 -182 -22 -48 -75 -197 -83 -235 -5 -19 -15
-51 -23 -70 -8 -19 -18 -53 -22 -75 -4 -22 -12 -45 -16 -50 -5 -6 -18 -44 -29
-86 -11 -41 -25 -89 -31 -105 -6 -16 -16 -49 -20 -74 -5 -25 -12 -55 -16 -67
-4 -14 -2 -23 5 -23 6 0 11 9 11 19 0 11 4 22 9 25 5 3 14 30 21 58 6 29 23
89 36 133 13 44 34 112 45 150 39 128 53 170 61 179 4 6 8 20 8 33 0 13 11 46
25 75 14 28 25 57 25 64 0 12 30 81 77 182 l25 52 353 0 353 0 21 -35 c11 -20
24 -48 27 -63 4 -15 10 -29 13 -32 9 -7 41 -79 41 -91 0 -6 7 -25 14 -42 32
-70 73 -198 111 -347 9 -36 28 -101 41 -145 13 -44 24 -87 24 -97 0 -25 42
-128 50 -123 4 3 2 22 -6 42 -7 21 -13 47 -14 57 0 11 -9 49 -19 85 -23 77
-58 204 -76 276 -18 70 -77 236 -116 323 -10 23 -19 48 -19 55 0 7 -11 33 -25
59 -45 85 -93 78 528 77 475 -1 547 -3 513 -14 -43 -15 -63 -31 -52 -42 7 -8
145 57 146 69 0 4 -22 17 -50 29 -27 12 -50 25 -50 29 0 12 -39 19 -46 9 -3
-5 5 -18 17 -28 22 -17 18 -18 -177 -26 -109 -5 -350 -8 -534 -6 -331 2 -335
3 -352 24 -10 12 -18 27 -18 34 0 14 -39 76 -70 112 -11 13 -20 28 -20 33 0 5
-13 23 -30 41 -16 18 -30 35 -30 39 0 3 -23 22 -51 43 -47 34 -55 36 -127 36
-43 0 -86 -3 -97 -7 -22 -8 -118 -84 -124 -98 -2 -5 -14 -19 -27 -31 -13 -12
-24 -25 -24 -29 0 -4 -10 -22 -23 -39 -35 -50 -46 -69 -68 -114 l-20 -43 -213
0 c-117 0 -241 3 -274 6 l-62 7 5 526 c3 289 7 652 10 806 3 154 5 393 6 530
l0 250 19 -42 c18 -40 40 -58 40 -32 0 12 -20 52 -30 59 -4 3 -11 18 -17 34
-15 46 -28 41 -59 -21z m1045 -1802 c34 -18 57 -41 129 -127 13 -15 36 -51 52
-80 15 -28 35 -62 44 -75 9 -13 16 -27 16 -31 0 -5 -153 -8 -340 -8 -187 0
-340 2 -340 4 0 21 58 122 105 185 34 45 130 130 158 139 54 17 134 14 176 -7z"/>
<path d="M6036 7639 c29 -37 25 -104 -7 -114 -21 -7 -26 -25 -7 -25 12 0 74
68 95 104 16 27 16 49 1 43 -7 -2 -12 -10 -10 -17 5 -21 -9 -50 -23 -50 -8 0
-15 13 -17 32 -2 23 -9 34 -23 37 -15 3 -17 0 -9 -10z"/>
<path d="M6161 7573 c-33 -61 -37 -73 -21 -73 6 0 10 6 10 14 0 8 6 21 13 28
8 7 16 20 19 28 7 16 0 -1002 -7 -1165 -2 -55 -4 -175 -5 -267 l0 -168 -156 0
c-120 0 -155 -3 -152 -12 4 -10 44 -13 156 -13 l151 0 -6 -822 c-5 -622 -3
-823 5 -823 8 0 12 24 12 73 1 39 2 95 4 122 2 28 7 365 11 750 4 385 8 700 9
700 0 0 605 -2 1344 -5 1301 -5 1342 -6 1313 -23 -17 -10 -31 -23 -31 -28 0
-6 3 -9 8 -7 4 2 27 13 52 25 78 35 79 46 8 81 -34 18 -63 30 -65 28 -2 -2 11
-16 28 -31 l33 -27 -1180 6 c-648 3 -1255 5 -1347 6 l-168 0 2 805 c1 442 5
802 9 800 4 -3 15 -20 24 -40 9 -19 22 -35 27 -35 6 0 9 3 7 8 -20 38 -48 106
-48 113 0 5 -6 9 -14 9 -8 0 -28 -26 -45 -57z"/>
<path d="M7390 7444 c0 -17 11 -64 25 -104 14 -40 25 -83 25 -94 0 -11 9 -51
21 -90 48 -163 94 -303 106 -326 7 -14 13 -32 13 -40 0 -13 25 -78 74 -195 33
-78 133 -268 149 -282 9 -9 17 -22 17 -29 0 -7 31 -43 68 -81 69 -69 134 -103
198 -103 35 0 125 43 165 78 35 31 119 145 119 161 0 5 7 15 16 22 9 8 25 32
35 54 10 22 23 47 28 55 45 70 166 385 229 595 12 39 31 99 42 135 12 36 25
83 30 105 4 22 17 66 28 97 14 38 17 60 10 64 -12 8 -28 -13 -28 -38 0 -9 -11
-52 -24 -95 -40 -129 -57 -185 -72 -242 -8 -30 -19 -60 -23 -65 -5 -6 -13 -29
-17 -51 -4 -22 -18 -62 -30 -90 -13 -27 -24 -58 -24 -68 0 -9 -8 -36 -19 -60
-10 -23 -28 -67 -41 -97 -33 -79 -80 -183 -90 -200 -6 -8 -19 -32 -31 -54 -33
-61 -110 -168 -147 -205 -19 -18 -59 -45 -89 -58 -72 -33 -124 -26 -192 25
-50 38 -137 137 -159 182 -7 14 -28 52 -48 85 -19 33 -37 67 -40 75 -3 8 -17
39 -30 68 -13 29 -24 57 -24 63 0 5 -9 27 -19 47 -20 39 -45 107 -67 182 -7
25 -22 72 -33 105 -34 100 -96 321 -121 430 -14 61 -30 82 -30 39z"/>
<path d="M1910 7431 c0 -4 11 -44 25 -87 14 -43 25 -87 25 -97 0 -11 11 -51
24 -90 13 -40 33 -103 44 -142 65 -224 83 -276 143 -413 11 -23 19 -47 19 -52
0 -5 15 -40 34 -77 111 -223 188 -323 287 -374 62 -31 151 -24 210 16 61 43
126 106 134 133 3 12 10 22 13 22 4 0 18 20 32 45 14 25 28 45 32 45 5 0 8 8
8 18 0 10 4 22 9 28 11 11 91 166 91 177 0 4 8 26 19 50 50 112 71 165 71 175
0 7 9 31 19 54 25 57 81 232 81 253 0 17 18 78 66 225 28 87 29 100 10 100 -8
0 -16 -15 -20 -37 -4 -21 -15 -65 -25 -98 -11 -33 -31 -105 -46 -160 -30 -110
-75 -250 -107 -335 -65 -171 -160 -376 -208 -450 -16 -25 -34 -55 -39 -66 -5
-12 -41 -55 -80 -95 -61 -64 -77 -75 -123 -86 -125 -28 -225 38 -335 222 -56
95 -183 381 -183 413 0 7 -4 20 -9 30 -22 40 -41 91 -41 107 0 9 -11 49 -24
88 -13 40 -33 106 -45 147 -11 41 -31 113 -45 160 -13 47 -27 102 -30 123 -4
23 -12 37 -21 37 -8 0 -15 -4 -15 -9z"/>
<path d="M7093 6993 c-10 -16 -22 -32 -28 -36 -7 -6 -6 -10 3 -14 15 -6 16
-57 2 -84 -10 -17 -7 -19 27 -19 34 1 36 2 21 14 -23 17 -25 86 -3 86 8 0 15
5 15 10 0 6 -7 10 -15 10 -17 0 -19 9 -6 29 6 9 11 10 15 2 4 -6 14 -11 22
-11 12 0 12 4 4 20 -15 28 -36 25 -57 -7z"/>
<path d="M7207 6991 c-35 -42 -42 -87 -23 -137 17 -40 56 -77 56 -51 0 7 -10
21 -21 31 -18 15 -21 26 -17 77 3 42 10 63 23 72 10 8 16 20 13 27 -2 8 -13 2
-31 -19z"/>
<path d="M7390 6985 c32 -35 33 -112 2 -155 -27 -36 -28 -44 -3 -31 31 17 54
78 47 125 -8 50 -31 86 -53 86 -13 0 -12 -5 7 -25z"/>
<path d="M6722 6953 c-8 -3 -10 -9 -4 -16 15 -19 22 -90 11 -103 -6 -7 -17
-10 -25 -7 -9 3 -14 -2 -14 -16 0 -31 21 -25 51 13 21 29 24 41 20 82 -6 47
-14 57 -39 47z"/>
<path d="M6793 6941 c3 -11 -2 -29 -10 -41 -19 -26 -11 -37 11 -15 18 19 22
75 5 75 -6 0 -9 -9 -6 -19z"/>
<path d="M7280 6950 c-13 -8 -12 -11 4 -23 24 -18 17 -51 -12 -55 -12 -2 -22
-10 -22 -18 0 -19 29 -18 36 1 4 8 10 15 15 15 5 0 9 -7 9 -15 0 -18 9 -19 30
-4 11 8 12 12 3 16 -21 8 -16 54 7 60 11 3 20 9 20 14 0 13 -24 11 -38 -3 -9
-9 -15 -8 -24 5 -9 12 -17 14 -28 7z"/>
<path d="M3633 6923 c-10 -16 -22 -31 -28 -35 -6 -5 -5 -8 3 -8 10 0 13 -13
10 -50 -3 -47 -2 -50 22 -50 19 0 21 3 12 12 -7 7 -12 27 -12 45 0 26 5 36 23
43 l22 9 -24 0 c-17 1 -22 5 -17 17 3 9 6 18 6 20 0 2 7 4 15 4 8 0 15 -5 15
-11 0 -5 4 -8 10 -4 15 9 0 35 -21 35 -10 0 -26 -12 -36 -27z"/>
<path d="M3920 6948 c0 -3 7 -19 15 -34 27 -52 29 -90 6 -136 -11 -23 -19 -43
-17 -45 1 -2 13 9 27 23 20 21 24 36 24 85 0 51 -4 62 -27 86 -16 15 -28 25
-28 21z"/>
<path d="M3740 6908 c-20 -33 -24 -47 -21 -83 3 -31 34 -85 49 -85 10 0 8 9
-7 34 -26 41 -27 81 -2 129 23 46 8 49 -19 5z"/>
<path d="M6870 6930 c0 -6 29 -10 66 -10 41 0 63 4 59 10 -3 6 -33 10 -66 10
-33 0 -59 -4 -59 -10z"/>
<path d="M6897 6883 c18 -2 50 -2 70 0 21 2 7 4 -32 4 -38 0 -55 -2 -38 -4z"/>
<path d="M3266 6872 c16 -10 25 -82 13 -103 -5 -11 -16 -16 -24 -13 -9 4 -15
0 -15 -10 0 -32 31 -14 79 47 53 65 61 87 35 87 -9 0 -14 -6 -11 -14 3 -7 -4
-26 -14 -42 l-20 -29 3 30 c3 38 -8 55 -35 55 -13 0 -17 -3 -11 -8z"/>
<path d="M3823 6873 c11 -3 17 -14 17 -32 0 -36 22 -66 44 -58 9 4 16 11 16
17 0 6 -4 9 -9 6 -10 -6 -23 33 -15 46 3 4 12 8 20 8 8 0 14 5 14 10 0 14 -23
13 -38 -2 -9 -9 -12 -9 -12 0 0 7 -12 11 -27 11 -17 -1 -21 -3 -10 -6z"/>
<path d="M3430 6860 c0 -5 25 -10 55 -10 30 0 55 5 55 10 0 6 -25 10 -55 10
-30 0 -55 -4 -55 -10z"/>
<path d="M3430 6820 c0 -5 25 -10 55 -10 30 0 55 5 55 10 0 6 -25 10 -55 10
-30 0 -55 -4 -55 -10z"/>
<path d="M3810 6800 c-22 -6 -23 -8 -7 -15 11 -4 23 -3 30 4 15 15 7 19 -23
11z"/>
<path d="M6003 5837 c-77 -44 -85 -147 -10 -147 39 0 72 21 92 60 18 35 19 64
2 78 -21 18 -61 22 -84 9z m57 -22 c23 -62 -58 -153 -88 -99 -12 22 -4 52 26
92 29 38 49 41 62 7z"/>
<path d="M8897 5823 c-3 -3 -2 -13 3 -22 5 -9 11 -27 14 -41 10 -43 22 -56 40
-41 20 17 21 35 2 28 -18 -7 -28 27 -13 42 6 6 17 11 24 11 7 0 13 5 13 10 0
14 -23 13 -38 -2 -8 -8 -12 -8 -12 -1 0 12 -25 25 -33 16z"/>
<path d="M6981 5800 c-23 -11 -57 -32 -75 -46 -36 -31 -136 -154 -136 -168 0
-5 -6 -17 -14 -25 -13 -15 -81 -147 -111 -216 -50 -114 -131 -333 -148 -400
-5 -22 -19 -65 -29 -95 -19 -52 -39 -123 -74 -255 -9 -33 -22 -73 -29 -90 -8
-17 -10 -34 -5 -39 13 -13 30 2 30 27 0 12 9 49 20 82 10 33 26 87 35 120 49
179 52 189 112 360 52 148 65 182 87 230 30 68 116 247 124 261 27 43 62 91
76 103 9 7 16 18 16 23 0 11 42 51 91 88 28 20 48 25 111 28 66 4 83 1 115
-18 41 -24 123 -108 123 -126 0 -6 9 -19 20 -29 11 -10 20 -23 20 -28 0 -6 6
-18 14 -26 12 -14 40 -67 107 -204 11 -22 19 -43 19 -48 0 -4 11 -33 25 -63
14 -30 25 -58 25 -63 0 -4 11 -35 24 -68 21 -55 35 -98 95 -298 12 -37 21 -76
21 -87 0 -11 11 -52 24 -92 14 -40 27 -89 30 -109 4 -19 13 -44 21 -55 14 -18
14 -18 15 9 0 16 -11 62 -25 103 -14 41 -25 81 -25 89 0 9 -11 50 -24 93 -14
42 -34 111 -46 152 -11 41 -28 95 -37 120 -9 25 -21 63 -27 85 -7 22 -22 61
-34 87 -12 26 -22 52 -22 57 0 22 -147 321 -165 336 -7 6 -23 28 -36 50 -85
143 -217 199 -338 145z"/>
<path d="M8875 5737 c-13 -10 -15 -16 -6 -21 12 -8 41 10 41 25 0 13 -13 11
-35 -4z"/>
<path d="M1474 5334 c-38 -40 -46 -88 -16 -110 52 -40 132 17 132 94 0 63 -64
72 -116 16z m86 11 c16 -19 5 -63 -25 -100 -21 -25 -28 -28 -42 -19 -24 16
-19 82 9 112 25 26 41 28 58 7z"/>
<path d="M4110 5353 c0 -5 7 -17 15 -27 13 -17 13 -22 -1 -38 -9 -9 -21 -15
-25 -12 -5 3 -9 -2 -9 -10 0 -21 29 -20 37 0 6 15 7 15 19 -1 15 -20 44 -14
44 10 0 9 -5 13 -11 9 -16 -9 -30 18 -17 33 6 7 17 13 24 13 8 0 14 7 14 15 0
18 -5 18 -30 5 -13 -7 -21 -7 -25 0 -7 12 -35 14 -35 3z"/>
<path d="M8424 5126 c-3 -13 -13 -27 -22 -31 -16 -6 -16 -7 1 -16 21 -13 23
-62 1 -83 -14 -15 -12 -16 23 -15 21 0 32 3 26 6 -19 7 -17 93 2 93 8 0 15 5
15 10 0 6 -7 10 -15 10 -8 0 -15 7 -15 16 0 12 6 15 26 10 19 -5 25 -3 22 6
-3 7 -16 14 -31 16 -21 3 -28 -2 -33 -22z"/>
<path d="M8541 5131 c-11 -11 -25 -38 -32 -61 -11 -36 -10 -45 10 -85 12 -25
29 -45 38 -45 12 0 10 7 -7 36 -26 42 -24 112 5 144 24 27 12 37 -14 11z"/>
<path d="M8718 5125 c27 -34 31 -135 7 -155 -17 -14 -20 -30 -5 -30 16 0 50
62 50 93 0 41 -25 94 -51 107 l-22 13 21 -28z"/>
<path d="M8110 5130 c-13 -8 -12 -10 3 -10 16 0 18 -8 16 -67 -2 -52 1 -69 12
-71 11 -2 13 12 11 78 -4 81 -10 91 -42 70z"/>
<path d="M7768 5078 c5 -7 11 -31 14 -54 3 -43 -9 -64 -37 -64 -8 0 -15 -4
-15 -10 0 -20 37 -9 63 18 24 25 25 30 16 75 -9 37 -15 47 -31 47 -15 0 -18
-3 -10 -12z"/>
<path d="M7839 5085 c-1 -6 -1 -17 0 -27 1 -9 -3 -19 -9 -23 -5 -3 -10 -11
-10 -16 0 -18 21 2 31 29 7 17 6 29 -1 36 -6 6 -10 6 -11 1z"/>
<path d="M8600 5080 c0 -5 4 -10 9 -10 13 0 20 -35 9 -54 -5 -9 -16 -16 -23
-16 -8 0 -15 -4 -15 -10 0 -15 26 -12 40 5 11 13 14 13 26 -2 12 -17 14 -17
31 1 17 17 17 18 1 13 -15 -5 -18 -1 -18 23 0 23 4 30 20 30 21 0 27 15 10 25
-6 4 -18 1 -27 -7 -13 -10 -17 -10 -20 0 -5 14 -43 17 -43 2z"/>
<path d="M7920 5062 c0 -4 27 -9 60 -10 36 -2 60 2 60 8 0 6 -26 10 -60 10
-33 0 -60 -4 -60 -8z"/>
<path d="M8248 5043 c17 -2 47 -2 65 0 17 2 3 4 -33 4 -36 0 -50 -2 -32 -4z"/>
<path d="M7925 5020 c3 -5 31 -10 61 -10 30 0 54 5 54 10 0 6 -27 10 -61 10
-37 0 -58 -4 -54 -10z"/>
<path d="M3998 4989 c-10 -5 -18 -18 -18 -29 0 -10 -6 -21 -12 -23 -10 -4 -10
-6 0 -6 16 -1 16 -73 0 -89 -9 -9 -5 -12 18 -12 29 0 29 1 25 46 -2 32 1 49
10 55 10 6 11 9 2 9 -7 0 -13 9 -13 20 0 22 10 26 27 9 8 -8 13 -7 18 1 4 7 1
16 -6 21 -18 11 -30 11 -51 -2z"/>
<path d="M4105 4974 c-45 -48 -28 -184 22 -184 14 0 13 3 -3 21 -14 16 -19 36
-19 84 0 48 5 68 19 84 11 12 16 21 12 21 -4 0 -18 -12 -31 -26z"/>
<path d="M3682 4981 c-11 -7 -11 -9 1 -14 23 -8 22 -113 -1 -126 -14 -9 -12
-10 13 -11 l30 0 -3 80 c-4 80 -10 91 -40 71z"/>
<path d="M4288 4967 c16 -17 22 -36 22 -70 0 -47 -16 -97 -32 -97 -4 0 -8 -5
-8 -10 0 -17 36 11 54 41 35 60 3 159 -52 159 -3 0 4 -10 16 -23z"/>
<path d="M3341 4931 c-8 -5 -9 -10 -3 -12 6 -2 12 -24 14 -49 3 -40 0 -46 -25
-58 -15 -7 -25 -17 -22 -22 6 -9 55 11 55 23 0 4 8 15 18 25 45 45 68 102 41
102 -6 0 -8 -8 -4 -19 8 -25 -24 -59 -36 -39 -5 7 -9 23 -9 36 0 24 -7 27 -29
13z"/>
<path d="M3495 4920 c-3 -5 0 -13 8 -16 23 -8 102 0 102 11 0 14 -102 19 -110
5z"/>
<path d="M4184 4914 c19 -18 19 -20 6 -45 -6 -10 -18 -19 -27 -19 -13 0 -14
-3 -5 -12 10 -9 16 -8 29 4 15 16 17 16 29 0 12 -16 14 -16 31 2 15 16 16 18
1 13 -10 -3 -18 1 -20 11 -7 24 1 42 18 42 8 0 14 5 14 10 0 14 -37 12 -43 -2
-4 -10 -6 -10 -6 0 -1 6 -10 12 -22 12 -19 0 -19 -1 -5 -16z"/>
<path d="M3818 4893 c17 -2 47 -2 65 0 17 2 3 4 -33 4 -36 0 -50 -2 -32 -4z"/>
<path d="M3495 4870 c3 -5 28 -10 55 -10 27 0 52 5 55 10 4 6 -17 10 -55 10
-38 0 -59 -4 -55 -10z"/>
<path d="M850 3577 c-33 -17 -48 -74 -30 -116 11 -28 17 -31 55 -31 30 0 47 6
61 21 20 23 17 23 -28 0 -25 -13 -30 -12 -48 4 -22 20 -26 65 -10 96 14 26 60
26 67 -1 7 -28 23 -25 23 4 0 16 -7 26 -22 30 -32 8 -40 7 -68 -7z"/>
<path d="M5431 3493 c-1 -38 -6 -69 -11 -71 -28 -10 -3 -17 50 -14 50 3 63 8
80 29 26 33 25 63 -1 97 -17 22 -29 26 -68 26 l-48 0 -2 -67z m87 37 c12 -12
22 -32 22 -45 0 -30 -32 -65 -60 -65 -18 0 -20 7 -20 65 0 56 2 65 18 65 10 0
28 -9 40 -20z"/>
<path d="M960 3446 c0 -10 9 -16 21 -16 24 0 21 23 -4 28 -10 2 -17 -3 -17
-12z"/>
<path d="M5590 3414 c0 -9 5 -14 12 -12 18 6 21 28 4 28 -9 0 -16 -7 -16 -16z"/>
<path d="M1478 3363 c7 -3 12 -25 12 -60 0 -46 -3 -56 -20 -60 -23 -6 -27 -23
-5 -23 19 0 105 109 105 133 0 9 -7 17 -15 17 -8 0 -12 -6 -9 -15 3 -8 -1 -24
-10 -37 -16 -22 -16 -22 -16 15 0 34 -2 37 -27 36 -16 0 -22 -3 -15 -6z"/>
<path d="M1630 3354 c0 -8 -11 -30 -24 -47 -26 -36 -38 -74 -26 -82 5 -3 11 3
15 14 3 11 13 25 22 33 15 12 16 -23 10 -442 -4 -250 -7 -539 -7 -642 l0 -188
-156 0 c-101 0 -153 -3 -149 -10 4 -6 67 -10 157 -10 l151 0 -7 -207 c-3 -115
-9 -553 -12 -975 -5 -575 -4 -768 5 -768 8 0 11 40 11 133 1 491 12 1685 16
1746 l6 73 45 -6 c25 -3 171 -6 324 -6 l279 0 23 -27 c85 -102 119 -128 202
-158 35 -13 107 -2 141 20 13 8 27 15 32 15 11 0 112 100 112 110 0 4 8 14 18
23 15 14 84 15 614 14 539 -2 594 -3 566 -17 -32 -15 -49 -40 -29 -40 21 0
121 62 121 75 0 24 -107 75 -123 58 -10 -10 13 -33 34 -33 10 0 20 -4 24 -9 3
-6 -61 -8 -162 -5 -93 2 -358 4 -591 4 l-422 0 12 23 c7 12 15 24 18 27 3 3
21 37 40 75 19 39 37 72 40 75 10 10 30 50 30 60 0 6 11 35 24 63 13 29 33 79
46 112 12 33 30 80 40 105 29 72 76 223 146 465 26 92 33 136 20 132 -6 -2
-15 -19 -19 -38 -5 -19 -20 -69 -33 -111 -13 -43 -24 -83 -24 -90 0 -7 -27
-94 -59 -193 -83 -250 -92 -276 -113 -313 -10 -18 -18 -38 -18 -44 0 -6 -11
-34 -24 -62 -13 -28 -25 -56 -27 -62 -2 -6 -30 -59 -63 -117 l-59 -107 -266 0
-267 0 -16 33 c-8 17 -34 68 -57 112 -22 44 -41 84 -41 89 0 5 -8 27 -19 50
-30 67 -62 149 -71 181 -4 17 -17 52 -29 78 -11 27 -21 56 -21 64 0 8 -9 43
-19 77 -11 33 -25 81 -32 106 -7 25 -16 50 -20 55 -4 6 -12 38 -18 70 -5 33
-16 79 -25 102 -8 23 -18 62 -21 87 -5 31 -12 46 -22 46 -11 0 -14 -6 -9 -22
3 -13 13 -52 22 -88 22 -95 59 -224 134 -470 13 -41 32 -94 42 -118 10 -24 22
-57 25 -75 3 -17 17 -49 29 -71 13 -23 24 -47 24 -53 0 -21 92 -206 113 -230
l20 -23 -323 0 -322 0 7 648 c4 356 9 649 11 651 2 2 7 -10 10 -27 6 -31 29
-60 40 -50 7 7 -59 148 -68 148 -5 0 -8 -7 -8 -16z m1170 -1389 c0 -13 -101
-110 -136 -131 -61 -36 -154 -34 -210 4 -41 27 -124 110 -124 125 0 4 106 7
235 7 129 0 235 -2 235 -5z"/>
<path d="M5990 3355 c0 -3 7 -16 16 -30 22 -34 15 -89 -13 -93 -24 -4 -38 -28
-21 -38 19 -12 124 126 114 151 -10 26 -25 16 -24 -15 1 -35 -18 -63 -26 -39
-3 8 -6 25 -8 39 -2 14 -11 26 -20 28 -10 2 -18 1 -18 -3z"/>
<path d="M6134 3307 c-26 -41 -48 -96 -41 -103 3 -3 17 14 31 38 l26 43 -5
-425 c-3 -234 -8 -597 -11 -807 l-6 -383 -154 0 c-96 0 -154 -4 -154 -10 0 -6
59 -10 156 -10 l156 0 -6 -567 c-4 -313 -9 -681 -12 -820 -4 -174 -2 -253 5
-258 6 -3 13 0 16 7 9 28 14 382 15 993 l0 640 398 -2 c218 -1 703 -4 1077 -7
374 -3 804 -6 955 -7 151 0 268 -3 260 -6 -31 -10 -60 -27 -60 -35 0 -15 34
-8 65 13 17 11 40 24 53 29 12 5 22 13 22 17 0 10 -110 63 -129 63 -11 0 -11
-3 -1 -15 7 -8 20 -15 29 -15 9 0 22 -4 29 -9 13 -8 -2661 -4 -2687 5 -11 4
-13 60 -7 342 3 185 7 531 8 767 1 237 5 443 8 459 l5 29 20 -36 c17 -32 35
-48 35 -32 0 12 -62 135 -68 135 -4 0 -16 -15 -28 -33z"/>
<path d="M6357 3173 c-3 -5 4 -35 15 -68 11 -33 31 -105 45 -160 13 -55 35
-136 49 -181 13 -44 24 -86 24 -93 0 -7 7 -27 15 -44 8 -18 25 -63 38 -102 58
-169 80 -222 145 -355 31 -63 59 -117 63 -120 3 -3 12 -16 19 -30 31 -60 99
-135 157 -174 49 -33 139 -45 197 -26 114 37 256 232 370 510 15 36 38 88 52
115 13 28 24 56 24 63 0 6 11 40 24 74 23 64 45 132 91 293 15 50 37 126 50
170 36 119 37 123 27 129 -10 6 -42 -68 -42 -94 0 -8 -11 -49 -24 -90 -13 -41
-34 -111 -46 -155 -41 -148 -123 -382 -151 -431 -10 -19 -19 -40 -19 -46 0
-18 -54 -134 -100 -213 -16 -27 -34 -61 -40 -75 -6 -13 -14 -27 -18 -30 -4 -3
-20 -25 -36 -50 -64 -98 -156 -160 -236 -160 -107 0 -226 112 -314 295 -15 33
-34 67 -41 75 -7 8 -16 26 -20 40 -3 14 -17 48 -30 75 -33 71 -65 158 -65 176
0 8 -9 34 -20 57 -11 23 -23 57 -27 75 -4 17 -17 59 -30 91 -13 33 -23 67 -23
75 0 8 -11 51 -24 95 -28 97 -45 162 -61 235 -11 51 -26 73 -38 54z"/>
<path d="M3618 2719 c-10 -5 -18 -18 -18 -29 0 -10 -6 -21 -12 -23 -10 -4 -10
-6 0 -6 16 -1 16 -73 0 -89 -9 -9 -4 -12 22 -11 19 0 29 3 23 6 -8 3 -13 23
-13 48 0 25 5 45 13 48 10 4 10 6 0 6 -18 1 -16 41 2 41 8 0 15 -5 15 -12 0
-9 3 -9 12 0 10 10 10 15 -2 22 -19 12 -21 12 -42 -1z"/>
<path d="M3728 2709 c-48 -36 -48 -145 1 -178 l24 -15 -17 31 c-22 44 -20 111
4 151 11 17 19 32 17 32 -1 0 -14 -10 -29 -21z"/>
<path d="M3890 2724 c0 -3 9 -17 20 -31 27 -34 27 -105 0 -143 -20 -28 -20
-28 0 -23 11 3 26 23 36 49 15 41 16 47 0 87 -8 23 -25 48 -36 55 -11 7 -20 9
-20 6z"/>
<path d="M8100 2686 c-5 -13 -15 -27 -22 -30 -10 -5 -10 -7 0 -12 15 -7 16
-76 0 -92 -9 -9 -3 -12 28 -11 21 0 33 3 27 6 -8 3 -13 23 -13 48 0 25 5 46
13 49 10 5 10 7 0 12 -14 6 -18 34 -5 34 4 0 13 -5 19 -11 8 -8 13 -7 18 1 4
7 1 16 -6 21 -25 16 -49 9 -59 -15z"/>
<path d="M8217 2684 c-41 -41 -40 -123 1 -166 14 -15 27 -26 29 -25 1 2 -6 21
-17 42 -11 22 -20 51 -20 65 0 14 9 43 20 65 11 21 18 40 16 42 -1 2 -15 -9
-29 -23z"/>
<path d="M8380 2702 c0 -5 9 -17 19 -26 11 -10 23 -31 26 -46 8 -36 -11 -106
-30 -114 -8 -3 -15 -10 -15 -16 0 -20 19 -9 46 25 36 48 36 100 -1 149 -26 34
-45 46 -45 28z"/>
<path d="M3240 2661 c0 -6 5 -13 10 -16 6 -3 10 -24 10 -45 0 -30 -6 -43 -27
-59 -22 -16 -24 -20 -10 -21 9 0 26 10 37 23 12 12 29 31 39 42 26 28 43 64
36 75 -10 16 -24 2 -18 -18 2 -10 -4 -26 -15 -36 -20 -17 -20 -16 -27 23 -4
25 -12 41 -21 41 -8 0 -14 -4 -14 -9z"/>
<path d="M3797 2664 c-3 -3 0 -15 6 -25 13 -21 -2 -56 -22 -51 -6 1 -11 -5
-11 -13 0 -18 12 -19 28 -3 10 10 17 10 31 1 14 -9 21 -9 30 0 16 16 14 27 -4
21 -11 -4 -15 0 -15 16 0 13 8 24 20 27 29 8 24 26 -5 21 -14 -3 -28 -1 -31 3
-6 10 -18 12 -27 3z"/>
<path d="M3400 2646 c0 -13 12 -16 55 -16 39 0 55 4 55 13 0 9 -17 14 -55 16
-44 2 -55 -1 -55 -13z"/>
<path d="M7720 2642 c0 -6 7 -13 16 -16 11 -4 14 -18 12 -53 -3 -41 -6 -48
-25 -51 -13 -2 -23 -10 -23 -18 0 -25 21 -15 62 29 45 48 71 93 63 107 -11 18
-27 10 -22 -9 3 -11 -3 -30 -12 -43 l-16 -23 -5 40 c-4 32 -9 41 -27 43 -13 2
-23 -1 -23 -6z"/>
<path d="M8290 2641 c0 -6 4 -12 9 -15 5 -3 12 -21 15 -41 8 -41 21 -51 42
-34 14 11 13 14 -6 21 -15 6 -21 14 -17 27 2 10 0 26 -5 35 -10 17 -38 22 -38
7z"/>
<path d="M8347 2643 c-12 -11 -8 -23 8 -23 8 0 15 7 15 15 0 16 -12 20 -23 8z"/>
<path d="M7918 2623 c17 -2 47 -2 65 0 17 2 3 4 -33 4 -36 0 -50 -2 -32 -4z"/>
<path d="M3400 2600 c0 -5 25 -10 55 -10 30 0 55 5 55 10 0 6 -25 10 -55 10
-30 0 -55 -4 -55 -10z"/>
<path d="M7918 2583 c17 -2 47 -2 65 0 17 2 3 4 -33 4 -36 0 -50 -2 -32 -4z"/>
<path d="M8283 2569 c-25 -9 -31 -29 -9 -29 14 0 42 27 35 34 -2 2 -14 0 -26
-5z"/>
<path d="M1424 1856 c-56 -56 -40 -136 28 -136 38 0 88 64 88 112 -1 64 -63
77 -116 24z m92 -1 c4 -8 -4 -36 -17 -62 -24 -49 -54 -66 -71 -41 -12 18 0 79
19 101 20 21 62 22 69 2z"/>
<path d="M4046 1861 c-3 -5 1 -11 9 -15 23 -8 19 -53 -5 -59 -11 -3 -20 -12
-20 -21 0 -20 9 -20 32 0 16 16 18 16 24 0 8 -22 21 -20 35 5 7 13 7 19 1 15
-6 -3 -14 3 -17 15 -6 17 -1 27 16 40 13 10 20 21 16 25 -4 4 -15 0 -26 -10
-16 -15 -19 -15 -24 -1 -7 16 -32 20 -41 6z"/>
<path d="M5948 1532 c-34 -21 -56 -82 -40 -117 10 -21 18 -25 55 -25 36 0 46
4 57 25 7 14 17 25 22 25 4 0 8 20 8 45 0 34 -5 47 -19 55 -26 14 -51 11 -83
-8z m75 -15 c17 -45 -39 -128 -77 -114 -23 9 -20 69 5 101 22 28 63 35 72 13z"/>
<path d="M2479 1528 c-22 -6 -58 -30 -90 -62 -61 -59 -99 -101 -99 -109 0 -3
-16 -29 -36 -58 -19 -29 -51 -87 -71 -129 -19 -41 -43 -93 -53 -115 -36 -75
-62 -140 -80 -195 -10 -30 -24 -71 -30 -90 -48 -138 -66 -193 -133 -420 -29
-98 -41 -170 -29 -170 5 0 17 30 26 68 10 37 27 94 38 127 10 33 23 78 27 101
4 22 17 65 28 95 28 73 63 184 63 198 0 6 11 34 25 63 14 28 25 58 25 67 0 8
10 35 21 60 12 25 30 66 41 91 64 142 110 229 152 285 83 109 121 144 184 168
23 9 59 17 80 17 46 0 117 -32 149 -66 51 -55 183 -262 183 -286 0 -6 9 -22
19 -37 11 -15 27 -45 35 -67 8 -21 28 -75 44 -119 17 -44 42 -111 57 -150 15
-38 31 -88 36 -110 5 -22 18 -67 29 -100 34 -108 59 -199 74 -270 15 -75 44
-151 53 -142 7 7 -12 90 -43 192 -13 44 -24 88 -24 98 0 10 -9 43 -20 75 -12
31 -25 75 -30 97 -4 22 -25 85 -45 140 -20 55 -41 117 -46 137 -5 21 -18 52
-29 70 -11 18 -20 39 -20 46 0 19 -135 289 -151 302 -3 3 -17 23 -31 45 -88
140 -194 189 -329 153z"/>
<path d="M7930 1495 c-60 -30 -154 -134 -217 -240 -48 -82 -183 -375 -183
-398 0 -5 -11 -35 -24 -66 -24 -56 -90 -263 -141 -441 -15 -52 -34 -115 -41
-139 -16 -52 -17 -61 -5 -61 11 0 36 66 60 160 10 41 26 100 36 130 9 30 28
93 41 140 26 84 38 118 55 152 5 10 9 25 9 33 0 8 11 38 25 67 14 28 25 58 25
65 0 7 10 35 21 61 12 26 33 72 46 102 13 30 28 62 34 70 5 8 19 34 30 57 11
23 25 48 32 55 7 7 24 31 37 53 32 51 46 69 97 121 60 62 99 77 182 72 65 -3
71 -6 126 -52 31 -27 59 -56 62 -65 3 -9 15 -26 25 -37 23 -26 44 -63 101
-174 24 -47 48 -94 54 -105 16 -29 39 -90 67 -170 13 -38 37 -108 54 -155 17
-47 31 -93 32 -104 0 -10 11 -50 25 -88 14 -38 25 -78 25 -89 0 -11 11 -54 25
-95 14 -41 25 -83 25 -92 0 -30 31 -112 42 -112 6 0 8 10 4 23 -4 12 -11 42
-16 68 -5 25 -16 65 -24 90 -9 24 -16 50 -16 58 0 8 -12 53 -26 100 -80 269
-88 293 -138 423 -14 36 -26 71 -26 78 0 11 -73 161 -122 250 -29 54 -77 128
-98 151 -65 72 -83 89 -122 108 -59 28 -137 27 -198 -4z"/>
<path d="M8850 1511 c0 -6 5 -13 10 -16 17 -11 11 -43 -12 -59 -12 -9 -19 -19
-15 -22 4 -4 15 1 26 10 18 17 20 17 29 0 9 -15 13 -16 26 -5 9 7 16 18 16 23
0 6 -7 5 -15 -2 -13 -10 -15 -9 -16 9 -1 11 -3 26 -4 31 -1 6 -3 17 -4 25 -1
16 -41 21 -41 6z"/>
<path d="M8900 1505 c0 -8 9 -15 20 -15 11 0 20 7 20 15 0 8 -9 15 -20 15 -11
0 -20 -7 -20 -15z"/>
<path d="M3586 879 c-3 -8 -6 -44 -8 -82 -3 -65 -2 -67 21 -67 19 0 21 2 11
15 -7 9 -11 37 -8 74 3 56 -6 90 -16 60z"/>
<path d="M3890 883 c0 -5 -10 -20 -21 -32 -16 -17 -19 -25 -9 -31 8 -5 11 -23
8 -49 -3 -38 -2 -41 20 -41 20 0 22 2 12 15 -15 18 -4 75 16 75 22 0 17 17 -7
23 -24 7 -16 29 9 25 10 -1 19 2 22 7 3 6 -7 11 -22 13 -16 2 -28 -1 -28 -5z"/>
<path d="M3998 873 c-30 -36 -40 -78 -28 -121 11 -41 33 -72 52 -72 5 0 0 15
-11 34 -26 42 -27 101 -1 144 21 34 13 44 -12 15z"/>
<path d="M4170 887 c0 -4 8 -23 19 -42 22 -42 18 -97 -11 -137 -16 -23 -17
-28 -4 -28 37 0 65 86 47 143 -10 30 -51 81 -51 64z"/>
<path d="M6731 837 c-6 -8 -8 -17 -4 -20 8 -9 7 -112 -2 -126 -4 -7 6 -11 26
-11 26 0 30 3 21 12 -7 7 -12 42 -12 85 0 72 -7 86 -29 60z"/>
<path d="M7035 830 c-13 -14 -18 -37 -19 -85 l-1 -65 30 1 c17 0 24 3 18 6 -8
3 -13 23 -13 48 0 25 5 46 13 49 10 5 10 7 0 12 -7 3 -13 12 -13 20 0 10 7 13
25 8 19 -5 25 -2 25 10 0 23 -43 20 -65 -4z"/>
<path d="M7141 819 c-34 -46 -37 -90 -11 -138 23 -40 50 -61 50 -38 0 7 -10
21 -21 31 -18 15 -21 26 -17 76 3 47 9 63 29 79 17 15 20 20 8 21 -8 0 -25
-14 -38 -31z"/>
<path d="M7322 833 c9 -10 21 -35 28 -56 13 -42 3 -86 -27 -119 -27 -30 -10
-29 25 1 29 26 32 34 32 83 0 46 -4 58 -28 81 -31 30 -54 37 -30 10z"/>
<path d="M3227 818 c30 -38 21 -124 -12 -112 -9 4 -15 0 -15 -10 0 -29 27 -16
66 32 21 26 42 49 46 50 12 6 9 52 -3 52 -6 0 -9 -6 -6 -14 3 -7 -2 -24 -11
-37 l-17 -24 -5 35 c-4 28 -10 36 -30 38 -19 3 -22 1 -13 -10z"/>
<path d="M4074 814 c9 -8 16 -19 16 -24 0 -22 -14 -40 -31 -40 -10 0 -19 -4
-19 -10 0 -17 40 -11 47 7 5 14 8 13 15 -6 6 -18 11 -20 28 -11 25 13 26 32 3
28 -13 -2 -18 4 -18 22 0 18 6 26 23 28 27 4 29 22 2 22 -11 0 -20 -5 -20 -12
0 -9 -3 -9 -12 0 -7 7 -20 12 -31 12 -17 0 -17 -1 -3 -16z"/>
<path d="M3385 811 c-4 -7 16 -11 61 -11 80 0 80 5 2 14 -36 5 -58 3 -63 -3z"/>
<path d="M3680 790 c0 -6 27 -10 60 -10 33 0 60 4 60 10 0 6 -27 10 -60 10
-33 0 -60 -4 -60 -10z"/>
<path d="M6386 790 c-18 -6 -18 -7 -2 -13 14 -5 16 -17 14 -54 -3 -41 -6 -48
-25 -51 -15 -2 -23 -10 -23 -23 0 -10 3 -19 8 -19 7 0 43 39 92 99 23 28 26
61 6 61 -9 0 -12 -7 -10 -17 3 -10 -2 -27 -10 -38 -15 -20 -15 -19 -16 5 -2
42 -13 58 -34 50z"/>
<path d="M7222 778 c26 -20 26 -51 1 -63 -13 -5 -23 -15 -23 -22 0 -19 27 -16
39 5 10 16 10 16 11 0 0 -25 36 -23 43 1 3 14 1 18 -9 14 -21 -8 -18 44 3 56
10 5 15 13 11 17 -4 4 -15 1 -24 -7 -13 -11 -18 -11 -21 -1 -3 6 -14 12 -26
12 -19 0 -19 -1 -5 -12z"/>
<path d="M3384 768 c-3 -5 25 -7 63 -7 73 1 68 6 -10 11 -27 2 -51 0 -53 -4z"/>
<path d="M6540 770 c0 -5 25 -10 55 -10 30 0 55 5 55 10 0 6 -25 10 -55 10
-30 0 -55 -4 -55 -10z"/>
<path d="M6830 743 c0 -9 17 -13 60 -13 43 0 60 4 60 13 0 10 -17 13 -60 13
-43 0 -60 -4 -60 -13z"/>
<path d="M6540 730 c0 -5 25 -10 55 -10 30 0 55 5 55 10 0 6 -25 10 -55 10
-30 0 -55 -4 -55 -10z"/>
</g>
</svg>
