<?xml version="1.0" standalone="no"?>
<!DOCTYPE svg PUBLIC "-//W3C//DTD SVG 20010904//EN"
 "http://www.w3.org/TR/2001/REC-SVG-20010904/DTD/svg10.dtd">
<svg version="1.0" xmlns="http://www.w3.org/2000/svg"
 width="1365.000000pt" height="676.000000pt" viewBox="0 0 1365.000000 676.000000"
 preserveAspectRatio="xMidYMid meet">
<metadata>
Created by potrace 1.16, written by Peter Selinger 2001-2019
</metadata>
<g transform="translate(0.000000,676.000000) scale(0.100000,-0.100000)"
fill="#000000" stroke="none">
<path d="M1640 6498 c1 -13 2 -48 1 -79 -1 -61 -9 -70 -54 -62 -24 5 -27 10
-27 44 0 36 1 38 38 42 l37 4 -37 1 c-21 1 -38 7 -38 12 0 6 -4 10 -10 10 -6
0 -10 -32 -10 -77 0 -60 3 -74 12 -65 7 7 29 12 50 12 l38 0 0 -56 c0 -74 24
-70 28 6 l3 53 55 -6 54 -6 0 64 c0 35 -4 67 -10 70 -5 3 -10 1 -10 -4 0 -6
-20 -11 -46 -11 l-47 0 6 35 c5 30 3 35 -14 35 -15 0 -20 -6 -19 -22z m108
-100 c-3 -44 -9 -47 -70 -39 -5 1 -8 19 -8 41 l0 40 41 0 40 0 -3 -42z"/>
<path d="M1200 6378 l0 -133 127 2 127 1 3 129 4 128 -131 3 -130 2 0 -132z
m230 2 c0 -91 -3 -110 -15 -110 -11 0 -15 13 -15 53 0 30 3 57 7 61 4 3 8 13
9 20 1 10 -8 13 -37 9 -25 -4 -39 -2 -39 6 0 6 9 11 20 11 11 0 20 4 20 9 0 5
3 16 6 25 5 13 -3 16 -49 16 -31 0 -58 -4 -61 -8 -10 -16 6 -51 20 -45 8 3 14
0 14 -6 0 -7 -15 -11 -40 -9 -39 2 -40 3 -40 40 l0 38 100 0 100 0 0 -110z
m-70 70 c0 -5 -13 -10 -30 -10 -16 0 -30 5 -30 10 0 6 14 10 30 10 17 0 30 -4
30 -10z m-102 -118 c3 -51 1 -62 -12 -62 -13 0 -16 12 -16 66 0 48 3 65 13 62
7 -3 13 -28 15 -66z m32 3 c0 -19 -4 -35 -10 -35 -5 0 -10 16 -10 35 0 19 5
35 10 35 6 0 10 -16 10 -35z m50 25 c0 -5 -7 -7 -15 -4 -8 4 -15 8 -15 10 0 2
7 4 15 4 8 0 15 -4 15 -10z m50 -19 c0 -17 -5 -33 -11 -36 -15 -10 -17 -4 -12
33 6 40 23 42 23 3z m-50 -11 c0 -5 -7 -10 -15 -10 -8 0 -15 5 -15 10 0 6 7
10 15 10 8 0 15 -4 15 -10z m23 -57 c-18 -2 -48 -2 -65 0 -18 2 -4 4 32 4 36
0 50 -2 33 -4z"/>
<path d="M2995 6499 c-33 -5 -68 -8 -77 -5 -11 2 -18 -5 -23 -23 -4 -14 -14
-34 -22 -44 -20 -21 -10 -35 12 -17 12 10 15 10 16 -1 5 -44 -5 -98 -22 -128
-21 -35 -19 -52 4 -33 8 7 17 8 23 2 14 -14 32 2 39 35 l7 30 -21 -25 c-24
-30 -35 -24 -18 10 11 22 20 25 78 28 l66 3 6 -31 c7 -33 27 -41 27 -10 0 11
-4 20 -10 20 -5 0 -10 5 -10 10 0 6 9 10 20 10 20 0 26 -22 14 -54 -10 -26
-51 -20 -58 9 -5 21 -26 36 -26 19 0 -18 36 -63 54 -68 24 -7 56 25 56 55 0
10 5 21 10 24 19 12 -8 44 -31 38 -19 -5 -20 -4 -9 16 10 19 9 23 -8 28 -13 3
-18 11 -15 27 4 19 1 22 -19 21 -32 -3 -48 4 -48 21 0 9 11 14 30 14 25 0 35
-7 53 -37 20 -35 22 -36 25 -15 2 13 -3 31 -11 40 -8 9 -12 23 -10 30 5 14
-13 14 -102 1z m-5 -39 c0 -5 -6 -11 -12 -12 -36 -4 -44 -4 -51 0 -4 2 -5 8
-2 13 8 12 65 12 65 -1z m58 -52 c-3 -7 -10 -13 -16 -12 -7 1 -30 2 -52 3 -62
2 -47 21 16 21 40 0 55 -3 52 -12z m22 -43 c0 -12 -14 -15 -70 -15 -64 0 -81
6 -63 23 3 4 35 7 70 7 49 0 63 -3 63 -15z"/>
<path d="M3203 6373 l-2 -138 130 0 129 0 0 122 c0 88 3 123 13 126 23 10 -15
26 -47 20 -43 -9 -189 -9 -206 0 -13 6 -15 -12 -17 -130z m61 11 l-7 -96 24 5
c20 5 19 4 -3 -5 -16 -7 -28 -15 -28 -20 0 -4 -4 -8 -10 -8 -6 0 -10 43 -10
110 0 104 1 110 20 110 20 0 20 -4 14 -96z m99 89 c-13 -2 -35 -2 -50 0 -16 2
-5 4 22 4 28 0 40 -2 28 -4z m74 -100 c2 -57 -2 -105 -7 -108 -14 -9 -23 39
-18 96 3 27 1 49 -3 49 -5 0 -9 16 -9 36 0 28 3 35 18 32 15 -3 17 -17 19
-105z m-57 41 c0 -2 -19 -3 -42 -3 -39 1 -41 2 -13 8 28 7 55 4 55 -5z m-12
-31 c-15 -2 -42 -2 -60 0 -18 2 -6 4 27 4 33 0 48 -2 33 -4z m-8 -23 c0 -5 -4
-10 -10 -10 -5 0 -10 5 -10 10 0 6 5 10 10 10 6 0 10 -4 10 -10z m-47 -7 c-7
-2 -19 -2 -25 0 -7 3 -2 5 12 5 14 0 19 -2 13 -5z m77 -23 c0 -5 -22 -10 -50
-10 -27 0 -50 5 -50 10 0 6 23 10 50 10 28 0 50 -4 50 -10z m-30 -38 c0 -5 10
-14 23 -20 18 -9 11 -11 -43 -10 -36 0 -55 3 -42 5 13 3 26 11 29 19 6 15 33
20 33 6z"/>
<path d="M4884 6484 c-5 -21 -11 -24 -30 -20 l-24 6 0 -110 c0 -100 7 -129 25
-100 3 6 19 10 36 10 16 0 29 -4 29 -10 0 -5 5 -10 10 -10 6 0 10 26 10 59 0
52 3 62 33 95 25 27 41 36 65 36 l32 0 0 -74 c0 -97 -4 -106 -48 -106 -46 0
-29 -21 19 -23 38 -2 42 6 57 118 5 39 10 77 13 85 3 12 -8 16 -49 18 -46 3
-52 5 -41 18 9 11 9 18 1 26 -12 12 -32 2 -32 -17 0 -7 -11 -33 -25 -56 l-26
-44 3 40 c3 37 1 40 -22 37 -19 -2 -22 0 -12 10 17 17 15 38 -3 38 -8 0 -18
-12 -21 -26z m36 -74 c0 -27 -3 -30 -30 -30 -25 0 -30 4 -30 23 0 30 7 37 37
37 19 0 23 -5 23 -30z m0 -85 c0 -32 -2 -35 -30 -35 -28 0 -30 3 -30 35 0 32
2 35 30 35 28 0 30 -3 30 -35z"/>
<path d="M5640 6494 c0 -13 -12 -15 -72 -13 -93 3 -95 -14 -3 -21 42 -3 68 -9
65 -15 -3 -5 -15 -10 -27 -10 -22 1 -23 -3 -23 -87 0 -74 -3 -88 -16 -88 -13
0 -15 12 -12 78 3 76 2 77 -22 80 -20 3 -23 1 -12 -9 15 -16 17 -149 2 -149
-13 0 -13 -27 1 -36 6 -3 16 -1 22 5 7 7 56 11 130 11 91 0 118 3 114 13 -2 6
-17 11 -32 10 l-28 -2 5 90 c5 82 -1 115 -17 89 -10 -16 -45 -12 -45 5 0 12
13 15 60 15 44 0 60 4 60 14 0 11 -15 13 -67 10 -38 -2 -62 -1 -55 2 19 9 14
24 -8 24 -11 0 -20 -7 -20 -16z m70 -94 c0 -5 -25 -10 -55 -10 -30 0 -55 5
-55 10 0 6 25 10 55 10 30 0 55 -4 55 -10z m0 -40 c0 -5 -25 -10 -55 -10 -30
0 -55 5 -55 10 0 6 25 10 55 10 30 0 55 -4 55 -10z m0 -45 c0 -12 -13 -15 -56
-15 -49 0 -55 2 -44 15 8 9 30 15 56 15 32 0 44 -4 44 -15z m0 -45 c0 -5 -25
-10 -55 -10 -30 0 -55 5 -55 10 0 6 25 10 55 10 30 0 55 -4 55 -10z"/>
<path d="M5867 6465 c-48 -57 -33 -67 21 -13 23 23 42 36 42 31 0 -6 10 -13
21 -16 l21 -6 -22 -31 c-20 -28 -21 -34 -9 -57 14 -26 35 -40 46 -29 3 3 -1
14 -10 24 -10 10 -17 25 -17 33 1 14 44 69 54 69 8 0 -14 -54 -24 -60 -10 -6
27 -70 41 -70 14 0 11 22 -7 41 -15 17 -15 20 5 47 11 16 18 32 14 36 -3 3 1
6 10 6 10 0 17 -2 17 -5 0 -13 -25 -55 -33 -55 -5 0 3 -16 17 -35 15 -19 24
-40 21 -45 -3 -6 -38 -10 -76 -10 -47 0 -68 -4 -64 -11 4 -6 19 -7 36 -4 27 6
29 5 29 -24 0 -30 -1 -31 -46 -31 -25 0 -43 -3 -40 -8 2 -4 52 -8 111 -10 84
-2 106 0 103 10 -4 9 -20 12 -51 10 -45 -3 -47 -2 -47 22 0 23 4 26 34 26 19
0 37 3 39 8 9 15 -6 72 -19 72 -19 0 -18 34 1 50 8 7 15 19 15 26 0 8 5 14 11
14 6 0 9 6 6 13 -3 9 -28 11 -94 9 -59 -3 -93 0 -97 7 -11 17 -19 13 -59 -34z"/>
<path d="M6710 6488 c0 -16 -6 -19 -32 -16 -18 2 -35 -1 -38 -7 -3 -5 11 -11
30 -13 19 -2 39 -10 43 -18 4 -8 14 -14 22 -14 9 0 12 -6 9 -15 -5 -11 -21
-15 -61 -15 -33 0 -52 -4 -48 -10 3 -5 22 -10 41 -10 45 0 44 -18 -6 -66 -21
-21 -38 -40 -36 -41 6 -6 56 20 56 29 0 4 3 8 8 8 4 0 8 -16 8 -35 2 -42 10
-53 26 -37 16 16 125 16 131 0 7 -22 14 -5 20 49 l6 52 -64 -6 c-81 -7 -100
-1 -83 27 11 17 23 20 96 20 63 0 83 3 79 13 -3 8 -24 11 -75 9 -68 -4 -70 -3
-65 17 4 15 1 21 -11 21 -9 0 -16 5 -16 10 0 6 11 10 25 10 18 0 25 -5 25 -20
0 -11 4 -20 10 -20 5 0 14 9 20 20 7 14 21 20 45 20 18 0 37 5 41 11 9 15 -18
31 -30 19 -18 -18 -53 -11 -59 10 -3 11 -10 20 -16 20 -6 0 -11 -9 -11 -20 0
-15 -7 -20 -25 -20 -15 0 -25 6 -25 14 0 7 -9 16 -20 19 -15 4 -20 0 -20 -15z
m148 -210 c-3 -23 -13 -25 -110 -19 -11 1 -18 9 -18 21 0 18 7 20 66 20 62 0
65 -1 62 -22z"/>
<path d="M337 6482 c-19 -21 -22 -42 -7 -42 6 0 10 4 10 9 0 17 39 19 54 2 19
-21 20 -38 4 -56 -28 -28 -48 -56 -48 -64 0 -5 -7 -14 -15 -21 -28 -23 -15
-31 47 -28 50 2 63 6 66 20 3 16 -2 17 -42 12 -28 -4 -46 -3 -46 3 0 5 18 26
40 47 31 29 40 44 40 70 0 56 -68 87 -103 48z"/>
<path d="M501 6481 c-21 -16 -26 -30 -29 -83 -3 -53 -1 -67 18 -90 15 -19 31
-28 51 -28 25 0 33 6 45 35 21 52 18 127 -7 159 -24 31 -45 33 -78 7z m64 -53
c8 -55 -6 -123 -25 -123 -23 0 -41 46 -37 92 8 79 52 101 62 31z"/>
<path d="M9640 6375 l0 -125 -25 0 c-14 0 -25 -3 -25 -7 0 -12 53 -34 61 -26
4 5 9 62 12 127 4 77 10 121 18 126 8 6 6 11 -9 19 -11 6 -23 11 -26 11 -3 0
-6 -56 -6 -125z"/>
<path d="M2452 6478 c-7 -7 -12 -16 -12 -21 0 -12 -122 -167 -132 -167 -5 0
-6 -4 -3 -10 11 -18 45 -11 45 8 0 25 31 52 58 52 26 0 31 -37 7 -46 -8 -4
-12 -10 -9 -15 7 -12 74 -11 74 1 0 6 -5 10 -11 10 -11 0 -5 139 7 183 6 20
-6 23 -24 5z m-22 -98 c0 -11 -7 -20 -15 -20 -13 0 -13 3 -3 20 7 11 14 20 15
20 2 0 3 -9 3 -20z"/>
<path d="M2595 6478 c-38 -12 -75 -65 -82 -117 -5 -33 -1 -44 20 -65 31 -30
89 -35 125 -10 34 24 26 36 -13 17 -27 -13 -42 -14 -63 -7 -25 9 -27 14 -27
62 1 43 6 57 30 82 34 36 77 38 83 5 7 -38 21 -39 37 -2 8 20 15 39 15 42 0 9
-93 4 -125 -7z"/>
<path d="M3820 6482 c0 -5 -23 -37 -51 -72 -28 -35 -55 -75 -60 -88 -5 -13
-18 -26 -29 -29 -30 -8 -24 -23 10 -23 25 0 30 4 30 23 0 29 18 47 46 47 33 0
37 -14 13 -44 l-20 -26 46 0 c41 0 46 2 35 15 -9 10 -10 40 -5 110 5 68 4 95
-4 95 -6 0 -11 -4 -11 -8z m-20 -102 c0 -13 -7 -20 -20 -20 -18 0 -19 2 -8 20
7 11 16 20 20 20 5 0 8 -9 8 -20z"/>
<path d="M3926 6467 c8 -27 -26 -154 -48 -177 -19 -20 -18 -20 45 -20 78 0
117 24 117 71 0 16 -5 29 -10 29 -6 0 -1 13 11 30 19 25 21 34 11 54 -9 21
-19 25 -71 28 -55 3 -60 1 -55 -15z m88 -29 c8 -14 6 -21 -9 -32 -11 -9 -27
-16 -37 -16 -16 0 -16 13 -2 58 5 18 34 11 48 -10z m-26 -81 c16 -18 -8 -61
-36 -65 -24 -4 -25 0 -16 47 7 33 32 42 52 18z"/>
<path d="M4144 6474 c-65 -34 -90 -83 -76 -150 7 -34 13 -41 46 -51 46 -16 77
-9 107 23 25 26 15 32 -15 9 -47 -35 -106 -6 -106 52 0 39 38 95 74 108 24 8
31 6 46 -13 10 -12 20 -28 23 -35 7 -19 15 -5 19 31 3 33 2 34 -43 37 -28 3
-56 -2 -75 -11z"/>
<path d="M4300 6482 c0 -3 8 -10 17 -17 14 -10 15 -16 5 -27 -6 -8 -19 -43
-28 -79 -8 -35 -23 -70 -32 -76 -13 -11 -4 -13 52 -13 104 0 166 48 166 130 0
39 -39 79 -77 81 -15 1 -45 3 -65 4 -21 1 -38 0 -38 -3z m128 -50 c38 -53 -3
-129 -75 -139 l-41 -5 10 43 c6 24 14 49 18 54 4 6 11 25 15 43 9 42 45 44 73
4z"/>
<path d="M4520 6479 c0 -4 7 -10 16 -13 9 -4 12 -11 7 -18 -4 -7 -9 -17 -10
-23 -26 -100 -37 -132 -51 -142 -13 -11 -1 -13 70 -13 89 0 98 5 98 47 0 11
-6 10 -26 -6 -15 -12 -41 -21 -61 -21 -30 0 -34 3 -29 20 3 11 9 29 12 40 7
25 40 26 53 3 8 -15 11 -12 19 17 11 42 10 45 -17 29 -26 -17 -34 -8 -26 30 5
25 12 31 34 31 15 0 32 -5 39 -12 9 -9 15 -9 24 0 8 8 8 15 3 21 -11 11 -155
19 -155 10z"/>
<path d="M9407 6385 c2 -85 4 -100 18 -99 13 2 14 -1 3 -15 -7 -9 -19 -20 -25
-24 -7 -4 -13 -17 -13 -27 0 -16 6 -13 38 15 20 19 40 35 45 35 15 0 7 19 -10
23 -10 3 -2 5 17 6 25 0 31 -2 20 -9 -12 -8 -12 -11 3 -28 9 -10 17 -24 17
-30 0 -7 5 -12 10 -12 13 0 13 37 0 45 -6 4 -7 12 -3 18 4 7 9 55 10 107 l2
95 -67 0 -67 0 2 -100z m103 57 c0 -14 -7 -18 -28 -17 -61 4 -72 35 -12 35 32
0 40 -4 40 -18z m0 -52 c0 -16 -7 -20 -34 -20 -38 0 -57 17 -35 31 8 5 26 9
42 9 20 0 27 -5 27 -20z m0 -56 c0 -20 -5 -24 -28 -24 -29 0 -52 16 -52 35 0
6 18 11 40 12 36 2 40 0 40 -23z"/>
<path d="M7562 6455 c-6 -13 -41 -63 -77 -110 -62 -81 -65 -85 -40 -85 18 0
25 5 25 18 0 23 30 52 53 52 20 0 23 -40 5 -58 -9 -9 -4 -12 23 -12 l34 0 1
110 c1 61 -2 110 -6 110 -4 0 -12 -11 -18 -25z m-16 -90 c-3 -8 -10 -15 -15
-15 -7 0 -6 10 1 26 12 26 25 16 14 -11z"/>
<path d="M7277 6372 c-53 -53 -97 -101 -97 -105 0 -4 45 -7 100 -7 60 0 100 4
100 10 0 6 -32 10 -77 10 l-77 0 50 53 c88 93 106 115 103 126 -2 6 -48 -33
-102 -87z"/>
<path d="M7669 6461 c12 -8 11 -22 -8 -92 -13 -46 -30 -89 -39 -96 -14 -10 -5
-12 56 -13 86 0 104 8 137 60 32 50 31 75 -1 117 -24 32 -28 33 -92 33 -44 0
-62 -3 -53 -9z m109 -23 c7 -7 12 -34 12 -60 0 -62 -31 -98 -84 -98 -30 0 -34
3 -29 23 10 46 36 122 46 135 12 15 39 16 55 0z"/>
<path d="M7889 6461 c11 -7 9 -23 -8 -91 -12 -47 -28 -88 -38 -96 -16 -11 -6
-13 68 -14 90 0 99 4 99 48 0 12 -4 11 -23 -6 -26 -25 -99 -32 -93 -9 3 6 7
24 10 40 7 29 46 40 46 12 0 -23 17 -18 24 8 10 38 8 53 -6 39 -14 -14 -48
-16 -48 -3 0 5 4 21 10 35 7 20 16 26 40 26 18 0 33 -6 36 -15 9 -24 24 -17
24 10 0 25 -1 25 -77 25 -47 0 -73 -4 -64 -9z"/>
<path d="M8369 6454 c-15 -19 -21 -44 -9 -44 4 0 13 7 20 15 16 19 44 19 60 0
18 -22 -4 -70 -57 -123 l-43 -43 72 3 c45 2 71 7 68 13 -3 6 -21 10 -41 10
l-37 0 28 35 c15 19 35 49 43 66 16 30 15 33 -4 58 -24 30 -78 36 -100 10z"/>
<path d="M8544 6462 c-20 -12 -24 -46 -10 -73 11 -22 11 -29 0 -44 -31 -42 -4
-95 49 -95 51 0 73 52 41 98 -15 21 -15 25 0 41 22 24 12 67 -17 75 -29 8 -50
7 -63 -2z m56 -48 c0 -15 -6 -24 -15 -24 -21 0 -30 27 -15 45 16 19 30 10 30
-21z m0 -121 c0 -13 -6 -23 -14 -23 -23 0 -37 26 -30 55 6 25 7 25 25 9 11 -9
19 -28 19 -41z"/>
<path d="M8676 6448 c-31 -44 -10 -78 47 -78 26 0 37 16 37 54 0 47 -57 63
-84 24z m62 -22 c6 -29 -15 -43 -35 -24 -14 14 -14 20 -3 33 16 19 34 15 38
-9z"/>
<path d="M9578 6395 c-1 -41 -2 -82 -2 -92 -1 -9 5 -18 12 -20 9 -4 12 17 12
81 0 54 4 86 11 86 5 0 7 5 4 10 -3 6 -13 10 -21 10 -11 0 -14 -17 -16 -75z"/>
<path d="M10033 6365 c-57 -58 -103 -107 -103 -110 0 -3 50 -5 110 -5 91 0
110 3 110 15 0 12 -14 15 -80 12 -44 -2 -80 0 -80 3 0 3 36 41 80 85 71 71 95
105 73 105 -5 0 -54 -47 -110 -105z"/>
<path d="M10260 6463 c-45 -16 -90 -83 -90 -131 0 -67 84 -104 149 -66 31 18
40 34 21 34 -6 0 -22 -7 -36 -16 -19 -13 -32 -15 -57 -7 -31 9 -32 11 -32 61
1 43 6 57 30 82 40 42 81 41 99 -1 14 -34 20 -31 31 19 l7 32 -54 -1 c-29 0
-60 -3 -68 -6z"/>
<path d="M10420 6461 c0 -6 5 -13 10 -16 7 -4 7 -11 2 -18 -5 -7 -17 -45 -27
-84 -12 -44 -24 -73 -32 -73 -7 0 -13 -5 -13 -11 0 -20 135 -7 159 15 22 20
28 70 10 82 -6 3 -7 9 -3 13 5 3 17 15 27 27 17 20 16 22 -7 47 -21 22 -34 27
-76 27 -27 0 -50 -4 -50 -9z m84 -17 c33 -13 11 -64 -26 -64 -15 0 -17 5 -12
28 11 44 13 46 38 36z m-4 -123 c0 -30 -14 -41 -55 -41 -19 0 -22 4 -18 23 9
33 23 47 49 47 20 0 24 -5 24 -29z"/>
<path d="M10606 6461 c-4 -5 -1 -11 5 -13 14 -5 -19 -154 -38 -174 -23 -22
-15 -25 64 -22 74 3 78 4 91 31 17 36 6 49 -16 20 -9 -12 -34 -25 -54 -28 -41
-8 -46 0 -32 53 8 27 54 32 54 5 0 -25 11 -9 20 31 8 38 1 46 -20 21 -22 -26
-41 -19 -34 13 4 15 11 33 17 40 13 17 54 15 61 -3 9 -24 26 -17 26 10 0 24
-2 25 -69 25 -39 0 -72 -4 -75 -9z"/>
<path d="M5906 6453 c-3 -4 -6 -14 -6 -23 0 -9 -16 -33 -37 -53 -22 -23 -31
-37 -22 -37 8 0 21 6 28 13 11 10 13 -1 9 -60 -4 -57 -2 -73 8 -73 11 0 14 19
14 79 0 74 18 140 33 124 4 -3 7 1 7 9 0 17 -24 31 -34 21z"/>
<path d="M1980 6369 c0 -17 4 -28 10 -24 6 3 10 17 10 31 0 13 -4 24 -10 24
-5 0 -10 -14 -10 -31z"/>
<path d="M5288 6393 c-183 -5 -164 -23 23 -23 116 0 150 3 147 13 -5 14 -4 14
-170 10z"/>
<path d="M6273 6384 c-9 -24 10 -49 37 -49 27 0 46 25 37 49 -4 10 -18 16 -37
16 -19 0 -33 -6 -37 -16z m55 -16 c-7 -19 -38 -22 -38 -4 0 10 9 16 21 16 12
0 19 -5 17 -12z"/>
<path d="M4990 6385 c0 -12 33 -55 41 -55 15 0 10 26 -9 43 -19 17 -32 22 -32
12z"/>
<path d="M8100 6370 c0 -6 37 -10 90 -10 53 0 90 4 90 10 0 6 -37 10 -90 10
-53 0 -90 -4 -90 -10z"/>
<path d="M9070 6360 c0 -11 5 -20 10 -20 6 0 10 9 10 20 0 11 -4 20 -10 20 -5
0 -10 -9 -10 -20z"/>
<path d="M10840 6365 c0 -12 15 -15 81 -15 60 0 80 3 77 13 -3 8 -31 13 -81
15 -64 2 -77 0 -77 -13z"/>
<path d="M8110 6311 c0 -15 150 -18 162 -3 8 9 -8 12 -76 12 -47 0 -86 -4 -86
-9z"/>
<path d="M10840 6305 c0 -13 13 -15 77 -13 50 2 78 7 81 16 3 9 -17 12 -77 12
-66 0 -81 -3 -81 -15z"/>
<path d="M640 6297 c0 -19 10 -27 26 -20 21 8 17 33 -6 33 -11 0 -20 -6 -20
-13z"/>
<path d="M2971 6298 c0 -7 4 -22 8 -32 10 -26 25 -3 16 24 -7 22 -25 28 -24 8z"/>
<path d="M2120 5653 c-7 -16 -21 -53 -31 -82 -11 -30 -26 -65 -34 -78 -15 -22
-14 -23 13 -23 24 0 28 4 27 28 0 25 3 27 40 27 37 0 40 -2 40 -27 -1 -25 3
-28 31 -28 l31 0 -23 47 c-13 25 -24 53 -24 62 0 19 -40 101 -49 101 -4 0 -14
-12 -21 -27z m32 -68 c6 -29 2 -35 -24 -35 -21 0 -21 1 -8 34 12 33 26 33 32
1z"/>
<path d="M11538 5585 c-85 -112 -88 -118 -57 -113 16 2 24 10 24 23 0 13 13
26 35 38 34 17 35 17 38 -4 2 -12 -1 -26 -7 -32 -19 -19 -12 -27 24 -27 34 0
46 12 25 25 -6 4 -8 21 -6 38 14 90 17 147 7 147 -5 0 -43 -43 -83 -95z m48
-10 c-7 -18 -26 -20 -26 -2 0 18 24 41 28 27 2 -6 1 -17 -2 -25z"/>
<path d="M2990 5638 c-25 -42 -25 -42 9 -55 16 -6 37 -22 46 -37 24 -36 5 -58
-44 -54 -27 2 -36 -1 -36 -12 0 -17 35 -25 71 -16 23 6 54 51 49 71 -2 6 -6
22 -9 37 -4 17 -16 30 -38 39 l-33 13 30 4 c63 8 74 42 15 42 -35 0 -43 -5
-60 -32z"/>
<path d="M3182 5654 c-49 -34 -88 -123 -62 -139 6 -4 8 -11 5 -16 -4 -5 -1 -9
4 -9 6 0 11 -7 11 -15 0 -22 63 -20 83 3 20 22 23 92 5 110 -7 7 -23 12 -35
12 -21 0 -22 3 -13 20 6 11 22 23 35 26 14 3 25 10 25 15 0 14 -34 10 -58 -7z
m22 -112 c6 -22 5 -36 -4 -47 -18 -22 -40 -1 -40 40 0 55 28 60 44 7z"/>
<path d="M3282 5658 c-7 -7 -12 -21 -12 -33 0 -28 19 -45 50 -45 31 0 50 17
50 45 0 28 -19 45 -50 45 -14 0 -31 -5 -38 -12z m54 -23 c13 -12 12 -15 -7
-26 -26 -13 -45 7 -27 28 13 16 16 16 34 -2z"/>
<path d="M3627 5593 c-14 -13 -7 -64 9 -70 25 -9 50 11 45 38 -4 32 -36 51
-54 32z m33 -33 c0 -11 -4 -20 -10 -20 -5 0 -10 9 -10 20 0 11 5 20 10 20 6 0
10 -9 10 -20z"/>
<path d="M10510 5513 c-88 -6 -285 -35 -294 -43 -5 -5 -14 -6 -21 -4 -7 3 -16
1 -20 -5 -3 -6 -15 -11 -26 -11 -71 0 -514 -158 -568 -203 -9 -7 -56 -33 -105
-58 -48 -24 -91 -50 -93 -56 -3 -7 -11 -13 -18 -13 -6 0 -51 -30 -100 -67 -48
-38 -100 -77 -115 -88 -16 -12 -51 -43 -79 -70 -28 -28 -58 -52 -65 -55 -35
-13 -336 -375 -384 -463 -13 -23 -31 -48 -40 -54 -9 -7 -12 -13 -6 -13 5 0 4
-4 -2 -8 -5 -4 -30 -47 -55 -97 -24 -49 -48 -93 -54 -97 -7 -5 -7 -8 0 -8 6 0
5 -4 -1 -8 -7 -4 -31 -56 -54 -117 -24 -60 -47 -115 -51 -121 -18 -23 -99
-339 -99 -386 0 -10 -5 -18 -11 -18 -6 0 -9 -14 -8 -33 2 -18 0 -37 -3 -42 -3
-6 -11 -65 -18 -132 -21 -200 -2 -635 30 -708 5 -11 16 -56 25 -100 8 -44 19
-96 24 -115 23 -86 55 -185 61 -190 3 -3 24 -52 45 -110 21 -58 60 -144 87
-193 26 -48 48 -90 48 -93 0 -11 74 -125 116 -177 22 -29 54 -73 72 -98 17
-26 52 -68 77 -95 25 -27 56 -64 68 -82 12 -17 29 -34 38 -37 9 -3 29 -24 43
-45 15 -22 44 -53 66 -68 21 -16 51 -43 65 -60 15 -18 31 -32 36 -32 6 0 36
-21 68 -47 77 -64 210 -156 241 -167 14 -5 61 -30 106 -56 44 -25 118 -61 165
-80 46 -18 93 -39 104 -46 22 -13 195 -64 290 -85 33 -7 62 -16 65 -20 8 -10
188 -37 340 -50 138 -11 343 -7 520 12 112 12 261 39 275 50 6 4 44 16 86 27
95 25 155 46 194 66 17 9 36 16 42 16 13 0 143 53 178 73 11 6 47 26 80 43 93
48 109 58 118 72 5 7 12 10 18 7 5 -4 9 -3 9 2 0 4 33 28 73 51 119 70 350
276 502 447 76 86 195 242 195 256 0 9 45 75 61 89 3 3 27 50 54 105 27 55 52
102 56 105 8 5 16 26 68 170 17 47 38 99 46 116 8 17 31 98 51 180 21 82 39
156 42 164 3 8 4 23 3 33 -1 10 2 24 7 30 33 39 44 518 18 717 -21 162 -87
439 -121 515 -8 17 -32 80 -55 140 -22 61 -49 122 -60 137 -11 15 -20 30 -20
32 0 17 -83 175 -100 191 -11 10 -20 23 -20 29 0 23 -103 164 -208 285 -26 30
-54 63 -62 75 -22 30 -140 146 -150 146 -4 0 -23 17 -41 37 -18 21 -51 49 -73
64 -23 14 -48 32 -56 40 -41 38 -229 169 -243 169 -4 0 -35 17 -70 38 -82 49
-93 54 -219 106 -60 24 -108 41 -108 38 0 -4 -4 -2 -8 3 -7 11 -107 44 -207
70 -33 9 -67 20 -77 25 -22 12 -171 37 -302 49 -99 10 -374 12 -486 4z m479
-34 c64 -6 120 -15 125 -20 6 -5 19 -9 30 -9 12 0 92 -16 179 -37 157 -37 159
-37 154 -62 -7 -37 -49 -145 -85 -223 -18 -37 -32 -72 -32 -78 0 -6 -15 -43
-34 -83 -49 -105 -76 -168 -76 -179 0 -6 -15 -42 -34 -81 -18 -40 -41 -94 -50
-121 -31 -90 -19 -85 -148 -65 -189 31 -311 49 -363 56 -27 3 -52 9 -55 13 -3
3 -50 14 -105 23 -55 9 -185 30 -290 47 -104 17 -199 35 -210 40 -11 5 -51 13
-90 19 -210 31 -523 84 -540 91 -11 5 -78 18 -150 30 -71 11 -130 22 -132 23
-4 4 173 147 224 182 169 113 306 189 423 234 47 19 110 44 140 57 55 23 186
61 290 84 30 7 60 16 66 21 6 5 14 6 17 3 4 -4 19 -2 34 5 83 34 492 51 712
30z m729 -195 c120 -45 287 -142 421 -243 63 -47 124 -92 136 -98 25 -14 271
-257 323 -319 139 -164 311 -434 277 -434 -22 0 -376 59 -425 71 -25 6 -54 12
-65 13 -11 2 -27 6 -35 9 -8 3 -134 24 -280 47 -146 23 -285 48 -310 55 -25 7
-72 17 -105 22 l-60 8 -7 75 c-3 41 -14 206 -23 365 -9 160 -21 298 -26 307
-10 19 -13 181 -3 191 3 3 32 -6 63 -20 31 -14 84 -36 119 -49z m-213 -44 c-2
-33 0 -60 4 -60 5 0 11 -57 15 -127 4 -71 9 -162 11 -203 3 -41 7 -131 10
-200 3 -69 8 -149 12 -179 6 -53 5 -54 -18 -48 -13 4 -69 14 -124 23 -55 9
-105 21 -111 25 -6 5 -36 11 -67 15 -32 4 -60 11 -63 16 -3 5 7 37 24 71 17
34 37 84 46 111 9 27 28 72 41 101 14 28 25 58 25 66 0 8 8 30 19 49 10 19 28
64 41 100 12 36 35 92 50 125 16 33 38 86 50 118 12 31 25 57 30 57 5 0 8 -27
5 -60z m-2451 -525 c3 -27 12 -99 20 -160 8 -60 20 -155 26 -210 6 -55 15
-107 20 -115 9 -18 9 -20 50 -365 16 -137 35 -290 42 -340 6 -49 11 -92 11
-95 -1 -3 2 -7 6 -10 7 -5 24 -134 82 -625 11 -93 24 -179 29 -190 4 -11 13
-63 19 -115 11 -89 78 -591 85 -635 2 -11 6 -27 9 -35 3 -8 10 -60 16 -115 6
-55 17 -152 25 -215 8 -63 22 -178 31 -255 9 -77 19 -147 23 -155 3 -8 6 -28
7 -45 1 -16 5 -37 8 -45 8 -21 30 -200 25 -206 -3 -2 -31 11 -64 28 -32 18
-76 42 -96 53 -77 41 -186 120 -285 206 -56 49 -107 89 -112 89 -5 0 -16 12
-24 27 -7 16 -19 27 -25 26 -7 -2 -12 3 -12 11 0 7 -17 29 -37 48 -84 76 -313
366 -313 395 0 7 -8 21 -17 31 -10 10 -38 58 -63 108 -25 49 -49 92 -55 96 -7
5 -7 8 0 8 6 0 5 4 -1 8 -11 6 -74 156 -74 174 0 5 -13 36 -29 70 -33 69 -93
315 -116 473 -1 11 -6 29 -11 40 -13 30 -10 589 4 655 50 243 63 305 82 375
12 44 27 86 33 94 7 8 11 17 11 20 -1 3 2 15 7 26 4 11 24 63 44 115 20 52 40
102 45 110 5 8 28 51 51 94 22 44 49 91 58 105 10 14 39 58 64 96 108 164 133
194 301 377 l81 88 7 -33 c3 -17 9 -54 12 -82z m154 94 c45 -7 82 -17 82 -21
0 -4 10 -8 23 -8 23 0 259 -38 263 -43 5 -4 -19 -92 -26 -97 -3 -3 -17 -26
-29 -52 -40 -85 -156 -192 -252 -234 -36 -16 -126 -27 -132 -17 -3 5 -10 45
-16 89 -6 43 -19 150 -31 237 -11 87 -20 160 -20 164 0 3 12 3 28 1 15 -3 64
-11 110 -19z m556 -99 c72 -12 139 -25 148 -30 10 -6 46 -14 80 -19 154 -23
281 -43 378 -62 58 -10 116 -19 130 -19 14 0 34 -4 45 -10 11 -5 123 -26 250
-46 126 -19 233 -41 237 -47 5 -8 8 -8 8 2 0 12 3 12 12 3 7 -7 25 -12 40 -12
l28 0 -20 -37 c-11 -21 -20 -44 -20 -51 0 -7 -11 -35 -25 -62 -14 -27 -25 -55
-25 -62 0 -7 -13 -40 -29 -73 -16 -33 -50 -114 -75 -180 -25 -66 -51 -128 -57
-139 -6 -10 -31 -70 -55 -133 -25 -64 -53 -134 -63 -157 -10 -22 -35 -84 -56
-136 -20 -52 -47 -117 -60 -145 -13 -27 -30 -72 -39 -100 -17 -51 -19 -57 -55
-135 -32 -71 -82 -192 -92 -224 -5 -16 -12 -32 -17 -35 -4 -3 -29 -64 -56
-136 -27 -71 -53 -135 -57 -141 -5 -6 -26 -58 -48 -115 -21 -57 -48 -122 -59
-144 -11 -22 -37 -83 -57 -135 -19 -52 -45 -114 -55 -136 -11 -23 -33 -78 -49
-122 -16 -44 -43 -109 -59 -144 -17 -34 -45 -99 -62 -143 -18 -44 -41 -100
-52 -125 -11 -25 -33 -79 -48 -120 -15 -41 -44 -110 -64 -153 -20 -43 -36 -83
-36 -89 0 -6 -20 -54 -44 -107 -24 -53 -49 -109 -56 -126 -12 -28 -14 -23 -26
85 -8 63 -17 126 -20 140 -4 14 -9 36 -11 50 -12 87 -63 461 -66 490 -3 19
-10 80 -17 135 -7 55 -16 109 -21 120 -5 11 -8 29 -8 40 1 11 -4 54 -10 95 -6
41 -26 206 -46 365 -20 160 -40 299 -45 310 -5 11 -30 191 -55 400 -25 209
-50 389 -55 400 -8 20 -36 221 -66 485 -8 74 -19 164 -24 200 -15 103 -13 120
11 120 38 0 134 33 165 56 17 13 36 24 41 24 6 0 41 33 79 73 67 71 134 184
148 250 4 15 11 27 18 27 6 0 70 -9 142 -20z m1587 -285 c86 -14 165 -25 177
-25 11 0 23 -4 26 -9 7 -11 33 -365 41 -571 4 -80 9 -156 12 -170 3 -14 7 -59
9 -100 3 -41 13 -199 23 -350 11 -151 22 -322 25 -380 29 -542 49 -848 57
-865 5 -11 9 -31 8 -45 -1 -14 3 -101 9 -195 7 -93 14 -219 17 -280 7 -145 23
-433 31 -567 7 -106 7 -107 -17 -117 -92 -36 -140 -56 -177 -73 -81 -36 -300
-93 -452 -118 -41 -7 -79 -15 -85 -19 -22 -14 -250 -28 -410 -26 -168 3 -391
26 -430 45 -11 5 -60 19 -110 29 -110 25 -257 68 -264 79 -3 4 -24 14 -46 21
-120 38 -160 57 -163 79 -2 12 14 59 36 104 22 46 45 99 52 118 16 44 30 78
65 160 15 36 45 110 67 165 22 55 43 104 48 110 4 5 15 35 25 65 10 30 29 76
42 101 12 26 23 51 23 57 0 5 13 36 29 68 16 33 40 91 54 131 14 39 42 105 62
146 19 41 35 81 35 87 0 7 18 50 39 95 39 80 72 165 93 234 5 18 23 60 39 92
16 32 39 86 50 121 12 35 35 90 51 123 17 33 34 71 38 85 13 40 69 173 81 194
6 10 26 60 44 112 18 51 41 106 49 121 18 31 95 225 103 261 3 12 10 22 15 22
5 0 6 4 3 10 -3 5 1 20 10 33 8 13 29 62 46 108 17 46 36 93 43 104 7 11 23
49 36 85 13 36 43 107 67 157 23 51 43 97 43 102 0 11 45 116 70 162 11 20 20
42 20 49 0 6 10 33 21 61 18 40 25 48 43 44 11 -2 91 -16 177 -30z m444 -75
c0 -1 9 -3 20 -5 224 -41 322 -58 429 -75 71 -11 134 -24 140 -29 7 -6 21 -9
31 -7 11 2 27 0 35 -4 17 -9 394 -70 428 -70 12 0 22 -3 22 -6 0 -3 -16 -58
-36 -122 -20 -64 -38 -126 -41 -137 -3 -11 -14 -39 -24 -62 -10 -24 -19 -49
-19 -56 0 -8 -13 -53 -30 -100 -16 -48 -30 -93 -30 -99 0 -7 -7 -26 -16 -43
-8 -16 -35 -95 -59 -175 -24 -80 -52 -170 -63 -200 -36 -100 -72 -215 -72
-229 0 -8 -9 -32 -19 -55 -11 -23 -38 -102 -62 -176 -23 -74 -45 -139 -49
-145 -7 -10 -22 -55 -76 -240 -14 -49 -30 -94 -34 -100 -7 -10 -28 -74 -48
-150 -22 -83 -45 -151 -63 -191 -10 -23 -23 -62 -29 -88 -5 -25 -16 -63 -24
-83 -7 -21 -21 -65 -31 -98 -10 -33 -22 -64 -26 -70 -4 -5 -26 -73 -49 -150
-23 -77 -48 -153 -56 -170 -7 -16 -29 -86 -50 -155 -20 -69 -40 -139 -45 -156
-5 -18 -17 -38 -26 -45 -14 -12 -16 -12 -11 2 4 9 -2 148 -12 310 -10 162 -21
359 -25 439 -4 80 -11 150 -15 155 -4 6 -10 80 -14 165 -4 85 -13 261 -22 390
-30 494 -43 709 -48 810 -14 287 -19 366 -26 375 -4 6 -13 111 -19 235 -7 124
-14 239 -16 255 -2 17 -6 86 -9 155 -4 69 -9 150 -12 181 l-5 55 103 -17 c57
-9 103 -18 103 -19z m1157 -277 c42 -102 68 -175 68 -187 0 -8 5 -16 10 -18
12 -4 75 -223 91 -318 6 -36 15 -69 19 -75 27 -35 50 -397 38 -610 -9 -160
-25 -294 -36 -309 -5 -6 -15 -40 -22 -76 -20 -101 -65 -260 -89 -312 -11 -26
-21 -55 -21 -65 0 -11 -4 -23 -9 -29 -4 -5 -17 -31 -27 -59 -29 -79 -155 -319
-176 -333 -10 -7 -18 -19 -18 -27 0 -15 -128 -191 -194 -267 -83 -96 -215
-225 -317 -310 -117 -98 -245 -189 -253 -180 -3 3 -6 0 -6 -5 0 -6 -19 -21
-42 -32 -24 -11 -56 -30 -73 -41 -62 -41 -65 -26 -19 78 13 29 24 58 24 66 0
7 6 32 14 57 7 24 24 78 37 119 12 41 29 86 36 100 7 14 13 30 13 37 0 7 19
70 42 140 23 70 43 130 43 133 1 3 5 12 8 20 4 8 25 75 47 149 22 74 45 140
51 147 6 7 8 18 4 24 -3 5 -2 10 3 10 5 0 17 30 26 66 9 36 31 110 48 163 18
53 31 99 30 104 -1 4 2 7 7 7 5 0 11 10 14 23 14 65 82 283 90 288 5 4 7 11 3
17 -3 6 -3 12 2 14 4 1 27 68 52 148 24 80 47 147 50 150 3 3 28 77 55 165 27
88 54 163 60 167 5 4 7 8 3 8 -4 0 3 30 16 68 13 37 36 110 51 162 16 52 31
97 35 100 3 3 14 34 24 70 11 36 30 99 42 140 13 41 24 79 24 85 0 5 7 23 15
38 14 28 24 56 51 156 23 85 33 91 56 34z"/>
<path d="M2270 5479 c0 -25 33 -22 38 4 2 12 -3 17 -17 17 -15 0 -21 -6 -21
-21z"/>
<path d="M8914 5065 c0 -24 -5 -50 -11 -57 -16 -21 -42 -107 -34 -112 10 -7
91 -3 91 4 0 3 14 11 30 18 23 10 30 20 30 41 0 15 -5 32 -10 37 -7 7 -4 16
10 29 47 43 14 85 -68 85 -37 0 -37 0 -38 -45z m84 2 c5 -23 -15 -47 -39 -47
-22 0 -22 -2 -8 39 12 35 41 40 47 8z m-24 -80 c15 -11 17 -17 7 -35 -6 -12
-18 -22 -26 -22 -7 0 -20 -3 -29 -6 -12 -4 -16 0 -16 15 0 12 5 21 10 21 6 0
10 9 10 20 0 23 18 26 44 7z"/>
<path d="M2040 4921 c0 -6 5 -13 10 -16 14 -9 13 -168 -2 -183 -18 -18 122
-16 146 1 21 16 25 65 5 77 -10 7 -10 14 -1 34 15 33 1 66 -35 84 -31 14 -123
16 -123 3z m125 -61 c0 -20 -6 -26 -29 -28 -32 -4 -46 10 -38 40 3 15 12 18
36 16 26 -2 31 -7 31 -28z m-5 -70 c28 -28 11 -60 -30 -60 -35 0 -42 9 -34 49
8 37 34 41 64 11z"/>
<path d="M3035 4911 c-71 -41 -99 -142 -54 -190 17 -18 28 -22 53 -17 39 8 56
30 56 76 0 43 -14 60 -52 60 -39 0 -35 15 12 48 59 41 48 60 -15 23z m13 -123
c14 -31 1 -73 -21 -65 -34 11 -42 101 -8 95 9 -2 22 -15 29 -30z"/>
<path d="M3137 4908 c-15 -11 -27 -29 -27 -40 0 -20 1 -20 18 -5 23 21 61 22
68 2 10 -25 -15 -80 -51 -115 -19 -19 -35 -38 -35 -42 0 -13 105 -9 118 4 24
24 14 37 -25 31 l-38 -6 21 24 c27 31 46 81 42 110 -2 12 -16 30 -34 39 -29
17 -31 17 -57 -2z"/>
<path d="M3287 4910 c-22 -22 -19 -68 5 -84 24 -15 72 4 76 30 3 22 -33 74
-51 73 -7 0 -20 -8 -30 -19z m43 -40 c0 -11 -6 -20 -13 -20 -19 0 -27 10 -20
26 8 21 33 17 33 -6z"/>
<path d="M3644 4826 c-12 -32 0 -61 28 -64 23 -3 30 2 38 24 7 19 7 30 -1 40
-15 18 -58 18 -65 0z m41 -36 c-5 -8 -11 -8 -17 -2 -6 6 -7 16 -3 22 5 8 11 8
17 2 6 -6 7 -16 3 -22z"/>
<path d="M2240 4731 c0 -14 28 -33 40 -26 20 12 10 35 -15 35 -14 0 -25 -4
-25 -9z"/>
<path d="M13066 4365 c9 -38 -26 -164 -48 -171 -42 -13 -12 -24 67 -24 69 0
85 3 85 15 0 8 5 15 10 15 6 0 10 7 10 17 0 15 -2 14 -20 -2 -18 -17 -110 -34
-110 -21 0 3 4 14 9 24 5 9 12 25 15 35 8 24 32 21 41 -5 6 -20 8 -18 16 16
11 45 6 54 -16 36 -21 -17 -28 -7 -20 28 8 41 40 48 71 17 13 -13 24 -20 24
-15 0 4 2 14 5 22 7 19 -49 40 -65 24 -9 -8 -14 -8 -17 2 -3 6 -18 12 -34 12
-26 0 -29 -3 -23 -25z"/>
<path d="M2068 4136 c-22 -28 -28 -45 -28 -85 0 -43 4 -53 31 -75 17 -14 41
-26 54 -26 32 0 73 19 80 38 8 22 -5 30 -16 9 -12 -20 -81 -24 -96 -4 -18 22
-24 68 -13 101 19 57 89 66 106 14 8 -26 24 -22 24 6 0 48 -9 56 -64 56 -46 0
-54 -3 -78 -34z"/>
<path d="M3128 4149 c-16 -11 -28 -27 -28 -35 0 -19 7 -18 32 6 16 14 25 17
39 9 31 -16 23 -68 -20 -121 -12 -16 -12 -18 1 -18 19 0 40 25 62 72 20 44 13
88 -14 88 -11 0 -22 5 -25 10 -9 14 -16 12 -47 -11z"/>
<path d="M3276 4145 c-9 -13 -16 -30 -16 -38 0 -40 68 -51 93 -14 13 21 13 25
-5 50 -24 34 -51 34 -72 2z m52 -34 c-5 -24 -38 -27 -38 -3 0 10 3 21 6 25 11
11 35 -5 32 -22z"/>
<path d="M2982 4149 c-20 -7 -37 -37 -27 -47 3 -3 11 0 17 6 7 7 27 12 45 12
31 0 33 -2 27 -27 -3 -16 -17 -51 -30 -80 -13 -28 -24 -54 -24 -57 0 -11 21
-6 33 7 13 14 69 179 62 185 -7 7 -83 8 -103 1z"/>
<path d="M3216 3992 c-5 -8 -25 -12 -50 -11 -23 2 -48 -1 -54 -5 -27 -16 -9
-26 48 -26 61 0 78 11 68 42 -3 9 -6 9 -12 0z"/>
<path d="M2237 3983 c-3 -5 -2 -15 3 -22 10 -17 43 -6 38 12 -6 15 -34 22 -41
10z"/>
<path d="M2030 3401 c0 -6 5 -13 10 -16 14 -9 13 -158 -2 -173 -19 -19 122
-16 149 3 33 23 47 86 30 128 -21 48 -56 67 -127 67 -33 0 -60 -4 -60 -9z
m131 -37 c17 -18 23 -36 23 -65 -2 -50 -27 -79 -70 -79 l-32 0 0 77 c-1 42 2
81 4 85 11 17 51 7 75 -18z"/>
<path d="M2960 3398 c0 -7 -3 -24 -6 -38 -6 -21 -4 -23 7 -12 7 6 28 12 46 12
36 0 40 -11 21 -57 -6 -15 -12 -30 -13 -33 -1 -3 -7 -18 -13 -33 -15 -34 -15
-47 -2 -47 17 0 80 158 80 200 0 18 -7 20 -60 20 -41 0 -60 -4 -60 -12z"/>
<path d="M3178 3397 c-7 -7 -20 -16 -29 -19 -22 -9 -49 -69 -49 -112 0 -23 7
-43 20 -56 43 -43 110 -10 110 54 0 42 -25 69 -56 63 -23 -4 -23 -4 -7 24 10
16 20 29 23 29 4 0 15 7 26 15 19 14 19 14 -3 15 -12 0 -28 -6 -35 -13z m15
-125 c5 -28 -7 -62 -23 -62 -5 0 -16 14 -24 32 -15 29 -15 33 0 49 21 23 41
15 47 -19z"/>
<path d="M3271 3396 c-7 -8 -11 -30 -9 -48 3 -30 6 -33 37 -33 43 0 59 23 45
62 -11 32 -53 43 -73 19z m46 -53 c-24 -24 -44 -4 -27 27 11 21 13 21 28 6 15
-15 15 -17 -1 -33z"/>
<path d="M3650 3310 c0 -5 9 -10 20 -10 11 0 20 5 20 10 0 6 -9 10 -20 10 -11
0 -20 -4 -20 -10z"/>
<path d="M2260 3210 c0 -11 7 -20 15 -20 8 0 15 9 15 20 0 11 -7 20 -15 20 -8
0 -15 -9 -15 -20z"/>
<path d="M11828 649 c14 -15 16 -49 4 -49 -5 0 -15 -25 -22 -56 -8 -31 -20
-62 -27 -69 -7 -8 -13 -16 -13 -18 0 -3 65 -3 132 2 9 0 33 17 53 38 29 30 35
43 35 77 -1 64 -17 78 -102 83 -60 5 -71 3 -60 -8z m109 -21 c53 -49 3 -148
-75 -148 -27 0 -32 3 -28 18 3 9 10 38 17 65 6 26 15 47 20 47 5 0 9 9 9 20 0
27 28 26 57 -2z"/>
<path d="M9490 614 c-63 -54 -76 -114 -34 -163 33 -40 85 -42 129 -7 38 31 26
45 -13 17 -42 -29 -70 -27 -85 7 -6 15 -16 30 -20 33 -5 4 -4 10 2 13 6 4 11
16 11 27 0 31 53 79 88 79 23 0 31 -5 36 -25 7 -29 26 -34 26 -6 0 11 3 26 6
35 5 14 -3 16 -54 16 -51 0 -66 -4 -92 -26z"/>
</g>
</svg>
