<?xml version="1.0" standalone="no"?>
<!DOCTYPE svg PUBLIC "-//W3C//DTD SVG 20010904//EN"
 "http://www.w3.org/TR/2001/REC-SVG-20010904/DTD/svg10.dtd">
<svg version="1.0" xmlns="http://www.w3.org/2000/svg"
 width="1348.000000pt" height="677.000000pt" viewBox="0 0 1348.000000 677.000000"
 preserveAspectRatio="xMidYMid meet">
<metadata>
Created by potrace 1.16, written by Peter Selinger 2001-2019
</metadata>
<g transform="translate(0.000000,677.000000) scale(0.100000,-0.100000)"
fill="#000000" stroke="none">
<path d="M6690 6419 l0 -119 -27 0 -27 0 22 -16 c44 -31 52 -15 52 109 0 67 4
117 11 124 7 7 4 12 -10 16 -20 5 -21 1 -21 -114z"/>
<path d="M6869 6512 c0 -27 -1 -27 -11 -4 -6 12 -17 22 -25 22 -11 0 -11 -4
-2 -21 10 -20 9 -21 -10 -16 -14 3 -21 1 -18 -6 2 -7 16 -13 30 -15 24 -3 26
-7 21 -30 -3 -15 -21 -52 -40 -84 -39 -64 -43 -79 -14 -53 18 16 20 16 20 2 0
-23 17 -21 30 2 16 30 13 46 -5 31 -17 -15 -19 -7 -5 21 9 15 22 19 63 19 50
0 53 -2 66 -32 11 -26 15 -29 18 -15 3 10 -1 24 -7 32 -10 12 -9 15 4 15 10 0
16 -9 16 -24 0 -39 -11 -56 -35 -56 -18 0 -21 4 -18 23 3 14 -2 29 -11 36 -14
12 -16 10 -16 -13 0 -27 42 -76 64 -76 18 0 36 37 43 85 5 41 4 45 -16 45 -18
0 -20 4 -15 25 5 21 3 25 -15 25 -18 0 -20 3 -12 19 14 26 4 32 -42 24 -37 -6
-40 -4 -35 15 4 13 0 23 -8 26 -10 4 -14 -3 -15 -22z m71 -47 c0 -10 -10 -15
-30 -15 -29 0 -38 9 -23 23 13 13 53 7 53 -8z m30 -50 c0 -12 -13 -15 -55 -15
-44 0 -53 3 -49 15 4 11 21 15 55 15 37 0 49 -4 49 -15z"/>
<path d="M10980 6421 l0 -121 -26 0 c-14 0 -23 -4 -19 -10 7 -12 52 -13 59 -2
2 4 6 61 8 126 2 89 0 120 -9 123 -10 4 -13 -24 -13 -116z"/>
<path d="M11113 6528 c2 -7 -9 -37 -25 -67 -29 -53 -30 -84 -1 -46 14 19 15
19 13 -5 -5 -61 1 -140 10 -140 6 0 10 43 10 110 l0 110 80 0 80 0 0 -96 c0
-96 0 -96 -24 -90 -12 3 -26 3 -30 -1 -8 -9 53 -35 65 -27 5 3 9 52 9 110 0
88 2 104 16 104 9 0 14 6 11 13 -3 9 -27 11 -90 8 -73 -2 -88 0 -93 13 -7 19
-38 22 -31 4z"/>
<path d="M11490 6525 c0 -14 -22 -20 -62 -17 -10 1 -18 -3 -18 -8 0 -6 18 -10
40 -10 29 0 40 -4 40 -15 0 -12 -13 -15 -57 -15 -75 0 -58 -18 22 -22 l60 -3
-70 -35 c-43 -21 -63 -35 -53 -37 9 -3 26 0 36 6 27 14 32 5 32 -53 0 -39 3
-47 12 -38 15 15 104 16 113 2 14 -23 25 5 25 66 l0 64 -47 0 c-44 1 -47 2
-29 15 11 9 41 15 69 15 35 0 47 4 44 13 -2 7 -17 11 -36 9 -29 -2 -31 0 -21
18 6 11 15 20 20 20 6 0 10 7 10 15 0 19 -26 20 -33 1 -8 -21 -73 -13 -69 8 2
9 -4 16 -13 16 -8 0 -15 -7 -15 -15z m64 -50 c-4 -8 -15 -15 -25 -15 -10 0
-19 7 -19 15 0 9 9 15 25 15 18 0 23 -4 19 -15z m29 -122 c4 -20 4 -40 1 -45
-3 -4 -27 -8 -55 -8 -42 0 -49 3 -49 20 0 10 8 24 18 29 16 10 16 10 0 11 -10
0 -18 7 -18 15 0 11 12 15 49 15 48 0 48 0 54 -37z"/>
<path d="M12160 6524 c0 -11 -6 -15 -18 -12 -16 5 -42 -19 -42 -37 0 -11 29
-4 33 8 2 6 7 9 11 6 3 -3 -5 -21 -19 -39 -14 -19 -25 -29 -25 -22 0 7 -11 12
-24 12 -13 0 -26 7 -30 15 -3 8 -1 15 4 15 6 0 10 7 10 15 0 9 10 15 26 15 16
0 24 5 22 13 -3 6 -10 12 -16 11 -7 -1 -30 -2 -52 -2 -40 -2 -58 -22 -19 -22
15 0 19 -4 15 -16 -3 -9 -9 -28 -12 -42 -4 -15 -14 -35 -23 -46 -15 -18 -15
-18 7 -12 21 7 22 5 22 -42 l0 -49 32 6 c31 6 32 8 29 50 -3 41 8 60 32 61 4
0 7 -30 7 -66 0 -56 2 -65 16 -60 9 3 40 6 70 6 33 0 54 4 54 11 0 7 -11 9
-31 5 -25 -5 -30 -3 -27 12 2 9 14 18 26 20 29 4 23 28 -7 25 -13 -2 -21 3
-21 12 0 9 10 15 25 15 26 0 33 14 13 26 -6 4 -14 2 -16 -4 -5 -17 -22 -15
-22 3 0 9 10 15 26 15 16 0 24 5 21 13 -2 6 -14 11 -26 10 -12 -2 -24 4 -27
12 -8 19 -24 19 -24 0 0 -8 -4 -15 -10 -15 -12 0 -12 3 -4 24 7 19 60 22 67 4
3 -10 7 -10 20 1 28 22 20 31 -28 31 -35 0 -43 3 -39 15 4 9 0 15 -10 15 -9 0
-16 -7 -16 -16z m20 -109 c0 -8 -7 -15 -15 -15 -8 0 -15 7 -15 15 0 8 7 15 15
15 8 0 15 -7 15 -15z m-110 -39 c0 -25 -4 -48 -10 -51 -6 -4 -10 13 -10 44 0
28 5 51 10 51 6 0 10 -20 10 -44z m108 -3 c-2 -10 -8 -18 -13 -18 -5 0 -11 8
-13 18 -2 10 3 17 13 17 10 0 15 -7 13 -17z m2 -53 c0 -11 -7 -20 -15 -20 -8
0 -15 9 -15 20 0 11 7 20 15 20 8 0 15 -9 15 -20z"/>
<path d="M1700 6499 c0 -31 -1 -31 -45 -27 l-45 3 0 -62 c0 -35 4 -63 10 -63
6 0 10 25 10 55 l0 55 35 0 c33 0 35 -2 35 -34 0 -29 -4 -35 -32 -44 l-33 -10
33 -1 32 -1 0 -55 c0 -30 5 -55 10 -55 6 0 10 25 10 55 l0 55 50 0 c53 0 55 3
40 50 -8 24 -8 24 -9 -5 -1 -29 -4 -31 -41 -32 l-40 -2 0 41 0 41 50 -5 c36
-4 50 -2 50 7 0 9 -16 12 -47 11 -47 -1 -48 0 -45 27 2 19 -2 27 -13 27 -10 0
-15 -10 -15 -31z"/>
<path d="M2370 6515 c0 -12 -13 -15 -55 -15 -30 0 -55 -4 -55 -10 0 -5 23 -10
50 -10 30 0 50 -4 50 -11 0 -7 -11 -9 -30 -5 l-30 6 0 -90 c0 -89 0 -90 -25
-90 -14 0 -25 -4 -25 -10 0 -6 52 -10 136 -10 104 0 135 3 131 13 -2 6 -17 11
-32 10 l-27 -2 5 88 6 88 -45 -5 c-28 -3 -44 -1 -44 6 0 7 27 12 68 14 40 2
65 7 62 13 -3 6 -30 8 -63 6 -49 -3 -56 -1 -51 13 4 11 1 16 -10 16 -9 0 -16
-7 -16 -15z m70 -86 c0 -11 -107 -12 -114 0 -3 4 -4 10 -2 12 8 8 116 -3 116
-12z m-5 -40 c5 -5 -16 -9 -53 -9 -54 0 -72 6 -58 21 8 7 101 -3 111 -12z m0
-44 c0 -10 -79 -18 -103 -10 -7 3 -10 10 -7 15 8 14 110 9 110 -5z m0 -45 c-3
-5 -31 -10 -61 -10 -34 0 -53 4 -49 10 3 6 31 10 61 10 34 0 53 -4 49 -10z"/>
<path d="M2591 6486 c-27 -54 -27 -70 -1 -63 20 5 20 5 0 -20 -25 -33 -27 -58
-2 -48 42 18 51 17 49 -3 -1 -13 -7 -18 -19 -14 -21 5 -22 1 -6 -33 13 -29 28
-33 28 -8 0 15 1 15 13 -1 13 -18 15 -17 40 10 15 16 27 32 27 36 0 5 5 8 10
8 18 0 11 -39 -9 -52 -17 -10 -17 -13 -4 -27 14 -13 17 -13 29 4 8 10 14 28
14 38 0 17 3 16 21 -7 11 -14 27 -26 35 -26 22 0 17 16 -11 34 -14 9 -25 22
-25 30 0 7 11 18 25 24 25 11 34 32 15 32 -5 0 -10 23 -10 50 0 49 -1 50 -30
50 -22 0 -28 4 -24 15 4 9 0 15 -10 15 -9 0 -16 -7 -16 -15 0 -9 -9 -15 -25
-15 -24 0 -25 -3 -25 -55 0 -54 6 -65 26 -45 8 8 15 6 24 -5 11 -13 8 -15 -25
-15 -24 0 -42 6 -50 17 -12 16 -14 16 -29 0 -17 -16 -26 -21 -26 -13 0 2 14
20 30 41 17 21 30 42 30 46 0 15 -28 10 -34 -6 -6 -16 -26 -21 -26 -7 0 5 9
18 20 30 24 25 24 28 6 35 -10 4 -22 -8 -35 -37z m189 -16 c0 -5 -18 -10 -40
-10 -22 0 -40 5 -40 10 0 6 18 10 40 10 22 0 40 -4 40 -10z m0 -40 c0 -5 -18
-10 -41 -10 -24 0 -38 4 -34 10 3 6 22 10 41 10 19 0 34 -4 34 -10z m2 -52
c-15 -15 -26 -4 -18 18 5 13 9 15 18 6 9 -9 9 -15 0 -24z m-84 -30 c-3 -7 -11
-13 -18 -13 -7 0 -15 6 -17 13 -3 7 4 12 17 12 13 0 20 -5 18 -12z"/>
<path d="M3980 6515 c0 -12 -14 -15 -67 -15 -54 -1 -64 -3 -49 -11 10 -6 40
-9 66 -7 39 4 47 2 43 -10 -4 -9 -15 -12 -33 -9 l-26 6 -3 -81 c-1 -45 -4 -85
-7 -90 -3 -4 -16 -8 -30 -8 -14 0 -22 -4 -19 -10 4 -6 60 -10 136 -10 112 0
129 2 129 16 0 13 -7 15 -31 10 l-31 -6 4 90 4 90 -38 -6 c-30 -5 -37 -4 -33
7 3 10 22 14 58 14 28 0 52 5 52 10 0 6 -22 9 -53 7 -44 -3 -51 -2 -46 12 4
11 1 16 -10 16 -9 0 -16 -7 -16 -15z m60 -80 c0 -11 -12 -15 -50 -15 -38 0
-50 4 -50 15 0 11 12 15 50 15 38 0 50 -4 50 -15z m-3 -42 c3 -9 -10 -13 -46
-13 -35 0 -51 4 -51 13 0 17 92 17 97 0z m3 -48 c0 -11 -12 -15 -50 -15 -38 0
-50 4 -50 15 0 11 12 15 50 15 38 0 50 -4 50 -15z m0 -45 c0 -5 -22 -10 -50
-10 -27 0 -50 5 -50 10 0 6 23 10 50 10 28 0 50 -4 50 -10z"/>
<path d="M4201 6492 c-25 -50 -27 -72 -4 -72 15 0 15 -1 0 -18 -16 -18 -23
-52 -12 -52 4 0 20 7 37 16 29 15 30 15 24 -1 -3 -9 -6 -21 -6 -27 0 -6 -6 -6
-15 2 -21 17 -21 -9 0 -36 13 -16 16 -17 25 -4 8 13 10 13 10 -2 0 -35 39 -7
59 42 9 23 10 22 10 -14 1 -30 -2 -37 -14 -32 -19 7 -19 -8 0 -24 21 -18 35
-3 35 38 l0 36 34 -33 c22 -21 36 -29 41 -21 4 6 -5 20 -21 32 l-27 22 22 17
c23 19 28 39 10 39 -8 0 -10 17 -7 50 5 49 5 50 -23 50 -21 0 -27 4 -23 15 4
9 0 15 -10 15 -9 0 -16 -7 -16 -15 0 -8 -9 -15 -20 -15 -17 0 -20 -7 -20 -51
0 -46 2 -51 20 -46 13 3 20 0 20 -9 0 -21 -57 -18 -69 4 -7 11 -13 13 -18 6
-5 -6 -16 -13 -26 -17 -12 -5 -6 7 17 35 20 23 36 45 36 50 0 14 -28 9 -34 -7
-3 -8 -13 -15 -21 -15 -14 0 -13 5 6 31 15 21 18 34 11 41 -7 7 -17 -2 -31
-30z m179 -22 c0 -5 -16 -10 -35 -10 -19 0 -35 5 -35 10 0 6 16 10 35 10 19 0
35 -4 35 -10z m0 -40 c0 -5 -18 -10 -41 -10 -24 0 -38 4 -34 10 3 6 22 10 41
10 19 0 34 -4 34 -10z m8 -38 c2 -7 -3 -12 -12 -12 -9 0 -16 7 -16 16 0 17 22
14 28 -4z m-95 -52 c-4 -17 -23 -29 -23 -16 0 2 -3 11 -6 20 -4 11 0 16 14 16
15 0 19 -5 15 -20z"/>
<path d="M5246 6505 c-4 -14 -13 -25 -21 -25 -12 0 -15 -18 -15 -101 0 -89 2
-100 15 -89 8 7 31 10 50 8 l35 -4 0 58 c0 46 4 59 19 68 11 5 23 19 26 30 5
16 15 20 47 20 l41 0 -6 -72 c-7 -96 -13 -109 -43 -102 -32 8 -31 -8 1 -23 46
-21 61 11 68 150 l3 67 -47 0 c-42 0 -47 2 -42 20 4 13 0 20 -9 20 -8 0 -19
-19 -26 -45 -13 -49 -32 -60 -32 -20 0 22 -3 25 -26 19 -24 -6 -25 -5 -15 14
14 27 14 32 -3 32 -8 0 -17 -11 -20 -25z m46 -70 c5 -23 2 -25 -28 -25 -30 0
-34 3 -34 25 0 21 5 25 29 25 23 0 30 -5 33 -25z m-2 -81 c0 -33 -2 -35 -27
-32 -23 2 -29 8 -31 36 -3 30 -1 32 27 32 29 0 31 -3 31 -36z"/>
<path d="M5640 6510 c10 -19 8 -20 -50 -20 -33 0 -60 -4 -60 -10 0 -5 23 -10
50 -10 49 0 50 -1 50 -30 0 -39 -34 -111 -61 -130 -56 -39 -56 -39 -35 -40 32
0 83 47 101 95 17 43 20 45 56 45 38 0 39 -1 39 -34 0 -19 -4 -46 -10 -61 -8
-21 -14 -24 -35 -19 -15 4 -25 2 -25 -4 0 -12 55 -26 69 -18 5 4 13 32 16 64
13 104 16 96 -37 93 -43 -2 -48 0 -48 18 0 19 6 21 66 21 48 0 65 3 61 13 -2
8 -21 11 -59 9 -49 -3 -56 -1 -61 17 -3 12 -12 21 -21 21 -14 0 -15 -4 -6 -20z"/>
<path d="M5868 6517 c-32 -12 -38 -32 -8 -24 15 4 20 0 20 -15 0 -16 -5 -19
-25 -16 -18 4 -25 1 -25 -10 0 -9 7 -13 20 -9 25 7 25 -8 0 -58 -23 -46 -17
-60 12 -25 l21 25 -5 -53 c-3 -29 -1 -55 4 -58 16 -10 22 5 23 59 1 43 4 52
18 49 21 -4 22 11 2 28 -20 17 -19 42 1 38 10 -2 19 3 22 11 3 10 -2 12 -21 7
-22 -5 -24 -3 -19 17 3 12 13 27 21 34 14 11 13 12 -9 12 -14 -1 -37 -6 -52
-12z"/>
<path d="M6290 6521 c0 -6 4 -11 8 -11 5 0 20 -18 35 -40 l26 -40 -80 0 -81 0
31 39 c35 44 37 51 17 51 -8 0 -28 -22 -46 -50 -18 -27 -36 -50 -41 -50 -5 0
-9 -4 -9 -10 0 -5 21 -7 51 -3 51 6 51 6 44 -18 -11 -36 -52 -87 -76 -94 -14
-5 -18 -10 -11 -17 22 -22 98 51 109 104 7 35 15 40 48 32 20 -5 25 -12 25
-38 0 -17 -3 -42 -7 -54 -5 -20 -10 -23 -34 -18 -36 7 -38 -7 -2 -23 38 -17
57 5 63 77 5 52 7 57 28 55 27 -3 30 23 3 32 -24 7 -52 38 -55 62 -3 19 -46
32 -46 14z"/>
<path d="M6489 6510 c0 -8 -2 -26 -3 -40 -4 -35 4 -52 22 -45 23 9 6 -72 -24
-112 -13 -17 -20 -34 -15 -37 13 -8 47 37 61 80 8 23 18 34 31 34 16 0 19 -7
19 -46 0 -44 -1 -46 -25 -42 -31 6 -33 -7 -4 -23 31 -16 45 5 53 78 l6 62 -37
-6 c-28 -5 -35 -3 -31 8 3 9 17 13 35 12 28 -3 29 -1 30 45 l1 47 -59 0 c-45
0 -59 -3 -60 -15z m91 -30 c0 -28 -3 -30 -35 -30 -30 0 -35 3 -35 24 0 19 6
26 28 29 15 2 30 5 35 6 4 0 7 -12 7 -29z"/>
<path d="M8258 6523 c-43 -2 -78 -8 -78 -13 0 -6 10 -10 23 -10 19 0 22 -5 22
-37 -1 -50 -22 -111 -51 -150 -13 -17 -20 -34 -15 -37 12 -8 42 30 65 83 11
22 22 41 25 41 3 0 14 -14 24 -31 21 -37 13 -52 -39 -71 -19 -6 -34 -16 -34
-20 0 -13 17 -9 65 14 l45 22 40 -23 c40 -22 70 -23 70 -1 0 5 -7 10 -15 10
-24 0 -65 23 -65 36 0 7 11 30 25 50 14 20 25 43 25 51 0 11 -7 13 -25 9 -21
-5 -25 -3 -25 17 0 13 5 28 11 34 11 11 4 35 -9 31 -4 -1 -42 -4 -84 -5z m65
-44 c-5 -18 -39 -39 -64 -39 -5 0 -9 14 -9 30 0 28 2 30 39 30 35 0 39 -2 34
-21z m15 -91 c-12 -21 -25 -38 -29 -38 -6 0 -39 61 -39 73 0 3 20 5 45 5 l45
-1 -22 -39z"/>
<path d="M10657 6521 c-10 -3 -63 -5 -117 -4 -59 2 -101 -1 -105 -7 -4 -6 18
-10 61 -10 l67 0 -5 -115 c-3 -79 -1 -114 6 -112 6 2 12 35 12 78 1 41 2 78 3
83 0 4 16 -3 35 -18 19 -14 39 -26 45 -26 23 0 9 16 -37 47 -70 45 -65 63 16
63 45 0 62 4 60 12 -5 15 -19 18 -41 9z"/>
<path d="M10818 6523 c-38 -2 -68 -8 -68 -13 0 -6 12 -10 26 -10 22 0 24 -3
19 -22 -4 -13 -15 -35 -26 -50 -10 -15 -19 -32 -19 -38 0 -16 17 -12 24 6 6
15 8 15 26 -1 28 -25 25 -46 -10 -80 -30 -29 -38 -45 -21 -45 30 0 130 147
116 170 -4 6 -1 10 5 10 6 0 9 4 6 9 -3 5 -24 7 -45 4 -37 -5 -39 -4 -34 16 5
18 13 21 55 21 44 0 49 2 38 15 -7 8 -15 14 -19 13 -3 -1 -36 -3 -73 -5z m38
-81 c13 -8 1 -52 -14 -52 -15 0 -44 38 -37 49 7 13 35 14 51 3z"/>
<path d="M11813 6523 c-106 -4 -147 -23 -48 -23 l55 0 0 -95 c0 -95 0 -95 -25
-95 -24 0 -25 2 -25 75 0 96 -18 98 -22 3 -3 -71 -4 -73 -30 -76 -16 -2 -28
-8 -28 -13 0 -5 58 -9 135 -9 83 0 135 4 135 10 0 12 -10 13 -72 10 l-48 -2 0
51 0 51 46 0 c32 0 44 4 41 13 -2 8 -19 11 -46 9 l-41 -3 0 35 0 36 55 0 c53
0 72 11 39 24 -9 3 -16 5 -17 4 -1 -1 -48 -4 -104 -5z"/>
<path d="M12402 6518 c-16 -16 -16 -71 1 -65 6 2 12 15 12 28 0 32 39 39 55 9
9 -17 6 -26 -15 -54 -25 -33 -34 -76 -15 -76 6 0 10 8 10 18 0 10 11 29 25 42
31 30 35 84 6 100 -26 14 -64 13 -79 -2z"/>
<path d="M1300 6387 c0 -86 3 -126 10 -122 15 9 185 9 199 1 8 -5 11 27 11
113 0 67 -1 124 -2 128 -2 3 -51 7 -110 7 l-108 1 0 -128z m50 79 c0 -19 6
-26 28 -29 19 -3 14 -4 -15 -6 -41 -1 -43 0 -43 29 0 20 5 30 15 30 9 0 15 -9
15 -24z m157 -73 l-2 -98 -72 -3 c-48 -2 -73 1 -73 8 0 6 6 10 13 9 6 -1 33
-1 60 0 l47 1 0 49 c0 49 -1 50 -32 54 -32 4 -32 4 5 5 20 1 37 6 37 11 0 6
-15 8 -32 7 -18 -2 -25 -1 -15 1 10 3 17 14 17 29 0 19 5 24 24 24 24 0 24 -1
23 -97z m-79 70 c-10 -2 -26 -2 -35 0 -10 3 -2 5 17 5 19 0 27 -2 18 -5z m-88
-113 c0 -33 -4 -60 -10 -60 -6 0 -10 27 -10 60 0 33 4 60 10 60 6 0 10 -27 10
-60z m27 -12 c-2 -13 -4 -5 -4 17 -1 22 1 32 4 23 2 -10 2 -28 0 -40z m48 42
c-3 -5 -13 -10 -21 -10 -8 0 -14 5 -14 10 0 6 9 10 21 10 11 0 17 -4 14 -10z
m42 -22 c-3 -7 -5 -2 -5 12 0 14 2 19 5 13 2 -7 2 -19 0 -25z m-21 -18 c8 0
14 -4 14 -10 0 -16 -27 -12 -34 6 -3 8 -10 12 -16 9 -5 -3 -10 -2 -10 4 0 15
25 19 28 4 2 -7 10 -13 18 -13z"/>
<path d="M3570 6510 c0 -5 9 -10 20 -10 17 0 20 -7 20 -45 0 -57 -22 -111 -62
-152 -23 -24 -27 -33 -16 -33 25 0 76 65 89 112 l11 43 13 -38 c7 -20 18 -44
25 -52 10 -11 6 -17 -23 -28 -18 -8 -44 -18 -56 -22 -11 -3 -19 -10 -16 -15 7
-11 59 4 92 25 23 15 28 15 69 -4 24 -12 51 -21 60 -21 28 0 10 22 -30 35 -20
7 -40 16 -43 19 -3 3 9 28 26 56 17 28 31 52 31 55 0 3 -14 5 -31 5 -24 0 -30
3 -25 16 25 65 26 64 -68 64 -51 0 -86 -4 -86 -10z m140 -17 c-1 -38 -14 -53
-46 -53 -31 0 -34 3 -34 30 0 28 2 30 40 30 22 0 40 -3 40 -7z m30 -79 c0 -11
-34 -64 -41 -64 -4 0 -16 16 -28 35 l-20 35 44 0 c25 0 45 -3 45 -6z"/>
<path d="M5958 6473 c-3 -27 -4 -49 -4 -49 1 -1 30 1 65 5 l63 6 3 43 3 42
-63 0 -63 0 -4 -47z m102 2 c0 -22 -4 -25 -40 -25 -36 0 -40 3 -40 25 0 23 4
25 40 25 36 0 40 -2 40 -25z"/>
<path d="M8692 6508 c3 -7 -6 -48 -18 -91 -12 -44 -20 -86 -17 -93 8 -22 40
-26 71 -10 60 31 68 131 10 131 -24 -1 -25 2 -17 30 12 42 12 45 -12 45 -12 0
-19 -5 -17 -12z m56 -117 c5 -30 -24 -71 -49 -71 -19 0 -21 4 -15 32 12 60 57
87 64 39z"/>
<path d="M3129 6497 c12 -15 -18 -136 -39 -163 -20 -23 -1 -34 61 -34 55 0 60
2 69 26 15 39 11 51 -8 27 -17 -22 -68 -38 -76 -25 -7 13 32 143 49 163 18 19
17 19 -25 19 -34 0 -40 -3 -31 -13z"/>
<path d="M4733 6503 c9 -2 17 -7 17 -9 0 -14 -53 -160 -62 -171 -15 -18 8 -25
73 -21 46 3 55 7 68 30 21 37 8 45 -22 14 -26 -26 -51 -33 -61 -18 -8 13 34
144 52 165 14 16 12 17 -34 16 -27 -1 -41 -3 -31 -6z"/>
<path d="M6640 6453 c0 -32 -3 -68 -6 -80 -5 -17 -2 -23 10 -23 13 0 16 12 16
64 0 35 3 71 6 80 4 11 1 16 -10 16 -13 0 -16 -11 -16 -57z"/>
<path d="M10926 6488 c-3 -13 -6 -51 -6 -85 0 -49 3 -63 15 -63 12 0 15 14 15
69 0 38 3 76 6 85 4 10 1 16 -9 16 -8 0 -17 -10 -21 -22z"/>
<path d="M272 6488 c-14 -14 -16 -38 -2 -38 6 0 10 5 10 10 0 18 39 10 50 -10
13 -23 2 -47 -42 -98 -16 -18 -26 -37 -23 -43 4 -5 28 -9 54 -9 40 0 50 3 54
20 6 22 -8 37 -18 20 -7 -11 -45 -14 -45 -3 0 4 9 16 20 28 25 27 38 72 30
105 -5 20 -13 26 -40 28 -19 2 -41 -3 -48 -10z"/>
<path d="M433 6465 c-9 -19 -15 -36 -12 -37 2 -2 18 -10 34 -18 36 -19 43 -50
16 -74 -17 -15 -23 -16 -36 -6 -12 10 -16 9 -21 -5 -18 -47 67 -31 92 17 21
40 11 74 -28 98 -32 19 -29 25 16 32 37 6 30 28 -8 28 -32 0 -39 -5 -53 -35z"/>
<path d="M7888 6490 c-1 -5 -2 -48 0 -94 3 -68 6 -84 18 -79 7 3 12 9 9 13 -3
4 -6 44 -7 89 -1 71 -9 101 -20 71z"/>
<path d="M9797 6485 c-4 -8 -2 -17 3 -20 6 -4 10 3 10 14 0 25 -6 27 -13 6z"/>
<path d="M9035 6461 c-3 -6 -3 -22 1 -36 5 -22 3 -25 -19 -25 -14 0 -29 -4
-32 -10 -3 -6 5 -10 19 -10 20 0 25 -5 28 -32 4 -43 26 -48 30 -6 2 28 7 34
31 36 37 4 35 22 -3 22 -27 0 -30 3 -30 29 0 31 -14 49 -25 32z"/>
<path d="M11160 6404 c0 -53 1 -55 23 -48 12 4 32 7 45 6 20 -2 22 3 22 48 l0
50 -45 0 -45 0 0 -56z m70 6 c0 -25 -4 -30 -25 -30 -21 0 -25 5 -25 30 0 25 4
30 25 30 21 0 25 -5 25 -30z"/>
<path d="M7327 6426 c-38 -33 -55 -83 -34 -104 14 -13 21 -14 43 -3 22 10 29
9 35 -1 12 -19 32 4 34 39 1 15 5 42 9 59 8 30 7 31 -26 32 -22 1 -43 -7 -61
-22z m49 -23 c4 -24 -26 -63 -47 -63 -23 0 -24 12 -4 50 21 41 46 48 51 13z"/>
<path d="M7440 6444 c0 -3 7 -12 15 -20 22 -23 18 -51 -10 -70 -26 -17 -34
-44 -12 -44 7 0 20 12 29 28 17 26 17 26 18 4 0 -12 7 -25 15 -28 15 -6 45 17
45 35 0 15 -20 14 -21 -1 0 -7 -5 0 -11 15 -10 29 3 59 25 54 6 -1 13 6 15 16
4 21 -21 23 -39 1 -11 -14 -13 -14 -21 0 -8 15 -48 23 -48 10z"/>
<path d="M8813 6443 c-18 -7 -16 -23 3 -23 11 0 14 -8 12 -32 -2 -24 -10 -36
-31 -46 -23 -11 -26 -16 -16 -28 10 -13 15 -12 35 7 20 19 23 19 32 4 7 -14
13 -15 31 -6 23 13 29 36 7 28 -9 -4 -16 3 -20 19 -8 31 -1 44 25 44 12 0 19
7 19 20 0 24 -22 26 -40 5 -11 -13 -15 -14 -29 -2 -9 8 -22 12 -28 10z"/>
<path d="M9250 6443 c-48 -18 -66 -95 -30 -126 21 -18 25 -17 79 19 1 2 0 8
-4 13 -4 8 -11 6 -22 -4 -8 -9 -20 -14 -27 -12 -19 6 -19 57 0 78 21 23 34 24
34 4 0 -8 7 -15 16 -15 10 0 14 7 12 23 -3 22 -28 31 -58 20z"/>
<path d="M9337 6443 c-4 -3 0 -11 8 -17 19 -15 23 -109 6 -130 -8 -9 -20 -16
-27 -16 -17 0 -18 -16 -3 -26 11 -7 98 81 130 131 24 39 25 68 2 63 -12 -2
-17 -11 -15 -26 3 -21 -25 -71 -40 -72 -5 0 -8 15 -8 34 0 19 -3 41 -6 50 -6
16 -35 22 -47 9z"/>
<path d="M2007 6425 c-4 -8 -2 -17 2 -20 5 -3 7 -14 4 -25 -4 -13 0 -20 10
-20 15 0 29 44 20 67 -7 18 -29 17 -36 -2z"/>
<path d="M10103 6424 c-8 -22 9 -49 33 -49 30 0 27 59 -4 63 -14 2 -25 -3 -29
-14z m36 -19 c3 -12 -13 -9 -17 4 -2 7 0 11 6 7 5 -3 10 -8 11 -11z"/>
<path d="M5360 6421 c0 -17 30 -61 42 -61 18 0 3 43 -19 58 -16 10 -23 11 -23
3z"/>
<path d="M7635 6421 c-9 -15 6 -18 74 -17 42 1 66 5 68 14 6 15 -132 18 -142
3z"/>
<path d="M9540 6420 c0 -6 34 -10 81 -10 51 0 78 4 74 10 -3 6 -40 10 -81 10
-43 0 -74 -4 -74 -10z"/>
<path d="M5993 6407 c-48 -11 -60 -33 -13 -23 22 4 30 2 30 -9 0 -10 -11 -15
-35 -15 -19 0 -35 -4 -35 -10 0 -10 20 -14 53 -10 14 1 18 -4 15 -22 -2 -19
-9 -23 -41 -23 -23 0 -37 -5 -37 -13 0 -18 162 -12 168 6 3 10 -5 12 -32 7
-33 -7 -36 -5 -36 17 0 18 6 24 27 26 33 3 40 9 26 23 -8 8 -17 8 -32 0 -18
-10 -21 -9 -21 8 0 14 9 23 25 27 14 3 25 10 25 15 0 11 -32 10 -87 -4z"/>
<path d="M3264 6383 c-12 -4 -6 -123 7 -137 16 -17 34 10 19 28 -7 10 -10 29
-7 48 6 37 -3 67 -19 61z"/>
<path d="M4870 6375 c-7 -9 -10 -19 -6 -22 4 -4 11 -1 15 6 13 20 31 4 31 -28
0 -16 -10 -37 -25 -51 -34 -32 -32 -40 15 -40 27 0 40 4 40 14 0 9 -8 12 -27
8 l-27 -5 27 29 c28 30 35 72 15 92 -17 17 -43 15 -58 -3z"/>
<path d="M7637 6373 c-15 -15 -4 -18 65 -18 48 0 73 4 75 13 4 9 -14 12 -64
12 -39 0 -73 -3 -76 -7z"/>
<path d="M9540 6370 c0 -6 32 -10 75 -10 43 0 75 4 75 10 0 6 -32 10 -75 10
-43 0 -75 -4 -75 -10z"/>
<path d="M6880 6331 c0 -17 5 -31 10 -31 6 0 10 11 10 24 0 14 -4 28 -10 31
-6 4 -10 -7 -10 -24z"/>
<path d="M12420 6313 c0 -13 6 -23 14 -23 19 0 28 14 21 32 -9 24 -35 17 -35
-9z"/>
<path d="M564 6314 c3 -9 6 -18 6 -20 0 -3 5 -2 10 1 16 10 12 35 -6 35 -11 0
-14 -5 -10 -16z"/>
<path d="M2570 6325 c0 -12 24 -55 32 -55 11 0 10 17 -2 41 -9 17 -30 27 -30
14z"/>
<path d="M4180 6318 c0 -7 7 -21 14 -31 19 -24 31 -4 14 23 -14 22 -28 26 -28
8z"/>
<path d="M1428 5698 c7 -7 12 -42 12 -88 0 -46 -5 -81 -12 -88 -9 -9 -4 -12
25 -12 20 0 37 5 37 10 0 6 -4 10 -10 10 -6 0 -10 33 -10 80 0 47 4 80 10 80
6 0 10 5 10 10 0 6 -17 10 -37 10 -29 0 -34 -3 -25 -12z"/>
<path d="M2403 5698 c-11 -14 -23 -57 -29 -99 -2 -14 6 -39 16 -57 15 -24 27
-32 49 -32 42 0 61 32 61 100 0 68 -19 100 -59 100 -16 0 -33 -6 -38 -12z m62
-31 c12 -44 1 -119 -18 -131 -14 -8 -20 -8 -27 4 -14 21 -12 124 2 138 19 19
37 14 43 -11z"/>
<path d="M2218 5624 c-38 -19 -68 -36 -68 -39 0 -7 124 -65 138 -65 26 0 9 17
-40 42 l-53 25 49 24 c28 13 52 30 54 37 5 18 -6 15 -80 -24z"/>
<path d="M1971 5616 c-30 -32 -40 -93 -16 -102 10 -4 25 -2 35 4 13 8 21 7 29
-1 16 -16 36 7 37 41 0 15 4 39 8 55 8 26 7 27 -31 27 -29 0 -46 -7 -62 -24z
m59 -1 c0 -26 -30 -75 -45 -75 -21 0 -18 33 6 64 23 29 39 34 39 11z"/>
<path d="M11880 5601 c0 -6 4 -13 10 -16 6 -3 7 1 4 9 -7 18 -14 21 -14 7z"/>
<path d="M11970 5574 c0 -14 4 -23 9 -20 5 3 7 15 4 26 -7 28 -13 25 -13 -6z"/>
<path d="M1525 5540 c-7 -12 2 -30 16 -30 12 0 12 27 0 35 -5 3 -12 1 -16 -5z"/>
<path d="M12063 5518 c-5 -7 -16 -28 -24 -45 -8 -18 -17 -33 -21 -33 -5 0 -8
-9 -8 -20 0 -11 -4 -20 -10 -20 -5 0 -10 -9 -10 -19 0 -11 -4 -23 -10 -26 -5
-3 -10 -18 -10 -33 1 -22 7 -14 30 35 16 34 40 74 54 88 23 23 28 24 41 11 8
-8 15 -19 15 -25 0 -6 5 -11 10 -11 6 0 10 -9 10 -20 0 -11 5 -20 10 -20 6 0
10 -10 10 -23 0 -12 9 -30 20 -40 19 -16 20 -16 20 3 0 11 -4 20 -10 20 -5 0
-10 7 -10 16 0 17 -64 141 -84 162 -11 11 -15 11 -23 0z"/>
<path d="M11903 5495 c-3 -9 -3 -18 0 -21 9 -9 27 6 27 22 0 19 -19 18 -27 -1z"/>
<path d="M11850 5430 c0 -5 7 -7 15 -4 8 4 15 8 15 10 0 2 -7 4 -15 4 -8 0
-15 -4 -15 -10z"/>
<path d="M12070 5421 c0 -25 6 -27 13 -6 4 8 2 17 -3 20 -6 4 -10 -3 -10 -14z"/>
<path d="M9562 5338 c0 -34 -43 -168 -53 -168 -5 0 -9 -4 -9 -8 0 -11 121 -10
138 1 6 5 12 17 12 28 0 20 0 20 -26 0 -30 -23 -64 -28 -64 -8 0 25 43 157 51
157 5 0 9 5 9 10 0 6 -13 10 -29 10 -23 0 -29 -4 -29 -22z"/>
<path d="M2410 5320 c7 -14 7 -25 0 -37 -6 -10 -19 -43 -30 -73 l-19 -55 21
-18 c25 -21 52 -15 90 20 47 45 43 113 -8 113 -17 0 -24 5 -21 13 20 54 20 57
-13 57 -27 0 -30 -2 -20 -20z m65 -109 c-8 -34 -43 -71 -61 -64 -19 7 -18 29
3 64 27 46 70 47 58 0z"/>
<path d="M1430 5315 c8 -10 11 -42 9 -100 -2 -47 -2 -85 1 -86 3 0 13 -2 22
-4 21 -4 33 11 18 20 -14 9 -13 158 2 173 9 9 4 12 -26 12 -33 0 -37 -2 -26
-15z"/>
<path d="M1526 5303 c21 -41 18 -129 -5 -152 -18 -18 -17 -18 20 -17 37 1 49
9 30 20 -13 8 -7 142 8 160 12 14 9 16 -27 16 l-41 0 15 -27z"/>
<path d="M12077 5323 c-4 -3 -7 -22 -7 -41 0 -44 13 -34 16 13 3 36 2 40 -9
28z"/>
<path d="M2213 5250 c-35 -17 -63 -34 -63 -39 0 -8 122 -81 135 -81 3 0 5 6 5
13 -1 12 -63 57 -81 57 -22 0 -6 18 33 36 23 10 44 25 46 32 5 17 -5 15 -75
-18z"/>
<path d="M1966 5237 c-29 -38 -34 -88 -11 -107 13 -10 19 -10 34 4 15 13 20
14 24 4 8 -23 40 5 42 37 1 17 6 45 10 63 l8 32 -41 0 c-35 0 -45 -5 -66 -33z
m64 -10 c0 -28 -26 -67 -46 -67 -19 0 -18 40 2 68 20 29 44 28 44 -1z"/>
<path d="M9691 5230 c-12 -7 -12 -11 -2 -24 9 -11 12 -33 9 -66 -4 -42 -2 -50
11 -50 15 0 16 10 13 68 -4 73 -10 86 -31 72z"/>
<path d="M12071 5224 c0 -11 3 -14 6 -6 3 7 2 16 -1 19 -3 4 -6 -2 -5 -13z"/>
<path d="M1610 5147 c0 -21 12 -28 27 -16 19 16 16 29 -7 29 -11 0 -20 -6 -20
-13z"/>
<path d="M9589 4994 c0 -10 0 -515 1 -1121 l0 -1103 -285 0 c-157 0 -285 -4
-285 -8 0 -4 126 -7 279 -6 l279 2 4 -21 c2 -12 4 -402 4 -867 l-1 -845 -65
-85 c-36 -46 -77 -98 -92 -115 -27 -29 -36 -55 -20 -55 12 0 132 153 132 169
0 14 38 20 43 7 2 -6 2 -57 0 -114 -2 -57 1 -111 7 -120 6 -12 9 31 10 136 0
151 5 178 37 210 7 7 13 18 13 23 0 12 -17 12 -25 -1 -4 -6 -11 -8 -16 -5 -14
9 -12 1641 2 1668 9 16 9 22 0 25 -8 3 -11 282 -11 1119 0 614 -2 1118 -5
1121 -3 3 -5 -3 -6 -14z"/>
<path d="M12580 4995 c7 -8 8 -20 4 -27 -5 -7 -9 -15 -10 -18 -4 -25 -36 -116
-45 -126 -10 -12 1 -14 60 -14 39 0 71 4 71 9 0 12 57 41 64 33 13 -12 5 -42
-19 -70 -14 -17 -25 -33 -25 -36 0 -14 78 -6 83 9 5 11 0 13 -24 8 l-31 -6 27
29 c41 45 19 111 -31 89 -11 -4 -23 -7 -28 -6 -4 1 -16 -7 -26 -19 -23 -27
-70 -27 -70 -1 0 11 4 22 9 26 6 3 10 13 9 23 0 27 28 93 43 103 9 6 -1 9 -30
9 -37 0 -42 -2 -31 -15z"/>
<path d="M1417 4974 c-3 -4 0 -13 8 -21 17 -17 21 -148 5 -158 -21 -13 -9 -25
25 -25 19 0 35 5 35 10 0 6 -4 10 -10 10 -6 0 -10 35 -10 85 0 50 4 85 10 85
6 0 10 5 10 10 0 11 -63 14 -73 4z"/>
<path d="M1510 4971 c0 -5 5 -11 12 -13 16 -6 15 -153 -2 -173 -11 -13 -7 -15
24 -15 20 0 36 5 36 10 0 6 -4 10 -10 10 -6 0 -10 35 -10 85 0 50 4 85 10 85
6 0 10 5 10 10 0 6 -16 10 -35 10 -19 0 -35 -4 -35 -9z"/>
<path d="M1600 4971 c0 -5 4 -11 10 -13 14 -5 16 -161 2 -166 -25 -8 -11 -23
19 -20 l32 3 -2 93 c-2 62 1 92 9 92 6 0 8 5 5 10 -8 13 -75 13 -75 1z"/>
<path d="M2384 4968 c-49 -23 -43 -178 7 -193 49 -16 89 31 89 105 0 82 -38
117 -96 88z m64 -100 c-6 -58 -25 -86 -45 -65 -17 17 -28 80 -18 104 5 10 9
20 9 23 1 3 5 11 10 19 8 12 13 10 29 -10 15 -18 18 -34 15 -71z"/>
<path d="M2130 4916 c0 -7 12 -19 28 -27 78 -39 78 -39 22 -66 -27 -13 -50
-28 -50 -34 0 -12 26 -5 92 25 49 22 61 42 31 53 -10 3 -25 12 -33 19 -8 6
-32 19 -52 27 -30 12 -38 13 -38 3z"/>
<path d="M1981 4907 c-58 -30 -63 -137 -6 -137 30 0 77 41 55 48 -8 3 -16 0
-18 -6 -5 -17 -42 -15 -48 2 -7 18 20 72 40 79 9 4 16 -2 19 -15 7 -24 27 -15
27 12 0 29 -31 37 -69 17z"/>
<path d="M1702 4793 c2 -10 10 -18 18 -18 8 0 16 8 18 18 2 12 -3 17 -18 17
-15 0 -20 -5 -18 -17z"/>
<path d="M12069 4663 c-1 -60 -2 -129 -4 -155 -1 -27 2 -48 7 -48 4 0 8 70 8
155 0 85 -2 155 -5 155 -3 0 -6 -48 -6 -107z"/>
<path d="M12412 4740 c-16 -26 -15 -29 7 -23 12 3 19 13 18 24 -2 24 -9 24
-25 -1z"/>
<path d="M12372 4688 c-7 -7 -12 -18 -12 -25 0 -7 -4 -13 -10 -13 -5 0 -24
-21 -42 -47 -33 -50 -44 -63 -66 -88 -7 -8 -11 -15 -8 -15 7 0 -25 -39 -70
-84 -17 -17 -37 -45 -44 -62 -14 -31 -15 -31 -38 -16 -24 16 -24 16 -18 -15 4
-19 3 -34 -3 -38 -6 -3 -11 -14 -11 -25 0 -10 -7 -20 -15 -24 -8 -3 -15 -12
-15 -20 0 -7 -7 -16 -15 -20 -8 -3 -15 -10 -15 -16 0 -6 -6 -17 -12 -24 -53
-54 -98 -106 -98 -111 0 -7 -54 -79 -77 -103 -7 -7 -13 -17 -13 -21 0 -7 -8
-18 -48 -67 -5 -5 -14 -20 -21 -32 -6 -12 -34 -48 -61 -81 -28 -33 -50 -63
-50 -66 0 -3 -5 -11 -10 -18 -42 -49 -56 -67 -83 -107 -17 -25 -36 -50 -42
-56 -5 -6 -21 -26 -35 -44 -30 -41 -71 -90 -87 -108 -6 -6 -15 -21 -18 -32 -3
-11 -13 -20 -21 -20 -8 0 -13 -4 -10 -9 4 -5 3 -11 -1 -13 -5 -1 -20 -21 -35
-43 -15 -22 -38 -52 -50 -67 -46 -53 -54 -64 -75 -98 -12 -19 -34 -47 -48 -62
-14 -16 -23 -28 -20 -28 3 0 -11 -17 -31 -37 -19 -21 -45 -55 -56 -75 -12 -21
-25 -38 -30 -38 -4 0 -8 -5 -8 -11 0 -39 -3 -39 -671 -39 -353 0 -639 -3 -636
-6 4 -4 269 -7 589 -6 424 0 587 -3 597 -12 11 -8 15 -8 18 2 3 6 13 12 23 12
16 0 17 -4 9 -32 -5 -18 -18 -40 -29 -50 -11 -9 -20 -19 -20 -23 0 -8 -115
-161 -148 -197 -14 -16 -22 -28 -18 -28 5 0 -3 -9 -18 -21 -14 -11 -26 -25
-26 -30 0 -6 -6 -17 -12 -24 -7 -8 -19 -21 -26 -30 -20 -23 -105 -138 -117
-157 -5 -9 -42 -56 -82 -104 -40 -49 -78 -100 -85 -114 -7 -14 -22 -35 -33
-47 -11 -12 -31 -36 -45 -53 -14 -17 -30 -36 -35 -43 -6 -7 -37 -48 -70 -92
-33 -44 -64 -85 -70 -91 -5 -6 -17 -22 -25 -34 -8 -12 -21 -28 -28 -36 -9 -10
-9 -14 0 -20 6 -4 14 -2 16 4 2 7 9 18 15 25 7 7 28 33 47 57 19 25 38 47 42
48 4 2 8 10 8 18 0 8 3 14 8 14 4 0 18 17 32 38 14 20 35 47 48 60 12 13 22
26 22 31 0 4 18 27 40 52 22 24 40 49 40 54 0 6 14 24 30 42 17 18 30 34 30
38 0 5 37 50 68 81 6 7 12 15 12 19 0 3 9 16 20 28 26 28 170 223 170 231 0 3
10 16 23 29 24 25 29 32 97 122 57 76 62 83 78 100 6 7 12 21 12 29 0 9 6 16
13 16 6 0 20 14 29 30 9 17 29 35 43 42 14 6 25 19 25 28 0 19 84 139 125 180
14 14 25 29 25 33 0 6 28 43 58 73 6 7 12 17 12 23 0 6 9 16 20 23 11 7 20 18
20 25 0 7 5 13 10 13 6 0 10 5 10 10 0 6 11 22 24 35 13 12 34 40 47 62 13 21
34 48 46 59 13 12 23 26 23 31 0 5 16 24 35 43 19 19 35 39 35 45 0 7 9 20 20
30 11 10 20 24 20 32 0 7 4 13 9 13 5 0 12 8 15 18 3 9 26 38 51 64 25 27 45
51 45 55 0 5 11 22 25 38 29 35 42 53 92 120 20 28 41 52 45 53 4 2 8 12 8 23
0 10 4 19 8 19 4 0 15 12 24 28 9 15 28 39 42 54 14 15 26 30 26 34 0 4 14 20
30 36 17 15 30 32 30 36 0 6 11 20 58 78 5 5 15 20 21 32 10 18 16 20 31 12
22 -12 31 -13 28 -2 -1 4 1 24 6 45 6 34 19 55 52 91 6 7 15 22 18 34 4 12 14
22 22 22 8 0 14 6 14 13 0 6 14 28 30 47 16 19 30 38 30 42 0 4 11 19 25 34
13 14 30 39 37 55 7 16 20 31 28 34 13 5 60 67 60 80 0 9 -16 5 -28 -7z"/>
<path d="M12060 4416 c0 -8 5 -18 10 -21 6 -3 10 3 10 14 0 12 -4 21 -10 21
-5 0 -10 -6 -10 -14z"/>
<path d="M3116 4295 c-6 -22 -12 -25 -51 -25 -57 0 -59 -18 -2 -22 l42 -3 -42
-44 c-41 -42 -52 -61 -35 -61 5 0 18 9 30 20 12 11 24 20 28 20 8 0 -5 -90
-17 -112 -7 -14 -6 -18 6 -18 9 0 18 12 22 30 5 29 7 30 64 30 46 0 59 -3 59
-15 0 -9 -9 -15 -25 -15 -32 0 -32 -12 -1 -26 37 -17 46 0 46 91 l0 81 -67 -4
c-61 -4 -66 -3 -54 11 9 12 34 17 89 19 47 2 75 7 72 13 -3 6 -34 8 -73 6 -65
-3 -67 -2 -65 19 4 32 -18 36 -26 5z m104 -105 c0 -5 -25 -10 -55 -10 -30 0
-55 5 -55 10 0 6 25 10 55 10 30 0 55 -4 55 -10z m0 -45 c0 -12 -13 -15 -55
-15 -42 0 -55 3 -55 15 0 12 13 15 55 15 42 0 55 -3 55 -15z"/>
<path d="M3743 4285 c2 -5 14 -12 27 -13 21 -4 22 -7 17 -57 -6 -56 -27 -106
-60 -142 -17 -19 -18 -23 -4 -23 21 0 54 44 69 91 10 36 28 53 28 28 0 -6 9
-24 21 -40 l20 -29 -50 -22 c-28 -12 -51 -25 -51 -30 0 -13 22 -8 70 15 45 22
45 22 92 4 26 -11 55 -17 63 -13 25 9 9 23 -35 30 -22 3 -40 12 -40 19 0 6 13
32 29 56 33 50 32 64 -6 55 -24 -6 -25 -5 -21 22 3 16 7 36 9 44 3 11 -13 14
-88 15 -58 0 -92 -4 -90 -10z m147 -33 c0 -26 -20 -42 -52 -42 -24 0 -28 4
-28 30 0 28 2 30 40 30 32 0 40 -4 40 -18z m23 -91 c-26 -42 -42 -43 -66 -1
l-18 30 51 0 52 0 -19 -29z"/>
<path d="M2750 4211 c0 -63 2 -72 16 -67 9 3 49 6 90 6 l74 0 0 68 0 67 -90 0
-90 0 0 -74z m151 42 c0 -5 1 -24 2 -43 l2 -35 -67 -3 -68 -3 0 46 0 45 65 0
c36 0 65 -3 66 -7z"/>
<path d="M1931 4201 c-18 -44 -39 -86 -47 -92 -22 -18 -16 -29 17 -29 24 0 30
4 25 15 -10 27 5 45 39 45 35 0 53 -28 32 -49 -8 -8 -1 -11 24 -11 42 0 54 9
34 24 -8 6 -27 47 -43 90 -15 44 -33 81 -38 83 -6 2 -25 -33 -43 -76z m49 -23
c0 -11 -8 -18 -19 -18 -18 0 -19 3 -9 31 8 23 13 27 19 17 5 -7 9 -21 9 -30z"/>
<path d="M3496 4269 c6 -10 6 -58 1 -154 -2 -24 2 -30 18 -30 11 0 19 5 18 12
-8 38 -9 132 -2 156 7 24 5 27 -17 27 -16 0 -23 -4 -18 -11z"/>
<path d="M4195 4188 c0 -97 6 -111 43 -101 17 4 19 8 8 18 -8 9 -12 39 -11 94
1 76 0 81 -19 81 -20 0 -21 -6 -21 -92z"/>
<path d="M4288 4273 c8 -3 12 -30 12 -84 0 -65 -3 -81 -17 -86 -14 -5 -13 -8
5 -14 12 -5 32 -4 45 1 12 5 16 9 9 9 -10 1 -13 22 -10 91 l3 90 -30 -1 c-16
0 -24 -3 -17 -6z"/>
<path d="M2757 4097 c-20 -22 -36 -45 -34 -50 3 -10 97 70 97 84 0 20 -27 6
-63 -34z"/>
<path d="M2870 4133 c1 -12 69 -83 80 -83 20 0 9 23 -26 56 -34 33 -54 42 -54
27z"/>
<path d="M2097 4114 c-14 -14 -7 -35 11 -32 9 2 17 10 17 17 0 16 -18 25 -28
15z"/>
<path d="M12068 3893 c-1 -32 0 -101 3 -153 5 -87 5 -82 7 58 2 152 -3 203
-10 95z"/>
<path d="M3113 3590 c-4 -17 -14 -20 -54 -20 -62 0 -64 -18 -3 -22 l47 -3 -48
-52 c-46 -52 -44 -74 3 -30 l24 22 -5 -55 c-2 -30 -8 -65 -12 -77 -12 -38 13
-26 26 12 13 34 15 35 66 35 46 0 53 -3 53 -20 0 -15 -7 -20 -27 -20 l-28 -1
29 -16 c27 -14 30 -14 43 3 8 11 13 47 13 99 l0 81 -65 -4 c-57 -4 -64 -2 -59
12 5 13 22 16 85 16 62 0 79 3 79 14 0 12 -14 13 -77 9 -69 -6 -77 -4 -66 9 7
8 10 18 6 21 -12 13 -25 7 -30 -13z m102 -100 c4 -6 -17 -10 -54 -10 -34 0
-61 4 -61 10 0 6 24 10 54 10 30 0 58 -4 61 -10z m-5 -44 c0 -17 -22 -26 -65
-26 -35 0 -51 12 -40 30 10 16 105 13 105 -4z"/>
<path d="M3823 3593 c-46 -2 -83 -8 -83 -13 0 -6 9 -10 20 -10 18 0 20 -7 20
-55 0 -61 -19 -117 -52 -152 -27 -29 -16 -43 13 -17 27 23 58 90 59 124 1 23
3 22 20 -12 11 -20 24 -40 30 -43 21 -13 8 -27 -47 -53 -40 -18 -52 -27 -40
-30 11 -2 41 8 68 22 l50 25 32 -19 c33 -20 77 -27 77 -12 0 5 -18 14 -40 21
-48 14 -52 35 -15 89 33 49 32 63 -4 56 -27 -6 -28 -4 -24 20 3 15 9 29 14 31
9 6 1 36 -10 33 -3 -1 -43 -4 -88 -5z m67 -37 c0 -33 -13 -46 -46 -46 -31 0
-34 3 -34 30 0 28 2 30 40 30 28 0 40 -4 40 -14z m30 -78 c0 -16 -30 -48 -46
-48 -14 0 -34 30 -34 49 0 6 18 11 40 11 24 0 40 -5 40 -12z"/>
<path d="M2750 3506 c0 -62 3 -77 12 -68 7 7 42 12 88 12 l75 0 0 64 0 65 -88
3 -87 3 0 -79z m150 9 l0 -45 -65 0 -65 0 0 45 0 45 65 0 65 0 0 -45z"/>
<path d="M1870 3571 c0 -5 5 -11 11 -13 12 -4 15 -133 4 -167 -6 -19 -3 -20
61 -17 41 3 70 9 75 18 19 28 21 59 5 77 -11 13 -13 20 -5 28 18 18 2 58 -26
71 -31 14 -125 16 -125 3z m108 -23 c19 -19 14 -45 -10 -52 -36 -9 -38 -8 -38
29 0 27 4 35 18 35 10 0 23 -5 30 -12z m18 -103 c8 -31 -10 -55 -42 -55 -21 0
-24 5 -24 40 0 38 2 40 30 40 23 0 31 -5 36 -25z"/>
<path d="M3470 3570 c0 -5 5 -10 10 -10 6 0 10 -35 10 -85 0 -58 -4 -85 -12
-85 -22 0 0 -11 31 -16 18 -3 31 -1 31 5 0 6 -4 11 -10 11 -6 0 -10 33 -10 79
0 44 5 83 10 86 21 13 9 25 -25 25 -19 0 -35 -4 -35 -10z"/>
<path d="M4180 3570 c0 -5 5 -10 10 -10 15 0 13 -167 -2 -173 -7 -3 7 -6 32
-6 29 0 40 2 31 8 -18 12 -19 154 -1 175 11 14 7 16 -29 16 -22 0 -41 -4 -41
-10z"/>
<path d="M4288 3489 c3 -68 0 -94 -10 -100 -8 -6 4 -8 32 -8 25 0 39 3 33 6
-16 6 -18 173 -3 173 6 0 10 5 10 10 0 6 -15 10 -32 10 l-33 0 3 -91z"/>
<path d="M4380 3570 c0 -5 5 -10 10 -10 17 0 12 -146 -6 -164 -14 -15 -12 -16
23 -15 21 0 32 3 26 6 -16 6 -18 173 -3 173 6 0 10 5 10 10 0 6 -13 10 -30 10
-16 0 -30 -4 -30 -10z"/>
<path d="M2799 3431 c-22 -8 -82 -78 -77 -91 4 -12 13 -5 62 48 40 42 44 55
15 43z"/>
<path d="M2867 3434 c-3 -3 5 -16 17 -28 13 -11 28 -31 35 -43 14 -28 31 -30
31 -4 0 10 -16 33 -35 50 -39 34 -39 34 -48 25z"/>
<path d="M2082 3398 c6 -18 28 -21 28 -4 0 9 -7 16 -16 16 -9 0 -14 -5 -12
-12z"/>
<path d="M3110 2886 c0 -22 -19 -30 -62 -27 -27 1 -38 -2 -38 -13 0 -10 11
-14 35 -13 45 1 53 -8 27 -32 -12 -10 -22 -23 -22 -28 0 -6 -10 -17 -22 -26
-13 -8 -20 -18 -16 -22 4 -4 21 3 39 15 l31 23 -5 -44 c-2 -24 -8 -54 -12 -66
-11 -34 11 -28 25 7 12 28 16 30 66 30 40 0 54 -4 54 -14 0 -8 -12 -16 -27
-18 l-28 -4 28 -14 c17 -8 31 -10 36 -4 5 5 11 45 13 90 l5 81 -70 -5 c-66 -5
-68 -4 -57 14 10 16 22 19 83 16 38 -2 77 0 85 3 23 9 -6 36 -32 29 -11 -2
-42 -6 -68 -8 -45 -2 -47 -1 -42 21 5 17 2 23 -10 23 -9 0 -16 -6 -16 -14z
m100 -117 c0 -5 -25 -9 -55 -9 -37 0 -55 4 -55 13 0 8 16 11 55 9 30 -2 55 -8
55 -13z m0 -44 c0 -12 -13 -15 -55 -15 -42 0 -55 3 -55 15 0 12 13 15 55 15
42 0 55 -3 55 -15z"/>
<path d="M3925 2883 c-84 -4 -113 -13 -70 -22 29 -6 30 -8 28 -58 -2 -51 -26
-105 -66 -150 -17 -19 -18 -23 -4 -23 22 0 76 69 83 107 l6 33 24 -36 c13 -19
24 -39 24 -45 0 -6 -21 -20 -47 -32 -32 -14 -42 -22 -31 -25 10 -2 37 6 61 18
l44 22 34 -21 c40 -25 69 -27 69 -6 0 8 -7 15 -15 15 -20 0 -65 22 -65 31 0 5
11 25 25 45 33 49 33 68 -1 60 -26 -7 -26 -6 -19 26 15 70 21 65 -80 61z m57
-29 c3 -3 3 -17 -1 -32 -6 -21 -14 -28 -39 -30 -31 -3 -32 -2 -32 32 0 34 2
36 33 36 19 0 36 -3 39 -6z m38 -78 c0 -7 -41 -76 -45 -76 -5 0 -45 66 -45 74
0 3 20 6 45 6 25 0 45 -2 45 -4z"/>
<path d="M2750 2798 c0 -65 2 -76 15 -72 28 11 16 -23 -20 -55 -19 -17 -35
-33 -35 -36 0 -24 87 45 100 79 6 18 16 21 59 21 l52 0 3 70 3 70 -88 0 -89 0
0 -77z m148 5 l-3 -48 -62 -3 -63 -3 0 51 0 50 66 0 65 0 -3 -47z"/>
<path d="M12747 2871 c-17 -6 -16 -8 8 -19 33 -15 35 -15 35 2 0 18 -20 25
-43 17z"/>
<path d="M1905 2847 c-34 -29 -44 -91 -21 -135 28 -54 107 -64 145 -18 19 23
5 33 -17 13 -43 -39 -102 -4 -102 61 0 75 50 105 94 57 31 -33 38 -32 34 8 -3
31 -4 32 -55 34 -42 2 -57 -2 -78 -20z"/>
<path d="M3489 2785 c2 -58 -1 -90 -9 -100 -11 -13 -7 -15 26 -15 30 0 35 3
26 12 -15 15 -16 154 -2 163 19 12 10 25 -17 25 l-28 0 4 -85z"/>
<path d="M3570 2861 c0 -6 5 -13 10 -16 6 -3 10 -39 10 -80 0 -60 -3 -76 -17
-84 -14 -8 -7 -10 31 -11 48 0 49 0 31 20 -14 15 -16 31 -13 82 3 35 8 71 13
81 6 14 2 17 -29 17 -20 0 -36 -4 -36 -9z"/>
<path d="M4289 2783 c2 -56 -1 -88 -9 -98 -11 -13 -6 -15 30 -15 40 0 42 1 28
18 -11 12 -15 39 -14 94 1 69 0 77 -19 80 -19 4 -20 0 -16 -79z"/>
<path d="M4390 2841 c7 -14 7 -22 0 -26 -7 -4 -7 -12 -2 -18 15 -21 2 -110
-18 -119 -8 -4 5 -7 30 -7 34 -1 41 2 32 11 -7 7 -12 44 -12 95 0 77 -2 83
-20 83 -17 0 -19 -3 -10 -19z"/>
<path d="M4488 2779 c2 -52 -1 -85 -8 -95 -11 -12 -6 -14 26 -14 32 1 36 3 24
13 -11 9 -15 31 -14 83 0 39 4 76 8 82 5 8 -1 12 -16 12 -22 0 -23 -2 -20 -81z"/>
<path d="M12805 2850 c-10 -16 3 -28 53 -55 l47 -24 -52 -1 c-40 0 -53 -4 -53
-15 0 -11 13 -15 53 -16 34 -1 45 -4 32 -8 -71 -25 -85 -34 -85 -52 0 -23 0
-23 47 -3 90 39 143 69 143 81 0 17 -177 106 -185 93z"/>
<path d="M12071 2799 c-1 -9 -8 -20 -17 -23 -9 -3 -217 -6 -462 -7 -253 0
-438 -4 -427 -9 30 -12 1625 -13 1625 0 0 6 -122 10 -350 10 l-351 0 -9 23
c-6 15 -9 17 -9 6z"/>
<path d="M8515 2756 c11 -8 24 -11 30 -8 5 4 35 10 65 13 51 6 48 6 -29 8 -75
1 -83 -1 -66 -13z"/>
<path d="M8990 2760 c0 -5 5 -10 10 -10 6 0 10 5 10 10 0 6 -4 10 -10 10 -5 0
-10 -4 -10 -10z"/>
<path d="M12071 2712 c-14 -26 -7 -42 10 -25 6 6 9 19 7 29 -3 17 -5 17 -17
-4z"/>
<path d="M2896 2678 c44 -49 54 -56 54 -34 0 20 -58 76 -78 76 -9 0 0 -16 24
-42z"/>
<path d="M2072 2683 c2 -10 8 -18 13 -18 5 0 11 8 13 18 2 10 -3 17 -13 17
-10 0 -15 -7 -13 -17z"/>
<path d="M12770 2680 c0 -5 -7 -10 -16 -10 -8 0 -12 -4 -9 -10 12 -19 45 -11
45 10 0 11 -4 20 -10 20 -5 0 -10 -4 -10 -10z"/>
<path d="M11924 2659 c-16 -6 -14 -8 9 -8 15 -1 30 -8 33 -16 6 -14 24 -12 24
3 0 14 -47 28 -66 21z"/>
<path d="M12060 2640 c0 -5 7 -10 15 -10 8 0 15 5 15 10 0 6 -7 10 -15 10 -8
0 -15 -4 -15 -10z"/>
<path d="M11840 2621 c0 -6 5 -13 10 -16 6 -3 10 1 10 9 0 9 -4 16 -10 16 -5
0 -10 -4 -10 -9z"/>
<path d="M12940 2620 c0 -5 4 -10 10 -10 5 0 14 -9 20 -21 9 -16 8 -26 -5 -45
-8 -13 -22 -24 -30 -24 -8 0 -15 -7 -15 -16 0 -11 5 -14 16 -10 9 3 20 6 25 6
5 0 9 7 9 15 0 8 5 15 10 15 6 0 10 -9 10 -20 0 -22 20 -26 38 -8 17 17 15 29
-3 22 -12 -5 -15 2 -15 31 0 28 5 38 20 42 22 6 28 33 7 33 -7 0 -19 -6 -26
-12 -11 -10 -14 -10 -18 0 -6 14 -53 17 -53 2z"/>
<path d="M11970 2581 c0 -18 -10 -41 -25 -57 -13 -14 -22 -30 -19 -35 7 -12
27 9 48 48 18 37 20 59 6 68 -6 4 -10 -6 -10 -24z"/>
<path d="M11819 2563 c-6 -44 0 -68 22 -82 26 -16 35 -8 14 12 -8 9 -15 33
-15 56 0 46 -16 56 -21 14z"/>
<path d="M12071 2574 c0 -11 3 -14 6 -6 3 7 2 16 -1 19 -3 4 -6 -2 -5 -13z"/>
<path d="M11880 2470 c0 -5 5 -10 10 -10 6 0 10 5 10 10 0 6 -4 10 -10 10 -5
0 -10 -4 -10 -10z"/>
<path d="M3660 2155 c0 -11 6 -15 19 -10 44 14 30 -110 -21 -181 -17 -24 -29
-47 -25 -50 12 -13 61 55 81 113 l12 36 24 -39 c14 -21 26 -42 28 -47 2 -4
-22 -19 -54 -34 -32 -15 -53 -28 -46 -31 6 -2 37 8 68 22 l56 26 38 -21 c25
-14 45 -19 57 -14 15 6 10 11 -27 27 -24 10 -46 21 -48 23 -5 4 26 54 52 83
24 27 11 42 -31 34 -27 -5 -27 -3 -12 58 3 12 -12 16 -83 18 -75 2 -88 0 -88
-13z m138 -32 c-2 -23 -8 -29 -35 -31 -31 -3 -33 -1 -33 27 0 29 3 31 36 31
33 0 35 -2 32 -27z m42 -58 c0 -17 -32 -65 -43 -65 -7 0 -21 16 -30 35 l-17
35 45 0 c25 0 45 -2 45 -5z"/>
<path d="M1870 2149 c0 -4 5 -11 10 -14 15 -9 13 -162 -2 -168 -25 -10 90 -7
119 3 31 11 63 55 63 89 0 30 -19 65 -42 80 -23 14 -148 22 -148 10z m133 -40
c38 -46 4 -139 -52 -139 -18 0 -20 8 -23 86 l-3 86 30 -6 c17 -3 38 -16 48
-27z"/>
<path d="M2705 2152 c-2 -2 3 -11 11 -20 12 -11 15 -31 12 -76 -2 -34 -8 -69
-12 -78 -7 -15 -3 -18 24 -18 22 0 29 4 23 13 -10 17 -12 167 -1 167 4 0 8 4
8 8 0 9 -56 12 -65 4z"/>
<path d="M3300 2150 c0 -5 5 -10 10 -10 15 0 13 -167 -2 -173 -7 -3 4 -6 26
-6 30 -1 36 2 28 12 -6 7 -13 46 -16 86 -4 66 -3 74 15 78 10 3 16 9 13 14 -7
12 -74 11 -74 -1z"/>
<path d="M3390 2151 c0 -6 5 -13 10 -16 15 -9 13 -162 -2 -168 -7 -3 7 -6 32
-6 29 0 40 2 31 8 -17 11 -17 156 0 177 9 12 4 14 -30 14 -22 0 -41 -4 -41 -9z"/>
<path d="M4160 2148 c0 -4 5 -10 10 -13 14 -9 13 -148 -2 -163 -9 -9 -5 -12
21 -12 26 0 31 3 23 13 -17 21 -9 142 11 165 18 20 18 20 -22 19 -23 -1 -41
-5 -41 -9z"/>
<path d="M4250 2149 c0 -5 5 -9 10 -9 15 0 13 -167 -2 -173 -7 -3 5 -6 27 -6
30 -1 36 2 27 11 -15 15 -16 154 -2 163 19 12 10 20 -25 22 -19 1 -35 -3 -35
-8z"/>
<path d="M4340 2150 c0 -6 5 -10 10 -10 15 0 13 -167 -2 -173 -7 -3 7 -6 32
-6 34 -1 41 2 32 11 -15 15 -17 168 -2 168 6 0 10 3 10 8 0 4 -18 8 -40 9 -22
2 -40 -2 -40 -7z"/>
<path d="M2976 2057 c10 -15 27 -27 37 -27 35 0 14 35 -27 46 l-29 7 19 -26z"/>
<path d="M2090 1974 c0 -9 5 -14 12 -12 18 6 21 28 4 28 -9 0 -16 -7 -16 -16z"/>
<path d="M12060 1555 c-1 -11 -4 -140 -6 -287 -4 -188 -2 -268 5 -268 8 0 11
77 12 243 1 133 2 257 3 274 1 18 -1 38 -5 45 -6 9 -8 6 -9 -7z"/>
<path d="M9956 1514 c-8 -22 -8 -24 8 -24 12 0 26 20 26 36 0 12 -29 2 -34
-12z"/>
<path d="M9908 1447 c-44 -66 -100 -140 -131 -169 -16 -16 -26 -28 -23 -28 4
0 -2 -10 -13 -22 -64 -72 -91 -107 -91 -119 0 -8 8 -4 20 9 12 12 24 22 28 22
4 0 18 17 32 38 14 20 33 44 42 53 10 9 18 23 18 30 0 8 11 23 25 33 14 10 37
38 52 62 16 24 31 44 36 44 4 0 7 5 7 10 0 6 11 22 25 36 14 14 23 30 20 35
-10 16 -19 10 -47 -34z"/>
<path d="M12060 983 c0 -5 -3 -139 -7 -299 -4 -214 -3 -293 6 -298 8 -5 11 72
11 298 0 168 -2 306 -5 306 -3 0 -5 -3 -5 -7z"/>
<path d="M9380 744 c0 -8 5 -12 10 -9 6 3 10 10 10 16 0 5 -4 9 -10 9 -5 0
-10 -7 -10 -16z"/>
</g>
</svg>
