<?xml version="1.0" standalone="no"?>
<!DOCTYPE svg PUBLIC "-//W3C//DTD SVG 20010904//EN"
 "http://www.w3.org/TR/2001/REC-SVG-20010904/DTD/svg10.dtd">
<svg version="1.0" xmlns="http://www.w3.org/2000/svg"
 width="1334.000000pt" height="600.000000pt" viewBox="0 0 1334.000000 600.000000"
 preserveAspectRatio="xMidYMid meet">
<metadata>
Created by potrace 1.16, written by Peter Selinger 2001-2019
</metadata>
<g transform="translate(0.000000,600.000000) scale(0.100000,-0.100000)"
fill="#000000" stroke="none">
<path d="M4146 5725 c-4 -10 1 -14 16 -12 33 3 34 -27 2 -68 -31 -41 -24 -59
22 -53 37 4 45 28 9 28 l-27 0 26 31 c29 34 31 42 16 70 -13 22 -55 26 -64 4z"/>
<path d="M10960 5699 c0 -16 -5 -20 -18 -17 -21 6 -42 -14 -42 -39 0 -15 3
-15 18 5 23 30 35 17 17 -17 -17 -33 -49 -64 -39 -37 5 12 0 16 -18 16 -33 0
-37 6 -29 38 5 20 16 28 37 32 16 3 24 8 18 12 -5 4 -32 3 -60 -1 -27 -5 -41
-9 -31 -10 23 -1 22 -37 -2 -84 -10 -20 -15 -39 -11 -42 5 -3 11 1 13 7 3 7 3
-2 0 -19 -3 -18 0 -39 6 -46 6 -8 8 -17 5 -20 -6 -6 67 3 75 9 2 2 -1 17 -7
34 -10 26 -8 33 11 51 l22 20 3 -70 c2 -39 7 -71 12 -71 6 0 10 5 10 10 0 6
27 10 61 10 38 0 58 4 54 10 -4 6 -18 9 -32 8 -14 -2 -28 3 -30 10 -3 7 5 12
21 12 17 0 26 6 26 15 0 11 -7 14 -25 9 -19 -5 -25 -2 -25 10 0 11 9 16 31 16
19 0 28 4 23 11 -3 6 -17 8 -31 4 -18 -4 -24 -2 -21 7 3 7 17 14 32 16 16 2
25 8 23 15 -2 7 -14 11 -27 9 -12 -1 -29 6 -36 15 -13 17 -13 17 -14 1 0 -10
-5 -18 -11 -18 -6 0 -8 7 -5 16 3 9 6 19 6 23 0 4 14 8 31 9 25 2 30 -1 25
-13 -7 -18 3 -19 27 -1 27 21 21 26 -29 26 -41 0 -45 2 -39 20 5 14 2 20 -9
20 -10 0 -16 -9 -16 -21z m20 -114 c0 -8 -7 -15 -15 -15 -8 0 -15 7 -15 15 0
8 7 15 15 15 8 0 15 -7 15 -15z m-110 -40 c0 -33 -4 -45 -15 -45 -11 0 -15 12
-15 45 0 33 4 45 15 45 11 0 15 -12 15 -45z m110 0 c0 -8 -7 -15 -15 -15 -8 0
-15 7 -15 15 0 8 7 15 15 15 8 0 15 -7 15 -15z m0 -45 c0 -11 -7 -20 -15 -20
-8 0 -15 9 -15 20 0 11 7 20 15 20 8 0 15 -9 15 -20z"/>
<path d="M7596 5703 c-3 -3 -6 -24 -6 -45 0 -27 -4 -38 -15 -38 -8 0 -15 -4
-15 -10 0 -5 7 -10 15 -10 11 0 15 -11 15 -39 0 -30 -4 -40 -20 -44 -13 -3
-18 -11 -14 -21 5 -13 13 -12 55 10 27 15 49 30 49 35 0 12 -7 11 -31 -1 -17
-10 -19 -7 -19 26 0 36 1 36 33 29 17 -3 54 -9 81 -12 38 -4 47 -2 44 8 -3 10
-17 13 -43 11 -28 -3 -36 0 -33 10 5 15 96 29 104 16 6 -9 -4 -109 -13 -142
-4 -14 -11 -17 -34 -12 -31 6 -40 -8 -11 -18 9 -3 22 -8 28 -11 25 -12 42 25
49 102 4 43 9 85 11 95 4 14 -3 15 -56 11 l-61 -6 6 25 c12 46 -12 39 -30 -8
-12 -32 -21 -44 -32 -40 -8 3 -22 6 -30 6 -12 0 -14 7 -9 34 6 32 -3 53 -18
39z"/>
<path d="M7970 5684 l0 -28 -16 22 c-19 27 -38 29 -29 2 5 -16 2 -20 -15 -20
-12 0 -18 -4 -15 -10 3 -5 19 -10 36 -10 16 0 29 -5 29 -11 0 -18 -41 -101
-61 -122 -10 -12 -19 -27 -19 -34 0 -21 28 -3 49 33 19 32 23 34 76 34 30 0
55 5 55 10 0 6 -22 10 -50 10 -40 0 -48 3 -44 15 9 22 104 21 104 -1 0 -26 25
-9 28 19 3 21 0 26 -12 21 -12 -5 -16 0 -14 17 3 21 -2 24 -39 27 -36 3 -42 6
-40 24 1 11 -4 23 -10 25 -9 3 -13 -5 -13 -23z m80 -59 c0 -10 -11 -15 -35
-15 -24 0 -35 5 -35 15 0 10 11 15 35 15 24 0 35 -5 35 -15z"/>
<path d="M8316 5698 c-17 -56 -25 -61 -41 -26 -15 34 -39 37 -31 4 6 -24 4
-26 -17 -21 -18 5 -26 2 -31 -12 -3 -10 -9 -24 -12 -30 -3 -8 1 -13 10 -13 9
0 16 7 16 15 0 8 9 15 20 15 17 0 20 -7 20 -40 0 -39 1 -39 30 -33 19 3 30 1
30 -6 0 -6 -18 -11 -44 -11 l-44 0 -4 -41 c-2 -22 0 -43 4 -45 15 -10 28 7 28
37 0 26 3 29 30 29 28 0 30 -2 30 -40 0 -22 5 -40 10 -40 6 0 10 18 10 40 0
38 2 40 30 40 23 0 30 -5 30 -19 0 -13 -8 -21 -22 -23 l-23 -3 24 -14 c29 -16
38 -7 43 44 l3 39 -42 -3 c-26 -1 -43 2 -43 8 0 6 14 11 31 11 30 0 31 2 27
35 -2 19 0 35 4 35 4 0 8 -7 8 -17 0 -14 2 -14 20 2 28 26 25 35 -12 35 -30 1
-31 2 -15 14 10 8 15 20 11 30 -9 24 -20 20 -34 -14 -7 -16 -19 -30 -27 -30
-12 0 -14 7 -9 30 5 29 -10 44 -18 18z m32 -75 c-16 -2 -40 -2 -55 0 -16 2 -3
4 27 4 30 0 43 -2 28 -4z m12 -36 c0 -8 -15 -13 -45 -13 -30 0 -45 5 -45 13 0
9 15 13 45 13 30 0 45 -4 45 -13z"/>
<path d="M8566 5694 c-4 -11 -13 -14 -31 -10 -20 5 -25 3 -25 -14 0 -11 -5
-20 -12 -20 -20 0 27 -38 53 -43 18 -3 16 -5 -10 -6 -19 0 -31 -4 -28 -7 3 -4
2 -15 -3 -24 -7 -13 -6 -20 6 -24 9 -3 20 -4 25 0 5 3 9 0 9 -5 0 -6 -11 -11
-24 -11 -32 0 -42 -16 -15 -23 12 -3 18 -10 15 -16 -3 -5 2 -11 11 -14 19 -4
17 -6 -31 -21 -40 -13 -5 -18 43 -5 41 10 53 10 66 -1 13 -11 20 -11 40 0 14
7 25 17 25 22 0 14 28 9 34 -7 5 -14 46 -22 46 -10 0 3 -11 16 -25 28 -24 22
-25 23 -10 67 8 25 20 53 25 62 16 28 13 30 -29 23 -36 -6 -39 -5 -34 14 3 12
9 21 14 21 14 0 11 28 -3 32 -8 3 -20 -17 -31 -54 -10 -32 -22 -56 -27 -53
-15 9 -12 32 5 39 14 5 14 9 -1 31 -9 14 -22 24 -28 22 -6 -3 -18 2 -27 10
-14 12 -17 12 -23 -3z m-6 -34 c0 -5 -5 -10 -11 -10 -5 0 -7 5 -4 10 3 6 8 10
11 10 2 0 4 -4 4 -10z m57 -6 c-3 -3 -12 -4 -19 -1 -8 3 -5 6 6 6 11 1 17 -2
13 -5z m0 -50 c-3 -3 -12 -4 -19 -1 -8 3 -5 6 6 6 11 1 17 -2 13 -5z m90 -36
l-10 -42 -13 34 c-17 48 -17 50 10 50 23 0 24 -1 13 -42z m-137 2 c0 -5 -7
-10 -15 -10 -8 0 -15 5 -15 10 0 6 7 10 15 10 8 0 15 -4 15 -10z m45 0 c-3 -5
-10 -10 -16 -10 -5 0 -9 5 -9 10 0 6 7 10 16 10 8 0 12 -4 9 -10z m55 -26 c14
-35 13 -41 -11 -63 -18 -17 -24 -18 -35 -6 -20 20 -17 33 9 37 12 2 20 7 17
13 -3 5 -11 9 -17 7 -7 -2 -13 0 -13 3 0 9 24 34 33 35 4 0 12 -12 17 -26z
m-75 -4 c3 -5 1 -10 -4 -10 -6 0 -11 5 -11 10 0 6 2 10 4 10 3 0 8 -4 11 -10z
m-5 -40 c0 -5 -7 -10 -15 -10 -8 0 -15 5 -15 10 0 6 7 10 15 10 8 0 15 -4 15
-10z"/>
<path d="M9793 5703 c-9 -3 -13 -36 -13 -114 l0 -109 -25 0 c-14 0 -25 -4 -25
-9 0 -12 51 -24 61 -14 4 4 9 63 11 131 2 67 3 122 3 121 0 0 -6 -3 -12 -6z"/>
<path d="M9918 5702 c-10 -2 -18 -11 -18 -21 0 -10 -11 -39 -24 -64 -23 -46
-22 -59 2 -35 9 9 12 -5 12 -65 0 -45 4 -77 10 -77 6 0 10 39 10 98 0 107 7
145 23 135 6 -4 38 -7 71 -7 l61 -1 3 -92 3 -93 -26 0 c-14 0 -25 -4 -25 -9 0
-10 61 -24 69 -15 3 3 7 47 9 97 3 87 4 98 13 122 3 6 -27 8 -78 6 -61 -2 -83
1 -90 11 -4 8 -16 12 -25 10z"/>
<path d="M10277 5689 c-5 -19 -11 -21 -42 -16 -26 4 -35 2 -32 -6 2 -7 20 -13
40 -15 62 -5 45 -27 -18 -24 -33 2 -55 0 -55 -6 0 -14 36 -25 59 -17 10 3 29
1 42 -4 24 -9 24 -9 -12 -24 -19 -9 -47 -19 -62 -22 -15 -4 -27 -12 -27 -17 0
-6 11 -7 28 -3 15 4 34 8 42 9 17 1 25 -35 15 -62 -3 -9 -5 -19 -3 -22 2 -2
36 -4 75 -5 l73 0 0 40 c0 22 3 50 6 62 6 21 4 22 -52 16 l-58 -6 22 23 c17
19 28 22 60 18 45 -6 76 6 53 21 -7 5 -22 6 -32 4 -23 -6 -26 19 -4 37 17 14
20 30 6 30 -5 0 -19 -16 -32 -35 -13 -19 -32 -35 -43 -35 -15 0 -17 6 -14 40
3 32 0 40 -13 40 -9 0 -19 -10 -22 -21z m103 -144 c0 -12 -13 -15 -55 -15 -42
0 -55 3 -55 15 0 12 13 15 55 15 42 0 55 -3 55 -15z m0 -50 c0 -11 -12 -15
-49 -15 -47 0 -68 9 -54 24 3 3 28 6 55 6 36 0 48 -4 48 -15z"/>
<path d="M11203 5702 c-14 -9 -27 -57 -19 -71 10 -15 36 -2 29 15 -9 24 4 43
27 37 37 -10 42 -36 14 -75 -16 -22 -24 -45 -22 -59 4 -23 5 -23 17 6 7 16 21
38 32 48 26 24 26 83 0 97 -23 12 -61 13 -78 2z"/>
<path d="M6186 5669 c-6 -31 -7 -31 -51 -27 l-45 6 0 -63 0 -62 50 5 50 5 0
-52 c0 -28 4 -51 9 -51 14 0 21 30 16 67 l-4 32 51 3 50 3 1 55 1 55 -49 0
c-46 0 -50 2 -50 24 0 36 -21 36 -29 0z m4 -84 c0 -33 -2 -35 -35 -35 -33 0
-35 2 -35 35 0 33 2 35 35 35 33 0 35 -2 35 -35z m100 0 c0 -34 -1 -35 -39
-35 -38 0 -39 1 -38 35 1 34 3 35 39 35 37 0 38 -1 38 -35z"/>
<path d="M6985 5691 c-11 -4 -48 -7 -83 -7 -41 1 -62 -3 -62 -11 0 -6 10 -13
23 -15 20 -3 22 -8 20 -55 -2 -55 -18 -93 -52 -130 -23 -24 -26 -33 -11 -33
19 0 61 56 74 100 12 37 15 42 21 25 5 -11 17 -30 28 -42 l20 -23 -51 -22
c-50 -22 -66 -38 -38 -38 7 0 33 11 58 24 44 23 44 23 71 4 17 -13 38 -18 59
-16 36 4 37 3 -40 34 l-32 13 30 44 c37 55 37 67 4 67 -24 0 -25 2 -18 45 3
25 5 45 3 44 -2 0 -13 -4 -24 -8z m-7 -49 c-2 -22 -9 -28 -35 -30 -29 -3 -33
0 -33 21 0 30 2 32 40 34 29 2 31 0 28 -25z m32 -65 c0 -15 -28 -57 -38 -57
-8 0 -42 53 -42 64 0 3 18 6 40 6 26 0 40 -5 40 -13z"/>
<path d="M9455 5689 c-4 -6 -48 -9 -113 -8 -59 1 -106 -2 -104 -7 2 -5 29 -8
59 -6 l56 3 -5 -43 c-3 -24 -2 -54 2 -68 7 -22 8 -21 9 13 1 20 5 37 11 37 5
0 25 -14 45 -31 25 -22 39 -29 46 -22 11 11 -14 34 -71 66 -46 25 -34 42 32
43 57 1 82 9 73 25 -8 12 -32 11 -40 -2z"/>
<path d="M9665 5690 c-3 -5 -29 -10 -56 -10 -29 0 -48 -4 -44 -10 3 -5 12 -7
20 -4 11 5 12 0 5 -25 -4 -17 -16 -41 -24 -53 -20 -29 -21 -44 -1 -28 13 10
19 10 35 -5 11 -10 20 -21 20 -25 0 -4 -16 -23 -37 -43 -22 -23 -31 -37 -22
-37 38 0 118 113 119 167 0 19 -4 21 -35 16 -23 -4 -35 -2 -35 6 0 14 17 21
56 24 18 2 30 9 32 20 4 18 -22 24 -33 7z m-15 -87 c0 -5 -3 -18 -6 -30 l-6
-21 -24 20 c-13 12 -21 25 -18 30 6 10 54 11 54 1z"/>
<path d="M10701 5686 c-9 -11 -6 -12 14 -8 14 2 25 8 25 13 0 14 -26 11 -39
-5z"/>
<path d="M2387 5684 c-3 -3 -3 -12 0 -20 3 -8 0 -14 -6 -14 -6 0 -11 7 -11 15
0 8 -7 15 -16 15 -14 0 -14 -3 -4 -16 11 -13 10 -16 -8 -21 -30 -7 -28 -23 3
-23 37 0 31 -36 -22 -122 -25 -41 -27 -48 -14 -48 4 0 20 18 35 40 l26 40 75
0 c40 0 76 -4 79 -9 4 -5 2 -21 -4 -35 -12 -34 -57 -37 -56 -5 1 12 -5 24 -13
27 -20 7 -4 -39 21 -60 39 -34 59 -19 77 61 8 39 8 41 -15 41 -21 0 -24 4 -18
25 5 19 2 25 -10 25 -10 0 -15 7 -13 21 2 20 -3 22 -43 23 -40 1 -45 3 -43 24
3 21 -7 29 -20 16z m83 -64 c0 -15 -39 -32 -60 -25 -30 10 -24 23 13 28 17 2
35 5 40 5 4 1 7 -2 7 -8z m20 -55 c0 -12 -13 -15 -60 -15 -49 0 -58 3 -54 15
5 11 21 15 60 15 41 0 54 -4 54 -15z"/>
<path d="M4496 5665 c-4 -14 -13 -25 -20 -25 -12 0 -15 -20 -15 -96 -1 -84 1
-95 14 -84 9 8 29 10 50 7 l35 -6 0 57 c0 46 4 60 20 70 11 7 20 19 20 27 0
11 12 15 43 15 l43 0 -3 -62 c-4 -96 -10 -111 -44 -104 -37 7 -37 -5 -2 -22
40 -18 53 2 64 89 14 126 16 119 -42 119 -47 0 -50 2 -44 21 5 15 3 20 -6 17
-7 -2 -18 -25 -26 -51 -14 -48 -30 -67 -19 -22 6 23 3 25 -24 25 -29 0 -40 13
-20 25 15 9 12 25 -4 25 -8 0 -17 -11 -20 -25z m44 -70 c0 -21 -5 -25 -29 -25
-17 0 -33 5 -36 10 -10 16 15 40 41 40 19 0 24 -5 24 -25z m0 -75 c0 -28 -3
-30 -35 -30 -19 0 -35 5 -35 11 0 25 22 49 45 49 21 0 25 -5 25 -30z"/>
<path d="M4780 5565 l0 -120 105 2 c58 0 107 -3 111 -8 17 -29 24 4 24 119 l0
127 -120 0 -120 0 0 -120z m60 64 c0 -19 -5 -29 -15 -29 -8 0 -15 -4 -15 -10
0 -5 5 -10 10 -10 6 0 10 -27 10 -60 0 -47 -3 -60 -15 -60 -11 0 -15 13 -16
58 -1 75 2 135 7 144 11 17 34 -6 34 -33z m90 29 c0 -4 -16 -8 -35 -8 -19 0
-35 3 -35 8 0 4 16 7 35 8 19 0 35 -3 35 -8z m60 -23 c0 -29 -4 -35 -21 -35
-17 0 -19 5 -15 33 2 17 5 33 5 35 1 1 8 2 16 2 10 0 15 -11 15 -35z m-60 -5
c0 -5 -13 -10 -30 -10 -16 0 -30 5 -30 10 0 6 14 10 30 10 17 0 30 -4 30 -10z
m7 -26 c-3 -3 -12 -4 -19 -1 -8 3 -5 6 6 6 11 1 17 -2 13 -5z m-9 -31 c-15 -2
-42 -2 -60 0 -18 2 -6 4 27 4 33 0 48 -2 33 -4z m64 -3 c2 -5 1 -32 0 -60 l-4
-50 -71 2 -72 2 63 3 62 4 0 54 c0 30 4 55 9 55 5 0 11 -4 13 -10z m-44 -42
c-3 -32 -5 -33 -50 -36 l-48 -3 0 35 0 36 51 0 50 0 -3 -32z"/>
<path d="M4860 5525 c0 -22 4 -25 40 -25 36 0 40 3 40 25 0 23 -4 25 -40 25
-36 0 -40 -2 -40 -25z m47 -1 c-3 -3 -12 -4 -19 -1 -8 3 -5 6 6 6 11 1 17 -2
13 -5z"/>
<path d="M5130 5677 c0 -8 -11 -36 -25 -63 -29 -58 -29 -58 -10 -50 12 4 15
-6 15 -64 0 -40 4 -70 10 -70 6 0 10 35 10 85 0 69 3 85 15 85 8 0 15 -9 15
-20 0 -17 5 -19 25 -14 37 9 30 -5 -10 -22 -41 -17 -49 -39 -9 -24 14 6 35 15
47 21 16 8 19 8 12 0 -6 -6 -28 -19 -49 -29 -52 -26 -31 -36 23 -11 32 14 40
15 32 5 -7 -8 -28 -20 -47 -26 -19 -6 -34 -16 -34 -21 0 -11 29 -5 73 16 23
11 27 11 27 -1 0 -9 -11 -14 -27 -14 -27 -1 -27 -1 -9 -15 28 -21 35 -19 50
15 11 27 13 28 28 14 8 -9 26 -14 39 -12 22 3 21 5 -16 26 l-39 24 34 15 c25
12 30 17 18 20 -9 2 -27 -3 -40 -11 -22 -14 -25 -14 -36 5 -10 16 -10 20 3 25
8 4 27 4 41 1 17 -3 28 1 34 14 16 28 1 49 -33 49 -24 0 -28 3 -19 12 20 20
13 30 -18 26 -20 -3 -30 0 -30 9 0 24 -25 13 -48 -22 -12 -19 -27 -35 -32 -35
-13 0 -13 26 0 51 8 15 7 19 -5 19 -8 0 -15 -6 -15 -13z m120 -37 c0 -5 -12
-10 -27 -10 -22 0 -25 2 -13 10 20 13 40 13 40 0z m-20 -46 c0 -10 -7 -14 -22
-12 -32 5 -35 28 -4 28 17 0 26 -5 26 -16z m90 6 c0 -12 -45 -24 -60 -15 -5 3
-8 11 -5 16 8 12 65 12 65 -1z"/>
<path d="M5830 5670 c0 -16 -7 -20 -30 -20 -16 0 -30 -4 -30 -10 0 -5 14 -10
30 -10 30 0 30 -1 30 -54 l0 -55 -42 -4 c-24 -2 21 -4 100 -5 78 -1 142 2 142
7 0 13 -28 22 -35 11 -4 -6 -13 -10 -21 -10 -11 0 -14 15 -14 61 0 38 4 58 10
54 15 -9 51 5 44 17 -4 5 -17 8 -31 5 -20 -4 -24 -1 -20 14 7 25 -15 24 -31
-1 -8 -14 -23 -20 -48 -20 -31 0 -35 3 -29 20 5 14 2 20 -9 20 -9 0 -16 -9
-16 -20z m108 -47 c2 -9 -10 -13 -42 -13 -35 0 -46 4 -46 16 0 12 9 14 42 12
23 -2 43 -9 46 -15z m2 -43 c0 -5 -20 -10 -45 -10 -25 0 -45 5 -45 10 0 6 20
10 45 10 25 0 45 -4 45 -10z m0 -45 c0 -11 -12 -15 -45 -15 -33 0 -45 4 -45
15 0 11 12 15 45 15 33 0 45 -4 45 -15z"/>
<path d="M9727 5683 c-11 -10 -8 -173 2 -173 10 0 20 160 11 173 -4 4 -9 4
-13 0z"/>
<path d="M10504 5676 c22 -18 32 -19 61 -6 18 8 18 9 -5 9 -14 1 -36 4 -50 7
-24 5 -24 5 -6 -10z"/>
<path d="M1178 5672 l-108 -3 0 -126 c0 -99 3 -124 12 -115 7 7 44 12 98 12
54 0 91 -5 98 -12 25 -25 33 8 30 127 -2 69 -7 119 -13 119 -5 1 -58 0 -117
-2z m-51 -47 c-1 -26 -7 -35 -19 -35 -13 0 -18 8 -18 29 0 20 6 31 18 34 9 3
18 5 19 6 2 0 2 -15 0 -34z m158 -70 l0 -100 -80 -1 c-63 0 -67 0 -17 3 34 2
62 7 63 11 0 4 1 27 2 52 1 30 6 47 16 52 13 5 12 8 -6 14 -18 5 -23 14 -23
39 0 27 4 32 23 31 21 -1 22 -4 22 -101z m-82 88 c-13 -2 -33 -2 -45 0 -13 2
-3 4 22 4 25 0 35 -2 23 -4z m7 -23 c0 -5 -13 -10 -30 -10 -16 0 -30 5 -30 10
0 6 14 10 30 10 17 0 30 -4 30 -10z m7 -26 c-3 -3 -12 -4 -19 -1 -8 3 -5 6 6
6 11 1 17 -2 13 -5z m-105 -84 c2 -43 -1 -60 -9 -60 -9 0 -13 19 -13 60 0 78
17 78 22 0z m106 53 c-15 -2 -42 -2 -60 0 -18 2 -6 4 27 4 33 0 48 -2 33 -4z
m22 -48 c0 -35 0 -35 -42 -33 -37 1 -39 2 -10 5 26 4 32 9 32 29 0 22 -4 24
-41 24 -40 0 -41 -1 -37 -30 3 -16 1 -30 -4 -30 -10 0 -11 54 -1 63 3 4 28 7
55 7 l48 0 0 -35z m-47 -2 c-7 -2 -19 -2 -25 0 -7 3 -2 5 12 5 14 0 19 -2 13
-5z"/>
<path d="M1480 5655 c0 -23 -4 -25 -45 -25 l-45 0 0 -59 0 -59 45 6 45 5 0
-52 c0 -28 5 -51 10 -51 6 0 10 23 10 50 l0 50 53 0 54 0 -1 57 -1 57 -54 -3
c-53 -3 -54 -2 -47 23 5 19 3 26 -9 26 -9 0 -15 -9 -15 -25z m0 -80 c0 -33 -2
-35 -35 -35 -33 0 -35 2 -35 35 0 33 2 35 35 35 33 0 35 -2 35 -35z m106 13
c-3 -13 -6 -29 -6 -35 0 -8 -15 -13 -40 -13 -39 0 -40 1 -40 35 0 35 0 35 46
35 43 0 46 -2 40 -22z"/>
<path d="M1750 5670 c-8 -5 -25 -10 -37 -10 -22 0 -23 -4 -23 -83 0 -45 -4
-97 -9 -115 -5 -17 -6 -32 -1 -32 10 0 30 55 30 81 0 16 8 19 43 19 l42 0 1
44 1 43 -43 -5 c-36 -4 -44 -2 -44 12 0 9 5 17 10 17 6 1 14 2 19 3 5 0 13 4
17 9 4 4 16 7 26 7 10 0 18 5 18 10 0 13 -30 13 -50 0z m20 -100 c0 -16 -7
-20 -30 -20 -23 0 -30 4 -30 20 0 16 7 20 30 20 23 0 30 -4 30 -20z"/>
<path d="M1855 5667 c-16 -6 -31 -12 -33 -13 -2 -1 -4 -33 -5 -71 -2 -46 -9
-82 -24 -111 -18 -38 -19 -43 -5 -40 12 2 21 23 31 71 14 65 15 67 44 67 l30
0 -6 -76 c-4 -55 -2 -74 6 -71 7 2 13 32 15 75 2 55 6 72 17 72 8 0 15 6 15
14 0 10 -14 13 -52 12 -48 -1 -53 1 -56 22 -2 12 1 23 7 23 14 2 29 6 36 9 3
1 8 3 13 4 4 1 16 7 27 13 19 12 19 12 -5 12 -14 -1 -38 -6 -55 -12z"/>
<path d="M2167 5669 c-10 -6 -47 -9 -83 -7 -38 2 -63 -1 -61 -7 3 -9 174 -8
191 2 4 3 2 9 -5 14 -17 11 -20 11 -42 -2z"/>
<path d="M7308 5653 c-1 -33 -3 -43 -11 -63 -24 -64 -29 -93 -16 -101 40 -25
98 2 119 56 17 43 5 65 -36 65 -37 0 -37 2 -17 58 3 7 -3 12 -16 12 -16 0 -21
-7 -23 -27z m65 -97 c-3 -36 -20 -56 -49 -56 -27 0 -29 6 -13 47 19 51 66 58
62 9z"/>
<path d="M10330 5672 c0 -5 7 -9 15 -9 8 0 15 4 15 9 0 4 -7 8 -15 8 -8 0 -15
-4 -15 -8z"/>
<path d="M10608 5668 c7 -7 12 -44 12 -94 0 -65 -3 -83 -16 -88 -40 -15 -44
-9 -42 67 2 57 -1 72 -12 72 -12 0 -14 -15 -11 -74 l3 -74 -31 5 c-17 2 -31 1
-31 -4 0 -4 61 -8 136 -8 104 0 135 3 131 13 -2 8 -20 11 -55 9 l-52 -4 0 46
0 46 46 0 c39 0 44 2 35 14 -8 10 -21 12 -46 6 l-35 -8 0 44 c0 39 -3 44 -22
44 -17 0 -19 -3 -10 -12z"/>
<path d="M3408 5653 c-28 -32 -38 -61 -38 -108 0 -53 24 -111 51 -126 26 -13
25 5 -1 38 -28 35 -28 126 0 171 11 18 20 35 20 37 0 11 -18 4 -32 -12z"/>
<path d="M3925 5660 c3 -5 -4 -43 -16 -84 -25 -86 -21 -106 20 -106 40 0 83
51 79 94 -3 27 -7 31 -34 31 -30 0 -31 1 -23 30 12 42 12 45 -12 45 -11 0 -18
-4 -14 -10z m55 -107 c0 -30 -25 -63 -48 -63 -11 0 -13 8 -8 32 11 58 56 83
56 31z"/>
<path d="M4051 5633 c32 -63 23 -172 -17 -196 -16 -9 -19 -27 -5 -27 19 0 59
53 69 93 14 52 2 110 -29 143 -33 35 -40 30 -18 -13z"/>
<path d="M256 5634 c-20 -20 -20 -48 -1 -64 14 -12 14 -15 0 -30 -20 -23 -19
-53 4 -74 24 -22 64 -12 81 20 12 21 11 28 -7 52 -17 23 -18 29 -7 40 19 17
18 58 -2 66 -27 10 -52 7 -68 -10z m52 -26 c-2 -13 -7 -23 -13 -23 -5 0 -11
10 -13 23 -2 15 2 22 13 22 11 0 15 -7 13 -22z m2 -109 c0 -10 -4 -20 -9 -23
-15 -9 -33 22 -26 44 5 17 10 19 21 9 8 -6 14 -20 14 -30z"/>
<path d="M3736 5623 c-3 -3 -6 -19 -6 -35 0 -24 -4 -28 -30 -28 -16 0 -30 -4
-30 -10 0 -5 14 -10 30 -10 28 0 30 -3 30 -35 0 -24 5 -35 15 -35 10 0 15 11
15 35 0 32 2 35 30 35 17 0 30 5 30 10 0 6 -13 10 -30 10 -27 0 -30 3 -30 29
0 30 -12 46 -24 34z"/>
<path d="M9946 5623 c-7 -8 -8 -50 0 -78 4 -17 12 -20 50 -17 l44 4 0 47 0 47
-44 2 c-24 1 -46 -1 -50 -5z m74 -43 c0 -27 -3 -30 -30 -30 -25 0 -30 4 -30
23 0 13 3 27 7 30 3 4 17 7 30 7 19 0 23 -5 23 -30z"/>
<path d="M2100 5600 c-122 -5 -145 -17 -45 -22 56 -3 50 7 55 -108 l2 -45 8
35 c5 19 6 45 4 56 -3 12 -1 25 5 28 5 4 8 13 4 21 -4 12 6 15 57 15 43 0 60
4 58 12 -5 15 -1 15 -148 8z"/>
<path d="M3491 5601 c-11 -7 -9 -11 8 -21 29 -15 25 -61 -6 -75 -13 -5 -23
-15 -23 -22 0 -20 27 -15 43 8 l15 21 7 -22 c8 -26 48 -24 53 2 2 13 -1 16
-12 12 -11 -4 -17 2 -22 21 -7 29 1 41 30 47 11 1 18 8 15 13 -5 13 -43 8 -48
-6 -2 -6 -10 -1 -18 10 -16 23 -22 25 -42 12z"/>
<path d="M6569 5589 c-26 -26 -41 -67 -34 -90 7 -22 45 -25 63 -7 9 9 12 9 12
0 0 -7 6 -12 14 -12 18 0 41 27 27 32 -7 2 -6 19 3 49 l14 47 -39 0 c-27 1
-47 -6 -60 -19z m56 -9 c8 -13 -21 -66 -40 -74 -21 -8 -29 17 -14 46 18 35 42
48 54 28z"/>
<path d="M2780 5591 c0 -5 5 -11 12 -13 8 -3 12 -26 13 -63 0 -55 -2 -60 -27
-73 -32 -15 -37 -32 -10 -32 20 0 43 24 97 99 38 52 46 91 19 91 -11 0 -15 -6
-11 -19 5 -21 -25 -75 -36 -64 -4 3 -7 24 -7 45 0 34 -3 38 -25 38 -14 0 -25
-4 -25 -9z"/>
<path d="M3243 5585 c-25 -17 -46 -74 -37 -98 7 -19 59 -23 70 -6 4 8 9 7 15
-2 13 -22 42 2 44 36 1 17 5 42 9 58 8 27 7 27 -36 27 -24 0 -53 -7 -65 -15z
m62 -6 c20 -32 -42 -106 -67 -81 -20 20 21 90 54 92 4 0 10 -5 13 -11z"/>
<path d="M8905 5590 c-12 -20 6 -50 30 -50 25 0 38 21 29 45 -7 17 -49 20 -59
5z m45 -21 c0 -5 -7 -9 -15 -9 -15 0 -20 12 -9 23 8 8 24 -1 24 -14z"/>
<path d="M2997 5582 c-9 -2 -17 -8 -17 -13 0 -5 34 -9 75 -9 56 0 75 3 75 13
0 10 -16 14 -58 13 -31 0 -65 -2 -75 -4z"/>
<path d="M5520 5580 c0 -5 5 -10 10 -10 6 0 10 5 10 10 0 6 -4 10 -10 10 -5 0
-10 -4 -10 -10z"/>
<path d="M4618 5550 c15 -27 42 -41 42 -22 0 15 -32 52 -45 52 -11 0 -11 -6 3
-30z"/>
<path d="M8106 5563 c-3 -3 -3 -17 0 -29 5 -19 1 -26 -17 -33 -19 -8 -20 -10
-6 -10 22 -1 13 -21 -9 -21 -9 0 -21 14 -27 30 -13 35 -32 41 -21 8 10 -32 51
-68 69 -62 8 4 20 25 25 48 6 22 13 46 15 53 4 12 -19 25 -29 16z"/>
<path d="M2020 5517 c-33 -56 -34 -58 -17 -51 14 5 67 76 67 89 0 3 -6 5 -12
5 -7 0 -24 -19 -38 -43z"/>
<path d="M2170 5554 c0 -11 63 -94 71 -94 15 0 -10 50 -37 75 -28 26 -34 29
-34 19z"/>
<path d="M7713 5543 c-63 -6 -52 -23 13 -23 38 0 54 4 52 12 -5 14 -11 15 -65
11z"/>
<path d="M2975 5520 c3 -5 40 -10 81 -10 43 0 74 4 74 10 0 6 -34 10 -81 10
-51 0 -78 -4 -74 -10z"/>
<path d="M7942 5501 c-26 -36 -27 -41 -7 -41 9 0 20 12 26 27 15 40 6 47 -19
14z"/>
<path d="M7981 5518 c0 -7 4 -22 8 -32 10 -25 22 -6 14 22 -6 23 -23 31 -22
10z"/>
<path d="M9349 5518 c-7 -63 -6 -79 4 -75 15 5 20 74 7 82 -6 4 -11 0 -11 -7z"/>
<path d="M2480 5513 c0 -5 4 -15 10 -23 11 -18 25 -7 17 15 -6 15 -27 21 -27
8z"/>
<path d="M2358 5482 c-9 -18 -12 -32 -8 -32 13 0 32 38 27 53 -2 6 -11 -3 -19
-21z"/>
<path d="M2397 5491 c-2 -10 -1 -25 4 -32 6 -10 9 -4 9 19 0 36 -5 42 -13 13z"/>
<path d="M11222 5493 c2 -10 8 -18 13 -18 5 0 11 8 13 18 2 10 -3 17 -13 17
-10 0 -15 -7 -13 -17z"/>
<path d="M5835 5489 c-5 -6 -25 -19 -44 -30 -18 -11 -31 -22 -28 -25 9 -10
107 38 107 52 0 16 -20 18 -35 3z"/>
<path d="M5920 5492 c1 -4 19 -19 40 -34 37 -26 40 -26 40 -8 0 10 -5 22 -10
25 -19 12 -70 24 -70 17z"/>
<path d="M390 5475 c0 -8 7 -15 15 -15 8 0 15 7 15 15 0 8 -7 15 -15 15 -8 0
-15 -7 -15 -15z"/>
<path d="M11590 5014 c0 -3 7 -12 15 -20 18 -19 20 -115 3 -132 -7 -7 -20 -12
-30 -12 -10 0 -18 -4 -18 -10 0 -32 60 17 128 104 23 30 30 76 11 76 -6 0 -9
-9 -6 -20 3 -12 -2 -27 -11 -37 -10 -9 -15 -19 -13 -22 3 -3 -3 -7 -11 -9 -9
-2 -16 3 -15 10 2 62 -3 78 -28 78 -14 0 -25 -3 -25 -6z"/>
<path d="M11753 4861 c-50 -104 -62 -141 -45 -141 4 0 26 37 50 82 l42 82 0
-573 0 -572 -35 -124 c-35 -124 -98 -323 -115 -360 -4 -11 -39 -110 -76 -220
-74 -220 -159 -452 -195 -530 -13 -27 -24 -52 -24 -55 -4 -13 -58 -129 -75
-161 -11 -20 -20 -42 -20 -49 0 -6 -31 -73 -69 -148 -73 -146 -83 -164 -155
-285 -25 -43 -46 -80 -46 -83 0 -6 -103 -161 -152 -228 -60 -82 -172 -196
-238 -241 -96 -65 -195 -95 -313 -95 -108 0 -170 15 -272 65 -76 37 -185 126
-185 151 0 8 -5 14 -10 14 -6 0 -24 15 -41 32 -16 18 -38 42 -48 53 -10 11
-46 58 -80 105 -34 47 -66 90 -71 97 -6 7 -10 15 -10 19 0 3 -38 70 -84 148
-83 139 -246 464 -246 490 0 4 -16 42 -36 84 -56 120 -61 130 -105 252 -23 63
-45 124 -49 135 -17 43 -90 256 -125 362 -20 62 -41 116 -46 119 -6 3 -8 13
-5 21 4 9 2 21 -3 27 -10 12 -88 273 -140 466 -17 63 -43 158 -57 210 -15 52
-30 111 -35 130 -18 81 -51 196 -59 205 -4 6 -11 24 -14 40 -14 78 -45 175
-57 175 -14 0 -11 -32 11 -96 12 -32 47 -160 80 -284 77 -297 105 -401 130
-485 27 -90 25 -85 38 -118 7 -15 11 -31 10 -35 -1 -4 3 -17 10 -28 6 -12 14
-40 18 -63 4 -23 11 -44 15 -47 5 -3 9 -14 9 -25 0 -31 161 -509 172 -509 5 0
7 -4 3 -10 -3 -5 2 -26 11 -47 10 -21 18 -40 19 -43 6 -17 19 -49 30 -75 7
-16 22 -55 34 -85 11 -30 33 -91 49 -135 46 -122 106 -255 189 -415 42 -80 85
-163 96 -185 26 -53 108 -188 149 -246 169 -238 332 -397 473 -460 l40 -18
-195 0 c-736 -3 -1726 -15 -1733 -21 -13 -11 875 -21 1498 -15 319 2 930 7
1358 10 l777 6 0 -335 c0 -319 4 -366 28 -341 4 4 6 157 4 341 -2 184 -2 334
0 334 2 1 255 3 563 6 603 5 578 7 480 -41 -16 -8 -39 -20 -50 -27 -11 -7 -22
-14 -24 -15 -1 -1 0 -6 3 -12 11 -17 246 100 246 122 0 9 -222 117 -241 117
-29 0 6 -29 81 -67 l83 -43 -399 -1 c-219 0 -475 -1 -569 -2 l-170 -2 1 575
c1 415 -2 577 -10 582 -8 6 -8 8 0 8 8 0 10 192 7 700 -5 681 -4 702 15 767
11 38 39 142 62 233 53 209 130 490 141 511 5 10 3 23 -4 33 -11 15 -16 4 -36
-76 -13 -51 -27 -98 -32 -104 -5 -6 -7 -13 -4 -16 3 -2 -7 -39 -21 -82 -14
-43 -42 -146 -64 -229 -21 -84 -43 -163 -49 -177 -7 -17 -10 134 -9 490 l0
515 39 -80 c21 -43 46 -83 54 -88 21 -11 20 -9 -30 103 -52 116 -66 140 -80
140 -5 0 -34 -49 -62 -109z m47 -2481 l0 -1220 -322 0 c-178 0 -478 -3 -668
-5 l-345 -6 60 29 c114 55 239 169 333 302 17 25 49 70 71 100 55 75 169 268
217 365 21 44 46 85 54 92 8 7 11 13 5 13 -7 0 -7 3 0 8 12 9 35 48 35 61 0 5
25 62 56 127 31 66 67 148 80 184 14 36 29 74 34 85 5 11 21 52 36 90 14 39
30 76 36 83 6 6 7 12 4 12 -4 0 -4 6 1 13 4 6 8 14 9 17 0 3 10 25 21 50 11
25 29 74 41 110 12 36 51 151 86 255 35 105 74 226 86 270 12 44 25 85 28 90
4 6 7 13 8 18 1 4 2 8 4 10 2 3 11 40 12 55 1 6 5 12 10 12 4 0 8 -549 8
-1220z"/>
<path d="M3623 4922 c-80 -3 -113 -17 -55 -24 26 -3 27 -5 25 -56 -3 -53 -24
-102 -65 -148 -12 -13 -15 -24 -10 -28 14 -8 72 67 88 112 11 32 13 34 20 17
4 -11 15 -32 25 -46 l18 -26 -57 -26 c-50 -24 -53 -27 -27 -27 17 0 45 9 63
20 l33 20 39 -20 c22 -11 47 -20 55 -20 27 0 12 23 -22 34 -18 6 -35 14 -38
18 -4 4 7 30 24 58 35 56 33 73 -6 64 -24 -7 -25 -5 -19 22 15 66 24 61 -91
56z m67 -36 c0 -32 -13 -46 -41 -46 -26 0 -29 4 -29 30 0 28 3 30 35 30 24 0
35 -5 35 -14z m24 -105 c-10 -17 -24 -31 -31 -31 -11 0 -49 57 -41 61 2 1 15
2 30 3 15 1 30 5 34 9 4 4 12 3 17 -2 6 -6 2 -21 -9 -40z"/>
<path d="M4074 4914 c-7 -3 -10 -13 -7 -23 2 -10 -5 -49 -16 -86 -12 -37 -21
-73 -21 -80 0 -19 45 -27 74 -14 24 12 56 63 56 91 0 21 -36 52 -45 39 -3 -6
-12 -11 -20 -11 -12 0 -12 6 0 41 8 23 15 43 15 45 0 5 -22 4 -36 -2z m53
-105 c9 -9 8 -20 -4 -43 -17 -34 -31 -46 -52 -46 -18 0 -7 57 16 82 19 21 25
22 40 7z"/>
<path d="M1937 4863 c-13 -26 -30 -66 -37 -88 -7 -22 -19 -48 -28 -57 -14 -17
-13 -18 16 -18 27 0 31 3 29 28 -2 24 1 27 36 30 37 3 43 -4 38 -45 -1 -8 10
-13 29 -13 31 0 38 8 20 26 -6 6 -24 48 -39 93 -15 45 -31 84 -34 87 -3 3 -17
-16 -30 -43z m21 -81 c-28 -5 -30 0 -16 39 l11 33 12 -34 c11 -32 10 -35 -7
-38z"/>
<path d="M3218 4896 c-46 -35 -38 -169 11 -188 23 -8 29 -6 52 21 30 37 33 98
6 149 -18 34 -41 40 -69 18z m47 -36 c17 -33 20 -86 5 -95 -6 -4 -8 -10 -5
-15 3 -4 -2 -14 -11 -21 -23 -19 -34 4 -34 73 0 91 17 113 45 58z"/>
<path d="M4486 4888 c-19 -27 -21 -113 -3 -148 9 -18 22 -26 45 -28 29 -3 34
1 47 32 8 19 15 53 15 74 0 75 -69 121 -104 70z m66 -37 c12 -43 -3 -115 -24
-119 -26 -5 -38 80 -18 133 13 34 32 28 42 -14z"/>
<path d="M3075 4848 c-11 -6 -27 -15 -35 -20 -8 -5 -30 -15 -48 -24 -34 -15
-38 -31 -11 -45 61 -32 102 -49 115 -49 26 0 4 21 -47 45 -54 25 -54 28 19 64
23 12 42 26 42 31 0 12 -9 12 -35 -2z"/>
<path d="M4350 4847 c-14 -6 -30 -17 -37 -23 -6 -6 -25 -17 -42 -24 -17 -7
-31 -16 -31 -21 0 -12 131 -72 139 -64 8 9 -25 32 -66 47 -18 7 -33 18 -33 25
0 7 3 12 8 12 16 -4 92 37 92 49 0 6 -1 12 -2 11 -2 0 -14 -6 -28 -12z"/>
<path d="M2775 4814 c-9 -15 -20 -44 -22 -65 -5 -31 -2 -40 12 -45 10 -4 26
-2 36 5 12 7 19 7 19 1 0 -16 26 -12 41 7 10 12 11 17 2 20 -8 3 -9 13 -2 36
14 49 11 66 -10 64 -16 -1 -19 -7 -15 -27 6 -25 -27 -80 -47 -80 -17 0 -9 56
10 77 18 19 18 33 0 33 -3 0 -14 -12 -24 -26z"/>
<path d="M2082 4723 c2 -9 9 -18 16 -21 18 -6 15 25 -4 32 -11 4 -14 1 -12
-11z"/>
<path d="M10162 4468 c-19 -19 -14 -26 13 -20 20 3 25 0 25 -16 0 -11 -11 -34
-25 -50 -14 -17 -25 -34 -25 -39 0 -17 75 -7 78 10 2 11 -3 14 -17 10 -26 -7
-26 2 -1 34 24 31 25 46 4 67 -19 19 -36 20 -52 4z"/>
<path d="M9921 4412 c-14 -2 -20 -7 -13 -11 8 -5 6 -29 -8 -90 -11 -45 -18
-86 -15 -91 2 -4 17 -10 32 -13 22 -4 35 1 61 26 49 47 41 107 -15 107 -25 0
-28 7 -13 44 11 29 5 34 -29 28z m57 -124 c4 -30 -27 -68 -54 -68 -13 0 -15 7
-11 36 3 20 11 42 18 50 18 22 44 12 47 -18z"/>
<path d="M9422 4388 c-53 -58 -56 -156 -5 -215 17 -21 35 -35 39 -31 4 5 -1
16 -10 27 -28 31 -46 105 -36 143 5 18 11 38 12 43 2 6 14 20 28 32 18 17 21
22 9 23 -8 0 -25 -10 -37 -22z"/>
<path d="M10030 4403 c0 -4 10 -17 23 -31 19 -20 22 -34 21 -93 0 -55 -5 -75
-23 -100 -27 -36 -23 -47 7 -20 51 44 66 135 32 200 -19 38 -60 68 -60 44z"/>
<path d="M9740 4335 c0 -32 -2 -35 -30 -35 -16 0 -30 -4 -30 -10 0 -5 14 -10
30 -10 28 0 30 -3 30 -35 0 -19 5 -35 10 -35 6 0 10 16 10 35 0 32 2 35 30 35
17 0 30 5 30 10 0 6 -13 10 -30 10 -28 0 -30 3 -30 35 0 19 -4 35 -10 35 -5 0
-10 -16 -10 -35z"/>
<path d="M8792 4323 c10 -11 21 -40 24 -66 7 -51 -3 -73 -43 -88 -28 -10 -30
-29 -4 -29 28 0 141 138 141 173 0 18 -5 27 -16 27 -12 0 -15 -6 -11 -21 3
-12 -1 -33 -10 -46 l-17 -25 -17 44 c-12 31 -23 44 -40 47 -23 3 -23 2 -7 -16z"/>
<path d="M9246 4309 c-33 -38 -36 -93 -6 -109 11 -6 20 -7 20 -1 0 15 32 22
46 10 18 -15 37 -1 31 23 -3 11 0 40 8 64 l13 44 -43 0 c-36 0 -48 -5 -69 -31z
m63 -38 c-10 -27 -35 -51 -53 -51 -3 0 -6 14 -6 30 0 40 47 92 61 68 5 -9 4
-29 -2 -47z"/>
<path d="M9500 4331 c0 -5 7 -12 16 -15 24 -9 15 -69 -13 -81 -13 -5 -23 -15
-23 -22 0 -20 28 -15 42 7 16 26 24 25 31 -1 7 -26 40 -22 45 5 3 11 0 16 -7
12 -6 -4 -16 4 -22 18 -13 28 1 56 27 56 8 0 14 7 14 15 0 20 -19 19 -42 -2
-17 -15 -18 -15 -18 0 0 11 -8 17 -25 17 -14 0 -25 -4 -25 -9z"/>
<path d="M8980 4310 c0 -6 34 -10 81 -10 51 0 78 4 74 10 -3 6 -40 10 -81 10
-43 0 -74 -4 -74 -10z"/>
<path d="M8980 4261 c0 -10 58 -21 113 -21 26 0 37 4 37 15 0 12 -15 15 -75
15 -41 0 -75 -4 -75 -9z"/>
<path d="M3612 4193 c-43 -2 -70 -8 -67 -13 4 -6 15 -10 26 -10 17 0 24 -11
20 -34 -1 -4 -2 -24 -3 -42 -1 -19 -5 -37 -10 -40 -4 -3 -8 -13 -8 -22 0 -9
-14 -31 -32 -49 -23 -24 -27 -33 -16 -33 24 0 77 69 84 108 l7 34 23 -42 c13
-23 24 -44 24 -47 0 -2 -24 -15 -52 -28 -38 -17 -46 -24 -30 -24 12 -1 41 8
64 20 l41 21 37 -21 c21 -12 45 -21 55 -21 26 0 12 23 -21 33 -47 15 -57 27
-40 46 15 17 46 76 46 87 0 3 -11 3 -25 0 -22 -6 -25 -3 -25 23 0 16 5 33 10
36 15 9 2 25 -18 23 -9 -1 -50 -4 -90 -5z m78 -30 c-1 -35 -15 -53 -39 -53
-35 0 -39 5 -33 35 4 21 10 25 38 25 19 0 34 -3 34 -7z m26 -90 c-32 -58 -33
-59 -55 -22 -12 19 -21 37 -21 42 0 4 20 7 45 7 l46 0 -15 -27z"/>
<path d="M4066 4176 c3 -8 -4 -44 -15 -81 -30 -97 -29 -105 19 -105 32 0 43 5
62 31 13 17 22 37 22 45 -1 8 -2 23 -3 34 -1 15 -8 20 -31 20 -33 0 -35 5 -20
44 9 24 7 26 -15 26 -17 0 -23 -4 -19 -14z m62 -89 c7 -8 7 -18 2 -27 -5 -8
-7 -17 -4 -22 7 -11 -44 -41 -61 -34 -12 4 -13 11 -4 33 11 30 37 63 49 63 4
0 12 -6 18 -13z"/>
<path d="M4490 4158 c-22 -36 -26 -91 -10 -133 11 -30 31 -39 64 -31 50 12 61
141 16 178 -32 26 -48 22 -70 -14z m63 -97 c-5 -30 -14 -47 -25 -49 -32 -6
-37 130 -5 150 21 13 40 -50 30 -101z"/>
<path d="M1870 4171 c0 -6 5 -13 10 -16 6 -3 10 -37 10 -75 0 -38 -4 -72 -10
-75 -5 -3 -10 -10 -10 -16 0 -14 114 -11 133 4 24 18 31 61 13 76 -12 10 -13
18 -5 32 14 27 2 58 -28 70 -32 12 -113 12 -113 0z m94 -17 c9 -3 16 -16 16
-29 0 -22 -17 -35 -46 -35 -9 0 -14 11 -14 35 0 36 10 42 44 29z m1 -84 c8 0
17 -10 21 -22 7 -24 -17 -48 -48 -48 -14 0 -18 8 -18 41 0 33 3 40 16 35 9 -3
22 -6 29 -6z"/>
<path d="M3206 4165 c-39 -40 -27 -156 19 -177 33 -15 52 -5 69 35 16 39 14
90 -4 130 -15 31 -58 37 -84 12z m60 -25 c0 -8 4 -23 9 -33 4 -9 4 -29 0 -45
-4 -15 -7 -29 -7 -32 0 -9 -20 -30 -29 -30 -22 0 -30 93 -13 148 5 18 39 11
40 -8z"/>
<path d="M3018 4097 c-37 -18 -67 -35 -68 -38 0 -7 89 -51 128 -63 15 -5 22
-3 22 6 0 7 -26 22 -57 34 l-57 20 57 24 c31 13 57 30 57 37 0 17 -4 16 -82
-20z"/>
<path d="M4240 4120 c0 -6 23 -22 52 -35 l52 -24 -52 -23 c-28 -13 -52 -29
-52 -35 0 -7 2 -13 5 -13 12 0 135 65 135 72 0 9 -113 68 -130 68 -5 0 -10 -5
-10 -10z"/>
<path d="M2779 4090 c-52 -51 -31 -142 21 -95 18 16 20 17 20 2 0 -37 34 -10
36 28 1 11 4 36 8 55 7 34 6 35 -24 37 -24 2 -40 -5 -61 -27z m53 -21 c-3 -30
-36 -64 -51 -54 -22 13 19 90 43 82 6 -2 10 -15 8 -28z"/>
<path d="M2071 4006 c-12 -14 -5 -26 16 -26 15 0 18 26 4 34 -5 3 -14 0 -20
-8z"/>
<path d="M3623 3472 c-77 -3 -112 -16 -60 -24 19 -3 22 -10 25 -50 3 -52 -14
-96 -56 -140 -14 -15 -22 -31 -18 -35 12 -12 75 66 88 110 l12 40 9 -29 c5
-16 17 -37 26 -47 15 -17 14 -20 -4 -33 -11 -8 -37 -19 -58 -25 -28 -7 -36
-14 -29 -21 7 -7 28 -2 67 16 l57 26 38 -21 c21 -12 46 -19 55 -15 22 8 12 22
-22 31 -51 12 -54 22 -22 70 36 54 38 80 5 71 -31 -8 -36 0 -24 36 6 16 7 32
2 36 -5 4 -46 6 -91 4z m62 -51 c-6 -27 -11 -31 -41 -31 -31 0 -34 3 -34 29 0
27 3 30 38 33 20 2 39 2 40 1 2 -1 1 -15 -3 -32z m34 -68 c-12 -32 -28 -53
-40 -53 -13 0 -49 62 -43 72 3 4 25 8 49 8 44 0 44 0 34 -27z"/>
<path d="M4056 3461 c-4 -5 -1 -11 5 -13 8 -3 4 -26 -10 -74 -30 -102 -29
-114 14 -114 47 0 85 37 85 82 0 48 -14 66 -39 51 -25 -15 -32 -7 -20 24 5 13
9 31 9 39 0 15 -35 20 -44 5z m67 -108 c8 -37 -38 -94 -63 -78 -9 6 6 61 23
83 14 18 35 15 40 -5z"/>
<path d="M4496 3451 c-37 -41 -42 -118 -10 -168 16 -26 55 -30 73 -9 37 44 31
145 -10 179 -27 21 -32 21 -53 -2z m48 -27 c3 -9 6 -37 6 -64 0 -27 -3 -55 -6
-64 -9 -22 -31 -20 -39 4 -8 26 -9 116 0 129 9 16 32 13 39 -5z"/>
<path d="M1903 3436 c-38 -32 -49 -82 -29 -130 16 -39 42 -56 83 -56 34 0 73
25 73 46 0 12 -5 11 -26 -5 -34 -27 -50 -26 -79 4 -33 32 -33 84 -2 121 19 21
29 26 50 20 14 -3 29 -15 32 -26 10 -32 25 -23 21 12 -3 30 -6 32 -48 35 -37
3 -51 0 -75 -21z"/>
<path d="M3219 3447 c-29 -22 -42 -80 -29 -129 13 -47 24 -58 57 -58 34 0 61
47 59 101 -5 77 -46 118 -87 86z m45 -29 c9 -12 16 -37 16 -56 0 -35 -24 -92
-40 -92 -21 0 -31 106 -15 158 6 18 22 15 39 -10z"/>
<path d="M2956 3402 c-13 -12 -4 -20 43 -41 52 -22 73 -41 46 -41 -22 0 -95
-38 -95 -50 0 -6 3 -10 7 -10 12 0 131 59 137 68 6 10 -129 83 -138 74z"/>
<path d="M4306 3376 c-33 -18 -61 -37 -64 -44 -4 -13 126 -78 136 -67 9 9 -23
32 -65 47 -18 7 -33 17 -33 23 0 6 23 22 50 34 28 12 50 27 50 32 0 14 -10 11
-74 -25z"/>
<path d="M2812 3388 c-7 -7 -12 -9 -12 -5 0 16 -37 -29 -49 -60 -24 -60 8 -94
52 -55 11 9 17 12 14 5 -10 -16 12 -28 26 -14 7 7 12 22 13 34 0 12 4 42 8 67
5 29 4 40 -2 31 -7 -9 -12 -10 -16 -2 -9 14 -19 14 -34 -1z m18 -36 c0 -32
-25 -72 -46 -72 -20 0 -17 29 6 68 24 39 40 41 40 4z"/>
<path d="M2060 3270 c0 -11 7 -20 15 -20 8 0 15 9 15 20 0 11 -7 20 -15 20 -8
0 -15 -9 -15 -20z"/>
<path d="M3543 2738 c-2 -5 7 -8 22 -8 24 0 25 -2 24 -50 -1 -27 -6 -50 -10
-50 -4 0 -6 -8 -4 -17 1 -10 -13 -39 -31 -65 -24 -34 -30 -48 -19 -48 17 0 60
64 80 119 10 25 14 30 14 15 1 -12 10 -33 21 -47 23 -29 17 -36 -46 -63 -22
-10 -33 -19 -25 -22 7 -2 35 6 61 18 l47 22 41 -21 c23 -12 49 -21 57 -21 27
0 11 23 -23 34 -51 18 -54 27 -21 79 33 53 31 70 -8 61 -28 -7 -28 -8 -7 56 4
13 -9 15 -81 15 -48 0 -89 -3 -92 -7z m143 -24 c-3 -9 -6 -22 -6 -30 0 -9 -11
-14 -35 -14 -32 0 -35 2 -35 30 0 28 2 30 41 30 33 0 40 -3 35 -16z m34 -70
c0 -9 -40 -74 -46 -74 -2 0 -13 18 -24 40 l-20 40 45 0 c25 0 45 -3 45 -6z"/>
<path d="M3211 2723 c-41 -34 -40 -150 2 -178 34 -22 64 -9 78 34 18 52 18 82
1 116 -24 49 -46 56 -81 28z m50 -20 c1 -10 1 -22 0 -27 -1 -4 3 -14 10 -22 6
-7 7 -19 3 -26 -4 -7 -8 -24 -8 -38 -1 -18 -7 -26 -23 -28 -18 -3 -22 3 -28
37 -11 64 7 120 38 121 4 0 8 -8 8 -17z"/>
<path d="M4052 2668 c-31 -106 -32 -122 -3 -126 59 -9 106 36 99 96 -2 22 -9
28 -35 30 -30 3 -31 4 -22 35 11 40 12 37 -5 37 -8 0 -22 -29 -34 -72z m72
-49 c-1 -36 -35 -75 -59 -65 -12 4 -14 12 -10 28 20 68 71 95 69 37z"/>
<path d="M4482 2720 c-6 -11 -12 -47 -12 -80 0 -52 4 -65 25 -86 20 -20 29
-23 45 -14 11 6 24 19 30 30 16 29 12 122 -6 148 -19 28 -65 29 -82 2z m62
-16 c21 -55 -8 -172 -34 -134 -11 17 -14 133 -3 143 11 12 31 7 37 -9z"/>
<path d="M1868 2718 c7 -7 12 -42 12 -85 0 -59 -3 -75 -17 -80 -31 -12 21 -22
82 -16 70 7 95 34 95 100 0 33 -6 50 -25 68 -21 22 -33 25 -92 25 -52 0 -64
-3 -55 -12z m118 -22 c14 -11 19 -26 19 -61 0 -53 -20 -75 -67 -75 l-28 0 0
75 0 75 28 0 c16 0 37 -6 48 -14z"/>
<path d="M4240 2676 c0 -7 22 -25 50 -38 l50 -25 -50 -23 c-28 -13 -50 -30
-50 -38 0 -7 3 -12 8 -10 4 2 33 16 64 32 86 41 86 40 -14 88 -41 19 -58 23
-58 14z"/>
<path d="M2943 2673 c3 -5 28 -20 56 -33 28 -13 51 -27 51 -30 0 -4 -20 -15
-44 -24 -46 -18 -80 -46 -56 -46 20 0 150 62 150 71 0 9 -95 56 -134 65 -17 4
-27 3 -23 -3z"/>
<path d="M2778 2652 c-41 -46 -53 -122 -20 -122 9 0 24 4 31 9 9 6 22 6 32 1
12 -7 21 -5 30 7 11 12 11 17 2 20 -8 3 -9 12 -4 26 4 12 11 34 14 48 6 24 4
26 -32 27 -25 1 -43 -4 -53 -16z m52 -21 c0 -21 -36 -71 -52 -71 -13 0 -3 57
13 77 16 19 39 16 39 -6z"/>
<path d="M2077 2564 c-8 -8 3 -34 14 -34 5 0 9 9 9 20 0 19 -11 26 -23 14z"/>
<path d="M11593 1030 c-93 -56 -96 -180 -4 -180 46 0 82 25 105 74 21 46 20
78 -4 104 -26 27 -55 28 -97 2z m82 -13 c19 -30 5 -84 -34 -126 -35 -37 -55
-39 -76 -8 -13 21 -13 29 0 75 23 77 78 107 110 59z"/>
<path d="M12977 962 c19 -33 12 -62 -17 -69 -11 -3 -20 -12 -20 -19 0 -20 17
-17 40 6 15 15 20 16 20 6 0 -26 22 -29 44 -6 18 19 18 22 3 17 -21 -8 -32 13
-23 47 3 14 13 23 22 22 9 0 19 5 21 12 7 18 -34 15 -45 -4 -8 -15 -10 -15
-15 0 -4 9 -15 16 -26 16 -19 0 -19 -1 -4 -28z"/>
</g>
</svg>
