<?xml version="1.0" standalone="no"?>
<!DOCTYPE svg PUBLIC "-//W3C//DTD SVG 20010904//EN"
 "http://www.w3.org/TR/2001/REC-SVG-20010904/DTD/svg10.dtd">
<svg version="1.0" xmlns="http://www.w3.org/2000/svg"
 width="1294.000000pt" height="657.000000pt" viewBox="0 0 1294.000000 657.000000"
 preserveAspectRatio="xMidYMid meet">
<metadata>
Created by potrace 1.16, written by Peter Selinger 2001-2019
</metadata>
<g transform="translate(0.000000,657.000000) scale(0.100000,-0.100000)"
fill="#000000" stroke="none">
<path d="M1178 6272 c-122 -3 -161 -19 -60 -24 l57 -3 3 -84 c2 -46 -2 -97 -7
-113 -8 -22 -7 -28 5 -28 10 0 14 15 15 63 1 34 1 70 0 80 -3 25 22 21 49 -8
25 -26 55 -34 48 -12 -4 11 -33 33 -84 63 -11 6 -15 16 -11 27 5 13 19 17 68
17 42 0 59 4 57 12 -5 15 1 14 -140 10z"/>
<path d="M1493 6273 c-70 -2 -113 -8 -113 -14 0 -6 21 -10 53 -8 40 2 51 -1
49 -12 -6 -23 -17 -29 -55 -31 l-37 -1 0 -95 c0 -74 3 -92 13 -84 16 13 180
11 189 -2 12 -18 15 -3 20 92 5 82 4 93 -11 91 -42 -4 -101 2 -101 10 0 5 7
17 16 26 12 12 27 14 65 9 41 -6 49 -4 49 10 0 9 -6 15 -12 14 -7 -1 -64 -4
-125 -5z m-48 -139 c0 -71 -3 -84 -21 -84 -11 0 -14 17 -14 68 0 38 3 72 7 76
17 17 28 -5 28 -60z m83 42 c3 -14 -2 -17 -24 -14 -32 4 -43 24 -17 31 27 7
38 2 41 -17z m60 -54 c3 -67 1 -72 -18 -72 -18 0 -20 6 -20 76 0 66 2 75 18
72 14 -3 18 -16 20 -76z m-58 3 c0 -10 -10 -15 -30 -15 -20 0 -30 5 -30 15 0
10 10 15 30 15 20 0 30 -5 30 -15z m0 -55 c0 -16 -7 -20 -30 -20 -23 0 -30 4
-30 20 0 16 7 20 30 20 23 0 30 -4 30 -20z"/>
<path d="M1732 6268 c-7 -7 -12 -18 -12 -25 0 -7 -6 -13 -14 -13 -15 0 -26
-61 -26 -141 0 -46 11 -62 25 -39 9 14 65 13 65 -2 0 -6 3 -8 7 -5 3 4 6 32 5
62 0 30 4 55 9 55 4 0 15 14 24 30 13 26 21 30 55 30 l40 0 0 -64 c0 -88 -11
-115 -44 -109 -32 6 -35 -12 -3 -21 39 -10 46 -7 56 32 14 57 21 181 10 187
-5 4 -9 2 -9 -3 0 -4 -18 -8 -41 -8 -37 0 -40 2 -34 23 3 15 1 23 -7 23 -7 0
-20 -24 -29 -52 l-16 -53 -8 33 c-10 41 -20 32 -20 -16 0 -33 -3 -37 -27 -40
-25 -3 -28 0 -28 27 0 16 6 34 13 38 11 8 37 47 37 58 0 9 -16 5 -28 -7z m36
-160 c-2 -24 -8 -34 -23 -36 -32 -4 -49 13 -41 42 5 21 12 26 37 26 28 0 30
-2 27 -32z"/>
<path d="M2040 6250 c0 -22 -6 -33 -22 -39 -17 -6 -18 -9 -5 -14 14 -5 14 -10
-4 -46 -24 -51 -24 -73 0 -44 29 35 37 -5 16 -74 -5 -14 -3 -23 3 -23 18 0 24
19 23 76 0 41 3 54 14 54 19 0 19 14 0 30 -22 18 -19 30 8 30 l22 0 -22 18
c-16 12 -21 23 -17 40 4 13 2 22 -5 22 -6 0 -11 -14 -11 -30z"/>
<path d="M2326 6236 c-24 -42 -27 -52 -17 -69 9 -14 10 -22 2 -30 -10 -10 -16
-47 -7 -47 2 0 16 6 32 14 23 13 78 12 93 0 2 -2 -6 -16 -18 -32 -12 -17 -21
-33 -21 -37 0 -13 32 13 51 41 l19 29 0 -27 c0 -18 -5 -28 -15 -28 -21 0 -19
-13 4 -27 22 -14 31 -8 31 22 0 35 12 38 35 9 14 -17 26 -24 34 -20 9 6 5 16
-15 37 l-27 28 27 12 c27 13 33 24 16 34 -5 3 -10 31 -10 61 0 30 -4 54 -10
54 -5 0 -10 -4 -10 -8 0 -4 -9 -8 -20 -8 -15 0 -18 5 -14 18 7 24 -7 23 -29
-2 -9 -11 -22 -17 -29 -15 -10 4 -13 -9 -13 -50 0 -53 1 -56 23 -50 24 6 31
-10 7 -19 -19 -7 -43 2 -68 27 -19 19 -18 19 2 41 19 20 20 24 6 36 -12 10
-15 10 -15 -3 0 -17 -28 -43 -37 -34 -3 4 2 18 11 32 10 15 16 34 14 43 -2 11
-13 1 -32 -32z m184 -16 c0 -5 -16 -10 -35 -10 -19 0 -35 5 -35 10 0 6 16 10
35 10 19 0 35 -4 35 -10z m10 -41 c0 -5 -20 -9 -45 -9 -26 0 -45 5 -45 11 0 7
9 9 23 6 12 -4 29 -2 37 3 15 9 30 4 30 -11z m-155 -39 c-3 -5 -13 -10 -21
-10 -8 0 -12 5 -9 10 3 6 13 10 21 10 8 0 12 -4 9 -10z m155 -5 c0 -8 -7 -15
-15 -15 -8 0 -15 7 -15 15 0 8 7 15 15 15 8 0 15 -7 15 -15z"/>
<path d="M2629 6185 c-1 -88 -2 -99 -14 -140 -6 -20 -3 -20 100 -17 68 3 110
0 119 -7 7 -6 16 -8 19 -4 4 3 7 63 7 132 l0 126 -115 0 -115 0 -1 -90z m61
29 c0 -31 -3 -35 -22 -32 -39 5 -37 68 2 68 16 0 20 -6 20 -36z m150 -53 c0
-92 -5 -121 -22 -121 -5 0 -8 26 -6 60 1 33 7 60 11 60 5 0 7 6 5 12 -3 8 -19
12 -44 9 -21 -1 -35 1 -31 6 5 4 13 9 18 9 5 1 14 2 19 3 6 0 10 12 10 26 0
18 5 25 20 25 19 0 20 -7 20 -89z m-60 59 c0 -5 -16 -10 -35 -10 -19 0 -35 5
-35 10 0 6 16 10 35 10 19 0 35 -4 35 -10z m-55 -30 c3 -5 -1 -10 -9 -10 -9 0
-16 5 -16 10 0 6 4 10 9 10 6 0 13 -4 16 -10z m-57 -84 c2 -44 0 -57 -10 -54
-8 3 -14 26 -16 62 -2 44 0 57 10 54 8 -3 14 -26 16 -62z m95 27 c-7 -2 -21
-2 -30 0 -10 3 -4 5 12 5 17 0 24 -2 18 -5z m24 -45 c-3 -7 -5 -2 -5 12 0 14
2 19 5 13 2 -7 2 -19 0 -25z m-30 16 c-3 -3 -12 -4 -19 -1 -8 3 -5 6 6 6 11 1
17 -2 13 -5z"/>
<path d="M2988 6272 l-48 -3 0 -45 c0 -24 5 -44 11 -44 6 0 4 -7 -5 -15 -8 -9
-15 -30 -14 -48 0 -18 -2 -48 -6 -67 -6 -32 -6 -33 8 -17 8 11 12 25 9 33 -4
10 3 14 21 14 17 0 26 5 26 16 0 10 -6 14 -15 10 -8 -3 -15 -1 -15 5 0 6 10 9
22 7 20 -3 22 -8 20 -45 -2 -26 1 -43 7 -43 6 0 11 11 11 24 0 31 14 40 30 20
7 -8 20 -12 28 -9 13 5 13 3 2 -11 -12 -14 -15 -13 -32 8 -14 18 -18 20 -18 6
0 -9 4 -19 10 -23 5 -3 7 -12 3 -20 -9 -24 14 -17 49 14 l32 28 24 -29 c17
-20 28 -26 35 -19 7 7 6 15 -3 26 -9 11 -11 39 -8 95 4 62 2 80 -9 80 -7 0
-13 -10 -13 -22 0 -19 -6 -23 -35 -25 -29 -3 -35 0 -35 17 0 13 7 20 19 20 10
0 21 9 24 20 4 15 14 20 37 20 18 0 30 5 28 11 -4 11 -112 17 -200 11z m38
-29 c-11 -12 -56 -14 -56 -3 0 5 14 10 32 10 17 0 28 -3 24 -7z m74 -9 c0 -10
-6 -14 -15 -10 -11 4 -15 -2 -15 -28 0 -25 -7 -38 -26 -51 l-27 -17 17 23 c9
13 16 40 16 61 0 34 3 38 25 38 16 0 25 -6 25 -16z m-70 -24 c0 -5 -16 -10
-35 -10 -19 0 -35 5 -35 10 0 6 16 10 35 10 19 0 35 -4 35 -10z m-10 -29 c0
-22 -13 -39 -26 -34 -17 6 -18 30 -1 36 19 8 27 8 27 -2z m130 -36 c0 -10 -11
-15 -35 -15 -24 0 -35 5 -35 15 0 10 11 15 35 15 24 0 35 -5 35 -15z m-90 -25
c0 -5 -5 -10 -11 -10 -5 0 -7 5 -4 10 3 6 8 10 11 10 2 0 4 -4 4 -10z m90 -20
c0 -5 -16 -10 -35 -10 -19 0 -35 5 -35 10 0 6 16 10 35 10 19 0 35 -4 35 -10z"/>
<path d="M3646 6254 c-6 -23 -11 -26 -46 -22 -33 3 -40 0 -40 -14 0 -12 6 -16
25 -12 53 9 51 -20 -2 -78 -14 -14 -23 -32 -21 -39 3 -8 11 -4 26 11 l22 24 0
-55 0 -54 107 3 c59 1 109 5 112 7 11 12 -13 19 -54 16 l-45 -2 0 41 c0 39 1
40 35 40 25 0 35 4 35 15 0 13 -7 15 -36 9 -37 -7 -37 -7 -30 22 10 37 8 35
48 37 22 1 33 7 33 17 0 9 -8 14 -20 12 -33 -5 -127 -3 -133 3 -3 3 0 11 6 17
16 16 15 28 -2 28 -8 0 -17 -12 -20 -26z m64 -85 c0 -26 -4 -29 -30 -29 -16 0
-30 -4 -30 -10 0 -5 14 -10 30 -10 28 0 30 -2 30 -39 0 -38 -1 -39 -40 -43
l-40 -4 0 58 c0 64 15 105 39 111 28 6 41 -4 41 -34z"/>
<path d="M3950 6262 c0 -11 -6 -23 -12 -25 -10 -4 -10 -6 0 -6 8 -1 12 -18 12
-52 0 -46 2 -50 20 -44 11 4 20 2 20 -4 0 -7 -23 -11 -55 -11 -30 0 -55 -4
-55 -10 0 -5 25 -10 54 -10 l55 0 3 -47 c2 -27 8 -48 13 -48 6 0 11 21 13 48
l3 47 65 0 c41 0 63 4 59 10 -3 6 -33 10 -66 10 -33 0 -58 4 -55 9 3 5 15 7
25 4 17 -4 20 1 23 38 3 42 5 44 36 47 20 2 32 8 29 15 -2 7 -18 11 -35 9 -26
-3 -31 0 -26 12 4 11 1 16 -10 16 -9 0 -16 -7 -16 -15 0 -10 -11 -15 -32 -16
l-33 -1 29 -7 c45 -9 43 -29 -3 -29 -40 -1 -40 -1 -38 35 1 22 -3 38 -10 40
-8 3 -13 -4 -13 -15z m98 -94 c-3 -7 -10 -13 -16 -12 -7 1 -24 2 -38 3 -38 2
-18 21 22 21 24 0 34 -4 32 -12z"/>
<path d="M4243 6266 c-19 -9 -23 -19 -23 -59 0 -26 -4 -46 -9 -43 -10 7 -25
-43 -16 -53 4 -3 11 2 16 12 8 14 25 17 104 17 78 0 95 -3 95 -15 0 -20 7 -19
33 5 l22 21 -23 6 c-25 6 -25 5 -13 56 6 23 5 39 -1 43 -5 3 -37 7 -71 9 -34
1 -69 5 -77 7 -8 3 -25 0 -37 -6z m57 -27 c0 -5 -8 -9 -17 -7 -10 1 -24 -1
-30 -5 -7 -5 -13 -4 -13 2 0 5 6 12 13 14 22 9 47 7 47 -4z m100 -11 c0 -6 -7
-8 -15 -5 -8 4 -17 2 -20 -4 -4 -5 4 -13 17 -18 22 -9 22 -10 -5 -10 -32 -1
-28 -21 4 -21 11 0 17 -4 14 -10 -10 -17 -43 -11 -47 8 -2 9 -2 31 0 48 3 27
7 30 28 26 13 -2 24 -9 24 -14z m-70 -18 c0 -5 -7 -10 -15 -10 -8 0 -15 -5
-15 -11 0 -16 -26 -39 -44 -39 -9 0 -16 5 -16 10 0 6 9 10 20 10 11 0 20 5 20
10 0 6 -9 10 -21 10 -11 0 -18 4 -14 10 3 5 12 7 19 4 8 -3 17 -1 21 5 8 14
45 14 45 1z m-3 -56 c-3 -3 -12 -4 -19 -1 -8 3 -5 6 6 6 11 1 17 -2 13 -5z"/>
<path d="M412 6254 c-17 -12 -22 -25 -22 -58 0 -48 18 -71 50 -63 30 8 24 -7
-15 -42 -34 -29 -34 -31 -12 -31 13 0 36 13 53 31 25 26 29 38 29 89 0 33 -4
63 -10 68 -20 19 -51 22 -73 6z m48 -24 c17 -33 9 -75 -15 -75 -15 0 -21 8
-23 33 -6 59 16 83 38 42z"/>
<path d="M2098 6163 c-1 -57 -2 -111 -2 -120 -1 -15 10 -18 77 -21 61 -2 77 0
77 11 0 12 -13 14 -65 9 -55 -4 -65 -2 -65 11 0 13 11 15 62 14 41 -1 63 2 65
11 3 8 -6 12 -26 12 -24 0 -31 4 -31 19 0 13 8 21 23 23 25 3 21 23 -5 22 -13
0 -18 7 -18 23 0 13 4 22 9 19 11 -7 41 3 41 14 0 5 -27 6 -60 3 -57 -5 -60
-5 -60 16 0 17 4 21 19 16 11 -3 22 -2 25 4 3 5 -10 11 -29 13 l-35 4 -2 -103z
m70 8 c3 -20 0 -23 -17 -18 -12 3 -21 1 -21 -5 0 -5 9 -12 20 -15 11 -3 20
-14 20 -25 0 -15 -6 -19 -27 -16 -26 3 -28 5 -24 48 1 25 5 49 8 53 10 16 38
1 41 -22z"/>
<path d="M2215 6261 c-11 -5 -24 -6 -29 -3 -5 3 -6 0 -2 -6 8 -13 35 -16 60
-6 9 3 13 10 10 15 -6 11 -12 10 -39 0z"/>
<path d="M3363 6262 c-116 -4 -105 -22 13 -22 69 0 95 3 92 12 -5 15 -5 14
-105 10z"/>
<path d="M4530 6250 c0 -13 -5 -18 -15 -14 -10 4 -15 0 -15 -10 0 -9 7 -19 15
-22 11 -5 15 -21 15 -61 0 -45 -3 -54 -15 -49 -9 3 -15 0 -15 -9 0 -8 9 -15
21 -15 l20 0 -21 -30 c-16 -22 -18 -30 -7 -30 19 0 60 46 52 59 -3 6 0 11 8
11 8 0 18 -11 21 -25 4 -14 11 -25 16 -25 5 0 7 -7 3 -16 -5 -13 -3 -14 13 -6
25 14 54 49 47 56 -3 3 -1 12 5 19 7 8 9 17 5 20 -3 4 8 7 25 7 30 0 32 -2 32
-35 0 -28 -4 -35 -20 -35 -11 0 -20 -3 -20 -8 0 -13 42 -34 50 -25 5 4 10 64
11 132 l2 124 -49 0 c-37 0 -50 -4 -52 -16 -2 -9 -9 -14 -17 -11 -8 3 -11 12
-8 21 4 11 1 14 -13 11 -14 -2 -20 -13 -22 -46 -3 -37 -6 -42 -28 -42 -15 0
-24 6 -24 15 0 14 12 19 33 16 4 0 7 4 7 9 0 6 -9 10 -21 10 -16 0 -19 4 -14
20 5 14 2 20 -9 20 -9 0 -16 -8 -16 -20z m205 -35 c0 -28 -41 -33 -48 -6 -6
25 1 33 28 29 12 -2 20 -10 20 -23z m-73 -63 c-3 -53 -6 -59 -23 -55 -26 7
-28 97 -2 112 10 5 20 8 23 6 3 -2 4 -30 2 -63z m78 -7 c0 -20 -5 -25 -24 -25
-15 0 -26 7 -29 19 -6 25 0 31 30 31 18 0 23 -5 23 -25z m-140 5 c0 -5 -11
-10 -25 -10 -14 0 -25 5 -25 10 0 6 11 10 25 10 14 0 25 -4 25 -10z m0 -45 c0
-9 -9 -15 -25 -15 -16 0 -25 6 -25 15 0 9 9 15 25 15 16 0 25 -6 25 -15z m44
-49 c-5 -13 -9 -14 -21 -4 -13 10 -13 13 4 19 23 8 25 6 17 -15z"/>
<path d="M5204 6258 c-4 -6 -6 -37 -5 -70 2 -47 -1 -58 -13 -58 -20 0 -22 66
-3 73 9 3 9 7 0 17 -19 21 -33 1 -33 -50 0 -30 -5 -50 -12 -53 -9 -3 -10 -8
-3 -15 13 -12 117 19 123 37 3 9 -2 11 -17 6 -17 -5 -21 -2 -21 14 0 12 6 21
14 21 8 0 21 3 30 6 13 5 16 -1 16 -25 0 -18 9 -40 20 -51 l20 -20 -22 -1
c-13 -1 -47 -1 -75 -1 -29 0 -53 -4 -53 -9 0 -5 41 -9 91 -9 75 0 90 3 86 14
-4 10 2 16 16 18 23 3 33 29 21 56 -6 14 -8 13 -13 -8 -8 -29 -42 -38 -60 -16
-7 8 -10 24 -6 35 5 16 14 20 37 18 19 -1 33 3 36 12 4 11 -3 13 -31 8 -34 -5
-36 -4 -39 25 -4 42 -28 50 -28 9 0 -28 -3 -31 -31 -31 -30 0 -31 2 -25 30 5
30 -6 41 -20 18z"/>
<path d="M5504 6255 c-4 -8 -14 -15 -24 -15 -11 0 -22 -4 -25 -10 -6 -10 7
-14 33 -11 6 1 12 -7 12 -18 0 -17 -5 -20 -30 -14 -19 3 -30 1 -30 -6 0 -10
17 -15 50 -13 16 1 10 -4 -37 -35 -15 -10 -11 -12 29 -12 47 -1 47 -1 31 -21
-10 -11 -28 -20 -40 -20 -14 0 -23 -6 -23 -16 0 -12 7 -14 30 -9 24 5 30 3 30
-10 0 -12 -6 -15 -20 -10 -25 8 -26 -6 -1 -22 23 -14 37 -2 43 37 2 15 11 26
23 28 36 7 43 25 8 20 -27 -4 -31 -2 -21 9 6 8 20 12 30 10 11 -3 18 0 18 9 0
25 15 15 28 -18 11 -30 11 -35 -11 -53 -13 -11 -33 -25 -43 -32 -18 -11 -18
-12 2 -12 12 -1 33 9 48 20 l27 21 24 -22 c13 -12 29 -19 35 -15 8 5 4 15 -14
32 -15 14 -25 30 -22 36 3 7 10 30 17 52 7 22 17 43 22 46 20 14 -6 30 -40 24
-30 -4 -35 -3 -30 12 2 10 6 24 8 32 2 7 -1 15 -8 18 -7 3 -15 -10 -19 -32 -3
-20 -13 -39 -21 -42 -23 -9 -27 5 -9 31 19 30 8 40 -29 26 -34 -13 -35 -13
-29 5 4 8 1 15 -5 15 -7 0 -14 -7 -17 -15z m162 -95 c-3 -11 -9 -29 -12 -40
-6 -24 -24 -17 -24 10 0 10 -5 20 -12 22 -20 7 2 28 28 28 21 0 24 -4 20 -20z
m-82 -5 c-10 -8 -32 -14 -49 -14 -29 0 -29 0 -11 14 11 8 33 15 50 15 28 0 29
-1 10 -15z"/>
<path d="M5803 6250 c-3 -12 -12 -19 -22 -18 -14 3 -16 -12 -19 -109 -2 -104
4 -133 23 -103 3 6 24 10 46 10 38 0 39 1 39 35 0 50 -1 50 -47 47 -33 -3 -43
0 -43 12 0 10 12 16 43 18 l42 3 0 45 c0 42 -2 45 -25 42 -19 -2 -22 0 -12 10
17 17 15 28 -4 28 -9 0 -18 -9 -21 -20z m43 -53 c10 -10 -16 -37 -37 -37 -21
0 -33 15 -26 33 5 13 52 16 63 4z m2 -129 c-2 -18 -10 -23 -33 -23 -23 0 -31
5 -33 23 -3 19 1 22 33 22 32 0 36 -3 33 -22z"/>
<path d="M5938 6262 c-70 -3 -92 -18 -35 -24 25 -2 33 -8 35 -27 3 -21 1 -23
-25 -18 l-28 5 -2 -84 c0 -46 3 -84 8 -84 5 0 9 32 9 70 0 64 2 70 21 70 19 0
20 -5 18 -82 -1 -55 2 -83 9 -86 9 -3 12 22 12 81 0 66 3 86 15 91 12 4 15 -5
15 -54 0 -33 -4 -60 -10 -60 -5 0 -7 -7 -4 -15 13 -33 31 -14 38 38 11 99 10
107 -24 107 -25 0 -30 4 -30 25 0 22 4 25 36 25 23 0 34 4 32 12 -5 14 -7 15
-90 10z"/>
<path d="M6120 6246 c-5 -14 -16 -26 -25 -26 -12 0 -15 -17 -15 -100 0 -60 4
-100 10 -100 6 0 10 5 10 11 0 8 14 10 45 6 l45 -7 0 60 c0 33 4 60 9 60 5 0
14 13 20 29 11 24 17 28 44 25 18 -1 36 -3 40 -3 7 -1 2 -98 -9 -149 -4 -20
-9 -23 -34 -17 -38 8 -39 -6 -2 -23 24 -11 29 -10 44 8 10 12 19 48 23 88 3
37 8 78 11 92 4 23 1 26 -28 27 -70 2 -70 2 -63 23 4 14 2 20 -8 20 -9 0 -20
-19 -27 -47 -12 -41 -14 -44 -22 -23 -6 16 -14 21 -29 17 -16 -4 -19 -2 -14
11 11 28 11 34 -2 39 -7 3 -17 -7 -23 -21z m50 -82 c0 -23 -3 -25 -32 -22 -25
2 -34 8 -36 26 -3 19 1 22 32 22 32 0 36 -3 36 -26z m-6 -52 c3 -5 2 -18 -1
-30 -4 -16 -13 -22 -34 -22 -26 0 -29 4 -29 30 0 27 3 30 29 30 17 0 32 -4 35
-8z"/>
<path d="M6394 6261 c-9 -10 -4 -261 6 -261 11 0 13 21 10 113 l-1 57 40 0
c46 0 48 2 52 54 l4 38 -53 2 c-30 0 -56 -1 -58 -3z m71 -30 c-6 -11 -45 -10
-45 1 0 4 12 8 26 8 14 0 23 -4 19 -9z m-2 -38 c-7 -2 -19 -2 -25 0 -7 3 -2 5
12 5 14 0 19 -2 13 -5z"/>
<path d="M6540 6218 l0 -48 40 0 41 0 -3 -67 c-2 -42 -8 -68 -16 -71 -7 -2
-10 2 -6 11 3 8 1 18 -5 22 -6 3 -11 1 -11 -4 0 -6 -7 -11 -15 -11 -8 0 -15 7
-15 15 0 8 5 15 10 15 6 0 10 9 10 19 0 14 5 18 20 14 28 -7 25 11 -5 31 -30
20 -39 20 -31 1 4 -12 -3 -15 -32 -14 -20 0 -31 3 -24 6 6 2 12 9 12 14 0 14
-27 11 -44 -6 -8 -8 -19 -15 -25 -15 -6 0 -11 -5 -11 -11 0 -6 9 -9 19 -6 15
4 20 -2 24 -27 4 -29 -2 -40 -28 -49 -5 -3 -7 -7 -4 -11 12 -13 61 14 67 37 6
22 6 22 12 -3 4 -19 13 -26 35 -28 17 -2 37 -10 45 -17 30 -27 38 -3 41 125
l2 124 -51 1 -52 0 0 -47z m78 17 c-10 -11 -48 -14 -53 -4 -4 5 8 9 26 9 18 0
30 -2 27 -5z m2 -37 c0 -4 -15 -8 -32 -7 -26 0 -29 2 -13 8 25 10 45 10 45 -1z
m-74 -97 c-5 -8 -56 -3 -56 5 0 2 14 4 31 4 16 0 28 -4 25 -9z"/>
<path d="M6820 6260 c0 -5 -18 -10 -40 -10 -22 0 -40 -5 -40 -10 0 -6 16 -10
37 -8 34 3 37 1 40 -26 2 -28 1 -28 -38 -23 -29 4 -39 2 -39 -9 0 -11 9 -13
40 -8 27 4 40 3 40 -5 0 -6 -18 -11 -45 -11 -60 0 -58 -18 3 -23 42 -3 40 -4
-16 -5 -39 -1 -61 -6 -57 -12 3 -5 15 -10 26 -10 16 0 19 -7 19 -47 l0 -48 85
0 85 0 1 40 c1 22 1 43 0 48 0 4 8 7 19 7 24 0 25 4 5 34 -14 21 -21 23 -62
18 -33 -3 -44 -2 -39 7 4 6 25 11 47 11 28 0 39 4 39 15 0 9 7 18 15 21 23 9
18 26 -6 19 -16 -5 -20 -3 -17 12 3 15 -3 17 -36 15 -26 -3 -36 0 -32 7 4 7
-1 11 -13 11 -12 0 -21 -4 -21 -10z m66 -30 c27 0 14 -15 -16 -17 -21 -2 -30
2 -30 13 0 11 6 14 16 10 9 -3 22 -6 30 -6z m14 -40 c0 -5 -11 -10 -25 -10
-14 0 -25 5 -25 10 0 6 11 10 25 10 14 0 25 -4 25 -10z m13 -67 c-13 -2 -35
-2 -50 0 -16 2 -5 4 22 4 28 0 40 -2 28 -4z m-46 -30 c-20 -2 -52 -2 -70 0
-17 2 0 4 38 4 39 0 53 -2 32 -4z m28 -23 c4 -6 -18 -10 -59 -10 -37 0 -66 4
-66 10 0 6 26 10 59 10 33 0 63 -4 66 -10z m-28 -37 c-20 -2 -52 -2 -70 0 -17
2 0 4 38 4 39 0 53 -2 32 -4z"/>
<path d="M7080 6260 c0 -5 -11 -10 -24 -10 -45 0 -43 -76 3 -83 l26 -4 -27 -2
c-24 -1 -28 -5 -28 -31 0 -24 4 -30 23 -31 15 -1 10 -4 -13 -9 -32 -7 -33 -8
-13 -15 13 -4 20 -11 18 -16 -3 -4 2 -12 12 -18 16 -8 14 -10 -10 -16 -15 -4
-27 -11 -27 -16 0 -10 43 -2 69 11 8 4 27 0 42 -9 27 -15 29 -15 56 11 l28 26
18 -23 c11 -15 23 -22 33 -18 13 5 11 10 -10 32 -25 26 -25 27 -10 79 9 28 20
52 25 52 5 0 9 6 9 14 0 17 -27 29 -35 16 -4 -6 -15 -10 -26 -10 -16 0 -18 3
-9 19 13 25 13 61 0 61 -6 0 -12 -6 -14 -12 -2 -7 -9 -32 -15 -55 -7 -24 -18
-43 -25 -43 -9 0 -12 7 -9 20 3 11 9 20 14 20 5 0 9 5 9 11 0 16 -26 39 -44
39 -9 0 -16 5 -16 10 0 6 -7 10 -15 10 -8 0 -15 -4 -15 -10z m50 -40 c0 -5 -4
-10 -10 -10 -5 0 -10 5 -10 10 0 6 5 10 10 10 6 0 10 -4 10 -10z m-50 -30 c0
-5 -4 -10 -10 -10 -5 0 -10 5 -10 10 0 6 5 10 10 10 6 0 10 -4 10 -10z m47
-26 c-3 -3 -12 -4 -19 -1 -8 3 -5 6 6 6 11 1 17 -2 13 -5z m102 -16 c0 -13 -4
-32 -9 -43 -7 -18 -9 -16 -15 13 -4 17 -12 32 -17 32 -5 0 -6 5 -3 10 3 6 15
10 26 10 13 0 19 -7 18 -22z m-149 -18 c0 -5 -7 -10 -16 -10 -8 0 -12 5 -9 10
3 6 10 10 16 10 5 0 9 -4 9 -10z m50 0 c0 -5 -7 -10 -15 -10 -8 0 -15 5 -15
10 0 6 7 10 15 10 8 0 15 -4 15 -10z m46 -89 c-23 -22 -26 -23 -41 -8 -19 20
-12 37 16 37 12 0 19 5 16 13 -2 6 -10 11 -17 9 -11 -3 -11 0 0 12 7 9 9 16 4
16 -5 0 -2 5 6 10 12 7 18 1 28 -27 12 -35 11 -39 -12 -62z m-76 19 c0 -5 -4
-10 -9 -10 -6 0 -13 5 -16 10 -3 6 1 10 9 10 9 0 16 -4 16 -10z"/>
<path d="M8320 6251 c0 -10 -13 -45 -30 -77 -29 -58 -32 -87 -4 -50 13 18 14
12 14 -58 0 -49 4 -75 10 -71 6 3 10 25 10 48 1 33 6 46 25 60 l25 18 0 -51
c0 -32 4 -49 10 -45 6 3 10 31 10 61 0 45 3 54 18 54 14 0 17 -9 16 -62 -1
-35 2 -70 7 -78 10 -17 10 -17 12 70 2 59 4 65 25 68 20 3 22 -1 22 -37 0 -30
-4 -41 -15 -41 -20 0 -19 -16 1 -24 28 -11 31 -7 33 43 0 28 2 55 3 62 2 8 -9
13 -27 13 -23 1 -30 6 -30 20 0 15 8 21 35 24 40 4 44 7 35 21 -4 8 -12 8 -25
1 -10 -5 -33 -10 -51 -10 -28 0 -31 3 -27 25 6 30 -9 45 -18 18 -3 -10 -10
-27 -14 -38 -5 -11 -11 -29 -15 -41 -3 -11 -17 -32 -32 -45 l-26 -24 6 58 c3
32 11 65 17 72 12 15 6 35 -11 35 -5 0 -9 -8 -9 -19z m105 -68 c-2 -10 -4 -21
-4 -25 -1 -9 -31 -11 -31 -3 0 10 25 45 32 45 3 0 5 -8 3 -17z"/>
<path d="M250 6239 c-16 -28 -5 -36 20 -14 16 14 22 15 35 5 26 -21 17 -53
-30 -107 -25 -28 -45 -54 -45 -57 0 -3 27 -6 60 -6 49 0 61 3 70 20 10 19 8
19 -37 13 l-48 -6 33 37 c47 53 56 83 37 112 -21 32 -79 34 -95 3z"/>
<path d="M7377 6253 c-11 -10 -8 -253 2 -253 6 0 13 5 16 10 9 14 119 12 133
-2 9 -9 12 13 14 100 1 62 2 119 2 127 2 34 -19 17 -22 -17 l-3 -38 -65 0 -64
0 6 28 c4 15 11 30 16 33 5 3 2 9 -7 13 -20 7 -20 7 -28 -1z m143 -119 c0 -23
-3 -24 -63 -24 -59 0 -63 1 -65 24 -2 29 10 33 79 28 44 -4 49 -6 49 -28z m0
-74 l0 -30 -65 0 c-61 0 -65 1 -65 23 0 34 7 37 72 37 58 0 58 0 58 -30z"/>
<path d="M7680 6235 c0 -16 -6 -25 -15 -25 -12 0 -15 -17 -15 -97 0 -75 3 -94
12 -85 15 15 54 16 63 2 12 -20 21 0 24 51 2 45 21 93 42 109 4 3 24 5 46 5
36 0 38 -1 36 -30 -3 -35 -10 -117 -12 -127 0 -5 -14 -8 -31 -8 -32 0 -40 -14
-14 -24 50 -19 58 -8 69 104 3 36 8 75 11 87 4 21 2 21 -52 16 l-55 -6 7 27
c11 47 -14 28 -29 -21 -9 -30 -15 -39 -16 -25 -1 12 -7 22 -14 22 -21 0 -27
-11 -15 -30 15 -24 3 -50 -24 -51 -21 -1 -21 -2 -3 -6 30 -7 38 -19 30 -42 -4
-14 -15 -21 -31 -21 -22 0 -24 4 -24 52 0 50 26 128 42 128 4 0 8 5 8 10 0 6
-9 10 -20 10 -15 0 -20 -7 -20 -25z"/>
<path d="M8095 6250 c-3 -5 -2 -10 3 -10 11 0 61 -77 54 -84 -3 -3 -38 -6 -79
-6 l-74 0 17 33 c9 17 23 40 32 50 14 15 14 17 -1 17 -9 0 -26 -18 -37 -40
-12 -23 -30 -50 -41 -61 -11 -11 -18 -23 -15 -27 4 -3 11 -1 16 4 15 15 70 5
70 -13 0 -24 -31 -70 -57 -84 -26 -14 -30 -29 -9 -29 22 0 73 56 86 95 11 32
15 35 50 35 36 0 38 -2 35 -27 -2 -16 -5 -30 -6 -33 -1 -3 -3 -12 -3 -20 -1
-10 -12 -15 -34 -15 -39 0 -42 -12 -5 -26 37 -14 53 5 60 75 5 49 9 57 24 53
10 -3 23 1 30 9 9 11 8 14 -3 14 -19 0 -78 62 -78 83 0 18 -25 23 -35 7z"/>
<path d="M9128 6238 c-3 -21 -8 -23 -61 -22 -75 0 -70 -20 7 -24 l57 -3 -3
-82 c-3 -79 -4 -82 -25 -79 -31 4 -29 -10 3 -25 36 -17 44 -9 44 43 l0 46 42
-37 c42 -35 68 -41 76 -17 2 7 -5 12 -15 12 -10 0 -34 13 -53 29 l-34 28 42
22 c24 12 40 26 37 31 -10 16 -31 12 -50 -10 -27 -29 -45 -25 -45 10 0 32 2
33 78 30 38 -1 43 1 40 17 -2 11 -11 17 -21 15 -10 -2 -26 7 -37 20 -10 13
-22 20 -26 15 -4 -4 -2 -13 4 -19 19 -19 14 -28 -10 -24 -17 2 -22 10 -21 25
4 29 -25 28 -29 -1z"/>
<path d="M9468 6248 c7 -7 12 -18 12 -25 0 -22 -89 -14 -101 9 -12 23 -31 24
-27 1 2 -11 -6 -19 -22 -23 -35 -8 -9 -22 38 -20 20 1 52 2 70 1 l33 -1 -21
-30 c-12 -16 -29 -29 -38 -28 -49 4 -93 -3 -86 -13 4 -7 25 -9 55 -7 30 3 50
1 52 -6 3 -8 9 -7 18 2 7 6 25 12 39 12 26 0 56 33 45 50 -9 15 -25 12 -25 -4
0 -17 -26 -39 -41 -34 -23 8 34 58 69 60 20 1 32 8 32 16 0 10 -7 12 -22 9
-15 -4 -28 1 -44 18 -13 14 -29 25 -36 25 -9 0 -9 -3 0 -12z"/>
<path d="M9780 6246 c0 -9 4 -16 9 -16 5 0 13 -10 17 -22 3 -12 14 -29 22 -38
14 -14 12 -15 -21 -18 -20 -2 -55 -2 -78 0 l-41 3 26 38 c30 43 32 57 11 57
-8 0 -15 -4 -15 -9 0 -5 -16 -32 -35 -61 -19 -29 -35 -53 -35 -54 0 0 20 0 45
2 38 3 45 1 45 -14 0 -24 -27 -65 -60 -93 -19 -15 -21 -20 -9 -21 28 0 67 39
85 85 14 39 21 45 45 45 27 0 29 -3 29 -39 0 -56 -7 -69 -36 -63 -36 7 -29
-15 7 -23 37 -8 49 4 49 55 1 63 10 82 36 76 17 -5 24 -2 24 9 0 8 -7 15 -15
15 -19 0 -58 44 -65 73 -7 26 -40 36 -40 13z"/>
<path d="M10000 6243 c0 -10 -11 -42 -25 -71 -29 -63 -30 -66 -10 -58 12 4 15
-6 15 -60 0 -48 3 -65 13 -62 6 3 13 25 15 49 2 31 9 48 22 57 19 11 20 9 20
-33 0 -25 5 -45 10 -45 6 0 10 25 10 55 0 48 2 55 20 55 18 0 20 -7 20 -70 0
-40 4 -70 10 -70 6 0 10 11 10 25 0 23 2 25 21 14 29 -15 36 -4 41 64 l5 57
-33 0 c-27 0 -31 3 -27 19 4 14 15 21 42 23 53 4 34 23 -21 21 -45 -2 -48 0
-48 23 0 41 -17 27 -35 -28 -9 -29 -27 -66 -41 -83 l-24 -30 0 47 c0 44 2 47
28 50 15 2 25 7 22 13 -3 5 -13 8 -22 7 -19 -3 -24 13 -8 23 13 8 3 25 -16 25
-8 0 -14 -8 -14 -17z m110 -73 c0 -11 -7 -20 -15 -20 -17 0 -18 2 -9 24 9 23
24 20 24 -4z m60 -80 c0 -33 -3 -40 -20 -40 -17 0 -20 7 -20 40 0 33 3 40 20
40 17 0 20 -7 20 -40z"/>
<path d="M10310 6245 c0 -8 -9 -24 -20 -35 -17 -17 -20 -33 -20 -104 0 -47 5
-88 10 -91 6 -3 10 -1 10 4 0 6 14 11 30 11 17 0 30 -5 30 -11 0 -5 5 -7 10
-4 6 3 10 33 10 66 0 33 4 59 10 59 6 0 16 11 22 25 9 21 18 25 56 25 41 0 44
-1 37 -22 -4 -13 -9 -46 -10 -75 -4 -65 -11 -76 -41 -69 -32 8 -31 -7 2 -24
24 -13 27 -12 44 10 12 16 17 35 14 53 -2 15 0 27 5 27 5 0 11 27 13 60 l3 60
-47 0 c-45 0 -48 2 -48 25 0 16 -6 25 -15 25 -8 0 -15 -8 -15 -19 0 -10 -5
-33 -12 -52 -12 -33 -12 -33 -18 -9 -5 19 -12 24 -28 22 -22 -3 -30 12 -12 23
15 10 12 35 -5 35 -8 0 -15 -7 -15 -15z m40 -90 c0 -20 -5 -25 -25 -25 -20 0
-25 5 -25 25 0 20 5 25 25 25 20 0 25 -5 25 -25z m0 -75 c0 -25 -4 -30 -25
-30 -21 0 -25 5 -25 30 0 25 4 30 25 30 21 0 25 -5 25 -30z"/>
<path d="M11045 6247 c-15 -12 -16 -15 -3 -20 14 -5 52 -67 46 -72 -11 -8
-116 -13 -127 -6 -12 8 -10 16 13 45 27 36 27 56 1 56 -7 0 -16 -12 -20 -27
-3 -16 -20 -45 -36 -65 l-30 -38 46 7 c44 6 45 5 45 -21 0 -17 -14 -40 -41
-67 -22 -22 -38 -43 -35 -47 13 -13 62 36 86 86 24 49 27 52 63 52 30 0 37 -4
37 -19 0 -11 -4 -22 -9 -25 -4 -3 -7 -17 -6 -31 3 -22 0 -25 -31 -25 -43 0
-44 -16 -2 -25 40 -9 54 7 63 80 6 52 8 55 31 49 34 -9 29 7 -9 31 -18 11 -37
34 -42 52 -14 42 -18 45 -40 30z"/>
<path d="M11260 6243 c0 -10 -14 -42 -30 -72 -29 -53 -32 -85 -4 -47 13 18 14
12 14 -57 0 -45 4 -77 10 -77 8 0 17 144 11 188 -2 10 2 11 17 3 21 -11 32
-50 32 -116 0 -38 -2 -43 -20 -38 -11 3 -20 0 -20 -6 0 -16 37 -22 119 -19 48
2 76 7 79 16 2 8 -9 12 -36 12 -43 0 -44 3 -24 53 7 16 12 36 12 46 0 10 10
31 22 46 l21 27 -39 -6 c-37 -6 -40 -4 -62 29 -12 20 -27 33 -32 30 -6 -4 -4
-15 5 -28 22 -32 19 -39 -17 -35 -30 3 -33 6 -30 36 1 23 -2 32 -13 32 -8 0
-15 -8 -15 -17z m144 -78 c-1 -6 -7 -36 -14 -68 -21 -93 -60 -104 -60 -17 0
27 -4 60 -10 74 -9 25 -9 25 38 23 26 -2 47 -7 46 -12z"/>
<path d="M11584 6249 c-3 -6 -15 -8 -26 -6 -13 4 -22 -1 -28 -18 -13 -35 -2
-63 29 -68 l26 -4 -27 -2 c-24 -1 -28 -5 -28 -32 0 -27 3 -30 23 -24 15 5 19
4 12 -3 -5 -6 -21 -12 -35 -15 -25 -4 -25 -4 -3 -12 13 -4 20 -11 17 -16 -3
-5 2 -12 12 -16 13 -5 11 -8 -12 -19 -27 -12 -27 -12 -6 -13 13 -1 32 4 43 10
16 8 26 7 44 -5 32 -21 38 -20 74 9 30 26 30 26 41 5 6 -11 17 -20 25 -20 20
0 19 10 -6 36 -17 18 -19 26 -10 42 6 12 11 32 11 46 0 13 7 31 15 39 19 19
-2 41 -25 27 -8 -6 -18 -10 -22 -10 -12 0 -9 38 2 45 8 5 7 11 -1 21 -10 12
-16 6 -33 -38 -20 -51 -22 -53 -61 -54 -24 -1 -29 0 -12 3 15 2 27 10 27 17 0
8 10 17 23 21 17 6 19 8 6 12 -10 2 -19 13 -22 23 -3 13 -11 17 -26 13 -12 -3
-21 -1 -21 6 0 14 -17 14 -26 0z m-7 -65 c-3 -3 -12 -4 -19 -1 -8 3 -5 6 6 6
11 1 17 -2 13 -5z m177 -22 c2 -4 -2 -23 -11 -42 l-14 -35 -15 34 c-8 18 -14
37 -14 42 0 11 47 12 54 1z m-174 -42 c0 -5 -4 -10 -9 -10 -6 0 -13 5 -16 10
-3 6 1 10 9 10 9 0 16 -4 16 -10z m50 0 c0 -5 -7 -10 -15 -10 -8 0 -15 5 -15
10 0 6 7 10 15 10 8 0 15 -4 15 -10z m61 -11 c26 -26 21 -57 -13 -82 -25 -19
-28 -19 -44 -3 -19 20 -10 33 26 38 34 4 31 21 -5 29 -16 4 -22 7 -11 8 12 1
16 6 12 16 -8 22 11 18 35 -6z m-91 -54 c0 -9 -6 -12 -15 -9 -8 4 -12 10 -9
15 8 14 24 10 24 -6z"/>
<path d="M11828 6138 c0 -65 -1 -123 -2 -130 -1 -6 5 -13 12 -15 9 -4 12 16
12 77 l0 82 40 -4 c35 -3 40 -1 40 18 0 12 3 35 6 52 l6 30 -56 4 -56 3 -2
-117z m80 62 c-1 -26 -5 -30 -30 -30 -15 0 -28 4 -28 10 0 5 6 7 14 4 8 -3 17
-1 20 4 3 5 -3 12 -14 15 -30 8 -24 27 9 27 26 0 30 -3 29 -30z"/>
<path d="M12023 6253 l-43 -4 0 -54 0 -53 41 5 40 6 -3 -64 c-3 -54 -6 -64
-20 -63 -23 2 -23 -8 1 -23 15 -9 22 -9 30 0 12 15 17 251 5 252 -5 1 -28 0
-51 -2z m27 -38 c-7 -8 -21 -15 -31 -15 -11 0 -19 7 -19 15 0 10 10 15 31 15
27 0 30 -2 19 -15z m0 -35 c0 -5 -11 -10 -25 -10 -14 0 -25 5 -25 10 0 6 11
10 25 10 14 0 25 -4 25 -10z"/>
<path d="M12354 6245 c-18 -13 -17 -14 19 -15 38 0 50 13 21 24 -20 8 -17 8
-40 -9z"/>
<path d="M3880 6240 c0 -5 10 -10 23 -10 18 0 19 2 7 10 -19 13 -30 13 -30 0z"/>
<path d="M7430 6239 c0 -5 18 -9 40 -9 22 0 40 4 40 9 0 4 -18 8 -40 8 -22 0
-40 -4 -40 -8z"/>
<path d="M10590 6135 l0 -110 120 -3 120 -2 0 100 c0 55 1 103 3 108 1 4 -25
8 -58 9 -33 2 -88 4 -122 6 l-63 3 0 -111z m70 46 c0 -20 -9 -51 -20 -69 -23
-37 -24 -42 -10 -42 18 0 44 53 50 99 3 32 10 47 22 49 14 3 18 -7 20 -65 l3
-68 43 -3 c34 -3 42 -7 42 -23 0 -18 -8 -19 -100 -19 l-100 0 0 88 c0 87 0 88
25 88 22 0 25 -4 25 -35z m145 -21 c0 -50 -2 -55 -24 -58 -30 -5 -41 12 -41
64 0 48 6 56 40 52 23 -3 25 -7 25 -58z"/>
<path d="M12147 6243 c-12 -11 -8 -91 5 -99 6 -4 14 -2 16 4 2 7 8 12 12 12 9
0 4 -109 -5 -118 -3 -3 -5 16 -5 41 0 26 -4 47 -10 47 -5 0 -10 -22 -10 -49 0
-30 -5 -51 -12 -54 -9 -3 -10 -8 -3 -15 7 -8 26 -5 63 7 63 22 75 31 39 31
-22 0 -27 5 -27 25 0 18 5 25 19 25 11 0 23 5 26 10 3 6 -3 10 -14 10 -28 0
-35 17 -11 30 20 11 25 36 14 78 -5 18 -13 22 -48 22 -24 0 -46 -3 -49 -7z
m77 -21 c10 -17 -7 -52 -25 -52 -22 0 -34 22 -25 45 6 16 41 21 50 7z"/>
<path d="M12268 6140 c3 -76 1 -110 -7 -110 -6 0 -11 -4 -11 -10 0 -6 33 -10
80 -10 44 0 80 4 80 9 0 16 -20 23 -34 12 -7 -6 -28 -9 -47 -7 -28 3 -35 8
-37 30 -3 25 -2 26 47 26 l51 0 0 34 c0 19 3 42 7 52 5 14 2 16 -22 10 -43
-11 -85 2 -85 26 0 11 8 22 20 25 31 8 23 23 -13 23 l-32 0 3 -110z m100 -12
c3 -27 1 -28 -37 -28 -39 0 -41 1 -41 31 0 29 2 30 38 27 32 -3 37 -7 40 -30z"/>
<path d="M6707 6224 c-14 -14 6 -24 49 -24 30 0 43 4 38 11 -3 6 -17 8 -29 5
-13 -3 -27 -2 -30 4 -7 11 -19 13 -28 4z"/>
<path d="M3463 6189 c-7 -7 -49 -10 -117 -7 -68 2 -105 -1 -103 -7 2 -5 28
-10 58 -11 l54 -1 3 -77 c2 -55 6 -76 15 -73 7 2 13 30 15 75 l3 72 54 0 c48
0 55 2 55 20 0 22 -19 27 -37 9z"/>
<path d="M9050 6175 c0 -14 31 -65 40 -65 20 0 9 38 -15 54 -14 9 -25 14 -25
11z"/>
<path d="M9357 6173 c-51 -6 -37 -23 19 -23 31 0 44 4 42 12 -5 14 -12 16 -61
11z"/>
<path d="M1832 6163 c24 -49 32 -63 40 -63 15 0 8 37 -10 53 -19 17 -36 23
-30 10z"/>
<path d="M4928 6153 c-155 -5 -137 -23 22 -23 109 0 130 2 130 15 0 10 -8 14
-22 13 -13 -1 -71 -4 -130 -5z"/>
<path d="M6227 6154 c-7 -7 33 -64 45 -64 4 0 8 6 8 13 0 17 -44 59 -53 51z"/>
<path d="M8681 6146 c-15 -18 -8 -44 14 -52 21 -9 47 15 43 40 -4 26 -40 33
-57 12z m37 -18 c-6 -18 -28 -21 -28 -4 0 9 7 16 16 16 9 0 14 -5 12 -12z"/>
<path d="M12565 6150 c3 -5 12 -10 20 -10 8 0 17 5 20 10 4 6 -5 10 -20 10
-15 0 -24 -4 -20 -10z"/>
<path d="M7793 6132 c10 -10 17 -24 17 -30 0 -7 7 -12 15 -12 21 0 19 16 -7
40 -27 25 -47 27 -25 2z"/>
<path d="M10410 6146 c0 -13 34 -66 42 -66 16 0 7 27 -17 50 -14 13 -25 20
-25 16z"/>
<path d="M3272 6094 c-43 -60 -14 -57 36 4 29 35 31 42 16 41 -11 0 -34 -21
-52 -45z"/>
<path d="M3420 6135 c0 -13 64 -93 72 -89 14 9 9 22 -23 59 -27 31 -49 44 -49
30z"/>
<path d="M4234 6121 c-12 -13 13 -19 59 -15 29 2 45 1 37 -2 -8 -4 -19 -13
-23 -21 -6 -10 -24 -14 -55 -13 -71 3 -75 -3 -7 -9 35 -4 58 -10 55 -16 -2 -5
-10 -9 -17 -7 -20 5 -15 -12 8 -27 18 -11 23 -11 30 1 5 7 9 21 9 31 0 14 10
17 60 17 33 0 60 4 60 9 0 14 -26 21 -37 10 -6 -6 -28 -9 -49 -7 l-39 3 38 17
c20 9 37 21 37 25 0 9 -157 12 -166 4z"/>
<path d="M9520 6096 c-23 -38 -84 -81 -100 -71 -16 10 -12 21 15 33 14 6 25
17 25 23 0 7 -9 6 -24 -4 -22 -15 -23 -14 -22 1 1 13 -7 16 -39 15 -22 -1 -43
-2 -46 -2 -4 -1 -6 -20 -5 -44 l1 -42 60 0 c33 0 67 4 75 9 8 5 25 16 37 24
20 12 23 11 38 -17 16 -32 35 -41 35 -18 0 7 -9 23 -21 36 -19 20 -20 24 -5
46 9 13 16 29 16 35 0 21 -19 9 -40 -24z m-130 -46 c0 -13 -7 -20 -20 -20 -13
0 -20 7 -20 20 0 13 7 20 20 20 13 0 20 -7 20 -20z"/>
<path d="M11892 6079 l3 -51 58 -1 57 -2 0 30 c0 16 3 40 6 53 6 21 4 22 -60
22 l-67 0 3 -51z m98 21 c0 -5 -15 -10 -34 -10 -19 0 -38 5 -41 10 -4 6 10 10
34 10 23 0 41 -4 41 -10z m0 -40 c0 -5 -16 -10 -35 -10 -19 0 -35 5 -35 10 0
6 16 10 35 10 19 0 35 -4 35 -10z"/>
<path d="M12560 6110 c0 -5 11 -10 25 -10 14 0 25 5 25 10 0 6 -11 10 -25 10
-14 0 -25 -4 -25 -10z"/>
<path d="M9085 6094 c-11 -9 -32 -20 -47 -26 -16 -5 -28 -14 -28 -19 0 -15 28
-22 42 -10 7 6 25 20 41 32 26 19 36 39 20 39 -5 0 -17 -8 -28 -16z"/>
<path d="M2374 6085 c7 -18 -5 -20 -22 -3 -9 9 -12 8 -12 -4 0 -8 7 -21 15
-28 10 -9 15 -9 15 -1 0 6 7 11 15 11 17 0 18 2 9 24 -3 9 -11 16 -16 16 -6 0
-8 -7 -4 -15z"/>
<path d="M530 6076 c0 -8 4 -17 9 -20 11 -7 33 18 24 27 -12 12 -33 7 -33 -7z"/>
<path d="M3915 6055 c-23 -20 -34 -35 -25 -35 22 0 92 49 85 61 -9 14 -17 11
-60 -26z"/>
<path d="M4045 6080 c-3 -5 7 -16 22 -22 15 -7 34 -18 41 -25 17 -17 22 -16
22 2 0 18 -76 59 -85 45z"/>
<path d="M2300 6076 c0 -3 5 -17 10 -32 8 -19 14 -24 21 -17 8 8 7 17 0 32
-10 18 -31 30 -31 17z"/>
<path d="M2960 6051 c0 -22 16 -36 24 -22 8 12 -3 41 -15 41 -5 0 -9 -9 -9
-19z"/>
<path d="M5353 6039 c-6 -6 -55 -9 -117 -7 -78 2 -106 0 -106 -9 0 -16 252
-12 257 4 5 15 -22 24 -34 12z"/>
<path d="M3140 5400 c0 -5 5 -10 10 -10 6 0 10 5 10 10 0 6 -4 10 -10 10 -5 0
-10 -4 -10 -10z"/>
<path d="M3562 5399 c3 -8 8 -13 11 -11 9 3 7 11 -5 18 -6 4 -8 0 -6 -7z"/>
<path d="M3980 5395 c0 -8 5 -15 10 -15 6 0 10 7 10 15 0 8 -4 15 -10 15 -5 0
-10 -7 -10 -15z"/>
<path d="M4400 5396 c0 -9 5 -16 10 -16 6 0 10 4 10 9 0 6 -4 13 -10 16 -5 3
-10 -1 -10 -9z"/>
<path d="M4810 5395 c0 -8 5 -15 10 -15 6 0 10 7 10 15 0 8 -4 15 -10 15 -5 0
-10 -7 -10 -15z"/>
<path d="M5220 5390 c0 -5 5 -10 10 -10 6 0 10 5 10 10 0 6 -4 10 -10 10 -5 0
-10 -4 -10 -10z"/>
<path d="M5640 5390 c0 -5 5 -10 10 -10 6 0 10 5 10 10 0 6 -4 10 -10 10 -5 0
-10 -4 -10 -10z"/>
<path d="M6050 5390 c0 -5 5 -10 10 -10 6 0 10 5 10 10 0 6 -4 10 -10 10 -5 0
-10 -4 -10 -10z"/>
<path d="M6470 5390 c0 -5 5 -10 11 -10 5 0 7 5 4 10 -3 6 -8 10 -11 10 -2 0
-4 -4 -4 -10z"/>
<path d="M6880 5390 c0 -5 5 -10 10 -10 6 0 10 5 10 10 0 6 -4 10 -10 10 -5 0
-10 -4 -10 -10z"/>
<path d="M7296 5391 c-4 -7 -5 -15 -2 -18 9 -9 19 4 14 18 -4 11 -6 11 -12 0z"/>
<path d="M7702 5389 c3 -8 8 -13 11 -11 9 3 7 11 -5 18 -6 4 -8 0 -6 -7z"/>
<path d="M8120 5380 c0 -5 5 -10 10 -10 6 0 10 5 10 10 0 6 -4 10 -10 10 -5 0
-10 -4 -10 -10z"/>
<path d="M3145 5361 c-3 -5 -1 -12 5 -16 5 -3 10 1 10 9 0 18 -6 21 -15 7z"/>
<path d="M3560 5355 c0 -9 5 -15 10 -13 12 4 11 16 -1 24 -5 3 -9 -2 -9 -11z"/>
<path d="M3986 5361 c-4 -7 -5 -15 -2 -18 9 -9 19 4 14 18 -4 11 -6 11 -12 0z"/>
<path d="M4400 5356 c0 -9 5 -16 10 -16 6 0 10 4 10 9 0 6 -4 13 -10 16 -5 3
-10 -1 -10 -9z"/>
<path d="M4810 5355 c0 -8 5 -15 10 -15 6 0 10 7 10 15 0 8 -4 15 -10 15 -5 0
-10 -7 -10 -15z"/>
<path d="M5630 5350 c0 -5 7 -10 16 -10 8 0 12 5 9 10 -3 6 -10 10 -16 10 -5
0 -9 -4 -9 -10z"/>
<path d="M6470 5350 c0 -5 5 -10 10 -10 6 0 10 5 10 10 0 6 -4 10 -10 10 -5 0
-10 -4 -10 -10z"/>
<path d="M7290 5340 c0 -5 5 -10 10 -10 6 0 10 5 10 10 0 6 -4 10 -10 10 -5 0
-10 -4 -10 -10z"/>
<path d="M7700 5334 c0 -8 5 -12 10 -9 6 3 10 10 10 16 0 5 -4 9 -10 9 -5 0
-10 -7 -10 -16z"/>
<path d="M8120 5340 c0 -5 5 -10 10 -10 6 0 10 5 10 10 0 6 -4 10 -10 10 -5 0
-10 -4 -10 -10z"/>
<path d="M3145 5310 c3 -5 8 -10 11 -10 2 0 4 5 4 10 0 6 -5 10 -11 10 -5 0
-7 -4 -4 -10z"/>
<path d="M3560 5304 c0 -8 5 -12 10 -9 6 3 10 10 10 16 0 5 -4 9 -10 9 -5 0
-10 -7 -10 -16z"/>
<path d="M3980 5305 c0 -8 5 -15 10 -15 6 0 10 7 10 15 0 8 -4 15 -10 15 -5 0
-10 -7 -10 -15z"/>
<path d="M4400 5304 c0 -8 5 -12 10 -9 6 3 10 10 10 16 0 5 -4 9 -10 9 -5 0
-10 -7 -10 -16z"/>
<path d="M4810 5305 c0 -8 5 -15 10 -15 6 0 10 7 10 15 0 8 -4 15 -10 15 -5 0
-10 -7 -10 -15z"/>
<path d="M5217 5314 c-8 -8 1 -24 14 -24 5 0 9 7 9 15 0 15 -12 20 -23 9z"/>
<path d="M5636 5313 c-11 -11 -6 -23 9 -23 8 0 15 4 15 9 0 13 -16 22 -24 14z"/>
<path d="M6050 5305 c0 -8 5 -15 10 -15 6 0 10 7 10 15 0 8 -4 15 -10 15 -5 0
-10 -7 -10 -15z"/>
<path d="M6470 5299 c0 -5 5 -7 10 -4 6 3 10 8 10 11 0 2 -4 4 -10 4 -5 0 -10
-5 -10 -11z"/>
<path d="M6880 5300 c0 -5 5 -10 10 -10 6 0 10 5 10 10 0 6 -4 10 -10 10 -5 0
-10 -4 -10 -10z"/>
<path d="M7290 5300 c0 -5 5 -10 10 -10 6 0 10 5 10 10 0 6 -4 10 -10 10 -5 0
-10 -4 -10 -10z"/>
<path d="M7700 5295 c0 -9 5 -15 10 -13 12 4 11 16 -1 24 -5 3 -9 -2 -9 -11z"/>
<path d="M8113 5298 c2 -7 7 -13 12 -13 5 0 10 6 13 13 2 6 -4 12 -13 12 -9 0
-15 -6 -12 -12z"/>
<path d="M3140 5270 c0 -5 5 -10 10 -10 6 0 10 5 10 10 0 6 -4 10 -10 10 -5 0
-10 -4 -10 -10z"/>
<path d="M3560 5270 c0 -5 5 -10 10 -10 6 0 10 5 10 10 0 6 -4 10 -10 10 -5 0
-10 -4 -10 -10z"/>
<path d="M3980 5265 c0 -8 5 -15 10 -15 6 0 10 7 10 15 0 8 -4 15 -10 15 -5 0
-10 -7 -10 -15z"/>
<path d="M4393 5268 c2 -7 7 -13 12 -13 5 0 10 6 13 13 2 6 -4 12 -13 12 -9 0
-15 -6 -12 -12z"/>
<path d="M4810 5265 c0 -8 5 -15 10 -15 6 0 10 7 10 15 0 8 -4 15 -10 15 -5 0
-10 -7 -10 -15z"/>
<path d="M5217 5274 c-8 -8 1 -24 14 -24 5 0 9 7 9 15 0 15 -12 20 -23 9z"/>
<path d="M5636 5273 c-11 -11 -6 -23 9 -23 8 0 15 4 15 9 0 13 -16 22 -24 14z"/>
<path d="M6050 5260 c0 -5 5 -10 10 -10 6 0 10 5 10 10 0 6 -4 10 -10 10 -5 0
-10 -4 -10 -10z"/>
<path d="M6470 5259 c0 -5 5 -7 10 -4 6 3 10 8 10 11 0 2 -4 4 -10 4 -5 0 -10
-5 -10 -11z"/>
<path d="M6870 5260 c0 -5 7 -10 15 -10 8 0 15 5 15 10 0 6 -7 10 -15 10 -8 0
-15 -4 -15 -10z"/>
<path d="M7290 5260 c0 -5 5 -10 10 -10 6 0 10 5 10 10 0 6 -4 10 -10 10 -5 0
-10 -4 -10 -10z"/>
<path d="M7700 5260 c0 -5 5 -10 10 -10 6 0 10 5 10 10 0 6 -4 10 -10 10 -5 0
-10 -4 -10 -10z"/>
<path d="M8110 5255 c0 -9 5 -15 10 -13 12 4 11 16 -1 24 -5 3 -9 -2 -9 -11z"/>
<path d="M3140 5235 c0 -8 5 -15 10 -15 6 0 10 7 10 15 0 8 -4 15 -10 15 -5 0
-10 -7 -10 -15z"/>
<path d="M3560 5225 c0 -9 5 -15 10 -13 12 4 11 16 -1 24 -5 3 -9 -2 -9 -11z"/>
<path d="M3980 5225 c0 -8 5 -15 10 -15 6 0 10 7 10 15 0 8 -4 15 -10 15 -5 0
-10 -7 -10 -15z"/>
<path d="M4395 5231 c-6 -11 9 -23 19 -14 9 9 7 23 -3 23 -6 0 -12 -4 -16 -9z"/>
<path d="M4810 5225 c0 -8 5 -15 10 -15 6 0 10 7 10 15 0 8 -4 15 -10 15 -5 0
-10 -7 -10 -15z"/>
<path d="M5216 5233 c-11 -11 -6 -23 9 -23 8 0 15 4 15 9 0 13 -16 22 -24 14z"/>
<path d="M5636 5233 c-11 -11 -6 -23 9 -23 8 0 15 4 15 9 0 13 -16 22 -24 14z"/>
<path d="M6050 5220 c0 -5 5 -10 10 -10 6 0 10 5 10 10 0 6 -4 10 -10 10 -5 0
-10 -4 -10 -10z"/>
<path d="M6470 5220 c0 -5 5 -10 10 -10 6 0 10 5 10 10 0 6 -4 10 -10 10 -5 0
-10 -4 -10 -10z"/>
<path d="M6870 5220 c0 -5 7 -10 15 -10 8 0 15 5 15 10 0 6 -7 10 -15 10 -8 0
-15 -4 -15 -10z"/>
<path d="M7290 5220 c0 -5 5 -10 10 -10 6 0 10 5 10 10 0 6 -4 10 -10 10 -5 0
-10 -4 -10 -10z"/>
<path d="M7700 5215 c0 -8 5 -15 10 -15 6 0 10 7 10 15 0 8 -4 15 -10 15 -5 0
-10 -7 -10 -15z"/>
<path d="M8110 5215 c0 -9 5 -15 10 -13 12 4 11 16 -1 24 -5 3 -9 -2 -9 -11z"/>
<path d="M3140 5196 c0 -9 5 -16 10 -16 6 0 10 4 10 9 0 6 -4 13 -10 16 -5 3
-10 -1 -10 -9z"/>
<path d="M3560 5185 c0 -8 5 -15 10 -15 6 0 10 7 10 15 0 8 -4 15 -10 15 -5 0
-10 -7 -10 -15z"/>
<path d="M3977 5194 c-8 -8 1 -24 14 -24 5 0 9 7 9 15 0 15 -12 20 -23 9z"/>
<path d="M4400 5184 c0 -8 5 -12 10 -9 6 4 8 11 5 16 -9 14 -15 11 -15 -7z"/>
<path d="M4810 5185 c0 -8 5 -15 10 -15 6 0 10 7 10 15 0 8 -4 15 -10 15 -5 0
-10 -7 -10 -15z"/>
<path d="M5216 5191 c-4 -7 -5 -15 -2 -18 9 -9 19 4 14 18 -4 11 -6 11 -12 0z"/>
<path d="M5635 5189 c-10 -15 3 -25 16 -12 7 7 7 13 1 17 -6 3 -14 1 -17 -5z"/>
<path d="M6050 5185 c0 -8 5 -15 10 -15 6 0 10 7 10 15 0 8 -4 15 -10 15 -5 0
-10 -7 -10 -15z"/>
<path d="M6470 5186 c0 -9 5 -16 10 -16 6 0 10 4 10 9 0 6 -4 13 -10 16 -5 3
-10 -1 -10 -9z"/>
<path d="M6870 5180 c0 -5 7 -10 15 -10 8 0 15 5 15 10 0 6 -7 10 -15 10 -8 0
-15 -4 -15 -10z"/>
<path d="M7290 5180 c0 -5 5 -10 11 -10 5 0 7 5 4 10 -3 6 -8 10 -11 10 -2 0
-4 -4 -4 -10z"/>
<path d="M7700 5180 c0 -5 5 -10 10 -10 6 0 10 5 10 10 0 6 -4 10 -10 10 -5 0
-10 -4 -10 -10z"/>
<path d="M8110 5175 c0 -8 5 -15 10 -15 6 0 10 7 10 15 0 8 -4 15 -10 15 -5 0
-10 -7 -10 -15z"/>
<path d="M3135 5150 c3 -5 10 -10 16 -10 5 0 9 5 9 10 0 6 -7 10 -16 10 -8 0
-12 -4 -9 -10z"/>
<path d="M3560 5145 c0 -8 5 -15 10 -15 6 0 10 7 10 15 0 8 -4 15 -10 15 -5 0
-10 -7 -10 -15z"/>
<path d="M3980 5145 c0 -8 5 -15 10 -15 6 0 10 7 10 15 0 8 -4 15 -10 15 -5 0
-10 -7 -10 -15z"/>
<path d="M4396 5151 c-4 -7 -5 -15 -2 -18 9 -9 19 4 14 18 -4 11 -6 11 -12 0z"/>
<path d="M4810 5145 c0 -8 5 -15 10 -15 6 0 10 7 10 15 0 8 -4 15 -10 15 -5 0
-10 -7 -10 -15z"/>
<path d="M5636 5151 c-4 -7 -5 -15 -2 -18 9 -9 19 4 14 18 -4 11 -6 11 -12 0z"/>
<path d="M5215 5140 c-3 -5 -2 -10 4 -10 5 0 13 5 16 10 3 6 2 10 -4 10 -5 0
-13 -4 -16 -10z"/>
<path d="M6050 5140 c0 -5 5 -10 10 -10 6 0 10 5 10 10 0 6 -4 10 -10 10 -5 0
-10 -4 -10 -10z"/>
<path d="M6470 5140 c0 -5 5 -10 10 -10 6 0 10 5 10 10 0 6 -4 10 -10 10 -5 0
-10 -4 -10 -10z"/>
<path d="M6870 5140 c0 -5 7 -10 15 -10 8 0 15 5 15 10 0 6 -7 10 -15 10 -8 0
-15 -4 -15 -10z"/>
<path d="M7290 5135 c0 -9 5 -15 10 -13 12 4 11 16 -1 24 -5 3 -9 -2 -9 -11z"/>
<path d="M7700 5135 c0 -8 5 -15 10 -15 6 0 10 7 10 15 0 8 -4 15 -10 15 -5 0
-10 -7 -10 -15z"/>
<path d="M8110 5135 c0 -8 5 -15 10 -15 6 0 10 7 10 15 0 8 -4 15 -10 15 -5 0
-10 -7 -10 -15z"/>
<path d="M3140 5116 c0 -9 5 -16 10 -16 6 0 10 4 10 9 0 6 -4 13 -10 16 -5 3
-10 -1 -10 -9z"/>
<path d="M3560 5110 c0 -5 5 -10 11 -10 5 0 7 5 4 10 -3 6 -8 10 -11 10 -2 0
-4 -4 -4 -10z"/>
<path d="M3977 5114 c-8 -8 1 -24 14 -24 5 0 9 7 9 15 0 15 -12 20 -23 9z"/>
<path d="M4396 5111 c-4 -7 -5 -15 -2 -18 9 -9 19 4 14 18 -4 11 -6 11 -12 0z"/>
<path d="M4810 5105 c0 -8 5 -15 10 -15 6 0 10 7 10 15 0 8 -4 15 -10 15 -5 0
-10 -7 -10 -15z"/>
<path d="M5215 5100 c-3 -5 -1 -10 4 -10 6 0 11 5 11 10 0 6 -2 10 -4 10 -3 0
-8 -4 -11 -10z"/>
<path d="M5630 5100 c0 -5 4 -10 9 -10 6 0 13 5 16 10 3 6 -1 10 -9 10 -9 0
-16 -4 -16 -10z"/>
<path d="M6055 5100 c-3 -5 -1 -10 4 -10 6 0 11 5 11 10 0 6 -2 10 -4 10 -3 0
-8 -4 -11 -10z"/>
<path d="M6470 5100 c0 -5 5 -10 11 -10 5 0 7 5 4 10 -3 6 -8 10 -11 10 -2 0
-4 -4 -4 -10z"/>
<path d="M6870 5100 c0 -5 7 -10 15 -10 8 0 15 5 15 10 0 6 -7 10 -15 10 -8 0
-15 -4 -15 -10z"/>
<path d="M7285 5101 c-3 -5 -1 -12 5 -16 5 -3 10 1 10 9 0 18 -6 21 -15 7z"/>
<path d="M7700 5100 c0 -5 5 -10 10 -10 6 0 10 5 10 10 0 6 -4 10 -10 10 -5 0
-10 -4 -10 -10z"/>
<path d="M8116 5101 c-4 -7 -5 -15 -2 -18 9 -9 19 4 14 18 -4 11 -6 11 -12 0z"/>
<path d="M3140 5070 c0 -5 5 -10 10 -10 6 0 10 5 10 10 0 6 -4 10 -10 10 -5 0
-10 -4 -10 -10z"/>
<path d="M3560 5064 c0 -8 5 -12 10 -9 6 4 8 11 5 16 -9 14 -15 11 -15 -7z"/>
<path d="M3986 5071 c-4 -7 -5 -15 -2 -18 9 -9 19 4 14 18 -4 11 -6 11 -12 0z"/>
<path d="M4396 5073 c-11 -11 -6 -23 9 -23 8 0 15 4 15 9 0 13 -16 22 -24 14z"/>
<path d="M4810 5066 c0 -9 5 -16 10 -16 6 0 10 4 10 9 0 6 -4 13 -10 16 -5 3
-10 -1 -10 -9z"/>
<path d="M5216 5073 c-11 -11 -6 -23 9 -23 8 0 15 4 15 9 0 13 -16 22 -24 14z"/>
<path d="M6466 5073 c-11 -11 -6 -23 9 -23 8 0 15 4 15 9 0 13 -16 22 -24 14z"/>
<path d="M5630 5060 c0 -5 5 -10 10 -10 6 0 10 5 10 10 0 6 -4 10 -10 10 -5 0
-10 -4 -10 -10z"/>
<path d="M6050 5060 c0 -5 5 -10 10 -10 6 0 10 5 10 10 0 6 -4 10 -10 10 -5 0
-10 -4 -10 -10z"/>
<path d="M6876 5061 c-3 -5 1 -11 9 -15 8 -3 15 -1 15 4 0 13 -18 22 -24 11z"/>
<path d="M7296 5061 c-4 -7 -5 -15 -2 -18 9 -9 19 4 14 18 -4 11 -6 11 -12 0z"/>
<path d="M7700 5060 c0 -5 5 -10 11 -10 5 0 7 5 4 10 -3 6 -8 10 -11 10 -2 0
-4 -4 -4 -10z"/>
<path d="M8110 5050 c0 -5 5 -10 10 -10 6 0 10 5 10 10 0 6 -4 10 -10 10 -5 0
-10 -4 -10 -10z"/>
<path d="M3137 5033 c-12 -11 -8 -23 8 -23 8 0 15 7 15 15 0 16 -12 20 -23 8z"/>
<path d="M3560 5019 c0 -5 5 -7 10 -4 6 3 10 8 10 11 0 2 -4 4 -10 4 -5 0 -10
-5 -10 -11z"/>
<path d="M3975 5020 c-3 -5 1 -10 9 -10 9 0 16 5 16 10 0 6 -4 10 -9 10 -6 0
-13 -4 -16 -10z"/>
<path d="M4390 5021 c0 -6 5 -13 10 -16 6 -3 10 1 10 9 0 9 -4 16 -10 16 -5 0
-10 -4 -10 -9z"/>
<path d="M4810 5016 c0 -9 5 -16 10 -16 6 0 10 4 10 9 0 6 -4 13 -10 16 -5 3
-10 -1 -10 -9z"/>
<path d="M5215 5021 c-6 -11 9 -23 19 -14 9 9 7 23 -3 23 -6 0 -12 -4 -16 -9z"/>
<path d="M5637 5023 c-4 -3 -7 -11 -7 -17 0 -6 5 -5 12 2 6 6 9 14 7 17 -3 3
-9 2 -12 -2z"/>
<path d="M6462 5019 c3 -8 8 -13 11 -11 9 3 7 11 -5 18 -6 4 -8 0 -6 -7z"/>
<path d="M6875 5010 c3 -5 10 -10 16 -10 5 0 9 5 9 10 0 6 -7 10 -16 10 -8 0
-12 -4 -9 -10z"/>
<path d="M7290 5009 c0 -5 5 -7 10 -4 6 3 10 8 10 11 0 2 -4 4 -10 4 -5 0 -10
-5 -10 -11z"/>
<path d="M7700 5010 c0 -5 5 -10 10 -10 6 0 10 5 10 10 0 6 -4 10 -10 10 -5 0
-10 -4 -10 -10z"/>
<path d="M8110 5011 c0 -6 5 -13 10 -16 6 -3 10 1 10 9 0 9 -4 16 -10 16 -5 0
-10 -4 -10 -9z"/>
<path d="M3137 4993 c-12 -11 -8 -23 8 -23 8 0 15 7 15 15 0 16 -12 20 -23 8z"/>
<path d="M3560 4974 c0 -8 5 -12 10 -9 6 3 10 10 10 16 0 5 -4 9 -10 9 -5 0
-10 -7 -10 -16z"/>
<path d="M3973 4978 c2 -7 7 -13 12 -13 5 0 10 6 13 13 2 6 -4 12 -13 12 -9 0
-15 -6 -12 -12z"/>
<path d="M4390 4974 c0 -8 5 -12 10 -9 6 3 10 10 10 16 0 5 -4 9 -10 9 -5 0
-10 -7 -10 -16z"/>
<path d="M4807 4984 c-8 -8 1 -24 14 -24 5 0 9 7 9 15 0 15 -12 20 -23 9z"/>
<path d="M5215 4981 c-3 -5 -1 -12 5 -16 5 -3 10 1 10 9 0 18 -6 21 -15 7z"/>
<path d="M5636 4981 c-4 -7 -5 -15 -2 -18 9 -9 19 4 14 18 -4 11 -6 11 -12 0z"/>
<path d="M6466 4983 c-11 -11 -6 -23 9 -23 8 0 15 4 15 9 0 13 -16 22 -24 14z"/>
<path d="M6870 4970 c0 -5 4 -10 9 -10 6 0 13 5 16 10 3 6 -1 10 -9 10 -9 0
-16 -4 -16 -10z"/>
<path d="M7290 4964 c0 -8 5 -12 10 -9 6 3 10 10 10 16 0 5 -4 9 -10 9 -5 0
-10 -7 -10 -16z"/>
<path d="M7700 4964 c0 -8 5 -12 10 -9 6 3 10 10 10 16 0 5 -4 9 -10 9 -5 0
-10 -7 -10 -16z"/>
<path d="M8110 4971 c0 -6 5 -13 10 -16 6 -3 10 1 10 9 0 9 -4 16 -10 16 -5 0
-10 -4 -10 -9z"/>
<path d="M3136 4953 c-11 -11 -6 -23 9 -23 8 0 15 4 15 9 0 13 -16 22 -24 14z"/>
<path d="M3560 4935 c0 -8 5 -15 10 -15 6 0 10 7 10 15 0 8 -4 15 -10 15 -5 0
-10 -7 -10 -15z"/>
<path d="M3973 4938 c2 -7 7 -13 12 -13 5 0 10 6 13 13 2 6 -4 12 -13 12 -9 0
-15 -6 -12 -12z"/>
<path d="M4390 4934 c0 -8 5 -12 10 -9 6 3 10 10 10 16 0 5 -4 9 -10 9 -5 0
-10 -7 -10 -16z"/>
<path d="M4806 4943 c-11 -11 -6 -23 9 -23 8 0 15 4 15 9 0 13 -16 22 -24 14z"/>
<path d="M5210 4935 c0 -8 5 -15 10 -15 6 0 10 7 10 15 0 8 -4 15 -10 15 -5 0
-10 -7 -10 -15z"/>
<path d="M5636 4941 c-4 -7 -5 -15 -2 -18 9 -9 19 4 14 18 -4 11 -6 11 -12 0z"/>
<path d="M6466 4943 c-11 -11 -6 -23 9 -23 8 0 15 4 15 9 0 13 -16 22 -24 14z"/>
<path d="M6879 4948 c-1 -2 -2 -18 -4 -36 -4 -44 12 -51 17 -6 2 19 0 37 -4
40 -4 3 -8 4 -9 2z"/>
<path d="M7700 4930 c0 -5 5 -10 10 -10 6 0 10 5 10 10 0 6 -4 10 -10 10 -5 0
-10 -4 -10 -10z"/>
<path d="M8110 4925 c0 -8 5 -15 10 -15 6 0 10 7 10 15 0 8 -4 15 -10 15 -5 0
-10 -7 -10 -15z"/>
<path d="M3136 4913 c-11 -11 -6 -23 9 -23 8 0 15 4 15 9 0 13 -16 22 -24 14z"/>
<path d="M3555 4900 c-3 -5 1 -10 9 -10 9 0 16 5 16 10 0 6 -4 10 -9 10 -6 0
-13 -4 -16 -10z"/>
<path d="M3973 4898 c2 -7 7 -13 12 -13 5 0 10 6 13 13 2 6 -4 12 -13 12 -9 0
-15 -6 -12 -12z"/>
<path d="M4807 4904 c-8 -8 1 -24 14 -24 5 0 9 7 9 15 0 15 -12 20 -23 9z"/>
<path d="M5210 4895 c0 -8 5 -15 10 -15 6 0 10 7 10 15 0 8 -4 15 -10 15 -5 0
-10 -7 -10 -15z"/>
<path d="M5630 4895 c0 -8 5 -15 10 -15 6 0 10 7 10 15 0 8 -4 15 -10 15 -5 0
-10 -7 -10 -15z"/>
<path d="M6046 4902 c-3 -6 -1 -14 5 -17 15 -10 25 3 12 16 -7 7 -13 7 -17 1z"/>
<path d="M6466 4903 c-11 -11 -6 -23 9 -23 8 0 15 4 15 9 0 13 -16 22 -24 14z"/>
<path d="M4390 4890 c0 -5 4 -10 9 -10 6 0 13 5 16 10 3 6 -1 10 -9 10 -9 0
-16 -4 -16 -10z"/>
<path d="M7291 4884 c0 -11 3 -14 6 -6 3 7 2 16 -1 19 -3 4 -6 -2 -5 -13z"/>
<path d="M7700 4884 c0 -8 5 -12 10 -9 6 3 10 10 10 16 0 5 -4 9 -10 9 -5 0
-10 -7 -10 -16z"/>
<path d="M8110 4885 c0 -8 5 -15 10 -15 6 0 10 7 10 15 0 8 -4 15 -10 15 -5 0
-10 -7 -10 -15z"/>
<path d="M3136 4873 c-11 -11 -6 -23 9 -23 8 0 15 4 15 9 0 13 -16 22 -24 14z"/>
<path d="M3550 4860 c0 -5 7 -10 15 -10 8 0 15 5 15 10 0 6 -7 10 -15 10 -8 0
-15 -4 -15 -10z"/>
<path d="M3973 4858 c2 -7 7 -13 12 -13 5 0 10 6 13 13 2 6 -4 12 -13 12 -9 0
-15 -6 -12 -12z"/>
<path d="M4390 4856 c0 -9 5 -16 10 -16 6 0 10 4 10 9 0 6 -4 13 -10 16 -5 3
-10 -1 -10 -9z"/>
<path d="M4802 4859 c3 -8 8 -13 11 -11 9 3 7 11 -5 18 -6 4 -8 0 -6 -7z"/>
<path d="M5210 4855 c0 -8 5 -15 10 -15 6 0 10 7 10 15 0 8 -4 15 -10 15 -5 0
-10 -7 -10 -15z"/>
<path d="M5630 4855 c0 -8 5 -15 10 -15 6 0 10 7 10 15 0 8 -4 15 -10 15 -5 0
-10 -7 -10 -15z"/>
<path d="M6466 4863 c-11 -11 -6 -23 9 -23 8 0 15 4 15 9 0 13 -16 22 -24 14z"/>
<path d="M6040 4850 c0 -5 7 -10 15 -10 8 0 15 5 15 10 0 6 -7 10 -15 10 -8 0
-15 -4 -15 -10z"/>
<path d="M6870 4850 c0 -5 5 -10 10 -10 6 0 10 5 10 10 0 6 -4 10 -10 10 -5 0
-10 -4 -10 -10z"/>
<path d="M7700 4844 c0 -8 5 -12 10 -9 6 3 10 10 10 16 0 5 -4 9 -10 9 -5 0
-10 -7 -10 -16z"/>
<path d="M8110 4845 c0 -8 5 -15 10 -15 6 0 10 7 10 15 0 8 -4 15 -10 15 -5 0
-10 -7 -10 -15z"/>
<path d="M3136 4833 c-11 -11 -6 -23 9 -23 8 0 15 4 15 9 0 13 -16 22 -24 14z"/>
<path d="M3550 4820 c0 -5 7 -10 16 -10 8 0 12 5 9 10 -3 6 -10 10 -16 10 -5
0 -9 -4 -9 -10z"/>
<path d="M3973 4818 c2 -7 7 -13 12 -13 5 0 10 6 13 13 2 6 -4 12 -13 12 -9 0
-15 -6 -12 -12z"/>
<path d="M4383 4815 c-11 -12 -21 -96 -26 -227 l-2 -68 -182 0 c-135 0 -183 3
-187 13 -5 10 -7 10 -12 0 -8 -18 -395 -18 -412 -1 -9 9 -12 -1 -11 -45 2 -58
6 -66 26 -46 8 8 53 9 150 5 179 -9 183 -9 216 -3 19 4 27 1 27 -9 0 -19 16
-18 24 1 5 13 32 15 181 14 l175 -1 1 -132 c1 -72 1 -145 1 -163 -1 -18 3 -35
8 -38 12 -8 314 -12 1066 -17 484 -2 634 0 643 9 7 8 11 66 11 166 0 125 3
157 15 167 10 8 19 9 28 3 6 -6 82 -11 168 -11 87 -1 161 -2 165 -3 5 -1 11
-1 14 0 6 2 276 3 380 2 41 -1 149 -1 240 0 91 1 174 -1 185 -5 19 -5 21 -2
21 48 0 44 -3 53 -13 44 -7 -6 -27 -8 -44 -4 -44 8 -525 7 -632 -2 -63 -5 -97
-4 -118 5 -17 7 -29 8 -29 2 0 -6 -72 -8 -187 -7 l-188 3 -5 150 c-5 143 -6
150 -25 148 -11 -1 -105 -3 -208 -3 -133 -1 -192 2 -203 10 -10 9 -14 9 -14 1
0 -8 -115 -11 -405 -11 -306 0 -405 3 -405 12 0 9 -3 9 -12 0 -14 -14 -404
-17 -410 -3 -1 5 -8 3 -15 -4z m418 -91 c9 -12 15 -12 27 -2 11 9 66 13 198
14 158 0 184 -2 189 -15 6 -14 7 -14 15 0 8 14 33 16 182 14 95 -2 177 -3 182
-4 10 -1 3 -522 -8 -539 -9 -15 -739 -16 -767 -1 -13 7 -19 6 -19 -1 0 -7 -59
-10 -182 -8 l-183 3 1 40 c0 22 1 146 2 275 l2 236 175 1 c139 1 177 -2 186
-13z m1207 -59 c1 -38 -1 -164 -5 -279 l-8 -208 -140 2 c-198 2 -190 1 -189
28 0 12 1 136 2 275 l2 254 168 -1 167 -1 3 -70z"/>
<path d="M4805 4689 c-10 -15 3 -25 16 -12 7 7 7 13 1 17 -6 3 -14 1 -17 -5z"/>
<path d="M5210 4691 c0 -6 5 -13 10 -16 6 -3 10 1 10 9 0 9 -4 16 -10 16 -5 0
-10 -4 -10 -9z"/>
<path d="M4800 4645 c0 -8 5 -15 10 -15 6 0 10 7 10 15 0 8 -4 15 -10 15 -5 0
-10 -7 -10 -15z"/>
<path d="M5210 4645 c0 -8 5 -15 10 -15 6 0 10 7 10 15 0 8 -4 15 -10 15 -5 0
-10 -7 -10 -15z"/>
<path d="M4800 4600 c0 -5 7 -10 15 -10 8 0 15 5 15 10 0 6 -7 10 -15 10 -8 0
-15 -4 -15 -10z"/>
<path d="M5210 4600 c0 -5 5 -10 10 -10 6 0 10 5 10 10 0 6 -4 10 -10 10 -5 0
-10 -4 -10 -10z"/>
<path d="M4806 4571 c-4 -7 -5 -15 -2 -18 9 -9 19 4 14 18 -4 11 -6 11 -12 0z"/>
<path d="M5210 4560 c0 -5 5 -10 10 -10 6 0 10 5 10 10 0 6 -4 10 -10 10 -5 0
-10 -4 -10 -10z"/>
<path d="M4804 4500 c1 -39 16 -39 16 0 0 17 -4 30 -9 30 -4 0 -8 -13 -7 -30z"/>
<path d="M5217 4523 c-10 -9 -9 -53 1 -53 5 0 9 14 10 30 1 32 -1 34 -11 23z"/>
<path d="M5210 4441 c0 -6 5 -13 10 -16 6 -3 10 1 10 9 0 9 -4 16 -10 16 -5 0
-10 -4 -10 -9z"/>
<path d="M4800 4430 c0 -5 5 -10 10 -10 6 0 10 5 10 10 0 6 -4 10 -10 10 -5 0
-10 -4 -10 -10z"/>
<path d="M4806 4401 c-4 -7 -5 -15 -2 -18 9 -9 19 4 14 18 -4 11 -6 11 -12 0z"/>
<path d="M5206 4402 c-3 -6 -1 -14 5 -17 15 -10 25 3 12 16 -7 7 -13 7 -17 1z"/>
<path d="M4806 4361 c-4 -7 -5 -15 -2 -18 9 -9 19 4 14 18 -4 11 -6 11 -12 0z"/>
<path d="M5206 4363 c-11 -11 -6 -23 9 -23 8 0 15 4 15 9 0 13 -16 22 -24 14z"/>
<path d="M4800 4310 c0 -5 5 -10 10 -10 6 0 10 5 10 10 0 6 -4 10 -10 10 -5 0
-10 -4 -10 -10z"/>
<path d="M5200 4310 c0 -5 7 -10 15 -10 8 0 15 5 15 10 0 6 -7 10 -15 10 -8 0
-15 -4 -15 -10z"/>
<path d="M4800 4275 c0 -8 5 -15 10 -15 6 0 10 7 10 15 0 8 -4 15 -10 15 -5 0
-10 -7 -10 -15z"/>
<path d="M5205 4270 c-3 -5 -2 -10 4 -10 5 0 13 5 16 10 3 6 2 10 -4 10 -5 0
-13 -4 -16 -10z"/>
<path d="M4800 4236 c0 -9 5 -16 10 -16 6 0 10 4 10 9 0 6 -4 13 -10 16 -5 3
-10 -1 -10 -9z"/>
<path d="M5205 4230 c-3 -5 1 -10 9 -10 9 0 16 5 16 10 0 6 -4 10 -9 10 -6 0
-13 -4 -16 -10z"/>
<path d="M6460 4810 c0 -5 7 -10 16 -10 8 0 12 5 9 10 -3 6 -10 10 -16 10 -5
0 -9 -4 -9 -10z"/>
<path d="M6870 4810 c0 -5 5 -10 10 -10 6 0 10 5 10 10 0 6 -4 10 -10 10 -5 0
-10 -4 -10 -10z"/>
<path d="M7695 4811 c-6 -11 9 -23 19 -14 9 9 7 23 -3 23 -6 0 -12 -4 -16 -9z"/>
<path d="M8116 4811 c-4 -7 -5 -15 -2 -18 9 -9 19 4 14 18 -4 11 -6 11 -12 0z"/>
<path d="M3135 4780 c-3 -5 1 -10 9 -10 9 0 16 5 16 10 0 6 -4 10 -9 10 -6 0
-13 -4 -16 -10z"/>
<path d="M3976 4781 c-4 -5 -2 -12 3 -15 5 -4 12 -2 15 3 4 5 2 12 -3 15 -5 4
-12 2 -15 -3z"/>
<path d="M3558 4773 c7 -3 16 -2 19 1 4 3 -2 6 -13 5 -11 0 -14 -3 -6 -6z"/>
<path d="M6875 4770 c-3 -5 -1 -10 4 -10 6 0 11 5 11 10 0 6 -2 10 -4 10 -3 0
-8 -4 -11 -10z"/>
<path d="M6468 4763 c7 -3 16 -2 19 1 4 3 -2 6 -13 5 -11 0 -14 -3 -6 -6z"/>
<path d="M7698 4763 c7 -3 16 -2 19 1 4 3 -2 6 -13 5 -11 0 -14 -3 -6 -6z"/>
<path d="M8110 4760 c0 -5 5 -10 10 -10 6 0 10 5 10 10 0 6 -4 10 -10 10 -5 0
-10 -4 -10 -10z"/>
<path d="M3137 4743 c-12 -11 -8 -23 8 -23 8 0 15 7 15 15 0 16 -12 20 -23 8z"/>
<path d="M3550 4730 c0 -5 4 -10 9 -10 6 0 13 5 16 10 3 6 -1 10 -9 10 -9 0
-16 -4 -16 -10z"/>
<path d="M3972 4729 c3 -8 8 -13 11 -11 9 3 7 11 -5 18 -6 4 -8 0 -6 -7z"/>
<path d="M6460 4725 c0 -9 5 -15 10 -13 12 4 11 16 -1 24 -5 3 -9 -2 -9 -11z"/>
<path d="M6870 4725 c0 -8 5 -15 10 -15 6 0 10 7 10 15 0 8 -4 15 -10 15 -5 0
-10 -7 -10 -15z"/>
<path d="M7695 4720 c3 -5 10 -10 16 -10 5 0 9 5 9 10 0 6 -7 10 -16 10 -8 0
-12 -4 -9 -10z"/>
<path d="M8110 4721 c0 -6 5 -13 10 -16 6 -3 10 1 10 9 0 9 -4 16 -10 16 -5 0
-10 -4 -10 -9z"/>
<path d="M3135 4699 c-4 -6 -5 -13 -2 -16 7 -7 27 6 27 18 0 12 -17 12 -25 -2z"/>
<path d="M3550 4690 c0 -5 7 -10 15 -10 8 0 15 5 15 10 0 6 -7 10 -15 10 -8 0
-15 -4 -15 -10z"/>
<path d="M3970 4690 c0 -5 5 -10 10 -10 6 0 10 5 10 10 0 6 -4 10 -10 10 -5 0
-10 -4 -10 -10z"/>
<path d="M6460 4680 c0 -5 4 -10 9 -10 6 0 13 5 16 10 3 6 -1 10 -9 10 -9 0
-16 -4 -16 -10z"/>
<path d="M6870 4680 c0 -5 5 -10 10 -10 6 0 10 5 10 10 0 6 -4 10 -10 10 -5 0
-10 -4 -10 -10z"/>
<path d="M8110 4675 c0 -8 5 -15 10 -15 6 0 10 7 10 15 0 8 -4 15 -10 15 -5 0
-10 -7 -10 -15z"/>
<path d="M3130 4656 c0 -17 14 -29 23 -20 8 8 -3 34 -14 34 -5 0 -9 -6 -9 -14z"/>
<path d="M3553 4648 c2 -7 7 -13 12 -13 5 0 10 6 13 13 2 6 -4 12 -13 12 -9 0
-15 -6 -12 -12z"/>
<path d="M3970 4645 c0 -9 5 -15 10 -13 12 4 11 16 -1 24 -5 3 -9 -2 -9 -11z"/>
<path d="M6465 4650 c-4 -6 -3 -16 3 -22 6 -6 12 -6 17 2 4 6 3 16 -3 22 -6 6
-12 6 -17 -2z"/>
<path d="M6870 4641 c0 -12 5 -21 10 -21 6 0 10 6 10 14 0 8 -4 18 -10 21 -5
3 -10 -3 -10 -14z"/>
<path d="M7291 4634 c0 -11 3 -14 6 -6 3 7 2 16 -1 19 -3 4 -6 -2 -5 -13z"/>
<path d="M7692 4638 c6 -18 28 -21 28 -4 0 9 -7 16 -16 16 -9 0 -14 -5 -12
-12z"/>
<path d="M8110 4635 c0 -8 5 -15 10 -15 6 0 10 7 10 15 0 8 -4 15 -10 15 -5 0
-10 -7 -10 -15z"/>
<path d="M3130 4610 c0 -5 7 -10 16 -10 8 0 12 5 9 10 -3 6 -10 10 -16 10 -5
0 -9 -4 -9 -10z"/>
<path d="M3553 4608 c2 -7 7 -13 12 -13 5 0 10 6 13 13 2 6 -4 12 -13 12 -9 0
-15 -6 -12 -12z"/>
<path d="M3970 4605 c0 -8 5 -15 10 -15 6 0 10 7 10 15 0 8 -4 15 -10 15 -5 0
-10 -7 -10 -15z"/>
<path d="M6463 4598 c2 -7 7 -13 12 -13 5 0 10 6 13 13 2 6 -4 12 -13 12 -9 0
-15 -6 -12 -12z"/>
<path d="M6870 4595 c0 -8 5 -15 10 -15 6 0 10 7 10 15 0 8 -4 15 -10 15 -5 0
-10 -7 -10 -15z"/>
<path d="M7695 4599 c-10 -15 3 -25 16 -12 7 7 7 13 1 17 -6 3 -14 1 -17 -5z"/>
<path d="M8110 4596 c0 -9 5 -16 10 -16 6 0 10 4 10 9 0 6 -4 13 -10 16 -5 3
-10 -1 -10 -9z"/>
<path d="M3130 4570 c0 -5 5 -10 10 -10 6 0 10 5 10 10 0 6 -4 10 -10 10 -5 0
-10 -4 -10 -10z"/>
<path d="M3553 4568 c2 -7 7 -13 12 -13 5 0 10 6 13 13 2 6 -4 12 -13 12 -9 0
-15 -6 -12 -12z"/>
<path d="M3970 4565 c0 -8 5 -15 10 -15 6 0 10 7 10 15 0 8 -4 15 -10 15 -5 0
-10 -7 -10 -15z"/>
<path d="M6460 4561 c0 -6 5 -13 10 -16 6 -3 10 1 10 9 0 9 -4 16 -10 16 -5 0
-10 -4 -10 -9z"/>
<path d="M6870 4555 c0 -8 5 -15 10 -15 6 0 10 7 10 15 0 8 -4 15 -10 15 -5 0
-10 -7 -10 -15z"/>
<path d="M7285 4561 c-3 -5 -1 -12 5 -16 5 -3 10 1 10 9 0 18 -6 21 -15 7z"/>
<path d="M7695 4561 c-6 -11 9 -23 19 -14 9 9 7 23 -3 23 -6 0 -12 -4 -16 -9z"/>
<path d="M8110 4555 c0 -8 5 -15 10 -15 6 0 10 7 10 15 0 8 -4 15 -10 15 -5 0
-10 -7 -10 -15z"/>
<path d="M3130 4530 c0 -5 5 -10 10 -10 6 0 10 5 10 10 0 6 -4 10 -10 10 -5 0
-10 -4 -10 -10z"/>
<path d="M7690 4515 c0 -9 5 -15 10 -13 12 4 11 16 -1 24 -5 3 -9 -2 -9 -11z"/>
<path d="M8110 4510 c0 -5 5 -10 10 -10 6 0 10 5 10 10 0 6 -4 10 -10 10 -5 0
-10 -4 -10 -10z"/>
<path d="M3130 4485 c0 -8 5 -15 10 -15 6 0 10 7 10 15 0 8 -4 15 -10 15 -5 0
-10 -7 -10 -15z"/>
<path d="M7690 4470 c0 -5 5 -10 10 -10 6 0 10 5 10 10 0 6 -4 10 -10 10 -5 0
-10 -4 -10 -10z"/>
<path d="M8105 4470 c-3 -5 1 -10 9 -10 9 0 16 5 16 10 0 6 -4 10 -9 10 -6 0
-13 -4 -16 -10z"/>
<path d="M3135 4440 c3 -5 8 -10 11 -10 2 0 4 5 4 10 0 6 -5 10 -11 10 -5 0
-7 -4 -4 -10z"/>
<path d="M7690 4425 c0 -9 5 -15 10 -13 12 4 11 16 -1 24 -5 3 -9 -2 -9 -11z"/>
<path d="M8107 4434 c-8 -8 1 -24 14 -24 5 0 9 7 9 15 0 15 -12 20 -23 9z"/>
<path d="M3130 4400 c0 -5 5 -10 10 -10 6 0 10 5 10 10 0 6 -4 10 -10 10 -5 0
-10 -4 -10 -10z"/>
<path d="M3550 4400 c0 -5 5 -10 10 -10 6 0 10 5 10 10 0 6 -4 10 -10 10 -5 0
-10 -4 -10 -10z"/>
<path d="M3970 4395 c0 -8 5 -15 10 -15 6 0 10 7 10 15 0 8 -4 15 -10 15 -5 0
-10 -7 -10 -15z"/>
<path d="M6460 4390 c0 -5 5 -10 10 -10 6 0 10 5 10 10 0 6 -4 10 -10 10 -5 0
-10 -4 -10 -10z"/>
<path d="M6870 4384 c0 -8 5 -12 10 -9 6 3 10 10 10 16 0 5 -4 9 -10 9 -5 0
-10 -7 -10 -16z"/>
<path d="M7280 4384 c0 -8 5 -12 10 -9 6 3 10 10 10 16 0 5 -4 9 -10 9 -5 0
-10 -7 -10 -16z"/>
<path d="M7690 4385 c0 -9 5 -15 10 -13 12 4 11 16 -1 24 -5 3 -9 -2 -9 -11z"/>
<path d="M8106 4393 c-11 -11 -6 -23 9 -23 8 0 15 4 15 9 0 13 -16 22 -24 14z"/>
<path d="M3130 4360 c0 -5 5 -10 10 -10 6 0 10 5 10 10 0 6 -4 10 -10 10 -5 0
-10 -4 -10 -10z"/>
<path d="M3550 4355 c0 -8 5 -15 10 -15 6 0 10 7 10 15 0 8 -4 15 -10 15 -5 0
-10 -7 -10 -15z"/>
<path d="M3970 4355 c0 -8 5 -15 10 -15 6 0 10 7 10 15 0 8 -4 15 -10 15 -5 0
-10 -7 -10 -15z"/>
<path d="M6460 4350 c0 -5 5 -10 10 -10 6 0 10 5 10 10 0 6 -4 10 -10 10 -5 0
-10 -4 -10 -10z"/>
<path d="M6865 4351 c-6 -11 9 -23 19 -14 9 9 7 23 -3 23 -6 0 -12 -4 -16 -9z"/>
<path d="M7280 4350 c0 -5 5 -10 10 -10 6 0 10 5 10 10 0 6 -4 10 -10 10 -5 0
-10 -4 -10 -10z"/>
<path d="M7690 4345 c0 -9 5 -15 10 -13 12 4 11 16 -1 24 -5 3 -9 -2 -9 -11z"/>
<path d="M8105 4349 c-10 -15 3 -25 16 -12 7 7 7 13 1 17 -6 3 -14 1 -17 -5z"/>
<path d="M3130 4320 c0 -5 5 -10 10 -10 6 0 10 5 10 10 0 6 -4 10 -10 10 -5 0
-10 -4 -10 -10z"/>
<path d="M3550 4321 c0 -6 5 -13 10 -16 6 -3 10 1 10 9 0 9 -4 16 -10 16 -5 0
-10 -4 -10 -9z"/>
<path d="M3970 4315 c0 -8 5 -15 10 -15 6 0 10 7 10 15 0 8 -4 15 -10 15 -5 0
-10 -7 -10 -15z"/>
<path d="M6460 4305 c0 -8 5 -15 10 -15 6 0 10 7 10 15 0 8 -4 15 -10 15 -5 0
-10 -7 -10 -15z"/>
<path d="M6866 4305 c4 -8 10 -12 15 -9 14 8 10 24 -6 24 -9 0 -12 -6 -9 -15z"/>
<path d="M7278 4308 c9 -9 15 -9 24 0 9 9 7 12 -12 12 -19 0 -21 -3 -12 -12z"/>
<path d="M7690 4305 c0 -9 5 -15 10 -13 12 4 11 16 -1 24 -5 3 -9 -2 -9 -11z"/>
<path d="M8100 4300 c0 -5 7 -10 15 -10 8 0 15 5 15 10 0 6 -7 10 -15 10 -8 0
-15 -4 -15 -10z"/>
<path d="M3130 4280 c0 -5 5 -10 10 -10 6 0 10 5 10 10 0 6 -4 10 -10 10 -5 0
-10 -4 -10 -10z"/>
<path d="M3550 4275 c0 -8 5 -15 10 -15 6 0 10 7 10 15 0 8 -4 15 -10 15 -5 0
-10 -7 -10 -15z"/>
<path d="M3970 4275 c0 -8 5 -15 10 -15 6 0 10 7 10 15 0 8 -4 15 -10 15 -5 0
-10 -7 -10 -15z"/>
<path d="M6460 4270 c0 -5 5 -10 10 -10 6 0 10 5 10 10 0 6 -4 10 -10 10 -5 0
-10 -4 -10 -10z"/>
<path d="M6865 4270 c-3 -5 1 -10 9 -10 9 0 16 5 16 10 0 6 -4 10 -9 10 -6 0
-13 -4 -16 -10z"/>
<path d="M7276 4271 c-4 -5 -2 -12 3 -15 5 -4 12 -2 15 3 4 5 2 12 -3 15 -5 4
-12 2 -15 -3z"/>
<path d="M7690 4265 c0 -9 5 -15 10 -13 12 4 11 16 -1 24 -5 3 -9 -2 -9 -11z"/>
<path d="M8105 4269 c-10 -15 3 -25 16 -12 7 7 7 13 1 17 -6 3 -14 1 -17 -5z"/>
<path d="M3130 4240 c0 -5 5 -10 10 -10 6 0 10 5 10 10 0 6 -4 10 -10 10 -5 0
-10 -4 -10 -10z"/>
<path d="M3550 4240 c0 -5 5 -10 11 -10 5 0 7 5 4 10 -3 6 -8 10 -11 10 -2 0
-4 -4 -4 -10z"/>
<path d="M3970 4235 c0 -8 5 -15 10 -15 6 0 10 7 10 15 0 8 -4 15 -10 15 -5 0
-10 -7 -10 -15z"/>
<path d="M6460 4230 c0 -5 5 -10 11 -10 5 0 7 5 4 10 -3 6 -8 10 -11 10 -2 0
-4 -4 -4 -10z"/>
<path d="M6863 4228 c2 -7 7 -13 12 -13 5 0 10 6 13 13 2 6 -4 12 -13 12 -9 0
-15 -6 -12 -12z"/>
<path d="M7281 4224 c0 -11 3 -14 6 -6 3 7 2 16 -1 19 -3 4 -6 -2 -5 -13z"/>
<path d="M7690 4225 c0 -8 5 -15 10 -15 6 0 10 7 10 15 0 8 -4 15 -10 15 -5 0
-10 -7 -10 -15z"/>
<path d="M8105 4220 c-3 -5 -1 -10 4 -10 6 0 11 5 11 10 0 6 -2 10 -4 10 -3 0
-8 -4 -11 -10z"/>
<path d="M3134 4209 c-3 -6 -1 -16 5 -22 8 -8 11 -5 11 11 0 24 -5 28 -16 11z"/>
<path d="M3550 4190 c0 -5 5 -10 10 -10 6 0 10 5 10 10 0 6 -4 10 -10 10 -5 0
-10 -4 -10 -10z"/>
<path d="M3970 4190 c0 -5 5 -10 10 -10 6 0 10 5 10 10 0 6 -4 10 -10 10 -5 0
-10 -4 -10 -10z"/>
<path d="M6460 4184 c0 -8 5 -12 10 -9 6 4 8 11 5 16 -9 14 -15 11 -15 -7z"/>
<path d="M6871 4191 c-8 -5 -9 -11 -3 -15 5 -3 12 1 16 9 6 17 6 18 -13 6z"/>
<path d="M7275 4180 c3 -5 10 -10 16 -10 5 0 9 5 9 10 0 6 -7 10 -16 10 -8 0
-12 -4 -9 -10z"/>
<path d="M7690 4180 c0 -5 5 -10 10 -10 6 0 10 5 10 10 0 6 -4 10 -10 10 -5 0
-10 -4 -10 -10z"/>
<path d="M8100 4181 c0 -6 5 -13 10 -16 6 -3 10 1 10 9 0 9 -4 16 -10 16 -5 0
-10 -4 -10 -9z"/>
<path d="M3130 4155 c0 -8 5 -15 10 -15 6 0 10 7 10 15 0 8 -4 15 -10 15 -5 0
-10 -7 -10 -15z"/>
<path d="M3550 4149 c0 -5 5 -7 10 -4 6 3 10 8 10 11 0 2 -4 4 -10 4 -5 0 -10
-5 -10 -11z"/>
<path d="M3967 4154 c-8 -8 1 -24 14 -24 5 0 9 7 9 15 0 15 -12 20 -23 9z"/>
<path d="M6460 4139 c0 -5 5 -7 10 -4 6 3 10 8 10 11 0 2 -4 4 -10 4 -5 0 -10
-5 -10 -11z"/>
<path d="M6863 4138 c2 -7 7 -13 12 -13 5 0 10 6 13 13 2 6 -4 12 -13 12 -9 0
-15 -6 -12 -12z"/>
<path d="M7280 4134 c0 -8 5 -12 10 -9 6 3 10 10 10 16 0 5 -4 9 -10 9 -5 0
-10 -7 -10 -16z"/>
<path d="M7690 4135 c0 -8 5 -15 10 -15 6 0 10 7 10 15 0 8 -4 15 -10 15 -5 0
-10 -7 -10 -15z"/>
<path d="M8100 4141 c0 -6 5 -13 10 -16 6 -3 10 1 10 9 0 9 -4 16 -10 16 -5 0
-10 -4 -10 -9z"/>
<path d="M3130 4104 c0 -8 5 -12 10 -9 6 3 10 10 10 16 0 5 -4 9 -10 9 -5 0
-10 -7 -10 -16z"/>
<path d="M3550 4104 c0 -8 5 -12 10 -9 6 3 10 10 10 16 0 5 -4 9 -10 9 -5 0
-10 -7 -10 -16z"/>
<path d="M3963 4108 c2 -7 7 -13 12 -13 5 0 10 6 13 13 2 6 -4 12 -13 12 -9 0
-15 -6 -12 -12z"/>
<path d="M6455 4100 c4 -6 11 -8 16 -5 14 9 11 15 -7 15 -8 0 -12 -5 -9 -10z"/>
<path d="M6863 4098 c2 -7 7 -13 12 -13 5 0 10 6 13 13 2 6 -4 12 -13 12 -9 0
-15 -6 -12 -12z"/>
<path d="M7276 4095 c4 -8 8 -15 10 -15 2 0 4 7 4 15 0 8 -4 15 -10 15 -5 0
-7 -7 -4 -15z"/>
<path d="M7690 4095 c0 -8 5 -15 10 -15 6 0 10 7 10 15 0 8 -4 15 -10 15 -5 0
-10 -7 -10 -15z"/>
<path d="M8100 4101 c0 -6 5 -13 10 -16 6 -3 10 1 10 9 0 9 -4 16 -10 16 -5 0
-10 -4 -10 -9z"/>
<path d="M3120 4070 c0 -5 7 -10 15 -10 8 0 15 5 15 10 0 6 -7 10 -15 10 -8 0
-15 -4 -15 -10z"/>
<path d="M3550 4064 c0 -8 5 -12 10 -9 6 3 10 10 10 16 0 5 -4 9 -10 9 -5 0
-10 -7 -10 -16z"/>
<path d="M3965 4071 c-6 -11 9 -23 19 -14 9 9 7 23 -3 23 -6 0 -12 -4 -16 -9z"/>
<path d="M4380 4064 c0 -8 5 -12 10 -9 6 3 10 10 10 16 0 5 -4 9 -10 9 -5 0
-10 -7 -10 -16z"/>
<path d="M4800 4065 c0 -8 5 -15 10 -15 6 0 10 7 10 15 0 8 -4 15 -10 15 -5 0
-10 -7 -10 -15z"/>
<path d="M5626 4071 c-4 -7 -5 -15 -2 -18 9 -9 19 4 14 18 -4 11 -6 11 -12 0z"/>
<path d="M6036 4073 c-11 -11 -6 -23 9 -23 8 0 15 4 15 9 0 13 -16 22 -24 14z"/>
<path d="M5200 4060 c0 -5 5 -10 10 -10 6 0 10 5 10 10 0 6 -4 10 -10 10 -5 0
-10 -4 -10 -10z"/>
<path d="M6455 4060 c-3 -5 1 -10 9 -10 9 0 16 5 16 10 0 6 -4 10 -9 10 -6 0
-13 -4 -16 -10z"/>
<path d="M6863 4058 c2 -7 7 -13 12 -13 5 0 10 6 13 13 2 6 -4 12 -13 12 -9 0
-15 -6 -12 -12z"/>
<path d="M7281 4054 c0 -11 3 -14 6 -6 3 7 2 16 -1 19 -3 4 -6 -2 -5 -13z"/>
<path d="M7690 4055 c0 -8 5 -15 10 -15 6 0 10 7 10 15 0 8 -4 15 -10 15 -5 0
-10 -7 -10 -15z"/>
<path d="M8100 4055 c0 -8 5 -15 10 -15 6 0 10 7 10 15 0 8 -4 15 -10 15 -5 0
-10 -7 -10 -15z"/>
<path d="M3126 4043 c-11 -11 -6 -23 9 -23 8 0 15 4 15 9 0 13 -16 22 -24 14z"/>
<path d="M3550 4026 c0 -9 5 -16 10 -16 6 0 10 4 10 9 0 6 -4 13 -10 16 -5 3
-10 -1 -10 -9z"/>
<path d="M3963 4028 c2 -7 7 -13 12 -13 5 0 10 6 13 13 2 6 -4 12 -13 12 -9 0
-15 -6 -12 -12z"/>
<path d="M4800 4026 c0 -9 5 -16 10 -16 6 0 10 4 10 9 0 6 -4 13 -10 16 -5 3
-10 -1 -10 -9z"/>
<path d="M5206 4031 c-4 -7 -5 -15 -2 -18 9 -9 19 4 14 18 -4 11 -6 11 -12 0z"/>
<path d="M5620 4025 c0 -8 5 -15 10 -15 6 0 10 7 10 15 0 8 -4 15 -10 15 -5 0
-10 -7 -10 -15z"/>
<path d="M6036 4033 c-11 -11 -6 -23 9 -23 8 0 15 4 15 9 0 13 -16 22 -24 14z"/>
<path d="M4380 4020 c0 -5 5 -10 10 -10 6 0 10 5 10 10 0 6 -4 10 -10 10 -5 0
-10 -4 -10 -10z"/>
<path d="M6460 4014 c0 -8 5 -12 10 -9 6 3 10 10 10 16 0 5 -4 9 -10 9 -5 0
-10 -7 -10 -16z"/>
<path d="M6860 4021 c0 -6 5 -13 10 -16 6 -3 10 1 10 9 0 9 -4 16 -10 16 -5 0
-10 -4 -10 -9z"/>
<path d="M7281 4014 c0 -11 3 -14 6 -6 3 7 2 16 -1 19 -3 4 -6 -2 -5 -13z"/>
<path d="M7690 4015 c0 -8 5 -15 10 -15 6 0 10 7 10 15 0 8 -4 15 -10 15 -5 0
-10 -7 -10 -15z"/>
<path d="M8100 4015 c0 -8 5 -15 10 -15 6 0 10 7 10 15 0 8 -4 15 -10 15 -5 0
-10 -7 -10 -15z"/>
<path d="M3126 3995 c-3 -9 0 -15 9 -15 16 0 20 16 6 24 -5 3 -11 -1 -15 -9z"/>
<path d="M3550 3985 c0 -8 5 -15 10 -15 6 0 10 7 10 15 0 8 -4 15 -10 15 -5 0
-10 -7 -10 -15z"/>
<path d="M3962 3989 c3 -8 8 -13 11 -11 9 3 7 11 -5 18 -6 4 -8 0 -6 -7z"/>
<path d="M4796 3992 c-3 -6 -1 -14 5 -17 15 -10 25 3 12 16 -7 7 -13 7 -17 1z"/>
<path d="M5206 3991 c-4 -7 -5 -15 -2 -18 9 -9 19 4 14 18 -4 11 -6 11 -12 0z"/>
<path d="M5620 3985 c0 -8 5 -15 10 -15 6 0 10 7 10 15 0 8 -4 15 -10 15 -5 0
-10 -7 -10 -15z"/>
<path d="M6036 3993 c-11 -11 -6 -23 9 -23 8 0 15 4 15 9 0 13 -16 22 -24 14z"/>
<path d="M4380 3980 c0 -5 5 -10 11 -10 5 0 7 5 4 10 -3 6 -8 10 -11 10 -2 0
-4 -4 -4 -10z"/>
<path d="M6460 3974 c0 -8 5 -12 10 -9 6 3 10 10 10 16 0 5 -4 9 -10 9 -5 0
-10 -7 -10 -16z"/>
<path d="M6863 3978 c2 -7 7 -13 12 -13 5 0 10 6 13 13 2 6 -4 12 -13 12 -9 0
-15 -6 -12 -12z"/>
<path d="M7275 3981 c-3 -5 -1 -12 5 -16 5 -3 10 1 10 9 0 18 -6 21 -15 7z"/>
<path d="M7690 3975 c0 -8 5 -15 10 -15 6 0 10 7 10 15 0 8 -4 15 -10 15 -5 0
-10 -7 -10 -15z"/>
<path d="M8106 3981 c-4 -7 -5 -15 -2 -18 9 -9 19 4 14 18 -4 11 -6 11 -12 0z"/>
<path d="M3120 3950 c0 -5 7 -10 15 -10 8 0 15 5 15 10 0 6 -7 10 -15 10 -8 0
-15 -4 -15 -10z"/>
<path d="M3550 3950 c0 -5 5 -10 11 -10 5 0 7 5 4 10 -3 6 -8 10 -11 10 -2 0
-4 -4 -4 -10z"/>
<path d="M3962 3948 c6 -18 28 -21 28 -4 0 9 -7 16 -16 16 -9 0 -14 -5 -12
-12z"/>
<path d="M4800 3946 c0 -9 5 -16 10 -16 6 0 10 4 10 9 0 6 -4 13 -10 16 -5 3
-10 -1 -10 -9z"/>
<path d="M5620 3945 c0 -8 5 -15 10 -15 6 0 10 7 10 15 0 8 -4 15 -10 15 -5 0
-10 -7 -10 -15z"/>
<path d="M4375 3940 c-3 -5 1 -10 9 -10 9 0 16 5 16 10 0 6 -4 10 -9 10 -6 0
-13 -4 -16 -10z"/>
<path d="M5205 3940 c-3 -5 -1 -10 4 -10 6 0 11 5 11 10 0 6 -2 10 -4 10 -3 0
-8 -4 -11 -10z"/>
<path d="M6035 3940 c-3 -5 1 -10 9 -10 9 0 16 5 16 10 0 6 -4 10 -9 10 -6 0
-13 -4 -16 -10z"/>
<path d="M6452 3939 c3 -8 8 -13 11 -11 9 3 7 11 -5 18 -6 4 -8 0 -6 -7z"/>
<path d="M6860 3934 c0 -17 22 -14 28 4 2 7 -3 12 -12 12 -9 0 -16 -7 -16 -16z"/>
<path d="M7281 3934 c0 -11 3 -14 6 -6 3 7 2 16 -1 19 -3 4 -6 -2 -5 -13z"/>
<path d="M7682 3938 c6 -18 28 -21 28 -4 0 9 -7 16 -16 16 -9 0 -14 -5 -12
-12z"/>
<path d="M8106 3941 c-4 -7 -5 -15 -2 -18 9 -9 19 4 14 18 -4 11 -6 11 -12 0z"/>
<path d="M3127 3916 c-3 -8 1 -17 9 -20 8 -3 14 1 14 9 0 20 -17 28 -23 11z"/>
<path d="M3550 3910 c0 -5 5 -10 11 -10 5 0 7 5 4 10 -3 6 -8 10 -11 10 -2 0
-4 -4 -4 -10z"/>
<path d="M5620 3906 c0 -9 5 -16 10 -16 6 0 10 4 10 9 0 6 -4 13 -10 16 -5 3
-10 -1 -10 -9z"/>
<path d="M3965 3900 c4 -6 11 -8 16 -5 14 9 11 15 -7 15 -8 0 -12 -5 -9 -10z"/>
<path d="M5205 3900 c-3 -5 -1 -10 4 -10 6 0 11 5 11 10 0 6 -2 10 -4 10 -3 0
-8 -4 -11 -10z"/>
<path d="M6035 3900 c-3 -5 1 -10 9 -10 9 0 16 5 16 10 0 6 -4 10 -9 10 -6 0
-13 -4 -16 -10z"/>
<path d="M6458 3893 c7 -3 16 -2 19 1 4 3 -2 6 -13 5 -11 0 -14 -3 -6 -6z"/>
<path d="M6865 3890 c3 -5 8 -10 11 -10 2 0 4 5 4 10 0 6 -5 10 -11 10 -5 0
-7 -4 -4 -10z"/>
<path d="M7690 3889 c0 -5 5 -7 10 -4 6 3 10 8 10 11 0 2 -4 4 -10 4 -5 0 -10
-5 -10 -11z"/>
<path d="M8100 3890 c0 -5 5 -10 10 -10 6 0 10 5 10 10 0 6 -4 10 -10 10 -5 0
-10 -4 -10 -10z"/>
<path d="M3127 3874 c-8 -8 1 -24 14 -24 5 0 9 7 9 15 0 15 -12 20 -23 9z"/>
<path d="M3550 3864 c0 -8 5 -12 10 -9 6 4 8 11 5 16 -9 14 -15 11 -15 -7z"/>
<path d="M3960 3855 c0 -9 5 -15 10 -13 12 4 11 16 -1 24 -5 3 -9 -2 -9 -11z"/>
<path d="M4381 3854 c0 -11 3 -14 6 -6 3 7 2 16 -1 19 -3 4 -6 -2 -5 -13z"/>
<path d="M4800 3856 c0 -9 5 -16 10 -16 6 0 10 4 10 9 0 6 -4 13 -10 16 -5 3
-10 -1 -10 -9z"/>
<path d="M5205 3861 c-3 -5 -1 -12 5 -16 5 -3 10 1 10 9 0 18 -6 21 -15 7z"/>
<path d="M5620 3849 c0 -5 5 -7 10 -4 6 3 10 8 10 11 0 2 -4 4 -10 4 -5 0 -10
-5 -10 -11z"/>
<path d="M6035 3850 c3 -5 10 -10 16 -10 5 0 9 5 9 10 0 6 -7 10 -16 10 -8 0
-12 -4 -9 -10z"/>
<path d="M6450 3850 c0 -5 4 -10 9 -10 6 0 13 5 16 10 3 6 -1 10 -9 10 -9 0
-16 -4 -16 -10z"/>
<path d="M6866 3845 c4 -8 10 -12 15 -9 11 6 2 24 -11 24 -5 0 -7 -7 -4 -15z"/>
<path d="M7280 3844 c0 -8 5 -12 10 -9 6 3 10 10 10 16 0 5 -4 9 -10 9 -5 0
-10 -7 -10 -16z"/>
<path d="M7690 3845 c0 -8 5 -15 10 -15 6 0 10 7 10 15 0 8 -4 15 -10 15 -5 0
-10 -7 -10 -15z"/>
<path d="M8100 3851 c0 -6 5 -13 10 -16 6 -3 10 1 10 9 0 9 -4 16 -10 16 -5 0
-10 -4 -10 -9z"/>
<path d="M3127 3833 c-12 -11 -8 -23 8 -23 8 0 15 7 15 15 0 16 -12 20 -23 8z"/>
<path d="M3550 3819 c0 -5 5 -7 10 -4 6 3 10 8 10 11 0 2 -4 4 -10 4 -5 0 -10
-5 -10 -11z"/>
<path d="M3962 3819 c3 -8 8 -13 11 -11 9 3 7 11 -5 18 -6 4 -8 0 -6 -7z"/>
<path d="M4381 3814 c0 -11 3 -14 6 -6 3 7 2 16 -1 19 -3 4 -6 -2 -5 -13z"/>
<path d="M4796 3815 c-3 -9 0 -15 9 -15 16 0 20 16 6 24 -5 3 -11 -1 -15 -9z"/>
<path d="M5200 3821 c0 -6 5 -13 10 -16 6 -3 10 1 10 9 0 9 -4 16 -10 16 -5 0
-10 -4 -10 -9z"/>
<path d="M5620 3809 c0 -5 5 -7 10 -4 6 3 10 8 10 11 0 2 -4 4 -10 4 -5 0 -10
-5 -10 -11z"/>
<path d="M6030 3810 c0 -5 7 -10 15 -10 8 0 15 5 15 10 0 6 -7 10 -15 10 -8 0
-15 -4 -15 -10z"/>
<path d="M6450 3810 c0 -5 4 -10 9 -10 6 0 13 5 16 10 3 6 -1 10 -9 10 -9 0
-16 -4 -16 -10z"/>
<path d="M6860 3804 c0 -17 22 -14 28 4 2 7 -3 12 -12 12 -9 0 -16 -7 -16 -16z"/>
<path d="M7281 3804 c0 -11 3 -14 6 -6 3 7 2 16 -1 19 -3 4 -6 -2 -5 -13z"/>
<path d="M7690 3804 c0 -8 5 -12 10 -9 6 3 10 10 10 16 0 5 -4 9 -10 9 -5 0
-10 -7 -10 -16z"/>
<path d="M8100 3805 c0 -8 5 -15 10 -15 6 0 10 7 10 15 0 8 -4 15 -10 15 -5 0
-10 -7 -10 -15z"/>
<path d="M3120 3780 c0 -5 7 -10 15 -10 8 0 15 5 15 10 0 6 -7 10 -15 10 -8 0
-15 -4 -15 -10z"/>
<path d="M3550 3780 c0 -5 5 -10 10 -10 6 0 10 5 10 10 0 6 -4 10 -10 10 -5 0
-10 -4 -10 -10z"/>
<path d="M3960 3774 c0 -9 5 -14 12 -12 18 6 21 28 4 28 -9 0 -16 -7 -16 -16z"/>
<path d="M4375 3781 c-3 -5 -1 -12 5 -16 5 -3 10 1 10 9 0 18 -6 21 -15 7z"/>
<path d="M4796 3783 c-11 -11 -6 -23 9 -23 8 0 15 4 15 9 0 13 -16 22 -24 14z"/>
<path d="M5620 3776 c0 -8 5 -18 10 -21 6 -3 10 3 10 14 0 12 -4 21 -10 21 -5
0 -10 -6 -10 -14z"/>
<path d="M5205 3770 c3 -5 8 -10 11 -10 2 0 4 5 4 10 0 6 -5 10 -11 10 -5 0
-7 -4 -4 -10z"/>
<path d="M6030 3770 c0 -5 7 -10 15 -10 8 0 15 5 15 10 0 6 -7 10 -15 10 -8 0
-15 -4 -15 -10z"/>
<path d="M6450 3770 c0 -5 4 -10 9 -10 6 0 13 5 16 10 3 6 -1 10 -9 10 -9 0
-16 -4 -16 -10z"/>
<path d="M6860 3771 c0 -6 5 -13 10 -16 6 -3 10 1 10 9 0 9 -4 16 -10 16 -5 0
-10 -4 -10 -9z"/>
<path d="M7281 3764 c0 -11 3 -14 6 -6 3 7 2 16 -1 19 -3 4 -6 -2 -5 -13z"/>
<path d="M7687 3774 c-8 -8 1 -24 14 -24 5 0 9 7 9 15 0 15 -12 20 -23 9z"/>
<path d="M8100 3765 c0 -8 5 -15 10 -15 6 0 10 7 10 15 0 8 -4 15 -10 15 -5 0
-10 -7 -10 -15z"/>
<path d="M3120 3740 c0 -5 7 -10 15 -10 8 0 15 5 15 10 0 6 -7 10 -15 10 -8 0
-15 -4 -15 -10z"/>
<path d="M3550 3734 c0 -8 5 -12 10 -9 6 3 10 10 10 16 0 5 -4 9 -10 9 -5 0
-10 -7 -10 -16z"/>
<path d="M3960 3735 c0 -9 5 -15 10 -13 12 4 11 16 -1 24 -5 3 -9 -2 -9 -11z"/>
<path d="M4796 3743 c-11 -11 -6 -23 9 -23 8 0 15 4 15 9 0 13 -16 22 -24 14z"/>
<path d="M5203 3735 c0 -8 4 -15 9 -15 4 0 8 4 8 9 0 6 -4 12 -8 15 -5 3 -9
-1 -9 -9z"/>
<path d="M5620 3730 c0 -5 5 -10 10 -10 6 0 10 5 10 10 0 6 -4 10 -10 10 -5 0
-10 -4 -10 -10z"/>
<path d="M6030 3730 c0 -5 7 -10 15 -10 8 0 15 5 15 10 0 6 -7 10 -15 10 -8 0
-15 -4 -15 -10z"/>
<path d="M6450 3730 c0 -5 7 -10 15 -10 8 0 15 5 15 10 0 6 -7 10 -15 10 -8 0
-15 -4 -15 -10z"/>
<path d="M6860 3725 c0 -8 5 -15 10 -15 6 0 10 7 10 15 0 8 -4 15 -10 15 -5 0
-10 -7 -10 -15z"/>
<path d="M7281 3724 c0 -11 3 -14 6 -6 3 7 2 16 -1 19 -3 4 -6 -2 -5 -13z"/>
<path d="M7686 3732 c-3 -6 -1 -14 5 -17 15 -10 25 3 12 16 -7 7 -13 7 -17 1z"/>
<path d="M8100 3725 c0 -8 5 -15 10 -15 6 0 10 7 10 15 0 8 -4 15 -10 15 -5 0
-10 -7 -10 -15z"/>
<path d="M3120 3700 c0 -5 7 -10 15 -10 8 0 15 5 15 10 0 6 -7 10 -15 10 -8 0
-15 -4 -15 -10z"/>
<path d="M3547 3704 c-8 -8 1 -24 14 -24 5 0 9 7 9 15 0 15 -12 20 -23 9z"/>
<path d="M3960 3695 c0 -9 5 -15 10 -13 12 4 11 16 -1 24 -5 3 -9 -2 -9 -11z"/>
<path d="M4381 3694 c0 -11 3 -14 6 -6 3 7 2 16 -1 19 -3 4 -6 -2 -5 -13z"/>
<path d="M4790 3690 c0 -5 7 -10 15 -10 8 0 15 5 15 10 0 6 -7 10 -15 10 -8 0
-15 -4 -15 -10z"/>
<path d="M5205 3690 c-3 -5 -1 -10 4 -10 6 0 11 5 11 10 0 6 -2 10 -4 10 -3 0
-8 -4 -11 -10z"/>
<path d="M5620 3690 c0 -5 5 -10 10 -10 6 0 10 5 10 10 0 6 -4 10 -10 10 -5 0
-10 -4 -10 -10z"/>
<path d="M6030 3690 c0 -5 7 -10 15 -10 8 0 15 5 15 10 0 6 -7 10 -15 10 -8 0
-15 -4 -15 -10z"/>
<path d="M6450 3691 c0 -17 18 -21 24 -6 3 9 0 15 -9 15 -8 0 -15 -4 -15 -9z"/>
<path d="M6860 3685 c0 -8 5 -15 10 -15 6 0 10 7 10 15 0 8 -4 15 -10 15 -5 0
-10 -7 -10 -15z"/>
<path d="M7281 3684 c0 -11 3 -14 6 -6 3 7 2 16 -1 19 -3 4 -6 -2 -5 -13z"/>
<path d="M7687 3694 c-8 -8 1 -24 14 -24 5 0 9 7 9 15 0 15 -12 20 -23 9z"/>
<path d="M8100 3685 c0 -8 5 -15 10 -15 6 0 10 7 10 15 0 8 -4 15 -10 15 -5 0
-10 -7 -10 -15z"/>
<path d="M3120 3660 c0 -5 7 -10 15 -10 8 0 15 5 15 10 0 6 -7 10 -15 10 -8 0
-15 -4 -15 -10z"/>
<path d="M3540 3660 c0 -5 7 -10 16 -10 8 0 12 5 9 10 -3 6 -10 10 -16 10 -5
0 -9 -4 -9 -10z"/>
<path d="M3960 3655 c0 -9 5 -15 10 -13 12 4 11 16 -1 24 -5 3 -9 -2 -9 -11z"/>
<path d="M4381 3654 c0 -11 3 -14 6 -6 3 7 2 16 -1 19 -3 4 -6 -2 -5 -13z"/>
<path d="M4790 3650 c0 -5 5 -10 10 -10 6 0 10 5 10 10 0 6 -4 10 -10 10 -5 0
-10 -4 -10 -10z"/>
<path d="M5205 3650 c-3 -5 -1 -10 4 -10 6 0 11 5 11 10 0 6 -2 10 -4 10 -3 0
-8 -4 -11 -10z"/>
<path d="M5620 3650 c0 -5 5 -10 10 -10 6 0 10 5 10 10 0 6 -4 10 -10 10 -5 0
-10 -4 -10 -10z"/>
<path d="M6030 3650 c0 -5 7 -10 15 -10 8 0 15 5 15 10 0 6 -7 10 -15 10 -8 0
-15 -4 -15 -10z"/>
<path d="M6450 3645 c0 -8 5 -15 10 -15 6 0 10 7 10 15 0 8 -4 15 -10 15 -5 0
-10 -7 -10 -15z"/>
<path d="M6860 3645 c0 -8 5 -15 10 -15 6 0 10 7 10 15 0 8 -4 15 -10 15 -5 0
-10 -7 -10 -15z"/>
<path d="M7276 3645 c-3 -8 -1 -15 4 -15 6 0 10 7 10 15 0 8 -2 15 -4 15 -2 0
-6 -7 -10 -15z"/>
<path d="M7682 3648 c6 -18 28 -21 28 -4 0 9 -7 16 -16 16 -9 0 -14 -5 -12
-12z"/>
<path d="M8106 3651 c-4 -7 -5 -15 -2 -18 9 -9 19 4 14 18 -4 11 -6 11 -12 0z"/>
<path d="M8610 3523 c0 -82 4 -133 10 -133 6 0 10 35 10 84 l0 85 38 3 c36 3
37 4 40 48 l3 45 -51 0 -50 0 0 -132z m63 100 c-7 -2 -21 -2 -30 0 -10 3 -4 5
12 5 17 0 24 -2 18 -5z m7 -33 c0 -5 -12 -10 -26 -10 -14 0 -23 4 -19 10 3 6
15 10 26 10 10 0 19 -4 19 -10z"/>
<path d="M8746 3635 c-2 -11 -3 -31 -2 -45 3 -25 4 -25 69 -29 14 -1 17 -11
17 -71 0 -40 -4 -70 -10 -70 -5 0 -10 7 -10 15 0 11 -7 13 -28 9 -22 -4 -29
-2 -29 10 0 9 6 16 14 16 7 0 13 9 13 19 0 14 5 18 20 14 28 -7 25 11 -5 31
-30 20 -35 20 -35 1 0 -10 -10 -15 -30 -15 -22 0 -28 4 -24 15 9 22 -12 18
-41 -7 -28 -24 -33 -40 -10 -32 10 4 15 0 15 -15 0 -12 6 -21 13 -21 6 -1 -1
-12 -18 -25 -22 -18 -25 -25 -13 -25 29 0 49 12 59 36 10 28 31 32 28 7 -3
-39 1 -45 29 -41 16 2 34 -2 41 -9 6 -7 18 -13 26 -13 12 0 15 21 15 113 0 61
3 121 6 132 5 18 0 20 -50 20 -47 0 -56 -3 -60 -20z m65 -14 c-8 -5 -20 -7
-28 -4 -21 8 -15 13 15 13 20 0 23 -3 13 -9z m9 -31 c0 -5 -9 -10 -20 -10 -11
0 -20 5 -20 10 0 6 9 10 20 10 11 0 20 -4 20 -10z m-60 -100 c0 -5 -13 -10
-29 -10 -17 0 -33 5 -36 10 -4 6 8 10 29 10 20 0 36 -4 36 -10z"/>
<path d="M9025 3650 c-3 -5 -22 -10 -41 -10 -19 0 -34 -5 -34 -11 0 -8 12 -10
35 -6 19 3 35 2 35 -3 0 -13 -31 -17 -62 -9 -16 4 -30 3 -34 -2 -9 -16 3 -22
39 -21 17 1 39 -3 47 -8 11 -7 3 -10 -27 -10 -24 0 -43 -4 -43 -9 0 -6 19 -12
43 -14 l42 -4 -47 -1 c-27 -1 -48 -6 -48 -11 0 -6 21 -12 48 -14 46 -3 46 -3
-10 -5 -32 -1 -58 -6 -58 -12 0 -5 10 -10 23 -10 21 0 22 -4 19 -56 -4 -51 -2
-55 15 -50 28 8 138 10 151 3 15 -10 20 2 19 50 l0 42 -86 4 c-86 3 -86 3 22
5 59 1 107 4 107 7 0 3 -9 14 -20 25 -12 12 -20 33 -20 52 0 25 3 29 12 20 17
-17 28 -15 28 4 0 9 -9 18 -20 21 -11 3 -20 11 -20 18 0 9 -11 12 -40 8 -26
-4 -40 -2 -40 6 0 14 -27 15 -35 1z m75 -40 c0 -12 -8 -12 -35 0 -18 8 -17 9
8 9 15 1 27 -3 27 -9z m0 -32 c0 -4 -11 -8 -25 -8 -14 0 -25 4 -25 10 0 5 11
9 25 8 14 -1 25 -6 25 -10z m19 -34 c2 -2 -12 -4 -32 -4 -20 0 -37 4 -37 10 0
8 58 3 69 -6z m-1 -31 c-16 -2 -40 -2 -55 0 -16 2 -3 4 27 4 30 0 43 -2 28 -4z
m-18 -62 c-8 -4 -42 -5 -75 -1 l-60 7 75 1 c43 1 69 -2 60 -7z m10 -31 c0 -6
-30 -10 -71 -10 -44 0 -68 4 -64 10 3 6 35 10 71 10 36 0 64 -4 64 -10z"/>
<path d="M9296 3652 c-4 -7 -18 -12 -32 -12 -17 0 -24 -5 -24 -20 0 -11 -5
-20 -12 -20 -9 0 -9 -3 0 -12 7 -7 12 -34 12 -61 0 -40 3 -48 15 -43 8 3 15 1
15 -4 0 -6 -11 -10 -25 -10 -14 0 -25 -5 -25 -11 0 -6 9 -9 20 -6 11 3 17 1
14 -4 -3 -6 -1 -16 5 -23 9 -10 7 -15 -9 -19 -11 -3 -20 -10 -20 -16 0 -6 15
-5 44 3 37 11 49 11 70 0 23 -11 29 -10 55 11 l28 24 23 -24 c16 -17 27 -22
34 -15 7 7 2 18 -15 36 l-26 25 18 51 c9 28 22 54 29 58 24 15 0 31 -37 24
-34 -6 -36 -6 -29 17 12 39 12 52 0 56 -6 2 -19 -25 -29 -63 -14 -53 -20 -63
-28 -49 -6 12 -5 21 6 32 14 14 14 18 0 39 -9 14 -25 24 -38 24 -13 0 -25 5
-27 12 -3 9 -6 9 -12 0z m-6 -42 c0 -5 -4 -10 -10 -10 -5 0 -10 5 -10 10 0 6
5 10 10 10 6 0 10 -4 10 -10z m50 0 c0 -5 -4 -10 -10 -10 -5 0 -10 5 -10 10 0
6 5 10 10 10 6 0 10 -4 10 -10z m105 -82 c-11 -51 -18 -55 -31 -17 -17 48 -17
49 12 49 24 0 25 -2 19 -32z m-165 -8 c0 -5 -4 -10 -10 -10 -5 0 -10 5 -10 10
0 6 5 10 10 10 6 0 10 -4 10 -10z m62 -2 c-9 -9 -15 -9 -24 0 -9 9 -7 12 12
12 19 0 21 -3 12 -12z m63 -34 c5 -29 2 -41 -13 -56 -16 -17 -23 -18 -41 -8
-28 15 -22 34 12 38 35 4 35 22 0 23 -17 1 -21 3 -10 6 9 2 17 11 17 19 0 30
28 12 35 -22z m-85 2 c0 -3 -4 -8 -10 -11 -5 -3 -10 -1 -10 4 0 6 5 11 10 11
6 0 10 -2 10 -4z m0 -36 c0 -5 -9 -10 -20 -10 -11 0 -20 5 -20 10 0 6 9 10 20
10 11 0 20 -4 20 -10z"/>
<path d="M9587 3644 c-11 -11 -8 -252 2 -259 5 -3 12 -1 16 5 9 14 128 13 143
-2 9 -9 12 8 12 79 0 49 3 111 6 137 6 38 4 46 -10 46 -12 0 -16 -10 -16 -40
l0 -40 -65 0 c-49 0 -67 4 -71 15 -12 30 14 44 72 38 37 -4 54 -2 54 6 0 7
-20 11 -54 11 -30 0 -61 2 -68 5 -8 3 -17 2 -21 -1z m153 -118 c0 -30 -20 -38
-81 -30 -52 7 -64 16 -55 39 4 11 23 15 71 15 62 0 65 -1 65 -24z m0 -78 c0
-28 0 -28 -70 -28 -67 0 -70 1 -70 23 0 34 5 36 76 34 63 -2 64 -3 64 -29z"/>
<path d="M3120 3620 c0 -5 7 -10 15 -10 8 0 15 5 15 10 0 6 -7 10 -15 10 -8 0
-15 -4 -15 -10z"/>
<path d="M3540 3620 c0 -6 7 -10 15 -10 8 0 15 2 15 4 0 2 -7 6 -15 10 -8 3
-15 1 -15 -4z"/>
<path d="M3960 3586 l0 -46 -195 0 -195 0 0 25 c0 32 -27 34 -32 3 l-3 -23
-185 3 c-102 2 -188 6 -192 9 -5 2 -8 13 -8 23 0 13 -5 17 -15 14 -8 -4 -15
-15 -15 -25 0 -17 -9 -19 -104 -19 -58 0 -107 -4 -111 -9 -12 -20 38 -32 123
-30 l87 2 3 -37 c4 -45 26 -44 30 2 l3 32 195 0 194 0 0 -36 c0 -24 4 -34 13
-31 6 2 12 18 12 35 l0 32 197 0 198 0 0 -36 c0 -45 24 -42 28 4 l3 32 190 0
c146 0 190 -3 188 -12 -3 -29 2 -58 10 -58 6 0 11 15 13 33 l3 32 195 0 195 0
3 -33 c4 -41 26 -37 30 5 l3 31 184 -1 184 -2 3 -29 c4 -42 26 -45 30 -4 l3
33 115 -2 c63 -1 152 -2 198 -2 56 -1 81 -4 77 -12 -4 -5 -4 -22 -1 -35 6 -21
10 -23 21 -14 8 6 15 24 17 38 2 15 9 27 16 26 6 -1 91 -2 187 -2 l175 -2 0
-30 c0 -20 5 -30 15 -30 11 0 15 11 15 36 0 36 1 36 31 30 17 -3 105 -6 195
-6 l164 0 0 -36 c0 -31 2 -35 15 -24 8 7 15 23 15 36 l0 24 184 0 185 0 3 -32
c4 -46 28 -49 28 -4 l0 36 194 0 194 0 -3 -35 c-3 -25 1 -35 11 -35 9 0 14 11
14 35 l0 35 195 0 195 0 0 -36 c0 -45 24 -42 28 4 l3 32 190 0 189 0 0 -35 c0
-24 5 -35 15 -35 10 0 15 11 15 35 l0 35 164 -1 c91 0 169 2 175 6 33 20 -3
25 -164 25 l-175 0 0 40 c0 22 -4 40 -10 40 -5 0 -13 -18 -16 -40 l-7 -40
-188 0 -189 0 -2 28 c0 15 -1 33 -1 40 1 7 -4 11 -11 9 -6 -2 -12 -20 -14 -40
l-3 -37 -192 2 -192 3 -5 40 c-5 43 -14 39 -25 -13 l-7 -32 -186 2 -187 3 -6
45 -5 45 -12 -28 c-7 -16 -12 -37 -12 -48 0 -18 -9 -19 -185 -19 l-185 0 -2
28 c0 15 -1 32 -1 39 0 6 -6 14 -13 17 -10 4 -14 -4 -14 -27 0 -59 0 -59 -198
-55 -99 2 -183 6 -187 9 -3 4 -7 21 -7 38 -1 45 -28 41 -28 -4 l0 -35 -189 0
-189 0 -6 35 c-9 45 -26 45 -26 0 l0 -35 -197 2 -198 3 -3 33 c-4 42 -19 41
-28 -3 l-6 -35 -183 0 -183 0 -6 35 c-4 19 -11 35 -16 35 -6 0 -10 -16 -10
-35 l0 -35 -194 0 c-213 0 -204 -3 -208 63 -1 25 -2 23 -7 -13 l-6 -45 -192
-3 -191 -2 -7 40 c-10 56 -25 60 -25 6z"/>
<path d="M3034 3365 c-11 -8 -14 -15 -6 -15 16 0 17 -151 0 -168 -9 -9 -4 -12
25 -12 20 0 37 5 37 10 0 6 -4 10 -10 10 -6 0 -10 38 -10 95 0 52 -4 95 -8 95
-5 0 -17 -7 -28 -15z"/>
<path d="M3174 3370 c-12 -5 -25 -24 -32 -48 -16 -51 -15 -75 2 -117 13 -30
20 -35 48 -35 27 0 37 6 51 29 45 76 -3 196 -69 171z m43 -47 c20 -46 -2 -140
-30 -130 -16 5 -21 125 -6 143 16 20 22 18 36 -13z"/>
<path d="M3840 3350 c-21 -21 -26 -40 -11 -40 5 0 14 7 21 15 16 19 34 19 50
0 18 -22 4 -61 -40 -109 -22 -24 -40 -46 -40 -50 0 -3 25 -6 55 -6 43 0 56 4
65 19 10 21 -3 40 -15 21 -3 -5 -17 -10 -31 -10 l-25 0 30 38 c40 49 50 96 26
122 -23 26 -60 25 -85 0z"/>
<path d="M4000 3350 c-19 -16 -25 -33 -28 -80 -5 -70 14 -110 52 -110 41 0 61
35 61 105 0 48 -5 68 -19 84 -24 26 -37 26 -66 1z m56 -91 c-5 -106 -51 -106
-51 0 0 68 20 105 41 76 7 -10 11 -41 10 -76z"/>
<path d="M4690 3345 c-17 -20 -7 -29 18 -16 37 20 46 -26 11 -58 -21 -19 -21
-19 -1 -25 24 -8 34 -29 25 -52 -4 -12 -14 -15 -39 -11 -25 4 -34 2 -34 -8 0
-39 83 -22 102 21 10 22 9 31 -5 56 -13 23 -15 34 -6 44 6 8 8 25 5 39 -5 19
-13 25 -35 25 -16 0 -34 -7 -41 -15z"/>
<path d="M4828 3333 c-7 -16 -12 -54 -12 -86 0 -45 4 -62 21 -78 59 -60 123
73 78 161 -21 41 -70 43 -87 3z m60 -71 c2 -59 0 -73 -13 -78 -24 -10 -29 2
-30 64 0 65 9 96 28 90 8 -3 13 -30 15 -76z"/>
<path d="M5528 3313 c-70 -96 -73 -113 -18 -113 33 0 40 -3 40 -20 0 -11 7
-20 15 -20 13 0 20 13 13 24 -2 2 5 13 15 24 13 14 14 21 6 24 -7 2 -12 27
-13 63 -1 33 -6 60 -12 62 -7 2 -27 -18 -46 -44z m32 -48 c0 -33 -2 -35 -31
-35 -30 0 -31 1 -17 23 8 12 18 28 22 35 14 23 26 12 26 -23z"/>
<path d="M5646 3338 c-26 -36 -22 -130 7 -164 43 -50 87 -8 87 84 0 26 -6 58
-13 72 -17 34 -60 39 -81 8z m58 -14 c3 -9 6 -37 6 -64 0 -57 -7 -80 -25 -80
-24 0 -34 86 -15 134 11 29 25 34 34 10z"/>
<path d="M6353 3348 c-32 -50 -34 -62 -17 -75 10 -7 23 -13 29 -13 7 0 17 -12
24 -26 17 -38 -2 -58 -47 -49 -29 5 -33 4 -30 -12 2 -11 14 -19 30 -21 37 -4
78 36 78 78 0 32 -30 70 -55 70 -18 0 -20 20 -2 21 6 1 22 0 35 -1 16 -1 22 4
22 19 0 17 -6 21 -29 21 -17 0 -33 -6 -38 -12z"/>
<path d="M6493 3352 c-17 -11 -33 -58 -33 -97 0 -96 59 -138 101 -72 45 72 -9
207 -68 169z m41 -28 c12 -32 6 -131 -9 -144 -12 -10 -16 -8 -25 15 -13 33
-13 86 0 119 11 29 25 34 34 10z"/>
<path d="M7181 3322 c-50 -48 -63 -101 -34 -140 40 -54 103 -31 103 38 0 42
-14 60 -47 60 -13 0 -23 4 -23 8 0 12 44 52 58 52 7 0 12 5 12 10 0 21 -31 9
-69 -28z m32 -84 c13 -20 1 -68 -17 -68 -16 0 -26 21 -26 54 0 39 23 46 43 14z"/>
<path d="M7317 3348 c-9 -7 -23 -34 -30 -59 -13 -42 -13 -50 7 -90 44 -92 115
-43 104 71 -5 49 -29 90 -53 90 -6 0 -19 -6 -28 -12z m53 -90 c0 -48 -16 -88
-35 -88 -9 0 -14 4 -10 9 3 5 1 13 -5 16 -15 9 -9 96 8 123 l15 24 13 -24 c7
-12 13 -40 14 -60z"/>
<path d="M8135 3335 c-41 -40 -37 -167 5 -180 32 -10 55 3 73 40 25 52 22 98
-9 134 -31 37 -38 38 -69 6z m55 -40 c22 -66 -9 -150 -42 -117 -15 15 -12 120
3 138 18 22 26 17 39 -21z"/>
<path d="M7966 3327 c-7 -26 0 -35 16 -19 14 14 68 16 68 3 0 -5 -11 -39 -25
-75 -29 -76 -30 -86 -12 -86 7 0 25 37 41 88 16 48 31 92 33 99 3 8 -14 11
-55 12 -53 0 -61 -3 -66 -22z"/>
<path d="M1890 2563 c-18 -43 -36 -82 -41 -87 -16 -17 -10 -26 17 -26 19 0 25
4 20 15 -10 28 5 45 39 45 25 0 35 -5 40 -20 3 -11 3 -24 0 -30 -4 -6 8 -10
29 -10 38 0 44 6 23 24 -8 6 -27 46 -43 89 -16 42 -34 77 -40 77 -7 0 -27 -35
-44 -77z m49 -10 c11 -21 9 -23 -13 -23 -24 0 -25 2 -14 25 6 14 12 24 13 23
1 -2 8 -13 14 -25z"/>
<path d="M2676 2624 c-18 -18 -21 -34 -6 -34 6 0 10 5 10 11 0 6 12 9 28 7 44
-5 41 -45 -8 -100 -22 -25 -40 -49 -40 -52 0 -3 25 -6 55 -6 41 0 57 4 62 15
8 23 1 26 -35 16 -18 -5 -32 -7 -32 -4 0 3 14 22 30 43 31 40 39 87 18 108
-17 17 -64 15 -82 -4z"/>
<path d="M2824 2619 c-14 -16 -19 -36 -19 -79 0 -68 15 -90 60 -90 29 0 35 4
44 33 16 53 16 90 -2 125 -21 38 -54 43 -83 11z m56 -18 c0 -11 4 -22 9 -26 9
-5 9 -16 -5 -78 -8 -37 -35 -32 -46 8 -7 27 -2 88 9 108 9 15 33 6 33 -12z"/>
<path d="M2060 2465 c0 -9 5 -15 10 -13 12 4 11 16 -1 24 -5 3 -9 -2 -9 -11z"/>
<path d="M1843 1972 c23 -25 24 -144 1 -166 -17 -17 -20 -16 61 -21 70 -4 115
40 87 86 -6 9 -9 32 -6 51 8 46 -11 59 -93 65 -65 4 -67 3 -50 -15z m105 -37
c4 -19 -13 -35 -40 -35 -13 0 -18 8 -18 28 0 16 3 31 6 35 11 10 49 -10 52
-28z m10 -87 c3 -22 -2 -30 -23 -38 -35 -13 -45 -6 -45 36 0 34 1 35 33 32 27
-2 33 -8 35 -30z"/>
<path d="M2679 1971 c-27 -21 -21 -38 8 -23 41 21 59 -15 21 -42 l-22 -16 22
-16 c25 -17 30 -59 8 -67 -8 -3 -24 -3 -35 0 -15 4 -21 1 -21 -11 0 -21 48
-21 78 0 16 11 22 25 22 54 0 21 -5 42 -10 45 -7 4 -6 13 1 26 11 21 4 59 -11
59 -5 0 -15 2 -23 5 -7 3 -25 -3 -38 -14z"/>
<path d="M2822 1955 c-17 -37 -15 -55 6 -55 39 0 70 -68 40 -87 -7 -4 -25 -6
-40 -4 -20 2 -28 -2 -28 -13 0 -23 56 -20 80 4 38 38 18 130 -28 130 -27 0
-10 19 20 22 48 5 48 28 0 28 -32 0 -41 -4 -50 -25z"/>
<path d="M2034 1809 c-10 -17 13 -36 27 -22 12 12 4 33 -11 33 -5 0 -12 -5
-16 -11z"/>
<path d="M1864 1307 c-20 -18 -28 -35 -31 -73 -5 -43 -2 -54 22 -82 35 -42 89
-45 125 -7 29 31 18 46 -13 17 -27 -26 -45 -27 -73 -7 -41 28 -36 137 7 150
31 10 67 -2 74 -25 8 -26 25 -26 25 -1 0 52 -87 70 -136 28z"/>
<path d="M2700 1293 c-37 -56 -59 -96 -60 -110 0 -8 14 -13 40 -13 36 0 40 -2
40 -26 0 -30 23 -28 29 2 2 10 8 23 15 27 8 6 8 10 -1 14 -9 3 -13 28 -13 74
0 81 -12 88 -50 32z m20 -58 c0 -41 -2 -45 -25 -45 -14 0 -25 3 -25 6 0 8 43
84 47 84 2 0 3 -20 3 -45z"/>
<path d="M2813 1297 c-42 -62 -21 -177 32 -177 52 0 82 105 48 170 -24 47 -52
49 -80 7z m50 -4 c14 -50 15 -71 7 -106 -11 -50 -18 -56 -37 -32 -11 15 -13
34 -8 80 4 32 9 63 11 67 9 14 22 9 27 -9z"/>
<path d="M2027 1153 c-4 -3 -7 -12 -7 -20 0 -17 26 -17 33 1 8 21 -11 35 -26
19z"/>
<path d="M1820 651 c0 -6 5 -11 10 -11 6 0 10 -33 10 -80 0 -66 -3 -80 -16
-80 -8 0 -12 -4 -9 -10 8 -13 94 -13 134 1 59 21 80 106 38 155 -20 23 -33 27
-95 32 -50 3 -72 1 -72 -7z m136 -38 c7 -10 14 -34 14 -54 0 -42 -24 -69 -66
-72 -28 -2 -29 0 -32 48 -2 27 -1 64 3 82 5 30 7 31 36 23 17 -5 37 -17 45
-27z"/>
<path d="M2676 594 c-26 -36 -44 -70 -41 -75 4 -5 22 -9 41 -9 30 0 34 -3 34
-25 0 -16 6 -25 15 -25 9 0 15 9 15 21 0 12 8 28 18 35 16 13 16 13 0 14 -15
0 -18 10 -18 65 0 36 -4 65 -9 65 -5 0 -30 -30 -55 -66z m34 -29 c0 -33 -2
-35 -32 -34 -18 0 -27 3 -20 6 7 3 19 18 27 34 20 38 25 37 25 -6z"/>
<path d="M2812 625 c-17 -37 -15 -55 7 -55 28 0 52 -37 41 -64 -6 -16 -15 -20
-39 -18 -22 1 -31 -2 -31 -13 0 -22 56 -19 80 5 12 12 20 33 20 55 0 29 -6 39
-30 53 -38 22 -38 32 0 32 20 0 30 5 30 15 0 10 -10 15 -33 15 -26 0 -36 -6
-45 -25z"/>
<path d="M2044 487 c-8 -21 2 -35 16 -21 5 5 6 15 0 24 -8 12 -10 12 -16 -3z"/>
</g>
</svg>
