<?xml version="1.0" standalone="no"?>
<!DOCTYPE svg PUBLIC "-//W3C//DTD SVG 20010904//EN"
 "http://www.w3.org/TR/2001/REC-SVG-20010904/DTD/svg10.dtd">
<svg version="1.0" xmlns="http://www.w3.org/2000/svg"
 width="1404.000000pt" height="552.000000pt" viewBox="0 0 1404.000000 552.000000"
 preserveAspectRatio="xMidYMid meet">
<metadata>
Created by potrace 1.16, written by Peter Selinger 2001-2019
</metadata>
<g transform="translate(0.000000,552.000000) scale(0.100000,-0.100000)"
fill="#000000" stroke="none">
<path d="M1550 5161 c0 -27 -4 -31 -27 -32 -16 -1 -36 -1 -45 0 -15 2 -18 -7
-18 -58 l0 -61 45 7 45 6 0 -52 c0 -66 23 -66 30 0 5 43 6 44 42 45 21 0 40 3
43 5 2 3 6 29 8 58 4 51 4 52 -22 50 -62 -5 -72 -1 -69 28 2 19 -2 28 -14 31
-14 3 -18 -3 -18 -27z m0 -91 c0 -39 -1 -40 -35 -40 -34 0 -35 1 -35 40 0 39
1 40 35 40 34 0 35 -1 35 -40z m110 0 l0 -40 -40 0 -40 0 0 40 0 40 40 0 40 0
0 -40z"/>
<path d="M2599 5163 c0 -27 -1 -27 -9 -5 -5 12 -16 22 -25 22 -13 0 -14 -4 -5
-20 9 -17 8 -20 -10 -20 -11 0 -20 -4 -20 -10 0 -5 14 -10 30 -10 22 0 30 -5
30 -18 0 -24 -36 -91 -67 -123 -18 -20 -21 -29 -12 -35 8 -5 25 7 49 34 46 54
85 58 96 10 8 -37 38 -68 65 -68 13 0 22 14 34 52 19 65 19 65 -5 71 -17 4
-20 10 -14 32 6 25 5 27 -15 20 -19 -6 -22 -3 -19 21 3 27 2 28 -40 25 -38 -2
-42 -1 -40 20 2 12 -3 24 -9 26 -9 3 -13 -5 -14 -24z m79 -55 c-5 -15 -68 -24
-68 -10 0 15 13 22 43 22 18 0 27 -4 25 -12z m32 -48 c0 -18 -7 -20 -55 -20
-39 0 -55 4 -55 13 0 22 11 27 62 27 41 0 48 -3 48 -20z m30 -62 c0 -20 -1
-21 -20 -3 -28 25 -37 12 -10 -15 11 -11 18 -25 15 -30 -15 -24 -41 -4 -50 38
-6 31 -6 32 29 32 30 0 36 -3 36 -22z"/>
<path d="M1140 5097 c0 -46 -3 -104 -6 -128 l-6 -44 121 0 121 0 0 112 c0 61
2 118 5 125 5 11 -17 15 -115 17 l-120 2 0 -84z m60 33 c0 -23 4 -30 20 -30
11 0 20 -4 20 -10 0 -5 7 -10 15 -10 8 0 15 4 15 9 0 5 10 11 23 13 18 2 21 8
19 31 -3 23 0 27 22 27 l26 0 0 -105 0 -105 -82 2 -83 2 68 3 67 4 0 49 0 50
-64 0 c-48 0 -65 4 -70 15 -3 8 -12 15 -21 15 -11 0 -15 10 -15 35 0 28 4 35
20 35 16 0 20 -7 20 -30z m83 23 c-13 -2 -33 -2 -45 0 -13 2 -3 4 22 4 25 0
35 -2 23 -4z m7 -27 c0 -9 -50 -12 -62 -5 -8 6 1 9 25 9 20 0 37 -2 37 -4z
m-104 -62 c-3 -9 -6 -38 -6 -65 0 -27 -4 -49 -10 -49 -6 0 -10 28 -10 65 0 53
3 65 16 65 11 0 14 -5 10 -16z m84 -39 c0 -15 -6 -25 -14 -25 -8 0 -13 10 -13
25 0 15 5 25 13 25 8 0 14 -10 14 -25z m40 -9 c0 -3 -4 -8 -10 -11 -5 -3 -10
-1 -10 4 0 6 5 11 10 11 6 0 10 -2 10 -4z m-43 -32 c-3 -3 -12 -4 -19 -1 -8 3
-5 6 6 6 11 1 17 -2 13 -5z"/>
<path d="M1318 5083 c7 -3 16 -2 19 1 4 3 -2 6 -13 5 -11 0 -14 -3 -6 -6z"/>
<path d="M3560 5065 l0 -115 -50 0 c-27 0 -50 -4 -50 -10 0 -6 52 -10 135 -10
113 0 133 2 129 14 -4 12 -20 13 -75 9 l-70 -6 3 59 3 59 58 3 c40 2 57 7 54
15 -2 7 -15 11 -28 9 -80 -9 -84 -8 -87 22 -2 16 1 33 7 39 17 17 13 27 -9 27
-19 0 -20 -7 -20 -115z"/>
<path d="M3818 5158 c-2 -13 -10 -23 -18 -23 -12 0 -16 -18 -18 -89 -3 -104 1
-124 23 -106 9 8 28 10 50 6 l35 -7 0 48 c0 31 8 63 22 91 22 39 26 42 65 42
l43 0 -1 -62 c-1 -93 -10 -114 -42 -110 -15 1 -27 -2 -27 -8 0 -5 7 -10 15
-10 8 0 15 -4 15 -10 0 -14 13 -13 33 3 12 9 19 38 26 105 6 51 8 99 5 105 -3
8 -22 11 -54 9 -32 -3 -50 0 -50 7 0 6 5 11 12 11 9 0 9 3 1 11 -16 16 -30 4
-38 -31 -8 -36 -25 -50 -25 -20 0 17 -4 19 -25 14 -25 -6 -35 8 -15 21 17 10
11 25 -9 25 -13 0 -21 -8 -23 -22z m42 -78 c0 -25 -4 -30 -25 -30 -21 0 -25 5
-25 30 0 25 4 30 25 30 21 0 25 -5 25 -30z m-2 -78 c3 -28 0 -32 -22 -32 -23
0 -26 4 -26 33 0 29 3 33 23 32 17 -1 23 -9 25 -33z"/>
<path d="M4610 5104 c0 -74 0 -75 -22 -68 -13 5 -36 9 -53 10 -34 1 -37 16 -4
24 17 4 22 14 24 53 l4 47 -65 0 -64 0 0 -50 c0 -47 2 -50 25 -50 16 0 25 -6
25 -15 0 -9 -10 -15 -26 -15 -14 0 -23 -4 -19 -10 3 -5 15 -10 26 -10 10 0 19
-5 19 -11 0 -7 -12 -10 -30 -7 -32 5 -37 -1 -19 -19 8 -8 8 -17 0 -31 -14 -27
-14 -35 2 -30 6 3 15 18 18 34 l6 29 8 -32 c9 -39 29 -33 21 6 l-5 26 12 -27
c12 -30 27 -37 27 -13 0 18 16 20 24 3 3 -7 5 -4 3 7 -1 11 -10 20 -19 20 -9
0 -20 4 -24 8 -4 4 9 7 29 7 36 0 37 -1 37 -40 0 -22 5 -40 10 -40 6 0 10 5
10 10 0 6 21 10 48 10 l47 0 -1 53 c0 50 -1 52 -27 49 -25 -3 -27 0 -27 33 0
32 2 35 31 35 20 0 29 4 26 13 -2 6 -16 11 -31 9 -26 -3 -27 -1 -21 27 5 24 3
31 -9 31 -13 0 -16 -13 -16 -76z m-130 29 c0 -10 -4 -14 -8 -8 -4 6 -11 13
-16 18 -5 4 -2 7 7 7 10 0 17 -8 17 -17z m35 7 c3 -5 1 -10 -4 -10 -6 0 -11 5
-11 10 0 6 2 10 4 10 3 0 8 -4 11 -10z m-58 -42 c-3 -8 -6 -5 -6 6 -1 11 2 17
5 13 3 -3 4 -12 1 -19z m83 4 c0 -13 -12 -22 -22 -16 -10 6 -1 24 13 24 5 0 9
-4 9 -8z m30 -83 c0 -5 -9 -9 -19 -9 -11 0 -26 -3 -35 -6 -9 -3 -16 -1 -16 4
0 6 8 12 18 14 35 7 52 7 52 -3z m90 -39 c0 -28 -3 -30 -35 -30 -32 0 -35 2
-35 30 0 28 3 30 35 30 32 0 35 -2 35 -30z"/>
<path d="M5640 5155 l0 -27 -19 23 c-11 13 -23 21 -27 17 -4 -4 -1 -14 6 -23
10 -13 9 -15 -9 -15 -11 0 -21 -4 -21 -10 0 -5 14 -10 30 -10 17 0 30 -4 30
-9 0 -22 -33 -98 -55 -127 -28 -37 -30 -44 -12 -44 7 0 23 18 36 40 22 39 23
40 79 40 55 0 58 -1 69 -31 8 -20 16 -28 24 -23 8 4 9 3 5 -4 -10 -16 -59 -16
-53 1 5 15 -10 47 -23 47 -15 0 -12 -36 5 -50 8 -7 13 -16 10 -20 -8 -12 57
-21 70 -10 7 6 16 27 20 46 3 20 9 42 12 50 4 10 -3 14 -22 14 -24 0 -26 3
-21 25 5 18 2 27 -9 31 -8 4 -15 11 -14 18 4 30 -2 33 -47 28 -43 -5 -46 -4
-42 18 1 13 -3 25 -9 27 -8 3 -13 -5 -13 -22z m78 -52 c2 -9 -8 -13 -32 -13
-34 0 -44 8 -29 24 11 11 56 2 61 -11z m31 -48 c12 -13 -18 -25 -60 -25 -36 0
-49 4 -49 14 0 8 8 17 18 19 16 5 83 -1 91 -8z m41 -52 c0 -5 -4 -13 -8 -20
-6 -9 -11 -7 -20 7 -11 17 -10 20 8 20 11 0 20 -3 20 -7z"/>
<path d="M6996 5173 c-3 -4 -6 -13 -6 -22 -1 -9 -7 -29 -15 -46 l-14 -30 6 29
c6 28 5 28 -28 21 -33 -7 -34 -7 -16 12 22 25 22 33 -3 33 -14 0 -20 -7 -20
-21 0 -12 -8 -23 -20 -26 -14 -4 -20 -14 -21 -37 0 -17 -1 -57 -2 -89 -2 -53
11 -89 21 -59 4 14 62 16 62 2 0 -5 5 -10 10 -10 6 0 10 28 10 65 0 38 4 65
10 65 6 0 16 11 22 25 9 20 18 25 50 25 l38 0 0 -62 c0 -91 -7 -108 -41 -108
-38 0 -37 -17 1 -25 50 -11 54 -3 64 143 l5 72 -50 0 c-27 0 -49 5 -49 10 0 6
5 10 10 10 6 0 10 4 10 9 0 11 -26 22 -34 14z m-60 -109 c-8 -21 -50 -14 -54
9 -5 23 39 41 51 20 5 -8 6 -21 3 -29z m-15 -34 c11 -6 19 -21 19 -36 0 -22
-4 -25 -27 -22 -28 3 -40 25 -29 54 6 17 11 17 37 4z"/>
<path d="M4795 5162 c-3 -3 -5 -54 -5 -114 l0 -108 -25 0 c-14 0 -25 -4 -25
-10 0 -6 50 -10 131 -10 100 0 130 3 126 13 -2 7 -16 11 -32 9 l-27 -3 3 113
4 113 -72 1 c-40 1 -75 -1 -78 -4z m125 -39 c0 -21 -5 -23 -45 -23 -25 0 -48
-1 -52 -2 -5 -2 -9 9 -11 23 -3 25 -2 26 52 25 51 0 56 -2 56 -23z m0 -78 c0
-32 -2 -35 -29 -35 -40 0 -81 17 -81 33 0 24 23 37 67 37 42 0 43 0 43 -35z
m-2 -77 c3 -28 2 -28 -52 -28 -52 0 -56 2 -56 23 0 33 6 36 59 34 42 -2 46 -4
49 -29z"/>
<path d="M6650 5055 l0 -115 -60 0 c-33 0 -60 -4 -60 -10 0 -6 52 -10 135 -10
112 0 135 3 135 15 0 12 -12 13 -65 8 l-65 -6 0 62 c0 53 3 62 18 60 50 -5 82
2 82 17 0 11 -5 14 -17 9 -10 -4 -33 -9 -52 -12 l-34 -4 5 51 c4 38 2 50 -8
50 -11 0 -14 -25 -14 -115z"/>
<path d="M7490 5113 c0 -50 2 -53 25 -53 16 0 25 -6 25 -16 0 -12 -6 -15 -26
-10 -19 5 -25 3 -22 -6 3 -7 14 -14 26 -16 12 -2 22 -7 22 -12 0 -5 -13 -7
-30 -3 -19 3 -30 1 -30 -6 0 -7 25 -11 70 -11 66 0 70 -1 69 -22 -1 -17 -2
-19 -6 -5 -3 11 -14 17 -33 17 -23 0 -27 -3 -23 -20 8 -28 23 -35 23 -11 l0
21 20 -20 c11 -11 20 -24 20 -30 0 -5 5 -10 10 -10 6 0 10 5 10 10 0 6 21 10
48 10 l47 0 1 55 c0 51 -2 54 -25 57 -20 2 -27 9 -29 31 -3 24 0 27 28 27 21
0 30 4 27 13 -2 7 -16 11 -32 9 -26 -4 -28 -2 -22 27 5 23 3 31 -8 31 -12 0
-15 -16 -15 -75 l0 -75 -26 10 c-14 6 -36 10 -50 10 -19 0 -24 5 -24 24 0 13
7 29 15 36 13 10 15 9 15 -8 0 -12 5 -24 10 -27 6 -4 10 7 10 27 0 18 3 42 6
53 5 19 0 20 -60 20 l-66 0 0 -52z m50 17 c0 -5 -4 -10 -10 -10 -5 0 -10 5
-10 10 0 6 5 10 10 10 6 0 10 -4 10 -10z m-7 -52 c-9 -15 -23 -8 -23 12 0 17
2 19 14 8 8 -7 12 -16 9 -20z m87 -68 c0 -5 -14 -10 -31 -10 -17 0 -28 4 -24
10 3 6 17 10 31 10 13 0 24 -4 24 -10z m80 -10 c11 0 15 -9 15 -27 -1 -25 -6
-28 -38 -31 -36 -3 -37 -3 -37 34 0 33 2 36 23 30 12 -3 29 -6 37 -6z"/>
<path d="M8290 5154 c0 -12 -7 -15 -30 -12 -20 3 -30 0 -30 -9 0 -8 13 -13 35
-13 24 0 35 -5 35 -15 0 -8 4 -15 9 -15 5 0 11 7 15 15 3 8 13 15 22 15 8 0
14 6 11 13 -2 6 -11 11 -21 9 -9 -2 -16 4 -16 13 0 8 -7 15 -15 15 -8 0 -15
-7 -15 -16z"/>
<path d="M8400 5155 c0 -8 -7 -15 -15 -15 -8 0 -15 -4 -15 -10 0 -5 7 -10 15
-10 9 0 12 -6 9 -15 -8 -19 12 -20 23 -1 4 8 24 16 43 18 19 2 33 8 30 13 -3
6 -20 9 -37 7 -26 -2 -31 0 -27 13 4 10 0 15 -10 15 -9 0 -16 -7 -16 -15z"/>
<path d="M382 5151 c-11 -7 -11 -9 2 -14 13 -5 16 -22 16 -76 0 -38 -4 -73
-10 -76 -21 -13 -8 -25 27 -25 29 0 34 3 25 12 -8 8 -12 45 -12 100 0 77 -2
88 -17 88 -10 0 -24 -4 -31 -9z"/>
<path d="M521 5129 c-15 -43 -15 -44 14 -57 59 -27 53 -100 -7 -87 -21 5 -28
3 -28 -8 0 -33 51 -27 87 9 24 23 15 74 -17 104 -16 15 -30 31 -30 34 0 3 14
6 30 6 20 0 30 5 30 15 0 10 -10 15 -34 15 -29 0 -36 -4 -45 -31z"/>
<path d="M2210 5151 c0 -5 5 -11 11 -13 17 -6 -19 -123 -46 -152 l-22 -24 23
-5 c26 -5 57 11 37 20 -10 3 -10 11 1 36 15 36 16 41 16 62 0 34 19 11 41 -50
12 -36 26 -65 29 -65 4 0 19 41 34 90 15 50 31 90 36 90 6 0 10 5 10 10 0 6
-14 10 -32 10 -23 0 -29 -3 -21 -11 7 -7 6 -28 -5 -72 -13 -52 -17 -58 -23
-37 -19 68 -49 120 -69 120 -11 0 -20 -4 -20 -9z"/>
<path d="M2997 5061 c-41 -55 -72 -102 -69 -105 14 -15 33 -3 46 29 10 24 22
35 35 35 24 0 29 -28 9 -48 -9 -9 -4 -12 26 -12 32 0 36 2 27 14 -9 10 -9 37
-3 98 5 45 8 84 7 86 -2 2 -37 -42 -78 -97z m34 -8 c-8 -15 -10 -15 -11 -2 0
17 10 32 18 25 2 -3 -1 -13 -7 -23z"/>
<path d="M3185 5149 c-61 -31 -84 -142 -36 -180 30 -24 79 -24 111 1 33 25 20
36 -20 15 -26 -13 -38 -15 -56 -6 -45 20 -25 134 28 157 33 15 57 6 64 -22 8
-31 20 -23 26 16 l5 30 -51 -1 c-28 0 -60 -5 -71 -10z"/>
<path d="M5215 5139 c7 -20 -22 -137 -41 -166 l-14 -23 74 0 c73 0 74 0 85 30
12 35 2 39 -24 10 -10 -11 -31 -20 -48 -20 -28 0 -29 2 -23 31 3 17 6 35 6 40
0 5 9 9 20 9 14 0 20 -7 20 -22 0 -31 16 -10 24 31 6 33 5 33 -12 18 -36 -33
-50 -20 -32 27 7 20 16 26 40 26 20 0 30 -5 30 -16 0 -8 5 -12 10 -9 6 3 10
15 10 25 0 16 -10 19 -65 22 -56 3 -64 1 -60 -13z"/>
<path d="M12508 5153 l-48 -4 0 -94 c0 -56 4 -95 10 -97 6 -2 2 -13 -10 -25
-22 -24 -26 -43 -9 -43 5 0 7 5 4 10 -3 6 0 10 8 10 8 0 23 12 32 27 l18 26
28 -34 c31 -38 51 -34 25 6 -9 14 -12 25 -6 25 6 0 10 38 10 100 0 55 -3 99
-7 98 -5 -1 -29 -3 -55 -5z m40 -44 c2 -12 -5 -14 -33 -11 -22 3 -35 10 -35
19 0 20 64 13 68 -8z m2 -54 c0 -22 -4 -25 -35 -25 -31 0 -35 3 -35 25 0 22 4
25 35 25 31 0 35 -3 35 -25z m-2 -52 c2 -9 -8 -13 -32 -13 -20 0 -36 4 -36 9
0 22 60 25 68 4z"/>
<path d="M12669 5153 c-1 -5 -2 -57 -3 -118 l-1 -110 -27 2 c-16 1 -28 -2 -28
-6 0 -12 52 -33 61 -24 10 11 16 263 7 263 -5 0 -9 -3 -9 -7z"/>
<path d="M6037 5131 c6 -25 -34 -158 -50 -164 -24 -8 0 -16 55 -18 97 -3 161
59 143 141 -9 42 -40 60 -101 60 -46 0 -52 -2 -47 -19z m101 -13 c26 -26 10
-107 -27 -135 -20 -15 -71 -17 -71 -2 0 6 9 42 21 80 18 58 24 69 43 69 12 0
27 -5 34 -12z"/>
<path d="M6230 5135 c10 -12 9 -29 -5 -85 -10 -39 -24 -77 -32 -85 -13 -13
-11 -15 15 -15 25 0 29 3 25 23 -5 28 19 109 32 108 6 0 21 -30 34 -66 25 -68
34 -74 45 -28 18 77 41 139 54 151 13 10 11 12 -17 12 -19 0 -30 -4 -26 -10 4
-6 1 -35 -6 -65 l-12 -55 -17 28 c-9 15 -22 44 -29 65 -11 32 -17 37 -43 37
-26 0 -29 -2 -18 -15z"/>
<path d="M10214 5139 c-7 -12 22 -23 36 -14 13 8 13 -68 -1 -118 -5 -21 -24
-53 -41 -73 -17 -19 -28 -38 -24 -41 11 -11 65 49 77 86 12 39 29 63 29 42 0
-7 9 -26 21 -42 l21 -30 -51 -21 c-28 -12 -51 -26 -51 -30 0 -14 23 -8 70 15
44 23 45 23 82 5 39 -19 78 -24 78 -9 0 4 -20 16 -45 25 -46 18 -54 29 -32 43
16 10 48 79 40 87 -4 3 -15 6 -25 6 -20 0 -26 34 -8 45 8 5 7 11 0 20 -13 16
-166 19 -176 4z m140 -36 c-8 -33 -17 -40 -47 -38 -17 1 -23 9 -25 33 -3 31
-2 32 38 32 39 0 40 -1 34 -27z m36 -71 c0 -12 -30 -52 -40 -52 -5 0 -18 14
-30 30 l-21 30 45 0 c25 0 46 -3 46 -8z"/>
<path d="M8776 5116 c7 -30 -33 -166 -49 -166 -7 0 -4 -6 7 -11 24 -14 99 -4
137 18 52 31 66 117 24 158 -19 20 -34 25 -75 25 -48 0 -50 -1 -44 -24z m105
-33 c21 -38 15 -66 -22 -99 -26 -24 -79 -40 -79 -25 0 15 31 144 37 154 11 18
47 1 64 -30z"/>
<path d="M8973 5126 c17 -13 17 -18 4 -58 -8 -23 -18 -58 -22 -76 -4 -18 -13
-36 -21 -39 -25 -9 -15 -23 17 -23 24 0 30 4 25 16 -3 8 2 42 11 75 l16 59 24
-75 c25 -80 37 -92 46 -47 13 64 45 156 55 160 24 8 11 22 -19 22 -25 0 -29
-3 -24 -19 7 -24 -14 -113 -26 -106 -4 3 -16 33 -25 65 -16 57 -18 60 -48 60
-28 -1 -30 -2 -13 -14z"/>
<path d="M9496 5109 c-47 -40 -60 -89 -39 -135 18 -37 41 -49 76 -38 29 9 37
22 37 65 0 41 -14 59 -48 59 -31 0 -24 19 16 46 30 21 32 34 6 34 -7 0 -29
-14 -48 -31z m32 -81 c15 -15 16 -64 1 -73 -15 -10 -49 25 -49 51 0 19 10 30
31 33 3 1 10 -4 17 -11z"/>
<path d="M10728 5121 c10 -6 9 -23 -8 -87 -12 -43 -26 -84 -32 -91 -8 -10 5
-13 65 -13 72 0 75 1 81 26 9 35 2 40 -23 15 -17 -17 -81 -31 -81 -17 0 1 5
17 11 35 11 32 39 43 39 16 0 -8 4 -15 9 -15 12 0 21 63 10 75 -6 5 -9 2 -9
-8 0 -9 -7 -17 -15 -17 -16 0 -18 12 -9 48 8 26 39 29 66 5 10 -9 18 -11 18
-5 0 6 3 17 6 26 5 14 -4 16 -67 16 -43 0 -69 -4 -61 -9z"/>
<path d="M10896 5106 c6 -27 -31 -156 -49 -168 -7 -5 2 -8 21 -8 22 0 31 4 26
11 -9 16 17 120 29 116 6 -2 20 -30 32 -62 22 -58 45 -83 45 -50 0 33 43 160
58 173 14 10 11 12 -17 12 -18 0 -30 -4 -27 -9 3 -4 0 -33 -6 -64 -9 -44 -15
-54 -25 -45 -7 6 -13 15 -13 21 0 6 -9 30 -21 54 -14 29 -27 43 -40 43 -15 0
-18 -5 -13 -24z"/>
<path d="M11395 5093 c-8 -20 -14 -37 -13 -37 2 -1 17 -9 33 -18 54 -30 41
-95 -17 -83 -21 5 -28 3 -28 -8 0 -38 80 -23 98 18 17 37 5 78 -29 97 -38 22
-37 36 3 40 45 4 49 28 4 28 -32 0 -37 -4 -51 -37z"/>
<path d="M12607 5123 c-11 -11 -8 -173 3 -173 6 0 10 31 10 74 0 41 3 81 6 90
6 16 -7 22 -19 9z"/>
<path d="M12942 5042 c-23 -48 -42 -93 -42 -99 0 -10 24 -13 85 -13 47 0 85 4
85 9 0 15 -55 146 -71 168 -14 20 -17 17 -57 -65z m68 -38 c11 -26 20 -48 20
-50 0 -2 -25 -4 -55 -4 l-55 0 25 50 c14 28 30 50 35 50 5 0 18 -21 30 -46z"/>
<path d="M13243 5107 c-11 -12 -42 -51 -69 -87 -26 -36 -55 -70 -64 -77 -13
-10 -10 -12 19 -13 24 0 32 4 28 14 -7 17 23 46 46 46 20 0 23 -30 5 -48 -9
-9 -4 -12 25 -12 34 0 37 2 27 19 -6 13 -7 47 -1 98 4 43 7 79 6 80 -1 2 -11
-7 -22 -20z m-16 -82 c-4 -8 -11 -15 -17 -15 -7 0 -7 6 0 21 13 23 26 19 17
-6z"/>
<path d="M13354 5115 c7 -18 -27 -150 -44 -170 -11 -13 -4 -15 48 -15 78 0 97
16 88 76 -4 32 -2 43 9 48 18 7 20 47 3 64 -7 7 -34 12 -61 12 -39 0 -48 -3
-43 -15z m80 -21 c7 -19 -20 -54 -42 -54 -10 0 -13 7 -8 23 3 12 6 28 6 35 0
18 37 15 44 -4z m-16 -97 c5 -25 -16 -47 -44 -47 -28 0 -27 -2 -13 39 9 24 16
31 33 29 11 -2 22 -11 24 -21z"/>
<path d="M13519 5091 c-34 -33 -39 -45 -39 -83 0 -56 24 -81 78 -81 40 0 82
17 82 33 0 13 -17 13 -25 0 -3 -5 -24 -10 -45 -10 -40 0 -60 18 -60 55 0 36
34 87 68 103 32 16 35 16 48 -2 7 -10 15 -24 17 -30 6 -15 13 -6 21 27 l6 27
-56 0 c-52 0 -59 -3 -95 -39z"/>
<path d="M8333 5093 c-7 -2 -13 -11 -13 -19 0 -9 -9 -13 -32 -10 -18 2 -38 2
-45 -1 -26 -10 -12 -22 30 -25 l42 -3 -42 -44 c-24 -24 -43 -45 -43 -47 0 -10
25 -2 42 13 17 15 18 15 18 -5 0 -44 6 -47 94 -44 l83 3 1 45 1 44 -74 0 c-41
0 -75 4 -75 9 0 23 33 33 102 29 61 -2 73 0 76 14 4 23 -19 34 -30 14 -6 -11
-23 -16 -58 -16 -47 0 -50 2 -50 25 0 25 -4 28 -27 18z m107 -138 c0 -25 -2
-26 -57 -23 -51 3 -58 6 -61 26 -3 21 0 22 57 22 59 0 61 -1 61 -25z"/>
<path d="M1857 5083 c-7 -14 -1 -58 9 -63 5 -3 10 12 12 33 3 33 -10 50 -21
30z"/>
<path d="M9673 5069 c-61 -23 -52 -139 11 -139 24 0 56 28 56 48 0 16 -8 15
-26 -3 -21 -20 -31 -19 -44 6 -13 24 -4 79 13 79 7 0 18 -10 25 -21 15 -24 37
-13 27 13 -8 20 -34 27 -62 17z"/>
<path d="M11584 5067 c-10 -6 -22 -15 -26 -21 -12 -18 -8 -80 6 -98 26 -35 96
-13 96 29 0 14 -2 14 -18 0 -36 -33 -62 -16 -62 38 0 31 17 41 38 21 23 -20
52 -5 34 17 -17 21 -46 26 -68 14z"/>
<path d="M11815 5070 c-4 -6 -23 -7 -44 -4 -25 4 -41 2 -46 -6 -6 -9 -9 -9
-15 -1 -3 7 -13 9 -21 6 -10 -4 -13 -19 -11 -55 3 -30 -1 -57 -8 -65 -11 -13
-7 -15 26 -15 30 0 35 3 26 12 -25 25 -10 108 21 108 5 0 7 -27 5 -60 -3 -59
-3 -60 23 -60 26 0 26 1 16 40 -9 33 -8 43 5 56 26 26 48 10 48 -34 0 -21 -5
-43 -12 -50 -9 -9 -5 -12 18 -12 29 0 29 1 26 43 -1 23 -5 52 -8 64 -5 26 -39
49 -49 33z"/>
<path d="M3930 5064 c0 -7 50 -67 51 -62 7 29 4 41 -14 53 -22 16 -37 19 -37
9z"/>
<path d="M4215 5060 c-147 -7 -139 -12 20 -11 147 0 135 -1 135 11 0 6 -8 9
-17 8 -10 -1 -72 -5 -138 -8z"/>
<path d="M7394 5059 c-4 -7 -42 -10 -112 -8 -77 3 -106 1 -109 -8 -4 -10 25
-12 116 -11 121 1 149 7 137 27 -9 14 -23 14 -32 0z"/>
<path d="M9765 5016 c1 -33 -3 -57 -13 -68 -14 -17 -12 -18 21 -18 20 0 39 5
42 10 3 6 0 10 -7 10 -10 0 -14 13 -14 40 1 48 18 69 41 50 17 -14 21 -90 5
-90 -5 0 -10 -4 -10 -10 0 -6 31 -10 72 -10 56 0 69 3 60 12 -7 7 -12 33 -12
59 0 26 -6 51 -12 57 -7 5 -49 10 -94 10 l-80 0 1 -52z m155 -26 c0 -41 -6
-51 -26 -43 -14 5 -20 83 -7 96 13 14 33 -17 33 -53z"/>
<path d="M12137 5063 c-9 -14 -2 -78 8 -77 6 0 14 13 19 27 8 21 6 31 -6 43
-9 9 -18 12 -21 7z"/>
<path d="M7018 5025 c9 -19 22 -35 29 -35 18 0 16 13 -8 44 -29 37 -39 32 -21
-9z"/>
<path d="M9223 5038 c6 -19 147 -21 147 -2 0 11 -17 14 -76 14 -56 0 -75 -3
-71 -12z"/>
<path d="M11145 5030 c3 -5 37 -10 75 -10 38 0 72 5 75 10 4 6 -23 10 -75 10
-52 0 -79 -4 -75 -10z"/>
<path d="M2568 4971 c-15 -27 -14 -41 2 -41 8 0 30 45 30 60 0 19 -15 9 -32
-19z"/>
<path d="M2618 4970 c2 -16 9 -30 14 -30 13 0 6 53 -8 57 -7 2 -9 -8 -6 -27z"/>
<path d="M9230 4985 c0 -12 14 -15 71 -15 52 0 70 3 67 13 -3 7 -29 13 -71 15
-55 2 -67 0 -67 -13z"/>
<path d="M642 4973 c2 -10 10 -18 18 -18 8 0 16 8 18 18 2 12 -3 17 -18 17
-15 0 -20 -5 -18 -17z"/>
<path d="M5607 4965 c-20 -28 -14 -53 8 -35 13 11 27 60 16 60 -3 0 -14 -12
-24 -25z"/>
<path d="M5650 4965 c0 -14 5 -25 10 -25 6 0 10 11 10 25 0 14 -4 25 -10 25
-5 0 -10 -11 -10 -25z"/>
<path d="M11140 4980 c0 -6 31 -10 74 -10 41 0 78 5 81 10 4 6 -23 10 -74 10
-47 0 -81 -4 -81 -10z"/>
<path d="M7492 4945 c-14 -31 -15 -35 -4 -35 8 0 32 43 32 55 0 15 -19 1 -28
-20z"/>
<path d="M7530 4940 c0 -18 4 -29 10 -25 6 3 10 15 10 25 0 10 -4 22 -10 25
-6 4 -10 -7 -10 -25z"/>
<path d="M1204 4735 c-3 -14 -13 -25 -23 -25 -14 0 -16 -13 -17 -90 -1 -84 6
-115 21 -90 3 5 17 10 30 10 13 0 27 -5 30 -10 13 -21 25 3 25 50 0 33 7 60
23 84 19 30 28 35 60 36 l37 0 0 -62 c0 -88 -7 -108 -37 -108 -31 0 -26 -24 6
-28 35 -5 43 10 51 100 5 46 10 90 12 98 2 11 -9 16 -47 20 -41 4 -49 8 -47
23 2 9 -3 17 -11 17 -9 0 -20 -19 -27 -47 -11 -43 -14 -45 -19 -23 -5 19 -13
24 -30 22 -20 -3 -21 -1 -12 17 14 26 14 31 -4 31 -8 0 -17 -11 -21 -25z m38
-51 c14 -13 -6 -44 -28 -44 -19 0 -24 5 -24 25 0 20 5 25 23 25 13 0 26 -3 29
-6z m-2 -94 c0 -25 -4 -30 -25 -30 -21 0 -25 5 -25 30 0 25 4 30 25 30 21 0
25 -5 25 -30z"/>
<path d="M1810 4742 c-26 -11 -30 -17 -17 -19 24 -6 22 -33 -3 -33 -11 0 -20
-4 -20 -10 0 -5 9 -10 20 -10 20 0 20 0 0 -52 -23 -61 -22 -58 -12 -58 5 0 14
10 20 23 9 19 11 13 11 -35 1 -85 21 -71 22 15 0 39 3 66 6 60 7 -18 23 -16
23 2 0 9 -7 18 -15 21 -8 4 -15 10 -15 15 0 5 7 9 15 9 8 0 15 -3 15 -7 0 -5
30 -8 67 -7 61 1 62 0 11 -3 l-57 -4 2 -59 c1 -49 -2 -62 -18 -74 -19 -14 -19
-15 -2 -16 21 0 77 30 77 42 0 15 19 8 46 -17 33 -31 67 -36 40 -6 -21 23 -20
141 2 141 6 0 12 5 12 11 0 6 -11 8 -27 5 -16 -3 -35 -2 -43 4 -11 7 -6 10 23
10 20 0 37 4 37 9 0 6 -17 12 -37 14 l-38 4 38 1 c20 1 37 7 37 13 0 7 -12 9
-36 4 -31 -5 -36 -4 -31 9 8 20 -12 21 -27 1 -8 -11 -20 -14 -44 -9 -17 4 -32
10 -32 15 0 12 -8 10 -50 -9z m65 -34 c6 -12 21 -25 35 -29 l25 -7 -26 -1
c-15 -1 -32 6 -39 14 -7 9 -19 14 -27 11 -13 -5 -18 15 -6 27 13 13 28 7 38
-15z m98 -85 c-13 -2 -35 -2 -50 0 -16 2 -5 4 22 4 28 0 40 -2 28 -4z m17 -25
c0 -4 -20 -8 -45 -8 -25 0 -45 4 -45 10 0 5 20 9 45 8 25 -1 45 -6 45 -10z
m-17 -25 c-13 -2 -35 -2 -50 0 -16 2 -5 4 22 4 28 0 40 -2 28 -4z"/>
<path d="M2169 4733 c-2 -24 -2 -25 -6 -5 -2 12 -10 22 -18 22 -9 0 -11 -7 -7
-22 4 -17 2 -20 -11 -15 -10 4 -17 2 -17 -3 0 -6 14 -10 30 -10 17 0 30 -2 30
-4 0 -16 -36 -98 -56 -129 -31 -47 -22 -64 12 -22 18 23 24 26 24 13 0 -10 -4
-18 -10 -18 -5 0 -10 -7 -10 -16 0 -25 24 -10 35 21 7 21 7 29 -3 33 -33 11 7
22 79 22 74 0 79 -1 79 -22 0 -20 -1 -20 -18 -5 -10 10 -21 17 -25 17 -11 0
16 -50 27 -50 6 0 3 -5 -7 -11 -21 -12 -33 -4 -39 25 -1 11 -8 21 -15 23 -18
6 -3 -39 20 -59 41 -37 65 -16 82 70 6 28 4 32 -14 32 -18 0 -20 4 -15 27 6
23 4 25 -15 20 -22 -5 -38 7 -21 18 5 3 10 12 10 20 0 11 -11 13 -51 8 l-50
-6 7 27 c5 20 2 26 -10 26 -10 0 -16 -9 -17 -27z m89 -52 c-2 -10 -16 -17 -41
-19 -39 -3 -40 -2 -31 21 8 21 76 19 72 -2z m32 -48 c0 -9 -19 -13 -60 -13
-54 0 -70 7 -55 22 11 11 115 3 115 -9z"/>
<path d="M1470 4740 c0 -16 18 -20 42 -11 26 11 25 12 -14 17 -16 1 -28 -1
-28 -6z"/>
<path d="M1559 4739 c-23 -7 -23 -7 -1 -8 25 -1 28 -10 9 -36 -11 -14 -22 -17
-45 -12 l-32 7 0 -93 0 -92 115 0 115 0 0 91 0 92 -65 -6 c-68 -5 -72 -3 -55
28 8 16 21 19 61 18 28 0 54 3 59 8 11 11 -124 13 -161 3z m-9 -139 c0 -63 -2
-70 -20 -70 -18 0 -20 7 -20 70 0 63 2 70 20 70 18 0 20 -7 20 -70z m74 55 c4
-11 -2 -15 -24 -15 -20 0 -30 5 -30 15 0 9 9 15 24 15 13 0 26 -7 30 -15z m66
-56 c0 -67 -1 -70 -22 -67 -20 3 -23 10 -26 57 -4 66 1 81 28 81 18 0 20 -6
20 -71z m-60 6 c0 -10 -10 -15 -30 -15 -20 0 -30 5 -30 15 0 10 10 15 30 15
20 0 30 -5 30 -15z m-2 -57 c3 -14 -3 -18 -27 -18 -25 0 -31 4 -31 21 0 16 5
20 27 17 17 -2 29 -10 31 -20z"/>
<path d="M1310 4641 c0 -6 5 -11 10 -11 6 0 16 -11 22 -25 6 -14 15 -25 21
-25 12 0 -25 62 -41 68 -6 2 -12 -1 -12 -7z"/>
<path d="M2194 4555 c7 -37 16 -44 16 -12 0 14 -5 29 -10 32 -7 4 -9 -3 -6
-20z"/>
<path d="M13331 4083 c-18 -25 -29 -48 -25 -52 4 -3 9 0 11 7 7 18 23 15 23
-4 0 -12 -7 -15 -25 -12 -18 4 -29 -1 -40 -19 -9 -13 -25 -33 -36 -44 -19 -19
-19 -19 1 -19 11 0 20 6 20 13 0 21 34 47 60 47 20 0 22 -4 17 -30 -6 -26 -3
-30 14 -30 19 0 20 5 16 55 -2 31 -1 58 4 61 11 7 12 61 1 68 -5 3 -23 -15
-41 -41z"/>
<path d="M3588 4019 c-27 -15 -22 -30 7 -23 38 10 42 -19 9 -69 -34 -52 -34
-50 -4 -52 33 -3 60 12 60 32 0 12 -3 13 -15 3 -8 -6 -19 -9 -25 -5 -8 5 -4
12 9 22 28 19 29 78 2 93 -23 12 -22 12 -43 -1z"/>
<path d="M2059 3933 c-22 -60 -73 -163 -81 -163 -4 0 -8 -4 -8 -10 0 -5 13
-10 29 -10 26 0 30 3 28 28 -2 25 1 27 38 27 37 0 40 -2 38 -27 -2 -26 1 -28
33 -28 38 0 41 4 20 26 -8 8 -27 52 -42 99 -15 47 -31 85 -36 85 -5 0 -13 -12
-19 -27z m21 -57 c0 -8 3 -21 6 -30 5 -12 0 -16 -19 -16 -24 0 -25 2 -16 30
11 31 29 41 29 16z"/>
<path d="M2876 3944 c-9 -8 -16 -23 -16 -31 0 -14 2 -14 19 1 30 27 56 17 59
-24 2 -29 -4 -43 -38 -79 -22 -24 -40 -48 -40 -53 0 -5 26 -8 58 -6 52 3 57 5
60 28 3 20 1 23 -9 13 -7 -7 -27 -13 -44 -13 -29 1 -30 1 -10 18 50 42 72 121
43 150 -17 17 -64 15 -82 -4z"/>
<path d="M3035 3891 c-26 -38 -44 -74 -41 -80 4 -6 25 -11 46 -11 31 0 38 -3
35 -17 -4 -26 5 -36 21 -22 7 6 11 16 8 21 -3 5 2 16 12 23 17 13 17 16 4 24
-8 6 -16 25 -16 43 -1 18 -2 45 -3 61 0 15 -5 27 -10 27 -5 0 -30 -31 -56 -69z
m45 -21 c0 -31 -16 -45 -44 -38 -13 2 -12 8 5 36 26 40 39 41 39 2z"/>
<path d="M11123 3942 c-22 -3 -33 -22 -13 -22 6 0 10 -33 10 -80 0 -47 -4 -80
-10 -80 -5 0 -10 -4 -10 -10 0 -5 16 -10 35 -10 19 0 35 5 35 10 0 6 -4 10
-10 10 -5 0 -11 42 -12 93 -3 89 -4 92 -25 89z"/>
<path d="M11248 3939 c-27 -16 -22 -37 7 -31 32 6 44 -21 21 -47 -21 -23 -20
-28 5 -34 15 -4 20 -12 17 -29 -2 -19 -10 -23 -45 -26 -55 -4 -49 -32 7 -32
46 0 64 19 62 68 -1 20 -2 56 -2 79 0 32 -5 45 -19 53 -24 12 -31 12 -53 -1z"/>
<path d="M3226 3868 c-47 -66 24 -158 77 -100 24 26 23 50 -1 29 -24 -22 -39
-21 -52 2 -14 26 -13 44 4 66 13 18 14 18 32 -3 24 -28 36 -28 32 1 -5 33 -70
37 -92 5z"/>
<path d="M3343 3841 c0 -25 -2 -56 -7 -68 -7 -21 -4 -23 28 -23 27 0 34 3 30
15 -4 8 -10 15 -15 15 -5 0 -9 16 -9 35 0 28 5 38 23 44 12 5 25 7 30 4 11 -6
9 -93 -3 -93 -5 0 -10 -4 -10 -10 0 -5 13 -10 28 -10 28 0 29 0 24 54 -3 43
-1 54 12 59 22 9 30 -13 23 -68 -4 -44 -4 -45 24 -45 16 0 29 5 29 10 0 6 -4
10 -10 10 -5 0 -10 22 -10 49 0 27 -6 53 -12 59 -7 5 -50 9 -95 9 l-82 0 2
-46z"/>
<path d="M11444 3855 c-31 -47 -1 -115 50 -115 21 0 58 38 50 51 -3 6 -11 3
-19 -7 -16 -22 -42 -13 -57 21 -10 22 -9 29 9 46 18 19 21 19 36 5 21 -21 27
-20 27 4 0 17 -7 20 -40 20 -31 0 -43 -5 -56 -25z"/>
<path d="M11560 3871 c0 -6 5 -13 11 -17 11 -7 8 -62 -6 -97 -7 -16 -3 -18 20
-15 27 3 28 5 29 58 1 42 5 55 16 55 11 0 16 -13 18 -47 2 -34 -1 -48 -10 -48
-19 0 13 -20 33 -20 13 0 15 9 11 51 -3 37 -1 54 9 60 26 16 30 9 28 -48 -3
-58 5 -71 37 -59 13 5 14 9 5 20 -7 8 -9 25 -6 38 3 13 2 35 -4 50 -9 25 -12
25 -100 27 -51 0 -91 -3 -91 -8z"/>
<path d="M13090 3865 c-41 -7 -192 -32 -335 -55 -143 -22 -354 -56 -470 -75
-115 -19 -293 -48 -395 -65 -102 -16 -198 -33 -215 -36 -16 -3 -43 -7 -60 -10
-16 -2 -91 -15 -165 -29 -74 -14 -169 -30 -210 -36 -41 -5 -106 -16 -145 -24
-38 -8 -160 -28 -270 -45 -110 -17 -267 -42 -350 -55 -247 -39 -406 -64 -473
-73 l-63 -9 -62 81 c-34 44 -75 98 -90 119 -16 22 -35 37 -44 35 -10 -2 -30
-43 -55 -113 -119 -334 -191 -533 -203 -560 -7 -16 -20 -48 -28 -70 -8 -22
-38 -103 -66 -180 -29 -77 -70 -194 -92 -260 -37 -109 -130 -352 -165 -432 -8
-17 -14 -35 -14 -40 0 -16 -204 -582 -225 -623 -13 -25 -147 -410 -168 -482
-6 -21 -7 -41 -3 -45 4 -4 1011 -9 2237 -11 l2229 -3 1 123 c1 68 2 236 3 373
2 138 5 781 7 1430 4 1174 4 1180 -16 1182 -11 0 -54 -5 -95 -12z m20 -32 c-1
-9 -164 -123 -175 -123 -12 0 -155 -102 -155 -111 0 -5 -7 -9 -15 -9 -8 0 -15
-4 -15 -10 0 -5 -5 -10 -11 -10 -6 0 -41 -22 -77 -49 -86 -64 -222 -160 -442
-310 -96 -66 -216 -149 -266 -185 -51 -36 -97 -66 -102 -66 -6 0 -15 -6 -19
-12 -4 -7 -19 -19 -33 -27 -31 -17 -716 -490 -776 -536 -25 -19 -60 -42 -79
-51 -19 -9 -35 -20 -35 -25 0 -5 -4 -9 -9 -9 -5 0 -35 -17 -66 -39 l-58 -38
-72 96 c-39 53 -134 179 -211 281 -76 102 -200 268 -276 369 -76 101 -138 185
-138 186 0 2 -9 14 -20 27 -31 36 -100 132 -100 138 0 3 42 11 93 18 133 17
484 70 537 81 25 5 126 22 225 36 202 30 314 48 460 75 55 11 126 22 158 26
31 3 60 10 63 15 3 5 10 7 15 3 6 -3 18 -2 27 2 9 4 31 8 47 10 30 3 55 7 110
19 36 7 229 39 370 60 55 8 152 24 215 35 141 24 439 72 618 100 74 11 141 24
150 30 20 11 62 13 62 3z m71 -20 c1 -10 1 -27 -1 -38 -2 -19 -13 -2146 -13
-2517 l-1 -168 -163 0 -163 0 0 -147 0 -146 -2022 6 c-1113 3 -2025 6 -2028 7
-9 0 105 79 117 80 6 0 13 3 15 8 5 11 271 200 294 209 22 8 132 82 189 128
22 18 126 89 230 160 105 70 201 137 215 147 48 37 239 168 245 168 3 0 40 23
81 50 41 28 80 48 86 44 6 -4 8 -3 5 3 -6 10 49 53 200 156 45 31 117 81 160
111 98 70 299 208 321 221 48 29 131 86 157 109 47 40 49 42 66 48 18 7 346
230 369 251 8 8 94 66 190 130 96 64 183 123 193 132 9 8 19 15 22 15 3 0 18
12 33 26 15 14 44 34 65 45 21 11 70 42 110 70 40 28 115 79 167 115 52 36
106 73 120 83 22 17 254 183 329 236 54 38 262 180 279 190 9 6 21 16 25 23 4
6 14 12 21 12 7 0 26 11 42 25 34 30 44 31 45 8z m-3327 -408 c52 -71 104
-140 115 -153 12 -12 21 -25 21 -29 0 -10 104 -143 112 -143 5 0 8 -6 8 -12 0
-7 46 -74 103 -149 56 -75 162 -216 235 -312 72 -97 132 -183 132 -191 0 -8
-43 -45 -95 -83 -52 -37 -94 -72 -95 -77 0 -5 16 -31 35 -57 19 -27 35 -52 35
-57 0 -4 9 -13 20 -20 11 -7 20 -17 20 -24 0 -6 8 -20 17 -31 15 -16 16 -20 3
-27 -8 -4 -64 -43 -125 -86 -60 -43 -166 -115 -235 -161 -223 -148 -691 -470
-870 -597 -52 -38 -104 -72 -115 -76 -11 -5 -51 -32 -90 -60 -38 -28 -110 -78
-160 -112 -49 -33 -107 -74 -127 -90 -42 -33 -45 -31 -24 15 8 18 24 61 34 97
29 95 100 296 121 344 38 83 61 144 105 271 90 265 165 471 184 510 11 22 41
101 67 175 26 74 78 221 115 325 38 105 77 213 86 240 9 28 20 55 24 60 11 13
94 240 218 597 10 26 20 47 24 45 4 -1 50 -60 102 -132z m829 -1112 l65 -88
-22 -18 c-11 -10 -55 -42 -97 -71 l-77 -53 -43 60 c-24 33 -48 67 -54 75 -5 9
-16 23 -23 31 -11 11 -11 16 0 27 26 26 163 122 175 123 6 1 41 -38 76 -86z
m2481 -1240 c-1 -7 -2 -67 -2 -133 l-2 -120 -145 0 -145 0 0 135 0 136 148 -3
c110 -2 147 -6 146 -15z"/>
<path d="M10930 2129 c0 -4 4 -9 9 -11 10 -3 -11 -74 -27 -90 -5 -5 -16 14
-27 47 -27 77 -46 73 -68 -13 -10 -37 -24 -80 -32 -95 -14 -27 -13 -27 17 -27
23 0 28 3 20 13 -11 13 14 127 29 127 4 0 10 -15 13 -32 4 -18 15 -51 25 -73
l17 -40 23 75 c12 41 31 87 41 101 l18 26 -29 0 c-16 0 -29 -4 -29 -8z"/>
<path d="M3920 3845 c0 -8 4 -15 10 -15 5 0 7 7 4 15 -4 8 -8 15 -10 15 -2 0
-4 -7 -4 -15z"/>
<path d="M9527 3802 c6 -24 -25 -132 -45 -154 -14 -17 -11 -18 47 -18 96 0
140 33 141 105 0 66 -20 85 -90 85 -52 0 -58 -2 -53 -18z m103 -21 c24 -45 4
-101 -45 -124 -27 -13 -36 -13 -50 -3 -13 9 -15 15 -7 20 7 4 12 15 12 24 0 9
7 36 16 59 13 34 22 43 40 43 13 0 28 -9 34 -19z"/>
<path d="M2194 3779 c-10 -17 13 -36 27 -22 12 12 4 33 -11 33 -5 0 -12 -5
-16 -11z"/>
<path d="M10005 3671 c7 -24 -23 -148 -41 -166 -8 -7 -14 -16 -14 -19 0 -3 34
-6 75 -6 72 0 76 1 86 26 12 32 4 44 -14 21 -6 -10 -29 -20 -50 -24 -33 -5
-37 -3 -37 15 0 11 5 33 11 49 l10 28 19 -25 18 -24 10 34 c11 41 8 47 -12 31
-22 -18 -33 -6 -28 29 4 26 8 30 37 30 22 0 35 -6 40 -17 6 -17 7 -17 16 0 16
29 1 37 -67 37 -60 0 -65 -2 -59 -19z"/>
<path d="M3567 3193 c-4 -3 -7 -13 -7 -21 0 -12 3 -12 15 -2 8 6 19 9 25 5 16
-10 3 -56 -21 -73 -33 -23 -24 -42 21 -42 29 0 40 4 40 15 0 11 -7 14 -26 9
l-25 -6 25 37 c29 42 31 56 14 73 -13 13 -50 16 -61 5z"/>
<path d="M2872 3128 c-7 -7 -12 -18 -12 -26 0 -12 3 -12 15 -2 21 18 45 5 45
-25 0 -15 -4 -24 -9 -20 -5 3 -12 1 -16 -5 -7 -12 19 -42 29 -33 3 4 6 -5 6
-19 0 -34 -22 -51 -55 -42 -21 5 -27 4 -23 -7 2 -8 19 -15 36 -17 57 -6 95 63
56 103 -13 12 -14 19 -5 28 15 15 14 50 -1 65 -7 7 -21 12 -33 12 -12 0 -26
-5 -33 -12z"/>
<path d="M3016 3124 c-22 -22 -30 -58 -23 -115 12 -100 79 -108 115 -14 16 41
8 93 -19 121 -26 28 -51 31 -73 8z m51 -16 c23 -37 22 -123 -1 -146 -16 -16
-18 -16 -32 2 -8 11 -14 42 -14 69 0 69 25 109 47 75z"/>
<path d="M1979 3121 c10 -6 12 -31 10 -101 l-4 -92 62 5 c35 2 70 10 78 17 20
16 19 49 -1 72 -14 14 -14 20 -4 33 17 21 5 61 -22 69 -36 9 -135 7 -119 -3z
m106 -46 c0 -25 -4 -30 -27 -33 -26 -3 -28 -1 -28 33 0 34 2 36 28 33 23 -3
27 -8 27 -33z m-1 -51 c9 -4 16 -18 16 -34 0 -28 -15 -40 -51 -40 -16 0 -19 7
-19 40 0 41 13 50 54 34z"/>
<path d="M3220 3060 c-46 -46 -30 -123 27 -128 25 -3 35 2 49 23 19 29 11 48
-9 21 -17 -23 -53 -14 -60 15 -11 43 25 92 39 54 9 -22 34 -19 34 4 0 34 -50
41 -80 11z"/>
<path d="M3323 3064 c-13 -10 -14 -13 -4 -14 10 0 12 -14 9 -60 l-4 -60 28 0
c15 0 28 5 28 10 0 6 -5 10 -11 10 -6 0 -9 19 -7 48 3 39 6 47 23 47 18 0 20
-7 20 -57 0 -57 0 -58 27 -58 16 0 28 5 28 10 0 6 -4 10 -10 10 -11 0 -14 59
-4 84 3 9 12 16 19 16 24 0 34 -87 13 -108 -9 -9 -5 -12 18 -12 l30 0 -7 64
c-3 35 -9 68 -13 75 -9 14 -43 14 -51 0 -4 -6 -14 -7 -24 -4 -30 13 -91 12
-108 -1z"/>
<path d="M3907 3053 c-12 -11 -8 -50 7 -62 27 -23 62 17 48 57 -4 13 -44 17
-55 5z m33 -34 c0 -18 -2 -19 -15 -9 -15 12 -12 30 6 30 5 0 9 -10 9 -21z"/>
<path d="M2182 2941 c13 -21 28 -19 28 5 0 8 -9 14 -20 14 -17 0 -19 -3 -8
-19z"/>
<path d="M3562 2368 c-19 -19 -14 -29 13 -22 21 5 25 3 25 -18 0 -13 -11 -35
-25 -50 -14 -15 -25 -30 -25 -33 0 -12 84 0 88 13 3 9 -3 11 -24 6 l-28 -7 22
28 c26 33 29 80 6 89 -24 9 -39 7 -52 -6z"/>
<path d="M8428 2363 c-22 -6 -23 -19 -2 -27 14 -5 16 -18 12 -81 -5 -69 -3
-75 14 -75 18 0 19 7 16 95 -2 55 -7 94 -13 94 -5 -1 -18 -3 -27 -6z"/>
<path d="M8550 2350 c-16 -16 -20 -33 -20 -80 0 -47 4 -64 20 -80 48 -48 90
-12 90 76 0 93 -42 132 -90 84z m64 -16 c10 -25 7 -104 -4 -125 -13 -23 -36
-25 -44 -3 -10 25 -7 104 4 125 13 23 36 25 44 3z"/>
<path d="M2030 2303 c-41 -15 -60 -46 -60 -97 1 -67 22 -96 78 -103 36 -5 47
-2 67 17 14 13 25 30 25 38 0 10 -8 6 -25 -12 -27 -30 -51 -33 -82 -11 -43 30
-38 121 7 145 29 16 67 5 75 -21 9 -28 25 -10 19 21 -5 22 -11 25 -47 27 -23
1 -49 -1 -57 -4z"/>
<path d="M2860 2291 c-5 -11 -10 -38 -10 -60 0 -42 6 -47 53 -43 20 2 20 1 5
-33 -6 -14 -22 -28 -35 -31 -13 -4 -23 -10 -23 -15 0 -9 21 -4 57 14 33 15 67
90 59 129 -9 44 -24 58 -62 58 -23 0 -37 -6 -44 -19z m68 -44 c3 -34 1 -37
-22 -37 -23 0 -26 4 -26 33 0 38 7 49 30 45 9 -2 16 -16 18 -41z"/>
<path d="M3043 2300 c-33 -13 -54 -53 -56 -104 -2 -37 3 -50 24 -72 24 -23 29
-25 50 -14 32 17 39 29 39 71 0 41 -14 59 -48 59 -31 0 -24 19 18 48 24 16 28
22 14 21 -10 0 -29 -4 -41 -9z m29 -106 c12 -26 3 -54 -20 -62 -17 -5 -45 44
-37 68 9 28 43 25 57 -6z"/>
<path d="M8780 2303 c-22 -9 -30 -24 -30 -64 0 -58 49 -89 82 -51 28 32 32 47
6 24 -24 -22 -25 -22 -41 -4 -21 23 -22 71 -2 79 9 3 22 -2 29 -12 15 -21 30
-6 20 19 -6 16 -35 20 -64 9z"/>
<path d="M8874 2299 c-2 -4 0 -10 6 -14 15 -9 12 -68 -6 -93 -15 -21 -14 -22
15 -22 29 0 41 13 23 24 -4 2 -6 23 -4 45 4 36 7 41 29 41 25 0 25 -2 21 -55
l-5 -55 31 0 c23 0 27 3 18 12 -7 7 -12 31 -12 55 0 37 3 43 21 43 20 0 21 -4
17 -55 -5 -55 -5 -55 24 -55 15 0 28 5 28 10 0 6 -4 10 -10 10 -5 0 -10 26
-12 58 l-3 57 -88 1 c-48 0 -90 -3 -93 -7z"/>
<path d="M3206 2235 c-9 -10 -16 -33 -16 -56 0 -66 56 -102 93 -61 26 29 21
45 -7 27 -22 -14 -25 -14 -40 0 -21 22 -21 74 0 82 10 4 20 0 26 -10 14 -26
40 -21 36 6 -2 17 -10 23 -39 25 -24 2 -42 -3 -53 -13z"/>
<path d="M3317 2176 c2 -67 3 -71 24 -68 30 3 35 10 21 24 -30 30 -4 96 32 82
18 -7 23 -78 6 -89 -5 -3 -10 -10 -10 -16 0 -12 57 -12 65 1 3 6 1 10 -4 10
-17 0 -13 86 4 100 21 17 29 -7 23 -70 -5 -49 -5 -50 23 -50 16 0 29 5 29 10
0 6 -4 10 -10 10 -5 0 -10 28 -12 63 -3 56 -5 62 -26 65 -13 2 -29 -2 -37 -8
-7 -6 -16 -7 -19 -2 -3 5 -29 9 -58 9 l-53 0 2 -71z"/>
<path d="M3894 2215 c-10 -24 2 -42 30 -47 31 -6 49 17 35 44 -12 22 -57 24
-65 3z m46 -15 c0 -5 -7 -10 -16 -10 -8 0 -12 5 -9 10 3 6 10 10 16 10 5 0 9
-4 9 -10z"/>
<path d="M2166 2131 c-7 -11 18 -33 27 -24 4 3 7 12 7 20 0 15 -26 18 -34 4z"/>
<path d="M3687 1553 c-16 -15 -6 -30 18 -25 21 4 25 1 25 -20 0 -14 -11 -35
-25 -48 -34 -32 -32 -37 15 -42 32 -3 40 0 40 13 0 12 -6 16 -20 12 -24 -6
-26 3 -5 23 22 22 29 62 15 79 -13 15 -51 20 -63 8z"/>
<path d="M1956 1481 c-4 -6 -1 -11 8 -11 24 0 23 -136 -1 -162 -15 -17 -14
-18 41 -18 65 0 120 19 135 48 6 12 11 38 11 60 0 59 -32 83 -118 90 -46 3
-72 1 -76 -7z m144 -37 c32 -32 9 -139 -28 -126 -6 2 -12 0 -12 -5 0 -6 -10
-9 -22 -8 -25 2 -24 0 -20 116 l2 52 32 -7 c18 -4 40 -13 48 -22z"/>
<path d="M2855 1481 c-18 -7 -18 -8 -1 -18 16 -9 18 -21 15 -92 l-4 -81 29 0
c23 0 27 3 18 12 -8 8 -12 45 -12 100 0 92 -2 96 -45 79z"/>
<path d="M2977 1472 c-35 -39 -9 -120 34 -109 40 11 2 -50 -41 -66 -9 -3 -5
-6 11 -6 34 -1 86 54 94 100 10 52 -16 99 -54 99 -15 0 -35 -8 -44 -18z m63
-41 c0 -22 -5 -43 -10 -46 -17 -11 -40 15 -40 45 0 31 7 40 32 40 14 0 18 -8
18 -39z"/>
<path d="M3117 1472 c-23 -25 -21 -35 2 -22 44 23 79 3 64 -37 -3 -10 -23 -39
-44 -64 l-38 -46 44 -6 c51 -7 71 -2 79 20 9 23 -1 28 -21 11 -12 -10 -26 -12
-43 -7 -14 4 -20 7 -13 8 18 2 62 64 69 98 11 55 -61 87 -99 45z"/>
<path d="M3332 1414 c-28 -20 -31 -83 -4 -107 25 -23 65 -21 87 3 24 26 13 36
-18 16 -22 -15 -25 -15 -41 3 -22 25 -18 75 7 79 10 2 25 -5 33 -15 13 -17 15
-17 28 0 23 29 29 19 24 -43 l-4 -60 30 1 c17 0 25 3 19 6 -28 11 -11 113 19
113 13 0 20 -65 9 -93 -11 -27 -10 -28 16 -25 19 2 27 8 24 18 -7 28 0 84 11
92 22 13 30 -5 26 -58 -4 -50 -3 -54 17 -54 21 0 22 4 17 53 -2 28 -9 60 -14
70 -10 19 -43 23 -53 7 -5 -8 -11 -8 -19 -1 -13 11 -94 9 -113 -2 -6 -4 -14
-3 -18 3 -9 15 -58 12 -83 -6z"/>
<path d="M4024 1406 c-11 -29 1 -51 26 -51 19 0 26 6 28 24 5 35 -42 58 -54
27z m35 -23 c0 -5 -3 -9 -9 -11 -5 -2 -10 4 -10 13 0 16 16 14 19 -2z"/>
<path d="M2185 1320 c-7 -12 2 -30 16 -30 5 0 9 9 9 20 0 21 -15 27 -25 10z"/>
<path d="M8469 725 c-38 -21 -59 -59 -59 -108 0 -52 20 -75 72 -83 28 -5 40
-1 64 20 32 28 17 35 -22 10 -31 -21 -71 -6 -80 30 -6 27 20 93 46 113 26 21
60 15 70 -13 12 -32 30 -22 30 17 0 28 -2 29 -47 29 -27 -1 -60 -7 -74 -15z"/>
<path d="M13270 668 c-1 -29 -36 -136 -51 -154 -9 -12 -3 -14 37 -14 68 0 90
8 103 36 8 18 7 31 -1 50 -10 22 -9 27 5 35 20 12 22 40 5 57 -7 7 -31 12 -55
12 -38 0 -43 -3 -43 -22z m78 -12 c5 -22 -22 -46 -51 -46 -14 0 -17 5 -11 23
15 49 55 63 62 23z m-20 -96 c4 -27 -12 -40 -50 -40 -18 0 -26 4 -23 13 24 66
24 67 47 58 13 -4 25 -18 26 -31z"/>
<path d="M10708 663 c-19 -5 -25 -23 -8 -23 6 0 10 -32 10 -75 0 -53 -4 -75
-12 -75 -9 0 -8 -4 2 -10 20 -13 60 -13 60 0 0 6 -4 10 -10 10 -6 0 -10 37
-10 90 0 50 -3 89 -7 89 -5 -1 -16 -3 -25 -6z"/>
<path d="M10842 642 c-74 -69 -34 -206 47 -163 46 25 37 113 -12 119 -15 2
-27 7 -27 11 0 11 35 41 48 41 6 0 14 5 17 10 14 23 -45 8 -73 -18z m41 -95
c6 -19 5 -32 -3 -42 -15 -19 -37 -9 -44 20 -14 55 29 75 47 22z"/>
<path d="M11036 588 c-37 -53 4 -133 58 -112 20 8 41 43 30 52 -4 4 -9 1 -11
-5 -6 -16 -35 -17 -51 -1 -14 14 -15 37 -2 58 7 12 12 12 34 0 30 -16 45 -7
26 15 -19 23 -66 19 -84 -7z"/>
<path d="M11145 544 c0 -63 0 -64 27 -64 25 0 27 2 18 24 -13 34 2 81 26 81
16 0 19 -7 19 -53 0 -42 4 -53 18 -58 24 -8 31 0 20 23 -5 10 -9 34 -8 53 0
29 4 36 23 38 22 3 23 1 21 -52 -1 -31 0 -58 3 -61 3 -3 16 -1 29 4 13 5 18
10 12 10 -9 1 -13 18 -13 49 0 26 -4 52 -8 58 -4 7 -42 12 -97 12 l-90 0 0
-64z"/>
</g>
</svg>
