<?xml version="1.0" standalone="no"?>
<!DOCTYPE svg PUBLIC "-//W3C//DTD SVG 20010904//EN"
 "http://www.w3.org/TR/2001/REC-SVG-20010904/DTD/svg10.dtd">
<svg version="1.0" xmlns="http://www.w3.org/2000/svg"
 width="1393.000000pt" height="664.000000pt" viewBox="0 0 1393.000000 664.000000"
 preserveAspectRatio="xMidYMid meet">
<metadata>
Created by potrace 1.16, written by Peter Selinger 2001-2019
</metadata>
<g transform="translate(0.000000,664.000000) scale(0.100000,-0.100000)"
fill="#000000" stroke="none">
<path d="M1050 6169 c0 -53 -3 -111 -7 -129 -5 -26 -3 -31 7 -25 15 9 180 10
209 0 20 -6 21 -3 21 122 l0 128 -115 0 -115 0 0 -96z m52 41 c4 -24 1 -30
-14 -30 -13 0 -18 8 -18 30 0 19 5 30 14 30 8 0 16 -13 18 -30z m160 20 c2 -5
2 -50 0 -100 -3 -70 -7 -90 -18 -90 -10 0 -14 15 -14 59 0 33 5 63 10 66 19
12 0 24 -33 21 -17 -2 -25 -2 -15 1 9 2 19 15 22 29 6 24 41 35 48 14z m-84
-17 c-10 -2 -26 -2 -35 0 -10 3 -2 5 17 5 19 0 27 -2 18 -5z m-31 -29 c-3 -3
-12 -4 -19 -1 -8 3 -5 6 6 6 11 1 17 -2 13 -5z m-57 -79 c0 -30 -4 -57 -10
-60 -6 -4 -10 18 -10 60 0 42 4 64 10 60 6 -3 10 -30 10 -60z m27 -12 c-3 -10
-5 -2 -5 17 0 19 2 27 5 18 2 -10 2 -26 0 -35z m56 40 c-7 -2 -21 -2 -30 0
-10 3 -4 5 12 5 17 0 24 -2 18 -5z m37 -23 c0 -16 -4 -30 -8 -30 -5 0 -7 14
-4 30 2 17 6 30 8 30 2 0 4 -13 4 -30z m-40 0 c0 -5 -8 -10 -17 -10 -15 0 -16
2 -3 10 19 12 20 12 20 0z m40 -60 c0 -5 -22 -10 -50 -10 -27 0 -50 5 -50 10
0 6 23 10 50 10 28 0 50 -4 50 -10z"/>
<path d="M1460 6244 c0 -25 -2 -26 -45 -22 l-45 3 0 -61 0 -62 45 6 45 5 0
-57 c0 -36 4 -55 10 -51 6 3 10 28 10 56 l0 49 49 0 49 0 -3 57 -2 57 -48 -3
c-47 -3 -47 -2 -41 23 5 19 3 26 -9 26 -10 0 -15 -9 -15 -26z m0 -79 c0 -33
-2 -35 -35 -35 -33 0 -35 2 -35 35 0 33 2 35 35 35 33 0 35 -2 35 -35z m90 0
c0 -33 -2 -35 -35 -35 -33 0 -35 2 -35 35 0 33 2 35 35 35 33 0 35 -2 35 -35z"/>
<path d="M293 6253 c-14 -5 -83 -115 -83 -132 0 -6 16 -11 35 -11 31 0 35 -3
35 -25 0 -16 6 -25 15 -25 9 0 15 9 15 24 0 13 6 27 13 29 9 4 9 7 0 14 -7 5
-13 36 -15 69 -2 42 -7 60 -15 57z m-16 -120 c-3 -2 -15 -3 -26 -1 -20 3 -20
3 2 38 l22 35 3 -33 c2 -19 1 -36 -1 -39z"/>
<path d="M392 6249 c-13 -5 -21 -13 -17 -18 3 -5 1 -12 -5 -16 -6 -4 -8 -11
-5 -16 4 -5 1 -9 -4 -9 -24 0 -4 -102 24 -122 22 -16 54 -7 73 20 23 34 23
109 -1 146 -19 28 -29 30 -65 15z m52 -52 c12 -47 -3 -111 -26 -115 -25 -5
-40 39 -32 91 12 75 42 88 58 24z"/>
<path d="M2643 6253 c-40 -2 -73 -8 -73 -14 0 -5 8 -9 18 -7 15 3 17 -5 16
-52 -1 -57 -17 -99 -53 -137 -36 -38 -23 -49 14 -13 20 19 41 51 47 72 6 21
14 38 17 38 5 0 37 -47 49 -72 2 -4 -19 -17 -47 -30 -28 -13 -51 -26 -51 -30
0 -14 19 -9 70 17 l49 25 37 -25 c43 -29 48 -30 63 -11 9 11 6 15 -16 20 -16
3 -36 12 -46 20 -18 14 -17 16 9 58 39 60 39 72 3 64 -26 -5 -29 -3 -29 19 0
13 5 27 10 30 14 9 12 35 -2 33 -7 -1 -46 -4 -85 -5z m58 -45 c-6 -16 -18 -24
-40 -26 -27 -3 -31 0 -31 22 0 24 4 26 40 26 37 0 39 -2 31 -22z m32 -79 c-23
-40 -40 -46 -58 -23 -32 43 -27 54 27 54 l49 0 -18 -31z"/>
<path d="M2174 6242 c3 -5 -1 -12 -9 -16 -8 -3 -15 -12 -15 -21 0 -8 -5 -15
-10 -15 -6 0 -14 -8 -17 -17 -4 -9 -14 -24 -22 -34 -9 -10 -20 -24 -26 -31 -5
-8 -19 -24 -29 -36 -19 -22 -19 -22 7 -22 19 0 27 5 27 18 0 23 19 42 43 42
16 0 19 -5 14 -30 -6 -28 -4 -30 23 -30 30 0 40 13 20 25 -11 7 -10 41 1 60 4
6 7 24 8 40 0 17 2 39 3 49 2 10 -3 21 -11 24 -8 2 -11 0 -7 -6z m-21 -92 c4
-15 0 -20 -14 -20 -17 0 -18 3 -9 20 6 11 12 20 14 20 2 0 6 -9 9 -20z"/>
<path d="M3638 6233 c12 -8 22 -20 22 -26 0 -6 10 -21 22 -34 l21 -23 -81 0
c-45 0 -82 3 -82 7 0 3 11 21 25 39 29 38 30 44 11 44 -8 0 -24 -15 -35 -33
-11 -18 -29 -41 -40 -51 -11 -10 -18 -23 -15 -28 3 -5 15 -2 25 8 13 12 19 13
19 4 0 -7 8 -10 20 -7 11 3 23 1 26 -4 9 -16 -35 -95 -61 -109 -14 -7 -25 -17
-25 -22 0 -12 10 -10 46 12 22 14 38 36 50 68 23 62 27 65 63 57 26 -5 31 -11
31 -35 0 -16 -5 -41 -10 -55 -9 -23 -14 -26 -43 -20 l-32 6 25 -20 c14 -11 28
-21 31 -21 18 0 42 46 48 92 5 46 9 53 28 53 33 0 39 13 11 24 -28 11 -68 56
-68 77 0 9 -11 14 -27 13 l-28 0 23 -16z"/>
<path d="M3820 6191 c0 -45 2 -52 16 -47 14 6 16 0 11 -40 -2 -25 -14 -59 -26
-75 -11 -15 -17 -30 -12 -34 14 -8 50 43 57 81 7 36 32 46 52 21 18 -21 0 -71
-27 -75 -18 -3 -20 -6 -10 -18 32 -39 60 0 63 86 1 33 -1 35 -36 38 -51 4 -48
20 4 24 l41 3 0 44 0 44 -66 1 -67 1 0 -54z m110 4 c0 -23 -4 -25 -45 -25 -41
0 -45 2 -45 25 0 23 4 25 45 25 41 0 45 -2 45 -25z"/>
<path d="M4039 6183 c-3 -167 -1 -157 -34 -163 l-30 -6 32 -16 c42 -21 45 -15
50 81 2 42 5 97 7 124 2 34 -1 47 -10 47 -10 0 -14 -18 -15 -67z"/>
<path d="M4165 6230 c5 -14 2 -20 -9 -20 -9 0 -16 -4 -16 -10 0 -5 13 -10 30
-10 23 0 29 -4 27 -17 -5 -28 -46 -115 -63 -134 -9 -10 -11 -20 -6 -23 5 -3
21 12 36 34 25 39 28 40 81 40 50 0 55 -2 61 -25 3 -14 13 -25 21 -25 19 0 11
-24 -10 -28 -11 -2 -21 9 -32 34 -8 20 -18 35 -21 32 -8 -9 7 -58 19 -58 6 0
7 -3 4 -7 -4 -3 2 -13 14 -21 18 -12 22 -12 38 2 15 14 32 67 35 111 1 6 -8
10 -19 10 -11 1 -19 6 -17 13 1 7 3 18 5 25 1 6 -6 11 -16 11 -13 -2 -17 4
-15 20 3 18 -3 21 -40 24 -37 3 -42 6 -37 23 8 23 -10 25 -23 2 -9 -16 -11
-16 -27 0 -22 22 -28 21 -20 -3z m125 -55 c0 -11 -11 -15 -41 -15 -36 0 -40 2
-29 15 7 8 25 15 41 15 19 0 29 -5 29 -15z m23 -50 c-4 -12 -19 -15 -59 -14
-30 1 -54 5 -54 9 0 15 16 20 66 20 44 0 52 -3 47 -15z m37 -52 c-1 -27 -1
-27 -15 -9 -12 16 -12 22 -2 28 17 11 17 11 17 -19z"/>
<path d="M2268 6231 c12 -7 10 -22 -9 -82 -13 -41 -28 -77 -34 -81 -29 -20 58
-28 107 -9 28 11 45 48 34 77 -3 8 1 26 10 39 12 18 13 28 4 44 -9 18 -20 21
-68 21 -35 0 -52 -4 -44 -9z m82 -31 c0 -19 -36 -47 -47 -36 -3 3 -3 17 1 31
8 31 46 36 46 5z m-13 -80 c4 -23 -9 -38 -40 -45 -30 -8 -33 -1 -17 40 7 19
16 26 32 23 13 -2 24 -10 25 -18z"/>
<path d="M3047 6209 c-23 -24 -25 -30 -13 -35 21 -8 21 -43 1 -51 -22 -8 -30
4 -15 22 7 9 10 18 6 22 -7 8 -65 -56 -66 -73 0 -6 -7 -17 -15 -24 -21 -18
-19 -29 5 -23 11 3 20 13 20 22 0 22 19 41 41 41 24 0 32 -16 19 -39 -12 -23
1 -35 28 -27 13 4 17 17 17 48 0 24 4 67 9 96 4 28 4 52 -1 51 -4 -1 -21 -14
-36 -30z"/>
<path d="M3183 6221 c-36 -23 -63 -68 -63 -106 0 -39 52 -85 90 -80 40 5 70
23 70 41 0 12 -4 12 -27 -3 -33 -22 -53 -22 -75 -3 -46 38 1 150 63 150 22 0
30 -6 35 -25 3 -14 10 -25 15 -25 5 0 9 11 9 25 0 14 0 28 0 33 0 17 -86 12
-117 -7z"/>
<path d="M4440 6114 l0 -121 98 -2 c53 -1 106 -3 117 -4 19 -2 20 5 23 123 l3
125 -121 0 -120 0 0 -121z m98 99 c-19 -3 -28 -10 -28 -23 0 -10 -6 -20 -12
-22 -17 -6 -19 -148 -2 -148 6 0 24 10 39 22 24 19 29 20 39 7 6 -9 20 -19 31
-25 15 -6 3 -10 -49 -12 -38 -2 -75 -1 -83 2 -10 4 -13 31 -13 106 l0 100 53
-1 c28 -1 40 -4 25 -6z m79 1 c-3 -3 -12 -4 -19 -1 -8 3 -5 6 6 6 11 1 17 -2
13 -5z m43 -99 c0 -52 -4 -96 -9 -100 -14 -8 -23 29 -21 88 2 28 -1 60 -5 70
-8 19 12 50 26 41 5 -3 9 -47 9 -99z m-72 68 c-10 -2 -28 -2 -40 0 -13 2 -5 4
17 4 22 1 32 -1 23 -4z m5 -50 c-13 -2 -35 -2 -50 0 -16 2 -5 4 22 4 28 0 40
-2 28 -4z m0 -30 c-13 -2 -35 -2 -50 0 -16 2 -5 4 22 4 28 0 40 -2 28 -4z m15
-19 c-8 -7 -88 -8 -95 0 -4 3 18 6 47 6 29 0 51 -3 48 -6z"/>
<path d="M4823 6220 c-4 -16 -14 -20 -44 -20 -22 0 -39 -4 -39 -10 0 -5 16
-10 35 -10 19 0 35 -3 35 -6 0 -13 -25 -52 -53 -81 -23 -25 -27 -33 -15 -33 9
0 20 5 23 10 15 24 25 6 25 -41 0 -33 4 -48 11 -44 5 4 9 32 8 63 -2 32 3 74
11 95 12 31 19 37 42 37 25 0 28 -3 28 -36 0 -35 -1 -36 -30 -32 -16 3 -30 1
-30 -4 0 -4 14 -8 31 -8 30 0 30 -1 27 -47 -3 -47 -4 -48 -35 -48 -18 0 -33
-3 -33 -6 0 -11 68 -18 125 -12 44 5 53 8 44 19 -8 10 -16 11 -29 4 -40 -21
-50 -13 -50 40 l0 51 35 -7 c29 -5 35 -3 35 11 0 14 -6 16 -35 11 -35 -7 -35
-7 -33 29 3 34 4 35 46 35 31 0 42 4 39 13 -3 8 -26 11 -83 9 -64 -3 -77 -2
-66 9 17 18 15 29 -4 29 -9 0 -18 -9 -21 -20z"/>
<path d="M3980 6149 c0 -58 3 -80 12 -77 7 3 12 29 14 65 1 33 4 65 8 71 5 8
-14 22 -30 22 -2 0 -4 -36 -4 -81z"/>
<path d="M5608 6223 c-43 -2 -78 -8 -78 -13 0 -6 9 -10 20 -10 15 0 20 -7 20
-27 0 -51 -29 -136 -55 -163 -14 -14 -22 -29 -18 -33 9 -9 53 32 53 50 0 7 4
13 9 13 5 0 12 16 15 35 4 19 10 35 14 35 4 -1 18 -17 30 -37 23 -35 23 -38 6
-50 -10 -7 -33 -19 -51 -25 -18 -7 -33 -16 -33 -20 0 -14 20 -9 71 17 l49 24
33 -19 c34 -21 87 -27 87 -10 0 6 -7 10 -15 10 -22 0 -75 29 -75 40 0 6 14 29
30 52 38 51 37 58 -1 58 -27 0 -30 3 -24 23 4 12 7 24 7 27 0 20 -3 30 -9 28
-5 -1 -43 -4 -85 -5z m68 -29 c-3 -9 -6 -22 -6 -30 0 -10 -12 -14 -40 -14 -35
0 -40 3 -40 23 0 32 7 37 53 37 32 0 38 -3 33 -16z m34 -70 c0 -18 -37 -64
-49 -62 -8 2 -23 18 -34 36 l-19 32 51 0 c28 0 51 -3 51 -6z"/>
<path d="M6337 6223 c-4 -3 -7 -15 -7 -26 0 -13 -5 -17 -15 -13 -13 4 -15 -9
-15 -87 l0 -93 35 4 c21 3 35 0 35 -7 0 -6 5 -11 10 -11 6 0 10 28 10 65 0 38
4 65 10 65 6 0 16 11 22 25 9 20 18 25 49 25 34 0 37 -2 41 -32 2 -18 0 -57
-5 -85 -8 -51 -10 -53 -40 -53 -29 0 -30 -1 -11 -15 47 -35 74 3 74 106 0 25
3 49 7 53 4 4 8 18 9 31 1 22 -1 23 -55 18 -46 -5 -54 -3 -43 8 16 17 15 29
-2 29 -8 0 -21 -21 -31 -50 -18 -55 -30 -67 -20 -20 6 29 5 30 -19 24 -26 -6
-37 8 -16 21 6 3 10 10 10 16 0 10 -23 12 -33 2z m33 -88 c0 -20 -5 -25 -25
-25 -20 0 -25 5 -25 25 0 20 5 25 25 25 20 0 25 -5 25 -25z m0 -80 c0 -31 -3
-35 -25 -35 -22 0 -25 4 -25 35 0 31 3 35 25 35 22 0 25 -4 25 -35z"/>
<path d="M6630 6195 c0 -26 -3 -33 -15 -29 -10 4 -15 0 -15 -11 0 -11 5 -15
15 -12 11 5 15 -7 17 -60 2 -42 8 -68 16 -71 6 -2 12 2 12 9 0 7 12 25 27 41
32 33 24 49 -9 18 l-23 -21 -3 31 c-5 45 4 60 33 60 14 0 25 5 25 10 0 6 -13
10 -30 10 -30 0 -42 21 -20 35 13 8 3 25 -16 25 -9 0 -14 -11 -14 -35z"/>
<path d="M6931 6188 c-24 -51 -26 -65 -8 -71 10 -4 10 -7 0 -18 -14 -14 -18
-49 -5 -49 4 1 18 7 31 14 18 10 32 11 53 4 32 -11 34 -17 14 -43 -12 -17 -13
-16 -20 10 -4 17 -11 24 -16 19 -6 -6 -5 -22 2 -42 13 -33 22 -39 33 -21 5 7
15 3 30 -11 23 -22 23 -22 34 -2 6 12 11 28 11 36 0 23 11 20 35 -11 14 -16
26 -23 34 -19 9 6 5 16 -16 38 -23 24 -25 30 -13 38 8 5 17 10 20 10 3 0 5 29
5 65 l0 65 -37 0 c-29 0 -36 3 -32 15 4 9 0 15 -10 15 -9 0 -16 -7 -16 -15 0
-8 -9 -15 -20 -15 -16 0 -20 -7 -20 -34 0 -19 -3 -42 -6 -51 -5 -12 -2 -16 12
-15 31 4 44 1 44 -10 0 -21 -63 -10 -85 14 -22 24 -23 25 -4 42 10 9 19 21 19
26 0 14 -22 9 -36 -9 -20 -28 -29 -7 -9 23 11 17 13 30 7 36 -6 6 -17 -6 -31
-34z m199 -18 c0 -5 -20 -10 -45 -10 -25 0 -45 5 -45 10 0 6 20 10 45 10 25 0
45 -4 45 -10z m-5 -40 c4 -6 -12 -10 -39 -10 -25 0 -46 5 -46 10 0 6 18 10 39
10 22 0 43 -4 46 -10z m-160 -30 c3 -5 -1 -10 -10 -10 -9 0 -13 5 -10 10 3 6
8 10 10 10 2 0 7 -4 10 -10z m155 -24 c-13 -13 -35 7 -25 24 5 8 11 8 21 -1
10 -8 12 -15 4 -23z m-58 -59 c-5 -20 -11 -24 -22 -17 -12 7 -11 12 5 29 22
26 26 23 17 -12z"/>
<path d="M8289 6218 c-1 -7 -1 -16 0 -20 0 -5 -6 -8 -14 -8 -8 0 -15 7 -15 15
0 8 -7 15 -15 15 -18 0 -19 -11 -2 -29 10 -11 8 -13 -10 -8 -13 3 -23 1 -23
-4 0 -5 14 -9 30 -9 17 0 30 -4 30 -9 0 -22 -33 -98 -56 -128 -29 -38 -25 -56
5 -29 13 12 19 13 17 4 -3 -27 19 -22 29 6 7 22 7 30 -3 34 -27 9 2 22 48 22
45 0 51 -3 65 -30 9 -16 20 -30 26 -30 6 0 7 -4 4 -10 -3 -5 -15 -10 -26 -10
-13 0 -19 7 -19 24 0 13 -7 29 -16 37 -13 11 -14 9 -8 -17 11 -45 22 -62 46
-70 28 -8 58 26 58 66 0 16 3 35 6 44 4 12 0 16 -16 16 -18 0 -21 4 -17 21 4
15 0 23 -14 26 -14 4 -17 11 -13 29 6 24 5 24 -36 18 -39 -6 -42 -6 -38 16 1
13 -3 25 -9 27 -7 3 -14 -1 -14 -9z m71 -63 c0 -10 -10 -15 -30 -15 -20 0 -30
5 -30 15 0 10 10 15 30 15 20 0 30 -5 30 -15z m28 -47 c-3 -8 -27 -14 -63 -16
-52 -3 -57 -1 -45 12 16 20 114 23 108 4z m32 -63 c0 -14 -2 -25 -4 -25 -2 0
-11 11 -20 25 -16 24 -16 25 4 25 15 0 20 -7 20 -25z"/>
<path d="M5221 6211 c-9 -6 -10 -10 -2 -12 14 -5 -23 -135 -46 -161 -21 -24
-2 -31 60 -23 81 11 90 19 84 71 -3 30 0 47 9 55 17 14 18 43 2 56 -19 15 -91
24 -107 14z m79 -41 c0 -19 -36 -47 -47 -36 -3 3 -3 17 1 31 8 31 46 36 46 5z
m-25 -63 c26 -20 13 -63 -21 -71 -36 -9 -39 -3 -25 44 13 44 18 47 46 27z"/>
<path d="M6700 6208 c0 -5 12 -8 26 -8 l27 0 -7 -62 c-8 -68 -23 -98 -69 -140
-33 -30 -18 -39 20 -13 38 27 62 78 69 148 7 66 8 68 33 65 31 -4 38 -31 22
-92 -6 -23 -13 -56 -16 -73 -6 -27 -11 -33 -33 -33 l-27 -1 25 -14 c14 -8 28
-14 32 -15 12 0 32 43 35 75 2 17 5 53 8 80 3 28 6 58 7 69 3 16 -5 18 -75 20
-42 0 -77 -2 -77 -6z"/>
<path d="M8525 6200 c5 -16 2 -20 -14 -20 -12 0 -21 -4 -21 -10 0 -5 25 -10
55 -10 30 0 55 5 55 10 0 6 -7 10 -15 10 -8 0 -24 9 -35 20 -11 11 -23 20 -26
20 -3 0 -2 -9 1 -20z"/>
<path d="M8640 6212 c0 -4 5 -13 12 -20 9 -9 6 -12 -15 -12 -15 0 -27 -4 -27
-10 0 -5 7 -10 15 -10 20 0 19 -6 -6 -41 -21 -30 -17 -54 7 -45 22 8 16 -7
-10 -26 -23 -17 -24 -16 -29 2 -3 13 -11 18 -21 14 -18 -7 -22 -24 -6 -24 5 0
8 -10 6 -22 -4 -31 -46 -38 -46 -9 0 11 5 23 10 26 8 5 7 11 -1 21 -19 23 -29
6 -29 -46 l0 -49 33 5 c49 9 59 13 52 23 -3 6 14 23 37 40 24 16 52 43 63 60
11 17 23 31 28 31 4 0 7 5 7 10 0 19 -38 10 -43 -10 -3 -12 -14 -20 -26 -20
l-22 0 23 30 c17 23 30 30 56 30 23 0 32 4 29 13 -2 6 -14 11 -27 9 -14 -1
-29 6 -37 18 -14 20 -33 27 -33 12z"/>
<path d="M6008 6194 c-28 -14 -63 -68 -61 -91 0 -7 1 -21 2 -31 3 -54 83 -81
136 -46 35 23 31 38 -5 19 -62 -32 -108 -4 -96 60 7 38 42 83 66 86 36 4 50
-2 50 -21 0 -32 27 -23 32 10 l5 30 -51 0 c-28 -1 -63 -7 -78 -16z"/>
<path d="M8822 6081 l3 -124 98 2 c60 1 104 -2 112 -9 7 -6 16 -7 18 -3 3 5 7
64 8 132 l2 123 -122 1 -122 2 3 -124z m66 74 c1 -14 -3 -25 -9 -25 -7 0 -10
-23 -7 -65 3 -60 -3 -75 -28 -75 -2 0 -4 43 -4 95 0 92 1 95 23 95 17 0 23 -6
25 -25z m85 18 c-7 -2 -19 -2 -25 0 -7 3 -2 5 12 5 14 0 19 -2 13 -5z m67 -93
c0 -59 -4 -100 -10 -100 -12 0 -17 26 -24 123 -5 72 -4 77 14 77 19 0 20 -7
20 -100z m-66 70 c-6 -6 -21 -6 -39 -1 -30 9 -30 9 10 10 25 1 36 -2 29 -9z
m-1 -27 c-13 -2 -35 -2 -50 0 -16 2 -5 4 22 4 28 0 40 -2 28 -4z m0 -30 c-7
-2 -21 -2 -30 0 -10 3 -4 5 12 5 17 0 24 -2 18 -5z m17 -22 c0 -8 -90 -5 -99
4 -2 3 19 5 47 5 29 0 52 -4 52 -9z m-5 -31 c4 -6 -13 -10 -44 -10 -28 0 -51
5 -51 10 0 6 20 10 44 10 25 0 48 -4 51 -10z m-9 -45 c17 -13 15 -14 -36 -14
-51 0 -53 1 -36 14 11 8 27 15 36 15 9 0 25 -7 36 -15z"/>
<path d="M9166 6186 c-3 -13 -15 -26 -26 -29 -19 -5 -21 -12 -18 -92 l3 -88
50 -1 50 -1 5 55 c3 30 13 70 23 88 15 28 23 32 57 32 l40 0 -1 -47 c0 -27 -3
-66 -7 -88 -7 -36 -11 -40 -35 -38 -32 2 -35 -7 -7 -24 41 -26 55 -4 65 102 3
33 8 73 10 89 4 25 2 28 -17 23 -11 -3 -33 -3 -48 0 -21 4 -26 10 -23 24 4 12
0 19 -9 19 -8 0 -21 -20 -30 -47 -10 -31 -16 -40 -17 -25 -1 17 -7 22 -27 22
-22 0 -24 2 -14 15 12 14 6 35 -10 35 -4 0 -11 -11 -14 -24z m40 -62 c-3 -9
-6 -20 -6 -25 0 -5 -13 -9 -30 -9 -18 0 -30 5 -30 13 0 20 22 37 48 37 18 0
23 -4 18 -16z m-11 -89 c0 -25 -4 -30 -25 -30 -28 0 -39 27 -19 51 20 24 44
13 44 -21z"/>
<path d="M9864 6196 c-5 -12 -20 -16 -60 -16 -30 0 -54 -4 -54 -10 0 -5 23
-10 50 -10 30 0 50 -4 50 -11 0 -7 -10 -9 -25 -7 l-25 5 0 -88 c0 -88 0 -89
-24 -89 -14 0 -28 -4 -31 -10 -4 -6 40 -10 124 -10 81 0 131 4 131 10 0 6 -12
10 -28 10 l-27 0 3 89 3 89 -43 -5 c-30 -4 -40 -2 -33 5 6 6 35 12 65 14 32 2
53 7 50 13 -3 6 -27 8 -53 7 -34 -3 -47 0 -45 8 4 19 -21 24 -28 6z m66 -86
c0 -5 -25 -10 -55 -10 -30 0 -55 5 -55 10 0 6 25 10 55 10 30 0 55 -4 55 -10z
m0 -46 c0 -12 -11 -15 -55 -13 -38 2 -55 7 -55 16 0 9 16 13 55 13 43 0 55 -3
55 -16z m0 -41 c0 -9 -18 -13 -55 -13 -48 0 -65 7 -51 21 2 2 27 4 55 4 34 0
51 -4 51 -12z m-5 -43 c4 -6 -15 -10 -49 -10 -31 0 -56 5 -56 10 0 6 22 10 49
10 28 0 53 -4 56 -10z"/>
<path d="M10110 6201 c0 -4 -11 -20 -25 -36 -37 -39 -26 -53 13 -17 21 20 39
28 52 25 24 -6 25 -12 5 -41 -14 -19 -14 -24 0 -52 16 -30 35 -40 35 -18 0 6
-7 19 -15 28 -13 14 -12 20 8 48 29 42 41 41 21 -2 -15 -31 -15 -35 1 -60 17
-25 35 -35 35 -18 0 4 -7 18 -16 30 -15 22 -15 25 5 46 12 12 18 26 14 29 -3
4 1 7 11 7 15 0 15 -2 1 -31 -15 -28 -15 -33 -1 -54 29 -44 22 -55 -39 -55
-36 0 -55 4 -55 12 0 9 -3 9 -11 1 -18 -18 -1 -33 32 -26 29 5 30 4 27 -23 -3
-26 -7 -29 -45 -32 -81 -6 -43 -22 51 -22 94 0 121 9 97 33 -8 8 -14 8 -23 -1
-12 -12 -50 -16 -60 -6 -16 15 7 44 38 50 19 3 34 10 34 14 0 18 -23 70 -31
70 -16 0 -10 14 21 47 39 41 27 49 -71 44 -48 -2 -79 1 -83 8 -8 13 -26 15
-26 2z"/>
<path d="M7710 6185 c6 -8 8 -20 4 -27 -5 -7 -9 -19 -10 -28 -2 -18 -23 -77
-35 -102 -14 -27 -12 -28 41 -28 54 0 100 16 100 36 0 7 3 19 6 27 3 8 -1 21
-9 28 -12 11 -11 16 6 29 15 12 18 23 14 42 -7 28 -30 38 -91 38 -33 0 -37 -2
-26 -15z m78 -17 c15 -15 -3 -48 -28 -48 -15 0 -19 6 -17 30 2 31 23 40 45 18z
m-13 -79 c13 -20 -5 -59 -30 -65 -37 -9 -44 2 -27 41 16 34 44 46 57 24z"/>
<path d="M7884 6184 c7 -17 -29 -153 -44 -168 -20 -20 -9 -26 44 -26 65 0 113
28 139 82 16 33 17 42 6 72 -11 31 -19 36 -61 46 -70 15 -91 13 -84 -6z m99
-32 c26 -23 21 -67 -10 -101 -32 -33 -93 -52 -93 -28 0 11 22 81 45 144 5 14
31 7 58 -15z"/>
<path d="M11414 6175 c-3 -14 -12 -25 -20 -25 -11 0 -14 -21 -14 -100 0 -60 4
-100 10 -100 6 0 10 5 10 11 0 8 14 10 40 6 26 -3 40 -1 41 6 1 7 2 30 3 52 0
23 11 56 24 78 21 33 29 37 63 37 l40 0 -6 -72 c-7 -99 -12 -111 -41 -105 -31
6 -31 -6 1 -23 35 -19 44 -6 55 71 17 128 17 144 -5 145 -11 1 -32 2 -46 3
-18 1 -26 6 -25 17 3 37 -22 22 -34 -21 -7 -25 -17 -45 -22 -45 -5 0 -7 4 -4
9 13 20 -5 38 -32 33 -24 -5 -25 -3 -14 11 8 9 11 21 7 27 -11 17 -24 11 -31
-15z m40 -54 c11 -18 -6 -41 -30 -41 -19 0 -24 5 -24 25 0 20 5 25 24 25 14 0
27 -4 30 -9z m-4 -96 c0 -31 -3 -35 -25 -35 -21 0 -25 5 -25 28 0 33 7 42 32
42 14 0 18 -8 18 -35z"/>
<path d="M11880 6179 c-14 -4 -43 -12 -65 -16 l-40 -7 43 -4 43 -3 -3 -71 c-2
-46 -7 -73 -15 -76 -10 -3 -13 13 -13 57 0 34 -4 61 -10 61 -5 0 -10 -22 -10
-49 0 -40 -4 -53 -22 -65 -16 -12 -18 -16 -7 -20 26 -9 154 -1 154 9 0 6 -12
9 -27 7 -26 -2 -28 0 -28 38 0 36 2 40 25 40 16 0 25 6 25 16 0 12 -6 15 -25
10 -23 -6 -25 -3 -25 24 0 25 4 30 25 30 16 0 25 6 25 15 0 16 -12 17 -50 4z"/>
<path d="M12012 6144 c-23 -46 -21 -70 4 -60 20 8 17 -4 -8 -31 -29 -31 -12
-53 27 -35 15 7 31 10 36 6 17 -10 22 27 5 44 -15 15 -16 15 -16 0 0 -18 -18
-34 -27 -24 -3 3 9 24 27 46 23 29 29 45 22 52 -7 7 -12 3 -17 -11 -3 -12 -15
-21 -25 -21 -17 0 -18 3 -8 25 6 14 15 25 19 25 4 0 9 7 13 15 3 10 -1 15 -12
15 -10 0 -26 -19 -40 -46z"/>
<path d="M12156 6175 c-3 -8 -15 -15 -26 -15 -17 0 -20 -6 -20 -51 0 -50 1
-51 25 -45 14 4 25 2 25 -3 0 -11 -30 -25 -47 -22 -7 1 -13 -3 -13 -9 0 -5 7
-10 15 -10 13 0 14 -4 4 -22 -10 -19 -12 -19 -21 -5 -10 18 -35 22 -57 8 -11
-7 -11 -13 4 -32 l17 -24 -5 28 c-2 15 -1 27 4 27 12 0 27 -33 22 -47 -9 -25
15 -13 46 22 31 35 31 35 31 10 0 -19 -5 -25 -22 -25 l-22 0 22 -21 c29 -26
42 -17 42 29 l1 37 16 -27 c19 -30 39 -42 55 -32 6 4 -2 17 -18 30 l-29 24 25
19 c22 18 23 22 11 45 -8 15 -12 39 -8 60 5 34 4 36 -23 36 -22 0 -28 4 -24
15 4 9 0 15 -9 15 -8 0 -17 -7 -21 -15z m54 -44 c0 -6 -17 -7 -37 -4 -52 8
-54 13 -5 13 23 0 42 -4 42 -9z m0 -31 c0 -5 -18 -10 -41 -10 -24 0 -38 4 -34
10 3 6 22 10 41 10 19 0 34 -4 34 -10z m5 -50 c0 -7 -6 -15 -12 -17 -8 -3 -13
4 -13 17 0 13 5 20 13 18 6 -3 12 -11 12 -18z"/>
<path d="M12406 6153 c-3 -21 -6 -51 -6 -66 0 -20 -4 -26 -12 -20 -7 4 -21 6
-32 4 -11 -2 -17 2 -14 11 3 7 15 14 27 16 12 2 20 9 18 15 -2 7 -14 11 -25 9
-31 -5 -18 24 14 32 37 10 30 30 -7 22 -17 -3 -35 -6 -38 -6 -4 0 -8 -34 -10
-76 -1 -43 -3 -82 -4 -88 -1 -6 13 -12 31 -14 30 -3 47 -22 19 -22 -19 0 -53
-27 -45 -35 13 -13 87 29 88 49 0 16 8 18 68 16 37 -2 73 -2 80 -1 18 2 15 21
-4 21 -13 0 -15 10 -10 64 3 34 6 69 8 77 2 8 -3 14 -9 13 -7 -1 -22 -2 -33
-2 -26 -2 -26 -22 0 -22 13 0 17 -5 14 -14 -4 -10 -20 -14 -50 -13 -46 2 -63
17 -18 17 16 0 24 5 21 13 -2 6 -14 11 -25 10 -15 -2 -20 2 -16 12 4 9 0 15
-9 15 -9 0 -17 -14 -21 -37z m44 -78 c0 -25 -4 -35 -16 -35 -10 0 -14 -6 -10
-15 3 -9 0 -15 -10 -15 -12 0 -14 5 -9 18 5 9 10 32 13 50 6 45 32 43 32 -3z
m70 5 c0 -14 -5 -17 -22 -12 -14 3 -19 2 -14 -6 4 -7 14 -12 22 -12 8 0 14 -9
14 -20 0 -16 -7 -20 -30 -20 -30 0 -31 1 -25 38 4 20 8 42 10 49 6 18 45 3 45
-17z m-134 -41 c3 -6 1 -16 -4 -21 -13 -13 -45 8 -36 23 7 12 31 11 40 -2z"/>
<path d="M13296 6165 c-4 -14 -13 -25 -21 -25 -12 0 -15 -18 -15 -100 0 -60 4
-100 10 -100 6 0 10 5 10 11 0 8 14 10 40 6 l40 -5 0 54 c0 39 6 64 23 89 19
30 28 35 61 35 l39 0 -6 -74 c-8 -97 -14 -109 -43 -102 -32 8 -30 -7 2 -25 23
-12 27 -11 39 4 7 10 16 46 20 80 3 34 8 79 11 101 6 35 5 38 -15 31 -12 -3
-35 -4 -52 0 -24 5 -29 11 -24 26 4 12 2 19 -7 19 -8 0 -20 -21 -28 -47 -11
-36 -15 -42 -18 -25 -2 16 -10 22 -29 22 -21 0 -23 2 -13 15 12 14 6 35 -10
35 -4 0 -11 -11 -14 -25z m44 -70 c0 -21 -5 -25 -30 -25 -25 0 -30 4 -30 25 0
21 5 25 30 25 25 0 30 -4 30 -25z m0 -80 c0 -32 -2 -35 -30 -35 -28 0 -30 3
-30 35 0 32 2 35 30 35 28 0 30 -3 30 -35z"/>
<path d="M1765 6143 c2 -21 4 -40 4 -42 1 -2 8 2 17 9 20 17 14 64 -8 68 -14
3 -16 -3 -13 -35z"/>
<path d="M10980 6171 c0 -5 -31 -50 -70 -100 -38 -49 -70 -93 -70 -96 0 -4 10
-5 23 -3 13 2 22 9 21 20 -2 23 41 62 60 55 17 -7 22 -47 6 -47 -5 0 -10 -4
-10 -10 0 -5 17 -10 38 -10 25 0 32 3 23 9 -10 7 -12 28 -6 100 5 64 4 91 -4
91 -6 0 -11 -4 -11 -9z m-18 -86 c-4 -26 -22 -35 -22 -12 0 10 18 37 26 37 1
0 -1 -11 -4 -25z"/>
<path d="M11074 6144 c-34 -36 -43 -75 -28 -130 12 -46 83 -57 129 -19 32 26
15 35 -19 10 -26 -19 -41 -19 -66 2 -45 39 -5 145 57 151 26 3 34 -2 46 -24
15 -29 20 -25 31 19 l6 27 -61 0 c-58 0 -64 -2 -95 -36z"/>
<path d="M11680 6170 c0 -5 11 -10 24 -10 25 0 25 -1 10 -35 -19 -45 -18 -46
12 -39 24 6 26 5 19 -17 -10 -34 -24 -57 -25 -41 0 6 -4 12 -10 12 -5 0 -7
-12 -4 -28 4 -20 0 -33 -15 -46 -11 -10 -18 -23 -15 -28 3 -5 17 0 30 13 23
21 24 21 51 4 30 -20 183 -28 190 -10 2 6 -26 10 -69 10 -91 0 -141 19 -132
49 3 11 12 31 20 43 20 32 18 63 -5 63 -14 0 -18 5 -14 20 3 11 9 20 13 20 4
0 10 7 14 15 4 12 -4 15 -44 15 -28 0 -50 -4 -50 -10z"/>
<path d="M12783 6143 c-1 -37 -29 -141 -43 -158 -6 -7 -7 -15 -3 -18 17 -10
78 -5 111 9 33 13 34 16 30 57 -3 28 -1 47 8 55 37 34 -3 82 -67 82 -33 0 -36
-3 -36 -27z m76 -7 c16 -19 4 -43 -25 -49 -27 -5 -28 0 -14 37 11 29 22 33 39
12z m-25 -72 c17 -6 21 -41 8 -60 -10 -16 -49 -27 -56 -16 -7 12 13 82 24 82
4 0 15 -3 24 -6z"/>
<path d="M12959 6169 c0 -2 -1 -22 -3 -44 -2 -36 -19 -84 -47 -138 -13 -24 9
-31 71 -24 61 7 95 29 109 69 29 82 2 128 -77 136 -29 2 -52 3 -53 1z m90 -35
c20 -15 23 -23 18 -61 -6 -52 -28 -78 -74 -88 -27 -5 -33 -4 -33 11 0 34 41
154 53 154 7 0 23 -7 36 -16z"/>
<path d="M10115 6141 c-3 -10 -19 -33 -36 -52 -29 -32 -29 -34 -10 -37 19 -3
21 -10 21 -63 0 -38 4 -58 10 -54 6 3 10 41 10 84 0 63 4 81 20 99 24 25 24
28 6 35 -9 4 -17 -1 -21 -12z"/>
<path d="M8503 6135 c2 -5 23 -11 46 -13 30 -2 42 0 39 9 -2 6 -23 12 -46 13
-24 1 -41 -3 -39 -9z"/>
<path d="M6432 6123 c24 -49 32 -63 40 -63 15 0 8 37 -10 53 -19 17 -36 23
-30 10z"/>
<path d="M8503 6096 c5 -14 33 -19 64 -11 35 8 21 19 -28 20 -23 1 -38 -3 -36
-9z"/>
<path d="M9660 6103 c0 -4 -49 -7 -110 -6 -63 2 -112 -2 -115 -7 -4 -6 42 -10
125 -10 97 0 131 3 128 12 -5 14 -28 23 -28 11z"/>
<path d="M10464 6096 c-10 -25 2 -43 31 -48 28 -6 39 7 33 39 -4 24 -56 31
-64 9z m46 -21 c0 -8 -7 -15 -15 -15 -8 0 -15 7 -15 15 0 8 7 15 15 15 8 0 15
-7 15 -15z"/>
<path d="M8699 6072 c-18 -36 -50 -72 -64 -72 -7 0 -20 -10 -31 -22 -18 -20
-18 -21 -1 -15 10 4 22 7 26 7 4 0 18 9 31 20 l23 20 21 -30 c12 -16 24 -30
29 -30 14 0 7 24 -13 45 -17 18 -19 27 -11 48 6 15 15 27 21 27 15 0 12 17 -4
23 -8 3 -19 -5 -27 -21z"/>
<path d="M9270 6091 c0 -5 7 -14 15 -21 8 -7 15 -19 15 -26 0 -8 5 -14 10 -14
15 0 12 22 -6 48 -15 22 -34 29 -34 13z"/>
<path d="M510 6075 c0 -8 7 -15 15 -15 8 0 15 7 15 15 0 8 -7 15 -15 15 -8 0
-15 -7 -15 -15z"/>
<path d="M11520 6083 c1 -5 11 -21 24 -37 16 -19 26 -24 31 -16 4 6 -3 22 -16
36 -22 24 -39 31 -39 17z"/>
<path d="M4187 6073 c-5 -7 -5 -13 -1 -13 4 0 -1 -9 -10 -19 -10 -11 -15 -25
-11 -31 10 -17 37 25 33 53 -2 15 -5 18 -11 10z"/>
<path d="M4220 6052 c0 -22 4 -32 12 -30 18 6 20 22 3 43 -14 19 -14 18 -15
-13z"/>
<path d="M13400 6073 c0 -5 11 -21 25 -38 22 -27 24 -28 25 -9 0 11 -8 28 -18
37 -20 18 -32 22 -32 10z"/>
<path d="M8300 6020 c0 -18 4 -29 10 -25 6 3 10 15 10 25 0 10 -4 22 -10 25
-6 4 -10 -7 -10 -25z"/>
<path d="M6940 6032 c0 -15 28 -47 35 -40 8 8 -13 48 -25 48 -6 0 -10 -4 -10
-8z"/>
<path d="M6910 6023 c1 -20 28 -55 34 -45 8 13 -10 52 -24 52 -6 0 -10 -3 -10
-7z"/>
<path d="M12007 5964 c9 -15 19 -21 21 -15 4 13 -16 41 -29 41 -5 0 -2 -12 8
-26z"/>
<path d="M12460 5982 c0 -7 30 -25 83 -50 4 -2 7 3 7 10 0 8 -16 22 -35 31
-39 19 -55 21 -55 9z"/>
<path d="M1490 5895 c0 -8 -9 -15 -20 -15 -18 0 -20 -7 -20 -55 0 -55 0 -55
26 -49 20 5 25 3 22 -7 -3 -8 -15 -14 -28 -14 -13 0 -25 -6 -28 -14 -3 -10 0
-12 12 -8 19 7 21 -4 4 -21 -9 -9 -16 -8 -30 5 -25 23 -34 9 -9 -16 13 -13 16
-21 8 -24 -7 -2 -8 -8 -4 -13 5 -5 21 5 38 24 l29 32 0 -26 c0 -19 -4 -25 -15
-20 -8 3 -15 2 -15 -3 0 -5 7 -14 15 -21 21 -17 45 4 45 38 l0 26 30 -29 c21
-20 33 -26 41 -18 7 7 2 15 -15 27 -31 20 -33 42 -6 51 22 7 26 20 10 30 -5 3
-10 28 -10 56 0 48 -1 49 -30 49 -22 0 -28 4 -24 15 4 9 0 15 -10 15 -9 0 -16
-7 -16 -15z m55 -45 c4 -6 -10 -10 -34 -10 -23 0 -41 5 -41 10 0 6 15 10 34
10 19 0 38 -4 41 -10z m-5 -40 c0 -5 -16 -10 -35 -10 -19 0 -35 5 -35 10 0 6
16 10 35 10 19 0 35 -4 35 -10z m10 -45 c0 -8 -4 -15 -9 -15 -13 0 -22 16 -14
24 11 11 23 6 23 -9z"/>
<path d="M1700 5881 c0 -26 -4 -31 -25 -31 -30 0 -34 -17 -5 -22 21 -3 21 -4
-4 -53 -30 -59 -33 -79 -7 -47 11 12 22 22 25 22 3 0 6 -25 6 -56 0 -40 4 -55
13 -52 7 3 14 32 17 79 3 49 7 66 12 50 4 -13 11 -20 17 -16 7 4 11 -14 11
-54 0 -48 3 -61 15 -61 8 0 15 5 15 10 0 6 18 10 40 10 22 0 40 -4 40 -10 0
-5 6 -10 14 -10 11 0 14 26 15 125 l2 125 -66 0 -65 0 0 -39 c0 -22 -3 -46 -6
-54 -5 -14 -8 -13 -25 1 -25 21 -24 32 2 32 12 0 19 5 16 13 -2 6 -12 11 -21
9 -14 -3 -17 3 -14 24 2 16 -2 29 -9 31 -9 3 -13 -6 -13 -26z m175 -31 c0 -10
-13 -16 -42 -18 -38 -3 -43 -1 -43 18 0 19 5 21 43 18 29 -2 42 -8 42 -18z m0
-70 c0 -22 -4 -25 -40 -25 -36 0 -40 3 -43 28 -3 27 -2 28 40 25 38 -3 43 -6
43 -28z m1 -72 c-1 -20 -7 -23 -43 -26 -40 -3 -43 -1 -43 22 0 24 3 26 44 26
39 0 43 -2 42 -22z"/>
<path d="M1035 5890 c-4 -6 5 -10 19 -10 30 0 31 -5 11 -40 -20 -35 -19 -40 9
-40 22 0 23 -3 17 -27 -5 -19 -14 -27 -25 -25 -13 2 -15 -2 -10 -22 4 -17 1
-31 -10 -41 -9 -9 -16 -21 -16 -26 0 -16 19 -10 32 10 11 18 12 18 42 0 23
-14 50 -19 103 -19 102 0 100 17 -2 21 -114 5 -127 17 -96 89 24 55 21 74 -11
64 -19 -6 -19 -5 -4 18 13 20 22 23 56 20 l40 -4 0 -69 c0 -57 -3 -69 -16 -69
-15 0 -16 8 -11 60 4 33 3 60 -2 60 -10 0 -21 -49 -21 -91 0 -19 -5 -29 -15
-29 -8 0 -15 -4 -15 -10 0 -6 37 -10 91 -10 68 0 90 3 86 13 -2 7 -18 11 -41
9 l-37 -3 3 38 c3 35 6 38 38 43 23 3 31 8 22 13 -7 5 -21 5 -32 2 -17 -5 -20
-2 -20 24 0 24 5 32 25 37 38 9 31 28 -7 20 -79 -16 -118 -19 -118 -7 0 14
-76 15 -85 1z"/>
<path d="M1367 5865 c-20 -41 -22 -65 -6 -65 7 0 5 -9 -5 -24 -9 -14 -13 -32
-10 -40 5 -14 9 -14 35 0 16 8 34 12 39 9 6 -3 10 3 10 13 0 24 -26 36 -34 16
-3 -8 -10 -14 -17 -14 -6 0 3 18 20 39 17 21 31 44 31 50 0 16 -20 13 -26 -4
-4 -8 -13 -15 -21 -15 -11 0 -10 6 6 29 24 34 26 41 8 41 -7 0 -21 -16 -30
-35z"/>
<path d="M2066 5885 c5 -12 -4 -15 -50 -15 -31 0 -56 -4 -56 -10 0 -5 16 -10
35 -10 43 0 44 -12 5 -42 -30 -22 -39 -38 -20 -38 16 0 80 61 74 71 -3 5 33 9
81 9 65 0 86 3 82 13 -2 8 -21 11 -60 9 -45 -3 -58 0 -63 12 -3 9 -12 16 -20
16 -8 0 -11 -6 -8 -15z"/>
<path d="M2305 5880 c5 -16 2 -20 -19 -20 -14 0 -26 -4 -26 -10 0 -5 9 -10 20
-10 20 0 21 -4 14 -62 -3 -35 -12 -78 -20 -95 -7 -18 -9 -33 -4 -33 14 0 37
50 45 98 10 62 25 51 25 -18 0 -54 -2 -60 -21 -60 -27 0 -20 -24 8 -28 23 -3
27 5 38 74 4 25 16 51 31 65 13 12 24 28 24 34 0 6 6 20 14 30 13 18 15 16 35
-23 15 -29 28 -42 42 -42 18 0 17 4 -14 43 -20 23 -35 44 -34 47 0 3 -2 11 -4
19 -8 22 -22 8 -49 -48 -24 -48 -40 -64 -40 -40 0 7 -10 9 -25 5 -20 -5 -25
-3 -25 14 0 16 7 20 36 20 31 0 35 2 24 14 -6 8 -18 12 -25 10 -7 -3 -18 4
-25 15 -14 27 -33 27 -25 1z"/>
<path d="M3470 5876 c0 -11 -9 -13 -35 -9 -23 4 -35 2 -35 -6 0 -6 15 -11 34
-11 21 0 36 -6 40 -15 3 -8 10 -15 16 -15 5 0 10 7 10 15 0 8 7 15 15 15 8 0
15 5 15 10 0 6 -7 10 -15 10 -8 0 -15 5 -15 10 0 6 -7 10 -15 10 -8 0 -15 -6
-15 -14z"/>
<path d="M3580 5880 c0 -5 -7 -10 -15 -10 -8 0 -15 -7 -15 -16 0 -8 5 -12 10
-9 6 3 10 -1 10 -9 0 -9 5 -16 10 -16 6 0 10 7 10 15 0 12 9 15 36 13 24 -2
39 2 41 10 4 10 -3 12 -31 7 -29 -6 -36 -4 -36 9 0 9 -4 16 -10 16 -5 0 -10
-4 -10 -10z"/>
<path d="M2786 5873 c-17 -3 -25 -8 -18 -12 12 -7 -20 -134 -41 -159 -15 -18
-7 -22 65 -26 65 -5 66 -4 78 25 16 37 6 49 -17 21 -10 -11 -33 -23 -52 -27
l-34 -7 8 38 c9 49 11 51 36 35 25 -15 25 -15 34 27 l7 34 -28 -18 -27 -19 6
35 c4 18 9 35 11 37 7 7 56 -9 56 -18 0 -5 5 -9 10 -9 6 0 10 9 10 20 0 14 -7
20 -24 20 -13 0 -30 2 -38 3 -7 2 -26 2 -42 0z"/>
<path d="M5423 5862 c-77 -3 -112 -17 -60 -24 20 -3 22 -8 21 -60 -1 -57 -6
-69 -56 -130 -12 -15 -18 -31 -14 -35 10 -10 63 55 83 103 l17 40 23 -45 c25
-50 23 -53 -39 -73 -21 -6 -38 -15 -38 -20 0 -13 58 0 92 20 25 15 30 14 72
-9 34 -18 48 -21 57 -12 8 8 -1 16 -36 32 l-47 21 21 26 c12 15 21 33 21 40 0
8 5 14 10 14 6 0 10 9 10 20 0 17 -4 19 -26 14 -25 -6 -26 -5 -22 22 3 16 7
35 9 43 5 17 2 17 -98 13z m67 -39 c0 -25 -12 -40 -35 -46 -11 -2 1 -5 28 -6
26 0 47 -4 47 -8 0 -18 -42 -74 -52 -71 -19 7 -58 88 -58 120 0 25 3 28 35 28
27 0 35 -4 35 -17z"/>
<path d="M4017 5848 c-2 -7 -34 -50 -70 -95 -36 -45 -63 -84 -59 -87 13 -13
32 -4 44 22 15 31 68 45 68 18 0 -8 -4 -18 -10 -21 -19 -12 -10 -25 18 -25
l27 0 2 100 c2 89 -6 123 -20 88z m-14 -80 c-3 -16 -12 -28 -19 -28 -18 0 -18
6 4 35 21 28 22 27 15 -7z"/>
<path d="M4123 5846 c8 -22 -33 -159 -52 -173 -13 -10 -6 -12 45 -13 45 0 68
5 84 18 25 20 34 63 16 74 -7 4 -4 13 7 26 23 25 22 59 -2 72 -11 5 -38 10
-61 10 -33 0 -41 -3 -37 -14z m75 -18 c16 -16 -3 -48 -28 -48 -22 0 -23 3 -14
38 7 24 23 29 42 10z m-12 -85 c11 -15 9 -21 -8 -40 -12 -13 -30 -23 -41 -23
-16 0 -18 5 -12 27 13 52 38 67 61 36z"/>
<path d="M4603 5840 c-41 -24 -53 -48 -53 -102 0 -76 53 -115 93 -70 36 39 10
130 -32 119 -18 -4 -19 -2 -10 14 6 11 21 25 35 31 26 12 32 28 12 28 -7 0
-27 -9 -45 -20z m27 -126 c0 -40 -18 -54 -37 -29 -16 24 -17 72 0 78 21 7 37
-14 37 -49z"/>
<path d="M5931 5755 c-41 -52 -78 -95 -83 -95 -5 0 -6 -4 -3 -10 3 -5 18 -10
32 -10 19 0 24 4 19 16 -9 24 12 44 46 44 30 0 30 0 14 -24 -19 -30 -8 -40 36
-31 19 5 26 10 18 15 -9 5 -10 31 -5 99 4 50 6 91 4 91 -2 0 -37 -43 -78 -95z
m30 -28 c-17 -17 -24 -1 -10 25 12 21 14 21 17 4 2 -10 -1 -23 -7 -29z"/>
<path d="M6682 5843 c-21 -8 -42 -59 -42 -103 0 -122 93 -137 114 -19 12 67
-29 137 -72 122z m36 -83 c4 -66 -4 -100 -23 -100 -19 0 -29 58 -20 116 5 35
10 44 23 42 13 -2 18 -16 20 -58z"/>
<path d="M7780 5775 c0 -38 -3 -80 -6 -92 -5 -18 -2 -23 12 -23 15 0 15 -3 -5
-24 -13 -14 -21 -30 -19 -36 2 -7 20 6 41 29 30 34 42 40 62 35 l25 -6 0 93 0
94 -55 0 -55 0 0 -70z m88 33 c4 -19 -21 -24 -52 -12 -28 11 -17 30 16 29 23
0 34 -5 36 -17z m0 -55 c3 -20 -1 -23 -32 -23 -32 0 -36 3 -36 26 0 23 3 25
33 22 24 -2 33 -8 35 -25z m2 -53 c0 -5 -11 -10 -25 -10 -14 0 -28 -1 -32 -2
-3 -2 -8 3 -10 10 -3 8 7 12 31 12 20 0 36 -4 36 -10z"/>
<path d="M7989 5828 c-1 -12 -1 -65 0 -117 l2 -93 -31 4 c-16 3 -30 1 -30 -3
0 -10 62 -31 69 -23 3 3 7 54 8 114 1 59 4 113 5 120 2 7 -3 15 -9 17 -8 3
-13 -5 -14 -19z"/>
<path d="M8325 5832 c6 -15 -32 -151 -46 -166 -19 -21 -6 -27 53 -24 56 3 64
6 78 30 11 21 12 32 4 46 -9 14 -8 23 7 41 24 29 24 44 2 63 -24 21 -106 29
-98 10z m72 -27 c5 -16 -22 -55 -39 -55 -9 0 -11 31 -2 54 8 20 33 21 41 1z
m-19 -107 c3 -22 -2 -29 -23 -34 -33 -8 -37 -4 -29 35 5 25 11 31 28 29 14 -2
22 -11 24 -30z"/>
<path d="M2120 5830 c0 -5 8 -14 18 -19 16 -10 16 -10 -1 -11 -10 0 -22 -11
-27 -24 -14 -37 -28 -39 -45 -6 -8 16 -20 30 -25 30 -14 0 -13 -5 10 -49 18
-37 18 -39 2 -54 -10 -9 -36 -24 -57 -33 -22 -9 -34 -19 -27 -21 21 -8 59 6
90 32 18 15 33 21 37 16 12 -20 97 -51 112 -42 12 6 2 14 -41 34 -31 14 -56
31 -56 37 0 7 9 24 20 40 15 21 26 26 47 23 l28 -4 -33 30 c-33 31 -52 39 -52
21z"/>
<path d="M6088 5832 c10 -7 8 -25 -9 -90 -12 -45 -26 -82 -31 -82 -4 0 -8 -4
-8 -10 0 -6 30 -10 70 -10 67 0 71 1 81 26 12 32 4 44 -14 21 -6 -10 -30 -20
-51 -24 -39 -6 -39 -6 -32 23 4 16 13 35 19 42 9 12 14 10 28 -7 16 -20 17
-20 23 11 9 47 7 52 -13 34 -23 -21 -36 -7 -27 30 5 18 13 24 35 24 18 0 32
-7 36 -17 7 -17 8 -16 15 2 14 34 12 35 -62 35 -41 0 -67 -4 -60 -8z"/>
<path d="M6540 5830 c-10 -6 -11 -10 -2 -10 16 0 17 -151 0 -168 -9 -9 -5 -12
19 -12 18 0 35 5 38 10 3 6 -1 10 -9 10 -13 0 -16 15 -16 90 0 91 -3 98 -30
80z"/>
<path d="M8486 5816 c7 -30 -31 -166 -47 -166 -6 0 -7 -4 -4 -10 9 -15 102
-12 135 5 43 22 70 63 70 105 0 51 -30 76 -103 85 l-58 7 7 -26z m98 -17 c35
-28 35 -69 -1 -109 -31 -34 -93 -52 -93 -28 0 18 29 118 41 141 12 22 21 22
53 -4z"/>
<path d="M3503 5811 c-4 -18 -13 -21 -54 -21 -27 0 -49 -4 -49 -10 0 -5 18
-10 40 -10 24 0 40 -5 40 -12 0 -6 -18 -29 -41 -50 -46 -44 -45 -64 1 -29 l30
22 0 -33 0 -33 82 2 82 2 3 44 3 45 -59 -5 c-77 -7 -96 -1 -79 27 11 17 23 20
97 20 67 0 82 3 73 12 -8 8 -37 12 -82 9 -59 -2 -69 0 -64 12 3 8 0 18 -6 22
-7 4 -14 -2 -17 -14z m110 -123 c9 -33 1 -38 -59 -38 -39 0 -56 4 -60 15 -13
33 4 45 60 45 47 0 54 -3 59 -22z"/>
<path d="M7920 5740 c0 -53 4 -90 10 -90 6 0 10 12 11 28 0 15 3 55 5 90 4 51
2 62 -11 62 -12 0 -15 -16 -15 -90z"/>
<path d="M3070 5772 c0 -34 24 -49 47 -31 23 20 12 54 -19 57 -25 3 -28 0 -28
-26z m32 -14 c-9 -9 -12 -7 -12 12 0 19 3 21 12 12 9 -9 9 -15 0 -24z"/>
<path d="M4775 5792 c-4 -4 -13 -22 -21 -41 -11 -25 -11 -37 -3 -47 6 -8 8
-14 4 -14 -5 0 0 -9 10 -20 10 -11 26 -20 36 -20 18 0 63 49 54 58 -3 3 -11
-3 -18 -12 -10 -13 -20 -16 -35 -12 -30 10 -39 51 -17 76 22 24 35 26 35 5 0
-8 7 -15 15 -15 18 0 20 24 3 37 -16 11 -53 14 -63 5z"/>
<path d="M4885 5790 c-5 -8 -7 -36 -6 -63 1 -26 -3 -55 -9 -63 -11 -12 -7 -14
25 -14 31 0 36 2 26 14 -7 8 -11 34 -9 58 2 35 7 43 23 43 17 0 20 -8 23 -47
2 -29 -1 -48 -7 -48 -6 0 -11 -4 -11 -10 0 -5 13 -10 29 -10 27 0 28 1 24 48
-4 54 8 82 29 65 14 -12 15 -64 3 -95 -6 -14 -2 -18 17 -18 24 0 24 2 20 58
-5 60 -27 101 -46 82 -13 -13 -46 -13 -46 0 0 15 -19 12 -37 -5 -14 -14 -16
-14 -28 1 -10 14 -14 14 -20 4z"/>
<path d="M2445 5760 c15 -16 32 -27 37 -24 12 8 -31 54 -51 54 -10 0 -6 -9 14
-30z"/>
<path d="M6890 5782 c-24 -7 -50 -45 -50 -72 0 -61 63 -93 94 -48 17 24 13 39
-6 20 -19 -19 -36 -14 -52 16 -13 25 -12 30 5 52 18 23 20 24 30 8 12 -21 29
-24 29 -5 0 16 -31 35 -50 29z"/>
<path d="M4320 5768 c0 -9 21 -13 70 -13 49 0 70 4 70 13 0 8 -21 12 -70 12
-49 0 -70 -4 -70 -12z"/>
<path d="M6980 5771 c-11 -4 -15 -22 -15 -69 l0 -62 30 0 c22 0 26 3 17 12
-19 19 -15 95 4 102 22 8 25 4 34 -44 6 -30 4 -45 -7 -56 -13 -12 -11 -14 14
-14 27 0 28 2 28 52 0 48 2 53 23 56 23 3 23 1 21 -55 -3 -53 -1 -58 19 -61
15 -2 22 2 22 12 0 9 -4 16 -9 16 -4 0 -8 8 -8 18 0 86 -2 92 -31 92 -15 0
-33 -5 -40 -12 -9 -9 -12 -9 -12 1 0 9 -11 12 -35 9 -19 -2 -36 -1 -37 3 -2 3
-10 4 -18 0z"/>
<path d="M7443 5748 c2 -7 7 -13 12 -13 5 0 10 6 13 13 2 6 -4 12 -13 12 -9 0
-15 -6 -12 -12z"/>
<path d="M6300 5740 c0 -6 29 -9 70 -8 39 1 70 5 70 10 0 4 -31 8 -70 8 -40 0
-70 -4 -70 -10z"/>
<path d="M8793 5742 c-40 -2 -73 -7 -73 -12 0 -13 147 -13 155 -1 8 14 -4 16
-82 13z"/>
<path d="M1380 5712 c0 -18 12 -42 21 -42 14 0 10 26 -6 40 -9 8 -15 8 -15 2z"/>
<path d="M4320 5710 c0 -6 30 -10 70 -10 40 0 70 4 70 10 0 6 -30 10 -70 10
-40 0 -70 -4 -70 -10z"/>
<path d="M1350 5697 c0 -23 11 -47 21 -47 15 0 10 37 -6 50 -12 10 -15 10 -15
-3z"/>
<path d="M2441 5675 c37 -38 49 -43 49 -21 0 18 -47 56 -68 56 -10 0 -3 -12
19 -35z"/>
<path d="M6300 5690 c0 -6 30 -10 70 -10 40 0 70 4 70 10 0 6 -30 10 -70 10
-40 0 -70 -4 -70 -10z"/>
<path d="M8720 5681 c0 -11 64 -22 100 -17 14 2 31 4 38 5 6 0 12 6 12 11 0 6
-32 10 -75 10 -41 0 -75 -4 -75 -9z"/>
<path d="M7850 5652 c0 -13 31 -52 40 -52 14 0 -10 48 -26 54 -8 3 -14 2 -14
-2z"/>
<path d="M1904 5085 c-11 -24 -22 -45 -26 -45 -4 0 -5 -7 -2 -15 4 -8 1 -15
-4 -15 -6 0 -14 -10 -18 -22 -3 -13 -13 -31 -22 -40 -14 -17 -12 -18 23 -18
32 0 36 2 25 15 -19 23 6 47 44 43 27 -3 31 -7 29 -30 -2 -26 1 -28 33 -28 31
0 47 14 24 22 -5 2 -23 41 -39 88 -16 46 -33 86 -39 88 -5 1 -18 -18 -28 -43z
m35 -62 c1 -15 -35 -17 -44 -3 -3 6 -2 10 4 10 5 0 13 10 17 23 7 21 7 21 15
2 4 -11 8 -26 8 -32z"/>
<path d="M2707 5102 c-20 -22 -12 -35 13 -20 21 14 50 4 50 -16 0 -9 -12 -22
-27 -30 l-28 -14 28 -13 c18 -8 27 -20 27 -35 0 -19 -6 -23 -37 -26 -44 -4
-51 -22 -10 -26 44 -5 77 22 77 63 0 18 -4 36 -9 39 -5 4 -5 18 2 35 8 23 8
33 -2 45 -18 22 -64 20 -84 -2z"/>
<path d="M2907 5042 c-36 -40 -11 -122 36 -122 20 0 57 35 57 53 -1 7 -6 5
-14 -5 -7 -10 -18 -18 -24 -18 -19 0 -42 31 -42 56 0 30 29 44 42 21 13 -24
30 -21 26 6 -4 30 -57 36 -81 9z"/>
<path d="M3015 5050 c-3 -5 -1 -11 4 -15 6 -3 9 -30 7 -60 -3 -53 -2 -55 22
-55 20 0 22 3 13 14 -19 23 -10 90 13 94 10 2 22 -2 27 -10 12 -18 11 -65 -1
-73 -19 -12 -10 -25 18 -25 27 0 27 1 24 55 -4 50 -2 55 17 55 18 0 21 -6 21
-43 0 -24 -5 -48 -12 -55 -9 -9 -5 -12 18 -12 l31 0 -5 58 c-2 31 -9 63 -14
70 -13 15 -44 16 -53 2 -4 -7 -11 -7 -18 -2 -15 12 -105 13 -112 2z"/>
<path d="M3497 5034 c-13 -13 -7 -52 8 -58 27 -10 46 5 43 33 -3 26 -35 41
-51 25z m33 -30 c0 -17 -22 -14 -28 4 -2 7 3 12 12 12 9 0 16 -7 16 -16z"/>
<path d="M13220 4932 c-55 -73 -110 -152 -110 -158 0 -3 10 -4 23 -2 12 2 21
9 19 17 -4 20 18 41 44 41 25 0 32 -18 13 -37 -16 -16 6 -26 37 -19 20 5 23
10 15 20 -8 10 -8 34 0 90 7 45 8 81 3 86 -5 4 -24 -12 -44 -38z m10 -51 c0
-5 -7 -14 -15 -21 -12 -10 -15 -10 -15 2 0 8 3 18 7 21 9 10 23 9 23 -2z"/>
<path d="M2040 4944 c0 -9 7 -14 17 -12 25 5 28 28 4 28 -12 0 -21 -6 -21 -16z"/>
<path d="M12944 4649 c-149 -93 -328 -199 -337 -199 -7 0 -161 -96 -412 -258
-11 -6 -27 -15 -35 -19 -8 -4 -46 -26 -85 -49 -38 -23 -80 -45 -92 -49 -13 -3
-23 -11 -23 -16 0 -5 -6 -9 -14 -9 -7 0 -24 -9 -37 -19 -14 -10 -63 -41 -109
-68 -133 -78 -369 -221 -440 -268 -36 -23 -103 -62 -150 -87 -47 -25 -114 -64
-150 -87 -36 -22 -82 -50 -103 -62 -22 -11 -60 -35 -85 -53 -48 -34 -227 -139
-317 -186 -60 -31 -139 -82 -143 -92 -2 -5 -7 -8 -12 -8 -7 0 -271 -157 -560
-335 -52 -32 -120 -71 -150 -88 -30 -16 -98 -56 -150 -89 -164 -104 -436 -265
-458 -272 -12 -4 -22 -12 -22 -17 0 -5 -7 -9 -15 -9 -8 0 -23 -8 -33 -17 -10
-10 -38 -29 -62 -42 -25 -14 -56 -32 -70 -42 -14 -9 -95 -58 -180 -109 -243
-144 -403 -245 -407 -257 -2 -6 11 -13 29 -16 18 -3 361 -6 762 -6 402 -1 732
-4 734 -6 3 -3 8 -46 13 -97 32 -384 191 -720 474 -1003 291 -292 692 -456
1120 -458 238 -1 383 24 610 103 245 85 488 261 681 493 41 48 90 113 110 144
59 93 150 283 174 363 12 41 26 89 31 105 40 122 48 268 54 960 18 2236 18
2305 3 2305 -8 0 -72 -36 -144 -81z m121 -761 c-3 -436 -8 -865 -10 -953 -3
-88 -5 -290 -6 -450 l-1 -290 -18 70 c-40 161 -133 360 -237 508 -66 93 -247
280 -348 358 -127 99 -269 178 -400 224 -27 9 -59 21 -70 25 -11 5 -63 18
-115 30 -52 12 -109 26 -126 31 -77 23 -394 37 -394 18 0 -4 -8 -5 -17 -3 -44
11 -341 -58 -440 -101 -60 -27 -68 -26 -20 3 17 10 84 52 147 92 63 40 162 98
220 130 58 31 148 84 200 116 203 128 249 155 365 220 66 37 124 74 128 81 4
7 14 13 22 13 7 0 20 6 27 13 8 6 32 21 53 33 72 38 264 152 353 211 48 32 95
62 104 68 9 5 48 29 87 53 38 23 74 42 79 42 6 0 12 3 14 8 2 4 17 14 33 23
54 28 120 64 130 72 28 21 115 77 120 77 2 0 28 16 57 34 29 19 57 35 61 35 5
1 6 -356 2 -791z m-1390 -473 c33 -7 95 -21 138 -30 179 -38 360 -112 508
-208 136 -87 328 -269 432 -409 64 -85 168 -273 202 -365 47 -124 94 -370 95
-490 l0 -53 -652 0 c-359 0 -1078 -2 -1597 -5 l-944 -5 6 103 c10 199 70 419
160 587 77 146 186 304 249 361 10 9 18 20 19 25 1 17 262 228 334 269 63 37
162 85 243 119 68 29 279 86 317 86 13 0 26 4 29 9 4 5 22 8 40 7 19 -2 40 1
48 5 22 14 307 10 373 -6z m-1310 -371 c-98 -86 -161 -158 -245 -282 -50 -73
-94 -140 -97 -150 -4 -9 -19 -37 -34 -62 -75 -123 -146 -391 -164 -617 l-7
-82 -676 0 c-373 0 -697 3 -720 7 l-44 7 69 40 c37 22 94 57 126 78 93 62 387
237 398 237 5 0 9 5 9 11 0 5 4 8 9 4 6 -3 13 1 18 8 4 7 33 26 63 41 30 16
62 34 70 40 8 7 53 35 100 62 102 59 102 59 185 109 37 22 75 45 84 50 9 6 53
33 96 61 44 28 100 62 125 75 25 14 88 50 140 82 52 32 124 76 160 98 36 21
72 43 80 49 73 46 282 168 290 169 3 0 -13 -15 -35 -35z m2681 -1282 c-11
-148 -45 -310 -91 -432 -9 -25 -19 -54 -22 -65 -4 -11 -9 -22 -13 -25 -4 -3
-21 -36 -39 -73 -117 -255 -431 -575 -695 -706 -248 -125 -505 -179 -798 -168
-175 7 -256 19 -383 57 -38 11 -91 27 -116 34 -133 38 -382 188 -522 314 -132
118 -288 330 -366 496 -82 174 -140 410 -141 568 l0 58 608 2 c334 2 1052 4
1595 5 l988 3 -5 -68z"/>
<path d="M1825 4371 c-3 -5 -1 -12 5 -16 5 -3 10 -40 10 -82 0 -60 -4 -78 -17
-89 -16 -11 -7 -13 59 -14 68 0 79 2 92 22 20 29 20 47 -1 70 -13 14 -14 21
-5 30 18 18 14 46 -8 68 -15 15 -33 20 -74 20 -30 0 -57 -4 -61 -9z m115 -51
c0 -23 -24 -43 -47 -38 -21 4 -29 43 -13 63 15 18 60 -1 60 -25z m7 -76 c10
-26 -11 -49 -43 -49 -25 0 -29 4 -32 33 -3 31 -2 32 33 32 24 0 38 -5 42 -16z"/>
<path d="M2715 4340 c-20 -38 -15 -54 22 -72 51 -24 36 -85 -19 -74 -30 6 -49
-11 -27 -25 31 -19 64 -9 88 27 30 43 21 81 -22 102 -23 11 -26 16 -16 28 6 8
23 14 36 14 36 0 23 24 -15 28 -26 3 -33 -2 -47 -28z"/>
<path d="M2914 4292 c-26 -17 -35 -52 -24 -87 17 -52 68 -62 96 -20 20 30 12
44 -11 21 -9 -9 -20 -16 -24 -16 -31 0 -44 86 -15 97 10 4 20 0 26 -10 12 -23
28 -21 28 3 0 16 -7 20 -32 20 -18 0 -38 -4 -44 -8z"/>
<path d="M3015 4290 c-3 -5 -1 -11 4 -14 16 -10 11 -89 -7 -103 -15 -11 -12
-12 23 -13 30 0 36 3 27 12 -17 17 -15 83 3 98 26 21 38 1 33 -56 -5 -53 -4
-54 21 -54 25 0 26 2 22 51 -3 50 10 76 31 63 13 -8 9 -89 -4 -102 -9 -9 -5
-12 18 -12 l31 0 -5 58 c-2 31 -9 63 -14 70 -13 15 -44 16 -53 2 -5 -7 -11 -8
-18 -1 -15 12 -105 13 -112 1z"/>
<path d="M3487 4273 c-4 -3 -7 -16 -7 -29 0 -15 7 -23 25 -26 30 -6 35 -2 35
34 0 23 -4 28 -23 28 -13 0 -27 -3 -30 -7z m33 -21 c0 -13 -12 -22 -22 -16
-10 6 -1 24 13 24 5 0 9 -4 9 -8z"/>
<path d="M2020 4186 c0 -15 24 -28 34 -19 13 14 5 33 -14 33 -11 0 -20 -6 -20
-14z"/>
<path d="M1840 3591 c-32 -32 -40 -79 -19 -123 11 -26 61 -58 88 -58 25 0 71
38 71 57 0 14 -2 14 -18 0 -10 -10 -35 -17 -55 -17 -30 0 -39 5 -52 30 -42 82
50 164 104 93 l20 -28 1 36 0 36 -55 2 c-50 1 -59 -2 -85 -28z"/>
<path d="M2763 3610 c-45 -10 -59 -24 -77 -76 -11 -33 -12 -52 -5 -73 12 -33
54 -67 64 -51 4 6 10 8 15 5 13 -8 40 41 40 73 0 29 -21 47 -63 54 -16 3 -16
5 -2 26 9 12 25 22 35 22 17 0 37 17 29 24 -2 1 -19 0 -36 -4z m-3 -116 c14
-37 -4 -68 -30 -54 -29 15 -28 80 0 80 13 0 24 -10 30 -26z"/>
<path d="M2905 3535 c-30 -30 -32 -64 -4 -99 22 -29 45 -32 72 -12 25 19 23
40 -3 24 -31 -19 -55 11 -51 65 1 18 41 25 41 7 0 -5 7 -10 15 -10 25 0 17 30
-11 40 -33 13 -31 14 -59 -15z"/>
<path d="M3014 3538 c-3 -5 -1 -14 4 -21 9 -10 9 -49 0 -87 -2 -7 8 -14 22
-16 14 -2 42 -6 62 -9 20 -3 40 -1 43 5 3 5 1 10 -5 10 -7 0 -10 17 -8 47 2
37 7 49 21 51 17 3 19 -2 15 -52 -3 -54 -2 -56 22 -56 25 0 26 1 20 58 -3 31
-9 62 -13 69 -8 13 -175 14 -183 1z m81 -63 c0 -43 -3 -50 -20 -50 -24 0 -35
39 -22 78 6 18 15 27 26 25 12 -3 16 -15 16 -53z"/>
<path d="M3477 3523 c-11 -10 -8 -38 5 -51 17 -17 48 4 48 33 0 20 -5 25 -23
25 -13 0 -27 -3 -30 -7z m33 -18 c0 -8 -7 -15 -15 -15 -26 0 -18 20 13 29 1 1
2 -6 2 -14z"/>
<path d="M10530 3491 c0 -5 -8 -11 -18 -13 -24 -7 -52 -67 -52 -111 0 -66 80
-100 131 -57 26 21 11 27 -22 9 -25 -13 -56 -3 -70 23 -19 35 7 107 47 125 37
18 64 12 71 -17 3 -11 9 -20 13 -20 10 0 22 48 15 60 -8 12 -115 13 -115 1z"/>
<path d="M2010 3434 c0 -31 23 -28 28 4 2 15 -2 22 -12 22 -11 0 -16 -9 -16
-26z"/>
<path d="M1818 2784 c3 -65 1 -84 -13 -97 -12 -13 -13 -17 -3 -18 7 -1 24 -3
38 -5 49 -5 104 9 127 34 30 32 31 89 3 125 -24 30 -46 39 -109 41 l-46 1 3
-81z m106 44 c23 -21 30 -45 27 -90 -2 -27 -30 -48 -67 -48 l-34 0 0 68 c0 93
24 115 74 70z"/>
<path d="M2682 2838 c-15 -15 -15 -41 0 -56 10 -10 8 -19 -5 -41 -26 -44 -9
-81 36 -81 20 0 41 7 50 18 13 15 14 22 2 55 -11 32 -11 43 1 65 9 19 10 30 2
39 -13 16 -70 17 -86 1z m57 -39 c-9 -18 -11 -18 -25 -4 -13 12 -14 18 -4 30
19 23 43 0 29 -26z m1 -79 c13 -25 5 -40 -21 -40 -14 0 -19 7 -19 30 0 35 23
41 40 10z"/>
<path d="M2895 2788 c-28 -16 -35 -28 -35 -65 0 -42 32 -77 63 -68 33 10 63
55 37 55 -5 0 -10 -4 -10 -10 0 -5 -11 -10 -24 -10 -24 0 -36 16 -36 51 0 26
30 37 42 16 11 -20 24 -22 31 -4 12 31 -34 54 -68 35z"/>
<path d="M2986 2777 c12 -33 10 -99 -4 -104 -19 -8 4 -23 36 -23 24 0 28 10
11 27 -16 16 -7 74 14 87 14 8 20 8 27 -4 13 -20 13 -90 -1 -90 -5 0 -7 -4 -4
-10 3 -5 16 -10 29 -10 21 0 22 3 18 55 -4 51 -3 55 17 55 18 0 21 -6 21 -45
0 -25 -4 -45 -10 -45 -5 0 -10 -4 -10 -10 0 -5 13 -10 29 -10 28 0 28 1 24 48
-7 81 -11 92 -36 92 -13 0 -28 -5 -35 -12 -9 -9 -12 -9 -12 -1 0 8 -21 12 -59
12 -41 -1 -58 -4 -55 -12z"/>
<path d="M3472 2771 c-8 -4 -12 -19 -10 -32 2 -18 9 -24 28 -24 19 0 26 6 28
24 3 20 -11 41 -28 41 -3 0 -11 -4 -18 -9z m28 -26 c0 -8 -4 -15 -9 -15 -13 0
-22 16 -14 24 11 11 23 6 23 -9z"/>
<path d="M2017 2686 c-7 -16 1 -26 20 -26 7 0 13 9 13 20 0 23 -25 27 -33 6z"/>
<path d="M13191 1813 c0 -5 4 -17 8 -28 5 -11 5 -24 1 -30 -4 -5 -15 -36 -24
-67 -9 -32 -21 -58 -26 -58 -6 0 -10 -4 -10 -10 0 -6 26 -10 58 -10 51 0 62 4
85 28 30 31 34 51 15 71 -11 10 -10 14 5 22 24 14 23 65 -2 79 -22 12 -111 14
-110 3z m88 -22 c21 -14 4 -51 -24 -51 -22 0 -23 2 -14 30 12 32 16 35 38 21z
m-21 -83 c19 -19 14 -46 -13 -64 -40 -26 -56 -3 -35 50 10 28 29 33 48 14z"/>
<path d="M8067 1773 c-3 -3 -4 -10 -1 -17 7 -17 -32 -160 -45 -164 -6 -2 -11
-8 -11 -13 0 -5 31 -9 70 -9 72 0 90 11 90 56 0 13 -5 12 -25 -10 -16 -17 -34
-26 -55 -26 -28 0 -30 2 -24 28 4 15 9 30 11 35 7 12 43 8 43 -5 0 -20 17 4
24 34 7 29 -8 48 -18 23 -3 -8 -12 -15 -21 -15 -12 0 -14 6 -9 28 4 15 9 30
11 35 7 12 41 8 56 -8 13 -13 16 -13 21 1 3 9 6 19 6 24 0 9 -114 12 -123 3z"/>
<path d="M9616 1695 c7 -28 -31 -165 -46 -165 -6 0 -10 -5 -10 -11 0 -21 124
-3 164 23 29 19 37 31 42 66 5 35 3 49 -13 70 -11 15 -30 27 -41 27 -12 0 -24
4 -28 8 -4 4 -22 7 -41 7 -31 0 -33 -2 -27 -25z m100 -21 c28 -27 27 -56 -1
-101 -14 -21 -81 -50 -92 -39 -3 3 3 38 12 78 23 95 38 106 81 62z"/>
</g>
</svg>
