<?xml version="1.0" standalone="no"?>
<!DOCTYPE svg PUBLIC "-//W3C//DTD SVG 20010904//EN"
 "http://www.w3.org/TR/2001/REC-SVG-20010904/DTD/svg10.dtd">
<svg version="1.0" xmlns="http://www.w3.org/2000/svg"
 width="1405.000000pt" height="591.000000pt" viewBox="0 0 1405.000000 591.000000"
 preserveAspectRatio="xMidYMid meet">
<metadata>
Created by potrace 1.16, written by Peter Selinger 2001-2019
</metadata>
<g transform="translate(0.000000,591.000000) scale(0.100000,-0.100000)"
fill="#000000" stroke="none">
<path d="M13150 5635 c0 -8 -9 -15 -20 -15 -18 0 -20 -7 -20 -61 0 -56 2 -60
20 -54 11 4 20 2 20 -4 0 -18 -50 -12 -76 8 l-24 19 20 25 c11 14 20 30 20 36
0 21 -27 11 -38 -14 -6 -14 -16 -25 -22 -25 -15 0 -12 11 10 45 23 35 25 45 8
45 -7 0 -21 -20 -32 -45 -18 -46 -16 -82 6 -69 6 4 4 -3 -5 -17 -25 -34 -22
-53 6 -44 62 19 102 11 91 -19 -6 -16 -9 -15 -30 5 -26 25 -32 14 -10 -16 8
-11 12 -25 9 -32 -9 -22 8 -14 38 18 26 28 29 29 29 10 0 -12 -6 -21 -15 -21
-20 0 -19 -16 1 -24 29 -11 34 -6 34 36 l0 42 29 -32 c17 -17 37 -32 45 -32
23 0 20 8 -15 37 l-31 26 27 14 c21 11 24 19 19 36 -4 12 -8 40 -8 62 -1 35
-4 40 -26 43 -14 2 -29 10 -33 18 -11 19 -27 18 -27 -1z m55 -45 c4 -6 -10
-10 -37 -9 -40 1 -41 2 -13 9 43 11 43 11 50 0z m0 -45 c0 -13 -41 -19 -63
-10 -15 6 -15 8 3 16 25 10 60 7 60 -6z m-145 -39 c0 -2 -7 -7 -16 -10 -8 -3
-12 -2 -9 4 6 10 25 14 25 6z m150 -11 c-7 -8 -16 -15 -21 -15 -5 0 -9 7 -9
15 0 9 9 15 21 15 18 0 19 -2 9 -15z"/>
<path d="M13404 5582 c-6 -66 -7 -69 -30 -64 -31 6 -33 42 -3 42 12 0 19 5 16
13 -2 6 -11 11 -21 9 -23 -4 -20 25 4 33 11 3 20 11 20 16 0 10 -15 11 -46 3
-19 -5 -20 -11 -16 -85 4 -68 2 -79 -12 -79 -9 0 -16 -4 -16 -9 0 -6 21 -11
48 -13 l47 -3 -42 -25 c-69 -40 -53 -56 18 -19 27 13 39 25 35 35 -4 10 3 14
24 14 17 0 30 -4 30 -10 0 -13 89 -55 97 -46 11 10 -15 30 -55 42 l-37 12 52
1 c52 1 78 16 48 27 -13 5 -16 20 -15 73 2 96 3 92 -27 85 -43 -10 -50 -18
-24 -24 33 -7 38 -28 9 -32 -22 -3 -28 -22 -8 -24 6 -1 15 -2 21 -3 19 -2 3
-25 -22 -32 l-24 -7 23 -7 c29 -10 23 -29 -10 -33 -26 -3 -26 -3 -21 56 l6 60
-27 -5 c-15 -3 -26 -1 -26 6 0 6 11 11 25 11 15 0 25 6 25 14 0 9 -7 12 -20 9
-16 -4 -19 -2 -14 11 4 10 1 16 -9 16 -12 0 -17 -16 -23 -68z m44 -54 c-2 -22
-9 -34 -21 -36 -15 -3 -17 1 -11 25 9 36 13 43 25 43 6 0 9 -15 7 -32z m-58
-43 c0 -8 -9 -15 -20 -15 -11 0 -20 7 -20 15 0 8 9 15 20 15 11 0 20 -7 20
-15z"/>
<path d="M12420 5615 c-5 -14 -14 -25 -20 -25 -6 0 -10 -38 -10 -100 0 -60 4
-100 10 -100 6 0 10 5 10 10 0 13 43 13 57 -1 12 -12 27 70 17 95 -3 8 4 24
15 35 12 12 21 28 21 36 0 11 11 15 41 15 l42 0 -6 -74 c-8 -96 -13 -107 -43
-100 -32 8 -31 -8 1 -23 46 -21 59 8 68 150 l5 67 -51 0 c-40 0 -48 3 -39 12
18 18 15 28 -8 28 -14 0 -20 -7 -20 -22 0 -13 -4 -29 -9 -36 -7 -11 -9 -10
-15 3 -4 11 -12 14 -26 10 -20 -6 -28 9 -10 20 15 9 12 25 -5 25 -9 0 -20 -11
-25 -25z m40 -75 c0 -25 -4 -30 -25 -30 -21 0 -25 5 -25 30 0 25 4 30 25 30
21 0 25 -5 25 -30z m27 -2 c-3 -8 -6 -5 -6 6 -1 11 2 17 5 13 3 -3 4 -12 1
-19z m-27 -78 c0 -25 -4 -30 -25 -30 -21 0 -25 5 -25 30 0 25 4 30 25 30 21 0
25 -5 25 -30z"/>
<path d="M12728 5632 c-42 -4 -53 -22 -13 -22 l25 0 -20 -40 c-25 -50 -25 -52
5 -44 26 6 32 -6 19 -40 -5 -14 -9 -14 -22 -4 -13 11 -14 9 -9 -17 4 -22 0
-36 -16 -52 -26 -29 -13 -44 15 -16 20 21 21 21 52 2 40 -25 171 -28 180 -4 4
13 -1 14 -34 9 -47 -8 -121 2 -144 19 -14 11 -14 17 -1 61 19 63 19 66 -5 66
-24 0 -24 3 -4 41 20 40 16 45 -28 41z"/>
<path d="M12870 5629 c-14 -4 -42 -11 -64 -14 -46 -8 -39 -21 10 -16 l34 3 0
-76 c0 -61 -3 -76 -15 -76 -12 0 -15 13 -15 60 0 33 -4 60 -10 60 -5 0 -10
-25 -10 -56 0 -47 -3 -57 -20 -61 -42 -11 -6 -23 69 -23 61 0 82 4 92 17 13
15 10 16 -28 10 l-43 -7 0 34 c0 32 3 35 33 38 37 3 35 23 -3 23 -20 0 -26 6
-28 28 -3 23 2 29 27 38 17 6 28 15 25 20 -6 11 -20 10 -54 -2z"/>
<path d="M3226 5618 c-14 -42 -14 -43 -15 -27 -1 17 -29 34 -39 24 -3 -2 1
-11 8 -20 12 -15 4 -21 -23 -16 -5 1 -7 -4 -4 -11 2 -7 16 -12 31 -10 18 2 26
-2 26 -13 0 -24 -28 -86 -56 -123 -39 -50 -18 -54 24 -4 l37 42 78 0 c72 0 77
-1 77 -22 0 -20 -1 -20 -18 -5 -27 25 -46 22 -30 -3 7 -11 18 -20 25 -20 7 0
13 -4 13 -10 0 -5 -13 -10 -30 -10 -23 0 -30 5 -30 19 0 10 -7 24 -15 31 -18
15 -19 4 -4 -38 8 -22 19 -33 40 -37 37 -8 56 6 64 48 4 18 9 40 11 50 4 12 0
17 -15 17 -15 0 -21 6 -21 24 0 15 -7 26 -20 29 -13 3 -20 14 -20 30 0 23 -2
24 -36 17 -36 -8 -54 5 -40 29 4 5 2 12 -4 16 -6 3 -12 0 -14 -7z m72 -78 c-4
-20 -68 -27 -68 -7 0 21 11 27 42 25 20 -2 28 -7 26 -18z m30 -42 c-3 -8 -27
-14 -63 -16 -52 -3 -57 -1 -45 12 16 20 114 23 108 4z"/>
<path d="M4136 5601 c-9 -16 -22 -31 -31 -34 -8 -4 -15 -14 -15 -23 0 -12 12
-7 46 21 27 22 49 34 52 28 9 -14 139 -16 147 -2 11 17 -12 36 -27 21 -17 -17
-93 -15 -128 3 -29 15 -30 14 -44 -14z"/>
<path d="M4860 5620 c0 -5 -9 -10 -19 -10 -17 0 -20 -8 -23 -52 -3 -47 -6 -53
-26 -56 -20 -3 -22 0 -16 22 6 24 3 26 -25 26 -17 0 -31 -4 -31 -10 0 -5 7
-10 16 -10 10 0 14 -5 10 -15 -3 -8 -9 -22 -12 -30 -4 -10 0 -15 14 -15 19 0
20 -3 10 -31 -6 -17 -17 -33 -24 -36 -8 -3 -14 -14 -14 -24 0 -23 9 -24 24 -4
10 14 15 14 48 0 41 -16 173 -21 183 -6 3 5 -6 11 -21 13 l-26 3 26 37 c23 35
21 58 -6 42 -6 -4 -8 -3 -4 4 3 6 1 12 -6 15 -7 2 -3 3 8 1 12 -2 27 3 34 11
10 12 9 15 -6 15 -17 0 -19 7 -16 50 l4 50 -35 0 c-20 0 -39 5 -42 10 -3 6
-10 10 -16 10 -5 0 -9 -4 -9 -10z m13 -107 c-7 -2 -19 -2 -25 0 -7 3 -2 5 12
5 14 0 19 -2 13 -5z m60 0 c-7 -2 -19 -2 -25 0 -7 3 -2 5 12 5 14 0 19 -2 13
-5z m-46 -30 c-9 -2 -15 -9 -12 -14 4 -5 -4 -9 -16 -9 -22 0 -22 0 -3 15 10 8
26 14 34 14 10 -1 10 -3 -3 -6z m-74 -30 c-5 -13 -2 -15 15 -11 28 8 28 0 1
-28 -17 -18 -26 -21 -41 -13 -14 8 -16 14 -8 29 6 11 8 20 5 20 -4 0 -3 5 0
10 11 17 35 12 28 -7z m90 -40 c-25 -5 -30 -18 -10 -26 6 -3 -6 -6 -27 -6 -39
-1 -39 -1 -20 18 11 12 32 19 49 19 23 -1 25 -2 8 -5z"/>
<path d="M6310 5604 l0 -26 -20 23 -19 24 -1 -22 c0 -15 -6 -23 -17 -23 -9 0
-13 -3 -9 -7 4 -4 17 -8 29 -8 19 0 22 -5 19 -33 -3 -41 -26 -88 -60 -124 -24
-26 -24 -28 -6 -28 12 0 29 15 44 40 24 38 27 39 76 40 45 0 52 -3 62 -25 6
-14 16 -25 22 -25 6 0 8 -4 5 -10 -11 -18 -45 -11 -45 9 0 10 -7 25 -17 32
-15 13 -16 11 -9 -16 7 -31 39 -65 61 -65 19 0 31 20 43 69 13 52 10 61 -19
54 -18 -5 -20 -3 -11 13 12 24 5 44 -14 44 -10 0 -14 8 -12 22 2 11 -3 23 -9
25 -7 3 -13 0 -13 -6 0 -6 -8 -7 -17 -4 -17 7 -17 6 0 -11 26 -26 21 -36 -18
-36 -39 0 -48 21 -17 39 11 7 13 10 3 11 -8 0 -11 7 -8 19 3 12 -1 22 -9 25
-10 4 -14 -3 -14 -20z m104 -109 c-5 -11 -21 -15 -60 -15 -50 0 -64 7 -47 23
3 4 30 7 59 7 43 0 52 -3 48 -15z m36 -49 c0 -24 -15 -26 -28 -5 -11 16 -9 19
8 19 11 0 20 -6 20 -14z"/>
<path d="M7438 5513 l-3 -118 -57 0 c-39 0 -58 -3 -58 -12 0 -9 33 -11 130 -9
72 1 133 6 137 10 13 12 -20 25 -38 15 -10 -5 -34 -9 -53 -9 l-36 0 0 60 0 60
50 0 c50 0 57 4 42 27 -6 10 -12 10 -28 -2 -10 -8 -30 -15 -42 -15 -22 0 -24
3 -20 52 2 34 -1 53 -9 55 -9 3 -13 -26 -15 -114z"/>
<path d="M7690 5610 c0 -13 -10 -24 -25 -30 -24 -9 -25 -13 -25 -99 0 -83 9
-116 25 -91 8 13 65 13 65 0 0 -5 5 -10 10 -10 6 0 10 27 10 60 0 33 4 60 9
60 5 0 15 16 21 35 8 26 17 35 33 35 21 1 21 1 4 14 -12 9 -14 16 -7 21 13 8
4 25 -14 25 -7 0 -18 -24 -26 -52 -12 -46 -14 -50 -20 -28 -5 18 -12 24 -28
23 -24 -3 -28 7 -11 24 6 6 8 16 5 22 -11 18 -26 13 -26 -9z m30 -65 c17 -20
5 -45 -20 -45 -11 0 -23 7 -26 15 -6 15 11 45 26 45 4 0 13 -7 20 -15z m10
-96 c0 -27 -3 -30 -27 -27 -19 2 -29 10 -34 31 -7 26 -5 27 27 27 31 0 34 -2
34 -31z"/>
<path d="M8457 5623 c-4 -3 -7 -38 -7 -76 0 -59 -2 -68 -16 -63 -9 3 -20 6
-26 6 -7 0 -9 23 -6 65 l6 65 -64 0 -64 0 0 -59 c0 -57 1 -58 25 -53 15 2 25
0 25 -7 0 -6 -11 -11 -25 -11 -14 0 -25 -4 -25 -10 0 -5 11 -10 25 -10 14 0
25 -4 25 -10 0 -5 -14 -10 -31 -10 -27 0 -30 -2 -19 -15 10 -12 10 -19 2 -27
-17 -17 -15 -38 3 -38 9 0 15 7 13 16 -2 10 3 19 10 21 7 3 12 -4 12 -16 0
-12 5 -21 11 -21 7 0 9 11 6 30 -4 17 -2 30 3 30 6 0 9 -3 9 -7 -4 -22 2 -43
11 -43 6 0 10 8 10 18 1 16 1 16 11 -1 6 -9 14 -15 20 -12 5 4 9 -1 9 -9 0
-18 16 -21 25 -5 4 5 25 9 48 7 l41 -3 0 55 c0 54 -1 55 -28 52 -25 -3 -27 0
-24 25 2 22 9 29 31 31 15 2 27 9 27 17 0 11 -6 12 -25 5 -20 -8 -27 -6 -32 6
-3 9 -1 25 5 34 14 23 -3 42 -21 23z m-132 -33 c3 -5 1 -10 -4 -10 -6 0 -11 5
-11 10 0 6 2 10 4 10 3 0 8 -4 11 -10z m51 -57 c-11 -11 -17 4 -9 23 7 18 8
18 11 1 2 -10 1 -21 -2 -24z m9 -33 c-3 -5 -13 -10 -21 -10 -8 0 -14 5 -14 10
0 6 9 10 21 10 11 0 17 -4 14 -10z m10 -40 c-28 -12 -45 -12 -45 0 0 6 15 10
33 9 27 0 29 -2 12 -9z m105 -35 c0 -33 -2 -35 -35 -35 -33 0 -35 2 -35 35 0
33 2 35 35 35 33 0 35 -2 35 -35z m-90 -10 c0 -8 -2 -15 -4 -15 -2 0 -6 7 -10
15 -3 8 -1 15 4 15 6 0 10 -7 10 -15z"/>
<path d="M8624 5597 c-4 -18 -14 -47 -22 -65 -12 -24 -13 -35 -5 -40 7 -4 13
-37 15 -72 l3 -65 30 3 c17 2 41 11 56 21 21 16 28 17 50 6 13 -7 41 -16 62
-20 29 -6 37 -4 37 8 0 10 -14 17 -42 21 -60 9 -70 18 -62 51 6 25 9 27 44 21
l38 -6 0 45 c-1 45 -2 46 -29 40 -37 -8 -54 2 -38 21 6 8 27 14 45 14 19 0 34
5 34 10 0 6 -15 8 -40 4 -36 -6 -40 -5 -40 15 0 12 -6 21 -15 21 -9 0 -15 -9
-15 -21 0 -17 -4 -20 -22 -15 -13 3 -31 6 -41 6 -10 0 -16 4 -13 9 3 5 -1 11
-8 14 -10 4 -17 -4 -22 -26z m73 -18 l33 3 0 -52 c0 -44 -3 -51 -17 -48 -23 4
-31 48 -8 48 13 0 13 2 3 14 -39 41 -55 -60 -17 -107 l20 -27 -33 -20 c-42
-25 -44 -20 -40 103 2 71 7 95 15 90 6 -4 26 -6 44 -4z m103 -74 c0 -18 -5
-25 -19 -25 -11 0 -23 5 -26 10 -11 18 3 40 25 40 15 0 20 -7 20 -25z m-70
-42 c0 -5 -4 -13 -8 -20 -6 -9 -11 -7 -20 7 -11 17 -10 20 8 20 11 0 20 -3 20
-7z"/>
<path d="M8950 5621 c0 -5 -12 -24 -26 -41 -15 -17 -23 -34 -19 -38 9 -9 76
68 69 79 -7 12 -24 11 -24 0z"/>
<path d="M9063 5622 c-57 -3 -63 -11 -60 -71 l3 -35 56 0 56 -1 5 50 c3 28 2
52 -1 55 -4 3 -30 4 -59 2z m37 -32 c0 -5 -16 -10 -35 -10 -19 0 -35 5 -35 10
0 6 16 10 35 10 19 0 35 -4 35 -10z m0 -46 c0 -9 -12 -14 -35 -14 -19 0 -35 4
-35 8 0 14 7 17 39 18 20 1 31 -3 31 -12z"/>
<path d="M1090 5506 c0 -63 -2 -120 -5 -128 -4 -10 19 -13 112 -13 65 0 120 3
123 7 7 10 3 238 -4 246 -3 2 -11 0 -18 -6 -14 -11 -179 -9 -197 3 -8 4 -11
-30 -11 -109z m58 46 c2 -22 -1 -32 -10 -32 -11 0 -13 -15 -10 -65 3 -44 1
-65 -7 -65 -7 0 -11 33 -11 101 0 90 2 100 18 97 11 -2 18 -14 20 -36z m160
-59 c-3 -86 -5 -98 -22 -101 -17 -4 -18 1 -14 50 3 29 9 61 13 71 7 16 3 17
-35 11 -31 -5 -41 -4 -36 4 4 7 16 12 27 12 14 0 19 7 19 25 0 20 5 25 26 25
l25 0 -3 -97z m-78 67 c0 -5 -13 -10 -30 -10 -16 0 -30 5 -30 10 0 6 14 10 30
10 17 0 30 -4 30 -10z m-40 -30 c0 -5 -7 -10 -15 -10 -8 0 -15 5 -15 10 0 6 7
10 15 10 8 0 15 -4 15 -10z m70 -81 c0 -16 -4 -29 -10 -29 -5 0 -10 11 -10 25
0 21 -5 25 -30 25 -16 0 -30 3 -30 8 0 4 18 6 40 4 37 -4 40 -7 40 -33z m-103
-16 c-3 -10 -5 -2 -5 17 0 19 2 27 5 18 2 -10 2 -26 0 -35z m66 10 c-7 -2 -19
-2 -25 0 -7 3 -2 5 12 5 14 0 19 -2 13 -5z m10 -50 c-13 -2 -35 -2 -50 0 -16
2 -5 4 22 4 28 0 40 -2 28 -4z"/>
<path d="M1507 5613 c-4 -3 -7 -17 -7 -31 0 -23 -2 -24 -45 -20 l-45 6 0 -62
0 -61 47 3 48 4 -4 -52 c-2 -41 0 -51 10 -48 13 4 15 14 18 75 1 19 8 22 48
25 41 3 47 6 49 28 2 14 1 39 -1 55 -5 28 -8 30 -47 30 -40 0 -43 2 -43 28 1
25 -13 35 -28 20z m-7 -103 c0 -39 -1 -40 -35 -40 -34 0 -35 1 -35 40 0 39 1
40 35 40 34 0 35 -1 35 -40z m108 -2 l3 -38 -40 0 c-40 0 -41 1 -41 33 0 42 7
49 45 45 27 -3 30 -7 33 -40z"/>
<path d="M3882 5612 c-69 -1 -110 -6 -107 -12 3 -6 28 -10 56 -10 l49 0 0 -61
0 -60 -57 2 c-34 2 -56 -1 -53 -7 3 -5 28 -9 55 -9 l50 0 3 -52 c4 -67 22 -70
22 -4 0 48 0 48 36 54 20 3 49 3 65 0 21 -4 29 -2 29 9 0 22 -11 29 -26 17 -7
-5 -32 -9 -56 -7 l-43 3 0 55 0 55 58 3 c38 2 57 7 55 14 -5 14 0 14 -136 10z"/>
<path d="M4746 5612 c-9 -15 21 -49 34 -36 7 7 5 15 -9 28 -10 9 -22 13 -25 8z"/>
<path d="M5110 5613 c-64 -5 -81 -13 -52 -24 19 -7 23 -15 20 -41 -2 -25 -8
-34 -26 -36 -26 -4 -20 -22 9 -22 20 0 26 -24 9 -35 -6 -4 -8 -11 -4 -16 3 -5
0 -16 -6 -24 -7 -8 -9 -15 -4 -15 4 0 0 -6 -11 -13 -11 -8 -15 -19 -10 -26 10
-18 50 44 59 92 4 22 13 37 21 37 12 0 15 -15 15 -70 0 -40 4 -70 10 -70 6 0
10 30 10 70 0 64 2 70 21 70 12 0 19 5 16 13 -2 6 -12 11 -21 11 -12 -1 -16 7
-16 37 0 33 3 39 21 39 12 0 19 5 17 13 -5 14 -15 15 -78 10z m18 -66 c2 -28
-1 -37 -12 -37 -12 0 -16 11 -16 41 0 52 24 48 28 -4z"/>
<path d="M5244 5603 c-3 -10 -21 -28 -40 -41 -37 -24 -40 -38 -6 -27 22 6 82
63 82 77 0 16 -32 8 -36 -9z"/>
<path d="M11882 5552 c-22 -37 -54 -82 -71 -100 -17 -18 -31 -35 -31 -38 0 -2
11 -4 25 -4 17 0 25 5 25 18 0 23 19 42 42 42 11 0 18 -7 18 -20 0 -11 -4 -20
-10 -20 -5 0 -10 -4 -10 -10 0 -5 16 -10 35 -10 33 0 48 14 25 22 -7 2 -8 32
-2 91 4 49 5 90 1 93 -4 2 -25 -27 -47 -64z m18 -42 c0 -11 -7 -20 -15 -20
-13 0 -14 4 -5 20 6 11 13 20 15 20 3 0 5 -9 5 -20z"/>
<path d="M12006 5611 c-4 -5 -1 -11 5 -13 13 -4 -29 -168 -43 -168 -4 0 -8 -5
-8 -11 0 -20 135 -6 167 17 56 42 51 159 -7 175 -37 10 -108 10 -114 0z m123
-47 c15 -35 14 -54 -8 -90 -15 -24 -28 -33 -61 -38 -24 -4 -44 -5 -46 -3 -3 3
17 75 33 117 4 8 7 17 7 20 7 34 58 30 75 -6z"/>
<path d="M4420 5605 c-1 0 -3 -47 -6 -104 -5 -118 -2 -140 21 -121 10 8 46 11
115 8 l100 -3 1 35 c0 19 2 69 4 110 l3 75 -119 0 c-65 0 -119 0 -119 0z m65
-48 c8 -31 4 -46 -24 -85 -31 -44 -17 -55 19 -15 18 20 31 48 35 78 10 61 29
53 35 -16 6 -68 14 -79 51 -79 19 0 29 -5 29 -15 0 -12 -18 -15 -100 -15
l-100 0 5 77 c3 42 8 80 11 85 10 16 34 7 39 -15z m145 -31 c0 -40 -4 -55 -16
-60 -30 -12 -34 -6 -34 54 0 57 1 60 25 60 24 0 25 -3 25 -54z"/>
<path d="M6804 5591 c-47 -29 -78 -84 -70 -129 7 -47 28 -62 86 -62 34 0 52 5
65 20 23 25 12 39 -13 17 -23 -21 -75 -22 -92 -2 -22 26 -6 96 30 128 38 34
55 34 76 2 19 -30 34 -24 34 13 0 26 -3 28 -43 30 -27 1 -54 -6 -73 -17z"/>
<path d="M6978 5602 c-10 -2 -14 -10 -11 -23 7 -26 -25 -139 -46 -163 -15 -18
-14 -18 58 -14 71 4 75 5 107 43 19 21 32 41 29 43 -3 3 0 11 6 18 7 9 3 23
-15 52 -22 35 -30 40 -69 43 -24 2 -51 3 -59 1z m95 -49 c16 -32 8 -74 -18
-104 -17 -18 -72 -36 -82 -26 -3 3 5 40 17 81 20 66 26 76 46 76 16 0 28 -9
37 -27z"/>
<path d="M9704 5598 c-2 -4 0 -9 5 -12 8 -5 8 -34 1 -43 -2 -2 -3 -6 -5 -10
-1 -5 -8 -30 -16 -57 -8 -27 -19 -51 -26 -53 -34 -13 -5 -23 65 -23 75 0 79 1
91 26 16 36 8 40 -27 14 -19 -14 -40 -20 -60 -18 -31 3 -32 4 -18 30 8 15 12
29 8 32 -3 3 7 6 21 6 18 0 27 -5 27 -16 0 -26 17 -6 22 26 5 31 -9 39 -30 18
-19 -19 -25 -2 -13 35 10 30 15 33 41 29 17 -2 30 -8 30 -13 0 -5 5 -9 10 -9
6 0 10 11 10 24 0 24 -2 25 -66 23 -36 -1 -68 -5 -70 -9z"/>
<path d="M10080 5601 c0 -5 4 -11 9 -13 6 -2 1 -35 -10 -77 -23 -87 -25 -91
-45 -91 -8 0 -12 -4 -9 -10 3 -5 40 -10 81 -10 70 0 75 2 86 25 16 35 4 41
-28 16 -27 -21 -74 -29 -74 -12 0 5 4 21 10 35 10 28 40 36 40 11 0 -8 5 -15
10 -15 6 0 10 8 10 18 0 9 3 28 7 42 6 24 6 24 -14 8 -23 -21 -44 -24 -39 -5
3 6 7 24 10 40 7 31 30 35 63 12 19 -13 22 -13 27 1 3 9 4 20 0 25 -7 12 -134
12 -134 0z"/>
<path d="M10285 5591 c-43 -26 -65 -63 -65 -111 0 -55 26 -80 84 -80 35 0 48
5 60 22 20 28 12 37 -12 15 -21 -19 -54 -22 -83 -7 -22 12 -26 58 -8 93 35 68
88 87 112 41 15 -29 20 -25 31 19 6 27 6 27 -41 27 -29 0 -60 -7 -78 -19z"/>
<path d="M10737 5592 c-19 -21 -22 -42 -7 -42 6 0 10 4 10 9 0 17 33 22 48 7
22 -21 8 -60 -39 -111 -46 -50 -41 -58 31 -53 27 2 47 9 54 20 13 21 0 36 -16
20 -7 -7 -23 -12 -37 -12 l-25 0 26 28 c51 54 62 106 30 135 -24 22 -55 21
-75 -1z"/>
<path d="M11056 5595 c-18 -19 -20 -31 -6 -40 6 -3 10 1 10 9 0 9 9 16 20 16
15 0 20 -7 20 -29 0 -16 -6 -31 -15 -35 -22 -8 -18 -26 5 -26 15 0 20 -7 20
-24 0 -29 -16 -42 -47 -37 -16 1 -23 -3 -23 -13 0 -23 52 -20 78 4 21 20 31
78 15 93 -3 4 -7 26 -7 50 -1 38 -4 42 -27 45 -15 2 -34 -4 -43 -13z"/>
<path d="M306 5585 c-11 -8 -14 -15 -8 -15 15 0 17 -146 2 -155 -21 -13 -9
-25 25 -25 19 0 35 5 35 10 0 6 -4 10 -10 10 -6 0 -10 38 -10 95 0 52 -3 95
-7 95 -5 0 -17 -7 -27 -15z"/>
<path d="M420 5581 c-17 -33 -12 -41 18 -25 33 17 52 18 52 2 0 -7 -10 -46
-21 -86 -19 -62 -21 -97 -4 -80 9 9 62 198 57 203 -3 3 -25 5 -48 5 -33 0 -46
-5 -54 -19z"/>
<path d="M2303 5580 c-3 -11 -9 -20 -14 -20 -5 0 -16 -15 -25 -32 -9 -18 -34
-54 -55 -80 -31 -37 -36 -47 -23 -52 26 -10 34 -7 34 13 0 23 25 51 46 51 17
0 19 -31 2 -48 -9 -9 -2 -12 33 -12 30 0 39 3 30 9 -14 9 -17 117 -4 169 3 13
1 22 -7 22 -6 0 -14 -9 -17 -20z m-13 -80 c0 -11 -7 -20 -15 -20 -13 0 -13 3
-3 20 7 11 14 20 15 20 2 0 3 -9 3 -20z"/>
<path d="M2404 5582 c7 -20 -27 -147 -45 -168 -9 -11 -8 -14 7 -15 53 -4 111
5 127 19 20 17 22 53 5 70 -9 9 -8 16 5 30 37 41 6 82 -62 82 -36 0 -42 -3
-37 -18z m76 -18 c11 -13 10 -19 -8 -37 -28 -28 -47 -12 -33 26 12 31 23 34
41 11z m-9 -90 c9 -11 9 -18 2 -22 -6 -4 -10 -11 -10 -17 1 -5 -13 -11 -30
-13 -38 -4 -37 -5 -22 37 12 34 38 41 60 15z"/>
<path d="M2580 5570 c-41 -42 -57 -104 -35 -136 31 -47 83 -55 130 -20 28 20
12 31 -18 12 -18 -13 -31 -14 -50 -7 -74 28 -21 170 61 162 7 0 18 -13 24 -28
l11 -28 7 25 c15 48 13 50 -45 50 -49 0 -59 -4 -85 -30z"/>
<path d="M2769 5587 c8 -10 5 -31 -9 -82 -11 -38 -24 -73 -30 -79 -20 -20 -9
-26 56 -26 62 0 68 2 101 35 33 33 35 39 30 81 -7 67 -28 84 -100 84 -48 0
-57 -2 -48 -13z m102 -23 c7 -9 14 -34 14 -56 0 -48 -39 -88 -85 -88 -26 0
-28 2 -20 33 26 110 34 127 56 127 12 0 28 -7 35 -16z"/>
<path d="M5890 5578 c0 -31 -36 -146 -50 -164 -11 -12 -1 -14 68 -14 80 0 80
0 91 30 12 35 3 38 -27 10 -13 -12 -35 -20 -56 -20 l-34 0 11 35 c11 36 33 45
54 24 9 -9 14 -5 19 15 8 31 -1 45 -18 28 -18 -18 -28 -14 -28 11 0 43 44 63
70 32 16 -19 36 -4 27 19 -5 12 -21 16 -67 16 -56 0 -60 -2 -60 -22z"/>
<path d="M9499 5591 c11 -7 9 -22 -7 -87 -12 -43 -26 -80 -31 -82 -28 -9 -6
-22 39 -22 98 0 150 41 150 117 0 64 -24 83 -102 83 -39 0 -58 -4 -49 -9z
m112 -35 c15 -31 4 -88 -20 -110 -10 -9 -34 -19 -53 -22 l-35 -6 21 81 c20 77
22 81 49 81 19 0 31 -7 38 -24z"/>
<path d="M7858 5583 c-20 -5 -25 -24 -5 -20 15 3 21 -72 9 -128 -7 -35 -12
-40 -35 -40 -34 1 -35 -12 -2 -27 34 -15 53 2 59 55 21 171 21 172 -26 160z"/>
<path d="M3966 5541 c-44 -70 -29 -87 17 -19 19 27 25 44 19 50 -7 7 -19 -4
-36 -31z"/>
<path d="M8950 5546 c-6 -18 -20 -42 -30 -51 -23 -21 -26 -37 -6 -29 12 5 16
-7 18 -53 4 -86 23 -71 26 22 2 52 8 85 18 96 14 16 10 49 -6 49 -5 0 -13 -15
-20 -34z"/>
<path d="M4145 5540 c-8 -16 -27 -37 -40 -46 -30 -20 -33 -38 -5 -29 18 6 20
2 20 -54 0 -34 4 -61 10 -61 6 0 10 28 10 65 0 65 20 125 40 125 6 0 10 7 10
15 0 26 -29 16 -45 -15z"/>
<path d="M3815 5524 c8 -20 15 -38 15 -40 0 -2 5 -4 10 -4 14 0 12 42 -4 63
-24 32 -38 20 -21 -19z"/>
<path d="M5230 5510 c-19 -20 -42 -39 -50 -42 -8 -3 -12 -8 -8 -12 16 -18 126
64 113 83 -9 16 -16 12 -55 -29z"/>
<path d="M4247 5533 c-85 -4 -99 -23 -16 -23 l50 0 -3 -62 c-3 -62 -3 -63 -30
-60 -16 2 -28 -1 -28 -7 0 -6 9 -11 19 -11 11 0 22 -4 26 -10 3 -5 12 -7 20
-3 11 4 15 23 15 79 l0 74 31 0 c20 0 29 4 27 13 -5 14 -8 14 -111 10z"/>
<path d="M9910 5526 c0 -15 24 -28 34 -19 13 14 5 33 -14 33 -11 0 -20 -6 -20
-14z"/>
<path d="M10930 5524 c0 -9 5 -14 12 -12 18 6 21 28 4 28 -9 0 -16 -7 -16 -16z"/>
<path d="M1819 5523 c-4 -26 -3 -73 2 -73 14 0 29 27 29 52 0 18 -5 28 -15 28
-8 0 -16 -3 -16 -7z"/>
<path d="M11404 5515 c-8 -20 2 -44 21 -51 18 -7 47 14 39 28 -4 6 -10 6 -17
-1 -15 -15 -27 -14 -27 4 0 8 9 15 20 15 11 0 20 5 20 10 0 16 -50 12 -56 -5z"/>
<path d="M12520 5520 c0 -5 4 -10 9 -10 5 0 12 -11 15 -25 7 -28 26 -34 26 -7
-1 32 -50 74 -50 42z"/>
<path d="M3675 5509 c-11 -4 -66 -8 -122 -8 -62 -1 -103 -5 -103 -11 0 -13
257 -14 264 -1 10 15 -18 29 -39 20z"/>
<path d="M5455 5509 c-10 -15 4 -59 18 -59 26 0 47 24 41 48 -7 23 -47 31 -59
11z m43 -21 c-6 -18 -28 -21 -28 -4 0 9 7 16 16 16 9 0 14 -5 12 -12z"/>
<path d="M8065 5510 c-135 -6 -144 -17 -15 -20 148 -3 170 -1 170 15 0 8 -8
14 -17 13 -10 -1 -72 -4 -138 -8z"/>
<path d="M10490 5505 c0 -13 12 -15 72 -13 46 2 73 7 76 16 3 9 -16 12 -72 12
-62 0 -76 -3 -76 -15z"/>
<path d="M7805 5481 c19 -37 35 -48 35 -23 0 18 -28 52 -44 52 -3 0 0 -13 9
-29z"/>
<path d="M9053 5503 c-95 -4 -114 -23 -23 -23 37 0 60 -4 60 -11 0 -7 -21 -10
-60 -7 -33 1 -60 1 -60 -1 0 -2 11 -12 25 -23 14 -11 25 -25 25 -33 0 -12 57
-45 79 -45 6 0 11 18 11 40 0 38 2 40 30 40 21 0 30 5 30 16 0 13 -7 15 -30
11 -17 -4 -30 -2 -30 3 0 6 11 10 25 10 16 0 25 6 25 15 0 8 -6 14 -12 13 -7
-1 -50 -4 -95 -5z m37 -83 c0 -24 -4 -30 -22 -30 -15 0 -27 9 -34 25 -13 27
-7 33 34 34 18 1 22 -4 22 -29z"/>
<path d="M5251 5440 c-17 -22 -46 -47 -64 -57 -18 -9 -26 -18 -20 -20 33 -11
147 87 126 108 -6 6 -21 -5 -42 -31z"/>
<path d="M10490 5455 c0 -13 12 -15 72 -13 46 2 73 7 76 16 3 9 -16 12 -72 12
-62 0 -76 -3 -76 -15z"/>
<path d="M13030 5455 c0 -12 24 -55 32 -55 14 0 9 28 -8 44 -15 16 -24 20 -24
11z"/>
<path d="M3195 5420 c-3 -11 -11 -20 -16 -20 -5 0 -9 -7 -9 -15 0 -27 28 -16
39 16 13 39 13 39 2 39 -5 0 -13 -9 -16 -20z"/>
<path d="M3230 5416 c0 -26 15 -43 24 -28 7 12 -4 52 -15 52 -5 0 -9 -11 -9
-24z"/>
<path d="M6281 5414 c-6 -15 -9 -29 -6 -33 8 -7 35 28 35 46 0 22 -16 15 -29
-13z"/>
<path d="M6320 5416 c0 -14 5 -28 10 -31 6 -4 10 7 10 24 0 17 -4 31 -10 31
-5 0 -10 -11 -10 -24z"/>
<path d="M9917 5434 c-14 -14 -7 -35 11 -32 9 2 17 10 17 17 0 16 -18 25 -28
15z"/>
<path d="M10930 5420 c0 -11 7 -20 15 -20 8 0 15 9 15 20 0 11 -7 20 -15 20
-8 0 -15 -9 -15 -20z"/>
<path d="M13000 5433 c0 -4 7 -17 15 -27 17 -23 34 -13 19 11 -12 19 -34 29
-34 16z"/>
<path d="M557 5424 c-14 -14 -7 -35 11 -32 9 2 17 10 17 17 0 16 -18 25 -28
15z"/>
<path d="M13464 5265 c-7 -17 -64 -21 -64 -5 0 15 -23 12 -61 -7 -25 -13 -30
-18 -16 -21 24 -5 22 -32 -3 -32 -11 0 -20 -4 -20 -10 0 -5 9 -10 19 -10 18 0
19 -3 9 -32 -6 -18 -15 -37 -19 -42 -11 -13 -12 -36 -1 -36 5 0 14 10 20 23 9
19 11 15 11 -30 1 -29 6 -53 11 -53 6 0 10 31 10 73 1 54 3 68 11 55 12 -22
29 -23 29 -3 0 8 -9 19 -21 25 -26 14 -18 24 13 17 21 -6 23 -11 22 -74 0 -55
-4 -69 -17 -71 -17 -4 -24 -22 -8 -22 16 0 80 30 86 40 4 6 19 0 39 -15 37
-28 56 -32 56 -10 0 8 -6 15 -13 15 -19 0 -10 121 10 136 10 9 11 13 2 16 -6
2 -11 16 -11 31 0 21 -5 27 -23 27 -12 0 -28 7 -35 15 -7 8 -17 15 -22 15 -5
0 -11 -7 -14 -15z m-29 -35 l30 -8 -27 -1 c-16 0 -28 -5 -28 -11 0 -5 12 -11
28 -11 24 -2 24 -2 4 -6 -13 -3 -29 1 -37 7 -8 6 -18 9 -24 6 -5 -3 -11 0 -14
8 -10 27 9 31 68 16z m92 -6 c-3 -3 -12 -4 -19 -1 -8 3 -5 6 6 6 11 1 17 -2
13 -5z m11 -31 c-10 -2 -26 -2 -35 0 -10 3 -2 5 17 5 19 0 27 -2 18 -5z m-35
-30 c-13 -2 -35 -2 -50 0 -16 2 -5 4 22 4 28 0 40 -2 28 -4z m10 -50 c-13 -2
-35 -2 -50 0 -16 2 -5 4 22 4 28 0 40 -2 28 -4z m-10 -30 c-13 -2 -33 -2 -45
0 -13 2 -3 4 22 4 25 0 35 -2 23 -4z"/>
<path d="M12800 5218 c-12 -44 -15 -48 -18 -25 -3 23 -7 26 -28 21 -19 -5 -23
-3 -18 10 3 9 10 16 15 16 5 0 9 5 9 10 0 6 -9 10 -20 10 -11 0 -20 -6 -20
-14 0 -8 -9 -18 -20 -21 -18 -6 -20 -15 -20 -101 0 -52 2 -94 5 -94 3 0 14 6
25 12 16 10 24 10 40 0 11 -6 22 -12 25 -12 3 0 5 25 5 55 0 31 5 61 10 68 6
7 16 19 23 28 7 9 30 19 52 22 l41 5 -4 -42 c-9 -118 -12 -126 -43 -126 -16 0
-29 -4 -29 -9 0 -13 60 -25 71 -14 10 10 20 73 23 139 1 24 5 46 9 50 18 18 2
23 -55 18 -52 -6 -61 -4 -50 7 16 17 16 39 -1 39 -7 0 -19 -23 -27 -52z m-44
-64 c-3 -8 -15 -14 -26 -14 -30 0 -28 47 3 52 23 3 33 -13 23 -38z m4 -59 c0
-20 -5 -25 -25 -25 -20 0 -25 5 -25 25 0 20 5 25 25 25 20 0 25 -5 25 -25z"/>
<path d="M13220 5260 c-8 -5 -63 -10 -122 -10 -65 0 -108 -4 -108 -10 0 -5 25
-10 55 -10 44 0 53 -3 49 -15 -4 -10 -20 -15 -45 -15 l-39 0 0 -96 c0 -92 1
-95 21 -89 26 8 150 8 184 -1 l25 -6 0 96 0 96 -65 0 c-53 0 -63 3 -59 15 5
11 22 15 64 15 57 0 82 12 64 30 -5 5 -16 5 -24 0z m-152 -147 c-2 -55 -6 -68
-20 -71 -16 -3 -18 5 -18 67 0 65 2 71 20 71 19 0 21 -5 18 -67z m72 52 c0 -9
-9 -15 -25 -15 -16 0 -25 6 -25 15 0 9 9 15 25 15 16 0 25 -6 25 -15z m69 -55
c1 -68 0 -70 -24 -70 -24 0 -25 2 -25 70 0 67 1 70 24 70 23 0 24 -3 25 -70z
m-69 5 c0 -9 -9 -15 -25 -15 -16 0 -25 6 -25 15 0 9 9 15 25 15 16 0 25 -6 25
-15z m0 -55 c0 -15 -7 -20 -25 -20 -18 0 -25 5 -25 20 0 15 7 20 25 20 18 0
25 -5 25 -20z"/>
<path d="M11142 5243 c-6 -10 -21 -16 -41 -15 -27 1 -30 -2 -21 -14 7 -8 21
-12 35 -8 15 4 24 0 28 -10 8 -20 27 -21 27 -2 0 7 10 17 23 21 l22 8 -22 4
c-13 2 -23 11 -23 19 0 19 -17 18 -28 -3z"/>
<path d="M1790 5198 c-12 -44 -15 -48 -18 -25 -3 23 -7 26 -28 21 -24 -6 -34
9 -14 21 15 9 12 25 -5 25 -8 0 -17 -11 -21 -24 -4 -16 -11 -23 -20 -19 -11 4
-14 -12 -14 -91 0 -57 4 -96 10 -96 6 0 10 5 10 10 0 6 11 10 25 10 14 0 25
-4 25 -10 0 -5 6 -10 13 -10 10 0 14 17 16 57 1 32 6 60 10 63 4 3 13 15 20
28 9 18 20 22 56 22 l45 0 -7 -62 c-8 -87 -18 -111 -42 -103 -31 9 -33 -11 -3
-24 48 -23 61 9 75 189 2 24 0 25 -51 22 -49 -4 -52 -2 -50 18 6 46 -19 29
-32 -22z m-42 -50 c-2 -17 -11 -24 -30 -26 -24 -3 -28 0 -28 22 0 22 4 26 31
26 26 0 30 -3 27 -22z m-3 -58 c12 -20 -6 -50 -31 -50 -20 0 -24 5 -24 30 0
25 4 30 24 30 14 0 28 -5 31 -10z"/>
<path d="M2452 5230 c-7 -11 -18 -17 -27 -14 -12 5 -15 -4 -15 -49 0 -52 1
-54 25 -49 30 5 34 -14 4 -23 -14 -5 -31 0 -50 14 -23 17 -29 19 -29 6 0 -8
-4 -15 -10 -15 -16 0 -12 10 16 47 14 18 22 38 19 43 -9 15 -25 12 -25 -4 0
-16 -18 -31 -27 -23 -3 3 4 19 16 35 19 27 19 42 0 42 -8 0 -49 -81 -49 -98 0
-7 7 -12 17 -12 15 0 14 -2 -2 -20 -23 -26 -13 -55 14 -40 30 16 91 13 91 -4
0 -22 -16 -28 -30 -11 -17 21 -33 19 -26 -2 6 -17 5 -17 -7 -1 -19 24 -28 12
-15 -18 11 -24 28 -33 28 -14 0 6 5 10 11 10 6 0 9 -7 5 -15 -10 -28 25 -16
42 15 19 34 32 39 32 11 0 -11 -9 -21 -22 -25 l-23 -6 23 -15 c29 -21 42 -12
42 33 l0 37 20 -32 c19 -31 39 -41 53 -27 4 4 -6 18 -21 31 -26 23 -26 24 -8
38 10 8 24 16 30 19 7 3 4 9 -7 16 -15 9 -18 22 -15 58 l3 47 -34 -3 c-29 -3
-33 -2 -23 11 6 7 9 17 5 20 -10 11 -17 8 -31 -13z m41 -47 c-13 -2 -33 -2
-45 0 -13 2 -3 4 22 4 25 0 35 -2 23 -4z m17 -33 c0 -5 -21 -10 -46 -10 -27 0
-43 4 -39 10 3 6 24 10 46 10 21 0 39 -4 39 -10z m4 -39 c3 -5 0 -14 -8 -20
-11 -9 -15 -7 -19 9 -5 20 16 29 27 11z"/>
<path d="M2660 5220 c0 -23 -4 -30 -20 -30 -11 0 -20 -4 -20 -10 0 -5 7 -10
15 -10 20 0 19 -18 -5 -65 -23 -45 -23 -45 -10 -45 5 0 16 12 24 28 15 26 15
25 16 -41 0 -50 3 -68 13 -64 8 3 11 24 8 75 -3 71 9 96 24 50 6 -20 8 -21 12
-5 3 11 -5 29 -18 43 l-22 24 30 0 31 0 -2 -90 c-2 -69 1 -90 11 -90 7 0 13 5
13 10 0 6 18 10 40 10 29 0 40 -4 40 -15 0 -15 20 -22 20 -7 1 4 2 60 3 125
l2 117 -69 0 c-56 0 -67 -3 -62 -15 3 -9 0 -15 -8 -15 -8 0 -22 -3 -30 -6 -14
-5 -15 -2 -7 19 10 27 6 37 -16 37 -8 0 -13 -12 -13 -30z m180 -36 c0 -23 -3
-25 -36 -22 -27 2 -39 9 -45 26 -8 21 -6 22 36 22 42 0 45 -2 45 -26z m0 -64
c0 -29 -2 -30 -43 -30 -43 0 -43 1 -39 30 4 27 8 30 43 30 37 0 39 -2 39 -30z
m0 -70 c0 -28 -2 -30 -39 -30 -33 0 -39 3 -43 25 -7 32 -2 35 44 35 36 0 38
-2 38 -30z"/>
<path d="M3042 5233 c3 -15 -6 -18 -54 -21 -62 -3 -81 -22 -23 -22 43 0 44
-11 5 -43 -32 -28 -37 -37 -17 -37 15 1 77 56 77 70 0 6 34 10 86 10 64 0 85
3 81 13 -3 8 -21 11 -56 9 -45 -3 -55 -1 -67 17 -18 26 -36 27 -32 4z"/>
<path d="M5950 5238 c0 -7 -9 -31 -20 -53 -17 -33 -19 -35 -15 -12 6 28 5 28
-25 22 -25 -5 -29 -4 -24 9 3 9 10 16 15 16 5 0 9 5 9 10 0 22 -38 9 -44 -15
-4 -16 -11 -22 -21 -19 -13 5 -15 -9 -15 -90 0 -57 4 -96 10 -96 6 0 10 5 10
10 0 6 14 10 30 10 17 0 30 -4 30 -10 0 -5 5 -10 10 -10 6 0 10 26 10 58 0 47
4 60 20 70 12 7 18 16 15 21 -10 17 22 30 58 24 36 -5 37 -7 37 -47 0 -22 -3
-58 -6 -78 -6 -34 -10 -38 -35 -38 -36 0 -38 -17 -4 -26 51 -13 60 6 67 156
l3 54 -48 -3 c-45 -2 -48 -1 -45 20 2 12 -3 24 -9 26 -7 3 -13 -1 -13 -9z
m-60 -93 c0 -21 -5 -25 -30 -25 -25 0 -30 4 -30 25 0 21 5 25 30 25 25 0 30
-4 30 -25z m0 -72 c0 -24 -4 -28 -30 -28 -26 0 -30 4 -30 28 0 23 4 27 30 27
26 0 30 -4 30 -27z"/>
<path d="M6345 5240 c-3 -5 -27 -12 -53 -16 -67 -9 -87 -23 -34 -24 l42 0 0
-70 c0 -58 -3 -70 -16 -70 -14 0 -16 9 -12 55 4 41 1 55 -9 55 -9 0 -13 -16
-13 -55 0 -48 -2 -55 -20 -55 -11 0 -20 -4 -20 -9 0 -5 41 -9 90 -10 76 0 90
2 90 15 0 13 -7 15 -35 10 -35 -7 -35 -7 -35 29 0 32 2 35 31 35 20 0 29 4 26
13 -2 6 -16 11 -31 9 -23 -2 -26 1 -26 27 0 25 5 30 30 36 17 4 30 10 30 15 0
12 -29 20 -35 10z"/>
<path d="M6610 5235 c0 -8 -9 -15 -20 -15 -18 0 -20 -7 -20 -55 0 -54 1 -55
25 -49 15 4 25 2 25 -5 0 -17 -77 -14 -84 4 -3 8 -10 15 -16 15 -6 0 -9 -4 -6
-9 3 -5 -3 -11 -14 -14 -20 -5 -19 -4 1 25 12 16 27 32 34 34 15 6 16 34 1 34
-7 0 -19 -9 -29 -20 -26 -31 -40 -24 -20 10 9 17 21 30 25 30 4 0 8 5 8 10 0
6 -8 10 -17 10 -12 0 -24 -15 -35 -43 -22 -51 -23 -71 -4 -64 12 5 12 2 0 -21
-20 -39 -18 -45 14 -37 28 8 93 7 101 -1 2 -2 -5 -18 -18 -34 -18 -24 -19 -30
-6 -30 9 0 25 16 36 35 12 19 23 35 25 35 2 0 4 -13 4 -30 0 -24 -4 -30 -21
-30 -12 0 -19 -5 -16 -12 2 -7 15 -13 28 -13 19 0 25 6 29 33 l5 32 20 -30
c11 -16 26 -30 33 -30 19 0 14 28 -8 40 -11 6 -20 17 -20 25 0 7 9 17 20 20
22 7 26 20 10 30 -5 3 -10 28 -10 56 0 48 -1 49 -30 49 -22 0 -28 4 -24 15 4
9 0 15 -10 15 -9 0 -16 -7 -16 -15z m55 -45 c4 -6 -10 -10 -34 -10 -23 0 -41
3 -41 8 0 11 68 13 75 2z m5 -40 c0 -5 -18 -10 -40 -10 -22 0 -40 5 -40 10 0
6 18 10 40 10 22 0 40 -4 40 -10z m0 -39 c0 -17 -18 -21 -24 -6 -3 9 0 15 9
15 8 0 15 -4 15 -9z"/>
<path d="M6874 5189 c-6 -57 -8 -60 -32 -57 -35 4 -41 28 -7 28 17 0 25 5 22
13 -2 6 -12 12 -22 12 -10 0 -20 6 -23 13 -2 6 3 12 11 12 8 0 21 7 28 17 13
15 10 15 -26 9 -22 -4 -41 -9 -43 -11 -2 -2 0 -18 5 -37 12 -48 5 -108 -13
-108 -8 0 -14 -4 -14 -10 0 -5 20 -10 45 -10 25 0 45 -4 45 -8 0 -5 -19 -19
-42 -32 -31 -18 -38 -25 -26 -28 26 -5 97 38 91 54 -4 11 12 14 81 14 56 0 86
4 86 11 0 6 -9 13 -20 16 -11 3 -18 8 -16 12 2 3 6 35 7 71 l4 65 -30 -4 c-16
-1 -33 -8 -36 -13 -4 -7 -9 -7 -13 0 -4 6 -14 8 -23 5 -12 -5 -15 -2 -10 10 4
11 1 17 -8 17 -10 0 -16 -18 -21 -61z m116 6 c0 -8 -9 -15 -20 -15 -11 0 -20
-4 -20 -10 0 -5 9 -10 20 -10 11 0 20 -7 20 -15 0 -8 -9 -15 -20 -15 -11 0
-20 -4 -20 -10 0 -5 7 -10 15 -10 8 0 15 -7 15 -15 0 -9 -9 -15 -25 -15 -25 0
-25 1 -19 56 l7 55 -29 -7 c-20 -4 -26 -3 -19 4 9 10 39 18 78 21 9 0 17 -6
17 -14z m-70 -49 c0 -26 -12 -46 -27 -46 -10 0 -13 6 -9 16 3 9 6 22 6 30 0 8
7 14 15 14 8 0 15 -6 15 -14z m-66 -51 c-7 -16 -30 -20 -38 -6 -7 11 4 21 25
21 12 0 16 -5 13 -15z"/>
<path d="M8070 5228 c-1 -13 -7 -36 -15 -53 l-14 -30 6 29 c6 27 5 28 -26 21
-35 -7 -39 0 -14 27 15 17 15 18 -11 18 -15 0 -25 -4 -21 -9 3 -5 -4 -16 -14
-23 -16 -12 -21 -30 -26 -100 -6 -87 3 -114 28 -89 14 14 57 15 57 1 0 -5 5
-10 10 -10 6 0 10 27 10 60 0 33 4 60 10 60 5 0 16 13 24 28 13 25 20 29 53
27 l38 -3 -3 -53 c-5 -96 -11 -112 -38 -106 -32 6 -40 -9 -13 -23 46 -25 65 7
73 129 l6 82 -50 -7 -51 -7 7 27 c5 20 2 26 -10 26 -10 0 -16 -9 -16 -22z
m-50 -73 c0 -21 -5 -25 -29 -25 -17 0 -31 6 -35 16 -9 23 2 34 35 34 24 0 29
-4 29 -25z m0 -75 c0 -27 -3 -30 -30 -30 -54 0 -55 53 -1 57 28 2 31 0 31 -27z"/>
<path d="M8465 5241 c-6 -5 -33 -14 -61 -19 -40 -7 -53 -6 -60 5 -10 14 -84 7
-84 -8 0 -5 11 -7 25 -3 28 7 32 -3 10 -32 -22 -29 -19 -57 5 -49 21 7 24 -3
14 -43 -6 -21 -7 -21 -21 -5 -13 16 -14 15 -9 -12 3 -23 -2 -37 -22 -57 -28
-31 -12 -40 20 -11 17 15 22 15 41 3 13 -8 59 -16 110 -18 77 -4 87 -3 87 13
0 14 -8 16 -47 15 -75 -4 -127 0 -142 9 -11 7 -11 17 4 60 18 56 15 84 -10 75
-14 -6 -14 -3 -4 20 8 16 18 25 27 21 7 -3 29 -5 47 -5 l34 0 -5 -67 c-4 -72
-7 -79 -24 -68 -8 5 -11 25 -8 56 4 37 2 49 -8 49 -10 0 -14 -16 -14 -56 0
-46 -3 -55 -15 -50 -8 3 -15 0 -15 -7 0 -8 25 -12 85 -13 66 0 85 3 85 14 0 9
-10 12 -32 10 -31 -3 -33 -1 -36 30 -3 30 -1 32 28 32 21 0 30 4 27 13 -2 7
-16 11 -32 9 -22 -3 -26 0 -21 13 3 9 6 23 6 30 0 7 11 16 25 19 14 4 25 13
25 21 0 17 -21 20 -35 6z"/>
<path d="M8730 5235 c0 -8 -9 -15 -20 -15 -18 0 -20 -7 -20 -56 0 -50 2 -55
19 -49 11 3 22 1 26 -5 4 -6 -6 -10 -24 -10 -17 0 -31 -4 -31 -10 0 -5 7 -10
15 -10 13 0 14 -4 5 -21 -11 -19 -12 -20 -24 -3 -7 10 -11 25 -9 34 2 9 -3 22
-11 29 -9 8 -16 9 -16 3 0 -5 -7 -13 -16 -16 -12 -5 -11 0 5 22 11 16 27 35
35 42 9 7 13 16 10 21 -8 14 -34 10 -34 -5 0 -7 -8 -16 -19 -19 -14 -3 -17 0
-14 14 3 10 11 24 19 30 17 14 18 29 1 29 -17 0 -50 -63 -45 -86 2 -11 10 -18
16 -16 8 1 7 -6 -4 -23 -18 -28 -12 -64 9 -48 19 15 49 24 42 13 -3 -5 0 -20
7 -32 7 -13 11 -26 10 -30 -5 -19 29 -5 44 17 9 14 20 22 25 20 13 -8 -1 -35
-18 -35 -13 0 -13 -3 -3 -15 20 -24 40 -17 47 17 l6 31 23 -26 c13 -15 28 -27
34 -27 18 0 11 22 -15 42 -20 16 -23 23 -14 34 6 8 18 14 25 14 8 0 14 7 14
15 0 8 -5 15 -11 15 -8 0 -10 17 -7 50 5 49 5 50 -23 50 -19 0 -29 5 -29 15 0
8 -7 15 -15 15 -8 0 -15 -7 -15 -15z m56 -47 c4 -5 -11 -8 -34 -8 -23 0 -42 3
-42 8 0 4 15 7 34 7 19 0 38 -3 42 -7z m4 -38 c0 -5 -18 -10 -40 -10 -22 0
-40 5 -40 10 0 6 18 10 40 10 22 0 40 -4 40 -10z m-2 -42 c-3 -7 -8 -13 -13
-13 -5 0 -10 6 -12 13 -3 6 3 12 12 12 9 0 15 -6 13 -12z"/>
<path d="M8950 5221 c0 -26 -4 -31 -25 -31 -14 0 -25 -4 -25 -10 0 -5 9 -10
20 -10 26 0 25 -6 -5 -55 -27 -44 -30 -55 -15 -55 6 0 20 15 31 33 l21 32 -6
-73 c-4 -54 -2 -72 7 -69 7 2 14 33 18 73 3 38 6 63 7 57 3 -18 22 -16 22 1 0
7 -7 19 -15 26 -21 17 -19 30 5 30 19 0 20 -7 20 -90 0 -82 8 -107 25 -80 3 6
22 10 41 10 19 0 34 -4 34 -10 0 -18 30 -11 31 8 0 16 0 195 -1 217 0 6 -27 9
-62 8 -52 -1 -64 -5 -68 -20 -3 -10 -13 -19 -23 -19 -13 -1 -17 4 -15 24 2 13
-3 27 -9 29 -9 3 -13 -6 -13 -26z m160 -31 c0 -17 -7 -20 -39 -20 -34 0 -38 3
-34 20 4 15 14 20 39 20 27 0 34 -4 34 -20z m0 -65 c0 -22 -4 -25 -40 -25 -32
0 -40 4 -40 18 0 26 9 32 47 32 29 0 33 -3 33 -25z m0 -70 c0 -22 -4 -25 -40
-25 -32 0 -40 4 -40 18 0 26 9 32 47 32 29 0 33 -3 33 -25z"/>
<path d="M9325 5230 c6 -18 2 -20 -49 -20 -31 0 -56 -4 -56 -10 0 -5 17 -10
37 -10 l37 0 -39 -40 c-24 -24 -33 -40 -24 -40 20 0 91 59 84 70 -3 5 31 10
76 12 56 2 84 7 87 16 3 10 -10 11 -61 6 -60 -6 -64 -5 -70 15 -3 11 -10 21
-17 21 -7 0 -9 -8 -5 -20z"/>
<path d="M9570 5244 c0 -3 5 -14 10 -25 9 -16 7 -19 -15 -19 -14 0 -25 -4 -25
-10 0 -5 7 -10 16 -10 14 0 16 -9 11 -58 -2 -32 -12 -73 -21 -90 -13 -26 -14
-32 -3 -32 17 0 35 37 43 90 7 40 34 58 34 23 0 -55 -13 -93 -31 -93 -23 0
-25 -16 -3 -24 34 -13 41 -6 48 48 4 42 13 63 36 88 17 18 33 43 36 56 8 30
16 28 38 -13 26 -47 43 -62 58 -47 9 9 5 16 -13 31 -14 10 -34 35 -44 55 -11
20 -23 36 -27 36 -4 0 -19 -25 -34 -55 -19 -41 -29 -53 -38 -46 -7 6 -22 8
-34 4 -16 -4 -22 -1 -22 10 0 10 11 17 33 19 17 2 30 8 27 13 -3 6 -12 9 -21
8 -9 -1 -22 9 -29 22 -12 22 -30 34 -30 19z"/>
<path d="M11238 5236 c-22 -16 -23 -26 -3 -26 9 0 12 -6 9 -15 -4 -8 -1 -15 5
-15 7 0 14 7 17 15 4 9 19 15 40 15 19 0 34 5 34 10 0 10 -13 14 -42 11 -10
-1 -18 3 -18 8 0 15 -21 13 -42 -3z"/>
<path d="M2018 5232 c-42 -4 -53 -22 -13 -22 29 0 30 -5 10 -40 -20 -36 -18
-43 10 -38 28 6 30 0 13 -36 -10 -24 -12 -24 -25 -8 -12 15 -13 14 -8 -15 5
-24 1 -36 -16 -52 -12 -11 -20 -24 -16 -27 4 -4 16 1 26 10 19 17 22 17 63 2
49 -19 179 -19 185 0 3 8 -10 10 -41 7 -55 -7 -125 3 -148 21 -16 12 -16 16
-4 42 8 16 18 42 22 58 7 28 6 29 -21 22 l-27 -7 22 36 c26 42 20 51 -32 47z"/>
<path d="M2138 5222 c-61 -15 -81 -37 -25 -27 l33 6 -2 -63 c-2 -79 -2 -78
-14 -78 -5 0 -10 25 -10 56 0 40 -3 54 -12 51 -9 -3 -12 -21 -10 -52 2 -40 -1
-48 -18 -52 -11 -3 -20 -9 -20 -15 0 -5 41 -7 93 -6 57 2 90 7 87 13 -3 6 -18
10 -34 10 -26 0 -29 4 -30 33 -1 29 2 32 27 32 18 0 27 5 27 16 0 12 -6 15
-25 10 -23 -6 -25 -3 -25 24 0 19 5 30 14 30 7 0 19 7 26 15 16 19 -1 18 -82
-3z"/>
<path d="M3295 5220 c5 -16 2 -20 -19 -20 -14 0 -26 -4 -26 -10 0 -5 9 -10 19
-10 17 0 19 -6 14 -62 -3 -35 -12 -78 -19 -95 -7 -19 -9 -33 -3 -33 12 0 36
56 44 103 4 24 11 37 21 37 12 0 14 -12 12 -57 -3 -50 -6 -58 -23 -58 -30 0
-24 -20 7 -23 29 -3 29 -3 42 74 3 18 17 45 32 60 14 16 31 40 36 54 l10 25
19 -38 c19 -37 44 -56 56 -44 3 3 -9 23 -26 44 -17 21 -31 46 -31 55 0 25 -27
22 -35 -3 -13 -41 -48 -91 -55 -79 -4 7 -18 8 -33 4 -23 -5 -27 -3 -27 15 0
18 6 21 40 21 22 0 40 5 40 10 0 10 -14 14 -39 10 -7 -1 -20 8 -28 19 -18 27
-36 27 -28 1z"/>
<path d="M4868 5235 c-3 -4 -54 -7 -112 -7 -58 0 -106 -4 -106 -9 0 -5 23 -9
51 -9 43 0 50 -3 45 -16 -3 -9 -6 -18 -6 -20 0 -2 -16 -4 -35 -4 l-35 0 0 -95
c0 -57 4 -95 10 -95 6 0 10 35 10 85 0 78 2 85 20 85 18 0 20 -7 20 -74 0
-101 18 -108 22 -9 3 76 4 78 28 78 25 0 25 -1 22 -72 -2 -60 1 -73 13 -73 12
0 15 15 15 75 0 68 2 75 20 75 18 0 20 -7 20 -65 0 -51 -3 -65 -15 -65 -19 0
-19 -14 0 -30 25 -21 33 -1 37 94 l3 90 -63 -3 c-57 -2 -63 -1 -60 16 3 15 15
18 76 21 52 2 72 6 69 15 -4 13 -39 22 -49 12z"/>
<path d="M6163 5233 c-39 -5 -44 -23 -7 -23 l26 0 -21 -34 c-27 -43 -26 -50 5
-42 24 6 26 5 20 -16 -3 -13 -6 -27 -6 -32 0 -5 -8 -2 -17 5 -15 13 -16 11
-10 -20 6 -27 3 -37 -15 -52 -11 -11 -19 -22 -15 -25 8 -8 47 15 47 28 0 6 9
3 19 -7 15 -12 43 -19 103 -22 72 -5 86 -3 98 12 14 17 12 18 -45 12 -60 -7
-129 3 -147 21 -10 10 12 92 24 92 5 0 8 7 8 15 0 9 -9 15 -25 15 -25 0 -25 1
-10 30 16 32 19 51 8 48 -5 0 -23 -3 -40 -5z"/>
<path d="M7573 5215 c-67 -29 -95 -134 -46 -170 32 -25 117 -16 128 12 8 24
-5 31 -19 10 -20 -26 -72 -22 -92 8 -13 20 -14 30 -4 59 13 42 53 76 86 76 17
0 24 -6 24 -19 0 -33 17 -33 29 -1 5 17 9 30 8 31 -22 8 -90 5 -114 -6z"/>
<path d="M10180 5223 c-30 -11 -70 -57 -76 -89 -13 -70 16 -104 90 -104 l52 0
12 45 c7 25 16 45 22 45 5 0 10 4 10 9 0 10 -58 12 -74 3 -4 -2 -3 -8 4 -12 8
-5 10 -18 5 -39 -5 -25 -11 -31 -33 -31 -36 0 -49 10 -57 42 -8 33 18 91 49
107 34 19 70 10 74 -16 4 -24 22 -32 22 -10 0 6 3 21 6 32 4 18 0 20 -43 22
-26 1 -55 -1 -63 -4z"/>
<path d="M11680 5145 c-22 -46 -40 -91 -40 -100 0 -17 38 -19 126 -9 l52 7
-15 36 c-8 20 -19 38 -23 41 -5 3 -8 7 -7 10 2 11 -38 100 -45 100 -4 0 -26
-38 -48 -85z m50 0 c0 -8 9 -30 21 -49 20 -34 20 -36 2 -36 -10 0 -35 -3 -55
-6 l-37 -7 26 61 c25 56 43 71 43 37z"/>
<path d="M11897 5219 c12 -12 -17 -140 -38 -166 -12 -14 -7 -15 57 -12 60 4
74 8 97 31 15 15 27 35 27 46 0 10 5 23 12 30 9 9 9 12 0 12 -7 0 -12 9 -12
19 0 36 -27 51 -93 51 -44 0 -58 -3 -50 -11z m107 -25 c22 -56 -21 -134 -74
-134 -27 0 -28 1 -20 33 5 17 14 51 20 75 9 37 14 42 39 42 17 0 31 -7 35 -16z"/>
<path d="M12113 5204 c-2 -44 -34 -138 -51 -151 -13 -11 -2 -13 61 -13 75 0
78 1 88 26 13 36 3 43 -21 16 -13 -13 -33 -22 -50 -22 -17 0 -30 2 -30 4 0 1
5 17 11 35 11 32 39 43 39 16 0 -28 17 -15 24 17 7 37 2 45 -19 28 -20 -17
-27 -8 -19 24 4 19 13 26 30 26 14 0 27 -7 30 -15 9 -24 24 -17 24 10 0 24 -3
25 -57 25 -55 0 -58 -1 -60 -26z"/>
<path d="M12280 5207 c0 -36 -30 -130 -48 -149 -14 -17 -13 -18 20 -18 32 0
35 2 31 24 -7 35 13 66 42 66 16 0 25 -6 25 -16 0 -26 17 -6 22 26 4 25 2 30
-11 24 -47 -19 -54 -18 -48 7 4 13 7 27 7 32 0 11 80 8 80 -3 0 -5 5 -10 10
-10 6 0 10 9 10 20 0 18 -7 20 -70 20 -67 0 -70 -1 -70 -23z"/>
<path d="M1110 5211 c0 -5 4 -11 10 -13 13 -4 -33 -148 -51 -158 -25 -16 -2
-21 61 -14 34 4 68 13 76 21 16 16 19 73 4 73 -5 0 -1 9 10 20 42 42 13 80
-61 80 -27 0 -49 -4 -49 -9z m85 -35 c0 -20 -30 -45 -40 -34 -3 3 -3 18 1 32
7 31 39 32 39 2z m-12 -78 c14 -22 -7 -48 -39 -48 -21 0 -24 3 -18 28 4 15 9
31 11 35 7 13 35 4 46 -15z"/>
<path d="M1296 5193 c1 -16 -5 -44 -13 -63 -8 -19 -13 -35 -12 -35 6 0 -15
-51 -23 -56 -5 -3 23 -9 63 -13 40 -3 76 -3 80 1 12 13 22 63 12 63 -4 0 -14
-9 -21 -20 -8 -14 -23 -20 -47 -20 -38 0 -40 5 -25 44 12 32 28 33 39 4 7 -18
10 -19 14 -8 13 39 17 70 7 70 -5 0 -10 -4 -10 -10 0 -5 -7 -10 -15 -10 -16 0
-19 17 -9 44 8 21 43 20 66 -1 17 -15 18 -15 18 10 0 26 -1 27 -63 27 -62 0
-63 0 -61 -27z"/>
<path d="M3866 5206 c3 -8 -5 -47 -17 -88 -28 -90 -29 -93 -5 -93 14 0 19 8
21 33 3 32 20 62 36 62 5 0 18 -9 28 -19 19 -19 19 -18 29 20 6 22 7 39 4 37
-72 -37 -80 -36 -65 9 8 23 16 29 46 31 27 2 39 -1 43 -12 9 -25 24 -19 24 9
0 24 -2 25 -75 25 -60 0 -73 -3 -69 -14z"/>
<path d="M5307 5181 c-14 -21 -46 -64 -72 -95 -36 -44 -42 -58 -30 -62 20 -8
48 3 40 16 -9 15 14 40 36 40 12 0 19 -7 19 -20 0 -11 -6 -20 -12 -20 -26 0
17 -20 45 -20 31 0 33 5 12 26 -8 9 -13 25 -11 37 12 57 17 137 8 137 -5 0
-21 -17 -35 -39z m-6 -74 c-16 -16 -26 0 -10 19 9 11 15 12 17 4 2 -6 -1 -17
-7 -23z"/>
<path d="M5435 5201 c8 -26 -25 -152 -41 -158 -8 -3 -14 -9 -14 -14 0 -10 48
-12 113 -3 38 5 47 11 52 31 8 34 -2 42 -21 15 -11 -16 -25 -22 -51 -22 -33 0
-35 1 -28 27 9 36 27 47 42 26 15 -20 19 -17 28 25 4 20 3 32 -4 32 -6 0 -11
-4 -11 -10 0 -5 -7 -10 -15 -10 -16 0 -19 17 -9 44 8 20 53 21 60 1 9 -24 24
-17 24 10 0 24 -2 25 -66 25 -60 0 -65 -2 -59 -19z"/>
<path d="M7370 5196 c0 -13 -10 -55 -23 -95 l-23 -71 47 0 c26 0 59 4 73 10
29 11 44 53 27 74 -8 10 -8 16 4 26 20 17 19 66 -1 74 -9 3 -36 6 -60 6 -40 0
-44 -2 -44 -24z m90 -14 c0 -23 -19 -42 -41 -42 -17 0 -19 25 -4 50 11 17 45
11 45 -8z m-20 -66 c0 -2 3 -11 6 -19 7 -20 -22 -47 -53 -47 -19 0 -24 4 -19
16 3 9 6 24 6 35 0 14 7 19 30 19 17 0 30 -2 30 -4z"/>
<path d="M11172 5170 c-9 -15 -23 -20 -57 -20 -57 0 -59 -18 -2 -22 l42 -3
-44 -47 c-27 -30 -38 -48 -28 -48 8 0 20 7 27 15 19 23 30 18 30 -14 l0 -28
85 1 85 1 0 46 0 46 -76 -5 c-75 -5 -76 -5 -65 17 10 19 20 21 91 21 61 0 80
3 80 14 0 10 -15 12 -69 8 -67 -4 -70 -4 -64 17 7 27 -18 28 -35 1z m113 -120
c0 -24 -3 -25 -60 -25 -54 0 -60 2 -63 22 -3 19 2 22 40 26 74 7 83 4 83 -23z"/>
<path d="M3101 5173 c0 -5 16 -21 34 -36 41 -34 57 -19 18 17 -27 25 -54 34
-52 19z"/>
<path d="M9380 5171 c10 -7 11 -14 4 -18 -5 -5 -16 -23 -24 -42 -13 -32 -14
-32 -27 -15 -8 11 -18 26 -23 34 -5 8 -12 12 -15 8 -4 -4 2 -23 14 -42 l22
-34 -28 -19 c-16 -11 -43 -25 -60 -32 -18 -8 -33 -17 -33 -22 0 -11 0 -11 41
2 19 7 48 22 65 35 26 19 34 21 43 10 18 -21 89 -49 107 -42 22 9 10 18 -48
40 -26 10 -50 22 -54 27 -3 6 6 25 20 43 14 19 22 37 18 40 -3 4 1 4 11 0 9
-3 17 -10 17 -15 0 -5 7 -9 15 -9 38 0 -3 45 -50 55 -23 5 -26 4 -15 -4z"/>
<path d="M12820 5154 c0 -12 34 -64 42 -64 15 0 8 37 -10 53 -19 17 -32 22
-32 11z"/>
<path d="M3104 5138 c-5 -7 -13 -22 -19 -32 -13 -26 -28 -26 -40 1 -10 23 -33
38 -44 28 -3 -3 1 -10 9 -15 8 -6 11 -10 7 -10 -5 0 1 -12 13 -27 20 -26 21
-28 3 -41 -10 -8 -38 -23 -63 -34 -31 -13 -40 -22 -31 -27 12 -8 56 11 119 50
16 10 25 11 30 3 9 -15 67 -44 86 -44 23 0 30 19 9 26 -47 15 -93 38 -93 46 0
6 10 23 21 40 15 20 18 33 11 40 -6 6 -13 5 -18 -4z"/>
<path d="M4243 5115 c1 -40 11 -45 27 -14 14 24 6 49 -14 49 -10 0 -14 -11
-13 -35z"/>
<path d="M10650 5119 c0 -27 3 -30 28 -27 21 2 28 9 30 31 3 24 0 27 -27 27
-28 0 -31 -3 -31 -31z m40 0 c0 -5 -7 -9 -15 -9 -15 0 -20 12 -9 23 8 8 24 -1
24 -14z"/>
<path d="M1819 5108 c22 -36 41 -47 41 -26 0 15 -40 58 -54 58 -4 0 1 -15 13
-32z"/>
<path d="M5960 5133 c0 -5 11 -21 25 -38 22 -27 24 -28 25 -9 0 11 -8 28 -18
37 -20 18 -32 22 -32 10z"/>
<path d="M8080 5133 c1 -5 12 -21 25 -38 22 -27 25 -28 25 -9 0 11 -8 28 -18
37 -20 18 -32 22 -32 10z"/>
<path d="M9690 5134 c0 -16 53 -55 68 -49 14 5 13 8 -4 24 -20 20 -64 37 -64
25z"/>
<path d="M3420 5125 c0 -9 40 -45 50 -45 16 0 12 22 -7 36 -18 13 -43 19 -43
9z"/>
<path d="M6480 5063 c0 -6 9 -21 20 -34 15 -18 19 -20 20 -8 0 9 -9 24 -20 34
-11 10 -20 13 -20 8z"/>
<path d="M6522 5050 c13 -20 28 -27 28 -12 0 10 -22 32 -32 32 -5 0 -3 -9 4
-20z"/>
<path d="M8610 5065 c0 -12 24 -55 32 -55 11 0 10 17 -2 41 -9 17 -30 27 -30
14z"/>
<path d="M3410 5053 c0 -10 52 -63 62 -63 18 0 7 30 -18 49 -27 21 -44 27 -44
14z"/>
<path d="M9690 5053 c0 -13 53 -63 67 -63 22 0 14 17 -21 44 -36 27 -46 31
-46 19z"/>
<path d="M2304 5038 c3 -7 9 -21 12 -30 8 -21 24 -24 24 -4 0 26 -12 46 -27
46 -8 0 -12 -6 -9 -12z"/>
<path d="M6450 5043 c0 -5 6 -18 14 -29 17 -22 35 -11 20 13 -12 19 -34 29
-34 16z"/>
<path d="M6930 5046 c0 -4 78 -56 85 -56 3 0 5 7 5 15 0 15 -49 45 -75 45 -8
0 -15 -2 -15 -4z"/>
<path d="M8584 5035 c3 -9 6 -21 6 -26 0 -5 7 -9 15 -9 22 0 18 23 -6 39 -19
11 -21 11 -15 -4z"/>
<path d="M2139 4784 c-12 -15 -11 -16 19 -10 29 7 32 6 32 -18 0 -14 -14 -41
-31 -61 -25 -28 -28 -36 -16 -41 25 -9 70 0 75 15 3 10 -2 12 -22 7 -33 -8
-33 4 -1 34 19 18 25 33 23 55 -3 25 -8 30 -34 33 -19 2 -36 -3 -45 -14z"/>
<path d="M1159 4733 c0 -27 -1 -27 -11 -5 -6 12 -17 22 -25 22 -11 0 -11 -4
-3 -20 9 -17 8 -20 -10 -20 -11 0 -20 -7 -20 -15 0 -11 8 -14 30 -10 24 4 30
2 30 -12 -1 -23 -34 -96 -61 -134 -12 -17 -18 -33 -14 -37 8 -8 52 44 61 71 4
14 18 17 85 17 l79 0 0 -28 c0 -55 -45 -71 -61 -22 -10 28 -29 42 -29 20 0
-43 49 -87 80 -70 20 11 25 22 36 83 6 34 4 37 -16 37 -19 0 -21 4 -16 25 5
21 3 25 -14 25 -17 0 -20 5 -18 27 3 26 1 27 -40 24 -38 -2 -42 -1 -40 20 2
12 -3 24 -9 26 -9 3 -13 -5 -14 -24z m81 -54 c0 -15 -26 -27 -40 -19 -8 5 -18
6 -22 4 -8 -5 -11 9 -3 17 7 7 65 5 65 -2z m24 -54 c-5 -11 -21 -15 -60 -15
-43 0 -52 3 -48 15 5 11 21 15 60 15 43 0 52 -3 48 -15z"/>
<path d="M5100 4745 c0 -18 -76 -22 -82 -4 -3 9 -15 8 -43 -2 -26 -8 -34 -14
-22 -17 16 -3 26 -43 10 -41 -19 3 -33 -2 -33 -12 0 -6 7 -9 15 -5 21 8 19
-19 -5 -71 -20 -45 -12 -58 13 -22 14 19 15 16 13 -32 -1 -34 3 -54 12 -56 9
-4 12 15 13 69 0 40 3 67 6 61 7 -18 23 -16 23 2 0 7 -7 18 -16 23 -10 5 -14
15 -10 21 6 9 11 9 22 1 18 -15 177 -16 182 -1 2 6 -4 11 -13 11 -11 0 -15 5
-11 15 3 8 9 22 12 30 6 15 -3 19 -43 15 -17 -1 -21 3 -17 14 4 11 1 16 -10
16 -9 0 -16 -7 -16 -15z m-75 -25 c3 -5 19 -10 34 -10 20 0 30 -6 34 -19 3
-11 2 -22 -1 -25 -11 -12 -50 -6 -62 9 -7 8 -19 15 -26 15 -8 0 -14 9 -14 20
0 21 24 28 35 10z m123 -48 c2 -7 -3 -12 -12 -12 -9 0 -16 7 -16 16 0 17 22
14 28 -4z"/>
<path d="M5040 4690 c0 -5 9 -10 21 -10 11 0 17 5 14 10 -3 6 -13 10 -21 10
-8 0 -14 -4 -14 -10z"/>
<path d="M2820 4648 c0 -68 4 -98 12 -98 6 0 2 -10 -10 -23 -12 -13 -22 -26
-22 -30 0 -16 20 -5 51 28 31 32 58 48 44 25 -7 -11 23 -60 36 -60 15 0 10 27
-6 40 -10 8 -12 16 -6 19 5 4 11 49 12 100 l2 94 -57 1 -56 1 0 -97z m90 52
c0 -16 -7 -20 -35 -20 -28 0 -35 4 -35 20 0 16 7 20 35 20 28 0 35 -4 35 -20z
m0 -52 c0 -14 -8 -18 -35 -18 -27 0 -35 4 -35 18 0 15 8 18 35 18 26 -1 35 -5
35 -18z m0 -53 c0 -10 -11 -15 -35 -15 -24 0 -35 5 -35 15 0 10 11 15 35 15
24 0 35 -5 35 -15z"/>
<path d="M3029 4746 c-2 -2 -4 -57 -3 -121 l0 -116 -28 6 c-35 8 -37 -6 -2
-22 49 -23 54 -11 54 112 0 62 3 120 6 129 6 14 -15 23 -27 12z"/>
<path d="M4341 4718 c-5 -18 -10 -27 -10 -20 -1 6 -5 12 -11 12 -6 0 -10 -42
-10 -106 0 -94 2 -105 15 -94 9 7 27 10 44 7 29 -6 30 -5 36 38 4 24 4 48 1
53 -3 5 1 16 10 23 9 7 20 24 25 37 8 20 15 23 51 20 l43 -3 -3 -70 c-5 -103
-7 -108 -48 -100 -21 3 -34 2 -34 -5 0 -5 9 -10 20 -10 11 0 20 -4 20 -10 0
-5 7 -10 15 -10 29 0 46 46 52 139 l6 91 -51 0 c-45 0 -50 2 -45 20 4 13 0 20
-9 20 -9 0 -21 -18 -28 -42 -11 -34 -15 -38 -18 -20 -4 25 -12 28 -30 10 -17
-17 -28 0 -14 22 16 25 15 30 -3 30 -8 0 -19 -15 -24 -32z m32 -47 c4 -1 7
-12 7 -26 0 -20 -5 -25 -25 -25 -21 0 -25 5 -25 29 0 22 4 28 18 26 9 -2 20
-4 25 -4z m7 -101 c0 -25 -4 -30 -25 -30 -21 0 -25 5 -25 30 0 25 4 30 25 30
21 0 25 -5 25 -30z"/>
<path d="M4738 4743 c-67 -2 -118 -8 -118 -13 0 -6 23 -10 51 -10 47 0 50 -2
47 -22 -3 -20 -8 -23 -45 -20 l-43 2 0 -92 0 -93 120 0 120 0 0 91 c0 98 -8
114 -45 88 -17 -12 -17 -14 -2 -14 14 0 17 -11 17 -70 0 -63 -2 -70 -20 -70
-22 0 -22 -1 -23 88 0 61 0 62 -28 62 -18 0 -29 5 -29 14 0 24 24 35 85 38 33
2 60 7 60 13 0 12 0 12 -147 8z m-48 -153 c0 -56 -3 -70 -15 -70 -12 0 -15 14
-15 70 0 56 3 70 15 70 12 0 15 -14 15 -70z m88 58 c-7 -20 -58 -23 -58 -4 0
11 10 16 31 16 20 0 29 -4 27 -12z m0 -55 c-2 -11 -14 -19 -31 -21 -22 -3 -27
1 -27 17 0 17 6 21 31 21 24 0 30 -4 27 -17z m-2 -50 c-2 -11 -13 -19 -29 -21
-22 -3 -27 1 -27 17 0 16 6 21 29 21 22 0 29 -4 27 -17z"/>
<path d="M5289 4731 c9 -15 7 -20 -11 -24 -27 -8 -20 -16 15 -19 17 -2 27 -8
27 -18 -1 -20 -35 -94 -60 -130 -12 -17 -16 -31 -11 -35 6 -3 22 12 36 34 28
41 47 51 108 51 26 0 37 -4 37 -15 0 -8 9 -24 20 -35 18 -18 11 -38 -10 -25
-5 3 -15 3 -21 -1 -8 -4 -3 -11 12 -20 35 -18 56 -2 68 56 14 64 15 60 -10 60
-15 0 -20 5 -17 23 2 16 -2 22 -15 20 -15 -1 -18 4 -14 23 5 30 -7 39 -54 35
-34 -2 -37 0 -32 18 4 15 1 21 -11 21 -10 0 -16 -9 -17 -22 l0 -23 -11 23 c-6
12 -17 22 -25 22 -10 0 -11 -5 -4 -19z m124 -48 c12 -11 -14 -33 -39 -33 -25
0 -39 14 -29 30 7 11 58 14 68 3z m35 -55 c-3 -8 -24 -13 -58 -13 -34 0 -55 5
-57 13 -4 9 12 12 57 12 45 0 61 -3 58 -12z m32 -70 c0 -12 -1 -19 -3 -17 -1
2 -9 12 -16 22 -12 14 -11 17 3 17 10 0 16 -8 16 -22z"/>
<path d="M1596 4725 c-18 -19 -22 -70 -5 -81 8 -4 8 -9 0 -17 -15 -15 -14 -80
1 -95 7 -7 24 -12 38 -12 14 0 31 5 38 12 17 17 15 73 -3 88 -14 12 -14 15 0
36 26 40 17 68 -26 79 -18 4 -31 1 -43 -10z m43 -56 l-12 -24 -10 22 c-5 12
-7 30 -3 39 6 16 8 16 22 2 13 -13 14 -20 3 -39z m3 -84 c8 -18 8 -29 1 -36
-17 -17 -33 -1 -33 32 0 36 16 38 32 4z"/>
<path d="M2967 4724 c-11 -11 -8 -184 2 -184 14 0 19 26 23 109 3 69 -6 94
-25 75z"/>
<path d="M3548 4699 c-81 -66 -66 -184 23 -181 36 1 99 28 99 42 0 14 -12 12
-34 -5 -26 -19 -80 -19 -96 0 -20 24 -6 93 26 126 42 44 84 37 96 -16 4 -17 6
-16 17 9 18 44 8 56 -46 56 -39 0 -56 -6 -85 -31z"/>
<path d="M3736 4706 c6 -27 -32 -166 -46 -166 -6 0 -10 -4 -10 -10 0 -6 31
-10 73 -10 70 0 74 1 86 26 16 35 6 43 -19 16 -14 -14 -33 -22 -55 -22 -33 0
-33 0 -24 32 5 18 9 34 9 35 0 2 9 3 20 3 12 0 20 -7 20 -17 0 -27 17 -2 23
35 7 36 3 39 -19 17 -31 -31 -43 -11 -24 39 12 32 42 34 70 4 l20 -22 0 32 0
32 -65 0 c-64 0 -65 -1 -59 -24z"/>
<path d="M3930 4708 c-45 -30 -72 -84 -64 -127 16 -76 164 -91 164 -16 0 12 7
28 15 35 24 20 17 30 -20 30 -19 0 -35 -4 -35 -10 0 -5 4 -10 9 -10 5 0 6 -15
2 -32 -6 -28 -11 -33 -40 -36 -42 -4 -54 7 -58 55 -7 73 79 142 123 99 8 -8
14 -22 14 -31 0 -9 5 -13 10 -10 6 3 10 21 10 39 0 32 -1 32 -48 35 -36 1 -57
-4 -82 -21z"/>
<path d="M3343 4626 c-24 -51 -43 -95 -43 -99 0 -4 39 -7 86 -7 l86 0 -7 28
c-10 42 -66 172 -73 172 -4 0 -26 -42 -49 -94z m60 -8 c8 -24 18 -51 22 -60 6
-16 1 -18 -43 -18 -35 0 -50 4 -48 13 3 18 44 107 49 107 3 0 12 -19 20 -42z"/>
<path d="M2040 4665 c-15 -8 -31 -10 -40 -5 -8 4 -34 7 -57 6 -43 -2 -68 -15
-45 -23 15 -6 17 -103 2 -103 -5 0 -10 -5 -10 -10 0 -6 16 -10 35 -8 19 1 35
6 35 10 0 4 -4 8 -10 8 -5 0 -10 23 -10 50 0 44 2 50 21 50 20 0 21 -4 17 -60
-4 -57 -3 -60 18 -60 25 0 40 15 24 25 -5 3 -10 21 -10 39 0 35 21 62 40 51
14 -8 13 -78 -2 -93 -9 -9 -7 -13 5 -18 36 -14 44 0 36 71 -3 37 -11 70 -15
75 -5 5 -20 3 -34 -5z"/>
<path d="M1790 4650 c-41 -41 -17 -130 34 -130 24 0 75 52 57 58 -8 3 -18 -3
-23 -12 -11 -20 -22 -20 -42 0 -20 20 -21 58 -1 74 13 11 18 10 29 -5 14 -19
36 -13 36 10 0 30 -62 33 -90 5z"/>
<path d="M2489 4657 c-1 -1 -3 -22 -4 -46 -3 -39 -2 -42 12 -28 21 20 25 64 7
71 -8 3 -15 4 -15 3z"/>
<path d="M4466 4605 c14 -19 30 -35 35 -35 17 0 9 27 -14 48 -37 35 -51 26
-21 -13z"/>
<path d="M5044 4576 c5 -58 3 -64 -14 -69 -11 -3 -20 -10 -20 -16 0 -7 7 -7
23 -1 12 6 34 15 50 21 15 6 27 15 27 20 0 5 10 9 23 9 16 0 18 -3 9 -9 -11
-6 -7 -13 13 -29 15 -12 32 -19 38 -15 6 4 3 12 -10 22 -11 9 -18 21 -17 26 1
6 4 31 7 58 l5 47 -70 0 -70 0 6 -64z m89 37 c-13 -2 -33 -2 -45 0 -13 2 -3 4
22 4 25 0 35 -2 23 -4z m17 -23 c0 -5 -18 -10 -39 -10 -22 0 -43 5 -46 10 -4
6 12 10 39 10 25 0 46 -4 46 -10z m-17 -37 c-13 -2 -35 -2 -50 0 -16 2 -5 4
22 4 28 0 40 -2 28 -4z"/>
<path d="M1250 4575 c0 -12 21 -45 29 -45 15 0 4 45 -12 48 -9 2 -17 1 -17 -3z"/>
<path d="M1129 4543 c-7 -16 -15 -31 -17 -35 -2 -5 3 -8 12 -8 17 0 21 5 30
43 3 15 3 27 -2 27 -5 0 -15 -12 -23 -27z"/>
<path d="M1170 4540 c0 -16 5 -30 10 -30 6 0 10 14 10 30 0 17 -4 30 -10 30
-5 0 -10 -13 -10 -30z"/>
<path d="M5303 4543 c-15 -32 -16 -43 -5 -43 9 0 32 44 32 60 0 19 -15 9 -27
-17z"/>
<path d="M5340 4555 c0 -8 5 -15 11 -15 6 0 9 -7 5 -15 -3 -8 -1 -15 4 -15 14
0 19 15 13 38 -6 25 -33 30 -33 7z"/>
<path d="M5397 4545 c3 -14 10 -25 15 -25 13 0 6 43 -8 47 -7 2 -10 -6 -7 -22z"/>
<path d="M10270 4032 c0 -16 -9 -55 -20 -87 -25 -73 -25 -75 4 -75 18 0 23 4
19 18 -2 10 0 30 6 45 12 30 45 37 55 10 8 -20 21 -8 30 30 6 26 -6 38 -19 17
-11 -17 -45 -11 -45 8 0 27 20 42 57 42 23 0 33 -5 33 -15 0 -8 5 -15 10 -15
6 0 10 11 10 25 0 24 -2 25 -70 25 l-70 0 0 -28z"/>
<path d="M8387 4022 c16 -10 -17 -135 -43 -163 -17 -18 -15 -19 44 -19 77 0
127 23 142 63 16 47 12 76 -15 102 -20 21 -34 25 -82 25 -32 0 -52 -4 -46 -8z
m101 -24 c18 -18 14 -80 -6 -105 -9 -12 -34 -25 -56 -29 -36 -6 -39 -5 -32 12
4 10 14 45 23 77 13 47 20 57 38 57 11 0 26 -5 33 -12z"/>
<path d="M3457 3973 c-14 -14 -6 -31 12 -26 33 9 34 -18 2 -63 -20 -28 -26
-44 -17 -44 7 0 28 -3 45 -6 27 -6 31 -4 31 15 0 18 -4 20 -27 15 l-28 -7 23
25 c26 29 30 83 6 92 -20 8 -39 8 -47 -1z"/>
<path d="M6120 3892 c-30 -42 -58 -84 -62 -94 -4 -10 -12 -18 -18 -18 -5 0
-10 -4 -10 -10 0 -5 10 -10 23 -10 17 0 25 8 32 33 13 42 55 52 55 13 0 -14
-4 -26 -10 -26 -5 0 -10 -4 -10 -10 0 -5 16 -10 35 -10 33 0 46 16 28 34 -8 7
-6 78 3 139 3 20 2 37 -3 36 -4 0 -33 -34 -63 -77z m30 -22 c0 -11 -7 -20 -15
-20 -13 0 -14 4 -5 20 6 11 13 20 15 20 3 0 5 -9 5 -20z"/>
<path d="M1946 3848 c-14 -35 -26 -67 -26 -71 0 -5 -9 -20 -20 -34 -27 -35
-25 -45 8 -41 23 3 27 7 24 29 -3 24 1 27 33 31 30 3 38 0 45 -16 4 -12 4 -22
-1 -24 -22 -9 -6 -22 25 -22 36 0 56 14 33 23 -6 2 -18 22 -26 43 -39 110 -53
144 -60 144 -4 0 -20 -28 -35 -62z m43 -55 c1 -7 -8 -13 -19 -13 -23 0 -25 12
-8 43 11 21 11 21 19 2 4 -11 8 -26 8 -32z"/>
<path d="M2770 3900 c-12 -7 -12 -12 -2 -22 15 -15 17 -158 2 -158 -5 0 -10
-4 -10 -10 0 -5 16 -10 35 -10 34 0 46 12 25 25 -5 3 -10 46 -10 96 0 91 -5
101 -40 79z"/>
<path d="M2880 3891 c-17 -32 -12 -46 9 -27 28 25 55 17 59 -17 4 -30 -37
-101 -64 -111 -8 -3 -14 -12 -14 -21 0 -12 12 -15 54 -15 47 0 56 3 61 21 8
25 -1 37 -17 21 -7 -7 -23 -12 -37 -12 l-25 0 33 34 c37 38 53 105 31 131 -18
22 -77 19 -90 -4z"/>
<path d="M3094 3825 c-31 -48 -2 -125 48 -125 17 0 58 36 58 52 0 13 -17 9
-30 -7 -16 -19 -25 -19 -44 1 -17 17 -21 51 -8 72 10 16 42 5 42 -14 0 -8 7
-14 16 -14 11 0 14 8 12 28 -3 23 -8 27 -40 30 -30 3 -40 -1 -54 -23z"/>
<path d="M3205 3840 c-3 -5 -1 -11 5 -15 13 -8 13 -92 0 -100 -19 -12 -10 -25
18 -25 27 0 27 1 27 57 0 48 3 58 18 61 17 3 18 -3 16 -55 -3 -61 8 -74 49
-58 13 5 14 8 3 14 -16 10 -24 71 -12 90 5 8 16 11 26 7 14 -5 17 -16 13 -61
-5 -55 -5 -55 24 -55 29 0 35 9 19 26 -6 5 -11 31 -13 58 -4 58 -25 79 -59 58
-13 -8 -24 -10 -28 -4 -8 11 -99 13 -106 2z"/>
<path d="M3798 3832 c-21 -4 -35 -49 -20 -64 5 -5 20 -8 33 -6 17 2 25 10 27
29 3 29 -14 47 -40 41z m22 -37 c0 -8 -7 -15 -15 -15 -8 0 -15 7 -15 15 0 8 7
15 15 15 8 0 15 -7 15 -15z"/>
<path d="M9922 3821 c-7 -4 -99 -8 -205 -9 -106 -1 -253 -4 -327 -7 -75 -3
-141 -1 -149 4 -8 5 -22 6 -30 2 -9 -5 -275 -11 -591 -15 -316 -4 -651 -9
-745 -11 -93 -2 -399 -6 -680 -9 -697 -8 -925 -16 -925 -31 0 -6 21 -49 46
-96 25 -46 67 -122 92 -169 25 -47 57 -103 71 -125 37 -58 49 -78 57 -95 4 -8
35 -62 69 -120 34 -58 75 -127 90 -155 64 -114 111 -199 135 -239 14 -23 42
-74 64 -112 21 -38 65 -114 96 -169 32 -55 67 -116 77 -135 10 -19 35 -60 55
-90 19 -30 48 -80 63 -110 28 -56 166 -301 197 -349 21 -33 97 -170 156 -281
24 -46 72 -132 107 -190 34 -58 74 -125 88 -150 14 -25 44 -78 67 -119 l42
-74 622 7 c341 4 684 9 761 11 155 5 618 9 3075 31 344 3 631 7 637 9 23 7 2
34 -35 46 -65 21 -225 86 -315 128 -48 23 -90 41 -93 41 -4 0 -32 11 -63 24
-97 42 -440 176 -451 176 -6 0 -32 11 -58 24 -52 27 -470 196 -484 196 -9 0
-191 74 -345 141 -50 22 -116 48 -145 58 -74 26 -502 197 -567 227 -30 14
-151 63 -270 110 -119 47 -239 96 -268 110 -28 13 -55 24 -59 24 -4 0 -35 13
-68 29 -87 40 -127 58 -156 66 -14 4 -38 13 -55 20 -16 7 -91 36 -165 65 -74
29 -139 56 -144 60 -8 8 18 45 95 134 19 22 82 97 140 166 57 69 116 138 131
155 14 16 44 51 65 77 21 25 106 126 188 224 83 98 157 188 165 200 8 11 36
45 61 75 120 139 169 203 166 213 -4 13 -265 19 -285 7z m209 -58 c-5 -10 -36
-47 -68 -84 -32 -36 -94 -109 -138 -164 -68 -84 -380 -456 -578 -690 -33 -38
-89 -105 -125 -147 -36 -43 -70 -78 -75 -78 -6 0 -8 3 -4 6 3 3 -8 24 -24 47
-16 22 -29 45 -29 51 0 6 -15 34 -33 61 -28 43 -50 80 -131 230 -6 11 -30 52
-52 90 -60 103 -152 264 -229 400 -37 66 -88 153 -113 193 -24 40 -43 75 -40
77 2 2 217 7 478 10 261 4 477 8 479 10 2 2 158 4 348 5 326 0 343 0 334 -17z
m-1671 -29 c6 -14 30 -56 53 -92 24 -37 63 -103 86 -147 24 -44 51 -91 61
-105 10 -14 37 -61 61 -105 23 -44 50 -93 60 -110 10 -16 25 -46 34 -65 9 -19
20 -37 25 -40 5 -3 22 -30 38 -60 27 -52 152 -271 202 -353 12 -21 21 -40 18
-42 -8 -8 -77 15 -93 31 -8 8 -19 13 -24 10 -5 -4 -16 0 -24 8 -7 8 -29 19
-48 24 -34 10 -171 66 -283 116 -32 14 -64 26 -71 26 -14 0 -261 101 -318 130
-21 11 -77 35 -125 54 -284 111 -434 172 -488 198 -34 15 -68 28 -77 28 -10 0
-17 5 -17 10 0 6 -8 10 -18 10 -10 0 -21 3 -25 6 -5 5 -241 103 -382 159 -135
53 -164 65 -258 109 -55 25 -102 46 -106 46 -4 0 -48 18 -99 39 -50 21 -121
49 -158 61 -138 46 -138 46 189 53 166 4 536 10 822 13 286 4 522 8 524 10 2
2 100 3 218 3 l214 1 9 -26z m-2035 -69 c30 -13 67 -27 82 -31 16 -4 33 -10
38 -14 6 -4 30 -14 55 -23 56 -19 182 -72 218 -91 28 -14 158 -68 362 -149 63
-25 153 -62 200 -82 47 -20 91 -38 98 -39 7 -1 18 -8 24 -14 7 -7 19 -12 28
-12 9 0 20 -4 25 -9 6 -4 30 -15 55 -24 25 -8 117 -45 205 -82 88 -36 203 -82
255 -102 52 -19 109 -43 125 -51 17 -9 32 -17 35 -17 3 -1 36 -16 74 -33 38
-18 71 -32 74 -32 2 0 43 -15 91 -34 47 -19 117 -46 156 -61 38 -15 83 -33
100 -41 54 -24 309 -130 345 -144 19 -7 38 -16 43 -20 4 -3 -25 -44 -64 -91
-40 -46 -83 -101 -96 -121 -14 -20 -31 -39 -39 -42 -8 -3 -14 -11 -14 -18 0
-8 -23 -38 -50 -68 -28 -30 -62 -67 -75 -82 -14 -15 -25 -30 -25 -33 0 -4 -28
-40 -62 -81 -35 -42 -79 -95 -98 -118 -38 -47 -118 -142 -185 -221 -102 -121
-172 -205 -205 -245 -19 -24 -40 -48 -46 -54 -5 -6 -41 -49 -80 -96 -127 -156
-218 -260 -226 -260 -4 0 -20 24 -34 53 -15 28 -52 95 -84 147 -67 113 -96
163 -142 250 -19 36 -45 83 -58 105 -12 22 -42 74 -65 115 -23 41 -50 89 -61
106 -10 17 -36 60 -56 95 -34 59 -58 103 -136 249 -17 30 -45 81 -64 112 -159
271 -211 362 -269 477 -12 25 -30 52 -38 61 -9 9 -27 39 -41 66 -29 57 -84
152 -223 388 -55 93 -120 207 -144 254 -24 47 -52 97 -62 111 -10 14 -26 41
-35 58 l-16 33 25 -10 c15 -6 51 -21 80 -35z m2761 -1188 c18 -29 56 -97 85
-152 29 -55 72 -131 95 -170 104 -173 206 -346 221 -377 9 -18 71 -125 138
-238 155 -261 202 -343 233 -405 14 -27 30 -56 36 -64 29 -38 26 -38 -343 -45
-196 -4 -423 -9 -506 -11 -82 -2 -402 -7 -710 -11 l-560 -7 38 44 c39 46 194
234 287 348 76 93 247 297 438 520 25 29 65 79 89 110 24 31 53 68 65 82 13
14 43 50 68 79 25 29 52 60 61 69 9 9 36 43 60 76 64 87 160 205 168 205 3 0
20 -24 37 -53z m66 34 c24 -11 86 -36 138 -57 52 -20 109 -43 127 -50 17 -8
34 -14 38 -14 3 0 32 -12 63 -26 31 -14 73 -32 92 -41 73 -32 179 -76 290
-118 156 -59 361 -143 385 -159 11 -6 54 -25 95 -40 99 -37 220 -85 354 -141
60 -25 113 -45 117 -45 4 0 29 -10 56 -22 26 -12 50 -22 53 -22 3 -1 10 -4 16
-8 15 -10 197 -82 309 -122 133 -48 399 -157 409 -167 6 -5 16 -9 23 -9 7 0
42 -13 78 -30 36 -16 69 -30 74 -30 4 0 84 -31 177 -69 93 -37 198 -78 234
-91 36 -13 83 -31 105 -40 22 -9 42 -17 45 -16 3 0 19 -8 35 -20 30 -20 45
-27 192 -85 46 -18 82 -34 80 -35 -4 -4 -1762 -19 -2262 -19 l-520 0 -30 52
c-16 29 -59 103 -94 165 -35 62 -113 194 -173 294 -59 99 -108 186 -108 192 0
7 -4 12 -10 12 -5 0 -10 6 -10 13 0 12 -111 205 -232 402 -30 50 -83 144 -117
210 -35 66 -67 124 -72 130 -10 10 -12 25 -4 25 2 0 24 -9 47 -19z"/>
<path d="M2100 3721 c0 -12 6 -21 16 -21 9 0 14 7 12 17 -5 25 -28 28 -28 4z"/>
<path d="M3449 3134 c-13 -16 -12 -17 12 -11 42 11 46 -19 9 -64 -16 -21 -30
-41 -30 -44 0 -13 84 0 88 14 3 10 -2 12 -22 7 -31 -8 -32 -4 -5 33 28 38 22
75 -12 79 -15 2 -31 -4 -40 -14z"/>
<path d="M2771 3076 c-20 -11 -21 -14 -7 -19 14 -6 16 -17 11 -74 -3 -38 -8
-76 -11 -85 -4 -15 1 -18 32 -18 35 0 36 1 21 18 -13 14 -15 33 -11 105 3 48
2 87 -3 87 -4 -1 -19 -7 -32 -14z"/>
<path d="M2896 3074 c-18 -18 -21 -55 -6 -70 7 -7 5 -21 -6 -43 -14 -28 -14
-37 -4 -57 15 -27 66 -34 88 -12 17 17 15 68 -3 88 -14 15 -14 18 0 30 21 18
19 57 -4 70 -27 14 -47 13 -65 -6z m49 -44 c-5 -17 -10 -19 -21 -9 -17 14 -18
36 -1 42 19 7 30 -9 22 -33z m-7 -72 c20 -20 15 -58 -8 -58 -16 0 -20 7 -20
35 0 37 8 43 28 23z"/>
<path d="M1888 3068 c15 -15 16 -154 2 -163 -25 -16 -5 -25 55 -25 52 0 69 4
85 20 24 24 25 47 4 71 -12 13 -13 22 -5 37 24 46 -11 72 -95 72 -45 0 -55 -3
-46 -12z m102 -23 c19 -23 4 -45 -30 -45 -25 0 -30 4 -30 23 0 13 3 27 7 30
11 12 40 8 53 -8z m6 -86 c24 -27 9 -53 -35 -57 -30 -3 -31 -2 -31 37 0 36 3
41 23 41 13 0 32 -9 43 -21z"/>
<path d="M3100 3010 c-22 -22 -27 -78 -10 -111 14 -25 62 -25 85 1 19 21 13
42 -7 22 -17 -17 -45 -15 -52 4 -18 46 11 105 33 67 8 -15 13 -16 30 -5 12 6
23 12 26 12 12 0 4 -109 -7 -113 -7 -3 4 -6 25 -6 20 -1 37 4 37 9 0 6 -4 10
-10 10 -17 0 -12 90 5 97 24 9 29 -3 27 -62 -2 -53 -1 -55 23 -55 25 0 33 14
15 25 -15 9 -12 48 6 73 13 18 19 21 30 11 16 -13 19 -75 4 -84 -19 -12 -10
-25 18 -25 l28 0 -4 63 c-4 65 -22 93 -52 81 -21 -9 -110 -10 -110 -2 0 4 -11
3 -25 -2 -16 -6 -34 -6 -51 0 -35 14 -41 13 -64 -10z"/>
<path d="M3771 2997 c-15 -19 -5 -44 21 -53 26 -8 41 7 36 37 -4 28 -39 37
-57 16z m39 -23 c0 -17 -22 -14 -28 4 -2 7 3 12 12 12 9 0 16 -7 16 -16z"/>
<path d="M2080 2895 c0 -8 7 -15 15 -15 8 0 15 7 15 15 0 8 -7 15 -15 15 -8 0
-15 -7 -15 -15z"/>
<path d="M9431 2733 c1 -32 0 -38 -25 -110 -10 -29 -22 -53 -27 -53 -5 0 -9
-4 -9 -10 0 -6 33 -10 78 -10 75 0 79 1 91 26 14 31 5 47 -13 22 -15 -21 -81
-34 -91 -18 -4 6 -3 16 3 22 6 6 8 17 5 24 -8 22 28 30 43 9 14 -19 13 -21 29
30 5 17 -11 30 -20 15 -3 -5 -12 -10 -20 -10 -10 0 -11 7 -6 28 6 21 14 28 39
30 18 2 32 -1 32 -7 0 -6 5 -11 10 -11 6 0 10 9 10 20 0 17 -7 20 -49 20 -27
0 -56 3 -65 6 -12 4 -15 -1 -15 -23z"/>
<path d="M3471 2316 c-8 -10 -9 -16 -1 -21 5 -3 10 -1 10 4 0 6 7 11 15 11 30
0 28 -31 -5 -76 l-32 -45 43 3 c23 2 44 9 47 16 3 9 -3 11 -24 6 l-28 -7 22
31 c12 16 22 44 22 61 0 27 -3 31 -29 31 -16 0 -34 -6 -40 -14z"/>
<path d="M1904 2232 c-27 -24 -30 -34 -29 -76 3 -58 42 -106 87 -106 30 0 99
53 86 66 -5 4 -17 -1 -28 -11 -19 -17 -69 -23 -89 -10 -14 8 -24 69 -16 94 17
54 73 68 101 26 20 -31 32 -25 26 13 -4 27 -7 29 -55 31 -44 1 -57 -3 -83 -27z"/>
<path d="M2763 2253 c-15 -6 -17 -43 -3 -43 6 0 10 4 10 9 0 15 32 22 46 10
26 -22 15 -58 -33 -110 -34 -37 -43 -53 -35 -61 8 -8 15 -8 25 1 8 6 28 11 44
9 35 -2 53 8 53 30 0 12 -3 13 -12 4 -7 -7 -25 -12 -42 -12 l-30 0 32 33 c37
38 52 98 32 122 -12 14 -61 19 -87 8z"/>
<path d="M2904 2225 c-25 -61 -12 -131 31 -159 21 -14 25 -13 50 10 26 24 27
29 23 95 -4 76 -13 89 -61 89 -23 0 -31 -7 -43 -35z m72 -21 c7 -36 0 -111
-10 -122 -4 -3 -14 2 -23 11 -18 18 -24 112 -9 136 14 23 35 10 42 -25z"/>
<path d="M3116 2178 c-26 -37 -20 -83 12 -107 l29 -20 34 28 c19 16 31 32 27
37 -5 4 -17 -1 -29 -12 -21 -19 -21 -19 -40 5 -36 44 -18 85 27 60 27 -14 39
-8 31 16 -10 24 -73 20 -91 -7z"/>
<path d="M3220 2190 c0 -5 5 -12 10 -15 13 -8 13 -71 0 -96 -9 -16 -7 -19 10
-19 33 0 35 3 32 56 -3 34 1 54 9 59 20 13 36 -21 34 -70 -1 -37 1 -45 14 -43
12 2 17 17 19 53 3 46 13 64 36 65 4 0 6 -27 4 -60 -5 -64 5 -77 37 -54 10 8
14 14 7 14 -6 0 -12 23 -14 58 l-3 57 -97 2 c-54 1 -98 -2 -98 -7z"/>
<path d="M3794 2176 c-8 -20 -1 -49 12 -53 6 -2 10 12 10 32 0 36 -12 47 -22
21z"/>
<path d="M2075 2091 c-8 -15 3 -31 21 -31 9 0 14 7 12 17 -4 20 -24 28 -33 14z"/>
<path d="M3483 1503 c-22 -8 -14 -23 9 -20 33 3 35 -33 4 -71 -36 -42 -33 -54
11 -50 26 2 39 8 41 20 2 13 -2 15 -20 10 -22 -5 -22 -5 -7 19 28 43 32 77 10
89 -21 11 -29 11 -48 3z"/>
<path d="M2756 1424 c-9 -8 -16 -22 -16 -30 0 -13 2 -13 16 0 28 29 74 13 74
-25 0 -10 -23 -43 -51 -73 l-51 -56 65 0 c50 0 66 4 71 16 10 27 7 39 -6 26
-7 -7 -25 -12 -42 -12 l-30 0 26 28 c67 72 61 142 -12 142 -16 0 -36 -7 -44
-16z"/>
<path d="M2900 1420 c-17 -31 -12 -40 16 -26 14 8 33 12 43 9 18 -4 17 -8 -5
-70 -26 -72 -30 -97 -14 -91 10 3 70 161 70 184 0 6 -21 11 -50 12 -39 1 -52
-3 -60 -18z"/>
<path d="M1878 1423 c8 -3 12 -30 12 -83 0 -65 -3 -81 -17 -89 -28 -16 91 -14
131 3 42 18 63 64 50 114 -12 47 -41 62 -124 61 -36 0 -59 -3 -52 -6z m120
-29 c16 -11 22 -24 22 -52 0 -49 -35 -85 -76 -80 -29 3 -29 4 -30 68 0 36 4
71 9 78 11 14 39 8 75 -14z"/>
<path d="M3120 1360 c-39 -39 -15 -120 36 -120 24 0 64 31 64 50 0 16 -17 12
-24 -6 -10 -25 -49 -13 -60 19 -8 22 -6 31 8 45 16 16 18 16 30 0 17 -24 36
-23 36 1 0 35 -59 42 -90 11z"/>
<path d="M3229 1370 c-7 -5 -8 -10 -1 -14 11 -7 10 -81 -1 -92 -15 -15 -6 -24
23 -24 17 0 30 1 30 3 0 1 -4 18 -10 37 -13 45 -4 70 24 70 20 0 23 -5 22 -42
-1 -25 -7 -48 -16 -55 -12 -10 -7 -12 30 -13 34 0 41 3 32 12 -18 18 -15 87 4
95 17 6 34 -13 29 -31 -2 -6 -6 -26 -9 -43 -5 -31 -4 -33 24 -33 17 0 30 5 30
10 0 6 -4 10 -10 10 -5 0 -10 24 -10 54 0 46 -3 56 -20 61 -10 3 -28 1 -40 -5
-12 -6 -20 -7 -20 -1 0 11 -93 11 -111 1z"/>
<path d="M3830 1330 c0 -11 7 -20 15 -20 8 0 15 9 15 20 0 11 -7 20 -15 20 -8
0 -15 -9 -15 -20z"/>
<path d="M2085 1259 c-4 -6 -4 -13 -1 -16 8 -8 36 5 36 17 0 13 -27 13 -35 -1z"/>
<path d="M13044 980 c-40 -16 -74 -68 -74 -115 0 -59 34 -87 99 -83 44 3 46 5
56 42 7 22 17 42 23 44 27 9 9 22 -28 22 -37 0 -55 -13 -28 -22 20 -7 -6 -63
-31 -66 -56 -8 -79 62 -40 124 31 51 101 61 107 16 4 -23 22 -31 22 -9 0 6 3
21 6 32 5 19 0 21 -43 22 -26 1 -57 -2 -69 -7z"/>
<path d="M10045 921 c-43 -19 -85 -84 -85 -132 0 -11 11 -31 25 -44 30 -31 89
-33 125 -5 33 25 20 35 -18 13 -67 -38 -120 20 -85 93 31 66 103 82 111 25 4
-28 18 -27 26 2 9 33 7 44 -6 45 -7 1 -26 4 -43 7 -16 2 -39 1 -50 -4z"/>
<path d="M7754 898 c-3 -4 -2 -13 1 -18 8 -13 -35 -160 -47 -160 -5 0 -7 -4
-3 -9 7 -12 115 -2 133 12 8 6 12 26 11 49 -2 21 2 43 9 50 22 22 9 69 -20 76
-5 1 -9 2 -10 3 -13 5 -70 3 -74 -3z m76 -33 c16 -19 -3 -45 -31 -45 -22 0
-22 0 -9 34 11 30 22 33 40 11z m-12 -94 c4 -27 -12 -41 -47 -41 -18 0 -22 4
-16 18 4 9 10 25 12 35 8 27 47 18 51 -12z"/>
</g>
</svg>
