<?xml version="1.0" standalone="no"?>
<!DOCTYPE svg PUBLIC "-//W3C//DTD SVG 20010904//EN"
 "http://www.w3.org/TR/2001/REC-SVG-20010904/DTD/svg10.dtd">
<svg version="1.0" xmlns="http://www.w3.org/2000/svg"
 width="1361.000000pt" height="510.000000pt" viewBox="0 0 1361.000000 510.000000"
 preserveAspectRatio="xMidYMid meet">
<metadata>
Created by potrace 1.16, written by Peter Selinger 2001-2019
</metadata>
<g transform="translate(0.000000,510.000000) scale(0.100000,-0.100000)"
fill="#000000" stroke="none">
<path d="M9984 4907 c-6 -30 -7 -31 -15 -9 -10 28 -33 30 -24 2 5 -14 2 -20
-9 -20 -9 0 -16 -4 -16 -10 0 -5 14 -10 30 -10 17 0 30 -2 30 -4 0 -16 -34
-93 -54 -123 -27 -39 -32 -53 -18 -53 4 0 19 18 32 40 36 59 100 69 100 16 0
-14 5 -28 12 -32 8 -5 9 3 5 29 -6 39 -2 42 41 31 14 -4 22 -14 22 -28 0 -30
-15 -50 -34 -43 -24 9 -29 -11 -5 -23 32 -18 47 -6 63 51 17 57 15 69 -15 69
-16 0 -18 5 -13 27 6 23 4 25 -14 21 -17 -5 -20 -1 -19 20 2 25 0 26 -37 23
-34 -2 -38 0 -34 16 3 10 -1 24 -8 31 -10 9 -14 5 -20 -21z m76 -62 c0 -10
-11 -15 -35 -15 -26 0 -33 3 -29 15 4 9 19 15 35 15 19 0 29 -5 29 -15z m29
-41 c8 -8 -4 -11 -56 -17 -41 -5 -53 -3 -53 8 0 20 90 28 109 9z"/>
<path d="M10677 4917 c-3 -9 -27 -12 -81 -11 -75 1 -92 -6 -58 -25 16 -9 16
-12 0 -58 -10 -28 -13 -49 -8 -51 6 -2 10 -18 10 -35 0 -38 14 -65 24 -48 4 6
17 11 29 11 20 0 22 4 19 44 -3 32 0 45 12 49 14 5 16 -4 16 -64 0 -64 2 -70
18 -63 9 4 43 10 75 12 38 2 57 8 54 15 -2 7 -18 11 -37 9 -23 -3 -31 0 -28
10 3 7 17 14 31 16 37 4 34 22 -3 22 -40 0 -38 18 3 22 17 2 30 8 27 13 -3 6
-17 9 -32 7 -20 -1 -28 3 -28 14 0 12 6 15 23 11 12 -4 29 -2 36 3 12 7 13 11
1 25 -10 12 -10 19 -2 27 21 21 13 28 -28 28 -29 0 -40 4 -40 15 0 18 -26 20
-33 2z m-54 -47 c-6 -24 12 -27 21 -4 4 9 9 14 12 11 7 -6 -22 -63 -36 -72 -6
-4 -9 -1 -8 7 2 8 -6 12 -24 10 -25 -3 -26 -1 -19 25 5 17 16 30 32 34 13 4
25 7 26 8 0 1 -1 -8 -4 -19z m130 -4 c7 -16 -1 -26 -20 -26 -7 0 -13 6 -13 14
0 8 -8 17 -17 19 -10 3 -4 5 13 6 19 1 34 -5 37 -13z m-58 -16 c3 -5 -1 -10
-10 -10 -9 0 -13 5 -10 10 3 6 8 10 10 10 2 0 7 -4 10 -10z m3 -47 c2 -8 -5
-13 -17 -13 -12 0 -21 6 -21 16 0 18 31 15 38 -3z m-108 -38 c0 -33 -4 -45
-15 -45 -11 0 -15 11 -15 38 0 21 3 42 7 45 16 16 23 4 23 -38z m110 -5 c0 -5
-9 -10 -20 -10 -11 0 -20 5 -20 10 0 6 9 10 20 10 11 0 20 -4 20 -10z m0 -45
c0 -8 -9 -15 -20 -15 -11 0 -20 7 -20 15 0 8 9 15 20 15 11 0 20 -7 20 -15z"/>
<path d="M7693 4882 c-36 -37 -39 -42 -21 -42 14 0 78 48 78 59 0 22 -28 13
-57 -17z"/>
<path d="M8869 4912 c0 -4 0 -55 1 -114 l2 -108 -26 0 c-14 0 -26 -4 -26 -10
0 -5 5 -10 12 -10 6 0 19 -7 29 -16 17 -15 18 -15 23 7 3 13 7 75 8 136 2 83
0 114 -9 118 -7 2 -13 1 -14 -3z"/>
<path d="M8995 4890 c-9 -17 -13 -30 -10 -30 3 0 -6 -17 -19 -37 -27 -39 -27
-55 -1 -33 13 11 15 9 16 -11 3 -101 5 -125 13 -129 12 -6 27 48 16 55 -8 5
-5 166 3 170 1 0 36 -2 77 -5 l75 -5 0 -85 0 -85 -27 -3 c-16 -2 -28 -7 -28
-12 0 -11 56 -23 70 -15 6 3 10 48 10 105 0 79 3 99 16 104 36 14 -1 22 -80
18 -55 -3 -86 -1 -86 6 0 25 -31 20 -45 -8z"/>
<path d="M9377 4901 c-4 -16 -11 -19 -46 -14 -35 5 -40 3 -35 -10 4 -11 17
-16 41 -14 21 1 38 -3 40 -10 3 -10 -12 -13 -56 -13 -34 0 -61 -4 -61 -10 0
-6 31 -10 73 -10 l72 -1 -40 -24 c-21 -13 -52 -27 -67 -30 -15 -4 -31 -11 -34
-17 -7 -11 32 -7 69 7 15 6 17 0 17 -56 1 -57 2 -62 15 -45 12 15 24 18 75 14
l60 -4 0 63 0 63 -55 -6 c-30 -4 -55 -4 -55 -1 0 15 63 37 104 37 37 0 44 3
39 16 -4 11 -13 13 -35 9 -28 -7 -29 -6 -16 14 7 12 16 21 20 21 5 0 8 7 8 15
0 26 -24 17 -53 -20 -29 -36 -57 -46 -57 -20 0 9 9 15 25 15 14 0 25 5 25 11
0 7 -10 9 -25 7 -21 -5 -25 -2 -20 13 4 13 1 19 -8 19 -8 0 -17 -9 -20 -19z
m93 -146 c0 -11 -12 -15 -50 -15 -38 0 -50 4 -50 15 0 11 12 15 50 15 38 0 50
-4 50 -15z m5 -50 c0 -5 -24 -11 -52 -13 -43 -2 -53 0 -53 13 0 13 10 15 53
13 28 -2 52 -7 52 -13z"/>
<path d="M9680 4914 c0 -9 55 -74 63 -74 16 0 5 28 -21 53 -27 26 -42 33 -42
21z"/>
<path d="M10919 4899 c-21 -21 -22 -50 -1 -57 7 -2 12 6 12 22 0 31 11 39 45
30 32 -8 31 -19 -1 -65 -15 -23 -24 -47 -22 -61 4 -23 4 -23 16 4 6 14 15 29
21 32 6 4 20 20 31 36 l21 30 -25 25 c-30 30 -69 32 -97 4z"/>
<path d="M6798 4893 c-2 -10 -10 -18 -18 -18 -19 0 -20 -4 -20 -60 0 -43 1
-45 25 -39 15 4 25 2 25 -5 0 -19 -68 -13 -89 8 -19 19 -19 20 0 37 10 9 19
23 19 31 0 20 -23 16 -38 -7 -7 -11 -19 -20 -28 -20 -13 0 -13 4 4 28 32 46
34 52 19 52 -18 0 -57 -63 -57 -91 0 -17 4 -19 23 -13 l22 7 -20 -24 c-11 -13
-24 -27 -30 -31 -6 -5 -6 -11 1 -18 9 -9 19 -8 40 3 32 16 97 12 91 -6 -6 -18
-24 -19 -41 -2 -15 15 -16 15 -16 0 0 -12 -6 -15 -21 -10 -18 6 -19 5 -10 -13
16 -30 29 -35 47 -18 20 20 30 21 14 1 -26 -32 0 -26 29 6 29 31 31 32 31 11
0 -13 -6 -22 -15 -22 -20 0 -19 -13 3 -33 26 -24 29 -22 37 25 l7 42 20 -27
c11 -15 26 -27 34 -27 20 0 17 10 -12 41 l-26 27 27 18 c25 16 26 19 10 30
-14 11 -17 22 -11 60 6 45 5 46 -18 40 -18 -4 -25 -1 -29 14 -6 25 -24 26 -29
3z m35 -50 c-13 -2 -33 -2 -45 0 -13 2 -3 4 22 4 25 0 35 -2 23 -4z m17 -33
c0 -5 -16 -10 -35 -10 -19 0 -35 5 -35 10 0 6 16 10 35 10 19 0 35 -4 35 -10z
m-155 -40 c-3 -5 -12 -10 -18 -10 -7 0 -6 4 3 10 19 12 23 12 15 0z m154 -5
c3 -12 -13 -9 -17 4 -2 7 0 11 6 7 5 -3 10 -8 11 -11z"/>
<path d="M6990 4769 c0 -91 4 -138 10 -134 6 3 11 50 11 103 1 53 3 89 6 80 2
-10 9 -18 14 -18 15 0 10 26 -7 41 -11 9 -14 22 -10 41 4 21 2 28 -9 28 -13 0
-15 -23 -15 -141z"/>
<path d="M7118 4873 c-2 -21 -7 -36 -13 -33 -5 3 -9 13 -8 23 2 9 -4 17 -12
17 -8 0 -15 -6 -15 -13 0 -7 -9 -30 -20 -52 -24 -48 -16 -60 15 -21 27 33 55
30 55 -7 0 -20 -4 -23 -35 -19 -20 2 -35 0 -35 -6 0 -6 15 -12 33 -14 29 -3
32 -6 35 -40 l3 -37 -45 3 c-38 2 -46 -1 -46 -15 0 -15 11 -17 93 -15 85 1 92
3 92 21 0 21 -3 22 -47 11 -27 -6 -28 -5 -28 34 0 38 2 40 30 40 17 0 30 4 30
9 0 17 -19 22 -40 11 -18 -10 -20 -8 -20 20 0 28 3 30 36 30 24 0 34 4 31 13
-4 13 -21 14 -50 2 -17 -7 -18 -3 -15 30 2 23 -2 40 -9 42 -7 3 -13 -10 -15
-34z"/>
<path d="M7280 4772 c0 -86 4 -131 10 -127 6 3 10 46 10 96 0 83 1 89 20 89
18 0 19 -3 9 -21 -12 -23 -5 -95 12 -115 6 -7 4 -15 -6 -24 -26 -21 -16 -31
15 -15 16 8 32 26 36 39 9 36 -1 107 -17 117 -10 6 -10 9 -1 9 8 0 12 15 12
43 l0 42 -50 0 -50 0 0 -133z m68 101 c-10 -2 -26 -2 -35 0 -10 3 -2 5 17 5
19 0 27 -2 18 -5z m18 -160 c-11 -11 -19 6 -11 24 8 17 8 17 12 0 3 -10 2 -21
-1 -24z"/>
<path d="M7457 4903 l-48 -4 2 -44 c2 -25 0 -47 -4 -51 -9 -9 3 -147 14 -158
5 -6 9 3 9 22 0 24 4 32 18 32 11 0 24 10 30 23 10 21 11 20 11 -10 1 -23 -4
-33 -14 -33 -8 0 -15 -4 -15 -9 0 -11 39 -26 46 -18 10 9 17 257 8 255 -5 -1
-31 -3 -57 -5z m21 -30 c-10 -2 -26 -2 -35 0 -10 3 -2 5 17 5 19 0 27 -2 18
-5z m12 -80 c0 -30 -3 -35 -11 -23 -8 11 -12 12 -16 3 -2 -7 -10 -13 -16 -13
-7 1 -2 9 11 20 20 17 15 39 -6 26 -5 -3 -9 1 -9 9 0 9 10 15 24 15 20 0 23
-5 23 -37z m-27 -50 c-7 -2 -13 -11 -13 -19 0 -8 -4 -14 -9 -14 -6 0 -9 9 -8
20 1 13 8 20 22 19 11 0 14 -3 8 -6z"/>
<path d="M7631 4873 c-8 -21 -22 -50 -32 -65 -25 -34 -24 -46 1 -23 20 18 20
17 17 -56 -1 -42 2 -76 8 -79 6 -3 12 35 15 100 3 58 11 115 18 127 15 27 15
33 -1 33 -7 0 -19 -17 -26 -37z"/>
<path d="M8550 4900 c-8 -5 -64 -10 -123 -10 -77 0 -106 -3 -101 -11 4 -8 25
-9 60 -5 l54 6 0 -116 c0 -88 3 -115 13 -111 8 2 13 28 14 73 1 38 2 75 2 82
1 8 15 2 38 -17 20 -16 40 -28 45 -24 13 7 -28 49 -64 64 -19 8 -27 17 -24 26
4 8 6 16 6 18 0 2 21 2 48 -1 49 -5 79 6 68 25 -9 13 -16 14 -36 1z"/>
<path d="M8737 4899 c-10 -6 -35 -8 -58 -4 -25 4 -39 3 -39 -4 0 -6 9 -11 20
-11 27 0 25 -24 -5 -77 -25 -41 -23 -57 3 -31 9 9 18 6 37 -12 l25 -24 -37
-38 c-26 -27 -32 -38 -21 -38 33 0 118 127 118 175 0 13 -6 15 -30 10 -35 -8
-51 0 -43 20 3 10 20 15 50 15 31 0 43 4 41 13 -6 16 -38 20 -61 6z m8 -96
c-9 -38 -10 -38 -41 -18 -26 17 -27 18 -9 31 10 8 27 14 38 14 16 0 18 -5 12
-27z"/>
<path d="M9770 4892 c0 -26 -46 -116 -71 -138 l-21 -19 3 60 c2 39 -1 60 -9
63 -9 3 -12 -17 -12 -66 0 -70 0 -71 -35 -92 -19 -12 -35 -26 -35 -31 0 -13
13 -11 40 8 17 12 25 13 28 5 2 -7 19 -12 38 -12 19 0 34 -4 34 -9 0 -4 16 -3
35 3 23 7 33 16 30 24 -3 8 -5 27 -5 43 0 16 -4 29 -10 29 -5 0 -10 -16 -10
-35 0 -29 -4 -35 -22 -36 -66 -4 -78 12 -39 48 31 30 91 134 91 159 0 8 -7 14
-15 14 -8 0 -15 -8 -15 -18z"/>
<path d="M10323 4903 c-106 -4 -147 -23 -48 -23 l55 0 0 -90 0 -90 -26 0 -27
0 5 70 c4 55 2 70 -8 70 -11 0 -14 -17 -14 -70 0 -68 -1 -70 -25 -70 -14 0
-25 -4 -25 -10 0 -6 52 -10 136 -10 104 0 135 3 131 13 -3 8 -21 11 -60 9
l-57 -4 0 30 c0 17 -3 37 -6 46 -5 13 2 16 40 16 34 0 46 4 46 15 0 12 -8 14
-40 9 l-40 -7 0 36 0 36 52 3 c30 2 53 8 56 16 2 7 -5 11 -20 10 -12 -1 -69
-4 -125 -5z"/>
<path d="M4380 4881 c0 -37 -12 -51 -41 -51 -36 0 -38 17 -4 30 29 11 34 30 8
30 -40 -1 -53 -24 -53 -92 0 -36 -5 -69 -12 -76 -9 -9 19 -12 126 -12 106 0
137 3 133 13 -2 6 -10 11 -16 9 -9 -2 -10 14 -5 60 4 35 8 70 8 78 1 16 -6 17
-71 6 -36 -7 -43 -5 -43 8 0 9 -7 16 -15 16 -8 0 -15 -9 -15 -19z m118 -38 c2
-9 -11 -13 -47 -13 -54 0 -70 16 -23 23 42 7 65 3 70 -10z m-78 -63 c0 -20 -5
-30 -15 -30 -8 0 -15 -5 -15 -12 0 -6 -2 -9 -5 -7 -2 3 -1 20 4 37 8 25 7 32
-5 32 -8 0 -14 -9 -14 -20 0 -11 -5 -20 -11 -20 -5 0 -7 5 -4 10 4 6 -5 10
-19 10 -16 0 -26 6 -26 15 0 12 13 15 55 15 54 0 55 0 55 -30z m70 15 c0 -8
-9 -15 -20 -15 -11 0 -20 -4 -20 -10 0 -5 9 -10 20 -10 11 0 20 -7 20 -15 0
-10 -10 -15 -29 -15 -25 0 -28 3 -24 28 3 15 6 33 8 40 6 17 45 15 45 -3z
m-132 -52 c2 -8 -6 -13 -22 -13 -17 0 -26 5 -26 16 0 19 41 16 48 -3z"/>
<path d="M5793 4882 c26 -28 21 -32 -38 -32 -93 0 -61 -19 38 -22 l92 -3 -49
-47 c-27 -27 -55 -48 -62 -48 -8 0 -14 -4 -14 -10 0 -5 -7 -10 -15 -10 -8 0
-15 -4 -15 -10 0 -5 -6 -10 -14 -10 -19 0 -28 -26 -12 -39 8 -7 15 -4 24 10
12 19 14 19 45 2 38 -20 168 -27 179 -9 15 22 7 28 -29 22 -52 -9 -80 -8 -125
5 l-39 10 58 43 c71 53 117 101 109 114 -3 6 -23 8 -44 5 -33 -4 -41 -2 -55
21 -10 14 -25 26 -34 26 -15 0 -15 -1 0 -18z"/>
<path d="M6010 4769 c0 -75 4 -130 10 -134 6 -4 10 22 10 72 0 97 5 106 50 93
19 -6 36 -10 37 -10 2 0 3 24 3 53 l0 52 -55 1 -55 0 0 -127z m68 94 c-10 -2
-26 -2 -35 0 -10 3 -2 5 17 5 19 0 27 -2 18 -5z m22 -33 c0 -5 -13 -10 -30
-10 -16 0 -30 5 -30 10 0 6 14 10 30 10 17 0 30 -4 30 -10z"/>
<path d="M6153 4884 c-2 -7 -3 -29 -1 -50 l3 -39 43 3 43 4 -3 -64 c-3 -54 -6
-63 -20 -60 -10 2 -18 -2 -18 -8 0 -19 24 -37 42 -32 16 4 18 18 18 131 l0
126 -51 0 c-29 0 -53 -5 -56 -11z m75 -21 c-10 -2 -26 -2 -35 0 -10 3 -2 5 17
5 19 0 27 -2 18 -5z m7 -33 c4 -6 -7 -10 -24 -10 -17 0 -31 5 -31 10 0 6 11
10 24 10 14 0 28 -4 31 -10z"/>
<path d="M6363 4886 c6 -15 -21 -45 -32 -36 -9 8 -13 -70 -6 -126 l6 -50 49 0
50 0 0 58 c0 33 4 58 10 58 6 0 16 11 22 25 9 21 18 25 53 25 l41 0 -4 -67
c-2 -38 -10 -79 -18 -93 -7 -14 -13 -19 -14 -12 0 14 -40 17 -40 2 0 -5 4 -10
9 -10 5 0 17 -7 26 -16 28 -29 45 2 55 102 14 132 17 122 -39 116 -47 -4 -49
-3 -44 17 4 15 1 21 -11 21 -9 0 -16 -8 -16 -19 0 -10 -7 -34 -15 -52 l-15
-34 2 30 c3 27 0 30 -24 27 -32 -3 -37 14 -10 34 15 12 14 13 -12 14 -20 0
-27 -4 -23 -14z m47 -81 c0 -21 -5 -25 -30 -25 -25 0 -30 4 -30 25 0 21 5 25
30 25 25 0 30 -4 30 -25z m0 -75 c0 -27 -3 -30 -30 -30 -27 0 -30 3 -30 30 0
27 3 30 30 30 27 0 30 -3 30 -30z"/>
<path d="M8810 4805 c0 -50 4 -85 10 -85 6 0 10 28 10 63 0 34 3 72 6 85 5 16
2 22 -10 22 -13 0 -16 -13 -16 -85z"/>
<path d="M1757 4873 c-2 -5 -7 -20 -11 -35 -7 -29 -20 -36 -31 -18 -3 6 -17 7
-31 4 -19 -5 -23 -3 -18 10 3 9 10 16 16 16 5 0 6 5 3 10 -11 18 -33 10 -39
-15 -4 -14 -12 -24 -19 -22 -9 1 -13 -24 -15 -90 -2 -80 0 -93 13 -93 13 0 16
9 13 43 -3 39 -1 42 25 45 15 2 28 -1 28 -7 5 -47 2 -56 -21 -62 -14 -4 -18
-7 -8 -8 9 -1 23 -4 32 -7 14 -5 16 3 16 55 0 34 4 61 8 61 5 0 15 11 22 25
11 21 21 25 57 25 l43 0 -1 -47 c0 -27 -3 -66 -7 -88 -7 -36 -10 -40 -35 -37
-15 1 -27 -2 -27 -8 0 -6 4 -9 9 -5 6 3 14 -2 20 -12 9 -17 10 -17 29 1 15 13
22 36 27 84 3 37 8 83 10 103 l5 36 -52 -5 c-48 -5 -51 -4 -45 17 5 20 -7 39
-16 24z m-62 -98 c0 -24 -43 -34 -56 -13 -18 27 -10 39 24 36 24 -2 32 -8 32
-23z m35 15 c0 -5 -4 -10 -10 -10 -5 0 -10 5 -10 10 0 6 5 10 10 10 6 0 10 -4
10 -10z"/>
<path d="M2279 4875 c-1 -3 -2 -8 -3 -12 -6 -29 -31 -90 -40 -102 -9 -12 -8
-13 7 -8 14 5 17 0 18 -26 1 -31 -1 -83 -4 -101 -1 -5 4 -11 11 -13 8 -3 12 8
12 39 0 42 1 43 48 60 47 17 47 17 22 -2 -14 -11 -31 -20 -37 -20 -7 0 -13 -4
-13 -10 0 -16 22 -12 57 10 33 20 33 20 21 0 -7 -11 -28 -25 -45 -31 -35 -11
-47 -31 -14 -22 10 3 32 -2 48 -11 35 -17 53 -7 53 32 l0 23 26 -20 c27 -21
54 -28 54 -13 0 4 -13 13 -30 19 -34 13 -40 39 -12 48 13 3 19 15 20 35 0 17
4 39 7 50 6 18 2 20 -32 20 -25 0 -33 3 -24 9 20 13 2 34 -24 27 -15 -4 -25
-1 -29 10 -4 12 -15 5 -47 -28 -40 -42 -62 -41 -40 1 14 25 14 41 1 41 -5 0
-11 -2 -11 -5z m115 -44 c3 -5 -8 -11 -24 -13 -30 -5 -41 6 -17 15 20 9 35 8
41 -2z m-14 -47 c0 -10 -7 -14 -22 -12 -32 5 -35 28 -4 28 17 0 26 -5 26 -16z
m80 1 c0 -10 -10 -15 -30 -15 -29 0 -38 9 -23 23 13 13 53 7 53 -8z m-150 -15
c0 -17 5 -19 28 -14 l27 6 -25 -21 c-39 -32 -60 -27 -60 14 0 24 5 35 15 35 8
0 15 -9 15 -20z m130 -35 c-7 -8 -18 -15 -25 -15 -7 0 -15 7 -19 15 -4 11 2
15 26 15 26 0 29 -2 18 -15z m-40 -80 c0 -8 -9 -15 -20 -15 -22 0 -27 15 -7
23 21 9 27 7 27 -8z"/>
<path d="M2561 4825 c1 -27 -3 -60 -9 -71 -8 -15 -8 -32 -2 -55 6 -22 6 -37 0
-43 -13 -13 -13 -36 0 -36 5 0 13 14 18 32 4 17 14 34 21 36 10 3 10 0 0 -16
-7 -11 -9 -28 -5 -38 6 -16 10 -12 22 21 12 35 12 41 -2 52 -11 8 -12 13 -3
18 15 10 30 -15 24 -40 -6 -26 5 -66 17 -59 5 3 7 20 4 37 -5 27 -5 29 4 10
11 -27 30 -30 30 -6 0 9 3 13 7 10 3 -4 0 -18 -7 -32 -7 -14 -11 -28 -8 -31 6
-5 17 3 71 53 16 15 17 15 17 0 0 -9 4 -17 9 -17 5 0 13 -9 16 -20 9 -28 25
-25 25 5 0 14 -3 25 -8 25 -4 0 -7 39 -7 88 0 85 -1 87 -22 84 -13 -2 -23 2
-23 7 0 6 14 11 31 11 18 0 29 5 27 11 -3 8 -45 12 -127 13 l-122 1 2 -50z
m77 18 c-10 -2 -26 -2 -35 0 -10 3 -2 5 17 5 19 0 27 -2 18 -5z m92 -4 c0 -6
-9 -9 -20 -6 -17 4 -20 0 -20 -34 0 -22 -5 -39 -11 -39 -7 0 -9 9 -5 23 3 12
6 32 6 45 0 17 6 22 25 22 14 0 25 -5 25 -11z m-92 -26 c-10 -2 -28 -2 -40 0
-13 2 -5 4 17 4 22 1 32 -1 23 -4z m137 -13 c4 -6 -8 -10 -29 -10 -20 0 -36 5
-36 10 0 6 13 10 29 10 17 0 33 -4 36 -10z m-135 -30 c-12 -22 -18 -24 -40
-10 -11 7 -11 10 -2 10 7 0 10 5 7 10 -4 6 5 10 20 10 23 0 24 -2 15 -20z
m138 -17 c2 -9 -8 -13 -32 -13 -26 0 -36 4 -36 16 0 19 61 16 68 -3z m-88 -29
c0 -8 -5 -12 -10 -9 -6 4 -8 11 -5 16 9 14 15 11 15 -7z m85 -15 c-8 -12 -65
-12 -65 0 0 10 49 20 63 13 4 -2 5 -8 2 -13z"/>
<path d="M3055 4870 c-4 -6 -23 -10 -43 -9 -68 4 -123 -1 -117 -11 6 -10 179
-9 190 1 3 4 -1 12 -9 18 -10 9 -16 9 -21 1z"/>
<path d="M4785 4870 c-3 -5 -1 -10 5 -10 8 0 10 -28 8 -90 l-3 -90 30 0 c22 0
26 3 17 12 -8 8 -12 45 -12 100 0 80 -2 88 -19 88 -11 0 -23 -4 -26 -10z"/>
<path d="M7713 4850 c-35 -31 -45 -67 -17 -56 8 3 12 2 9 -4 -3 -6 -13 -10
-21 -10 -19 0 -18 -28 2 -32 13 -2 11 -9 -10 -40 -18 -27 -21 -38 -11 -38 17
0 56 54 53 72 -2 7 4 13 12 13 21 0 16 -63 -6 -80 -16 -12 -16 -13 5 -20 30
-9 42 8 39 60 -3 35 0 40 20 43 13 2 30 -2 38 -8 11 -10 14 -9 14 6 -1 20 -22
54 -35 54 -4 0 -5 -7 -1 -15 4 -12 -3 -15 -29 -15 -19 0 -35 2 -35 4 0 2 16
14 35 26 36 22 47 50 20 50 -8 0 -20 -9 -27 -20 -7 -11 -22 -20 -33 -20 -18 0
-17 2 8 24 15 13 27 26 27 30 0 15 -27 3 -57 -24z"/>
<path d="M1113 4863 l-113 -4 0 -134 c0 -121 8 -161 23 -121 4 10 26 13 94 11
48 -1 95 -4 103 -6 13 -3 15 17 18 129 1 72 -1 131 -5 130 -4 -1 -59 -4 -120
-5z m-53 -52 c0 -23 5 -31 23 -34 12 -3 3 -4 -20 -4 -40 1 -43 3 -43 28 0 24
10 36 33 38 4 1 7 -12 7 -28z m37 23 c-3 -3 -12 -4 -19 -1 -8 3 -5 6 6 6 11 1
17 -2 13 -5z m50 0 c-3 -3 -12 -4 -19 -1 -8 3 -5 6 6 6 11 1 17 -2 13 -5z m73
-99 c0 -87 -3 -105 -15 -105 -18 0 -20 14 -13 80 l3 35 -70 6 -70 5 78 2 c42
1 77 6 77 12 0 5 -20 8 -47 5 -27 -2 -39 -2 -28 1 30 8 47 34 34 51 -9 10 -5
13 20 13 l31 0 0 -105z m-82 68 c-10 -2 -28 -2 -40 0 -13 2 -5 4 17 4 22 1 32
-1 23 -4z m-98 -114 c0 -33 -4 -59 -10 -59 -6 0 -10 29 -10 66 0 41 4 63 10
59 6 -3 10 -33 10 -66z m85 32 c-3 -5 -1 -12 4 -15 13 -8 1 -46 -15 -46 -7 0
-16 5 -19 10 -3 6 -2 10 3 10 5 0 8 11 7 25 -2 17 2 25 11 25 9 0 13 -4 9 -9z
m36 -54 c-8 -8 -11 -2 -11 19 0 40 14 54 18 19 2 -15 -1 -32 -7 -38z m4 -27
c4 -6 -13 -10 -44 -10 -28 0 -51 5 -51 10 0 6 20 10 44 10 25 0 48 -4 51 -10z"/>
<path d="M1420 4844 c0 -25 -2 -26 -50 -22 l-50 3 0 -61 0 -60 48 0 47 1 2
-40 c1 -22 2 -47 2 -54 2 -33 20 6 23 49 l3 45 48 3 47 3 0 58 0 58 -55 -5
c-52 -4 -72 6 -45 23 15 9 12 25 -5 25 -9 0 -15 -10 -15 -26z m0 -79 c0 -34
-1 -35 -40 -35 -39 0 -40 1 -40 35 0 34 1 35 40 35 39 0 40 -1 40 -35z m100 0
c0 -34 -1 -35 -40 -35 -39 0 -40 1 -40 35 0 34 1 35 40 35 39 0 40 -1 40 -35z"/>
<path d="M1930 4739 c0 -70 4 -130 9 -133 5 -4 11 0 13 6 5 15 185 20 194 6
17 -28 24 6 24 122 l0 130 -120 -2 -120 -2 0 -127z m220 6 c0 -87 -3 -105 -15
-105 -12 0 -14 11 -11 58 3 31 8 65 11 75 7 15 2 17 -31 14 -22 -3 -29 -2 -16
0 17 3 22 11 22 34 0 22 5 29 20 29 19 0 20 -7 20 -105z m-150 71 c0 -18 7
-26 23 -29 12 -2 1 -5 -25 -6 -47 -1 -48 0 -48 29 0 25 4 30 25 30 20 0 25 -5
25 -24z m73 -3 c-13 -2 -33 -2 -45 0 -13 2 -3 4 22 4 25 0 35 -2 23 -4z m-84
-80 c-1 -60 -10 -93 -25 -93 -11 0 -14 16 -14 65 0 58 2 65 20 65 16 0 19 -7
19 -37z m114 30 c-7 -2 -19 -2 -25 0 -7 3 -2 5 12 5 14 0 19 -2 13 -5z m-45
-30 c-10 -2 -28 -2 -40 0 -13 2 -5 4 17 4 22 1 32 -1 23 -4z m12 -23 c0 -5 -6
-10 -12 -11 -10 0 -10 -2 0 -6 13 -5 7 -23 -7 -23 -10 0 -21 37 -13 44 9 10
32 7 32 -4z m27 -22 c-3 -8 -6 -5 -6 6 -1 11 2 17 5 13 3 -3 4 -12 1 -19z m13
-38 c0 -5 -22 -10 -50 -10 -27 0 -50 5 -50 10 0 6 23 10 50 10 28 0 50 -4 50
-10z"/>
<path d="M3380 4868 c-1 -2 -2 -47 -3 -101 l-2 -97 30 0 c22 0 26 3 17 12 -8
8 -12 45 -12 100 0 72 -3 88 -15 88 -8 0 -15 -1 -15 -2z"/>
<path d="M340 4820 c-34 -34 -23 -55 12 -24 14 14 20 14 33 4 24 -20 18 -45
-25 -99 -22 -28 -40 -55 -40 -61 0 -14 93 -13 108 2 7 7 12 20 12 31 0 16 -2
17 -21 4 -11 -8 -29 -12 -40 -10 -20 5 -19 7 4 32 52 55 60 100 25 125 -30 21
-44 20 -68 -4z"/>
<path d="M6947 4820 c-6 -23 12 -38 23 -20 9 14 2 40 -10 40 -4 0 -10 -9 -13
-20z"/>
<path d="M9044 4789 c2 -27 5 -52 7 -54 2 -1 22 0 44 4 l40 6 0 48 1 47 -48 0
-48 0 4 -51z m66 1 c0 -23 -4 -30 -20 -30 -16 0 -20 7 -20 30 0 23 4 30 20 30
16 0 20 -7 20 -30z"/>
<path d="M190 4815 c-17 -21 -5 -31 16 -14 14 11 18 10 31 -6 12 -18 12 -22
-9 -38 -18 -15 -19 -20 -7 -28 7 -5 17 -9 22 -9 4 0 7 -13 7 -29 0 -31 -18
-45 -40 -31 -20 12 -33 1 -19 -16 18 -22 56 -16 78 12 25 32 26 51 6 74 -12
13 -13 22 -2 49 10 27 9 33 -3 41 -23 15 -66 12 -80 -5z"/>
<path d="M4877 4802 c-23 -25 -22 -85 1 -105 25 -23 68 -21 92 3 26 26 26 81
2 103 -25 22 -75 21 -95 -1z m77 -39 c9 -35 -4 -63 -30 -63 -20 0 -38 44 -30
75 10 38 47 31 60 -12z"/>
<path d="M5032 4811 c-7 -4 -13 -25 -12 -47 1 -21 -2 -61 -5 -88 -8 -55 1 -66
53 -66 34 0 72 29 72 54 0 25 -30 46 -68 46 -39 0 -34 16 7 22 13 1 27 10 31
18 4 8 12 25 18 36 10 20 8 22 -26 28 -48 8 -54 7 -70 -3z m52 -27 c8 -20 -1
-34 -20 -34 -8 0 -14 10 -14 25 0 28 24 34 34 9z m26 -123 c0 -22 -27 -31 -58
-20 -38 14 -27 39 18 39 33 0 40 -4 40 -19z"/>
<path d="M9616 4805 c-4 -11 -12 -30 -17 -43 -12 -30 -11 -42 1 -42 15 0 32
49 27 79 -3 24 -4 24 -11 6z"/>
<path d="M9790 4814 c0 -3 10 -24 22 -47 17 -32 23 -38 26 -23 5 22 -15 63
-34 70 -8 3 -14 3 -14 0z"/>
<path d="M2973 4803 c-130 -4 -175 -23 -54 -23 l70 0 -4 -80 c-1 -44 1 -83 6
-86 9 -5 20 30 17 56 0 8 0 36 0 63 l2 47 60 0 c57 0 78 11 44 24 -9 3 -16 5
-17 4 -1 -1 -57 -4 -124 -5z"/>
<path d="M3473 4798 c-36 -17 -45 -84 -15 -111 23 -21 76 -22 96 -1 9 8 16 32
16 53 0 60 -42 86 -97 59z m56 -22 c19 -22 10 -80 -13 -84 -36 -7 -57 49 -29
80 19 22 27 22 42 4z"/>
<path d="M3612 4797 c-6 -6 -11 -37 -12 -67 0 -30 -2 -71 -3 -90 -2 -34 -1
-35 40 -38 32 -2 47 2 62 17 42 42 17 81 -49 81 -19 0 -29 4 -25 10 4 6 11 8
16 4 15 -9 59 24 59 46 0 10 6 22 13 27 8 5 2 10 -18 14 -49 11 -72 10 -83 -4z
m52 -22 c7 -20 -4 -47 -18 -42 -17 6 -20 57 -3 57 8 0 17 -7 21 -15z m26 -124
c0 -23 -17 -31 -53 -24 -30 6 -29 5 -21 27 4 10 18 16 40 16 27 0 34 -4 34
-19z"/>
<path d="M3948 4803 c-22 -5 -24 -23 -4 -23 38 0 23 -73 -17 -84 -23 -6 -13
-26 12 -26 11 0 22 10 25 23 l7 22 9 -23 c12 -28 53 -27 58 0 2 13 -1 16 -12
12 -11 -4 -17 2 -22 21 -7 30 1 42 34 47 22 3 22 4 8 23 -16 20 -16 20 -34 -1
-16 -19 -18 -19 -32 -4 -8 9 -23 15 -32 13z"/>
<path d="M5356 4802 c-3 -6 0 -12 8 -15 21 -8 28 -108 8 -129 -8 -10 -21 -18
-29 -18 -7 0 -13 -7 -13 -15 0 -24 25 -17 53 15 15 16 27 32 27 35 0 3 12 18
26 33 42 44 58 102 28 102 -9 0 -14 -7 -12 -18 3 -20 -21 -72 -33 -72 -4 0 -9
19 -11 43 -2 34 -7 43 -25 45 -11 2 -24 -1 -27 -6z"/>
<path d="M6470 4791 c0 -5 7 -14 15 -21 8 -7 15 -19 15 -26 0 -8 5 -14 10 -14
17 0 11 36 -8 53 -21 19 -32 22 -32 8z"/>
<path d="M8005 4790 c-8 -13 5 -13 25 0 13 8 13 10 -2 10 -9 0 -20 -4 -23 -10z"/>
<path d="M6130 4780 l-55 -5 -3 -40 c-1 -22 1 -45 5 -50 5 -6 31 -9 60 -7 l51
4 4 46 c3 26 2 49 -1 52 -3 3 -31 3 -61 0z m40 -30 c0 -5 -16 -10 -36 -10 -21
0 -33 4 -29 10 3 6 19 10 36 10 16 0 29 -4 29 -10z m0 -40 c0 -5 -13 -10 -30
-10 -16 0 -30 5 -30 10 0 6 14 10 30 10 17 0 30 -4 30 -10z"/>
<path d="M1760 4755 c0 -8 4 -15 9 -15 5 0 13 -9 16 -20 7 -22 25 -27 25 -7
-1 13 -34 57 -44 57 -3 0 -6 -7 -6 -15z"/>
<path d="M2893 4709 c-38 -59 -19 -69 24 -11 15 20 31 39 36 40 11 5 -2 22
-16 21 -7 0 -26 -22 -44 -50z"/>
<path d="M3040 4752 c0 -13 61 -92 71 -92 19 0 -2 44 -38 78 -26 24 -33 27
-33 14z"/>
<path d="M10080 4753 c0 -5 7 -18 15 -29 12 -16 14 -16 15 -3 0 9 -7 22 -15
29 -8 7 -15 8 -15 3z"/>
<path d="M5166 4734 c-5 -13 -2 -15 15 -11 18 5 20 2 16 -19 -2 -13 1 -29 8
-34 7 -6 11 -20 8 -31 -5 -16 -11 -19 -30 -14 -18 4 -24 2 -21 -7 7 -19 43
-21 62 -3 17 18 20 101 3 123 -14 17 -54 15 -61 -4z"/>
<path d="M9959 4722 c-7 -15 -15 -30 -17 -34 -2 -5 3 -8 11 -8 16 0 41 57 28
64 -5 3 -14 -7 -22 -22z"/>
<path d="M10000 4721 c0 -17 5 -31 10 -31 6 0 10 11 10 24 0 14 -4 28 -10 31
-6 4 -10 -7 -10 -24z"/>
<path d="M3749 4723 c-13 -15 -11 -16 12 -10 33 8 43 -2 24 -23 -14 -15 -13
-19 5 -35 26 -24 9 -48 -27 -38 -19 4 -24 2 -21 -8 7 -21 36 -23 63 -5 25 16
33 50 16 61 -5 3 -7 21 -4 40 5 33 4 35 -24 35 -17 0 -37 -7 -44 -17z"/>
<path d="M7798 4734 c-9 -9 25 -64 40 -64 6 0 12 6 12 13 0 16 -44 60 -52 51z"/>
<path d="M10944 4715 c-3 -8 -3 -19 1 -25 11 -18 25 -11 25 15 0 27 -17 34
-26 10z"/>
<path d="M6647 4703 c-3 -5 3 -22 13 -38 17 -25 20 -27 26 -11 7 19 -29 65
-39 49z"/>
<path d="M4315 4665 c-28 -25 -35 -35 -22 -35 21 0 99 55 90 64 -12 12 -28 5
-68 -29z"/>
<path d="M4430 4690 c0 -5 7 -10 15 -10 9 0 27 -12 40 -26 22 -23 25 -24 31
-10 4 10 2 22 -5 29 -6 6 -11 8 -11 3 0 -4 -7 0 -16 8 -17 18 -54 22 -54 6z"/>
<path d="M474 4665 c-3 -8 -3 -19 1 -25 11 -18 25 -11 25 15 0 27 -17 34 -26
10z"/>
<path d="M2854 4089 c-19 -22 -19 -22 7 -16 48 12 47 -34 0 -77 -31 -28 -26
-36 24 -36 34 0 45 4 45 16 0 11 -6 14 -20 9 -26 -8 -26 8 1 45 21 28 21 30 5
54 -20 32 -37 33 -62 5z"/>
<path d="M3184 4095 c-19 -14 -19 -14 3 -15 27 0 39 -18 24 -33 -15 -15 -14
-27 4 -27 8 0 15 -9 15 -20 0 -16 -7 -20 -32 -20 -23 0 -29 -3 -21 -11 7 -7
24 -8 42 -4 31 7 31 7 29 63 -2 80 -21 99 -64 67z"/>
<path d="M8148 4043 c-19 -5 -25 -23 -8 -23 6 0 10 -33 10 -80 0 -47 -4 -80
-10 -80 -5 0 -10 -4 -10 -10 0 -5 16 -10 35 -10 34 0 46 12 25 25 -5 3 -10 46
-10 96 0 49 -3 88 -7 88 -5 -1 -16 -3 -25 -6z"/>
<path d="M3653 4033 c-31 -3 -44 -9 -48 -24 -7 -22 5 -42 12 -21 3 6 20 12 38
12 l34 0 -25 -72 c-27 -81 -29 -91 -13 -86 6 2 24 39 40 82 43 119 43 116 22
114 -10 -1 -37 -3 -60 -5z"/>
<path d="M3756 4024 c-17 -17 -21 -34 -8 -34 4 0 13 5 19 11 19 19 63 2 63
-24 0 -27 -43 -92 -70 -107 -36 -19 -21 -30 40 -30 50 0 61 3 70 21 13 24 5
38 -12 21 -7 -7 -26 -12 -43 -12 -16 0 -25 4 -20 8 59 42 85 130 46 152 -29
15 -67 12 -85 -6z"/>
<path d="M3917 4022 c-20 -22 -22 -83 -5 -100 7 -7 23 -12 35 -12 21 0 22 -3
13 -20 -6 -12 -23 -26 -38 -32 -27 -11 -27 -12 -4 -16 46 -8 102 59 102 122 0
64 -65 100 -103 58z m51 -14 c15 -15 16 -64 2 -73 -17 -11 -40 15 -40 45 0 39
15 51 38 28z"/>
<path d="M1874 3983 c-8 -21 -23 -56 -31 -78 -9 -22 -23 -48 -31 -58 -19 -21
-10 -31 20 -24 18 5 24 13 23 34 0 24 4 28 32 31 24 2 33 -1 38 -17 3 -12 4
-25 1 -30 -9 -13 22 -22 51 -15 19 5 22 9 11 15 -8 4 -29 46 -48 93 -19 47
-38 86 -42 86 -4 0 -15 -17 -24 -37z m30 -49 c9 -23 8 -24 -13 -24 -14 0 -18
5 -14 20 6 24 19 26 27 4z"/>
<path d="M8226 3958 c-22 -31 -20 -74 4 -98 55 -55 132 18 95 90 -13 24 -22
30 -50 30 -24 0 -39 -7 -49 -22z m68 -14 c11 -29 6 -72 -9 -78 -22 -8 -49 38
-41 69 7 28 40 34 50 9z"/>
<path d="M8373 3972 c-7 -4 -12 -29 -11 -57 1 -28 -2 -64 -6 -82 -6 -26 -4
-34 13 -43 51 -27 143 27 111 65 -7 9 -29 15 -51 15 -47 0 -52 17 -7 22 26 2
35 9 43 33 5 17 14 33 18 36 21 15 -87 26 -110 11z m57 -22 c13 -25 5 -40 -21
-40 -13 0 -19 7 -19 23 0 41 22 50 40 17z m24 -119 c7 -11 -17 -21 -49 -21
-25 0 -39 12 -28 24 10 9 71 7 77 -3z"/>
<path d="M8737 3974 c-4 -4 0 -12 7 -18 8 -6 17 -35 21 -64 7 -52 7 -53 -24
-65 -19 -7 -31 -18 -31 -29 0 -10 4 -18 8 -18 11 0 118 111 131 137 16 32 14
63 -5 63 -12 0 -15 -6 -10 -23 5 -23 -17 -67 -34 -67 -5 0 -10 19 -12 43 -2
33 -7 43 -23 45 -12 2 -24 0 -28 -4z"/>
<path d="M2711 3961 c-11 -7 -11 -10 1 -17 35 -21 25 -84 -12 -84 -11 0 -20
-7 -20 -15 0 -21 24 -19 46 6 l18 20 8 -20 c4 -12 12 -21 17 -21 16 0 42 31
35 42 -4 6 -9 5 -15 -3 -6 -10 -10 -7 -17 11 -12 30 1 57 28 62 14 2 17 7 11
17 -8 12 -13 12 -34 -2 -22 -14 -26 -14 -31 -2 -6 17 -15 18 -35 6z"/>
<path d="M3020 3964 c0 -3 7 -12 15 -21 11 -11 15 -31 13 -67 -2 -42 -7 -53
-25 -61 -24 -10 -28 -22 -15 -42 7 -11 100 90 129 141 17 29 16 56 -2 56 -9 0
-15 -10 -15 -26 0 -14 -9 -37 -20 -51 l-20 -26 0 36 c0 51 -9 67 -36 67 -13 0
-24 -3 -24 -6z"/>
<path d="M3365 3940 c3 -5 40 -10 81 -10 48 0 73 4 69 10 -3 6 -40 10 -81 10
-48 0 -73 -4 -69 -10z"/>
<path d="M8530 3905 c-11 -13 -9 -15 14 -15 28 0 35 -17 11 -26 -20 -8 -19
-24 1 -24 10 0 14 -7 12 -22 -2 -17 -9 -22 -25 -20 -15 2 -23 -2 -23 -12 0
-12 7 -14 33 -9 39 8 49 20 42 53 -3 14 -7 39 -8 55 -2 35 -35 46 -57 20z"/>
<path d="M3370 3890 c0 -6 32 -10 75 -10 43 0 75 4 75 10 0 6 -32 10 -75 10
-43 0 -75 -4 -75 -10z"/>
<path d="M8852 3759 c-29 -66 -50 -125 -47 -129 7 -11 35 -2 35 11 0 4 13 36
29 71 16 35 32 70 34 78 3 8 6 -166 6 -388 l1 -403 -52 39 c-155 114 -397 282
-407 282 -21 0 -11 -40 12 -49 13 -5 30 -16 38 -24 8 -8 29 -22 47 -31 18 -9
32 -21 32 -27 0 -6 4 -8 8 -5 5 3 22 -7 38 -22 17 -15 76 -58 132 -95 56 -38
104 -72 107 -78 4 -5 -15 -9 -44 -9 -41 0 -51 -3 -51 -16 0 -14 9 -16 66 -11
44 3 67 1 69 -7 2 -6 5 -468 7 -1026 l3 -1015 -265 -4 c-146 -2 -269 -5 -273
-8 -4 -3 -4 -10 2 -16 7 -9 83 -12 269 -11 l260 1 5 -91 c2 -50 5 -163 6 -250
1 -88 4 -163 7 -168 19 -31 24 16 24 246 0 183 3 257 12 262 6 4 41 6 77 4 36
-1 109 -2 161 -2 52 0 113 1 135 0 22 0 69 0 105 1 36 0 73 0 83 0 9 0 25 1
35 2 9 1 373 4 807 6 435 3 954 7 1154 10 l364 5 -6 -55 c-6 -44 -4 -56 8 -61
19 -7 39 37 30 65 -4 11 -4 19 -1 19 3 0 49 -30 102 -67 181 -128 219 -152
237 -153 41 -1 5 33 -140 130 -84 56 -153 106 -153 111 0 5 103 9 253 9 138 0
317 3 397 6 165 7 167 5 53 -56 -66 -34 -90 -60 -59 -60 34 0 236 112 236 131
0 10 -220 119 -239 119 -29 0 -1 -27 64 -61 l68 -37 -364 -7 c-200 -4 -384 -5
-409 -3 -44 3 -45 3 -42 36 3 31 -11 62 -28 62 -4 0 -7 -19 -8 -42 -1 -23 -3
-42 -4 -44 -3 -2 -176 119 -303 211 -142 103 -231 165 -238 165 -5 0 -77 49
-160 108 -84 60 -195 138 -247 174 -138 94 -483 336 -497 348 -7 5 -15 10 -18
10 -10 0 -89 54 -110 75 -11 11 -72 54 -135 96 -120 80 -326 225 -395 278 -69
53 -269 193 -285 199 -8 3 -25 15 -38 26 -13 12 -25 19 -28 16 -2 -3 -10 5
-19 16 -8 12 -40 36 -70 53 -56 32 -186 121 -284 195 l-55 41 40 5 c27 4 40
10 42 23 3 17 -2 18 -67 11 l-71 -7 0 404 c1 441 -2 427 55 310 29 -58 55 -79
55 -43 0 9 -22 57 -50 105 -27 49 -52 97 -55 108 -4 10 -14 19 -23 19 -12 -1
-33 -36 -70 -121z m176 -881 c133 -99 294 -210 338 -235 24 -14 44 -28 44 -32
0 -4 30 -27 68 -51 37 -24 69 -48 70 -52 2 -4 8 -8 14 -8 10 0 151 -92 174
-114 26 -25 59 -50 117 -90 34 -23 85 -58 112 -77 28 -20 95 -66 150 -104 55
-37 118 -83 140 -100 22 -18 105 -75 185 -128 80 -52 168 -112 195 -131 243
-173 515 -362 635 -442 80 -54 150 -103 156 -110 6 -8 16 -14 23 -14 6 0 14
-7 17 -15 4 -8 10 -13 14 -10 5 3 12 0 17 -7 4 -7 55 -44 113 -82 58 -38 131
-88 162 -111 l58 -42 -623 -6 c-342 -4 -914 -8 -1272 -9 -357 -1 -721 -2 -808
-2 -88 -1 -163 2 -168 5 -13 8 -25 2019 -12 2019 5 0 42 -24 81 -52z"/>
<path d="M2020 3840 c0 -15 5 -20 18 -18 9 2 17 10 17 18 0 8 -8 16 -17 18
-13 2 -18 -3 -18 -18z"/>
<path d="M2854 3258 c-19 -21 -19 -21 3 -16 28 7 42 -11 19 -24 -15 -8 -14
-11 6 -28 18 -15 20 -20 10 -33 -7 -8 -21 -13 -31 -10 -10 3 -21 0 -25 -5 -9
-15 30 -21 56 -8 19 10 23 20 23 61 1 45 -16 85 -35 85 -4 0 -15 -10 -26 -22z"/>
<path d="M3144 3259 c-18 -20 -18 -20 11 -17 25 2 30 -1 31 -19 1 -12 -11 -34
-27 -49 -16 -15 -26 -31 -23 -36 9 -15 71 -9 85 9 13 15 11 16 -13 9 -33 -8
-35 -2 -8 31 25 32 25 55 2 76 -24 22 -35 21 -58 -4z"/>
<path d="M3735 3196 c-17 -13 -25 -28 -21 -34 5 -9 11 -8 22 3 9 8 22 15 29
15 13 0 45 -26 45 -36 0 -15 -28 -53 -61 -85 -22 -20 -39 -40 -39 -45 0 -13
124 -4 132 10 14 21 8 24 -39 18 l-48 -5 32 27 c42 35 59 91 37 124 -9 13 -18
21 -21 18 -3 -3 -13 -1 -22 4 -13 6 -25 2 -46 -14z"/>
<path d="M3891 3194 c-36 -46 -22 -114 24 -114 14 0 25 -4 25 -8 0 -11 -41
-48 -60 -55 -9 -3 -5 -6 10 -6 57 -2 106 65 97 131 -10 74 -58 100 -96 52z
m57 -27 c23 -48 -7 -89 -38 -52 -15 18 -4 88 13 82 7 -2 18 -16 25 -30z"/>
<path d="M3590 3200 c-12 -8 -22 -50 -11 -50 5 0 13 5 16 10 6 10 65 15 65 5
0 -2 -11 -39 -25 -81 -29 -89 -28 -84 -12 -84 9 0 77 177 77 203 0 7 -98 4
-110 -3z"/>
<path d="M1810 3189 c-13 -8 -13 -11 3 -20 14 -8 17 -24 17 -81 0 -56 -4 -74
-17 -84 -28 -21 105 -19 135 2 26 18 30 69 6 82 -11 6 -13 11 -5 16 6 4 11 19
11 34 0 22 -8 30 -38 43 -22 9 -46 13 -57 9 -11 -4 -25 -4 -30 1 -6 4 -17 4
-25 -2z m108 -58 c-2 -20 -9 -27 -30 -29 -26 -3 -28 -1 -28 31 0 32 2 33 31
29 26 -4 30 -8 27 -31z m10 -83 c3 -22 -2 -29 -22 -34 -34 -8 -46 2 -46 37 0
28 2 30 33 27 26 -2 33 -8 35 -30z"/>
<path d="M2990 3130 c-12 -8 -12 -10 3 -16 13 -5 17 -18 17 -64 0 -58 -14 -84
-40 -78 -19 4 -24 -21 -6 -28 21 -8 40 8 93 80 28 38 43 69 43 88 0 19 -4 28
-12 25 -7 -2 -12 -15 -11 -28 2 -13 -6 -35 -16 -48 l-18 -24 -7 52 c-7 51 -16
60 -46 41z"/>
<path d="M2719 3109 c29 -27 24 -60 -12 -77 -24 -11 -26 -16 -15 -29 11 -13
15 -12 35 11 17 20 23 23 23 11 0 -21 27 -30 45 -15 19 16 20 34 1 27 -14 -6
-26 12 -26 39 0 8 11 19 25 24 14 5 25 14 25 20 0 13 -33 13 -47 -1 -8 -8 -13
-8 -17 0 -4 6 -19 11 -33 11 l-27 0 23 -21z"/>
<path d="M3340 3110 c0 -6 31 -10 74 -10 41 0 78 5 81 10 4 6 -23 10 -74 10
-47 0 -81 -4 -81 -10z"/>
<path d="M3345 3060 c-10 -16 17 -21 85 -18 40 2 65 8 68 16 5 15 -143 17
-153 2z"/>
<path d="M8577 3032 c-19 -21 -22 -42 -7 -42 6 0 10 4 10 9 0 15 32 22 46 10
29 -24 12 -67 -48 -131 -28 -29 -21 -38 30 -38 49 0 72 12 72 39 0 12 -3 12
-12 3 -7 -7 -25 -12 -41 -12 l-30 0 28 28 c47 47 59 106 27 135 -24 22 -55 21
-75 -1z"/>
<path d="M2020 3010 c0 -11 4 -20 9 -20 11 0 22 26 14 34 -12 12 -23 5 -23
-14z"/>
<path d="M2855 2428 l-20 -21 27 5 c45 8 53 -14 22 -61 -15 -23 -31 -41 -37
-41 -8 0 -8 -3 0 -11 15 -15 85 -7 91 10 3 10 -2 12 -22 7 -31 -8 -32 0 -6 34
49 63 -1 134 -55 78z"/>
<path d="M3431 2436 c-13 -16 2 -32 19 -21 6 3 15 3 21 -1 8 -4 4 -13 -12 -25
-18 -14 -20 -19 -8 -19 9 0 22 -7 29 -15 18 -22 -3 -43 -38 -37 -25 4 -26 3
-11 -12 34 -36 102 29 71 67 -6 7 -8 23 -5 36 9 37 -41 57 -66 27z"/>
<path d="M4020 2363 c-24 -31 -10 -45 19 -19 16 15 19 15 36 -4 24 -26 15 -55
-35 -109 -48 -53 -50 -66 -9 -57 17 3 46 6 64 6 21 0 35 6 39 16 9 24 -2 30
-24 16 -20 -12 -60 -17 -60 -6 0 3 16 24 35 47 42 49 47 97 13 121 -32 23 -54
20 -78 -11z"/>
<path d="M4184 2382 c-16 -10 -34 -48 -34 -69 0 -10 6 -29 13 -43 10 -20 19
-24 42 -22 28 4 28 3 13 -20 -8 -12 -25 -27 -36 -33 -12 -5 -22 -13 -22 -18 0
-17 46 6 78 39 27 28 32 41 32 82 0 27 -7 57 -16 70 -15 22 -49 29 -70 14z
m50 -50 c10 -37 3 -62 -19 -62 -23 0 -39 49 -25 78 13 30 32 24 44 -16z"/>
<path d="M3866 2358 c-9 -37 -7 -40 16 -24 24 17 68 22 68 7 0 -8 -36 -128
-47 -157 -3 -8 1 -14 9 -14 8 0 26 38 46 99 17 54 32 101 32 105 0 3 -26 6
-59 6 -52 0 -59 -2 -65 -22z"/>
<path d="M1871 2358 c-28 -15 -61 -72 -61 -106 0 -40 28 -80 65 -92 40 -13 65
-8 90 20 23 25 11 39 -13 17 -24 -22 -65 -22 -85 1 -27 29 -22 96 8 126 29 29
49 26 82 -13 l23 -26 -7 35 c-3 19 -6 36 -7 37 -7 10 -76 11 -95 1z"/>
<path d="M3096 2323 c-3 -3 -6 -19 -6 -35 0 -25 -4 -28 -31 -28 -38 0 -35 -24
4 -28 22 -3 27 -8 27 -33 0 -19 5 -29 15 -29 11 0 15 11 15 36 0 33 2 36 24
30 15 -4 28 0 36 9 11 13 7 15 -24 15 -33 0 -36 2 -36 29 0 30 -12 46 -24 34z"/>
<path d="M3379 2303 c-1 -5 -1 -17 0 -28 1 -11 -7 -31 -18 -44 l-18 -24 -7 47
c-6 40 -10 46 -32 46 -24 0 -33 -15 -13 -22 6 -2 14 -27 17 -56 5 -56 -7 -82
-39 -82 -11 0 -19 -7 -19 -15 0 -30 38 -14 78 34 55 65 85 118 78 136 -6 15
-25 21 -27 8z"/>
<path d="M2710 2291 c0 -5 7 -14 16 -21 22 -19 14 -63 -13 -75 -13 -5 -23 -15
-23 -22 0 -20 27 -15 44 8 l14 21 12 -21 c9 -17 15 -19 30 -11 11 6 20 18 20
27 0 12 -3 13 -14 4 -11 -9 -15 -7 -20 13 -8 33 2 56 25 56 10 0 19 7 19 15 0
20 -24 19 -41 -1 -11 -14 -13 -14 -21 0 -9 17 -48 22 -48 7z"/>
<path d="M3623 2278 c7 -21 147 -18 147 3 0 5 -34 9 -76 9 -56 0 -75 -3 -71
-12z"/>
<path d="M3624 2231 c-15 -15 5 -21 70 -21 53 0 75 4 79 14 4 11 -10 13 -70
12 -41 0 -76 -3 -79 -5z"/>
<path d="M2006 2181 c-3 -5 1 -12 10 -15 24 -9 31 -7 31 9 0 16 -32 21 -41 6z"/>
<path d="M3426 1604 c-22 -21 -20 -25 7 -19 12 3 29 1 37 -4 12 -8 9 -17 -18
-56 -25 -35 -29 -47 -18 -51 26 -10 71 0 71 16 0 10 -8 14 -24 12 l-24 -4 22
27 c29 37 28 81 -1 89 -32 8 -35 8 -52 -10z"/>
<path d="M2847 1595 c-5 -11 0 -13 24 -8 22 4 29 2 27 -8 -2 -8 -7 -17 -13
-21 -7 -5 -6 -14 3 -28 19 -30 15 -42 -15 -38 -15 2 -28 -2 -30 -9 -6 -16 25
-17 61 -3 26 9 36 43 17 55 -5 3 -7 21 -4 40 6 34 5 35 -30 35 -21 0 -37 -6
-40 -15z"/>
<path d="M4178 1543 c-25 -28 -31 -62 -18 -94 10 -23 19 -29 42 -29 26 0 28
-2 18 -20 -6 -11 -22 -26 -37 -33 -36 -19 -15 -28 25 -11 67 28 92 152 39 189
-28 20 -50 19 -69 -2z m51 -17 c7 -8 11 -30 9 -48 -2 -25 -8 -33 -23 -33 -15
0 -21 8 -23 33 -6 57 12 79 37 48z"/>
<path d="M3870 1529 c-15 -26 -7 -34 18 -20 28 15 62 14 62 -2 0 -8 -11 -46
-24 -85 -16 -45 -21 -74 -15 -78 6 -3 12 -4 14 -3 2 3 34 101 61 192 5 15 -2
17 -50 17 -46 0 -57 -4 -66 -21z"/>
<path d="M4015 1528 c-19 -29 -2 -37 25 -13 16 15 22 15 35 5 8 -7 15 -22 15
-35 0 -22 -65 -115 -81 -115 -5 0 -9 -4 -9 -10 0 -6 28 -10 64 -10 55 0 64 3
69 20 5 18 2 19 -34 14 -44 -7 -50 3 -18 32 35 31 51 78 37 109 -15 34 -79 36
-103 3z"/>
<path d="M1818 1523 c16 -6 17 -164 0 -181 -9 -9 1 -12 44 -12 73 0 103 12
123 49 22 44 19 85 -11 120 -25 29 -29 31 -97 30 -40 0 -66 -3 -59 -6z m126
-37 c30 -33 27 -83 -9 -113 -14 -13 -35 -23 -46 -23 -17 0 -19 7 -19 80 0 79
0 80 25 80 15 0 36 -11 49 -24z"/>
<path d="M3090 1470 c0 -38 -2 -40 -29 -40 -42 0 -48 -18 -9 -22 25 -2 33 -8
34 -23 2 -38 4 -45 14 -45 6 0 10 16 10 35 0 32 2 35 30 35 38 0 40 18 3 22
-24 3 -28 8 -31 41 -4 50 -22 48 -22 -3z"/>
<path d="M3288 1483 c-16 -4 -17 -7 -2 -34 9 -18 14 -49 12 -77 -2 -38 -7 -48
-23 -50 -29 -6 -41 -20 -27 -34 14 -14 29 -3 94 75 37 45 48 66 48 93 0 18 -4
34 -10 34 -10 0 -14 -14 -11 -38 3 -18 -31 -72 -41 -66 -4 3 -8 25 -8 49 0 47
-5 54 -32 48z"/>
<path d="M2710 1471 c0 -5 7 -14 15 -21 27 -22 11 -90 -20 -90 -17 0 -20 -16
-5 -25 5 -3 18 3 29 14 18 18 21 19 29 5 11 -20 46 -14 50 9 2 11 -1 15 -11
11 -9 -3 -17 3 -20 17 -7 25 8 49 29 49 8 0 14 9 14 20 0 24 -8 25 -31 4 -17
-15 -19 -15 -34 0 -18 17 -45 22 -45 7z"/>
<path d="M3623 1456 c5 -14 142 -15 142 -1 0 6 -31 10 -73 11 -47 0 -71 -3
-69 -10z"/>
<path d="M3623 1398 c2 -9 26 -13 71 -13 42 0 72 5 78 13 8 9 -7 12 -72 12
-61 0 -81 -3 -77 -12z"/>
<path d="M2037 1363 c-13 -12 -7 -33 8 -33 8 0 15 9 15 20 0 20 -11 26 -23 13z"/>
<path d="M8681 731 c-35 -33 -41 -44 -41 -80 0 -55 37 -96 77 -86 65 16 113
75 113 139 0 45 -22 66 -69 66 -31 0 -47 -8 -80 -39z m103 13 c9 -8 16 -25 16
-36 0 -35 -32 -90 -64 -109 -28 -17 -32 -17 -48 -2 -34 31 -10 121 41 148 33
18 36 18 55 -1z"/>
<path d="M11856 724 c-15 -15 -21 -34 -11 -34 3 0 14 5 24 12 22 14 51 4 51
-16 0 -9 -11 -23 -25 -32 l-26 -17 23 -11 c15 -7 23 -21 23 -36 0 -23 -4 -25
-37 -23 -39 2 -46 -5 -26 -25 18 -18 42 -15 72 9 28 22 35 66 14 87 -10 10
-10 17 0 32 6 11 12 24 12 29 0 18 -31 41 -55 41 -13 0 -31 -7 -39 -16z"/>
<path d="M12535 734 c-7 -3 -8 -30 -4 -77 4 -39 3 -80 -2 -89 -13 -25 -11 -30
14 -26 12 2 21 6 20 11 -2 4 -3 48 -3 97 0 50 -3 90 -7 89 -5 0 -13 -3 -18 -5z"/>
<path d="M12606 658 c-40 -57 4 -131 65 -112 23 7 42 55 33 88 -12 48 -71 62
-98 24z m65 -25 c20 -54 -15 -101 -41 -54 -11 22 -13 64 -3 74 14 15 34 6 44
-20z"/>
<path d="M12736 664 c-19 -18 -19 -20 -6 -45 8 -13 8 -31 0 -58 -15 -57 -6
-71 45 -71 35 0 46 5 59 25 25 38 8 62 -38 57 -23 -3 -36 0 -36 8 0 6 8 10 18
8 26 -4 52 20 52 48 0 13 6 25 13 25 16 2 -41 16 -70 18 -12 0 -29 -6 -37 -15z
m62 -27 c4 -21 -25 -34 -40 -19 -8 8 -8 16 2 27 16 19 34 15 38 -8z m11 -112
c-12 -12 -21 -14 -42 -6 -38 15 -33 21 15 21 38 0 41 -2 27 -15z"/>
<path d="M13025 670 c-3 -5 -1 -10 5 -10 6 0 16 -11 22 -25 9 -21 8 -28 -7
-45 -10 -11 -25 -20 -33 -20 -12 0 -12 -3 -2 -15 12 -14 15 -13 35 5 27 25 31
25 39 -2 5 -22 6 -22 23 -4 13 13 15 20 6 23 -7 3 -13 18 -13 35 0 21 6 31 20
35 11 3 20 12 20 19 0 17 -22 18 -38 2 -9 -9 -15 -9 -24 0 -15 15 -45 16 -53
2z"/>
<path d="M12870 605 c-10 -13 -9 -15 8 -15 26 0 39 -19 21 -31 -11 -6 -11 -11
-1 -21 20 -20 14 -38 -15 -38 -19 0 -24 -3 -16 -11 29 -29 89 14 67 48 -6 10
-8 27 -4 38 14 38 -33 62 -60 30z"/>
</g>
</svg>
