<?xml version="1.0" standalone="no"?>
<!DOCTYPE svg PUBLIC "-//W3C//DTD SVG 20010904//EN"
 "http://www.w3.org/TR/2001/REC-SVG-20010904/DTD/svg10.dtd">
<svg version="1.0" xmlns="http://www.w3.org/2000/svg"
 width="1361.000000pt" height="535.000000pt" viewBox="0 0 1361.000000 535.000000"
 preserveAspectRatio="xMidYMid meet">
<metadata>
Created by potrace 1.16, written by Peter Selinger 2001-2019
</metadata>
<g transform="translate(0.000000,535.000000) scale(0.100000,-0.100000)"
fill="#000000" stroke="none">
<path d="M2272 4973 c-27 -38 -63 -84 -80 -103 l-31 -35 30 -3 c34 -4 50 5 31
17 -21 13 10 43 41 39 26 -3 26 -4 13 -30 l-15 -28 40 0 c21 0 39 5 39 10 0 6
-5 10 -11 10 -9 0 -10 26 -5 95 3 52 4 95 2 95 -2 0 -27 -30 -54 -67z m18 -43
c0 -11 -7 -20 -15 -20 -18 0 -19 12 -3 28 16 16 18 15 18 -8z"/>
<path d="M2409 5016 c13 -16 -22 -144 -45 -162 -24 -19 -16 -24 44 -24 78 0
138 37 147 90 7 43 -7 85 -34 99 -11 6 -43 11 -72 11 -42 0 -49 -2 -40 -14z
m106 -32 c20 -31 14 -63 -19 -99 -23 -25 -86 -46 -86 -28 0 14 31 116 41 136
14 25 44 21 64 -9z"/>
<path d="M1260 4873 c0 -10 -28 -13 -104 -13 l-105 0 -3 -122 c-2 -68 -3 -124
-3 -125 0 -1 52 -3 115 -4 l115 -2 3 122 c2 70 -1 128 -7 138 -6 10 -11 12
-11 6z m-160 -63 c0 -23 -4 -30 -20 -30 -16 0 -20 7 -20 30 0 23 4 30 20 30
16 0 20 -7 20 -30z m78 23 c-10 -2 -28 -2 -40 0 -13 2 -5 4 17 4 22 1 32 -1
23 -4z m72 -22 c0 -26 -3 -29 -40 -33 -22 -2 -40 0 -40 4 0 5 12 8 26 8 23 0
26 3 22 25 -4 19 -1 25 13 25 14 0 19 -7 19 -29z m-60 -1 c0 -5 -16 -10 -36
-10 -21 0 -33 4 -29 10 3 6 19 10 36 10 16 0 29 -4 29 -10z m-100 -116 c0 -48
-3 -65 -12 -62 -13 5 -23 89 -14 114 13 35 26 9 26 -52z m118 19 c-3 -46 -4
-48 -35 -51 -30 -3 -33 -1 -33 22 0 17 5 26 16 26 11 0 15 -6 11 -19 -3 -14 0
-17 14 -14 21 6 26 39 7 45 -6 2 -24 2 -39 0 -23 -3 -29 -10 -32 -36 -2 -17
-4 -7 -4 22 l1 52 48 0 49 0 -3 -47z m42 -18 c0 -45 -4 -65 -12 -65 -10 0 -12
18 -10 65 5 84 22 84 22 0z m-62 -62 c-16 -2 -40 -2 -55 0 -16 2 -3 4 27 4 30
0 43 -2 28 -4z"/>
<path d="M1148 4743 c7 -3 16 -2 19 1 4 3 -2 6 -13 5 -11 0 -14 -3 -6 -6z"/>
<path d="M1460 4849 c0 -31 0 -31 -47 -27 l-48 3 -1 -67 c0 -63 6 -82 21 -58
3 6 22 10 42 10 l35 0 -4 -52 c-1 -29 2 -55 7 -58 6 -3 11 18 13 53 l3 57 49
0 50 0 0 59 0 58 -51 -5 -51 -5 7 32 c5 24 3 31 -9 31 -11 0 -16 -9 -16 -31z
m0 -89 l0 -40 -37 4 c-28 2 -38 7 -37 19 3 56 3 57 39 57 34 0 35 -1 35 -40z
m100 2 c0 -38 -1 -39 -40 -40 l-40 -2 0 40 c0 40 0 40 40 40 40 0 40 0 40 -38z"/>
<path d="M310 4835 c-14 -8 -19 -14 -12 -15 9 0 12 -25 12 -90 0 -79 2 -90 18
-90 15 0 17 11 16 100 -1 55 -3 102 -5 104 -2 3 -15 -2 -29 -9z"/>
<path d="M443 4838 c-27 -13 -29 -39 -8 -72 14 -21 13 -24 -5 -41 -27 -25 -25
-50 6 -74 34 -27 46 -26 72 2 28 29 28 51 1 78 -12 12 -17 24 -13 28 31 22 34
38 13 65 -22 28 -32 30 -66 14z m45 -41 c2 -15 -1 -27 -6 -27 -17 0 -34 29
-28 46 9 23 31 11 34 -19z m-8 -82 c15 -18 9 -50 -10 -50 -10 0 -16 12 -18 33
-3 34 8 41 28 17z"/>
<path d="M1760 4766 c0 -8 4 -17 9 -20 5 -3 7 -16 3 -29 -5 -20 -4 -21 11 -8
9 7 17 26 17 42 0 22 -5 29 -20 29 -11 0 -20 -6 -20 -14z"/>
<path d="M2667 4764 c-16 -16 9 -24 74 -24 52 0 70 3 67 13 -5 13 -129 23
-141 11z"/>
<path d="M2120 4731 c0 -9 429 -21 458 -12 6 2 12 7 12 12 0 5 -104 9 -235 9
-141 0 -235 -4 -235 -9z"/>
<path d="M2660 4700 c0 -20 5 -21 73 -18 56 2 72 6 72 18 0 12 -16 16 -72 18
-68 3 -73 2 -73 -18z"/>
<path d="M560 4654 c0 -17 22 -14 28 4 2 7 -3 12 -12 12 -9 0 -16 -7 -16 -16z"/>
<path d="M2269 4538 c-34 -46 -66 -89 -71 -95 -8 -10 -4 -13 16 -13 18 0 26 5
26 18 0 23 19 42 42 42 21 0 24 -30 6 -48 -9 -9 -4 -12 26 -12 33 0 37 2 26
15 -11 14 -8 108 6 158 11 38 -18 13 -77 -65z m35 -12 c-3 -9 -10 -16 -15 -16
-6 0 -5 9 1 21 13 24 24 20 14 -5z"/>
<path d="M2419 4606 c8 -10 6 -30 -10 -82 -12 -38 -26 -75 -31 -81 -8 -10 4
-13 56 -13 59 0 67 2 82 25 15 23 15 29 3 51 -12 23 -11 27 4 35 20 11 23 49
5 67 -7 7 -36 12 -66 12 -45 0 -52 -2 -43 -14z m89 -27 c3 -15 -43 -47 -53
-37 -3 3 -3 18 1 32 5 20 12 26 28 24 11 -2 22 -10 24 -19z m-23 -79 c9 -27
-11 -50 -41 -50 -28 0 -27 -2 -13 39 13 36 44 42 54 11z"/>
<path d="M11636 3989 c-62 -54 -62 -138 -1 -163 30 -13 39 -13 69 -1 19 8 38
20 41 26 10 16 -3 25 -17 11 -7 -7 -20 -12 -30 -12 -10 0 -18 -5 -18 -11 0 -6
-7 -3 -16 5 -8 9 -19 16 -24 16 -16 0 -18 44 -3 82 25 63 97 87 105 35 5 -33
21 -26 29 11 l6 32 -53 0 c-45 0 -59 -5 -88 -31z"/>
<path d="M1945 3879 c-21 -50 -45 -93 -52 -96 -20 -8 -5 -23 24 -23 22 0 24 3
19 24 -7 30 14 49 51 44 24 -3 28 -7 27 -34 -2 -30 0 -32 38 -32 37 -1 39 0
24 17 -13 15 -54 112 -73 174 -3 9 -8 17 -12 17 -4 0 -24 -41 -46 -91z m58
-23 c1 -5 -8 -9 -20 -11 -27 -2 -27 2 -11 37 13 27 13 27 21 5 5 -12 9 -26 10
-31z"/>
<path d="M3943 3951 c-16 -15 -103 -214 -103 -236 0 -3 6 -5 14 -5 8 0 19 13
24 29 10 27 14 29 44 25 28 -5 38 0 67 30 28 29 33 40 28 65 -4 20 -1 33 9 42
8 7 14 24 12 38 -3 22 -9 26 -38 29 -24 2 -42 -3 -57 -17z m67 -10 c0 -23 -14
-41 -31 -41 -23 0 -25 -15 -4 -24 21 -8 19 -39 -6 -70 -21 -27 -35 -31 -58
-17 -11 7 -9 17 8 56 12 26 21 52 21 58 0 18 32 47 52 47 10 0 18 -4 18 -9z"/>
<path d="M3446 3912 c-14 -18 -16 -27 -8 -30 8 -2 12 -26 12 -63 0 -59 0 -60
27 -57 14 2 29 9 31 17 3 10 0 12 -12 8 -14 -5 -16 2 -16 48 0 43 4 54 18 58
16 4 16 5 0 6 -10 0 -18 7 -18 15 0 26 -14 25 -34 -2z"/>
<path d="M2789 3881 c-34 -35 -36 -53 -8 -92 24 -33 58 -38 82 -11 24 26 23
50 -1 29 -25 -23 -39 -21 -57 7 -12 19 -14 30 -6 44 14 26 40 35 47 17 7 -16
34 -21 34 -6 0 11 -39 41 -53 41 -5 0 -22 -13 -38 -29z"/>
<path d="M2939 3903 c-41 -11 -51 -112 -14 -139 19 -14 53 -7 78 14 24 21 23
86 -3 112 -20 20 -29 22 -61 13z m41 -32 c16 -31 12 -81 -6 -88 -34 -13 -60
67 -32 95 17 17 26 15 38 -7z"/>
<path d="M3057 3892 c-24 -27 -21 -36 19 -67 26 -20 33 -30 25 -38 -9 -9 -17
-8 -32 1 -24 15 -34 10 -26 -13 4 -9 19 -15 40 -15 26 0 37 6 48 26 12 24 12
28 -10 45 -13 11 -31 24 -40 29 -12 6 -13 12 -5 20 8 8 14 7 24 -5 16 -19 30
-19 30 0 0 9 -12 20 -26 25 -32 12 -28 13 -47 -8z"/>
<path d="M3230 3883 c-22 -20 -33 -40 -37 -70 -5 -39 -4 -42 21 -49 15 -3 39
-1 53 5 19 9 29 9 39 0 15 -13 34 -4 34 16 0 9 -6 12 -15 9 -22 -9 -19 22 5
46 11 11 20 25 20 30 0 6 5 10 10 10 6 0 10 7 10 15 0 19 -14 19 -30 0 -12
-14 -15 -14 -30 0 -24 22 -46 19 -80 -12z m64 -9 c10 -27 7 -38 -19 -67 -50
-53 -76 -16 -35 51 21 35 44 42 54 16z"/>
<path d="M3538 3899 c-10 -5 -18 -17 -18 -24 0 -20 26 -19 34 0 7 19 26 20 26
1 0 -8 -13 -24 -30 -36 -46 -33 -36 -109 11 -79 8 4 23 6 35 3 12 -3 26 1 33
10 11 13 11 16 -1 16 -11 0 -14 13 -14 49 1 27 -1 52 -4 54 -12 12 -56 16 -72
6z m38 -105 c-3 -8 -10 -14 -16 -14 -14 0 -12 47 3 53 14 5 21 -17 13 -39z"/>
<path d="M3685 3903 c-53 -7 -60 -12 -40 -27 18 -13 18 -58 0 -98 -6 -16 0
-18 66 -18 57 0 70 3 61 12 -7 7 -12 34 -12 61 0 45 -16 79 -37 76 -4 -1 -21
-4 -38 -6z m45 -79 c0 -52 -1 -55 -22 -52 -42 6 -34 108 8 108 10 0 14 -15 14
-56z"/>
<path d="M4297 3883 c-13 -13 -7 -51 9 -57 22 -9 44 11 44 40 0 18 -5 24 -23
24 -13 0 -27 -3 -30 -7z m43 -23 c0 -5 -7 -10 -15 -10 -8 0 -15 5 -15 10 0 6
7 10 15 10 8 0 15 -4 15 -10z"/>
<path d="M2110 3780 c0 -11 7 -20 15 -20 8 0 15 9 15 20 0 11 -7 20 -15 20 -8
0 -15 -9 -15 -20z"/>
<path d="M11590 3716 c-36 -24 -103 -69 -150 -100 -47 -31 -132 -89 -190 -129
-206 -144 -317 -220 -490 -334 -273 -181 -280 -186 -280 -195 0 -4 -5 -8 -11
-8 -10 0 -120 -72 -354 -231 -229 -156 -391 -265 -416 -279 -15 -8 -40 -25
-56 -38 -15 -13 -118 -83 -228 -156 -110 -73 -264 -176 -341 -229 -78 -53
-153 -101 -168 -107 -14 -5 -26 -14 -26 -20 0 -5 -5 -10 -10 -10 -11 0 -62
-33 -205 -132 -44 -30 -136 -93 -205 -140 -69 -46 -190 -129 -270 -185 -80
-55 -161 -108 -180 -118 -30 -15 -137 -91 -177 -125 -7 -5 -14 -10 -16 -10 -5
0 -250 -163 -294 -197 -18 -13 -33 -33 -33 -44 0 -19 14 -19 2053 -12 1128 4
2070 7 2092 8 39 0 42 2 75 59 19 33 55 89 78 125 68 103 242 397 242 409 0 6
4 12 8 14 4 2 21 29 37 61 16 33 36 64 45 70 13 10 105 161 187 307 7 14 40
66 73 115 70 107 130 206 178 295 19 36 60 107 91 159 31 51 64 108 74 125
108 183 165 278 189 313 50 74 46 80 -112 166 -77 43 -159 90 -182 106 -24 16
-106 61 -183 101 -153 80 -280 150 -364 202 -121 74 -382 208 -405 208 -6 0
-40 -20 -76 -44z m69 -1233 c-1 -681 -5 -1245 -10 -1253 -6 -13 -30 -16 -148
-15 l-140 1 -3 -130 -3 -131 -1577 -3 -1576 -2 0 92 c1 101 -15 158 -68 238
-16 25 -24 44 -18 50 5 5 65 47 134 95 253 172 379 255 389 255 7 0 14 7 17
15 4 8 10 15 15 15 5 0 31 15 58 33 146 97 451 303 481 326 19 14 43 31 52 36
9 6 69 45 132 88 63 42 118 77 121 77 4 0 32 18 63 40 64 45 55 39 182 125 52
36 145 99 205 140 61 41 121 84 135 94 27 21 255 169 334 216 27 17 59 40 72
52 13 12 24 20 24 18 0 -3 8 2 18 11 9 8 100 70 202 138 102 68 258 173 347
234 89 62 167 112 172 112 6 0 11 4 11 9 0 5 18 18 39 29 22 12 50 30 63 41
13 11 37 31 53 45 17 15 45 33 63 42 18 8 60 35 95 59 34 24 63 44 65 44 2 1
2 -556 1 -1236z m301 1093 c18 -15 128 -79 225 -131 39 -21 90 -49 115 -63 25
-13 86 -46 135 -71 50 -26 104 -56 121 -67 17 -10 55 -32 83 -49 41 -24 50
-34 45 -50 -4 -11 -10 -22 -14 -25 -12 -8 -90 -165 -90 -181 0 -8 10 -19 23
-25 12 -6 57 -30 100 -53 l77 -43 -19 -26 c-10 -15 -28 -45 -40 -67 -12 -22
-29 -52 -39 -67 -51 -79 -154 -259 -172 -297 -17 -39 -111 -193 -140 -231 -15
-19 -38 -54 -51 -77 -113 -196 -256 -423 -266 -423 -3 0 -23 16 -46 35 -61 52
-136 78 -234 79 l-83 1 0 986 0 986 128 -64 c70 -36 134 -70 142 -77z m861
-483 c63 -36 84 -53 81 -65 -2 -10 -8 -18 -13 -18 -5 0 -9 -5 -9 -11 0 -15
-81 -149 -90 -149 -4 0 -45 20 -91 45 -71 37 -84 48 -81 67 1 12 6 25 10 28 4
3 20 31 36 63 15 31 32 57 37 57 5 0 9 7 9 15 0 24 22 18 111 -32z m-933
-1399 c64 -21 142 -75 142 -99 0 -24 -103 -205 -227 -401 -7 -10 -38 -59 -68
-109 l-55 -90 6 355 c5 244 10 357 18 363 15 11 131 -1 184 -19z m-3758 -478
c41 -84 56 -168 41 -223 l-12 -43 -306 0 -307 0 103 70 c57 39 105 70 107 70
6 0 167 108 238 159 83 60 92 58 136 -33z m3518 -31 c4 -3 9 -56 10 -116 l4
-109 -89 -1 c-48 0 -112 -2 -140 -4 l-53 -3 0 113 c0 90 3 116 15 122 17 10
243 9 253 -2z"/>
<path d="M8381 1301 c-12 -12 -21 -26 -21 -33 0 -6 -9 -30 -19 -52 -38 -81
-61 -139 -61 -152 0 -26 21 -14 36 21 14 35 28 44 39 25 10 -17 32 -11 63 15
32 27 51 80 34 97 -7 7 -3 17 10 30 10 10 18 29 16 41 -4 32 -69 36 -97 8z
m62 -7 c11 -11 -16 -54 -35 -54 -24 0 -23 -8 5 -30 21 -18 21 -20 7 -47 -18
-32 -70 -46 -70 -19 0 19 39 127 53 144 10 13 30 16 40 6z"/>
<path d="M11887 1924 c-27 -27 -45 -84 -32 -103 9 -16 57 -13 83 5 20 14 22
14 22 0 0 -19 12 -20 28 -4 17 17 15 29 -3 22 -22 -9 -19 6 10 48 14 20 25 42
25 47 0 17 -21 13 -36 -6 -13 -17 -13 -17 -14 0 0 27 -52 22 -83 -9z m71 -21
c4 -26 -38 -73 -64 -73 -13 0 -15 6 -9 28 16 66 66 96 73 45z"/>
<path d="M3896 3188 c-15 -13 -36 -53 -50 -93 -14 -38 -32 -86 -40 -106 -14
-34 -13 -49 5 -49 4 0 13 16 19 35 10 30 15 34 35 29 40 -10 84 16 91 53 3 18
4 38 2 45 -3 7 6 28 19 47 23 33 23 36 7 48 -27 19 -60 16 -88 -9z m64 -9 c0
-23 -22 -49 -40 -49 -11 0 -20 -4 -20 -10 0 -5 6 -10 14 -10 22 0 25 -24 9
-58 -16 -34 -49 -43 -59 -17 -8 19 33 127 53 143 20 15 43 16 43 1z"/>
<path d="M2892 3183 c2 -10 10 -18 18 -18 22 0 18 29 -3 33 -14 3 -18 -1 -15
-15z"/>
<path d="M1897 3178 c11 -19 12 -151 0 -165 -7 -10 5 -13 55 -13 36 0 71 5 80
13 25 19 31 53 13 70 -13 13 -13 20 -3 43 11 23 10 28 -11 45 -28 23 -148 29
-134 7z m103 -23 c18 -22 5 -45 -28 -45 -24 0 -28 4 -30 30 -2 26 1 30 22 30
13 0 29 -7 36 -15z m14 -88 c9 -15 7 -21 -9 -33 -29 -22 -58 -14 -60 16 -2 14
0 29 2 33 8 14 56 3 67 -16z"/>
<path d="M3401 3146 c-14 -14 -19 -26 -13 -26 8 0 12 -21 12 -60 0 -56 2 -60
23 -60 13 0 29 6 35 12 9 9 15 10 20 2 4 -7 40 -12 90 -12 69 -1 81 2 72 13
-18 22 -8 89 14 93 10 2 22 -2 27 -10 12 -18 11 -65 -1 -73 -19 -12 -10 -25
18 -25 l28 0 -6 58 c-3 31 -9 63 -13 70 -10 15 -53 16 -63 1 -5 -8 -8 -8 -14
0 -4 8 -15 9 -30 3 -15 -6 -19 -11 -12 -16 7 -4 12 -27 12 -51 0 -35 -3 -43
-15 -39 -10 4 -15 20 -15 49 0 49 -17 68 -57 63 -20 -2 -29 -9 -31 -25 -4 -27
6 -30 24 -5 9 12 16 14 24 6 8 -8 2 -17 -24 -32 -20 -12 -36 -28 -36 -36 0
-11 -20 -26 -36 -26 -2 0 -4 23 -4 50 0 38 4 50 15 50 8 0 15 5 15 10 0 6 -6
10 -14 10 -8 0 -16 7 -18 16 -2 13 -8 11 -27 -10z m139 -95 c0 -10 -7 -22 -15
-25 -20 -7 -32 23 -14 35 21 13 29 11 29 -10z"/>
<path d="M2775 3127 c-9 -11 -10 -19 -6 -45 0 -4 15 -16 31 -25 17 -10 30 -22
30 -28 0 -13 -44 -11 -59 4 -10 10 -12 8 -9 -8 7 -40 98 -26 98 15 0 13 -14
27 -40 40 -23 12 -38 25 -35 30 9 15 35 12 41 -5 9 -24 24 -17 24 10 0 22 -4
25 -32 25 -18 -1 -38 -6 -43 -13z"/>
<path d="M2886 3131 c-14 -5 -16 -10 -8 -15 16 -9 15 -89 0 -104 -9 -9 12 -12
97 -12 85 0 106 3 97 12 -7 7 -12 33 -12 59 0 56 -12 67 -65 64 -58 -3 -59 -4
-46 -19 18 -21 10 -101 -9 -101 -11 0 -16 15 -18 63 -3 64 -4 66 -36 53z m144
-72 c0 -43 -3 -50 -17 -47 -14 2 -19 15 -21 51 -3 42 -1 47 17 47 18 0 21 -6
21 -51z"/>
<path d="M3176 3114 c-19 -20 -26 -37 -26 -66 0 -46 18 -57 63 -40 24 9 33 9
39 -1 5 -9 12 -9 25 -1 23 14 31 39 9 31 -23 -9 -20 12 9 55 29 43 30 48 11
48 -8 0 -17 -8 -21 -17 -6 -17 -7 -17 -16 0 -15 26 -62 21 -93 -9z m74 -23 c0
-20 -9 -36 -27 -51 -32 -25 -49 -21 -45 11 7 63 72 98 72 40z"/>
<path d="M13057 3129 c10 -10 -13 -103 -41 -170 -6 -13 1 -15 46 -14 77 2 122
27 137 74 14 49 -1 99 -36 112 -36 13 -120 12 -106 -2z m101 -21 c23 -23 14
-86 -15 -116 -26 -25 -63 -35 -78 -20 -4 3 3 38 15 77 18 61 24 71 43 71 13 0
28 -5 35 -12z"/>
<path d="M4233 3123 c-7 -2 -13 -18 -13 -34 0 -28 2 -30 33 -27 25 2 33 8 35
27 5 32 -21 48 -55 34z m45 -30 c2 -8 -5 -13 -17 -13 -12 0 -21 6 -21 16 0 18
31 15 38 -3z"/>
<path d="M2090 3017 c0 -21 12 -28 27 -16 19 16 16 29 -7 29 -11 0 -20 -6 -20
-13z"/>
<path d="M2961 2374 c-31 -16 -41 -32 -41 -67 0 -47 17 -67 55 -67 24 0 39 7
49 22 41 59 -6 142 -63 112z m44 -59 c4 -18 1 -37 -8 -49 -12 -17 -14 -17 -30
-1 -20 19 -22 57 -5 85 16 25 35 9 43 -35z"/>
<path d="M3256 2360 c-75 -66 -47 -153 35 -110 13 7 19 7 19 0 0 -19 39 -10
51 11 10 19 8 20 -10 14 -27 -8 -26 2 4 47 14 20 25 45 25 55 -1 16 -3 15 -19
-4 -23 -28 -27 -28 -34 -3 -7 28 -31 25 -71 -10z m64 -28 c0 -24 -41 -72 -61
-72 -23 0 -24 21 -4 60 26 50 64 57 65 12z"/>
<path d="M2807 2360 c-17 -13 -24 -28 -23 -47 4 -61 47 -89 97 -63 20 11 27
40 9 40 -5 0 -10 -4 -10 -10 0 -19 -38 -10 -52 13 -10 15 -13 29 -7 45 10 26
27 28 44 5 16 -21 38 -8 26 15 -13 24 -54 25 -84 2z"/>
<path d="M3086 2371 c-35 -13 -30 -49 9 -72 19 -12 35 -25 35 -30 0 -12 -37
-11 -45 1 -10 16 -22 12 -28 -10 -4 -15 0 -20 16 -21 89 -5 116 44 47 83 -16
9 -30 22 -30 28 0 17 28 11 39 -7 9 -17 10 -17 17 0 3 10 4 20 2 23 -10 9 -43
11 -62 5z"/>
<path d="M1944 2253 c-35 -7 -57 -39 -62 -91 -4 -45 -2 -50 32 -80 20 -18 45
-32 56 -32 29 0 65 19 79 42 20 31 4 34 -27 5 -27 -26 -30 -27 -59 -12 -38 19
-61 68 -43 90 7 8 9 15 4 15 -4 0 3 11 16 25 31 33 63 32 89 -2 l20 -28 1 31
c0 27 -4 32 -31 38 -33 6 -39 6 -75 -1z"/>
<path d="M3671 2168 c-12 -33 -2 -50 28 -46 22 2 26 8 26 33 0 39 -40 49 -54
13z m44 -8 c3 -6 -1 -13 -10 -16 -19 -8 -30 0 -20 15 8 14 22 14 30 1z"/>
<path d="M2755 2141 c-7 -13 104 -16 418 -13 169 2 266 6 262 12 -8 13 -672
13 -680 1z"/>
<path d="M2091 2091 c-17 -11 -7 -45 12 -39 13 5 23 48 10 48 -4 0 -14 -4 -22
-9z"/>
<path d="M3297 2023 c-14 -16 -97 -217 -97 -235 0 -19 21 -5 35 22 12 23 22
30 46 30 42 0 92 50 88 87 -2 16 5 40 14 54 10 14 15 34 11 43 -9 22 -76 22
-97 -1z m61 -15 c-2 -13 -13 -27 -25 -33 -27 -11 -29 -21 -8 -29 36 -13 1 -86
-41 -86 -22 0 -24 3 -18 28 12 48 44 117 61 130 25 18 35 15 31 -10z"/>
<path d="M2809 1984 c-16 -18 -20 -28 -11 -31 7 -3 12 -24 12 -58 0 -59 9 -72
40 -55 23 12 27 32 5 24 -12 -5 -15 4 -15 45 0 39 4 51 15 51 8 0 15 5 15 10
0 6 -7 10 -16 10 -10 0 -14 6 -10 15 9 23 -8 18 -35 -11z"/>
<path d="M2896 1964 c-9 -8 -16 -20 -16 -25 0 -15 22 -10 35 8 7 9 17 13 23 9
20 -12 14 -21 -23 -39 -26 -12 -35 -23 -35 -41 0 -28 24 -51 42 -40 7 4 41 7
77 6 50 -2 62 1 53 10 -18 18 -15 87 3 94 8 4 21 1 28 -4 17 -14 21 -71 6 -88
-9 -11 -7 -14 13 -14 21 0 24 5 26 41 2 22 0 49 -3 60 -9 27 -41 42 -64 29
-11 -5 -21 -6 -23 -1 -2 5 -14 4 -28 -1 -15 -6 -20 -12 -12 -15 7 -3 12 -24
11 -56 0 -29 -3 -46 -6 -39 -2 6 -9 10 -14 6 -5 -3 -9 17 -9 45 0 39 -4 53
-19 61 -27 14 -47 13 -65 -6z m52 -76 c-2 -13 -11 -24 -20 -26 -21 -4 -24 18
-6 36 19 19 30 14 26 -10z"/>
<path d="M2924 1299 c-8 -14 11 -33 25 -25 16 10 13 36 -3 36 -8 0 -18 -5 -22
-11z"/>
<path d="M3220 1220 c-29 -31 -41 -69 -33 -101 6 -21 61 -27 80 -8 8 8 13 8
17 0 11 -18 34 -13 47 10 10 19 8 20 -10 14 -28 -9 -27 -2 9 50 17 24 30 48
30 54 0 17 -18 13 -28 -5 -9 -16 -11 -16 -33 0 -33 23 -47 20 -79 -14z m68
-21 c4 -31 -32 -79 -59 -79 -22 0 -23 5 -8 51 20 59 61 76 67 28z"/>
<path d="M2802 1224 c-14 -26 -3 -53 29 -70 16 -8 29 -19 29 -24 0 -18 -22
-21 -40 -5 -23 21 -36 3 -14 -20 17 -17 58 -14 78 5 15 15 -2 56 -29 68 -14 6
-25 18 -25 27 0 20 17 19 29 -2 9 -17 10 -17 16 -1 4 9 4 22 0 28 -10 16 -63
12 -73 -6z"/>
<path d="M2910 1230 c0 -5 5 -10 10 -10 13 0 13 -76 0 -101 -10 -18 -7 -19 57
-18 37 0 62 3 56 6 -17 6 -17 85 -1 101 22 22 28 12 28 -48 l0 -60 31 0 c28 0
30 2 18 16 -7 9 -15 37 -17 62 -1 26 -8 50 -14 54 -10 5 -59 5 -88 -1 -3 -1
-3 -28 -2 -62 4 -55 2 -60 -15 -57 -15 3 -19 14 -21 66 -3 54 -6 62 -22 62
-11 0 -20 -4 -20 -10z"/>
<path d="M1870 1108 c0 -4 5 -8 10 -8 15 0 13 -157 -2 -167 -20 -12 72 -20
109 -9 43 12 72 45 79 88 5 29 1 41 -23 68 -28 31 -34 33 -101 34 -40 1 -72
-2 -72 -6z m143 -40 c39 -47 8 -118 -53 -121 l-35 -2 -3 69 c-2 49 1 72 10 78
19 12 60 0 81 -24z"/>
<path d="M3667 1043 c-29 -7 -19 -57 12 -61 32 -5 54 23 40 49 -10 19 -18 21
-52 12z m43 -28 c0 -8 -9 -15 -20 -15 -20 0 -26 11 -13 23 12 13 33 7 33 -8z"/>
<path d="M7275 1001 c8 -27 -22 -151 -43 -174 -17 -19 -15 -19 52 -15 52 3 72
9 82 23 16 22 19 79 4 70 -5 -3 -10 -1 -10 5 0 6 7 13 15 16 16 6 21 69 7 78
-4 2 -32 7 -61 11 -49 5 -52 4 -46 -14z m69 -7 c23 -9 20 -47 -5 -62 -20 -13
-20 -14 -3 -26 25 -19 12 -62 -22 -70 -15 -4 -29 -5 -32 -2 -5 5 37 166 44
166 1 0 9 -3 18 -6z"/>
<path d="M2740 994 c0 -14 14 -15 118 -10 64 3 217 5 340 6 141 0 222 4 222
10 0 6 -120 10 -340 10 -305 0 -340 -2 -340 -16z"/>
<path d="M2096 945 c-3 -9 1 -18 10 -22 19 -7 28 2 21 22 -8 19 -23 19 -31 0z"/>
<path d="M3285 880 c-16 -18 -95 -210 -95 -232 0 -21 22 -5 35 26 12 28 18 33
40 28 53 -10 105 47 92 99 -3 12 0 28 9 36 8 8 14 25 14 39 0 21 -4 24 -38 24
-26 0 -45 -7 -57 -20z m63 -17 c-2 -10 -13 -22 -26 -28 -26 -11 -28 -21 -7
-29 19 -7 19 -36 -1 -64 -15 -22 -48 -30 -58 -13 -6 10 30 117 47 139 15 19
49 15 45 -5z"/>
<path d="M2793 844 c-17 -19 -19 -26 -9 -30 10 -4 14 -21 12 -55 -2 -65 5 -76
38 -61 29 13 35 30 9 28 -14 -1 -17 6 -14 39 1 22 10 45 19 52 16 11 16 12 0
13 -11 0 -18 8 -18 20 0 27 -10 25 -37 -6z"/>
<path d="M2898 833 c-20 -5 -32 -33 -19 -46 6 -6 13 -1 20 12 7 12 17 18 26
15 23 -9 18 -19 -20 -37 -26 -12 -35 -23 -35 -41 0 -32 23 -50 48 -37 10 5 23
7 28 3 5 -4 32 -5 59 -1 28 3 44 7 38 7 -19 3 -17 91 2 98 34 14 52 -37 30
-88 -6 -15 -2 -18 26 -18 24 0 30 3 20 9 -15 9 -23 62 -10 71 3 3 3 15 -2 27
-7 19 -15 22 -64 22 -30 -1 -58 -5 -61 -10 -3 -5 0 -9 5 -9 7 0 11 -22 10 -52
0 -29 -3 -47 -6 -40 -2 6 -9 10 -14 6 -5 -3 -9 17 -9 45 0 39 -4 53 -19 61
-20 10 -25 11 -53 3z m40 -85 c-2 -13 -11 -24 -20 -26 -21 -4 -24 18 -6 36 19
19 30 14 26 -10z"/>
<path d="M11630 742 c-35 -48 -69 -90 -75 -94 -6 -5 -5 -11 4 -17 16 -11 43
-3 36 10 -10 15 19 49 42 49 16 0 23 -6 23 -20 0 -11 -5 -20 -11 -20 -6 0 -9
-5 -7 -12 3 -7 17 -12 33 -12 16 0 30 5 33 12 2 7 -2 12 -8 12 -8 0 -10 24 -4
90 3 50 5 90 3 90 -2 0 -33 -39 -69 -88z m31 -25 c-17 -17 -24 -1 -9 22 11 18
14 19 16 5 2 -9 -1 -21 -7 -27z"/>
</g>
</svg>
