<?xml version="1.0" standalone="no"?>
<!DOCTYPE svg PUBLIC "-//W3C//DTD SVG 20010904//EN"
 "http://www.w3.org/TR/2001/REC-SVG-20010904/DTD/svg10.dtd">
<svg version="1.0" xmlns="http://www.w3.org/2000/svg"
 width="1059.000000pt" height="830.000000pt" viewBox="0 0 1059.000000 830.000000"
 preserveAspectRatio="xMidYMid meet">
<metadata>
Created by potrace 1.16, written by Peter Selinger 2001-2019
</metadata>
<g transform="translate(0.000000,830.000000) scale(0.100000,-0.100000)"
fill="#000000" stroke="none">
<path d="M5850 8139 c0 -5 5 -7 11 -3 10 6 28 -11 29 -28 0 -3 -12 -20 -26
-37 l-26 -31 36 0 c20 0 36 4 36 9 0 5 -9 7 -20 4 l-21 -6 21 35 c11 20 18 43
14 52 -7 18 -54 23 -54 5z"/>
<path d="M883 8124 c-3 -8 -12 -13 -19 -10 -7 3 -16 1 -19 -4 -4 -6 5 -10 19
-10 13 0 26 -6 28 -12 3 -9 9 -8 22 5 15 15 16 19 2 32 -19 19 -25 19 -33 -1z"/>
<path d="M963 8121 c-10 -15 -9 -22 2 -31 9 -7 15 -8 20 0 3 5 20 10 37 10 26
0 29 2 18 15 -9 11 -17 12 -31 5 -15 -8 -17 -7 -13 5 9 22 -19 19 -33 -4z"/>
<path d="M3699 8118 c-6 -66 -5 -77 2 -72 5 3 9 1 9 -4 0 -5 -16 -17 -35 -28
-38 -20 -45 -33 -18 -30 14 1 17 -6 15 -34 l-3 -36 60 1 c34 0 62 5 64 10 2 6
3 28 3 50 l-1 40 -45 -3 c-43 -3 -44 -3 -28 14 11 11 31 17 58 16 23 -1 40 3
40 9 0 7 -10 9 -25 5 -30 -8 -32 1 -4 30 17 18 18 22 5 27 -8 3 -17 0 -20 -8
-3 -8 -13 -11 -25 -8 -13 3 -21 1 -21 -6 0 -7 4 -10 9 -6 16 9 22 -12 6 -25
-22 -18 -34 -3 -28 35 4 23 2 35 -6 35 -6 0 -11 -6 -12 -12z m76 -128 c4 -6
-12 -10 -39 -10 -25 0 -46 5 -46 10 0 6 18 10 39 10 22 0 43 -4 46 -10z m-1
-45 c-1 -13 -30 -18 -60 -11 -40 11 -27 27 19 24 23 -2 42 -7 41 -13z"/>
<path d="M4203 8110 c-5 -19 -12 -21 -44 -18 -22 2 -39 0 -39 -4 0 -5 18 -8
40 -8 51 0 53 -17 3 -23 l-38 -4 38 -1 c50 -3 47 -19 -4 -20 -23 -1 -44 -3
-47 -6 -3 -3 14 -6 38 -6 l43 0 -39 -31 c-22 -17 -41 -32 -43 -35 -2 -2 11 1
29 6 30 9 32 8 26 -14 -8 -31 0 -36 35 -24 35 12 38 27 4 20 -21 -4 -25 -1
-25 21 0 31 33 57 74 57 28 0 29 0 11 -20 -10 -11 -13 -20 -7 -20 12 0 62 43
62 53 0 4 -22 4 -50 1 -31 -3 -50 -1 -50 6 0 5 16 10 35 10 19 0 35 5 35 11 0
7 -12 9 -35 5 -22 -4 -35 -3 -35 4 0 5 21 10 46 10 26 0 43 4 39 10 -3 5 -24
7 -47 4 -35 -5 -40 -4 -35 10 3 8 2 18 -4 22 -6 3 -13 -4 -16 -16z"/>
<path d="M212 8109 c-19 -7 -23 -15 -20 -46 2 -28 9 -41 26 -48 29 -13 28 -19
-5 -46 l-28 -21 25 7 c62 17 94 110 52 148 -21 19 -19 19 -50 6z m41 -30 c6
-24 -1 -49 -14 -49 -13 0 -27 31 -22 51 7 25 29 24 36 -2z"/>
<path d="M2618 8042 c-2 -40 1 -77 5 -81 4 -4 1 -14 -8 -21 -8 -7 -15 -17 -15
-23 0 -6 15 4 34 22 25 24 40 31 54 27 19 -6 20 -2 21 71 l0 79 -44 -1 -44 0
-3 -73z m72 43 c0 -10 -10 -15 -30 -15 -20 0 -30 5 -30 15 0 10 10 15 30 15
20 0 30 -5 30 -15z m-2 -42 c2 -9 -7 -13 -27 -13 -21 0 -31 5 -31 16 0 19 51
16 58 -3z m2 -43 c0 -5 -13 -10 -30 -10 -16 0 -30 5 -30 10 0 6 14 10 30 10
17 0 30 -4 30 -10z"/>
<path d="M2790 8031 c0 -50 -5 -93 -10 -96 -6 -4 -8 -11 -4 -16 4 -6 11 -6 20
2 17 14 21 199 4 199 -6 0 -10 -36 -10 -89z"/>
<path d="M3290 8030 c0 -85 -1 -91 -22 -99 l-23 -8 23 -7 c13 -5 26 -6 28 -3
10 9 12 207 3 207 -5 0 -9 -41 -9 -90z"/>
<path d="M3390 8098 c-1 -13 -7 -34 -15 -48 -16 -28 -20 -54 -5 -30 7 11 10
-5 10 -52 0 -42 4 -68 11 -68 7 0 9 23 6 69 -3 39 -2 73 2 76 3 4 6 12 6 18 0
16 5 17 70 17 l56 0 -3 -72 c-3 -67 -5 -73 -28 -79 -14 -4 -20 -8 -15 -8 6 -1
20 -4 33 -7 22 -6 22 -5 22 79 0 47 5 89 10 92 24 15 5 20 -60 17 -47 -3 -70
-1 -70 7 0 6 -7 11 -15 11 -9 0 -15 -9 -15 -22z"/>
<path d="M4040 8110 c0 -5 -8 -10 -17 -10 -14 0 -15 -2 -5 -9 10 -6 13 -28 10
-82 -3 -68 -5 -74 -25 -74 -24 -1 -45 -15 -22 -15 8 0 24 -3 37 -6 22 -6 22
-5 22 85 0 72 3 93 15 97 8 4 12 10 9 15 -7 12 -24 11 -24 -1z"/>
<path d="M1390 8100 c-11 -7 -12 -10 -2 -10 10 0 13 -17 10 -70 -3 -66 -2 -70
19 -70 19 0 21 4 14 28 -4 15 -6 51 -4 80 5 54 -4 64 -37 42z"/>
<path d="M2064 8102 c-6 -4 -16 -23 -23 -44 -17 -51 6 -108 44 -108 32 0 49
38 42 93 -8 56 -33 80 -63 59z m41 -43 c9 -40 -2 -99 -19 -99 -24 0 -34 68
-16 115 12 32 26 25 35 -16z"/>
<path d="M3030 8100 c0 -5 6 -10 14 -10 8 0 18 5 21 10 3 6 -3 10 -14 10 -12
0 -21 -4 -21 -10z"/>
<path d="M3110 8100 c0 -6 7 -10 15 -10 8 0 15 2 15 4 0 2 -7 6 -15 10 -8 3
-15 1 -15 -4z"/>
<path d="M3178 8103 c-16 -2 -28 -10 -28 -16 0 -7 -9 -29 -20 -50 -23 -42 -26
-59 -7 -32 13 17 15 17 30 -5 18 -26 10 -53 -24 -71 -11 -6 -18 -13 -16 -16
18 -17 83 63 102 125 6 19 3 22 -24 22 -21 0 -31 5 -31 15 0 10 11 15 35 15
19 0 35 5 35 10 0 10 -3 10 -52 3z m17 -63 c4 -6 1 -17 -5 -26 -14 -16 -40 -2
-40 22 0 16 36 19 45 4z"/>
<path d="M3868 8103 c7 -3 16 -2 19 1 4 3 -2 6 -13 5 -11 0 -14 -3 -6 -6z"/>
<path d="M4380 8099 c0 -5 26 -9 57 -9 31 0 54 3 50 6 -10 10 -107 13 -107 3z"/>
<path d="M4500 8100 c0 -5 9 -10 20 -10 11 0 20 5 20 10 0 6 -9 10 -20 10 -11
0 -20 -4 -20 -10z"/>
<path d="M6485 8090 c-3 -11 -11 -20 -16 -20 -5 0 -9 -33 -9 -72 l0 -73 35 0
c34 0 35 1 35 38 0 54 34 97 77 97 l34 0 -7 -62 c-8 -75 -11 -81 -35 -75 -11
3 -19 1 -19 -3 0 -13 41 -23 51 -13 11 11 33 153 24 161 -3 4 -22 5 -42 3 -32
-2 -35 -1 -30 19 3 13 1 20 -6 17 -6 -2 -15 -18 -19 -35 -5 -18 -13 -32 -18
-32 -5 0 -7 7 -4 15 4 9 0 15 -8 15 -10 0 -13 -9 -10 -30 4 -27 1 -30 -22 -30
-19 0 -26 5 -26 20 0 10 6 23 14 27 17 10 31 53 17 53 -5 0 -13 -9 -16 -20z
m30 -120 c0 -16 -6 -26 -18 -28 -19 -4 -32 20 -23 44 9 25 41 13 41 -16z"/>
<path d="M6718 8005 l3 -100 90 0 89 0 0 93 c0 50 -1 95 -2 98 -2 3 -43 6 -93
7 l-90 2 3 -100z m45 49 c3 -18 0 -24 -14 -24 -14 0 -19 7 -19 30 0 36 25 32
33 -6z m67 10 c0 -8 -10 -14 -25 -14 -23 0 -34 18 -19 32 10 10 44 -4 44 -18z
m60 -7 c0 -20 -5 -23 -42 -23 -24 -1 -33 1 -20 3 14 3 22 12 22 24 0 12 7 19
20 19 14 0 20 -7 20 -23z m-140 -87 c0 -21 -4 -42 -10 -45 -6 -4 -10 13 -10
45 0 32 4 49 10 45 6 -3 10 -24 10 -45z m83 43 c-13 -2 -35 -2 -50 0 -16 2 -5
4 22 4 28 0 40 -2 28 -4z m55 -40 c-4 -68 -30 -72 -27 -4 2 35 7 51 16 51 10
0 13 -12 11 -47z m-40 0 c-2 -23 -8 -28 -33 -30 -19 -1 -22 0 -10 4 20 5 35
21 35 36 0 4 -13 7 -30 7 -23 0 -30 -4 -30 -20 0 -11 -4 -20 -10 -20 -5 0 -10
11 -10 25 0 23 4 25 46 25 44 0 45 -1 42 -27z m-28 -3 c0 -5 -7 -10 -15 -10
-8 0 -15 5 -15 10 0 6 7 10 15 10 8 0 15 -4 15 -10z m3 -47 c-13 -2 -33 -2
-45 0 -13 2 -3 4 22 4 25 0 35 -2 23 -4z"/>
<path d="M6974 8063 c-11 -27 -21 -52 -23 -57 -2 -5 1 -6 8 -2 8 5 11 -11 11
-53 0 -66 17 -84 22 -25 2 30 9 38 36 49 17 8 32 12 32 9 0 -2 -15 -13 -32
-24 -39 -24 -31 -26 20 -5 l37 15 -25 -20 c-14 -11 -33 -20 -42 -20 -10 0 -18
-4 -18 -10 0 -13 4 -13 45 4 30 13 35 13 35 1 0 -9 -6 -12 -15 -9 -8 4 -15 1
-15 -5 0 -19 38 -12 45 9 6 18 8 19 30 4 13 -8 26 -11 29 -6 3 5 -7 15 -22 21
l-26 13 24 19 c24 18 25 19 3 19 -12 0 -23 -5 -25 -12 -6 -16 -28 -1 -28 19 0
12 7 14 35 10 33 -5 35 -4 35 24 0 25 -4 29 -27 29 -24 -1 -25 -2 -10 -11 25
-14 21 -29 -8 -29 -29 0 -31 8 -10 36 19 25 19 34 -3 34 -10 0 -23 5 -29 11
-7 7 -17 2 -32 -20 -27 -38 -44 -41 -31 -5 12 31 12 34 1 34 -4 0 -17 -21 -27
-47z m98 -15 c-6 -27 -47 -68 -68 -68 -16 0 -20 45 -4 55 6 3 10 -3 10 -14 0
-12 5 -21 10 -21 6 0 10 13 10 28 0 33 7 42 31 42 13 0 16 -6 11 -22z"/>
<path d="M2740 8030 c0 -91 17 -91 22 0 2 51 0 70 -9 70 -9 0 -13 -21 -13 -70z"/>
<path d="M2948 8005 c4 -103 21 -134 20 -35 -1 33 2 63 5 67 4 3 18 -4 32 -17
14 -13 28 -20 32 -16 9 8 -36 45 -54 46 -7 0 -13 11 -13 25 0 14 -6 25 -12 25
-10 0 -12 -24 -10 -95z"/>
<path d="M3240 8030 c0 -40 4 -70 10 -70 6 0 10 24 10 54 0 30 3 61 6 70 4 11
1 16 -10 16 -13 0 -16 -12 -16 -70z"/>
<path d="M3638 8093 c6 -2 18 -2 25 0 6 3 1 5 -13 5 -14 0 -19 -2 -12 -5z"/>
<path d="M5165 8072 c-30 -40 -28 -122 4 -156 30 -32 36 -28 16 10 -19 37 -19
107 0 144 19 37 7 38 -20 2z"/>
<path d="M5698 8094 c-3 -3 -2 -22 3 -42 4 -20 6 -54 2 -74 -5 -33 -3 -38 13
-38 17 0 19 7 16 80 -3 56 -7 80 -16 80 -7 0 -15 -2 -18 -6z"/>
<path d="M5775 8080 c29 -32 32 -112 6 -155 -13 -22 -16 -35 -9 -33 20 6 48
69 48 108 0 38 -32 100 -51 100 -7 0 -5 -8 6 -20z"/>
<path d="M7267 8082 c-21 -23 -22 -42 -1 -42 10 0 14 6 11 14 -3 8 1 20 9 27
12 10 18 9 31 -4 16 -15 15 -19 -5 -56 -12 -21 -22 -45 -22 -52 0 -9 5 -7 11
5 6 10 20 27 30 37 22 22 25 59 7 77 -18 18 -53 15 -71 -6z"/>
<path d="M915 8070 c-5 -15 -16 -20 -43 -21 l-37 -2 33 -6 34 -6 -31 -39 c-17
-21 -31 -40 -31 -42 0 -9 11 -2 30 18 l20 22 0 -35 0 -34 65 3 65 4 0 38 0 38
-40 -5 c-48 -7 -72 1 -64 22 5 11 22 15 71 15 35 0 62 4 59 8 -3 5 -30 7 -61
4 -47 -4 -54 -2 -49 11 3 8 1 18 -5 21 -5 4 -12 -3 -16 -14z m85 -103 c0 -20
-5 -23 -42 -22 -37 0 -43 3 -46 23 -3 20 1 22 42 22 41 0 46 -2 46 -23z"/>
<path d="M1558 8047 c-56 -26 -60 -40 -18 -62 59 -31 80 -36 80 -20 0 8 -6 15
-13 15 -21 0 -67 24 -64 34 2 5 18 14 37 20 18 6 35 17 38 24 5 17 -6 15 -60
-11z"/>
<path d="M3901 8010 c0 -30 3 -49 6 -42 2 6 22 12 42 12 l38 0 -2 41 c-2 42
-2 42 -43 43 l-42 1 1 -55z m67 13 c-2 -22 -8 -28 -28 -28 -20 0 -26 6 -28 28
-3 24 0 27 28 27 28 0 31 -3 28 -27z"/>
<path d="M1921 8044 c-65 -28 -67 -34 -14 -65 26 -16 55 -29 63 -29 20 0 2 16
-45 39 -35 17 -38 20 -20 27 11 4 34 16 50 26 36 22 14 23 -34 2z"/>
<path d="M3430 8010 l0 -46 35 4 c34 4 35 6 35 46 0 42 0 42 -35 42 -35 -1
-35 -1 -35 -46z m50 5 c0 -18 -5 -25 -20 -25 -15 0 -20 7 -20 25 0 18 5 25 20
25 15 0 20 -7 20 -25z"/>
<path d="M3628 8053 c12 -2 30 -2 40 0 9 3 -1 5 -23 4 -22 0 -30 -2 -17 -4z"/>
<path d="M4450 8050 c-63 -4 -77 -7 -42 -8 l52 -2 0 -65 c0 -40 4 -65 11 -65
6 0 10 16 8 38 -5 89 -4 92 46 92 25 0 45 5 45 10 0 6 -6 9 -12 8 -7 -1 -56
-5 -108 -8z"/>
<path d="M5569 8035 c-3 -26 -8 -30 -31 -27 -16 2 -28 -1 -28 -7 0 -6 14 -11
30 -11 27 0 30 -2 24 -25 -4 -15 -2 -25 5 -25 6 0 11 13 11 29 0 25 3 28 25
23 15 -2 25 0 25 7 0 6 -11 11 -24 11 -19 0 -25 6 -28 28 l-4 27 -5 -30z"/>
<path d="M6051 8038 c-1 -24 -5 -28 -31 -28 -16 0 -30 -4 -30 -10 0 -5 14 -10
31 -10 17 0 28 -4 24 -10 -3 -5 -1 -18 4 -27 9 -16 10 -14 11 10 0 23 4 27 30
27 17 0 30 5 30 10 0 6 -13 10 -29 10 -25 0 -30 5 -34 28 l-4 27 -2 -27z"/>
<path d="M1706 8025 c-9 -13 -16 -36 -16 -49 0 -23 3 -25 45 -24 25 0 48 4 51
9 3 5 1 9 -5 9 -7 0 -7 8 -1 26 14 35 12 54 -4 54 -9 0 -12 -7 -9 -18 2 -10
-7 -30 -21 -47 -21 -24 -26 -26 -31 -13 -7 17 10 58 29 70 7 5 5 8 -5 8 -9 0
-24 -11 -33 -25z"/>
<path d="M2352 8020 c1 -37 22 -34 26 3 2 19 -1 27 -12 27 -10 0 -14 -10 -14
-30z"/>
<path d="M4805 8039 c-11 -4 -15 -8 -8 -8 17 -1 29 -89 14 -104 -7 -7 -17 -12
-23 -12 -6 0 -13 -6 -15 -12 -8 -23 23 -14 49 15 53 56 86 132 57 132 -6 0 -9
-8 -6 -19 2 -10 -4 -29 -14 -42 l-19 -24 0 30 c0 41 -11 54 -35 44z"/>
<path d="M5270 8042 c-16 -5 -41 -35 -52 -63 -11 -28 6 -39 53 -36 35 3 43 7
41 20 -2 10 1 32 6 51 9 30 8 33 -12 33 -11 0 -28 -2 -36 -5z m24 -46 c-6 -25
-40 -53 -51 -42 -9 9 6 53 23 71 22 21 37 6 28 -29z"/>
<path d="M5367 8044 c-3 -4 0 -13 8 -21 20 -20 19 -39 -5 -63 -15 -15 -16 -20
-6 -20 8 0 18 5 22 11 4 8 9 8 17 0 14 -14 37 -14 37 0 0 5 -4 8 -9 5 -12 -8
-23 23 -16 45 4 11 15 19 26 19 10 0 19 5 19 10 0 14 -37 13 -46 -1 -5 -8 -10
-6 -16 5 -9 17 -20 20 -31 10z"/>
<path d="M6219 8042 c-21 -4 -54 -65 -46 -85 9 -23 96 -21 95 2 -1 9 2 30 6
47 6 28 4 32 -16 36 -13 2 -30 2 -39 0z m31 -31 c0 -26 -34 -66 -48 -57 -18
11 -15 30 9 60 22 28 39 27 39 -3z"/>
<path d="M4960 8031 c0 -9 84 -19 114 -13 9 2 14 8 11 13 -8 12 -125 12 -125
0z"/>
<path d="M1235 8010 c3 -5 31 -10 61 -10 30 0 54 5 54 10 0 6 -27 10 -61 10
-37 0 -58 -4 -54 -10z"/>
<path d="M6580 8001 c5 -11 15 -23 20 -26 14 -9 12 19 -2 33 -19 19 -30 14
-18 -7z"/>
<path d="M4220 8007 c0 -28 62 -97 88 -97 19 0 14 18 -8 25 -11 3 -33 23 -50
43 -16 20 -30 33 -30 29z"/>
<path d="M4385 7974 c-16 -20 -22 -35 -15 -32 18 6 65 68 52 68 -5 0 -22 -16
-37 -36z"/>
<path d="M4531 7975 c20 -33 39 -46 39 -26 0 12 -40 61 -50 61 -5 0 0 -16 11
-35z"/>
<path d="M3615 7990 c-3 -5 -1 -10 4 -10 6 0 11 5 11 10 0 6 -2 10 -4 10 -3 0
-8 -4 -11 -10z"/>
<path d="M4964 7991 c-13 -13 3 -18 56 -17 33 0 60 4 60 7 0 8 -109 17 -116
10z"/>
<path d="M310 7965 c0 -9 5 -15 10 -13 12 4 11 16 -1 24 -5 3 -9 -2 -9 -11z"/>
<path d="M2680 7952 c0 -10 21 -32 32 -32 16 0 8 19 -12 30 -11 6 -20 7 -20 2z"/>
<path d="M7285 7931 c-6 -11 9 -23 19 -14 9 9 7 23 -3 23 -6 0 -12 -4 -16 -9z"/>
<path d="M886 7468 c-11 -24 -27 -60 -36 -80 l-18 -38 26 0 c20 0 23 3 13 9
-12 8 -12 12 -2 25 8 9 22 16 32 16 23 0 45 -36 26 -43 -6 -3 2 -6 20 -6 l32
-1 -30 65 c-16 35 -29 71 -29 80 0 28 -16 15 -34 -27z m33 -50 c1 -5 -6 -8
-14 -8 -16 0 -19 9 -8 36 6 16 7 16 14 -2 4 -10 8 -22 8 -26z"/>
<path d="M6125 7416 l0 -86 37 0 c57 0 88 15 88 44 0 14 -4 27 -9 31 -5 3 -7
20 -4 39 6 39 3 42 -62 50 l-50 7 0 -85z m85 49 c16 -19 -3 -45 -31 -45 -14 0
-19 7 -19 30 0 23 5 30 19 30 10 0 24 -7 31 -15z m-6 -61 c22 -9 20 -41 -4
-54 -27 -15 -40 -5 -40 31 0 29 12 35 44 23z"/>
<path d="M1010 7360 c0 -5 5 -10 10 -10 6 0 10 5 10 10 0 6 -4 10 -10 10 -5 0
-10 -4 -10 -10z"/>
<path d="M6285 7340 c3 -5 10 -10 16 -10 5 0 9 5 9 10 0 6 -7 10 -16 10 -8 0
-12 -4 -9 -10z"/>
<path d="M7157 7332 c6 -4 13 -30 15 -57 3 -44 0 -51 -19 -60 -13 -5 -23 -15
-23 -22 0 -21 14 -15 49 21 26 27 31 38 23 52 -11 21 -12 25 -12 54 0 14 -7
20 -22 20 -14 0 -18 -3 -11 -8z"/>
<path d="M7230 7316 c0 -14 -4 -28 -10 -31 -5 -3 -10 -12 -10 -18 1 -7 10 -1
20 12 21 25 27 61 10 61 -5 0 -10 -11 -10 -24z"/>
<path d="M1855 7306 c24 -36 16 -97 -13 -112 -17 -8 -20 -14 -11 -19 8 -5 21
3 37 21 13 16 35 41 48 56 32 37 42 78 19 78 -11 0 -15 -6 -11 -17 3 -10 -3
-29 -14 -43 l-20 -25 0 43 c0 38 -2 42 -25 42 -25 0 -25 -1 -10 -24z"/>
<path d="M7313 7268 c-19 -32 -73 -147 -73 -154 0 -2 5 -4 11 -4 5 0 21 25 35
55 14 30 30 57 35 60 5 4 9 -128 9 -341 l0 -347 -82 6 c-46 4 -127 7 -181 7
-69 0 -99 4 -101 13 -33 107 -73 236 -91 292 -13 39 -29 94 -36 123 -7 28 -16
52 -21 52 -11 0 -10 -34 1 -62 5 -13 26 -79 46 -148 20 -69 47 -156 60 -195
13 -38 21 -72 19 -74 -3 -3 -93 -4 -200 -2 -159 2 -195 0 -192 -11 5 -14 32
-16 259 -17 l145 -1 28 -92 c84 -275 164 -495 292 -802 l54 -128 0 -650 c-1
-358 2 -653 5 -656 4 -5 6 296 7 1078 0 182 0 184 18 160 11 -14 27 -45 36
-70 22 -57 123 -250 183 -349 113 -186 214 -318 320 -421 112 -107 157 -137
265 -174 88 -31 214 -37 284 -15 104 33 131 44 177 75 155 104 346 350 522
674 86 158 191 376 224 466 12 33 25 64 29 69 8 9 40 90 111 275 47 124 158
458 176 528 3 12 10 22 17 22 276 7 306 5 283 -12 -12 -10 -41 -26 -64 -35
-24 -10 -43 -24 -43 -31 0 -16 -7 -19 103 38 48 25 86 50 84 55 -4 12 -156 94
-174 95 -29 0 -9 -18 55 -50 l67 -35 -145 -3 c-79 -1 -149 -1 -156 2 -7 3 0
38 23 113 19 59 39 117 44 128 9 21 57 183 66 223 3 12 1 22 -4 22 -4 0 -26
-55 -47 -122 -21 -68 -57 -178 -79 -246 l-40 -123 -1161 6 c-638 3 -1161 7
-1163 9 -6 6 -4 678 2 684 3 3 17 -22 32 -56 15 -34 34 -62 41 -62 9 0 8 10
-6 38 -10 20 -31 63 -47 95 -15 31 -32 57 -36 57 -4 0 -16 -15 -26 -32z m17
-1218 c0 -279 -4 -470 -9 -470 -5 0 -17 24 -27 53 -9 28 -25 69 -35 89 -20 38
-38 85 -114 293 -24 66 -50 138 -59 160 -8 22 -22 65 -31 95 -9 30 -20 64 -25
75 -4 11 -17 55 -28 98 l-20 77 174 0 174 0 0 -470z m2340 459 c0 -11 -98
-312 -148 -454 -108 -308 -311 -761 -425 -950 -16 -27 -39 -68 -51 -90 -63
-122 -266 -381 -363 -464 -104 -89 -200 -131 -317 -138 -181 -11 -292 38 -462
202 -65 63 -245 296 -279 362 -11 21 -32 56 -46 78 -39 60 -179 325 -179 340
0 3 -14 34 -31 70 l-30 65 5 462 c3 255 5 478 6 496 l0 34 1160 -4 c638 -2
1160 -6 1160 -9z"/>
<path d="M7172 6455 c-59 -26 -80 -133 -28 -143 16 -4 16 -2 2 20 -14 21 -13
27 4 65 23 51 55 72 77 50 22 -21 9 -78 -24 -111 -17 -17 -21 -26 -11 -26 22
0 65 51 73 87 5 25 2 36 -14 52 -24 24 -35 25 -79 6z"/>
<path d="M1981 7201 c-24 -49 -41 -95 -38 -102 2 -8 21 19 41 61 l35 75 -2
-340 -2 -340 -382 4 c-277 2 -383 0 -383 -8 0 -7 41 -11 128 -12 70 -1 134 -2
142 -3 8 -2 124 -3 258 -4 l242 -2 0 -309 c0 -327 -1 -332 -52 -441 -33 -71
-105 -254 -154 -390 -25 -69 -54 -147 -64 -175 -18 -49 -26 -73 -76 -230 -50
-157 -76 -241 -104 -335 -15 -52 -37 -126 -49 -165 -22 -72 -27 -116 -13 -99
10 11 42 114 159 509 13 44 27 89 33 100 5 11 18 49 29 85 34 110 70 213 86
247 8 17 15 36 15 43 0 13 72 199 107 277 12 28 23 55 23 60 0 4 14 35 30 68
l30 60 -2 -828 c-2 -548 0 -826 7 -824 7 3 12 305 15 868 l5 864 43 90 c24 50
47 97 53 105 5 8 13 24 18 36 21 48 128 235 175 307 l51 77 635 -2 634 -3 43
-60 c23 -33 52 -80 64 -105 13 -25 28 -52 35 -60 17 -21 116 -217 165 -325 23
-49 56 -121 74 -160 32 -67 118 -278 183 -450 17 -44 57 -165 90 -270 33 -104
82 -257 108 -340 27 -82 49 -152 49 -155 1 -3 6 -21 12 -40 6 -19 22 -70 34
-112 13 -43 27 -78 32 -78 13 0 8 24 -29 141 -103 332 -142 453 -206 654 -39
121 -74 225 -78 230 -4 6 -15 33 -24 60 -35 96 -80 210 -92 230 -6 11 -17 38
-24 60 -7 22 -16 45 -20 50 -5 6 -16 30 -26 55 -9 25 -22 52 -29 60 -6 8 -22
40 -34 70 -22 54 -64 140 -81 170 -5 8 -20 38 -33 65 -27 58 -96 177 -143 250
-18 28 -29 52 -26 55 4 3 239 3 522 0 283 -3 509 -7 502 -8 -48 -8 -169 -82
-134 -82 20 0 193 93 190 102 -4 10 -164 97 -180 98 -5 0 -8 -4 -8 -10 0 -5
28 -23 62 -40 35 -17 64 -33 66 -34 2 -3 -169 -2 -844 3 l-202 1 -68 93 c-70
94 -189 220 -257 270 -93 70 -215 102 -359 95 -150 -7 -266 -67 -406 -207 -96
-97 -128 -134 -172 -199 l-35 -51 -163 -1 c-122 0 -164 3 -167 13 -3 6 -4 161
-3 342 l3 330 34 -72 c31 -65 51 -90 51 -64 0 21 -84 191 -95 191 -5 0 -30
-40 -54 -89z m1157 -222 c68 -14 112 -32 178 -74 63 -41 206 -184 254 -255 19
-29 43 -59 53 -68 9 -9 17 -20 17 -24 0 -5 -277 -8 -615 -8 -338 0 -615 4
-615 8 0 14 128 168 192 232 100 99 199 160 308 188 80 21 129 21 228 1z
m-788 -455 c0 -3 -25 -45 -57 -92 -31 -48 -100 -175 -154 -282 l-99 -195 0
288 0 287 155 0 c85 0 155 -3 155 -6z"/>
<path d="M1827 6434 c-62 -72 -21 -162 59 -125 63 28 89 151 32 151 -17 0 -18
-3 -8 -15 28 -34 -25 -144 -63 -130 -37 15 -30 82 13 125 15 15 17 20 5 20 -8
0 -25 -12 -38 -26z"/>
<path d="M4755 6386 c13 -19 14 -29 5 -45 -6 -12 -17 -21 -25 -21 -8 0 -15 -4
-15 -10 0 -16 30 -12 36 5 8 20 24 19 24 -1 0 -23 34 -13 38 11 2 15 1 16 -6
7 -7 -11 -11 -8 -16 10 -4 16 0 28 15 41 12 10 19 20 16 24 -4 3 -14 0 -22 -7
-12 -10 -19 -10 -27 -2 -7 7 -18 12 -25 12 -10 0 -10 -6 2 -24z"/>
<path d="M10045 6373 c13 -25 12 -29 -7 -50 -12 -13 -18 -26 -14 -30 4 -5 14
1 22 12 14 19 16 19 25 2 8 -14 14 -16 25 -6 15 13 20 34 5 24 -5 -3 -12 -1
-16 5 -10 16 5 50 21 50 8 0 14 5 14 10 0 14 -23 13 -38 -2 -9 -9 -12 -9 -12
0 0 7 -9 12 -19 12 -18 0 -19 -2 -6 -27z"/>
<path d="M840 3678 c-11 -18 -20 -40 -20 -49 0 -25 37 -66 66 -73 28 -7 74 15
74 36 0 6 -8 4 -18 -5 -38 -34 -92 -6 -92 48 0 30 28 65 51 65 12 0 29 -10 39
-22 l18 -23 -5 28 c-5 25 -9 27 -49 27 -39 0 -47 -4 -64 -32z"/>
<path d="M6112 3690 c13 -8 16 -23 14 -71 -2 -38 -8 -65 -17 -71 -9 -6 7 -8
49 -5 72 4 90 17 99 69 4 30 1 41 -20 62 -22 22 -35 26 -84 26 -43 -1 -54 -3
-41 -10z m100 -22 c42 -32 11 -118 -42 -118 -18 0 -20 7 -20 65 0 61 1 65 23
65 13 0 30 -6 39 -12z"/>
<path d="M982 3568 c6 -18 28 -21 28 -4 0 9 -7 16 -16 16 -9 0 -14 -5 -12 -12z"/>
<path d="M6285 3550 c3 -5 10 -10 16 -10 5 0 9 5 9 10 0 6 -7 10 -16 10 -8 0
-12 -4 -9 -10z"/>
<path d="M1841 3521 c-8 -5 -9 -11 -3 -15 16 -9 24 -74 12 -96 -6 -11 -17 -20
-25 -20 -8 0 -15 -4 -15 -10 0 -26 34 -5 75 48 43 54 57 92 35 92 -5 0 -10 -8
-10 -18 0 -10 -6 -27 -14 -37 -13 -17 -14 -16 -21 23 -7 44 -11 47 -34 33z"/>
<path d="M7147 3512 c-16 -3 -16 -5 -4 -15 22 -18 29 -84 11 -102 -9 -8 -23
-15 -32 -15 -12 0 -13 -3 -5 -11 15 -15 27 -7 73 53 26 32 40 59 39 76 -1 24
-2 23 -9 -7 -12 -50 -34 -59 -41 -16 -7 41 -8 43 -32 37z"/>
<path d="M1969 3398 c-24 -51 -45 -96 -47 -100 -2 -5 1 -8 7 -8 6 0 26 30 45
68 l35 67 1 -668 c0 -654 0 -669 -21 -710 -21 -45 -127 -299 -148 -357 -7 -19
-17 -44 -22 -55 -10 -22 -52 -143 -76 -215 -8 -25 -23 -67 -33 -95 -10 -27
-26 -77 -35 -110 -9 -33 -21 -72 -27 -87 l-10 -28 -204 0 c-129 0 -204 -4
-204 -10 0 -6 28 -10 63 -11 60 0 330 -7 334 -8 1 -1 -5 -22 -13 -48 -9 -27
-29 -91 -44 -143 -16 -52 -40 -133 -55 -180 -15 -47 -29 -93 -32 -104 -4 -13
-2 -17 8 -14 7 2 18 24 25 49 22 80 115 383 127 412 l12 27 177 0 178 0 0
-352 c0 -193 3 -349 6 -345 4 3 7 160 8 349 l1 343 970 0 c534 0 1062 -2 1174
-5 l205 -5 8 -35 c5 -19 13 -44 18 -55 5 -11 12 -31 15 -45 11 -41 86 -283 95
-305 4 -11 11 -29 15 -40 4 -12 9 -15 12 -8 4 12 -55 225 -82 293 -18 45 -58
191 -53 195 6 6 308 10 308 4 0 -3 -31 -20 -70 -39 -64 -31 -87 -50 -59 -50
17 0 189 91 189 100 0 9 -189 105 -195 99 -9 -10 13 -27 70 -55 l60 -29 -150
-3 c-82 -1 -154 -1 -161 2 -6 2 -17 28 -24 58 -7 29 -18 67 -25 83 -7 17 -30
82 -50 145 -20 63 -45 138 -55 165 -47 126 -113 295 -134 340 -13 28 -27 61
-31 75 -4 14 -27 67 -51 118 -24 51 -44 96 -44 100 0 8 -121 247 -161 317 -16
28 -42 75 -59 105 -40 72 -173 263 -236 336 -154 182 -269 255 -431 276 -238
31 -430 -75 -666 -367 -36 -45 -132 -187 -156 -231 -12 -21 -35 -61 -52 -89
-16 -27 -66 -122 -109 -210 l-79 -160 -1 620 c0 341 -3 631 -7 644 -12 46 15
12 48 -59 28 -62 49 -88 49 -61 0 16 -91 201 -99 201 -5 0 -28 -42 -52 -92z
m1186 -230 c69 -15 180 -79 243 -141 49 -47 166 -184 218 -254 32 -44 154
-239 154 -246 0 -4 11 -24 23 -45 44 -70 148 -274 178 -350 17 -42 37 -88 44
-102 18 -32 50 -107 81 -189 13 -36 28 -69 33 -75 5 -6 16 -36 26 -66 10 -30
21 -59 25 -65 4 -5 15 -35 25 -65 10 -30 23 -68 30 -85 7 -16 34 -97 59 -180
26 -82 51 -158 56 -167 6 -10 10 -27 10 -39 l0 -22 -1057 8 c-926 7 -1229 10
-1268 14 -7 1 -9 165 -7 497 l3 496 50 107 c27 58 54 113 59 121 5 8 16 31 25
50 8 19 19 42 24 50 6 8 28 47 49 85 21 39 61 103 88 144 27 40 54 81 59 90
15 26 75 101 119 152 23 25 50 56 62 70 30 34 145 128 192 154 121 68 250 86
397 53z m-1145 -1607 l0 -459 -37 -3 c-21 -2 -100 -2 -175 1 l-137 5 76 225
c100 298 102 303 171 470 85 204 92 220 97 220 3 0 5 -207 5 -459z"/>
<path d="M7272 3392 c-23 -48 -42 -93 -42 -99 0 -29 17 -9 47 55 l32 67 0
-840 0 -840 -23 60 c-13 33 -44 110 -69 170 -65 160 -126 331 -182 510 -21 66
-46 145 -56 175 -9 30 -34 109 -54 175 -20 66 -49 161 -65 210 -15 50 -33 109
-39 133 -7 23 -16 42 -21 42 -6 0 -10 -3 -10 -6 0 -11 22 -88 31 -109 4 -11
13 -40 19 -65 7 -25 22 -76 35 -115 37 -114 71 -223 105 -335 17 -58 50 -159
72 -225 22 -66 47 -140 55 -165 24 -75 79 -212 170 -425 l34 -80 -3 -305 -3
-305 -388 0 c-213 0 -386 -4 -384 -8 1 -5 176 -10 387 -10 l385 -2 3 -347 c1
-221 6 -348 12 -348 6 0 10 125 10 345 l0 345 163 0 162 0 37 -58 c101 -155
281 -325 412 -387 79 -37 202 -52 302 -37 82 13 178 57 259 119 59 46 187 191
251 285 l45 68 177 1 c97 0 330 3 516 5 304 4 338 3 326 -11 -7 -8 -35 -25
-61 -38 -27 -12 -49 -28 -49 -34 0 -17 24 -17 38 0 6 6 40 26 77 42 85 39 84
55 -10 106 -73 39 -118 51 -96 25 6 -8 34 -23 61 -35 27 -12 52 -26 55 -31 5
-8 -150 -9 -496 -5 -277 4 -505 8 -507 10 -4 4 17 40 75 130 12 19 51 90 87
157 35 68 71 137 80 153 66 125 195 434 281 675 20 58 40 112 44 120 4 8 29
83 55 165 26 83 54 166 61 185 7 19 29 87 48 150 19 63 53 174 76 246 45 144
45 144 32 144 -5 0 -26 -53 -46 -117 -59 -193 -135 -432 -166 -523 -15 -47
-33 -101 -38 -120 -5 -19 -28 -87 -51 -150 -23 -63 -45 -126 -50 -140 -5 -14
-23 -61 -40 -105 -18 -44 -44 -111 -60 -150 -73 -187 -238 -522 -316 -647 -13
-21 -24 -41 -24 -45 0 -4 -19 -36 -42 -70 l-43 -63 -648 0 -647 0 -28 51 c-15
28 -43 76 -63 107 -39 61 -152 279 -207 398 l-32 71 0 862 c0 474 4 860 8 857
4 -2 21 -34 37 -70 28 -60 45 -82 45 -56 0 20 -85 190 -95 190 -5 0 -29 -39
-53 -88z m95 -1820 c67 -143 119 -243 198 -382 17 -28 38 -66 47 -83 l18 -32
-137 -3 c-75 -1 -143 0 -150 2 -10 4 -13 63 -13 276 0 148 3 270 8 270 4 0 17
-22 29 -48z m1565 -537 c-14 -24 -75 -110 -80 -115 -4 -3 -20 -23 -37 -45 -84
-112 -218 -220 -330 -266 -52 -21 -75 -24 -175 -23 -106 1 -120 3 -181 31
-141 65 -306 218 -417 386 l-32 48 629 -3 c416 -2 627 -6 623 -13z"/>
<path d="M1861 1007 c-36 -18 -66 -83 -55 -116 8 -21 17 -27 47 -29 53 -5 97
39 97 97 0 56 -36 76 -89 48z m53 -3 c39 -15 -5 -125 -51 -132 -42 -6 -43 78
-3 118 21 21 29 23 54 14z"/>
<path d="M7163 973 c-36 -18 -53 -50 -53 -99 0 -27 5 -37 25 -46 74 -33 169
100 103 146 -27 19 -34 19 -75 -1z m61 -52 c-1 -35 -7 -49 -28 -68 -34 -29
-66 -17 -66 24 0 37 46 95 73 91 19 -3 22 -9 21 -47z"/>
<path d="M4732 943 c-10 -4 -9 -8 3 -17 9 -6 18 -24 19 -40 5 -41 22 -54 44
-33 15 16 15 17 1 12 -26 -10 -32 32 -7 49 11 8 18 20 16 27 -3 8 -8 7 -20 -4
-14 -14 -17 -14 -22 -2 -6 16 -12 17 -34 8z"/>
<path d="M10020 920 c0 -5 4 -10 9 -10 21 0 21 -34 0 -57 -13 -12 -19 -26 -16
-30 4 -3 14 2 22 13 13 17 14 17 15 2 0 -22 13 -23 30 -3 10 12 10 15 -4 15
-9 0 -16 6 -16 14 0 25 12 46 26 46 8 0 14 5 14 10 0 14 -23 13 -38 -2 -9 -9
-12 -9 -12 0 0 7 -7 12 -15 12 -8 0 -15 -4 -15 -10z"/>
<path d="M4728 862 c-10 -2 -18 -8 -18 -13 0 -13 27 -11 35 2 9 13 4 16 -17
11z"/>
</g>
</svg>
