<?xml version="1.0" standalone="no"?>
<!DOCTYPE svg PUBLIC "-//W3C//DTD SVG 20010904//EN"
 "http://www.w3.org/TR/2001/REC-SVG-20010904/DTD/svg10.dtd">
<svg version="1.0" xmlns="http://www.w3.org/2000/svg"
 width="1434.000000pt" height="569.000000pt" viewBox="0 0 1434.000000 569.000000"
 preserveAspectRatio="xMidYMid meet">
<metadata>
Created by potrace 1.16, written by Peter Selinger 2001-2019
</metadata>
<g transform="translate(0.000000,569.000000) scale(0.100000,-0.100000)"
fill="#000000" stroke="none">
<path d="M1122 5188 c-1 -78 3 -140 8 -143 6 -4 10 -1 10 4 0 16 207 15 213
-1 11 -32 16 8 18 136 l1 138 -124 2 -125 1 -1 -137z m68 72 c0 -35 -3 -40
-22 -41 -13 0 -17 -3 -10 -6 19 -7 17 -133 -3 -133 -11 0 -14 19 -13 103 0 56
3 105 5 110 2 4 13 7 24 7 16 0 19 -7 19 -40z m160 2 l0 -38 -52 -1 c-38 0
-45 1 -23 6 23 5 30 12 32 33 2 26 0 27 -55 31 -50 3 -48 3 21 5 l77 2 0 -38z
m-70 -2 c0 -5 -15 -10 -34 -10 -19 0 -38 5 -41 10 -4 6 10 10 34 10 23 0 41
-4 41 -10z m-50 -30 c0 -5 -8 -10 -17 -10 -15 0 -16 2 -3 10 19 12 20 12 20 0z
m48 -27 c-15 -2 -42 -2 -60 0 -18 2 -6 4 27 4 33 0 48 -2 33 -4z m72 -58 c0
-55 -3 -65 -17 -65 -16 0 -18 8 -15 65 3 48 7 65 18 65 11 0 14 -16 14 -65z
m-50 0 l0 -35 -47 2 -48 1 43 4 c37 4 42 7 42 29 0 22 -4 24 -44 24 -43 0 -45
-1 -49 -32 -4 -32 -4 -32 -5 5 l-2 37 55 0 55 0 0 -35z m-47 -2 c-7 -2 -19 -2
-25 0 -7 3 -2 5 12 5 14 0 19 -2 13 -5z m46 -59 c2 -2 -25 -4 -60 -4 -44 0
-59 3 -49 10 13 8 98 3 109 -6z"/>
<path d="M1560 5299 l0 -32 -50 5 -50 5 0 -75 c0 -59 3 -73 12 -64 7 7 29 12
50 12 l38 0 0 -55 c0 -30 5 -55 10 -55 8 0 15 47 13 98 -1 8 18 12 59 12 47 0
58 3 50 13 -10 11 -10 64 -1 97 3 12 -6 14 -52 12 l-56 -4 5 31 c3 24 0 31
-12 31 -11 0 -16 -9 -16 -31z m0 -90 c0 -39 0 -39 -40 -39 -40 0 -40 0 -40 39
0 37 2 40 33 43 44 5 47 2 47 -43z m107 -1 c1 -38 1 -38 -38 -38 -39 0 -39 0
-39 41 l0 40 38 -3 c35 -3 37 -5 39 -40z"/>
<path d="M286 5299 c-13 -8 -15 -14 -7 -19 16 -9 16 -171 1 -180 -7 -4 3 -10
21 -14 18 -3 37 -2 43 4 7 7 6 10 -2 10 -9 0 -12 30 -12 105 0 110 -3 117 -44
94z"/>
<path d="M412 5298 c-7 -7 -12 -23 -12 -36 0 -21 1 -22 16 -8 8 9 27 16 41 16
23 0 25 -3 19 -27 -4 -16 -11 -46 -15 -68 -5 -22 -12 -52 -16 -67 -4 -17 -3
-28 3 -28 5 0 13 17 17 38 4 20 12 51 20 67 12 29 35 106 35 119 0 11 -96 6
-108 -6z"/>
<path d="M3224 5285 c5 -21 3 -25 -14 -25 -12 0 -18 -4 -15 -10 3 -5 19 -10
36 -10 20 0 29 -5 29 -16 0 -20 -38 -104 -56 -122 -21 -21 -36 -52 -25 -52 11
0 61 58 61 71 0 5 29 9 64 9 61 0 64 -1 76 -31 9 -21 16 -27 23 -20 7 7 5 17
-8 31 -18 19 -18 20 3 20 16 0 22 -6 22 -23 0 -36 -23 -61 -48 -53 -12 4 -20
12 -17 17 7 10 -14 53 -22 46 -12 -12 19 -73 42 -83 35 -17 53 1 64 61 10 55
7 67 -14 58 -11 -4 -15 3 -15 27 0 28 -3 31 -22 25 -18 -6 -20 -4 -13 11 17
43 12 48 -39 45 -48 -3 -48 -2 -42 23 5 19 3 26 -9 26 -9 0 -15 -9 -15 -25 0
-14 -4 -25 -10 -25 -5 0 -10 9 -10 19 0 10 -7 22 -16 25 -13 5 -15 1 -10 -19z
m136 -49 c0 -23 -17 -36 -44 -36 -38 0 -47 6 -39 26 5 12 83 22 83 10z m30
-50 c0 -28 -16 -36 -71 -36 -43 0 -59 4 -59 13 0 8 3 17 7 20 7 7 123 10 123
3z"/>
<path d="M4083 5289 c-6 -6 -52 -9 -117 -7 -68 2 -105 -1 -103 -7 2 -5 21 -10
43 -11 78 -2 74 2 74 -64 l0 -60 -71 0 c-44 0 -68 -4 -64 -10 3 -5 35 -10 71
-10 l64 0 0 -57 c0 -67 13 -63 15 5 l0 47 68 3 c48 2 67 7 64 15 -2 8 -27 12
-68 12 l-64 0 1 53 c1 29 4 56 7 59 3 3 28 5 56 5 53 -1 70 8 48 27 -9 7 -17
7 -24 0z"/>
<path d="M4217 5258 c-47 -52 -31 -63 20 -14 21 20 40 31 41 26 2 -6 42 -10
89 -10 63 0 84 3 80 13 -2 6 -13 11 -23 9 -48 -8 -136 -4 -146 6 -17 17 -20
16 -61 -30z"/>
<path d="M2278 5185 c-71 -97 -75 -105 -53 -105 17 0 25 6 25 18 1 48 70 76
70 27 0 -13 -8 -29 -17 -34 -10 -6 -16 -11 -13 -11 3 -1 14 -3 25 -6 30 -6 72
5 56 16 -10 6 -13 30 -12 90 1 44 5 88 8 96 14 38 -19 4 -89 -91z m49 0 c-4
-8 -14 -15 -23 -15 -16 0 -16 2 1 20 20 22 31 20 22 -5z"/>
<path d="M2458 5265 c2 -14 -2 -46 -11 -72 -8 -27 -18 -60 -21 -75 -4 -17 -14
-29 -24 -29 -9 -1 8 -5 38 -9 93 -12 152 30 117 84 -14 20 -13 23 4 34 12 8
19 24 19 42 0 35 -27 50 -89 50 -35 0 -38 -2 -33 -25z m87 -15 c9 -27 -11 -50
-41 -50 -28 0 -27 -2 -13 39 13 36 44 42 54 11z m-15 -89 c14 -27 3 -48 -32
-60 -41 -15 -48 -8 -36 39 9 32 15 40 34 40 13 0 28 -9 34 -19z"/>
<path d="M2682 5283 c-44 -8 -92 -77 -92 -131 0 -74 93 -108 155 -57 33 27 23
34 -13 9 -28 -19 -87 -12 -96 12 -19 49 9 125 53 149 39 20 71 6 71 -30 0 -35
16 -31 24 6 3 17 6 34 6 38 0 7 -75 10 -108 4z"/>
<path d="M4874 5278 c3 -7 9 -21 12 -30 4 -10 10 -18 15 -18 13 0 11 34 -3 48
-16 16 -31 15 -24 0z"/>
<path d="M4990 5279 c0 -6 -9 -8 -21 -4 -20 7 -21 4 -17 -48 1 -30 -1 -58 -7
-63 -16 -14 -45 -13 -45 2 0 8 5 14 10 14 6 0 10 7 10 15 0 10 -10 14 -35 13
-32 -1 -41 -18 -10 -18 12 0 12 -4 -1 -27 -13 -26 -12 -28 6 -31 28 -5 25 -34
-6 -71 -14 -17 -22 -36 -18 -42 5 -9 10 -7 19 5 11 15 15 15 41 1 34 -17 214
-22 214 -5 0 6 -14 10 -30 10 -30 0 -30 0 -14 25 8 13 13 29 9 35 -3 6 3 10
16 10 l23 0 -21 19 c-11 10 -29 21 -39 24 -14 4 -13 6 6 5 41 -1 50 2 50 12 0
6 -7 10 -16 10 -13 0 -15 10 -12 53 l3 52 -41 -3 c-23 -2 -45 1 -49 7 -8 14
-25 14 -25 0z m17 -25 c-3 -3 -12 -4 -19 -1 -8 3 -5 6 6 6 11 1 17 -2 13 -5z
m51 -51 c-16 -2 -40 -2 -55 0 -16 2 -3 4 27 4 30 0 43 -2 28 -4z m-45 -30 c-7
-2 -21 -2 -30 0 -10 3 -4 5 12 5 17 0 24 -2 18 -5z m60 0 c-7 -2 -19 -2 -25 0
-7 3 -2 5 12 5 14 0 19 -2 13 -5z m-29 -38 c2 -7 15 -15 28 -18 21 -4 21 -4
-3 -6 -16 0 -29 5 -33 14 -7 20 -26 19 -26 -1 0 -13 -7 -15 -35 -11 -19 3 -35
2 -35 -3 0 -5 12 -10 26 -12 25 -3 25 -3 6 -23 -10 -12 -21 -26 -23 -32 -3 -8
-10 -7 -23 3 -17 12 -18 18 -7 54 7 22 16 38 21 35 5 -3 11 -1 14 4 9 14 84
11 90 -4z m14 -42 c-10 -2 -26 -2 -35 0 -10 3 -2 5 17 5 19 0 27 -2 18 -5z
m-10 -30 c-29 -5 -37 -18 -15 -26 6 -3 -8 -6 -33 -6 l-45 -1 25 20 c15 12 39
19 60 18 30 -1 31 -2 8 -5z"/>
<path d="M4960 5130 c0 -5 4 -10 9 -10 6 0 13 5 16 10 3 6 -1 10 -9 10 -9 0
-16 -4 -16 -10z"/>
<path d="M2844 5253 c-2 -52 -36 -163 -50 -163 -8 0 -14 -4 -14 -10 0 -16 118
-12 153 6 50 25 67 52 67 110 0 68 -18 84 -96 84 -57 0 -59 -1 -60 -27z m86 7
c18 0 40 -33 40 -61 0 -63 -45 -109 -106 -109 -28 0 -29 -6 9 113 15 48 25 66
35 62 7 -3 17 -5 22 -5z"/>
<path d="M4530 5155 l0 -120 126 5 126 5 1 113 0 113 -126 2 -127 2 0 -120z
m80 62 c0 -35 -29 -98 -48 -105 -8 -2 -12 18 -12 67 l0 71 30 0 c27 0 30 -3
30 -33z m60 -11 c0 -24 3 -58 6 -76 7 -30 9 -32 45 -28 35 3 39 1 39 -20 0
-22 -1 -23 -102 -20 -66 2 -103 7 -105 15 -2 6 5 14 17 18 27 8 60 75 60 120
0 28 4 35 20 35 17 0 20 -7 20 -44z m90 -20 c0 -62 0 -63 -27 -62 -24 1 -29 6
-34 39 -10 63 -1 87 32 87 29 0 29 0 29 -64z"/>
<path d="M5306 5273 c-4 -4 -32 -6 -62 -5 -31 1 -54 -2 -54 -8 0 -6 6 -10 14
-10 14 0 26 -46 18 -68 -2 -7 -12 -12 -23 -12 -10 0 -19 -4 -19 -10 0 -5 9
-10 20 -10 17 0 20 -7 20 -43 0 -23 -7 -53 -16 -65 -8 -12 -14 -28 -12 -34 6
-18 48 56 48 85 0 36 10 57 26 57 11 0 14 -18 14 -80 0 -47 4 -80 10 -80 6 0
10 5 10 11 0 5 4 7 10 4 16 -10 78 25 127 70 38 35 42 43 28 49 -12 4 -23 -1
-32 -14 -34 -48 -108 -108 -120 -96 -3 2 -5 33 -5 68 -1 57 1 63 21 66 30 5
26 22 -5 22 -24 0 -26 3 -20 31 3 17 6 35 6 40 0 5 9 9 21 9 12 0 19 5 17 13
-5 14 -31 21 -42 10z m-26 -64 c0 -33 -3 -40 -17 -37 -10 2 -18 9 -17 16 1 6
2 23 3 37 0 15 7 25 16 25 11 0 15 -11 15 -41z"/>
<path d="M5374 5234 c-30 -32 -37 -44 -25 -44 19 0 101 66 101 81 0 22 -38 3
-76 -37z"/>
<path d="M6414 5253 c-5 -20 -8 -23 -11 -11 -2 9 -11 19 -20 22 -12 5 -14 1
-10 -14 3 -13 0 -20 -9 -20 -8 0 -14 -4 -14 -10 0 -5 14 -10 30 -10 17 0 30
-4 30 -9 0 -17 -54 -136 -73 -161 -12 -16 -14 -26 -7 -28 13 -5 39 26 40 47 0
28 34 40 113 41 61 0 79 -3 84 -15 9 -24 -4 -30 -23 -11 -22 22 -28 15 -13
-17 7 -15 16 -24 22 -20 6 3 7 1 3 -5 -4 -7 -18 -12 -32 -12 -13 0 -24 -4 -24
-10 0 -5 7 -10 15 -10 8 0 15 -4 15 -10 0 -34 51 12 57 52 3 18 9 41 14 51 10
18 8 19 -26 21 -20 1 -28 26 -12 37 15 11 -4 31 -23 26 -18 -5 -21 8 -7 30 11
18 -12 27 -60 24 -40 -2 -56 10 -33 24 6 4 8 11 5 16 -11 17 -23 9 -31 -18z
m86 -58 c0 -8 -6 -16 -12 -16 -7 -1 -25 -3 -39 -4 -22 -3 -26 0 -22 16 7 24
73 28 73 4z m-3 -45 c27 0 34 -4 31 -17 -3 -15 -13 -17 -63 -15 -33 2 -61 5
-63 7 -8 8 33 35 45 31 8 -3 30 -6 50 -6z"/>
<path d="M7510 5145 l0 -125 -66 0 c-41 0 -63 -4 -59 -10 4 -6 63 -10 146 -10
117 0 139 2 139 15 0 18 -23 20 -49 4 -11 -7 -32 -9 -54 -5 l-37 7 0 63 0 63
54 -5 c57 -5 81 9 47 28 -13 7 -22 7 -26 0 -3 -5 -22 -10 -42 -10 l-36 0 5 50
c4 35 1 50 -9 54 -10 4 -13 -19 -13 -119z"/>
<path d="M7768 5235 c-7 -15 -17 -24 -25 -21 -10 4 -13 -18 -13 -106 l0 -111
21 19 c19 17 22 18 50 2 l29 -17 0 64 c0 36 4 65 10 65 5 0 17 16 26 35 15 32
20 35 60 35 l44 0 -1 -62 c0 -35 -6 -79 -12 -98 -11 -31 -16 -35 -42 -32 l-30
3 23 -16 c52 -37 74 1 87 149 l7 79 -30 -6 c-36 -7 -92 6 -74 17 15 9 6 26
-14 26 -8 0 -14 -10 -14 -22 -1 -13 -10 -39 -21 -58 l-20 -35 6 32 c7 35 -8
51 -31 32 -21 -17 -30 -2 -11 19 10 10 14 22 10 25 -12 13 -23 7 -35 -18z m42
-80 c0 -21 -5 -25 -30 -25 -25 0 -30 4 -30 25 0 21 5 25 30 25 25 0 30 -4 30
-25z m0 -80 c0 -32 -2 -35 -30 -35 -28 0 -30 3 -30 35 0 32 2 35 30 35 28 0
30 -3 30 -35z"/>
<path d="M4054 5208 c-29 -65 -28 -66 10 -24 37 41 46 66 23 66 -7 0 -22 -19
-33 -42z"/>
<path d="M4260 5236 c0 -8 -20 -35 -44 -60 -24 -25 -38 -46 -32 -46 7 0 17 5
24 12 9 9 12 -4 12 -60 0 -41 4 -72 10 -72 6 0 10 34 10 81 0 77 1 81 31 109
31 28 31 28 10 39 -17 10 -21 9 -21 -3z"/>
<path d="M6029 5241 c12 -8 12 -17 1 -58 -22 -86 -42 -132 -59 -136 -9 -3 23
-5 72 -6 84 -1 88 0 99 24 15 33 2 45 -18 17 -11 -16 -25 -22 -55 -22 -43 0
-44 2 -28 49 13 36 36 41 48 9 8 -21 9 -20 19 16 11 39 8 61 -6 40 -4 -6 -15
-13 -24 -17 -19 -7 -23 9 -12 51 5 17 14 22 40 22 22 0 37 -6 41 -16 5 -13 7
-13 14 -2 21 32 10 38 -68 38 -50 0 -73 -4 -64 -9z"/>
<path d="M6888 5230 c-21 -11 -44 -34 -53 -50 -19 -36 -19 -99 0 -124 28 -38
140 -28 153 14 4 12 2 13 -9 4 -42 -33 -99 -33 -121 0 -23 33 12 129 52 146
45 19 74 10 80 -25 6 -30 6 -30 13 -5 13 49 9 55 -36 57 -26 2 -56 -5 -79 -17z"/>
<path d="M8400 5187 c0 -56 0 -57 25 -51 19 5 25 2 25 -9 0 -10 -12 -17 -32
-20 l-33 -4 33 -1 c43 -3 45 -32 2 -32 -29 0 -42 -14 -19 -22 7 -2 7 -12 -2
-31 -7 -15 -9 -30 -5 -34 10 -10 26 17 26 45 0 20 4 22 60 22 l60 0 0 -40 c0
-22 5 -40 10 -40 6 0 10 5 10 10 0 6 22 10 49 10 l49 0 4 53 c5 57 -3 77 -25
59 -18 -15 -27 -5 -27 30 0 24 4 28 30 28 19 0 30 5 30 14 0 24 -20 29 -35 10
-13 -18 -14 -18 -20 -1 -4 9 -4 28 -1 42 5 18 2 25 -9 25 -12 0 -15 -15 -15
-75 0 -72 -1 -75 -23 -75 -13 0 -27 3 -31 7 -4 4 -17 7 -29 8 -12 0 -22 5 -22
10 0 6 10 9 21 8 19 -1 23 5 28 49 4 28 5 53 2 56 -3 3 -35 6 -71 6 l-65 1 0
-58z m50 21 c0 -12 -1 -19 -3 -17 -1 2 -9 12 -16 22 -12 14 -11 17 3 17 10 0
16 -8 16 -22z m60 11 c0 -5 -4 -8 -9 -4 -6 3 -14 -3 -20 -12 -9 -15 -10 -15
-11 -2 0 9 3 19 7 22 10 11 33 8 33 -4z m0 -44 c0 -19 -5 -25 -22 -25 -13 0
-18 4 -12 8 6 4 13 15 17 25 9 25 17 21 17 -8z m-69 -9 c5 3 9 0 9 -5 0 -6 -7
-11 -15 -11 -8 0 -15 8 -14 18 0 10 3 12 6 4 2 -6 9 -10 14 -6z m99 -88 c0
-17 -3 -19 -12 -10 -9 9 -15 9 -25 0 -10 -8 -17 -8 -25 0 -16 16 0 32 33 32
23 0 29 -4 29 -22z m98 -35 c-3 -36 -5 -38 -40 -41 l-38 -3 0 40 0 41 41 0 40
0 -3 -37z"/>
<path d="M8761 5208 c-7 -24 -19 -55 -27 -70 -18 -33 -18 -42 1 -34 13 4 15
-7 15 -71 l0 -76 36 6 c20 4 47 16 59 27 l22 21 58 -25 c52 -24 75 -26 75 -8
0 4 -27 15 -59 25 l-60 19 15 32 c14 29 19 31 55 28 l39 -4 0 46 0 46 -40 0
c-30 0 -40 4 -40 16 0 13 7 15 34 10 36 -7 69 1 61 15 -3 5 -26 6 -52 2 -43
-6 -45 -5 -38 15 5 16 2 22 -9 22 -9 0 -16 -9 -16 -21 0 -18 -5 -20 -47 -17
-39 2 -47 6 -45 21 6 36 -25 15 -37 -25z m127 -25 c2 -9 -9 -13 -37 -13 l-41
0 0 -50 c0 -40 5 -54 27 -74 l26 -24 -34 -21 c-59 -36 -61 -33 -58 87 1 59 3
109 5 112 5 11 108 -5 112 -17z m0 -60 c3 -20 -1 -23 -27 -23 -27 0 -31 4 -31
26 0 22 4 25 28 22 19 -2 28 -9 30 -25z m76 18 c11 -18 -6 -41 -30 -41 -19 0
-24 5 -24 25 0 20 5 25 24 25 14 0 27 -4 30 -9z m-100 -57 c18 -7 19 -13 7
-33 -8 -12 -12 -12 -26 2 -9 9 -13 21 -10 27 7 12 8 12 29 4z"/>
<path d="M9087 5209 c-16 -23 -27 -43 -24 -45 8 -8 79 64 73 75 -11 18 -19 13
-49 -30z"/>
<path d="M9285 5240 c-5 -8 -26 -11 -61 -8 l-54 5 0 -56 0 -56 64 0 64 0 4 53
c3 57 -4 83 -17 62z m-5 -30 c0 -5 -21 -10 -46 -10 -27 0 -43 4 -39 10 3 6 24
10 46 10 21 0 39 -4 39 -10z m-2 -47 c2 -9 -10 -13 -42 -13 -35 0 -46 4 -46
16 0 12 9 14 42 12 23 -2 43 -9 46 -15z"/>
<path d="M3902 5195 c23 -48 38 -58 38 -26 0 19 -40 71 -54 71 -3 0 4 -20 16
-45z"/>
<path d="M7058 5233 c6 -2 12 -14 12 -26 0 -26 -26 -109 -46 -151 l-15 -29 75
5 c69 5 76 7 105 39 25 27 31 42 31 81 0 66 -30 88 -114 87 -33 0 -55 -3 -48
-6z m113 -34 c17 -17 20 -28 14 -57 -12 -67 -40 -92 -101 -92 -28 0 -28 1 -11
43 8 18 17 50 21 72 4 22 10 43 12 47 10 15 44 8 65 -13z"/>
<path d="M1880 5207 c0 -7 5 -18 12 -25 8 -8 8 -15 -3 -28 -12 -14 -11 -16 6
-13 15 3 21 14 23 42 3 32 0 37 -17 37 -12 0 -21 -6 -21 -13z"/>
<path d="M11374 5204 c5 -14 0 -15 -34 -12 -25 2 -39 0 -37 -7 2 -5 15 -10 28
-10 33 0 49 -12 42 -32 -5 -13 -2 -15 11 -10 13 5 17 2 14 -11 -2 -13 -15 -18
-56 -20 -62 -4 -71 -19 -10 -18 58 1 59 -17 4 -69 -53 -49 -48 -70 5 -25 l35
28 0 -40 -1 -41 70 0 c111 1 103 -3 100 51 l-3 47 -76 -2 c-42 -1 -78 2 -80 5
-2 4 2 16 10 27 12 17 25 19 99 17 69 -3 85 0 85 12 0 12 -14 13 -80 9 -57 -4
-80 -3 -80 6 0 6 5 11 10 11 20 0 9 19 -12 22 -27 4 -31 34 -5 32 10 -1 16 3
14 10 -2 6 -12 10 -21 10 -9 -1 -16 4 -16 12 0 8 -5 14 -11 14 -6 0 -8 -7 -5
-16z m139 -196 c-2 -5 -3 -18 -3 -30 0 -22 -3 -23 -60 -20 -59 4 -60 4 -60 33
l0 28 63 -2 c34 -1 61 -5 60 -9z"/>
<path d="M11480 5205 c0 -8 -7 -15 -15 -15 -8 0 -15 -4 -15 -10 0 -5 5 -10 10
-10 6 0 10 -9 10 -20 0 -11 5 -20 10 -20 6 0 10 9 10 20 0 17 7 20 46 20 32 0
44 4 41 13 -2 7 -18 11 -40 9 -30 -2 -36 0 -31 13 4 10 0 15 -10 15 -9 0 -16
-7 -16 -15z"/>
<path d="M4358 5203 c-88 -4 -105 -20 -25 -25 l52 -3 2 -50 c2 -73 -3 -85 -40
-85 l-32 0 32 -16 c50 -25 63 -8 63 82 l0 74 31 0 c27 0 30 2 19 15 -7 8 -15
14 -19 13 -3 -1 -41 -4 -83 -5z"/>
<path d="M5395 5164 c-22 -24 -46 -44 -52 -44 -7 0 -13 -4 -13 -10 0 -15 56
13 95 47 39 35 41 39 23 45 -7 3 -31 -14 -53 -38z"/>
<path d="M9658 5201 c10 -6 10 -17 2 -52 -6 -24 -15 -62 -20 -83 -4 -22 -16
-46 -26 -53 -15 -11 -10 -13 42 -13 78 0 99 7 112 35 8 16 7 29 -3 49 -12 23
-12 27 6 36 30 16 26 68 -7 80 -31 12 -125 13 -106 1z m92 -41 c0 -19 -7 -33
-19 -40 -35 -18 -43 -13 -36 23 10 43 13 47 36 47 14 0 19 -7 19 -30z m-12
-88 c5 -32 -15 -52 -50 -52 -23 0 -29 4 -24 16 3 9 9 27 12 40 9 34 57 31 62
-4z"/>
<path d="M9848 5204 c16 -7 15 -35 -2 -81 -8 -21 -17 -50 -20 -65 -3 -15 -13
-34 -22 -42 -14 -15 -11 -16 33 -16 26 0 64 -3 84 -6 34 -6 36 -5 43 27 8 43
3 45 -27 15 -33 -33 -87 -36 -87 -6 0 29 21 70 37 70 7 0 18 -10 22 -22 10
-25 14 -19 25 35 7 28 -8 38 -18 12 -7 -19 -36 -20 -36 -1 0 32 20 66 39 66
30 0 51 -11 51 -26 0 -8 5 -14 10 -14 6 0 10 13 10 28 l0 28 -77 2 c-43 0 -72
-2 -65 -4z"/>
<path d="M9111 5162 c-11 -21 -27 -44 -35 -51 -9 -8 -16 -18 -16 -23 0 -6 7
-5 15 2 13 11 15 3 15 -59 0 -50 4 -71 13 -71 8 0 12 22 12 79 0 67 4 84 23
110 26 36 26 37 7 45 -10 4 -21 -7 -34 -32z"/>
<path d="M10358 5168 c-44 -51 -53 -91 -31 -136 17 -35 21 -37 68 -40 32 -2
57 2 70 12 28 21 11 32 -19 12 -32 -21 -49 -20 -76 2 -29 24 -29 70 1 118 38
62 101 68 114 11 6 -29 8 -30 15 -12 5 11 9 30 9 43 1 21 -3 22 -61 22 -58 0
-65 -3 -90 -32z"/>
<path d="M10558 5193 c14 -6 16 -33 3 -65 -5 -13 -14 -42 -20 -65 -6 -23 -18
-49 -27 -58 -14 -13 -7 -15 70 -15 83 0 86 1 92 25 9 37 0 40 -29 11 -17 -17
-37 -26 -57 -26 -32 0 -33 2 -13 73 6 24 32 21 42 -5 9 -26 17 -15 26 37 5 34
4 38 -7 24 -7 -8 -21 -18 -32 -22 -16 -7 -18 -4 -12 24 3 17 6 35 6 40 0 5 15
9 33 9 25 0 37 -6 45 -22 10 -22 11 -21 11 10 l1 32 -72 -1 c-40 0 -67 -3 -60
-6z"/>
<path d="M3745 5181 c-3 -6 -54 -8 -120 -5 -76 3 -115 1 -115 -6 0 -6 36 -10
93 -11 50 0 110 -1 132 -1 68 -1 72 1 51 17 -23 17 -33 19 -41 6z"/>
<path d="M11944 5090 c-88 -90 -108 -119 -82 -121 80 -5 172 -1 176 9 2 7 -21
12 -72 14 l-75 3 79 83 c75 78 92 102 71 102 -4 0 -48 -41 -97 -90z"/>
<path d="M12243 5173 c-7 -2 -13 -9 -13 -15 0 -9 -48 -76 -77 -106 -7 -7 -13
-17 -13 -20 0 -4 -11 -20 -25 -35 -26 -27 -26 -27 17 -31 6 -1 12 10 13 23 2
27 29 51 57 51 26 0 23 -35 -4 -54 -22 -15 -21 -16 26 -16 42 0 47 2 36 15
-10 11 -11 39 -6 105 4 50 5 90 4 89 -2 0 -9 -3 -15 -6z m-20 -95 c-4 -19 -12
-28 -25 -28 -19 0 -19 1 2 31 26 35 30 34 23 -3z"/>
<path d="M12348 5172 c10 -7 8 -26 -9 -93 -12 -46 -28 -89 -36 -95 -24 -21
-13 -24 56 -20 81 4 125 29 148 83 19 46 3 97 -37 118 -30 15 -146 21 -122 7z
m111 -33 c43 -41 14 -123 -52 -148 -51 -19 -59 -15 -51 27 4 20 13 49 20 64 8
15 14 38 14 53 0 32 36 34 69 4z"/>
<path d="M12605 5170 c-47 -19 -94 -106 -80 -150 18 -57 96 -79 143 -41 31 27
28 34 -8 16 -57 -30 -102 -9 -102 48 0 62 48 118 97 114 23 -1 31 -8 33 -24 4
-27 17 -30 26 -7 15 39 7 49 -42 51 -26 0 -56 -2 -67 -7z"/>
<path d="M13085 5165 c-19 -9 -24 -14 -12 -14 14 -1 17 -11 17 -58 0 -32 -4
-75 -9 -95 l-9 -38 35 0 c28 0 33 3 25 13 -6 7 -13 56 -14 109 l-3 96 -30 -13z"/>
<path d="M5627 5163 c-4 -3 -7 -16 -7 -29 0 -15 8 -24 26 -28 15 -4 27 -6 28
-4 1 2 8 11 15 21 11 14 11 20 1 32 -13 15 -51 20 -63 8z m46 -29 c-7 -18 -33
-18 -33 -1 0 19 10 27 25 20 8 -2 11 -11 8 -19z"/>
<path d="M13225 5160 c-3 -5 -1 -10 4 -10 7 0 11 -33 11 -90 0 -53 -4 -90 -10
-90 -5 0 -10 -4 -10 -10 0 -5 19 -10 43 -10 37 1 40 2 25 14 -15 11 -18 30
-18 110 0 88 -2 96 -19 96 -11 0 -23 -4 -26 -10z"/>
<path d="M13371 5095 c-24 -41 -40 -79 -36 -85 3 -5 21 -10 40 -10 27 0 34 -4
37 -22 5 -32 28 -35 28 -4 0 16 6 26 15 26 8 0 15 7 15 15 0 8 -7 15 -15 15
-12 0 -15 14 -15 70 0 92 -14 91 -69 -5z m39 -20 c0 -44 -1 -45 -32 -45 -29 0
-30 1 -15 18 8 9 20 29 26 45 15 39 21 34 21 -18z"/>
<path d="M13507 5163 c-12 -11 -8 -68 5 -81 7 -7 21 -12 33 -12 38 0 56 39 39
84 -6 16 -64 23 -77 9z m57 -28 c8 -21 -3 -45 -20 -45 -18 0 -28 24 -20 45 3
8 12 15 20 15 7 0 16 -7 20 -15z"/>
<path d="M7902 5105 c24 -36 38 -44 38 -22 0 14 -41 57 -53 57 -4 0 3 -16 15
-35z"/>
<path d="M8060 5131 c0 -7 31 -11 83 -11 45 -1 108 -3 141 -6 46 -5 57 -3 54
7 -6 18 -278 27 -278 10z"/>
<path d="M560 5105 c0 -8 5 -15 10 -15 6 0 10 7 10 15 0 8 -4 15 -10 15 -5 0
-10 -7 -10 -15z"/>
<path d="M9220 5110 l-95 -6 69 -4 c47 -3 71 -10 74 -19 4 -11 -10 -13 -67 -9
-39 2 -71 0 -71 -4 0 -4 8 -8 18 -8 10 0 24 -15 34 -37 14 -32 17 -35 24 -19
5 12 2 21 -9 28 -30 17 -18 29 26 26 39 -3 42 -5 42 -33 0 -25 -5 -31 -30 -36
-22 -5 -24 -7 -8 -8 12 0 23 -7 26 -13 8 -25 37 13 37 48 0 31 3 34 30 34 17
0 30 4 30 9 0 13 -27 21 -45 15 -9 -4 -15 0 -15 10 0 9 7 15 18 13 16 -2 26
10 13 16 -3 2 -49 0 -101 -3z"/>
<path d="M10078 5112 c-26 -5 -22 -22 5 -23 12 0 43 -2 68 -4 30 -3 53 1 65
10 21 16 24 15 -66 19 -30 1 -63 0 -72 -2z"/>
<path d="M3238 5085 c-20 -26 -23 -45 -8 -45 12 0 32 38 28 55 -2 9 -9 6 -20
-10z"/>
<path d="M3280 5080 c0 -16 5 -30 10 -30 6 0 10 14 10 30 0 17 -4 30 -10 30
-5 0 -10 -13 -10 -30z"/>
<path d="M10955 5099 c-4 -5 -4 -21 -1 -35 5 -19 12 -24 28 -22 26 4 43 30 35
52 -7 18 -52 22 -62 5z m43 -16 c-5 -25 -28 -28 -28 -4 0 12 6 21 16 21 9 0
14 -7 12 -17z"/>
<path d="M13864 5088 c-4 -6 2 -17 12 -25 18 -13 18 -15 2 -27 -21 -15 -23
-26 -7 -26 32 0 52 73 23 84 -21 8 -22 8 -30 -6z"/>
<path d="M6474 5068 c3 -13 6 -26 6 -30 0 -5 6 -8 14 -8 12 0 12 5 3 30 -13
35 -32 41 -23 8z"/>
<path d="M12803 5077 c-7 -12 17 -17 97 -19 57 -2 75 0 75 10 0 10 -21 14 -83
15 -46 1 -86 -1 -89 -6z"/>
<path d="M6383 5053 c-7 -15 -13 -34 -13 -42 0 -24 27 8 35 42 9 35 -6 35 -22
0z"/>
<path d="M6432 5050 c1 -34 13 -48 21 -26 7 18 -3 56 -13 56 -5 0 -8 -14 -8
-30z"/>
<path d="M10060 5043 c0 -10 23 -13 85 -13 50 0 85 4 85 10 0 12 3 12 -92 14
-58 1 -78 -2 -78 -11z"/>
<path d="M8440 5016 c0 -14 5 -26 10 -26 6 0 10 9 10 19 0 11 -4 23 -10 26 -6
4 -10 -5 -10 -19z"/>
<path d="M8478 5015 c2 -14 6 -25 8 -25 2 0 4 11 4 25 0 14 -4 25 -9 25 -4 0
-6 -11 -3 -25z"/>
<path d="M8500 5032 c0 -5 7 -17 15 -28 15 -19 20 -8 9 20 -6 17 -24 22 -24 8z"/>
<path d="M12812 5023 c-32 -12 7 -23 84 -23 65 0 84 3 84 14 0 11 -18 14 -77
14 -43 0 -84 -3 -91 -5z"/>
<path d="M1349 4843 c0 -21 -1 -78 -2 -128 -2 -85 -3 -90 -24 -90 -11 0 -25
-3 -29 -7 -4 -5 2 -8 12 -8 11 0 25 -5 32 -12 23 -23 31 8 33 141 2 96 -1 136
-9 139 -8 2 -12 -10 -13 -35z"/>
<path d="M1130 4863 c-5 -183 -5 -193 9 -193 9 0 4 -12 -14 -36 -39 -51 -20
-57 24 -6 26 30 44 42 64 42 25 0 27 3 28 48 1 26 3 71 5 100 l3 52 -59 0
c-33 0 -60 -3 -60 -7z m90 -33 c0 -16 -7 -20 -35 -20 -28 0 -35 4 -35 20 0 16
7 20 35 20 28 0 35 -4 35 -20z m0 -60 c0 -16 -7 -20 -35 -20 -28 0 -35 4 -35
20 0 16 7 20 35 20 28 0 35 -4 35 -20z m0 -60 c0 -16 -7 -20 -35 -20 -28 0
-35 4 -35 20 0 16 7 20 35 20 28 0 35 -4 35 -20z"/>
<path d="M1288 4853 c-9 -22 -2 -186 8 -190 8 -3 12 22 13 79 1 48 6 85 12 89
8 4 4 11 -9 18 -11 6 -22 8 -24 4z"/>
<path d="M1728 4749 c-54 -55 -98 -102 -98 -104 0 -3 47 -5 105 -5 125 0 143
18 23 22 l-83 3 83 80 c73 72 97 105 75 105 -5 0 -52 -45 -105 -101z"/>
<path d="M2020 4823 c-8 -16 -13 -45 -11 -65 2 -29 -1 -38 -13 -38 -18 0 -21
15 -6 25 6 3 10 14 10 23 0 13 -6 10 -25 -12 -14 -16 -25 -32 -25 -35 0 -3
-16 -23 -36 -43 l-35 -38 31 0 c18 0 29 4 25 10 -11 17 26 61 49 58 26 -4 32
-31 11 -51 -18 -18 -13 -22 33 -26 18 -1 32 2 32 8 0 6 -5 11 -11 11 -9 0 -10
28 -5 100 7 102 0 122 -24 73z"/>
<path d="M2138 4833 c14 -6 16 -26 3 -51 -5 -9 -16 -43 -25 -74 -9 -32 -25
-62 -34 -67 -29 -18 95 -13 128 4 33 17 49 59 32 86 -9 13 -8 20 3 29 16 13
19 38 9 64 -5 12 -20 16 -68 15 -33 0 -55 -3 -48 -6z m95 -27 c7 -16 -28 -56
-48 -56 -15 0 -22 50 -8 63 12 12 51 7 56 -7z m-25 -99 c4 -31 -19 -56 -50
-57 -19 0 -21 10 -12 59 6 27 11 32 33 29 20 -2 27 -9 29 -31z"/>
<path d="M2323 4795 c-1 -24 -9 -58 -18 -74 -8 -17 -15 -39 -15 -50 0 -11 -8
-25 -17 -30 -13 -8 3 -10 64 -11 82 0 83 0 98 31 21 40 12 48 -18 15 -18 -19
-34 -26 -61 -26 -20 0 -36 1 -36 3 1 14 30 81 34 80 3 -2 11 -3 16 -3 6 0 10
-7 10 -15 0 -28 15 -15 27 22 12 41 8 59 -8 30 -6 -9 -18 -17 -28 -17 -15 0
-17 5 -12 33 6 28 11 32 44 35 30 3 37 0 37 -15 0 -15 2 -16 10 -3 21 33 12
40 -57 40 l-68 0 -2 -45z"/>
<path d="M2557 4744 c-18 -19 0 -24 78 -24 63 0 83 3 79 13 -5 13 -145 23
-157 11z"/>
<path d="M2550 4681 c0 -6 21 -12 48 -12 26 -1 61 -2 77 -3 17 0 32 4 35 9 3
6 -27 11 -77 13 -53 2 -83 -1 -83 -7z"/>
<path d="M1213 4635 c12 -24 35 -40 45 -31 8 9 -28 56 -42 56 -11 0 -12 -5 -3
-25z"/>
<path d="M2052 4037 c-9 -12 -23 -43 -58 -127 -10 -25 -24 -53 -32 -62 -14
-17 -12 -18 23 -18 32 0 36 2 25 15 -6 8 -9 23 -5 35 5 17 13 21 43 18 34 -3
37 -5 37 -35 0 -32 1 -33 39 -33 36 0 38 1 24 18 -17 19 -57 121 -65 165 -6
33 -17 41 -31 24z m12 -89 c6 -25 4 -28 -18 -28 -20 0 -24 4 -19 18 7 19 25
44 28 40 1 -2 5 -15 9 -30z"/>
<path d="M2967 4022 c-10 -10 -17 -22 -17 -26 0 -5 -13 -25 -30 -46 -16 -21
-30 -47 -30 -59 0 -18 6 -21 40 -21 22 0 39 -3 39 -7 -1 -5 -1 -16 0 -25 2
-28 21 -21 21 7 0 16 6 25 15 25 20 0 19 16 -1 24 -14 5 -16 17 -11 76 6 73 1
82 -26 52z m3 -82 c0 -44 -16 -59 -45 -42 -15 8 -15 11 -2 23 8 8 18 25 21 37
12 36 26 25 26 -18z"/>
<path d="M3064 4003 c-5 -17 -1 -37 9 -54 13 -24 13 -30 1 -40 -17 -14 -18
-61 -2 -77 7 -7 26 -12 43 -12 17 0 36 5 43 12 19 19 14 66 -8 85 -20 17 -20
17 1 40 16 16 20 29 15 47 -6 23 -11 26 -51 26 -40 0 -45 -3 -51 -27z m70 -1
c7 -12 -4 -52 -15 -52 -12 0 -31 39 -24 50 8 12 32 13 39 2z m2 -147 c-3 -9
-14 -15 -23 -13 -20 4 -28 30 -18 55 5 15 8 14 27 -4 13 -13 18 -28 14 -38z"/>
<path d="M3211 4004 c-10 -22 -9 -31 4 -50 17 -26 35 -30 66 -14 14 8 19 21
19 50 0 40 0 40 -38 40 -32 0 -41 -5 -51 -26z m67 -18 c5 -24 -10 -38 -31 -30
-17 6 -23 35 -10 48 12 12 38 1 41 -18z"/>
<path d="M3584 3926 c-12 -31 0 -51 31 -51 24 0 31 5 33 24 6 36 -51 60 -64
27z m38 -28 c-10 -10 -15 -10 -22 2 -6 9 -5 17 3 22 18 11 33 -10 19 -24z"/>
<path d="M8319 3872 c8 -6 12 -19 8 -33 -19 -78 -27 -102 -46 -134 l-20 -35
65 0 c99 0 144 33 152 109 7 72 -17 94 -104 99 -46 2 -64 0 -55 -6z m109 -28
c31 -21 31 -85 0 -115 -41 -38 -98 -52 -98 -23 0 9 9 47 21 85 22 74 35 83 77
53z"/>
<path d="M10335 3860 c-27 -4 -30 -9 -33 -45 -2 -22 -10 -53 -18 -69 -8 -16
-14 -39 -14 -52 0 -13 -7 -24 -17 -27 -10 -3 21 -5 68 -6 82 -1 87 0 93 22 10
37 7 41 -16 20 -23 -20 -98 -41 -98 -27 0 4 5 23 12 41 13 35 48 47 48 16 0
-27 17 -2 25 37 7 34 7 35 -12 18 -39 -35 -48 -18 -27 50 6 20 50 14 67 -10
l16 -23 0 31 c1 27 -2 30 -31 30 -18 -1 -46 -3 -63 -6z"/>
<path d="M2180 3851 c0 -13 26 -32 33 -24 14 13 6 33 -13 33 -11 0 -20 -4 -20
-9z"/>
<path d="M13475 3823 c-60 -15 -117 -100 -100 -152 10 -34 46 -61 79 -61 32 0
103 36 92 47 -3 3 -11 1 -19 -5 -7 -6 -25 -15 -39 -21 -22 -8 -31 -6 -52 10
-44 35 -28 116 31 156 35 24 61 19 74 -14 10 -28 22 -23 34 15 6 19 3 22 -24
22 -16 0 -35 2 -43 4 -7 2 -22 1 -33 -1z"/>
<path d="M8440 3562 c-16 -26 -56 -90 -89 -142 -34 -52 -71 -114 -83 -137 -12
-24 -26 -43 -30 -43 -4 0 -8 -6 -8 -13 0 -6 -25 -50 -55 -96 -30 -46 -55 -85
-55 -87 0 -2 -36 -59 -88 -139 -7 -11 -15 -28 -18 -37 -4 -10 -10 -18 -14 -18
-4 0 -12 -10 -19 -22 -6 -13 -20 -36 -31 -53 -11 -16 -30 -49 -42 -72 -12 -24
-26 -43 -30 -43 -4 0 -8 -5 -8 -11 0 -6 -15 -34 -33 -62 -80 -125 -82 -128
-131 -213 -22 -38 -44 -70 -48 -72 -4 -2 -8 -8 -8 -14 0 -6 -11 -25 -24 -42
-13 -17 -34 -51 -47 -75 -13 -24 -29 -51 -34 -60 -6 -9 -26 -41 -45 -72 -46
-73 -52 -82 -101 -164 -23 -38 -45 -72 -48 -75 -3 -3 -14 -21 -24 -40 -39 -77
-50 -95 -59 -98 -4 -2 -8 -9 -8 -16 0 -7 -9 -24 -21 -37 -12 -13 -39 -55 -60
-94 -46 -81 -51 -90 -101 -168 -21 -32 -38 -62 -38 -67 0 -5 -6 -15 -12 -22
-7 -7 -20 -26 -28 -43 -8 -16 -34 -58 -57 -92 -24 -35 -43 -65 -43 -68 0 -2
-18 -32 -40 -67 -32 -51 -37 -64 -25 -71 8 -4 248 -10 532 -12 689 -6 1708
-17 1808 -20 250 -7 789 -16 1360 -20 358 -3 763 -8 902 -12 l252 -6 12 27 c7
14 15 26 19 26 4 0 13 14 20 31 7 17 18 36 25 43 7 6 23 30 36 53 51 88 105
177 122 202 9 14 25 42 35 61 10 19 34 60 53 90 20 30 44 71 54 90 22 40 87
142 96 150 3 3 9 12 12 20 4 8 34 58 66 110 33 52 76 122 96 155 45 76 172
277 182 290 4 6 16 26 26 45 9 19 25 47 35 62 9 14 48 77 86 140 38 62 72 115
75 118 8 7 26 35 52 85 12 22 50 86 85 142 35 55 64 104 64 107 0 9 43 70 53
74 4 2 7 8 7 14 0 5 10 24 23 41 12 18 29 45 38 62 9 16 40 66 68 110 28 44
67 109 88 145 20 36 39 67 42 70 3 3 14 21 24 40 11 19 26 48 35 63 15 24 15
29 2 37 -8 5 -182 9 -390 10 -206 0 -566 2 -800 5 -234 2 -785 7 -1225 11
-440 4 -825 8 -855 9 -50 2 -501 8 -1283 19 l-298 5 -29 -47z m1140 3 c162 -3
338 -7 390 -10 52 -2 147 -4 211 -5 102 0 117 -2 123 -17 3 -10 22 -47 41 -83
19 -35 35 -70 35 -77 0 -7 4 -13 9 -13 4 0 16 -21 26 -47 10 -27 23 -55 30
-63 6 -8 34 -60 61 -115 27 -55 52 -104 57 -110 4 -5 71 -136 148 -290 77
-153 144 -282 148 -285 5 -3 12 -16 16 -30 4 -14 12 -30 17 -37 5 -6 25 -42
44 -80 19 -37 40 -77 46 -88 14 -25 -10 23 228 -449 l201 -398 -57 -30 c-31
-16 -70 -46 -88 -66 -17 -19 -36 -41 -43 -48 -51 -50 -113 -218 -113 -303 l0
-34 -692 8 c-381 4 -729 9 -773 10 -87 2 -1446 21 -2260 31 -280 4 -511 8
-513 9 -4 3 19 42 63 110 22 33 46 72 55 86 91 155 137 234 150 257 8 15 17
29 20 32 9 8 60 89 60 94 0 3 12 24 28 48 30 48 35 56 89 147 49 81 51 85 96
154 20 31 37 60 37 62 0 3 12 24 27 48 15 23 32 50 38 59 56 93 81 135 84 143
2 6 7 12 11 15 4 3 31 45 61 95 69 115 74 124 94 162 9 18 23 37 31 44 8 6 14
15 14 19 0 4 22 40 48 81 27 41 61 96 76 123 15 26 34 55 42 63 8 8 24 34 36
57 11 22 32 59 47 81 14 22 31 49 38 60 82 134 174 282 205 329 22 33 53 86
70 118 16 32 34 61 39 64 5 3 19 24 30 46 l21 41 401 -7 c221 -3 535 -8 697
-11z m2184 -25 c638 -8 1436 -18 1508 -20 14 0 8 -16 -31 -82 -27 -46 -57 -97
-67 -115 -29 -49 -232 -377 -241 -388 -4 -6 -17 -26 -27 -45 -11 -19 -23 -37
-26 -40 -4 -3 -29 -43 -55 -90 -27 -47 -72 -121 -101 -165 -28 -44 -59 -96
-69 -115 -10 -19 -21 -37 -25 -40 -4 -3 -18 -25 -31 -49 -13 -24 -28 -51 -34
-60 -5 -9 -21 -34 -34 -56 -30 -49 -73 -117 -133 -210 -25 -38 -56 -89 -69
-112 -27 -48 -126 -207 -204 -328 -28 -44 -54 -87 -58 -95 -7 -16 -17 -32 -59
-97 -16 -23 -28 -44 -28 -47 0 -7 -93 -160 -101 -166 -4 -3 -15 -22 -25 -42
-11 -21 -53 -92 -93 -157 l-75 -120 -34 67 c-19 37 -40 77 -48 89 -8 12 -14
29 -14 38 0 8 -4 15 -8 15 -5 0 -19 25 -33 55 -13 30 -27 55 -31 55 -5 0 -8 6
-8 13 0 6 -7 26 -16 42 -9 17 -32 59 -51 95 -19 36 -38 72 -43 80 -4 8 -17 33
-27 55 -19 39 -106 214 -123 246 -4 8 -29 58 -55 110 -25 52 -51 102 -56 112
-6 11 -52 98 -102 195 -50 98 -106 204 -124 237 -17 33 -43 83 -58 110 -14 28
-29 57 -35 65 -5 8 -34 67 -66 130 -57 115 -187 372 -203 400 -5 8 -28 53 -52
100 -77 154 -138 272 -147 284 -5 6 -12 21 -15 34 l-5 22 330 0 c182 0 678 -4
1102 -10z m-295 -2280 c12 -25 25 -52 30 -60 5 -8 12 -22 15 -30 3 -8 10 -23
16 -32 15 -27 25 -45 79 -150 59 -113 63 -107 -79 -103 -52 1 -162 3 -244 4
l-148 1 7 58 c15 127 58 218 140 297 68 65 75 70 110 82 34 11 39 7 74 -67z"/>
<path d="M11380 2165 c0 -14 4 -25 9 -25 4 0 6 11 3 25 -2 14 -6 25 -8 25 -2
0 -4 -11 -4 -25z"/>
<path d="M1962 3273 c22 -25 23 -156 2 -178 -14 -13 -13 -15 8 -16 42 -2 103
2 121 7 29 9 41 52 22 81 -13 19 -14 28 -5 38 14 17 4 55 -19 72 -9 7 -45 13
-80 13 -60 0 -63 -1 -49 -17z m108 -24 c18 -32 5 -49 -36 -49 -33 0 -36 2 -30
23 3 12 6 28 6 35 0 20 48 14 60 -9z m6 -90 c25 -28 8 -54 -37 -54 -31 0 -34
3 -35 30 0 17 1 33 3 38 8 15 50 6 69 -14z"/>
<path d="M2916 3255 c-4 -14 -11 -25 -16 -25 -6 0 -10 -9 -10 -20 0 -12 7 -20
18 -20 35 0 63 -30 60 -63 -3 -31 -5 -32 -45 -30 -32 1 -43 -2 -43 -13 0 -10
12 -14 38 -14 50 0 72 24 72 79 0 38 -4 44 -37 64 l-38 22 35 3 c32 3 49 15
50 35 0 4 -18 7 -39 7 -33 0 -40 -4 -45 -25z"/>
<path d="M3044 3255 c-18 -27 -12 -47 8 -27 7 7 27 12 46 12 29 0 33 -3 27
-17 -10 -24 -45 -146 -45 -155 0 -39 66 116 82 191 2 11 -10 15 -49 18 -47 2
-55 0 -69 -22z"/>
<path d="M3205 3264 c-43 -43 19 -110 65 -69 26 24 25 50 -2 69 -28 20 -43 20
-63 0z m50 -25 c8 -25 -7 -44 -29 -36 -19 8 -21 43 -3 50 21 9 26 7 32 -14z"/>
<path d="M3547 3184 c-16 -16 -7 -55 16 -63 29 -11 49 5 45 38 -2 19 -9 27
-28 29 -14 2 -29 0 -33 -4z m46 -29 c-7 -19 -33 -20 -33 -1 0 15 20 26 32 19
4 -2 5 -10 1 -18z"/>
<path d="M2170 3089 c0 -24 23 -21 28 4 2 10 -3 17 -12 17 -10 0 -16 -9 -16
-21z"/>
<path d="M1987 2513 c-34 -24 -37 -30 -37 -76 0 -67 23 -104 70 -112 40 -7 79
5 99 29 20 24 5 32 -19 11 -26 -23 -80 -22 -98 2 -31 43 -27 98 10 133 31 28
52 25 83 -12 l26 -33 -3 35 c-2 25 -9 37 -23 42 -40 13 -71 7 -108 -19z"/>
<path d="M2932 2510 c-23 -10 -61 -79 -62 -112 0 -27 21 -67 45 -82 32 -21 67
-1 79 46 12 46 -12 88 -49 88 -14 0 -25 2 -25 5 0 12 37 44 60 54 l25 10 -25
0 c-14 0 -35 -4 -48 -9z m24 -97 c18 -24 17 -58 -1 -73 -22 -18 -45 5 -45 45
0 48 21 60 46 28z"/>
<path d="M3042 2508 c-13 -13 -16 -38 -6 -38 4 0 12 7 19 16 8 11 19 14 33 10
17 -6 22 -15 22 -42 0 -28 -9 -44 -45 -81 -25 -25 -45 -49 -45 -54 0 -5 27 -9
60 -9 49 0 61 3 70 20 10 19 8 19 -37 13 l-47 -6 32 40 c41 52 55 89 42 112
-16 31 -75 42 -98 19z"/>
<path d="M3196 2501 c-20 -22 -9 -64 20 -75 24 -9 64 20 64 47 0 46 -52 64
-84 28z m58 -17 c8 -21 -1 -34 -24 -34 -20 0 -30 17 -22 38 6 17 39 15 46 -4z"/>
<path d="M3577 2427 c-24 -18 -11 -67 18 -67 32 0 49 23 36 48 -14 26 -35 33
-54 19z m41 -34 c2 -8 -5 -13 -17 -13 -12 0 -21 6 -21 16 0 18 31 15 38 -3z"/>
<path d="M2155 2350 c-8 -13 14 -42 26 -34 5 3 9 14 9 25 0 20 -24 26 -35 9z"/>
<path d="M1944 1764 c22 -22 23 -172 1 -180 -34 -13 -11 -24 51 -24 77 0 117
19 136 64 14 35 13 59 -2 97 -16 38 -66 59 -140 59 -56 0 -60 -1 -46 -16z
m130 -25 c21 -17 26 -29 26 -67 0 -38 -5 -51 -27 -69 -14 -13 -37 -23 -50 -23
-22 0 -23 2 -23 90 0 88 1 90 24 90 13 0 35 -9 50 -21z"/>
<path d="M2947 1763 c-44 -11 -92 -95 -82 -142 8 -38 40 -71 69 -71 34 0 56
30 56 78 0 44 -17 62 -60 62 -20 0 -21 1 -3 25 10 14 28 28 41 31 12 3 22 10
22 15 0 9 -12 10 -43 2z m9 -118 c8 -33 -3 -77 -19 -72 -19 6 -37 51 -30 75 8
31 41 29 49 -3z"/>
<path d="M3100 1763 c-8 -4 -27 -20 -42 -37 -23 -26 -28 -40 -28 -87 0 -42 5
-60 18 -72 55 -50 122 20 92 94 -11 26 -18 30 -42 27 -50 -8 -33 23 38 69 18
11 18 12 -1 12 -11 0 -27 -3 -35 -6z m5 -143 c0 -56 -27 -68 -44 -20 -13 38 1
73 27 68 13 -2 17 -14 17 -48z"/>
<path d="M3190 1750 c-11 -11 -20 -23 -20 -28 0 -18 33 -52 50 -52 39 0 50 11
50 50 0 53 -42 68 -80 30z m58 -32 c-2 -15 -10 -23 -23 -23 -13 0 -21 8 -23
23 -3 18 1 22 23 22 22 0 26 -4 23 -22z"/>
<path d="M3567 1674 c-16 -16 -7 -53 15 -60 24 -7 51 19 46 46 -3 16 -49 26
-61 14z m39 -15 c8 -14 -11 -33 -25 -25 -11 7 -4 36 9 36 5 0 12 -5 16 -11z"/>
<path d="M2177 1593 c-14 -13 -6 -33 13 -33 13 0 20 7 20 20 0 19 -20 27 -33
13z"/>
<path d="M6749 848 c-6 -13 -18 -30 -25 -38 -8 -8 -30 -35 -49 -60 -20 -25
-44 -55 -54 -67 -18 -22 -18 -22 0 -28 25 -8 40 2 32 21 -8 21 25 54 54 54 18
0 23 -5 23 -25 0 -13 -8 -28 -17 -34 -27 -15 4 -23 42 -12 17 5 24 10 16 10
-11 1 -12 16 -7 79 4 42 10 87 13 100 3 12 1 22 -6 22 -5 0 -16 -10 -22 -22z
m-9 -78 c0 -20 -25 -38 -37 -26 -5 5 24 46 34 46 1 0 3 -9 3 -20z"/>
<path d="M11739 786 c9 -11 8 -26 -9 -72 -11 -32 -20 -66 -20 -76 0 -9 -10
-24 -22 -32 -21 -15 -19 -16 45 -16 38 0 77 4 87 10 24 13 36 66 19 86 -11 13
-10 18 4 25 18 11 24 64 8 74 -5 3 -35 8 -67 10 -49 5 -55 4 -45 -9z m87 -28
c5 -16 1 -27 -16 -40 -38 -31 -45 -25 -34 31 8 37 39 43 50 9z m-22 -81 c27
-20 12 -55 -27 -65 -18 -5 -35 -8 -38 -6 -4 2 -2 22 4 44 12 43 29 50 61 27z"/>
</g>
</svg>
