<?xml version="1.0" standalone="no"?>
<!DOCTYPE svg PUBLIC "-//W3C//DTD SVG 20010904//EN"
 "http://www.w3.org/TR/2001/REC-SVG-20010904/DTD/svg10.dtd">
<svg version="1.0" xmlns="http://www.w3.org/2000/svg"
 width="1471.000000pt" height="667.000000pt" viewBox="0 0 1471.000000 667.000000"
 preserveAspectRatio="xMidYMid meet">
<metadata>
Created by potrace 1.16, written by Peter Selinger 2001-2019
</metadata>
<g transform="translate(0.000000,667.000000) scale(0.100000,-0.100000)"
fill="#000000" stroke="none">
<path d="M1110 6294 l0 -139 125 0 125 0 2 123 c0 67 1 128 2 135 1 6 -8 11
-19 9 -36 -5 -205 -2 -220 4 -13 5 -15 -13 -15 -132z m65 87 c-9 -30 4 -52 29
-45 16 5 18 4 9 -6 -7 -8 -24 -10 -47 -6 -33 6 -36 10 -36 41 0 31 3 35 26 35
20 0 24 -4 19 -19z m88 12 c-13 -2 -35 -2 -50 0 -16 2 -5 4 22 4 28 0 40 -2
28 -4z m73 -36 c1 -29 -2 -35 -12 -26 -9 7 -18 7 -32 -2 -12 -8 -26 -9 -38 -4
-17 8 -16 9 9 13 26 3 32 15 28 50 -2 9 6 12 21 10 19 -2 23 -9 24 -41z m-66
3 c0 -5 -16 -10 -35 -10 -19 0 -35 5 -35 10 0 6 16 10 35 10 19 0 35 -4 35
-10z m-42 -57 l-68 -4 0 -54 0 -54 68 -4 c61 -3 60 -3 -13 -3 l-80 1 -3 63 -3
62 83 -2 83 -2 -67 -3z m107 -2 c9 -16 -7 -121 -19 -121 -7 0 -11 24 -11 65 0
44 4 65 12 65 6 0 14 -4 18 -9z m-85 -27 c0 -2 -9 -4 -20 -4 -11 0 -20 4 -20
9 0 5 9 7 20 4 11 -3 20 -7 20 -9z m-63 -16 c-3 -8 -6 -5 -6 6 -1 11 2 17 5
13 3 -3 4 -12 1 -19z m59 -25 c-3 -3 -13 -2 -23 2 -17 7 -17 8 2 15 19 7 34
-5 21 -17z m44 -4 c0 -16 -7 -19 -42 -18 l-43 2 35 6 c27 5 34 10 32 25 -2 11
1 15 7 11 6 -3 11 -15 11 -26z"/>
<path d="M1550 6399 l0 -31 -52 4 -53 4 3 -66 4 -67 49 5 49 5 0 -57 c0 -31 5
-56 10 -56 6 0 10 25 10 55 l0 55 55 0 55 0 0 64 0 65 -55 -6 c-46 -5 -55 -3
-55 10 0 9 5 19 10 22 13 8 3 25 -16 25 -9 0 -14 -11 -14 -31z m0 -89 l0 -40
-40 0 -40 0 0 40 0 40 40 0 40 0 0 -40z m110 0 l0 -40 -45 0 -45 0 0 40 0 40
45 0 45 0 0 -40z"/>
<path d="M2815 6400 c7 -30 5 -31 -15 -25 -15 5 -20 4 -16 -4 4 -6 20 -11 37
-11 16 0 29 -4 29 -10 0 -15 -41 -114 -49 -120 -11 -7 -33 -51 -29 -56 5 -4
27 17 56 53 19 24 26 26 90 24 27 -1 42 -6 42 -14 0 -7 9 -19 20 -27 28 -20
25 -30 -10 -30 -20 0 -28 4 -24 13 5 15 -21 55 -31 46 -11 -11 26 -74 49 -85
34 -16 54 4 65 62 10 55 7 66 -16 57 -13 -5 -15 -1 -10 24 4 22 2 33 -8 37 -7
2 -16 0 -18 -7 -2 -7 -8 -9 -12 -5 -4 4 -2 14 4 22 21 25 4 36 -46 29 l-45 -6
7 31 c9 41 -19 45 -30 5 -7 -27 -8 -27 -15 -7 -15 38 -33 41 -25 4z m125 -54
c0 -21 -17 -29 -46 -22 -38 10 -30 36 11 36 24 0 35 -5 35 -14z m33 -42 c3 -3
3 -12 0 -20 -7 -19 -123 -20 -123 -1 0 8 3 17 7 20 8 9 107 9 116 1z m37 -75
c0 -18 -1 -18 -18 -1 -21 19 -19 34 3 25 8 -3 15 -14 15 -24z"/>
<path d="M3106 6283 c1 -90 6 -139 13 -141 6 -2 11 1 11 7 0 16 206 15 217 -1
8 -13 23 249 15 265 -2 4 -10 3 -17 -3 -13 -11 -195 -8 -225 4 -13 5 -15 -13
-14 -131z m69 80 c0 -27 1 -28 60 -28 58 0 60 1 63 28 3 21 9 27 28 27 24 0
24 0 24 -104 0 -82 -3 -105 -15 -109 -18 -8 -30 46 -23 106 l5 42 -84 0 -83 0
0 -52 c0 -39 4 -55 18 -62 16 -10 16 -10 0 -11 -10 0 -18 -4 -18 -10 0 -5 -5
-10 -11 -10 -7 0 -8 28 -5 83 3 45 5 92 5 105 1 14 7 22 19 22 13 0 18 -8 17
-27z m88 20 c-13 -2 -35 -2 -50 0 -16 2 -5 4 22 4 28 0 40 -2 28 -4z m7 -27
c0 -10 -9 -13 -27 -11 -16 2 -31 4 -35 4 -5 1 -8 6 -8 11 0 6 16 10 35 10 24
0 35 -5 35 -14z m15 -56 c-3 -5 -28 -10 -56 -10 -27 0 -49 5 -49 10 0 6 25 10
56 10 34 0 53 -4 49 -10z m0 -30 c-3 -5 -28 -10 -56 -10 -27 0 -49 5 -49 10 0
6 25 10 56 10 34 0 53 -4 49 -10z m0 -30 c-3 -5 -28 -10 -56 -10 -27 0 -49 5
-49 10 0 6 25 10 56 10 34 0 53 -4 49 -10z m-13 -40 l33 -20 -70 0 -70 0 35
19 c19 10 36 19 37 20 2 0 17 -8 35 -19z"/>
<path d="M4616 6389 c-4 -22 -10 -30 -21 -25 -8 3 -15 2 -15 -2 -8 -165 -2
-226 19 -195 3 6 18 13 34 17 21 5 27 3 27 -10 0 -8 6 -14 13 -11 8 3 11 20 9
51 -2 37 3 57 23 92 24 42 28 44 71 44 l45 0 -6 -67 c-10 -113 -12 -116 -45
-109 -37 7 -38 -3 -4 -28 25 -18 26 -18 43 1 13 13 20 44 25 103 4 47 8 94 9
104 2 18 -4 19 -51 17 -47 -2 -53 0 -50 16 6 36 -17 19 -34 -25 -21 -56 -30
-65 -22 -23 7 33 7 33 -25 26 -24 -5 -31 -3 -31 8 0 8 8 18 17 21 15 6 15 8 3
16 -23 15 -27 12 -34 -21z m44 -74 c0 -21 -5 -25 -30 -25 -25 0 -30 4 -30 25
0 21 5 25 30 25 25 0 30 -4 30 -25z m0 -80 c0 -32 -2 -35 -30 -35 -28 0 -30 3
-30 35 0 32 2 35 30 35 28 0 30 -3 30 -35z"/>
<path d="M5370 6400 c-9 -17 -17 -19 -70 -13 -42 4 -60 2 -60 -6 0 -7 22 -11
61 -11 44 0 59 -3 56 -12 -2 -7 -16 -13 -30 -13 l-27 1 0 -93 0 -93 -30 0
c-16 0 -30 -4 -30 -10 0 -6 53 -10 140 -10 115 0 140 3 140 14 0 21 -20 30
-33 17 -24 -24 -29 -8 -25 84 l4 94 -43 -6 c-36 -5 -43 -3 -43 11 0 13 12 16
70 16 39 0 70 4 70 9 0 15 -20 23 -38 16 -29 -12 -92 -16 -92 -5 0 6 5 10 11
10 5 0 7 5 4 10 -10 16 -23 12 -35 -10z m70 -85 c0 -12 -13 -15 -60 -15 -55 0
-70 6 -53 23 3 4 30 7 60 7 40 0 53 -4 53 -15z m0 -50 c0 -12 -13 -15 -60 -15
-47 0 -60 3 -60 15 0 12 13 15 60 15 47 0 60 -3 60 -15z m-2 -42 c3 -10 -13
-13 -57 -13 -57 0 -71 6 -54 24 12 12 106 2 111 -11z m0 -50 c3 -10 -13 -13
-57 -13 -48 0 -61 3 -61 15 0 13 11 15 57 13 34 -2 58 -8 61 -15z"/>
<path d="M5603 6374 c-38 -51 -22 -61 23 -15 22 22 35 28 56 24 l27 -5 -19
-33 c-17 -31 -18 -35 -2 -69 9 -20 20 -36 24 -36 13 0 9 20 -9 51 -16 28 -16
29 11 50 21 17 25 24 14 30 -9 6 -6 9 10 9 l24 0 -22 -35 c-20 -32 -21 -38 -8
-53 8 -9 19 -26 23 -37 8 -19 9 -19 13 3 2 15 -3 29 -15 37 -17 13 -17 15 10
42 15 16 24 32 20 36 -3 4 1 7 11 7 9 0 16 -3 14 -7 -2 -5 -10 -20 -17 -35
-12 -22 -11 -29 3 -49 34 -49 24 -59 -61 -61 -47 -1 -61 -3 -35 -5 40 -4 42
-5 42 -38 l0 -33 -49 2 c-32 2 -48 -1 -45 -8 3 -7 42 -11 107 -11 84 0 102 3
102 15 0 15 -8 16 -56 4 -24 -5 -27 -3 -31 30 l-4 36 43 0 c24 0 43 2 43 3 0
12 -33 67 -46 78 -13 11 -12 15 11 35 15 13 24 28 20 33 -3 6 -1 11 5 11 7 0
10 6 7 13 -3 9 -27 11 -89 9 -47 -2 -94 0 -104 6 -16 8 -25 2 -51 -34z"/>
<path d="M307 6399 c-9 -6 -17 -14 -17 -20 0 -10 -34 -62 -57 -87 -7 -7 -13
-23 -13 -34 0 -17 5 -19 27 -15 38 7 53 -1 53 -29 0 -18 6 -24 21 -24 17 0 20
4 15 24 -4 16 -1 26 9 30 19 7 20 26 1 26 -11 0 -13 15 -11 65 4 69 0 79 -28
64z m-7 -89 c0 -36 -2 -40 -26 -40 -14 0 -24 3 -22 8 7 15 43 72 46 72 1 0 2
-18 2 -40z"/>
<path d="M427 6399 c-45 -26 -60 -111 -30 -174 14 -29 22 -35 49 -35 38 0 50
13 59 66 9 55 -3 111 -28 135 -24 22 -26 22 -50 8z m44 -36 c1 -10 2 -32 4
-50 4 -47 -9 -98 -25 -98 -20 0 -32 52 -25 113 5 43 10 52 26 52 11 0 19 -7
20 -17z"/>
<path d="M8160 6398 c0 -6 -10 -31 -21 -55 -24 -49 -20 -68 6 -29 15 23 24 26
72 26 l55 0 -7 -82 c-8 -94 -17 -113 -47 -97 -30 16 -32 4 -3 -15 18 -12 30
-14 44 -7 14 8 19 27 25 98 4 48 8 97 9 107 2 17 -4 19 -63 17 -61 -1 -64 0
-45 14 17 14 18 17 5 25 -20 13 -30 12 -30 -2z"/>
<path d="M8449 6383 c0 -27 -1 -27 -9 -5 -5 12 -16 22 -25 22 -18 0 -19 -12
-3 -28 9 -9 6 -12 -16 -12 -15 0 -25 -4 -22 -8 3 -5 19 -7 36 -4 24 3 30 1 30
-14 -1 -32 -25 -89 -54 -127 -15 -20 -26 -42 -24 -49 3 -8 19 7 38 35 l34 47
83 0 84 0 -7 -37 c-9 -52 -12 -55 -43 -49 -25 6 -25 6 -7 -9 38 -30 59 -14 69
50 4 22 11 41 17 43 18 6 -1 22 -26 22 -23 0 -25 3 -19 31 7 29 5 31 -14 26
-18 -4 -21 -1 -19 21 3 25 1 26 -41 23 -42 -3 -43 -2 -37 23 5 19 3 26 -9 26
-10 0 -15 -10 -16 -27z m84 -39 c14 -15 -8 -34 -39 -34 -32 0 -45 16 -27 33 8
9 58 9 66 1z m27 -64 c0 -18 -7 -20 -60 -20 -33 0 -60 2 -60 4 0 27 16 36 66
36 47 0 54 -2 54 -20z"/>
<path d="M8840 6397 c0 -7 5 -18 12 -25 9 -9 4 -12 -22 -13 -32 0 -33 -1 -12
-10 24 -9 24 -12 -10 -61 -23 -34 -16 -53 13 -37 33 17 33 3 1 -20 -35 -24
-42 -26 -42 -8 0 8 -15 12 -45 12 l-45 0 0 -52 c0 -54 6 -63 28 -41 9 9 20 9
48 -1 35 -12 39 -12 81 18 l44 31 17 -30 c9 -16 23 -30 30 -30 21 0 13 28 -14
54 l-27 24 28 27 c21 22 24 30 13 36 -9 6 -18 2 -28 -13 -27 -40 -100 -108
-115 -108 -29 0 -15 35 21 55 19 10 47 33 60 50 13 16 29 36 36 44 8 10 7 15
-3 22 -10 6 -18 1 -26 -15 -7 -13 -21 -26 -33 -29 -25 -6 -25 -5 0 35 14 23
27 33 47 34 47 2 53 4 53 15 0 7 -11 9 -29 6 -20 -4 -31 -2 -35 8 -8 21 -46
39 -46 22z m-82 -210 c3 -21 -1 -27 -17 -27 -25 0 -32 10 -24 39 8 31 37 23
41 -12z"/>
<path d="M9505 6397 c-32 -98 -34 -102 -35 -74 0 26 -2 28 -30 22 -24 -5 -30
-3 -30 10 0 8 7 18 15 21 22 9 18 24 -5 24 -13 0 -22 -9 -26 -25 -3 -14 -12
-25 -20 -25 -11 0 -14 -21 -14 -100 0 -60 4 -100 10 -100 6 0 10 5 10 10 0 14
58 12 62 -2 10 -29 28 8 29 60 1 81 23 116 77 120 28 2 44 -1 47 -10 3 -7 1
-49 -3 -93 l-7 -80 -35 2 c-33 1 -34 0 -16 -13 11 -8 29 -14 41 -14 20 0 23 8
34 88 7 48 14 99 16 114 4 25 3 26 -47 26 -57 1 -66 5 -49 26 9 11 8 15 -4 20
-9 3 -18 0 -20 -7z m-63 -92 c6 -30 2 -35 -34 -35 -24 0 -28 4 -28 30 0 26 3
30 29 30 23 0 30 -5 33 -25z m-2 -90 c0 -32 -2 -35 -30 -35 -28 0 -30 3 -30
35 0 32 2 35 30 35 28 0 30 -3 30 -35z"/>
<path d="M2333 6373 c-10 -16 -20 -30 -23 -33 -3 -3 -27 -33 -54 -67 -26 -35
-51 -63 -57 -63 -5 0 -9 -4 -9 -10 0 -5 14 -10 31 -10 22 0 30 4 26 14 -8 21
21 56 49 56 17 0 24 -5 24 -20 0 -11 -7 -23 -15 -26 -28 -11 -15 -24 25 -24
22 0 40 5 40 10 0 6 -5 10 -11 10 -12 0 -7 138 7 173 10 27 -14 20 -33 -10z
m-3 -68 c0 -8 -9 -19 -20 -25 -23 -12 -25 -8 -8 20 15 24 28 26 28 5z"/>
<path d="M2453 6375 c-55 -44 -67 -126 -23 -167 27 -26 101 -24 125 2 10 11
13 20 7 20 -6 0 -14 -4 -17 -10 -9 -14 -81 -12 -93 3 -23 28 -15 96 16 131 38
42 102 39 102 -4 0 -11 5 -20 10 -20 6 0 10 9 10 19 0 11 3 26 6 35 5 14 -3
16 -52 16 -48 0 -65 -5 -91 -25z"/>
<path d="M3700 6347 c-40 -59 -64 -90 -102 -129 l-26 -28 34 0 c21 0 33 4 29
10 -12 20 15 50 45 50 34 0 40 -19 14 -44 -14 -15 -12 -16 21 -16 31 0 34 2
27 18 -5 9 -6 44 -1 77 10 80 11 115 2 115 -5 0 -24 -24 -43 -53z m7 -74 c-3
-3 -13 -3 -22 -1 -14 3 -14 5 2 25 18 22 18 22 21 2 2 -11 1 -23 -1 -26z"/>
<path d="M3836 6373 c7 -35 -20 -140 -42 -165 -16 -17 -14 -18 54 -18 66 0 73
2 89 26 13 21 15 32 6 54 -9 24 -8 32 8 46 43 39 0 84 -80 84 -39 0 -40 -1
-35 -27z m78 1 c9 -3 16 -14 16 -24 0 -23 -36 -54 -55 -47 -13 6 -13 10 2 42
9 19 18 35 19 35 1 0 9 -3 18 -6z m-6 -96 c30 -30 1 -68 -52 -68 l-24 0 15 40
c16 41 38 51 61 28z"/>
<path d="M4054 6381 c-71 -43 -98 -136 -53 -177 36 -33 149 -20 149 17 0 5
-14 2 -31 -7 -38 -19 -73 -12 -95 21 -15 22 -15 28 1 69 20 51 54 79 93 74 18
-2 28 -11 33 -28 l6 -25 12 28 c16 41 15 42 -37 45 -32 1 -57 -4 -78 -17z"/>
<path d="M4233 6360 c-2 -46 -36 -150 -53 -160 -21 -13 9 -17 78 -12 52 4 69
10 98 35 29 27 34 37 34 77 0 64 -28 90 -101 94 l-55 3 -1 -37z m110 -12 c21
-24 21 -38 3 -82 -15 -37 -23 -44 -65 -56 -39 -11 -54 0 -43 31 5 13 17 50 27
82 16 50 21 57 39 51 12 -3 29 -15 39 -26z"/>
<path d="M6960 6391 c0 -5 12 -11 28 -13 29 -3 30 -6 17 -100 -4 -31 -18 -62
-41 -93 -20 -25 -33 -49 -29 -53 12 -12 70 69 86 121 l17 52 7 -32 c4 -18 16
-40 26 -49 11 -9 19 -20 19 -25 0 -9 -76 -49 -95 -49 -8 0 -15 -4 -15 -10 0
-16 19 -12 76 16 l52 25 42 -26 c39 -24 70 -28 70 -7 0 4 -22 16 -50 26 -50
18 -62 32 -36 42 8 3 20 20 27 37 7 18 19 36 26 40 24 15 3 28 -33 21 l-35 -6
15 37 c9 21 16 41 16 46 0 5 -43 9 -95 9 -52 0 -95 -4 -95 -9z m160 -20 c0 -5
-4 -21 -10 -35 -7 -20 -16 -26 -40 -26 -28 0 -30 3 -30 35 0 34 1 35 40 35 22
0 40 -4 40 -9z m35 -80 c3 -5 -2 -16 -10 -24 -8 -9 -15 -20 -15 -25 0 -5 -7
-15 -15 -22 -12 -10 -18 -6 -35 22 -30 49 -26 58 24 58 25 0 47 -4 51 -9z"/>
<path d="M8050 6359 c0 -37 -2 -41 -21 -36 -13 3 -19 1 -16 -6 2 -7 12 -11 21
-11 13 2 16 -8 16 -47 0 -43 -3 -49 -21 -49 -15 0 -19 -4 -15 -16 3 -9 6 -17
6 -20 0 -6 74 37 90 53 13 13 13 14 -7 8 -21 -6 -23 -3 -23 29 0 22 6 38 16
44 10 6 14 14 9 22 -6 9 -10 9 -17 -1 -6 -10 -8 0 -5 29 4 36 3 42 -14 42 -16
0 -19 -7 -19 -41z"/>
<path d="M8715 6380 c18 -20 17 -20 -15 -20 -18 0 -31 -3 -28 -6 12 -11 88
-15 106 -5 15 9 14 11 -10 20 -14 5 -29 15 -33 20 -3 6 -13 11 -22 11 -14 0
-14 -3 2 -20z"/>
<path d="M9030 6265 l0 -130 127 2 128 1 0 129 0 128 -127 0 -128 0 0 -130z
m67 103 c-1 -46 1 -48 63 -48 57 0 60 1 60 24 0 23 -4 25 -52 29 -46 3 -43 4
20 5 l72 2 0 -109 c0 -63 -4 -112 -10 -116 -11 -7 -13 3 -14 94 l-1 63 -75 0
-75 0 -3 -38 c-4 -50 5 -84 21 -81 6 2 2 -1 -10 -7 -13 -5 -23 -16 -23 -24 0
-7 -5 -10 -11 -7 -7 5 -9 44 -6 113 3 59 5 108 6 110 4 9 39 0 38 -10z m98
-28 c4 -6 -10 -10 -34 -10 -23 0 -41 5 -41 10 0 6 15 10 34 10 19 0 38 -4 41
-10z m14 -56 c2 -2 -20 -4 -50 -4 -38 0 -50 3 -39 10 13 8 78 4 89 -6z m-2
-28 c3 -3 -17 -6 -46 -6 -32 0 -50 4 -46 10 6 10 81 7 92 -4z m3 -28 c0 -5
-22 -8 -50 -8 -27 0 -50 4 -50 8 0 5 22 8 50 8 27 -1 50 -4 50 -8z m-12 -48
c17 -11 32 -22 32 -25 0 -3 -31 -5 -70 -4 -38 1 -70 3 -70 4 0 4 64 45 70 45
3 0 20 -9 38 -20z"/>
<path d="M9720 6359 c0 -36 -2 -40 -20 -34 -11 4 -20 2 -20 -4 0 -6 9 -11 20
-11 18 0 20 -7 20 -64 0 -36 4 -67 9 -70 11 -7 87 61 78 70 -3 3 -16 -1 -29
-10 -34 -24 -38 -20 -38 30 0 46 0 46 30 41 31 -7 49 8 32 25 -8 8 -15 8 -26
-1 -8 -7 -20 -10 -26 -6 -13 8 -13 42 0 50 17 10 11 25 -10 25 -17 0 -20 -7
-20 -41z"/>
<path d="M10042 6351 c-24 -51 -21 -91 4 -70 8 6 14 7 14 2 0 -5 -9 -16 -20
-26 -36 -31 -23 -66 16 -41 13 9 32 13 44 9 15 -5 20 -2 20 12 0 19 -18 43
-31 43 -4 0 -9 -9 -12 -20 -3 -11 -10 -20 -17 -20 -14 0 49 90 64 90 6 0 3 5
-6 11 -13 7 -22 5 -39 -12 -11 -11 -22 -19 -25 -17 -6 6 20 58 29 58 4 0 7 7
7 15 0 31 -26 12 -48 -34z"/>
<path d="M10190 6385 c0 -9 -9 -15 -25 -15 -24 0 -25 -3 -25 -54 0 -52 11 -78
25 -56 9 15 25 12 25 -4 0 -16 -34 -31 -50 -21 -5 3 -10 1 -10 -4 0 -6 10 -11
22 -11 21 0 21 0 2 -21 -16 -18 -20 -19 -30 -5 -12 16 -34 22 -34 9 0 -5 7
-16 15 -26 7 -11 11 -26 8 -35 -9 -23 41 16 61 48 l15 25 1 -32 c0 -24 -5 -33
-16 -33 -14 0 -14 -3 -4 -15 24 -29 40 -18 40 30 l0 45 34 -38 c25 -26 38 -34
45 -26 8 7 2 17 -20 33 l-31 23 28 23 c25 20 27 25 15 39 -9 11 -12 30 -8 61
l7 45 -35 0 c-26 0 -33 3 -29 15 4 9 0 15 -10 15 -9 0 -16 -7 -16 -15z m55
-44 c8 -15 -6 -19 -47 -14 -21 3 -35 9 -32 14 7 12 71 12 79 0z m2 -45 c12
-12 -2 -15 -44 -9 -24 3 -40 9 -38 13 6 9 72 6 82 -4z m8 -46 c0 -22 -29 -18
-33 3 -3 14 1 18 15 15 10 -2 18 -10 18 -18z"/>
<path d="M11450 6385 c0 -8 -9 -24 -20 -35 -17 -17 -21 -36 -23 -111 -2 -53 1
-93 7 -96 5 -4 12 -1 14 5 4 14 62 16 62 2 0 -5 5 -10 10 -10 6 0 10 28 10 65
0 36 4 65 9 65 5 0 14 14 21 30 11 28 16 30 62 30 l49 0 -7 -52 c-14 -112 -18
-123 -47 -126 -34 -4 -35 -18 -3 -26 53 -13 59 2 73 160 l6 76 -24 -8 c-25 -8
-78 -8 -87 0 -3 3 1 12 7 20 9 10 9 16 1 21 -14 9 -12 11 -38 -55 -17 -42 -21
-48 -19 -25 2 28 0 30 -30 27 -26 -3 -32 0 -27 12 3 9 10 16 15 16 5 0 9 7 9
15 0 8 -7 15 -15 15 -8 0 -15 -7 -15 -15z m35 -90 c0 -25 -4 -30 -27 -33 -25
-3 -28 0 -28 26 0 35 8 44 35 40 15 -2 20 -10 20 -33z m5 -85 c0 -27 -3 -30
-30 -30 -27 0 -30 3 -30 30 0 27 3 30 30 30 27 0 30 -3 30 -30z"/>
<path d="M11957 6386 c-27 -21 -117 -30 -131 -13 -12 16 -100 12 -90 -4 3 -5
16 -6 30 -3 29 7 29 4 5 -46 -21 -44 -18 -52 17 -43 22 5 24 3 17 -18 -10 -34
-24 -57 -25 -41 0 6 -5 12 -10 12 -6 0 -8 -11 -4 -26 5 -18 0 -32 -16 -50 -30
-31 -21 -41 13 -14 30 24 31 24 52 4 19 -20 195 -27 202 -8 2 7 -26 11 -87 11
-72 0 -94 3 -109 17 -20 18 -20 18 0 69 23 57 20 78 -10 70 -24 -6 -25 -3 -10
30 10 22 16 24 57 19 26 -2 48 -6 50 -7 5 -4 4 -146 -1 -152 -3 -3 -11 -2 -17
2 -8 5 -11 28 -8 66 3 44 1 59 -9 59 -9 0 -13 -17 -13 -60 0 -53 -2 -60 -20
-60 -11 0 -20 -4 -20 -10 0 -6 38 -10 95 -10 79 0 95 3 95 15 0 13 -7 15 -35
9 -35 -6 -35 -6 -35 30 0 33 2 36 29 36 17 0 32 4 36 9 7 13 -28 23 -49 15
-15 -6 -17 -1 -14 26 2 28 9 35 36 44 26 9 30 14 20 24 -15 15 -19 15 -41 -2z"/>
<path d="M12240 6379 c0 -17 -5 -20 -25 -17 -24 5 -25 4 -25 -53 0 -55 10 -74
26 -48 4 8 9 8 18 -1 8 -8 7 -13 -4 -20 -25 -16 -54 -11 -68 10 -14 23 -37 27
-29 6 3 -8 -2 -16 -14 -19 -10 -3 -19 -3 -19 0 0 9 53 77 62 81 14 6 9 22 -7
22 -8 0 -19 -9 -25 -20 -6 -11 -17 -20 -25 -20 -20 0 -19 6 10 44 28 37 31 46
12 46 -6 0 -22 -19 -35 -42 -32 -62 -28 -99 7 -65 11 10 11 8 2 -10 -6 -12
-16 -25 -21 -28 -12 -7 -14 -45 -2 -45 4 0 12 4 18 9 16 16 114 18 114 2 0 -5
-8 -17 -17 -27 -16 -16 -18 -15 -27 5 -5 11 -15 21 -22 21 -9 0 -10 -5 -1 -25
7 -14 17 -25 22 -25 6 0 3 -4 -5 -10 -8 -5 -11 -13 -6 -17 4 -4 25 11 47 34
l39 42 0 -29 c0 -20 -5 -30 -15 -30 -20 0 -19 -16 1 -24 29 -11 34 -6 34 41
l0 46 30 -41 c33 -45 31 -45 53 -36 12 4 6 13 -21 39 l-37 33 28 13 c26 12 38
39 16 39 -6 0 -9 20 -8 53 l3 52 -40 -3 c-32 -3 -37 -1 -26 9 16 17 15 29 -3
29 -9 0 -15 -9 -15 -21z m58 -46 c2 -9 -10 -13 -42 -13 -43 0 -55 7 -39 24 12
11 76 2 81 -11z m-3 -43 c-3 -5 -24 -10 -46 -10 -21 0 -39 5 -39 10 0 6 21 10
46 10 27 0 43 -4 39 -10z m4 -34 c8 -10 8 -16 -2 -25 -16 -13 -27 -5 -27 21 0
21 13 23 29 4z"/>
<path d="M12515 6388 c-2 -7 -6 -37 -7 -67 -3 -52 -4 -54 -30 -55 -21 -1 -28
3 -28 16 0 13 8 18 25 18 14 0 25 5 25 10 0 10 -14 14 -37 11 -23 -3 -14 25
12 39 35 19 8 34 -29 17 -26 -12 -27 -15 -25 -86 2 -50 -2 -76 -9 -79 -7 -2
-12 -8 -12 -13 0 -5 64 -9 145 -9 139 0 168 6 128 28 -14 8 -15 21 -10 86 6
81 5 81 -43 66 l-25 -7 28 -12 c30 -12 28 -31 -4 -31 -10 0 -19 -4 -19 -10 0
-5 9 -10 20 -10 30 0 27 -40 -2 -41 l-23 0 22 -9 c32 -13 19 -40 -19 -40 -24
0 -29 3 -24 17 4 9 10 37 13 61 6 41 5 43 -18 40 -13 -2 -26 2 -29 7 -3 6 7
11 23 13 15 2 27 8 27 14 0 6 -10 8 -26 4 -22 -6 -25 -4 -19 14 5 14 2 20 -10
20 -8 0 -18 -6 -20 -12z m48 -91 c10 -27 -5 -67 -25 -67 -10 0 -16 -4 -13 -10
3 -5 1 -10 -5 -10 -8 0 -10 9 -5 28 4 15 9 36 11 47 1 11 3 21 3 23 3 8 30 0
34 -11z m-63 -53 c0 -1 -3 -9 -6 -18 -9 -24 -44 -20 -44 4 0 15 6 19 25 18 14
-1 25 -3 25 -4z"/>
<path d="M13516 6393 c-3 -4 -6 -15 -6 -26 0 -10 -9 -21 -20 -24 -18 -5 -20
-14 -20 -104 0 -59 4 -99 10 -99 6 0 10 5 10 10 0 6 16 10 35 10 19 0 35 -4
35 -10 0 -5 5 -10 10 -10 6 0 10 28 10 64 0 36 5 68 11 71 5 4 14 18 19 31 8
20 16 24 55 24 l45 0 -1 -47 c0 -27 -3 -66 -7 -88 -7 -36 -11 -40 -42 -45
l-34 -5 27 -18 c20 -13 32 -15 46 -8 19 11 25 35 37 160 l7 74 -29 -6 c-16 -3
-41 -3 -56 0 -23 5 -27 9 -22 29 13 50 -15 21 -33 -33 -17 -54 -18 -56 -21
-26 -3 30 -5 32 -33 26 -31 -6 -42 13 -14 23 8 4 15 10 15 14 0 10 -26 20 -34
13z m42 -104 c-2 -19 -9 -24 -33 -24 -25 0 -30 4 -30 25 0 17 7 26 25 31 31 8
43 -2 38 -32z m2 -79 c0 -28 -3 -30 -35 -30 -32 0 -35 2 -35 30 0 28 3 30 35
30 32 0 35 -2 35 -30z"/>
<path d="M14305 6379 c-5 -16 -12 -19 -31 -15 -24 6 -24 5 -24 -59 0 -37 4
-65 10 -65 6 0 10 5 10 10 0 6 9 10 21 10 33 0 16 -24 -22 -31 -19 -4 -26 -7
-16 -8 20 -1 20 -3 6 -35 l-11 -24 -24 26 c-13 15 -24 22 -24 15 0 -6 5 -15
10 -18 6 -3 10 -17 10 -31 0 -33 7 -31 51 19 l39 42 0 -32 c0 -26 -4 -33 -20
-33 -24 0 -25 -6 -5 -26 23 -23 35 -8 35 43 l0 46 23 -33 c25 -37 53 -58 63
-47 4 4 -7 21 -25 38 -31 29 -32 31 -14 45 10 7 24 14 31 14 17 0 15 17 -3 24
-11 4 -15 21 -15 60 l0 56 -30 -7 c-25 -4 -29 -3 -24 10 3 8 1 18 -5 21 -5 4
-13 -3 -16 -15z m55 -49 c0 -5 -18 -10 -39 -10 -22 0 -43 5 -46 10 -4 6 12 10
39 10 25 0 46 -4 46 -10z m0 -46 c0 -11 -5 -14 -16 -10 -9 3 -29 6 -45 6 -16
0 -29 5 -29 10 0 6 20 10 45 10 35 0 45 -4 45 -16z m3 -31 c9 -9 -13 -34 -24
-27 -14 8 -11 34 4 34 8 0 17 -3 20 -7z"/>
<path d="M9870 6379 c-73 -5 -82 -12 -23 -18 19 -2 6 -87 -23 -147 -15 -31
-34 -56 -51 -64 -24 -11 -25 -14 -10 -18 25 -5 61 30 88 87 22 46 25 61 28
114 1 22 6 27 27 27 l27 0 -8 -91 c-9 -117 -11 -122 -46 -115 -34 7 -39 -9 -6
-18 38 -10 47 -7 58 22 13 33 30 215 21 222 -4 3 -41 2 -82 -1z"/>
<path d="M14019 6380 c-26 -15 -116 -23 -123 -11 -9 14 -96 15 -96 1 0 -5 14
-10 30 -10 36 0 35 0 10 -45 -26 -46 -26 -46 11 -38 29 5 30 5 23 -23 -8 -36
-20 -49 -28 -35 -14 22 -25 10 -14 -14 10 -22 8 -29 -12 -50 -13 -14 -21 -27
-18 -31 3 -3 15 5 27 17 20 21 21 21 48 4 21 -14 48 -19 112 -19 48 -1 86 3
87 9 3 6 -30 10 -86 10 -121 1 -132 10 -102 92 12 32 18 61 13 66 -5 5 -12 4
-15 -2 -10 -16 -26 -14 -26 3 0 17 39 66 40 49 0 -7 13 -9 40 -6 l40 6 0 -82
c0 -67 -3 -81 -16 -81 -13 0 -15 11 -13 62 2 39 -2 63 -9 66 -7 2 -12 -18 -14
-60 -3 -54 -6 -63 -20 -60 -10 2 -18 -2 -18 -8 0 -6 36 -10 95 -10 59 0 95 4
95 10 0 17 -29 23 -45 10 -21 -17 -35 -3 -35 36 0 32 2 34 36 34 24 0 34 4 31
13 -2 7 -17 11 -36 9 -28 -2 -31 1 -31 27 0 23 6 31 30 40 17 5 30 15 30 20 0
13 -19 14 -41 1z"/>
<path d="M14170 6376 c0 -8 -9 -30 -20 -48 -20 -35 -14 -68 11 -52 7 4 2 -7
-10 -25 -29 -40 -17 -58 24 -37 15 8 34 12 41 9 18 -7 17 7 -1 31 -12 16 -15
17 -15 4 0 -9 -6 -18 -14 -21 -28 -11 -25 7 9 49 39 47 42 54 20 54 -8 0 -15
-6 -15 -14 0 -13 -20 -26 -41 -26 -5 0 1 17 15 37 24 35 26 53 5 53 -5 0 -9
-6 -9 -14z"/>
<path d="M6437 6357 c5 -24 -31 -142 -49 -164 -8 -10 -2 -13 25 -13 28 0 35 3
31 15 -4 9 -1 29 6 45 10 23 19 30 40 30 56 0 101 65 68 98 -7 7 -37 12 -69
12 -53 0 -56 -1 -52 -23z m88 -7 c9 -29 -12 -60 -41 -60 -21 0 -25 3 -19 18 4
9 10 27 12 40 7 27 39 29 48 2z"/>
<path d="M6627 6356 c5 -25 -30 -140 -49 -163 -11 -14 5 -17 71 -13 73 4 107
41 82 88 -8 15 -6 23 9 37 43 39 12 75 -64 75 -51 0 -53 -1 -49 -24z m93 -20
c0 -20 -37 -49 -55 -42 -9 3 -14 10 -11 14 3 5 10 21 16 36 8 23 13 25 30 16
11 -6 20 -17 20 -24z m-26 -72 c18 -17 19 -24 8 -42 -9 -13 -67 -33 -75 -25
-9 8 26 83 39 83 7 0 20 -7 28 -16z"/>
<path d="M7489 6366 c9 -10 5 -33 -15 -95 -14 -44 -30 -81 -35 -81 -5 0 -9 -4
-9 -10 0 -13 50 -13 70 0 10 6 11 10 3 10 -7 0 -13 6 -13 13 0 7 6 25 13 40 9
21 19 27 43 27 57 0 99 76 55 100 -11 5 -43 10 -72 10 -42 0 -49 -2 -40 -14z
m83 -51 c-8 -17 -20 -25 -36 -25 -24 0 -24 2 -14 33 14 40 29 50 47 32 12 -11
12 -19 3 -40z"/>
<path d="M7677 6353 c3 -16 -2 -47 -11 -67 -9 -21 -16 -45 -16 -54 0 -8 -7
-23 -16 -33 -15 -16 -13 -18 29 -24 87 -13 164 37 173 111 7 61 -21 87 -100
92 l-63 4 4 -29z m108 -10 c21 -21 15 -85 -10 -113 -20 -22 -80 -44 -95 -35
-6 4 -5 19 5 42 8 19 15 43 15 52 0 59 49 90 85 54z"/>
<path d="M10885 6275 c-38 -52 -72 -95 -77 -95 -4 0 -8 -4 -8 -10 0 -5 11 -10
25 -10 19 0 25 5 25 23 0 29 18 47 47 47 18 0 23 -6 23 -25 0 -14 -4 -25 -10
-25 -5 0 -10 -4 -10 -10 0 -5 18 -10 40 -10 22 0 40 5 40 10 0 6 -5 10 -11 10
-9 0 -10 27 -6 95 3 52 2 95 -2 95 -4 0 -39 -43 -76 -95z m45 0 c0 -18 -5 -25
-20 -25 -20 0 -20 1 -4 25 9 14 18 25 20 25 2 0 4 -11 4 -25z"/>
<path d="M11059 6361 c11 -7 12 -16 4 -38 -6 -15 -18 -54 -28 -85 -10 -32 -22
-58 -27 -58 -4 0 -8 -4 -8 -10 0 -16 109 -11 147 7 68 32 92 108 52 164 -19
27 -25 29 -87 29 -43 0 -62 -3 -53 -9z m113 -28 c48 -43 -13 -152 -85 -153
-27 0 -28 2 -22 33 3 17 10 43 15 57 5 14 11 37 14 53 5 21 12 27 33 27 14 0
35 -7 45 -17z"/>
<path d="M12954 6352 c8 -23 -29 -165 -43 -170 -6 -2 -11 -8 -11 -13 0 -5 29
-9 64 -9 58 0 67 3 85 26 25 32 26 47 6 68 -14 13 -13 16 5 26 27 14 27 65 1
80 -11 5 -41 10 -66 10 -40 0 -46 -2 -41 -18z m92 -16 c9 -23 -15 -56 -40 -56
-22 0 -22 2 -12 35 11 36 41 48 52 21z m-22 -85 c27 -30 -2 -71 -53 -71 -18 0
-19 3 -10 33 6 17 12 38 15 45 5 18 28 15 48 -7z"/>
<path d="M13141 6331 c-21 -21 -41 -51 -43 -66 -7 -36 9 -83 32 -95 28 -15 93
-12 118 6 30 21 28 40 -3 20 -31 -20 -79 -21 -95 -1 -27 33 -3 134 35 149 26
10 75 7 76 -4 1 -5 3 -14 4 -20 1 -5 3 -13 4 -17 2 -13 18 12 25 40 l6 27 -60
0 c-56 0 -62 -2 -99 -39z"/>
<path d="M5640 6349 c0 -7 -16 -32 -36 -56 -35 -43 -41 -69 -9 -43 13 11 15 4
15 -54 0 -95 17 -81 22 19 4 70 8 89 27 109 19 21 20 24 6 30 -23 8 -25 8 -25
-5z"/>
<path d="M1870 6316 c0 -8 4 -17 9 -20 4 -3 6 -18 3 -32 -3 -19 -2 -25 7 -20
17 11 32 53 25 71 -8 19 -44 20 -44 1z"/>
<path d="M8723 6323 c-49 -6 -40 -23 13 -23 31 0 44 4 42 12 -5 14 -13 16 -55
11z"/>
<path d="M8210 6310 c0 -5 -16 -10 -36 -10 -21 0 -33 -4 -29 -10 7 -12 65 -13
81 -2 9 5 8 11 -2 20 -8 7 -14 8 -14 2z"/>
<path d="M5145 6300 c-4 -6 -57 -10 -126 -10 -78 0 -118 -4 -114 -10 7 -12
285 -14 285 -2 0 10 -22 32 -31 32 -4 0 -11 -4 -14 -10z"/>
<path d="M6010 6285 c-9 -23 14 -55 40 -55 21 0 45 49 31 63 -19 19 -63 14
-71 -8z m48 -19 c3 -12 -1 -17 -10 -14 -7 3 -15 13 -16 22 -3 12 1 17 10 14 7
-3 15 -13 16 -22z"/>
<path d="M4732 6293 c24 -49 32 -63 40 -63 14 0 9 38 -8 54 -16 16 -39 22 -32
9z"/>
<path d="M8756 6282 c-3 -5 -19 -7 -36 -4 -18 2 -30 0 -30 -7 0 -6 19 -11 45
-11 25 0 45 4 45 9 0 14 -18 23 -24 13z"/>
<path d="M9523 6255 c20 -31 47 -47 47 -26 0 15 -41 61 -55 61 -10 0 -8 -9 8
-35z"/>
<path d="M10460 6260 c0 -25 4 -30 24 -30 13 0 26 7 30 15 9 25 -4 45 -30 45
-20 0 -24 -5 -24 -30z m40 0 c0 -21 -15 -27 -25 -10 -7 12 2 30 16 30 5 0 9
-9 9 -20z"/>
<path d="M11550 6287 c0 -13 42 -77 51 -77 18 0 8 27 -21 55 -16 16 -30 26
-30 22z"/>
<path d="M13642 6244 c14 -25 24 -32 31 -25 8 8 4 18 -13 36 -34 36 -43 31
-18 -11z"/>
<path d="M8170 6230 c-44 -7 -44 -7 18 -8 40 -1 61 2 57 8 -3 6 -12 9 -18 8
-7 0 -32 -4 -57 -8z"/>
<path d="M547 6224 c-14 -14 -7 -35 11 -32 9 2 17 10 17 17 0 16 -18 25 -28
15z"/>
<path d="M2828 6208 c-20 -24 -24 -48 -8 -48 13 0 32 38 28 55 -2 11 -8 9 -20
-7z"/>
<path d="M2876 6203 c10 -40 14 -41 14 -5 0 18 -5 32 -10 32 -6 0 -8 -11 -4
-27z"/>
<path d="M8550 6222 c0 -5 7 -17 15 -28 14 -19 14 -19 15 2 0 12 -7 24 -15 28
-8 3 -15 2 -15 -2z"/>
<path d="M8465 6193 c8 -31 13 -39 20 -31 9 9 -6 58 -17 58 -6 0 -7 -11 -3
-27z"/>
<path d="M8507 6195 c3 -14 10 -25 15 -25 13 0 6 43 -8 47 -7 2 -10 -6 -7 -22z"/>
<path d="M8417 6184 c-20 -27 -17 -40 8 -31 8 4 15 18 15 32 0 31 0 31 -23 -1z"/>
<path d="M10060 6204 c0 -16 24 -64 33 -64 15 0 6 38 -13 55 -11 10 -20 14
-20 9z"/>
<path d="M12118 6170 c12 -21 18 -25 20 -14 4 16 -15 44 -29 44 -4 0 0 -13 9
-30z"/>
<path d="M14170 6188 c1 -19 29 -53 37 -45 8 8 -17 57 -29 57 -4 0 -8 -6 -8
-12z"/>
<path d="M10035 6165 c8 -37 12 -42 26 -28 7 7 3 17 -11 34 l-21 24 6 -30z"/>
<path d="M12070 6170 c0 -5 5 -10 10 -10 6 0 10 -7 10 -15 0 -8 7 -15 15 -15
18 0 19 9 1 33 -14 19 -36 23 -36 7z"/>
<path d="M12475 6170 c-3 -5 -21 -17 -40 -26 -19 -9 -32 -20 -30 -25 6 -9 51
7 76 28 8 7 21 13 27 13 7 0 12 5 12 10 0 13 -37 13 -45 0z"/>
<path d="M12613 6150 c54 -34 57 -35 57 -17 0 17 -52 47 -81 47 -18 0 -14 -6
24 -30z"/>
<path d="M14145 6158 c10 -31 25 -47 25 -26 0 24 -11 48 -22 48 -5 0 -6 -10
-3 -22z"/>
<path d="M1150 6005 c0 -31 -3 -35 -27 -36 -24 -2 -25 -2 -5 -6 29 -6 28 -27
-3 -82 -14 -24 -23 -46 -20 -49 3 -3 6 -3 8 -1 2 2 13 17 25 33 l22 29 0 -72
c0 -53 3 -72 12 -69 12 4 14 22 17 111 l1 37 20 -20 c15 -15 20 -33 20 -69 0
-48 12 -72 25 -51 9 14 82 12 88 -2 11 -33 17 9 18 128 2 156 2 149 -16 134
-10 -9 -32 -11 -65 -7 -44 5 -50 4 -50 -12 0 -10 -9 -21 -20 -24 -17 -4 -20 0
-20 29 0 24 -5 34 -15 34 -10 0 -15 -11 -15 -35z m180 -29 c0 -31 -7 -35 -47
-29 -27 4 -33 10 -33 29 0 21 5 24 40 24 36 0 40 -3 40 -24z m-111 -58 c-1
-24 -4 -34 -6 -23 -3 11 -14 26 -25 34 -16 11 -17 15 -7 22 29 18 39 10 38
-33z m111 -18 c0 -28 -2 -30 -40 -30 -38 0 -40 2 -40 30 0 28 2 30 40 30 38 0
40 -2 40 -30z m-2 -77 c3 -32 2 -33 -37 -33 -40 0 -41 1 -41 36 0 35 1 35 38
32 34 -3 37 -6 40 -35z"/>
<path d="M1544 6018 l6 -28 -61 0 c-34 0 -59 -3 -56 -6 8 -8 258 -7 265 1 3 3
0 11 -6 17 -10 10 -17 10 -32 0 -27 -17 -90 -16 -90 2 0 7 -7 20 -17 27 -15
13 -16 11 -9 -13z"/>
<path d="M1795 6011 c6 -29 5 -31 -22 -32 -24 -2 -25 -2 -5 -6 22 -4 23 -7 16
-66 -4 -34 -13 -80 -20 -102 -7 -21 -11 -41 -8 -44 10 -10 31 35 43 90 8 40
17 59 26 59 16 0 19 -30 9 -92 -5 -30 -11 -38 -27 -38 -19 0 -20 -2 -6 -15 32
-32 58 9 59 92 0 12 15 37 33 55 18 18 37 44 43 57 10 24 11 23 38 -22 25 -43
43 -56 59 -41 3 3 -12 24 -34 46 -21 22 -39 49 -39 59 0 34 -17 28 -35 -14
-27 -63 -39 -74 -80 -69 -26 3 -35 9 -35 23 0 15 7 19 35 19 19 0 35 5 35 11
0 7 -10 9 -25 5 -21 -5 -27 -2 -35 18 -14 39 -33 44 -25 7z"/>
<path d="M3063 6020 c-5 -18 -12 -21 -39 -18 -24 3 -34 0 -34 -9 0 -10 9 -12
34 -8 29 6 35 4 41 -14 7 -24 25 -28 25 -7 0 8 9 18 20 21 11 4 18 11 14 16
-3 6 -12 8 -20 5 -8 -3 -14 1 -14 9 0 24 -21 28 -27 5z"/>
<path d="M3175 6020 c-3 -11 -13 -20 -21 -20 -19 0 -18 -7 5 -31 l19 -21 12
22 c9 17 17 20 40 15 34 -7 60 3 39 15 -7 5 -27 6 -46 3 -27 -5 -32 -3 -28 10
4 8 2 18 -4 21 -5 4 -12 -3 -16 -14z"/>
<path d="M5818 6012 l-58 -3 0 -101 c0 -86 2 -99 16 -94 18 7 11 -8 -19 -41
-15 -17 -17 -23 -7 -23 8 0 31 19 51 42 32 38 38 41 53 29 9 -8 18 -12 21 -10
5 6 9 199 4 202 -2 1 -30 1 -61 -1z m42 -42 c0 -17 -7 -20 -40 -20 -33 0 -40
3 -40 20 0 17 7 20 40 20 33 0 40 -3 40 -20z m0 -55 c0 -22 -4 -25 -40 -25
-36 0 -40 3 -40 25 0 23 4 25 40 25 36 0 40 -2 40 -25z m-2 -57 c3 -15 -4 -18
-37 -18 -35 0 -41 3 -41 21 0 17 5 20 37 17 27 -2 39 -8 41 -20z"/>
<path d="M5990 5896 l0 -126 -32 0 -33 -1 34 -15 c19 -8 38 -11 42 -7 13 13
13 267 0 271 -8 3 -11 -34 -11 -122z"/>
<path d="M2297 5974 c-62 -59 -76 -127 -33 -161 l24 -19 -25 -22 c-14 -13 -24
-24 -22 -26 2 -2 31 -6 64 -10 50 -5 65 -3 94 14 18 12 30 24 27 27 -4 4 -12
1 -18 -5 -18 -18 -108 -16 -108 2 0 15 21 26 49 26 21 0 73 54 89 93 18 42 15
65 -13 92 -37 37 -81 33 -128 -11z m107 0 c11 -28 6 -56 -16 -102 -33 -66 -91
-80 -104 -25 -8 32 12 99 37 124 23 23 74 25 83 3z"/>
<path d="M3632 5901 c-52 -53 -96 -99 -99 -103 -4 -5 42 -8 100 -8 65 0 107 4
107 10 0 6 -34 10 -82 10 l-83 0 88 88 c74 75 96 106 68 101 -3 -1 -48 -45
-99 -98z"/>
<path d="M3843 5987 c7 -19 -27 -163 -44 -183 -10 -12 -2 -14 52 -14 73 0 84
5 98 42 7 19 6 31 -4 44 -11 16 -10 20 6 32 25 17 26 69 2 76 -10 3 -40 8 -67
12 -42 6 -48 4 -43 -9z m87 -27 c8 -15 6 -24 -10 -40 -20 -20 -50 -27 -50 -11
0 4 5 22 11 40 12 35 33 40 49 11z m-8 -93 c10 -17 -14 -49 -46 -60 -36 -12
-40 -6 -25 43 11 37 15 41 38 35 14 -4 29 -12 33 -18z"/>
<path d="M4250 5992 c-18 -5 -25 -14 -26 -32 -1 -14 -6 -38 -12 -55 -6 -16
-14 -42 -17 -57 -3 -15 -12 -33 -20 -41 -20 -20 -9 -27 45 -27 64 0 116 24
140 63 33 54 20 130 -24 140 -11 3 -30 8 -41 10 -11 3 -31 2 -45 -1z m87 -77
c2 -37 -2 -56 -16 -72 -30 -36 -101 -57 -101 -30 0 6 10 45 22 85 l23 73 35
-3 c35 -3 35 -4 37 -53z"/>
<path d="M4892 5980 c-26 -25 -28 -47 -5 -72 15 -17 15 -20 -7 -43 -20 -21
-22 -28 -12 -50 18 -38 60 -51 91 -27 34 25 37 48 11 83 -19 27 -19 31 -5 45
24 24 19 59 -10 72 -34 16 -38 15 -63 -8z m58 -33 c0 -30 -10 -40 -27 -26 -20
18 -16 49 7 49 14 0 20 -7 20 -23z m-12 -89 c19 -19 15 -58 -7 -58 -20 0 -34
32 -24 56 6 17 15 18 31 2z"/>
<path d="M5030 5975 c-22 -23 -22 -25 -6 -50 28 -42 86 -28 86 21 0 44 -50 61
-80 29z m58 -26 c4 -19 -27 -34 -41 -20 -14 14 0 43 20 39 10 -2 19 -10 21
-19z"/>
<path d="M5920 5899 c0 -59 4 -99 10 -99 9 0 16 82 11 143 -1 15 3 27 8 27 19
0 12 17 -9 23 -19 5 -20 0 -20 -94z"/>
<path d="M4036 5979 c7 -12 -20 -119 -41 -162 -13 -24 -13 -29 0 -33 20 -8 48
3 40 16 -4 6 -1 26 5 45 10 30 16 35 44 35 57 0 98 64 64 98 -16 16 -122 16
-112 1z m82 -37 c3 -34 -10 -46 -46 -40 -19 3 -19 5 -5 41 19 47 47 47 51 -1z"/>
<path d="M4762 5980 c-25 -11 -61 -81 -62 -120 0 -14 11 -38 25 -53 48 -51
105 -25 105 50 0 32 -5 42 -24 53 -14 7 -32 10 -40 7 -38 -15 2 42 42 59 l27
12 -25 1 c-14 0 -35 -4 -48 -9z m24 -97 c29 -39 3 -101 -31 -73 -18 15 -20 76
-2 83 19 8 19 8 33 -10z"/>
<path d="M6382 5891 c-56 -58 -101 -106 -99 -107 1 -2 47 -4 102 -5 67 -1 100
2 103 10 3 8 -22 11 -79 11 l-84 0 84 84 c47 48 81 90 79 97 -3 9 -42 -24
-106 -90z"/>
<path d="M6672 5963 c-31 -41 -83 -113 -109 -150 l-22 -33 22 0 c16 0 23 6 24
22 2 26 28 48 55 48 24 0 24 -45 1 -59 -14 -8 -9 -10 27 -11 33 0 41 3 32 12
-8 8 -9 40 -5 105 3 51 4 93 1 93 -3 0 -14 -12 -26 -27z m-12 -78 c0 -19 -5
-25 -20 -25 -20 0 -20 1 -3 25 22 30 23 30 23 0z"/>
<path d="M6835 5976 c-38 -17 -60 -42 -80 -90 -19 -45 -8 -87 28 -103 20 -9
20 -10 -11 -28 -18 -11 -32 -23 -32 -27 0 -4 38 -8 83 -8 71 0 87 3 102 20 16
18 16 20 2 20 -10 0 -17 -4 -17 -10 0 -12 -66 -12 -95 0 -19 7 -18 9 8 19 16
6 33 11 38 11 5 0 27 18 49 40 36 36 40 45 40 89 0 40 -4 53 -22 65 -27 19
-53 20 -93 2z m81 -30 c9 -38 -14 -102 -47 -130 -50 -42 -79 -29 -79 36 0 63
42 118 92 118 21 0 29 -6 34 -24z"/>
<path d="M7016 5965 c4 -8 -1 -37 -9 -63 -8 -26 -18 -62 -22 -79 -4 -18 -11
-33 -16 -33 -6 0 -7 -5 -3 -11 8 -13 91 -5 129 13 30 13 41 55 21 77 -14 15
-13 18 4 29 25 15 27 67 4 76 -9 3 -38 6 -65 6 -39 0 -47 -3 -43 -15z m83 -12
c13 -25 -4 -53 -33 -53 -23 0 -24 2 -13 35 11 38 30 45 46 18z m-5 -96 c9 -15
6 -23 -17 -43 -50 -43 -77 -27 -53 31 12 28 20 36 37 33 12 -2 27 -11 33 -21z"/>
<path d="M1467 5927 c-21 -22 -36 -42 -34 -44 7 -6 91 61 88 70 -8 17 -18 12
-54 -26z"/>
<path d="M1625 5930 c25 -25 43 -36 49 -30 12 12 -8 36 -45 56 -45 23 -46 17
-4 -26z"/>
<path d="M3092 5934 c-11 -23 -16 -25 -57 -18 -30 4 -45 3 -45 -5 0 -6 17 -11
40 -11 24 0 40 -5 40 -12 0 -6 -18 -28 -40 -49 -22 -21 -40 -41 -40 -44 0 -11
18 -4 40 15 33 29 41 25 38 -17 -2 -26 1 -38 10 -37 6 1 46 2 87 3 l75 1 0 48
0 49 -80 -5 -81 -5 12 27 c12 25 15 26 102 26 80 0 88 2 77 15 -8 9 -20 13
-29 9 -9 -3 -40 -7 -69 -8 -50 -1 -53 0 -47 21 8 32 -19 30 -33 -3z m118 -129
l0 -30 -60 0 c-58 0 -60 1 -60 27 0 29 16 36 82 34 35 -1 38 -3 38 -31z"/>
<path d="M1586 5895 c-23 -48 -29 -49 -51 -9 -10 19 -22 34 -26 34 -12 0 8
-48 26 -67 14 -14 13 -17 -7 -37 -13 -12 -40 -30 -61 -41 -21 -11 -33 -21 -28
-23 13 -4 97 37 112 54 10 12 16 11 43 -9 51 -38 83 -48 96 -32 9 11 4 16 -27
24 -21 6 -49 20 -62 30 l-25 19 28 36 c15 20 24 41 21 46 -11 18 -22 11 -39
-25z"/>
<path d="M2640 5915 c-19 -23 -1 -49 34 -53 25 -3 27 -1 24 30 -3 38 -35 50
-58 23z m40 -25 c0 -11 -4 -20 -9 -20 -14 0 -23 18 -16 30 10 17 25 11 25 -10z"/>
<path d="M5404 5915 c-4 -9 -2 -21 4 -27 8 -8 8 -17 1 -30 -6 -12 -6 -18 0
-18 15 0 33 38 29 62 -4 27 -26 35 -34 13z"/>
<path d="M1920 5913 c0 -4 14 -21 30 -36 21 -20 30 -24 30 -14 0 9 -13 25 -30
37 -16 12 -30 18 -30 13z"/>
<path d="M4468 5889 c-21 -14 -4 -19 70 -21 64 -1 94 4 81 16 -8 8 -140 12
-151 5z"/>
<path d="M7220 5884 c0 -11 18 -14 80 -14 65 0 80 3 80 15 0 12 -15 15 -80 14
-61 -1 -80 -4 -80 -15z"/>
<path d="M4460 5826 c0 -13 12 -16 74 -16 41 0 78 5 81 10 4 6 -8 10 -28 10
-19 0 -55 3 -81 6 -38 6 -46 4 -46 -10z"/>
<path d="M7223 5828 c6 -18 157 -18 157 -1 0 10 -22 13 -81 13 -60 0 -80 -3
-76 -12z"/>
<path d="M1910 5826 c0 -10 69 -74 74 -69 13 13 5 29 -27 51 -31 20 -47 27
-47 18z"/>
<path d="M5841 5815 c19 -43 34 -65 46 -65 10 0 11 5 4 18 -10 19 -57 63 -50
47z"/>
<path d="M2919 5195 c-26 -14 -46 -55 -28 -55 5 0 9 4 9 10 0 16 49 23 65 10
27 -22 17 -55 -35 -110 -27 -29 -50 -55 -50 -57 0 -2 30 -3 67 -1 53 2 68 7
71 19 3 14 -4 16 -45 12 l-48 -6 28 23 c57 46 74 118 35 151 -27 22 -35 23
-69 4z"/>
<path d="M3068 5192 c-16 -9 -28 -25 -28 -34 0 -22 7 -23 27 -2 20 20 57 14
61 -9 7 -35 -8 -66 -50 -107 -23 -22 -39 -42 -37 -45 6 -6 54 -9 95 -7 22 1
33 8 37 21 4 16 0 18 -42 13 l-46 -4 31 33 c61 66 69 106 28 138 -32 25 -41
26 -76 3z"/>
<path d="M8690 5194 c-226 -40 -369 -78 -531 -144 -95 -38 -147 -62 -264 -124
-38 -21 -125 -75 -135 -86 -3 -3 -27 -21 -55 -40 -62 -43 -60 -41 -120 -91
-54 -45 -157 -142 -184 -173 -9 -10 -47 -50 -85 -90 -38 -39 -80 -88 -94 -108
-13 -21 -29 -38 -33 -38 -5 0 -9 -5 -9 -11 0 -6 -17 -36 -37 -67 -21 -31 -42
-64 -48 -73 -5 -10 -25 -44 -44 -76 -139 -237 -248 -526 -281 -748 -6 -33 -14
-78 -20 -100 -5 -22 -12 -76 -15 -120 -2 -44 -7 -117 -11 -162 -12 -146 34
-472 88 -628 5 -16 14 -49 19 -72 4 -23 27 -86 49 -139 40 -92 46 -106 70
-154 6 -11 10 -27 10 -35 0 -8 4 -15 9 -15 5 0 13 -10 17 -22 3 -13 19 -42 35
-66 16 -24 36 -57 45 -74 20 -38 82 -124 144 -199 52 -63 247 -259 258 -259 4
0 25 -16 47 -35 22 -20 48 -38 58 -41 9 -3 17 -10 17 -15 0 -5 7 -9 15 -9 9 0
18 -7 21 -15 4 -8 10 -15 15 -15 5 0 28 -14 51 -30 22 -17 47 -30 54 -30 7 0
14 -4 16 -9 3 -7 157 -84 226 -112 12 -5 32 -13 45 -19 94 -42 224 -76 372
-99 33 -6 85 -14 117 -20 31 -5 321 -12 645 -16 323 -3 791 -8 1038 -10 918
-10 1978 -7 1986 6 4 7 -5 40 -21 73 -16 34 -43 95 -61 136 -17 41 -43 100
-56 130 -14 30 -29 66 -35 80 -6 14 -18 41 -26 60 -8 19 -21 51 -29 70 -18 41
-29 66 -83 183 -22 48 -40 89 -40 91 0 3 -16 39 -35 80 -19 42 -35 79 -35 83
0 3 -11 29 -24 57 -22 46 -53 114 -91 201 -7 17 -30 66 -50 110 -21 44 -43 96
-50 115 -12 32 -32 77 -100 225 -47 101 -52 91 96 188 72 48 135 87 140 87 5
0 9 4 9 8 0 4 23 21 50 37 28 16 50 33 50 37 0 4 4 8 9 8 10 0 253 158 279
180 18 16 173 120 178 120 3 0 29 18 59 40 30 22 56 40 58 40 3 0 61 38 130
84 69 46 130 86 134 87 12 6 127 83 133 90 3 3 46 31 95 63 108 70 196 128
210 139 5 4 44 29 85 55 41 25 80 50 85 55 41 32 193 137 236 161 15 9 29 22
33 31 4 12 -1 14 -32 10 -20 -2 -129 -7 -242 -9 -113 -3 -342 -10 -510 -16
-865 -30 -1178 -40 -1415 -45 -143 -3 -311 -8 -373 -12 l-114 -6 -24 29 c-13
16 -23 35 -24 42 0 6 -4 12 -9 12 -5 0 -12 12 -15 26 -10 39 -56 131 -99 196
-20 31 -37 60 -37 63 0 3 -4 11 -10 18 -21 25 -106 140 -121 163 -30 46 -196
209 -284 279 -21 17 -43 35 -49 40 -60 54 -335 211 -446 253 -19 8 -44 18 -55
23 -80 35 -223 71 -435 109 -105 19 -440 22 -540 4z m410 -24 c151 -11 198
-18 340 -51 88 -21 123 -32 177 -55 17 -8 35 -14 41 -14 21 0 298 -132 312
-149 3 -3 21 -15 40 -26 130 -72 400 -311 473 -417 12 -19 39 -54 59 -79 45
-55 139 -211 177 -292 48 -102 63 -138 59 -142 -1 -1 -115 -6 -252 -9 -138 -4
-252 -9 -255 -11 -6 -3 -230 -10 -696 -21 -143 -3 -262 -7 -265 -9 -3 -2 -124
-6 -270 -9 -267 -6 -507 -14 -655 -21 -78 -4 -222 -8 -670 -21 -121 -3 -222
-8 -225 -9 -3 -2 -91 -5 -195 -6 -105 -1 -225 -5 -267 -8 -75 -7 -78 -6 -72
14 4 11 18 37 30 57 13 21 24 44 24 52 0 8 5 18 11 22 6 3 20 25 30 48 25 52
141 235 196 308 75 99 389 407 416 408 5 0 5 5 1 12 -4 6 -3 8 3 5 6 -4 20 2
32 12 13 11 52 39 89 63 37 23 72 48 78 54 24 22 275 141 349 164 22 7 54 19
70 26 97 41 209 67 445 101 91 13 217 14 370 3z m4320 -1198 c-13 -9 -76 -52
-139 -94 -64 -42 -120 -81 -126 -85 -5 -5 -46 -31 -90 -58 -44 -27 -82 -52
-85 -55 -9 -10 -132 -90 -139 -90 -14 0 -51 50 -81 109 -31 63 -63 194 -58
239 l3 27 315 12 c173 6 338 13 365 15 62 4 65 2 35 -20z m-743 -81 c6 -96 62
-240 116 -298 11 -13 19 -25 16 -27 -10 -10 -112 -76 -117 -76 -3 0 -28 -17
-56 -38 -28 -21 -73 -51 -101 -67 -27 -16 -52 -32 -55 -35 -3 -3 -32 -23 -65
-45 -33 -22 -62 -43 -65 -46 -3 -3 -16 -12 -30 -19 -14 -7 -69 -42 -123 -79
-53 -36 -106 -71 -118 -77 -11 -6 -30 -20 -42 -31 -12 -11 -67 -49 -122 -85
-150 -98 -351 -231 -434 -287 -68 -46 -76 -48 -87 -33 -8 9 -14 22 -14 27 0 6
-6 22 -14 37 -8 15 -51 114 -96 220 -45 106 -97 229 -117 273 -20 44 -42 94
-49 110 -7 17 -36 79 -64 139 -27 59 -50 110 -50 112 0 1 -20 46 -45 98 -25
53 -45 98 -45 101 0 2 -11 28 -24 57 -41 91 -41 88 12 89 26 1 58 3 72 4 14 2
150 6 303 9 153 3 282 8 285 10 4 2 131 7 282 10 362 8 623 16 626 19 1 1 51
2 109 2 l107 0 5 -74z m-1870 2 c24 -57 64 -185 73 -230 9 -49 19 -96 48 -218
24 -104 23 -542 -2 -675 -22 -114 -69 -312 -87 -360 -11 -32 -42 -114 -68
-182 l-10 -27 -73 30 c-40 17 -77 34 -83 38 -5 4 -28 13 -50 20 -22 7 -69 26
-105 43 -36 16 -78 35 -95 42 -37 16 -23 10 -370 156 -159 67 -347 146 -417
176 -70 30 -130 54 -134 54 -4 0 -28 9 -53 21 -25 12 -62 28 -81 36 -19 8 -48
21 -63 29 -16 8 -33 14 -38 14 -6 0 -34 11 -62 24 -29 13 -77 33 -107 46 -30
12 -77 32 -105 45 -27 12 -77 33 -110 45 -33 13 -73 31 -90 40 -16 9 -61 29
-100 44 -38 16 -77 32 -86 36 -9 5 -88 38 -175 75 -196 82 -270 114 -309 130
-16 8 -61 26 -100 41 -70 27 -116 46 -187 78 -20 9 -40 16 -44 16 -4 0 -28 9
-53 21 -91 40 -107 47 -176 74 -38 15 -83 33 -100 40 -36 16 -372 154 -399
164 -17 7 218 18 759 37 88 3 185 7 215 9 30 1 163 5 295 9 132 4 292 9 355
11 63 2 221 7 350 10 230 5 530 15 620 20 25 1 185 5 355 9 171 4 342 9 380
11 39 3 153 8 255 11 102 3 187 8 189 10 12 11 27 1 38 -23z m-3853 -165 c9
-18 25 -45 34 -59 9 -14 45 -73 79 -130 35 -57 69 -113 78 -124 8 -10 15 -25
15 -32 0 -7 5 -13 10 -13 6 0 10 -6 10 -14 0 -8 4 -16 8 -18 4 -1 21 -25 37
-53 15 -27 56 -93 90 -145 34 -52 67 -110 74 -127 8 -18 17 -33 22 -33 5 0 9
-5 9 -12 0 -6 25 -48 55 -93 30 -45 55 -85 55 -89 0 -3 15 -28 33 -54 44 -66
54 -81 78 -127 12 -22 51 -86 85 -141 35 -56 64 -106 64 -112 0 -6 3 -12 8
-14 9 -4 44 -58 117 -183 33 -55 74 -121 92 -147 18 -26 33 -50 33 -52 0 -3
14 -25 30 -49 17 -25 30 -48 30 -52 0 -3 10 -21 23 -38 12 -18 27 -41 34 -52
6 -11 45 -74 86 -140 75 -121 134 -220 152 -256 5 -10 13 -19 17 -19 4 0 17
-19 28 -42 12 -24 27 -52 33 -63 97 -160 141 -233 189 -307 64 -100 69 -96
-84 -82 -73 7 -158 18 -188 24 -275 60 -453 129 -670 259 -41 25 -77 48 -80
51 -3 4 -27 22 -55 40 -27 19 -56 40 -63 47 -8 7 -30 26 -50 41 -50 37 -177
165 -232 232 -25 30 -48 57 -51 60 -10 7 -99 139 -99 146 0 3 -11 20 -24 37
-41 56 -196 392 -196 427 0 9 -4 20 -9 25 -11 13 -51 193 -86 385 -20 115 -20
438 0 535 8 38 15 88 15 111 0 22 6 60 14 85 8 24 19 71 26 104 22 102 90 295
104 295 2 0 11 -15 20 -32z m61 12 c3 -5 13 -10 21 -10 7 0 44 -14 81 -31 88
-40 113 -51 198 -84 65 -25 94 -37 170 -70 17 -7 62 -25 100 -40 39 -14 79
-30 90 -35 11 -5 92 -39 180 -75 88 -37 174 -73 192 -81 17 -8 34 -14 38 -14
3 0 30 -11 58 -24 29 -12 88 -38 132 -55 44 -18 84 -37 90 -42 5 -5 16 -9 24
-9 8 0 34 -9 58 -20 24 -11 64 -29 91 -41 26 -11 74 -33 108 -50 34 -16 65
-29 69 -29 9 0 120 -46 157 -66 14 -8 31 -14 38 -14 6 0 38 -13 72 -30 33 -16
64 -30 69 -30 6 0 38 -13 72 -29 79 -36 143 -63 347 -146 91 -37 193 -80 227
-96 35 -16 65 -29 68 -29 4 0 31 -11 61 -25 30 -14 58 -25 61 -25 4 0 34 -13
67 -29 34 -16 86 -39 116 -51 30 -13 70 -29 87 -37 18 -7 62 -25 98 -38 36
-14 74 -29 85 -35 43 -22 59 -29 170 -74 63 -26 129 -53 145 -61 17 -7 40 -16
53 -20 12 -3 22 -9 21 -13 0 -4 -27 -25 -60 -47 -137 -91 -168 -111 -210 -139
-24 -16 -46 -32 -49 -36 -3 -4 -21 -15 -40 -25 -19 -10 -37 -21 -40 -24 -3 -3
-27 -22 -55 -41 -27 -19 -56 -40 -63 -47 -7 -7 -20 -13 -28 -13 -8 0 -14 -4
-14 -9 0 -5 -19 -19 -42 -31 -24 -12 -45 -25 -48 -29 -5 -6 -34 -26 -129 -87
-168 -110 -202 -132 -237 -157 -21 -15 -61 -42 -88 -60 -27 -18 -57 -37 -65
-42 -9 -6 -43 -28 -76 -49 -33 -22 -76 -51 -95 -66 -19 -15 -57 -39 -85 -55
-27 -15 -52 -30 -55 -34 -3 -3 -72 -51 -155 -105 -82 -54 -168 -111 -190 -127
-22 -16 -53 -36 -70 -45 -16 -9 -40 -25 -52 -36 -24 -22 -50 -18 -60 9 -4 9
-24 43 -45 75 -21 31 -38 61 -38 65 0 4 -21 40 -46 78 -25 39 -52 81 -60 95
-8 14 -23 39 -34 55 -10 17 -30 51 -45 78 -14 26 -45 78 -68 115 -24 37 -60
96 -80 132 -20 36 -50 83 -66 105 -25 35 -130 209 -171 283 -8 15 -19 30 -23
33 -5 4 -14 16 -20 27 -31 54 -105 176 -120 196 -21 29 -60 94 -137 224 -47
79 -93 155 -102 170 -10 15 -21 34 -25 42 -3 8 -27 47 -53 85 -26 39 -62 97
-80 130 -19 33 -36 62 -40 65 -3 3 -26 39 -50 80 -61 101 -62 102 -89 154 -14
25 -28 46 -32 46 -5 0 -16 17 -26 38 -9 20 -21 42 -25 47 -24 30 -158 252
-158 263 0 6 -3 12 -8 12 -4 0 -16 17 -27 38 -11 20 -23 42 -28 47 -4 6 -18
27 -32 48 -23 35 -23 37 -5 37 10 0 22 -4 25 -10z m3927 -137 c17 -38 48 -105
69 -151 22 -46 39 -85 39 -87 0 -2 18 -43 40 -90 22 -47 40 -88 40 -90 0 -3
11 -28 25 -57 13 -29 34 -77 45 -107 12 -30 33 -80 46 -110 14 -31 32 -69 39
-86 28 -64 44 -102 61 -140 9 -22 20 -47 25 -55 6 -12 -9 -26 -59 -60 -37 -25
-69 -47 -72 -50 -4 -5 -51 -37 -173 -119 -244 -164 -258 -172 -250 -143 3 15
17 51 30 80 13 29 23 63 23 75 1 12 7 33 15 47 8 14 14 35 15 48 0 13 6 44 14
70 21 68 43 185 54 282 11 88 9 461 -3 540 -8 58 -43 214 -55 245 -19 51 2 22
32 -42z m468 -1062 c0 -8 6 -22 13 -30 7 -9 19 -34 26 -56 7 -22 24 -65 38
-95 48 -104 61 -135 76 -170 8 -19 38 -86 66 -147 28 -62 51 -116 51 -120 0
-4 14 -37 31 -73 17 -36 37 -78 44 -95 8 -16 25 -55 39 -86 14 -31 26 -59 26
-62 0 -3 22 -52 48 -109 27 -57 84 -186 127 -288 42 -102 89 -207 102 -235 24
-49 53 -123 53 -137 0 -9 -1111 -8 -2255 1 -659 5 -752 8 -700 19 33 7 71 17
85 22 14 4 59 18 100 30 41 13 84 26 95 31 11 5 56 22 100 39 169 66 410 211
565 339 100 83 350 340 350 360 0 4 14 23 31 42 17 19 38 48 46 64 9 17 19 32
23 35 9 6 95 157 125 220 75 153 60 137 202 229 73 47 200 132 283 189 84 56
155 102 160 102 4 0 11 7 14 17 6 14 8 14 21 -3 8 -10 15 -25 15 -33z m-689
-423 c-39 -101 -196 -355 -288 -467 -85 -101 -274 -282 -373 -354 -58 -42
-117 -85 -131 -96 -14 -11 -38 -26 -53 -32 -14 -7 -26 -16 -26 -21 0 -4 -5 -8
-12 -8 -6 0 -19 -6 -27 -13 -35 -29 -310 -149 -406 -177 -16 -5 -61 -18 -100
-30 -114 -34 -192 -49 -345 -65 -183 -19 -176 -19 -160 0 7 8 17 15 22 15 6 0
27 14 48 30 21 17 41 30 45 30 4 0 24 14 45 30 21 16 42 30 47 30 5 0 18 8 29
18 22 20 116 81 157 101 15 8 27 18 27 23 0 5 8 12 18 16 20 8 135 82 142 92
3 3 23 17 45 30 22 13 42 27 45 30 6 8 181 124 195 129 5 2 24 15 41 28 17 12
35 23 40 23 5 0 21 11 36 25 15 14 29 25 31 25 3 0 55 34 116 75 62 41 116 75
121 75 6 0 10 5 10 10 0 6 5 10 10 10 6 0 28 12 49 28 55 39 72 50 118 80 22
15 87 59 144 98 199 135 228 154 239 154 5 0 10 4 10 9 0 7 81 65 97 70 1 1
-1 -9 -6 -21z"/>
<path d="M10915 2158 c-49 -11 -73 -32 -97 -87 -19 -41 -19 -45 -3 -81 14 -31
24 -39 52 -45 50 -9 113 17 113 48 0 6 -8 3 -18 -6 -27 -24 -73 -31 -96 -14
-38 28 -19 123 31 161 32 24 71 14 79 -20 8 -31 21 -20 26 20 3 25 -1 29 -23
30 -14 1 -43 -2 -64 -6z"/>
<path d="M2044 5184 c-10 -31 -44 -113 -64 -156 -7 -16 -17 -28 -22 -28 -4 0
-8 -4 -8 -10 0 -5 13 -10 30 -10 22 0 29 4 28 18 -4 46 1 52 41 52 32 0 41 -4
47 -22 4 -13 2 -24 -5 -26 -26 -9 -8 -22 29 -22 43 0 48 5 26 29 -14 15 -36
69 -57 137 -13 43 -37 63 -45 38z m26 -96 c0 -11 -8 -18 -20 -18 -23 0 -27 29
-8 48 14 14 28 -1 28 -30z"/>
<path d="M3214 5186 c-3 -8 -4 -27 -2 -43 3 -25 7 -28 37 -28 43 0 60 23 43
59 -9 20 -19 26 -42 26 -17 0 -33 -6 -36 -14z m53 -17 c14 -14 6 -39 -12 -39
-18 0 -28 17 -21 35 6 18 18 19 33 4z"/>
<path d="M3580 5105 c-21 -25 -8 -50 28 -53 28 -3 32 0 32 20 0 42 -36 62 -60
33z m40 -26 c0 -24 -23 -21 -28 4 -2 10 3 17 12 17 10 0 16 -9 16 -21z"/>
<path d="M2185 5010 c-4 -7 -3 -16 3 -22 14 -14 45 -2 40 15 -6 16 -34 21 -43
7z"/>
<path d="M1960 4430 c0 -5 5 -10 10 -10 6 0 10 -37 10 -90 0 -53 -4 -90 -10
-90 -5 0 -10 -4 -10 -10 0 -11 65 -13 122 -4 30 5 39 12 47 37 8 22 8 34 -1
44 -6 8 -11 34 -9 58 2 40 -1 46 -28 60 -33 17 -131 21 -131 5z m114 -31 c8
-12 12 -27 10 -34 -6 -15 -40 -26 -60 -18 -14 5 -20 54 -7 66 13 14 42 6 57
-14z m-10 -80 c14 -7 28 -19 31 -27 8 -23 -25 -53 -54 -50 -23 3 -26 8 -29 46
-3 46 6 52 52 31z"/>
<path d="M2903 4425 c-23 -16 -31 -45 -13 -45 6 0 10 4 10 10 0 5 10 14 21 21
18 9 25 7 41 -9 26 -26 19 -48 -38 -114 -24 -28 -44 -56 -44 -60 0 -5 28 -8
61 -6 54 3 63 6 70 27 8 20 7 22 -8 16 -31 -13 -73 -18 -73 -8 0 5 16 26 35
45 37 36 54 91 37 116 -14 21 -74 25 -99 7z"/>
<path d="M3069 4421 l-24 -19 19 -36 c18 -34 18 -37 3 -54 -34 -38 -10 -92 40
-92 57 0 84 68 43 105 -19 17 -19 18 0 43 24 30 25 36 4 56 -21 22 -57 20 -85
-3z m61 -31 c0 -33 -11 -38 -30 -15 -15 18 -6 45 15 45 10 0 15 -10 15 -30z
m-10 -84 c15 -20 9 -61 -10 -61 -10 0 -16 12 -18 38 -3 39 7 47 28 23z"/>
<path d="M3224 4432 c-33 -23 -15 -92 25 -92 24 0 51 31 51 58 0 31 -48 53
-76 34z m43 -23 c16 -16 5 -39 -18 -39 -12 0 -19 7 -19 18 0 31 17 41 37 21z"/>
<path d="M3586 4344 c-27 -27 -16 -64 20 -64 31 0 49 33 32 60 -15 24 -31 25
-52 4z m42 -27 c2 -10 -3 -17 -12 -17 -10 0 -16 9 -16 21 0 24 23 21 28 -4z"/>
<path d="M13710 4303 c-50 -18 -90 -83 -90 -146 0 -35 5 -48 22 -59 l22 -15
-22 -12 c-12 -6 -22 -18 -22 -26 0 -12 16 -15 73 -15 61 0 77 3 92 20 20 22
14 26 -13 9 -21 -13 -120 -3 -106 11 5 4 25 13 46 19 49 16 84 50 101 102 28
82 -25 140 -103 112z m69 -35 c25 -68 -49 -183 -105 -161 -37 14 -27 97 18
148 35 41 74 47 87 13z"/>
<path d="M2180 4241 c0 -12 6 -21 16 -21 9 0 14 7 12 17 -5 25 -28 28 -28 4z"/>
<path d="M10946 4206 c8 -20 -35 -168 -53 -183 -22 -17 -4 -21 69 -13 79 9
114 29 134 75 19 47 18 70 -8 100 -19 21 -34 26 -85 30 -52 5 -62 3 -57 -9z
m114 -31 c21 -23 22 -28 11 -65 -13 -44 -58 -80 -100 -80 -21 0 -23 3 -17 38
4 20 12 53 18 72 6 19 12 41 14 48 6 21 49 13 74 -13z"/>
<path d="M6820 4032 c-33 -37 -62 -84 -55 -90 3 -4 15 4 26 18 l20 25 -3 -25
c-3 -21 -8 -25 -33 -24 -24 1 -36 -7 -62 -42 -18 -24 -33 -46 -33 -49 0 -3 11
-5 25 -5 19 0 25 5 25 23 0 29 18 47 47 47 18 0 23 -6 23 -25 0 -13 -8 -29
-17 -34 -14 -8 -9 -10 25 -11 32 0 41 3 35 13 -4 6 -6 54 -4 105 1 50 1 92 -1
91 -2 0 -10 -8 -18 -17z"/>
<path d="M2025 3679 c-52 -30 -65 -51 -65 -104 0 -77 25 -105 94 -105 40 0 57
5 71 20 24 26 13 37 -17 16 -33 -23 -74 -20 -92 6 -25 36 -21 104 8 133 29 29
50 25 83 -13 26 -31 35 -26 27 14 -3 18 -12 30 -22 30 -9 1 -28 4 -42 7 -14 4
-34 2 -45 -4z"/>
<path d="M2911 3677 c-14 -6 -26 -18 -29 -24 -5 -16 20 -17 36 -1 8 8 15 8 27
-2 22 -18 19 -35 -12 -55 l-26 -18 27 -14 c21 -11 27 -20 24 -41 -3 -25 -6
-27 -41 -25 -41 3 -50 -19 -11 -25 62 -9 106 46 79 100 -10 21 -12 36 -5 48
14 26 13 36 -6 54 -19 19 -31 20 -63 3z"/>
<path d="M3050 3670 c-11 -11 -20 -27 -20 -36 0 -14 1 -14 16 0 16 17 33 20
58 10 29 -11 17 -50 -30 -103 -26 -29 -44 -55 -40 -58 3 -4 30 -7 60 -7 41 -1
57 3 65 16 13 20 1 31 -19 17 -8 -5 -28 -9 -44 -9 -29 0 -29 0 -9 18 28 24 63
83 63 107 0 57 -61 84 -100 45z"/>
<path d="M3207 3672 c-36 -39 -12 -86 40 -80 24 3 28 8 31 38 5 53 -38 78 -71
42z m51 -40 c2 -14 -2 -22 -11 -22 -19 0 -40 26 -32 40 11 18 40 6 43 -18z"/>
<path d="M3544 3575 c-8 -30 8 -47 41 -43 15 2 20 11 20 33 0 25 -4 31 -27 33
-22 3 -29 -2 -34 -23z m50 -10 c-1 -18 -34 -18 -34 0 0 10 7 15 18 13 9 -2 17
-8 16 -13z"/>
<path d="M2167 3493 c-13 -12 -7 -23 13 -23 11 0 20 7 20 15 0 15 -21 21 -33
8z"/>
<path d="M1958 2913 c16 -6 17 -174 0 -191 -13 -13 2 -14 104 -5 52 4 58 7 72
38 26 55 21 102 -15 136 -29 27 -37 29 -103 28 -39 0 -65 -3 -58 -6z m122 -23
c10 -5 24 -26 30 -46 21 -64 -22 -122 -79 -107 -19 5 -21 12 -21 84 0 78 0 79
26 79 14 0 34 -4 44 -10z"/>
<path d="M2898 2909 c-10 -5 -18 -17 -18 -26 0 -13 3 -14 12 -5 15 15 54 16
63 2 11 -19 -6 -49 -33 -58 -27 -10 -26 -11 21 -26 21 -7 23 -52 2 -60 -8 -3
-29 -3 -45 1 -35 6 -41 -10 -10 -27 60 -32 136 68 85 110 -11 9 -13 16 -5 24
14 14 13 49 -2 64 -15 15 -47 15 -70 1z"/>
<path d="M3065 2850 c-25 -39 -45 -75 -45 -80 0 -6 18 -10 40 -10 36 0 40 -2
40 -25 0 -18 5 -25 20 -25 14 0 20 7 20 24 0 13 8 27 18 31 16 6 16 7 0 19
-14 10 -18 28 -18 75 0 82 -18 80 -75 -9z m32 -57 c-3 -2 -15 -3 -26 -1 -20 3
-20 3 2 38 l22 35 3 -33 c2 -19 1 -36 -1 -39z"/>
<path d="M3195 2900 c-15 -17 -16 -24 -7 -45 13 -29 56 -43 77 -25 18 15 20
61 3 78 -18 18 -53 14 -73 -8z m63 -29 c-2 -9 -11 -17 -21 -19 -21 -4 -35 27
-17 38 19 12 42 0 38 -19z"/>
<path d="M3551 2826 c-21 -25 -4 -58 27 -54 23 2 27 8 27 33 0 23 -5 31 -21
33 -11 2 -26 -4 -33 -12z m39 -21 c0 -8 -7 -15 -15 -15 -8 0 -15 7 -15 15 0 8
7 15 15 15 8 0 15 -7 15 -15z"/>
<path d="M2186 2743 c-13 -14 -5 -33 14 -33 11 0 20 6 20 14 0 15 -24 28 -34
19z"/>
<path d="M12276 710 c17 -17 -30 -174 -57 -191 -9 -6 0 -9 29 -9 24 0 41 4 37
9 -3 6 -3 28 1 50 6 38 9 41 38 41 39 1 76 31 76 62 0 37 -19 48 -79 48 -38 0
-52 -3 -45 -10z m84 -34 c0 -12 -5 -27 -12 -34 -16 -16 -49 -15 -43 1 21 60
25 66 40 61 8 -3 15 -16 15 -28z"/>
<path d="M8710 700 c0 -5 6 -10 13 -13 9 -3 8 -15 -5 -53 -9 -27 -19 -61 -22
-77 -4 -15 -15 -36 -26 -47 -20 -20 -20 -20 35 -20 31 0 71 7 90 14 30 13 35
20 35 50 0 19 -6 36 -12 39 -9 3 -6 11 10 26 44 43 20 76 -60 84 -32 3 -58 2
-58 -3z m94 -32 c12 -20 -8 -48 -35 -48 -21 0 -24 21 -8 51 12 22 27 21 43 -3z
m-14 -88 c14 -27 -3 -58 -36 -66 -34 -9 -39 0 -25 46 13 45 43 54 61 20z"/>
</g>
</svg>
