<?xml version="1.0" standalone="no"?>
<!DOCTYPE svg PUBLIC "-//W3C//DTD SVG 20010904//EN"
 "http://www.w3.org/TR/2001/REC-SVG-20010904/DTD/svg10.dtd">
<svg version="1.0" xmlns="http://www.w3.org/2000/svg"
 width="1498.000000pt" height="591.000000pt" viewBox="0 0 1498.000000 591.000000"
 preserveAspectRatio="xMidYMid meet">
<metadata>
Created by potrace 1.16, written by Peter Selinger 2001-2019
</metadata>
<g transform="translate(0.000000,591.000000) scale(0.100000,-0.100000)"
fill="#000000" stroke="none">
<path d="M1586 5573 c-3 -4 -6 -19 -6 -35 0 -26 -3 -28 -38 -28 -21 0 -43 5
-50 12 -9 9 -12 -4 -12 -59 l0 -70 51 5 51 5 -3 -53 c-3 -36 0 -54 9 -57 9 -3
12 11 12 51 l0 56 62 0 c48 0 59 3 50 12 -15 15 -16 70 -2 84 8 8 6 15 -4 23
-10 8 -16 9 -21 1 -11 -17 -75 -12 -82 7 -4 9 -1 19 5 21 7 2 12 7 12 12 0 10
-26 20 -34 13z m-6 -113 l0 -40 -40 0 -40 0 0 40 0 40 40 0 40 0 0 -40z m100
-2 c0 -38 0 -38 -40 -38 -39 0 -40 1 -40 33 0 42 5 47 47 44 31 -2 33 -4 33
-39z"/>
<path d="M492 5550 c-88 -54 -98 -200 -13 -200 42 0 63 29 59 81 -3 42 -5 44
-35 47 -18 2 -33 7 -33 11 0 12 48 61 60 61 5 0 10 5 10 10 0 15 -11 12 -48
-10z m14 -114 c9 -37 1 -61 -21 -61 -16 0 -21 8 -23 43 -3 37 -1 42 17 42 13
0 23 -9 27 -24z"/>
<path d="M1140 5430 c0 -87 4 -140 10 -140 6 0 10 5 10 10 0 6 42 10 105 10
63 0 105 -4 105 -10 0 -5 5 -10 10 -10 6 0 10 53 10 140 l0 140 -125 0 -125 0
0 -140z m68 78 c3 -32 1 -36 -17 -31 -12 3 -21 1 -21 -6 0 -6 5 -11 10 -11 6
0 10 -28 10 -65 0 -51 -3 -65 -15 -65 -12 0 -15 15 -15 79 0 104 8 143 29 139
10 -2 17 -16 19 -40z m80 35 c-10 -2 -28 -2 -40 0 -13 2 -5 4 17 4 22 1 32 -1
23 -4z m82 -30 l0 -38 -52 4 c-44 4 -48 6 -23 10 17 3 30 12 31 19 1 6 2 19 3
27 0 8 10 15 21 15 16 0 20 -7 20 -37z m-74 0 c-11 -11 -66 -12 -66 -2 0 5 17
9 37 9 20 0 33 -3 29 -7z m-46 -33 c0 -5 -7 -10 -15 -10 -8 0 -15 5 -15 10 0
6 7 10 15 10 8 0 15 -4 15 -10z m48 -27 c-15 -2 -42 -2 -60 0 -18 2 -6 4 27 4
33 0 48 -2 33 -4z m72 -58 c0 -51 -3 -65 -15 -65 -12 0 -15 13 -15 58 0 32 3
62 7 65 17 17 23 2 23 -58z m-52 3 l3 -38 -55 0 -56 0 0 41 0 40 53 -3 52 -3
3 -37z m2 -64 c0 -2 -28 -3 -62 -3 -51 1 -56 3 -28 8 34 6 90 3 90 -5z"/>
<path d="M1220 5398 c0 -26 3 -28 45 -28 42 0 45 2 45 28 0 25 -3 27 -45 27
-42 0 -45 -2 -45 -27z m60 2 c0 -5 -9 -10 -20 -10 -11 0 -20 5 -20 10 0 6 9
10 20 10 11 0 20 -4 20 -10z"/>
<path d="M310 5550 c-10 -6 -11 -10 -2 -10 9 0 12 -25 12 -89 0 -62 -4 -91
-12 -94 -7 -3 5 -5 27 -5 22 0 34 2 28 5 -9 3 -13 34 -13 104 0 102 -5 112
-40 89z"/>
<path d="M3142 5533 c-6 -16 -11 -21 -11 -12 -1 9 -8 20 -17 23 -24 9 -26 8
-14 -13 14 -27 13 -34 -5 -28 -8 4 -17 2 -20 -3 -4 -6 9 -10 29 -10 33 0 34
-1 26 -27 -16 -56 -51 -127 -68 -139 -9 -7 -14 -15 -10 -19 8 -8 51 31 66 60
9 17 19 19 89 16 75 -3 92 -10 93 -38 0 -20 -38 -53 -54 -47 -8 3 -17 21 -20
40 -4 19 -12 34 -17 34 -18 0 1 -64 24 -82 45 -36 77 -10 90 75 5 34 4 37 -18
37 -22 0 -24 3 -18 31 5 28 4 31 -15 25 -18 -6 -21 -3 -19 21 2 27 0 28 -40
25 -44 -3 -62 10 -44 32 11 12 5 26 -10 26 -4 0 -12 -12 -17 -27z m86 -60 c-2
-13 -14 -19 -40 -21 -35 -3 -39 2 -29 36 1 1 17 2 37 2 28 0 35 -3 32 -17z
m32 -55 c0 -16 -9 -18 -65 -18 -36 0 -65 4 -65 8 0 21 29 33 77 31 44 -2 53
-6 53 -21z"/>
<path d="M3859 5545 c-1 -3 -2 -11 -3 -17 -1 -9 -22 -13 -68 -12 -37 0 -65 -3
-62 -8 3 -4 32 -8 64 -8 50 0 58 -2 53 -16 -4 -11 -15 -15 -34 -12 -33 5 -31
10 -31 -104 l0 -78 -35 0 c-27 0 -33 -3 -25 -12 8 -10 48 -12 152 -10 122 3
140 5 130 17 -8 9 -21 13 -36 9 -24 -6 -24 -6 -24 74 0 45 5 84 10 87 22 13
-2 22 -45 17 -39 -4 -45 -2 -39 12 5 12 20 16 70 16 52 0 62 3 58 15 -7 17
-34 21 -34 5 0 -5 -18 -10 -41 -10 -36 0 -40 2 -34 20 5 14 2 20 -9 20 -9 0
-17 -2 -17 -5z m61 -110 c0 -12 -13 -15 -60 -15 -47 0 -60 3 -60 15 0 12 13
15 60 15 47 0 60 -3 60 -15z m0 -40 c0 -12 -13 -15 -60 -15 -47 0 -60 3 -60
15 0 12 13 15 60 15 47 0 60 -3 60 -15z m0 -50 c0 -12 -13 -15 -60 -15 -47 0
-60 3 -60 15 0 12 13 15 60 15 47 0 60 -3 60 -15z m0 -45 c0 -6 -27 -10 -60
-10 -33 0 -60 4 -60 10 0 6 27 10 60 10 33 0 60 -4 60 -10z"/>
<path d="M2339 5437 c-61 -82 -73 -103 -60 -108 21 -9 31 -2 31 21 0 24 26 50
51 50 23 0 27 -48 4 -56 -23 -9 -10 -20 22 -18 45 2 48 3 36 15 -6 6 -8 45 -5
105 3 52 3 94 1 94 -2 0 -38 -46 -80 -103z m46 -6 c-4 -13 -15 -21 -27 -21
-21 0 -21 0 2 25 26 28 35 27 25 -4z"/>
<path d="M2500 5530 c0 -5 5 -10 10 -10 15 0 11 -52 -5 -74 -8 -11 -15 -32
-15 -48 0 -15 -9 -37 -20 -48 -11 -11 -20 -22 -20 -25 0 -3 25 -5 56 -5 79 0
114 22 114 72 0 23 -5 38 -12 38 -7 0 -2 7 10 16 31 21 26 64 -8 81 -30 15
-110 17 -110 3z m100 -30 c8 -15 6 -24 -10 -40 -20 -20 -50 -27 -50 -11 0 4 5
22 11 40 12 35 33 40 49 11z m-20 -85 c17 -21 9 -47 -22 -65 -38 -21 -51 -5
-36 43 12 39 36 49 58 22z"/>
<path d="M2722 5520 c-67 -41 -91 -123 -51 -174 16 -21 29 -26 62 -26 42 0 99
31 84 46 -4 4 -15 0 -25 -9 -10 -10 -33 -17 -51 -17 -27 0 -34 5 -46 34 -13
30 -13 39 1 72 22 52 51 76 89 72 24 -2 31 -8 33 -30 4 -31 22 -39 22 -10 0 9
3 26 6 37 5 18 0 21 -43 23 -33 1 -58 -4 -81 -18z"/>
<path d="M4085 5487 c-23 -48 -23 -53 -8 -64 15 -12 15 -14 -2 -32 -24 -27
-13 -56 15 -41 11 6 20 8 20 4 0 -3 8 0 17 7 15 12 16 12 11 -2 -4 -9 -1 -27
6 -41 7 -13 11 -29 8 -36 -11 -34 41 8 66 53 10 18 11 17 9 -9 -1 -19 -8 -31
-20 -34 -17 -4 -17 -6 -1 -23 23 -26 44 -7 44 40 l0 36 26 -43 c22 -36 28 -41
45 -32 19 10 18 12 -11 36 -37 31 -37 41 -5 56 24 11 24 12 9 29 -13 15 -15
30 -11 69 l6 50 -36 -4 c-27 -4 -33 -2 -24 7 16 16 14 27 -5 27 -9 0 -18 -9
-21 -20 -4 -13 -11 -19 -22 -15 -13 4 -16 -5 -17 -56 0 -58 1 -60 23 -54 13 3
23 1 23 -5 0 -11 -2 -12 -42 -14 -16 -1 -28 2 -28 8 0 5 -7 17 -15 26 -14 15
-13 19 5 42 20 26 18 38 -7 38 -7 0 -13 -7 -13 -15 0 -13 -37 -41 -45 -33 -2
2 9 22 25 45 23 33 26 43 14 47 -11 4 -22 -10 -39 -47z m195 -17 c0 -5 -16
-10 -35 -10 -19 0 -35 5 -35 10 0 6 16 10 35 10 19 0 35 -4 35 -10z m-2 -44
c3 -14 0 -17 -13 -12 -9 3 -25 6 -36 6 -10 0 -19 6 -19 14 0 22 64 15 68 -8z
m-148 -31 c0 -8 -7 -15 -15 -15 -9 0 -12 6 -9 15 4 8 10 15 15 15 5 0 9 -7 9
-15z m153 -10 c-5 -17 -20 -17 -27 0 -4 12 -1 16 12 13 9 -2 16 -8 15 -13z
m-91 -41 c-13 -47 -13 -47 -28 -19 -18 35 -18 35 9 31 12 -1 21 -7 19 -12z"/>
<path d="M4950 5515 c0 -10 -11 -15 -35 -15 -47 0 -45 -18 3 -22 23 -2 36 -8
35 -15 -4 -18 24 -16 31 2 3 8 13 15 22 15 8 0 14 6 11 13 -2 6 -12 11 -21 11
-9 -1 -16 4 -16 12 0 8 -7 14 -15 14 -8 0 -15 -7 -15 -15z"/>
<path d="M5066 5515 c-3 -8 -12 -15 -21 -15 -8 0 -15 -4 -15 -10 0 -5 5 -10
10 -10 6 0 10 -7 10 -15 0 -8 7 -15 15 -15 8 0 15 7 15 15 0 11 11 15 40 15
30 0 40 4 40 16 0 13 -7 15 -36 9 -31 -5 -36 -4 -31 9 4 10 1 16 -7 16 -8 0
-16 -7 -20 -15z"/>
<path d="M5605 5480 c-3 -11 -12 -26 -19 -32 -6 -7 -38 -48 -69 -90 -55 -75
-56 -78 -32 -78 17 0 25 6 25 18 1 26 25 52 49 52 25 0 29 -31 5 -54 -14 -15
-13 -16 10 -17 14 -1 31 -2 36 -3 7 -1 11 42 13 112 2 106 -4 136 -18 92z
m-15 -85 c0 -19 -5 -25 -20 -25 -20 0 -20 1 -3 25 22 30 23 30 23 0z"/>
<path d="M5699 5476 c10 -11 6 -33 -14 -100 -14 -47 -32 -86 -38 -87 -7 0 0
-4 14 -9 38 -11 120 4 136 26 16 22 17 74 1 74 -6 0 -1 11 11 24 17 18 22 32
17 49 -7 28 -30 37 -95 37 -36 0 -42 -2 -32 -14z m91 -31 c0 -17 -8 -29 -25
-37 -32 -14 -39 -7 -30 31 5 24 12 31 31 31 19 0 24 -5 24 -25z m-29 -73 c26
-22 22 -43 -16 -68 -38 -25 -52 -7 -36 46 13 45 19 48 52 22z"/>
<path d="M6172 5470 c-12 -12 -22 -28 -22 -37 0 -14 4 -13 20 5 24 26 43 28
63 7 21 -21 11 -48 -39 -104 -24 -27 -44 -54 -44 -60 0 -7 22 -11 58 -11 47 0
59 4 70 21 17 26 10 34 -16 20 -24 -13 -62 -15 -62 -3 0 5 12 19 26 33 33 30
56 82 47 106 -17 44 -66 55 -101 23z"/>
<path d="M6356 5438 c-19 -29 -38 -65 -41 -80 -6 -24 -4 -27 27 -30 28 -2 34
-7 36 -30 5 -39 32 -37 32 2 0 20 5 30 15 30 8 0 15 5 15 10 0 6 -7 10 -15 10
-12 0 -15 14 -15 70 0 40 -4 70 -10 70 -5 0 -25 -24 -44 -52z m24 -43 c0 -41
-2 -45 -25 -45 -14 0 -25 3 -25 6 0 8 43 84 47 84 2 0 3 -20 3 -45z"/>
<path d="M7744 5453 c-10 -15 -21 -30 -25 -33 -3 -3 -27 -34 -53 -70 -27 -36
-53 -68 -60 -72 -6 -4 3 -8 21 -8 22 0 31 4 27 13 -7 19 18 46 46 49 31 4 40
-30 14 -49 -15 -11 0 -13 99 -13 106 0 121 2 148 22 60 45 59 140 -2 170 -40
21 -141 26 -121 6 17 -17 15 -33 -10 -115 -19 -62 -26 -73 -45 -73 -12 0 -24
4 -27 9 -3 5 -1 48 5 96 6 47 8 89 6 92 -3 2 -14 -8 -23 -24z m205 -9 c21 -15
23 -22 17 -68 -6 -55 -28 -80 -79 -92 -37 -8 -53 7 -38 34 6 11 11 27 11 36 0
27 39 106 52 106 8 0 24 -7 37 -16z m-213 -60 c-3 -9 -6 -20 -6 -25 0 -5 -7
-9 -15 -9 -18 0 -18 5 -5 31 13 23 35 26 26 3z"/>
<path d="M8396 5425 c-16 -25 -35 -50 -42 -56 -8 -6 -14 -22 -14 -35 0 -21 5
-24 40 -24 36 0 40 -2 40 -25 0 -14 5 -25 10 -25 6 0 10 11 10 25 0 14 7 28
15 31 8 4 15 10 15 15 0 5 -7 9 -15 9 -12 0 -15 14 -15 65 0 36 -4 65 -8 65
-4 0 -21 -20 -36 -45z m24 -45 c0 -38 -2 -40 -30 -40 l-30 0 26 40 c15 22 28
40 30 40 2 0 4 -18 4 -40z"/>
<path d="M8527 5456 c-41 -31 -36 -163 8 -191 27 -18 63 -3 76 32 18 46 6 133
-21 155 -26 21 -39 22 -63 4z m53 -25 c11 -22 13 -93 4 -128 -7 -26 -39 -31
-48 -7 -11 27 -6 114 6 134 16 25 25 25 38 1z"/>
<path d="M1900 5451 c0 -5 5 -13 11 -17 6 -3 8 -15 6 -26 -4 -12 -1 -18 6 -15
20 6 15 61 -5 65 -10 2 -18 -1 -18 -7z"/>
<path d="M4984 5436 c-5 -21 -10 -23 -59 -21 -40 2 -52 0 -49 -10 4 -8 19 -11
50 -7 29 3 44 1 44 -7 0 -6 -5 -11 -12 -11 -6 0 -8 -3 -5 -7 4 -4 -14 -26 -40
-50 -27 -23 -44 -43 -40 -43 15 0 52 23 64 39 11 15 12 15 18 0 3 -9 5 -20 4
-25 -1 -5 -1 -20 0 -33 1 -20 4 -22 13 -13 7 7 41 12 82 12 l71 0 0 45 c1 50
7 46 -92 48 -52 1 -61 8 -44 36 7 10 27 12 89 7 81 -5 104 1 78 23 -9 8 -22 8
-38 2 -13 -5 -42 -8 -64 -8 -30 2 -38 6 -36 18 4 27 -27 32 -34 5z m116 -136
l0 -30 -60 0 -60 0 0 30 0 30 60 0 60 0 0 -30z"/>
<path d="M9830 5435 c13 -15 11 -36 -9 -90 -6 -16 -13 -42 -16 -57 -3 -16 -12
-28 -20 -28 -8 0 -15 -4 -15 -10 0 -6 27 -10 60 -10 78 0 110 19 110 66 0 19
-5 34 -10 34 -6 0 -2 10 10 22 43 47 9 88 -73 88 -43 0 -48 -2 -37 -15z m88
-28 c5 -23 -15 -47 -39 -47 -22 0 -23 9 -7 45 13 29 41 30 46 2z m-24 -73 c9
-8 16 -20 16 -26 0 -21 -33 -48 -57 -48 -21 0 -23 3 -17 23 22 72 30 79 58 51z"/>
<path d="M10010 5441 c0 -5 5 -11 12 -13 8 -3 7 -18 -5 -55 -9 -29 -17 -59
-17 -68 0 -9 -11 -27 -25 -40 l-24 -25 77 0 c65 1 81 4 103 23 67 56 66 137
-1 172 -32 16 -120 21 -120 6z m114 -27 c10 -9 16 -33 16 -60 0 -58 -32 -94
-85 -94 -19 0 -35 4 -35 8 0 9 26 91 42 135 12 30 38 35 62 11z"/>
<path d="M11500 5440 c0 -5 12 -10 26 -10 l27 0 -6 -67 c-5 -73 -17 -102 -59
-148 -28 -29 -30 -42 -6 -32 19 7 68 79 83 123 l12 37 13 -36 c6 -21 15 -37
20 -37 4 0 10 -6 13 -14 6 -15 -59 -56 -88 -56 -8 0 -15 -4 -15 -10 0 -17 29
-11 75 14 l44 25 46 -25 c53 -28 75 -30 75 -9 0 8 -7 15 -15 15 -8 0 -30 8
-49 17 l-35 16 34 49 c45 61 46 80 4 71 -29 -5 -30 -4 -23 21 15 62 17 61 -83
64 -60 2 -93 -1 -93 -8z m156 -24 c11 -28 -15 -56 -51 -56 -32 0 -35 3 -35 28
0 16 3 32 7 35 12 13 74 7 79 -7z m34 -88 c0 -9 -11 -29 -23 -44 l-24 -27 -26
38 c-14 21 -24 42 -21 46 2 4 24 7 49 6 35 -2 45 -6 45 -19z"/>
<path d="M3620 5431 c-8 -5 -64 -8 -123 -7 -60 1 -111 -2 -113 -6 -3 -4 61 -8
142 -8 129 0 145 2 134 15 -14 17 -19 18 -40 6z"/>
<path d="M10522 5428 c-20 -20 -14 -28 20 -26 27 3 34 -1 36 -19 2 -14 -4 -26
-19 -34 l-22 -11 22 -17 c15 -12 22 -26 19 -42 -3 -21 -7 -24 -40 -21 -22 2
-38 -2 -38 -8 0 -16 26 -23 64 -16 26 5 37 14 45 37 11 31 5 59 -13 71 -8 5
-7 13 1 27 29 46 -36 98 -75 59z"/>
<path d="M10666 5418 c-22 -31 -20 -45 3 -24 23 21 49 18 64 -6 13 -20 -1 -50
-50 -108 -18 -21 -33 -41 -33 -44 0 -3 27 -6 59 -6 44 0 60 4 65 16 10 27 7
39 -6 26 -7 -7 -26 -12 -44 -12 l-32 0 34 36 c41 46 51 86 30 119 -21 33 -69
34 -90 3z"/>
<path d="M14391 5428 c1 -7 1 -66 0 -131 l-1 -117 -27 6 c-20 5 -25 3 -18 -4
6 -6 22 -14 36 -17 24 -6 27 -3 31 26 3 17 4 70 2 117 -2 54 1 91 8 100 9 10
8 16 -3 23 -20 12 -30 11 -28 -3z"/>
<path d="M4492 5414 c-24 -42 22 -78 55 -42 13 14 15 23 7 36 -15 23 -50 27
-62 6z m45 -9 c7 -20 -2 -29 -21 -22 -9 4 -13 13 -10 22 8 19 23 19 31 0z"/>
<path d="M12125 5423 c-11 -3 -35 -20 -52 -39 -29 -30 -33 -41 -33 -87 0 -48
3 -54 29 -70 16 -9 39 -17 51 -17 24 0 80 30 80 42 0 12 -10 10 -26 -7 -34
-33 -92 -11 -108 40 -7 26 32 95 66 114 33 19 78 2 78 -29 0 -12 5 -18 10 -15
6 3 10 21 10 38 0 31 -2 32 -43 33 -23 1 -51 -1 -62 -3z"/>
<path d="M14170 5328 c0 -79 3 -97 15 -100 12 -2 9 -10 -14 -35 -16 -18 -25
-33 -19 -33 6 0 28 19 49 41 32 34 43 40 64 35 l25 -6 2 85 c0 47 1 90 2 97 1
7 -21 11 -62 12 l-62 1 0 -97z m100 57 c0 -11 -11 -15 -40 -15 -29 0 -40 4
-40 15 0 11 11 15 40 15 29 0 40 -4 40 -15z m0 -55 c0 -17 -7 -20 -40 -20 -33
0 -40 3 -40 20 0 17 7 20 40 20 33 0 40 -3 40 -20z m0 -55 c0 -11 -11 -15 -40
-15 -29 0 -40 4 -40 15 0 11 11 15 40 15 29 0 40 -4 40 -15z"/>
<path d="M6551 5406 c-7 -8 -14 -29 -17 -48 -7 -39 25 -88 57 -88 23 0 59 34
59 57 0 15 -2 15 -19 -1 -30 -27 -55 -17 -59 23 -5 45 10 59 43 41 28 -15 41
-9 32 15 -8 19 -80 20 -96 1z"/>
<path d="M6660 5410 c0 -5 5 -10 10 -10 14 0 12 -104 -2 -119 -11 -10 -7 -12
17 -9 29 3 29 4 26 57 -3 54 6 70 37 71 10 0 13 -16 11 -62 -2 -56 -1 -63 16
-63 17 0 19 7 16 51 -3 59 17 87 45 64 12 -11 14 -25 8 -67 l-6 -53 28 0 c22
0 25 3 16 12 -7 7 -12 39 -12 75 0 62 0 63 -28 63 -15 0 -33 -5 -40 -12 -9 -9
-12 -9 -12 0 0 7 -13 12 -28 12 -15 0 -33 -5 -40 -12 -9 -9 -12 -9 -12 0 0 7
-11 12 -25 12 -14 0 -25 -4 -25 -10z"/>
<path d="M12287 5409 c18 -18 -30 -179 -54 -179 -7 0 -13 -4 -13 -10 0 -16
127 -12 160 5 71 36 94 122 45 170 -20 21 -34 25 -87 25 -45 0 -59 -3 -51 -11z
m119 -34 c35 -54 -24 -145 -93 -145 -25 0 -28 12 -13 56 5 16 14 48 20 72 10
37 14 42 40 42 21 0 35 -8 46 -25z"/>
<path d="M12819 5384 c-30 -31 -34 -41 -34 -88 0 -64 16 -86 61 -86 28 0 36 5
50 35 14 29 14 40 4 65 -10 24 -19 30 -42 30 -29 0 -30 1 -16 23 8 12 25 26
36 32 29 13 28 25 -1 25 -13 0 -38 -15 -58 -36z m47 -88 c8 -34 1 -60 -17 -64
-19 -3 -42 43 -34 69 9 28 43 24 51 -5z"/>
<path d="M12962 5408 c-15 -15 -16 -60 -1 -75 8 -8 6 -19 -7 -42 -16 -26 -16
-33 -4 -56 11 -20 21 -25 52 -25 32 0 41 5 50 26 10 21 9 31 -7 61 -18 33 -18
36 -2 48 23 16 22 52 -2 65 -26 14 -64 13 -79 -2z m53 -18 c3 -6 3 -20 0 -31
-6 -19 -9 -20 -22 -6 -9 9 -13 23 -10 31 7 18 23 21 32 6z m-5 -109 c16 -30
12 -51 -9 -51 -26 0 -34 15 -27 46 8 29 22 31 36 5z"/>
<path d="M14338 5319 c-2 -50 0 -93 5 -96 4 -2 7 34 7 81 0 54 4 86 11 86 5 0
7 5 4 10 -16 26 -24 3 -27 -81z"/>
<path d="M5910 5390 c0 -6 33 -10 80 -10 47 0 80 4 80 10 0 6 -33 10 -80 10
-47 0 -80 -4 -80 -10z"/>
<path d="M8744 5390 c-13 -5 -24 -21 -27 -39 -14 -68 38 -120 88 -87 14 9 25
23 25 31 0 20 -10 19 -26 -2 -20 -27 -48 -5 -52 41 -4 42 22 61 43 33 15 -20
35 -22 35 -4 0 33 -41 45 -86 27z"/>
<path d="M8855 5390 c-11 -5 -14 -9 -7 -9 16 -1 16 -103 0 -119 -9 -9 -3 -12
27 -12 30 0 36 3 27 12 -26 26 -8 118 23 118 19 0 21 -100 3 -118 -9 -9 -2
-12 33 -12 35 1 40 3 27 11 -23 13 -25 91 -3 109 25 21 37 -2 33 -64 l-3 -56
30 0 c22 0 26 3 17 12 -7 7 -12 38 -12 69 0 62 -12 75 -53 60 -14 -6 -30 -5
-41 1 -12 7 -26 7 -42 -1 -15 -6 -24 -7 -24 -1 0 12 -8 12 -35 0z"/>
<path d="M7170 5382 c0 -4 9 -15 20 -25 27 -23 47 -11 24 14 -17 19 -44 26
-44 11z"/>
<path d="M8093 5378 c-9 -17 6 -21 82 -23 58 -2 75 0 75 11 0 8 -8 14 -17 15
-89 5 -135 4 -140 -3z"/>
<path d="M580 5365 c0 -8 9 -15 20 -15 11 0 20 7 20 15 0 8 -9 15 -20 15 -11
0 -20 -7 -20 -15z"/>
<path d="M9362 5350 c12 -16 28 -30 35 -30 23 0 14 36 -12 48 -41 19 -47 14
-23 -18z"/>
<path d="M3252 5345 c12 -27 28 -34 28 -12 0 14 -20 37 -32 37 -4 0 -2 -11 4
-25z"/>
<path d="M10880 5351 c-12 -23 -13 -81 -2 -97 24 -37 91 -36 106 2 9 24 2 28
-23 12 -29 -18 -55 0 -59 40 -4 42 27 60 52 30 20 -23 43 -11 33 16 -10 25
-93 22 -107 -3z"/>
<path d="M11000 5359 c0 -5 5 -9 10 -9 14 0 12 -94 -2 -108 -9 -9 -3 -12 28
-12 26 0 34 3 25 9 -16 10 -18 88 -2 104 5 5 17 7 25 4 20 -8 23 -103 4 -110
-7 -3 5 -6 26 -6 35 -1 38 1 23 12 -13 9 -17 22 -13 49 5 44 13 58 31 58 17 0
25 -22 25 -71 0 -24 -5 -39 -12 -40 -7 0 0 -5 15 -11 16 -5 29 -8 31 -7 1 2 0
36 -3 74 l-6 70 -34 3 c-20 2 -37 -2 -42 -10 -6 -9 -9 -9 -9 -1 0 8 -20 12
-60 12 -33 0 -60 -5 -60 -10z"/>
<path d="M3112 5330 c-26 -34 -27 -40 -8 -40 13 0 43 56 34 65 -2 3 -14 -9
-26 -25z"/>
<path d="M3159 5358 c-7 -35 -5 -57 7 -62 10 -4 14 3 14 24 0 16 -4 32 -10 35
-5 3 -10 5 -11 3z"/>
<path d="M10266 5352 c-3 -5 1 -13 10 -16 26 -10 144 -7 144 4 0 6 -24 10 -52
10 -29 0 -63 3 -74 6 -12 3 -24 1 -28 -4z"/>
<path d="M13176 5339 c-32 -25 -36 -86 -8 -112 36 -33 101 -13 102 31 0 9 -9
7 -27 -8 -24 -18 -28 -19 -41 -6 -19 19 -20 75 -1 87 20 13 29 11 29 -6 0 -16
25 -21 34 -7 8 13 -7 29 -35 35 -19 5 -34 1 -53 -14z"/>
<path d="M13297 5349 c-13 -8 -15 -14 -7 -29 6 -11 6 -36 1 -64 -8 -45 -8 -46
18 -46 25 0 26 2 26 57 0 45 3 58 15 58 20 0 27 -94 8 -106 -8 -6 1 -9 25 -9
28 0 36 3 31 12 -11 18 -8 88 4 100 19 19 32 -3 32 -52 0 -29 -5 -50 -12 -53
-7 -3 4 -6 25 -6 25 -1 36 3 32 10 -4 6 -8 33 -9 61 -2 57 -25 85 -57 68 -11
-6 -27 -7 -42 -1 -13 5 -30 5 -37 1 -8 -5 -19 -5 -25 0 -6 5 -18 4 -28 -1z"/>
<path d="M5903 5337 c0 -9 25 -13 84 -15 68 -1 83 1 83 13 0 12 -16 15 -83 15
-61 0 -84 -3 -84 -13z"/>
<path d="M4105 5317 c9 -27 23 -43 31 -35 10 10 -5 46 -22 52 -12 5 -14 1 -9
-17z"/>
<path d="M12540 5324 c0 -11 19 -14 81 -14 58 0 80 3 77 12 -6 18 -158 20
-158 2z"/>
<path d="M13776 5325 c-3 -8 0 -15 5 -15 6 0 9 -9 6 -20 -6 -23 5 -26 23 -5
14 17 4 55 -15 55 -7 0 -15 -7 -19 -15z"/>
<path d="M8090 5313 c0 -13 139 -23 154 -11 19 15 -7 23 -80 23 -50 0 -74 -4
-74 -12z"/>
<path d="M4070 5316 c0 -3 5 -17 11 -33 8 -21 12 -24 19 -13 9 15 -5 50 -20
50 -6 0 -10 -2 -10 -4z"/>
<path d="M10268 5288 c7 -7 44 -14 82 -16 59 -4 70 -2 70 12 0 13 -13 16 -82
16 -64 0 -79 -3 -70 -12z"/>
<path d="M12540 5271 c0 -11 104 -23 135 -15 50 12 23 24 -55 24 -44 0 -80 -4
-80 -9z"/>
<path d="M14250 5224 c0 -12 34 -64 42 -64 15 0 8 30 -12 50 -20 20 -30 25
-30 14z"/>
<path d="M1237 5087 c5 -26 -30 -152 -48 -174 -9 -10 -2 -13 38 -13 98 0 145
40 110 94 -13 19 -12 23 9 39 48 36 15 77 -63 77 -47 0 -50 -1 -46 -23z m89
-12 c8 -21 -14 -45 -41 -45 -22 0 -22 2 -12 30 12 32 43 41 53 15z m-22 -81
c9 -8 16 -21 16 -29 0 -17 -44 -45 -70 -45 -22 0 -22 6 1 68 10 26 31 28 53 6z"/>
<path d="M1411 5075 c-26 -31 -31 -44 -31 -90 0 -46 4 -56 26 -74 15 -12 36
-21 47 -21 24 0 95 42 79 48 -6 2 -22 -4 -36 -13 -22 -15 -27 -15 -55 0 -26
13 -31 21 -31 53 0 46 17 79 52 105 23 17 32 19 53 9 15 -7 25 -20 25 -32 0
-11 5 -20 10 -20 6 0 10 9 10 19 0 11 3 26 6 35 5 14 -4 16 -59 16 -62 0 -66
-2 -96 -35z"/>
<path d="M1660 5011 c0 -10 77 -18 128 -13 18 2 30 8 27 13 -8 12 -155 12
-155 0z"/>
<path d="M1667 4963 c-18 -17 -1 -23 68 -23 56 0 75 3 75 13 0 10 -19 14 -68
15 -38 1 -72 -1 -75 -5z"/>
<path d="M2066 4336 c-9 -14 -16 -32 -16 -40 0 -8 -4 -17 -9 -21 -5 -3 -15
-22 -22 -43 -6 -20 -21 -47 -32 -59 l-20 -23 37 0 c24 0 35 4 31 11 -4 5 -4
21 -1 35 5 20 13 24 41 24 29 0 36 -4 41 -26 4 -17 2 -29 -7 -35 -9 -6 0 -9
29 -9 41 0 42 1 29 23 -8 12 -25 51 -37 87 -13 36 -29 73 -35 83 -11 16 -13
16 -29 -7z m34 -88 c0 -5 -12 -8 -26 -8 -17 0 -24 4 -20 13 3 6 9 20 12 31 6
17 8 17 20 -5 7 -13 13 -27 14 -31z"/>
<path d="M2961 4291 c-22 -33 -42 -69 -46 -80 -6 -19 -2 -21 34 -21 37 0 41
-2 41 -25 0 -16 6 -25 15 -25 9 0 15 9 15 25 0 16 6 25 15 25 8 0 15 7 15 15
0 8 -7 15 -15 15 -12 0 -15 14 -15 65 0 36 -4 65 -10 65 -5 0 -27 -27 -49 -59z
m26 -68 c-3 -2 -15 -3 -26 -1 -20 3 -20 3 2 38 l22 35 3 -33 c2 -19 1 -36 -1
-39z"/>
<path d="M3097 4332 c-24 -26 -22 -29 18 -24 30 4 35 1 35 -17 0 -11 -9 -26
-20 -33 -25 -16 -26 -28 0 -28 13 0 22 -9 26 -25 9 -37 -10 -55 -52 -48 -35 6
-48 -9 -18 -21 49 -19 104 17 104 68 0 17 -5 37 -12 44 -9 9 -8 18 2 38 13 24
13 28 -9 45 -29 24 -53 24 -74 1z"/>
<path d="M8540 4343 c-1 -10 -110 -149 -141 -180 l-22 -23 29 0 c24 0 30 5 31
22 2 26 28 48 55 48 24 0 24 -45 1 -59 -14 -8 -8 -10 27 -11 30 0 40 3 31 9
-14 9 -12 49 6 164 4 24 2 37 -6 37 -6 0 -11 -3 -11 -7z m-30 -103 c0 -14 -7
-20 -22 -20 -20 0 -21 1 -3 20 10 11 20 20 22 20 1 0 3 -9 3 -20z"/>
<path d="M3309 4262 c-40 -33 -18 -132 29 -132 22 0 69 47 58 57 -4 4 -12 0
-17 -10 -13 -23 -36 -22 -49 2 -13 25 -13 52 0 71 9 13 12 13 24 -2 16 -22 36
-23 36 -3 0 14 -29 35 -48 35 -5 0 -20 -8 -33 -18z"/>
<path d="M3423 4271 c-4 -3 -8 -36 -8 -74 0 -67 0 -67 28 -67 22 0 26 3 20 15
-14 25 -1 110 17 110 12 0 15 -14 15 -63 0 -60 1 -62 25 -62 25 0 25 1 20 64
-3 36 -9 68 -12 72 -9 9 -95 13 -105 5z"/>
<path d="M3544 4258 c-5 -8 -2 -9 9 -5 25 9 36 -21 27 -75 -7 -47 -6 -48 19
-48 25 0 26 2 23 48 -5 83 -9 92 -42 92 -16 0 -32 -5 -36 -12z"/>
<path d="M3918 4249 c-22 -12 -23 -42 -3 -59 32 -26 81 13 59 48 -14 21 -33
25 -56 11z m42 -35 c0 -16 -2 -16 -24 -8 -13 5 -14 9 -5 20 13 16 29 9 29 -12z"/>
<path d="M2215 4180 c-7 -11 5 -40 16 -40 5 0 9 2 9 4 0 2 3 11 6 19 6 16 -22
32 -31 17z"/>
<path d="M8607 4063 c-3 -21 -9 -249 -12 -508 -3 -258 -8 -526 -10 -595 -3
-69 -7 -307 -10 -530 -3 -223 -10 -560 -15 -750 -23 -817 -24 -910 -9 -911 30
-2 396 3 439 6 25 2 84 6 130 9 47 3 231 11 410 16 179 6 352 12 385 15 33 2
167 7 297 10 131 3 243 8 250 10 7 3 155 9 328 15 173 6 344 13 380 15 36 2
187 9 335 14 149 6 284 13 300 16 17 2 118 7 225 10 107 3 281 10 385 15 183
9 440 21 555 24 183 6 340 20 340 30 0 6 -22 25 -48 43 -26 17 -86 59 -135 92
-48 34 -89 61 -92 61 -6 0 -107 71 -115 80 -3 4 -14 10 -25 14 -25 9 -213 134
-245 164 -14 12 -33 25 -42 28 -10 3 -18 9 -18 13 0 3 -15 15 -32 26 -50 28
-292 188 -298 196 -3 3 -20 14 -38 23 -31 16 -196 121 -217 138 -5 5 -95 65
-200 133 -104 68 -215 143 -246 165 -31 22 -60 40 -64 40 -5 0 -24 12 -44 28
-19 15 -40 29 -46 32 -13 6 -186 121 -200 133 -5 4 -95 64 -200 132 -104 68
-206 135 -225 150 -19 15 -79 55 -133 90 -54 35 -108 72 -120 82 -12 10 -35
25 -52 33 -16 8 -32 18 -35 22 -3 4 -37 27 -75 52 -39 24 -77 51 -86 59 -9 8
-31 23 -50 33 -18 11 -51 32 -74 47 -22 15 -71 48 -110 74 -38 25 -87 58 -108
72 -21 14 -45 31 -55 36 -10 6 -24 16 -32 23 -8 7 -85 58 -170 114 -85 56
-159 106 -165 110 -5 5 -80 55 -165 110 -85 56 -157 105 -160 109 -3 4 -41 28
-85 55 -44 26 -82 51 -85 54 -3 4 -32 25 -65 47 -33 22 -98 65 -143 96 -46 32
-86 57 -89 57 -3 0 -22 14 -43 30 -51 40 -66 39 -73 -7z m258 -152 c110 -74
236 -158 280 -187 44 -29 99 -67 122 -84 23 -16 47 -30 52 -30 6 0 14 -6 18
-12 4 -7 24 -22 43 -32 19 -11 37 -22 40 -25 6 -7 89 -63 105 -71 16 -8 219
-144 225 -150 3 -3 23 -17 45 -30 22 -13 42 -27 45 -30 3 -4 37 -27 75 -51 39
-24 93 -60 122 -80 l52 -36 -19 -29 c-24 -36 -38 -57 -71 -103 -62 -87 -156
-227 -160 -237 -5 -12 -181 -276 -189 -284 -3 -3 -28 -39 -55 -80 -27 -41 -52
-77 -55 -80 -4 -4 -218 -324 -303 -454 -6 -10 -31 -44 -53 -75 -23 -31 -50
-70 -60 -87 -11 -18 -40 -63 -65 -100 -25 -38 -63 -96 -85 -129 -21 -33 -42
-64 -47 -70 -4 -5 -22 -32 -40 -60 -17 -27 -35 -54 -40 -60 -8 -9 -118 -174
-179 -269 -14 -22 -30 -45 -35 -51 -5 -5 -19 -27 -32 -47 -12 -21 -24 -38 -25
-38 -5 0 4 635 14 1020 6 201 12 514 15 695 8 486 26 1312 30 1375 2 30 4 72
4 93 1 28 4 36 14 31 6 -5 102 -69 212 -143z m1278 -852 c12 -7 24 -15 27 -18
11 -14 299 -201 309 -201 5 0 14 -6 18 -12 4 -7 42 -35 83 -63 41 -27 77 -52
80 -55 6 -7 209 -143 225 -150 11 -5 183 -119 200 -133 6 -4 32 -22 58 -40 27
-17 59 -39 71 -47 12 -8 36 -24 55 -35 18 -11 59 -39 92 -62 32 -24 61 -43 64
-43 5 0 129 -81 151 -99 6 -5 42 -28 80 -52 38 -23 83 -53 100 -66 17 -13 36
-23 42 -23 6 0 15 -6 19 -14 4 -7 24 -22 43 -32 20 -11 42 -25 50 -32 14 -12
48 -35 291 -191 46 -30 86 -58 89 -62 3 -3 23 -16 45 -28 22 -12 56 -33 75
-47 19 -13 42 -29 50 -34 8 -5 38 -25 65 -44 84 -59 339 -231 347 -234 19 -8
234 -151 341 -227 l42 -30 -220 -7 c-121 -3 -274 -11 -340 -17 -66 -6 -177
-11 -246 -11 -69 0 -182 -4 -250 -9 -137 -11 -250 -16 -699 -31 -168 -6 -384
-15 -480 -21 -96 -6 -231 -12 -300 -14 -308 -11 -445 -16 -585 -25 -82 -5
-242 -11 -355 -14 -113 -3 -243 -7 -290 -10 -77 -4 -164 -8 -550 -21 -69 -2
-176 -7 -237 -11 -80 -5 -113 -4 -113 4 0 11 57 102 70 112 4 3 9 10 11 16 4
11 200 305 209 314 3 3 28 39 55 80 27 41 53 77 57 80 4 3 13 19 20 35 8 17
31 56 53 89 22 32 48 70 57 85 9 14 21 31 25 36 10 12 93 132 108 157 5 9 55
83 110 165 55 81 106 161 114 176 8 16 20 31 28 34 7 3 13 9 13 13 0 11 91
144 101 148 5 2 9 7 9 11 0 7 79 133 97 156 5 6 19 27 31 47 13 20 26 38 30
40 4 2 29 39 56 83 26 44 76 121 111 170 35 50 83 120 107 157 24 37 47 67 51
68 5 0 18 -5 30 -11z"/>
<path d="M1988 3538 c19 -19 16 -157 -5 -180 -15 -17 -13 -18 53 -18 83 0 114
17 114 60 0 17 -7 33 -17 39 -15 8 -16 12 -5 22 16 17 15 49 -2 72 -10 13 -28
17 -82 17 -53 0 -65 -3 -56 -12z m107 -43 c0 -25 -4 -30 -27 -33 -26 -3 -28
-1 -28 33 0 34 2 36 28 33 23 -3 27 -8 27 -33z m3 -67 c18 -18 14 -46 -7 -58
-38 -20 -51 -13 -51 30 0 35 3 40 23 40 13 0 28 -5 35 -12z"/>
<path d="M3102 3479 c-53 -88 -53 -99 -3 -99 35 0 38 -2 33 -25 -3 -18 0 -25
12 -25 10 0 16 9 16 25 0 16 6 25 15 25 8 0 15 7 15 15 0 8 -7 15 -15 15 -12
0 -15 14 -15 64 0 36 -4 67 -8 70 -4 2 -27 -27 -50 -65z m36 -29 c2 -39 2 -40
-29 -40 -23 0 -29 3 -22 13 5 6 17 24 26 40 10 15 18 27 20 27 1 0 3 -18 5
-40z"/>
<path d="M2938 3509 c-23 -39 -23 -59 0 -59 22 0 62 -40 62 -62 0 -26 -26 -40
-60 -33 -23 5 -30 3 -30 -9 0 -12 10 -16 35 -16 48 0 75 29 75 80 0 36 -4 43
-37 63 l-38 22 35 3 c58 6 64 42 7 42 -25 0 -36 -7 -49 -31z"/>
<path d="M3296 3448 c-33 -47 -2 -140 41 -124 8 3 18 6 22 6 4 0 13 11 19 25
13 28 2 34 -18 10 -12 -14 -15 -14 -31 1 -23 20 -25 60 -4 80 12 13 15 12 25
-6 14 -25 30 -26 30 -1 0 36 -61 43 -84 9z"/>
<path d="M3415 3463 c-6 -2 -9 -32 -7 -74 3 -58 6 -69 19 -65 8 3 18 6 21 6 4
0 5 23 3 51 -3 53 8 73 36 62 16 -6 19 -103 2 -103 -5 0 -8 -4 -4 -10 3 -5 19
-8 35 -7 18 1 25 6 19 12 -5 5 -9 31 -9 57 0 45 2 48 25 48 24 0 25 -3 25 -54
0 -34 -5 -56 -12 -59 -7 -3 5 -6 27 -6 30 -1 36 2 27 11 -7 7 -12 33 -12 58 0
25 -6 54 -13 65 -12 15 -19 16 -45 7 -17 -6 -34 -7 -37 -2 -5 8 -79 11 -100 3z"/>
<path d="M3918 3449 c-18 -10 -25 -58 -10 -60 39 -7 54 -4 62 12 13 23 13 25
-6 43 -18 19 -23 19 -46 5z m36 -24 c3 -9 -1 -18 -10 -22 -19 -7 -28 2 -21 22
8 19 23 19 31 0z"/>
<path d="M2192 3358 c2 -13 10 -23 18 -23 8 0 16 10 18 23 3 17 -2 22 -18 22
-16 0 -21 -5 -18 -22z"/>
<path d="M10213 3327 c-3 -49 -36 -150 -52 -155 -31 -10 -4 -22 49 -22 81 0
110 19 110 71 0 22 -4 39 -10 39 -5 0 2 12 15 26 20 21 22 30 14 46 -12 23
-49 38 -92 38 -31 0 -32 -2 -34 -43z m85 -8 c2 -18 -4 -29 -23 -39 -33 -18
-40 -9 -24 35 15 41 42 44 47 4z m-20 -71 c27 -27 -2 -78 -46 -78 -19 0 -23 4
-17 18 3 9 9 29 12 45 6 29 30 36 51 15z"/>
<path d="M2022 2745 c-55 -40 -67 -118 -26 -172 22 -29 31 -33 70 -33 31 0 50
6 65 21 25 25 17 39 -9 16 -10 -10 -32 -17 -49 -17 -40 0 -63 35 -63 94 0 46
14 70 50 81 23 7 70 -21 70 -43 0 -11 3 -13 11 -5 6 6 9 23 7 39 -3 26 -7 28
-53 31 -35 3 -57 -1 -73 -12z"/>
<path d="M2933 2718 c-19 -40 -23 -58 -11 -58 22 0 59 -52 56 -79 -3 -24 -7
-26 -40 -23 -28 2 -38 -1 -38 -11 0 -41 82 -22 100 23 18 43 -11 110 -47 110
-29 0 -12 29 19 32 44 4 49 28 6 28 -26 0 -37 -6 -45 -22z"/>
<path d="M3077 2718 c-3 -13 -9 -33 -12 -45 -6 -19 -3 -23 12 -23 23 0 63 -39
63 -62 0 -8 -9 -23 -19 -32 -16 -15 -22 -15 -40 -5 -23 15 -36 7 -28 -16 9
-21 50 -19 81 6 47 37 26 139 -30 139 -8 0 -12 5 -9 10 3 6 17 10 30 10 14 0
29 9 35 20 10 19 8 20 -33 20 -38 0 -45 -3 -50 -22z"/>
<path d="M3285 2655 c-31 -30 -33 -82 -5 -113 35 -37 81 -23 95 28 7 23 6 24
-7 7 -9 -12 -23 -18 -39 -15 -20 2 -25 9 -27 42 -4 52 13 69 38 36 15 -20 22
-22 31 -13 10 10 9 17 -6 33 -24 27 -51 25 -80 -5z"/>
<path d="M3401 2661 c-9 -6 -10 -11 -2 -15 14 -9 14 -81 1 -107 -10 -17 -7
-19 27 -19 23 0 33 3 25 8 -7 5 -12 27 -11 55 2 47 19 74 39 62 14 -9 13 -98
-2 -113 -9 -9 -3 -12 27 -12 30 0 36 3 27 12 -22 22 -11 102 16 113 21 8 32
-12 32 -62 0 -30 -5 -45 -17 -52 -14 -8 -10 -10 22 -11 22 0 35 4 28 8 -7 4
-13 36 -15 72 -3 59 -5 65 -26 68 -13 2 -29 -2 -37 -8 -9 -7 -15 -8 -20 0 -9
14 -48 13 -64 -2 -11 -10 -13 -10 -7 0 8 14 -21 17 -43 3z"/>
<path d="M3895 2630 c-13 -40 38 -68 64 -36 9 11 10 20 1 35 -14 28 -56 28
-65 1z m53 -12 c-7 -19 -38 -22 -38 -4 0 10 9 16 21 16 12 0 19 -5 17 -12z"/>
<path d="M2193 2573 c-18 -6 -16 -33 1 -33 19 0 31 19 20 30 -5 4 -15 5 -21 3z"/>
<path d="M1966 1936 c19 -14 21 -22 16 -93 -2 -43 -9 -84 -14 -90 -8 -10 6
-13 64 -13 67 0 77 3 99 26 19 20 24 36 24 77 0 78 -24 98 -129 104 -75 5 -79
4 -60 -11z m128 -28 c58 -53 25 -148 -51 -148 l-35 0 5 78 c4 42 6 80 7 85 0
16 50 6 74 -15z"/>
<path d="M2957 1921 c-39 -25 -67 -74 -67 -115 0 -46 43 -99 74 -90 32 9 56
42 56 78 0 44 -13 59 -49 59 -17 0 -31 6 -31 12 0 17 44 55 63 55 9 0 17 5 17
10 0 16 -33 11 -63 -9z m19 -106 c14 -21 15 -31 5 -51 -16 -36 -45 -28 -49 15
-6 63 15 80 44 36z"/>
<path d="M3080 1920 c-22 -17 -25 -26 -25 -89 0 -59 4 -74 22 -92 70 -71 139
84 75 170 -24 33 -41 36 -72 11z m54 -16 c3 -9 6 -42 6 -74 0 -66 -7 -90 -24
-90 -34 0 -49 117 -20 158 18 26 30 28 38 6z"/>
<path d="M3292 1850 c-44 -41 -15 -140 41 -140 18 0 37 29 37 56 0 16 -1 16
-14 -2 -21 -28 -50 -7 -54 38 -4 41 20 58 45 32 19 -19 27 -12 18 15 -8 27
-44 27 -73 1z"/>
<path d="M3396 1857 c-17 -12 -17 -14 -2 -20 23 -9 23 -92 -1 -106 -27 -15 -8
-24 33 -17 31 6 34 9 19 20 -22 16 -17 85 8 100 13 8 20 8 26 -3 12 -18 12
-89 0 -96 -20 -13 -7 -25 26 -25 36 0 47 13 19 24 -22 8 -15 85 9 100 14 8 20
8 27 -4 13 -20 13 -87 0 -95 -21 -13 -9 -25 25 -25 19 0 35 5 35 10 0 6 -4 10
-10 10 -6 0 -10 27 -10 60 0 49 -3 61 -20 70 -14 8 -26 8 -40 0 -14 -8 -26 -8
-40 0 -14 8 -26 7 -42 -1 -16 -9 -23 -9 -26 0 -5 14 -14 14 -36 -2z"/>
<path d="M3890 1829 c-14 -26 3 -49 35 -49 27 0 35 17 24 48 -11 28 -45 29
-59 1z m46 -10 c3 -6 0 -15 -7 -20 -22 -14 -29 -11 -29 11 0 21 24 27 36 9z"/>
<path d="M2194 1759 c-10 -17 13 -36 27 -22 12 12 4 33 -11 33 -5 0 -12 -5
-16 -11z"/>
<path d="M13470 1013 c-26 -8 -71 -70 -76 -105 -12 -71 34 -116 103 -103 31 6
69 32 59 42 -2 3 -19 -3 -36 -13 -28 -17 -33 -17 -57 -4 -50 29 -47 95 8 149
43 43 89 37 89 -11 0 -10 5 -18 10 -18 6 0 10 6 10 13 0 6 3 21 6 32 5 19 0
21 -48 22 -29 0 -60 -1 -68 -4z"/>
<path d="M8384 687 c15 -11 16 -17 7 -35 -6 -11 -16 -44 -22 -72 -6 -29 -20
-61 -30 -71 -19 -19 -18 -19 52 -19 90 0 123 18 143 77 29 84 -15 133 -121
133 -41 0 -45 -2 -29 -13z m108 -24 c33 -29 17 -115 -26 -145 -6 -4 -26 -8
-43 -8 -41 0 -43 18 -11 108 23 67 43 78 80 45z"/>
</g>
</svg>
