<?xml version="1.0" standalone="no"?>
<!DOCTYPE svg PUBLIC "-//W3C//DTD SVG 20010904//EN"
 "http://www.w3.org/TR/2001/REC-SVG-20010904/DTD/svg10.dtd">
<svg version="1.0" xmlns="http://www.w3.org/2000/svg"
 width="1509.000000pt" height="653.000000pt" viewBox="0 0 1509.000000 653.000000"
 preserveAspectRatio="xMidYMid meet">
<metadata>
Created by potrace 1.16, written by Peter Selinger 2001-2019
</metadata>
<g transform="translate(0.000000,653.000000) scale(0.100000,-0.100000)"
fill="#000000" stroke="none">
<path d="M1190 6087 c0 -134 6 -168 25 -137 3 6 48 10 100 10 76 0 96 -3 103
-16 16 -29 21 -1 23 139 2 122 -5 176 -18 140 -6 -18 -204 -18 -221 -1 -9 9
-12 -21 -12 -135z m62 74 c-4 -26 -1 -30 24 -34 16 -3 9 -4 -16 -3 -43 1 -45
2 -48 34 -3 28 0 32 21 32 20 0 23 -4 19 -29z m91 22 c-13 -2 -35 -2 -50 0
-16 2 -5 4 22 4 28 0 40 -2 28 -4z m75 -100 l-3 -108 -85 -3 c-65 -2 -82 0
-73 9 7 7 34 10 71 7 l60 -4 4 53 c2 29 -1 55 -7 57 -5 3 -2 5 8 5 9 1 17 6
17 11 0 6 -21 11 -47 11 -30 1 -37 4 -20 6 22 4 27 9 27 34 0 24 4 29 25 29
l26 0 -3 -107z m-73 77 c4 -6 -9 -10 -32 -9 -34 1 -35 2 -13 9 35 11 38 11 45
0z m-105 -125 c0 -51 -3 -65 -15 -65 -12 0 -15 14 -15 65 0 51 3 65 15 65 12
0 15 -14 15 -65z m103 58 c-18 -2 -48 -2 -65 0 -18 2 -4 4 32 4 36 0 50 -2 33
-4z m27 -48 c0 -35 0 -35 -42 -34 l-43 2 35 6 c26 4 36 12 38 28 3 19 -2 22
-40 26 l-43 4 48 1 47 2 0 -35z m-103 -22 c-3 -10 -5 -2 -5 17 0 19 2 27 5 18
2 -10 2 -26 0 -35z m63 17 c0 -5 -9 -10 -20 -10 -11 0 -20 5 -20 10 0 6 9 10
20 10 11 0 20 -4 20 -10z"/>
<path d="M1629 6223 c-1 -4 -2 -12 -4 -18 -1 -5 -3 -18 -3 -27 -2 -21 -61 -25
-80 -6 -9 9 -12 -6 -12 -67 0 -61 3 -76 12 -67 7 7 27 12 45 12 32 0 33 -1 33
-44 0 -24 3 -51 6 -60 12 -30 24 -5 24 50 l0 54 53 0 52 0 0 60 c0 38 -4 61
-12 64 -7 3 -15 1 -18 -4 -4 -6 -22 -10 -41 -10 -34 0 -35 1 -32 32 2 19 -2
33 -9 35 -7 3 -14 1 -14 -4z m-5 -95 c13 -50 8 -58 -34 -58 l-40 0 0 40 c0 39
1 40 34 40 26 0 35 -5 40 -22z m90 16 c10 -4 16 -18 16 -40 0 -33 -1 -34 -40
-34 l-40 0 0 40 c0 36 3 40 24 40 13 0 31 -3 40 -6z"/>
<path d="M2241 6187 c-28 -57 -27 -66 5 -32 24 26 26 26 39 9 12 -17 11 -19
-11 -22 -37 -5 -29 -22 11 -23 54 -2 58 -3 63 -16 2 -9 -11 -13 -46 -13 -51 0
-62 -9 -62 -50 0 -15 7 -17 48 -13 l47 5 -23 -23 c-12 -13 -37 -29 -54 -35
-18 -6 -34 -16 -36 -22 -4 -14 64 8 104 34 26 18 26 18 20 -3 -7 -23 1 -53 15
-53 5 0 9 23 9 50 l0 50 46 0 c41 0 45 -2 42 -22 -2 -16 -12 -24 -33 -28 l-30
-6 23 -13 c13 -7 30 -10 37 -7 18 7 40 85 27 98 -6 6 -12 6 -16 -1 -4 -6 -27
-11 -52 -11 -38 0 -45 3 -42 18 3 13 13 17 48 17 40 0 44 2 44 26 0 14 -10 36
-23 50 l-22 24 35 3 c39 3 45 12 21 32 -10 9 -15 9 -15 1 0 -6 -15 -11 -32
-11 -22 0 -29 3 -20 9 11 6 10 10 -4 15 -16 6 -28 -3 -37 -28 -2 -6 -9 -6 -18
-1 -8 5 -26 8 -42 6 -17 -2 -27 2 -25 9 2 7 -2 14 -8 17 -7 2 -21 -16 -33 -40z
m109 -11 c0 -11 -13 -36 -19 -36 -3 0 -12 9 -19 20 -11 18 -10 20 13 20 14 0
25 -2 25 -4z m57 -3 c-4 -3 -2 -12 4 -20 9 -10 5 -13 -21 -13 -32 0 -33 0 -15
20 10 11 23 20 28 20 6 0 7 -3 4 -7z m33 -68 c0 -10 -11 -15 -35 -15 -24 0
-35 5 -35 15 0 10 11 15 35 15 24 0 35 -5 35 -15z m-100 -40 c19 -12 0 -25
-36 -25 -31 0 -45 16 -29 32 7 7 50 2 65 -7z"/>
<path d="M3070 6178 c-7 -23 -20 -57 -31 -74 -25 -41 -24 -52 2 -28 l21 19 -4
-83 c-1 -45 0 -82 3 -82 4 0 8 48 11 108 3 67 10 116 19 132 13 23 14 13 17
-107 1 -78 7 -133 12 -133 6 0 10 5 10 10 0 6 32 10 75 10 43 0 75 -4 75 -10
0 -5 5 -10 10 -10 6 0 10 54 10 141 0 129 -1 140 -17 135 -60 -18 -99 -16
-180 9 -19 6 -23 2 -33 -37z m130 -23 c0 -21 -5 -25 -31 -25 -17 0 -28 -4 -24
-10 3 -5 17 -10 31 -10 19 0 25 -5 22 -17 -2 -11 -11 -17 -21 -15 -14 2 -17
-6 -17 -49 0 -42 3 -50 16 -45 9 3 30 6 48 6 32 0 32 1 30 43 -1 33 -6 42 -20
42 -12 0 -19 7 -19 20 0 16 7 20 33 20 l33 0 -3 -75 -3 -75 -70 0 -70 0 -3
108 -3 107 36 0 c31 0 35 -3 35 -25z m80 3 c0 -19 -6 -23 -34 -25 -30 -1 -34
1 -32 23 1 20 6 24 34 24 27 0 32 -4 32 -22z m-50 -129 c0 -14 -7 -19 -25 -19
-18 0 -25 5 -25 19 0 11 8 21 18 24 24 5 32 -1 32 -24z"/>
<path d="M3370 6070 l0 -135 129 0 130 0 0 135 1 135 -130 0 -130 0 0 -135z
m70 75 c0 -31 -3 -35 -25 -35 -22 0 -25 4 -25 35 0 31 3 35 25 35 22 0 25 -4
25 -35z m73 28 c-13 -2 -33 -2 -45 0 -13 2 -3 4 22 4 25 0 35 -2 23 -4z m87
-28 c0 -31 -2 -34 -22 -26 -33 12 -33 61 -1 61 20 0 23 -5 23 -35z m-70 1 c0
-9 -10 -13 -32 -11 -45 3 -49 25 -4 25 24 0 36 -5 36 -14z m-50 -36 c0 -5 -7
-7 -15 -4 -8 4 -15 8 -15 10 0 2 7 4 15 4 8 0 15 -4 15 -10z m80 0 c0 -5 -11
-10 -24 -10 -14 0 -28 5 -31 10 -4 6 7 10 24 10 17 0 31 -4 31 -10z m-140 -85
c0 -51 -3 -65 -15 -65 -12 0 -15 14 -15 65 0 51 3 65 15 65 12 0 15 -14 15
-65z m113 58 c-18 -2 -48 -2 -65 0 -18 2 -4 4 32 4 36 0 50 -2 33 -4z m67 -58
c0 -49 -3 -65 -14 -65 -10 0 -13 16 -12 65 1 45 5 65 14 65 8 0 12 -20 12 -65z
m-153 -17 c-2 -13 -4 -3 -4 22 0 25 2 35 4 23 2 -13 2 -33 0 -45z m103 22 l0
-40 -42 2 -43 1 38 4 c33 4 37 7 37 33 0 27 -2 28 -34 23 -19 -3 -36 -1 -40 6
-5 7 8 11 38 11 l46 0 0 -40z m-40 -6 c0 -9 -7 -14 -17 -12 -25 5 -28 28 -4
28 12 0 21 -6 21 -16z m23 -61 c-18 -2 -48 -2 -65 0 -18 2 -4 4 32 4 36 0 50
-2 33 -4z"/>
<path d="M3810 6201 c0 -5 6 -12 13 -15 6 -3 -13 -4 -43 -3 -49 2 -56 -1 -68
-22 -10 -20 -10 -26 5 -37 10 -7 28 -10 41 -7 24 6 29 -6 10 -25 -9 -9 -7 -12
12 -12 28 0 20 -11 -23 -28 -31 -12 -31 -12 16 -6 30 3 47 1 47 -5 0 -7 -24
-11 -60 -11 -33 0 -60 -4 -60 -10 0 -6 23 -7 60 -3 l60 6 0 -52 c0 -38 4 -51
13 -48 8 2 11 18 9 45 -4 47 -8 45 85 42 43 -1 52 1 47 13 -4 12 -18 14 -66 9
-42 -3 -59 -2 -54 6 3 6 1 12 -6 15 -17 5 24 -1 60 -10 24 -6 26 -5 13 10 -7
10 -22 17 -32 17 -21 0 -26 25 -7 36 7 5 25 7 40 6 18 -2 28 3 28 12 0 7 7 19
15 26 27 23 16 30 -49 30 -48 0 -65 4 -70 15 -6 16 -36 21 -36 6z m-2 -53 c-3
-7 -23 -14 -46 -16 -34 -3 -41 0 -36 12 8 20 88 23 82 4z m132 3 c0 -13 -34
-24 -38 -12 -5 14 -32 14 -32 1 0 -5 -9 -10 -20 -10 -13 0 -18 5 -14 15 7 17
104 22 104 6z m-85 -51 c-3 -5 -17 -10 -31 -10 -14 0 -22 4 -19 10 3 6 17 10
31 10 14 0 22 -4 19 -10z"/>
<path d="M4097 6203 c-2 -5 -7 -21 -11 -38 -4 -16 -19 -45 -33 -63 -14 -18
-22 -36 -19 -40 4 -3 13 4 22 16 8 12 18 22 22 22 4 0 5 -32 4 -70 -5 -98 -2
-100 124 -100 l104 0 0 35 c0 40 -15 47 -24 10 -6 -24 -9 -25 -90 -25 l-84 0
-4 35 -4 35 59 0 58 0 -3 47 -3 46 -55 1 c-90 2 -75 21 19 24 l84 3 -7 -38
c-3 -21 -6 -50 -6 -65 0 -24 -4 -28 -27 -28 l-28 -1 24 -13 c14 -8 30 -12 37
-9 14 5 39 156 29 173 -5 8 -10 8 -20 0 -8 -7 -38 -8 -84 -4 -67 6 -84 15 -61
29 6 4 8 11 5 16 -7 11 -22 12 -28 2z m93 -138 c0 -22 -4 -25 -40 -25 -36 0
-40 3 -40 25 0 23 4 25 40 25 36 0 40 -2 40 -25z"/>
<path d="M4489 6189 c-13 -24 -59 -68 -72 -69 -5 0 -21 -10 -35 -21 -25 -21
-26 -22 -4 -16 12 3 22 1 22 -4 0 -5 36 -9 80 -9 44 0 80 -4 80 -8 0 -35 -100
-58 -128 -30 -9 9 -12 -3 -12 -57 0 -54 3 -66 12 -57 7 7 43 12 93 12 l81 0
-3 48 c-1 26 -2 52 -3 57 0 6 -4 4 -9 -3 -5 -8 -16 -12 -25 -10 -14 2 -13 7 8
29 14 15 22 30 19 33 -4 3 -47 6 -97 6 -73 1 -87 3 -71 12 10 6 45 10 77 9 41
-2 58 1 58 10 0 7 10 3 23 -9 23 -22 67 -30 67 -13 0 5 -14 14 -32 20 -17 6
-49 29 -70 51 -22 22 -41 40 -43 40 -3 0 -9 -10 -16 -21z m42 -36 c13 -14 19
-23 12 -19 -6 3 -14 2 -18 -4 -6 -10 -55 -14 -55 -4 0 4 32 52 36 54 0 0 11
-12 25 -27z m49 -175 c0 -28 0 -28 -70 -28 l-70 0 0 29 0 29 70 -1 c69 -2 70
-2 70 -29z"/>
<path d="M5697 6196 c-3 -7 -3 -24 0 -39 7 -38 -6 -119 -18 -111 -6 3 -16 -1
-22 -10 -16 -21 -82 -35 -75 -15 2 8 19 15 36 17 18 2 32 7 32 12 0 12 -26 19
-49 13 -12 -3 -21 -1 -21 6 0 6 14 11 30 11 27 0 30 3 30 33 0 17 3 41 6 52 5
19 0 20 -65 22 l-71 1 0 -54 c0 -54 0 -54 31 -54 17 0 28 -4 24 -10 -3 -5 -20
-10 -36 -10 -18 0 -28 -4 -24 -10 3 -5 17 -10 31 -10 15 0 24 -6 24 -15 0 -10
-10 -15 -30 -15 -29 0 -42 -14 -19 -22 7 -2 7 -12 -2 -31 -7 -15 -9 -30 -5
-34 11 -11 27 12 30 43 2 21 9 30 25 32 16 3 21 -2 21 -20 0 -13 5 -30 10 -38
10 -16 13 -8 10 28 -1 17 4 22 24 22 23 0 26 -4 26 -34 0 -19 5 -38 10 -41 6
-3 10 -1 10 4 0 7 22 11 53 11 l52 0 -1 58 c-2 77 -2 78 -16 64 -23 -23 -38
-13 -38 23 0 33 2 35 35 35 19 0 35 4 35 9 0 14 -32 23 -44 11 -20 -20 -29 -9
-23 29 3 28 1 41 -8 45 -7 2 -16 -1 -18 -8z m-133 -42 c3 -9 6 -27 6 -41 0
-33 -34 -27 -38 7 l-2 25 14 -25 c15 -25 15 -25 16 -2 0 12 -7 25 -15 28 -8 4
-12 10 -9 15 8 14 21 11 28 -7z m52 4 c4 -6 3 -8 -4 -4 -6 3 -15 -2 -21 -11
-9 -15 -10 -15 -11 -2 0 28 23 39 36 17z m4 -43 c0 -16 -6 -25 -15 -25 -18 0
-19 4 -3 30 16 26 18 25 18 -5z m130 -130 c0 -33 -2 -35 -35 -35 -33 0 -35 2
-35 35 0 33 2 35 35 35 33 0 35 -2 35 -35z"/>
<path d="M7433 6191 c5 -19 1 -21 -50 -21 -33 0 -52 -4 -48 -10 3 -5 17 -10
30 -10 12 0 25 -7 29 -15 4 -12 -3 -15 -34 -15 -22 0 -40 -4 -40 -10 0 -6 53
-10 140 -10 96 0 140 3 140 11 0 8 -15 9 -45 5 -29 -5 -45 -4 -45 3 0 6 5 11
10 11 6 0 10 7 10 15 0 8 9 15 20 15 11 0 20 4 20 10 0 5 -21 7 -50 3 -27 -3
-50 -2 -50 3 0 5 -10 15 -21 23 -20 12 -21 11 -16 -8z m57 -43 c0 -7 -4 -19
-9 -27 -14 -22 -70 3 -71 32 0 4 18 7 40 7 25 0 40 -5 40 -12z"/>
<path d="M347 6189 c-15 -9 -16 -12 -2 -25 20 -21 17 -161 -5 -174 -11 -7 -2
-10 30 -10 40 1 43 2 27 14 -16 12 -18 27 -15 110 3 98 0 105 -35 85z"/>
<path d="M493 6134 c-49 -76 -55 -106 -20 -104 48 4 57 0 57 -25 0 -16 6 -25
15 -25 10 0 15 10 15 30 0 20 5 30 15 30 8 0 15 5 15 10 0 6 -7 10 -15 10 -12
0 -15 14 -15 70 0 49 -4 70 -12 70 -7 0 -32 -30 -55 -66z m34 -71 c-3 -2 -17
-3 -32 -1 l-27 3 21 24 c11 13 24 33 28 45 6 17 9 12 11 -23 2 -23 1 -45 -1
-48z"/>
<path d="M5210 6146 c0 -49 -2 -55 -22 -59 -22 -4 -22 -4 -2 -6 12 0 25 -8 28
-17 5 -12 2 -15 -9 -10 -18 6 -35 -29 -35 -72 1 -25 2 -24 19 13 l19 40 1 -52
c2 -105 30 -110 32 -5 1 59 2 64 12 40 13 -33 27 -37 27 -8 0 11 -9 25 -20 32
-28 18 -25 38 6 38 15 0 23 4 18 11 -3 6 -15 9 -25 6 -24 -6 -24 -2 -1 22 34
38 41 49 35 55 -13 13 -24 5 -39 -26 l-14 -33 2 40 c2 31 -1 40 -15 43 -14 3
-17 -5 -17 -52z"/>
<path d="M5325 6185 c19 -54 19 -55 -14 -55 -35 0 -38 -5 -16 -26 10 -11 15
-36 15 -85 0 -67 -1 -69 -25 -69 -14 0 -25 -4 -25 -10 0 -6 39 -10 96 -10 72
0 95 3 91 13 -2 7 -18 11 -37 9 -31 -2 -32 -1 -26 25 16 71 32 121 43 134 7 8
8 20 4 28 -7 11 -12 10 -31 -1 -19 -11 -23 -11 -27 0 -3 7 -16 25 -30 40 -20
22 -23 23 -18 7z m65 -88 c0 -39 -33 -147 -45 -147 -8 0 -15 23 -19 63 -4 34
-9 71 -12 82 -4 18 0 20 35 20 33 0 41 -3 41 -18z"/>
<path d="M6730 6159 c0 -27 -4 -38 -11 -33 -6 3 -9 19 -7 35 3 20 0 29 -9 29
-8 0 -13 -13 -14 -32 -1 -22 -3 -26 -6 -13 -3 11 -10 25 -15 30 -7 7 -9 1 -4
-17 4 -17 2 -28 -4 -28 -5 0 -10 -4 -10 -10 0 -5 6 -10 14 -10 13 0 26 -20 26
-41 0 -6 -9 -7 -20 -4 -11 3 -20 2 -20 -4 0 -5 15 -11 33 -13 40 -4 44 -32 5
-36 -16 -2 -28 -7 -28 -12 0 -5 12 -10 28 -12 36 -4 35 -30 -3 -42 -38 -13
-38 -13 -31 -24 7 -11 103 9 132 27 16 11 14 12 -13 7 -28 -5 -33 -2 -33 14 0
15 7 20 26 20 16 0 24 5 21 13 -2 6 -14 11 -26 10 -15 -2 -21 3 -21 17 0 13 6
18 23 17 12 -1 22 3 22 8 0 6 -6 9 -12 9 -16 -2 -16 2 -3 27 12 21 30 26 30 7
0 -8 14 -13 37 -13 l38 0 0 -70 c0 -69 0 -70 -30 -76 -16 -4 -22 -7 -12 -8 10
0 20 -8 23 -16 5 -11 10 -12 25 -2 16 10 19 24 19 94 0 69 3 83 16 83 9 0 14
6 11 13 -2 6 -10 11 -17 9 -9 -2 -11 8 -7 38 4 29 2 40 -8 40 -9 0 -15 -15
-17 -42 -3 -40 -5 -43 -36 -46 -23 -2 -32 1 -30 10 2 8 -6 13 -19 12 -20 0
-20 1 -7 20 18 26 18 36 -1 36 -8 0 -15 -9 -15 -19 0 -11 -5 -23 -12 -27 -8
-5 -9 2 -5 24 4 21 2 32 -8 36 -12 4 -15 -4 -15 -35z m20 -68 c0 -10 -7 -22
-16 -25 -20 -8 -19 -8 -28 22 -6 19 -4 22 18 22 19 0 26 -5 26 -19z"/>
<path d="M7045 6184 c-4 -10 -11 -27 -16 -36 -5 -10 -9 -23 -9 -29 0 -6 -11
-25 -25 -41 -29 -35 -25 -51 5 -23 20 18 20 18 20 -68 0 -51 4 -87 10 -87 6 0
10 42 10 105 0 77 4 113 17 140 13 27 14 38 5 47 -9 9 -13 7 -17 -8z"/>
<path d="M2750 6179 c-21 -9 -23 -12 -9 -19 12 -7 16 -26 17 -77 0 -37 -4 -75
-9 -85 -9 -16 -5 -18 28 -17 21 0 32 3 26 6 -9 3 -13 34 -13 104 0 54 -3 99
-7 98 -5 0 -19 -5 -33 -10z"/>
<path d="M5870 6173 c0 -9 23 -13 82 -13 81 0 82 0 58 -17 -14 -10 -27 -16
-30 -13 -3 2 -7 -9 -10 -26 -5 -28 -7 -29 -73 -32 -86 -4 -79 -22 9 -22 l64 0
0 -50 c0 -49 -1 -50 -30 -50 -37 0 -38 -11 -5 -27 38 -17 55 6 55 73 l0 54 64
0 c69 0 90 12 55 30 -15 9 -24 9 -32 1 -6 -6 -28 -11 -49 -11 -33 0 -38 3 -38
23 0 18 11 29 50 48 27 13 48 28 47 33 -5 15 -217 13 -217 -1z"/>
<path d="M8050 6180 c0 -5 -13 -10 -30 -10 -16 0 -30 -4 -30 -10 0 -5 14 -10
30 -10 17 0 30 -5 30 -11 0 -6 -11 -8 -27 -5 -26 6 -28 4 -28 -26 0 -25 5 -33
17 -32 14 1 15 -2 8 -16 -5 -10 -17 -20 -25 -24 -31 -12 9 -35 66 -38 53 -3
54 -4 57 -35 3 -30 1 -33 -24 -33 -24 0 -26 3 -20 30 4 22 2 30 -9 30 -10 0
-15 -10 -15 -30 0 -28 -3 -30 -37 -30 -20 0 -34 -3 -30 -6 3 -4 70 -8 147 -10
111 -3 141 -1 138 8 -3 9 -23 12 -66 10 -51 -3 -62 -1 -62 12 0 12 11 16 45
16 25 0 45 5 45 10 0 11 -10 13 -57 10 -18 -1 -33 3 -33 9 0 6 20 11 46 11 36
0 51 5 66 23 19 21 19 22 1 26 -36 7 -44 21 -28 51 8 16 20 30 27 33 24 8 -3
21 -39 19 -30 -2 -34 0 -25 11 13 15 6 27 -15 27 -7 0 -13 -8 -13 -18 0 -26
-25 -58 -34 -43 -4 6 -18 8 -32 5 -14 -4 -24 -2 -24 5 0 6 14 11 31 11 20 0
29 4 26 13 -2 6 -14 11 -26 10 -11 -2 -21 2 -21 7 0 6 -7 10 -15 10 -8 0 -15
-4 -15 -10z m160 -64 c0 -7 -6 -19 -14 -25 -12 -10 -17 -8 -25 8 -15 28 -14
31 14 31 15 0 25 -6 25 -14z m-162 -8 c-6 -18 -28 -21 -28 -4 0 9 7 16 16 16
9 0 14 -5 12 -12z m52 -4 c0 -9 -7 -14 -17 -12 -25 5 -28 28 -4 28 12 0 21 -6
21 -16z m68 -32 c2 -6 -7 -16 -19 -23 -18 -9 -24 -9 -33 3 -6 8 -18 17 -26 21
-9 3 -3 6 14 6 22 1 27 5 22 17 -6 15 -4 15 16 2 12 -8 24 -20 26 -26z m-58
-42 c0 -16 32 -12 51 6 12 11 27 14 45 10 25 -7 26 -8 8 -21 -12 -9 -43 -14
-81 -15 -61 0 -63 1 -63 25 0 23 2 24 20 15 11 -6 20 -15 20 -20z m-60 1 c0
-14 -5 -18 -20 -14 -16 4 -18 8 -9 19 16 20 29 17 29 -5z"/>
<path d="M8390 6179 c0 -7 -10 -9 -25 -7 -19 4 -25 1 -25 -13 0 -9 -4 -19 -10
-21 -5 -1 -7 -13 -4 -25 5 -17 14 -23 38 -24 30 -2 30 -2 4 -6 -23 -4 -28 -9
-28 -34 0 -23 4 -29 21 -29 12 0 17 -4 13 -11 -3 -6 -17 -8 -29 -5 -13 3 -27
2 -30 -4 -3 -6 5 -10 18 -10 20 0 24 -4 20 -19 -3 -13 1 -21 14 -24 14 -4 11
-7 -14 -18 -30 -12 -49 -37 -20 -26 83 31 85 31 112 13 27 -18 28 -17 57 11
l30 28 24 -29 c19 -22 28 -26 37 -17 9 9 5 18 -16 37 -19 17 -26 32 -22 43 4
9 11 37 17 64 7 28 17 47 25 47 8 0 11 5 8 10 -3 6 -24 10 -46 10 -43 0 -46 5
-24 37 13 18 13 22 0 27 -18 6 -18 5 -40 -69 -10 -33 -20 -54 -22 -47 -3 6
-19 13 -36 13 -28 2 -29 2 -7 6 14 3 33 13 43 24 16 17 16 21 2 43 -11 16 -22
22 -35 19 -11 -3 -20 0 -20 6 0 6 -7 11 -15 11 -8 0 -15 -5 -15 -11z m0 -35
c0 -2 -7 -4 -15 -4 -8 0 -15 4 -15 10 0 5 7 7 15 4 8 -4 15 -8 15 -10z m60 2
c0 -9 -30 -14 -35 -6 -4 6 3 10 14 10 12 0 21 -2 21 -4z m-63 -32 c-3 -3 -12
-4 -19 -1 -8 3 -5 6 6 6 11 1 17 -2 13 -5z m56 -1 c-7 -2 -19 -2 -25 0 -7 3
-2 5 12 5 14 0 19 -2 13 -5z m111 -50 c-10 -57 -19 -70 -32 -47 -10 19 -15 48
-13 72 0 6 12 12 26 12 24 0 26 -2 19 -37z m-164 -13 c0 -5 -7 -10 -15 -10 -8
0 -15 5 -15 10 0 6 7 10 15 10 8 0 15 -4 15 -10z m60 0 c0 -5 -9 -10 -20 -10
-11 0 -20 5 -20 10 0 6 9 10 20 10 11 0 20 -4 20 -10z m58 -33 c15 -43 16 -39
-12 -72 l-24 -27 -20 20 c-19 19 -20 23 -6 37 9 8 23 15 32 15 15 1 15 2 2 13
-18 14 -15 47 4 47 6 0 17 -15 24 -33z m-73 -7 c-3 -5 -13 -10 -21 -10 -8 0
-12 5 -9 10 3 6 13 10 21 10 8 0 12 -4 9 -10z m-17 -32 c-3 -7 -15 -15 -28
-16 -21 -3 -22 -2 -11 12 16 19 44 21 39 4z"/>
<path d="M4890 6160 c-24 -24 -27 -82 -4 -104 8 -9 26 -16 40 -16 13 0 24 -4
24 -8 0 -10 -38 -45 -65 -60 -18 -10 -17 -11 12 -12 25 0 38 8 64 41 27 34 33
50 32 89 -1 77 -57 116 -103 70z m60 -19 c12 -24 13 -68 1 -75 -22 -14 -41 7
-41 43 0 53 20 69 40 32z"/>
<path d="M5175 6148 c8 -39 25 -61 25 -32 0 31 -12 64 -22 64 -6 0 -7 -14 -3
-32z"/>
<path d="M7205 6170 c-3 -5 -33 -10 -66 -10 -33 0 -59 -4 -59 -10 0 -5 15 -10
34 -10 32 0 34 -2 31 -27 -2 -16 -4 -31 -4 -35 -1 -5 -21 -8 -46 -8 -60 0 -58
-18 2 -22 l48 -3 0 -50 0 -50 -43 -3 c-79 -6 -32 -22 64 -22 72 0 95 3 91 13
-2 8 -19 11 -46 9 l-41 -3 0 55 0 56 45 0 c25 0 45 5 45 10 0 11 -10 13 -57
10 -32 -1 -33 0 -33 39 l0 40 37 -6 c32 -5 35 -4 30 11 -4 10 -7 20 -7 22 0 8
-19 4 -25 -6z"/>
<path d="M7886 6173 c-4 -4 -56 -6 -117 -5 -70 2 -109 0 -109 -7 0 -5 28 -11
63 -13 l62 -3 3 -79 c4 -103 -2 -128 -31 -124 -20 3 -22 9 -23 78 -1 61 -5 76
-18 78 -14 3 -16 -8 -16 -78 l0 -82 -30 7 c-19 4 -30 3 -30 -4 0 -7 50 -11
153 -11 134 1 150 2 133 15 -13 10 -24 11 -37 5 -10 -6 -31 -10 -48 -10 -31 0
-31 0 -31 55 l0 55 46 0 c32 0 44 4 41 13 -2 8 -18 11 -45 9 l-42 -4 0 41 0
41 61 0 c44 0 60 3 57 13 -5 14 -31 21 -42 10z"/>
<path d="M9547 6139 c-43 -65 -34 -80 15 -28 22 22 36 29 51 25 12 -3 27 -6
32 -6 6 0 11 -9 11 -20 0 -11 -6 -20 -12 -20 -6 0 -14 9 -17 20 -5 20 -37 29
-37 10 0 -5 5 -10 10 -10 6 0 10 -4 10 -10 0 -5 -12 -10 -27 -10 -14 0 -23 -3
-19 -7 9 -9 14 -10 61 -12 19 0 35 -6 35 -12 0 -6 -18 -9 -46 -8 -43 3 -47 1
-59 -29 -14 -31 -6 -50 15 -37 6 4 24 4 40 0 l30 -7 -29 -24 c-16 -13 -35 -24
-43 -24 -8 0 -23 -7 -34 -15 -18 -14 -18 -14 4 -15 25 0 103 36 114 54 4 6 8
-8 8 -31 0 -31 4 -43 15 -43 11 0 13 10 8 50 l-6 50 53 0 c43 0 51 -3 46 -16
-3 -9 -6 -20 -6 -26 0 -6 -11 -8 -25 -6 -30 6 -32 -3 -5 -20 17 -10 23 -9 40
8 11 11 21 29 22 40 0 11 1 26 2 33 1 9 -16 11 -61 9 -41 -3 -63 0 -63 7 0 13
1 13 59 15 42 2 44 4 46 31 1 21 -6 37 -24 52 l-26 22 38 1 c27 0 37 4 34 13
-2 8 -21 11 -53 10 -27 -2 -43 0 -36 3 15 7 6 24 -14 24 -8 0 -14 -7 -14 -15
0 -18 -26 -20 -34 -2 -5 10 -7 10 -12 0 -3 -7 -17 -13 -31 -13 -21 0 -24 2
-13 15 10 12 9 15 -7 15 -12 0 -30 -16 -46 -41z m177 -25 c9 -22 3 -26 -30
-22 -27 3 -27 4 -10 21 22 21 32 22 40 1z m31 -54 c-3 -5 -22 -10 -41 -10 -21
0 -33 4 -29 10 3 6 22 10 41 10 21 0 33 -4 29 -10z m-95 -47 c0 -9 -14 -13
-40 -13 -26 0 -40 5 -40 13 0 8 14 13 40 13 27 0 40 -4 40 -13z"/>
<path d="M11085 6138 c-4 -18 -18 -54 -31 -80 -23 -48 -23 -63 2 -30 11 15 13
5 14 -65 0 -124 16 -100 23 35 6 123 12 155 31 149 7 -3 11 -46 10 -135 -1
-73 3 -132 7 -132 5 0 9 5 9 10 0 6 30 10 70 10 40 0 70 -4 70 -10 0 -5 5 -10
10 -10 6 0 9 43 8 113 -1 61 1 122 5 134 9 25 -9 41 -26 24 -16 -16 -87 -14
-137 4 -57 20 -57 20 -65 -17z m203 -115 l-3 -108 -65 0 -65 0 -3 108 -3 107
71 0 71 0 -3 -107z"/>
<path d="M11210 6100 c0 -15 -7 -20 -26 -20 -14 0 -23 -4 -19 -10 3 -5 15 -10
26 -10 13 0 19 -7 19 -21 0 -16 -4 -19 -20 -14 -18 6 -20 2 -20 -38 0 -24 2
-46 4 -48 3 -2 25 -3 50 -1 l46 4 0 45 c0 40 -2 45 -20 40 -15 -4 -20 0 -20
14 0 14 7 19 25 19 16 0 25 6 25 16 0 12 -6 15 -26 10 -22 -6 -25 -4 -19 14 5
14 2 20 -9 20 -9 0 -16 -9 -16 -20z m38 -117 c-2 -11 -14 -19 -31 -21 -22 -3
-27 1 -27 17 0 17 6 21 31 21 24 0 30 -4 27 -17z"/>
<path d="M11823 6149 c5 -20 3 -21 -49 -17 -53 5 -54 4 -54 -23 0 -32 15 -45
47 -41 17 3 20 -1 16 -17 -4 -16 0 -21 13 -22 12 0 4 -8 -21 -20 l-40 -19 48
6 c31 4 47 3 47 -5 0 -7 -23 -11 -62 -11 -34 0 -58 -3 -54 -7 4 -4 31 -8 59
-8 56 0 53 3 56 -67 2 -47 20 -31 23 20 l3 47 50 1 c69 1 77 3 71 13 -3 5 -32
7 -64 4 -50 -5 -59 -3 -59 11 0 11 6 15 15 11 42 -16 64 -17 60 -4 -2 8 -17
15 -31 17 -30 4 -31 5 -16 33 8 15 19 20 41 17 24 -2 32 1 34 16 1 10 8 23 16
27 24 15 -3 24 -61 21 -52 -3 -59 -1 -64 17 -3 12 -11 21 -17 21 -8 0 -10 -8
-7 -21z m-13 -37 c-1 -23 -38 -39 -67 -28 -24 9 0 31 36 33 17 1 31 -1 31 -5z
m55 -13 c0 -7 -9 -15 -20 -17 -15 -2 -17 -1 -6 6 8 6 10 15 6 22 -5 8 -3 11 6
8 8 -3 14 -11 14 -19z m75 10 c0 -4 -7 -12 -15 -19 -11 -10 -18 -9 -30 3 -22
22 -19 28 15 25 17 -1 30 -5 30 -9z m-90 -54 c-13 -16 -40 -20 -40 -7 0 14 12
22 33 22 16 0 17 -3 7 -15z"/>
<path d="M12718 6120 c-29 -51 -22 -70 8 -25 18 28 34 33 34 11 0 -8 6 -17 13
-19 6 -3 0 -6 -15 -6 -47 -2 -31 -20 19 -23 66 -4 70 -28 4 -28 -28 0 -51 -3
-51 -7 0 -5 -3 -18 -6 -30 -6 -21 -3 -23 40 -23 60 0 53 -20 -20 -52 -52 -22
-69 -38 -40 -38 8 0 17 4 21 9 3 5 18 12 34 16 16 3 35 13 42 21 19 23 29 16
29 -21 0 -19 5 -35 10 -35 6 0 10 23 10 50 l0 50 45 0 c42 0 45 -2 45 -26 0
-24 -3 -26 -31 -20 -22 4 -29 2 -26 -7 2 -6 6 -10 9 -7 3 3 12 -1 21 -9 22
-17 47 1 47 35 0 12 5 26 10 29 25 16 5 25 -55 25 -37 0 -65 4 -65 10 0 6 25
10 56 10 42 0 53 3 47 13 -4 6 -6 22 -4 35 1 14 -3 22 -12 22 -8 0 -17 9 -20
20 -4 17 0 20 30 20 23 0 33 4 30 13 -3 8 -20 11 -53 9 -35 -2 -45 0 -34 7 12
9 12 11 -2 16 -22 9 -38 -2 -38 -24 0 -10 -7 -24 -15 -31 -9 -7 -13 -15 -10
-18 3 -3 14 3 25 13 20 18 21 18 34 -1 14 -18 12 -19 -29 -22 -34 -2 -49 2
-64 17 l-21 21 36 0 c24 0 34 4 31 13 -2 7 -18 11 -41 9 -24 -2 -35 1 -34 9 2
6 -1 13 -7 15 -5 2 -22 -19 -37 -46z m202 -75 c0 -11 -11 -15 -40 -15 -31 0
-38 3 -34 15 4 9 19 15 40 15 24 0 34 -5 34 -15z m-95 -45 c-3 -5 -22 -10 -41
-10 -21 0 -33 4 -29 10 3 6 22 10 41 10 21 0 33 -4 29 -10z"/>
<path d="M13577 6163 c-3 -5 -8 -24 -12 -43 -4 -19 -16 -50 -27 -68 -22 -36
-18 -53 7 -32 13 11 15 3 15 -64 0 -44 4 -76 10 -76 6 0 10 44 10 113 0 86 4
118 16 135 8 12 12 27 9 32 -7 12 -22 13 -28 3z"/>
<path d="M10079 6137 c-32 -28 -59 -86 -59 -126 0 -39 32 -105 62 -125 34 -24
44 -19 18 8 -12 14 -26 44 -31 68 -9 50 -1 134 15 151 44 48 41 65 -5 24z"/>
<path d="M11388 6020 l-3 -135 122 0 123 0 0 128 c0 70 -1 129 -2 132 -2 3
-56 7 -120 8 l-117 2 -3 -135z m230 0 l-3 -115 -102 -3 -103 -2 0 115 c0 108
1 115 20 115 16 0 20 -7 20 -35 0 -33 2 -35 26 -29 20 5 25 4 19 -6 -5 -8 -20
-10 -41 -7 -19 3 -34 2 -34 -4 0 -5 5 -9 10 -9 6 0 9 -3 9 -7 -1 -5 -1 -33 0
-63 l1 -55 72 2 73 1 3 58 c2 32 8 61 14 65 21 13 -2 27 -40 24 -20 -1 -27 0
-14 2 20 4 28 25 20 51 -2 4 -25 6 -53 5 l-50 -1 45 7 c25 3 60 6 78 6 l33 0
-3 -115z m-68 80 c0 -5 -13 -10 -30 -10 -16 0 -33 -1 -37 -2 -3 -2 -8 3 -10
10 -3 8 8 12 36 12 23 0 41 -4 41 -10z m-7 -67 c-18 -2 -48 -2 -65 0 -18 2 -4
4 32 4 36 0 50 -2 33 -4z m17 -53 l0 -40 -42 2 -43 1 38 4 c33 4 37 7 37 31 0
25 -3 27 -40 27 -39 0 -40 -1 -41 -35 l-1 -35 -8 35 c-5 19 -6 38 -4 42 3 5
27 8 55 8 l49 0 0 -40z m-32 -2 c-3 -7 -11 -13 -18 -13 -7 0 -15 6 -17 13 -3
7 4 12 17 12 13 0 20 -5 18 -12z"/>
<path d="M12079 6129 c0 -19 -2 -43 -4 -54 -6 -28 12 -55 24 -37 6 10 28 13
82 10 l74 -3 3 59 c3 53 1 58 -15 51 -34 -15 -133 -18 -148 -5 -13 11 -15 7
-16 -21z m151 -9 c0 -6 -28 -10 -65 -10 -37 0 -65 4 -65 10 0 6 28 10 65 10
37 0 65 -4 65 -10z m-3 -43 c-2 -7 -28 -13 -65 -15 -49 -2 -62 0 -62 12 0 11
15 14 66 15 47 0 64 -3 61 -12z"/>
<path d="M12499 6153 c-1 -5 0 -20 1 -35 1 -25 -1 -26 -44 -26 -25 0 -48 4
-52 9 -17 29 -24 -2 -23 -107 1 -113 2 -116 23 -109 11 4 61 9 110 11 66 4 92
1 98 -8 9 -15 8 -22 11 115 1 55 -1 101 -5 104 -5 2 -8 -1 -8 -7 0 -7 -17 -10
-47 -8 -49 3 -55 10 -38 51 5 12 2 17 -9 17 -9 0 -16 -3 -17 -7z m-1 -114 l3
-36 -45 -1 -46 -2 0 40 0 41 43 -3 c40 -3 42 -4 45 -39z m110 4 c-3 -38 -3
-38 -48 -38 -45 0 -45 0 -48 38 l-3 37 51 0 51 0 -3 -37z m-108 -93 l0 -40
-45 0 -45 0 0 40 0 40 45 0 45 0 0 -40z m110 0 l0 -40 -48 0 -48 0 -1 40 -2
40 50 0 49 0 0 -40z"/>
<path d="M13870 6022 l0 -137 115 4 c90 2 115 0 115 -10 0 -8 3 -9 9 -3 6 5
11 70 11 144 2 126 1 135 -17 132 -72 -11 -201 -13 -207 -3 -20 31 -26 0 -26
-127z m230 73 c0 -21 -5 -35 -12 -35 -7 0 -30 -3 -50 -6 -25 -5 -38 -3 -38 5
0 6 11 11 25 11 19 0 25 5 25 23 0 20 -5 22 -60 23 -60 1 -60 1 -60 -28 0 -25
3 -28 25 -22 16 4 25 2 25 -6 0 -8 -13 -11 -40 -8 -22 2 -40 0 -40 -5 0 -5 45
-7 100 -5 l100 3 -3 -70 c-2 -57 -5 -70 -19 -73 -15 -3 -17 4 -13 60 l4 63
-75 0 -74 1 0 -64 c0 -46 -3 -63 -12 -60 -13 5 -24 187 -14 215 4 10 32 13
106 13 l100 0 0 -35z m-80 -5 c0 -5 -13 -10 -29 -10 -17 0 -33 5 -36 10 -4 6
8 10 29 10 20 0 36 -4 36 -10z m-68 -115 c2 -19 0 -35 -4 -35 -4 0 -8 16 -8
35 0 19 2 35 4 35 2 0 6 -16 8 -35z m88 0 c0 -34 -1 -35 -37 -33 -37 1 -37 1
-5 5 26 4 32 9 32 28 0 20 -6 24 -37 28 l-38 4 43 1 c42 2 42 2 42 -33z m-30
-5 c0 -5 -6 -10 -14 -10 -8 0 -18 5 -21 10 -3 6 3 10 14 10 12 0 21 -4 21 -10z
m35 -60 c4 -6 -15 -10 -50 -10 -35 0 -54 4 -50 10 3 6 26 10 50 10 24 0 47 -4
50 -10z"/>
<path d="M14311 6144 c13 -15 9 -16 -43 -12 -52 4 -57 3 -68 -20 -9 -20 -8
-27 7 -38 10 -7 28 -14 40 -14 15 0 21 -5 17 -14 -3 -8 2 -16 13 -19 14 -3 11
-7 -14 -18 -18 -7 -33 -17 -33 -21 0 -4 -12 -8 -26 -8 -14 0 -23 -4 -19 -10 3
-5 33 -10 66 -10 54 0 59 -2 59 -22 0 -36 11 -68 21 -62 5 3 9 23 9 45 l0 39
61 0 c44 0 59 3 56 13 -2 6 -14 11 -26 10 -12 -2 -20 2 -18 9 1 7 -12 17 -30
23 -26 9 -30 14 -22 28 6 11 22 17 43 17 28 0 35 5 40 25 4 14 11 25 16 25 6
0 10 5 10 10 0 6 -28 10 -64 10 -48 0 -65 4 -70 15 -3 8 -13 15 -22 15 -14 0
-15 -2 -3 -16z m-23 -46 c-7 -20 -68 -23 -68 -4 0 12 10 16 36 16 24 0 34 -4
32 -12z m142 3 c0 -13 -34 -24 -38 -12 -5 14 -42 14 -42 1 0 -5 -7 -10 -15
-10 -9 0 -12 6 -9 15 7 17 104 22 104 6z m-96 -56 c-7 -16 -14 -18 -38 -9 -22
9 -10 24 19 24 18 0 23 -4 19 -15z m61 -56 c5 -5 -3 -9 -22 -9 -17 0 -33 6
-36 13 -4 10 -7 10 -18 0 -7 -7 -27 -13 -43 -12 -30 1 -30 1 9 14 40 14 92 11
110 -6z"/>
<path d="M10621 6139 c-19 -7 -22 -12 -13 -21 16 -16 16 -160 0 -176 -9 -9 -3
-12 28 -12 28 0 35 3 24 10 -12 7 -14 30 -13 110 1 55 1 100 0 99 -1 0 -13 -5
-26 -10z"/>
<path d="M10696 6135 c4 -8 10 -15 15 -15 16 0 31 -85 25 -144 -4 -41 -13 -67
-28 -83 -26 -28 -20 -38 10 -17 31 22 62 86 62 130 0 40 -21 90 -51 123 -23
24 -41 28 -33 6z"/>
<path d="M13619 6115 c0 -16 0 -75 1 -130 1 -94 7 -126 17 -98 4 12 73 11 140
-3 22 -4 22 -3 18 116 -2 66 1 122 6 125 23 15 2 20 -86 20 l-95 0 -1 -30z
m75 -1 c11 -28 7 -34 -24 -34 -25 0 -30 4 -30 25 0 20 5 25 24 25 13 0 27 -7
30 -16z m67 6 c18 0 19 -8 19 -105 l0 -105 -70 0 -70 0 0 78 0 79 30 -5 c22
-3 30 -10 30 -24 0 -14 -5 -18 -19 -13 -16 5 -20 -1 -23 -37 -3 -24 -2 -46 1
-49 3 -3 25 -4 49 -1 41 4 42 5 42 43 0 28 -4 39 -15 39 -8 0 -15 9 -15 20 0
15 7 20 26 20 16 0 24 5 21 13 -2 6 -13 11 -24 9 -15 -2 -22 4 -25 23 -4 20
-2 25 9 21 8 -3 23 -6 34 -6z m-31 -140 c0 -15 -7 -20 -25 -20 -18 0 -25 5
-25 20 0 15 7 20 25 20 18 0 25 -5 25 -20z"/>
<path d="M1955 6110 c-4 -6 -2 -17 4 -24 6 -7 8 -22 5 -32 -6 -17 -5 -17 9 -4
23 21 26 63 5 68 -9 2 -19 -2 -23 -8z"/>
<path d="M10436 6060 c-6 -36 -9 -40 -36 -40 -40 0 -38 -18 3 -22 28 -3 32 -7
32 -32 1 -16 6 -31 13 -34 8 -2 12 9 12 32 0 34 2 36 35 36 44 0 46 18 3 22
-30 3 -33 6 -36 41 -4 49 -18 47 -26 -3z"/>
<path d="M6275 6070 c-14 -43 44 -67 68 -29 16 26 1 49 -32 49 -21 0 -32 -6
-36 -20z m50 -11 c0 -7 -8 -15 -17 -17 -18 -3 -25 18 -11 32 10 10 28 1 28
-15z"/>
<path d="M7373 6020 c3 -38 10 -78 16 -88 12 -22 47 -29 106 -22 32 4 41 10
43 28 4 25 -13 30 -22 6 -4 -11 -18 -14 -58 -12 -49 3 -53 5 -52 28 1 14 -4
28 -10 32 -6 4 18 8 54 8 62 0 65 -1 96 -37 18 -21 36 -35 39 -31 10 10 -14
48 -30 48 -11 0 -15 13 -15 53 l0 52 -86 2 -87 2 6 -69z m147 40 c0 -6 -28
-10 -65 -10 -37 0 -65 4 -65 10 0 6 28 10 65 10 37 0 65 -4 65 -10z m-3 -33
c-2 -7 -11 -12 -20 -11 -9 0 -37 1 -62 2 -71 3 -52 21 21 21 45 -1 64 -4 61
-12z"/>
<path d="M8930 6083 c-8 -3 -23 -12 -32 -21 -16 -14 -18 -13 -18 1 0 12 -9 17
-27 17 -18 0 -24 -3 -15 -8 10 -7 9 -17 -3 -51 -28 -79 -9 -117 22 -43 17 41
60 89 70 78 4 -3 1 -21 -5 -39 -23 -65 -5 -106 26 -57 7 11 8 20 3 20 -6 0 -6
12 0 32 11 40 12 78 2 77 -5 0 -15 -3 -23 -6z"/>
<path d="M9180 6067 c0 -9 6 -17 13 -20 9 -3 9 -8 -2 -21 -19 -22 -8 -31 18
-14 29 18 25 62 -6 66 -15 2 -23 -2 -23 -11z"/>
<path d="M10167 6047 c3 -19 -2 -48 -10 -70 -10 -23 -12 -39 -6 -43 14 -8 39
15 39 35 0 21 56 88 65 79 4 -4 0 -28 -9 -54 -8 -25 -13 -50 -10 -55 9 -15 30
-10 49 11 16 18 16 20 2 20 -21 0 -21 2 -2 47 9 20 13 43 11 50 -8 20 -37 16
-63 -9 l-23 -21 0 21 c0 17 -6 22 -24 22 -22 0 -24 -3 -19 -33z"/>
<path d="M13235 6062 c-15 -5 -20 -16 -21 -42 -1 -19 -4 -50 -9 -67 -6 -27 -4
-33 9 -33 9 0 19 12 22 28 9 35 44 82 61 82 17 0 16 -12 -4 -55 -13 -28 -14
-38 -5 -47 9 -9 17 -10 29 -2 20 12 26 135 7 141 -6 2 -26 -9 -44 -24 -29 -24
-31 -24 -22 -6 19 35 17 37 -23 25z"/>
<path d="M6818 6048 c7 -7 12 -20 12 -30 0 -10 5 -18 10 -18 6 0 10 8 10 18 0
20 -18 42 -34 42 -6 0 -5 -5 2 -12z"/>
<path d="M12272 6034 c-11 -12 -38 -14 -133 -10 -68 2 -119 0 -119 -5 0 -5 32
-9 70 -9 l70 0 0 -50 c0 -27 -4 -50 -8 -50 -18 0 -43 39 -40 62 2 15 -2 23
-12 23 -8 0 -17 -11 -18 -24 -2 -14 -15 -40 -29 -58 -34 -45 -19 -57 18 -15
l29 33 22 -21 c29 -27 50 -32 128 -28 86 4 89 23 3 23 -63 0 -68 2 -71 23 -3
20 0 22 47 22 55 0 73 13 41 30 -13 7 -20 7 -20 0 0 -5 -15 -10 -33 -10 -26 0
-33 4 -34 20 -2 18 4 20 68 20 68 0 86 10 52 29 -13 6 -22 5 -31 -5z"/>
<path d="M624 6009 c-10 -17 13 -36 27 -22 12 12 4 33 -11 33 -5 0 -12 -5 -16
-11z"/>
<path d="M3745 5973 c-51 -33 -49 -32 -43 -39 9 -9 109 46 103 56 -9 15 -16
13 -60 -17z"/>
<path d="M3870 5992 c0 -12 84 -61 93 -55 14 8 -21 39 -58 50 -19 6 -35 8 -35
5z"/>
<path d="M5556 5963 c9 -38 14 -42 14 -10 0 14 -5 29 -10 32 -7 4 -8 -3 -4
-22z"/>
<path d="M7455 5970 c20 -22 31 -20 22 5 -4 8 -14 15 -23 15 -16 0 -16 -2 1
-20z"/>
<path d="M5610 5973 c0 -4 8 -17 16 -28 15 -20 16 -20 12 4 -3 22 -28 44 -28
24z"/>
<path d="M7340 5955 c-14 -27 -5 -49 10 -25 9 14 14 50 7 50 -2 0 -10 -11 -17
-25z"/>
<path d="M11753 5927 c-50 -34 -40 -50 12 -20 43 24 58 44 33 42 -7 0 -28 -10
-45 -22z"/>
<path d="M11870 5947 c0 -13 90 -65 96 -56 8 14 -12 36 -39 42 -12 2 -30 8
-39 12 -10 4 -18 5 -18 2z"/>
<path d="M14260 5942 c0 -5 -16 -17 -35 -28 -34 -18 -46 -34 -25 -34 20 0 91
51 85 60 -8 12 -25 13 -25 2z"/>
<path d="M14355 5941 c-2 -5 9 -14 25 -21 16 -7 35 -18 41 -26 14 -17 29 -18
29 -1 0 21 -84 64 -95 48z"/>
<path d="M1220 5750 c0 -25 -4 -30 -25 -30 -14 0 -25 -4 -25 -10 0 -5 12 -10
26 -10 26 0 26 -1 22 -57 -2 -32 -14 -77 -25 -100 -12 -24 -18 -45 -14 -48 16
-9 55 80 60 139 5 47 10 62 24 64 15 3 17 -5 17 -65 0 -96 -7 -114 -36 -107
-13 3 -24 2 -24 -4 0 -9 32 -22 57 -22 13 0 30 75 36 163 l4 57 -38 0 c-37 0
-38 1 -29 26 13 34 13 34 -10 34 -16 0 -20 -7 -20 -30z"/>
<path d="M1609 5773 c0 -5 0 -61 1 -125 l1 -118 -55 0 c-31 0 -56 -4 -56 -10
0 -6 53 -10 140 -10 77 0 140 4 140 9 0 5 -6 14 -14 20 -10 9 -16 8 -25 -3
-11 -13 -37 -15 -93 -7 -5 1 -8 29 -8 64 l0 62 45 -3 c25 -2 53 -1 62 2 15 6
15 8 -1 24 -14 12 -20 14 -23 5 -3 -8 -22 -13 -45 -13 l-41 0 6 55 c5 50 4 55
-14 55 -10 0 -19 -3 -20 -7z"/>
<path d="M2340 5719 c0 -56 -2 -61 -20 -56 -12 3 -20 0 -20 -8 0 -8 8 -11 20
-8 11 3 20 0 20 -6 0 -6 -7 -11 -15 -11 -8 0 -15 -8 -15 -17 0 -10 -7 -30 -14
-45 -9 -17 -11 -30 -5 -34 6 -3 18 14 27 38 l17 43 5 -65 c7 -92 26 -74 23 23
-3 77 -3 77 23 77 16 0 24 5 21 13 -2 6 -14 10 -27 9 -22 -4 -23 -2 -16 52 5
46 4 56 -9 56 -12 0 -15 -13 -15 -61z"/>
<path d="M2810 5698 c0 -75 -1 -80 -20 -75 -15 4 -20 0 -20 -14 0 -10 -6 -19
-14 -19 -8 0 -21 -3 -30 -6 -12 -4 -16 0 -16 16 0 19 4 21 25 17 16 -3 24 0
22 7 -2 6 -14 10 -25 8 -15 -2 -22 2 -22 13 0 11 7 15 23 13 20 -3 22 2 25 50
l3 52 -50 0 c-27 0 -56 3 -65 6 -14 5 -16 -4 -16 -60 0 -60 9 -81 25 -56 10
15 35 12 35 -5 0 -10 -10 -15 -32 -15 -17 0 -28 -3 -24 -7 4 -5 18 -8 29 -8
13 0 22 -6 22 -15 0 -10 -9 -14 -27 -13 -16 1 -28 -2 -28 -8 0 -5 32 -9 70 -9
68 0 70 -1 70 -25 0 -31 -8 -32 -20 -2 -6 15 -9 17 -9 6 -1 -9 7 -26 17 -36
14 -16 27 -19 75 -15 l57 4 0 64 0 64 -30 -6 c-29 -6 -30 -5 -30 28 0 33 1 34
35 30 37 -4 45 7 20 28 -10 9 -15 9 -15 1 0 -6 -9 -11 -20 -11 -22 0 -28 38
-9 57 7 7 4 12 -10 16 -20 5 -21 1 -21 -75z m-121 5 c-1 -28 -3 -31 -6 -13 -3
14 -10 31 -15 38 -8 9 -6 12 6 12 12 0 16 -9 15 -37z m61 33 c0 -2 -9 -6 -20
-9 -11 -3 -20 -1 -20 4 0 5 9 9 20 9 11 0 20 -2 20 -4z m0 -41 c0 -18 -5 -25
-20 -25 -20 0 -20 1 -4 25 9 14 18 25 20 25 2 0 4 -11 4 -25z m-80 -11 c0 -8
-4 -14 -10 -14 -5 0 -10 9 -10 21 0 11 5 17 10 14 6 -3 10 -13 10 -21z m198
-121 c-3 -36 -5 -38 -40 -41 l-38 -3 0 40 0 41 41 0 40 0 -3 -37z"/>
<path d="M2455 5748 c12 -39 11 -43 -17 -40 -27 3 -40 -12 -17 -20 6 -2 13
-41 16 -86 l6 -82 -27 0 c-14 0 -26 -5 -26 -10 0 -17 172 -8 178 9 3 10 -3 12
-27 6 -27 -6 -31 -4 -31 15 0 41 32 149 46 152 9 2 11 8 4 18 -8 12 -13 13
-30 3 -29 -19 -35 -16 -49 22 -13 38 -37 49 -26 13z m56 -83 c-15 -88 -29
-139 -38 -142 -6 -2 -13 23 -17 59 -4 35 -10 73 -13 86 -5 22 -3 23 33 20 33
-2 38 -6 35 -23z"/>
<path d="M3395 5761 c-3 -6 -25 -13 -49 -16 l-44 -7 0 -84 c-1 -47 -6 -101
-12 -120 -6 -19 -10 -40 -7 -47 5 -14 46 69 47 96 0 14 9 17 45 17 43 0 45 1
39 25 -3 14 -1 32 6 40 19 23 3 33 -46 27 -41 -4 -46 -3 -42 14 2 13 16 21 46
27 40 8 52 19 33 32 -5 3 -12 1 -16 -4z m0 -121 c0 -21 -5 -26 -32 -28 -31 -3
-33 -1 -33 28 0 29 2 31 33 28 27 -2 32 -7 32 -28z"/>
<path d="M3515 5754 c-16 -7 -41 -13 -55 -14 -25 0 -25 -2 -27 -86 -1 -63 -7
-96 -22 -127 -11 -22 -18 -43 -15 -46 12 -12 44 47 56 102 10 49 15 57 35 57
22 0 23 -3 23 -80 0 -47 4 -80 10 -80 6 0 10 33 10 80 0 73 2 80 19 80 28 0
33 14 11 28 -12 7 -21 8 -25 2 -3 -6 -22 -10 -41 -10 -34 0 -35 1 -32 32 3 29
7 33 41 39 39 6 65 23 50 31 -4 3 -21 -1 -38 -8z"/>
<path d="M3645 5718 c-31 -59 -28 -85 7 -67 20 10 19 7 -6 -19 -31 -34 -30
-70 2 -57 35 15 63 17 77 5 12 -10 15 -9 15 8 0 24 -28 51 -38 35 -4 -6 -18
-14 -32 -18 -23 -7 -24 -7 -10 11 8 10 27 32 42 49 21 23 24 32 16 43 -10 11
-14 9 -25 -12 -8 -14 -20 -26 -28 -26 -22 0 -18 14 10 48 29 35 30 38 11 45
-10 4 -23 -11 -41 -45z"/>
<path d="M2980 5742 c0 -8 10 -13 28 -12 15 1 51 2 81 1 50 -1 53 -2 35 -16
-10 -8 -27 -15 -36 -15 -13 0 -18 -8 -18 -31 l0 -31 -59 4 c-36 2 -59 -1 -58
-7 1 -6 27 -9 60 -7 l57 3 0 -55 c0 -52 -1 -55 -27 -58 l-27 -3 27 -18 c31
-20 58 -10 55 21 -1 10 0 38 0 63 l2 45 67 0 c41 -1 68 3 70 10 5 16 -28 27
-41 14 -17 -17 -96 -13 -96 5 0 20 30 49 69 66 17 8 30 18 28 23 -2 5 -51 10
-110 10 -83 1 -107 -2 -107 -12z"/>
<path d="M4111 5748 c5 -42 -1 -48 -47 -48 -25 0 -54 4 -64 10 -17 9 -18 2
-22 -98 -3 -59 -8 -116 -13 -127 -7 -19 -7 -19 8 1 9 11 19 48 23 82 6 60 7
62 36 62 28 0 29 -2 26 -37 -2 -31 -7 -39 -25 -41 -29 -4 -30 -18 -1 -25 30
-8 48 9 48 45 0 16 5 38 10 49 12 21 10 22 -52 19 -35 -1 -38 1 -38 24 0 25 2
26 60 26 l60 0 0 -41 c0 -22 5 -49 10 -60 13 -24 -5 -53 -50 -81 -18 -10 -30
-21 -27 -24 7 -7 60 21 76 40 11 13 19 10 59 -21 l47 -36 6 39 c8 45 3 57 -9
24 l-8 -22 -28 24 c-28 23 -28 25 -13 54 9 17 23 36 31 43 19 16 21 31 3 31
-7 0 -24 -19 -37 -42 l-24 -42 -12 34 c-7 19 -13 45 -13 58 -1 20 3 22 54 22
30 0 55 4 55 9 0 16 -21 24 -33 12 -6 -6 -26 -11 -44 -11 -30 0 -33 3 -33 30
0 17 -5 30 -10 30 -6 0 -10 -6 -9 -12z"/>
<path d="M4890 5735 c0 -24 -2 -25 -71 -25 -44 0 -68 -4 -64 -10 3 -5 35 -10
71 -10 l64 0 0 -95 0 -95 -25 6 c-15 4 -25 2 -25 -5 0 -6 7 -11 15 -11 8 0 15
-4 15 -10 0 -16 27 -11 34 6 3 9 6 37 7 62 0 26 3 41 6 33 15 -38 87 -85 110
-73 14 8 11 12 -18 27 -36 19 -79 54 -79 66 0 4 20 15 45 26 25 10 45 21 45
26 0 14 -42 7 -67 -13 -36 -28 -43 -25 -43 15 l0 35 65 0 c63 0 84 11 48 25
-10 3 -19 1 -21 -4 -4 -13 -61 -14 -81 -2 -8 5 -11 16 -8 24 3 9 -1 18 -9 21
-10 4 -14 -2 -14 -19z"/>
<path d="M5112 5718 c-25 -47 -20 -65 9 -30 20 25 33 23 50 -10 10 -19 9 -20
-20 -13 -20 4 -31 3 -31 -4 0 -6 21 -11 50 -11 40 0 50 -3 50 -16 0 -14 -8
-16 -42 -11 -44 6 -67 -9 -68 -45 0 -15 9 -18 51 -18 l52 0 -24 -18 c-13 -11
-43 -27 -66 -37 -24 -11 -43 -22 -43 -27 0 -4 2 -8 5 -8 4 0 98 43 128 58 4 2
7 -12 7 -32 0 -20 5 -36 10 -36 6 0 10 23 10 50 l0 50 45 0 c38 0 45 -3 45
-20 0 -15 -7 -20 -25 -20 -14 0 -25 -4 -25 -10 0 -5 7 -10 15 -10 8 0 15 -5
15 -10 0 -20 38 9 44 34 3 13 9 31 12 40 5 14 -4 16 -60 16 -52 0 -66 3 -66
15 0 11 8 14 35 9 54 -8 73 1 67 34 -2 15 -14 37 -25 50 l-20 22 37 0 c26 0
36 4 33 13 -2 7 -18 11 -41 9 -20 -2 -36 2 -36 8 0 17 -37 11 -44 -7 -5 -12
-10 -13 -18 -5 -6 6 -24 8 -41 5 -20 -4 -28 -3 -24 4 5 8 -13 24 -26 23 -1 0
-12 -19 -25 -42z m109 -21 c-19 -24 2 -28 26 -5 12 12 24 20 26 17 1 -2 11
-14 21 -26 l19 -23 -60 0 c-57 0 -61 2 -65 25 -5 21 -1 25 20 25 19 0 22 -3
13 -13z m94 -62 c0 -5 -17 -11 -37 -13 -30 -3 -38 0 -38 13 0 13 8 16 38 13
20 -2 37 -7 37 -13z m-95 -40 c0 -11 -11 -15 -40 -15 -38 0 -49 8 -33 23 3 4
21 7 40 7 23 0 33 -5 33 -15z"/>
<path d="M5940 5738 c0 -13 -13 -49 -30 -81 -28 -54 -29 -72 -2 -45 9 9 12 -5
12 -65 0 -55 4 -77 13 -77 9 0 12 29 13 108 0 70 6 117 15 137 13 28 14 20 17
-107 2 -125 9 -157 27 -128 3 6 37 10 76 10 39 0 69 -4 69 -10 0 -5 5 -10 10
-10 13 0 14 267 1 275 -5 3 -12 1 -16 -5 -8 -12 -137 -13 -150 -1 -6 5 -20 12
-32 16 -19 5 -23 3 -23 -17z m210 -128 l0 -110 -73 0 -74 0 -2 100 c-1 56 1
105 4 110 3 6 37 10 76 10 l69 0 0 -110z"/>
<path d="M6060 5690 c0 -15 -7 -20 -25 -20 -14 0 -25 -4 -25 -10 0 -5 11 -10
25 -10 19 0 25 -5 25 -21 0 -15 -5 -19 -15 -15 -12 4 -15 -4 -15 -40 l0 -45
47 3 46 3 0 40 c0 33 -3 40 -19 40 -10 0 -20 8 -22 18 -3 13 3 17 28 17 21 0
30 4 27 13 -2 6 -15 12 -28 12 -17 0 -23 5 -21 18 2 10 -3 17 -13 17 -8 0 -15
-9 -15 -20z m40 -120 c0 -15 -7 -20 -25 -20 -18 0 -25 5 -25 20 0 15 7 20 25
20 18 0 25 -5 25 -20z"/>
<path d="M2015 5714 c-19 -47 -19 -54 3 -54 27 0 62 -37 62 -65 0 -28 -29 -48
-51 -34 -23 15 -39 10 -39 -11 0 -16 7 -20 30 -20 43 0 80 39 80 83 0 37 -28
77 -53 77 -11 0 -14 5 -11 15 4 10 16 14 32 13 18 -2 27 2 30 15 3 14 -4 17
-32 17 -32 0 -37 -4 -51 -36z"/>
<path d="M2304 5728 c3 -13 6 -29 6 -35 0 -7 5 -13 10 -13 11 0 13 30 4 54 -9
25 -27 19 -20 -6z"/>
<path d="M2380 5731 c0 -11 -3 -28 -6 -38 -3 -11 4 -7 20 12 31 36 32 45 6 45
-13 0 -20 -7 -20 -19z"/>
<path d="M3760 5622 l0 -124 -25 6 c-14 4 -25 2 -25 -3 0 -9 134 -19 178 -13
12 2 22 10 22 19 0 9 -6 13 -15 9 -13 -5 -15 12 -15 112 l0 117 -60 0 -60 0 0
-123z m95 76 c0 -16 -3 -28 -7 -28 -5 0 -21 0 -38 0 -27 0 -30 3 -30 31 0 29
2 30 38 27 33 -3 37 -6 37 -30z m0 -78 c0 -22 -5 -25 -37 -28 -36 -3 -38 -2
-38 28 0 30 2 31 38 28 32 -3 37 -6 37 -28z m3 -77 c-3 -36 -5 -38 -40 -41
l-38 -3 0 40 0 41 41 0 40 0 -3 -37z"/>
<path d="M4170 5728 c22 -23 34 -21 24 6 -3 9 -15 16 -25 16 -19 0 -19 -1 1
-22z"/>
<path d="M4940 5741 c0 -13 29 -35 37 -28 7 8 -15 37 -28 37 -5 0 -9 -4 -9 -9z"/>
<path d="M6241 5610 l1 -135 110 3 c75 3 113 0 123 -8 13 -11 15 5 17 119 0
72 1 136 2 142 1 7 -41 11 -126 12 l-127 2 0 -135z m69 75 c0 -28 -4 -35 -20
-35 -11 0 -20 -4 -20 -10 0 -6 39 -10 96 -10 72 0 95 3 92 12 -3 8 -20 12 -44
11 -21 0 -28 1 -13 3 21 4 25 10 23 34 -2 26 2 30 22 30 24 0 24 -1 24 -109 0
-95 -2 -109 -18 -113 -15 -4 -17 2 -12 59 l5 63 -77 0 -78 0 0 -60 c0 -47 -3
-60 -15 -60 -12 0 -15 19 -15 110 l0 110 25 0 c22 0 25 -4 25 -35z m83 28
c-13 -2 -35 -2 -50 0 -16 2 -5 4 22 4 28 0 40 -2 28 -4z m7 -23 c0 -5 -16 -10
-35 -10 -19 0 -35 5 -35 10 0 6 16 10 35 10 19 0 35 -4 35 -10z m-47 -37 c-7
-2 -19 -2 -25 0 -7 3 -2 5 12 5 14 0 19 -2 13 -5z m65 -85 l3 -38 -55 0 -56 0
0 33 c0 44 6 48 60 45 44 -3 45 -4 48 -40z m2 -64 c0 -2 -26 -3 -57 -3 -54 2
-55 2 -18 8 38 6 75 3 75 -5z"/>
<path d="M6330 5569 c0 -24 3 -27 35 -26 20 1 35 6 35 13 0 7 2 18 5 26 4 10
-5 13 -35 13 -37 0 -40 -2 -40 -26z m55 1 c3 -5 -3 -10 -14 -10 -12 0 -21 5
-21 10 0 6 6 10 14 10 8 0 18 -4 21 -10z"/>
<path d="M6684 5734 c6 -14 -1 -16 -48 -12 -52 4 -55 3 -59 -21 -6 -29 16 -50
52 -51 20 0 21 -2 11 -15 -10 -13 -9 -15 10 -15 28 0 19 -11 -23 -28 -31 -12
-31 -12 13 -6 63 9 120 8 132 -4 6 -6 -3 -11 -27 -14 -26 -3 -34 -1 -31 9 3 7
-1 13 -9 13 -17 0 -21 -19 -17 -81 5 -62 22 -64 22 -4 l0 45 70 0 c39 0 70 4
70 9 0 12 -37 24 -49 17 -5 -3 -11 3 -14 14 -3 13 -14 20 -30 20 -20 0 -24 4
-20 20 4 16 14 20 44 20 33 0 39 3 39 20 0 11 7 23 15 26 30 12 2 24 -56 24
-44 0 -61 4 -65 15 -4 8 -13 15 -21 15 -10 0 -13 -6 -9 -16z m-16 -46 c-3 -7
-21 -14 -41 -16 -30 -3 -36 0 -31 12 8 20 78 23 72 4z m132 4 c0 -4 -9 -13
-20 -20 -17 -10 -20 -10 -20 3 0 19 -26 20 -34 0 -3 -8 -12 -15 -21 -15 -13 0
-13 3 -3 20 10 15 24 20 55 20 24 0 43 -3 43 -8z m-89 -56 c-7 -8 -21 -12 -32
-9 -16 5 -18 8 -7 14 7 5 21 9 32 9 15 0 16 -3 7 -14z"/>
<path d="M6941 5719 c-6 -17 -15 -28 -21 -24 -9 5 -17 -138 -10 -185 3 -21 12
-27 17 -12 5 14 63 17 63 2 0 -5 5 -10 10 -10 6 0 10 28 10 65 0 36 4 65 9 65
5 0 14 14 21 30 11 27 17 30 60 30 l49 0 -6 -57 c-11 -115 -16 -128 -49 -126
-27 2 -28 1 -10 -12 23 -17 52 -19 61 -5 3 6 10 50 15 99 5 48 12 96 16 105 5
14 -2 16 -51 16 -52 0 -56 2 -53 22 5 38 -19 30 -26 -9 -3 -21 -13 -47 -21
-57 -14 -19 -15 -18 -15 12 0 30 -2 32 -25 26 -19 -5 -25 -2 -25 9 0 9 5 19
10 22 15 9 12 25 -4 25 -8 0 -19 -14 -25 -31z m47 -76 c-2 -22 -8 -28 -28 -28
-20 0 -26 6 -28 28 -3 24 0 27 28 27 28 0 31 -3 28 -27z m0 -85 c-2 -28 -7
-33 -28 -33 -21 0 -26 5 -28 33 -3 30 -1 32 28 32 29 0 31 -2 28 -32z"/>
<path d="M7428 5674 l3 -77 -38 6 c-21 4 -46 7 -55 7 -10 0 -18 5 -18 11 0 7
10 9 25 5 24 -6 25 -5 25 44 0 27 -1 53 -2 57 -2 3 -31 7 -66 7 l-62 1 0 -57
0 -57 30 6 c19 3 30 1 30 -6 0 -6 -16 -11 -35 -11 -44 0 -46 -18 -3 -22 46 -4
47 -26 1 -31 -21 -2 -3 -4 40 -5 76 -2 77 -2 77 -28 l0 -26 -20 23 c-10 13
-19 19 -20 12 0 -7 10 -22 23 -35 19 -21 30 -23 85 -20 l63 4 -3 61 c-3 61 -3
62 -30 59 -25 -3 -28 0 -28 27 0 28 3 31 30 31 20 0 30 5 30 15 0 17 -25 20
-35 5 -13 -21 -27 3 -22 36 5 27 2 34 -11 34 -15 0 -17 -10 -14 -76z m-132 21
c8 -32 -1 -55 -21 -55 -10 0 -15 9 -14 28 2 23 2 24 6 5 2 -13 9 -23 14 -23
15 0 10 40 -6 46 -19 8 -19 24 0 24 8 0 17 -11 21 -25z m54 14 c0 -5 -4 -8 -9
-5 -5 4 -12 0 -14 -6 -3 -8 -6 -6 -6 5 -1 9 6 17 14 17 8 0 15 -5 15 -11z m0
-44 c0 -16 -6 -25 -15 -25 -18 0 -19 4 -3 30 16 26 18 25 18 -5z m30 -85 c0
-5 -3 -10 -7 -10 -5 0 -18 -3 -30 -6 -17 -5 -23 -2 -23 10 0 11 9 16 30 16 17
0 30 -4 30 -10z m100 -40 l0 -40 -40 0 -40 0 0 40 0 40 40 0 40 0 0 -40z"/>
<path d="M7960 5736 c0 -9 -7 -16 -15 -16 -8 0 -15 5 -15 10 0 6 -4 10 -10 10
-5 0 -10 -11 -10 -24 0 -13 -6 -27 -12 -29 -10 -4 -10 -6 0 -6 8 -1 12 -19 12
-56 0 -55 0 -55 26 -49 19 5 25 4 20 -5 -4 -6 -20 -11 -37 -11 -16 0 -29 -4
-29 -10 0 -5 11 -10 25 -10 18 0 23 -4 19 -15 -4 -8 -1 -15 5 -15 21 0 11 -18
-16 -28 l-28 -10 28 -1 c16 -1 37 4 48 9 14 8 27 7 48 -4 27 -14 31 -14 64 8
l35 24 22 -23 c13 -14 29 -21 37 -18 12 5 8 12 -17 35 -29 25 -32 31 -22 51 6
12 14 36 17 54 3 17 13 37 21 43 23 20 6 31 -37 24 -42 -7 -47 0 -23 34 15 21
12 42 -6 42 -5 0 -12 -10 -15 -22 -20 -71 -39 -108 -46 -96 -14 21 -10 48 6
48 8 0 15 5 15 10 0 6 -7 10 -15 10 -9 0 -12 6 -8 16 5 14 1 15 -26 9 -23 -5
-31 -3 -29 6 2 7 -5 15 -14 17 -11 2 -18 -2 -18 -12z m0 -36 c0 -5 -4 -10 -9
-10 -6 0 -13 5 -16 10 -3 6 1 10 9 10 9 0 16 -4 16 -10z m60 0 c0 -5 -7 -10
-15 -10 -8 0 -15 5 -15 10 0 6 7 10 15 10 8 0 15 -4 15 -10z m-60 -30 c0 -5
-4 -10 -10 -10 -5 0 -10 5 -10 10 0 6 5 10 10 10 6 0 10 -4 10 -10z m60 0 c0
-5 -7 -10 -15 -10 -8 0 -15 5 -15 10 0 6 7 10 15 10 8 0 15 -4 15 -10z m112
-20 c10 0 3 -64 -10 -85 -8 -13 -41 65 -35 82 3 8 12 12 20 9 8 -3 19 -6 25
-6z m-172 -10 c0 -5 -7 -10 -15 -10 -8 0 -15 5 -15 10 0 6 7 10 15 10 8 0 15
-4 15 -10z m60 0 c0 -5 -7 -10 -15 -10 -8 0 -15 5 -15 10 0 6 7 10 15 10 8 0
15 -4 15 -10z m-60 -30 c0 -5 -7 -10 -16 -10 -8 0 -12 5 -9 10 3 6 10 10 16
10 5 0 9 -4 9 -10z m60 0 c0 -5 -7 -10 -15 -10 -8 0 -15 5 -15 10 0 6 7 10 15
10 8 0 15 -4 15 -10z m66 -37 c13 -29 12 -36 -1 -57 -17 -26 -45 -42 -45 -26
0 6 -7 10 -15 10 -28 0 -12 35 19 41 19 4 25 24 7 24 -5 0 -13 3 -17 8 -4 4
-2 7 5 7 7 0 11 6 8 13 -12 31 26 11 39 -20z m-76 3 c0 -11 -19 -15 -25 -6 -3
5 1 10 9 10 9 0 16 -2 16 -4z m-20 -46 c0 -5 -7 -10 -15 -10 -8 0 -15 5 -15
10 0 6 7 10 15 10 8 0 15 -4 15 -10z"/>
<path d="M1340 5624 c0 -67 2 -123 4 -125 3 -3 29 -2 58 1 46 4 53 8 51 25 -9
75 -9 163 -1 179 11 21 -10 42 -26 26 -14 -14 -60 -12 -74 2 -9 9 -12 -15 -12
-108z m80 -16 l0 -89 -27 3 c-28 3 -28 3 -29 88 -2 87 4 101 37 93 17 -5 19
-15 19 -95z"/>
<path d="M7600 5728 c0 -5 37 -8 83 -8 l82 -1 -24 -19 c-13 -11 -29 -20 -37
-20 -8 0 -14 -10 -14 -25 0 -24 -2 -25 -65 -25 -37 0 -65 -4 -65 -10 0 -6 28
-10 65 -10 l66 0 -3 -57 c-3 -53 -5 -58 -25 -56 -30 4 -29 -11 2 -25 33 -15
45 7 45 82 l0 56 71 0 c44 0 68 4 64 10 -3 6 -35 10 -71 10 -81 0 -85 18 -14
58 27 15 48 31 47 36 -3 10 -207 14 -207 4z"/>
<path d="M8280 5598 c0 -126 6 -158 25 -128 9 14 128 13 143 -2 6 -6 14 -10
16 -7 3 2 6 64 7 137 l2 133 -96 2 -97 2 0 -137z m170 87 c0 -24 -2 -25 -70
-25 -68 0 -70 1 -70 25 0 24 2 25 70 25 68 0 70 -1 70 -25z m0 -75 l0 -30 -70
0 -70 0 0 30 0 30 70 0 70 0 0 -30z m0 -85 l0 -35 -70 0 -70 0 0 35 0 35 70 0
70 0 0 -35z"/>
<path d="M5585 5699 c-8 -25 0 -35 17 -22 15 12 78 23 78 13 0 -3 -13 -45 -29
-93 -16 -48 -26 -89 -21 -92 5 -3 11 -2 14 3 9 15 58 157 63 185 l5 27 -60 0
c-53 0 -62 -3 -67 -21z"/>
<path d="M4800 5663 c0 -4 9 -19 20 -33 19 -25 37 -23 27 4 -6 16 -47 41 -47
29z"/>
<path d="M4407 5644 c-4 -4 -7 -18 -7 -31 0 -20 5 -23 36 -23 33 0 35 2 32 28
-2 20 -9 28 -28 30 -14 2 -29 0 -33 -4z m40 -19 c3 -9 3 -19 -1 -22 -8 -9 -37
18 -30 28 8 14 24 11 31 -6z"/>
<path d="M2370 5625 c0 -12 24 -55 32 -55 11 0 10 17 -2 41 -9 17 -30 27 -30
14z"/>
<path d="M7064 5615 c8 -8 18 -24 21 -35 7 -23 25 -27 25 -5 0 17 -35 55 -51
55 -6 0 -4 -7 5 -15z"/>
<path d="M8674 5616 c-11 -28 4 -48 33 -44 22 2 28 8 28 28 0 20 -6 26 -28 28
-18 2 -29 -2 -33 -12z m46 -16 c0 -11 -7 -20 -15 -20 -8 0 -15 9 -15 20 0 11
7 20 15 20 8 0 15 -9 15 -20z"/>
<path d="M4836 5579 c-21 -16 -45 -29 -52 -29 -15 0 -17 -10 -8 -33 4 -12 18
-4 57 33 59 56 61 71 3 29z"/>
<path d="M3700 5569 c1 -15 23 -49 34 -49 13 0 5 28 -14 45 -15 14 -20 15 -20
4z"/>
<path d="M6564 5571 c-2 -2 -1 -8 2 -12 7 -12 101 -11 108 0 6 9 -101 20 -110
12z"/>
<path d="M2641 5542 c-7 -13 -11 -31 -9 -40 3 -14 6 -13 17 6 7 13 11 31 9 40
-3 14 -6 13 -17 -6z"/>
<path d="M2673 5546 c4 -10 7 -24 7 -32 0 -8 5 -14 11 -14 15 0 6 53 -10 58
-10 3 -12 0 -8 -12z"/>
<path d="M2710 5536 c0 -14 5 -28 10 -31 6 -3 10 5 10 19 0 14 -4 28 -10 31
-6 3 -10 -5 -10 -19z"/>
<path d="M3671 5530 c6 -16 15 -30 20 -30 12 0 11 17 -1 41 -17 30 -30 22 -19
-11z"/>
<path d="M3620 5545 c0 -12 24 -55 32 -55 11 0 10 17 -2 41 -9 17 -30 27 -30
14z"/>
<path d="M6625 5520 c-10 -11 -26 -22 -36 -25 -20 -7 -26 -25 -9 -25 16 0 90
49 90 60 0 17 -26 11 -45 -10z"/>
<path d="M6740 5531 c1 -11 82 -63 88 -56 12 12 -14 37 -51 50 -20 7 -37 10
-37 6z"/>
<path d="M7236 5508 c-7 -34 -3 -44 13 -33 13 7 15 65 2 65 -5 0 -11 -14 -15
-32z"/>
<path d="M7278 5510 c2 -16 9 -30 14 -30 13 0 6 53 -8 57 -7 2 -9 -8 -6 -27z"/>
<path d="M7313 5527 c4 -10 7 -23 7 -28 0 -5 5 -9 10 -9 16 0 12 26 -7 41 -15
12 -16 12 -10 -4z"/>
<path d="M3266 4949 c-30 -35 -32 -49 -11 -88 15 -31 33 -41 70 -41 37 0 55
10 71 42 45 86 -68 161 -130 87z"/>
<path d="M6062 4944 c-17 -12 -22 -25 -22 -58 0 -49 19 -72 66 -82 44 -8 94
35 94 81 0 62 -83 98 -138 59z m51 -50 c-7 -18 -12 -13 -18 16 -3 18 -2 20 10
10 8 -6 11 -18 8 -26z m45 1 c-3 -3 -9 2 -12 12 -6 14 -5 15 5 6 7 -7 10 -15
7 -18z m-41 -51 c-3 -3 -12 -4 -19 -1 -8 3 -5 6 6 6 11 1 17 -2 13 -5z"/>
<path d="M6453 4945 c-18 -12 -23 -26 -23 -58 0 -48 6 -59 37 -76 35 -18 63
-13 94 18 33 34 37 69 11 101 -23 29 -89 37 -119 15z m25 -85 c7 -11 9 -20 4
-20 -4 0 -13 9 -20 20 -7 11 -9 20 -4 20 4 0 13 -9 20 -20z m52 -10 c0 -5 -5
-10 -11 -10 -5 0 -7 5 -4 10 3 6 8 10 11 10 2 0 4 -4 4 -10z"/>
<path d="M9280 4943 c-29 -11 -60 -47 -60 -70 0 -41 27 -80 60 -86 56 -12 100
27 100 88 0 22 -34 65 -51 65 -4 0 -13 2 -21 4 -7 3 -20 2 -28 -1z"/>
<path d="M9645 4927 c-29 -17 -35 -28 -35 -64 0 -41 9 -63 26 -63 8 0 14 -4
14 -10 0 -5 15 -10 34 -10 43 0 86 41 86 83 0 57 -73 95 -125 64z m88 -83 c-3
-8 -7 -14 -10 -14 -3 0 -3 6 0 14 3 7 0 20 -6 27 -10 11 -9 11 5 0 9 -7 14
-19 11 -27z"/>
<path d="M10043 4925 c-17 -7 -34 -23 -38 -35 -10 -31 3 -90 20 -90 7 0 15 -5
17 -12 6 -18 66 -13 89 8 50 45 43 105 -16 129 -40 18 -32 18 -72 0z m7 -79
c0 -3 -4 -8 -10 -11 -5 -3 -10 -1 -10 4 0 6 5 11 10 11 6 0 10 -2 10 -4z"/>
<path d="M2878 4599 c-28 -16 -25 -105 5 -130 32 -26 70 -24 101 7 32 33 36
92 8 117 -21 19 -87 22 -114 6z"/>
<path d="M3266 4585 c-20 -21 -22 -31 -16 -65 10 -54 26 -70 70 -70 30 0 44 6
64 31 29 34 32 58 14 92 -18 31 -28 37 -71 37 -28 0 -44 -7 -61 -25z m100 -39
c1 -8 -7 -17 -18 -19 -18 -5 -19 -4 -4 12 9 10 14 20 12 23 -2 3 -1 4 2 1 3
-2 7 -10 8 -17z m-69 -21 c0 -8 -4 -12 -9 -9 -5 3 -6 10 -3 15 9 13 12 11 12
-6z"/>
<path d="M5672 4577 c-72 -76 35 -183 112 -112 28 26 35 77 13 99 -41 41 -94
46 -125 13z m41 -36 c3 -13 1 -18 -9 -14 -7 2 -10 11 -7 19 7 19 10 18 16 -5z
m7 -61 c0 -15 -5 -12 -26 11 -19 22 -19 22 4 10 12 -6 22 -16 22 -21z"/>
<path d="M6085 4588 c-35 -21 -45 -36 -45 -71 0 -27 7 -41 31 -61 40 -34 61
-33 98 5 22 21 31 40 31 63 0 27 -6 36 -39 54 -44 25 -49 26 -76 10z m22 -93
c8 -8 13 -19 11 -25 -2 -5 -13 2 -25 15 -23 27 -12 35 14 10z"/>
<path d="M6463 4580 c-27 -16 -33 -26 -33 -55 0 -47 24 -82 61 -90 23 -5 38
-1 65 20 30 23 35 32 32 63 -2 28 -10 41 -37 59 -41 28 -47 28 -88 3z m27
-100 c0 -5 -2 -10 -4 -10 -3 0 -8 5 -11 10 -3 6 -1 10 4 10 6 0 11 -4 11 -10z"/>
<path d="M8867 4569 c-50 -29 -40 -119 15 -138 40 -14 94 4 102 33 11 42 6 76
-16 96 -24 22 -72 26 -101 9z"/>
<path d="M9265 4568 c-53 -29 -60 -80 -16 -127 34 -37 59 -39 93 -8 50 45 46
110 -8 133 -39 17 -43 17 -69 2z"/>
<path d="M9635 4554 c-31 -23 -28 -95 5 -123 34 -28 65 -26 100 8 32 30 37 55
19 95 -17 37 -86 49 -124 20z"/>
<path d="M10030 4552 c-55 -44 -18 -141 53 -142 36 0 87 49 87 83 0 62 -90
100 -140 59z m103 -69 c-7 -2 -13 -12 -13 -20 0 -9 -3 -14 -6 -10 -10 10 4 37
18 36 10 0 10 -2 1 -6z"/>
<path d="M11420 4320 l0 -40 -302 -2 -303 -3 0 -105 0 -105 303 -3 302 -2 0
-40 c0 -28 4 -40 14 -40 24 0 206 171 206 193 0 6 -30 39 -67 72 -36 33 -79
72 -95 88 -41 39 -58 36 -58 -13z m126 -94 l62 -58 -36 -32 c-20 -17 -55 -50
-77 -73 -23 -24 -45 -43 -48 -43 -4 0 -7 16 -7 35 l0 35 -294 0 c-226 0 -295
3 -298 13 -2 6 -2 42 0 80 l4 68 294 -4 c162 -3 295 0 295 4 1 5 3 14 4 19 1
6 3 17 4 26 1 20 9 14 97 -70z"/>
<path d="M4700 4286 l0 -46 -305 0 -306 0 3 -102 3 -103 300 -5 300 -5 3 -42
c2 -24 7 -43 11 -43 5 0 26 17 48 38 21 20 67 63 101 94 34 31 62 61 62 65 0
12 -189 187 -206 191 -10 3 -14 -8 -14 -42z m57 -28 c70 -65 121 -122 116
-132 -6 -14 -124 -118 -141 -124 -7 -2 -12 6 -12 22 l0 26 -107 2 c-60 1 -130
2 -158 3 -27 1 -114 2 -192 3 l-143 2 0 78 0 77 300 -3 300 -4 0 36 c0 42 4
44 37 14z"/>
<path d="M7930 4275 l0 -45 -202 -1 c-112 0 -246 -1 -298 -2 l-95 -2 -3 -94
c-2 -59 1 -98 8 -105 7 -7 105 -11 298 -11 l287 -1 5 -44 c3 -25 8 -45 11 -45
6 0 95 75 175 148 50 46 52 49 35 65 -72 71 -201 182 -210 182 -6 0 -11 -18
-11 -45z m160 -119 l34 -36 -30 -28 c-16 -15 -52 -47 -80 -71 l-49 -43 -5 33
-5 34 -293 0 -292 0 -2 58 c-1 31 -2 65 -2 75 -1 16 21 17 294 22 l295 5 3 33
3 33 47 -40 c26 -21 63 -55 82 -75z"/>
<path d="M2871 4224 c-23 -30 -27 -64 -10 -97 16 -30 28 -37 70 -37 43 0 68
23 76 73 12 75 -90 120 -136 61z"/>
<path d="M3269 4221 c-33 -34 -35 -50 -13 -96 18 -38 55 -52 97 -36 51 20 64
92 23 135 -32 35 -70 34 -107 -3z"/>
<path d="M5680 4217 c-20 -10 -26 -21 -28 -56 -6 -82 64 -118 127 -65 78 65
-6 168 -99 121z m41 -44 c2 1 3 0 1 -3 -2 -2 -14 -5 -27 -6 -20 -1 -23 2 -14
13 8 9 15 10 24 3 6 -5 14 -9 16 -7z m51 -10 c-6 -2 -9 -10 -6 -15 4 -7 2 -8
-4 -4 -18 11 -14 26 6 25 10 0 12 -3 4 -6z m-67 -30 c-2 -10 -4 -19 -4 -21 -1
-2 -6 0 -11 3 -8 5 -7 11 1 21 15 18 18 18 14 -3z m55 -12 c0 -5 -11 -11 -25
-13 -14 -3 -25 -3 -25 -1 0 3 34 19 48 22 1 1 2 -3 2 -8z"/>
<path d="M6067 4210 c-40 -32 -38 -89 4 -124 17 -14 38 -26 48 -26 26 0 81 62
81 90 -1 63 -82 100 -133 60z m100 -72 c-3 -8 -6 -5 -6 6 -1 11 2 17 5 13 3
-3 4 -12 1 -19z"/>
<path d="M6455 4207 c-53 -45 -31 -125 40 -143 21 -5 33 0 61 27 40 39 44 76
11 107 -37 35 -79 38 -112 9z m20 -57 c-3 -5 -12 -10 -18 -10 -7 0 -6 4 3 10
19 12 23 12 15 0z"/>
<path d="M8871 4205 c-52 -29 -57 -90 -10 -129 34 -29 38 -30 72 -17 37 14 57
40 57 72 0 43 -15 65 -51 78 -37 13 -37 13 -68 -4z"/>
<path d="M9246 4187 c-52 -52 -19 -137 53 -137 49 0 73 26 75 80 1 48 -17 68
-66 77 -30 4 -41 1 -62 -20z m44 -15 c0 -5 -7 -9 -15 -9 -8 0 -12 4 -9 9 3 4
9 8 15 8 5 0 9 -4 9 -8z"/>
<path d="M9665 4203 c-36 -9 -55 -34 -55 -73 0 -51 34 -82 86 -78 33 3 42 9
58 39 17 31 18 40 7 66 -7 17 -24 35 -37 42 -26 12 -27 12 -59 4z"/>
<path d="M10022 4180 c-59 -55 19 -167 90 -129 29 16 57 50 58 71 0 9 -12 30
-26 47 -32 38 -87 43 -122 11z"/>
<path d="M12365 4159 c-4 -5 -4 -21 -1 -35 5 -17 13 -24 31 -24 22 0 25 4 25
35 0 30 -3 35 -24 35 -14 0 -28 -5 -31 -11z"/>
<path d="M12522 4161 c-8 -4 -12 -19 -10 -32 2 -18 10 -25 31 -27 25 -3 27 -1
27 32 0 37 -17 47 -48 27z"/>
<path d="M12652 4153 c-11 -19 5 -63 23 -63 32 0 49 63 19 74 -24 9 -32 7 -42
-11z"/>
<path d="M2876 3865 c-11 -8 -20 -31 -23 -59 -5 -39 -2 -48 22 -70 38 -35 72
-33 107 6 35 40 36 77 2 112 -30 29 -77 34 -108 11z m74 -109 c0 -3 -4 -8 -10
-11 -5 -3 -10 -1 -10 4 0 6 5 11 10 11 6 0 10 -2 10 -4z"/>
<path d="M3279 3867 c-44 -34 -47 -99 -6 -137 59 -56 156 24 123 100 -15 35
-36 49 -71 49 -16 0 -37 -5 -46 -12z m14 -87 c3 -11 1 -18 -4 -14 -5 3 -9 12
-9 20 0 20 7 17 13 -6z"/>
<path d="M5666 3844 c-24 -23 -21 -105 4 -127 33 -28 63 -30 94 -6 76 60 44
149 -54 149 -16 0 -36 -7 -44 -16z m68 -13 c3 -5 -1 -11 -9 -15 -8 -3 -17 0
-21 6 -4 7 -3 8 4 4 7 -4 12 -2 12 3 0 13 7 14 14 2z m11 -71 c-3 -4 1 -11 7
-13 7 -3 3 -6 -10 -6 -15 -1 -21 -5 -16 -13 5 -7 3 -8 -5 -4 -9 6 -9 12 3 25
9 10 13 21 9 26 -5 4 -2 5 5 1 7 -4 10 -11 7 -16z"/>
<path d="M6068 3843 c-24 -15 -28 -24 -28 -62 0 -37 5 -50 27 -68 43 -37 80
-28 117 29 20 30 16 70 -9 95 -23 23 -76 26 -107 6z"/>
<path d="M6459 3845 c-47 -25 -47 -91 -1 -132 33 -30 63 -29 96 4 50 50 46
106 -10 129 -41 17 -52 17 -85 -1z m56 -25 c-3 -5 2 -10 12 -10 15 0 16 -2 3
-10 -10 -7 -18 -5 -26 5 -9 12 -13 12 -27 -3 -16 -15 -17 -15 -17 1 0 10 5 15
10 12 6 -3 10 -1 10 4 0 6 9 11 21 11 11 0 17 -4 14 -10z m-20 -80 c17 -18 17
-20 2 -14 -9 3 -17 10 -17 16 0 5 -5 6 -12 2 -7 -4 -8 -3 -4 4 9 16 10 15 31
-8z"/>
<path d="M8873 3840 c-12 -5 -29 -20 -38 -34 -16 -24 -16 -28 4 -70 32 -64 95
-71 135 -14 32 45 16 99 -35 117 -37 13 -37 13 -66 1z m17 -86 c0 -8 -19 -13
-24 -6 -3 5 1 9 9 9 8 0 15 -2 15 -3z m25 -34 c3 -5 1 -10 -4 -10 -6 0 -11 5
-11 10 0 6 2 10 4 10 3 0 8 -4 11 -10z"/>
<path d="M9236 3818 c-32 -45 -11 -123 35 -133 66 -15 116 37 102 106 -7 36
-29 49 -82 49 -30 0 -44 -6 -55 -22z m100 -86 c-15 -15 -15 -15 -4 10 7 15 15
23 17 17 2 -6 -4 -18 -13 -27z"/>
<path d="M9632 3820 c-15 -14 -22 -33 -22 -56 0 -48 14 -70 51 -83 67 -23 128
52 95 117 -24 47 -85 58 -124 22z"/>
<path d="M10040 3830 c0 -5 -7 -10 -15 -10 -20 0 -34 -58 -21 -92 15 -40 64
-61 104 -46 18 7 32 18 32 25 0 7 4 13 9 13 32 0 13 80 -24 104 -27 18 -85 22
-85 6z m90 -79 c0 -6 -4 -12 -8 -15 -5 -3 -9 1 -9 9 0 8 4 15 9 15 4 0 8 -4 8
-9z"/>
<path d="M2883 3496 c-54 -26 -48 -120 9 -145 42 -19 93 5 103 48 18 83 -40
133 -112 97z"/>
<path d="M3261 3478 c-31 -32 -35 -56 -15 -86 31 -48 65 -62 109 -46 20 8 45
56 45 89 0 60 -96 90 -139 43z m97 -83 c-3 -3 -9 2 -12 12 -6 14 -5 15 5 6 7
-7 10 -15 7 -18z"/>
<path d="M5661 3464 c-66 -84 42 -184 114 -107 32 35 32 76 0 108 -34 35 -86
34 -114 -1z m65 -73 c-4 -5 -1 -11 6 -13 8 -3 6 -6 -4 -10 -11 -5 -15 -2 -13
10 5 23 4 22 11 22 3 0 3 -4 0 -9z"/>
<path d="M6056 3468 c-11 -13 -19 -37 -19 -60 0 -51 28 -78 80 -78 32 0 42 5
56 29 24 41 21 78 -8 106 -31 32 -83 34 -109 3z m34 -12 c0 -2 -8 -10 -17 -17
-16 -13 -17 -12 -4 4 13 16 21 21 21 13z m-10 -41 c-7 -9 -15 -13 -19 -10 -3
3 1 10 9 15 21 14 24 12 10 -5z m70 -35 c-6 -12 -14 -19 -17 -16 -4 3 -12 1
-18 -4 -8 -7 -18 -4 -30 10 -17 19 -17 20 -1 20 9 0 14 -4 11 -10 -11 -17 21
-11 41 9 24 23 29 20 14 -9z"/>
<path d="M6445 3469 c-26 -26 -26 -90 -1 -118 13 -14 31 -21 57 -21 71 0 105
85 54 135 -30 31 -81 32 -110 4z m55 -24 c-7 -8 -18 -15 -25 -15 -8 0 -16 -6
-18 -12 -4 -10 -6 -10 -6 0 -1 8 8 16 19 19 11 3 20 9 20 14 0 5 5 9 11 9 8 0
8 -5 -1 -15z m20 -40 c14 -19 14 -19 -2 -6 -10 7 -18 18 -18 24 0 6 1 8 3 6 1
-2 9 -13 17 -24z m-10 -35 c0 -5 -2 -10 -4 -10 -3 0 -8 5 -11 10 -3 6 -1 10 4
10 6 0 11 -4 11 -10z"/>
<path d="M8863 3468 c-12 -6 -27 -24 -34 -40 -10 -26 -10 -35 6 -63 34 -65
108 -67 140 -5 38 74 -36 145 -112 108z m47 -78 c0 -5 -5 -10 -11 -10 -5 0 -7
5 -4 10 3 6 8 10 11 10 2 0 4 -4 4 -10z m10 -26 c0 -8 -19 -13 -24 -6 -3 5 1
9 9 9 8 0 15 -2 15 -3z"/>
<path d="M9265 3468 c-26 -15 -54 -50 -55 -66 0 -26 34 -71 62 -83 23 -9 33
-8 60 8 29 17 33 25 36 66 3 43 1 48 -30 67 -38 23 -46 24 -73 8z m55 -108 c0
-5 -5 -10 -11 -10 -5 0 -7 5 -4 10 3 6 8 10 11 10 2 0 4 -4 4 -10z"/>
<path d="M9640 3457 c-56 -28 -46 -112 17 -142 31 -15 63 -12 63 6 0 5 6 9 13
9 7 0 18 14 24 30 29 76 -42 135 -117 97z m17 -92 c0 -8 -4 -12 -9 -9 -4 3 -8
9 -8 15 0 5 4 9 8 9 5 0 9 -7 9 -15z m64 -8 c-10 -9 -11 -8 -5 6 3 10 9 15 12
12 3 -3 0 -11 -7 -18z"/>
<path d="M10033 3460 c-48 -19 -42 -114 9 -144 30 -18 32 -18 63 -2 44 24 59
58 44 103 -15 47 -62 64 -116 43z m10 -55 c-3 -9 -8 -14 -10 -11 -3 3 -2 9 2
15 9 16 15 13 8 -4z m72 -44 c-3 -6 -14 -10 -23 -10 -15 1 -15 2 1 6 9 2 17 9
17 15 0 6 3 9 6 5 3 -3 3 -10 -1 -16z"/>
<path d="M2100 2773 c-14 -32 -35 -77 -47 -101 -13 -24 -23 -45 -23 -48 0 -2
14 -4 31 -4 26 0 29 2 20 14 -28 34 43 80 75 49 17 -18 18 -35 2 -51 -9 -9 -3
-12 30 -12 42 0 51 7 33 26 -5 5 -25 47 -44 93 -18 47 -38 86 -43 88 -5 2 -20
-23 -34 -54z m50 -55 c0 -5 -11 -8 -25 -8 -29 0 -29 0 -13 35 l12 26 13 -23
c7 -13 12 -26 13 -30z"/>
<path d="M2914 2805 c-19 -29 -11 -48 9 -21 8 11 23 17 38 14 18 -2 25 -10 27
-33 2 -24 -7 -41 -44 -83 -54 -62 -50 -75 21 -70 36 2 51 8 63 25 14 23 14 23
-33 16 l-47 -6 36 47 c57 75 48 136 -21 136 -24 0 -37 -7 -49 -25z"/>
<path d="M3081 2817 c-38 -46 -13 -135 35 -123 19 5 22 3 17 -11 -10 -29 -35
-53 -55 -53 -10 0 -18 -4 -18 -10 0 -25 53 -8 85 28 51 54 59 127 19 166 -19
20 -68 21 -83 3z m66 -39 c16 -32 8 -58 -18 -58 -24 0 -42 35 -34 67 7 31 35
27 52 -9z"/>
<path d="M2260 2648 c0 -7 5 -20 10 -28 9 -13 11 -13 20 0 5 8 8 20 7 25 -5
15 -37 18 -37 3z"/>
<path d="M2038 2098 c16 -16 16 -170 0 -186 -9 -9 5 -12 63 -12 45 0 80 5 87
12 17 17 15 75 -4 86 -14 8 -14 10 0 21 21 18 20 44 -2 64 -23 21 -165 36
-144 15z m98 -16 c32 -21 17 -72 -21 -72 -22 0 -25 4 -25 40 0 31 4 40 18 40
9 0 22 -4 28 -8z m16 -99 c25 -22 23 -39 -7 -59 -37 -24 -55 -12 -55 36 0 34
3 40 22 40 12 0 30 -7 40 -17z"/>
<path d="M2916 2085 c-11 -30 -6 -36 16 -21 16 11 25 13 35 4 21 -17 15 -46
-13 -61 l-27 -14 26 -7 c52 -13 41 -80 -12 -74 -29 3 -40 -12 -19 -26 9 -5 28
-2 51 9 43 20 58 62 34 99 -11 16 -12 27 -6 33 6 6 9 23 7 39 -3 26 -7 29 -44
32 -31 2 -43 -1 -48 -13z"/>
<path d="M3093 2033 c-24 -36 -43 -72 -43 -79 0 -8 15 -14 38 -16 32 -3 37 -7
40 -31 4 -35 26 -30 30 6 2 15 10 27 18 27 8 0 14 5 14 10 0 6 -7 10 -15 10
-12 0 -15 14 -15 70 0 50 -4 70 -12 70 -7 0 -32 -31 -55 -67z m33 -59 c-5 -13
-46 -21 -46 -8 0 8 21 46 34 60 8 9 12 6 14 -13 2 -14 1 -31 -2 -39z"/>
<path d="M2250 1909 c0 -25 33 -22 38 4 2 12 -3 17 -17 17 -15 0 -21 -6 -21
-21z"/>
<path d="M2093 1383 c-94 -47 -73 -213 27 -213 37 0 77 18 85 38 9 23 -5 29
-21 8 -18 -26 -69 -25 -96 1 -38 38 -22 135 25 152 25 10 67 -6 67 -25 0 -7 5
-16 10 -19 6 -4 10 8 10 27 0 25 -4 34 -17 34 -10 0 -27 3 -38 6 -11 4 -34 -1
-52 -9z"/>
<path d="M2917 1373 c-4 -3 -7 -15 -7 -27 0 -15 3 -17 12 -8 16 16 47 15 54
-2 8 -20 -13 -56 -34 -57 -10 0 -7 -4 10 -10 59 -22 42 -86 -20 -74 -29 5 -33
4 -30 -12 4 -24 29 -27 72 -9 34 14 36 18 36 60 0 26 -5 46 -12 49 -10 3 -10
9 0 26 17 29 15 58 -4 65 -21 8 -69 8 -77 -1z"/>
<path d="M3076 1358 c-32 -45 -12 -118 33 -118 39 0 16 -44 -33 -63 -34 -13
-8 -19 28 -7 36 12 68 52 79 101 8 30 -7 89 -25 101 -25 15 -67 8 -82 -14z
m74 -55 c0 -37 -21 -53 -45 -33 -18 15 -20 71 -3 88 19 19 48 -15 48 -55z"/>
<path d="M2244 1199 c-10 -17 13 -36 27 -22 12 12 4 33 -11 33 -5 0 -12 -5
-16 -11z"/>
<path d="M2020 668 c0 -4 4 -8 9 -8 10 0 20 -102 13 -152 -3 -26 -9 -38 -21
-39 -35 -1 24 -18 67 -18 84 -2 142 48 142 121 0 38 -37 85 -73 92 -45 10
-137 12 -137 4z m143 -39 c35 -32 31 -101 -7 -134 -39 -33 -63 -32 -69 3 -5
22 -3 113 2 145 2 15 53 6 74 -14z"/>
<path d="M2952 628 c-29 -42 -62 -102 -62 -112 0 -3 17 -6 38 -8 32 -3 37 -7
40 -31 5 -39 38 -33 35 6 -1 18 3 27 13 27 8 0 14 5 14 10 0 6 -7 10 -15 10
-11 0 -14 14 -12 67 3 82 -11 90 -51 31z m18 -53 c0 -41 -2 -45 -25 -45 -14 0
-25 4 -25 9 0 9 42 80 48 81 1 0 2 -20 2 -45z"/>
<path d="M3092 604 c-23 -36 -42 -71 -42 -79 0 -9 14 -15 38 -17 32 -3 37 -7
40 -31 4 -34 25 -31 31 4 1 13 8 28 15 32 8 6 8 10 -1 14 -9 3 -13 28 -13 74
0 89 -13 89 -68 3z m35 -71 c-3 -2 -17 -3 -32 -1 l-26 3 28 43 28 43 3 -41 c2
-23 1 -44 -1 -47z"/>
<path d="M2264 486 c-6 -17 2 -36 17 -36 12 0 12 37 -1 45 -6 3 -13 -1 -16 -9z"/>
</g>
</svg>
