<?xml version="1.0" standalone="no"?>
<!DOCTYPE svg PUBLIC "-//W3C//DTD SVG 20010904//EN"
 "http://www.w3.org/TR/2001/REC-SVG-20010904/DTD/svg10.dtd">
<svg version="1.0" xmlns="http://www.w3.org/2000/svg"
 width="1404.000000pt" height="588.000000pt" viewBox="0 0 1404.000000 588.000000"
 preserveAspectRatio="xMidYMid meet">
<metadata>
Created by potrace 1.16, written by Peter Selinger 2001-2019
</metadata>
<g transform="translate(0.000000,588.000000) scale(0.100000,-0.100000)"
fill="#000000" stroke="none">
<path d="M1203 5469 c-1 -137 -1 -140 19 -133 39 12 201 6 209 -8 4 -7 10 -10
13 -8 10 11 9 284 -2 288 -5 1 -13 -2 -17 -7 -8 -13 -179 -15 -203 -2 -16 8
-17 -3 -19 -130z m67 71 c0 -23 -4 -30 -20 -30 -16 0 -20 7 -20 30 0 23 4 30
20 30 16 0 20 -7 20 -30z m78 23 c-10 -2 -28 -2 -40 0 -13 2 -5 4 17 4 22 1
32 -1 23 -4z m82 -23 c0 -29 -1 -30 -47 -29 -30 1 -37 4 -20 6 21 3 27 10 27
29 0 17 5 24 20 24 16 0 20 -7 20 -30z m-70 0 c0 -5 -16 -10 -35 -10 -19 0
-35 5 -35 10 0 6 16 10 35 10 19 0 35 -4 35 -10z m-110 -115 c0 -36 -4 -65 -9
-65 -12 0 -17 42 -12 93 5 62 21 42 21 -28z m108 58 c-15 -2 -42 -2 -60 0 -18
2 -6 4 27 4 33 0 48 -2 33 -4z m70 -61 c3 -57 1 -62 -18 -62 -12 0 -19 4 -16
8 3 5 6 34 7 65 3 77 23 69 27 -11z m-151 -9 c-3 -10 -5 -2 -5 17 0 19 2 27 5
18 2 -10 2 -26 0 -35z m61 40 c-10 -2 -26 -2 -35 0 -10 3 -2 5 17 5 19 0 27
-2 18 -5z m-1 -29 c-3 -3 -12 -4 -19 -1 -8 3 -5 6 6 6 11 1 17 -2 13 -5z m43
-14 c0 -17 -6 -20 -47 -18 l-48 1 43 4 c28 3 42 9 42 19 0 8 2 14 5 14 3 0 5
-9 5 -20z m-27 -47 c-18 -2 -48 -2 -65 0 -18 2 -4 4 32 4 36 0 50 -2 33 -4z"/>
<path d="M1650 5580 l0 -32 -55 4 -55 5 0 -68 0 -67 52 2 52 1 -3 -54 c-2 -41
1 -52 11 -49 8 3 14 24 16 56 l3 52 55 0 c29 0 54 5 54 10 0 6 -4 10 -8 10 -5
0 -5 21 -1 48 8 54 0 69 -28 51 -12 -7 -31 -9 -47 -5 -22 5 -27 12 -24 33 2
15 -3 28 -9 30 -9 3 -13 -6 -13 -27z m0 -91 l0 -40 -42 3 c-36 3 -44 7 -46 26
-6 41 5 52 48 52 l40 0 0 -41z m90 1 c0 -39 -1 -40 -35 -40 -34 0 -35 1 -35
40 0 39 1 40 35 40 34 0 35 -1 35 -40z"/>
<path d="M1996 5599 c-3 -8 -10 -33 -16 -56 -6 -24 -13 -43 -17 -43 -3 0 -3 9
0 19 7 28 -9 49 -25 33 -6 -6 -18 -12 -26 -12 -12 0 -11 4 2 25 20 30 20 35 2
35 -8 0 -17 -12 -20 -26 -5 -20 -12 -25 -26 -21 -19 5 -20 -1 -20 -99 0 -63 4
-104 10 -104 6 0 10 5 10 10 0 15 57 12 63 -2 10 -23 24 11 25 58 1 28 10 57
27 84 24 38 29 41 63 38 l37 -3 3 -52 c2 -29 -2 -71 -8 -94 -11 -39 -13 -41
-41 -35 -16 3 -29 1 -29 -4 0 -6 7 -10 15 -10 8 0 15 -4 15 -10 0 -5 8 -10 19
-10 29 0 48 55 53 152 l4 88 -25 -2 c-14 -1 -39 -1 -55 0 -23 2 -26 5 -17 16
9 10 8 16 -4 26 -12 10 -16 10 -19 -1z m-61 -79 c13 -22 -6 -50 -34 -50 -25 0
-27 3 -23 30 3 23 9 30 28 30 12 0 26 -5 29 -10z m-7 -104 c3 -36 2 -37 -25
-34 -23 2 -28 8 -30 35 -2 23 2 33 15 36 30 8 37 1 40 -37z"/>
<path d="M2188 5465 c-2 -71 1 -134 6 -140 6 -7 10 -7 12 0 3 6 46 8 116 5 62
-3 114 -5 115 -5 0 0 3 59 5 132 l3 132 -127 3 -127 3 -3 -130z m70 68 c3 -30
1 -33 -22 -33 -23 0 -26 4 -26 36 0 31 3 35 23 32 17 -2 23 -11 25 -35z m85
30 c-13 -2 -33 -2 -45 0 -13 2 -3 4 22 4 25 0 35 -2 23 -4z m72 -107 c0 -82
-3 -110 -13 -114 -11 -3 -13 12 -11 67 2 39 7 71 12 71 5 0 7 6 5 12 -3 8 -22
12 -49 11 -33 0 -36 0 -10 4 30 4 33 7 29 34 -4 26 -2 30 16 27 20 -3 21 -9
21 -112z m-77 77 c-10 -2 -28 -2 -40 0 -13 2 -5 4 17 4 22 1 32 -1 23 -4z
m-103 -118 c0 -45 -4 -65 -12 -65 -9 0 -13 21 -13 70 0 51 3 68 13 65 8 -4 12
-27 12 -70z m108 58 c-18 -2 -48 -2 -65 0 -18 2 -4 4 32 4 36 0 50 -2 33 -4z
m25 -55 l3 -38 -41 0 c-24 0 -39 4 -35 10 3 5 19 7 35 3 28 -5 30 -3 30 23 0
28 -2 29 -45 29 -43 0 -44 -1 -48 -35 -3 -32 -4 -32 -5 8 l-2 43 53 -3 52 -3
3 -37z m-33 2 c4 -6 -5 -10 -20 -10 -15 0 -24 4 -20 10 3 6 12 10 20 10 8 0
17 -4 20 -10z m8 -67 c-18 -2 -48 -2 -65 0 -18 2 -4 4 32 4 36 0 50 -2 33 -4z"/>
<path d="M2554 5582 c-3 -9 -11 -33 -18 -52 -16 -45 -9 -233 7 -227 7 2 11 23
10 50 -2 44 0 46 30 52 18 4 42 13 55 21 12 8 22 10 22 4 0 -5 -20 -19 -45
-31 -25 -12 -45 -24 -45 -26 0 -11 64 8 81 23 10 9 19 11 23 6 6 -10 -44 -44
-83 -57 -11 -3 -21 -10 -21 -16 0 -5 23 0 50 11 61 24 60 24 60 5 0 -11 -7
-14 -25 -9 -15 4 -25 2 -25 -5 0 -13 45 -25 59 -16 6 3 11 17 11 31 l0 25 34
-26 c28 -21 35 -23 45 -11 9 11 5 17 -23 30 -47 22 -52 33 -19 40 26 6 28 10
30 66 l1 58 -36 -5 c-34 -6 -36 -5 -23 10 18 22 8 47 -17 41 -10 -3 -24 2 -31
10 -16 20 -31 21 -31 2 0 -7 -13 -29 -30 -47 -29 -33 -40 -56 -20 -44 6 4 10
-7 10 -26 0 -26 3 -30 12 -21 7 7 19 12 27 12 13 0 13 -2 1 -13 -8 -7 -27 -19
-42 -25 l-28 -12 0 69 c0 49 4 72 15 81 19 16 19 26 0 34 -10 3 -18 -1 -21
-12z m124 -44 c-5 -15 -58 -24 -58 -9 0 11 17 19 43 20 11 1 17 -4 15 -11z
m-10 -50 c-7 -20 -58 -23 -58 -4 0 11 10 16 31 16 20 0 29 -4 27 -12z m72 -3
c0 -9 -9 -15 -25 -15 -16 0 -25 6 -25 15 0 9 9 15 25 15 16 0 25 -6 25 -15z
m-6 -31 c13 -5 11 -10 -10 -27 -26 -20 -27 -20 -40 -2 -7 10 -11 22 -8 26 6
10 35 12 58 3z"/>
<path d="M344 5582 c-11 -8 -27 -42 -19 -42 3 0 14 6 25 12 16 10 23 10 36 -4
13 -12 14 -20 5 -37 -7 -11 -16 -21 -21 -21 -6 0 -10 -4 -10 -10 0 -5 7 -10
15 -10 20 0 36 -41 23 -57 -6 -7 -28 -13 -50 -13 -35 0 -39 -2 -28 -15 19 -22
63 -18 88 8 23 25 31 92 11 99 -7 2 -7 11 1 30 17 36 -1 68 -38 68 -15 0 -32
-4 -38 -8z"/>
<path d="M502 5580 c-23 -10 -39 -36 -28 -47 3 -4 12 1 19 11 18 24 51 17 55
-13 6 -38 -6 -67 -43 -104 -49 -49 -45 -58 21 -55 41 2 60 8 68 20 13 21 0 36
-16 20 -14 -14 -58 -16 -58 -3 0 6 5 13 10 16 21 13 60 85 60 109 0 14 -9 32
-22 40 -25 18 -33 19 -66 6z"/>
<path d="M2850 5533 c0 -31 4 -53 11 -53 6 0 1 -13 -10 -29 -17 -23 -19 -34
-11 -62 8 -25 6 -37 -6 -50 -10 -11 -12 -19 -5 -24 18 -11 31 5 31 37 0 27 3
30 25 26 13 -3 26 0 29 6 3 6 4 2 4 -9 -2 -38 2 -55 13 -55 7 0 8 11 4 30 -6
26 -4 30 13 30 25 0 55 -28 45 -43 -4 -6 -9 -2 -14 11 -5 12 -13 22 -20 22 -7
0 -8 -7 -4 -17 4 -10 7 -26 7 -35 -1 -26 12 -22 54 17 35 33 63 47 49 24 -7
-11 31 -59 47 -59 4 0 8 9 8 20 0 11 -4 20 -10 20 -14 0 -13 157 0 165 8 5 8
11 0 20 -8 9 -20 11 -40 5 -28 -8 -29 -7 -20 11 7 12 21 19 41 19 18 0 29 5
27 11 -2 7 -50 12 -136 13 l-132 1 0 -52z m83 20 c-13 -2 -33 -2 -45 0 -13 2
-3 4 22 4 25 0 35 -2 23 -4z m97 -9 c0 -11 -6 -15 -20 -11 -18 5 -20 0 -20
-40 0 -29 -4 -42 -11 -38 -6 4 -17 -1 -25 -11 -14 -17 -14 -17 -2 6 7 14 12
28 13 32 0 3 3 10 8 14 4 4 7 20 7 36 0 23 4 28 25 28 16 0 25 -6 25 -16z
m-80 -24 c0 -5 -18 -10 -41 -10 -24 0 -38 4 -34 10 3 6 22 10 41 10 19 0 34
-4 34 -10z m128 -27 c2 -9 -8 -13 -32 -13 -26 0 -36 4 -36 16 0 19 61 16 68
-3z m-144 -24 c-11 -23 -19 -28 -27 -20 -7 7 -15 7 -26 -2 -9 -6 -7 -1 4 11
16 20 17 25 5 32 -11 7 -4 10 23 10 l38 0 -17 -31z m144 -21 c3 -15 -4 -18
-32 -18 -30 0 -36 4 -36 21 0 17 5 20 32 17 22 -2 34 -9 36 -20z m-163 -46
c-8 -8 -25 10 -19 20 4 6 9 5 15 -3 4 -7 6 -15 4 -17z m75 12 c0 -8 -4 -12
-10 -9 -5 3 -10 10 -10 16 0 5 5 9 10 9 6 0 10 -7 10 -16z m88 -16 c-7 -20
-68 -23 -68 -4 0 12 10 16 36 16 24 0 34 -4 32 -12z"/>
<path d="M3380 5569 c0 -7 -28 -10 -85 -8 -52 3 -85 0 -85 -6 0 -8 140 -12
204 -6 11 1 -13 31 -25 31 -5 0 -9 -5 -9 -11z"/>
<path d="M4013 5565 c-3 -9 -12 -14 -21 -13 -14 3 -16 -9 -13 -81 2 -73 1 -83
-13 -78 -9 4 -16 2 -16 -3 0 -12 45 -24 59 -16 5 3 17 3 26 0 15 -6 15 -8 0
-24 -9 -10 -30 -24 -46 -30 -34 -14 -40 -35 -7 -24 43 13 83 42 82 58 -2 18 7
19 107 16 42 -1 69 3 74 10 4 7 -1 14 -14 17 -24 6 -25 17 -10 96 10 59 6 82
-14 70 -6 -4 -35 -8 -64 -10 -43 -3 -51 -1 -47 12 4 10 0 15 -10 15 -12 0 -16
-11 -16 -47 0 -75 -7 -90 -41 -90 -36 0 -37 30 -1 35 29 4 23 28 -7 25 -30 -4
-27 25 4 39 29 13 32 23 10 32 -9 3 -18 -1 -22 -9z m178 -35 c5 0 9 -7 9 -15
0 -11 -13 -14 -55 -13 -37 1 -55 6 -55 14 0 12 52 24 78 17 8 -1 18 -3 23 -3z
m-80 -75 c-4 -38 -8 -45 -27 -45 -11 0 -13 6 -8 23 4 12 7 30 6 40 0 12 5 17
16 15 12 -2 16 -11 13 -33z m70 25 c5 0 9 -9 9 -20 0 -14 -7 -20 -22 -21 l-23
0 23 -9 c35 -15 28 -40 -12 -40 l-33 0 10 51 c7 37 14 49 24 45 8 -4 19 -6 24
-6z m-138 -70 c-6 -22 -43 -28 -43 -7 0 18 10 27 31 27 12 0 16 -6 12 -20z
m50 -17 c-7 -2 -19 -2 -25 0 -7 3 -2 5 12 5 14 0 19 -2 13 -5z"/>
<path d="M5620 5562 c0 -5 7 -15 15 -22 24 -20 8 -30 -46 -30 -28 0 -49 -5
-49 -11 0 -6 15 -10 33 -8 17 1 61 1 97 0 l65 -1 -46 -43 c-65 -59 -77 -68
-127 -100 -24 -15 -40 -32 -37 -37 9 -15 26 -12 40 7 12 16 14 16 38 0 20 -13
48 -17 111 -17 47 0 88 5 91 10 4 6 -25 10 -79 10 -92 0 -144 14 -123 34 7 6
30 23 52 37 51 34 127 108 120 119 -2 4 -25 5 -49 3 -37 -5 -46 -2 -55 16 -12
22 -51 47 -51 33z"/>
<path d="M4511 5551 c-9 -6 -10 -11 -2 -15 16 -10 15 -183 -1 -189 -7 -3 5 -6
26 -6 31 -1 37 2 28 11 -8 8 -12 47 -12 110 0 100 -5 111 -39 89z"/>
<path d="M5870 5418 c0 -86 4 -138 10 -138 6 0 10 37 10 91 l0 91 43 -4 42 -3
3 51 3 50 -56 0 -55 -1 0 -137z m80 107 c0 -10 -10 -15 -30 -15 -20 0 -30 5
-30 15 0 10 10 15 30 15 20 0 30 -5 30 -15z m0 -37 c0 -5 -13 -8 -30 -8 -16 0
-30 3 -30 8 0 4 14 7 30 7 17 0 30 -3 30 -7z"/>
<path d="M6010 5503 l0 -53 45 7 45 6 0 -77 c0 -72 -1 -76 -22 -77 -16 0 -18
-2 -8 -6 8 -3 18 -11 22 -17 5 -8 12 -6 22 4 11 11 15 47 18 140 l3 125 -62 0
-63 0 0 -52z m100 22 c0 -16 -64 -22 -74 -6 -9 14 5 21 41 21 23 0 33 -5 33
-15z m-5 -35 c-3 -5 -22 -10 -41 -10 -21 0 -33 4 -29 10 3 6 22 10 41 10 21 0
33 -4 29 -10z"/>
<path d="M6247 5539 c-3 -11 -15 -23 -26 -26 -19 -5 -21 -13 -21 -104 0 -97 4
-111 27 -88 8 8 20 9 42 1 l31 -11 0 60 c0 46 3 59 15 59 8 0 15 6 15 14 0 8
8 23 18 35 14 17 24 19 59 14 l43 -6 -6 -56 c-3 -31 -10 -71 -16 -89 -9 -28
-14 -33 -34 -29 -29 5 -31 -4 -4 -20 43 -27 64 9 75 132 4 39 5 75 3 80 -2 6
-24 9 -49 7 -46 -4 -75 12 -45 24 21 8 10 24 -15 24 -14 0 -19 -7 -19 -25 0
-32 -31 -95 -38 -77 -2 8 0 18 6 24 18 18 2 38 -24 32 -24 -6 -34 9 -14 21 15
9 12 25 -4 25 -7 0 -16 -9 -19 -21z m41 -81 c3 -26 1 -28 -32 -28 -31 0 -36 3
-36 23 0 31 9 39 40 35 19 -2 26 -10 28 -30z m0 -80 c-3 -29 -6 -33 -33 -33
-27 0 -30 4 -33 33 -3 31 -2 32 33 32 35 0 36 -1 33 -32z"/>
<path d="M6567 5538 c-2 -13 -8 -32 -12 -43 -4 -12 5 -7 23 15 30 35 33 50 8
50 -8 0 -16 -10 -19 -22z"/>
<path d="M6700 5545 c0 -9 -9 -15 -25 -15 -24 0 -25 -3 -25 -60 0 -55 10 -75
25 -50 9 15 25 12 25 -5 0 -10 -10 -15 -30 -15 -16 0 -30 -4 -30 -10 0 -5 7
-10 15 -10 20 0 19 -15 -2 -35 -16 -16 -17 -16 -25 4 -4 11 -12 21 -18 21 -14
0 -12 -11 5 -34 8 -10 12 -23 9 -27 -3 -5 -2 -9 3 -9 13 1 37 23 56 50 l17 24
0 -32 c0 -22 -5 -32 -16 -32 -14 0 -14 -2 0 -15 26 -26 36 -17 36 33 1 43 2
45 15 27 26 -37 48 -55 68 -55 17 0 13 6 -19 34 l-38 33 34 18 c31 16 33 18
16 31 -16 11 -18 21 -12 64 l7 50 -38 1 c-21 0 -32 3 -25 6 19 8 14 23 -8 23
-11 0 -20 -7 -20 -15z m58 -52 c2 -9 -9 -13 -37 -13 -30 0 -41 4 -41 16 0 11
9 14 37 12 20 -2 38 -9 41 -15z m-13 -39 c0 -10 -53 -14 -69 -6 -13 7 24 20
49 18 11 -1 20 -6 20 -12z m18 -38 c3 -8 0 -17 -8 -19 -15 -7 -25 1 -25 20 0
17 26 17 33 -1z"/>
<path d="M6902 5418 c2 -91 7 -141 13 -138 6 3 9 47 8 105 -1 99 -1 99 18 75
10 -14 16 -31 14 -39 -5 -12 -3 -12 12 0 10 8 22 20 26 27 4 6 17 12 27 12 16
0 20 -7 20 -30 0 -28 -3 -30 -35 -30 -19 0 -35 -4 -35 -10 0 -5 16 -10 35 -10
34 0 35 -1 35 -41 l0 -41 -45 4 c-26 2 -45 -1 -45 -7 0 -6 39 -10 98 -10 57 0
97 4 97 10 0 6 -17 9 -37 7 l-38 -2 0 40 c0 38 2 40 30 40 21 0 30 5 30 16 0
12 -7 14 -30 9 -28 -6 -30 -5 -30 24 0 29 2 31 36 31 24 0 34 4 31 13 -2 7
-18 11 -36 9 -32 -2 -32 -1 -29 35 2 30 -1 38 -15 41 -14 3 -17 -4 -17 -37 0
-30 -4 -41 -15 -41 -17 0 -20 16 -5 25 13 8 2 27 -12 23 -6 -2 -19 -24 -29
-48 -12 -29 -18 -38 -18 -24 -1 12 -8 27 -17 35 -11 9 -14 22 -10 41 5 23 2
28 -15 28 -19 0 -19 -6 -17 -142z"/>
<path d="M7211 5416 c0 -89 3 -146 9 -146 6 0 10 42 10 100 l0 100 25 0 c24 0
25 -1 11 -22 -8 -13 -13 -36 -12 -53 2 -16 4 -40 4 -52 2 -17 8 -23 25 -23 20
0 20 -2 -8 -20 -26 -17 -27 -20 -9 -20 29 0 53 21 62 55 12 45 4 78 -16 71
-14 -5 -14 -3 2 8 10 8 15 20 11 26 -5 8 -11 8 -21 -1 -8 -6 -17 -9 -21 -5 -3
3 -1 6 6 6 7 0 11 7 8 14 -4 10 -1 13 9 9 11 -4 14 5 14 40 l0 45 -40 -5 c-24
-3 -46 -1 -54 6 -13 11 -15 -8 -15 -133z m89 104 c0 -5 -16 -10 -35 -10 -19 0
-35 5 -35 10 0 6 16 10 35 10 19 0 35 -4 35 -10z m0 -30 c0 -5 -13 -10 -29
-10 -17 0 -33 5 -36 10 -4 6 8 10 29 10 20 0 36 -4 36 -10z m10 -130 c0 -11
-6 -20 -14 -20 -9 0 -12 7 -9 20 3 11 9 20 14 20 5 0 9 -9 9 -20z"/>
<path d="M7590 5518 c-8 -24 -25 -58 -38 -75 -13 -18 -20 -33 -14 -33 6 0 14
5 17 10 16 26 22 3 18 -70 -3 -67 -1 -80 12 -80 13 0 15 18 15 113 0 100 2
116 21 135 20 23 18 42 -5 42 -7 0 -19 -19 -26 -42z"/>
<path d="M7655 5520 c-40 -41 -41 -49 -2 -29 33 17 67 51 61 60 -9 15 -17 10
-59 -31z"/>
<path d="M7358 5480 c-3 -40 -1 -68 6 -72 7 -5 7 -8 -2 -8 -10 0 -12 -16 -10
-62 3 -60 20 -87 26 -42 2 12 11 24 22 27 18 5 37 58 25 76 -3 6 -13 8 -23 5
-16 -5 -16 -5 1 9 22 18 22 31 -1 25 -12 -4 -18 1 -18 13 0 14 8 19 28 19 l28
0 0 -85 c0 -71 -2 -83 -15 -79 -22 9 -18 -9 5 -23 13 -9 21 -9 25 -2 4 6 9 68
11 138 l4 127 -54 0 -54 -1 -4 -65z m77 40 c-7 -12 -55 -14 -55 -2 0 4 14 8
30 9 18 1 28 -2 25 -7z m5 -30 c0 -5 -13 -10 -30 -10 -16 0 -30 5 -30 10 0 6
14 10 30 10 17 0 30 -4 30 -10z m-37 -116 c-7 -3 -9 -12 -6 -20 3 -8 0 -14 -6
-14 -6 0 -11 9 -11 20 0 13 6 20 18 19 9 0 12 -3 5 -5z"/>
<path d="M8400 5534 c0 -13 -8 -15 -35 -12 -27 3 -35 0 -35 -12 0 -12 8 -15
35 -12 30 4 35 1 35 -17 0 -15 6 -21 21 -21 19 0 20 -2 8 -16 -9 -11 -23 -14
-47 -11 -18 3 -40 3 -48 0 -25 -9 -4 -23 37 -23 38 0 39 -1 28 -22 -7 -13 -25
-36 -41 -53 -34 -35 -18 -48 18 -14 l24 22 0 -42 c0 -35 3 -42 16 -37 9 3 46
6 84 6 l68 0 4 50 3 50 -78 0 c-75 0 -77 1 -67 20 10 18 20 20 91 19 44 -1 82
1 85 4 17 16 -13 24 -77 19 -66 -4 -72 -3 -66 12 5 13 1 19 -13 23 -11 3 -20
12 -20 20 0 9 6 13 14 10 19 -8 28 3 15 19 -6 7 -17 10 -25 7 -10 -4 -12 0 -8
11 4 11 1 16 -10 16 -9 0 -16 -7 -16 -16z m142 -193 c5 -1 6 -11 4 -23 -3 -13
-5 -25 -5 -28 -1 -3 -26 -5 -55 -5 -49 -1 -56 2 -61 23 -3 12 -3 26 -1 31 4 6
52 7 118 2z"/>
<path d="M8510 5535 c0 -8 -7 -15 -15 -15 -20 0 -19 -10 5 -40 19 -24 20 -24
20 -4 0 19 6 21 43 20 31 -1 42 3 42 14 0 11 -9 14 -32 12 -25 -2 -33 1 -33
12 0 9 -7 16 -15 16 -8 0 -15 -7 -15 -15z"/>
<path d="M9715 5530 c-3 -5 -1 -10 4 -10 6 0 11 -13 11 -29 0 -21 -6 -30 -22
-35 -18 -4 -20 -8 -10 -18 9 -9 15 -8 26 8 15 19 15 19 30 -1 14 -17 17 -18
26 -5 12 19 13 33 1 25 -12 -7 -25 31 -16 45 3 5 13 10 21 10 8 0 14 5 14 10
0 14 -23 13 -38 -2 -9 -9 -12 -9 -12 0 0 15 -26 16 -35 2z"/>
<path d="M7678 5489 c-44 -45 -47 -59 -15 -60 20 -1 20 -2 -6 -12 -37 -15 -28
-32 17 -30 36 2 36 2 36 -37 0 -37 -7 -45 -32 -41 -16 2 -7 -15 13 -27 29 -18
42 -4 45 50 1 24 3 49 3 56 1 17 50 15 57 -3 4 -8 10 -12 15 -9 14 8 11 19
-15 48 -22 27 -23 27 -29 7 -4 -17 -13 -21 -44 -21 l-38 0 34 23 c19 12 43 27
53 33 17 10 17 12 3 24 -13 11 -18 10 -31 -8 -8 -12 -24 -22 -35 -22 -27 0
-24 14 6 30 24 13 29 31 9 36 -5 1 -26 -15 -46 -37z"/>
<path d="M9570 5520 c-8 -5 -10 -10 -4 -10 13 0 4 -63 -14 -96 -6 -12 -13 -41
-14 -65 -3 -44 -3 -44 32 -47 40 -3 80 26 80 58 0 11 5 20 10 20 17 0 11 36
-9 54 -12 11 -27 15 -40 11 -18 -5 -19 -3 -10 27 16 57 7 72 -31 48z m57 -137
c-10 -61 -67 -98 -67 -43 0 30 33 80 54 80 16 0 18 -5 13 -37z"/>
<path d="M10670 5405 l0 -125 -27 0 -28 0 24 -19 c45 -34 51 -20 51 114 0 80
4 126 11 131 11 6 -6 23 -23 24 -5 0 -8 -56 -8 -125z"/>
<path d="M10450 5418 c0 -62 4 -98 11 -100 7 -2 0 -17 -16 -36 -38 -45 -15
-40 33 8 38 38 54 49 50 33 -3 -13 32 -73 42 -73 17 0 11 26 -10 45 -14 13
-17 21 -9 26 7 4 13 40 14 85 2 44 5 85 7 93 2 10 -12 14 -60 15 l-62 1 0 -97z
m90 51 c0 -17 -5 -20 -32 -17 -22 2 -34 9 -36 21 -3 14 4 17 32 17 30 0 36 -4
36 -21z m0 -49 c0 -16 -7 -20 -35 -20 -28 0 -35 4 -35 20 0 16 7 20 35 20 28
0 35 -4 35 -20z m0 -61 c0 -17 -5 -20 -32 -17 -22 2 -34 9 -36 21 -3 14 4 17
32 17 30 0 36 -4 36 -21z"/>
<path d="M6597 5489 c-5 -18 -11 -21 -36 -16 -26 6 -31 3 -31 -13 0 -23 16
-35 23 -18 2 7 7 10 11 7 3 -3 -3 -18 -15 -33 -23 -30 -19 -67 5 -46 8 6 28
12 45 12 17 1 31 4 31 9 0 19 -13 39 -27 39 -8 0 -11 -4 -8 -10 3 -5 4 -10 1
-10 -2 0 -12 -3 -22 -7 -12 -4 -5 9 19 39 20 25 37 50 37 57 0 20 -27 12 -33
-10z"/>
<path d="M10999 5508 c0 -2 -2 -19 -3 -38 -3 -32 -24 -112 -41 -152 -5 -13 0
-20 20 -28 15 -6 36 -8 46 -5 31 10 71 70 67 102 -3 24 -7 28 -36 28 -29 0
-33 3 -28 20 19 74 19 75 -3 75 -11 0 -21 -1 -22 -2z m59 -132 c4 -35 -22 -76
-50 -76 -18 0 -20 4 -15 36 7 39 34 77 51 71 6 -2 12 -16 14 -31z"/>
<path d="M3298 5493 c-74 -2 -128 -8 -128 -13 0 -6 29 -10 65 -10 l65 0 0 -86
c0 -64 3 -85 13 -81 8 3 11 27 10 85 l-2 82 64 0 c51 0 65 3 65 15 0 8 -6 14
-12 13 -7 -1 -70 -4 -140 -5z"/>
<path d="M6872 5475 c-14 -31 -15 -45 -3 -45 8 0 22 61 16 68 -1 1 -7 -9 -13
-23z"/>
<path d="M10610 5404 c0 -121 18 -116 21 5 1 57 -2 86 -9 89 -9 3 -12 -25 -12
-94z"/>
<path d="M2000 5485 c0 -10 45 -75 53 -75 14 0 7 37 -10 52 -24 20 -43 31 -43
23z"/>
<path d="M3670 5480 c-9 -6 -11 -10 -3 -10 7 0 19 -12 27 -27 12 -24 12 -30
-1 -50 -9 -13 -24 -23 -35 -23 -11 0 -18 -5 -15 -12 7 -22 41 -14 54 12 8 16
13 19 13 9 0 -38 51 -47 64 -13 4 11 1 14 -13 9 -14 -4 -20 1 -25 21 -8 30 8
54 35 54 21 0 26 25 7 36 -6 4 -19 -3 -30 -16 l-19 -23 -6 21 c-6 23 -28 28
-53 12z"/>
<path d="M4600 5468 c-30 -32 -22 -96 14 -120 38 -26 106 12 106 58 0 74 -73
112 -120 62z m79 -32 c23 -48 -13 -98 -47 -64 -13 13 -17 80 -5 92 14 13 38 0
52 -28z"/>
<path d="M4761 5471 c-25 -25 -27 -56 -5 -65 15 -6 15 -8 0 -25 -9 -10 -14
-25 -11 -34 4 -8 2 -18 -3 -21 -21 -13 0 -46 33 -52 49 -9 89 14 93 52 3 34
-11 43 -73 45 l-30 1 35 10 c39 11 50 23 50 55 0 12 6 23 13 26 19 7 6 14 -40
22 -34 5 -45 3 -62 -14z m54 -34 c0 -15 -4 -27 -10 -28 -16 -1 -29 27 -22 45
10 26 32 14 32 -17z m35 -114 c8 -7 -24 -23 -45 -23 -11 0 -27 5 -35 10 -13 9
-13 11 0 19 13 9 68 4 80 -6z"/>
<path d="M5150 5471 c0 -5 7 -11 15 -15 11 -4 15 -22 15 -70 0 -57 -3 -67 -22
-77 -13 -7 -25 -12 -28 -11 -3 1 -5 -3 -5 -10 0 -37 41 -4 133 107 24 29 31
90 10 82 -7 -2 -12 -14 -10 -26 2 -23 -26 -81 -40 -81 -4 0 -8 18 -8 39 0 22
-3 46 -6 55 -6 17 -54 23 -54 7z"/>
<path d="M2507 5463 c-4 -3 -7 -11 -7 -17 0 -6 5 -5 12 2 6 6 9 14 7 17 -3 3
-9 2 -12 -2z"/>
<path d="M3222 5418 c-9 -17 -25 -38 -34 -47 -10 -8 -18 -19 -18 -23 0 -19 21
-4 59 41 33 39 38 50 25 55 -10 4 -21 -4 -32 -26z"/>
<path d="M6350 5445 c0 -11 44 -65 52 -65 16 0 8 27 -15 48 -23 21 -37 28 -37
17z"/>
<path d="M8900 5441 c0 -5 7 -11 15 -15 11 -4 15 -21 15 -61 0 -64 -15 -95
-42 -87 -20 5 -26 -22 -7 -34 12 -7 72 51 122 117 30 41 36 89 11 89 -12 0
-15 -6 -10 -23 3 -14 -3 -36 -16 -57 -23 -38 -23 -37 -33 33 -5 41 -9 47 -31
47 -13 0 -24 -4 -24 -9z"/>
<path d="M9402 5424 c-28 -23 -32 -31 -32 -75 0 -44 2 -49 23 -49 13 0 29 6
35 12 10 10 15 10 22 -2 7 -11 14 -12 27 -4 23 14 31 39 9 31 -15 -6 -15 -4
-2 21 7 15 17 41 20 58 7 31 6 32 -31 32 -27 1 -49 -7 -71 -24z m59 -6 c5 -48
-20 -88 -54 -88 -17 0 -19 5 -13 32 7 35 32 68 53 68 7 0 14 -6 14 -12z"/>
<path d="M3370 5431 c0 -6 5 -13 10 -16 6 -4 19 -24 30 -46 21 -41 40 -51 40
-21 0 9 -16 34 -36 55 -37 39 -44 43 -44 28z"/>
<path d="M5930 5380 l0 -57 59 0 59 0 4 55 c2 29 1 55 -1 57 -2 2 -11 -1 -22
-8 -13 -8 -29 -8 -59 -1 l-40 11 0 -57z m100 20 c0 -5 -16 -10 -35 -10 -19 0
-35 5 -35 10 0 6 16 10 35 10 19 0 35 -4 35 -10z m0 -41 c0 -17 -5 -20 -32
-17 -22 2 -34 9 -36 21 -3 14 4 17 32 17 30 0 36 -4 36 -21z"/>
<path d="M7970 5411 c0 -46 61 -55 73 -11 6 25 -11 40 -45 40 -24 0 -28 -4
-28 -29z m45 -1 c0 -7 -6 -15 -12 -17 -8 -3 -13 4 -13 17 0 13 5 20 13 18 6
-3 12 -11 12 -18z"/>
<path d="M9106 5422 c-3 -6 2 -12 12 -14 33 -9 147 -3 152 7 6 13 -156 19
-164 7z"/>
<path d="M10080 5415 c0 -8 5 -15 10 -15 6 0 8 -11 4 -25 -8 -34 8 -32 28 3
13 22 14 32 6 40 -17 17 -48 15 -48 -3z"/>
<path d="M11184 5409 c-13 -22 12 -30 84 -26 48 2 77 7 80 15 2 8 -10 12 -40
13 -23 0 -60 2 -81 4 -20 1 -40 -1 -43 -6z"/>
<path d="M640 5390 c0 -13 5 -20 13 -17 6 2 12 10 12 17 0 7 -6 15 -12 18 -8
2 -13 -5 -13 -18z"/>
<path d="M4920 5396 c-17 -22 -8 -60 18 -71 28 -13 28 -19 -4 -44 -26 -21 -26
-21 -4 -21 29 0 80 55 80 87 0 40 -18 63 -49 63 -16 0 -34 -7 -41 -14z m58
-40 c-2 -12 -10 -21 -18 -21 -16 0 -25 28 -16 52 9 23 38 -4 34 -31z"/>
<path d="M2880 5345 c0 -14 5 -25 10 -25 6 0 10 11 10 25 0 14 -4 25 -10 25
-5 0 -10 -11 -10 -25z"/>
<path d="M6574 5355 c5 -11 11 -28 13 -37 7 -24 23 -23 23 0 0 11 -10 27 -22
38 -21 19 -21 19 -14 -1z"/>
<path d="M7637 5330 c-14 -22 -22 -40 -17 -40 13 0 60 53 60 67 0 24 -16 13
-43 -27z"/>
<path d="M7760 5363 c0 -3 10 -21 21 -40 14 -22 25 -31 31 -25 6 6 4 19 -7 35
-15 24 -45 44 -45 30z"/>
<path d="M9110 5361 c0 -13 38 -21 103 -21 44 0 57 3 57 15 0 12 -16 15 -80
15 -44 0 -80 -4 -80 -9z"/>
<path d="M4146 5342 c30 -27 75 -54 81 -48 12 12 -8 36 -43 51 -48 20 -62 19
-38 -3z"/>
<path d="M11183 5347 c-8 -14 -1 -15 67 -17 90 -3 100 -2 100 13 0 14 -158 18
-167 4z"/>
<path d="M6537 5342 c-6 -9 29 -53 36 -46 7 8 -14 54 -24 54 -4 0 -10 -3 -12
-8z"/>
<path d="M2130 4760 c0 -5 -16 -44 -35 -86 -19 -41 -35 -79 -35 -84 0 -5 -8
-14 -17 -19 -15 -8 -10 -10 21 -11 32 0 37 2 27 14 -21 26 7 56 52 56 39 0 39
0 35 -35 -4 -35 -4 -35 37 -35 29 1 36 3 24 10 -8 5 -21 28 -28 52 -7 24 -19
59 -26 78 -7 19 -16 43 -19 53 -6 18 -36 24 -36 7z m24 -82 c6 -25 4 -28 -19
-28 -25 0 -25 0 -10 31 19 35 20 35 29 -3z"/>
<path d="M3158 4749 c-10 -5 -18 -19 -18 -31 0 -20 1 -21 20 -3 17 15 24 16
45 7 42 -19 28 -61 -43 -131 -17 -18 -30 -37 -26 -42 8 -13 108 -11 122 3 25
25 13 36 -33 30 l-46 -5 32 34 c17 18 35 45 41 58 10 28 2 72 -15 83 -17 11
-59 9 -79 -3z"/>
<path d="M3534 4655 c-10 -25 4 -45 31 -45 15 0 24 4 21 9 -4 5 0 11 6 14 10
3 8 10 -6 23 -18 19 -18 18 -12 -3 8 -24 -10 -41 -26 -25 -8 8 -7 16 2 27 9
11 9 15 1 15 -6 0 -14 -7 -17 -15z"/>
<path d="M2970 4630 c0 -6 33 -10 80 -10 47 0 80 4 80 10 0 6 -33 10 -80 10
-47 0 -80 -4 -80 -10z"/>
<path d="M9535 4600 c-11 -5 -14 -9 -7 -9 11 -1 13 -22 10 -101 l-3 -100 25 0
25 0 0 110 c0 117 -2 121 -50 100z"/>
<path d="M2267 4587 c-3 -8 -2 -20 3 -27 11 -18 42 -4 38 17 -4 22 -34 29 -41
10z"/>
<path d="M9626 4518 c-23 -33 -20 -83 6 -108 66 -61 157 37 99 108 -26 30 -84
31 -105 0z m82 -52 c4 -59 -12 -75 -45 -44 -39 36 -28 101 16 96 24 -3 26 -8
29 -52z"/>
<path d="M9787 4522 c-20 -21 -22 -43 -6 -59 8 -8 8 -17 0 -30 -15 -28 4 -43
56 -43 48 0 61 -25 19 -36 -32 -8 -66 3 -66 22 0 19 -19 18 -26 -1 -11 -27 16
-45 67 -45 41 0 51 4 65 25 24 37 12 53 -46 61 -53 7 -69 24 -22 24 31 0 56
24 65 62 6 23 3 26 -24 32 -49 10 -65 7 -82 -12z m58 -22 c8 -24 -1 -40 -21
-40 -9 0 -14 11 -14 30 0 35 25 42 35 10z"/>
<path d="M10160 4528 c-22 -8 -23 -10 -7 -19 13 -8 17 -23 17 -74 0 -66 -9
-82 -42 -77 -11 2 -18 -3 -18 -12 0 -25 39 -19 67 12 69 73 93 110 93 141 0
31 -13 41 -26 20 -3 -6 -2 -15 4 -21 7 -7 4 -19 -11 -39 -29 -40 -37 -36 -37
14 0 56 -8 67 -40 55z"/>
<path d="M10363 4468 c-16 -21 -113 -225 -113 -238 0 -31 28 4 67 83 24 48 45
87 48 87 2 0 2 -46 0 -102 -4 -89 -15 -980 -15 -1261 l0 -98 -212 5 c-117 3
-499 8 -848 12 -609 6 -634 6 -618 -11 16 -17 68 -18 849 -23 l832 -5 -6 -255
c-4 -140 -7 -369 -7 -508 l0 -254 -77 3 c-64 2 -78 -1 -78 -13 0 -11 14 -16
54 -18 l53 -3 -33 -25 c-19 -13 -45 -34 -59 -45 -14 -11 -56 -43 -95 -70 -68
-49 -87 -63 -151 -114 -18 -14 -34 -25 -37 -25 -3 0 -16 -9 -29 -20 -20 -17
-81 -62 -298 -221 -30 -22 -95 -72 -145 -109 -49 -38 -126 -94 -170 -124 -44
-31 -95 -69 -113 -85 -19 -17 -42 -33 -53 -36 -10 -4 -19 -11 -19 -16 0 -5 -6
-9 -14 -9 -17 0 -30 -30 -18 -42 8 -8 186 116 230 159 7 7 17 13 20 13 4 0 18
10 32 23 35 32 357 271 850 631 l145 106 3 -595 c1 -385 6 -595 12 -595 6 0
11 42 11 103 1 56 3 212 5 347 2 135 4 358 4 497 l0 252 87 3 c56 2 88 7 90
15 3 9 -18 13 -74 15 l-78 3 75 54 c41 30 86 65 100 78 14 13 28 23 31 23 3 0
17 10 31 23 14 12 51 40 83 62 31 22 62 45 68 50 7 6 64 48 127 94 63 47 128
97 144 112 17 15 41 34 55 41 29 15 44 25 69 49 9 9 31 25 48 35 17 11 64 45
105 76 41 32 144 110 229 173 l155 116 3 -81 c2 -62 6 -80 17 -80 12 0 15 17
15 85 l0 85 933 0 932 0 -50 -28 c-28 -15 -69 -36 -92 -47 -43 -20 -51 -29
-34 -39 8 -5 68 19 116 46 11 6 46 24 78 40 31 16 57 35 57 43 0 8 -4 15 -10
15 -12 0 -122 53 -175 85 -22 13 -48 24 -58 25 -37 0 -9 -25 73 -68 l84 -43
-914 2 c-847 1 -913 3 -894 18 21 16 36 28 111 81 23 16 50 36 60 44 10 8 50
39 90 68 71 52 218 164 238 180 5 5 49 37 96 71 117 84 133 96 194 142 29 22
63 47 75 55 13 8 30 22 39 31 9 9 39 31 66 49 28 19 73 51 100 72 28 21 59 45
70 53 11 8 49 37 85 63 36 27 92 67 125 89 33 22 71 53 84 67 14 14 29 26 35
26 18 1 58 39 51 49 -6 10 -31 4 -50 -11 -5 -4 -30 -24 -55 -44 -25 -20 -63
-48 -85 -62 -22 -14 -42 -28 -45 -32 -3 -4 -30 -23 -60 -43 -30 -19 -92 -64
-136 -98 -45 -35 -119 -91 -165 -124 -45 -33 -87 -65 -93 -70 -6 -6 -45 -35
-86 -65 -41 -29 -86 -64 -100 -77 -14 -13 -28 -23 -33 -23 -9 0 -148 -103
-185 -137 -14 -13 -28 -23 -32 -23 -4 0 -18 -10 -32 -22 -35 -32 -58 -50 -98
-78 -19 -13 -40 -29 -46 -35 -6 -5 -32 -23 -57 -39 -26 -17 -47 -33 -47 -37 0
-4 -19 -18 -42 -32 -24 -14 -59 -39 -78 -57 l-35 -31 -5 72 c-3 45 -10 74 -17
77 -10 3 -13 -17 -13 -80 l0 -83 -657 3 c-362 1 -664 5 -672 8 -12 4 -13 112
-7 721 4 395 9 719 10 721 4 3 43 -69 80 -145 13 -28 36 -38 36 -17 0 18 -105
223 -124 242 -10 11 -15 11 -23 0z m717 -1560 c223 -2 448 -5 500 -8 91 -5 94
-5 69 -21 -13 -9 -36 -26 -49 -38 -21 -18 -358 -269 -428 -319 -13 -9 -71 -53
-129 -97 -58 -44 -121 -91 -141 -104 -19 -13 -60 -43 -91 -67 -76 -60 -95 -74
-181 -138 -125 -92 -189 -140 -224 -169 l-34 -27 5 487 c2 269 6 494 9 502 4
11 30 12 147 7 78 -3 324 -7 547 -8z"/>
<path d="M9934 4446 c-10 -27 1 -61 25 -72 l24 -12 -28 -26 c-34 -32 -11 -36
28 -6 30 24 44 78 28 109 -14 25 -68 29 -77 7z m51 -31 c0 -16 -5 -30 -12 -32
-14 -5 -28 40 -18 57 12 19 30 4 30 -25z"/>
<path d="M3103 3985 c-15 -17 -17 -29 -3 -20 6 4 10 -25 10 -79 0 -62 -3 -86
-12 -86 -7 0 -5 -5 5 -11 9 -6 27 -7 38 -4 19 6 19 8 4 19 -14 10 -17 27 -14
104 4 92 -2 107 -28 77z"/>
<path d="M2043 3799 c14 -8 17 -25 17 -95 0 -66 -3 -86 -15 -90 -35 -14 -10
-24 58 -24 91 0 101 7 100 62 -1 24 -1 64 -2 90 0 59 -15 68 -108 68 -51 -1
-64 -3 -50 -11z m117 -30 c17 -30 5 -49 -30 -49 -28 0 -30 3 -30 35 0 31 3 35
25 35 14 0 29 -8 35 -21z m-2 -85 c28 -19 28 -39 0 -58 -42 -29 -58 -21 -58
29 0 50 16 58 58 29z"/>
<path d="M3567 3713 c-11 -10 -8 -61 3 -68 17 -11 49 5 56 27 9 30 -38 63 -59
41z m41 -30 c-2 -10 -10 -18 -17 -18 -8 0 -15 8 -17 18 -1 11 4 17 18 17 13 0
18 -6 16 -17z"/>
<path d="M2960 3675 c0 -13 24 -15 160 -15 136 0 160 2 160 15 0 13 -24 15
-160 15 -136 0 -160 -2 -160 -15z"/>
<path d="M2257 3623 c-4 -3 -7 -12 -7 -20 0 -17 26 -17 33 1 8 21 -11 35 -26
19z"/>
<path d="M3012 3558 c-17 -17 -15 -63 3 -78 14 -12 14 -15 0 -30 -10 -11 -15
-31 -13 -52 3 -33 4 -33 53 -33 l50 0 3 38 c2 25 -2 45 -13 57 -14 15 -14 18
0 30 20 17 20 66 -1 74 -26 10 -69 7 -82 -6z m65 -28 c4 -21 -13 -44 -26 -36
-6 4 -11 18 -11 32 0 19 5 25 17 22 10 -2 19 -10 20 -18z m3 -130 c0 -22 -24
-32 -39 -17 -12 12 -15 50 -4 60 10 10 43 -23 43 -43z"/>
<path d="M3180 3558 c-21 -9 -22 -12 -7 -15 14 -4 17 -17 17 -88 0 -57 -4 -85
-12 -88 -7 -3 7 -5 32 -5 25 0 37 2 28 5 -16 4 -18 18 -18 104 0 54 -3 99 -7
98 -5 0 -19 -5 -33 -11z"/>
<path d="M3040 2828 c-21 -9 -22 -12 -7 -15 14 -4 17 -17 17 -89 0 -49 -4 -84
-10 -84 -5 0 -10 -4 -10 -10 0 -5 18 -10 40 -10 22 0 40 5 40 10 0 6 -7 10
-15 10 -12 0 -15 18 -15 100 0 55 -3 100 -7 99 -5 0 -19 -5 -33 -11z"/>
<path d="M10120 2757 c-54 -26 -80 -67 -80 -126 0 -46 27 -82 57 -76 10 2 35
7 56 10 32 5 41 13 67 58 36 63 38 90 5 122 -26 27 -64 31 -105 12z m76 -9
c26 -41 -13 -159 -56 -173 -76 -24 -92 83 -22 151 36 35 65 43 78 22z"/>
<path d="M13655 2761 c-19 -8 -19 -8 2 -15 48 -15 32 -96 -19 -96 -10 0 -18
-4 -18 -10 0 -19 48 -10 63 13 11 15 16 17 17 7 0 -8 4 -22 10 -30 7 -12 12
-12 29 4 24 21 29 45 6 26 -12 -10 -15 -7 -21 14 -8 34 1 57 26 63 11 3 20 9
20 14 0 13 -38 11 -46 -2 -5 -8 -10 -6 -16 5 -10 17 -22 19 -53 7z"/>
<path d="M2092 2653 c-51 -10 -78 -103 -47 -163 19 -36 43 -50 87 -50 38 0 62
15 72 44 6 19 6 19 -12 3 -29 -27 -88 -22 -108 8 -21 33 -14 113 12 132 27 19
61 16 84 -9 l20 -22 0 26 c0 34 -36 45 -108 31z"/>
<path d="M11738 2615 c-10 -13 -18 -26 -18 -29 0 -4 -13 -25 -30 -48 -16 -22
-30 -45 -30 -49 0 -4 19 -9 43 -11 37 -3 42 -6 42 -28 0 -15 6 -25 15 -25 8 0
17 11 19 25 1 14 8 29 15 33 8 6 8 10 -1 14 -9 3 -13 28 -13 74 0 75 -11 87
-42 44z m8 -101 c-3 -8 -17 -14 -31 -14 -23 0 -25 2 -14 23 6 12 19 30 28 41
15 18 16 17 19 -9 2 -15 1 -33 -2 -41z"/>
<path d="M3433 2544 c-8 -22 10 -49 32 -49 10 0 22 7 28 16 15 24 1 49 -28 49
-15 0 -28 -7 -32 -16z m45 -16 c-6 -18 -28 -21 -28 -4 0 9 7 16 16 16 9 0 14
-5 12 -12z"/>
<path d="M2947 2524 c4 -11 29 -14 109 -14 58 0 104 4 104 9 0 15 -28 19 -127
19 -75 0 -91 -2 -86 -14z"/>
<path d="M2230 2456 c0 -22 19 -30 35 -16 22 18 18 30 -10 30 -15 0 -25 -6
-25 -14z"/>
<path d="M3006 2388 c-23 -32 -20 -41 9 -22 34 22 65 10 65 -26 0 -19 -14 -44
-45 -78 -25 -27 -45 -53 -45 -56 0 -3 26 -6 59 -6 50 0 59 3 64 20 4 16 2 18
-13 10 -10 -6 -31 -10 -45 -10 l-27 0 41 46 c33 37 41 55 41 85 0 28 -5 41
-19 49 -32 17 -69 12 -85 -12z"/>
<path d="M9988 2008 c-15 -13 -32 -48 -22 -48 3 0 12 7 21 16 26 26 58 14 61
-23 3 -27 -5 -41 -42 -81 -25 -27 -46 -52 -46 -56 0 -11 116 -6 128 6 21 21
13 26 -35 20 l-48 -5 25 29 c14 15 31 34 38 42 20 22 15 90 -7 102 -26 14 -54
13 -73 -2z"/>
<path d="M9800 1896 c0 -13 13 -16 80 -16 47 0 80 4 80 10 0 6 -1 10 -2 10 -2
1 -38 3 -80 7 -68 5 -78 4 -78 -11z"/>
<path d="M2020 1705 c0 -4 7 -14 16 -22 13 -14 15 -30 9 -97 -3 -45 -11 -84
-18 -88 -14 -9 -11 -9 58 -13 87 -5 135 34 135 110 0 37 -18 79 -41 93 -19 12
-159 27 -159 17z m145 -51 c36 -34 34 -86 -5 -125 -19 -20 -38 -29 -52 -27
-21 3 -23 9 -26 82 -2 44 -1 85 2 91 7 18 51 7 81 -21z"/>
<path d="M2966 1674 c-9 -24 -8 -24 26 -22 27 3 34 -1 36 -19 2 -14 -4 -26
-19 -34 l-22 -11 22 -17 c15 -12 22 -26 19 -42 -3 -21 -8 -24 -40 -23 -26 1
-38 -3 -38 -12 0 -10 13 -14 39 -14 62 0 94 46 69 98 -10 20 -12 36 -5 55 6
19 5 32 -3 42 -17 20 -76 19 -84 -1z"/>
<path d="M3337 1604 c-11 -11 -8 -49 4 -61 5 -5 21 -8 35 -5 21 4 25 9 22 36
-2 25 -8 32 -28 34 -14 2 -29 0 -33 -4z m43 -30 c0 -14 -21 -19 -33 -7 -9 9
13 34 24 27 5 -3 9 -12 9 -20z"/>
<path d="M2257 1523 c-13 -12 -7 -43 7 -43 16 0 25 19 18 38 -5 13 -15 16 -25
5z"/>
</g>
</svg>
