<?xml version="1.0" standalone="no"?>
<!DOCTYPE svg PUBLIC "-//W3C//DTD SVG 20010904//EN"
 "http://www.w3.org/TR/2001/REC-SVG-20010904/DTD/svg10.dtd">
<svg version="1.0" xmlns="http://www.w3.org/2000/svg"
 width="1483.000000pt" height="790.000000pt" viewBox="0 0 1483.000000 790.000000"
 preserveAspectRatio="xMidYMid meet">
<metadata>
Created by potrace 1.16, written by Peter Selinger 2001-2019
</metadata>
<g transform="translate(0.000000,790.000000) scale(0.100000,-0.100000)"
fill="#000000" stroke="none">
<path d="M1130 7424 c0 -115 3 -145 12 -136 16 16 200 16 216 0 6 -6 14 -10
16 -7 2 2 6 65 8 139 l3 135 -113 -4 c-79 -2 -117 0 -127 9 -13 11 -15 -6 -15
-136z m70 82 c0 -28 4 -35 23 -39 12 -2 1 -5 -25 -6 l-48 -1 0 40 c0 36 3 40
25 40 22 0 25 -4 25 -34z m152 20 c4 -6 8 -21 8 -33 0 -18 -7 -23 -45 -29 -25
-3 -49 -4 -52 0 -4 3 6 6 20 6 23 0 27 4 27 29 0 28 -1 28 -44 24 -24 -3 -46
-1 -49 4 -8 13 126 12 135 -1z m-62 -26 c0 -5 -16 -10 -36 -10 -19 0 -33 4
-30 8 7 12 66 14 66 2z m-110 -121 c0 -46 -3 -59 -15 -59 -12 0 -15 14 -15 65
0 53 3 63 15 59 11 -5 15 -22 15 -65z m178 6 c2 -54 0 -65 -14 -65 -25 0 -15
121 11 130 1 0 2 -29 3 -65z m-70 48 c-15 -2 -42 -2 -60 0 -18 2 -6 4 27 4 33
0 48 -2 33 -4z m20 -48 c-2 -34 -3 -35 -43 -34 -34 2 -35 3 -10 6 30 5 45 18
45 39 0 6 -19 11 -44 11 -43 0 -45 -2 -49 -31 -3 -29 -4 -28 -5 7 l-2 37 55 0
56 0 -3 -35z m-43 -5 c3 -5 -1 -10 -9 -10 -8 0 -18 5 -21 10 -3 6 1 10 9 10 8
0 18 -4 21 -10z m23 -57 c-15 -2 -42 -2 -60 0 -18 2 -6 4 27 4 33 0 48 -2 33
-4z"/>
<path d="M1570 7539 c0 -30 0 -30 -51 -28 l-51 3 -1 -68 c-2 -66 -2 -67 23
-65 79 4 80 4 80 -57 0 -34 4 -53 10 -49 6 3 10 31 10 60 l0 54 51 -2 51 -2 2
63 2 62 -54 0 -54 0 6 30 c4 22 2 30 -9 30 -10 0 -15 -10 -15 -31z m-5 -94 c0
-39 -1 -40 -37 -43 l-37 -3 4 38 c2 21 4 42 4 46 1 5 16 7 34 5 30 -3 32 -5
32 -43z m108 28 c3 -10 4 -29 3 -43 -2 -22 -8 -25 -44 -28 l-42 -3 0 45 0 46
39 0 c29 0 41 -5 44 -17z"/>
<path d="M4305 7557 c-2 -6 -6 -23 -9 -37 -9 -39 -20 -50 -44 -43 -18 4 -22
12 -22 44 0 28 -4 39 -15 39 -11 0 -15 -12 -15 -46 0 -41 -2 -45 -20 -39 -11
4 -20 2 -20 -4 0 -6 9 -11 20 -11 17 0 20 -7 20 -45 0 -34 -5 -48 -20 -57 -11
-7 -20 -16 -20 -20 0 -15 31 -8 70 17 22 14 40 21 40 15 0 -6 28 -10 65 -10
66 0 78 7 50 30 -11 9 -18 10 -29 1 -8 -7 -38 -10 -70 -9 l-56 3 0 38 c0 25 4
37 14 37 8 0 16 -5 18 -12 2 -6 30 -13 61 -16 48 -4 57 -2 57 12 0 13 -8 15
-46 9 -45 -6 -46 -5 -35 15 10 18 21 22 61 22 l50 0 0 -64 c0 -36 -5 -77 -10
-92 -9 -23 -15 -26 -40 -20 -17 3 -30 1 -30 -4 0 -6 5 -10 12 -10 6 0 20 -8
30 -17 17 -15 19 -15 33 3 8 10 15 28 15 39 3 43 17 135 26 168 5 15 -2 17
-60 17 -61 0 -81 9 -56 25 15 9 12 22 -5 29 -9 3 -17 0 -20 -7z"/>
<path d="M4900 7562 c0 -6 -19 -29 -42 -52 -23 -22 -39 -40 -35 -40 11 0 58
30 85 54 12 11 22 14 22 8 0 -8 27 -12 85 -12 66 0 85 3 85 14 0 11 -15 13
-80 9 -68 -5 -83 -3 -100 12 -11 10 -20 13 -20 7z"/>
<path d="M3176 7552 c-3 -5 -39 -7 -81 -4 -52 3 -75 1 -75 -7 0 -6 12 -11 26
-11 l26 0 -7 -72 c-7 -71 -19 -101 -59 -145 -10 -13 -17 -26 -13 -29 6 -7 53
44 74 80 7 12 12 31 13 43 0 35 15 34 29 0 8 -18 20 -39 27 -48 12 -13 6 -19
-49 -47 -74 -37 -52 -43 29 -7 55 24 58 25 83 8 14 -9 31 -18 36 -19 6 -1 16
-3 24 -5 7 -2 15 1 18 7 2 6 -17 19 -42 28 -25 10 -45 22 -45 27 0 5 16 31 35
59 36 52 34 65 -11 54 -25 -6 -26 -5 -21 22 12 60 12 67 0 71 -6 2 -14 0 -17
-5z m0 -44 c-3 -13 -6 -29 -6 -36 0 -9 -13 -12 -40 -10 -38 2 -40 3 -40 35 0
33 1 33 46 33 43 0 46 -2 40 -22z m23 -98 c-11 -22 -26 -40 -34 -40 -12 0 -45
47 -45 64 0 5 23 10 66 13 l32 3 -19 -40z"/>
<path d="M4723 7549 c-7 -7 -47 -10 -112 -7 -64 2 -100 -1 -98 -7 2 -5 25 -11
52 -12 26 -1 49 -4 51 -5 1 -2 4 -28 5 -58 l3 -55 -65 0 c-82 -1 -84 -19 -1
-23 l62 -3 0 -54 c0 -30 5 -55 10 -55 6 0 10 25 10 55 l0 55 64 0 c68 0 86 9
61 30 -12 10 -18 10 -29 1 -8 -7 -32 -11 -53 -9 l-38 3 -3 58 -3 57 61 0 c52
0 61 3 58 17 -4 21 -20 27 -35 12z"/>
<path d="M5207 7554 c-3 -4 -2 -15 3 -25 9 -15 5 -18 -22 -21 l-33 -4 27 -12
c24 -10 26 -15 21 -49 -3 -21 -11 -63 -19 -94 -17 -70 -17 -74 0 -60 10 9 16
8 26 -4 7 -8 18 -15 25 -15 18 0 45 62 45 104 0 20 4 36 9 36 5 0 23 23 41 51
l31 51 29 -46 c16 -25 34 -46 39 -46 24 0 18 21 -14 54 -19 20 -35 41 -35 46
0 20 -2 25 -13 32 -20 13 -27 9 -27 -14 0 -30 -45 -104 -54 -90 -4 7 -19 9
-37 5 -27 -5 -31 -3 -27 13 2 15 13 20 46 22 36 3 41 6 32 18 -8 8 -21 12 -36
8 -17 -4 -24 -2 -24 9 0 17 -24 40 -33 31z m47 -172 c-7 -67 -13 -82 -35 -82
-18 0 -20 4 -14 28 3 15 9 43 12 62 11 66 43 59 37 -8z"/>
<path d="M5942 7538 c3 -20 -1 -23 -25 -21 -18 1 -27 -2 -24 -10 2 -6 12 -12
23 -12 10 0 19 -4 20 -10 0 -5 -7 -9 -18 -7 -16 3 -18 -4 -18 -59 0 -53 2 -60
15 -49 8 6 19 9 25 5 16 -10 1 -25 -26 -25 -13 0 -24 -4 -24 -10 0 -5 14 -10
31 -10 23 0 30 -4 28 -17 -3 -30 1 -43 11 -43 6 0 10 14 10 30 0 26 4 30 26
30 16 0 24 5 21 13 -2 6 -14 11 -26 10 -13 -2 -21 3 -21 13 0 11 6 13 20 9 18
-6 20 -2 20 50 0 52 -2 56 -20 50 -14 -4 -20 -2 -20 9 0 8 6 13 13 11 6 -3 19
-1 27 5 12 7 12 12 3 21 -9 9 -16 9 -29 -1 -14 -12 -16 -11 -12 10 2 17 -2 26
-15 28 -13 3 -16 -2 -15 -20z m6 -90 c-6 -18 -28 -21 -28 -4 0 9 7 16 16 16 9
0 14 -5 12 -12z m42 3 c0 -6 -4 -13 -10 -16 -5 -3 -10 1 -10 9 0 9 5 16 10 16
6 0 10 -4 10 -9z m-40 -47 c0 -17 -22 -14 -28 4 -2 7 3 12 12 12 9 0 16 -7 16
-16z m40 1 c0 -8 -4 -15 -10 -15 -5 0 -10 7 -10 15 0 8 5 15 10 15 6 0 10 -7
10 -15z"/>
<path d="M6080 7520 c0 -40 -2 -42 -25 -38 l-25 5 0 -108 c0 -66 4 -109 10
-109 6 0 10 7 10 15 0 23 76 20 89 -2 5 -10 12 -16 14 -13 3 3 6 52 8 110 l2
105 -27 -2 c-26 -2 -27 0 -24 35 2 29 -1 37 -15 40 -14 3 -17 -4 -17 -38z m0
-85 c0 -24 -5 -35 -15 -35 -15 0 -22 50 -8 63 15 15 23 5 23 -28z m58 -3 c2
-24 -1 -32 -12 -32 -12 0 -16 10 -16 36 0 45 24 42 28 -4z m-58 -87 c0 -24 -5
-35 -15 -35 -10 0 -15 11 -15 35 0 24 5 35 15 35 10 0 15 -11 15 -35z m60 0
c0 -24 -5 -35 -15 -35 -10 0 -15 11 -15 35 0 24 5 35 15 35 10 0 15 -11 15
-35z"/>
<path d="M6830 7546 c0 -12 -10 -16 -35 -16 -19 0 -35 -4 -35 -10 0 -5 16 -10
35 -10 24 0 35 -5 35 -14 0 -24 21 -30 27 -7 3 12 13 21 24 21 11 0 19 5 19
10 0 10 -14 14 -38 11 -7 -1 -11 3 -10 10 2 6 -3 14 -9 16 -7 3 -13 -2 -13
-11z"/>
<path d="M6936 7539 c-11 -13 -14 -24 -8 -28 5 -3 12 -15 15 -26 5 -19 5 -19
12 3 6 18 15 22 46 22 22 0 39 4 39 9 0 17 -16 21 -49 11 -29 -8 -31 -7 -26
11 8 25 -6 24 -29 -2z"/>
<path d="M8427 7553 c-4 -3 -7 -16 -8 -27 0 -21 0 -21 -16 2 -19 27 -33 29
-26 2 4 -14 0 -20 -11 -20 -9 0 -16 -4 -16 -10 0 -5 14 -10 31 -10 29 0 30 -1
24 -32 -9 -41 -30 -83 -62 -125 -15 -21 -19 -33 -11 -33 7 1 25 19 40 40 l28
40 85 0 85 0 0 -30 c0 -20 -7 -33 -22 -41 -13 -7 -24 -12 -25 -11 -2 1 -9 2
-15 2 -7 -1 0 -8 15 -16 27 -15 30 -14 48 5 11 12 19 35 19 55 0 19 5 38 10
41 17 10 0 26 -21 20 -16 -5 -19 -1 -19 29 0 28 -3 34 -16 29 -11 -4 -15 0
-14 13 4 39 1 42 -44 37 -43 -5 -44 -5 -39 21 5 24 -5 34 -20 19z m77 -78 c4
-12 -3 -15 -34 -15 -29 0 -40 4 -40 15 0 10 10 15 34 15 21 0 36 -6 40 -15z
m29 -41 c3 -3 3 -12 0 -20 -4 -10 -23 -14 -63 -14 -53 0 -58 2 -53 20 4 17 14
20 57 20 29 0 55 -3 59 -6z"/>
<path d="M8811 7536 c-5 -12 -27 -37 -48 -53 -21 -17 -35 -35 -31 -39 5 -4 16
0 26 9 21 19 126 24 137 7 7 -12 45 -14 45 -2 0 4 -17 16 -38 27 -20 11 -41
30 -47 42 -14 32 -34 36 -44 9z m37 -39 c3 -12 -4 -17 -23 -17 -23 0 -25 2
-15 21 13 23 33 21 38 -4z"/>
<path d="M9565 7550 c-4 -6 -56 -10 -133 -10 -108 -1 -124 -3 -109 -14 14 -11
17 -30 17 -120 0 -92 2 -108 18 -114 27 -11 227 -9 227 3 0 6 -21 9 -50 7 -27
-2 -78 -1 -112 3 l-63 7 0 104 0 104 120 0 c66 0 120 4 120 9 0 16 -28 33 -35
21z"/>
<path d="M9680 7515 c0 -33 -4 -45 -15 -45 -8 0 -15 -4 -15 -10 0 -5 7 -10 15
-10 23 0 21 -86 -2 -99 -13 -7 -15 -13 -7 -21 8 -8 18 -5 37 10 15 12 37 22
49 22 13 1 28 6 35 11 13 9 33 2 33 -12 0 -4 -18 -13 -40 -20 -23 -7 -40 -18
-40 -26 0 -19 5 -19 43 1 18 9 38 20 45 23 8 3 13 9 13 14 -1 4 -1 30 -1 57
l0 50 -45 0 c-25 0 -45 5 -45 10 0 6 -7 10 -16 10 -12 0 -15 7 -12 31 4 22 0
33 -14 40 -16 9 -18 5 -18 -36z m60 -99 c0 -21 -6 -36 -15 -40 -12 -4 -15 3
-15 34 0 29 4 40 15 40 10 0 15 -10 15 -34z m62 18 c3 -3 4 -14 1 -25 -8 -28
-33 -24 -33 6 0 23 18 34 32 19z"/>
<path d="M9840 7531 c0 -31 0 -31 -56 -31 -34 0 -53 -4 -49 -10 3 -5 28 -10
56 -10 47 0 49 -1 49 -29 0 -15 5 -42 11 -60 11 -30 9 -34 -27 -67 -22 -18
-45 -34 -51 -34 -7 0 -13 -4 -13 -10 0 -17 17 -11 62 20 40 27 44 28 55 12 41
-57 63 -58 63 -2 0 42 -16 56 -22 18 -3 -22 -4 -21 -21 6 -17 25 -17 29 -3 45
9 10 16 25 16 34 0 9 5 17 11 17 8 0 8 5 -1 15 -18 22 -30 19 -30 -7 0 -13 -5
-30 -10 -38 -8 -13 -10 -13 -10 1 0 9 -3 31 -6 48 -6 31 -6 31 35 31 47 0 51
8 18 38 -29 27 -40 28 -32 2 5 -14 2 -20 -10 -20 -11 0 -15 8 -13 26 2 15 -3
29 -9 31 -9 3 -13 -6 -13 -26z"/>
<path d="M8660 7408 c0 -116 2 -138 15 -138 11 0 15 11 15 36 0 30 3 34 19 29
11 -3 21 0 24 8 3 10 15 13 31 10 30 -6 33 -15 11 -33 -12 -10 -22 -50 -12
-50 1 0 27 7 57 15 49 13 56 13 66 0 14 -19 24 -19 24 -2 0 15 -33 57 -45 57
-4 0 -5 -7 -1 -15 3 -10 -1 -15 -12 -15 -9 0 -28 -3 -41 -7 -23 -6 -23 -6 -6
21 15 23 24 26 71 26 30 0 54 4 54 9 0 4 -31 6 -69 3 -84 -6 -121 2 -121 26 0
10 -7 28 -16 40 -15 21 -14 26 2 60 26 52 24 56 -23 57 l-43 1 0 -138z m49
100 c0 -7 -4 -22 -8 -33 -8 -19 -8 -19 -15 2 -8 24 -1 43 15 43 5 0 9 -6 8
-12z m6 -114 c4 -24 2 -33 -9 -37 -12 -5 -16 1 -17 26 0 18 -2 41 -4 51 -6 34
22 -5 30 -40z"/>
<path d="M9010 7497 c0 -46 1 -47 25 -41 15 4 25 2 25 -5 0 -6 -17 -11 -40
-11 -22 0 -40 -4 -40 -10 0 -5 7 -10 15 -10 10 0 15 -10 15 -29 0 -16 3 -36 6
-44 3 -9 -4 -25 -15 -36 -27 -27 -26 -33 3 -25 13 3 27 1 30 -5 4 -6 16 -11
26 -11 15 0 19 9 22 43 3 38 6 42 32 45 25 3 28 7 24 33 -4 23 -1 29 14 29 20
0 24 16 6 23 -7 2 -28 2 -45 -1 -20 -3 -33 0 -33 6 0 6 15 11 33 11 17 -1 44
3 58 9 27 11 79 54 79 66 0 16 -26 3 -64 -31 l-41 -38 -3 40 -3 40 -64 0 -65
0 0 -48z m83 16 c-13 -2 -33 -2 -45 0 -13 2 -3 4 22 4 25 0 35 -2 23 -4z m0
-30 c-13 -2 -33 -2 -45 0 -13 2 -3 4 22 4 25 0 35 -2 23 -4z m5 -70 c-16 -2
-40 -2 -55 0 -16 2 -3 4 27 4 30 0 43 -2 28 -4z m12 -33 c0 -5 -18 -10 -40
-10 -22 0 -40 5 -40 10 0 6 18 10 40 10 22 0 40 -4 40 -10z m-50 -50 c0 -20
-5 -30 -15 -30 -17 0 -20 16 -5 25 8 5 7 11 -1 21 -9 11 -8 14 5 14 11 0 16
-9 16 -30z"/>
<path d="M11364 7514 c-31 -33 -34 -40 -34 -101 0 -55 4 -71 28 -104 25 -36
52 -51 52 -29 0 6 -4 10 -8 10 -18 0 -52 79 -52 120 0 47 11 73 48 113 15 16
20 27 13 27 -8 0 -29 -16 -47 -36z"/>
<path d="M11522 7479 c-19 -39 -32 -73 -29 -76 3 -2 10 5 17 16 19 36 25 23
26 -49 0 -42 5 -75 13 -83 14 -14 199 -24 211 -10 10 10 1 73 -10 73 -5 0 -10
-12 -12 -27 -3 -27 -5 -28 -68 -31 -95 -5 -110 1 -110 43 0 35 0 35 45 35 29
0 47 -5 53 -15 4 -9 21 -17 38 -18 29 -2 29 -2 35 68 4 39 9 77 10 85 3 12
-10 14 -83 11 -57 -2 -88 1 -88 7 0 6 5 14 10 17 6 4 8 11 5 16 -14 21 -32 4
-63 -62z m188 -46 c0 -64 -9 -86 -31 -78 -10 4 -13 19 -10 56 l3 50 -35 -6
c-20 -4 -50 -4 -67 0 -25 6 -29 9 -19 21 8 10 34 14 85 14 l74 0 0 -57z m-70
-25 c0 -26 -3 -28 -40 -28 -38 0 -40 2 -40 30 0 29 2 30 40 28 36 -3 40 -6 40
-30z"/>
<path d="M11860 7515 c0 -32 -2 -36 -20 -30 -11 4 -20 2 -20 -4 0 -6 9 -11 20
-11 16 0 20 -7 20 -35 0 -28 -4 -35 -20 -35 -12 0 -20 -7 -20 -16 0 -12 6 -15
21 -11 18 5 20 1 17 -36 -2 -34 -7 -41 -20 -39 -28 5 -21 -15 7 -22 39 -10 45
0 45 64 0 42 4 59 15 64 8 3 15 10 15 15 0 6 -7 8 -15 5 -11 -5 -15 1 -15 20
0 19 5 26 20 26 11 0 20 5 20 10 0 6 14 10 30 10 20 0 30 -5 30 -15 0 -11 -11
-15 -40 -15 -22 0 -40 -4 -40 -10 0 -5 18 -10 40 -10 38 0 40 -2 40 -30 0 -23
-4 -30 -20 -30 -11 0 -20 5 -20 10 0 6 -4 10 -10 10 -6 0 -10 -29 -10 -66 0
-56 2 -65 16 -60 9 3 45 6 80 6 l64 0 0 54 c0 52 -11 78 -25 56 -3 -5 -15 -10
-26 -10 -14 0 -19 7 -19 30 0 29 2 30 46 30 32 0 44 4 41 13 -3 7 -19 11 -46
9 -39 -2 -42 -1 -39 20 2 15 13 25 36 32 17 5 32 13 32 17 0 14 -42 10 -70 -6
-14 -8 -39 -14 -55 -15 -17 0 -41 -7 -54 -16 -23 -16 -23 -16 -19 17 2 26 -1
34 -14 37 -15 3 -18 -4 -18 -33z m200 -182 l0 -33 -55 0 c-54 0 -55 1 -55 28
0 16 2 31 5 33 2 3 27 5 55 5 50 0 50 0 50 -33z"/>
<path d="M12185 7520 c17 -33 35 -40 35 -14 0 16 -27 43 -43 44 -4 0 -1 -13 8
-30z"/>
<path d="M12295 7540 c-3 -5 -12 -7 -20 -3 -12 4 -15 -5 -15 -41 0 -56 -16
-85 -42 -78 -18 4 -18 6 -2 24 11 11 14 22 8 27 -11 11 -76 2 -69 -10 3 -4 13
-5 22 -2 12 5 15 2 11 -8 -20 -52 -20 -59 1 -59 30 0 26 -23 -9 -60 -16 -18
-30 -36 -30 -40 0 -18 22 -21 34 -5 12 16 15 16 44 1 34 -18 202 -23 202 -7 0
5 -11 11 -25 13 -24 3 -24 4 -11 31 8 15 12 27 8 28 -4 0 4 5 18 11 l25 10
-22 11 c-30 13 -29 23 4 32 24 6 26 8 10 16 -9 6 -22 7 -28 3 -7 -4 -9 0 -6
12 3 11 7 35 9 54 l3 35 -42 -3 c-26 -2 -43 1 -43 7 0 14 -27 15 -35 1z m63
-27 c-16 -2 -40 -2 -55 0 -16 2 -3 4 27 4 30 0 43 -2 28 -4z m0 -30 c-16 -2
-40 -2 -55 0 -16 2 -3 4 27 4 30 0 43 -2 28 -4z m0 -20 c-16 -2 -40 -2 -55 0
-16 2 -3 4 27 4 30 0 43 -2 28 -4z m-38 -17 c0 -2 -9 -6 -20 -9 -11 -3 -20 -1
-20 4 0 5 9 9 20 9 11 0 20 -2 20 -4z m70 -4 c0 -11 -39 -12 -45 -1 -4 5 5 9
19 9 14 0 26 -4 26 -8z m-112 -42 c-7 -11 -18 -20 -25 -20 -7 0 -13 -4 -13
-10 0 -5 11 -10 25 -10 31 0 32 -11 1 -37 -16 -14 -28 -18 -39 -12 -22 13 -2
71 32 92 33 21 34 21 19 -3z m62 10 c13 -8 12 -10 -2 -10 -10 0 -18 -4 -18
-10 0 -5 -9 -10 -20 -10 -19 0 -19 1 -2 19 20 23 23 24 42 11z m27 -26 c-3 -3
-12 -4 -19 -1 -8 3 -5 6 6 6 11 1 17 -2 13 -5z m13 -26 c0 -4 -15 -8 -32 -8
-20 0 -28 3 -21 8 16 10 53 10 53 0z m-5 -28 c-3 -5 -18 -10 -33 -10 -25 0
-25 -1 -6 -15 17 -13 15 -14 -31 -14 l-50 0 30 24 c29 24 103 37 90 15z"/>
<path d="M12532 7480 c3 -63 4 -65 28 -61 24 3 25 3 7 -17 -10 -11 -32 -26
-48 -32 -16 -7 -29 -16 -29 -21 0 -4 16 -1 35 7 45 18 45 18 45 -9 0 -25 -22
-49 -52 -60 -27 -10 -22 -30 5 -21 53 17 77 57 81 134 1 12 15 15 64 14 l62 0
0 47 c0 26 3 54 6 63 5 12 -11 15 -101 18 l-106 3 3 -65z m86 23 c2 -9 -7 -13
-27 -13 -21 0 -31 5 -31 16 0 19 51 16 58 -3z m92 2 c0 -10 -11 -15 -35 -15
-33 0 -43 8 -28 23 13 14 63 7 63 -8z m-90 -50 c0 -10 -10 -15 -30 -15 -20 0
-30 5 -30 15 0 10 10 15 30 15 20 0 30 -5 30 -15z m90 0 c0 -10 -11 -15 -35
-15 -24 0 -35 5 -35 15 0 10 11 15 35 15 24 0 35 -5 35 -15z"/>
<path d="M12914 7525 c-5 -22 -12 -25 -50 -25 -24 0 -44 -4 -44 -10 0 -5 18
-10 40 -10 22 0 40 -3 40 -6 0 -12 -44 -79 -64 -97 -26 -23 -13 -34 18 -13
l25 16 -2 -55 c-2 -40 0 -55 10 -55 10 0 13 22 13 85 0 50 4 85 10 85 6 0 10
9 10 20 0 17 7 20 38 20 l39 0 -6 -37 c-6 -35 -9 -38 -39 -38 -42 0 -42 -13 1
-17 31 -3 32 -5 35 -50 l3 -48 -40 0 c-23 0 -41 -3 -41 -7 0 -9 186 -11 194
-2 4 3 -1 12 -9 19 -12 10 -19 10 -27 2 -18 -18 -46 -14 -50 6 -2 9 -2 32 1
50 3 31 6 34 33 30 32 -5 47 7 29 25 -8 8 -14 8 -23 -1 -28 -28 -56 6 -36 42
6 11 5 16 -4 18 -7 0 10 4 37 7 80 10 50 26 -39 22 l-79 -3 7 26 c5 19 3 26
-9 26 -8 0 -17 -11 -21 -25z"/>
<path d="M13270 7540 c-12 -8 -12 -10 3 -16 9 -3 17 -12 17 -20 0 -18 -81 -19
-98 -2 -9 9 -12 -15 -12 -110 0 -75 4 -122 10 -122 6 0 10 42 10 105 l0 105
45 0 c25 0 45 -3 45 -8 0 -11 -28 -52 -58 -84 -19 -21 -22 -28 -11 -28 16 0
49 32 66 63 8 16 13 14 36 -22 16 -24 35 -41 46 -41 21 0 30 -16 23 -42 -3
-11 -14 -18 -31 -18 -25 -1 -25 -1 -7 -15 11 -8 28 -15 37 -15 15 0 18 14 21
113 4 106 -1 142 -16 118 -4 -6 -28 -11 -52 -11 -45 0 -46 0 -39 30 7 32 -5
39 -35 20z m121 -67 c0 -5 2 -27 4 -50 5 -64 -30 -54 -73 20 l-21 37 44 0 c25
0 45 -3 46 -7z"/>
<path d="M13557 7518 c65 -70 63 -160 -4 -222 -26 -24 -26 -26 -7 -26 59 0
105 133 72 207 -16 35 -56 73 -76 73 -11 0 -7 -10 15 -32z"/>
<path d="M13920 7519 l0 -31 -52 4 -53 4 1 -63 c1 -69 6 -82 28 -64 8 7 27 11
43 9 27 -3 28 -6 31 -60 2 -32 7 -58 12 -58 5 0 10 26 12 58 l3 57 50 -1 50
-1 0 61 0 62 -54 -4 -54 -5 6 32 c5 23 3 31 -8 31 -10 0 -15 -10 -15 -31z m0
-90 l0 -40 -37 3 c-36 3 -38 5 -41 41 l-3 37 40 0 41 0 0 -41z m108 4 c-3 -37
-4 -38 -45 -41 l-43 -3 0 40 0 41 46 0 45 0 -3 -37z"/>
<path d="M14165 7521 c-4 -20 -11 -28 -21 -24 -12 4 -14 -13 -14 -101 0 -97 7
-125 26 -95 4 7 21 9 45 5 l39 -6 0 59 c0 38 5 65 14 73 8 8 15 23 18 34 2 14
13 20 42 22 23 2 42 -2 47 -9 10 -16 -1 -161 -13 -176 -6 -8 -21 -10 -37 -7
-25 6 -25 6 -6 -9 24 -20 49 -21 62 -4 6 6 16 54 22 106 6 51 13 98 14 105 1
7 -17 10 -56 8 -58 -4 -58 -4 -51 22 4 19 2 26 -8 26 -9 0 -20 -20 -28 -52 -9
-33 -15 -45 -18 -33 -7 42 -12 49 -24 37 -7 -7 -18 -12 -26 -12 -12 0 -12 4 1
24 15 22 15 25 1 30 -22 9 -22 9 -29 -23z m43 -74 c3 -23 0 -27 -21 -27 -36 0
-52 45 -19 53 28 7 37 2 40 -26z m2 -82 c0 -32 -3 -35 -27 -35 -25 0 -28 3
-26 32 1 18 2 34 2 36 1 1 12 2 26 2 22 0 25 -4 25 -35z"/>
<path d="M266 7524 c-10 -27 -7 -39 6 -26 19 19 46 14 53 -9 5 -15 1 -25 -15
-36 l-21 -15 21 -15 c14 -10 20 -23 18 -41 -3 -24 -7 -27 -40 -25 -28 2 -38
-2 -38 -12 0 -11 11 -15 39 -15 31 0 44 6 60 26 25 32 26 51 4 76 -14 15 -14
22 -4 42 20 36 0 66 -43 66 -22 0 -36 -6 -40 -16z"/>
<path d="M432 7503 l-19 -38 36 -20 c31 -18 36 -26 36 -55 0 -34 -1 -35 -37
-33 -28 2 -38 -2 -38 -12 0 -10 11 -15 33 -15 67 0 103 85 55 130 -12 11 -28
20 -35 20 -7 0 -13 4 -13 9 0 11 25 21 51 21 10 0 19 7 19 15 0 10 -10 15 -34
15 -29 0 -37 -5 -54 -37z"/>
<path d="M2374 7497 c-1 -55 -31 -144 -52 -157 -13 -7 -7 -9 25 -10 42 0 42 1
37 29 -9 44 10 69 53 73 48 4 74 42 55 82 -10 23 -17 26 -64 26 l-53 0 -1 -43z
m90 7 c8 -21 -9 -51 -35 -59 -28 -9 -30 -5 -18 38 11 39 41 52 53 21z"/>
<path d="M2570 7508 c-63 -59 -75 -123 -30 -168 19 -19 19 -19 -7 -40 -14 -11
-24 -23 -21 -26 4 -3 40 -6 82 -7 59 -2 79 2 92 15 10 10 14 21 10 25 -5 5
-11 2 -13 -4 -5 -14 -113 -19 -113 -5 0 16 25 32 51 32 58 0 113 102 92 173
-8 30 -12 32 -58 35 -44 2 -54 -1 -85 -30z m97 14 c38 -24 6 -143 -45 -168
-78 -38 -98 66 -28 141 33 35 50 41 73 27z"/>
<path d="M3620 7525 c-23 -27 -14 -73 19 -104 35 -33 40 -67 12 -76 -28 -9
-51 5 -51 31 0 34 -16 30 -29 -7 -16 -45 -16 -44 37 -43 66 1 69 2 86 20 25
24 19 51 -20 94 -37 41 -42 75 -10 75 10 0 24 -9 30 -20 6 -11 12 -22 14 -25
6 -8 22 25 22 45 0 17 -8 20 -49 23 -34 2 -52 -2 -61 -13z"/>
<path d="M3770 7531 c0 -5 5 -11 12 -13 16 -6 -26 -159 -49 -175 -14 -11 -11
-13 25 -13 33 0 40 3 36 15 -10 25 5 85 21 85 9 0 15 -9 15 -22 0 -29 36 -88
53 -88 24 0 26 12 7 39 -29 42 -34 70 -13 78 10 4 23 14 30 22 33 43 -6 81
-82 81 -30 0 -55 -4 -55 -9z m104 -33 c12 -20 -4 -41 -42 -53 -21 -6 -22 -4
-17 22 11 49 15 55 31 51 9 -2 22 -11 28 -20z"/>
<path d="M7383 7525 c-23 -16 -53 -93 -53 -134 1 -37 34 -106 61 -124 32 -23
34 -15 4 28 -21 31 -25 49 -25 106 0 57 4 72 25 97 36 44 31 57 -12 27z"/>
<path d="M7950 7533 c0 -4 10 -18 23 -31 19 -21 22 -34 22 -107 0 -74 -3 -86
-24 -109 -29 -30 -24 -42 7 -20 55 38 78 144 46 206 -22 43 -74 85 -74 61z"/>
<path d="M10262 7510 c12 -19 -24 -150 -47 -174 -23 -22 -18 -27 23 -23 25 2
36 8 34 17 -2 8 -1 29 3 47 5 30 9 33 40 33 41 0 75 29 75 64 0 33 -17 43 -81
48 -50 4 -56 3 -47 -12z m92 -22 c8 -13 6 -22 -8 -37 -21 -23 -58 -29 -52 -8
3 6 7 25 11 40 6 31 30 34 49 5z"/>
<path d="M10495 7516 c-50 -22 -77 -60 -83 -115 -4 -41 -1 -52 18 -71 l22 -22
-25 -22 -26 -22 60 -13 c54 -11 64 -10 91 6 17 10 34 25 36 33 4 11 0 11 -22
-3 -19 -13 -34 -15 -56 -10 -36 10 -43 27 -13 31 12 2 40 20 63 40 35 32 42
44 47 88 5 45 3 54 -18 72 -26 25 -51 27 -94 8z m76 -27 c16 -32 -7 -103 -43
-134 -35 -29 -56 -32 -74 -7 -19 24 -17 49 6 97 30 62 89 85 111 44z"/>
<path d="M10848 7516 c-29 -21 -22 -64 17 -107 19 -22 35 -43 35 -48 0 -12
-29 -41 -40 -41 -16 0 -40 31 -40 51 0 10 -4 19 -10 19 -5 0 -10 -10 -10 -22
0 -13 -5 -30 -10 -38 -7 -11 -14 -4 -30 33 -12 27 -20 49 -18 50 35 18 43 28
46 57 4 41 -9 50 -73 50 l-51 0 4 -33 c2 -18 -3 -51 -12 -71 -9 -21 -16 -47
-16 -58 0 -10 -7 -21 -15 -24 -27 -11 -16 -24 19 -24 30 0 35 3 34 23 -1 12
-1 35 0 50 3 45 32 30 50 -25 l15 -47 71 0 c120 1 151 47 81 121 -38 40 -44
62 -19 72 23 9 23 9 43 -25 l19 -31 12 37 c13 40 8 54 -14 36 -10 -8 -16 -9
-21 -1 -9 14 -46 12 -67 -4z m-98 -20 c0 -2 3 -11 6 -19 7 -18 -21 -47 -46
-47 -16 0 -17 4 -7 35 7 23 16 35 29 35 10 0 18 -2 18 -4z"/>
<path d="M4710 7495 c0 -9 -10 -29 -22 -45 -29 -40 -13 -53 18 -15 13 17 30
38 38 47 16 19 11 28 -16 28 -10 0 -18 -7 -18 -15z"/>
<path d="M4901 7487 c-5 -13 -27 -41 -48 -61 -21 -20 -33 -36 -26 -36 6 0 15
5 18 10 16 26 25 4 25 -60 0 -40 4 -70 10 -70 6 0 10 35 10 84 0 81 1 85 30
110 29 24 30 25 10 36 -17 9 -22 7 -29 -13z"/>
<path d="M9420 7465 c0 -43 11 -58 26 -34 4 7 22 9 44 6 37 -5 38 -4 42 29 2
19 2 37 -1 39 -2 3 -28 5 -58 5 l-53 0 0 -45z m88 3 c3 -15 -4 -18 -32 -18
-34 0 -47 15 -29 34 13 13 58 1 61 -16z"/>
<path d="M4532 7493 c38 -80 58 -103 58 -67 0 20 -38 74 -52 74 -5 0 -8 -3 -6
-7z"/>
<path d="M5083 7469 c-7 -7 -38 -10 -82 -7 -55 3 -71 1 -71 -10 0 -9 11 -13
33 -12 81 5 78 7 75 -62 l-3 -63 -35 -6 c-30 -5 -32 -7 -15 -14 11 -5 23 -13
27 -19 5 -8 13 -8 25 0 14 9 19 27 21 88 l3 76 30 0 c23 0 30 4 27 17 -4 21
-20 27 -35 12z"/>
<path d="M6863 7459 c-5 -17 -12 -20 -54 -18 -83 5 -70 -15 16 -23 l30 -3 -52
-52 c-52 -54 -54 -69 -2 -32 l29 20 0 -38 0 -38 83 3 c45 2 87 5 92 6 6 2 9
24 7 50 l-4 46 -75 -1 c-41 -1 -76 1 -78 3 -3 3 1 12 8 22 10 14 28 18 95 18
61 0 82 4 82 14 0 19 -19 27 -35 14 -7 -6 -38 -10 -71 -8 -55 3 -57 4 -40 21
17 16 16 17 -4 17 -14 0 -24 -8 -27 -21z m117 -129 l0 -30 -60 0 c-41 0 -60 4
-61 13 0 6 -2 20 -4 30 -3 15 5 17 61 17 l64 0 0 -30z"/>
<path d="M9193 7424 c-27 -28 -37 -44 -27 -44 8 0 22 6 30 14 7 8 26 24 40 35
14 11 23 25 19 31 -10 16 -17 12 -62 -36z"/>
<path d="M1890 7446 c0 -8 5 -18 10 -21 7 -4 7 -13 0 -26 -16 -29 5 -23 25 7
9 14 14 32 11 40 -7 18 -46 18 -46 0z"/>
<path d="M5620 7450 c0 -5 7 -10 15 -10 9 0 20 -12 26 -26 11 -31 -11 -64 -43
-64 -27 0 -17 -24 11 -28 16 -3 24 3 28 18 l6 23 18 -24 c15 -19 22 -22 35
-13 24 14 32 39 10 31 -11 -5 -18 1 -22 18 -7 27 10 55 32 55 8 0 14 7 14 15
0 20 -37 19 -48 -1 -8 -15 -10 -15 -15 0 -7 18 -67 23 -67 6z"/>
<path d="M7460 7451 c0 -5 7 -12 16 -15 24 -9 15 -80 -11 -84 -28 -5 -36 -15
-24 -32 8 -13 13 -11 34 13 27 30 35 33 35 15 0 -7 4 -20 10 -28 7 -12 12 -12
29 4 23 21 30 46 8 28 -20 -17 -39 38 -22 62 7 9 19 15 26 14 7 -2 15 5 17 15
5 24 -17 21 -45 -5 l-23 -21 0 21 c0 17 -6 22 -25 22 -14 0 -25 -4 -25 -9z"/>
<path d="M7800 7452 c0 -6 7 -13 15 -16 13 -5 15 -20 13 -73 -3 -66 -4 -68
-30 -71 -20 -2 -28 -9 -28 -23 0 -50 60 -5 137 104 26 37 34 78 16 84 -9 3
-13 -5 -13 -24 0 -16 -8 -40 -17 -53 l-17 -24 -11 49 c-9 44 -13 50 -38 53
-15 2 -27 -1 -27 -6z"/>
<path d="M8817 7453 c-67 -5 -68 -23 -2 -23 35 0 43 -3 39 -15 -4 -10 -20 -15
-50 -15 -24 0 -44 -4 -44 -10 0 -6 33 -10 80 -10 44 0 80 4 80 9 0 12 -29 23
-42 15 -6 -4 -6 2 1 14 13 24 14 43 4 40 -5 -1 -34 -3 -66 -5z"/>
<path d="M6334 7436 c-10 -26 1 -51 22 -54 27 -4 47 21 39 48 -7 24 -53 28
-61 6z m43 -11 c7 -20 -2 -29 -21 -22 -9 4 -13 13 -10 22 8 19 23 19 31 0z"/>
<path d="M5330 7436 c0 -11 52 -56 65 -56 26 0 0 36 -35 48 -16 6 -30 10 -30
8z"/>
<path d="M14280 7421 c0 -5 7 -14 15 -21 8 -7 15 -19 15 -26 0 -8 4 -14 9 -14
20 0 20 19 0 44 -20 26 -39 34 -39 17z"/>
<path d="M9378 7372 c-2 -24 -1 -45 2 -46 3 -2 24 -1 48 2 l43 4 -3 41 c-3 39
-3 40 -45 41 l-41 1 -4 -43z m62 -2 c0 -13 -7 -20 -20 -20 -13 0 -20 7 -20 20
0 13 7 20 20 20 13 0 20 -7 20 -20z"/>
<path d="M9487 7403 c-9 -9 -9 -71 1 -76 4 -2 26 -2 50 1 41 4 42 5 42 43 l0
39 -43 0 c-24 0 -47 -3 -50 -7z m73 -33 c0 -15 -7 -20 -25 -20 -18 0 -25 5
-25 20 0 15 7 20 25 20 18 0 25 -5 25 -20z"/>
<path d="M12667 7403 c-11 -10 -8 -143 3 -143 6 0 10 24 10 53 0 30 3 56 6 59
3 3 19 -1 35 -9 16 -8 37 -12 47 -8 14 6 11 9 -13 18 -16 5 -39 16 -50 23 -22
16 -29 17 -38 7z"/>
<path d="M9200 7338 c-47 -44 -55 -47 -61 -31 -8 23 -37 48 -45 40 -3 -3 1
-16 9 -28 9 -11 13 -28 10 -35 -9 -25 31 -15 85 21 28 20 52 40 52 45 0 6 7
10 15 10 18 0 20 16 2 23 -7 3 -37 -18 -67 -45z"/>
<path d="M569 7368 c-7 -32 -5 -38 13 -38 13 0 18 6 16 17 -2 14 -26 32 -29
21z"/>
<path d="M8430 7341 c0 -27 15 -49 26 -39 7 8 -8 68 -17 68 -5 0 -9 -13 -9
-29z"/>
<path d="M8478 7358 c7 -7 12 -20 12 -30 0 -10 5 -18 10 -18 6 0 10 8 10 18 0
20 -18 42 -34 42 -6 0 -5 -5 2 -12z"/>
<path d="M8532 7351 c16 -25 31 -27 26 -4 -2 10 -11 19 -21 21 -16 3 -17 1 -5
-17z"/>
<path d="M8387 7329 c-10 -18 -16 -33 -14 -35 7 -8 35 22 42 44 9 32 -7 27
-28 -9z"/>
<path d="M5320 7340 c0 -5 5 -10 10 -10 6 0 20 -11 32 -25 12 -14 28 -25 35
-25 23 0 14 30 -12 42 -14 6 -25 15 -25 20 0 4 -9 8 -20 8 -11 0 -20 -4 -20
-10z"/>
<path d="M7630 7336 c0 -8 8 -17 18 -21 16 -6 16 -7 -2 -21 -23 -17 -12 -33
12 -18 9 6 18 25 20 43 3 27 0 31 -22 31 -16 0 -26 -6 -26 -14z"/>
<path d="M1513 7113 l-63 -4 0 -54 c0 -55 0 -55 31 -55 19 0 28 -4 24 -11 -4
-5 -17 -9 -28 -8 -35 2 -43 -1 -27 -11 8 -5 26 -10 38 -10 15 0 22 -5 19 -12
-2 -7 -16 -13 -30 -13 -15 1 -27 -3 -27 -7 0 -4 32 -8 70 -8 59 0 70 -3 70
-17 0 -13 -3 -14 -12 -5 -13 13 -28 16 -28 5 0 -5 11 -21 25 -37 20 -23 28
-27 37 -18 7 7 32 12 58 12 l45 0 -1 57 c-1 55 -3 58 -24 55 -27 -3 -40 12
-33 39 4 13 14 19 35 19 23 0 29 4 26 18 -4 18 -10 19 -42 6 -17 -7 -19 -4
-13 29 5 32 3 37 -14 37 -18 0 -20 -6 -19 -62 1 -35 1 -69 1 -75 -1 -14 -51
-14 -51 0 0 5 -11 6 -25 3 -14 -4 -25 -2 -25 4 0 5 11 10 25 10 24 0 25 3 25
60 0 33 -1 59 -2 58 -2 -1 -31 -3 -65 -5z m-3 -43 c0 -19 -1 -19 -20 -3 -11
10 -20 19 -20 20 0 2 9 3 20 3 13 0 20 -7 20 -20z m60 -25 c0 -18 -5 -25 -20
-25 -25 0 -25 8 -2 31 22 23 22 23 22 -6z m-87 -5 c3 -11 1 -20 -4 -20 -5 0
-9 9 -9 20 0 11 2 20 4 20 2 0 6 -9 9 -20z m107 -93 c0 -6 -3 -7 -6 -4 -4 3
-15 2 -25 -3 -19 -10 -35 2 -25 19 7 11 56 1 56 -12z m98 -34 c3 -32 2 -33
-37 -33 -40 0 -41 1 -41 36 0 35 1 35 38 32 34 -3 37 -6 40 -35z"/>
<path d="M2170 7015 c0 -69 4 -105 11 -105 6 0 0 -17 -12 -37 -21 -34 -21 -36
-4 -23 11 8 32 27 46 43 22 24 32 28 53 23 23 -6 26 -3 27 21 0 16 1 61 3 101
3 72 -5 95 -27 73 -14 -14 -64 -14 -72 -1 -18 28 -25 0 -25 -95z m100 55 c0
-17 -7 -20 -40 -20 -33 0 -40 3 -40 20 0 17 7 20 40 20 33 0 40 -3 40 -20z
m-2 -58 c3 -21 0 -23 -35 -20 -41 3 -59 32 -26 41 36 10 58 2 61 -21z m0 -55
c3 -14 -4 -17 -37 -17 -35 0 -41 3 -41 21 0 18 5 20 37 17 26 -3 39 -9 41 -21z"/>
<path d="M2390 7000 l0 -120 -25 0 c-14 0 -25 -3 -25 -7 0 -11 51 -33 61 -27
5 3 9 61 9 130 0 76 4 124 10 124 6 0 10 5 10 10 0 6 -9 10 -20 10 -19 0 -20
-7 -20 -120z"/>
<path d="M4250 7114 c0 -3 5 -14 10 -25 10 -17 7 -19 -20 -19 -16 0 -30 -4
-30 -10 0 -5 9 -10 19 -10 18 0 19 -5 14 -72 -3 -40 -12 -84 -20 -96 -20 -32
-6 -42 17 -12 10 13 21 48 25 77 4 36 11 53 21 53 11 0 14 -15 14 -65 0 -63
-1 -65 -26 -65 -22 0 -25 -2 -14 -15 29 -35 63 4 62 72 0 24 10 42 39 73 21
22 39 48 39 57 0 13 3 13 15 3 8 -7 15 -16 15 -21 0 -17 46 -57 58 -50 9 5 0
21 -28 51 -22 24 -39 50 -38 58 5 28 -22 24 -33 -5 -34 -84 -39 -89 -80 -85
-30 3 -39 8 -39 23 0 15 7 19 40 19 22 0 40 4 40 9 0 13 -27 21 -45 15 -8 -4
-15 -1 -15 6 0 6 -6 18 -14 26 -15 15 -26 18 -26 8z"/>
<path d="M5410 7041 c0 -45 -3 -81 -7 -81 -5 0 -20 6 -35 14 -15 8 -36 12 -48
9 -11 -3 -20 0 -20 6 0 6 14 11 30 11 30 0 30 1 30 53 l0 53 -67 -2 -68 -3 -1
-43 c-1 -58 3 -66 32 -60 14 2 24 0 24 -7 0 -6 -13 -11 -30 -11 -16 0 -30 -4
-30 -10 0 -5 14 -10 30 -10 20 0 30 -5 30 -15 0 -11 -11 -15 -37 -15 -33 -1
-36 -2 -21 -14 15 -11 15 -15 2 -40 -17 -35 -17 -36 0 -36 16 0 26 21 26 52 0
27 8 19 13 -12 2 -13 10 -26 17 -28 10 -4 11 3 7 27 -4 18 -2 31 3 31 6 0 9
-3 9 -7 -4 -22 2 -43 12 -43 7 0 9 10 5 25 -4 15 -2 25 4 25 6 0 9 -3 6 -8 -6
-11 22 -47 31 -38 4 4 2 16 -5 26 -10 17 -10 20 3 20 11 0 15 -11 15 -40 0
-38 14 -54 22 -27 3 7 23 12 53 12 l48 0 2 58 1 58 -28 -6 c-27 -6 -28 -5 -28
29 0 33 2 36 30 36 30 0 40 13 19 26 -6 3 -16 1 -22 -5 -20 -20 -29 -11 -25
26 2 30 -1 38 -15 41 -15 3 -17 -6 -17 -77z m-97 34 c-3 -9 -8 -14 -10 -11 -3
3 -2 9 2 15 9 16 15 13 8 -4z m-33 -12 c0 -10 -4 -14 -8 -8 -4 6 -11 13 -16
18 -5 4 -2 7 7 7 10 0 17 -8 17 -17z m56 -38 c-7 -18 -26 -20 -26 -2 0 18 24
41 28 27 2 -6 1 -17 -2 -25z m-62 -7 c7 -5 4 -8 -6 -8 -12 0 -18 7 -17 23 0
15 2 17 6 7 3 -8 11 -18 17 -22z m96 -68 c0 -5 -6 -10 -14 -10 -8 0 -21 -3
-30 -6 -10 -4 -16 -1 -16 8 0 8 12 15 30 16 17 1 30 -2 30 -8z m90 -44 c0 -32
-2 -34 -35 -33 -33 1 -35 3 -35 34 0 31 2 33 35 33 33 0 35 -2 35 -34z"/>
<path d="M5714 7104 c5 -13 0 -16 -29 -12 -24 3 -35 0 -35 -9 0 -8 13 -13 35
-13 23 0 35 -5 35 -14 0 -11 -19 -14 -81 -14 -83 -1 -111 -8 -71 -19 18 -4 21
-10 16 -27 -4 -11 -11 -26 -16 -33 -5 -7 -5 -14 1 -17 5 -4 12 -2 16 4 11 17
25 11 25 -10 0 -12 -11 -32 -25 -46 -24 -24 -34 -64 -16 -64 5 0 13 9 16 20 5
14 13 19 28 15 89 -20 117 -25 153 -25 22 0 49 7 60 15 17 13 15 14 -33 15
-40 0 -53 4 -53 15 0 11 12 15 46 15 32 0 44 4 41 13 -2 8 -20 11 -50 9 -29
-2 -47 0 -47 7 0 6 18 11 41 11 24 0 38 4 34 10 -3 6 -22 10 -42 10 -20 0 -33
3 -30 7 4 4 25 6 47 6 46 -1 60 11 32 26 -13 7 -22 7 -30 -1 -7 -7 -12 -8 -12
-2 0 16 21 33 35 28 17 -7 30 15 17 28 -8 8 -15 8 -26 -1 -17 -14 -61 -11 -61
4 0 6 17 11 37 13 27 2 35 7 32 17 -4 10 -15 12 -35 8 -24 -5 -28 -3 -23 11 5
12 0 16 -16 16 -16 0 -20 -4 -16 -16z m-36 -97 c3 -15 0 -18 -18 -12 -15 5
-20 4 -16 -4 4 -6 23 -11 42 -11 19 0 34 -4 34 -10 0 -5 -16 -10 -35 -10 -19
0 -35 -4 -35 -10 0 -5 16 -10 35 -10 19 0 35 -4 35 -10 0 -5 -18 -10 -40 -10
-22 0 -40 -4 -40 -10 0 -5 16 -10 35 -10 26 0 35 -4 35 -16 0 -14 -7 -15 -42
-10 -56 9 -61 14 -43 39 8 12 15 32 15 45 0 19 -4 22 -20 17 -16 -5 -19 -3
-13 12 16 46 64 59 71 20z m70 5 c-5 -24 -31 -26 -45 -4 -10 17 -8 19 18 20
23 0 29 -3 27 -16z"/>
<path d="M6410 7095 c0 -23 -4 -25 -46 -25 -41 0 -45 2 -39 20 5 16 2 20 -14
20 -14 0 -21 -6 -21 -20 0 -16 -7 -20 -30 -20 -16 0 -30 -4 -30 -10 0 -5 14
-10 30 -10 l30 0 0 -60 0 -60 -35 0 c-19 0 -35 -4 -35 -10 0 -6 57 -10 151
-10 130 0 150 2 140 14 -8 10 -23 13 -46 9 l-34 -5 0 43 c0 67 6 79 41 79 19
0 28 4 25 13 -2 7 -17 11 -35 10 -25 -2 -29 0 -25 16 3 11 -2 21 -11 24 -12 5
-16 0 -16 -18z m0 -60 c0 -11 -12 -15 -45 -15 -33 0 -45 4 -45 15 0 11 12 15
45 15 33 0 45 -4 45 -15z m-5 -44 c0 -9 -15 -15 -42 -18 -32 -3 -43 0 -43 10
0 20 4 22 47 22 26 0 38 -5 38 -14z m5 -46 c0 -11 -12 -15 -45 -15 -33 0 -45
4 -45 15 0 11 12 15 45 15 33 0 45 -4 45 -15z"/>
<path d="M7018 7077 l-3 -42 -60 -1 c-77 -1 -78 -18 -2 -22 31 -2 57 -4 57 -6
0 -26 -33 -81 -71 -120 -52 -51 -55 -56 -38 -56 19 0 119 108 119 130 0 32 16
23 33 -17 8 -21 33 -55 54 -75 35 -33 40 -35 57 -22 11 8 15 14 9 14 -19 0
-103 81 -103 100 0 10 -4 22 -10 25 -5 3 -10 12 -10 20 0 10 10 12 39 8 46 -6
94 3 86 17 -3 5 -34 7 -72 3 l-65 -6 4 41 c2 27 -1 43 -9 46 -8 3 -13 -9 -15
-37z"/>
<path d="M4640 7099 c-36 -4 -73 -5 -82 -3 -15 5 -17 -5 -16 -91 0 -80 3 -95
15 -91 8 3 26 6 39 6 23 0 24 3 24 69 0 74 7 104 21 95 13 -8 11 -41 -3 -48
-10 -5 -10 -7 0 -12 15 -7 16 -54 1 -54 -8 0 -8 -4 -1 -12 10 -13 1 -35 -36
-98 -12 -19 -12 -22 0 -18 7 3 27 29 43 59 34 61 62 73 57 24 -4 -35 -18 -55
-39 -55 -11 0 -11 -4 -3 -20 8 -16 15 -18 29 -11 25 14 40 78 43 184 3 72 0
87 -12 86 -8 -1 -44 -5 -80 -10z m-40 -95 c0 -57 -2 -65 -17 -62 -15 3 -18 15
-20 63 -1 36 2 62 9 66 22 14 28 -2 28 -67z m110 56 c0 -13 -7 -20 -20 -20
-13 0 -20 7 -20 20 0 13 7 20 20 20 13 0 20 -7 20 -20z m0 -65 c0 -18 -5 -25
-20 -25 -20 0 -28 28 -13 43 15 16 33 6 33 -18z"/>
<path d="M4749 6983 c-1 -68 -2 -127 -3 -133 -1 -5 4 -11 9 -12 6 -2 11 10 13
25 3 24 6 26 19 15 13 -10 18 -9 34 11 25 30 24 39 -6 83 -21 31 -23 41 -14
65 6 15 18 36 26 45 19 21 20 20 -34 22 l-43 2 -1 -123z m41 86 c0 -6 -5 -19
-11 -30 -8 -16 -5 -30 11 -65 24 -48 21 -74 -8 -74 -16 0 -18 10 -20 90 -1 73
2 90 13 90 8 0 15 -5 15 -11z"/>
<path d="M5592 7080 c8 -23 13 -29 22 -20 12 12 -1 41 -22 48 -9 3 -9 -4 0
-28z"/>
<path d="M6008 7103 c-67 -2 -118 -8 -118 -13 0 -6 20 -10 45 -10 54 0 58 -14
15 -52 -40 -35 -32 -55 20 -50 36 4 40 2 40 -19 0 -23 -3 -24 -52 -21 -40 3
-50 1 -42 -8 6 -6 30 -14 53 -17 35 -5 41 -9 41 -30 0 -24 -2 -24 -62 -22 -35
2 -63 -2 -63 -7 0 -5 61 -10 138 -12 115 -2 137 0 137 12 0 19 -23 33 -28 18
-2 -7 -23 -12 -48 -12 -44 0 -45 1 -42 28 3 25 7 27 46 27 34 0 42 3 42 19 0
19 0 19 -67 0 -17 -5 -23 -2 -23 10 0 50 57 77 79 39 8 -14 12 -15 22 -6 10
10 5 20 -25 48 -44 41 -64 46 -40 10 l16 -25 -67 0 -68 0 27 26 c14 15 26 31
26 35 0 5 34 9 75 9 70 0 95 10 59 24 -9 3 -16 5 -17 4 -1 -1 -55 -4 -119 -5z"/>
<path d="M6610 7057 c0 -30 4 -46 10 -42 6 3 10 19 10 36 0 29 1 29 53 27 l52
-2 -47 -3 c-27 -2 -48 -8 -48 -13 0 -5 21 -11 48 -13 l47 -3 -47 -2 c-70 -3
-59 -22 12 -22 l60 0 -4 30 c-2 17 1 30 5 30 5 0 9 -16 9 -35 0 -19 5 -35 10
-35 6 0 11 16 12 35 0 19 1 40 2 46 1 8 -29 12 -91 13 l-93 1 0 -48z"/>
<path d="M7280 7094 c0 -20 -29 -83 -48 -106 -13 -16 -13 -18 1 -18 10 0 17 5
17 10 0 6 5 10 10 10 6 0 9 -12 8 -27 -4 -61 3 -133 12 -133 6 0 10 46 10 119
0 93 3 121 15 131 21 17 19 30 -5 30 -12 0 -20 -7 -20 -16z"/>
<path d="M7380 7089 c0 -18 -5 -21 -35 -17 -19 2 -35 0 -35 -4 0 -4 16 -8 35
-8 19 0 35 -4 35 -10 0 -5 -11 -10 -25 -10 -25 0 -25 -1 -25 -90 0 -75 -3 -90
-16 -90 -8 0 -12 -4 -9 -10 8 -12 205 -13 205 -1 0 19 -26 31 -39 18 -11 -10
-12 5 -9 81 l4 92 -33 0 c-18 0 -33 5 -33 10 0 6 20 10 45 10 44 0 58 11 33
26 -6 4 -14 2 -16 -4 -5 -15 -48 -16 -57 -2 -3 6 -1 10 4 10 6 0 11 5 11 10 0
6 -9 10 -20 10 -14 0 -20 -7 -20 -21z m60 -84 c0 -11 -11 -15 -39 -15 -38 0
-57 10 -44 24 3 3 24 6 45 6 27 0 38 -4 38 -15z m0 -45 c0 -5 -20 -10 -45 -10
-25 0 -45 5 -45 10 0 6 20 10 45 10 25 0 45 -4 45 -10z m0 -46 c0 -12 -10 -14
-42 -12 -54 4 -62 26 -11 30 46 4 53 1 53 -18z m-2 -41 c2 -9 -10 -13 -42 -13
-43 0 -55 7 -39 24 12 11 76 2 81 -11z"/>
<path d="M2330 7005 c0 -78 3 -95 15 -95 12 0 15 17 15 95 0 78 -3 95 -15 95
-12 0 -15 -17 -15 -95z"/>
<path d="M2691 7074 c-13 -30 -7 -44 11 -26 7 7 27 12 46 12 39 0 39 7 -1
-103 -16 -43 -21 -70 -14 -74 12 -7 37 24 37 46 0 9 11 49 25 89 14 41 25 76
25 78 0 2 -26 4 -58 4 -54 0 -60 -2 -71 -26z"/>
<path d="M3297 7062 c-22 -50 -22 -49 13 -57 33 -7 50 -30 50 -68 0 -28 -35
-44 -57 -26 -13 11 -33 4 -33 -11 0 -17 39 -21 73 -7 37 16 53 51 41 90 -7 25
-38 57 -54 57 -26 0 -6 19 22 22 22 2 34 9 36 21 3 14 -4 17 -35 17 -36 0 -41
-3 -56 -38z"/>
<path d="M3875 7080 c-20 -22 -13 -39 8 -21 8 6 21 9 30 5 27 -10 28 -34 2
-56 l-25 -21 23 -11 c47 -24 27 -82 -26 -70 -22 5 -28 3 -25 -7 3 -9 18 -13
39 -12 59 3 87 62 53 111 -8 12 -10 22 -5 22 15 0 14 53 -1 68 -18 18 -53 14
-73 -8z"/>
<path d="M7647 7082 c-21 -24 -22 -62 -2 -62 11 0 15 8 13 28 -3 23 1 27 25
30 30 4 57 -12 57 -33 0 -7 -11 -23 -24 -36 -22 -23 -41 -99 -24 -99 4 0 8 9
8 20 0 10 14 35 30 53 32 36 40 83 18 105 -19 19 -82 15 -101 -6z"/>
<path d="M3700 7014 c0 -35 -1 -36 -35 -32 -23 3 -35 0 -35 -8 0 -7 15 -14 33
-16 28 -3 33 -7 37 -38 7 -46 24 -45 28 3 3 35 5 37 38 37 46 0 44 18 -3 22
-35 3 -38 6 -41 36 -4 44 -22 41 -22 -4z"/>
<path d="M2872 7029 l-22 -9 20 -20 c28 -28 28 -110 1 -134 -11 -10 -25 -15
-30 -11 -7 3 -11 -2 -11 -14 0 -12 6 -21 14 -21 19 0 98 91 125 145 23 46 21
65 -6 65 -11 0 -14 -6 -9 -26 8 -29 -18 -79 -34 -69 -6 4 -10 26 -10 50 0 50
-6 56 -38 44z"/>
<path d="M3436 7021 c-3 -5 3 -11 14 -14 15 -4 20 -14 20 -39 0 -38 -15 -58
-42 -58 -10 0 -18 -4 -18 -10 0 -19 49 -10 64 12 11 16 16 18 16 7 0 -8 5 -20
12 -27 14 -14 48 2 48 25 0 12 -3 13 -15 3 -18 -15 -28 4 -23 47 2 22 9 29 31
31 29 4 36 19 12 29 -9 3 -24 -2 -34 -11 -22 -20 -31 -20 -31 -1 0 16 -45 21
-54 6z"/>
<path d="M1890 7006 c0 -8 5 -18 10 -21 8 -5 7 -11 -1 -21 -18 -22 -2 -29 21
-9 24 22 26 51 4 59 -25 9 -34 7 -34 -8z"/>
<path d="M1238 7003 c-166 -5 -152 -23 17 -23 113 0 135 2 135 15 0 8 -8 14
-17 13 -10 -1 -71 -4 -135 -5z"/>
<path d="M5125 7000 c-4 -6 -57 -10 -126 -10 -73 0 -119 -4 -119 -10 0 -11
272 -14 283 -3 8 7 -11 33 -24 33 -4 0 -11 -4 -14 -10z"/>
<path d="M6560 6999 c0 -4 7 -9 15 -13 12 -4 14 -17 11 -52 -3 -26 -10 -50
-17 -54 -6 -4 -9 -13 -5 -18 4 -8 20 -7 51 3 42 12 45 12 45 -6 0 -29 26 -34
70 -14 37 17 41 17 65 1 24 -16 45 -14 45 3 0 5 -13 14 -29 20 l-29 12 20 41
c11 22 17 46 14 54 -3 8 1 14 9 14 8 0 15 3 15 8 0 4 -63 7 -140 7 -77 0 -140
-3 -140 -6z m105 -24 c0 -5 -12 -11 -27 -13 -21 -2 -28 1 -28 13 0 12 7 15 28
13 15 -2 27 -7 27 -13z m130 5 c-3 -5 -26 -10 -51 -10 -24 0 -44 -2 -44 -5 0
-3 9 -24 21 -46 20 -39 20 -41 2 -55 -30 -22 -33 -17 -33 56 l0 70 56 0 c34 0
53 -4 49 -10z m-15 -44 c0 -36 -20 -43 -41 -15 -19 25 -11 39 24 39 11 0 17
-8 17 -24z m-120 4 c0 -5 -11 -10 -25 -10 -14 0 -25 5 -25 10 0 6 11 10 25 10
14 0 25 -4 25 -10z m0 -40 c0 -5 -11 -10 -25 -10 -14 0 -25 5 -25 10 0 6 11
10 25 10 14 0 25 -4 25 -10z"/>
<path d="M4405 6970 c32 -33 45 -38 45 -15 0 8 -13 21 -30 30 -43 22 -47 19
-15 -15z"/>
<path d="M3050 6973 c0 -9 23 -13 80 -13 59 0 80 3 80 13 0 10 -21 13 -80 12
-57 0 -80 -4 -80 -12z"/>
<path d="M1451 6880 c-14 -33 -8 -51 10 -33 6 6 9 23 7 37 l-3 27 -14 -31z"/>
<path d="M1490 6886 c0 -14 5 -28 10 -31 6 -4 10 7 10 24 0 17 -4 31 -10 31
-5 0 -10 -11 -10 -24z"/>
<path d="M1526 6888 c8 -28 12 -33 20 -25 9 8 -6 47 -17 47 -6 0 -7 -10 -3
-22z"/>
<path d="M2268 6880 c18 -32 32 -39 32 -17 0 14 -31 47 -43 47 -3 0 2 -13 11
-30z"/>
<path d="M4403 6875 c38 -40 47 -43 47 -17 0 10 -13 25 -29 35 -47 27 -55 20
-18 -18z"/>
<path d="M6306 6891 c-3 -5 -21 -16 -41 -25 -32 -15 -47 -36 -27 -36 18 0 112
57 105 63 -9 10 -31 9 -37 -2z"/>
<path d="M6425 6865 c40 -35 70 -46 63 -22 -6 16 -67 57 -87 57 -10 0 -1 -13
24 -35z"/>
<path d="M7672 6873 c2 -10 10 -18 18 -18 8 0 16 8 18 18 2 12 -3 17 -18 17
-15 0 -20 -5 -18 -17z"/>
<path d="M8303 6339 c13 -8 17 -24 17 -72 0 -65 -11 -87 -42 -87 -19 0 -25
-25 -9 -34 10 -7 81 61 124 116 30 41 36 88 11 88 -11 0 -14 -6 -9 -20 4 -12
-3 -33 -19 -57 -25 -36 -26 -37 -26 -12 0 15 -3 41 -6 58 -5 25 -11 31 -33 31
-22 -1 -24 -2 -8 -11z"/>
<path d="M8488 6232 c-72 -149 -74 -152 -56 -152 8 0 32 33 53 73 20 39 41 76
46 82 5 5 9 -1062 9 -2578 l0 -2587 -167 -1 c-381 -3 -438 -4 -443 -14 -3 -7
102 -12 300 -15 l305 -5 3 -267 c1 -167 6 -268 12 -268 6 0 10 6 10 13 1 6 2
127 3 267 l2 255 2682 0 c1474 0 2680 -2 2678 -5 -2 -3 -42 -25 -89 -49 -47
-24 -86 -50 -86 -57 0 -19 4 -18 74 17 150 78 180 95 183 105 3 9 -232 134
-252 134 -3 0 -5 -6 -5 -14 0 -13 33 -32 155 -87 40 -18 35 -19 -357 -19
l-398 0 -170 168 c-94 92 -240 236 -323 320 -84 85 -408 412 -722 727 -313
315 -584 588 -601 606 -17 19 -42 44 -55 55 -13 12 -116 115 -228 228 -112
113 -206 206 -209 206 -3 0 -18 15 -34 33 -39 45 -807 822 -975 987 -243 239
-1236 1240 -1251 1261 -12 18 -15 75 -16 321 -1 332 -2 328 57 189 32 -75 43
-89 56 -75 6 5 -5 38 -27 85 -20 41 -47 99 -60 127 -13 29 -29 52 -35 51 -7 0
-38 -53 -69 -117z m125 -732 c20 -44 37 -84 37 -89 0 -5 4 -11 8 -13 5 -1 39
-64 76 -138 37 -74 71 -142 76 -150 5 -8 11 -22 14 -30 3 -8 10 -22 14 -30 5
-8 13 -24 19 -35 5 -11 17 -33 25 -50 9 -16 19 -37 22 -45 4 -8 15 -28 26 -45
11 -16 22 -37 26 -45 6 -16 90 -186 104 -210 4 -8 81 -161 170 -340 88 -179
169 -341 179 -360 11 -19 59 -116 107 -215 48 -99 98 -196 109 -215 12 -19 29
-54 38 -77 l17 -43 -555 0 -555 0 -1 228 c-3 1457 -3 1982 2 1982 3 0 22 -36
42 -80z m1990 -1927 c103 -105 187 -193 187 -197 0 -3 -242 -6 -538 -6 l-537
0 -255 510 c-140 281 -259 521 -265 533 -5 12 -67 134 -137 272 -224 441 -438
866 -438 870 0 5 1698 -1693 1983 -1982z m-863 -310 c44 -91 31 -65 194 -390
76 -153 156 -312 176 -353 21 -42 42 -85 48 -95 14 -25 102 -205 102 -209 0
-2 -235 -2 -522 -1 -288 1 -668 3 -845 4 l-323 1 0 560 0 560 568 -2 567 -3
35 -72z m48 69 c-10 -4 -17 -11 -18 -17 0 -19 -17 -16 -23 5 -4 17 -1 20 26
19 22 0 27 -3 15 -7z m120 1 c-10 -2 -18 -11 -18 -19 0 -8 -6 -13 -12 -11 -7
1 -12 -6 -12 -15 1 -11 -5 -18 -17 -18 -10 0 -19 -7 -19 -15 0 -8 -7 -15 -15
-15 -8 0 -15 -5 -15 -12 0 -6 -7 -3 -15 8 -19 25 -19 34 0 34 8 0 15 7 15 15
0 8 6 15 14 15 7 0 16 9 19 20 4 16 13 20 49 19 23 -1 35 -3 26 -6z m109 -4
c-9 -6 -15 -14 -12 -20 4 -5 2 -9 -4 -9 -13 0 -141 -128 -141 -141 0 -18 -28
-8 -44 16 -14 21 -14 24 -1 19 8 -4 15 -1 15 5 0 6 7 11 15 11 8 0 15 5 15 12
0 6 18 28 40 49 22 21 40 43 40 48 0 11 23 18 65 20 25 0 27 -1 12 -10z m113
-9 c-13 -11 -27 -20 -32 -20 -4 0 -8 -7 -8 -15 0 -8 -7 -15 -15 -15 -8 0 -15
-7 -15 -15 0 -8 -7 -15 -15 -15 -8 0 -15 -7 -15 -15 0 -8 -7 -15 -16 -15 -10
0 -14 -6 -10 -15 3 -8 1 -15 -5 -15 -5 0 -23 -13 -38 -29 -16 -16 -32 -27 -35
-24 -3 4 -6 -1 -6 -10 0 -9 -7 -17 -15 -17 -8 0 -15 -7 -15 -16 0 -26 -25 -9
-28 19 -2 19 1 27 12 27 9 0 16 6 16 13 0 8 11 20 25 27 14 7 25 18 25 24 0
13 40 50 55 51 6 1 9 6 8 13 -2 7 3 12 11 12 8 0 23 13 32 30 19 31 31 37 78
39 l29 1 -23 -20z m128 13 c-10 -2 -18 -11 -18 -19 0 -8 -7 -14 -15 -14 -8 0
-15 -4 -15 -10 0 -13 -37 -50 -50 -50 -5 0 -10 -7 -10 -15 0 -8 -7 -15 -16
-15 -8 0 -12 -5 -9 -10 3 -6 -2 -13 -12 -17 -9 -4 -27 -17 -39 -30 -12 -13
-26 -23 -33 -23 -6 0 -11 -7 -11 -15 0 -8 -7 -15 -15 -15 -8 0 -15 -7 -15 -15
0 -8 -4 -15 -10 -15 -5 0 -10 -7 -10 -15 0 -8 -7 -15 -15 -15 -8 0 -15 -9 -15
-20 0 -13 -5 -18 -15 -14 -9 4 -15 0 -15 -7 -1 -9 -6 -7 -15 5 -19 26 -19 36
1 36 10 0 14 6 10 15 -4 10 1 15 14 15 13 0 18 5 14 15 -4 10 0 15 10 15 9 0
19 7 22 15 4 8 13 15 21 15 10 0 13 6 9 16 -4 12 -1 14 14 9 15 -5 20 -2 20
13 0 11 7 23 16 26 9 3 12 11 8 18 -5 8 -2 9 9 5 12 -5 17 -1 17 13 0 11 7 20
15 20 8 0 15 4 15 9 0 5 9 11 20 14 13 3 18 11 14 20 -4 12 0 14 15 10 15 -4
21 -1 21 10 0 19 15 26 55 25 17 0 22 -2 13 -5z m120 0 c-10 -2 -18 -11 -18
-19 0 -8 -7 -14 -15 -14 -8 0 -15 -7 -15 -15 0 -8 -7 -15 -15 -15 -8 0 -15 -7
-15 -15 0 -8 -7 -15 -15 -15 -8 0 -15 -7 -15 -15 0 -8 -4 -15 -10 -15 -13 0
-50 -37 -50 -50 0 -5 -7 -10 -15 -10 -8 0 -15 -4 -15 -10 0 -5 -7 -10 -15 -10
-8 0 -15 -7 -15 -15 0 -8 -7 -15 -15 -15 -8 0 -15 -6 -15 -12 -1 -7 -14 -24
-30 -38 -17 -13 -30 -30 -30 -37 0 -7 -5 -13 -11 -13 -13 0 -69 -55 -69 -68 0
-9 -30 -26 -35 -20 -1 2 -6 13 -10 26 -5 19 -2 25 14 29 12 3 21 11 21 18 0 7
9 15 21 18 12 3 18 10 15 16 -4 5 3 12 14 16 11 3 20 12 20 18 0 7 13 21 29
32 16 10 29 22 28 25 -3 8 42 50 53 50 6 0 10 7 10 15 0 9 6 12 15 9 11 -5 13
-2 9 10 -4 10 0 18 10 22 9 3 16 13 16 21 0 9 6 13 15 9 8 -3 15 -1 15 4 0 13
37 50 50 50 6 0 10 6 10 14 0 18 16 25 60 24 19 0 27 -2 18 -5z m98 -17 c-15
-13 -26 -28 -26 -35 0 -6 -9 -11 -20 -11 -11 0 -19 -4 -17 -8 3 -11 -118 -132
-132 -132 -6 0 -11 -9 -11 -21 0 -11 -4 -18 -9 -15 -5 3 -11 -1 -15 -9 -3 -8
-12 -15 -21 -15 -8 0 -15 -7 -15 -15 0 -8 -7 -15 -15 -15 -8 0 -15 -9 -15 -20
0 -11 -4 -19 -8 -18 -5 2 -34 -23 -64 -54 -30 -32 -61 -58 -67 -58 -6 0 -11
-6 -11 -13 0 -7 -9 -20 -20 -30 -19 -16 -20 -15 -31 5 -10 18 -8 24 7 35 11 8
18 19 16 24 -1 5 5 9 13 9 8 0 15 4 15 9 0 5 9 11 21 14 12 3 18 10 14 16 -3
6 1 11 9 11 9 0 16 4 16 9 0 15 46 61 60 61 7 0 10 7 6 15 -4 10 1 15 14 15
11 0 20 4 20 10 0 15 33 50 42 44 4 -3 8 0 8 5 0 14 71 87 82 84 4 -2 7 0 7 5
-3 19 2 32 12 32 7 0 22 11 35 25 13 14 28 25 34 25 6 0 9 4 5 9 -8 13 24 30
58 31 l28 0 -25 -24z m132 17 c-10 -2 -18 -11 -18 -19 0 -8 -7 -14 -16 -14 -8
0 -13 -4 -10 -9 3 -5 -10 -19 -29 -32 -19 -13 -35 -30 -35 -36 0 -7 -7 -13
-15 -13 -8 0 -15 -5 -15 -11 0 -14 -55 -69 -69 -69 -6 0 -11 -7 -11 -15 0 -8
-7 -15 -15 -15 -8 0 -15 -7 -15 -15 0 -8 -7 -15 -15 -15 -8 0 -15 -6 -15 -14
0 -8 -7 -17 -16 -20 -9 -4 -14 -13 -10 -21 4 -10 -1 -15 -15 -15 -11 0 -17 -4
-14 -10 3 -5 1 -10 -6 -10 -15 0 -59 -42 -59 -57 0 -7 -7 -10 -15 -7 -9 4 -15
0 -15 -10 0 -9 -7 -16 -15 -16 -8 0 -15 -4 -15 -10 0 -5 -9 -19 -20 -30 -11
-11 -24 -20 -30 -20 -5 0 -10 -7 -10 -15 0 -8 -7 -15 -15 -15 -8 0 -15 -9 -15
-20 0 -14 -5 -18 -17 -13 -13 5 -15 3 -9 -13 11 -29 -8 -4 -22 29 -11 26 -11
28 8 22 14 -5 20 -2 20 9 0 9 7 16 16 16 11 0 14 5 10 16 -4 12 -2 15 9 10 10
-4 15 1 15 14 0 11 6 20 14 20 7 0 22 11 32 25 10 14 27 25 37 25 13 0 17 5
13 15 -3 9 0 15 9 15 8 0 15 7 15 15 0 8 7 15 15 15 8 0 15 9 15 21 0 12 4 17
11 14 6 -4 13 2 16 13 3 13 11 18 19 15 8 -3 14 0 14 6 0 6 20 32 45 56 24 25
42 45 38 45 -3 0 6 11 21 25 15 14 31 25 37 25 5 0 9 7 9 15 0 9 6 12 15 9 8
-4 15 -1 15 5 0 14 36 51 50 51 6 0 10 6 10 14 0 18 16 25 55 24 17 0 22 -2
13 -5z m112 -3 c-14 -4 -21 -8 -16 -9 11 -1 -42 -51 -54 -51 -5 0 -7 -7 -4
-15 4 -8 1 -15 -5 -15 -14 0 -51 -36 -51 -50 0 -5 -7 -10 -16 -10 -8 0 -12 -5
-9 -10 3 -6 -2 -13 -12 -17 -22 -8 -103 -88 -103 -101 0 -5 -10 -12 -22 -15
-12 -4 -19 -9 -16 -13 4 -3 -7 -19 -23 -35 -16 -15 -29 -33 -29 -38 0 -6 -7
-8 -15 -5 -9 4 -15 0 -15 -8 0 -15 -41 -54 -53 -50 -4 1 -7 -6 -5 -15 2 -11
-3 -18 -12 -18 -8 0 -18 -8 -22 -18 -4 -10 -12 -15 -18 -12 -5 3 -10 -1 -10
-9 0 -9 -7 -16 -15 -16 -8 0 -15 -7 -15 -15 0 -8 -7 -15 -15 -15 -8 0 -15 -7
-15 -15 0 -8 -7 -15 -15 -15 -8 0 -15 -7 -15 -15 0 -8 -5 -15 -11 -15 -6 0
-18 -7 -26 -16 -12 -11 -18 -12 -23 -4 -11 17 0 50 16 50 8 0 14 5 14 10 0 16
38 50 56 50 10 0 14 6 10 15 -4 10 1 15 14 15 11 0 20 7 20 15 0 8 5 15 10 15
6 0 10 7 10 15 0 8 5 15 10 15 6 0 21 11 34 25 13 14 28 25 35 25 6 0 11 5 11
12 0 6 14 24 31 39 17 15 28 32 24 38 -3 7 2 11 14 11 12 0 21 7 21 15 0 8 7
15 16 15 10 0 14 6 10 15 -3 9 0 15 9 15 16 0 86 66 78 73 -2 3 5 8 16 12 12
3 19 11 16 16 -4 5 2 12 12 16 9 4 27 17 39 30 12 13 26 23 32 23 6 0 9 7 6
15 -4 10 0 15 11 15 11 0 15 5 12 14 -6 16 15 23 68 24 29 0 29 0 5 -8z m108
-10 c-7 -11 -18 -20 -25 -20 -7 0 -13 -7 -13 -15 0 -8 -7 -15 -15 -15 -8 0
-15 -4 -15 -10 0 -13 -37 -50 -50 -50 -5 0 -9 -4 -7 -9 1 -5 -24 -34 -56 -65
-34 -33 -55 -61 -51 -68 4 -7 3 -8 -5 -4 -12 8 -61 -36 -61 -55 0 -5 -7 -9
-15 -9 -8 0 -15 -4 -15 -10 0 -5 -7 -10 -15 -10 -8 0 -15 -7 -15 -15 0 -8 -4
-15 -9 -15 -5 0 -11 -9 -14 -21 -3 -12 -10 -18 -16 -14 -6 3 -11 -1 -11 -9 0
-9 -7 -16 -15 -16 -8 0 -15 -7 -15 -15 0 -8 -7 -15 -15 -15 -8 0 -15 -7 -15
-15 0 -8 -4 -15 -10 -15 -10 0 -50 -36 -50 -45 0 -9 -40 -45 -50 -45 -5 0 -10
-4 -10 -10 0 -13 -37 -50 -50 -50 -5 0 -10 -7 -10 -15 0 -8 -7 -15 -15 -15 -8
0 -15 -7 -15 -15 0 -8 -6 -15 -14 -15 -8 0 -16 -10 -18 -22 -4 -21 -6 -19 -19
12 -15 33 -15 35 3 38 10 2 18 12 18 22 0 11 7 17 18 16 9 0 16 5 15 12 -2 6
3 12 10 12 11 0 47 34 47 45 0 2 11 16 25 31 14 15 25 24 25 20 0 -4 16 10 35
31 19 21 35 41 35 46 0 4 7 7 15 7 8 0 15 5 15 10 0 12 40 54 40 43 0 -5 5 0
11 10 5 9 17 17 24 17 8 0 15 5 15 11 0 6 14 24 30 41 17 16 30 34 30 39 0 5
8 9 17 9 9 0 14 3 11 6 -8 7 40 54 54 54 6 0 9 2 6 5 -7 7 94 111 105 107 4
-1 7 5 7 13 0 8 7 15 15 15 8 0 15 7 15 15 0 8 7 15 15 15 8 0 15 6 15 14 0
16 15 24 48 25 20 1 21 -1 10 -19z m62 -35 c9 -10 9 -15 1 -15 -6 0 -11 -7
-11 -15 0 -8 -7 -15 -15 -15 -8 0 -15 -4 -15 -10 0 -12 -37 -50 -49 -50 -5 0
-11 -9 -14 -20 -3 -11 -13 -23 -24 -27 -22 -8 -59 -45 -55 -55 1 -5 -7 -8 -19
-8 -14 0 -19 -5 -16 -14 3 -8 -2 -16 -14 -19 -10 -3 -19 -13 -19 -22 0 -9 -4
-14 -9 -11 -5 3 -11 -4 -14 -15 -3 -12 -10 -18 -16 -14 -6 3 -11 -1 -11 -10 0
-8 -7 -18 -15 -21 -8 -4 -15 -13 -15 -21 0 -10 -6 -13 -16 -9 -8 3 -12 2 -9
-4 3 -5 -4 -14 -15 -20 -11 -6 -20 -17 -20 -25 0 -8 -6 -14 -12 -13 -7 2 -12
-3 -10 -9 1 -7 -5 -13 -13 -13 -8 0 -15 -6 -15 -14 0 -7 -9 -16 -21 -19 -12
-3 -18 -10 -14 -16 3 -6 -1 -11 -9 -11 -9 0 -16 -7 -16 -15 0 -8 -4 -15 -10
-15 -13 0 -50 -37 -50 -51 0 -5 -5 -7 -11 -4 -6 4 -13 -2 -16 -14 -3 -12 -9
-21 -14 -21 -14 0 -49 -33 -49 -47 0 -7 -4 -13 -10 -13 -16 0 -50 -38 -50 -56
0 -14 -3 -14 -15 -4 -11 9 -15 9 -15 1 0 -18 -17 -4 -23 18 -3 14 0 17 15 13
10 -2 18 -1 17 4 -3 19 1 35 9 30 10 -6 42 29 42 45 0 6 7 9 15 5 10 -4 15 1
15 14 0 11 7 20 15 20 8 0 15 7 15 15 0 8 7 15 15 15 8 0 15 5 15 10 0 6 13
24 29 39 16 16 27 32 24 35 -4 3 3 6 15 6 13 0 22 6 22 15 0 8 7 15 15 15 8 0
15 7 15 15 0 8 7 15 16 15 8 0 12 5 9 11 -4 6 2 13 14 16 12 3 21 12 21 19 0
8 7 14 16 14 8 0 12 5 9 10 -3 6 3 10 14 10 12 0 21 4 21 10 0 15 33 50 47 50
7 0 13 7 13 15 0 8 5 15 10 15 6 0 10 5 10 10 0 13 37 50 50 50 6 0 10 5 10
10 0 6 25 36 55 66 30 31 55 60 55 65 0 5 7 9 15 9 8 0 15 7 15 15 0 8 6 15
14 15 8 0 16 7 20 15 3 8 9 15 14 15 5 0 15 -7 22 -15z m24 -112 c-23 -24 -47
-43 -53 -43 -6 0 -11 -4 -11 -10 0 -12 -68 -80 -80 -80 -6 0 -10 -9 -10 -20 0
-11 -6 -20 -14 -20 -8 0 -17 -7 -20 -16 -3 -8 -11 -12 -18 -8 -8 5 -9 0 -6
-14 4 -15 2 -22 -8 -22 -8 0 -14 -4 -14 -10 0 -5 -7 -10 -15 -10 -13 0 -19
-12 -16 -32 0 -4 -6 -5 -14 -2 -10 4 -15 0 -15 -15 0 -12 -4 -20 -9 -19 -5 2
-20 -9 -34 -24 -14 -16 -31 -28 -37 -28 -5 0 -10 -7 -10 -15 0 -8 -7 -15 -16
-15 -10 0 -14 -6 -10 -15 4 -10 -1 -15 -15 -15 -15 0 -19 -5 -15 -15 3 -8 0
-15 -7 -15 -7 -1 -23 -14 -37 -30 -13 -17 -30 -30 -37 -30 -7 0 -10 -7 -7 -15
4 -8 1 -15 -5 -15 -14 0 -51 -36 -51 -50 0 -5 -7 -10 -15 -10 -8 0 -15 -7 -15
-15 0 -8 -7 -15 -15 -15 -8 0 -15 -7 -15 -16 0 -10 -6 -14 -15 -10 -10 4 -15
-1 -15 -14 0 -11 -5 -20 -11 -20 -7 0 -18 -8 -25 -17 -11 -15 -15 -16 -23 -4
-12 18 -2 51 15 51 8 0 14 7 14 15 0 8 7 15 15 15 8 0 15 7 15 15 0 8 7 15 15
15 8 0 15 7 15 16 0 10 6 14 15 10 10 -4 15 1 15 15 0 11 4 18 9 14 5 -3 12 4
16 15 3 11 13 20 21 20 8 0 14 7 14 15 0 8 7 15 15 15 8 0 15 7 15 15 0 8 6
14 13 13 6 -2 11 5 11 15 -1 10 5 17 17 17 11 0 18 3 17 8 -4 9 39 52 52 52 5
0 7 7 4 15 -4 10 0 15 15 15 12 0 20 5 19 12 -2 7 4 12 12 13 8 0 14 8 14 18
-1 11 5 17 18 17 10 0 16 5 13 10 -3 6 2 13 12 17 23 9 43 28 43 42 0 6 7 11
15 11 8 0 15 7 15 15 0 8 7 15 15 15 8 0 15 7 15 15 0 8 7 15 15 15 8 0 15 7
15 15 0 8 4 15 9 15 5 0 13 9 16 20 4 11 11 18 16 15 5 -4 9 1 9 9 0 9 7 16
15 16 8 0 15 4 15 10 0 5 24 34 53 63 48 50 53 53 68 38 14 -15 12 -20 -27
-58z m96 -12 c0 -12 -48 -61 -60 -61 -5 0 -10 -7 -10 -15 0 -8 -7 -15 -15 -15
-8 0 -15 -5 -15 -10 0 -6 -13 -24 -30 -40 -16 -16 -30 -34 -30 -41 0 -6 -7 -9
-15 -5 -9 3 -15 0 -15 -8 0 -8 -7 -16 -15 -20 -8 -3 -15 -13 -15 -21 0 -9 -5
-13 -11 -10 -6 4 -13 -2 -16 -14 -3 -11 -9 -18 -14 -15 -5 3 -13 -4 -17 -15
-4 -11 -11 -21 -17 -23 -5 -2 -9 -8 -9 -14 1 -6 -6 -11 -15 -10 -9 0 -15 -5
-13 -11 1 -7 -4 -13 -11 -13 -14 0 -53 -41 -49 -52 1 -5 -5 -8 -13 -8 -8 0
-15 -7 -15 -15 0 -8 -7 -15 -15 -15 -8 0 -15 -7 -15 -15 0 -8 -7 -15 -15 -15
-8 0 -15 -7 -15 -15 0 -8 -7 -15 -15 -15 -8 0 -15 -9 -15 -20 0 -13 -5 -18
-15 -14 -9 4 -15 0 -15 -10 0 -9 -6 -16 -14 -16 -8 0 -13 -8 -12 -17 0 -10 -5
-17 -11 -16 -7 2 -13 -4 -13 -12 0 -8 -7 -15 -15 -15 -8 0 -15 -7 -15 -15 0
-8 -7 -15 -15 -15 -8 0 -15 -7 -15 -15 0 -8 -4 -15 -10 -15 -13 0 -50 -37 -50
-50 0 -5 -7 -10 -15 -10 -8 0 -15 -7 -15 -15 0 -8 -7 -15 -15 -15 -8 0 -15 -7
-15 -15 0 -20 -16 -19 -24 1 -11 28 -6 54 9 54 8 0 15 5 15 10 0 6 7 10 15 10
8 0 15 7 15 15 0 8 6 15 13 15 6 0 21 14 32 30 11 16 26 30 33 30 6 0 12 4 12
10 0 13 68 80 81 80 6 0 8 4 4 9 -3 6 4 15 15 21 11 6 18 15 15 21 -4 5 3 9
14 9 12 0 21 5 21 10 0 6 11 21 25 34 14 13 25 28 25 35 0 6 6 11 13 11 6 1
23 14 37 30 13 17 30 30 37 30 7 0 10 7 7 15 -4 8 -1 15 5 15 14 0 51 36 51
50 0 6 7 10 15 10 8 0 15 5 15 10 0 6 7 10 15 10 8 0 15 7 15 15 0 8 5 15 10
15 6 0 10 7 10 15 0 8 7 15 15 15 8 0 15 7 15 15 0 8 7 15 15 15 8 0 15 7 15
15 0 8 7 15 15 15 8 0 15 9 15 20 0 13 5 18 15 14 8 -4 15 -1 15 5 0 14 37 51
51 51 6 0 9 6 6 14 -3 8 -3 17 0 20 7 7 43 -12 43 -23z m65 -61 c4 -6 -1 -7
-11 -3 -13 5 -16 3 -11 -10 5 -12 1 -17 -13 -17 -11 0 -20 -7 -20 -15 0 -8 -4
-15 -10 -15 -5 0 -10 -9 -10 -21 0 -15 -5 -19 -15 -15 -10 4 -15 -1 -15 -14 0
-11 -7 -20 -15 -20 -8 0 -15 -7 -15 -16 0 -10 -6 -14 -15 -10 -9 3 -15 0 -15
-8 0 -8 -7 -16 -15 -20 -8 -3 -15 -12 -15 -20 0 -10 -6 -13 -15 -10 -9 4 -15
0 -15 -9 0 -8 -7 -18 -16 -21 -8 -3 -12 -10 -9 -16 3 -5 -1 -10 -10 -10 -8 0
-18 -7 -21 -15 -4 -8 -13 -15 -21 -15 -9 0 -13 -6 -9 -15 4 -10 -1 -15 -14
-15 -11 0 -20 -4 -20 -10 0 -13 -37 -50 -51 -50 -5 0 -7 -5 -4 -11 4 -6 -2
-13 -14 -16 -11 -3 -18 -9 -15 -14 3 -5 -2 -12 -10 -15 -9 -3 -16 -13 -16 -21
0 -9 -6 -13 -15 -9 -10 4 -15 -1 -15 -14 0 -11 -7 -20 -15 -20 -8 0 -15 -7
-15 -15 0 -8 -7 -15 -15 -15 -8 0 -15 -5 -15 -10 0 -6 -12 -23 -27 -37 -16
-14 -27 -28 -26 -32 1 -4 -12 -16 -28 -26 -16 -11 -29 -26 -29 -32 0 -7 -5
-13 -10 -13 -6 0 -27 -18 -49 -40 -21 -22 -44 -40 -50 -40 -6 0 -11 -6 -11
-14 0 -18 -35 -27 -49 -13 -16 16 -13 27 4 21 9 -4 15 0 15 10 0 9 7 16 15 16
8 0 15 5 15 10 0 13 43 56 53 52 4 -1 7 6 5 15 -2 10 2 17 10 16 6 -2 12 4 12
12 0 9 9 15 21 15 15 0 19 5 15 15 -4 10 1 15 14 15 11 0 20 6 20 14 0 8 7 17
16 20 8 3 12 10 9 16 -3 5 3 10 14 10 12 0 20 4 19 9 -3 10 41 51 55 51 5 0 6
7 3 15 -4 11 0 15 11 13 10 -2 18 2 18 9 0 6 12 23 28 37 15 14 27 30 27 37 0
6 7 9 15 5 10 -4 15 1 15 14 0 11 7 20 15 20 8 0 15 6 15 14 0 8 14 23 30 33
17 9 30 21 30 26 0 13 97 106 104 99 3 -3 6 2 6 11 0 10 7 17 15 17 8 0 15 7
15 15 0 8 7 15 15 15 8 0 15 9 15 20 0 13 5 18 15 14 10 -4 15 0 15 15 0 12 6
21 15 21 8 0 15 5 15 10 0 6 7 10 15 10 8 0 15 9 15 20 0 17 3 19 19 10 11 -5
23 -15 26 -20z m51 -52 c16 -18 17 -21 2 -15 -12 4 -15 2 -11 -8 3 -8 -2 -18
-11 -21 -9 -3 -16 -13 -16 -21 0 -10 -6 -13 -15 -9 -10 3 -18 -1 -22 -11 -9
-22 -40 -53 -47 -45 -3 3 -6 -4 -6 -16 0 -12 -5 -22 -11 -22 -5 0 -23 -15 -40
-32 -16 -18 -29 -29 -29 -25 0 4 -9 -2 -20 -13 -11 -11 -20 -24 -20 -30 0 -5
-7 -10 -15 -10 -8 0 -15 -7 -15 -15 0 -8 -7 -15 -15 -15 -8 0 -15 -7 -15 -15
0 -8 -6 -15 -14 -15 -8 0 -18 -10 -21 -21 -6 -17 -9 -19 -16 -8 -6 10 -9 8 -9
-8 0 -14 -6 -23 -15 -23 -8 0 -14 -3 -13 -7 4 -12 -35 -53 -49 -53 -7 0 -10
-7 -7 -15 4 -9 0 -15 -8 -15 -15 0 -48 -34 -48 -50 0 -6 -7 -10 -15 -10 -8 0
-15 -4 -15 -10 0 -13 -37 -50 -50 -50 -5 0 -10 -7 -10 -15 0 -8 -7 -15 -15
-15 -8 0 -15 -7 -15 -15 0 -8 -7 -15 -15 -15 -8 0 -15 -7 -15 -15 0 -8 -7 -15
-16 -15 -8 0 -12 -4 -9 -10 3 -5 1 -10 -4 -10 -17 0 -51 -38 -51 -56 0 -10 -6
-14 -14 -11 -8 3 -16 -2 -19 -15 -3 -11 -10 -17 -16 -13 -6 3 -11 -1 -11 -9 0
-17 -25 -22 -34 -7 -8 12 6 49 19 53 6 2 9 9 8 16 0 7 5 11 12 8 8 -3 17 4 20
15 4 10 11 17 16 14 5 -4 9 -2 9 3 0 11 35 52 44 52 13 0 51 46 48 58 -2 8 1
11 7 7 6 -3 14 1 17 9 3 9 12 16 19 16 7 0 15 7 19 15 3 8 13 15 22 15 10 0
14 5 10 15 -3 9 0 15 9 15 8 0 15 7 15 15 0 8 7 15 15 15 8 0 15 7 15 15 0 8
9 15 21 15 11 0 17 5 14 10 -3 6 1 10 9 10 9 0 16 9 16 20 0 11 7 20 15 20 8
0 15 7 15 15 0 8 7 15 15 15 8 0 15 7 15 16 0 8 4 13 9 9 5 -3 12 4 16 15 4
11 11 18 16 15 5 -4 9 3 9 14 0 12 7 21 15 21 8 0 15 7 15 15 0 8 7 15 15 15
8 0 15 7 15 15 0 8 4 15 10 15 15 0 50 33 50 47 0 7 7 13 15 13 8 0 15 7 15
15 0 8 7 15 15 15 8 0 15 5 15 10 0 6 7 10 15 10 8 0 15 7 15 15 0 8 7 15 15
15 8 0 15 7 15 15 0 8 6 15 14 15 7 0 16 9 19 21 3 12 10 18 16 14 7 -3 11 2
11 14 0 27 12 27 36 -1z m62 -60 c9 -9 5 -17 -13 -34 -14 -13 -25 -28 -25 -35
0 -6 -7 -8 -16 -5 -11 4 -18 -1 -21 -14 -3 -11 -10 -20 -15 -20 -6 0 -8 -7 -4
-15 4 -11 -1 -15 -19 -15 -19 0 -23 -4 -18 -17 4 -10 2 -14 -4 -10 -12 8 -53
-25 -53 -42 0 -6 -7 -11 -15 -11 -8 0 -15 -7 -15 -15 0 -8 -4 -15 -10 -15 -13
0 -50 -37 -50 -50 0 -5 -7 -10 -15 -10 -8 0 -15 -4 -15 -10 0 -13 -37 -50 -50
-50 -5 0 -10 -7 -10 -15 0 -8 -7 -15 -15 -15 -8 0 -15 -6 -15 -14 0 -8 -7 -17
-16 -20 -8 -3 -12 -10 -9 -16 3 -5 -1 -10 -9 -10 -9 0 -16 -6 -16 -14 0 -7 -9
-16 -21 -19 -12 -3 -18 -10 -15 -15 3 -5 -4 -12 -15 -15 -12 -3 -18 -10 -14
-16 3 -7 -3 -11 -15 -11 -12 0 -18 -5 -15 -10 3 -6 -1 -13 -9 -16 -9 -3 -16
-12 -16 -20 0 -8 -7 -14 -15 -14 -8 0 -15 -7 -15 -15 0 -8 -7 -15 -15 -15 -8
0 -15 -4 -15 -10 0 -5 -7 -10 -15 -10 -8 0 -15 -9 -15 -20 0 -13 -5 -18 -15
-14 -10 4 -15 0 -15 -15 0 -12 -6 -20 -12 -18 -7 1 -12 -6 -12 -15 1 -10 -4
-14 -12 -11 -8 3 -14 -1 -14 -11 0 -17 -26 -21 -49 -7 -11 7 -11 10 2 17 9 5
16 14 16 19 1 6 4 10 9 10 12 0 51 43 45 49 -4 3 3 6 15 6 12 0 21 3 21 8 -3
20 2 32 14 29 6 -1 11 6 11 15 -1 10 2 15 8 12 10 -6 84 66 80 79 -1 4 5 7 13
7 8 0 15 5 15 10 0 13 37 50 50 50 6 0 10 7 10 15 0 8 7 15 15 15 8 0 15 7 15
16 0 8 5 12 11 9 6 -4 13 2 16 14 3 11 9 18 14 15 5 -3 9 4 9 15 0 12 6 21 14
21 8 0 17 7 20 16 3 8 10 12 16 9 6 -3 10 3 10 15 0 16 5 20 15 16 10 -4 15 1
15 15 0 12 4 17 11 14 6 -4 13 2 16 14 3 12 12 21 19 21 8 0 14 7 14 16 0 8 4
13 9 9 5 -3 12 4 16 15 3 11 13 20 21 20 8 0 14 7 14 15 0 8 7 15 15 15 8 0
15 7 15 15 0 8 7 15 15 15 8 0 15 7 15 15 0 8 5 15 11 15 7 0 22 11 35 25 13
14 28 25 34 25 5 0 10 7 10 15 0 18 21 20 38 3z m56 -56 c11 -18 -7 -52 -26
-52 -14 0 -18 -5 -14 -15 3 -8 1 -15 -5 -15 -5 0 -20 -11 -33 -25 -13 -14 -31
-25 -41 -25 -11 0 -15 -5 -11 -15 4 -10 -1 -15 -14 -15 -11 0 -20 -7 -20 -15
0 -8 -7 -15 -15 -15 -8 0 -15 -7 -15 -15 0 -8 -7 -15 -15 -15 -8 0 -14 -3 -14
-7 1 -5 1 -15 0 -23 -1 -13 -2 -13 -11 0 -7 12 -10 8 -10 -14 0 -24 -2 -27
-15 -16 -13 10 -15 9 -15 -9 0 -12 -6 -21 -15 -21 -8 0 -15 -7 -15 -15 0 -8
-7 -15 -15 -15 -8 0 -15 -7 -15 -15 0 -8 -7 -15 -15 -15 -8 0 -15 -7 -15 -15
0 -8 -7 -15 -15 -15 -8 0 -15 -7 -15 -15 0 -8 -7 -15 -15 -15 -8 0 -15 -4 -15
-10 0 -15 -33 -50 -47 -50 -7 0 -13 -7 -13 -15 0 -8 -7 -15 -15 -15 -8 0 -15
-7 -15 -15 0 -8 -7 -15 -16 -15 -8 0 -12 -5 -9 -11 4 -6 -2 -13 -13 -16 -13
-3 -19 -10 -15 -20 5 -12 1 -14 -17 -8 -19 6 -22 4 -17 -9 4 -10 1 -16 -8 -16
-8 0 -15 -9 -15 -20 0 -13 -5 -18 -15 -14 -10 4 -15 0 -15 -11 0 -34 -69 -62
-85 -35 -3 6 1 10 9 10 9 0 16 7 16 15 0 8 9 15 20 15 11 0 19 4 17 9 -1 5 10
20 26 34 15 14 27 33 27 41 0 10 7 12 22 8 14 -3 19 -1 14 6 -7 12 27 52 44
52 6 0 10 5 10 10 0 14 37 50 51 50 6 0 9 7 5 15 -3 8 -1 15 4 15 13 0 50 37
50 50 0 6 5 10 11 10 14 0 109 96 109 110 0 6 5 10 10 10 13 0 50 37 50 50 0
6 7 10 15 10 8 0 15 5 15 10 0 13 37 50 50 50 6 0 10 7 10 15 0 9 6 12 15 9 9
-4 15 0 15 9 0 8 7 17 15 21 8 3 15 13 15 22 0 11 5 14 16 10 11 -4 15 -2 11
8 -4 9 2 17 14 21 10 4 19 11 19 16 0 11 27 12 34 1z m60 -67 c5 -13 -46 -65
-65 -65 -5 0 -7 -5 -4 -11 4 -6 -3 -13 -14 -16 -15 -4 -20 -11 -16 -23 5 -15
2 -17 -16 -13 -18 5 -21 3 -16 -10 4 -11 1 -17 -8 -17 -8 0 -15 -7 -15 -15 0
-8 -7 -15 -15 -15 -8 0 -15 -7 -15 -15 0 -8 -5 -15 -10 -15 -6 0 -24 -13 -39
-29 -16 -16 -32 -27 -35 -23 -4 3 -9 -4 -13 -16 -3 -12 -9 -22 -13 -22 -4 0
-10 -9 -13 -21 -3 -12 -10 -18 -16 -14 -6 3 -11 1 -11 -4 0 -14 -37 -51 -50
-51 -5 0 -10 -7 -10 -15 0 -8 -7 -15 -15 -15 -8 0 -15 -7 -15 -15 0 -8 -7 -15
-15 -15 -8 0 -15 -7 -15 -15 0 -8 -7 -15 -15 -15 -8 0 -15 -7 -15 -15 0 -8 -4
-15 -10 -15 -15 0 -50 -33 -50 -47 0 -7 -7 -10 -15 -7 -10 4 -15 0 -15 -11 0
-9 -7 -23 -15 -32 -8 -8 -12 -20 -8 -26 4 -8 1 -7 -9 1 -13 10 -17 10 -22 -3
-5 -15 -56 -22 -56 -7 0 10 38 42 50 42 6 0 10 7 10 15 0 8 7 15 15 15 8 0 15
7 15 15 0 8 7 15 15 15 8 0 15 7 15 15 0 8 7 15 15 15 8 0 15 7 15 15 0 8 5
15 10 15 6 0 10 7 10 15 0 8 7 15 15 15 8 0 15 7 15 15 0 8 7 15 15 15 8 0 15
7 15 15 0 8 5 15 10 15 13 0 50 37 50 50 0 6 7 10 16 10 8 0 13 4 10 9 -3 5 5
16 18 24 32 21 86 77 86 88 0 6 4 8 9 5 5 -3 12 1 15 10 3 8 10 12 16 9 5 -3
10 0 10 8 0 8 7 17 15 21 8 3 15 12 15 20 0 10 6 13 15 10 10 -4 15 0 15 15 0
14 5 19 15 15 10 -4 15 0 15 16 0 12 4 18 10 15 6 -3 13 2 17 12 9 23 43 60
44 47 0 -5 4 1 9 13 10 24 34 23 44 -2z m56 -65 c-7 -4 -9 -13 -6 -19 5 -7 -1
-11 -13 -11 -12 0 -20 -3 -19 -7 4 -12 -35 -53 -49 -53 -7 0 -13 -7 -13 -15 0
-8 -4 -15 -10 -15 -5 0 -10 -7 -10 -15 0 -8 -7 -15 -15 -15 -8 0 -15 -9 -15
-20 0 -11 -4 -19 -9 -17 -5 1 -20 -10 -34 -25 -14 -16 -31 -28 -37 -28 -5 0
-10 -6 -10 -12 0 -7 -16 -24 -34 -38 -20 -14 -31 -30 -28 -39 4 -10 -1 -12
-18 -6 -19 6 -22 4 -17 -9 4 -9 2 -16 -3 -16 -13 0 -50 -37 -50 -50 0 -5 -4
-10 -10 -10 -13 0 -50 -37 -50 -50 0 -5 -7 -7 -15 -4 -11 4 -15 0 -15 -17 0
-12 -3 -20 -6 -17 -7 8 -54 -36 -54 -51 0 -7 -4 -10 -9 -7 -5 3 -11 -1 -15 -9
-6 -17 -56 -21 -56 -5 0 6 7 10 16 10 9 0 14 5 12 12 -5 13 26 48 42 48 6 0
10 7 10 15 0 8 7 15 15 15 8 0 15 7 15 15 0 8 6 15 14 15 7 0 16 9 19 21 3 12
10 18 16 14 6 -3 11 1 11 9 0 9 7 16 15 16 8 0 14 3 13 8 -4 9 39 52 52 52 6
0 10 7 10 16 0 8 5 12 11 9 6 -4 13 2 16 14 3 12 12 21 19 21 8 0 14 7 14 15
0 8 4 15 10 15 16 0 50 33 50 48 0 8 6 12 15 8 9 -3 15 0 15 8 0 7 11 22 26
32 14 10 34 34 45 52 12 17 24 30 29 27 4 -3 10 5 13 16 3 12 10 18 16 14 7
-3 11 2 11 14 0 12 6 21 14 21 8 0 17 7 20 15 5 13 10 14 27 4 16 -8 18 -13 9
-19z m56 -45 c9 -8 11 -15 5 -15 -6 0 -11 -7 -11 -15 0 -8 -7 -15 -15 -15 -8
0 -15 -7 -15 -16 0 -8 -4 -12 -10 -9 -9 6 -14 -8 -11 -27 0 -5 -6 -8 -14 -8
-8 0 -15 -7 -15 -15 0 -8 -5 -15 -11 -15 -17 0 -109 -98 -109 -116 0 -8 -9
-14 -21 -14 -11 0 -17 -4 -14 -10 3 -5 -1 -10 -9 -10 -9 0 -16 -7 -16 -15 0
-8 -7 -15 -15 -15 -8 0 -15 -7 -15 -15 0 -8 -4 -15 -10 -15 -13 0 -56 -43 -52
-52 1 -5 -7 -8 -18 -8 -11 0 -20 -7 -20 -16 0 -8 -4 -12 -10 -9 -5 3 -10 -1
-10 -9 0 -9 -7 -16 -15 -16 -8 0 -15 -9 -15 -20 0 -13 -5 -18 -15 -14 -9 4
-15 0 -15 -10 0 -9 -7 -16 -15 -16 -8 0 -15 -7 -15 -15 0 -11 -11 -15 -36 -15
l-37 0 27 25 c15 14 31 25 37 25 5 0 9 4 9 10 0 13 68 80 81 80 6 0 7 5 4 11
-4 6 2 13 14 16 12 3 21 12 21 19 0 8 7 14 15 14 8 0 15 7 15 16 0 10 6 14 15
10 10 -4 15 1 15 14 0 11 7 20 15 20 8 0 15 7 15 15 0 8 5 15 10 15 13 0 50
37 50 50 0 6 5 10 11 10 14 0 39 25 39 39 0 6 7 11 15 11 8 0 15 4 15 10 0 5
27 37 60 70 33 33 60 65 60 70 0 15 19 12 36 -5z m64 -60 c9 -10 9 -15 1 -15
-6 0 -11 -7 -11 -15 0 -8 -7 -15 -15 -15 -8 0 -15 -7 -15 -15 0 -8 -7 -15 -15
-15 -8 0 -15 -4 -15 -10 0 -12 -37 -50 -49 -50 -5 0 -11 -9 -14 -21 -3 -12
-10 -18 -16 -14 -6 3 -11 0 -11 -7 0 -15 -35 -48 -50 -48 -6 0 -10 -7 -10 -15
0 -8 -7 -15 -16 -15 -8 0 -13 -4 -9 -9 3 -6 -4 -15 -15 -21 -11 -6 -18 -15
-15 -21 4 -5 -4 -9 -15 -9 -16 0 -20 -5 -16 -15 3 -9 0 -15 -9 -15 -8 0 -15
-4 -15 -10 0 -5 -7 -10 -15 -10 -14 0 -20 -12 -16 -33 1 -4 -5 -7 -12 -5 -7 2
-12 0 -12 -4 0 -4 -9 -13 -19 -21 -11 -8 -16 -19 -12 -25 5 -8 -2 -12 -19 -12
-15 0 -24 -4 -20 -10 4 -6 -6 -10 -23 -10 -17 0 -32 6 -35 14 -4 10 0 12 14 9
10 -3 19 0 19 6 0 13 36 51 49 51 5 0 11 10 14 22 4 12 9 19 12 16 8 -8 45 28
45 42 0 6 7 10 15 10 8 0 15 7 15 15 0 8 7 15 15 15 8 0 15 7 15 15 0 8 7 15
16 15 10 0 14 6 10 15 -3 8 -1 15 4 15 12 0 80 68 80 80 0 6 7 10 15 10 8 0
15 5 15 10 0 6 7 10 15 10 8 0 15 9 15 20 0 11 7 20 15 20 8 0 15 7 15 16 0 8
5 12 10 9 6 -3 10 1 10 10 0 9 9 19 21 22 12 3 18 11 15 19 -7 19 28 18 44 -1z
m56 -60 c17 -13 17 -14 2 -15 -10 0 -18 -5 -18 -10 0 -6 -11 -21 -25 -34 -14
-13 -25 -28 -25 -35 0 -6 -4 -11 -10 -11 -13 0 -50 -37 -50 -50 0 -5 -6 -10
-12 -10 -7 0 -22 -14 -33 -30 -11 -16 -26 -30 -32 -30 -7 0 -13 -4 -13 -10 0
-16 -33 -50 -48 -50 -8 0 -12 -6 -8 -15 3 -8 1 -15 -4 -15 -15 0 -50 -33 -50
-47 0 -7 -9 -13 -20 -13 -14 0 -18 -5 -13 -17 4 -11 3 -14 -5 -9 -7 4 -15 1
-18 -8 -7 -18 -64 -23 -64 -6 0 6 7 10 15 10 8 0 15 7 15 15 0 8 7 15 15 15 8
0 15 5 15 10 0 12 36 50 48 50 4 0 13 14 20 30 8 17 20 30 28 30 8 0 14 7 14
15 0 8 7 15 15 15 8 0 15 7 15 15 0 8 5 15 10 15 13 0 50 37 50 50 0 6 7 10
15 10 8 0 15 4 15 9 0 5 16 26 35 47 19 20 35 34 35 30 0 -3 9 3 20 14 11 11
20 27 20 35 0 19 21 19 46 0z m59 -65 c3 -6 1 -10 -4 -10 -6 0 -11 -7 -11 -15
0 -8 -7 -15 -15 -15 -8 0 -15 -7 -15 -15 0 -8 -7 -15 -15 -15 -8 0 -15 -7 -15
-15 0 -8 -7 -15 -15 -15 -8 0 -15 -5 -15 -11 0 -6 -18 -29 -40 -50 -22 -22
-40 -43 -40 -49 0 -5 -5 -10 -11 -10 -13 0 -49 -38 -49 -52 0 -5 -4 -7 -8 -4
-9 6 -35 -21 -45 -47 -3 -9 -14 -17 -22 -17 -9 0 -13 -4 -10 -10 4 -6 -7 -10
-24 -10 -17 0 -31 5 -31 10 0 6 5 10 10 10 6 0 10 7 10 15 0 8 7 15 15 15 8 0
15 7 15 15 0 8 7 15 15 15 8 0 15 7 15 16 0 8 5 12 11 9 6 -4 13 2 16 14 3 12
12 21 19 21 8 0 14 4 14 10 0 12 73 85 83 82 4 -1 6 1 5 5 -4 10 39 53 52 53
6 0 10 7 10 15 0 8 7 15 15 15 8 0 15 7 15 15 0 8 5 15 10 15 6 0 10 9 10 20
0 17 3 19 19 10 11 -5 23 -15 26 -20z m53 -49 c12 -7 12 -12 1 -30 -8 -11 -19
-21 -26 -21 -7 0 -13 -7 -13 -15 0 -8 -7 -15 -15 -15 -8 0 -15 -7 -15 -15 0
-8 -7 -15 -15 -15 -8 0 -15 -7 -15 -15 0 -8 -7 -15 -15 -15 -8 0 -15 -7 -15
-15 0 -8 -7 -15 -16 -15 -10 0 -14 -6 -11 -14 4 -10 1 -13 -9 -9 -7 3 -14 0
-14 -6 0 -14 -36 -51 -50 -51 -5 0 -10 -9 -10 -21 0 -15 -5 -19 -15 -15 -9 3
-15 0 -15 -9 0 -10 -10 -15 -30 -15 -16 0 -30 5 -30 10 0 6 7 10 15 10 8 0 15
9 15 20 0 11 3 19 8 18 14 -5 50 35 44 50 -3 10 -1 13 7 8 11 -7 121 92 121
109 0 13 29 35 45 35 11 0 15 5 11 15 -3 9 0 15 9 15 8 0 15 7 15 15 0 17 18
19 38 6z m62 -66 c9 -10 9 -15 1 -15 -6 0 -11 -4 -11 -10 0 -16 -33 -50 -48
-50 -8 0 -12 -6 -8 -15 4 -10 -1 -15 -14 -15 -11 0 -20 -7 -20 -15 0 -8 -7
-15 -15 -15 -8 0 -15 -7 -15 -16 0 -8 -5 -12 -10 -9 -6 3 -13 -1 -16 -9 -3 -9
-12 -16 -20 -16 -8 0 -14 -9 -14 -21 0 -11 -5 -17 -10 -14 -6 3 -13 -1 -16 -9
-5 -14 -54 -24 -54 -11 0 10 40 45 51 45 6 0 9 7 5 15 -4 10 1 15 15 15 11 0
18 4 14 9 -3 6 4 15 15 21 11 6 18 15 15 19 -2 5 3 11 13 13 10 3 25 18 33 34
7 16 20 29 27 29 6 0 11 3 10 6 -3 7 43 48 53 49 4 0 12 -7 19 -15z m64 -60
c3 -8 1 -15 -4 -15 -6 0 -10 -7 -10 -15 0 -8 -5 -15 -11 -15 -12 0 -79 -66
-79 -78 0 -10 -43 -37 -54 -34 -5 2 -6 -4 -3 -13 5 -12 -1 -15 -28 -15 -19 0
-35 5 -35 10 0 6 9 10 20 10 11 0 19 3 19 8 -3 17 1 35 7 30 7 -8 50 34 47 45
-2 4 6 7 18 7 11 0 17 5 14 10 -3 6 1 13 9 16 9 3 16 12 16 20 0 8 7 14 15 14
8 0 15 7 15 15 0 8 9 15 19 15 10 0 21 -7 25 -15z m57 -62 c10 -11 10 -14 2
-9 -9 5 -13 0 -13 -13 0 -12 -4 -21 -10 -21 -15 0 -50 -33 -50 -47 0 -7 -7
-13 -15 -13 -8 0 -15 -4 -15 -10 0 -5 -15 -10 -32 -10 -30 1 -31 2 -15 14 9 7
17 18 17 25 0 6 7 11 15 11 8 0 15 9 15 20 0 13 5 18 15 14 9 -4 15 0 15 10 0
9 7 16 15 16 8 0 15 7 15 15 0 20 24 19 41 -2z m50 -50 c13 -14 18 -23 12 -19
-9 5 -13 0 -13 -14 0 -16 -5 -20 -15 -16 -9 3 -15 0 -15 -9 0 -10 -10 -15 -30
-15 -16 0 -30 5 -30 10 0 6 7 10 15 10 8 0 15 7 15 15 0 8 7 15 15 15 9 0 15
9 15 25 0 31 1 31 31 -2z m69 -63 c11 -7 7 -10 -18 -10 -20 0 -31 4 -27 10 8
13 26 13 45 0z m-1524 -330 c78 -157 148 -298 156 -315 8 -16 35 -70 60 -120
151 -301 188 -377 188 -385 0 -12 -2239 -13 -2258 -1 -10 6 -12 61 -8 262 3
140 5 388 6 552 l0 297 857 -2 857 -3 142 -285z m1887 -38 c380 -381 612 -613
707 -706 38 -38 70 -73 70 -78 0 -4 -499 -8 -1109 -8 l-1109 0 -227 458 c-125
251 -243 491 -263 532 -21 41 -43 81 -49 88 -36 37 -37 37 826 34 l838 -3 316
-317z"/>
<path d="M9542 3225 c-14 -27 -1 -74 30 -105 39 -40 36 -75 -7 -75 -25 0 -30
4 -33 28 -4 33 -17 35 -26 5 -12 -47 -8 -53 41 -56 36 -2 51 2 70 20 32 30 29
58 -12 98 -35 34 -44 63 -25 75 17 11 49 -5 56 -27 5 -16 8 -18 15 -7 5 8 9
23 9 35 0 18 -6 21 -54 23 -41 1 -57 -3 -64 -14z"/>
<path d="M10145 2060 c7 -22 -29 -155 -47 -177 -8 -10 -2 -13 27 -13 29 0 36
3 31 15 -3 8 -3 28 0 44 5 24 12 29 45 34 52 7 69 22 69 63 0 41 -21 54 -85
54 -42 0 -46 -2 -40 -20z m91 -22 c5 -17 0 -28 -21 -46 -36 -31 -50 -16 -30
31 17 41 40 48 51 15z"/>
<path d="M2070 6299 c0 -6 -13 -40 -30 -76 -16 -35 -30 -68 -30 -72 0 -5 -9
-20 -21 -35 l-20 -26 34 0 c32 0 33 2 29 30 -4 29 -3 30 37 30 45 0 63 -19 41
-45 -11 -13 -6 -15 36 -15 l47 0 -21 23 c-12 13 -22 29 -22 36 0 7 -6 27 -14
44 -7 18 -21 51 -31 75 -17 39 -35 56 -35 31z m25 -119 c-6 -10 -45 -15 -45
-6 0 3 5 17 10 32 l11 27 15 -21 c8 -12 12 -27 9 -32z"/>
<path d="M2902 6293 c-10 -4 -9 -8 3 -17 14 -10 14 -16 -1 -66 -25 -85 -36
-110 -45 -110 -5 0 -9 -4 -9 -10 0 -5 19 -10 41 -10 35 0 40 2 30 14 -8 10 -9
25 -3 48 7 26 13 32 30 30 27 -4 80 26 88 50 8 28 -4 54 -32 66 -25 12 -78 15
-102 5z m96 -46 c4 -21 -24 -57 -45 -57 -16 0 -17 34 -2 61 12 24 42 21 47 -4z"/>
<path d="M2217 6123 c-13 -12 -7 -33 8 -33 8 0 15 9 15 20 0 20 -11 26 -23 13z"/>
<path d="M8186 5704 c-9 -8 -16 -22 -16 -30 0 -13 5 -12 30 3 28 16 31 16 46
1 24 -23 11 -63 -37 -111 -21 -22 -39 -44 -39 -49 0 -4 27 -8 60 -8 45 0 62 4
67 15 7 21 -4 32 -19 17 -7 -7 -25 -12 -41 -12 l-29 0 35 39 c43 48 55 92 33
126 -19 29 -66 34 -90 9z"/>
<path d="M8363 5653 c-24 -36 -43 -72 -43 -79 0 -8 15 -14 38 -16 30 -2 38 -7
40 -25 5 -31 32 -30 32 1 0 13 6 27 13 30 10 5 10 7 0 12 -9 4 -13 29 -13 75
0 49 -4 69 -12 69 -7 0 -32 -31 -55 -67z m33 -59 c-5 -14 -46 -20 -46 -6 0 4
10 23 22 42 l23 35 3 -28 c2 -16 1 -35 -2 -43z"/>
<path d="M1970 5570 c0 -5 7 -10 15 -10 12 0 15 -16 15 -83 0 -51 -5 -88 -12
-95 -14 -14 2 -16 87 -13 73 3 110 55 69 96 -13 12 -14 19 -5 28 20 20 12 52
-18 70 -32 19 -151 24 -151 7z m116 -18 c36 -24 12 -79 -30 -66 -29 9 -29 9
-21 43 6 30 27 40 51 23z m24 -113 c16 -29 -5 -51 -44 -47 -31 3 -44 24 -32
54 9 22 63 18 76 -7z"/>
<path d="M2933 5553 c-72 -48 -95 -133 -48 -177 l25 -24 -25 -16 c-14 -9 -25
-20 -25 -25 0 -4 28 -11 63 -14 67 -6 127 13 127 39 0 12 -4 12 -25 -2 -32
-21 -113 -11 -94 12 6 8 18 14 26 14 29 0 71 30 92 65 61 104 -19 192 -116
128z m85 -5 c31 -31 -5 -149 -50 -164 -52 -18 -71 2 -62 66 4 31 15 55 37 78
33 34 55 40 75 20z"/>
<path d="M2202 5383 c2 -10 10 -18 18 -18 8 0 16 8 18 18 2 12 -3 17 -18 17
-15 0 -20 -5 -18 -17z"/>
<path d="M2047 4855 c-47 -24 -66 -55 -67 -106 0 -65 22 -90 86 -96 40 -4 54
-1 77 17 15 12 24 26 21 32 -4 5 -15 1 -28 -11 -26 -24 -64 -27 -91 -7 -15 10
-19 27 -19 70 -1 49 2 60 24 76 33 26 36 25 72 -10 35 -35 43 -33 34 7 -4 18
-13 29 -24 29 -9 0 -26 3 -37 7 -11 4 -33 0 -48 -8z"/>
<path d="M2908 4847 c13 -16 -9 -114 -38 -168 -12 -22 -3 -29 33 -29 23 0 27
3 19 13 -13 15 -1 79 16 85 6 2 15 -5 18 -15 17 -55 35 -83 53 -83 11 0 23 5
26 10 3 6 1 10 -5 10 -6 0 -19 19 -29 43 l-18 42 29 12 c22 9 28 19 28 42 0
38 -23 51 -91 51 -41 0 -49 -3 -41 -13z m92 -27 c11 -20 -15 -50 -44 -50 -15
0 -16 6 -11 33 4 17 9 35 11 39 7 11 34 -2 44 -22z"/>
<path d="M2195 4680 c-7 -12 2 -30 16 -30 5 0 9 9 9 20 0 21 -15 27 -25 10z"/>
<path d="M2897 4122 c-25 -28 -21 -46 23 -97 40 -46 43 -69 10 -80 -26 -8 -49
4 -56 31 -8 31 -24 21 -24 -15 0 -24 5 -29 33 -34 52 -8 87 3 98 30 14 39 11
50 -26 86 -44 43 -48 80 -7 75 16 -2 31 -12 37 -25 14 -33 25 -28 25 10 0 33
-1 34 -48 36 -36 1 -53 -4 -65 -17z"/>
<path d="M1988 4119 c7 -8 12 -43 12 -95 0 -55 -4 -86 -12 -91 -18 -11 67 -20
115 -12 54 9 77 40 77 106 0 77 -18 92 -123 100 -68 5 -80 3 -69 -8z m116 -19
c17 -6 29 -22 37 -49 10 -34 9 -44 -8 -73 -15 -27 -26 -34 -56 -36 l-37 -3 0
85 c0 94 4 99 64 76z"/>
<path d="M2222 3933 c2 -10 8 -18 13 -18 5 0 11 8 13 18 2 10 -3 17 -13 17
-10 0 -15 -7 -13 -17z"/>
<path d="M10940 3590 c0 -5 5 -10 11 -10 7 0 8 -7 4 -17 -4 -10 -11 -35 -16
-57 -5 -21 -18 -56 -28 -77 l-19 -39 35 0 c28 0 33 3 29 18 -8 25 8 77 24 77
7 0 20 -22 29 -50 13 -41 20 -49 37 -47 l21 3 -23 46 -22 46 29 24 c30 26 38
60 17 81 -14 14 -128 16 -128 2z m97 -26 c7 -19 -28 -57 -49 -52 -13 3 -13 8
-1 36 14 34 40 43 50 16z"/>
<path d="M8194 3445 c-17 -13 -17 -14 -1 -15 15 0 17 -11 17 -80 0 -65 -3 -81
-17 -89 -14 -8 -7 -10 32 -10 28 0 44 3 38 6 -9 3 -13 34 -13 104 0 89 -2 99
-18 99 -10 0 -27 -7 -38 -15z"/>
<path d="M8326 3444 c-9 -8 -16 -23 -16 -31 0 -14 2 -14 18 0 23 21 46 22 62
2 18 -22 -3 -72 -52 -122 l-42 -43 65 0 c53 0 66 3 77 20 14 22 14 22 -45 11
l-41 -8 39 49 c58 74 48 138 -21 138 -16 0 -36 -7 -44 -16z"/>
<path d="M12117 2465 c-63 -43 -87 -135 -45 -177 l21 -21 -23 -19 c-12 -10
-21 -20 -19 -22 2 -2 26 -8 52 -15 51 -12 76 -8 114 17 29 18 19 36 -10 18
-30 -18 -113 -10 -97 9 6 8 26 17 43 20 40 9 64 30 88 77 26 50 24 84 -6 113
-31 32 -70 32 -118 0z m92 -9 c20 -24 3 -103 -30 -137 -48 -49 -89 -34 -89 34
0 75 83 146 119 103z"/>
<path d="M8359 2267 c-19 -12 -43 -40 -53 -61 -17 -34 -17 -43 -6 -75 17 -50
28 -61 60 -61 36 0 64 33 64 77 0 41 -26 67 -61 60 -13 -2 -23 -1 -23 3 0 11
55 60 68 60 7 0 12 5 12 10 0 17 -25 11 -61 -13z m22 -101 c15 -33 4 -78 -19
-74 -23 4 -39 63 -22 83 18 21 29 19 41 -9z"/>
<path d="M8301 881 c-36 -10 -88 -69 -96 -108 -9 -50 2 -90 28 -97 72 -19 126
8 158 78 25 55 24 78 -6 110 -24 26 -40 30 -84 17z m57 -23 c30 -30 -3 -129
-52 -162 -21 -13 -29 -14 -45 -4 -31 19 -34 54 -9 105 33 65 76 91 106 61z"/>
<path d="M13978 874 c-4 -3 2 -14 13 -25 10 -10 19 -27 19 -37 0 -20 -29 -52
-44 -49 -5 1 -11 -4 -13 -10 -8 -22 28 -14 48 10 l19 22 6 -22 c7 -26 39 -31
48 -7 9 22 8 24 -8 18 -8 -3 -15 4 -18 19 -6 32 8 57 32 57 24 0 26 18 3 27
-10 4 -23 -2 -33 -15 -17 -21 -18 -21 -23 -2 -5 19 -36 27 -49 14z"/>
<path d="M10778 856 c-20 -14 -25 -31 -7 -20 8 4 10 -22 8 -90 l-4 -96 33 0
c17 0 32 5 32 10 0 6 -4 10 -10 10 -6 0 -10 40 -10 100 0 104 -5 115 -42 86z"/>
<path d="M10896 848 c-26 -37 -20 -53 10 -29 20 16 31 18 45 10 31 -16 22 -53
-26 -107 -25 -27 -45 -55 -45 -61 0 -7 24 -11 65 -11 63 0 65 1 65 25 0 22 -3
24 -19 15 -23 -12 -61 -13 -61 -2 0 4 12 18 26 31 58 55 66 123 17 142 -39 14
-61 11 -77 -13z"/>
<path d="M13004 845 c-21 -32 -11 -44 16 -20 10 9 26 15 35 11 39 -15 27 -68
-31 -133 -19 -21 -34 -41 -34 -45 0 -5 25 -8 56 -8 42 0 60 4 70 18 22 28 17
32 -33 25 l-47 -6 37 45 c61 74 48 138 -27 138 -16 0 -32 -9 -42 -25z"/>
<path d="M13208 833 c-72 -109 -74 -120 -20 -125 32 -3 37 -6 37 -27 0 -13 6
-26 13 -28 7 -3 12 5 12 21 0 14 8 30 18 36 16 10 16 10 0 20 -14 9 -18 25
-18 75 0 36 -4 65 -9 65 -4 0 -19 -17 -33 -37z m17 -90 c-5 -16 -45 -17 -45
-2 0 6 8 24 17 40 l18 30 7 -28 c4 -15 6 -34 3 -40z"/>
</g>
</svg>
