<?xml version="1.0" standalone="no"?>
<!DOCTYPE svg PUBLIC "-//W3C//DTD SVG 20010904//EN"
 "http://www.w3.org/TR/2001/REC-SVG-20010904/DTD/svg10.dtd">
<svg version="1.0" xmlns="http://www.w3.org/2000/svg"
 width="1439.000000pt" height="590.000000pt" viewBox="0 0 1439.000000 590.000000"
 preserveAspectRatio="xMidYMid meet">
<metadata>
Created by potrace 1.16, written by Peter Selinger 2001-2019
</metadata>
<g transform="translate(0.000000,590.000000) scale(0.100000,-0.100000)"
fill="#000000" stroke="none">
<path d="M1170 5580 c0 -5 5 -10 10 -10 6 0 10 -4 10 -10 0 -5 -9 -10 -20 -10
-11 0 -20 -4 -20 -10 0 -6 27 -10 60 -10 33 0 60 4 60 10 0 6 -10 10 -23 10
-12 0 -30 9 -40 20 -18 21 -37 26 -37 10z"/>
<path d="M1328 5582 c-32 -3 -38 -7 -38 -27 0 -13 -5 -35 -12 -49 -9 -21 -13
-23 -22 -11 -8 10 -23 13 -53 8 -56 -7 -55 -23 1 -23 25 0 48 -4 51 -10 11
-18 45 14 56 53 12 44 43 49 45 7 0 -14 1 -31 2 -37 2 -15 72 -18 72 -3 0 6
-11 10 -25 10 -22 0 -25 4 -25 39 0 46 -2 47 -52 43z"/>
<path d="M299 5554 l-24 -26 30 6 c17 3 36 2 44 -3 18 -12 5 -48 -21 -57 -20
-6 -19 -7 10 -20 57 -24 32 -79 -31 -67 -32 6 -37 -11 -7 -27 25 -13 76 11 91
43 12 26 -3 77 -22 77 -8 0 -6 7 4 18 23 25 21 48 -5 66 -31 22 -41 20 -69
-10z"/>
<path d="M1965 5570 c-8 -12 10 -21 29 -14 38 14 10 -134 -38 -207 -16 -24
-21 -39 -14 -39 18 1 61 66 78 119 l14 44 9 -29 c5 -16 16 -36 23 -45 21 -24
17 -35 -18 -51 -18 -8 -44 -20 -58 -26 -24 -10 -23 -11 13 -11 20 -1 37 3 37
9 0 5 11 12 25 16 14 3 25 10 25 14 0 4 16 0 35 -8 19 -9 35 -20 35 -24 0 -4
14 -8 30 -8 40 0 38 13 -3 28 -18 6 -41 18 -51 25 -16 11 -16 15 -4 28 26 26
59 89 53 98 -3 6 -19 8 -36 4 l-30 -6 15 38 c9 21 16 40 16 44 0 9 -179 11
-185 1z m145 -22 c-1 -43 -13 -58 -46 -58 -32 0 -34 2 -34 35 0 34 1 35 40 35
25 0 40 -5 40 -12z m23 -118 c-15 -22 -30 -40 -35 -40 -4 0 -17 18 -28 40
l-20 40 54 0 55 0 -26 -40z"/>
<path d="M2466 5573 c-14 -4 -16 -7 -6 -13 14 -9 10 -32 -28 -137 -20 -57 -12
-73 37 -73 52 0 91 43 91 101 0 40 -4 43 -56 42 -7 0 -10 15 -6 43 2 24 1 43
-4 43 -5 -1 -18 -4 -28 -6z m64 -128 c0 -37 -28 -75 -55 -75 -22 0 -23 2 -12
38 14 48 25 62 48 62 14 0 19 -7 19 -25z"/>
<path d="M2760 5540 c0 -33 -3 -40 -20 -40 -11 0 -20 -4 -20 -10 0 -5 9 -10
20 -10 17 0 20 -7 20 -50 0 -43 -3 -50 -20 -50 -19 0 -27 -19 -14 -33 3 -3 25
6 48 20 36 24 50 26 116 24 57 -2 72 0 63 9 -7 8 -39 11 -93 9 l-81 -4 3 35
c2 24 9 36 21 38 9 2 17 -3 17 -10 0 -9 18 -14 61 -16 47 -3 60 0 57 10 -3 9
-19 12 -47 10 -41 -4 -42 -3 -29 17 10 17 23 21 60 21 l48 0 -1 -62 c-1 -91
-10 -113 -42 -113 -32 1 -35 -10 -7 -25 51 -27 65 0 76 148 l6 72 -61 0 c-58
0 -61 1 -51 19 13 26 13 31 -4 31 -8 0 -22 -20 -31 -45 -14 -35 -21 -43 -34
-36 -9 5 -22 6 -28 4 -16 -6 -18 43 -3 52 17 10 11 25 -10 25 -17 0 -20 -7
-20 -40z"/>
<path d="M3109 5562 c15 -28 14 -30 -11 -35 -14 -3 -9 -5 15 -6 23 0 37 -6 37
-14 0 -18 -66 -153 -79 -161 -16 -10 -14 -26 2 -20 8 3 24 23 36 44 l22 40 90
0 c96 0 99 -2 79 -54 -7 -18 -17 -26 -34 -26 -17 0 -24 5 -20 13 5 15 -21 55
-31 45 -12 -11 25 -76 47 -81 41 -11 55 8 73 101 6 31 6 33 -19 26 -27 -6 -34
4 -15 23 16 16 1 36 -22 30 -20 -5 -26 7 -9 18 5 3 7 12 4 20 -4 10 -18 12
-55 8 -32 -4 -49 -2 -49 5 0 6 5 14 10 17 17 10 11 25 -10 25 -15 0 -20 -7
-20 -27 l0 -28 -13 24 c-6 14 -18 26 -25 29 -11 3 -12 0 -3 -16z m131 -62 c0
-16 -7 -20 -35 -20 -37 0 -50 25 -17 33 38 10 52 7 52 -13z m8 -36 c12 -4 22
-13 22 -20 0 -11 -16 -14 -65 -14 -52 0 -63 3 -59 14 5 13 18 17 69 24 6 1 20
-1 33 -4z"/>
<path d="M3455 5550 c15 -29 15 -30 -5 -30 -11 0 -20 6 -20 13 -1 15 -29 -33
-30 -50 0 -7 5 -13 10 -13 6 0 10 9 10 20 0 19 7 20 105 20 89 0 104 -2 99
-15 -8 -21 9 -19 29 3 22 25 13 32 -31 25 l-37 -6 29 25 c19 17 24 28 16 33
-13 8 -50 -22 -50 -42 0 -7 -6 -13 -14 -13 -17 0 -31 33 -17 38 19 6 12 22 -9
22 -16 0 -20 -7 -20 -30 0 -20 -5 -30 -15 -30 -8 0 -15 6 -15 13 0 14 -31 47
-44 47 -3 0 0 -13 9 -30z"/>
<path d="M3800 5564 c0 -13 -7 -15 -30 -10 -26 5 -30 2 -31 -17 -1 -12 0 -26
1 -32 1 -5 3 -30 3 -55 2 -42 4 -45 27 -42 17 3 22 0 15 -6 -5 -6 -23 -12 -40
-15 -28 -4 -29 -5 -7 -12 12 -4 22 -14 22 -21 0 -8 8 -14 18 -15 11 0 5 -6
-15 -16 -18 -9 -33 -20 -33 -25 0 -11 0 -10 50 7 38 13 46 13 73 0 28 -14 32
-14 62 9 l32 25 21 -21 c13 -14 26 -18 39 -14 16 7 15 9 -10 23 -25 12 -28 19
-24 46 6 39 29 100 41 109 6 4 4 13 -4 23 -9 11 -16 13 -24 5 -5 -5 -20 -10
-32 -10 -18 0 -21 4 -16 23 3 12 10 25 16 30 8 5 6 10 -4 16 -18 13 -30 5 -30
-20 0 -11 -4 -28 -9 -37 -14 -29 -23 -74 -12 -68 13 9 30 -75 19 -96 -10 -22
-48 -43 -48 -28 0 5 -7 10 -16 10 -11 0 -14 5 -10 16 3 9 6 18 6 20 0 2 11 4
25 4 31 0 33 16 3 24 -18 5 -20 8 -9 15 10 6 12 20 8 45 -4 26 -1 40 10 52 11
10 13 18 6 22 -6 4 -13 12 -15 17 -1 6 -13 9 -25 7 -15 -2 -23 2 -23 13 0 8
-7 15 -15 15 -8 0 -15 -7 -15 -16z m-5 -34 c3 -5 -1 -10 -10 -10 -9 0 -13 5
-10 10 3 6 8 10 10 10 2 0 7 -4 10 -10z m52 -6 c-3 -3 -12 -4 -19 -1 -8 3 -5
6 6 6 11 1 17 -2 13 -5z m-50 -20 c-3 -3 -12 -4 -19 -1 -8 3 -5 6 6 6 11 1 17
-2 13 -5z m50 0 c-3 -3 -12 -4 -19 -1 -8 3 -5 6 6 6 11 1 17 -2 13 -5z m112
-80 l-11 -29 -11 25 c-6 14 -16 28 -22 32 -13 9 3 25 30 30 25 4 30 -18 14
-58z m-166 49 c-7 -2 -19 -2 -25 0 -7 3 -2 5 12 5 14 0 19 -2 13 -5z m60 0
c-7 -2 -19 -2 -25 0 -7 3 -2 5 12 5 14 0 19 -2 13 -5z m-53 -33 c0 -5 -7 -10
-15 -10 -8 0 -15 5 -15 10 0 6 7 10 15 10 8 0 15 -4 15 -10z m48 -2 c-3 -7 -8
-13 -13 -13 -5 0 -10 6 -12 13 -3 6 3 12 12 12 9 0 15 -6 13 -12z m-13 -38
c-3 -5 -11 -10 -16 -10 -6 0 -7 5 -4 10 3 6 11 10 16 10 6 0 7 -4 4 -10z m-15
-40 c-19 -13 -30 -13 -30 0 0 6 10 10 23 10 18 0 19 -2 7 -10z"/>
<path d="M4590 5559 c0 -17 -5 -20 -31 -17 -18 2 -30 -1 -28 -7 2 -5 18 -9 35
-7 25 3 33 -1 38 -20 l7 -23 9 23 c5 12 16 22 25 22 8 0 15 5 15 11 0 7 -9 9
-21 6 -14 -4 -19 -2 -15 8 2 7 -2 16 -10 19 -23 9 -24 8 -24 -15z"/>
<path d="M4713 5560 c-3 -12 -11 -19 -19 -16 -7 3 -16 1 -19 -5 -4 -5 1 -12 9
-15 9 -3 16 -13 16 -22 0 -13 2 -13 18 1 9 8 33 17 52 19 19 2 33 8 30 13 -3
6 -20 9 -39 7 -27 -3 -32 0 -28 12 3 8 2 18 -4 22 -6 3 -13 -4 -16 -16z"/>
<path d="M446 5554 c-3 -9 -6 -22 -6 -30 0 -13 3 -13 22 0 12 9 33 16 46 16
21 0 23 -4 17 -22 -3 -13 -10 -37 -14 -53 -4 -17 -13 -40 -19 -52 -14 -25 -16
-63 -4 -63 11 0 32 45 32 66 0 9 6 30 14 47 8 18 19 49 25 70 l9 37 -58 0
c-44 0 -59 -4 -64 -16z"/>
<path d="M4870 5430 l0 -141 23 7 c34 11 211 7 215 -6 2 -5 8 -8 13 -4 12 7
12 284 0 284 -6 0 -13 -5 -17 -11 -7 -12 -204 -6 -224 6 -7 4 -10 -40 -10
-135z m149 94 c2 -2 -10 -4 -27 -4 -17 0 -34 4 -37 10 -5 9 53 3 64 -6z m-79
-18 c0 -18 7 -26 23 -29 12 -2 1 -5 -25 -6 -47 -1 -48 0 -48 29 0 25 4 30 25
30 20 0 25 -5 25 -24z m170 -76 c0 -90 -2 -101 -19 -108 -21 -8 -166 -3 -158
5 10 9 112 9 125 0 9 -7 12 5 12 52 0 46 4 63 15 67 30 12 14 24 -32 25 -30 1
-37 4 -20 6 21 3 27 10 27 29 0 19 5 24 25 24 l25 0 0 -100z m-92 73 c-10 -2
-28 -2 -40 0 -13 2 -5 4 17 4 22 1 32 -1 23 -4z m-98 -118 c0 -51 -3 -65 -15
-65 -12 0 -15 14 -15 65 0 51 3 65 15 65 12 0 15 -14 15 -65z m32 5 c-2 -16
-6 -30 -8 -30 -2 0 -4 14 -4 30 0 17 4 30 8 30 5 0 7 -13 4 -30z m61 23 c-7
-2 -21 -2 -30 0 -10 3 -4 5 12 5 17 0 24 -2 18 -5z m45 -26 c3 -22 -1 -27 -20
-27 -13 0 -18 4 -12 8 14 9 25 40 16 45 -4 2 -2 3 3 2 6 -1 11 -14 13 -28z
m-43 3 c3 -5 -3 -10 -14 -10 -12 0 -21 5 -21 10 0 6 6 10 14 10 8 0 18 -4 21
-10z m-18 -36 c-3 -3 -12 -4 -19 -1 -8 3 -5 6 6 6 11 1 17 -2 13 -5z"/>
<path d="M5320 5539 l0 -32 -50 5 -50 5 0 -68 c0 -63 9 -85 25 -59 3 6 22 10
41 10 l34 0 0 -61 c0 -44 3 -60 13 -57 7 3 13 25 14 53 1 26 5 50 8 53 3 3 27
6 53 6 l47 0 -1 60 -1 61 -52 -3 c-53 -4 -53 -4 -49 24 2 21 -2 30 -14 32 -14
3 -18 -3 -18 -29z m0 -90 l0 -40 -37 3 c-36 3 -38 5 -41 41 l-3 37 40 0 41 0
0 -41z m110 1 l0 -40 -40 0 -40 0 0 40 0 40 40 0 40 0 0 -40z"/>
<path d="M5598 5550 l-48 -15 0 -76 c0 -42 -7 -98 -15 -125 -18 -58 -17 -54
-6 -54 11 0 41 73 41 100 0 17 7 20 48 20 l47 0 0 48 -1 47 -47 -3 c-36 -3
-47 0 -47 11 0 16 20 27 48 27 25 0 49 18 37 27 -6 5 -31 2 -57 -7z m37 -110
c0 -21 -5 -25 -30 -25 -25 0 -30 4 -33 28 -3 27 -1 28 30 25 28 -2 33 -7 33
-28z"/>
<path d="M5743 5550 c-18 -11 -40 -17 -48 -14 -12 5 -15 -5 -15 -61 0 -74 -15
-140 -38 -168 -23 -26 -7 -32 18 -7 13 13 27 46 34 83 10 51 16 63 34 65 21 3
22 0 22 -82 0 -71 3 -86 16 -86 9 0 14 8 13 18 -1 9 -1 47 0 85 1 60 3 67 21
67 11 0 20 5 20 10 0 6 -25 10 -55 10 -51 0 -55 2 -55 24 0 20 7 26 46 35 26
7 44 17 42 23 -7 19 -21 18 -55 -2z"/>
<path d="M6255 5541 c5 -17 2 -21 -14 -21 -12 0 -21 -4 -21 -10 0 -5 18 -10
39 -10 l39 0 -19 -51 c-11 -29 -33 -71 -50 -95 -18 -27 -25 -44 -17 -44 7 0
24 17 38 38 13 20 25 39 27 41 1 2 28 4 58 5 56 1 57 1 72 -34 12 -27 17 -31
20 -17 3 10 -1 24 -7 32 -10 12 -9 15 9 15 15 0 21 -6 21 -22 -1 -32 -23 -58
-51 -58 l-23 0 23 -17 c33 -23 52 -8 68 53 17 65 17 64 -12 64 -25 0 -35 23
-15 35 15 9 2 25 -21 25 -20 0 -26 15 -9 25 19 12 -1 25 -33 21 -44 -5 -59 3
-52 25 4 13 1 19 -9 19 -11 0 -16 -9 -16 -27 l0 -28 -13 24 c-16 32 -42 42
-32 12z m125 -61 c0 -21 -10 -24 -47 -14 -37 10 -28 34 12 34 28 0 35 -4 35
-20z m30 -50 c0 -18 -7 -20 -60 -20 -43 0 -60 4 -60 13 0 23 11 27 67 27 46 0
53 -2 53 -20z"/>
<path d="M5900 5531 c0 -9 7 -11 23 -7 12 3 60 6 106 6 46 0 81 3 77 7 -3 4
-51 7 -106 7 -78 1 -100 -2 -100 -13z"/>
<path d="M8576 5525 c-4 -14 -13 -25 -21 -25 -11 0 -15 -13 -16 -52 0 -29 -2
-69 -5 -88 -4 -37 13 -76 23 -52 6 15 45 16 61 0 17 -17 21 -8 23 52 2 37 8
61 21 74 10 11 18 27 18 36 0 13 11 16 51 17 l51 1 -6 -67 c-12 -119 -14 -124
-47 -117 -36 7 -38 -11 -3 -24 49 -19 70 24 76 152 l3 77 -59 -6 c-58 -6 -58
-6 -46 16 13 26 8 36 -15 28 -8 -4 -15 -19 -15 -34 0 -15 -8 -37 -16 -48 -15
-19 -15 -19 -12 10 3 28 1 30 -25 27 -26 -3 -28 -2 -18 17 14 26 14 31 -3 31
-8 0 -17 -11 -20 -25z m39 -75 c0 -20 -6 -26 -27 -28 -25 -3 -28 0 -28 28 0
28 3 31 28 28 21 -2 27 -8 27 -28z m2 -85 c1 -32 -1 -35 -28 -35 -27 0 -29 3
-29 35 0 32 3 35 28 35 24 0 27 -4 29 -35z"/>
<path d="M8875 5412 l0 -133 128 -2 127 -2 2 123 c0 67 1 127 2 133 1 7 -42
11 -129 12 l-130 2 0 -133z m65 73 c0 -33 1 -35 28 -29 21 5 25 4 15 -6 -7 -8
-24 -10 -47 -6 -33 6 -36 10 -36 41 0 28 4 35 20 35 16 0 20 -7 20 -35z m93
28 c-13 -2 -35 -2 -50 0 -16 2 -5 4 22 4 28 0 40 -2 28 -4z m77 -103 l0 -110
-87 2 -88 2 73 3 74 4 -4 59 c-2 43 1 60 10 60 6 0 12 5 12 11 0 7 -16 8 -45
3 -30 -4 -45 -3 -45 5 0 6 13 11 30 11 27 0 29 3 26 30 -3 26 0 30 20 30 24 0
24 -1 24 -110z m-72 73 c2 -9 -8 -13 -32 -13 -34 0 -52 11 -39 24 11 11 66 2
71 -11z m-113 -118 c0 -45 -4 -65 -12 -65 -9 0 -13 21 -13 70 0 51 3 68 13 65
8 -4 12 -27 12 -70z m108 58 c-18 -2 -48 -2 -65 0 -18 2 -4 4 32 4 36 0 50 -2
33 -4z m-13 -31 c3 -2 -10 -3 -27 0 -32 4 -33 3 -33 -31 0 -22 -3 -31 -8 -23
-5 7 -7 26 -4 42 4 27 7 29 36 23 17 -3 33 -8 36 -11z m30 -22 l0 -40 -42 2
-43 1 38 4 c35 4 37 6 37 39 0 19 2 34 5 34 3 0 5 -18 5 -40z m-30 -6 c0 -2
-9 -4 -21 -4 -11 0 -18 4 -14 10 5 8 35 3 35 -6z"/>
<path d="M9250 5536 c0 -8 -13 -41 -30 -72 -16 -32 -27 -60 -24 -63 3 -3 9 1
14 9 6 10 10 -13 12 -65 4 -111 22 -102 26 13 2 73 6 92 17 92 9 0 15 -10 15
-25 0 -14 5 -25 10 -25 6 0 10 5 10 10 0 6 7 10 15 10 24 0 17 -19 -10 -26
-13 -3 -30 -13 -36 -21 -11 -12 -8 -13 17 -7 16 4 38 14 48 23 13 11 18 12 15
3 -3 -7 -22 -23 -44 -35 -22 -12 -42 -23 -44 -24 -2 -2 -2 -6 1 -9 4 -3 29 5
57 18 38 19 48 21 41 9 -4 -9 -29 -25 -54 -36 -25 -11 -46 -23 -46 -27 0 -10
4 -10 34 2 14 5 26 6 26 2 0 -4 11 -12 25 -18 27 -13 37 -6 49 33 l7 23 26
-24 c14 -13 32 -22 39 -19 22 8 16 20 -16 33 -16 7 -35 18 -41 26 -9 11 -6 15
18 20 28 5 29 8 31 64 l2 59 -37 -6 -38 -6 19 21 19 22 -36 0 c-26 0 -37 4
-37 15 0 26 -16 17 -44 -25 -30 -46 -56 -54 -48 -14 2 14 11 28 19 31 12 5 12
7 1 14 -19 13 -28 11 -28 -5z m125 -47 c-4 -5 -20 -9 -38 -9 -33 0 -28 15 8
22 24 5 37 0 30 -13z m-15 -44 c0 -10 -10 -15 -30 -15 -20 0 -30 5 -30 15 0
10 10 15 30 15 20 0 30 -5 30 -15z m80 0 c0 -10 -11 -15 -35 -15 -24 0 -35 5
-35 15 0 10 11 15 35 15 24 0 35 -5 35 -15z m-22 -31 c23 -7 23 -7 3 -25 -26
-24 -38 -24 -51 0 -7 14 -6 21 3 24 17 7 19 7 45 1z m-50 -110 c-9 -10 -21
-13 -29 -8 -9 5 -8 9 7 15 31 12 39 10 22 -7z"/>
<path d="M10158 5422 l-3 -127 -29 -3 -29 -4 28 -14 c16 -8 32 -11 37 -6 4 4
9 63 10 130 1 67 6 122 10 122 14 0 9 18 -7 24 -12 4 -15 -15 -17 -122z"/>
<path d="M9930 5440 c0 -58 4 -100 10 -100 13 0 0 -33 -17 -43 -7 -4 -13 -15
-13 -23 0 -21 31 1 56 38 16 25 24 29 52 24 l32 -5 0 105 c0 94 -7 122 -25 94
-3 -5 -11 -7 -18 -5 -7 2 -27 6 -44 9 l-33 6 0 -100z m100 49 c0 -17 -5 -20
-37 -17 -27 2 -39 8 -41 21 -3 14 4 17 37 17 35 0 41 -3 41 -21z m-2 -58 c3
-18 -1 -21 -37 -21 -33 0 -41 4 -41 18 0 26 9 32 44 28 23 -2 32 -9 34 -25z
m-5 -51 c4 -17 0 -20 -34 -20 -32 0 -39 3 -39 20 0 16 7 20 34 20 25 0 35 -5
39 -20z"/>
<path d="M7910 5510 c-25 -25 -27 -49 -2 -27 23 21 46 22 62 2 18 -22 5 -58
-40 -104 -23 -23 -40 -47 -38 -53 5 -14 99 -18 116 -5 27 21 13 35 -30 30
l-41 -6 36 48 c46 60 51 110 11 125 -37 14 -52 12 -74 -10z"/>
<path d="M8217 5513 c-11 -11 -8 -58 5 -71 7 -7 21 -12 33 -12 30 0 45 19 45
57 0 32 -2 33 -38 33 -21 0 -42 -3 -45 -7z m61 -28 c4 -16 -12 -34 -29 -35
-14 0 -19 33 -8 47 15 17 33 12 37 -12z"/>
<path d="M10090 5423 c0 -71 3 -94 13 -90 8 3 11 24 10 71 -2 37 1 76 7 86 7
14 5 19 -10 23 -19 5 -20 0 -20 -90z"/>
<path d="M1671 5463 c-50 -61 -35 -139 20 -105 13 9 19 8 22 -1 5 -15 38 2 45
23 3 8 0 10 -8 5 -9 -6 -10 -3 -2 11 5 11 13 37 16 59 7 40 7 40 -28 42 -29 3
-39 -3 -65 -34z m59 -4 c0 -24 -44 -92 -53 -82 -11 10 -8 31 7 68 16 38 46 48
46 14z"/>
<path d="M3460 5460 c0 -38 2 -40 30 -40 17 0 30 -4 30 -10 0 -5 -20 -8 -45
-6 l-45 3 0 -48 c0 -27 5 -49 10 -49 6 0 10 16 10 35 0 28 4 36 24 41 36 9 46
-2 46 -52 0 -24 5 -44 10 -44 6 0 10 20 10 45 l0 45 41 0 c36 0 40 -2 37 -22
-2 -17 -9 -22 -26 -21 -29 3 -28 -9 1 -23 37 -17 47 -7 47 46 l0 48 -44 -5
c-26 -3 -46 -1 -50 6 -5 7 5 11 28 11 35 0 36 1 36 40 l0 40 -75 0 -75 0 0
-40z m125 0 c0 -11 -13 -16 -44 -18 -54 -4 -72 3 -65 23 9 22 109 17 109 -5z"/>
<path d="M4630 5480 c-8 -16 -21 -20 -60 -20 -28 0 -50 -4 -50 -10 0 -5 20
-10 45 -10 25 0 45 -4 45 -9 0 -5 -20 -28 -45 -52 -24 -24 -43 -45 -41 -46 6
-6 56 20 56 29 0 4 5 8 10 8 6 0 10 -18 10 -41 0 -33 3 -40 16 -35 9 3 47 6
85 6 l69 0 0 48 0 49 -75 -5 c-41 -2 -75 -1 -75 2 0 4 5 16 10 27 9 16 22 19
95 19 67 0 83 3 79 13 -4 11 -23 13 -81 9 -73 -5 -75 -4 -68 17 8 27 -11 28
-25 1z m120 -135 c0 -27 -18 -32 -87 -26 -39 3 -43 6 -43 30 0 26 0 26 65 23
61 -3 65 -5 65 -27z"/>
<path d="M5988 5473 c-74 -2 -128 -8 -128 -13 0 -6 29 -10 65 -10 l65 0 0 -85
c0 -50 4 -85 10 -85 6 0 11 6 12 13 3 27 6 74 7 115 l1 42 66 0 c48 0 65 3 62
13 -5 14 2 14 -160 10z"/>
<path d="M1193 5463 c-49 -6 -40 -23 13 -23 31 0 44 4 42 12 -5 14 -13 16 -55
11z"/>
<path d="M4174 5456 c-12 -31 0 -51 31 -51 27 0 30 3 30 30 0 25 -4 30 -28 33
-17 2 -29 -2 -33 -12z m50 -14 c8 -13 -11 -35 -23 -28 -16 10 -14 36 3 36 8 0
17 -4 20 -8z"/>
<path d="M6780 5461 c-24 -7 -24 -8 -6 -18 14 -8 21 -26 26 -67 7 -65 -2 -86
-35 -86 -16 0 -25 -6 -25 -15 0 -41 68 2 120 75 49 69 61 102 39 116 -17 10
-36 -13 -22 -27 9 -9 6 -20 -10 -45 l-22 -33 -10 51 c-11 55 -16 60 -55 49z"/>
<path d="M7370 5462 c0 -7 -10 -9 -30 -5 -22 4 -36 0 -52 -13 -28 -26 -48 -76
-41 -103 5 -21 10 -22 44 -17 24 4 39 2 39 -4 0 -18 25 -11 39 11 9 15 9 24 2
28 -7 5 -5 21 5 50 10 31 12 47 4 55 -7 7 -10 6 -10 -2z m-30 -46 c0 -24 -35
-76 -51 -76 -17 0 -9 57 12 84 23 29 39 26 39 -8z"/>
<path d="M7469 5457 c-41 -31 -44 -87 -7 -127 11 -12 29 -20 40 -18 23 3 66
54 55 65 -4 3 -13 -2 -21 -12 -12 -17 -18 -18 -40 -7 -30 14 -36 61 -10 83 14
11 18 11 29 -4 16 -23 35 -22 35 2 0 30 -50 42 -81 18z"/>
<path d="M7601 5448 c-30 -32 -35 -55 -17 -92 25 -53 62 -60 101 -21 48 47 22
135 -40 135 -13 0 -33 -10 -44 -22z m67 -52 c4 -61 -12 -81 -39 -47 -19 23
-26 81 -12 95 4 4 16 6 28 4 16 -2 21 -12 23 -52z"/>
<path d="M7740 5451 c-16 -32 -12 -45 25 -68 23 -15 32 -28 29 -38 -9 -22 -29
-18 -47 8 l-16 22 0 -27 c-1 -22 5 -28 30 -33 22 -5 36 -2 50 11 31 28 24 59
-16 78 -19 9 -35 23 -35 31 0 20 29 19 36 0 9 -24 24 -17 24 10 0 22 -4 25
-35 25 -24 0 -37 -6 -45 -19z"/>
<path d="M1275 5451 c-3 -2 6 -23 20 -47 27 -46 25 -52 -30 -75 -28 -12 -29
-13 -7 -16 12 -3 34 5 48 16 l27 21 32 -20 c34 -21 65 -26 65 -10 0 5 -16 17
-35 26 -19 9 -35 18 -35 21 0 3 9 17 19 32 36 50 32 56 -37 56 -35 1 -65 -1
-67 -4z m88 -28 c-14 -40 -26 -46 -45 -21 -25 33 -23 38 17 38 28 0 33 -3 28
-17z"/>
<path d="M8065 5450 c-3 -5 0 -10 8 -10 7 0 19 -11 25 -25 10 -21 9 -30 -4
-51 -9 -13 -23 -23 -32 -22 -20 4 -28 -20 -8 -28 9 -4 25 5 40 23 24 27 25 27
26 6 0 -31 18 -38 41 -17 22 19 27 43 5 25 -15 -13 -26 4 -26 39 0 36 -22 70
-46 70 -13 0 -26 -4 -29 -10z"/>
<path d="M8152 5448 c-19 -19 -14 -28 13 -28 18 0 25 5 25 20 0 22 -20 26 -38
8z"/>
<path d="M6990 5435 c0 -9 23 -13 80 -14 64 -1 80 1 80 13 0 11 -17 14 -80 14
-57 0 -80 -4 -80 -13z"/>
<path d="M9653 5410 c1 -40 19 -54 31 -24 11 28 6 52 -10 58 -23 9 -23 9 -21
-34z"/>
<path d="M8680 5433 c1 -10 47 -63 55 -63 13 0 3 29 -18 48 -24 23 -37 28 -37
15z"/>
<path d="M5914 5398 c-9 -17 -25 -40 -35 -51 -27 -29 -24 -41 5 -20 30 23 77
88 69 97 -12 12 -23 6 -39 -26z"/>
<path d="M1160 5366 c0 -40 3 -47 16 -42 9 3 28 6 43 6 26 0 28 3 28 44 l0 43
-44 -1 -43 -1 0 -49z m60 9 c0 -18 -5 -25 -20 -25 -20 0 -28 28 -13 43 15 16
33 6 33 -18z"/>
<path d="M6092 5370 c17 -27 37 -50 45 -50 18 0 2 33 -35 73 -40 42 -44 32
-10 -23z"/>
<path d="M3260 5387 c0 -8 7 -21 16 -28 14 -11 15 -10 12 11 -3 26 -28 41 -28
17z"/>
<path d="M602 5378 c6 -18 28 -21 28 -4 0 9 -7 16 -16 16 -9 0 -14 -5 -12 -12z"/>
<path d="M3121 5355 c-19 -32 -19 -36 -4 -33 9 2 20 16 24 32 12 42 5 42 -20
1z"/>
<path d="M3171 5378 c0 -7 4 -22 8 -32 10 -25 22 -6 14 22 -6 23 -23 31 -22
10z"/>
<path d="M6990 5380 c0 -6 33 -10 80 -10 47 0 80 4 80 10 0 6 -33 10 -80 10
-47 0 -80 -4 -80 -10z"/>
<path d="M6350 5373 c1 -20 28 -55 34 -45 4 6 1 20 -6 32 -13 20 -28 27 -28
13z"/>
<path d="M6268 5348 c-20 -30 -23 -48 -9 -48 16 0 33 29 29 52 -3 22 -3 22
-20 -4z"/>
<path d="M6318 5340 c2 -16 8 -30 13 -30 10 0 12 21 3 44 -10 27 -21 18 -16
-14z"/>
<path d="M10025 5300 c16 -31 35 -40 35 -17 0 14 -31 47 -44 47 -3 0 0 -13 9
-30z"/>
<path d="M4083 4752 c-48 -1 -83 -7 -83 -13 0 -6 10 -9 23 -7 19 3 22 -2 25
-37 5 -53 -13 -111 -50 -163 -16 -24 -28 -46 -25 -49 14 -14 71 69 87 127 12
41 13 43 20 20 4 -14 14 -39 23 -57 19 -36 20 -34 -53 -70 -27 -12 -37 -22
-26 -22 10 -1 41 10 69 25 l51 25 46 -25 c32 -17 50 -22 60 -15 13 8 13 10 0
19 -8 5 -22 10 -31 10 -8 0 -24 6 -34 14 -18 13 -17 15 14 65 35 57 33 74 -6
65 -25 -7 -26 -6 -19 27 16 72 25 66 -91 61z m77 -27 c0 -1 -5 -16 -11 -34
-10 -28 -15 -32 -43 -29 -28 3 -31 7 -34 38 l-3 35 46 -3 c25 -2 45 -5 45 -7z
m30 -85 c0 -22 -31 -70 -44 -70 -13 0 -56 57 -56 74 0 3 23 6 50 6 28 0 50 -5
50 -10z"/>
<path d="M2100 4730 c0 -11 -9 -34 -51 -126 -11 -22 -19 -46 -19 -52 0 -7 -6
-12 -12 -12 -10 0 -9 -3 1 -9 17 -11 53 -2 45 11 -3 5 -3 20 0 34 6 22 11 25
44 22 33 -3 37 -6 40 -34 2 -23 9 -34 25 -38 28 -7 42 7 24 26 -13 12 -27 51
-57 158 -7 25 -40 41 -40 20z m29 -96 c1 -7 -8 -14 -19 -17 -23 -6 -26 12 -8
46 11 21 11 21 19 2 4 -11 8 -25 8 -31z"/>
<path d="M3602 4719 c-18 -29 -9 -34 23 -13 26 17 28 17 42 -1 21 -29 7 -74
-38 -120 -21 -23 -39 -44 -39 -48 0 -5 28 -7 62 -5 49 2 63 7 66 20 3 14 -3
15 -40 11 l-43 -6 20 24 c11 13 28 32 38 43 20 23 23 86 5 104 -20 20 -81 15
-96 -9z"/>
<path d="M4536 4721 c-4 -5 -1 -11 4 -13 11 -3 8 -15 -26 -121 -21 -62 -14
-77 34 -77 46 0 77 29 87 80 9 49 -13 79 -48 63 l-25 -11 14 44 c13 43 13 44
-11 44 -13 0 -26 -4 -29 -9z m74 -126 c0 -29 -44 -77 -64 -69 -19 7 -19 3 -5
45 20 58 69 76 69 24z"/>
<path d="M4988 4706 c-13 -9 -18 -27 -18 -59 0 -48 9 -57 56 -57 13 0 24 -3
24 -7 -1 -16 -36 -53 -60 -62 -25 -10 -25 -10 6 -10 46 -1 104 67 104 124 0
28 -16 66 -34 77 -17 12 -59 9 -78 -6z m62 -15 c5 -11 10 -33 10 -50 0 -26 -4
-31 -24 -31 -19 0 -26 7 -31 29 -6 30 8 71 25 71 5 0 14 -9 20 -19z"/>
<path d="M5140 4688 c-22 -37 -25 -86 -6 -137 24 -66 85 -60 108 11 37 111
-48 215 -102 126z m65 -8 c28 -54 11 -155 -24 -148 -30 6 -25 178 5 178 2 0
10 -13 19 -30z"/>
<path d="M7895 4701 c-19 -8 -19 -8 0 -18 14 -8 20 -25 23 -70 4 -62 -3 -77
-42 -84 -29 -6 -32 -29 -4 -29 24 0 68 44 121 122 36 55 35 102 -3 78 -10 -6
-11 -12 -3 -22 7 -9 6 -21 -6 -42 -24 -42 -35 -37 -41 18 -5 52 -12 59 -45 47z"/>
<path d="M3001 4664 c-44 -32 -68 -118 -35 -131 8 -3 26 -1 40 5 16 8 24 8 24
1 0 -6 10 -9 23 -7 18 2 22 10 24 41 1 20 6 53 11 71 l10 34 -38 0 c-20 0 -47
-6 -59 -14z m52 -11 c4 -21 -15 -64 -38 -83 -26 -22 -42 3 -25 37 17 34 40 63
51 63 4 0 9 -8 12 -17z"/>
<path d="M3177 4643 c-19 -18 0 -24 75 -21 54 2 83 7 86 16 3 9 -17 12 -75 12
-44 0 -83 -3 -86 -7z"/>
<path d="M4727 4634 c-18 -18 -1 -24 73 -24 47 0 80 4 80 10 0 6 -24 10 -52
10 -29 0 -62 3 -73 6 -11 3 -24 2 -28 -2z"/>
<path d="M5525 4620 c-8 -27 11 -50 41 -50 28 0 38 14 30 46 -8 32 -61 35 -71
4z m50 -11 c10 -15 -1 -23 -20 -15 -9 3 -13 10 -10 16 8 13 22 13 30 -1z"/>
<path d="M3420 4615 c0 -12 16 -15 86 -15 62 0 85 3 82 12 -3 8 -34 13 -86 15
-68 3 -82 1 -82 -12z"/>
<path d="M8042 4506 c-65 -129 -70 -146 -49 -146 6 0 31 41 55 90 23 50 45 90
48 90 6 0 3 -390 -5 -515 -5 -90 -8 -100 -26 -101 -88 -4 -91 -4 -72 -15 10
-6 36 -9 58 -7 l39 4 -2 -761 -3 -760 -315 -1 c-381 -1 -390 -1 -390 -14 0 -6
129 -11 353 -12 l352 -3 0 -934 c0 -730 3 -935 13 -939 9 -3 12 37 12 167 l0
171 25 10 c13 5 48 12 77 16 29 4 73 18 97 31 24 12 48 23 53 23 5 0 14 5 21
10 7 6 39 31 71 58 152 121 301 295 459 537 50 77 95 145 99 150 10 12 125
203 164 272 50 88 113 206 193 358 l34 65 386 -5 c212 -3 501 -7 641 -9 l255
-3 5 -38 c7 -55 28 -57 32 -3 2 33 7 43 21 42 9 0 298 -1 642 -2 l625 -2 37
-72 c21 -40 44 -89 52 -108 8 -19 20 -40 27 -47 6 -7 22 -32 34 -55 12 -24 39
-74 61 -113 21 -38 44 -81 51 -95 7 -14 17 -29 21 -35 5 -5 18 -27 30 -47 64
-110 253 -406 267 -418 3 -3 17 -21 30 -40 13 -19 29 -39 36 -45 6 -5 23 -27
37 -49 32 -49 191 -213 237 -246 19 -13 42 -32 50 -41 8 -9 40 -29 70 -44 30
-15 67 -34 82 -41 14 -8 37 -14 50 -14 12 -1 46 -7 73 -14 52 -14 72 -8 62 18
-4 10 -19 16 -40 16 -138 0 -307 107 -493 310 -44 49 -194 248 -240 320 -16
25 -32 47 -35 50 -4 3 -30 46 -59 95 -30 50 -72 119 -96 155 -47 73 -86 141
-139 245 -20 39 -46 86 -57 105 -22 36 -108 201 -108 207 0 2 323 3 717 3
l717 0 -97 -48 c-53 -26 -97 -53 -97 -59 0 -7 5 -13 10 -13 22 0 250 122 250
133 -1 12 -224 127 -247 127 -31 0 4 -29 77 -64 44 -21 80 -41 80 -45 0 -4
-19 -6 -42 -5 -24 2 -347 3 -718 4 l-675 1 -30 62 c-16 34 -47 90 -67 125 -21
34 -38 66 -38 70 0 4 -31 63 -70 131 -38 67 -70 125 -70 128 0 3 -12 22 -27
42 -35 46 -49 67 -71 111 -9 19 -20 37 -23 40 -3 3 -23 34 -43 70 -21 36 -42
67 -46 70 -4 3 -17 23 -29 45 -43 80 -193 285 -208 285 -7 0 -13 6 -13 13 0
19 -144 163 -220 221 -124 93 -239 138 -355 139 -74 1 -140 -6 -154 -17 -11
-8 -15 -8 -18 2 -3 6 -9 12 -15 12 -6 0 -8 -7 -4 -15 4 -11 -14 -24 -67 -49
-40 -18 -83 -44 -97 -58 -14 -13 -45 -39 -70 -57 -93 -69 -233 -234 -342 -400
-9 -14 -21 -30 -25 -36 -26 -31 -91 -134 -97 -153 -4 -12 -11 -22 -16 -22 -4
0 -11 -8 -14 -17 -3 -10 -12 -27 -19 -38 -7 -11 -32 -53 -57 -93 -25 -40 -53
-85 -62 -100 -10 -15 -23 -38 -28 -52 -6 -13 -15 -27 -19 -30 -4 -3 -15 -21
-25 -40 -29 -58 -44 -82 -53 -89 -8 -5 -57 -98 -128 -241 l-20 -40 -632 0
-633 0 0 68 c-1 181 5 1199 9 1375 l1 77 45 0 c34 0 45 4 45 15 0 13 -7 15
-37 9 -27 -5 -39 -3 -47 8 -8 10 -10 110 -8 314 l3 298 45 -92 c42 -88 64
-113 64 -74 -1 21 -114 245 -127 249 -5 2 -37 -52 -71 -121z m2775 -642 c31
-9 77 -27 103 -40 27 -13 52 -24 56 -24 5 0 27 -16 49 -36 22 -20 56 -47 75
-60 34 -22 169 -164 199 -208 8 -12 18 -23 21 -26 4 -3 24 -30 45 -60 21 -30
49 -69 62 -86 12 -17 23 -36 23 -42 0 -7 4 -12 9 -12 7 0 71 -95 71 -106 0 -3
12 -24 28 -47 49 -76 53 -82 58 -99 4 -10 9 -18 13 -18 4 0 15 -16 24 -36 10
-20 37 -66 61 -103 24 -36 58 -94 77 -129 83 -152 119 -220 141 -262 13 -25
26 -47 30 -50 4 -3 12 -18 18 -34 l10 -28 -632 5 c-348 3 -633 6 -634 6 0 1 1
21 2 46 3 39 0 45 -17 45 -16 0 -19 -7 -19 -47 l0 -46 -622 6 c-343 4 -629 7
-635 7 -15 0 27 84 150 295 32 55 62 107 67 115 55 88 110 181 110 185 0 6 41
66 51 75 3 3 13 21 22 40 23 46 36 67 70 111 15 20 27 40 27 44 0 7 167 234
180 245 21 18 49 64 43 73 -3 5 -1 7 4 4 6 -4 32 16 58 44 26 28 73 71 104 96
31 25 58 49 61 54 11 16 163 90 213 104 70 19 157 18 224 -1z m-1457 -1521 c2
-2 -1 -12 -8 -21 -7 -9 -16 -27 -22 -39 -5 -12 -20 -39 -33 -60 -13 -21 -29
-54 -37 -73 -8 -19 -23 -51 -35 -70 -12 -19 -41 -70 -64 -114 -39 -70 -77
-133 -98 -161 -5 -5 -15 -23 -23 -39 -29 -58 -198 -309 -275 -411 -27 -36 -60
-80 -72 -96 -33 -46 -195 -213 -223 -231 -14 -9 -41 -30 -60 -47 -60 -55 -262
-134 -293 -114 -5 3 -7 254 -3 627 3 341 5 676 6 743 l0 122 618 -6 c339 -3
619 -8 622 -10z"/>
<path d="M10707 3863 c-12 -11 -8 -23 8 -23 8 0 15 7 15 15 0 16 -12 20 -23 8z"/>
<path d="M10710 3810 c0 -5 5 -10 10 -10 6 0 10 5 10 10 0 6 -4 10 -10 10 -5
0 -10 -4 -10 -10z"/>
<path d="M10707 3774 c-8 -8 1 -24 14 -24 5 0 9 7 9 15 0 15 -12 20 -23 9z"/>
<path d="M10700 3720 c0 -5 7 -10 15 -10 8 0 15 5 15 10 0 6 -7 10 -15 10 -8
0 -15 -4 -15 -10z"/>
<path d="M10702 3678 c6 -18 28 -21 28 -4 0 9 -7 16 -16 16 -9 0 -14 -5 -12
-12z"/>
<path d="M10700 3635 c0 -8 7 -15 15 -15 8 0 15 7 15 15 0 8 -7 15 -15 15 -8
0 -15 -7 -15 -15z"/>
<path d="M10700 3590 c0 -5 7 -10 15 -10 8 0 15 5 15 10 0 6 -7 10 -15 10 -8
0 -15 -4 -15 -10z"/>
<path d="M10702 3548 c6 -18 28 -21 28 -4 0 9 -7 16 -16 16 -9 0 -14 -5 -12
-12z"/>
<path d="M10700 3500 c0 -5 7 -10 15 -10 8 0 15 5 15 10 0 6 -7 10 -15 10 -8
0 -15 -4 -15 -10z"/>
<path d="M10702 3458 c6 -18 28 -21 28 -4 0 9 -7 16 -16 16 -9 0 -14 -5 -12
-12z"/>
<path d="M10700 3414 c0 -9 5 -14 12 -12 18 6 21 28 4 28 -9 0 -16 -7 -16 -16z"/>
<path d="M10700 3365 c0 -8 7 -15 15 -15 8 0 15 7 15 15 0 8 -7 15 -15 15 -8
0 -15 -7 -15 -15z"/>
<path d="M10707 3334 c-8 -8 1 -24 14 -24 5 0 9 7 9 15 0 15 -12 20 -23 9z"/>
<path d="M10703 3278 c2 -7 7 -13 12 -13 5 0 10 6 13 13 2 6 -4 12 -13 12 -9
0 -15 -6 -12 -12z"/>
<path d="M10707 3243 c-12 -11 -8 -23 8 -23 8 0 15 7 15 15 0 16 -12 20 -23 8z"/>
<path d="M10707 3203 c-12 -11 -8 -23 8 -23 8 0 15 7 15 15 0 16 -12 20 -23 8z"/>
<path d="M10700 3145 c0 -8 7 -15 15 -15 8 0 15 7 15 15 0 8 -7 15 -15 15 -8
0 -15 -7 -15 -15z"/>
<path d="M10700 3105 c0 -8 7 -15 15 -15 8 0 15 7 15 15 0 8 -7 15 -15 15 -8
0 -15 -7 -15 -15z"/>
<path d="M10700 3060 c0 -5 7 -10 15 -10 8 0 15 5 15 10 0 6 -7 10 -15 10 -8
0 -15 -4 -15 -10z"/>
<path d="M10707 3023 c-12 -11 -8 -23 8 -23 8 0 15 7 15 15 0 16 -12 20 -23 8z"/>
<path d="M10707 2983 c-12 -11 -8 -23 8 -23 8 0 15 7 15 15 0 16 -12 20 -23 8z"/>
<path d="M10700 2925 c0 -8 7 -15 15 -15 8 0 15 7 15 15 0 8 -7 15 -15 15 -8
0 -15 -7 -15 -15z"/>
<path d="M10700 2886 c0 -9 7 -16 16 -16 17 0 14 22 -4 28 -7 2 -12 -3 -12
-12z"/>
<path d="M10700 2840 c0 -5 7 -10 15 -10 8 0 15 5 15 10 0 6 -7 10 -15 10 -8
0 -15 -4 -15 -10z"/>
<path d="M10707 2803 c-12 -11 -8 -23 8 -23 8 0 15 7 15 15 0 16 -12 20 -23 8z"/>
<path d="M10707 2763 c-12 -11 -8 -23 8 -23 8 0 15 7 15 15 0 16 -12 20 -23 8z"/>
<path d="M10700 2705 c0 -8 7 -15 15 -15 8 0 15 7 15 15 0 8 -7 15 -15 15 -8
0 -15 -7 -15 -15z"/>
<path d="M10700 2665 c0 -8 7 -15 15 -15 8 0 15 7 15 15 0 8 -7 15 -15 15 -8
0 -15 -7 -15 -15z"/>
<path d="M10700 2620 c0 -5 7 -10 15 -10 8 0 15 5 15 10 0 6 -7 10 -15 10 -8
0 -15 -4 -15 -10z"/>
<path d="M10697 2584 c-9 -10 2 -24 19 -24 8 0 14 7 14 15 0 15 -21 21 -33 9z"/>
<path d="M10700 2535 c0 -8 7 -15 15 -15 8 0 15 7 15 15 0 8 -7 15 -15 15 -8
0 -15 -7 -15 -15z"/>
<path d="M10695 2491 c-3 -5 -1 -12 5 -16 12 -7 30 2 30 16 0 12 -27 12 -35 0z"/>
<path d="M3175 4580 c3 -5 42 -10 86 -10 46 0 79 4 79 10 0 6 -35 10 -86 10
-54 0 -83 -4 -79 -10z"/>
<path d="M4732 4574 c-6 -3 -10 -10 -6 -15 7 -12 151 -12 159 1 3 6 0 10 -7
11 -7 0 -40 2 -73 4 -33 2 -66 2 -73 -1z"/>
<path d="M2242 4543 c2 -10 10 -18 18 -18 8 0 16 8 18 18 2 12 -3 17 -18 17
-15 0 -20 -5 -18 -17z"/>
<path d="M7800 4001 c-13 -26 -13 -52 1 -28 14 24 66 23 74 -2 8 -27 -4 -51
-52 -101 -24 -25 -43 -48 -43 -52 0 -5 29 -8 64 -8 54 0 64 3 69 19 4 16 -1
18 -42 14 -39 -4 -44 -2 -31 9 54 46 84 124 59 154 -18 22 -86 18 -99 -5z"/>
<path d="M4000 3968 c0 -4 11 -8 25 -8 20 0 25 -5 25 -25 0 -52 -24 -132 -52
-174 -16 -24 -27 -46 -24 -49 12 -11 68 64 79 105 6 23 14 43 17 43 7 -1 52
-92 47 -96 -2 -2 -28 -15 -58 -28 -33 -15 -46 -25 -33 -25 11 -1 41 9 66 22
l46 23 46 -24 c26 -14 53 -21 63 -18 13 5 4 13 -35 31 -55 26 -58 35 -20 77
22 24 39 58 33 68 -3 5 -19 7 -36 3 -29 -5 -29 -5 -19 21 22 58 18 61 -80 62
-50 0 -90 -3 -90 -8z m147 -43 c-9 -31 -14 -35 -44 -35 -31 0 -33 2 -33 35 0
35 0 35 44 35 l44 0 -11 -35z m38 -56 c7 -8 -27 -71 -40 -76 -9 -3 -55 55 -55
69 0 14 82 19 95 7z"/>
<path d="M2023 3959 c14 -8 17 -25 17 -95 0 -66 -3 -86 -15 -90 -32 -13 -12
-19 54 -18 41 0 76 6 85 14 21 16 20 64 0 84 -9 9 -11 16 -4 16 7 0 10 14 8
37 -2 28 -9 41 -28 50 -31 16 -144 18 -117 2z m98 -19 c37 -20 17 -70 -28 -70
-19 0 -23 5 -23 33 0 48 13 57 51 37z m17 -99 c8 -4 12 -19 10 -32 -2 -20 -10
-25 -40 -27 -37 -3 -38 -3 -38 32 0 33 3 36 28 36 15 0 33 -4 40 -9z"/>
<path d="M3620 3957 c-14 -7 -26 -20 -28 -30 -3 -16 -2 -16 28 1 30 16 31 16
46 -3 21 -28 10 -63 -37 -110 -54 -56 -51 -65 21 -65 33 0 60 4 60 9 0 5 2 15
5 23 4 10 -4 13 -37 10 l-43 -4 26 28 c34 37 49 67 49 97 0 42 -48 65 -90 44z"/>
<path d="M4546 3951 c-13 -5 -16 -10 -9 -14 8 -5 4 -31 -13 -85 -33 -107 -32
-112 16 -112 48 0 76 22 90 70 14 48 -3 74 -42 66 -26 -5 -29 -3 -23 12 13 29
18 72 9 71 -5 0 -18 -4 -28 -8z m62 -127 c3 -21 -38 -74 -58 -74 -19 0 -21 25
-5 64 12 29 21 37 38 34 13 -2 23 -11 25 -24z"/>
<path d="M4982 3938 c-7 -7 -12 -18 -12 -25 0 -10 4 -11 19 -2 43 28 72 -25
29 -55 -19 -14 -20 -16 -4 -22 22 -9 37 -39 29 -59 -5 -14 -14 -16 -44 -12
-29 4 -39 2 -39 -9 0 -24 78 -21 97 4 15 21 17 74 3 88 -8 8 -7 19 1 36 16 36
-3 68 -39 68 -16 0 -33 -5 -40 -12z"/>
<path d="M5173 3931 c-35 -29 -66 -96 -58 -128 10 -45 31 -66 66 -66 39 0 59
24 59 73 0 43 -14 60 -53 60 l-28 0 21 30 c12 17 30 30 41 30 10 0 19 5 19 10
0 16 -43 11 -67 -9z m27 -100 c14 -27 13 -56 -3 -69 -16 -14 -32 -4 -41 26
-16 49 21 85 44 43z"/>
<path d="M5301 3933 c-44 -36 -37 -168 10 -193 69 -38 124 114 65 183 -27 31
-45 34 -75 10z m57 -85 c2 -55 -1 -78 -11 -87 -24 -19 -42 15 -42 79 0 57 17
94 39 87 6 -2 12 -35 14 -79z"/>
<path d="M8240 3914 c0 -8 5 -12 10 -9 6 3 10 10 10 16 0 5 -4 9 -10 9 -5 0
-10 -7 -10 -16z"/>
<path d="M8286 3921 c-4 -7 -5 -15 -2 -18 9 -9 19 4 14 18 -4 11 -6 11 -12 0z"/>
<path d="M8327 3924 c-8 -8 1 -24 14 -24 5 0 9 7 9 15 0 15 -12 20 -23 9z"/>
<path d="M8370 3915 c0 -8 5 -15 10 -15 6 0 10 7 10 15 0 8 -4 15 -10 15 -5 0
-10 -7 -10 -15z"/>
<path d="M8420 3920 c0 -5 5 -10 11 -10 5 0 7 5 4 10 -3 6 -8 10 -11 10 -2 0
-4 -4 -4 -10z"/>
<path d="M8500 3916 c0 -9 5 -16 10 -16 6 0 10 4 10 9 0 6 -4 13 -10 16 -5 3
-10 -1 -10 -9z"/>
<path d="M8460 3910 c0 -5 5 -10 10 -10 6 0 10 5 10 10 0 6 -4 10 -10 10 -5 0
-10 -4 -10 -10z"/>
<path d="M8550 3910 c0 -5 5 -10 10 -10 6 0 10 5 10 10 0 6 -4 10 -10 10 -5 0
-10 -4 -10 -10z"/>
<path d="M8585 3910 c3 -5 8 -10 11 -10 2 0 4 5 4 10 0 6 -5 10 -11 10 -5 0
-7 -4 -4 -10z"/>
<path d="M8630 3910 c0 -5 7 -10 15 -10 8 0 15 5 15 10 0 6 -7 10 -15 10 -8 0
-15 -4 -15 -10z"/>
<path d="M8675 3910 c4 -6 11 -8 16 -5 14 9 11 15 -7 15 -8 0 -12 -5 -9 -10z"/>
<path d="M8720 3910 c0 -5 5 -10 10 -10 6 0 10 5 10 10 0 6 -4 10 -10 10 -5 0
-10 -4 -10 -10z"/>
<path d="M8760 3910 c0 -5 4 -10 9 -10 6 0 13 5 16 10 3 6 -1 10 -9 10 -9 0
-16 -4 -16 -10z"/>
<path d="M8810 3910 c0 -5 5 -10 10 -10 6 0 10 5 10 10 0 6 -4 10 -10 10 -5 0
-10 -4 -10 -10z"/>
<path d="M8850 3910 c0 -5 7 -10 15 -10 8 0 15 5 15 10 0 6 -7 10 -15 10 -8 0
-15 -4 -15 -10z"/>
<path d="M8890 3910 c0 -5 7 -10 15 -10 8 0 15 5 15 10 0 6 -7 10 -15 10 -8 0
-15 -4 -15 -10z"/>
<path d="M8940 3910 c0 -5 5 -10 10 -10 6 0 10 5 10 10 0 6 -4 10 -10 10 -5 0
-10 -4 -10 -10z"/>
<path d="M8980 3910 c0 -5 7 -10 15 -10 8 0 15 5 15 10 0 6 -7 10 -15 10 -8 0
-15 -4 -15 -10z"/>
<path d="M9030 3904 c0 -8 5 -12 10 -9 6 3 10 10 10 16 0 5 -4 9 -10 9 -5 0
-10 -7 -10 -16z"/>
<path d="M9073 3908 c2 -7 7 -13 12 -13 5 0 10 6 13 13 2 6 -4 12 -13 12 -9 0
-15 -6 -12 -12z"/>
<path d="M9120 3904 c0 -8 5 -12 10 -9 6 3 10 10 10 16 0 5 -4 9 -10 9 -5 0
-10 -7 -10 -16z"/>
<path d="M9160 3911 c0 -6 5 -13 10 -16 6 -3 10 1 10 9 0 9 -4 16 -10 16 -5 0
-10 -4 -10 -9z"/>
<path d="M9206 3905 c4 -8 10 -12 15 -9 14 8 10 24 -6 24 -9 0 -12 -6 -9 -15z"/>
<path d="M9250 3904 c0 -8 5 -12 10 -9 6 3 10 10 10 16 0 5 -4 9 -10 9 -5 0
-10 -7 -10 -16z"/>
<path d="M9293 3908 c2 -7 7 -13 12 -13 5 0 10 6 13 13 2 6 -4 12 -13 12 -9 0
-15 -6 -12 -12z"/>
<path d="M9336 3905 c4 -8 10 -12 15 -9 14 8 10 24 -6 24 -9 0 -12 -6 -9 -15z"/>
<path d="M9380 3905 c0 -8 5 -15 10 -15 6 0 10 7 10 15 0 8 -4 15 -10 15 -5 0
-10 -7 -10 -15z"/>
<path d="M9423 3908 c2 -7 7 -13 12 -13 5 0 10 6 13 13 2 6 -4 12 -13 12 -9 0
-15 -6 -12 -12z"/>
<path d="M9471 3904 c0 -11 3 -14 6 -6 3 7 2 16 -1 19 -3 4 -6 -2 -5 -13z"/>
<path d="M9507 3914 c-8 -8 1 -24 14 -24 5 0 9 7 9 15 0 15 -12 20 -23 9z"/>
<path d="M9550 3905 c0 -8 5 -15 10 -15 6 0 10 7 10 15 0 8 -4 15 -10 15 -5 0
-10 -7 -10 -15z"/>
<path d="M9600 3905 c0 -8 5 -15 10 -15 6 0 10 7 10 15 0 8 -4 15 -10 15 -5 0
-10 -7 -10 -15z"/>
<path d="M9640 3905 c0 -9 5 -15 10 -13 12 4 11 16 -1 24 -5 3 -9 -2 -9 -11z"/>
<path d="M9691 3904 c0 -11 3 -14 6 -6 3 7 2 16 -1 19 -3 4 -6 -2 -5 -13z"/>
<path d="M9730 3905 c0 -8 5 -15 10 -15 6 0 10 7 10 15 0 8 -4 15 -10 15 -5 0
-10 -7 -10 -15z"/>
<path d="M9770 3905 c0 -8 5 -15 10 -15 6 0 10 7 10 15 0 8 -4 15 -10 15 -5 0
-10 -7 -10 -15z"/>
<path d="M9820 3905 c0 -8 5 -15 10 -15 6 0 10 7 10 15 0 8 -4 15 -10 15 -5 0
-10 -7 -10 -15z"/>
<path d="M9860 3905 c0 -8 5 -15 10 -15 6 0 10 7 10 15 0 8 -4 15 -10 15 -5 0
-10 -7 -10 -15z"/>
<path d="M9910 3905 c0 -8 5 -15 10 -15 6 0 10 7 10 15 0 8 -4 15 -10 15 -5 0
-10 -7 -10 -15z"/>
<path d="M9950 3905 c0 -8 5 -15 10 -15 6 0 10 7 10 15 0 8 -4 15 -10 15 -5 0
-10 -7 -10 -15z"/>
<path d="M9996 3911 c-4 -7 -5 -15 -2 -18 9 -9 19 4 14 18 -4 11 -6 11 -12 0z"/>
<path d="M10040 3905 c0 -8 5 -15 10 -15 6 0 10 7 10 15 0 8 -4 15 -10 15 -5
0 -10 -7 -10 -15z"/>
<path d="M10086 3911 c-4 -7 -5 -15 -2 -18 9 -9 19 4 14 18 -4 11 -6 11 -12 0z"/>
<path d="M10130 3906 c0 -8 5 -18 10 -21 6 -3 10 3 10 14 0 12 -4 21 -10 21
-5 0 -10 -6 -10 -14z"/>
<path d="M10170 3906 c0 -8 5 -18 10 -21 6 -3 10 1 10 9 0 8 -4 18 -10 21 -5
3 -10 -1 -10 -9z"/>
<path d="M10210 3906 c0 -9 7 -16 16 -16 17 0 14 22 -4 28 -7 2 -12 -3 -12
-12z"/>
<path d="M10264 3909 c-3 -6 -1 -16 5 -22 8 -8 11 -5 11 11 0 24 -5 28 -16 11z"/>
<path d="M10300 3901 c0 -6 5 -13 10 -16 6 -3 10 1 10 9 0 9 -4 16 -10 16 -5
0 -10 -4 -10 -9z"/>
<path d="M10350 3895 c0 -8 5 -15 10 -15 6 0 10 7 10 15 0 8 -4 15 -10 15 -5
0 -10 -7 -10 -15z"/>
<path d="M10393 3898 c2 -7 7 -13 12 -13 5 0 10 6 13 13 2 6 -4 12 -13 12 -9
0 -15 -6 -12 -12z"/>
<path d="M10433 3898 c2 -7 7 -13 12 -13 5 0 10 6 13 13 2 6 -4 12 -13 12 -9
0 -15 -6 -12 -12z"/>
<path d="M10480 3901 c0 -6 5 -13 10 -16 6 -3 10 1 10 9 0 9 -4 16 -10 16 -5
0 -10 -4 -10 -9z"/>
<path d="M2982 3867 c-54 -56 -35 -141 23 -103 14 9 25 12 25 6 0 -13 21 -13
40 1 10 7 11 12 4 15 -9 4 -8 17 2 51 19 63 19 63 -24 63 -30 0 -45 -7 -70
-33z m68 -2 c0 -24 -27 -72 -45 -79 -24 -9 -30 21 -12 60 17 35 57 49 57 19z"/>
<path d="M3174 3869 c-3 -5 30 -9 75 -9 104 0 113 15 10 17 -43 0 -82 -3 -85
-8z"/>
<path d="M5684 3845 c-12 -48 39 -75 64 -35 17 28 -1 60 -33 60 -18 0 -26 -7
-31 -25z m49 -20 c-6 -17 -33 -8 -33 10 0 8 8 11 19 8 11 -3 17 -11 14 -18z"/>
<path d="M4720 3850 c0 -6 33 -10 80 -10 47 0 80 4 80 10 0 6 -33 10 -80 10
-47 0 -80 -4 -80 -10z"/>
<path d="M3420 3840 c0 -6 33 -10 80 -10 47 0 80 4 80 10 0 6 -33 10 -80 10
-47 0 -80 -4 -80 -10z"/>
<path d="M3170 3810 c0 -6 33 -10 79 -10 44 0 83 5 86 10 4 6 -25 10 -79 10
-51 0 -86 -4 -86 -10z"/>
<path d="M4720 3793 c0 -9 23 -13 80 -13 57 0 80 4 80 13 0 8 -23 12 -80 12
-57 0 -80 -4 -80 -12z"/>
<path d="M2224 3779 c-10 -17 13 -36 27 -22 12 12 4 33 -11 33 -5 0 -12 -5
-16 -11z"/>
<path d="M3918 3202 c-49 -1 -88 -7 -88 -12 0 -6 14 -10 31 -10 l32 0 -7 -54
c-7 -67 -30 -123 -64 -158 -14 -15 -23 -31 -19 -34 11 -11 74 67 88 108 14 42
29 59 29 33 0 -9 9 -30 21 -47 12 -16 20 -31 18 -32 -12 -11 -86 -46 -96 -46
-7 0 -13 -5 -13 -11 0 -6 8 -9 18 -6 68 23 92 33 92 39 0 13 24 9 65 -12 40
-20 75 -26 75 -12 0 4 -23 17 -51 30 l-51 22 26 31 c14 17 26 37 26 45 0 8 5
14 10 14 6 0 10 7 10 15 0 10 -10 15 -31 15 -29 0 -31 2 -25 28 15 64 25 59
-96 54z m72 -36 c0 -33 -13 -46 -46 -46 -31 0 -34 3 -34 30 0 28 2 30 40 30
28 0 40 -4 40 -14z m40 -75 c0 -6 -10 -26 -21 -46 -20 -34 -23 -35 -40 -19
-10 9 -22 29 -28 45 l-10 29 50 0 c27 0 49 -4 49 -9z"/>
<path d="M2042 3167 c-27 -27 -32 -41 -32 -79 0 -39 5 -52 31 -77 41 -41 92
-43 125 -4 30 35 23 41 -16 12 -29 -22 -32 -22 -58 -7 -32 20 -46 58 -38 103
8 43 30 65 65 65 21 0 30 -7 40 -32 11 -26 15 -29 18 -15 3 10 2 29 -1 43 -6
21 -12 24 -54 24 -41 0 -53 -5 -80 -33z"/>
<path d="M3438 3176 c-19 -14 -25 -46 -9 -46 5 0 11 7 15 15 6 17 37 20 52 5
19 -19 2 -71 -37 -113 -22 -22 -39 -44 -39 -49 0 -9 90 -11 114 -2 9 3 16 15
16 25 0 16 -3 18 -19 9 -21 -11 -61 -14 -61 -4 0 3 16 24 35 47 38 44 45 85
19 111 -19 19 -63 20 -86 2z"/>
<path d="M4391 3182 c-18 -3 -21 -6 -11 -12 14 -9 10 -32 -27 -137 -18 -52
-12 -63 35 -63 49 1 83 30 89 78 6 43 -14 68 -47 59 -22 -6 -25 7 -10 47 11
29 5 34 -29 28z m59 -130 c0 -17 -10 -38 -24 -52 -28 -25 -59 -21 -50 7 20 63
27 73 50 73 20 0 24 -5 24 -28z"/>
<path d="M4827 3162 c-21 -23 -22 -95 -2 -112 8 -7 26 -10 40 -8 14 3 25 2 25
-3 0 -9 -38 -48 -66 -67 -17 -11 -15 -12 15 -6 34 6 61 28 80 63 16 29 13 98
-5 126 -20 30 -63 33 -87 7z m63 -21 c22 -42 1 -95 -30 -76 -14 9 -21 55 -10
75 13 25 26 25 40 1z"/>
<path d="M4987 3159 c-23 -25 -33 -113 -18 -152 12 -30 44 -47 74 -39 44 11
62 119 28 177 -21 36 -58 42 -84 14z m72 -78 c-1 -54 -13 -85 -32 -89 -36 -7
-48 116 -15 156 18 22 48 -20 47 -67z"/>
<path d="M3003 3117 c-32 -17 -53 -51 -53 -90 0 -45 19 -56 55 -33 22 14 25
15 25 1 0 -20 24 -19 41 1 10 12 10 17 0 23 -8 5 -9 15 -3 32 5 13 12 35 15
49 6 23 3 25 -28 26 -19 0 -42 -4 -52 -9z m40 -19 c6 -18 -23 -76 -41 -83 -38
-14 -39 33 -1 73 22 25 35 28 42 10z"/>
<path d="M3166 3102 c-15 -15 14 -22 85 -22 60 0 80 3 77 13 -5 12 -151 21
-162 9z"/>
<path d="M4570 3086 c0 -10 17 -13 73 -11 91 4 87 3 87 15 0 6 -33 10 -80 10
-61 0 -80 -3 -80 -14z"/>
<path d="M5372 3088 c-18 -18 -14 -46 9 -58 32 -18 51 -5 47 32 -3 36 -33 49
-56 26z m38 -28 c0 -21 -15 -27 -25 -10 -7 12 2 30 16 30 5 0 9 -9 9 -20z"/>
<path d="M3165 3040 c-10 -16 17 -21 90 -18 44 2 70 8 73 16 5 15 -153 17
-163 2z"/>
<path d="M4564 3039 c-8 -14 20 -23 87 -27 43 -2 69 0 74 8 4 6 5 13 3 16 -8
7 -159 10 -164 3z"/>
<path d="M2210 3005 c0 -21 30 -31 40 -14 11 17 3 29 -21 29 -10 0 -19 -7 -19
-15z"/>
<path d="M2000 2435 c0 -3 7 -13 15 -21 22 -22 21 -157 -1 -178 -14 -15 -10
-16 40 -16 101 0 145 33 146 111 0 38 -5 50 -30 74 -27 26 -40 30 -100 33 -39
2 -70 1 -70 -3z m127 -30 c44 -31 42 -133 -3 -154 -58 -26 -64 -19 -64 72 0
46 3 87 7 90 11 12 37 8 60 -8z"/>
<path d="M3996 2432 c-3 -5 -41 -7 -86 -4 -55 3 -80 1 -80 -7 0 -6 14 -11 31
-11 l30 0 -7 -47 c-10 -68 -30 -120 -59 -155 -14 -16 -25 -34 -25 -39 0 -39
72 50 90 112 l13 45 27 -50 27 -51 -31 -15 c-17 -8 -33 -18 -36 -21 -3 -4 -15
-10 -28 -14 -13 -4 -21 -9 -18 -13 8 -7 88 19 104 35 19 19 37 16 78 -12 43
-29 48 -30 64 -11 9 12 5 17 -27 25 -70 20 -71 23 -30 85 38 58 36 71 -9 60
-25 -6 -27 -5 -20 17 16 57 18 79 8 79 -6 0 -13 -4 -16 -8z m-12 -49 c-10 -41
-12 -43 -44 -43 -35 0 -40 7 -33 43 5 24 10 27 44 27 38 0 39 -1 33 -27z m46
-59 c0 -12 -42 -74 -49 -74 -12 0 -38 33 -45 58 -7 21 -5 22 43 22 28 0 51 -3
51 -6z"/>
<path d="M3432 2408 c-12 -12 -17 -38 -6 -38 3 0 12 6 20 14 24 24 54 8 54
-29 0 -25 -11 -44 -45 -81 -25 -26 -45 -51 -45 -56 0 -4 29 -8 64 -8 49 0 65
4 70 16 10 25 8 26 -41 18 l-48 -6 31 33 c45 50 58 86 43 121 -10 24 -17 28
-48 28 -20 0 -42 -5 -49 -12z"/>
<path d="M4376 2411 c-4 -5 -2 -11 3 -13 10 -3 -18 -120 -32 -134 -4 -4 -7
-18 -7 -30 0 -28 39 -42 78 -28 31 11 66 76 58 108 -6 26 -35 38 -59 25 -14
-8 -14 -5 -6 23 5 18 9 39 9 45 0 15 -36 18 -44 4z m68 -128 c-2 -35 -31 -73
-57 -73 -15 0 -17 6 -11 38 6 38 38 76 58 69 6 -2 10 -18 10 -34z"/>
<path d="M4822 2398 c-7 -7 -12 -18 -12 -26 0 -12 3 -12 15 -2 21 17 45 5 45
-23 0 -15 -9 -28 -22 -35 -18 -8 -19 -11 -6 -11 27 -1 49 -40 37 -64 -9 -15
-18 -18 -46 -14 -24 4 -33 2 -30 -6 6 -20 67 -20 88 -1 20 18 25 69 10 93 -6
9 -5 23 1 36 15 33 -5 65 -40 65 -16 0 -33 -5 -40 -12z"/>
<path d="M4997 2377 c-44 -41 -57 -94 -33 -143 13 -29 21 -34 50 -34 41 0 66
28 66 75 0 39 -16 55 -53 55 -28 0 -29 1 -15 23 8 12 25 27 37 33 34 17 36 24
8 24 -15 0 -39 -13 -60 -33z m43 -86 c14 -27 13 -44 -5 -67 -15 -19 -15 -19
-30 0 -15 20 -20 67 -8 79 12 13 32 7 43 -12z"/>
<path d="M5127 2381 c-22 -37 -23 -128 -1 -159 22 -31 67 -29 93 4 37 47 21
160 -24 178 -32 12 -51 6 -68 -23z m71 -88 c-2 -35 -9 -68 -16 -75 -19 -19
-45 56 -38 106 16 99 60 73 54 -31z"/>
<path d="M2980 2332 c-31 -29 -47 -87 -31 -112 8 -12 16 -13 41 -3 17 6 32 7
36 2 7 -12 16 -11 39 7 16 12 17 16 6 23 -11 7 -11 15 -2 41 19 56 15 66 -25
67 -26 1 -44 -6 -64 -25z m60 -13 c0 -23 -18 -60 -34 -71 -38 -26 -50 22 -15
66 25 31 49 34 49 5z"/>
<path d="M3160 2330 c0 -11 -2 -11 95 -13 40 -1 70 2 70 8 0 6 -37 11 -82 13
-53 2 -83 -1 -83 -8z"/>
<path d="M5533 2333 c-19 -7 -16 -60 3 -67 25 -10 53 11 49 36 -6 30 -26 42
-52 31z m30 -28 c8 -18 -11 -31 -25 -17 -11 11 -3 32 12 32 4 0 10 -7 13 -15z"/>
<path d="M4560 2315 c0 -12 17 -15 85 -15 61 0 85 3 85 13 0 8 -25 13 -85 14
-69 2 -85 0 -85 -12z"/>
<path d="M3160 2274 c0 -11 19 -14 80 -14 65 0 80 3 80 15 0 13 -14 15 -80 14
-60 -1 -80 -5 -80 -15z"/>
<path d="M4560 2256 c0 -13 14 -15 83 -13 46 1 82 6 82 12 0 6 -36 11 -82 13
-69 2 -83 0 -83 -12z"/>
<path d="M2234 2245 c-9 -23 14 -45 26 -25 5 8 8 19 7 24 -6 17 -27 18 -33 1z"/>
<path d="M7884 2240 c-43 -10 -51 -16 -79 -61 -29 -45 -32 -89 -9 -124 13 -20
25 -25 59 -25 92 0 167 125 118 196 -11 16 -53 23 -89 14z m54 -22 c25 -25 7
-102 -36 -150 -21 -25 -69 -23 -77 2 -25 80 64 197 113 148z"/>
<path d="M10691 2171 c-10 -7 -10 -10 -1 -13 13 -4 11 -14 -27 -127 -14 -40
-14 -44 4 -62 16 -16 25 -18 45 -10 72 27 94 141 27 141 -14 0 -16 7 -12 40 6
41 -5 51 -36 31z m55 -146 c-5 -24 -14 -39 -29 -44 -30 -12 -40 0 -27 35 27
71 69 78 56 9z"/>
<path d="M13512 2161 c-11 -7 -11 -9 1 -14 24 -9 30 -54 10 -77 -10 -11 -23
-20 -30 -20 -7 0 -13 -7 -13 -15 0 -21 20 -19 47 7 20 19 23 19 23 4 0 -9 7
-19 15 -22 18 -7 45 13 45 33 0 12 -3 13 -15 3 -12 -10 -15 -7 -21 14 -8 35 1
56 26 56 11 0 20 6 20 14 0 26 -22 29 -40 6 l-17 -23 -6 22 c-5 22 -23 27 -45
12z"/>
</g>
</svg>
