<?xml version="1.0" standalone="no"?>
<!DOCTYPE svg PUBLIC "-//W3C//DTD SVG 20010904//EN"
 "http://www.w3.org/TR/2001/REC-SVG-20010904/DTD/svg10.dtd">
<svg version="1.0" xmlns="http://www.w3.org/2000/svg"
 width="1405.000000pt" height="567.000000pt" viewBox="0 0 1405.000000 567.000000"
 preserveAspectRatio="xMidYMid meet">
<metadata>
Created by potrace 1.16, written by Peter Selinger 2001-2019
</metadata>
<g transform="translate(0.000000,567.000000) scale(0.100000,-0.100000)"
fill="#000000" stroke="none">
<path d="M1140 5370 c0 -23 -4 -30 -20 -30 -11 0 -20 -4 -20 -10 0 -5 9 -10
21 -10 23 0 21 -17 -12 -82 -25 -50 -24 -56 6 -28 l25 23 0 -62 c0 -46 3 -62
13 -59 7 3 14 33 18 79 3 41 6 68 7 62 1 -7 7 -13 12 -13 15 0 12 36 -5 50
-21 17 -19 30 5 30 22 0 25 7 11 29 -5 7 -14 10 -20 7 -7 -5 -11 2 -11 18 0
16 -6 26 -15 26 -10 0 -15 -10 -15 -30z"/>
<path d="M1460 5370 c0 -20 -5 -30 -15 -30 -8 0 -15 -4 -15 -10 0 -5 7 -10 15
-10 10 0 15 -11 15 -35 0 -24 -5 -35 -15 -35 -9 0 -15 -9 -15 -21 0 -18 2 -19
15 -9 13 11 15 6 15 -33 0 -37 -3 -45 -15 -41 -8 4 -15 2 -15 -4 0 -14 24 -22
47 -16 20 6 53 52 53 76 0 7 16 18 34 24 32 10 34 9 25 -8 -5 -10 -19 -18 -29
-18 -11 0 -20 -4 -20 -10 0 -5 9 -10 19 -10 11 0 23 5 26 10 3 6 11 10 18 10
18 0 -7 -21 -50 -41 -46 -21 -18 -25 32 -5 20 9 35 11 35 5 0 -5 -10 -14 -22
-18 -20 -8 -21 -10 -5 -16 26 -11 47 1 47 27 0 17 3 19 12 10 7 -7 23 -12 38
-12 24 0 24 0 -7 20 -40 24 -41 33 -7 48 16 8 22 16 17 25 -7 12 -8 16 -11 47
-2 12 -12 15 -39 13 l-38 -2 35 12 c73 25 78 49 8 40 -30 -5 -39 -3 -34 6 4 6
17 10 29 9 12 -2 22 2 22 7 0 6 -10 9 -22 7 -13 -1 -23 2 -23 8 0 5 -7 10 -15
10 -8 0 -15 -9 -15 -20 0 -16 -7 -20 -35 -20 -19 0 -35 -4 -35 -10 0 -5 -9
-10 -20 -10 -13 0 -20 7 -20 20 0 11 5 20 11 20 5 0 7 5 4 10 -14 22 -35 10
-35 -20z m125 -40 c-3 -5 -12 -7 -20 -3 -8 3 -15 0 -15 -6 0 -6 9 -11 19 -11
11 0 21 -5 23 -10 2 -6 18 -11 36 -13 57 -4 34 -17 -28 -16 l-60 2 0 33 c0 30
3 34 26 34 14 0 23 -4 19 -10z m52 4 c-3 -3 -12 -4 -19 -1 -8 3 -5 6 6 6 11 1
17 -2 13 -5z m-122 -81 c-4 -38 -13 -79 -21 -93 -13 -24 -13 -22 -14 28 0 38
4 54 15 58 8 4 15 10 15 15 0 4 -7 6 -15 3 -11 -5 -15 1 -15 25 0 25 4 31 21
31 20 0 21 -3 14 -67z m65 2 c0 -2 -9 -9 -20 -15 -16 -9 -20 -8 -20 5 0 8 9
15 20 15 11 0 20 -2 20 -5z m83 -2 c4 -3 0 -15 -9 -25 -16 -17 -18 -17 -30 0
-9 13 -9 19 -1 24 15 10 32 10 40 1z"/>
<path d="M274 5375 c-17 -13 -17 -14 -1 -15 15 0 17 -11 17 -80 0 -64 -3 -80
-15 -80 -8 0 -15 -4 -15 -10 0 -5 19 -10 42 -10 40 0 41 0 24 19 -15 17 -17
34 -15 105 4 90 0 99 -37 71z"/>
<path d="M418 5359 c-25 -43 -22 -56 11 -64 35 -8 56 -47 40 -77 -9 -16 -17
-19 -45 -13 -27 5 -34 3 -34 -10 0 -25 68 -20 91 8 31 38 25 81 -18 116 l-38
31 38 0 c30 0 37 4 37 20 0 16 -7 20 -32 20 -26 0 -37 -6 -50 -31z"/>
<path d="M1220 5255 c0 -109 3 -135 14 -135 8 0 16 7 20 15 3 8 12 15 20 15 7
0 17 7 20 16 4 12 2 15 -9 10 -8 -3 -21 -9 -29 -12 -12 -4 -15 6 -15 51 l0 56
46 -3 c47 -3 69 -23 38 -34 -9 -4 -22 1 -31 12 -14 18 -14 16 -8 -16 7 -39 48
-100 68 -100 27 0 23 13 -11 43 l-36 31 33 14 c22 9 29 16 22 25 -5 7 -8 42
-8 80 l1 67 -67 0 -68 0 0 -135z m110 100 c0 -11 -11 -15 -40 -15 -29 0 -40 4
-40 15 0 11 11 15 40 15 29 0 40 -4 40 -15z m0 -55 c0 -17 -7 -20 -39 -20 -30
0 -40 4 -44 20 -5 18 0 20 39 20 37 0 44 -3 44 -20z"/>
<path d="M1770 5257 l0 -132 106 3 c80 3 109 1 115 -9 4 -7 10 -11 13 -9 2 3
6 65 7 138 l2 133 -121 4 -122 5 0 -133z m226 98 c4 -8 4 -25 0 -38 -4 -18
-13 -22 -51 -25 -25 -1 -45 2 -45 8 0 5 11 10 25 10 20 0 25 5 25 23 0 22 -4
24 -60 23 -59 -1 -60 -1 -60 -29 0 -24 3 -27 20 -22 12 4 20 2 20 -6 0 -8 -11
-10 -35 -6 -19 3 -35 2 -35 -4 0 -5 44 -9 98 -9 l97 0 -3 -70 c-3 -55 -7 -70
-19 -70 -13 0 -15 11 -11 64 l4 65 -73 0 -73 0 0 -64 c0 -51 -3 -65 -15 -65
-12 0 -15 19 -15 108 0 60 3 112 7 115 3 4 48 7 100 7 74 0 95 -3 99 -15z
m-76 -25 c0 -5 -16 -10 -35 -10 -19 0 -35 5 -35 10 0 6 16 10 35 10 19 0 35
-4 35 -10z m18 -117 c-3 -37 -4 -38 -46 -41 -31 -2 -42 0 -37 8 4 6 21 10 38
8 28 -3 32 0 35 24 3 25 1 27 -37 26 -37 0 -42 -3 -50 -32 l-9 -31 -1 38 -1
37 56 0 55 0 -3 -37z m-38 -3 c0 -5 -6 -10 -14 -10 -8 0 -18 5 -21 10 -3 6 3
10 14 10 12 0 21 -4 21 -10z m45 -60 c4 -6 -17 -10 -54 -10 -34 0 -61 4 -61
10 0 6 24 10 54 10 30 0 58 -4 61 -10z"/>
<path d="M2210 5364 c0 -25 -2 -26 -52 -22 l-53 3 3 -65 3 -65 47 0 47 0 3
-52 c4 -71 22 -68 22 3 l0 55 52 -2 52 -3 -3 52 c-2 36 1 52 10 52 7 0 9 3 5
8 -4 4 -31 7 -59 7 -50 0 -52 1 -50 28 1 18 -3 27 -13 27 -8 0 -14 -10 -14
-26z m-2 -86 c-3 -41 -5 -43 -37 -46 -44 -4 -54 7 -46 52 7 34 9 36 47 36 l39
0 -3 -42z m102 -3 l0 -45 -40 0 -40 0 0 45 0 45 40 0 40 0 0 -45z"/>
<path d="M2496 5375 c-11 -8 -30 -15 -43 -15 -22 0 -23 -3 -23 -72 0 -40 -7
-97 -14 -126 -10 -38 -11 -52 -3 -49 6 2 18 29 26 61 l15 57 43 -7 43 -6 0 50
0 50 -45 -6 c-41 -4 -45 -3 -45 17 0 16 6 21 26 21 29 0 64 16 64 30 0 14 -22
12 -44 -5z m24 -110 c0 -22 -4 -25 -35 -25 -31 0 -35 3 -35 25 0 22 4 25 35
25 31 0 35 -3 35 -25z"/>
<path d="M2640 5375 c-14 -8 -37 -14 -52 -15 -27 0 -28 -2 -28 -54 0 -73 -16
-154 -35 -173 -9 -8 -13 -18 -10 -21 14 -14 52 46 58 92 8 58 13 66 38 66 17
0 19 -8 19 -85 0 -50 4 -85 10 -85 6 0 10 35 10 85 l0 85 27 0 c25 0 26 1 11
17 -14 13 -20 14 -32 4 -8 -7 -27 -11 -43 -9 -22 2 -29 9 -31 31 -4 29 0 32
61 42 23 4 37 11 37 20 0 18 -8 18 -40 0z"/>
<path d="M2865 5360 l-90 -6 108 -2 c66 -1 107 2 107 8 0 6 -8 9 -17 8 -10 -1
-58 -5 -108 -8z"/>
<path d="M4047 5363 c-4 -3 -7 -62 -7 -131 l0 -124 -27 6 -28 6 29 -16 c18
-10 32 -12 38 -6 6 6 12 63 14 128 3 68 9 121 15 125 7 4 4 9 -6 13 -20 7 -20
7 -28 -1z"/>
<path d="M4197 5363 c-4 -3 -7 -13 -7 -20 0 -20 -40 -107 -53 -115 -7 -4 -8
-10 -4 -14 4 -4 14 1 22 12 13 17 14 10 15 -68 0 -82 9 -110 24 -72 3 9 6 61
7 117 0 56 4 111 9 122 5 11 9 14 9 8 1 -9 23 -13 76 -13 l76 0 -3 -102 -3
-103 -27 -3 c-27 -3 -40 -22 -15 -22 6 0 22 -3 35 -6 22 -6 22 -6 22 115 0
101 2 121 15 121 8 0 15 4 15 9 0 17 -20 23 -36 11 -18 -16 -133 -4 -155 16
-9 8 -19 11 -22 7z"/>
<path d="M3460 5348 c0 -5 30 -8 66 -8 l66 0 -4 -125 c-3 -85 -1 -124 7 -122
5 2 11 41 13 90 2 52 7 87 13 87 6 0 24 -14 41 -30 17 -17 33 -28 36 -25 11
11 -14 38 -52 58 -28 15 -36 25 -34 41 3 19 10 21 71 24 122 5 69 17 -78 17
-80 0 -145 -3 -145 -7z"/>
<path d="M3926 5353 c-4 -4 -35 -7 -69 -6 -55 2 -59 1 -34 -9 38 -17 33 -52
-16 -105 -16 -18 -17 -23 -6 -23 8 0 20 5 27 12 9 9 16 7 32 -7 29 -26 25 -49
-15 -84 -20 -17 -29 -31 -21 -31 37 0 103 96 123 178 5 21 -10 31 -21 13 -10
-15 -58 0 -52 16 3 8 6 17 6 19 0 2 21 4 46 4 32 0 44 4 42 13 -5 14 -31 21
-42 10z m-6 -90 c0 -5 -3 -18 -6 -30 -6 -22 -7 -22 -35 -6 -30 18 -34 25 -22
36 9 9 63 9 63 0z"/>
<path d="M4580 5339 c0 -19 -4 -21 -40 -16 -30 4 -40 2 -40 -9 0 -10 12 -14
40 -14 29 0 40 -4 40 -15 0 -15 -8 -17 -72 -17 -21 0 -38 -4 -38 -9 0 -5 32
-9 71 -9 l72 0 -26 -20 c-14 -11 -28 -20 -31 -20 -3 0 -24 -8 -46 -17 -43 -19
-56 -39 -15 -23 14 5 25 7 25 4 0 -4 7 -1 15 6 13 11 15 5 15 -49 0 -57 10
-76 25 -50 6 9 33 9 120 -3 18 -3 20 4 22 64 1 63 -10 94 -26 72 -7 -11 -76
-12 -86 -2 -15 15 58 40 102 35 24 -2 46 0 49 5 11 17 -16 26 -52 18 l-34 -8
23 29 c12 15 28 28 35 28 17 1 15 20 -4 28 -9 3 -21 -3 -31 -16 -10 -16 -18
-19 -27 -12 -7 6 -22 7 -35 4 -20 -5 -22 -3 -16 16 5 17 2 21 -14 21 -15 0
-21 -6 -21 -21z m80 -49 c0 -12 -41 -30 -52 -23 -20 12 -6 33 22 33 17 0 30
-5 30 -10z m30 -115 c0 -12 -13 -15 -60 -15 -47 0 -60 3 -60 15 0 12 13 15 60
15 47 0 60 -3 60 -15z m-1 -41 c2 -2 1 -10 -2 -19 -5 -11 -21 -15 -62 -15 -48
0 -55 3 -55 19 0 11 8 22 18 24 16 4 93 -3 101 -9z"/>
<path d="M4934 5326 c14 -19 26 -42 26 -50 0 -9 5 -16 10 -16 19 0 10 38 -16
69 -35 42 -53 39 -20 -3z"/>
<path d="M5236 5353 c-3 -4 -6 -18 -7 -32 l-1 -26 -7 25 c-4 14 -16 26 -26 28
-16 3 -18 1 -7 -9 18 -19 15 -29 -8 -29 -11 0 -20 -4 -20 -10 0 -5 16 -10 35
-10 19 0 35 -5 35 -10 0 -15 -56 -130 -76 -157 -10 -14 -12 -23 -5 -23 6 0 23
18 37 40 l27 40 88 -1 c96 -1 98 -3 79 -54 -7 -20 -16 -26 -33 -23 -12 2 -22
10 -23 18 0 22 -15 50 -25 50 -12 0 1 -51 15 -65 58 -54 76 -41 100 68 6 24 3
27 -19 27 -27 0 -33 18 -13 38 12 12 2 17 -29 13 -15 -2 -17 25 -3 34 21 13
-3 25 -51 25 -46 0 -49 2 -40 19 8 14 7 20 -3 24 -8 3 -17 3 -20 0z m84 -83
c0 -17 -7 -20 -39 -20 -34 0 -38 3 -34 20 4 15 14 20 39 20 27 0 34 -4 34 -20z
m30 -50 c0 -18 -7 -20 -58 -20 -64 0 -78 6 -61 27 7 8 32 13 65 13 47 0 54 -2
54 -20z"/>
<path d="M3990 5245 c0 -57 4 -95 10 -95 6 0 10 33 10 79 0 44 3 86 6 95 4 11
1 16 -10 16 -14 0 -16 -14 -16 -95z"/>
<path d="M5010 5323 c0 -25 -53 -113 -85 -143 l-27 -25 4 68 c3 50 1 67 -9 67
-13 0 -17 -36 -13 -108 2 -38 -13 -60 -50 -74 -15 -6 -20 -12 -12 -15 7 -3 24
2 37 11 22 15 25 15 25 1 0 -8 6 -16 13 -16 6 -1 26 -3 42 -5 17 -2 45 -2 63
1 30 6 32 9 32 45 0 22 -4 40 -10 40 -5 0 -10 -11 -10 -25 0 -32 -32 -49 -76
-40 -39 7 -43 19 -14 37 12 7 41 47 66 88 69 113 67 110 44 110 -12 0 -20 -7
-20 -17z"/>
<path d="M5713 5329 c-6 -6 -51 -9 -122 -7 -61 2 -111 0 -111 -4 0 -4 30 -8
68 -10 l67 -3 -1 -60 c-3 -153 -1 -145 -35 -145 l-31 0 4 75 c2 54 0 75 -9 75
-8 0 -13 -24 -15 -72 -3 -72 -3 -73 -30 -73 -16 1 -28 -3 -28 -7 0 -7 261 -16
280 -10 6 2 8 7 5 12 -3 4 -32 6 -65 3 l-60 -6 0 57 0 56 53 0 c47 1 50 2 33
15 -14 10 -23 11 -36 3 -31 -20 -52 -3 -48 39 l3 38 55 0 c41 0 55 4 55 14 0
18 -18 24 -32 10z"/>
<path d="M5896 5331 c-4 -6 -26 -12 -49 -12 -23 -1 -34 -3 -24 -6 23 -6 22
-44 -3 -93 -24 -47 -25 -57 -5 -40 13 11 15 5 15 -46 0 -45 3 -55 12 -46 7 7
23 12 38 12 24 0 25 2 24 68 l0 67 -28 -3 c-24 -3 -28 -1 -22 13 3 9 6 25 6
36 0 14 7 19 30 19 31 0 36 6 21 29 -6 9 -11 10 -15 2z m-14 -171 c-3 -35 -8
-50 -18 -50 -10 0 -14 14 -14 50 0 41 3 50 18 50 14 0 16 -8 14 -50z"/>
<path d="M5980 5324 c0 -12 -6 -15 -24 -10 -25 6 -36 -8 -36 -42 1 -16 2 -15
14 1 7 9 18 17 25 17 11 0 -10 -41 -36 -68 -17 -18 -16 -23 2 -16 13 5 15 -6
15 -70 0 -44 4 -76 10 -76 6 0 10 5 10 10 0 7 24 9 65 6 51 -4 65 -2 65 9 0
20 -20 29 -33 16 -16 -16 -27 -13 -27 8 0 14 6 17 25 13 19 -3 25 0 25 13 0
13 -6 16 -25 11 -20 -5 -25 -3 -25 14 0 15 7 20 25 20 14 0 25 5 25 11 0 7
-10 9 -25 5 -20 -5 -25 -3 -25 13 0 14 6 19 23 18 12 -1 22 3 22 8 0 6 -10 9
-21 7 -15 -1 -23 4 -27 18 -3 11 -10 20 -17 20 -7 0 -9 -8 -5 -20 5 -16 2 -20
-14 -20 -24 0 -26 8 -7 33 17 22 81 24 72 2 -8 -21 7 -19 27 3 26 28 21 32
-34 32 -45 0 -50 2 -39 15 10 13 9 15 -9 15 -13 0 -21 -6 -21 -16z m30 -114
c0 -14 -6 -19 -20 -17 -25 4 -34 13 -25 26 11 19 45 13 45 -9z m-5 -50 c0 -8
-10 -16 -22 -18 -22 -3 -32 16 -16 32 12 11 38 2 38 -14z m3 -47 c-4 -22 -48
-31 -48 -10 0 19 10 27 32 27 13 0 18 -6 16 -17z"/>
<path d="M6252 5318 c-25 -13 -40 -54 -24 -70 15 -15 31 -1 25 24 -8 27 22 51
47 38 30 -16 32 -41 5 -76 -14 -18 -25 -45 -24 -61 0 -28 0 -28 10 -4 5 13 23
38 39 54 35 36 37 47 13 75 -22 26 -61 35 -91 20z"/>
<path d="M2990 5300 c0 -6 -49 -10 -126 -10 -81 0 -123 -4 -119 -10 3 -5 36
-10 72 -10 l65 0 -3 -82 c-3 -59 -1 -82 9 -85 9 -4 12 17 12 81 l0 86 65 0
c65 0 75 6 53 28 -15 15 -28 16 -28 2z"/>
<path d="M4230 5228 c0 -37 5 -70 10 -73 6 -3 10 -1 10 4 0 6 18 11 40 11 l40
0 0 54 c0 30 -4 58 -10 61 -5 3 -10 1 -10 -4 0 -15 -53 -14 -68 1 -9 9 -12 -3
-12 -54z m80 -3 c0 -31 -3 -35 -25 -35 -22 0 -25 4 -25 35 0 31 3 35 25 35 22
0 25 -4 25 -35z"/>
<path d="M3204 5241 c1 -43 22 -47 32 -5 7 26 -1 44 -20 44 -9 0 -13 -13 -12
-39z"/>
<path d="M2800 5232 c0 -10 -13 -31 -30 -47 -34 -33 -38 -45 -12 -38 11 2 30
22 43 43 13 22 28 40 32 40 5 0 5 5 2 10 -10 17 -35 11 -35 -8z"/>
<path d="M2940 5242 c0 -7 11 -28 25 -46 14 -18 25 -38 25 -44 0 -7 7 -12 16
-12 11 0 14 6 9 23 -8 27 -75 97 -75 79z"/>
<path d="M5030 5249 c0 -10 40 -99 45 -99 15 0 1 49 -20 75 -13 17 -24 27 -25
24z"/>
<path d="M4830 5228 c0 -7 -7 -26 -15 -42 -17 -32 -14 -42 10 -33 10 4 15 20
15 47 0 22 -2 40 -5 40 -3 0 -5 -6 -5 -12z"/>
<path d="M550 5196 c0 -8 4 -17 8 -20 13 -8 35 11 28 23 -10 16 -36 14 -36 -3z"/>
<path d="M5250 5138 c0 -21 5 -38 10 -38 13 0 13 40 0 60 -7 11 -10 5 -10 -22z"/>
<path d="M5346 5148 c8 -28 12 -33 20 -25 9 8 -6 47 -17 47 -6 0 -7 -10 -3
-22z"/>
<path d="M5211 5138 c0 -9 -8 -21 -17 -26 -12 -7 -13 -11 -4 -17 17 -11 32 9
27 36 -2 14 -5 17 -6 7z"/>
<path d="M6260 5094 c0 -9 7 -14 17 -12 25 5 28 28 4 28 -12 0 -21 -6 -21 -16z"/>
<path d="M1370 4621 c0 -6 5 -13 10 -16 16 -10 9 -157 -8 -177 -14 -17 -12
-18 34 -18 38 1 45 3 32 11 -15 8 -18 25 -18 95 0 66 3 86 15 90 28 11 15 24
-25 24 -22 0 -40 -4 -40 -9z"/>
<path d="M2893 4596 c-26 -12 -30 -26 -8 -26 22 0 21 -142 -1 -164 -14 -15
-11 -16 28 -15 24 0 37 3 31 6 -9 3 -13 35 -13 109 0 57 -3 103 -7 103 -5 -1
-18 -6 -30 -13z"/>
<path d="M3026 4584 c-20 -19 -20 -44 -2 -69 12 -17 11 -22 -6 -45 -16 -23
-17 -30 -7 -53 16 -34 63 -46 90 -21 20 18 27 84 9 84 -19 0 -22 29 -6 45 21
21 21 61 0 69 -28 11 -62 6 -78 -10z m54 -30 c0 -37 -14 -42 -34 -12 -7 12 -6
21 3 32 21 25 31 19 31 -20z m-5 -98 c18 -27 10 -60 -12 -52 -8 3 -17 6 -19 6
-2 0 -4 16 -4 35 0 41 13 45 35 11z"/>
<path d="M3186 4587 c-37 -27 -43 -150 -8 -189 40 -46 105 11 104 91 -1 88
-46 134 -96 98z m56 -50 c12 -109 -27 -186 -51 -100 -15 51 -14 77 3 118 19
46 42 37 48 -18z"/>
<path d="M3328 4589 c-32 -18 -15 -89 22 -89 39 0 50 11 50 50 0 31 -4 39 -22
44 -29 7 -30 7 -50 -5z m52 -39 c0 -10 -6 -20 -12 -23 -21 -7 -38 4 -38 23 0
10 6 20 13 23 20 7 37 -4 37 -23z"/>
<path d="M2260 4525 c0 -35 -5 -39 -47 -35 -16 1 -23 -4 -23 -15 0 -13 6 -16
21 -12 33 9 49 -3 49 -34 0 -16 5 -29 10 -29 6 0 10 14 10 30 0 28 3 30 35 30
25 0 35 4 35 16 0 9 -8 14 -17 13 -46 -4 -53 0 -53 36 0 19 -4 35 -10 35 -5 0
-10 -16 -10 -35z"/>
<path d="M2051 4534 c-34 -14 -64 -69 -59 -108 4 -28 47 -35 65 -10 12 16 13
16 13 1 0 -22 36 -23 44 -1 9 22 8 26 -6 18 -8 -5 -9 0 -4 17 5 13 10 38 13
55 6 38 -18 48 -66 28z m30 -16 c3 -32 -4 -55 -24 -75 -43 -47 -61 -10 -23 47
26 40 45 51 47 28z"/>
<path d="M2490 4533 c-35 -13 -70 -57 -70 -88 0 -56 51 -75 90 -33 20 22 19
41 -2 20 -17 -17 -48 -15 -55 4 -9 23 26 84 48 84 12 0 16 -5 13 -15 -4 -9 0
-15 10 -15 21 0 21 36 0 44 -9 3 -16 6 -17 5 -1 0 -9 -3 -17 -6z"/>
<path d="M2630 4503 c0 -9 23 -13 81 -13 57 0 80 3 77 12 -6 16 -158 17 -158
1z"/>
<path d="M2626 4445 c8 -20 154 -22 154 -2 0 10 -21 14 -80 15 -67 2 -78 -1
-74 -13z"/>
<path d="M1474 4429 c-8 -14 11 -33 25 -25 6 4 11 14 11 22 0 16 -26 19 -36 3z"/>
<path d="M9330 4368 c-109 -22 -333 -63 -430 -78 -71 -11 -145 -25 -268 -49
-30 -6 -60 -11 -67 -11 -8 0 -49 29 -92 65 -73 61 -103 77 -103 56 0 -6 17
-22 38 -38 20 -15 52 -41 70 -58 l32 -31 -77 -17 c-43 -9 -109 -21 -148 -27
-92 -15 -213 -37 -300 -54 -64 -13 -180 -34 -277 -51 -25 -4 -38 -11 -38 -22
0 -16 -3 -16 105 6 28 6 91 17 140 25 120 20 266 47 385 72 41 8 106 19 143
24 38 5 72 12 78 15 16 10 10 -2 -41 -85 -48 -78 -60 -110 -41 -110 5 0 15 12
22 28 8 15 36 60 62 99 l49 72 71 15 c40 8 101 20 137 26 36 7 90 16 120 21
38 7 56 7 58 -1 15 -45 169 -220 194 -220 3 0 13 -6 20 -12 13 -13 42 -27 121
-62 27 -12 68 -16 147 -16 115 0 127 3 247 63 l62 30 43 -39 c24 -21 51 -45
62 -54 10 -8 44 -38 75 -66 31 -28 85 -77 121 -109 36 -31 83 -74 105 -94 22
-20 78 -69 125 -110 47 -41 87 -77 90 -80 3 -4 57 -53 120 -110 63 -57 160
-145 215 -197 55 -51 119 -106 143 -123 50 -37 50 -38 21 -206 -12 -66 -23
-136 -25 -155 -3 -19 -11 -73 -19 -120 -28 -171 -45 -276 -50 -315 -13 -104
-16 -126 -30 -205 -8 -47 -21 -134 -30 -195 -9 -60 -22 -144 -30 -185 -7 -41
-19 -115 -25 -165 -7 -49 -18 -117 -25 -150 -20 -92 -27 -192 -15 -200 6 -4
22 0 35 9 13 9 36 16 50 16 15 0 50 7 78 15 60 18 135 39 192 54 81 21 282 74
330 87 45 12 165 43 255 65 152 37 282 70 360 92 30 8 80 22 110 30 30 8 80
22 110 30 30 8 80 21 110 27 30 7 69 17 85 22 17 6 49 14 71 17 l41 7 -48 -72
c-45 -67 -62 -114 -40 -114 11 0 98 130 117 175 14 35 51 51 169 75 33 7 69
16 80 21 20 8 122 35 185 49 31 6 75 19 275 75 53 15 207 54 239 61 23 4 42
21 34 29 -8 9 -76 -6 -273 -60 -93 -26 -186 -50 -205 -55 -19 -5 -98 -25 -175
-45 -77 -20 -154 -40 -171 -45 -18 -4 -36 -10 -42 -14 -6 -3 -32 -10 -58 -15
-46 -9 -49 -8 -103 32 -30 23 -69 54 -85 69 -33 31 -56 36 -56 14 0 -14 26
-38 112 -104 l36 -28 -56 -18 c-32 -9 -77 -24 -102 -33 -57 -19 -284 -81 -330
-89 -19 -4 -43 -11 -52 -16 -10 -5 -37 -13 -60 -18 -38 -7 -165 -40 -338 -86
-30 -8 -73 -19 -95 -24 -22 -5 -76 -18 -120 -29 -44 -12 -83 -21 -87 -21 -5 0
-8 13 -8 29 0 56 -76 197 -142 262 -36 36 -112 89 -127 89 -5 0 -22 7 -37 15
-17 9 -56 15 -93 15 l-64 0 7 38 c8 42 19 123 35 262 6 52 15 111 20 130 5 19
17 80 26 135 9 55 24 139 32 188 l16 87 54 0 c30 0 70 7 90 15 19 8 44 15 54
15 11 0 19 4 19 9 0 5 13 14 30 19 39 14 128 107 161 169 59 109 64 251 12
373 -33 79 -50 105 -101 149 -100 87 -150 105 -287 105 -102 0 -115 -2 -175
-31 -36 -16 -76 -42 -89 -57 -14 -14 -32 -26 -40 -26 -15 0 -80 56 -196 168
-27 26 -63 58 -78 69 -24 19 -126 109 -228 203 -15 14 -47 41 -70 60 -24 19
-57 49 -73 65 -17 17 -87 80 -154 140 -423 376 -374 341 -462 323z m129 -65
c67 -56 103 -89 193 -173 l68 -63 -23 -16 c-60 -46 -164 -74 -267 -73 -87 1
-158 22 -244 74 -41 24 -156 138 -156 155 0 7 -4 13 -8 13 -11 0 -35 51 -27
58 3 3 58 14 123 24 96 14 265 43 281 47 2 1 29 -20 60 -46z m1560 -893 c110
-35 179 -95 233 -205 28 -56 31 -68 32 -175 1 -107 -1 -119 -27 -170 -33 -64
-116 -153 -169 -181 -79 -41 -209 -72 -221 -52 -3 5 -2 27 3 49 11 45 36 211
45 300 l7 62 -48 38 c-27 22 -78 67 -114 100 -36 34 -85 79 -109 101 l-43 39
37 28 c21 16 67 42 104 57 83 36 178 39 270 9z m-167 -1685 c26 -3 54 -12 61
-18 7 -7 28 -21 47 -31 36 -21 113 -100 141 -145 18 -31 56 -125 64 -162 6
-23 2 -27 -37 -38 -24 -7 -63 -18 -88 -26 -157 -46 -400 -103 -400 -95 0 5 9
62 21 127 11 65 24 145 28 178 16 116 35 210 46 217 5 4 24 6 40 3 17 -2 51
-7 77 -10z"/>
<path d="M1368 4208 c19 -19 16 -163 -4 -182 -14 -15 -11 -16 33 -15 26 0 42
3 36 6 -9 3 -13 33 -13 98 0 81 2 94 18 98 9 3 -5 5 -32 6 -39 1 -47 -2 -38
-11z"/>
<path d="M1472 4203 c12 -14 14 -35 11 -93 -3 -41 -10 -81 -15 -87 -8 -10 -1
-13 33 -13 31 0 40 3 29 10 -19 12 -19 163 0 185 11 13 6 15 -30 15 -40 0 -42
-1 -28 -17z"/>
<path d="M2446 4195 c3 -8 -4 -47 -16 -88 -12 -41 -20 -83 -18 -93 5 -31 52
-30 93 3 33 26 35 32 33 73 -3 43 -4 45 -35 45 -32 0 -32 0 -26 37 5 34 3 38
-15 38 -15 0 -20 -5 -16 -15z m68 -101 c8 -21 -25 -78 -48 -82 -31 -6 -36 11
-16 56 20 44 52 57 64 26z"/>
<path d="M3304 4185 c-11 -8 -14 -15 -6 -15 16 0 17 -151 0 -168 -9 -9 -3 -12
27 -11 22 0 34 3 28 6 -9 3 -13 34 -13 104 0 54 -4 99 -8 99 -5 0 -17 -7 -28
-15z"/>
<path d="M3448 4189 c-21 -12 -24 -69 -6 -87 9 -9 8 -16 -5 -30 -52 -57 29
-126 83 -72 25 25 25 52 0 75 l-20 18 20 22 c25 26 25 47 2 68 -21 19 -49 21
-74 6z m47 -39 c0 -36 -29 -33 -33 3 -3 23 0 28 15 25 12 -2 18 -12 18 -28z
m5 -126 c0 -21 -21 -28 -37 -11 -11 11 -13 24 -8 44 l7 28 19 -24 c10 -13 19
-29 19 -37z"/>
<path d="M3609 4187 c-27 -21 -39 -54 -39 -109 0 -94 67 -133 109 -64 32 52
26 130 -14 169 -19 20 -34 21 -56 4z m49 -77 c4 -77 -3 -110 -23 -110 -34 0
-46 99 -19 151 23 46 39 31 42 -41z"/>
<path d="M3730 4169 c-20 -36 2 -69 45 -69 29 0 36 4 41 27 9 35 -7 57 -44 61
-23 2 -34 -2 -42 -19z m60 -24 c0 -25 -23 -35 -35 -15 -10 16 2 40 20 40 9 0
15 -9 15 -25z"/>
<path d="M2250 4125 c0 -32 -2 -35 -30 -35 -16 0 -30 -4 -30 -10 0 -5 14 -10
30 -10 28 0 30 -2 30 -41 0 -24 4 -38 10 -34 6 3 10 22 10 41 0 33 1 34 40 34
22 0 40 5 40 10 0 6 -18 10 -40 10 -39 0 -40 1 -40 35 0 19 -4 35 -10 35 -5 0
-10 -16 -10 -35z"/>
<path d="M2023 4118 c-32 -36 -45 -68 -39 -94 7 -26 43 -33 64 -12 9 9 12 9
12 -1 0 -7 9 -11 22 -9 19 2 23 10 24 38 0 19 4 50 9 68 l8 32 -40 0 c-28 0
-45 -6 -60 -22z m57 -16 c0 -33 -29 -72 -54 -72 -22 0 -20 26 5 66 26 42 49
45 49 6z"/>
<path d="M2889 4129 c-37 -14 -66 -80 -51 -114 14 -30 61 -34 88 -8 20 20 1
32 -21 13 -23 -19 -47 5 -39 39 12 47 64 85 64 46 0 -8 5 -15 10 -15 16 0 11
37 -6 44 -9 3 -16 6 -17 5 -1 0 -14 -5 -28 -10z"/>
<path d="M3045 4111 c-9 -15 9 -20 88 -23 48 -2 67 0 67 10 0 8 -19 12 -59 12
-33 0 -66 3 -74 6 -8 3 -18 1 -22 -5z"/>
<path d="M2605 4080 c-3 -6 4 -10 17 -11 138 -4 148 -3 148 9 0 15 -156 17
-165 2z"/>
<path d="M3048 4048 c-4 -10 14 -14 74 -15 59 -2 78 1 75 10 -5 17 -143 22
-149 5z"/>
<path d="M1570 4033 c0 -5 5 -15 10 -23 9 -13 11 -13 20 0 15 22 12 30 -10 30
-11 0 -20 -3 -20 -7z"/>
<path d="M9237 3832 c-33 -35 -37 -86 -7 -102 23 -12 64 -4 81 16 16 20 5 28
-19 13 -11 -7 -27 -9 -37 -5 -35 13 1 96 42 96 7 0 10 -6 7 -15 -4 -9 0 -15
10 -15 9 0 16 8 16 20 0 32 -59 27 -93 -8z"/>
<path d="M1358 3813 c8 -3 12 -33 12 -98 0 -65 -4 -95 -12 -98 -7 -3 7 -6 31
-6 36 -1 42 1 32 13 -17 21 -9 175 10 187 9 6 -3 8 -36 8 -27 0 -44 -3 -37 -6z"/>
<path d="M1463 3809 c24 -14 25 -159 1 -183 -14 -15 -11 -16 33 -16 37 1 44 3
31 11 -25 14 -26 159 -2 183 14 15 11 16 -33 16 -37 -1 -44 -3 -30 -11z"/>
<path d="M1563 3809 c25 -15 26 -176 0 -186 -15 -6 -15 -7 3 -14 28 -11 74
-11 74 1 0 6 -4 10 -10 10 -6 0 -10 37 -10 90 0 74 3 91 18 99 13 8 4 10 -38
10 -42 0 -51 -2 -37 -10z"/>
<path d="M2000 3810 c0 -5 4 -10 9 -10 10 0 9 -7 -24 -111 -10 -31 -15 -64
-12 -73 10 -25 61 -20 96 10 26 21 31 33 31 69 0 36 -4 44 -22 49 -13 3 -27 1
-32 -4 -15 -15 -30 -12 -18 3 5 6 13 27 17 45 6 30 5 32 -19 32 -14 0 -26 -4
-26 -10z m69 -99 c27 -17 -15 -91 -52 -91 -17 0 -18 5 -12 38 3 20 14 43 23
50 19 14 23 15 41 3z"/>
<path d="M2859 3789 c-25 -25 -19 -35 10 -19 12 6 26 8 31 5 16 -10 11 -53 -7
-65 -13 -8 -15 -13 -5 -16 54 -23 45 -74 -14 -74 -45 0 -42 -24 3 -28 22 -2
37 3 52 19 22 24 28 78 11 95 -8 8 -7 19 1 37 10 23 9 30 -6 47 -23 26 -50 25
-76 -1z"/>
<path d="M3060 3788 c-38 -26 -70 -81 -70 -119 0 -31 41 -79 67 -79 10 0 29 7
41 16 47 33 16 135 -38 121 -11 -3 -20 -2 -20 2 0 12 55 61 68 61 7 0 12 5 12
10 0 17 -25 11 -60 -12z m20 -97 c26 -50 -6 -108 -36 -66 -15 20 -19 67 -7 78
12 13 32 7 43 -12z"/>
<path d="M3174 3779 c-14 -16 -19 -36 -19 -84 0 -69 20 -105 59 -105 31 0 42
11 56 54 33 103 -36 201 -96 135z m66 -78 c0 -72 -10 -97 -33 -88 -19 7 -31
75 -22 119 19 87 55 66 55 -31z"/>
<path d="M3315 3776 c-28 -42 10 -85 59 -66 20 7 26 17 26 38 0 54 -56 72 -85
28z m59 -12 c8 -21 -1 -34 -24 -34 -22 0 -33 23 -17 39 16 16 34 14 41 -5z"/>
<path d="M2234 3728 c1 -31 -1 -33 -33 -33 -19 0 -36 -6 -38 -12 -3 -9 7 -13
31 -13 34 0 36 -2 36 -35 0 -24 5 -35 15 -35 10 0 15 11 15 35 0 32 2 35 30
35 18 0 30 5 30 13 0 9 -10 12 -30 9 -29 -4 -30 -3 -30 32 0 24 -5 36 -14 36
-9 0 -13 -11 -12 -32z"/>
<path d="M2444 3730 c-23 -9 -54 -61 -54 -90 0 -41 63 -55 95 -20 10 11 16 22
13 25 -3 3 -11 -1 -18 -10 -14 -17 -46 -20 -55 -5 -14 22 7 70 37 86 29 15 30
15 23 -5 -5 -15 -2 -21 9 -21 10 0 16 9 16 25 0 27 -24 32 -66 15z"/>
<path d="M2600 3705 c0 -13 13 -15 77 -13 50 2 78 7 81 16 3 9 -17 12 -77 12
-66 0 -81 -3 -81 -15z"/>
<path d="M2605 3662 c-16 -16 3 -22 75 -22 89 0 113 19 28 21 -29 1 -63 3 -75
4 -12 1 -25 0 -28 -3z"/>
<path d="M1663 3634 c-8 -21 13 -42 28 -27 13 13 5 43 -11 43 -6 0 -13 -7 -17
-16z"/>
<path d="M11412 3333 c-9 -3 -10 -9 -3 -17 7 -8 2 -39 -15 -95 -22 -70 -24
-85 -12 -96 29 -28 53 -26 92 9 32 30 37 40 34 73 -3 36 -5 38 -39 38 -35 0
-36 1 -29 30 4 17 11 38 15 48 5 13 2 17 -11 16 -11 0 -25 -3 -32 -6z m62
-137 c-2 -43 -33 -82 -58 -73 -21 8 -11 64 17 95 28 30 42 23 41 -22z"/>
<path d="M3250 3065 c-8 -22 -15 -25 -62 -25 -60 0 -55 -17 7 -22 l40 -3 -47
-49 c-27 -27 -48 -50 -48 -52 0 -11 22 -1 48 21 17 14 33 25 37 25 8 0 -5 -91
-15 -105 -14 -20 -19 -44 -10 -50 5 -3 17 11 27 32 18 37 19 38 75 38 55 0 68
-7 68 -35 0 -5 -14 -10 -32 -12 l-32 -3 27 -14 c48 -26 57 -12 57 91 l0 93
-71 -2 c-51 -1 -69 1 -66 10 2 8 32 13 83 15 101 3 113 7 90 30 -14 12 -20 14
-23 5 -7 -20 -133 -18 -133 2 0 8 5 15 11 15 5 0 7 5 4 10 -11 17 -25 11 -35
-15z m83 -95 c26 0 37 -4 37 -15 0 -12 -13 -15 -60 -15 -54 0 -60 2 -60 21 0
17 4 20 23 15 12 -3 39 -6 60 -6z m5 -49 c12 -1 22 -7 22 -16 0 -11 -13 -15
-53 -15 -58 0 -68 4 -60 26 3 9 16 12 36 10 18 -2 42 -4 55 -5z"/>
<path d="M1997 3011 c-15 -32 -27 -62 -27 -65 0 -4 -11 -24 -25 -46 l-25 -40
37 1 c21 0 32 3 26 6 -7 2 -13 12 -13 22 0 46 73 58 92 15 9 -20 9 -27 -1 -33
-9 -6 0 -10 23 -13 41 -5 53 4 32 22 -8 6 -18 25 -21 41 -4 16 -11 31 -16 34
-5 4 -9 13 -9 22 0 20 -31 93 -40 93 -3 0 -18 -27 -33 -59z m43 -47 c0 -7 -11
-14 -24 -16 -22 -4 -23 -3 -13 28 9 30 11 32 23 16 7 -9 14 -22 14 -28z"/>
<path d="M2860 2990 c0 -47 4 -80 10 -80 6 0 10 5 10 10 0 7 32 9 86 8 l86 -3
2 72 2 71 -98 1 -98 0 0 -79z m168 3 l3 -53 -75 0 -76 0 0 56 0 55 73 -3 72
-3 3 -52z"/>
<path d="M3643 3039 c14 -8 17 -25 17 -95 0 -66 -3 -86 -15 -90 -30 -12 -14
-24 32 -24 43 0 45 1 30 18 -22 25 -23 159 0 184 15 17 14 18 -33 18 -38 -1
-45 -3 -31 -11z"/>
<path d="M2858 2859 c-25 -27 -40 -49 -33 -49 18 0 106 80 99 91 -9 15 -17 10
-66 -42z"/>
<path d="M2990 2900 c0 -5 6 -13 13 -17 8 -4 24 -23 37 -40 26 -36 40 -42 40
-18 0 8 -17 30 -37 50 -39 35 -53 42 -53 25z"/>
<path d="M2160 2875 c0 -17 5 -25 13 -22 6 2 12 12 12 22 0 10 -6 20 -12 23
-8 2 -13 -6 -13 -23z"/>
<path d="M3245 2310 c-5 -16 -15 -20 -56 -20 -27 0 -49 -4 -49 -10 0 -5 21
-10 46 -10 l45 0 -18 -31 c-10 -17 -30 -38 -45 -47 -16 -9 -28 -22 -28 -29 0
-20 11 -16 48 20 l34 32 -7 -50 c-4 -27 -13 -65 -21 -83 -12 -30 -12 -33 3
-30 9 2 21 18 25 36 8 32 9 32 67 32 45 0 60 -4 65 -16 9 -24 -3 -36 -31 -29
-16 4 -22 2 -18 -5 3 -5 12 -10 20 -10 7 0 15 -6 18 -12 3 -10 7 -10 21 1 12
10 16 30 16 80 0 36 1 75 2 86 3 18 -2 19 -69 16 -43 -1 -73 1 -73 7 0 22 30
31 103 30 43 0 80 2 84 6 15 14 -13 20 -88 17 -79 -2 -80 -2 -69 18 8 17 8 21
-4 21 -8 0 -18 -9 -21 -20z m78 -100 c27 0 37 -4 37 -15 0 -13 -11 -15 -60
-13 -51 2 -60 6 -60 22 0 14 5 17 23 12 12 -3 39 -6 60 -6z m35 -62 c3 -16 -5
-18 -62 -18 -36 0 -66 2 -66 4 0 29 16 37 69 34 44 -2 57 -7 59 -20z"/>
<path d="M2850 2236 c0 -67 2 -77 16 -72 9 3 56 6 105 6 82 0 89 2 81 18 -8
17 -8 24 -1 91 l4 34 -102 1 -103 1 0 -79z m170 -1 l0 -55 -75 0 -75 0 0 55 0
55 75 0 75 0 0 -55z"/>
<path d="M1928 2303 c19 -8 17 -172 -3 -179 -35 -14 -10 -24 55 -24 62 0 74 3
95 25 29 28 31 47 8 70 -13 14 -14 21 -5 36 16 26 15 36 -8 59 -16 16 -33 20
-87 19 -38 0 -62 -3 -55 -6z m105 -17 c23 -17 22 -43 -2 -56 -38 -20 -51 -13
-51 30 0 43 18 52 53 26z m-9 -86 c35 -13 37 -65 4 -74 -44 -11 -48 -8 -48 39
0 48 4 51 44 35z"/>
<path d="M3637 2292 c17 -11 20 -166 4 -186 -12 -14 -9 -16 29 -16 41 0 42 1
27 18 -25 27 -24 167 1 181 13 8 7 10 -28 11 -25 0 -40 -4 -33 -8z"/>
<path d="M3742 2283 c20 -24 22 -127 4 -164 l-14 -29 46 0 c37 1 43 3 30 11
-15 8 -18 25 -18 94 0 69 3 86 18 94 13 8 6 10 -32 11 -46 0 -48 -1 -34 -17z"/>
<path d="M2875 2131 c-8 -16 -26 -38 -40 -49 -14 -11 -25 -25 -25 -32 0 -7 10
-3 23 9 12 11 37 33 55 50 34 31 41 51 17 51 -8 0 -21 -13 -30 -29z"/>
<path d="M3006 2118 c16 -18 32 -34 37 -36 4 -2 7 -10 7 -19 0 -16 22 -13 27
3 5 14 -67 84 -86 84 -10 0 -6 -10 15 -32z"/>
<path d="M2135 2130 c-8 -14 3 -30 21 -30 8 0 14 9 14 20 0 21 -24 28 -35 10z"/>
<path d="M11146 1769 c-18 -21 -26 -42 -26 -70 0 -34 3 -39 23 -39 13 0 29 6
36 13 11 10 14 10 18 0 6 -18 28 -16 44 3 10 13 10 17 0 23 -9 6 -10 14 -3 27
5 11 12 31 16 47 6 26 5 27 -38 27 -37 0 -48 -5 -70 -31z m72 -6 c4 -26 -55
-90 -69 -76 -13 13 -5 43 23 78 23 29 41 29 46 -2z"/>
<path d="M1980 1563 c-40 -16 -54 -43 -55 -104 0 -56 3 -63 30 -85 35 -28 76
-31 116 -7 28 17 40 43 19 43 -5 0 -10 -4 -10 -9 0 -5 -14 -14 -31 -21 -27
-11 -33 -11 -57 7 -43 32 -50 65 -24 118 18 38 26 45 50 45 29 0 62 -26 62
-48 0 -7 5 -12 10 -12 6 0 10 17 10 38 l0 38 -52 1 c-29 1 -60 -1 -68 -4z"/>
<path d="M3235 1549 c-6 -18 -13 -20 -56 -17 -27 1 -49 0 -49 -4 0 -9 20 -11
63 -8 27 2 28 0 17 -22 -7 -12 -28 -40 -48 -60 -40 -42 -30 -52 12 -13 l28 26
-5 -63 c-2 -35 -8 -74 -12 -88 l-8 -25 22 27 c11 14 21 33 21 42 0 13 12 16
60 16 57 0 60 -1 60 -24 0 -21 -4 -24 -27 -20 -36 7 -19 -12 19 -21 34 -9 36
-4 40 103 3 78 2 83 -17 81 -11 -1 -43 -1 -72 0 -42 1 -51 4 -47 16 5 12 25
15 90 15 63 0 84 3 84 13 0 11 -18 13 -82 9 -68 -3 -81 -2 -70 9 16 17 15 29
-2 29 -8 0 -18 -9 -21 -21z m115 -104 c0 -12 -13 -15 -59 -15 -56 0 -79 9 -64
24 3 3 33 6 65 6 45 0 58 -3 58 -15z m0 -44 c0 -20 -26 -29 -74 -24 -59 6 -63
8 -48 25 11 14 122 13 122 -1z"/>
<path d="M2840 1484 l0 -71 99 -2 98 -2 -5 50 c-3 33 0 56 8 66 7 9 10 18 7
21 -3 4 -51 7 -106 8 l-101 1 0 -71z m170 -10 c0 -54 -1 -56 -22 -50 -13 3
-47 6 -75 6 l-53 0 0 50 0 50 75 0 75 0 0 -56z"/>
<path d="M3990 1541 c-47 -4 -80 -9 -73 -14 6 -4 19 -4 29 0 15 6 17 0 12 -59
-6 -72 -27 -124 -65 -163 -15 -14 -20 -25 -13 -25 7 0 26 14 41 31 25 28 35
47 54 104 6 18 8 17 22 -10 9 -16 22 -37 30 -46 12 -14 11 -18 -9 -31 -13 -8
-40 -20 -60 -27 -21 -7 -38 -16 -38 -21 0 -10 50 4 97 28 30 15 34 15 76 -6
24 -12 51 -22 60 -22 27 0 9 25 -25 36 -48 14 -55 35 -27 75 13 19 27 36 32
37 4 2 7 10 7 19 0 11 -7 13 -31 8 -30 -7 -31 -6 -26 21 15 79 25 72 -93 65z
m54 -21 c19 0 22 -4 18 -30 -4 -25 -9 -30 -33 -30 -16 0 -32 -1 -36 -2 -9 -3
-16 40 -9 59 4 9 13 13 22 9 9 -3 26 -6 38 -6z m45 -115 c-28 -48 -34 -50 -57
-18 -37 54 -37 53 22 53 l55 0 -20 -35z"/>
<path d="M3628 1533 c16 -6 17 -174 0 -191 -9 -9 -1 -12 37 -12 39 1 46 3 33
11 -15 8 -18 25 -18 99 0 76 2 89 18 93 9 3 -5 5 -33 5 -27 0 -44 -2 -37 -5z"/>
<path d="M4370 1529 c0 -5 5 -9 10 -9 6 0 10 -37 10 -90 0 -75 -3 -90 -16 -90
-8 0 -12 -4 -9 -10 3 -5 27 -10 53 -10 41 1 45 2 30 14 -15 11 -18 29 -18 94
0 67 3 83 18 91 20 12 21 12 -35 16 -24 2 -43 -1 -43 -6z"/>
<path d="M4480 1529 c0 -4 5 -11 10 -14 6 -3 10 -42 10 -86 0 -62 -3 -81 -15
-85 -30 -12 -14 -24 33 -24 40 1 44 3 30 13 -12 10 -17 31 -18 87 -3 99 -3
100 17 100 9 0 13 3 10 6 -9 10 -77 12 -77 3z"/>
<path d="M4588 1523 c8 -3 12 -31 12 -90 0 -70 -3 -88 -17 -99 -16 -12 -12
-13 32 -14 38 0 46 3 37 12 -17 17 -16 185 1 191 6 3 -8 5 -33 5 -25 0 -39 -2
-32 -5z"/>
<path d="M2880 1390 c0 -5 -18 -27 -40 -50 -21 -22 -33 -40 -26 -40 14 0 96
79 96 92 0 5 -7 8 -15 8 -8 0 -15 -4 -15 -10z"/>
<path d="M2970 1396 c0 -3 12 -18 28 -34 15 -16 35 -40 44 -53 l17 -24 1 27
c0 19 -11 35 -39 57 -37 29 -51 37 -51 27z"/>
<path d="M2130 1365 c0 -14 4 -25 9 -25 12 0 23 29 15 41 -10 18 -24 9 -24
-16z"/>
<path d="M3233 800 c-5 -17 -14 -20 -59 -20 -30 0 -54 -4 -54 -10 0 -11 17
-13 63 -10 27 2 28 0 17 -22 -7 -12 -28 -40 -48 -60 -36 -38 -41 -62 -6 -30
56 50 56 50 51 -7 -3 -29 -10 -58 -16 -64 -6 -6 -11 -17 -11 -24 0 -23 18 -14
32 17 12 29 15 30 76 30 55 0 63 -2 60 -17 -2 -12 -12 -18 -31 -17 -15 0 -26
-4 -24 -10 5 -14 57 -30 67 -20 4 5 10 50 12 100 l4 91 -74 -5 -74 -5 12 23
c11 21 16 22 96 16 67 -4 84 -2 84 8 0 11 -14 13 -56 12 -80 -4 -103 2 -97 25
3 11 0 19 -7 19 -6 0 -14 -9 -17 -20z m102 -110 c0 -11 -14 -16 -57 -18 -53
-2 -58 -1 -58 18 0 19 5 21 58 18 43 -2 57 -7 57 -18z m5 -55 c0 -12 -13 -15
-60 -15 -47 0 -60 3 -60 15 0 12 13 15 60 15 47 0 60 -3 60 -15z"/>
<path d="M2835 731 l0 -77 95 -2 95 -2 1 73 0 72 -77 -4 c-42 -1 -85 1 -95 7
-18 9 -19 5 -19 -67z m173 -9 l-3 -47 -73 -1 -72 -2 0 52 0 51 75 -3 76 -4 -3
-46z"/>
<path d="M1918 793 c8 -3 12 -32 12 -94 0 -64 -3 -89 -12 -89 -9 0 -8 -4 2
-10 25 -17 139 -2 163 21 32 29 31 125 0 157 -20 19 -33 22 -100 21 -43 0 -72
-3 -65 -6z m138 -34 c30 -33 25 -96 -9 -125 -33 -28 -63 -31 -75 -6 -4 9 -6
47 -4 85 l4 67 32 0 c21 0 40 -8 52 -21z"/>
<path d="M3618 778 c7 -7 12 -43 12 -91 0 -64 -3 -82 -17 -93 -16 -12 -11 -13
37 -13 42 0 51 2 38 10 -25 14 -26 159 -2 183 14 15 11 16 -32 16 -37 0 -45
-3 -36 -12z"/>
<path d="M3720 780 c0 -5 5 -10 10 -10 6 0 10 -35 10 -85 0 -69 -3 -86 -17
-94 -14 -8 -7 -10 30 -11 44 0 47 2 33 15 -20 20 -20 150 1 170 20 21 16 25
-27 25 -22 0 -40 -4 -40 -10z"/>
<path d="M4088 783 c-47 -2 -78 -8 -78 -15 0 -6 10 -8 26 -4 l27 7 -6 -60 c-8
-72 -25 -116 -62 -154 -32 -34 -27 -47 8 -20 30 21 54 65 63 110 6 32 24 37
24 6 0 -8 9 -26 20 -40 11 -14 18 -28 16 -32 -2 -3 -27 -17 -55 -31 -28 -14
-51 -28 -51 -32 0 -9 76 19 104 38 16 11 25 9 63 -13 39 -23 73 -26 73 -6 0 5
-23 16 -50 26 l-50 18 40 53 c22 29 40 56 40 59 0 4 -16 7 -36 7 -30 0 -35 3
-29 18 16 41 18 72 4 70 -8 -1 -49 -4 -91 -5z m69 -26 c2 -3 1 -16 -3 -31 -5
-22 -12 -26 -40 -26 -32 0 -34 2 -34 36 0 36 0 37 36 31 20 -3 38 -8 41 -10z
m43 -85 c0 -5 -9 -19 -19 -31 -11 -13 -22 -28 -24 -34 -6 -16 -43 21 -52 51
-6 21 -4 22 44 22 28 0 51 -4 51 -8z"/>
<path d="M4472 769 c16 -9 17 -21 12 -97 -4 -48 -12 -90 -18 -94 -6 -4 12 -7
39 -7 28 1 42 3 33 6 -16 4 -18 17 -18 93 0 68 3 91 15 97 10 6 -1 9 -33 10
-36 2 -43 0 -30 -8z"/>
<path d="M4578 768 c17 -17 16 -185 0 -191 -7 -3 10 -6 37 -6 39 0 46 2 33 10
-15 8 -18 24 -18 89 0 43 5 82 10 85 20 12 9 20 -32 22 -32 2 -39 0 -30 -9z"/>
<path d="M4683 763 c14 -4 17 -17 17 -88 0 -70 -3 -86 -17 -94 -20 -11 -16
-13 41 -26 25 -5 27 -4 20 12 -4 10 -10 53 -12 96 -3 63 -1 78 12 83 32 12 15
24 -31 23 -27 -1 -40 -3 -30 -6z"/>
<path d="M2831 589 c-44 -49 -45 -63 -4 -34 34 24 81 74 75 80 -12 12 -29 1
-71 -46z"/>
<path d="M2960 637 c0 -3 13 -18 28 -34 16 -15 34 -37 40 -48 10 -16 13 -17
21 -6 5 8 7 19 4 25 -9 22 -93 79 -93 63z"/>
<path d="M2130 607 c0 -21 12 -28 27 -16 19 16 16 29 -7 29 -11 0 -20 -6 -20
-13z"/>
</g>
</svg>
