<?xml version="1.0" standalone="no"?>
<!DOCTYPE svg PUBLIC "-//W3C//DTD SVG 20010904//EN"
 "http://www.w3.org/TR/2001/REC-SVG-20010904/DTD/svg10.dtd">
<svg version="1.0" xmlns="http://www.w3.org/2000/svg"
 width="1475.000000pt" height="758.000000pt" viewBox="0 0 1475.000000 758.000000"
 preserveAspectRatio="xMidYMid meet">
<metadata>
Created by potrace 1.16, written by Peter Selinger 2001-2019
</metadata>
<g transform="translate(0.000000,758.000000) scale(0.100000,-0.100000)"
fill="#000000" stroke="none">
<path d="M1588 7273 c-3 -27 -5 -28 -55 -27 l-53 2 0 -68 0 -69 55 6 55 6 0
-57 c0 -36 4 -55 10 -51 6 3 10 28 10 56 l0 49 53 0 53 0 -2 63 -1 62 -52 -3
c-52 -4 -53 -4 -49 24 1 15 -2 29 -9 31 -7 2 -13 -8 -15 -24z m2 -93 l0 -40
-40 0 -40 0 0 40 0 40 40 0 40 0 0 -40z m100 0 l0 -40 -40 0 -40 0 0 40 0 40
40 0 40 0 0 -40z"/>
<path d="M1150 7158 l0 -133 124 0 125 0 -1 115 c0 63 2 122 3 130 3 13 -16
15 -123 18 l-128 3 0 -133z m62 73 c-3 -32 -7 -38 -23 -34 -13 4 -19 14 -19
32 0 32 7 41 29 41 13 0 16 -8 13 -39z m86 32 c-10 -2 -28 -2 -40 0 -13 2 -5
4 17 4 22 1 32 -1 23 -4z m70 -38 c3 -30 0 -37 -8 -29 -7 8 -24 9 -46 4 -19
-5 -34 -4 -34 1 0 5 11 9 24 9 17 0 25 7 28 25 3 13 0 27 -6 29 -6 3 0 4 14 3
22 -2 25 -8 28 -42z m-68 15 c0 -5 -16 -10 -36 -10 -21 0 -33 4 -29 10 3 6 19
10 36 10 16 0 29 -4 29 -10z m-45 -40 c-3 -5 -10 -10 -16 -10 -5 0 -9 5 -9 10
0 6 7 10 16 10 8 0 12 -4 9 -10z m-63 -85 c-5 -84 -22 -84 -22 0 0 45 4 65 13
65 9 0 11 -18 9 -65z m111 58 c-18 -2 -48 -2 -65 0 -18 2 -4 4 32 4 36 0 50
-2 33 -4z m67 -58 c0 -52 -3 -65 -16 -65 -13 0 -15 11 -12 65 2 44 7 65 15 65
9 0 13 -19 13 -65z m-52 3 l3 -38 -38 2 c-37 1 -37 1 -5 5 27 4 32 8 32 31 0
25 -3 27 -40 27 -37 0 -39 -1 -43 -35 -3 -33 -4 -32 -5 8 l-2 43 48 -3 c47 -3
47 -3 50 -40z m-28 2 c0 -5 -9 -10 -20 -10 -11 0 -20 5 -20 10 0 6 9 10 20 10
11 0 20 -4 20 -10z m8 -67 c-16 -2 -40 -2 -55 0 -16 2 -3 4 27 4 30 0 43 -2
28 -4z"/>
<path d="M300 7267 c-14 -7 -27 -21 -29 -32 -3 -20 -3 -20 17 -1 12 10 28 16
37 13 23 -9 19 -54 -5 -62 -26 -8 -26 -25 -1 -25 25 0 37 -36 20 -56 -9 -11
-22 -14 -41 -10 -23 5 -28 2 -28 -14 0 -15 7 -20 29 -20 59 0 103 76 66 114
-13 13 -15 20 -6 29 16 16 13 48 -6 63 -22 17 -22 17 -53 1z"/>
<path d="M435 7248 c-20 -23 -25 -38 -20 -57 10 -39 26 -53 56 -49 25 4 27 2
17 -16 -14 -25 -27 -39 -53 -54 l-20 -11 20 0 c57 0 105 60 105 132 0 84 -56
113 -105 55z m65 -14 c15 -37 12 -64 -6 -71 -33 -12 -59 58 -32 85 18 18 27
15 38 -14z"/>
<path d="M4000 7267 c0 -7 6 -19 13 -26 10 -10 7 -11 -15 -6 -18 5 -28 3 -28
-4 0 -6 16 -11 35 -11 34 0 34 -1 28 -32 -7 -37 -27 -77 -62 -126 -13 -18 -21
-35 -18 -38 7 -7 56 47 63 69 4 14 17 17 68 17 62 0 64 -1 80 -32 12 -26 16
-28 16 -12 0 11 -5 25 -12 32 -9 9 -7 12 10 12 23 0 26 -9 16 -47 -9 -33 -50
-31 -58 2 -7 27 -26 34 -26 9 0 -8 14 -28 32 -44 39 -36 63 -27 73 27 4 21 11
43 17 50 15 19 -1 35 -29 28 -22 -5 -23 -4 -13 15 13 24 4 44 -17 36 -12 -5
-13 0 -8 24 l7 31 -53 -7 -52 -7 7 27 c5 19 3 26 -9 26 -8 0 -15 -9 -15 -19 0
-11 -5 -23 -12 -27 -7 -5 -9 -2 -5 8 5 15 -9 38 -25 38 -4 0 -8 -6 -8 -13z
m140 -73 c0 -10 -12 -14 -40 -14 -50 0 -57 27 -7 32 39 4 47 1 47 -18z m30
-46 c0 -15 -10 -18 -65 -18 -49 0 -65 3 -65 14 0 19 9 21 75 21 46 0 55 -3 55
-17z"/>
<path d="M4690 7213 l0 -63 -35 0 c-39 0 -48 -17 -12 -22 20 -3 22 -9 25 -65
2 -35 7 -63 12 -63 16 0 80 33 80 41 0 4 -16 5 -35 2 l-35 -6 0 41 c0 27 5 42
16 46 24 9 46 7 39 -4 -5 -8 1 -18 53 -73 25 -27 68 -48 86 -41 26 10 18 20
-24 33 -41 12 -63 31 -36 31 9 0 16 5 16 10 0 6 7 10 15 10 8 0 15 7 15 15 0
8 7 15 15 15 8 0 15 7 15 15 0 12 -17 15 -95 15 -62 0 -95 4 -95 11 0 7 18 9
51 6 59 -6 89 0 83 17 -3 8 -25 11 -71 8 -47 -3 -64 -1 -59 7 4 6 35 11 72 11
36 0 64 4 64 10 0 6 -30 10 -70 10 -39 0 -70 4 -70 10 0 6 31 8 75 7 55 -2 75
0 75 9 0 17 -20 28 -31 17 -5 -5 -38 -6 -74 -3 l-65 5 0 -62z m138 -105 c-20
-30 -32 -32 -54 -11 -17 17 -16 18 22 24 21 3 41 7 43 8 2 0 -3 -9 -11 -21z"/>
<path d="M5076 7256 c6 -26 6 -26 -55 -26 -34 0 -61 -4 -61 -10 0 -5 25 -10
55 -10 51 0 55 -2 55 -23 0 -53 -32 -119 -71 -146 -48 -33 -53 -59 -6 -31 46
27 72 59 87 103 11 34 14 37 51 37 39 0 39 0 38 -37 -2 -68 -12 -88 -42 -85
-15 1 -27 -2 -27 -8 0 -5 6 -10 14 -10 8 0 16 -5 18 -11 5 -16 39 1 48 26 5
13 12 51 16 84 l7 61 -57 0 c-49 0 -56 2 -56 20 0 18 7 20 75 20 74 0 88 7 61
29 -10 8 -16 9 -21 1 -3 -5 -25 -10 -48 -10 -34 0 -44 4 -52 22 -15 33 -37 36
-29 4z"/>
<path d="M5460 7264 c0 -12 -6 -15 -26 -10 -25 7 -26 5 -22 -24 3 -16 1 -30
-4 -30 -4 0 -8 15 -8 33 0 34 0 34 -45 33 -42 -1 -45 -3 -45 -29 0 -15 -7 -41
-15 -57 -15 -28 -13 -35 9 -31 5 1 6 -33 3 -81 l-6 -83 19 37 c24 44 38 54 53
38 9 -9 8 -14 -5 -24 -31 -23 -4 -33 95 -35 105 -2 125 2 106 25 -9 11 -15 12
-26 3 -21 -18 -25 -6 -6 21 9 13 17 34 18 47 1 22 -3 23 -67 23 l-68 0 0 -29
c0 -16 7 -34 15 -41 22 -18 18 -30 -10 -30 -24 0 -25 3 -25 58 l0 57 90 -3
c62 -3 90 -1 90 7 0 7 -6 14 -12 16 -9 4 -12 22 -9 56 3 48 2 51 -18 44 -15
-5 -21 -2 -21 9 0 22 -27 20 -33 -1 -4 -17 -5 -17 -6 0 -1 21 -21 23 -21 1z
m-85 -24 c-4 -6 -10 -8 -15 -5 -5 3 -11 -7 -13 -22 -4 -26 -4 -26 -6 5 -1 26
3 32 20 32 11 0 17 -5 14 -10z m80 -10 c3 -5 1 -10 -4 -10 -6 0 -11 5 -11 10
0 6 2 10 4 10 3 0 8 -4 11 -10z m75 -6 c0 -8 -5 -12 -10 -9 -6 4 -8 11 -5 16
9 14 15 11 15 -7z m-70 -28 c0 -3 -4 -8 -10 -11 -5 -3 -10 -1 -10 4 0 6 5 11
10 11 6 0 10 -2 10 -4z m80 0 c0 -11 -19 -15 -25 -6 -3 5 1 10 9 10 9 0 16 -2
16 -4z m-150 -21 c0 -2 -9 -9 -20 -15 -23 -12 -64 -4 -55 11 6 9 75 13 75 4z
m128 -22 c-15 -2 -42 -2 -60 0 -18 2 -6 4 27 4 33 0 48 -2 33 -4z m-148 -23
c0 -5 -4 -10 -9 -10 -6 0 -13 5 -16 10 -3 6 1 10 9 10 9 0 16 -4 16 -10z m-6
-41 c-8 -14 -24 -10 -24 6 0 9 6 12 15 9 8 -4 12 -10 9 -15z m156 1 c0 -5 -16
-10 -35 -10 -19 0 -35 5 -35 10 0 6 16 10 35 10 19 0 35 -4 35 -10z m-10 -39
c0 -3 -5 -13 -10 -21 -8 -13 -11 -12 -24 5 -21 28 -20 33 9 27 14 -2 25 -7 25
-11z"/>
<path d="M6705 7213 c-7 -67 -8 -68 -37 -69 -21 -1 -28 3 -26 15 2 9 13 17 26
19 31 5 28 22 -4 22 -33 0 -30 33 4 38 23 4 29 16 12 27 -6 4 -17 1 -25 -5 -8
-6 -19 -9 -25 -5 -7 4 -10 -23 -10 -79 0 -70 -3 -86 -15 -86 -8 0 -15 -4 -15
-10 0 -6 55 -10 145 -10 90 0 145 4 145 10 0 6 -5 10 -11 10 -8 0 -10 26 -7
84 l4 85 -32 -2 c-40 -3 -58 -17 -21 -17 20 0 27 -5 27 -20 0 -15 -7 -20 -25
-20 -31 0 -33 -17 -3 -22 13 -2 24 -11 26 -22 3 -15 -1 -18 -22 -14 -14 3 -26
1 -26 -3 0 -5 9 -9 20 -9 13 0 20 -7 20 -20 0 -16 -7 -20 -34 -20 l-34 0 9 38
c14 61 12 72 -16 72 -16 0 -25 6 -25 15 0 11 7 14 25 9 19 -5 25 -2 25 10 0
13 -6 15 -27 10 -24 -6 -26 -5 -16 8 14 16 8 28 -13 28 -8 0 -15 -23 -19 -67z
m55 -54 c0 -18 -41 -69 -56 -69 -2 0 3 16 11 36 8 20 12 40 9 45 -3 5 4 9 15
9 15 0 21 -6 21 -21z m-70 -49 c0 -21 -33 -29 -45 -10 -9 15 4 30 26 30 12 0
19 -7 19 -20z"/>
<path d="M7709 7272 c-1 -4 -1 -11 0 -16 4 -21 -12 -46 -30 -46 -10 0 -19 -4
-19 -10 0 -5 7 -10 15 -10 8 0 15 -7 15 -15 0 -19 -21 -66 -38 -87 -13 -16
-13 -18 0 -18 9 0 21 14 28 30 21 50 25 42 22 -37 -3 -59 -1 -74 10 -71 15 5
15 8 17 93 1 52 3 58 15 43 17 -23 26 -23 26 0 0 9 -9 23 -20 30 -27 17 -25
32 5 32 l25 0 0 -100 c0 -60 4 -100 10 -100 6 0 10 5 10 10 0 15 87 12 93 -2
10 -30 15 5 19 130 l3 132 -67 0 c-64 0 -68 -1 -68 -22 0 -18 -6 -23 -26 -25
-23 -1 -26 2 -20 27 3 19 1 30 -9 34 -8 3 -16 2 -16 -2z m181 -63 c0 -29 -1
-30 -42 -27 -39 3 -43 6 -46 31 -3 26 -2 27 42 27 45 0 46 -1 46 -31z m0 -75
c0 -22 -4 -24 -45 -24 -41 0 -45 2 -45 24 0 27 17 34 63 28 21 -3 27 -10 27
-28z m0 -74 c0 -29 -2 -30 -45 -30 -43 0 -45 1 -45 30 0 29 2 30 45 30 43 0
45 -1 45 -30z"/>
<path d="M2295 7190 c-33 -46 -70 -94 -81 -106 -24 -26 -21 -34 12 -34 17 0
23 7 26 27 2 17 12 32 28 40 23 12 25 11 28 -14 2 -15 -1 -29 -7 -31 -24 -8
-9 -18 27 -16 54 2 58 3 45 12 -8 5 -13 43 -15 106 l-3 99 -60 -83z m28 -20
c-6 -22 -21 -35 -29 -27 -7 7 15 47 25 47 5 0 7 -9 4 -20z"/>
<path d="M2663 7255 c-41 -18 -73 -69 -73 -117 0 -77 88 -115 147 -63 15 13
22 25 15 25 -7 0 -20 -7 -28 -15 -16 -16 -51 -20 -71 -7 -35 22 -33 104 4 146
26 29 80 36 88 11 16 -50 17 -51 32 -16 8 18 11 36 8 39 -12 13 -92 11 -122
-3z"/>
<path d="M8107 7250 c5 -19 0 -20 -63 -20 -48 0 -64 -3 -54 -10 8 -5 72 -10
143 -10 106 0 127 2 127 15 0 12 -11 14 -59 9 -53 -6 -60 -5 -70 15 -15 27
-31 28 -24 1z"/>
<path d="M8360 7257 c0 -7 5 -18 12 -25 9 -9 5 -12 -20 -12 -18 0 -32 -4 -32
-10 0 -5 9 -10 20 -10 34 0 27 -84 -15 -182 -4 -10 -3 -18 2 -18 15 0 36 50
42 100 4 32 11 46 24 48 14 3 17 -4 17 -40 0 -62 -9 -88 -31 -88 -23 0 -25
-15 -4 -24 37 -14 55 15 55 92 0 27 4 42 13 42 6 0 26 21 43 46 l32 45 23 -40
c23 -41 43 -56 61 -45 5 4 -4 19 -22 35 -17 16 -38 45 -46 65 -12 29 -17 34
-29 24 -8 -7 -15 -20 -15 -29 0 -28 -39 -83 -53 -74 -6 4 -22 6 -34 5 -26 -4
-39 14 -23 33 7 9 23 12 46 8 20 -3 34 -1 34 5 0 13 -26 23 -43 16 -7 -2 -19
7 -27 21 -14 27 -30 33 -30 12z"/>
<path d="M2456 7246 c3 -7 -4 -41 -15 -74 -12 -34 -21 -68 -21 -77 0 -9 -7
-18 -17 -22 -31 -12 18 -21 76 -13 57 7 81 26 81 65 0 12 -5 26 -11 32 -8 8
-6 15 10 25 23 14 28 47 9 66 -18 18 -119 16 -112 -2z m82 -19 c5 -24 -15 -47
-40 -47 -15 0 -18 4 -13 18 4 9 10 25 12 35 7 22 37 18 41 -6z m-17 -83 c9
-11 10 -20 2 -32 -11 -18 -62 -47 -69 -39 -3 2 1 23 8 46 14 44 35 53 59 25z"/>
<path d="M2836 7252 c8 -5 8 -21 -2 -57 -8 -27 -17 -65 -21 -83 -3 -19 -12
-36 -19 -39 -31 -12 -10 -23 42 -23 102 0 159 48 159 132 0 63 -19 77 -105 78
-36 0 -60 -4 -54 -8z m91 -8 c57 -15 45 -122 -18 -156 -41 -22 -69 -23 -69 -3
0 8 9 43 21 77 11 35 22 69 24 76 5 13 10 14 42 6z"/>
<path d="M3056 7254 c9 -4 8 -20 -3 -62 -8 -31 -17 -70 -20 -85 -3 -16 -12
-31 -19 -34 -35 -13 -7 -23 64 -23 75 0 79 1 90 25 19 42 14 48 -19 21 -18
-16 -43 -26 -61 -26 -30 0 -30 1 -23 38 9 52 22 62 45 35 l18 -22 10 39 c10
39 9 39 -11 25 -37 -26 -46 -19 -32 23 16 45 44 53 74 21 l21 -23 0 27 c0 27
0 27 -72 26 -40 0 -68 -3 -62 -5z"/>
<path d="M3248 7235 c2 -14 -2 -45 -11 -68 -8 -23 -18 -54 -21 -69 -4 -16 -11
-28 -16 -28 -6 0 -10 -4 -10 -10 0 -5 18 -10 40 -10 42 0 49 6 26 24 -12 9
-12 16 0 44 17 39 54 45 55 10 1 -21 2 -20 14 7 8 17 14 38 15 48 0 17 -2 17
-22 3 -32 -23 -47 -20 -41 7 9 36 23 47 63 47 28 0 40 -5 43 -17 3 -11 5 -7 6
10 l1 27 -74 0 c-73 0 -73 0 -68 -25z"/>
<path d="M3425 7225 c-30 -31 -35 -42 -35 -84 0 -65 27 -91 97 -91 l51 0 18
50 c10 27 25 51 33 53 9 3 -9 5 -39 5 -30 0 -47 -2 -37 -5 40 -10 11 -83 -33
-83 -64 0 -78 94 -22 153 36 38 102 36 102 -3 0 -34 17 -30 28 5 l10 35 -69 0
c-65 0 -70 -2 -104 -35z"/>
<path d="M3648 7253 c6 -2 12 -13 12 -24 0 -34 -43 -153 -59 -166 -13 -10 -9
-12 27 -13 38 0 58 13 32 22 -7 2 -5 17 5 41 14 34 19 37 54 37 l39 0 -9 -37
c-4 -21 -13 -39 -18 -41 -24 -8 -9 -22 24 -22 33 0 48 14 24 22 -7 2 -8 11 -1
28 5 14 18 51 28 83 9 32 25 62 33 67 11 7 1 9 -34 10 -31 0 -45 -4 -37 -9 9
-6 11 -19 7 -45 -7 -35 -9 -36 -51 -36 l-44 0 15 36 c8 20 15 38 15 39 0 2 8
6 18 8 9 3 -8 5 -38 5 -30 0 -49 -2 -42 -5z"/>
<path d="M9934 7238 c5 -24 3 -28 -14 -28 -11 0 -20 -4 -20 -10 0 -5 16 -10
36 -10 32 0 35 -2 29 -22 -8 -28 -39 -92 -65 -135 -11 -18 -15 -33 -9 -33 5 0
22 20 37 45 l27 44 88 1 89 0 -7 -32 c-10 -43 -13 -48 -33 -48 -10 0 -22 13
-29 30 -13 34 -34 41 -25 8 8 -30 42 -68 63 -68 23 0 34 17 48 73 13 55 9 67
-20 60 -17 -5 -20 -2 -17 23 2 22 -1 29 -14 28 -12 -1 -16 6 -15 24 2 25 0 26
-40 23 -40 -2 -43 -1 -43 23 0 14 -4 26 -10 26 -5 0 -10 -9 -10 -19 0 -11 -4
-23 -10 -26 -5 -3 -10 0 -10 8 0 8 -7 21 -17 28 -15 13 -16 11 -9 -13z m130
-63 c-7 -16 -84 -22 -84 -7 0 16 14 22 51 22 30 0 37 -3 33 -15z m26 -50 c0
-12 -13 -15 -60 -15 -47 0 -60 3 -60 15 0 12 13 15 60 15 47 0 60 -3 60 -15z"/>
<path d="M12327 7226 c-3 -18 -15 -53 -26 -77 -20 -40 -20 -70 -1 -39 7 10 10
-13 10 -67 0 -79 1 -83 23 -83 12 0 42 11 65 25 24 14 49 22 55 18 20 -13 81
-33 100 -33 38 0 9 24 -41 36 -29 6 -56 14 -59 18 -10 10 11 61 25 62 6 1 24
2 40 3 25 1 27 4 27 41 0 40 0 40 -37 40 -21 0 -38 5 -38 10 0 6 23 10 50 10
36 0 50 4 50 14 0 18 -23 27 -41 15 -8 -5 -24 -9 -37 -9 -19 0 -22 4 -17 20 5
16 2 20 -14 20 -14 0 -21 -6 -21 -20 0 -17 -7 -20 -46 -20 -39 0 -45 2 -35 14
10 12 8 17 -7 25 -17 9 -20 6 -25 -23z m113 -42 c0 -9 -12 -14 -36 -14 l-35 0
3 -42 c3 -42 4 -43 36 -40 26 2 32 -2 32 -17 0 -26 -15 -34 -30 -16 -7 8 -17
15 -23 15 -5 0 -2 -9 8 -20 18 -20 18 -21 -5 -45 -39 -41 -47 -33 -52 55 -3
43 -3 92 0 107 3 26 7 28 53 29 35 1 49 -3 49 -12z m-16 -30 c9 -3 16 -17 16
-30 0 -19 -5 -24 -25 -24 -20 0 -25 5 -25 23 0 34 8 41 34 31z m96 -24 c0 -25
-4 -30 -25 -30 -14 0 -25 4 -25 9 0 5 -3 16 -6 24 -3 10 2 17 13 20 38 10 43
7 43 -23z"/>
<path d="M12740 7198 l0 -65 49 5 c32 3 51 0 56 -8 6 -10 1 -11 -18 -6 -33 8
-137 -4 -137 -15 0 -5 29 -9 65 -9 36 0 65 -3 65 -7 0 -5 -32 -8 -70 -9 -65
-1 -70 0 -70 20 0 12 9 35 19 53 16 25 17 32 6 37 -8 3 -16 -3 -20 -13 -3 -10
-21 -35 -40 -56 -19 -22 -32 -41 -29 -44 2 -3 10 1 16 7 23 23 28 12 28 -58 0
-40 4 -70 10 -70 6 0 10 25 10 55 0 52 1 55 25 55 15 0 25 -6 25 -14 0 -18 43
-66 58 -66 6 0 15 -7 19 -15 15 -25 44 4 46 47 2 31 6 37 29 42 21 4 26 10 24
29 -3 33 -16 49 -33 42 -14 -5 -15 3 -10 55 5 60 -4 83 -26 61 -15 -15 -70
-14 -85 1 -9 9 -12 -3 -12 -54z m97 16 c-10 -11 -67 -13 -73 -3 -3 5 14 9 37
9 23 0 39 -3 36 -6z m-1 -43 c-7 -11 -76 -10 -76 1 0 4 18 8 41 8 22 0 38 -4
35 -9z m41 -77 c-3 -3 -12 -4 -19 -1 -8 3 -5 6 6 6 11 1 17 -2 13 -5z m-57
-59 c0 -42 -25 -49 -40 -11 -5 13 -17 29 -27 35 -15 8 -10 10 25 11 41 0 42 0
42 -35z"/>
<path d="M6183 7233 c-3 -10 -14 -26 -24 -35 -9 -9 -36 -44 -59 -77 -24 -34
-47 -61 -51 -61 -5 0 -9 -4 -9 -10 0 -5 11 -10 24 -10 18 0 25 7 30 30 5 25
10 30 36 30 23 0 30 -4 30 -20 0 -10 -8 -24 -17 -29 -15 -8 -10 -10 22 -11
l40 0 0 105 c0 99 -7 128 -22 88z m-17 -99 c-3 -8 -13 -14 -21 -14 -14 0 -14
4 2 31 13 22 19 26 21 14 2 -9 1 -23 -2 -31z"/>
<path d="M6320 7237 c-33 -16 -56 -44 -71 -89 -10 -32 -9 -41 7 -69 26 -44 70
-56 120 -32 21 10 40 25 42 33 4 11 -1 10 -17 -4 -29 -26 -89 -27 -107 -1 -22
30 -17 69 15 113 45 61 89 65 106 11 10 -31 25 -22 25 14 0 33 -1 34 -47 35
-27 0 -59 -5 -73 -11z"/>
<path d="M7134 7209 c0 -66 -20 -141 -41 -157 -16 -12 -8 -13 60 -10 55 2 81
8 87 18 13 20 12 64 0 76 -7 7 -4 16 10 29 44 40 18 74 -62 82 l-54 5 0 -43z
m96 -14 c0 -13 -9 -26 -25 -33 -27 -13 -38 -3 -29 25 3 10 7 23 9 30 6 21 45
2 45 -22z m-29 -65 c23 -13 24 -28 2 -52 -19 -22 -63 -24 -63 -3 0 21 22 65
32 65 5 0 18 -5 29 -10z"/>
<path d="M7329 7236 c13 -16 -32 -166 -56 -183 -14 -11 -5 -13 56 -13 85 0
123 17 146 66 22 46 19 75 -10 107 -20 21 -35 27 -68 28 -23 0 -50 2 -60 4
-13 2 -15 0 -8 -9z m119 -60 c8 -66 -28 -116 -83 -116 -40 0 -40 1 -19 84 21
82 28 89 67 72 24 -9 33 -20 35 -40z"/>
<path d="M11070 7131 l0 -121 -60 0 c-33 0 -60 -4 -60 -10 0 -6 55 -10 145
-10 90 0 145 4 145 10 0 12 -7 13 -87 10 l-63 -2 0 61 0 61 60 0 c60 0 72 8
47 29 -9 7 -17 7 -24 0 -6 -6 -26 -9 -44 -7 -35 3 -40 16 -28 73 3 12 -2 21
-13 23 -16 3 -18 -8 -18 -117z"/>
<path d="M11334 7225 c-3 -14 -12 -25 -20 -25 -11 0 -14 -22 -14 -105 0 -63 4
-105 10 -105 6 0 10 7 10 15 0 21 50 19 66 -2 16 -21 17 -16 15 65 -1 28 3 52
8 52 4 0 14 14 21 30 11 27 17 30 56 30 l44 0 0 -79 c0 -85 -12 -108 -50 -96
-28 9 -25 -9 5 -25 45 -24 56 5 78 205 2 18 -3 20 -51 17 -51 -4 -53 -3 -50
19 6 46 -19 28 -36 -26 -18 -59 -32 -75 -21 -24 7 31 7 32 -24 26 -23 -5 -31
-3 -31 7 0 8 7 17 16 20 18 7 10 26 -11 26 -8 0 -17 -11 -21 -25z m46 -75 c0
-27 -3 -30 -30 -30 -27 0 -30 3 -30 30 0 27 3 30 30 30 27 0 30 -3 30 -30z
m-2 -82 c-2 -28 -8 -34 -30 -36 -26 -3 -28 -1 -28 32 0 33 2 36 31 36 28 0 30
-2 27 -32z"/>
<path d="M12150 7176 c0 -70 -10 -100 -25 -76 -4 6 -11 8 -16 5 -5 -4 -9 -1
-9 5 0 8 -10 9 -30 5 -19 -4 -30 -3 -30 4 0 6 14 11 30 11 30 0 30 1 30 53 l0
53 -65 0 -65 0 0 -53 c0 -50 1 -53 25 -53 14 0 25 -4 25 -10 0 -5 -13 -10 -30
-10 -16 0 -30 -4 -30 -10 0 -5 14 -10 31 -10 42 0 33 -23 -12 -31 -19 -4 -28
-7 -21 -8 10 -1 12 -11 7 -43 -7 -39 -6 -41 9 -29 9 7 16 28 17 45 0 29 1 30
10 8 5 -13 7 -28 4 -32 -3 -5 -1 -11 5 -15 6 -4 10 9 10 32 l0 38 16 -30 c22
-43 27 -44 20 -5 l-6 35 17 -32 c9 -18 20 -33 25 -33 11 0 10 28 -2 35 -15 9
-12 25 5 25 11 0 15 -12 15 -47 1 -38 3 -44 11 -30 7 12 23 17 59 17 l50 0 0
55 c0 55 0 56 -27 53 -25 -3 -28 1 -31 30 -3 30 -1 32 27 32 21 0 31 5 31 15
0 17 -25 20 -35 5 -13 -21 -27 3 -20 36 5 27 3 34 -10 34 -12 0 -15 -14 -15
-74z m-130 19 c0 -8 -2 -15 -4 -15 -2 0 -6 7 -10 15 -3 8 -1 15 4 15 6 0 10
-7 10 -15z m-23 -37 c-3 -7 -5 -2 -5 12 0 14 2 19 5 13 2 -7 2 -19 0 -25z m83
12 c0 -11 -7 -20 -15 -20 -18 0 -19 12 -3 28 16 16 18 15 18 -8z m30 -90 c0
-5 -9 -11 -20 -11 -11 -1 -25 -2 -32 -3 -6 -1 -13 5 -15 12 -3 8 7 12 31 12
20 0 36 -4 36 -10z m88 -37 c3 -28 -1 -33 -22 -39 -38 -9 -56 2 -56 34 0 36 2
38 42 37 30 0 33 -3 36 -32z"/>
<path d="M12670 7240 c0 -5 -14 -25 -31 -45 -40 -45 -14 -49 30 -4 33 33 40
59 16 59 -8 0 -15 -4 -15 -10z"/>
<path d="M8856 7231 c8 -9 7 -25 -2 -59 -24 -87 -33 -114 -45 -128 -9 -12 -6
-14 22 -14 32 0 34 2 35 33 1 54 10 67 47 67 42 0 67 26 67 68 0 31 -1 32 -42
32 -24 0 -54 3 -68 6 -19 5 -22 4 -14 -5z m92 -38 c2 -14 -5 -27 -22 -38 -35
-23 -45 -13 -32 30 8 27 16 35 31 33 12 -2 21 -12 23 -25z"/>
<path d="M9603 7232 c-83 -25 -126 -138 -75 -195 15 -17 15 -20 -8 -37 -14
-10 -22 -21 -19 -25 4 -3 38 -9 76 -12 64 -5 71 -4 98 20 22 20 26 26 13 27
-9 0 -18 -5 -20 -12 -5 -14 -69 -14 -95 0 -17 10 -17 11 2 17 98 32 129 66
130 142 0 28 -4 56 -10 61 -14 14 -66 21 -92 14z m58 -22 c24 -14 24 -36 -1
-93 -33 -75 -85 -99 -116 -53 -14 23 -14 28 5 72 33 73 68 97 112 74z"/>
<path d="M10437 7209 c-59 -44 -76 -128 -34 -167 31 -30 106 -31 132 -2 10 11
13 20 7 20 -6 0 -14 -4 -17 -10 -3 -5 -24 -10 -45 -10 -31 0 -43 5 -56 25 -19
29 -14 57 19 106 18 27 30 35 59 37 31 3 36 0 42 -24 8 -30 20 -23 30 19 l6
27 -57 0 c-43 -1 -65 -6 -86 -21z"/>
<path d="M10620 7220 c0 -5 4 -10 9 -10 5 0 0 -30 -10 -67 -10 -38 -19 -71
-19 -75 0 -5 -9 -17 -20 -28 l-20 -20 38 0 c37 0 38 1 34 29 -7 48 13 71 59
71 33 0 40 -3 35 -16 -3 -9 -6 -22 -6 -30 0 -8 -9 -23 -20 -34 l-20 -20 39 0
c34 0 38 3 34 20 -7 28 27 161 43 167 28 10 13 23 -26 23 -22 0 -40 -4 -40
-10 0 -5 5 -10 10 -10 13 0 13 -23 -1 -53 -10 -21 -16 -24 -48 -20 -20 3 -36
6 -37 7 -6 9 20 66 31 66 8 0 15 5 15 10 0 6 -18 10 -40 10 -22 0 -40 -4 -40
-10z"/>
<path d="M13881 7204 c-38 -48 -17 -114 36 -114 11 0 23 -3 26 -7 9 -9 -43
-63 -60 -63 -7 0 -13 -4 -13 -10 0 -13 4 -13 45 4 46 19 75 69 75 127 0 81
-65 118 -109 63z m73 -32 c10 -37 3 -62 -19 -62 -23 0 -39 49 -25 78 13 30 32
24 44 -16z"/>
<path d="M13179 7197 c-78 -53 -80 -162 -2 -188 27 -9 39 -7 70 8 20 10 39 24
41 31 2 7 -10 4 -32 -9 -39 -23 -63 -20 -91 11 -18 19 -18 23 -2 74 14 44 24
57 51 70 41 19 64 13 72 -21 7 -28 19 -20 28 18 6 26 5 26 -48 28 -40 1 -61
-5 -87 -22z"/>
<path d="M13415 7213 c-30 -8 -56 -34 -76 -78 -25 -54 -24 -82 6 -109 l25 -24
-25 -16 c-14 -9 -25 -20 -25 -25 0 -15 120 -22 148 -8 35 16 44 42 9 26 -15
-7 -39 -8 -67 -2 -41 8 -42 9 -19 20 13 6 38 16 55 23 21 8 38 25 52 53 32 66
34 91 11 121 -20 26 -45 31 -94 19z m63 -15 c20 -20 14 -82 -11 -119 -46 -69
-107 -71 -107 -3 0 41 12 68 48 107 28 29 51 34 70 15z"/>
<path d="M1905 7190 c-4 -6 1 -20 10 -30 13 -14 13 -19 3 -23 -7 -2 -10 -8 -6
-12 13 -14 39 18 36 44 -3 27 -31 40 -43 21z"/>
<path d="M8022 7164 c-34 -34 -25 -47 15 -19 19 14 22 13 33 -15 7 -17 16 -30
20 -30 4 0 10 -7 13 -15 8 -18 -68 -75 -100 -75 -13 0 -23 -4 -23 -10 0 -5 9
-10 20 -10 21 0 97 36 106 51 8 13 30 11 46 -3 24 -23 86 -50 97 -44 20 13 11
22 -44 45 -30 13 -57 26 -60 31 -3 4 7 25 21 45 19 29 22 40 13 46 -9 5 -18
-5 -30 -32 -10 -21 -20 -39 -23 -39 -13 0 -58 84 -47 88 18 6 13 22 -6 21 -10
-1 -33 -17 -51 -35z"/>
<path d="M8160 7192 c0 -4 14 -16 30 -25 17 -10 30 -22 30 -28 0 -5 5 -9 10
-9 20 0 9 29 -19 49 -30 22 -51 27 -51 13z"/>
<path d="M4408 7163 c-180 -5 -165 -23 18 -23 112 0 145 3 142 13 -5 14 2 14
-160 10z"/>
<path d="M5735 7159 c-12 -19 4 -59 25 -59 23 0 43 32 34 54 -7 18 -49 22 -59
5z m45 -19 c0 -11 -7 -20 -15 -20 -15 0 -21 21 -8 33 12 13 23 7 23 -13z"/>
<path d="M9184 7148 c-9 -30 5 -58 31 -58 26 0 40 33 24 61 -12 22 -47 20 -55
-3z m43 -15 c2 -6 -3 -13 -12 -16 -10 -5 -15 0 -15 14 0 21 21 22 27 2z"/>
<path d="M14083 7153 c-19 -13 -23 -25 -23 -67 0 -47 3 -53 30 -69 29 -18 30
-18 55 7 14 14 25 32 25 41 0 12 -4 11 -21 -6 -25 -25 -40 -21 -57 15 -12 23
-11 31 4 54 l17 26 15 -22 c18 -27 32 -28 32 -4 0 40 -38 53 -77 25z"/>
<path d="M14200 7158 c-15 -6 -20 -12 -12 -15 16 -6 16 -105 0 -121 -9 -9 -3
-12 27 -12 30 0 36 3 27 12 -30 30 -4 133 28 113 15 -9 13 -112 -2 -118 -7 -3
4 -6 25 -6 34 -1 37 1 27 18 -23 44 0 125 30 106 14 -9 13 -98 -2 -113 -9 -9
-2 -12 33 -12 35 1 40 3 27 11 -14 8 -18 23 -18 69 0 50 -3 61 -21 70 -15 9
-24 8 -35 -1 -11 -9 -21 -9 -37 -2 -16 8 -29 8 -41 1 -12 -7 -21 -7 -25 0 -4
6 -15 6 -31 0z"/>
<path d="M8490 7145 c0 -3 12 -17 27 -31 19 -17 29 -21 32 -13 2 7 -6 21 -19
31 -22 18 -40 23 -40 13z"/>
<path d="M11870 7140 c0 -6 -51 -10 -126 -10 -83 0 -124 -4 -122 -11 2 -6 54
-10 138 -11 113 0 135 2 138 14 2 9 -4 18 -13 21 -8 4 -15 2 -15 -3z"/>
<path d="M11440 7131 c0 -5 7 -14 15 -21 8 -7 15 -18 15 -25 0 -7 7 -15 15
-19 22 -8 19 17 -6 48 -20 26 -39 34 -39 17z"/>
<path d="M13612 7128 c3 -9 32 -14 86 -16 68 -2 82 0 82 13 0 12 -15 15 -86
15 -64 0 -85 -3 -82 -12z"/>
<path d="M580 7079 c0 -14 5 -19 17 -17 26 5 29 38 4 38 -15 0 -21 -6 -21 -21z"/>
<path d="M4016 7059 c-20 -34 -12 -55 10 -25 12 17 20 56 11 56 -1 0 -11 -14
-21 -31z"/>
<path d="M4062 7060 c2 -30 12 -38 23 -20 8 13 -4 50 -16 50 -5 0 -8 -13 -7
-30z"/>
<path d="M13616 7075 c-7 -20 0 -22 87 -23 59 0 77 3 77 14 0 10 -15 14 -57
15 -32 0 -68 2 -80 5 -12 2 -23 -2 -27 -11z"/>
<path d="M10083 7055 c13 -27 27 -33 27 -12 0 14 -19 37 -31 37 -4 0 -2 -11 4
-25z"/>
<path d="M9986 7043 c9 -37 24 -53 24 -26 0 28 -10 53 -21 53 -5 0 -6 -12 -3
-27z"/>
<path d="M6656 7035 c-16 -14 -35 -25 -43 -25 -7 0 -13 -4 -13 -10 0 -5 4 -10
10 -10 16 0 80 33 80 42 0 4 7 8 15 8 8 0 15 5 15 10 0 18 -35 10 -64 -15z"/>
<path d="M6815 7025 c27 -19 51 -33 53 -30 12 11 -12 43 -41 53 -58 21 -62 13
-12 -23z"/>
<path d="M8514 7025 c39 -39 46 -42 46 -21 0 16 -50 56 -69 56 -7 0 4 -16 23
-35z"/>
<path d="M9947 7042 c-18 -20 -23 -52 -8 -52 10 0 36 58 29 65 -3 3 -12 -3
-21 -13z"/>
<path d="M1238 6833 c-73 -4 -105 -18 -55 -25 17 -2 23 -10 25 -39 4 -50 -30
-144 -64 -172 -15 -13 -25 -30 -22 -38 7 -19 73 50 82 85 3 14 11 38 17 53
l11 28 17 -50 c21 -57 14 -72 -39 -90 -32 -11 -37 -32 -6 -26 20 3 67 30 77
44 3 4 23 -4 43 -18 39 -26 76 -30 83 -9 2 7 -11 14 -30 18 -18 3 -41 12 -51
19 -16 12 -15 17 18 67 19 29 33 57 30 61 -3 5 -18 6 -35 2 -29 -5 -30 -5 -23
23 4 16 10 33 15 38 8 9 1 37 -10 34 -3 -1 -41 -4 -83 -5z m56 -32 c-1 -6 -2
-22 -2 -36 -2 -21 -7 -25 -32 -25 -28 0 -30 2 -30 40 0 39 1 40 33 36 17 -2
32 -8 31 -15z m25 -116 c-12 -19 -24 -35 -29 -35 -11 0 -26 22 -33 48 -5 20
-2 22 39 22 l43 0 -20 -35z"/>
<path d="M3870 6805 c0 -24 -2 -25 -65 -25 -83 0 -85 -18 -2 -22 l62 -3 1 -80
c0 -96 -3 -108 -27 -102 -28 7 -23 -8 7 -22 37 -16 44 -7 44 56 l0 55 41 -41
c31 -31 49 -41 73 -41 30 0 30 1 -19 29 -82 47 -85 56 -31 83 49 24 55 32 30
42 -10 4 -27 -5 -47 -24 -34 -33 -47 -27 -47 23 0 27 1 27 65 27 36 0 65 4 65
9 0 17 -19 22 -40 11 -18 -9 -20 -8 -20 15 0 19 -5 25 -22 25 -20 0 -20 -1 -4
-19 16 -18 16 -19 -14 -23 -30 -5 -44 15 -17 25 9 4 8 8 -3 16 -23 16 -30 13
-30 -14z"/>
<path d="M1739 6792 c-35 -21 -66 -69 -74 -114 -6 -31 -3 -41 19 -63 l27 -27
-28 -21 -27 -21 25 -7 c51 -15 125 -10 142 9 25 27 21 32 -12 16 -26 -13 -34
-13 -63 -1 -30 13 -31 15 -13 22 72 28 86 37 97 59 6 15 15 26 20 26 4 0 8 24
8 53 0 40 -5 58 -18 70 -23 21 -68 20 -103 -1z m81 -23 c18 -32 3 -93 -32
-128 -65 -67 -113 -13 -73 82 26 62 84 87 105 46z"/>
<path d="M1910 6800 c0 -5 5 -10 10 -10 15 0 12 -24 -11 -102 -12 -38 -28 -72
-35 -75 -24 -9 -4 -23 32 -23 31 0 47 14 24 22 -6 2 -6 17 2 41 11 34 14 37
49 37 38 0 38 0 33 -32 -4 -18 -13 -38 -20 -44 -22 -18 -17 -24 20 -24 33 0
57 14 37 22 -19 6 31 178 51 178 5 0 6 5 3 10 -8 13 -75 13 -75 1 0 -5 5 -11
11 -13 7 -2 8 -15 2 -38 -9 -32 -12 -35 -52 -38 -39 -3 -43 -1 -36 15 4 10 10
27 13 38 3 11 13 25 21 32 13 10 8 12 -31 13 -27 0 -48 -4 -48 -10z"/>
<path d="M2471 6796 c-19 -11 -21 -14 -7 -19 25 -10 23 -162 -1 -176 -14 -8
-9 -10 27 -11 34 0 41 3 32 12 -8 8 -12 47 -12 110 0 54 -3 98 -7 98 -5 -1
-19 -7 -32 -14z"/>
<path d="M4421 6801 c-14 -9 -9 -41 6 -41 19 1 33 18 27 33 -7 19 -13 21 -33
8z"/>
<path d="M2605 6764 c-14 -30 -15 -38 -4 -45 8 -5 18 -9 23 -9 12 0 46 -41 46
-56 0 -12 -26 -44 -36 -44 -2 0 -13 5 -24 12 -24 15 -38 3 -24 -20 16 -24 34
-25 72 -2 28 17 32 25 32 63 0 43 -21 77 -48 77 -7 0 -12 7 -12 15 0 10 10 15
29 15 16 0 31 6 35 15 4 12 -3 15 -33 15 -35 0 -41 -4 -56 -36z"/>
<path d="M4800 6698 c-52 -54 -99 -103 -104 -108 -7 -7 28 -10 97 -10 65 0
107 4 107 10 0 6 -32 10 -75 10 -41 0 -75 3 -75 8 0 4 32 39 71 77 73 72 95
101 82 108 -5 2 -51 -41 -103 -95z"/>
<path d="M4970 6780 c0 -5 5 -10 10 -10 12 0 3 -49 -11 -64 -5 -6 -9 -20 -9
-33 0 -26 -20 -75 -35 -85 -5 -4 9 -8 33 -8 39 0 41 1 30 20 -9 13 -9 27 -2
47 8 23 17 29 51 34 49 6 73 24 73 53 -1 41 -23 56 -84 56 -31 0 -56 -4 -56
-10z m106 -25 c9 -21 -23 -65 -46 -65 -21 0 -25 16 -14 58 7 26 51 31 60 7z"/>
<path d="M5160 6781 c0 -5 4 -11 10 -13 15 -5 -37 -165 -58 -177 -13 -8 -5
-10 33 -11 32 0 45 3 36 9 -10 7 -11 18 -4 47 7 32 13 40 36 42 20 2 27 -1 27
-13 0 -9 5 -13 10 -10 6 3 10 23 10 43 -1 33 -2 35 -14 20 -15 -21 -46 -24
-46 -5 1 43 13 57 51 57 26 0 41 -6 48 -17 9 -15 10 -14 11 10 l0 27 -75 0
c-41 0 -75 -4 -75 -9z"/>
<path d="M5363 6758 c-57 -61 -69 -116 -34 -159 19 -24 19 -24 -1 -46 -12 -13
-19 -25 -16 -28 3 -3 40 -6 82 -7 65 -1 78 1 91 18 20 27 18 40 -3 21 -31 -28
-126 -17 -108 12 4 6 17 11 29 11 80 0 147 123 101 188 -12 17 -25 22 -63 22
-40 0 -52 -5 -78 -32z m118 -9 c21 -41 -45 -159 -90 -159 -20 0 -40 31 -41 63
-1 83 99 156 131 96z"/>
<path d="M2787 6729 c-30 -17 -39 -55 -23 -94 21 -49 51 -62 85 -38 14 11 28
31 29 44 l4 24 -24 -22 c-20 -19 -27 -21 -40 -10 -24 19 -30 51 -13 73 14 18
16 18 29 2 16 -22 46 -24 46 -3 0 29 -58 44 -93 24z"/>
<path d="M2900 6738 c-1 -2 -2 -36 -3 -76 l-2 -72 35 0 c26 0 31 3 22 12 -7 7
-12 34 -12 60 0 42 3 48 21 48 20 0 21 -4 17 -65 -4 -60 -2 -65 17 -65 28 0
50 15 36 24 -6 4 -11 29 -11 57 0 43 3 49 21 49 19 0 20 -5 18 -62 -3 -59 -1
-63 20 -66 13 -2 28 1 34 7 8 8 8 11 -1 11 -8 0 -12 18 -12 51 0 28 -5 59 -10
70 -12 21 -56 26 -63 7 -4 -10 -7 -10 -18 0 -7 6 -23 12 -35 12 -12 0 -25 -6
-27 -12 -4 -10 -6 -10 -6 0 -1 9 -40 19 -41 10z"/>
<path d="M3780 6733 c1 -17 40 -54 50 -48 8 5 4 15 -11 31 -22 24 -39 31 -39
17z"/>
<path d="M4292 6718 c-21 -21 -13 -47 23 -70 36 -24 46 -48 21 -48 -8 0 -21 7
-30 15 -20 21 -26 19 -26 -10 0 -21 5 -25 31 -25 83 0 95 73 16 103 -9 3 -17
11 -17 17 0 14 33 13 48 -2 9 -9 12 -7 12 10 0 18 -6 22 -33 22 -18 0 -38 -5
-45 -12z"/>
<path d="M4405 6721 c-3 -5 0 -13 6 -16 12 -8 10 -81 -3 -107 -8 -16 -2 -18
64 -18 56 0 69 3 60 12 -20 20 -15 96 7 107 15 8 20 7 25 -5 11 -28 6 -102 -6
-107 -7 -3 4 -6 26 -6 30 -1 36 2 28 12 -6 7 -12 40 -14 72 -3 54 -5 60 -26
63 -13 2 -29 -1 -37 -8 -10 -8 -14 -8 -17 2 -4 10 -10 10 -29 1 -13 -6 -18
-12 -11 -12 8 -1 12 -20 12 -62 0 -52 -2 -60 -17 -57 -15 3 -19 16 -21 71 -3
58 -5 67 -22 67 -10 0 -21 -4 -25 -9z"/>
<path d="M2190 6710 c0 -6 35 -10 85 -10 50 0 85 4 85 10 0 6 -35 10 -85 10
-50 0 -85 -4 -85 -10z"/>
<path d="M3387 6714 c-25 -25 8 -70 43 -59 32 10 24 59 -10 63 -14 2 -29 0
-33 -4z m43 -30 c0 -16 -16 -19 -25 -4 -8 13 4 32 16 25 5 -4 9 -13 9 -21z"/>
<path d="M5792 6708 c-24 -24 -8 -65 26 -64 12 1 32 24 32 38 0 9 -29 38 -39
38 -4 0 -12 -5 -19 -12z m28 -23 c0 -8 -4 -15 -10 -15 -5 0 -10 7 -10 15 0 8
5 15 10 15 6 0 10 -7 10 -15z"/>
<path d="M2192 6658 c3 -9 32 -14 86 -16 68 -2 82 0 82 13 0 12 -15 15 -86 15
-64 0 -85 -3 -82 -12z"/>
<path d="M3822 6650 c-12 -11 -33 -25 -47 -30 -21 -8 -37 -40 -19 -40 12 0
104 72 104 81 0 15 -15 10 -38 -11z"/>
<path d="M2978 5989 c-10 -5 -18 -19 -18 -30 0 -16 3 -17 19 -8 43 28 69 -18
29 -51 l-22 -17 21 -7 c27 -9 36 -32 22 -58 -9 -16 -17 -19 -46 -13 -27 5 -34
3 -31 -7 6 -18 44 -22 78 -8 34 14 48 57 30 91 -7 12 -9 35 -6 51 11 56 -28
85 -76 57z"/>
<path d="M3128 5989 c-31 -17 -22 -39 12 -32 28 5 30 4 30 -25 0 -19 -6 -32
-17 -37 -16 -6 -15 -8 5 -24 16 -12 23 -25 20 -42 -3 -21 -8 -24 -41 -22 -27
2 -37 -2 -37 -12 0 -23 62 -19 94 6 30 24 34 63 9 91 -13 14 -14 21 -5 30 17
17 15 42 -6 61 -21 19 -39 21 -64 6z"/>
<path d="M9622 5905 c-1 -25 -6 -54 -12 -65 -5 -10 -10 -28 -10 -39 0 -12 -9
-30 -19 -40 -19 -19 -18 -20 61 -23 79 -3 80 -3 95 25 19 37 9 47 -17 19 -28
-29 -90 -31 -90 -3 0 33 11 51 31 51 10 0 19 -4 19 -10 0 -23 20 -7 28 23 11
41 9 42 -22 21 -31 -20 -45 -11 -28 16 7 11 12 27 12 35 0 15 26 20 54 9 9 -3
16 -14 16 -23 0 -14 2 -14 10 -1 24 38 13 47 -58 49 l-68 1 -2 -45z"/>
<path d="M12854 5909 c-3 -6 -1 -15 5 -19 16 -9 -26 -159 -46 -167 -29 -11
-13 -33 25 -33 l39 0 0 46 c0 51 11 64 57 64 27 0 28 -2 22 -32 -3 -18 -13
-38 -21 -44 -23 -17 -18 -34 11 -34 35 0 49 18 51 65 4 50 34 136 50 142 7 3
13 9 13 15 0 15 -83 5 -88 -11 -3 -9 0 -11 8 -6 10 6 12 1 7 -25 -4 -18 -7
-35 -7 -39 0 -4 -18 -5 -40 -3 -45 5 -50 17 -20 55 11 14 20 28 20 31 0 11
-79 6 -86 -5z"/>
<path d="M2060 5756 c-17 -35 -30 -68 -30 -73 0 -5 -11 -25 -25 -46 l-26 -37
38 0 c28 0 34 3 23 10 -22 14 -1 43 39 54 39 11 54 -4 47 -46 -5 -26 -3 -28
29 -28 31 0 47 13 27 22 -7 3 -60 144 -69 186 -8 36 -22 26 -53 -42z m50 -58
c0 -5 -11 -8 -25 -8 -28 0 -30 3 -13 29 11 18 13 18 25 3 7 -9 13 -20 13 -24z"/>
<path d="M9273 5232 l-501 -498 -4 -1977 c-3 -1750 -1 -1977 12 -1983 8 -3
683 -8 1500 -11 l1485 -6 120 120 c66 65 292 293 503 506 l382 386 0 913 c0
1038 8 2519 15 2836 l5 212 -25 0 c-14 0 -25 -5 -25 -11 0 -11 -280 -10 -2295
7 l-670 5 -502 -499z m3437 450 c0 -6 -407 -419 -460 -467 -6 -5 -118 -118
-249 -251 l-238 -241 -624 3 c-343 2 -786 6 -984 9 -198 3 -547 6 -777 5 -229
0 -445 2 -481 6 l-65 7 461 458 462 458 5 -76 c3 -49 10 -78 18 -81 9 -3 12
19 12 87 l0 91 1460 0 c803 0 1460 -3 1460 -8z m36 -476 c-3 -232 -6 -1093 -6
-1913 l0 -1493 -40 0 c-29 0 -40 -4 -40 -15 0 -9 -9 -15 -25 -15 -18 0 -23 4
-19 15 5 13 -9 15 -96 15 -77 0 -101 -3 -97 -12 3 -9 30 -13 90 -13 48 0 87
-3 87 -7 0 -4 -18 -13 -40 -19 -22 -7 -40 -16 -40 -21 0 -13 46 -9 121 12 65
17 70 18 57 2 -7 -9 -130 -134 -273 -277 -143 -144 -324 -326 -402 -405 -78
-80 -167 -170 -198 -200 l-56 -55 2 357 c0 239 4 358 11 360 7 3 7 11 -1 26
-11 22 -14 173 -4 213 4 12 15 16 45 14 48 -3 78 4 78 16 0 5 -27 9 -60 9
l-60 0 0 223 c0 165 3 226 13 236 10 11 10 14 0 18 -18 6 -19 1284 -2 1281 6
-2 14 3 16 10 3 6 -2 12 -10 12 -12 0 -13 82 -9 567 l5 567 471 471 c367 367
473 468 480 456 5 -9 6 -188 2 -435z m-3103 -506 l117 0 0 -81 c0 -60 3 -80
13 -77 8 3 13 32 15 87 2 70 5 82 18 77 9 -3 450 -6 980 -6 l964 0 -2 -1447
-3 -1448 -27 -3 c-16 -2 -28 -7 -28 -12 0 -5 12 -10 28 -12 l27 -3 3 -116 3
-116 -48 -13 c-87 -22 -113 -31 -119 -42 -7 -11 50 -7 124 10 l42 9 0 -348 c0
-292 -2 -349 -14 -349 -8 0 -16 -7 -20 -15 -5 -13 -82 -14 -623 -10 -340 3
-755 7 -923 10 -168 3 -519 5 -780 6 -261 1 -465 4 -452 6 22 4 40 28 29 39
-3 3 -22 1 -43 -4 -106 -27 -104 -28 -46 27 28 28 52 55 52 61 0 23 -29 7 -78
-46 -39 -41 -54 -51 -58 -40 -3 9 -3 703 0 1543 3 840 5 1705 6 1921 0 221 4
392 9 392 5 0 8 -6 7 -12 -2 -24 19 -23 22 1 l4 24 341 -6 c188 -4 395 -7 460
-7z"/>
<path d="M9772 5472 c-18 -12 -13 -194 6 -200 9 -3 12 22 12 102 0 58 -1 106
-2 106 -2 0 -9 -4 -16 -8z"/>
<path d="M9760 5130 c0 -82 3 -100 15 -100 12 0 15 18 15 100 0 82 -3 100 -15
100 -12 0 -15 -18 -15 -100z"/>
<path d="M9773 4993 c-16 -6 -18 -199 -3 -208 17 -10 21 17 18 117 -2 70 -6
94 -15 91z"/>
<path d="M11935 4738 c-11 -6 -32 -22 -47 -36 -24 -22 -28 -34 -28 -77 0 -60
16 -80 70 -90 50 -9 86 7 93 43 3 16 13 37 22 46 15 15 13 16 -27 15 -24 0
-37 -3 -30 -6 15 -6 16 -37 2 -64 -7 -12 -21 -19 -38 -19 -45 0 -57 14 -57 69
0 42 5 55 30 81 34 36 81 38 99 5 6 -11 12 -22 14 -25 6 -8 22 25 22 45 0 18
-7 21 -52 23 -29 1 -62 -4 -73 -10z"/>
<path d="M11825 3550 c3 -5 10 -10 16 -10 5 0 9 5 9 10 0 6 -7 10 -16 10 -8 0
-12 -4 -9 -10z"/>
<path d="M11867 3544 c-8 -8 1 -24 14 -24 5 0 9 7 9 15 0 15 -12 20 -23 9z"/>
<path d="M11907 3533 c-12 -11 -8 -23 8 -23 8 0 15 7 15 15 0 16 -12 20 -23 8z"/>
<path d="M11950 3505 c0 -9 5 -15 10 -13 12 4 11 16 -1 24 -5 3 -9 -2 -9 -11z"/>
<path d="M11990 3495 c0 -8 5 -15 10 -15 6 0 10 7 10 15 0 8 -4 15 -10 15 -5
0 -10 -7 -10 -15z"/>
<path d="M12027 3483 c-12 -11 -8 -23 8 -23 8 0 15 7 15 15 0 16 -12 20 -23 8z"/>
<path d="M12076 3473 c-11 -11 -6 -23 9 -23 8 0 15 4 15 9 0 13 -16 22 -24 14z"/>
<path d="M12110 3440 c0 -5 5 -10 10 -10 6 0 10 5 10 10 0 6 -4 10 -10 10 -5
0 -10 -4 -10 -10z"/>
<path d="M12155 3440 c-4 -6 -3 -16 3 -22 6 -6 12 -6 17 2 4 6 3 16 -3 22 -6
6 -12 6 -17 -2z"/>
<path d="M12190 3415 c0 -16 16 -20 24 -6 3 5 -1 11 -9 15 -9 3 -15 0 -15 -9z"/>
<path d="M12237 3404 c-8 -8 1 -24 14 -24 5 0 9 7 9 15 0 15 -12 20 -23 9z"/>
<path d="M12270 3385 c0 -8 7 -15 15 -15 8 0 15 7 15 15 0 8 -7 15 -15 15 -8
0 -15 -7 -15 -15z"/>
<path d="M12317 3374 c-8 -8 1 -24 14 -24 5 0 9 7 9 15 0 15 -12 20 -23 9z"/>
<path d="M12355 3360 c-8 -13 4 -32 16 -25 12 8 12 35 0 35 -6 0 -13 -4 -16
-10z"/>
<path d="M12395 3340 c-3 -6 1 -13 10 -16 19 -8 30 0 20 15 -8 14 -22 14 -30
1z"/>
<path d="M12440 3320 c0 -11 5 -20 10 -20 6 0 10 9 10 20 0 11 -4 20 -10 20
-5 0 -10 -9 -10 -20z"/>
<path d="M12480 3310 c0 -5 7 -10 16 -10 8 0 12 5 9 10 -3 6 -10 10 -16 10 -5
0 -9 -4 -9 -10z"/>
<path d="M12525 3300 c-4 -6 -3 -16 3 -22 6 -6 12 -6 17 2 4 6 3 16 -3 22 -6
6 -12 6 -17 -2z"/>
<path d="M12563 3278 c2 -7 7 -13 12 -13 5 0 10 6 13 13 2 6 -4 12 -13 12 -9
0 -15 -6 -12 -12z"/>
<path d="M12606 3273 c-12 -12 -6 -33 9 -33 8 0 15 6 15 14 0 17 -14 28 -24
19z"/>
<path d="M12647 3254 c-8 -8 1 -24 14 -24 5 0 9 7 9 15 0 15 -12 20 -23 9z"/>
<path d="M12690 3225 c0 -8 5 -15 10 -15 6 0 10 7 10 15 0 8 -4 15 -10 15 -5
0 -10 -7 -10 -15z"/>
<path d="M12690 3155 c0 -8 -7 -15 -16 -15 -9 0 -14 -5 -12 -12 6 -18 28 -21
28 -4 0 9 7 16 15 16 8 0 15 7 15 15 0 8 -7 15 -15 15 -8 0 -15 -7 -15 -15z"/>
<path d="M12630 3095 c0 -9 5 -15 10 -13 12 4 11 16 -1 24 -5 3 -9 -2 -9 -11z"/>
<path d="M12600 3065 c0 -8 5 -15 10 -15 6 0 10 7 10 15 0 8 -4 15 -10 15 -5
0 -10 -7 -10 -15z"/>
<path d="M12565 3030 c3 -5 10 -10 16 -10 5 0 9 5 9 10 0 6 -7 10 -16 10 -8 0
-12 -4 -9 -10z"/>
<path d="M12536 3013 c-11 -11 -6 -23 9 -23 8 0 15 4 15 9 0 13 -16 22 -24 14z"/>
<path d="M12503 2968 c2 -7 7 -13 12 -13 5 0 10 6 13 13 2 6 -4 12 -13 12 -9
0 -15 -6 -12 -12z"/>
<path d="M12470 2941 c0 -17 18 -21 24 -6 3 9 0 15 -9 15 -8 0 -15 -4 -15 -9z"/>
<path d="M12440 2910 c0 -19 3 -21 12 -12 9 9 9 15 0 24 -9 9 -12 7 -12 -12z"/>
<path d="M12410 2880 c0 -11 5 -20 10 -20 6 0 10 9 10 20 0 11 -4 20 -10 20
-5 0 -10 -9 -10 -20z"/>
<path d="M12377 2854 c-8 -8 1 -24 14 -24 5 0 9 7 9 15 0 15 -12 20 -23 9z"/>
<path d="M12342 2818 c6 -18 28 -21 28 -4 0 9 -7 16 -16 16 -9 0 -14 -5 -12
-12z"/>
<path d="M12310 2786 c0 -9 7 -16 16 -16 17 0 14 22 -4 28 -7 2 -12 -3 -12
-12z"/>
<path d="M12286 2761 c-4 -7 -5 -15 -2 -18 9 -9 19 4 14 18 -4 11 -6 11 -12 0z"/>
<path d="M12247 2734 c-8 -8 1 -24 14 -24 5 0 9 7 9 15 0 15 -12 20 -23 9z"/>
<path d="M12220 2696 c0 -9 5 -16 10 -16 6 0 10 4 10 9 0 6 -4 13 -10 16 -5 3
-10 -1 -10 -9z"/>
<path d="M12184 2665 c-4 -8 -12 -15 -20 -15 -8 0 -14 -7 -14 -15 0 -8 7 -15
15 -15 8 0 15 7 15 15 0 8 7 15 15 15 8 0 15 7 15 15 0 8 -5 15 -10 15 -6 0
-13 -7 -16 -15z"/>
<path d="M12120 2606 c0 -9 7 -16 16 -16 17 0 14 22 -4 28 -7 2 -12 -3 -12
-12z"/>
<path d="M12092 2581 c-10 -6 -10 -10 1 -20 12 -9 16 -8 20 3 7 19 -4 27 -21
17z"/>
<path d="M12055 2550 c-8 -13 15 -24 27 -12 6 6 4 11 -6 15 -8 3 -18 2 -21 -3z"/>
<path d="M12020 2510 c0 -5 7 -10 15 -10 8 0 15 5 15 10 0 6 -7 10 -15 10 -8
0 -15 -4 -15 -10z"/>
<path d="M11970 2450 c0 -5 5 -10 10 -10 6 0 10 5 10 10 0 6 -4 10 -10 10 -5
0 -10 -4 -10 -10z"/>
<path d="M11930 2420 c0 -5 7 -10 15 -10 8 0 15 5 15 10 0 6 -7 10 -15 10 -8
0 -15 -4 -15 -10z"/>
<path d="M11903 2388 c2 -7 7 -13 12 -13 5 0 10 6 13 13 2 6 -4 12 -13 12 -9
0 -15 -6 -12 -12z"/>
<path d="M11867 2374 c-8 -8 1 -24 14 -24 5 0 9 7 9 15 0 15 -12 20 -23 9z"/>
<path d="M11835 2340 c-4 -6 -3 -16 3 -22 6 -6 12 -6 17 2 4 6 3 16 -3 22 -6
6 -12 6 -17 -2z"/>
<path d="M11805 2310 c-7 -12 2 -30 16 -30 12 0 12 27 0 35 -5 3 -12 1 -16 -5z"/>
<path d="M11940 1784 c0 -13 13 -15 92 -12 61 2 93 8 96 16 3 9 -21 12 -92 12
-81 0 -96 -3 -96 -16z"/>
<path d="M12170 1790 c0 -11 12 -13 122 -14 56 -1 78 2 78 12 0 9 -27 12 -100
12 -60 0 -100 -4 -100 -10z"/>
<path d="M12410 1708 c-25 -5 -59 -11 -77 -14 -30 -6 -51 -28 -35 -38 9 -5
146 30 174 45 38 21 16 23 -62 7z"/>
<path d="M12133 1641 c-63 -17 -102 -40 -72 -42 7 -1 18 -1 23 0 5 1 32 6 60
12 61 11 106 28 106 40 0 13 -47 9 -117 -10z"/>
<path d="M11900 1581 c-46 -12 -66 -22 -68 -35 -3 -15 1 -17 20 -11 46 13 84
24 126 35 23 6 42 15 42 20 0 14 -44 10 -120 -9z"/>
<path d="M8860 4685 c0 -8 5 -15 10 -15 6 0 10 7 10 15 0 8 -4 15 -10 15 -5 0
-10 -7 -10 -15z"/>
<path d="M8907 4683 c-12 -11 -8 -23 8 -23 8 0 15 7 15 15 0 16 -12 20 -23 8z"/>
<path d="M8945 4661 c-6 -11 9 -23 19 -14 9 9 7 23 -3 23 -6 0 -12 -4 -16 -9z"/>
<path d="M8987 4654 c-8 -8 3 -34 14 -34 5 0 9 9 9 20 0 19 -11 26 -23 14z"/>
<path d="M8836 4643 c-11 -11 -6 -23 9 -23 8 0 15 4 15 9 0 13 -16 22 -24 14z"/>
<path d="M9022 4628 c6 -18 28 -21 28 -4 0 9 -7 16 -16 16 -9 0 -14 -5 -12
-12z"/>
<path d="M9075 4617 c-4 -10 -5 -21 -1 -24 10 -10 18 4 13 24 -4 17 -4 17 -12
0z"/>
<path d="M8852 4598 c6 -18 28 -21 28 -4 0 9 -7 16 -16 16 -9 0 -14 -5 -12
-12z"/>
<path d="M9107 4604 c-8 -8 1 -24 14 -24 5 0 9 7 9 15 0 15 -12 20 -23 9z"/>
<path d="M9150 4581 c0 -6 5 -13 10 -16 6 -3 10 1 10 9 0 9 -4 16 -10 16 -5 0
-10 -4 -10 -9z"/>
<path d="M9187 4574 c-8 -8 1 -24 14 -24 5 0 9 7 9 15 0 15 -12 20 -23 9z"/>
<path d="M8880 4555 c0 -8 5 -15 10 -15 6 0 10 7 10 15 0 8 -4 15 -10 15 -5 0
-10 -7 -10 -15z"/>
<path d="M9230 4550 c0 -5 7 -10 15 -10 8 0 15 5 15 10 0 6 -7 10 -15 10 -8 0
-15 -4 -15 -10z"/>
<path d="M9275 4540 c-4 -6 -3 -16 3 -22 6 -6 12 -6 17 2 4 6 3 16 -3 22 -6 6
-12 6 -17 -2z"/>
<path d="M8890 4520 c0 -5 9 -10 20 -10 11 0 20 5 20 10 0 6 -9 10 -20 10 -11
0 -20 -4 -20 -10z"/>
<path d="M9310 4515 c0 -8 7 -15 15 -15 8 0 15 7 15 15 0 8 -7 15 -15 15 -8 0
-15 -7 -15 -15z"/>
<path d="M9353 4498 c2 -7 7 -13 12 -13 5 0 10 6 13 13 2 6 -4 12 -13 12 -9 0
-15 -6 -12 -12z"/>
<path d="M9773 4503 c-9 -3 -13 -26 -13 -69 0 -57 -2 -64 -20 -64 -22 0 -27
-15 -9 -26 6 -3 15 0 20 7 6 10 9 4 9 -18 0 -33 16 -45 26 -20 3 8 3 54 2 104
-2 66 -6 89 -15 86z"/>
<path d="M8926 4492 c-8 -13 17 -62 32 -62 6 0 12 7 12 15 0 8 -7 15 -15 15
-8 0 -12 6 -9 14 6 16 -12 31 -20 18z"/>
<path d="M9397 4494 c-8 -8 1 -24 14 -24 5 0 9 7 9 15 0 15 -12 20 -23 9z"/>
<path d="M9430 4464 c0 -17 22 -14 28 4 2 7 -3 12 -12 12 -9 0 -16 -7 -16 -16z"/>
<path d="M9477 4464 c-8 -8 1 -24 14 -24 5 0 9 7 9 15 0 15 -12 20 -23 9z"/>
<path d="M9515 4441 c-6 -11 9 -23 19 -14 9 9 7 23 -3 23 -6 0 -12 -4 -16 -9z"/>
<path d="M9565 4430 c-4 -6 -3 -16 3 -22 6 -6 12 -6 17 2 4 6 3 16 -3 22 -6 6
-12 6 -17 -2z"/>
<path d="M8960 4405 c0 -8 7 -15 15 -15 8 0 15 7 15 15 0 8 -7 15 -15 15 -8 0
-15 -7 -15 -15z"/>
<path d="M9603 4408 c2 -7 7 -13 12 -13 5 0 10 6 13 13 2 6 -4 12 -13 12 -9 0
-15 -6 -12 -12z"/>
<path d="M9645 4400 c-7 -12 2 -30 16 -30 5 0 9 9 9 20 0 21 -15 27 -25 10z"/>
<path d="M9680 4375 c0 -8 7 -15 15 -15 8 0 15 7 15 15 0 8 -7 15 -15 15 -8 0
-15 -7 -15 -15z"/>
<path d="M8990 4365 c0 -8 5 -15 10 -15 6 0 10 7 10 15 0 8 -4 15 -10 15 -5 0
-10 -7 -10 -15z"/>
<path d="M9010 4325 c0 -8 7 -15 15 -15 8 0 15 7 15 15 0 8 -7 15 -15 15 -8 0
-15 -7 -15 -15z"/>
<path d="M9807 4334 c-8 -8 1 -24 14 -24 5 0 9 7 9 15 0 15 -12 20 -23 9z"/>
<path d="M9850 4310 c0 -13 5 -20 13 -17 6 2 12 10 12 17 0 7 -6 15 -12 18 -8
2 -13 -5 -13 -18z"/>
<path d="M9037 4294 c-8 -8 1 -24 14 -24 5 0 9 7 9 15 0 15 -12 20 -23 9z"/>
<path d="M9893 4288 c2 -7 7 -13 12 -13 5 0 10 6 13 13 2 6 -4 12 -13 12 -9 0
-15 -6 -12 -12z"/>
<path d="M9935 4279 c-4 -6 -5 -13 -2 -16 7 -7 27 6 27 18 0 12 -17 12 -25 -2z"/>
<path d="M9975 4270 c-4 -6 -3 -16 3 -22 6 -6 12 -6 17 2 4 6 3 16 -3 22 -6 6
-12 6 -17 -2z"/>
<path d="M9057 4254 c-8 -8 1 -24 14 -24 5 0 9 7 9 15 0 15 -12 20 -23 9z"/>
<path d="M9760 4155 c0 -63 4 -105 10 -105 11 0 11 5 14 127 1 61 -2 83 -11
83 -10 0 -13 -28 -13 -105z"/>
<path d="M10017 4253 c-12 -11 -8 -23 8 -23 8 0 15 7 15 15 0 16 -12 20 -23 8z"/>
<path d="M10060 4225 c0 -8 5 -15 10 -15 6 0 10 7 10 15 0 8 -4 15 -10 15 -5
0 -10 -7 -10 -15z"/>
<path d="M9075 4210 c3 -5 13 -10 21 -10 8 0 12 5 9 10 -3 6 -13 10 -21 10 -8
0 -12 -4 -9 -10z"/>
<path d="M10090 4210 c0 -5 7 -10 15 -10 8 0 15 5 15 10 0 6 -7 10 -15 10 -8
0 -15 -4 -15 -10z"/>
<path d="M10140 4195 c0 -8 7 -15 15 -15 8 0 15 7 15 15 0 8 -7 15 -15 15 -8
0 -15 -7 -15 -15z"/>
<path d="M10180 4186 c0 -9 7 -16 16 -16 17 0 14 22 -4 28 -7 2 -12 -3 -12
-12z"/>
<path d="M9100 4170 c0 -11 5 -20 10 -20 6 0 10 9 10 20 0 11 -4 20 -10 20 -5
0 -10 -9 -10 -20z"/>
<path d="M10220 4166 c0 -9 7 -16 16 -16 9 0 14 5 12 12 -6 18 -28 21 -28 4z"/>
<path d="M10266 4163 c-11 -11 -6 -23 9 -23 8 0 15 4 15 9 0 13 -16 22 -24 14z"/>
<path d="M9131 4141 c-10 -6 -10 -10 -1 -16 13 -8 24 -1 19 14 -3 6 -10 7 -18
2z"/>
<path d="M10311 4141 c-10 -6 -10 -10 -1 -16 13 -8 24 -1 19 14 -3 6 -10 7
-18 2z"/>
<path d="M10347 4124 c-8 -8 1 -24 14 -24 5 0 9 7 9 15 0 15 -12 20 -23 9z"/>
<path d="M10396 4111 c-4 -7 -5 -15 -2 -18 9 -9 19 4 14 18 -4 11 -6 11 -12 0z"/>
<path d="M9142 4098 c6 -18 28 -21 28 -4 0 9 -7 16 -16 16 -9 0 -14 -5 -12
-12z"/>
<path d="M10427 4094 c-9 -10 2 -24 19 -24 8 0 14 7 14 15 0 15 -21 21 -33 9z"/>
<path d="M10475 4079 c-4 -6 -3 -15 3 -21 6 -6 11 -4 15 6 7 18 -9 31 -18 15z"/>
<path d="M9167 4063 c-12 -11 -8 -23 8 -23 8 0 15 7 15 15 0 16 -12 20 -23 8z"/>
<path d="M10516 4061 c-4 -7 -5 -15 -2 -18 9 -9 19 4 14 18 -4 11 -6 11 -12 0z"/>
<path d="M10550 4034 c0 -9 5 -14 12 -12 18 6 21 28 4 28 -9 0 -16 -7 -16 -16z"/>
<path d="M10596 4033 c-11 -11 -6 -23 9 -23 8 0 15 4 15 9 0 13 -16 22 -24 14z"/>
<path d="M9180 4020 c0 -6 7 -13 15 -16 8 -4 15 -15 15 -25 0 -10 5 -19 10
-19 6 0 10 9 10 20 0 11 -4 20 -10 20 -5 0 -10 7 -10 15 0 8 -7 15 -15 15 -8
0 -15 -5 -15 -10z"/>
<path d="M9760 3921 c0 -56 4 -103 10 -106 10 -6 13 25 13 110 -1 79 -3 95
-13 95 -6 0 -10 -40 -10 -99z"/>
<path d="M10637 4014 c-8 -8 1 -24 14 -24 5 0 9 7 9 15 0 15 -12 20 -23 9z"/>
<path d="M10675 3990 c3 -5 10 -10 16 -10 5 0 9 5 9 10 0 6 -7 10 -16 10 -8 0
-12 -4 -9 -10z"/>
<path d="M10717 3983 c-12 -11 -8 -23 8 -23 8 0 15 7 15 15 0 16 -12 20 -23 8z"/>
<path d="M10760 3965 c0 -8 4 -15 10 -15 5 0 7 7 4 15 -4 8 -8 15 -10 15 -2 0
-4 -7 -4 -15z"/>
<path d="M10796 3953 c-11 -11 -6 -23 9 -23 8 0 15 4 15 9 0 13 -16 22 -24 14z"/>
<path d="M9230 3940 c0 -5 7 -10 15 -10 8 0 15 5 15 10 0 6 -7 10 -15 10 -8 0
-15 -4 -15 -10z"/>
<path d="M10845 3937 c-4 -10 -5 -21 -1 -24 10 -10 18 4 13 24 -4 17 -4 17
-12 0z"/>
<path d="M9250 3905 c0 -8 7 -15 15 -15 8 0 15 7 15 15 0 8 -7 15 -15 15 -8 0
-15 -7 -15 -15z"/>
<path d="M10870 3910 c0 -5 7 -10 15 -10 8 0 15 5 15 10 0 6 -7 10 -15 10 -8
0 -15 -4 -15 -10z"/>
<path d="M10920 3895 c0 -8 5 -15 10 -15 6 0 10 7 10 15 0 8 -4 15 -10 15 -5
0 -10 -7 -10 -15z"/>
<path d="M10960 3880 c0 -5 7 -10 15 -10 8 0 15 5 15 10 0 6 -7 10 -15 10 -8
0 -15 -4 -15 -10z"/>
<path d="M9277 3873 c-12 -11 -8 -23 8 -23 8 0 15 7 15 15 0 16 -12 20 -23 8z"/>
<path d="M11005 3869 c-10 -15 3 -25 16 -12 7 7 7 13 1 17 -6 3 -14 1 -17 -5z"/>
<path d="M11040 3850 c0 -5 7 -10 15 -10 8 0 15 5 15 10 0 6 -7 10 -15 10 -8
0 -15 -4 -15 -10z"/>
<path d="M11087 3843 c-12 -11 -8 -23 8 -23 8 0 15 7 15 15 0 16 -12 20 -23 8z"/>
<path d="M9293 3828 c2 -7 7 -13 12 -13 5 0 10 6 13 13 2 6 -4 12 -13 12 -9 0
-15 -6 -12 -12z"/>
<path d="M11127 3826 c-6 -15 1 -26 15 -26 11 0 10 27 -1 34 -5 3 -11 0 -14
-8z"/>
<path d="M11170 3805 c0 -8 5 -15 10 -15 6 0 10 7 10 15 0 8 -4 15 -10 15 -5
0 -10 -7 -10 -15z"/>
<path d="M9320 3790 c0 -11 5 -20 10 -20 6 0 10 9 10 20 0 11 -4 20 -10 20 -5
0 -10 -9 -10 -20z"/>
<path d="M11207 3794 c-8 -8 1 -24 14 -24 5 0 9 7 9 15 0 15 -12 20 -23 9z"/>
<path d="M9760 3676 c0 -64 4 -106 10 -106 6 0 10 28 11 63 0 34 1 80 2 101 1
24 -3 41 -10 43 -10 4 -13 -21 -13 -101z"/>
<path d="M11250 3770 c0 -5 5 -10 10 -10 6 0 10 5 10 10 0 6 -4 10 -10 10 -5
0 -10 -4 -10 -10z"/>
<path d="M11290 3755 c0 -8 5 -15 10 -15 6 0 10 7 10 15 0 8 -4 15 -10 15 -5
0 -10 -7 -10 -15z"/>
<path d="M9340 3750 c0 -5 7 -10 15 -10 8 0 15 5 15 10 0 6 -7 10 -15 10 -8 0
-15 -4 -15 -10z"/>
<path d="M11330 3740 c0 -5 5 -10 10 -10 6 0 10 5 10 10 0 6 -4 10 -10 10 -5
0 -10 -4 -10 -10z"/>
<path d="M11370 3725 c0 -8 5 -15 10 -15 6 0 10 7 10 15 0 8 -4 15 -10 15 -5
0 -10 -7 -10 -15z"/>
<path d="M9360 3715 c0 -8 7 -15 15 -15 8 0 15 7 15 15 0 8 -7 15 -15 15 -8 0
-15 -7 -15 -15z"/>
<path d="M11414 3719 c-3 -6 -1 -16 5 -22 8 -8 11 -5 11 11 0 24 -5 28 -16 11z"/>
<path d="M11456 3703 c-11 -11 -6 -23 9 -23 8 0 15 4 15 9 0 13 -16 22 -24 14z"/>
<path d="M11495 3690 c-7 -12 2 -30 16 -30 12 0 12 27 0 35 -5 3 -12 1 -16 -5z"/>
<path d="M9380 3675 c0 -8 7 -15 15 -15 8 0 15 7 15 15 0 8 -7 15 -15 15 -8 0
-15 -7 -15 -15z"/>
<path d="M11536 3673 c-11 -11 -6 -23 9 -23 8 0 15 4 15 9 0 13 -16 22 -24 14z"/>
<path d="M11580 3645 c0 -8 5 -15 10 -15 6 0 10 7 10 15 0 8 -4 15 -10 15 -5
0 -10 -7 -10 -15z"/>
<path d="M9400 3640 c0 -6 7 -13 15 -16 8 -4 15 -15 15 -25 0 -10 5 -19 10
-19 6 0 10 9 10 20 0 11 -4 20 -10 20 -5 0 -10 7 -10 15 0 8 -7 15 -15 15 -8
0 -15 -5 -15 -10z"/>
<path d="M11616 3625 c4 -8 10 -12 15 -9 14 8 10 24 -6 24 -9 0 -12 -6 -9 -15z"/>
<path d="M11660 3615 c0 -8 5 -15 10 -15 6 0 10 7 10 15 0 8 -4 15 -10 15 -5
0 -10 -7 -10 -15z"/>
<path d="M11706 3613 c-11 -11 -6 -23 9 -23 8 0 15 4 15 9 0 13 -16 22 -24 14z"/>
<path d="M9450 3555 c0 -9 5 -15 10 -13 12 4 11 16 -1 24 -5 3 -9 -2 -9 -11z"/>
<path d="M9472 3529 c3 -8 8 -13 11 -11 9 3 7 11 -5 18 -6 4 -8 0 -6 -7z"/>
<path d="M9760 3425 c0 -63 4 -105 10 -105 6 0 10 42 10 105 0 63 -4 105 -10
105 -6 0 -10 -42 -10 -105z"/>
<path d="M9490 3484 c0 -17 22 -14 28 4 2 7 -3 12 -12 12 -9 0 -16 -7 -16 -16z"/>
<path d="M9510 3445 c0 -8 7 -15 15 -15 8 0 15 7 15 15 0 8 -7 15 -15 15 -8 0
-15 -7 -15 -15z"/>
<path d="M9537 3414 c-8 -8 1 -24 14 -24 5 0 9 7 9 15 0 15 -12 20 -23 9z"/>
<path d="M9565 3380 c-7 -12 2 -30 16 -30 12 0 12 27 0 35 -5 3 -12 1 -16 -5z"/>
<path d="M9580 3330 c0 -5 7 -10 15 -10 8 0 15 5 15 10 0 6 -7 10 -15 10 -8 0
-15 -4 -15 -10z"/>
<path d="M9606 3303 c-11 -11 -6 -23 9 -23 8 0 15 4 15 9 0 13 -16 22 -24 14z"/>
<path d="M9759 3243 c-2 -140 -4 -164 -19 -174 -13 -8 -13 -11 3 -20 14 -8 17
-25 17 -109 0 -60 4 -100 10 -100 6 0 10 28 10 65 0 53 3 65 16 65 9 0 14 6
11 13 -2 6 -10 11 -16 10 -6 -2 -11 10 -11 28 0 17 -4 28 -10 24 -5 -3 -10 3
-10 14 0 12 5 21 10 21 6 0 10 42 10 105 0 63 -4 105 -10 105 -5 0 -10 -21
-11 -47z"/>
<path d="M9620 3250 c0 -5 7 -10 15 -10 8 0 15 5 15 10 0 6 -7 10 -15 10 -8 0
-15 -4 -15 -10z"/>
<path d="M9650 3215 c0 -8 5 -15 10 -15 6 0 10 7 10 15 0 8 -4 15 -10 15 -5 0
-10 -7 -10 -15z"/>
<path d="M9675 3190 c-7 -12 2 -30 16 -30 12 0 12 27 0 35 -5 3 -12 1 -16 -5z"/>
<path d="M9693 3138 c2 -7 7 -13 12 -13 5 0 10 6 13 13 2 6 -4 12 -13 12 -9 0
-15 -6 -12 -12z"/>
<path d="M9715 3110 c-7 -12 2 -30 16 -30 5 0 9 9 9 20 0 21 -15 27 -25 10z"/>
<path d="M9805 2950 c-3 -5 1 -10 10 -10 9 0 13 5 10 10 -3 6 -8 10 -10 10 -2
0 -7 -4 -10 -10z"/>
<path d="M9822 2908 c6 -18 28 -21 28 -4 0 9 -7 16 -16 16 -9 0 -14 -5 -12
-12z"/>
<path d="M9850 2865 c0 -8 5 -15 10 -15 6 0 10 7 10 15 0 8 -4 15 -10 15 -5 0
-10 -7 -10 -15z"/>
<path d="M9870 2825 c0 -8 5 -15 10 -15 6 0 10 7 10 15 0 8 -4 15 -10 15 -5 0
-10 -7 -10 -15z"/>
<path d="M9760 2695 c0 -63 4 -105 10 -105 6 0 10 42 10 105 0 63 -4 105 -10
105 -6 0 -10 -42 -10 -105z"/>
<path d="M9892 2788 c6 -18 28 -21 28 -4 0 9 -7 16 -16 16 -9 0 -14 -5 -12
-12z"/>
<path d="M9910 2750 c0 -5 7 -10 15 -10 8 0 15 5 15 10 0 6 -7 10 -15 10 -8 0
-15 -4 -15 -10z"/>
<path d="M9935 2720 c-4 -6 -3 -16 3 -22 6 -6 12 -6 17 2 4 6 3 16 -3 22 -6 6
-12 6 -17 -2z"/>
<path d="M9960 2675 c0 -8 5 -15 10 -15 6 0 10 7 10 15 0 8 -4 15 -10 15 -5 0
-10 -7 -10 -15z"/>
<path d="M9980 2635 c0 -8 5 -15 10 -15 6 0 10 7 10 15 0 8 -4 15 -10 15 -5 0
-10 -7 -10 -15z"/>
<path d="M10003 2598 c2 -7 7 -13 12 -13 5 0 10 6 13 13 2 6 -4 12 -13 12 -9
0 -15 -6 -12 -12z"/>
<path d="M10020 2560 c0 -5 7 -10 15 -10 8 0 15 5 15 10 0 6 -7 10 -15 10 -8
0 -15 -4 -15 -10z"/>
<path d="M9757 2523 c-13 -95 -6 -180 14 -168 12 8 12 205 0 205 -5 0 -12 -17
-14 -37z"/>
<path d="M10047 2534 c-3 -3 -3 -12 0 -20 4 -11 9 -12 19 -3 8 6 11 15 8 20
-6 10 -18 12 -27 3z"/>
<path d="M10070 2485 c0 -8 5 -15 10 -15 6 0 10 7 10 15 0 8 -4 15 -10 15 -5
0 -10 -7 -10 -15z"/>
<path d="M10092 2449 c2 -7 10 -15 17 -17 8 -3 12 1 9 9 -2 7 -10 15 -17 17
-8 3 -12 -1 -9 -9z"/>
<path d="M10117 2414 c-8 -8 1 -24 14 -24 5 0 9 7 9 15 0 15 -12 20 -23 9z"/>
<path d="M10140 2377 c0 -2 7 -18 16 -36 12 -25 19 -30 28 -21 8 8 7 14 -5 23
-9 7 -14 18 -12 25 3 6 -2 12 -11 12 -9 0 -16 -2 -16 -3z"/>
<path d="M9755 2297 c-11 -41 -1 -180 13 -185 9 -3 12 22 12 102 0 63 -4 106
-10 106 -5 0 -12 -10 -15 -23z"/>
<path d="M10186 2303 c-11 -11 -6 -23 9 -23 8 0 15 4 15 9 0 13 -16 22 -24 14z"/>
<path d="M10200 2256 c0 -9 7 -16 16 -16 17 0 14 22 -4 28 -7 2 -12 -3 -12
-12z"/>
<path d="M10230 2210 c0 -11 5 -20 10 -20 6 0 10 -7 10 -16 0 -9 5 -14 12 -12
18 6 21 28 4 28 -9 0 -16 8 -16 20 0 11 -4 20 -10 20 -5 0 -10 -9 -10 -20z"/>
<path d="M11710 2205 c0 -8 7 -15 15 -15 8 0 15 7 15 15 0 8 -7 15 -15 15 -8
0 -15 -7 -15 -15z"/>
<path d="M11675 2181 c-6 -11 9 -23 19 -14 9 9 7 23 -3 23 -6 0 -12 -4 -16 -9z"/>
<path d="M10275 2150 c-7 -12 2 -30 16 -30 12 0 12 27 0 35 -5 3 -12 1 -16 -5z"/>
<path d="M11640 2145 c0 -8 7 -15 15 -15 8 0 15 7 15 15 0 8 -7 15 -15 15 -8
0 -15 -7 -15 -15z"/>
<path d="M11610 2115 c0 -8 5 -15 10 -15 6 0 10 7 10 15 0 8 -4 15 -10 15 -5
0 -10 -7 -10 -15z"/>
<path d="M10290 2095 c0 -8 7 -15 15 -15 8 0 15 7 15 15 0 8 -7 15 -15 15 -8
0 -15 -7 -15 -15z"/>
<path d="M11580 2086 c0 -9 7 -16 16 -16 17 0 14 22 -4 28 -7 2 -12 -3 -12
-12z"/>
<path d="M9757 2063 c-2 -5 -3 -44 -1 -88 3 -109 3 -105 14 -105 6 0 10 40 10
100 0 87 -8 120 -23 93z"/>
<path d="M10310 2060 c0 -6 7 -13 15 -16 8 -4 15 -12 15 -20 0 -8 5 -14 10
-14 6 0 10 7 10 15 0 8 -4 15 -10 15 -5 0 -10 7 -10 15 0 8 -7 15 -15 15 -8 0
-15 -5 -15 -10z"/>
<path d="M11550 2050 c0 -11 5 -20 10 -20 6 0 10 9 10 20 0 11 -4 20 -10 20
-5 0 -10 -9 -10 -20z"/>
<path d="M11517 2034 c-8 -8 1 -24 14 -24 5 0 9 7 9 15 0 15 -12 20 -23 9z"/>
<path d="M11486 2003 c-11 -11 -6 -23 9 -23 8 0 15 4 15 9 0 13 -16 22 -24 14z"/>
<path d="M10360 1985 c0 -8 7 -15 15 -15 8 0 15 7 15 15 0 8 -7 15 -15 15 -8
0 -15 -7 -15 -15z"/>
<path d="M9520 1961 c0 -5 5 -11 10 -13 7 -2 5 -19 -4 -48 -7 -25 -19 -64 -26
-87 -7 -24 -17 -43 -22 -43 -4 0 -8 -4 -8 -10 0 -18 108 -11 149 9 67 35 99
114 63 159 -25 32 -162 60 -162 33z m103 -20 c51 -19 40 -117 -16 -151 -66
-41 -96 -18 -62 46 8 16 15 37 15 46 0 25 18 68 29 68 5 0 21 -4 34 -9z"/>
<path d="M11453 1958 c2 -7 7 -13 12 -13 5 0 10 6 13 13 2 6 -4 12 -13 12 -9
0 -15 -6 -12 -12z"/>
<path d="M10380 1950 c0 -6 6 -13 14 -16 8 -3 12 -12 9 -20 -3 -9 1 -14 12
-14 10 0 14 5 11 13 -3 6 -9 20 -12 30 -7 18 -34 24 -34 7z"/>
<path d="M11420 1930 c0 -5 5 -10 10 -10 6 0 10 5 10 10 0 6 -4 10 -10 10 -5
0 -10 -4 -10 -10z"/>
<path d="M11395 1910 c-8 -13 -1 -24 14 -19 6 3 7 10 2 18 -6 10 -10 10 -16 1z"/>
<path d="M10420 1871 c0 -5 7 -11 15 -15 8 -3 15 -15 15 -26 0 -19 -6 -20
-100 -20 -82 0 -100 -3 -100 -15 0 -12 17 -15 93 -15 80 0 95 3 110 20 19 22
23 50 7 50 -5 0 -10 7 -10 15 0 8 -7 15 -15 15 -8 0 -15 -4 -15 -9z"/>
<path d="M11360 1865 c0 -8 5 -15 10 -15 6 0 10 7 10 15 0 8 -4 15 -10 15 -5
0 -10 -7 -10 -15z"/>
<path d="M11322 1838 c6 -18 28 -21 28 -4 0 9 -7 16 -16 16 -9 0 -14 -5 -12
-12z"/>
<path d="M9750 1812 c0 -5 -27 -37 -60 -70 -33 -34 -60 -66 -60 -72 0 -23 26
-7 81 51 l59 60 74 -40 c40 -23 81 -41 90 -41 32 0 15 21 -40 48 l-56 27 58 5
c33 3 59 10 62 18 3 9 -18 12 -80 12 -45 0 -93 3 -105 6 -13 4 -23 2 -23 -4z"/>
<path d="M11295 1810 c-3 -5 -24 -10 -46 -10 -21 0 -39 -3 -39 -8 0 -12 70
-30 76 -20 4 5 31 8 62 6 38 -2 57 1 59 10 3 8 -8 12 -36 12 -22 0 -43 5 -46
10 -3 6 -10 10 -15 10 -5 0 -12 -4 -15 -10z"/>
<path d="M10002 1798 c3 -9 31 -13 101 -13 133 0 132 19 -1 23 -81 2 -103 0
-100 -10z"/>
<path d="M10488 1803 c-10 -2 -18 -9 -18 -14 0 -5 49 -9 110 -9 103 0 139 10
88 24 -26 7 -154 6 -180 -1z"/>
<path d="M10732 1789 c3 -8 35 -11 98 -10 135 3 140 21 6 21 -76 0 -107 -3
-104 -11z"/>
<path d="M10970 1790 c0 -6 40 -10 100 -10 60 0 100 4 100 10 0 6 -40 10 -100
10 -60 0 -100 -4 -100 -10z"/>
<path d="M11445 1791 c-8 -14 20 -19 105 -20 80 -1 110 5 110 20 0 12 -207 12
-215 0z"/>
<path d="M10490 1754 c0 -9 5 -14 12 -12 18 6 21 28 4 28 -9 0 -16 -7 -16 -16z"/>
<path d="M11230 1744 c0 -9 5 -14 12 -12 18 6 21 28 4 28 -9 0 -16 -7 -16 -16z"/>
<path d="M10510 1716 c0 -9 7 -16 16 -16 17 0 14 22 -4 28 -7 2 -12 -3 -12
-12z"/>
<path d="M11200 1715 c0 -8 5 -15 10 -15 6 0 10 7 10 15 0 8 -4 15 -10 15 -5
0 -10 -7 -10 -15z"/>
<path d="M11170 1685 c0 -8 5 -15 10 -15 6 0 10 7 10 15 0 8 -4 15 -10 15 -5
0 -10 -7 -10 -15z"/>
<path d="M9990 1682 c0 -14 35 -42 53 -42 9 0 19 -4 22 -10 5 -8 90 -50 101
-50 2 0 4 7 4 15 0 8 -30 29 -67 47 -38 18 -69 36 -71 41 -5 10 -42 9 -42 -1z"/>
<path d="M10532 1678 c6 -18 28 -21 28 -4 0 9 -7 16 -16 16 -9 0 -14 -5 -12
-12z"/>
<path d="M11140 1655 c0 -8 5 -15 10 -15 6 0 10 7 10 15 0 8 -4 15 -10 15 -5
0 -10 -7 -10 -15z"/>
<path d="M10560 1635 c0 -8 5 -15 10 -15 6 0 10 7 10 15 0 8 -4 15 -10 15 -5
0 -10 -7 -10 -15z"/>
<path d="M11110 1626 c0 -9 5 -16 10 -16 6 0 10 4 10 9 0 6 -4 13 -10 16 -5 3
-10 -1 -10 -9z"/>
<path d="M9518 1570 c-50 -50 -73 -90 -52 -90 10 0 144 133 144 142 0 23 -42
0 -92 -52z"/>
<path d="M10580 1600 c0 -5 7 -10 16 -10 8 0 12 5 9 10 -3 6 -10 10 -16 10 -5
0 -9 -4 -9 -10z"/>
<path d="M11076 1602 c-3 -6 -1 -14 5 -17 15 -10 25 3 12 16 -7 7 -13 7 -17 1z"/>
<path d="M10200 1574 c0 -11 45 -43 62 -44 9 0 19 -4 23 -9 8 -14 65 -41 87
-41 34 0 18 16 -49 51 -38 19 -69 37 -71 42 -4 8 -52 10 -52 1z"/>
<path d="M10605 1570 c-8 -13 4 -32 16 -25 12 8 12 35 0 35 -6 0 -13 -4 -16
-10z"/>
<path d="M11040 1564 c0 -9 5 -14 12 -12 18 6 21 28 4 28 -9 0 -16 -7 -16 -16z"/>
<path d="M10997 1528 c-12 -12 -16 -26 -11 -36 6 -14 8 -14 11 6 3 12 11 22
19 22 8 0 14 7 14 15 0 20 -11 18 -33 -7z"/>
<path d="M10625 1530 c-4 -6 -3 -16 3 -22 6 -6 12 -6 17 2 4 6 3 16 -3 22 -6
6 -12 6 -17 -2z"/>
<path d="M10640 1480 c0 -5 7 -10 15 -10 8 0 15 5 15 10 0 6 -7 10 -15 10 -8
0 -15 -4 -15 -10z"/>
<path d="M10955 1477 c-4 -10 -5 -21 -1 -24 10 -10 18 4 13 24 -4 17 -4 17
-12 0z"/>
<path d="M11495 1480 c-11 -5 -46 -14 -77 -20 -38 -8 -58 -16 -58 -26 0 -19
49 -18 86 1 16 8 40 15 54 15 32 0 55 15 46 29 -8 13 -23 13 -51 1z"/>
<path d="M9357 1401 c-37 -37 -67 -73 -67 -80 0 -20 26 -12 50 17 13 15 42 46
64 70 25 27 36 46 30 52 -6 6 -34 -15 -77 -59z"/>
<path d="M10436 1449 c21 -25 154 -90 166 -83 16 10 7 22 -24 35 -18 7 -55 26
-81 41 -60 35 -89 38 -61 7z"/>
<path d="M10670 1445 c0 -8 5 -15 10 -15 6 0 10 7 10 15 0 8 -4 15 -10 15 -5
0 -10 -7 -10 -15z"/>
<path d="M10916 1435 c4 -8 10 -15 15 -15 5 0 9 7 9 15 0 8 -7 15 -15 15 -9 0
-12 -6 -9 -15z"/>
<path d="M10885 1420 c-7 -12 2 -30 16 -30 12 0 12 27 0 35 -5 3 -12 1 -16 -5z"/>
<path d="M11235 1418 c-66 -17 -109 -35 -113 -47 -3 -9 6 -10 34 -5 77 14 158
39 158 49 1 14 -31 15 -79 3z"/>
<path d="M10690 1405 c0 -9 5 -15 10 -13 12 4 11 16 -1 24 -5 3 -9 -2 -9 -11z"/>
<path d="M10850 1380 c0 -5 7 -10 15 -10 8 0 15 5 15 10 0 6 -7 10 -15 10 -8
0 -15 -4 -15 -10z"/>
<path d="M10700 1370 c0 -5 7 -10 15 -10 8 0 15 5 15 10 0 6 -7 10 -15 10 -8
0 -15 -4 -15 -10z"/>
<path d="M10995 1355 c-88 -23 -105 -30 -102 -40 3 -13 63 -8 110 10 20 8 46
15 57 15 11 0 20 7 20 15 0 18 -18 18 -85 0z"/>
<path d="M10640 1346 c0 -8 18 -22 40 -32 22 -10 40 -21 40 -25 0 -5 -16 -11
-35 -15 -36 -6 -44 -32 -9 -26 10 2 46 6 78 9 55 5 96 25 96 46 0 5 -9 7 -20
4 -13 -3 -20 0 -20 9 0 8 -7 14 -16 14 -10 0 -14 -6 -10 -15 6 -16 -3 -19 -27
-9 -9 3 -13 13 -9 26 4 18 3 19 -15 7 -17 -10 -24 -9 -44 4 -29 21 -49 22 -49
3z"/>
<path d="M10810 1350 c0 -5 7 -10 15 -10 8 0 15 5 15 10 0 6 -7 10 -15 10 -8
0 -15 -4 -15 -10z"/>
<path d="M9216 1257 c-16 -18 -44 -48 -63 -69 -21 -21 -32 -41 -28 -48 8 -14
145 116 145 137 0 22 -24 13 -54 -20z"/>
<path d="M10555 1243 c-27 -8 -67 -17 -88 -20 -39 -5 -56 -19 -41 -33 10 -9
135 14 165 31 11 5 19 16 19 24 0 8 -1 15 -2 14 -2 0 -25 -8 -53 -16z"/>
<path d="M10860 1235 c0 -9 28 -29 68 -48 37 -17 69 -35 70 -39 6 -14 32 -8
32 7 0 8 -34 32 -80 55 -90 45 -90 45 -90 25z"/>
<path d="M10315 1183 c-27 -7 -67 -16 -88 -20 -41 -6 -55 -19 -39 -35 6 -6 28
-4 63 6 30 8 73 20 97 26 42 11 53 24 30 33 -7 2 -35 -2 -63 -10z"/>
<path d="M10689 1161 c8 -5 12 -18 9 -32 -18 -81 -40 -146 -53 -155 -13 -10
-11 -12 12 -17 36 -7 57 2 44 17 -7 8 -6 25 1 49 10 34 14 37 49 37 28 0 42 6
53 22 36 51 3 88 -79 88 -33 0 -45 -3 -36 -9z m89 -41 c4 -24 -19 -50 -45 -50
-16 0 -17 19 -3 55 13 33 44 30 48 -5z"/>
<path d="M11070 1131 c0 -13 23 -30 96 -67 73 -37 84 -40 84 -21 0 7 -37 32
-82 55 -86 44 -98 48 -98 33z"/>
<path d="M10013 1113 c-57 -13 -75 -28 -57 -45 3 -4 24 0 47 7 23 7 63 19 90
25 26 7 47 17 47 21 0 13 -55 9 -127 -8z"/>
<path d="M9016 1050 c-55 -54 -68 -72 -59 -81 9 -9 27 3 78 55 56 58 80 96 59
96 -4 0 -38 -31 -78 -70z"/>
<path d="M9830 1065 c-25 -7 -62 -16 -82 -19 -24 -4 -38 -12 -38 -21 0 -19 11
-19 101 1 73 17 99 28 99 45 0 12 -26 10 -80 -6z"/>
<path d="M11287 1023 c-8 -7 21 -43 35 -43 5 0 37 -14 70 -30 34 -17 63 -28
66 -26 13 13 -12 34 -81 69 -84 41 -81 40 -90 30z"/>
<path d="M9600 1011 c-8 -6 -35 -13 -62 -16 -45 -6 -78 -28 -64 -42 3 -3 27
-1 54 6 26 7 68 17 95 23 28 6 47 16 47 24 0 16 -47 19 -70 5z"/>
<path d="M9390 960 c-8 -5 -38 -14 -66 -20 -28 -6 -60 -17 -70 -25 -18 -14
-17 -14 8 -15 65 0 168 33 168 55 0 17 -18 19 -40 5z"/>
<path d="M11500 906 c0 -8 37 -33 82 -55 90 -45 98 -47 98 -27 0 10 -156 96
-176 96 -2 0 -4 -6 -4 -14z"/>
<path d="M9120 890 c-36 -10 -75 -18 -87 -19 -27 -1 -32 -31 -5 -31 9 0 52 8
95 17 60 14 77 22 77 35 0 10 -3 17 -7 17 -5 -1 -37 -10 -73 -19z"/>
<path d="M2900 5680 c0 -6 38 -10 93 -10 50 0 134 -3 185 -6 80 -5 92 -4 92
10 0 14 -22 16 -185 16 -117 0 -185 -4 -185 -10z"/>
<path d="M2214 5626 c-7 -19 3 -36 22 -36 10 0 14 8 12 22 -4 26 -26 36 -34
14z"/>
<path d="M3028 5559 c-41 -21 -64 -50 -77 -97 -14 -48 26 -112 71 -112 55 0
82 104 34 130 -14 7 -34 10 -45 7 -20 -5 -20 -4 2 24 12 17 32 32 44 35 13 4
23 12 23 20 0 18 -7 17 -52 -7z m10 -114 c12 -25 1 -75 -16 -75 -18 0 -32 26
-32 62 0 30 4 38 18 38 11 0 24 -11 30 -25z"/>
<path d="M3179 5562 c-26 -2 -39 -10 -52 -32 -23 -38 -21 -47 10 -55 32 -8 52
-32 53 -61 0 -33 -23 -47 -54 -33 -30 14 -41 8 -32 -17 8 -21 69 -13 97 12 39
35 20 108 -33 127 -29 10 -21 27 12 27 18 0 33 6 37 15 7 20 5 21 -38 17z"/>
<path d="M8609 4841 c12 -8 12 -17 1 -58 -23 -89 -34 -118 -49 -130 -12 -11
-8 -13 25 -13 l39 0 0 42 c0 39 2 43 28 46 20 2 27 -1 27 -13 0 -9 5 -13 10
-10 6 3 10 22 10 41 0 32 -1 34 -16 20 -26 -26 -45 -20 -38 12 11 50 13 52 50
52 27 0 37 -5 41 -20 8 -30 23 -24 23 10 l0 30 -82 0 c-53 0 -78 -4 -69 -9z"/>
<path d="M2977 4811 c-25 -42 -21 -58 13 -65 43 -8 59 -46 35 -82 -12 -19 -20
-23 -28 -15 -15 15 -60 14 -55 -1 15 -45 90 -26 116 29 15 31 15 37 1 61 -8
15 -26 32 -39 39 -34 17 -31 27 9 33 50 7 53 30 4 30 -32 0 -42 -5 -56 -29z"/>
<path d="M3146 4819 c-53 -42 -69 -104 -41 -158 36 -70 115 -46 115 35 0 46
-12 61 -54 66 l-28 3 22 28 c12 15 30 27 41 27 10 0 19 5 19 10 0 18 -46 11
-74 -11z m34 -98 c14 -26 13 -44 -4 -66 -12 -16 -16 -17 -30 -6 -16 13 -22 71
-9 84 12 13 32 7 43 -12z"/>
<path d="M2000 4634 c6 -14 10 -59 10 -100 0 -59 -3 -74 -15 -74 -8 0 -15 -4
-15 -10 0 -6 32 -10 75 -10 62 0 79 4 95 20 24 24 26 57 4 81 -12 14 -13 22
-4 38 23 45 -29 81 -116 81 -43 0 -43 -1 -34 -26z m104 -10 c29 -29 12 -64
-31 -64 -20 0 -23 5 -23 40 0 33 3 40 19 40 11 0 27 -7 35 -16z m10 -100 c19
-18 19 -20 6 -45 -7 -12 -21 -19 -40 -19 -28 0 -30 2 -30 40 0 36 3 40 24 40
14 0 32 -7 40 -16z"/>
<path d="M2905 4528 c4 -10 48 -13 174 -13 134 0 167 3 159 13 -8 9 -55 12
-174 12 -127 0 -162 -3 -159 -12z"/>
<path d="M2200 4460 c0 -15 5 -20 18 -18 9 2 17 10 17 18 0 8 -8 16 -17 18
-13 2 -18 -3 -18 -18z"/>
<path d="M12945 4436 c-24 -10 -26 -13 -12 -19 14 -5 17 -20 17 -81 0 -41 -4
-78 -10 -81 -21 -13 -9 -25 25 -25 19 0 35 5 35 10 0 6 -4 10 -10 10 -5 0 -11
44 -12 99 l-3 99 -30 -12z"/>
<path d="M13076 4406 c-20 -43 -21 -43 9 -50 37 -9 61 -50 46 -82 -10 -22 -15
-24 -47 -18 -29 5 -36 4 -32 -7 6 -19 46 -24 73 -9 53 28 52 112 0 140 -33 18
-32 30 4 30 16 0 31 6 35 15 4 12 -3 15 -33 15 -34 0 -41 -4 -55 -34z"/>
<path d="M2995 4389 c-40 -35 -60 -94 -46 -131 22 -59 74 -76 111 -36 40 43
16 118 -38 118 -12 0 -22 4 -22 10 0 15 42 50 62 50 10 0 18 5 18 10 0 21 -51
9 -85 -21z m35 -88 c13 -25 13 -68 0 -76 -18 -11 -40 16 -40 50 0 48 21 61 40
26z"/>
<path d="M3128 4389 c-26 -44 -23 -69 5 -69 31 0 59 -32 55 -62 -2 -19 -10
-23 -46 -26 -53 -4 -52 -28 1 -26 25 1 43 9 56 25 21 25 28 79 11 79 -5 0 -10
6 -10 14 0 8 -13 20 -30 28 -40 17 -38 26 7 30 27 2 39 8 41 21 3 14 -4 17
-35 17 -32 0 -41 -5 -55 -31z"/>
<path d="M13313 4372 c-12 -9 -27 -30 -33 -46 -22 -60 51 -123 94 -81 9 9 16
24 16 32 0 14 -3 14 -20 -2 -24 -22 -47 -14 -56 20 -7 27 9 75 25 75 5 0 11
-9 14 -20 3 -13 10 -18 21 -14 24 9 19 29 -9 42 -31 14 -26 15 -52 -6z"/>
<path d="M13414 4375 c-11 -8 -14 -15 -6 -15 15 0 17 -110 2 -110 -5 0 -10 -4
-10 -10 0 -5 16 -10 35 -10 19 0 35 5 35 10 0 6 -4 10 -10 10 -5 0 -10 20 -10
44 0 44 19 74 40 61 14 -9 13 -98 -2 -113 -9 -9 -3 -12 27 -12 30 0 36 3 27
12 -30 30 -4 133 28 113 14 -9 13 -98 -2 -113 -9 -9 -4 -12 25 -12 20 0 37 5
37 10 0 6 -4 10 -10 10 -6 0 -10 26 -10 59 0 69 -13 87 -54 71 -19 -7 -33 -7
-47 0 -13 8 -25 7 -39 0 -14 -7 -20 -7 -20 0 0 14 -13 13 -36 -5z"/>
<path d="M3233 3688 c-23 -11 -31 -28 -13 -28 15 0 13 -153 -2 -168 -9 -9 -2
-12 33 -11 24 0 38 3 32 6 -9 3 -13 35 -13 109 0 57 -3 104 -7 103 -5 0 -18
-5 -30 -11z"/>
<path d="M3356 3684 c-9 -8 -16 -23 -16 -32 0 -12 3 -13 12 -4 7 7 22 12 35
12 31 0 32 -44 1 -61 -22 -12 -22 -12 6 -26 21 -11 27 -20 24 -41 -3 -24 -7
-27 -40 -26 -26 1 -38 -3 -38 -12 0 -18 59 -18 82 -1 26 20 33 63 14 92 -10
15 -12 26 -6 30 6 3 10 19 10 35 0 45 -52 66 -84 34z"/>
<path d="M2025 3492 c-49 -41 -55 -114 -14 -167 28 -35 105 -36 137 -2 27 28
18 43 -9 16 -24 -24 -71 -24 -93 0 -10 11 -20 38 -23 61 -5 33 -2 45 17 65 33
35 87 35 100 0 13 -35 20 -31 20 10 l0 35 -57 0 c-40 -1 -64 -6 -78 -18z"/>
<path d="M2904 3388 c-3 -5 -4 -11 -3 -13 2 -2 195 -5 428 -7 333 -2 425 0
428 10 4 9 -81 12 -399 13 -221 1 -413 3 -426 4 -12 1 -25 -2 -28 -7z"/>
<path d="M2196 3325 c-9 -24 -8 -25 20 -25 19 0 25 5 22 17 -4 23 -34 28 -42
8z"/>
<path d="M3254 3313 c-3 -16 -12 -50 -19 -78 -7 -27 -16 -70 -19 -95 -4 -25
-13 -56 -20 -69 -13 -24 -13 -23 -31 23 -10 25 -20 46 -24 46 -3 0 -19 -12
-36 -26 -27 -23 -28 -25 -7 -21 19 5 27 -3 52 -54 22 -42 34 -57 45 -53 8 4
15 15 15 27 0 11 6 43 14 71 8 28 20 74 26 101 6 28 16 69 21 93 l11 43 216
-2 c159 -2 217 0 220 9 3 9 -54 12 -227 12 l-231 0 -6 -27z"/>
<path d="M12899 3316 c-36 -24 -69 -85 -69 -125 0 -10 10 -31 22 -46 l22 -28
-24 -19 c-12 -10 -21 -21 -18 -23 2 -3 32 -8 64 -11 68 -7 124 13 124 44 -1
16 -1 16 -11 0 -8 -14 -23 -18 -71 -18 -60 0 -61 0 -43 20 10 11 28 20 40 20
31 0 75 37 91 76 45 107 -34 173 -127 110z m91 -11 c29 -35 -15 -146 -63 -159
-11 -3 -29 0 -40 6 -16 8 -19 18 -14 54 9 82 81 143 117 99z"/>
<path d="M2966 3194 c-9 -20 -16 -38 -14 -39 2 -2 20 -10 41 -19 36 -14 38
-18 35 -53 -3 -38 -3 -38 -45 -35 -33 2 -43 -1 -43 -13 0 -11 11 -15 39 -15
31 0 44 6 60 26 12 15 21 36 21 48 0 29 -36 86 -55 86 -29 0 -15 19 17 22 48
5 48 28 1 28 -35 0 -41 -4 -57 -36z"/>
<path d="M3310 3220 c-12 -8 -13 -12 -2 -19 20 -12 22 -159 2 -171 -11 -7 -2
-10 30 -10 35 1 41 3 28 11 -15 8 -18 25 -18 104 0 97 -5 108 -40 85z"/>
<path d="M3447 3224 c-10 -10 -9 -66 2 -83 5 -8 3 -24 -5 -40 -26 -49 -15 -72
38 -85 30 -7 68 20 68 49 0 22 -22 65 -33 65 -6 0 -2 9 7 19 10 11 16 31 14
48 -3 25 -7 28 -43 31 -23 2 -44 0 -48 -4z m58 -15 c4 -5 4 -22 1 -35 -6 -21
-9 -24 -21 -14 -23 19 -18 60 6 60 4 0 11 -5 14 -11z m-4 -125 c21 -19 14 -44
-11 -44 -20 0 -32 23 -24 45 8 19 13 19 35 -1z"/>
<path d="M3628 3223 c-22 -5 -22 -10 -3 -29 22 -23 21 -150 -2 -162 -14 -9
-14 -10 5 -16 28 -9 70 3 52 14 -9 5 -13 37 -14 101 -1 92 -5 101 -38 92z"/>
<path d="M12971 2646 c-7 -8 -15 -30 -18 -49 -7 -45 25 -82 64 -72 l25 6 -21
-30 c-12 -16 -30 -33 -41 -36 -21 -7 -28 -25 -9 -25 22 0 74 39 91 67 41 71
14 153 -51 153 -16 0 -34 -6 -40 -14z m67 -50 c4 -45 -10 -65 -31 -47 -20 16
-28 63 -15 79 21 24 43 9 46 -32z"/>
<path d="M13202 2577 c-30 -32 -29 -81 3 -113 27 -27 59 -25 82 5 23 29 15 43
-13 25 -22 -15 -27 -15 -39 -3 -22 23 -26 54 -10 75 14 18 16 18 29 2 13 -18
46 -25 46 -10 0 4 -7 15 -14 25 -18 24 -58 21 -84 -6z"/>
<path d="M13320 2598 c-1 -2 -2 -36 -3 -76 -2 -71 -2 -72 23 -72 24 0 25 2 22
59 -3 46 0 59 13 64 21 9 28 -11 23 -73 -3 -48 -2 -50 22 -50 24 0 25 2 22 50
-4 57 11 88 34 69 21 -17 18 -96 -3 -108 -15 -8 -11 -10 20 -11 34 0 37 2 27
19 -5 11 -10 39 -10 63 0 62 -11 76 -50 61 -17 -6 -32 -7 -36 -2 -8 13 -52 11
-57 -3 -4 -10 -6 -10 -6 0 -1 9 -40 19 -41 10z"/>
<path d="M3279 2408 c-7 -18 -14 -35 -16 -38 -2 -3 10 -11 27 -17 36 -14 59
-57 43 -81 -11 -18 -35 -20 -65 -7 -25 10 -24 -21 1 -35 29 -15 37 -13 70 21
47 47 35 123 -22 131 -36 5 -25 23 16 26 52 4 51 32 -2 32 -35 0 -40 -4 -52
-32z"/>
<path d="M3433 2433 c-16 -6 -17 -65 -2 -80 8 -8 7 -17 -5 -34 -20 -30 -20
-42 2 -67 27 -32 58 -36 81 -13 26 26 27 65 2 90 -18 18 -18 19 0 35 48 41
-14 96 -78 69z m50 -56 l-10 -22 -12 23 c-10 19 -10 26 0 38 11 14 14 13 22
-1 6 -11 6 -25 0 -38z m6 -119 c-8 -15 -13 -17 -25 -7 -14 12 -19 50 -8 62 4
4 15 -3 25 -14 14 -17 16 -26 8 -41z"/>
<path d="M1976 2262 c-3 -5 1 -12 9 -16 12 -4 15 -24 15 -90 0 -70 -3 -87 -17
-95 -19 -11 -18 -12 80 -16 64 -3 104 25 112 78 10 63 -5 109 -41 126 -35 18
-149 27 -158 13z m151 -48 c21 -21 25 -32 20 -66 -7 -53 -32 -80 -71 -76 l-31
3 -1 70 c0 39 1 76 4 83 7 21 52 13 79 -14z"/>
<path d="M2900 2131 c0 -14 100 -17 563 -20 335 -1 418 1 415 11 -4 10 -109
14 -491 16 -303 2 -487 -1 -487 -7z"/>
<path d="M3376 2033 c-10 -37 -24 -90 -32 -117 -8 -26 -14 -58 -14 -70 0 -11
-4 -27 -9 -35 -7 -11 -14 -4 -30 27 -24 47 -21 45 -55 32 -30 -11 -36 -35 -7
-27 16 4 25 -7 47 -54 16 -33 33 -58 38 -56 10 3 65 189 66 223 0 11 7 42 16
68 l17 48 218 -4 c170 -2 219 0 219 10 0 9 -50 12 -214 12 -118 0 -221 3 -229
6 -11 4 -19 -11 -31 -63z"/>
<path d="M2204 2069 c-9 -15 12 -33 30 -26 9 4 16 13 16 22 0 17 -35 21 -46 4z"/>
<path d="M2966 1975 c-11 -8 -14 -15 -8 -15 8 0 12 -27 12 -89 0 -77 -2 -90
-17 -94 -10 -3 4 -5 31 -6 46 -1 48 0 34 17 -11 12 -14 37 -13 87 3 72 -2 115
-14 115 -3 0 -15 -7 -25 -15z"/>
<path d="M3095 1970 c-21 -23 -13 -39 10 -20 12 10 18 10 30 0 20 -17 19 -36
-4 -59 -20 -20 -20 -20 -1 -26 24 -8 35 -42 19 -61 -8 -10 -22 -13 -47 -8 -27
5 -34 4 -30 -7 7 -19 87 -17 99 2 12 20 11 83 -2 96 -8 8 -7 16 2 31 11 17 11
25 -1 46 -16 31 -50 34 -75 6z"/>
<path d="M3443 1978 c-13 -6 -23 -15 -23 -20 0 -5 5 -6 10 -3 6 3 10 3 11 -2
9 -100 7 -154 -7 -168 -14 -13 -11 -15 27 -15 34 0 40 3 31 12 -8 8 -12 47
-12 110 0 54 -3 98 -7 97 -5 0 -18 -5 -30 -11z"/>
<path d="M3582 1974 c-25 -17 -29 -51 -8 -79 12 -17 11 -23 -7 -46 -19 -26
-19 -30 -4 -52 29 -44 87 -40 109 8 10 21 8 30 -9 53 -17 23 -18 29 -7 40 8 7
14 26 14 43 0 22 -6 32 -26 39 -33 13 -36 13 -62 -6z m56 -37 c-2 -11 -9 -22
-15 -25 -16 -4 -27 22 -19 43 8 22 38 6 34 -18z m2 -127 c0 -25 -28 -33 -39
-11 -6 10 -7 28 -4 40 5 21 7 21 24 5 11 -9 19 -25 19 -34z"/>
<path d="M3756 1973 c-25 -13 -27 -17 -13 -25 14 -7 17 -24 17 -83 0 -41 -5
-77 -10 -80 -20 -12 -1 -21 35 -17 29 4 33 6 21 16 -12 8 -16 36 -18 108 l-3
96 -29 -15z"/>
<path d="M12904 1870 c-11 -4 -35 -22 -52 -40 -28 -28 -32 -38 -32 -86 0 -50
2 -56 33 -75 35 -22 74 -20 114 6 34 23 28 38 -8 20 -42 -22 -80 -16 -98 16
-18 33 -9 69 30 114 40 45 72 46 91 5 7 -16 16 -30 19 -30 6 0 19 49 19 69 0
9 -92 10 -116 1z"/>
<path d="M12380 1260 c-13 -8 -12 -10 3 -10 15 0 17 -11 17 -85 0 -50 -4 -85
-10 -85 -5 0 -10 -4 -10 -10 0 -5 16 -10 35 -10 19 0 35 5 35 10 0 6 -4 10
-10 10 -6 0 -10 38 -10 95 0 84 -2 95 -17 95 -10 0 -25 -5 -33 -10z"/>
<path d="M12506 1248 c-20 -28 -12 -36 13 -14 30 28 55 17 59 -25 3 -30 -4
-43 -42 -86 -26 -28 -46 -54 -46 -57 0 -3 29 -6 65 -6 36 0 65 4 65 9 0 5 3
16 6 25 4 10 1 16 -9 16 -8 0 -17 -5 -19 -11 -2 -6 -17 -9 -33 -7 l-30 3 24
22 c55 51 77 113 49 141 -21 21 -85 15 -102 -10z"/>
<path d="M12750 1193 c-37 -47 -15 -133 35 -133 23 0 55 28 55 49 0 9 -6 8
-22 -3 -20 -14 -24 -14 -40 1 -22 20 -23 66 -2 84 13 11 17 10 25 -4 12 -21
39 -22 39 -2 0 16 -30 35 -54 35 -8 0 -24 -12 -36 -27z"/>
<path d="M12864 1205 c-17 -13 -17 -14 -1 -15 14 0 17 -9 17 -50 0 -36 -4 -52
-15 -56 -27 -11 -16 -24 20 -24 34 0 46 12 25 25 -25 15 -4 105 24 105 28 0
38 -96 11 -106 -28 -11 -15 -24 25 -24 40 0 53 13 25 24 -34 13 -6 115 29 103
15 -5 20 -87 7 -100 -19 -19 -12 -27 24 -27 33 0 48 14 25 22 -10 3 -16 38
-19 104 -1 29 -28 38 -56 20 -20 -13 -24 -13 -29 -1 -6 17 -42 20 -51 5 -3 -5
-11 -10 -16 -10 -6 0 -7 5 -4 10 9 15 -19 12 -41 -5z"/>
<path d="M8717 668 c-13 -18 -33 -46 -43 -63 -10 -16 -25 -37 -33 -46 -50 -52
-60 -67 -44 -73 29 -12 45 -7 39 12 -8 23 27 62 54 62 26 0 27 -45 3 -59 -17
-9 -17 -10 0 -16 24 -10 75 4 57 15 -13 8 -13 11 6 153 7 56 -5 61 -39 15z
m-7 -73 c0 -15 -6 -25 -14 -25 -11 0 -12 5 -3 25 15 31 17 31 17 0z"/>
<path d="M10033 678 c-26 -13 -30 -28 -8 -28 12 0 15 -16 15 -84 0 -58 -4 -86
-12 -89 -7 -3 7 -6 32 -6 35 0 41 2 28 10 -15 8 -18 25 -18 109 0 55 -3 100
-7 99 -5 0 -18 -5 -30 -11z"/>
<path d="M10210 673 c-54 -37 -76 -95 -59 -156 23 -83 119 -58 119 30 0 36
-37 70 -65 59 -8 -3 -15 -2 -15 3 0 10 41 52 66 68 19 12 19 12 -1 12 -11 1
-32 -7 -45 -16z m15 -138 c0 -50 -27 -61 -43 -17 -12 34 2 65 26 60 13 -2 17
-14 17 -43z"/>
<path d="M11749 681 c9 -6 11 -18 6 -42 -13 -63 -43 -141 -56 -150 -9 -5 16
-9 62 -9 71 0 78 2 93 25 20 30 20 49 1 65 -14 11 -13 14 5 27 26 19 27 69 1
83 -24 12 -132 14 -112 1z m88 -22 c15 -15 5 -47 -18 -60 -28 -14 -36 -5 -31
35 4 37 26 48 49 25z m-13 -101 c16 -26 -4 -52 -41 -56 l-31 -3 11 41 c9 32
16 40 31 38 10 -2 24 -11 30 -20z"/>
<path d="M10419 613 c-9 -2 -24 -18 -33 -36 -21 -39 -10 -77 28 -102 23 -15
27 -15 50 0 14 10 26 27 26 38 0 20 -1 20 -13 3 -8 -11 -23 -17 -38 -14 -20 2
-25 9 -27 40 -2 29 1 39 17 48 17 9 21 8 21 -5 0 -8 9 -15 20 -15 29 0 25 29
-6 40 -14 6 -26 9 -27 9 -1 -1 -9 -3 -18 -6z"/>
<path d="M10504 599 c-3 -5 0 -9 5 -9 16 0 14 -110 -1 -111 -7 0 -2 -4 10 -10
15 -6 30 -5 40 1 11 6 12 10 4 10 -9 0 -12 15 -10 53 3 44 6 52 23 52 16 0 21
-8 23 -39 3 -32 0 -53 -11 -75 -1 -2 13 -5 31 -6 17 -2 32 1 32 6 0 5 -5 9
-11 9 -6 0 -9 21 -7 53 3 44 6 52 23 52 17 0 20 -6 19 -45 0 -25 -4 -53 -8
-62 -7 -15 -3 -18 22 -18 32 0 50 14 32 25 -5 3 -10 27 -10 53 0 26 -4 52 -8
58 -8 14 -189 16 -198 3z"/>
</g>
</svg>
