<?xml version="1.0" standalone="no"?>
<!DOCTYPE svg PUBLIC "-//W3C//DTD SVG 20010904//EN"
 "http://www.w3.org/TR/2001/REC-SVG-20010904/DTD/svg10.dtd">
<svg version="1.0" xmlns="http://www.w3.org/2000/svg"
 width="1466.000000pt" height="510.000000pt" viewBox="0 0 1466.000000 510.000000"
 preserveAspectRatio="xMidYMid meet">
<metadata>
Created by potrace 1.16, written by Peter Selinger 2001-2019
</metadata>
<g transform="translate(0.000000,510.000000) scale(0.100000,-0.100000)"
fill="#000000" stroke="none">
<path d="M1149 4723 c-1 -68 -2 -129 -3 -135 -1 -9 21 -11 84 -9 118 6 122 6
148 -3 l22 -7 0 138 0 138 -125 0 -125 0 -1 -122z m68 60 c3 -27 1 -33 -15
-33 -20 0 -21 -5 -8 -122 2 -18 -2 -28 -11 -28 -10 0 -13 25 -13 111 0 108 0
110 22 107 16 -2 23 -11 25 -35z m81 30 c-10 -2 -28 -2 -40 0 -13 2 -5 4 17 4
22 1 32 -1 23 -4z m82 -103 c0 -91 -3 -110 -15 -110 -12 0 -15 14 -15 64 0 40
4 66 12 68 6 2 8 9 5 15 -4 7 -23 9 -49 6 -27 -4 -39 -3 -35 5 4 5 16 8 27 5
19 -5 24 4 23 45 -1 6 10 12 23 12 24 0 24 -1 24 -110z m-82 73 c-10 -2 -28
-2 -40 0 -13 2 -5 4 17 4 22 1 32 -1 23 -4z m-41 -29 c-3 -3 -12 -4 -19 -1 -8
3 -5 6 6 6 11 1 17 -2 13 -5z m51 -31 c-15 -2 -42 -2 -60 0 -18 2 -6 4 27 4
33 0 48 -2 33 -4z m20 -55 l3 -38 -47 0 c-26 0 -44 3 -41 7 4 3 23 6 42 5 32
-1 35 1 35 26 0 25 -3 27 -45 27 -44 0 -45 -1 -45 -33 0 -21 -4 -31 -10 -27
-9 5 -9 47 -1 73 1 2 25 2 54 0 l52 -3 3 -37z m-38 2 c0 -5 -9 -10 -20 -10
-11 0 -20 5 -20 10 0 6 9 10 20 10 11 0 20 -4 20 -10z m35 -60 c4 -6 -17 -9
-57 -8 l-63 1 50 7 c28 4 53 8 57 8 4 1 10 -2 13 -8z"/>
<path d="M1590 4821 c0 -34 -17 -41 -67 -30 l-33 7 0 -69 c0 -64 6 -80 24 -62
4 4 23 8 42 9 l34 1 0 -53 c0 -29 5 -56 10 -59 11 -7 12 1 10 66 l-1 45 55 -4
56 -4 -6 46 c-4 29 -2 51 5 60 14 17 -2 32 -21 20 -6 -4 -27 -8 -45 -9 -31 -1
-33 1 -33 32 0 23 -5 33 -15 33 -10 0 -15 -10 -15 -29z m0 -91 l0 -40 -40 0
-40 0 0 40 0 40 40 0 40 0 0 -40z m100 -1 l0 -40 -37 3 c-36 3 -38 4 -38 40 0
37 1 38 38 38 37 0 37 0 37 -41z"/>
<path d="M284 4805 c-14 -15 -23 -29 -20 -32 4 -4 12 -1 18 5 21 21 65 15 71
-9 6 -23 -31 -87 -72 -123 -28 -25 -15 -32 52 -28 43 3 56 8 60 21 4 16 -1 18
-42 14 -35 -3 -42 -2 -29 6 28 19 58 77 58 114 0 39 -2 41 -43 51 -22 5 -33 1
-53 -19z"/>
<path d="M449 4800 c-34 -34 -39 -89 -12 -145 28 -58 66 -56 99 6 18 36 18 83
-2 124 -21 46 -50 51 -85 15z m57 -27 c10 -53 8 -97 -6 -124 -12 -22 -13 -22
-26 -4 -8 10 -14 43 -14 73 0 87 33 125 46 55z"/>
<path d="M4693 4822 c-24 -2 -43 -8 -43 -13 0 -6 10 -9 23 -7 19 3 22 -1 20
-32 -4 -83 -15 -122 -49 -165 -38 -51 -29 -61 15 -16 26 27 43 63 54 116 3 15
9 8 27 -30 13 -27 25 -52 27 -55 4 -6 -52 -36 -84 -45 -13 -3 -23 -10 -23 -15
0 -13 45 -2 90 21 l40 21 36 -21 c36 -22 74 -28 74 -12 0 5 -12 12 -26 15 -14
4 -34 15 -45 25 -17 16 -18 19 -4 31 8 7 15 21 15 31 0 9 7 24 15 33 22 21 18
38 -7 34 -18 -2 -24 3 -26 20 -2 13 2 30 9 38 6 8 9 18 5 21 -7 8 -75 10 -143
5z m107 -46 c0 -31 -19 -45 -52 -39 -23 4 -28 11 -28 34 0 27 3 29 40 29 35 0
40 -3 40 -24z m40 -62 c0 -17 -43 -75 -53 -71 -11 3 -45 55 -46 70 -1 4 22 7
49 7 28 0 50 -3 50 -6z"/>
<path d="M6253 4778 c-19 -42 -25 -49 -38 -38 -8 6 -19 9 -25 5 -8 -5 -11 4
-8 30 2 23 -2 40 -9 42 -8 3 -13 -11 -15 -39 -2 -35 -6 -42 -22 -40 -11 2 -15
-1 -11 -7 3 -6 13 -11 21 -11 12 0 14 -11 12 -47 -2 -39 -7 -48 -25 -53 -16
-3 -20 -9 -14 -19 7 -11 19 -8 60 17 28 18 53 27 56 22 10 -16 128 -13 122 3
-4 12 -147 14 -167 2 -6 -4 -10 11 -10 34 0 34 3 41 20 41 11 0 20 -5 20 -12
0 -6 3 -8 7 -5 3 4 11 3 17 -2 13 -11 96 -2 96 10 0 15 -19 20 -38 8 -11 -7
-27 -9 -36 -6 -14 5 -15 11 -6 27 9 16 21 20 67 20 l56 0 -7 -70 c-3 -38 -11
-81 -18 -95 -10 -22 -16 -25 -42 -20 l-31 6 33 -21 c55 -34 69 -8 73 139 l2
75 -56 -3 c-45 -2 -57 1 -57 12 0 9 5 17 11 19 8 3 7 7 -2 15 -11 9 -19 1 -36
-39z"/>
<path d="M2383 4786 c-17 -20 -42 -53 -54 -73 -13 -20 -36 -51 -51 -69 -23
-26 -25 -33 -13 -38 23 -9 43 3 38 23 -6 24 24 53 51 49 26 -4 32 -31 11 -52
-15 -15 -14 -16 21 -16 28 0 34 3 26 13 -6 8 -6 38 0 87 13 110 10 119 -29 76z
m-5 -68 c-2 -11 -11 -22 -20 -24 -16 -2 -16 0 -1 22 19 30 25 30 21 2z"/>
<path d="M2505 4810 c-3 -4 -1 -10 5 -12 6 -2 4 -21 -5 -48 -8 -25 -17 -57
-20 -73 -3 -15 -14 -36 -25 -47 -11 -11 -19 -20 -17 -21 20 -8 109 -6 130 2
44 18 65 80 32 93 -13 5 -12 9 5 26 20 20 25 46 12 66 -9 14 -110 26 -117 14z
m91 -35 c9 -21 -14 -45 -42 -45 -27 0 -27 0 -14 34 11 29 47 36 56 11z m-22
-84 c15 -17 15 -19 -1 -39 -39 -46 -75 -25 -54 31 12 32 31 34 55 8z"/>
<path d="M2745 4813 c-16 -3 -45 -19 -62 -36 -29 -27 -33 -37 -33 -85 0 -44 4
-57 23 -73 30 -25 82 -24 119 2 39 28 27 37 -17 13 -32 -17 -38 -18 -63 -4
-34 19 -40 59 -17 111 29 63 107 78 121 23 8 -32 24 -21 24 17 0 22 -5 29 -19
29 -11 0 -25 2 -33 3 -7 2 -26 2 -43 0z"/>
<path d="M6510 4801 c0 -12 -6 -21 -15 -21 -8 0 -15 -4 -15 -10 0 -5 14 -10
31 -10 31 0 32 0 25 -41 -4 -23 -13 -48 -21 -56 -8 -8 -15 -20 -15 -27 0 -7
-9 -21 -20 -31 -21 -19 -26 -35 -11 -35 5 0 22 20 38 45 l28 46 85 -3 85 -3
-3 -30 c-2 -16 -9 -36 -17 -44 -17 -18 -45 -7 -45 17 0 20 -18 42 -34 42 -6 0
-5 -5 2 -12 7 -7 12 -18 12 -26 0 -14 48 -62 62 -62 15 0 38 46 38 77 0 17 5
35 10 38 17 11 -1 26 -22 19 -19 -6 -20 -3 -15 25 6 27 4 31 -14 31 -18 0 -20
4 -15 25 6 24 5 25 -44 25 -48 0 -50 1 -40 20 9 16 8 20 -5 20 -8 0 -20 -11
-25 -25 -5 -14 -12 -25 -16 -25 -3 0 -4 6 -1 14 3 8 -1 20 -9 26 -11 10 -14 9
-14 -9z m130 -57 c0 -10 -12 -14 -40 -14 -47 0 -57 26 -12 32 36 5 52 -1 52
-18z m30 -54 c0 -18 -7 -20 -64 -20 -59 0 -64 2 -59 20 5 17 14 20 64 20 52 0
59 -2 59 -20z"/>
<path d="M7247 4794 l17 -26 -61 3 c-34 2 -65 1 -69 -4 -4 -4 15 -7 43 -7 59
0 65 -7 52 -74 -11 -58 -38 -98 -80 -118 -18 -9 -26 -18 -20 -22 6 -4 19 -2
30 3 29 16 89 90 93 115 2 17 11 22 46 24 l42 3 0 -44 c0 -50 -15 -74 -49 -79
l-24 -3 27 -14 c43 -23 63 6 68 94 3 77 7 74 -65 62 -37 -6 -38 -5 -35 21 3
25 6 27 58 28 83 2 90 3 90 13 0 5 -9 11 -20 14 -11 3 -20 2 -20 -1 0 -4 -20
-8 -45 -10 -39 -2 -45 0 -45 17 0 10 -7 22 -16 25 -30 11 -34 6 -17 -20z"/>
<path d="M7560 4809 c-14 -6 -42 -8 -62 -5 -23 4 -38 2 -38 -4 0 -5 9 -10 20
-10 17 0 20 -7 20 -40 0 -36 -2 -40 -25 -40 -14 0 -25 -4 -25 -10 0 -5 11 -10
25 -10 14 0 25 -5 25 -11 0 -19 -23 -93 -32 -103 -4 -6 -8 -17 -8 -25 0 -11 3
-11 19 3 10 9 24 44 31 76 10 47 17 60 31 60 17 0 19 -8 19 -75 0 -43 4 -75
10 -75 6 0 10 32 10 75 0 69 2 75 21 75 16 0 19 4 14 20 -4 14 -1 22 12 28 34
14 93 57 90 66 -7 22 -27 13 -80 -38 l-57 -54 0 35 c0 27 5 36 20 40 16 4 18
8 9 19 -13 16 -15 16 -49 3z m-5 -64 c0 -29 -4 -40 -15 -40 -11 0 -16 13 -18
43 -3 38 -1 43 15 40 14 -2 18 -13 18 -43z"/>
<path d="M2888 4803 c14 -5 17 -59 3 -67 -5 -3 -14 -29 -21 -57 -7 -28 -19
-53 -26 -56 -31 -12 -10 -23 44 -23 68 0 117 23 150 70 29 43 28 81 -3 114
-22 23 -31 26 -92 25 -37 0 -62 -3 -55 -6z m125 -43 c6 -15 5 -41 -2 -66 -8
-31 -19 -44 -46 -57 -74 -35 -82 -23 -48 77 25 76 26 77 57 74 22 -2 33 -10
39 -28z"/>
<path d="M3688 4780 c-47 -39 -60 -101 -32 -149 17 -28 23 -31 69 -31 50 1 85
17 85 39 0 8 -7 7 -22 -3 -36 -25 -85 -21 -104 9 -15 23 -15 31 -3 67 18 57
45 80 89 76 28 -2 36 -8 38 -25 4 -24 22 -32 22 -10 0 6 3 22 6 35 6 21 4 22
-53 22 -50 0 -63 -4 -95 -30z"/>
<path d="M3880 4802 c0 -6 5 -12 11 -14 15 -5 -21 -148 -43 -170 -17 -17 -15
-18 53 -18 64 0 75 3 110 31 36 29 39 34 39 83 0 70 -18 87 -105 93 -42 4 -65
2 -65 -5z m118 -28 c29 -20 29 -71 -1 -115 -19 -29 -29 -34 -66 -37 -39 -3
-43 -1 -36 15 4 10 9 27 12 38 27 114 44 132 91 99z"/>
<path d="M4105 4800 c-3 -5 -1 -10 4 -10 6 0 11 -10 11 -22 0 -32 -33 -132
-49 -152 -12 -15 -6 -16 66 -16 76 0 80 1 92 26 16 36 6 42 -22 16 -15 -14
-36 -22 -59 -22 l-35 0 10 40 c12 44 28 51 50 21 12 -19 14 -17 24 20 11 43 9
47 -13 24 -17 -16 -44 -20 -44 -7 0 5 7 23 16 40 19 39 62 45 71 11 4 -16 8
-17 14 -7 5 7 9 21 9 31 0 15 -10 17 -69 17 -39 0 -73 -4 -76 -10z"/>
<path d="M4290 4801 c0 -5 6 -11 13 -14 9 -3 9 -13 -1 -48 -7 -24 -17 -60 -22
-79 -5 -19 -17 -40 -26 -47 -15 -11 -12 -13 27 -13 30 0 39 3 30 9 -12 8 -12
14 -1 43 19 48 26 52 49 29 l21 -21 8 33 c11 41 5 53 -17 33 -19 -17 -41 -21
-41 -7 0 4 5 22 11 40 9 25 16 31 39 31 18 0 35 -8 44 -22 14 -19 16 -19 22
-5 14 38 -2 47 -81 47 -41 0 -75 -4 -75 -9z"/>
<path d="M6917 4803 c-73 -2 -115 -7 -112 -13 3 -6 33 -10 66 -10 l59 0 0
-100 0 -100 -36 0 -35 0 3 61 c1 33 6 63 10 65 15 10 8 24 -12 24 -18 0 -20
-7 -20 -75 0 -73 -1 -75 -25 -75 -14 0 -25 -4 -25 -9 0 -4 62 -8 138 -7 84 1
137 5 137 11 0 6 -23 9 -57 6 l-58 -3 0 51 0 51 50 0 c51 0 61 8 36 29 -10 8
-16 9 -21 1 -3 -5 -19 -10 -36 -10 -27 0 -29 2 -29 40 l0 40 60 0 c49 0 58 3
54 15 -4 8 -11 14 -18 13 -6 -1 -64 -4 -129 -5z"/>
<path d="M8904 4744 l-42 -64 39 3 c56 5 62 -3 43 -48 -16 -38 -32 -57 -71
-82 -17 -11 -17 -12 3 -12 28 -1 90 67 99 108 6 27 11 31 41 31 l35 0 -3 -57
-3 -58 -35 2 -35 3 32 -17 c47 -24 60 -13 68 54 10 86 14 96 31 82 11 -9 18
-9 26 -1 8 8 6 13 -8 18 -27 10 -74 65 -72 83 2 11 -6 17 -24 19 -16 2 -28 -1
-28 -7 0 -6 6 -11 13 -11 12 0 57 -62 57 -80 0 -6 -33 -10 -81 -10 -44 0 -79
3 -77 8 24 48 32 62 40 62 4 0 8 9 8 20 0 33 -13 22 -56 -46z"/>
<path d="M9210 4753 c0 -50 13 -77 23 -51 3 7 6 -4 6 -25 1 -40 -22 -107 -42
-119 -6 -4 -8 -10 -4 -14 13 -14 52 39 71 99 6 18 41 23 51 7 3 -5 1 -28 -5
-51 -10 -37 -13 -40 -38 -35 l-27 6 23 -19 c13 -11 29 -18 36 -15 16 6 36 69
36 111 0 28 -2 30 -37 29 -28 -1 -38 3 -38 14 0 10 12 16 38 18 l37 3 0 47 0
47 -65 0 -65 0 0 -52z m108 -4 c-2 -20 -10 -24 -45 -27 -42 -3 -43 -2 -43 27
0 27 3 30 38 33 45 4 55 -3 50 -33z"/>
<path d="M9439 4793 c-3 -34 -5 -88 -7 -160 -2 -72 -2 -73 -29 -73 l-28 0 29
-15 c15 -8 32 -12 37 -9 5 3 9 59 9 124 0 68 4 121 10 125 15 9 12 25 -5 25
-8 0 -16 -8 -16 -17z"/>
<path d="M9565 4797 c-18 -9 -20 -18 -16 -88 3 -76 2 -79 -19 -79 -19 0 -20
-2 -10 -15 10 -12 28 -14 80 -11 49 3 73 1 86 -10 29 -22 94 -64 99 -64 3 0 5
5 5 11 0 18 -43 48 -70 49 -23 1 -23 2 -5 9 11 5 34 6 51 4 37 -6 58 15 25 24
-23 6 -23 13 -5 130 5 31 -9 53 -21 33 -3 -5 -17 -7 -31 -4 -14 4 -24 2 -24
-5 0 -6 11 -11 25 -11 18 0 25 -5 25 -20 0 -15 -7 -20 -26 -20 -15 0 -23 -4
-19 -10 4 -6 14 -9 23 -8 11 2 18 -5 20 -21 3 -21 1 -23 -23 -17 -17 4 -24 3
-20 -4 3 -5 13 -10 21 -10 8 0 14 -9 14 -20 0 -16 -7 -20 -30 -20 l-30 0 7 61
c6 59 5 61 -17 57 -13 -1 -25 3 -27 10 -3 7 5 12 21 12 35 0 33 20 -1 21 -16
0 -22 3 -15 6 15 6 6 23 -14 23 -11 0 -14 -15 -14 -64 0 -60 -11 -89 -24 -67
-3 5 -15 7 -26 4 -15 -4 -20 0 -20 15 0 16 6 20 26 19 15 -1 29 4 32 11 3 10
-4 13 -24 10 -42 -5 -46 28 -5 37 34 7 40 19 15 29 -9 3 -16 5 -17 5 -1 -1
-11 -6 -22 -12z m115 -108 c0 -23 -5 -32 -21 -36 -12 -3 -18 -11 -15 -19 3 -8
2 -14 -3 -14 -17 0 -19 13 -5 46 8 19 12 39 9 44 -4 6 3 10 14 10 17 0 21 -6
21 -31z m-67 -50 c-7 -25 -46 -22 -51 4 -3 13 3 17 26 17 25 0 29 -3 25 -21z"/>
<path d="M12175 4786 l6 -28 -61 4 c-33 2 -60 0 -60 -4 0 -4 20 -8 45 -8 l45
0 -45 -44 c-49 -48 -55 -59 -27 -49 21 8 82 67 82 80 0 6 16 10 35 11 22 1 33
-2 29 -9 -6 -10 62 -78 79 -79 21 -1 2 33 -28 51 -44 26 -44 37 -1 34 43 -2
66 9 49 26 -8 8 -16 8 -31 0 -36 -19 -75 -13 -100 17 l-23 27 6 -29z"/>
<path d="M5172 4788 c15 -12 14 -21 -9 -98 -14 -47 -30 -88 -36 -93 -7 -4 26
-6 73 -5 l84 3 7 33 7 34 -27 -26 c-36 -35 -91 -37 -91 -3 0 33 22 59 43 51 9
-3 17 -11 17 -18 0 -22 20 20 20 43 0 23 -1 23 -18 8 -22 -20 -43 -22 -38 -4
3 6 7 24 10 40 5 22 12 27 36 27 18 0 34 -8 43 -20 14 -21 15 -21 19 4 3 14 3
28 0 31 -3 3 -39 5 -81 5 -62 0 -72 -2 -59 -12z"/>
<path d="M5367 4789 c8 -8 8 -21 2 -43 -27 -86 -43 -132 -52 -143 -7 -10 -1
-13 25 -13 33 0 34 1 30 35 -2 19 1 42 8 50 16 20 49 19 57 -1 5 -13 7 -13 14
-2 12 18 11 58 -1 58 -5 0 -10 -4 -10 -9 0 -5 -9 -11 -20 -14 -16 -4 -20 0
-20 18 0 44 10 55 51 55 28 0 39 -4 39 -15 0 -8 5 -15 10 -15 6 0 10 11 10 25
0 25 -2 25 -77 25 -56 0 -74 -3 -66 -11z"/>
<path d="M5573 4784 c-34 -15 -60 -52 -63 -94 -6 -71 20 -100 90 -100 55 0 80
18 80 56 0 14 7 27 15 30 29 12 14 24 -27 24 -37 -1 -41 -2 -27 -13 15 -11 15
-17 4 -43 -16 -38 -37 -47 -70 -32 -48 22 -45 101 5 149 16 16 35 29 42 29 31
0 57 -13 66 -33 8 -17 11 -18 11 -5 1 9 4 23 7 32 5 13 -3 16 -47 15 -30 0
-68 -7 -86 -15z"/>
<path d="M5775 4787 c12 -29 -32 -172 -56 -188 -9 -6 1 -9 30 -9 35 0 41 3 33
13 -8 10 -8 23 0 50 11 35 14 37 54 37 l43 0 -15 -42 c-8 -23 -20 -46 -27 -50
-7 -4 7 -8 32 -8 34 0 41 3 33 13 -14 16 20 152 45 179 15 17 14 18 -28 17
-24 0 -38 -3 -31 -6 15 -6 16 -37 2 -64 -14 -25 -96 -29 -86 -3 3 9 6 22 6 29
0 8 7 21 16 29 14 15 12 16 -20 16 -24 0 -34 -4 -31 -13z"/>
<path d="M10680 4792 c-20 -7 -9 -22 16 -22 25 0 25 -1 21 -59 -3 -33 -9 -66
-13 -73 -5 -7 -9 -18 -10 -25 -1 -6 -14 -28 -29 -47 -15 -20 -23 -36 -18 -36
17 0 61 55 73 93 6 20 15 37 20 37 14 0 52 -59 45 -70 -4 -6 -27 -21 -53 -35
-28 -14 -39 -24 -28 -25 10 0 40 11 66 24 l48 24 37 -25 c26 -18 44 -23 62
-18 24 6 21 8 -33 35 -32 16 -53 29 -46 29 6 1 12 6 12 12 0 18 46 79 55 71 4
-4 6 0 3 8 -2 8 -19 16 -37 18 -30 3 -32 6 -26 30 15 55 16 54 -73 56 -45 0
-87 0 -92 -2z m141 -49 c-6 -23 -14 -29 -44 -31 -35 -3 -37 -2 -37 27 0 30 2
31 44 31 43 0 44 -1 37 -27z m39 -62 c0 -6 -10 -26 -21 -46 l-22 -37 -23 29
c-42 52 -39 63 17 63 27 0 49 -4 49 -9z"/>
<path d="M11770 4770 c0 -25 -4 -30 -25 -30 -14 0 -25 -4 -25 -10 0 -5 9 -10
21 -10 23 0 21 -17 -12 -82 -24 -46 -7 -51 18 -5 l18 32 3 -72 c2 -40 7 -73
12 -73 5 0 11 37 13 83 2 57 6 75 11 60 5 -13 12 -23 17 -23 16 0 9 26 -11 45
-26 24 -25 35 4 35 29 0 34 -23 30 -127 -2 -67 5 -89 21 -63 9 14 82 13 87 -2
2 -6 9 -9 15 -5 6 4 10 52 10 119 1 62 2 119 4 127 3 11 -11 14 -66 13 -59 0
-71 -3 -75 -19 -3 -10 -16 -19 -29 -21 -21 -2 -23 1 -18 28 5 22 3 30 -8 30
-10 0 -15 -10 -15 -30z m180 -30 c0 -28 -2 -30 -40 -30 -38 0 -40 2 -40 30 0
28 2 30 40 30 38 0 40 -2 40 -30z m0 -70 c0 -28 -2 -30 -40 -30 -38 0 -40 2
-40 30 0 28 2 30 40 30 38 0 40 -2 40 -30z m0 -80 c0 -28 -2 -30 -40 -30 -38
0 -40 2 -40 30 0 28 2 30 40 30 38 0 40 -2 40 -30z"/>
<path d="M12424 4775 c5 -20 3 -25 -14 -25 -11 0 -20 -4 -20 -10 0 -5 5 -10
10 -10 16 0 12 -142 -5 -164 -8 -11 -15 -22 -15 -25 0 -9 89 -11 94 -3 2 4 6
30 7 57 3 34 10 54 23 64 10 7 31 34 47 59 l29 45 16 -38 c20 -49 42 -71 56
-57 7 7 0 23 -24 54 -19 24 -38 51 -41 61 -11 29 -21 20 -51 -46 -16 -34 -31
-56 -34 -49 -3 9 -14 11 -38 6 -27 -5 -34 -3 -34 10 0 20 31 36 58 29 16 -4
22 -1 22 12 0 13 -6 16 -24 13 -18 -4 -28 1 -37 19 -16 31 -33 30 -25 -2z m41
-142 c-2 -27 -3 -56 -4 -65 -1 -12 -9 -18 -27 -18 -23 0 -25 3 -19 23 4 12 10
41 12 65 4 32 9 42 23 42 14 0 17 -8 15 -47z"/>
<path d="M13373 4792 c-46 -2 -83 -7 -83 -12 0 -6 12 -10 26 -10 25 0 26 -2
21 -52 -6 -75 -12 -92 -47 -143 -21 -30 -26 -45 -17 -45 27 0 77 84 77 129 0
12 3 21 8 21 7 -1 55 -91 50 -95 -34 -23 -79 -45 -92 -45 -9 0 -16 -4 -16 -9
0 -13 82 8 103 27 17 15 20 15 50 -1 37 -20 81 -26 85 -12 1 6 -13 14 -30 18
-57 15 -61 26 -23 82 19 28 35 53 35 58 0 4 -13 7 -30 7 -25 0 -30 4 -30 24 0
14 5 28 10 31 14 9 13 22 -2 26 -7 2 -50 3 -95 1z m63 -44 c-3 -13 -5 -26 -5
-30 -1 -5 -17 -8 -36 -8 -32 0 -35 2 -35 30 0 28 2 30 40 30 36 0 39 -2 36
-22z m44 -64 c0 -13 -42 -74 -51 -74 -9 0 -49 59 -49 73 0 4 23 7 50 7 28 0
50 -3 50 -6z"/>
<path d="M8385 4763 c-14 -15 -25 -33 -25 -40 0 -7 -6 -16 -13 -20 -7 -4 -28
-29 -46 -55 -17 -27 -36 -48 -41 -48 -6 0 -10 -5 -10 -11 0 -6 12 -9 28 -7 16
2 27 9 27 18 0 25 19 47 48 54 22 5 27 3 27 -12 0 -9 -7 -28 -16 -40 -15 -22
-15 -22 27 -22 36 0 40 2 29 15 -9 11 -10 40 -6 105 4 49 5 90 2 90 -3 0 -17
-12 -31 -27z m1 -78 c-6 -16 -36 -21 -36 -6 0 5 8 17 17 27 18 18 30 6 19 -21z"/>
<path d="M8519 4767 c-45 -30 -61 -63 -54 -112 7 -49 37 -74 88 -75 51 0 77
15 77 45 0 14 9 34 19 44 19 19 19 19 -9 23 -15 2 -36 1 -45 -2 -16 -6 -17 -7
-2 -13 21 -8 9 -55 -20 -74 -18 -12 -24 -11 -48 10 -33 28 -36 63 -9 112 23
43 65 62 99 47 14 -7 25 -20 25 -29 0 -15 2 -16 10 -3 5 8 10 23 10 33 0 28
-97 24 -141 -6z"/>
<path d="M9370 4695 c0 -124 25 -111 29 14 1 30 4 58 7 63 3 4 -4 8 -15 8 -20
0 -21 -6 -21 -85z"/>
<path d="M10102 4766 c-59 -32 -83 -135 -42 -176 27 -27 96 -27 129 1 13 11
21 22 17 26 -3 3 -14 -1 -24 -10 -10 -10 -33 -17 -50 -17 -65 0 -74 106 -13
159 40 35 91 23 91 -21 0 -10 5 -18 10 -18 6 0 10 9 10 19 0 11 3 26 6 35 5
14 -3 16 -52 16 -33 -1 -69 -6 -82 -14z"/>
<path d="M10289 4771 c12 -8 11 -19 -7 -75 -12 -37 -22 -73 -22 -82 0 -8 -7
-17 -15 -20 -34 -14 -11 -24 53 -24 100 0 151 41 152 121 0 70 -15 83 -101 87
-50 2 -69 0 -60 -7z m117 -28 c39 -52 -16 -153 -83 -153 -37 0 -37 0 -21 49
36 114 40 121 66 121 14 0 31 -8 38 -17z"/>
<path d="M11207 4769 c8 -8 4 -33 -14 -92 -14 -45 -30 -88 -35 -94 -8 -10 7
-13 69 -13 75 0 80 2 93 25 18 33 5 44 -20 17 -14 -15 -33 -22 -56 -22 -35 0
-35 1 -29 33 4 17 9 35 12 40 8 13 32 7 42 -10 8 -15 11 -12 19 17 11 43 8 48
-18 25 -26 -23 -31 -18 -23 29 6 35 7 37 37 30 17 -3 33 -10 34 -15 7 -19 22
-8 22 16 0 24 -2 25 -72 25 -52 0 -69 -3 -61 -11z"/>
<path d="M11390 4765 c15 -18 -22 -165 -46 -182 -15 -11 -12 -13 27 -12 24 0
38 3 32 6 -16 6 -16 25 -1 58 13 30 58 36 59 8 0 -10 7 0 15 21 17 46 12 56
-15 32 -11 -10 -26 -16 -34 -14 -13 3 -13 8 0 41 11 28 21 37 38 37 35 0 55
-10 55 -29 1 -14 2 -14 11 2 21 36 5 46 -75 44 -48 -1 -71 -6 -66 -12z"/>
<path d="M12953 4771 c-5 -3 -9 -25 -11 -48 -2 -45 -36 -133 -55 -145 -7 -4 8
-8 33 -8 31 0 41 3 33 11 -7 7 -8 21 0 45 9 29 15 34 41 34 47 0 76 25 76 65
0 28 -4 36 -22 39 -45 9 -88 12 -95 7z m75 -23 c17 -17 15 -31 -8 -56 -30 -32
-54 -29 -45 5 3 15 7 32 8 38 2 10 18 25 28 25 3 0 10 -5 17 -12z"/>
<path d="M13864 4761 c-72 -44 -103 -144 -56 -181 l23 -19 -27 -24 -26 -24 65
-7 c68 -8 93 -1 117 31 12 15 12 16 0 6 -19 -17 -123 -17 -118 -1 3 7 22 18
44 24 74 20 124 135 83 189 -25 30 -61 33 -105 6z m86 -53 c0 -37 -34 -104
-60 -118 -28 -15 -59 -3 -66 25 -9 37 25 115 60 136 28 17 32 17 48 2 10 -9
18 -29 18 -45z"/>
<path d="M1913 4733 c-4 -9 -1 -19 5 -21 8 -2 8 -8 0 -22 -15 -24 -4 -37 17
-20 20 17 20 80 0 80 -9 0 -19 -8 -22 -17z"/>
<path d="M7676 4716 c-16 -19 -40 -39 -54 -46 -34 -15 -22 -23 14 -10 34 13
95 70 88 82 -9 14 -18 9 -48 -26z"/>
<path d="M3260 4723 c0 -5 12 -19 26 -32 30 -29 54 -16 32 18 -12 19 -58 30
-58 14z"/>
<path d="M7905 4710 c-9 -29 4 -60 25 -60 24 0 43 34 35 60 -9 27 -52 27 -60
0z m45 -14 c0 -15 -24 -28 -34 -19 -13 14 -5 33 14 33 11 0 20 -6 20 -14z"/>
<path d="M12230 4687 c0 -8 -9 -25 -20 -38 -21 -26 -25 -24 -56 27 -6 11 -13
14 -17 7 -3 -5 5 -25 18 -43 22 -29 23 -36 11 -49 -15 -16 -65 -44 -100 -55
-10 -4 -16 -9 -13 -12 7 -7 107 25 107 34 0 4 9 13 20 20 17 10 23 9 38 -5 22
-22 67 -43 92 -43 33 0 23 14 -24 33 -78 32 -81 37 -52 79 21 31 22 39 10 49
-11 9 -14 8 -14 -4z"/>
<path d="M14297 4693 c-12 -3 -17 -12 -15 -26 4 -27 55 -37 64 -13 6 16 -12
47 -25 45 -3 -1 -14 -3 -24 -6z m43 -28 c0 -9 -9 -15 -25 -15 -16 0 -25 6 -25
15 0 9 9 15 25 15 16 0 25 -6 25 -15z"/>
<path d="M12550 4680 c0 -12 50 -59 63 -60 13 0 7 23 -10 37 -34 26 -53 34
-53 23z"/>
<path d="M7684 4630 c-16 -21 -44 -47 -61 -57 -46 -25 -41 -38 5 -14 37 19 62
40 95 80 20 25 21 31 4 31 -7 0 -26 -18 -43 -40z"/>
<path d="M590 4629 c0 -24 23 -21 28 4 2 10 -3 17 -12 17 -10 0 -16 -9 -16
-21z"/>
<path d="M6650 4643 c1 -14 30 -47 36 -41 6 7 -17 48 -28 48 -5 0 -8 -3 -8 -7z"/>
<path d="M6570 4606 c0 -20 5 -36 10 -36 6 0 10 13 10 29 0 17 -4 33 -10 36
-6 4 -10 -8 -10 -29z"/>
<path d="M6519 4603 c-7 -16 -15 -31 -17 -36 -2 -4 3 -5 11 -1 12 4 37 44 37
59 0 15 -19 1 -31 -22z"/>
<path d="M9567 4571 c-27 -16 -44 -32 -38 -35 13 -9 112 36 108 48 -6 18 -22
15 -70 -13z"/>
<path d="M12566 4565 c40 -38 54 -43 54 -21 0 15 -58 56 -79 56 -7 0 4 -16 25
-35z"/>
<path d="M1260 4434 c0 -25 -1 -26 -60 -22 -39 2 -60 -1 -60 -8 0 -7 21 -9 60
-7 l60 4 0 -95 0 -96 -27 0 -28 -1 28 -15 c15 -8 32 -12 37 -9 6 3 10 31 10
61 l0 55 43 -45 c26 -28 52 -46 65 -46 34 0 26 13 -22 39 -56 31 -74 57 -45
66 20 7 59 40 59 50 0 13 -25 3 -53 -21 l-31 -26 -8 23 c-17 44 -7 54 52 54
30 0 55 5 55 10 0 6 -10 9 -22 8 -16 -1 -23 4 -23 17 0 10 -6 20 -14 23 -22 9
-28 -5 -9 -25 15 -17 14 -18 -16 -18 -29 0 -31 2 -25 25 5 19 2 25 -10 25 -11
0 -16 -9 -16 -26z"/>
<path d="M1814 4448 c3 -7 9 -21 12 -30 4 -10 10 -18 13 -18 15 0 20 13 11 30
-11 21 -45 37 -36 18z"/>
<path d="M1935 4450 c-4 -6 -15 -8 -26 -5 -17 6 -19 1 -20 -42 -1 -58 -8 -78
-31 -79 -21 -2 -23 9 -6 36 16 26 10 30 -32 20 -31 -7 -33 -9 -13 -15 18 -6
21 -11 13 -25 -14 -26 -12 -40 5 -40 23 0 18 -35 -10 -68 -17 -21 -22 -33 -14
-38 6 -3 15 0 20 7 7 12 12 12 29 1 28 -17 210 -29 210 -14 0 7 -9 12 -21 12
-16 0 -19 4 -14 18 4 9 10 25 12 35 3 9 9 17 14 17 5 0 9 6 9 14 0 11 -9 13
-35 9 -22 -4 -41 -1 -52 8 -13 11 -17 11 -20 2 -3 -7 -20 -13 -39 -13 -19 0
-34 -4 -34 -10 0 -5 12 -10 28 -10 l27 0 -30 -28 c-23 -22 -34 -27 -46 -19
-15 9 -15 14 -2 46 16 38 29 51 53 51 13 0 13 -1 0 -10 -13 -8 -13 -10 2 -10
9 0 20 5 23 10 3 6 15 10 26 10 10 0 19 -4 19 -10 0 -5 15 -10 33 -9 31 1 31
1 7 10 l-25 8 25 -1 c41 -1 50 1 50 12 0 6 -7 10 -16 10 -13 0 -15 10 -12 53
2 42 0 51 -12 48 -8 -2 -30 -6 -48 -9 -26 -3 -31 -1 -26 12 7 18 -11 22 -21 6z
m78 -37 c-7 -2 -19 -2 -25 0 -7 3 -2 5 12 5 14 0 19 -2 13 -5z m-3 -17 c8 -2
-9 -4 -37 -5 -29 0 -53 3 -53 7 0 7 52 6 90 -2z m-17 -23 c-13 -2 -35 -2 -50
0 -16 2 -5 4 22 4 28 0 40 -2 28 -4z m-50 -30 c-7 -2 -19 -2 -25 0 -7 3 -2 5
12 5 14 0 19 -2 13 -5z m70 0 c-7 -2 -19 -2 -25 0 -7 3 -2 5 12 5 14 0 19 -2
13 -5z m-15 -80 c-10 -2 -26 -2 -35 0 -10 3 -2 5 17 5 19 0 27 -2 18 -5z m12
-23 c0 -5 -15 -10 -32 -10 l-33 -1 25 -14 c24 -14 23 -14 -30 -14 -46 0 -52 1
-35 11 11 6 24 17 28 25 9 15 77 18 77 3z"/>
<path d="M1480 4326 c0 -113 2 -127 16 -122 9 3 64 6 122 6 l107 0 -1 113 c-1
136 -1 134 -16 119 -16 -16 -200 -16 -216 0 -9 9 -12 -16 -12 -116z m138 38
c4 -88 8 -94 52 -94 33 0 40 -3 40 -20 0 -19 -7 -20 -105 -20 l-105 0 0 90 c0
89 0 90 25 90 23 0 25 -4 25 -44 0 -29 -7 -52 -21 -70 -21 -27 -23 -41 -3 -28
25 17 44 60 44 98 0 40 11 56 35 50 6 -1 11 -25 13 -52z m83 22 c1 -11 3 -41
5 -66 2 -25 0 -40 -4 -34 -4 6 -18 11 -32 10 -23 -1 -25 3 -28 48 -4 64 1 75
32 69 18 -4 26 -12 27 -27z"/>
<path d="M2188 4443 c-32 -2 -58 -8 -58 -13 0 -6 7 -10 15 -10 11 0 15 -11 15
-40 0 -33 -3 -40 -20 -40 -11 0 -20 -4 -20 -10 0 -5 9 -10 20 -10 16 0 20 -7
20 -35 0 -19 -9 -49 -20 -67 -27 -45 -25 -56 4 -29 18 17 27 39 32 77 5 44 10
54 25 54 17 0 19 -8 19 -75 0 -43 4 -75 10 -75 6 0 10 32 10 75 0 74 0 75 26
75 16 0 24 5 21 13 -2 6 -14 12 -26 11 -22 -1 -26 13 -15 54 4 13 14 22 26 22
17 0 18 3 8 15 -7 8 -18 14 -24 13 -6 -1 -37 -3 -68 -5z m32 -64 c0 -33 -3
-40 -17 -37 -10 2 -17 7 -15 11 1 4 2 21 2 37 0 20 5 30 15 30 11 0 15 -11 15
-41z"/>
<path d="M2310 4404 c-42 -43 -43 -45 -15 -33 32 14 85 58 85 71 0 20 -28 4
-70 -38z"/>
<path d="M3736 4437 c-19 -66 -31 -97 -37 -97 -5 0 -6 14 -2 30 4 23 2 30 -11
30 -9 0 -16 -4 -16 -10 0 -5 -7 -10 -15 -10 -19 0 -19 14 0 33 15 16 10 27
-11 27 -8 0 -17 -12 -20 -26 -4 -16 -12 -23 -20 -20 -11 4 -14 -15 -14 -99 0
-63 4 -105 10 -105 6 0 10 5 10 10 0 6 11 10 24 10 14 0 28 -4 31 -10 15 -25
25 -5 25 50 0 37 5 62 13 67 7 4 18 20 24 36 11 24 18 27 59 27 l47 0 -6 -77
c-7 -103 -13 -116 -46 -108 l-26 6 21 -21 c22 -23 48 -19 59 8 10 24 32 201
27 207 -3 3 -29 5 -59 5 -29 0 -53 5 -53 10 0 6 5 10 10 10 16 0 12 17 -5 24
-9 3 -17 0 -19 -7z m-66 -98 c0 -27 -3 -30 -27 -27 -22 2 -29 9 -31 31 -3 24
0 27 27 27 28 0 31 -3 31 -31z m-2 -76 c3 -31 1 -33 -27 -33 -27 0 -31 3 -31
28 0 35 8 44 35 40 15 -2 21 -12 23 -35z"/>
<path d="M4326 4434 c-11 -8 -31 -15 -45 -15 -24 -2 -24 -2 -3 -6 32 -6 30
-43 -3 -43 -14 0 -25 -4 -25 -10 0 -5 9 -10 20 -10 17 0 19 -4 14 -27 -4 -16
-13 -38 -20 -50 -23 -37 -15 -50 12 -18 l25 30 -2 -59 c-2 -39 1 -61 9 -64 9
-3 12 18 12 74 0 61 3 75 12 66 22 -22 32 -12 10 11 -27 29 -28 37 -2 37 11 0
20 -3 20 -7 0 -5 32 -7 71 -6 40 2 68 -1 65 -6 -4 -5 -31 -8 -61 -8 -64 2 -67
-2 -61 -80 3 -44 1 -53 -15 -58 -19 -6 -27 -25 -10 -25 13 0 85 42 89 52 2 4
16 8 30 8 22 0 24 -2 12 -11 -11 -8 -12 -12 -2 -16 7 -2 19 -11 26 -19 8 -8
19 -14 25 -14 17 0 13 19 -7 31 -15 9 -17 20 -12 71 4 42 11 63 23 70 29 16 8
30 -34 23 -25 -4 -39 -3 -39 4 0 6 14 11 31 11 24 0 30 4 25 15 -3 8 -1 15 4
15 6 0 10 5 10 11 0 7 -11 8 -29 4 -22 -5 -32 -2 -40 12 -8 14 -12 16 -22 6
-18 -18 -76 -16 -86 1 -7 13 -11 13 -27 0z m79 -67 c15 3 25 1 25 -6 0 -16
-55 -14 -70 3 -6 8 -18 12 -26 9 -9 -3 -14 2 -14 15 0 32 33 33 47 1 10 -21
17 -25 38 -22z m16 24 c-8 -5 -20 -7 -28 -4 -21 8 -15 13 15 13 20 0 23 -3 13
-9z m79 5 c0 -9 -40 -13 -46 -5 -3 5 6 9 20 9 14 0 26 -2 26 -4z m-10 -96 c0
-7 -16 -9 -41 -6 -58 6 -61 16 -6 16 26 0 47 -5 47 -10z m0 -30 c0 -5 -20 -10
-45 -10 -25 0 -45 5 -45 10 0 6 20 10 45 10 25 0 45 -4 45 -10z m0 -32 c0 -4
-20 -8 -45 -8 -25 0 -45 4 -45 8 0 5 20 9 45 8 25 0 45 -4 45 -8z"/>
<path d="M4163 4429 c-7 -7 -52 -10 -127 -7 -64 1 -116 0 -116 -4 0 -5 27 -8
61 -8 52 0 60 -2 55 -16 -3 -9 -6 -18 -6 -20 0 -2 -20 -4 -45 -4 l-45 0 0 -99
c0 -91 10 -132 23 -98 7 18 178 17 199 -1 8 -6 18 -9 21 -5 4 3 7 51 7 105 l0
98 -70 0 c-38 0 -70 4 -70 8 0 22 29 32 93 32 61 0 68 2 57 15 -15 18 -22 19
-37 4z m-163 -155 c0 -65 -2 -75 -17 -72 -9 2 -16 6 -15 11 1 4 2 36 2 72 0
51 3 65 15 65 12 0 15 -15 15 -76z m88 59 c-2 -11 -14 -19 -31 -21 -22 -3 -27
1 -27 17 0 17 6 21 31 21 24 0 30 -4 27 -17z m73 -5 c2 -36 -3 -122 -7 -130
-2 -3 -13 -4 -24 -1 -17 5 -20 14 -20 72 0 73 3 81 32 81 12 0 18 -8 19 -22z
m-71 -48 c0 -16 -7 -20 -30 -20 -23 0 -30 4 -30 20 0 16 7 20 30 20 23 0 30
-4 30 -20z m0 -60 c0 -16 -7 -20 -35 -20 -38 0 -38 0 -29 24 4 10 18 16 35 16
22 0 29 -5 29 -20z"/>
<path d="M4696 4409 c-3 -17 -6 -48 -6 -68 0 -60 -10 -81 -36 -81 -15 0 -24 6
-24 15 0 9 9 15 25 15 14 0 25 5 25 10 0 6 -12 10 -26 10 -33 0 -30 33 4 38
12 2 22 8 22 14 0 6 -10 8 -25 4 -20 -5 -25 -3 -25 13 0 12 9 21 26 25 18 5
24 10 17 17 -6 6 -22 7 -37 3 -25 -6 -26 -8 -26 -85 0 -64 -3 -79 -15 -79 -8
0 -15 -4 -15 -10 0 -6 57 -10 150 -10 93 0 150 4 150 10 0 6 -9 10 -21 10 -19
0 -20 4 -14 58 3 31 8 67 11 80 4 20 1 22 -36 22 -25 0 -39 -4 -35 -10 3 -5
15 -10 26 -10 13 0 19 -7 19 -21 0 -17 -5 -20 -25 -17 -14 3 -25 1 -25 -3 0
-5 8 -9 19 -9 10 0 21 -9 24 -20 4 -16 0 -20 -19 -20 -13 0 -24 -4 -24 -10 0
-5 9 -10 20 -10 11 0 20 -7 20 -15 0 -11 -11 -15 -37 -15 -29 0 -34 3 -25 12
7 7 12 31 12 55 0 39 -2 43 -25 43 -14 0 -25 5 -25 10 0 6 11 10 25 10 14 0
25 5 25 11 0 5 -10 9 -22 7 -17 -2 -22 1 -20 15 5 31 -25 18 -32 -14z m52 -92
c3 -22 -1 -30 -17 -34 -12 -3 -21 -9 -21 -14 0 -5 -4 -9 -9 -9 -6 0 -3 16 5
35 8 20 12 41 8 46 -4 7 1 9 12 7 12 -2 20 -13 22 -31z"/>
<path d="M5280 4436 c0 -13 24 -56 32 -56 16 0 8 35 -12 48 -11 7 -20 10 -20
8z"/>
<path d="M5405 4430 c-3 -5 -15 -10 -26 -10 -16 0 -19 -7 -19 -47 0 -56 -10
-76 -33 -67 -13 5 -14 10 -6 26 15 27 0 39 -36 30 -29 -8 -29 -9 -7 -14 23 -6
23 -7 7 -38 -16 -31 -16 -32 5 -25 20 6 22 5 15 -27 -4 -18 -16 -43 -28 -55
-11 -13 -17 -26 -13 -30 5 -5 13 -1 19 8 9 15 14 15 54 -3 33 -14 61 -18 120
-16 42 2 78 8 80 13 2 6 -6 11 -18 12 -12 1 -23 4 -25 6 -8 8 22 57 34 57 8 0
12 6 9 13 -2 7 -20 11 -48 10 -41 -1 -42 -1 -9 5 23 5 31 10 23 15 -7 5 -17 5
-23 2 -5 -3 -10 -1 -10 6 0 8 11 9 36 4 28 -5 35 -3 32 7 -3 9 -19 12 -46 10
-25 -2 -42 1 -42 7 0 6 12 8 30 5 28 -6 30 -5 30 24 0 17 3 37 6 46 5 13 -2
16 -40 16 -25 0 -46 5 -46 10 0 6 -4 10 -9 10 -6 0 -13 -4 -16 -10z m58 -27
c-13 -2 -35 -2 -50 0 -16 2 -5 4 22 4 28 0 40 -2 28 -4z m0 -30 c-13 -2 -35
-2 -50 0 -16 2 -5 4 22 4 28 0 40 -2 28 -4z m5 -20 c-16 -2 -40 -2 -55 0 -16
2 -3 4 27 4 30 0 43 -2 28 -4z m-43 -23 c4 -6 -7 -10 -27 -10 -25 0 -29 3 -18
10 19 13 37 13 45 0z m-49 -45 c-29 -25 -28 -29 7 -26 21 3 21 -3 1 -34 -18
-27 -5 -35 16 -10 14 17 80 21 80 5 0 -5 -12 -10 -27 -10 -26 0 -26 -1 -7 -15
18 -15 17 -16 -21 -12 -45 5 -98 16 -103 22 -2 2 -1 21 3 42 4 26 13 42 28 50
41 20 53 14 23 -12z m61 7 c-9 -2 -15 -8 -12 -13 4 -5 -6 -9 -22 -9 l-28 0 29
19 c17 11 35 17 40 13 7 -4 4 -8 -7 -10z m41 -39 c-10 -2 -26 -2 -35 0 -10 3
-2 5 17 5 19 0 27 -2 18 -5z"/>
<path d="M5660 4420 c-51 -5 -60 -8 -42 -15 20 -7 23 -13 18 -38 -3 -16 -6
-33 -6 -38 0 -4 -10 -10 -22 -12 l-23 -4 23 -8 c18 -6 22 -15 22 -50 0 -26 -6
-47 -15 -55 -16 -13 -20 -40 -7 -40 12 0 41 69 44 105 2 19 9 31 21 33 15 3
17 -6 17 -72 0 -44 4 -76 10 -76 6 0 10 13 10 29 0 15 3 49 6 75 5 36 11 46
25 46 11 0 19 7 19 15 0 8 -9 15 -20 15 -16 0 -20 7 -20 35 0 25 4 35 16 35
16 0 15 23 -2 25 -5 1 -38 -2 -74 -5z m40 -29 c0 -31 -15 -71 -26 -71 -10 0
-14 13 -14 40 0 33 3 40 20 40 11 0 20 -4 20 -9z"/>
<path d="M5807 4404 c-11 -14 -30 -30 -43 -36 -30 -14 -32 -32 -2 -22 22 7 88
66 88 78 0 15 -27 3 -43 -20z"/>
<path d="M7048 4406 c-6 -14 -17 -26 -25 -26 -10 0 -13 -23 -13 -100 0 -60 4
-100 10 -100 6 0 10 5 10 10 0 6 14 10 30 10 17 0 30 -4 30 -10 0 -5 5 -10 10
-10 6 0 10 27 10 60 0 33 3 60 8 60 4 0 16 16 26 35 18 32 23 35 64 35 l45 0
-6 -77 c-7 -104 -12 -116 -48 -108 -35 8 -37 2 -5 -19 35 -22 52 -12 65 38 17
70 25 182 13 190 -6 3 -13 2 -17 -4 -8 -13 -85 -13 -85 -1 0 6 5 13 10 16 13
8 3 25 -14 25 -8 0 -16 -16 -20 -37 -3 -21 -14 -47 -22 -58 -16 -19 -16 -19
-11 11 7 38 1 47 -24 31 -24 -15 -34 -4 -20 22 7 13 8 22 1 26 -5 3 -15 -5
-22 -19z m42 -76 c0 -27 -3 -30 -30 -30 -25 0 -30 4 -30 24 0 23 12 32 48 35
7 1 12 -11 12 -29z m0 -85 c0 -32 -2 -35 -30 -35 -28 0 -30 3 -30 35 0 32 2
35 30 35 28 0 30 -3 30 -35z"/>
<path d="M7463 4423 c-71 -2 -123 -8 -123 -13 0 -6 25 -10 55 -10 43 0 55 -3
55 -15 0 -24 -47 -42 -71 -27 -18 12 -19 9 -19 -62 0 -40 -3 -86 -6 -102 l-5
-29 125 0 125 0 3 95 c3 101 -2 121 -26 101 -8 -7 -35 -11 -64 -9 -47 3 -49 4
-41 26 8 20 15 22 80 22 62 0 70 2 59 15 -7 8 -15 14 -19 13 -3 -1 -61 -4
-128 -5z m-43 -158 c0 -68 -2 -75 -20 -75 -18 0 -20 7 -20 75 0 68 2 75 20 75
18 0 20 -7 20 -75z m90 60 c0 -10 -11 -15 -35 -15 -24 0 -35 5 -35 15 0 10 11
15 35 15 24 0 35 -5 35 -15z m65 -60 c0 -69 0 -70 -27 -73 l-28 -3 0 76 0 76
28 -3 c27 -3 27 -4 27 -73z m-70 5 c0 -10 -12 -16 -32 -18 -28 -3 -33 0 -33
18 0 18 5 21 33 18 20 -2 32 -8 32 -18z m-5 -39 c0 -5 3 -16 6 -25 5 -13 -1
-16 -30 -16 -28 0 -36 4 -36 18 0 10 3 22 7 25 10 10 53 8 53 -2z"/>
<path d="M7710 4415 c-19 -7 -27 -14 -17 -14 10 -1 17 -9 17 -21 0 -15 -7 -20
-26 -20 -15 0 -23 -4 -19 -11 4 -6 13 -8 21 -5 21 8 18 -28 -6 -74 -27 -52
-25 -62 5 -25 l25 30 0 -62 c0 -35 4 -63 10 -63 6 0 10 33 10 78 1 66 3 75 14
60 16 -22 26 -23 26 -3 0 8 -9 20 -20 27 -25 16 -26 38 -1 38 23 0 44 -54 40
-103 -2 -18 0 -37 4 -43 8 -14 -1 -24 -25 -24 -10 0 -18 -4 -18 -10 0 -5 11
-10 25 -10 14 0 25 4 25 8 0 10 71 42 91 41 8 0 6 -4 -6 -9 -12 -5 -14 -9 -6
-9 8 -1 22 -8 32 -17 23 -21 48 -14 27 7 -11 10 -15 34 -15 75 l1 59 -69 6
-70 5 87 2 86 2 -11 26 c-10 21 -18 25 -44 22 -18 -2 -33 0 -33 4 0 4 15 8 34
8 19 0 38 5 41 10 7 11 -5 13 -42 10 -13 -1 -23 3 -23 9 0 6 -9 11 -20 11 -11
0 -20 -4 -20 -10 0 -5 -15 -10 -34 -10 -19 0 -38 5 -41 10 -8 12 -11 12 -55
-5z m66 -14 c5 -5 23 -11 39 -14 l30 -4 -32 -2 c-41 -1 -44 -21 -3 -21 17 0
30 -4 30 -10 0 -16 -60 -12 -66 5 -4 10 -13 13 -25 10 -15 -5 -19 -1 -19 19 0
27 26 36 46 17z m139 -51 c-3 -5 -15 -10 -25 -10 -10 0 -22 5 -25 10 -4 6 7
10 25 10 18 0 29 -4 25 -10z m-32 -57 c-13 -2 -35 -2 -50 0 -16 2 -5 4 22 4
28 0 40 -2 28 -4z m0 -30 c-13 -2 -35 -2 -50 0 -16 2 -5 4 22 4 28 0 40 -2 28
-4z m0 -30 c-13 -2 -35 -2 -50 0 -16 2 -5 4 22 4 28 0 40 -2 28 -4z"/>
<path d="M8116 4405 l16 -25 -38 -1 c-22 -1 -47 -1 -56 0 -10 1 -18 -2 -18 -8
0 -6 39 -11 96 -13 l97 -3 -40 -41 c-22 -22 -70 -60 -106 -84 -37 -23 -67 -46
-67 -51 0 -18 18 -17 35 1 17 19 18 19 57 -1 31 -16 54 -19 115 -17 47 2 78 8
80 15 3 8 -13 10 -55 6 -34 -3 -83 0 -113 7 l-53 13 25 19 c78 61 95 75 119
99 14 14 33 29 43 32 35 13 6 29 -39 22 -41 -6 -46 -4 -70 24 -31 37 -51 41
-28 6z"/>
<path d="M8353 4295 c2 -74 6 -137 9 -141 5 -4 52 21 97 53 2 2 2 5 -1 8 -3 3
-21 -2 -41 -10 l-37 -15 0 65 0 65 40 0 c22 0 40 5 40 11 0 7 -14 8 -41 4
l-41 -7 3 46 c4 42 -3 56 -27 56 -3 0 -3 -61 -1 -135z"/>
<path d="M2656 4414 c13 -6 -28 -176 -45 -182 -31 -10 -4 -22 49 -22 100 0
154 44 155 126 0 70 -17 84 -105 83 -36 0 -60 -3 -54 -5z m109 -29 c34 -34 30
-73 -12 -122 -24 -27 -93 -42 -93 -20 0 15 38 145 47 160 8 14 34 7 58 -18z"/>
<path d="M2877 4412 c9 -6 10 -17 4 -38 -5 -16 -14 -45 -20 -65 -6 -19 -11
-43 -11 -53 0 -9 -7 -19 -15 -22 -36 -14 -9 -24 64 -24 78 0 79 0 91 30 17 41
5 50 -21 17 -15 -20 -29 -27 -56 -27 l-35 0 7 37 c9 47 25 59 46 33 17 -19 17
-19 23 4 3 13 9 31 12 40 6 14 3 14 -22 1 -41 -21 -43 -19 -29 23 16 45 44 53
74 21 l21 -23 0 27 c0 27 0 27 -72 27 -40 0 -67 -4 -61 -8z"/>
<path d="M3071 4388 c-53 -54 -63 -126 -25 -169 14 -15 13 -19 -7 -33 -13 -8
-20 -18 -16 -22 3 -4 40 -7 81 -8 59 -1 79 3 92 16 10 10 15 21 11 25 -4 3
-13 1 -19 -5 -7 -7 -36 -12 -66 -12 -47 0 -53 2 -42 15 7 8 23 15 35 15 53 0
105 71 105 143 0 55 -13 67 -71 67 -39 0 -52 -5 -78 -32z m110 1 c15 -29 3
-87 -28 -127 -20 -27 -31 -33 -56 -30 -28 3 -32 7 -35 37 -5 47 4 74 34 110
30 37 68 41 85 10z"/>
<path d="M3287 4396 c6 -29 -34 -166 -48 -166 -5 0 -9 -4 -9 -10 0 -5 19 -10
43 -10 37 1 40 2 24 14 -16 12 -16 16 -2 50 12 27 21 36 39 36 68 0 107 50 71
90 -14 15 -31 20 -70 20 -50 0 -52 -1 -48 -24z m83 -5 c12 -24 4 -48 -21 -61
-30 -16 -41 -12 -33 13 22 72 35 83 54 48z"/>
<path d="M4940 4300 l0 -115 125 3 125 3 0 105 c0 57 1 107 3 110 1 3 -55 7
-126 7 l-127 2 0 -115z m71 88 c1 -7 2 -20 3 -28 2 -23 -15 -73 -32 -93 -21
-24 -8 -33 16 -11 23 22 42 76 42 115 0 22 5 29 20 29 17 0 19 -8 22 -72 l3
-73 38 0 c32 0 37 -3 37 -22 0 -22 -3 -23 -100 -23 l-100 0 0 95 c0 95 0 95
25 95 14 0 26 -6 26 -12z m151 -48 c-3 -55 -14 -72 -42 -67 -11 2 -16 19 -18
65 l-3 63 33 -3 33 -3 -3 -55z"/>
<path d="M8469 4323 c-2 -163 -2 -163 87 -163 l63 0 -6 38 c-3 20 -7 39 -9 41
-3 4 -5 -2 -19 -44 -3 -10 -18 -15 -45 -15 l-40 0 0 71 0 72 50 -7 c40 -5 50
-4 50 8 0 11 -12 14 -47 13 -47 -2 -48 -1 -48 28 0 17 4 36 9 43 6 9 1 12 -18
12 l-26 0 -1 -97z"/>
<path d="M6195 4373 c-16 -21 -42 -56 -56 -78 -14 -22 -38 -52 -52 -67 l-26
-28 31 0 c22 0 29 4 25 14 -8 21 21 56 49 56 28 0 33 -29 8 -54 -14 -15 -12
-16 27 -16 34 0 39 3 30 14 -7 9 -9 43 -4 105 3 50 4 91 2 91 -2 0 -17 -17
-34 -37z m0 -62 c-3 -12 -13 -21 -21 -21 -9 0 -12 5 -8 13 23 40 41 46 29 8z"/>
<path d="M6318 4401 c12 -7 11 -18 -2 -67 -8 -33 -18 -70 -22 -84 -4 -14 -14
-31 -22 -37 -13 -11 -6 -13 40 -13 31 0 68 4 82 10 29 11 45 54 29 79 -7 12
-5 23 10 43 23 32 17 55 -18 68 -33 12 -116 13 -97 1z m90 -38 c3 -19 -29 -53
-50 -53 -12 0 -10 25 4 55 14 30 42 29 46 -2z m-10 -92 c4 -29 -20 -51 -56
-51 -18 0 -23 4 -18 16 3 9 9 27 12 40 9 35 57 30 62 -5z"/>
<path d="M6545 4403 c-45 -11 -85 -70 -85 -126 0 -48 38 -82 91 -81 38 1 79
26 79 47 0 6 -8 3 -18 -6 -10 -9 -32 -19 -49 -23 -25 -5 -34 -1 -52 22 -38 48
-14 116 51 150 33 17 54 10 62 -22 8 -29 26 -32 26 -5 0 11 2 25 5 33 4 10 -6
14 -42 15 -27 0 -57 -2 -68 -4z"/>
<path d="M6710 4395 c10 -11 7 -31 -15 -100 -14 -47 -32 -85 -38 -85 -7 0 -4
-5 5 -11 19 -11 77 -1 59 11 -8 4 -9 19 -3 46 7 37 10 39 47 42 52 5 65 17 65
62 0 34 -3 38 -31 44 -17 3 -47 6 -66 6 -30 0 -34 -2 -23 -15z m94 -27 c13
-21 -17 -58 -46 -58 -17 0 -19 5 -13 33 4 17 9 36 12 40 8 13 35 4 47 -15z"/>
<path d="M1175 4370 c-4 -6 -1 -10 4 -10 6 0 11 -6 11 -14 0 -7 6 -19 14 -25
20 -17 30 3 14 28 -15 24 -35 34 -43 21z"/>
<path d="M2332 4340 c-18 -22 -40 -40 -48 -40 -8 0 -14 -4 -14 -10 0 -15 11
-12 50 11 56 34 82 61 68 71 -19 12 -20 11 -56 -32z"/>
<path d="M5822 4335 c-12 -19 -36 -41 -54 -49 -31 -13 -31 -14 -8 -15 35 -1
115 73 96 88 -11 9 -18 4 -34 -24z"/>
<path d="M3758 4299 c20 -36 42 -49 42 -26 0 9 -14 25 -30 37 l-31 22 19 -33z"/>
<path d="M8787 4313 c-15 -15 -6 -52 13 -58 25 -8 50 10 50 35 0 24 -46 41
-63 23z m43 -29 c0 -8 -9 -14 -20 -14 -22 0 -28 26 -7 33 16 6 27 -1 27 -19z"/>
<path d="M1193 4276 c-29 -17 -52 -36 -53 -43 0 -21 19 -24 38 -6 10 10 31 28
45 40 15 13 27 27 27 33 0 5 -1 10 -2 9 -2 -1 -26 -15 -55 -33z"/>
<path d="M2365 4283 c-22 -35 -71 -80 -96 -88 -10 -4 -19 -10 -19 -15 0 -4 14
-3 32 3 39 15 132 102 123 116 -10 18 -22 13 -40 -16z"/>
<path d="M7182 4275 c13 -19 26 -35 31 -35 14 0 7 37 -11 53 -32 30 -43 19
-20 -18z"/>
<path d="M5830 4253 c-14 -20 -45 -49 -69 -65 -48 -30 -35 -39 17 -12 36 17
104 93 96 105 -9 16 -18 10 -44 -28z"/>
<path d="M4667 4216 c-3 -8 -22 -20 -41 -27 -38 -14 -48 -29 -19 -29 24 0 104
50 98 61 -9 14 -32 11 -38 -5z"/>
<path d="M4750 4222 c0 -4 18 -15 40 -25 22 -9 40 -21 40 -27 0 -5 5 -10 10
-10 6 0 10 8 10 18 0 11 -15 23 -43 35 -47 19 -57 21 -57 9z"/>
<path d="M2079 3653 c-7 -16 -15 -37 -20 -48 -4 -11 -10 -30 -14 -42 -3 -12
-17 -38 -30 -57 l-24 -36 30 0 c18 0 28 4 24 10 -3 6 -3 19 0 30 5 16 15 20
46 20 37 0 39 -2 39 -30 0 -28 3 -30 37 -30 34 0 35 1 21 18 -9 9 -30 56 -49
105 -18 48 -36 87 -41 87 -5 0 -13 -12 -19 -27z m25 -65 c9 -35 8 -38 -20 -38
-17 0 -24 4 -20 13 3 6 9 20 12 30 9 24 20 21 28 -5z"/>
<path d="M2944 3655 c-11 -8 -14 -15 -6 -15 16 0 17 -151 0 -168 -9 -9 -3 -12
27 -12 30 0 36 3 27 12 -8 8 -12 46 -12 105 0 51 -4 93 -8 93 -5 0 -17 -7 -28
-15z"/>
<path d="M3230 3650 c-22 -22 -26 -40 -10 -40 6 0 10 4 10 9 0 13 30 22 50 16
43 -14 29 -64 -34 -124 -20 -19 -36 -39 -36 -43 0 -4 27 -8 60 -8 48 0 61 4
69 19 10 17 7 18 -37 15 -26 -2 -41 -1 -34 2 43 20 78 134 50 162 -19 19 -66
14 -88 -8z"/>
<path d="M3097 3604 c-14 -14 -7 -35 11 -32 9 2 17 10 17 17 0 16 -18 25 -28
15z"/>
<path d="M6327 3588 c-6 -17 -94 -136 -126 -170 l-25 -28 27 0 c20 0 27 5 27
18 0 23 30 52 53 52 24 0 23 -57 0 -63 -10 -3 5 -5 32 -6 32 0 45 2 36 8 -11
7 -13 30 -9 105 5 86 -1 119 -15 84z m-17 -88 c0 -11 -7 -20 -15 -20 -18 0
-19 12 -3 28 16 16 18 15 18 -8z"/>
<path d="M8609 3591 c12 -8 11 -19 -7 -75 -12 -37 -22 -75 -22 -86 0 -10 -8
-24 -17 -29 -29 -17 99 -13 140 4 48 20 67 50 67 105 0 68 -27 90 -111 90 -42
0 -59 -3 -50 -9z m120 -42 c23 -42 1 -106 -44 -125 -19 -8 -44 -14 -56 -14
-17 0 -20 4 -15 23 4 12 14 46 22 76 8 29 17 58 20 63 11 18 58 3 73 -23z"/>
<path d="M10977 3579 c7 -7 8 -22 2 -42 -25 -95 -36 -126 -48 -141 -12 -15 -6
-16 66 -16 76 0 80 1 92 26 16 36 6 42 -22 16 -15 -14 -36 -22 -60 -22 l-37 0
15 37 c9 20 17 38 19 40 8 9 36 -11 37 -26 0 -9 6 2 13 24 15 48 12 54 -13 31
-30 -27 -43 -11 -24 29 19 41 61 49 70 15 8 -30 23 -24 23 10 l0 30 -72 0
c-51 0 -69 -3 -61 -11z"/>
<path d="M13429 3561 c10 -7 11 -16 2 -42 -6 -19 -17 -60 -26 -91 -10 -37 -21
-58 -33 -61 -9 -3 2 -5 26 -6 28 -1 41 3 37 9 -4 6 -4 29 0 50 7 40 7 40 51
40 24 0 44 -4 44 -9 0 -21 -22 -67 -37 -78 -14 -11 -9 -13 32 -13 43 0 47 2
31 13 -17 12 -17 16 -2 51 9 21 16 47 16 58 0 19 27 67 45 80 5 4 -9 8 -33 8
-28 0 -41 -4 -37 -11 4 -6 4 -26 1 -45 -7 -32 -9 -34 -46 -34 -35 0 -40 3 -40
23 0 13 9 33 20 45 l21 22 -43 0 c-28 0 -38 -3 -29 -9z"/>
<path d="M2225 3490 c-8 -14 3 -30 21 -30 8 0 14 9 14 20 0 21 -24 28 -35 10z"/>
<path d="M3092 3473 c2 -10 10 -18 18 -18 8 0 16 8 18 18 2 12 -3 17 -18 17
-15 0 -20 -5 -18 -17z"/>
<path d="M6378 2183 c-2 -631 -4 -1149 -4 -1149 1 -1 816 -4 1811 -8 2328 -8
3677 -15 4491 -22 l651 -6 6 683 c4 376 7 896 7 1156 l0 472 -952 0 c-524 0
-1455 3 -2068 6 -613 3 -1750 7 -2526 11 l-1412 5 -4 -1148z m2115 1110 l197
-6 0 -349 c0 -310 -2 -348 -16 -348 -8 0 -75 21 -147 46 -73 25 -159 54 -192
64 -33 10 -73 23 -90 29 -16 6 -79 27 -140 46 -60 20 -118 40 -127 45 -10 6
-25 10 -33 10 -18 0 -171 48 -199 62 -10 5 -39 16 -65 23 -96 27 -187 55 -206
64 -11 4 -51 18 -90 31 -38 12 -79 26 -90 30 -11 5 -60 20 -110 35 -49 15
-105 33 -123 41 -18 8 -39 14 -47 14 -8 0 -29 6 -47 14 -18 8 -53 19 -78 26
-25 7 -61 18 -80 25 -19 7 -95 32 -167 55 -73 23 -133 44 -133 46 0 7 1773 4
1983 -3z m-1998 -28 c11 -6 37 -15 59 -19 21 -4 46 -11 55 -16 9 -4 57 -20
106 -35 50 -15 99 -31 110 -35 24 -10 109 -38 150 -50 17 -5 57 -18 89 -29 33
-12 65 -21 72 -21 7 0 28 -6 46 -14 18 -8 65 -24 103 -36 39 -12 79 -25 90
-30 11 -4 81 -27 155 -50 74 -23 164 -52 200 -65 36 -12 112 -37 170 -54 58
-18 120 -39 138 -47 18 -7 40 -14 48 -14 9 0 30 -7 47 -15 18 -8 57 -21 87
-29 45 -13 119 -38 230 -79 15 -5 67 -22 178 -58 l62 -20 0 -744 0 -745 -1147
0 -1146 0 6 833 c4 457 7 959 7 1114 l0 283 33 -6 c17 -4 41 -12 52 -19z
m4114 15 l404 0 -6 -482 c-4 -266 -7 -596 -7 -734 l0 -251 -122 39 c-68 22
-139 45 -158 53 -19 7 -62 22 -95 33 -62 19 -212 69 -395 130 -58 19 -118 38
-135 43 -16 4 -55 17 -85 28 -30 12 -65 21 -77 21 -12 0 -24 4 -27 9 -3 4 -38
18 -78 31 -40 12 -89 28 -108 35 -19 8 -60 21 -90 30 -30 9 -64 20 -75 24 -11
5 -51 18 -90 31 -38 12 -79 26 -90 31 -11 4 -112 38 -225 75 -113 36 -254 83
-315 103 l-110 37 -1 295 c-1 161 1 325 3 363 l6 69 736 -6 c405 -4 918 -7
1140 -7z m2693 -1107 c-2 -610 -6 -1110 -8 -1112 -2 -2 -86 24 -186 57 -101
34 -219 73 -263 88 -44 14 -125 42 -180 61 -55 19 -113 37 -130 40 -16 3 -34
9 -40 13 -5 4 -35 15 -65 24 -30 10 -71 23 -90 31 -19 7 -96 32 -170 55 -74
23 -151 48 -170 55 -31 11 -169 56 -365 117 -33 10 -69 22 -80 27 -11 5 -60
21 -110 36 -49 15 -126 40 -170 55 -44 15 -117 41 -162 56 l-83 28 0 738 0
738 1138 0 1138 0 -4 -1107z m-4522 344 c14 -7 45 -18 70 -25 25 -7 59 -18 75
-23 17 -6 59 -19 95 -31 36 -11 73 -25 84 -30 10 -5 44 -16 75 -24 31 -8 110
-34 176 -58 66 -23 138 -48 160 -55 22 -7 56 -18 75 -25 19 -7 62 -21 95 -31
33 -9 69 -21 80 -26 11 -4 83 -29 160 -53 77 -25 154 -51 170 -57 17 -6 59
-19 95 -30 68 -19 230 -74 265 -88 11 -5 40 -14 65 -21 25 -6 59 -18 75 -25
45 -19 177 -63 297 -98 l108 -32 0 -374 0 -373 -977 7 c-538 4 -1034 9 -1103
10 -69 2 -145 3 -169 4 l-44 1 6 338 c4 185 7 516 7 735 0 371 1 397 18 397 9
0 28 -6 42 -13z m2413 -801 c59 -20 112 -36 118 -36 6 0 25 -6 42 -14 40 -18
80 -31 302 -101 99 -32 196 -63 215 -70 19 -7 78 -25 130 -41 52 -16 106 -34
120 -41 14 -7 33 -13 42 -13 10 0 32 -6 50 -14 18 -7 58 -22 88 -31 30 -10 59
-22 65 -26 5 -5 19 -9 32 -9 12 0 37 -6 55 -14 40 -17 85 -32 163 -56 33 -10
112 -37 175 -60 63 -23 133 -46 155 -51 22 -5 49 -13 60 -18 11 -5 43 -16 70
-25 97 -30 180 -59 185 -63 3 -3 -326 -3 -730 -2 -418 2 -741 0 -749 -5 -10
-6 -12 -5 -7 2 5 9 -87 12 -368 12 l-376 0 0 364 0 365 28 -9 c15 -4 75 -24
135 -44z"/>
<path d="M8483 2462 c8 -11 -40 -174 -54 -183 -13 -7 12 -19 42 -19 15 0 19 5
15 18 -3 9 -2 33 2 52 7 32 11 35 45 36 50 2 69 19 65 63 l-3 36 -58 3 c-33 2
-56 -1 -54 -6z m77 -12 c24 -15 1 -64 -31 -68 -26 -3 -26 -3 -16 37 11 42 21
48 47 31z"/>
<path d="M11187 2060 c-64 -50 -86 -134 -46 -176 l21 -22 -22 -22 c-12 -12
-20 -23 -18 -26 3 -2 37 -5 76 -6 57 -1 76 2 92 17 11 10 17 22 14 26 -3 5
-12 2 -20 -6 -18 -17 -90 -20 -100 -4 -8 13 13 29 38 29 38 0 108 90 108 138
0 11 -9 31 -21 46 -26 33 -84 36 -122 6z m97 -65 c-3 -22 -17 -55 -31 -73 -20
-27 -31 -33 -56 -30 -28 3 -32 7 -35 37 -5 45 3 71 30 102 29 33 58 40 81 20
14 -12 17 -23 11 -56z"/>
<path d="M1990 2931 c0 -5 7 -11 15 -15 12 -4 15 -24 15 -86 0 -62 -3 -82 -15
-86 -34 -14 -11 -24 53 -24 89 0 117 17 108 69 -4 20 -7 47 -7 61 1 50 -9 68
-40 79 -38 13 -129 15 -129 2z m124 -32 c21 -30 10 -49 -30 -49 -32 0 -34 2
-34 35 0 30 3 35 24 35 14 0 31 -9 40 -21z m-3 -79 c28 -15 25 -58 -5 -72 -37
-16 -56 -4 -56 35 0 48 18 59 61 37z"/>
<path d="M2952 2924 c-12 -8 -22 -22 -22 -30 0 -16 16 -19 25 -4 10 16 52 12
59 -6 11 -28 -6 -68 -46 -108 -21 -21 -38 -42 -38 -47 0 -5 27 -9 59 -9 44 0
60 4 65 16 10 27 7 39 -6 26 -7 -7 -27 -12 -46 -12 l-34 0 41 46 c30 34 41 56
41 79 0 56 -51 82 -98 49z"/>
<path d="M3292 2924 c-33 -23 -27 -36 13 -28 32 6 35 4 35 -19 0 -14 -9 -31
-22 -40 l-23 -15 28 -7 c19 -5 27 -13 27 -30 0 -29 -24 -48 -49 -40 -27 8 -49
-4 -30 -16 22 -14 62 -10 87 7 16 11 22 25 22 54 0 21 -4 41 -9 45 -5 3 -7 21
-4 40 9 58 -28 82 -75 49z"/>
<path d="M3150 2856 c0 -15 24 -28 34 -19 13 14 5 33 -14 33 -11 0 -20 -6 -20
-14z"/>
<path d="M2210 2741 c0 -15 6 -21 21 -21 14 0 19 5 17 17 -5 26 -38 29 -38 4z"/>
<path d="M3154 2749 c-3 -6 -2 -15 4 -21 13 -13 32 -2 32 18 0 16 -26 19 -36
3z"/>
<path d="M2054 2176 c-60 -26 -69 -123 -16 -178 32 -34 78 -37 116 -7 38 30
32 44 -8 20 -37 -24 -61 -20 -88 13 -22 27 -23 89 -2 121 23 35 80 35 96 0 15
-33 28 -32 28 4 0 25 -4 29 -37 35 -50 8 -53 7 -89 -8z"/>
<path d="M2940 2165 c-17 -21 -7 -29 18 -16 11 6 28 8 36 5 22 -9 20 -41 -4
-54 -11 -6 -20 -15 -20 -19 0 -5 9 -11 20 -14 14 -4 20 -14 20 -35 0 -33 -14
-42 -53 -35 -20 4 -27 1 -27 -11 0 -20 57 -22 83 -1 21 15 35 89 19 99 -5 3
-7 26 -4 51 l5 45 -40 0 c-24 0 -46 -6 -53 -15z"/>
<path d="M3276 2145 c-11 -19 -17 -36 -15 -38 2 -1 21 -10 42 -20 30 -14 37
-22 37 -46 0 -38 -19 -53 -60 -45 -25 6 -32 4 -28 -7 2 -8 19 -15 36 -17 78
-8 109 105 41 145 -37 22 -37 33 0 33 16 0 31 6 35 15 4 12 -3 15 -32 15 -33
0 -40 -5 -56 -35z"/>
<path d="M3136 2114 c-8 -20 1 -34 20 -34 8 0 14 10 14 25 0 28 -24 34 -34 9z"/>
<path d="M2212 1993 c5 -26 38 -29 38 -4 0 15 -6 21 -21 21 -14 0 -19 -5 -17
-17z"/>
<path d="M3135 2000 c-8 -14 3 -30 21 -30 8 0 14 9 14 20 0 21 -24 28 -35 10z"/>
<path d="M2008 1448 c16 -16 16 -180 0 -196 -9 -9 4 -12 59 -12 64 0 74 3 102
29 27 25 31 36 31 80 0 79 -44 111 -154 111 -39 0 -47 -3 -38 -12z m127 -34
c25 -23 27 -30 23 -75 -6 -55 -26 -78 -70 -79 l-28 0 0 90 c0 88 1 90 24 90
12 0 36 -12 51 -26z"/>
<path d="M3002 1438 c-6 -13 -25 -45 -41 -73 -40 -67 -39 -75 9 -75 36 0 40
-2 40 -25 0 -16 6 -25 15 -25 9 0 15 9 15 25 0 14 5 25 10 25 6 0 10 7 10 15
0 8 -4 15 -10 15 -5 0 -10 30 -12 67 -3 70 -17 89 -36 51z m8 -77 c0 -46 -1
-48 -25 -44 l-24 5 22 44 c12 24 23 44 25 44 1 0 2 -22 2 -49z"/>
<path d="M3320 1453 c-68 -25 -62 -143 7 -143 31 0 18 -37 -21 -57 -24 -13
-27 -18 -14 -21 26 -5 73 32 93 74 22 47 15 112 -15 136 -23 19 -26 20 -50 11z
m46 -71 c5 -24 2 -32 -15 -41 -17 -9 -22 -8 -31 8 -5 11 -10 33 -10 50 0 55
44 41 56 -17z"/>
<path d="M3150 1370 c0 -11 7 -20 15 -20 8 0 15 9 15 20 0 11 -7 20 -15 20 -8
0 -15 -9 -15 -20z"/>
<path d="M2236 1273 c-13 -14 -5 -33 14 -33 11 0 20 6 20 14 0 15 -24 28 -34
19z"/>
<path d="M3150 1250 c0 -11 7 -20 15 -20 8 0 15 9 15 20 0 11 -7 20 -15 20 -8
0 -15 -9 -15 -20z"/>
<path d="M6247 913 c9 -6 7 -25 -7 -75 -21 -77 -36 -108 -53 -109 -24 -1 29
-18 59 -18 40 -1 100 24 108 44 11 29 7 54 -11 63 -14 9 -14 11 6 21 17 10 21
20 19 44 l-3 32 -65 3 c-36 1 -60 -1 -53 -5z m91 -26 c5 -23 -15 -47 -39 -47
-20 0 -25 23 -13 55 9 21 48 15 52 -8z m-20 -99 c2 -18 -4 -31 -20 -42 -39
-27 -51 -21 -43 21 9 50 13 55 38 51 15 -2 23 -11 25 -30z"/>
<path d="M8640 904 c-60 -37 -80 -132 -37 -172 16 -15 36 -22 63 -22 39 0 84
22 84 41 0 6 -10 3 -22 -5 -12 -9 -37 -16 -55 -16 -26 0 -36 6 -47 29 -14 26
-14 34 0 74 17 52 52 80 92 75 21 -2 28 -9 30 -30 4 -38 16 -35 29 7 l11 35
-61 0 c-39 0 -72 -7 -87 -16z"/>
<path d="M10966 902 c-3 -6 0 -12 6 -15 10 -3 9 -15 -4 -54 -10 -28 -18 -60
-18 -72 0 -11 -9 -30 -20 -41 -27 -27 -26 -30 14 -30 34 0 57 15 35 22 -9 3
-9 13 0 41 10 29 18 37 36 37 14 0 25 -7 27 -17 3 -12 9 -4 16 21 13 45 7 60
-13 32 -21 -28 -45 -14 -36 21 6 24 13 28 49 31 33 3 42 0 42 -13 0 -9 5 -13
10 -10 6 3 10 15 10 26 0 17 -7 19 -59 19 -33 0 -66 3 -74 6 -8 3 -18 1 -21
-4z"/>
<path d="M13434 903 c-12 -2 -36 -20 -55 -39 -29 -30 -34 -42 -34 -84 0 -79
43 -108 128 -87 18 5 29 16 33 35 12 55 16 62 30 62 8 0 12 5 9 10 -8 12 -85
13 -85 1 0 -5 7 -11 15 -15 12 -4 13 -10 1 -37 -19 -46 -51 -55 -82 -24 -31
31 -31 65 0 114 37 59 107 68 120 15 8 -32 26 -21 26 17 0 18 -5 29 -14 29 -7
0 -26 2 -42 4 -16 2 -38 2 -50 -1z"/>
</g>
</svg>
