<?xml version="1.0" standalone="no"?>
<!DOCTYPE svg PUBLIC "-//W3C//DTD SVG 20010904//EN"
 "http://www.w3.org/TR/2001/REC-SVG-20010904/DTD/svg10.dtd">
<svg version="1.0" xmlns="http://www.w3.org/2000/svg"
 width="1432.000000pt" height="613.000000pt" viewBox="0 0 1432.000000 613.000000"
 preserveAspectRatio="xMidYMid meet">
<metadata>
Created by potrace 1.16, written by Peter Selinger 2001-2019
</metadata>
<g transform="translate(0.000000,613.000000) scale(0.100000,-0.100000)"
fill="#000000" stroke="none">
<path d="M1460 5744 l0 -36 -50 4 -50 3 0 -69 c0 -55 3 -67 12 -58 7 7 29 12
50 12 l37 0 4 -57 3 -58 2 58 2 57 54 0 54 0 -1 58 0 58 -54 -4 c-56 -5 -63 1
-43 38 7 13 6 19 -5 24 -12 4 -15 -3 -15 -30z m0 -89 l0 -45 -40 0 -40 0 0 45
0 45 40 0 40 0 0 -45z m100 0 l0 -45 -45 0 -45 0 0 38 c0 48 4 52 52 52 l38 0
0 -45z"/>
<path d="M3110 5774 c0 -5 5 -16 10 -24 7 -12 3 -16 -18 -21 -24 -6 -22 -7 12
-8 l38 -1 -6 -35 c-7 -36 -37 -95 -64 -128 -9 -9 -13 -20 -9 -23 3 -3 18 13
33 35 l27 41 88 0 c96 0 98 -1 83 -57 -4 -16 -15 -23 -38 -25 l-31 -3 24 -13
c31 -19 48 -2 66 66 l13 52 -25 0 c-22 0 -24 3 -19 25 5 21 3 25 -15 25 -18 0
-20 4 -15 25 6 24 5 25 -45 25 -50 0 -51 1 -45 25 4 14 2 25 -4 25 -5 0 -10
-9 -10 -19 0 -11 -4 -23 -10 -26 -5 -3 -10 0 -10 8 0 8 -7 20 -15 27 -8 7 -15
9 -15 4z m135 -74 c0 -10 -13 -16 -42 -18 -32 -2 -43 1 -43 11 0 22 12 28 50
25 23 -2 35 -8 35 -18z m35 -48 c0 -19 -20 -23 -85 -20 -52 3 -57 5 -44 18 20
19 129 21 129 2z"/>
<path d="M3809 5755 c0 -11 0 -41 1 -67 l1 -48 -38 -1 c-37 -1 -37 -1 -10 -11
25 -9 27 -14 27 -63 0 -30 3 -56 8 -58 4 -3 23 4 42 14 l35 20 -32 -6 -33 -7
0 52 0 51 100 -3 c62 -2 100 1 100 7 0 6 -36 9 -95 7 -82 -3 -95 -2 -95 12 0
13 13 16 70 16 39 0 70 4 70 8 0 5 -30 8 -67 8 -44 -1 -67 3 -70 12 -4 9 14
12 66 12 39 0 71 4 71 8 0 5 -30 8 -67 8 -44 -1 -67 3 -70 12 -4 9 16 12 77
12 57 0 81 3 78 12 -3 7 -34 11 -86 12 -75 1 -82 -1 -83 -19z"/>
<path d="M4198 5763 c7 -12 12 -24 12 -27 0 -3 -27 -6 -61 -6 -33 0 -58 -4
-55 -9 3 -5 20 -8 38 -6 61 5 68 -7 47 -89 -10 -42 -45 -89 -85 -113 -10 -6
-13 -12 -7 -12 25 -2 93 71 105 110 11 38 13 39 55 39 l43 0 0 -39 c0 -22 -4
-51 -9 -64 -8 -20 -15 -23 -43 -20 l-33 4 32 -17 c43 -22 60 -8 68 54 3 26 8
59 10 73 4 25 3 25 -51 21 l-54 -4 0 30 0 30 63 -2 c34 0 63 3 64 9 1 6 -22 9
-58 7 -47 -3 -59 -1 -59 11 0 8 -7 21 -17 28 -15 13 -15 12 -5 -8z"/>
<path d="M4535 5770 c-3 -5 -32 -11 -63 -11 -31 -1 -49 -3 -39 -6 13 -3 17
-15 17 -50 0 -40 -2 -45 -20 -40 -11 3 -20 1 -20 -4 0 -5 10 -9 21 -9 20 0 21
-4 15 -47 -3 -26 -13 -58 -22 -71 -9 -13 -14 -26 -11 -28 9 -10 45 62 52 104
5 32 11 42 26 42 17 0 19 -8 19 -75 0 -43 4 -75 10 -75 6 0 10 32 10 75 0 68
2 75 20 75 20 0 26 11 13 23 -3 4 -12 2 -20 -4 -10 -9 -13 -3 -13 34 0 39 3
46 22 49 19 3 20 4 6 16 -11 9 -18 10 -23 2z m-25 -65 c0 -38 -3 -45 -20 -45
-17 0 -20 7 -20 45 0 38 3 45 20 45 17 0 20 -7 20 -45z"/>
<path d="M4630 5754 c-8 -14 -27 -32 -43 -41 -16 -8 -26 -17 -23 -20 7 -7 67
31 88 56 15 18 14 31 -2 31 -4 0 -13 -12 -20 -26z"/>
<path d="M5280 5765 c0 -10 -11 -15 -35 -15 -19 0 -35 -5 -35 -11 0 -6 15 -9
37 -7 28 2 38 -1 44 -17 6 -17 8 -17 8 -2 1 10 9 17 21 17 11 0 20 5 20 10 0
6 -9 10 -20 10 -11 0 -20 7 -20 15 0 8 -4 15 -10 15 -5 0 -10 -7 -10 -15z"/>
<path d="M5396 5765 c-3 -8 -13 -15 -23 -15 -17 -1 -17 -1 1 -15 10 -7 15 -18
11 -24 -3 -6 -2 -11 4 -11 5 0 12 8 16 19 4 13 14 18 38 17 17 0 32 4 32 9 0
6 -15 8 -34 7 -28 -3 -33 -1 -28 12 4 9 2 16 -2 16 -5 0 -11 -7 -15 -15z"/>
<path d="M6140 5750 c0 -16 -4 -30 -10 -30 -5 0 -10 6 -10 14 0 7 -7 19 -15
26 -9 8 -15 9 -15 2 0 -6 5 -14 10 -17 15 -9 1 -27 -16 -21 -8 3 -14 1 -14 -4
0 -6 15 -10 34 -10 l35 0 -16 -46 c-8 -25 -30 -68 -49 -95 -18 -27 -29 -49
-24 -49 4 0 21 20 37 45 l28 45 88 0 87 0 0 -28 c0 -40 -22 -66 -49 -59 -11 3
-21 2 -21 -3 0 -10 48 -22 59 -15 10 6 36 107 30 115 -2 2 -13 3 -23 1 -16 -2
-18 2 -13 29 6 29 5 31 -15 24 -19 -6 -20 -3 -15 24 l6 30 -47 -1 c-46 -2 -47
-1 -44 26 1 15 -2 27 -8 27 -5 0 -10 -13 -10 -30z m83 -61 c-5 -18 -11 -20
-42 -14 -42 8 -45 10 -36 24 3 6 23 11 45 11 34 0 38 -2 33 -21z m35 -46 c-3
-15 -16 -19 -66 -21 -47 -2 -62 0 -62 11 0 23 11 27 72 27 51 0 59 -2 56 -17z"/>
<path d="M1021 5625 c0 -77 3 -134 6 -127 6 15 209 17 218 2 17 -28 24 13 24
133 l0 132 -124 0 -125 0 1 -140z m207 116 c21 -1 22 -4 22 -111 l0 -110 -87
0 c-63 0 -84 3 -76 11 6 6 35 9 67 7 l56 -3 1 48 c2 66 2 67 19 77 17 11 12
12 -50 11 -33 -1 -41 1 -30 8 8 6 23 8 33 5 13 -4 17 0 17 20 0 25 -2 26 -60
26 -58 0 -60 -1 -60 -26 0 -23 3 -26 25 -22 14 3 25 1 25 -3 0 -5 -21 -9 -47
-9 -68 0 -47 -9 43 -20 l79 -8 -68 1 c-38 1 -68 -2 -68 -8 -1 -5 -1 -34 -1
-62 1 -46 -2 -53 -19 -53 -18 0 -19 8 -19 108 0 60 2 111 5 113 4 4 55 4 193
0z m-48 -31 c0 -5 -18 -10 -40 -10 -22 0 -40 5 -40 10 0 6 18 10 40 10 22 0
40 -4 40 -10z m20 -120 l0 -41 -57 3 -58 3 -1 38 -1 37 58 0 59 0 0 -40z"/>
<path d="M1100 5590 c0 -24 3 -25 40 -22 33 3 40 8 40 26 0 19 -5 22 -40 21
-36 0 -40 -3 -40 -25z m60 0 c0 -5 -9 -10 -20 -10 -11 0 -20 5 -20 10 0 6 9
10 20 10 11 0 20 -4 20 -10z"/>
<path d="M7180 5646 l0 -126 -55 0 c-30 0 -55 -3 -55 -7 0 -5 60 -8 133 -8 81
0 132 4 132 10 0 6 -27 9 -67 6 l-68 -3 0 66 0 66 61 0 c54 0 60 2 49 15 -9
11 -16 13 -24 5 -5 -5 -27 -10 -49 -10 l-38 0 2 52 c2 33 -1 53 -9 56 -9 3
-12 -29 -12 -122z"/>
<path d="M7540 5728 c-6 -24 -15 -53 -20 -65 -14 -33 -3 -28 15 7 14 27 20 30
65 30 l49 0 -5 -52 c-14 -147 -12 -141 -50 -135 -19 3 -32 2 -29 -2 8 -14 57
-23 68 -12 5 5 13 48 17 95 5 46 11 94 15 105 6 19 3 20 -51 15 -56 -5 -56 -5
-50 20 3 13 2 27 -3 31 -6 3 -15 -14 -21 -37z"/>
<path d="M7444 5735 c-4 -16 -13 -25 -25 -25 -17 0 -19 -8 -19 -94 0 -53 4
-98 10 -101 6 -3 10 -1 10 4 0 15 67 14 73 -1 3 -7 6 5 7 27 0 22 2 68 3 103
l2 64 -28 -5 c-20 -3 -26 0 -22 10 3 7 8 20 11 28 3 8 1 15 -5 15 -6 0 -13
-11 -17 -25z m46 -75 c0 -28 -3 -30 -35 -30 -32 0 -35 2 -35 30 0 28 3 30 35
30 32 0 35 -2 35 -30z m0 -86 c0 -32 -2 -34 -35 -34 -33 0 -35 2 -35 33 0 42
3 45 40 39 27 -4 30 -8 30 -38z"/>
<path d="M8260 5685 c0 -68 -2 -75 -20 -75 -13 0 -20 -7 -20 -18 0 -15 -6 -17
-35 -14 -22 3 -35 10 -35 19 0 7 6 13 13 12 28 -3 48 2 42 11 -3 6 -17 7 -31
4 -18 -5 -24 -2 -24 11 0 13 6 16 25 13 24 -5 25 -3 25 48 l0 54 -60 0 -60 0
0 -54 c0 -51 1 -53 25 -48 18 3 25 0 25 -12 0 -11 -9 -16 -32 -16 -23 0 -29
-3 -19 -9 7 -5 22 -6 32 -4 15 4 19 0 19 -22 0 -20 4 -26 15 -21 8 3 29 3 45
-1 27 -5 30 -9 28 -39 -1 -18 1 -36 5 -40 4 -4 7 -2 7 4 0 8 19 12 53 12 l52
0 1 55 c1 54 0 55 -28 55 -25 0 -28 3 -28 35 0 32 2 35 31 35 16 0 28 4 25 9
-3 4 -18 6 -32 3 -26 -5 -27 -4 -21 32 4 27 2 36 -9 36 -11 0 -14 -16 -14 -75z
m-130 10 c0 -28 -4 -35 -20 -35 -15 0 -20 7 -20 28 1 26 1 26 15 8 13 -17 15
-17 15 -3 0 9 -8 21 -17 26 -16 9 -16 10 5 11 19 0 22 -5 22 -35z m60 0 c0
-27 -4 -35 -18 -35 -14 0 -19 8 -20 35 -1 29 2 35 18 35 16 0 20 -7 20 -35z
m128 -142 c-3 -37 -4 -38 -45 -41 l-43 -3 0 40 0 41 46 0 45 0 -3 -37z"/>
<path d="M8160 5704 c0 -8 5 -12 10 -9 6 3 10 10 10 16 0 5 -4 9 -10 9 -5 0
-10 -7 -10 -16z"/>
<path d="M8442 5733 c-6 -16 -14 -40 -18 -56 -3 -15 -10 -30 -15 -33 -5 -3 -9
-13 -8 -22 0 -14 2 -13 8 3 7 16 10 10 16 -27 4 -26 4 -59 1 -72 -10 -41 1
-55 36 -45 17 4 41 15 55 24 22 15 28 14 84 -6 45 -17 63 -19 71 -11 9 9 8 12
-6 12 -16 0 -116 30 -116 35 0 1 5 15 10 32 9 25 15 29 47 29 36 -1 37 0 39
42 l2 42 -39 0 c-28 0 -39 4 -39 15 0 11 12 15 51 15 27 0 48 4 45 9 -3 5 -27
6 -52 3 -44 -5 -46 -4 -39 17 4 12 2 21 -4 21 -6 0 -11 -9 -11 -20 0 -17 -7
-20 -52 -21 -30 -1 -40 -4 -23 -6 53 -6 75 -13 75 -23 0 -6 -18 -10 -41 -10
l-40 0 3 -42 c3 -41 4 -43 36 -42 32 1 39 -9 23 -34 -6 -10 -10 -10 -21 3 -7
8 -17 15 -23 15 -6 0 0 -11 12 -24 l23 -25 -33 -20 c-19 -12 -40 -21 -46 -21
-18 0 -17 183 1 233 16 42 4 51 -12 10z m116 -95 c-2 -18 -11 -24 -35 -26 -30
-3 -33 -1 -33 22 0 23 4 26 36 26 31 0 35 -3 32 -22z m72 -3 c0 -21 -5 -25
-30 -25 -25 0 -30 4 -30 25 0 21 5 25 30 25 25 0 30 -4 30 -25z"/>
<path d="M8766 5720 c-14 -22 -20 -37 -12 -34 19 7 57 62 47 68 -5 3 -20 -12
-35 -34z"/>
<path d="M8955 5751 c-3 -6 -28 -7 -55 -4 l-50 6 0 -52 0 -51 60 0 60 0 0 55
c0 54 -3 64 -15 46z m-5 -36 c0 -17 -4 -18 -49 -9 -44 9 -39 24 9 24 29 0 40
-4 40 -15z m0 -40 c0 -16 -43 -21 -74 -9 -31 12 -16 24 29 24 33 0 45 -4 45
-15z"/>
<path d="M162 5738 c-19 -19 -14 -30 7 -16 15 9 23 9 35 -1 21 -18 20 -30 -6
-58 -18 -19 -19 -23 -5 -23 19 0 36 -29 29 -50 -8 -22 -24 -31 -49 -25 -16 4
-23 1 -23 -10 0 -24 48 -18 75 10 29 28 32 61 9 86 -13 14 -13 20 -2 38 24 40
-36 83 -70 49z"/>
<path d="M323 5744 c-16 -7 -17 -48 -1 -73 9 -14 8 -23 -5 -42 -22 -31 -21
-52 2 -73 26 -24 62 -17 80 16 14 25 14 29 -6 57 -20 26 -20 31 -7 42 9 7 14
25 12 43 -3 27 -7 31 -33 33 -16 1 -36 0 -42 -3z m47 -19 c13 -16 4 -58 -13
-52 -18 6 -31 33 -24 51 8 20 21 21 37 1z m0 -104 c5 -11 10 -29 10 -41 0 -31
-44 -24 -48 8 -7 48 18 69 38 33z"/>
<path d="M2216 5701 c-17 -25 -49 -72 -73 -103 -39 -51 -42 -58 -24 -58 14 0
21 6 21 20 0 23 44 55 65 46 19 -7 19 -30 -1 -50 -14 -15 -12 -16 23 -16 27 0
34 3 24 9 -12 8 -13 25 -5 101 5 50 7 93 4 95 -3 1 -18 -18 -34 -44z m9 -50
c-5 -22 -12 -31 -26 -31 -24 0 -24 4 3 40 26 35 32 33 23 -9z"/>
<path d="M2348 5738 c12 -15 -32 -178 -51 -190 -7 -4 16 -8 51 -8 49 0 66 4
82 20 22 22 28 80 8 80 -6 0 -2 10 10 23 28 30 28 52 0 71 -28 20 -116 22
-100 4z m87 -38 c0 -16 -8 -29 -25 -37 -32 -16 -42 -5 -34 36 6 27 10 32 33
29 20 -2 26 -9 26 -28z m-14 -76 c19 -23 -14 -64 -52 -64 -29 0 -30 1 -24 33
4 17 11 37 17 43 11 14 43 7 59 -12z"/>
<path d="M2530 5709 c-34 -35 -40 -48 -40 -83 0 -31 6 -48 23 -64 30 -29 87
-29 118 -1 26 22 21 22 -24 -1 -25 -12 -32 -12 -55 1 -24 13 -27 21 -27 68 1
47 5 57 33 82 45 40 80 39 94 -3 12 -33 12 -33 19 -8 14 48 12 50 -46 50 -51
0 -58 -3 -95 -41z"/>
<path d="M2737 5742 c15 -9 -29 -181 -49 -194 -8 -4 9 -8 40 -8 95 0 146 36
159 113 5 31 1 41 -25 67 -26 26 -38 30 -84 30 -29 0 -48 -4 -41 -8z m114 -33
c18 -34 4 -100 -26 -126 -24 -22 -95 -33 -95 -16 0 4 10 42 22 85 22 77 23 78
55 78 23 0 36 -6 44 -21z"/>
<path d="M5747 5739 c6 -6 8 -23 3 -42 -17 -72 -34 -123 -48 -139 -14 -17 -10
-18 61 -18 65 0 78 3 87 19 16 32 11 42 -10 21 -13 -13 -33 -20 -60 -20 -44 0
-45 2 -29 49 12 35 42 42 58 14 9 -16 10 -16 11 4 0 12 3 28 6 37 5 14 3 14
-22 1 -15 -8 -30 -13 -32 -11 -2 2 0 20 3 40 7 34 9 36 46 36 24 0 39 -5 39
-12 0 -9 3 -9 11 -1 22 22 -2 33 -69 33 -47 0 -63 -3 -55 -11z"/>
<path d="M6615 5677 c-27 -38 -63 -85 -79 -104 l-28 -33 27 0 c14 0 23 4 20
10 -11 17 26 60 51 60 20 0 24 -5 24 -29 0 -20 -6 -31 -17 -34 -10 -3 1 -5 25
-6 37 -1 41 1 30 13 -11 11 -12 31 -6 101 5 48 7 89 6 90 -2 2 -25 -29 -53
-68z m21 -32 c-4 -16 -13 -25 -26 -25 -20 0 -20 1 2 35 24 36 34 31 24 -10z"/>
<path d="M6805 5739 c-36 -21 -67 -54 -81 -87 -12 -29 -12 -38 0 -67 25 -59
85 -73 133 -29 l28 25 -27 -16 c-40 -24 -90 -16 -106 17 -17 36 1 101 37 129
34 27 85 22 89 -8 5 -32 19 -29 25 5 3 15 5 28 4 28 -11 10 -87 11 -102 3z"/>
<path d="M11400 5646 c0 -83 2 -97 15 -92 21 8 19 -2 -11 -41 -14 -18 -21 -33
-15 -33 5 0 22 18 38 40 24 36 32 40 59 36 l30 -4 0 95 -1 95 -58 2 -57 1 0
-99z m100 57 c0 -20 -5 -23 -40 -23 -36 0 -40 3 -40 24 0 23 4 25 40 23 35 -1
40 -4 40 -24z m0 -53 c0 -17 -7 -20 -44 -20 -39 0 -44 2 -39 20 4 16 14 20 44
20 32 0 39 -3 39 -20z m0 -60 c0 -17 -7 -20 -40 -20 -33 0 -40 3 -40 20 0 17
7 20 40 20 33 0 40 -3 40 -20z"/>
<path d="M11628 5628 l-3 -123 -30 -3 -30 -4 30 -13 c17 -7 33 -10 38 -8 4 2
7 59 7 127 0 81 4 126 12 134 9 9 8 12 -5 12 -14 0 -17 -16 -19 -122z"/>
<path d="M9429 5707 c-10 -14 -14 -35 -11 -59 3 -28 0 -39 -12 -44 -31 -12
-38 1 -16 29 12 16 20 30 17 33 -3 3 -27 -24 -53 -60 -27 -36 -52 -66 -56 -66
-5 0 -8 -4 -8 -10 0 -5 8 -10 18 -10 12 0 21 11 27 33 8 26 16 33 43 35 28 3
32 0 32 -20 0 -13 -5 -29 -12 -36 -9 -9 -3 -12 28 -12 26 0 35 3 25 9 -11 7
-13 27 -7 96 3 48 9 91 12 96 12 19 -12 7 -27 -14z"/>
<path d="M9539 5721 c12 -8 10 -22 -9 -93 -13 -45 -30 -89 -39 -95 -12 -11 0
-13 67 -13 79 0 83 1 92 26 14 37 13 40 -12 17 -24 -21 -94 -38 -102 -24 -3 4
0 24 6 44 9 28 17 37 34 37 13 0 24 -7 27 -17 2 -12 7 -7 14 17 9 32 6 60 -4
33 -3 -7 -16 -13 -30 -13 -20 0 -23 4 -19 20 3 11 9 29 12 40 8 30 79 23 87
-9 3 -9 5 -4 6 12 l1 27 -72 0 c-47 0 -68 -4 -59 -9z"/>
<path d="M10035 5710 c-20 -22 -14 -26 15 -10 27 14 50 2 50 -27 0 -16 -7 -27
-20 -30 -23 -6 -27 -23 -5 -23 20 0 35 -32 28 -58 -4 -18 -13 -22 -45 -22 -23
0 -37 -4 -33 -10 11 -17 64 -11 85 10 23 23 26 58 6 85 -10 14 -10 25 -3 46
20 52 -39 82 -78 39z"/>
<path d="M10201 5711 c-48 -48 -31 -173 25 -187 48 -12 72 36 65 131 -5 67
-51 95 -90 56z m60 -18 c13 -33 6 -140 -10 -156 -8 -8 -16 -6 -29 6 -13 14
-17 33 -16 82 1 87 33 126 55 68z"/>
<path d="M11988 5718 c10 -13 10 -24 -2 -59 -8 -24 -17 -59 -21 -76 -4 -18
-16 -40 -28 -49 -21 -15 -18 -16 53 -12 85 5 113 19 135 64 20 43 19 84 -4
113 -16 20 -30 25 -82 29 -56 4 -62 3 -51 -10z m109 -20 c23 -19 16 -93 -12
-126 -25 -30 -82 -49 -98 -33 -7 7 11 88 39 170 5 14 49 8 71 -11z"/>
<path d="M12203 5723 c22 -6 22 -9 -8 -108 -18 -57 -31 -85 -43 -88 -9 -2 17
-6 58 -8 67 -4 77 -2 98 18 30 30 29 53 -2 24 -25 -24 -90 -39 -99 -24 -4 5
-1 26 5 46 12 39 40 50 56 22 6 -13 11 -8 19 20 10 32 2 48 -12 25 -3 -5 -15
-10 -26 -10 -16 0 -18 5 -13 28 4 15 11 32 15 38 12 15 61 6 77 -14 10 -14 12
-12 12 11 l0 27 -77 -1 c-43 -1 -70 -3 -60 -6z"/>
<path d="M11560 5628 c0 -115 17 -107 22 10 2 61 0 82 -9 82 -10 0 -13 -25
-13 -92z"/>
<path d="M4633 5671 c-12 -15 -37 -35 -55 -44 -18 -9 -26 -17 -17 -17 17 0 85
46 108 73 11 14 11 17 0 16 -8 0 -24 -13 -36 -28z"/>
<path d="M5315 5679 c-6 -18 -13 -20 -56 -17 -27 1 -49 0 -49 -4 0 -5 20 -8
45 -8 25 0 45 -4 45 -9 0 -5 -21 -30 -46 -55 -25 -25 -41 -46 -36 -46 5 0 17
9 27 20 26 29 35 25 35 -17 l0 -38 87 4 c49 1 88 4 89 5 0 0 -1 21 -4 46 l-4
45 -74 -3 c-41 -2 -74 -1 -74 3 0 3 5 15 10 26 9 16 22 19 95 19 47 0 85 4 85
9 0 15 -18 23 -25 11 -3 -5 -36 -10 -72 -10 -60 0 -65 2 -60 20 7 27 -10 26
-18 -1z m120 -125 c0 -29 0 -29 -68 -32 l-67 -3 0 36 0 36 68 -4 c67 -3 67 -3
67 -33z"/>
<path d="M8786 5673 c-8 -16 -24 -39 -37 -52 l-22 -23 22 7 c20 6 21 3 21 -66
0 -97 12 -80 15 20 1 55 7 87 18 105 20 29 21 36 7 36 -5 0 -16 -12 -24 -27z"/>
<path d="M1780 5661 c0 -5 5 -13 10 -16 6 -4 8 -16 4 -28 -6 -20 -5 -20 10 -8
21 18 17 55 -6 59 -10 2 -18 -1 -18 -7z"/>
<path d="M3645 5661 c-3 -5 -59 -8 -125 -8 -66 1 -120 -1 -120 -5 0 -5 63 -8
140 -8 77 0 140 4 140 9 0 12 -28 22 -35 12z"/>
<path d="M4856 5655 c-9 -25 4 -45 30 -45 20 0 24 5 24 30 0 25 -4 30 -24 30
-13 0 -26 -7 -30 -15z m44 -15 c0 -11 -6 -20 -13 -20 -19 0 -27 10 -20 26 8
21 33 17 33 -6z"/>
<path d="M10422 5647 c-14 -15 -22 -36 -22 -59 0 -59 57 -90 93 -50 23 26 21
39 -2 18 -38 -35 -88 24 -61 73 13 24 38 28 46 6 6 -16 34 -21 34 -7 0 14 -35
42 -52 42 -8 0 -24 -10 -36 -23z"/>
<path d="M10600 5660 c-8 -5 -26 -6 -40 -4 -25 5 -25 5 -25 -65 0 -64 2 -71
20 -71 18 0 20 6 17 59 -3 53 -2 59 18 64 27 7 33 -8 28 -73 -3 -50 -3 -50 27
-49 17 0 24 3 18 6 -8 3 -13 24 -13 53 0 39 4 52 20 60 30 16 46 -25 32 -79
l-10 -41 32 1 c17 0 25 3 19 6 -8 3 -13 24 -13 53 0 27 -3 55 -6 64 -7 19 -55
21 -72 4 -8 -8 -12 -8 -12 -1 0 15 -24 23 -40 13z"/>
<path d="M7857 5642 c-79 -2 -126 -6 -122 -12 8 -13 262 -13 269 -1 9 14 -11
16 -147 13z"/>
<path d="M11040 5641 c0 -6 5 -13 10 -16 6 -4 8 -15 5 -26 -4 -10 -2 -19 4
-19 13 0 25 45 16 59 -8 14 -35 14 -35 2z"/>
<path d="M7578 5606 c12 -26 18 -33 20 -21 2 10 -5 27 -17 38 l-20 21 17 -38z"/>
<path d="M9780 5630 c0 -6 30 -10 69 -10 39 0 73 5 76 10 4 6 -22 10 -69 10
-44 0 -76 -4 -76 -10z"/>
<path d="M12425 5630 c3 -5 39 -10 80 -10 41 0 77 5 80 10 4 6 -25 10 -80 10
-55 0 -84 -4 -80 -10z"/>
<path d="M4670 5622 c0 -16 -65 -80 -98 -97 -19 -9 -31 -19 -28 -22 10 -10 95
47 121 81 27 36 31 46 15 46 -5 0 -10 -4 -10 -8z"/>
<path d="M8805 5620 c3 -5 35 -10 71 -10 49 0 64 -3 64 -14 0 -12 -14 -13 -71
-9 -53 4 -70 3 -65 -6 4 -6 34 -11 72 -11 l64 0 0 -36 c0 -34 -2 -36 -27 -31
-26 5 -26 4 -8 -9 41 -30 55 -13 55 67 0 42 3 49 20 49 11 0 20 4 20 9 0 4
-45 9 -101 10 -66 1 -98 -2 -94 -9z"/>
<path d="M3960 5610 c0 -6 -11 -16 -25 -22 -21 -9 -29 -8 -46 8 -22 19 -22 19
-11 -1 11 -23 46 -54 79 -72 27 -15 63 -17 63 -3 0 6 -9 10 -20 10 -12 0 -35
7 -52 16 l-30 16 31 19 c18 11 29 24 26 29 -8 13 -15 13 -15 0z"/>
<path d="M3260 5593 c0 -5 7 -18 15 -29 12 -16 14 -16 15 -3 0 9 -7 22 -15 29
-8 7 -15 8 -15 3z"/>
<path d="M6240 5594 c0 -5 7 -18 15 -28 8 -11 15 -16 15 -10 0 5 -7 18 -15 28
-8 11 -15 16 -15 10z"/>
<path d="M8980 5584 c-10 -12 -8 -14 14 -14 28 0 35 14 12 23 -8 3 -20 -1 -26
-9z"/>
<path d="M3129 5563 c-7 -16 -15 -31 -17 -35 -2 -5 1 -8 6 -8 10 0 35 60 29
67 -2 2 -10 -9 -18 -24z"/>
<path d="M3220 5568 c0 -16 5 -28 10 -28 13 0 13 20 0 40 -8 12 -10 9 -10 -12z"/>
<path d="M3170 5556 c0 -14 5 -26 10 -26 6 0 10 9 10 19 0 11 -4 23 -10 26 -6
4 -10 -5 -10 -19z"/>
<path d="M6121 5573 c-1 -6 -8 -19 -17 -27 -8 -9 -14 -21 -12 -27 2 -7 12 0
22 15 9 15 15 33 12 39 -3 9 -5 9 -5 0z"/>
<path d="M6150 5561 c0 -11 5 -23 10 -26 6 -3 10 3 10 14 0 11 -4 23 -10 26
-5 3 -10 -3 -10 -14z"/>
<path d="M6200 5561 c0 -12 5 -21 10 -21 6 0 10 6 10 14 0 8 -4 18 -10 21 -5
3 -10 -3 -10 -14z"/>
<path d="M8070 5576 c0 -9 40 -13 46 -5 3 5 -6 9 -20 9 -14 0 -26 -2 -26 -4z"/>
<path d="M9774 5571 c6 -9 145 -6 154 4 3 3 -32 5 -77 5 -45 0 -80 -4 -77 -9z"/>
<path d="M12422 5575 c11 -11 157 -15 163 -5 4 6 -26 10 -81 10 -48 0 -85 -2
-82 -5z"/>
<path d="M460 5555 c0 -9 5 -15 10 -13 12 4 11 16 -1 24 -5 3 -9 -2 -9 -11z"/>
<path d="M8860 5539 c7 -11 14 -19 16 -16 7 7 -7 37 -17 37 -6 0 -5 -9 1 -21z"/>
<path d="M8080 5526 c-12 -33 -12 -36 -1 -36 9 0 22 52 15 59 -2 2 -8 -8 -14
-23z"/>
<path d="M8119 5518 c4 -28 6 -29 9 -9 2 13 0 27 -5 32 -6 6 -7 -3 -4 -23z"/>
<path d="M8151 5545 c1 -19 18 -51 18 -35 0 8 -4 22 -9 30 -5 8 -9 11 -9 5z"/>
<path d="M8180 5543 c0 -4 5 -15 10 -23 8 -13 10 -13 10 2 0 9 -4 20 -10 23
-5 3 -10 3 -10 -2z"/>
<path d="M11496 5511 c21 -35 35 -41 27 -11 -3 11 -14 25 -25 31 -20 11 -20
10 -2 -20z"/>
<path d="M3091 4923 c-6 -21 -22 -85 -37 -143 -14 -58 -27 -106 -29 -108 -1
-1 -10 13 -19 32 -20 42 -30 49 -56 41 -24 -8 -27 -33 -4 -31 9 0 26 -18 41
-46 28 -54 48 -61 56 -20 3 15 20 86 39 157 l34 130 167 3 c100 1 167 6 167
12 0 6 -68 10 -175 10 l-174 0 -10 -37z"/>
<path d="M7657 4934 c15 -6 -28 -172 -48 -185 -9 -5 10 -9 51 -9 105 0 161 52
146 135 -9 47 -38 65 -106 64 -30 0 -50 -3 -43 -5z m112 -30 c32 -30 5 -125
-39 -139 -29 -9 -80 -14 -80 -7 0 10 42 156 47 165 7 12 54 -1 72 -19z"/>
<path d="M13288 4927 c-91 -42 -114 -153 -39 -191 33 -17 85 -10 108 16 18 20
18 20 -18 3 -72 -35 -120 6 -99 84 14 53 49 83 91 79 26 -2 35 -8 37 -25 5
-33 19 -28 24 7 3 19 0 30 -7 30 -7 0 -25 2 -41 5 -16 2 -41 -1 -56 -8z"/>
<path d="M1939 4810 c-13 -30 -35 -78 -49 -107 -16 -32 -22 -54 -16 -56 16 -6
37 3 30 14 -3 5 -2 18 1 29 10 31 82 29 94 -2 5 -14 5 -26 -1 -29 -5 -4 2 -8
15 -11 31 -6 57 6 33 15 -9 4 -16 11 -16 17 0 10 -23 72 -59 165 -7 17 -12 11
-32 -35z m41 -66 c0 -12 -45 -25 -54 -17 -3 3 3 20 12 39 16 35 16 35 29 12 7
-13 12 -28 13 -34z"/>
<path d="M2808 4839 c-26 -15 -23 -32 3 -19 29 16 49 5 49 -26 0 -17 -6 -28
-20 -31 -26 -7 -26 -23 -1 -23 23 0 35 -31 26 -61 -6 -19 -12 -20 -49 -15 -38
6 -40 5 -22 -9 25 -19 30 -19 66 0 25 13 30 22 30 53 0 21 -5 43 -11 49 -8 8
-8 17 0 31 14 26 14 28 -5 46 -18 18 -41 20 -66 5z"/>
<path d="M3179 4822 c-61 -55 -47 -172 21 -172 34 0 60 31 60 71 0 32 -21 52
-55 52 -45 0 -21 43 35 66 l25 10 -27 0 c-17 1 -40 -10 -59 -27z m47 -87 c9
-37 -3 -75 -25 -75 -22 0 -31 19 -31 66 0 30 3 34 25 34 18 0 26 -7 31 -25z"/>
<path d="M3317 4815 c-21 -45 -22 -42 13 -50 32 -7 50 -30 50 -65 0 -26 -37
-42 -62 -26 -19 11 -34 3 -23 -13 11 -18 64 -12 85 9 12 12 20 33 20 55 0 30
-5 39 -35 56 -19 12 -35 25 -35 30 0 5 16 9 35 9 24 0 35 5 35 15 0 10 -10 15
-33 15 -28 0 -36 -5 -50 -35z"/>
<path d="M3560 4770 c-38 -38 -15 -120 35 -120 25 0 55 23 55 43 0 8 -4 7 -12
-1 -19 -19 -56 -14 -68 9 -24 43 13 95 44 64 17 -17 36 -20 36 -5 0 12 -33 30
-54 30 -9 0 -25 -9 -36 -20z"/>
<path d="M3681 4781 c-10 -6 -10 -10 -2 -16 12 -7 9 -84 -4 -105 -3 -6 4 -10
17 -10 21 0 23 4 23 57 0 53 2 58 23 61 23 4 24 2 20 -57 -3 -56 -1 -61 17
-61 17 0 20 7 20 51 0 39 4 54 18 63 14 9 20 8 27 -4 13 -20 13 -67 0 -91 -9
-16 -7 -19 12 -19 22 0 23 3 18 61 -6 71 -25 93 -60 71 -16 -10 -24 -10 -40 0
-16 10 -24 10 -40 0 -12 -7 -20 -8 -20 -2 0 12 -10 13 -29 1z"/>
<path d="M4161 4767 c-25 -31 20 -71 48 -42 12 12 13 19 5 33 -15 22 -38 26
-53 9z m44 -17 c0 -8 -8 -16 -17 -18 -13 -2 -18 3 -18 18 0 15 5 20 18 18 9
-2 17 -10 17 -18z"/>
<path d="M7900 4592 c0 -344 -10 -2041 -16 -2859 -7 -900 -6 -923 12 -924 117
-7 678 -10 2751 -16 l2432 -6 3 149 c4 176 12 2168 12 3108 l1 659 -1835 3
c-1009 2 -2178 6 -2597 8 l-763 5 0 -127z m5135 85 c17 -2 15 -5 -12 -22 -17
-11 -60 -42 -95 -69 -104 -82 -336 -257 -423 -321 -113 -82 -241 -178 -335
-251 l-79 -61 -78 14 c-135 24 -234 42 -353 63 -63 11 -164 29 -225 40 -60 11
-146 26 -190 34 -133 25 -295 54 -390 71 -49 9 -142 25 -205 36 -63 11 -164
29 -225 39 -60 10 -171 30 -245 44 -74 14 -162 30 -195 35 -269 46 -452 79
-710 126 -44 8 -110 19 -147 25 -38 6 -112 20 -165 31 -114 24 -214 43 -333
63 -47 8 -152 28 -235 44 -82 17 -184 36 -225 42 -41 7 -83 15 -92 19 -15 5
4907 4 4957 -2z m-4940 -30 c17 -3 75 -14 130 -25 55 -11 165 -32 245 -46 152
-27 192 -34 355 -67 133 -26 300 -57 405 -74 47 -8 108 -18 135 -23 28 -6 142
-26 255 -46 113 -20 241 -43 285 -51 360 -64 566 -101 825 -145 124 -21 262
-46 305 -55 44 -9 134 -25 200 -36 123 -20 238 -40 450 -79 66 -12 178 -32
249 -44 l128 -22 -192 -145 c-106 -79 -220 -164 -255 -189 -168 -121 -352
-258 -384 -286 -36 -31 -105 -83 -476 -359 -220 -163 -384 -286 -400 -298 -23
-18 -327 -243 -530 -392 -120 -88 -232 -172 -249 -186 -17 -14 -107 -81 -201
-149 -93 -69 -194 -143 -222 -165 -29 -22 -95 -71 -148 -110 -52 -38 -128 -95
-169 -125 -41 -30 -136 -100 -211 -155 -229 -167 -337 -246 -415 -304 -41 -30
-109 -80 -150 -110 -41 -30 -92 -67 -112 -83 -20 -15 -39 -28 -42 -28 -3 0 -4
377 -1 838 7 1209 15 2598 15 2808 l0 180 73 -12 c39 -7 86 -15 102 -17z
m4978 -1009 c-2 -563 -5 -1428 -9 -1923 l-6 -900 -482 2 c-264 1 -1338 3
-2386 5 -1048 2 -1985 5 -2083 8 l-178 5 110 80 c61 44 189 138 284 209 94 70
199 147 232 170 32 22 135 97 227 166 92 69 249 186 350 260 100 74 261 194
358 265 96 72 218 163 270 201 52 39 212 158 355 264 143 106 310 230 370 275
61 44 307 229 548 411 443 333 556 417 614 457 18 12 65 47 105 78 156 120
833 624 844 629 6 3 26 18 45 33 63 51 424 326 429 327 3 0 4 -460 3 -1022z"/>
<path d="M12146 3854 c8 -4 9 -17 2 -47 -14 -66 -38 -131 -51 -139 -19 -11 41
-21 95 -15 58 7 53 5 63 36 l7 24 -27 -21 c-16 -13 -42 -22 -62 -22 -34 0 -34
1 -28 33 4 17 9 35 12 40 7 12 53 8 54 -5 1 -18 17 23 18 45 1 17 0 17 -15 3
-8 -9 -22 -16 -31 -16 -11 0 -13 7 -8 33 4 17 9 35 12 40 8 13 56 7 75 -10 17
-15 18 -15 18 5 0 21 -5 22 -72 21 -40 0 -68 -3 -62 -5z"/>
<path d="M2092 4664 c2 -11 8 -18 13 -16 15 3 12 25 -3 30 -9 3 -13 -2 -10
-14z"/>
<path d="M3128 4062 c-30 -4 -26 7 -68 -172 -13 -52 -25 -102 -27 -110 -3 -10
-13 0 -26 28 -22 43 -34 49 -68 31 -23 -12 -17 -29 9 -22 14 3 24 -8 42 -46
13 -28 29 -51 35 -51 11 0 51 139 76 258 5 24 11 48 14 53 4 5 81 9 175 9 102
0 171 4 175 10 4 6 -11 10 -37 11 -24 0 -95 1 -158 2 -63 1 -127 1 -142 -1z"/>
<path d="M1880 3919 c5 -18 8 -35 6 -38 -3 -4 -6 -36 -7 -71 l-3 -65 55 3 c30
2 62 5 71 8 24 7 34 62 15 81 -11 12 -12 21 -4 43 9 24 8 33 -8 49 -14 17 -30
21 -76 21 l-58 0 9 -31z m104 1 c5 -5 6 -20 2 -34 -5 -22 -12 -26 -41 -26 -33
0 -35 2 -35 33 0 19 3 37 7 41 8 8 54 -1 67 -14z m0 -89 c24 -26 17 -53 -15
-65 -42 -15 -59 -2 -59 44 0 37 2 40 28 40 16 0 37 -9 46 -19z"/>
<path d="M2810 3911 l-20 -40 34 -11 c19 -6 37 -18 40 -26 19 -49 -9 -84 -50
-65 -22 10 -25 9 -22 -6 3 -13 12 -17 33 -16 60 5 86 80 42 121 -13 12 -29 22
-35 22 -7 0 -12 7 -12 15 0 10 11 15 35 15 24 0 35 5 35 15 0 10 -10 15 -30
15 -24 0 -33 -7 -50 -39z"/>
<path d="M3152 3938 c-7 -7 -12 -18 -12 -26 0 -10 3 -10 16 2 18 19 28 20 55
6 33 -18 23 -54 -32 -115 l-52 -56 63 3 c40 2 65 8 68 16 3 9 -6 11 -37 6 -23
-4 -41 -3 -41 1 0 4 16 25 35 48 56 65 46 127 -20 127 -17 0 -36 -5 -43 -12z"/>
<path d="M3309 3934 c-7 -9 -13 -32 -13 -51 0 -42 27 -67 62 -58 22 5 22 5 8
-23 -8 -15 -27 -34 -42 -40 -14 -7 -24 -15 -21 -18 3 -3 22 2 43 12 88 42 92
194 4 194 -15 0 -34 -7 -41 -16z m70 -18 c17 -32 11 -70 -13 -74 -36 -7 -62
58 -34 86 18 18 33 15 47 -12z"/>
<path d="M3570 3868 c-27 -30 -26 -73 5 -103 13 -14 29 -25 35 -25 14 0 64 50
57 57 -4 3 -14 -2 -23 -11 -9 -10 -23 -15 -31 -12 -8 3 -17 6 -19 6 -13 0 -23
53 -14 71 13 23 46 25 54 2 5 -12 10 -13 18 -5 8 8 8 15 -2 27 -18 22 -56 19
-80 -7z"/>
<path d="M3690 3880 c-8 -5 -10 -10 -4 -10 14 0 15 -90 2 -107 -8 -10 -4 -13
13 -13 22 0 24 4 24 57 0 51 2 58 20 58 18 0 20 -7 20 -58 0 -51 2 -57 21 -57
19 0 20 5 16 54 -4 49 -2 54 19 59 14 4 26 1 31 -6 12 -19 9 -82 -4 -95 -9 -9
-4 -12 22 -12 26 0 31 3 22 12 -7 7 -12 36 -12 65 0 60 -14 74 -55 55 -15 -7
-26 -8 -30 -2 -9 14 -49 12 -63 -2 -9 -9 -12 -9 -12 0 0 14 -10 15 -30 2z"/>
<path d="M4185 3861 c-9 -28 1 -41 31 -41 22 0 25 4 22 28 -4 34 -43 44 -53
13z m45 -17 c0 -17 -26 -19 -36 -3 -7 12 15 31 28 23 4 -3 8 -12 8 -20z"/>
<path d="M2080 3759 c0 -18 2 -19 15 -9 15 12 12 30 -6 30 -5 0 -9 -10 -9 -21z"/>
<path d="M2951 3138 c-4 -13 -21 -78 -37 -145 -16 -68 -32 -123 -35 -123 -3 0
-14 18 -24 40 -10 22 -19 40 -21 40 -1 0 -14 -4 -28 -10 -29 -11 -36 -35 -7
-25 14 4 23 -5 42 -45 39 -82 45 -75 91 115 10 44 23 97 29 118 l10 37 234 0
c150 0 235 4 235 10 0 6 -87 10 -240 10 -240 0 -241 0 -249 -22z"/>
<path d="M1895 3026 c-83 -83 -2 -227 98 -175 22 12 37 28 37 42 0 4 -9 -2
-20 -13 -25 -25 -61 -26 -91 -1 -20 16 -24 29 -24 71 0 42 4 55 24 71 40 33
85 19 104 -31 3 -8 6 2 6 23 l1 37 -55 0 c-46 0 -60 -4 -80 -24z"/>
<path d="M3046 3029 c-33 -26 -56 -70 -56 -107 0 -35 34 -82 59 -82 29 0 61
38 61 73 0 40 -15 57 -52 57 -15 0 -28 4 -28 8 0 15 25 41 55 57 25 12 27 15
9 15 -12 0 -33 -9 -48 -21z m23 -83 c19 -22 10 -80 -13 -84 -10 -2 -22 2 -27
10 -13 20 -11 76 4 81 20 9 24 8 36 -7z"/>
<path d="M3202 3020 c-43 -57 -72 -103 -72 -111 0 -5 17 -9 39 -9 35 0 39 -3
45 -31 6 -33 26 -31 26 3 0 11 8 27 18 34 16 13 16 13 0 14 -15 0 -18 10 -18
65 0 36 -4 65 -8 65 -5 0 -18 -14 -30 -30z m13 -53 c0 -40 -2 -42 -33 -45
l-32 -3 27 45 c16 25 30 46 33 46 3 0 5 -19 5 -43z"/>
<path d="M3338 3043 c-10 -2 -18 -9 -18 -14 0 -6 5 -7 10 -4 6 4 10 -25 10
-79 0 -58 -4 -86 -12 -89 -7 -2 0 -8 15 -12 18 -5 33 -3 40 4 8 8 8 11 -1 11
-8 0 -12 28 -12 95 0 52 -3 94 -7 94 -5 -1 -16 -3 -25 -6z"/>
<path d="M3570 2983 c-24 -10 -39 -36 -40 -66 0 -32 26 -77 45 -77 17 0 65 39
65 53 0 7 -5 4 -11 -5 -15 -27 -57 -23 -70 6 -16 34 -4 76 22 76 11 0 22 -7
25 -15 9 -22 24 -18 24 5 0 11 -4 20 -9 20 -5 0 -15 2 -23 4 -7 3 -20 2 -28
-1z"/>
<path d="M3666 2911 c2 -62 5 -68 32 -63 4 1 5 26 4 56 -3 43 0 54 13 60 28
10 36 -4 34 -58 -1 -28 1 -52 4 -53 26 -10 32 0 29 51 -3 48 -1 55 18 61 12 4
23 5 26 2 10 -10 13 -107 3 -107 -6 0 -7 -4 -4 -10 3 -5 14 -10 24 -10 15 0
17 8 14 58 -3 31 -6 62 -8 68 -2 7 -38 11 -97 11 l-93 1 1 -67z"/>
<path d="M4157 2973 c-16 -15 -6 -52 14 -58 23 -8 39 7 39 36 0 22 -38 38 -53
22z m41 -26 c2 -12 -3 -17 -17 -17 -12 0 -21 6 -21 13 0 31 32 34 38 4z"/>
<path d="M2074 2869 c-3 -6 -1 -16 5 -22 8 -8 11 -5 11 11 0 24 -5 28 -16 11z"/>
<path d="M13240 2851 c-15 -29 -12 -36 8 -19 31 27 41 29 60 10 28 -28 18 -63
-34 -119 -24 -26 -44 -48 -44 -50 0 -2 27 -3 59 -3 44 0 60 4 65 16 9 24 8 26
-13 14 -25 -13 -71 -13 -71 -1 0 6 8 16 18 23 55 40 79 118 43 138 -32 17 -79
12 -91 -9z"/>
<path d="M13432 2861 c-11 -7 -11 -9 2 -14 13 -5 16 -22 16 -80 0 -40 -5 -78
-11 -84 -14 -14 10 -23 36 -12 11 4 14 8 8 8 -10 1 -13 27 -13 96 0 96 -5 107
-38 86z"/>
<path d="M13642 2797 c-20 -24 -24 -64 -8 -95 24 -47 57 -49 88 -7 14 19 8 28
-9 13 -32 -28 -63 -4 -63 49 0 37 36 58 52 29 11 -20 30 -12 21 9 -6 18 -66
20 -81 2z"/>
<path d="M13755 2740 c0 -63 2 -70 20 -70 18 0 20 7 20 57 0 52 2 58 21 61 19
3 22 -3 26 -37 2 -23 0 -50 -4 -61 -6 -16 -3 -20 15 -20 20 0 22 5 22 57 0 53
2 58 23 61 23 4 24 2 20 -57 l-3 -61 30 1 c17 0 24 3 18 6 -8 3 -13 25 -13 58
0 30 -5 57 -12 63 -7 5 -38 10 -68 10 -30 0 -61 -5 -67 -10 -9 -7 -13 -7 -13
1 0 6 -8 11 -17 11 -15 0 -18 -10 -18 -70z"/>
<path d="M3117 2260 l-169 -5 -28 -110 c-15 -60 -31 -128 -35 -150 l-7 -40
-24 48 c-27 52 -27 52 -55 37 -22 -12 -26 -35 -4 -26 11 4 22 -9 40 -44 14
-28 31 -50 38 -50 8 0 27 58 51 160 l39 160 249 0 c145 0 248 4 248 9 0 13
-139 17 -343 11z"/>
<path d="M1860 2149 c0 -3 3 -9 6 -12 4 -3 6 -49 5 -102 l-2 -95 39 0 c21 0
53 5 70 11 35 12 72 64 72 100 0 34 -36 88 -62 93 -36 8 -128 12 -128 5z m120
-24 c32 -17 48 -73 32 -116 -12 -30 -50 -52 -83 -47 -23 3 -24 7 -27 77 -2 41
-1 80 2 88 7 17 40 17 76 -2z"/>
<path d="M3025 2117 c-44 -44 -54 -95 -28 -139 15 -25 26 -33 49 -33 23 0 33
7 48 36 19 35 19 38 2 64 -14 21 -24 26 -47 23 -16 -3 -29 -3 -29 -2 0 19 29
55 53 67 29 14 30 16 9 16 -14 1 -38 -13 -57 -32z m31 -65 c32 -20 27 -92 -6
-92 -34 0 -57 81 -27 93 17 8 21 8 33 -1z"/>
<path d="M3156 2134 c-20 -20 -21 -88 -1 -104 8 -7 26 -10 40 -8 14 3 25 2 25
-2 0 -14 -43 -62 -64 -71 -17 -8 -15 -8 9 -3 105 20 130 202 28 204 -12 0 -29
-7 -37 -16z m58 -10 c17 -16 22 -84 7 -84 -5 0 -16 -3 -25 -6 -22 -8 -44 69
-26 91 16 19 25 19 44 -1z"/>
<path d="M3302 2138 c-21 -21 -13 -26 33 -20 55 6 57 -4 20 -93 -26 -62 -32
-97 -16 -79 12 11 71 170 71 190 0 18 -90 20 -108 2z"/>
<path d="M3573 2064 c-20 -20 -24 -31 -19 -57 4 -18 15 -41 26 -52 19 -18 23
-19 47 -5 14 8 28 21 31 28 3 11 1 11 -17 0 -38 -23 -78 22 -60 70 9 25 44 30
53 7 7 -19 26 -20 26 0 0 14 -29 35 -50 35 -6 0 -22 -12 -37 -26z"/>
<path d="M3696 2080 c-14 -5 -16 -9 -7 -14 8 -6 10 -25 5 -68 -6 -56 -5 -61
10 -55 10 4 18 7 19 7 1 0 0 22 -1 48 -3 35 1 52 13 62 25 20 39 -2 38 -60 -1
-41 2 -50 15 -50 14 0 16 8 14 49 -3 42 -1 51 17 61 34 18 44 3 39 -56 -4 -44
-2 -54 11 -54 13 0 15 10 11 62 -5 57 -7 63 -29 66 -13 2 -28 -1 -34 -7 -8 -8
-16 -6 -27 4 -13 12 -23 13 -43 6 -14 -6 -27 -6 -29 -2 -2 5 -12 5 -22 1z"/>
<path d="M4107 2074 c-13 -13 -7 -55 9 -61 24 -9 51 23 38 45 -12 19 -36 27
-47 16z m38 -24 c3 -5 4 -14 0 -20 -8 -13 -35 -1 -35 16 0 16 26 19 35 4z"/>
<path d="M2085 1970 c-8 -13 4 -32 16 -25 12 8 12 35 0 35 -6 0 -13 -4 -16
-10z"/>
<path d="M7760 748 c-8 -13 -14 -41 -15 -63 0 -34 -4 -41 -22 -43 -29 -4 -29
5 -1 35 12 13 19 25 16 29 -6 5 -118 -129 -118 -140 0 -4 8 -6 18 -6 12 0 21
11 27 33 9 28 15 32 47 35 34 3 36 1 31 -20 -3 -13 -10 -29 -16 -35 -7 -10 -1
-13 27 -13 35 0 36 1 23 20 -11 16 -12 33 -5 77 5 32 8 70 6 86 l-3 28 -15
-23z"/>
<path d="M13183 722 c-1 -45 -38 -153 -55 -164 -20 -12 98 -9 126 3 21 10 35
34 36 61 0 4 -7 13 -15 22 -14 13 -13 16 5 26 24 13 27 52 5 70 -8 7 -34 14
-58 15 l-42 3 -2 -36z m86 4 c19 -23 -4 -56 -39 -56 -28 0 -28 1 -19 32 5 18
9 34 9 35 0 10 40 0 49 -11z m-11 -102 c4 -29 -23 -54 -57 -54 -28 0 -28 0
-17 40 9 38 13 41 41 38 22 -2 31 -9 33 -24z"/>
<path d="M10130 638 c-25 -27 -27 -47 -2 -25 23 21 56 22 71 3 19 -22 3 -61
-45 -113 -24 -26 -44 -48 -44 -50 0 -2 28 -3 62 -1 46 2 64 7 66 18 2 12 -7
14 -44 11 l-47 -3 37 38 c49 50 60 91 33 122 -26 28 -60 28 -87 0z"/>
<path d="M10310 647 c-31 -16 -37 -50 -13 -74 17 -17 17 -19 1 -35 -37 -37
-15 -90 37 -90 52 0 71 45 39 90 -15 21 -15 25 0 41 22 24 20 47 -6 65 -27 19
-26 19 -58 3z m45 -18 c4 -5 4 -22 0 -36 l-6 -26 -21 21 c-12 12 -18 27 -15
36 7 18 33 21 42 5z m-5 -103 c6 -8 10 -25 8 -38 -4 -32 -42 -32 -46 0 -7 46
14 66 38 38z"/>
<path d="M10645 586 c-11 -9 -14 -16 -7 -16 16 0 16 -92 0 -108 -9 -9 -5 -12
21 -12 28 0 31 2 22 14 -7 8 -11 34 -9 58 3 39 6 43 31 46 27 3 27 2 27 -52 0
-34 -5 -56 -12 -59 -7 -3 1 -6 17 -6 30 -1 30 -1 30 56 0 51 2 58 20 58 16 0
21 -8 23 -43 2 -24 -2 -50 -9 -58 -9 -12 -6 -14 20 -14 23 0 30 4 25 12 -4 7
-7 26 -6 44 4 50 -14 84 -42 84 -14 0 -28 -5 -31 -10 -5 -8 -11 -7 -21 1 -8 6
-27 9 -43 6 -16 -4 -31 -2 -33 4 -2 5 -12 3 -23 -5z"/>
<path d="M10516 568 c-9 -12 -16 -35 -16 -51 0 -37 40 -78 69 -70 22 6 47 40
37 51 -3 3 -6 0 -6 -6 0 -18 -57 -15 -64 4 -11 28 -6 61 9 74 13 10 19 9 35
-5 22 -20 36 -15 27 10 -10 24 -73 20 -91 -7z"/>
</g>
</svg>
