<?xml version="1.0" standalone="no"?>
<!DOCTYPE svg PUBLIC "-//W3C//DTD SVG 20010904//EN"
 "http://www.w3.org/TR/2001/REC-SVG-20010904/DTD/svg10.dtd">
<svg version="1.0" xmlns="http://www.w3.org/2000/svg"
 width="1490.000000pt" height="605.000000pt" viewBox="0 0 1490.000000 605.000000"
 preserveAspectRatio="xMidYMid meet">
<metadata>
Created by potrace 1.16, written by Peter Selinger 2001-2019
</metadata>
<g transform="translate(0.000000,605.000000) scale(0.100000,-0.100000)"
fill="#000000" stroke="none">
<path d="M13490 5783 c0 -10 -10 -34 -21 -53 -15 -24 -17 -30 -5 -21 14 12 16
9 16 -33 0 -34 4 -46 15 -46 12 0 14 -11 10 -55 -2 -31 0 -55 6 -55 5 0 10 15
10 33 1 17 2 41 3 52 1 17 9 20 64 23 68 3 87 22 22 22 -22 0 -40 5 -40 10 0
6 13 10 29 10 17 0 33 5 36 10 4 6 -8 10 -29 10 -20 0 -36 5 -36 10 0 6 13 10
29 10 17 0 33 5 36 10 4 6 -8 10 -29 10 -20 0 -36 5 -36 10 0 6 16 10 35 10
19 0 35 5 35 11 0 7 -12 9 -34 5 -25 -5 -35 -3 -40 9 -3 8 -10 15 -15 15 -6 0
-8 -7 -5 -15 4 -10 0 -15 -13 -15 -27 0 -35 10 -22 27 9 10 8 13 -5 13 -9 0
-16 -8 -16 -17z m60 -43 c0 -5 -11 -10 -25 -10 -14 0 -25 5 -25 10 0 6 11 10
25 10 14 0 25 -4 25 -10z m0 -40 c0 -5 -11 -10 -25 -10 -14 0 -25 5 -25 10 0
6 11 10 25 10 14 0 25 -4 25 -10z m0 -39 c0 -9 -24 -21 -41 -21 -5 0 -9 7 -9
15 0 9 9 15 25 15 14 0 25 -4 25 -9z"/>
<path d="M13886 5784 c-4 -10 -14 -14 -26 -11 -14 3 -24 -1 -31 -15 -13 -24
-1 -40 12 -15 14 25 32 21 24 -5 -8 -27 -55 -78 -55 -60 0 7 -13 12 -31 12
-24 0 -30 3 -25 16 3 9 9 27 12 40 4 17 13 24 31 24 13 0 22 3 20 8 -3 4 -29
5 -59 3 -29 -3 -42 -7 -30 -9 22 -3 23 -7 17 -40 -9 -42 -9 -47 -7 -122 l2
-56 33 4 c33 4 34 4 31 50 -3 42 0 48 22 59 l26 12 -4 -75 c-2 -59 0 -73 10
-69 8 3 40 5 73 5 33 0 59 4 59 10 0 6 -14 9 -31 8 -30 -3 -32 -1 -33 37 -1
38 1 40 34 46 27 4 31 7 18 13 -9 4 -22 5 -28 1 -15 -9 -30 3 -23 20 3 9 18
15 35 15 17 0 27 4 23 10 -3 6 -17 7 -30 4 -18 -4 -25 -1 -30 15 -3 12 -11 21
-16 21 -6 0 -7 -9 -4 -20 5 -16 2 -20 -14 -20 -24 0 -25 1 -9 35 9 20 18 25
49 25 32 0 37 -3 32 -17 -6 -16 -5 -16 10 -4 28 22 20 31 -29 31 -37 0 -45 3
-40 15 3 8 1 15 -3 15 -5 0 -12 -7 -15 -16z m22 -111 c-2 -10 -12 -18 -23 -18
-11 0 -21 8 -23 18 -3 13 3 17 23 17 20 0 26 -4 23 -17z m-118 -49 c0 -47 -3
-55 -17 -52 -13 2 -19 15 -21 42 -4 47 3 66 23 66 12 0 15 -12 15 -56z m118
-29 c0 -28 -4 -45 -11 -45 -24 0 -33 16 -34 53 -1 32 2 37 21 37 20 0 23 -5
24 -45z"/>
<path d="M14270 5792 c0 -6 -8 -13 -17 -15 -10 -3 -3 -5 15 -6 22 -1 32 3 30
11 -5 15 -28 23 -28 10z"/>
<path d="M11890 5765 c0 -23 -3 -24 -67 -28 l-68 -3 68 -2 67 -2 0 -95 0 -95
-27 -1 -28 -1 28 -10 c16 -5 30 -8 33 -5 3 3 8 29 11 59 5 53 7 55 57 83 39
23 46 30 32 33 -11 2 -24 -2 -30 -10 -6 -8 -21 -20 -33 -27 -22 -11 -23 -10
-23 29 l0 40 60 0 c37 0 60 4 60 11 0 7 -10 9 -25 5 -18 -5 -25 -2 -25 8 0 9
-9 20 -21 26 -20 11 -20 11 -3 -15 l17 -27 -34 4 c-29 3 -34 6 -31 26 2 12 -2
22 -7 22 -6 0 -11 -11 -11 -25z"/>
<path d="M13422 5774 c10 -10 20 -15 24 -12 3 4 -5 12 -18 18 -22 12 -22 12
-6 -6z"/>
<path d="M14050 5782 c0 -6 21 -12 47 -14 l47 -3 -32 -36 c-43 -49 -41 -58 13
-51 43 4 45 4 45 -22 0 -25 -3 -26 -50 -26 -27 0 -50 -4 -50 -10 0 -5 23 -10
50 -10 49 0 50 -1 50 -30 0 -29 0 -29 -67 -33 -38 -2 -6 -4 70 -5 75 -1 137 2
137 7 0 5 -29 6 -65 3 l-65 -5 0 32 c0 31 1 31 50 31 28 0 50 5 50 10 0 6 -23
10 -50 10 -49 0 -51 1 -48 28 3 22 9 28 38 32 23 4 41 1 53 -9 15 -12 17 -12
17 1 0 8 -13 24 -30 36 -37 27 -49 28 -25 2 18 -20 17 -20 -43 -20 -33 0 -69
-3 -79 -7 -13 -5 -8 5 15 34 26 33 41 43 70 46 20 2 2 4 -40 5 -42 1 -83 5
-92 8 -9 3 -16 1 -16 -4z"/>
<path d="M12699 5759 c-17 -33 -121 -173 -131 -177 -15 -7 -8 -22 10 -22 12 0
21 11 27 33 8 26 16 33 43 35 29 3 32 1 32 -22 0 -14 -6 -26 -12 -26 -7 0 -5
-5 5 -11 21 -12 59 -3 39 10 -10 6 -10 28 -2 101 6 51 9 95 6 97 -2 3 -10 -6
-17 -18z m-13 -95 c-3 -8 -15 -14 -26 -14 -21 0 -21 0 2 32 19 27 23 29 26 15
2 -10 1 -25 -2 -33z"/>
<path d="M12998 5754 c5 -26 -36 -166 -52 -176 -24 -16 95 -12 136 4 36 13 68
66 68 110 0 52 -35 80 -103 82 -49 1 -53 -1 -49 -20z m103 -4 c30 -17 27 -103
-5 -135 -23 -23 -91 -44 -103 -32 -3 4 5 45 18 92 21 76 26 85 47 85 13 0 32
-5 43 -10z"/>
<path d="M5470 5755 c0 -10 -11 -15 -35 -15 -19 0 -35 -4 -35 -9 0 -5 18 -7
40 -4 34 5 40 3 40 -13 1 -18 1 -18 11 -1 5 9 17 17 25 17 8 0 13 4 9 10 -3 5
-12 7 -20 3 -9 -3 -15 1 -15 11 0 9 -4 16 -10 16 -5 0 -10 -7 -10 -15z"/>
<path d="M5580 5755 c0 -8 -8 -15 -17 -15 -12 0 -14 -3 -7 -8 7 -4 14 -16 17
-27 5 -19 5 -19 12 3 6 18 15 22 47 22 22 0 37 4 33 9 -3 5 -22 7 -43 4 -34
-6 -36 -5 -23 10 12 15 11 17 -3 17 -9 0 -16 -7 -16 -15z"/>
<path d="M6315 5751 c4 -13 -1 -21 -17 -26 -20 -7 -18 -9 15 -12 20 -2 37 -8
37 -12 0 -23 -33 -96 -60 -136 -17 -25 -27 -45 -22 -45 4 0 19 18 32 40 27 42
20 40 150 44 49 1 55 -1 56 -19 2 -41 -14 -65 -43 -65 -25 0 -26 -1 -8 -14 34
-25 51 -3 70 91 6 29 4 31 -15 26 -19 -5 -21 -2 -18 23 2 23 -1 29 -14 28 -13
-1 -18 6 -18 26 0 27 -1 27 -46 22 l-47 -5 7 28 c5 20 3 26 -6 23 -7 -3 -14
-10 -14 -16 -1 -7 -2 -18 -3 -24 -1 -7 -9 -1 -17 15 -17 31 -28 36 -19 8z
m125 -61 c0 -17 -7 -20 -40 -20 -33 0 -40 3 -40 20 0 17 7 20 40 20 33 0 40
-3 40 -20z m30 -50 c0 -18 -7 -20 -65 -20 -36 0 -65 2 -65 4 0 28 16 36 71 36
52 0 59 -2 59 -20z"/>
<path d="M7458 5648 l-3 -123 -60 -6 c-42 -4 -20 -6 77 -7 75 -1 139 2 142 7
7 11 -17 21 -31 13 -6 -4 -33 -7 -60 -7 l-48 0 -3 68 -3 67 61 0 c34 0 59 4
56 8 -3 5 -31 7 -62 4 l-57 -5 5 52 c3 28 1 51 -3 51 -5 0 -10 -55 -11 -122z"/>
<path d="M7715 5739 c-5 -20 -11 -29 -21 -25 -11 4 -14 -13 -14 -96 0 -79 3
-99 12 -90 7 7 24 12 38 12 14 0 31 -5 38 -12 9 -9 12 11 12 90 l0 102 -32 -7
-33 -6 18 26 c21 32 21 37 3 37 -8 0 -17 -14 -21 -31z m45 -69 c0 -27 -3 -30
-30 -30 -27 0 -30 3 -30 30 0 27 3 30 30 30 27 0 30 -3 30 -30z m0 -81 c0 -37
-2 -39 -30 -39 -28 0 -30 2 -30 38 0 36 2 39 30 40 28 1 30 -1 30 -39z"/>
<path d="M7808 5712 c-13 -45 -14 -53 -2 -38 8 11 14 23 14 28 0 4 23 8 51 8
l52 0 -6 -77 c-7 -98 -13 -113 -46 -114 -26 0 -26 -1 -4 -11 17 -8 26 -8 37 2
17 13 22 39 30 147 l6 72 -55 -6 c-44 -5 -55 -3 -55 9 0 8 5 19 12 26 9 9 9
12 -2 12 -10 0 -21 -22 -32 -58z"/>
<path d="M8408 5763 l-58 -4 0 -53 c0 -51 1 -53 25 -48 18 3 25 0 25 -11 0
-10 -12 -17 -32 -20 l-33 -4 33 -1 c20 -1 32 -7 32 -16 0 -9 -13 -16 -32 -19
-18 -2 2 -5 45 -5 l77 -2 0 -47 c0 -25 3 -43 8 -39 4 4 7 31 7 59 l0 52 43 2
42 3 0 -40 c0 -31 -4 -40 -17 -41 -15 0 -15 -2 2 -9 33 -14 35 -12 35 48 l0
59 -30 -5 c-29 -4 -30 -3 -30 32 0 33 2 36 30 36 17 0 30 5 30 11 0 7 -11 8
-31 4 l-32 -7 6 36 c4 27 2 36 -9 36 -11 0 -14 -17 -14 -76 0 -71 -1 -76 -20
-71 -14 4 -20 0 -20 -12 0 -13 -9 -18 -35 -19 -25 -1 -35 3 -35 13 0 10 10 15
30 15 17 0 30 5 30 11 0 7 -11 8 -30 4 -23 -5 -30 -3 -30 9 0 10 9 16 25 16
22 0 25 5 25 33 0 17 3 42 6 55 4 12 2 21 -2 20 -5 -1 -35 -3 -66 -5z m-8 -55
c0 -39 -22 -54 -34 -22 -11 28 -6 39 9 20 13 -18 15 -18 15 -3 0 10 -7 20 -15
23 -18 7 -12 21 10 21 11 0 15 -11 15 -39z m55 32 c3 -5 -1 -10 -9 -10 -9 0
-16 -5 -16 -12 0 -6 -3 -9 -6 -5 -9 8 3 37 15 37 5 0 13 -4 16 -10z m5 -45 c0
-18 -5 -25 -20 -25 -23 0 -24 3 -8 30 17 27 28 25 28 -5z"/>
<path d="M8710 5728 c-13 -44 -15 -223 -2 -243 4 -5 10 49 13 120 3 72 9 138
13 148 5 9 4 17 -1 17 -6 0 -16 -19 -23 -42z"/>
<path d="M8834 5755 c4 -12 -4 -15 -44 -15 -28 0 -50 -4 -50 -10 0 -5 23 -10
51 -10 36 0 49 -4 46 -12 -2 -8 -19 -13 -41 -12 l-36 1 0 -43 c0 -44 0 -44 35
-44 37 0 41 -5 25 -30 -7 -12 -12 -12 -22 -2 -6 6 -16 12 -22 12 -5 0 1 -9 13
-19 l22 -19 -25 -18 c-13 -11 -32 -24 -42 -31 -11 -6 -14 -12 -8 -12 6 -1 27
10 47 24 l37 24 49 -21 c30 -12 58 -17 68 -13 13 5 3 11 -37 21 -66 18 -70 21
-63 56 4 23 11 27 46 30 40 3 40 3 40 43 0 40 0 40 -36 37 -28 -3 -37 0 -37
12 0 12 11 16 46 16 32 0 44 4 42 12 -3 8 -20 11 -46 9 -33 -2 -42 1 -42 13 0
9 -5 16 -11 16 -6 0 -9 -7 -5 -15z m1 -95 c-6 -32 -13 -38 -38 -33 -15 3 -23
12 -25 29 -2 21 2 24 33 24 28 0 33 -3 30 -20z m75 -5 c0 -21 -5 -25 -30 -25
-25 0 -30 4 -30 25 0 21 5 25 30 25 25 0 30 -4 30 -25z"/>
<path d="M9050 5748 c-31 -46 -31 -48 -17 -42 21 8 60 64 45 64 -7 0 -20 -10
-28 -22z"/>
<path d="M9122 5723 l3 -48 58 -5 57 -5 0 30 c0 16 3 39 6 51 5 19 1 21 -61
22 l-67 2 4 -47z m106 15 c-4 -11 -53 -18 -75 -10 -29 10 -10 22 33 22 30 0
44 -4 42 -12z m0 -40 c-6 -17 -88 -18 -88 -1 0 9 15 13 46 13 31 0 44 -4 42
-12z"/>
<path d="M11062 5754 c-26 -18 -28 -46 -6 -68 22 -23 41 -20 60 9 15 23 15 27
0 50 -19 29 -24 30 -54 9z m36 -13 c19 -11 11 -45 -11 -49 -19 -4 -32 20 -23
43 6 17 15 19 34 6z"/>
<path d="M12407 5671 c-53 -54 -97 -101 -97 -104 0 -11 188 -8 195 3 3 5 -27
10 -76 12 l-83 3 84 88 c45 48 81 90 78 92 -2 3 -48 -40 -101 -94z"/>
<path d="M12810 5747 c0 -36 -37 -161 -49 -165 -6 -2 -11 -7 -11 -12 0 -8 145
-8 154 0 2 3 7 19 10 35 6 27 5 28 -5 8 -12 -23 -37 -33 -81 -33 -31 0 -34 10
-17 59 12 35 42 42 58 14 8 -14 10 -15 11 -3 0 8 3 26 7 39 6 23 6 23 -21 6
-33 -22 -39 -17 -31 29 7 34 9 36 46 36 22 0 39 -5 39 -11 0 -5 5 -7 10 -4 25
16 5 25 -55 25 -61 0 -65 -1 -65 -23z"/>
<path d="M3337 5753 c-3 -5 -8 -32 -11 -61 -6 -52 -29 -109 -69 -167 l-21 -30
23 20 c13 11 29 32 37 47 14 27 16 28 104 28 50 0 90 -3 90 -7 0 -5 -5 -25
-11 -46 -9 -34 -13 -38 -35 -33 -13 4 -24 2 -24 -3 0 -14 42 -21 56 -10 7 6
17 33 23 60 14 62 14 59 -4 53 -24 -10 -35 4 -25 31 9 22 7 25 -16 25 -21 0
-23 3 -14 19 15 29 13 31 -22 30 -18 -1 -25 -3 -15 -6 12 -3 17 -12 15 -26 -2
-17 -11 -23 -41 -25 l-37 -3 6 55 c6 51 3 68 -9 49z m116 -133 c-5 -17 -14
-20 -69 -20 -47 0 -64 4 -64 13 0 23 11 27 76 27 57 0 62 -2 57 -20z"/>
<path d="M4127 5753 c-4 -3 -38 -5 -77 -4 l-70 1 0 -65 0 -65 -37 -1 c-37 -1
-37 -2 -8 -8 29 -6 30 -8 27 -59 -3 -61 10 -73 55 -47 l28 16 -33 -7 -33 -6 3
49 c3 54 -7 50 131 52 42 1 77 5 77 9 0 5 -43 7 -95 5 -80 -3 -95 -1 -95 12 0
14 42 21 107 16 11 -1 24 3 28 8 4 7 -17 11 -64 11 -41 0 -71 4 -71 10 0 6 28
10 64 10 36 0 67 4 70 9 4 5 -23 8 -60 8 -46 -2 -68 2 -71 11 -4 9 14 12 66
12 38 0 72 4 76 9 6 11 -9 23 -18 14z"/>
<path d="M4376 5735 l16 -25 -68 -2 -69 -2 58 -3 c48 -3 58 -7 53 -19 -3 -9
-6 -30 -6 -48 0 -38 -42 -106 -79 -129 -16 -11 -20 -17 -10 -17 8 0 29 14 46
30 28 27 39 48 57 103 4 13 16 17 52 17 l46 0 -7 -57 c-9 -71 -10 -73 -43 -74
-16 0 -21 -3 -12 -6 8 -3 18 -10 21 -14 3 -5 14 -3 24 5 13 9 21 32 25 72 4
33 9 66 11 74 3 12 -6 14 -53 11 -57 -3 -58 -2 -58 23 0 25 1 26 69 26 66 0
98 11 66 24 -8 3 -17 1 -20 -4 -4 -6 -23 -10 -44 -10 -30 0 -42 6 -55 25 -9
14 -21 25 -26 25 -6 0 -3 -11 6 -25z"/>
<path d="M4650 5750 c-49 -5 -59 -9 -42 -15 18 -6 22 -15 22 -46 0 -32 -3 -39
-20 -39 -11 0 -20 -4 -20 -9 0 -5 10 -7 22 -3 20 5 21 2 16 -36 -3 -22 -13
-55 -22 -73 -20 -40 -20 -45 -1 -29 14 12 26 46 40 113 4 19 12 27 26 27 19 0
21 -5 18 -74 -2 -41 0 -78 4 -82 4 -4 7 29 7 74 0 75 2 82 20 82 11 0 20 5 20
10 0 6 -9 10 -20 10 -16 0 -19 6 -18 36 1 26 7 38 20 42 10 2 15 8 12 13 -3 5
-8 8 -12 7 -4 -1 -36 -4 -72 -8z m35 -55 c0 -33 -3 -40 -20 -40 -16 0 -20 7
-21 35 -1 44 3 52 24 48 13 -2 17 -14 17 -43z"/>
<path d="M4802 5740 c-7 -11 -27 -29 -45 -40 -18 -11 -26 -20 -19 -20 21 0 65
29 85 56 13 17 14 24 5 24 -7 0 -19 -9 -26 -20z"/>
<path d="M9656 5654 c-97 -101 -99 -104 -70 -105 16 -1 52 -3 79 -5 28 -2 61
0 75 4 17 4 -3 8 -60 12 l-85 5 83 85 c45 46 82 90 82 97 0 17 9 25 -104 -93z"/>
<path d="M9878 5746 c-68 -30 -100 -127 -59 -177 27 -33 92 -33 123 0 l23 24
-25 -17 c-31 -20 -84 -21 -100 -1 -18 22 -8 110 16 136 38 43 104 48 104 9 0
-10 5 -22 10 -25 6 -3 10 3 10 14 0 10 2 25 5 33 7 18 -70 21 -107 4z"/>
<path d="M10048 5754 c6 -3 12 -13 12 -22 0 -28 -43 -167 -54 -174 -6 -4 14
-8 44 -8 68 0 100 19 100 60 0 16 -5 32 -11 35 -6 5 -3 13 10 22 24 16 28 55
7 72 -8 6 -38 14 -67 16 -30 3 -48 3 -41 -1z m90 -42 c5 -30 -14 -52 -45 -52
-19 0 -24 4 -19 16 3 9 9 27 12 40 8 33 48 30 52 -4z m-18 -77 c18 -22 -2 -63
-35 -71 -34 -9 -38 -3 -30 45 6 34 11 41 30 41 12 0 28 -7 35 -15z"/>
<path d="M10244 5742 c8 -25 -32 -165 -51 -179 -14 -11 -3 -13 63 -13 77 0 81
1 92 25 15 33 15 44 -1 24 -17 -23 -52 -39 -81 -39 -27 0 -33 19 -20 68 8 28
53 32 55 5 1 -12 4 -10 9 7 9 28 12 63 3 43 -5 -15 -53 -18 -53 -4 0 5 4 21
10 35 8 21 16 26 44 26 23 0 39 -6 45 -17 9 -15 10 -14 11 10 0 27 -1 27 -66
27 -58 0 -65 -2 -60 -18z"/>
<path d="M10763 5696 c-55 -82 -55 -93 -3 -88 39 4 40 3 40 -28 0 -39 23 -36
28 3 2 17 9 27 20 27 16 1 16 1 0 13 -12 10 -17 31 -19 75 -1 37 -7 62 -13 62
-6 0 -30 -29 -53 -64z m34 -63 c-3 -2 -16 -3 -30 -1 l-25 3 26 45 27 45 3 -44
c2 -23 1 -45 -1 -48z"/>
<path d="M10894 5725 c-7 -19 -14 -51 -14 -72 0 -45 33 -103 58 -103 27 0 62
37 63 68 4 101 -14 142 -62 142 -25 0 -32 -6 -45 -35z m72 14 c3 -6 6 -43 6
-82 -1 -51 -5 -75 -17 -86 -15 -15 -17 -14 -31 3 -31 43 -16 176 20 176 8 0
18 -5 22 -11z"/>
<path d="M6832 5731 c-18 -12 -41 -35 -52 -53 -36 -59 -22 -110 36 -134 30
-13 38 -13 63 1 17 8 32 19 36 25 3 5 -7 3 -22 -5 -67 -35 -108 -8 -101 67 5
51 27 84 67 99 34 13 58 3 66 -29 l8 -27 8 29 c5 17 7 31 6 33 -2 1 -21 5 -42
8 -30 4 -48 1 -73 -14z"/>
<path d="M1526 5733 c-3 -3 -6 -20 -6 -36 l0 -30 -50 6 -50 6 0 -63 0 -63 50
5 50 5 0 -57 c0 -36 4 -55 10 -51 6 3 10 28 10 56 0 48 0 49 33 50 75 3 71 -1
68 59 -3 62 -6 69 -23 52 -9 -9 -9 -12 0 -12 7 0 12 -16 12 -40 l0 -40 -45 0
-45 0 0 39 c0 34 4 41 28 49 l27 10 -29 1 c-25 1 -28 4 -24 26 5 25 -3 40 -16
28z m4 -113 l0 -40 -45 0 -45 0 0 40 0 40 45 0 45 0 0 -40z"/>
<path d="M3297 5719 c5 -18 3 -20 -16 -14 -13 4 -21 2 -21 -5 0 -6 12 -10 28
-8 19 2 27 9 27 22 0 11 -5 21 -12 23 -7 3 -9 -3 -6 -18z"/>
<path d="M5955 5730 c7 -12 -31 -159 -47 -177 -8 -10 5 -13 65 -13 59 0 76 3
81 16 10 27 6 40 -7 22 -14 -17 -79 -34 -95 -24 -6 4 -6 20 0 46 8 29 16 40
30 40 10 0 22 -8 25 -17 6 -15 7 -15 14 3 15 37 11 45 -16 32 -33 -15 -37 -9
-24 35 9 32 14 37 41 37 18 0 36 -7 44 -17 12 -17 13 -16 14 5 0 21 -4 22 -66
22 -41 0 -63 -4 -59 -10z"/>
<path d="M7013 5713 c-2 -44 -35 -147 -51 -160 -21 -17 94 -15 129 3 60 30 85
95 58 147 -17 32 -28 37 -84 37 -47 0 -50 -1 -52 -27z m91 7 c23 -8 26 -15 26
-58 0 -34 -6 -56 -19 -71 -20 -23 -84 -46 -100 -36 -9 5 8 94 28 148 11 29 25
33 65 17z"/>
<path d="M1085 5595 l0 -130 123 0 122 0 0 130 0 130 -122 0 -123 0 0 -130z
m225 10 c0 -58 1 -108 3 -112 1 -5 -45 -8 -103 -8 l-105 0 -3 111 -3 111 106
2 105 1 0 -105z"/>
<path d="M1150 5666 c0 -22 4 -27 16 -22 9 3 21 3 27 -1 7 -5 -10 -11 -38 -14
-38 -4 -27 -6 49 -7 55 -1 96 1 92 5 -4 4 -25 6 -46 4 -24 -1 -40 2 -40 8 0 6
11 11 25 11 22 0 31 15 23 36 -2 3 -27 7 -55 8 -52 1 -53 0 -53 -28z m90 4 c0
-5 -16 -10 -35 -10 -19 0 -35 5 -35 10 0 6 16 10 35 10 19 0 35 -4 35 -10z"/>
<path d="M1133 5594 c-7 -18 1 -99 10 -96 4 1 36 2 72 2 l65 0 0 53 0 52 -71
0 c-44 0 -73 -4 -76 -11z m130 -36 c-6 -43 -10 -45 -65 -40 -47 4 -48 5 -48
38 l0 34 59 0 59 0 -5 -32z"/>
<path d="M1170 5555 c0 -22 4 -25 35 -25 19 0 35 4 35 9 0 5 3 16 6 25 5 13
-2 16 -35 16 -37 0 -41 -2 -41 -25z m55 -5 c-3 -5 -12 -10 -20 -10 -8 0 -17 5
-20 10 -4 6 5 10 20 10 15 0 24 -4 20 -10z"/>
<path d="M13398 5714 c24 -17 39 -14 27 5 -3 6 -16 11 -28 11 l-21 0 22 -16z"/>
<path d="M2436 5705 c8 -19 -37 -169 -54 -182 -13 -11 -5 -13 47 -13 52 0 66
4 86 25 29 28 32 60 8 69 -14 6 -14 9 5 27 25 22 28 51 9 67 -19 16 -106 21
-101 7z m79 -16 c4 -5 4 -21 1 -35 -5 -19 -13 -24 -36 -24 -33 0 -36 7 -18 45
11 25 41 34 53 14z m-10 -114 c0 -25 -5 -32 -35 -42 -45 -14 -52 -6 -38 40 11
34 15 38 42 35 27 -3 31 -7 31 -33z"/>
<path d="M2633 5700 c-63 -38 -83 -121 -38 -165 30 -31 80 -33 115 -5 30 24
24 25 -17 5 -89 -44 -132 69 -58 149 33 35 88 34 93 -1 4 -25 22 -32 22 -9 0
8 2 21 5 29 9 23 -83 21 -122 -3z"/>
<path d="M2814 5677 c-1 -23 -10 -68 -21 -99 -19 -56 -19 -58 -2 -63 41 -13
106 6 140 42 28 28 34 42 34 79 0 61 -27 84 -99 84 l-51 0 -1 -43z m114 10
c30 -24 4 -120 -39 -142 -34 -18 -79 -20 -79 -2 0 10 30 113 45 155 5 14 50 7
73 -11z"/>
<path d="M9067 5693 c-9 -15 -25 -39 -38 -52 l-22 -23 22 7 c21 6 22 4 20 -42
-2 -68 0 -97 8 -90 3 4 5 35 4 70 -1 36 4 82 13 107 18 52 14 64 -7 23z"/>
<path d="M220 5690 c-26 -26 -26 -49 0 -25 25 23 70 13 70 -16 0 -29 -23 -69
-59 -103 -17 -17 -31 -33 -31 -38 0 -4 25 -8 55 -8 45 0 56 4 66 22 10 19 9
20 -7 13 -24 -9 -74 -16 -74 -10 0 3 16 25 35 51 41 54 46 95 13 118 -30 21
-44 20 -68 -4z"/>
<path d="M2290 5659 c-19 -28 -52 -72 -72 -99 -21 -27 -33 -52 -28 -55 15 -9
30 4 30 24 0 23 17 37 53 46 24 6 27 4 27 -18 0 -14 -8 -31 -17 -36 -15 -8
-10 -10 22 -11 28 0 36 3 28 11 -10 10 -9 95 2 162 7 39 -5 33 -45 -24z m14
-37 c-5 -23 -12 -32 -26 -32 -19 0 -19 2 -6 23 8 12 18 28 22 35 12 21 17 8
10 -26z"/>
<path d="M11818 5679 c15 -26 32 -38 32 -23 0 13 -21 42 -34 47 -12 5 -11 0 2
-24z"/>
<path d="M360 5680 c-14 -26 -8 -36 10 -15 16 19 44 19 60 0 16 -19 4 -68 -22
-91 -11 -11 -29 -31 -40 -46 l-19 -28 59 0 c51 0 60 3 65 20 5 21 -7 28 -18
10 -7 -11 -65 -14 -65 -4 0 3 16 24 35 47 30 35 35 48 33 82 -3 39 -4 40 -45
43 -34 3 -44 -1 -53 -18z"/>
<path d="M5507 5680 c-4 -17 -14 -20 -63 -20 -43 0 -55 -3 -47 -11 6 -6 30
-10 52 -7 23 2 41 -1 41 -6 0 -5 -22 -31 -50 -58 -54 -52 -56 -63 -4 -23 39
30 44 31 39 6 -2 -11 -1 -29 2 -40 5 -19 13 -21 84 -21 l79 0 0 48 0 48 -66
-4 c-71 -5 -96 6 -75 32 9 11 37 16 94 18 51 2 80 7 77 13 -3 6 -12 9 -20 8
-97 -13 -140 -8 -126 15 3 6 2 13 -3 16 -5 3 -11 -3 -14 -14z m113 -129 c0
-25 -4 -29 -32 -34 -18 -2 -48 -2 -65 1 -28 4 -33 9 -33 33 0 29 0 29 65 29
65 0 65 0 65 -29z"/>
<path d="M4816 5665 c-10 -14 -31 -35 -49 -45 -18 -11 -26 -20 -18 -20 17 0
101 67 101 81 0 17 -18 9 -34 -16z"/>
<path d="M11414 5651 c0 -32 3 -37 14 -29 15 13 12 60 -4 65 -7 2 -11 -11 -10
-36z"/>
<path d="M10470 5662 c0 -12 147 -14 155 -2 4 6 -22 10 -74 10 -45 0 -81 -4
-81 -8z"/>
<path d="M13420 5655 c-7 -8 -19 -15 -26 -15 -8 0 -14 -7 -14 -15 0 -8 3 -15
8 -15 11 1 66 60 55 60 -6 0 -16 -7 -23 -15z"/>
<path d="M5034 5646 c-10 -26 4 -48 28 -44 17 2 23 10 23 28 0 18 -6 26 -23
28 -13 2 -25 -3 -28 -12z m44 -13 c-2 -10 -10 -18 -18 -18 -8 0 -16 8 -18 18
-2 12 3 17 18 17 15 0 20 -5 18 -17z"/>
<path d="M7830 5654 c0 -5 11 -22 25 -39 16 -20 24 -25 25 -14 0 8 -11 26 -25
39 -14 13 -25 19 -25 14z"/>
<path d="M8125 5650 c-71 -3 -125 -8 -120 -12 12 -7 229 -8 262 -1 23 5 22 25
0 21 -7 -1 -70 -5 -142 -8z"/>
<path d="M8676 5651 c-4 -7 -5 -15 -2 -18 9 -9 19 4 14 18 -4 11 -6 11 -12 0z"/>
<path d="M13715 5650 c-3 -5 -1 -10 4 -10 6 0 11 5 11 10 0 6 -2 10 -4 10 -3
0 -8 -4 -11 -10z"/>
<path d="M3812 5641 c-8 -5 -64 -9 -125 -10 -60 0 -113 -3 -116 -6 -3 -3 58
-4 135 -3 76 2 137 6 135 11 -7 14 -16 17 -29 8z"/>
<path d="M9086 5639 c3 -5 34 -9 69 -9 53 0 63 -3 59 -15 -5 -11 -20 -14 -70
-11 -35 2 -64 -1 -64 -5 0 -5 31 -9 68 -9 l69 0 -3 -27 c-1 -16 -2 -32 -3 -37
-1 -4 -13 -5 -28 -2 l-28 6 28 -15 c36 -21 47 -12 47 35 0 35 3 39 28 42 15 2
25 8 22 13 -3 6 -8 9 -12 8 -23 -8 -31 -7 -35 5 -3 7 5 12 21 12 14 0 26 5 26
10 0 7 -38 10 -100 9 -56 0 -97 -5 -94 -10z"/>
<path d="M1854 5601 c0 -32 3 -37 14 -29 15 13 12 60 -4 65 -7 2 -11 -11 -10
-36z"/>
<path d="M11825 5605 c-16 -14 -36 -25 -42 -25 -7 0 -13 -4 -13 -9 0 -23 19
-17 61 19 48 42 43 55 -6 15z"/>
<path d="M11920 5623 c0 -14 54 -60 81 -68 34 -11 33 2 -3 20 -18 10 -43 27
-55 38 -13 11 -23 16 -23 10z"/>
<path d="M4835 5589 c-11 -16 -42 -45 -70 -64 -27 -19 -44 -35 -38 -35 15 0
86 50 101 71 7 10 19 25 27 33 8 8 12 17 7 20 -4 2 -17 -9 -27 -25z"/>
<path d="M10470 5602 c0 -12 147 -14 155 -2 4 6 -22 10 -74 10 -45 0 -81 -4
-81 -8z"/>
<path d="M13626 5601 c-3 -5 -25 -7 -49 -4 -23 3 -39 3 -36 -1 10 -11 97 -17
103 -7 4 5 2 12 -3 15 -5 4 -12 2 -15 -3z"/>
<path d="M13945 5600 c-3 -5 3 -10 14 -10 12 0 21 5 21 10 0 6 -6 10 -14 10
-8 0 -18 -4 -21 -10z"/>
<path d="M4120 5580 c-28 -24 -29 -24 -52 -3 -10 9 -18 11 -18 6 0 -24 97 -93
131 -93 20 0 7 18 -18 25 -14 3 -35 12 -45 19 -18 13 -17 15 13 33 17 11 27
23 21 27 -5 3 -20 -3 -32 -14z"/>
<path d="M13380 5590 c0 -6 17 -10 37 -10 43 0 41 5 -4 13 -19 4 -33 2 -33 -3z"/>
<path d="M6414 5577 c3 -10 6 -23 6 -28 0 -5 5 -9 10 -9 14 0 12 13 -6 36 -14
17 -15 17 -10 1z"/>
<path d="M6460 5585 c0 -18 19 -40 26 -32 4 4 0 15 -9 24 -9 10 -17 13 -17 8z"/>
<path d="M3446 5555 c9 -14 19 -24 21 -21 6 6 -20 46 -30 46 -4 0 0 -11 9 -25z"/>
<path d="M6326 5556 c-18 -29 -21 -50 -5 -41 11 8 32 56 26 62 -3 2 -12 -8
-21 -21z"/>
<path d="M6370 5558 c0 -16 5 -28 10 -28 13 0 13 20 0 40 -8 12 -10 9 -10 -12z"/>
<path d="M9132 5560 c13 -20 28 -27 28 -12 0 10 -22 32 -32 32 -5 0 -3 -9 4
-20z"/>
<path d="M3394 5557 c3 -10 6 -23 6 -28 0 -5 5 -9 10 -9 14 0 12 13 -6 36 -14
17 -15 17 -10 1z"/>
<path d="M3306 5535 c-17 -26 -21 -50 -7 -41 9 6 33 66 27 66 -2 0 -11 -11
-20 -25z"/>
<path d="M3352 5530 c0 -19 2 -27 5 -17 2 9 2 25 0 35 -3 9 -5 1 -5 -18z"/>
<path d="M8351 5536 c-6 -16 -10 -31 -7 -33 7 -8 28 37 23 50 -3 7 -10 -1 -16
-17z"/>
<path d="M8388 5535 c2 -14 6 -25 8 -25 2 0 4 11 4 25 0 14 -4 25 -9 25 -4 0
-6 -11 -3 -25z"/>
<path d="M8421 5553 c0 -4 4 -17 9 -28 8 -19 9 -19 9 2 1 12 -3 25 -9 28 -5 3
-10 3 -9 -2z"/>
<path d="M8457 5540 c3 -11 9 -20 14 -20 11 0 11 3 3 24 -9 23 -23 20 -17 -4z"/>
<path d="M517 5516 c-7 -18 1 -26 18 -19 8 2 11 11 8 19 -7 18 -19 18 -26 0z"/>
<path d="M2525 5279 c6 -19 4 -20 -52 -18 l-58 3 -2 -97 c-1 -53 -7 -106 -13
-118 -7 -11 -9 -23 -6 -26 12 -12 36 69 36 122 0 54 0 55 30 55 25 0 30 -4 30
-25 0 -23 3 -25 50 -25 47 0 50 2 50 25 0 21 5 25 29 25 17 0 33 5 37 11 5 9
-4 10 -31 5 -32 -6 -37 -5 -32 8 4 9 2 16 -2 16 -5 0 -11 -7 -15 -15 -3 -9
-18 -15 -36 -15 -23 0 -30 4 -30 20 0 18 7 20 75 20 41 0 75 4 75 9 0 15 -18
23 -25 11 -3 -5 -24 -10 -45 -10 -30 0 -40 5 -45 20 -3 11 -11 20 -16 20 -6 0
-7 -9 -4 -21z m-32 -49 c-4 -14 -14 -20 -34 -20 -22 0 -29 5 -29 20 0 16 7 20
34 20 29 0 33 -3 29 -20z m82 -50 c0 -10 -12 -16 -32 -18 -28 -3 -33 0 -33 18
0 18 5 21 33 18 20 -2 32 -8 32 -18z"/>
<path d="M1440 5256 c0 -28 -4 -35 -22 -39 l-23 -4 23 -2 c18 -1 22 -7 22 -35
0 -26 -5 -36 -20 -41 -11 -3 -20 -11 -20 -16 0 -6 9 -7 20 -4 18 6 20 2 20
-40 0 -38 -3 -46 -15 -41 -8 3 -15 1 -15 -3 0 -11 29 -23 40 -16 5 3 8 26 8
53 0 70 1 72 16 72 8 0 18 5 21 10 4 7 -3 8 -20 4 -25 -6 -26 -4 -23 22 2 20
10 30 28 35 24 7 21 11 -10 13 -11 1 -14 10 -12 34 2 18 -1 32 -7 32 -6 0 -11
-15 -11 -34z"/>
<path d="M1557 5270 c5 -17 0 -20 -33 -21 -22 -1 -30 -3 -19 -6 24 -6 35 -21
35 -47 0 -14 -6 -17 -25 -14 -14 3 -25 1 -25 -3 0 -5 14 -9 31 -9 24 0 30 -3
25 -16 -3 -9 -6 -18 -6 -20 0 -2 -12 -5 -27 -5 -24 -2 -25 -2 -5 -6 17 -4 21
-9 16 -28 -4 -18 -1 -25 15 -30 31 -9 26 -20 -16 -39 -34 -14 -35 -15 -8 -10
17 3 38 13 48 22 17 15 21 15 59 -7 38 -22 57 -23 44 -2 -3 5 -20 12 -36 16
-33 7 -35 13 -18 50 7 16 19 25 35 25 12 0 23 5 23 11 0 7 -10 9 -26 5 -17 -5
-23 -3 -19 4 3 5 2 10 -4 10 -5 0 -13 -4 -16 -10 -3 -5 -15 -10 -27 -10 -14 0
-18 5 -14 16 3 9 6 18 6 20 0 2 23 4 50 4 29 0 50 5 50 11 0 7 -11 8 -30 4
-16 -4 -30 -4 -30 0 0 15 34 55 47 55 8 0 11 5 8 10 -4 6 -23 7 -45 4 -33 -5
-39 -3 -45 15 -8 27 -25 28 -18 1z m53 -41 c0 -19 -20 -49 -33 -49 -7 0 -18
14 -24 30 -11 30 -11 30 23 30 19 0 34 -5 34 -11z m-10 -121 c0 -28 -18 -41
-44 -34 -23 6 -25 9 -16 26 12 22 60 28 60 8z"/>
<path d="M1767 5260 c8 -17 19 -28 24 -25 10 7 -18 55 -31 55 -5 0 -2 -14 7
-30z"/>
<path d="M1930 5274 c-19 -7 -45 -13 -57 -13 -14 -1 -24 -8 -24 -18 -1 -10 -3
-36 -5 -58 -3 -45 -10 -81 -19 -110 -7 -20 -6 -20 9 -1 9 11 19 41 22 68 6 46
8 48 40 48 l33 0 4 -72 3 -73 2 73 2 72 30 0 c17 0 30 4 30 9 0 6 -29 7 -70 4
l-70 -6 0 27 c0 22 5 26 28 27 34 1 99 24 86 30 -5 3 -25 0 -44 -7z"/>
<path d="M2107 5260 c-4 -18 -13 -30 -22 -30 -12 0 -15 -17 -15 -102 1 -75 3
-98 11 -85 11 19 69 24 69 6 0 -5 5 -7 10 -4 6 3 10 48 10 100 l0 95 -29 -6
c-26 -6 -29 -4 -24 15 3 11 9 21 14 21 5 0 9 5 9 10 0 24 -28 7 -33 -20z m43
-73 c0 -31 -2 -33 -32 -33 -30 1 -33 4 -36 34 -3 31 -2 32 32 32 34 0 36 -2
36 -33z m0 -82 c0 -33 -2 -35 -35 -35 -33 0 -35 2 -35 35 0 33 2 35 35 35 33
0 35 -2 35 -35z"/>
<path d="M2195 5234 c-17 -60 -15 -86 3 -35 10 29 14 31 62 31 l51 0 -7 -87
c-3 -49 -8 -92 -11 -96 -3 -5 -18 -7 -34 -5 -36 6 -37 -3 -4 -19 46 -21 58 4
70 153 l6 71 -57 -5 -57 -5 7 27 c13 52 -13 25 -29 -30z"/>
<path d="M1120 5233 c0 -24 5 -43 10 -43 6 0 10 16 10 35 l0 35 70 0 70 0 0
-35 c0 -19 5 -35 10 -35 6 0 10 19 10 43 l0 42 -90 0 -90 0 0 -42z"/>
<path d="M1195 5241 l-50 -6 40 -6 c46 -6 87 0 79 12 -3 5 -8 8 -12 7 -4 0
-29 -4 -57 -7z"/>
<path d="M1198 5213 c-27 -2 -48 -9 -48 -15 0 -6 10 -8 23 -4 12 3 39 6 60 6
23 0 36 4 32 10 -3 6 -9 9 -13 8 -4 -1 -28 -3 -54 -5z"/>
<path d="M1753 5203 c31 -5 33 -10 11 -41 -14 -21 -14 -22 5 -22 34 0 23 -60
-15 -80 -13 -7 -21 -17 -18 -22 3 -5 12 -4 20 3 11 9 23 8 52 -5 20 -9 53 -18
72 -21 47 -6 120 5 120 17 0 7 -18 8 -47 5 -55 -7 -139 5 -155 21 -8 8 -6 22
6 52 20 51 20 53 -4 45 -24 -8 -25 3 -4 33 15 22 15 22 -28 21 -30 -2 -35 -3
-15 -6z"/>
<path d="M1315 5180 c-4 -7 -49 -10 -121 -9 -63 1 -118 -1 -121 -5 -4 -3 1 -6
10 -6 14 0 17 -10 17 -55 0 -30 -4 -55 -10 -55 -5 0 -10 -7 -10 -14 0 -13 4
-13 35 0 50 20 63 18 68 -13 2 -16 5 9 6 55 l1 82 75 0 c41 0 75 4 75 9 0 15
-18 22 -25 11z m-135 -30 c0 -5 -13 -10 -30 -10 -16 0 -30 5 -30 10 0 6 14 10
30 10 17 0 30 -4 30 -10z m0 -40 c0 -5 -13 -10 -30 -10 -16 0 -30 5 -30 10 0
6 14 10 30 10 17 0 30 -4 30 -10z m-5 -41 c-8 -12 -55 -12 -55 0 0 10 39 20
53 13 4 -2 5 -8 2 -13z"/>
<path d="M2837 5184 c-13 -13 -7 -52 9 -58 22 -9 46 13 42 38 -3 21 -37 34
-51 20z m41 -27 c2 -10 -3 -17 -12 -17 -18 0 -29 16 -21 31 9 14 29 6 33 -14z"/>
<path d="M2238 5139 c15 -26 32 -38 32 -23 0 13 -21 42 -34 47 -12 5 -11 0 2
-24z"/>
<path d="M1258 5141 l-48 -6 25 -43 24 -43 -32 -19 c-18 -11 -25 -20 -17 -20
9 0 26 7 38 16 20 14 25 14 52 -3 21 -12 33 -14 41 -6 7 7 2 14 -21 22 -27 9
-30 14 -25 33 4 13 13 33 21 44 12 20 9 36 -5 32 -3 0 -27 -4 -53 -7z m42 -16
c0 -10 -24 -55 -30 -55 -12 0 -30 24 -30 42 0 13 8 18 30 18 17 0 30 -2 30 -5z"/>
<path d="M2485 5122 c-2 -3 9 -18 25 -34 17 -15 30 -30 30 -32 0 -2 -21 -9
-47 -16 -27 -7 -52 -17 -57 -21 -14 -13 -6 -11 62 10 57 19 63 19 102 4 28
-11 44 -13 51 -6 7 7 0 13 -25 17 -46 9 -53 22 -27 50 12 12 21 26 21 29 0 8
-127 7 -135 -1z m90 -32 c-16 -18 -19 -18 -41 -3 -13 8 -24 17 -24 19 0 2 19
4 42 4 40 0 41 0 23 -20z"/>
<path d="M10367 4822 c9 -6 6 -29 -13 -92 -13 -47 -29 -87 -34 -88 -28 -10 9
-22 64 -22 67 0 78 6 91 50 l8 25 -26 -27 c-19 -20 -36 -28 -62 -28 -39 0 -42
8 -24 59 12 35 21 38 43 15 17 -16 17 -17 32 34 4 14 -12 16 -21 2 -3 -5 -15
-10 -25 -10 -18 0 -18 3 -6 38 10 29 19 38 41 40 19 3 33 -2 42 -14 12 -17 13
-16 13 4 0 20 -5 22 -67 22 -38 0 -63 -4 -56 -8z"/>
<path d="M13294 4791 c-40 -24 -68 -82 -59 -122 14 -64 88 -91 136 -49 l24 21
-34 -16 c-65 -32 -108 3 -97 80 8 47 34 82 71 91 34 8 56 -2 63 -28 5 -21 6
-21 13 -2 15 39 11 44 -38 44 -29 0 -60 -7 -79 -19z"/>
<path d="M6598 4771 c11 -7 9 -22 -8 -82 -12 -41 -25 -82 -31 -91 -14 -27 -12
-28 34 -27 67 2 125 32 142 73 22 51 19 74 -14 107 -25 25 -37 29 -83 29 -32
0 -48 -4 -40 -9z m110 -23 c7 -7 12 -31 12 -54 0 -58 -31 -93 -88 -101 -23 -3
-42 -2 -42 3 0 5 9 41 20 79 11 39 20 73 20 78 0 12 65 8 78 -5z"/>
<path d="M12513 4553 c-15 -4 -1809 -13 -3773 -19 -1081 -3 -1967 -8 -1969
-10 -4 -4 -4 -48 5 -2189 4 -841 8 -1532 11 -1535 10 -10 6342 -3 6369 7 11 4
12 361 9 1870 -2 1026 -7 1868 -10 1872 -6 5 -621 9 -642 4z m627 -835 c2
-2103 2 -2081 -12 -2076 -32 12 -166 -13 -224 -41 -61 -30 -156 -114 -180
-159 -12 -24 -12 -24 -42 20 -16 24 -38 53 -48 64 -11 12 -55 72 -99 134 -107
149 -156 215 -251 340 -44 58 -94 125 -111 150 -17 25 -39 54 -50 65 -10 11
-35 43 -55 70 -20 28 -62 84 -93 125 -151 200 -536 713 -578 770 -27 36 -67
90 -90 121 -23 31 -130 172 -237 314 -107 142 -215 285 -240 320 -25 34 -63
83 -85 109 -22 26 -42 53 -44 59 -2 7 -66 91 -141 188 -76 97 -142 185 -148
196 -11 20 -7 20 136 26 81 3 388 6 682 7 294 1 536 3 537 3 1 1 310 4 687 5
l686 4 0 -814z m-2802 793 c-7 -20 -404 -421 -416 -421 -23 0 -92 40 -132 77
-77 69 -140 207 -140 307 l0 36 343 3 c188 1 344 3 345 5 2 1 2 -2 0 -7z
m-708 -47 c0 -57 23 -137 54 -189 14 -22 32 -53 40 -70 16 -29 94 -92 157
-127 l30 -16 -163 -169 c-166 -171 -287 -296 -515 -529 -70 -72 -198 -204
-283 -295 -155 -164 -314 -330 -615 -639 -496 -513 -694 -717 -730 -755 -22
-23 -96 -102 -165 -176 -69 -73 -207 -216 -306 -318 -100 -102 -216 -222 -258
-265 l-76 -80 0 680 c0 373 -3 1199 -7 1835 l-6 1157 1422 0 1421 1 0 -45z
m842 -94 c133 -177 361 -477 502 -663 67 -87 128 -168 136 -180 24 -35 131
-178 178 -237 42 -54 156 -206 275 -369 34 -46 94 -124 132 -175 39 -50 115
-152 169 -226 55 -74 113 -151 130 -171 17 -20 49 -62 71 -93 22 -32 50 -70
62 -84 12 -15 46 -59 75 -99 29 -39 87 -116 129 -170 42 -54 102 -136 134
-183 33 -47 85 -119 117 -160 32 -41 84 -111 115 -155 31 -44 75 -103 97 -132
66 -84 74 -94 149 -196 40 -54 96 -128 125 -165 28 -37 52 -70 52 -74 0 -5
-219 -8 -487 -9 -269 0 -687 -2 -931 -5 -646 -8 -4872 -7 -4880 0 -3 4 14 26
38 50 103 98 603 615 703 726 28 30 132 138 231 240 186 191 561 578 721 745
50 52 133 138 185 192 52 54 171 179 265 278 93 99 204 214 245 255 76 77 558
574 751 775 58 61 150 156 205 213 54 57 119 125 144 152 25 26 50 47 57 46 6
0 53 -57 105 -126z m2668 -2812 c0 -35 3 -209 6 -388 5 -222 3 -322 -4 -315
-14 13 -139 178 -290 379 -96 129 -122 170 -117 186 10 32 115 129 165 153 59
27 134 45 193 46 l47 1 0 -62z"/>
<path d="M12708 1926 c-9 -13 -30 -46 -47 -74 -32 -55 -29 -63 27 -54 29 4 32
2 32 -23 0 -17 4 -25 13 -22 6 2 11 11 9 18 -2 7 4 19 14 26 16 11 16 13 1 19
-13 5 -17 20 -17 70 0 35 -3 64 -7 64 -5 0 -16 -11 -25 -24z m12 -61 c0 -43
-1 -45 -30 -45 l-31 0 17 33 c17 33 34 57 40 57 2 0 4 -20 4 -45z"/>
<path d="M12826 1937 c-39 -28 -40 -124 -2 -172 18 -23 28 -27 49 -21 21 5 29
16 41 56 29 97 -26 183 -88 137z m61 -28 c17 -32 16 -82 -1 -124 -28 -65 -60
-33 -60 60 0 89 32 122 61 64z"/>
<path d="M12966 1934 c-19 -19 -20 -33 -2 -56 24 -32 86 -12 86 27 0 20 -28
45 -50 45 -10 0 -26 -7 -34 -16z m54 -9 c17 -20 5 -45 -20 -45 -11 0 -23 7
-26 15 -6 15 11 45 26 45 4 0 13 -7 20 -15z"/>
<path d="M3028 4529 c-27 -15 -22 -24 15 -24 27 0 32 -3 32 -25 0 -16 -8 -29
-25 -37 -22 -11 -23 -13 -5 -13 38 0 57 -36 35 -70 -6 -9 -22 -13 -47 -12 -35
3 -37 2 -21 -14 15 -15 19 -15 55 2 31 16 39 25 41 52 2 18 -1 39 -7 46 -6 7
-8 27 -5 45 10 50 -24 76 -68 50z"/>
<path d="M3167 4519 c-17 -23 -11 -58 9 -66 8 -3 25 -2 39 1 19 5 25 13 25 34
0 51 -46 70 -73 31z m58 -24 c0 -22 -31 -33 -47 -17 -17 17 -1 44 24 40 15 -2
23 -10 23 -23z"/>
<path d="M2014 4514 c-20 -62 -70 -171 -83 -181 -12 -11 -8 -13 25 -12 21 0
33 3 27 6 -14 5 -18 52 -5 54 52 10 74 6 85 -18 9 -19 8 -26 -4 -34 -10 -6 -3
-9 24 -9 39 0 47 10 23 29 -7 6 -26 46 -41 89 -32 88 -42 103 -51 76z m24 -84
c11 -29 10 -30 -19 -30 -16 0 -29 2 -29 4 0 1 5 17 11 34 13 37 23 34 37 -8z"/>
<path d="M2872 4518 c-19 -19 -14 -30 7 -17 43 28 72 -25 29 -55 l-21 -15 26
-10 c19 -7 27 -18 27 -35 0 -33 -24 -50 -61 -42 -22 4 -29 2 -27 -7 8 -24 56
-20 84 8 21 22 25 32 19 58 -3 18 -7 52 -8 77 -2 42 -4 45 -32 48 -17 2 -36
-3 -43 -10z"/>
<path d="M2160 4336 c0 -8 4 -17 9 -20 10 -7 23 19 14 28 -11 11 -23 6 -23 -8z"/>
<path d="M2929 3780 c-41 -54 -79 -114 -79 -122 0 -5 20 -8 44 -8 38 0 43 -3
39 -18 -2 -10 3 -24 11 -31 14 -12 16 -10 16 14 0 15 8 34 18 41 16 12 16 13
0 14 -14 0 -18 12 -20 73 l-3 72 -26 -35z m11 -60 c0 -43 -12 -54 -49 -48 -19
3 -19 5 7 45 15 23 30 42 35 43 4 0 7 -18 7 -40z"/>
<path d="M3037 3792 c-19 -21 -23 -42 -5 -24 16 16 43 15 58 -3 9 -11 7 -19
-12 -38 -24 -24 -24 -24 -4 -33 25 -11 34 -63 14 -75 -7 -5 -25 -6 -40 -3 -17
3 -28 1 -28 -6 0 -18 29 -23 61 -10 40 17 54 53 35 92 -12 23 -13 35 -4 54 9
19 8 28 -7 44 -23 25 -47 26 -68 2z"/>
<path d="M3186 3789 c-22 -32 -6 -63 33 -67 25 -3 33 2 43 22 9 22 8 29 -7 46
-23 26 -50 25 -69 -1z m59 -24 c0 -22 -31 -33 -47 -17 -17 17 -1 44 24 40 15
-2 23 -10 23 -23z"/>
<path d="M1944 3774 c23 -23 23 -159 0 -172 -14 -8 -13 -10 7 -15 39 -10 110
1 130 19 22 20 25 57 5 73 -11 9 -12 18 -3 41 9 24 8 32 -8 49 -15 17 -30 21
-82 21 -59 0 -63 -1 -49 -16z m114 -28 c5 -25 -17 -46 -49 -46 -26 0 -29 3
-29 34 0 19 6 36 13 39 22 7 62 -9 65 -27z m-10 -72 c41 -28 18 -74 -37 -74
-18 0 -21 6 -21 45 0 50 16 58 58 29z"/>
<path d="M2150 3600 c0 -11 4 -20 9 -20 11 0 22 26 14 34 -12 12 -23 5 -23
-14z"/>
<path d="M2938 3063 c-27 -30 -78 -116 -78 -131 0 -10 11 -13 38 -10 34 3 37
1 40 -24 4 -35 22 -37 22 -3 0 14 7 28 15 31 18 7 20 25 3 22 -8 -2 -13 16
-16 57 -4 78 -5 80 -24 58z m-2 -109 c-5 -13 -56 -21 -56 -8 0 3 12 26 28 52
l27 47 3 -39 c2 -21 1 -44 -2 -52z"/>
<path d="M3029 3059 c-13 -25 -11 -35 3 -21 10 10 88 18 88 9 0 -2 -13 -43
-30 -91 -16 -48 -25 -86 -19 -84 9 3 47 100 68 176 l10 33 -55 -2 c-41 -2 -58
-7 -65 -20z"/>
<path d="M3186 3064 c-17 -45 7 -81 48 -70 51 13 40 86 -13 86 -17 0 -31 -6
-35 -16z m62 -26 c-3 -25 -36 -37 -48 -17 -13 20 0 39 27 39 20 0 24 -4 21
-22z"/>
<path d="M1994 3059 c-30 -15 -54 -61 -54 -103 0 -48 45 -99 86 -99 32 0 84
28 84 46 0 5 -9 2 -20 -8 -29 -26 -79 -24 -102 4 -23 29 -24 98 -2 129 22 31
84 28 99 -5 5 -13 13 -23 17 -23 11 0 10 48 0 54 -19 12 -88 15 -108 5z"/>
<path d="M13317 2882 c-25 -28 -20 -33 12 -14 24 14 31 14 45 3 30 -25 19 -68
-30 -121 l-45 -48 28 -6 c24 -4 54 -3 84 3 4 0 9 7 12 15 4 10 -5 12 -41 8
l-47 -5 26 29 c30 33 59 86 59 108 0 19 -38 46 -66 46 -11 0 -28 -8 -37 -18z"/>
<path d="M2152 2874 c2 -11 8 -18 13 -16 15 3 12 25 -3 30 -9 3 -13 -2 -10
-14z"/>
<path d="M13551 2814 c-12 -15 -21 -37 -21 -49 0 -30 37 -75 61 -75 21 0 59
34 59 53 0 6 -5 4 -11 -5 -14 -25 -56 -23 -69 2 -29 53 10 101 51 64 15 -14
19 -14 19 -3 0 44 -59 52 -89 13z"/>
<path d="M13670 2830 c-11 -7 -12 -10 -2 -10 10 0 13 -15 10 -60 -2 -37 1 -61
8 -64 21 -8 29 10 29 64 0 48 2 55 20 55 18 0 20 -7 20 -55 0 -52 9 -75 27
-64 4 3 8 29 8 59 0 39 4 54 16 59 32 12 36 6 32 -54 -3 -55 -1 -60 18 -60 19
0 20 4 13 59 -3 32 -10 64 -13 70 -9 14 -39 14 -54 -1 -8 -8 -15 -8 -27 2 -12
10 -21 10 -40 2 -15 -7 -25 -8 -25 -2 0 13 -21 13 -40 0z"/>
<path d="M3176 2331 c-26 -28 -6 -71 33 -71 43 0 59 60 22 80 -27 14 -35 13
-55 -9z m53 -10 c21 -13 5 -41 -24 -41 -20 0 -25 5 -25 25 0 26 22 33 49 16z"/>
<path d="M2887 2303 l-15 -38 39 -19 c31 -15 39 -24 39 -46 0 -37 -22 -53 -61
-45 -24 5 -30 4 -27 -6 3 -8 16 -15 31 -17 36 -4 77 37 77 78 0 32 -30 70 -55
70 -8 0 -15 7 -15 15 0 10 10 15 29 15 16 0 34 7 41 15 11 13 7 15 -28 15 -37
0 -41 -3 -55 -37z"/>
<path d="M3020 2331 c0 -5 -3 -16 -6 -25 -6 -14 -3 -14 22 -1 33 17 60 19 68
6 3 -5 -1 -28 -10 -52 -31 -87 -42 -130 -32 -127 7 3 78 188 78 205 0 2 -27 3
-60 3 -33 0 -60 -4 -60 -9z"/>
<path d="M1948 2323 c16 -6 17 -174 0 -191 -8 -8 5 -11 56 -8 56 2 71 7 93 28
32 33 43 84 25 120 -22 45 -50 58 -122 57 -36 0 -59 -3 -52 -6z m125 -21 c5
-2 15 -18 22 -35 25 -59 -16 -127 -76 -127 l-29 0 0 84 c0 58 4 86 13 89 12 5
54 -1 70 -11z"/>
<path d="M2170 2134 c0 -9 5 -14 12 -12 18 6 21 28 4 28 -9 0 -16 -7 -16 -16z"/>
<path d="M13247 721 c6 -23 -35 -163 -51 -173 -6 -4 16 -8 50 -8 47 0 65 4 82
20 25 24 28 52 8 69 -13 11 -12 15 5 32 42 42 14 79 -59 79 -34 0 -39 -3 -35
-19z m87 -13 c12 -21 -17 -58 -46 -58 -19 0 -22 17 -12 58 8 27 41 27 58 0z
m-26 -80 c28 -28 -5 -78 -51 -78 -17 0 -18 5 -12 37 4 21 9 41 11 45 8 12 39
9 52 -4z"/>
<path d="M6634 663 c-27 -37 -62 -82 -77 -99 -17 -20 -24 -35 -17 -39 14 -9
30 3 30 24 0 25 20 41 52 41 23 0 28 -4 28 -25 0 -14 -6 -25 -12 -25 -8 0 -6
-5 4 -10 35 -21 43 -4 44 100 0 55 0 100 -1 100 -1 0 -24 -30 -51 -67z m26
-23 c0 -26 -4 -30 -26 -30 l-25 0 21 30 c12 17 23 30 26 30 2 0 4 -13 4 -30z"/>
<path d="M9500 580 l-25 -19 43 6 c40 5 42 4 42 -21 0 -15 -8 -31 -19 -38 -19
-12 -19 -12 2 -23 25 -12 34 -50 16 -71 -8 -10 -22 -12 -45 -8 -22 4 -34 2
-34 -5 0 -10 26 -16 60 -12 42 5 66 85 35 111 -11 9 -13 16 -5 24 14 14 13 49
-2 64 -17 17 -39 15 -68 -8z"/>
<path d="M9736 525 c-23 -24 -27 -49 -14 -91 10 -31 18 -40 41 -42 30 -4 57
17 57 45 0 15 -2 15 -15 -4 -30 -43 -72 -4 -63 58 4 29 35 37 52 13 10 -13 15
-14 21 -4 5 8 1 18 -10 27 -25 17 -50 17 -69 -2z"/>
<path d="M9910 531 c-8 -6 -28 -7 -45 -4 -25 5 -28 4 -19 -8 13 -15 13 -97 0
-117 -5 -8 3 -12 25 -12 26 0 30 3 21 12 -16 16 -15 93 2 107 7 6 21 9 30 5
19 -7 23 -93 4 -112 -9 -9 -4 -12 23 -11 18 0 28 3 22 6 -17 6 -17 84 1 108 8
11 19 16 30 12 20 -8 24 -112 4 -120 -7 -3 2 -6 21 -6 27 -1 31 2 22 13 -6 7
-10 34 -9 60 2 62 -19 86 -57 66 -19 -10 -28 -11 -37 -2 -14 14 -19 15 -38 3z"/>
</g>
</svg>
