<?xml version="1.0" standalone="no"?>
<!DOCTYPE svg PUBLIC "-//W3C//DTD SVG 20010904//EN"
 "http://www.w3.org/TR/2001/REC-SVG-20010904/DTD/svg10.dtd">
<svg version="1.0" xmlns="http://www.w3.org/2000/svg"
 width="1466.000000pt" height="700.000000pt" viewBox="0 0 1466.000000 700.000000"
 preserveAspectRatio="xMidYMid meet">
<metadata>
Created by potrace 1.16, written by Peter Selinger 2001-2019
</metadata>
<g transform="translate(0.000000,700.000000) scale(0.100000,-0.100000)"
fill="#000000" stroke="none">
<path d="M1145 6502 l0 -137 122 0 123 0 0 123 c0 67 1 125 3 129 1 4 -49 5
-111 4 -64 -1 -118 2 -125 7 -9 8 -12 -22 -12 -126z m225 -7 l0 -114 -85 2
c-102 2 -115 17 -15 17 l70 0 0 55 0 55 -75 0 -75 0 0 -60 c0 -47 -3 -60 -15
-60 -12 0 -15 18 -15 103 0 57 3 107 7 110 3 4 51 7 105 7 l98 0 0 -115z m-50
-40 l0 -35 -55 0 -55 0 0 35 0 35 55 0 55 0 0 -35z"/>
<path d="M1210 6571 c0 -24 3 -28 20 -24 11 3 20 0 20 -6 0 -7 -13 -9 -35 -6
-19 2 -37 0 -40 -5 -4 -6 32 -10 89 -10 58 0 96 4 96 10 0 6 -15 8 -39 4 -24
-4 -41 -2 -45 5 -5 7 2 11 18 11 28 0 36 9 27 30 -4 11 -16 14 -46 9 l-40 -6
40 -2 c28 -1 36 -4 28 -12 -6 -6 -26 -9 -44 -7 -26 2 -33 7 -31 21 2 9 -2 17
-8 17 -5 0 -10 -13 -10 -29z"/>
<path d="M1220 6456 c0 -21 4 -24 39 -23 33 1 40 5 44 24 4 21 1 23 -39 23
-40 0 -44 -2 -44 -24z m65 4 c4 -6 -5 -10 -19 -10 -14 0 -26 5 -26 10 0 6 9
10 19 10 11 0 23 -4 26 -10z"/>
<path d="M1582 6610 c5 -32 2 -33 -64 -32 -26 1 -28 -2 -28 -41 0 -23 -3 -53
-7 -66 -4 -18 -2 -22 8 -19 10 3 13 19 11 56 l-4 52 44 0 43 0 -3 -105 c-2
-69 1 -105 7 -105 11 0 16 70 11 163 l-2 47 46 0 46 0 0 -40 c0 -33 -3 -40
-20 -40 -11 0 -20 -4 -20 -9 0 -6 12 -9 26 -8 25 2 26 5 27 62 l1 59 -52 -3
c-47 -2 -52 0 -52 18 0 12 6 21 13 21 8 0 7 4 -3 10 -25 16 -32 11 -28 -20z"/>
<path d="M2955 6618 c5 -20 3 -27 -12 -31 -10 -3 -4 -5 15 -6 17 0 32 -5 32
-11 0 -23 -41 -114 -65 -146 -15 -20 -25 -38 -22 -41 3 -3 20 16 38 41 l33 46
88 0 88 0 -7 -32 c-8 -47 -21 -59 -52 -52 l-26 6 23 -17 c32 -23 49 -13 62 37
6 24 13 51 16 61 4 13 0 16 -18 15 -20 -3 -23 1 -20 25 2 21 -1 27 -18 27 -23
0 -24 4 -10 31 10 18 7 19 -40 19 -47 0 -50 2 -50 25 0 14 -4 25 -8 25 -5 0
-8 -10 -8 -21 1 -12 -5 -24 -13 -27 -8 -2 -11 -1 -8 4 3 5 -1 18 -10 29 -14
19 -14 19 -8 -7z m125 -58 c0 -17 -7 -20 -40 -20 -27 0 -40 4 -40 13 0 21 11
27 47 27 26 0 33 -4 33 -20z m28 -57 c-3 -15 -16 -19 -66 -21 -47 -2 -62 0
-62 11 0 23 11 27 72 27 51 0 59 -2 56 -17z"/>
<path d="M3340 6637 c0 -4 7 -19 16 -32 l16 -25 -68 0 c-52 -1 -65 -3 -51 -11
9 -5 21 -8 26 -5 14 9 22 -22 28 -101 l6 -73 -47 0 c-26 0 -45 -4 -42 -8 3 -5
27 -8 53 -6 26 1 92 3 147 3 88 1 97 3 86 16 -9 11 -16 13 -24 5 -5 -5 -25
-10 -44 -10 -28 0 -33 3 -29 18 23 70 43 152 39 157 -3 3 7 5 22 5 15 0 25 4
22 9 -3 5 -26 6 -51 3 -43 -4 -48 -2 -75 29 -16 19 -29 30 -30 26z m89 -96 c0
-14 -8 -53 -17 -86 -16 -56 -19 -60 -49 -63 -32 -3 -33 -2 -33 36 0 21 -6 60
-14 85 -7 25 -11 48 -9 51 3 3 32 4 64 4 57 -2 59 -3 58 -27z"/>
<path d="M3615 6614 c6 -29 4 -31 -19 -27 -17 4 -26 1 -26 -7 0 -7 7 -10 16
-6 15 6 16 -2 12 -67 -3 -40 -12 -88 -21 -105 -8 -18 -11 -32 -6 -32 13 0 35
54 44 108 5 33 11 42 23 40 13 -3 17 -14 15 -48 -3 -73 -11 -93 -33 -87 -23 6
-27 -8 -5 -17 28 -10 44 5 49 47 16 134 17 127 -15 120 -25 -5 -29 -2 -29 16
0 11 6 22 13 23 6 0 17 2 22 3 6 2 19 3 30 4 15 1 17 3 6 10 -7 5 -21 7 -30 4
-10 -2 -23 7 -34 24 l-18 28 6 -31z"/>
<path d="M3741 6606 c-5 -19 -21 -51 -36 -70 -15 -20 -23 -36 -19 -36 10 0 49
55 60 83 9 25 16 21 47 -28 16 -25 35 -45 43 -45 20 0 17 13 -5 27 -11 7 -32
33 -46 58 -15 25 -29 45 -30 45 -2 0 -8 -15 -14 -34z"/>
<path d="M4038 6513 l-3 -128 -30 2 -30 1 33 -16 c44 -21 52 -9 52 82 l0 69
29 -39 c42 -57 70 -84 86 -84 24 0 17 14 -14 32 -38 21 -97 101 -79 106 27 8
87 55 82 63 -3 5 -22 -4 -42 -21 -53 -43 -66 -40 -60 15 4 34 2 45 -8 45 -10
0 -14 -29 -16 -127z"/>
<path d="M4469 6630 c-9 -5 -59 -8 -112 -7 -54 1 -97 -1 -97 -5 0 -5 25 -8 55
-8 l55 0 0 -66 0 -66 -60 4 c-33 2 -60 1 -60 -4 0 -4 27 -8 60 -8 l60 0 0 -55
c0 -30 5 -55 10 -55 6 0 10 25 10 55 l0 55 60 0 c33 0 60 4 60 9 0 15 -18 23
-25 11 -3 -6 -26 -9 -51 -8 l-44 1 0 64 0 63 55 0 c30 0 55 4 55 9 0 15 -14
20 -31 11z"/>
<path d="M4750 6595 c0 -25 -2 -45 -4 -45 -2 0 -12 -3 -21 -6 -14 -6 -16 -1
-14 22 2 16 -1 31 -6 34 -6 3 -11 -12 -13 -32 -2 -25 -8 -38 -18 -38 -8 0 -14
-5 -14 -11 0 -6 7 -9 15 -5 12 4 15 -6 15 -64 0 -40 5 -72 11 -76 13 -8 147
-9 155 -1 3 2 1 20 -5 38 -9 33 -9 33 -10 7 -1 -28 -2 -28 -66 -28 l-65 0 0
69 c0 65 7 81 36 81 2 0 4 -25 4 -55 0 -30 5 -55 10 -55 6 0 10 26 10 59 0 55
2 59 26 64 28 5 27 10 8 -69 -5 -18 -3 -25 3 -21 6 4 14 24 18 44 4 21 11 43
16 50 14 17 -7 26 -30 13 -36 -19 -44 -13 -38 30 4 30 2 40 -9 40 -10 0 -14
-13 -14 -45z"/>
<path d="M5160 6630 c0 -8 -35 -10 -120 -8 -66 2 -120 0 -120 -4 0 -5 27 -8
60 -8 l60 0 -12 -26 c-10 -22 -17 -25 -50 -22 l-38 4 1 -106 c0 -58 3 -99 6
-92 6 17 194 17 211 0 9 -9 12 8 12 79 0 50 2 98 5 105 4 11 -9 13 -66 10 -65
-4 -71 -3 -66 13 4 9 7 21 7 26 0 5 32 9 71 9 50 0 70 3 67 12 -6 16 -28 23
-28 8z m-162 -157 c-3 -70 -5 -78 -23 -78 -18 0 -20 7 -22 78 -3 76 -2 77 23
77 25 0 25 -1 22 -77z m92 73 c0 -22 -17 -36 -41 -36 -22 0 -29 5 -29 20 0 16
7 20 35 20 19 0 35 -2 35 -4z m63 -73 c-2 -74 -3 -78 -25 -78 -22 0 -23 4 -26
78 l-3 77 28 0 28 0 -2 -77z m-65 5 c3 -14 -4 -18 -32 -18 -36 0 -52 12 -41
31 11 17 69 6 73 -13z m0 -60 c-2 -19 -9 -23 -37 -23 -28 0 -35 4 -37 23 -4
20 0 22 37 22 36 0 40 -2 37 -22z"/>
<path d="M4619 6615 c-1 -8 -3 -19 -4 -25 -1 -5 -3 -14 -4 -20 0 -5 -8 -10
-16 -10 -8 0 -15 -4 -15 -10 0 -5 8 -10 18 -10 14 0 17 -8 14 -55 -3 -39 -8
-55 -18 -55 -8 0 -14 -7 -14 -15 0 -12 11 -9 50 13 27 15 50 31 50 35 0 4 -9
3 -19 -3 -30 -16 -32 -13 -29 38 2 34 7 47 18 47 8 0 15 5 15 10 0 6 -8 9 -17
8 -20 -3 -23 18 -8 48 8 15 7 19 -5 19 -8 0 -16 -7 -16 -15z"/>
<path d="M6390 6504 l0 -126 -60 4 c-33 2 -60 1 -60 -4 0 -4 63 -8 140 -8 129
0 160 6 129 26 -6 3 -16 1 -22 -5 -6 -6 -33 -11 -59 -11 l-48 0 0 71 0 70 54
-6 c35 -5 56 -3 60 4 8 13 -1 14 -71 11 -45 -1 -51 0 -48 17 14 70 14 83 0 83
-12 0 -15 -22 -15 -126z"/>
<path d="M6753 6588 c-7 -24 -14 -52 -18 -63 -3 -11 2 -5 11 13 16 29 21 32
67 32 l50 0 -7 -84 c-8 -112 -11 -119 -50 -111 l-31 7 24 -18 c17 -12 28 -14
39 -7 21 12 28 41 36 144 l7 84 -56 -3 c-56 -4 -56 -4 -49 22 3 14 2 26 -3 26
-5 0 -14 -19 -20 -42z"/>
<path d="M6995 6610 c-4 -11 -18 -34 -32 -50 l-25 -30 26 0 c34 0 37 -37 4
-43 l-23 -4 23 -2 c20 -1 22 -6 22 -51 0 -43 -3 -50 -20 -50 -11 0 -20 -5 -20
-11 0 -13 35 -6 84 16 l31 14 -30 -2 c-29 -2 -30 0 -30 38 0 28 4 40 15 41 8
1 21 2 28 3 7 0 10 6 7 11 -3 6 -17 7 -31 4 -20 -5 -24 -2 -24 15 0 16 6 21
26 21 14 0 22 4 19 10 -3 5 -19 7 -35 3 -34 -6 -35 -4 -18 32 14 32 21 32 47
-2 11 -16 21 -22 21 -15 0 8 -13 27 -29 43 -28 28 -30 28 -36 9z"/>
<path d="M287 6602 c-23 -25 -21 -35 2 -21 42 27 72 -25 31 -54 l-21 -14 21
-6 c17 -4 21 -12 18 -39 -3 -30 -6 -33 -38 -34 -42 0 -47 -18 -6 -22 19 -2 36
4 52 19 28 26 31 55 9 86 -10 14 -12 24 -5 28 17 11 11 54 -9 65 -27 14 -35
13 -54 -8z"/>
<path d="M440 6600 c-42 -42 -14 -127 38 -113 22 5 22 4 10 -22 -7 -15 -26
-34 -43 -41 -24 -11 -26 -13 -9 -14 53 -1 116 98 95 151 -12 32 -38 59 -57 59
-8 0 -23 -9 -34 -20z m60 -19 c15 -29 12 -68 -5 -75 -21 -8 -45 3 -47 23 0 9
-2 23 -3 31 -4 38 37 53 55 21z"/>
<path d="M6656 6594 c-5 -17 -12 -24 -21 -20 -13 4 -15 -12 -15 -102 1 -78 3
-102 11 -89 12 20 65 23 72 5 10 -29 16 2 18 92 l2 95 -32 -3 c-26 -3 -30 -1
-24 15 4 10 11 21 17 25 7 5 5 8 -5 8 -10 0 -20 -11 -23 -26z m44 -64 c0 -23
-5 -31 -24 -36 -32 -8 -46 2 -46 30 0 30 7 36 42 36 24 0 28 -4 28 -30z m0
-85 c0 -33 -2 -35 -35 -35 -32 0 -35 3 -35 28 0 16 3 32 7 35 3 4 19 7 35 7
25 0 28 -3 28 -35z"/>
<path d="M7100 6590 c0 -17 -7 -45 -16 -61 -17 -35 -14 -48 6 -23 16 18 31
114 18 114 -4 0 -8 -14 -8 -30z"/>
<path d="M7150 6576 c0 -64 7 -76 44 -75 l31 2 -28 4 c-28 4 -29 6 -25 59 2
38 -1 54 -9 54 -9 0 -13 -16 -13 -44z"/>
<path d="M7472 6613 c-7 -3 -50 -11 -95 -18 -78 -12 -80 -13 -29 -14 38 -1 52
-5 52 -16 0 -10 -16 -15 -62 -18 l-63 -3 63 -2 63 -2 -3 -57 -3 -58 -47 3
c-30 2 -48 0 -48 -7 0 -6 21 -11 50 -11 43 0 50 -3 50 -20 0 -18 -7 -20 -60
-20 -33 0 -60 -4 -60 -10 0 -6 50 -10 131 -10 96 0 130 3 127 12 -3 8 -26 11
-67 9 -56 -2 -62 -1 -59 16 2 14 14 19 56 21 28 2 52 7 52 12 0 5 -22 6 -50 3
l-50 -6 -1 32 c-5 95 -11 86 59 89 34 2 62 7 62 12 0 4 -27 6 -60 3 -56 -5
-60 -4 -60 16 0 16 6 21 28 21 39 0 73 11 66 21 -6 10 -21 10 -42 2z"/>
<path d="M7650 6585 c0 -29 -4 -35 -22 -36 -17 -1 -19 -2 -5 -6 22 -6 22 -34
-3 -85 -25 -51 -20 -60 9 -16 l21 33 0 -73 c0 -49 3 -71 11 -67 6 4 10 32 9
64 -1 31 -1 65 -1 76 2 20 2 20 16 1 8 -11 18 -16 22 -12 5 4 -5 18 -22 31
-16 13 -27 26 -25 28 3 2 16 9 30 15 25 12 25 12 1 8 -22 -5 -23 -3 -18 35 4
29 2 39 -9 39 -9 0 -14 -12 -14 -35z"/>
<path d="M7770 6617 c0 -5 5 -17 10 -28 11 -19 1 -23 -47 -22 -7 1 -13 -3 -13
-8 0 -5 15 -9 34 -9 33 0 34 -1 32 -37 -2 -34 -5 -38 -29 -38 -35 1 -35 -13 1
-17 27 -3 30 -11 23 -84 -1 -6 -19 -10 -41 -10 -22 1 -40 -2 -40 -6 0 -5 41
-8 90 -8 50 0 90 4 90 9 0 15 -18 23 -25 11 -3 -5 -17 -10 -31 -10 -22 0 -24
4 -24 50 l0 50 36 0 c22 0 33 4 29 11 -4 6 -19 7 -36 4 -28 -6 -29 -6 -29 34
l0 41 40 0 c40 0 53 13 25 24 -8 3 -15 1 -15 -4 0 -6 -11 -10 -25 -10 -14 0
-25 6 -25 13 0 14 -29 57 -30 44z"/>
<path d="M2407 6585 c-10 -14 -15 -30 -12 -35 4 -6 4 -24 0 -40 -5 -21 -13
-30 -26 -30 -20 0 -20 1 1 31 12 16 20 32 17 35 -2 2 -12 -8 -22 -23 -10 -15
-36 -49 -57 -75 l-40 -48 27 0 c14 0 23 4 20 10 -11 17 26 60 51 60 19 0 24
-5 24 -25 0 -13 -8 -29 -17 -34 -14 -8 -9 -10 26 -11 38 0 42 2 31 15 -10 12
-11 40 -7 105 4 50 6 90 4 90 -1 0 -10 -12 -20 -25z"/>
<path d="M2518 6603 c6 -2 12 -12 12 -20 0 -33 -43 -158 -59 -171 -14 -11 -5
-12 55 -10 59 3 77 8 107 31 39 29 53 69 42 117 -9 40 -49 60 -117 59 -29 0
-47 -3 -40 -6z m122 -32 c33 -63 -6 -138 -78 -148 -50 -7 -50 -6 -20 94 21 71
23 73 55 73 22 0 36 -6 43 -19z"/>
<path d="M5508 6593 c11 -18 -30 -165 -48 -171 -5 -2 -10 -8 -10 -13 0 -12 80
-11 117 1 39 14 59 55 40 83 -12 18 -11 23 5 39 24 24 23 55 -1 68 -11 5 -40
10 -66 10 -40 0 -45 -2 -37 -17z m92 -26 c0 -13 -5 -28 -12 -35 -14 -14 -58
-16 -58 -3 0 5 4 21 10 35 13 35 60 37 60 3z m-22 -69 c17 -17 15 -35 -8 -58
-18 -18 -70 -28 -70 -14 0 4 5 24 12 45 8 30 16 39 33 39 11 0 26 -5 33 -12z"/>
<path d="M5690 6570 c-33 -33 -40 -47 -40 -79 0 -55 31 -91 79 -91 37 0 81 23
81 42 0 6 -8 4 -18 -5 -22 -20 -83 -22 -100 -5 -19 19 -14 87 8 123 34 54 100
58 119 7 8 -24 10 -24 10 -5 1 12 4 28 7 37 5 13 -3 16 -50 16 -52 0 -59 -3
-96 -40z"/>
<path d="M5897 6599 c13 -13 -18 -138 -44 -178 l-15 -23 71 4 c63 3 75 7 101
34 59 58 50 145 -17 163 -52 15 -111 15 -96 0z m111 -21 c7 -7 12 -31 12 -54
0 -58 -31 -93 -88 -101 -23 -3 -42 -2 -42 3 0 4 10 43 22 86 22 75 24 78 53
78 17 0 36 -5 43 -12z"/>
<path d="M8520 6596 c0 -10 -13 -16 -37 -19 l-38 -4 42 -1 c30 -2 43 -7 46
-19 4 -17 5 -17 6 0 1 10 9 17 21 17 11 0 20 5 20 11 0 6 -9 8 -20 4 -14 -5
-20 -2 -20 9 0 9 -4 16 -10 16 -5 0 -10 -6 -10 -14z"/>
<path d="M8633 6596 c-4 -7 -15 -16 -23 -19 -11 -4 -11 -6 4 -6 12 -1 16 -6
12 -16 -3 -8 -1 -15 4 -15 6 0 10 7 10 15 0 11 11 15 40 15 22 0 40 5 40 10 0
7 -13 8 -37 4 -31 -6 -35 -4 -30 10 8 19 -9 22 -20 2z"/>
<path d="M4459 6568 c-7 -13 -19 -34 -27 -48 -8 -14 1 -8 22 15 20 22 36 43
36 48 0 16 -20 6 -31 -15z"/>
<path d="M9168 6568 c-7 -12 -13 -30 -14 -38 -1 -8 -2 -27 -3 -42 -1 -21 -6
-28 -21 -28 -21 0 -27 15 -10 25 5 3 15 15 21 27 20 38 -9 9 -57 -57 -26 -36
-51 -65 -56 -65 -4 0 -8 -4 -8 -10 0 -5 12 -10 26 -10 19 0 25 4 20 15 -10 27
16 55 51 55 37 0 43 -18 17 -44 -16 -17 -15 -18 28 -21 21 -2 25 1 18 10 -7 8
-7 44 0 106 5 51 8 95 5 97 -2 2 -9 -7 -17 -20z"/>
<path d="M9274 6552 c-1 -43 -35 -162 -46 -162 -4 0 -8 -4 -8 -8 0 -5 14 -8
30 -7 17 1 43 2 59 3 44 3 64 28 58 73 -3 26 0 42 9 50 8 6 14 24 14 39 0 22
-6 30 -31 39 -18 6 -44 11 -58 11 -23 0 -26 -4 -27 -38z m84 -10 c4 -28 -14
-52 -39 -52 -20 0 -24 17 -13 58 9 31 48 26 52 -6z m-20 -79 c17 -33 -12 -73
-51 -73 -17 0 -18 5 -12 37 4 21 9 41 11 45 9 15 43 8 52 -9z"/>
<path d="M4304 6538 c14 -29 22 -37 24 -26 3 18 -25 68 -38 68 -4 0 2 -19 14
-42z"/>
<path d="M9737 6562 c-25 -28 -20 -33 13 -14 40 23 66 7 63 -38 -1 -24 -13
-45 -47 -79 -25 -26 -46 -50 -46 -54 0 -5 28 -7 63 -5 58 3 62 5 64 28 1 14 0
19 -3 13 -3 -8 -23 -13 -47 -13 l-42 1 28 24 c15 13 27 27 27 30 0 4 7 13 15
21 18 18 20 75 3 92 -18 18 -73 14 -91 -6z"/>
<path d="M9910 6541 l-20 -39 31 -7 c42 -9 66 -48 50 -81 -10 -23 -16 -25 -46
-20 -28 6 -35 4 -35 -9 0 -20 48 -20 77 0 26 18 38 67 23 94 -6 12 -24 28 -41
37 -35 17 -29 31 15 36 44 5 46 28 2 28 -31 0 -38 -5 -56 -39z"/>
<path d="M11186 6555 c-9 -14 -46 -61 -81 -105 -61 -76 -63 -80 -39 -80 18 0
25 4 21 14 -8 20 30 56 58 56 19 0 25 -5 25 -23 0 -13 -5 -28 -12 -35 -9 -9
-4 -12 26 -12 32 0 35 2 24 14 -11 11 -12 31 -6 101 5 48 7 89 5 92 -3 2 -12
-8 -21 -22z m-11 -74 c-5 -22 -12 -31 -26 -31 -24 0 -24 4 3 40 26 35 32 33
23 -9z"/>
<path d="M11297 6572 c14 -9 -31 -182 -50 -194 -7 -4 18 -8 55 -8 64 0 70 2
108 36 36 33 40 41 40 84 0 66 -29 90 -109 90 -31 0 -51 -4 -44 -8z m112 -27
c7 -7 14 -33 14 -56 0 -35 -6 -48 -32 -71 -22 -19 -42 -28 -66 -28 -19 0 -35
3 -35 6 0 6 35 132 46 163 5 16 51 7 73 -14z"/>
<path d="M11796 6571 c-16 -6 -17 -8 -4 -13 12 -5 16 -23 16 -80 0 -40 -5 -81
-10 -90 -7 -15 -4 -18 24 -18 25 0 29 3 20 12 -8 8 -12 46 -12 105 0 51 -3 93
-7 92 -5 0 -17 -4 -27 -8z"/>
<path d="M11939 6553 c-5 -16 -12 -34 -14 -40 -2 -8 11 -19 30 -27 65 -28 55
-104 -12 -93 -25 4 -33 2 -33 -9 0 -9 11 -14 33 -14 82 0 99 108 24 147 -33
17 -26 30 17 35 44 5 46 28 2 28 -31 0 -38 -4 -47 -27z"/>
<path d="M13099 6571 c9 -6 11 -19 6 -42 -13 -67 -38 -134 -53 -146 -25 -20
97 -17 126 3 23 16 31 67 12 79 -5 3 -1 14 10 25 44 44 8 90 -70 90 -29 0 -40
-3 -31 -9z m86 -22 c12 -18 -4 -57 -26 -64 -31 -10 -41 6 -28 43 11 32 41 44
54 21z m-13 -96 c7 -31 -2 -50 -29 -62 -34 -16 -46 -3 -38 43 6 31 11 36 35
36 18 0 29 -6 32 -17z"/>
<path d="M13305 6562 c-39 -24 -54 -43 -65 -81 -20 -72 38 -133 105 -111 18 6
39 18 47 27 14 17 11 16 -35 -7 -44 -21 -81 -4 -85 40 -6 57 15 108 49 126 42
21 79 11 79 -21 0 -14 5 -25 10 -25 6 0 10 6 10 13 0 6 3 21 6 33 5 19 1 21
-43 22 -31 1 -58 -4 -78 -16z"/>
<path d="M13781 6553 c-12 -14 -19 -29 -15 -32 3 -3 10 2 15 12 12 21 67 23
75 2 9 -23 -3 -60 -31 -93 -33 -39 -32 -52 1 -21 52 48 69 113 38 143 -24 24
-60 19 -83 -11z"/>
<path d="M13941 6554 c-25 -32 -27 -62 -5 -93 13 -18 23 -22 45 -17 16 3 29 2
29 -3 0 -16 -41 -60 -61 -66 -11 -4 -19 -9 -16 -11 12 -12 65 21 86 53 29 45
32 98 7 136 -23 35 -58 35 -85 1z m69 -14 c26 -49 -8 -101 -45 -70 -15 13 -21
71 -8 83 13 14 43 6 53 -13z"/>
<path d="M3920 6548 c0 -5 16 -8 35 -8 19 0 35 -5 35 -10 0 -16 -29 -61 -64
-97 -16 -18 -25 -33 -20 -33 17 0 61 52 88 103 15 26 26 49 26 50 0 1 -22 2
-50 2 -27 0 -50 -3 -50 -7z"/>
<path d="M1919 6540 c-8 -25 -4 -80 5 -77 15 5 20 57 7 70 -6 6 -12 9 -12 7z"/>
<path d="M8557 6520 c-4 -17 -14 -20 -57 -20 -34 0 -49 -4 -45 -11 4 -6 13 -8
20 -5 7 2 26 1 42 -3 l28 -8 -48 -47 c-53 -52 -59 -73 -8 -31 l31 27 1 -24 c1
-12 1 -31 0 -40 -2 -16 8 -18 83 -18 l86 0 0 49 0 48 -72 2 c-40 1 -74 4 -77
6 -2 3 2 11 9 20 9 11 33 15 97 15 63 0 84 3 81 12 -3 9 -27 12 -81 9 -75 -3
-89 3 -65 27 9 9 8 12 -4 12 -9 0 -18 -9 -21 -20z m113 -130 l0 -30 -65 0 -65
0 0 30 0 30 65 0 65 0 0 -30z"/>
<path d="M7330 6509 c0 -16 -4 -19 -20 -14 -11 4 -20 2 -20 -4 0 -6 9 -11 20
-11 13 0 20 -7 20 -20 0 -11 5 -20 10 -20 6 0 10 9 10 20 0 13 7 20 20 20 11
0 20 5 20 11 0 6 -9 9 -20 6 -15 -4 -20 0 -20 14 0 10 -4 19 -10 19 -5 0 -10
-9 -10 -21z"/>
<path d="M7470 6509 c0 -16 -5 -20 -20 -16 -11 3 -20 1 -20 -4 0 -5 9 -9 20
-9 15 0 20 -7 20 -26 0 -14 4 -23 10 -19 6 3 10 15 10 26 0 14 7 19 26 19 15
0 23 4 19 10 -4 6 -16 8 -27 4 -18 -5 -20 -3 -15 15 3 14 0 21 -9 21 -8 0 -14
-10 -14 -21z"/>
<path d="M3740 6515 c0 -3 11 -18 25 -32 25 -28 48 -26 25 2 -15 18 -50 39
-50 30z"/>
<path d="M10105 6510 c-11 -5 -14 -9 -7 -9 8 -1 12 -20 12 -60 0 -38 -4 -61
-12 -64 -7 -3 5 -5 27 -5 22 0 34 2 28 5 -20 8 -17 109 3 117 9 3 20 4 25 0
13 -8 11 -98 -3 -112 -9 -9 -5 -12 18 -12 l29 0 -3 59 c-3 47 0 59 13 65 9 3
21 4 26 0 14 -8 11 -111 -3 -117 -7 -3 1 -6 17 -6 30 -1 31 0 28 37 -10 103
-23 124 -64 102 -13 -8 -25 -7 -39 0 -13 7 -26 7 -38 1 -11 -6 -23 -6 -28 -2
-5 5 -18 5 -29 1z"/>
<path d="M6770 6504 c1 -17 50 -70 50 -53 0 8 -11 26 -25 39 -14 13 -25 19
-25 14z"/>
<path d="M8050 6481 c0 -33 20 -45 45 -27 25 18 11 56 -21 56 -20 0 -24 -5
-24 -29z m45 -1 c0 -8 -8 -16 -17 -18 -13 -2 -18 3 -18 18 0 15 5 20 18 18 9
-2 17 -10 17 -18z"/>
<path d="M12125 6439 l0 -69 30 0 c20 0 26 3 17 9 -9 5 -12 25 -10 57 3 45 5
49 28 49 21 0 25 -5 26 -30 0 -16 -3 -42 -7 -57 -7 -26 -6 -28 24 -28 21 0 27
3 19 9 -9 5 -12 25 -10 57 3 42 6 49 26 52 12 2 22 0 23 -5 5 -37 4 -72 -3
-90 -7 -21 -4 -23 25 -22 17 0 26 3 20 6 -8 3 -13 23 -13 51 0 72 -6 77 -107
78 l-88 2 0 -69z"/>
<path d="M14145 6437 c0 -68 1 -72 23 -72 22 0 29 9 14 19 -10 6 -7 79 3 96 3
5 15 10 26 10 19 0 20 -5 17 -60 -3 -54 3 -70 26 -70 1 0 2 25 2 54 -1 59 12
83 39 72 14 -5 16 -17 13 -61 -2 -37 1 -56 9 -59 18 -7 19 2 15 71 -3 51 -7
63 -23 68 -11 4 -26 1 -34 -5 -10 -8 -19 -9 -27 -3 -7 6 -33 11 -58 11 l-45 0
0 -71z"/>
<path d="M9484 6488 c-3 -4 30 -8 72 -8 43 0 75 3 72 6 -9 9 -139 11 -144 2z"/>
<path d="M10600 6495 c0 -9 43 -55 52 -55 17 0 7 29 -17 44 -25 16 -35 20 -35
11z"/>
<path d="M12620 6492 c0 -14 47 -54 53 -45 3 5 3 14 -1 19 -10 16 -52 36 -52
26z"/>
<path d="M11535 6480 c3 -5 40 -10 81 -10 43 0 74 4 74 10 0 6 -34 10 -81 10
-51 0 -78 -4 -74 -10z"/>
<path d="M13520 6479 c0 -5 37 -9 82 -9 45 0 78 3 74 7 -10 11 -156 13 -156 2z"/>
<path d="M1538 6473 c6 -2 18 -2 25 0 6 3 1 5 -13 5 -14 0 -19 -2 -12 -5z"/>
<path d="M7080 6415 l0 -60 60 3 61 4 -3 55 -3 55 -58 2 -57 1 0 -60z m100 -6
l0 -40 -42 3 c-42 3 -43 4 -45 41 l-1 37 44 0 44 0 0 -41z"/>
<path d="M3102 6435 c6 -14 13 -23 16 -21 7 7 -9 46 -18 46 -5 0 -4 -11 2 -25z"/>
<path d="M6957 6437 c3 -15 9 -30 14 -33 14 -8 10 20 -5 41 -13 18 -14 18 -9
-8z"/>
<path d="M7027 6438 c-9 -31 -2 -33 17 -3 13 20 14 25 2 25 -7 0 -16 -10 -19
-22z"/>
<path d="M3051 6443 c0 -4 4 -17 9 -28 8 -19 9 -19 9 2 1 12 -3 25 -9 28 -5 3
-10 3 -9 -2z"/>
<path d="M582 6424 c2 -11 8 -18 13 -16 15 3 12 25 -3 30 -9 3 -13 -2 -10 -14z"/>
<path d="M2963 6413 c-15 -32 -17 -46 -4 -39 12 8 32 66 23 66 -4 0 -13 -12
-19 -27z"/>
<path d="M3010 6416 c0 -22 3 -27 11 -19 8 8 8 16 0 30 -9 16 -10 14 -11 -11z"/>
<path d="M9480 6428 c0 -4 35 -8 78 -7 65 1 72 2 42 10 -42 10 -120 9 -120 -3z"/>
<path d="M3760 6395 c20 -20 36 -31 39 -24 4 12 -45 59 -63 59 -5 0 6 -16 24
-35z"/>
<path d="M11535 6420 c3 -5 37 -10 75 -10 38 0 72 5 75 10 4 6 -23 10 -75 10
-52 0 -79 -4 -75 -10z"/>
<path d="M13520 6420 c0 -6 33 -10 80 -10 47 0 80 4 80 10 0 6 -33 10 -80 10
-47 0 -80 -4 -80 -10z"/>
<path d="M13875 6400 c-5 -8 -24 -11 -51 -7 -28 3 -47 0 -54 -8 -15 -18 -7
-20 53 -17 39 3 57 8 62 19 7 20 0 29 -10 13z"/>
<path d="M3718 6183 c0 -5 -2 -15 -2 -23 -1 -12 -15 -15 -64 -15 -37 0 -62 -4
-62 -11 0 -6 21 -9 59 -6 l58 4 6 -38 c4 -21 4 -64 0 -96 -5 -54 -8 -58 -32
-59 -21 -1 -22 -2 -6 -6 11 -3 25 -9 31 -14 18 -15 24 1 24 63 0 32 4 57 8 56
11 -4 102 45 102 54 0 15 -22 8 -56 -19 -45 -34 -56 -21 -50 60 2 31 0 57 -5
57 -5 0 -10 -3 -11 -7z"/>
<path d="M3780 6171 c11 -22 30 -29 30 -11 0 5 -9 14 -21 20 -19 11 -20 10 -9
-9z"/>
<path d="M4619 6177 c-25 -9 -25 -11 -21 -92 4 -75 3 -84 -14 -88 -11 -3 47
-5 129 -6 92 -1 147 3 147 9 0 6 -7 10 -16 10 -14 0 -16 11 -12 83 l4 83 -33
0 c-18 0 -33 -4 -33 -8 0 -4 9 -8 19 -8 24 0 33 -13 25 -35 -4 -10 -14 -15
-25 -12 -11 3 -19 1 -19 -4 0 -5 9 -9 20 -9 30 0 27 -40 -2 -41 l-23 0 23 -10
c38 -15 24 -43 -21 -44 -38 -2 -44 3 -28 21 5 5 11 29 12 54 3 44 3 45 -24 42
-19 -3 -27 1 -27 12 0 11 9 16 31 16 18 0 28 4 24 10 -4 6 -15 8 -26 5 -13 -4
-19 -2 -19 9 0 9 -4 16 -10 16 -5 0 -10 -6 -10 -14 0 -7 -3 -28 -6 -45 -6 -31
-6 -32 20 -25 25 6 26 4 26 -35 0 -31 -4 -41 -16 -41 -14 0 -14 -3 -4 -15 10
-12 10 -15 -3 -15 -24 0 -29 16 -18 55 5 19 6 35 1 35 -4 0 -11 -15 -14 -32
-9 -45 -20 -60 -39 -52 -25 9 -21 42 6 47 l22 4 -22 2 c-30 1 -33 41 -3 41 11
0 20 4 20 10 0 5 -10 9 -22 7 -37 -4 -35 30 3 46 39 16 19 29 -22 14z"/>
<path d="M5038 6183 c-110 -4 -155 -23 -53 -23 l55 0 0 -60 c0 -66 3 -63 -72
-61 -28 1 -48 -3 -48 -9 0 -6 25 -10 60 -10 l60 0 0 -55 c0 -30 5 -55 10 -55
6 0 10 26 10 58 l0 57 65 -3 c38 -2 65 0 65 6 0 15 -26 22 -38 10 -6 -6 -27
-7 -51 -3 l-41 7 0 59 0 59 54 0 c55 0 80 12 50 24 -9 3 -16 5 -17 4 -1 -1
-50 -4 -109 -5z"/>
<path d="M5378 6182 c-74 -1 -128 -7 -128 -12 0 -6 27 -10 60 -10 64 0 66 -1
50 -31 -8 -14 -21 -19 -50 -19 l-40 0 0 -92 0 -93 110 3 c83 3 110 1 110 -9 0
-28 15 5 16 34 0 18 2 61 4 96 l4 64 -72 -2 -72 -2 12 25 c10 24 16 26 74 26
35 0 65 4 68 9 9 14 -11 16 -146 13z m-40 -159 c-3 -72 -5 -78 -25 -81 -22 -3
-23 -1 -23 77 0 80 0 81 25 81 26 0 26 0 23 -77z m82 57 c0 -16 -7 -20 -35
-20 -28 0 -35 4 -35 20 0 16 7 20 35 20 28 0 35 -4 35 -20z m70 -60 c0 -79 0
-80 -25 -80 -25 0 -25 1 -25 80 0 79 0 80 25 80 25 0 25 -1 25 -80z m-70 5 c0
-21 -5 -25 -29 -25 -17 0 -33 5 -36 10 -13 21 4 40 35 40 25 0 30 -4 30 -25z
m0 -60 c0 -22 -4 -25 -35 -25 -31 0 -35 3 -35 25 0 22 4 25 35 25 31 0 35 -3
35 -25z"/>
<path d="M1168 6168 c-22 -6 -21 -6 5 -7 26 -1 27 -3 27 -51 0 -63 -25 -137
-58 -172 -14 -16 -21 -28 -14 -28 19 0 60 63 73 113 7 26 16 47 19 47 5 0 61
-102 57 -105 -1 -1 -27 -14 -57 -28 -30 -14 -48 -26 -39 -27 9 0 37 11 63 25
l46 25 40 -21 c21 -11 47 -19 57 -17 12 3 3 11 -30 26 l-48 21 31 54 c36 63
36 67 10 67 -11 0 -20 -5 -20 -11 0 -5 5 -7 10 -4 15 9 12 0 -11 -45 -13 -25
-28 -40 -36 -38 -22 4 -83 122 -76 147 4 17 13 21 50 21 37 0 44 -3 40 -17
-17 -61 -17 -73 -2 -73 11 0 15 11 15 38 0 21 5 43 12 50 7 7 8 13 3 13 -38 5
-148 3 -167 -3z"/>
<path d="M6520 6036 c0 -77 2 -137 5 -134 3 2 5 31 6 64 0 32 3 72 6 88 5 27
8 28 44 23 l39 -5 0 44 c0 24 -1 47 -2 50 -2 3 -24 7 -50 8 l-48 1 0 -139z
m80 109 c0 -10 -10 -15 -30 -15 -20 0 -30 5 -30 15 0 10 10 15 30 15 20 0 30
-5 30 -15z m0 -40 c0 -16 -55 -22 -64 -6 -8 13 5 21 36 21 18 0 28 -5 28 -15z"/>
<path d="M6664 6171 c-2 -2 -4 -26 -4 -51 l0 -48 45 6 45 5 0 -77 c0 -72 -1
-76 -22 -76 l-22 0 23 -16 c13 -9 26 -13 31 -8 5 5 10 67 11 138 l1 128 -52 2
c-28 0 -54 -1 -56 -3z m86 -26 c0 -10 -11 -15 -35 -15 -24 0 -35 5 -35 15 0
10 11 15 35 15 24 0 35 -5 35 -15z m-7 -34 c4 -1 7 -5 7 -11 0 -5 -16 -10 -35
-10 -22 0 -35 5 -35 13 0 11 15 13 63 8z"/>
<path d="M6888 6149 c-7 -19 -15 -28 -24 -25 -11 4 -14 -15 -14 -101 0 -83 3
-104 12 -95 7 7 24 12 38 12 14 0 31 -5 38 -12 9 -9 12 12 12 95 l0 107 -31
-7 c-30 -6 -31 -5 -20 16 7 11 16 21 22 21 6 0 7 5 4 10 -11 18 -26 10 -37
-21z m42 -72 c0 -31 -3 -34 -30 -35 -28 -1 -30 2 -30 34 0 31 2 34 30 34 27 0
30 -3 30 -33z m0 -82 c0 -32 -2 -35 -30 -35 -28 0 -30 3 -30 35 0 32 2 35 30
35 28 0 30 -3 30 -35z"/>
<path d="M6990 6160 c0 -11 -7 -37 -15 -57 -18 -44 -12 -56 8 -17 13 25 21 29
62 29 l47 1 -6 -83 c-9 -111 -12 -116 -50 -109 -28 6 -29 5 -11 -8 47 -36 66
-10 76 103 4 48 9 94 11 102 2 11 -10 13 -54 10 -54 -3 -75 8 -48 24 15 9 12
25 -5 25 -8 0 -15 -9 -15 -20z"/>
<path d="M7295 6159 c6 -24 5 -24 -55 -21 -39 3 -60 0 -60 -7 0 -7 44 -11 135
-11 83 0 135 4 135 10 0 10 -17 15 -35 9 -29 -9 -95 -4 -95 6 0 7 -7 18 -16
26 -13 11 -14 9 -9 -12z"/>
<path d="M7581 6139 c-18 -21 -39 -39 -47 -39 -7 0 -16 -5 -20 -11 -4 -8 0 -9
15 -4 20 6 21 3 21 -61 0 -51 -5 -75 -22 -102 -12 -19 -16 -33 -9 -31 13 5 35
40 45 71 5 15 17 18 91 16 l85 -2 0 -28 c0 -24 -4 -28 -27 -28 l-28 -1 28 -15
c16 -9 32 -13 35 -9 4 4 9 51 12 106 l5 99 -50 1 c-27 0 -72 0 -100 -1 -50 -2
-50 -1 -30 18 24 22 99 27 91 5 -7 -16 6 -17 22 -1 21 21 13 28 -35 29 -27 0
-42 3 -35 6 12 5 7 24 -6 22 -4 0 -22 -18 -41 -40z m59 -78 c-10 -20 -70 -17
-70 3 0 20 7 22 44 18 30 -4 34 -7 26 -21z m100 0 c0 -14 -7 -18 -27 -16 -49
3 -53 5 -53 20 0 11 11 15 40 15 32 0 40 -4 40 -19z m-107 -30 c4 0 7 -10 7
-21 0 -16 -7 -20 -35 -20 -27 0 -35 4 -35 18 0 29 10 32 63 23z m107 -21 c0
-17 -7 -20 -40 -20 -33 0 -40 3 -40 20 0 17 7 20 40 20 33 0 40 -3 40 -20z"/>
<path d="M1723 6151 c-66 -41 -86 -141 -37 -180 34 -27 74 -27 108 0 37 29 25
36 -13 8 -80 -59 -131 62 -63 148 34 44 101 34 103 -15 l1 -27 8 25 c16 49 12
55 -33 58 -28 1 -53 -4 -74 -17z"/>
<path d="M1907 6151 c7 -26 -23 -145 -44 -180 l-15 -24 71 5 c61 5 77 10 101
33 33 32 45 71 36 121 -8 41 -26 51 -99 60 -54 6 -56 6 -50 -15z m107 -17 c19
-18 21 -82 5 -117 -13 -29 -48 -47 -89 -47 -36 0 -36 3 -8 102 21 72 25 78 50
78 14 0 34 -7 42 -16z"/>
<path d="M2400 6150 c-11 -11 -20 -26 -20 -32 1 -8 6 -6 14 5 21 27 64 22 72
-8 8 -34 -10 -75 -52 -116 -19 -18 -34 -36 -34 -40 0 -4 25 -7 55 -8 45 0 57
3 66 20 10 19 8 20 -11 14 -42 -13 -70 -13 -70 1 0 8 4 14 9 14 14 0 71 91 71
112 0 24 -35 58 -60 58 -11 0 -29 -9 -40 -20z"/>
<path d="M2580 6155 c-19 -11 -21 -14 -7 -15 15 0 17 -11 17 -89 0 -62 -4 -91
-12 -95 -7 -3 1 -4 17 -3 17 1 29 5 28 10 -2 4 -3 52 -3 107 0 55 -3 100 -7
100 -5 -1 -19 -7 -33 -15z"/>
<path d="M4188 6128 c-57 -89 -110 -158 -121 -158 -7 0 -6 -4 2 -9 18 -12 41
-3 35 13 -6 17 33 56 56 56 16 0 20 -7 20 -30 0 -17 -5 -30 -12 -31 -7 0 -4
-4 7 -8 24 -10 62 -2 45 9 -9 5 -10 33 -5 104 4 53 6 96 4 96 -2 0 -16 -19
-31 -42z m2 -58 c0 -23 -4 -30 -20 -30 -24 0 -25 4 -4 35 21 32 24 31 24 -5z"/>
<path d="M4298 6163 c17 -7 15 -23 -9 -114 -14 -50 -28 -80 -38 -82 -9 -3 14
-5 50 -6 38 -1 72 4 82 12 24 18 31 61 12 77 -14 12 -13 14 5 27 12 8 20 25
20 42 0 34 -32 51 -93 50 -23 0 -36 -3 -29 -6z m95 -34 c9 -32 -44 -75 -65
-53 -3 3 -1 21 5 40 12 40 51 49 60 13z m-25 -81 c28 -28 -3 -78 -49 -78 -27
0 -27 1 -17 38 6 20 12 40 15 45 7 11 38 8 51 -5z"/>
<path d="M7950 6155 c0 -9 -10 -35 -21 -58 -17 -32 -18 -39 -5 -28 14 12 16 9
16 -33 0 -30 4 -45 12 -43 6 1 13 -6 16 -15 3 -15 -7 -18 -65 -21 l-68 -3 69
-2 69 -2 -6 -30 c-4 -16 -2 -32 3 -35 6 -4 10 9 10 29 l0 36 65 0 c36 0 65 4
65 9 0 5 -30 6 -67 3 -60 -4 -66 -3 -60 12 4 10 7 20 7 22 0 2 27 4 61 4 35 0
58 4 54 9 -3 5 -21 7 -40 4 -28 -4 -35 -2 -35 11 0 12 9 16 36 16 22 0 33 4
29 11 -4 6 -19 7 -36 4 -22 -5 -29 -3 -29 9 0 11 9 16 30 16 17 0 30 4 30 10
0 5 -13 7 -30 4 -23 -5 -30 -3 -30 8 0 11 10 15 33 14 17 0 32 4 32 9 0 6 -14
9 -31 7 -21 -2 -34 3 -38 13 -3 8 -10 15 -15 15 -6 0 -8 -7 -5 -15 7 -17 -31
-22 -41 -5 -3 6 -1 10 4 10 6 0 11 5 11 10 0 6 -7 10 -15 10 -8 0 -15 -7 -15
-15z m60 -52 c0 -7 -11 -13 -25 -13 -23 0 -32 10 -20 21 10 10 45 4 45 -8z m0
-38 c0 -16 -45 -21 -54 -6 -8 12 4 21 31 21 14 0 23 -6 23 -15z m0 -40 c0 -16
-45 -21 -54 -6 -8 12 4 21 31 21 14 0 23 -6 23 -15z"/>
<path d="M8350 6154 c0 -10 -7 -14 -22 -12 -16 2 -27 -4 -36 -21 -14 -27 -6
-45 9 -18 6 9 17 17 25 17 19 0 4 -31 -35 -74 -24 -26 -24 -28 -3 -17 22 12
22 11 23 -71 0 -46 3 -77 6 -70 3 8 28 12 74 12 44 0 69 4 69 11 0 7 -10 9
-24 7 -34 -7 -43 2 -47 42 -4 33 -2 35 29 38 40 4 42 22 2 22 -20 0 -30 5 -30
15 0 10 10 15 30 15 17 0 30 4 30 8 0 17 -12 21 -35 12 -19 -7 -25 -5 -30 10
-8 25 -25 26 -18 2 3 -13 -2 -18 -17 -19 -13 -1 -19 3 -16 10 3 7 9 20 12 30
5 12 17 17 45 17 32 0 37 -3 32 -17 -6 -16 -4 -16 15 1 29 25 19 36 -33 36
-35 0 -43 3 -39 15 4 8 1 15 -5 15 -6 0 -11 -7 -11 -16z m20 -119 c0 -8 -9
-15 -20 -15 -11 0 -20 7 -20 15 0 8 9 15 20 15 11 0 20 -7 20 -15z m0 -54 c0
-14 -5 -18 -20 -14 -11 3 -20 12 -20 19 0 8 9 14 20 14 13 0 20 -7 20 -19z
m-2 -44 c2 -12 -3 -17 -17 -17 -15 0 -21 6 -21 21 0 25 33 22 38 -4z"/>
<path d="M9330 6165 c0 -6 5 -16 12 -23 9 -9 4 -12 -25 -12 -20 0 -37 -4 -37
-10 0 -5 6 -10 14 -10 13 0 26 -20 26 -41 0 -5 -11 -9 -25 -9 -14 0 -25 -4
-25 -10 0 -5 14 -10 30 -10 17 0 30 -4 30 -9 0 -15 -29 -33 -45 -27 -8 3 -15
1 -15 -4 0 -6 9 -10 20 -10 17 0 19 -5 14 -25 -5 -19 -2 -25 9 -25 34 0 26
-21 -15 -40 -24 -11 -36 -20 -28 -20 8 0 35 9 59 20 44 20 44 20 77 1 18 -11
36 -16 39 -11 3 5 -9 17 -27 26 -18 9 -34 18 -36 19 -1 1 2 14 7 29 8 19 18
26 36 26 14 0 25 5 25 11 0 7 -9 9 -21 6 -13 -4 -22 0 -26 10 -5 14 -8 14 -17
1 -15 -20 -48 -19 -44 1 2 12 17 17 56 19 36 2 52 7 49 15 -2 7 -14 11 -25 9
-29 -4 -28 14 3 42 30 28 24 36 -21 29 -27 -5 -37 -1 -54 18 -10 13 -19 19
-20 14z m59 -79 c-15 -33 -42 -34 -57 -2 -11 24 -9 25 26 28 47 4 45 5 31 -26z
m-9 -104 c0 -22 -26 -41 -47 -36 -19 5 -21 10 -12 25 9 18 59 27 59 11z"/>
<path d="M5866 6145 c-7 -19 -118 -169 -128 -173 -15 -7 -8 -22 10 -22 12 0
21 11 27 33 8 26 16 33 42 35 28 3 31 1 26 -20 -3 -13 -10 -29 -16 -35 -7 -10
-1 -13 28 -13 32 0 36 2 25 15 -11 13 -8 106 6 173 5 24 -11 31 -20 7z m-14
-76 c-4 -29 -26 -49 -39 -36 -4 5 33 67 41 67 1 0 1 -14 -2 -31z"/>
<path d="M5985 6138 c-31 -24 -55 -74 -55 -113 0 -65 103 -102 146 -53 l19 22
-25 -17 c-31 -21 -59 -22 -88 -1 -29 20 -29 77 -1 124 26 42 36 50 70 50 30 0
49 -17 49 -44 0 -17 2 -18 10 -6 5 8 10 25 10 38 0 20 -5 22 -54 22 -40 0 -60
-6 -81 -22z"/>
<path d="M6187 6135 c7 -33 -33 -162 -55 -175 -13 -8 2 -10 61 -8 77 3 80 5
113 41 36 38 43 73 24 121 -10 27 -58 46 -116 46 -28 0 -31 -3 -27 -25z m111
-13 c14 -19 16 -71 3 -105 -10 -25 -65 -57 -100 -57 -27 0 -27 18 0 101 11 35
22 70 25 77 5 16 54 5 72 -16z"/>
<path d="M7878 6142 c10 -12 21 -15 27 -10 11 10 -10 28 -32 28 -9 0 -7 -6 5
-18z"/>
<path d="M8729 6144 l-24 -13 25 0 c14 -1 31 3 38 8 25 15 -11 20 -39 5z"/>
<path d="M8890 6113 c0 -24 5 -43 11 -43 5 0 9 8 8 18 -5 50 -3 52 71 52 l70
0 0 -35 c0 -19 5 -35 10 -35 6 0 10 19 10 43 l0 42 -90 0 -90 0 0 -42z"/>
<path d="M9220 6130 c0 -23 -4 -30 -20 -30 -11 0 -20 -4 -20 -10 0 -5 9 -10
20 -10 16 0 20 -7 20 -34 0 -26 -5 -36 -20 -41 -11 -3 -20 -11 -20 -16 0 -6 9
-7 20 -4 18 6 20 2 20 -40 0 -42 -2 -46 -20 -40 -11 4 -20 2 -20 -4 0 -6 4
-11 9 -11 5 0 16 -3 25 -6 14 -5 16 3 16 54 0 50 4 62 23 76 l22 17 -23 -7
c-21 -5 -23 -3 -20 23 2 20 9 29 26 31 30 5 28 22 -3 22 -27 0 -35 26 -13 48
9 9 8 12 -5 12 -12 0 -17 -8 -17 -30z"/>
<path d="M9555 6130 c18 -34 25 -38 25 -12 0 9 -9 23 -20 30 -20 12 -21 12 -5
-18z"/>
<path d="M9705 6143 c-27 -7 -56 -11 -62 -8 -9 3 -13 -10 -13 -48 0 -51 -10
-103 -26 -141 -5 -13 -4 -17 4 -13 10 7 24 44 36 100 5 22 12 27 36 27 l30 0
0 -71 c0 -44 4 -68 10 -64 6 3 10 35 10 71 l0 64 31 0 c16 0 28 4 25 8 -3 5
-30 7 -60 4 -69 -6 -86 0 -79 27 4 14 14 21 32 22 33 1 98 24 85 30 -5 3 -31
-1 -59 -8z"/>
<path d="M9898 6129 c-7 -19 -15 -28 -24 -25 -11 4 -14 -14 -14 -99 0 -63 4
-105 10 -105 6 0 10 5 10 10 0 15 67 12 73 -2 5 -13 9 175 5 189 -2 4 -16 6
-31 4 -26 -2 -28 -1 -18 17 6 11 16 22 23 24 7 3 5 7 -6 11 -13 5 -20 0 -28
-24z m50 -76 c-2 -23 -8 -29 -35 -31 -31 -3 -33 -1 -33 27 0 29 3 31 36 31 33
0 35 -2 32 -27z m-2 -58 c4 -8 3 -26 0 -40 -5 -20 -13 -25 -36 -25 -28 0 -30
2 -30 40 0 38 2 40 30 40 18 0 33 -6 36 -15z"/>
<path d="M9996 6115 c-4 -24 -11 -47 -17 -50 -5 -4 -9 -14 -8 -23 0 -10 7 -4
16 16 16 30 20 32 68 32 l51 0 -7 -84 c-4 -46 -10 -89 -14 -96 -4 -7 -19 -9
-38 -6 l-32 6 33 -17 c22 -11 35 -14 43 -6 9 9 21 72 32 181 l5 42 -59 0 c-55
0 -59 1 -50 19 10 18 6 31 -10 31 -3 0 -10 -20 -13 -45z"/>
<path d="M10323 6147 c6 -17 2 -18 -53 -15 l-60 3 0 -86 c0 -51 -6 -104 -15
-129 -13 -37 -13 -41 0 -30 14 12 18 27 30 123 6 44 8 47 36 47 25 0 29 -4 29
-27 0 -27 1 -28 50 -25 46 4 50 6 50 29 0 17 5 24 18 22 35 -3 53 1 47 12 -4
6 -19 7 -37 3 -26 -5 -30 -4 -25 10 4 9 1 17 -6 18 -7 0 8 4 33 7 60 8 49 27
-13 23 -36 -3 -54 1 -69 15 -21 17 -21 17 -15 0z m-33 -57 c0 -21 -33 -28 -59
-11 -21 13 -4 31 30 31 22 0 29 -5 29 -20z m80 0 c0 -16 -7 -20 -30 -20 -23 0
-30 4 -30 20 0 16 7 20 30 20 23 0 30 -4 30 -20z m0 -50 c0 -16 -7 -20 -30
-20 -23 0 -30 4 -30 20 0 16 7 20 30 20 23 0 30 -4 30 -20z"/>
<path d="M3750 6138 c0 -5 25 -8 55 -8 30 0 55 4 55 8 0 5 -25 8 -55 8 -30 -1
-55 -4 -55 -8z"/>
<path d="M8180 6140 c0 -5 7 -10 16 -10 14 0 15 -7 10 -41 -4 -22 -14 -51 -22
-65 -9 -13 -12 -24 -6 -24 6 0 13 6 15 13 3 6 6 -14 6 -47 1 -49 4 -57 17 -52
9 3 24 6 35 6 17 0 19 7 18 68 -1 67 -2 69 -25 64 -18 -3 -24 0 -24 14 0 43
12 64 36 64 13 0 24 5 24 10 0 6 -22 10 -50 10 -27 0 -50 -4 -50 -10z m70
-155 c0 -42 -3 -55 -15 -55 -12 0 -15 13 -15 55 0 42 3 55 15 55 12 0 15 -13
15 -55z"/>
<path d="M8563 6143 c26 -2 47 -8 47 -13 0 -5 -13 -25 -30 -43 -42 -48 -39
-58 15 -50 l45 6 0 -33 0 -32 -50 4 c-28 1 -50 0 -50 -4 0 -5 23 -8 50 -8 49
0 50 -1 50 -30 l0 -30 -72 0 c-39 0 -68 -3 -64 -7 4 -4 67 -8 141 -9 102 -1
135 2 135 11 0 9 -17 11 -65 7 l-65 -5 0 32 c0 31 1 31 50 31 48 0 63 11 38
26 -6 4 -14 2 -16 -4 -5 -15 -58 -16 -67 -2 -4 6 -2 17 4 24 6 7 8 15 6 18 -3
3 9 8 26 12 23 4 38 1 51 -10 16 -15 18 -15 18 -2 0 17 -69 83 -77 74 -3 -3 5
-14 18 -25 l24 -19 -67 -7 c-37 -4 -71 -6 -77 -4 -11 5 57 84 79 92 8 3 -21 5
-65 4 -50 0 -62 -2 -32 -4z"/>
<path d="M4952 6133 c2 -5 12 -26 22 -48 11 -22 21 -34 23 -28 4 12 -33 83
-44 83 -2 0 -3 -3 -1 -7z"/>
<path d="M5114 6095 c-26 -55 -18 -57 19 -6 30 44 33 51 15 51 -7 -1 -22 -21
-34 -45z"/>
<path d="M8965 6121 c-27 -3 -45 -9 -40 -12 13 -9 111 -4 106 4 -7 13 -16 14
-66 8z"/>
<path d="M3630 6104 c1 -14 40 -58 46 -52 3 3 -6 18 -20 33 -15 16 -26 24 -26
19z"/>
<path d="M7217 6069 c-21 -22 -34 -39 -29 -39 12 0 92 63 92 72 0 17 -27 3
-63 -33z"/>
<path d="M2741 6091 c-10 -6 -10 -10 -1 -16 7 -4 10 -27 9 -59 -1 -28 1 -52 4
-53 18 -7 22 1 22 48 0 38 5 55 17 62 25 16 33 2 33 -61 0 -42 4 -57 14 -57
10 0 14 15 15 54 1 39 6 57 18 65 25 15 31 3 31 -64 0 -50 2 -60 15 -58 13 2
15 15 13 63 -3 73 -18 94 -56 77 -20 -9 -30 -9 -44 0 -15 9 -23 9 -37 -3 -13
-11 -18 -11 -21 -1 -5 14 -13 15 -32 3z"/>
<path d="M7360 6083 c14 -10 33 -27 42 -38 15 -17 17 -18 18 -3 0 18 -49 58
-71 58 -8 0 -2 -8 11 -17z"/>
<path d="M7858 6084 c13 -9 26 -13 30 -9 8 8 -17 25 -38 25 -9 0 -6 -6 8 -16z"/>
<path d="M3259 6090 c-5 -23 -4 -80 1 -80 4 0 12 12 19 27 10 22 9 29 -3 42
-9 8 -16 13 -17 11z"/>
<path d="M8920 6078 c0 -11 108 -10 114 0 3 5 -22 8 -55 8 -32 -1 -59 -4 -59
-8z"/>
<path d="M9533 6073 c31 -5 33 -10 11 -41 -14 -21 -14 -22 10 -22 30 0 30 2
11 -43 -8 -19 -23 -37 -36 -40 -13 -3 -18 -10 -14 -17 5 -9 11 -8 22 3 14 13
19 13 48 -5 36 -21 160 -36 192 -23 17 7 17 8 -2 15 -11 5 -35 6 -53 3 -41 -7
-114 4 -136 20 -16 11 -16 15 -1 49 20 50 19 61 -5 53 -24 -7 -26 7 -5 25 25
21 17 30 -27 29 -30 -2 -35 -3 -15 -6z"/>
<path d="M2145 6060 c8 -13 125 -13 145 0 10 7 -11 10 -68 10 -53 0 -81 -4
-77 -10z"/>
<path d="M7000 6054 c1 -17 50 -70 50 -53 0 8 -11 26 -25 39 -14 13 -25 19
-25 14z"/>
<path d="M7260 6051 c0 -7 9 -28 20 -46 l20 -33 -30 -25 c-16 -14 -43 -28 -60
-32 -16 -4 -30 -11 -30 -16 0 -12 2 -12 52 10 24 10 49 26 57 35 18 22 23 21
74 -14 45 -30 77 -39 77 -20 0 6 -5 10 -11 10 -24 0 -99 44 -99 58 0 8 11 30
26 49 19 25 21 33 10 33 -9 0 -24 -16 -33 -35 -20 -38 -32 -36 -56 10 -9 17
-16 24 -17 16z"/>
<path d="M8965 6050 c-71 -3 -122 -7 -112 -8 14 -2 17 -12 17 -55 0 -29 -5
-58 -12 -65 -15 -15 -3 -28 14 -15 7 6 25 13 41 17 22 5 27 3 27 -13 0 -11 4
-22 10 -26 5 -3 10 26 12 72 l3 78 65 2 c36 1 71 2 78 2 7 1 10 6 7 11 -3 6
-9 9 -13 8 -4 -1 -65 -5 -137 -8z m-25 -25 c0 -9 -9 -15 -25 -15 -16 0 -25 6
-25 15 0 9 9 15 25 15 16 0 25 -6 25 -15z m4 -40 c-4 -8 -17 -15 -30 -15 -15
0 -24 6 -24 15 0 10 10 15 30 15 22 0 28 -4 24 -15z m-4 -34 c0 -9 -24 -21
-41 -21 -5 0 -9 7 -9 15 0 9 9 15 25 15 14 0 25 -4 25 -9z"/>
<path d="M6588 5993 l4 -53 54 0 54 0 0 53 0 52 -58 0 -57 1 3 -53z m92 22 c0
-11 -11 -15 -40 -15 -29 0 -40 4 -40 15 0 11 11 15 40 15 29 0 40 -4 40 -15z
m0 -41 c0 -11 -9 -14 -37 -12 -52 4 -56 28 -4 28 30 0 41 -4 41 -16z"/>
<path d="M7878 6023 c-37 -25 -46 -38 -30 -46 4 -2 22 14 41 35 39 44 38 45
-11 11z"/>
<path d="M10637 6044 c-13 -13 -7 -55 8 -60 21 -9 47 15 43 40 -3 21 -37 34
-51 20z m41 -27 c2 -12 -3 -17 -17 -17 -12 0 -21 6 -21 13 0 31 32 34 38 4z"/>
<path d="M10032 6006 c13 -19 25 -31 26 -25 6 16 -6 37 -28 49 -20 11 -20 10
2 -24z"/>
<path d="M3655 6005 c-16 -14 -36 -25 -42 -25 -7 0 -13 -7 -13 -15 0 -23 11
-18 59 25 48 43 45 55 -4 15z"/>
<path d="M3750 6023 c0 -12 78 -83 91 -83 22 0 16 21 -8 31 -15 5 -40 22 -55
37 -16 14 -28 21 -28 15z"/>
<path d="M2144 6009 c-3 -5 30 -9 77 -9 45 0 79 3 75 7 -10 11 -145 13 -152 2z"/>
<path d="M9005 5971 c26 -53 89 -101 108 -82 8 8 1 14 -21 22 -18 6 -32 14
-32 17 0 16 25 72 32 72 4 0 8 5 8 10 0 6 -26 10 -59 10 l-59 0 23 -49z m65
24 c0 -2 -5 -16 -12 -30 -11 -24 -12 -24 -30 -9 -27 26 -23 44 12 44 17 0 30
-2 30 -5z"/>
<path d="M10336 5992 l-69 -3 33 -34 33 -35 -36 -15 c-20 -8 -46 -15 -57 -15
-11 0 -20 -4 -20 -9 0 -10 56 1 100 19 24 10 37 9 74 -5 24 -9 50 -14 57 -9 8
5 -5 12 -35 21 l-48 14 28 30 c16 17 24 32 18 37 -5 4 -40 6 -78 4z m38 -42
c-19 -19 -21 -19 -44 -2 l-25 17 40 5 c50 7 54 4 29 -20z"/>
<path d="M4645 5959 c-10 -11 -30 -22 -42 -25 -20 -5 -33 -24 -17 -24 17 0
103 54 98 61 -8 13 -17 10 -39 -12z"/>
<path d="M4755 5972 c47 -39 85 -61 85 -49 0 8 -6 19 -12 24 -16 12 -86 37
-73 25z"/>
<path d="M8405 5960 c-3 -5 3 -10 14 -10 12 0 21 5 21 10 0 6 -6 10 -14 10 -8
0 -18 -4 -21 -10z"/>
<path d="M8990 5900 l-25 -20 33 11 c17 6 32 15 32 20 0 14 -13 10 -40 -11z"/>
<path d="M10123 5436 c-37 -52 -75 -95 -82 -95 -11 -1 -12 -4 -4 -12 16 -16
43 -4 43 19 0 26 20 42 52 42 22 0 28 -5 28 -21 0 -12 -8 -28 -17 -35 -16 -12
-15 -13 12 -14 17 0 37 5 45 10 12 8 12 10 1 10 -11 0 -12 18 -6 95 4 52 5 95
2 95 -3 0 -36 -42 -74 -94z m47 4 c0 -26 -4 -30 -26 -30 l-25 0 21 30 c12 17
23 30 26 30 2 0 4 -13 4 -30z"/>
<path d="M2067 5339 c-8 -19 -25 -59 -37 -89 -13 -30 -30 -62 -37 -71 -12 -14
-12 -17 2 -22 21 -9 51 3 35 13 -7 4 -9 16 -6 28 5 15 17 21 47 24 36 3 42 1
50 -19 5 -13 8 -27 6 -31 -3 -9 7 -12 35 -12 19 0 20 2 6 18 -8 9 -28 53 -43
97 -16 44 -32 84 -36 89 -4 5 -14 -7 -22 -25z m31 -71 c11 -27 10 -28 -18 -28
-33 0 -36 7 -18 45 12 28 18 25 36 -17z"/>
<path d="M2937 5335 c-9 -20 -17 -38 -17 -40 0 -3 16 -11 35 -19 65 -28 56
-104 -12 -93 -25 4 -33 2 -33 -9 0 -23 54 -22 81 2 39 35 26 114 -22 129 -31
10 -22 33 13 37 44 4 49 28 6 28 -29 0 -37 -5 -51 -35z"/>
<path d="M3077 5352 c-25 -27 -21 -35 9 -16 23 16 27 16 41 1 15 -14 15 -18
-1 -41 -9 -14 -22 -26 -29 -27 -6 -1 -1 -4 13 -8 21 -6 25 -13 25 -41 0 -34
-1 -35 -45 -40 -40 -5 -43 -6 -25 -17 34 -19 75 -4 93 34 15 31 15 37 1 61
-11 20 -12 34 -5 54 18 50 -41 80 -77 40z"/>
<path d="M3212 5346 c-16 -36 14 -72 51 -62 31 7 46 48 27 71 -20 24 -65 19
-78 -9z m66 -18 c-3 -25 -34 -36 -50 -20 -17 17 -1 42 27 42 22 0 26 -4 23
-22z"/>
<path d="M10062 5161 c-20 -25 -28 -42 -21 -46 6 -4 12 -5 13 -4 1 2 11 15 20
29 17 24 17 -49 11 -1559 -3 -872 -7 -1589 -8 -1595 -1 -6 9 -12 23 -14 l25
-3 4 1238 c1 681 5 1285 7 1343 2 58 4 212 4 343 0 144 4 236 9 232 5 -3 12
-1 15 4 4 5 1 13 -4 16 -6 4 -15 18 -20 31 -14 35 -42 29 -78 -15z"/>
<path d="M2215 5180 c-8 -13 4 -32 16 -25 12 8 12 35 0 35 -6 0 -13 -4 -16
-10z"/>
<path d="M10198 5074 c-8 -7 40 -74 53 -74 16 0 9 19 -19 51 -15 17 -30 27
-34 23z"/>
<path d="M9961 5031 c-21 -30 -27 -51 -13 -51 8 0 52 62 52 73 0 16 -20 5 -39
-22z"/>
<path d="M10292 4943 c16 -36 52 -82 59 -77 15 9 10 27 -16 57 -22 24 -52 38
-43 20z"/>
<path d="M9861 4904 c-34 -43 -26 -65 9 -26 17 18 30 37 30 42 0 18 -18 10
-39 -16z"/>
<path d="M10390 4811 c0 -16 51 -71 61 -65 5 3 -3 21 -17 40 -26 33 -44 44
-44 25z"/>
<path d="M9756 4774 c-19 -24 -25 -39 -18 -46 6 -6 18 2 36 25 46 60 30 80
-18 21z"/>
<path d="M10490 4683 c0 -11 44 -73 52 -73 18 0 14 19 -8 48 -24 30 -44 41
-44 25z"/>
<path d="M9658 4646 c-31 -39 -34 -46 -15 -46 10 0 57 61 57 75 0 14 -18 2
-42 -29z"/>
<path d="M2964 4632 c-12 -2 -28 -17 -37 -38 -21 -44 -22 -41 10 -49 40 -10
53 -24 53 -55 0 -37 -22 -53 -61 -45 -24 5 -30 4 -27 -6 8 -25 56 -22 83 5 41
41 29 107 -21 127 -33 12 -26 33 12 37 16 2 33 7 37 11 10 10 -20 18 -49 13z"/>
<path d="M3088 4568 c-26 -39 -45 -75 -42 -80 3 -4 23 -8 45 -8 35 0 39 -3 39
-25 0 -14 5 -25 10 -25 6 0 10 10 10 21 0 12 8 28 18 35 16 13 16 13 0 14 -15
0 -18 10 -18 70 0 39 -3 70 -7 70 -5 0 -29 -32 -55 -72z m38 -54 c-5 -13 -56
-21 -56 -8 0 3 12 26 28 52 l27 47 3 -39 c2 -21 1 -44 -2 -52z"/>
<path d="M3216 4624 c-21 -20 -20 -37 3 -65 16 -21 22 -22 45 -11 19 8 26 19
26 40 0 49 -42 69 -74 36z m54 -19 c9 -11 10 -18 1 -29 -15 -18 -51 -9 -51 13
0 33 28 42 50 16z"/>
<path d="M1989 4621 c16 -11 17 -167 0 -188 -9 -11 1 -13 55 -13 53 0 70 4 86
20 24 24 26 66 3 79 -14 7 -15 12 -4 24 19 23 9 60 -19 74 -28 14 -143 18
-121 4z m114 -32 c17 -28 1 -49 -38 -49 -33 0 -35 2 -35 36 0 34 1 35 31 32
18 -2 37 -10 42 -19z m11 -91 c17 -27 -5 -52 -48 -56 l-36 -3 0 41 0 41 36 -3
c22 -2 42 -10 48 -20z"/>
<path d="M10587 4564 c-6 -7 44 -83 56 -84 4 0 7 8 7 18 -1 19 -53 75 -63 66z"/>
<path d="M9561 4524 c-21 -27 -28 -54 -13 -54 8 0 52 62 52 73 0 15 -20 6 -39
-19z"/>
<path d="M2200 4434 c0 -9 5 -14 12 -12 18 6 21 28 4 28 -9 0 -16 -7 -16 -16z"/>
<path d="M10687 4434 c-7 -7 43 -74 56 -74 4 0 7 6 7 13 0 17 -54 69 -63 61z"/>
<path d="M9467 4401 c-28 -34 -34 -51 -18 -51 14 0 53 58 49 72 -2 6 -16 -4
-31 -21z"/>
<path d="M10789 4293 c6 -10 19 -29 29 -42 28 -35 38 -8 11 29 -25 33 -57 43
-40 13z"/>
<path d="M9362 4264 c-30 -46 -17 -66 14 -20 13 19 24 40 24 45 0 21 -15 11
-38 -25z"/>
<path d="M10887 4184 c-3 -3 6 -24 20 -45 17 -25 30 -36 36 -30 6 6 -1 22 -18
45 -30 39 -29 39 -38 30z"/>
<path d="M9266 4139 c-27 -31 -33 -49 -17 -49 9 0 61 64 61 74 0 15 -21 3 -44
-25z"/>
<path d="M10980 4055 c0 -13 58 -84 64 -78 10 11 7 20 -20 52 -23 28 -44 40
-44 26z"/>
<path d="M9166 4008 c-22 -29 -26 -48 -8 -48 7 0 52 65 52 75 0 15 -21 1 -44
-27z"/>
<path d="M11080 3923 c0 -11 54 -73 63 -73 14 0 6 21 -20 50 -25 29 -43 38
-43 23z"/>
<path d="M9073 3890 c-23 -29 -30 -50 -15 -50 14 0 54 62 46 70 -5 4 -19 -5
-31 -20z"/>
<path d="M2962 3889 c-62 -40 -81 -122 -41 -173 25 -32 62 -34 83 -4 35 50 5
129 -43 113 -42 -13 -10 38 45 72 14 9 15 12 4 12 -8 0 -30 -9 -48 -20z m29
-105 c11 -30 5 -56 -15 -73 -22 -18 -46 14 -46 60 0 35 3 39 25 39 18 0 28 -7
36 -26z"/>
<path d="M3071 3881 c-24 -33 -26 -50 -9 -87 10 -22 17 -25 45 -21 18 3 33 4
33 1 0 -14 -36 -57 -59 -69 -14 -8 -20 -14 -13 -15 46 -1 112 82 112 142 0 31
-42 78 -69 78 -11 0 -29 -13 -40 -29z m69 -11 c26 -49 -8 -101 -45 -70 -18 15
-20 76 -2 83 24 10 36 7 47 -13z"/>
<path d="M3217 3892 c-10 -10 -17 -26 -17 -35 0 -19 26 -47 45 -47 41 0 61 71
26 90 -27 14 -35 13 -54 -8z m52 -15 c15 -19 -9 -50 -32 -41 -17 6 -23 35 -10
47 10 11 30 8 42 -6z"/>
<path d="M2012 3871 c-27 -24 -32 -36 -32 -74 0 -63 37 -107 89 -107 36 0 81
22 81 41 0 5 -13 0 -29 -12 -27 -20 -33 -21 -61 -9 -70 29 -66 164 5 171 43 3
56 -2 67 -28 11 -28 12 -28 16 -5 6 39 -3 48 -55 51 -43 2 -54 -2 -81 -28z"/>
<path d="M11180 3793 c0 -5 14 -24 30 -43 34 -41 43 -19 9 24 -20 25 -39 34
-39 19z"/>
<path d="M8970 3755 c-29 -47 -15 -67 16 -21 13 19 24 40 24 45 0 22 -19 10
-40 -24z"/>
<path d="M2190 3706 c0 -9 7 -16 16 -16 9 0 14 5 12 12 -6 18 -28 21 -28 4z"/>
<path d="M11277 3674 c-7 -7 42 -84 54 -84 17 0 8 25 -20 58 -15 17 -30 29
-34 26z"/>
<path d="M8871 3625 c-13 -20 -21 -39 -17 -43 9 -8 56 47 56 66 0 21 -14 13
-39 -23z"/>
<path d="M11376 3542 c-3 -5 7 -26 23 -46 18 -23 32 -32 36 -26 4 6 -3 24 -16
38 -13 15 -27 31 -30 35 -4 5 -9 4 -13 -1z"/>
<path d="M8777 3505 c-27 -34 -34 -55 -19 -55 7 0 37 35 55 67 17 28 -11 19
-36 -12z"/>
<path d="M11470 3415 c0 -10 45 -75 53 -75 13 0 7 21 -14 51 -18 26 -39 38
-39 24z"/>
<path d="M8675 3374 c-30 -39 -27 -58 6 -28 28 25 41 51 30 58 -5 3 -21 -10
-36 -30z"/>
<path d="M11570 3285 c0 -3 10 -20 22 -38 13 -18 24 -34 26 -36 1 -3 7 0 12 5
7 7 1 21 -16 42 -24 29 -44 41 -44 27z"/>
<path d="M8576 3248 c-34 -44 -20 -60 16 -18 15 19 28 38 28 42 0 17 -20 6
-44 -24z"/>
<path d="M2902 3145 c-11 -24 0 -36 13 -15 3 6 23 10 44 10 l38 0 -28 -82
c-31 -88 -33 -98 -21 -98 4 0 21 42 36 93 16 50 31 98 34 105 3 9 -11 12 -50
12 -49 0 -56 -3 -66 -25z"/>
<path d="M3072 3147 c-48 -51 -16 -204 39 -190 55 15 79 135 38 187 -25 32
-49 33 -77 3z m57 -4 c20 -39 17 -135 -5 -158 -16 -15 -18 -15 -33 0 -20 20
-22 135 -2 159 17 21 28 20 40 -1z"/>
<path d="M3206 3148 c-25 -35 5 -75 49 -64 33 8 45 54 20 73 -27 19 -52 16
-69 -9z m59 -23 c0 -22 -31 -33 -47 -17 -17 17 -1 44 24 40 15 -2 23 -10 23
-23z"/>
<path d="M11670 3158 c0 -22 52 -80 62 -70 7 7 2 20 -16 39 -14 15 -26 31 -26
35 0 5 -4 8 -10 8 -5 0 -10 -5 -10 -12z"/>
<path d="M1978 3153 c8 -3 12 -32 12 -93 0 -61 -4 -90 -12 -93 -7 -3 19 -6 58
-6 64 -1 72 1 96 27 32 34 39 63 27 107 -14 51 -41 65 -124 64 -38 0 -64 -3
-57 -6z m136 -32 c26 -27 25 -96 -1 -123 -11 -11 -35 -20 -54 -21 l-34 -2 -3
74 c-2 41 0 81 3 89 7 19 63 8 89 -17z"/>
<path d="M8481 3121 c-22 -31 -27 -51 -12 -51 8 0 51 64 51 76 0 13 -21 0 -39
-25z"/>
<path d="M11766 3032 c-7 -11 55 -75 64 -66 5 5 -4 24 -21 42 -30 34 -35 37
-43 24z"/>
<path d="M8383 3000 c-23 -29 -30 -50 -15 -50 10 0 52 56 52 70 0 17 -14 10
-37 -20z"/>
<path d="M2202 2973 c2 -10 8 -18 13 -18 5 0 11 8 13 18 2 10 -3 17 -13 17
-10 0 -15 -7 -13 -17z"/>
<path d="M11866 2912 c-6 -10 43 -81 57 -82 15 0 5 26 -22 58 -16 19 -31 29
-35 24z"/>
<path d="M8287 2877 c-28 -37 -34 -57 -18 -57 13 0 53 68 49 81 -2 6 -16 -5
-31 -24z"/>
<path d="M11970 2774 c0 -22 47 -77 55 -64 6 10 -39 80 -51 80 -2 0 -4 -7 -4
-16z"/>
<path d="M8186 2744 c-36 -46 -25 -57 16 -16 21 21 29 35 22 42 -6 6 -19 -3
-38 -26z"/>
<path d="M8087 2621 c-34 -51 -20 -62 17 -14 18 22 25 38 19 44 -6 6 -19 -5
-36 -30z"/>
<path d="M12060 2652 c0 -4 13 -23 28 -42 36 -42 50 -26 16 18 -24 30 -44 41
-44 24z"/>
<path d="M12160 2528 c1 -19 57 -81 64 -70 3 5 -7 26 -22 45 -28 38 -42 46
-42 25z"/>
<path d="M7987 2490 c-15 -21 -23 -41 -18 -44 12 -8 65 64 55 74 -5 5 -21 -8
-37 -30z"/>
<path d="M12260 2400 c0 -9 13 -31 30 -50 18 -22 29 -29 30 -20 0 9 -13 31
-30 50 -18 22 -29 29 -30 20z"/>
<path d="M7886 2363 c-20 -24 -26 -37 -18 -45 7 -7 16 -2 28 18 10 16 23 32
29 36 6 5 6 10 0 16 -6 6 -21 -4 -39 -25z"/>
<path d="M12357 2273 c-3 -2 1 -12 9 -21 7 -10 20 -26 28 -37 22 -31 30 -10
10 24 -18 30 -37 44 -47 34z"/>
<path d="M7791 2241 c-21 -30 -27 -51 -13 -51 6 0 37 45 50 73 10 20 -19 3
-37 -22z"/>
<path d="M10280 2235 c10 -12 8 -28 -9 -81 -12 -37 -21 -73 -21 -80 0 -7 -8
-18 -17 -23 -14 -8 -2 -10 47 -11 101 0 150 39 150 121 0 61 -39 89 -123 89
-34 0 -38 -2 -27 -15z m114 -26 c17 -25 12 -83 -9 -116 -16 -24 -92 -50 -106
-36 -7 7 10 80 36 161 7 20 62 14 79 -9z"/>
<path d="M7697 2118 c-26 -34 -34 -58 -19 -58 12 0 54 68 50 81 -2 7 -16 -2
-31 -23z"/>
<path d="M12450 2140 c0 -5 4 -10 8 -10 4 0 16 -14 26 -31 12 -21 21 -28 28
-21 7 7 3 20 -11 41 -21 30 -51 42 -51 21z"/>
<path d="M12550 2023 c0 -4 12 -24 27 -45 16 -25 30 -35 36 -29 6 6 -1 22 -18
45 -25 33 -45 46 -45 29z"/>
<path d="M7593 1988 c-15 -21 -19 -36 -13 -42 5 -5 11 -8 12 -5 2 2 13 18 26
36 25 37 27 43 10 43 -7 0 -23 -15 -35 -32z"/>
<path d="M10030 1964 c0 -17 22 -14 28 4 2 7 -3 12 -12 12 -9 0 -16 -7 -16
-16z"/>
<path d="M10147 1966 c-3 -8 -2 -18 3 -21 13 -8 24 15 12 27 -6 6 -11 4 -15
-6z"/>
<path d="M9986 1945 c4 -8 10 -12 15 -9 14 8 10 24 -6 24 -9 0 -12 -6 -9 -15z"/>
<path d="M10190 1951 c0 -6 5 -13 10 -16 6 -3 10 1 10 9 0 9 -4 16 -10 16 -5
0 -10 -4 -10 -9z"/>
<path d="M9951 1934 c0 -11 3 -14 6 -6 3 7 2 16 -1 19 -3 4 -6 -2 -5 -13z"/>
<path d="M10236 1941 c-4 -5 -2 -12 3 -15 5 -4 12 -2 15 3 4 5 2 12 -3 15 -5
4 -12 2 -15 -3z"/>
<path d="M9906 1931 c-4 -7 -5 -15 -2 -18 9 -9 19 4 14 18 -4 11 -6 11 -12 0z"/>
<path d="M10280 1915 c0 -8 5 -15 10 -15 6 0 10 7 10 15 0 8 -4 15 -10 15 -5
0 -10 -7 -10 -15z"/>
<path d="M9860 1904 c0 -8 5 -12 10 -9 6 3 10 10 10 16 0 5 -4 9 -10 9 -5 0
-10 -7 -10 -16z"/>
<path d="M10320 1905 c0 -8 5 -15 10 -15 6 0 10 7 10 15 0 8 -4 15 -10 15 -5
0 -10 -7 -10 -15z"/>
<path d="M9815 1900 c-4 -6 -3 -16 3 -22 6 -6 12 -6 17 2 4 6 3 16 -3 22 -6 6
-12 6 -17 -2z"/>
<path d="M7504 1873 c-32 -43 -35 -51 -25 -57 13 -8 65 64 54 75 -6 6 -17 -2
-29 -18z"/>
<path d="M10363 1888 c2 -7 7 -13 12 -13 5 0 10 6 13 13 2 6 -4 12 -13 12 -9
0 -15 -6 -12 -12z"/>
<path d="M12650 1892 c0 -15 58 -77 65 -70 9 9 -41 78 -56 78 -5 0 -9 -4 -9
-8z"/>
<path d="M9770 1875 c0 -8 5 -15 10 -15 6 0 10 7 10 15 0 8 -4 15 -10 15 -5 0
-10 -7 -10 -15z"/>
<path d="M10410 1870 c0 -19 3 -21 12 -12 9 9 9 15 0 24 -9 9 -12 7 -12 -12z"/>
<path d="M9720 1860 c0 -5 7 -10 15 -10 8 0 15 5 15 10 0 6 -7 10 -15 10 -8 0
-15 -4 -15 -10z"/>
<path d="M10450 1855 c0 -8 5 -15 10 -15 6 0 10 7 10 15 0 8 -4 15 -10 15 -5
0 -10 -7 -10 -15z"/>
<path d="M9680 1845 c0 -8 5 -15 10 -15 6 0 10 7 10 15 0 8 -4 15 -10 15 -5 0
-10 -7 -10 -15z"/>
<path d="M9640 1830 c0 -19 3 -21 12 -12 9 9 9 15 0 24 -9 9 -12 7 -12 -12z"/>
<path d="M10500 1835 c0 -8 2 -15 4 -15 2 0 6 7 10 15 3 8 1 15 -4 15 -6 0
-10 -7 -10 -15z"/>
<path d="M10536 1831 c-4 -5 -2 -12 3 -15 5 -4 12 -2 15 3 4 5 2 12 -3 15 -5
4 -12 2 -15 -3z"/>
<path d="M9600 1815 c0 -8 5 -15 10 -15 6 0 10 7 10 15 0 8 -4 15 -10 15 -5 0
-10 -7 -10 -15z"/>
<path d="M9555 1809 c-10 -15 3 -25 16 -12 7 7 7 13 1 17 -6 3 -14 1 -17 -5z"/>
<path d="M10575 1810 c-3 -5 1 -10 9 -10 9 0 16 5 16 10 0 6 -4 10 -9 10 -6 0
-13 -4 -16 -10z"/>
<path d="M10620 1795 c0 -8 5 -15 10 -15 6 0 10 7 10 15 0 8 -4 15 -10 15 -5
0 -10 -7 -10 -15z"/>
<path d="M9510 1784 c0 -8 5 -12 10 -9 6 3 10 10 10 16 0 5 -4 9 -10 9 -5 0
-10 -7 -10 -16z"/>
<path d="M10660 1780 c0 -5 7 -10 15 -10 8 0 15 5 15 10 0 6 -7 10 -15 10 -8
0 -15 -4 -15 -10z"/>
<path d="M9465 1770 c3 -5 10 -10 16 -10 5 0 9 5 9 10 0 6 -7 10 -16 10 -8 0
-12 -4 -9 -10z"/>
<path d="M10710 1765 c0 -8 5 -15 10 -15 6 0 10 7 10 15 0 8 -4 15 -10 15 -5
0 -10 -7 -10 -15z"/>
<path d="M12755 1770 c-8 -13 35 -69 54 -69 9 -1 10 3 4 12 -5 6 -19 25 -30
40 -13 16 -24 23 -28 17z"/>
<path d="M9422 1759 c3 -8 8 -13 11 -11 9 3 7 11 -5 18 -6 4 -8 0 -6 -7z"/>
<path d="M7392 1731 c-14 -19 -18 -32 -11 -36 10 -7 28 11 50 48 17 30 -15 20
-39 -12z"/>
<path d="M9386 1751 c-4 -7 -5 -15 -2 -18 9 -9 19 4 14 18 -4 11 -6 11 -12 0z"/>
<path d="M10750 1745 c0 -8 5 -15 10 -15 6 0 10 7 10 15 0 8 -4 15 -10 15 -5
0 -10 -7 -10 -15z"/>
<path d="M10797 1743 c-12 -11 -8 -23 8 -23 8 0 15 7 15 15 0 16 -12 20 -23 8z"/>
<path d="M9336 1725 c4 -8 10 -12 15 -9 14 8 10 24 -6 24 -9 0 -12 -6 -9 -15z"/>
<path d="M9295 1719 c-10 -15 3 -25 16 -12 7 7 7 13 1 17 -6 3 -14 1 -17 -5z"/>
<path d="M10840 1721 c0 -6 5 -13 10 -16 6 -3 10 1 10 9 0 9 -4 16 -10 16 -5
0 -10 -4 -10 -9z"/>
<path d="M10880 1705 c0 -8 5 -15 10 -15 6 0 10 7 10 15 0 8 -4 15 -10 15 -5
0 -10 -7 -10 -15z"/>
<path d="M9250 1701 c0 -6 5 -13 10 -16 6 -3 10 1 10 9 0 9 -4 16 -10 16 -5 0
-10 -4 -10 -9z"/>
<path d="M10925 1690 c-3 -5 1 -10 9 -10 9 0 16 5 16 10 0 6 -4 10 -9 10 -6 0
-13 -4 -16 -10z"/>
<path d="M9210 1680 c0 -5 5 -10 10 -10 6 0 10 5 10 10 0 6 -4 10 -10 10 -5 0
-10 -4 -10 -10z"/>
<path d="M10967 1684 c-8 -8 1 -24 14 -24 5 0 9 7 9 15 0 15 -12 20 -23 9z"/>
<path d="M9170 1665 c0 -8 5 -15 10 -15 6 0 10 7 10 15 0 8 -4 15 -10 15 -5 0
-10 -7 -10 -15z"/>
<path d="M9126 1663 c-11 -11 -6 -23 9 -23 8 0 15 4 15 9 0 13 -16 22 -24 14z"/>
<path d="M11013 1658 c2 -7 7 -13 12 -13 5 0 10 6 13 13 2 6 -4 12 -13 12 -9
0 -15 -6 -12 -12z"/>
<path d="M11056 1651 c-4 -5 -2 -12 3 -15 5 -4 12 -2 15 3 4 5 2 12 -3 15 -5
4 -12 2 -15 -3z"/>
<path d="M9080 1635 c0 -8 5 -15 10 -15 6 0 10 7 10 15 0 8 -4 15 -10 15 -5 0
-10 -7 -10 -15z"/>
<path d="M12850 1638 c0 -7 14 -29 30 -48 22 -26 30 -31 30 -17 0 19 -39 77
-52 77 -4 0 -8 -6 -8 -12z"/>
<path d="M7303 1610 c-24 -29 -29 -50 -14 -50 8 0 51 64 51 76 0 12 -17 0 -37
-26z"/>
<path d="M9040 1626 c0 -9 5 -16 10 -16 6 0 10 4 10 9 0 6 -4 13 -10 16 -5 3
-10 -1 -10 -9z"/>
<path d="M11100 1630 c0 -5 5 -10 10 -10 6 0 10 5 10 10 0 6 -4 10 -10 10 -5
0 -10 -4 -10 -10z"/>
<path d="M11146 1623 c-11 -11 -6 -23 9 -23 8 0 15 4 15 9 0 13 -16 22 -24 14z"/>
<path d="M9000 1604 c0 -8 5 -12 10 -9 6 4 8 11 5 16 -9 14 -15 11 -15 -7z"/>
<path d="M11185 1601 c-3 -5 -1 -12 5 -16 5 -3 10 1 10 9 0 18 -6 21 -15 7z"/>
<path d="M8950 1590 c0 -5 5 -10 10 -10 6 0 10 5 10 10 0 6 -4 10 -10 10 -5 0
-10 -4 -10 -10z"/>
<path d="M11230 1586 c0 -9 5 -16 10 -16 6 0 10 4 10 9 0 6 -4 13 -10 16 -5 3
-10 -1 -10 -9z"/>
<path d="M8906 1575 c4 -8 10 -15 15 -15 5 0 9 7 9 15 0 8 -7 15 -15 15 -9 0
-12 -6 -9 -15z"/>
<path d="M8867 1573 c-3 -5 -2 -15 2 -22 7 -10 10 -10 16 -1 4 6 3 16 -3 22
-5 5 -12 6 -15 1z"/>
<path d="M11270 1565 c0 -8 5 -15 10 -15 6 0 10 7 10 15 0 8 -4 15 -10 15 -5
0 -10 -7 -10 -15z"/>
<path d="M11310 1555 c0 -9 5 -15 10 -13 12 4 11 16 -1 24 -5 3 -9 -2 -9 -11z"/>
<path d="M8823 1548 c2 -7 7 -13 12 -13 5 0 10 6 13 13 2 6 -4 12 -13 12 -9 0
-15 -6 -12 -12z"/>
<path d="M8786 1541 c-4 -7 -5 -15 -2 -18 9 -9 19 4 14 18 -4 11 -6 11 -12 0z"/>
<path d="M11355 1541 c-6 -11 9 -23 19 -14 9 9 7 23 -3 23 -6 0 -12 -4 -16 -9z"/>
<path d="M11400 1526 c0 -9 5 -16 10 -16 6 0 10 4 10 9 0 6 -4 13 -10 16 -5 3
-10 -1 -10 -9z"/>
<path d="M8733 1518 c2 -7 7 -13 12 -13 5 0 10 6 13 13 2 6 -4 12 -13 12 -9 0
-15 -6 -12 -12z"/>
<path d="M7205 1486 c-36 -47 -23 -60 17 -17 20 22 27 36 20 43 -6 6 -19 -2
-37 -26z"/>
<path d="M8696 1511 c-4 -7 -5 -15 -2 -18 9 -9 19 4 14 18 -4 11 -6 11 -12 0z"/>
<path d="M11440 1511 c0 -6 5 -13 10 -16 6 -3 10 1 10 9 0 9 -4 16 -10 16 -5
0 -10 -4 -10 -9z"/>
<path d="M12940 1514 c0 -10 52 -74 61 -74 16 0 10 18 -17 49 -23 28 -44 40
-44 25z"/>
<path d="M8650 1485 c0 -8 5 -15 10 -15 6 0 10 7 10 15 0 8 -4 15 -10 15 -5 0
-10 -7 -10 -15z"/>
<path d="M11480 1491 c0 -6 5 -13 10 -16 6 -3 10 1 10 9 0 9 -4 16 -10 16 -5
0 -10 -4 -10 -9z"/>
<path d="M8607 1484 c-8 -8 1 -24 14 -24 5 0 9 7 9 15 0 15 -12 20 -23 9z"/>
<path d="M11527 1484 c-8 -8 1 -24 14 -24 5 0 9 7 9 15 0 15 -12 20 -23 9z"/>
<path d="M11570 1465 c0 -8 7 -15 16 -15 14 0 14 3 4 15 -7 8 -14 15 -16 15
-2 0 -4 -7 -4 -15z"/>
<path d="M8565 1461 c-6 -11 9 -23 19 -14 9 9 7 23 -3 23 -6 0 -12 -4 -16 -9z"/>
<path d="M11615 1449 c-10 -15 3 -25 16 -12 7 7 7 13 1 17 -6 3 -14 1 -17 -5z"/>
<path d="M8520 1440 c0 -5 5 -10 10 -10 6 0 10 5 10 10 0 6 -4 10 -10 10 -5 0
-10 -4 -10 -10z"/>
<path d="M8476 1431 c-4 -5 -2 -12 3 -15 5 -4 12 -2 15 3 4 5 2 12 -3 15 -5 4
-12 2 -15 -3z"/>
<path d="M11660 1430 c0 -5 5 -10 10 -10 6 0 10 5 10 10 0 6 -4 10 -10 10 -5
0 -10 -4 -10 -10z"/>
<path d="M11700 1415 c0 -8 5 -15 10 -15 6 0 10 7 10 15 0 8 -4 15 -10 15 -5
0 -10 -7 -10 -15z"/>
<path d="M8440 1410 c0 -5 5 -10 10 -10 6 0 10 5 10 10 0 6 -4 10 -10 10 -5 0
-10 -4 -10 -10z"/>
<path d="M11746 1412 c-3 -6 -1 -14 5 -17 15 -10 25 3 12 16 -7 7 -13 7 -17 1z"/>
<path d="M8393 1398 c2 -7 7 -13 12 -13 5 0 10 6 13 13 2 6 -4 12 -13 12 -9 0
-15 -6 -12 -12z"/>
<path d="M8357 1394 c-4 -4 -7 -14 -7 -23 0 -11 3 -12 11 -4 6 6 10 16 7 23
-2 6 -7 8 -11 4z"/>
<path d="M11790 1386 c0 -9 5 -16 10 -16 6 0 10 4 10 9 0 6 -4 13 -10 16 -5 3
-10 -1 -10 -9z"/>
<path d="M13047 1394 c-9 -9 44 -85 54 -78 5 3 9 8 9 12 -1 13 -57 72 -63 66z"/>
<path d="M7111 1361 c-21 -30 -27 -51 -13 -51 8 0 52 62 52 73 0 16 -20 5 -39
-22z"/>
<path d="M8306 1365 c4 -8 10 -12 15 -9 14 8 10 24 -6 24 -9 0 -12 -6 -9 -15z"/>
<path d="M11830 1371 c0 -6 5 -13 10 -16 6 -3 10 1 10 9 0 9 -4 16 -10 16 -5
0 -10 -4 -10 -9z"/>
<path d="M8260 1361 c0 -6 5 -13 10 -16 6 -3 10 1 10 9 0 9 -4 16 -10 16 -5 0
-10 -4 -10 -9z"/>
<path d="M11870 1355 c0 -9 5 -15 10 -13 12 4 11 16 -1 24 -5 3 -9 -2 -9 -11z"/>
<path d="M8220 1341 c0 -6 5 -13 10 -16 6 -3 10 1 10 9 0 9 -4 16 -10 16 -5 0
-10 -4 -10 -9z"/>
<path d="M11915 1341 c-6 -11 9 -23 19 -14 9 9 7 23 -3 23 -6 0 -12 -4 -16 -9z"/>
<path d="M8183 1332 c-8 -5 -9 -13 -3 -22 7 -12 10 -12 16 3 8 21 3 29 -13 19z"/>
<path d="M11960 1325 c0 -9 5 -15 10 -13 12 4 11 16 -1 24 -5 3 -9 -2 -9 -11z"/>
<path d="M8133 1308 c2 -7 7 -13 12 -13 5 0 10 6 13 13 2 6 -4 12 -13 12 -9 0
-15 -6 -12 -12z"/>
<path d="M12003 1308 c2 -7 7 -13 12 -13 5 0 10 6 13 13 2 6 -4 12 -13 12 -9
0 -15 -6 -12 -12z"/>
<path d="M8090 1295 c0 -9 5 -15 10 -13 12 4 11 16 -1 24 -5 3 -9 -2 -9 -11z"/>
<path d="M12046 1303 c-11 -11 -6 -23 9 -23 8 0 15 4 15 9 0 13 -16 22 -24 14z"/>
<path d="M12090 1286 c0 -9 5 -16 10 -16 6 0 10 4 10 9 0 6 -4 13 -10 16 -5 3
-10 -1 -10 -9z"/>
<path d="M8050 1280 c0 -5 5 -10 10 -10 6 0 10 5 10 10 0 6 -4 10 -10 10 -5 0
-10 -4 -10 -10z"/>
<path d="M8010 1266 c0 -9 5 -16 10 -16 6 0 10 4 10 9 0 6 -4 13 -10 16 -5 3
-10 -1 -10 -9z"/>
<path d="M12130 1265 c0 -8 5 -15 10 -15 6 0 10 7 10 15 0 8 -4 15 -10 15 -5
0 -10 -7 -10 -15z"/>
<path d="M13140 1258 c1 -18 59 -86 60 -69 0 18 -39 81 -51 81 -5 0 -9 -6 -9
-12z"/>
<path d="M7011 1231 c-21 -30 -27 -51 -13 -51 8 0 52 62 52 73 0 16 -20 5 -39
-22z"/>
<path d="M7960 1244 c0 -8 5 -12 10 -9 6 3 10 10 10 16 0 5 -4 9 -10 9 -5 0
-10 -7 -10 -16z"/>
<path d="M12180 1244 c0 -8 5 -12 10 -9 6 3 10 10 10 16 0 5 -4 9 -10 9 -5 0
-10 -7 -10 -16z"/>
<path d="M7917 1236 c-3 -8 -2 -18 3 -21 13 -8 24 15 12 27 -6 6 -11 4 -15 -6z"/>
<path d="M12220 1225 c0 -8 5 -15 10 -15 6 0 10 7 10 15 0 8 -4 15 -10 15 -5
0 -10 -7 -10 -15z"/>
<path d="M7870 1215 c0 -9 5 -15 10 -13 12 4 11 16 -1 24 -5 3 -9 -2 -9 -11z"/>
<path d="M12260 1215 c0 -8 5 -15 10 -15 6 0 10 7 10 15 0 8 -4 15 -10 15 -5
0 -10 -7 -10 -15z"/>
<path d="M7830 1200 c0 -5 5 -10 10 -10 6 0 10 5 10 10 0 6 -4 10 -10 10 -5 0
-10 -4 -10 -10z"/>
<path d="M12300 1200 c0 -5 5 -10 10 -10 6 0 10 5 10 10 0 6 -4 10 -10 10 -5
0 -10 -4 -10 -10z"/>
<path d="M7790 1185 c0 -8 5 -15 10 -15 6 0 10 7 10 15 0 8 -4 15 -10 15 -5 0
-10 -7 -10 -15z"/>
<path d="M12345 1191 c-6 -11 9 -23 19 -14 9 9 7 23 -3 23 -6 0 -12 -4 -16 -9z"/>
<path d="M7746 1183 c-11 -11 -6 -23 9 -23 8 0 15 4 15 9 0 13 -16 22 -24 14z"/>
<path d="M12390 1176 c0 -9 5 -16 10 -16 6 0 10 4 10 9 0 6 -4 13 -10 16 -5 3
-10 -1 -10 -9z"/>
<path d="M7700 1155 c0 -8 5 -15 10 -15 6 0 10 7 10 15 0 8 -4 15 -10 15 -5 0
-10 -7 -10 -15z"/>
<path d="M12436 1161 c-4 -5 -2 -12 3 -15 5 -4 12 -2 15 3 4 5 2 12 -3 15 -5
4 -12 2 -15 -3z"/>
<path d="M7655 1140 c3 -5 10 -10 16 -10 5 0 9 5 9 10 0 6 -7 10 -16 10 -8 0
-12 -4 -9 -10z"/>
<path d="M12470 1140 c0 -5 7 -10 15 -10 8 0 15 5 15 10 0 6 -7 10 -15 10 -8
0 -15 -4 -15 -10z"/>
<path d="M6917 1107 c-28 -36 -34 -57 -18 -57 12 0 53 70 49 82 -2 6 -16 -6
-31 -25z"/>
<path d="M7620 1125 c0 -8 5 -15 10 -15 6 0 10 7 10 15 0 8 -4 15 -10 15 -5 0
-10 -7 -10 -15z"/>
<path d="M13238 1135 c-8 -8 40 -75 53 -75 16 0 10 15 -19 49 -15 18 -30 29
-34 26z"/>
<path d="M12520 1120 c0 -5 5 -10 10 -10 6 0 10 5 10 10 0 6 -4 10 -10 10 -5
0 -10 -4 -10 -10z"/>
<path d="M7573 1108 c2 -7 7 -13 12 -13 5 0 10 6 13 13 2 6 -4 12 -13 12 -9 0
-15 -6 -12 -12z"/>
<path d="M12560 1111 c0 -6 5 -13 10 -16 6 -3 10 1 10 9 0 9 -4 16 -10 16 -5
0 -10 -4 -10 -9z"/>
<path d="M7530 1094 c0 -8 5 -12 10 -9 6 3 10 10 10 16 0 5 -4 9 -10 9 -5 0
-10 -7 -10 -16z"/>
<path d="M12606 1103 c-11 -11 -6 -23 9 -23 8 0 15 4 15 9 0 13 -16 22 -24 14z"/>
<path d="M7483 1078 c2 -7 7 -13 12 -13 5 0 10 6 13 13 2 6 -4 12 -13 12 -9 0
-15 -6 -12 -12z"/>
<path d="M12650 1075 c0 -8 5 -15 10 -15 6 0 10 7 10 15 0 8 -4 15 -10 15 -5
0 -10 -7 -10 -15z"/>
<path d="M7445 1071 c-3 -5 -1 -12 5 -16 5 -3 10 1 10 9 0 18 -6 21 -15 7z"/>
<path d="M12690 1060 c0 -5 4 -10 9 -10 6 0 13 5 16 10 3 6 -1 10 -9 10 -9 0
-16 -4 -16 -10z"/>
<path d="M7400 1051 c0 -6 5 -13 10 -16 6 -3 10 1 10 9 0 9 -4 16 -10 16 -5 0
-10 -4 -10 -9z"/>
<path d="M12733 1048 c2 -7 7 -13 12 -13 5 0 10 6 13 13 2 6 -4 12 -13 12 -9
0 -15 -6 -12 -12z"/>
<path d="M7360 1035 c0 -9 5 -15 10 -13 12 4 11 16 -1 24 -5 3 -9 -2 -9 -11z"/>
<path d="M12780 1035 c0 -8 5 -15 10 -15 6 0 10 7 10 15 0 8 -4 15 -10 15 -5
0 -10 -7 -10 -15z"/>
<path d="M7317 1033 c-3 -5 -2 -15 2 -22 7 -10 10 -10 16 -1 4 6 3 16 -3 22
-5 5 -12 6 -15 1z"/>
<path d="M12822 1019 c3 -8 8 -13 11 -11 9 3 7 11 -5 18 -6 4 -8 0 -6 -7z"/>
<path d="M7270 1005 c0 -9 5 -15 10 -13 12 4 11 16 -1 24 -5 3 -9 -2 -9 -11z"/>
<path d="M6816 979 c-27 -32 -34 -53 -14 -47 19 7 60 66 49 72 -5 3 -21 -8
-35 -25z"/>
<path d="M7230 995 c0 -8 5 -15 10 -15 6 0 10 7 10 15 0 8 -4 15 -10 15 -5 0
-10 -7 -10 -15z"/>
<path d="M12866 995 c4 -8 10 -12 15 -9 14 8 10 24 -6 24 -9 0 -12 -6 -9 -15z"/>
<path d="M13330 1003 c1 -17 58 -74 64 -65 3 6 -6 24 -20 41 -24 29 -44 40
-44 24z"/>
<path d="M12910 986 c0 -9 5 -16 10 -16 6 0 10 4 10 9 0 6 -4 13 -10 16 -5 3
-10 -1 -10 -9z"/>
<path d="M7190 974 c0 -8 5 -12 10 -9 6 3 10 10 10 16 0 5 -4 9 -10 9 -5 0
-10 -7 -10 -16z"/>
<path d="M12950 970 c0 -5 5 -10 10 -10 6 0 10 5 10 10 0 6 -4 10 -10 10 -5 0
-10 -4 -10 -10z"/>
<path d="M7146 955 c4 -8 10 -12 15 -9 14 8 10 24 -6 24 -9 0 -12 -6 -9 -15z"/>
<path d="M12990 955 c0 -9 5 -15 10 -13 12 4 11 16 -1 24 -5 3 -9 -2 -9 -11z"/>
<path d="M7102 949 c3 -8 8 -13 11 -11 9 3 7 11 -5 18 -6 4 -8 0 -6 -7z"/>
<path d="M13033 938 c2 -7 7 -13 12 -13 5 0 10 6 13 13 2 6 -4 12 -13 12 -9 0
-15 -6 -12 -12z"/>
<path d="M7060 930 c0 -5 5 -10 10 -10 6 0 10 5 10 10 0 6 -4 10 -10 10 -5 0
-10 -4 -10 -10z"/>
<path d="M13080 925 c0 -8 5 -15 10 -15 6 0 10 7 10 15 0 8 -4 15 -10 15 -5 0
-10 -7 -10 -15z"/>
<path d="M7020 915 c0 -8 5 -15 10 -15 6 0 10 7 10 15 0 8 -4 15 -10 15 -5 0
-10 -7 -10 -15z"/>
<path d="M13120 911 c0 -6 5 -13 10 -16 6 -3 10 1 10 9 0 9 -4 16 -10 16 -5 0
-10 -4 -10 -9z"/>
<path d="M6970 900 c0 -5 7 -10 15 -10 8 0 15 5 15 10 0 6 -7 10 -15 10 -8 0
-15 -4 -15 -10z"/>
<path d="M13162 899 c3 -8 8 -13 11 -11 9 3 7 11 -5 18 -6 4 -8 0 -6 -7z"/>
<path d="M6930 885 c0 -8 5 -15 10 -15 6 0 10 7 10 15 0 8 -4 15 -10 15 -5 0
-10 -7 -10 -15z"/>
<path d="M13200 881 c0 -6 5 -13 10 -16 6 -3 10 1 10 9 0 9 -4 16 -10 16 -5 0
-10 -4 -10 -9z"/>
<path d="M6426 874 c17 -7 -35 -182 -55 -187 -9 -2 8 -5 38 -8 30 -2 66 1 81
7 35 15 48 59 25 84 -16 17 -15 19 4 30 23 12 28 49 9 68 -7 7 -35 12 -62 11
-28 0 -46 -3 -40 -5z m83 -18 c16 -19 -1 -52 -29 -61 -31 -10 -39 2 -27 40 11
37 35 46 56 21z m-19 -91 c17 -21 9 -47 -21 -64 -36 -20 -62 -9 -50 21 5 13
12 31 15 41 7 21 39 22 56 2z"/>
<path d="M6717 852 c-30 -31 -35 -52 -12 -52 8 0 15 -4 15 -10 0 -5 5 -10 11
-10 7 0 9 11 6 27 -3 15 2 37 10 50 21 32 2 29 -30 -5z"/>
<path d="M6890 864 c0 -8 5 -12 10 -9 6 3 10 10 10 16 0 5 -4 9 -10 9 -5 0
-10 -7 -10 -16z"/>
<path d="M13250 866 c0 -9 5 -16 10 -16 6 0 10 4 10 9 0 6 -4 13 -10 16 -5 3
-10 -1 -10 -9z"/>
<path d="M13430 877 c0 -2 11 -18 25 -37 15 -21 21 -36 15 -40 -8 -5 -7 -16 0
-35 14 -36 26 -21 24 28 -1 20 -12 46 -25 61 -19 22 -39 34 -39 23z"/>
<path d="M6850 856 c0 -9 5 -16 10 -16 6 0 10 4 10 9 0 6 -4 13 -10 16 -5 3
-10 -1 -10 -9z"/>
<path d="M13290 851 c0 -17 18 -21 24 -6 3 9 0 15 -9 15 -8 0 -15 -4 -15 -9z"/>
<path d="M6800 840 c0 -5 4 -10 9 -10 6 0 13 5 16 10 3 6 -1 10 -9 10 -9 0
-16 -4 -16 -10z"/>
<path d="M6760 810 c0 -20 5 -30 15 -30 17 0 20 16 5 25 -5 3 -7 12 -3 20 3 8
0 15 -6 15 -6 0 -11 -13 -11 -30z"/>
<path d="M13330 830 c0 -5 5 -10 10 -10 6 0 10 5 10 10 0 6 -4 10 -10 10 -5 0
-10 -4 -10 -10z"/>
<path d="M13721 815 c-55 -47 -65 -137 -18 -170 30 -21 80 -19 108 5 l24 20
-37 -15 c-70 -28 -109 10 -93 91 9 48 48 84 92 84 29 0 34 -4 40 -31 7 -34 23
-21 23 19 0 20 -5 22 -54 22 -44 0 -60 -5 -85 -25z"/>
<path d="M13370 820 c0 -5 7 -10 15 -10 8 0 15 5 15 10 0 6 -7 10 -15 10 -8 0
-15 -4 -15 -10z"/>
<path d="M13420 805 c0 -8 5 -15 10 -15 6 0 10 7 10 15 0 8 -4 15 -10 15 -5 0
-10 -7 -10 -15z"/>
<path d="M6810 795 c0 -8 5 -15 10 -15 6 0 10 7 10 15 0 8 -4 15 -10 15 -5 0
-10 -7 -10 -15z"/>
<path d="M6900 796 c0 -9 5 -16 10 -16 6 0 10 4 10 9 0 6 -4 13 -10 16 -5 3
-10 -1 -10 -9z"/>
<path d="M6850 790 c0 -5 7 -10 15 -10 8 0 15 5 15 10 0 6 -7 10 -15 10 -8 0
-15 -4 -15 -10z"/>
<path d="M6950 790 c0 -5 5 -10 10 -10 6 0 10 5 10 10 0 6 -4 10 -10 10 -5 0
-10 -4 -10 -10z"/>
<path d="M6990 790 c0 -5 5 -10 10 -10 6 0 10 5 10 10 0 6 -4 10 -10 10 -5 0
-10 -4 -10 -10z"/>
<path d="M7030 790 c0 -5 7 -10 15 -10 8 0 15 5 15 10 0 6 -7 10 -15 10 -8 0
-15 -4 -15 -10z"/>
<path d="M7080 790 c0 -5 7 -10 15 -10 8 0 15 5 15 10 0 6 -7 10 -15 10 -8 0
-15 -4 -15 -10z"/>
<path d="M7120 790 c0 -5 7 -10 15 -10 8 0 15 5 15 10 0 6 -7 10 -15 10 -8 0
-15 -4 -15 -10z"/>
<path d="M7172 789 c3 -8 8 -13 11 -11 9 3 7 11 -5 18 -6 4 -8 0 -6 -7z"/>
<path d="M7220 785 c0 -8 5 -15 10 -15 6 0 10 7 10 15 0 8 -4 15 -10 15 -5 0
-10 -7 -10 -15z"/>
<path d="M7260 791 c0 -17 18 -21 24 -6 3 9 0 15 -9 15 -8 0 -15 -4 -15 -9z"/>
<path d="M7307 794 c-8 -8 1 -24 14 -24 5 0 9 7 9 15 0 15 -12 20 -23 9z"/>
<path d="M7352 789 c3 -8 8 -13 11 -11 9 3 7 11 -5 18 -6 4 -8 0 -6 -7z"/>
<path d="M7400 785 c0 -8 5 -15 10 -15 6 0 10 7 10 15 0 8 -4 15 -10 15 -5 0
-10 -7 -10 -15z"/>
<path d="M7445 791 c-6 -11 9 -23 19 -14 9 9 7 23 -3 23 -6 0 -12 -4 -16 -9z"/>
<path d="M7490 785 c0 -8 5 -15 10 -15 6 0 10 7 10 15 0 8 -4 15 -10 15 -5 0
-10 -7 -10 -15z"/>
<path d="M7540 784 c0 -8 5 -12 10 -9 6 3 10 10 10 16 0 5 -4 9 -10 9 -5 0
-10 -7 -10 -16z"/>
<path d="M7580 785 c0 -8 5 -15 10 -15 6 0 10 7 10 15 0 8 -4 15 -10 15 -5 0
-10 -7 -10 -15z"/>
<path d="M7625 791 c-6 -11 9 -23 19 -14 9 9 7 23 -3 23 -6 0 -12 -4 -16 -9z"/>
<path d="M7670 785 c0 -8 5 -15 10 -15 6 0 10 7 10 15 0 8 -4 15 -10 15 -5 0
-10 -7 -10 -15z"/>
<path d="M7720 785 c0 -8 5 -15 10 -15 6 0 10 7 10 15 0 8 -4 15 -10 15 -5 0
-10 -7 -10 -15z"/>
<path d="M7760 784 c0 -17 22 -14 28 4 2 7 -3 12 -12 12 -9 0 -16 -7 -16 -16z"/>
<path d="M7810 785 c0 -8 5 -15 10 -15 6 0 10 7 10 15 0 8 -4 15 -10 15 -5 0
-10 -7 -10 -15z"/>
<path d="M7850 785 c0 -9 5 -15 10 -13 12 4 11 16 -1 24 -5 3 -9 -2 -9 -11z"/>
<path d="M7906 791 c-4 -7 -5 -15 -2 -18 9 -9 19 4 14 18 -4 11 -6 11 -12 0z"/>
<path d="M7946 793 c-11 -11 -6 -23 9 -23 8 0 15 4 15 9 0 13 -16 22 -24 14z"/>
<path d="M7990 786 c0 -9 5 -16 10 -16 6 0 10 4 10 9 0 6 -4 13 -10 16 -5 3
-10 -1 -10 -9z"/>
<path d="M8086 793 c-11 -11 -6 -23 9 -23 8 0 15 4 15 9 0 13 -16 22 -24 14z"/>
<path d="M8035 780 c3 -5 10 -10 16 -10 5 0 9 5 9 10 0 6 -7 10 -16 10 -8 0
-12 -4 -9 -10z"/>
<path d="M8130 780 c0 -5 4 -10 9 -10 6 0 13 5 16 10 3 6 -1 10 -9 10 -9 0
-16 -4 -16 -10z"/>
<path d="M8175 780 c3 -5 10 -10 16 -10 5 0 9 5 9 10 0 6 -7 10 -16 10 -8 0
-12 -4 -9 -10z"/>
<path d="M8220 781 c0 -17 18 -21 24 -6 3 9 0 15 -9 15 -8 0 -15 -4 -15 -9z"/>
<path d="M8270 780 c0 -5 5 -10 10 -10 6 0 10 5 10 10 0 6 -4 10 -10 10 -5 0
-10 -4 -10 -10z"/>
<path d="M8310 780 c0 -5 7 -10 15 -10 8 0 15 5 15 10 0 6 -7 10 -15 10 -8 0
-15 -4 -15 -10z"/>
<path d="M8355 780 c3 -5 10 -10 16 -10 5 0 9 5 9 10 0 6 -7 10 -16 10 -8 0
-12 -4 -9 -10z"/>
<path d="M8400 781 c0 -17 18 -21 24 -6 3 9 0 15 -9 15 -8 0 -15 -4 -15 -9z"/>
<path d="M8450 780 c0 -5 5 -10 10 -10 6 0 10 5 10 10 0 6 -4 10 -10 10 -5 0
-10 -4 -10 -10z"/>
<path d="M8490 780 c0 -5 7 -10 15 -10 8 0 15 5 15 10 0 6 -7 10 -15 10 -8 0
-15 -4 -15 -10z"/>
<path d="M8540 781 c0 -6 5 -13 10 -16 6 -3 10 1 10 9 0 9 -4 16 -10 16 -5 0
-10 -4 -10 -9z"/>
<path d="M8583 778 c2 -7 7 -13 12 -13 5 0 10 6 13 13 2 6 -4 12 -13 12 -9 0
-15 -6 -12 -12z"/>
<path d="M8630 780 c0 -5 5 -10 10 -10 6 0 10 5 10 10 0 6 -4 10 -10 10 -5 0
-10 -4 -10 -10z"/>
<path d="M8673 778 c2 -7 7 -13 12 -13 5 0 10 6 13 13 2 6 -4 12 -13 12 -9 0
-15 -6 -12 -12z"/>
<path d="M8720 781 c0 -6 5 -13 10 -16 6 -3 10 1 10 9 0 9 -4 16 -10 16 -5 0
-10 -4 -10 -9z"/>
<path d="M8765 781 c-6 -11 9 -23 19 -14 9 9 7 23 -3 23 -6 0 -12 -4 -16 -9z"/>
<path d="M8810 781 c0 -6 5 -13 10 -16 6 -3 10 1 10 9 0 9 -4 16 -10 16 -5 0
-10 -4 -10 -9z"/>
<path d="M8860 775 c0 -8 5 -15 10 -15 6 0 10 7 10 15 0 8 -4 15 -10 15 -5 0
-10 -7 -10 -15z"/>
<path d="M8903 778 c2 -7 7 -13 12 -13 5 0 10 6 13 13 2 6 -4 12 -13 12 -9 0
-15 -6 -12 -12z"/>
<path d="M8947 784 c-8 -8 1 -24 14 -24 5 0 9 7 9 15 0 15 -12 20 -23 9z"/>
<path d="M8995 781 c-6 -11 9 -23 19 -14 9 9 7 23 -3 23 -6 0 -12 -4 -16 -9z"/>
<path d="M9040 775 c0 -9 5 -15 10 -13 12 4 11 16 -1 24 -5 3 -9 -2 -9 -11z"/>
<path d="M9087 784 c-8 -8 1 -24 14 -24 5 0 9 7 9 15 0 15 -12 20 -23 9z"/>
<path d="M9130 775 c0 -8 5 -15 10 -15 6 0 10 7 10 15 0 8 -4 15 -10 15 -5 0
-10 -7 -10 -15z"/>
<path d="M9180 774 c0 -8 5 -12 10 -9 6 4 8 11 5 16 -9 14 -15 11 -15 -7z"/>
<path d="M9220 776 c0 -9 7 -16 16 -16 9 0 14 5 12 12 -6 18 -28 21 -28 4z"/>
<path d="M9267 784 c-8 -8 1 -24 14 -24 5 0 9 7 9 15 0 15 -12 20 -23 9z"/>
<path d="M9310 775 c0 -9 5 -15 10 -13 12 4 11 16 -1 24 -5 3 -9 -2 -9 -11z"/>
<path d="M9360 776 c0 -9 5 -16 10 -16 6 0 10 4 10 9 0 6 -4 13 -10 16 -5 3
-10 -1 -10 -9z"/>
<path d="M9400 776 c0 -9 7 -16 16 -16 9 0 14 5 12 12 -6 18 -28 21 -28 4z"/>
<path d="M9450 776 c0 -9 5 -16 10 -16 6 0 10 4 10 9 0 6 -4 13 -10 16 -5 3
-10 -1 -10 -9z"/>
<path d="M9496 783 c-11 -11 -6 -23 9 -23 8 0 15 4 15 9 0 13 -16 22 -24 14z"/>
<path d="M9540 781 c0 -6 5 -13 10 -16 6 -3 10 1 10 9 0 9 -4 16 -10 16 -5 0
-10 -4 -10 -9z"/>
<path d="M13510 776 c0 -15 18 -31 26 -23 7 7 -7 37 -17 37 -5 0 -9 -6 -9 -14z"/>
<path d="M9590 770 c0 -5 5 -10 10 -10 6 0 10 5 10 10 0 6 -4 10 -10 10 -5 0
-10 -4 -10 -10z"/>
<path d="M9630 770 c0 -5 5 -10 10 -10 6 0 10 5 10 10 0 6 -4 10 -10 10 -5 0
-10 -4 -10 -10z"/>
<path d="M9670 770 c0 -5 7 -10 15 -10 8 0 15 5 15 10 0 6 -7 10 -15 10 -8 0
-15 -4 -15 -10z"/>
<path d="M9720 770 c0 -5 5 -10 10 -10 6 0 10 5 10 10 0 6 -4 10 -10 10 -5 0
-10 -4 -10 -10z"/>
<path d="M9770 770 c0 -5 7 -10 16 -10 8 0 12 5 9 10 -3 6 -10 10 -16 10 -5 0
-9 -4 -9 -10z"/>
<path d="M9820 764 c0 -8 5 -12 10 -9 6 3 10 10 10 16 0 5 -4 9 -10 9 -5 0
-10 -7 -10 -16z"/>
<path d="M9863 768 c2 -7 7 -13 12 -13 5 0 10 6 13 13 2 6 -4 12 -13 12 -9 0
-15 -6 -12 -12z"/>
<path d="M9910 771 c0 -6 5 -13 10 -16 6 -3 10 1 10 9 0 9 -4 16 -10 16 -5 0
-10 -4 -10 -9z"/>
<path d="M9950 770 c0 -5 7 -10 15 -10 8 0 15 5 15 10 0 6 -7 10 -15 10 -8 0
-15 -4 -15 -10z"/>
<path d="M10000 771 c0 -6 5 -13 10 -16 6 -3 10 1 10 9 0 9 -4 16 -10 16 -5 0
-10 -4 -10 -9z"/>
<path d="M10040 776 c0 -2 7 -9 15 -16 12 -10 15 -10 15 4 0 9 -7 16 -15 16
-8 0 -15 -2 -15 -4z"/>
<path d="M10100 770 c0 -5 5 -10 11 -10 5 0 7 5 4 10 -3 6 -8 10 -11 10 -2 0
-4 -4 -4 -10z"/>
<path d="M10140 770 c0 -5 5 -10 10 -10 6 0 10 5 10 10 0 6 -4 10 -10 10 -5 0
-10 -4 -10 -10z"/>
<path d="M10185 770 c-3 -5 1 -10 9 -10 9 0 16 5 16 10 0 6 -4 10 -9 10 -6 0
-13 -4 -16 -10z"/>
<path d="M10230 771 c0 -6 5 -13 10 -16 6 -3 10 1 10 9 0 9 -4 16 -10 16 -5 0
-10 -4 -10 -9z"/>
<path d="M10280 764 c0 -8 5 -12 10 -9 6 3 10 10 10 16 0 5 -4 9 -10 9 -5 0
-10 -7 -10 -16z"/>
<path d="M10322 769 c3 -8 8 -13 11 -11 9 3 7 11 -5 18 -6 4 -8 0 -6 -7z"/>
<path d="M10370 764 c0 -8 5 -12 10 -9 6 3 10 10 10 16 0 5 -4 9 -10 9 -5 0
-10 -7 -10 -16z"/>
<path d="M10413 768 c2 -7 7 -13 12 -13 5 0 10 6 13 13 2 6 -4 12 -13 12 -9 0
-15 -6 -12 -12z"/>
<path d="M10460 771 c0 -6 5 -13 10 -16 6 -3 10 1 10 9 0 9 -4 16 -10 16 -5 0
-10 -4 -10 -9z"/>
<path d="M10506 771 c-3 -5 1 -11 9 -15 9 -3 15 0 15 9 0 16 -16 20 -24 6z"/>
<path d="M10550 771 c0 -6 5 -13 10 -16 6 -3 10 1 10 9 0 9 -4 16 -10 16 -5 0
-10 -4 -10 -9z"/>
<path d="M10597 774 c-8 -8 1 -24 14 -24 5 0 9 7 9 15 0 15 -12 20 -23 9z"/>
<path d="M10645 771 c-3 -5 -1 -12 4 -15 5 -3 11 1 15 9 6 16 -9 21 -19 6z"/>
<path d="M10690 765 c0 -8 5 -15 10 -15 6 0 10 7 10 15 0 8 -4 15 -10 15 -5 0
-10 -7 -10 -15z"/>
<path d="M10737 774 c-8 -8 1 -24 14 -24 5 0 9 7 9 15 0 15 -12 20 -23 9z"/>
<path d="M10780 765 c0 -8 5 -15 10 -15 6 0 10 7 10 15 0 8 -4 15 -10 15 -5 0
-10 -7 -10 -15z"/>
<path d="M10830 764 c0 -8 5 -12 10 -9 6 3 10 10 10 16 0 5 -4 9 -10 9 -5 0
-10 -7 -10 -16z"/>
<path d="M10873 768 c2 -7 7 -13 12 -13 5 0 10 6 13 13 2 6 -4 12 -13 12 -9 0
-15 -6 -12 -12z"/>
<path d="M10920 765 c0 -8 5 -15 10 -15 6 0 10 7 10 15 0 8 -4 15 -10 15 -5 0
-10 -7 -10 -15z"/>
<path d="M10962 768 c6 -18 28 -21 28 -4 0 9 -7 16 -16 16 -9 0 -14 -5 -12
-12z"/>
<path d="M11015 771 c-3 -5 -1 -12 5 -16 5 -3 10 1 10 9 0 18 -6 21 -15 7z"/>
<path d="M11057 774 c-8 -8 1 -24 14 -24 5 0 9 7 9 15 0 15 -12 20 -23 9z"/>
<path d="M11106 771 c-4 -5 -2 -12 3 -15 5 -4 12 -2 15 3 4 5 2 12 -3 15 -5 4
-12 2 -15 -3z"/>
<path d="M11196 772 c-3 -6 -1 -14 5 -17 15 -10 25 3 12 16 -7 7 -13 7 -17 1z"/>
<path d="M11240 765 c0 -8 5 -15 10 -15 6 0 10 7 10 15 0 8 -4 15 -10 15 -5 0
-10 -7 -10 -15z"/>
<path d="M11282 769 c3 -8 8 -13 11 -11 9 3 7 11 -5 18 -6 4 -8 0 -6 -7z"/>
<path d="M11330 765 c0 -8 5 -15 10 -15 6 0 10 7 10 15 0 8 -4 15 -10 15 -5 0
-10 -7 -10 -15z"/>
<path d="M11380 764 c0 -8 5 -12 10 -9 6 4 8 11 5 16 -9 14 -15 11 -15 -7z"/>
<path d="M11420 765 c0 -9 5 -15 10 -13 12 4 11 16 -1 24 -5 3 -9 -2 -9 -11z"/>
<path d="M11466 771 c-4 -5 -2 -12 3 -15 5 -4 12 -2 15 3 4 5 2 12 -3 15 -5 4
-12 2 -15 -3z"/>
<path d="M11510 765 c0 -8 5 -15 10 -15 6 0 10 7 10 15 0 8 -4 15 -10 15 -5 0
-10 -7 -10 -15z"/>
<path d="M11600 765 c0 -16 16 -20 24 -6 3 5 -1 11 -9 15 -9 3 -15 0 -15 -9z"/>
<path d="M11650 766 c0 -9 5 -16 10 -16 6 0 10 4 10 9 0 6 -4 13 -10 16 -5 3
-10 -1 -10 -9z"/>
<path d="M11690 766 c0 -9 7 -16 16 -16 17 0 14 22 -4 28 -7 2 -12 -3 -12 -12z"/>
<path d="M11836 771 c-4 -5 -2 -12 3 -15 5 -4 12 -2 15 3 4 5 2 12 -3 15 -5 4
-12 2 -15 -3z"/>
<path d="M11926 771 c-4 -5 -2 -12 3 -15 5 -4 12 -2 15 3 4 5 2 12 -3 15 -5 4
-12 2 -15 -3z"/>
<path d="M12016 772 c-3 -6 -1 -14 5 -17 15 -10 25 3 12 16 -7 7 -13 7 -17 1z"/>
<path d="M12065 771 c-3 -5 -1 -12 5 -16 5 -3 10 1 10 9 0 18 -6 21 -15 7z"/>
<path d="M12110 766 c0 -9 5 -16 10 -16 6 0 10 4 10 9 0 6 -4 13 -10 16 -5 3
-10 -1 -10 -9z"/>
<path d="M12155 769 c-4 -6 -3 -15 3 -21 6 -6 11 -4 15 6 7 18 -9 31 -18 15z"/>
<path d="M12200 766 c0 -9 5 -16 10 -16 6 0 10 4 10 9 0 6 -4 13 -10 16 -5 3
-10 -1 -10 -9z"/>
<path d="M12290 764 c0 -8 5 -12 10 -9 6 4 8 11 5 16 -9 14 -15 11 -15 -7z"/>
<path d="M12336 773 c-11 -11 -6 -23 9 -23 8 0 15 4 15 9 0 13 -16 22 -24 14z"/>
<path d="M12380 765 c0 -8 5 -15 10 -15 6 0 10 7 10 15 0 8 -4 15 -10 15 -5 0
-10 -7 -10 -15z"/>
<path d="M12426 772 c-3 -6 -1 -14 5 -17 15 -10 25 3 12 16 -7 7 -13 7 -17 1z"/>
<path d="M12480 764 c0 -8 5 -12 10 -9 6 4 8 11 5 16 -9 14 -15 11 -15 -7z"/>
<path d="M11145 760 c3 -5 10 -10 16 -10 5 0 9 5 9 10 0 6 -7 10 -16 10 -8 0
-12 -4 -9 -10z"/>
<path d="M11560 760 c0 -5 5 -10 10 -10 6 0 10 5 10 10 0 6 -4 10 -10 10 -5 0
-10 -4 -10 -10z"/>
<path d="M11740 760 c0 -5 4 -10 9 -10 6 0 13 5 16 10 3 6 -1 10 -9 10 -9 0
-16 -4 -16 -10z"/>
<path d="M11790 760 c0 -5 5 -10 10 -10 6 0 10 5 10 10 0 6 -4 10 -10 10 -5 0
-10 -4 -10 -10z"/>
<path d="M11880 760 c0 -5 5 -10 10 -10 6 0 10 5 10 10 0 6 -4 10 -10 10 -5 0
-10 -4 -10 -10z"/>
<path d="M11970 760 c0 -5 4 -10 9 -10 6 0 13 5 16 10 3 6 -1 10 -9 10 -9 0
-16 -4 -16 -10z"/>
<path d="M12243 758 c2 -7 7 -13 12 -13 5 0 10 6 13 13 2 6 -4 12 -13 12 -9 0
-15 -6 -12 -12z"/>
<path d="M12510 766 c0 -2 7 -9 15 -16 12 -10 15 -10 15 4 0 9 -7 16 -15 16
-8 0 -15 -2 -15 -4z"/>
<path d="M12560 760 c0 -5 4 -10 9 -10 6 0 13 5 16 10 3 6 -1 10 -9 10 -9 0
-16 -4 -16 -10z"/>
<path d="M12610 760 c0 -5 5 -10 10 -10 6 0 10 5 10 10 0 6 -4 10 -10 10 -5 0
-10 -4 -10 -10z"/>
<path d="M12660 759 c0 -5 5 -7 10 -4 6 3 10 8 10 11 0 2 -4 4 -10 4 -5 0 -10
-5 -10 -11z"/>
<path d="M12700 760 c0 -5 4 -10 9 -10 6 0 13 5 16 10 3 6 -1 10 -9 10 -9 0
-16 -4 -16 -10z"/>
<path d="M12745 760 c3 -5 10 -10 16 -10 5 0 9 5 9 10 0 6 -7 10 -16 10 -8 0
-12 -4 -9 -10z"/>
<path d="M12795 760 c3 -5 10 -10 16 -10 5 0 9 5 9 10 0 6 -7 10 -16 10 -8 0
-12 -4 -9 -10z"/>
<path d="M12840 760 c0 -5 5 -10 10 -10 6 0 10 5 10 10 0 6 -4 10 -10 10 -5 0
-10 -4 -10 -10z"/>
<path d="M12885 760 c4 -6 11 -8 16 -5 14 9 11 15 -7 15 -8 0 -12 -5 -9 -10z"/>
<path d="M12930 760 c0 -5 5 -10 10 -10 6 0 10 5 10 10 0 6 -4 10 -10 10 -5 0
-10 -4 -10 -10z"/>
<path d="M12970 760 c0 -5 7 -10 15 -10 8 0 15 5 15 10 0 6 -7 10 -15 10 -8 0
-15 -4 -15 -10z"/>
<path d="M13020 760 c0 -5 5 -10 10 -10 6 0 10 5 10 10 0 6 -4 10 -10 10 -5 0
-10 -4 -10 -10z"/>
<path d="M13060 760 c0 -5 7 -10 15 -10 8 0 15 5 15 10 0 6 -7 10 -15 10 -8 0
-15 -4 -15 -10z"/>
<path d="M13110 760 c0 -5 5 -10 10 -10 6 0 10 5 10 10 0 6 -4 10 -10 10 -5 0
-10 -4 -10 -10z"/>
<path d="M13155 760 c3 -5 10 -10 16 -10 5 0 9 5 9 10 0 6 -7 10 -16 10 -8 0
-12 -4 -9 -10z"/>
<path d="M13200 760 c0 -5 5 -10 10 -10 6 0 10 5 10 10 0 6 -4 10 -10 10 -5 0
-10 -4 -10 -10z"/>
<path d="M13240 760 c0 -5 7 -10 15 -10 8 0 15 5 15 10 0 6 -7 10 -15 10 -8 0
-15 -4 -15 -10z"/>
<path d="M13290 760 c0 -5 5 -10 10 -10 6 0 10 5 10 10 0 6 -4 10 -10 10 -5 0
-10 -4 -10 -10z"/>
<path d="M13335 760 c3 -5 10 -10 16 -10 5 0 9 5 9 10 0 6 -7 10 -16 10 -8 0
-12 -4 -9 -10z"/>
<path d="M13380 760 c0 -5 4 -10 9 -10 6 0 13 5 16 10 3 6 -1 10 -9 10 -9 0
-16 -4 -16 -10z"/>
<path d="M13430 760 c0 -5 5 -10 10 -10 6 0 10 5 10 10 0 6 -4 10 -10 10 -5 0
-10 -4 -10 -10z"/>
<path d="M7585 440 c3 -5 8 -10 11 -10 2 0 4 5 4 10 0 6 -5 10 -11 10 -5 0 -7
-4 -4 -10z"/>
</g>
</svg>
