<?xml version="1.0" standalone="no"?>
<!DOCTYPE svg PUBLIC "-//W3C//DTD SVG 20010904//EN"
 "http://www.w3.org/TR/2001/REC-SVG-20010904/DTD/svg10.dtd">
<svg version="1.0" xmlns="http://www.w3.org/2000/svg"
 width="1448.000000pt" height="517.000000pt" viewBox="0 0 1448.000000 517.000000"
 preserveAspectRatio="xMidYMid meet">
<metadata>
Created by potrace 1.16, written by Peter Selinger 2001-2019
</metadata>
<g transform="translate(0.000000,517.000000) scale(0.100000,-0.100000)"
fill="#000000" stroke="none">
<path d="M4435 4794 c-19 -20 -12 -32 9 -15 21 17 36 5 36 -28 0 -17 -11 -39
-30 -58 -34 -35 -31 -40 19 -39 41 1 56 26 16 26 l-26 0 26 37 c29 44 31 56 9
77 -20 20 -38 20 -59 0z"/>
<path d="M11035 4742 c-3 -20 -18 -56 -31 -79 -27 -47 -24 -57 7 -20 18 22 18
21 19 -72 0 -52 2 -92 5 -90 2 3 5 57 6 121 1 82 5 122 15 135 17 23 17 30 0
36 -10 4 -16 -5 -21 -31z"/>
<path d="M11440 4761 c0 -18 -6 -21 -40 -21 -23 0 -40 -5 -40 -11 0 -7 15 -10
40 -7 36 3 40 1 40 -20 0 -23 -3 -24 -55 -20 -30 1 -55 0 -55 -4 0 -5 33 -8
73 -8 67 -1 71 -2 52 -16 -11 -9 -47 -29 -80 -45 -63 -29 -64 -40 -1 -14 l36
15 0 -60 c0 -55 10 -75 25 -50 9 15 115 13 115 -2 0 -8 3 -8 9 -2 5 5 11 38
12 74 l3 65 -65 -3 -64 -3 30 20 c21 15 46 21 83 21 28 0 52 4 52 9 0 15 -23
19 -48 9 -41 -14 -44 3 -9 37 19 19 30 36 24 38 -7 2 -30 -17 -53 -41 -24 -28
-45 -43 -52 -38 -22 13 -12 36 18 42 16 4 27 10 24 15 -3 5 -17 6 -30 3 -21
-5 -25 -3 -22 11 2 10 -3 20 -9 22 -8 3 -13 -4 -13 -16z m110 -158 c-1 -23
-19 -32 -57 -28 -23 2 -45 0 -47 -4 -3 -5 15 -9 41 -9 87 -2 85 -42 -3 -42
l-54 0 0 45 0 45 60 0 c33 0 60 -3 60 -7z"/>
<path d="M12167 4760 c-6 -22 -37 -28 -37 -7 0 6 -7 -1 -15 -17 -20 -38 -19
-43 5 -21 11 10 22 16 25 13 9 -9 -11 -52 -34 -72 -19 -17 -21 -18 -21 -2 0
13 -5 16 -20 11 -31 -10 -39 2 -27 40 8 27 16 35 34 35 13 0 23 5 23 11 0 7
-9 9 -22 5 -13 -3 -39 -6 -58 -7 -26 -1 -29 -3 -11 -6 20 -4 22 -9 17 -35 -3
-17 -13 -45 -21 -61 -19 -37 -19 -41 0 -33 12 4 15 -4 15 -45 0 -43 3 -50 16
-45 9 3 25 6 37 6 20 0 22 4 19 49 -3 42 -1 51 17 61 21 10 21 9 21 -72 0 -64
3 -79 12 -70 7 7 40 12 76 12 47 0 62 3 59 13 -4 12 -17 13 -46 6 -8 -2 -17 4
-19 14 -3 13 3 17 22 17 14 0 26 4 26 9 0 15 -18 23 -25 11 -8 -13 -25 -3 -25
16 0 9 11 14 31 14 20 0 29 4 26 13 -2 6 -16 11 -31 9 -17 -2 -26 2 -26 12 0
9 11 16 28 18 15 2 25 8 22 13 -3 6 -15 9 -26 7 -12 -1 -24 4 -28 13 -3 8 -10
15 -15 15 -6 0 -8 -7 -5 -15 4 -10 0 -15 -15 -15 -18 0 -19 3 -9 25 9 20 18
25 49 25 32 0 37 -3 32 -17 -6 -16 -4 -16 15 1 29 26 20 35 -29 29 -35 -5 -40
-3 -37 12 4 25 -18 30 -25 5z m23 -116 c0 -10 -7 -14 -22 -12 -32 5 -35 28 -4
28 17 0 26 -5 26 -16z m-120 -49 c0 -42 -3 -55 -15 -55 -9 0 -15 10 -16 25 -1
14 -2 35 -3 48 -3 28 2 37 20 37 10 0 14 -14 14 -55z m120 -5 c0 -16 -4 -18
-22 -11 -32 12 -34 31 -4 31 19 0 26 -5 26 -20z m0 -45 c0 -9 -9 -15 -25 -15
-16 0 -25 6 -25 15 0 9 9 15 25 15 16 0 25 -6 25 -15z"/>
<path d="M9583 4755 c-7 -12 -17 -16 -32 -12 -16 4 -21 1 -21 -15 0 -10 -4
-16 -10 -13 -5 3 -10 1 -10 -4 0 -6 5 -11 10 -11 6 0 10 -7 10 -15 0 -10 10
-15 31 -15 19 0 28 -4 23 -11 -3 -6 -17 -9 -31 -6 -22 4 -24 1 -21 -27 2 -26
7 -30 25 -28 18 3 21 -1 16 -13 -4 -12 -14 -16 -34 -13 -16 3 -29 1 -29 -4 0
-4 12 -8 26 -8 22 0 25 -2 14 -15 -10 -13 -9 -15 9 -15 31 0 25 -17 -9 -25
-16 -4 -30 -11 -30 -16 0 -12 5 -12 46 6 20 8 47 12 60 9 15 -4 24 -2 24 5 0
6 -4 11 -10 11 -5 0 -10 9 -10 20 0 15 7 20 25 20 14 0 25 4 25 9 0 13 -54 24
-58 12 -5 -16 -22 -13 -22 4 0 10 10 15 33 15 32 0 33 2 29 30 -4 25 -8 29
-27 24 -13 -3 -26 -1 -29 5 -5 7 2 11 16 11 26 0 69 41 50 48 -7 2 -12 10 -12
19 0 10 -6 12 -21 8 -14 -5 -25 -1 -33 11 -13 16 -14 16 -23 -1z m-3 -35 c0
-5 -7 -10 -15 -10 -8 0 -15 5 -15 10 0 6 7 10 15 10 8 0 15 -4 15 -10z m60 0
c0 -5 -6 -10 -14 -10 -8 0 -18 5 -21 10 -3 6 3 10 14 10 12 0 21 -4 21 -10z
m-55 -30 c-3 -5 -13 -10 -21 -10 -8 0 -14 5 -14 10 0 6 9 10 21 10 11 0 17 -4
14 -10z m55 0 c0 -5 -6 -10 -14 -10 -8 0 -18 5 -21 10 -3 6 3 10 14 10 12 0
21 -4 21 -10z m-57 -65 c-6 -17 -25 -15 -31 3 -2 7 5 12 17 12 14 0 19 -5 14
-15z m57 -1 c0 -9 -7 -14 -17 -12 -25 5 -28 28 -4 28 12 0 21 -6 21 -16z m-32
-76 c-3 -7 -11 -13 -18 -13 -7 0 -15 6 -17 13 -3 7 4 12 17 12 13 0 20 -5 18
-12z"/>
<path d="M10900 4645 l0 -125 -32 0 -33 -1 30 -13 c47 -21 53 -7 57 137 2 97
0 127 -9 127 -10 0 -13 -32 -13 -125z"/>
<path d="M12432 4754 c-25 -17 -31 -64 -8 -64 10 0 14 9 13 28 -2 24 2 27 30
30 27 3 33 -1 39 -22 4 -19 -1 -34 -20 -57 -17 -20 -26 -41 -25 -62 2 -28 2
-28 6 -7 3 14 18 37 34 52 36 34 39 80 7 102 -12 9 -29 16 -38 16 -9 0 -26 -7
-38 -16z"/>
<path d="M5256 4735 c-4 -14 -13 -25 -21 -25 -12 0 -15 -19 -15 -107 1 -92 3
-105 14 -90 7 9 23 17 36 17 13 0 29 -8 36 -17 12 -16 13 -8 14 55 0 39 4 72
9 72 5 0 14 14 21 30 11 28 16 30 61 30 l49 0 -6 -82 c-8 -102 -15 -116 -51
-112 -15 2 -20 1 -10 -2 9 -3 17 -10 17 -15 0 -5 7 -9 15 -9 28 0 44 44 50
142 l7 96 -41 -5 c-50 -7 -80 2 -63 19 16 16 15 28 -3 28 -8 0 -15 -8 -15 -17
0 -10 -9 -36 -20 -58 -20 -40 -20 -40 -15 -8 4 32 -8 53 -20 33 -8 -13 -45
-13 -45 -1 0 5 7 16 15 25 19 18 19 26 1 26 -8 0 -17 -11 -20 -25z m44 -75 c0
-27 -3 -30 -30 -30 -27 0 -30 3 -30 30 0 27 3 30 30 30 27 0 30 -3 30 -30z m0
-85 c0 -32 -2 -35 -30 -35 -28 0 -30 3 -30 35 0 32 2 35 30 35 28 0 30 -3 30
-35z"/>
<path d="M5557 4625 c1 -158 0 -150 16 -137 13 11 191 9 220 -3 16 -7 17 3 17
131 l0 139 -127 0 -128 0 2 -130z m233 -5 l0 -110 -86 0 c-47 0 -83 4 -80 8 2
4 34 6 70 5 l66 -2 0 64 c0 39 4 65 11 65 5 0 8 4 5 9 -3 5 -24 7 -46 4 -26
-4 -40 -2 -40 6 0 6 10 10 22 8 17 -1 24 4 26 21 3 21 0 22 -57 22 -59 0 -61
-1 -61 -26 0 -21 4 -25 20 -21 11 3 23 1 26 -5 4 -5 -13 -8 -43 -6 -43 3 -48
5 -49 28 -1 14 0 28 3 33 2 4 51 7 109 7 l104 0 0 -110z m-70 80 c0 -5 -18
-10 -40 -10 -22 0 -40 5 -40 10 0 6 18 10 40 10 22 0 40 -4 40 -10z m-54 -53
c41 0 74 -4 74 -9 0 -6 -29 -8 -67 -6 l-68 3 0 -63 c0 -49 -3 -62 -15 -62 -12
0 -15 15 -15 74 -1 42 3 72 8 69 5 -3 43 -6 83 -6z m74 -67 l0 -40 -47 2 c-44
1 -45 2 -10 5 33 4 37 7 37 31 0 25 -3 27 -40 27 -39 0 -40 -1 -40 -32 0 -18
-4 -33 -10 -33 -11 0 -14 63 -3 73 3 4 30 7 60 7 l53 0 0 -40z m-40 0 c0 -5
-9 -10 -20 -10 -11 0 -20 5 -20 10 0 6 9 10 20 10 11 0 20 -4 20 -10z"/>
<path d="M5920 4715 c-7 -25 -22 -57 -32 -70 -20 -25 -12 -35 10 -13 9 9 12
-6 12 -70 0 -48 4 -82 10 -82 6 0 10 38 10 95 0 88 1 95 20 95 11 0 19 -3 19
-7 -5 -30 3 -40 26 -35 37 7 30 -5 -17 -29 -24 -12 -37 -24 -30 -26 7 -3 28 5
48 16 42 25 51 26 33 4 -8 -9 -30 -23 -49 -31 -19 -8 -29 -17 -22 -19 7 -3 30
5 53 16 48 25 56 26 38 4 -8 -9 -34 -25 -59 -36 -25 -11 -40 -22 -34 -24 6 -2
32 5 57 16 46 20 47 20 47 1 0 -14 -6 -18 -25 -14 -30 5 -32 -1 -4 -16 26 -15
49 3 49 37 l0 25 30 -26 c17 -14 37 -23 45 -20 17 7 10 24 -9 24 -8 0 -24 9
-37 19 l-24 19 28 11 c15 6 27 15 27 21 0 15 -21 12 -43 -7 -18 -17 -19 -17
-33 2 -23 31 -17 38 31 33 l45 -6 0 39 0 38 -37 -6 c-37 -6 -38 -6 -20 14 20
24 14 33 -25 33 -15 0 -28 5 -28 10 0 21 -19 9 -39 -24 -35 -56 -81 -61 -49
-6 15 27 14 40 -2 40 -4 0 -13 -20 -20 -45z m140 -10 c0 -10 -11 -15 -35 -15
-54 0 -43 27 13 29 13 1 22 -5 22 -14z m-20 -46 c0 -16 -5 -20 -27 -17 -17 2
-29 10 -31 21 -3 13 3 17 27 17 25 0 31 -4 31 -21z m83 0 c-7 -26 -56 -23 -61
4 -3 13 4 17 31 17 31 0 34 -3 30 -21z"/>
<path d="M6675 4750 c-3 -5 -3 -14 0 -20 4 -6 -9 -10 -31 -10 -21 0 -34 -3
-30 -7 4 -5 20 -8 34 -8 25 0 26 -2 27 -65 l1 -65 -41 -6 c-22 -3 24 -7 103
-7 132 -2 163 4 130 24 -6 4 -14 2 -16 -4 -6 -18 -39 -15 -46 4 -8 22 -7 97 2
110 4 6 16 11 27 10 11 0 20 4 20 9 0 6 -12 9 -27 7 -30 -3 -36 6 -16 26 9 9
8 12 -5 12 -10 0 -17 -8 -17 -20 0 -17 -7 -20 -50 -20 -51 0 -60 6 -38 28 9 9
8 12 -4 12 -9 0 -20 -4 -23 -10z m113 -62 c3 -15 -4 -18 -47 -18 -36 0 -51 4
-51 13 0 22 9 26 53 24 31 -2 43 -7 45 -19z m0 -50 c3 -15 -4 -18 -42 -18 -25
0 -48 5 -51 10 -12 20 7 31 48 28 30 -2 43 -8 45 -20z m2 -48 c0 -17 -7 -20
-45 -20 -25 0 -45 2 -45 4 0 2 -3 11 -6 20 -5 13 2 16 45 16 44 0 51 -3 51
-20z"/>
<path d="M7060 4729 l0 -32 -50 5 -50 5 0 -63 c0 -34 5 -66 10 -69 6 -3 10 -2
10 3 0 5 18 9 40 9 l40 0 0 -53 c0 -30 5 -54 10 -54 6 0 10 8 11 18 0 9 1 33
2 52 2 37 1 36 72 39 30 1 30 2 31 60 l0 58 -50 -1 c-50 -1 -51 0 -49 27 1 18
-3 27 -13 27 -9 0 -14 -11 -14 -31z m0 -84 l0 -45 -40 0 -40 0 0 45 0 45 40 0
40 0 0 -45z m110 -1 l0 -45 -42 3 c-43 3 -43 3 -46 46 l-3 42 45 0 46 0 0 -46z"/>
<path d="M8550 4715 c0 -35 -3 -43 -15 -39 -8 4 -15 1 -15 -5 0 -6 7 -11 15
-11 11 0 15 -12 15 -49 0 -42 -3 -49 -22 -55 -17 -4 -20 -8 -11 -17 9 -9 21
-6 50 11 31 19 51 22 112 21 67 -2 73 0 61 14 -9 10 -16 12 -25 5 -6 -5 -42
-9 -78 -8 l-67 2 0 38 c0 31 4 38 20 38 11 0 20 5 20 10 0 6 -10 10 -21 10
-19 0 -21 4 -16 40 4 30 2 40 -9 40 -10 0 -14 -13 -14 -45z"/>
<path d="M8645 4713 c-10 -27 -22 -55 -28 -63 -5 -8 3 -2 18 15 22 23 38 30
76 33 56 3 54 8 49 -98 -3 -84 -12 -102 -45 -90 -15 6 -27 6 -30 0 -4 -6 2
-10 12 -10 11 0 24 -5 31 -12 8 -8 15 -8 26 1 14 12 20 48 29 169 l4 52 -58 0
c-46 0 -59 3 -59 15 0 8 5 15 11 15 5 0 7 5 4 10 -12 19 -22 10 -40 -37z"/>
<path d="M8898 4748 c20 -20 15 -41 -8 -35 -11 3 -20 1 -20 -4 0 -5 16 -9 35
-9 33 0 35 -1 29 -27 -11 -47 -33 -95 -59 -129 -14 -18 -25 -36 -25 -40 0 -13
42 30 56 58 14 27 16 28 105 28 l91 0 -7 -32 c-10 -46 -12 -48 -48 -48 l-32 0
29 -15 c38 -20 52 -8 71 63 14 54 9 67 -21 55 -15 -5 -16 -2 -11 26 6 29 5 32
-16 29 -13 -2 -21 2 -19 10 1 6 3 18 5 25 1 8 -12 11 -47 9 -48 -4 -49 -4 -42
22 3 14 2 26 -3 26 -5 0 -12 -11 -15 -25 -4 -14 -11 -23 -17 -19 -6 3 -8 9 -5
12 8 7 -14 32 -27 32 -7 0 -7 -4 1 -12z m132 -68 c0 -17 -7 -20 -40 -20 -33 0
-40 3 -40 20 0 17 7 20 40 20 33 0 40 -3 40 -20z m30 -50 c0 -18 -7 -20 -64
-20 -59 0 -64 2 -59 20 5 17 14 20 64 20 52 0 59 -2 59 -20z"/>
<path d="M9246 4734 l19 -27 -33 6 c-27 6 -32 4 -32 -13 0 -10 -4 -22 -10 -25
-16 -10 -12 -25 5 -19 8 4 15 15 15 25 0 17 9 19 106 19 90 0 105 -2 100 -15
-3 -8 -1 -15 3 -15 10 0 19 19 17 34 0 5 -23 9 -51 9 -60 -2 -68 3 -55 28 9
15 7 19 -5 19 -9 0 -15 -9 -15 -25 0 -32 -31 -34 -45 -3 -6 12 -16 24 -23 26
-10 3 -8 -4 4 -24z"/>
<path d="M9380 4745 c-21 -25 -1 -31 23 -7 17 18 18 22 5 22 -8 0 -21 -7 -28
-15z"/>
<path d="M9694 4695 c-12 -35 -18 -62 -14 -60 4 3 15 -16 25 -42 l18 -46 -39
-33 c-21 -19 -34 -34 -27 -34 6 0 26 12 43 27 l32 27 18 -24 c12 -16 23 -21
36 -16 18 7 18 8 -1 18 -40 21 -43 34 -21 100 11 35 24 65 28 66 22 10 -7 19
-42 15 -43 -6 -49 2 -25 33 18 24 19 34 2 34 -6 0 -22 -29 -33 -65z m61 -47
c-15 -76 -28 -89 -40 -41 -3 15 -12 31 -18 35 -17 10 11 38 40 38 22 0 24 -3
18 -32z"/>
<path d="M10558 4755 c-3 -3 -60 -6 -126 -7 -67 -1 -122 -5 -122 -10 0 -4 29
-8 66 -8 l65 0 -2 -117 c0 -65 3 -120 7 -123 5 -3 10 37 12 88 l3 94 27 -17
c15 -10 35 -27 44 -39 17 -20 18 -21 17 -1 0 21 -29 47 -66 59 -16 5 -23 15
-23 32 0 23 3 24 66 24 46 0 64 4 62 12 -5 13 -22 21 -30 13z"/>
<path d="M10722 4753 c-43 -2 -70 -8 -67 -13 4 -6 17 -10 31 -10 21 0 24 -3
18 -27 -3 -16 -17 -44 -30 -62 -13 -19 -21 -37 -18 -40 3 -3 10 2 15 12 6 9
15 17 20 17 11 0 48 -40 49 -52 0 -5 -18 -26 -40 -48 -22 -22 -36 -40 -31 -40
17 0 71 52 89 84 24 45 50 114 45 119 -2 3 -22 3 -44 0 -42 -6 -45 -3 -29 28
8 14 18 18 36 15 30 -6 56 3 48 15 -3 5 -8 8 -12 7 -4 -1 -40 -4 -80 -5z m58
-82 c0 -5 -6 -22 -13 -39 l-12 -30 -28 22 c-37 30 -28 56 19 56 19 0 34 -4 34
-9z"/>
<path d="M11160 4753 c-99 -5 -117 -23 -23 -23 l72 0 6 -42 c4 -24 5 -70 3
-103 -3 -58 -4 -60 -33 -66 -19 -4 -23 -7 -9 -8 11 0 25 -6 31 -12 23 -23 35
28 28 126 -6 82 -4 94 11 103 15 9 12 35 -4 30 -4 -1 -41 -4 -82 -5z"/>
<path d="M11785 4750 c-116 -6 -145 -14 -37 -11 l52 1 0 -105 0 -105 -31 0
-31 0 4 75 c2 53 -1 76 -9 80 -10 3 -13 -16 -13 -75 l0 -80 -30 0 c-16 0 -30
-4 -30 -10 0 -6 53 -10 139 -10 83 0 142 4 146 10 7 12 -3 13 -72 10 l-53 -2
0 56 0 56 45 0 c44 0 58 11 33 26 -6 4 -14 2 -16 -4 -2 -7 -17 -12 -33 -12
-26 0 -29 3 -29 35 0 50 0 50 50 51 68 2 72 3 65 14 -3 6 -12 9 -18 8 -7 -1
-66 -5 -132 -8z"/>
<path d="M7750 4740 c0 -5 12 -10 26 -10 27 0 27 0 20 -57 -10 -86 -23 -125
-51 -155 -33 -36 -32 -48 1 -17 30 28 63 93 64 127 0 12 5 22 10 22 6 0 10 -7
10 -15 0 -9 11 -33 25 -55 l25 -39 -63 -30 c-34 -17 -55 -31 -46 -31 8 0 39
12 68 26 l53 27 38 -22 c39 -22 70 -27 70 -13 0 5 -18 15 -41 22 -22 8 -42 17
-45 21 -2 4 12 33 31 63 20 31 32 57 28 57 -4 1 -19 2 -33 3 -14 1 -24 6 -24
11 1 6 5 25 9 43 l7 32 -91 0 c-54 0 -91 -4 -91 -10z m149 -42 c-5 -18 -9 -34
-9 -35 0 -2 -16 -3 -35 -3 -33 0 -35 2 -35 35 0 35 0 35 44 35 l45 0 -10 -32z
m35 -70 c-9 -31 -34 -68 -45 -68 -8 0 -49 71 -49 85 0 3 23 5 51 5 48 0 50 -1
43 -22z"/>
<path d="M1520 4708 c0 -30 -3 -34 -30 -36 -17 -1 -39 2 -50 8 -19 10 -20 7
-20 -59 0 -65 10 -95 25 -71 3 5 22 10 41 10 l34 0 0 -55 c0 -30 5 -55 10 -55
6 0 10 25 10 55 l0 55 53 0 52 0 0 60 0 60 -50 -2 c-49 -3 -50 -2 -50 26 -1
16 -6 31 -13 34 -8 2 -12 -8 -12 -30z m0 -93 l0 -45 -40 0 -40 0 0 45 0 45 40
0 40 0 0 -45z m108 3 c-3 -43 -3 -43 -45 -46 l-43 -3 0 45 0 46 46 0 45 0 -3
-42z"/>
<path d="M1950 4724 c-14 -8 -36 -14 -50 -14 -24 0 -25 -2 -25 -73 -1 -88 -11
-141 -30 -161 -9 -8 -11 -17 -6 -20 16 -10 44 47 50 103 6 52 8 56 34 59 l28
3 -2 -82 c-1 -56 2 -84 9 -87 9 -3 12 22 12 82 0 79 2 86 20 86 11 0 20 5 20
10 0 11 -7 12 -72 10 -27 -1 -48 3 -48 8 0 27 15 41 56 53 42 13 53 23 37 32
-5 2 -19 -2 -33 -9z"/>
<path d="M2440 4734 c0 -5 5 -16 10 -24 7 -12 3 -16 -18 -21 -24 -6 -23 -7 11
-8 22 -1 37 -6 37 -13 0 -30 -22 -87 -50 -132 -40 -63 -31 -72 11 -12 l33 46
83 0 c89 0 92 -2 77 -57 -4 -16 -15 -23 -38 -25 -30 -3 -31 -3 -8 -16 35 -20
59 -1 69 56 11 66 11 67 -15 64 -20 -3 -23 0 -20 25 2 22 -1 27 -15 25 -14 -2
-17 3 -15 25 3 26 2 27 -41 24 -42 -3 -43 -2 -39 23 4 18 1 26 -8 26 -8 0 -14
-11 -14 -25 0 -14 -4 -25 -10 -25 -5 0 -10 6 -10 14 0 7 -7 19 -15 26 -8 7
-15 9 -15 4z m140 -58 c0 -23 -17 -36 -46 -36 -27 0 -34 4 -34 20 0 17 7 20
40 20 22 0 40 -2 40 -4z m23 -66 c-5 -17 -14 -20 -64 -20 -44 0 -59 4 -59 14
0 17 20 23 82 25 41 1 46 -1 41 -19z"/>
<path d="M10840 4643 c0 -121 17 -114 22 10 2 65 0 87 -9 87 -10 0 -13 -26
-13 -97z"/>
<path d="M1084 4595 l1 -130 108 3 c74 3 112 0 122 -8 13 -11 15 5 15 119 0
72 1 134 3 137 1 3 -55 7 -124 7 l-125 2 0 -130z m226 0 c0 -96 -3 -115 -15
-115 -12 0 -15 14 -15 63 l0 62 -70 1 -70 2 -6 -35 c-3 -18 -4 -47 0 -64 5
-25 3 -30 -12 -27 -14 3 -17 17 -20 102 -1 55 0 106 2 113 4 10 32 13 106 13
l100 0 0 -115z m-50 -46 l0 -40 -52 3 -53 3 -3 38 -3 37 55 0 56 0 0 -41z m5
-59 c4 -6 -17 -10 -54 -10 -34 0 -61 4 -61 10 0 6 24 10 54 10 30 0 58 -4 61
-10z"/>
<path d="M1150 4667 c0 -24 3 -27 20 -22 11 3 20 2 20 -4 0 -5 -19 -12 -42
-14 -24 -2 1 -4 55 -5 59 -1 96 2 92 7 -3 5 -20 7 -39 4 -19 -3 -36 -1 -40 6
-5 7 2 11 18 11 23 0 33 14 24 36 -2 3 -27 7 -55 8 -52 1 -53 0 -53 -27z m90
3 c0 -5 -16 -10 -35 -10 -19 0 -35 5 -35 10 0 6 16 10 35 10 19 0 35 -4 35
-10z"/>
<path d="M1170 4550 c0 -24 3 -25 40 -22 33 3 40 8 40 26 0 18 -6 21 -40 21
-36 0 -40 -2 -40 -25z m60 0 c0 -5 -9 -10 -20 -10 -11 0 -20 5 -20 10 0 6 9
10 20 10 11 0 20 -4 20 -10z"/>
<path d="M1794 4717 l-41 -10 -6 -106 c-3 -58 -9 -117 -12 -131 l-6 -25 15 25
c8 14 18 42 21 63 7 36 8 37 50 37 l43 0 -3 48 c-4 59 -3 56 -17 44 -16 -13
-68 -4 -68 13 0 6 18 18 41 25 22 8 42 17 45 22 6 10 -7 9 -62 -5z m46 -102
c0 -22 -4 -25 -35 -25 -31 0 -35 3 -35 25 0 22 4 25 35 25 31 0 35 -3 35 -25z"/>
<path d="M2262 4718 c-6 -6 -44 -9 -91 -7 -45 2 -81 1 -81 -3 0 -5 47 -8 105
-8 58 0 105 4 105 9 0 14 -27 20 -38 9z"/>
<path d="M4331 4701 c42 -57 41 -172 -3 -218 -12 -13 -16 -23 -9 -23 21 0 58
49 71 94 14 53 3 99 -37 146 -32 39 -50 39 -22 1z"/>
<path d="M3458 4688 c-18 -27 -23 -46 -23 -99 0 -56 4 -71 28 -102 34 -45 57
-50 26 -6 -39 55 -38 174 2 217 15 17 16 22 5 22 -8 0 -25 -15 -38 -32z"/>
<path d="M4195 4684 c-19 -45 -19 -44 3 -44 31 0 62 -29 62 -59 0 -38 -16 -50
-56 -44 -36 6 -48 -11 -15 -22 22 -7 62 7 80 28 30 37 7 107 -40 122 -29 9
-23 25 10 25 16 0 34 7 41 15 11 13 7 15 -29 15 -37 0 -42 -3 -56 -36z"/>
<path d="M216 4688 c-33 -47 -11 -108 40 -108 13 0 24 -3 24 -7 -1 -13 -34
-50 -55 -61 -20 -11 -20 -11 0 -12 70 -1 118 107 80 180 -20 38 -66 42 -89 8z
m68 -26 c11 -39 2 -62 -23 -62 -25 0 -40 62 -21 85 18 22 33 14 44 -23z"/>
<path d="M11080 4629 c0 -32 5 -61 10 -64 6 -3 10 -2 10 4 0 5 17 11 38 13 37
3 37 3 40 53 l3 50 -51 1 -50 0 0 -57z m80 6 c0 -32 -2 -35 -30 -35 -28 0 -30
3 -30 35 0 32 2 35 30 35 28 0 30 -3 30 -35z"/>
<path d="M4019 4663 c-1 -10 -1 -26 0 -35 2 -13 -7 -18 -36 -20 -49 -4 -49
-22 0 -26 22 -2 37 -8 36 -15 -1 -7 -1 -23 0 -37 1 -20 3 -22 11 -10 5 8 10
25 10 37 0 17 7 22 33 25 17 2 32 8 32 13 0 6 -15 11 -32 13 -32 3 -37 10 -34
44 1 9 -3 19 -9 23 -5 3 -11 -2 -11 -12z"/>
<path d="M4679 4673 c-1 -5 -1 -12 0 -17 5 -26 -12 -46 -40 -46 -16 0 -29 -4
-29 -10 0 -5 16 -10 35 -10 34 0 35 -1 35 -41 0 -24 4 -38 10 -34 6 3 10 22
10 41 0 31 3 34 29 34 17 0 33 5 36 10 4 6 -8 10 -29 10 -34 0 -36 2 -36 35 0
19 -4 35 -10 35 -5 0 -11 -3 -11 -7z"/>
<path d="M9240 4645 c0 -36 0 -36 35 -29 28 5 35 3 35 -10 0 -16 -13 -20 -62
-16 -27 1 -28 0 -28 -50 0 -32 4 -49 10 -45 6 3 10 22 10 41 0 32 2 34 35 34
l35 0 0 -51 c0 -31 4 -48 10 -44 6 3 10 26 10 51 0 44 0 44 35 44 31 0 35 -3
35 -25 0 -19 -5 -25 -22 -25 l-22 0 23 -16 c28 -20 37 -11 44 43 l5 42 -49 -3
c-40 -2 -49 1 -49 15 0 13 8 17 31 15 29 -1 32 2 33 32 l1 32 -77 0 -78 0 0
-35z m130 -1 c0 -10 -15 -14 -55 -14 -39 0 -54 4 -52 13 5 26 107 27 107 1z"/>
<path d="M4891 4655 c-45 -23 -70 -89 -46 -121 12 -16 17 -17 34 -6 12 6 23
12 26 12 10 0 -8 -55 -22 -67 -8 -6 -10 -14 -5 -17 12 -7 53 5 47 14 -3 4 3
34 14 66 10 33 21 73 24 90 6 29 4 32 -23 36 -16 2 -38 -1 -49 -7z m39 -34 c0
-32 -34 -81 -56 -81 -21 0 -17 53 7 84 27 35 49 34 49 -3z"/>
<path d="M6344 4655 c-4 -10 -1 -21 7 -26 11 -6 11 -11 1 -21 -6 -6 -12 -17
-12 -22 1 -15 40 33 40 49 0 7 -7 18 -15 25 -12 10 -16 9 -21 -5z"/>
<path d="M7441 4661 c-9 -6 -10 -10 -2 -12 16 -6 -30 -167 -50 -180 -10 -6 -3
-9 21 -9 35 0 36 1 32 34 -4 31 -2 33 20 29 66 -13 129 123 66 142 -10 4 -25
1 -33 -5 -11 -9 -15 -9 -15 -1 0 13 -19 14 -39 2z m89 -37 c0 -30 -28 -81 -49
-89 -25 -10 -34 11 -21 49 21 64 70 92 70 40z"/>
<path d="M8245 4649 c-13 -11 -29 -35 -35 -55 -10 -30 -9 -38 5 -54 16 -18 19
-18 48 -4 28 15 29 15 23 -1 -3 -9 -6 -23 -6 -30 0 -8 -7 -21 -16 -29 -14 -15
-13 -16 13 -16 24 0 28 4 29 28 0 23 19 98 39 162 8 24 -69 23 -100 -1z m61
-31 c-7 -38 -53 -85 -68 -70 -13 13 -1 68 19 87 8 8 24 15 35 15 18 0 20 -4
14 -32z"/>
<path d="M2305 4650 c-4 -6 -56 -11 -128 -12 -76 -1 -96 -3 -54 -5 l67 -4 0
-84 c0 -50 4 -85 10 -85 6 0 10 35 10 85 l0 84 67 3 c56 3 64 5 51 16 -11 9
-18 10 -23 2z"/>
<path d="M3775 4650 c-17 -7 -17 -9 -3 -9 41 -2 29 -101 -12 -101 -11 0 -20
-7 -20 -15 0 -24 27 -17 49 13 14 19 20 22 21 11 0 -29 26 -42 44 -24 20 20
20 26 2 19 -10 -4 -16 5 -21 26 -7 33 7 60 31 60 8 0 14 5 14 10 0 15 -26 12
-40 -5 -11 -13 -14 -12 -29 4 -12 14 -21 17 -36 11z"/>
<path d="M8673 4653 c-50 -6 -39 -19 12 -15 25 2 45 8 45 13 0 5 -6 8 -12 7
-7 0 -28 -3 -45 -5z"/>
<path d="M9961 4642 c-13 -25 8 -56 35 -50 29 5 27 62 -3 66 -13 2 -26 -4 -32
-16z m46 -8 c6 -16 -15 -37 -29 -28 -4 3 -8 14 -8 25 0 23 28 26 37 3z"/>
<path d="M2980 4640 c-19 -5 -21 -7 -9 -12 11 -4 18 -24 22 -63 7 -65 -6 -95
-40 -95 -14 0 -23 -6 -23 -15 0 -37 50 -3 115 80 35 44 49 79 41 101 -8 22
-25 8 -19 -15 5 -20 -25 -81 -39 -81 -4 0 -8 19 -8 43 0 53 -9 65 -40 57z"/>
<path d="M3599 4641 c11 -7 12 -15 3 -38 -7 -15 -18 -50 -26 -78 -7 -27 -17
-58 -21 -67 -6 -15 -2 -18 20 -18 21 0 26 4 21 16 -11 30 3 54 33 54 40 0 83
49 85 97 l1 38 -65 2 c-40 2 -60 -1 -51 -6z m85 -46 c-2 -40 -34 -80 -58 -72
-18 7 -7 70 16 94 29 31 43 24 42 -22z"/>
<path d="M5370 4644 c0 -6 7 -17 15 -24 8 -7 15 -19 15 -26 0 -8 5 -14 10 -14
6 0 10 4 10 9 0 14 -49 68 -50 55z"/>
<path d="M3180 4618 c0 -10 20 -12 75 -10 97 5 98 22 0 22 -53 0 -75 -4 -75
-12z"/>
<path d="M2120 4587 c0 -8 -14 -33 -30 -55 -17 -23 -26 -42 -20 -42 10 0 79
89 80 103 0 4 -7 7 -15 7 -8 0 -15 -6 -15 -13z"/>
<path d="M2264 4580 c9 -14 24 -40 33 -57 18 -35 33 -43 33 -18 0 9 -19 35
-41 58 -23 23 -34 31 -25 17z"/>
<path d="M9000 4569 c0 -8 7 -24 15 -35 11 -15 14 -16 15 -3 0 8 -7 24 -15 35
-11 15 -14 16 -15 3z"/>
<path d="M9053 4555 c13 -27 27 -33 27 -12 0 14 -19 37 -31 37 -4 0 -2 -11 4
-25z"/>
<path d="M3180 4558 c0 -10 20 -12 75 -10 97 5 98 22 0 22 -53 0 -75 -4 -75
-12z"/>
<path d="M8960 4541 c0 -17 5 -31 10 -31 6 0 10 11 10 24 0 14 -4 28 -10 31
-6 4 -10 -7 -10 -24z"/>
<path d="M2590 4553 c0 -5 7 -18 15 -29 12 -16 14 -16 15 -3 0 9 -7 22 -15 29
-8 7 -15 8 -15 3z"/>
<path d="M8916 4543 c-3 -10 -9 -24 -12 -30 -3 -7 -2 -13 4 -13 7 0 32 42 32
55 0 13 -18 3 -24 -12z"/>
<path d="M12450 4539 c0 -12 5 -19 12 -17 18 6 20 25 3 31 -10 5 -15 0 -15
-14z"/>
<path d="M2550 4543 c0 -19 11 -43 21 -43 13 0 11 14 -6 36 -8 10 -15 14 -15
7z"/>
<path d="M6670 4524 c-19 -13 -40 -24 -47 -24 -7 0 -13 -4 -13 -10 0 -15 15
-12 57 11 47 26 57 35 46 42 -4 3 -24 -6 -43 -19z"/>
<path d="M2458 4509 c-13 -23 -14 -29 -4 -29 8 0 17 12 20 26 10 37 4 38 -16
3z"/>
<path d="M2508 4510 c2 -16 6 -30 8 -30 2 0 4 14 4 30 0 17 -4 30 -8 30 -5 0
-7 -13 -4 -30z"/>
<path d="M6809 4509 c24 -17 46 -28 49 -24 11 10 -47 55 -70 55 -17 0 -12 -6
21 -31z"/>
<path d="M360 4515 c0 -8 7 -15 15 -15 8 0 15 7 15 15 0 8 -7 15 -15 15 -8 0
-15 -7 -15 -15z"/>
<path d="M12665 4190 c-3 -5 0 -10 8 -10 10 0 16 -18 21 -61 6 -50 4 -65 -9
-79 -9 -10 -23 -16 -30 -14 -7 3 -15 -2 -18 -10 -5 -11 0 -16 13 -16 29 0 140
137 140 173 0 19 -4 27 -12 24 -7 -2 -12 -15 -10 -29 2 -16 -6 -36 -22 -54
l-25 -29 -1 35 c-1 54 -10 80 -31 80 -10 0 -21 -4 -24 -10z"/>
<path d="M12866 4039 c-32 -66 -45 -104 -38 -111 6 -6 20 13 41 57 17 37 31
71 31 76 0 5 4 9 9 9 5 0 10 -281 10 -675 l2 -675 -75 -168 c-129 -289 -257
-546 -377 -757 -16 -27 -32 -57 -36 -65 -3 -8 -24 -41 -45 -72 l-39 -58 -287
0 c-158 0 -668 -3 -1133 -7 l-846 -6 -35 54 c-35 53 -126 204 -183 304 -87
150 -242 459 -305 605 -18 41 -45 103 -61 138 -16 35 -29 66 -29 68 0 3 -8 24
-18 47 -22 49 -87 215 -132 337 -17 47 -37 99 -45 116 -8 16 -34 87 -59 157
-38 107 -94 256 -137 366 -7 16 -13 21 -20 14 -7 -7 6 -52 39 -139 28 -71 73
-192 102 -269 70 -192 260 -672 304 -770 20 -44 44 -98 54 -119 58 -134 279
-563 328 -638 13 -21 24 -41 24 -44 0 -4 10 -21 23 -38 13 -17 38 -58 57 -91
18 -33 40 -68 48 -77 17 -20 105 -18 -860 -21 -391 -2 -448 -4 -448 -17 0 -13
80 -15 672 -12 l673 3 15 -25 c42 -69 117 -177 154 -221 23 -27 53 -66 67 -85
15 -19 85 -96 156 -170 181 -188 320 -284 481 -332 126 -37 146 -40 287 -35
165 6 241 25 372 92 121 63 207 129 353 275 135 134 162 167 311 379 l96 136
281 3 281 3 2 -508 c1 -279 3 -525 3 -546 0 -24 5 -37 14 -37 11 0 12 99 10
545 l-3 545 437 0 c240 0 443 3 452 6 39 15 10 -14 -49 -50 -36 -21 -65 -44
-65 -52 0 -20 6 -18 57 16 24 17 47 30 51 31 14 1 95 64 94 74 0 16 -193 108
-205 96 -9 -9 6 -20 103 -67 l45 -22 -140 -1 c-77 -1 -283 -3 -457 -5 -175 -2
-320 -1 -323 4 -2 4 -5 257 -5 562 l-1 556 37 93 c20 52 43 108 50 126 8 17
14 34 14 38 0 4 6 21 14 38 7 18 22 57 34 87 11 30 36 97 56 147 20 51 36 96
36 100 0 5 21 64 46 133 93 251 114 314 104 324 -9 9 -13 3 -48 -94 -11 -30
-50 -136 -87 -235 -36 -99 -72 -200 -80 -225 -7 -25 -22 -67 -33 -95 -43 -110
-104 -273 -120 -317 -9 -27 -18 -48 -22 -48 -3 0 -7 289 -8 643 l-2 642 46
-77 c42 -72 64 -94 64 -67 0 19 -112 199 -124 199 -7 0 -34 -45 -60 -101z m55
-1914 l2 -520 -267 -3 c-146 -1 -266 1 -266 5 0 5 20 39 45 78 25 38 45 74 45
80 0 6 5 16 12 23 43 43 418 807 418 852 0 7 2 11 4 9 3 -3 6 -238 7 -524z
m-614 -589 c-13 -24 -69 -104 -124 -177 -281 -376 -565 -592 -833 -635 -63
-10 -260 -6 -313 6 -70 15 -214 70 -228 86 -6 8 -15 14 -20 14 -5 0 -33 16
-64 35 -49 32 -105 80 -225 195 -31 30 -127 139 -229 260 -43 52 -163 231
-158 236 2 3 479 7 1058 11 580 3 1055 6 1056 7 1 0 25 2 53 3 l52 3 -25 -44z"/>
<path d="M3780 3939 c-31 -6 -32 -7 -7 -8 26 -1 27 -4 27 -50 0 -62 -15 -107
-52 -153 -34 -44 -24 -51 15 -10 14 15 32 48 38 75 7 26 16 47 20 47 4 0 12
-13 19 -30 7 -16 18 -35 26 -41 8 -6 14 -15 14 -20 0 -9 -81 -49 -99 -49 -6 0
-11 -4 -11 -9 0 -12 50 2 89 25 28 17 31 16 80 -5 29 -12 56 -19 61 -16 17 10
2 22 -34 29 -36 7 -64 30 -47 40 17 11 60 96 50 101 -5 4 -14 3 -19 0 -6 -4
-18 -4 -26 -1 -13 5 -13 10 0 41 8 19 11 37 7 39 -10 7 -107 3 -151 -5z m124
-36 c-10 -41 -12 -43 -50 -43 -32 0 -34 2 -34 35 0 35 0 35 45 35 44 0 45 -1
39 -27z m39 -70 c-2 -10 -15 -31 -28 -47 l-23 -28 -26 38 c-14 21 -26 42 -26
46 0 5 24 8 54 8 47 0 53 -2 49 -17z"/>
<path d="M4773 3913 c-27 -41 -23 -126 7 -158 31 -33 54 -32 79 4 29 40 29
119 0 155 -27 34 -63 34 -86 -1z m67 -2 c16 -31 13 -136 -6 -151 -26 -22 -46
9 -46 72 -1 80 28 124 52 79z"/>
<path d="M3391 3904 c-43 -54 -15 -184 39 -184 55 0 85 140 40 188 -28 29 -54
28 -79 -4z m69 -80 c0 -43 -5 -65 -15 -74 -24 -20 -38 1 -43 65 -3 41 0 61 13
82 17 25 18 26 31 8 8 -11 14 -44 14 -81z"/>
<path d="M1990 3840 c-18 -44 -41 -92 -52 -105 l-19 -25 35 0 c33 0 35 2 24
19 -9 15 -9 23 1 35 16 19 62 21 79 4 16 -16 15 -45 0 -51 -7 -3 6 -6 30 -6
l43 -1 -19 25 c-11 14 -32 61 -48 105 -15 44 -31 80 -35 80 -4 0 -21 -36 -39
-80z m59 -43 c1 -4 -11 -6 -26 -4 -16 2 -27 6 -26 8 1 2 5 13 8 24 4 11 9 27
12 35 3 10 10 3 18 -20 8 -19 14 -39 14 -43z"/>
<path d="M4575 3852 c-79 -39 -80 -38 28 -93 41 -21 57 -25 57 -15 0 7 -25 24
-55 37 -30 13 -55 26 -55 29 0 3 25 18 55 33 30 15 55 31 55 37 0 14 -5 12
-85 -28z"/>
<path d="M3203 3843 c-40 -21 -73 -40 -73 -44 0 -4 14 -13 32 -21 17 -7 51
-23 75 -34 35 -18 43 -19 41 -7 -2 9 -27 24 -55 35 -29 11 -53 23 -53 27 0 4
25 19 55 34 30 15 55 31 55 37 0 13 6 15 -77 -27z"/>
<path d="M4315 3854 c-32 -33 -48 -75 -36 -100 12 -27 48 -32 57 -9 4 8 10 15
14 15 13 0 -12 -72 -27 -77 -24 -9 -13 -20 18 -19 29 1 31 3 34 46 2 25 12 70
22 101 l19 57 -42 0 c-27 1 -49 -5 -59 -14z m55 -24 c0 -34 -43 -86 -61 -74
-15 9 -3 63 18 86 25 28 43 22 43 -12z"/>
<path d="M2918 3853 c17 -7 16 -17 -17 -116 l-28 -87 30 0 c23 0 27 3 19 13
-6 7 -9 23 -5 35 4 16 11 20 27 16 45 -11 105 68 92 121 -7 27 -25 31 -57 15
-13 -7 -19 -7 -19 0 0 5 -12 10 -27 9 -16 0 -22 -3 -15 -6z m95 -45 c-3 -53
-58 -101 -78 -69 -6 11 13 58 34 84 21 26 46 17 44 -15z"/>
<path d="M2154 3739 c-10 -17 13 -36 27 -22 12 12 4 33 -11 33 -5 0 -12 -5
-16 -11z"/>
<path d="M10963 3625 c-3 -9 -3 -19 1 -22 3 -4 6 -1 6 5 0 18 37 14 44 -4 7
-19 -8 -50 -42 -86 l-26 -28 46 0 c31 0 48 5 51 15 5 11 0 13 -23 8 -37 -7
-37 0 -5 39 27 32 32 57 13 76 -17 17 -58 15 -65 -3z"/>
<path d="M10830 3560 c0 -6 6 -13 14 -16 17 -7 24 -24 36 -85 10 -54 -1 -104
-31 -143 -11 -14 -16 -26 -11 -26 18 0 61 59 72 98 14 51 -11 132 -51 161 -16
12 -29 17 -29 11z"/>
<path d="M9993 3545 c-54 -38 -65 -150 -20 -216 30 -45 53 -51 28 -7 -41 71
-38 168 6 212 28 28 20 35 -14 11z"/>
<path d="M10716 3516 c-20 -43 -20 -46 5 -46 49 0 75 -33 58 -76 -8 -23 -14
-26 -44 -21 -39 6 -52 -4 -29 -23 12 -11 21 -10 50 3 66 32 71 104 9 134 -44
21 -44 30 0 39 50 9 54 24 7 24 -35 0 -42 -4 -56 -34z"/>
<path d="M10530 3475 c0 -33 -2 -35 -35 -35 -19 0 -35 -4 -35 -10 0 -5 16 -10
35 -10 33 0 35 -2 35 -35 0 -19 5 -35 10 -35 6 0 10 16 10 35 0 33 2 35 35 35
19 0 35 5 35 10 0 6 -16 10 -35 10 -33 0 -35 2 -35 35 0 19 -4 35 -10 35 -5 0
-10 -16 -10 -35z"/>
<path d="M11220 3475 c0 -19 -3 -34 -7 -34 -25 4 -63 -2 -59 -9 3 -5 19 -7 36
-4 29 4 30 3 30 -37 0 -26 4 -40 10 -36 6 3 10 21 10 40 0 31 3 34 33 38 l32
4 -32 1 c-33 2 -37 8 -33 50 1 12 -3 22 -9 22 -6 0 -11 -16 -11 -35z"/>
<path d="M11414 3464 c-27 -28 -34 -44 -32 -67 4 -42 31 -57 58 -32 l21 19 -6
-29 c-4 -17 -16 -38 -27 -47 -20 -18 -19 -18 16 -18 26 0 34 4 30 14 -3 8 4
51 16 96 13 44 21 82 19 84 -2 2 -17 6 -32 10 -25 6 -34 1 -63 -30z m66 -6 c0
-26 -48 -91 -61 -83 -14 9 -11 53 7 80 21 32 54 33 54 3z"/>
<path d="M9485 3480 c-16 -7 -16 -9 -3 -9 13 -1 17 -13 20 -60 4 -80 1 -91
-33 -98 -28 -5 -42 -33 -16 -33 20 1 41 21 90 89 45 61 58 103 37 116 -6 4
-10 -5 -8 -24 1 -16 -5 -38 -14 -48 -8 -10 -18 -25 -21 -33 -5 -15 -7 -4 -12
63 -3 36 -15 47 -40 37z"/>
<path d="M10111 3481 c-8 -5 -9 -10 -3 -12 13 -5 -27 -148 -47 -173 -12 -14
-10 -16 16 -16 25 0 29 4 28 28 0 22 5 28 27 30 35 4 88 67 88 103 0 38 -25
57 -53 40 -15 -10 -22 -11 -25 -2 -4 13 -12 14 -31 2z m79 -36 c0 -40 -27 -85
-52 -85 -18 0 -20 4 -15 36 10 62 67 103 67 49z"/>
<path d="M10285 3480 c-17 -7 -17 -9 -3 -9 11 -1 20 -12 24 -28 11 -51 25 -93
33 -98 5 -2 17 5 27 16 15 17 16 19 1 13 -13 -5 -18 2 -23 36 -9 53 -32 81
-59 70z"/>
<path d="M10354 3476 c-10 -8 -17 -17 -14 -20 10 -10 50 6 50 20 0 18 -11 18
-36 0z"/>
<path d="M9690 3450 c0 -6 33 -10 80 -10 47 0 80 4 80 10 0 6 -33 10 -80 10
-47 0 -80 -4 -80 -10z"/>
<path d="M9693 3398 c2 -9 27 -13 77 -13 50 0 75 4 78 13 3 9 -17 12 -78 12
-61 0 -81 -3 -77 -12z"/>
<path d="M10294 3385 c-4 -8 -15 -15 -25 -15 -20 0 -26 -15 -9 -25 10 -6 50
29 50 45 0 15 -10 12 -16 -5z"/>
<path d="M3835 3150 c-49 -3 -85 -8 -78 -13 6 -4 19 -4 29 0 15 6 16 -1 12
-69 -5 -76 -29 -135 -66 -165 -12 -10 -12 -13 -3 -13 20 0 54 48 77 110 19 51
22 53 29 30 4 -14 17 -38 27 -53 20 -27 20 -29 2 -42 -11 -7 -36 -19 -56 -26
-21 -7 -38 -16 -38 -20 0 -11 56 7 94 30 l33 21 47 -26 c26 -14 53 -23 62 -20
20 8 8 26 -17 26 -11 0 -33 7 -49 15 l-29 15 35 51 c19 28 34 55 34 60 0 5
-13 9 -30 9 -33 0 -38 16 -19 52 6 11 7 23 2 27 -4 3 -48 4 -98 1z m70 -42
c-9 -43 -17 -50 -51 -46 -26 3 -29 8 -32 41 l-3 37 46 0 47 0 -7 -32z m24 -98
c-13 -22 -26 -40 -30 -40 -11 0 -49 51 -49 66 0 10 15 14 51 14 l50 0 -22 -40z"/>
<path d="M4795 3133 c-37 -36 -45 -104 -20 -153 17 -34 47 -53 69 -44 41 16
60 129 29 174 -30 44 -51 50 -78 23z m56 -30 c12 -32 5 -131 -10 -146 -8 -8
-16 -6 -29 6 -13 14 -17 33 -16 81 1 35 5 69 8 75 13 20 36 11 47 -16z"/>
<path d="M3414 3132 c-43 -30 -57 -112 -29 -169 21 -42 51 -48 81 -18 24 24
27 36 27 103 -1 54 -49 106 -79 84z m44 -98 c2 -69 0 -83 -14 -88 -26 -10 -36
7 -37 66 -2 73 9 110 31 106 14 -3 17 -17 20 -84z"/>
<path d="M1943 3109 c14 -8 17 -25 17 -94 0 -69 -3 -86 -17 -95 -13 -8 2 -9
57 -4 41 3 81 11 88 16 17 15 15 63 -3 78 -11 9 -13 16 -5 24 16 16 12 51 -8
69 -13 12 -37 17 -83 17 -48 -1 -60 -3 -46 -11z m101 -15 c32 -32 15 -64 -35
-64 -15 0 -19 7 -19 33 0 50 23 63 54 31z m20 -106 c16 -26 -4 -52 -43 -56
-30 -3 -31 -2 -31 38 0 40 1 41 31 38 18 -2 37 -11 43 -20z"/>
<path d="M4510 3083 c1 -9 89 -53 108 -53 30 0 7 -23 -48 -47 -33 -14 -60 -30
-60 -35 0 -13 35 0 104 38 l59 32 -59 30 c-70 35 -104 46 -104 35z"/>
<path d="M3203 3047 c-34 -18 -65 -35 -69 -39 -6 -7 19 -20 139 -76 4 -2 7 1
7 8 0 6 -25 22 -55 36 -30 14 -53 29 -51 33 3 4 27 18 55 31 28 13 51 27 51
32 0 12 -10 9 -77 -25z"/>
<path d="M4322 3064 c-43 -30 -56 -125 -19 -132 10 -2 28 5 39 15 21 17 21 17
15 0 -4 -11 -10 -29 -13 -42 -3 -13 -13 -26 -22 -28 -10 -3 -1 -5 20 -6 31 -1
35 2 31 18 -4 16 20 110 44 176 5 15 -73 15 -95 -1z m51 -35 c-2 -36 -45 -85
-65 -73 -26 16 28 121 56 111 6 -2 10 -19 9 -38z"/>
<path d="M2931 3062 c-17 -3 -20 -6 -11 -12 10 -6 8 -25 -11 -94 -13 -47 -27
-86 -31 -86 -5 0 -8 -4 -8 -10 0 -5 13 -10 29 -10 28 0 29 2 24 34 -5 34 -5
35 33 38 31 2 43 10 61 37 39 58 22 127 -25 102 -10 -5 -23 -7 -28 -3 -5 5
-20 6 -33 4z m89 -45 c0 -49 -57 -106 -82 -82 -12 13 17 83 41 98 30 18 41 14
41 -16z"/>
<path d="M2150 2930 c0 -13 5 -20 13 -17 6 2 12 10 12 17 0 7 -6 15 -12 18 -8
2 -13 -5 -13 -18z"/>
<path d="M3883 2352 c-46 -1 -83 -7 -83 -13 0 -5 11 -7 26 -3 l27 7 -5 -69
c-5 -69 -31 -137 -62 -163 -9 -8 -16 -18 -16 -24 0 -18 51 36 71 75 10 21 19
46 19 56 0 10 3 21 6 25 9 9 55 -86 49 -101 -2 -7 -26 -22 -51 -33 -26 -11
-44 -22 -41 -25 3 -3 32 6 65 21 l60 27 40 -21 c23 -12 48 -21 57 -21 30 0 14
16 -35 37 l-51 22 36 55 c19 30 35 58 35 61 0 3 -15 5 -34 5 -33 0 -34 1 -26
28 19 65 28 59 -87 54z m73 -28 c-3 -9 -6 -22 -6 -30 0 -17 -44 -36 -65 -28
-9 4 -15 19 -15 40 0 34 0 34 46 34 38 0 45 -3 40 -16z m44 -69 c0 -19 -43
-85 -55 -85 -14 0 -55 54 -55 72 0 6 19 9 93 16 9 1 17 0 17 -3z"/>
<path d="M4840 2332 c-60 -49 -27 -218 39 -197 63 20 68 185 6 209 -22 8 -20
9 -45 -12z m50 -21 c23 -44 6 -161 -24 -161 -18 0 -26 31 -26 101 0 70 27 103
50 60z"/>
<path d="M3415 2315 c-21 -20 -25 -34 -25 -83 0 -131 103 -155 117 -28 7 56
-2 91 -27 116 -26 26 -36 25 -65 -5z m55 -14 c15 -29 12 -124 -4 -147 -22 -29
-39 -5 -44 64 -6 82 22 130 48 83z"/>
<path d="M1984 2302 c-46 -37 -55 -82 -27 -139 18 -39 69 -67 100 -56 24 8 53
34 53 46 0 6 -8 3 -18 -6 -27 -25 -78 -22 -96 6 -26 40 -24 109 4 137 27 27
56 25 85 -6 l25 -27 0 30 c0 29 -1 30 -52 31 -37 1 -59 -3 -74 -16z"/>
<path d="M4631 2259 c-30 -16 -59 -33 -64 -38 -6 -6 18 -23 62 -45 77 -39 81
-41 81 -26 0 5 -28 23 -62 38 l-63 29 63 29 c34 16 62 32 62 36 0 14 -23 7
-79 -23z"/>
<path d="M3140 2271 c0 -4 28 -21 62 -36 l62 -28 -56 -28 c-31 -16 -60 -33
-63 -39 -13 -21 4 -22 32 -3 15 10 49 30 76 43 26 13 47 25 47 27 0 3 -148 73
-156 73 -2 0 -4 -4 -4 -9z"/>
<path d="M4359 2251 c-15 -16 -31 -40 -35 -55 -14 -56 22 -82 62 -46 13 13 24
21 24 18 0 -16 -25 -75 -38 -90 -14 -17 -13 -18 16 -18 28 0 32 3 32 28 0 15
9 61 20 102 11 41 20 77 20 80 0 3 -16 6 -36 7 -28 1 -43 -5 -65 -26z m61 -14
c0 -40 -24 -77 -51 -77 -45 0 -4 104 44 109 4 1 7 -14 7 -32z"/>
<path d="M2941 2262 c-16 -3 -20 -6 -12 -11 15 -10 -30 -179 -51 -192 -8 -6 1
-9 26 -9 32 0 37 2 26 15 -15 18 -3 58 16 51 43 -16 107 53 102 109 -3 27 -6
30 -38 29 -19 0 -37 2 -40 6 -3 3 -16 4 -29 2z m81 -52 c-4 -35 -35 -74 -61
-78 -21 -3 -22 -1 -16 30 11 49 35 79 59 76 16 -2 20 -9 18 -28z"/>
<path d="M2150 2131 c0 -12 6 -21 16 -21 9 0 14 7 12 17 -5 25 -28 28 -28 4z"/>
<path d="M3893 1553 c-46 -2 -83 -8 -83 -14 0 -5 11 -7 25 -5 24 4 25 2 25
-39 0 -57 -33 -145 -67 -179 -16 -16 -20 -26 -12 -25 21 0 61 57 80 112 l17
51 16 -35 c9 -19 21 -42 28 -51 15 -21 -4 -39 -67 -62 -33 -12 -35 -15 -15
-15 14 0 44 10 67 23 l41 24 52 -25 c37 -17 55 -22 63 -14 7 7 5 12 -9 17 -47
15 -75 27 -79 35 -5 7 28 64 54 95 11 14 4 24 -17 24 -8 0 -12 -6 -9 -14 6
-14 -38 -86 -52 -86 -12 0 -38 32 -45 58 -7 21 -4 22 38 22 25 0 46 5 46 10 0
6 -5 10 -10 10 -11 0 -3 48 11 66 9 11 1 26 -10 22 -3 -1 -43 -4 -88 -5z m67
-38 c0 -47 -59 -74 -79 -37 -8 15 -9 42 -2 59 1 1 19 1 41 1 35 0 40 -3 40
-23z"/>
<path d="M4845 1525 c-20 -19 -25 -34 -25 -75 0 -88 39 -136 86 -105 43 28 46
153 4 187 -29 23 -36 23 -65 -7z m55 -14 c15 -30 12 -124 -5 -147 -15 -19 -15
-19 -30 0 -15 20 -21 119 -9 150 8 22 31 20 44 -3z"/>
<path d="M3425 1516 c-13 -13 -26 -39 -30 -57 -8 -46 16 -111 46 -126 68 -35
110 126 49 187 -26 26 -36 25 -65 -4z m56 -23 c13 -33 5 -131 -11 -147 -21
-20 -40 23 -40 89 0 81 29 114 51 58z"/>
<path d="M1953 1509 c14 -8 17 -24 17 -92 0 -53 -5 -88 -12 -96 -19 -20 120
-4 148 18 45 32 47 109 5 152 -27 27 -35 29 -103 29 -54 -1 -69 -3 -55 -11z
m136 -35 c36 -46 21 -113 -30 -134 -51 -21 -59 -10 -59 80 l0 80 34 0 c25 0
40 -7 55 -26z"/>
<path d="M4566 1481 c5 -6 35 -23 67 -39 l57 -29 -65 -28 c-36 -15 -65 -31
-65 -36 0 -5 3 -9 6 -9 14 0 154 71 154 78 -1 4 -33 22 -73 40 -73 33 -99 40
-81 23z"/>
<path d="M3152 1469 c2 -7 26 -20 53 -31 28 -11 54 -23 58 -27 5 -5 -19 -21
-52 -36 -34 -16 -61 -34 -61 -41 0 -9 141 54 158 71 4 3 -145 75 -155 75 -3 0
-3 -5 -1 -11z"/>
<path d="M4366 1451 c-55 -57 -39 -145 19 -107 23 15 25 15 25 1 0 -20 -19
-57 -34 -67 -6 -4 4 -8 22 -8 20 0 31 4 27 10 -4 6 5 50 19 100 14 49 26 90
26 92 0 2 -17 4 -39 5 -30 2 -44 -4 -65 -26z m64 -11 c0 -46 -42 -92 -69 -76
-14 9 0 54 25 81 26 28 44 26 44 -5z"/>
<path d="M2938 1451 c9 -5 9 -18 -2 -52 -7 -24 -19 -63 -25 -86 -7 -24 -16
-43 -21 -43 -6 0 -10 -4 -10 -10 0 -5 16 -10 36 -10 31 0 35 2 24 15 -19 23
-3 55 30 55 46 0 103 82 87 124 -4 11 -23 15 -68 15 -35 0 -57 -4 -51 -8z m89
-48 c-10 -58 -77 -102 -77 -50 0 35 37 87 61 87 19 0 21 -4 16 -37z"/>
<path d="M12665 1407 c-18 -18 -39 -52 -46 -75 -11 -39 -10 -45 8 -70 17 -23
28 -27 67 -26 37 0 52 6 76 29 74 71 54 175 -33 175 -31 0 -46 -7 -72 -33z
m103 10 c22 -26 20 -64 -6 -113 -46 -83 -112 -85 -112 -2 0 84 80 161 118 115z"/>
<path d="M13880 1410 c-13 -8 -12 -10 3 -10 10 0 22 -11 27 -25 12 -32 -12
-75 -41 -75 -20 0 -26 -15 -9 -25 5 -3 21 6 35 21 l25 26 10 -27 c10 -27 11
-27 30 -10 22 20 28 44 6 26 -11 -9 -15 -5 -20 20 -6 34 7 59 30 59 8 0 14 7
14 15 0 21 -14 19 -36 -6 l-18 -20 -8 20 c-8 23 -24 26 -48 11z"/>
<path d="M2177 1335 c-8 -18 11 -31 25 -17 11 11 3 32 -12 32 -4 0 -10 -7 -13
-15z"/>
</g>
</svg>
