<?xml version="1.0" standalone="no"?>
<!DOCTYPE svg PUBLIC "-//W3C//DTD SVG 20010904//EN"
 "http://www.w3.org/TR/2001/REC-SVG-20010904/DTD/svg10.dtd">
<svg version="1.0" xmlns="http://www.w3.org/2000/svg"
 width="1420.000000pt" height="659.000000pt" viewBox="0 0 1420.000000 659.000000"
 preserveAspectRatio="xMidYMid meet">
<metadata>
Created by potrace 1.16, written by Peter Selinger 2001-2019
</metadata>
<g transform="translate(0.000000,659.000000) scale(0.100000,-0.100000)"
fill="#000000" stroke="none">
<path d="M11570 6335 l0 -125 -27 -1 -28 0 24 -10 c47 -19 51 -9 51 131 0 80
-4 130 -10 130 -6 0 -10 -48 -10 -125z"/>
<path d="M11344 6353 c1 -67 4 -93 14 -93 19 0 14 -17 -13 -45 -14 -14 -22
-25 -16 -25 5 0 23 16 39 36 26 31 35 36 61 32 l31 -5 0 96 0 96 -58 0 -59 0
1 -92z m96 57 c0 -17 -7 -20 -40 -20 -33 0 -40 3 -40 20 0 17 7 20 40 20 33 0
40 -3 40 -20z m0 -57 c0 -20 -5 -23 -40 -23 -32 0 -40 4 -40 18 0 27 9 33 47
30 27 -2 33 -6 33 -25z m0 -53 c0 -17 -7 -20 -40 -20 -33 0 -40 3 -40 20 0 17
7 20 40 20 33 0 40 -3 40 -20z"/>
<path d="M12575 6442 c-16 -2 -23 -15 -34 -60 -17 -76 -34 -125 -46 -134 -5
-4 16 -8 48 -8 96 0 147 40 147 115 0 69 -39 98 -115 87z m77 -29 c29 -26 24
-86 -10 -124 -22 -24 -37 -32 -68 -33 -45 -1 -45 -2 -12 107 18 60 23 67 46
67 14 0 34 -7 44 -17z"/>
<path d="M6621 6418 c0 -13 4 -32 9 -43 7 -15 9 -10 9 23 1 23 -3 42 -9 42 -5
0 -10 -10 -9 -22z"/>
<path d="M6734 6426 c-3 -9 -14 -16 -23 -16 -14 -1 -14 -2 1 -11 10 -5 15 -16
12 -24 -4 -8 -1 -15 4 -15 6 0 14 16 18 35 7 38 -1 59 -12 31z"/>
<path d="M11979 6354 c-46 -48 -90 -92 -96 -100 -7 -7 -13 -15 -13 -18 0 -10
189 -6 195 4 3 5 -28 10 -77 12 l-83 3 84 87 c47 49 82 90 79 93 -3 3 -43 -34
-89 -81z"/>
<path d="M12174 6431 c4 -5 -3 -38 -14 -73 -11 -34 -20 -71 -20 -80 0 -9 -8
-21 -17 -26 -13 -8 -8 -11 24 -17 84 -14 152 47 108 95 -10 11 -13 20 -7 20
15 0 42 29 42 45 0 27 -31 45 -76 45 -25 0 -43 -4 -40 -9z m84 -29 c5 -30 -14
-52 -44 -52 -26 0 -27 2 -18 49 6 27 11 32 33 29 18 -2 27 -10 29 -26z m-34
-68 c23 -9 21 -61 -3 -74 -28 -14 -61 -13 -61 4 0 7 5 27 11 45 11 31 23 37
53 25z"/>
<path d="M12360 6408 c-1 -18 -11 -63 -24 -100 l-23 -68 72 0 c67 0 73 2 79
23 9 36 7 37 -19 12 -17 -18 -35 -25 -61 -25 l-36 0 7 37 c4 21 9 41 11 45 8
12 39 9 52 -4 9 -9 12 -8 12 4 0 9 3 24 7 33 6 16 4 16 -21 0 -33 -22 -40 -16
-32 30 7 33 9 35 46 35 29 0 39 -4 42 -17 3 -15 5 -14 10 5 6 21 4 22 -58 22
l-64 0 0 -32z"/>
<path d="M4791 6400 c-5 -16 -17 -30 -25 -30 -13 0 -16 -15 -16 -89 0 -50 5
-93 10 -96 6 -3 10 -1 10 4 0 15 67 14 73 -1 3 -7 7 24 8 70 1 45 3 90 3 100
1 13 -6 16 -26 14 -20 -2 -28 1 -28 12 0 8 5 18 10 21 12 8 13 25 1 25 -5 0
-14 -13 -20 -30z m49 -70 c0 -28 -3 -30 -35 -30 -32 0 -35 2 -35 30 0 28 3 30
35 30 32 0 35 -2 35 -30z m-2 -82 c3 -37 3 -38 -32 -38 -34 0 -36 2 -36 33 0
41 7 49 40 45 21 -3 25 -9 28 -40z"/>
<path d="M4882 6370 c-22 -66 -21 -77 3 -30 14 27 20 30 66 30 l50 0 -6 -62
c-12 -130 -13 -131 -47 -126 -28 5 -29 4 -13 -9 44 -32 63 -9 70 88 3 41 8 86
10 100 4 25 3 26 -52 21 l-56 -5 7 27 c13 51 -11 25 -32 -34z"/>
<path d="M5550 6415 c0 -12 -15 -15 -67 -17 l-68 -2 63 -3 c48 -3 62 -7 62
-20 0 -11 -8 -14 -30 -11 l-30 5 0 -94 0 -93 -32 0 c-17 0 -28 -3 -25 -7 4 -4
66 -8 137 -9 111 -3 130 -1 130 12 0 12 -7 14 -31 9 l-32 -7 5 91 4 91 -43 0
c-34 0 -41 3 -37 15 5 11 22 15 70 15 35 0 64 4 64 9 0 15 -18 23 -25 11 -3
-5 -27 -10 -52 -10 -36 0 -44 3 -39 15 3 9 0 15 -9 15 -8 0 -15 -7 -15 -15z
m70 -79 c0 -19 -17 -23 -72 -18 -33 3 -48 9 -48 18 0 10 15 14 60 14 45 0 60
-4 60 -14z m0 -73 l0 -43 -60 0 c-54 0 -60 2 -60 21 0 16 5 20 20 16 11 -3 23
-1 26 4 3 5 -6 9 -20 9 -18 0 -26 5 -26 18 0 16 9 18 60 18 l60 -1 0 -42z m0
-68 c0 -12 -13 -15 -60 -15 -47 0 -60 3 -60 15 0 12 13 15 60 15 47 0 60 -3
60 -15z"/>
<path d="M5573 6263 c9 -2 23 -2 30 0 6 3 -1 5 -18 5 -16 0 -22 -2 -12 -5z"/>
<path d="M5788 6390 c-19 -27 -22 -36 -10 -29 28 19 65 69 50 69 -7 -1 -25
-19 -40 -40z"/>
<path d="M5923 6423 c-40 -2 -73 -8 -73 -13 0 -6 9 -10 21 -10 l21 0 -21 -35
c-20 -35 -20 -35 -1 -68 22 -35 27 -23 8 18 -10 22 -8 28 10 48 12 13 19 27
15 30 -3 4 14 7 38 7 54 0 91 9 83 21 -3 5 -11 8 -17 7 -7 -1 -45 -4 -84 -5z"/>
<path d="M8502 6418 c-14 -5 -13 -7 6 -7 17 -1 22 -7 23 -28 5 -85 -11 -145
-49 -185 -14 -16 -21 -28 -15 -28 16 0 63 74 78 122 l13 43 12 -30 c6 -16 22
-44 35 -61 27 -35 113 -80 127 -66 5 5 -8 14 -32 21 -50 15 -58 32 -31 67 12
15 21 33 21 40 0 8 5 14 10 14 6 0 10 5 10 10 0 6 -14 10 -31 10 -33 0 -33 2
-17 69 2 10 -16 14 -70 15 -40 0 -81 -2 -90 -6z m135 -43 c-9 -32 -14 -35 -48
-35 -37 0 -38 1 -37 35 1 35 1 35 49 35 l47 0 -11 -35z m43 -49 c0 -13 -32
-76 -42 -82 -14 -9 -58 43 -58 69 0 14 9 17 50 17 28 0 50 -2 50 -4z"/>
<path d="M9724 6411 c-48 -22 -91 -94 -79 -133 20 -64 89 -88 136 -48 l24 21
-32 -16 c-67 -32 -112 11 -93 90 12 52 52 87 94 83 25 -2 32 -8 37 -33 l6 -30
10 35 c5 19 10 36 9 36 -1 1 -17 4 -36 7 -24 5 -48 1 -76 -12z"/>
<path d="M10200 6417 c-20 -8 -22 -11 -7 -14 14 -4 17 -17 17 -88 0 -57 -4
-85 -12 -88 -7 -3 2 -6 21 -6 26 -1 31 2 23 12 -6 7 -13 54 -14 104 l-3 90
-25 -10z"/>
<path d="M10354 6415 c-16 -12 -16 -14 -3 -15 13 0 17 -14 18 -82 2 -58 -2
-84 -11 -89 -8 -6 0 -8 22 -8 19 0 29 3 23 6 -9 3 -13 34 -13 104 0 54 -4 99
-8 99 -5 0 -17 -7 -28 -15z"/>
<path d="M10479 6385 c-47 -106 35 -223 92 -132 15 24 19 44 16 84 -4 60 -27
93 -64 93 -19 0 -28 -10 -44 -45z m71 16 c17 -32 13 -146 -6 -162 -14 -11 -19
-10 -36 11 -16 20 -19 36 -16 82 6 77 35 112 58 69z"/>
<path d="M10618 6406 c-9 -22 -8 -29 7 -46 35 -38 79 -16 73 37 -2 23 -8 29
-35 31 -27 3 -35 -1 -45 -22z m67 -21 c0 -22 -31 -33 -47 -17 -17 17 -1 44 24
40 15 -2 23 -10 23 -23z"/>
<path d="M11511 6338 c2 -102 6 -94 11 20 2 39 0 72 -4 72 -4 0 -7 -42 -7 -92z"/>
<path d="M6790 6405 c0 -9 5 -15 10 -13 12 4 11 16 -1 24 -5 3 -9 -2 -9 -11z"/>
<path d="M7155 6401 c10 -25 -36 -180 -54 -184 -9 -3 10 -5 42 -6 32 0 67 4
78 10 29 15 40 50 24 75 -11 18 -11 22 6 32 23 14 25 55 4 72 -8 7 -35 13 -60
14 -36 1 -44 -2 -40 -13z m85 -16 c18 -22 -12 -65 -46 -65 -20 0 -25 4 -20 16
3 9 9 27 12 40 7 27 35 32 54 9z m-29 -85 c40 -22 8 -80 -44 -80 -24 0 -28 3
-22 18 3 9 9 29 12 45 6 29 22 34 54 17z"/>
<path d="M7358 6398 c-45 -26 -63 -58 -63 -114 0 -53 19 -74 67 -76 35 -1 96
27 84 39 -3 4 -14 -1 -24 -10 -22 -20 -75 -22 -89 -4 -29 37 -19 108 21 146
33 31 88 26 96 -9 6 -25 6 -25 17 6 11 31 10 32 -19 38 -44 9 -49 8 -90 -16z"/>
<path d="M7885 6402 c-39 -25 -54 -43 -65 -82 -12 -43 10 -97 45 -110 30 -11
96 7 103 29 4 11 -1 10 -19 -2 -81 -57 -143 39 -84 130 33 50 100 53 112 5 l6
-27 10 28 c11 34 11 35 -38 42 -30 4 -48 1 -70 -13z"/>
<path d="M8070 6395 c0 -39 -38 -168 -52 -177 -7 -4 17 -8 56 -8 66 0 70 1
107 39 73 72 44 155 -58 166 -52 6 -53 5 -53 -20z m104 -14 c18 -20 23 -62 12
-98 -9 -28 -65 -63 -101 -63 -26 0 -27 2 -21 33 3 17 14 58 23 90 15 51 20 57
43 57 15 0 35 -9 44 -19z"/>
<path d="M9097 6315 l-98 -105 100 0 c61 0 101 4 101 10 0 6 -34 10 -82 10
l-83 0 84 84 c46 46 82 89 80 95 -2 6 -48 -37 -102 -94z"/>
<path d="M9354 6343 c-31 -43 -68 -90 -82 -105 l-26 -28 28 0 c16 0 25 4 21
10 -13 20 24 60 54 60 28 0 29 -1 21 -35 -8 -34 -7 -35 21 -35 25 0 28 2 18
18 -8 12 -8 41 -1 102 6 47 9 86 7 88 -2 2 -29 -31 -61 -75z m32 1 c-3 -9 -6
-24 -6 -35 0 -12 -7 -19 -20 -19 -24 0 -25 4 -3 41 18 31 39 40 29 13z"/>
<path d="M9507 6401 c6 -23 -36 -172 -51 -184 -6 -4 16 -7 49 -5 47 1 64 6 82
24 27 27 29 47 8 68 -14 13 -13 16 4 26 29 15 36 48 15 71 -12 14 -30 19 -65
19 -42 0 -47 -2 -42 -19z m78 -5 c17 -12 18 -18 7 -40 -8 -18 -19 -26 -37 -26
-27 0 -31 13 -15 54 11 30 18 32 45 12z m-17 -88 c22 -22 14 -57 -18 -73 -38
-20 -50 -19 -50 4 0 61 38 99 68 69z"/>
<path d="M2870 6385 c0 -14 -4 -25 -10 -25 -5 0 -10 6 -10 14 0 8 -7 17 -16
20 -12 4 -14 1 -9 -13 4 -14 0 -21 -12 -24 -10 -3 -3 -5 16 -6 33 -1 33 -1 26
-38 -7 -38 -50 -122 -69 -135 -6 -4 -8 -10 -4 -13 4 -4 19 12 34 34 17 26 34
41 48 41 11 0 51 3 89 6 l67 7 0 -30 c0 -38 -22 -68 -43 -60 -9 3 -19 2 -22
-2 -6 -11 32 -21 51 -14 7 3 16 21 20 41 4 21 11 45 16 55 7 14 4 17 -18 17
-24 0 -26 3 -20 31 5 28 4 31 -15 26 -19 -5 -21 -2 -16 22 l6 28 -51 -5 c-51
-5 -51 -5 -44 22 4 15 2 26 -4 26 -5 0 -10 -11 -10 -25z m80 -55 c0 -17 -7
-20 -40 -20 -27 0 -40 4 -40 13 0 21 11 27 47 27 26 0 33 -4 33 -20z m40 -34
c0 -28 -16 -36 -71 -36 -43 0 -59 4 -59 13 0 8 3 17 7 20 7 7 123 10 123 3z"/>
<path d="M3120 6274 l0 -130 67 7 c69 7 136 6 163 -2 13 -3 15 16 18 126 l3
130 -125 0 -126 0 0 -131z m230 6 l0 -110 -104 0 -105 0 -3 100 c-2 55 -2 104
0 109 2 5 50 9 107 10 l105 2 0 -111z"/>
<path d="M3180 6352 c0 -22 3 -23 63 -20 53 3 62 6 65 23 2 18 -3 20 -63 20
-61 0 -65 -1 -65 -23z m105 -2 c-3 -5 -24 -10 -46 -10 -21 0 -39 5 -39 10 0 6
21 10 46 10 27 0 43 -4 39 -10z"/>
<path d="M3170 6264 c0 -46 3 -55 15 -50 8 3 15 1 15 -3 0 -5 -7 -12 -16 -15
-9 -4 -14 -9 -11 -12 3 -4 22 3 42 14 l35 21 35 -21 c20 -11 38 -18 41 -15 3
3 -7 13 -23 21 -21 12 -23 16 -8 14 17 -3 20 4 23 50 l3 52 -75 0 -76 0 0 -56z
m130 36 c0 -6 -25 -9 -57 -8 l-58 1 55 7 c30 4 56 7 58 8 1 1 2 -2 2 -8z m0
-30 c0 -6 -25 -9 -57 -8 l-58 1 45 7 c69 11 70 11 70 0z m0 -30 c0 -5 -25 -10
-55 -10 -30 0 -55 5 -55 10 0 6 25 10 55 10 30 0 55 -4 55 -10z"/>
<path d="M6550 6401 c0 -5 12 -7 27 -5 39 7 42 14 5 14 -18 0 -32 -4 -32 -9z"/>
<path d="M6655 6400 c4 -6 11 -8 16 -5 14 9 11 15 -7 15 -8 0 -12 -5 -9 -10z"/>
<path d="M1560 6371 c0 -26 -4 -30 -32 -34 l-33 -4 33 -1 c31 -2 32 -3 32 -47
l0 -45 -41 0 -41 0 4 50 c2 33 -1 51 -9 55 -10 3 -13 -14 -13 -67 0 -55 3 -68
13 -61 6 5 29 10 50 12 l37 2 0 -56 c0 -35 4 -54 10 -50 6 3 10 28 10 56 0 47
1 49 28 48 72 -4 72 -4 72 59 l0 57 -50 -3 c-50 -4 -50 -4 -50 27 0 17 -4 31
-10 31 -5 0 -10 -13 -10 -29z m100 -88 l0 -43 -40 0 -40 0 0 45 0 46 40 -3 40
-2 0 -43z"/>
<path d="M3730 6392 c0 -8 -101 -145 -133 -179 l-20 -23 26 0 c17 0 25 5 22
13 -7 18 18 45 48 52 24 6 27 4 27 -17 0 -13 -5 -29 -12 -36 -9 -9 -3 -12 27
-12 27 0 35 3 26 9 -11 7 -12 28 -7 105 4 53 5 96 2 96 -3 0 -6 -3 -6 -8z
m-20 -92 c0 -26 -4 -30 -26 -30 l-25 0 21 30 c12 17 23 30 26 30 2 0 4 -13 4
-30z"/>
<path d="M3842 6366 c-1 -38 -27 -121 -48 -153 -14 -23 -14 -23 39 -23 40 0
61 6 81 21 29 23 35 66 11 75 -12 5 -10 10 10 26 48 38 27 72 -52 82 -39 4
-40 4 -41 -28z m86 -9 c5 -25 -16 -47 -45 -47 -21 0 -24 4 -19 23 3 12 6 28 6
35 0 21 54 11 58 -11z m-21 -84 c23 -29 -4 -63 -50 -63 -25 0 -27 3 -21 28 15
62 39 74 71 35z"/>
<path d="M4043 6378 c-40 -29 -68 -87 -59 -124 9 -35 44 -63 79 -64 33 0 87
26 87 42 0 7 -7 5 -17 -5 -29 -25 -83 -26 -107 -1 -19 18 -21 69 -3 103 28 56
127 80 127 31 0 -28 17 -25 22 5 7 32 3 35 -51 35 -32 0 -56 -7 -78 -22z"/>
<path d="M4237 6376 c6 -28 -22 -130 -44 -165 l-15 -24 61 6 c80 7 127 36 142
87 23 75 -19 120 -111 120 -34 0 -37 -2 -33 -24z m113 -11 c18 -22 7 -103 -17
-127 -25 -24 -103 -37 -103 -17 0 7 10 46 22 86 21 71 23 73 54 73 17 0 37 -7
44 -15z"/>
<path d="M4454 6357 c-2 -48 -30 -138 -47 -149 -7 -4 23 -8 66 -8 74 0 78 1
87 26 14 37 12 42 -8 16 -12 -15 -33 -25 -60 -29 -38 -5 -42 -3 -42 15 0 53
42 94 57 56 5 -13 7 -13 14 -2 5 7 9 21 9 31 0 15 -3 15 -20 5 -26 -17 -34 -6
-26 38 7 35 8 36 43 31 20 -4 40 -12 45 -19 5 -9 8 -6 8 10 0 20 -4 22 -62 22
l-63 0 -1 -43z"/>
<path d="M1120 6251 c0 -117 2 -132 16 -127 9 3 28 6 42 7 15 0 21 3 15 6 -32
12 -7 23 52 23 45 0 65 4 66 13 1 6 3 30 4 52 l3 40 -74 0 -74 0 0 -62 c0 -49
-3 -63 -15 -63 -12 0 -15 19 -15 110 0 128 -6 123 125 118 l80 -3 2 -115 c2
-147 2 -145 10 -136 4 4 8 66 8 139 l0 132 -122 0 -123 0 0 -134z m180 -36 l0
-35 -55 0 -55 0 0 35 0 35 55 0 55 0 0 -35z"/>
<path d="M1200 6215 c0 -22 4 -25 39 -25 33 0 39 3 43 25 5 24 3 25 -38 25
-40 0 -44 -2 -44 -25z m60 -3 c0 -4 -9 -8 -20 -9 -11 -1 -20 2 -20 8 0 5 9 9
20 9 11 0 20 -4 20 -8z"/>
<path d="M5921 6363 l-13 -28 26 24 c30 28 31 31 13 31 -8 0 -19 -12 -26 -27z"/>
<path d="M5975 6359 c-15 -27 -15 -33 -2 -47 9 -10 17 -26 19 -36 3 -17 -3
-20 -44 -21 -43 -1 -84 -15 -45 -15 12 0 17 -9 17 -30 0 -29 -2 -30 -45 -30
-25 0 -45 -5 -45 -10 0 -7 37 -10 103 -8 64 2 100 7 97 13 -3 6 -24 8 -47 7
-42 -4 -43 -3 -43 26 0 27 4 30 40 36 38 6 39 7 29 34 -6 15 -17 34 -25 43
-12 13 -11 18 6 37 22 23 25 32 10 32 -5 0 -17 -14 -25 -31z"/>
<path d="M2330 6348 c-111 -149 -129 -178 -110 -178 12 0 20 7 20 18 1 28 25
52 55 52 25 0 27 -3 20 -27 -3 -15 -12 -31 -18 -35 -7 -4 5 -8 26 -8 35 0 37
2 27 20 -6 11 -9 35 -6 53 9 53 16 137 13 137 -2 0 -14 -15 -27 -32z m-5 -67
c-5 -22 -12 -31 -26 -31 -24 0 -24 5 2 42 25 35 33 31 24 -11z"/>
<path d="M2454 6372 c8 -14 -21 -141 -40 -169 -8 -12 -14 -25 -14 -28 0 -9 59
-6 105 6 57 14 86 47 92 101 7 64 -17 90 -92 96 -39 3 -56 1 -51 -6z m110 -34
c34 -48 5 -122 -54 -139 -64 -19 -71 -11 -49 61 10 34 19 70 19 81 0 29 64 27
84 -3z"/>
<path d="M5810 6343 c-8 -16 -23 -39 -34 -53 -12 -14 -14 -19 -6 -12 25 21 29
14 33 -60 l3 -73 2 86 c2 70 6 91 23 113 15 19 17 26 6 26 -7 0 -20 -12 -27
-27z"/>
<path d="M252 6348 c-20 -20 -14 -28 12 -16 37 16 56 4 56 -36 0 -26 -10 -45
-46 -85 l-46 -51 60 0 c41 0 61 4 65 14 4 10 -4 12 -39 8 -24 -2 -44 -3 -44 0
0 2 14 20 31 39 31 34 49 69 49 94 0 37 -70 61 -98 33z"/>
<path d="M430 6350 c-11 -7 -12 -10 -2 -10 10 0 13 -21 10 -90 -3 -84 -2 -90
17 -90 19 0 20 6 17 100 -3 102 -8 112 -42 90z"/>
<path d="M1185 6342 c3 -8 5 -20 5 -27 0 -8 7 -11 20 -8 11 3 20 1 20 -5 0 -6
-19 -13 -42 -15 -24 -2 -1 -4 50 -5 50 -1 92 2 92 7 0 5 -18 7 -40 4 -26 -4
-40 -2 -40 6 0 6 11 11 25 11 19 0 25 5 25 23 0 20 -4 22 -60 22 -46 0 -59 -3
-55 -13z m95 -12 c0 -5 -18 -10 -40 -10 -22 0 -40 5 -40 10 0 6 18 10 40 10
22 0 40 -4 40 -10z"/>
<path d="M6655 6339 c-6 -19 -13 -21 -56 -17 -27 3 -49 1 -49 -3 0 -5 20 -9
45 -9 25 0 45 -4 45 -10 0 -5 -21 -30 -47 -56 -27 -25 -39 -41 -27 -36 11 6
26 18 34 26 17 22 29 20 23 -4 -3 -11 -3 -30 0 -42 6 -22 10 -23 87 -20 l81 4
-3 46 -3 45 -72 -2 c-73 -2 -79 1 -67 33 5 13 23 16 90 16 46 0 84 4 84 8 0 5
-34 7 -77 4 -74 -5 -76 -4 -70 17 7 27 -10 28 -18 0z m115 -124 l0 -36 -62 3
c-63 3 -63 3 -66 36 l-3 32 65 0 66 0 0 -35z"/>
<path d="M10994 6349 c-3 -6 -1 -16 4 -21 8 -8 8 -17 1 -29 -7 -15 -6 -17 6
-13 9 4 15 19 15 40 0 33 -12 45 -26 23z"/>
<path d="M12780 6350 c0 -6 32 -10 75 -10 43 0 75 4 75 10 0 6 -32 10 -75 10
-43 0 -75 -4 -75 -10z"/>
<path d="M5910 6324 c0 -5 9 -20 20 -34 14 -18 20 -21 20 -9 0 9 -9 24 -20 34
-11 10 -20 14 -20 9z"/>
<path d="M6207 6323 c-4 -3 -7 -17 -7 -30 0 -21 4 -24 27 -21 19 2 29 10 31
23 2 18 2 18 -8 3 -15 -24 -40 -23 -40 1 0 12 8 21 23 24 20 4 20 4 1 6 -11 0
-24 -2 -27 -6z"/>
<path d="M7570 6318 c0 -4 34 -8 75 -8 41 0 75 4 75 8 0 4 -34 8 -75 8 -41 0
-75 -3 -75 -8z"/>
<path d="M9968 6323 c23 -2 61 -2 85 0 23 2 4 4 -43 4 -47 0 -66 -2 -42 -4z"/>
<path d="M4912 6315 c12 -32 32 -65 40 -65 15 0 8 16 -18 46 -14 16 -24 25
-22 19z"/>
<path d="M5200 6310 c-131 -6 -152 -10 -60 -12 141 -2 221 2 215 12 -3 6 -12
9 -18 8 -7 -1 -68 -5 -137 -8z"/>
<path d="M1880 6285 c0 -8 5 -15 11 -15 6 0 8 -9 4 -20 -4 -11 -2 -20 4 -20
13 0 25 45 16 59 -9 16 -35 13 -35 -4z"/>
<path d="M12800 6289 c23 -9 118 -5 128 6 3 3 -30 5 -74 4 -62 0 -74 -2 -54
-10z"/>
<path d="M9935 6270 c-4 -6 23 -10 74 -10 47 0 81 4 81 10 0 6 -31 10 -74 10
-41 0 -78 -4 -81 -10z"/>
<path d="M7570 6260 c0 -6 30 -10 75 -10 41 0 75 4 75 8 0 4 -34 9 -75 10 -47
2 -75 -1 -75 -8z"/>
<path d="M5850 6250 c0 -5 7 -10 16 -10 8 0 12 5 9 10 -3 6 -10 10 -16 10 -5
0 -9 -4 -9 -10z"/>
<path d="M11442 6219 c12 -16 24 -25 26 -19 4 12 -26 50 -40 50 -5 0 2 -14 14
-31z"/>
<path d="M2980 6212 c6 -13 14 -21 18 -18 3 4 -2 14 -12 24 -18 16 -18 16 -6
-6z"/>
<path d="M2837 6188 c-10 -17 -16 -33 -13 -35 7 -7 38 45 34 56 -1 6 -11 -3
-21 -21z"/>
<path d="M2880 6203 c0 -10 5 -25 10 -33 8 -12 10 -9 10 12 0 15 -4 30 -10 33
-5 3 -10 -2 -10 -12z"/>
<path d="M2930 6206 c0 -8 5 -18 10 -21 6 -3 10 1 10 9 0 8 -4 18 -10 21 -5 3
-10 -1 -10 -9z"/>
<path d="M8575 6200 c-16 -10 -38 -19 -47 -19 -10 -1 -18 -5 -18 -11 0 -6 9
-6 25 0 36 14 85 40 85 45 0 9 -14 4 -45 -15z"/>
<path d="M557 6183 c-12 -11 -8 -23 8 -23 8 0 15 7 15 15 0 16 -12 20 -23 8z"/>
<path d="M1255 6140 c-17 -8 -17 -9 7 -7 15 1 24 5 22 9 -3 4 -6 8 -7 7 -1 0
-11 -4 -22 -9z"/>
<path d="M2916 5579 c-14 -11 -26 -25 -26 -31 0 -6 8 -4 18 5 41 37 92 5 73
-45 -5 -13 -27 -44 -50 -70 -23 -25 -41 -49 -41 -53 0 -11 114 7 122 19 13 19
9 29 -6 17 -8 -7 -29 -11 -46 -9 l-31 3 31 34 c53 57 62 99 30 131 -25 25 -41
25 -74 -1z"/>
<path d="M3088 5590 c-24 -15 -41 -76 -34 -123 18 -108 110 -102 117 8 6 95
-31 145 -83 115z m55 -43 c13 -40 0 -134 -20 -141 -9 -4 -21 -2 -26 3 -13 13
-21 93 -13 136 6 30 11 36 28 33 13 -2 25 -14 31 -31z"/>
<path d="M3228 5589 c-28 -16 -23 -57 8 -71 31 -14 57 -1 62 31 6 42 -31 63
-70 40z m55 -21 c7 -23 -4 -38 -29 -38 -17 0 -24 6 -24 18 0 10 3 22 7 25 11
12 41 8 46 -5z"/>
<path d="M10650 5589 c-451 -32 -927 -196 -1295 -447 -162 -110 -235 -171
-381 -316 -131 -132 -234 -254 -301 -356 -110 -170 -160 -253 -206 -345 -188
-376 -281 -778 -278 -1207 1 -187 5 -229 31 -407 18 -117 78 -343 120 -451 12
-30 25 -68 30 -85 18 -72 114 -264 203 -410 147 -241 299 -426 508 -619 104
-95 408 -316 435 -316 3 0 18 -8 32 -19 124 -86 468 -220 692 -269 201 -44
280 -54 475 -60 300 -10 474 4 720 59 92 21 342 97 360 109 6 4 21 11 35 15
24 7 166 71 220 99 135 69 450 285 526 361 11 11 45 43 75 71 170 160 367 401
469 574 33 54 103 194 153 300 14 30 38 91 52 135 15 44 31 89 35 100 39 89
96 365 120 580 21 188 8 548 -26 730 -35 192 -111 451 -169 580 -48 107 -114
239 -153 305 -21 36 -45 76 -53 90 -8 14 -16 27 -19 30 -3 3 -13 16 -22 30
-142 211 -359 441 -579 613 -92 72 -302 199 -440 266 -164 79 -388 161 -549
200 -245 59 -535 80 -820 60z m495 -30 c106 -10 222 -31 360 -65 104 -26 268
-78 297 -94 10 -6 24 -10 32 -10 8 0 40 -13 71 -30 31 -16 61 -30 66 -30 4 0
30 -13 57 -29 27 -16 59 -32 72 -36 13 -4 44 -20 69 -36 25 -16 54 -32 64 -35
34 -12 16 -22 -35 -18 -29 1 -125 5 -213 8 -88 3 -297 13 -465 21 -168 8 -406
19 -530 25 -124 5 -317 14 -430 19 -113 6 -281 12 -375 16 -93 3 -208 7 -255
10 -204 12 -264 16 -267 19 -3 3 135 65 222 100 64 25 284 93 355 109 73 17
222 43 320 56 83 11 467 11 585 0z m-1275 -304 c74 -3 214 -10 310 -15 96 -5
256 -12 355 -15 99 -3 212 -8 250 -10 39 -3 178 -10 310 -15 288 -12 420 -19
500 -25 33 -3 141 -7 240 -11 99 -3 198 -7 220 -8 22 -1 87 -3 145 -4 l105 -2
61 -113 c34 -61 79 -143 99 -182 21 -38 52 -95 70 -125 33 -55 225 -419 225
-426 0 -2 31 -59 69 -127 37 -67 94 -171 126 -232 32 -60 75 -139 95 -175 21
-36 66 -119 101 -185 35 -66 80 -151 101 -190 21 -38 68 -128 103 -200 36 -71
74 -145 85 -164 11 -19 19 -36 17 -37 -1 -1 -527 -5 -1169 -9 -1102 -7 -1168
-7 -1174 10 -4 9 -39 66 -78 125 -39 60 -107 165 -151 235 -44 70 -94 146
-110 169 -17 22 -41 59 -55 81 -13 22 -78 123 -145 225 -67 102 -132 203 -145
225 -13 22 -67 105 -118 185 -52 80 -109 168 -127 195 -18 28 -71 110 -119
183 -47 73 -86 135 -86 137 0 2 -28 44 -63 92 -67 92 -254 382 -264 409 -5 13
1 15 38 10 24 -3 105 -8 179 -11z m-357 -125 c-95 -153 -117 -191 -148 -245
-14 -26 -42 -73 -62 -104 -52 -81 -213 -351 -213 -357 0 -3 -13 -24 -28 -47
-16 -23 -46 -71 -66 -107 -21 -36 -58 -99 -84 -142 -26 -42 -67 -109 -91 -150
-24 -40 -72 -118 -106 -173 -34 -55 -88 -143 -119 -195 -31 -52 -82 -135 -113
-185 -31 -49 -78 -127 -104 -173 -27 -45 -66 -109 -86 -141 -21 -33 -48 -77
-60 -98 l-22 -38 0 75 c0 41 4 105 9 142 5 36 12 90 16 120 19 164 94 440 173
637 190 471 576 935 1011 1212 110 70 155 95 158 87 2 -4 -27 -57 -65 -118z
m176 27 c36 -56 148 -229 250 -384 103 -155 210 -319 239 -365 29 -46 94 -147
145 -225 50 -79 110 -171 131 -205 21 -35 76 -119 121 -188 45 -69 130 -199
188 -290 59 -91 119 -183 134 -205 15 -21 43 -64 61 -95 19 -30 58 -92 88
-137 30 -44 54 -83 54 -86 0 -3 -174 -6 -387 -8 -214 -1 -408 -3 -433 -4 -82
-4 -2043 -5 -2047 -1 -4 3 24 50 135 225 12 20 29 50 37 66 9 17 33 57 55 90
22 33 43 66 47 74 3 8 36 62 71 120 36 58 117 192 180 296 63 105 124 206 137
225 12 19 70 116 128 215 58 99 118 200 133 225 63 103 370 611 413 682 25 43
48 78 51 78 3 0 34 -46 69 -103z m2886 -217 c197 -177 325 -323 459 -525 243
-362 394 -800 426 -1229 9 -125 8 -158 -4 -145 -2 2 -46 87 -98 189 -53 102
-106 205 -120 230 -14 25 -53 99 -88 165 -35 66 -71 134 -81 152 -10 18 -35
63 -55 100 -20 37 -60 111 -89 163 -89 161 -115 210 -188 350 -38 74 -94 178
-123 231 -30 54 -54 99 -54 103 0 3 -14 29 -32 58 -17 29 -51 91 -76 138 -24
47 -55 104 -68 128 -13 23 -24 47 -24 53 0 12 139 -92 215 -161z m885 -1987
c0 -3 -24 -56 -54 -117 -68 -140 -126 -264 -126 -270 0 -7 -184 -391 -355
-741 -53 -110 -111 -229 -128 -265 -17 -36 -32 -67 -33 -68 -1 -2 -22 9 -46
26 -105 72 -250 98 -373 67 -82 -21 -125 -41 -189 -89 -54 -42 -58 -43 -71
-16 -6 11 -35 59 -65 106 -30 48 -60 94 -65 103 -6 9 -32 50 -59 91 -64 100
-86 134 -127 200 -18 30 -85 134 -149 230 -63 96 -117 179 -119 183 -2 5 -31
51 -65 102 -33 52 -74 116 -90 142 -17 26 -58 91 -91 143 -34 52 -72 112 -84
133 l-23 37 404 1 c222 1 714 5 1093 8 675 6 815 5 815 -6z m-2291 -80 c27
-43 85 -133 128 -201 116 -183 180 -281 289 -447 55 -82 101 -155 104 -161 8
-17 148 -238 308 -484 20 -30 50 -77 68 -105 17 -27 66 -102 108 -166 42 -65
76 -119 76 -121 0 -2 47 -75 105 -163 58 -87 105 -161 105 -164 0 -7 -38 -33
-171 -122 -143 -95 -263 -163 -369 -209 -41 -18 -88 -38 -105 -46 -16 -7 -77
-29 -135 -48 -594 -200 -1245 -180 -1836 54 -110 44 -355 173 -426 224 -35 25
-90 64 -123 88 -150 104 -353 299 -489 468 -51 63 -101 129 -112 145 -10 17
-21 32 -24 35 -21 19 -155 247 -165 281 -4 13 -11 26 -15 29 -11 8 -78 155
-99 217 -10 32 -30 87 -44 123 -33 89 -93 332 -112 460 -9 58 -19 165 -22 238
l-6 132 514 0 c484 0 1682 10 1686 13 1 1 161 4 357 5 l355 4 50 -79z m2301 5
c-2 -136 -50 -490 -84 -613 -19 -68 -85 -275 -96 -300 -5 -11 -19 -42 -31 -70
-52 -119 -145 -296 -192 -365 -17 -25 -48 -71 -70 -104 -87 -130 -302 -366
-451 -496 l-28 -25 7 23 c4 13 56 125 116 249 60 124 109 227 109 229 0 7 154
326 203 419 9 17 38 77 65 135 27 58 70 148 95 200 112 235 177 372 177 376 0
2 15 36 34 76 110 235 126 271 126 279 0 5 5 9 10 9 6 0 10 -10 10 -22z m-880
-1325 c57 -16 160 -71 160 -86 0 -5 -20 -51 -45 -103 -25 -52 -66 -138 -91
-191 -107 -225 -136 -283 -142 -283 -4 1 -34 44 -67 96 -105 166 -139 219
-145 224 -3 3 -24 34 -45 70 -21 36 -52 85 -69 109 l-31 43 40 34 c22 19 60
43 85 55 25 11 54 25 65 30 62 30 183 30 285 2z"/>
<path d="M2050 5568 c0 -7 -18 -52 -39 -100 -21 -48 -37 -89 -34 -92 8 -8 33
6 27 15 -3 5 -2 18 1 29 5 16 15 20 51 20 44 0 48 -4 47 -47 -1 -16 21 -23 37
-13 10 6 11 12 3 22 -6 7 -26 50 -43 96 -30 74 -50 102 -50 70z m25 -80 c6
-25 5 -28 -19 -28 -29 0 -31 6 -16 46 12 31 25 24 35 -18z"/>
<path d="M9503 5497 c-1 -23 -10 -68 -21 -99 l-19 -58 51 0 c39 0 58 5 74 20
26 25 28 58 5 75 -15 11 -15 13 5 19 29 10 38 43 16 67 -12 13 -30 19 -63 19
l-46 0 -2 -43z m85 21 c25 -25 1 -67 -40 -68 -20 0 -21 4 -12 49 7 33 30 41
52 19z m-13 -117 c0 -31 -4 -36 -34 -43 -18 -5 -36 -7 -39 -4 -3 3 0 24 7 47
11 35 15 40 39 37 23 -3 27 -7 27 -37z"/>
<path d="M3585 5510 c-12 -20 6 -50 30 -50 25 0 38 21 29 45 -7 17 -49 20 -59
5z m50 -20 c0 -8 -8 -16 -17 -18 -13 -2 -18 3 -18 18 0 15 5 20 18 18 9 -2 17
-10 17 -18z"/>
<path d="M2195 5400 c-8 -13 4 -32 16 -25 12 8 12 35 0 35 -6 0 -13 -4 -16
-10z"/>
<path d="M12386 5379 c-32 -25 -56 -69 -56 -102 0 -32 33 -73 65 -81 28 -7 95
19 95 37 0 5 -8 3 -18 -6 -25 -22 -75 -21 -95 1 -44 48 5 161 70 162 35 0 53
-11 53 -33 0 -26 5 -20 14 16 6 27 6 27 -47 27 -40 0 -61 -6 -81 -21z"/>
<path d="M3236 4835 c-13 -20 -14 -28 -4 -45 16 -26 35 -32 58 -20 26 14 32
40 15 66 -20 31 -48 30 -69 -1z m62 -21 c4 -26 -20 -37 -44 -20 -24 18 -11 48
18 44 14 -2 24 -11 26 -24z"/>
<path d="M2915 4830 c-19 -21 -8 -29 12 -9 15 15 53 2 53 -19 0 -8 -10 -26
-22 -39 -18 -19 -19 -23 -5 -23 23 0 36 -30 26 -57 -7 -19 -16 -23 -49 -23
-25 0 -39 -4 -35 -10 12 -19 65 -11 90 15 29 28 31 51 10 83 -12 16 -13 26 -5
42 15 27 -4 60 -34 60 -13 0 -31 -9 -41 -20z"/>
<path d="M3083 4823 c-19 -40 -16 -48 20 -64 26 -12 33 -20 35 -51 3 -29 -1
-38 -17 -43 -12 -3 -30 -3 -41 0 -12 4 -20 2 -20 -5 0 -35 86 -13 96 25 12 47
0 79 -33 95 -39 18 -40 46 -2 42 14 -2 31 4 39 12 11 14 8 16 -26 16 -33 0
-41 -5 -51 -27z"/>
<path d="M2007 4833 c-15 -3 -25 -8 -22 -13 12 -20 6 -173 -7 -181 -17 -11
100 -9 129 2 31 12 40 54 17 80 -15 17 -16 23 -5 40 10 17 9 25 -4 45 -8 13
-24 24 -34 24 -11 0 -25 2 -33 3 -7 2 -25 2 -41 0z m81 -26 c6 -7 9 -23 5 -35
-4 -17 -13 -22 -39 -22 -32 0 -34 2 -34 35 0 32 3 35 29 35 16 0 33 -6 39 -13z
m7 -90 c13 -10 16 -21 11 -40 -6 -24 -11 -27 -46 -27 -40 0 -40 0 -40 40 0 37
2 40 28 40 16 0 36 -6 47 -13z"/>
<path d="M3594 4766 c-11 -29 0 -51 26 -51 21 0 25 5 25 30 0 24 -5 31 -23 33
-13 2 -24 -3 -28 -12z m44 -23 c-2 -10 -10 -18 -18 -18 -8 0 -16 8 -18 18 -2
12 3 17 18 17 15 0 20 -5 18 -17z"/>
<path d="M2190 4645 c0 -8 5 -15 10 -15 6 0 10 7 10 15 0 8 -4 15 -10 15 -5 0
-10 -7 -10 -15z"/>
<path d="M3243 4097 c-42 -19 -25 -79 22 -79 32 0 46 17 43 51 -4 29 -35 42
-65 28z m45 -35 c3 -18 -1 -22 -22 -22 -31 0 -42 16 -25 36 17 21 43 13 47
-14z"/>
<path d="M2942 4037 c-23 -34 -42 -68 -42 -75 0 -7 15 -12 40 -12 38 0 40 -2
40 -30 0 -16 5 -30 10 -30 6 0 10 11 10 25 0 13 8 29 18 35 12 8 13 13 5 16
-7 3 -13 20 -13 39 0 41 -11 95 -19 95 -3 0 -25 -28 -49 -63z m38 -21 c0 -41
-2 -44 -30 -48 -16 -3 -30 -1 -30 4 0 9 50 88 56 88 2 0 4 -20 4 -44z"/>
<path d="M3074 4069 c-21 -41 -15 -130 11 -159 42 -46 84 -10 91 77 6 74 -9
107 -53 111 -27 3 -34 -2 -49 -29z m70 5 c3 -9 6 -42 6 -74 0 -32 -3 -65 -6
-74 -9 -23 -42 -19 -50 6 -8 25 -7 113 2 140 7 22 40 24 48 2z"/>
<path d="M2033 4080 c-28 -12 -53 -60 -53 -104 0 -84 98 -129 151 -69 17 20
18 23 3 10 -30 -25 -89 -22 -108 5 -22 31 -20 100 2 128 24 30 70 30 94 0 21
-26 30 -23 22 7 -8 31 -63 42 -111 23z"/>
<path d="M3597 4013 c-14 -13 -6 -42 13 -48 27 -9 40 1 40 31 0 18 -5 24 -23
24 -13 0 -27 -3 -30 -7z m41 -20 c-2 -10 -10 -18 -18 -18 -8 0 -16 8 -18 18
-2 12 3 17 18 17 15 0 20 -5 18 -17z"/>
<path d="M2190 3895 c0 -8 5 -15 10 -15 6 0 10 7 10 15 0 8 -4 15 -10 15 -5 0
-10 -7 -10 -15z"/>
<path d="M3129 3353 c-18 -3 -31 -15 -42 -39 -21 -44 -21 -44 3 -44 28 0 60
-35 60 -65 0 -31 -32 -50 -59 -35 -21 11 -37 -2 -26 -20 11 -18 56 -10 80 15
34 33 33 78 -1 110 -15 14 -31 25 -35 25 -5 0 -9 7 -9 15 0 10 11 15 35 15 24
0 35 5 35 15 0 8 -3 14 -7 14 -5 -1 -20 -4 -34 -6z"/>
<path d="M3240 3334 c-13 -33 3 -64 33 -64 29 0 47 18 47 45 0 48 -63 64 -80
19z m65 -19 c0 -14 -8 -21 -27 -23 -22 -3 -28 1 -28 16 0 25 10 33 35 30 12
-2 20 -10 20 -23z"/>
<path d="M2935 3320 c-21 -40 -20 -44 19 -58 38 -14 53 -49 35 -83 -9 -17 -17
-20 -45 -14 -27 5 -34 3 -34 -10 0 -10 10 -15 29 -15 34 0 81 49 81 84 0 23
-32 58 -62 69 -29 10 -21 26 17 33 48 9 54 24 11 24 -29 0 -38 -5 -51 -30z"/>
<path d="M1988 3332 c10 -7 13 -34 10 -106 l-3 -96 41 0 c23 0 54 5 71 10 62
22 84 118 38 168 -21 23 -34 27 -97 30 -46 2 -68 0 -60 -6z m130 -35 c18 -17
22 -30 20 -66 -3 -38 -8 -49 -36 -67 -18 -13 -41 -20 -52 -17 -18 5 -20 14
-20 87 0 46 3 85 6 89 11 11 59 -4 82 -26z"/>
<path d="M3594 3258 c-9 -28 20 -52 47 -37 22 11 24 30 7 47 -19 19 -46 14
-54 -10z m51 -8 c0 -8 -8 -16 -17 -18 -13 -2 -18 3 -18 18 0 15 5 20 18 18 9
-2 17 -10 17 -18z"/>
<path d="M2210 3150 c0 -13 5 -20 13 -17 6 2 12 10 12 17 0 7 -6 15 -12 18 -8
2 -13 -5 -13 -18z"/>
<path d="M13640 3082 c0 -6 4 -12 10 -14 6 -2 7 -15 1 -38 -6 -19 -15 -54 -21
-77 -6 -23 -18 -50 -27 -59 -16 -15 -12 -16 53 -13 100 6 144 44 144 124 0 50
-29 75 -84 75 -24 0 -51 3 -60 6 -9 3 -16 2 -16 -4z m120 -32 c11 -11 20 -29
20 -41 0 -30 -27 -82 -49 -96 -23 -15 -91 -28 -91 -18 0 7 34 128 45 163 7 19
53 14 75 -8z"/>
<path d="M8014 2983 c-27 -37 -62 -82 -78 -100 l-28 -33 27 0 c20 0 26 4 21
15 -8 21 30 57 57 53 27 -4 33 -30 12 -52 -15 -15 -13 -16 22 -16 24 0 33 3
25 9 -11 6 -12 27 -5 100 5 50 6 91 2 91 -3 0 -28 -30 -55 -67z m28 -18 c-3
-26 -9 -35 -23 -35 -10 0 -19 2 -19 5 0 5 42 65 45 65 0 0 -1 -16 -3 -35z"/>
<path d="M12494 663 c-1 -41 -35 -157 -48 -165 -6 -4 23 -8 66 -8 l76 0 11 33
11 32 -20 -23 c-12 -15 -35 -26 -60 -29 -37 -5 -40 -4 -40 18 0 44 12 69 31
69 11 0 22 -7 26 -16 5 -13 7 -13 14 -2 5 7 9 21 9 30 0 15 -4 16 -25 6 -33
-15 -39 -6 -25 36 10 32 15 36 45 36 22 0 38 -6 44 -17 9 -16 10 -16 11 5 0
20 -4 22 -62 22 -62 0 -63 -1 -64 -27z"/>
</g>
</svg>
