<?xml version="1.0" standalone="no"?>
<!DOCTYPE svg PUBLIC "-//W3C//DTD SVG 20010904//EN"
 "http://www.w3.org/TR/2001/REC-SVG-20010904/DTD/svg10.dtd">
<svg version="1.0" xmlns="http://www.w3.org/2000/svg"
 width="1430.000000pt" height="705.000000pt" viewBox="0 0 1430.000000 705.000000"
 preserveAspectRatio="xMidYMid meet">
<metadata>
Created by potrace 1.16, written by Peter Selinger 2001-2019
</metadata>
<g transform="translate(0.000000,705.000000) scale(0.100000,-0.100000)"
fill="#000000" stroke="none">
<path d="M12513 6661 c-4 -15 -16 -21 -47 -24 l-41 -4 43 -1 c35 -2 42 -5 42
-22 0 -17 -7 -20 -50 -20 -27 0 -50 -4 -50 -10 0 -6 29 -10 68 -10 l67 0 -25
-20 c-14 -11 -47 -27 -73 -36 -27 -9 -46 -18 -43 -21 3 -3 19 0 37 6 47 16 48
16 44 -41 l-4 -53 79 0 80 0 0 66 0 65 -62 -3 -63 -4 25 20 c17 13 43 21 80
23 31 2 53 7 50 13 -3 5 -20 8 -39 6 -36 -3 -36 4 1 45 12 14 16 24 9 28 -6 4
-22 -11 -37 -34 -30 -45 -74 -57 -74 -20 0 16 7 20 31 20 16 0 28 4 25 9 -3 4
-17 6 -32 3 -23 -4 -25 -2 -19 17 4 13 2 21 -5 21 -7 0 -14 -9 -17 -19z m107
-161 c0 -18 -7 -20 -60 -20 -53 0 -60 2 -60 20 0 18 7 20 60 20 53 0 60 -2 60
-20z m0 -50 c0 -18 -7 -20 -60 -20 -53 0 -60 2 -60 20 0 18 7 20 60 20 53 0
60 -2 60 -20z"/>
<path d="M13244 6665 c-4 -8 -17 -15 -30 -15 -13 0 -24 -4 -24 -9 0 -5 -3 -17
-7 -27 -5 -13 0 -11 17 6 15 15 25 19 28 12 4 -14 -36 -82 -49 -82 -5 0 -9 -5
-9 -11 0 -8 5 -8 15 1 13 11 15 3 15 -58 0 -66 10 -96 25 -72 3 5 33 10 66 10
36 0 58 4 54 10 -3 5 -20 7 -36 3 -27 -5 -31 -3 -27 13 2 12 13 20 31 22 15 2
25 8 22 13 -4 5 -17 6 -31 3 -20 -5 -24 -2 -24 15 0 17 6 21 31 21 16 0 28 4
25 9 -3 4 -17 6 -31 3 -18 -3 -25 0 -25 11 0 10 11 17 33 19 17 2 30 8 27 13
-3 6 -14 9 -25 7 -11 -1 -28 7 -38 20 l-18 23 6 -22 c5 -19 2 -23 -18 -23 -23
0 -24 2 -14 25 7 14 17 25 22 26 57 5 65 4 61 -8 -7 -16 6 -17 22 -1 21 21 13
28 -34 28 -37 0 -45 3 -40 15 3 8 1 15 -5 15 -5 0 -12 -7 -15 -15z m24 -117
c3 -13 -3 -18 -22 -18 -20 0 -26 5 -26 21 0 15 5 20 22 17 13 -2 24 -11 26
-20z m2 -48 c0 -15 -7 -20 -25 -20 -18 0 -25 5 -25 20 0 15 7 20 25 20 18 0
25 -5 25 -20z m-2 -52 c3 -13 -3 -18 -22 -18 -20 0 -26 5 -26 21 0 15 5 20 22
17 13 -2 24 -11 26 -20z"/>
<path d="M3940 6655 c0 -12 -14 -15 -65 -15 -36 0 -65 -4 -65 -8 0 -5 27 -6
60 -4 51 4 60 2 60 -12 0 -22 -27 -31 -45 -16 -13 11 -15 0 -15 -88 l0 -101
-37 -4 c-21 -2 26 -4 105 -5 83 -1 142 2 142 7 0 15 -18 23 -25 11 -17 -28
-25 -1 -25 92 0 79 -3 99 -12 90 -14 -14 -78 -16 -78 -3 0 11 25 32 36 30 28
-5 104 2 100 9 -3 5 -31 7 -62 4 -50 -4 -56 -3 -51 12 4 10 1 16 -8 16 -8 0
-15 -7 -15 -15z m70 -90 c0 -12 -13 -15 -60 -15 -47 0 -60 3 -60 15 0 12 13
15 60 15 47 0 60 -3 60 -15z m0 -45 c0 -18 -7 -20 -60 -20 -53 0 -60 2 -60 20
0 18 7 20 60 20 53 0 60 -2 60 -20z m0 -45 c0 -9 -10 -15 -27 -16 -16 -1 -43
-2 -60 -4 -27 -2 -33 1 -33 16 0 17 8 19 60 19 47 0 60 -3 60 -15z m0 -50 c0
-12 -13 -15 -60 -15 -47 0 -60 3 -60 15 0 12 13 15 60 15 47 0 60 -3 60 -15z"/>
<path d="M4176 6620 c-28 -53 -27 -74 2 -63 16 7 16 5 -1 -17 -39 -56 -35 -70
13 -45 27 14 34 15 41 3 10 -16 12 2 3 26 -7 19 -25 22 -21 4 1 -7 -8 -14 -21
-16 -22 -3 -21 -1 12 43 36 47 44 65 27 65 -5 0 -11 -9 -14 -20 -3 -12 -14
-20 -26 -20 -19 0 -20 3 -10 23 6 12 18 29 26 39 8 9 10 18 5 22 -6 3 -22 -17
-36 -44z"/>
<path d="M4317 6651 c-3 -14 -11 -18 -26 -14 -20 5 -21 1 -21 -51 0 -54 1 -56
24 -50 16 4 25 1 29 -10 6 -15 -13 -22 -50 -17 -7 1 -13 -3 -13 -9 0 -5 7 -10
15 -10 22 0 18 -18 -11 -47 -14 -14 -23 -27 -20 -30 5 -6 42 31 67 68 16 23
16 23 14 -16 -2 -32 -7 -41 -26 -46 -16 -5 -18 -7 -6 -8 9 -1 17 -5 17 -11 0
-5 7 -7 15 -4 10 4 15 20 15 51 l0 46 26 -39 c15 -21 27 -40 29 -42 1 -1 10 0
19 4 14 5 12 10 -13 25 -38 23 -39 41 -6 59 17 9 22 17 15 24 -5 5 -10 34 -10
64 l0 54 -32 -4 c-26 -2 -33 1 -32 15 2 23 -12 22 -19 -2z m63 -41 c0 -5 -6
-11 -12 -11 -7 -1 -28 -3 -45 -5 -24 -3 -33 0 -33 11 0 11 12 15 45 15 25 0
45 -4 45 -10z m0 -45 c0 -11 -12 -15 -45 -15 -33 0 -45 4 -45 15 0 11 12 15
45 15 33 0 45 -4 45 -15z m7 -41 c6 -17 -29 -27 -39 -12 -4 7 -8 17 -8 21 0
12 43 4 47 -9z"/>
<path d="M5296 6644 c-5 -17 -12 -24 -21 -20 -13 4 -15 -12 -15 -99 0 -63 4
-105 10 -105 6 0 10 5 10 10 0 6 14 10 30 10 17 0 30 -4 30 -10 0 -5 5 -10 10
-10 6 0 10 40 10 101 0 98 -1 100 -22 99 -37 -3 -39 -1 -22 25 14 22 14 25 1
25 -8 0 -18 -12 -21 -26z m44 -74 c0 -27 -3 -30 -30 -30 -27 0 -30 3 -30 30 0
27 3 30 30 30 27 0 30 -3 30 -30z m0 -80 c0 -38 -2 -40 -30 -40 -28 0 -30 2
-30 40 0 38 2 40 30 40 28 0 30 -2 30 -40z"/>
<path d="M5400 6650 c0 -11 -7 -37 -15 -57 -8 -20 -13 -38 -11 -41 3 -2 12 12
20 32 14 34 17 36 60 34 l46 -2 -1 -71 c-1 -105 -8 -120 -50 -118 -32 1 -33 1
-14 -13 30 -22 57 -14 66 20 5 16 11 62 14 104 3 41 8 79 11 84 3 4 -22 8 -56
8 -58 0 -60 1 -50 20 9 16 8 20 -5 20 -8 0 -15 -9 -15 -20z"/>
<path d="M5708 6659 c26 -28 14 -37 -48 -34 -33 2 -60 0 -60 -6 0 -5 23 -9 51
-9 l51 0 -4 -55 c-5 -62 -26 -97 -78 -132 -18 -13 -26 -23 -18 -23 26 0 89 64
103 105 12 38 15 40 60 43 l47 3 -7 -58 c-9 -73 -11 -76 -46 -69 -34 6 -40 -9
-6 -18 52 -14 60 -2 70 99 l6 60 -54 -3 c-53 -4 -55 -3 -55 22 0 26 1 26 70
26 39 0 70 4 70 9 0 14 -18 23 -24 13 -3 -4 -24 -9 -48 -10 -36 -2 -45 1 -53
20 -5 12 -17 24 -25 26 -12 4 -13 2 -2 -9z"/>
<path d="M5960 6654 c-29 -11 -31 -13 -11 -13 22 -1 23 -4 17 -42 -5 -34 -18
-68 -44 -123 -3 -5 1 -5 7 -1 7 4 17 19 24 33 10 25 12 20 17 -48 7 -78 14
-42 11 49 -2 45 -2 45 19 26 11 -10 20 -14 20 -8 0 5 -9 18 -20 28 -18 16 -19
20 -5 27 8 5 20 6 25 3 6 -3 10 -1 10 6 0 6 -8 9 -20 6 -30 -8 -31 38 -2 60
23 17 0 16 -48 -3z"/>
<path d="M6420 6660 c-13 -8 -13 -10 2 -10 10 0 20 -10 24 -25 7 -29 58 -75
82 -74 13 0 11 4 -8 17 -39 27 -70 63 -70 83 0 21 -8 23 -30 9z"/>
<path d="M6620 6606 c0 -53 1 -57 17 -45 15 13 16 9 10 -43 -3 -35 -14 -70
-27 -88 -13 -18 -16 -28 -8 -25 14 6 42 54 53 93 4 15 14 22 31 22 24 0 25 -3
22 -47 -3 -42 -6 -48 -25 -47 -29 1 -30 -13 -1 -22 29 -9 48 18 48 67 0 21 3
45 6 54 5 11 2 16 -7 15 -38 -6 -69 1 -69 15 0 11 11 15 38 15 l37 0 0 46 -1
46 -62 2 -62 1 0 -59z m100 9 c0 -34 -1 -35 -40 -35 -39 0 -40 1 -40 35 0 34
1 35 40 35 39 0 40 -1 40 -35z"/>
<path d="M6840 6545 l0 -125 -27 -1 -28 0 24 -10 c46 -18 50 -9 53 130 2 100
0 131 -9 131 -10 0 -13 -32 -13 -125z"/>
<path d="M6980 6662 c0 -6 5 -14 10 -17 17 -10 0 -26 -21 -20 -11 4 -19 2 -19
-4 0 -6 16 -11 36 -11 35 0 35 -1 29 -32 -9 -41 -30 -83 -62 -125 -13 -18 -20
-33 -16 -33 4 1 22 20 40 44 l32 44 85 0 c78 1 86 -1 86 -18 0 -42 -19 -70
-47 -71 -27 0 -27 -1 -6 -11 33 -16 51 -4 59 39 4 21 11 46 16 56 7 14 4 17
-17 17 -23 0 -26 4 -23 27 2 22 -1 28 -17 28 -11 0 -19 6 -17 13 1 6 3 18 5
25 1 8 -12 12 -45 10 -46 -1 -48 0 -42 23 4 15 2 24 -5 24 -6 0 -11 -9 -11
-19 0 -11 -4 -23 -10 -26 -5 -3 -10 0 -10 8 0 8 -7 20 -15 27 -9 8 -15 9 -15
2z m133 -72 c-4 -15 -14 -20 -39 -20 -18 0 -36 5 -39 10 -11 18 6 30 45 30 33
0 37 -3 33 -20z m27 -50 c0 -18 -7 -20 -64 -20 -59 0 -64 2 -59 20 5 17 14 20
64 20 52 0 59 -2 59 -20z"/>
<path d="M11643 6659 c-6 -6 -55 -9 -127 -7 -69 2 -115 -1 -113 -6 2 -6 29 -9
60 -7 l57 2 0 -125 c0 -149 18 -173 22 -30 l3 96 42 -31 c24 -17 46 -31 49
-31 15 0 -30 40 -62 55 -25 12 -34 22 -34 40 0 23 3 24 72 27 58 2 68 5 56 15
-10 9 -18 9 -25 2z"/>
<path d="M11865 6660 c-4 -7 -31 -10 -66 -9 -32 1 -62 -1 -66 -4 -3 -4 8 -7
25 -7 18 0 32 -4 32 -9 0 -16 -32 -86 -48 -103 -10 -12 -11 -18 -3 -18 6 0 14
7 17 15 9 22 20 18 44 -14 l20 -30 -39 -40 c-45 -46 -39 -55 9 -14 29 24 75
109 82 151 2 13 -4 16 -35 13 -35 -2 -38 -1 -35 21 3 20 10 24 52 28 42 4 47
7 34 18 -12 9 -18 10 -23 2z m-19 -102 c-3 -13 -6 -29 -6 -35 0 -18 -11 -16
-39 7 -30 26 -21 50 20 50 28 0 31 -3 25 -22z"/>
<path d="M11975 6548 l0 -123 -30 -5 -30 -6 30 -6 c17 -4 33 -3 37 1 4 3 10
60 14 126 3 66 8 123 10 127 3 5 -3 8 -13 8 -16 0 -18 -11 -18 -122z"/>
<path d="M12111 6625 c-7 -25 -22 -56 -33 -70 -11 -14 -14 -25 -8 -25 6 0 13
7 16 15 13 33 19 11 18 -65 -1 -44 3 -83 7 -86 5 -3 9 46 9 108 0 79 4 121 14
141 11 20 12 27 3 27 -7 0 -19 -20 -26 -45z"/>
<path d="M12975 6660 c-3 -6 -53 -11 -118 -12 -70 -1 -89 -3 -49 -5 l62 -4 0
-104 0 -105 -31 0 -30 0 2 77 c1 51 -2 78 -9 81 -9 3 -12 -20 -12 -77 l0 -80
-32 -4 c-18 -2 31 -5 110 -5 83 -1 142 2 142 7 0 15 -18 23 -25 11 -3 -5 -26
-10 -51 -10 l-44 0 0 55 0 55 45 0 c25 0 45 4 45 9 0 15 -18 23 -25 11 -3 -5
-19 -10 -36 -10 -28 0 -29 2 -29 45 l0 44 62 3 c52 3 59 5 46 16 -11 9 -18 10
-23 2z"/>
<path d="M13498 6659 c-19 -11 -25 -69 -8 -69 6 0 10 13 10 29 0 34 27 48 60
31 27 -14 25 -44 -5 -84 -14 -18 -25 -44 -25 -57 1 -23 2 -22 14 6 7 17 23 39
35 49 58 52 -13 135 -81 95z"/>
<path d="M1530 6625 l0 -34 -50 2 -50 2 0 -61 0 -61 50 5 50 5 0 -57 c0 -31 5
-56 10 -56 6 0 10 25 10 54 l0 55 51 3 52 3 0 55 0 55 -53 -4 -53 -3 5 31 c3
19 0 32 -9 35 -9 4 -13 -5 -13 -29z m0 -88 l0 -43 -40 4 c-39 4 -40 5 -40 43
0 39 0 39 40 39 l40 0 0 -43z m105 3 l0 -40 -42 0 -43 0 0 40 0 40 43 0 42 0
0 -40z"/>
<path d="M2242 6644 c-6 -12 -24 -16 -71 -15 -34 0 -59 -4 -56 -9 3 -5 30 -8
61 -6 46 3 54 1 52 -13 -2 -10 -14 -16 -31 -16 l-27 1 0 -93 0 -93 -32 -1 -33
-1 35 -7 c51 -9 240 -1 240 10 0 5 -12 8 -27 7 l-28 -3 3 92 3 91 -42 -5 c-36
-5 -41 -4 -37 13 3 15 13 19 48 21 25 1 54 2 64 2 11 1 16 4 13 8 -4 4 -33 5
-64 4 -47 -2 -55 0 -50 13 8 21 -9 21 -21 0z m68 -89 c0 -12 -13 -15 -60 -15
-47 0 -60 3 -60 15 0 12 13 15 60 15 47 0 60 -3 60 -15z m0 -46 c0 -16 -8 -19
-60 -19 -52 0 -60 3 -60 18 0 16 8 19 60 19 52 0 60 -2 60 -18z m0 -44 c0 -11
-12 -15 -47 -16 -76 -2 -90 2 -78 20 3 6 33 11 66 11 46 0 59 -3 59 -15z m0
-50 c0 -12 -13 -15 -60 -15 -47 0 -60 3 -60 15 0 12 13 15 60 15 47 0 60 -3
60 -15z"/>
<path d="M2615 6641 c-4 -13 -12 -17 -25 -14 -18 5 -20 0 -20 -49 0 -53 1 -55
25 -50 20 3 25 0 25 -15 0 -16 -6 -19 -30 -18 -16 1 -30 -2 -30 -7 0 -4 7 -8
15 -8 22 0 19 -14 -11 -49 -14 -17 -21 -31 -15 -31 6 0 23 18 37 40 15 22 28
40 30 40 2 0 4 -15 4 -34 0 -27 -4 -35 -20 -38 -21 -3 -21 -3 -1 -15 17 -11
22 -10 31 7 6 11 11 45 12 75 1 46 5 55 20 55 22 0 24 -23 3 -40 -8 -7 -15
-18 -15 -24 0 -18 47 -72 56 -63 4 4 -5 20 -20 36 l-27 28 31 20 c25 16 28 21
16 26 -12 5 -16 20 -16 63 l0 57 -31 -7 c-27 -5 -30 -4 -24 14 4 11 2 20 -4
20 -5 0 -12 -9 -16 -19z m65 -40 c0 -11 -39 -21 -65 -16 -11 2 -23 4 -27 4 -5
1 -8 6 -8 11 0 6 23 10 50 10 28 0 50 -4 50 -9z m-10 -46 c0 -11 -11 -15 -40
-15 -29 0 -40 4 -40 15 0 11 11 15 40 15 29 0 40 -4 40 -15z"/>
<path d="M3575 6650 c-44 -4 -71 -7 -59 -8 11 -1 23 -4 25 -7 3 -2 2 -38 -2
-79 -7 -75 -28 -121 -69 -153 -8 -7 -10 -13 -4 -13 19 0 55 47 79 106 l23 57
16 -34 c9 -19 21 -42 28 -51 15 -21 -4 -39 -67 -62 -22 -8 -32 -15 -22 -15 10
-1 39 10 66 23 l48 25 48 -24 c26 -14 52 -22 56 -19 15 9 1 22 -30 29 -51 11
-55 27 -21 84 34 59 35 61 16 61 -7 0 -16 -13 -19 -28 -3 -16 -15 -39 -25 -52
-17 -21 -22 -22 -36 -11 -8 7 -22 26 -30 42 l-14 29 49 0 c28 0 49 5 49 11 0
5 -5 7 -12 3 -8 -5 -9 2 -4 27 16 72 23 68 -89 59z m74 -32 c-1 -41 -12 -53
-49 -53 -29 0 -36 4 -38 23 -6 41 5 52 48 52 35 0 40 -3 39 -22z"/>
<path d="M6051 6603 c0 -32 3 -52 6 -45 3 8 26 12 67 12 l62 0 -1 45 0 45 -67
0 -68 0 1 -57z m109 7 c0 -29 -1 -30 -50 -30 -49 0 -50 1 -50 30 0 29 1 30 50
30 49 0 50 -1 50 -30z"/>
<path d="M6331 6633 c-7 -15 -26 -45 -43 -67 -17 -23 -24 -34 -15 -26 25 23
87 14 87 -12 0 -34 -29 -82 -63 -105 -17 -13 -25 -23 -18 -23 8 0 34 20 58 45
31 33 43 54 43 75 0 28 2 30 39 30 45 0 53 -13 45 -68 -8 -61 -11 -64 -46 -57
l-33 6 28 -16 c40 -23 55 -13 62 42 3 26 8 60 10 76 l5 27 -96 0 -96 0 26 33
c15 17 31 37 36 44 14 16 13 23 -3 23 -8 0 -19 -12 -26 -27z"/>
<path d="M9095 6650 c-73 -6 -86 -10 -45 -14 39 -3 13 -157 -36 -209 -14 -16
-24 -30 -21 -33 10 -11 65 66 78 110 7 25 16 46 19 46 6 0 52 -102 48 -105 -2
-2 -19 -12 -38 -24 -19 -11 -30 -21 -25 -21 6 0 25 9 43 20 l34 21 50 -25 c28
-14 55 -23 61 -19 6 3 -13 17 -42 29 l-52 23 18 28 c9 15 25 39 35 52 25 33
23 41 -13 41 -33 0 -33 1 -17 69 4 18 -3 18 -97 11z m75 -22 c0 -30 -13 -58
-27 -58 -8 0 -12 -4 -9 -8 3 -5 21 -7 41 -6 33 3 36 1 29 -19 -9 -30 -34 -67
-45 -67 -12 0 -49 61 -49 81 0 9 -6 19 -14 22 -12 5 -16 45 -7 65 0 1 19 2 41
2 25 0 40 -5 40 -12z"/>
<path d="M12225 6650 l-90 -6 80 -4 80 -5 0 -105 0 -105 -35 3 c-24 3 -32 0
-25 -7 6 -5 24 -11 40 -13 l30 -3 3 114 c2 102 4 114 22 118 21 6 18 24 -3 21
-7 -1 -52 -4 -102 -8z"/>
<path d="M13075 6650 c-3 -5 3 -10 14 -10 26 0 26 -16 0 -81 -17 -44 -17 -50
-4 -39 15 13 17 10 15 -26 -3 -57 -1 -78 6 -71 4 4 8 42 9 84 3 140 1 133 35
133 17 0 30 5 30 10 0 6 -22 10 -49 10 -28 0 -53 -4 -56 -10z"/>
<path d="M1094 6641 c-9 -9 -4 -260 6 -266 6 -3 10 -1 10 4 0 7 38 11 105 11
67 0 105 -4 105 -11 0 -5 5 -7 10 -4 6 4 10 61 10 138 l0 132 -121 0 c-66 0
-123 -2 -125 -4z m66 -50 c0 -28 3 -33 20 -28 11 3 23 1 26 -4 3 -5 -16 -9
-42 -9 -26 0 -45 -2 -42 -5 5 -5 87 -8 157 -6 19 1 31 4 27 8 -4 4 -26 6 -49
6 -32 -2 -36 0 -17 5 17 5 26 16 28 32 3 24 1 25 -48 22 -27 -2 -50 0 -50 5 0
6 34 10 75 11 l75 1 0 -114 0 -115 -86 0 c-58 0 -83 3 -79 11 4 6 33 9 69 8
l61 -3 3 55 3 54 -76 -3 -75 -4 0 -59 c0 -46 -3 -59 -15 -59 -12 0 -15 19 -15
114 l0 114 25 -2 c21 -1 25 -6 25 -35z m90 -1 c0 -5 -16 -10 -35 -10 -19 0
-35 5 -35 10 0 6 16 10 35 10 19 0 35 -4 35 -10z m20 -118 l0 -39 -55 -2 -55
-2 0 41 0 40 55 0 55 0 0 -38z"/>
<path d="M1180 6472 c0 -28 2 -29 37 -23 27 5 37 11 39 29 4 20 0 22 -36 22
-37 0 -40 -2 -40 -28z m55 -2 c4 -6 -5 -10 -19 -10 -14 0 -26 5 -26 10 0 6 9
10 19 10 11 0 23 -4 26 -10z"/>
<path d="M2472 6605 c-28 -57 -28 -68 -1 -60 18 6 19 5 10 -13 -6 -12 -16 -24
-21 -27 -6 -3 -10 -13 -10 -21 0 -11 6 -13 23 -8 12 4 33 9 47 10 14 1 26 3
28 3 1 1 -2 10 -8 21 -12 22 -32 27 -27 8 1 -7 -9 -14 -22 -16 -24 -4 -23 -2
13 42 20 25 34 51 30 57 -4 7 -11 2 -18 -13 -13 -25 -46 -37 -46 -16 0 7 9 24
20 38 21 27 25 40 12 40 -4 0 -18 -20 -30 -45z"/>
<path d="M4750 6638 c0 -4 4 -8 9 -8 11 0 -34 -157 -50 -176 -10 -12 0 -14 55
-14 62 0 67 2 76 26 14 36 12 39 -7 15 -10 -11 -33 -24 -50 -27 -28 -6 -33 -4
-33 12 0 27 36 143 50 158 8 11 4 15 -20 18 -16 3 -30 1 -30 -4z"/>
<path d="M11917 6592 c-6 -69 -4 -118 5 -127 3 -4 8 34 10 85 3 102 -7 132
-15 42z"/>
<path d="M6785 6560 c0 -44 3 -80 8 -80 4 0 7 33 7 74 0 50 4 76 13 79 6 3 3
6 -8 6 -18 1 -20 -5 -20 -79z"/>
<path d="M227 6612 c-24 -26 -21 -46 3 -22 26 26 36 25 55 -4 15 -22 15 -28 2
-53 -9 -15 -29 -43 -46 -62 -17 -19 -31 -38 -31 -43 0 -4 24 -8 54 -8 48 0 66
9 66 33 0 1 -20 1 -45 -1 l-45 -4 31 33 c50 53 62 104 33 133 -21 21 -57 20
-77 -2z"/>
<path d="M386 6614 c-22 -21 -21 -22 17 -20 26 1 33 -3 35 -21 2 -13 -5 -27
-20 -37 -18 -13 -19 -16 -5 -16 21 0 42 -42 33 -65 -4 -12 -16 -16 -43 -13
-43 3 -53 -15 -11 -20 41 -5 66 14 74 54 5 26 2 40 -10 53 -12 13 -14 21 -7
26 15 8 14 48 -1 63 -17 17 -44 15 -62 -4z"/>
<path d="M3048 6622 c9 -6 6 -27 -13 -92 -14 -46 -31 -87 -38 -92 -6 -4 19 -8
56 -8 61 0 68 2 76 23 12 30 7 33 -18 8 -22 -22 -56 -28 -66 -11 -10 16 34
153 53 168 13 10 10 12 -24 12 -23 0 -34 -4 -26 -8z"/>
<path d="M7750 6572 c0 -38 0 -38 -35 -34 -21 3 -35 0 -35 -7 0 -6 16 -11 35
-11 33 0 35 -2 35 -34 0 -19 5 -38 10 -41 6 -4 10 10 10 34 0 40 0 41 37 41
32 0 40 13 10 16 -7 0 -20 2 -29 2 -14 2 -18 11 -18 37 0 19 -4 35 -10 35 -5
0 -10 -17 -10 -38z"/>
<path d="M5920 6590 c0 -5 5 -10 10 -10 6 0 10 5 10 10 0 6 -4 10 -10 10 -5 0
-10 -4 -10 -10z"/>
<path d="M9809 6565 c-4 -37 -7 -41 -39 -46 l-35 -6 38 -2 c37 -1 37 -1 37
-43 0 -48 14 -44 14 5 1 30 4 32 41 38 46 7 45 10 -5 12 -33 2 -35 4 -41 42
l-5 40 -5 -40z"/>
<path d="M7490 6580 c0 -5 6 -10 14 -10 8 0 17 -14 21 -30 8 -37 -17 -83 -40
-74 -9 4 -15 0 -15 -10 0 -29 37 -11 58 29 11 19 12 17 16 -17 2 -20 43 -21
50 -2 5 14 4 15 -8 5 -16 -13 -20 -9 -30 32 -8 33 7 57 35 57 11 0 19 7 19 15
0 21 -16 19 -40 -5 -11 -11 -22 -20 -24 -20 -2 0 -6 9 -9 20 -5 20 -47 29 -47
10z"/>
<path d="M7920 6580 c0 -5 7 -10 14 -10 13 0 13 -5 2 -32 -37 -90 -26 -131 12
-45 21 46 62 90 62 66 0 -8 -7 -35 -15 -61 -18 -60 -3 -72 20 -16 15 38 62 94
71 85 2 -2 -4 -29 -13 -60 -9 -32 -13 -61 -9 -64 9 -9 39 10 44 28 3 11 1 11
-7 -1 -14 -20 -14 -2 1 55 16 61 2 75 -41 40 l-31 -27 0 26 c0 32 -9 33 -45 4
l-27 -21 6 21 c6 19 3 22 -18 22 -14 0 -26 -4 -26 -10z"/>
<path d="M8156 6581 c-19 -7 -19 -8 1 -13 18 -5 22 -15 25 -64 4 -65 -12 -104
-43 -104 -11 0 -19 -7 -19 -15 0 -8 4 -15 8 -15 10 0 79 72 120 126 32 42 44
100 20 91 -7 -2 -12 -14 -10 -26 3 -19 -35 -97 -44 -88 -2 2 -6 25 -9 52 -9
68 -11 71 -49 56z"/>
<path d="M8631 6583 c-18 -4 -21 -7 -11 -13 11 -7 11 -18 -2 -64 -18 -65 -6
-85 17 -30 18 43 77 104 83 86 2 -7 -3 -33 -12 -59 -9 -26 -16 -50 -16 -55 0
-14 27 -9 41 9 10 11 10 14 2 9 -17 -9 -16 8 2 59 24 66 -12 81 -63 26 l-23
-26 6 33 c4 17 5 31 3 31 -2 -1 -14 -4 -27 -6z"/>
<path d="M12169 6588 c0 -2 -3 -27 -5 -57 -5 -47 -3 -53 11 -47 9 3 29 6 45 6
27 0 28 3 32 50 l3 50 -42 0 c-24 0 -43 -1 -44 -2z m65 -48 c0 -31 -4 -35 -27
-38 -25 -3 -27 0 -27 31 0 40 7 49 34 45 15 -2 20 -11 20 -38z"/>
<path d="M10041 6571 c-8 -5 -9 -10 -3 -12 13 -5 -32 -169 -49 -180 -6 -4 -3
-8 9 -11 27 -8 37 2 37 36 0 25 4 29 35 31 47 4 80 43 80 96 0 44 -16 57 -49
39 -14 -7 -21 -7 -21 0 0 12 -20 13 -39 1z m89 -36 c0 -37 -26 -82 -51 -90
-32 -10 -39 5 -24 50 22 62 75 90 75 40z"/>
<path d="M10192 6571 c-10 -6 -9 -10 7 -14 18 -4 21 -13 21 -68 0 -66 -18
-103 -46 -92 -8 3 -14 -1 -14 -11 0 -27 19 -18 66 30 77 79 115 164 73 164 -7
0 -9 -9 -5 -25 5 -18 -1 -36 -18 -61 l-24 -36 -7 48 c-10 78 -18 87 -53 65z"/>
<path d="M10671 6544 c-31 -34 -37 -57 -25 -88 7 -18 49 -22 59 -6 3 6 10 10
15 10 12 0 -12 -63 -30 -77 -13 -10 -10 -12 17 -13 23 0 31 4 27 14 -4 11 24
134 40 176 5 13 -2 16 -33 17 -34 2 -44 -3 -70 -33z m69 -2 c0 -31 -22 -67
-51 -82 -17 -10 -19 -7 -19 25 0 25 8 44 25 60 32 32 45 31 45 -3z"/>
<path d="M9570 6550 c11 -11 20 -27 20 -35 0 -24 -30 -65 -48 -65 -13 0 -13
-3 -4 -12 10 -10 18 -6 37 17 15 19 24 25 25 15 0 -8 4 -21 9 -28 7 -12 12
-12 30 -1 11 8 21 18 21 23 0 4 -7 3 -15 -4 -12 -10 -16 -7 -25 16 -14 35 2
76 26 72 10 -2 19 3 21 10 7 18 -23 15 -42 -5 -16 -16 -18 -16 -27 0 -5 9 -18
17 -28 17 -20 0 -20 0 0 -20z"/>
<path d="M11067 6558 c-23 -12 -21 -45 3 -53 27 -8 40 1 40 30 0 27 -19 37
-43 23z m31 -25 c-2 -10 -10 -18 -18 -18 -8 0 -16 8 -18 18 -2 12 3 17 18 17
15 0 20 -5 18 -17z"/>
<path d="M13140 6560 c-11 -7 -12 -10 -2 -10 10 0 13 -15 11 -57 -2 -32 1 -58
6 -58 7 0 8 125 1 132 -1 1 -8 -2 -16 -7z"/>
<path d="M1869 6560 c-8 -25 -4 -80 5 -77 15 5 20 57 7 70 -6 6 -12 9 -12 7z"/>
<path d="M5427 6528 c18 -38 33 -49 33 -25 0 8 -12 24 -26 38 l-26 24 19 -37z"/>
<path d="M8363 6553 c7 -7 159 -4 166 3 2 2 -35 4 -84 4 -49 0 -85 -3 -82 -7z"/>
<path d="M10407 6548 c-7 -4 23 -8 65 -8 42 0 79 3 81 8 6 9 -131 9 -146 0z"/>
<path d="M6090 6535 c-53 -13 -59 -19 -12 -15 16 1 22 -4 22 -19 0 -18 -6 -21
-37 -21 -24 0 -33 -3 -25 -9 7 -4 24 -6 38 -3 21 4 24 1 24 -24 0 -28 -1 -29
-46 -25 -32 2 -44 0 -40 -8 7 -11 42 -12 134 -4 30 3 51 8 47 11 -3 4 -22 5
-41 3 -31 -2 -34 0 -34 23 0 23 4 26 37 26 20 0 33 3 29 8 -4 4 -20 7 -34 7
-20 0 -27 5 -27 20 0 12 8 21 20 23 11 2 24 8 30 13 12 12 -15 10 -85 -6z"/>
<path d="M4897 6503 c-14 -13 -6 -20 18 -15 40 7 43 -23 6 -74 -17 -25 -31
-47 -31 -50 0 -10 73 1 77 12 2 7 -8 9 -29 6 l-33 -5 21 24 c33 37 43 62 33
87 -8 21 -47 31 -62 15z"/>
<path d="M8364 6498 c-6 -10 -10 -9 61 -12 33 -1 71 1 85 5 19 5 11 8 -30 9
-30 1 -68 3 -83 4 -16 1 -31 -2 -33 -6z"/>
<path d="M3175 6425 c0 -66 2 -75 19 -75 12 0 16 5 12 16 -3 9 -6 42 -6 75 0
40 -4 59 -12 59 -9 0 -13 -22 -13 -75z"/>
<path d="M10400 6490 c0 -6 31 -10 74 -10 41 0 78 5 81 10 4 6 -23 10 -74 10
-47 0 -81 -4 -81 -10z"/>
<path d="M7137 6471 c3 -12 9 -21 14 -21 14 0 11 16 -5 29 -12 10 -13 8 -9 -8z"/>
<path d="M4230 6462 c6 -13 14 -21 18 -18 3 4 -2 14 -12 24 -18 16 -18 16 -6
-6z"/>
<path d="M6999 6453 c-7 -16 -15 -31 -17 -35 -2 -5 1 -8 6 -8 11 0 37 58 30
65 -3 3 -11 -7 -19 -22z"/>
<path d="M7040 6456 c0 -14 5 -28 10 -31 6 -3 10 5 10 19 0 14 -4 28 -10 31
-6 3 -10 -5 -10 -19z"/>
<path d="M7087 6460 c8 -29 25 -37 21 -9 -1 12 -8 24 -15 26 -7 3 -9 -3 -6
-17z"/>
<path d="M2520 6462 c0 -5 7 -15 15 -22 8 -7 15 -8 15 -2 0 5 -7 15 -15 22 -8
7 -15 8 -15 2z"/>
<path d="M4190 6463 c0 -5 7 -18 15 -29 12 -16 14 -16 15 -3 0 9 -7 22 -15 29
-8 7 -15 8 -15 3z"/>
<path d="M2494 6447 c3 -10 6 -23 6 -28 0 -5 5 -9 10 -9 14 0 12 13 -6 36 -14
17 -15 17 -10 1z"/>
<path d="M530 6436 c0 -8 5 -18 10 -21 6 -3 10 3 10 14 0 12 -4 21 -10 21 -5
0 -10 -6 -10 -14z"/>
<path d="M4160 6443 c0 -5 7 -18 15 -29 12 -16 14 -16 15 -3 0 9 -7 22 -15 29
-8 7 -15 8 -15 3z"/>
<path d="M13520 6434 c0 -9 5 -14 12 -12 18 6 21 28 4 28 -9 0 -16 -7 -16 -16z"/>
<path d="M2463 6415 c7 -14 15 -25 20 -25 10 0 9 8 -3 31 -16 28 -30 23 -17
-6z"/>
<path d="M1448 5761 c18 -11 18 -167 0 -189 -11 -13 -10 -15 12 -9 14 4 30 7
37 7 7 0 11 6 8 13 -2 6 -6 44 -10 83 -5 58 -3 75 10 88 15 15 13 16 -27 16
-27 0 -38 -3 -30 -9z"/>
<path d="M11212 5733 c23 -26 30 -113 12 -138 -8 -11 -22 -20 -31 -20 -9 0
-18 -6 -21 -13 -10 -32 35 -3 88 58 58 64 80 118 53 127 -9 3 -11 -4 -8 -24 4
-20 -2 -36 -20 -58 -22 -27 -25 -28 -26 -10 -1 11 -3 25 -4 30 -2 6 -3 22 -4
38 -1 22 -6 27 -28 27 -24 0 -25 -1 -11 -17z"/>
<path d="M11433 5728 c-5 -7 -29 -55 -53 -106 -30 -63 -40 -96 -33 -103 7 -7
15 4 27 35 10 25 26 62 36 83 l19 38 2 -120 c1 -66 3 -279 4 -472 l1 -353
-443 0 -443 0 0 21 c0 12 11 67 24 123 89 369 115 473 121 489 5 11 2 17 -8
17 -10 0 -20 -23 -31 -72 -10 -40 -37 -154 -61 -253 -24 -99 -51 -213 -61
-252 l-17 -73 -973 0 c-612 0 -974 -4 -974 -10 0 -5 15 -11 33 -14 17 -3 454
-4 969 -3 516 1 938 0 938 -3 0 -3 -13 -59 -29 -125 -16 -66 -36 -154 -46
-195 -18 -83 -100 -424 -115 -480 -5 -19 -21 -89 -35 -155 -15 -66 -33 -142
-41 -170 -7 -27 -23 -90 -34 -140 -28 -122 -41 -174 -104 -435 -100 -410 -164
-684 -177 -750 -16 -83 3 -63 -433 -443 -33 -29 -64 -57 -70 -62 -6 -6 -54
-46 -106 -90 -52 -44 -121 -105 -155 -135 -33 -31 -91 -83 -130 -115 -140
-121 -209 -195 -178 -195 4 0 50 42 103 93 97 94 169 158 301 268 41 34 97 82
125 108 28 25 77 69 109 96 73 62 248 216 255 224 12 14 139 121 143 121 4 0
-3 -40 -18 -100 -8 -30 -86 -349 -115 -470 -58 -243 -90 -388 -90 -411 0 -47
19 -2 40 96 12 55 28 125 35 155 7 30 24 105 38 165 39 170 77 327 87 360 5
17 21 79 34 139 14 60 29 112 34 115 23 15 242 205 377 327 39 34 81 73 95 84
14 12 43 38 65 58 101 90 135 121 195 172 35 30 89 78 120 105 31 28 85 75
120 105 35 30 71 62 80 70 9 8 58 53 110 100 52 47 115 104 140 126 25 23 61
55 80 70 19 16 52 46 74 66 22 20 41 36 42 35 1 -2 12 -2185 14 -2764 0 -44 4
-73 10 -73 8 0 10 440 8 1430 l-3 1430 68 0 c51 0 68 3 64 13 -2 7 -22 12 -50
11 -50 0 -58 7 -28 28 23 17 146 125 230 204 37 34 84 77 106 95 22 19 60 52
85 75 69 63 330 294 490 434 170 148 233 204 318 285 l64 60 434 1 c239 1 432
-2 429 -6 -3 -5 -37 -26 -75 -47 -39 -20 -70 -43 -70 -51 0 -17 -6 -19 113 51
54 33 96 64 94 70 -4 13 -55 41 -144 79 -94 40 -88 13 6 -30 45 -20 81 -39 81
-42 0 -5 -820 -4 -825 2 -2 2 50 49 114 106 200 176 274 248 270 260 -4 13
-16 4 -134 -107 -38 -37 -97 -89 -129 -116 -33 -28 -82 -70 -109 -95 -47 -43
-52 -45 -125 -50 -43 -3 -348 -7 -679 -8 l-603 -3 0 472 c0 260 2 470 4 468 3
-2 25 -39 49 -82 25 -44 48 -74 51 -68 6 9 -109 221 -119 221 -1 0 -7 -6 -12
-12z m1305 -1051 c-24 -21 -57 -50 -73 -65 -17 -15 -95 -86 -175 -157 -80 -72
-161 -143 -180 -159 -19 -16 -71 -61 -115 -101 -44 -39 -98 -87 -120 -106 -38
-32 -444 -397 -455 -409 -14 -15 -150 -131 -150 -128 0 2 -2 263 -4 580 l-4
578 367 2 c201 2 498 3 659 3 l292 0 -42 -38z m-1298 -557 l0 -590 -50 0 c-30
0 -50 -4 -50 -11 0 -7 15 -10 40 -7 22 2 40 1 40 -3 0 -3 -26 -28 -57 -55
-111 -96 -138 -119 -143 -125 -4 -5 -172 -155 -240 -214 -14 -12 -47 -43 -75
-67 -27 -25 -61 -54 -74 -64 -13 -10 -31 -26 -40 -34 -9 -8 -77 -69 -151 -135
-74 -65 -148 -131 -165 -146 -16 -14 -55 -48 -85 -74 -30 -26 -82 -73 -115
-104 -33 -31 -90 -81 -125 -111 -36 -30 -78 -67 -95 -82 -16 -14 -48 -42 -70
-61 -22 -20 -42 -34 -44 -32 -2 2 10 59 27 127 17 68 45 184 62 258 46 200 89
378 106 440 8 30 30 123 49 205 20 83 51 213 70 290 18 77 43 183 55 235 12
52 46 194 75 315 102 419 115 474 130 545 8 40 18 76 20 81 3 4 208 8 455 9
l450 0 0 -590z"/>
<path d="M11245 4583 c-65 -35 -94 -90 -80 -153 8 -37 37 -54 80 -46 47 9 81
40 100 91 22 55 14 90 -25 110 -35 18 -37 18 -75 -2z m75 -23 c23 -43 -18
-142 -66 -160 -53 -21 -82 26 -58 95 26 76 98 113 124 65z"/>
<path d="M11155 3646 c-12 -9 -15 -15 -7 -16 10 0 13 -22 10 -95 -2 -74 0 -96
11 -100 8 -3 14 -4 15 -3 1 2 -1 54 -4 116 -5 111 -5 113 -25 98z"/>
<path d="M10930 3520 c0 -6 33 -10 79 -10 44 0 83 5 86 10 4 6 -25 10 -79 10
-51 0 -86 -4 -86 -10z"/>
<path d="M2348 5687 c-38 -17 -68 -34 -68 -37 0 -5 84 -51 143 -78 4 -2 7 1 7
8 0 6 -25 22 -55 36 -30 14 -55 29 -55 33 0 4 23 18 51 31 28 13 53 28 55 32
8 13 -7 8 -78 -25z"/>
<path d="M2013 5698 c2 -7 -2 -35 -9 -63 -16 -60 -17 -65 -4 -65 5 0 15 18 21
40 7 21 23 50 37 62 l25 23 -7 -35 c-3 -19 -9 -47 -12 -62 -10 -45 9 -32 32
21 24 54 73 95 60 50 -24 -81 -17 -121 15 -82 12 14 12 16 0 8 -11 -6 -13 -4
-7 10 4 11 10 38 13 62 7 49 -10 58 -42 23 -21 -24 -37 -26 -29 -5 11 27 -27
30 -48 4 -20 -24 -20 -24 -15 -1 4 17 1 22 -15 22 -11 0 -18 -5 -15 -12z"/>
<path d="M2587 5690 c9 -32 -31 -170 -48 -170 -5 0 -9 -4 -9 -10 0 -5 17 -10
38 -9 20 0 31 3 25 6 -7 2 -13 18 -13 34 0 26 3 29 33 29 37 0 59 19 77 65 16
41 5 75 -23 75 -13 0 -28 -5 -35 -12 -9 -9 -12 -9 -12 0 0 7 -9 12 -19 12 -14
0 -18 -5 -14 -20z m93 -15 c0 -20 -29 -78 -44 -87 -22 -15 -36 -8 -36 18 0 28
16 65 34 76 19 13 46 9 46 -7z"/>
<path d="M1555 5590 c-7 -12 2 -30 16 -30 5 0 9 9 9 20 0 21 -15 27 -25 10z"/>
<path d="M1448 5328 c17 -17 16 -185 0 -191 -7 -3 7 -6 32 -6 32 -1 41 2 30 9
-11 7 -15 29 -15 87 0 43 4 86 9 96 7 15 3 17 -30 17 -30 0 -35 -3 -26 -12z"/>
<path d="M1553 5322 c23 -26 24 -154 1 -176 -14 -15 -12 -16 27 -16 39 0 41 1
27 18 -22 27 -24 148 -2 173 17 18 16 19 -26 19 -41 0 -42 -1 -27 -18z"/>
<path d="M2210 5275 c0 -4 65 -35 103 -48 28 -10 19 -21 -46 -51 -34 -15 -57
-30 -50 -33 16 -6 157 67 147 76 -13 11 -130 61 -143 61 -6 0 -11 -2 -11 -5z"/>
<path d="M2577 5272 c-4 -6 -15 -8 -25 -5 -14 6 -15 4 -4 -9 11 -13 10 -22 -2
-51 -14 -35 -47 -62 -60 -50 -14 14 -4 53 20 82 31 37 13 42 -20 6 -30 -32
-40 -69 -26 -95 14 -25 32 -25 55 0 10 11 20 19 22 17 7 -7 -20 -72 -35 -84
-13 -11 -10 -13 24 -13 25 0 34 3 26 9 -11 6 -8 25 13 95 24 80 30 128 12 98z"/>
<path d="M2007 5262 c10 -6 9 -19 -3 -57 -23 -77 -12 -86 24 -22 29 52 55 77
67 65 2 -2 -3 -27 -12 -56 -19 -60 -12 -76 20 -43 12 13 16 20 8 16 -11 -6
-13 -3 -7 16 19 66 19 89 0 89 -10 0 -29 -10 -42 -22 l-25 -23 6 23 c4 19 1
22 -21 22 -17 0 -22 -3 -15 -8z"/>
<path d="M1656 5145 c4 -8 10 -15 15 -15 5 0 9 7 9 15 0 8 -7 15 -15 15 -9 0
-12 -6 -9 -15z"/>
<path d="M1680 4891 c-23 -4 -31 -9 -22 -14 8 -6 12 -36 12 -93 0 -60 -4 -84
-12 -84 -8 0 -7 -4 3 -10 19 -11 67 -1 49 10 -19 12 -24 136 -6 170 8 17 14
29 13 29 -1 -1 -18 -4 -37 -8z"/>
<path d="M1450 4880 c15 -10 21 -99 9 -157 -7 -31 -5 -33 22 -33 27 0 29 2 18
21 -15 28 -5 159 13 170 8 6 -4 9 -32 9 -31 0 -41 -3 -30 -10z"/>
<path d="M1553 4879 c14 -8 17 -24 17 -87 0 -47 -5 -83 -12 -90 -9 -9 -3 -12
28 -12 31 1 36 3 22 11 -15 8 -18 24 -18 89 0 65 3 81 18 89 13 8 7 10 -28 10
-35 0 -41 -2 -27 -10z"/>
<path d="M3300 4825 c0 -33 -2 -35 -35 -35 -19 0 -35 -4 -35 -10 0 -5 16 -10
35 -10 33 0 35 -2 35 -36 0 -21 4 -33 10 -29 6 4 9 19 8 33 -3 24 1 27 30 30
17 2 32 7 32 12 0 5 -15 10 -32 12 -31 3 -33 5 -30 36 2 18 -1 32 -7 32 -6 0
-11 -16 -11 -35z"/>
<path d="M2271 4818 c-1 -36 -2 -38 -36 -38 -19 0 -35 -4 -35 -10 0 -5 16 -10
36 -10 33 0 35 -2 33 -27 -2 -16 1 -30 6 -33 6 -3 11 12 13 32 3 35 5 37 33
31 18 -3 29 -1 29 6 0 6 -13 11 -29 11 -25 0 -30 5 -39 38 l-10 37 -1 -37z"/>
<path d="M2803 4812 c-40 -20 -73 -39 -73 -42 0 -7 130 -70 143 -70 20 0 -9
22 -54 41 -27 12 -49 25 -49 30 0 5 25 20 55 34 30 13 55 29 55 34 0 14 8 16
-77 -27z"/>
<path d="M3051 4833 c-13 -3 -19 -8 -14 -11 15 -9 -28 -170 -47 -183 -11 -6
-7 -9 15 -9 27 0 30 3 30 33 0 23 4 31 14 29 30 -7 62 10 81 41 22 36 27 96 8
98 -20 2 -21 2 -47 -6 -16 -5 -21 -4 -17 4 4 6 6 10 4 10 -2 -1 -14 -4 -27 -6z
m79 -42 c0 -35 -35 -81 -62 -81 -18 0 -20 4 -15 38 10 62 77 100 77 43z"/>
<path d="M3498 4808 c-31 -33 -38 -87 -14 -107 10 -8 20 -6 42 11 24 19 27 20
21 4 -4 -10 -7 -24 -7 -32 0 -8 -9 -23 -20 -34 l-20 -20 34 0 c30 0 33 2 29
25 -3 13 4 55 16 94 12 38 21 73 21 78 0 4 -17 9 -37 10 -29 1 -42 -4 -65 -29z
m65 -12 c-3 -38 -29 -76 -53 -76 -27 0 -26 33 1 77 26 42 55 41 52 -1z"/>
<path d="M2007 4819 c8 -8 7 -25 -3 -62 -16 -61 -17 -67 -6 -67 5 0 14 16 22
35 14 36 66 93 76 83 3 -3 -2 -30 -10 -59 -19 -63 -19 -59 -2 -59 7 0 20 8 27
17 12 14 12 16 0 8 -11 -6 -13 -3 -8 16 4 13 10 41 13 62 6 31 4 37 -12 37
-10 0 -31 -12 -47 -27 l-28 -28 10 28 c10 25 9 27 -16 27 -20 0 -24 -3 -16
-11z"/>
<path d="M2458 4821 c11 -7 11 -17 -2 -61 -9 -30 -16 -58 -16 -63 0 -11 25 -3
26 9 4 43 54 118 69 102 3 -2 -2 -28 -11 -57 -8 -29 -12 -56 -8 -59 4 -4 9 -2
11 4 2 6 11 26 21 45 34 68 -2 123 -44 67 l-16 -23 5 23 c4 19 1 22 -21 22
-19 0 -23 -3 -14 -9z"/>
<path d="M2584 4809 c-19 -22 -19 -22 5 -9 27 14 26 22 5 -80 -7 -33 6 -40 26
-15 8 10 9 15 2 15 -7 0 -6 15 3 47 8 25 12 50 9 55 -9 14 -30 9 -50 -13z"/>
<path d="M1760 4706 c0 -8 5 -18 10 -21 6 -3 10 3 10 14 0 12 -4 21 -10 21 -5
0 -10 -6 -10 -14z"/>
<path d="M13662 4567 c9 -7 24 -39 33 -70 17 -59 23 -65 43 -45 16 16 15 29
-2 22 -8 -3 -16 4 -20 20 -8 33 2 56 25 56 10 0 19 7 19 15 0 21 -14 19 -36
-6 l-18 -20 -8 20 c-4 13 -16 21 -30 21 -21 -1 -21 -2 -6 -13z"/>
<path d="M13667 4479 c-10 -11 -22 -17 -27 -14 -6 3 -10 -1 -10 -9 0 -9 4 -16
8 -16 12 0 57 49 51 55 -3 2 -13 -5 -22 -16z"/>
<path d="M3244 4114 c-6 -24 -10 -25 -55 -21 -27 3 -49 1 -49 -4 0 -5 20 -9
45 -9 25 0 45 -4 45 -10 0 -5 -20 -31 -45 -57 -48 -50 -54 -75 -7 -30 16 15
32 27 36 27 9 0 -2 -93 -15 -127 -5 -13 -5 -23 0 -23 5 0 15 16 21 35 l12 35
64 0 c61 0 64 -1 64 -24 0 -19 -6 -25 -27 -28 l-28 -4 28 -8 c15 -5 29 -7 31
-5 2 2 6 45 9 94 l5 90 -75 -3 c-74 -4 -75 -4 -64 17 11 19 20 21 97 21 64 0
85 3 81 13 -2 6 -13 11 -23 10 -136 -16 -134 -16 -134 1 0 9 5 16 11 16 5 0 7
5 4 10 -11 18 -24 11 -31 -16z m114 -129 l0 -45 -64 0 c-57 0 -64 2 -64 20 0
17 7 20 58 22 l57 2 -57 3 c-50 3 -58 7 -58 23 0 18 7 20 63 20 l64 0 1 -45z"/>
<path d="M4000 4120 c-47 -3 -74 -7 -60 -10 23 -5 24 -9 22 -60 -4 -76 -19
-119 -55 -157 -17 -18 -26 -33 -21 -33 24 0 74 75 87 131 8 30 29 39 95 39 48
0 52 -9 22 -58 -24 -39 -37 -38 -69 9 -19 28 -22 30 -16 9 4 -14 14 -32 21
-41 8 -8 14 -20 14 -26 0 -10 -55 -40 -100 -56 -12 -4 -11 -6 3 -6 10 -1 40
10 67 24 l50 25 49 -25 c30 -15 52 -21 56 -15 3 6 -2 13 -12 16 -10 3 -33 12
-50 20 l-33 14 35 54 c19 30 35 58 35 61 0 3 -13 5 -30 5 -32 0 -37 11 -20 54
5 14 6 27 2 28 -4 2 -45 1 -92 -2z m70 -40 c0 -32 -4 -35 -57 -44 -33 -5 -33
-5 -33 34 l0 40 45 0 c43 0 45 -1 45 -30z"/>
<path d="M2850 4039 c0 -36 2 -68 4 -70 2 -2 46 -2 96 1 l92 5 1 66 2 67 -97
-2 -98 -1 0 -66z m172 39 c3 -7 3 -30 0 -50 -4 -33 -8 -38 -36 -43 -17 -2 -49
-4 -71 -2 l-40 2 -3 53 -3 52 74 0 c51 0 76 -4 79 -12z"/>
<path d="M3638 4102 c19 -13 21 -180 2 -192 -11 -7 -2 -10 30 -10 40 1 43 2
28 14 -15 11 -18 29 -18 94 0 67 3 83 18 91 13 8 7 10 -28 11 -26 0 -40 -4
-32 -8z"/>
<path d="M4393 4099 c24 -14 25 -166 1 -183 -13 -10 -11 -11 13 -10 54 2 56 3
40 19 -21 20 -21 150 0 170 13 13 9 15 -29 15 -34 -1 -39 -3 -25 -11z"/>
<path d="M4493 4103 c15 -4 17 -17 17 -94 0 -78 -2 -89 -17 -90 -10 -1 -3 -6
15 -12 24 -7 36 -7 44 1 9 9 9 12 0 12 -17 0 -17 176 1 183 6 3 -8 5 -33 5
-25 0 -37 -2 -27 -5z"/>
<path d="M2022 4084 c-5 -11 -22 -50 -37 -89 -15 -38 -34 -78 -43 -87 -14 -17
-13 -18 11 -18 19 0 25 4 21 14 -11 30 15 56 55 56 33 0 39 -4 43 -24 3 -14 0
-30 -5 -35 -8 -8 0 -11 26 -11 39 0 45 6 23 24 -7 6 -25 45 -40 86 -36 99 -41
108 -54 84z m19 -61 c14 -41 11 -48 -16 -50 -28 -2 -31 12 -13 52 14 32 17 31
29 -2z"/>
<path d="M2990 3954 c0 -6 14 -23 30 -39 17 -16 30 -35 30 -42 0 -7 5 -13 10
-13 12 0 13 21 2 35 -17 24 -72 68 -72 59z"/>
<path d="M2862 3904 c-44 -45 -42 -61 3 -22 29 25 59 68 48 67 -5 0 -27 -20
-51 -45z"/>
<path d="M2170 3905 c0 -8 5 -15 10 -15 6 0 10 7 10 15 0 8 -4 15 -10 15 -5 0
-10 -7 -10 -15z"/>
<path d="M3245 3360 c-5 -17 -15 -20 -57 -20 -28 0 -48 -3 -45 -7 4 -3 25 -6
47 -5 22 1 40 -2 40 -6 0 -12 -31 -54 -63 -85 -40 -39 -29 -44 12 -6 18 16 36
28 39 25 3 -3 0 -36 -6 -73 -6 -37 -9 -69 -7 -71 10 -10 27 57 27 106 l0 52
64 0 c49 0 64 -3 64 -14 0 -8 -10 -17 -22 -19 l-23 -4 23 -2 c15 -1 22 -7 22
-21 0 -14 -7 -20 -22 -21 l-23 0 23 -10 c34 -13 27 -55 -8 -52 l-25 3 25 -14
c14 -8 28 -12 32 -8 4 4 8 47 10 97 l3 89 -46 -3 c-25 -1 -55 -4 -65 -5 -28
-5 -35 3 -23 26 10 18 19 20 87 16 44 -2 79 1 82 7 3 6 -24 8 -72 6 -76 -3
-90 3 -66 27 9 9 8 12 -4 12 -9 0 -20 -9 -23 -20z"/>
<path d="M4003 3372 c-46 -2 -83 -7 -83 -12 0 -6 11 -10 25 -10 22 0 25 -4 25
-32 0 -55 -26 -134 -56 -174 -23 -30 -25 -35 -8 -24 27 17 42 42 64 104 l18
51 12 -30 c6 -16 20 -40 32 -52 l20 -21 -39 -25 c-22 -14 -48 -27 -59 -30 -18
-5 -18 -5 0 -6 11 0 39 11 63 25 39 22 47 24 61 12 19 -16 68 -38 82 -38 26 0
5 21 -31 31 -23 7 -43 18 -46 25 -2 6 10 35 26 63 17 29 31 54 31 57 0 3 -13
3 -30 -1 -34 -7 -38 3 -20 51 6 15 7 30 3 33 -4 3 -45 5 -90 3z m67 -47 c0
-28 -4 -36 -24 -41 -43 -10 -61 -1 -64 33 -3 29 -1 32 30 36 18 2 39 5 46 5 7
1 12 -11 12 -33z m40 -60 c0 -13 -41 -85 -48 -85 -10 0 -46 48 -55 73 -6 15 0
17 48 17 30 0 55 -2 55 -5z"/>
<path d="M2856 3282 c1 -40 4 -76 8 -79 3 -4 6 -1 6 5 0 8 28 12 88 12 l87 0
0 68 0 67 -95 0 -95 0 1 -73z m169 3 l0 -55 -78 0 -79 0 3 48 c1 26 4 50 5 53
2 3 36 7 76 7 l74 2 -1 -55z"/>
<path d="M3665 3351 c-29 -4 -35 -8 -22 -13 14 -6 17 -20 17 -78 0 -39 -4 -80
-10 -90 -7 -14 -6 -19 8 -22 9 -3 26 -2 36 2 18 6 18 7 3 13 -25 10 -25 164 1
183 9 7 15 13 12 12 -3 0 -23 -4 -45 -7z"/>
<path d="M4393 3349 c14 -8 17 -25 17 -94 0 -69 -3 -86 -17 -94 -14 -8 -9 -10
25 -11 43 0 43 0 28 22 -11 15 -16 45 -16 88 0 68 5 83 30 93 8 3 -7 6 -35 6
-39 0 -46 -2 -32 -10z"/>
<path d="M4493 3349 c14 -8 17 -25 17 -94 0 -69 -3 -86 -17 -94 -14 -8 -9 -10
27 -11 34 0 41 3 32 12 -17 17 -16 185 1 191 6 3 -8 6 -33 6 -35 0 -41 -2 -27
-10z"/>
<path d="M4593 3353 c14 -4 17 -17 17 -92 0 -54 -5 -92 -12 -99 -9 -9 -3 -12
27 -12 30 0 36 3 27 12 -16 16 -16 170 0 186 9 9 2 12 -32 11 -25 -1 -37 -3
-27 -6z"/>
<path d="M1948 3333 c16 -6 17 -183 0 -183 -29 0 5 -12 46 -16 63 -6 106 16
106 55 0 16 -7 34 -15 41 -11 9 -13 16 -5 24 17 17 12 64 -9 76 -11 5 -46 10
-78 9 -32 0 -52 -3 -45 -6z m96 -16 c11 -8 17 -23 14 -38 -2 -19 -10 -25 -35
-27 -32 -3 -33 -2 -33 37 0 33 4 41 18 41 10 0 26 -6 36 -13z m0 -87 c18 -6
26 -17 26 -33 0 -31 -18 -47 -52 -47 -27 0 -28 2 -28 45 0 49 7 53 54 35z"/>
<path d="M2861 3149 c-24 -27 -40 -49 -34 -49 10 0 93 82 93 93 0 15 -17 3
-59 -44z"/>
<path d="M2990 3192 c0 -6 7 -12 15 -16 9 -3 25 -22 38 -43 16 -29 23 -33 25
-20 2 10 -2 25 -9 33 -19 24 -69 56 -69 46z"/>
<path d="M3280 3180 c0 -5 7 -10 16 -10 8 0 12 5 9 10 -3 6 -10 10 -16 10 -5
0 -9 -4 -9 -10z"/>
<path d="M2155 3160 c-7 -12 2 -30 16 -30 5 0 9 9 9 20 0 21 -15 27 -25 10z"/>
<path d="M3245 2610 c-5 -16 -15 -20 -56 -20 -27 0 -49 -4 -49 -10 0 -5 20
-10 45 -10 43 0 45 -1 35 -21 -7 -11 -28 -38 -47 -60 -41 -46 -33 -52 12 -9
l31 30 -6 -68 c-4 -38 -11 -75 -15 -83 -7 -12 -6 -12 7 -1 9 8 18 23 20 35 3
20 9 22 68 22 58 0 65 -2 65 -20 0 -14 -9 -21 -30 -25 l-30 -6 29 -7 c16 -5
32 -4 37 0 4 4 10 46 12 93 l4 85 -75 -4 c-67 -3 -74 -2 -69 14 4 9 7 19 7 21
0 2 41 4 91 4 67 0 90 3 87 12 -3 9 -27 12 -82 9 -75 -3 -78 -2 -71 18 3 12 2
21 -4 21 -5 0 -13 -9 -16 -20z m113 -107 c-3 -15 -16 -18 -66 -21 -56 -2 -62
-1 -62 18 0 18 6 20 66 20 57 0 65 -2 62 -17z m2 -53 c0 -18 -7 -20 -65 -20
-58 0 -65 2 -65 20 0 18 7 20 65 20 58 0 65 -2 65 -20z"/>
<path d="M4050 2610 c-32 -7 -32 -7 -7 -9 26 -1 27 -3 27 -51 0 -44 -31 -147
-48 -160 -4 -3 -13 -13 -21 -23 -12 -15 -12 -17 1 -12 22 9 68 86 75 127 5 36
23 44 23 11 0 -9 11 -31 25 -49 28 -37 25 -41 -45 -73 -25 -11 -38 -20 -30
-20 8 -1 37 10 63 24 l47 26 46 -26 c31 -18 50 -23 61 -16 14 7 12 10 -8 15
-82 24 -95 39 -59 71 11 10 20 26 20 36 0 10 5 21 10 24 20 12 9 25 -21 25
-33 0 -33 3 -14 70 4 13 -6 16 -52 17 -32 0 -74 -3 -93 -7z m126 -32 c-3 -13
-6 -29 -6 -35 0 -9 -16 -13 -45 -13 -45 0 -45 0 -45 35 l0 35 51 0 c48 0 51
-1 45 -22z m40 -75 c-4 -10 -17 -33 -29 -51 l-22 -32 -27 30 c-16 17 -28 39
-28 50 0 18 7 20 56 20 49 0 55 -2 50 -17z"/>
<path d="M2945 2602 l-91 -3 -1 -75 c-1 -63 2 -74 14 -70 8 3 51 6 96 6 l82 0
-1 70 c-1 39 -3 71 -5 73 -2 1 -45 1 -94 -1z m79 -54 c-3 -80 3 -74 -79 -76
l-75 -3 0 56 0 56 78 -3 c77 -3 77 -3 76 -30z"/>
<path d="M3638 2591 c10 -6 13 -33 10 -105 l-3 -96 35 0 c29 1 32 2 18 11 -15
8 -18 25 -18 94 0 69 3 86 18 94 13 8 7 10 -28 11 -28 0 -40 -3 -32 -9z"/>
<path d="M3743 2589 c14 -8 17 -24 17 -92 0 -51 -5 -88 -12 -95 -9 -9 -4 -12
26 -12 35 0 36 1 21 17 -14 13 -16 31 -13 96 3 53 9 82 19 88 9 6 -1 9 -31 9
-35 -1 -41 -3 -27 -11z"/>
<path d="M4498 2593 c16 -6 17 -174 0 -191 -9 -9 -5 -12 21 -12 28 0 32 3 25
18 -12 27 -14 153 -3 173 9 17 6 19 -23 18 -18 0 -27 -3 -20 -6z"/>
<path d="M4608 2505 c3 -73 0 -95 -10 -95 -8 0 -6 -5 5 -11 20 -12 67 -1 48
11 -9 5 -12 35 -9 99 3 85 2 91 -17 91 -19 0 -20 -6 -17 -95z"/>
<path d="M4707 2498 c1 -101 2 -102 27 -105 14 -2 26 1 26 7 0 5 -5 10 -11 10
-7 0 -9 32 -7 95 3 89 2 95 -17 95 -19 0 -20 -6 -18 -102z"/>
<path d="M1977 2568 c-46 -38 -49 -126 -7 -168 34 -34 119 -24 134 15 4 13 0
12 -20 -4 -35 -27 -59 -26 -89 4 -27 26 -34 89 -14 126 22 42 88 46 107 6 10
-21 11 -20 11 8 1 29 -1 30 -47 33 -37 2 -53 -3 -75 -20z"/>
<path d="M2885 2423 c-9 -15 -29 -38 -43 -50 -14 -12 -24 -25 -20 -28 3 -3 27
14 54 39 34 32 45 49 38 56 -8 8 -16 3 -29 -17z"/>
<path d="M3024 2397 c23 -24 43 -39 45 -33 4 10 -63 76 -77 76 -5 0 10 -19 32
-43z"/>
<path d="M2150 2395 c0 -8 5 -15 10 -15 6 0 10 7 10 15 0 8 -4 15 -10 15 -5 0
-10 -7 -10 -15z"/>
<path d="M3910 1861 c-47 -4 -80 -9 -73 -14 6 -4 18 -4 27 -1 13 5 16 -2 16
-43 0 -62 -24 -133 -56 -168 -32 -35 -31 -45 2 -14 31 28 64 90 64 118 0 37
15 28 42 -26 l27 -53 -47 -25 c-26 -13 -41 -24 -34 -25 7 0 31 9 54 21 l41 21
42 -21 c43 -21 75 -27 75 -13 0 4 -20 14 -45 21 -50 15 -56 31 -25 71 11 14
20 31 20 38 0 6 5 12 10 12 6 0 10 5 10 10 0 6 -14 10 -31 10 -29 0 -31 2 -27
28 3 15 7 33 9 41 5 18 0 18 -101 12z m76 -33 c-3 -13 -6 -29 -6 -35 0 -8 -15
-13 -40 -13 -39 0 -40 1 -40 35 0 35 0 35 46 35 43 0 46 -2 40 -22z m44 -65
c0 -17 -44 -83 -55 -83 -14 0 -59 73 -50 82 5 5 105 6 105 1z"/>
<path d="M3453 1839 c14 -8 17 -24 17 -92 0 -51 -5 -88 -12 -95 -9 -9 -8 -12
4 -12 40 0 43 7 40 102 -3 67 0 93 10 99 8 6 -4 9 -32 9 -35 -1 -41 -3 -27
-11z"/>
<path d="M3558 1841 c10 -6 13 -32 10 -100 -3 -85 -2 -91 17 -91 19 0 20 6 17
87 -3 74 -1 89 14 100 16 11 12 13 -27 13 -27 0 -39 -3 -31 -9z"/>
<path d="M4307 1842 c7 -5 15 -42 18 -89 4 -71 3 -83 -13 -92 -13 -8 -7 -10
28 -10 35 0 41 2 28 10 -25 14 -26 150 -2 173 14 15 12 16 -28 16 -24 0 -38
-4 -31 -8z"/>
<path d="M4411 1840 c12 -7 17 -28 18 -89 2 -67 -1 -81 -16 -90 -14 -8 -9 -10
27 -10 35 0 41 2 28 10 -15 8 -18 24 -18 89 0 65 3 81 18 89 13 8 7 10 -28 10
-33 0 -41 -2 -29 -9z"/>
<path d="M4508 1841 c16 -10 24 -134 11 -168 -8 -21 -6 -23 29 -23 30 1 34 3
20 11 -15 8 -18 25 -18 94 0 71 3 84 18 88 9 3 -3 5 -28 6 -28 0 -40 -3 -32
-8z"/>
<path d="M1964 1833 c-5 -2 -8 -42 -6 -90 3 -74 1 -89 -14 -100 -15 -11 -10
-13 40 -13 68 0 110 19 131 60 22 43 18 76 -14 112 -24 27 -35 32 -78 33 -27
1 -54 0 -59 -2z m107 -32 c19 -15 24 -29 24 -64 0 -60 -26 -89 -74 -85 -35 3
-36 4 -35 41 1 20 2 57 3 82 1 43 3 45 30 45 16 0 39 -9 52 -19z"/>
<path d="M2813 1833 c15 -4 17 -17 17 -93 0 -61 -4 -90 -12 -93 -7 -3 7 -6 32
-6 35 0 41 2 28 10 -15 8 -18 25 -18 94 0 57 4 85 13 88 6 3 -8 5 -33 5 -25 0
-37 -2 -27 -5z"/>
<path d="M3100 1763 c0 -5 12 -20 26 -34 23 -21 26 -22 23 -5 -4 19 -49 56
-49 39z"/>
<path d="M8809 1761 c10 -7 11 -16 3 -42 -6 -19 -16 -53 -22 -76 -6 -23 -17
-49 -26 -58 -14 -13 -9 -15 54 -15 65 0 69 1 81 28 l13 27 -24 -22 c-25 -24
-88 -32 -88 -12 0 29 44 155 58 167 13 10 10 12 -24 12 -26 0 -34 -3 -25 -9z"/>
<path d="M2170 1651 c0 -12 5 -21 10 -21 6 0 10 6 10 14 0 8 -4 18 -10 21 -5
3 -10 -3 -10 -14z"/>
<path d="M8959 1636 c-10 -10 3 -146 14 -146 8 0 11 23 9 75 -3 67 -9 85 -23
71z"/>
<path d="M9955 1385 c-1 -5 -10 -45 -20 -88 -9 -42 -24 -84 -32 -93 -14 -13
-8 -15 58 -12 70 3 74 4 77 28 3 22 2 23 -10 8 -16 -21 -58 -31 -76 -20 -18
12 13 137 42 170 l20 22 -28 -2 c-16 -2 -30 -7 -31 -13z"/>
<path d="M10103 1253 c-24 -9 -13 -20 17 -15 26 4 30 1 30 -18 0 -12 -13 -39
-30 -60 -16 -21 -30 -41 -30 -44 0 -10 68 -7 75 4 4 6 -7 10 -25 10 l-32 0 31
35 c17 20 31 44 31 53 0 33 -32 50 -67 35z"/>
<path d="M7300 520 c0 -5 5 -10 10 -10 6 0 10 5 10 10 0 6 -4 10 -10 10 -5 0
-10 -4 -10 -10z"/>
</g>
</svg>
