<?xml version="1.0" standalone="no"?>
<!DOCTYPE svg PUBLIC "-//W3C//DTD SVG 20010904//EN"
 "http://www.w3.org/TR/2001/REC-SVG-20010904/DTD/svg10.dtd">
<svg version="1.0" xmlns="http://www.w3.org/2000/svg"
 width="885.000000pt" height="901.000000pt" viewBox="0 0 885.000000 901.000000"
 preserveAspectRatio="xMidYMid meet">
<metadata>
Created by potrace 1.16, written by Peter Selinger 2001-2019
</metadata>
<g transform="translate(0.000000,901.000000) scale(0.100000,-0.100000)"
fill="#000000" stroke="none">
<path d="M104 8899 c-4 -8 0 -9 15 -4 16 5 21 2 21 -12 0 -11 -5 -24 -12 -31
-9 -9 -8 -12 5 -12 30 0 21 -38 -10 -42 -24 -4 -25 -5 -10 -12 28 -13 66 27
50 52 -6 10 -9 30 -6 45 5 24 2 27 -20 27 -14 0 -29 -5 -33 -11z"/>
<path d="M225 8845 c0 -36 4 -65 10 -65 6 0 9 26 7 65 -5 84 -18 84 -17 0z"/>
<path d="M4796 8712 c31 -21 22 -102 -12 -102 -8 0 -12 -5 -8 -11 7 -12 58 32
76 66 10 18 10 19 -5 6 -15 -12 -17 -10 -17 18 0 26 -4 31 -22 31 -13 0 -18
-3 -12 -8z"/>
<path d="M4861 8704 c0 -11 3 -14 6 -6 3 7 2 16 -1 19 -3 4 -6 -2 -5 -13z"/>
<path d="M4901 8614 c-17 -37 -29 -69 -26 -72 6 -6 5 -8 32 48 l22 45 0 -253
1 -253 -60 74 c-106 132 -173 177 -261 177 -72 0 -115 -15 -179 -64 -141 -107
-323 -398 -490 -785 -40 -91 -56 -118 -61 -105 -5 13 -8 5 -10 -26 l-4 -45
-237 3 c-159 2 -238 -1 -238 -8 0 -6 80 -10 234 -10 l233 0 -92 -237 c-176
-454 -222 -578 -217 -587 5 -9 35 63 118 284 26 69 62 166 80 215 19 50 47
122 63 160 16 39 35 86 42 105 l14 35 6 -35 c6 -33 6 -33 8 12 l1 46 523 -5
c287 -3 523 -6 524 -7 0 0 3 -236 4 -523 2 -288 7 -523 11 -523 5 0 8 236 8
525 l0 525 185 0 185 0 0 -50 c0 -30 4 -50 11 -50 7 0 9 11 6 26 -9 49 12 8
76 -146 57 -138 207 -507 238 -585 6 -16 13 -25 16 -18 3 10 -120 323 -247
628 -23 55 -51 121 -61 148 l-19 47 178 0 177 -1 -42 -25 c-24 -14 -43 -30
-43 -36 0 -5 19 3 43 17 23 14 52 31 65 37 12 6 22 14 22 17 0 4 -29 21 -65
39 -36 17 -65 28 -65 23 0 -4 18 -16 40 -26 23 -10 43 -22 46 -26 3 -5 -301
-5 -348 0 -5 1 -8 17 -8 36 0 19 -4 35 -10 35 -5 0 -10 -10 -10 -22 0 -13 -16
11 -35 57 -20 43 -48 106 -64 140 -16 33 -47 99 -70 147 -22 47 -54 108 -69
135 -73 122 -89 150 -106 176 l-19 28 42 -7 c28 -4 41 -3 41 5 0 6 -18 11 -45
11 l-45 0 0 273 0 272 27 -45 c32 -55 32 -55 39 -47 6 6 -60 122 -76 132 -4 3
-22 -25 -39 -61z m-189 -280 c50 -32 118 -101 176 -179 l44 -60 -36 -3 c-20
-2 -36 -8 -36 -14 0 -6 13 -8 35 -4 l35 7 0 -366 0 -365 -520 0 c-428 0 -520
2 -520 13 0 19 117 284 183 415 177 352 326 534 477 583 41 13 119 0 162 -27z
m347 -454 c38 -69 88 -165 111 -215 23 -49 57 -121 75 -160 34 -73 65 -145 65
-151 0 -2 -81 -4 -180 -4 l-180 0 0 353 c0 408 -10 390 109 177z"/>
<path d="M4668 8095 c-2 -53 0 -65 12 -65 12 0 14 12 12 65 -2 36 -7 65 -12
65 -5 0 -10 -29 -12 -65z"/>
<path d="M4746 8138 c-19 -27 -20 -48 -4 -83 9 -20 18 -25 37 -23 20 2 27 10
32 38 14 67 -32 115 -65 68z m47 -9 c8 -31 -4 -89 -19 -89 -18 0 -27 35 -19
76 7 38 30 46 38 13z"/>
<path d="M3725 7982 c-16 -11 -36 -52 -26 -52 4 0 5 -18 1 -40 -7 -38 -6 -40
18 -40 20 0 23 3 14 12 -15 15 -16 68 -1 68 8 0 8 4 -1 15 -17 20 -3 40 18 23
13 -11 14 -11 11 1 -6 18 -20 23 -34 13z"/>
<path d="M3808 7963 c-9 -10 -19 -28 -23 -41 -8 -27 11 -88 30 -95 11 -5 11
-1 -1 21 -18 34 -18 70 0 105 17 31 15 34 -6 10z"/>
<path d="M3960 7975 c0 -6 4 -15 9 -20 21 -22 21 -70 1 -110 l-20 -40 25 28
c31 35 34 94 5 128 -10 13 -19 19 -20 14z"/>
<path d="M3404 7932 c15 -24 9 -85 -9 -98 -10 -8 -16 -16 -13 -19 8 -8 65 52
84 87 9 17 10 29 4 33 -6 3 -10 -1 -10 -10 0 -9 -6 -26 -12 -38 -12 -21 -13
-21 -18 12 -3 19 -11 36 -19 39 -8 3 -11 0 -7 -6z"/>
<path d="M3870 7930 c0 -5 5 -10 10 -10 15 0 12 -36 -3 -49 -8 -6 -17 -8 -20
-4 -4 3 -7 1 -7 -5 0 -16 10 -15 32 5 17 15 18 15 18 0 0 -19 15 -23 25 -7 3
6 1 10 -4 10 -18 0 -12 38 6 49 10 5 15 13 11 17 -4 4 -14 1 -22 -5 -10 -8
-16 -9 -21 -1 -8 13 -25 13 -25 0z"/>
<path d="M3547 7918 c-7 -4 9 -8 36 -8 26 0 47 3 47 8 0 9 -68 9 -83 0z"/>
<path d="M3558 7883 c18 -2 45 -2 60 0 15 2 0 4 -33 4 -33 0 -45 -2 -27 -4z"/>
<path d="M4785 7244 c-64 -69 3 -143 69 -77 34 33 34 96 1 100 -11 2 -14 0 -7
-3 36 -17 -14 -125 -51 -111 -26 10 -21 63 8 92 13 14 20 25 14 25 -5 0 -21
-12 -34 -26z"/>
<path d="M5718 7233 c17 -7 15 -52 -3 -59 -8 -4 -15 -11 -15 -17 0 -5 9 -2 19
7 18 16 20 16 28 1 9 -15 11 -15 24 1 8 10 9 15 3 11 -19 -11 -27 26 -10 39
23 17 20 20 -21 21 -21 0 -32 -2 -25 -4z"/>
<path d="M3970 7190 c-11 -7 -12 -10 -2 -10 10 0 13 -14 10 -55 -2 -39 1 -55
10 -55 8 0 12 20 12 65 0 66 -3 72 -30 55z"/>
<path d="M4050 7185 c-7 -8 -10 -18 -6 -22 3 -3 6 -1 6 6 0 19 44 9 48 -11 2
-9 -11 -32 -28 -52 l-32 -36 41 0 c23 0 41 4 41 9 0 4 -11 6 -25 3 -30 -5 -32
8 -5 33 28 25 24 79 -6 83 -11 2 -27 -4 -34 -13z"/>
<path d="M5313 7157 c-37 -54 -39 -67 -9 -67 20 0 26 -5 26 -22 0 -17 3 -19
12 -10 12 12 12 112 0 124 -4 4 -17 -7 -29 -25z m17 -27 c0 -24 -4 -30 -21
-30 -20 0 -20 1 -2 30 9 17 19 30 20 30 2 0 3 -13 3 -30z"/>
<path d="M3858 7119 c-8 -5 8 -9 40 -9 28 0 52 3 52 8 0 10 -76 11 -92 1z"/>
<path d="M4537 6032 c-33 -36 -40 -76 -39 -223 0 -158 10 -201 54 -228 l23
-14 -22 24 c-36 40 -43 74 -43 219 0 144 7 180 42 218 12 12 17 22 11 22 -5 0
-17 -8 -26 -18z"/>
<path d="M4743 6038 c36 -28 47 -82 47 -227 0 -146 -7 -180 -43 -220 -22 -24
-22 -24 -1 -13 41 21 56 75 59 206 1 67 -2 142 -7 168 -10 48 -40 98 -61 98
-6 0 -3 -6 6 -12z"/>
<path d="M4635 5954 c9 -9 14 -22 12 -28 -7 -17 19 -49 32 -41 6 3 11 11 11
16 0 6 -4 8 -9 5 -11 -7 -23 22 -15 35 3 5 12 9 20 9 8 0 14 5 14 10 0 14 -13
13 -29 -2 -11 -10 -14 -10 -18 0 -3 6 -11 12 -20 12 -12 0 -12 -2 2 -16z"/>
<path d="M2625 5890 c-4 -11 -11 -18 -16 -15 -5 4 -9 -21 -9 -57 l0 -63 35 0
c34 0 35 1 36 40 2 77 -3 97 -23 77 -9 -9 -9 -12 0 -12 7 0 12 -7 12 -15 0 -9
-9 -15 -25 -15 -30 0 -30 0 -5 45 11 19 16 35 11 35 -6 0 -13 -9 -16 -20z m24
-85 c5 -22 -2 -35 -19 -35 -13 0 -20 7 -20 19 0 25 33 39 39 16z"/>
<path d="M2686 5884 c-4 -15 -5 -29 -1 -32 3 -3 5 0 5 6 0 7 14 12 30 12 29 0
30 -1 30 -47 0 -55 -11 -79 -31 -68 -11 6 -11 5 -2 -5 20 -22 43 -4 43 33 0
19 3 49 6 66 6 30 6 31 -31 31 -29 0 -36 3 -31 15 3 8 2 15 -3 15 -5 0 -12
-12 -15 -26z"/>
<path d="M2893 5903 l-72 -4 -3 -79 c-2 -44 0 -80 5 -80 4 0 7 23 7 50 l0 50
41 0 c26 0 38 4 34 11 -4 6 -13 8 -21 5 -9 -3 -14 1 -14 12 0 12 9 18 25 20
16 1 23 -2 19 -12 -5 -14 23 -43 33 -32 3 3 1 6 -5 6 -7 0 -12 9 -12 20 0 11
7 20 15 20 12 0 15 -14 15 -69 l0 -70 -32 -4 c-32 -4 -32 -4 5 -5 l37 -2 0 85
c0 47 -1 84 -2 83 -2 -1 -35 -4 -75 -5z m-36 -33 c1 -11 -4 -20 -13 -20 -8 0
-14 9 -14 20 0 11 6 20 13 20 7 0 13 -9 14 -20z"/>
<path d="M3034 5865 c-12 -25 -15 -40 -8 -34 10 8 14 -1 17 -48 3 -56 3 -56 5
15 1 40 7 82 12 93 6 10 7 19 3 19 -4 -1 -17 -21 -29 -45z"/>
<path d="M3097 5903 c-12 -11 -8 -21 11 -26 13 -3 13 -4 -3 -3 -30 1 -44 -12
-38 -34 3 -11 9 -17 14 -15 4 3 6 12 2 20 -3 10 2 15 16 15 35 0 28 -16 -24
-56 -19 -14 -19 -15 3 -4 34 17 39 4 5 -14 -37 -20 -21 -21 17 -1 28 14 35 30
31 63 -1 6 7 12 19 12 22 0 28 -16 8 -22 -7 -3 -6 -7 5 -11 13 -5 17 -1 17 18
0 19 -5 25 -22 25 -19 0 -20 2 -8 10 16 10 8 14 -24 10 -11 -1 -15 3 -12 9 8
12 -6 15 -17 4z"/>
<path d="M3560 5901 c0 -5 -10 -12 -22 -14 -20 -4 -19 -4 5 -6 15 0 27 -6 27
-11 0 -6 6 -6 13 2 11 10 12 15 1 25 -15 15 -24 17 -24 4z"/>
<path d="M3629 5897 c-14 -10 -14 -14 -3 -25 8 -7 14 -8 14 -3 0 5 12 12 28
14 l27 4 -28 2 c-16 0 -25 5 -22 11 8 13 4 12 -16 -3z"/>
<path d="M716 5825 l1 -74 -41 -4 c-23 -2 1 -4 53 -5 52 -1 91 1 87 5 -4 4
-25 6 -46 4 l-40 -3 0 41 c0 40 1 41 36 41 19 0 33 4 30 8 -3 5 -19 7 -36 4
-28 -4 -30 -2 -30 27 0 17 -3 31 -7 31 -5 0 -8 -34 -7 -75z"/>
<path d="M860 5815 l0 -80 74 0 74 0 5 55 c11 104 13 102 -76 103 l-77 2 0
-80z m40 45 c0 -11 -6 -21 -12 -22 -7 0 10 -4 37 -8 l50 -7 -42 -1 c-42 -2
-43 -3 -43 -37 0 -19 -4 -35 -10 -35 -6 0 -10 28 -10 65 0 51 3 65 15 65 8 0
15 -9 15 -20z m100 -45 c0 -41 -4 -65 -11 -65 -7 0 -10 17 -7 45 3 42 2 45
-22 46 -17 1 -19 3 -7 6 9 2 17 11 17 19 0 8 7 14 15 14 12 0 15 -14 15 -65z
m-47 48 c-7 -2 -21 -2 -30 0 -10 3 -4 5 12 5 17 0 24 -2 18 -5z m-46 -85 c-3
-7 -5 -2 -5 12 0 14 2 19 5 13 2 -7 2 -19 0 -25z m40 17 c0 -8 -6 -15 -14 -15
-7 0 -13 7 -13 15 0 8 6 15 13 15 8 0 14 -7 14 -15z m20 -17 c-3 -7 -5 -2 -5
12 0 14 2 19 5 13 2 -7 2 -19 0 -25z m-9 -25 c-10 -2 -28 -2 -40 0 -13 2 -5 4
17 4 22 1 32 -1 23 -4z"/>
<path d="M1098 5888 c-25 -8 -28 -15 -28 -51 0 -23 -4 -58 -10 -77 -9 -32 -8
-33 5 -16 8 11 15 28 15 38 0 13 8 18 30 18 27 0 30 3 30 30 0 27 -2 29 -30
24 -41 -9 -39 12 3 30 37 16 26 19 -15 4z m22 -63 c0 -8 -9 -15 -20 -15 -11 0
-20 7 -20 15 0 8 9 15 20 15 11 0 20 -7 20 -15z"/>
<path d="M1190 5890 c-13 -8 -13 -10 2 -10 9 0 20 5 23 10 8 13 -5 13 -25 0z"/>
<path d="M1345 5890 l-60 -7 63 -1 c36 -1 62 2 62 8 0 6 -1 9 -2 8 -2 -1 -30
-4 -63 -8z"/>
<path d="M1505 5891 c4 -8 2 -17 -6 -22 -9 -6 -10 -9 -2 -9 19 0 27 21 13 33
-10 9 -11 9 -5 -2z"/>
<path d="M1530 5871 c0 -15 -11 -50 -25 -77 -21 -41 -22 -44 -4 -21 18 24 28
27 75 27 30 0 54 -4 54 -9 0 -24 -14 -41 -34 -41 -20 -1 -20 -1 -3 -11 23 -14
35 -3 43 39 4 21 3 32 -5 32 -6 0 -11 9 -11 20 0 13 -5 17 -14 14 -10 -4 -13
0 -9 14 4 17 1 19 -24 14 -19 -4 -22 -7 -10 -10 24 -5 21 -22 -4 -22 -18 0
-21 5 -17 30 3 17 1 30 -4 30 -4 0 -8 -13 -8 -29z m70 -51 c0 -5 -16 -10 -35
-10 -19 0 -35 5 -35 10 0 6 16 10 35 10 19 0 35 -4 35 -10z"/>
<path d="M2152 5888 c-6 -6 -12 -18 -12 -25 0 -7 -6 -13 -12 -13 -10 0 -10 -2
-1 -8 7 -4 10 -23 8 -45 -3 -34 -1 -37 23 -37 15 0 22 4 16 8 -6 4 -15 22 -19
40 -5 27 -4 32 12 33 10 0 13 3 6 6 -7 2 -13 13 -13 24 0 17 3 18 21 8 17 -9
20 -8 17 3 -6 18 -31 21 -46 6z"/>
<path d="M3982 5877 c-32 -34 -30 -97 4 -134 l26 -28 -16 27 c-20 35 -21 107
0 136 20 29 13 28 -14 -1z"/>
<path d="M4133 5883 c23 -27 24 -118 0 -147 -10 -12 -6 -10 10 4 43 40 39 128
-6 151 -21 12 -21 11 -4 -8z"/>
<path d="M4412 5888 c-6 -6 -12 -18 -12 -25 0 -7 -6 -13 -12 -13 -10 0 -9 -3
1 -9 9 -6 12 -21 9 -45 -4 -33 -2 -36 22 -35 14 0 19 3 13 6 -7 2 -13 20 -13
39 0 20 5 34 13 34 8 0 8 3 -2 9 -8 5 -11 16 -7 26 5 15 9 15 23 4 14 -12 16
-12 11 1 -6 20 -30 24 -46 8z"/>
<path d="M4610 5890 c0 -5 4 -10 9 -10 6 0 13 5 16 10 3 6 -1 10 -9 10 -9 0
-16 -4 -16 -10z"/>
<path d="M5200 5832 c0 -44 3 -61 11 -56 6 3 3 -6 -7 -22 l-18 -29 30 28 c28
25 51 37 40 19 -2 -4 1 -14 8 -23 9 -13 12 0 14 65 l3 82 -41 0 -40 -1 0 -63z
m60 38 c0 -5 -11 -10 -25 -10 -14 0 -25 5 -25 10 0 6 11 10 25 10 14 0 25 -4
25 -10z m0 -35 c0 -9 -9 -15 -25 -15 -16 0 -25 6 -25 15 0 9 9 15 25 15 16 0
25 -6 25 -15z m0 -35 c0 -5 -11 -10 -25 -10 -14 0 -25 5 -25 10 0 6 11 10 25
10 14 0 25 -4 25 -10z"/>
<path d="M5340 5825 c0 -65 -2 -75 -17 -75 -15 0 -16 -2 -3 -10 8 -5 18 -10
22 -10 3 0 8 38 10 85 2 47 0 85 -4 85 -5 0 -8 -34 -8 -75z"/>
<path d="M5475 5889 c-44 -3 -63 -6 -42 -7 l37 -2 0 -81 c0 -51 4 -78 10 -74
6 3 10 31 10 62 l0 56 25 -23 c14 -13 28 -21 31 -18 3 4 -8 16 -25 29 -43 32
-39 47 12 51 23 2 38 5 32 8 -5 3 -46 2 -90 -1z"/>
<path d="M5760 5825 c0 -71 -1 -75 -22 -75 -19 0 -20 -2 -8 -10 33 -21 38 -11
42 75 2 47 0 85 -4 85 -5 0 -8 -34 -8 -75z"/>
<path d="M5843 5873 c-5 -16 -6 -57 -3 -93 l7 -65 1 73 c1 40 7 82 12 93 6 11
7 19 1 19 -5 0 -13 -12 -18 -27z"/>
<path d="M6100 5891 c0 -5 -12 -12 -27 -14 l-28 -4 28 -2 c37 -1 31 -24 -9
-32 -24 -6 -22 -6 9 -4 46 4 40 -10 -17 -36 -22 -10 -35 -19 -28 -19 7 0 22 5
33 10 17 10 19 7 20 -27 1 -23 3 -29 6 -15 4 18 11 22 39 22 45 0 47 -27 2
-33 -29 -3 -27 -4 10 -5 l42 -2 0 40 c0 39 -1 40 -36 40 -21 0 -33 4 -29 10 3
6 24 10 46 10 21 0 39 5 39 10 0 6 -11 8 -25 4 -31 -8 -32 3 -3 27 11 11 17
19 11 19 -5 0 -20 -11 -33 -25 -26 -28 -40 -32 -40 -11 0 8 8 17 18 19 16 4
16 5 -1 6 -10 0 -15 6 -12 11 3 6 1 10 -4 10 -6 0 -11 -4 -11 -9z m60 -101 c0
-5 -16 -10 -35 -10 -19 0 -35 5 -35 10 0 6 16 10 35 10 19 0 35 -4 35 -10z"/>
<path d="M6530 5890 c0 -5 -17 -11 -37 -12 -37 -1 -37 -1 -5 -5 39 -5 43 -22
5 -24 -25 -2 -24 -2 7 -9 34 -7 34 -7 -15 -10 l-50 -3 44 -4 45 -4 -30 -25
c-17 -14 -21 -21 -11 -18 15 6 18 2 15 -16 -4 -29 12 -35 37 -16 19 15 19 15
-2 9 -19 -4 -23 -1 -23 19 0 35 18 48 70 50 l45 1 -45 7 c-39 6 -40 7 -12 8
17 1 32 6 32 12 0 5 -13 7 -30 4 -18 -4 -30 -2 -30 4 0 6 17 13 38 15 l37 4
-38 1 c-23 1 -36 6 -32 12 3 6 1 10 -4 10 -6 0 -11 -4 -11 -10z"/>
<path d="M6735 5890 l-60 -7 68 -1 c43 -1 66 2 62 8 -3 6 -7 9 -8 8 -1 -1 -29
-4 -62 -8z"/>
<path d="M7798 5879 c-13 -13 -18 -35 -18 -72 l0 -53 35 0 c34 0 35 1 35 37 0
21 4 40 9 43 12 8 32 66 22 66 -4 0 -13 -15 -19 -32 -5 -18 -10 -25 -11 -15
-1 10 -9 17 -22 17 -18 0 -19 2 -9 15 18 22 -2 17 -22 -6z m32 -39 c0 -11 -7
-20 -15 -20 -8 0 -15 9 -15 20 0 11 7 20 15 20 8 0 15 -9 15 -20z m0 -50 c0
-13 -7 -20 -19 -20 -14 0 -18 5 -14 20 3 11 12 20 19 20 8 0 14 -9 14 -20z"/>
<path d="M7990 5818 l0 -83 80 0 80 0 0 83 0 82 -80 0 -80 0 0 -82z m145 45
c1 -20 -3 -23 -34 -22 -24 1 -28 3 -13 6 40 8 26 33 -18 33 -42 0 -58 -24 -22
-33 11 -3 9 -5 -8 -6 -24 -1 -25 -4 -22 -46 3 -28 0 -45 -7 -45 -12 0 -16 122
-4 134 4 4 34 6 67 4 54 -3 60 -5 61 -25z m-52 0 c-7 -2 -19 -2 -25 0 -7 3 -2
5 12 5 14 0 19 -2 13 -5z m17 -63 c0 -27 -3 -30 -32 -29 -28 0 -30 2 -13 9 14
6 16 9 5 10 -8 2 -19 2 -23 1 -5 -1 -6 3 -2 8 6 11 36 3 47 -13 5 -7 8 -5 8 5
0 9 -14 20 -32 27 l-33 10 38 1 c35 1 37 -1 37 -29z m31 23 c1 -5 3 -23 5 -40
l4 -33 -58 2 -57 2 49 3 48 4 -4 35 c-2 19 0 34 4 34 4 0 9 -3 9 -7z"/>
<path d="M8220 5888 c0 -7 -7 -26 -15 -42 -9 -16 -13 -31 -10 -34 3 -3 6 1 7
9 1 8 4 -11 8 -41 l7 -55 1 55 c1 30 6 70 11 88 6 20 6 32 0 32 -5 0 -9 -6 -9
-12z"/>
<path d="M8256 5876 c-32 -50 -15 -67 57 -58 31 3 37 8 37 27 0 18 -4 22 -20
18 -16 -4 -19 -2 -14 11 3 9 2 16 -4 16 -6 0 -17 2 -25 6 -8 3 -21 -5 -31 -20z
m44 -6 c0 -5 -9 -10 -21 -10 -11 0 -17 5 -14 10 3 6 13 10 21 10 8 0 14 -4 14
-10z m-10 -30 c0 -5 -7 -10 -15 -10 -8 0 -15 5 -15 10 0 6 7 10 15 10 8 0 15
-4 15 -10z m50 0 c0 -5 -9 -10 -20 -10 -11 0 -20 5 -20 10 0 6 9 10 20 10 11
0 20 -4 20 -10z"/>
<path d="M8488 5890 c25 -11 29 -32 7 -50 -8 -7 -15 -20 -15 -28 0 -10 10 -2
25 18 23 31 24 35 8 52 -9 10 -23 18 -32 17 -10 0 -8 -3 7 -9z"/>
<path d="M1147 5825 c-2 -36 -9 -71 -13 -78 -5 -7 -1 -4 9 6 9 11 17 32 17 48
0 19 5 29 15 29 11 0 15 -12 15 -50 0 -27 5 -50 10 -50 6 0 10 22 10 49 0 30
5 51 13 54 6 3 -5 6 -27 6 -33 1 -38 4 -33 21 3 11 2 22 -3 25 -4 2 -10 -25
-13 -60z"/>
<path d="M2236 5868 c-23 -32 -20 -91 5 -119 19 -23 20 -23 10 -2 -14 28 -14
99 -1 124 14 26 5 24 -14 -3z"/>
<path d="M2404 5868 c9 -12 16 -38 16 -58 0 -20 -7 -46 -16 -58 -8 -12 -10
-22 -5 -22 6 0 18 14 27 32 17 33 14 89 -7 114 -19 23 -31 16 -15 -8z"/>
<path d="M5623 5883 c21 -5 21 -5 3 -48 -11 -26 -12 -33 -2 -29 7 3 18 -1 24
-9 10 -11 7 -20 -13 -41 -13 -14 -21 -26 -16 -26 14 0 50 45 66 83 l15 37 -25
0 c-38 0 -32 28 8 33 18 2 8 4 -23 4 -30 0 -47 -1 -37 -4z m57 -47 c0 -2 -3
-11 -6 -20 -5 -12 -10 -13 -25 -5 -23 12 -16 29 12 29 10 0 19 -2 19 -4z"/>
<path d="M5915 5880 l-50 -7 48 -1 48 -2 -3 -62 c-3 -56 -5 -63 -23 -60 -18 2
-19 2 -2 -8 28 -18 37 -3 37 66 0 38 4 64 11 64 5 0 7 5 4 10 -3 6 -9 9 -13 8
-4 0 -29 -4 -57 -8z"/>
<path d="M6377 5883 c-4 -3 -7 -34 -7 -68 0 -34 -5 -66 -12 -73 -9 -9 -8 -12
5 -12 14 0 17 11 17 70 0 55 3 71 18 79 14 9 15 10 1 11 -9 0 -19 -3 -22 -7z"/>
<path d="M7436 5871 c-27 -30 -30 -81 -6 -120 12 -18 23 -31 26 -28 3 3 -2 17
-11 31 -19 28 -15 97 7 123 16 20 3 15 -16 -6z"/>
<path d="M7594 5868 c9 -12 16 -41 16 -63 0 -22 -7 -51 -16 -63 -8 -12 -10
-22 -5 -22 16 0 41 56 41 92 -1 18 -9 43 -19 56 -25 29 -37 29 -17 0z"/>
<path d="M8445 5877 c-4 -10 -5 -21 -1 -24 10 -10 18 4 13 24 -4 17 -4 17 -12
0z"/>
<path d="M5301 5823 c1 -62 6 -56 11 15 2 23 0 42 -4 42 -5 0 -7 -26 -7 -57z"/>
<path d="M5721 5823 c1 -62 6 -56 11 15 2 23 0 42 -4 42 -5 0 -7 -26 -7 -57z"/>
<path d="M7928 5820 c3 -55 2 -61 -19 -68 -16 -6 -19 -11 -10 -17 22 -13 38
17 45 83 4 46 2 62 -7 62 -8 0 -11 -17 -9 -60z"/>
<path d="M3585 5850 c-3 -5 -21 -11 -38 -11 -30 -2 -31 -2 -4 -6 15 -2 27 -7
27 -11 0 -3 -12 -19 -27 -36 l-28 -30 28 17 c27 17 27 17 27 -8 0 -23 3 -25
50 -25 49 0 50 1 50 30 0 29 -2 30 -46 30 -65 0 -52 23 17 31 l54 6 -48 1
c-29 1 -46 6 -42 12 3 6 2 10 -4 10 -5 0 -13 -4 -16 -10z m75 -80 c0 -17 -7
-20 -40 -20 -33 0 -40 3 -40 20 0 17 7 20 40 20 33 0 40 -3 40 -20z"/>
<path d="M3870 5845 c-7 -8 -10 -21 -7 -29 3 -8 2 -28 -3 -45 -11 -39 9 -59
48 -45 38 13 36 47 -3 54 -28 5 -28 6 -8 12 30 8 47 50 24 60 -26 11 -38 9
-51 -7z m38 -23 c2 -15 -2 -22 -12 -22 -11 0 -16 9 -16 26 0 31 23 28 28 -4z
m17 -72 c-3 -5 -17 -10 -31 -10 -13 0 -24 5 -24 10 0 6 14 10 31 10 17 0 28
-4 24 -10z"/>
<path d="M6260 5848 c0 -5 14 -8 30 -8 26 0 30 -4 30 -26 0 -21 -4 -25 -22
-22 -13 2 -23 8 -23 15 0 6 -3 15 -7 19 -5 4 -8 -6 -8 -23 0 -29 1 -30 37 -24
32 5 36 9 37 38 1 29 -2 32 -36 35 -21 2 -38 0 -38 -4z"/>
<path d="M1340 5840 c-49 -4 -60 -7 -33 -8 l42 -2 4 -52 3 -53 2 53 2 52 35 0
c19 0 35 5 35 10 0 6 -3 9 -7 8 -5 -1 -42 -4 -83 -8z"/>
<path d="M1841 5841 c-9 -6 -10 -11 -2 -15 6 -4 11 -23 11 -43 0 -26 -5 -36
-20 -40 -11 -3 -20 -9 -20 -14 0 -20 20 -7 59 37 40 46 52 74 30 74 -5 0 -7
-4 -4 -10 3 -5 -1 -20 -9 -32 -16 -23 -22 -17 -28 29 -2 16 -7 20 -17 14z"/>
<path d="M2308 5838 c7 -7 12 -19 12 -28 0 -9 6 -24 13 -34 13 -17 14 -17 28
0 9 11 9 15 1 10 -20 -12 -28 25 -9 39 10 7 17 16 17 20 0 4 -7 1 -17 -6 -13
-11 -17 -11 -20 -1 -3 6 -12 12 -21 12 -12 0 -13 -3 -4 -12z"/>
<path d="M4048 5838 c19 -19 14 -48 -10 -57 -12 -4 -17 -10 -11 -14 6 -4 16 0
23 8 11 14 14 13 24 -1 11 -14 13 -14 25 0 12 14 12 16 -3 10 -11 -4 -16 -1
-16 14 0 32 -11 52 -28 52 -12 0 -13 -3 -4 -12z"/>
<path d="M4085 5840 c-3 -5 1 -10 9 -10 9 0 16 5 16 10 0 6 -4 10 -9 10 -6 0
-13 -4 -16 -10z"/>
<path d="M5870 5815 c0 -32 3 -35 29 -35 25 0 29 4 33 35 3 30 1 35 -17 34
-11 0 -14 -3 -7 -6 18 -7 15 -53 -3 -53 -10 0 -15 10 -15 30 0 17 -4 30 -10
30 -5 0 -10 -16 -10 -35z"/>
<path d="M6735 5840 c-47 -4 -63 -7 -38 -8 l42 -2 4 -52 3 -53 2 53 2 52 40 0
c22 0 40 5 40 10 0 6 -3 9 -7 8 -5 -1 -44 -5 -88 -8z"/>
<path d="M7324 5838 c-4 -6 -8 -35 -9 -64 -2 -59 13 -72 57 -50 35 17 29 40
-11 44 -24 3 -30 6 -21 12 11 7 11 11 1 24 -7 8 -10 20 -6 26 11 18 24 11 27
-17 l4 -28 11 25 c9 20 7 26 -6 32 -25 10 -39 9 -47 -4z m60 -99 c-7 -11 -64
-12 -64 -1 0 15 9 19 40 14 16 -2 27 -8 24 -13z"/>
<path d="M1970 5828 c0 -5 20 -8 45 -8 25 0 45 5 45 10 0 6 -19 10 -45 8 -25
-2 -45 -6 -45 -10z"/>
<path d="M2700 5834 c0 -5 7 -18 15 -28 12 -16 15 -17 15 -4 0 8 -7 21 -15 28
-8 7 -15 9 -15 4z"/>
<path d="M3294 5829 c-3 -6 -1 -16 5 -22 8 -8 15 -7 27 5 11 11 12 18 5 22 -6
4 -11 0 -11 -8 0 -9 -5 -16 -11 -16 -6 0 -9 7 -5 15 6 17 0 20 -10 4z"/>
<path d="M4233 5834 c7 -8 87 -7 95 0 3 3 -19 6 -48 6 -29 0 -51 -3 -47 -6z"/>
<path d="M4983 5815 c0 -13 3 -22 8 -19 5 3 9 14 9 25 0 10 -4 19 -9 19 -5 0
-8 -11 -8 -25z"/>
<path d="M7028 5833 c21 -8 15 -81 -8 -95 -23 -15 -27 -30 -6 -22 19 7 86 94
86 111 0 7 -5 13 -10 13 -6 0 -10 -6 -9 -12 3 -18 -11 -48 -22 -48 -5 0 -9 14
-9 30 0 22 -5 30 -17 29 -11 0 -13 -3 -5 -6z"/>
<path d="M7504 5824 c21 -21 20 -30 -6 -48 -18 -13 -19 -16 -5 -16 9 0 17 5
17 11 0 8 5 7 15 -1 13 -11 18 -11 28 0 8 8 8 11 1 7 -23 -13 -23 33 -1 48 18
13 19 15 4 15 -9 0 -17 -5 -17 -12 0 -9 -3 -9 -12 0 -7 7 -18 12 -26 12 -10 0
-10 -3 2 -16z"/>
<path d="M2842 5791 c-1 -22 3 -43 10 -47 7 -4 8 -3 4 4 -5 9 6 12 38 12 46 0
46 0 46 35 l0 35 -48 0 -49 0 -1 -39z m86 7 c-2 -18 -11 -24 -35 -26 -30 -3
-33 -1 -33 22 0 23 4 26 36 26 31 0 35 -3 32 -22z"/>
<path d="M2870 5795 c0 -9 9 -15 25 -15 16 0 25 6 25 15 0 9 -9 15 -25 15 -16
0 -25 -6 -25 -15z"/>
<path d="M5815 5820 c-3 -5 -1 -10 4 -10 6 0 11 5 11 10 0 6 -2 10 -4 10 -3 0
-8 -4 -11 -10z"/>
<path d="M7173 5823 c15 -2 39 -2 55 0 15 2 2 4 -28 4 -30 0 -43 -2 -27 -4z"/>
<path d="M7890 5812 c6 -13 14 -21 18 -18 3 4 -2 14 -12 24 -18 16 -18 16 -6
-6z"/>
<path d="M4613 5813 c20 -2 54 -2 75 0 20 2 3 4 -38 4 -41 0 -58 -2 -37 -4z"/>
<path d="M1285 5778 c-17 -29 -17 -31 -1 -19 21 17 40 51 29 51 -5 0 -17 -15
-28 -32z"/>
<path d="M1406 5782 c10 -18 20 -28 23 -21 2 6 -7 21 -19 33 l-23 21 19 -33z"/>
<path d="M3150 5803 c-8 -3 -17 -10 -20 -14 -3 -5 -21 -15 -40 -23 -39 -17
-26 -22 14 -6 15 5 26 6 26 0 0 -4 -8 -10 -17 -12 -17 -3 -17 -4 0 -11 14 -5
20 -2 24 13 6 22 18 26 28 10 3 -5 14 -10 23 -10 11 1 7 6 -12 17 -28 15 -29
16 -11 29 19 14 12 17 -15 7z"/>
<path d="M6540 5802 c0 -18 55 -72 72 -72 13 1 -12 24 -36 34 -6 3 -1 13 13
25 26 23 21 27 -11 10 -16 -9 -23 -8 -29 2 -7 12 -9 12 -9 1z"/>
<path d="M6677 5778 c-15 -26 -15 -29 -2 -18 20 16 39 50 28 50 -4 0 -16 -14
-26 -32z"/>
<path d="M6801 5780 c13 -16 24 -28 27 -26 5 6 -31 55 -41 56 -4 0 2 -13 14
-30z"/>
<path d="M8245 5800 l-20 -9 20 0 c17 -1 18 -3 5 -12 -12 -9 -11 -10 5 -4 11
4 25 9 30 11 6 3 11 -5 12 -16 1 -13 -4 -20 -15 -20 -15 0 -15 2 -2 10 23 15
-2 11 -30 -4 l-25 -14 25 1 c14 0 33 -3 43 -7 13 -6 17 -3 17 13 0 19 3 20 21
11 11 -6 25 -9 32 -6 7 2 6 5 -4 5 -8 1 -26 12 -39 26 -16 17 -27 22 -34 15
-13 -13 -29 -13 -21 0 7 11 7 11 -20 0z"/>
<path d="M8325 5800 c-3 -5 -2 -10 4 -10 5 0 13 5 16 10 3 6 2 10 -4 10 -5 0
-13 -4 -16 -10z"/>
<path d="M1993 5793 c15 -2 39 -2 55 0 15 2 2 4 -28 4 -30 0 -43 -2 -27 -4z"/>
<path d="M4253 5793 c15 -2 39 -2 55 0 15 2 2 4 -28 4 -30 0 -43 -2 -27 -4z"/>
<path d="M7150 5790 c0 -5 23 -10 50 -10 28 0 50 5 50 10 0 6 -22 10 -50 10
-27 0 -50 -4 -50 -10z"/>
<path d="M2300 5780 c-8 -5 -12 -11 -9 -14 2 -3 11 -1 19 4 8 5 12 11 9 14 -2
3 -11 1 -19 -4z"/>
<path d="M1511 5757 c-13 -21 -12 -21 5 -5 10 10 16 20 13 22 -3 3 -11 -5 -18
-17z"/>
<path d="M1541 5764 c0 -11 3 -14 6 -6 3 7 2 16 -1 19 -3 4 -6 -2 -5 -13z"/>
<path d="M1570 5770 c0 -5 5 -10 11 -10 5 0 7 5 4 10 -3 6 -8 10 -11 10 -2 0
-4 -4 -4 -10z"/>
<path d="M8470 5754 c0 -8 5 -12 10 -9 6 4 8 11 5 16 -9 14 -15 11 -15 -7z"/>
<path d="M4626 5734 c-20 -20 -21 -30 -1 -14 19 16 45 6 45 -17 0 -10 -14 -36
-31 -56 l-32 -38 38 3 c21 2 40 8 42 14 2 7 -6 10 -24 6 l-28 -5 21 24 c31 35
38 64 19 83 -20 20 -29 20 -49 0z"/>
<path d="M695 5258 c-4 -9 -2 -25 4 -37 15 -26 14 -31 -5 -31 -11 0 -14 6 -8
23 10 33 -6 13 -27 -33 -15 -33 -16 -40 -4 -40 8 0 14 3 14 8 -4 23 4 32 26
32 18 0 25 -5 25 -20 0 -13 7 -20 20 -20 17 0 18 3 10 18 -6 9 -19 40 -30 67
-13 36 -20 45 -25 33z"/>
<path d="M5038 5257 c9 -11 13 -35 10 -67 l-3 -50 43 0 c47 0 64 19 44 50 -8
13 -7 21 1 29 18 18 -14 42 -64 48 -40 6 -43 5 -31 -10z m72 -27 c0 -13 -7
-20 -20 -20 -13 0 -20 7 -20 20 0 13 7 20 20 20 13 0 20 -7 20 -20z m5 -55 c0
-13 -8 -21 -22 -23 -19 -3 -23 1 -23 23 0 22 4 26 23 23 14 -2 22 -10 22 -23z"/>
<path d="M2398 5188 c20 -20 15 -76 -8 -90 -11 -7 -20 -16 -20 -21 0 -13 48
23 65 50 10 14 12 22 6 19 -7 -5 -14 4 -17 23 -4 19 -13 31 -22 31 -12 0 -13
-3 -4 -12z"/>
<path d="M2454 5181 c0 -11 4 -17 8 -15 4 3 8 12 8 20 0 8 -4 14 -8 14 -4 0
-8 -9 -8 -19z"/>
<path d="M6936 5192 c-2 -4 -1 -14 5 -22 17 -28 11 -71 -11 -77 -19 -5 -29
-23 -12 -23 11 0 54 47 77 83 15 23 16 30 5 40 -10 9 -11 9 -8 -3 6 -18 -9
-50 -22 -50 -6 0 -10 11 -10 24 0 25 -15 43 -24 28z"/>
<path d="M780 5151 c0 -6 5 -13 10 -16 6 -3 10 1 10 9 0 9 -4 16 -10 16 -5 0
-10 -4 -10 -9z"/>
<path d="M2491 5094 c-18 -36 -31 -68 -28 -71 3 -3 17 18 31 46 15 28 27 51
29 51 1 0 1 -118 -1 -262 l-3 -262 -29 44 c-41 62 -137 157 -190 189 -62 36
-165 37 -233 2 -153 -79 -387 -436 -547 -836 -58 -146 -51 -133 -60 -110 -7
15 -9 10 -9 -22 l-1 -43 -234 0 c-146 0 -237 -4 -241 -10 -4 -7 75 -10 230
-10 186 0 236 -3 232 -12 -6 -14 -102 -262 -193 -498 -31 -80 -69 -179 -85
-220 -29 -74 -37 -113 -20 -94 4 5 27 61 50 124 23 63 55 149 71 190 47 119
135 349 161 420 l24 65 6 -35 c7 -41 12 -31 9 23 l-2 37 536 0 536 0 0 -525
c0 -357 3 -525 10 -525 8 0 9 164 4 525 l-7 525 54 1 c30 1 116 3 192 5 l137
3 1 -52 c1 -41 3 -46 8 -22 l6 30 17 -40 c9 -22 50 -121 93 -220 66 -155 187
-450 208 -509 4 -10 10 -16 13 -13 10 9 -95 271 -262 660 -35 81 -64 152 -64
157 0 6 73 10 183 10 l182 0 -45 -27 c-55 -32 -55 -32 -48 -38 6 -7 128 64
128 74 0 4 -29 21 -65 39 -74 36 -90 25 -17 -12 l47 -25 -185 2 -185 2 -4 40
c-3 34 -5 36 -10 16 -6 -21 -14 -8 -55 85 -79 177 -184 382 -247 481 -33 51
-59 95 -59 98 0 3 16 5 35 5 19 0 35 5 35 10 0 6 -20 10 -45 10 l-45 0 0 273
c1 287 0 284 43 206 10 -17 20 -29 24 -26 6 6 -67 137 -77 137 -3 0 -20 -30
-39 -66z m-196 -282 c46 -24 124 -102 184 -184 l42 -58 -36 0 c-19 0 -35 -4
-35 -10 0 -5 15 -10 34 -10 l35 0 3 -107 c2 -60 3 -223 3 -363 l0 -255 -527
-3 c-291 -1 -528 1 -528 4 0 15 77 199 142 339 150 325 335 586 458 650 41 21
115 33 155 25 17 -4 48 -16 70 -28z m285 -330 c12 -20 33 -58 49 -83 76 -122
271 -529 271 -565 0 -9 -43 -12 -177 -11 l-178 2 -3 353 c-1 240 1 351 8 347
6 -4 19 -23 30 -43z"/>
<path d="M2363 4628 c-23 -30 -22 -46 3 -52 17 -5 24 -13 24 -31 0 -21 -5 -25
-31 -25 -17 0 -28 -4 -24 -10 10 -16 41 -11 60 10 15 17 16 24 7 45 -7 14 -19
28 -27 31 -20 8 -9 24 16 24 10 0 19 5 19 10 0 14 -36 12 -47 -2z"/>
<path d="M5170 5150 c0 -5 5 -10 10 -10 6 0 10 5 10 10 0 6 -4 10 -10 10 -5 0
-10 -4 -10 -10z"/>
<path d="M7033 5085 c-35 -74 -26 -89 11 -17 l25 47 0 -260 c0 -247 -1 -259
-17 -239 -9 12 -37 48 -62 79 -152 195 -323 212 -482 48 -146 -149 -306 -417
-441 -735 -41 -97 -56 -125 -65 -116 -9 9 -12 1 -12 -35 l0 -47 -242 -2 -243
-3 238 -2 c130 -2 237 -5 237 -7 0 -3 -14 -40 -31 -83 -53 -131 -138 -352
-185 -478 -25 -66 -51 -133 -58 -150 -29 -67 -38 -96 -32 -102 3 -3 7 -4 9 -2
3 5 53 135 100 259 128 341 207 532 207 503 0 -18 5 -33 10 -33 6 0 10 20 10
45 l0 45 530 0 530 0 0 -525 c0 -343 3 -525 10 -525 7 0 10 182 10 525 l0 525
186 0 186 0 -3 -45 c-2 -24 0 -47 4 -51 4 -4 7 6 8 22 1 25 5 20 31 -36 17
-36 56 -128 88 -205 31 -77 90 -221 130 -320 78 -191 77 -191 85 -184 2 3 -27
84 -66 180 -39 96 -93 228 -119 294 -27 66 -69 167 -94 225 -25 58 -46 108
-46 112 0 5 78 8 173 8 l172 -1 -44 -26 c-24 -15 -40 -28 -34 -30 9 -3 133 65
133 73 0 9 -123 65 -133 61 -7 -2 11 -16 38 -30 l50 -26 -182 -1 -183 0 -1 38
c0 29 -2 33 -9 17 -7 -17 -11 -13 -30 30 -82 185 -191 403 -255 511 -41 69
-75 127 -75 129 0 2 19 6 43 8 l42 4 -48 1 c-28 1 -50 7 -52 15 -3 7 -4 131
-3 277 l3 265 28 -48 c16 -27 31 -46 34 -43 7 7 -59 118 -73 123 -5 2 -24 -26
-41 -62z m-207 -270 c70 -36 141 -106 222 -222 l23 -33 -43 -2 -43 -1 43 -4
42 -4 0 -365 0 -364 -107 0 c-60 0 -298 -3 -530 -7 -268 -3 -423 -2 -423 4 0
10 53 142 106 263 64 148 252 485 284 510 4 3 25 30 47 60 126 170 256 227
379 165z m336 -404 c50 -88 199 -390 248 -502 l39 -89 -182 2 -182 3 -3 355
-2 355 22 -29 c13 -17 40 -59 60 -95z"/>
<path d="M6770 4619 c-10 -6 -11 -9 -2 -9 8 0 12 -18 12 -54 0 -34 -5 -56 -12
-59 -7 -3 -1 -6 14 -6 24 -1 26 1 19 27 -4 15 -6 44 -5 65 1 42 -5 50 -26 36z"/>
<path d="M6856 4608 c-22 -30 -20 -71 3 -99 16 -19 23 -22 37 -13 44 27 30
133 -18 134 -4 0 -14 -10 -22 -22z m49 -26 c3 -16 1 -41 -5 -56 -9 -23 -13
-26 -25 -16 -18 15 -20 81 -3 98 15 15 25 7 33 -26z"/>
<path d="M5941 4429 c-10 -11 -21 -34 -23 -49 -5 -32 13 -83 32 -95 9 -6 9 -2
0 15 -19 35 -16 107 5 130 10 11 15 20 12 20 -3 0 -15 -9 -26 -21z"/>
<path d="M6094 4430 c21 -32 21 -114 0 -134 -8 -9 -11 -16 -5 -16 19 0 41 44
41 82 0 26 -8 45 -26 65 -22 25 -24 25 -10 3z"/>
<path d="M1389 4418 c-20 -36 -15 -97 10 -121 l22 -22 -15 30 c-20 37 -20 72
-2 108 8 15 11 27 6 27 -5 0 -15 -10 -21 -22z"/>
<path d="M1554 4418 c20 -29 20 -87 1 -116 -13 -17 -13 -21 -2 -16 17 6 37 47
37 75 0 26 -27 79 -41 79 -5 0 -3 -10 5 -22z"/>
<path d="M5833 4402 c-7 -4 -12 -23 -11 -42 0 -19 -2 -45 -6 -57 -6 -18 -3
-23 19 -29 18 -4 32 -2 42 9 22 22 9 47 -24 48 l-28 1 26 9 c25 9 48 59 28 59
-4 0 -13 2 -21 5 -7 3 -19 1 -25 -3z m31 -18 c7 -18 0 -34 -15 -34 -5 0 -9 11
-9 25 0 28 15 34 24 9z m16 -84 c0 -5 -11 -10 -25 -10 -14 0 -25 5 -25 10 0 6
11 10 25 10 14 0 25 -4 25 -10z"/>
<path d="M988 4388 c7 -7 12 -30 12 -51 0 -30 -4 -40 -20 -44 -19 -5 -29 -23
-13 -23 14 0 61 52 58 64 -2 6 -6 23 -9 39 -4 16 -13 27 -23 27 -13 0 -14 -3
-5 -12z"/>
<path d="M1043 4388 c2 -7 0 -22 -5 -33 -9 -20 -9 -20 6 -1 18 23 21 46 5 46
-6 0 -9 -6 -6 -12z"/>
<path d="M1281 4358 c0 -24 -2 -52 -3 -63 -4 -25 43 -33 61 -11 19 23 6 46
-26 47 l-28 1 26 9 c32 12 47 59 19 59 -13 0 -16 -6 -12 -26 4 -20 1 -25 -9
-22 -8 3 -14 15 -13 27 0 11 -3 21 -7 21 -5 0 -8 -19 -8 -42z m59 -58 c0 -5
-11 -10 -25 -10 -14 0 -25 5 -25 10 0 6 11 10 25 10 14 0 25 -4 25 -10z"/>
<path d="M1465 4386 c10 -7 16 -20 13 -27 -3 -8 0 -23 8 -34 11 -15 17 -16 26
-7 8 8 8 12 1 12 -6 0 -13 9 -16 21 -4 15 0 23 14 26 10 3 19 9 19 14 0 13
-17 11 -26 -2 -4 -8 -9 -8 -17 0 -6 6 -18 11 -26 11 -11 0 -10 -3 4 -14z"/>
<path d="M5528 4388 c7 -7 12 -30 12 -51 0 -30 -4 -40 -20 -44 -11 -3 -20 -9
-20 -14 0 -21 21 -6 59 42 41 51 51 79 30 79 -6 0 -9 -6 -6 -12 5 -16 -10 -48
-23 -48 -6 0 -10 14 -10 30 0 22 -5 30 -17 30 -13 0 -14 -3 -5 -12z"/>
<path d="M6003 4389 c23 -14 22 -50 -3 -56 -11 -3 -20 -9 -20 -14 0 -14 11
-11 32 8 17 15 18 15 18 0 0 -19 15 -23 25 -7 3 6 1 10 -4 10 -6 0 -11 9 -11
19 0 34 -11 51 -34 51 -19 -1 -19 -2 -3 -11z"/>
<path d="M6045 4390 c-3 -5 1 -10 9 -10 9 0 16 5 16 10 0 6 -4 10 -9 10 -6 0
-13 -4 -16 -10z"/>
<path d="M1150 4380 c-34 -7 -34 -7 13 -9 26 0 47 4 47 9 0 11 -8 11 -60 0z"/>
<path d="M5661 4386 c8 -8 78 -10 85 -3 4 4 -14 7 -41 7 -27 0 -46 -2 -44 -4z"/>
<path d="M1143 4343 c15 -2 37 -2 50 0 12 2 0 4 -28 4 -27 0 -38 -2 -22 -4z"/>
<path d="M5683 4343 c15 -2 39 -2 55 0 15 2 2 4 -28 4 -30 0 -43 -2 -27 -4z"/>
<path d="M1440 4320 c0 -5 4 -10 9 -10 6 0 13 5 16 10 3 6 -1 10 -9 10 -9 0
-16 -4 -16 -10z"/>
<path d="M2393 3730 c-29 -12 -56 -66 -49 -95 12 -48 83 -39 111 14 20 41 19
57 -7 75 -25 18 -25 18 -55 6z m47 -15 c9 -11 9 -22 0 -50 -14 -42 -55 -68
-71 -44 -14 21 -2 71 22 92 26 21 33 21 49 2z"/>
<path d="M6912 3707 c-30 -32 -30 -93 -1 -102 45 -14 99 31 99 83 0 45 -63 57
-98 19z m78 -16 c0 -38 -40 -87 -63 -78 -40 15 -7 107 39 107 20 0 24 -5 24
-29z"/>
<path d="M3315 3710 c-3 -5 -1 -10 4 -10 18 0 12 -48 -6 -59 -10 -6 -13 -11
-6 -11 6 0 15 5 18 10 5 8 11 7 21 -1 12 -10 17 -9 27 1 9 9 9 11 0 6 -7 -3
-14 2 -18 14 -8 24 1 40 21 40 8 0 12 5 9 10 -5 8 -12 7 -23 -2 -12 -10 -16
-10 -19 0 -6 15 -19 16 -28 2z"/>
<path d="M7862 3689 c11 -18 10 -23 -11 -40 -16 -13 -19 -19 -8 -19 8 0 18 6
21 13 5 10 7 10 12 0 7 -15 34 -17 34 -3 0 6 -4 10 -9 10 -5 0 -11 14 -14 30
-4 18 -13 30 -22 30 -13 0 -13 -3 -3 -21z"/>
<path d="M7895 3700 c-3 -5 1 -10 9 -10 9 0 16 5 16 10 0 6 -4 10 -9 10 -6 0
-13 -4 -16 -10z"/>
<path d="M1575 3635 c-32 -31 -35 -89 -6 -105 26 -14 50 -3 57 26 7 29 -11 54
-38 54 -18 0 -19 2 -7 16 7 9 22 20 34 24 17 8 18 9 2 9 -10 1 -29 -10 -42
-24z m30 -70 c0 -43 -29 -40 -33 3 -3 28 0 33 15 30 13 -2 18 -12 18 -33z"/>
<path d="M2893 3653 c-22 -8 -14 -19 15 -18 23 0 27 -4 24 -25 -1 -13 -15 -37
-29 -52 l-27 -28 42 0 c23 0 42 4 42 9 0 4 -11 6 -25 3 -31 -5 -31 -2 0 44 19
28 22 40 14 55 -9 18 -30 23 -56 12z"/>
<path d="M6129 3647 c-19 -15 -39 -50 -39 -70 0 -8 8 -25 18 -37 16 -20 21
-21 41 -11 31 17 26 73 -6 81 -25 6 -20 20 12 38 14 8 15 11 5 11 -8 0 -22 -5
-31 -12z m19 -70 c2 -10 1 -25 -2 -34 -9 -23 -36 3 -36 34 0 18 5 24 17 21 10
-2 19 -11 21 -21z"/>
<path d="M7431 3646 c-9 -11 -6 -12 14 -8 21 4 25 0 25 -18 0 -13 -11 -38 -26
-57 l-25 -33 35 0 c19 0 38 4 41 10 4 6 -6 7 -27 3 l-33 -6 28 32 c30 36 35
76 11 85 -23 9 -30 8 -43 -8z"/>
<path d="M1453 3573 c15 -2 39 -2 55 0 15 2 2 4 -28 4 -30 0 -43 -2 -27 -4z"/>
<path d="M5993 3573 c15 -2 39 -2 55 0 15 2 2 4 -28 4 -30 0 -43 -2 -27 -4z"/>
<path d="M670 2380 c-29 -29 -26 -74 6 -99 32 -25 37 -26 61 -3 10 9 14 14 9
10 -6 -5 -20 -8 -33 -8 -31 0 -50 41 -37 78 12 33 39 40 66 15 21 -17 21 -17
15 0 -4 10 -7 21 -7 23 0 13 -63 1 -80 -16z"/>
<path d="M5056 2348 c2 -28 -1 -57 -7 -65 -9 -10 -3 -13 30 -13 31 0 48 6 66
25 48 47 21 105 -49 105 l-43 0 3 -52z m78 20 c21 -30 20 -44 -4 -68 -36 -36
-50 -26 -50 35 0 48 3 55 19 55 11 0 27 -10 35 -22z"/>
<path d="M2411 2298 c7 -37 5 -45 -13 -61 -11 -10 -19 -20 -16 -23 3 -2 26 18
52 47 44 49 58 79 36 79 -6 0 -10 -6 -9 -12 3 -18 -11 -48 -22 -48 -5 0 -9 14
-9 30 0 19 -5 30 -14 30 -10 0 -12 -9 -5 -42z"/>
<path d="M6951 2299 c10 -44 0 -69 -28 -69 -8 0 -11 -5 -7 -11 4 -7 18 1 38
20 41 40 69 88 56 96 -5 3 -10 -2 -10 -12 0 -10 -7 -26 -15 -36 -13 -18 -14
-17 -17 14 -2 18 -8 34 -15 36 -8 3 -9 -7 -2 -38z"/>
<path d="M2500 2240 c-17 -34 -29 -67 -27 -73 2 -7 16 11 30 38 l26 50 0 -255
1 -255 -27 35 c-14 19 -60 69 -102 111 -60 59 -88 80 -130 94 -176 58 -328
-62 -544 -432 -70 -119 -164 -314 -218 -452 -18 -46 -35 -79 -37 -72 -9 27
-22 7 -22 -34 l0 -45 -237 -2 -238 -3 233 -2 c127 -2 232 -5 232 -6 0 -1 -25
-68 -56 -147 -30 -80 -78 -206 -106 -280 -28 -74 -68 -180 -88 -235 -21 -55
-43 -112 -49 -128 -6 -15 -7 -27 -2 -27 10 0 7 -7 73 170 28 74 61 162 74 195
12 33 54 143 93 245 65 171 76 194 72 147 -1 -9 3 -17 8 -17 6 0 11 18 11 40
l0 40 530 0 530 0 1 -332 c1 -363 7 -599 14 -607 3 -2 5 208 5 467 l0 472 185
0 185 0 0 -45 c0 -48 17 -62 22 -19 2 20 10 9 35 -53 17 -43 49 -121 71 -173
98 -233 156 -371 185 -445 35 -90 35 -90 43 -83 7 8 -104 283 -278 691 -27 65
-48 120 -45 123 2 2 78 3 168 2 l164 -3 -38 -24 c-21 -13 -36 -26 -33 -28 6
-6 126 66 126 76 0 11 -119 66 -126 58 -3 -3 16 -17 43 -31 l48 -25 -182 -1
-183 0 0 40 c0 38 -20 59 -20 23 -1 -21 -14 5 -84 162 -64 143 -139 286 -211
405 -31 52 -59 98 -62 103 -2 4 13 5 35 1 25 -4 42 -2 46 5 5 7 -9 11 -43 11
l-51 0 0 273 0 272 27 -45 c32 -55 32 -55 38 -48 6 6 -62 125 -76 134 -5 2
-22 -23 -39 -56z m-210 -279 c51 -27 114 -86 176 -165 l64 -81 -43 -6 c-31 -4
-38 -7 -24 -13 9 -5 29 -6 42 -4 l25 5 0 -367 0 -368 -527 -4 c-291 -2 -530
-3 -532 -2 -6 5 83 219 149 359 143 302 319 553 439 628 71 44 167 51 231 18z
m334 -401 c64 -105 181 -340 250 -497 l44 -103 -184 0 -184 0 0 357 c0 199 4
353 9 348 4 -6 34 -53 65 -105z"/>
<path d="M2340 1749 c-7 -11 -10 -21 -8 -22 32 -16 44 -28 46 -46 3 -21 -5
-25 -42 -21 -11 1 -15 -3 -12 -9 12 -18 44 -12 60 11 21 30 20 35 -10 63 -19
18 -23 26 -13 29 40 13 42 14 17 15 -18 1 -31 -6 -38 -20z"/>
<path d="M780 2280 c0 -5 5 -10 10 -10 6 0 10 5 10 10 0 6 -4 10 -10 10 -5 0
-10 -4 -10 -10z"/>
<path d="M5190 2280 c0 -5 5 -10 10 -10 6 0 10 5 10 10 0 6 -4 10 -10 10 -5 0
-10 -4 -10 -10z"/>
<path d="M7040 2231 c-33 -66 -34 -71 -21 -71 5 0 18 21 29 48 l20 47 1 -254
c1 -140 -1 -252 -3 -250 -2 2 -27 33 -55 68 -126 158 -240 208 -365 161 -159
-60 -379 -379 -571 -827 -27 -62 -54 -113 -61 -113 -8 0 -14 -16 -16 -37 l-3
-38 -237 -3 c-147 -1 -238 -6 -238 -12 0 -6 88 -10 235 -10 228 0 235 -1 226
-19 -6 -10 -21 -47 -34 -82 -14 -35 -55 -143 -91 -239 -37 -96 -83 -215 -101
-265 -19 -49 -45 -118 -59 -153 -14 -35 -20 -62 -14 -60 10 4 46 92 117 283
23 64 180 475 188 495 4 10 9 2 12 -20 4 -22 9 -31 14 -23 4 7 5 28 1 48 l-6
35 533 0 534 0 3 -238 c1 -130 2 -342 2 -471 0 -129 3 -232 6 -228 4 3 6 215
5 471 l-2 466 158 1 c87 0 170 3 186 5 26 5 27 4 27 -46 0 -27 5 -50 10 -50 6
0 10 12 10 28 1 20 8 9 29 -43 236 -578 293 -715 302 -715 4 0 -3 26 -15 58
-31 77 -142 347 -211 512 -31 74 -67 163 -80 198 l-25 62 175 0 c96 0 175 -2
175 -4 0 -3 -18 -15 -40 -27 -34 -19 -52 -39 -35 -39 9 0 125 75 125 80 0 5
-115 70 -124 70 -19 0 0 -20 34 -35 23 -10 43 -21 45 -25 2 -4 -77 -7 -175 -8
l-180 -2 0 40 c0 22 -4 40 -10 40 -5 0 -10 -10 -10 -22 0 -13 -18 16 -41 67
-74 164 -188 389 -249 493 -33 57 -60 105 -60 108 0 2 16 4 35 4 19 0 35 5 35
10 0 6 -20 10 -45 10 l-45 0 0 273 1 272 27 -47 c15 -27 31 -48 35 -48 11 0
-58 123 -72 128 -5 2 -24 -24 -41 -57z m-212 -271 c49 -22 161 -130 211 -202
l32 -48 -36 0 c-19 0 -35 -4 -35 -10 0 -5 16 -10 35 -10 l35 0 0 -365 0 -365
-525 0 c-446 0 -525 2 -525 14 0 31 159 375 239 516 110 195 109 194 188 296
64 83 142 152 203 178 49 21 127 19 178 -4z m302 -341 c0 -3 23 -46 51 -95 85
-146 269 -529 269 -558 0 -3 -81 -6 -180 -6 l-180 0 0 358 c0 356 0 357 20
332 11 -14 20 -28 20 -31z"/>
<path d="M6778 1705 c-2 -53 0 -65 12 -65 12 0 14 12 12 65 -2 36 -7 65 -12
65 -5 0 -10 -29 -12 -65z"/>
<path d="M6862 1758 c-7 -7 -12 -30 -12 -53 0 -44 13 -65 42 -65 21 0 38 29
38 65 0 54 -37 84 -68 53z m43 -54 c0 -37 -4 -49 -15 -49 -16 0 -27 63 -16 92
12 31 31 6 31 -43z"/>
<path d="M1401 1564 c-29 -37 -27 -86 5 -121 22 -25 24 -25 10 -3 -20 31 -21
99 0 128 21 31 10 28 -15 -4z"/>
<path d="M1550 1587 c0 -2 7 -18 16 -36 18 -36 12 -85 -15 -115 -15 -18 -15
-18 6 -7 12 6 27 28 34 50 9 31 8 43 -5 69 -14 27 -36 51 -36 39z"/>
<path d="M5947 1572 c-26 -28 -31 -75 -13 -110 23 -44 38 -50 21 -8 -19 44
-19 73 -1 109 17 32 15 34 -7 9z"/>
<path d="M6104 1570 c9 -13 16 -43 16 -65 0 -22 -7 -52 -16 -65 -14 -22 -12
-22 10 3 17 19 26 39 26 62 0 23 -9 43 -26 62 -22 25 -24 25 -10 3z"/>
<path d="M1294 1538 c-4 -6 -8 -35 -9 -64 -2 -58 10 -69 53 -50 34 14 29 46
-8 46 -16 0 -30 5 -30 10 0 6 9 10 20 10 27 0 44 42 21 52 -25 10 -39 9 -47
-4z m36 -18 c0 -11 -7 -20 -15 -20 -8 0 -15 9 -15 20 0 11 7 20 15 20 8 0 15
-9 15 -20z m18 -74 c8 -9 -27 -19 -44 -12 -22 8 -8 26 18 21 11 -3 23 -7 26
-9z"/>
<path d="M5833 1534 c-3 -8 -6 -36 -7 -62 l-1 -47 35 0 c29 0 36 4 38 23 3 19
-1 22 -27 22 -17 0 -31 5 -31 10 0 6 9 10 20 10 24 0 44 41 26 52 -19 13 -46
9 -53 -8z m37 -15 c0 -24 -23 -21 -28 4 -2 10 3 17 12 17 10 0 16 -9 16 -21z
m10 -69 c12 -8 12 -10 -3 -16 -22 -8 -50 3 -42 16 8 12 25 13 45 0z"/>
<path d="M998 1528 c16 -16 15 -73 -1 -87 -8 -6 -17 -8 -20 -4 -4 3 -7 -1 -7
-10 0 -14 3 -15 18 -6 23 15 55 59 42 59 -5 0 -10 14 -10 30 0 22 -5 30 -17
30 -13 0 -14 -3 -5 -12z"/>
<path d="M1048 1515 c-6 -30 -2 -32 12 -6 6 11 6 22 1 25 -5 3 -11 -5 -13 -19z"/>
<path d="M1468 1533 c6 -3 12 -12 12 -21 1 -9 6 -27 14 -40 12 -22 13 -22 27
-6 8 10 9 15 2 11 -7 -4 -14 1 -18 13 -7 22 2 43 15 35 5 -3 11 -1 14 3 3 5
-14 9 -37 9 -23 0 -36 -2 -29 -4z"/>
<path d="M5543 1501 c8 -30 8 -43 -2 -55 -7 -9 -17 -13 -22 -10 -5 3 -9 0 -9
-5 0 -18 15 -12 42 17 49 53 69 92 48 92 -5 0 -10 -8 -10 -19 0 -10 -7 -24
-15 -31 -13 -11 -15 -8 -15 19 0 19 -5 31 -14 31 -11 0 -11 -8 -3 -39z"/>
<path d="M6014 1524 c21 -21 20 -30 -6 -48 -12 -9 -17 -16 -11 -16 7 0 15 5
19 12 5 8 11 6 19 -6 12 -15 13 -15 26 1 8 9 9 14 3 10 -7 -4 -14 2 -17 14 -4
15 0 23 14 26 22 6 26 23 4 23 -8 0 -15 -5 -15 -12 0 -9 -3 -9 -12 0 -7 7 -18
12 -26 12 -10 0 -10 -3 2 -16z"/>
<path d="M1143 1523 c15 -2 39 -2 55 0 15 2 2 4 -28 4 -30 0 -43 -2 -27 -4z"/>
<path d="M5688 1523 c18 -2 45 -2 60 0 15 2 0 4 -33 4 -33 0 -45 -2 -27 -4z"/>
<path d="M1130 1490 c0 -5 20 -10 45 -10 25 0 45 5 45 10 0 6 -20 10 -45 10
-25 0 -45 -4 -45 -10z"/>
<path d="M5670 1490 c0 -5 20 -10 45 -10 25 0 45 5 45 10 0 6 -20 10 -45 10
-25 0 -45 -4 -45 -10z"/>
<path d="M1456 1471 c-12 -5 -15 -10 -9 -14 6 -4 16 0 23 8 14 17 13 17 -14 6z"/>
<path d="M6942 877 c-61 -32 -67 -118 -9 -125 20 -2 36 5 57 27 34 34 39 70
12 94 -22 20 -30 21 -60 4z m53 -17 c9 -30 -25 -94 -52 -98 -17 -2 -24 3 -28
21 -15 58 63 132 80 77z"/>
<path d="M2383 865 c-42 -29 -47 -103 -9 -118 40 -15 96 34 96 83 0 48 -44 65
-87 35z m67 -30 c0 -25 -8 -44 -24 -60 -32 -32 -56 -23 -56 19 0 42 25 76 56
76 21 0 24 -5 24 -35z"/>
<path d="M3330 839 c14 -25 6 -49 -15 -49 -8 0 -15 -4 -15 -10 0 -15 11 -12
32 7 17 15 18 15 18 0 0 -19 15 -23 25 -7 3 6 1 10 -4 10 -6 0 -11 11 -11 25
0 16 6 25 15 25 8 0 15 5 15 10 0 13 -13 13 -27 -1 -8 -8 -13 -8 -17 0 -13 21
-27 12 -16 -10z"/>
<path d="M7857 854 c-3 -4 0 -13 8 -21 11 -11 12 -19 4 -34 -5 -11 -14 -17
-20 -14 -5 4 -9 1 -9 -4 0 -14 17 -14 25 -1 5 8 11 7 21 -1 12 -10 17 -9 27 1
8 9 8 11 1 7 -14 -8 -26 17 -18 38 4 8 13 15 21 15 8 0 11 5 8 10 -5 8 -12 7
-23 -2 -12 -10 -16 -10 -19 0 -5 13 -16 16 -26 6z"/>
<path d="M2893 813 c-16 -6 -17 -35 -2 -50 8 -8 8 -13 0 -17 -17 -11 -13 -53
5 -60 18 -7 54 10 54 25 0 6 -5 19 -11 30 -8 15 -7 24 2 36 11 13 10 18 -6 29
-20 15 -23 15 -42 7z m37 -28 c0 -8 -6 -15 -14 -15 -8 0 -16 7 -20 15 -4 10 1
15 14 15 11 0 20 -7 20 -15z m-2 -69 c3 -13 -1 -17 -14 -14 -11 2 -20 11 -22
22 -3 13 1 17 14 14 11 -2 20 -11 22 -22z"/>
<path d="M7423 794 c-3 -9 -2 -24 4 -33 7 -11 7 -21 0 -32 -24 -38 25 -68 54
-33 10 12 10 20 1 35 -9 13 -9 25 -3 38 7 12 6 22 -1 29 -17 17 -48 15 -55 -4z
m47 -7 c0 -8 -3 -17 -7 -20 -9 -9 -34 13 -27 24 8 14 34 11 34 -4z m-6 -63 c9
-25 7 -34 -8 -34 -19 0 -29 17 -22 35 7 20 22 19 30 -1z"/>
<path d="M1563 794 c-7 -3 -13 -10 -13 -16 0 -6 6 -6 15 2 12 10 18 10 30 0
20 -16 11 -46 -23 -82 l-26 -28 42 0 c23 0 42 5 42 10 0 6 -11 8 -25 4 -32 -8
-31 -1 2 43 21 27 24 39 16 51 -10 18 -39 25 -60 16z"/>
<path d="M1673 761 c-35 -48 -35 -61 3 -61 16 0 24 -6 24 -17 0 -13 4 -11 13
7 7 14 10 27 6 30 -4 3 -9 23 -11 45 l-3 40 -32 -44z m24 -38 c-3 -3 -13 -3
-21 -1 -15 3 -15 6 1 28 l18 25 3 -23 c2 -13 1 -26 -1 -29z"/>
<path d="M6107 793 c-14 -13 -6 -20 18 -15 34 6 34 -23 -1 -69 l-25 -34 32 -3
c17 -2 36 1 42 7 8 8 2 9 -23 4 l-35 -6 28 36 c30 40 35 72 11 81 -20 8 -39 8
-47 -1z"/>
<path d="M6218 756 c-34 -53 -34 -56 -4 -56 16 0 26 -8 31 -22 l8 -23 4 23 c2
12 9 22 16 22 8 0 8 3 -1 12 -7 7 -12 29 -12 50 0 21 -3 38 -7 38 -5 0 -20
-20 -35 -44z m22 -16 c0 -20 -5 -30 -15 -30 -18 0 -19 14 -3 40 17 26 18 25
18 -10z"/>
<path d="M1440 721 c0 -9 78 -6 88 3 3 3 -16 6 -41 6 -26 0 -47 -4 -47 -9z"/>
<path d="M5980 720 c0 -5 23 -10 50 -10 28 0 50 4 50 8 0 4 -22 9 -50 10 -28
1 -50 -2 -50 -8z"/>
</g>
</svg>
