<?xml version="1.0" standalone="no"?>
<!DOCTYPE svg PUBLIC "-//W3C//DTD SVG 20010904//EN"
 "http://www.w3.org/TR/2001/REC-SVG-20010904/DTD/svg10.dtd">
<svg version="1.0" xmlns="http://www.w3.org/2000/svg"
 width="1410.000000pt" height="556.000000pt" viewBox="0 0 1410.000000 556.000000"
 preserveAspectRatio="xMidYMid meet">
<metadata>
Created by potrace 1.16, written by Peter Selinger 2001-2019
</metadata>
<g transform="translate(0.000000,556.000000) scale(0.100000,-0.100000)"
fill="#000000" stroke="none">
<path d="M4713 5392 c-11 -7 -19 -41 -59 -257 -9 -49 -18 -91 -19 -93 -2 -2
-15 22 -29 53 l-25 56 -26 -17 c-14 -9 -25 -21 -25 -26 0 -6 7 -5 15 2 13 11
20 3 47 -59 18 -39 37 -70 42 -68 9 3 37 129 80 360 l7 37 105 0 c68 0 103 4
99 10 -7 12 -194 13 -212 2z"/>
<path d="M5256 5295 c4 -8 10 -15 15 -15 5 0 9 -7 9 -16 0 -13 -10 -15 -55
-12 -30 1 -55 0 -55 -4 0 -5 43 -8 95 -8 52 0 95 -4 95 -8 0 -15 -75 -84 -132
-124 -32 -21 -58 -46 -58 -54 0 -12 5 -11 18 6 18 22 19 22 46 5 33 -22 164
-33 192 -17 15 9 -1 12 -71 12 -53 0 -99 6 -113 14 l-23 12 38 27 c47 32 154
133 147 139 -2 3 -27 3 -54 0 -40 -4 -50 -1 -50 10 0 14 -30 48 -43 48 -3 0
-4 -7 -1 -15z"/>
<path d="M5965 5247 c-20 -61 -20 -62 -23 -25 -3 35 -5 37 -33 31 -24 -5 -28
-3 -23 11 3 9 10 16 15 16 5 0 9 5 9 10 0 22 -30 9 -36 -16 -4 -16 -12 -23
-20 -20 -11 4 -14 -7 -15 -49 -2 -119 0 -166 8 -147 6 15 73 16 73 1 0 -5 5
-7 10 -4 6 3 10 33 10 65 0 32 5 62 11 65 5 4 14 18 19 31 8 21 16 24 60 24
l51 0 -7 -77 c-8 -99 -16 -115 -52 -107 -26 6 -26 6 -7 -9 48 -39 71 -4 79
121 l6 92 -55 0 c-51 0 -69 10 -45 25 11 7 4 25 -8 25 -4 0 -16 -28 -27 -63z
m-47 -45 c3 -29 1 -32 -26 -32 -25 0 -30 4 -34 30 -4 23 0 30 16 33 34 7 41 2
44 -31z m2 -77 c0 -32 -2 -35 -30 -35 -17 0 -30 5 -30 13 0 6 -3 22 -6 35 -6
20 -3 22 30 22 34 0 36 -1 36 -35z"/>
<path d="M6343 5291 c-3 -14 -13 -21 -29 -21 -22 0 -24 -4 -24 -55 0 -55 6
-65 27 -44 6 6 16 8 22 5 12 -8 15 -37 4 -35 -21 3 -66 -4 -50 -8 24 -6 21
-22 -10 -55 -15 -15 -22 -28 -16 -28 6 0 28 19 47 42 l36 42 0 -37 c0 -31 -3
-37 -21 -37 -18 0 -19 -2 -9 -15 21 -25 35 -11 40 41 l5 49 20 -40 c14 -28 27
-41 45 -43 24 -3 23 -2 -10 27 -34 30 -34 31 -16 46 10 8 24 17 30 20 8 3 7 7
-1 11 -8 3 -13 26 -13 60 l0 54 -36 0 c-30 0 -34 2 -25 14 9 10 9 16 1 21 -7
4 -14 -2 -17 -14z m57 -51 c0 -5 -20 -10 -45 -10 -25 0 -45 5 -45 10 0 6 20
10 45 10 25 0 45 -4 45 -10z m0 -41 c0 -5 -20 -9 -45 -9 -46 0 -63 16 -22 22
30 5 67 -2 67 -13z m0 -55 c-15 -17 -30 -9 -30 17 0 17 3 18 21 9 16 -9 18
-14 9 -26z"/>
<path d="M6540 5170 c0 -82 4 -141 10 -145 6 -4 10 31 11 97 0 57 1 120 2 140
1 23 -3 40 -10 43 -10 3 -13 -28 -13 -135z"/>
<path d="M7233 5289 c-4 -13 -20 -48 -35 -78 -24 -45 -25 -52 -9 -37 20 18 20
18 20 -50 -1 -99 0 -106 10 -100 5 3 8 50 6 103 -3 80 0 104 16 135 12 24 15
39 8 43 -6 4 -13 -3 -16 -16z"/>
<path d="M9070 5290 c0 -21 -7 -23 -52 -20 -16 1 -28 -3 -28 -9 0 -6 18 -11
40 -11 33 0 40 -3 40 -19 0 -17 -7 -19 -55 -18 -30 1 -55 -1 -55 -5 0 -5 32
-8 71 -8 62 0 70 -2 59 -15 -7 -8 -8 -15 -2 -15 5 0 15 7 22 15 9 10 31 15 72
15 49 0 58 2 49 13 -6 9 -23 12 -43 9 -31 -5 -32 -4 -18 14 8 10 23 26 33 35
17 14 18 17 3 22 -11 4 -22 -3 -33 -21 -37 -56 -83 -80 -83 -42 0 16 7 20 30
20 17 0 30 5 30 10 0 6 -14 10 -31 10 -23 0 -30 4 -26 14 3 8 -1 17 -9 20 -9
4 -14 -1 -14 -14z"/>
<path d="M9727 5303 c-4 -3 -7 -16 -8 -27 0 -21 0 -21 -16 2 -19 27 -38 29
-23 2 9 -18 8 -20 -15 -20 -17 0 -24 -4 -19 -11 4 -7 21 -9 40 -6 33 6 34 5
28 -21 -4 -15 -24 -60 -45 -100 -40 -76 -36 -89 7 -21 l24 39 90 0 90 0 -6
-32 c-8 -40 -27 -57 -57 -51 -17 3 -16 1 7 -13 29 -16 30 -16 48 6 10 12 18
32 18 44 0 11 3 32 7 45 5 21 3 23 -15 19 -19 -5 -22 -2 -22 27 0 28 -3 32
-21 28 -17 -5 -19 -2 -13 21 6 25 5 26 -41 26 -45 0 -47 1 -41 25 6 24 -3 33
-17 18z m83 -64 c0 -4 -7 -14 -15 -23 -13 -13 -12 -15 12 -18 20 -2 28 -9 28
-23 0 -18 -7 -20 -62 -20 -45 0 -63 4 -63 13 0 7 7 15 15 17 46 15 51 18 28
22 -32 6 -29 31 5 35 45 5 52 5 52 -3z"/>
<path d="M10474 5295 c-4 -8 -14 -15 -23 -15 -21 0 -41 -19 -41 -39 0 -11 6
-9 20 9 24 32 36 20 16 -17 -17 -34 -46 -62 -46 -44 0 6 -13 11 -30 11 -33 0
-35 5 -20 44 7 19 17 26 36 26 16 0 24 5 22 13 -3 6 -8 11 -11 10 -4 -2 -27
-3 -52 -3 -25 0 -45 -4 -45 -10 0 -5 9 -10 19 -10 17 0 18 -4 10 -37 -5 -21
-17 -50 -25 -65 -9 -17 -11 -28 -5 -28 6 0 11 6 11 13 0 8 3 8 9 -2 5 -8 7
-20 4 -28 -3 -7 -3 -23 1 -36 4 -19 11 -22 43 -19 l38 4 -4 45 c-3 43 7 62 32
63 4 0 7 -35 8 -77 0 -43 3 -72 6 -65 3 8 27 12 69 12 59 0 74 6 57 23 -3 4
-12 2 -19 -4 -17 -14 -44 -4 -44 16 0 10 10 15 30 15 17 0 30 5 30 11 0 6 -12
9 -27 7 -20 -2 -29 2 -31 15 -3 13 3 17 27 17 17 0 31 5 31 10 0 6 -12 9 -27
8 -43 -5 -36 26 7 32 20 3 30 8 23 13 -6 4 -18 4 -27 1 -10 -4 -24 3 -37 17
l-20 24 6 -22 c5 -19 2 -23 -14 -23 -24 0 -25 1 -9 35 9 20 18 25 49 25 32 0
37 -3 32 -17 -6 -16 -5 -16 10 -4 28 22 20 31 -28 31 -35 0 -43 3 -39 15 4 8
1 15 -5 15 -7 0 -14 -7 -17 -15z m24 -112 c-2 -10 -13 -19 -26 -21 -17 -3 -22
2 -22 17 0 16 6 21 26 21 19 0 25 -5 22 -17z m-118 -53 c0 -43 -3 -50 -20 -50
-17 0 -20 7 -20 50 0 43 3 50 20 50 17 0 20 -7 20 -50z m118 3 c-2 -10 -12
-18 -23 -18 -11 0 -21 8 -23 18 -3 13 3 17 23 17 20 0 26 -4 23 -17z m0 -50
c-2 -10 -13 -19 -26 -21 -17 -3 -22 2 -22 17 0 16 6 21 26 21 19 0 25 -5 22
-17z"/>
<path d="M4105 5243 c-9 -83 -23 -120 -45 -126 -16 -4 -20 0 -20 19 0 16 4 22
14 18 8 -3 17 -1 21 5 3 7 -2 11 -14 11 -14 0 -21 6 -21 20 0 15 7 20 27 20
14 0 23 3 19 8 -4 4 -17 7 -29 7 -32 0 -34 33 -3 41 14 3 26 10 26 15 0 13
-27 11 -35 -2 -4 -6 -13 -8 -20 -5 -10 4 -12 -12 -8 -75 5 -69 4 -79 -11 -79
-9 0 -16 -4 -16 -10 0 -6 55 -10 145 -10 90 0 145 4 145 10 0 6 -7 10 -16 10
-14 0 -16 12 -13 78 2 42 1 78 -3 80 -20 6 -59 1 -53 -8 3 -5 12 -7 19 -4 15
6 30 -22 20 -38 -3 -5 -15 -8 -25 -5 -11 3 -19 1 -19 -4 0 -5 9 -9 20 -9 13 0
20 -7 20 -20 0 -14 -7 -20 -21 -20 -11 0 -18 -4 -14 -10 3 -5 12 -7 20 -3 10
3 15 -2 15 -16 0 -18 -6 -21 -41 -21 -32 0 -39 3 -32 13 6 6 13 31 16 55 5 41
4 42 -24 42 -16 0 -29 5 -29 10 0 6 14 10 30 10 17 0 30 5 30 10 0 6 -13 10
-30 10 -22 0 -28 4 -24 15 4 8 1 15 -4 15 -6 0 -13 -26 -17 -57z m47 -68 c-3
-21 -10 -35 -18 -35 -8 0 -11 -6 -7 -16 4 -12 2 -15 -8 -12 -8 3 -13 16 -12
29 7 66 8 69 28 69 18 0 20 -5 17 -35z"/>
<path d="M5505 5165 c-1 -74 3 -135 7 -135 4 0 8 10 9 23 0 12 1 51 2 87 l2
65 43 -1 42 -1 0 49 0 48 -52 0 -53 0 0 -135z m85 105 c0 -5 -16 -10 -35 -10
-19 0 -35 5 -35 10 0 6 16 10 35 10 19 0 35 -4 35 -10z m0 -40 c0 -5 -16 -10
-35 -10 -19 0 -35 5 -35 10 0 6 16 10 35 10 19 0 35 -4 35 -10z"/>
<path d="M5650 5248 l0 -46 45 4 45 4 0 -75 0 -75 -27 0 -28 0 29 -15 c16 -9
33 -12 37 -8 4 4 9 65 11 134 l3 127 -57 -2 -58 -1 0 -47z m90 22 c0 -5 -16
-10 -35 -10 -19 0 -35 5 -35 10 0 6 16 10 35 10 19 0 35 -4 35 -10z m0 -40 c0
-5 -16 -10 -35 -10 -19 0 -35 5 -35 10 0 6 16 10 35 10 19 0 35 -4 35 -10z"/>
<path d="M6192 5255 c-27 -56 -28 -68 -2 -60 11 3 20 2 20 -3 0 -5 -9 -17 -20
-27 -30 -28 -26 -49 8 -39 15 4 37 7 50 7 26 -1 27 6 7 33 -13 17 -14 17 -15
2 0 -10 -4 -18 -9 -18 -5 0 -18 -3 -28 -7 -12 -5 -7 6 17 37 19 25 38 47 42
48 14 6 8 22 -7 22 -8 0 -15 -5 -15 -10 0 -10 -41 -31 -48 -25 -5 4 33 65 41
65 5 0 5 5 2 10 -11 18 -21 10 -43 -35z"/>
<path d="M6680 5260 c0 -33 -3 -40 -20 -40 -22 0 -26 20 -8 38 9 9 9 12 -2 12
-9 0 -24 -24 -37 -58 l-22 -57 22 28 c13 15 33 27 45 27 18 0 22 -6 22 -30 0
-28 -3 -30 -35 -30 -19 0 -35 -4 -35 -10 0 -5 16 -10 35 -10 34 0 35 -1 35
-40 l0 -40 -52 0 c-36 0 -49 -3 -42 -10 14 -14 201 -9 194 5 -3 6 -22 9 -42 7
l-38 -3 0 40 c0 40 1 41 36 41 24 0 34 4 31 13 -2 7 -17 11 -35 9 -30 -3 -32
-1 -32 27 0 30 2 31 41 31 26 0 38 4 33 11 -4 7 -20 8 -42 4 l-35 -6 6 40 c4
31 2 41 -9 41 -10 0 -14 -12 -14 -40z"/>
<path d="M6840 5163 c0 -77 4 -134 10 -138 6 -4 10 30 10 94 l0 101 40 0 c25
0 40 5 41 13 0 6 3 23 5 37 4 24 2 25 -51 25 l-55 0 0 -132z m90 107 c0 -5
-13 -10 -29 -10 -17 0 -33 5 -36 10 -4 6 8 10 29 10 20 0 36 -4 36 -10z m0
-30 c0 -13 -40 -13 -60 0 -11 7 -5 10 23 10 20 0 37 -4 37 -10z"/>
<path d="M6991 5245 c1 -27 -2 -59 -7 -69 -6 -16 -4 -18 11 -12 18 6 18 6 2
-12 -19 -21 -25 -122 -7 -122 6 0 10 9 10 19 0 12 9 21 25 25 18 5 25 13 24
29 -1 17 -2 18 -6 5 -6 -25 -39 -23 -39 2 0 15 7 20 28 20 27 0 35 9 21 23 -3
4 -12 2 -20 -4 -19 -16 -16 1 5 24 16 19 16 19 -5 13 -18 -6 -22 -3 -20 14 1
16 8 20 34 20 l33 0 0 -85 c0 -81 -1 -85 -22 -86 l-23 0 23 -10 c13 -5 28 -7
33 -3 5 3 9 62 9 132 l0 127 -55 0 -56 0 2 -50z m89 25 c0 -5 -15 -10 -34 -10
-19 0 -38 5 -41 10 -4 6 10 10 34 10 23 0 41 -4 41 -10z m0 -30 c0 -5 -15 -10
-34 -10 -19 0 -38 5 -41 10 -4 6 10 10 34 10 23 0 41 -4 41 -10z"/>
<path d="M7283 5264 c-41 -45 -23 -44 25 1 21 19 30 34 22 33 -8 0 -29 -16
-47 -34z"/>
<path d="M8415 5290 c-3 -5 -34 -11 -68 -11 -34 -1 -49 -4 -34 -6 24 -4 28 -8
23 -26 -3 -12 -6 -27 -6 -34 0 -6 -12 -25 -26 -42 -27 -33 -26 -39 6 -19 15
10 23 9 39 -6 29 -27 26 -39 -19 -80 -22 -20 -34 -36 -27 -36 17 0 81 67 100
105 8 17 18 44 21 62 l7 31 -39 -5 c-38 -5 -39 -4 -35 20 5 23 11 26 51 29 39
3 43 5 30 16 -11 9 -18 10 -23 2z m-16 -112 c-5 -18 -9 -34 -9 -35 0 -8 -18 0
-39 17 -19 17 -21 23 -11 35 7 8 25 15 41 15 26 0 27 -1 18 -32z"/>
<path d="M8528 5178 l-3 -123 -30 2 -30 1 33 -16 c46 -23 52 -10 52 120 0 58
3 113 6 122 4 10 1 16 -10 16 -13 0 -16 -19 -18 -122z"/>
<path d="M8666 5267 c-3 -18 -16 -50 -27 -72 l-21 -40 21 19 21 19 0 -88 c0
-131 18 -93 22 45 2 63 7 123 12 133 6 12 4 17 -7 17 -9 0 -17 -13 -21 -33z"/>
<path d="M9416 5268 c16 -18 32 -37 36 -42 5 -6 8 -3 8 6 0 17 -47 68 -63 68
-6 0 2 -15 19 -32z"/>
<path d="M10205 5290 c-4 -6 -55 -11 -123 -12 -81 -1 -95 -3 -47 -5 l71 -4 -1
-102 0 -102 -34 -3 -33 -3 3 80 c3 60 1 81 -8 81 -9 0 -13 -22 -13 -79 l0 -80
-32 -4 c-18 -2 33 -5 115 -5 86 -1 147 2 147 7 0 17 -20 23 -35 11 -7 -6 -31
-10 -52 -8 l-38 3 -3 53 -3 52 51 0 c37 0 50 4 47 13 -2 8 -19 11 -50 9 l-47
-4 0 41 0 40 62 3 c52 3 59 5 46 16 -11 9 -18 10 -23 2z"/>
<path d="M10742 5293 c-18 -7 -33 -39 -26 -57 10 -26 27 -18 21 10 -6 33 29
52 62 35 28 -15 27 -46 -4 -83 -14 -16 -25 -41 -24 -56 l1 -27 8 28 c5 16 20
38 34 51 32 27 36 80 7 96 -20 10 -57 12 -79 3z"/>
<path d="M8070 5280 c-106 -5 -115 -6 -60 -10 l65 -5 0 -123 c0 -91 3 -122 13
-122 9 0 12 25 12 90 0 50 3 90 6 90 3 0 24 -14 45 -31 21 -17 39 -26 39 -20
0 6 -20 26 -45 43 -32 23 -45 39 -45 56 0 22 4 23 48 22 71 -3 84 -1 77 10 -3
6 -12 9 -18 8 -7 -1 -68 -5 -137 -8z"/>
<path d="M8865 5280 c-4 -6 -42 -9 -86 -7 -43 1 -79 -1 -79 -5 0 -5 33 -8 73
-8 l72 0 -1 -92 c-2 -129 0 -121 -31 -114 l-28 6 29 -16 c28 -15 30 -15 43 2
8 10 13 28 12 39 -1 11 -1 55 0 98 1 61 4 77 16 77 8 0 15 4 15 9 0 13 -28 22
-35 11z"/>
<path d="M9494 5273 c-24 -76 -81 -163 -106 -163 -7 0 -9 24 -6 65 3 36 2 65
-3 65 -5 0 -9 -33 -9 -74 0 -69 -2 -76 -26 -95 -15 -12 -33 -21 -40 -21 -8 0
-14 -4 -14 -10 0 -14 12 -12 39 7 20 13 27 14 44 4 19 -12 119 -17 135 -7 4 2
6 23 4 46 -5 45 -10 47 -18 4 -7 -41 -11 -44 -52 -44 -68 0 -71 13 -19 69 36
39 97 143 97 167 0 12 -22 1 -26 -13z"/>
<path d="M1550 5250 c0 -30 -1 -30 -55 -30 l-55 0 0 -63 0 -64 56 5 56 5 -3
-51 c-2 -29 0 -55 4 -58 4 -4 7 18 7 49 l0 57 53 0 53 0 -2 62 -1 62 -52 -3
c-45 -2 -51 0 -51 17 0 11 5 22 12 24 7 3 6 7 -5 11 -14 5 -17 1 -17 -23z m-2
-90 l-1 -40 -44 0 -43 0 0 40 0 40 45 0 45 0 -2 -40z m102 0 l0 -40 -45 0 -45
0 0 40 0 40 45 0 45 0 0 -40z"/>
<path d="M1896 5264 c-3 -9 -6 -23 -6 -32 -1 -9 -7 -30 -15 -47 l-14 -30 2 35
c2 34 1 35 -30 32 -26 -3 -32 0 -27 12 3 9 10 16 15 16 5 0 9 5 9 10 0 22 -30
9 -36 -16 -4 -16 -12 -23 -20 -20 -11 4 -14 -15 -14 -102 1 -86 3 -104 13 -92
13 16 67 15 67 -1 0 -6 5 -7 10 -4 6 3 10 32 10 64 0 38 5 63 14 70 8 7 17 23
20 36 6 22 12 25 55 25 l49 0 -5 -82 c-7 -103 -15 -120 -51 -113 l-27 6 29
-16 c42 -24 53 -6 66 100 15 132 18 122 -45 117 -53 -4 -66 3 -44 25 7 7 6 12
-5 16 -8 3 -17 -1 -20 -9z m-56 -94 c0 -27 -3 -30 -29 -30 -34 0 -45 12 -36
40 4 14 15 20 36 20 26 0 29 -3 29 -30z m0 -81 c0 -38 -1 -40 -27 -37 -24 3
-28 8 -31 41 -3 35 -2 37 27 37 30 0 31 -2 31 -41z"/>
<path d="M2451 5233 c-15 -53 -15 -212 0 -227 5 -6 9 28 9 87 0 90 1 97 20 97
15 0 20 -7 20 -25 0 -24 2 -25 23 -13 19 10 20 13 5 16 -10 2 -18 10 -18 18 0
18 56 19 63 1 6 -17 -31 -53 -74 -72 -24 -10 -28 -14 -14 -14 11 0 31 6 45 14
35 20 46 18 26 -4 -10 -11 -31 -23 -47 -26 -16 -4 -29 -11 -29 -16 0 -13 38
-1 72 22 15 11 29 15 32 10 8 -12 -41 -47 -77 -56 -15 -4 -27 -11 -27 -16 0
-9 76 17 98 34 9 7 12 4 12 -12 0 -16 -6 -21 -27 -21 -22 0 -25 -2 -13 -10 29
-19 50 -11 56 20 l6 30 28 -20 c16 -12 35 -17 45 -14 12 5 6 11 -24 25 -47 21
-52 36 -16 45 14 3 25 10 25 15 0 12 -27 11 -35 -1 -10 -16 -42 -12 -49 6 -3
9 -4 19 -1 24 5 9 56 7 72 -3 7 -4 12 8 15 34 4 40 -2 55 -16 42 -4 -4 -18 -9
-31 -10 -28 -4 -34 11 -9 21 24 9 6 26 -27 26 -18 0 -28 4 -24 10 3 6 0 10 -7
10 -7 0 -26 -18 -41 -40 -32 -45 -63 -55 -52 -17 4 12 11 26 16 32 13 13 11
25 -4 25 -7 0 -19 -21 -26 -47z m137 -5 c-5 -15 -68 -24 -68 -9 0 12 18 19 48
20 15 1 22 -4 20 -11z m65 -42 c4 -9 -3 -16 -17 -18 -29 -6 -46 1 -46 18 0 19
56 19 63 0z"/>
<path d="M2760 5234 c0 -24 4 -46 10 -49 6 -4 5 -14 -4 -28 -17 -28 -14 -83 5
-78 8 2 22 3 32 3 10 0 16 5 14 11 -2 7 -13 11 -23 9 -18 -3 -18 -2 -2 14 22
22 52 11 43 -16 -6 -18 -3 -20 17 -15 16 4 29 1 37 -9 7 -8 20 -12 29 -10 10
4 5 -5 -12 -21 -41 -38 -25 -42 18 -4 26 22 43 30 61 27 24 -5 25 -4 25 56 0
33 3 71 6 84 6 20 3 22 -30 22 -27 0 -34 3 -30 15 4 8 19 15 34 15 16 0 32 5
36 11 4 8 -14 9 -62 4 -75 -8 -96 -15 -46 -15 24 0 30 -4 26 -15 -4 -8 -15
-15 -25 -15 -17 0 -19 -8 -19 -72 0 -53 -3 -69 -11 -61 -6 6 -19 9 -28 6 -10
-3 -7 3 8 16 25 23 22 43 -4 21 -12 -10 -15 -10 -15 3 0 8 5 17 12 19 6 2 13
29 16 59 l4 55 -61 0 -61 0 0 -42z m100 16 c0 -5 -15 -10 -34 -10 -19 0 -38 5
-41 10 -4 6 10 10 34 10 23 0 41 -4 41 -10z m0 -30 c0 -5 -15 -10 -34 -10 -19
0 -38 5 -41 10 -4 6 10 10 34 10 23 0 41 -4 41 -10z m134 -25 c-4 -9 -19 -15
-39 -15 -20 0 -35 6 -39 15 -4 12 4 15 39 15 35 0 43 -3 39 -15z m-134 -2 c-1
-16 -28 -43 -42 -43 -8 0 -19 -5 -26 -12 -6 -6 -14 -9 -18 -6 -3 4 4 16 15 27
16 16 17 21 6 21 -8 0 -15 5 -15 10 0 6 18 10 40 10 22 0 40 -3 40 -7z m130
-43 c0 -16 -7 -20 -35 -20 -28 0 -35 4 -35 20 0 16 7 20 35 20 28 0 35 -4 35
-20z m0 -45 c0 -8 -6 -15 -14 -15 -8 0 -21 -3 -29 -6 -10 -3 -20 3 -27 15 -10
20 -8 21 30 21 29 0 40 -4 40 -15z"/>
<path d="M3208 5273 c-52 -2 -88 -8 -88 -14 0 -7 35 -9 103 -5 121 6 110 4
102 16 -3 6 -12 9 -18 8 -7 -1 -51 -4 -99 -5z"/>
<path d="M1107 5140 c3 -168 2 -157 12 -142 6 10 35 13 120 10 l111 -3 0 123
c0 67 1 125 3 128 1 3 -54 7 -123 7 l-125 2 2 -125z m61 72 c3 -25 7 -32 19
-28 8 3 20 3 26 -1 7 -5 -10 -11 -38 -14 -38 -4 -27 -6 49 -7 55 -1 96 1 92 5
-4 4 -25 6 -48 4 -27 -2 -38 1 -34 8 4 6 18 11 31 11 18 0 23 5 22 20 -1 17
-8 20 -49 20 -74 0 -56 16 21 18 48 2 70 -1 73 -10 3 -7 5 -58 4 -113 l-1
-100 -78 -2 c-42 0 -80 3 -83 9 -4 6 18 9 60 6 l66 -3 0 42 c0 23 2 48 6 56 4
12 -9 14 -73 13 l-79 -1 2 -62 c2 -56 0 -63 -17 -63 -18 0 -19 8 -19 108 0 60
3 112 7 116 16 16 38 -1 41 -32z m92 -2 c0 -5 -16 -10 -35 -10 -19 0 -35 5
-35 10 0 6 16 10 35 10 19 0 35 -4 35 -10z m27 -115 c-1 -37 0 -37 -72 -39
-39 -1 -40 0 -43 37 l-3 37 59 0 60 0 -1 -35z"/>
<path d="M1190 5092 c0 -26 2 -27 39 -24 33 3 39 7 39 28 0 21 -5 24 -39 24
-36 0 -39 -2 -39 -28z m55 -2 c-3 -5 -13 -10 -21 -10 -8 0 -14 5 -14 10 0 6 9
10 21 10 11 0 17 -4 14 -10z"/>
<path d="M2097 5147 c3 -165 2 -155 12 -139 6 11 35 13 123 10 l114 -3 0 127
-1 128 -125 0 -125 0 2 -123z m228 -4 l0 -108 -82 -3 c-57 -2 -83 1 -83 8 0 8
22 11 65 8 l65 -3 0 63 c0 40 4 61 10 57 6 -3 10 -2 10 3 0 17 -12 20 -43 11
-20 -5 -35 -5 -41 1 -7 7 -4 10 7 11 9 1 23 2 30 3 6 0 13 11 15 24 3 21 0 22
-57 22 -58 0 -61 -1 -61 -24 0 -19 6 -26 28 -29 16 -2 9 -5 -20 -6 -27 0 -48
-5 -48 -11 0 -5 6 -10 13 -10 8 0 12 -20 12 -65 0 -55 -3 -65 -17 -65 -16 0
-18 12 -18 110 l0 110 108 0 108 0 -1 -107z m-77 75 c-6 -16 -68 -16 -68 0 0
7 14 12 36 12 22 0 34 -4 32 -12z m32 -60 c0 -5 -27 -8 -60 -8 -33 0 -60 4
-60 10 0 5 27 8 60 7 33 -1 60 -5 60 -9z m-2 -55 l-3 -38 -55 0 -55 0 -3 38
-3 37 61 0 61 0 -3 -37z"/>
<path d="M2180 5098 c0 -29 12 -34 58 -22 14 4 22 14 22 28 0 19 -5 22 -40 21
-37 0 -40 -2 -40 -27z m60 2 c0 -5 -11 -10 -25 -10 -14 0 -25 5 -25 10 0 6 11
10 25 10 14 0 25 -4 25 -10z"/>
<path d="M7312 5237 c-39 -40 -41 -56 -7 -49 35 6 31 -3 -10 -22 -43 -21 -37
-37 10 -29 l35 6 0 -47 c0 -37 -3 -46 -17 -46 -15 -1 -16 -2 -3 -9 31 -19 35
-15 40 44 5 54 7 60 29 63 15 3 30 -3 38 -14 12 -17 13 -17 13 3 0 11 -10 28
-22 39 -19 17 -21 17 -15 2 5 -16 0 -18 -40 -18 l-46 0 48 37 c27 20 43 39 36
41 -7 2 -20 -2 -29 -10 -23 -20 -50 -29 -56 -19 -3 5 6 17 19 27 25 19 32 34
17 34 -4 0 -22 -15 -40 -33z"/>
<path d="M8470 5178 c0 -114 17 -107 22 10 2 61 0 82 -9 82 -10 0 -13 -25 -13
-92z"/>
<path d="M253 5240 c-13 -5 -23 -17 -22 -27 0 -11 3 -13 6 -5 7 17 50 15 57
-4 8 -21 -11 -54 -32 -54 -12 -1 -9 -5 9 -15 54 -29 43 -75 -18 -75 -20 0 -32
-4 -28 -10 9 -15 58 -12 83 6 26 18 29 59 7 91 -10 14 -12 24 -5 28 14 9 13
48 -2 63 -14 14 -24 14 -55 2z"/>
<path d="M410 5243 c-16 -6 -30 -23 -30 -36 0 -4 8 -2 19 4 43 27 72 -25 30
-54 l-21 -15 21 -7 c23 -7 35 -34 25 -59 -4 -10 -18 -16 -40 -16 -36 0 -45
-13 -18 -24 9 -4 31 2 48 12 37 21 48 73 21 102 -11 12 -13 20 -6 25 15 8 14
48 -1 63 -13 13 -24 14 -48 5z"/>
<path d="M6507 5213 c-5 -27 -2 -41 7 -32 9 9 14 59 7 59 -5 0 -11 -12 -14
-27z"/>
<path d="M6570 5223 c1 -18 18 -35 24 -24 4 6 4 16 1 21 -7 12 -25 13 -25 3z"/>
<path d="M4780 5210 c-13 -8 -13 -10 2 -10 22 0 30 -31 26 -95 -3 -48 -9 -56
-52 -70 -14 -4 -16 -9 -8 -17 17 -17 69 27 113 95 38 58 50 107 28 107 -7 0
-9 -9 -6 -22 6 -21 -30 -95 -40 -84 -3 2 -7 22 -10 43 -7 66 -18 76 -53 53z"/>
<path d="M8715 5164 c0 -29 4 -56 8 -60 4 -4 7 -2 7 4 0 7 16 12 40 12 l40 0
0 48 0 47 -48 1 -47 0 0 -52z m75 1 c0 -32 -2 -35 -30 -35 -28 0 -30 3 -30 35
0 32 2 35 30 35 28 0 30 -3 30 -35z"/>
<path d="M3337 5204 c-3 -3 -60 -7 -126 -8 -132 -4 -180 -16 -63 -16 l72 0 0
-86 c0 -54 4 -83 10 -79 6 3 10 42 10 86 l0 79 65 0 c36 0 65 4 65 9 0 10 -26
22 -33 15z"/>
<path d="M3660 5200 c-10 -7 -11 -10 -2 -10 7 0 17 -12 23 -26 12 -32 -9 -71
-40 -76 -14 -2 -18 -7 -12 -16 11 -18 36 -5 51 26 l12 27 14 -34 c14 -33 15
-33 34 -16 23 20 28 44 6 26 -16 -14 -23 -7 -27 29 -4 32 7 50 32 50 10 0 19
7 19 15 0 21 -16 19 -40 -5 -11 -11 -22 -20 -24 -20 -2 0 -6 9 -9 20 -6 22
-15 25 -37 10z"/>
<path d="M6895 5189 c-5 -14 -2 -25 6 -30 12 -7 12 -9 1 -9 -18 0 -6 -60 15
-77 12 -9 11 -13 -9 -27 -16 -11 -18 -16 -7 -16 28 0 61 46 61 85 0 42 -9 56
-22 35 -5 -8 -12 -11 -16 -7 -4 3 4 16 17 27 l24 21 -29 -6 c-26 -5 -28 -4
-17 9 11 13 11 16 -2 16 -9 0 -19 -10 -22 -21z m48 -77 c-3 -12 -11 -22 -18
-22 -18 0 -13 34 5 41 19 8 20 7 13 -19z"/>
<path d="M7604 5186 c-11 -29 0 -51 26 -51 21 0 25 5 25 30 0 24 -5 31 -23 33
-13 2 -24 -3 -28 -12z m46 -19 c0 -19 -10 -27 -26 -20 -21 8 -17 33 6 33 11 0
20 -6 20 -13z"/>
<path d="M9317 5171 c-4 -19 -14 -42 -23 -52 -10 -11 -12 -19 -5 -23 17 -11
43 40 39 76 l-3 33 -8 -34z"/>
<path d="M9510 5198 c0 -2 11 -25 25 -52 18 -36 26 -44 31 -32 4 10 -4 30 -20
51 -23 30 -36 42 -36 33z"/>
<path d="M6007 5155 c15 -19 30 -30 32 -24 3 11 -37 59 -51 59 -5 0 4 -16 19
-35z"/>
<path d="M5572 5120 l0 -55 56 2 57 1 0 52 0 52 -57 1 -56 2 0 -55z m98 25 c0
-11 -11 -15 -40 -15 -29 0 -40 4 -40 15 0 11 11 15 40 15 29 0 40 -4 40 -15z
m0 -40 c0 -11 -11 -15 -40 -15 -29 0 -40 4 -40 15 0 11 11 15 40 15 29 0 40
-4 40 -15z"/>
<path d="M2410 5155 c-8 -9 -8 -15 -2 -15 12 0 26 19 19 26 -2 2 -10 -2 -17
-11z"/>
<path d="M9010 5143 c-53 -21 -49 -33 4 -13 l26 10 0 -62 c0 -48 3 -59 12 -50
16 16 128 16 128 0 1 -9 4 -8 9 2 5 8 8 41 7 73 l-1 59 -65 1 c-48 2 -81 -4
-120 -20z m164 -18 c4 -12 -5 -15 -54 -15 -47 0 -60 3 -60 15 0 11 13 15 54
15 39 0 55 -4 60 -15z m2 -47 c3 -20 -24 -28 -76 -21 -31 4 -40 10 -40 25 0
17 6 19 57 16 43 -2 57 -7 59 -20z"/>
<path d="M1921 5133 c13 -16 27 -32 31 -37 5 -6 8 -3 8 5 0 18 -36 59 -52 59
-6 0 -1 -12 13 -27z"/>
<path d="M3123 5099 c-37 -58 -28 -66 13 -11 15 20 32 39 36 40 13 6 9 22 -4
21 -7 0 -27 -22 -45 -50z"/>
<path d="M3306 5117 c16 -19 34 -42 41 -53 10 -17 12 -17 12 -2 1 19 -55 88
-71 88 -6 0 3 -15 18 -33z"/>
<path d="M9830 5118 c0 -18 18 -34 28 -24 3 4 -2 14 -11 23 -16 16 -17 16 -17
1z"/>
<path d="M6240 5112 c0 -5 7 -15 15 -22 8 -7 15 -8 15 -2 0 5 -7 15 -15 22 -8
7 -15 8 -15 2z"/>
<path d="M7272 5084 c-13 -20 -21 -38 -19 -40 6 -6 57 54 57 67 0 19 -16 8
-38 -27z"/>
<path d="M7408 5090 c11 -19 26 -36 32 -38 17 -6 -3 29 -31 53 l-23 20 22 -35z"/>
<path d="M9740 5093 c0 -18 5 -33 10 -33 13 0 13 30 0 50 -7 11 -10 7 -10 -17z"/>
<path d="M9784 5107 c3 -10 6 -23 6 -28 0 -5 5 -9 10 -9 14 0 12 13 -6 36 -14
17 -15 17 -10 1z"/>
<path d="M6210 5107 c0 -2 7 -18 15 -33 13 -25 15 -26 15 -8 0 12 -7 27 -15
34 -8 7 -15 10 -15 7z"/>
<path d="M9687 5080 c-15 -25 -16 -30 -4 -30 8 0 20 14 26 30 5 17 7 30 3 30
-4 0 -16 -13 -25 -30z"/>
<path d="M4066 5071 c-10 -11 -28 -22 -42 -25 -20 -5 -35 -26 -19 -26 18 0
105 52 100 60 -9 15 -20 12 -39 -9z"/>
<path d="M4174 5075 c11 -8 24 -15 30 -15 5 0 17 -7 27 -16 10 -9 23 -14 30
-12 17 6 -39 43 -76 52 -28 6 -29 5 -11 -9z"/>
<path d="M6186 5065 c19 -29 29 -27 19 4 -3 12 -13 21 -21 21 -12 0 -12 -4 2
-25z"/>
<path d="M10760 5075 c0 -8 7 -15 15 -15 8 0 15 7 15 15 0 8 -7 15 -15 15 -8
0 -15 -7 -15 -15z"/>
<path d="M540 5056 c0 -8 4 -17 9 -20 10 -7 23 19 14 28 -11 11 -23 6 -23 -8z"/>
<path d="M2790 5051 c0 -11 5 -23 10 -26 6 -3 10 3 10 14 0 11 -4 23 -10 26
-5 3 -10 -3 -10 -14z"/>
<path d="M2830 5053 c0 -13 5 -23 10 -23 13 0 13 11 0 30 -8 12 -10 11 -10 -7z"/>
<path d="M2866 5055 c4 -8 10 -15 15 -15 4 0 6 7 3 15 -4 8 -10 15 -15 15 -4
0 -6 -7 -3 -15z"/>
<path d="M2751 5042 c-7 -13 -11 -26 -8 -28 8 -8 29 25 25 38 -3 8 -9 4 -17
-10z"/>
<path d="M2997 5036 c16 -14 30 -20 32 -14 4 13 -26 38 -46 38 -8 0 -2 -11 14
-24z"/>
<path d="M9701 4652 c-5 -10 -16 -56 -25 -103 -47 -259 -46 -258 -75 -186 -13
31 -26 57 -30 57 -3 0 -17 -10 -31 -21 -23 -19 -23 -20 -4 -16 18 4 26 -6 53
-66 18 -42 35 -67 40 -61 9 10 37 124 46 194 4 25 13 67 21 94 8 27 14 62 14
78 l0 28 109 0 c63 0 112 4 116 10 4 6 -35 10 -109 10 -101 0 -116 -2 -125
-18z"/>
<path d="M10033 4498 c-29 -37 -94 -191 -85 -200 6 -6 24 20 50 76 23 47 43
86 44 86 2 0 4 -269 6 -598 3 -552 2 -595 -13 -577 -22 27 -159 221 -225 320
-30 44 -55 82 -56 84 -2 1 -7 0 -13 -3 -10 -7 5 -33 90 -156 55 -80 145 -207
167 -235 12 -15 22 -32 22 -36 0 -5 -27 -9 -61 -9 -44 0 -60 -3 -56 -12 3 -9
24 -12 75 -9 l72 3 2 -383 c2 -211 4 -785 6 -1276 l3 -892 -252 -1 c-139 0
-255 -3 -258 -5 -14 -14 30 -17 258 -16 l251 2 2 -218 c1 -120 1 -236 0 -259
-2 -27 3 -45 13 -54 12 -10 15 -10 15 1 0 8 0 130 0 272 l-1 257 483 0 c266 0
657 3 871 7 l387 6 0 -97 c0 -62 4 -95 10 -91 6 3 10 46 10 96 l0 89 278 1
c152 1 295 3 317 4 74 5 557 6 562 2 2 -3 -25 -22 -61 -42 -36 -20 -66 -44
-66 -52 0 -16 45 7 135 67 22 15 48 29 58 33 32 12 18 26 -64 68 -106 53 -127
60 -134 49 -5 -9 134 -80 156 -80 6 0 8 -4 5 -9 -4 -5 -194 -10 -449 -11 -243
0 -508 -2 -589 -3 l-148 -3 0 69 c0 51 -3 68 -12 64 -9 -2 -12 -21 -10 -55 2
-58 -5 -65 -29 -24 -10 15 -57 86 -107 157 -50 72 -147 213 -217 315 -69 102
-163 238 -208 302 -45 64 -131 188 -191 275 -60 87 -128 183 -151 213 -36 48
-87 121 -232 337 -18 27 -72 103 -120 171 -124 174 -197 278 -241 342 -20 30
-66 96 -102 145 -78 107 -150 213 -150 220 0 3 29 5 65 5 85 0 84 18 -1 22
l-67 3 -5 593 c-2 325 -2 592 2 592 4 0 10 -8 14 -17 21 -52 76 -133 84 -125
5 5 -14 47 -47 102 -30 52 -55 98 -55 102 0 13 -26 9 -37 -4z m115 -1419 c35
-54 117 -170 216 -309 26 -36 85 -119 131 -185 47 -66 105 -148 130 -182 25
-34 45 -65 46 -70 0 -4 15 -28 34 -53 18 -25 70 -99 116 -165 45 -66 101 -145
123 -175 50 -68 80 -111 154 -220 31 -47 60 -89 65 -95 4 -5 27 -37 50 -70 24
-33 67 -94 97 -135 29 -41 99 -142 153 -225 55 -82 122 -180 148 -216 27 -37
49 -71 49 -77 0 -6 6 -15 13 -19 13 -9 127 -174 127 -185 0 -3 -334 -7 -742
-7 -409 -1 -792 -4 -851 -6 -81 -4 -109 -2 -112 8 -8 24 -20 1915 -15 2457 0
23 0 24 16 5 8 -11 32 -45 52 -76z"/>
<path d="M9775 4490 c-18 -7 -18 -9 -3 -15 25 -10 35 -107 15 -139 -9 -13 -24
-23 -33 -22 -9 0 -19 -5 -21 -11 -3 -8 4 -13 15 -13 30 0 143 147 140 180 -2
14 -7 23 -13 20 -5 -3 -9 -15 -7 -28 3 -21 -25 -71 -40 -72 -5 0 -8 15 -8 33
0 38 -10 77 -19 76 -3 0 -15 -4 -26 -9z"/>
<path d="M3560 4435 c-11 -13 -8 -14 19 -9 29 6 31 5 31 -24 0 -17 -4 -33 -10
-37 -5 -3 -19 -19 -30 -35 l-21 -30 45 0 c32 0 46 4 46 13 0 10 -10 12 -32 9
l-33 -5 21 24 c36 40 46 67 34 89 -13 24 -52 26 -70 5z"/>
<path d="M4041 4317 c-62 -86 -63 -97 -12 -97 37 0 41 -2 41 -25 0 -16 6 -25
15 -25 9 0 15 9 15 24 0 13 6 27 13 30 10 5 10 7 0 12 -9 4 -13 28 -13 69 0
35 -3 66 -7 68 -5 3 -28 -22 -52 -56z m29 -32 c0 -44 -1 -45 -31 -45 -17 0
-29 3 -27 8 9 18 50 82 54 82 2 0 4 -20 4 -45z"/>
<path d="M4626 4364 c-19 -19 -20 -31 -2 -65 12 -23 11 -29 -4 -49 -40 -53 39
-111 83 -62 23 25 21 55 -2 77 -20 17 -20 17 2 47 l22 30 -24 19 c-28 23 -54
24 -75 3z m57 -16 c2 -7 0 -24 -5 -37 -8 -23 -9 -24 -23 -5 -21 27 -19 54 4
54 10 0 21 -6 24 -12z m-8 -102 c13 -20 14 -29 5 -46 -9 -17 -14 -19 -26 -9
-20 16 -18 79 2 79 2 0 11 -11 19 -24z"/>
<path d="M2035 4338 c-13 -47 -59 -154 -73 -170 -14 -17 -12 -18 18 -18 27 0
30 2 21 14 -9 11 -10 20 -1 36 9 17 19 20 48 18 30 -2 38 -7 40 -27 2 -13 -2
-28 -10 -32 -8 -6 5 -9 36 -9 49 0 49 0 30 18 -16 15 -51 94 -78 175 -8 24
-23 21 -31 -5z m30 -79 c6 -24 4 -26 -24 -27 -17 0 -29 3 -26 7 2 5 9 21 15
36 12 31 25 25 35 -16z"/>
<path d="M4440 4295 c0 -33 -2 -35 -35 -35 -19 0 -35 -5 -35 -11 0 -7 14 -10
35 -7 35 4 35 4 35 -34 0 -49 18 -50 22 0 3 34 5 37 31 34 15 -2 27 1 27 7 0
6 -13 11 -30 11 -28 0 -30 3 -30 35 0 19 -4 35 -10 35 -5 0 -10 -16 -10 -35z"/>
<path d="M4185 4300 c-3 -5 -1 -10 5 -10 6 0 15 -11 22 -25 9 -19 8 -29 -6
-50 -9 -14 -25 -25 -36 -25 -11 0 -20 -4 -20 -10 0 -19 31 -10 55 16 24 25 25
26 25 6 0 -31 19 -37 43 -13 12 12 16 21 9 21 -6 0 -12 -6 -12 -12 0 -27 -20
18 -20 45 0 21 7 30 27 38 20 7 23 13 15 21 -9 9 -18 6 -36 -11 -23 -22 -23
-22 -29 -2 -5 22 -31 28 -42 11z"/>
<path d="M2925 4289 c-15 -6 -16 -8 -4 -8 12 -1 18 -15 23 -57 7 -64 -10 -104
-44 -104 -22 0 -27 -15 -8 -26 23 -14 153 149 146 184 -5 26 -21 20 -22 -9 -1
-14 -10 -39 -21 -55 l-20 -29 -3 47 c-3 52 -17 69 -47 57z"/>
<path d="M3405 4290 c-3 -5 1 -10 10 -10 8 0 20 -11 26 -24 9 -20 8 -29 -7
-50 -12 -16 -25 -23 -36 -20 -20 6 -25 -11 -7 -21 6 -4 21 2 33 14 28 26 32
26 39 1 6 -22 32 -19 41 5 3 9 0 12 -8 9 -18 -7 -29 41 -15 67 6 12 17 18 25
15 8 -3 14 1 14 9 0 20 -24 19 -41 -1 -11 -14 -13 -14 -21 0 -10 18 -43 21
-53 6z"/>
<path d="M3135 4270 c-8 -12 -5 -13 75 -10 94 3 101 20 8 20 -42 0 -80 -4 -83
-10z"/>
<path d="M3754 4248 c-3 -5 31 -8 75 -8 45 0 81 4 81 9 0 12 -150 10 -156 -1z"/>
<path d="M3130 4209 c0 -12 148 -10 156 2 3 5 -31 9 -75 9 -50 0 -81 -4 -81
-11z"/>
<path d="M2180 4165 c0 -8 7 -15 15 -15 8 0 15 7 15 15 0 8 -7 15 -15 15 -8 0
-15 -7 -15 -15z"/>
<path d="M3572 3567 c-8 -10 -5 -13 16 -12 39 0 40 -32 2 -83 -16 -23 -30 -44
-30 -47 0 -13 69 -3 81 12 13 15 11 16 -18 10 -40 -8 -40 -4 -8 35 27 32 32
67 13 86 -16 16 -43 15 -56 -1z"/>
<path d="M4636 3494 c-20 -19 -20 -43 -1 -71 13 -18 13 -22 0 -33 -18 -15 -20
-61 -3 -78 18 -18 63 -14 81 6 22 24 21 44 -3 75 -17 22 -18 26 -5 37 25 20
19 59 -11 70 -34 13 -40 13 -58 -6z m52 -33 c2 -13 -1 -28 -6 -33 -13 -13 -36
28 -28 49 8 21 30 11 34 -16z m8 -126 c-3 -8 -15 -15 -26 -15 -21 0 -27 30
-14 64 5 13 10 12 26 -9 11 -14 17 -32 14 -40z"/>
<path d="M4043 3436 c-24 -34 -43 -68 -43 -74 0 -7 16 -12 39 -12 36 0 40 -3
43 -27 4 -35 22 -37 27 -3 1 14 8 29 15 33 8 6 8 10 -1 14 -9 3 -13 27 -13 69
0 45 -4 64 -12 64 -7 0 -32 -29 -55 -64z m34 -63 c-3 -2 -16 -3 -30 -1 l-25 3
26 45 27 45 3 -44 c2 -23 1 -45 -1 -48z"/>
<path d="M1966 3472 c6 -4 14 -44 17 -90 4 -70 3 -84 -11 -92 -12 -7 1 -9 48
-10 73 0 110 18 110 52 0 12 -7 29 -16 39 -13 14 -13 21 -3 37 10 17 10 25 -4
46 -16 24 -23 26 -85 26 -37 0 -62 -4 -56 -8z m108 -18 c20 -20 20 -29 0 -49
-23 -23 -58 -15 -62 13 -7 50 28 70 62 36z m10 -90 c22 -21 20 -40 -6 -58 -42
-29 -58 -21 -58 29 0 41 2 45 24 45 14 0 32 -7 40 -16z"/>
<path d="M4450 3426 c0 -34 -2 -36 -35 -36 -19 0 -35 -4 -35 -10 0 -5 16 -10
35 -10 33 0 35 -2 35 -35 0 -19 5 -35 10 -35 6 0 10 16 10 35 0 33 2 35 35 35
19 0 35 5 35 10 0 6 -16 10 -35 10 -32 0 -35 2 -35 29 0 17 -4 33 -10 36 -6 4
-10 -8 -10 -29z"/>
<path d="M3830 3415 c0 -33 -2 -35 -36 -35 -22 0 -33 -4 -29 -11 4 -6 19 -7
36 -4 28 6 29 6 29 -34 0 -51 18 -54 22 -3 3 35 5 37 36 37 20 0 32 5 32 13 0
9 -10 11 -35 6 -35 -6 -35 -6 -35 30 0 20 -4 36 -10 36 -5 0 -10 -16 -10 -35z"/>
<path d="M4195 3430 c-17 -7 -18 -9 -2 -9 10 -1 22 -13 28 -27 12 -33 -11 -74
-41 -74 -11 0 -20 -4 -20 -10 0 -18 40 -10 52 10 16 26 24 25 31 -1 6 -23 37
-23 45 -1 2 7 -2 11 -8 10 -17 -4 -32 52 -19 68 6 7 19 14 29 16 13 2 17 7 11
16 -6 10 -13 9 -31 -6 -23 -19 -25 -19 -39 -2 -12 13 -22 16 -36 10z"/>
<path d="M3030 3430 c-1 -3 -4 -18 -6 -33 -1 -16 -11 -41 -21 -55 l-18 -27 -9
53 c-8 45 -12 52 -32 52 -25 0 -33 -15 -12 -22 6 -2 13 -30 16 -61 5 -61 -7
-87 -39 -87 -11 0 -19 -7 -19 -15 0 -29 28 -15 71 36 65 76 81 105 76 136 -2
15 -5 26 -7 23z"/>
<path d="M3415 3420 c-3 -5 1 -10 9 -10 9 0 18 -12 22 -27 12 -56 26 -93 34
-93 13 0 42 32 35 38 -3 4 -10 0 -15 -8 -6 -10 -11 -2 -16 26 -12 65 -50 105
-69 74z"/>
<path d="M3492 3418 c-19 -19 -14 -26 13 -20 14 2 25 11 25 18 0 17 -22 18
-38 2z"/>
<path d="M3140 3390 c0 -6 32 -10 75 -10 43 0 75 4 75 10 0 6 -32 10 -75 10
-43 0 -75 -4 -75 -10z"/>
<path d="M3140 3340 c0 -6 32 -10 75 -10 43 0 75 4 75 10 0 6 -32 10 -75 10
-43 0 -75 -4 -75 -10z"/>
<path d="M3431 3326 c-7 -8 -19 -12 -27 -9 -8 3 -14 -1 -14 -11 0 -9 6 -16 13
-16 16 0 53 38 45 45 -3 3 -11 -1 -17 -9z"/>
<path d="M2180 3294 c0 -9 5 -14 12 -12 18 6 21 28 4 28 -9 0 -16 -7 -16 -16z"/>
<path d="M9668 3303 c-26 -7 -31 -39 -11 -74 17 -29 17 -31 1 -40 -10 -6 -18
-21 -18 -34 0 -51 62 -73 100 -35 26 26 25 41 -2 75 -19 25 -20 28 -5 37 23
12 21 55 -2 68 -20 10 -33 11 -63 3z m47 -38 c0 -35 -20 -43 -35 -15 -9 16 -8
25 1 36 18 21 34 11 34 -21z m5 -100 c16 -29 4 -49 -26 -43 -20 3 -29 29 -20
54 8 22 31 17 46 -11z"/>
<path d="M3732 2708 c-17 -17 -15 -33 3 -18 8 7 22 10 30 6 24 -9 17 -49 -15
-84 -16 -18 -30 -35 -30 -38 0 -10 84 1 87 12 2 7 -8 9 -29 6 l-32 -5 27 32
c39 47 32 101 -13 101 -9 0 -21 -5 -28 -12z"/>
<path d="M4984 2634 c-61 -30 -84 -116 -43 -168 11 -14 29 -26 40 -26 30 0 59
36 59 74 0 40 -21 60 -55 54 -15 -3 -25 -1 -25 7 0 14 42 55 58 55 6 0 14 5
17 10 9 15 -15 12 -51 -6z m16 -94 c16 -31 9 -74 -14 -78 -10 -2 -22 2 -27 10
-13 20 -11 76 4 81 21 9 26 7 37 -13z"/>
<path d="M5104 2581 c-51 -76 -50 -96 1 -87 31 6 34 4 37 -20 4 -34 28 -45 28
-13 0 12 7 31 17 41 15 17 15 18 0 18 -14 0 -17 11 -17 65 0 36 -4 65 -10 65
-5 0 -31 -31 -56 -69z m36 -21 c0 -38 -2 -40 -30 -40 l-30 0 26 40 c15 22 28
40 30 40 2 0 4 -18 4 -40z"/>
<path d="M3474 2628 c-5 -7 -8 -38 -9 -68 0 -52 -1 -55 -27 -57 -34 -2 -35 1
-2 49 15 21 24 41 21 44 -7 8 -67 -81 -67 -100 0 -12 10 -16 40 -16 36 0 40
-2 40 -25 0 -16 6 -25 15 -25 10 0 15 10 15 30 0 17 5 30 10 30 6 0 10 5 10
10 0 6 -6 10 -14 10 -10 0 -13 16 -14 61 0 64 -5 79 -18 57z"/>
<path d="M4172 2628 c-7 -7 -12 -16 -12 -22 0 -6 5 -5 12 2 17 17 57 15 64 -2
8 -20 -14 -56 -34 -56 -12 -1 -9 -5 11 -16 20 -11 27 -22 27 -43 0 -34 -17
-43 -63 -34 -30 5 -31 5 -15 -12 20 -21 59 -14 88 15 23 23 26 63 7 82 -10 9
-11 19 -4 39 15 39 3 59 -36 59 -18 0 -38 -5 -45 -12z"/>
<path d="M4316 2618 c-19 -26 -11 -39 7 -14 15 21 45 18 60 -5 15 -25 1 -60
-43 -108 -22 -24 -40 -45 -40 -47 0 -2 27 -4 59 -4 45 0 60 4 65 16 8 22 -1
31 -16 16 -13 -13 -68 -17 -68 -4 0 4 14 21 31 37 49 47 61 92 33 119 -23 23
-70 20 -88 -6z"/>
<path d="M2000 2601 c-25 -25 -30 -38 -30 -78 0 -38 5 -54 25 -76 35 -37 91
-38 125 -2 13 14 21 27 18 30 -2 3 -13 -4 -23 -15 -25 -28 -79 -27 -99 2 -9
12 -16 41 -16 63 0 56 22 85 66 85 27 0 37 -5 46 -25 14 -31 32 -33 24 -2 -3
12 -6 27 -6 32 0 6 -23 11 -50 13 -45 3 -54 0 -80 -27z"/>
<path d="M4750 2565 c0 -33 -2 -35 -35 -35 -19 0 -35 -4 -35 -10 0 -5 16 -10
36 -10 28 0 35 -4 33 -17 -3 -35 1 -54 11 -48 6 3 10 19 10 36 0 25 4 29 29
29 17 0 33 5 36 10 4 6 -8 10 -29 10 -34 0 -36 2 -36 35 0 19 -4 35 -10 35 -5
0 -10 -16 -10 -35z"/>
<path d="M4502 2571 c-11 -7 -11 -9 2 -14 29 -11 9 -105 -20 -95 -5 2 -11 -1
-13 -7 -10 -24 30 -15 40 9 13 27 29 35 29 14 0 -7 4 -19 9 -27 8 -12 12 -12
25 -2 9 8 16 18 16 23 0 6 -5 6 -14 -1 -11 -9 -15 -5 -19 19 -8 39 0 60 24 60
10 0 19 7 19 15 0 21 -14 19 -36 -6 l-18 -20 -8 20 c-8 23 -16 25 -36 12z"/>
<path d="M2938 2563 c-22 -5 -24 -23 -3 -23 12 0 15 -14 15 -63 0 -65 -11 -87
-42 -87 -10 0 -18 -7 -18 -15 0 -8 6 -15 14 -15 29 0 150 157 144 188 -5 27
-23 20 -23 -9 -1 -14 -10 -39 -20 -55 l-19 -29 -8 49 c-8 54 -15 64 -40 59z"/>
<path d="M3570 2561 c0 -6 7 -11 15 -11 20 0 29 -43 15 -69 -6 -12 -20 -21
-30 -21 -11 0 -20 -7 -20 -15 0 -22 18 -18 44 10 l24 25 6 -25 c8 -30 17 -31
41 -5 16 18 16 20 2 15 -12 -5 -18 0 -22 22 -10 47 -30 78 -53 81 -12 2 -22
-1 -22 -7z"/>
<path d="M3650 2555 c-7 -9 -11 -17 -9 -19 7 -7 49 13 49 24 0 15 -26 12 -40
-5z"/>
<path d="M3140 2530 c0 -11 147 -6 158 5 3 3 -31 5 -76 5 -50 0 -82 -4 -82
-10z"/>
<path d="M3930 2514 c0 -13 11 -15 72 -12 98 6 100 25 3 27 -63 1 -75 -1 -75
-15z"/>
<path d="M3140 2480 c0 -6 32 -10 75 -10 43 0 75 4 75 10 0 6 -32 10 -75 10
-43 0 -75 -4 -75 -10z"/>
<path d="M2173 2438 c2 -7 10 -13 17 -13 7 0 15 6 18 13 2 7 -5 12 -18 12 -13
0 -20 -5 -17 -12z"/>
<path d="M3729 1838 c-11 -21 -11 -22 4 -9 9 7 24 11 32 7 25 -9 17 -53 -17
-91 l-31 -36 43 3 c24 2 45 8 47 14 2 7 -8 9 -29 6 l-33 -5 21 24 c38 43 45
63 28 87 -20 28 -50 28 -65 0z"/>
<path d="M5004 1780 c-48 -19 -80 -77 -74 -135 8 -89 120 -84 120 6 0 33 -32
63 -60 56 -11 -3 -20 -1 -20 4 0 16 48 59 65 59 8 0 15 5 15 10 0 12 -17 12
-46 0z m14 -133 c2 -27 -1 -39 -13 -43 -24 -10 -45 15 -45 53 0 32 2 34 28 31
23 -3 27 -8 30 -41z"/>
<path d="M5113 1724 c-54 -83 -55 -94 -3 -94 36 0 40 -2 40 -26 0 -30 23 -28
29 2 2 10 8 22 15 27 8 5 7 10 -3 16 -9 6 -14 31 -16 67 -4 96 -5 96 -62 8z
m37 -29 c0 -43 -1 -45 -30 -45 -16 0 -30 3 -30 8 0 9 49 82 55 82 3 0 5 -20 5
-45z"/>
<path d="M3436 1712 c-25 -37 -46 -73 -46 -80 0 -7 16 -12 40 -12 36 0 40 -2
40 -25 0 -16 6 -25 15 -25 9 0 15 9 15 24 0 13 6 27 13 29 9 4 9 8 -2 15 -10
8 -14 27 -12 70 1 33 -2 63 -8 66 -5 4 -30 -24 -55 -62z m34 -26 c0 -43 -1
-45 -30 -44 -16 1 -30 3 -30 6 0 7 52 82 56 82 2 0 4 -20 4 -44z"/>
<path d="M4175 1760 c-10 -11 -13 -20 -7 -20 6 0 14 5 17 10 8 13 42 13 50 -1
12 -18 -4 -59 -23 -59 -13 -1 -11 -5 11 -21 48 -36 27 -85 -32 -73 -34 7 -44
-10 -12 -21 30 -9 68 5 85 31 20 30 20 53 0 75 -13 14 -13 20 -2 38 29 47 -48
84 -87 41z"/>
<path d="M4326 1764 c-9 -8 -16 -23 -15 -32 0 -11 2 -12 6 -4 15 37 83 33 83
-6 0 -21 -28 -67 -64 -105 -14 -15 -26 -30 -26 -33 0 -2 27 -4 59 -4 45 0 60
4 65 16 8 22 -1 31 -16 16 -7 -7 -27 -12 -46 -12 l-34 0 36 41 c50 55 61 85
41 115 -18 28 -65 32 -89 8z"/>
<path d="M1978 1753 c8 -3 12 -31 12 -88 0 -69 -3 -86 -17 -94 -25 -15 84 -15
125 0 64 22 84 112 37 163 -22 24 -30 26 -97 25 -40 0 -67 -3 -60 -6z m120
-20 c27 -23 36 -80 20 -113 -16 -30 -52 -50 -79 -43 -17 5 -19 15 -19 89 l0
84 29 0 c16 0 38 -8 49 -17z"/>
<path d="M4760 1705 c0 -33 -2 -35 -35 -35 -19 0 -35 -4 -35 -10 0 -5 16 -10
35 -10 33 0 35 -2 35 -35 0 -19 5 -35 10 -35 6 0 10 16 10 35 0 33 2 35 35 35
47 0 45 18 -2 22 -36 3 -38 5 -38 36 0 17 -3 32 -7 32 -5 0 -8 -16 -8 -35z"/>
<path d="M4000 1694 c0 -36 0 -37 -35 -31 -27 4 -35 2 -35 -9 0 -12 8 -15 35
-11 35 5 35 5 35 -35 0 -23 4 -37 10 -33 6 3 10 22 10 41 0 33 1 34 30 29 23
-4 30 -2 30 10 0 12 -8 15 -32 13 -32 -3 -33 -2 -30 30 2 18 -1 32 -7 32 -6 0
-11 -16 -11 -36z"/>
<path d="M4500 1710 c-13 -8 -12 -10 3 -10 10 0 22 -11 27 -25 12 -32 -10 -72
-43 -78 -20 -3 -21 -4 -4 -12 14 -6 25 -1 43 21 l23 29 1 -27 c0 -29 17 -37
38 -16 17 17 15 33 -2 18 -12 -9 -16 -6 -21 24 -8 41 -1 56 26 56 10 0 19 7
19 15 0 21 -14 19 -36 -6 l-18 -20 -8 20 c-8 23 -24 26 -48 11z"/>
<path d="M3576 1701 c-3 -5 3 -11 13 -14 13 -3 20 -17 24 -47 7 -53 29 -79 51
-60 9 7 16 17 16 22 0 6 -6 6 -14 -1 -12 -10 -15 -6 -21 21 -11 58 -27 88 -46
88 -10 0 -20 -4 -23 -9z"/>
<path d="M3652 1698 c-19 -19 -14 -26 13 -20 14 2 25 11 25 18 0 17 -22 18
-38 2z"/>
<path d="M2925 1690 c-3 -5 1 -10 9 -10 11 0 16 -11 17 -35 1 -19 2 -41 3 -47
4 -28 -16 -68 -34 -68 -23 0 -34 -16 -19 -26 7 -4 29 11 54 37 79 84 117 159
80 159 -9 0 -12 -6 -8 -16 6 -16 -26 -84 -39 -84 -5 0 -8 15 -8 34 0 19 -3 41
-6 50 -7 18 -39 22 -49 6z"/>
<path d="M3145 1670 c3 -5 40 -10 81 -10 43 0 74 4 74 10 0 6 -34 10 -81 10
-51 0 -78 -4 -74 -10z"/>
<path d="M3145 1620 c-4 -6 23 -10 75 -10 52 0 79 4 75 10 -3 6 -37 10 -75 10
-38 0 -72 -4 -75 -10z"/>
<path d="M3590 1606 c-6 -8 -18 -12 -26 -9 -8 3 -14 -1 -14 -11 0 -9 6 -16 14
-16 16 0 46 26 46 41 0 13 -6 11 -20 -5z"/>
<path d="M2192 1578 c6 -18 28 -21 28 -4 0 9 -7 16 -16 16 -9 0 -14 -5 -12
-12z"/>
<path d="M13086 571 c-3 -5 3 -11 14 -14 14 -4 20 -14 20 -34 0 -38 -22 -68
-44 -60 -10 4 -16 1 -16 -8 0 -26 20 -26 45 1 14 15 25 23 25 17 0 -5 6 -17
13 -27 12 -16 14 -16 32 5 17 20 18 22 3 16 -13 -5 -19 0 -24 18 -9 37 -1 60
24 63 24 4 29 17 11 28 -7 4 -19 -3 -29 -16 l-18 -23 -11 21 c-12 22 -35 29
-45 13z"/>
<path d="M9886 549 c-84 -23 -129 -133 -78 -191 59 -69 208 65 171 154 -13 32
-53 48 -93 37z m52 -21 c24 -24 9 -110 -25 -145 -6 -7 -23 -17 -37 -23 -39
-14 -69 18 -61 66 7 46 19 68 51 93 30 24 54 27 72 9z"/>
<path d="M11806 308 c-25 -39 -43 -74 -40 -77 3 -3 22 -6 42 -6 33 0 37 -3 40
-28 3 -23 6 -26 18 -16 8 6 14 20 14 30 0 11 5 19 10 19 6 0 10 5 10 10 0 6
-6 10 -14 10 -11 0 -14 14 -13 65 1 44 -2 65 -10 65 -6 0 -32 -32 -57 -72z
m39 -13 c0 -42 -2 -45 -27 -45 -16 0 -28 2 -28 5 0 5 51 85 54 85 0 0 1 -20 1
-45z"/>
</g>
</svg>
