<?xml version="1.0" standalone="no"?>
<!DOCTYPE svg PUBLIC "-//W3C//DTD SVG 20010904//EN"
 "http://www.w3.org/TR/2001/REC-SVG-20010904/DTD/svg10.dtd">
<svg version="1.0" xmlns="http://www.w3.org/2000/svg"
 width="871.000000pt" height="572.000000pt" viewBox="0 0 871.000000 572.000000"
 preserveAspectRatio="xMidYMid meet">
<metadata>
Created by potrace 1.16, written by Peter Selinger 2001-2019
</metadata>
<g transform="translate(0.000000,572.000000) scale(0.100000,-0.100000)"
fill="#000000" stroke="none">
<path d="M4110 5588 c-11 -12 -20 -29 -20 -37 1 -14 2 -14 13 0 18 24 64 32
71 13 14 -35 4 -65 -39 -117 -24 -30 -41 -57 -38 -61 4 -3 30 -6 59 -6 43 0
55 4 64 19 12 23 1 34 -20 20 -16 -9 -60 -12 -60 -4 0 3 15 22 33 41 52 58 61
100 27 134 -26 26 -64 25 -90 -2z"/>
<path d="M1816 5568 c-19 -27 -4 -37 20 -14 21 22 31 20 49 -8 14 -21 14 -28
2 -58 -8 -19 -31 -51 -51 -70 -21 -20 -33 -38 -29 -41 8 -5 72 -10 104 -8 9 1
19 10 22 21 5 18 1 19 -42 13 l-46 -6 37 41 c43 47 55 83 42 121 -8 22 -16 27
-51 29 -34 3 -44 -1 -57 -20z"/>
<path d="M172 5472 c-23 -7 -39 -18 -36 -24 3 -5 12 -7 20 -4 12 4 14 -17 14
-124 0 -111 -2 -130 -16 -130 -8 0 -12 -4 -9 -10 8 -12 115 -13 115 -1 0 5 -9
11 -20 14 -18 5 -20 15 -22 149 l-3 145 -43 -15z"/>
<path d="M3663 5483 c-29 -6 -53 -40 -52 -73 0 -24 1 -24 10 -5 23 48 101 57
114 14 15 -47 -5 -95 -70 -165 -35 -38 -62 -71 -60 -75 2 -3 43 -5 91 -5 87 1
87 1 97 29 10 30 1 50 -12 29 -8 -14 -111 -29 -111 -17 0 4 15 24 34 45 56 63
89 125 81 159 -11 51 -61 77 -122 64z"/>
<path d="M1299 5473 c-9 -2 -21 -15 -28 -29 -14 -32 -14 -39 2 -27 17 14 56
23 73 16 9 -3 14 -20 14 -42 0 -32 -4 -39 -32 -53 l-33 -15 38 -16 c34 -15 37
-19 37 -56 0 -51 -25 -68 -73 -52 -20 7 -34 8 -40 2 -16 -16 12 -41 45 -41 59
0 107 42 115 99 4 31 0 43 -21 66 -24 26 -25 29 -10 46 50 55 -9 123 -87 102z"/>
<path d="M2474 5458 c-3 -13 -15 -36 -26 -51 -23 -32 -18 -57 13 -57 34 0 77
-31 83 -60 12 -63 -25 -117 -64 -92 -30 18 -62 16 -58 -5 6 -31 51 -39 94 -16
54 27 81 81 65 133 -11 36 -65 90 -91 90 -6 0 -10 6 -8 13 3 6 25 13 50 15 35
2 47 7 51 22 7 26 0 30 -54 30 -41 0 -49 -3 -55 -22z"/>
<path d="M4380 5440 c0 -5 5 -10 10 -10 6 0 10 5 10 10 0 6 -4 10 -10 10 -5 0
-10 -4 -10 -10z"/>
<path d="M4490 5365 l0 -56 -47 3 c-27 2 -50 -1 -53 -7 -3 -6 17 -11 48 -13
l52 -3 0 -54 c0 -90 25 -79 32 15 3 34 4 35 53 40 68 7 63 24 -8 28 l-58 3 6
29 c7 33 -1 70 -16 70 -5 0 -9 -25 -9 -55z"/>
<path d="M3360 5361 l0 -50 -47 -3 c-62 -4 -62 -22 -1 -26 l47 -3 3 -52 c2
-38 7 -52 18 -52 11 0 16 14 18 52 l3 52 52 3 c67 4 67 22 0 26 l-52 3 -3 47
c-2 35 -7 48 -20 50 -15 3 -18 -4 -18 -47z"/>
<path d="M4773 5393 c-25 -5 -30 -19 -10 -26 9 -3 8 -18 -6 -68 -29 -104 -31
-119 -14 -119 20 0 33 18 45 64 18 63 72 130 90 111 3 -3 -4 -36 -16 -73 -26
-82 -28 -105 -6 -100 8 2 25 28 38 59 24 59 80 129 93 116 4 -4 -3 -39 -16
-77 -32 -93 -17 -125 37 -81 25 22 30 46 7 37 -12 -4 -14 0 -9 22 4 15 13 39
20 54 31 61 6 100 -45 74 -17 -9 -35 -25 -41 -36 -6 -11 -15 -20 -21 -20 -6 0
-7 5 -4 11 11 16 -4 59 -20 59 -8 0 -31 -16 -51 -36 -32 -32 -35 -34 -29 -13
14 46 8 52 -42 42z"/>
<path d="M5518 5393 c-22 -5 -24 -23 -3 -23 19 0 18 -11 -9 -95 -13 -38 -21
-73 -19 -77 9 -17 34 -6 44 20 24 58 35 77 64 109 16 18 37 33 46 33 16 0 16
-5 2 -57 -8 -32 -18 -62 -23 -68 -4 -5 -4 -20 1 -33 9 -24 18 -22 63 13 16 12
17 18 8 27 -9 9 -12 9 -12 0 0 -7 -4 -12 -10 -12 -5 0 -1 24 10 53 22 57 26
102 9 112 -20 13 -61 -6 -96 -43 -34 -36 -35 -36 -29 -10 3 14 9 33 12 42 6
16 -17 20 -58 9z"/>
<path d="M3883 5383 c-26 -5 -31 -23 -8 -23 19 0 19 -4 -4 -70 -30 -88 -33
-107 -17 -113 17 -7 29 7 44 51 21 62 112 153 112 112 0 -6 -9 -40 -21 -76
-20 -62 -20 -94 0 -94 17 0 71 51 65 62 -3 5 -12 1 -20 -9 -20 -27 -18 0 7 74
18 51 19 66 9 78 -21 25 -48 17 -92 -27 -26 -26 -39 -34 -35 -22 22 71 23 69
-40 57z"/>
<path d="M2678 5373 c-29 -5 -39 -23 -13 -23 17 0 15 -18 -17 -114 -13 -40
-16 -62 -9 -69 16 -16 38 9 50 59 13 50 58 114 80 114 14 0 14 0 -16 -95 -22
-69 -20 -90 7 -75 9 5 25 33 35 61 9 29 30 65 47 81 34 32 54 37 43 11 -31
-77 -45 -163 -26 -163 13 0 61 40 61 51 0 6 -4 7 -10 4 -13 -8 -12 8 5 80 12
52 12 62 0 74 -12 13 -18 13 -41 0 -15 -7 -31 -24 -37 -36 -14 -31 -26 -29
-24 3 1 16 -5 31 -16 38 -15 9 -23 6 -47 -21 -29 -32 -47 -34 -30 -3 9 16 4
32 -9 29 -3 -1 -18 -4 -33 -6z"/>
<path d="M2985 5371 c-19 -7 -19 -8 0 -18 16 -9 17 -15 7 -39 -6 -16 -18 -55
-26 -87 -14 -57 -14 -58 7 -55 14 2 25 16 34 44 23 70 113 158 113 111 0 -7
-9 -39 -21 -71 -29 -84 -9 -112 46 -64 25 22 25 48 -1 27 -8 -6 -14 -7 -14 -2
0 13 19 73 32 99 31 65 -30 86 -86 30 -37 -37 -52 -45 -43 -23 19 52 19 57 -5
56 -13 0 -32 -4 -43 -8z"/>
<path d="M1480 5360 c0 -5 6 -10 14 -10 12 0 10 -16 -9 -87 -13 -49 -21 -91
-18 -95 11 -19 41 15 52 57 11 43 73 127 85 115 6 -7 -20 -118 -34 -142 -14
-25 -13 -28 10 -28 15 0 27 16 48 63 27 57 75 117 87 106 2 -3 -4 -34 -15 -70
-20 -65 -25 -109 -13 -109 10 0 73 44 73 52 0 3 -8 4 -19 1 -18 -5 -18 -3 1
52 24 73 21 99 -13 103 -19 2 -33 -5 -53 -28 l-26 -32 0 31 c0 28 -3 31 -29
31 -20 0 -36 -9 -49 -25 -11 -14 -23 -25 -26 -25 -4 0 -4 11 0 25 6 23 4 25
-30 25 -20 0 -36 -4 -36 -10z"/>
<path d="M5820 5355 c0 -12 20 -15 120 -15 100 0 120 3 120 15 0 13 -20 15
-120 15 -100 0 -120 -2 -120 -15z"/>
<path d="M5147 5314 c-17 -17 13 -24 108 -24 106 0 139 5 129 21 -6 10 -227
13 -237 3z"/>
<path d="M2090 5286 c0 -9 15 -14 49 -15 28 0 53 -1 58 -2 4 -1 34 -1 66 0 43
1 57 5 57 16 0 12 -19 15 -115 15 -91 0 -115 -3 -115 -14z"/>
<path d="M5822 5273 c3 -16 18 -18 113 -20 109 -3 144 4 131 26 -5 7 -50 11
-127 11 -109 0 -120 -2 -117 -17z"/>
<path d="M344 5205 c-8 -19 3 -35 26 -35 19 0 30 17 23 38 -6 17 -42 15 -49
-3z"/>
<path d="M5467 4380 c-47 -52 -59 -86 -59 -174 0 -73 69 -196 109 -196 18 0
16 19 -2 26 -8 4 -25 27 -37 53 -31 65 -31 198 -1 257 12 22 29 46 37 53 9 8
16 17 16 22 0 20 -20 6 -63 -41z"/>
<path d="M7460 4408 c-43 -20 -44 -21 -20 -27 25 -7 25 -9 28 -123 3 -113 2
-117 -20 -129 l-23 -13 24 -6 c13 -3 41 -4 63 -2 38 4 39 5 21 22 -17 15 -19
31 -16 153 1 75 -1 138 -5 141 -4 3 -28 -5 -52 -16z"/>
<path d="M7580 4420 c0 -6 6 -13 14 -16 20 -8 44 -62 58 -128 15 -76 -4 -166
-45 -213 -32 -36 -31 -51 1 -34 32 17 70 69 82 109 14 53 12 144 -4 184 -27
63 -106 136 -106 98z"/>
<path d="M4157 4382 c-38 -39 -77 -123 -77 -165 0 -55 32 -131 75 -176 43 -45
78 -53 38 -8 -59 65 -77 178 -44 271 11 33 30 68 41 78 20 19 26 38 12 38 -4
0 -25 -17 -45 -38z"/>
<path d="M5260 4401 c5 -11 15 -23 21 -27 24 -14 40 -77 40 -163 1 -70 -3 -96
-19 -128 -12 -22 -28 -43 -37 -46 -18 -8 -20 -27 -2 -27 19 0 61 48 86 97 15
31 21 61 21 113 0 64 -3 76 -34 125 -31 47 -61 75 -81 75 -3 0 -1 -9 5 -19z"/>
<path d="M5603 4409 c-24 -9 -59 -56 -49 -66 3 -3 15 2 25 11 11 10 31 16 48
14 26 -3 28 -7 28 -43 0 -34 -4 -42 -30 -54 l-30 -15 33 -8 c39 -10 59 -49 43
-85 -13 -29 -43 -44 -62 -32 -7 5 -24 9 -37 9 -33 0 -25 -32 11 -44 23 -8 37
-6 72 13 64 34 86 110 44 152 -21 21 -21 23 -5 51 18 29 15 81 -5 93 -16 11
-64 13 -86 4z"/>
<path d="M6556 4399 c-17 -13 -26 -30 -26 -47 1 -23 2 -25 13 -11 35 46 102
48 113 3 11 -45 -13 -96 -76 -162 -34 -34 -58 -67 -55 -72 7 -12 154 -13 172
-2 14 9 28 62 16 62 -5 0 -14 -5 -20 -11 -5 -5 -32 -9 -59 -7 l-49 3 23 20
c35 30 88 106 95 136 21 84 -77 143 -147 88z"/>
<path d="M2826 4376 c-9 -14 -16 -30 -16 -35 0 -6 -18 -52 -40 -103 -22 -51
-40 -98 -40 -105 0 -6 -12 -21 -27 -32 l-28 -20 53 -1 c47 0 70 12 41 22 -8 3
-10 16 -5 41 l7 37 58 0 c44 0 60 -4 65 -16 9 -25 7 -64 -4 -64 -5 0 -10 -4
-10 -10 0 -5 25 -10 55 -10 30 0 55 5 55 10 0 6 -4 10 -10 10 -11 0 -24 29
-80 175 -23 61 -45 114 -49 118 -5 4 -15 -3 -25 -17z m30 -117 c8 -24 14 -46
14 -49 0 -3 -18 -5 -40 -5 -33 -1 -39 2 -35 15 4 8 12 32 18 53 15 47 26 43
43 -14z"/>
<path d="M7197 4354 c-4 -4 -7 -29 -7 -55 l0 -48 -52 -3 c-68 -4 -69 -22 -1
-26 l52 -3 3 -57 c2 -43 7 -57 18 -57 11 0 16 14 18 57 l3 57 57 3 c74 4 74
22 0 26 l-57 3 -3 51 c-3 48 -15 68 -31 52z"/>
<path d="M5053 4313 c-33 -4 -47 -23 -18 -23 20 0 19 -33 -5 -100 -23 -66 -25
-90 -6 -90 18 0 32 18 40 54 9 37 70 112 97 119 13 4 19 1 16 -6 -18 -51 -38
-149 -33 -162 5 -14 9 -14 35 -1 34 18 52 51 22 41 -18 -5 -18 -4 -5 36 8 23
17 60 21 84 5 38 3 43 -18 48 -21 6 -79 -24 -79 -41 0 -4 -9 -13 -20 -20 -18
-11 -19 -10 -10 14 12 30 13 55 3 52 -5 0 -23 -3 -40 -5z"/>
<path d="M5813 4313 c-23 -4 -33 -23 -13 -23 16 0 11 -51 -10 -108 -26 -69
-26 -84 2 -80 17 2 26 14 36 53 14 49 64 125 83 125 14 0 11 -32 -11 -95 -25
-72 -25 -85 0 -85 14 0 22 11 31 43 20 69 87 152 107 132 3 -2 -6 -38 -20 -78
-28 -81 -24 -116 12 -97 26 14 50 39 50 53 0 8 -4 7 -12 -1 -25 -25 -26 -10
-2 58 19 54 22 75 14 90 -6 11 -15 20 -21 20 -19 0 -54 -22 -76 -49 -21 -25
-22 -25 -16 -3 13 54 -42 64 -85 14 l-24 -27 7 33 c7 34 4 36 -52 25z"/>
<path d="M6791 4308 c13 -9 14 -20 7 -63 -4 -29 -15 -68 -23 -88 -19 -46 -19
-47 4 -47 13 0 28 20 50 64 31 63 84 121 101 111 4 -3 0 -33 -11 -68 -10 -34
-19 -75 -19 -90 0 -25 3 -27 23 -21 12 3 22 7 22 8 0 0 9 12 20 25 l20 24 -21
-7 c-22 -7 -22 -6 -7 36 8 24 15 61 16 83 2 36 0 40 -25 43 -18 2 -37 -7 -64
-30 l-37 -33 6 33 7 32 -43 -1 c-33 0 -39 -2 -26 -11z"/>
<path d="M4280 4300 c-13 -9 -13 -11 -1 -19 12 -8 11 -20 -4 -83 -11 -40 -23
-79 -28 -85 -6 -9 -4 -15 8 -19 22 -9 32 3 53 62 10 27 26 61 35 76 17 25 45
43 54 35 2 -3 -8 -40 -21 -83 -14 -43 -22 -82 -17 -87 15 -15 36 4 49 46 21
66 81 141 99 124 2 -3 -5 -37 -17 -77 -12 -40 -19 -78 -16 -86 6 -15 36 -20
36 -5 0 5 9 11 20 14 11 3 20 12 20 21 0 10 -6 13 -15 10 -18 -7 -18 -8 1 48
36 107 -3 152 -69 79 l-36 -40 2 37 c2 31 -1 37 -20 40 -14 2 -32 -8 -52 -29
-31 -32 -41 -26 -21 12 9 17 7 19 -17 19 -15 0 -35 -5 -43 -10z"/>
<path d="M8135 4286 c-18 -27 -7 -72 20 -82 28 -11 64 5 71 31 15 60 -58 101
-91 51z m63 -30 c-2 -13 -12 -22 -25 -24 -19 -3 -23 1 -23 21 0 14 6 27 13 30
22 7 38 -5 35 -27z"/>
<path d="M6190 4230 c0 -20 5 -21 118 -18 96 2 117 6 117 18 0 12 -21 16 -117
18 -113 3 -118 2 -118 -18z"/>
<path d="M4668 4229 c-6 -4 -7 -12 -4 -18 5 -7 44 -11 104 -11 107 0 145 7
139 24 -4 12 -220 16 -239 5z"/>
<path d="M3045 4126 c-23 -16 -13 -46 15 -46 15 0 20 7 20 24 0 31 -12 39 -35
22z"/>
<path d="M5256 3222 c-3 -5 5 -20 18 -33 36 -38 46 -63 52 -142 8 -95 -8 -165
-46 -202 -37 -35 -28 -52 11 -24 76 54 109 216 62 304 -25 47 -88 111 -97 97z"/>
<path d="M5477 3188 c-87 -90 -89 -243 -5 -334 22 -24 48 -44 56 -44 12 0 9 7
-11 28 -41 43 -57 93 -57 181 0 88 23 158 60 184 14 10 18 17 10 22 -7 4 -29
-11 -53 -37z"/>
<path d="M7595 3212 c93 -80 97 -291 6 -369 -23 -20 -24 -23 -7 -23 28 0 90
70 104 117 18 59 15 142 -7 188 -24 51 -75 105 -98 105 -17 -1 -16 -2 2 -18z"/>
<path d="M4157 3180 c-46 -51 -71 -127 -64 -191 9 -72 42 -140 82 -168 46 -31
57 -19 19 19 -38 36 -54 88 -54 170 0 79 16 134 51 171 24 26 27 39 9 39 -4 0
-23 -18 -43 -40z"/>
<path d="M5610 3213 c-20 -7 -49 -44 -50 -62 0 -11 4 -11 18 2 24 22 81 22 89
1 10 -27 -11 -68 -42 -83 l-30 -15 32 -8 c43 -11 67 -54 49 -89 -10 -21 -19
-24 -63 -24 -58 0 -72 -8 -53 -30 26 -31 112 -10 144 37 23 32 20 90 -5 122
-20 25 -20 28 -5 45 19 21 21 61 4 84 -14 18 -64 30 -88 20z"/>
<path d="M6579 3207 c-18 -13 -39 -50 -39 -66 0 -19 18 -12 25 9 9 28 70 38
95 15 39 -35 16 -99 -66 -185 -31 -32 -53 -64 -49 -69 3 -6 40 -11 84 -11 73
0 80 2 95 25 17 27 21 55 7 55 -5 0 -11 -7 -15 -15 -4 -11 -21 -15 -63 -15
l-57 0 40 38 c45 41 84 114 84 156 0 41 -41 76 -87 76 -21 0 -45 -6 -54 -13z"/>
<path d="M7456 3206 c-18 -8 -24 -16 -17 -20 6 -4 16 -4 21 -1 6 4 10 -40 10
-125 0 -110 -3 -132 -16 -137 -25 -9 4 -23 51 -23 50 0 78 15 46 25 -14 4 -22
16 -23 33 -3 38 -5 115 -7 195 -1 74 -7 78 -65 53z"/>
<path d="M2697 3187 c-8 -4 -4 -9 11 -13 21 -6 22 -10 22 -139 0 -127 -1 -132
-22 -143 -32 -15 172 -16 205 -1 49 22 61 92 23 128 l-24 23 19 33 c19 31 19
36 5 63 -8 16 -30 35 -47 43 -35 14 -173 19 -192 6z m184 -49 c6 -10 9 -31 7
-46 -3 -24 -8 -28 -51 -32 -26 -4 -50 -4 -52 -1 -3 2 -5 27 -5 55 l0 51 45 -3
c32 -3 48 -10 56 -24z m-8 -119 c68 -36 34 -113 -48 -107 l-40 3 -2 45 c-1 25
0 51 2 58 5 15 59 16 88 1z"/>
<path d="M6307 3153 c-4 -3 -7 -31 -7 -61 l0 -54 -52 4 c-42 2 -53 0 -53 -12
0 -11 14 -16 52 -18 l52 -3 3 -51 c4 -74 28 -77 28 -4 l0 56 49 0 c45 0 72 13
58 26 -3 3 -27 6 -54 7 l-48 2 -3 58 c-3 53 -9 66 -25 50z"/>
<path d="M7207 3153 c-4 -3 -7 -28 -7 -55 l0 -48 -49 0 c-45 0 -72 -13 -58
-27 3 -3 29 -6 56 -6 l51 -1 0 -47 c0 -63 8 -83 26 -68 9 7 14 31 14 64 l0 53
52 -2 c42 -1 53 2 56 17 3 15 -5 17 -56 17 l-59 0 5 30 c8 52 -10 94 -31 73z"/>
<path d="M5813 3113 c-26 -5 -31 -23 -8 -23 20 0 19 -17 -9 -106 -14 -43 -23
-81 -20 -86 11 -18 42 14 54 56 22 80 111 172 94 99 -3 -16 -14 -54 -25 -86
-24 -71 -24 -67 5 -67 19 0 25 7 31 36 11 61 84 159 103 139 3 -3 -3 -31 -12
-62 -21 -68 -25 -115 -11 -120 15 -5 76 47 69 59 -3 5 -12 4 -20 -3 -11 -9
-14 -7 -14 9 0 12 4 23 9 26 5 3 14 29 21 57 11 44 10 53 -3 66 -13 14 -20 14
-46 3 -17 -7 -31 -15 -31 -19 0 -3 -8 -16 -18 -29 l-18 -23 4 34 c2 20 -1 38
-8 42 -17 10 -68 -14 -75 -36 -10 -30 -24 -22 -19 11 5 32 1 33 -53 23z"/>
<path d="M6800 3110 c0 -5 5 -10 11 -10 12 0 4 -82 -11 -110 -4 -8 -10 -30
-12 -49 -5 -58 19 -47 50 21 29 64 82 128 107 128 10 0 7 -18 -11 -75 -13 -42
-24 -82 -24 -91 0 -26 30 -28 56 -4 26 25 34 51 9 30 -19 -16 -19 -9 2 71 9
36 14 73 10 82 -11 28 -49 19 -89 -20 -39 -38 -46 -35 -28 11 9 25 8 26 -30
26 -22 0 -40 -4 -40 -10z"/>
<path d="M4292 3103 c-20 -4 -21 -6 -8 -16 13 -11 13 -19 0 -72 -8 -33 -19
-68 -24 -77 -14 -25 -12 -48 4 -48 19 0 30 17 51 75 20 54 56 100 85 108 16 4
16 2 4 -22 -16 -32 -44 -124 -44 -146 0 -34 33 -8 51 40 20 55 73 125 94 125
11 0 10 -9 -2 -47 -8 -27 -19 -67 -23 -90 -6 -40 -5 -43 15 -43 12 0 31 11 43
25 28 32 28 38 0 30 -18 -6 -20 -4 -13 11 4 11 14 43 23 72 14 49 14 55 -2 70
-15 15 -18 15 -50 -2 -19 -10 -38 -28 -42 -40 -6 -18 -8 -17 -11 12 -2 18 -10
35 -18 38 -17 7 -54 -12 -77 -40 -17 -21 -18 -21 -12 12 7 34 6 34 -44 25z"/>
<path d="M5035 3100 c-3 -5 -1 -10 4 -10 17 0 13 -49 -10 -122 -12 -38 -19
-71 -16 -74 10 -11 37 4 43 23 13 46 62 127 86 144 33 24 52 25 40 2 -21 -42
-44 -155 -34 -165 12 -12 39 1 67 33 l20 22 -22 -5 c-21 -6 -22 -3 -16 20 3
15 10 37 14 50 5 13 9 39 9 58 0 31 -3 34 -30 34 -20 0 -39 -11 -65 -37 -19
-20 -35 -34 -35 -32 0 2 4 19 9 37 9 32 9 32 -24 32 -19 0 -37 -4 -40 -10z"/>
<path d="M8146 3094 c-33 -33 -12 -94 32 -94 35 0 52 17 52 51 0 32 -23 59
-50 59 -10 0 -26 -7 -34 -16z m48 -10 c20 -8 21 -38 1 -54 -12 -10 -18 -10
-30 0 -18 15 -20 46 -2 53 6 3 13 6 14 6 1 1 8 -2 17 -5z"/>
<path d="M4666 3031 c-14 -22 24 -31 130 -27 82 3 109 8 109 18 0 10 -27 14
-117 16 -64 1 -119 -2 -122 -7z"/>
<path d="M3024 2915 c-8 -19 3 -35 25 -35 18 0 35 33 23 44 -11 12 -43 6 -48
-9z"/>
<path d="M7586 2032 c-3 -5 4 -18 16 -28 60 -55 81 -224 38 -312 -11 -24 -27
-45 -35 -49 -15 -5 -21 -33 -7 -33 17 0 76 67 94 107 39 88 18 219 -45 277
-44 40 -55 47 -61 38z"/>
<path d="M7475 2006 c-29 -15 -35 -22 -22 -24 18 -4 20 -14 19 -132 0 -123 -1
-130 -17 -130 -8 0 -15 -5 -15 -11 0 -6 20 -9 55 -6 61 4 77 12 46 22 -20 6
-21 13 -20 151 1 80 -1 147 -2 148 -2 2 -22 -6 -44 -18z"/>
<path d="M4182 1999 c-9 -12 -24 -29 -33 -38 -45 -43 -62 -147 -39 -230 13
-48 74 -131 96 -131 20 0 17 8 -14 44 -20 23 -31 51 -41 108 -12 69 -12 84 4
142 10 38 27 74 41 87 13 12 24 26 24 31 0 15 -20 8 -38 -13z"/>
<path d="M5289 1981 c38 -48 56 -130 47 -221 -7 -65 -23 -101 -59 -131 -15
-12 -17 -18 -8 -23 8 -5 28 9 56 40 34 37 47 61 56 102 12 59 7 128 -12 164
-21 42 -80 108 -96 108 -10 0 -6 -11 16 -39z"/>
<path d="M5483 1981 c-62 -75 -79 -163 -48 -250 16 -47 59 -107 86 -122 30
-16 30 6 -1 39 -18 21 -33 52 -41 89 -23 107 -8 194 44 253 23 25 24 30 10 30
-10 0 -32 -18 -50 -39z"/>
<path d="M6571 1985 c-17 -20 -31 -39 -31 -44 0 -21 15 -17 37 10 41 48 103
31 103 -29 0 -50 -16 -79 -80 -144 -33 -34 -56 -66 -52 -70 5 -5 47 -8 93 -6
81 3 84 4 93 30 12 34 2 46 -21 26 -18 -16 -103 -23 -103 -9 0 4 14 20 31 37
38 36 89 122 89 151 0 12 -12 35 -26 52 -20 25 -34 31 -64 31 -31 0 -44 -7
-69 -35z"/>
<path d="M5590 1979 c-27 -37 -22 -44 16 -24 37 19 58 19 74 0 18 -22 3 -64
-30 -83 -38 -22 -38 -32 0 -32 32 0 50 -22 50 -63 0 -38 -23 -51 -79 -43 -54
7 -70 -3 -43 -26 29 -25 47 -27 88 -9 49 22 63 40 71 86 5 28 1 43 -17 67 -19
25 -21 35 -11 49 15 25 14 70 -3 92 -9 11 -27 17 -54 17 -34 0 -44 -5 -62 -31z"/>
<path d="M2782 1970 c-133 -96 -69 -312 88 -297 35 4 51 12 78 42 43 47 34 57
-15 16 -42 -35 -58 -37 -109 -16 -66 27 -85 144 -35 214 20 27 28 31 71 31 40
0 52 -4 69 -26 11 -14 22 -30 24 -37 10 -28 17 4 11 49 l-6 49 -67 3 c-61 2
-71 0 -109 -28z"/>
<path d="M4787 1944 c-4 -4 -7 -31 -7 -60 l0 -52 -52 2 c-41 1 -53 -2 -53 -14
0 -11 14 -16 53 -18 l52 -3 0 -55 c0 -47 3 -55 18 -52 13 2 18 15 20 55 l3 52
52 3 c38 2 52 7 52 18 0 11 -14 16 -52 18 l-52 3 -3 51 c-3 48 -15 68 -31 52z"/>
<path d="M6815 1911 c-18 -7 -18 -8 -2 -17 16 -9 16 -15 -3 -90 -24 -94 -24
-104 -6 -104 7 0 23 21 34 48 25 58 76 124 104 135 19 7 20 4 13 -30 -4 -21
-10 -42 -15 -48 -4 -5 -13 -27 -18 -48 -8 -30 -7 -40 5 -52 13 -14 18 -12 44
12 33 32 43 68 10 39 -20 -18 -20 -17 0 46 10 34 19 73 19 84 0 44 -55 38
-100 -10 -32 -33 -42 -33 -30 0 6 14 10 30 10 35 0 11 -37 11 -65 0z"/>
<path d="M4308 1902 c-29 -3 -37 -17 -16 -24 10 -4 7 -26 -10 -92 -13 -49 -21
-91 -18 -93 14 -14 35 11 54 64 19 51 74 124 86 112 3 -4 -19 -95 -39 -156 -6
-18 -4 -23 11 -23 17 0 54 59 54 85 0 15 71 95 84 95 10 0 9 -13 -5 -55 -29
-87 -33 -121 -16 -128 16 -6 25 -1 52 32 18 21 18 24 3 18 -22 -8 -22 -5 -3
57 19 62 19 105 1 112 -16 6 -62 -21 -86 -50 -15 -17 -16 -17 -15 10 0 41 -40
44 -79 7 l-29 -27 6 27 c8 30 3 34 -35 29z"/>
<path d="M5052 1903 c-10 -4 -10 -7 1 -17 14 -11 7 -57 -29 -173 -4 -17 -2
-23 9 -23 19 0 32 17 46 62 23 70 135 172 116 106 -3 -13 -10 -32 -15 -43 -16
-36 -29 -96 -23 -111 8 -20 29 -17 53 8 23 25 27 46 5 28 -19 -16 -19 -11 6
71 17 56 19 72 9 84 -20 25 -54 17 -90 -20 -18 -19 -35 -33 -37 -32 -1 2 1 18
6 35 9 30 8 32 -17 31 -15 0 -33 -3 -40 -6z"/>
<path d="M5805 1900 c-3 -5 1 -10 9 -10 9 0 16 -8 16 -17 0 -25 -32 -136 -43
-151 -7 -9 -7 -16 1 -24 19 -19 37 -2 57 58 19 57 66 124 87 124 12 0 3 -44
-23 -119 -10 -30 -16 -58 -13 -62 13 -22 34 -5 49 39 19 56 75 136 98 140 13
3 12 -9 -9 -84 -13 -48 -21 -91 -18 -95 10 -17 30 -9 60 22 28 30 28 31 5 24
-21 -6 -23 -5 -16 11 17 42 36 127 31 140 -9 23 -52 16 -84 -15 l-31 -28 -3
26 c-5 39 -41 40 -79 2 l-31 -31 7 30 c6 29 5 30 -29 30 -19 0 -38 -4 -41 -10z"/>
<path d="M8146 1884 c-19 -18 -19 -24 -6 -58 8 -21 16 -26 45 -26 29 0 37 5
46 27 15 41 -3 73 -40 73 -16 0 -37 -7 -45 -16z m64 -29 c0 -20 -5 -25 -25
-25 -20 0 -25 5 -25 25 0 20 5 25 25 25 20 0 25 -5 25 -25z"/>
<path d="M7102 1833 c3 -16 17 -18 121 -18 79 0 118 4 121 12 8 20 -6 23 -126
23 -108 0 -119 -2 -116 -17z"/>
<path d="M6205 1831 c-11 -20 26 -26 134 -23 88 3 111 6 111 18 0 11 -22 14
-119 14 -66 0 -122 -4 -126 -9z"/>
<path d="M3027 1723 c-13 -12 -7 -41 9 -47 22 -9 34 1 34 30 0 17 -6 24 -18
24 -10 0 -22 -3 -25 -7z"/>
<path d="M7597 843 c-4 -3 9 -23 27 -44 75 -82 68 -286 -11 -344 -25 -19 -12
-27 19 -13 33 16 66 64 84 124 18 61 18 86 -3 146 -22 61 -99 149 -116 131z"/>
<path d="M5495 799 c-66 -74 -86 -154 -60 -244 17 -56 77 -135 104 -135 17 0
13 10 -18 45 -43 49 -59 154 -37 244 11 44 24 73 41 88 25 22 33 43 16 43 -5
0 -25 -18 -46 -41z"/>
<path d="M7480 815 c-34 -18 -39 -24 -23 -25 29 0 33 -19 32 -137 -2 -105 -4
-116 -29 -126 -8 -3 2 -6 23 -7 85 -5 95 -3 70 15 -21 15 -22 23 -22 157 -1
78 -2 142 -3 144 -2 1 -23 -9 -48 -21z"/>
<path d="M4170 791 c-92 -97 -90 -263 4 -348 45 -41 64 -28 23 15 -64 68 -59
287 7 335 14 10 26 23 26 28 0 20 -25 7 -60 -30z"/>
<path d="M5283 806 c36 -29 57 -99 57 -191 0 -86 -14 -133 -47 -161 -14 -12
-24 -27 -21 -34 7 -22 79 50 100 99 43 100 12 242 -64 295 -36 26 -58 19 -25
-8z"/>
<path d="M5646 821 c-30 -6 -75 -55 -62 -68 4 -5 13 -1 19 8 33 44 87 28 87
-26 0 -27 -5 -36 -30 -47 -16 -7 -30 -15 -30 -18 0 -3 15 -12 33 -20 26 -12
33 -21 35 -52 4 -45 -17 -60 -79 -56 -48 3 -61 -12 -25 -32 20 -10 33 -11 69
0 38 10 48 19 66 56 25 48 22 75 -12 111 -19 21 -19 24 -4 41 31 34 17 82 -28
104 -5 2 -23 2 -39 -1z"/>
<path d="M6611 823 c-20 -8 -60 -55 -61 -70 0 -21 28 -15 35 7 7 23 44 35 80
26 21 -5 25 -12 25 -46 0 -55 -11 -77 -79 -149 -33 -36 -58 -69 -55 -73 8 -13
158 -9 176 5 21 17 30 57 13 57 -8 0 -17 -4 -20 -10 -3 -5 -29 -10 -58 -10
l-51 0 42 43 c23 23 42 46 42 51 0 4 9 19 20 33 20 25 26 78 12 99 -24 35 -82
52 -121 37z"/>
<path d="M2716 788 c19 -9 22 -22 28 -102 9 -117 1 -172 -26 -179 -41 -11 -4
-27 61 -27 73 0 143 19 174 48 29 26 57 87 57 125 0 42 -51 124 -86 137 -36
14 -236 12 -208 -2z m174 -23 c46 -24 60 -52 60 -120 0 -83 -26 -116 -98 -123
l-52 -5 0 132 0 131 30 0 c17 0 44 -7 60 -15z"/>
<path d="M6327 763 c-4 -3 -7 -28 -7 -55 0 -31 -4 -48 -12 -49 -7 -1 -31 -2
-53 -3 -28 -1 -40 -5 -40 -16 0 -11 13 -15 50 -16 l50 -1 5 -54 c4 -39 9 -54
20 -54 11 0 16 14 18 57 l3 57 49 -6 c46 -5 50 -4 50 15 0 19 -5 21 -52 19
l-52 -2 3 46 c2 43 -16 79 -32 62z"/>
<path d="M4787 747 c-3 -7 -3 -32 -2 -55 l3 -42 -53 0 c-57 0 -74 -10 -51 -29
9 -8 31 -9 61 -5 l48 6 -6 -43 c-6 -44 7 -84 24 -74 5 4 9 31 9 61 l0 55 52
-2 c43 -3 54 0 56 14 3 14 -5 17 -52 17 l-55 0 -3 52 c-3 49 -20 74 -31 45z"/>
<path d="M6840 733 c-34 -6 -50 -23 -22 -23 27 0 27 -8 2 -88 -25 -81 -26
-102 0 -102 14 0 22 10 30 38 12 46 73 128 101 135 18 5 20 2 13 -26 -3 -18
-13 -47 -20 -66 -17 -40 -18 -91 -3 -91 16 0 79 57 72 64 -4 3 -12 1 -20 -5
-18 -16 -17 6 2 61 19 54 19 96 0 104 -21 8 -56 -8 -84 -38 -32 -34 -45 -33
-27 3 9 16 12 31 9 35 -7 6 -12 6 -53 -1z"/>
<path d="M5070 717 c-24 -7 -29 -12 -17 -14 22 -6 21 -13 -3 -101 -24 -88 -25
-92 -2 -92 13 0 23 15 36 49 19 54 79 131 103 131 11 0 13 -7 8 -32 -4 -18
-11 -38 -16 -44 -16 -20 -23 -101 -9 -109 15 -9 78 51 66 62 -5 4 -11 2 -13
-4 -3 -7 -8 -13 -13 -13 -4 0 1 27 11 61 10 33 19 72 19 85 0 21 -5 24 -34 24
-19 0 -36 -3 -38 -7 -2 -5 -18 -21 -36 -38 l-33 -30 10 28 c13 33 14 57 4 56
-5 0 -24 -6 -43 -12z"/>
<path d="M5820 719 c-11 -8 -12 -12 -2 -16 17 -7 15 -37 -7 -118 -11 -38 -17
-72 -15 -75 12 -11 40 21 60 70 24 60 65 115 81 109 7 -3 2 -32 -14 -87 -14
-46 -22 -86 -19 -89 14 -14 36 10 53 56 18 51 72 121 93 121 7 0 9 -8 4 -22
-13 -42 -26 -93 -31 -125 -4 -29 -2 -33 16 -33 12 0 30 9 41 20 24 24 28 49 5
30 -19 -16 -19 -6 1 59 31 106 1 141 -66 76 l-39 -38 -3 34 c-4 45 -28 48 -68
9 l-32 -31 4 28 c2 24 -1 28 -22 31 -14 1 -32 -3 -40 -9z"/>
<path d="M4303 713 c-26 -5 -31 -23 -7 -23 18 0 18 -6 -14 -112 -11 -37 -17
-70 -12 -73 20 -12 39 10 50 57 13 50 61 118 85 118 9 0 4 -24 -15 -82 -18
-55 -23 -85 -16 -90 16 -10 24 -1 52 60 15 31 38 69 52 85 29 31 59 37 47 10
-14 -33 -35 -117 -35 -140 0 -30 22 -29 56 2 24 22 24 30 2 26 -11 -1 -10 10
7 76 20 77 14 94 -28 82 -18 -5 -42 -20 -54 -34 l-23 -26 0 30 c0 16 -4 33
-10 36 -12 7 -47 -10 -77 -38 -26 -23 -27 -20 -13 17 10 28 6 29 -47 19z"/>
<path d="M8147 703 c-14 -14 -6 -61 13 -78 44 -40 107 25 69 71 -12 14 -70 20
-82 7z m73 -38 c0 -20 -5 -25 -24 -25 -24 0 -41 23 -30 41 3 5 16 9 30 9 19 0
24 -5 24 -25z"/>
<path d="M7110 651 c0 -17 15 -20 91 -22 132 -2 149 0 149 16 0 13 -20 15
-120 15 -68 0 -120 -4 -120 -9z"/>
<path d="M3061 527 c-8 -10 -7 -19 4 -33 15 -19 15 -19 30 0 11 14 12 23 4 33
-6 7 -15 13 -19 13 -4 0 -13 -6 -19 -13z"/>
</g>
</svg>
