<?xml version="1.0" standalone="no"?>
<!DOCTYPE svg PUBLIC "-//W3C//DTD SVG 20010904//EN"
 "http://www.w3.org/TR/2001/REC-SVG-20010904/DTD/svg10.dtd">
<svg version="1.0" xmlns="http://www.w3.org/2000/svg"
 width="1460.000000pt" height="653.000000pt" viewBox="0 0 1460.000000 653.000000"
 preserveAspectRatio="xMidYMid meet">
<metadata>
Created by potrace 1.16, written by Peter Selinger 2001-2019
</metadata>
<g transform="translate(0.000000,653.000000) scale(0.100000,-0.100000)"
fill="#000000" stroke="none">
<path d="M1458 6298 c-3 -29 -6 -33 -30 -30 -16 2 -28 -1 -28 -6 0 -5 6 -10
13 -9 42 1 47 -3 47 -43 l0 -40 -45 0 -45 0 0 40 c0 22 5 40 10 40 6 0 10 5
10 10 0 6 -8 10 -17 10 -16 0 -18 -8 -15 -57 l4 -58 48 3 49 4 4 -59 3 -58 2
58 2 57 55 0 55 0 0 55 c0 56 -8 66 -40 45 -12 -8 -10 -10 8 -10 21 0 23 -4
20 -37 -3 -38 -3 -38 -50 -41 l-48 -3 0 40 c0 24 5 41 11 41 8 0 8 5 -1 15 -7
8 -10 25 -6 40 4 14 2 25 -3 25 -5 0 -11 -15 -13 -32z"/>
<path d="M1017 6304 c2 -6 17 -8 33 -6 28 4 30 2 30 -27 0 -25 4 -31 23 -32
15 0 10 -5 -18 -14 l-40 -14 50 2 c34 1 49 6 48 15 -2 7 7 12 22 12 20 0 25 5
25 25 0 16 -6 25 -15 25 -8 0 -15 -4 -15 -10 0 -5 5 -10 11 -10 5 0 7 -4 4
-10 -10 -17 -85 -12 -85 5 0 8 6 15 13 15 8 0 7 4 -3 10 -10 7 9 10 63 10 l77
0 0 -110 c0 -79 -3 -110 -12 -110 -9 0 -9 -3 0 -12 21 -21 27 2 28 125 l1 122
-122 0 c-83 0 -121 -3 -118 -11z"/>
<path d="M3100 6300 c0 -25 -8 -25 -27 -2 -14 16 -14 16 -9 0 4 -14 0 -18 -20
-18 -16 0 -23 -4 -18 -11 3 -6 19 -9 35 -5 17 3 30 1 33 -7 5 -9 7 -9 12 1 7
15 70 16 80 0 4 -6 -1 -17 -10 -24 -16 -11 -15 -13 11 -16 20 -2 28 -8 28 -23
0 -18 -8 -20 -62 -23 -56 -3 -63 -1 -63 16 0 10 5 23 11 29 8 8 8 13 0 17 -6
4 -11 2 -11 -4 0 -19 -31 -82 -58 -118 -13 -18 -22 -36 -19 -38 3 -3 18 14 34
38 l29 43 87 3 87 3 0 -34 c0 -41 -21 -62 -52 -54 -22 6 -22 6 -4 -8 11 -8 23
-15 26 -15 17 0 40 39 46 78 6 39 5 42 -16 42 -19 0 -22 4 -17 26 4 20 0 28
-15 32 -15 3 -18 10 -14 28 6 23 4 24 -44 24 -47 0 -51 2 -45 20 4 11 2 20 -4
20 -6 0 -11 -9 -11 -20z"/>
<path d="M3690 6190 l0 -135 122 2 123 2 3 125 c1 72 -1 126 -7 126 -5 0 -10
-53 -10 -117 -1 -64 -4 -120 -7 -123 -3 -3 -12 4 -20 14 -9 13 -12 39 -10 78
2 32 0 60 -3 62 -3 1 -17 0 -31 -5 -24 -7 -24 -7 -2 -8 12 -1 22 -5 22 -11 0
-5 -25 -10 -55 -10 -58 0 -78 19 -22 21 l32 2 -35 6 c-19 4 -38 5 -42 3 -13
-6 -9 -100 5 -105 8 -3 5 -11 -11 -26 -38 -38 -41 -27 -32 147 2 39 -1 67 -8
74 -9 9 -12 -19 -12 -122z m180 -20 c0 -5 -25 -10 -55 -10 -30 0 -55 5 -55 10
0 6 25 10 55 10 30 0 55 -4 55 -10z m0 -30 c0 -5 -25 -10 -55 -10 -30 0 -55 5
-55 10 0 6 25 10 55 10 30 0 55 -4 55 -10z m-9 -39 c13 -11 21 -22 18 -26 -4
-3 -38 -5 -75 -3 l-69 3 35 22 c43 28 61 28 91 4z"/>
<path d="M5013 6289 c-6 -16 -18 -29 -27 -29 -14 0 -16 -15 -16 -94 l0 -95 31
11 c23 8 37 8 50 0 16 -10 18 -5 21 56 2 37 2 81 0 98 -3 27 -6 30 -28 26 -26
-5 -33 15 -13 35 6 6 7 13 2 16 -5 3 -14 -7 -20 -24z m45 -71 c-3 -30 -6 -33
-38 -33 -25 0 -36 5 -38 18 -5 27 16 47 50 47 27 0 29 -2 26 -32z m2 -84 c0
-35 -1 -35 -37 -32 -27 2 -39 8 -41 21 -7 33 6 47 43 47 33 0 35 -2 35 -36z"/>
<path d="M5111 6282 c-7 -20 -15 -44 -18 -52 -3 -8 2 -5 12 8 12 17 26 22 60
22 24 0 46 -3 48 -7 8 -16 -12 -176 -23 -183 -7 -4 -22 -5 -34 -3 -17 4 -18 3
-6 -6 45 -32 66 2 78 127 l8 82 -54 0 c-49 0 -54 2 -49 20 10 37 -10 30 -22
-8z"/>
<path d="M5805 6299 c-5 -14 -13 -19 -26 -16 -17 5 -19 -1 -19 -49 0 -46 2
-52 17 -47 11 4 12 8 5 11 -7 2 -12 10 -12 18 0 10 13 14 45 14 33 0 45 -4 45
-15 0 -9 -9 -15 -25 -15 -20 0 -25 -5 -25 -25 0 -22 -5 -25 -37 -26 -24 -1
-29 -3 -15 -6 28 -6 28 -8 -4 -52 l-26 -36 34 38 c18 20 36 37 41 37 4 0 7
-13 7 -30 0 -24 -4 -30 -22 -30 -21 0 -21 0 -3 -14 26 -19 35 -12 35 29 0 38
15 55 25 26 7 -23 43 -56 51 -48 4 3 -7 17 -22 31 l-29 26 26 23 c20 18 23 26
13 34 -6 7 -11 32 -10 57 2 46 1 46 -31 46 -32 0 -45 14 -21 22 9 3 9 6 1 11
-7 4 -14 -2 -18 -14z m55 -44 c0 -11 -12 -15 -45 -15 -42 0 -54 7 -38 23 3 4
24 7 45 7 27 0 38 -4 38 -15z m7 -80 c5 -16 -14 -38 -26 -31 -18 12 -13 48 6
44 9 -2 18 -7 20 -13z"/>
<path d="M7980 6285 c0 -31 -3 -35 -27 -36 -24 -2 -25 -2 -5 -6 28 -6 28 -18
-2 -76 -13 -26 -17 -42 -10 -36 7 6 16 19 19 30 13 39 24 17 28 -53 l3 -73 2
78 c2 77 7 88 30 65 18 -18 14 3 -5 24 -20 22 -28 88 -13 98 8 5 7 9 -4 13
-13 5 -16 -1 -16 -28z"/>
<path d="M5470 6289 c-41 -12 -52 -17 -29 -15 36 4 37 3 41 -31 2 -19 1 -56
-2 -83 l-6 -48 44 -4 c24 -2 49 0 55 4 7 4 -7 8 -30 8 l-43 0 0 40 c0 39 1 40
36 40 21 0 33 4 29 10 -4 6 -19 9 -33 8 -25 -3 -27 0 -27 32 0 31 3 35 28 38
15 2 27 8 27 13 0 12 -11 10 -90 -12z"/>
<path d="M5662 6268 c-27 -53 -27 -56 0 -60 23 -3 75 39 63 51 -4 3 -12 -2
-19 -12 -13 -17 -46 -24 -46 -9 0 4 9 18 20 32 21 26 25 40 12 40 -4 0 -17
-19 -30 -42z"/>
<path d="M6076 6288 c-12 -45 -7 -58 19 -58 22 0 25 -4 25 -33 0 -20 -8 -39
-20 -50 -29 -25 -41 -21 -35 11 l5 27 -11 -27 c-13 -35 -59 -40 -59 -8 0 13 7
20 20 20 11 0 20 5 20 11 0 6 -9 8 -21 4 -17 -6 -20 -3 -17 16 2 15 12 26 28
30 l25 7 -27 1 c-38 1 -39 38 -3 47 36 9 23 17 -14 9 l-31 -7 5 -73 c4 -62 2
-75 -12 -83 -13 -8 -6 -11 28 -13 43 -4 261 5 227 9 -10 1 -18 7 -18 14 0 9
-3 9 -12 0 -7 -7 -27 -12 -45 -12 -29 0 -33 3 -29 23 17 83 17 86 -11 89 -39
4 -42 28 -4 28 17 0 31 5 31 10 0 6 -11 8 -27 4 -22 -6 -25 -4 -20 10 4 9 3
16 -2 16 -5 0 -11 -10 -15 -22z"/>
<path d="M6966 6285 c-4 -14 -13 -25 -21 -25 -19 0 -23 -22 -23 -110 l1 -75
51 1 51 2 3 57 c2 44 9 66 29 92 22 29 30 33 62 29 20 -3 40 -5 45 -5 9 -1 1
-148 -10 -176 -5 -13 -15 -16 -38 -11 l-31 5 28 -15 c27 -14 30 -14 42 3 15
19 22 59 28 156 l4 57 -55 0 c-49 0 -54 2 -49 20 3 11 2 20 -3 20 -4 0 -11
-15 -14 -32 -4 -18 -13 -42 -21 -52 -14 -19 -15 -19 -15 7 0 15 -6 27 -13 27
-9 0 -11 -12 -9 -40 4 -40 4 -40 -32 -40 -33 0 -36 2 -36 30 0 26 8 35 31 32
4 -1 5 7 2 17 -3 10 0 22 6 25 13 9 15 26 2 26 -5 0 -12 -11 -15 -25z m44
-155 c0 -39 -1 -40 -32 -36 -25 2 -34 9 -36 25 -6 36 5 51 38 51 28 0 30 -2
30 -40z"/>
<path d="M7488 6305 c-3 -3 -34 -12 -69 -20 -47 -11 -53 -14 -22 -11 42 4 42
4 45 -33 2 -20 0 -57 -3 -84 -3 -26 -3 -49 -1 -52 11 -10 82 -5 82 6 0 7 -11
9 -29 6 -25 -5 -30 -3 -35 19 -8 31 1 65 17 63 24 -3 37 1 37 11 0 6 -11 8
-25 4 -14 -3 -25 -2 -26 2 0 5 -2 18 -4 29 -5 24 12 45 36 45 11 0 19 5 19 10
0 11 -13 13 -22 5z"/>
<path d="M7617 6262 c-26 -51 -26 -65 -1 -55 19 7 18 -4 -8 -45 l-22 -35 25 8
c13 4 36 8 51 9 22 1 25 4 16 20 -6 10 -13 14 -17 9 -7 -11 -41 -25 -41 -17 0
12 30 61 44 73 27 23 17 34 -10 12 -37 -29 -47 -17 -23 26 11 19 18 37 15 40
-2 2 -15 -18 -29 -45z"/>
<path d="M7756 6295 c-3 -8 -12 -15 -21 -15 -11 0 -15 -12 -15 -51 0 -27 4
-48 9 -45 5 3 7 15 4 26 -5 18 0 20 42 20 45 0 47 -1 41 -24 -4 -15 -1 -26 7
-29 9 -3 9 -7 -2 -20 -19 -24 -29 -21 -33 11 -3 31 -23 37 -23 7 0 -15 -9 -22
-35 -26 -19 -4 -27 -7 -17 -8 24 -2 21 -21 -10 -53 -15 -15 -22 -28 -15 -28 6
0 23 16 38 35 18 25 30 33 37 26 15 -15 -9 -64 -26 -55 -6 4 -4 -2 6 -12 15
-16 19 -17 27 -4 5 8 10 27 10 43 0 31 16 36 25 7 3 -11 15 -25 27 -31 30 -16
33 -4 3 15 -32 21 -32 50 1 65 25 11 26 13 9 25 -15 11 -17 22 -12 60 l7 46
-36 0 c-28 0 -35 3 -30 15 3 8 1 15 -3 15 -5 0 -11 -7 -15 -15z m62 -42 c2 -9
-10 -13 -42 -13 -35 0 -46 4 -46 16 0 12 9 14 42 12 23 -2 43 -9 46 -15z"/>
<path d="M8380 6295 c10 -12 7 -15 -15 -21 -14 -3 -44 -4 -66 0 -27 4 -38 3
-34 -4 8 -13 255 -14 255 -1 0 6 -23 7 -54 4 -48 -5 -55 -3 -65 16 -7 11 -17
21 -23 21 -7 0 -6 -5 2 -15z"/>
<path d="M8638 6284 c4 -25 3 -26 -22 -22 -14 3 -26 1 -26 -3 0 -5 9 -9 20 -9
16 0 20 -7 20 -35 0 -46 -20 -136 -34 -155 -9 -13 -9 -13 5 -2 9 7 23 40 30
73 11 51 16 59 33 57 18 -3 20 -9 18 -48 -4 -65 -11 -80 -35 -80 -21 -1 -21
-1 -4 -11 27 -16 39 1 45 62 4 40 11 58 31 77 14 13 17 18 7 11 -15 -11 -20
-11 -23 -2 -3 8 -15 10 -34 6 -26 -5 -29 -3 -29 21 0 24 3 26 41 26 26 0 38 4
33 11 -3 6 -17 8 -30 5 -17 -5 -24 -2 -24 8 0 7 -6 19 -14 25 -11 9 -12 6 -8
-15z"/>
<path d="M8762 6265 c-25 -51 -21 -60 6 -15 l19 30 32 -45 c18 -25 37 -45 43
-45 6 0 -6 18 -26 40 -20 22 -36 49 -36 60 0 33 -15 23 -38 -25z"/>
<path d="M9128 6238 c-3 -62 -6 -73 -20 -72 -18 2 -21 -9 -20 -71 1 -49 3 -62
9 -47 3 7 24 12 56 12 l52 0 -3 54 c-4 52 -5 54 -30 53 -23 -2 -28 3 -30 26
-2 18 2 29 13 33 14 6 14 8 -2 19 -15 11 -15 17 -5 39 9 21 9 26 -3 26 -11 0
-15 -18 -17 -72z m52 -128 l0 -40 -40 0 -40 0 0 40 0 40 40 0 40 0 0 -40z"/>
<path d="M10540 6292 c0 -10 -9 -34 -19 -55 -10 -20 -15 -37 -10 -37 5 0 9 4
9 9 0 16 31 42 42 35 12 -8 3 -105 -13 -136 -6 -13 -19 -32 -28 -44 -9 -11 -2
-6 15 11 17 18 33 38 36 45 6 18 27 4 38 -26 5 -13 14 -24 20 -24 14 0 -2 29
-29 54 -32 29 -27 46 13 46 38 0 46 -12 46 -68 l0 -37 45 3 45 4 0 82 c0 44 3
90 6 101 5 18 0 20 -45 20 l-51 0 0 -46 0 -46 -40 -1 c-38 -2 -40 0 -40 28 0
17 5 31 10 31 6 1 15 2 22 3 6 0 13 6 15 13 3 8 -8 10 -38 6 -41 -6 -42 -6
-35 20 4 16 2 27 -4 27 -5 0 -10 -8 -10 -18z m198 -119 l-3 -88 -32 -3 -33 -3
0 84 c0 46 3 87 7 90 3 4 19 7 35 7 l29 0 -3 -87z"/>
<path d="M138 6289 c-10 -5 -18 -15 -18 -21 0 -9 3 -9 12 0 7 7 25 12 40 12
56 0 44 -72 -22 -138 -16 -17 -30 -33 -30 -36 0 -13 98 -5 109 8 10 12 6 13
-29 9 -22 -3 -40 -2 -40 2 0 3 14 27 32 51 34 47 42 99 17 115 -18 12 -50 11
-71 -2z"/>
<path d="M287 6282 c-22 -24 -22 -39 -1 -18 24 25 63 20 70 -8 9 -36 -2 -59
-46 -105 -22 -23 -40 -43 -40 -46 0 -3 24 -5 54 -5 37 0 56 4 59 14 4 11 -3
13 -34 9 -21 -3 -39 -3 -39 1 0 3 16 26 35 52 40 52 46 97 16 114 -29 15 -56
12 -74 -8z"/>
<path d="M2160 6209 c-36 -50 -72 -94 -80 -99 -12 -8 -11 -9 5 -10 14 0 24 10
32 30 7 20 18 30 32 30 13 0 19 5 15 14 -6 17 12 56 26 56 13 0 13 -47 0 -55
-7 -4 -7 -11 -2 -18 5 -7 6 -21 1 -32 -12 -30 -11 -33 14 -28 21 4 22 10 24
104 1 54 1 99 0 99 -1 -1 -31 -41 -67 -91z"/>
<path d="M2327 6292 c10 -6 9 -20 -3 -62 -9 -30 -18 -66 -21 -80 -3 -14 -12
-31 -21 -37 -14 -12 -14 -13 4 -15 49 -3 100 4 121 17 27 18 30 56 7 76 -14
11 -14 13 0 21 9 5 20 18 26 28 17 32 -19 60 -77 60 -27 0 -43 -4 -36 -8z m77
-8 c19 -7 21 -45 4 -62 -13 -13 -54 -16 -62 -4 -6 10 21 72 33 72 5 0 16 -3
25 -6z m-16 -96 c7 -7 12 -21 12 -33 0 -29 -19 -45 -52 -45 -31 0 -34 10 -17
59 11 32 35 41 57 19z"/>
<path d="M2530 6278 c-43 -30 -73 -87 -64 -123 7 -29 56 -65 89 -65 11 0 34 9
50 20 17 11 25 20 18 20 -6 0 -15 -4 -18 -10 -11 -18 -81 -11 -100 10 -34 38
1 134 57 154 26 9 79 1 77 -12 -4 -23 4 -33 10 -12 4 15 3 28 -3 32 -22 15
-84 8 -116 -14z"/>
<path d="M2723 6267 c-4 -49 -40 -148 -60 -163 -16 -12 -9 -13 48 -10 37 3 81
12 98 20 51 27 76 99 51 146 -11 20 -66 40 -110 40 -21 0 -25 -5 -27 -33z
m105 0 c15 -12 16 -78 1 -110 -13 -29 -48 -47 -89 -47 -34 0 -35 5 -16 75 27
97 33 106 63 99 16 -4 34 -11 41 -17z"/>
<path d="M3758 6293 c7 -3 16 -2 19 1 4 3 -2 6 -13 5 -11 0 -14 -3 -6 -6z"/>
<path d="M3855 6290 c4 -6 -15 -10 -50 -10 -52 0 -56 -2 -53 -22 3 -20 8 -22
58 -19 30 1 56 4 57 5 1 1 4 14 7 29 3 19 1 27 -10 27 -8 0 -12 -4 -9 -10z m5
-30 c0 -5 -20 -10 -45 -10 -25 0 -45 5 -45 10 0 6 20 10 45 10 25 0 45 -4 45
-10z"/>
<path d="M5328 6293 c28 -4 32 -7 26 -26 -3 -12 -13 -33 -21 -45 -14 -23 -14
-24 6 -17 32 10 41 -1 31 -36 -12 -41 -19 -47 -31 -29 -7 11 -8 7 -3 -13 5
-21 1 -34 -17 -54 l-24 -27 28 21 c28 21 28 21 60 3 39 -23 157 -37 183 -22
15 9 2 11 -59 12 -91 0 -147 19 -147 49 0 11 4 22 9 25 5 3 11 16 14 28 2 13
8 31 12 41 6 14 2 17 -19 17 -31 0 -32 5 -6 48 l20 32 -48 -2 c-37 -1 -40 -2
-14 -5z"/>
<path d="M6167 6288 c2 -5 11 -8 19 -8 24 0 17 -38 -8 -43 l-23 -4 23 -2 c16
-1 22 -7 22 -25 0 -18 -6 -26 -22 -28 -21 -3 -21 -4 5 -9 26 -6 27 -5 27 40 0
25 3 55 6 67 5 18 1 21 -24 20 -17 -1 -28 -4 -25 -8z"/>
<path d="M7283 6293 c31 -5 34 -21 12 -64 -16 -29 -16 -30 10 -23 22 5 25 3
25 -20 0 -14 -9 -35 -19 -45 -11 -11 -17 -22 -13 -25 3 -4 -5 -21 -18 -39
l-23 -32 23 21 c22 22 23 22 55 3 36 -22 153 -36 182 -23 12 5 -13 10 -74 14
-78 4 -96 9 -115 27 -20 20 -20 24 -7 40 9 10 20 35 26 56 11 35 10 37 -13 37
-28 0 -29 5 -9 40 21 37 19 40 -27 39 -30 -2 -35 -3 -15 -6z"/>
<path d="M8058 6174 c-2 -69 0 -128 5 -131 4 -2 7 1 7 6 0 15 83 14 98 -1 9
-9 12 17 12 120 0 81 -4 132 -10 132 -5 0 -8 -10 -6 -22 2 -13 0 -31 -5 -40
-6 -10 -5 -19 1 -23 5 -3 10 -19 10 -36 0 -21 -5 -29 -17 -29 -12 0 -14 -3 -7
-8 7 -4 14 -20 15 -37 4 -29 3 -30 -43 -33 l-47 -3 0 75 0 75 32 4 32 4 -34 1
c-33 2 -33 3 -28 37 3 19 2 35 -3 35 -5 0 -10 -57 -12 -126z"/>
<path d="M8945 6250 c0 -40 3 -49 15 -45 21 6 44 -10 35 -25 -4 -6 -18 -10
-31 -7 -13 2 -24 0 -24 -4 0 -5 14 -9 30 -9 42 0 40 -27 -2 -33 -18 -2 -1 -4
37 -4 39 0 55 2 38 4 -43 6 -45 33 -3 33 17 0 30 5 30 10 0 6 -12 9 -26 8 -15
-2 -29 3 -31 10 -3 8 6 12 26 12 30 0 30 0 28 50 l-2 50 -60 0 -60 0 0 -50z
m55 5 c0 -28 -4 -35 -20 -35 -11 0 -20 7 -20 15 0 9 6 12 18 8 16 -6 16 -5 0
14 -23 25 -23 33 2 33 16 0 20 -7 20 -35z m50 24 c0 -5 -4 -8 -9 -5 -5 3 -12
-1 -15 -9 -4 -11 0 -15 11 -13 10 2 19 -5 21 -14 2 -13 -3 -18 -20 -18 -19 0
-23 5 -22 28 0 15 2 30 2 35 3 11 32 8 32 -4z"/>
<path d="M10165 6290 c3 -5 13 -10 21 -10 8 0 12 5 9 10 -3 6 -13 10 -21 10
-8 0 -12 -4 -9 -10z"/>
<path d="M10215 6291 c3 -6 22 -11 42 -11 45 0 39 8 -11 16 -26 4 -36 2 -31
-5z"/>
<path d="M10310 6290 c-12 -8 -11 -10 7 -10 12 0 25 5 28 10 8 13 -15 13 -35
0z"/>
<path d="M10371 6288 c1 -7 5 -24 9 -38 7 -22 8 -21 9 13 1 20 -3 37 -9 37 -5
0 -10 -6 -9 -12z"/>
<path d="M4543 6249 c-15 -23 -49 -67 -75 -99 -34 -41 -43 -60 -34 -63 17 -7
26 1 26 23 0 21 31 50 54 50 22 0 32 -28 17 -51 -10 -17 -8 -19 26 -19 26 0
34 3 24 9 -11 7 -13 28 -8 100 4 50 5 91 3 91 -3 0 -17 -18 -33 -41z m7 -44
c0 -24 -24 -44 -37 -32 -6 6 23 57 32 57 3 0 5 -11 5 -25z"/>
<path d="M4685 6280 c9 -14 -43 -177 -58 -183 -6 -3 14 -6 47 -6 97 -2 156 44
156 120 0 49 -39 79 -100 79 -32 0 -49 -4 -45 -10z m91 -8 c6 -4 16 -17 23
-30 14 -27 0 -91 -26 -115 -22 -19 -88 -32 -97 -19 -3 6 4 47 16 91 20 75 23
81 47 81 14 0 31 -4 37 -8z"/>
<path d="M6468 6281 c11 -7 10 -23 -8 -90 -13 -45 -29 -89 -37 -97 -25 -25 88
-19 121 7 28 22 34 57 14 77 -9 9 -10 15 -2 20 36 23 33 82 -3 82 -13 0 -14
-3 -5 -12 20 -20 14 -48 -13 -60 -25 -11 -25 -11 -5 -30 24 -23 24 -27 4 -56
-14 -21 -74 -33 -74 -14 0 18 22 82 28 82 4 0 7 16 8 36 0 24 7 42 19 50 17
13 15 14 -21 14 -25 0 -34 -3 -26 -9z"/>
<path d="M6728 6281 c21 -4 39 -15 47 -30 l12 -24 5 29 c4 30 3 30 -47 31 -40
0 -44 -1 -17 -6z"/>
<path d="M9476 6282 c13 -8 12 -11 -15 -106 -11 -37 -26 -74 -32 -82 -10 -12
0 -14 60 -14 70 0 71 0 87 33 l17 32 -25 -22 c-17 -16 -37 -23 -66 -23 -23 0
-42 2 -42 4 0 2 7 20 15 40 13 32 20 37 43 34 20 -2 28 2 30 17 4 17 2 18 -12
6 -9 -7 -22 -11 -31 -8 -12 5 -12 12 -1 44 15 43 52 56 80 28 15 -15 16 -15
16 4 0 19 -6 21 -67 21 -38 0 -63 -4 -57 -8z"/>
<path d="M11087 6253 c-11 -73 -18 -98 -37 -137 l-19 -39 60 6 c45 4 65 11 80
28 22 25 23 33 9 60 -8 15 -7 23 5 35 15 16 19 28 15 54 -3 22 -20 30 -66 30
-40 0 -42 -1 -47 -37z m88 -8 c0 -21 -7 -33 -23 -41 -20 -10 -21 -13 -7 -24
18 -15 20 -51 3 -68 -7 -7 -25 -12 -40 -12 -32 0 -36 19 -16 67 6 15 12 33 12
38 1 6 5 25 10 43 7 28 12 33 34 30 23 -2 27 -8 27 -33z"/>
<path d="M11284 6281 c4 -6 -2 -41 -13 -76 -12 -35 -21 -71 -21 -79 0 -8 -7
-22 -16 -30 -14 -15 -11 -16 36 -16 92 0 149 41 157 112 7 64 -17 90 -92 96
-42 3 -56 2 -51 -7z m107 -22 c50 -50 -9 -159 -84 -159 -19 0 -36 2 -39 6 -3
3 5 37 18 75 13 39 24 77 24 85 0 22 57 17 81 -7z"/>
<path d="M11823 6268 c-2 -42 -33 -161 -44 -175 -9 -10 -4 -13 27 -13 124 0
204 84 160 168 -18 35 -33 42 -94 42 -42 0 -47 -3 -49 -22z m109 -5 c12 -11
18 -30 18 -59 0 -61 -31 -94 -93 -101 -55 -7 -56 -6 -26 86 12 36 23 72 25 79
5 18 54 15 76 -5z"/>
<path d="M12055 6280 c7 -11 -27 -136 -46 -172 -14 -28 -13 -28 61 -28 66 0
71 1 80 26 14 36 13 37 -12 14 -14 -13 -35 -20 -60 -20 -43 0 -48 12 -23 60
17 33 51 40 57 13 3 -11 6 -4 9 15 4 22 2 29 -5 22 -5 -5 -19 -10 -29 -10 -16
0 -19 5 -13 31 3 17 6 35 6 40 0 14 74 11 89 -3 11 -11 13 -10 9 2 -3 11 -22
16 -67 18 -45 2 -61 0 -56 -8z"/>
<path d="M12837 6192 c-53 -54 -97 -100 -97 -102 0 -3 43 -6 95 -7 53 -1 95 2
95 8 0 5 -34 9 -75 9 -41 0 -75 3 -75 7 0 4 37 45 82 90 45 45 80 85 77 87 -3
3 -49 -38 -102 -92z"/>
<path d="M13046 6276 c6 -17 -20 -128 -41 -168 l-13 -28 38 0 c54 0 83 13 100
44 11 22 12 31 1 48 -11 17 -10 23 8 42 25 27 26 39 5 60 -21 21 -106 22 -98
2z m82 -24 c5 -30 -14 -52 -44 -52 -27 0 -28 4 -13 49 9 24 16 31 33 29 13 -2
22 -11 24 -26z m-25 -77 c16 -16 12 -55 -7 -67 -19 -13 -56 -9 -56 6 0 7 3 28
6 45 7 34 32 41 57 16z"/>
<path d="M13280 6242 c-19 -25 -46 -62 -58 -80 -22 -31 -22 -33 -4 -23 36 19
62 14 62 -12 0 -13 -5 -28 -12 -35 -9 -9 -5 -12 18 -12 l29 0 2 105 c1 58 1
105 0 105 -1 -1 -18 -22 -37 -48z m10 -39 c0 -28 -16 -47 -34 -40 -15 6 -15 9
0 32 19 29 34 33 34 8z"/>
<path d="M13458 6283 c7 -3 16 -2 19 1 4 3 -2 6 -13 5 -11 0 -14 -3 -6 -6z"/>
<path d="M13508 6280 c13 -6 22 -18 23 -32 0 -22 1 -22 9 -3 16 36 11 45 -22
44 -30 0 -31 -1 -10 -9z"/>
<path d="M13945 6257 c-41 -41 -52 -90 -31 -140 11 -29 21 -37 40 -37 27 0 66
41 66 70 0 29 -38 69 -60 63 -42 -11 -6 53 40 70 11 4 11 6 -3 6 -11 1 -34
-14 -52 -32z m29 -63 c11 -4 16 -19 16 -43 0 -60 -37 -82 -58 -36 -15 33 -15
58 0 73 14 14 20 14 42 6z"/>
<path d="M14115 6279 c-59 -29 -85 -133 -45 -177 28 -29 54 -28 79 4 25 32 26
56 4 90 -12 19 -22 24 -40 19 -15 -3 -23 -1 -23 8 0 15 37 51 60 60 13 5 13 5
0 6 -8 0 -24 -5 -35 -10z m24 -105 c12 -28 -2 -74 -26 -81 -21 -7 -45 43 -38
77 9 39 46 42 64 4z"/>
<path d="M14216 6274 c-21 -21 -20 -37 4 -59 41 -37 97 24 58 63 -17 17 -44
15 -62 -4z m53 -13 c8 -14 7 -22 -4 -31 -19 -16 -45 -6 -45 18 0 36 33 45 49
13z"/>
<path d="M6652 6258 c-68 -74 -47 -178 37 -178 26 0 44 7 57 22 l19 21 -27
-17 c-33 -22 -83 -14 -99 16 -15 28 -1 94 28 128 29 35 17 41 -15 8z"/>
<path d="M13401 6250 c-33 -35 -42 -70 -30 -113 17 -60 86 -77 136 -32 l28 26
-38 -22 c-37 -21 -40 -21 -73 -6 -31 15 -34 21 -34 60 0 30 7 53 25 77 14 19
25 35 25 37 0 9 -13 0 -39 -27z"/>
<path d="M8015 6250 c-3 -5 1 -10 10 -10 9 0 13 5 10 10 -3 6 -8 10 -10 10 -2
0 -7 -4 -10 -10z"/>
<path d="M8309 6214 c-21 -23 -26 -33 -14 -26 25 12 60 50 53 57 -2 3 -20 -12
-39 -31z"/>
<path d="M8430 6240 c0 -5 4 -10 10 -10 5 0 18 -10 30 -22 11 -12 23 -18 27
-14 8 7 -13 27 -49 47 -12 6 -18 6 -18 -1z"/>
<path d="M9180 6240 c0 -5 4 -10 9 -10 6 0 13 5 16 10 3 6 -1 10 -9 10 -9 0
-16 -4 -16 -10z"/>
<path d="M10170 6160 c0 -88 1 -91 26 -100 28 -11 191 -12 214 -2 12 5 14 15
9 37 -6 29 -7 29 -8 4 -1 -30 -27 -39 -111 -39 -26 0 -62 3 -79 6 -30 6 -31 7
-31 65 l0 59 100 0 c82 0 100 3 100 15 0 8 -4 15 -10 15 -5 0 -10 -4 -10 -9 0
-12 -150 -13 -169 -2 -8 5 -11 16 -8 25 4 10 1 16 -8 16 -12 0 -15 -18 -15
-90z"/>
<path d="M1188 6218 c9 -9 15 -9 24 0 9 9 7 12 -12 12 -19 0 -21 -3 -12 -12z"/>
<path d="M1793 6194 c2 -39 20 -40 25 -2 2 15 -3 28 -12 31 -11 5 -14 -2 -13
-29z"/>
<path d="M5430 6176 c0 -44 -4 -55 -17 -59 -10 -3 -5 -5 12 -6 l30 -1 -3 60
c-5 75 -22 79 -22 6z"/>
<path d="M7387 6219 c-5 -10 -8 -23 -6 -30 5 -39 -2 -68 -18 -72 -10 -3 0 -5
22 -6 22 0 35 3 28 7 -6 4 -13 32 -15 62 -2 36 -6 49 -11 39z"/>
<path d="M4127 6214 c-13 -13 -7 -55 9 -61 24 -9 51 23 38 45 -12 19 -36 27
-47 16z m43 -35 c0 -5 -9 -9 -20 -9 -19 0 -27 20 -13 33 7 8 33 -11 33 -24z"/>
<path d="M3465 6200 c-86 -3 -118 -7 -95 -12 53 -10 234 -2 238 11 2 6 0 10
-5 9 -4 -1 -66 -5 -138 -8z"/>
<path d="M8420 6176 c-16 -50 -25 -52 -54 -9 -31 45 -35 32 -5 -16 l20 -33
-21 -23 c-11 -12 -39 -28 -60 -35 -22 -7 -38 -15 -35 -18 7 -7 67 19 102 45
19 14 34 19 38 13 10 -16 102 -60 109 -52 4 3 -16 16 -44 29 -61 27 -70 45
-40 85 15 20 19 33 12 40 -6 6 -14 -2 -22 -26z"/>
<path d="M9807 6203 c-4 -3 -7 -17 -7 -30 0 -18 6 -23 24 -23 13 0 26 7 30 15
4 12 2 13 -14 3 -22 -14 -35 -6 -26 18 4 9 12 14 22 10 8 -3 12 -2 9 4 -7 11
-28 13 -38 3z"/>
<path d="M12435 6184 c15 -14 30 -23 33 -20 8 9 -29 46 -46 46 -10 0 -6 -9 13
-26z"/>
<path d="M1060 6148 l0 -53 70 -2 c47 -1 70 2 71 10 0 7 2 31 5 55 3 29 0 42
-9 42 -8 0 -11 -14 -9 -45 l4 -45 -56 0 -56 0 0 39 c0 39 1 40 38 44 34 3 33
4 -10 5 l-48 2 0 -52z"/>
<path d="M5133 6182 c10 -10 17 -24 17 -30 0 -7 5 -12 10 -12 6 0 10 3 10 8
-1 10 -37 52 -46 52 -4 0 0 -8 9 -18z"/>
<path d="M7096 6173 c10 -18 22 -33 26 -33 15 0 8 17 -19 41 l-26 24 19 -32z"/>
<path d="M11548 6193 c23 -2 61 -2 85 0 23 2 4 4 -43 4 -47 0 -66 -2 -42 -4z"/>
<path d="M13688 6193 c23 -2 59 -2 80 0 20 2 1 4 -43 4 -44 0 -61 -2 -37 -4z"/>
<path d="M5657 6172 c-25 -27 -22 -45 6 -36 12 5 32 8 45 9 12 0 22 5 22 12 0
16 -21 28 -29 16 -8 -13 -41 -24 -41 -15 0 5 5 13 12 20 7 7 10 12 7 12 -3 0
-13 -8 -22 -18z"/>
<path d="M8789 6166 c14 -14 29 -26 34 -26 13 0 -12 29 -37 42 -19 10 -18 8 3
-16z"/>
<path d="M10513 6173 c9 -2 23 -2 30 0 6 3 -1 5 -18 5 -16 0 -22 -2 -12 -5z"/>
<path d="M1011 6154 c0 -11 3 -14 6 -6 3 7 2 16 -1 19 -3 4 -6 -2 -5 -13z"/>
<path d="M1092 6148 c4 -32 67 -33 79 0 7 18 5 22 -11 22 -13 0 -18 -5 -14
-15 4 -10 0 -15 -15 -15 -14 0 -19 5 -15 15 4 10 0 15 -11 15 -11 0 -15 -7
-13 -22z"/>
<path d="M11558 6133 c23 -2 59 -2 80 0 20 2 1 4 -43 4 -44 0 -61 -2 -37 -4z"/>
<path d="M13651 6136 c7 -7 139 -10 146 -3 3 4 -29 7 -72 7 -43 0 -76 -2 -74
-4z"/>
<path d="M3068 6100 c-9 -17 -13 -30 -8 -30 11 0 32 38 28 50 -2 5 -11 -4 -20
-20z"/>
<path d="M3110 6118 c0 -7 5 -20 10 -28 8 -12 10 -11 10 7 0 12 -4 25 -10 28
-5 3 -10 0 -10 -7z"/>
<path d="M3160 6113 c0 -13 5 -23 10 -23 13 0 13 11 0 30 -8 12 -10 11 -10 -7z"/>
<path d="M5710 6125 c0 -15 18 -40 24 -34 3 3 -1 14 -9 25 -8 10 -14 15 -15 9z"/>
<path d="M7671 6113 c7 -12 15 -20 18 -17 3 2 -3 12 -13 22 -17 16 -18 16 -5
-5z"/>
<path d="M440 6110 c0 -5 5 -10 10 -10 6 0 10 5 10 10 0 6 -4 10 -10 10 -5 0
-10 -4 -10 -10z"/>
<path d="M5681 6115 c1 -19 18 -51 18 -35 0 8 -4 22 -9 30 -5 8 -9 11 -9 5z"/>
<path d="M7630 6114 c0 -5 7 -19 15 -30 8 -10 15 -14 15 -8 0 5 -7 19 -15 30
-8 10 -15 14 -15 8z"/>
<path d="M13176 6104 c-18 -18 -18 -19 -2 -22 22 -5 29 2 24 24 -3 16 -4 16
-22 -2z"/>
<path d="M8780 6080 c19 -16 40 -29 45 -29 6 0 -6 13 -25 29 -19 17 -39 30
-44 30 -6 0 5 -13 24 -30z"/>
<path d="M8943 6080 c-6 -17 -7 -30 -2 -30 9 0 24 48 17 55 -2 2 -9 -9 -15
-25z"/>
<path d="M5651 6076 c7 -15 15 -23 17 -16 3 7 -3 19 -13 28 -15 16 -16 15 -4
-12z"/>
<path d="M6044 6089 c-3 -6 -22 -18 -41 -26 -19 -8 -33 -16 -30 -19 6 -7 97
38 97 48 0 12 -18 10 -26 -3z"/>
<path d="M6155 6083 c17 -8 38 -22 48 -31 15 -13 17 -13 17 0 0 8 -16 22 -35
31 -45 21 -70 22 -30 0z"/>
<path d="M7606 6075 c9 -14 19 -24 21 -21 7 7 -16 46 -28 46 -5 0 -2 -11 7
-25z"/>
<path d="M9017 6079 c4 -13 8 -18 11 -10 2 7 -1 18 -6 23 -8 8 -9 4 -5 -13z"/>
<path d="M9050 6091 c0 -6 4 -13 10 -16 6 -3 7 1 4 9 -7 18 -14 21 -14 7z"/>
<path d="M1010 6070 c0 -5 5 -10 10 -10 6 0 10 5 10 10 0 6 -4 10 -10 10 -5 0
-10 -4 -10 -10z"/>
<path d="M1068 6073 c12 -2 32 -2 45 0 12 2 2 4 -23 4 -25 0 -35 -2 -22 -4z"/>
<path d="M1140 6069 c0 -5 5 -7 10 -4 6 3 10 8 10 11 0 2 -4 4 -10 4 -5 0 -10
-5 -10 -11z"/>
<path d="M1185 6070 c4 -6 11 -8 16 -5 14 9 11 15 -7 15 -8 0 -12 -5 -9 -10z"/>
<path d="M1055 5859 c-23 -5 -25 -7 -7 -8 20 -1 22 -6 22 -59 0 -39 -7 -70
-21 -96 -11 -21 -18 -40 -16 -42 7 -8 34 40 41 74 4 17 11 32 14 32 4 0 18
-21 32 -46 l24 -46 -24 -20 c-13 -11 -37 -22 -52 -25 -16 -3 -31 -10 -34 -15
-9 -14 32 -1 84 27 l42 24 46 -26 c30 -17 49 -22 55 -16 7 7 1 12 -18 16 -15
3 -37 12 -47 20 -19 14 -18 16 12 69 18 31 32 58 32 61 0 3 -12 5 -27 4 -29
-2 -30 1 -22 52 2 13 -1 26 -7 28 -5 2 -10 -12 -11 -31 -1 -47 -9 -56 -48 -56
-33 0 -34 1 -37 43 -3 41 -4 42 -33 36z m155 -100 c0 -4 -8 -24 -17 -44 -21
-44 -42 -42 -65 5 -23 48 -23 48 20 52 42 4 62 0 62 -13z"/>
<path d="M3868 5848 c-2 -14 -11 -22 -25 -23 -13 -1 -26 -5 -30 -10 -5 -4 7
-6 25 -3 l32 5 0 -97 0 -97 -27 4 -28 4 25 -14 c33 -18 40 -13 40 33 0 69 7
73 52 29 23 -22 50 -39 62 -38 14 0 16 2 6 6 -23 9 -90 63 -90 73 0 5 18 19
40 31 23 13 36 26 29 30 -6 3 -22 -4 -36 -17 -32 -30 -49 -30 -56 -3 -11 40 2
49 63 49 33 0 61 4 64 9 9 13 -20 21 -32 9 -8 -8 -13 -6 -18 8 -8 20 -23 34
-38 34 -5 0 -2 -8 7 -18 19 -20 13 -32 -13 -32 -26 0 -42 24 -28 38 9 9 8 12
-4 12 -9 0 -18 -10 -20 -22z"/>
<path d="M1631 5755 l-103 -105 101 0 c62 0 101 4 101 10 0 6 -28 10 -70 9
-39 -1 -74 1 -77 5 -4 4 31 45 77 91 46 46 82 87 79 90 -3 2 -52 -42 -108
-100z"/>
<path d="M2230 5845 c9 -11 -20 -137 -40 -175 -8 -16 -4 -18 31 -22 114 -11
201 87 150 170 -17 26 -27 32 -53 31 -24 -1 -27 -3 -11 -6 48 -9 65 -65 39
-127 -11 -27 -22 -35 -60 -46 -29 -8 -51 -9 -56 -4 -11 11 24 149 42 171 12
15 12 15 -24 17 -19 1 -24 -1 -18 -9z"/>
<path d="M2742 5844 c-12 -8 -22 -20 -22 -25 0 -6 10 -3 21 5 12 8 28 12 35 9
21 -8 17 -51 -5 -65 -19 -12 -19 -12 2 -23 48 -24 27 -91 -26 -81 -20 4 -27 2
-25 -7 7 -20 43 -19 71 3 29 23 34 53 15 95 -9 19 -9 28 0 37 20 20 14 48 -14
58 -31 12 -25 13 -52 -6z"/>
<path d="M2914 5850 c-26 -10 -47 -80 -39 -130 18 -106 108 -93 119 16 7 72
-34 131 -80 114z m47 -31 c14 -27 7 -135 -9 -151 -9 -9 -17 -10 -30 -2 -18 12
-29 105 -17 151 7 29 40 30 56 2z"/>
<path d="M1890 5778 c-30 -40 -65 -85 -79 -100 -25 -28 -25 -28 -3 -28 15 0
22 6 22 18 0 24 31 52 58 52 29 0 33 -12 17 -43 -13 -26 -13 -27 13 -27 l27 0
2 100 c1 55 1 100 -1 100 -1 0 -26 -33 -56 -72z m28 -15 c-2 -20 -9 -29 -25
-31 -28 -4 -28 2 -5 33 23 32 34 31 30 -2z"/>
<path d="M2047 5818 c-10 -66 -37 -143 -54 -155 -14 -11 -8 -13 39 -13 81 0
135 49 96 88 -9 9 -6 17 11 36 30 32 23 76 -12 75 -12 0 -16 -3 -9 -6 20 -8
15 -61 -9 -73 -32 -18 -51 -5 -43 27 4 16 11 34 17 41 7 9 4 12 -11 12 -15 0
-21 -8 -25 -32z m68 -88 c9 -27 -10 -57 -40 -64 -38 -10 -44 -1 -33 44 9 35
14 40 39 40 19 0 30 -6 34 -20z"/>
<path d="M3034 5836 c-9 -23 -1 -48 19 -60 25 -16 52 4 52 40 0 25 -4 29 -33
32 -22 2 -34 -2 -38 -12z m64 -24 c4 -28 -24 -40 -45 -19 -21 21 -9 49 19 45
15 -2 24 -11 26 -26z"/>
<path d="M4359 5755 c-52 -53 -95 -101 -97 -106 -2 -5 38 -9 92 -9 57 0 96 4
96 10 0 6 -32 10 -75 10 -41 0 -75 3 -75 7 0 4 37 45 82 90 45 45 79 85 76 88
-3 3 -48 -37 -99 -90z"/>
<path d="M4622 5843 c29 -3 39 -10 47 -31 5 -16 10 -20 10 -10 1 9 4 23 7 32
5 14 -2 16 -47 14 -42 -1 -46 -2 -17 -5z"/>
<path d="M4756 5836 c7 -18 -24 -144 -42 -173 l-14 -23 74 0 74 0 11 33 c11
32 11 32 -7 10 -18 -23 -71 -40 -96 -30 -13 5 -13 12 -2 49 10 34 16 42 32 40
10 -2 22 -8 25 -14 7 -11 19 15 19 40 0 12 -3 13 -12 4 -12 -12 -48 -17 -48
-7 0 3 7 21 14 40 17 39 47 46 78 18 17 -15 18 -15 18 5 0 20 -5 22 -65 22
-51 0 -63 -3 -59 -14z"/>
<path d="M4939 5841 c12 -8 11 -22 -9 -93 -13 -45 -30 -89 -38 -95 -13 -11 -6
-13 41 -13 100 0 157 45 157 123 0 38 -24 77 -48 77 -13 0 -12 -3 6 -16 30
-20 31 -90 2 -127 -22 -27 -82 -52 -105 -43 -15 6 -14 18 12 116 15 53 22 65
43 71 18 5 12 7 -25 8 -33 0 -45 -2 -36 -8z"/>
<path d="M4536 5811 c-40 -42 -48 -112 -16 -146 33 -36 88 -34 121 3 l24 27
-26 -22 c-32 -29 -73 -29 -100 -2 -18 18 -20 28 -14 67 4 30 16 57 33 75 14
15 21 27 16 27 -6 0 -23 -13 -38 -29z"/>
<path d="M3744 5821 c3 -5 17 -8 32 -8 18 0 22 2 13 8 -18 11 -52 11 -45 0z"/>
<path d="M3786 5782 c6 -4 16 -16 22 -27 8 -15 11 -16 12 -4 0 17 -19 39 -34
39 -8 0 -7 -3 0 -8z"/>
<path d="M2470 5760 c0 -6 32 -10 75 -10 43 0 75 4 75 10 0 6 -32 10 -75 10
-43 0 -75 -4 -75 -10z"/>
<path d="M3385 5760 c-3 -6 -3 -19 0 -31 10 -31 49 -21 53 14 3 23 0 27 -22
27 -14 0 -28 -5 -31 -10z m45 -20 c0 -11 -6 -20 -14 -20 -18 0 -29 16 -21 30
11 18 35 11 35 -10z"/>
<path d="M5383 5763 c-15 -6 -17 -49 -3 -58 33 -20 65 26 38 53 -13 13 -16 13
-35 5z m34 -37 c-4 -9 -11 -16 -17 -16 -17 0 -24 31 -9 41 18 11 34 -5 26 -25z"/>
<path d="M3835 5711 c-3 -6 -24 -20 -46 -32 -22 -11 -37 -24 -34 -30 4 -5 25
5 48 23 23 17 44 33 46 35 2 2 2 6 -1 9 -3 3 -9 0 -13 -5z"/>
<path d="M2480 5699 c0 -5 32 -9 71 -9 38 0 68 4 65 9 -7 11 -136 12 -136 0z"/>
<path d="M1002 5625 c-7 -8 -9 -15 -4 -15 5 0 15 7 22 15 16 19 -1 19 -18 0z"/>
<path d="M1950 5048 c0 -7 -11 -35 -25 -63 -13 -27 -25 -55 -25 -61 0 -6 -9
-23 -21 -38 l-20 -26 23 0 c19 0 24 5 23 28 0 25 3 27 47 30 39 3 47 0 53 -17
3 -12 3 -25 0 -31 -4 -6 7 -10 26 -10 28 0 30 2 18 13 -8 6 -31 51 -49 100
-32 79 -50 107 -50 75z m28 -104 c-4 -3 -17 -4 -30 -2 -24 3 -24 4 -10 38 l14
35 16 -32 c9 -18 13 -35 10 -39z"/>
<path d="M2815 5034 l-16 -25 25 16 c31 21 62 12 68 -19 6 -31 -5 -51 -55
-103 l-41 -43 61 0 c42 0 62 4 66 14 4 10 -4 12 -39 8 -46 -5 -57 5 -26 24 9
6 28 32 40 58 22 44 23 48 8 71 -23 34 -68 34 -91 -1z"/>
<path d="M2985 5029 c-30 -56 -17 -159 22 -173 40 -16 90 59 79 120 -8 41 -42
84 -66 84 -12 0 -26 -13 -35 -31z m60 1 c14 -15 17 -32 13 -80 -5 -65 -23 -96
-47 -80 -20 12 -28 124 -11 156 16 29 22 30 45 4z"/>
<path d="M3136 5038 c-13 -19 -14 -25 -2 -43 26 -39 76 -26 76 19 0 46 -48 62
-74 24z m61 -14 c4 -11 -1 -22 -12 -31 -16 -11 -21 -11 -33 1 -8 8 -12 22 -9
30 8 21 46 21 54 0z"/>
<path d="M2090 4870 c0 -5 7 -10 15 -10 8 0 15 5 15 10 0 6 -7 10 -15 10 -8 0
-15 -4 -15 -10z"/>
<path d="M8115 4859 c-82 -3 -168 -10 -190 -14 -258 -48 -385 -82 -565 -155
-66 -26 -249 -117 -270 -133 -8 -7 -31 -21 -50 -31 -87 -47 -251 -176 -373
-292 -112 -106 -278 -307 -318 -384 -12 -22 -25 -42 -29 -45 -5 -3 -15 -18
-23 -33 -8 -15 -31 -56 -51 -92 -37 -64 -88 -179 -139 -315 -70 -185 -115
-458 -118 -715 -4 -299 81 -664 220 -939 50 -100 103 -193 122 -214 5 -7 29
-39 52 -73 132 -191 296 -362 492 -509 109 -83 260 -170 395 -229 47 -21 103
-46 125 -56 22 -10 69 -25 105 -35 36 -9 74 -21 85 -26 28 -13 229 -56 295
-64 30 -4 69 -8 85 -10 82 -11 429 -5 530 9 160 21 426 90 510 130 17 8 72 33
122 54 199 85 459 262 636 431 102 98 297 334 297 360 0 5 7 11 15 15 8 3 15
9 15 14 0 5 24 51 54 103 45 78 58 94 78 93 13 -1 75 -5 138 -8 63 -4 160 -11
215 -16 55 -5 154 -12 220 -15 66 -4 143 -8 170 -10 28 -2 100 -6 160 -10 61
-4 137 -9 170 -11 33 -3 70 -5 83 -5 13 1 41 -3 63 -8 21 -5 39 -5 39 -1 0 5
15 5 33 0 17 -5 102 -11 187 -14 85 -4 173 -9 195 -11 54 -7 645 -47 1030 -71
50 -3 97 -7 105 -9 8 -2 85 -9 170 -15 85 -5 220 -15 300 -20 309 -22 323 -23
319 -11 -3 7 -45 30 -94 52 -50 23 -128 58 -173 80 -46 21 -86 39 -88 39 -5 0
-282 125 -395 179 -46 21 -212 96 -369 166 -157 70 -319 143 -360 162 -41 20
-91 42 -110 50 -66 27 -405 175 -423 184 -10 6 -71 33 -135 60 -64 28 -144 64
-177 79 -71 33 -123 56 -225 100 -41 17 -93 40 -115 50 -22 10 -62 28 -90 40
-27 12 -70 31 -95 42 -25 11 -70 31 -100 45 -30 13 -76 35 -103 48 -26 14 -51
25 -57 25 -5 0 -33 11 -62 24 -29 13 -91 40 -138 61 -47 21 -89 41 -93 45 -5
4 -17 51 -27 104 -19 97 -80 308 -99 344 -6 11 -18 42 -27 68 -9 27 -20 54
-24 59 -4 6 -32 55 -61 110 -51 98 -142 246 -173 282 -9 10 -44 52 -79 93
-111 134 -190 211 -317 311 -170 134 -158 126 -310 208 -74 40 -147 79 -162
87 -74 40 -363 132 -468 149 -19 3 -75 12 -125 20 -144 24 -269 30 -430 24z
m375 -33 c14 -3 43 -8 65 -11 60 -8 144 -25 200 -40 106 -29 200 -58 210 -65
6 -4 24 -10 40 -14 51 -12 185 -75 288 -134 148 -85 165 -96 184 -112 10 -8
34 -26 53 -40 152 -106 342 -292 439 -427 25 -36 68 -97 94 -137 55 -81 187
-338 218 -424 35 -97 89 -294 96 -351 6 -53 6 -53 -18 -46 -13 4 -51 20 -84
35 -89 41 -203 90 -208 90 -3 0 -52 22 -109 49 -147 68 -188 87 -323 146 -261
114 -394 173 -837 374 -24 11 -115 52 -203 91 -150 67 -193 87 -320 145 -27
13 -70 32 -95 43 -25 11 -72 32 -105 47 -33 16 -125 57 -204 92 -80 35 -174
78 -210 95 -36 17 -86 39 -111 50 -25 11 -67 31 -95 43 -149 69 -207 95 -213
95 -3 0 -25 9 -49 20 -24 11 -63 29 -88 41 -68 32 -74 25 116 122 51 26 97 47
103 47 5 0 17 6 25 13 9 7 36 19 61 27 25 7 63 20 85 30 69 30 194 61 365 90
152 26 182 28 385 25 121 -2 231 -6 245 -9z m-1493 -400 c-8 -17 -25 -58 -36
-91 -40 -118 -62 -180 -71 -200 -5 -11 -33 -85 -61 -165 -28 -80 -66 -185 -84
-235 -36 -99 -125 -343 -161 -445 -13 -36 -28 -74 -33 -85 -5 -11 -17 -45 -26
-75 -10 -30 -23 -68 -30 -85 -7 -16 -22 -57 -33 -90 -11 -33 -32 -91 -47 -130
-58 -151 -126 -335 -170 -455 -40 -111 -75 -204 -90 -235 -7 -16 -18 -50 -25
-74 -8 -30 -15 -40 -22 -33 -13 13 -53 176 -73 297 -34 202 -29 560 11 740 28
130 57 240 64 250 4 6 10 24 14 40 16 66 118 297 156 355 9 14 30 45 45 70
161 257 419 531 630 668 55 36 68 29 42 -22z m117 -5 c27 -25 61 -57 75 -71
14 -13 51 -44 81 -69 30 -25 75 -63 100 -86 92 -85 363 -331 392 -356 13 -11
34 -30 48 -43 14 -12 61 -53 105 -91 44 -38 130 -114 191 -170 145 -131 250
-224 299 -266 22 -19 47 -41 55 -49 14 -14 100 -90 194 -171 22 -19 105 -92
185 -163 80 -70 160 -140 178 -155 18 -14 33 -29 33 -32 0 -11 -18 -16 -227
-64 -201 -46 -294 -67 -553 -129 -80 -19 -188 -44 -240 -56 -242 -55 -262 -60
-652 -155 -59 -14 -138 -32 -175 -40 -68 -14 -271 -61 -478 -111 -60 -14 -157
-37 -215 -50 -58 -14 -152 -36 -210 -49 -58 -14 -117 -28 -132 -31 -32 -7 -34
2 -14 56 24 62 54 143 94 250 21 58 74 200 117 315 43 116 88 239 101 275 24
71 77 215 118 325 15 39 36 99 47 135 12 36 27 79 34 95 7 17 34 89 60 160 26
72 61 166 77 210 16 44 43 116 58 160 16 44 40 112 55 150 14 39 34 95 44 125
17 53 68 187 78 203 6 10 18 2 77 -52z m92 -7 c22 -9 73 -32 114 -51 89 -42
153 -71 275 -125 50 -22 113 -50 140 -63 120 -55 166 -76 265 -120 58 -25 128
-57 155 -70 28 -13 77 -36 110 -50 33 -15 74 -33 90 -41 24 -11 179 -79 245
-107 8 -4 22 -11 30 -16 8 -5 47 -22 85 -39 66 -28 318 -140 415 -184 25 -11
63 -28 85 -38 22 -10 63 -28 90 -40 28 -13 75 -34 105 -47 30 -13 69 -30 85
-38 17 -7 57 -25 90 -40 33 -14 87 -39 120 -54 33 -16 71 -32 85 -36 13 -4 54
-23 91 -41 37 -19 102 -49 146 -68 353 -152 352 -152 312 -160 -29 -6 -211
-48 -374 -86 -66 -15 -183 -42 -260 -60 -191 -44 -317 -73 -466 -109 -69 -17
-133 -31 -143 -31 -13 0 -169 127 -196 160 -3 3 -50 44 -105 90 -55 46 -127
109 -160 139 -33 31 -74 67 -90 80 -33 26 -74 63 -216 192 -52 47 -130 117
-174 155 -44 37 -107 94 -140 125 -33 32 -76 70 -95 86 -43 34 -86 71 -114 98
-12 11 -66 60 -121 109 -90 80 -142 128 -285 261 -25 23 -79 70 -120 105 -150
127 -167 153 -74 114z m3187 -1459 c3 -8 11 -72 18 -142 14 -161 8 -270 -32
-513 -12 -78 -65 -283 -84 -325 -7 -16 -16 -41 -20 -55 -13 -43 -74 -168 -85
-175 -6 -4 -50 28 -98 71 -48 42 -118 105 -157 139 -96 86 -266 235 -301 265
-111 94 -388 334 -402 348 -10 9 -42 37 -70 61 -29 25 -49 48 -45 51 5 4 37
13 73 20 36 6 99 20 140 30 64 16 186 44 400 91 25 6 70 17 100 24 30 8 114
28 185 45 72 16 173 40 225 53 115 29 146 32 153 12z m90 -9 c29 -13 111 -49
182 -80 72 -32 153 -68 180 -80 28 -13 82 -37 120 -54 39 -16 97 -42 130 -57
33 -15 96 -42 140 -60 87 -36 167 -71 260 -115 78 -36 132 -61 225 -100 41
-18 98 -42 125 -55 28 -12 93 -41 147 -64 53 -22 149 -65 215 -95 65 -29 141
-64 168 -76 176 -79 192 -89 165 -105 -6 -4 -26 -37 -45 -75 -41 -81 -60 -183
-52 -283 l4 -69 -66 6 c-67 6 -92 8 -401 26 -96 6 -188 12 -205 15 -30 4 -117
10 -295 20 -168 9 -434 25 -485 30 -203 17 -350 27 -542 38 -123 7 -226 16
-230 20 -3 4 3 26 14 50 77 157 162 453 184 642 10 90 12 390 3 478 -4 37 -4
67 0 67 4 0 31 -11 59 -24z m-1361 -304 c12 -15 36 -37 52 -50 17 -13 64 -54
105 -91 42 -38 108 -95 147 -127 81 -68 170 -145 259 -224 35 -30 75 -66 91
-79 45 -38 185 -161 229 -202 22 -21 61 -55 87 -76 27 -21 48 -43 48 -48 0
-10 -583 20 -845 44 -66 6 -260 20 -430 31 -171 11 -323 22 -340 24 -16 3 -73
8 -125 11 -52 3 -241 15 -420 26 -179 11 -361 22 -405 24 -44 3 -91 7 -105 9
-14 3 -77 8 -140 11 -123 6 -488 32 -555 39 -22 3 -94 7 -160 11 -267 13 -367
23 -360 35 3 5 31 14 63 20 31 6 111 24 177 39 66 16 172 41 235 56 63 14 149
35 190 45 41 11 120 28 175 40 55 11 116 25 135 30 19 5 96 24 170 41 74 17
169 40 210 50 41 11 113 28 160 39 162 36 306 69 415 95 61 15 155 37 210 50
101 24 201 47 400 92 61 13 146 33 190 43 107 24 110 24 137 -8z m3580 -678
c57 -25 131 -59 166 -75 34 -16 64 -29 67 -29 2 0 46 -20 97 -44 51 -24 125
-58 163 -76 39 -17 88 -40 110 -50 190 -87 357 -160 368 -160 8 0 22 -9 33
-21 l18 -20 -79 6 c-44 3 -134 10 -200 15 -66 6 -228 17 -360 25 -132 9 -265
17 -295 20 -30 2 -109 7 -175 11 -66 3 -128 11 -139 16 -16 9 -18 21 -14 121
3 92 9 123 30 175 33 81 68 132 90 132 10 0 64 -21 120 -46z m-6212 -4 c107
-12 166 -16 470 -35 257 -16 339 -22 430 -30 30 -3 102 -7 160 -10 193 -10
455 -28 590 -40 30 -2 163 -12 295 -20 259 -17 276 -18 560 -39 105 -8 197
-14 205 -14 54 0 441 -24 515 -32 50 -5 170 -14 268 -21 145 -10 177 -15 177
-27 0 -17 -57 -122 -107 -197 -116 -175 -297 -375 -433 -478 -30 -23 -61 -48
-69 -55 -12 -12 -101 -72 -146 -99 -177 -106 -235 -138 -267 -151 -21 -8 -38
-19 -38 -24 0 -5 -4 -7 -8 -4 -5 3 -40 -8 -78 -24 -317 -132 -837 -192 -1147
-131 -29 6 -81 15 -117 22 -187 32 -545 167 -662 250 -14 11 -29 19 -33 19 -3
0 -47 28 -98 61 -99 67 -271 212 -340 286 -23 26 -50 54 -59 62 -9 9 -29 33
-45 53 -15 21 -53 70 -84 110 -112 147 -263 424 -295 542 l-13 49 142 -7 c78
-4 180 -11 227 -16z"/>
<path d="M6922 4730 c-13 -16 -18 -30 -12 -30 5 0 10 -13 10 -30 0 -25 -4 -30
-25 -30 -29 0 -31 7 -8 32 9 10 11 18 5 18 -6 0 -17 -10 -23 -22 -6 -13 -27
-42 -46 -65 -29 -36 -31 -43 -16 -43 13 0 22 11 28 33 8 26 16 33 43 35 28 3
32 0 32 -20 0 -13 -5 -29 -12 -36 -9 -9 -3 -12 28 -12 26 0 34 3 25 9 -15 10
-17 50 -6 134 4 31 5 57 3 57 -2 0 -14 -13 -26 -30z"/>
<path d="M1875 4314 c13 -14 16 -31 12 -92 -3 -47 -10 -78 -18 -83 -9 -6 15
-8 61 -7 71 3 75 4 88 31 12 25 12 31 -4 48 -15 17 -16 23 -6 40 30 47 -11 79
-99 79 -47 0 -49 -1 -34 -16z m90 -6 c16 -7 25 -19 25 -34 0 -23 -17 -34 -56
-34 -21 0 -24 4 -24 40 0 44 10 49 55 28z m18 -92 c39 -30 10 -76 -47 -76 -24
0 -26 3 -26 45 0 43 2 45 28 45 15 0 35 -7 45 -14z"/>
<path d="M2817 4312 c-23 -26 -21 -39 2 -18 37 33 80 3 67 -48 -3 -14 -27 -47
-51 -72 l-45 -45 62 3 c34 2 63 8 65 13 2 6 -16 9 -44 7 l-48 -4 31 34 c57 60
68 102 36 131 -24 22 -55 21 -75 -1z"/>
<path d="M2998 4323 c-25 -6 -30 -32 -14 -65 15 -29 12 -58 -5 -58 -17 0 -9
-47 11 -65 41 -37 104 19 71 64 -22 31 -23 42 -7 60 20 22 20 35 0 55 -15 16
-25 17 -56 9z m42 -18 c16 -19 3 -57 -18 -53 -18 3 -27 30 -18 54 7 18 20 18
36 -1z m-8 -112 c22 -20 23 -49 2 -57 -22 -8 -44 11 -44 39 0 37 14 44 42 18z"/>
<path d="M3138 4316 c-33 -25 -13 -76 31 -76 14 0 41 29 41 45 0 17 -27 45
-43 45 -7 0 -20 -7 -29 -14z m56 -21 c7 -19 -20 -46 -39 -39 -8 4 -15 17 -15
30 0 19 5 24 24 24 13 0 26 -7 30 -15z"/>
<path d="M2080 4140 c0 -5 7 -10 15 -10 8 0 15 5 15 10 0 6 -7 10 -15 10 -8 0
-15 -4 -15 -10z"/>
<path d="M1898 3583 c-49 -31 -54 -127 -8 -168 38 -34 141 -13 140 29 0 6 -7
3 -14 -6 -19 -26 -71 -34 -100 -15 -42 28 -39 134 5 157 32 18 72 8 86 -20
l13 -25 0 26 c0 15 -7 29 -16 33 -29 11 -79 6 -106 -11z"/>
<path d="M2813 3590 c-13 -5 -23 -14 -23 -20 0 -6 8 -5 20 2 24 15 56 0 54
-26 -1 -9 2 -16 7 -16 16 0 10 58 -7 64 -19 7 -23 7 -51 -4z"/>
<path d="M2991 3574 c-34 -28 -55 -89 -45 -128 15 -63 81 -72 104 -15 20 46 4
83 -38 87 -17 2 -32 6 -32 8 0 18 26 48 53 59 26 12 28 14 10 15 -12 0 -35
-12 -52 -26z m39 -88 c25 -47 -11 -104 -45 -70 -15 15 -21 75 -8 87 14 15 40
6 53 -17z"/>
<path d="M3116 3587 c-38 -27 2 -95 42 -71 21 14 28 50 12 70 -15 17 -31 18
-54 1z m51 -23 c3 -8 -1 -22 -9 -30 -12 -12 -17 -12 -33 -1 -23 17 -14 47 15
47 11 0 23 -7 27 -16z"/>
<path d="M2843 3513 c-19 -7 -16 -21 8 -28 16 -5 19 -14 17 -38 -3 -30 -6 -32
-41 -32 -23 0 -37 -5 -37 -12 0 -20 45 -15 74 8 29 23 34 62 12 92 -14 18 -14
18 -33 10z"/>
<path d="M2070 3404 c0 -8 5 -12 10 -9 6 3 10 10 10 16 0 5 -4 9 -10 9 -5 0
-10 -7 -10 -16z"/>
<path d="M10565 3229 c10 -15 -36 -172 -54 -187 -14 -12 -12 -13 14 -10 21 2
29 8 27 18 -7 27 41 161 61 171 22 13 62 -10 72 -41 15 -49 -32 -121 -89 -134
-15 -4 -26 -9 -23 -12 10 -11 84 17 104 38 45 50 42 128 -7 153 -34 17 -115
21 -105 4z"/>
<path d="M1858 2873 c16 -6 17 -174 0 -191 -9 -9 -2 -12 33 -12 72 0 118 17
139 53 24 39 25 59 5 97 -21 40 -46 52 -124 54 -36 2 -60 1 -53 -1z m126 -29
c28 -28 37 -54 30 -89 -8 -42 -36 -65 -81 -65 l-33 0 0 85 0 85 34 0 c19 0 42
-7 50 -16z"/>
<path d="M2832 2816 c-29 -38 -51 -74 -49 -80 2 -6 22 -12 45 -14 37 -3 42 -6
42 -28 0 -13 5 -24 10 -24 6 0 10 11 10 24 0 13 6 26 13 29 9 3 9 7 0 18 -7 8
-13 44 -15 79 l-3 65 -53 -69z m38 -26 c0 -39 -1 -40 -36 -40 -28 0 -34 3 -27
13 5 6 17 24 26 40 24 38 37 34 37 -13z"/>
<path d="M2962 2864 c-12 -8 -22 -20 -22 -26 0 -6 9 -3 19 6 23 21 56 14 71
-14 12 -22 5 -43 -29 -90 l-25 -35 26 24 c26 23 58 78 58 100 0 17 -38 51 -58
51 -10 0 -28 -7 -40 -16z"/>
<path d="M3128 2873 c-41 -11 -27 -83 15 -83 46 0 66 59 28 80 -11 5 -21 9
-23 9 -2 -1 -11 -3 -20 -6z m42 -38 c0 -20 -5 -25 -23 -25 -30 0 -36 6 -30 31
3 12 14 19 29 19 19 0 24 -5 24 -25z"/>
<path d="M3046 2699 c-10 -6 -32 -9 -50 -6 -35 5 -56 0 -56 -14 0 -5 26 -9 59
-9 50 0 59 3 64 20 3 11 4 20 4 20 -1 0 -10 -5 -21 -11z"/>
<path d="M2080 2684 c0 -9 5 -14 12 -12 18 6 21 28 4 28 -9 0 -16 -7 -16 -16z"/>
<path d="M5900 2055 c0 -13 -11 -58 -24 -100 l-24 -75 53 0 c56 0 78 12 90 51
4 11 1 27 -6 35 -9 11 -8 18 5 32 38 43 10 82 -58 82 -32 0 -36 -3 -36 -25z
m79 -7 c13 -33 -4 -58 -39 -58 -19 0 -28 4 -26 13 3 6 7 24 10 40 8 34 43 37
55 5z m-11 -101 c4 -37 -13 -57 -49 -57 -31 0 -33 6 -23 59 6 29 10 32 38 29
26 -2 32 -8 34 -31z"/>
<path d="M10260 1553 c-51 -50 -62 -99 -28 -136 25 -28 78 -47 78 -28 0 6 -9
11 -20 11 -29 0 -53 43 -46 83 8 44 32 76 70 93 27 11 28 13 8 14 -13 0 -39
-16 -62 -37z"/>
<path d="M10362 1578 c8 -7 20 -22 26 -33 10 -18 11 -17 12 13 0 28 -3 32 -27
32 -23 0 -25 -2 -11 -12z"/>
<path d="M13990 1510 c0 -43 -27 -141 -45 -161 -15 -16 -12 -17 52 -12 85 5
89 6 96 33 l6 22 -20 -21 c-26 -28 -99 -30 -99 -3 1 53 29 84 56 61 11 -9 16
-6 23 12 5 13 6 26 3 29 -2 3 -7 -1 -9 -7 -3 -7 -15 -13 -28 -13 -23 0 -24 1
-11 38 15 42 52 55 80 27 15 -15 16 -15 16 4 0 19 -6 21 -60 21 -60 0 -60 0
-60 -30z"/>
<path d="M10345 1409 c-18 -11 -24 -19 -14 -19 9 0 24 9 34 20 22 24 19 24
-20 -1z"/>
</g>
</svg>
