<?xml version="1.0" standalone="no"?>
<!DOCTYPE svg PUBLIC "-//W3C//DTD SVG 20010904//EN"
 "http://www.w3.org/TR/2001/REC-SVG-20010904/DTD/svg10.dtd">
<svg version="1.0" xmlns="http://www.w3.org/2000/svg"
 width="1455.000000pt" height="646.000000pt" viewBox="0 0 1455.000000 646.000000"
 preserveAspectRatio="xMidYMid meet">
<metadata>
Created by potrace 1.16, written by Peter Selinger 2001-2019
</metadata>
<g transform="translate(0.000000,646.000000) scale(0.100000,-0.100000)"
fill="#000000" stroke="none">
<path d="M1032 6258 c1 -37 2 -39 5 -10 2 17 8 32 14 32 5 0 9 5 9 10 0 6 -7
10 -15 10 -11 0 -15 -11 -13 -42z"/>
<path d="M1078 6289 c6 -7 12 -26 12 -41 0 -15 5 -28 10 -28 6 0 10 8 8 18 -2
13 5 18 35 20 28 2 37 0 35 -10 -2 -7 2 -15 7 -18 6 -3 12 6 14 20 1 14 8 28
15 32 6 4 -17 8 -51 8 -34 0 -70 3 -80 6 -15 6 -16 4 -5 -7z m95 -16 c-13 -2
-35 -2 -50 0 -16 2 -5 4 22 4 28 0 40 -2 28 -4z"/>
<path d="M1243 6293 c-10 -4 -10 -8 1 -18 12 -12 14 -68 8 -188 l-2 -29 -115
4 c-72 2 -115 -1 -115 -7 0 -6 50 -11 125 -12 l125 -1 0 129 c0 71 -3 129 -7
128 -5 0 -14 -3 -20 -6z"/>
<path d="M1475 6280 c4 -13 1 -22 -10 -26 -12 -5 -13 -10 -4 -20 6 -7 10 -33
9 -56 -2 -24 -2 -68 0 -98 l2 -55 10 55 c5 30 9 62 8 70 0 8 0 45 0 83 0 41
-4 67 -11 67 -6 0 -8 -8 -4 -20z"/>
<path d="M2878 6278 c-3 -25 -28 -37 -28 -14 0 8 -4 17 -9 20 -5 4 -7 -3 -4
-13 4 -14 -1 -21 -19 -24 -19 -3 -17 -5 8 -6 17 0 33 -4 37 -7 11 -11 -22 -97
-54 -143 -30 -42 -30 -44 -6 -22 15 13 29 32 33 43 4 14 16 18 52 19 45 2 45
2 12 8 -42 7 -54 38 -18 45 13 3 32 7 43 9 12 3 7 5 -12 6 -26 1 -33 5 -33 21
0 14 7 20 23 21 18 1 19 2 4 6 -14 4 -17 11 -13 29 4 13 2 24 -3 24 -5 0 -11
-10 -13 -22z"/>
<path d="M3130 6152 c0 -123 1 -132 18 -123 9 5 49 7 87 4 52 -3 66 -2 55 6
-8 6 -27 9 -41 6 -14 -3 -36 -2 -48 3 -23 8 -23 9 13 30 21 12 41 22 46 22 19
0 60 -44 55 -58 -4 -10 0 -13 15 -9 11 3 23 1 26 -4 16 -27 24 16 24 132 0
100 -3 130 -12 126 -8 -2 -11 -15 -9 -33 4 -26 5 -82 2 -171 -1 -21 -6 -33
-15 -33 -18 0 -26 33 -22 98 l3 52 -46 -1 c-34 -2 -38 -3 -16 -6 58 -9 50 -23
-13 -23 -58 0 -83 13 -44 23 13 4 11 5 -5 6 -21 1 -23 -3 -23 -54 0 -36 4 -55
12 -55 6 0 2 -9 -10 -20 -36 -34 -42 -25 -42 59 0 123 5 139 49 143 34 3 33 4
-11 8 l-48 5 0 -133z m176 -19 c4 -22 0 -23 -56 -23 -74 0 -80 19 -7 22 l52 2
-52 3 c-29 2 -53 9 -53 14 0 6 24 9 57 7 49 -3 56 -6 59 -25z"/>
<path d="M4794 6265 c-5 -22 -12 -25 -53 -27 -43 -1 -44 -2 -8 -5 27 -3 37 -9
37 -21 0 -21 -36 -82 -49 -82 -5 0 -12 -8 -15 -17 -6 -16 -6 -16 12 0 28 26
32 22 32 -38 0 -84 15 -65 17 23 2 42 8 89 14 105 11 27 13 27 102 27 50 0 87
3 83 7 -4 4 -38 6 -76 4 -80 -3 -95 2 -80 30 7 13 7 19 1 19 -6 0 -13 -11 -17
-25z"/>
<path d="M145 6260 c-20 -22 -14 -26 17 -9 30 16 55 -10 39 -40 -7 -11 -17
-21 -23 -21 -6 0 1 -11 16 -25 31 -29 32 -36 6 -60 -13 -12 -27 -15 -45 -11
-14 4 -25 2 -25 -3 0 -13 33 -19 58 -10 34 13 48 53 33 94 -8 23 -9 40 -2 52
24 44 -38 72 -74 33z"/>
<path d="M301 6266 c-13 -16 -18 -77 -7 -94 4 -7 20 -12 37 -12 36 0 37 -16 4
-53 -38 -40 -15 -33 25 8 28 29 34 42 34 83 1 28 -5 56 -13 65 -16 21 -64 22
-80 3z m65 -21 c22 -34 12 -75 -20 -75 -29 0 -48 43 -35 78 11 29 35 28 55 -3z"/>
<path d="M2244 6272 c-6 -4 -14 -16 -18 -26 -6 -19 -6 -19 12 -3 20 18 52 23
52 7 0 -23 -52 -165 -63 -172 -7 -4 5 -8 28 -8 28 0 36 3 26 9 -12 8 -11 22
10 93 21 68 29 84 47 86 15 2 22 -2 22 -13 0 -9 5 -13 10 -10 6 3 10 15 10 26
0 17 -7 19 -62 19 -35 0 -68 -4 -74 -8z"/>
<path d="M3260 6271 c28 -5 35 -10 34 -28 -1 -13 3 -23 7 -23 8 0 12 22 7 36
-2 4 6 10 17 15 13 5 -1 7 -40 7 -47 -1 -53 -2 -25 -7z"/>
<path d="M5040 6231 c0 -46 2 -50 27 -53 40 -5 41 -28 1 -29 l-33 -1 30 -7
c40 -8 38 -25 -5 -32 -24 -5 -12 -7 43 -8 l77 -1 0 -41 c0 -33 3 -40 16 -35 9
3 36 6 60 6 l44 0 0 55 c0 30 -3 54 -7 54 -5 -1 -18 -1 -31 0 -20 1 -23 6 -20
34 2 27 8 33 31 35 15 2 27 7 27 12 0 5 -12 8 -27 7 -25 -2 -28 1 -26 26 1 15
-2 27 -8 27 -5 0 -9 -31 -9 -70 0 -68 -1 -70 -25 -70 -15 0 -24 -5 -22 -12 1
-8 -12 -14 -37 -16 -28 -2 -37 0 -34 10 3 7 14 14 26 16 12 2 22 7 22 11 0 5
-11 6 -25 3 -18 -3 -25 0 -25 12 0 10 9 16 25 16 22 0 25 4 25 34 0 19 3 41 6
50 5 14 -4 16 -60 16 l-66 0 0 -49z m55 -1 c0 -29 -4 -36 -22 -38 -19 -3 -23
1 -23 22 0 27 15 35 23 14 4 -10 6 -10 6 0 1 7 -6 15 -14 18 -19 8 -8 26 13
22 12 -2 17 -14 17 -38z m55 32 c0 -4 -9 -13 -20 -20 -17 -10 -20 -10 -20 2 0
8 8 17 18 19 9 3 18 5 20 6 1 0 2 -2 2 -7z m0 -47 c0 -18 -5 -25 -20 -25 -24
0 -25 8 -3 32 21 23 23 23 23 -7z m128 -133 l3 -43 -42 3 c-38 3 -42 6 -45 33
-6 48 2 57 43 53 37 -3 38 -4 41 -46z"/>
<path d="M6070 6255 c-5 -14 -16 -25 -25 -25 -12 0 -15 -17 -15 -101 0 -95 1
-100 17 -83 13 13 14 19 5 22 -6 2 -12 19 -12 38 0 32 2 34 35 34 34 0 35 -1
35 -40 0 -34 -3 -40 -22 -40 -27 0 -21 -5 15 -14 l27 -6 0 95 0 95 -31 0 c-31
0 -31 0 -15 25 9 14 12 25 6 25 -6 0 -15 -11 -20 -25z m42 -66 c5 -34 -6 -43
-44 -37 -45 6 -36 68 11 68 25 0 29 -4 33 -31z"/>
<path d="M6158 6227 c-17 -56 -15 -81 3 -29 9 28 16 32 47 34 l37 1 -33 4
c-28 4 -31 7 -22 24 8 14 7 19 -2 19 -7 0 -20 -24 -30 -53z"/>
<path d="M6398 6243 c-2 -30 -7 -37 -20 -35 -10 2 -18 -2 -18 -8 0 -5 9 -10
20 -10 18 0 20 -7 20 -59 0 -33 3 -62 8 -64 4 -3 23 11 42 31 30 30 31 33 8
19 -43 -26 -49 -22 -46 31 3 45 4 47 38 53 l35 6 -39 2 c-38 1 -39 1 -33 36 3
19 2 35 -3 35 -5 0 -10 -17 -12 -37z"/>
<path d="M6865 6264 c-6 -8 -18 -16 -29 -18 -15 -2 -19 -12 -21 -49 -1 -33 2
-47 11 -47 7 0 16 5 19 10 3 6 1 10 -4 10 -6 0 -11 5 -11 10 0 6 21 10 46 10
39 0 45 -3 40 -16 -4 -9 -1 -23 5 -30 12 -15 4 -34 -16 -34 -15 0 -28 27 -19
41 3 5 -1 9 -9 9 -10 0 -13 -7 -10 -20 5 -20 -1 -23 -52 -22 -17 1 -17 0 -2
-4 9 -3 17 -13 17 -22 0 -12 3 -13 12 -4 20 20 28 14 28 -23 0 -30 -4 -35 -22
-35 -21 -1 -21 -2 -5 -11 25 -15 37 -3 37 37 0 42 14 44 35 4 9 -16 22 -30 30
-30 10 0 6 8 -10 26 -31 34 -31 40 1 57 17 9 23 17 15 21 -6 4 -11 31 -11 60
l0 53 -32 -1 c-26 -1 -32 3 -30 17 4 21 0 22 -13 1z m55 -50 c0 -13 -7 -15
-31 -10 -17 3 -38 6 -45 6 -8 0 -14 5 -14 10 0 6 20 10 45 10 35 0 45 -4 45
-16z"/>
<path d="M2465 6214 c-22 -31 -55 -74 -72 -96 -38 -45 -39 -48 -18 -48 8 0 15
8 15 18 0 24 31 52 56 52 14 0 16 2 5 9 -11 7 -10 13 4 35 10 14 19 26 21 26
12 0 -5 -123 -17 -131 -10 -6 -5 -9 16 -9 29 0 30 1 27 43 -2 23 1 68 6 100 5
31 6 57 3 57 -3 0 -24 -25 -46 -56z"/>
<path d="M3748 6183 c-82 -113 -83 -113 -63 -113 9 0 13 5 10 11 -11 17 26 49
57 49 23 0 28 -4 28 -24 0 -13 -6 -27 -12 -29 -7 -3 0 -6 16 -6 22 -1 26 2 18
12 -7 8 -6 39 3 97 7 47 11 86 10 88 -1 1 -31 -37 -67 -85z m32 -13 c0 -19 -5
-30 -14 -30 -24 0 -29 20 -10 41 23 25 24 24 24 -11z"/>
<path d="M3916 6260 c9 -8 4 -34 -16 -101 l-28 -89 53 0 c69 0 89 18 81 71 -4
26 -2 40 9 49 19 16 19 44 0 60 -21 17 -114 27 -99 10z m88 -26 c9 -23 -12
-54 -37 -55 -17 -1 -18 -2 -5 -6 22 -5 35 -50 21 -72 -10 -16 -83 -29 -83 -15
0 16 24 84 29 84 3 0 7 11 7 25 1 14 4 32 8 40 7 20 52 19 60 -1z"/>
<path d="M4135 6260 c-28 -11 -62 -49 -75 -84 -26 -71 50 -145 110 -106 11 7
6 8 -16 4 -25 -5 -36 -1 -53 17 -57 61 13 185 94 165 16 -4 25 -13 25 -26 0
-11 5 -20 10 -20 6 0 10 11 10 24 0 18 -7 25 -31 30 -39 7 -49 7 -74 -4z"/>
<path d="M4298 6264 c6 -3 12 -14 12 -25 0 -23 -35 -135 -51 -163 -10 -17 -7
-18 50 -13 106 10 160 59 146 133 -8 44 -36 62 -110 69 -33 3 -54 2 -47 -1z
m114 -26 c49 -38 3 -153 -62 -158 -55 -5 -60 -2 -51 28 5 15 14 47 21 72 7 25
14 51 16 58 2 6 16 12 32 12 15 0 35 -6 44 -12z"/>
<path d="M6720 6230 c-21 -42 -26 -65 -11 -55 18 11 22 -15 5 -40 -21 -32 -15
-39 20 -25 15 5 32 8 37 4 5 -3 9 1 9 9 0 23 -12 28 -25 10 -6 -8 -17 -14 -24
-12 -8 3 -2 19 18 49 33 48 42 80 12 41 -10 -13 -25 -22 -35 -20 -14 4 -13 9
9 42 14 20 21 37 16 37 -6 0 -20 -18 -31 -40z"/>
<path d="M8276 6263 c-3 -3 -6 -14 -6 -22 0 -9 -10 -21 -22 -26 -20 -9 -23
-19 -26 -69 -2 -40 1 -62 10 -68 10 -8 10 -11 1 -15 -18 -7 -16 -30 2 -37 8
-3 15 0 15 6 0 7 14 9 40 5 l40 -5 0 58 c0 37 5 60 13 63 10 4 10 6 0 6 -8 1
-13 14 -13 31 0 17 -5 30 -10 30 -6 0 -8 -15 -4 -40 l7 -40 -37 0 c-33 0 -36
2 -36 30 0 26 4 30 28 30 21 0 24 2 12 10 -12 8 -13 13 -3 29 12 19 3 38 -11
24z m39 -173 c0 -32 -3 -35 -32 -38 -32 -3 -33 -3 -33 38 0 41 1 41 33 38 29
-3 32 -6 32 -38z"/>
<path d="M8367 6238 c-3 -18 -8 -42 -12 -53 -4 -14 -2 -12 9 5 8 14 15 33 16
43 0 9 5 17 11 17 5 0 7 5 4 10 -12 19 -22 10 -28 -22z"/>
<path d="M9078 6253 c-4 -15 -14 -23 -27 -23 -18 0 -21 -6 -21 -49 0 -46 1
-48 25 -43 20 3 25 0 25 -17 0 -17 -6 -21 -32 -22 -18 0 -27 -3 -20 -6 19 -8
14 -32 -13 -58 -13 -14 -21 -25 -17 -25 4 0 24 19 44 42 l37 43 1 -35 c0 -20
-5 -41 -12 -48 -9 -9 -8 -12 5 -12 13 0 17 9 17 40 0 42 14 54 25 21 7 -22 43
-57 51 -49 3 3 -7 18 -22 33 l-28 28 27 23 c14 12 22 24 16 26 -5 2 -10 27
-11 56 0 50 -1 52 -28 52 -22 0 -29 5 -32 23 l-3 22 -7 -22z m60 -45 c-3 -7
-25 -14 -51 -16 -37 -2 -47 0 -47 12 0 12 12 16 51 16 36 0 49 -4 47 -12z m-8
-43 c0 -11 -12 -15 -45 -15 -33 0 -45 4 -45 15 0 11 12 15 45 15 33 0 45 -4
45 -15z m5 -35 c7 -12 -12 -40 -26 -40 -5 0 -9 11 -9 25 0 25 23 35 35 15z"/>
<path d="M3190 6234 c0 -14 5 -24 10 -22 6 2 10 6 10 11 0 4 0 14 0 22 0 8 -4
15 -10 15 -5 0 -10 -12 -10 -26z"/>
<path d="M5690 6213 c-19 -27 -42 -59 -51 -73 -9 -14 -28 -37 -42 -52 -24 -26
-24 -28 -7 -28 11 0 20 7 20 15 0 22 39 57 53 48 8 -5 8 -2 -1 9 -11 13 -9 21
12 44 l25 29 1 -32 c0 -17 -4 -34 -9 -37 -4 -3 -6 -17 -3 -32 3 -16 -1 -29 -9
-35 -10 -6 -3 -9 21 -9 23 0 31 3 21 9 -9 6 -11 20 -7 47 10 72 17 144 14 144
-2 0 -20 -21 -38 -47z"/>
<path d="M6518 6253 c15 -6 16 -74 2 -124 -6 -21 -29 -56 -51 -79 -27 -28 -33
-37 -17 -29 47 25 77 81 86 162 7 61 8 62 37 62 l30 0 -4 -90 c-4 -106 -13
-129 -47 -122 -13 2 -21 0 -18 -4 10 -16 53 -9 63 9 5 10 13 54 16 98 3 43 8
89 11 102 4 21 2 22 -58 21 -35 -1 -57 -4 -50 -6z"/>
<path d="M8785 6250 c-11 -5 -33 -9 -50 -10 -28 -1 -29 -2 -7 -10 20 -9 22
-16 22 -85 0 -73 -1 -75 -25 -75 -22 0 -24 4 -28 58 l-3 57 -2 -57 c-2 -50 -5
-57 -24 -61 -13 -2 9 -5 47 -5 39 0 64 2 58 5 -8 2 -13 22 -13 44 0 37 2 39
30 39 17 0 30 5 30 11 0 7 -11 8 -31 4 -30 -7 -30 -7 -27 32 3 33 6 38 31 41
15 2 27 8 27 13 0 11 -8 11 -35 -1z"/>
<path d="M8937 6231 c-24 -42 -21 -47 8 -13 26 31 30 42 17 42 -4 0 -15 -13
-25 -29z"/>
<path d="M9348 6224 c-5 -44 7 -55 16 -13 8 42 8 49 -3 49 -5 0 -11 -16 -13
-36z"/>
<path d="M1370 6189 c0 -52 2 -60 16 -55 9 3 23 6 32 7 10 1 6 4 -8 8 -22 6
-25 12 -24 54 0 26 -3 47 -8 47 -4 0 -8 -27 -8 -61z"/>
<path d="M1508 6243 c7 -3 16 -2 19 1 4 3 -2 6 -13 5 -11 0 -14 -3 -6 -6z"/>
<path d="M1580 6200 c0 -29 -5 -50 -11 -50 -5 0 -7 -4 -4 -10 14 -23 23 -6 27
50 1 33 0 60 -4 60 -5 0 -8 -22 -8 -50z"/>
<path d="M2943 6243 c14 -4 18 -12 14 -29 -2 -13 0 -24 4 -24 5 0 9 6 9 14 0
8 3 21 6 30 5 12 0 16 -22 15 -19 -1 -23 -3 -11 -6z"/>
<path d="M7698 6243 c6 -2 18 -2 25 0 6 3 1 5 -13 5 -14 0 -19 -2 -12 -5z"/>
<path d="M7752 6241 c-9 -5 -10 -15 -4 -31 l9 -24 7 28 c8 32 6 38 -12 27z"/>
<path d="M7836 6236 c9 -23 -33 -166 -53 -181 -16 -13 -12 -14 37 -15 30 0 62
5 70 10 11 8 5 10 -22 8 -21 -1 -40 0 -43 3 -4 5 27 112 50 172 6 13 2 17 -19
17 -17 0 -24 -4 -20 -14z"/>
<path d="M8588 6243 c38 -5 38 -8 12 -48 -24 -36 -25 -46 -5 -39 32 13 44 -2
33 -40 -13 -40 -22 -45 -37 -18 -14 23 -14 6 0 -20 9 -17 6 -25 -18 -51 -27
-31 -27 -31 -1 -8 l27 23 44 -21 c33 -16 60 -21 118 -20 l74 2 -85 7 c-90 7
-130 21 -130 46 0 8 7 31 15 51 20 48 19 63 -5 63 -23 0 -24 6 -5 40 21 37 19
40 -27 38 -37 -1 -39 -2 -10 -5z"/>
<path d="M9277 6243 c-16 -4 -18 -15 -16 -81 2 -66 0 -77 -17 -83 -10 -4 49
-7 131 -7 83 0 142 2 133 5 -10 2 -19 12 -19 21 -3 26 1 83 7 121 4 23 2 32
-7 29 -11 -4 -20 -72 -19 -140 0 -25 -3 -28 -35 -28 -24 0 -35 5 -35 14 0 8
-8 14 -19 13 -11 0 -17 -6 -14 -14 3 -7 -2 -13 -11 -13 -19 0 -19 4 -7 48 6
18 6 30 1 27 -5 -3 -12 -21 -16 -40 -5 -28 -11 -35 -30 -35 -17 0 -24 6 -24
20 0 14 7 20 21 20 11 0 18 4 14 10 -3 5 -12 7 -20 3 -11 -4 -15 2 -15 20 0
19 6 27 23 30 l22 4 -22 2 c-15 1 -23 7 -23 19 0 11 10 24 23 30 22 11 8 14
-26 5z"/>
<path d="M10396 6225 c-4 -14 -13 -25 -21 -25 -11 0 -15 -12 -16 -42 -1 -24
-3 -56 -5 -73 -2 -16 -2 -41 1 -53 5 -20 8 -22 21 -11 10 8 12 14 4 19 -6 4
-10 22 -8 41 3 32 5 34 38 33 l35 0 -3 -47 c-2 -29 0 -47 7 -47 7 0 11 33 11
93 l0 94 -30 -5 c-34 -5 -38 3 -13 30 14 16 14 18 1 18 -9 0 -19 -11 -22 -25z
m52 -67 c3 -27 1 -28 -37 -28 -36 0 -41 3 -41 23 0 32 9 38 45 35 24 -2 31 -8
33 -30z"/>
<path d="M10500 6230 c0 -12 -7 -35 -15 -53 l-16 -32 21 28 c19 23 29 27 72
27 l50 0 -5 -57 c-4 -32 -6 -70 -7 -85 0 -34 -23 -57 -52 -52 -15 3 -13 0 6
-7 25 -10 31 -9 42 5 11 16 30 180 22 200 -1 6 -22 9 -45 7 -52 -3 -69 5 -52
25 9 11 8 14 -5 14 -9 0 -16 -8 -16 -20z"/>
<path d="M10870 6235 c-36 -9 -45 -13 -27 -14 l27 -1 0 -79 c0 -54 -4 -81 -12
-84 -7 -3 14 -5 47 -5 39 1 47 3 23 5 -38 4 -40 6 -40 43 0 37 2 40 33 40 18
0 28 4 24 10 -3 6 -17 7 -29 4 -16 -4 -25 0 -30 11 -9 25 4 65 23 65 9 0 23 5
31 10 13 9 13 10 0 8 -8 0 -40 -6 -70 -13z"/>
<path d="M11052 6204 c-24 -48 -22 -67 6 -57 15 6 15 5 3 -13 -7 -10 3 -1 23
20 20 22 34 41 31 44 -2 3 -12 -5 -22 -17 -13 -15 -22 -18 -33 -11 -12 8 -11
13 8 39 24 32 27 41 14 41 -4 0 -18 -21 -30 -46z"/>
<path d="M11196 6235 c-3 -8 -15 -15 -26 -15 -17 0 -20 -6 -20 -50 0 -27 4
-50 9 -50 15 0 22 18 9 22 -26 9 6 28 48 28 32 0 44 -4 44 -15 0 -10 -10 -15
-29 -15 -25 0 -28 -3 -23 -25 4 -23 1 -25 -34 -26 -22 -1 -31 -3 -21 -6 23 -6
22 -16 -9 -55 -14 -18 -8 -14 13 10 21 23 42 42 46 42 4 0 7 -16 7 -35 0 -31
-3 -35 -27 -35 -25 -1 -26 -2 -10 -11 29 -17 47 -3 47 36 0 43 9 44 35 2 11
-17 29 -33 40 -35 15 -2 12 3 -12 23 -40 32 -41 47 -8 65 20 11 23 16 12 22
-10 5 -14 22 -11 58 l3 50 -35 0 c-28 0 -35 3 -30 15 3 8 1 15 -3 15 -5 0 -11
-7 -15 -15z m64 -40 c0 -11 -12 -15 -45 -15 -33 0 -45 4 -45 15 0 11 12 15 45
15 33 0 45 -4 45 -15z m6 -76 c8 -14 -21 -43 -35 -35 -6 4 -11 16 -11 27 0 21
34 27 46 8z"/>
<path d="M11428 6223 c-2 -19 -10 -29 -28 -34 -24 -7 -24 -7 -2 -8 28 -1 28
-12 -4 -67 -15 -25 -24 -47 -22 -50 3 -2 11 9 18 26 7 16 19 30 27 30 11 0 13
-14 9 -70 -3 -42 -1 -68 5 -65 5 4 9 41 9 83 l1 77 19 -24 c11 -13 20 -18 20
-12 0 6 -9 19 -20 28 -28 24 -25 43 6 43 15 0 23 4 19 10 -4 6 -16 8 -27 4
-18 -5 -20 -3 -16 25 2 17 1 31 -3 31 -4 0 -9 -12 -11 -27z"/>
<path d="M11827 6230 c6 -22 4 -22 -55 -18 -33 2 -59 1 -56 -4 7 -11 264 -10
264 1 0 16 -21 24 -33 12 -19 -19 -79 -13 -103 10 l-23 21 6 -22z"/>
<path d="M12215 6205 c-9 -25 -26 -55 -38 -66 -11 -10 -16 -19 -9 -19 6 0 19
12 28 28 9 15 26 40 36 55 13 18 17 32 11 38 -6 6 -16 -7 -28 -36z"/>
<path d="M12579 6180 c-4 -69 -6 -75 -26 -78 -13 -2 -23 -10 -23 -18 0 -9 -11
-14 -35 -14 -33 0 -35 2 -35 35 0 31 3 35 25 35 23 0 25 3 25 50 l0 50 -60 0
-60 0 0 -50 c0 -47 2 -50 25 -50 34 0 32 -28 -2 -33 l-28 -4 28 -2 c39 -2 35
-29 -5 -34 -18 -2 2 -5 45 -5 l77 -2 0 -39 c0 -38 1 -39 25 -28 23 11 23 12 4
15 -17 3 -20 10 -17 40 3 40 19 49 64 38 20 -5 24 -12 22 -39 -1 -17 -7 -35
-13 -39 -6 -5 -3 -8 8 -8 14 0 17 9 17 54 0 51 -1 53 -25 48 -23 -4 -25 -1
-25 32 0 34 2 36 31 36 18 0 28 4 24 10 -3 6 -17 7 -30 4 -21 -5 -24 -2 -27
33 -3 25 -6 13 -9 -37z m-139 10 c0 -28 -4 -40 -14 -40 -11 0 -15 11 -13 40 1
25 6 40 14 40 8 0 13 -14 13 -40z m58 -3 c3 -32 0 -37 -17 -37 -25 0 -27 13
-6 30 8 7 15 17 15 22 0 6 -7 5 -15 -2 -13 -10 -15 -9 -15 10 0 15 5 20 18 18
12 -2 18 -14 20 -41z"/>
<path d="M1133 6232 c-6 -4 -13 -11 -15 -17 -1 -5 -18 -9 -35 -8 -18 2 -33 -1
-33 -6 0 -5 41 -9 90 -10 56 -1 90 2 90 8 0 6 -8 10 -17 9 -37 -3 -64 2 -58
11 7 13 -8 21 -22 13z"/>
<path d="M6258 6233 c8 -3 12 -26 11 -71 -2 -104 -9 -126 -44 -132 -29 -6 -29
-6 -6 -14 15 -5 27 -4 36 5 13 14 46 205 37 214 -3 3 -15 5 -26 4 -12 0 -15
-3 -8 -6z"/>
<path d="M7621 6205 c-73 -83 -16 -194 79 -155 17 7 33 16 36 21 2 5 -10 2
-28 -5 -52 -21 -98 5 -98 56 0 38 35 105 57 111 15 4 16 5 2 6 -10 0 -31 -15
-48 -34z"/>
<path d="M7925 6228 c28 -16 35 -28 35 -67 0 -21 -10 -47 -26 -68 -27 -36 -22
-43 12 -15 28 23 47 73 38 106 -7 28 -39 56 -64 56 -11 -1 -9 -4 5 -12z"/>
<path d="M9390 6230 c-13 -8 -12 -10 3 -10 9 0 17 5 17 10 0 12 -1 12 -20 0z"/>
<path d="M9806 6224 c-9 -8 -16 -20 -16 -25 0 -11 49 22 50 34 0 12 -18 8 -34
-9z"/>
<path d="M10065 6210 c-9 -16 -19 -30 -24 -30 -5 0 -21 -20 -35 -43 -13 -24
-38 -58 -54 -75 l-30 -32 25 0 c13 0 21 4 18 10 -12 19 26 60 56 60 24 0 29
-4 29 -25 0 -13 -8 -29 -17 -34 -14 -8 -10 -10 22 -10 22 0 34 3 28 6 -15 5
-17 94 -4 161 10 50 7 52 -14 12z m-5 -47 c-1 -29 -15 -53 -31 -53 -23 0 -24
9 -3 38 15 21 34 30 34 15z"/>
<path d="M10708 6233 c7 -3 16 -2 19 1 4 3 -2 6 -13 5 -11 0 -14 -3 -6 -6z"/>
<path d="M10745 6230 c3 -5 -1 -23 -10 -39 -20 -40 -19 -48 8 -47 19 1 22 -3
19 -29 -5 -39 -20 -55 -32 -35 -7 11 -8 6 -4 -16 5 -25 2 -35 -17 -48 -13 -9
-19 -16 -15 -16 5 0 17 7 27 16 17 15 21 15 52 -5 27 -16 51 -21 105 -21 39 0
73 3 75 8 3 4 -33 7 -79 7 -70 0 -87 3 -103 20 -20 20 -20 21 -2 75 l18 55
-23 3 c-29 4 -29 8 -4 50 l20 32 -21 0 c-11 0 -17 -4 -14 -10z"/>
<path d="M11500 6116 l0 -123 51 5 c37 3 54 1 60 -9 6 -9 9 10 10 51 0 36 2
95 4 133 4 53 2 67 -10 67 -10 0 -12 -9 -8 -35 l6 -35 -47 0 c-44 0 -46 1 -46
29 0 27 4 30 38 34 34 3 33 4 -10 5 l-48 2 0 -124z m110 9 c0 -35 0 -35 -45
-35 -45 0 -45 0 -45 35 0 35 0 35 45 35 45 0 45 0 45 -35z m0 -80 c0 -35 0
-35 -45 -35 -45 0 -45 0 -45 35 0 35 0 35 45 35 45 0 45 0 45 -35z"/>
<path d="M12092 6224 c2 -13 -5 -20 -27 -25 -26 -6 -26 -7 -6 -8 23 -1 24 -3
19 -69 -3 -37 -13 -83 -22 -102 l-17 -35 20 23 c11 13 23 46 27 73 6 42 10 49
29 49 21 0 23 -4 18 -42 -8 -78 -12 -88 -36 -88 -21 -1 -21 -1 -3 -12 26 -15
46 13 46 66 0 23 3 51 6 64 6 19 3 22 -25 22 -26 0 -31 4 -31 25 0 23 4 25 41
25 24 0 38 4 34 10 -3 6 -17 7 -31 4 -18 -5 -24 -2 -24 9 0 9 -5 19 -11 22 -6
4 -9 0 -7 -11z"/>
<path d="M14112 6188 c-13 -34 -15 -45 -5 -30 8 12 22 22 30 22 13 0 15 -13
11 -70 -3 -60 -8 -74 -33 -102 l-30 -33 33 29 c17 17 32 35 32 42 0 28 19 22
40 -11 12 -20 25 -34 28 -31 3 4 -8 23 -24 44 -24 29 -30 47 -30 82 1 39 4 45
24 48 39 6 24 18 -18 14 -40 -4 -40 -4 -30 22 19 50 -6 26 -28 -26z"/>
<path d="M8469 6223 c0 -5 0 -37 0 -73 2 -93 -9 -124 -45 -130 -29 -6 -29 -6
-5 -12 35 -10 48 5 55 60 16 143 17 162 7 162 -6 0 -11 -3 -12 -7z"/>
<path d="M8668 6223 c6 -2 18 -2 25 0 6 3 1 5 -13 5 -14 0 -19 -2 -12 -5z"/>
<path d="M9855 6219 c11 -16 -26 -150 -46 -170 -19 -19 -18 -19 19 -19 23 0
32 3 24 9 -11 6 -10 20 3 72 9 35 23 76 31 91 14 27 14 28 -11 28 -16 0 -24
-4 -20 -11z"/>
<path d="M9922 6223 c9 -2 19 -12 21 -21 3 -12 5 -10 6 6 1 17 -4 22 -21 21
-16 -1 -18 -3 -6 -6z"/>
<path d="M12990 6216 c4 -4 5 -20 0 -35 -4 -14 -16 -54 -25 -88 -11 -38 -24
-64 -34 -66 -9 -3 21 -5 67 -6 80 -1 83 0 92 25 15 37 12 40 -11 10 -16 -20
-29 -26 -59 -26 -44 0 -51 11 -37 57 8 25 16 33 33 33 12 0 24 -6 26 -12 3 -7
10 3 16 21 12 33 11 33 -6 18 -20 -18 -52 -23 -52 -8 0 4 5 22 11 40 9 26 16
31 44 31 22 0 38 -6 44 -17 9 -16 10 -16 11 4 0 19 -6 22 -65 25 -36 2 -60 -1
-55 -6z"/>
<path d="M13863 6223 l107 -4 0 -39 0 -40 -91 0 c-86 0 -91 1 -86 20 3 13 0
20 -9 20 -11 0 -14 -19 -14 -84 0 -111 6 -115 136 -112 52 2 98 6 102 10 4 4
7 21 8 38 2 32 -12 27 -18 -7 -3 -18 -11 -20 -103 -20 l-100 0 -3 63 -3 62 98
0 98 0 -3 50 -4 50 -111 -2 -112 -2 108 -3z"/>
<path d="M4870 6186 c0 -35 -1 -36 -37 -37 l-38 -2 34 -6 c32 -6 34 -8 35 -53
l1 -47 -45 -4 c-25 -2 -1 -4 53 -5 57 -1 96 2 93 7 -3 5 -23 7 -45 4 -46 -6
-55 4 -46 57 6 37 8 39 48 43 l42 4 -44 1 c-42 2 -43 3 -39 32 3 17 1 33 -4
36 -4 3 -8 -11 -8 -30z"/>
<path d="M8973 6191 c-8 -13 -19 -17 -37 -14 -19 4 -26 1 -26 -10 0 -11 6 -13
22 -9 l22 5 -22 -28 c-19 -24 -29 -55 -18 -55 2 0 16 6 31 14 15 8 35 12 44 8
14 -5 14 -4 1 12 -8 11 -16 14 -18 7 -4 -12 -42 -16 -42 -5 0 4 16 27 36 50
19 24 32 44 27 44 -4 0 -13 -8 -20 -19z"/>
<path d="M12250 6202 c0 -12 62 -84 68 -78 2 3 -12 24 -32 46 -20 22 -36 37
-36 32z"/>
<path d="M14242 6125 l2 -80 5 70 6 70 33 3 32 3 0 -90 c0 -50 3 -91 8 -91 4
0 7 44 8 98 l1 97 -49 0 -48 0 2 -80z"/>
<path d="M1804 6166 c1 -27 4 -32 14 -23 15 12 12 49 -4 54 -6 2 -10 -11 -10
-31z"/>
<path d="M2990 6177 c0 -13 -5 -28 -12 -35 -9 -9 -5 -12 21 -12 32 0 32 -1 26
-32 -10 -46 -23 -59 -54 -52 -20 4 -23 3 -11 -5 42 -30 69 -6 85 77 6 29 5 32
-17 30 -20 -3 -23 1 -20 25 2 15 -1 27 -7 27 -6 0 -11 -10 -11 -23z"/>
<path d="M9387 6182 c6 -4 13 -21 16 -37 4 -27 4 -27 6 8 1 29 -3 37 -16 37
-12 0 -14 -3 -6 -8z"/>
<path d="M9438 6183 c7 -3 16 -2 19 1 4 3 -2 6 -13 5 -11 0 -14 -3 -6 -6z"/>
<path d="M11754 6154 c-17 -18 -28 -34 -23 -34 11 0 69 50 69 61 0 17 -15 8
-46 -27z"/>
<path d="M1070 6128 l0 -53 67 0 c38 0 71 5 75 10 4 6 8 29 8 53 l0 42 -75 0
-75 0 0 -52z m130 2 l0 -40 -55 0 -55 0 0 40 0 40 55 0 55 0 0 -40z"/>
<path d="M1100 6130 c0 -17 7 -20 40 -20 33 0 40 3 40 20 0 17 -7 20 -40 20
-33 0 -40 -3 -40 -20z m60 0 c0 -5 -9 -10 -20 -10 -11 0 -20 5 -20 10 0 6 9
10 20 10 11 0 20 -4 20 -10z"/>
<path d="M11912 6151 c18 -16 35 -27 37 -25 7 7 -42 54 -56 54 -7 0 1 -13 19
-29z"/>
<path d="M6201 6136 c13 -22 25 -34 27 -27 2 7 -8 25 -23 40 l-27 26 23 -39z"/>
<path d="M7142 6143 c2 -16 9 -28 18 -29 9 0 10 1 3 3 -21 7 -15 43 6 43 11 0
21 -6 24 -12 2 -8 3 -7 3 2 -1 9 -13 16 -29 18 -26 3 -28 1 -25 -25z"/>
<path d="M10820 6150 c-1 -14 -1 -39 0 -57 1 -26 -3 -32 -22 -36 -19 -3 -18
-5 7 -6 30 -1 30 -1 27 47 -4 61 -9 84 -12 52z"/>
<path d="M8401 6120 c13 -16 25 -28 27 -25 7 7 -27 55 -39 55 -5 0 0 -13 12
-30z"/>
<path d="M10537 6113 c10 -18 20 -28 22 -22 2 6 -6 21 -19 33 l-21 21 18 -32z"/>
<path d="M11790 6135 c0 -5 9 -25 20 -43 26 -42 17 -55 -55 -88 -27 -13 -44
-24 -36 -24 8 0 39 14 69 31 l54 31 57 -31 c40 -21 61 -27 71 -21 13 8 12 10
-3 10 -25 0 -97 38 -103 55 -7 16 20 71 38 78 9 4 7 6 -3 6 -10 1 -24 -14 -33
-34 -9 -19 -21 -35 -26 -35 -5 0 -18 17 -29 38 -11 20 -20 33 -21 27z"/>
<path d="M13334 6125 c-9 -23 3 -45 25 -45 10 0 22 7 25 16 10 25 7 29 -7 9
-8 -10 -19 -15 -25 -11 -20 12 -13 34 11 39 l22 4 -23 2 c-12 0 -25 -6 -28
-14z"/>
<path d="M12240 6107 c14 -14 26 -24 28 -22 7 7 -9 25 -31 37 -20 10 -20 9 3
-15z"/>
<path d="M11095 6109 c-4 -6 -18 -9 -31 -6 -13 2 -25 -1 -28 -9 -8 -20 5 -24
33 -10 14 7 32 11 39 9 6 -3 12 0 12 6 0 15 -18 23 -25 10z"/>
<path d="M12480 6110 c-12 -8 -11 -10 8 -10 12 0 22 5 22 10 0 13 -11 13 -30
0z"/>
<path d="M14195 6110 c-3 -5 3 -10 14 -10 12 0 21 5 21 10 0 6 -6 10 -14 10
-8 0 -18 -4 -21 -10z"/>
<path d="M450 6095 c0 -8 5 -15 10 -15 6 0 10 7 10 15 0 8 -4 15 -10 15 -5 0
-10 -7 -10 -15z"/>
<path d="M2892 6085 c0 -16 2 -22 5 -12 2 9 2 23 0 30 -3 6 -5 -1 -5 -18z"/>
<path d="M2990 6095 c0 -8 4 -15 10 -15 5 0 7 7 4 15 -4 8 -8 15 -10 15 -2 0
-4 -7 -4 -15z"/>
<path d="M2941 6084 c0 -11 3 -14 6 -6 3 7 2 16 -1 19 -3 4 -6 -2 -5 -13z"/>
<path d="M6771 6073 c7 -12 15 -20 18 -17 3 2 -3 12 -13 22 -17 16 -18 16 -5
-5z"/>
<path d="M5082 6055 c0 -16 2 -22 5 -12 2 9 2 23 0 30 -3 6 -5 -1 -5 -18z"/>
<path d="M5117 6059 c4 -13 8 -18 11 -10 2 7 -1 18 -6 23 -8 8 -9 4 -5 -13z"/>
<path d="M5147 6059 c4 -13 8 -18 11 -10 2 7 -1 18 -6 23 -8 8 -9 4 -5 -13z"/>
<path d="M8982 6060 c7 -11 17 -20 22 -20 5 0 1 9 -9 20 -10 11 -20 20 -22 20
-2 0 2 -9 9 -20z"/>
<path d="M2835 6059 c-4 -6 -5 -12 -2 -15 2 -3 7 2 10 11 7 17 1 20 -8 4z"/>
<path d="M5041 6063 c0 -6 -4 -20 -7 -30 -5 -14 -4 -15 5 -7 7 7 11 20 8 30
-3 11 -5 14 -6 7z"/>
<path d="M6704 6057 c3 -10 6 -23 6 -28 0 -5 5 -9 10 -9 14 0 12 13 -6 36 -14
17 -15 17 -10 1z"/>
<path d="M6747 6049 c4 -13 8 -18 11 -10 2 7 -1 18 -6 23 -8 8 -9 4 -5 -13z"/>
<path d="M8803 6063 c9 -2 23 -2 30 0 6 3 -1 5 -18 5 -16 0 -22 -2 -12 -5z"/>
<path d="M11107 6050 c3 -11 9 -20 15 -20 5 0 4 9 -2 20 -6 11 -12 20 -14 20
-2 0 -2 -9 1 -20z"/>
<path d="M8957 6039 c4 -13 8 -18 11 -10 2 7 -1 18 -6 23 -8 8 -9 4 -5 -13z"/>
<path d="M11075 6040 c10 -11 20 -20 22 -20 2 0 -1 9 -7 20 -6 11 -16 20 -22
20 -6 0 -3 -9 7 -20z"/>
<path d="M6789 6033 c-13 -16 -12 -17 4 -4 9 7 17 15 17 17 0 8 -8 3 -21 -13z"/>
<path d="M8920 6032 c6 -13 14 -21 18 -18 3 4 -2 14 -12 24 -18 16 -18 16 -6
-6z"/>
<path d="M9301 6030 c-13 -11 -29 -20 -37 -20 -8 0 -14 -5 -14 -11 0 -5 3 -9
8 -7 51 25 82 44 82 50 0 13 -14 9 -39 -12z"/>
<path d="M9449 6025 c24 -14 46 -23 49 -21 6 7 -60 46 -78 46 -8 0 5 -12 29
-25z"/>
<path d="M12230 6022 c34 -29 49 -34 35 -13 -3 6 -21 18 -38 27 l-32 16 35
-30z"/>
<path d="M11042 6020 c7 -10 14 -18 15 -16 6 6 -9 36 -18 36 -5 0 -4 -9 3 -20z"/>
<path d="M12392 6019 c-7 -12 -11 -24 -7 -27 7 -8 25 17 25 36 0 17 -3 15 -18
-9z"/>
<path d="M12460 6035 c0 -5 5 -17 10 -25 5 -8 10 -10 10 -5 0 6 -5 17 -10 25
-5 8 -10 11 -10 5z"/>
<path d="M12490 6031 c0 -6 4 -13 10 -16 6 -3 7 1 4 9 -7 18 -14 21 -14 7z"/>
<path d="M14240 6016 c0 -22 3 -27 11 -19 8 8 8 16 0 30 -9 16 -10 14 -11 -11z"/>
<path d="M12431 6014 c0 -11 3 -14 6 -6 3 7 2 16 -1 19 -3 4 -6 -2 -5 -13z"/>
<path d="M1327 5870 c7 -27 -35 -162 -55 -177 -13 -11 -8 -13 35 -13 87 0 129
30 115 82 -6 23 -24 24 -21 1 4 -27 -11 -63 -26 -63 -7 0 -19 -2 -27 -5 -28
-10 -38 8 -26 53 6 23 15 42 20 42 5 0 7 4 4 9 -11 17 15 71 34 71 47 0 45
-64 -2 -73 -21 -3 -21 -4 -5 -12 22 -9 67 29 67 56 0 26 -39 49 -81 49 -32 0
-36 -3 -32 -20z"/>
<path d="M1830 5867 c-68 -46 -87 -130 -39 -169 35 -29 129 -19 129 14 0 6 -9
3 -19 -6 -28 -26 -82 -18 -100 15 -20 37 -7 96 31 131 45 42 97 34 99 -16 0
-21 0 -21 9 -1 18 41 12 50 -34 52 -31 2 -52 -3 -76 -20z"/>
<path d="M4687 5878 c-7 -5 -2 -8 12 -8 23 0 24 -1 19 -72 -4 -58 -3 -66 5
-40 10 32 27 44 27 18 0 -7 11 -30 25 -51 25 -35 25 -38 8 -52 -17 -13 -16
-13 4 -3 19 9 32 6 70 -15 50 -26 63 -30 63 -17 0 4 -20 15 -45 25 -25 11 -45
23 -45 28 0 5 -6 9 -12 9 -14 0 -58 59 -58 78 0 8 19 12 55 12 59 0 61 -4 26
-60 -10 -15 -11 -21 -3 -16 6 4 19 22 28 39 9 18 22 35 28 39 6 4 -6 8 -28 8
-41 0 -41 0 -20 68 7 24 6 24 -71 20 -42 -2 -82 -6 -88 -10z m143 -17 c0 -5
-4 -21 -10 -35 -8 -21 -16 -26 -44 -26 -28 0 -35 4 -40 25 -4 14 -4 30 -1 35
8 13 95 13 95 1z"/>
<path d="M1210 5866 c0 -8 -8 -21 -18 -28 -10 -7 -27 -26 -38 -43 -10 -16 -32
-47 -48 -67 -16 -21 -27 -41 -23 -44 10 -10 27 6 27 26 0 22 28 40 61 40 19 0
21 -4 16 -35 -5 -32 -4 -35 19 -35 20 0 23 3 13 18 -7 11 -8 43 -2 100 5 45 5
82 1 82 -4 0 -8 -6 -8 -14z m-12 -73 c-2 -20 -9 -29 -25 -31 -27 -4 -29 5 -7
36 21 30 36 28 32 -5z"/>
<path d="M2016 5866 c6 -16 -33 -152 -49 -173 -13 -18 100 -17 131 1 58 32 79
112 41 160 -18 22 -28 26 -74 26 -43 0 -53 -3 -49 -14z m112 -18 c20 -17 8
-95 -20 -125 -21 -23 -78 -40 -96 -29 -9 5 20 145 35 169 7 11 61 1 81 -15z"/>
<path d="M2945 5779 l-100 -99 35 0 c19 0 63 -3 97 -5 34 -2 65 0 68 5 4 6
-25 10 -74 10 -45 0 -81 4 -81 9 0 6 37 46 82 90 46 44 80 82 78 85 -3 3 -50
-40 -105 -95z"/>
<path d="M3157 5856 c5 -25 -31 -150 -50 -173 -7 -10 -1 -13 26 -13 61 0 98
12 114 37 14 20 14 28 3 49 -12 22 -11 26 8 45 12 11 22 26 22 34 0 23 -42 45
-86 45 -38 0 -41 -2 -37 -24z m74 4 c39 -21 16 -70 -33 -70 -26 0 -28 2 -22
28 7 26 22 52 31 52 2 0 13 -5 24 -10z m-13 -92 c32 -32 3 -78 -48 -78 -20 0
-22 4 -15 37 4 21 9 41 11 45 8 12 39 9 52 -4z"/>
<path d="M3393 5824 c-24 -29 -43 -57 -43 -61 0 -5 -16 -25 -35 -46 -41 -45
-42 -47 -14 -47 11 0 17 4 14 10 -13 21 24 60 55 60 25 0 30 -4 30 -23 0 -13
-4 -27 -10 -33 -6 -6 2 -10 25 -11 30 -1 32 1 19 14 -8 8 -13 23 -10 32 6 22
19 161 15 160 -2 0 -23 -25 -46 -55z m15 -41 c-2 -20 -9 -29 -25 -31 -28 -4
-28 2 -5 33 23 32 34 31 30 -2z"/>
<path d="M3506 5864 c-9 -25 -8 -26 20 -8 15 10 29 13 34 8 14 -14 -27 -156
-50 -176 -20 -17 -20 -17 19 -15 22 1 35 4 29 8 -9 6 -9 20 1 61 27 112 30
118 62 118 21 0 29 -5 30 -17 0 -15 2 -15 9 2 15 34 12 35 -69 35 -63 0 -80
-3 -85 -16z"/>
<path d="M4022 5864 c-31 -21 -28 -38 3 -18 21 14 30 15 52 5 21 -10 24 -16
19 -42 -5 -29 -72 -119 -88 -119 -4 0 -8 -5 -8 -10 0 -15 112 -8 117 7 3 8 -8
10 -36 6 -48 -7 -53 7 -16 41 14 13 32 40 40 61 15 33 15 39 0 61 -18 28 -51
31 -83 8z"/>
<path d="M4220 5843 c-14 -20 -30 -41 -36 -47 -11 -12 -34 -51 -34 -60 0 -3
19 -6 43 -8 34 -2 42 -7 42 -23 1 -30 19 -34 24 -5 1 14 8 28 15 32 8 6 8 8
-1 8 -9 0 -13 21 -13 70 0 39 -3 70 -7 70 -5 0 -19 -17 -33 -37z m18 -55 c-3
-36 -7 -44 -27 -46 -38 -6 -43 11 -16 51 34 49 47 47 43 -5z"/>
<path d="M4336 5867 c-38 -27 2 -95 42 -71 24 16 28 55 6 71 -10 7 -21 13 -24
13 -3 0 -14 -6 -24 -13z m51 -23 c8 -21 -19 -46 -40 -38 -17 6 -23 35 -10 47
12 13 44 7 50 -9z"/>
<path d="M7520 5860 c0 -12 -7 -20 -17 -20 -17 -1 -17 -1 0 -14 14 -11 17 -29
17 -99 0 -71 -3 -88 -17 -96 -16 -9 -16 -10 5 -11 20 0 22 5 22 55 l0 54 46
-44 c43 -43 74 -57 74 -35 0 5 -11 12 -24 16 -30 7 -80 59 -72 73 4 6 0 11 -9
11 -14 0 -16 9 -12 65 3 36 1 65 -4 65 -5 0 -9 -9 -9 -20z"/>
<path d="M7570 5871 c0 -6 5 -11 10 -11 20 0 10 -19 -12 -23 -17 -3 -14 -5 10
-6 29 -1 32 1 22 18 -12 24 -30 36 -30 22z"/>
<path d="M5290 5775 c-52 -53 -97 -98 -99 -100 -2 -3 40 -4 95 -3 85 2 89 2
29 5 -38 2 -74 8 -78 12 -5 5 28 45 72 90 72 72 88 91 78 91 -1 0 -45 -43 -97
-95z"/>
<path d="M5575 5833 c-19 -25 -23 -34 -12 -30 14 5 17 0 17 -24 0 -30 -19 -47
-40 -34 -7 4 -7 13 1 28 5 12 -5 4 -23 -18 -18 -22 -43 -50 -55 -62 l-22 -23
25 0 c14 0 22 4 19 10 -3 5 -1 19 5 30 15 27 80 29 80 2 0 -10 -5 -23 -12 -30
-9 -9 -6 -12 15 -12 17 0 25 4 21 13 -2 7 0 51 5 97 5 47 8 86 7 87 -1 1 -15
-14 -31 -34z"/>
<path d="M5702 5842 c0 -16 -12 -61 -26 -100 l-25 -72 69 0 c58 0 71 3 80 19
16 31 12 37 -10 13 -15 -16 -32 -22 -62 -22 l-40 0 7 37 c4 21 9 41 11 45 8
12 44 9 44 -3 0 -5 5 -7 10 -4 6 3 10 15 10 26 0 17 -3 18 -20 7 -26 -17 -35
-5 -24 34 8 26 16 34 39 36 19 3 33 -2 42 -14 12 -17 13 -16 13 4 0 20 -5 22
-58 22 -58 0 -59 -1 -60 -28z"/>
<path d="M5878 5862 c10 -7 7 -28 -11 -100 l-24 -92 57 0 c43 0 64 5 86 22 16
12 31 23 33 25 2 2 5 11 6 21 0 9 4 23 8 29 18 29 -13 81 -57 97 -12 4 -8 -4
12 -22 27 -25 30 -33 23 -63 -11 -47 -28 -76 -51 -89 -24 -13 -90 -13 -90 -1
0 6 12 46 26 91 19 58 30 80 40 76 8 -3 14 -1 14 4 0 6 -19 10 -42 10 -26 0
-38 -4 -30 -8z"/>
<path d="M6551 5857 c-14 -6 -27 -19 -29 -27 -4 -12 -1 -11 15 3 26 22 45 22
66 -3 22 -26 11 -56 -44 -121 l-41 -49 50 0 c46 0 82 17 82 38 0 3 -5 1 -12
-6 -13 -13 -78 -17 -78 -4 0 4 14 24 31 45 37 45 52 90 36 110 -18 22 -49 28
-76 14z"/>
<path d="M6376 5844 c-9 -24 -7 -29 6 -16 17 17 88 16 88 -2 0 -7 -9 -33 -19
-57 -19 -45 -38 -118 -27 -108 3 3 21 49 41 102 l35 97 -59 0 c-44 0 -60 -4
-65 -16z"/>
<path d="M6690 5845 c-18 -21 2 -65 29 -65 22 0 51 25 51 44 0 34 -57 49 -80
21z m58 -22 c-2 -20 -9 -28 -23 -28 -14 0 -21 8 -23 28 -3 23 0 27 23 27 23 0
26 -4 23 -27z"/>
<path d="M8710 5846 c14 -8 28 -25 31 -38 6 -23 6 -23 14 5 9 33 9 32 -35 40
-34 6 -34 6 -10 -7z"/>
<path d="M8023 5755 c-51 -52 -93 -96 -93 -99 0 -4 43 -6 95 -6 57 0 95 4 95
10 0 6 -32 10 -75 10 -41 0 -75 3 -75 7 0 4 37 45 82 90 46 46 78 83 73 83 -6
0 -52 -43 -102 -95z"/>
<path d="M8315 5821 c-8 -17 -20 -31 -25 -31 -5 0 -16 -13 -25 -29 -8 -16 -23
-37 -32 -47 -17 -17 -17 -18 2 -10 11 4 30 10 43 12 19 4 22 0 22 -25 0 -16
-6 -32 -12 -34 -7 -3 2 -6 21 -6 29 -1 32 1 21 14 -10 12 -10 31 0 95 7 45 10
83 7 86 -3 3 -13 -8 -22 -25z m-8 -88 c-3 -2 -15 -3 -27 -1 l-22 3 24 30 23
30 3 -29 c2 -15 1 -30 -1 -33z"/>
<path d="M8435 5840 c3 -5 0 -36 -9 -67 -8 -32 -16 -65 -18 -73 -1 -8 -9 -21
-16 -28 -7 -8 -11 -17 -8 -19 10 -11 96 -3 116 9 26 16 36 54 20 73 -11 13 -9
20 10 40 20 21 22 28 12 50 -10 22 -18 25 -62 25 -32 0 -49 -4 -45 -10z m80
-8 c30 -22 -3 -72 -47 -72 -20 0 -23 17 -8 54 9 25 34 33 55 18z m-20 -122 c0
-29 -5 -36 -28 -44 -38 -14 -49 0 -36 47 9 33 14 38 37 35 24 -3 27 -7 27 -38z"/>
<path d="M8625 5828 c-30 -23 -55 -74 -55 -110 1 -62 83 -99 130 -59 l25 21
-30 -15 c-40 -20 -48 -19 -78 9 -21 20 -25 31 -21 62 5 45 30 83 65 101 16 9
19 13 8 13 -9 0 -29 -10 -44 -22z"/>
<path d="M7433 5833 c9 -2 25 -2 35 0 9 3 1 5 -18 5 -19 0 -27 -2 -17 -5z"/>
<path d="M7625 5830 c4 -6 11 -8 16 -5 14 9 11 15 -7 15 -8 0 -12 -5 -9 -10z"/>
<path d="M1530 5788 c0 -4 35 -7 78 -7 85 1 80 6 -15 12 -35 2 -63 0 -63 -5z"/>
<path d="M2466 5773 c13 -14 28 -23 32 -19 4 4 -4 16 -17 27 -34 28 -44 23
-15 -8z"/>
<path d="M7446 5775 c18 -28 24 -31 24 -12 0 7 -9 18 -20 25 -20 12 -21 12 -4
-13z"/>
<path d="M7590 5775 c-28 -30 -18 -33 16 -6 14 11 21 22 16 25 -5 3 -20 -6
-32 -19z"/>
<path d="M3798 5783 c23 -2 59 -2 80 0 20 2 1 4 -43 4 -44 0 -61 -2 -37 -4z"/>
<path d="M6130 5773 c0 -12 127 -15 135 -3 4 6 -18 10 -64 10 -39 0 -71 -3
-71 -7z"/>
<path d="M7033 5764 c-3 -8 1 -23 10 -31 17 -17 47 -11 47 9 0 10 -3 9 -9 -1
-11 -18 -41 -7 -41 15 0 12 7 15 25 12 14 -3 25 -1 25 3 0 16 -50 9 -57 -7z"/>
<path d="M9047 5763 c-12 -11 -7 -40 8 -53 12 -10 19 -10 27 -2 9 9 7 12 -10
12 -12 0 -22 6 -22 14 0 25 22 30 38 10 14 -18 14 -18 8 -1 -3 10 -6 21 -6 23
0 7 -36 5 -43 -3z"/>
<path d="M1545 5730 c28 -12 115 -12 115 0 0 6 -29 10 -67 9 -47 0 -62 -3 -48
-9z"/>
<path d="M3762 5725 c7 -7 138 -8 145 -1 4 3 -29 6 -72 6 -43 0 -76 -2 -73 -5z"/>
<path d="M7480 5720 c0 -5 -18 -19 -40 -30 -22 -11 -40 -25 -40 -30 0 -18 7
-14 79 47 14 12 20 23 14 23 -7 0 -13 -4 -13 -10z"/>
<path d="M4700 5712 c0 -6 -14 -27 -31 -47 -17 -19 -27 -35 -21 -35 13 0 66
79 58 87 -3 3 -6 1 -6 -5z"/>
<path d="M6136 5710 c28 -11 134 -11 134 0 0 6 -34 10 -77 9 -52 0 -71 -3 -57
-9z"/>
<path d="M8195 5670 c-18 -19 -17 -20 3 -20 15 0 20 6 19 20 -1 11 -2 20 -3
20 0 0 -9 -9 -19 -20z"/>
<path d="M4725 5645 c-16 -8 -23 -14 -14 -15 8 0 24 7 35 15 23 18 18 18 -21
0z"/>
<path d="M10400 5123 c-20 -8 -60 -44 -72 -67 -19 -35 -18 -71 2 -103 17 -29
25 -33 63 -33 32 0 49 6 63 22 l19 21 -27 -17 c-36 -23 -77 -17 -100 15 -17
22 -18 31 -9 67 21 78 111 121 136 65 13 -30 25 -29 25 1 0 18 -7 25 -31 30
-36 7 -48 7 -69 -1z"/>
<path d="M1952 5062 c-7 -15 -25 -56 -39 -92 -14 -36 -31 -68 -37 -72 -15 -10
0 -22 19 -15 8 4 15 18 15 33 0 17 6 28 20 31 22 6 26 19 8 25 -10 4 -10 10
-1 31 7 15 17 27 23 27 13 0 32 -48 24 -62 -3 -5 2 -15 12 -22 11 -8 15 -21
12 -34 -6 -23 20 -36 43 -21 8 5 9 9 3 9 -6 0 -26 40 -43 90 -18 49 -36 92
-39 94 -4 2 -13 -8 -20 -22z"/>
<path d="M2988 5071 c-33 -27 -38 -126 -8 -163 12 -16 30 -28 40 -28 10 0 28
12 40 28 19 23 21 36 17 85 -3 32 -10 64 -16 71 -19 23 -50 25 -73 7z m62 -25
c12 -32 5 -122 -10 -141 -30 -36 -54 -2 -54 75 0 19 3 47 7 63 9 35 44 37 57
3z"/>
<path d="M2859 5068 c-49 -41 -67 -111 -39 -155 24 -40 61 -44 84 -11 33 47
13 108 -35 108 -28 0 -29 2 -18 23 7 12 19 27 28 34 9 7 11 13 5 13 -5 0 -17
-6 -25 -12z m35 -94 c14 -37 0 -84 -25 -84 -28 0 -53 73 -32 93 12 13 51 7 57
-9z"/>
<path d="M3127 5073 c-16 -15 -6 -63 14 -74 18 -9 25 -7 42 9 29 30 17 72 -22
72 -15 0 -31 -3 -34 -7z m61 -29 c3 -23 -18 -37 -43 -28 -16 6 -20 35 -8 48
14 14 48 1 51 -20z"/>
<path d="M11240 5068 c-52 -4 -124 -14 -160 -22 -36 -8 -81 -18 -100 -21 -49
-9 -283 -76 -295 -85 -5 -3 -32 -15 -60 -25 -96 -35 -340 -160 -421 -217 -21
-16 -57 -40 -79 -54 -54 -36 -189 -149 -250 -211 -147 -148 -224 -241 -336
-409 -85 -126 -123 -200 -209 -404 -22 -53 -73 -221 -90 -300 -7 -30 -19 -78
-26 -106 -34 -129 -43 -600 -14 -749 55 -283 129 -508 232 -703 21 -39 38 -81
38 -92 0 -11 -14 -64 -30 -117 -17 -54 -47 -150 -66 -213 -20 -63 -44 -140
-54 -170 -10 -30 -32 -102 -50 -160 -17 -58 -40 -132 -51 -165 -26 -76 -54
-194 -47 -200 6 -7 81 -13 238 -20 172 -8 308 -14 435 -20 55 -3 152 -7 215
-10 63 -3 180 -10 260 -15 80 -5 197 -12 260 -15 63 -3 162 -8 220 -10 58 -3
192 -10 297 -15 106 -6 196 -9 200 -8 5 1 37 -1 73 -5 36 -4 121 -9 190 -12
69 -3 211 -10 315 -15 105 -5 253 -12 330 -15 77 -4 158 -8 180 -10 22 -3 220
-13 440 -24 541 -27 596 -30 700 -37 50 -3 101 -7 114 -8 13 0 26 4 28 11 6
16 -51 21 -362 33 -143 6 -287 13 -320 15 -33 3 -152 10 -265 15 -497 24 -628
30 -680 35 -30 2 -125 7 -210 11 -169 8 -223 17 -155 28 280 43 425 79 615
149 59 22 168 75 180 87 3 3 31 18 62 34 31 15 62 34 69 42 6 8 16 14 22 14
11 0 162 100 192 127 11 10 36 30 55 44 49 37 207 186 245 230 42 51 142 180
175 228 19 28 43 62 52 75 73 100 228 461 276 646 68 256 76 323 76 590 -1
232 -2 253 -31 395 -35 170 -60 264 -104 380 -81 214 -165 375 -296 565 -89
129 -284 335 -400 421 -32 24 -72 54 -88 66 -39 29 -237 154 -295 185 -135 74
-376 158 -570 199 -205 43 -442 56 -670 37z m450 -22 c8 -3 63 -12 122 -21 58
-8 142 -24 185 -35 43 -12 88 -23 99 -26 30 -6 216 -74 229 -83 5 -4 33 -16
60 -26 28 -10 52 -21 55 -24 3 -4 29 -17 58 -30 28 -14 52 -28 52 -33 0 -4 5
-8 11 -8 14 0 160 -96 274 -181 88 -66 243 -215 305 -294 18 -22 35 -42 38
-45 21 -16 162 -220 162 -234 0 -3 12 -22 26 -43 22 -32 66 -120 139 -278 65
-139 127 -365 155 -565 21 -154 28 -296 13 -293 -12 2 -163 94 -263 158 -83
54 -238 152 -293 186 -23 15 -76 49 -117 75 -41 27 -112 71 -157 99 -45 27
-115 70 -155 95 -40 24 -122 76 -183 116 -119 77 -381 241 -430 268 -16 9 -42
24 -58 34 -50 31 -488 307 -515 324 -15 10 -34 21 -42 25 -14 7 -62 37 -103
66 -9 6 -39 24 -65 39 -69 39 -107 62 -209 126 -50 31 -131 81 -180 111 -48
30 -89 58 -91 63 -2 4 -8 8 -14 8 -5 0 -35 17 -66 37 -31 20 -84 54 -117 75
-33 21 -64 41 -70 46 -5 4 -23 13 -38 20 -48 21 -37 31 73 77 36 15 79 33 95
40 36 16 249 79 320 94 28 6 104 18 170 27 66 9 122 17 124 19 6 6 384 -2 401
-9z m-1245 -253 c-3 -10 -22 -70 -42 -133 -69 -225 -92 -298 -158 -505 -62
-197 -100 -320 -162 -525 -14 -47 -33 -110 -43 -140 -10 -30 -37 -120 -60
-200 -43 -150 -82 -276 -105 -345 -8 -22 -46 -146 -85 -275 -40 -129 -94 -305
-122 -390 -27 -85 -63 -200 -80 -255 -72 -230 -97 -300 -106 -303 -5 -1 -23
25 -40 60 -52 109 -92 197 -92 204 0 3 -6 20 -14 37 -32 72 -82 256 -103 377
-30 180 -33 211 -33 400 0 172 4 216 30 370 31 176 32 183 43 210 3 8 13 43
22 77 58 232 225 545 406 758 133 158 361 374 436 413 12 7 28 18 35 24 20 19
76 58 83 58 3 0 32 16 63 37 56 35 109 62 126 63 4 0 5 -8 1 -17z m101 -38
c33 -19 64 -38 69 -42 19 -16 60 -40 70 -43 6 -1 12 -5 15 -10 3 -4 59 -41
125 -82 169 -104 240 -148 294 -183 25 -17 60 -37 76 -45 17 -8 35 -19 40 -23
21 -17 191 -123 293 -184 20 -12 44 -27 52 -32 55 -38 94 -63 118 -75 15 -8
38 -24 51 -35 13 -12 29 -21 36 -21 6 0 20 -9 32 -19 11 -11 39 -29 62 -40 22
-12 74 -43 115 -69 41 -26 116 -72 167 -102 50 -30 119 -73 153 -95 34 -22
122 -78 196 -125 74 -46 140 -88 145 -92 20 -17 87 -59 127 -81 43 -23 48 -27
115 -70 24 -15 45 -27 48 -27 3 0 42 -24 88 -53 45 -30 123 -80 174 -112 l92
-59 -38 -41 c-42 -46 -81 -136 -88 -205 -6 -55 20 -160 52 -216 13 -23 40 -55
60 -72 19 -17 35 -34 35 -38 0 -8 -311 -314 -470 -464 -62 -58 -200 -192 -309
-299 -108 -106 -230 -225 -271 -264 -41 -39 -123 -116 -181 -171 -58 -56 -168
-160 -245 -232 -76 -73 -181 -173 -232 -223 -51 -50 -94 -91 -96 -91 -1 0 -39
-36 -83 -81 l-80 -80 -49 6 c-27 3 -67 7 -89 9 -232 24 -497 95 -685 183 -171
79 -197 93 -304 163 -128 84 -141 93 -201 143 -86 72 -308 298 -345 351 -17
25 -35 46 -40 46 -6 0 -10 6 -10 13 0 6 -10 23 -21 37 -26 33 -69 97 -92 138
-19 36 -17 46 37 212 8 25 22 68 31 95 9 28 27 91 41 140 14 50 29 95 34 100
4 6 19 53 34 105 15 52 51 172 81 265 29 94 74 238 100 320 25 83 62 202 81
265 20 63 42 140 50 170 13 48 50 168 139 450 13 41 38 122 55 180 17 58 42
139 55 180 56 175 85 271 115 370 17 58 38 119 45 135 8 17 21 58 31 93 9 34
22 62 29 62 7 0 39 -16 71 -35z m2944 -1841 c106 -64 170 -108 170 -118 0 -5
-46 -54 -102 -108 -57 -54 -129 -124 -161 -155 l-58 -57 -45 45 c-135 132
-138 333 -6 481 l24 26 67 -44 c36 -24 86 -56 111 -70z m185 -231 c-10 -130
-14 -165 -25 -243 -33 -232 -189 -645 -307 -813 -18 -26 -33 -49 -33 -52 0 -5
-109 -161 -136 -194 -156 -191 -352 -360 -576 -498 -66 -41 -258 -136 -329
-163 -30 -11 -63 -25 -74 -30 -62 -29 -301 -85 -422 -99 -48 -6 -117 -15 -153
-21 -69 -10 -213 -14 -222 -5 -7 7 245 255 527 520 18 17 95 89 171 160 143
135 196 185 474 458 91 89 230 225 310 301 204 196 739 717 759 739 8 9 22 17
29 17 11 0 13 -15 7 -77z m-4154 -1080 c13 -21 25 -40 28 -43 4 -3 22 -27 41
-55 105 -152 307 -366 454 -480 22 -16 51 -39 65 -51 39 -31 137 -94 146 -94
5 0 16 -6 24 -14 30 -25 314 -166 337 -166 3 0 20 -6 37 -14 53 -23 218 -73
287 -86 78 -15 109 -29 65 -30 -16 0 -165 7 -330 15 -165 8 -446 22 -625 30
-179 8 -350 17 -380 20 -30 3 -149 10 -264 15 -115 6 -211 12 -214 14 -5 6 18
107 28 121 4 6 10 19 13 30 3 11 21 74 41 140 20 66 48 158 62 205 14 47 34
110 44 140 28 84 88 282 96 313 8 36 18 34 45 -10z"/>
<path d="M12489 4083 c-13 -16 -12 -17 4 -4 16 13 21 21 13 21 -2 0 -10 -8
-17 -17z"/>
<path d="M2100 4894 c0 -9 5 -14 12 -12 18 6 21 28 4 28 -9 0 -16 -7 -16 -16z"/>
<path d="M1878 4353 c8 -3 12 -32 12 -93 0 -74 -3 -91 -17 -99 -14 -8 -1 -10
50 -11 54 0 71 4 87 20 20 20 27 60 13 74 -5 4 -8 26 -8 49 0 50 -25 67 -100
66 -27 0 -44 -3 -37 -6z m100 -21 c14 -13 19 -26 15 -40 -4 -18 -13 -22 -44
-22 -35 0 -39 3 -39 24 0 57 28 72 68 38z m24 -104 c5 -34 -18 -58 -54 -58
-27 0 -38 16 -38 55 0 26 9 31 56 31 28 0 33 -4 36 -28z"/>
<path d="M2839 4321 c-31 -31 -39 -46 -39 -75 0 -93 71 -132 105 -59 16 33 16
40 4 63 -9 15 -25 26 -42 28 -37 5 -32 29 12 59 23 16 28 23 16 23 -9 0 -35
-17 -56 -39z m51 -105 c0 -43 -24 -66 -46 -44 -19 19 -21 77 -4 88 24 15 50
-8 50 -44z"/>
<path d="M3030 4350 c0 -13 11 -13 30 0 12 8 11 10 -7 10 -13 0 -23 -4 -23
-10z"/>
<path d="M3120 4341 c-16 -30 -12 -48 13 -66 21 -15 23 -14 44 10 22 25 22 52
-1 67 -20 14 -45 8 -56 -11z m58 -28 c3 -19 -1 -23 -22 -23 -29 0 -39 11 -30
35 10 24 48 15 52 -12z"/>
<path d="M2992 4322 c-31 -31 -41 -60 -36 -102 11 -95 114 -90 114 5 0 38 -16
55 -52 55 -32 0 -35 6 -12 31 25 28 12 37 -14 11z m43 -68 c20 -21 16 -73 -7
-88 -34 -21 -66 62 -36 92 16 16 23 15 43 -4z"/>
<path d="M2080 4164 c0 -9 5 -14 12 -12 18 6 21 28 4 28 -9 0 -16 -7 -16 -16z"/>
<path d="M1901 3601 c-30 -24 -34 -34 -35 -75 -1 -42 3 -51 32 -77 45 -40 109
-37 126 6 4 13 0 12 -20 -4 -33 -26 -45 -26 -76 -1 -70 55 -21 194 56 159 13
-6 29 -21 34 -33 10 -19 11 -19 11 10 1 27 -3 32 -30 38 -50 10 -62 7 -98 -23z"/>
<path d="M2822 3620 c-4 -3 -14 -14 -22 -24 -14 -18 -14 -19 7 -8 31 17 83 15
83 -2 0 -7 -11 -44 -25 -80 -25 -66 -31 -96 -18 -82 14 14 70 196 62 201 -10
7 -77 3 -87 -5z"/>
<path d="M2965 3610 c-10 -11 -15 -23 -12 -27 4 -3 7 -1 7 6 0 8 12 11 32 9
55 -5 51 -64 -7 -122 -19 -20 -35 -39 -35 -44 0 -5 22 -9 49 -11 42 -2 52 1
61 19 10 19 9 21 -7 13 -10 -5 -25 -8 -33 -7 -8 1 -21 2 -29 3 -11 1 -7 9 11
29 63 68 74 110 36 136 -30 21 -51 20 -73 -4z"/>
<path d="M3122 3618 c-28 -28 -8 -82 28 -76 33 5 47 31 32 62 -12 28 -40 34
-60 14z m55 -24 c4 -11 -1 -22 -12 -31 -16 -11 -21 -11 -33 1 -8 8 -12 22 -9
30 8 21 46 21 54 0z"/>
<path d="M2077 3444 c-8 -8 1 -24 14 -24 5 0 9 7 9 15 0 15 -12 20 -23 9z"/>
<path d="M1863 2889 c14 -8 17 -25 17 -94 0 -71 -3 -84 -17 -88 -10 -3 10 -5
44 -6 34 0 72 3 85 8 36 14 62 70 54 115 -10 53 -52 76 -136 76 -49 -1 -61 -3
-47 -11z m137 -29 c49 -49 9 -150 -60 -150 l-30 0 0 85 0 85 35 0 c22 0 43 -8
55 -20z"/>
<path d="M2800 2881 c-14 -26 -13 -36 3 -24 16 14 63 22 76 13 7 -4 1 -34 -18
-88 -16 -45 -25 -82 -21 -82 5 0 11 10 15 23 3 12 10 31 15 42 12 28 40 117
40 127 0 4 -22 8 -50 8 -38 0 -52 -4 -60 -19z"/>
<path d="M2972 2888 c-15 -15 -15 -43 -1 -69 8 -16 7 -26 -6 -46 -14 -20 -15
-31 -6 -49 11 -24 20 -28 56 -24 46 5 61 54 27 88 -18 18 -18 19 0 42 22 27
22 34 2 54 -18 19 -55 21 -72 4z m57 -15 c10 -19 -2 -53 -20 -53 -5 0 -15 12
-21 26 -10 21 -9 27 3 35 20 13 27 11 38 -8z m-6 -115 c17 -36 10 -52 -19 -46
-19 3 -30 38 -20 64 9 23 22 16 39 -18z"/>
<path d="M3110 2879 c-9 -16 -8 -26 5 -45 18 -28 37 -31 59 -8 19 18 20 28 6
55 -14 26 -56 25 -70 -2z m60 -24 c0 -20 -5 -25 -24 -25 -24 0 -41 23 -30 41
3 5 16 9 30 9 19 0 24 -5 24 -25z"/>
<path d="M13830 2858 c0 -13 -9 -57 -20 -98 -11 -41 -20 -76 -20 -77 -1 -12
82 1 108 17 34 21 39 39 20 70 -10 15 -9 22 5 38 21 23 22 58 1 66 -9 3 -33 6
-55 6 -34 0 -39 -3 -39 -22z m88 -14 c4 -27 -20 -46 -51 -42 -21 3 -23 6 -15
36 8 29 13 33 36 30 18 -2 28 -10 30 -24z m-30 -70 c33 -23 28 -52 -12 -69
-53 -22 -65 -13 -53 40 11 49 27 56 65 29z"/>
<path d="M2090 2710 c0 -5 7 -10 15 -10 8 0 15 5 15 10 0 6 -7 10 -15 10 -8 0
-15 -4 -15 -10z"/>
<path d="M9209 1731 c12 -8 11 -22 -9 -93 -13 -45 -29 -88 -36 -93 -9 -8 -3
-11 22 -11 33 0 46 10 22 18 -8 3 -5 27 12 86 23 80 24 82 55 82 62 0 84 -62
44 -126 -12 -20 -32 -36 -47 -40 -45 -10 -48 -12 -15 -13 95 -3 143 149 58
185 -38 16 -130 20 -106 5z"/>
<path d="M8926 628 c-8 -66 -29 -127 -47 -139 -9 -5 15 -9 63 -9 66 0 79 3 88
19 15 30 12 33 -10 11 -13 -13 -33 -20 -60 -20 -44 0 -50 13 -30 64 11 30 26
33 53 9 16 -14 19 -15 15 -3 -2 8 -16 21 -31 28 -24 12 -25 15 -15 40 7 15 16
33 21 40 7 9 3 12 -15 12 -23 0 -26 -5 -32 -52z"/>
<path d="M9012 667 c15 -6 29 -18 31 -26 3 -10 5 -7 6 7 0 12 -2 22 -6 23 -5
0 -19 2 -33 4 -24 3 -24 3 2 -8z"/>
<path d="M8995 600 c-3 -5 -1 -10 4 -10 6 0 11 5 11 10 0 6 -2 10 -4 10 -3 0
-8 -4 -11 -10z"/>
<path d="M13836 454 c-9 -25 -7 -25 20 -8 15 10 29 13 34 8 14 -14 -30 -172
-49 -177 -9 -3 -2 -5 16 -6 26 -1 30 2 26 18 -5 20 32 148 48 165 5 5 19 2 33
-8 25 -16 26 -16 26 3 0 18 -7 20 -74 20 -57 0 -76 -4 -80 -15z"/>
<path d="M11333 431 c-10 -16 -46 -64 -81 -105 -58 -71 -60 -76 -37 -76 18 0
23 4 18 15 -8 23 26 55 59 55 23 0 28 -4 28 -25 0 -13 -8 -29 -17 -34 -14 -8
-10 -10 19 -9 31 1 36 4 27 15 -11 12 -8 65 7 161 6 40 1 40 -23 3z m-7 -63
c-3 -13 -5 -26 -5 -30 -1 -13 -41 -9 -41 4 0 14 30 48 41 48 5 0 7 -10 5 -22z"/>
</g>
</svg>
