<?xml version="1.0" standalone="no"?>
<!DOCTYPE svg PUBLIC "-//W3C//DTD SVG 20010904//EN"
 "http://www.w3.org/TR/2001/REC-SVG-20010904/DTD/svg10.dtd">
<svg version="1.0" xmlns="http://www.w3.org/2000/svg"
 width="1431.000000pt" height="698.000000pt" viewBox="0 0 1431.000000 698.000000"
 preserveAspectRatio="xMidYMid meet">
<metadata>
Created by potrace 1.16, written by Peter Selinger 2001-2019
</metadata>
<g transform="translate(0.000000,698.000000) scale(0.100000,-0.100000)"
fill="#000000" stroke="none">
<path d="M3339 6794 c-1 -10 -1 -22 0 -26 0 -5 -6 -8 -14 -8 -8 0 -15 6 -15
14 0 8 -3 17 -7 19 -5 3 -8 -6 -8 -19 0 -13 6 -24 13 -24 7 0 12 -12 12 -28
l0 -28 66 4 c64 4 66 4 62 -19 -3 -22 -8 -24 -57 -24 -32 0 -60 6 -68 13 -9 9
-13 10 -13 2 0 -6 -14 -32 -31 -56 -17 -25 -29 -47 -26 -50 2 -2 16 14 31 36
l26 40 91 0 91 0 -7 -32 c-10 -45 -12 -48 -43 -49 -26 0 -27 -1 -5 -11 30 -14
49 2 58 48 3 20 9 43 12 51 5 13 2 15 -15 11 -19 -5 -22 -2 -22 23 0 22 -5 29
-20 29 -17 0 -19 5 -14 25 4 15 2 25 -5 25 -6 0 -11 -11 -11 -25 0 -22 -4 -25
-40 -25 -28 0 -40 4 -40 14 0 8 4 17 8 20 9 5 8 53 -1 63 -4 3 -8 -2 -8 -13z"/>
<path d="M1104 6792 l-112 -3 -5 -27 c-5 -28 2 -174 9 -181 2 -2 4 41 4 97 l0
102 25 0 c21 0 25 -5 25 -30 0 -23 4 -30 20 -30 38 0 20 -19 -22 -23 -24 -2 1
-4 55 -5 58 -1 97 2 97 8 0 6 -18 7 -45 3 -29 -4 -45 -2 -45 5 0 6 10 12 23
14 14 2 23 11 25 25 3 21 1 22 -41 17 -29 -4 -47 -2 -52 5 -5 9 14 11 72 9
l78 -3 -1 -105 0 -105 -117 0 c-94 0 -117 -3 -117 -14 0 -11 20 -13 114 -8 83
4 116 2 119 -6 11 -30 16 9 18 128 1 71 -3 130 -7 130 -5 0 -59 -1 -120 -3z
m41 -52 c-3 -5 -22 -10 -41 -10 -19 0 -34 5 -34 10 0 6 18 10 41 10 24 0 38
-4 34 -10z"/>
<path d="M1429 6768 c-1 -18 0 -50 1 -72 1 -23 -4 -42 -12 -47 -10 -7 -10 -9
0 -9 8 0 12 -18 12 -55 0 -30 5 -55 10 -55 6 0 10 21 11 48 0 26 1 86 2 135 2
64 -1 87 -10 87 -8 0 -13 -14 -14 -32z"/>
<path d="M4160 6789 c-8 -5 -64 -10 -125 -11 -80 -1 -91 -3 -42 -5 l67 -4 0
-97 c0 -63 -4 -102 -12 -110 -9 -9 -8 -12 8 -12 18 0 19 7 17 110 l-3 110 55
0 c29 0 56 4 60 9 8 14 -9 21 -25 10z"/>
<path d="M4630 6795 c0 -18 19 -40 26 -32 4 4 0 15 -9 24 -9 10 -17 13 -17 8z"/>
<path d="M4729 6790 c-23 -4 -25 -9 -24 -48 1 -24 -3 -45 -7 -48 -17 -11 -7
-22 15 -16 21 5 21 4 5 -15 -23 -25 -23 -33 2 -33 26 0 25 -14 -2 -41 -24 -23
-5 -16 24 8 18 16 74 14 71 -2 -1 -5 -12 -13 -25 -17 -16 -4 -18 -6 -5 -7 9
-1 17 -6 17 -12 0 -8 -16 -9 -52 -5 -102 13 -99 12 -92 68 5 35 3 52 -6 58 -9
6 -9 12 -1 29 11 20 9 21 -21 20 -23 -1 -26 -3 -11 -6 19 -4 21 -8 13 -29 -13
-33 -13 -34 5 -34 24 0 18 -48 -11 -77 -26 -26 -26 -46 0 -24 11 9 23 8 53 -4
57 -24 153 -30 178 -11 19 15 19 15 -9 16 -23 0 -27 3 -21 18 4 9 10 25 12 35
3 9 9 17 14 17 5 0 9 4 9 8 0 5 -14 7 -30 4 -17 -2 -37 1 -45 8 -10 9 -15 9
-15 1 0 -6 -12 -11 -27 -11 -25 0 -26 0 -8 20 21 24 51 26 59 5 3 -8 12 -15
21 -15 18 0 20 16 3 23 -7 3 3 6 22 6 26 1 31 4 22 13 -7 7 -12 31 -12 55 0
32 -4 43 -16 43 -8 0 -13 -4 -10 -9 8 -12 -35 -19 -60 -10 -15 5 -11 8 16 10
l35 4 -30 5 c-16 3 -42 3 -56 0z m74 -47 c-13 -2 -33 -2 -45 0 -13 2 -3 4 22
4 25 0 35 -2 23 -4z m-40 -20 c-7 -2 -19 -2 -25 0 -7 3 -2 5 12 5 14 0 19 -2
13 -5z m50 0 c-7 -2 -19 -2 -25 0 -7 3 -2 5 12 5 14 0 19 -2 13 -5z m-47 -20
c-10 -10 -46 -11 -46 -1 0 4 12 8 27 8 14 0 23 -3 19 -7z m64 -1 c0 -11 -39
-12 -45 -1 -4 5 5 9 19 9 14 0 26 -4 26 -8z m-4 -80 c-5 -8 -66 -4 -66 4 0 2
16 4 36 4 19 0 33 -4 30 -8z"/>
<path d="M5005 6790 c-33 -4 -52 -7 -42 -8 13 -2 17 -11 17 -46 0 -38 -3 -45
-22 -49 l-23 -4 23 -2 c22 -1 23 -4 17 -43 -4 -24 -14 -56 -22 -71 -8 -16 -12
-31 -10 -33 8 -8 36 61 43 104 5 34 11 42 28 42 20 0 21 -4 19 -75 -2 -45 1
-75 7 -75 6 0 10 32 10 75 0 68 2 75 20 75 11 0 20 5 20 10 0 6 -9 10 -20 10
-29 0 -29 69 0 77 11 3 17 9 14 14 -3 5 -8 8 -12 7 -4 -1 -34 -4 -67 -8z m31
-52 c-2 -36 -6 -44 -24 -46 -19 -3 -22 1 -22 36 0 43 5 52 31 52 14 0 17 -8
15 -42z"/>
<path d="M5148 6773 c-14 -16 -34 -34 -44 -41 -16 -10 -15 -11 6 -1 30 14 88
69 74 69 -6 0 -22 -12 -36 -27z"/>
<path d="M6410 6776 c0 -13 -3 -31 -6 -40 -5 -13 1 -16 26 -16 27 0 30 -3 25
-20 -4 -11 -2 -20 4 -20 6 0 11 11 11 25 0 20 -5 25 -26 25 -16 0 -24 5 -21
13 2 6 12 12 22 12 10 0 20 5 22 12 3 7 -3 9 -16 6 -15 -4 -21 -1 -21 11 0 9
-4 16 -10 16 -5 0 -10 -11 -10 -24z"/>
<path d="M7390 6770 c0 -26 -4 -30 -27 -31 -28 0 -28 0 -5 -10 26 -10 24 -30
-10 -86 -11 -18 -17 -33 -14 -33 4 0 15 14 26 32 l19 31 7 -26 c3 -15 3 -47 0
-72 -5 -29 -4 -45 3 -45 7 0 11 29 11 75 0 74 9 92 29 58 6 -10 11 -14 11 -9
0 6 -12 22 -27 38 -27 28 -26 31 22 41 14 3 11 5 -9 6 -26 1 -28 3 -22 31 3
17 1 30 -4 30 -6 0 -10 -13 -10 -30z"/>
<path d="M7790 6783 c11 -23 10 -23 -57 -25 -49 -1 -56 -3 -25 -5 23 -2 42 -8
42 -12 0 -5 -18 -25 -40 -45 -22 -20 -37 -36 -32 -36 15 0 82 62 82 76 0 10
14 14 53 15 28 1 41 4 28 6 -13 3 -33 15 -43 26 l-19 22 11 -22z"/>
<path d="M8046 6778 c5 -24 3 -28 -17 -29 -19 -1 -20 -2 -5 -6 17 -5 18 -12
13 -74 -3 -39 -13 -83 -21 -99 -8 -17 -10 -30 -6 -30 10 0 40 92 40 122 0 11
7 18 20 18 17 0 20 -7 20 -52 0 -60 -6 -74 -35 -80 -19 -5 -19 -5 -2 -13 29
-12 44 14 50 88 l5 67 -29 0 c-24 0 -29 4 -29 25 0 22 4 25 43 27 36 1 38 2
10 5 -18 2 -33 8 -33 12 0 4 -7 16 -15 27 -15 18 -15 18 -9 -8z"/>
<path d="M8164 6744 c-39 -82 -40 -86 -4 -31 l31 49 23 -25 c13 -14 26 -32 29
-41 4 -9 11 -16 17 -16 6 0 1 14 -12 31 -13 17 -30 45 -39 61 l-16 31 -29 -59z"/>
<path d="M8539 6798 c-2 -4 -7 -80 -8 -115 -1 -26 -5 -33 -21 -33 -11 0 -20
-7 -20 -15 0 -10 -11 -15 -35 -15 -24 0 -35 5 -35 15 0 9 9 15 25 15 14 0 25
5 25 10 0 6 -11 8 -25 4 -19 -5 -25 -2 -25 10 0 10 9 16 25 16 23 0 25 3 25
50 l0 50 -60 0 -60 0 0 -50 c0 -47 2 -50 25 -50 34 0 32 -28 -2 -33 l-28 -4
28 -2 c40 -2 36 -31 -5 -33 -18 -1 1 -4 42 -7 l75 -6 3 -38 c2 -24 7 -35 14
-31 6 4 31 8 55 8 l45 1 2 53 c1 51 1 52 -26 52 -25 0 -28 3 -28 35 0 30 3 35
24 35 14 0 28 4 31 10 4 6 -6 7 -26 3 -31 -6 -32 -6 -27 30 2 21 0 37 -4 37
-4 0 -9 -1 -9 -2z m-135 -34 c3 -9 6 -27 6 -40 0 -19 -5 -24 -25 -24 -18 0
-25 5 -25 20 0 22 15 27 23 8 4 -8 6 -9 6 -2 1 6 -6 17 -14 24 -8 7 -15 16
-15 21 0 16 38 10 44 -7z m56 -30 c0 -27 -4 -34 -19 -34 -16 0 -20 7 -19 33 1
40 5 48 23 40 9 -3 15 -18 15 -39z m130 -134 l0 -40 -45 0 -45 0 0 40 0 40 45
0 45 0 0 -40z"/>
<path d="M8430 6750 c0 -5 5 -10 10 -10 6 0 10 5 10 10 0 6 -4 10 -10 10 -5 0
-10 -4 -10 -10z"/>
<path d="M10145 6678 l0 -123 -30 -5 -30 -6 30 -6 c18 -4 33 -2 37 5 10 16 10
257 1 257 -5 0 -8 -55 -8 -122z"/>
<path d="M10286 6752 c-11 -26 -26 -55 -34 -65 -8 -9 -12 -20 -9 -24 4 -3 7
-1 7 5 0 7 6 12 13 12 9 0 13 -21 14 -76 2 -110 13 -104 14 7 0 91 5 150 11
153 2 1 40 0 86 -2 l82 -4 0 -104 0 -104 -32 -1 -33 -1 30 -9 c16 -4 33 -5 36
-1 4 4 9 54 12 112 3 58 6 106 6 108 1 1 8 2 16 2 8 0 15 4 15 9 0 5 -41 6
-90 3 -73 -4 -94 -2 -108 11 -16 15 -19 13 -36 -31z"/>
<path d="M10698 6783 c-1 -10 -2 -25 -4 -33 -1 -8 -2 -20 -3 -27 -1 -7 -23
-13 -58 -16 -55 -3 -54 -3 16 -5 73 -2 74 -2 56 -22 -10 -11 -25 -22 -34 -25
-13 -4 -15 -16 -13 -62 l4 -58 73 0 73 0 4 60 c2 33 4 60 3 61 0 0 -25 -2 -55
-6 l-55 -7 48 -2 c40 -1 48 -4 45 -18 -2 -14 -13 -17 -48 -16 l-45 1 42 -7
c49 -8 58 -14 50 -36 -9 -21 -115 -22 -123 0 -3 8 -2 20 2 27 5 7 7 21 6 31
-2 9 2 17 7 17 6 0 11 6 11 14 0 24 47 46 100 46 30 0 50 4 50 11 0 7 -10 9
-25 5 -41 -10 -47 3 -19 40 36 47 19 43 -23 -6 -38 -43 -73 -53 -73 -20 0 15
7 20 25 20 14 0 25 5 25 10 0 6 -11 8 -27 4 -23 -6 -25 -4 -20 15 3 11 1 21
-4 21 -5 0 -10 -8 -11 -17z"/>
<path d="M11430 6780 c-9 -16 -15 -18 -30 -10 -12 7 -20 7 -20 1 0 -5 -3 -18
-6 -28 -5 -17 -5 -17 8 -1 9 11 19 14 28 8 11 -7 8 -16 -14 -44 -26 -35 -46
-46 -46 -26 0 6 -4 10 -10 10 -5 0 -9 -8 -8 -17 4 -58 -3 -103 -17 -103 -11 0
-15 12 -16 43 -1 23 0 47 1 52 2 6 2 19 1 30 -3 46 8 65 39 65 17 0 30 5 30
10 0 6 -25 10 -56 10 -34 0 -53 -4 -49 -10 3 -5 13 -10 21 -10 16 0 14 -14
-12 -79 -17 -40 -17 -44 -4 -36 6 4 10 -14 10 -45 0 -43 3 -51 16 -46 9 3 24
6 35 6 16 0 19 7 19 43 0 40 13 67 32 67 4 0 8 -32 8 -71 0 -61 2 -70 16 -65
9 3 40 6 70 6 32 0 54 4 54 11 0 7 -11 8 -30 4 -26 -6 -30 -4 -30 14 0 16 6
21 25 21 14 0 25 5 25 11 0 7 -10 9 -25 5 -20 -5 -25 -3 -25 14 0 15 7 20 25
20 14 0 25 5 25 10 0 6 -11 8 -25 4 -21 -5 -25 -3 -25 15 0 17 6 21 30 21 17
0 30 5 30 10 0 6 -11 8 -25 4 -18 -4 -27 -1 -31 10 -3 9 -10 16 -15 16 -4 0
-6 -7 -3 -15 5 -11 -1 -15 -20 -15 -24 0 -25 2 -14 25 10 23 20 29 41 26 4 0
7 4 7 9 0 6 -5 10 -11 10 -6 0 -9 7 -5 15 8 22 -12 18 -24 -5z m25 -135 c0
-34 -3 -40 -22 -43 -18 -3 -23 2 -23 17 0 13 7 21 18 22 16 1 16 2 0 6 -10 2
-18 13 -18 24 0 15 6 20 23 17 19 -3 22 -9 22 -43z m3 -72 c-2 -10 -13 -19
-26 -21 -17 -3 -22 2 -22 17 0 16 6 21 26 21 19 0 25 -5 22 -17z"/>
<path d="M4385 6780 c-60 -3 -89 -7 -62 -8 49 -2 51 -5 38 -52 -5 -19 -16 -27
-41 -31 l-35 -6 33 -2 c37 -1 38 -8 16 -74 -14 -42 -19 -46 -52 -50 -20 -2 27
-4 106 -5 79 -1 141 2 138 7 -3 4 -17 6 -31 3 l-26 -5 2 69 2 68 -53 -3 -53
-3 7 32 c3 18 6 36 6 41 0 5 32 9 70 9 40 0 70 4 70 10 0 6 -6 9 -12 8 -7 -1
-62 -5 -123 -8z m75 -160 l0 -60 -61 0 c-58 0 -61 1 -56 23 3 12 9 39 12 60 7
37 7 37 56 37 l49 0 0 -60z"/>
<path d="M6338 6783 c-15 -4 -18 -17 -18 -84 0 -68 -2 -79 -17 -81 -10 -1 38
-4 107 -7 69 -4 134 -3 145 1 11 4 15 7 9 7 -17 1 -21 38 -14 105 3 31 4 58 1
60 -3 1 -19 -1 -36 -5 -30 -7 -30 -7 -3 -8 24 -1 26 -4 25 -47 0 -37 -4 -47
-21 -54 -17 -7 -18 -9 -3 -9 10 -1 17 -9 17 -21 0 -17 -7 -20 -39 -20 -36 0
-38 2 -35 28 2 15 1 19 -2 10 -3 -10 -12 -18 -20 -18 -8 0 -12 -4 -9 -10 7
-11 -77 -15 -88 -4 -11 12 5 34 26 34 11 0 17 3 13 7 -4 4 -15 8 -24 8 -28 0
-21 38 8 46 25 7 25 7 -3 8 -36 1 -34 29 3 48 24 12 13 15 -22 6z"/>
<path d="M7528 6782 c-36 -2 -58 -8 -59 -15 -6 -76 -5 -237 2 -237 5 0 9 5 9
10 0 15 87 12 93 -2 2 -7 6 46 9 117 3 72 5 130 4 130 0 0 -27 -1 -58 -3z m45
-24 c10 -33 -5 -48 -49 -48 -42 0 -44 1 -44 30 0 29 2 30 44 30 27 0 46 -5 49
-12z m-3 -129 l0 -70 -47 3 c-37 2 -47 7 -44 18 2 8 3 39 2 68 l-1 52 45 0 45
0 0 -71z"/>
<path d="M9685 6780 c-83 -4 -105 -7 -62 -8 l68 -2 -2 -121 c-1 -66 1 -123 5
-126 3 -4 6 37 6 91 l0 97 23 -12 c12 -6 34 -23 50 -37 15 -14 27 -22 27 -16
0 11 -57 57 -82 67 -11 4 -18 17 -18 32 0 24 2 25 65 25 37 0 65 4 65 10 0 6
-3 9 -7 8 -5 -1 -66 -5 -138 -8z"/>
<path d="M9970 6780 c-36 -4 -55 -7 -42 -8 30 -3 29 -33 -5 -91 -21 -37 -22
-43 -6 -29 19 17 20 17 41 -5 30 -31 28 -40 -15 -82 -21 -21 -31 -34 -23 -29
26 14 70 57 70 67 0 6 6 18 14 26 8 9 19 33 24 54 l10 37 -32 0 c-39 0 -45 5
-39 31 4 15 14 19 50 19 27 0 42 4 38 10 -3 6 -9 9 -13 8 -4 -1 -36 -4 -72 -8z
m50 -86 c0 -19 -18 -54 -28 -54 -18 1 -54 41 -48 55 8 21 76 21 76 -1z"/>
<path d="M11156 6782 c-2 -4 -56 -7 -119 -7 -64 0 -113 -3 -111 -7 3 -5 32 -8
65 -8 l60 0 -3 -102 -3 -103 -30 0 -30 0 0 78 c0 42 -3 77 -7 77 -4 0 -8 -35
-10 -77 -3 -78 -3 -78 -30 -78 -16 1 -28 -3 -28 -7 0 -4 63 -8 140 -8 81 0
140 4 140 9 0 15 -18 23 -25 11 -7 -11 -48 -13 -82 -4 -19 5 -23 13 -23 48 0
48 7 62 35 69 18 4 18 5 -2 6 -15 1 -25 9 -29 26 -10 42 1 55 48 56 24 0 52 4
62 8 17 7 18 8 3 14 -9 3 -18 3 -21 -1z"/>
<path d="M11683 6778 c-18 -23 -22 -58 -7 -58 8 0 11 6 8 15 -9 21 14 45 42
45 17 0 28 -8 34 -26 11 -27 8 -37 -21 -69 -10 -11 -20 -33 -24 -50 l-7 -30
16 30 c9 17 25 37 36 46 31 27 35 63 9 88 -25 23 -71 28 -86 9z"/>
<path d="M130 6770 c-11 -7 -12 -10 -2 -10 10 0 13 -21 10 -90 l-3 -90 25 0
c14 0 21 4 15 8 -5 4 -10 47 -10 96 0 89 -6 105 -35 86z"/>
<path d="M266 6765 c-22 -22 -28 -49 -17 -79 11 -26 18 -30 59 -26 30 2 28 -9
-9 -47 -36 -39 -22 -45 16 -7 46 46 58 105 29 149 -18 28 -55 33 -78 10z m56
-12 c23 -20 24 -71 2 -80 -36 -14 -62 24 -50 73 7 28 22 31 48 7z"/>
<path d="M2219 6758 c-7 -12 -12 -40 -10 -61 1 -26 -3 -39 -14 -43 -23 -9 -31
4 -17 26 27 43 9 29 -38 -30 -55 -69 -56 -70 -37 -70 7 0 18 14 24 30 9 24 17
30 40 30 38 0 44 -7 33 -36 -9 -22 -7 -24 17 -24 18 0 24 3 17 10 -6 6 -7 42
-2 97 4 48 6 89 4 91 -3 2 -10 -7 -17 -20z"/>
<path d="M2339 6771 c12 -8 11 -15 -3 -50 -9 -23 -16 -51 -16 -64 0 -12 -8
-35 -18 -52 l-19 -30 64 3 c59 3 64 6 79 34 12 22 13 37 6 52 -7 17 -5 27 9
45 17 21 18 26 6 45 -11 16 -26 22 -68 24 -36 1 -49 -1 -40 -7z m81 -16 c20
-24 -3 -65 -35 -65 -26 0 -31 13 -19 58 7 25 36 29 54 7z m-10 -94 c18 -35
-12 -71 -59 -71 -24 0 -28 25 -9 65 14 30 53 34 68 6z"/>
<path d="M2527 6750 c-47 -41 -61 -97 -36 -139 24 -39 61 -49 106 -27 20 9 33
19 30 22 -3 3 -17 -2 -31 -11 -51 -34 -103 14 -91 85 5 29 16 48 43 70 20 16
31 30 25 30 -7 0 -28 -13 -46 -30z"/>
<path d="M2623 6773 c9 -2 17 -13 17 -24 0 -10 5 -19 10 -19 6 0 10 11 10 25
0 21 -5 25 -27 24 -17 -1 -21 -3 -10 -6z"/>
<path d="M2732 6759 c0 -23 -23 -108 -43 -156 -8 -22 -7 -23 51 -23 54 0 64 3
97 33 31 29 36 40 37 80 1 61 -17 79 -87 85 -52 4 -55 3 -55 -19z m102 -10
c42 -33 29 -98 -27 -136 -39 -27 -103 -32 -93 -8 3 9 13 41 22 73 29 100 46
112 98 71z"/>
<path d="M2956 6767 c3 -8 -8 -53 -24 -100 l-29 -87 68 0 c59 0 70 3 79 21 16
28 7 33 -15 9 -12 -13 -31 -20 -57 -20 -42 0 -45 7 -27 59 12 34 29 39 53 15
15 -14 16 -13 16 9 0 20 -4 23 -25 19 -28 -5 -32 9 -15 52 11 31 53 35 82 9
17 -15 18 -15 18 5 0 20 -5 22 -65 22 -50 0 -63 -3 -59 -13z"/>
<path d="M5860 6766 c0 -7 -7 -20 -17 -27 -9 -8 -31 -36 -49 -64 -19 -27 -43
-62 -54 -77 -20 -26 -20 -26 0 -21 11 3 17 10 14 15 -10 17 28 48 59 48 28 0
29 -2 24 -35 -4 -26 -2 -35 9 -35 10 0 14 14 15 53 1 60 6 102 14 135 3 12 1
22 -5 22 -5 0 -10 -6 -10 -14z m-10 -63 c-1 -29 -15 -53 -31 -53 -23 0 -24 17
-2 42 17 18 33 24 33 11z"/>
<path d="M5976 6767 c4 -12 -16 -98 -42 -179 -6 -20 -4 -21 57 -14 73 7 115
38 125 93 9 48 -1 76 -35 96 -36 21 -113 24 -105 4z m108 -29 c36 -52 1 -130
-66 -149 -56 -15 -64 -4 -44 65 30 101 33 106 65 106 20 0 35 -8 45 -22z"/>
<path d="M6870 6762 c-73 -36 -103 -127 -57 -170 32 -31 97 -30 123 1 19 22
19 22 -2 5 -24 -21 -87 -24 -101 -5 -20 25 -23 66 -7 106 12 30 25 43 54 55
47 18 68 13 76 -21 7 -28 13 -25 19 10 4 21 0 25 -26 31 -42 8 -39 8 -79 -12z"/>
<path d="M7046 6757 c3 -8 -8 -53 -24 -100 l-29 -87 68 0 c57 0 70 3 79 19 16
31 12 34 -16 12 -24 -19 -94 -30 -94 -15 0 4 5 24 12 45 9 30 16 39 34 39 13
0 24 -7 26 -17 3 -11 6 -6 9 13 5 30 4 31 -18 21 -31 -14 -38 -4 -27 35 7 25
16 34 36 36 15 2 36 -2 48 -8 16 -9 20 -8 20 5 0 12 -13 15 -65 15 -50 0 -63
-3 -59 -13z"/>
<path d="M7890 6760 c-22 -7 -21 -8 13 -9 23 -1 36 3 32 9 -7 11 -10 11 -45 0z"/>
<path d="M8890 6753 c0 -43 -43 -172 -58 -176 -10 -3 -3 -5 15 -6 25 -1 31 3
27 14 -3 8 -1 30 6 50 10 29 16 35 41 35 23 0 29 -4 29 -22 0 -30 6 -19 14 26
7 36 6 38 -9 22 -9 -9 -25 -16 -36 -16 -19 0 -20 14 -3 68 4 16 76 16 92 0 9
-9 12 -8 12 5 0 14 -10 17 -65 17 -54 0 -65 -3 -65 -17z"/>
<path d="M10080 6678 c0 -50 3 -89 6 -85 3 3 6 36 5 72 0 37 4 75 9 86 8 15 7
19 -5 19 -12 0 -15 -16 -15 -92z"/>
<path d="M11495 6760 c-17 -7 -17 -9 -2 -9 9 -1 17 -7 17 -13 0 -9 4 -8 10 2
19 30 12 36 -25 20z"/>
<path d="M10623 6753 c9 -2 25 -2 35 0 9 3 1 5 -18 5 -19 0 -27 -2 -17 -5z"/>
<path d="M1330 6690 c0 -57 1 -60 25 -60 14 0 25 5 25 10 0 6 -6 10 -14 10
-15 0 -28 68 -14 76 10 6 1 24 -13 24 -5 0 -9 -27 -9 -60z"/>
<path d="M1523 6740 c11 -7 17 -24 17 -50 0 -35 -3 -39 -27 -43 -26 -4 -26 -4
5 -6 32 -1 32 0 32 44 0 25 1 48 3 53 1 4 -9 8 -23 10 -22 2 -23 1 -7 -8z"/>
<path d="M5164 6705 c-8 -13 -30 -33 -47 -44 -18 -12 -28 -21 -24 -21 14 0 84
53 96 72 18 28 -6 21 -25 -7z"/>
<path d="M7872 6701 c18 -16 35 -27 38 -24 6 5 -50 53 -63 53 -4 0 7 -13 25
-29z"/>
<path d="M3978 6638 c-4 -79 -3 -97 6 -87 7 7 11 169 5 169 -4 0 -9 -37 -11
-82z"/>
<path d="M10338 6668 c2 -29 4 -53 5 -54 1 -1 20 1 42 5 39 6 40 7 40 49 0 23
-4 41 -9 40 -6 -2 -9 -20 -7 -40 2 -37 1 -38 -30 -38 l-32 0 5 45 c4 31 2 45
-6 45 -8 0 -11 -17 -8 -52z"/>
<path d="M10375 6710 c-3 -5 -1 -10 4 -10 6 0 11 5 11 10 0 6 -2 10 -4 10 -3
0 -8 -4 -11 -10z"/>
<path d="M1766 6701 c-4 -6 -2 -18 4 -26 6 -8 9 -19 5 -25 -3 -5 -4 -10 -1
-10 3 0 10 8 15 19 12 22 -11 63 -23 42z"/>
<path d="M3820 6690 c-8 -5 -63 -9 -123 -8 -59 0 -110 -2 -114 -5 -3 -4 53 -7
125 -7 72 0 133 4 137 9 8 14 -9 21 -25 11z"/>
<path d="M5384 6685 c-9 -23 3 -45 24 -45 28 0 43 20 31 42 -12 22 -47 24 -55
3z m46 -15 c0 -11 -6 -20 -14 -20 -18 0 -29 16 -21 30 11 18 35 11 35 -10z"/>
<path d="M6401 6684 c0 -11 3 -14 6 -6 3 7 2 16 -1 19 -3 4 -6 -2 -5 -13z"/>
<path d="M4115 6680 c-17 -7 -15 -9 13 -9 17 -1 32 4 32 9 0 12 -17 12 -45 0z"/>
<path d="M7827 6655 c-15 -31 -20 -34 -37 -25 -11 6 -20 17 -20 25 0 7 -4 17
-10 20 -19 12 -10 -13 15 -43 l24 -29 -27 -19 c-15 -11 -39 -26 -54 -33 -16
-8 -26 -17 -23 -19 3 -3 28 9 56 27 l52 32 49 -30 c48 -30 78 -39 78 -23 0 4
-24 16 -53 27 -59 23 -68 42 -38 84 23 31 26 41 13 41 -5 0 -16 -16 -25 -35z"/>
<path d="M9207 6683 c-12 -12 -7 -41 8 -47 12 -4 13 -2 2 15 -10 16 -9 21 3
29 8 5 10 10 4 10 -6 0 -14 -3 -17 -7z"/>
<path d="M9245 6665 c0 -14 3 -25 8 -25 4 0 7 11 7 25 0 14 -3 25 -7 25 -5 0
-8 -11 -8 -25z"/>
<path d="M11135 6680 c-3 -5 1 -10 10 -10 9 0 13 5 10 10 -3 6 -8 10 -10 10
-2 0 -7 -4 -10 -10z"/>
<path d="M1036 6658 c-9 -34 -7 -58 4 -58 6 0 10 16 10 35 l0 35 55 0 55 0 0
-40 0 -40 -59 0 c-33 0 -62 -3 -64 -7 -3 -5 26 -8 64 -8 38 0 69 2 70 5 1 3 3
26 5 53 l4 47 -69 0 c-63 0 -69 -2 -75 -22z"/>
<path d="M8196 6653 c13 -14 27 -23 31 -20 3 4 -5 15 -18 26 -34 29 -42 26
-13 -6z"/>
<path d="M6391 6644 c0 -11 3 -14 6 -6 3 7 2 16 -1 19 -3 4 -6 -2 -5 -13z"/>
<path d="M1070 6623 c0 -29 12 -24 17 7 2 11 -2 20 -7 20 -6 0 -10 -12 -10
-27z"/>
<path d="M1123 6636 c4 -9 -1 -17 -11 -19 -12 -3 -11 -5 6 -6 16 -1 22 5 22
19 0 11 -5 20 -11 20 -6 0 -9 -6 -6 -14z"/>
<path d="M5150 6601 c-25 -25 -54 -52 -65 -59 -11 -7 -2 -4 20 7 37 18 59 38
94 84 25 33 -4 14 -49 -32z"/>
<path d="M10588 6623 c7 -3 16 -2 19 1 4 3 -2 6 -13 5 -11 0 -14 -3 -6 -6z"/>
<path d="M3397 6600 c3 -11 9 -20 15 -20 5 0 4 9 -2 20 -6 11 -12 20 -14 20
-2 0 -2 -9 1 -20z"/>
<path d="M3446 6605 c4 -8 10 -15 15 -15 4 0 6 7 3 15 -4 8 -10 15 -15 15 -4
0 -6 -7 -3 -15z"/>
<path d="M3303 6583 c-7 -15 -11 -28 -9 -31 6 -6 28 38 24 48 -2 5 -9 -3 -15
-17z"/>
<path d="M3350 6593 c0 -13 5 -23 10 -23 13 0 13 11 0 30 -8 12 -10 11 -10 -7z"/>
<path d="M410 6584 c0 -8 5 -12 10 -9 6 3 10 10 10 16 0 5 -4 9 -10 9 -5 0
-10 -7 -10 -16z"/>
<path d="M6372 6574 c-12 -8 -35 -22 -50 -30 -19 -10 -22 -14 -9 -14 10 0 32
10 50 22 18 13 34 24 36 25 2 2 2 5 0 8 -3 2 -15 -2 -27 -11z"/>
<path d="M6470 6587 c3 -3 22 -17 43 -31 28 -19 37 -22 37 -11 0 8 -2 15 -4
15 -2 0 -21 7 -42 16 -22 9 -37 14 -34 11z"/>
<path d="M8180 6573 c14 -9 29 -23 33 -30 9 -15 27 -18 27 -4 0 10 -61 51 -76
51 -5 0 3 -8 16 -17z"/>
<path d="M8381 6585 c1 -19 18 -51 18 -35 0 8 -4 22 -9 30 -5 8 -9 11 -9 5z"/>
<path d="M8346 6564 c-4 -9 -4 -19 -1 -22 2 -3 7 3 11 12 4 9 4 19 1 22 -2 3
-7 -3 -11 -12z"/>
<path d="M8455 6570 c3 -5 8 -10 11 -10 2 0 4 5 4 10 0 6 -5 10 -11 10 -5 0
-7 -4 -4 -10z"/>
<path d="M11707 6573 c-12 -11 -8 -23 8 -23 8 0 15 7 15 15 0 16 -12 20 -23 8z"/>
<path d="M4156 6561 c-4 -5 3 -7 14 -4 23 6 26 13 6 13 -8 0 -17 -4 -20 -9z"/>
<path d="M4108 6553 c7 -3 16 -2 19 1 4 3 -2 6 -13 5 -11 0 -14 -3 -6 -6z"/>
<path d="M1965 6024 c-100 -50 -96 -194 6 -194 23 0 46 8 60 21 l24 21 -25
-16 c-46 -30 -106 -14 -110 29 -7 72 25 127 83 144 20 6 25 9 12 10 -11 0 -33
-6 -50 -15z"/>
<path d="M2702 6027 c-36 -21 -62 -68 -62 -112 0 -48 7 -61 42 -74 29 -11 92
2 104 20 4 7 -2 7 -15 -1 -97 -51 -153 45 -79 134 26 32 35 37 66 34 29 -2 38
-8 43 -28 4 -14 8 -20 8 -15 1 6 4 19 7 30 4 18 0 20 -43 22 -26 2 -58 -3 -71
-10z"/>
<path d="M2887 6022 c6 -24 -33 -164 -49 -174 -8 -5 -3 -8 15 -8 24 0 27 4 27
33 0 17 4 37 8 43 13 19 41 23 57 8 8 -9 15 -12 16 -7 0 4 3 19 5 33 4 19 2
22 -8 12 -6 -6 -20 -12 -30 -12 -22 0 -24 37 -4 65 13 17 19 18 55 9 33 -9 41
-9 41 2 0 11 -17 14 -69 14 -62 0 -69 -2 -64 -18z"/>
<path d="M1358 5944 c2 -56 -1 -90 -8 -100 -10 -12 -7 -14 19 -14 17 0 31 5
31 11 0 5 -4 7 -10 4 -6 -4 -10 26 -10 84 0 62 4 91 13 94 6 3 1 6 -13 6 l-25
1 3 -86z"/>
<path d="M2053 6005 c10 -21 13 -22 19 -7 11 27 9 32 -11 32 -17 0 -18 -3 -8
-25z"/>
<path d="M2144 6021 c9 -14 -40 -172 -55 -182 -23 -15 88 -10 125 5 46 19 76
61 76 107 0 56 -29 79 -97 79 -30 0 -52 -4 -49 -9z m105 -10 c17 -11 18 -89 1
-121 -24 -44 -128 -64 -116 -22 3 9 10 37 16 61 21 81 27 91 57 91 16 0 34 -4
42 -9z"/>
<path d="M2390 5940 c0 -13 110 -13 130 0 10 7 -7 10 -57 10 -42 0 -73 -4 -73
-10z"/>
<path d="M2390 5882 c0 -9 137 -8 146 1 4 4 -27 7 -69 7 -42 0 -77 -3 -77 -8z"/>
<path d="M1456 5851 c-4 -5 -2 -12 3 -15 5 -4 12 -2 15 3 4 5 2 12 -3 15 -5 4
-12 2 -15 -3z"/>
<path d="M11165 5617 c5 -11 -24 -138 -41 -181 -7 -17 -3 -18 49 -14 100 8
160 72 139 150 -10 41 -41 58 -104 58 -34 0 -46 -4 -43 -13z m118 -29 c18 -24
19 -32 9 -66 -16 -52 -42 -73 -97 -80 l-46 -5 7 29 c4 16 13 46 21 68 7 21 13
47 13 56 0 39 64 37 93 -2z"/>
<path d="M2614 5579 c-3 -5 2 -9 10 -9 8 0 20 -8 26 -17 9 -16 10 -15 8 6 -3
24 -33 38 -44 20z"/>
<path d="M3095 5568 c-4 -13 -23 -55 -41 -95 -19 -40 -34 -77 -34 -83 0 -6 32
-10 85 -10 47 0 85 4 85 8 0 11 -75 190 -82 198 -4 3 -9 -5 -13 -18z m34 -93
c12 -31 21 -60 21 -65 0 -6 -25 -10 -55 -10 -60 0 -63 4 -40 47 9 15 20 40 25
56 14 40 26 33 49 -28z"/>
<path d="M3343 5583 c17 -3 32 -14 39 -29 8 -18 14 -21 20 -12 19 31 9 43 -40
44 -26 1 -34 0 -19 -3z"/>
<path d="M3503 5583 c-13 -2 -23 -12 -23 -21 0 -34 -33 -148 -48 -164 -14 -17
-12 -18 37 -18 81 0 137 50 99 88 -9 9 -8 16 4 29 8 10 18 25 20 33 7 21 -9
50 -28 50 -13 0 -13 -2 0 -22 15 -20 14 -24 -6 -45 -22 -23 -68 -32 -68 -13 0
6 9 29 19 50 11 22 18 39 18 39 -1 -1 -12 -4 -24 -6z m45 -131 c4 -27 -10 -48
-37 -55 -32 -8 -43 7 -36 47 7 34 10 37 39 34 24 -2 32 -8 34 -26z"/>
<path d="M3670 5575 c6 -8 3 -30 -10 -68 -11 -31 -20 -63 -20 -72 0 -8 -9 -24
-20 -35 l-20 -20 36 0 c28 0 34 3 26 13 -7 8 -6 23 2 47 9 30 16 35 41 35 32
0 45 10 45 35 0 12 -2 12 -9 2 -4 -8 -20 -12 -34 -10 -25 3 -25 4 -13 40 12
35 12 36 -11 41 -17 3 -21 1 -13 -8z"/>
<path d="M1343 5573 c14 -4 17 -17 17 -85 0 -59 -4 -86 -15 -98 -14 -15 -12
-17 27 -18 38 -1 41 0 26 12 -15 11 -18 29 -18 99 0 73 3 86 18 90 9 3 -3 5
-28 5 -25 0 -37 -2 -27 -5z"/>
<path d="M1443 5573 c15 -4 17 -17 17 -93 0 -74 -3 -91 -17 -100 -17 -11 -17
-11 0 -6 10 3 30 6 44 6 22 0 23 2 9 15 -12 13 -15 32 -11 92 3 41 8 79 11 84
3 5 -12 8 -33 8 -21 -1 -30 -3 -20 -6z"/>
<path d="M1925 5486 c-26 -53 -45 -100 -41 -103 9 -10 152 -12 166 -3 8 5 9
13 2 26 -5 11 -14 30 -20 44 -6 14 -21 49 -35 79 l-25 54 -47 -97z m70 -12
c36 -81 35 -84 -30 -84 -46 0 -55 3 -55 18 0 19 46 122 55 122 3 0 16 -25 30
-56z"/>
<path d="M2214 5547 c-12 -18 -47 -63 -79 -101 -31 -37 -55 -69 -53 -72 11
-10 35 9 45 36 10 25 17 30 46 30 31 0 35 -2 30 -22 -3 -13 -10 -29 -16 -36
-7 -9 -1 -12 27 -10 20 2 36 6 36 11 0 4 -5 7 -11 7 -10 0 -3 164 8 183 2 4 1
7 -4 7 -4 0 -18 -15 -29 -33z m0 -65 c-4 -13 -14 -22 -25 -22 -23 0 -23 4 -3
36 19 28 36 20 28 -14z"/>
<path d="M2343 5568 c2 -7 0 -24 -5 -38 -6 -14 -18 -53 -28 -87 l-17 -63 46 0
c27 0 56 7 70 16 20 15 23 22 17 60 -4 31 -2 46 8 51 25 15 29 51 7 62 -26 15
-38 14 -23 -1 7 -7 12 -19 12 -28 0 -23 -35 -52 -57 -48 -17 3 -18 9 -10 63 1
6 7 13 12 17 6 4 0 8 -13 8 -15 0 -22 -5 -19 -12z m65 -124 c2 -24 -2 -33 -23
-42 -55 -25 -72 -11 -50 43 13 31 20 36 43 33 22 -2 28 -9 30 -34z"/>
<path d="M2517 5507 c-10 -39 -24 -84 -32 -99 -13 -28 -13 -28 18 -28 23 0 28
3 20 11 -6 6 -10 17 -8 23 2 6 6 23 9 39 5 20 12 27 29 27 13 0 28 -5 34 -11
7 -7 12 -2 15 19 4 28 3 29 -16 16 -12 -7 -27 -10 -34 -5 -17 10 -4 69 17 74
9 3 6 5 -9 6 -23 1 -26 -5 -43 -72z"/>
<path d="M3271 5559 c-23 -25 -51 -80 -51 -101 0 -7 9 -28 20 -45 17 -28 25
-33 59 -33 22 0 43 5 47 11 4 7 0 9 -13 5 -26 -8 -72 9 -79 29 -11 29 7 103
31 129 13 14 20 26 15 26 -5 0 -18 -10 -29 -21z"/>
<path d="M3784 5565 c8 -8 17 -15 20 -15 3 0 3 7 0 15 -4 8 -13 15 -21 15 -12
0 -12 -2 1 -15z"/>
<path d="M2783 5523 c-7 -2 -13 -9 -13 -15 0 -7 4 -7 13 0 8 7 27 7 60 -1 42
-9 50 -8 65 7 16 17 16 18 -5 5 -17 -10 -27 -10 -48 -1 -27 12 -51 14 -72 5z"/>
<path d="M2770 5440 c20 -13 150 -13 150 0 0 6 -34 10 -82 10 -57 0 -78 -3
-68 -10z"/>
<path d="M1550 5385 c0 -9 5 -15 10 -13 12 4 11 16 -1 24 -5 3 -9 -2 -9 -11z"/>
<path d="M2760 5390 c0 -6 33 -10 80 -10 47 0 80 4 80 10 0 6 -33 10 -80 10
-47 0 -80 -4 -80 -10z"/>
<path d="M11150 5288 c-19 -12 -47 -29 -61 -38 -67 -39 -202 -126 -399 -255
-184 -121 -323 -210 -388 -250 -10 -6 -30 -19 -47 -29 -16 -11 -55 -35 -85
-54 -30 -19 -74 -47 -97 -63 -23 -16 -44 -29 -48 -29 -3 0 -32 -18 -63 -39
-31 -21 -82 -54 -112 -73 -30 -19 -68 -43 -84 -54 -16 -10 -36 -23 -45 -29
-154 -95 -317 -200 -319 -206 -2 -5 -8 -9 -14 -9 -9 0 -73 -39 -166 -101 -23
-16 -45 -29 -49 -29 -4 0 -15 -7 -25 -17 -10 -9 -27 -21 -37 -27 -47 -27 -123
-74 -196 -122 -44 -28 -132 -84 -195 -124 -63 -40 -146 -93 -183 -117 -74 -48
-73 -45 -40 -123 8 -19 37 -96 63 -170 27 -74 77 -209 110 -300 34 -91 72
-196 85 -235 13 -38 38 -106 55 -150 17 -44 42 -111 55 -150 32 -94 77 -222
115 -325 109 -293 137 -371 157 -435 8 -27 37 -111 65 -185 77 -210 93 -256
143 -395 43 -122 56 -157 108 -295 12 -30 27 -62 34 -70 12 -13 196 -15 1508
-17 949 -1 1496 1 1500 7 4 6 -179 10 -502 10 -1658 2 -2462 6 -2468 12 -4 4
44 67 107 140 63 73 145 171 183 218 38 47 123 150 190 230 66 79 127 153 135
164 8 10 26 31 40 46 14 16 32 37 40 48 21 28 98 118 146 172 22 25 47 55 55
67 9 12 35 46 60 74 24 29 58 68 75 88 17 20 59 72 94 116 34 44 65 82 69 85
3 3 53 64 111 135 57 72 114 141 127 155 12 14 34 38 49 55 41 45 214 253 214
258 0 2 29 35 65 73 36 38 65 73 65 77 0 5 22 32 48 60 65 71 142 164 142 172
0 3 16 23 36 43 20 20 44 48 53 62 24 38 163 200 171 200 6 0 28 -52 87 -215
14 -38 36 -97 49 -130 13 -33 32 -85 43 -115 10 -30 33 -93 51 -140 17 -47 38
-105 47 -130 9 -25 19 -49 23 -55 4 -5 15 -35 25 -65 10 -30 23 -68 30 -85 7
-16 21 -54 30 -82 9 -29 21 -55 26 -58 5 -4 9 -4 9 -1 0 9 -108 312 -143 401
-20 50 -45 119 -56 154 -12 35 -25 69 -29 75 -5 6 -14 31 -21 56 -7 25 -20 63
-31 85 -10 22 -24 60 -31 85 -7 25 -19 54 -26 65 -7 11 -13 26 -13 35 0 8 -11
42 -25 74 -13 33 -23 62 -20 64 6 6 1995 5 2001 -1 6 -6 -8 -58 -31 -112 -35
-84 -97 -246 -150 -390 -21 -55 -48 -124 -61 -153 -13 -29 -24 -56 -24 -60 0
-4 -21 -59 -46 -122 -25 -63 -57 -149 -71 -190 -14 -41 -29 -79 -33 -85 -4 -5
-15 -35 -25 -65 -10 -30 -21 -59 -25 -65 -4 -5 -15 -37 -25 -70 -9 -33 -23
-73 -31 -90 -7 -16 -20 -50 -29 -75 -26 -74 -85 -241 -105 -300 -32 -93 -77
-220 -120 -340 -23 -63 -48 -133 -55 -155 -7 -22 -28 -76 -45 -120 -17 -44
-38 -98 -45 -121 -7 -23 -22 -61 -33 -85 -11 -24 -26 -63 -33 -86 -16 -55 -35
-55 -50 0 -6 23 -17 56 -25 72 -7 17 -25 62 -38 100 -13 39 -36 102 -51 140
-15 39 -37 99 -49 135 -13 36 -43 121 -68 190 -72 197 -83 228 -172 485 -30
88 -71 205 -91 260 -20 55 -42 121 -51 148 -8 26 -20 47 -25 47 -7 0 -8 -7 -4
-17 11 -29 50 -140 99 -283 26 -74 51 -144 56 -155 5 -11 20 -54 34 -95 13
-41 50 -147 81 -235 31 -88 81 -227 111 -310 29 -82 78 -217 109 -300 58 -152
95 -255 95 -262 0 -1 -65 -3 -145 -3 -89 0 -145 -4 -145 -10 0 -13 277 -12
301 0 9 5 26 36 37 67 11 32 35 94 52 138 17 44 40 103 50 132 10 29 25 67 33
85 8 18 45 121 82 228 37 107 71 204 76 215 5 11 34 92 65 180 111 317 162
462 208 585 70 184 145 379 166 430 11 25 35 88 55 140 45 120 61 162 131 340
31 80 62 163 69 185 7 22 16 47 19 56 7 17 -68 72 -224 166 -115 68 -249 156
-561 364 -78 53 -208 136 -334 214 -60 38 -141 89 -180 115 -263 175 -595 390
-603 390 -3 0 -14 7 -23 16 -10 9 -56 38 -101 65 -46 26 -88 52 -93 57 -11 9
-432 287 -477 315 -16 9 -38 24 -51 32 -20 13 -26 12 -57 -7z m43 -38 c8 -16
18 -47 22 -70 4 -22 11 -40 15 -40 5 0 16 -26 25 -57 9 -32 20 -62 24 -68 5
-5 29 -73 55 -150 27 -77 52 -149 57 -160 21 -50 79 -208 79 -217 0 -5 13 -44
29 -86 17 -42 69 -189 116 -327 88 -253 135 -383 162 -443 8 -19 12 -36 9 -40
-7 -7 -3238 -3 -3245 4 -6 6 26 29 65 48 17 9 37 22 44 31 7 8 17 15 23 15 5
0 24 11 41 24 17 13 49 33 71 45 22 12 99 59 170 105 312 202 694 444 715 453
8 4 36 22 61 40 26 18 51 33 57 33 6 0 12 4 14 8 2 5 54 42 117 82 63 40 129
82 147 94 17 12 47 30 65 41 18 11 40 25 49 30 59 40 100 65 104 65 2 0 40 23
83 52 43 28 107 70 143 93 36 23 124 80 195 127 197 128 465 297 472 298 1 0
8 -13 16 -30z m67 -11 c0 -5 8 -9 18 -9 9 0 23 -9 30 -20 7 -11 17 -20 23 -20
5 0 31 -16 56 -35 25 -19 52 -35 59 -35 7 0 14 -4 16 -8 3 -8 225 -156 303
-203 22 -13 45 -27 50 -31 15 -13 297 -188 301 -188 2 0 22 -12 43 -27 21 -16
47 -34 57 -40 115 -77 155 -103 160 -103 3 0 17 -11 32 -25 15 -14 30 -25 34
-25 4 0 63 -37 132 -82 68 -46 180 -118 248 -161 182 -116 231 -148 500 -329
32 -21 60 -38 63 -38 3 0 14 -8 25 -17 11 -10 36 -27 54 -38 94 -55 137 -82
201 -123 39 -25 85 -55 102 -66 l33 -21 -133 -5 c-208 -8 -1850 -2 -1857 7 -6
8 -38 94 -102 273 -17 47 -34 94 -39 105 -4 11 -15 45 -25 75 -9 30 -19 59
-22 64 -3 5 -20 50 -37 100 -93 263 -145 408 -169 471 -15 39 -38 104 -51 146
-13 42 -28 85 -33 95 -6 11 -29 73 -53 139 -23 66 -46 122 -51 123 -4 2 -8 19
-8 37 0 28 3 32 20 28 11 -3 20 -9 20 -14z m520 -1679 c0 -3 -19 -27 -42 -54
-24 -27 -63 -75 -88 -107 -78 -100 -184 -231 -209 -258 -13 -14 -56 -66 -96
-116 -40 -49 -87 -106 -105 -125 -17 -19 -46 -53 -63 -75 -18 -21 -43 -51 -57
-66 -14 -15 -38 -44 -55 -64 -16 -21 -56 -68 -87 -105 -31 -36 -154 -186 -273
-331 -249 -304 -281 -343 -315 -380 -14 -14 -38 -44 -55 -65 -16 -21 -46 -56
-65 -78 -20 -23 -69 -81 -110 -131 -41 -49 -84 -101 -97 -115 -12 -14 -50 -59
-83 -100 -34 -41 -74 -89 -89 -106 -15 -17 -88 -105 -161 -195 -74 -90 -143
-173 -155 -184 -11 -11 -31 -35 -44 -53 -13 -18 -28 -31 -33 -30 -11 4 -31 52
-78 183 -16 44 -45 125 -65 180 -20 55 -42 118 -50 140 -7 22 -26 72 -40 110
-15 39 -39 104 -54 145 -15 42 -30 80 -33 85 -3 6 -15 42 -27 80 -12 39 -27
86 -35 105 -7 19 -30 82 -51 140 -60 170 -95 264 -106 285 -5 11 -20 52 -33
90 -39 115 -80 230 -200 555 -32 85 -67 182 -77 215 -11 33 -24 69 -29 80 -15
32 -59 152 -92 249 -23 68 -27 90 -17 96 14 9 3269 9 3269 0z"/>
<path d="M11985 3860 c4 -6 2 -25 -4 -43 -5 -17 -15 -51 -21 -74 -6 -23 -17
-49 -26 -58 -14 -13 -12 -15 15 -15 23 0 29 4 25 15 -3 8 -1 30 6 50 9 27 17
35 36 35 14 0 27 -7 31 -17 6 -15 7 -15 14 3 14 35 11 45 -10 33 -31 -20 -50
-5 -42 33 7 33 8 33 63 33 31 0 54 3 52 7 -3 5 -37 8 -75 8 -45 0 -68 -4 -64
-10z"/>
<path d="M2397 5138 c15 -18 -35 -186 -56 -191 -9 -3 2 -5 24 -6 25 0 35 2 27
8 -11 7 -11 16 -1 50 10 35 16 41 40 41 15 0 30 -6 32 -12 3 -7 6 -3 6 10 1
18 -4 22 -29 22 -35 0 -35 0 -15 47 14 34 17 35 52 30 20 -4 40 -12 45 -19 5
-9 8 -6 8 10 0 21 -4 22 -71 22 -56 0 -69 -3 -62 -12z"/>
<path d="M2587 5131 c7 -26 -35 -163 -55 -180 -15 -11 -8 -12 45 -9 42 3 69
10 83 23 21 19 28 65 10 65 -16 0 -12 19 10 43 11 12 19 28 18 36 -4 21 -46
41 -85 41 -25 0 -30 -3 -26 -19z m91 -23 c4 -21 -32 -58 -58 -58 -20 0 -22 3
-17 37 4 20 12 40 18 44 16 10 53 -5 57 -23z m-26 -86 c3 -10 1 -28 -3 -40 -7
-17 -16 -22 -44 -22 -33 0 -36 2 -30 23 4 12 9 30 11 40 7 24 60 23 66 -1z"/>
<path d="M3185 5125 c-11 -12 -56 -59 -100 -104 l-80 -81 103 0 c122 0 139 18
21 22 l-82 3 82 83 c44 46 81 87 81 93 0 12 -1 11 -25 -16z"/>
<path d="M3318 5125 c5 -29 -26 -146 -45 -167 -15 -17 -12 -18 61 -18 73 0 77
1 86 26 14 36 12 39 -7 15 -17 -20 -84 -33 -99 -19 -3 3 -2 22 2 43 6 33 9 36
37 33 24 -2 31 2 39 22 7 20 7 23 -3 13 -7 -7 -21 -13 -32 -13 -16 0 -18 5
-12 33 10 43 13 47 38 47 26 0 42 -10 50 -30 3 -9 6 -4 6 13 1 27 1 27 -62 25
-59 -1 -63 -3 -59 -23z"/>
<path d="M3694 5107 c-2 -57 -31 -144 -52 -157 -13 -7 -9 -9 20 -10 29 0 36 3
32 15 -4 8 -3 31 0 50 6 31 11 35 36 35 22 0 30 -5 31 -17 1 -10 5 -2 9 17 5
19 7 37 4 39 -2 2 -4 -1 -4 -7 0 -7 -13 -12 -30 -12 -34 0 -36 9 -15 50 13 24
22 30 50 30 22 0 38 -6 44 -17 9 -16 10 -16 11 5 0 21 -4 22 -67 22 l-68 0 -1
-43z"/>
<path d="M4199 5140 c-22 -13 -33 -74 -19 -100 7 -13 21 -20 40 -20 47 0 38
-35 -15 -63 -18 -10 -23 -16 -14 -17 23 0 67 36 84 70 42 82 -9 169 -76 130z
m54 -7 c14 -24 16 -70 4 -87 -31 -43 -77 15 -56 71 8 22 42 32 52 16z"/>
<path d="M4351 5126 c-16 -17 -22 -37 -23 -73 -1 -53 25 -113 50 -113 62 0 94
108 52 178 -23 38 -48 41 -79 8z m69 -27 c10 -37 8 -69 -6 -121 -8 -27 -50
-23 -58 5 -9 35 -7 117 4 138 19 34 48 24 60 -22z"/>
<path d="M4496 5134 c-21 -21 -20 -37 4 -59 16 -15 25 -16 44 -7 29 13 39 47
19 67 -19 19 -48 19 -67 -1z m62 -32 c-5 -24 -52 -23 -56 2 -2 10 2 22 9 27
18 11 51 -9 47 -29z"/>
<path d="M1339 5131 c19 -12 17 -171 -2 -183 -7 -4 5 -8 28 -8 25 0 35 3 27 9
-19 12 -20 170 -1 182 9 6 1 9 -26 9 -28 0 -36 -3 -26 -9z"/>
<path d="M1443 5133 c14 -4 17 -17 17 -83 0 -58 -4 -83 -16 -94 -14 -15 -12
-16 22 -16 30 0 35 3 26 12 -7 7 -12 42 -12 88 0 46 5 81 12 88 9 9 3 12 -27
11 -22 -1 -32 -3 -22 -6z"/>
<path d="M1555 5130 c4 -6 7 -45 7 -87 0 -63 -3 -79 -18 -90 -16 -11 -13 -13
27 -13 30 0 39 3 30 9 -22 14 -23 169 -2 181 12 7 8 9 -17 10 -21 0 -31 -4
-27 -10z"/>
<path d="M1978 5039 l-96 -99 106 1 c77 0 100 3 84 10 -13 5 -48 8 -78 8 -30
-1 -58 1 -62 5 -3 4 25 38 63 75 80 77 101 101 89 100 -5 0 -52 -45 -106 -100z"/>
<path d="M2283 5121 c-7 -11 -42 -56 -77 -100 -53 -65 -62 -81 -46 -81 13 0
20 7 20 19 0 10 7 25 16 32 22 18 64 23 65 7 2 -24 -3 -43 -14 -50 -7 -4 3 -8
21 -8 29 0 32 2 23 19 -6 10 -9 20 -7 22 2 2 7 35 11 74 4 38 9 73 11 77 3 5
1 8 -3 8 -5 0 -14 -9 -20 -19z m-13 -71 c0 -26 -4 -30 -26 -30 l-25 0 21 30
c12 17 23 30 26 30 2 0 4 -13 4 -30z"/>
<path d="M3568 5106 c-25 -32 -26 -34 -6 -28 17 4 20 2 15 -12 -4 -10 -7 -24
-7 -32 0 -8 -10 -14 -25 -14 -23 0 -25 2 -14 23 6 12 -1 8 -17 -12 -16 -19
-41 -47 -56 -63 l-26 -28 24 0 c15 0 24 5 22 13 -1 6 3 22 10 35 17 30 82 32
82 3 0 -11 -7 -27 -16 -35 -14 -15 -12 -16 21 -16 34 0 35 1 22 20 -11 15 -12
34 -5 86 12 91 8 101 -24 60z"/>
<path d="M2840 5067 c0 -34 -2 -36 -37 -40 l-38 -4 38 -1 c36 -2 37 -3 38 -44
l2 -43 6 40 c5 36 9 41 41 46 l35 6 -35 4 c-30 3 -35 8 -35 31 0 14 -3 30 -7
34 -5 4 -8 -9 -8 -29z"/>
<path d="M3930 5050 c0 -12 107 -12 135 0 14 6 -5 9 -57 9 -46 1 -78 -3 -78
-9z"/>
<path d="M3930 4989 c0 -6 24 -9 66 -7 94 4 103 18 12 18 -49 0 -78 -4 -78
-11z"/>
<path d="M1650 4949 c0 -18 2 -19 15 -9 15 12 12 30 -6 30 -5 0 -9 -10 -9 -21z"/>
<path d="M3153 4361 c-3 -10 -14 -23 -26 -29 -12 -6 -16 -11 -9 -11 24 -2 11
-29 -33 -70 -49 -46 -51 -56 -1 -14 l31 26 3 -46 c2 -26 -2 -55 -7 -66 -6 -11
-11 -26 -11 -33 1 -7 8 1 17 17 9 17 21 33 27 38 8 5 6 10 -4 17 -26 16 4 33
65 36 49 3 55 1 55 -16 0 -18 -21 -26 -52 -21 -5 0 -8 -4 -8 -10 0 -7 11 -9
30 -5 27 5 30 3 30 -19 0 -18 -6 -24 -27 -27 l-28 -3 28 -12 c26 -12 28 -11
37 13 6 14 10 56 10 92 l0 68 -71 -4 c-65 -4 -71 -3 -67 14 3 17 15 19 91 22
64 2 87 6 84 15 -2 7 -11 10 -18 8 -8 -3 -38 -7 -68 -9 -59 -4 -82 8 -61 33 9
11 10 15 0 15 -6 0 -14 -8 -17 -19z m107 -106 c0 -12 -14 -15 -65 -15 -51 0
-65 3 -65 15 0 12 14 15 65 15 51 0 65 -3 65 -15z"/>
<path d="M2848 4353 l-88 -4 0 -67 0 -67 93 3 93 3 0 70 c1 38 -2 68 -5 67 -3
-1 -45 -4 -93 -5z m80 -65 l-3 -53 -75 0 -75 0 -3 53 -3 52 81 0 81 0 -3 -52z"/>
<path d="M3843 4353 c25 -4 27 -8 27 -51 0 -66 -17 -121 -53 -167 l-31 -40 32
29 c19 18 39 51 49 82 l16 51 68 2 c38 1 69 -1 69 -4 0 -14 -46 -75 -58 -75
-7 0 -21 15 -32 33 -11 17 -20 27 -20 21 0 -6 9 -23 21 -38 11 -14 17 -31 14
-36 -4 -6 -30 -22 -58 -35 -29 -13 -46 -24 -38 -25 7 0 35 12 61 26 l47 26 44
-21 c23 -12 52 -21 63 -21 29 0 8 15 -41 29 -24 6 -43 17 -43 24 0 7 14 32 30
56 37 55 37 62 0 55 -33 -7 -36 0 -21 54 l10 32 -92 -1 c-51 -1 -80 -4 -64 -6z
m137 -17 c0 -8 -4 -27 -10 -41 -9 -23 -15 -26 -47 -23 -31 2 -39 7 -41 26 -6
42 4 52 53 52 32 0 45 -4 45 -14z"/>
<path d="M1897 4297 c-14 -30 -31 -72 -38 -94 -8 -21 -21 -43 -29 -50 -13 -10
-10 -12 14 -13 22 0 27 4 22 16 -14 36 3 54 49 54 39 0 45 -3 51 -24 3 -14 3
-30 -1 -35 -4 -7 6 -11 26 -11 30 0 31 1 17 18 -8 9 -23 40 -33 67 -10 28 -26
67 -36 88 l-17 39 -25 -55z m43 -59 c0 -13 -8 -18 -30 -18 -28 0 -29 2 -19 26
5 15 12 31 16 37 8 13 33 -21 33 -45z"/>
<path d="M3550 4335 c8 -10 11 -44 9 -105 -2 -49 -1 -90 3 -90 15 0 38 13 33
19 -2 4 -5 45 -6 90 -1 62 2 85 12 92 9 6 1 9 -25 9 -33 0 -37 -2 -26 -15z"/>
<path d="M4298 4341 c10 -6 13 -32 10 -99 l-3 -91 28 -4 c19 -2 24 0 17 7 -15
15 -13 183 3 189 6 3 -6 6 -28 6 -25 0 -35 -2 -27 -8z"/>
<path d="M4405 4333 c14 -13 16 -32 13 -99 l-3 -82 27 -4 c26 -4 27 -3 12 13
-13 15 -16 35 -12 104 l4 85 -29 0 c-27 0 -27 -1 -12 -17z"/>
<path d="M3044 4333 c4 -4 19 -8 34 -10 23 -2 24 -1 7 7 -24 11 -51 13 -41 3z"/>
<path d="M2763 4152 c-24 -24 -43 -46 -43 -49 0 -9 71 53 86 75 23 35 3 23
-43 -26z"/>
<path d="M2925 4159 c22 -24 41 -46 43 -48 1 -2 2 2 2 11 0 8 -19 30 -42 48
l-43 33 40 -44z"/>
<path d="M3168 4173 c7 -3 16 -2 19 1 4 3 -2 6 -13 5 -11 0 -14 -3 -6 -6z"/>
<path d="M2060 4161 c0 -6 5 -13 10 -16 6 -3 10 1 10 9 0 9 -4 16 -10 16 -5 0
-10 -4 -10 -9z"/>
<path d="M13995 3637 c8 -20 -32 -160 -50 -173 -14 -10 -13 -12 7 -16 13 -2
46 -2 74 0 44 3 53 8 63 29 7 14 9 28 6 31 -3 3 -5 0 -5 -6 0 -14 -52 -42 -79
-42 -28 0 -32 11 -20 55 10 34 13 37 40 31 24 -5 29 -2 29 14 0 18 -3 19 -20
8 -26 -17 -35 -5 -24 34 8 26 16 34 39 36 19 3 33 -2 42 -14 12 -17 13 -16 13
4 0 20 -5 22 -60 22 -44 0 -58 -3 -55 -13z"/>
<path d="M8249 3615 c-80 -54 -77 -165 5 -180 32 -7 105 19 93 32 -3 3 -16 -2
-29 -11 -63 -44 -125 21 -93 97 23 55 52 78 93 75 29 -2 37 -8 42 -28 6 -24 7
-24 11 6 5 31 5 31 -40 33 -34 1 -55 -5 -82 -24z"/>
<path d="M3150 3616 c0 -7 -7 -19 -15 -26 -8 -7 -12 -16 -9 -22 3 -5 -11 -30
-32 -56 -21 -26 -29 -39 -18 -29 35 29 45 22 39 -27 -2 -24 -9 -56 -15 -70 -5
-14 -7 -26 -5 -26 10 0 39 66 39 90 1 23 6 26 56 31 l55 7 -58 -2 c-48 -1 -57
2 -57 17 0 14 10 17 63 17 l64 0 1 -45 0 -44 -56 -4 -57 -3 58 -2 c50 -2 57
-4 57 -22 0 -12 -9 -24 -22 -29 -20 -7 -20 -8 -3 -15 28 -11 34 3 36 93 l2 84
-73 -2 c-64 -2 -72 0 -66 14 3 9 6 19 6 21 0 2 26 4 59 4 70 0 123 9 116 20
-3 5 -20 4 -38 -1 -17 -5 -51 -6 -75 -3 -36 5 -42 9 -37 25 4 11 2 19 -4 19
-6 0 -11 -6 -11 -14z"/>
<path d="M2843 3600 c-79 -4 -91 -7 -83 -20 6 -10 10 -11 10 -2 0 8 22 12 74
12 l74 0 4 -37 c9 -71 5 -74 -81 -71 -66 3 -76 5 -73 21 2 9 -2 17 -8 17 -5 0
-10 -12 -10 -27 l0 -28 94 3 94 3 4 66 c2 36 1 66 -2 66 -3 1 -46 0 -97 -3z"/>
<path d="M3844 3603 l29 -5 -5 -71 c-4 -53 -3 -65 4 -44 5 15 16 27 24 27 8 0
14 5 14 10 0 6 -7 10 -16 10 -11 0 -14 8 -12 33 3 30 5 32 49 35 l46 3 -5 -33
c-3 -18 -10 -36 -16 -40 -6 -4 3 -8 19 -8 21 0 26 3 16 9 -10 6 -12 19 -7 45
l7 36 -88 -1 c-48 -1 -75 -4 -59 -6z"/>
<path d="M1840 3586 c15 -15 13 -176 -2 -176 -9 0 -8 -4 2 -10 22 -14 76 -12
115 4 39 17 46 47 18 78 -13 14 -14 21 -5 30 7 7 12 19 12 28 0 33 -19 44 -84
50 -42 3 -62 2 -56 -4z m94 -12 c9 -3 16 -17 16 -30 0 -25 -26 -44 -59 -44
-18 0 -21 6 -21 40 0 36 3 40 24 40 13 0 31 -3 40 -6z m10 -97 c26 -19 17 -60
-14 -67 -45 -11 -60 -1 -60 41 0 36 2 39 28 39 16 0 36 -6 46 -13z"/>
<path d="M3540 3591 c12 -7 15 -28 15 -88 -1 -43 -4 -84 -9 -91 -9 -15 17 -27
41 -18 12 5 14 9 5 18 -19 19 -15 153 4 172 14 15 12 16 -28 16 -30 -1 -38 -3
-28 -9z"/>
<path d="M4296 3586 c13 -10 16 -27 13 -99 -4 -87 -4 -87 21 -87 19 0 21 3 12
12 -18 18 -16 153 3 172 14 13 11 15 -25 14 -34 0 -38 -2 -24 -12z"/>
<path d="M4391 3593 c21 -5 33 -113 19 -162 -12 -42 -9 -46 27 -33 15 6 22 11
16 11 -9 1 -13 25 -13 86 0 69 3 86 17 94 13 7 5 9 -32 9 -28 -1 -43 -3 -34
-5z"/>
<path d="M4503 3589 c14 -8 17 -24 17 -94 0 -57 -4 -85 -12 -88 -9 -3 -7 -7 5
-12 9 -4 25 -4 35 0 11 5 13 9 5 12 -9 3 -13 31 -13 88 0 68 3 86 17 93 12 7
5 10 -28 10 -34 1 -40 -2 -26 -9z"/>
<path d="M3047 3579 c8 -8 19 -8 40 -1 28 10 28 10 -11 11 -29 1 -37 -2 -29
-10z"/>
<path d="M4010 3513 c0 -26 -37 -83 -55 -83 -8 0 -24 17 -35 38 -12 20 -18 28
-15 17 19 -63 107 -133 152 -122 20 4 24 2 -49 29 -35 13 -35 23 2 81 35 55
35 57 15 57 -8 0 -15 -8 -15 -17z"/>
<path d="M2764 3404 c-23 -24 -38 -44 -35 -44 10 0 86 79 80 84 -2 2 -23 -16
-45 -40z"/>
<path d="M3830 3410 c-14 -22 -28 -40 -32 -40 -5 0 -8 -5 -8 -11 0 -5 4 -8 8
-5 14 8 65 86 61 91 -3 2 -16 -14 -29 -35z"/>
<path d="M2906 3423 c11 -10 29 -29 42 -43 12 -13 22 -19 22 -13 0 13 -60 73
-74 73 -4 0 0 -8 10 -17z"/>
<path d="M2040 3405 c0 -8 7 -15 15 -15 8 0 15 7 15 15 0 8 -7 15 -15 15 -8 0
-15 -7 -15 -15z"/>
<path d="M3880 3374 c-30 -13 -48 -23 -40 -23 18 -1 100 36 100 44 0 3 -1 4
-2 4 -2 -1 -28 -12 -58 -25z"/>
<path d="M3140 2854 c-7 -18 -15 -24 -28 -20 -9 3 -24 1 -32 -4 -12 -8 -9 -10
13 -10 38 0 34 -18 -14 -68 -45 -46 -42 -59 3 -15 l28 27 0 -46 c0 -26 -5 -59
-10 -74 -6 -15 -8 -29 -5 -32 3 -3 10 9 16 27 l11 32 67 -3 c58 -3 66 -5 66
-23 0 -16 -6 -20 -27 -18 -35 2 -36 -5 -1 -18 37 -14 43 0 43 96 l0 81 -71 -4
c-65 -4 -71 -3 -67 14 2 11 15 21 33 25 17 4 22 7 13 8 -23 1 -32 19 -18 36 9
11 9 15 1 15 -6 0 -16 -12 -21 -26z m118 -101 c-3 -15 -15 -18 -66 -20 -56 -2
-62 -1 -62 17 0 18 7 20 66 20 57 0 65 -2 62 -17z m-3 -53 c0 -12 -13 -15 -60
-15 -50 0 -60 3 -63 18 -3 16 3 18 60 15 48 -2 63 -7 63 -18z"/>
<path d="M3995 2860 c-44 -4 -70 -7 -58 -8 56 -5 36 -147 -30 -219 -11 -13
-18 -25 -15 -28 10 -10 68 78 74 112 7 39 22 51 31 26 3 -10 15 -30 25 -45 10
-14 18 -30 18 -35 0 -5 -23 -21 -52 -36 -29 -15 -46 -27 -39 -27 7 0 34 12 61
27 l47 27 37 -22 c21 -12 47 -22 59 -22 29 0 11 15 -35 30 -37 11 -49 34 -30
56 5 5 19 26 31 47 22 37 22 37 2 37 -14 0 -19 -5 -15 -15 6 -15 -34 -95 -47
-95 -4 0 -19 19 -33 42 -19 31 -22 44 -13 50 8 5 4 8 -10 8 -20 0 -23 5 -23
40 l0 40 43 0 c24 0 46 -2 49 -5 12 -12 -6 -57 -26 -65 -19 -8 -18 -9 9 -9 27
-1 30 2 31 32 0 17 2 38 5 46 5 18 -1 18 -96 11z"/>
<path d="M2750 2787 l0 -72 92 3 93 3 0 67 1 67 -93 2 -93 2 0 -72z m170 -2
l0 -55 -80 0 -80 0 0 48 c0 27 3 52 7 55 3 4 39 7 80 7 l73 0 0 -55z"/>
<path d="M1854 2814 c-24 -25 -34 -45 -34 -67 0 -53 44 -107 87 -107 31 0 83
27 83 43 0 9 -2 9 -8 0 -4 -6 -20 -16 -35 -22 -59 -23 -104 25 -94 102 7 52
23 67 68 67 31 0 41 -5 54 -27 l15 -28 -2 30 c-3 32 -20 42 -72 44 -21 1 -38
-9 -62 -35z"/>
<path d="M3286 2843 c-3 -4 -25 -10 -49 -14 -41 -6 -41 -7 16 -8 31 0 57 3 57
8 0 13 -16 22 -24 14z"/>
<path d="M3538 2838 c15 -15 16 -170 1 -185 -8 -8 -3 -10 18 -10 l28 2 -4 89
c-3 77 -1 92 15 103 16 11 13 13 -26 13 -34 0 -41 -3 -32 -12z"/>
<path d="M3639 2841 c11 -7 14 -33 13 -106 0 -82 2 -96 15 -91 8 3 15 6 16 6
1 0 1 38 -1 84 -3 67 0 86 13 100 15 15 13 16 -27 16 -29 0 -38 -3 -29 -9z"/>
<path d="M4393 2839 c16 -9 18 -23 16 -102 -1 -72 1 -93 12 -95 11 -2 14 15
12 90 -2 77 0 95 14 106 14 10 10 12 -28 12 -36 -1 -41 -3 -26 -11z"/>
<path d="M4494 2837 c20 -15 30 -108 16 -157 -6 -22 -5 -30 7 -34 25 -10 29 0
23 66 -7 89 -2 126 18 131 9 3 -5 5 -32 6 -43 1 -48 -1 -32 -12z"/>
<path d="M4603 2839 c14 -8 17 -24 17 -89 0 -47 -4 -82 -11 -86 -8 -4 -7 -9 2
-15 30 -19 34 -8 30 81 -2 61 1 95 9 105 11 13 7 15 -26 15 -31 -1 -36 -3 -21
-11z"/>
<path d="M3040 2830 c0 -5 5 -10 11 -10 5 0 7 5 4 10 -3 6 -8 10 -11 10 -2 0
-4 -4 -4 -10z"/>
<path d="M2750 2647 c-45 -52 -33 -49 28 7 30 28 41 47 25 45 -5 -1 -28 -24
-53 -52z"/>
<path d="M2914 2659 c42 -46 56 -57 56 -41 0 9 -54 61 -80 77 -8 5 3 -11 24
-36z"/>
<path d="M2037 2664 c-8 -8 1 -24 14 -24 5 0 9 7 9 15 0 15 -12 20 -23 9z"/>
<path d="M3748 2103 c23 -5 26 -15 24 -87 -1 -49 -29 -115 -60 -140 -13 -10
-21 -21 -18 -24 12 -11 64 58 81 107 l17 51 61 1 c34 0 56 3 50 6 -15 6 -17
59 -3 68 28 17 2 25 -82 24 -51 -1 -83 -4 -70 -6z m130 -34 c-4 -38 -26 -54
-61 -45 -21 5 -27 12 -27 35 0 36 6 41 52 41 38 0 39 -1 36 -31z"/>
<path d="M1823 2086 c20 -20 24 -144 6 -178 -11 -20 -10 -21 55 -16 60 5 70 9
97 39 38 42 38 84 1 128 -26 31 -33 34 -102 39 -70 5 -74 4 -57 -12z m102 -10
c51 -22 71 -78 45 -127 -14 -26 -67 -51 -90 -44 -18 6 -20 16 -20 89 0 104 3
108 65 82z"/>
<path d="M2706 2092 c11 -6 18 -78 15 -144 0 -15 -8 -34 -17 -42 -14 -15 -12
-16 27 -16 36 0 40 2 29 15 -17 20 -14 176 3 187 7 4 -5 8 -28 8 -22 0 -35 -4
-29 -8z"/>
<path d="M3348 2093 c8 -3 12 -33 12 -98 0 -65 -4 -95 -12 -98 -7 -3 4 -6 26
-6 34 -1 37 1 26 15 -9 10 -13 42 -12 92 0 60 4 79 18 89 16 11 12 13 -27 12
-24 0 -38 -3 -31 -6z"/>
<path d="M3451 2092 c24 -10 24 -178 0 -192 -12 -7 -4 -9 29 -9 35 0 41 2 28
10 -15 8 -18 25 -18 94 0 69 3 86 18 94 13 8 7 10 -28 10 -25 0 -38 -3 -29 -7z"/>
<path d="M4204 2084 c12 -11 16 -35 16 -89 0 -54 -4 -78 -16 -89 -14 -15 -12
-16 25 -16 l40 0 -15 28 c-19 38 -19 146 2 166 14 15 12 16 -26 16 -38 0 -40
-1 -26 -16z"/>
<path d="M4308 2093 c16 -6 17 -174 0 -191 -9 -9 -3 -12 27 -12 30 0 36 3 27
12 -16 16 -16 170 0 186 9 9 3 12 -27 11 -22 0 -34 -3 -27 -6z"/>
<path d="M4403 2093 c15 -4 17 -17 17 -93 0 -74 -3 -91 -17 -99 -14 -8 -9 -10
27 -11 34 0 41 3 32 12 -15 15 -16 170 -1 185 8 8 -2 11 -33 10 -24 0 -35 -2
-25 -4z"/>
<path d="M3920 2009 c0 -18 2 -19 15 -9 8 7 15 16 15 21 0 5 -7 9 -15 9 -9 0
-15 -9 -15 -21z"/>
<path d="M3002 1993 c15 -15 31 -23 35 -19 9 8 -32 46 -50 46 -7 0 1 -12 15
-27z"/>
<path d="M3897 1954 c-22 -30 -34 -30 -58 -1 -10 12 -18 17 -19 11 0 -6 9 -19
20 -29 25 -23 14 -38 -46 -61 -24 -9 -42 -19 -40 -22 3 -2 30 7 59 22 51 24
56 25 83 11 16 -8 37 -15 47 -15 9 0 17 -5 17 -11 0 -5 5 -7 12 -3 7 4 -9 16
-41 30 l-52 23 22 31 c13 16 21 32 18 34 -2 2 -12 -7 -22 -20z"/>
<path d="M2050 1905 c0 -8 5 -15 10 -15 6 0 10 7 10 15 0 8 -4 15 -10 15 -5 0
-10 -7 -10 -15z"/>
<path d="M9251 736 c-7 -33 -21 -78 -31 -98 l-18 -38 53 0 c43 0 60 5 82 24
27 24 28 26 12 54 -15 27 -15 30 2 41 35 21 21 59 -26 74 -18 6 -17 5 3 -9 26
-19 28 -37 6 -58 -18 -19 -64 -21 -64 -3 0 6 7 25 15 41 18 35 19 32 -3 32
-15 0 -22 -13 -31 -60z m66 -48 c11 -14 25 -64 16 -54 -3 3 -12 -1 -20 -9 -14
-15 -54 -20 -65 -10 -3 3 -1 24 4 45 8 32 15 40 33 40 12 0 27 -6 32 -12z"/>
<path d="M12936 697 c-24 -32 -29 -43 -14 -29 24 22 44 30 34 13 -4 -5 -7 -29
-7 -53 -1 -23 -6 -51 -11 -60 -7 -15 -4 -18 24 -18 23 0 29 3 19 9 -15 10 -16
41 -3 134 5 31 6 57 3 56 -3 0 -24 -24 -45 -52z"/>
<path d="M12854 594 c-37 -40 -39 -44 -18 -44 16 0 24 7 26 23 2 12 13 26 26
32 23 10 28 20 14 29 -5 3 -26 -15 -48 -40z"/>
</g>
</svg>
