<?xml version="1.0" standalone="no"?>
<!DOCTYPE svg PUBLIC "-//W3C//DTD SVG 20010904//EN"
 "http://www.w3.org/TR/2001/REC-SVG-20010904/DTD/svg10.dtd">
<svg version="1.0" xmlns="http://www.w3.org/2000/svg"
 width="1450.000000pt" height="618.000000pt" viewBox="0 0 1450.000000 618.000000"
 preserveAspectRatio="xMidYMid meet">
<metadata>
Created by potrace 1.16, written by Peter Selinger 2001-2019
</metadata>
<g transform="translate(0.000000,618.000000) scale(0.100000,-0.100000)"
fill="#000000" stroke="none">
<path d="M4227 5967 c-4 -11 -16 -18 -29 -17 -44 4 -43 -3 2 -10 49 -8 80 -3
80 12 0 6 -9 8 -19 5 -13 -3 -21 1 -23 12 -3 14 -4 14 -11 -2z"/>
<path d="M4328 5960 c-15 -17 -15 -19 -1 -22 29 -5 103 4 103 13 0 4 -17 7
-37 6 -26 -1 -37 2 -35 11 3 17 -10 14 -30 -8z"/>
<path d="M10630 5973 c-1 -5 -2 -60 -3 -123 l-2 -115 -60 -6 c-51 -5 -46 -6
35 -6 52 0 83 2 68 4 -27 4 -28 6 -28 74 l0 69 55 0 c30 0 55 4 55 9 0 6 -24
7 -56 4 l-57 -6 5 51 c3 29 1 52 -3 52 -5 0 -9 -3 -9 -7z"/>
<path d="M10914 5955 c-3 -14 -13 -25 -23 -25 -14 0 -17 -14 -19 -100 -1 -63
2 -100 8 -100 5 0 10 5 10 10 0 15 67 12 73 -2 3 -7 6 16 6 52 1 54 4 67 21
78 11 7 20 19 20 27 0 7 10 21 22 29 12 9 17 16 10 16 -9 0 -11 7 -7 20 3 11
3 20 -2 20 -5 0 -15 -23 -23 -52 -17 -57 -44 -80 -38 -32 3 26 0 29 -24 26
-20 -2 -28 1 -28 12 0 8 5 18 10 21 13 8 13 25 0 25 -5 0 -12 -11 -16 -25z
m46 -80 c0 -21 -5 -35 -12 -36 -10 0 -10 -2 0 -6 6 -2 12 -20 12 -39 0 -32 -2
-34 -35 -34 -33 0 -35 2 -35 34 0 28 4 35 23 39 l22 4 -22 8 c-15 5 -23 15
-23 29 0 30 8 36 42 36 25 0 28 -3 28 -35z"/>
<path d="M11441 5980 c-2 -3 -4 -32 -6 -65 -1 -33 -3 -66 -4 -72 0 -7 -10 -13
-21 -13 -11 0 -20 -6 -20 -14 0 -18 -61 -30 -71 -14 -10 16 -1 25 31 31 21 4
20 4 -7 6 -44 1 -46 31 -3 31 30 0 30 1 29 48 l-2 48 -61 1 -62 1 -2 -49 c-2
-48 -2 -49 28 -49 42 0 40 -27 -2 -33 l-33 -4 33 -1 c26 -2 33 -6 30 -19 -2
-11 -12 -18 -26 -17 -12 0 -22 -3 -22 -8 0 -4 32 -8 70 -8 l70 0 0 -32 0 -33
55 3 55 4 0 54 c0 33 -4 54 -11 54 -7 0 -9 -9 -6 -21 3 -12 3 -35 0 -50 -5
-26 -10 -29 -44 -29 -39 0 -39 0 -39 39 0 40 10 50 53 52 12 0 16 3 10 6 -7 2
-13 20 -13 39 0 31 2 34 31 34 18 0 28 4 24 10 -3 6 -17 7 -30 4 -21 -5 -24
-2 -28 33 -2 21 -5 36 -6 33z m-139 -47 c7 -30 -4 -54 -21 -51 -9 2 -17 12
-20 23 -3 17 -1 18 13 6 10 -8 16 -9 16 -3 0 6 -4 14 -10 17 -15 9 -12 25 4
25 8 0 16 -8 18 -17z m38 7 c-20 -13 -33 -13 -25 0 3 6 14 10 23 10 15 0 15
-2 2 -10z m17 -44 c-4 -9 -13 -16 -22 -16 -18 0 -19 5 -4 32 13 24 35 9 26
-16z"/>
<path d="M11632 5973 c4 -15 -14 -78 -29 -101 -8 -13 -12 -26 -9 -30 3 -3 6 0
6 6 0 7 4 12 10 12 5 0 11 -35 13 -77 3 -68 3 -65 5 30 1 74 7 117 17 137 14
27 14 30 0 30 -8 0 -14 -3 -13 -7z"/>
<path d="M11748 5963 c0 -10 0 -28 1 -40 1 -20 -3 -23 -34 -23 -34 0 -35 -1
-35 -39 0 -34 3 -40 21 -38 18 1 18 3 5 13 -9 6 -16 21 -16 33 0 17 6 21 30
21 25 0 30 -4 30 -25 0 -14 -5 -25 -10 -25 -6 0 -8 -10 -4 -24 7 -29 -12 -60
-53 -87 -38 -25 -16 -24 25 1 29 18 36 19 60 6 40 -20 92 -30 92 -17 0 6 -11
11 -25 11 -21 0 -77 21 -93 35 -5 5 21 55 29 55 4 0 5 16 2 35 -5 34 -5 35 26
35 26 0 31 -4 31 -23 0 -15 -9 -28 -22 -35 -23 -10 -23 -10 2 -8 28 2 30 5 30
46 0 28 -3 30 -36 30 -31 0 -35 3 -34 23 4 39 0 57 -10 57 -5 0 -11 -8 -12
-17z"/>
<path d="M11982 5940 c-18 -22 -29 -40 -24 -40 10 0 72 66 72 75 0 14 -19 0
-48 -35z"/>
<path d="M12079 5965 c0 -5 -2 -27 -5 -47 l-5 -38 61 0 c59 0 60 1 60 28 0 15
3 36 6 47 5 18 0 20 -55 20 -34 0 -61 -4 -62 -10z m96 -20 c0 -12 -50 -19 -71
-11 -9 3 -12 11 -9 16 8 14 80 9 80 -5z m3 -37 c-5 -14 -51 -23 -74 -14 -27
10 -4 26 37 26 28 0 39 -4 37 -12z"/>
<path d="M14165 5969 c-44 -3 -70 -6 -57 -7 20 -2 22 -7 22 -66 0 -51 -6 -75
-30 -122 -17 -32 -23 -50 -14 -39 22 27 54 96 54 118 0 30 14 19 41 -33 l27
-50 -32 -19 c-18 -11 -43 -25 -57 -30 -13 -5 -19 -10 -13 -10 14 -1 72 24 96
41 14 10 24 8 56 -10 22 -12 50 -22 63 -21 19 0 14 4 -18 17 -65 27 -70 36
-41 74 14 18 30 44 37 56 11 21 11 23 -5 20 -9 -1 -18 -11 -20 -20 -3 -24 -44
-88 -55 -88 -15 0 -80 146 -73 164 4 11 19 16 51 16 44 0 45 -1 40 -27 -3 -16
-9 -36 -12 -46 -6 -13 -3 -16 9 -11 9 3 14 9 11 14 -2 4 0 22 5 41 5 18 6 36
2 39 -4 3 -43 2 -87 -1z"/>
<path d="M1475 5938 c0 -33 0 -33 -47 -31 l-48 2 0 -60 0 -61 48 3 47 3 3 -52
c2 -29 8 -52 13 -52 6 0 8 4 4 9 -3 6 -3 28 1 50 l7 41 48 0 49 0 0 58 0 57
-46 1 c-47 1 -71 19 -54 40 11 12 3 24 -14 24 -6 0 -11 -15 -11 -32z m-2 -47
c4 -1 7 -19 7 -42 l0 -40 -42 3 c-39 3 -43 6 -46 31 -5 45 3 55 40 52 18 -2
36 -4 41 -4z m88 -1 c16 0 19 -7 19 -41 l0 -40 -42 3 c-34 2 -42 7 -43 24 -2
36 13 67 31 60 9 -3 24 -6 35 -6z"/>
<path d="M3525 5943 l-7 -28 -19 25 c-19 23 -20 24 -14 3 4 -15 1 -23 -12 -26
-10 -3 -3 -5 16 -6 32 -1 33 -2 27 -32 -3 -17 -12 -41 -18 -54 -29 -51 -57
-109 -46 -91 41 61 49 65 138 68 l85 2 -2 -39 c-3 -46 -5 -47 -39 -47 -18 0
-22 -3 -13 -9 34 -22 62 7 72 74 5 32 3 37 -14 37 -16 0 -20 6 -17 28 2 21 -1
26 -14 24 -14 -2 -18 4 -18 25 0 27 -1 28 -45 25 -45 -4 -46 -4 -39 22 3 15 2
26 -4 26 -5 0 -13 -12 -17 -27z m88 -39 c15 -16 -8 -34 -44 -34 -37 0 -51 15
-32 33 8 9 68 9 76 1z m37 -51 c-1 -23 -21 -33 -73 -34 -63 -2 -70 1 -61 25 5
12 20 16 70 16 35 0 64 -3 64 -7z"/>
<path d="M4631 5954 c-8 -10 -11 -27 -7 -44 3 -19 0 -34 -9 -44 -10 -10 -11
-16 -3 -18 7 -3 10 -29 9 -77 -1 -49 1 -71 8 -66 6 3 10 18 9 33 -1 15 -1 46
0 70 2 35 5 42 22 42 11 0 20 5 20 10 0 6 -9 10 -20 10 -17 0 -20 7 -20 40 0
34 3 40 21 40 11 0 17 5 14 10 -9 14 -28 12 -44 -6z"/>
<path d="M4742 5950 c-7 -11 -27 -30 -45 -41 -27 -17 -28 -19 -7 -13 31 8 101
74 80 74 -9 0 -21 -9 -28 -20z"/>
<path d="M7292 5961 c-11 -7 -11 -9 2 -14 9 -4 16 -13 16 -20 0 -8 9 -22 20
-32 11 -10 20 -22 20 -27 0 -4 -41 -8 -90 -8 l-91 0 31 45 c22 32 27 45 16 45
-8 0 -18 -10 -21 -22 -4 -13 -21 -38 -38 -55 -17 -18 -26 -33 -20 -33 7 0 15
5 18 10 4 6 12 7 18 3 7 -4 22 -6 35 -4 19 2 22 -2 22 -29 0 -23 -11 -42 -45
-76 -39 -38 -41 -42 -16 -29 37 18 58 48 72 98 9 35 12 37 49 37 29 0 40 -4
40 -15 0 -8 5 -15 10 -15 6 0 10 7 10 15 0 9 9 15 25 15 14 0 25 5 25 10 0 6
-9 10 -19 10 -20 0 -54 40 -69 79 -5 13 -11 18 -20 12z"/>
<path d="M7737 5963 c-4 -3 -7 -60 -7 -125 l0 -118 -27 -1 -28 -1 25 -7 c14
-5 30 -4 35 1 11 9 24 258 14 258 -3 0 -9 -3 -12 -7z"/>
<path d="M7900 5953 c9 -20 8 -23 -10 -23 -12 0 -18 -4 -15 -10 4 -6 14 -10
23 -9 32 3 42 -1 42 -16 0 -8 -4 -15 -10 -15 -5 0 -10 -7 -10 -15 0 -17 11
-20 26 -6 5 5 18 11 29 14 18 4 18 5 -2 6 -23 1 -31 25 -13 36 17 10 70 -5 70
-21 0 -8 -5 -14 -11 -14 -5 0 -7 -5 -4 -11 12 -19 28 -4 30 29 3 32 2 32 -42
32 -41 0 -45 2 -40 21 3 13 1 19 -6 16 -7 -2 -11 -12 -11 -21 2 -23 -14 -20
-37 7 l-20 22 11 -22z"/>
<path d="M9275 5959 c-44 -3 -70 -6 -58 -7 30 -3 32 -8 22 -87 -7 -53 -16 -80
-41 -115 -29 -42 -30 -43 -5 -21 22 20 43 63 64 131 4 13 5 13 13 0 7 -10 10
-11 10 -2 0 8 18 12 55 12 30 0 55 -4 55 -9 0 -6 -10 -26 -21 -46 -24 -40 -47
-43 -65 -7 -15 30 -27 41 -18 17 4 -11 14 -28 21 -37 20 -22 10 -36 -43 -58
-24 -11 -44 -22 -44 -24 0 -8 50 13 87 35 20 13 34 16 38 9 8 -12 71 -40 92
-40 23 0 6 17 -24 24 -16 3 -36 12 -47 20 -17 14 -17 16 7 48 13 18 28 43 32
56 5 19 3 22 -19 22 -22 0 -26 5 -26 28 0 15 5 33 11 39 16 16 -6 19 -96 12z
m75 -21 c-1 -45 -13 -58 -51 -58 -38 0 -39 1 -39 35 0 35 0 35 45 35 29 0 45
-4 45 -12z"/>
<path d="M1010 5833 l0 -128 120 0 120 0 0 125 0 126 -70 2 c-46 2 -70 -1 -70
-8 0 -7 12 -9 30 -6 17 2 30 0 30 -5 0 -5 -18 -9 -40 -9 -31 0 -38 3 -34 15 5
12 -3 15 -40 15 l-46 0 0 -127z m58 84 c3 -28 22 -39 22 -12 0 11 11 15 40 15
47 0 53 -16 10 -25 -17 -4 -28 -11 -25 -15 3 -5 -16 -11 -42 -13 -27 -2 -3 -3
52 -3 55 0 79 1 52 3 -45 4 -59 23 -16 23 14 0 19 7 19 25 0 21 5 25 30 25
l30 0 0 -110 0 -110 -85 0 c-50 0 -85 4 -85 10 0 6 28 10 65 10 l65 0 0 53 0
52 -70 0 -70 0 0 -62 c0 -56 -2 -63 -20 -63 -19 0 -20 7 -20 108 0 60 3 112 7
116 15 14 38 0 41 -27z m120 -119 c-3 -33 -4 -33 -60 -36 l-58 -3 0 36 0 35
61 0 60 0 -3 -32z"/>
<path d="M1087 5806 c-9 -24 6 -36 44 -36 34 0 39 3 39 24 0 20 -5 23 -39 23
-22 0 -42 -5 -44 -11z m63 -16 c0 -5 -9 -10 -19 -10 -11 0 -23 5 -26 10 -4 6
5 10 19 10 14 0 26 -4 26 -10z"/>
<path d="M4543 5953 c13 -3 17 -15 17 -48 0 -38 -2 -43 -20 -38 -11 3 -20 0
-20 -6 0 -6 8 -11 18 -11 10 0 21 -2 24 -5 10 -10 -12 -98 -29 -117 -9 -10
-14 -21 -10 -24 10 -10 39 45 49 94 6 26 9 67 8 90 0 24 3 49 9 55 7 9 -1 12
-27 13 -21 1 -29 0 -19 -3z"/>
<path d="M6170 5931 c0 -50 -9 -61 -51 -61 -38 0 -39 1 -39 34 0 19 6 37 13
39 6 3 -6 5 -28 5 -22 0 -32 -2 -22 -5 13 -4 17 -15 17 -56 0 -68 -14 -115
-45 -151 -35 -41 -31 -48 5 -8 17 18 36 53 42 77 11 41 38 63 38 31 0 -7 10
-26 22 -41 17 -22 19 -31 10 -46 -7 -11 -8 -19 -3 -19 5 0 11 5 13 11 2 7 23
2 57 -16 38 -19 57 -23 64 -16 8 8 4 11 -15 11 -14 0 -37 10 -52 21 -24 19
-25 23 -13 38 17 19 45 72 46 86 0 6 -11 9 -24 7 -22 -3 -25 1 -25 27 0 16 5
33 10 36 12 7 4 25 -11 25 -5 0 -9 -13 -9 -29z m40 -84 c0 -14 -43 -77 -52
-77 -12 0 -48 52 -48 71 0 12 9 19 28 21 38 4 72 -2 72 -15z"/>
<path d="M7510 5910 c0 -40 3 -48 15 -44 11 5 15 -1 15 -22 0 -42 -18 -101
-37 -119 -8 -9 -13 -18 -10 -22 8 -8 47 56 54 90 4 22 11 27 35 27 28 0 29 -1
26 -47 -3 -41 -6 -48 -28 -53 -23 -5 -23 -7 -6 -13 29 -11 44 11 52 74 l6 55
-36 -4 c-31 -4 -36 -1 -36 17 0 17 6 21 34 21 33 0 33 1 34 45 l1 45 -37 -2
-37 -1 33 -4 c29 -4 33 -7 28 -26 -3 -12 -6 -28 -6 -34 0 -9 -16 -13 -45 -13
-42 0 -45 2 -45 26 0 15 8 33 18 40 16 12 15 13 -5 14 -21 0 -23 -5 -23 -50z"/>
<path d="M12754 5913 c-22 -27 -47 -60 -56 -74 -9 -14 -31 -40 -48 -57 l-32
-32 27 0 c19 0 26 4 22 14 -10 26 22 57 56 54 34 -3 42 -22 21 -48 -11 -13
-10 -16 11 -18 24 -2 25 1 25 56 1 31 5 77 10 102 4 25 7 46 6 48 -2 1 -21
-19 -42 -45z m12 -39 c-3 -9 -6 -22 -6 -30 0 -8 -10 -14 -25 -14 -30 0 -31 9
-5 38 24 26 45 29 36 6z"/>
<path d="M12890 5933 c0 -34 -34 -149 -50 -168 -9 -11 2 -14 65 -14 72 0 76 1
85 25 14 36 12 42 -6 16 -12 -17 -25 -22 -60 -22 -48 0 -54 12 -34 64 10 28
50 37 50 11 0 -8 5 -15 10 -15 6 0 10 6 10 14 0 8 3 23 6 33 6 15 4 16 -7 6
-7 -7 -22 -13 -32 -13 -19 0 -19 10 -1 73 4 12 0 17 -15 17 -16 0 -21 -6 -21
-27z"/>
<path d="M12950 5950 c8 -5 23 -10 33 -10 9 0 17 -6 17 -12 0 -9 3 -8 10 2 12
19 -5 30 -45 30 -23 0 -27 -3 -15 -10z"/>
<path d="M13465 5912 c-22 -26 -53 -66 -69 -90 -16 -24 -36 -47 -45 -52 -13
-8 -12 -9 7 -10 12 0 22 6 22 13 0 22 34 47 63 47 20 0 27 -5 27 -19 0 -11 -5
-23 -11 -27 -8 -4 -7 -9 2 -14 23 -15 35 0 31 38 -2 20 1 64 6 97 6 33 9 61 8
62 -1 1 -20 -19 -41 -45z m10 -51 c-4 -21 -13 -31 -25 -31 -30 0 -31 16 -3 44
31 31 37 28 28 -13z"/>
<path d="M13606 5947 c7 -18 -35 -170 -50 -179 -6 -5 0 -8 14 -8 22 0 25 5 27
36 1 19 7 42 14 50 17 21 48 17 59 -8 l9 -23 0 22 c1 12 4 30 7 40 6 15 4 16
-7 6 -15 -15 -59 -18 -59 -4 0 4 5 23 11 41 11 31 13 32 60 28 27 -3 49 -1 49
3 0 5 -31 9 -70 9 -54 0 -68 -3 -64 -13z"/>
<path d="M302 5937 c-15 -7 -22 -19 -22 -39 0 -15 5 -28 10 -28 15 0 12 -28
-6 -55 -20 -30 -10 -63 23 -76 61 -23 98 58 44 98 -14 10 -14 14 5 35 39 41
-1 89 -54 65z m54 -29 c1 -9 -6 -24 -17 -34 -20 -18 -18 -20 -33 30 -6 19 4
27 28 24 10 -2 20 -11 22 -20z m-10 -104 c16 -23 16 -27 1 -41 -22 -22 -47 -9
-47 25 0 49 20 56 46 16z"/>
<path d="M2568 5941 c12 -7 11 -21 -3 -82 -10 -41 -27 -84 -38 -96 l-20 -23
49 1 c27 1 60 4 74 8 32 9 52 48 38 74 -7 15 -5 28 9 54 18 34 18 35 -6 54
-15 13 -38 19 -70 19 -29 0 -41 -3 -33 -9z m98 -25 c13 -34 -36 -74 -66 -56
-23 14 7 70 37 70 13 0 26 -6 29 -14z m-18 -105 c2 -12 -2 -29 -8 -37 -14 -15
-80 -20 -80 -5 0 18 21 66 32 72 19 12 53 -7 56 -30z"/>
<path d="M2766 5919 c-105 -92 -25 -235 89 -159 36 24 30 26 -13 4 -56 -28
-102 -1 -102 58 0 30 8 50 31 80 28 34 36 39 68 36 29 -2 37 -8 39 -25 5 -34
22 -28 22 7 0 29 -1 30 -50 30 -41 0 -55 -5 -84 -31z"/>
<path d="M2967 5910 c-9 -64 -35 -142 -54 -156 -16 -12 -12 -13 39 -14 123 0
188 63 158 155 -9 28 -19 37 -49 45 -21 5 -50 9 -64 8 -21 -2 -26 -8 -30 -38z
m113 1 c14 -28 12 -77 -5 -110 -15 -29 -39 -41 -89 -41 -28 0 -28 1 -22 45 4
25 14 57 22 73 7 15 14 33 14 40 0 21 68 15 80 -7z"/>
<path d="M5567 5930 c5 -19 -32 -157 -47 -175 -9 -11 3 -13 60 -13 58 0 72 3
80 18 15 29 12 35 -9 16 -13 -12 -32 -16 -59 -14 l-40 3 12 35 c11 36 42 52
56 30 5 -8 11 -1 18 19 11 30 0 46 -11 17 -4 -9 -14 -12 -25 -9 -17 4 -18 9
-9 39 9 30 15 34 43 34 21 0 37 -6 43 -17 9 -16 10 -16 11 5 0 18 -6 22 -32
24 -91 4 -95 3 -91 -12z"/>
<path d="M6705 5931 c7 -18 -33 -152 -53 -173 -14 -17 -13 -18 14 -18 26 0 29
3 30 33 0 18 3 41 7 50 7 20 57 24 57 5 0 -17 20 12 20 30 0 10 -5 10 -20 2
-11 -6 -26 -7 -34 -3 -11 7 -11 13 1 41 12 28 17 32 53 32 29 0 40 -4 40 -15
0 -8 5 -15 10 -15 6 0 10 9 10 20 0 16 -7 20 -37 21 -21 0 -53 1 -71 2 -23 2
-31 -2 -27 -12z"/>
<path d="M8615 5920 c-50 -71 -118 -155 -126 -158 -16 -6 -10 -22 9 -22 12 0
21 11 27 33 9 28 15 32 48 35 36 3 38 2 32 -20 -4 -13 -12 -24 -16 -26 -22 -9
-6 -18 22 -14 17 3 26 8 20 11 -7 5 -7 34 -1 96 5 49 8 90 7 91 -1 1 -11 -11
-22 -26z m-9 -86 c-7 -17 -36 -19 -36 -1 0 7 8 24 18 37 l17 25 3 -23 c2 -13
1 -30 -2 -38z"/>
<path d="M8735 5942 c13 -8 12 -10 -4 -87 -7 -32 -20 -70 -28 -82 -15 -23 -15
-23 39 -23 32 0 62 6 76 16 24 16 29 53 11 71 -9 9 -6 18 9 38 35 45 7 75 -70
75 -24 0 -38 -4 -33 -8z m86 -12 c23 -13 24 -28 2 -52 -19 -22 -63 -24 -63 -4
0 25 19 66 30 66 6 0 20 -5 31 -10z m-16 -93 c24 -18 14 -62 -17 -71 -58 -15
-70 0 -48 58 11 29 36 33 65 13z"/>
<path d="M9919 5929 c-17 -33 -100 -142 -122 -161 -18 -17 -18 -18 -1 -18 12
0 24 12 32 30 14 30 51 48 72 35 12 -8 3 -46 -14 -57 -6 -4 7 -8 29 -8 28 0
36 3 26 9 -16 10 -17 86 -2 154 10 40 -2 50 -20 16z m-9 -69 c0 -23 -4 -30
-20 -30 -24 0 -25 4 -4 35 21 32 24 31 24 -5z"/>
<path d="M10038 5942 c20 -13 -25 -171 -52 -183 -14 -6 3 -8 54 -6 83 4 119
21 138 63 24 51 7 118 -32 128 -33 9 -123 7 -108 -2z m118 -27 c21 -33 13 -91
-18 -122 -13 -12 -42 -25 -65 -29 -56 -9 -56 -6 2 164 8 23 63 14 81 -13z"/>
<path d="M11815 5940 c3 -5 12 -10 20 -10 8 0 17 5 20 10 4 6 -5 10 -20 10
-15 0 -24 -4 -20 -10z"/>
<path d="M155 5930 c-15 -7 -16 -9 -4 -9 14 -1 16 -12 13 -82 -2 -44 -6 -85
-9 -89 -3 -5 -1 -11 4 -14 12 -8 42 4 36 14 -2 4 -6 48 -7 99 -1 50 -5 91 -8
90 -3 0 -14 -4 -25 -9z"/>
<path d="M2460 5933 c0 -10 -100 -139 -132 -171 l-23 -24 24 4 c14 1 25 11 27
20 3 27 30 48 58 48 20 0 26 -5 26 -23 0 -13 -5 -28 -12 -35 -9 -9 -5 -12 21
-12 28 0 32 2 21 15 -8 10 -10 38 -5 100 4 47 5 85 1 85 -3 0 -6 -3 -6 -7z
m-10 -60 c-1 -29 -15 -53 -31 -53 -23 0 -24 9 -3 38 15 21 34 30 34 15z"/>
<path d="M7679 5878 c0 -35 -2 -71 -4 -80 -2 -10 1 -18 5 -18 5 0 10 36 12 80
2 44 0 80 -4 80 -5 0 -8 -28 -9 -62z"/>
<path d="M11110 5930 c-17 -5 -19 -8 -7 -9 14 -1 17 -11 16 -63 -2 -105 -9
-122 -49 -128 -33 -5 -34 -6 -10 -13 42 -12 49 -8 59 31 8 30 23 194 18 191
-1 -1 -13 -5 -27 -9z"/>
<path d="M4285 5918 c-6 -10 -27 -18 -55 -21 l-45 -4 48 -1 c69 -3 58 -22 -14
-22 -34 0 -58 -4 -54 -9 3 -5 19 -8 35 -6 42 6 38 -16 -6 -40 -20 -11 -31 -21
-25 -23 7 -2 31 12 56 32 50 42 67 44 94 14 25 -26 19 -38 -20 -38 -29 0 -40
14 -16 23 7 3 5 6 -5 6 -9 1 -21 -5 -25 -13 -4 -8 -25 -24 -45 -36 -46 -26
-48 -33 -9 -19 21 7 36 7 51 -1 27 -15 18 -28 -28 -36 -20 -4 -44 -11 -52 -16
-16 -10 -17 -10 77 13 40 10 61 10 91 1 48 -15 92 -15 92 -2 0 6 -19 10 -42
10 -24 0 -50 4 -58 10 -12 8 -12 11 3 28 9 10 17 24 17 30 0 7 15 12 34 12 19
0 38 5 41 10 4 6 -12 10 -39 10 -62 0 -58 16 5 25 68 10 54 19 -26 16 -40 -1
-65 2 -65 8 0 6 20 11 46 11 25 0 43 4 40 9 -3 5 -24 7 -45 4 -33 -4 -40 -2
-43 13 -3 17 -5 18 -13 2z m27 -148 c-19 -16 -27 -17 -48 -8 -37 17 -29 28 24
28 l47 -1 -23 -19z"/>
<path d="M12015 5909 c-4 -11 -21 -37 -38 -56 -26 -30 -28 -34 -9 -24 21 11
22 10 23 -26 1 -21 0 -50 -1 -65 -1 -16 3 -28 9 -28 7 0 11 31 11 85 0 70 3
88 19 104 11 11 17 22 14 25 -12 11 -22 6 -28 -15z"/>
<path d="M4750 5873 c-12 -15 -36 -36 -53 -46 -27 -15 -28 -17 -7 -11 27 7 98
70 88 79 -3 3 -16 -7 -28 -22z"/>
<path d="M8058 5853 c-3 -27 -5 -28 -70 -31 -50 -2 -68 0 -68 10 -1 7 -8 -3
-16 -22 -8 -19 -25 -45 -36 -57 -12 -13 -19 -26 -16 -29 3 -3 20 15 38 40 l31
46 84 0 85 0 0 -28 c0 -33 -17 -59 -45 -65 -16 -4 -14 -5 6 -6 33 -1 45 13 57
67 10 41 9 42 -15 42 -23 0 -25 3 -19 30 3 17 1 30 -4 30 -5 0 -10 -12 -12
-27z"/>
<path d="M1839 5863 c-4 -30 -3 -73 2 -73 9 0 19 27 19 50 0 19 -19 39 -21 23z"/>
<path d="M4994 5856 c-10 -26 4 -48 28 -44 17 2 23 10 23 28 0 18 -6 26 -23
28 -13 2 -25 -3 -28 -12z m46 -16 c0 -21 -24 -28 -35 -10 -8 14 3 30 21 30 8
0 14 -9 14 -20z"/>
<path d="M11038 5849 c12 -14 22 -31 22 -37 0 -7 5 -12 10 -12 22 0 9 24 -30
55 l-25 20 23 -26z"/>
<path d="M13104 5861 c6 -8 135 -5 145 4 2 3 -30 5 -73 5 -42 0 -75 -4 -72 -9z"/>
<path d="M4029 5855 c-3 -2 -58 -5 -122 -6 -64 0 -115 -4 -112 -8 6 -11 258
-1 270 10 5 5 1 9 -11 9 -12 0 -23 -2 -25 -5z"/>
<path d="M12120 5849 l-95 -5 73 -2 c54 -1 73 -5 69 -14 -2 -9 -26 -13 -69
-13 -37 0 -70 -3 -74 -7 -4 -5 27 -8 70 -8 l77 0 -3 -32 c-2 -25 -9 -34 -28
-38 l-25 -6 24 -7 c34 -9 41 -1 41 44 0 37 1 39 32 39 17 0 28 3 24 8 -4 4
-15 7 -24 7 -26 0 -26 19 0 25 44 11 2 15 -92 9z"/>
<path d="M4740 5772 c-25 -26 -54 -53 -65 -60 -11 -7 -2 -4 20 7 37 18 59 38
94 84 26 34 -5 14 -49 -31z"/>
<path d="M13133 5813 c-61 -8 -34 -23 37 -21 39 1 70 5 70 9 0 6 -56 21 -69
17 -3 0 -21 -3 -38 -5z"/>
<path d="M7337 5803 c-4 -3 -7 -19 -7 -33 0 -34 -22 -54 -52 -45 -22 6 -22 5
2 -9 36 -21 57 -5 62 46 5 47 5 51 -5 41z"/>
<path d="M3630 5782 c0 -5 7 -15 15 -22 8 -7 15 -8 15 -2 0 5 -7 15 -15 22 -8
7 -15 8 -15 2z"/>
<path d="M8001 5785 c1 -19 18 -51 18 -35 0 8 -4 22 -9 30 -5 8 -9 11 -9 5z"/>
<path d="M8040 5786 c0 -2 7 -9 15 -16 13 -11 14 -10 9 4 -5 14 -24 23 -24 12z"/>
<path d="M12082 5770 c13 -20 28 -27 28 -12 0 10 -22 32 -32 32 -5 0 -3 -9 4
-20z"/>
<path d="M3541 5758 c-1 -16 4 -28 9 -28 12 0 12 8 0 35 -8 18 -9 17 -9 -7z"/>
<path d="M3587 5760 c7 -25 23 -37 23 -17 0 8 -6 20 -14 26 -12 10 -13 8 -9
-9z"/>
<path d="M430 5755 c0 -9 5 -15 10 -13 12 4 11 16 -1 24 -5 3 -9 -2 -9 -11z"/>
<path d="M3496 5753 c-3 -10 -9 -25 -13 -33 -5 -13 -4 -13 9 -2 18 14 31 52
18 52 -4 0 -10 -8 -14 -17z"/>
<path d="M7962 5750 c0 -14 2 -19 5 -12 2 6 2 18 0 25 -3 6 -5 1 -5 -13z"/>
<path d="M11245 5750 c-4 -12 -5 -24 -2 -27 3 -2 8 5 12 17 4 12 5 24 2 27 -3
2 -8 -5 -12 -17z"/>
<path d="M11317 5750 c3 -11 9 -20 13 -20 5 0 6 9 3 20 -3 11 -9 20 -13 20 -5
0 -6 -9 -3 -20z"/>
<path d="M7906 5744 c-4 -9 -4 -19 -1 -22 2 -3 7 3 11 12 4 9 4 19 1 22 -2 3
-7 -3 -11 -12z"/>
<path d="M11350 5751 c0 -5 5 -13 10 -16 6 -3 10 -2 10 4 0 5 -4 13 -10 16 -5
3 -10 2 -10 -4z"/>
<path d="M11280 5741 c0 -5 5 -13 10 -16 6 -3 10 -2 10 4 0 5 -4 13 -10 16 -5
3 -10 2 -10 -4z"/>
<path d="M10740 5730 c-12 -8 -9 -10 13 -10 15 0 27 5 27 10 0 13 -20 13 -40
0z"/>
<path d="M6080 5720 c-8 -5 -10 -10 -5 -10 6 0 17 5 25 10 8 5 11 10 5 10 -5
0 -17 -5 -25 -10z"/>
<path d="M6035 5700 c-3 -6 1 -7 9 -4 18 7 21 14 7 14 -6 0 -13 -4 -16 -10z"/>
<path d="M3317 5557 c-3 -9 -2 -27 3 -39 6 -15 9 -17 9 -7 1 9 11 21 24 27
l22 11 -22 0 c-12 1 -23 6 -25 13 -3 7 -7 6 -11 -5z"/>
<path d="M3418 5549 c-10 -10 -13 -19 -8 -19 6 0 10 -8 10 -17 0 -27 22 1 25
31 4 30 -3 32 -27 5z"/>
<path d="M6140 5473 c0 -77 3 -93 15 -93 14 0 14 -3 0 -30 -9 -16 -20 -30 -25
-30 -6 0 -10 -6 -10 -12 0 -7 17 6 38 30 27 31 45 42 65 42 l27 0 0 85 c0 47
-1 88 -2 91 -2 4 -27 7 -56 8 l-52 1 0 -92z m100 27 l0 -50 -46 0 c-41 0 -45
2 -42 23 2 16 12 24 38 28 l35 6 -37 2 c-31 1 -38 5 -38 21 0 17 7 20 45 20
l45 0 0 -50z m-2 -82 c-2 -19 -9 -23 -41 -23 -41 -1 -52 7 -43 30 3 10 20 15
46 15 37 0 41 -2 38 -22z"/>
<path d="M6368 5453 l-3 -118 -30 -5 -30 -6 29 -7 c16 -5 32 -4 37 0 10 10 17
253 7 253 -4 0 -9 -53 -10 -117z"/>
<path d="M2379 5541 c-13 -10 -21 -22 -17 -26 4 -4 14 0 23 9 32 31 65 12 65
-39 0 -22 -13 -45 -45 -82 -49 -56 -46 -62 23 -55 31 3 46 10 53 26 10 17 9
19 -2 9 -15 -14 -79 -18 -79 -5 0 5 9 17 21 28 41 37 61 100 41 131 -14 23
-57 25 -83 4z"/>
<path d="M2538 5549 c-11 -6 -18 -22 -18 -39 0 -38 40 -52 70 -25 25 22 25 37
2 58 -21 19 -30 20 -54 6z m50 -31 c-3 -25 -34 -36 -50 -20 -17 17 -1 42 27
42 22 0 26 -4 23 -22z"/>
<path d="M3890 5459 c-52 -55 -97 -102 -99 -104 -2 -3 42 -5 98 -5 71 0 100 3
95 11 -4 7 -32 9 -80 6 -41 -3 -74 -2 -74 2 0 4 36 45 80 90 66 69 93 103 78
101 -2 -1 -46 -46 -98 -101z"/>
<path d="M4092 5553 c13 -3 15 -9 8 -27 -4 -12 -16 -54 -25 -92 -10 -38 -23
-72 -29 -76 -6 -4 12 -8 40 -8 37 0 59 6 78 21 26 21 34 57 16 75 -7 7 -3 18
11 33 14 15 19 30 15 45 -7 27 -32 36 -91 35 -22 -1 -32 -3 -23 -6z m88 -22
c12 -24 4 -48 -20 -61 -30 -16 -51 -2 -44 29 13 52 44 68 64 32z m-16 -91 c15
-15 -3 -56 -29 -68 -56 -26 -67 -10 -40 54 12 30 18 34 37 29 13 -4 27 -11 32
-15z"/>
<path d="M4310 5474 c-99 -131 -95 -124 -76 -124 9 0 16 8 16 18 0 26 32 52
63 52 21 0 27 -5 27 -23 0 -13 -5 -28 -12 -35 -9 -9 -4 -12 23 -11 18 0 28 3
22 6 -16 6 -16 51 -2 127 5 31 9 61 7 66 -2 6 -32 -29 -68 -76z m38 -11 c-2
-20 -9 -29 -25 -31 -28 -4 -28 2 -5 33 23 32 34 31 30 -2z"/>
<path d="M4475 5550 c9 -15 -35 -174 -52 -187 -27 -21 91 -17 134 4 81 38 97
150 26 182 -30 14 -117 15 -108 1z m94 -10 c10 -5 24 -23 31 -40 11 -26 10
-36 -5 -70 -10 -23 -28 -43 -44 -49 -45 -18 -79 -23 -85 -13 -3 6 6 49 21 96
28 90 38 100 82 76z"/>
<path d="M4996 5552 c-13 -3 -15 -6 -6 -12 15 -9 19 -66 10 -137 l-7 -53 31 0
c26 1 28 2 14 11 -15 8 -17 22 -13 99 3 49 2 91 -2 93 -5 2 -17 2 -27 -1z"/>
<path d="M5156 5552 c-12 -3 -15 -7 -7 -11 17 -11 17 -171 -1 -182 -8 -6 -1
-9 22 -9 20 0 30 4 23 8 -8 5 -13 42 -15 103 -3 86 -5 94 -22 91z"/>
<path d="M5298 5549 c-22 -12 -40 -79 -32 -116 13 -63 26 -83 51 -83 40 0 57
26 61 94 3 51 0 65 -18 89 -23 29 -35 32 -62 16z m52 -25 c13 -33 13 -79 -1
-126 -17 -62 -56 -44 -60 27 -4 67 0 93 17 109 22 22 33 20 44 -10z"/>
<path d="M5432 5548 c-18 -18 -14 -53 8 -73 19 -17 21 -17 40 0 25 23 26 61 1
75 -25 13 -34 13 -49 -2z m53 -33 c0 -22 -31 -33 -47 -17 -17 17 -1 44 24 40
15 -2 23 -10 23 -23z"/>
<path d="M7130 5545 c8 -9 3 -37 -19 -104 l-29 -91 74 0 c41 0 74 4 74 9 0 5
3 18 7 28 5 15 2 15 -19 -4 -22 -21 -86 -32 -100 -18 -3 3 0 22 8 43 11 32 17
37 42 36 24 -1 31 3 35 22 4 23 3 23 -13 9 -20 -18 -51 -20 -46 -2 3 6 7 24
10 40 6 24 11 27 45 27 29 0 41 -5 44 -17 4 -14 5 -12 6 5 1 18 -5 22 -31 23
-18 1 -48 3 -66 5 -26 2 -31 0 -22 -11z"/>
<path d="M7338 5545 c-34 -19 -69 -76 -70 -114 -1 -38 25 -79 54 -83 42 -6 74
3 88 25 12 21 12 21 -7 5 -30 -27 -79 -23 -99 7 -23 35 -10 100 26 137 43 42
100 34 100 -15 0 -10 5 -15 10 -12 6 3 10 17 10 29 0 18 -7 25 -31 30 -43 8
-50 7 -81 -9z"/>
<path d="M1143 5452 l-92 -97 67 -5 c37 -3 81 -3 97 1 20 5 2 7 -52 8 -46 1
-83 4 -83 7 0 4 38 44 85 89 47 46 85 86 85 89 0 17 -23 -3 -107 -92z"/>
<path d="M1346 5513 c1 -40 -19 -116 -40 -147 -13 -20 -11 -21 60 -24 72 -3
74 -3 84 23 15 39 13 41 -15 11 -24 -26 -78 -36 -90 -16 -10 16 7 81 23 87 8
4 20 -1 27 -11 12 -15 14 -14 23 14 7 18 7 30 1 30 -5 0 -9 -4 -9 -10 0 -5
-11 -10 -25 -10 -18 0 -25 5 -25 20 0 11 4 20 9 20 5 0 11 9 14 20 7 26 61 28
76 3 9 -16 10 -16 11 5 0 20 -4 22 -62 22 l-63 0 1 -37z"/>
<path d="M1538 5521 c-49 -42 -61 -88 -37 -140 17 -39 20 -41 62 -41 33 0 49
5 63 23 19 22 19 22 -2 5 -31 -27 -80 -23 -100 7 -39 60 14 165 83 165 27 0
34 -5 39 -26 5 -19 9 -22 15 -12 21 32 10 44 -40 47 -42 2 -54 -2 -83 -28z"/>
<path d="M1737 5539 c14 -14 -28 -177 -48 -190 -10 -6 -3 -8 21 -8 19 0 30 3
24 5 -15 6 4 91 23 98 20 8 43 -4 44 -23 0 -9 6 0 13 19 7 19 10 37 8 40 -3 3
-7 -1 -9 -7 -6 -18 -53 -16 -53 1 0 8 4 26 10 40 7 20 17 26 39 26 16 0 37 -7
45 -16 15 -14 16 -14 16 5 0 19 -6 21 -72 21 -52 0 -69 -3 -61 -11z"/>
<path d="M2283 5538 c-32 -40 -83 -119 -83 -128 0 -5 18 -10 40 -10 25 0 40
-5 41 -12 3 -29 4 -33 14 -35 6 -2 10 6 10 17 0 12 7 25 15 31 13 8 13 11 -2
19 -13 8 -16 22 -14 70 3 59 -2 72 -21 48z m4 -76 c-2 -34 -5 -37 -35 -40 -17
-2 -32 -1 -32 3 0 15 53 84 61 79 5 -3 8 -22 6 -42z"/>
<path d="M3240 5538 c0 -4 14 -8 30 -8 17 0 30 2 30 4 0 2 -13 6 -30 8 -16 3
-30 1 -30 -4z"/>
<path d="M3488 5543 c7 -3 16 -2 19 1 4 3 -2 6 -13 5 -11 0 -14 -3 -6 -6z"/>
<path d="M6306 5533 c-8 -27 -3 -153 6 -153 4 0 8 38 8 85 0 84 -4 101 -14 68z"/>
<path d="M6732 5454 c-51 -52 -92 -98 -92 -102 0 -9 176 -9 186 1 4 4 -29 7
-74 7 -45 0 -82 3 -82 7 0 4 37 45 82 90 45 45 80 85 77 87 -3 3 -46 -38 -97
-90z"/>
<path d="M6942 5503 c-7 -27 -18 -66 -24 -88 -5 -22 -14 -45 -19 -51 -14 -17
8 -22 66 -15 40 5 52 11 65 33 12 23 13 31 2 48 -10 17 -9 25 9 49 17 23 19
32 10 50 -9 16 -21 21 -54 21 -42 0 -43 0 -55 -47z m88 9 c0 -34 -16 -52 -47
-52 -25 0 -26 3 -17 49 6 26 11 31 35 31 25 0 29 -4 29 -28z m-22 -74 c17 -17
15 -35 -8 -58 -23 -23 -70 -27 -70 -6 0 7 5 27 11 45 12 33 44 42 67 19z"/>
<path d="M3350 5480 c-8 -16 -22 -20 -63 -22 l-52 -2 48 -3 c26 -2 47 -9 47
-15 0 -6 -20 -30 -44 -54 -24 -24 -39 -44 -35 -44 5 0 18 9 29 20 29 29 40 25
40 -17 l0 -38 80 3 80 4 0 44 c0 43 -1 44 -32 43 -28 -1 -30 -2 -10 -7 13 -4
23 -10 23 -14 -1 -5 -1 -19 -1 -33 0 -24 -2 -25 -65 -25 l-65 0 0 34 c0 24 5
36 18 39 16 4 16 5 0 6 -21 1 -22 5 -8 32 9 16 22 19 90 19 44 0 80 3 80 8 0
4 -34 6 -76 4 -74 -4 -77 -4 -71 17 7 26 1 27 -13 1z"/>
<path d="M5780 5467 c0 -7 5 -18 11 -24 8 -8 8 -13 0 -17 -6 -4 -11 -13 -11
-19 1 -7 9 -1 20 11 15 18 17 28 10 43 -12 22 -30 25 -30 6z"/>
<path d="M2894 5456 c-10 -26 4 -48 28 -44 17 2 23 10 23 28 0 18 -6 26 -23
28 -13 2 -25 -3 -28 -12z m41 -16 c0 -8 -8 -16 -17 -18 -13 -2 -18 3 -18 18 0
15 5 20 18 18 9 -2 17 -10 17 -18z"/>
<path d="M4730 5460 c0 -6 32 -10 75 -10 43 0 75 4 75 10 0 6 -32 10 -75 10
-43 0 -75 -4 -75 -10z"/>
<path d="M7540 5459 c0 -5 34 -9 77 -9 42 0 74 2 71 5 -9 10 -148 13 -148 4z"/>
<path d="M1970 5450 c0 -9 138 -3 149 6 2 2 -30 4 -72 4 -45 0 -77 -4 -77 -10z"/>
<path d="M4733 5404 c11 -11 117 -15 135 -5 12 8 -4 10 -62 11 -44 0 -77 -3
-73 -6z"/>
<path d="M7545 5400 c3 -5 37 -10 76 -10 39 0 69 4 69 10 0 6 -32 10 -76 10
-47 0 -73 -4 -69 -10z"/>
<path d="M1970 5390 c9 -5 46 -5 85 -1 l70 8 -85 1 c-55 1 -80 -2 -70 -8z"/>
<path d="M6236 5338 c10 -14 21 -24 23 -22 3 3 -6 15 -18 27 l-24 22 19 -27z"/>
<path d="M1941 4718 c-27 -67 -65 -145 -78 -160 -15 -17 -14 -18 11 -18 16 0
25 4 21 10 -21 35 34 68 83 49 18 -7 23 -15 20 -37 -2 -17 2 -27 10 -26 47 4
46 3 30 22 -8 9 -23 40 -33 67 -10 28 -22 54 -27 60 -4 5 -8 17 -8 26 0 28
-19 32 -29 7z m23 -60 c9 -35 8 -38 -19 -38 -27 0 -31 10 -15 41 14 25 26 24
34 -3z"/>
<path d="M2983 4729 c-25 -9 -34 -32 -35 -96 -2 -59 15 -93 45 -93 38 1 57 24
63 76 9 81 -24 132 -73 113z m51 -51 c17 -70 -22 -154 -56 -120 -14 14 -17
116 -6 145 14 33 52 17 62 -25z"/>
<path d="M2807 4723 c-4 -3 -7 -12 -7 -19 0 -9 7 -10 29 -1 37 13 66 3 56 -21
-29 -67 -53 -142 -46 -142 8 0 71 161 71 181 0 10 -93 12 -103 2z"/>
<path d="M3122 4714 c-13 -23 -3 -54 17 -53 10 0 11 2 4 6 -18 7 -16 42 3 50
8 3 23 -1 31 -10 13 -13 14 -19 3 -31 -7 -10 -8 -16 -2 -16 17 0 25 39 12 55
-17 20 -57 19 -68 -1z"/>
<path d="M3497 4663 c-4 -3 -7 -13 -7 -22 0 -12 3 -11 14 4 8 11 19 16 30 12
9 -4 16 -2 16 3 0 11 -43 14 -53 3z"/>
<path d="M3520 4620 c-23 -7 -23 -8 -3 -9 12 -1 25 4 28 9 3 6 5 10 3 9 -2 -1
-14 -5 -28 -9z"/>
<path d="M9535 4601 c-75 -33 -107 -148 -51 -186 30 -22 89 -19 117 6 l24 21
-25 -16 c-33 -21 -83 -20 -103 2 -21 23 -22 74 -2 112 33 63 106 82 127 33 11
-28 12 -28 16 -5 2 13 1 26 -1 29 -10 10 -82 13 -102 4z"/>
<path d="M13946 4574 c11 -4 -2 -62 -36 -167 -7 -21 -5 -29 6 -34 22 -8 85 6
120 28 34 21 44 43 44 100 0 43 -23 67 -71 74 l-34 5 32 -10 c32 -10 63 -52
63 -83 0 -8 -14 -33 -30 -55 -27 -37 -35 -42 -70 -42 -22 0 -40 3 -40 8 0 4 9
36 20 72 25 82 26 110 3 109 -10 0 -13 -3 -7 -5z"/>
<path d="M2090 4551 c0 -6 5 -13 10 -16 6 -3 10 1 10 9 0 9 -4 16 -10 16 -5 0
-10 -4 -10 -9z"/>
<path d="M9690 4384 c-6 -14 -10 -28 -10 -31 0 -7 -44 -107 -92 -213 -17 -36
-34 -74 -39 -85 -4 -11 -27 -63 -50 -115 -22 -52 -43 -105 -46 -117 -3 -12
-11 -28 -19 -34 -8 -6 -14 -18 -14 -26 0 -7 -16 -48 -35 -91 -18 -42 -75 -174
-125 -292 -50 -118 -99 -233 -109 -255 -11 -22 -22 -51 -26 -65 -4 -14 -18
-47 -30 -75 -56 -124 -115 -268 -115 -281 0 -8 -4 -14 -10 -14 -5 0 -10 -8
-10 -18 0 -10 -6 -26 -14 -37 -7 -11 -26 -51 -41 -90 -33 -84 -58 -143 -91
-211 -13 -28 -24 -54 -24 -58 0 -4 -9 -26 -19 -50 -11 -23 -30 -67 -41 -97
-12 -30 -25 -58 -29 -64 -4 -5 -18 -37 -31 -70 -13 -33 -27 -64 -32 -69 -4 -6
-8 -16 -8 -24 0 -12 -64 -157 -90 -204 -6 -10 -10 -22 -10 -28 0 -6 -13 -38
-29 -73 -38 -79 -91 -203 -91 -212 0 -3 -11 -30 -23 -58 -28 -61 -78 -179
-142 -332 -25 -60 -50 -119 -55 -130 -24 -52 -40 -99 -35 -103 4 -4 1482 -5
3978 -2 l127 0 16 38 c9 20 20 45 25 54 5 10 27 64 50 120 55 138 85 214 164
403 37 88 76 183 87 210 11 28 23 55 27 60 4 6 18 37 31 70 13 33 29 69 36 80
6 11 15 31 19 45 4 14 18 48 30 75 12 28 48 109 80 180 31 72 68 153 81 180
13 28 24 54 24 58 0 4 14 36 30 70 17 35 30 67 30 71 0 4 11 32 25 62 14 30
25 57 25 60 0 5 62 157 86 209 7 17 33 82 58 145 25 63 61 153 81 200 20 47
45 108 55 135 17 46 90 219 137 325 12 25 35 79 52 120 17 41 38 89 46 105 8
17 35 77 60 135 26 58 55 123 65 145 10 22 33 74 50 115 18 41 41 94 51 117
11 23 19 47 19 52 0 8 -619 11 -2050 11 l-2051 0 -9 -26z m4075 -16 c-4 -13
-16 -43 -27 -68 -11 -25 -49 -112 -85 -195 -36 -82 -76 -172 -88 -200 -40 -84
-199 -454 -240 -555 -21 -52 -49 -119 -62 -148 -13 -29 -47 -112 -74 -185 -28
-73 -57 -145 -64 -162 -21 -47 -66 -156 -84 -205 -9 -25 -25 -59 -34 -77 -9
-18 -17 -37 -17 -44 0 -11 -109 -261 -136 -311 -8 -14 -14 -31 -14 -37 0 -6
-11 -35 -26 -64 -14 -28 -39 -85 -55 -124 -17 -40 -34 -73 -39 -73 -7 0 -301
242 -360 296 -37 34 -350 293 -404 334 -25 19 -59 46 -75 60 -32 27 -30 26
-118 97 -32 26 -69 57 -83 69 -14 12 -68 57 -120 100 -52 42 -105 86 -116 98
-12 12 -34 30 -49 41 -16 11 -42 33 -59 49 -17 16 -47 41 -66 55 -19 14 -39
31 -45 37 -5 5 -37 30 -70 54 -33 25 -69 54 -80 65 -19 19 -44 39 -126 102
-56 43 -132 105 -151 124 -27 27 -233 199 -503 420 -314 257 -283 231 -384
317 -47 41 -103 86 -123 100 -21 15 -38 33 -38 40 0 9 409 12 2011 12 l2010 0
-6 -22z m-3967 -60 c27 -24 104 -88 171 -143 67 -55 155 -128 195 -161 41 -34
80 -66 88 -73 7 -6 36 -29 63 -52 28 -22 73 -61 101 -86 29 -24 62 -52 75 -61
13 -9 29 -21 36 -27 19 -17 80 -68 228 -191 77 -64 154 -128 170 -143 17 -14
47 -39 68 -54 20 -16 48 -38 61 -50 13 -12 73 -60 132 -107 60 -47 129 -103
155 -125 25 -22 82 -69 125 -105 43 -35 81 -67 84 -70 6 -6 138 -116 185 -154
17 -14 73 -60 125 -103 52 -43 122 -98 154 -123 33 -25 75 -60 95 -77 20 -18
72 -63 117 -100 251 -210 309 -260 323 -275 8 -10 19 -18 23 -18 5 0 16 -8 26
-17 10 -10 39 -36 65 -57 26 -22 47 -45 47 -50 0 -6 -28 -74 -61 -151 -34 -77
-68 -153 -74 -170 -7 -16 -27 -62 -44 -102 -17 -39 -31 -74 -31 -77 0 -4 -9
-25 -19 -49 -34 -76 -91 -213 -91 -220 0 -3 -11 -31 -25 -61 -14 -30 -25 -57
-25 -60 0 -3 -11 -29 -24 -59 -14 -29 -34 -78 -45 -108 l-21 -54 -552 2 c-304
0 -592 1 -639 2 l-85 1 -17 48 c-9 26 -32 92 -52 147 -20 55 -45 127 -55 160
-11 33 -62 186 -115 340 -53 154 -103 303 -111 330 -9 28 -22 64 -28 80 -7 17
-23 59 -35 95 -37 110 -107 309 -150 430 -23 63 -51 144 -62 180 -12 36 -24
70 -28 75 -4 6 -13 30 -20 55 -7 25 -18 56 -23 70 -6 14 -24 63 -40 110 -17
47 -41 114 -54 150 -13 36 -36 103 -53 150 -16 47 -44 123 -61 170 -33 92 -50
140 -134 385 -30 88 -82 239 -116 335 -83 237 -90 260 -75 260 2 0 26 -19 53
-42z m-40 -90 c22 -68 71 -208 107 -313 37 -104 77 -221 90 -260 35 -108 134
-388 144 -410 9 -19 15 -37 21 -60 3 -13 73 -207 93 -260 9 -22 22 -60 30 -85
8 -25 26 -76 40 -115 41 -111 207 -583 233 -660 13 -38 50 -149 84 -245 86
-249 170 -501 170 -509 0 -3 -23 -17 -51 -31 -28 -14 -80 -53 -114 -87 -100
-99 -147 -190 -179 -344 l-13 -64 -1112 1 c-612 1 -1115 4 -1118 7 -3 3 7 30
21 61 14 30 26 57 26 61 0 3 27 68 60 145 33 77 60 141 60 144 0 3 12 31 26
63 15 31 46 104 69 162 58 142 64 156 146 341 15 36 69 160 118 275 96 227
141 332 176 410 13 28 26 61 30 75 4 14 16 41 26 60 10 19 43 96 74 170 31 74
63 149 70 165 8 17 26 59 40 95 14 36 32 79 40 95 7 17 39 91 70 165 31 74 70
163 86 198 16 34 29 65 29 68 0 6 53 131 76 179 8 16 31 68 51 115 19 47 62
145 94 217 33 73 59 135 59 138 0 4 11 30 24 58 13 29 26 62 30 75 15 45 33
20 74 -100z m1075 -3094 c26 -76 61 -177 78 -224 16 -47 32 -93 36 -102 5 -16
-5 -18 -113 -19 -66 0 -141 0 -169 -1 -27 0 -87 0 -132 1 l-83 1 0 43 c0 51
20 127 49 184 12 23 21 46 21 51 0 9 123 138 159 166 29 22 83 46 96 42 6 -1
32 -65 58 -142z"/>
<path d="M1858 3981 c14 -8 20 -159 8 -179 -5 -9 11 -12 58 -12 60 0 67 2 83
26 16 24 16 29 1 54 -10 17 -12 33 -7 41 28 44 -14 77 -101 77 -30 1 -49 -3
-42 -7z m97 -11 c19 0 29 -38 15 -55 -7 -8 -25 -15 -41 -15 -26 0 -29 3 -29
33 0 38 8 50 28 42 7 -3 20 -5 27 -5z m3 -86 c26 -8 39 -48 22 -69 -7 -8 -28
-15 -46 -15 -34 0 -34 1 -34 45 0 48 7 52 58 39z"/>
<path d="M2998 3974 c-50 -26 -75 -114 -48 -165 13 -23 62 -26 84 -3 23 22 21
81 -3 94 -32 16 -42 11 -21 -10 22 -22 25 -42 10 -71 -14 -25 -47 -24 -55 2
-18 57 12 125 70 157 14 8 15 11 5 11 -8 0 -27 -6 -42 -15z"/>
<path d="M2796 3964 c-9 -24 -7 -29 6 -16 14 14 78 16 78 3 0 -5 -11 -39 -25
-76 -14 -37 -24 -73 -22 -79 3 -6 8 -2 12 9 4 11 18 48 31 83 34 88 33 92 -25
92 -35 0 -51 -4 -55 -16z"/>
<path d="M3120 3965 c-26 -32 13 -81 48 -59 21 14 28 54 10 65 -20 13 -44 11
-58 -6z m57 -11 c7 -19 -20 -49 -36 -40 -6 4 -11 18 -11 32 0 17 5 24 20 24
11 0 23 -7 27 -16z"/>
<path d="M3494 3905 c-4 -8 -3 -22 0 -31 8 -21 50 -14 54 10 6 31 -43 50 -54
21z m41 -15 c0 -8 -8 -16 -17 -18 -13 -2 -18 3 -18 18 0 15 5 20 18 18 9 -2
17 -10 17 -18z"/>
<path d="M2070 3800 c0 -5 5 -10 10 -10 6 0 10 5 10 10 0 6 -4 10 -10 10 -5 0
-10 -4 -10 -10z"/>
<path d="M2961 3231 c-40 -40 -35 -146 9 -186 18 -17 20 -16 50 13 26 27 30
37 30 87 0 46 -4 60 -25 80 -29 30 -39 31 -64 6z m54 -11 c10 -17 13 -114 4
-137 -10 -27 -47 -31 -56 -6 -9 22 -8 91 1 126 6 27 38 38 51 17z"/>
<path d="M1894 3229 c-28 -14 -44 -50 -44 -100 0 -31 7 -47 29 -70 37 -37 79
-38 118 -4 l28 25 -33 -16 c-43 -21 -90 -11 -103 23 -26 70 3 143 59 143 32 0
44 -8 61 -35 10 -18 11 -17 9 10 -3 29 -5 30 -53 32 -27 1 -60 -2 -71 -8z"/>
<path d="M2797 3234 c-11 -12 -8 -59 5 -72 10 -10 8 -19 -5 -41 -23 -39 -6
-81 32 -81 57 1 80 51 40 91 l-21 21 23 24 c18 20 21 29 13 42 -11 17 -74 29
-87 16z m61 -31 c-4 -34 -33 -43 -43 -14 -8 27 1 41 26 41 16 0 20 -6 17 -27z
m-14 -79 c17 -7 22 -59 7 -68 -19 -12 -41 7 -41 33 0 38 7 45 34 35z"/>
<path d="M3092 3224 c-21 -38 13 -73 59 -59 16 5 19 14 17 38 -3 28 -7 32 -35
35 -21 2 -34 -2 -41 -14z m66 -20 c4 -27 -26 -40 -46 -20 -21 20 -8 48 20 44
14 -2 24 -11 26 -24z"/>
<path d="M3468 3160 c24 -10 30 -35 10 -43 -10 -4 -10 -6 0 -6 19 -1 26 27 12
44 -7 8 -20 15 -29 14 -11 0 -9 -3 7 -9z"/>
<path d="M3440 3136 c0 -8 4 -17 9 -20 5 -4 7 3 4 14 -6 23 -13 26 -13 6z"/>
<path d="M2060 3050 c0 -5 7 -10 15 -10 8 0 15 5 15 10 0 6 -7 10 -15 10 -8 0
-15 -4 -15 -10z"/>
<path d="M2813 2489 c-29 -11 -39 -46 -19 -68 20 -22 20 -35 1 -51 -19 -16
-19 -54 -1 -69 24 -20 69 -9 85 21 15 25 14 29 -8 52 -23 25 -24 27 -7 45 36
40 0 89 -51 70z m45 -32 c5 -27 -17 -50 -34 -36 -15 12 -19 41 -7 53 12 12 38
1 41 -17z m-4 -110 c13 -35 -6 -57 -32 -41 -22 14 -27 41 -11 60 16 20 32 13
43 -19z"/>
<path d="M2989 2469 c-39 -53 -70 -111 -64 -118 4 -3 21 -6 38 -6 27 0 32 -4
35 -27 4 -35 22 -37 22 -3 0 13 8 29 18 34 16 10 16 10 0 11 -14 0 -18 12 -20
72 l-3 72 -26 -35z m9 -61 c-3 -39 -6 -43 -30 -46 -33 -4 -34 -2 -8 48 27 52
42 51 38 -2z"/>
<path d="M3101 2484 c-27 -19 -25 -51 6 -71 19 -13 24 -12 43 7 25 25 23 47
-5 66 -18 12 -24 11 -44 -2z m49 -19 c10 -12 10 -18 0 -30 -25 -30 -61 -7 -46
30 3 8 12 15 19 15 8 0 20 -7 27 -15z"/>
<path d="M1857 2478 c12 -19 3 -172 -11 -180 -16 -11 108 -10 136 1 14 5 32
27 42 49 25 55 9 108 -40 128 -43 18 -139 19 -127 2z m113 -13 c20 -11 31 -25
36 -49 12 -65 -25 -116 -83 -116 l-33 0 0 83 c0 46 3 87 7 90 11 11 42 8 73
-8z"/>
<path d="M3446 2411 c-3 -5 2 -8 11 -7 10 0 20 -9 24 -24 l7 -25 1 26 c1 16
-5 29 -15 33 -20 8 -22 8 -28 -3z"/>
<path d="M3442 2364 c10 -10 20 -16 22 -13 3 3 -5 11 -17 18 -21 13 -21 12 -5
-5z"/>
<path d="M2075 2300 c3 -5 10 -10 16 -10 5 0 9 5 9 10 0 6 -7 10 -16 10 -8 0
-12 -4 -9 -10z"/>
<path d="M12864 1893 c-2 -36 -33 -144 -46 -160 -8 -10 -4 -13 16 -13 16 0 25
4 21 10 -9 14 14 80 28 81 22 2 42 -3 48 -13 4 -6 9 4 11 21 3 22 1 28 -6 21
-5 -5 -21 -10 -34 -10 -21 0 -23 3 -17 33 10 46 12 47 55 47 27 0 42 -6 49
-17 9 -16 10 -16 11 5 0 21 -4 22 -67 22 -67 0 -68 0 -69 -27z"/>
<path d="M7948 754 c9 -16 -4 -83 -19 -94 -3 -3 -9 -22 -13 -42 -4 -20 -12
-39 -19 -41 -7 -3 15 -6 49 -6 52 -1 64 3 83 23 23 25 22 66 -1 66 -7 0 -2 10
10 23 46 48 20 87 -58 87 -35 0 -40 -2 -32 -16z m80 -6 c16 -16 15 -33 -4 -52
-26 -27 -54 -20 -54 12 0 29 16 52 35 52 6 0 16 -5 23 -12z m-20 -90 c18 -18
14 -56 -7 -68 -32 -17 -61 -12 -61 9 0 57 38 89 68 59z"/>
<path d="M12355 638 c-38 -51 -73 -96 -79 -100 -6 -5 -1 -8 12 -8 15 0 22 6
22 18 0 25 31 52 58 52 18 0 22 -6 22 -29 0 -16 -6 -32 -12 -34 -7 -3 0 -6 16
-6 20 -1 27 3 23 13 -3 8 -2 52 3 98 4 46 7 84 6 86 -2 1 -34 -39 -71 -90z
m41 -14 c-6 -17 -36 -19 -36 -2 0 6 8 20 18 31 15 17 17 17 20 3 2 -10 1 -24
-2 -32z"/>
<path d="M10927 640 c4 -15 -29 -149 -42 -170 -5 -7 17 -10 66 -8 66 3 72 5
81 28 l9 25 -21 -22 c-16 -17 -32 -23 -66 -23 -43 0 -44 1 -38 28 15 62 33 75
65 47 15 -15 17 -13 21 15 3 21 1 27 -6 20 -5 -5 -20 -10 -32 -10 -19 0 -21 4
-15 32 4 20 16 37 30 44 21 11 20 12 -17 11 -31 -1 -38 -4 -35 -17z"/>
<path d="M11023 649 c9 -5 17 -18 17 -27 1 -16 1 -16 11 1 13 22 4 37 -24 37
-20 -1 -20 -2 -4 -11z"/>
</g>
</svg>
