<?xml version="1.0" standalone="no"?>
<!DOCTYPE svg PUBLIC "-//W3C//DTD SVG 20010904//EN"
 "http://www.w3.org/TR/2001/REC-SVG-20010904/DTD/svg10.dtd">
<svg version="1.0" xmlns="http://www.w3.org/2000/svg"
 width="1448.000000pt" height="855.000000pt" viewBox="0 0 1448.000000 855.000000"
 preserveAspectRatio="xMidYMid meet">
<metadata>
Created by potrace 1.16, written by Peter Selinger 2001-2019
</metadata>
<g transform="translate(0.000000,855.000000) scale(0.100000,-0.100000)"
fill="#000000" stroke="none">
<path d="M4122 8374 c-32 -32 -33 -38 -35 -113 -2 -59 -6 -84 -19 -98 -24 -26
-23 -40 1 -19 11 10 23 31 26 47 6 27 10 29 56 29 46 0 49 2 49 25 0 23 4 25
40 25 33 0 40 -3 40 -19 0 -15 -8 -21 -37 -24 l-38 -4 38 -1 c34 -2 37 -4 37
-32 0 -26 -4 -30 -27 -30 l-28 -1 25 -14 c41 -22 50 -4 50 100 l0 93 -45 -6
c-50 -5 -55 1 -22 29 l22 18 -48 1 c-27 0 -46 4 -42 9 3 5 2 12 -2 14 -5 3
-23 -10 -41 -29z m83 -24 c-10 -11 -28 -21 -39 -21 -17 -1 -18 -2 -3 -6 9 -2
17 -13 17 -24 0 -20 -31 -26 -64 -13 -18 7 -22 34 -5 34 5 0 7 5 4 11 -11 17
27 38 69 39 38 0 39 0 21 -20z m73 -47 c-2 -13 -14 -19 -41 -21 -32 -3 -37 0
-37 17 0 18 6 21 41 21 33 0 40 -3 37 -17z m-98 -53 c0 -17 -7 -20 -40 -20
-33 0 -40 3 -40 20 0 17 7 20 40 20 33 0 40 -3 40 -20z"/>
<path d="M4510 8320 l0 -90 -57 -2 -58 -1 55 -6 c51 -6 55 -8 58 -33 4 -30 -3
-32 -90 -28 -21 1 -38 -3 -38 -8 0 -5 44 -9 104 -9 58 1 102 5 100 9 -3 5 -11
8 -17 7 -39 -5 -48 2 -45 29 3 25 7 27 56 30 28 2 52 7 52 11 0 5 -24 8 -52 7
l-53 -1 0 88 c0 48 -3 87 -7 87 -5 0 -8 -40 -8 -90z"/>
<path d="M4770 8377 c0 -31 -3 -37 -22 -38 -17 -1 -19 -2 -5 -6 22 -6 22 -21
-3 -78 -23 -55 -26 -72 -4 -32 22 41 34 33 30 -21 -3 -27 0 -55 5 -63 5 -9 9
14 9 65 0 65 2 77 15 72 8 -3 15 -3 15 0 0 3 -7 12 -15 20 -21 21 -19 34 5 34
13 0 20 -7 20 -20 0 -18 8 -24 28 -17 4 1 5 7 3 12 -2 6 -3 20 -3 32 0 17 -4
21 -17 15 -30 -15 -46 -8 -46 20 -1 15 -4 30 -8 34 -4 4 -7 -9 -7 -29z"/>
<path d="M11255 8352 c-9 -31 -23 -61 -29 -65 -7 -6 -4 -7 7 -3 15 5 17 -3 17
-76 0 -114 8 -94 11 27 1 55 8 115 15 132 7 18 9 35 5 37 -4 3 -16 -21 -26
-52z"/>
<path d="M12040 8385 c0 -20 -6 -24 -37 -28 l-38 -4 38 -1 37 -2 0 -64 0 -65
-37 -4 c-21 -2 26 -4 105 -5 96 -1 141 1 137 8 -4 6 -21 8 -41 4 l-34 -6 0 66
0 66 30 0 c17 0 30 5 30 10 0 6 -12 9 -27 8 -21 -2 -28 1 -27 14 1 9 -5 19
-12 22 -10 4 -14 -2 -14 -19 0 -23 -4 -25 -46 -25 -41 0 -46 2 -41 19 3 12 -1
22 -9 25 -10 4 -14 -2 -14 -19z m108 -75 c0 -40 -1 -40 -42 -42 l-41 -1 43 -4
c34 -3 42 -8 42 -24 0 -16 -7 -19 -43 -19 -24 0 -46 2 -48 5 -3 2 -3 20 -1 40
4 33 6 35 40 35 19 0 32 3 28 7 -4 4 -19 7 -34 8 -17 0 -28 6 -30 18 -3 14 4
17 42 17 l45 0 -1 -40z"/>
<path d="M12436 8380 c2 -30 2 -30 -52 -30 l-54 0 0 -58 0 -58 53 1 52 0 -3
-54 c-3 -36 0 -51 7 -47 6 4 11 29 11 57 l0 49 53 0 52 0 -3 57 -4 58 -49 -3
c-49 -4 -49 -4 -49 27 0 17 -4 31 -8 31 -5 0 -7 -13 -6 -30z m-1 -85 c0 -39
-1 -40 -39 -43 -43 -4 -56 7 -56 49 0 35 8 40 55 37 40 -3 40 -3 40 -43z m100
0 c0 -40 0 -40 -42 -43 l-43 -3 0 46 0 46 43 -3 c42 -3 42 -3 42 -43z"/>
<path d="M14233 8393 c-3 -10 -12 -33 -19 -52 -18 -44 -17 -53 2 -18 13 24 20
27 69 27 l55 0 0 -44 c0 -86 -12 -137 -33 -145 -15 -6 -17 -10 -8 -16 25 -15
42 22 55 119 l12 96 -63 0 c-67 0 -69 1 -53 31 8 13 7 19 0 19 -6 0 -13 -8
-17 -17z"/>
<path d="M1470 8369 l0 -31 -52 4 -53 3 2 -59 1 -60 51 3 50 2 4 -58 3 -58 2
58 2 57 55 0 55 0 0 55 0 55 -56 0 -56 0 6 30 c3 17 1 30 -4 30 -6 0 -10 -14
-10 -31z m0 -84 l0 -45 -45 0 -45 0 0 45 0 45 45 0 45 0 0 -45z m106 21 c12
-48 2 -61 -49 -64 l-47 -3 0 45 0 46 45 0 c39 0 45 -3 51 -24z"/>
<path d="M1879 8381 l-46 -16 -6 -81 c-2 -46 -12 -97 -21 -115 -9 -18 -14 -34
-11 -37 9 -9 45 83 45 115 0 37 8 44 38 36 19 -5 22 -13 25 -87 l3 -81 2 82
c2 73 4 82 23 88 33 11 12 19 -42 16 -50 -3 -50 -2 -47 25 2 22 11 30 46 42
23 7 42 18 42 23 0 5 -1 8 -2 8 -2 -1 -24 -9 -49 -18z"/>
<path d="M2450 8375 c0 -31 -7 -31 -30 -2 l-19 22 5 -22 c5 -17 1 -22 -18 -26
-15 -3 -11 -5 15 -6 24 -1 37 -6 37 -15 0 -22 -29 -87 -61 -136 l-30 -45 31
35 c17 19 35 40 40 46 9 12 131 18 162 8 21 -6 23 -23 6 -59 -9 -20 -18 -26
-35 -22 -28 5 -31 -9 -3 -18 27 -9 47 9 55 48 4 18 9 40 11 50 4 13 -1 17 -21
17 -24 0 -26 3 -21 25 5 19 2 25 -10 25 -11 0 -15 8 -12 27 3 27 2 27 -46 24
-47 -3 -49 -2 -44 23 3 14 1 26 -3 26 -5 0 -9 -11 -9 -25z m78 -60 c-4 -19 -1
-25 13 -25 12 0 19 -7 19 -20 0 -18 -7 -20 -58 -20 -32 0 -61 3 -65 6 -14 15
8 34 42 36 l36 1 -32 4 c-25 3 -33 9 -33 24 0 16 7 19 41 19 39 0 41 -2 37
-25z"/>
<path d="M2778 8378 c-2 -19 -11 -24 -48 -29 -45 -6 -45 -6 -7 -7 29 -2 37 -6
37 -21 0 -10 -7 -24 -15 -31 -8 -7 -15 -17 -15 -23 0 -6 -10 -22 -22 -36 -20
-22 -20 -23 -2 -8 11 9 24 17 27 17 4 0 7 -25 7 -55 0 -30 4 -55 9 -55 5 0 8
33 6 73 -3 83 16 136 49 138 17 1 18 2 4 6 -21 5 -23 24 -6 41 9 9 8 12 -4 12
-10 0 -18 -10 -20 -22z"/>
<path d="M3840 8390 c0 -6 -28 -10 -65 -10 -36 0 -65 -4 -65 -9 0 -4 26 -8 58
-7 44 1 57 -2 57 -14 0 -10 -10 -15 -32 -15 l-33 0 0 -92 0 -92 -32 -4 c-18
-2 31 -5 110 -5 100 -2 141 1 136 9 -3 6 -17 8 -30 5 l-24 -6 0 93 0 93 -40
-4 c-30 -3 -40 -1 -40 11 0 19 29 26 86 20 35 -3 45 -1 42 8 -3 9 -21 12 -56
10 -32 -1 -52 2 -52 8 0 6 -4 11 -10 11 -5 0 -10 -4 -10 -10z m70 -85 c0 -12
-14 -15 -64 -15 -60 0 -84 8 -69 24 3 3 35 6 70 6 49 0 63 -3 63 -15z m-2 -47
c3 -16 -5 -18 -62 -18 -60 0 -66 2 -66 20 0 19 5 21 62 18 50 -2 63 -6 66 -20z
m2 -48 c0 -18 -7 -20 -65 -20 -58 0 -65 2 -65 20 0 18 7 20 65 20 58 0 65 -2
65 -20z m-6 -39 c9 -13 -19 -21 -75 -21 -37 0 -49 4 -49 15 0 12 13 15 59 15
33 0 62 -4 65 -9z"/>
<path d="M4970 8390 c0 -5 7 -10 15 -10 8 0 15 5 15 10 0 6 -7 10 -15 10 -8 0
-15 -4 -15 -10z"/>
<path d="M5172 8380 c-46 -25 -52 -33 -19 -25 36 9 35 -7 -3 -38 -36 -31 -37
-37 -8 -37 12 0 18 3 14 7 -3 4 8 22 26 40 17 18 27 33 20 33 -20 0 -14 16 11
28 13 6 16 11 7 11 -8 0 -30 -9 -48 -19z"/>
<path d="M5520 8280 l0 -119 -62 -4 c-35 -2 -1 -4 75 -5 75 -1 137 2 137 7 0
4 -31 6 -70 3 l-70 -5 0 67 0 66 55 0 c30 0 55 4 55 8 0 5 -25 7 -56 4 l-57
-5 5 52 c3 28 1 51 -3 51 -5 0 -9 -54 -9 -120z"/>
<path d="M7524 8375 c-4 -16 -13 -25 -25 -25 -17 0 -19 -8 -19 -92 l0 -93 50
0 50 0 0 61 c0 46 4 63 15 68 8 3 15 12 15 19 0 8 7 20 15 27 9 7 13 15 11 18
-3 2 -1 13 5 23 5 11 6 19 1 19 -9 0 -42 -69 -42 -88 0 -7 -4 -12 -10 -12 -5
0 -10 11 -10 25 0 16 -6 25 -15 25 -8 0 -15 -4 -15 -10 0 -5 5 -10 11 -10 6 0
9 -12 7 -27 -2 -23 -8 -29 -35 -31 -18 -2 -33 0 -34 5 0 4 -2 18 -3 30 -2 14
4 23 16 26 10 3 18 14 18 24 0 10 5 24 12 31 9 9 9 12 0 12 -6 0 -14 -11 -18
-25z m36 -155 c0 -38 -2 -40 -29 -40 -21 0 -32 6 -36 20 -11 35 3 60 36 60 27
0 29 -2 29 -40z"/>
<path d="M7820 8262 c0 -132 0 -133 21 -121 23 12 181 8 212 -5 16 -8 17 2 17
125 l0 134 -125 0 -125 0 0 -133z m64 86 c-1 -17 4 -28 12 -28 8 0 11 6 8 15
-5 12 3 15 35 15 48 0 56 -20 9 -21 -18 0 -27 -3 -20 -6 24 -9 1 -23 -41 -24
-23 0 -36 -3 -29 -6 8 -3 12 -27 12 -70 0 -56 -2 -64 -17 -61 -16 3 -18 16
-19 103 0 55 2 104 4 108 2 5 14 7 25 5 17 -2 22 -10 21 -30z m96 22 c0 -5
-18 -10 -40 -10 -22 0 -40 5 -40 10 0 6 18 10 40 10 22 0 40 -4 40 -10z m73
-45 c-1 -27 -2 -76 -2 -107 l-1 -58 -87 2 -88 2 73 3 72 4 0 54 c0 29 2 59 5
67 4 10 -4 13 -35 10 -42 -4 -58 14 -17 20 16 2 23 11 25 31 3 24 7 28 30 25
26 -3 27 -6 25 -53z m-80 -42 c-18 -2 -48 -2 -65 0 -18 2 -4 4 32 4 36 0 50
-2 33 -4z m27 -52 l0 -41 -42 2 c-37 1 -39 2 -10 5 26 4 32 9 32 29 0 13 -5
24 -10 24 -6 0 -10 -8 -8 -17 2 -12 -5 -19 -20 -21 -20 -3 -23 0 -17 17 4 12
2 21 -4 21 -6 0 -11 -13 -11 -30 0 -20 -5 -30 -15 -30 -10 0 -15 10 -15 33 0
19 2 36 4 38 2 2 29 5 60 7 l56 3 0 -40z"/>
<path d="M8186 8353 c-9 -25 -23 -54 -32 -64 -15 -16 -14 -17 5 -12 19 5 20 0
24 -73 3 -75 3 -73 5 24 1 63 8 116 16 137 8 19 11 35 6 35 -4 0 -15 -21 -24
-47z"/>
<path d="M8251 8365 c-11 -19 -25 -35 -31 -35 -5 0 -10 -5 -10 -11 0 -5 5 -7
10 -4 6 4 10 -5 10 -19 0 -39 16 -31 17 9 1 42 25 69 53 60 22 -7 26 -20 10
-30 -6 -4 -8 -10 -5 -15 9 -15 -7 -40 -27 -40 -10 0 -16 -4 -13 -10 3 -5 -9
-19 -27 -30 -37 -23 -27 -27 12 -5 42 24 58 17 25 -11 l-30 -26 33 16 c28 15
32 15 32 1 0 -8 -17 -24 -37 -35 -36 -20 -30 -21 26 -4 18 5 23 4 19 -7 -2 -7
-15 -16 -29 -19 l-24 -6 24 -7 c32 -8 41 -1 41 29 0 27 27 34 36 9 4 -8 18
-15 33 -15 25 0 25 1 -8 18 -44 22 -50 39 -16 52 15 6 23 15 20 21 -5 7 -15 3
-29 -10 -29 -27 -40 -26 -54 4 -10 21 -9 27 2 31 8 3 12 12 9 19 -2 8 2 29 11
46 20 41 21 39 -14 39 -16 0 -30 5 -30 10 0 21 -19 9 -39 -25z"/>
<path d="M10590 8383 c0 -10 4 -14 8 -8 4 6 11 13 16 18 5 4 2 7 -7 7 -10 0
-17 -8 -17 -17z"/>
<path d="M10679 8345 c-17 -58 -15 -76 2 -25 8 23 18 30 37 31 25 2 26 2 4 6
-18 3 -23 10 -19 24 3 10 2 19 -1 19 -4 0 -14 -25 -23 -55z"/>
<path d="M10890 8265 c0 -119 2 -136 15 -125 10 8 48 11 125 8 l110 -3 0 126
0 127 -110 -1 c-121 -2 -153 -17 -37 -18 58 0 67 -2 47 -10 -14 -6 -37 -9 -52
-6 -15 2 -29 -1 -31 -7 -7 -19 4 -36 24 -36 40 0 17 -20 -23 -21 -24 0 -37 -3
-30 -6 8 -3 12 -27 12 -69 0 -58 -2 -64 -21 -64 -20 0 -21 4 -18 114 2 63 0
118 -4 122 -4 4 -7 -55 -7 -131z m235 5 l0 -105 -90 -1 -90 -2 65 10 c36 5 68
12 71 16 4 4 9 32 11 62 l4 55 -39 -4 c-34 -3 -39 -1 -34 13 5 12 0 16 -23 16
-41 0 -38 17 4 22 43 5 64 -1 45 -13 -11 -7 -10 -9 4 -9 12 0 17 8 17 26 0 22
4 25 28 22 l27 -3 0 -105z m-90 10 l-40 -7 38 -2 c36 -1 37 -2 37 -41 l0 -41
-57 3 c-58 3 -58 3 -61 36 -3 28 1 35 19 39 22 6 22 7 3 14 -12 5 4 7 41 7 56
-1 57 -1 20 -8z"/>
<path d="M10970 8224 c0 -20 4 -25 16 -20 9 3 27 6 40 6 17 0 24 6 24 20 0 17
-7 20 -40 20 -36 0 -40 -2 -40 -26z m60 6 c0 -5 -9 -10 -20 -10 -11 0 -20 5
-20 10 0 6 9 10 20 10 11 0 20 -4 20 -10z"/>
<path d="M11323 8362 c-24 -29 -28 -42 -22 -60 5 -12 16 -22 26 -21 11 0 13 3
6 6 -7 2 -13 13 -13 24 0 14 7 19 30 19 52 0 32 -48 -35 -83 -16 -9 -24 -16
-17 -17 7 0 27 7 44 16 46 24 31 -6 -18 -33 -49 -28 -32 -30 19 -3 28 15 37
17 37 6 0 -17 -17 -30 -55 -44 -16 -6 -23 -11 -14 -11 9 -1 33 6 53 14 30 13
36 13 36 1 0 -16 -27 -29 -43 -20 -9 5 -9 4 -1 -5 18 -19 49 -9 52 17 4 25 24
29 42 7 7 -8 22 -15 34 -15 16 1 13 5 -16 20 -49 26 -54 38 -24 50 14 5 26 14
26 20 0 15 -8 12 -32 -9 -17 -16 -24 -18 -39 -8 -11 7 -19 19 -19 29 0 13 11
18 48 20 43 3 47 5 50 31 3 25 1 27 -33 27 -33 0 -35 2 -25 20 10 18 8 20 -20
20 -16 0 -30 5 -30 10 0 20 -17 9 -47 -28z m77 -7 c0 -11 -11 -15 -36 -15 -31
0 -35 2 -24 15 7 8 23 15 36 15 15 0 24 -6 24 -15z m60 -45 c0 -16 -7 -20 -30
-20 -23 0 -30 4 -30 20 0 16 7 20 30 20 23 0 30 -4 30 -20z"/>
<path d="M13265 8389 c-11 -4 -14 -8 -7 -8 8 -1 12 -19 12 -58 0 -57 -18 -106
-57 -163 -16 -23 -14 -23 14 4 21 19 36 45 43 77 7 27 15 49 18 49 13 -1 60
-88 53 -98 -3 -6 -28 -20 -55 -32 -27 -11 -46 -23 -43 -26 3 -4 30 7 60 23
l54 30 49 -24 c27 -13 55 -21 64 -17 10 4 -2 11 -33 21 -26 7 -50 20 -53 27
-3 7 9 34 25 59 17 25 31 48 31 51 0 3 -14 6 -31 6 -33 0 -33 3 -13 73 4 13
-1 17 -20 17 -14 0 -26 -4 -26 -10 0 -5 7 -10 16 -10 12 0 15 -6 10 -22 -3
-13 -6 -29 -6 -35 0 -8 -15 -13 -40 -13 -39 0 -40 1 -40 34 0 25 5 36 18 38
15 3 14 5 -3 9 -11 3 -29 2 -40 -2z m148 -96 c8 -14 -42 -83 -56 -77 -12 4
-47 64 -47 79 0 8 99 5 103 -2z"/>
<path d="M14130 8365 c0 -24 -5 -35 -15 -35 -8 0 -15 -4 -15 -10 0 -5 7 -10
15 -10 11 0 15 -12 15 -44 0 -34 -5 -47 -22 -59 -39 -27 3 -19 47 9 22 14 30
23 18 19 -16 -4 -23 -1 -28 14 -9 28 4 69 23 74 15 4 15 5 0 6 -17 1 -23 23
-19 59 1 6 -3 12 -9 12 -5 0 -10 -16 -10 -35z"/>
<path d="M1020 8260 l0 -125 120 0 120 0 0 128 c0 70 -3 127 -7 127 -5 0 -6
-54 -5 -120 l4 -120 -87 0 c-55 0 -84 4 -80 10 3 6 33 10 66 10 l59 0 0 53 c0
29 5 58 11 64 8 8 1 10 -30 6 -26 -4 -41 -2 -41 5 0 6 10 12 23 14 14 2 23 11
25 26 3 22 1 23 -35 16 -49 -9 -55 -14 -15 -14 18 0 32 -4 32 -10 0 -5 -18
-10 -40 -10 -36 0 -40 2 -38 25 2 23 6 25 50 25 26 0 48 4 48 8 0 5 -40 8 -90
8 l-90 -1 0 -125z m62 82 c2 -19 10 -28 26 -30 23 -4 31 -21 10 -24 -7 0 10
-4 37 -8 l50 -7 -65 -1 c-45 -1 -60 1 -50 8 13 8 12 10 -2 10 -16 0 -18 -10
-18 -71 0 -62 -2 -70 -17 -67 -16 3 -18 17 -21 107 -2 73 1 107 9 112 20 12
38 -1 41 -29z m118 -122 l0 -40 -60 0 -60 0 0 33 c0 19 3 37 7 40 3 4 30 7 60
7 l53 0 0 -40z"/>
<path d="M1100 8214 c0 -23 3 -25 38 -22 30 2 38 7 40 26 3 20 -1 22 -37 22
-37 0 -41 -2 -41 -26z m58 4 c-3 -7 -11 -13 -18 -13 -7 0 -15 6 -17 13 -3 7 4
12 17 12 13 0 20 -5 18 -12z"/>
<path d="M1738 8377 l-38 -11 0 -61 c0 -34 -5 -86 -10 -115 -6 -29 -8 -55 -6
-57 6 -6 27 86 29 127 2 39 4 40 48 40 31 0 31 -1 26 -35 -3 -21 -2 -33 4 -30
5 4 9 25 9 48 l0 42 -45 -3 c-36 -3 -45 -1 -45 12 0 9 12 21 28 26 75 28 75
38 0 17z"/>
<path d="M2138 8383 c-51 -2 -88 -8 -88 -14 0 -6 24 -8 63 -5 34 2 77 5 95 5
17 1 32 6 32 11 0 6 -3 9 -7 8 -5 -1 -47 -4 -95 -5z"/>
<path d="M3049 8343 c0 -27 -2 -85 -3 -130 -2 -46 1 -83 5 -83 5 0 10 55 11
123 l3 122 103 3 103 3 -3 -113 -3 -113 -25 3 -25 3 23 -16 c13 -10 27 -13 32
-9 5 5 10 64 12 132 l3 122 -117 0 -118 0 -1 -47z"/>
<path d="M4855 8382 c16 -6 20 -16 20 -49 0 -43 0 -43 37 -43 29 0 36 3 32 15
-7 17 -24 20 -24 5 0 -5 -7 -10 -14 -10 -11 0 -14 11 -13 40 1 31 5 40 17 38
9 -2 14 -12 12 -26 -3 -20 0 -22 24 -16 26 7 27 6 20 -26 -3 -19 -8 -36 -11
-38 -3 -3 -29 -6 -59 -6 -30 -1 -52 -4 -49 -9 2 -4 31 -6 63 -5 64 2 70 8 70
75 0 26 -3 30 -20 26 -22 -6 -29 22 -7 30 6 3 -17 5 -53 5 -36 0 -56 -3 -45
-6z"/>
<path d="M8530 8381 c20 -5 26 -14 28 -44 4 -50 -24 -135 -56 -169 -14 -15
-23 -30 -20 -34 9 -9 54 57 73 108 16 44 35 56 35 23 0 -8 11 -26 25 -41 30
-33 23 -44 -41 -69 -25 -9 -43 -19 -40 -22 3 -3 30 7 61 22 l55 27 36 -21 c37
-22 74 -28 74 -11 0 6 -9 10 -20 10 -24 0 -70 20 -70 31 0 5 13 30 29 58 16
27 27 52 24 54 -10 10 -32 -5 -27 -18 6 -14 -11 -51 -31 -72 -10 -9 -18 -6
-37 15 -14 15 -28 35 -31 45 -5 14 0 17 32 17 36 0 39 2 44 33 3 17 8 40 12
50 7 15 -1 17 -86 16 -54 -1 -83 -4 -69 -8z m140 -10 c0 -4 -5 -22 -11 -40
-10 -29 -15 -32 -48 -29 -34 3 -36 5 -39 41 l-3 37 50 0 c28 0 51 -4 51 -9z"/>
<path d="M9585 8382 c-6 -4 -10 -53 -10 -110 0 -84 3 -102 15 -102 12 0 15 15
12 87 -4 121 -5 134 -17 125z"/>
<path d="M13777 8382 c12 -8 10 -22 -27 -146 -13 -43 -5 -56 37 -56 25 0 71
44 79 77 10 38 -2 53 -42 53 -29 0 -35 3 -30 16 20 51 19 64 -5 64 -15 0 -20
-3 -12 -8z m68 -102 c10 -31 -26 -85 -56 -85 -20 0 -24 4 -22 25 7 64 15 74
60 79 6 0 15 -8 18 -19z"/>
<path d="M4430 8346 c-6 -19 -20 -47 -31 -63 -14 -18 -10 -16 11 7 l32 35 15
-22 c9 -13 20 -23 26 -23 6 0 -2 14 -18 30 -22 23 -26 33 -17 42 14 14 16 28
3 28 -5 0 -15 -15 -21 -34z"/>
<path d="M4585 8344 c-19 -45 -19 -50 0 -34 8 7 15 21 15 31 0 11 5 19 10 19
6 0 10 5 10 10 0 23 -21 7 -35 -26z"/>
<path d="M6490 8361 c5 -11 10 -50 10 -86 0 -36 -5 -75 -10 -86 -9 -16 -7 -19
8 -19 16 0 18 10 18 105 0 95 -2 105 -18 105 -15 0 -17 -3 -8 -19z"/>
<path d="M150 8355 c-12 -14 -11 -16 11 -10 17 4 30 1 38 -9 16 -19 6 -53 -17
-59 -16 -4 -16 -5 0 -6 19 -1 32 -37 26 -68 -2 -13 -12 -18 -36 -18 -18 0 -31
-4 -29 -10 6 -17 51 -5 70 18 14 16 17 29 12 52 -4 16 -8 50 -9 75 -1 41 -4
45 -27 48 -15 2 -31 -4 -39 -13z"/>
<path d="M295 8350 c-17 -19 -17 -19 13 -8 34 13 62 -1 62 -31 0 -20 -29 -67
-64 -104 -14 -15 -26 -30 -26 -33 0 -11 108 -3 113 9 3 9 -8 11 -42 8 l-46 -3
26 28 c30 32 59 85 59 107 0 20 -33 47 -57 47 -11 0 -28 -9 -38 -20z"/>
<path d="M2880 8350 c-44 -7 -44 -7 18 -8 40 -1 61 2 57 8 -3 6 -12 9 -18 8
-7 0 -32 -4 -57 -8z"/>
<path d="M7712 8353 c-10 -4 -10 -7 1 -17 12 -9 13 -25 6 -86 -12 -99 -14
-103 -44 -98 -20 4 -23 3 -14 -8 35 -42 65 11 74 129 6 85 4 91 -23 80z"/>
<path d="M10568 8353 c-16 -4 -18 -17 -18 -99 0 -52 4 -94 9 -94 15 0 24 21
14 31 -5 5 -8 23 -5 39 4 25 9 30 33 30 21 0 29 -5 30 -17 2 -29 -2 -48 -13
-54 -8 -5 12 -19 28 -19 2 0 3 33 3 73 -1 58 -4 68 -12 50 -6 -14 -19 -23 -33
-23 -42 0 -56 64 -16 72 10 2 13 6 7 9 -5 3 -18 4 -27 2z"/>
<path d="M10773 8349 c20 -12 24 -90 6 -151 -8 -32 -14 -38 -36 -38 -25 0 -26
-1 -8 -14 41 -30 62 11 67 137 3 77 3 77 -22 77 -22 -1 -23 -2 -7 -11z"/>
<path d="M3150 8340 l-65 -7 78 -1 c50 -1 76 2 72 8 -3 6 -9 9 -13 8 -4 -1
-36 -4 -72 -8z"/>
<path d="M5080 8340 c-18 -12 -2 -12 25 0 13 6 15 9 5 9 -8 0 -22 -4 -30 -9z"/>
<path d="M10620 8346 c0 -2 7 -9 15 -16 12 -10 15 -10 15 4 0 9 -7 16 -15 16
-8 0 -15 -2 -15 -4z"/>
<path d="M8377 8333 c-4 -3 -2 -12 4 -19 7 -8 7 -14 -1 -19 -15 -9 -12 -25 5
-25 10 0 15 11 15 35 0 33 -8 43 -23 28z"/>
<path d="M2850 8296 c0 -33 -2 -35 -37 -39 l-38 -4 38 -1 37 -2 0 -49 0 -50
-42 -4 c-24 -2 1 -4 55 -5 58 -1 97 2 97 8 0 6 -18 7 -44 4 l-44 -6 -4 38 c-6
47 5 64 43 64 16 0 29 5 29 10 0 7 -13 8 -36 4 -36 -7 -36 -6 -32 26 2 20 -2
35 -9 37 -9 3 -13 -7 -13 -31z"/>
<path d="M4045 8320 c-3 -6 1 -7 9 -4 18 7 21 14 7 14 -6 0 -13 -4 -16 -10z"/>
<path d="M5229 8315 c-9 -9 -25 -17 -37 -18 -12 -1 -22 -7 -22 -14 0 -7 -13
-19 -30 -28 -46 -24 -38 -39 16 -31 l45 6 -3 -38 c-2 -23 -8 -36 -15 -34 -21
4 -15 -15 6 -21 23 -6 31 10 31 58 0 31 3 35 35 41 22 4 41 2 50 -6 20 -16 19
0 -1 28 -17 25 -36 30 -28 8 7 -17 -43 -29 -97 -24 l-34 3 40 24 c61 38 90 61
73 61 -7 0 -21 -7 -29 -15z"/>
<path d="M2255 8311 c-4 -7 -56 -12 -128 -13 -76 -1 -96 -3 -54 -5 l67 -4 0
-79 c0 -47 4 -80 10 -80 6 0 10 33 10 80 l0 80 66 0 c46 0 64 4 62 12 -6 16
-25 21 -33 9z"/>
<path d="M6585 8298 c-24 -18 -27 -26 -22 -60 8 -63 58 -87 97 -48 20 20 27
74 12 96 -6 10 -45 34 -55 34 -2 0 -17 -10 -32 -22z m65 -17 c15 -29 12 -67
-6 -85 -23 -24 -33 -20 -50 21 -12 27 -13 42 -5 60 13 28 46 30 61 4z"/>
<path d="M6743 8305 c-19 -13 -22 -24 -19 -73 1 -31 -2 -65 -8 -74 -17 -29 11
-51 57 -45 82 11 89 69 10 75 l-39 3 -1 49 c-1 56 17 81 42 60 22 -18 18 -46
-7 -65 l-23 -17 25 7 c26 8 40 22 40 42 0 6 2 18 5 26 3 7 0 14 -7 14 -7 0
-22 3 -33 6 -12 4 -30 1 -42 -8z m75 -152 c-4 -20 -74 -31 -90 -15 -18 18 3
32 48 32 38 0 45 -3 42 -17z"/>
<path d="M9678 8303 c-14 -9 -28 -27 -31 -39 -5 -29 16 -79 38 -88 27 -10 28
-7 6 20 -36 46 -17 123 25 107 32 -12 44 -82 18 -107 -12 -13 -13 -16 -1 -16
26 0 48 78 29 106 -6 10 -46 34 -54 34 -2 0 -15 -8 -30 -17z"/>
<path d="M9838 8313 c-34 -9 -34 -83 0 -83 12 0 13 3 4 12 -30 30 2 84 34 57
17 -14 19 -59 2 -59 -6 0 -8 -3 -5 -6 11 -11 34 15 40 42 2 13 2 26 -2 28 -14
8 -57 13 -73 9z"/>
<path d="M4630 8292 c6 -13 14 -21 18 -18 3 4 -2 14 -12 24 -18 16 -18 16 -6
-6z"/>
<path d="M6006 8301 c-4 -5 -2 -11 2 -13 5 -1 12 -28 15 -59 6 -47 4 -59 -14
-77 -11 -13 -24 -20 -29 -17 -5 3 -11 1 -14 -4 -4 -5 -2 -13 4 -16 12 -8 102
81 131 129 21 34 24 56 9 56 -5 0 -10 -10 -10 -23 0 -24 -25 -67 -40 -67 -4 0
-11 23 -15 50 -6 47 -24 65 -39 41z"/>
<path d="M7100 8300 c-13 -8 -13 -10 1 -10 45 0 23 -94 -24 -103 -21 -4 -21
-4 -1 -6 11 0 29 8 39 19 l19 21 10 -26 c10 -24 12 -25 31 -10 15 11 16 14 3
9 -13 -4 -18 2 -23 30 -8 41 -1 56 26 56 11 0 19 7 19 16 0 15 -2 15 -25 0
-23 -15 -27 -15 -41 -1 -18 18 -15 17 -34 5z"/>
<path d="M9096 8303 c-3 -4 -2 -11 3 -17 4 -6 11 -34 14 -62 5 -45 3 -54 -17
-73 -12 -12 -26 -18 -29 -14 -4 3 -7 -1 -7 -11 0 -25 32 -5 67 41 15 20 38 48
51 61 12 14 22 28 22 33 0 4 3 14 6 23 4 10 1 16 -9 16 -10 0 -13 -7 -10 -20
5 -20 -30 -70 -49 -70 -4 0 -8 20 -8 44 0 41 -17 65 -34 49z"/>
<path d="M10185 8301 c-3 -6 -2 -11 4 -11 6 0 13 -11 17 -24 7 -28 -18 -72
-44 -79 -15 -4 -15 -5 0 -6 10 0 23 8 30 19 16 26 24 25 31 -1 6 -24 38 -23
44 1 4 13 3 13 -6 0 -8 -12 -12 -9 -20 13 -6 16 -11 34 -11 41 0 18 21 36 43
36 10 0 15 5 12 11 -5 7 -15 5 -32 -6 -23 -15 -26 -15 -43 0 -12 11 -20 13
-25 6z"/>
<path d="M11683 8276 c2 -42 13 -47 19 -11 3 14 -1 30 -8 36 -10 8 -12 3 -11
-25z"/>
<path d="M12878 8283 c-24 -25 -32 -53 -29 -90 1 -16 47 -17 56 -3 5 8 11 7
20 0 17 -14 38 -3 31 16 -3 7 1 34 8 59 l14 45 -37 0 c-28 0 -44 -7 -63 -27z
m64 -15 c-3 -17 -17 -42 -31 -54 -23 -20 -27 -21 -38 -7 -22 28 18 92 58 93
12 0 14 -7 11 -32z"/>
<path d="M14250 8300 l-35 -7 43 -2 c23 0 42 4 42 9 0 6 -3 9 -7 9 -5 -1 -24
-5 -43 -9z"/>
<path d="M3110 8261 c0 -16 -2 -35 -5 -43 -5 -11 39 -15 115 -8 10 0 -2 80
-12 80 -5 0 -6 -15 -2 -35 l6 -35 -47 0 -47 0 4 35 c2 19 0 35 -4 35 -4 0 -8
-13 -8 -29z"/>
<path d="M3167 8279 c7 -7 15 -10 18 -7 3 3 -2 9 -12 12 -14 6 -15 5 -6 -5z"/>
<path d="M3485 8280 l-120 -6 133 -2 c83 -1 132 2 132 8 0 6 -6 9 -12 8 -7 -1
-67 -5 -133 -8z"/>
<path d="M4549 8273 c-13 -16 -12 -17 4 -4 9 7 17 15 17 17 0 8 -8 3 -21 -13z"/>
<path d="M6225 8280 c3 -5 37 -10 76 -10 39 0 69 4 69 10 0 6 -32 10 -76 10
-47 0 -73 -4 -69 -10z"/>
<path d="M7651 8258 c21 -38 29 -46 29 -29 0 6 -11 23 -25 38 l-26 28 22 -37z"/>
<path d="M9310 8280 c20 -13 127 -13 135 0 4 6 -22 10 -72 10 -54 0 -73 -3
-63 -10z"/>
<path d="M10720 8260 c22 -31 35 -36 25 -9 -3 8 -15 20 -27 28 -20 13 -20 12
2 -19z"/>
<path d="M2069 8238 c-6 -13 -23 -36 -38 -52 l-26 -29 26 17 c14 9 31 27 37
41 6 14 16 25 22 25 5 0 10 5 10 10 0 18 -19 10 -31 -12z"/>
<path d="M2241 8216 c19 -29 35 -44 37 -37 2 7 -12 30 -33 50 l-38 36 34 -49z"/>
<path d="M9985 8238 c-18 -61 -26 -121 -16 -131 17 -17 58 7 64 40 6 35 2 43
-25 43 -17 0 -20 4 -14 30 5 29 -1 42 -9 18z m35 -81 c0 -25 -17 -47 -37 -47
-16 0 -17 24 -3 51 15 27 40 24 40 -4z"/>
<path d="M4895 8229 c-49 -3 -77 -6 -62 -7 25 -2 27 -4 16 -24 -7 -13 -19 -29
-28 -37 -12 -9 -9 -9 9 1 14 8 29 25 35 36 5 12 16 22 23 22 7 0 11 -3 9 -7
-3 -5 -1 -26 3 -48 l8 -40 1 47 1 47 48 3 c26 2 43 5 37 8 -5 3 -50 2 -100 -1z"/>
<path d="M14210 8230 c0 -5 5 -10 11 -10 5 0 7 5 4 10 -3 6 -8 10 -11 10 -2 0
-4 -4 -4 -10z"/>
<path d="M14288 8233 c7 -3 16 -2 19 1 4 3 -2 6 -13 5 -11 0 -14 -3 -6 -6z"/>
<path d="M6258 8223 c23 -2 59 -2 80 0 20 2 1 4 -43 4 -44 0 -61 -2 -37 -4z"/>
<path d="M9338 8223 c23 -2 59 -2 80 0 20 2 1 4 -43 4 -44 0 -61 -2 -37 -4z"/>
<path d="M2557 8199 c4 -13 8 -18 11 -10 2 7 -1 18 -6 23 -8 8 -9 4 -5 -13z"/>
<path d="M9815 8209 c-3 -9 -5 -20 -4 -25 1 -5 -1 -17 -6 -27 -10 -23 11 -47
41 -47 86 0 114 72 32 83 -23 3 -44 11 -49 18 -6 11 -9 10 -14 -2z m94 -45
c11 -3 11 -7 1 -19 -16 -19 -86 -20 -93 -1 -12 30 29 39 92 20z"/>
<path d="M2416 8184 c-10 -14 -15 -28 -13 -31 3 -2 13 7 23 21 9 15 14 29 12
32 -3 2 -13 -7 -22 -22z"/>
<path d="M2460 8188 c0 -16 5 -28 10 -28 13 0 13 20 0 40 -8 12 -10 9 -10 -12z"/>
<path d="M5140 8200 c0 -6 -16 -18 -35 -27 -19 -9 -35 -20 -35 -25 0 -5 18 3
40 17 22 14 44 25 50 25 5 0 10 5 10 10 0 6 -7 10 -15 10 -8 0 -15 -5 -15 -10z"/>
<path d="M4960 8177 c14 -15 29 -27 34 -27 13 0 -14 29 -38 42 -18 10 -17 7 4
-15z"/>
<path d="M5294 8175 c40 -27 46 -29 46 -17 0 10 -54 42 -70 42 -7 0 4 -11 24
-25z"/>
<path d="M450 8180 c0 -5 5 -10 10 -10 6 0 10 5 10 10 0 6 -4 10 -10 10 -5 0
-10 -4 -10 -10z"/>
<path d="M6896 8171 c-20 -22 -18 -62 2 -69 11 -3 11 -1 1 16 -12 18 -10 24
11 47 13 14 19 25 13 25 -5 0 -18 -9 -27 -19z"/>
<path d="M6946 8175 c4 -8 -1 -26 -10 -39 -13 -21 -13 -25 0 -30 8 -3 16 0 18
7 2 6 8 27 14 45 9 28 8 32 -9 32 -12 0 -16 -5 -13 -15z"/>
<path d="M12015 8163 c-27 -15 -45 -28 -39 -30 10 -3 104 44 104 53 0 8 -15 2
-65 -23z"/>
<path d="M12155 8178 c11 -6 30 -20 43 -31 12 -11 22 -16 22 -9 0 13 -53 52
-72 52 -7 0 -4 -5 7 -12z"/>
<path d="M4618 8148 c17 -8 26 -8 34 0 9 9 4 12 -22 11 -33 0 -34 -1 -12 -11z"/>
<path d="M2907 7929 c-3 -11 -3 -27 0 -35 6 -16 23 -19 23 -4 0 6 10 15 23 20
l22 9 -22 0 c-14 1 -23 7 -23 16 0 22 -17 18 -23 -6z"/>
<path d="M3016 7928 c-13 -15 -15 -23 -8 -26 7 -2 10 -8 6 -13 -3 -5 -1 -9 3
-9 15 0 30 35 24 53 -6 16 -8 15 -25 -5z"/>
<path d="M3695 7939 c-16 -5 -55 -13 -85 -18 -54 -8 -54 -9 -12 -10 30 -1 42
-5 42 -16 0 -12 -14 -15 -62 -16 -56 -1 -60 -2 -38 -12 31 -14 29 -47 -3 -48
-20 -1 -20 -2 3 -8 16 -5 24 -13 22 -24 -2 -9 2 -17 8 -17 5 0 10 9 10 20 0
13 7 20 20 20 11 0 20 5 20 11 0 6 -9 8 -20 4 -17 -5 -19 -2 -17 17 3 17 11
23 28 23 22 0 24 -4 27 -57 l3 -57 -53 -4 -53 -3 53 -2 c49 -2 53 -4 50 -24
-3 -20 -10 -24 -63 -29 -43 -4 -23 -6 73 -7 72 -1 132 2 132 6 0 5 -28 8 -62
8 -58 -1 -63 1 -66 22 -3 21 0 22 52 22 31 0 56 4 56 9 0 6 -24 7 -56 4 l-55
-6 3 59 c3 55 5 59 28 59 19 0 26 -6 28 -24 3 -20 0 -23 -17 -18 -12 3 -21 1
-21 -4 0 -5 9 -9 19 -9 12 0 21 -8 24 -22 l4 -23 2 23 c1 16 7 22 26 22 14 0
25 4 25 10 0 5 -10 9 -21 7 -14 -1 -23 4 -24 16 -2 9 3 18 11 18 8 1 19 2 26
3 6 0 13 6 15 12 3 8 -15 10 -62 7 -55 -5 -65 -3 -65 10 0 16 11 21 73 32 21
3 35 10 32 16 -7 11 -20 10 -60 -2z"/>
<path d="M3987 7935 c-4 -9 -26 -15 -69 -18 l-63 -3 63 -2 c45 -1 62 -6 62
-16 0 -17 -24 -28 -45 -20 -12 5 -15 -10 -17 -88 l-3 -93 -30 -6 c-16 -4 32
-7 108 -8 80 -1 137 3 137 8 0 17 -20 23 -35 11 -22 -18 -27 5 -23 99 3 78 2
81 -20 81 -20 0 -21 -2 -10 -20 11 -17 10 -22 -2 -30 -12 -8 -12 -10 -1 -10 9
0 12 -8 9 -25 -3 -13 0 -26 5 -28 6 -2 7 -9 3 -15 -4 -7 -31 -12 -67 -12 -46
0 -59 3 -59 15 0 8 5 15 12 15 9 0 9 3 0 12 -17 17 -15 36 6 41 16 4 16 5 0 6
-10 0 -18 8 -18 16 0 10 11 15 35 15 30 0 34 3 32 23 -2 20 2 22 61 25 34 2
62 6 62 11 0 4 -28 5 -62 3 -53 -4 -60 -3 -55 12 4 9 2 16 -2 16 -5 0 -11 -7
-14 -15z m67 -213 c13 -21 -13 -33 -65 -30 -42 2 -55 7 -57 21 -3 15 5 17 57
17 33 0 62 -4 65 -8z"/>
<path d="M4370 7939 c0 -5 5 -7 10 -4 6 3 10 8 10 11 0 2 -4 4 -10 4 -5 0 -10
-5 -10 -11z"/>
<path d="M5126 7934 c-3 -9 -6 -65 -6 -125 l0 -109 -27 -1 -28 -1 28 -10 c16
-5 31 -7 35 -3 7 7 15 265 8 265 -2 0 -7 -7 -10 -16z"/>
<path d="M5327 7930 c-14 -50 -9 -68 21 -72 22 -2 27 -7 24 -28 -1 -14 -10
-31 -20 -38 -9 -7 -15 -16 -13 -20 3 -4 -4 -9 -14 -11 -14 -2 -17 1 -11 20 18
66 19 72 9 66 -6 -4 -13 -25 -17 -47 -6 -35 -10 -41 -29 -38 -27 4 -32 44 -4
42 9 -1 17 2 17 7 0 5 -9 9 -20 9 -33 0 -26 38 8 43 l27 4 -27 2 c-37 1 -38
33 -2 50 34 15 27 23 -11 13 -28 -8 -28 -8 -26 -85 2 -64 0 -77 -13 -77 -9 0
-16 -4 -16 -10 0 -6 53 -10 140 -10 87 0 140 4 140 10 0 6 -7 10 -16 10 -13 0
-14 11 -8 80 l7 80 -32 0 c-17 0 -31 -4 -31 -10 0 -5 11 -10 25 -10 37 0 29
-33 -10 -43 -18 -4 -18 -5 3 -6 29 -1 32 -41 2 -41 -11 0 -20 -4 -20 -10 0 -5
9 -10 21 -10 14 0 19 -5 17 -17 -2 -13 -15 -19 -42 -21 -34 -3 -38 -1 -31 15
5 10 10 37 13 61 4 41 3 43 -19 40 -21 -3 -25 2 -29 37 -5 36 -6 37 -13 15z"/>
<path d="M7417 7922 c-3 -15 -8 -38 -11 -52 -6 -25 -6 -25 5 -2 10 18 20 22
61 22 l50 0 -6 -81 c-8 -101 -18 -123 -54 -115 -20 5 -23 4 -12 -4 48 -32 71
2 79 122 l6 88 -53 0 c-49 0 -54 2 -49 20 3 11 2 22 -3 25 -4 3 -10 -8 -13
-23z"/>
<path d="M10329 7921 c-6 -17 -17 -31 -25 -31 -11 0 -14 -20 -14 -97 0 -75 3
-94 12 -85 7 7 24 12 38 12 14 0 31 -5 38 -12 9 -9 12 3 12 55 0 37 4 67 9 67
5 0 14 14 21 30 11 28 16 30 61 30 l49 0 -1 -62 c-2 -101 -10 -123 -42 -123
-15 1 -27 -3 -27 -7 0 -13 51 -21 62 -10 5 5 13 50 18 98 4 49 9 95 11 103 3
11 -8 14 -54 12 l-58 -2 7 27 c5 17 3 25 -3 21 -6 -4 -14 -22 -17 -40 -3 -19
-13 -42 -21 -53 -14 -18 -15 -17 -13 11 3 28 1 30 -29 27 -37 -4 -41 3 -17 29
10 12 12 19 4 24 -6 4 -15 -6 -21 -24z m45 -71 c-1 -14 -2 -29 -3 -33 0 -5
-16 -7 -33 -5 -22 2 -34 9 -36 21 -7 34 6 48 40 45 28 -3 33 -7 32 -28z m6
-72 c0 -36 -15 -50 -46 -46 -18 2 -30 10 -32 21 -7 33 6 47 43 47 30 0 35 -3
35 -22z"/>
<path d="M11000 7913 c-7 -21 -22 -54 -33 -73 -17 -28 -18 -32 -4 -21 16 12
17 8 17 -63 0 -45 4 -76 10 -76 7 0 9 36 8 98 -2 76 1 104 15 131 20 39 20 41
8 41 -5 0 -15 -17 -21 -37z"/>
<path d="M11081 7930 c-8 -13 -22 -31 -32 -40 -21 -18 -15 -70 8 -70 13 0 13
3 3 15 -17 21 -1 38 31 33 32 -4 39 -38 7 -38 -18 0 -20 -2 -8 -10 11 -7 4
-13 -30 -29 -53 -23 -46 -28 7 -6 20 8 38 13 41 10 7 -6 -40 -44 -55 -45 -6 0
-14 -4 -18 -10 -3 -5 7 -5 25 1 16 6 33 15 36 20 7 13 34 11 34 -2 0 -5 -22
-20 -50 -32 -65 -29 -65 -42 0 -15 54 22 64 21 54 -6 -4 -11 -14 -16 -25 -13
-11 3 -17 1 -13 -4 3 -5 14 -9 25 -9 14 0 21 9 26 30 7 36 7 36 44 9 16 -11
35 -19 42 -16 6 2 -8 14 -32 27 -42 21 -44 23 -27 36 11 7 24 15 30 17 6 2 8
7 4 11 -3 4 -18 0 -32 -9 -21 -14 -29 -15 -41 -5 -29 24 -17 40 30 40 39 0 45
3 51 24 8 34 0 43 -36 38 -29 -4 -41 10 -20 23 19 11 1 22 -29 17 -22 -3 -30
0 -33 15 -3 16 -5 15 -17 -7z m57 -32 c-5 -15 -68 -24 -68 -10 0 15 13 22 43
22 18 0 27 -4 25 -12z m62 -48 c0 -15 -7 -20 -29 -20 -31 0 -47 13 -36 30 3 6
19 10 36 10 22 0 29 -5 29 -20z"/>
<path d="M12042 7933 c2 -12 -6 -19 -27 -24 l-30 -7 28 -1 c31 -1 39 -31 7
-31 -17 0 -20 -7 -20 -49 0 -45 2 -49 21 -44 16 5 20 1 18 -18 -4 -44 1 -79
11 -79 6 0 10 13 10 29 0 23 5 31 23 34 l22 4 -22 2 c-28 1 -31 31 -3 31 17 0
20 7 20 45 0 38 -3 45 -20 45 -11 0 -20 7 -20 15 0 9 10 15 26 15 14 0 23 4
20 9 -3 5 -16 7 -28 3 -18 -4 -20 -2 -16 16 4 15 2 22 -8 22 -9 0 -14 -7 -12
-17z m-4 -85 c-3 -7 -8 -13 -13 -13 -5 0 -10 6 -12 13 -3 6 3 12 12 12 9 0 15
-6 13 -12z m42 -3 c0 -8 -4 -15 -10 -15 -5 0 -10 7 -10 15 0 8 5 15 10 15 6 0
10 -7 10 -15z m-40 -40 c0 -8 -7 -15 -15 -15 -8 0 -15 7 -15 15 0 8 7 15 15
15 8 0 15 -7 15 -15z m40 0 c0 -8 -4 -15 -10 -15 -5 0 -10 7 -10 15 0 8 5 15
10 15 6 0 10 -7 10 -15z"/>
<path d="M12180 7915 c0 -32 -2 -35 -30 -35 -26 0 -30 -3 -29 -27 0 -28 0 -28
11 -5 16 33 42 24 46 -16 3 -26 0 -32 -15 -32 -11 0 -24 5 -30 11 -7 7 -11
-12 -12 -63 -1 -58 1 -70 11 -60 15 15 90 16 106 0 9 -9 12 10 12 85 0 53 0
100 1 105 1 4 -14 5 -31 4 -33 -4 -33 -3 -27 32 3 20 2 36 -4 36 -5 0 -9 -16
-9 -35z m60 -86 c0 -24 -4 -29 -25 -29 -21 0 -25 5 -25 28 0 35 6 41 31 35 13
-4 19 -14 19 -34z m-60 -79 c0 -34 -3 -40 -20 -40 -25 0 -34 21 -26 55 4 16
13 25 26 25 17 0 20 -7 20 -40z m58 -3 c3 -35 1 -38 -20 -35 -24 3 -35 34 -24
64 12 30 41 11 44 -29z"/>
<path d="M12380 7921 c0 -25 -5 -30 -27 -34 -27 -4 -27 -4 -5 -12 24 -8 23
-22 -5 -78 -8 -16 -12 -31 -10 -33 2 -3 10 9 17 26 20 49 30 35 30 -42 0 -44
4 -68 9 -60 4 8 7 43 5 78 -4 64 5 81 25 47 5 -10 12 -15 16 -12 3 4 -6 19
-20 35 -26 28 -24 39 10 47 18 4 18 5 -2 6 -19 1 -23 7 -23 31 0 17 -4 30 -10
30 -5 0 -10 -13 -10 -29z"/>
<path d="M12784 7932 c7 -20 3 -21 -56 -25 -35 -2 -3 -4 70 -5 72 -1 132 2
132 7 0 5 -29 6 -65 3 -55 -4 -65 -2 -65 11 0 9 -5 19 -11 23 -7 4 -9 0 -5
-14z"/>
<path d="M13038 7933 c17 -31 16 -33 -20 -34 -24 -1 -27 -3 -10 -6 17 -4 22
-11 22 -37 0 -34 -13 -115 -25 -151 -4 -14 -2 -12 9 5 8 14 20 46 26 73 16 65
40 64 40 -2 0 -64 -7 -81 -34 -81 -20 -1 -20 -1 -2 -11 29 -17 47 10 53 80 3
34 8 59 11 56 8 -7 52 36 52 51 0 6 6 17 14 24 12 9 19 4 41 -29 14 -23 33
-41 43 -41 13 0 11 5 -10 23 -14 12 -35 40 -46 62 l-20 40 -16 -39 c-9 -21
-16 -42 -16 -46 0 -13 -38 -41 -44 -32 -3 5 -17 7 -31 4 -22 -4 -25 -1 -25 22
0 23 4 26 36 26 21 0 33 4 29 10 -3 6 -17 7 -31 4 -17 -4 -24 -2 -24 9 0 8 -7
21 -17 28 -15 13 -15 12 -5 -8z"/>
<path d="M13518 7878 c-3 -62 -6 -73 -20 -72 -11 1 -18 -5 -18 -15 0 -14 -9
-18 -40 -19 -30 -1 -40 2 -40 13 0 10 10 15 30 15 17 0 30 4 30 10 0 5 -13 7
-31 3 -31 -6 -31 -6 -24 28 4 19 13 40 21 48 11 13 14 12 20 -4 5 -12 1 -22
-11 -31 -18 -13 -18 -14 3 -14 20 0 22 5 22 50 l0 50 -60 0 -60 0 0 -50 c0
-47 2 -50 25 -50 38 0 32 -28 -7 -33 l-33 -4 33 -1 c21 -1 32 -7 32 -17 0 -10
-10 -15 -32 -15 -27 -1 -30 -3 -16 -10 9 -6 43 -9 75 -8 l58 3 5 -40 c3 -25 8
-35 13 -27 5 7 29 12 56 12 l48 0 -3 53 c-2 49 -4 52 -28 49 -24 -3 -26 0 -26
32 0 33 2 36 30 36 17 0 30 5 30 11 0 6 -12 9 -27 7 -26 -3 -28 0 -28 30 0 18
-5 32 -12 32 -8 0 -13 -24 -15 -72z m-130 15 c-2 -27 -8 -39 -21 -41 -15 -3
-17 3 -15 37 2 32 7 41 21 41 15 0 18 -7 15 -37z m33 14 c-13 -13 -26 -3 -16
12 3 6 11 8 17 5 6 -4 6 -10 -1 -17z m157 -154 c-3 -37 -4 -38 -45 -41 l-43
-3 0 40 0 41 46 0 45 0 -3 -37z"/>
<path d="M1051 7935 c-1 -5 8 -21 19 -35 11 -14 20 -34 20 -46 0 -20 -31 -85
-66 -139 -28 -42 -9 -28 25 20 l32 45 85 0 c80 0 84 -1 84 -22 0 -49 -11 -68
-39 -68 -24 -1 -24 -1 -7 -12 16 -9 23 -7 38 12 10 12 18 33 18 45 0 13 3 30
6 39 4 12 0 16 -16 16 -18 0 -21 4 -18 25 4 17 1 25 -8 25 -8 0 -14 -11 -14
-25 0 -24 -3 -25 -60 -25 -53 0 -60 2 -60 20 0 18 7 20 55 20 52 0 55 1 55 25
0 14 1 28 3 32 1 3 -18 7 -43 7 -41 1 -45 3 -43 24 2 12 -2 22 -7 22 -6 0 -10
-9 -10 -20 0 -26 -7 -25 -31 3 -10 12 -18 18 -18 12z m137 -72 c-2 -13 -15
-19 -46 -21 -37 -3 -42 -1 -42 17 0 18 6 21 46 21 38 0 45 -3 42 -17z"/>
<path d="M1739 7923 c16 -32 14 -36 -14 -31 -14 3 -25 1 -25 -3 0 -5 48 -9
106 -9 90 0 105 -2 100 -15 -8 -22 7 -18 22 5 11 19 10 20 -24 20 -35 0 -36 1
-21 18 10 10 17 23 17 28 0 5 -11 -3 -24 -18 -31 -36 -60 -38 -54 -3 4 17 1
25 -9 25 -8 0 -12 -4 -9 -9 8 -13 -4 -41 -17 -41 -6 0 -22 12 -35 28 -18 21
-21 22 -13 5z"/>
<path d="M2080 7930 c0 -5 -10 -10 -23 -10 -30 0 -49 -30 -32 -53 7 -9 22 -17
34 -17 17 0 21 -6 21 -31 0 -23 -4 -30 -17 -27 -23 4 -29 28 -7 28 9 0 14 3
10 8 -11 10 -30 9 -37 -1 -12 -17 3 -47 23 -47 11 0 18 -5 15 -12 -2 -7 -16
-13 -30 -13 -15 1 -27 -3 -27 -7 0 -4 9 -8 21 -8 11 0 17 -5 14 -10 -3 -6 1
-13 9 -16 25 -10 19 -22 -16 -30 -18 -4 -28 -9 -21 -11 6 -2 28 3 48 11 27 12
42 13 56 6 11 -6 19 -7 19 -1 0 5 -7 11 -15 15 -22 8 -7 35 23 43 l26 6 -24 9
c-15 5 -27 5 -34 -2 -14 -14 -26 -12 -26 5 0 10 10 15 30 15 27 0 30 3 30 31
0 28 -2 31 -25 25 -14 -4 -25 -2 -25 4 0 5 11 10 25 10 14 0 25 5 25 10 0 6
-11 8 -25 4 -15 -4 -25 -2 -25 5 0 6 16 11 35 11 19 0 35 3 35 6 0 13 -30 34
-49 34 -12 0 -21 5 -21 10 0 6 -4 10 -10 10 -5 0 -10 -4 -10 -10z m-5 -30 c-3
-5 -13 -10 -21 -10 -8 0 -12 5 -9 10 3 6 13 10 21 10 8 0 12 -4 9 -10z m60 0
c-3 -5 -13 -10 -21 -10 -8 0 -14 5 -14 10 0 6 9 10 21 10 11 0 17 -4 14 -10z
m-55 -30 c0 -5 -9 -10 -21 -10 -11 0 -17 5 -14 10 3 6 13 10 21 10 8 0 14 -4
14 -10z m54 -65 c-1 -18 -34 -18 -34 0 0 10 7 15 18 13 9 -2 17 -8 16 -13z
m-40 -61 c24 -9 19 -24 -9 -24 -18 0 -23 4 -19 15 7 17 7 17 28 9z"/>
<path d="M2197 7893 c-8 -27 -18 -57 -22 -68 -3 -11 1 -8 10 8 11 18 24 27 42
27 24 0 25 -2 20 -41 -8 -59 -23 -69 -41 -28 -8 19 -15 28 -15 21 -1 -7 6 -26
15 -43 15 -29 14 -31 -19 -64 -19 -19 -31 -35 -26 -35 6 0 22 12 36 26 l27 27
14 -22 c8 -11 23 -21 34 -21 17 0 15 4 -10 25 l-30 25 20 63 c10 34 23 64 29
65 24 9 -5 20 -38 15 -38 -6 -40 -3 -18 50 4 9 3 17 -2 17 -6 0 -17 -21 -26
-47z"/>
<path d="M4223 7900 c-28 -48 -29 -60 -2 -60 l20 0 -20 -29 c-19 -26 -27 -51
-17 -51 2 0 16 6 31 14 15 8 34 12 41 9 19 -7 18 11 -1 27 -12 10 -15 10 -15
-4 0 -9 -8 -16 -21 -16 -20 0 -20 1 -2 31 10 17 26 39 35 49 10 11 14 21 9 24
-4 3 -13 -5 -19 -19 -8 -17 -16 -22 -31 -18 -20 5 -20 6 -3 32 29 41 34 51 25
51 -4 0 -18 -18 -30 -40z"/>
<path d="M4702 7928 c8 -7 25 -30 37 -50 l23 -38 -92 0 -91 0 12 23 c6 12 21
32 32 45 17 18 18 22 5 22 -9 0 -21 -13 -28 -30 -7 -16 -26 -43 -43 -60 -17
-16 -26 -30 -20 -30 6 0 15 6 21 13 7 8 25 11 48 9 35 -4 36 -5 30 -40 -5 -36
-46 -88 -81 -102 -15 -7 -16 -9 -4 -9 28 -1 87 63 99 108 10 39 13 41 49 41
33 0 39 -4 43 -24 3 -14 2 -42 -1 -63 -6 -36 -9 -38 -40 -36 -37 1 -30 -12 11
-22 29 -7 32 -3 43 75 10 73 13 78 38 73 19 -4 19 -3 -6 14 -35 25 -56 53 -57
76 0 11 -8 17 -22 17 -19 0 -20 -2 -6 -12z"/>
<path d="M4894 7928 c-9 -15 9 -88 22 -88 10 0 13 -10 10 -32 -2 -18 -4 -41
-5 -50 0 -9 -13 -31 -28 -49 -16 -18 -21 -30 -13 -28 8 3 28 30 43 62 23 46
32 57 52 57 22 0 25 -5 25 -34 0 -48 -9 -66 -34 -67 -20 0 -20 -1 2 -12 29
-14 42 2 42 55 0 20 3 43 6 52 5 13 -2 16 -36 16 -37 0 -42 2 -37 20 4 15 0
20 -14 20 -15 0 -19 7 -19 35 0 35 0 35 45 35 43 0 45 -1 45 -29 0 -20 -6 -31
-17 -34 -12 -3 -10 -5 7 -6 23 -1 25 3 26 42 l1 43 -59 -1 c-33 0 -62 -3 -64
-7z"/>
<path d="M7320 7919 c0 -12 -8 -23 -20 -26 -18 -5 -20 -14 -20 -105 0 -90 1
-98 16 -84 18 19 45 21 62 4 9 -9 12 1 12 48 0 33 5 65 12 72 9 9 9 12 0 12
-7 0 -9 10 -6 28 6 28 5 29 -27 24 l-33 -5 17 27 c15 22 15 26 2 26 -9 0 -15
-9 -15 -21z m40 -74 c0 -33 -2 -35 -35 -35 -32 0 -35 3 -35 29 0 31 10 39 48
40 19 1 22 -4 22 -34z m0 -80 c0 -33 -2 -35 -35 -35 -33 0 -35 2 -35 35 0 33
2 35 35 35 33 0 35 -2 35 -35z"/>
<path d="M7614 7812 l0 -127 123 0 123 0 0 126 0 126 -122 1 -123 0 -1 -126z
m66 78 c0 -23 4 -30 20 -30 37 0 21 -20 -17 -22 -21 -1 -2 -5 42 -8 l80 -6
-72 -2 -73 -2 0 -56 c0 -47 3 -55 16 -50 9 3 42 6 74 6 l58 0 4 64 3 63 -37
-5 c-25 -3 -38 -1 -38 7 0 6 11 11 25 11 21 0 25 5 25 30 0 27 3 30 30 30 l30
0 0 -110 0 -110 -110 0 -110 0 0 110 0 110 25 0 c21 0 25 -5 25 -30z m93 19
c-6 -6 -9 -18 -6 -26 4 -11 -3 -14 -32 -11 -32 2 -39 7 -40 26 -1 20 3 22 44
22 33 0 42 -3 34 -11z m19 -123 c19 -42 5 -56 -57 -56 l-55 0 0 33 c0 43 5 47
57 47 36 0 45 -4 55 -24z"/>
<path d="M7700 7764 c0 -23 3 -25 33 -22 24 2 33 8 35 26 3 19 -1 22 -32 22
-32 0 -36 -3 -36 -26z m58 4 c-7 -20 -48 -23 -48 -4 0 11 9 16 26 16 16 0 24
-5 22 -12z"/>
<path d="M7976 7893 c-9 -25 -23 -55 -33 -65 -9 -11 -11 -18 -5 -18 7 0 12 5
12 10 0 6 4 10 10 10 5 0 11 -37 13 -82 3 -79 3 -77 5 25 1 74 7 117 17 137 9
17 11 30 6 30 -5 0 -16 -21 -25 -47z"/>
<path d="M8060 7927 c0 -8 -9 -22 -20 -32 -11 -10 -20 -31 -20 -47 0 -23 4
-28 25 -28 36 0 31 -17 -10 -34 -19 -8 -35 -17 -35 -20 0 -6 40 8 71 24 29 16
24 -5 -7 -29 -31 -24 -19 -29 14 -5 20 14 22 14 22 0 0 -9 -21 -27 -47 -41
-27 -14 -37 -23 -23 -19 14 3 35 12 47 20 12 8 27 14 33 14 19 0 10 -27 -12
-38 l-23 -12 25 3 c19 1 26 8 28 30 l3 27 29 -20 c30 -21 50 -26 50 -11 0 5
-13 12 -29 16 -39 8 -47 33 -16 47 14 6 25 15 25 20 0 13 -10 10 -37 -11 -30
-24 -53 -17 -53 15 0 22 4 24 45 24 25 0 45 3 46 8 0 4 2 17 5 30 2 14 -1 22
-8 21 -7 -1 -24 -1 -37 0 -20 1 -22 4 -13 13 19 19 14 28 -18 28 -16 0 -30 5
-30 10 0 6 -7 10 -15 10 -8 0 -15 -6 -15 -13z m46 -25 c15 -9 -4 -28 -26 -26
-44 3 -45 4 -26 19 22 17 35 18 52 7z m67 -41 c4 -1 7 -8 7 -16 0 -10 -10 -15
-30 -15 -22 0 -30 5 -30 18 0 13 6 18 23 16 12 -1 25 -3 30 -3z m-73 -16 c0
-10 -10 -15 -30 -15 -20 0 -30 5 -30 15 0 10 10 15 30 15 20 0 30 -5 30 -15z"/>
<path d="M10630 7813 l0 -128 120 0 c99 0 121 3 124 15 2 8 4 66 5 128 l1 112
-125 0 -125 0 0 -127z m55 109 c6 -4 10 -18 10 -32 0 -19 6 -26 25 -30 19 -3
15 -6 -20 -11 -39 -5 -34 -6 33 -7 48 -1 77 -6 77 -13 0 -7 -23 -10 -65 -7
l-65 3 0 -59 c0 -33 3 -56 8 -52 4 4 7 26 7 49 l0 42 58 3 58 3 -3 -38 c-3
-35 -6 -38 -37 -41 -18 -2 -38 1 -44 7 -8 8 0 11 26 11 32 0 37 3 37 23 0 19
-5 22 -40 22 -40 1 -40 1 -40 -37 l0 -38 55 0 55 0 0 59 c0 38 4 61 13 64 6 3
-8 6 -33 7 -34 2 -39 4 -21 9 14 4 25 15 27 29 4 20 0 22 -47 22 -27 0 -48 3
-46 8 3 4 36 7 74 7 l68 0 3 -113 3 -113 -108 3 -108 3 -3 104 c-2 77 1 107
10 113 16 10 20 10 33 0z m105 -32 c0 -12 -45 -24 -65 -16 -29 11 -15 26 25
26 22 0 40 -4 40 -10z m-20 -120 c0 -5 -9 -10 -20 -10 -11 0 -20 5 -20 10 0 6
9 10 20 10 11 0 20 -4 20 -10z"/>
<path d="M11324 7928 c-3 -4 6 -8 20 -8 24 0 26 -4 26 -42 0 -62 -18 -118 -52
-160 -16 -21 -25 -38 -20 -38 14 0 58 69 72 113 6 20 15 37 18 37 4 0 19 -22
34 -49 l26 -48 -51 -27 c-28 -14 -45 -26 -37 -26 7 0 32 11 56 25 l42 25 44
-25 c43 -25 68 -31 68 -17 0 4 -20 15 -45 25 -43 18 -57 39 -35 52 6 3 19 24
29 46 l19 39 -30 0 c-27 0 -30 3 -26 28 3 15 9 35 13 45 5 13 2 17 -14 17 -12
0 -21 -4 -21 -10 0 -5 4 -10 9 -10 5 0 6 -15 2 -32 -6 -30 -10 -33 -49 -36
-42 -3 -42 -3 -42 32 0 28 5 36 28 45 24 9 21 10 -26 9 -29 -1 -55 -5 -58 -10z
m186 -103 c0 -18 -40 -75 -52 -75 -10 0 -48 61 -48 78 0 8 17 12 50 12 38 0
50 -4 50 -15z"/>
<path d="M12483 7932 c-13 -2 -23 -9 -24 -15 0 -7 -2 -63 -3 -124 -2 -104 3
-130 19 -103 9 14 78 13 93 -2 9 -9 12 15 12 110 0 67 1 125 3 129 2 8 -60 11
-100 5z m78 -22 c6 -44 4 -45 -43 -48 -47 -3 -48 -3 -48 27 0 30 1 31 45 31
25 0 46 -4 46 -10z m4 -90 c0 -23 -4 -25 -47 -28 -48 -3 -48 -3 -48 28 0 31 0
31 48 28 43 -3 47 -5 47 -28z m-2 -67 c7 -39 2 -43 -49 -43 -44 0 -44 0 -44
35 0 35 0 35 44 35 40 0 44 -2 49 -27z"/>
<path d="M1577 7919 c-10 -6 -62 -9 -122 -7 -106 3 -135 -8 -35 -14 l55 -3 0
-108 c0 -61 3 -106 9 -104 5 2 9 30 10 62 1 58 2 60 26 58 36 -3 72 6 66 16
-3 5 -26 6 -51 3 l-45 -5 0 42 0 41 55 0 c42 0 55 3 55 15 0 18 0 17 -23 4z"/>
<path d="M6295 7919 c-11 -4 -14 -8 -7 -8 9 -1 12 -26 12 -90 0 -62 -4 -91
-12 -94 -7 -3 3 -6 22 -6 19 0 30 3 24 7 -7 4 -11 40 -9 100 1 51 -1 94 -4 96
-3 2 -15 0 -26 -5z"/>
<path d="M9302 7923 c-6 -2 -10 -9 -7 -14 9 -14 12 -74 5 -133 -6 -54 -5 -56
18 -56 19 0 22 3 14 13 -7 8 -9 46 -6 105 2 51 1 92 -3 91 -4 0 -14 -3 -21 -6z"/>
<path d="M13958 7889 c-18 -25 -22 -36 -12 -32 12 4 15 -1 12 -23 -2 -19 -10
-30 -22 -32 -15 -3 -18 0 -13 17 3 12 4 21 2 21 -1 0 -21 -25 -44 -54 -25 -34
-37 -57 -30 -61 12 -8 12 -8 25 30 8 24 16 31 43 33 32 3 33 2 29 -27 -4 -24
-1 -31 12 -31 14 0 18 15 23 97 3 54 5 98 4 99 -1 1 -14 -15 -29 -37z"/>
<path d="M2840 7910 c0 -5 11 -10 25 -10 14 0 25 5 25 10 0 6 -11 10 -25 10
-14 0 -25 -4 -25 -10z"/>
<path d="M3075 7910 c3 -5 12 -7 20 -3 21 7 19 13 -6 13 -11 0 -18 -4 -14 -10z"/>
<path d="M4320 7865 c0 -45 3 -53 16 -48 11 4 12 9 5 16 -20 20 -11 27 34 27
31 0 45 -4 44 -12 -1 -7 1 -21 6 -31 12 -29 -11 -45 -33 -24 -14 14 -14 19 -4
26 11 7 11 9 -2 14 -12 5 -16 0 -16 -18 0 -21 -5 -25 -32 -25 -30 0 -31 -1
-13 -14 19 -14 19 -15 1 -35 l-18 -20 -19 22 c-10 12 -18 17 -19 11 0 -6 6
-17 14 -24 8 -6 12 -19 9 -28 -3 -9 13 3 36 27 l41 44 0 -36 c0 -28 -4 -37
-17 -37 -17 -1 -17 -1 0 -11 24 -14 29 -8 29 35 0 20 4 39 9 42 5 3 9 1 9 -5
0 -16 51 -71 61 -65 5 3 -5 19 -22 35 -31 29 -31 30 -13 44 10 8 25 15 33 15
11 0 11 4 -2 18 -11 12 -17 36 -17 65 0 27 -5 47 -11 47 -6 0 -8 -9 -4 -20 6
-18 2 -20 -44 -20 -28 0 -51 5 -51 10 0 6 19 10 42 10 51 0 44 10 -11 16 l-41
4 0 -55z"/>
<path d="M5065 7840 c0 -44 3 -80 8 -80 4 0 7 36 7 80 0 44 -3 80 -7 80 -5 0
-8 -36 -8 -80z"/>
<path d="M5360 7910 c0 -5 7 -10 15 -10 8 0 15 5 15 10 0 6 -7 10 -15 10 -8 0
-15 -4 -15 -10z"/>
<path d="M12705 7847 l-40 -39 37 22 c41 23 63 46 51 52 -4 2 -26 -14 -48 -35z"/>
<path d="M12853 7862 c15 -9 27 -20 27 -24 0 -5 5 -8 10 -8 19 0 10 16 -19 33
-38 22 -55 22 -18 -1z"/>
<path d="M1686 7853 c-6 -14 -5 -15 5 -6 7 7 10 15 7 18 -3 3 -9 -2 -12 -12z"/>
<path d="M2945 7850 c-3 -11 -14 -20 -23 -20 -14 0 -15 -2 -2 -10 12 -7 11
-13 -10 -37 -14 -15 -31 -34 -39 -40 -9 -8 -10 -13 -4 -13 7 0 15 5 18 10 13
21 25 9 25 -25 l0 -35 86 0 85 0 -3 47 -3 46 -72 -2 c-43 -1 -73 2 -73 8 0 21
13 41 26 41 8 0 14 5 14 10 0 6 -4 10 -10 10 -5 0 -7 7 -4 15 4 8 4 15 1 15
-3 0 -9 -9 -12 -20z m115 -125 l0 -35 -65 0 -65 0 0 35 0 35 65 0 65 0 0 -35z"/>
<path d="M1740 7825 c0 -19 5 -35 11 -35 6 0 8 9 4 21 -9 28 8 39 63 39 35 0
42 -3 42 -19 0 -20 -18 -31 -51 -31 -12 0 -16 -5 -13 -15 5 -12 -2 -15 -34
-15 -38 0 -40 -1 -44 -35 -2 -19 0 -41 4 -48 4 -7 8 3 8 26 0 36 1 37 35 37
34 0 35 -1 35 -40 0 -22 5 -40 10 -40 6 0 10 18 10 40 l0 40 40 0 c34 0 40 -3
40 -20 0 -12 -9 -24 -22 -29 -19 -7 -19 -8 -4 -14 27 -11 36 0 36 44 0 39 0
39 -34 36 -43 -5 -68 8 -46 23 8 5 24 10 36 10 16 0 21 6 21 30 l0 30 -74 0
-73 0 0 -35z"/>
<path d="M6381 7829 c-18 -30 -17 -65 4 -99 10 -17 71 -12 88 8 24 26 21 77
-5 102 -32 30 -65 26 -87 -11z m69 6 c13 -15 16 -77 5 -94 -10 -18 -43 -12
-55 8 -31 58 12 132 50 86z"/>
<path d="M6542 7848 c-29 -29 -8 -80 33 -80 30 0 45 16 45 50 0 14 6 22 17 22
29 0 10 7 -37 14 -31 4 -50 2 -58 -6z m56 -36 c3 -26 0 -32 -17 -32 -26 0 -42
29 -29 53 15 29 43 17 46 -21z"/>
<path d="M9392 7840 c-28 -26 -29 -80 -4 -103 28 -26 77 -22 96 8 22 33 20 67
-4 93 -26 28 -60 28 -88 2z m67 -4 c7 -8 11 -34 9 -58 -3 -38 -6 -43 -30 -46
-20 -2 -28 2 -34 20 -8 25 -7 75 2 89 8 14 40 10 53 -5z"/>
<path d="M9556 7847 c-15 -11 -17 -21 -12 -48 6 -33 8 -35 40 -31 33 4 45 17
60 65 4 12 0 17 -12 17 -9 0 -26 3 -37 6 -11 3 -29 -1 -39 -9z m54 -16 c13
-25 3 -51 -21 -51 -20 0 -36 40 -24 59 10 17 33 13 45 -8z"/>
<path d="M1401 7790 c-1 -36 -4 -75 -7 -87 -4 -16 -2 -23 8 -23 11 0 13 15 10
73 -4 98 -9 116 -11 37z"/>
<path d="M5809 7841 c19 -12 31 -105 17 -134 -7 -12 -22 -23 -34 -25 -21 -3
-33 -32 -13 -32 14 0 92 95 81 98 -6 2 -10 16 -10 30 0 49 -11 72 -34 72 -16
0 -18 -2 -7 -9z"/>
<path d="M5900 7822 c0 -15 -5 -33 -12 -40 -6 -6 -9 -14 -6 -18 8 -7 38 49 38
71 0 8 -4 15 -10 15 -5 0 -10 -13 -10 -28z"/>
<path d="M6910 7830 c11 -11 20 -29 20 -39 0 -23 -25 -51 -46 -51 -8 0 -14 -4
-14 -10 0 -15 21 -12 43 7 18 17 19 17 28 0 13 -21 33 -22 50 -1 12 15 11 16
-8 10 -18 -6 -23 -3 -29 18 -8 34 1 57 26 63 11 3 20 9 20 14 0 14 -12 11 -33
-8 -18 -17 -19 -17 -28 0 -6 9 -19 17 -29 17 -20 0 -20 0 0 -20z"/>
<path d="M8849 7841 c10 -6 16 -33 19 -75 4 -65 4 -66 -27 -83 -29 -17 -41
-33 -23 -33 10 0 68 62 110 116 32 42 42 84 21 84 -6 0 -8 -7 -5 -16 7 -17
-29 -84 -45 -84 -5 0 -10 8 -10 18 -1 9 -2 22 -4 27 -1 6 -3 20 -3 33 -2 16
-8 22 -24 22 -18 0 -20 -2 -9 -9z"/>
<path d="M9913 7839 c20 -12 23 -69 5 -87 -7 -7 -21 -12 -32 -12 -15 0 -17 -3
-8 -12 9 -9 17 -7 35 11 l24 22 16 -23 c14 -22 16 -22 33 -6 16 16 16 17 -5
11 -21 -5 -22 -3 -19 38 2 37 7 45 26 47 12 2 22 8 22 13 0 14 -26 11 -40 -6
-12 -14 -15 -14 -30 0 -9 8 -23 15 -31 15 -10 -1 -9 -3 4 -11z"/>
<path d="M11760 7830 c11 -11 20 -28 20 -38 0 -21 -29 -52 -48 -52 -7 0 -12
-4 -12 -10 0 -17 22 -11 46 11 l22 21 7 -21 c7 -23 13 -25 35 -11 13 8 13 10
-2 10 -10 0 -19 11 -23 30 -8 36 -1 48 33 62 15 6 22 12 15 15 -7 2 -22 -1
-34 -8 -17 -9 -24 -9 -27 0 -2 6 -15 11 -28 11 l-24 0 20 -20z"/>
<path d="M14247 7825 c19 -26 33 -32 33 -14 0 12 -29 38 -43 39 -4 0 0 -11 10
-25z"/>
<path d="M2457 7834 c-4 -4 -7 -14 -7 -23 1 -14 2 -13 11 2 13 23 39 22 39 -2
0 -12 -9 -21 -22 -24 -20 -5 -20 -5 2 -4 20 2 25 7 25 27 0 18 -6 26 -20 28
-12 2 -24 0 -28 -4z"/>
<path d="M2835 7830 c3 -6 20 -10 37 -10 38 0 34 5 -10 13 -21 4 -31 3 -27 -3z"/>
<path d="M3040 7830 l-45 -7 58 -1 c32 -1 57 2 57 8 0 11 -1 11 -70 0z"/>
<path d="M3308 7832 c-174 -4 -168 -22 7 -22 78 0 135 4 135 9 0 15 -8 16
-142 13z"/>
<path d="M8394 7815 c24 -26 36 -31 36 -16 0 14 -30 41 -45 41 -9 0 -6 -8 9
-25z"/>
<path d="M9050 7829 c0 -12 24 -14 85 -9 l60 6 -73 4 c-39 3 -72 2 -72 -1z"/>
<path d="M12740 7833 c0 -5 9 -19 20 -33 11 -14 20 -33 20 -42 0 -19 -47 -56
-88 -68 -20 -6 -22 -8 -7 -9 11 -1 40 13 65 29 25 16 48 30 52 30 4 0 30 -14
58 -32 34 -21 54 -28 61 -21 6 6 -3 14 -29 22 -21 7 -48 21 -61 30 l-23 18 26
41 c14 23 22 42 16 42 -6 0 -14 -10 -19 -23 -5 -13 -16 -29 -25 -36 -13 -11
-18 -8 -37 23 -20 35 -29 44 -29 29z"/>
<path d="M3983 7823 c9 -2 23 -2 30 0 6 3 -1 5 -18 5 -16 0 -22 -2 -12 -5z"/>
<path d="M6023 7824 c7 -7 138 -7 145 1 3 3 -30 5 -73 5 -43 0 -76 -3 -72 -6z"/>
<path d="M7430 7823 c0 -5 9 -18 20 -28 11 -10 20 -14 20 -8 0 5 -9 18 -20 28
-11 10 -20 14 -20 8z"/>
<path d="M10446 7822 c6 -4 17 -18 23 -30 7 -13 15 -21 18 -18 8 8 -26 56 -40
56 -8 0 -9 -3 -1 -8z"/>
<path d="M13175 7817 c7 -16 45 -40 45 -28 0 5 -11 16 -25 25 -16 11 -23 12
-20 3z"/>
<path d="M9714 7781 c3 -4 -2 -34 -11 -65 -13 -47 -14 -59 -3 -69 10 -9 11 -9
6 1 -11 18 13 82 30 82 25 0 28 -30 5 -61 -12 -16 -17 -29 -12 -29 16 0 41 42
41 68 0 16 -7 26 -21 29 -16 4 -19 11 -15 29 5 18 2 24 -9 24 -9 0 -14 -4 -11
-9z"/>
<path d="M6020 7770 c0 -6 32 -10 75 -10 43 0 75 4 75 10 0 6 -32 10 -75 10
-43 0 -75 -4 -75 -10z"/>
<path d="M9050 7770 c0 -6 30 -10 70 -10 40 0 70 4 70 10 0 6 -30 10 -70 10
-40 0 -70 -4 -70 -10z"/>
<path d="M1210 7742 c6 -13 14 -21 18 -18 3 4 -2 14 -12 24 -18 16 -18 16 -6
-6z"/>
<path d="M1118 7723 c5 -21 7 -23 10 -9 2 10 0 22 -6 28 -6 6 -7 0 -4 -19z"/>
<path d="M1160 7743 c0 -4 5 -15 10 -23 8 -13 10 -13 10 2 0 9 -4 20 -10 23
-5 3 -10 3 -10 -2z"/>
<path d="M4240 7743 c0 -4 5 -15 10 -23 8 -13 10 -13 10 2 0 9 -4 20 -10 23
-5 3 -10 3 -10 -2z"/>
<path d="M6530 7734 c0 -8 16 -14 47 -16 53 -3 67 -22 30 -39 -32 -14 -74 -5
-80 19 -3 11 -5 7 -6 -10 -1 -21 4 -28 28 -33 38 -8 91 18 91 45 0 24 -8 28
-64 39 -36 7 -46 5 -46 -5z"/>
<path d="M9540 7732 c0 -14 8 -17 45 -14 35 3 46 0 51 -12 9 -24 -2 -31 -47
-31 -24 0 -44 6 -49 15 -8 13 -10 12 -10 -3 0 -9 11 -23 25 -29 37 -17 95 12
95 47 0 25 -3 27 -77 39 -27 4 -33 2 -33 -12z"/>
<path d="M5265 7708 c-31 -24 -34 -29 -15 -23 31 10 73 42 63 48 -4 2 -26 -9
-48 -25z"/>
<path d="M5390 7736 c0 -2 18 -15 40 -30 37 -24 57 -23 27 2 -14 12 -67 34
-67 28z"/>
<path d="M6700 7713 c-32 -41 -23 -68 21 -69 36 -1 37 0 43 39 5 28 3 43 -6
49 -22 13 -36 9 -58 -19z m50 -3 c0 -11 -10 -30 -22 -42 l-23 -23 -3 22 c-4
28 14 63 33 63 8 0 15 -9 15 -20z"/>
<path d="M13188 7713 c15 -16 29 -24 31 -19 2 5 -6 18 -19 28 -34 28 -42 21
-12 -9z"/>
<path d="M13341 7733 c0 -6 -4 -20 -7 -30 -5 -14 -4 -15 5 -7 7 7 11 20 8 30
-3 11 -5 14 -6 7z"/>
<path d="M13410 7723 c0 -13 5 -23 10 -23 13 0 13 11 0 30 -8 12 -10 11 -10
-7z"/>
<path d="M13440 7731 c0 -5 5 -13 10 -16 6 -3 10 -2 10 4 0 5 -4 13 -10 16 -5
3 -10 2 -10 -4z"/>
<path d="M4211 7723 c0 -4 4 -17 9 -28 8 -19 9 -19 9 2 1 12 -3 25 -9 28 -5 3
-10 3 -9 -2z"/>
<path d="M13382 7710 c0 -14 2 -19 5 -12 2 6 2 18 0 25 -3 6 -5 1 -5 -13z"/>
<path d="M1067 7713 c-4 -3 -7 -11 -7 -17 0 -6 5 -5 12 2 6 6 9 14 7 17 -3 3
-9 2 -12 -2z"/>
<path d="M1579 7700 c-11 -7 -10 -10 4 -16 10 -4 23 -2 28 3 14 14 -13 24 -32
13z"/>
<path d="M1335 7690 c3 -5 11 -10 16 -10 6 0 7 5 4 10 -3 6 -11 10 -16 10 -6
0 -7 -4 -4 -10z"/>
<path d="M4325 7408 c2 -134 -1 -148 -34 -149 l-26 -1 29 -10 c40 -15 46 -1
46 117 0 55 3 110 6 123 5 15 2 22 -8 22 -13 0 -15 -18 -13 -102z"/>
<path d="M4477 7504 c-4 -4 -7 -15 -7 -24 0 -8 -8 -32 -18 -52 -13 -25 -15
-35 -6 -31 10 4 14 -16 17 -84 3 -86 3 -85 5 25 1 62 7 122 13 133 11 21 9 45
-4 33z"/>
<path d="M4880 7491 c0 -16 -8 -21 -42 -24 l-43 -4 43 -1 c35 -2 42 -5 42 -22
0 -18 -7 -20 -57 -20 -31 0 -54 -3 -50 -6 3 -3 33 -6 67 -6 72 0 75 -12 10
-47 -25 -13 -35 -21 -22 -18 21 5 22 2 22 -56 0 -39 4 -57 9 -48 6 10 26 12
75 9 l66 -4 0 61 0 60 -55 -3 c-31 -2 -55 0 -55 6 0 17 50 43 78 42 47 -3 76
0 68 7 -4 4 -23 6 -42 4 -34 -2 -35 -1 -24 19 6 11 18 24 26 27 8 3 14 12 14
20 0 9 -18 -4 -43 -31 -45 -48 -77 -54 -77 -15 0 14 8 19 33 20 30 2 30 2 5 6
-20 3 -28 10 -28 24 0 10 -4 19 -10 19 -5 0 -10 -9 -10 -19z m100 -186 l0 -45
-60 0 c-53 0 -60 2 -60 19 0 22 46 37 79 26 11 -3 22 -1 26 5 4 6 -13 10 -49
10 -43 0 -56 3 -56 15 0 12 13 15 60 15 l60 0 0 -45z"/>
<path d="M5613 7490 c-3 -13 -14 -20 -28 -20 -13 0 -26 -8 -30 -17 -5 -15 -4
-16 6 -5 17 15 133 17 123 1 -3 -6 4 -5 17 3 23 12 21 13 -29 16 -47 3 -52 5
-47 23 4 10 3 19 0 19 -4 0 -9 -9 -12 -20z"/>
<path d="M1200 7425 c0 -73 -1 -75 -25 -75 -16 0 -25 -6 -25 -15 0 -10 -11
-15 -35 -15 -46 0 -48 27 -2 33 l32 4 -32 1 c-40 2 -47 32 -8 32 21 0 25 5 25
28 0 15 3 37 6 50 6 21 4 22 -55 22 -56 0 -61 -2 -67 -24 -11 -45 -1 -71 29
-74 38 -5 34 -30 -5 -35 l-33 -4 33 -1 c43 -3 45 -32 1 -32 -16 0 -28 -4 -25
-8 2 -4 34 -7 70 -6 l66 1 0 -36 0 -37 43 5 42 5 -35 5 c-33 6 -35 8 -35 46
l0 40 40 0 40 0 0 -43 c0 -23 5 -42 10 -42 6 0 10 23 10 50 0 48 -1 50 -27 50
-25 0 -28 3 -28 35 0 32 2 35 30 35 17 0 30 4 30 10 0 5 -13 7 -32 3 -31 -6
-31 -6 -25 30 3 21 2 37 -4 37 -5 0 -9 -34 -9 -75z m-130 9 c0 -27 -4 -34 -20
-34 -14 0 -20 7 -20 23 0 18 2 19 10 7 8 -13 10 -13 10 2 0 9 -6 19 -12 21
-10 4 -10 8 2 16 21 14 30 4 30 -35z m50 1 c0 -28 -4 -35 -20 -35 -24 0 -25 4
-4 35 9 14 12 25 6 25 -6 0 -13 -6 -15 -12 -3 -8 -6 -6 -6 5 -1 11 6 17 19 17
16 0 20 -7 20 -35z"/>
<path d="M2360 7424 c0 -70 -2 -76 -19 -71 -13 3 -21 -1 -24 -13 -3 -12 -14
-17 -37 -16 -43 1 -53 26 -11 26 17 0 31 5 31 10 0 6 -10 8 -24 4 -27 -7 -43
11 -27 30 6 7 8 16 4 19 -7 8 16 37 29 37 6 0 8 -13 4 -30 -3 -19 -2 -29 4
-25 6 3 10 26 10 51 l0 44 -62 0 -63 0 0 -47 c0 -36 4 -48 15 -49 36 -2 41 -5
38 -16 -3 -7 -18 -16 -34 -19 l-29 -7 33 -1 c41 -1 39 -23 -4 -32 -18 -4 0 -7
49 -8 l77 -1 0 -42 c0 -33 3 -39 12 -30 7 7 32 12 58 12 l45 0 0 50 c0 48 -1
50 -27 50 -25 0 -28 3 -28 35 0 32 2 35 30 35 17 0 30 5 30 11 0 7 -11 8 -31
4 -31 -7 -31 -7 -27 29 3 25 0 36 -9 36 -10 0 -13 -20 -13 -76z m-130 17 c0
-15 -3 -30 -6 -34 -12 -12 -34 6 -34 27 1 21 1 21 15 2 8 -11 15 -15 15 -9 0
6 -7 16 -15 23 -12 10 -13 15 -3 21 18 11 28 1 28 -30z m40 19 c-19 -12 -30
-12 -30 -1 0 10 31 20 40 14 2 -2 -2 -8 -10 -13z m144 -147 c-1 -16 -2 -34 -3
-40 -1 -8 -16 -13 -41 -13 l-40 0 0 40 0 40 43 0 c41 0 43 -2 41 -27z"/>
<path d="M3424 7466 c3 -16 6 -35 6 -43 0 -8 4 -12 8 -9 5 3 7 19 4 37 l-5 32
52 -5 c33 -3 51 -1 51 6 0 7 -23 11 -61 11 l-60 0 5 -29z"/>
<path d="M3648 7383 l-3 -118 -30 -5 -30 -6 34 -7 c19 -4 35 -6 37 -5 6 7 8
258 2 258 -4 0 -9 -53 -10 -117z"/>
<path d="M3982 7488 c-6 -6 -54 -8 -121 -6 -61 1 -111 0 -111 -4 0 -5 27 -8
60 -8 l60 0 2 -122 c2 -115 2 -117 5 -30 2 50 6 92 9 92 10 0 48 -23 68 -41
11 -10 22 -16 25 -13 8 8 -49 53 -76 60 -16 4 -23 14 -23 30 0 23 3 24 70 24
39 0 70 4 70 9 0 14 -26 21 -38 9z"/>
<path d="M4195 7484 c-19 -15 -19 -15 10 -12 27 3 33 10 16 23 -3 2 -15 -3
-26 -11z"/>
<path d="M1880 7480 c-23 -7 -23 -8 -3 -9 52 -2 37 -122 -26 -211 l-24 -35 30
30 c16 17 38 55 48 84 l17 53 30 -52 c28 -49 29 -52 11 -66 -10 -7 -33 -18
-51 -25 -18 -6 -31 -13 -28 -16 3 -3 30 7 59 21 l54 28 34 -21 c19 -12 45 -21
59 -21 20 1 18 3 -14 15 -60 21 -71 36 -48 66 10 13 26 36 35 52 l17 27 -27 0
c-21 0 -24 -3 -14 -9 12 -8 10 -17 -13 -51 -31 -47 -40 -45 -70 15 -15 29 -15
30 7 37 18 5 17 6 -10 7 -32 1 -33 3 -33 41 l0 40 43 -6 c23 -4 44 -8 46 -10
2 -2 0 -20 -6 -39 -9 -28 -8 -35 2 -35 8 0 13 8 13 18 -1 9 2 31 6 47 l6 30
-62 1 c-35 1 -74 -2 -88 -6z"/>
<path d="M4085 7480 c3 -5 17 -10 30 -10 19 0 22 -4 17 -22 -3 -13 -16 -41
-30 -63 -20 -33 -21 -37 -5 -23 19 17 20 17 41 -5 30 -32 28 -50 -13 -86 -20
-17 -32 -31 -27 -31 13 0 78 73 95 107 8 15 17 40 21 56 6 25 4 27 -26 26 -25
-1 -28 -3 -10 -6 19 -4 23 -9 18 -26 -3 -12 -6 -28 -6 -34 0 -19 -25 -15 -45
7 -11 13 -15 25 -10 37 5 10 7 22 6 26 0 4 3 16 9 26 7 14 6 20 -6 25 -25 10
-66 7 -59 -4z"/>
<path d="M4585 7480 l-90 -6 75 -4 75 -5 3 -102 3 -103 -33 -1 -33 -1 35 -8
c19 -5 37 -6 40 -3 3 2 7 52 8 109 3 79 7 107 18 111 17 6 19 24 2 21 -7 -1
-53 -4 -103 -8z"/>
<path d="M5225 7480 c-105 -5 -112 -6 -55 -10 l65 -5 3 -80 c4 -109 -1 -125
-39 -125 l-31 0 4 75 c2 47 -1 75 -7 75 -7 0 -9 -26 -7 -69 l4 -69 -38 -10
c-32 -8 -12 -10 109 -11 86 -1 146 3 143 8 -3 5 -33 7 -66 4 l-60 -6 0 57 0
56 45 0 c25 0 45 5 45 10 0 6 -19 9 -42 8 l-43 -3 -3 43 -3 42 61 0 c38 0 59
4 55 10 -3 6 -9 9 -13 8 -4 -1 -61 -5 -127 -8z"/>
<path d="M5480 7480 c-25 -4 -37 -8 -27 -8 21 -2 23 -39 3 -87 -8 -19 -11 -35
-5 -35 5 0 9 -21 9 -46 0 -38 3 -45 16 -40 9 3 24 6 35 6 17 0 19 8 19 65 0
39 -4 65 -11 65 -6 0 -8 -9 -4 -20 11 -35 -4 -100 -23 -100 -14 0 -17 10 -16
50 1 28 4 53 7 56 3 3 3 11 1 18 -9 23 15 66 36 66 11 0 20 5 20 10 0 6 -3 9
-7 8 -5 0 -28 -4 -53 -8z"/>
<path d="M5862 7478 c-15 -15 -16 -58 -2 -58 6 0 8 11 4 25 -5 20 -2 25 22 31
57 15 82 -34 39 -80 -14 -15 -25 -35 -25 -44 0 -11 7 -6 19 14 11 18 24 35 30
38 15 9 14 59 -1 74 -7 7 -26 12 -43 12 -17 0 -36 -5 -43 -12z"/>
<path d="M2744 7470 c-41 -16 -74 -68 -74 -115 0 -49 16 -70 59 -80 31 -6 83
13 97 37 5 7 -4 5 -19 -4 -14 -10 -42 -18 -61 -18 -29 0 -38 5 -49 28 -34 69
37 166 108 148 17 -4 25 -13 26 -29 0 -21 1 -21 9 -2 5 11 9 25 9 30 1 13 -77
17 -105 5z"/>
<path d="M3587 7473 c-8 -14 -3 -173 5 -173 4 0 8 41 8 90 0 85 -3 100 -13 83z"/>
<path d="M4260 7389 c0 -114 18 -109 21 5 1 54 -2 81 -9 84 -9 3 -12 -23 -12
-89z"/>
<path d="M1548 7463 c6 -2 12 -9 12 -14 0 -6 -4 -7 -10 -4 -6 4 -10 -5 -10
-20 0 -41 -21 -118 -38 -137 -14 -17 -12 -18 37 -18 29 0 61 5 72 11 29 15 42
55 26 80 -10 17 -9 22 6 33 20 15 22 47 5 64 -7 7 -35 12 -62 11 -28 0 -45 -3
-38 -6z m85 -25 c14 -22 -7 -48 -39 -48 -25 0 -31 20 -18 55 8 20 43 16 57 -7z
m-13 -107 c0 -32 -14 -41 -62 -41 -23 0 -29 4 -24 16 3 9 6 24 6 33 0 23 39
41 63 29 10 -5 17 -20 17 -37z"/>
<path d="M3490 7440 l-35 -6 33 -8 c23 -5 32 -13 32 -28 0 -18 -5 -20 -45 -16
-26 2 -45 -1 -45 -7 0 -6 19 -9 45 -7 40 4 45 2 45 -17 0 -18 -6 -21 -44 -21
-26 0 -46 5 -49 13 -3 6 -6 2 -6 -10 -1 -14 5 -23 14 -23 14 0 14 -3 0 -29 -8
-16 -20 -31 -27 -34 -7 -3 -8 -6 -2 -6 6 -1 25 17 43 40 29 35 37 39 62 34
l28 -6 -6 68 c-3 37 -6 68 -7 68 -1 1 -17 -2 -36 -5z"/>
<path d="M5590 7436 c0 -7 -11 -25 -25 -40 -28 -30 -34 -46 -10 -26 13 11 15
3 15 -66 0 -61 3 -75 12 -66 7 7 39 12 76 12 38 0 61 4 57 10 -3 5 -19 7 -35
3 -26 -5 -30 -2 -30 16 0 16 6 21 28 22 l27 1 -30 7 c-16 3 -29 10 -27 14 1 4
2 11 2 16 0 6 15 12 33 14 l32 4 -32 1 c-26 2 -33 6 -33 23 0 17 5 20 25 17
14 -3 28 -1 31 3 3 5 -8 9 -25 9 -18 0 -35 7 -41 18 -11 16 -11 16 -6 0 4 -13
0 -18 -15 -18 -16 0 -19 4 -14 20 4 11 2 20 -4 20 -6 0 -11 -6 -11 -14z m38
-84 c3 -37 1 -42 -17 -42 -18 0 -21 6 -21 46 0 38 3 45 18 42 12 -2 18 -15 20
-46z m2 -72 c0 -13 -7 -20 -20 -20 -13 0 -20 7 -20 20 0 13 7 20 20 20 13 0
20 -7 20 -20z"/>
<path d="M4520 7372 l0 -47 44 3 44 4 -1 44 -2 44 -42 0 -43 0 0 -48z m70 3
c0 -32 -2 -35 -30 -35 -28 0 -30 3 -30 35 0 32 2 35 30 35 28 0 30 -3 30 -35z"/>
<path d="M3068 7405 c-2 -3 -3 -19 0 -35 3 -25 7 -28 18 -19 8 6 14 17 14 24
0 14 -24 37 -32 30z"/>
<path d="M4778 7333 c7 -3 16 -2 19 1 4 3 -2 6 -13 5 -11 0 -14 -3 -6 -6z"/>
<path d="M1013 7265 c-6 -14 -7 -25 -2 -25 11 0 22 25 17 39 -1 6 -8 -1 -15
-14z"/>
<path d="M1050 7270 c0 -11 4 -20 9 -20 5 0 7 9 4 20 -3 11 -7 20 -9 20 -2 0
-4 -9 -4 -20z"/>
<path d="M1087 7269 c4 -13 8 -18 11 -10 2 7 -1 18 -6 23 -8 8 -9 4 -5 -13z"/>
<path d="M1120 7278 c0 -9 5 -20 10 -23 13 -8 13 5 0 25 -8 13 -10 13 -10 -2z"/>
<path d="M2181 7283 c-1 -6 -4 -20 -7 -30 -5 -17 -5 -17 6 0 6 10 9 23 6 30
-3 9 -5 9 -5 0z"/>
<path d="M2217 7269 c4 -13 8 -18 11 -10 2 7 -1 18 -6 23 -8 8 -9 4 -5 -13z"/>
<path d="M2252 7270 c0 -14 2 -19 5 -12 2 6 2 18 0 25 -3 6 -5 1 -5 -13z"/>
<path d="M2280 7281 c0 -5 5 -13 10 -16 6 -3 10 -2 10 4 0 5 -4 13 -10 16 -5
3 -10 2 -10 -4z"/>
<path d="M3520 7271 c16 -31 32 -36 18 -7 -6 14 -15 26 -20 26 -5 0 -4 -9 2
-19z"/>
<path d="M5890 7270 c0 -19 3 -21 12 -12 9 9 9 15 0 24 -9 9 -12 7 -12 -12z"/>
<path d="M1391 6724 c7 -9 10 -46 8 -104 l-4 -90 27 2 c22 2 25 5 15 17 -8 9
-11 44 -9 100 l3 86 -26 1 c-21 2 -24 -1 -14 -12z"/>
<path d="M2430 6730 c-22 -5 -23 -7 -7 -13 17 -6 19 -17 15 -97 -2 -75 0 -90
12 -90 13 0 15 14 12 83 -4 128 -3 124 -32 117z"/>
<path d="M2190 6659 c19 -12 47 -26 63 -31 15 -6 27 -13 27 -17 0 -3 -28 -19
-62 -34 -34 -15 -59 -29 -56 -32 3 -3 29 6 59 20 30 14 59 25 65 25 7 0 15 7
18 15 4 11 -3 19 -22 25 -15 6 -43 19 -63 30 -49 27 -73 25 -29 -1z"/>
<path d="M1987 6659 c-9 -6 -26 -28 -37 -50 -16 -30 -18 -44 -10 -59 13 -24
23 -25 55 -4 23 15 25 15 25 0 0 -14 4 -15 21 -5 15 7 18 14 10 18 -8 6 -7 19
4 50 8 24 15 47 15 51 0 11 -63 10 -83 -1z m47 -14 c14 -37 -43 -106 -70 -84
-15 13 -7 48 19 77 24 26 42 28 51 7z"/>
<path d="M1490 6544 c0 -9 5 -14 12 -12 18 6 21 28 4 28 -9 0 -16 -7 -16 -16z"/>
<path d="M2456 6336 c3 -8 0 -33 -6 -56 -6 -23 -8 -45 -4 -49 4 -3 9 0 11 7 6
17 52 15 59 -3 8 -21 -3 -60 -22 -79 -8 -9 -11 -16 -5 -16 16 0 51 60 51 86 0
30 -23 46 -54 38 -30 -7 -31 -5 -11 43 19 44 19 43 -5 43 -12 0 -17 -5 -14
-14z"/>
<path d="M1384 6327 c16 -12 18 -26 15 -105 l-4 -92 28 0 c27 0 27 1 12 17
-14 13 -16 32 -13 105 l5 88 -30 0 c-28 0 -29 -1 -13 -13z"/>
<path d="M1489 6331 c10 -6 12 -32 10 -105 -4 -95 -4 -96 19 -96 14 0 21 4 17
11 -9 14 -9 174 -1 188 5 7 -4 11 -26 11 -22 0 -29 -3 -19 -9z"/>
<path d="M2170 6272 c0 -4 23 -17 52 -28 29 -12 54 -26 55 -31 2 -6 -13 -17
-34 -26 -35 -14 -91 -52 -67 -45 27 7 134 63 134 69 0 4 -6 9 -12 12 -7 3 -39
17 -70 31 -32 14 -58 22 -58 18z"/>
<path d="M1982 6255 c-26 -19 -54 -79 -46 -99 8 -20 32 -28 52 -17 9 4 23 6
30 4 19 -7 49 6 35 15 -10 6 -9 19 2 55 11 35 11 47 2 47 -7 0 -21 3 -32 6
-11 2 -30 -2 -43 -11z m48 -27 c-1 -37 -29 -78 -54 -78 -23 0 -20 52 5 84 29
36 49 34 49 -6z"/>
<path d="M2420 6184 c-14 -40 -14 -41 20 -47 14 -2 19 -2 13 0 -11 4 -15 13
-15 33 0 3 3 15 7 28 11 37 -13 25 -25 -14z"/>
<path d="M1590 6145 c0 -9 5 -15 10 -13 12 4 11 16 -1 24 -5 3 -9 -2 -9 -11z"/>
<path d="M3406 5916 c3 -8 -4 -44 -15 -81 -12 -37 -21 -76 -21 -86 0 -27 42
-35 79 -13 31 18 41 39 41 87 0 27 -6 31 -49 27 -20 -2 -23 1 -17 23 3 14 9
32 12 41 4 11 0 16 -15 16 -13 0 -19 -5 -15 -14z m63 -90 c22 -26 -21 -96 -60
-96 -22 0 -26 38 -8 73 21 38 48 48 68 23z"/>
<path d="M2120 5911 c0 -5 -12 -24 -27 -43 -15 -18 -20 -27 -13 -20 8 6 17 12
21 12 10 0 8 -49 -2 -56 -5 -3 -6 -17 -3 -31 5 -19 2 -30 -11 -40 -17 -12 -15
-13 21 -13 24 0 34 3 26 9 -10 6 -12 28 -7 92 4 46 9 87 12 92 2 4 -1 7 -6 7
-6 0 -11 -4 -11 -9z"/>
<path d="M2235 5909 c11 -16 -26 -150 -46 -170 -19 -19 -18 -19 34 -19 86 0
133 36 108 84 -12 21 -11 27 3 41 22 22 20 52 -3 65 -26 14 -104 13 -96 -1z
m83 -8 c32 -20 -18 -78 -54 -64 -13 5 -11 41 3 66 6 10 35 9 51 -2z m-10 -109
c4 -29 -11 -48 -45 -57 -36 -9 -44 4 -32 48 9 35 13 38 42 35 25 -2 33 -8 35
-26z"/>
<path d="M2023 5772 c-15 -20 -32 -40 -38 -44 -5 -4 1 -8 14 -8 13 0 22 3 18
6 -3 4 1 20 9 36 11 22 20 27 35 23 22 -7 26 10 4 19 -9 3 -25 -8 -42 -32z"/>
<path d="M2748 5733 c-13 -3 -16 -9 -9 -21 5 -9 7 -57 5 -105 -4 -81 -3 -88
13 -85 10 2 16 11 15 19 -2 8 -3 56 -3 107 1 50 0 91 -1 91 -2 -1 -11 -3 -20
-6z"/>
<path d="M1385 5714 c23 -24 21 -169 -2 -183 -15 -9 -13 -10 12 -11 l30 0 0
104 0 103 -28 1 c-24 1 -25 -1 -12 -14z"/>
<path d="M1490 5715 c12 -14 16 -142 5 -174 -5 -18 -2 -21 20 -21 18 0 24 4
19 12 -4 7 -7 53 -5 103 l2 90 -26 1 c-20 2 -23 -1 -15 -11z"/>
<path d="M1590 5716 c7 -10 10 -45 8 -105 l-3 -91 30 0 c22 0 26 3 17 12 -8 8
-12 46 -12 105 l0 93 -26 0 c-22 0 -24 -2 -14 -14z"/>
<path d="M2831 5644 c-12 -15 -21 -32 -21 -39 0 -28 23 -75 40 -80 38 -12 90
34 90 79 0 25 -41 66 -65 66 -14 0 -32 -11 -44 -26z m61 -1 c33 -29 21 -103
-16 -103 -50 0 -56 118 -7 120 3 0 13 -7 23 -17z"/>
<path d="M2998 5653 c-11 -12 -15 -36 -14 -73 2 -38 -2 -61 -13 -73 -14 -17
-14 -20 4 -33 36 -26 109 -9 121 29 8 26 -4 35 -48 40 -46 4 -55 12 -38 32 8
10 9 15 1 15 -18 0 -13 60 5 67 25 9 45 -23 34 -53 -5 -13 -6 -24 -1 -24 13 0
28 23 33 52 4 23 1 27 -25 32 -41 8 -42 8 -59 -11z m81 -139 c2 -2 1 -10 -2
-19 -7 -17 -63 -20 -87 -5 -24 17 15 40 54 33 17 -3 33 -7 35 -9z"/>
<path d="M7364 5528 c-32 -77 -60 -145 -62 -149 -2 -5 1 -9 7 -9 7 0 14 8 17
18 4 9 17 41 30 70 13 29 24 58 24 65 0 6 9 23 20 37 20 25 20 13 14 -2120 -4
-1180 -7 -2210 -8 -2290 l-1 -145 -240 -2 c-303 -2 -284 -1 -265 -13 9 -6 116
-9 260 -8 l245 1 -2 -461 c-1 -288 1 -462 7 -462 6 0 11 177 12 461 l3 461
408 0 c224 -1 412 -4 417 -7 5 -3 -1 -35 -16 -73 -42 -115 -114 -332 -114
-347 0 -7 -3 -15 -8 -17 -9 -4 -54 -230 -47 -237 9 -8 13 4 26 84 7 44 16 82
20 85 4 3 15 34 24 70 9 36 30 106 46 155 17 50 31 98 32 107 2 22 27 33 27
12 0 -8 -7 -45 -14 -82 -8 -37 -22 -125 -31 -197 -9 -71 -20 -159 -25 -195 -8
-58 -7 -80 4 -69 5 5 13 58 21 139 3 30 17 125 30 210 14 85 28 173 31 195 3
22 13 68 21 102 l15 63 647 2 c355 2 807 2 1004 0 l357 -2 0 -355 c0 -230 4
-355 10 -355 6 0 10 125 10 355 l0 355 83 0 c45 0 785 0 1645 1 860 1 1565 -1
1568 -3 6 -7 -25 -32 -66 -55 -83 -45 -111 -66 -102 -75 5 -5 32 7 68 31 32
21 87 57 122 79 l63 40 -43 25 c-46 27 -200 107 -205 107 -2 0 -3 -6 -3 -12 1
-7 39 -31 85 -53 46 -22 85 -45 85 -51 0 -9 -415 -12 -1650 -13 l-1650 -2 0
1106 0 1105 68 32 c37 17 74 36 82 43 8 6 33 19 55 28 22 9 85 35 140 58 185
76 220 90 310 120 116 40 235 75 360 105 55 14 118 29 140 34 97 24 297 59
378 65 80 7 110 16 90 28 -12 7 -324 -39 -428 -63 -148 -35 -155 -36 -275 -68
-183 -49 -488 -155 -580 -201 -19 -10 -53 -24 -75 -31 -22 -7 -47 -18 -55 -25
-8 -6 -31 -18 -50 -25 -19 -8 -51 -24 -70 -35 -19 -12 -45 -25 -57 -29 -28 -9
-26 -42 -27 485 l-1 385 80 50 c94 58 163 97 303 171 57 30 111 58 120 63 14
7 38 17 62 25 3 1 18 7 34 14 126 52 188 75 306 111 74 23 154 48 178 56 69
23 277 64 401 79 63 8 116 17 119 20 20 20 -33 16 -238 -16 -81 -13 -301 -65
-355 -84 -22 -7 -101 -33 -175 -56 -74 -23 -139 -45 -145 -49 -5 -4 -26 -13
-45 -20 -151 -58 -431 -203 -570 -294 -58 -38 -76 -41 -73 -10 1 10 3 255 5
544 2 345 0 525 -7 525 -13 0 -13 -2 -14 -597 l-1 -518 -42 -30 c-24 -16 -52
-36 -63 -44 -11 -9 -49 -37 -85 -63 -74 -53 -173 -134 -211 -172 -14 -14 -74
-71 -134 -126 -208 -191 -336 -333 -536 -590 -47 -60 -94 -124 -105 -142 -10
-17 -40 -63 -66 -102 -27 -40 -48 -75 -48 -80 0 -4 -9 -16 -20 -26 -11 -10
-20 -22 -20 -28 0 -5 -13 -28 -28 -51 -15 -22 -36 -59 -46 -81 -10 -22 -24
-47 -31 -55 -15 -18 -87 -150 -134 -245 -19 -38 -50 -101 -69 -140 -19 -38
-50 -108 -69 -155 -19 -47 -41 -98 -48 -115 -24 -55 -67 -169 -92 -240 -63
-184 -93 -286 -147 -495 -13 -52 -29 -108 -35 -123 l-11 -28 -422 3 -423 3 0
685 c1 2975 6 3880 21 3880 8 0 19 -12 24 -26 24 -62 82 -174 91 -174 12 0 12
23 0 36 -5 5 -38 66 -73 136 l-64 128 -60 -142z m2946 -1840 c-1 -222 -4 -419
-7 -439 -4 -31 -10 -39 -56 -61 -118 -60 -390 -233 -507 -323 -25 -19 -62 -46
-83 -61 -21 -14 -71 -53 -110 -87 -40 -34 -88 -74 -107 -89 -38 -29 -278 -264
-351 -343 -25 -27 -97 -114 -160 -192 -102 -128 -141 -178 -189 -248 -8 -12
-28 -41 -45 -65 -87 -125 -198 -306 -271 -444 -32 -61 -60 -104 -62 -98 -2 7
6 42 17 79 11 38 29 100 40 138 18 67 74 225 121 345 12 30 32 82 45 116 12
33 28 69 34 80 14 24 131 273 131 278 0 2 36 70 81 151 44 81 86 160 92 174 6
14 28 49 49 78 21 29 38 55 38 59 0 6 149 234 160 244 3 3 39 50 79 105 103
139 150 196 246 300 45 50 94 104 109 122 28 33 307 292 388 359 158 132 285
223 311 224 4 0 7 -181 7 -402z m-8 -935 c2 -241 2 -734 0 -1095 l-2 -658
-1001 0 -1001 0 7 32 c14 62 181 393 260 514 11 18 29 47 40 65 47 80 149 230
209 309 97 127 112 146 190 240 116 141 406 430 481 480 12 8 33 25 46 37 42
40 77 67 129 103 29 19 77 55 108 80 48 39 195 140 254 175 35 21 185 109 223
131 22 13 43 23 47 24 4 0 9 -197 10 -437z"/>
<path d="M7165 5634 c15 -37 22 -83 18 -108 -5 -24 -39 -63 -52 -58 -3 1 -7
-2 -9 -8 -9 -27 23 -3 82 62 48 52 66 79 65 98 l-2 25 -4 -25 c-3 -13 -16 -37
-29 -53 -27 -32 -32 -27 -36 38 -2 30 -8 41 -22 43 -15 3 -17 0 -11 -14z"/>
<path d="M2493 5633 c12 -11 125 -15 132 -4 4 7 -18 11 -66 11 -40 0 -69 -3
-66 -7z"/>
<path d="M1920 5600 c0 -6 85 -10 235 -10 150 0 235 4 235 10 0 6 -85 10 -235
10 -150 0 -235 -4 -235 -10z"/>
<path d="M3325 5600 c3 -6 50 -10 105 -10 55 0 102 4 105 10 4 6 -33 10 -105
10 -72 0 -109 -4 -105 -10z"/>
<path d="M2550 5580 l-65 -7 73 -1 c47 -1 71 2 67 8 -3 6 -7 9 -8 8 -1 -1 -31
-4 -67 -8z"/>
<path d="M1696 5541 c-4 -5 -2 -12 3 -15 5 -4 12 -2 15 3 4 5 2 12 -3 15 -5 4
-12 2 -15 -3z"/>
<path d="M3157 5522 c-19 -21 -22 -58 -6 -68 8 -4 9 1 4 15 -4 14 -1 31 9 46
19 29 16 32 -7 7z"/>
<path d="M3210 5520 c0 -11 -9 -29 -19 -39 -19 -19 -19 -19 1 -24 20 -6 23 -2
32 51 3 18 1 32 -4 32 -6 0 -10 -9 -10 -20z"/>
<path d="M2250 5480 c-11 -8 -8 -9 12 -4 38 8 68 -4 68 -27 0 -11 5 -17 10
-14 6 3 10 14 10 24 0 26 -70 41 -100 21z"/>
<path d="M2025 5471 c5 -9 -23 -130 -40 -173 -6 -15 -1 -18 31 -17 60 2 88 13
101 39 10 20 9 29 -2 46 -12 19 -12 24 5 39 23 20 26 45 8 63 -14 14 -112 17
-103 3z m85 -20 c13 -25 -11 -51 -46 -51 -27 0 -29 6 -14 44 11 31 45 35 60 7z
m-16 -94 c17 -26 -5 -52 -48 -55 -36 -3 -37 -2 -30 25 12 51 22 63 46 54 12
-4 27 -15 32 -24z"/>
<path d="M2212 5463 c-24 -10 -54 -83 -48 -118 8 -41 25 -55 73 -62 29 -4 44
0 63 16 l25 21 -31 -16 c-30 -17 -62 -15 -93 5 -22 14 -17 84 8 125 13 20 21
36 19 35 -2 0 -9 -3 -16 -6z"/>
<path d="M3399 5389 c-32 -35 -38 -79 -13 -99 12 -11 18 -10 31 3 15 15 15 16
-5 10 -19 -5 -22 -1 -22 24 0 34 33 83 56 83 24 0 28 -31 9 -67 -21 -37 -10
-61 22 -49 13 5 14 9 5 15 -9 5 -10 15 -4 32 5 13 12 36 15 50 6 24 4 26 -29
27 -29 1 -43 -5 -65 -29z"/>
<path d="M12547 4902 c-14 -3 -16 -7 -6 -18 17 -20 24 -146 10 -172 -10 -19
-9 -22 6 -22 16 0 18 9 15 77 -4 135 -5 139 -25 135z"/>
<path d="M12632 4805 c-14 -17 -19 -36 -16 -57 5 -40 25 -60 60 -60 57 0 85
81 42 122 -29 27 -62 25 -86 -5z m72 -7 c31 -44 17 -98 -24 -98 -31 0 -40 15
-40 64 0 55 36 74 64 34z"/>
<path d="M12793 4818 c-4 -7 -8 -35 -9 -63 0 -27 -4 -64 -8 -82 -6 -27 -4 -33
15 -43 26 -14 99 3 99 22 0 9 -3 9 -12 0 -16 -16 -73 -15 -87 2 -9 10 -7 16 5
27 12 10 25 10 55 2 30 -8 39 -7 39 2 0 13 -31 25 -67 25 -14 0 -23 6 -23 15
0 10 10 15 29 15 32 0 46 13 53 52 4 23 1 27 -25 32 -43 9 -55 7 -64 -6z m60
-19 c15 -24 1 -49 -28 -49 -21 0 -25 5 -25 28 0 16 3 32 7 36 11 10 35 3 46
-15z"/>
<path d="M12084 4798 c22 -31 21 -121 0 -139 -9 -8 -22 -14 -28 -14 -13 0 -19
-19 -7 -23 10 -3 112 111 130 145 14 28 14 53 0 53 -6 0 -8 -7 -5 -16 6 -17
-31 -84 -46 -84 -8 0 -12 17 -9 34 1 5 -1 22 -4 37 -5 20 -13 29 -26 29 -19 0
-19 -2 -5 -22z"/>
<path d="M13168 4808 c7 -7 12 -24 12 -38 0 -29 -27 -73 -40 -65 -5 3 -11 1
-15 -5 -3 -5 2 -10 12 -10 10 0 24 9 31 20 14 23 32 26 32 6 0 -21 20 -30 33
-16 9 9 9 11 1 7 -14 -8 -24 14 -24 52 0 15 -8 35 -18 44 -21 19 -42 23 -24 5z"/>
<path d="M13233 4813 c-21 -8 -15 -22 7 -16 11 3 20 9 20 14 0 10 -8 10 -27 2z"/>
<path d="M12328 4793 c23 -2 59 -2 80 0 20 2 1 4 -43 4 -44 0 -61 -2 -37 -4z"/>
<path d="M3197 4750 c-4 -17 -14 -20 -59 -22 l-53 -1 47 -6 46 -6 -13 -33 c-8
-18 -21 -35 -30 -38 -8 -3 -15 -10 -15 -15 0 -5 12 -2 27 8 l26 17 -7 -54 c-4
-30 -9 -66 -12 -80 -4 -22 -3 -22 5 -5 5 11 12 28 15 38 4 14 17 17 71 17 62
0 65 -1 65 -24 0 -19 -6 -25 -27 -28 l-28 -4 28 -8 c15 -5 29 -7 31 -5 2 2 6
43 9 91 l5 87 -76 3 c-73 3 -75 4 -57 21 15 15 31 18 93 15 47 -1 77 1 79 8 2
7 -23 9 -78 6 -79 -5 -81 -4 -74 17 3 11 2 21 -3 21 -5 0 -12 -9 -15 -20z
m111 -103 c3 -14 -6 -17 -62 -17 -59 0 -66 2 -66 20 0 18 6 20 63 16 48 -2 63
-7 65 -19z m2 -47 c0 -18 -7 -20 -65 -20 -58 0 -65 2 -65 20 0 18 7 20 65 20
58 0 65 -2 65 -20z"/>
<path d="M2801 4730 c1 -8 5 -28 9 -45 8 -30 8 -30 9 8 l1 37 74 0 74 0 4 -46
c2 -33 -1 -48 -12 -55 -15 -8 -12 -10 21 -13 7 -1 11 22 11 63 l0 63 -96 2
c-80 1 -96 -2 -95 -14z"/>
<path d="M12290 4740 c0 -6 32 -10 76 -10 47 0 73 4 69 10 -3 6 -37 10 -76 10
-39 0 -69 -4 -69 -10z"/>
<path d="M1943 4691 c-12 -25 -34 -72 -47 -103 -25 -57 -25 -58 -4 -58 14 0
18 5 14 16 -12 30 12 54 54 54 36 0 40 -3 48 -32 6 -23 15 -34 30 -36 26 -4
27 1 7 31 -8 13 -26 54 -40 92 -13 37 -28 72 -32 76 -5 4 -18 -14 -30 -40z
m31 -28 c3 -10 9 -24 12 -30 4 -9 -4 -13 -25 -13 -35 0 -35 0 -19 35 13 29 23
32 32 8z"/>
<path d="M3596 4731 c5 -6 7 -49 4 -100 l-5 -91 28 0 c19 0 26 4 21 12 -13 21
-16 158 -4 174 10 12 7 14 -21 14 -21 0 -29 -4 -23 -9z"/>
<path d="M12961 4693 c-13 -9 -21 -25 -21 -43 0 -30 14 -47 25 -30 3 5 1 10
-4 10 -17 0 -13 37 5 55 31 30 46 9 30 -42 -4 -13 -3 -23 2 -23 6 0 13 12 16
28 4 15 9 34 11 42 6 20 -37 22 -64 3z"/>
<path d="M2800 4631 c0 -15 7 -19 30 -19 17 1 33 5 36 9 3 5 -1 6 -9 3 -8 -3
-21 2 -30 10 -21 21 -27 20 -27 -3z"/>
<path d="M2901 4619 c18 -11 39 -11 39 0 0 5 -12 9 -26 9 -18 0 -22 -3 -13 -9z"/>
<path d="M3095 4610 c-3 -5 -1 -10 4 -10 6 0 11 5 11 10 0 6 -2 10 -4 10 -3 0
-8 -4 -11 -10z"/>
<path d="M2805 4542 c-36 -41 -37 -44 -10 -25 39 27 79 73 62 72 -6 0 -30 -22
-52 -47z"/>
<path d="M2970 4553 c37 -44 58 -57 40 -24 -5 11 -25 30 -42 43 l-33 23 35
-42z"/>
<path d="M2103 4548 c2 -7 7 -13 12 -13 5 0 10 6 13 13 2 6 -4 12 -13 12 -9 0
-15 -6 -12 -12z"/>
<path d="M10590 4081 c0 -5 -16 -28 -35 -51 -19 -23 -35 -45 -34 -48 0 -4 7 3
16 16 21 31 33 28 33 -9 0 -30 -2 -31 -30 -25 -24 4 -34 1 -48 -16 -9 -11 -25
-29 -34 -40 -23 -23 -23 -28 2 -28 12 0 20 6 18 13 -5 27 22 57 53 57 37 0 48
-24 24 -50 -18 -20 -17 -20 20 -20 32 0 36 2 25 15 -10 12 -11 40 -7 105 4 50
5 90 2 90 -3 0 -5 -4 -5 -9z"/>
<path d="M3197 4000 c-4 -17 -14 -20 -59 -22 -50 -1 -50 -2 -10 -5 48 -5 56
-25 22 -61 -21 -22 -28 -44 -8 -24 21 21 24 13 17 -55 -6 -73 -4 -91 7 -49 3
14 9 26 13 26 3 0 4 22 3 50 l-4 50 66 0 c52 0 66 -3 66 -15 0 -8 -5 -15 -12
-15 -9 0 -9 -3 0 -12 7 -7 12 -20 12 -30 0 -14 -11 -18 -57 -21 l-58 -3 58 -2
c54 -2 58 -4 55 -24 -2 -17 -9 -22 -26 -21 -13 2 -21 -1 -17 -7 3 -6 17 -10
31 -10 23 0 24 2 24 74 0 41 2 80 5 88 4 11 -10 13 -70 10 -60 -3 -75 -1 -75
10 0 30 24 38 109 38 46 0 81 3 78 7 -4 3 -41 5 -83 4 -73 -2 -75 -1 -69 18 3
12 2 21 -3 21 -5 0 -12 -9 -15 -20z"/>
<path d="M2800 3925 l0 -70 95 3 95 3 0 67 0 67 -95 0 -95 0 0 -70z m170 0 l0
-55 -73 0 c-41 0 -76 2 -78 4 -2 2 -2 27 -1 55 l4 51 74 0 74 0 0 -55z"/>
<path d="M1888 3890 c-2 -60 1 -101 7 -103 6 -2 35 -1 65 2 47 5 57 10 68 34
11 23 11 31 0 44 -7 9 -13 34 -13 57 0 33 -5 42 -25 53 -14 7 -42 13 -62 13
l-37 0 -3 -100z m105 59 c17 -28 1 -49 -37 -49 -36 0 -47 15 -38 53 6 23 60
20 75 -4z m5 -82 c16 -13 15 -42 -2 -56 -8 -7 -30 -11 -48 -9 -30 3 -33 6 -34
38 0 19 1 38 3 42 5 9 64 -2 81 -15z"/>
<path d="M3587 3982 c14 -9 22 -160 9 -180 -5 -8 3 -12 25 -12 26 0 30 3 21
12 -17 17 -16 175 1 181 6 3 -6 6 -28 6 -23 0 -35 -3 -28 -7z"/>
<path d="M3693 3983 c15 -4 17 -17 17 -93 0 -76 -2 -89 -17 -93 -10 -3 2 -5
27 -6 30 0 40 2 31 8 -21 14 -23 169 -2 181 11 7 2 9 -29 9 -25 -1 -37 -3 -27
-6z"/>
<path d="M3100 3865 c-11 -13 -10 -14 4 -9 9 3 16 10 16 15 0 13 -6 11 -20 -6z"/>
<path d="M3228 3873 c6 -2 18 -2 25 0 6 3 1 5 -13 5 -14 0 -19 -2 -12 -5z"/>
<path d="M12559 3863 c-1 -5 -1 -12 0 -17 9 -44 9 -139 1 -160 -9 -24 -8 -26
18 -25 15 0 21 3 15 6 -9 3 -13 34 -13 104 0 59 -4 99 -10 99 -5 0 -11 -3 -11
-7z"/>
<path d="M2806 3794 c-21 -24 -36 -44 -32 -44 10 0 86 72 86 81 0 17 -15 7
-54 -37z"/>
<path d="M2956 3812 c17 -15 34 -35 37 -44 6 -18 27 -25 27 -10 0 11 -76 82
-87 82 -4 -1 6 -13 23 -28z"/>
<path d="M2086 3801 c-3 -5 1 -11 9 -15 9 -3 15 0 15 9 0 16 -16 20 -24 6z"/>
<path d="M12093 3793 c-10 -3 -9 -8 2 -20 21 -20 20 -116 -1 -137 -8 -9 -22
-16 -30 -16 -8 0 -14 -7 -14 -15 0 -25 16 -17 49 23 17 20 41 47 54 60 12 12
16 22 10 22 -6 0 -13 -6 -16 -12 -7 -22 -18 -2 -23 44 -6 47 -12 58 -31 51z"/>
<path d="M12653 3794 c-7 -3 -17 -21 -24 -41 -10 -31 -9 -39 8 -62 28 -37 76
-41 99 -6 17 27 14 76 -7 102 -11 13 -52 16 -76 7z m71 -47 c11 -43 0 -70 -29
-76 -24 -4 -45 25 -45 60 0 46 10 60 39 57 21 -2 28 -10 35 -41z"/>
<path d="M12802 3788 c-5 -7 -10 -38 -11 -68 -1 -30 -2 -68 -4 -85 -2 -30 -1
-30 47 -30 38 0 51 4 63 21 12 19 12 24 -2 38 -9 9 -32 16 -50 16 -39 0 -53
14 -29 28 11 6 13 11 5 16 -15 10 -14 63 2 69 7 4 8 6 1 6 -6 1 -16 -5 -22
-11z m82 -137 c12 -18 -7 -41 -33 -41 -35 0 -55 14 -48 34 7 17 72 23 81 7z"/>
<path d="M12853 3789 c9 -5 17 -21 17 -34 0 -13 -8 -29 -17 -34 -15 -9 -15
-10 -2 -11 8 0 20 5 27 12 17 17 15 65 -4 72 -25 10 -41 6 -21 -5z"/>
<path d="M13230 3785 c-10 -13 -9 -15 9 -15 11 0 21 4 21 9 0 18 -18 21 -30 6z"/>
<path d="M12180 3771 c0 -11 -3 -28 -6 -38 -6 -16 -5 -16 9 2 18 22 22 55 7
55 -5 0 -10 -9 -10 -19z"/>
<path d="M13162 3778 c19 -15 26 -47 15 -65 -5 -8 -3 -13 6 -13 8 0 17 -9 20
-20 3 -11 10 -20 16 -20 14 0 14 17 1 25 -5 3 -10 20 -10 36 0 42 -17 69 -42
69 -19 0 -20 -1 -6 -12z"/>
<path d="M12325 3769 c-19 -4 -2 -7 49 -8 44 0 77 2 73 5 -8 9 -87 11 -122 3z"/>
<path d="M12957 3663 c-12 -45 -14 -70 -7 -77 7 -7 10 -1 10 18 0 35 17 66 35
66 18 0 20 -33 4 -62 -8 -15 -8 -19 1 -13 16 10 31 52 24 70 -4 8 -15 15 -25
15 -16 0 -18 5 -13 25 3 14 2 25 -3 25 -4 0 -16 -30 -26 -67z"/>
<path d="M12300 3710 c0 -6 30 -10 70 -10 40 0 70 4 70 10 0 6 -30 10 -70 10
-40 0 -70 -4 -70 -10z"/>
<path d="M13143 3683 c-13 -2 -23 -9 -23 -14 0 -14 26 -11 40 6 7 8 11 14 9
14 -2 -1 -14 -4 -26 -6z"/>
<path d="M3193 3250 c-6 -21 -17 -24 -70 -21 -18 2 -33 -2 -33 -8 0 -6 18 -11
41 -11 35 0 40 -2 34 -17 -5 -10 -7 -45 -6 -78 1 -34 -3 -73 -8 -88 -6 -15 -8
-27 -6 -27 10 0 28 55 29 85 l1 30 65 0 65 0 2 -47 c2 -44 0 -47 -25 -50 l-27
-3 24 -13 c13 -8 27 -10 31 -5 5 4 10 46 11 92 l2 84 -72 -2 c-66 -2 -72 -1
-69 16 3 15 16 19 93 23 55 3 88 9 85 15 -3 6 -12 9 -20 7 -25 -4 -53 -5 -93
-3 -34 1 -38 4 -32 21 4 12 2 20 -5 20 -7 0 -14 -9 -17 -20z m117 -105 c0 -12
-14 -15 -70 -15 -56 0 -70 3 -70 15 0 12 14 15 70 15 56 0 70 -3 70 -15z"/>
<path d="M3985 3250 l-40 -7 42 -2 42 -1 -14 -40 c-14 -39 -14 -40 9 -40 34 0
37 -9 15 -52 -23 -45 -35 -45 -66 2 -28 41 -30 27 -3 -18 11 -18 18 -37 15
-42 -3 -5 -26 -18 -50 -29 -25 -11 -45 -22 -45 -25 0 -8 50 12 85 34 31 19 31
19 74 -5 45 -26 71 -32 71 -15 0 6 -7 10 -15 10 -9 0 -32 7 -51 15 l-35 15 28
50 c15 27 31 50 36 50 4 0 7 5 7 11 0 5 -8 9 -17 8 -10 -1 -24 -1 -30 0 -15 1
-17 57 -3 66 11 7 4 26 -8 24 -4 -1 -25 -5 -47 -9z"/>
<path d="M2800 3175 l0 -70 95 3 95 3 0 67 0 67 -95 0 -95 0 0 -70z m168 3
l-3 -53 -75 0 -75 0 -3 39 c-5 63 -1 66 83 66 l76 0 -3 -52z"/>
<path d="M3890 3241 c19 -5 26 -14 28 -41 5 -45 -24 -134 -55 -171 -14 -16
-23 -32 -20 -35 8 -8 68 88 74 119 3 16 15 32 26 36 18 7 18 8 4 14 -12 4 -17
18 -17 47 0 39 -1 40 -32 39 -30 -1 -31 -2 -8 -8z"/>
<path d="M1901 3205 c-37 -42 -40 -85 -11 -132 32 -52 125 -55 145 -5 5 13 3
13 -13 -1 -10 -9 -35 -17 -55 -17 -46 0 -67 28 -67 90 0 93 85 122 129 45 10
-17 10 -16 5 10 -9 37 -19 45 -65 45 -30 0 -43 -7 -68 -35z"/>
<path d="M3588 3231 c10 -6 13 -32 10 -100 -3 -85 -2 -91 17 -91 19 0 20 6 17
91 -3 68 0 94 10 100 8 6 -2 9 -27 9 -25 0 -35 -3 -27 -9z"/>
<path d="M4359 3153 c3 -75 1 -89 -15 -100 -16 -11 -12 -13 27 -12 24 1 36 3
26 6 -16 4 -18 15 -15 99 2 78 0 94 -12 94 -12 0 -14 -15 -11 -87z"/>
<path d="M4458 3146 c3 -84 1 -95 -15 -99 -10 -3 2 -5 26 -6 39 -1 43 1 27 12
-16 11 -18 26 -15 100 3 72 1 87 -11 87 -12 0 -14 -16 -12 -94z"/>
<path d="M4558 3233 c19 -8 16 -157 -4 -177 -14 -15 -11 -16 28 -15 24 1 35 3
25 6 -16 4 -18 15 -15 99 l3 94 -25 -1 c-14 0 -19 -3 -12 -6z"/>
<path d="M3110 3125 c-13 -14 -19 -25 -14 -25 12 0 59 50 47 50 -5 0 -20 -11
-33 -25z"/>
<path d="M10485 3130 c7 -12 -31 -159 -47 -177 -8 -10 0 -13 38 -13 68 0 90 8
103 36 8 18 8 31 -1 49 -9 20 -8 28 5 43 20 22 22 43 5 60 -15 15 -112 17
-103 2z m88 -19 c7 -28 -20 -61 -49 -61 -26 0 -30 13 -14 54 12 32 55 36 63 7z
m-25 -83 c29 -29 -5 -78 -55 -78 -26 0 -27 2 -12 53 8 29 15 37 32 37 13 0 28
-5 35 -12z"/>
<path d="M2830 3069 c-7 -11 -26 -34 -43 -51 l-32 -30 43 32 c43 33 72 70 53
70 -6 0 -15 -9 -21 -21z"/>
<path d="M2972 3040 c18 -21 35 -34 37 -29 4 12 -47 69 -61 69 -5 0 6 -18 24
-40z"/>
<path d="M3204 3068 c-3 -4 16 -8 41 -8 29 0 44 4 40 10 -7 12 -74 10 -81 -2z"/>
<path d="M2080 3044 c0 -9 5 -14 12 -12 18 6 21 28 4 28 -9 0 -16 -7 -16 -16z"/>
<path d="M3187 2500 c-4 -16 -14 -20 -54 -22 l-48 -1 43 -4 c55 -5 55 -23 -2
-79 -24 -24 -40 -44 -36 -44 4 0 13 7 20 16 8 8 22 20 33 26 19 10 20 8 14
-49 -4 -33 -8 -66 -10 -74 -2 -8 3 1 11 19 15 33 16 33 76 30 55 -3 61 -5 64
-25 3 -18 -2 -23 -20 -24 l-23 0 23 -12 c34 -16 42 3 42 96 l0 77 -75 0 c-73
0 -75 1 -65 20 9 18 21 20 95 20 47 0 85 3 85 8 0 4 -36 6 -80 4 -78 -4 -92 2
-68 26 9 9 8 12 -4 12 -9 0 -18 -9 -21 -20z m113 -100 c0 -18 -7 -20 -65 -20
-58 0 -65 2 -65 20 0 18 7 20 65 20 58 0 65 -2 65 -20z m0 -50 c0 -18 -7 -20
-65 -20 -58 0 -65 2 -65 20 0 18 7 20 65 20 58 0 65 -2 65 -20z"/>
<path d="M3970 2501 c0 -5 10 -11 23 -13 20 -3 22 -8 20 -56 -3 -58 -28 -124
-62 -159 -12 -13 -17 -23 -12 -23 16 0 56 60 75 113 10 26 21 45 25 43 4 -3
13 -1 21 5 12 7 10 9 -7 9 -19 0 -23 5 -23 34 0 43 10 49 60 41 37 -6 38 -8
29 -33 -5 -15 -17 -33 -26 -39 -15 -11 -14 -13 10 -13 24 0 27 4 27 34 0 19 5
38 10 41 6 4 8 11 5 16 -8 12 -175 12 -175 0z"/>
<path d="M2885 2493 l-90 -4 -2 -64 c-2 -48 0 -65 10 -65 10 0 12 15 9 60 l-4
60 76 0 c65 0 76 -2 77 -17 1 -10 3 -29 4 -43 2 -14 -1 -30 -7 -37 -9 -12 8
-30 19 -19 7 7 10 137 3 134 -3 -1 -45 -4 -95 -5z"/>
<path d="M4449 2486 c12 -16 10 -170 -3 -178 -6 -4 0 -8 14 -8 25 0 25 0 25
94 0 90 -1 95 -23 99 -15 3 -19 1 -13 -7z"/>
<path d="M4552 2483 c5 -6 8 -50 6 -97 -3 -82 2 -98 27 -90 6 3 9 40 7 95 -2
60 0 94 8 99 6 3 -5 6 -24 6 -25 -1 -32 -4 -24 -13z"/>
<path d="M4660 2485 c12 -16 9 -169 -4 -177 -6 -4 5 -7 24 -7 19 0 29 3 23 6
-9 3 -13 31 -13 88 0 70 3 86 18 94 13 8 9 9 -20 8 -22 -1 -33 -6 -28 -12z"/>
<path d="M1873 2480 c14 -9 17 -26 17 -88 0 -47 -5 -83 -12 -90 -16 -16 90
-17 125 -1 60 27 72 112 21 160 -21 19 -38 24 -97 27 -55 2 -68 0 -54 -8z
m104 -6 c30 -8 56 -67 49 -110 -8 -40 -39 -64 -83 -64 l-33 0 0 83 c0 46 3 87
7 90 8 8 31 9 60 1z"/>
<path d="M3590 2475 c8 -10 11 -42 9 -100 -4 -76 -2 -85 14 -85 15 0 17 9 12
86 -3 57 -1 92 6 100 9 11 5 14 -21 14 -27 0 -31 -2 -20 -15z"/>
<path d="M3700 2438 c3 -29 3 -74 0 -99 -5 -42 -4 -46 15 -45 16 1 19 6 16 31
-9 61 -3 147 10 156 10 6 4 9 -17 9 l-30 0 6 -52z"/>
<path d="M4159 2423 c-1 -5 -2 -12 -3 -18 -3 -25 -29 -74 -42 -79 -8 -3 -24 9
-39 32 -30 44 -34 31 -4 -17 11 -18 19 -34 17 -36 -2 -1 -19 -13 -38 -25 -28
-17 -30 -20 -10 -15 14 4 33 14 42 22 17 15 21 15 68 -12 14 -8 36 -14 50 -14
l25 1 -26 8 c-14 4 -38 15 -52 25 l-26 17 24 39 c14 21 25 43 25 49 0 5 5 10
11 10 5 0 7 5 4 10 -7 12 -24 13 -26 3z"/>
<path d="M2802 2295 c-24 -25 -39 -45 -34 -45 11 0 87 78 81 84 -3 3 -24 -15
-47 -39z"/>
<path d="M2964 2298 c22 -26 41 -46 43 -44 9 8 -12 38 -45 63 l-37 28 39 -47z"/>
<path d="M2100 2300 c0 -5 5 -10 10 -10 6 0 10 5 10 10 0 6 -4 10 -10 10 -5 0
-10 -4 -10 -10z"/>
<path d="M3988 2253 c7 -3 16 -2 19 1 4 3 -2 6 -13 5 -11 0 -14 -3 -6 -6z"/>
<path d="M7240 871 c76 -21 27 -191 -56 -191 -56 0 -57 105 -2 159 18 17 27
31 20 31 -16 0 -61 -50 -74 -80 -18 -46 -18 -62 3 -91 39 -56 118 -30 159 52
25 49 25 70 -1 103 -13 17 -29 26 -47 25 l-27 -1 25 -7z"/>
<path d="M10463 825 c-80 -64 -60 -177 31 -174 34 2 36 3 11 6 -16 3 -38 12
-47 20 -39 35 -7 145 46 159 42 10 70 1 76 -26 5 -22 7 -23 13 -7 15 41 9 47
-45 47 -41 0 -60 -6 -85 -25z"/>
<path d="M13622 803 c-10 -4 -8 -9 7 -20 31 -21 27 -61 -9 -81 -16 -9 -30 -20
-30 -24 0 -14 13 -9 37 14 24 23 32 20 47 -17 2 -5 12 -1 22 9 11 10 13 15 5
11 -16 -9 -31 11 -31 42 0 24 -20 73 -29 72 -3 0 -12 -3 -19 -6z"/>
<path d="M13695 790 c-16 -18 -16 -18 4 -13 25 6 35 19 22 27 -4 3 -16 -3 -26
-14z"/>
<path d="M10556 675 c-11 -8 -15 -15 -9 -15 6 0 16 7 23 15 16 19 11 19 -14 0z"/>
</g>
</svg>
