<?xml version="1.0" standalone="no"?>
<!DOCTYPE svg PUBLIC "-//W3C//DTD SVG 20010904//EN"
 "http://www.w3.org/TR/2001/REC-SVG-20010904/DTD/svg10.dtd">
<svg version="1.0" xmlns="http://www.w3.org/2000/svg"
 width="1448.000000pt" height="845.000000pt" viewBox="0 0 1448.000000 845.000000"
 preserveAspectRatio="xMidYMid meet">
<metadata>
Created by potrace 1.16, written by Peter Selinger 2001-2019
</metadata>
<g transform="translate(0.000000,845.000000) scale(0.100000,-0.100000)"
fill="#000000" stroke="none">
<path d="M1450 8249 l0 -31 -52 4 -53 4 3 -61 4 -62 48 5 49 4 4 -58 3 -59 2
58 2 57 55 0 55 0 0 58 0 57 -49 -3 c-38 -3 -50 0 -55 13 -3 10 -1 24 5 31 9
11 8 14 -5 14 -11 0 -16 -9 -16 -31z m0 -85 l0 -45 -42 3 c-39 3 -43 6 -46 31
-6 46 4 57 48 57 l40 0 0 -46z m101 42 c3 -3 3 -23 1 -46 l-4 -41 -42 3 c-41
3 -41 3 -44 46 l-3 42 44 0 c24 0 46 -2 48 -4z"/>
<path d="M4014 8255 l-6 -25 -20 23 -19 22 6 -22 c5 -17 1 -22 -17 -26 -14 -3
-9 -5 15 -6 38 -1 38 -2 32 -31 -7 -33 -49 -114 -73 -142 -9 -11 -11 -18 -4
-18 6 0 21 18 32 40 l20 40 96 0 96 0 -7 -32 c-10 -45 -12 -48 -43 -49 -27 0
-27 0 -4 -11 32 -16 50 5 58 65 6 44 5 47 -15 47 -20 0 -22 4 -16 31 6 26 4
30 -12 27 -13 -2 -17 3 -16 19 2 19 -3 22 -45 25 -42 3 -47 5 -44 26 4 30 -6
28 -14 -3z m84 -52 c-2 -13 -14 -19 -41 -21 -32 -3 -37 0 -37 17 0 18 6 21 41
21 33 0 40 -3 37 -17z m32 -53 c0 -18 -7 -20 -65 -20 -36 0 -65 2 -65 4 0 28
16 36 71 36 52 0 59 -2 59 -20z"/>
<path d="M7121 8264 c-2 -32 -12 -35 -32 -11 l-18 22 5 -22 c4 -15 1 -23 -13
-26 -10 -3 -4 -5 15 -6 23 -1 32 -6 32 -18 -1 -25 -36 -101 -66 -140 -14 -18
-21 -33 -17 -33 5 0 19 18 33 40 l25 40 93 0 94 0 -7 -32 c-10 -45 -12 -48
-43 -49 -27 0 -27 0 -4 -11 32 -16 50 5 58 64 6 41 4 46 -12 45 -15 -2 -19 4
-17 26 1 21 -3 27 -19 27 -17 0 -19 4 -14 25 6 24 4 25 -38 25 -41 0 -45 2
-49 28 -3 19 -4 21 -6 6z m79 -64 c0 -17 -7 -20 -40 -20 -33 0 -40 3 -40 20 0
17 7 20 40 20 33 0 40 -3 40 -20z m30 -49 c0 -23 -19 -31 -75 -31 -47 0 -59 8
-49 34 5 12 20 16 65 16 51 0 59 -2 59 -19z"/>
<path d="M8630 8263 c-1 -25 -38 -102 -40 -83 -1 8 -3 20 -4 25 -3 25 -20 7
-17 -19 1 -16 -3 -32 -11 -37 -10 -7 -10 -9 0 -9 7 0 12 -15 12 -40 0 -24 -5
-40 -12 -40 -9 0 -9 -3 0 -12 17 -17 21 -9 23 47 2 32 11 62 28 87 23 36 28
38 74 38 l50 0 -7 -80 c-8 -100 -12 -110 -45 -111 l-26 0 24 -12 c19 -9 26 -8
36 7 10 14 27 130 30 201 0 5 -24 8 -54 6 -53 -3 -54 -2 -47 23 4 15 2 26 -4
26 -5 0 -10 -8 -10 -17z"/>
<path d="M9361 8261 c-6 -10 -8 -34 -6 -52 6 -49 -4 -79 -26 -79 -10 0 -19 -7
-19 -15 0 -11 -11 -15 -40 -15 -30 0 -40 4 -40 16 0 9 8 14 18 13 29 -3 42 1
42 11 0 5 -13 7 -28 4 -22 -4 -29 -2 -29 10 0 11 9 16 29 16 27 0 28 2 28 50
l0 50 -63 0 -63 0 1 -50 c0 -48 1 -50 28 -50 39 0 35 -28 -5 -33 l-33 -4 33
-1 c21 -1 32 -7 32 -17 0 -10 -11 -16 -32 -17 -18 -1 1 -4 42 -7 l75 -6 3 -35
c3 -35 4 -35 42 -32 22 2 40 8 40 13 0 5 -3 8 -7 8 -5 -1 -20 -1 -35 0 -25 1
-28 5 -28 36 0 26 4 35 18 36 9 0 30 2 46 3 28 2 28 1 24 -45 -3 -32 -1 -46 6
-43 6 2 11 27 11 57 -1 51 -2 52 -28 49 -25 -3 -27 -1 -27 32 0 33 2 36 30 36
17 0 30 4 30 10 0 5 -13 7 -32 3 -31 -6 -31 -6 -25 30 6 41 3 46 -12 18z
m-146 -41 c0 -36 -21 -52 -31 -25 -9 21 5 33 16 15 6 -8 10 -10 10 -4 0 6 -7
17 -15 24 -16 13 -10 33 8 27 7 -2 12 -19 12 -37z m38 10 c-10 -11 -19 -20
-20 -20 -2 0 -3 9 -3 20 0 13 7 20 20 20 19 0 19 -1 3 -20z m27 -20 c0 -22
-22 -36 -39 -26 -6 4 -4 14 7 26 21 26 32 25 32 0z"/>
<path d="M9526 8226 c-9 -30 -21 -58 -26 -61 -6 -3 -10 -11 -10 -17 0 -7 6 -6
15 2 13 11 15 2 15 -69 0 -44 3 -81 8 -81 4 0 6 35 4 79 -2 43 1 105 7 137 14
75 7 80 -13 10z"/>
<path d="M9650 8265 c0 -11 -11 -15 -39 -15 -22 0 -43 -4 -46 -10 -4 -6 11 -7
39 -4 42 6 46 5 46 -14 0 -11 -6 -23 -12 -25 -10 -4 -10 -6 0 -6 6 -1 12 -12
12 -26 0 -21 -5 -25 -30 -25 -25 0 -30 4 -30 24 0 15 7 26 18 29 13 4 11 5 -5
6 -20 1 -23 -4 -23 -40 0 -40 1 -40 29 -34 31 7 46 -11 30 -36 -7 -12 -12 -12
-31 -1 l-23 13 23 -20 22 -19 -24 -19 c-13 -10 -32 -23 -42 -30 -18 -12 -18
-12 1 -6 11 3 32 15 47 25 26 18 27 18 73 -2 50 -21 75 -25 75 -11 0 4 -15 11
-32 14 -18 3 -45 10 -60 16 -25 9 -26 13 -17 40 6 16 18 32 27 36 11 4 13 8 5
13 -6 4 -13 16 -15 27 -2 16 3 21 30 23 29 3 32 1 32 -22 0 -14 -4 -26 -10
-26 -5 0 -10 -4 -10 -10 0 -5 9 -10 21 -10 15 0 19 4 15 16 -3 9 -6 27 -6 40
0 21 -5 24 -35 24 -31 0 -35 3 -34 23 3 37 0 57 -11 57 -5 0 -10 -7 -10 -15z"/>
<path d="M9859 8239 c-20 -25 -25 -37 -13 -29 23 14 58 59 51 66 -2 3 -19 -14
-38 -37z"/>
<path d="M12115 8269 c-44 -3 -70 -6 -57 -7 20 -2 22 -7 22 -52 0 -60 -31
-147 -59 -167 -12 -8 -21 -20 -21 -26 1 -25 59 54 77 102 19 54 30 61 101 61
27 0 42 -4 42 -12 0 -19 -38 -78 -50 -78 -6 0 -20 16 -32 35 -11 20 -23 33
-26 30 -3 -2 7 -22 21 -42 31 -43 26 -54 -33 -73 -23 -7 -43 -17 -46 -22 -6
-9 31 4 83 29 30 14 35 14 76 -6 46 -22 72 -27 62 -12 -3 5 -18 12 -34 16 -52
11 -57 28 -22 85 17 28 31 52 31 55 0 3 -13 5 -30 5 -33 0 -34 1 -21 47 5 18
6 34 3 35 -4 2 -43 0 -87 -3z m69 -36 c-9 -39 -17 -45 -55 -41 -30 3 -34 7
-37 36 l-3 32 51 0 c50 0 50 0 44 -27z"/>
<path d="M1000 8139 c0 -71 3 -129 8 -129 4 0 14 5 22 10 13 8 12 10 -2 10
-16 0 -18 12 -18 110 l0 110 25 0 c20 0 27 -6 32 -30 4 -24 10 -29 24 -25 11
4 19 2 19 -4 0 -6 -19 -11 -42 -11 -33 0 -39 -3 -30 -12 7 -7 12 -40 12 -79
l0 -68 95 -3 c89 -3 95 -2 96 17 0 11 1 68 3 128 l2 107 -123 -1 -123 0 0
-130z m230 6 l0 -115 -85 0 c-50 0 -85 4 -85 10 0 6 28 10 65 10 64 0 65 0 66
28 1 28 4 51 13 88 6 21 3 22 -34 17 -26 -4 -40 -2 -40 6 0 6 11 11 25 11 21
0 25 5 25 30 0 25 4 30 25 30 l25 0 0 -115z m-77 98 c-13 -2 -33 -2 -45 0 -13
2 -3 4 22 4 25 0 35 -2 23 -4z m7 -23 c0 -5 -18 -10 -40 -10 -22 0 -40 5 -40
10 0 6 18 10 40 10 22 0 40 -4 40 -10z m-2 -67 c-15 -2 -42 -2 -60 0 -18 2 -6
4 27 4 33 0 48 -2 33 -4z m20 -50 c-3 -36 -5 -38 -40 -39 -21 -1 -38 3 -38 7
0 5 14 9 30 9 24 0 30 4 30 23 0 19 -5 22 -41 23 -38 0 -40 -1 -37 -29 2 -16
-1 -30 -7 -31 -5 0 -11 16 -13 37 l-3 37 61 0 61 0 -3 -37z m-38 -3 c0 -5 -9
-10 -20 -10 -11 0 -20 5 -20 10 0 6 9 10 20 10 11 0 20 -4 20 -10z"/>
<path d="M4664 8259 c-2 -5 -3 -27 0 -49 7 -56 -1 -70 -38 -71 -30 -2 -30 -2
-3 -6 26 -4 27 -7 27 -63 0 -32 3 -61 8 -63 4 -2 21 4 37 15 l30 19 -30 -3
c-29 -3 -30 -2 -30 42 l0 45 80 2 c44 1 88 2 98 2 9 1 17 4 17 9 0 4 -40 5
-90 4 -77 -3 -90 -2 -90 12 0 15 38 22 92 17 10 -1 26 3 35 9 14 8 2 10 -51 8
-46 -1 -71 3 -74 10 -2 8 16 12 62 12 36 0 66 4 66 8 0 4 -29 6 -65 4 -54 -4
-65 -2 -65 11 0 9 10 17 23 19 20 3 19 4 -6 9 -15 4 -30 3 -33 -2z"/>
<path d="M4734 8259 c-3 -5 6 -9 20 -9 31 0 34 6 6 13 -11 3 -23 1 -26 -4z"/>
<path d="M4790 8260 c0 -5 6 -10 14 -10 8 0 18 5 21 10 3 6 -3 10 -14 10 -12
0 -21 -4 -21 -10z"/>
<path d="M5057 8253 c5 -22 3 -23 -58 -23 -46 0 -60 -3 -49 -10 8 -6 33 -9 55
-8 l40 2 -3 -39 c-4 -55 -40 -121 -76 -145 -17 -11 -25 -20 -17 -20 21 0 89
78 96 111 6 27 10 29 57 29 l51 0 -6 -50 c-8 -65 -12 -70 -50 -70 l-32 0 29
-15 c15 -8 30 -15 32 -15 12 0 32 63 36 111 l4 55 -54 -4 -54 -5 4 29 c3 29 3
29 71 28 47 0 67 3 67 12 0 9 -14 11 -55 7 -49 -5 -57 -3 -74 18 -20 24 -20
24 -14 2z"/>
<path d="M5290 8240 c0 -17 -7 -44 -15 -60 -16 -31 -10 -41 9 -16 13 18 78 25
83 10 2 -6 -7 -16 -19 -22 -13 -6 -17 -11 -10 -11 21 -1 13 -21 -8 -21 -14 0
-20 6 -18 16 2 10 -3 19 -9 21 -9 3 -13 -10 -13 -49 0 -29 -3 -64 -6 -78 -5
-25 -5 -25 11 2 8 15 24 32 35 38 18 9 20 8 20 -15 0 -14 -5 -25 -11 -25 -5 0
-7 -4 -4 -10 3 -5 13 -10 21 -10 11 0 14 15 14 63 0 102 0 103 77 99 72 -4 83
2 83 51 0 16 -5 27 -13 27 -9 0 -12 -10 -9 -30 2 -16 0 -30 -5 -30 -5 0 -10
16 -11 36 -2 43 -9 54 -23 34 -7 -10 -12 -11 -15 -4 -9 21 -53 -8 -56 -36 -5
-38 -23 -30 -26 12 -2 27 -7 35 -17 32 -8 -3 -11 -13 -8 -21 4 -11 2 -14 -5
-9 -8 5 -12 0 -12 -13 0 -11 -5 -23 -11 -27 -7 -4 -10 6 -7 32 2 23 -2 39 -10
42 -8 2 -12 -7 -12 -28z m142 -25 c4 -19 1 -25 -12 -25 -13 0 -16 6 -12 25 2
14 8 25 12 25 4 0 10 -11 12 -25z m36 0 c0 -14 -4 -25 -9 -25 -5 0 -9 11 -9
25 0 14 4 25 9 25 5 0 9 -11 9 -25z m-123 -114 c3 -5 1 -13 -5 -16 -15 -9 -43
3 -35 15 8 13 32 13 40 1z"/>
<path d="M6136 8253 c5 -17 1 -22 -18 -25 -18 -3 -15 -5 13 -9 19 -2 46 -2 60
2 l24 7 -23 1 c-13 1 -32 11 -42 24 l-19 22 5 -22z"/>
<path d="M6250 8250 c0 -9 -9 -34 -20 -55 l-20 -40 25 28 c14 15 25 37 25 48
0 13 7 19 24 19 20 0 24 -6 30 -39 3 -22 12 -41 18 -44 19 -6 49 4 42 14 -3 5
-10 7 -15 3 -20 -12 -40 18 -33 50 5 32 5 32 -35 32 -30 -1 -41 -5 -41 -16z"/>
<path d="M8260 8156 l0 -114 -50 -7 c-27 -4 -54 -4 -60 0 -5 3 -10 1 -10 -4 0
-7 31 -11 83 -11 71 1 80 2 64 14 -15 12 -17 28 -15 125 2 61 0 111 -4 111 -5
0 -8 -51 -8 -114z"/>
<path d="M8522 8245 c-6 -14 -16 -25 -22 -25 -6 0 -10 -26 -9 -62 0 -40 3 -56
8 -44 4 11 16 23 27 27 17 7 17 8 -3 8 -19 1 -23 7 -23 31 0 26 4 30 28 30 21
0 24 2 12 10 -12 8 -13 13 -2 30 7 11 8 20 4 20 -5 0 -14 -11 -20 -25z"/>
<path d="M9950 8225 l0 -45 60 0 60 0 0 45 0 45 -42 -2 c-37 -1 -39 -2 -10 -5
49 -6 42 -33 -9 -33 -36 0 -41 2 -36 20 3 13 0 20 -9 20 -10 0 -14 -13 -14
-45z m105 -20 c0 -5 -21 -11 -47 -13 -45 -3 -58 4 -41 22 11 10 88 3 88 -9z"/>
<path d="M10690 8258 c0 -5 4 -8 9 -8 4 0 14 -21 21 -46 l13 -45 -39 -40 c-21
-21 -46 -41 -56 -45 -29 -9 -21 -23 12 -22 24 1 29 5 25 18 -6 18 50 78 62 66
4 -4 8 -25 8 -47 0 -36 2 -39 27 -39 16 0 28 5 28 10 0 6 -4 10 -9 10 -5 0
-17 21 -27 47 l-18 46 59 55 c42 39 52 52 34 47 -13 -4 -28 -14 -33 -22 -12
-22 -45 -53 -55 -53 -14 0 -23 51 -11 65 8 10 4 12 -20 11 -16 0 -30 -4 -30
-8z"/>
<path d="M11196 8251 c-21 -23 -24 -74 -6 -96 7 -8 25 -15 41 -15 39 0 36 -16
-8 -58 -29 -27 -32 -32 -13 -22 43 22 70 52 81 92 21 79 -48 151 -95 99z m63
-4 c27 -34 16 -97 -17 -97 -27 0 -42 20 -42 55 0 48 34 72 59 42z"/>
<path d="M12639 8261 c11 -7 9 -22 -9 -87 -13 -44 -30 -87 -38 -96 -14 -17
-11 -18 58 -18 58 0 76 4 86 18 20 25 17 38 -4 19 -11 -10 -36 -17 -61 -17
-40 0 -43 2 -37 23 3 12 6 30 6 40 0 11 8 17 25 17 14 0 25 -4 25 -10 0 -23
18 -8 22 18 4 28 3 28 -21 16 -33 -17 -41 -10 -31 26 13 44 19 50 51 50 21 0
32 -6 39 -22 8 -22 9 -22 9 5 1 27 1 27 -66 27 -42 0 -63 -4 -54 -9z"/>
<path d="M12851 8233 c10 -21 19 -46 19 -56 0 -21 -68 -97 -86 -97 -7 0 -16
-4 -19 -10 -4 -6 7 -10 25 -10 20 0 29 4 24 11 -6 10 42 69 57 69 13 0 20 -52
8 -66 -9 -12 -4 -14 32 -14 42 0 43 1 22 15 -14 10 -24 31 -29 61 -6 44 -5 46
41 89 38 36 43 45 27 45 -11 0 -23 -8 -26 -18 -4 -11 -17 -29 -31 -42 -19 -18
-25 -20 -29 -9 -2 8 -7 23 -10 33 -4 11 -1 23 6 28 8 5 2 8 -18 8 l-32 0 19
-37z"/>
<path d="M13393 8223 c-65 -103 -67 -113 -13 -113 36 0 40 -2 40 -26 0 -14 4
-23 10 -19 6 4 7 11 4 17 -4 6 4 19 16 28 l23 18 -22 7 c-21 6 -22 10 -16 71
5 38 4 64 -2 64 -5 0 -23 -21 -40 -47z m25 -45 c-3 -39 -6 -43 -30 -46 -34 -4
-35 9 -7 54 28 46 41 43 37 -8z"/>
<path d="M175 8227 c-11 -17 -30 -47 -42 -67 -32 -51 -29 -60 17 -60 36 0 40
-2 40 -26 0 -14 4 -23 10 -19 6 3 10 15 10 25 0 10 6 21 13 24 10 5 10 7 0 12
-9 4 -13 28 -13 69 0 35 -3 66 -8 69 -4 2 -16 -10 -27 -27z m13 -59 c-3 -39
-6 -43 -30 -46 -34 -4 -35 6 -7 52 28 48 41 45 37 -6z"/>
<path d="M2370 8250 c20 -12 -24 -173 -54 -192 -6 -4 16 -8 50 -8 50 0 64 4
82 23 23 25 29 61 11 72 -7 5 -5 15 5 31 19 28 21 60 4 70 -6 4 -34 8 -62 10
-28 1 -44 -1 -36 -6z m90 -40 c0 -20 -35 -50 -58 -50 -17 0 -10 54 9 76 15 18
49 0 49 -26z m-18 -85 c6 -30 -19 -55 -55 -55 -29 0 -33 12 -17 54 14 37 66
37 72 1z"/>
<path d="M2585 8248 c-40 -22 -64 -51 -70 -87 -6 -38 8 -90 28 -103 23 -15 79
-8 104 12 31 24 22 27 -12 4 -30 -20 -81 -11 -96 18 -18 33 -1 98 34 130 41
37 81 37 100 1 l14 -26 5 29 c4 29 3 30 -42 32 -25 0 -54 -4 -65 -10z"/>
<path d="M2769 8253 c-10 -73 -33 -151 -50 -175 l-20 -28 56 0 c118 0 185 82
140 170 -9 17 -19 30 -23 31 -4 0 -28 3 -54 5 -27 3 -49 2 -49 -3z m102 -29
c20 -25 15 -99 -10 -125 -19 -21 -111 -41 -111 -24 0 15 32 130 41 147 12 23
62 24 80 2z"/>
<path d="M2987 8223 c-11 -64 -37 -148 -47 -151 -6 -2 -10 -8 -10 -13 0 -5 31
-9 70 -9 67 0 70 1 85 30 9 17 11 30 5 30 -5 0 -10 -4 -10 -10 0 -20 -77 -44
-99 -31 -11 7 -11 15 -1 45 13 40 42 49 59 19 8 -14 10 -15 11 -3 0 8 3 26 7
40 6 24 6 24 -14 8 -32 -29 -46 -23 -38 15 4 17 9 35 12 40 6 11 73 9 73 -3 0
-5 5 -10 10 -10 15 0 12 30 -2 31 -7 0 -34 2 -59 5 l-46 4 -6 -37z"/>
<path d="M3170 8252 c6 -2 10 -9 10 -16 0 -27 -50 -170 -62 -178 -8 -5 -1 -8
19 -8 24 0 31 4 27 15 -3 8 0 31 6 51 11 34 15 36 45 31 29 -5 34 -2 38 19 4
23 3 23 -13 9 -37 -34 -59 -13 -44 43 5 18 13 22 50 22 30 0 46 -5 54 -17 9
-16 10 -15 8 7 -3 24 -6 25 -75 25 -40 0 -68 -1 -63 -3z"/>
<path d="M3445 8251 c21 -4 31 -13 33 -29 3 -20 22 -33 22 -14 0 4 3 16 6 27
4 18 0 20 -43 21 -37 2 -41 0 -18 -5z"/>
<path d="M3607 8253 c-15 -2 -25 -8 -22 -13 9 -15 -34 -164 -52 -177 -15 -11
-13 -13 15 -13 23 0 30 4 26 15 -3 8 -1 30 6 50 11 33 14 35 57 35 l45 0 -7
-37 c-3 -21 -14 -44 -23 -50 -14 -11 -12 -13 16 -13 23 0 30 4 26 15 -6 15 32
152 49 173 7 9 3 12 -17 12 -16 0 -25 -4 -21 -10 4 -6 1 -26 -5 -45 -11 -33
-14 -35 -56 -35 -51 0 -56 14 -24 68 11 17 19 31 17 31 -1 -1 -14 -4 -30 -6z"/>
<path d="M10475 8250 c9 -14 -34 -161 -53 -182 -14 -17 -12 -18 32 -18 49 0
108 20 138 47 48 43 37 145 -16 159 -14 3 -31 4 -38 1 -7 -3 -1 -6 13 -6 27
-1 49 -29 51 -66 2 -28 -30 -92 -50 -100 -92 -38 -102 -27 -72 77 13 46 28 86
34 90 6 4 -2 8 -17 8 -16 0 -26 -4 -22 -10z"/>
<path d="M300 8240 c-13 -8 -12 -10 3 -10 15 0 17 -11 17 -84 0 -58 -4 -86
-12 -89 -7 -3 2 -6 21 -6 28 -1 32 1 21 14 -8 10 -11 42 -9 100 4 89 -2 100
-41 75z"/>
<path d="M2235 8210 c-17 -23 -52 -68 -78 -101 -41 -50 -45 -59 -27 -59 13 0
20 7 20 18 0 25 31 52 58 52 16 0 22 -6 22 -23 0 -13 -5 -28 -12 -35 -9 -9 -5
-12 20 -12 28 0 31 3 24 18 -6 10 -6 47 0 91 5 41 7 78 6 83 -2 5 -17 -10 -33
-32z m5 -45 c0 -23 -24 -45 -36 -33 -7 7 17 58 28 58 4 0 8 -11 8 -25z"/>
<path d="M3347 8212 c-30 -31 -37 -45 -37 -78 0 -58 47 -95 110 -85 30 5 37
12 52 54 17 46 17 47 -2 47 -13 0 -17 -5 -14 -14 3 -8 -2 -28 -11 -45 -25 -50
-87 -38 -108 21 -10 28 12 86 44 112 17 14 24 26 17 26 -8 0 -31 -17 -51 -38z"/>
<path d="M6694 8228 c9 -12 16 -39 16 -59 0 -30 -7 -43 -40 -73 -22 -20 -45
-36 -50 -36 -6 0 -10 -4 -10 -10 0 -5 11 -10 25 -10 18 0 25 5 25 18 0 20 39
62 57 62 15 0 21 -30 11 -57 -8 -25 1 -28 36 -14 13 5 16 10 8 15 -6 4 -16 25
-22 48 -11 41 -11 41 36 89 42 43 45 49 26 49 -15 0 -22 -6 -22 -19 0 -10 -12
-26 -26 -36 -30 -19 -44 -9 -44 33 0 15 -6 22 -21 22 -19 0 -19 -1 -5 -22z"/>
<path d="M7603 8217 c-2 -17 -14 -62 -27 -99 l-23 -68 55 0 c68 0 116 32 131
86 11 40 7 60 -22 92 -16 17 -31 22 -66 22 -45 0 -46 -1 -48 -33z m95 7 c22
-15 28 -54 16 -101 -8 -28 -62 -63 -98 -63 -30 0 -31 8 -12 76 8 27 17 61 20
77 7 31 38 36 74 11z"/>
<path d="M7823 8222 c-1 -15 -13 -60 -26 -99 l-24 -73 67 0 c62 0 68 2 78 25
18 38 15 41 -13 11 -17 -18 -34 -26 -58 -26 -44 0 -47 4 -34 47 12 39 30 51
51 34 16 -13 26 -4 25 23 0 12 -3 15 -6 9 -2 -7 -16 -13 -30 -13 -20 0 -23 4
-19 20 3 11 9 29 12 40 7 27 80 29 87 3 4 -14 5 -12 6 5 1 20 -3 22 -56 22
-56 0 -58 -1 -60 -28z"/>
<path d="M9715 8240 c3 -5 15 -10 26 -10 10 0 19 5 19 10 0 6 -12 10 -26 10
-14 0 -23 -4 -19 -10z"/>
<path d="M9875 8180 c-14 -22 -30 -40 -35 -40 -6 0 -10 -5 -10 -12 0 -9 3 -9
12 0 22 22 27 12 31 -60 l3 -73 2 83 c2 80 12 119 36 134 8 5 7 8 -1 8 -7 0
-24 -18 -38 -40z"/>
<path d="M11685 8201 c-11 -5 -47 -7 -81 -5 l-61 3 5 -54 c3 -35 0 -60 -8 -70
-11 -13 -8 -15 14 -15 23 0 25 2 16 19 -25 47 0 116 39 109 20 -4 28 -92 10
-114 -9 -12 -6 -14 22 -14 26 0 30 3 21 12 -16 16 -15 80 1 102 7 10 22 17 33
14 15 -2 20 -13 22 -51 2 -27 -2 -55 -9 -63 -9 -12 -6 -14 22 -14 26 0 30 3
21 12 -7 7 -12 33 -12 59 0 30 -6 53 -16 63 -8 9 -16 16 -17 15 -1 0 -11 -4
-22 -8z"/>
<path d="M13591 8193 c-34 -28 -38 -84 -9 -117 27 -32 48 -28 74 12 l17 27
-23 -20 c-12 -11 -25 -18 -29 -17 -3 2 -14 8 -24 14 -13 7 -17 19 -15 45 4 45
33 67 52 41 16 -22 26 -23 26 -3 0 8 -9 19 -19 25 -25 13 -25 13 -50 -7z"/>
<path d="M11412 8191 c-8 -4 -16 -26 -19 -47 -9 -68 51 -110 92 -64 10 11 15
23 12 27 -4 3 -7 1 -7 -5 0 -20 -40 -25 -61 -6 -23 21 -24 52 -3 82 15 22 9
28 -14 13z"/>
<path d="M11470 8178 c21 -23 36 -19 27 7 -4 8 -16 15 -27 15 l-21 0 21 -22z"/>
<path d="M13708 8145 c3 -35 0 -60 -8 -70 -10 -13 -9 -15 11 -15 23 0 24 3 23
68 0 51 -4 68 -16 70 -12 2 -14 -7 -10 -53z"/>
<path d="M13768 8190 c22 -9 23 -15 20 -70 -3 -58 -2 -60 22 -60 19 0 21 3 12
12 -16 16 -16 95 1 101 20 7 2 18 -39 23 -33 4 -35 3 -16 -6z"/>
<path d="M13858 8190 c18 -8 22 -17 22 -58 0 -26 -5 -53 -12 -60 -9 -9 -6 -12
13 -12 23 0 25 3 22 38 -9 94 -12 102 -41 101 -26 0 -26 -1 -4 -9z"/>
<path d="M6110 8180 c0 -5 18 -10 40 -10 22 0 40 5 40 10 0 6 -18 10 -40 10
-22 0 -40 -4 -40 -10z"/>
<path d="M8335 8175 l-30 -14 27 -1 c34 0 59 10 52 21 -7 11 -12 11 -49 -6z"/>
<path d="M1783 8145 c2 -43 21 -40 25 3 2 23 -1 32 -12 32 -10 0 -14 -10 -13
-35z"/>
<path d="M13090 8170 c0 -6 32 -10 75 -10 43 0 75 4 75 10 0 6 -32 10 -75 10
-43 0 -75 -4 -75 -10z"/>
<path d="M14202 8168 c-6 -6 -12 -18 -12 -25 0 -15 30 -32 48 -26 20 7 14 20
-9 19 -12 -1 -24 4 -26 10 -6 17 29 27 39 12 7 -10 9 -9 5 2 -5 19 -29 24 -45
8z"/>
<path d="M4492 8159 c-12 -5 -73 -6 -135 -4 -76 4 -107 2 -97 -5 19 -12 257
-13 265 -1 8 15 -8 20 -33 10z"/>
<path d="M5705 8150 c-8 -26 6 -43 31 -38 13 2 19 12 19 28 0 34 -40 41 -50
10z m45 -10 c0 -11 -6 -20 -14 -20 -18 0 -29 16 -21 30 11 18 35 11 35 -10z"/>
<path d="M8940 8160 c-69 -3 -120 -8 -115 -12 11 -7 233 -8 252 0 13 4 8 24
-5 20 -4 -1 -63 -5 -132 -8z"/>
<path d="M10978 8163 c23 -2 61 -2 85 0 23 2 4 4 -43 4 -47 0 -66 -2 -42 -4z"/>
<path d="M5455 8150 l-70 -6 78 -2 c46 -1 77 2 77 8 0 6 -3 9 -7 8 -5 -1 -39
-4 -78 -8z"/>
<path d="M8657 8133 c10 -18 20 -28 22 -22 2 6 -6 21 -19 33 l-21 21 18 -32z"/>
<path d="M9995 8150 c-89 -6 -89 -6 -22 -8 51 -2 67 -5 67 -17 0 -10 -17 -15
-67 -18 l-68 -3 68 -2 67 -2 0 -35 c0 -31 -3 -35 -27 -36 l-28 -1 28 -10 c35
-13 39 -9 40 41 2 38 4 41 30 41 15 0 27 4 27 10 0 5 -13 7 -31 3 -25 -5 -31
-3 -27 8 2 8 14 15 26 17 12 2 22 8 22 13 0 5 -3 8 -7 7 -5 -1 -48 -5 -98 -8z"/>
<path d="M6110 8140 c0 -5 18 -10 40 -10 22 0 40 5 40 10 0 6 -18 10 -40 10
-22 0 -40 -4 -40 -10z"/>
<path d="M6277 8143 l-57 -4 29 -43 c23 -33 27 -46 18 -55 -9 -10 -8 -11 6 -5
10 3 28 -1 42 -10 27 -18 65 -21 65 -6 0 6 -9 10 -21 10 -11 0 -29 5 -40 10
-19 11 -19 12 6 54 26 44 30 57 18 54 -5 -1 -34 -3 -66 -5z m53 -22 c0 -4 -10
-21 -22 -36 l-21 -27 -18 23 c-29 37 -24 49 21 49 22 0 40 -4 40 -9z"/>
<path d="M5400 8091 c0 -16 7 -34 15 -41 23 -19 18 -30 -12 -31 -21 -1 -18 -3
12 -8 53 -8 125 -2 125 11 0 6 -7 7 -16 4 -26 -10 -35 4 -19 27 8 12 15 32 15
44 0 20 -5 23 -32 22 -24 -1 -27 -3 -10 -6 40 -8 26 -33 -18 -33 -41 0 -49 7
-28 28 9 9 7 12 -10 12 -18 0 -22 -6 -22 -29z m90 -35 c0 -7 -7 -19 -15 -26
-12 -10 -18 -10 -30 0 -25 21 -18 40 15 40 19 0 30 -5 30 -14z"/>
<path d="M10995 8110 l-60 -7 78 -1 c46 -1 77 2 77 8 0 6 -8 9 -17 8 -10 -1
-45 -4 -78 -8z"/>
<path d="M13090 8110 c0 -6 32 -10 75 -10 43 0 75 4 75 10 0 6 -32 10 -75 10
-43 0 -75 -4 -75 -10z"/>
<path d="M4730 8104 c0 -22 91 -94 119 -94 26 0 8 18 -29 29 -46 14 -51 33
-14 50 15 6 24 14 22 17 -3 2 -20 -3 -37 -13 -31 -17 -32 -17 -46 1 -8 11 -15
15 -15 10z"/>
<path d="M6110 8057 l0 -43 40 4 c39 4 40 5 40 43 0 39 0 39 -40 39 l-40 0 0
-43z m65 3 c0 -18 -6 -26 -23 -28 -24 -4 -38 18 -28 44 3 9 15 14 28 12 17 -2
23 -10 23 -28z"/>
<path d="M4031 8068 c-1 -16 4 -28 9 -28 12 0 12 8 0 35 -8 18 -9 17 -9 -7z"/>
<path d="M4070 8085 c0 -5 5 -17 10 -25 5 -8 10 -10 10 -5 0 6 -5 17 -10 25
-5 8 -10 11 -10 5z"/>
<path d="M4126 8077 c3 -10 9 -15 12 -12 3 3 0 11 -7 18 -10 9 -11 8 -5 -6z"/>
<path d="M7226 8077 c3 -10 9 -15 12 -12 3 3 0 11 -7 18 -10 9 -11 8 -5 -6z"/>
<path d="M8490 8058 c0 -23 3 -29 9 -19 8 12 4 51 -5 51 -2 0 -4 -15 -4 -32z"/>
<path d="M430 8065 c0 -8 7 -15 15 -15 8 0 15 7 15 15 0 8 -7 15 -15 15 -8 0
-15 -7 -15 -15z"/>
<path d="M3982 8059 c-7 -11 -11 -23 -9 -25 7 -7 29 24 25 36 -2 6 -9 1 -16
-11z"/>
<path d="M7132 8060 c0 -14 2 -19 5 -12 2 6 2 18 0 25 -3 6 -5 1 -5 -13z"/>
<path d="M9960 8065 c0 -8 4 -15 10 -15 5 0 7 7 4 15 -4 8 -8 15 -10 15 -2 0
-4 -7 -4 -15z"/>
<path d="M7082 8050 c-7 -11 -8 -20 -3 -20 9 0 24 30 18 36 -1 2 -8 -6 -15
-16z"/>
<path d="M7181 8054 c0 -11 3 -14 6 -6 3 7 2 16 -1 19 -3 4 -6 -2 -5 -13z"/>
<path d="M9171 8063 c0 -6 -4 -20 -7 -30 -5 -14 -4 -15 5 -7 7 7 11 20 8 30
-3 11 -5 14 -6 7z"/>
<path d="M9201 8065 c1 -19 18 -51 18 -35 0 8 -4 22 -9 30 -5 8 -9 11 -9 5z"/>
<path d="M9240 8058 c0 -9 5 -20 10 -23 13 -8 13 5 0 25 -8 13 -10 13 -10 -2z"/>
<path d="M9276 8047 c3 -10 9 -15 12 -12 3 3 0 11 -7 18 -10 9 -11 8 -5 -6z"/>
<path d="M8340 8027 c0 -4 16 -7 35 -5 19 1 35 6 35 10 0 4 -16 7 -35 5 -19
-1 -35 -6 -35 -10z"/>
<path d="M6220 8015 c-14 -8 -20 -14 -14 -15 5 0 19 7 30 15 24 18 16 19 -16
0z"/>
<path d="M2117 7833 c-11 -10 -8 -83 3 -83 5 0 9 10 7 22 -1 15 5 24 23 29
l25 7 -27 1 c-20 1 -26 5 -22 16 6 16 2 20 -9 8z"/>
<path d="M1000 7781 c0 -48 2 -51 25 -51 20 0 25 -5 25 -26 0 -23 -3 -25 -30
-19 -29 6 -30 6 -24 -24 4 -16 1 -45 -5 -63 -7 -18 -7 -28 -2 -23 6 6 14 28
19 50 5 25 14 41 24 43 14 3 18 -7 21 -55 2 -32 4 -3 5 64 1 67 5 128 8 137 3
9 1 16 -5 16 -6 0 -11 -17 -11 -39 0 -26 -5 -41 -15 -45 -19 -7 -29 15 -22 49
2 14 0 28 -4 31 -5 3 -9 -18 -9 -45z"/>
<path d="M1119 7794 c-27 -29 -29 -34 -10 -24 17 8 26 9 34 1 20 -20 31 -12
12 9 -16 18 -16 20 -1 26 9 3 16 10 16 15 0 17 -17 9 -51 -27z"/>
<path d="M2042 7818 c-21 -10 -22 -18 -21 -80 1 -37 6 -68 10 -68 5 0 9 6 9
14 0 8 10 17 23 19 l22 4 -22 2 c-16 1 -23 7 -23 21 0 14 7 20 23 21 21 1 18
2 -21 15 -17 5 3 44 23 44 8 0 15 5 15 10 0 12 -8 12 -38 -2z"/>
<path d="M2550 7820 c-12 -8 -9 -10 13 -10 16 0 26 4 22 10 -8 12 -16 12 -35
0z"/>
<path d="M2673 7818 c-2 -5 23 -8 56 -8 34 0 61 -4 61 -9 0 -30 -14 -41 -51
-41 -30 0 -39 -4 -40 -17 -1 -10 -2 -52 -3 -93 l-2 -75 118 0 118 0 0 93 0 92
-70 0 c-68 0 -69 1 -61 23 7 19 17 23 82 28 41 3 70 6 64 8 -27 6 -267 5 -272
-1z m83 -145 c-1 -73 -3 -78 -23 -81 -22 -3 -23 -1 -23 77 0 79 1 81 24 81 23
0 24 -2 22 -77z m87 63 c8 -20 -2 -26 -40 -26 -26 0 -33 4 -33 20 0 16 7 20
34 20 20 0 36 -6 39 -14z m70 2 c-2 -5 -3 -39 -3 -78 0 -68 -1 -70 -25 -70
-25 0 -25 1 -25 81 l0 80 28 -3 c15 -2 26 -6 25 -10z m-69 -55 c7 -18 -8 -32
-39 -34 -13 -1 -9 -4 10 -8 21 -4 30 -12 30 -26 0 -16 -8 -21 -37 -23 l-37 -3
0 55 0 56 34 0 c21 0 35 -6 39 -17z"/>
<path d="M4120 7790 c0 -19 -3 -79 -7 -132 -4 -69 -3 -98 5 -98 7 0 12 32 14
88 l3 87 43 -2 42 -2 0 47 0 47 -50 0 -50 0 0 -35z m80 5 c0 -10 -11 -15 -35
-15 -24 0 -35 5 -35 15 0 10 11 15 35 15 24 0 35 -5 35 -15z m0 -35 c0 -5 -16
-10 -35 -10 -19 0 -35 5 -35 10 0 6 16 10 35 10 19 0 35 -4 35 -10z"/>
<path d="M4313 7822 l-53 -3 0 -46 0 -45 45 4 45 3 0 -79 c0 -73 -1 -78 -20
-73 -11 3 -20 1 -20 -3 0 -13 41 -23 50 -13 9 8 16 252 9 256 -2 1 -28 1 -56
-1z m37 -27 c0 -10 -11 -15 -35 -15 -24 0 -35 5 -35 15 0 10 11 15 35 15 24 0
35 -5 35 -15z m0 -35 c0 -5 -16 -10 -35 -10 -19 0 -35 5 -35 10 0 6 16 10 35
10 19 0 35 -4 35 -10z"/>
<path d="M4499 7807 c-6 -14 -19 -27 -28 -30 -14 -3 -17 -19 -19 -93 l-2 -89
55 0 55 0 0 92 0 93 -30 -6 c-32 -7 -41 11 -18 34 6 6 9 15 5 18 -3 4 -11 -5
-18 -19z m41 -77 c0 -28 -3 -30 -35 -30 -32 0 -35 2 -35 30 0 28 3 30 35 30
32 0 35 -2 35 -30z m-16 -46 c10 -4 16 -18 16 -40 0 -32 -2 -34 -35 -34 -34 0
-35 1 -35 40 0 41 13 50 54 34z"/>
<path d="M4600 7810 c0 -12 -7 -35 -16 -51 -8 -17 -13 -33 -10 -36 3 -3 11 6
17 21 11 23 18 26 62 26 l50 0 -6 -80 c-8 -97 -20 -125 -47 -110 -28 15 -38
12 -16 -5 11 -8 26 -15 33 -15 22 0 40 59 45 147 l5 81 -55 -5 -55 -6 7 26 c4
16 2 27 -4 27 -5 0 -10 -9 -10 -20z"/>
<path d="M4907 7813 c5 -21 1 -22 -58 -26 -35 -2 -2 -4 74 -5 83 -1 136 2 132
7 -3 5 -30 7 -60 4 -49 -5 -57 -3 -74 18 -20 23 -20 24 -14 2z"/>
<path d="M5208 7806 c-9 -13 -33 -31 -52 -40 -43 -20 -45 -25 -10 -18 l27 5
-5 -71 c-3 -42 -12 -82 -22 -97 -9 -14 -12 -25 -7 -25 5 0 16 18 25 40 l16 40
90 0 90 0 0 -29 c0 -25 -5 -30 -27 -33 l-28 -4 28 -8 c15 -5 31 -6 34 -2 3 3
8 48 10 101 l5 95 -49 0 -48 0 25 20 c22 17 23 19 7 26 -21 8 -32 -1 -32 -24
0 -14 -11 -18 -55 -20 -62 -4 -60 10 6 33 32 12 35 14 14 15 -20 0 -22 2 -10
10 13 9 13 10 0 10 -8 -1 -23 -11 -32 -24z m52 -76 c0 -17 -7 -20 -40 -20 -33
0 -40 3 -40 20 0 17 7 20 40 20 33 0 40 -3 40 -20z m94 14 c30 -12 5 -34 -39
-34 -38 0 -43 2 -38 20 5 20 43 27 77 14z m-96 -66 c-2 -19 -10 -24 -40 -26
-35 -3 -38 -1 -38 22 0 24 4 26 41 26 36 0 40 -2 37 -22z m102 -3 c0 -22 -4
-25 -39 -25 -42 0 -57 11 -47 35 3 10 20 15 46 15 36 0 40 -2 40 -25z"/>
<path d="M5887 7805 l-9 -30 -18 25 c-18 23 -19 23 -14 3 4 -15 1 -23 -13 -26
-10 -3 -4 -5 15 -6 25 -1 32 -5 32 -21 0 -26 -45 -118 -73 -147 -11 -13 -16
-23 -11 -23 5 0 20 17 34 38 32 49 35 50 80 45 21 -3 41 0 45 6 4 7 -9 11 -39
11 -48 0 -57 9 -31 30 10 8 36 11 75 8 33 -2 60 -1 60 4 0 4 -7 8 -15 8 -9 0
-15 9 -15 25 0 23 -4 25 -44 25 -41 0 -45 2 -48 28 l-3 27 -8 -30z m81 -52
c-2 -13 -14 -19 -41 -21 -32 -3 -37 0 -37 17 0 18 6 21 41 21 33 0 40 -3 37
-17z"/>
<path d="M7224 7808 c1 -21 -5 -24 -64 -29 l-65 -6 66 -1 65 -2 -1 -52 c-4
-128 -4 -128 -27 -137 -22 -8 -22 -8 2 -14 31 -8 40 6 40 63 l1 45 27 -30 c31
-34 79 -62 88 -52 4 4 -4 11 -17 16 -13 5 -37 21 -54 34 -26 22 -28 27 -15 41
7 10 27 24 44 33 17 9 25 18 19 20 -7 3 -25 -5 -39 -16 -39 -31 -54 -27 -54
14 l0 35 60 0 c37 0 60 4 60 11 0 7 -10 9 -25 5 -18 -5 -25 -2 -25 8 0 7 -7
19 -16 27 -13 11 -14 9 -9 -14 6 -24 4 -27 -19 -27 -21 0 -26 5 -26 25 0 14
-4 25 -8 25 -5 0 -8 -10 -8 -22z"/>
<path d="M1207 7805 c7 -19 -21 -51 -60 -72 -16 -8 -26 -17 -23 -20 8 -9 82
45 101 73 20 30 19 34 -5 34 -13 0 -18 -5 -13 -15z"/>
<path d="M2200 7811 c8 -6 18 -7 22 -5 8 5 10 0 12 -28 1 -7 -10 -15 -24 -19
-22 -6 -23 -7 -4 -8 23 -1 43 -33 25 -39 -6 -2 -8 -16 -4 -33 5 -28 4 -29 -31
-29 l-37 0 7 60 c5 45 3 60 -6 60 -7 0 -10 -7 -6 -16 10 -26 -4 -84 -21 -84
-8 0 -11 -4 -8 -10 3 -5 -1 -10 -9 -10 -18 0 -21 27 -6 64 5 14 6 26 1 26 -4
0 -12 -19 -17 -42 -9 -41 -11 -43 -46 -43 -20 -1 -40 -4 -44 -8 -4 -4 54 -7
129 -7 85 0 137 4 137 10 0 6 -5 10 -11 10 -8 0 -10 26 -7 80 l3 80 -35 0
c-25 0 -31 -3 -20 -9z"/>
<path d="M2403 7813 l57 -4 0 -64 0 -64 -62 -4 -63 -3 63 -2 62 -2 2 -57 1
-58 6 55 6 55 63 3 c34 2 62 6 62 11 0 4 -26 5 -59 3 -54 -4 -59 -3 -64 19 -4
13 -7 43 -7 66 0 40 2 42 33 46 17 2 -11 4 -63 4 -54 -1 -70 -2 -37 -4z"/>
<path d="M5506 7803 c5 -18 1 -22 -23 -26 -15 -2 -1 -4 32 -4 33 -1 51 2 41 4
-11 3 -28 15 -37 27 l-18 21 5 -22z"/>
<path d="M5645 7810 l-50 -7 48 -1 47 -2 0 -40 0 -40 -45 0 -45 0 0 -67 c0
-38 4 -74 9 -81 5 -9 25 -12 61 -10 74 4 76 24 3 23 l-58 0 0 60 0 60 48 3 47
3 0 55 c0 29 -3 53 -7 52 -5 0 -30 -4 -58 -8z"/>
<path d="M6424 7809 c-11 -6 -35 -35 -53 -64 -26 -42 -32 -62 -29 -97 3 -39 6
-43 31 -46 70 -8 150 173 93 210 -14 9 -16 9 -42 -3z m40 -61 c-8 -29 -14 -33
-47 -36 -23 -2 -37 1 -37 8 0 19 21 54 44 72 18 15 23 15 35 3 11 -11 12 -22
5 -47z m-14 -54 c0 -25 -54 -83 -77 -84 -14 0 -19 71 -6 83 8 8 83 9 83 1z"/>
<path d="M8148 7800 c-53 -41 -87 -162 -54 -189 35 -29 107 40 126 119 19 80
-16 115 -72 70z m57 -1 c4 -6 4 -26 1 -45 -7 -32 -9 -34 -46 -34 -48 0 -51 15
-14 59 27 32 48 39 59 20z m-22 -95 c17 -17 -54 -101 -75 -88 -10 6 -11 78 -1
87 8 9 68 9 76 1z"/>
<path d="M1528 7802 c10 -7 10 -15 2 -38 -6 -16 -17 -51 -25 -79 -7 -27 -16
-58 -20 -68 -7 -17 -3 -18 46 -12 29 3 62 13 71 22 21 18 24 63 6 81 -9 9 -9
12 0 12 7 0 18 11 24 25 17 38 -12 65 -71 65 -28 0 -41 -4 -33 -8z m82 -23
c15 -26 -12 -59 -47 -59 -26 0 -27 5 -12 49 13 36 43 42 59 10z m-26 -75 c42
-16 0 -84 -51 -84 -27 0 -27 0 -11 51 11 39 26 47 62 33z"/>
<path d="M1715 7783 c29 -63 27 -77 -17 -121 -23 -23 -45 -42 -50 -42 -4 0 -8
-4 -8 -10 0 -23 28 -7 56 30 36 49 58 48 62 -3 3 -29 7 -37 23 -37 21 0 25 10
9 26 -5 5 -13 30 -16 55 -6 44 -5 46 41 87 39 34 43 42 26 42 -12 0 -21 -6
-21 -13 0 -7 -13 -26 -30 -42 -32 -31 -40 -25 -44 30 -1 19 -7 25 -23 25 -20
0 -21 -2 -8 -27z"/>
<path d="M3407 7786 c5 -22 -26 -128 -48 -168 -8 -16 -4 -18 35 -18 59 0 88
12 105 43 10 19 10 29 1 47 -9 17 -9 25 4 39 36 40 7 81 -58 81 -40 0 -43 -2
-39 -24z m89 -7 c13 -21 -18 -59 -48 -59 -31 0 -33 6 -18 44 10 27 52 37 66
15z m-18 -104 c4 -34 -18 -55 -58 -55 -24 0 -26 3 -22 33 6 43 20 59 51 55 20
-2 27 -9 29 -33z"/>
<path d="M3596 7778 c-31 -27 -39 -41 -43 -78 -7 -65 22 -100 82 -100 47 0 60
10 71 55 4 17 14 35 23 42 13 10 9 12 -24 12 -22 0 -34 -3 -27 -6 17 -7 15
-59 -4 -77 -22 -23 -60 -20 -84 7 -18 18 -21 31 -17 67 8 75 79 121 138 89 12
-6 18 -17 15 -25 -3 -9 -1 -12 4 -9 6 3 10 16 10 29 0 20 -5 23 -53 25 -47 2
-57 -2 -91 -31z"/>
<path d="M3817 7799 c15 -15 -27 -167 -52 -185 -17 -13 -16 -14 13 -14 28 0
32 3 32 28 0 54 10 72 41 72 21 0 29 -5 30 -17 1 -12 4 -10 9 7 11 33 12 58 2
44 -4 -6 -17 -14 -29 -18 -20 -6 -23 -4 -23 21 0 15 4 35 9 43 11 17 80 17 91
0 5 -8 9 -8 13 3 9 23 -1 27 -77 27 -50 0 -67 -3 -59 -11z"/>
<path d="M3285 7786 c-6 -7 -29 -40 -52 -72 -22 -33 -50 -69 -62 -81 -26 -28
-26 -33 0 -33 14 0 19 5 16 14 -9 24 22 56 54 56 32 0 34 -6 19 -44 -8 -23 -7
-26 13 -26 21 0 22 4 25 100 1 55 1 100 0 100 -2 0 -8 -6 -13 -14z m-5 -53
c-1 -29 -15 -53 -31 -53 -23 0 -24 9 -3 38 15 21 34 30 34 15z"/>
<path d="M2391 7743 c22 -46 29 -52 29 -29 0 8 -11 28 -25 43 l-26 28 22 -42z"/>
<path d="M2537 7745 c-9 -19 -15 -35 -13 -35 2 0 16 16 30 35 18 23 22 35 13
35 -7 0 -21 -16 -30 -35z"/>
<path d="M4825 7727 c-30 -30 -34 -37 -15 -27 30 15 70 50 70 62 0 15 -14 6
-55 -35z"/>
<path d="M1115 7753 c-25 -6 -39 -19 -28 -26 5 -3 20 3 33 14 14 10 23 18 20
18 -3 -1 -14 -3 -25 -6z"/>
<path d="M4986 7737 c5 -14 44 -41 44 -31 0 6 -40 44 -46 44 -2 0 -1 -6 2 -13z"/>
<path d="M7140 7747 c0 -5 9 -20 20 -34 11 -14 20 -21 20 -15 0 12 -39 60 -40
49z"/>
<path d="M7656 7729 c-19 -15 -26 -30 -26 -55 0 -36 28 -74 55 -74 18 0 55 35
55 53 0 6 -5 4 -11 -5 -15 -27 -57 -23 -71 7 -21 46 18 95 50 63 6 -6 15 -8
19 -4 7 7 -23 36 -38 36 -3 0 -18 -9 -33 -21z"/>
<path d="M7790 7728 c-30 -32 -27 -93 5 -114 69 -45 130 52 70 111 -30 31 -48
31 -75 3z m57 -6 c22 -14 24 -68 4 -93 -19 -23 -19 -24 -40 -5 -46 41 -13 129
36 98z"/>
<path d="M7931 7731 c-15 -28 -15 -28 25 -65 21 -19 34 -39 30 -45 -11 -17
-44 -13 -55 7 -9 15 -10 15 -11 -5 0 -20 5 -23 35 -23 28 0 38 5 44 23 11 29
6 39 -29 59 -17 9 -30 24 -30 33 0 18 31 20 49 3 10 -11 12 -9 9 7 -5 28 -53
33 -67 6z"/>
<path d="M1211 7719 c-1 -23 -7 -27 -40 -33 -44 -7 -74 1 -65 16 4 6 1 9 -7 6
-8 -3 -15 -12 -17 -21 -3 -15 6 -17 63 -17 l66 0 -3 -37 c-2 -30 -8 -38 -28
-43 l-25 -6 24 -13 c30 -17 41 -3 41 57 0 36 3 42 21 42 12 0 19 5 16 13 -2 6
-11 11 -20 9 -10 -2 -17 7 -20 25 l-4 28 -2 -26z"/>
<path d="M5480 7730 c20 -13 80 -13 80 0 0 6 -21 10 -47 10 -35 0 -44 -3 -33
-10z"/>
<path d="M8500 7715 c-10 -12 -11 -21 -3 -33 13 -21 45 -22 51 -2 3 12 2 12
-8 3 -15 -14 -40 -6 -40 13 0 21 30 30 42 13 8 -12 9 -11 5 1 -5 21 -31 24
-47 5z"/>
<path d="M4619 7705 c15 -32 40 -61 41 -48 0 7 -12 25 -26 40 -16 18 -22 21
-15 8z"/>
<path d="M4947 7685 c-19 -40 -39 -38 -62 4 -8 14 -14 21 -15 15 0 -6 9 -23
21 -38 20 -26 20 -28 4 -46 -10 -11 -37 -29 -61 -41 -24 -11 -44 -23 -44 -25
0 -8 70 25 101 47 l30 21 48 -31 c46 -30 81 -40 81 -23 0 5 -18 14 -41 21 -22
7 -49 21 -60 32 -19 19 -19 19 6 59 14 22 22 40 17 40 -5 0 -16 -16 -25 -35z"/>
<path d="M6740 7695 c0 -31 26 -43 47 -22 21 21 9 47 -22 47 -20 0 -25 -5 -25
-25z m48 -2 c-5 -26 -38 -29 -38 -4 0 15 6 21 21 21 14 0 19 -5 17 -17z"/>
<path d="M4180 7651 l0 -49 55 -4 55 -3 0 53 0 52 -55 0 -55 0 0 -49z m96 1
c2 -38 -13 -48 -51 -35 -37 12 -35 27 5 34 l35 6 -37 2 c-36 1 -46 9 -31 25 4
4 23 6 42 4 33 -3 36 -6 37 -36z"/>
<path d="M5476 7688 c7 -11 55 -10 73 1 10 6 -1 9 -32 9 -25 -1 -44 -5 -41
-10z"/>
<path d="M6000 7693 c0 -7 -7 -13 -16 -13 -8 0 -12 -5 -9 -10 4 -6 14 -10 23
-9 34 3 42 -1 42 -22 0 -35 -19 -59 -48 -59 -21 0 -24 -2 -12 -10 41 -26 61
-6 73 74 5 34 4 38 -13 33 -12 -3 -24 1 -30 11 -5 10 -10 12 -10 5z"/>
<path d="M7158 7647 c-44 -30 -59 -47 -40 -47 4 0 28 18 52 40 54 47 51 49
-12 7z"/>
<path d="M1122 7640 c13 -20 28 -27 28 -12 0 4 -9 13 -20 20 -19 12 -20 11 -8
-8z"/>
<path d="M5470 7605 c0 -25 5 -45 10 -45 6 0 10 5 10 10 0 6 16 10 35 10 33 0
35 2 35 35 0 35 0 35 -45 35 l-45 0 0 -45z m75 10 c0 -14 -8 -21 -27 -23 -22
-3 -28 1 -28 16 0 25 10 33 35 30 12 -2 20 -10 20 -23z"/>
<path d="M5997 7630 c3 -11 9 -20 15 -20 5 0 4 9 -2 20 -6 11 -12 20 -14 20
-2 0 -2 -9 1 -20z"/>
<path d="M5901 7618 c-1 -16 4 -28 9 -28 12 0 12 8 0 35 -8 18 -9 17 -9 -7z"/>
<path d="M5947 7619 c4 -13 8 -18 11 -10 2 7 -1 18 -6 23 -8 8 -9 4 -5 -13z"/>
<path d="M5861 7618 c-1 -10 -5 -18 -11 -18 -5 0 -10 -5 -10 -12 0 -8 6 -7 16
4 9 9 14 22 11 30 -4 9 -6 7 -6 -4z"/>
<path d="M2071 7606 c-6 -8 -25 -19 -42 -26 -16 -7 -27 -15 -25 -18 7 -6 96
40 96 50 0 13 -17 9 -29 -6z"/>
<path d="M2209 7595 c48 -28 51 -29 51 -16 0 8 -71 41 -88 41 -4 0 13 -11 37
-25z"/>
<path d="M2839 7010 c-26 -21 -20 -27 10 -8 26 16 51 3 51 -27 0 -17 -7 -28
-22 -34 -23 -9 -23 -9 5 -22 23 -10 27 -18 25 -43 -3 -28 -6 -31 -40 -32 -47
-1 -59 -11 -24 -20 53 -13 105 53 77 98 -7 11 -9 28 -6 39 4 11 4 31 1 45 -8
30 -44 32 -77 4z"/>
<path d="M9767 7012 c10 -6 8 -27 -11 -92 -14 -45 -30 -87 -38 -91 -8 -5 19
-9 65 -9 74 0 78 1 87 26 15 37 12 40 -11 10 -16 -20 -29 -26 -60 -26 -35 0
-39 2 -39 26 0 14 5 34 10 45 13 24 50 25 51 2 0 -15 2 -15 9 2 14 32 12 36
-15 29 -21 -5 -25 -3 -25 16 0 54 49 80 84 44 15 -14 16 -14 16 5 0 19 -6 21
-67 21 -38 0 -62 -4 -56 -8z"/>
<path d="M13772 6975 c0 -39 -42 -158 -59 -171 -16 -12 -14 -13 20 -14 33 0
36 2 26 18 -9 14 -8 25 5 50 14 28 22 32 56 32 28 0 40 -4 40 -14 0 -23 -20
-70 -33 -78 -7 -4 6 -8 28 -8 27 0 35 3 26 9 -15 9 -11 32 23 144 12 37 12 47
2 47 -6 0 -16 -19 -22 -42 -9 -43 -9 -43 -54 -43 l-45 0 3 35 c1 19 9 40 18
46 13 10 11 12 -9 10 -17 -1 -25 -7 -25 -21z"/>
<path d="M1940 6830 c0 -6 -13 -40 -30 -75 -16 -35 -30 -69 -30 -74 0 -5 -10
-17 -22 -25 -22 -16 -22 -16 10 -16 21 0 31 4 27 11 -4 5 -4 21 -1 34 5 20 12
24 47 23 34 0 42 -4 50 -26 7 -18 6 -28 -3 -34 -8 -5 2 -8 26 -8 38 0 39 1 22
19 -10 11 -30 54 -45 97 -15 43 -33 80 -39 82 -7 2 -12 -1 -12 -8z m24 -66
c12 -31 6 -44 -19 -44 -25 0 -31 13 -19 44 3 9 12 16 19 16 7 0 16 -7 19 -16z"/>
<path d="M10654 6762 l-681 -2 -339 -336 c-685 -677 -886 -879 -894 -899 -4
-11 -8 -508 -9 -1105 -1 -597 -4 -1330 -6 -1630 -7 -648 -7 -2331 -1 -2337 4
-4 1339 -6 2958 -4 l717 1 183 183 c101 100 274 274 386 387 111 113 304 306
427 430 l225 225 1 160 c0 88 2 275 4 415 2 140 7 1214 10 2386 l7 2132 -1154
-2 c-634 0 -1459 -2 -1834 -4z m2946 -25 c0 -4 -131 -136 -291 -295 -160 -158
-318 -316 -352 -351 -34 -35 -168 -171 -297 -302 l-235 -239 -1150 0 c-633 0
-1185 0 -1227 0 l-78 0 5 85 c2 48 0 87 -6 90 -5 4 -10 -19 -10 -54 -3 -109
-4 -116 -13 -123 -11 -7 -1147 -8 -1159 -1 -8 5 1144 1154 1164 1161 5 2 9
-30 9 -72 0 -44 4 -76 10 -76 6 0 10 37 10 90 l0 89 133 3 c306 7 3487 2 3487
-5z m20 -1089 c-1 -584 -3 -1243 -5 -1463 -2 -220 -5 -771 -6 -1225 -1 -454
-5 -926 -8 -1050 l-6 -225 -37 3 c-23 2 -38 -1 -38 -7 0 -11 13 -15 38 -12 36
5 21 -11 -493 -518 -52 -52 -95 -95 -95 -96 0 -7 -549 -555 -556 -555 -5 0 -8
104 -7 238 1 130 2 398 2 595 1 351 1 359 21 364 19 5 19 6 3 18 -17 13 -18
79 -15 1322 2 719 5 1575 8 1901 l5 592 247 251 c136 137 339 341 451 452 112
111 267 266 344 344 78 78 143 141 145 139 2 -2 3 -483 2 -1068z m-1482 -122
l267 -1 -3 -1110 c-4 -1353 -13 -2688 -18 -2694 -2 -3 -31 -3 -64 -2 -36 1
-60 -2 -60 -8 0 -5 28 -11 63 -13 l62 -3 2 -607 1 -606 -26 -4 c-15 -1 -837
-3 -1827 -3 l-1800 0 2 570 c7 2180 21 4466 26 4471 1 2 682 4 1512 5 831 2
1526 6 1545 9 19 4 39 5 43 2 5 -2 128 -5 275 -6z"/>
<path d="M9960 6390 c0 -53 4 -90 10 -90 6 0 10 37 10 90 0 53 -4 90 -10 90
-6 0 -10 -37 -10 -90z"/>
<path d="M9960 6140 c0 -53 4 -90 10 -90 6 0 10 37 10 90 0 53 -4 90 -10 90
-6 0 -10 -37 -10 -90z"/>
<path d="M9960 5884 c0 -61 4 -93 10 -89 6 3 10 46 10 96 0 53 -4 89 -10 89
-6 0 -10 -39 -10 -96z"/>
<path d="M12635 5530 c-45 -14 -86 -61 -92 -107 -4 -32 -1 -45 20 -69 21 -24
32 -29 67 -28 49 2 60 11 76 64 10 35 10 40 -5 40 -11 0 -16 -9 -17 -29 -2
-51 -10 -61 -53 -61 -30 0 -43 5 -51 19 -17 33 -11 86 13 122 19 29 30 35 66
37 36 3 43 0 48 -17 3 -12 9 -18 14 -15 14 8 11 44 -3 44 -7 0 -22 2 -33 4
-11 3 -34 1 -50 -4z"/>
<path d="M12525 1700 c3 -5 44 -10 91 -10 49 0 84 4 84 10 0 6 -37 10 -91 10
-57 0 -88 -4 -84 -10z"/>
<path d="M12770 1700 c0 -5 10 -10 23 -11 12 0 50 -2 85 -6 76 -6 85 11 10 21
-77 9 -118 7 -118 -4z"/>
<path d="M13020 1690 c0 -6 37 -10 91 -10 57 0 88 4 84 10 -3 6 -44 10 -91 10
-49 0 -84 -4 -84 -10z"/>
<path d="M13270 1692 c0 -5 7 -13 16 -16 26 -10 164 -7 164 4 0 6 -24 10 -52
10 -29 0 -70 3 -90 6 -23 4 -38 3 -38 -4z"/>
<path d="M9952 5380 c-1 -54 2 -90 8 -90 6 0 10 37 10 90 0 50 -4 90 -8 90 -5
0 -10 -40 -10 -90z"/>
<path d="M9950 5130 c0 -53 4 -90 10 -90 6 0 10 37 10 90 0 53 -4 90 -10 90
-6 0 -10 -37 -10 -90z"/>
<path d="M9950 4871 c0 -71 3 -91 17 -102 15 -12 16 -12 10 4 -4 10 -7 57 -7
103 0 49 -4 84 -10 84 -6 0 -10 -36 -10 -89z"/>
<path d="M9695 4912 c6 -4 17 -27 24 -51 13 -44 13 -45 -21 -76 -18 -17 -44
-39 -58 -48 l-24 -17 27 0 c16 0 27 6 27 13 0 13 50 67 62 67 4 0 9 -14 13
-31 5 -22 3 -34 -6 -40 -9 -6 -2 -9 21 -9 20 0 30 4 23 8 -6 4 -17 28 -24 53
l-12 46 39 40 c22 22 46 42 54 46 9 3 3 6 -13 6 -16 1 -26 -3 -23 -7 7 -11
-52 -68 -60 -59 -4 4 -7 20 -8 37 -1 25 -5 30 -26 30 -14 0 -20 -4 -15 -8z"/>
<path d="M9950 4619 c0 -57 4 -88 10 -84 6 3 10 44 10 91 0 49 -4 84 -10 84
-6 0 -10 -37 -10 -91z"/>
<path d="M10105 4520 c3 -5 8 -10 11 -10 2 0 4 5 4 10 0 6 -5 10 -11 10 -5 0
-7 -4 -4 -10z"/>
<path d="M9949 4438 c-5 -64 0 -153 8 -155 5 -2 10 31 11 82 1 52 -2 85 -8 85
-5 0 -10 -6 -11 -12z"/>
<path d="M10150 4439 c0 -5 5 -7 10 -4 6 3 10 8 10 11 0 2 -4 4 -10 4 -5 0
-10 -5 -10 -11z"/>
<path d="M10260 4240 c0 -5 5 -10 11 -10 5 0 7 5 4 10 -3 6 -8 10 -11 10 -2 0
-4 -4 -4 -10z"/>
<path d="M10280 4200 c0 -5 5 -10 10 -10 6 0 10 5 10 10 0 6 -4 10 -10 10 -5
0 -10 -4 -10 -10z"/>
<path d="M9949 4170 c0 -16 0 -52 0 -80 0 -70 0 -72 10 -66 13 8 14 176 1 176
-5 0 -10 -13 -11 -30z"/>
<path d="M10370 4040 c0 -5 5 -10 11 -10 5 0 7 5 4 10 -3 6 -8 10 -11 10 -2 0
-4 -4 -4 -10z"/>
<path d="M10415 3960 c-3 -5 -1 -10 4 -10 6 0 11 5 11 10 0 6 -2 10 -4 10 -3
0 -8 -4 -11 -10z"/>
<path d="M9948 3937 c-3 -6 -4 -43 -2 -82 3 -93 3 -89 11 -81 11 10 15 164 4
170 -5 3 -11 0 -13 -7z"/>
<path d="M10440 3920 c0 -5 5 -10 11 -10 5 0 7 5 4 10 -3 6 -8 10 -11 10 -2 0
-4 -4 -4 -10z"/>
<path d="M10460 3880 c0 -5 5 -10 11 -10 5 0 7 5 4 10 -3 6 -8 10 -11 10 -2 0
-4 -4 -4 -10z"/>
<path d="M10550 3720 c0 -5 5 -10 11 -10 5 0 7 5 4 10 -3 6 -8 10 -11 10 -2 0
-4 -4 -4 -10z"/>
<path d="M9949 3699 c0 -2 -2 -41 -3 -87 -2 -86 7 -126 18 -76 7 36 2 151 -7
160 -4 4 -7 5 -8 3z"/>
<path d="M10640 3560 c0 -5 5 -10 11 -10 5 0 7 5 4 10 -3 6 -8 10 -11 10 -2 0
-4 -4 -4 -10z"/>
<path d="M10691 3474 c0 -11 3 -14 6 -6 3 7 2 16 -1 19 -3 4 -6 -2 -5 -13z"/>
<path d="M9949 3449 c-7 -18 -4 -181 3 -185 11 -7 16 172 4 183 -3 3 -7 4 -7
2z"/>
<path d="M10710 3440 c0 -5 5 -10 11 -10 5 0 7 5 4 10 -3 6 -8 10 -11 10 -2 0
-4 -4 -4 -10z"/>
<path d="M10800 3280 c0 -5 5 -10 11 -10 5 0 7 5 4 10 -3 6 -8 10 -11 10 -2 0
-4 -4 -4 -10z"/>
<path d="M10825 3240 c-3 -5 -1 -10 4 -10 6 0 11 5 11 10 0 6 -2 10 -4 10 -3
0 -8 -4 -11 -10z"/>
<path d="M9940 3100 c0 -53 4 -90 10 -90 6 0 10 37 10 90 0 53 -4 90 -10 90
-6 0 -10 -37 -10 -90z"/>
<path d="M10865 3160 c-3 -5 1 -10 10 -10 9 0 13 5 10 10 -3 6 -8 10 -10 10
-2 0 -7 -4 -10 -10z"/>
<path d="M10910 3080 c0 -5 5 -10 11 -10 5 0 7 5 4 10 -3 6 -8 10 -11 10 -2 0
-4 -4 -4 -10z"/>
<path d="M10941 3034 c0 -11 3 -14 6 -6 3 7 2 16 -1 19 -3 4 -6 -2 -5 -13z"/>
<path d="M10961 2994 c0 -11 3 -14 6 -6 3 7 2 16 -1 19 -3 4 -6 -2 -5 -13z"/>
<path d="M9940 2860 c0 -44 0 -83 0 -87 0 -5 5 -9 10 -11 6 -2 10 31 10 87 0
54 -4 91 -10 91 -6 0 -10 -33 -10 -80z"/>
<path d="M11025 2870 c3 -5 8 -10 11 -10 2 0 4 5 4 10 0 6 -5 10 -11 10 -5 0
-7 -4 -4 -10z"/>
<path d="M11115 2720 c-3 -5 -1 -10 4 -10 6 0 11 5 11 10 0 6 -2 10 -4 10 -3
0 -8 -4 -11 -10z"/>
<path d="M9942 2636 c1 -30 0 -52 -4 -49 -5 2 -8 -14 -8 -36 0 -30 4 -41 15
-41 12 0 15 17 15 90 0 58 -4 90 -11 90 -7 0 -10 -20 -7 -54z"/>
<path d="M11135 2680 c-3 -5 -1 -10 4 -10 6 0 11 5 11 10 0 6 -2 10 -4 10 -3
0 -8 -4 -11 -10z"/>
<path d="M11245 2470 c3 -5 8 -10 11 -10 2 0 4 5 4 10 0 6 -5 10 -11 10 -5 0
-7 -4 -4 -10z"/>
<path d="M9933 2354 c2 -61 7 -89 16 -92 10 -3 12 15 9 84 -2 59 -7 89 -16 92
-9 3 -11 -17 -9 -84z"/>
<path d="M11290 2400 c0 -5 5 -10 11 -10 5 0 7 5 4 10 -3 6 -8 10 -11 10 -2 0
-4 -4 -4 -10z"/>
<path d="M11355 2280 c-3 -5 1 -10 10 -10 9 0 13 5 10 10 -3 6 -8 10 -10 10
-2 0 -7 -4 -10 -10z"/>
<path d="M9933 2090 c1 -119 21 -116 25 3 1 67 -1 87 -11 87 -11 0 -14 -21
-14 -90z"/>
<path d="M11515 2001 c-3 -5 -1 -12 5 -16 5 -3 10 1 10 9 0 18 -6 21 -15 7z"/>
<path d="M9706 1916 c7 -18 -24 -133 -44 -165 l-14 -24 58 5 c79 8 110 24 133
70 15 32 17 45 9 72 -13 40 -42 56 -103 56 -34 0 -43 -3 -39 -14z m108 -18 c9
-12 16 -33 16 -46 0 -32 -26 -79 -51 -92 -22 -12 -76 -17 -85 -7 -5 4 31 141
43 160 10 16 62 6 77 -15z"/>
<path d="M9930 1838 l0 -93 -55 -55 c-30 -30 -54 -62 -55 -70 0 -15 61 43 110
105 22 28 25 41 25 115 0 58 -4 85 -12 87 -10 4 -13 -18 -13 -89z"/>
<path d="M11605 1840 c-3 -5 -1 -10 4 -10 6 0 11 5 11 10 0 6 -2 10 -4 10 -3
0 -8 -4 -11 -10z"/>
<path d="M9980 1753 c0 -10 25 -13 90 -13 53 0 90 4 90 10 0 6 -15 10 -32 10
-18 1 -59 2 -90 3 -41 1 -58 -2 -58 -10z"/>
<path d="M10240 1752 c0 -14 150 -26 163 -13 6 6 9 11 7 11 -3 0 -42 3 -87 6
-51 4 -83 2 -83 -4z"/>
<path d="M10490 1741 c0 -9 149 -20 170 -13 6 2 10 8 10 13 0 5 -40 9 -90 9
-49 0 -90 -4 -90 -9z"/>
<path d="M10740 1741 c0 -13 26 -17 108 -20 83 -3 97 13 20 23 -75 8 -128 7
-128 -3z"/>
<path d="M11000 1730 c0 -5 11 -10 24 -10 12 0 50 -3 83 -6 50 -5 61 -4 66 10
6 14 -5 16 -83 16 -53 0 -90 -4 -90 -10z"/>
<path d="M11250 1725 c0 -12 16 -15 91 -15 68 0 90 3 87 13 -3 8 -33 13 -91
15 -73 2 -87 0 -87 -13z"/>
<path d="M11507 1733 c-19 -18 1 -23 88 -23 52 0 95 4 95 9 0 13 -171 27 -183
14z"/>
<path d="M11760 1720 c0 -9 30 -12 147 -14 14 -1 28 5 31 12 3 9 -19 12 -87
12 -54 0 -91 -4 -91 -10z"/>
<path d="M12010 1710 c0 -6 37 -10 90 -10 53 0 90 4 90 10 0 6 -37 10 -90 10
-53 0 -90 -4 -90 -10z"/>
<path d="M9696 1504 c-33 -35 -56 -67 -52 -71 7 -8 125 114 126 130 0 16 -18
2 -74 -59z"/>
<path d="M11760 1560 c0 -5 5 -10 11 -10 5 0 7 5 4 10 -3 6 -8 10 -11 10 -2 0
-4 -4 -4 -10z"/>
<path d="M11785 1520 c-3 -5 -1 -10 4 -10 6 0 11 5 11 10 0 6 -2 10 -4 10 -3
0 -8 -4 -11 -10z"/>
<path d="M11855 1401 c-3 -5 -1 -12 5 -16 5 -3 10 1 10 9 0 18 -6 21 -15 7z"/>
<path d="M9525 1323 c-30 -32 -55 -61 -55 -65 0 -20 22 -3 75 57 70 80 56 86
-20 8z"/>
<path d="M11940 1229 c0 -5 5 -7 10 -4 6 3 10 8 10 11 0 2 -4 4 -10 4 -5 0
-10 -5 -10 -11z"/>
<path d="M9373 1158 c-21 -22 -46 -49 -55 -60 -10 -10 -18 -23 -18 -30 0 -7
27 16 60 50 52 55 71 82 56 82 -2 0 -22 -19 -43 -42z"/>
<path d="M12005 1110 c3 -5 8 -10 11 -10 2 0 4 5 4 10 0 6 -5 10 -11 10 -5 0
-7 -4 -4 -10z"/>
<path d="M9168 947 c-32 -33 -58 -62 -58 -63 0 -2 6 -4 12 -4 11 0 128 116
128 127 0 15 -35 -10 -82 -60z"/>
<path d="M12070 990 c0 -5 5 -10 10 -10 6 0 10 5 10 10 0 6 -4 10 -10 10 -5 0
-10 -4 -10 -10z"/>
<path d="M9000 765 c-34 -36 -60 -69 -56 -72 6 -7 126 116 126 130 0 13 -5 8
-70 -58z"/>
<path d="M12180 790 c0 -5 5 -10 10 -10 6 0 10 5 10 10 0 6 -4 10 -10 10 -5 0
-10 -4 -10 -10z"/>
<path d="M8826 580 c-33 -33 -56 -63 -52 -67 7 -7 77 57 108 100 33 46 5 30
-56 -33z"/>
<path d="M12290 590 c0 -5 5 -10 10 -10 6 0 10 5 10 10 0 6 -4 10 -10 10 -5 0
-10 -4 -10 -10z"/>
<path d="M2780 6710 c0 -6 38 -10 95 -10 57 0 95 4 95 10 0 6 -38 10 -95 10
-57 0 -95 -4 -95 -10z"/>
<path d="M2090 6656 c0 -9 5 -16 10 -16 6 0 10 4 10 9 0 6 -4 13 -10 16 -5 3
-10 -1 -10 -9z"/>
<path d="M2847 6555 c-21 -44 -21 -45 1 -45 30 -1 64 -34 60 -60 -3 -25 -50
-58 -56 -40 -2 6 -10 10 -19 10 -25 0 -8 -25 19 -28 31 -4 65 24 74 61 5 23 0
33 -30 62 -38 35 -41 57 -8 48 10 -2 24 3 31 11 12 14 9 16 -21 16 -29 0 -37
-5 -51 -35z"/>
<path d="M2885 5795 c-41 -53 -65 -92 -65 -105 0 -5 18 -10 40 -10 36 0 40 -2
40 -25 0 -14 5 -25 10 -25 6 0 10 11 10 25 0 16 6 25 15 25 19 0 20 16 0 23
-10 4 -15 25 -17 69 l-3 62 -30 -39z m15 -55 c0 -38 -2 -40 -30 -40 -16 0 -30
2 -30 4 0 12 43 76 51 76 5 0 9 -18 9 -40z"/>
<path d="M1858 5643 c8 -3 12 -31 12 -92 0 -56 -4 -92 -12 -100 -11 -11 -1
-12 54 -9 93 5 133 44 93 88 -11 12 -13 24 -7 41 12 31 -4 65 -32 73 -26 7
-126 6 -108 -1z m97 -15 c20 -9 25 -18 23 -37 -3 -23 -8 -26 -42 -26 -42 0
-50 12 -35 53 10 25 18 27 54 10z m23 -101 c16 -13 15 -42 -2 -56 -8 -7 -30
-11 -48 -9 -37 3 -48 30 -28 68 8 16 17 19 38 14 15 -4 33 -11 40 -17z"/>
<path d="M8525 5640 c8 -12 -36 -173 -49 -182 -10 -7 -6 -9 22 -8 4 0 8 11 9
23 4 47 22 77 47 77 14 0 29 -7 34 -16 8 -14 10 -11 14 15 3 22 1 28 -6 21
-15 -15 -56 -12 -56 4 0 8 4 26 10 40 8 22 16 26 49 26 28 0 43 -5 50 -17 9
-16 10 -16 11 5 0 21 -4 22 -71 22 -43 0 -68 -4 -64 -10z"/>
<path d="M2785 5510 c3 -6 50 -10 106 -10 59 0 99 4 99 10 0 6 -42 10 -106 10
-67 0 -103 -4 -99 -10z"/>
<path d="M2070 5455 c0 -9 5 -15 10 -13 12 4 11 16 -1 24 -5 3 -9 -2 -9 -11z"/>
<path d="M2873 5392 c-11 -7 -37 -62 -31 -67 2 -1 18 -10 36 -19 26 -14 32
-22 32 -50 0 -38 -17 -50 -57 -40 -19 5 -24 3 -21 -7 7 -21 30 -21 66 1 25 15
32 27 32 51 0 42 -15 65 -45 73 -33 8 -27 29 10 36 35 6 46 30 13 30 -12 0
-28 -4 -35 -8z"/>
<path d="M2903 4623 c-16 -6 -17 -47 -1 -73 10 -15 9 -22 -5 -38 -22 -24 -22
-45 1 -65 23 -21 56 -22 76 -1 20 20 20 44 0 73 -16 22 -16 26 0 53 14 23 15
32 6 43 -12 15 -52 19 -77 8z m57 -25 c0 -13 -4 -29 -9 -37 -7 -11 -12 -8 -26
12 -19 29 -13 47 16 47 13 0 19 -7 19 -22z m-8 -95 c22 -19 23 -36 4 -52 -21
-18 -46 -2 -46 28 0 43 13 51 42 24z"/>
<path d="M1903 4440 c-32 -13 -55 -54 -56 -101 -1 -35 4 -46 31 -70 43 -38 89
-39 123 -2 l24 26 -25 -16 c-29 -20 -69 -22 -94 -4 -22 16 -35 74 -24 113 14
55 92 73 113 27 11 -26 31 -32 21 -7 -3 9 -6 21 -6 28 0 15 -75 19 -107 6z"/>
<path d="M2774 4319 c-3 -5 1 -11 8 -14 23 -9 323 -1 323 9 0 11 -324 16 -331
5z"/>
<path d="M2060 4254 c0 -9 5 -14 12 -12 18 6 21 28 4 28 -9 0 -16 -7 -16 -16z"/>
<path d="M2831 4188 c-23 -8 -23 -9 -6 -22 15 -11 17 -23 13 -81 -4 -41 -11
-71 -19 -76 -9 -6 0 -9 26 -9 22 0 35 4 28 8 -8 5 -13 41 -15 99 l-3 90 -24
-9z"/>
<path d="M2968 4192 c-9 -2 -19 -9 -21 -16 -4 -10 5 -12 39 -8 53 6 54 1 19
-87 -15 -35 -24 -68 -22 -75 5 -13 42 66 52 114 4 19 12 41 18 48 5 7 7 16 3
20 -8 7 -59 10 -88 4z"/>
<path d="M2975 3416 c-19 -29 -22 -60 -7 -62 6 -1 16 -2 22 -3 5 0 17 -12 26
-26 14 -21 15 -31 5 -51 -10 -23 -16 -25 -46 -20 -22 4 -35 3 -35 -4 0 -5 15
-10 33 -10 77 0 95 100 25 136 -34 18 -28 34 13 34 20 0 29 4 27 13 -7 20 -48
16 -63 -7z"/>
<path d="M2825 3420 c-3 -5 -2 -10 4 -10 13 0 12 -142 -1 -157 -8 -10 -5 -13
13 -13 24 0 24 1 21 95 -3 72 -7 95 -17 95 -8 0 -17 -4 -20 -10z"/>
<path d="M1859 3237 c10 -12 10 -124 -1 -167 -2 -12 9 -15 59 -14 69 1 89 12
109 61 11 26 11 39 1 70 -15 47 -45 63 -121 63 -48 0 -56 -2 -47 -13z m106 -3
c26 -10 46 -59 39 -96 -10 -49 -31 -68 -76 -68 l-38 0 0 85 0 85 29 0 c16 0
37 -3 46 -6z"/>
<path d="M2770 3120 c0 -6 64 -10 166 -10 103 0 163 4 159 10 -8 13 -325 13
-325 0z"/>
<path d="M2080 3065 c0 -8 5 -15 10 -15 6 0 10 7 10 15 0 8 -4 15 -10 15 -5 0
-10 -7 -10 -15z"/>
<path d="M2824 2995 c-12 -9 -14 -14 -6 -15 10 0 13 -21 11 -87 -1 -68 1 -88
11 -88 11 0 14 23 13 98 0 54 -3 100 -5 102 -2 3 -13 -2 -24 -10z"/>
<path d="M2953 2998 c-25 -33 -25 -38 2 -28 15 6 38 10 51 10 29 0 29 -3 -12
-107 -26 -67 -28 -77 -15 -69 11 7 71 170 71 192 0 18 -83 20 -97 2z"/>
<path d="M13774 1788 c-12 -5 -27 -21 -35 -34 -7 -13 -16 -24 -20 -24 -5 0
-11 -15 -14 -34 -8 -41 15 -92 46 -101 28 -9 84 2 99 20 10 12 6 12 -19 -1
-34 -17 -80 -12 -93 9 -4 7 -8 26 -8 44 0 70 41 122 97 123 27 0 34 -5 39 -25
8 -30 24 -23 24 11 0 22 -4 24 -47 23 -27 0 -58 -5 -69 -11z"/>
<path d="M13218 1129 c-21 -11 -23 -37 -7 -72 9 -20 8 -30 -6 -51 -16 -24 -16
-28 -1 -51 17 -26 45 -32 77 -15 25 14 25 64 -1 88 l-20 19 20 18 c28 25 25
53 -6 65 -31 12 -34 12 -56 -1z m47 -35 c0 -32 -21 -39 -38 -12 -8 12 -7 21 3
32 19 24 35 14 35 -20z m1 -95 c14 -29 14 -33 0 -47 -14 -14 -17 -14 -35 2
-20 18 -18 54 3 68 15 10 14 12 32 -23z"/>
<path d="M13460 1072 c-41 -12 -54 -83 -22 -122 14 -18 25 -21 44 -17 14 4 28
13 31 21 5 12 1 13 -18 6 -20 -8 -28 -5 -44 16 -21 26 -19 46 7 77 14 16 16
16 34 0 10 -9 21 -14 24 -10 16 16 -27 38 -56 29z"/>
<path d="M13556 1056 c13 -10 15 -23 11 -59 -3 -26 -9 -52 -12 -57 -4 -6 6
-10 22 -9 15 0 22 3 16 6 -18 7 -17 97 1 112 7 6 21 8 31 5 14 -6 16 -17 13
-65 -3 -57 -2 -59 22 -58 14 0 19 3 13 6 -8 3 -13 24 -13 53 0 37 4 52 18 59
32 17 44 -2 41 -63 -3 -45 -1 -56 11 -56 12 0 14 11 12 48 -5 78 -10 92 -35
92 -13 0 -29 -6 -35 -12 -9 -9 -15 -10 -20 -2 -4 7 -31 12 -60 12 -44 0 -50
-2 -36 -12z"/>
<path d="M8555 308 c-27 -34 -64 -83 -82 -110 -29 -43 -30 -48 -12 -48 13 0
19 7 19 23 1 34 24 57 59 57 25 0 31 -4 31 -22 0 -12 -7 -30 -17 -40 -15 -17
-14 -18 21 -18 33 0 35 2 24 19 -9 14 -9 43 -2 110 5 50 9 91 9 91 0 0 -22
-28 -50 -62z m17 -28 c-5 -33 -16 -45 -32 -35 -11 7 15 65 29 65 4 0 6 -14 3
-30z"/>
<path d="M12409 351 c12 -8 11 -20 -7 -83 -12 -40 -22 -81 -22 -90 0 -9 -8
-22 -17 -28 -14 -9 -2 -10 51 -7 52 4 73 10 83 23 16 22 17 66 2 81 -8 8 -5
17 10 32 12 12 21 27 21 35 0 25 -42 46 -90 46 -30 0 -40 -3 -31 -9z m90 -30
c11 -19 -7 -43 -39 -53 -11 -4 -10 -7 8 -17 15 -8 22 -21 22 -40 0 -34 -18
-51 -56 -54 -36 -3 -41 17 -18 70 17 38 19 47 22 91 2 28 47 31 61 3z"/>
<path d="M10221 311 c-10 -6 -10 -10 -1 -13 18 -6 16 -168 -2 -179 -8 -6 1 -9
27 -9 32 1 36 3 23 11 -15 8 -18 25 -18 104 0 95 -3 103 -29 86z"/>
<path d="M10340 301 c-14 -28 -13 -38 3 -17 19 26 71 18 75 -11 4 -29 -21 -80
-58 -122 -17 -18 -30 -34 -30 -37 0 -2 25 -4 55 -4 44 0 56 4 65 20 9 18 8 18
-19 9 -17 -6 -39 -9 -51 -7 -21 3 -21 4 -3 24 22 25 38 49 60 91 16 31 15 34
-2 53 -24 27 -80 27 -95 1z"/>
<path d="M10580 241 c-17 -33 -12 -96 9 -115 23 -21 50 -15 77 16 l19 21 -25
-15 c-49 -31 -91 19 -68 81 9 25 43 28 56 5 6 -11 11 -13 16 -5 12 19 -4 31
-39 31 -24 0 -38 -6 -45 -19z"/>
<path d="M10705 185 c0 -72 1 -75 23 -75 16 0 21 4 16 12 -13 21 -16 98 -5
112 12 15 5 26 -18 26 -13 0 -16 -13 -16 -75z"/>
<path d="M10772 253 c12 -3 17 -18 20 -64 1 -33 -1 -64 -6 -70 -6 -5 -1 -9 15
-9 25 0 25 2 21 58 -4 62 11 90 44 78 13 -5 16 -18 12 -71 -3 -55 -1 -65 12
-65 14 0 16 10 12 63 -5 77 -20 96 -62 80 -18 -7 -32 -7 -36 -2 -3 5 -15 8
-27 8 -16 -1 -17 -3 -5 -6z"/>
</g>
</svg>
