<?xml version="1.0" standalone="no"?>
<!DOCTYPE svg PUBLIC "-//W3C//DTD SVG 20010904//EN"
 "http://www.w3.org/TR/2001/REC-SVG-20010904/DTD/svg10.dtd">
<svg version="1.0" xmlns="http://www.w3.org/2000/svg"
 width="1495.000000pt" height="755.000000pt" viewBox="0 0 1495.000000 755.000000"
 preserveAspectRatio="xMidYMid meet">
<metadata>
Created by potrace 1.16, written by Peter Selinger 2001-2019
</metadata>
<g transform="translate(0.000000,755.000000) scale(0.100000,-0.100000)"
fill="#000000" stroke="none">
<path d="M14193 7302 c-46 -2 -83 -7 -83 -12 0 -6 11 -10 25 -10 21 0 25 -5
25 -31 0 -53 -22 -123 -53 -166 -17 -24 -28 -45 -25 -48 11 -11 68 73 80 118
12 47 28 63 28 30 0 -10 9 -31 20 -48 11 -16 20 -34 20 -38 0 -4 -25 -20 -56
-34 -30 -14 -53 -27 -50 -30 3 -3 21 2 40 11 19 9 37 16 42 16 4 0 16 7 26 17
16 14 20 14 36 1 26 -22 79 -41 93 -33 7 5 -5 13 -32 22 -24 8 -48 19 -53 24
-6 5 6 31 27 63 38 57 36 71 -8 60 -28 -7 -29 -3 -15 46 5 19 6 37 2 40 -4 3
-44 4 -89 2z m67 -44 c0 -37 -14 -50 -51 -46 -30 3 -34 7 -37 36 -3 32 -3 32
42 32 41 0 46 -2 46 -22z m40 -67 c0 -15 -41 -81 -50 -81 -9 0 -50 66 -50 81
0 5 23 9 50 9 28 0 50 -4 50 -9z"/>
<path d="M9637 7259 c-5 -18 -11 -21 -36 -16 -18 4 -31 2 -31 -3 0 -6 16 -10
35 -10 24 0 35 -5 35 -15 0 -8 5 -15 10 -15 6 0 10 7 10 15 0 8 9 15 20 15 11
0 20 5 20 11 0 6 -9 9 -20 6 -15 -4 -20 0 -20 14 0 26 -16 24 -23 -2z"/>
<path d="M9750 7260 c0 -13 -5 -18 -15 -14 -8 4 -15 1 -15 -5 0 -6 7 -11 15
-11 9 0 12 -6 9 -15 -4 -8 -1 -15 5 -15 6 0 11 7 11 15 0 11 12 15 46 15 40 0
45 2 34 15 -10 12 -16 12 -26 4 -18 -15 -45 -4 -38 16 4 10 0 15 -10 15 -9 0
-16 -8 -16 -20z"/>
<path d="M12630 7262 c-97 -52 -89 -202 11 -202 35 0 79 23 79 41 0 6 -10 3
-22 -5 -32 -23 -85 -21 -98 3 -25 48 3 131 52 157 37 19 64 11 73 -24 7 -25 8
-25 15 -7 17 41 12 50 -33 52 -26 2 -56 -4 -77 -15z"/>
<path d="M13082 7257 c-27 -29 -29 -47 -3 -23 24 22 65 17 69 -7 7 -34 -8 -67
-50 -110 l-41 -42 52 -3 c30 -2 59 2 67 9 21 17 17 31 -5 19 -11 -5 -32 -10
-46 -10 l-26 0 35 43 c47 57 55 98 27 126 -27 27 -52 27 -79 -2z"/>
<path d="M13295 7271 c-38 -16 -58 -49 -63 -106 -4 -44 -1 -60 13 -75 22 -24
58 -26 79 -4 43 43 21 114 -35 114 -27 0 -29 2 -19 21 6 11 26 29 43 39 32 20
20 26 -18 11z m15 -107 c13 -34 13 -47 -3 -68 -19 -25 -44 -10 -52 32 -5 28
-3 39 11 49 25 19 33 16 44 -13z"/>
<path d="M12426 7257 c7 -20 -33 -157 -52 -178 -16 -18 -15 -19 28 -19 66 0
107 17 115 48 3 14 1 33 -5 42 -9 14 -7 22 9 36 21 19 25 54 7 72 -17 17 -109
16 -102 -1z m72 -6 c21 -13 10 -54 -18 -68 -21 -10 -22 -13 -7 -19 24 -9 23
-60 -2 -74 -11 -5 -29 -10 -39 -10 -19 0 -19 3 -9 38 6 20 15 40 20 43 5 4 7
11 4 16 -9 15 12 83 26 83 7 0 18 -4 25 -9z"/>
<path d="M10340 7252 c0 -9 -66 -101 -115 -159 -41 -48 -42 -53 -15 -53 13 0
20 7 20 18 0 26 31 52 62 52 22 0 25 -4 20 -25 -2 -14 -8 -25 -13 -25 -5 0 -9
-4 -9 -8 0 -4 16 -6 36 -4 23 3 31 7 24 12 -13 8 -9 91 7 170 3 19 1 30 -6 30
-6 0 -11 -3 -11 -8z m-14 -78 c-3 -9 -6 -22 -6 -30 0 -8 -9 -14 -20 -14 -20 0
-20 1 -5 30 16 31 42 43 31 14z"/>
<path d="M10445 7239 c7 -21 -32 -171 -47 -180 -19 -12 23 -18 69 -10 63 12
93 57 61 89 -9 9 -7 16 10 32 45 42 22 78 -52 84 -41 3 -46 1 -41 -15z m80
-10 c12 -18 -4 -57 -26 -64 -28 -9 -33 -2 -25 40 5 25 12 35 26 35 10 0 22 -5
25 -11z m-20 -119 c0 -29 -5 -36 -27 -44 -36 -13 -40 -7 -32 43 6 38 9 42 33
39 22 -3 26 -8 26 -38z"/>
<path d="M10924 7245 c-17 -13 -17 -14 -1 -15 15 0 17 -11 17 -78 0 -47 -5
-83 -12 -90 -9 -9 -4 -12 23 -11 18 0 28 3 22 6 -9 3 -13 34 -13 104 0 54 -4
99 -8 99 -5 0 -17 -7 -28 -15z"/>
<path d="M11068 7249 c-22 -12 -23 -47 -3 -76 13 -18 13 -22 0 -33 -18 -15
-20 -61 -3 -78 18 -18 63 -14 81 6 23 25 21 41 -5 69 -20 21 -20 24 -5 41 45
49 -7 105 -65 71z m48 -14 c4 -8 3 -27 0 -41 -6 -21 -9 -24 -21 -14 -15 13
-20 51 -8 63 11 11 23 8 29 -8z m0 -112 c12 -17 19 -53 10 -53 -2 0 -11 -3
-19 -6 -20 -7 -40 30 -32 56 8 25 24 25 41 3z"/>
<path d="M4064 7226 c-3 -8 -4 -22 -2 -32 2 -12 -5 -20 -22 -25 -24 -7 -24 -7
-2 -8 27 -1 27 -13 2 -70 -25 -53 -26 -78 -2 -33 24 45 33 31 26 -45 -4 -43
-3 -63 5 -63 7 0 11 30 11 86 0 76 2 85 15 74 20 -17 19 -1 -2 22 -9 10 -14
20 -12 23 3 2 31 7 62 11 54 6 57 6 57 -16 0 -19 -4 -22 -31 -18 -25 4 -32 1
-40 -19 -14 -37 -11 -43 21 -43 17 0 30 -3 30 -7 0 -4 -19 -27 -42 -50 -23
-24 -37 -43 -30 -43 6 0 29 19 52 42 l40 42 0 -52 c0 -30 4 -52 11 -52 6 0 9
22 8 58 l-3 57 32 3 c23 2 32 -1 32 -12 0 -26 -12 -46 -28 -46 -11 0 -13 -3
-6 -10 18 -18 42 -1 48 33 9 47 5 52 -36 49 -33 -3 -38 -1 -38 17 0 17 6 21
33 21 31 0 33 2 33 36 0 29 -3 34 -18 31 -21 -6 -22 -3 -8 23 6 12 6 21 1 25
-5 3 -16 -7 -23 -22 -17 -36 -45 -42 -50 -11 -2 13 -11 24 -23 26 -16 3 -18 1
-7 -9 17 -18 15 -42 -2 -36 -8 3 -17 3 -20 0 -3 -4 -17 -8 -31 -9 -20 -2 -25
2 -25 21 0 13 5 25 12 27 7 3 5 7 -5 11 -11 4 -20 1 -23 -7z m196 -76 c0 -13
-7 -20 -20 -20 -13 0 -20 7 -20 20 0 13 7 20 20 20 13 0 20 -7 20 -20z m-60
-50 c0 -16 -7 -20 -30 -20 -18 0 -30 5 -30 13 0 20 10 27 37 27 16 0 23 -6 23
-20z"/>
<path d="M4586 7214 c-10 -14 -31 -34 -49 -44 -34 -21 -16 -27 20 -7 29 16 66
64 54 71 -5 3 -16 -6 -25 -20z"/>
<path d="M6715 7230 c-44 -3 -67 -7 -52 -8 29 -2 29 -2 22 -54 -9 -74 -32
-143 -55 -163 -24 -22 -27 -43 -4 -24 26 21 61 81 69 117 7 35 25 44 25 13 0
-11 12 -33 26 -50 l26 -31 -64 -30 c-34 -16 -55 -30 -46 -30 20 0 91 31 96 43
6 12 30 8 64 -13 34 -21 68 -26 68 -11 0 5 -12 11 -27 14 -16 3 -37 12 -48 20
-18 14 -18 17 -4 34 27 31 58 92 51 97 -12 7 -35 -11 -29 -21 7 -11 -39 -83
-53 -83 -10 0 -50 62 -50 78 0 6 8 13 18 15 9 3 2 5 -15 6 -31 1 -33 3 -33 36
l0 35 49 0 c49 0 50 0 41 -27 -15 -52 -15 -58 -1 -58 8 0 15 9 16 20 1 11 5
35 9 53 6 24 4 32 -6 30 -7 -1 -49 -5 -93 -8z"/>
<path d="M8423 7232 c-19 -12 -34 -61 -27 -88 8 -29 37 -47 64 -39 41 13 10
-36 -46 -73 -17 -11 -16 -12 11 -7 60 13 107 97 90 162 -11 43 -58 67 -92 45z
m58 -29 c5 -15 9 -38 7 -52 -2 -20 -9 -26 -28 -26 -32 0 -49 42 -32 80 15 33
40 32 53 -2z"/>
<path d="M8566 7216 c-21 -34 -21 -119 1 -157 13 -21 25 -29 45 -29 85 0 87
200 2 208 -24 2 -35 -3 -48 -22z m63 0 c20 -24 24 -99 8 -139 -28 -66 -57 -36
-57 58 0 79 21 115 49 81z"/>
<path d="M8723 7232 c-26 -17 -19 -70 11 -78 36 -9 66 12 66 45 0 36 -43 55
-77 33z m45 -11 c21 -13 10 -46 -16 -49 -17 -3 -22 1 -22 21 0 35 13 45 38 28z"/>
<path d="M3380 7222 c0 -4 5 -14 10 -22 7 -11 4 -17 -13 -22 -19 -5 -17 -6 9
-7 17 -1 33 -4 36 -7 11 -10 -14 -79 -48 -130 -19 -28 -34 -54 -34 -58 0 -14
22 7 46 45 l24 39 85 0 c83 0 85 -1 85 -24 0 -40 -11 -56 -38 -56 -25 0 -25
-1 -6 -15 10 -8 21 -15 24 -15 11 0 38 56 44 93 6 33 5 37 -14 37 -15 0 -20 6
-20 29 0 24 -3 28 -20 24 -18 -5 -19 -2 -14 26 l6 31 -47 -7 -48 -6 7 26 c4
16 2 27 -4 27 -5 0 -10 -11 -10 -25 0 -29 -20 -34 -27 -6 -5 19 -33 38 -33 23z
m140 -72 c0 -17 -7 -20 -40 -20 -27 0 -40 4 -40 13 0 21 11 27 47 27 26 0 33
-4 33 -20z m30 -50 c0 -18 -7 -20 -66 -20 -79 0 -85 22 -8 31 27 3 55 7 62 7
6 1 12 -7 12 -18z"/>
<path d="M4430 7221 c-50 -5 -60 -8 -42 -14 18 -7 22 -16 22 -48 0 -32 -3 -39
-20 -39 -11 0 -20 -5 -20 -11 0 -6 9 -8 21 -4 21 7 21 5 15 -41 -4 -27 -14
-59 -22 -71 -21 -33 -17 -49 6 -22 11 13 25 50 32 82 9 44 16 57 30 57 16 0
18 -10 19 -82 1 -98 17 -80 18 20 1 56 3 62 22 62 11 0 17 5 14 10 -4 6 -14 9
-23 8 -10 -2 -16 3 -16 15 1 9 2 26 3 37 0 11 8 20 17 20 16 0 15 23 -2 25 -5
1 -38 -1 -74 -4z m40 -61 c0 -33 -3 -40 -20 -40 -17 0 -20 7 -20 40 0 33 3 40
20 40 17 0 20 -7 20 -40z"/>
<path d="M4778 7105 l-3 -120 -27 0 c-16 1 -28 -3 -28 -7 0 -4 61 -8 135 -8
90 0 135 4 135 11 0 7 -11 8 -31 4 l-31 -7 4 124 3 123 -77 0 -77 0 -3 -120z
m130 73 c-3 -28 -7 -32 -33 -35 -57 -4 -75 5 -75 37 0 30 1 30 56 30 l55 0 -3
-32z m0 -80 c-3 -31 -5 -33 -53 -39 l-50 -6 53 -1 52 -2 0 -35 0 -35 -55 0
-55 0 0 75 0 75 56 0 55 0 -3 -32z"/>
<path d="M5771 7128 c-18 -57 -35 -109 -38 -115 -3 -7 0 -13 6 -13 5 0 14 15
20 33 5 17 21 65 35 104 28 78 31 93 18 93 -5 0 -23 -46 -41 -102z"/>
<path d="M5883 7204 c-30 -77 -64 -196 -59 -201 3 -4 8 -4 10 -2 9 11 67 210
64 221 -2 6 -9 -2 -15 -18z"/>
<path d="M7338 7158 c-36 -40 -81 -88 -98 -105 l-32 -33 101 0 c55 0 101 4
101 8 0 5 -34 7 -75 4 -41 -2 -75 0 -75 4 0 5 32 43 70 84 72 77 97 110 82
110 -4 0 -38 -33 -74 -72z"/>
<path d="M7575 7174 c-45 -62 -89 -123 -105 -141 -8 -10 -6 -13 7 -13 10 0 25
15 34 33 20 42 69 52 69 15 0 -13 -5 -29 -12 -36 -9 -9 -3 -12 28 -12 26 0 35
3 25 9 -11 7 -13 25 -8 83 4 40 10 83 13 96 11 38 -10 24 -51 -34z m15 -34 c0
-28 -22 -51 -36 -37 -6 5 23 67 31 67 3 0 5 -14 5 -30z"/>
<path d="M7714 7200 c-1 -32 -29 -134 -45 -162 -8 -16 -4 -18 41 -18 41 0 56
5 75 25 28 27 30 37 15 65 -8 15 -6 24 10 40 40 40 13 80 -53 80 -40 0 -42 -2
-43 -30z m81 0 c8 -24 -11 -60 -30 -60 -19 0 -19 -16 0 -24 27 -10 18 -54 -15
-71 -17 -9 -35 -13 -40 -10 -7 4 7 70 36 168 7 23 41 22 49 -3z"/>
<path d="M7904 7221 c8 -13 -30 -169 -46 -188 -12 -15 -6 -16 53 -11 101 8
145 48 143 131 -2 56 -29 77 -101 77 -30 0 -52 -4 -49 -9z m112 -26 c36 -55
-12 -155 -76 -155 -53 0 -51 -7 -18 108 20 67 24 72 50 72 18 0 33 -8 44 -25z"/>
<path d="M1480 7184 l0 -37 -52 6 -53 5 2 -66 c1 -37 2 -69 2 -71 1 -3 6 0 13
7 7 7 29 12 50 12 l38 0 0 -55 c0 -30 5 -55 10 -55 6 0 10 25 10 55 l0 55 53
0 52 0 0 59 0 59 -54 -6 -54 -5 7 36 c6 30 4 37 -9 37 -11 0 -15 -10 -15 -36z
m0 -89 l0 -45 -40 0 -40 0 0 45 0 45 40 0 40 0 0 -45z m108 -3 l3 -43 -43 3
-43 3 -3 43 -3 43 43 -3 43 -3 3 -43z"/>
<path d="M5419 7118 c-87 -120 -86 -118 -60 -118 14 0 21 8 23 28 2 17 12 31
26 37 12 5 20 15 18 22 -3 7 6 25 20 40 l25 28 -6 -30 c-4 -16 -12 -33 -18
-37 -9 -6 -9 -8 1 -8 18 0 15 -40 -5 -62 -15 -17 -14 -18 20 -18 34 0 48 12
29 24 -4 2 -4 46 -1 98 4 51 6 94 5 95 -2 2 -36 -43 -77 -99z"/>
<path d="M5589 7206 c8 -10 9 -25 2 -52 -6 -22 -16 -60 -22 -86 -7 -29 -18
-48 -26 -48 -8 0 -11 -4 -8 -10 12 -19 90 -11 126 13 40 27 47 51 24 77 -16
17 -15 19 4 30 28 14 27 55 -1 74 -12 9 -42 16 -66 16 -37 0 -42 -2 -33 -14z
m89 -35 c4 -27 -20 -51 -51 -51 -16 0 -18 5 -12 33 10 44 14 49 38 45 15 -2
23 -11 25 -27z m-14 -83 c14 -23 -2 -50 -37 -62 -35 -13 -40 -5 -32 44 6 37
10 41 32 38 15 -2 31 -11 37 -20z"/>
<path d="M5969 7206 c13 -16 -11 -134 -35 -173 -8 -12 -14 -24 -14 -26 0 -7
127 11 147 22 57 30 73 122 28 166 -20 21 -34 25 -81 25 -47 0 -55 -2 -45 -14z
m120 -40 c10 -22 11 -37 2 -66 -14 -46 -36 -66 -83 -75 -35 -7 -38 -5 -38 15
0 12 10 53 23 91 21 67 23 70 52 67 22 -2 34 -11 44 -32z"/>
<path d="M6177 7201 c-24 -25 -40 -85 -32 -122 15 -66 109 -93 155 -44 25 26
18 35 -9 11 -17 -15 -33 -19 -69 -17 -45 2 -67 114 -31 157 6 8 29 14 50 14
32 0 41 -5 53 -27 l15 -28 1 38 0 37 -57 -1 c-42 0 -63 -5 -76 -18z"/>
<path d="M13450 7193 c-16 -20 -20 -36 -16 -57 7 -35 33 -66 55 -66 25 0 61
29 61 48 -1 16 -2 16 -14 0 -7 -10 -25 -18 -39 -18 -22 0 -27 6 -33 35 -10 54
24 85 52 48 16 -22 28 -12 19 16 -10 32 -58 28 -85 -6z"/>
<path d="M13570 7210 c-11 -7 -12 -10 -2 -10 10 0 13 -16 10 -65 -3 -59 -1
-65 17 -65 20 0 22 18 15 143 0 10 -22 9 -40 -3z"/>
<path d="M13635 7210 c-3 -5 1 -10 10 -10 14 0 16 -10 13 -64 -3 -59 -1 -64
18 -64 19 0 20 5 16 55 -5 56 4 72 36 73 10 0 13 -15 10 -60 -1 -33 0 -60 4
-60 3 0 14 -3 23 -6 13 -5 15 -2 11 17 -3 13 -8 46 -11 72 -7 53 -25 68 -58
48 -14 -9 -22 -10 -30 -2 -14 14 -34 14 -42 1z"/>
<path d="M1021 7064 c0 -123 2 -135 17 -128 26 12 205 13 220 2 9 -8 12 15 12
110 0 66 3 127 6 136 5 14 -10 16 -125 16 l-131 0 1 -136z m226 113 c2 -3 7
-53 10 -111 l6 -107 -109 3 -109 3 -2 100 c-2 55 -1 106 2 114 4 10 26 12 101
8 53 -3 98 -8 101 -10z"/>
<path d="M1090 7145 c0 -16 6 -25 16 -25 11 0 14 6 9 20 -6 18 -2 20 30 20 32
0 37 -3 32 -20 -3 -12 0 -20 7 -20 19 0 24 9 19 31 -4 16 -14 19 -59 19 -51 0
-54 -1 -54 -25z"/>
<path d="M1130 7116 c0 -8 -6 -17 -12 -19 -7 -3 15 -6 49 -6 34 -1 64 3 68 8
3 6 -13 9 -37 8 -30 -1 -42 2 -40 11 1 6 -5 12 -13 12 -8 0 -15 -6 -15 -14z"/>
<path d="M1068 7040 l3 -65 75 0 74 0 0 53 0 52 -71 0 c-57 0 -69 3 -61 13 8
9 7 13 -6 13 -15 0 -17 -10 -14 -66z m132 -10 l0 -40 -55 0 -55 0 0 40 0 40
55 0 55 0 0 -40z"/>
<path d="M1143 7053 c-27 -3 -33 -9 -33 -28 0 -20 5 -23 35 -22 31 1 35 4 35
29 0 15 -1 27 -2 26 -2 0 -18 -3 -35 -5z m27 -23 c0 -5 -9 -10 -20 -10 -11 0
-20 5 -20 10 0 6 9 10 20 10 11 0 20 -4 20 -10z"/>
<path d="M2335 7103 c-38 -54 -72 -99 -77 -101 -16 -7 -8 -22 12 -22 12 0 20
7 20 18 1 28 25 52 54 52 28 0 34 -17 16 -51 -9 -17 -7 -19 17 -19 l28 0 0
110 c0 61 0 110 0 110 -1 0 -32 -44 -70 -97z m36 -16 c-6 -15 -17 -27 -26 -27
-21 0 -19 12 7 45 25 31 34 22 19 -18z"/>
<path d="M2508 7174 c5 -27 -36 -166 -52 -176 -23 -15 98 -12 126 3 31 17 41
48 24 73 -13 21 -13 24 5 39 22 20 25 50 5 66 -7 6 -36 13 -63 14 -47 3 -49 2
-45 -19z m81 -3 c22 -14 5 -60 -25 -67 -32 -8 -35 -5 -27 39 6 38 22 47 52 28z
m-11 -98 c18 -34 -12 -73 -55 -73 -26 0 -27 2 -12 53 8 30 15 37 34 37 13 0
28 -8 33 -17z"/>
<path d="M2713 7180 c-60 -36 -84 -129 -43 -170 27 -27 99 -27 131 0 28 22 13
27 -17 5 -25 -19 -69 -19 -88 1 -20 19 -21 76 -2 113 19 35 57 61 91 61 20 0
27 -6 31 -30 8 -36 20 -31 26 10 l5 30 -51 0 c-33 0 -62 -7 -83 -20z"/>
<path d="M2899 7191 c9 -6 12 -18 8 -32 -3 -13 -13 -54 -22 -91 -11 -44 -22
-68 -33 -71 -10 -3 13 -5 49 -6 58 -1 71 2 107 29 30 21 43 39 48 64 8 46 -7
88 -37 103 -28 15 -142 18 -120 4z m94 -13 c50 -24 47 -112 -5 -151 -32 -24
-95 -29 -89 -7 10 42 43 155 47 162 7 11 15 10 47 -4z"/>
<path d="M9673 7180 c-4 -17 -15 -20 -62 -22 l-56 -2 48 -3 c34 -3 47 -8 47
-20 0 -15 -67 -83 -82 -83 -4 0 -8 -4 -8 -10 0 -16 14 -12 42 15 15 14 30 25
33 25 3 0 5 -18 5 -40 l0 -40 88 3 87 3 2 47 2 47 -79 0 c-44 0 -80 3 -80 6 0
3 5 14 11 25 9 18 19 20 87 18 42 -2 79 1 82 6 3 6 -26 8 -73 6 -76 -3 -79 -2
-72 18 4 13 2 21 -5 21 -7 0 -14 -9 -17 -20z m100 -99 c12 -1 17 -10 17 -31
l0 -30 -65 0 c-65 0 -65 0 -65 28 0 43 -3 42 113 33z"/>
<path d="M11280 7180 c-37 -37 -13 -130 34 -130 25 0 56 28 56 51 -1 10 -3 9
-11 -3 -12 -21 -40 -23 -57 -6 -17 17 -15 73 4 89 14 11 18 10 33 -9 19 -26
35 -19 20 9 -13 25 -54 24 -79 -1z"/>
<path d="M11402 7193 c-10 -4 -10 -8 -1 -19 7 -9 10 -35 7 -69 -4 -46 -2 -55
12 -55 14 0 16 8 12 53 -4 57 12 85 44 73 12 -5 15 -18 13 -63 -2 -47 0 -59
14 -61 13 -3 17 8 19 60 3 55 5 63 23 63 18 0 20 -7 21 -60 1 -33 4 -59 8 -57
3 1 12 2 19 2 8 0 11 17 9 59 -4 73 -19 90 -65 73 -24 -9 -33 -9 -39 0 -5 10
-14 10 -38 1 -16 -6 -30 -7 -30 -2 0 10 -8 10 -28 2z"/>
<path d="M196 7175 c-11 -8 -14 -15 -8 -15 17 0 16 -162 0 -178 -9 -9 -3 -12
27 -12 30 0 36 3 27 12 -8 8 -12 47 -12 110 0 54 -3 98 -7 98 -5 0 -17 -7 -27
-15z"/>
<path d="M11890 7182 c0 -10 43 -52 53 -52 17 0 5 29 -18 44 -27 18 -35 20
-35 8z"/>
<path d="M12840 7180 c0 -6 32 -10 75 -10 43 0 75 4 75 10 0 6 -32 10 -75 10
-43 0 -75 -4 -75 -10z"/>
<path d="M316 7158 c-33 -47 -4 -118 44 -105 37 10 16 -43 -28 -68 l-27 -16
30 6 c40 9 62 30 76 74 16 45 13 78 -6 108 -20 31 -68 31 -89 1z m69 -18 c20
-39 19 -57 -6 -70 -17 -9 -23 -8 -35 7 -17 22 -18 65 -2 81 18 18 26 15 43
-18z"/>
<path d="M10660 7160 c0 -6 32 -10 75 -10 43 0 75 4 75 10 0 6 -32 10 -75 10
-43 0 -75 -4 -75 -10z"/>
<path d="M4589 7131 c-9 -15 -31 -34 -48 -42 -28 -13 -42 -30 -23 -29 19 1
122 80 122 95 0 17 -38 0 -51 -24z"/>
<path d="M9102 7133 c3 -32 37 -43 57 -20 18 23 3 47 -31 47 -26 0 -29 -3 -26
-27z m46 0 c-5 -25 -28 -28 -28 -4 0 12 6 21 16 21 9 0 14 -7 12 -17z"/>
<path d="M8150 7138 c0 -5 34 -8 75 -8 41 0 75 4 75 10 0 5 -33 8 -75 7 -41
-1 -75 -5 -75 -9z"/>
<path d="M12840 7120 c0 -6 32 -10 75 -10 43 0 75 4 75 10 0 6 -32 10 -75 10
-43 0 -75 -4 -75 -10z"/>
<path d="M3808 7112 c-177 -4 -166 -22 13 -22 104 0 140 3 137 12 -5 15 3 14
-150 10z"/>
<path d="M1810 7102 c0 -4 5 -13 12 -20 8 -8 8 -15 -3 -28 -12 -14 -11 -16 6
-13 14 3 21 14 23 37 3 27 0 32 -17 32 -12 0 -21 -4 -21 -8z"/>
<path d="M10660 7100 c0 -6 32 -10 75 -10 43 0 75 4 75 10 0 6 -32 10 -75 10
-43 0 -75 -4 -75 -10z"/>
<path d="M4602 7046 c-17 -24 -48 -51 -68 -61 -19 -9 -33 -19 -31 -22 3 -2 21
3 40 12 45 21 113 93 100 106 -6 6 -21 -7 -41 -35z"/>
<path d="M8150 7080 c0 -6 32 -10 75 -10 43 0 75 4 75 10 0 6 -32 10 -75 10
-43 0 -75 -4 -75 -10z"/>
<path d="M3543 7025 c7 -13 14 -20 15 -14 5 14 -6 39 -17 39 -5 0 -4 -11 2
-25z"/>
<path d="M3450 7013 c0 -18 5 -33 10 -33 13 0 13 30 0 50 -7 11 -10 7 -10 -17z"/>
<path d="M3493 7027 c4 -10 7 -23 7 -28 0 -5 5 -9 10 -9 16 0 12 26 -7 41 -15
12 -16 12 -10 -4z"/>
<path d="M3410 7020 c0 -7 -7 -22 -17 -32 -15 -17 -15 -18 0 -18 17 0 35 45
23 57 -3 4 -6 0 -6 -7z"/>
<path d="M460 6985 c0 -8 7 -15 15 -15 8 0 15 7 15 15 0 8 -7 15 -15 15 -8 0
-15 -7 -15 -15z"/>
<path d="M5372 6770 c-8 -21 -16 -28 -26 -24 -14 5 -16 -8 -16 -100 0 -64 4
-106 10 -106 6 0 10 5 10 10 0 15 67 12 73 -2 3 -7 6 16 7 52 1 36 3 84 4 107
2 41 1 42 -26 36 -27 -5 -39 9 -18 22 12 8 13 35 1 35 -5 0 -14 -13 -19 -30z
m46 -72 c-3 -29 -7 -33 -35 -36 -30 -3 -33 -1 -33 26 0 16 3 32 7 35 3 4 19 7
35 7 27 0 29 -3 26 -32z m2 -83 c0 -33 -2 -35 -35 -35 -33 0 -35 2 -35 35 0
33 2 35 35 35 33 0 35 -2 35 -35z"/>
<path d="M5466 6750 c-19 -54 -15 -81 5 -36 10 22 18 26 56 26 l43 0 -1 -67
c-1 -38 -4 -81 -8 -98 -6 -26 -10 -30 -36 -27 -29 3 -29 3 -10 -12 11 -8 26
-16 33 -16 22 0 40 61 43 150 l4 85 -53 -3 c-53 -4 -53 -4 -46 22 11 46 -11
28 -30 -24z"/>
<path d="M5905 6790 c-3 -6 -60 -11 -128 -12 -67 -1 -94 -3 -59 -5 65 -4 70
-8 48 -38 -10 -14 -21 -17 -50 -12 l-36 6 0 -97 0 -97 120 0 120 0 0 82 c0 45
3 89 6 98 6 14 -1 15 -65 9 -72 -6 -78 -4 -65 30 5 12 21 16 70 16 50 0 64 3
64 15 0 17 -16 20 -25 5z m-164 -97 c0 -10 2 -36 5 -58 6 -57 -3 -85 -26 -85
-18 0 -20 7 -20 73 0 41 3 77 7 80 13 13 33 7 34 -10z m89 -3 c0 -16 -7 -20
-35 -20 -28 0 -35 4 -35 20 0 16 7 20 35 20 28 0 35 -4 35 -20z m68 -57 c-3
-72 -5 -78 -25 -81 -22 -3 -23 -1 -23 77 0 80 0 81 25 81 26 0 26 0 23 -77z
m-68 7 c0 -16 -7 -20 -35 -20 -28 0 -35 4 -35 20 0 16 7 20 35 20 28 0 35 -4
35 -20z m0 -60 c0 -27 -3 -30 -30 -30 -32 0 -47 18 -36 45 3 9 18 15 36 15 27
0 30 -3 30 -30z"/>
<path d="M6040 6784 c-19 -7 -27 -13 -17 -13 25 -1 23 -41 -3 -41 -11 0 -20
-4 -20 -9 0 -5 8 -8 18 -7 20 1 18 -33 -5 -77 -8 -16 -12 -34 -10 -40 3 -7 8
0 12 16 12 46 25 30 25 -33 0 -36 4 -60 11 -60 7 0 9 26 7 75 -3 77 -1 84 20
63 8 -8 12 -8 12 -1 0 6 -7 16 -15 23 -8 7 -15 19 -15 26 0 16 26 19 35 4 9
-14 185 -13 185 1 0 6 -17 9 -42 7 -26 -1 -41 1 -38 7 3 6 18 9 34 7 23 -3 28
0 23 12 -4 9 -2 16 3 16 6 0 10 5 10 10 0 6 -14 10 -32 10 -30 0 -31 -1 -12
-15 18 -14 18 -14 -7 -15 -23 0 -26 3 -21 25 3 18 0 25 -12 25 -10 0 -16 -9
-16 -25 0 -21 -5 -25 -31 -25 -37 0 -29 -20 9 -21 l27 -1 -25 -7 c-35 -10 -90
10 -90 32 0 10 7 20 15 23 15 6 21 25 8 23 -5 -1 -24 -7 -43 -15z"/>
<path d="M3336 6783 c-3 -3 -6 -15 -6 -25 0 -16 -9 -18 -65 -18 -41 0 -65 -4
-65 -11 0 -8 21 -10 65 -7 l65 4 0 -93 0 -93 -27 0 -28 -1 28 -15 c15 -8 32
-12 37 -9 6 3 10 31 10 62 l0 56 33 -35 c38 -41 73 -62 89 -52 7 4 0 13 -19
23 -43 24 -71 45 -75 59 -2 6 13 20 31 30 19 10 37 24 39 30 6 20 -16 13 -44
-13 -39 -37 -54 -32 -54 15 l0 40 65 0 c40 0 65 4 65 11 0 6 -11 8 -29 4 -23
-5 -29 -2 -34 14 -5 21 -27 30 -27 11 0 -5 5 -10 10 -10 6 0 10 -4 10 -10 0
-5 -14 -10 -31 -10 -26 0 -31 3 -26 20 5 20 -5 35 -17 23z"/>
<path d="M3580 6760 c0 -24 -4 -30 -22 -31 -17 -1 -19 -2 -5 -6 22 -6 22 -34
-3 -85 -23 -48 -23 -48 -10 -48 5 0 12 11 16 25 12 48 24 25 24 -45 0 -44 4
-70 11 -70 7 0 10 28 8 85 -4 77 2 106 14 73 2 -7 8 -10 12 -6 5 5 0 17 -10
28 -20 22 -20 22 10 38 19 11 19 11 -4 12 -21 0 -23 3 -17 30 4 22 2 30 -9 30
-10 0 -15 -10 -15 -30z"/>
<path d="M3670 6786 c0 -4 5 -16 10 -27 9 -16 7 -19 -10 -19 -13 0 -18 -4 -14
-11 3 -6 17 -8 30 -5 20 5 24 3 24 -16 0 -19 -5 -23 -32 -23 -30 0 -33 -3 -36
-32 -3 -30 -1 -33 24 -33 l26 0 -18 -27 c-9 -15 -27 -35 -38 -45 -12 -10 -16
-17 -9 -18 7 0 28 16 48 37 37 38 38 38 35 -19 -1 -26 3 -38 12 -38 10 0 12
14 10 55 l-4 55 35 0 c34 0 35 -1 28 -27 -6 -20 -13 -27 -27 -25 -18 3 -18 3
-2 -14 22 -22 34 -12 53 42 l13 39 -49 3 c-35 2 -49 7 -49 18 0 9 11 14 35 14
34 0 35 1 35 39 0 36 -2 39 -22 33 -22 -5 -22 -4 -5 15 9 11 14 23 10 26 -12
12 -20 8 -31 -18 -7 -15 -20 -25 -32 -25 -12 0 -19 4 -16 9 3 4 -3 16 -14 26
-11 10 -20 15 -20 11z m110 -76 c0 -15 -7 -20 -25 -20 -24 0 -34 18 -18 33 15
15 43 7 43 -13z m-70 -55 c0 -9 -9 -15 -25 -15 -16 0 -25 6 -25 15 0 9 9 15
25 15 16 0 25 -6 25 -15z"/>
<path d="M4005 6780 c-3 -5 -32 -11 -63 -11 -31 -1 -49 -3 -39 -6 13 -3 17
-15 17 -49 0 -41 -2 -45 -20 -39 -11 4 -20 2 -20 -4 0 -6 9 -11 21 -11 19 0
20 -4 14 -42 -4 -24 -13 -56 -21 -72 -8 -16 -12 -31 -10 -34 10 -9 46 64 52
105 5 33 11 43 25 43 17 0 19 -8 19 -75 0 -43 4 -75 10 -75 6 0 10 33 10 80 0
73 2 80 20 80 11 0 20 5 20 11 0 6 -9 8 -20 4 -18 -6 -20 -2 -20 34 0 30 4 41
15 41 8 0 15 4 15 9 0 15 -18 23 -25 11z m-25 -65 c0 -38 -3 -45 -20 -45 -17
0 -20 7 -20 45 0 38 3 45 20 45 17 0 20 -7 20 -45z"/>
<path d="M4085 6756 c-16 -18 -37 -35 -45 -38 -8 -3 -12 -8 -8 -12 7 -9 54 19
84 51 20 19 21 34 5 32 -3 0 -19 -15 -36 -33z"/>
<path d="M4486 6741 c-9 -16 -21 -35 -29 -43 -7 -7 -24 -29 -37 -48 -13 -19
-27 -37 -30 -40 -3 -3 -14 -15 -24 -27 -19 -23 -19 -23 6 -23 20 0 27 6 31 30
5 21 14 31 32 36 36 9 47 -6 30 -39 -14 -27 -14 -27 21 -27 30 0 33 2 23 18
-8 13 -9 42 -2 101 10 88 3 109 -21 62z m-6 -71 c0 -23 -4 -30 -20 -30 -24 0
-25 4 -4 35 21 32 24 31 24 -5z"/>
<path d="M4608 6762 c11 -7 8 -26 -12 -97 -13 -48 -30 -92 -38 -96 -8 -5 10
-9 47 -9 83 0 110 21 102 78 -3 29 -1 45 9 53 16 13 19 55 4 64 -17 11 -127
18 -112 7z m92 -37 c0 -18 -10 -31 -31 -44 -31 -19 -31 -19 -8 -23 29 -4 37
-39 14 -62 -16 -16 -75 -23 -75 -8 0 7 23 78 43 135 13 37 57 39 57 2z"/>
<path d="M4795 6737 c-59 -59 -56 -145 6 -171 17 -7 41 -11 54 -8 25 4 70 41
61 49 -3 3 -12 -2 -21 -11 -25 -24 -91 -21 -106 5 -19 36 -2 104 32 134 47 39
99 29 99 -18 0 -28 17 -11 22 23 l5 30 -60 0 c-54 0 -62 -3 -92 -33z"/>
<path d="M4999 6761 c8 -5 12 -18 8 -32 -18 -77 -38 -133 -53 -150 -17 -18
-15 -19 40 -19 73 0 127 27 150 74 9 18 16 41 16 50 0 28 -22 64 -47 75 -29
13 -135 15 -114 2z m95 -11 c44 -16 45 -90 2 -143 -18 -23 -96 -36 -96 -17 0
14 39 150 47 163 6 9 17 9 47 -3z"/>
<path d="M6118 6763 c6 -2 18 -2 25 0 6 3 1 5 -13 5 -14 0 -19 -2 -12 -5z"/>
<path d="M1170 6659 c-36 -50 -74 -97 -85 -105 -11 -8 -14 -14 -8 -14 6 0 18
-3 27 -6 11 -4 16 0 16 14 0 28 26 52 56 52 19 0 24 -5 24 -25 0 -14 -4 -25
-10 -25 -24 0 -7 -17 18 -18 l27 0 2 109 c1 60 1 109 0 109 -1 -1 -31 -42 -67
-91z m40 -3 c0 -25 -12 -46 -26 -46 -17 0 -18 14 -4 41 12 22 30 25 30 5z"/>
<path d="M1335 6731 c7 -22 -33 -173 -48 -183 -20 -13 60 -20 101 -8 76 20
116 83 98 153 -7 31 -60 57 -116 57 -36 0 -41 -2 -35 -19z m110 -18 c25 -24
16 -102 -14 -132 -26 -26 -101 -42 -101 -21 0 14 39 150 47 163 8 13 51 7 68
-10z"/>
<path d="M1858 6739 c-10 -5 -18 -17 -18 -25 0 -12 3 -12 24 1 23 15 25 15 36
-4 12 -23 1 -55 -22 -64 -9 -4 -8 -6 2 -6 21 -1 42 -38 35 -62 -6 -19 -19 -23
-64 -19 -14 1 -21 -2 -17 -9 12 -18 65 -12 86 9 21 21 27 74 10 85 -6 4 -8 21
-4 41 10 54 -23 80 -68 53z"/>
<path d="M2011 6724 c-15 -19 -21 -41 -21 -75 0 -66 14 -97 46 -105 42 -11 74
32 74 98 0 94 -54 139 -99 82z m63 -16 c11 -43 6 -124 -9 -144 -15 -19 -15
-19 -30 0 -8 11 -15 27 -16 35 0 9 -2 27 -3 40 -2 14 2 40 7 58 12 38 42 45
51 11z"/>
<path d="M4112 6695 c-6 -14 -27 -33 -47 -42 -30 -14 -47 -33 -30 -33 19 0
115 77 115 92 0 18 -28 6 -38 -17z"/>
<path d="M3262 6669 c12 -16 24 -25 26 -19 4 12 -26 50 -40 50 -5 0 2 -14 14
-31z"/>
<path d="M6444 6685 c-10 -25 4 -45 30 -45 27 0 42 26 25 46 -15 19 -48 18
-55 -1z m44 -18 c2 -10 -3 -17 -12 -17 -18 0 -29 16 -21 31 9 14 29 6 33 -14z"/>
<path d="M2240 6670 c-40 -40 -12 -130 40 -130 20 0 50 31 50 51 -1 10 -3 9
-11 -3 -12 -22 -42 -23 -58 -4 -19 23 -10 80 13 84 10 2 23 -3 28 -12 13 -24
30 -9 18 15 -14 25 -54 25 -80 -1z"/>
<path d="M2356 6682 c-2 -4 -1 -13 3 -20 4 -6 4 -37 1 -67 -6 -51 -5 -55 15
-55 18 0 20 6 20 56 0 43 4 59 18 68 27 17 39 -9 33 -71 -4 -48 -3 -53 16 -53
18 0 19 4 13 49 -7 51 9 81 42 81 12 0 14 -12 11 -60 -2 -43 1 -61 10 -65 24
-9 28 2 22 64 -7 76 -19 90 -63 73 -20 -8 -33 -9 -35 -2 -5 14 -35 13 -51 -2
-11 -10 -14 -10 -18 0 -5 13 -29 16 -37 4z"/>
<path d="M2867 6675 c-4 -8 -2 -17 3 -20 7 -4 6 -13 0 -26 -7 -12 -7 -19 -1
-19 19 0 33 38 21 60 -13 24 -16 25 -23 5z"/>
<path d="M5486 6681 c-3 -5 1 -14 9 -21 8 -7 15 -19 15 -26 0 -8 7 -14 15 -14
21 0 19 7 -9 41 -14 16 -27 25 -30 20z"/>
<path d="M6120 6636 c0 -44 3 -55 17 -58 13 -2 9 -9 -17 -25 -19 -13 -29 -23
-21 -23 18 0 81 39 81 51 0 12 37 12 44 0 4 -5 0 -11 -6 -14 -7 -2 1 -11 19
-20 42 -22 50 -21 28 3 -14 16 -18 34 -16 80 l2 60 -65 0 -66 0 0 -54z m93 27
c-13 -2 -35 -2 -50 0 -16 2 -5 4 22 4 28 0 40 -2 28 -4z m13 -38 c-1 -23 -5
-25 -46 -25 -33 0 -41 3 -30 10 10 6 11 10 3 10 -7 0 -13 7 -13 15 0 11 12 15
44 15 41 0 44 -2 42 -25z"/>
<path d="M1590 6650 c0 -6 32 -10 75 -10 43 0 75 4 75 10 0 6 -32 10 -75 10
-43 0 -75 -4 -75 -10z"/>
<path d="M4140 6641 c0 -17 -61 -81 -92 -97 -17 -9 -28 -18 -25 -20 10 -10 72
28 105 64 34 38 38 47 22 57 -5 3 -10 2 -10 -4z"/>
<path d="M3275 6605 c-16 -13 -36 -24 -42 -25 -7 0 -13 -9 -13 -21 0 -18 5
-16 45 17 25 20 45 40 45 45 0 13 -1 12 -35 -16z"/>
<path d="M1590 6590 c0 -6 32 -10 75 -10 43 0 75 4 75 10 0 6 -32 10 -75 10
-43 0 -75 -4 -75 -10z"/>
<path d="M8390 6443 c-8 -16 -13 -45 -11 -65 2 -33 0 -38 -18 -38 -25 0 -26 3
-4 37 34 52 -6 16 -55 -49 -49 -65 -50 -68 -27 -68 16 0 23 5 19 13 -7 20 19
46 51 49 27 3 30 0 27 -22 -1 -13 -8 -28 -15 -32 -7 -4 5 -7 28 -7 22 0 34 3
28 6 -12 4 -11 90 2 176 3 15 1 27 -4 27 -4 0 -14 -12 -21 -27z"/>
<path d="M8449 6248 c-4 -54 3 -3158 7 -3174 4 -14 32 -34 89 -63 47 -22 88
-41 93 -41 8 0 141 -55 217 -89 22 -10 65 -28 95 -41 30 -12 84 -35 120 -50
123 -55 535 -232 580 -250 74 -30 278 -118 392 -171 59 -27 112 -49 117 -49 5
0 35 -13 67 -29 33 -16 91 -41 129 -56 39 -15 95 -39 125 -53 30 -13 91 -39
135 -57 44 -18 109 -46 145 -63 36 -16 88 -39 115 -50 28 -11 84 -37 126 -56
42 -20 80 -36 83 -36 4 0 32 -11 62 -25 30 -14 57 -25 60 -25 3 0 33 -13 67
-29 34 -16 91 -41 127 -56 72 -29 84 -34 150 -63 25 -11 74 -33 110 -47 35
-15 92 -39 125 -54 33 -15 87 -38 120 -51 33 -13 97 -41 143 -62 46 -21 85
-38 88 -38 3 0 29 -11 57 -24 29 -13 82 -38 120 -55 37 -17 72 -31 78 -31 10
0 44 -15 202 -89 48 -22 90 -41 93 -41 6 0 108 -44 212 -91 34 -16 65 -29 68
-29 3 0 42 -18 88 -39 45 -22 107 -50 137 -61 30 -12 79 -33 109 -47 30 -14
69 -31 85 -38 62 -27 221 -98 262 -116 23 -10 44 -19 48 -19 3 0 42 -18 88
-39 139 -66 270 -120 279 -115 4 3 6 197 3 432 -2 235 -7 789 -11 1232 -3 442
-9 809 -14 815 -5 5 -26 19 -47 30 -21 10 -45 24 -53 31 -8 6 -35 22 -60 35
-25 13 -47 26 -50 29 -3 3 -52 32 -110 65 -58 32 -126 71 -153 87 -26 15 -49
28 -51 28 -2 0 -70 39 -152 86 -82 47 -165 94 -184 103 -19 9 -118 66 -220
126 -102 59 -203 118 -225 130 -22 12 -76 42 -120 67 -114 65 -153 87 -210
118 -27 15 -75 42 -105 60 -30 19 -82 48 -115 65 -99 53 -248 137 -276 155
-14 10 -54 32 -89 50 -35 18 -82 44 -103 57 -22 14 -71 42 -111 62 -39 21 -95
53 -125 70 -30 18 -84 48 -120 67 -36 19 -73 39 -81 44 -8 5 -60 35 -115 65
-55 31 -107 60 -115 65 -8 6 -22 13 -30 17 -8 4 -55 30 -105 58 -49 28 -115
64 -145 80 -30 16 -82 45 -115 65 -33 20 -96 56 -140 80 -44 23 -96 53 -115
66 -19 13 -39 24 -43 24 -5 0 -46 22 -91 49 -44 27 -112 65 -151 86 -38 20
-75 41 -81 46 -6 5 -40 24 -75 42 -35 19 -86 47 -114 62 -27 16 -75 43 -105
59 -101 56 -245 137 -260 146 -16 10 -356 198 -429 237 -25 14 -56 33 -69 44
-14 10 -28 19 -32 19 -4 0 -45 21 -91 47 -46 25 -106 58 -134 73 -27 15 -77
42 -110 60 -33 18 -73 40 -90 49 -16 8 -36 21 -43 28 -17 16 -32 17 -33 1z
m236 -143 c50 -26 110 -59 135 -73 25 -14 56 -31 70 -39 14 -8 52 -30 85 -49
33 -19 71 -40 85 -46 14 -7 27 -15 30 -19 3 -3 39 -24 80 -46 142 -76 505
-276 540 -298 19 -12 71 -42 115 -65 114 -61 153 -83 213 -119 29 -17 55 -31
57 -31 3 0 37 -20 77 -44 40 -24 113 -66 162 -92 50 -27 117 -65 151 -84 34
-19 101 -57 151 -84 49 -27 125 -70 169 -96 44 -26 105 -60 135 -76 30 -15 57
-31 60 -34 3 -4 48 -28 100 -54 52 -27 102 -54 110 -61 8 -7 55 -34 105 -60
49 -26 101 -55 115 -64 14 -10 54 -33 90 -51 85 -44 98 -51 145 -81 22 -14 58
-34 80 -44 22 -10 64 -34 94 -53 29 -18 80 -46 111 -61 32 -16 91 -49 132 -75
41 -25 78 -46 82 -46 4 0 30 -15 59 -33 29 -18 88 -53 132 -77 44 -24 96 -52
115 -63 19 -11 55 -31 80 -45 25 -14 88 -50 140 -80 52 -30 115 -66 140 -79
25 -13 63 -35 85 -49 22 -13 54 -31 70 -39 17 -9 39 -21 50 -28 11 -6 46 -29
79 -49 33 -21 64 -38 68 -38 5 0 27 -12 49 -26 23 -14 96 -56 163 -93 66 -37
142 -80 167 -94 25 -14 66 -37 91 -50 38 -20 189 -108 238 -138 8 -5 33 -19
55 -31 l40 -23 -610 -6 c-335 -4 -1217 -12 -1960 -18 -2219 -18 -2511 -21
-2724 -27 -165 -5 -205 -3 -212 8 -5 7 -9 718 -9 1580 l0 1567 62 -38 c35 -21
104 -60 153 -86z m5346 -3582 c0 -312 2 -577 4 -588 3 -11 5 -301 5 -645 0
-558 -1 -625 -15 -622 -9 2 -57 22 -108 46 -129 61 -536 240 -876 386 -40 17
-106 47 -147 66 -41 19 -76 34 -79 34 -2 0 -35 14 -72 31 -37 17 -81 37 -98
44 -79 36 -294 129 -339 147 -28 11 -55 23 -61 27 -5 4 -30 16 -55 25 -50 20
-91 37 -165 71 -27 13 -86 38 -130 55 -44 17 -108 44 -141 60 -34 17 -64 30
-67 30 -6 0 -28 9 -142 60 -114 51 -136 60 -141 60 -3 0 -33 13 -67 28 -53 24
-170 74 -242 103 -11 4 -51 22 -90 39 -67 31 -192 84 -320 137 -33 14 -98 43
-145 65 -47 22 -128 57 -180 78 -90 36 -148 61 -267 116 -28 13 -54 24 -57 24
-2 0 -35 14 -73 31 -37 17 -87 39 -110 50 -24 10 -47 19 -51 19 -5 0 -56 22
-113 49 -57 26 -115 52 -129 56 -14 4 -63 25 -110 47 -47 22 -107 48 -135 58
-27 10 -63 25 -80 33 -37 19 -454 197 -462 197 -3 0 -19 6 -36 14 -40 18 -142
64 -182 81 -26 12 -6 13 170 14 414 2 1566 11 1975 16 234 3 835 8 1335 11
501 4 912 8 914 10 1 1 246 3 542 4 l539 1 1 -568z"/>
<path d="M3755 5950 c-11 -18 3 -24 21 -10 13 12 17 11 25 -1 15 -25 10 -47
-21 -82 -16 -19 -30 -37 -30 -41 0 -3 19 -5 42 -3 32 1 44 6 46 20 3 16 1 17
-18 7 -31 -17 -35 -6 -10 28 14 18 20 40 18 58 -2 24 -8 29 -35 32 -17 2 -34
-2 -38 -8z"/>
<path d="M3213 5870 c-60 -36 -84 -119 -49 -172 48 -73 142 9 98 84 -14 24
-23 29 -44 25 -18 -2 -28 1 -28 9 0 15 48 54 66 54 8 0 14 5 14 10 0 16 -22
12 -57 -10z m22 -90 c21 -34 -2 -104 -30 -94 -18 7 -35 57 -28 83 6 22 46 30
58 11z"/>
<path d="M2855 5866 c-11 -8 -17 -18 -13 -22 4 -4 14 -1 23 6 8 7 22 10 30 6
19 -7 20 -55 0 -62 -21 -8 -19 -22 6 -29 16 -5 19 -14 17 -38 -3 -30 -5 -32
-40 -31 -26 1 -38 -3 -38 -12 0 -20 65 -18 84 2 25 25 30 61 12 89 -13 20 -14
28 -4 45 27 42 -34 78 -77 46z"/>
<path d="M3008 5866 c-27 -20 -22 -26 12 -13 22 8 33 8 41 0 15 -15 3 -63 -16
-63 -22 0 -18 -14 7 -25 51 -22 27 -81 -29 -72 -25 4 -33 2 -33 -9 0 -21 62
-18 88 5 22 18 30 69 15 85 -5 4 -8 29 -8 54 0 45 -1 47 -30 49 -16 2 -38 -3
-47 -11z"/>
<path d="M1975 5850 c-4 -11 -23 -55 -43 -98 -20 -42 -38 -80 -40 -84 -2 -5 8
-8 23 -8 16 0 24 4 20 11 -4 5 -4 21 -1 35 6 23 11 25 49 22 40 -3 42 -4 42
-35 0 -30 2 -33 31 -33 l32 0 -24 48 c-35 71 -64 140 -64 151 0 19 -18 12 -25
-9z m18 -47 c2 -5 7 -20 11 -35 6 -25 3 -28 -17 -28 -33 0 -37 7 -24 41 11 29
22 36 30 22z"/>
<path d="M3393 5814 c-7 -3 -17 -20 -23 -38 -22 -68 32 -127 85 -92 14 9 25
24 25 33 0 15 -1 15 -18 0 -24 -22 -35 -21 -55 1 -20 22 -21 51 -3 75 17 23
33 22 46 -3 6 -11 15 -18 21 -15 5 4 5 13 -1 26 -10 18 -48 24 -77 13z"/>
<path d="M3509 5814 c0 -2 0 -34 -1 -71 0 -58 2 -68 17 -68 15 0 18 10 19 60
1 55 3 60 24 63 23 4 24 2 20 -57 -2 -35 1 -63 7 -65 23 -8 30 7 26 55 -3 52
6 68 37 69 10 0 13 -15 10 -60 -3 -55 -1 -60 17 -60 19 0 20 4 15 58 -3 31 -9
63 -13 70 -10 14 -43 16 -52 2 -4 -6 -13 -7 -23 -1 -16 8 -101 12 -103 5z"/>
<path d="M2127 5693 c-13 -12 -7 -33 8 -33 8 0 15 9 15 20 0 20 -11 26 -23 13z"/>
<path d="M3772 5078 c-7 -7 -12 -16 -12 -22 0 -6 5 -5 12 2 23 23 48 14 48
-17 0 -17 -4 -32 -10 -36 -5 -3 -19 -19 -30 -35 l-21 -30 45 0 c34 0 46 4 46
15 0 11 -8 13 -32 8 l-33 -6 28 28 c41 42 33 105 -13 105 -9 0 -21 -5 -28 -12z"/>
<path d="M2882 4946 c-54 -82 -54 -96 -2 -96 38 0 40 -2 40 -31 0 -37 23 -35
28 2 2 13 9 30 14 37 7 8 7 12 0 12 -7 0 -12 28 -14 67 -2 36 -8 68 -13 70 -6
2 -30 -26 -53 -61z m38 -31 c0 -44 -1 -45 -31 -45 -17 0 -29 3 -27 8 25 52 43
82 50 82 4 0 8 -20 8 -45z"/>
<path d="M3033 4995 c-61 -42 -39 -205 27 -205 66 0 91 162 32 206 -22 17 -33
17 -59 -1z m61 -57 c6 -33 6 -60 -3 -88 -12 -41 -27 -50 -49 -28 -16 16 -16
140 0 156 23 23 43 8 52 -40z"/>
<path d="M3178 4985 c-13 -16 -18 -43 -18 -85 0 -51 4 -65 25 -85 29 -30 35
-31 66 -5 18 17 24 33 27 83 3 52 0 66 -18 90 -26 33 -59 34 -82 2z m66 -11
c12 -30 6 -130 -8 -150 -14 -18 -16 -18 -32 -2 -18 18 -24 102 -10 146 8 25
41 30 50 6z"/>
<path d="M1898 4981 c10 -6 14 -33 14 -91 0 -58 -4 -85 -14 -91 -10 -7 -10 -9
2 -10 38 -4 127 4 142 12 29 15 32 48 8 74 -14 15 -18 25 -11 30 19 11 12 53
-11 69 -14 10 -44 16 -83 16 -36 0 -55 -4 -47 -9z m97 -11 c21 -8 26 -16 23
-38 -3 -23 -8 -27 -38 -30 -36 -3 -38 0 -31 71 1 10 15 9 46 -3z m19 -96 c20
-8 21 -48 2 -63 -8 -7 -27 -11 -43 -9 -24 3 -28 8 -31 41 -3 35 -2 37 27 37
16 0 36 -3 45 -6z"/>
<path d="M3413 4935 c-33 -14 -39 -29 -34 -79 2 -28 30 -56 56 -56 24 0 55 29
55 51 0 9 -7 5 -19 -10 -15 -20 -21 -22 -39 -12 -23 12 -38 52 -28 76 9 24 37
30 51 12 14 -19 39 -23 33 -5 -2 6 -13 17 -24 24 -15 10 -25 10 -51 -1z"/>
<path d="M3525 4944 c-6 -2 -8 -28 -7 -59 3 -34 -1 -61 -8 -70 -10 -13 -8 -15
16 -15 l29 0 -3 59 c-3 47 0 59 13 65 9 3 21 4 26 0 14 -8 11 -111 -3 -117 -7
-3 1 -6 17 -6 l30 -1 -3 53 c-3 40 0 57 13 67 25 21 37 -1 33 -64 l-3 -56 30
0 c22 0 26 3 17 12 -7 7 -12 33 -12 59 0 30 -6 53 -16 63 -18 19 -17 19 -48 5
-19 -9 -29 -9 -40 0 -10 9 -20 9 -34 2 -10 -5 -23 -6 -28 -2 -5 5 -13 7 -19 5z"/>
<path d="M2112 4803 c5 -25 28 -28 28 -4 0 12 -6 21 -16 21 -9 0 -14 -7 -12
-17z"/>
<path d="M3760 4195 c-11 -13 -8 -14 19 -9 28 6 31 4 31 -18 0 -14 -14 -44
-30 -67 l-31 -42 42 3 c23 2 44 8 46 14 2 7 -6 10 -22 7 -30 -6 -32 7 -5 32
20 18 25 49 14 79 -8 20 -48 21 -64 1z"/>
<path d="M3230 4132 c0 -5 -10 -20 -21 -33 -32 -36 -69 -97 -69 -113 0 -11 11
-14 43 -13 38 2 42 0 42 -22 0 -14 6 -26 13 -29 8 -2 12 7 12 27 0 23 5 31 18
31 16 1 16 1 0 14 -14 10 -18 28 -18 80 0 37 -4 66 -10 66 -5 0 -10 -4 -10 -8z
m-4 -87 c0 -42 -2 -45 -28 -45 -15 0 -28 5 -28 12 0 10 47 78 54 78 2 0 3 -20
2 -45z"/>
<path d="M1958 4114 c-70 -30 -89 -132 -33 -181 36 -31 106 -32 135 -1 27 29
17 35 -16 9 -34 -27 -56 -27 -90 2 -47 41 -32 148 23 162 35 8 61 -2 78 -33
l14 -27 1 37 c0 29 -4 37 -17 36 -10 -1 -27 1 -38 5 -11 3 -37 -1 -57 -9z"/>
<path d="M2880 4126 c0 -2 -7 -20 -15 -40 l-15 -36 35 -14 c66 -28 56 -104
-12 -91 -25 4 -33 2 -33 -8 0 -40 95 -14 106 28 10 41 0 69 -33 90 -43 27 -42
45 2 45 24 0 35 5 35 15 0 10 -11 15 -35 15 -19 0 -35 -2 -35 -4z"/>
<path d="M3011 4104 c-46 -58 -16 -184 43 -184 35 0 57 32 63 93 4 42 1 62
-13 86 -24 40 -64 42 -93 5z m70 -11 c14 -37 7 -142 -11 -153 -22 -14 -39 0
-46 37 -18 97 28 191 57 116z"/>
<path d="M3399 4060 c-9 -5 -22 -23 -29 -39 -10 -26 -10 -35 7 -63 25 -43 60
-48 93 -13 13 13 20 28 16 32 -4 4 -12 0 -17 -10 -13 -22 -42 -22 -62 1 -23
25 -21 55 4 78 20 18 21 18 38 -5 13 -16 20 -20 25 -12 19 30 -38 53 -75 31z"/>
<path d="M3515 4064 c-6 -2 -8 -28 -7 -59 3 -34 -1 -61 -8 -70 -10 -13 -8 -15
16 -15 29 0 29 0 29 63 0 58 2 62 24 65 23 4 23 2 19 -62 -4 -62 -3 -66 17
-66 20 0 21 4 17 59 -4 54 -2 60 18 66 12 4 24 5 26 2 10 -10 13 -96 4 -102
-20 -12 -9 -25 20 -25 17 0 30 5 30 10 0 6 -4 10 -10 10 -5 0 -10 25 -12 56
-3 66 -23 88 -59 66 -16 -10 -24 -11 -35 -1 -11 9 -21 9 -39 1 -15 -7 -25 -8
-25 -2 0 10 -8 12 -25 4z"/>
<path d="M2110 3925 c0 -8 7 -15 15 -15 8 0 15 7 15 15 0 8 -7 15 -15 15 -8 0
-15 -7 -15 -15z"/>
<path d="M3761 3316 c-10 -12 -6 -14 21 -13 46 3 48 -24 3 -78 l-36 -45 39 0
c23 0 45 6 52 15 11 13 8 14 -19 9 -32 -7 -45 11 -17 22 24 9 39 59 26 83 -12
24 -52 28 -69 7z"/>
<path d="M2872 3225 c-19 -41 -14 -59 21 -75 36 -17 47 -53 24 -85 -13 -16
-18 -18 -41 -7 -26 12 -47 0 -24 -15 41 -25 98 17 98 71 0 33 -33 76 -59 76
-27 0 -3 25 26 28 17 2 34 10 37 18 4 11 -4 14 -33 14 -31 0 -40 -5 -49 -25z"/>
<path d="M3017 3212 c-21 -49 -21 -52 2 -52 32 0 52 -12 61 -36 17 -44 -21
-85 -59 -64 -23 12 -37 -2 -18 -18 32 -27 107 23 107 71 0 23 -47 77 -67 77
-7 0 -13 6 -13 14 0 10 13 16 37 18 51 4 56 28 6 28 -36 0 -41 -3 -56 -38z"/>
<path d="M3155 3230 c-22 -24 -13 -39 10 -16 42 42 90 -5 62 -60 -8 -16 -31
-46 -51 -66 -20 -20 -36 -39 -36 -43 0 -3 27 -5 60 -5 49 0 61 3 70 20 8 16 8
20 -4 20 -8 0 -18 -4 -21 -10 -8 -13 -65 -13 -65 -1 0 5 10 18 23 28 52 42 70
100 43 136 -18 23 -68 22 -91 -3z"/>
<path d="M1903 3230 c14 -9 17 -26 17 -95 0 -69 -3 -86 -17 -94 -27 -16 106
-14 140 2 54 25 68 121 24 165 -22 21 -36 25 -104 29 -59 3 -74 1 -60 -7z
m139 -34 c23 -28 23 -97 0 -126 -11 -14 -30 -22 -52 -23 l-35 -2 -3 84 c-2 54
1 87 8 91 19 11 63 -2 82 -24z"/>
<path d="M3392 3170 c-42 -40 -17 -130 36 -130 20 0 62 35 62 50 0 16 -17 12
-24 -5 -9 -23 -44 -18 -62 10 -31 48 18 103 52 58 16 -22 32 -8 18 15 -16 25
-56 26 -82 2z"/>
<path d="M3510 3180 c-10 -6 -11 -10 -2 -10 16 0 16 -102 0 -118 -9 -9 -6 -12
13 -12 23 0 24 3 24 56 0 43 4 59 18 68 14 9 20 8 27 -4 13 -20 13 -87 0 -95
-20 -12 -9 -25 22 -25 25 0 29 3 20 12 -17 17 -15 93 3 108 27 23 45 4 45 -48
0 -26 -5 -53 -12 -60 -9 -9 -5 -12 20 -12 30 0 31 1 22 26 -6 14 -10 42 -10
63 0 20 -5 42 -12 49 -15 15 -48 16 -48 2 0 -5 -7 -10 -15 -10 -8 0 -15 5 -15
10 0 14 -33 12 -49 -2 -11 -10 -14 -10 -18 0 -6 14 -13 15 -33 2z"/>
<path d="M14233 3134 c-2 -51 -33 -147 -52 -163 -14 -11 -5 -13 63 -8 62 5 83
10 102 28 30 28 47 81 39 120 -8 36 -52 59 -112 59 -37 0 -38 -1 -40 -36z
m117 -3 c16 -32 12 -76 -13 -112 -18 -27 -31 -35 -65 -40 -24 -3 -45 -3 -47 0
-1 3 3 24 10 46 8 22 18 59 25 83 10 39 13 42 45 42 24 0 38 -6 45 -19z"/>
<path d="M8263 3066 c-1 -18 -8 -53 -17 -79 -9 -26 -16 -54 -16 -62 0 -8 -8
-19 -17 -24 -14 -8 -3 -10 45 -11 54 0 67 4 87 25 29 28 31 47 10 65 -14 12
-13 15 5 32 11 10 20 30 20 43 0 26 -17 35 -79 40 -36 3 -37 1 -38 -29z m82 3
c4 -5 4 -21 1 -35 -5 -19 -13 -24 -36 -24 -17 0 -30 2 -30 4 0 1 5 17 11 35
11 31 41 42 54 20z m-11 -89 c17 -17 -3 -58 -36 -69 -42 -15 -49 -5 -36 46 10
37 14 41 37 36 14 -2 30 -8 35 -13z"/>
<path d="M2130 3045 c0 -8 7 -15 15 -15 8 0 15 7 15 15 0 8 -7 15 -15 15 -8 0
-15 -7 -15 -15z"/>
<path d="M14156 539 c-62 -49 -74 -146 -22 -181 23 -15 94 -8 117 12 13 10 19
19 12 20 -6 0 -19 -7 -27 -16 -24 -24 -77 -14 -95 17 -20 35 -7 95 29 131 43
43 100 34 100 -16 0 -17 2 -18 10 -6 5 8 10 25 10 38 0 20 -5 22 -54 22 -39 0
-60 -6 -80 -21z"/>
</g>
</svg>
