<?xml version="1.0" standalone="no"?>
<!DOCTYPE svg PUBLIC "-//W3C//DTD SVG 20010904//EN"
 "http://www.w3.org/TR/2001/REC-SVG-20010904/DTD/svg10.dtd">
<svg version="1.0" xmlns="http://www.w3.org/2000/svg"
 width="1488.000000pt" height="751.000000pt" viewBox="0 0 1488.000000 751.000000"
 preserveAspectRatio="xMidYMid meet">
<metadata>
Created by potrace 1.16, written by Peter Selinger 2001-2019
</metadata>
<g transform="translate(0.000000,751.000000) scale(0.100000,-0.100000)"
fill="#000000" stroke="none">
<path d="M7660 7149 c0 -18 -5 -21 -35 -17 -19 2 -35 0 -35 -4 0 -4 16 -8 35
-8 24 0 35 -5 35 -15 0 -8 5 -15 10 -15 6 0 10 7 10 15 0 8 9 15 20 15 11 0
20 5 20 11 0 6 -9 9 -20 6 -15 -4 -20 0 -20 14 0 10 -4 19 -10 19 -5 0 -10 -9
-10 -21z"/>
<path d="M7773 7151 c-3 -12 -13 -21 -22 -22 -10 0 -11 -2 -3 -6 6 -2 12 -11
12 -19 0 -8 5 -14 10 -14 6 0 10 7 10 15 0 11 11 15 40 15 22 0 40 5 40 10 0
7 -13 8 -37 4 -31 -6 -35 -4 -30 9 3 9 2 19 -4 23 -6 3 -13 -3 -16 -15z"/>
<path d="M12110 7161 c0 -5 10 -7 21 -4 21 6 22 4 17 -63 -5 -69 -24 -120 -59
-157 -10 -11 -16 -23 -13 -26 11 -11 64 63 76 104 12 44 28 68 28 44 0 -8 11
-31 25 -51 22 -33 23 -37 7 -49 -27 -22 -61 -39 -77 -39 -8 0 -15 -4 -15 -9 0
-13 57 6 91 30 25 17 27 17 78 -8 37 -17 56 -22 64 -14 7 7 1 12 -19 17 -16 3
-39 13 -51 20 l-22 14 35 51 c38 57 42 72 17 67 -9 -2 -15 -5 -13 -8 7 -9 -44
-90 -57 -90 -7 0 -22 18 -33 39 l-20 40 38 3 c20 2 36 5 34 8 -2 3 4 24 12 48
l15 42 -89 0 c-50 0 -90 -4 -90 -9z m144 -28 c-11 -52 -13 -54 -46 -51 -30 3
-33 6 -36 41 l-3 37 46 0 c44 0 45 -1 39 -27z"/>
<path d="M12683 7063 c-57 -59 -103 -108 -103 -110 0 -8 200 -2 205 7 4 6 -23
10 -74 10 -45 0 -81 3 -81 8 0 4 36 43 80 87 44 44 80 85 80 92 0 7 -1 13 -2
13 -2 0 -49 -48 -105 -107z"/>
<path d="M12895 7149 c7 -22 -34 -179 -46 -179 -5 0 -9 -4 -9 -10 0 -18 92
-11 135 10 69 33 96 116 53 164 -18 19 -35 25 -81 29 -52 3 -57 2 -52 -14z
m103 -15 c28 -19 30 -76 3 -120 -15 -25 -29 -34 -61 -39 -23 -4 -44 -4 -47 -1
-3 3 4 44 17 91 20 73 26 85 44 85 12 0 32 -7 44 -16z"/>
<path d="M13145 7160 c-40 -16 -68 -58 -73 -109 -4 -43 -1 -53 21 -75 15 -14
36 -26 48 -26 23 0 79 30 79 42 0 12 -10 10 -26 -7 -37 -36 -104 -4 -104 50 1
33 37 103 60 115 30 16 70 5 70 -20 0 -10 5 -22 10 -25 6 -3 10 0 10 7 0 7 3
22 6 34 5 19 1 21 -38 22 -24 0 -52 -3 -63 -8z"/>
<path d="M13317 7159 c7 -7 3 -34 -9 -77 -11 -37 -22 -77 -25 -89 -3 -13 -9
-23 -14 -23 -5 0 -9 -4 -9 -9 0 -5 15 -7 33 -5 17 1 51 3 74 3 37 1 45 5 58
31 19 37 10 39 -21 5 -30 -32 -94 -36 -94 -6 0 37 19 71 40 71 11 0 20 -7 20
-15 0 -8 5 -15 10 -15 6 0 10 8 10 18 0 9 3 28 6 42 5 21 4 22 -6 8 -13 -21
-50 -24 -50 -5 1 40 13 57 43 57 17 0 39 -8 50 -17 18 -17 19 -17 16 7 -4 24
-8 25 -73 27 -44 1 -65 -2 -59 -8z"/>
<path d="M13799 7151 c-13 -11 -21 -23 -17 -27 5 -4 17 1 28 11 18 16 23 17
45 5 14 -7 25 -22 25 -33 0 -26 -31 -75 -71 -112 l-33 -30 59 -3 c47 -2 62 0
72 14 15 21 8 33 -9 16 -14 -14 -78 -16 -78 -3 0 5 11 16 24 24 13 9 33 35 44
58 19 38 20 44 6 70 -18 35 -59 39 -95 10z"/>
<path d="M13947 7152 c-25 -28 -20 -34 12 -17 36 18 57 12 63 -19 6 -30 -4
-55 -33 -86 -13 -14 -33 -35 -43 -47 l-19 -23 60 0 c47 0 62 4 67 16 8 22 -1
31 -16 16 -11 -11 -68 -17 -68 -8 0 3 16 21 35 41 43 46 55 97 30 125 -23 25
-67 26 -88 2z"/>
<path d="M14099 7149 c-16 -31 3 -69 35 -69 44 0 66 59 32 82 -21 15 -55 8
-67 -13z m55 -5 c11 -29 6 -44 -14 -44 -25 0 -36 25 -20 45 16 19 26 19 34 -1z"/>
<path d="M6240 7144 c0 -28 -23 -94 -32 -94 -5 0 -8 12 -6 28 3 24 0 27 -24
24 -27 -3 -38 11 -18 23 13 8 13 25 0 25 -6 0 -16 -11 -22 -25 -7 -15 -17 -24
-25 -21 -10 4 -13 -17 -13 -99 0 -63 4 -105 10 -105 6 0 10 5 10 10 0 6 14 10
30 10 17 0 30 -4 30 -10 0 -5 5 -10 10 -10 6 0 10 28 10 65 0 36 4 65 8 65 5
0 15 12 23 28 19 36 28 42 72 42 l37 0 0 -61 c0 -34 -5 -79 -12 -101 -11 -37
-13 -38 -42 -32 -30 6 -30 5 -11 -10 48 -37 70 -3 80 119 4 50 8 92 9 95 0 2
-23 3 -53 1 -53 -3 -54 -2 -47 23 5 19 3 26 -9 26 -8 0 -15 -7 -15 -16z m-60
-89 c0 -32 -2 -35 -30 -35 -26 0 -30 3 -30 29 0 29 10 39 43 40 13 1 17 -7 17
-34z m0 -83 c0 -37 -1 -38 -30 -34 -27 4 -30 8 -30 38 0 31 3 34 30 34 28 0
30 -2 30 -38z"/>
<path d="M6464 7120 c6 -38 5 -40 -19 -40 -16 0 -24 -4 -20 -10 4 -6 14 -9 23
-8 14 3 17 -7 17 -59 0 -34 3 -64 6 -67 7 -7 79 56 79 68 0 4 -12 -2 -26 -13
-15 -12 -30 -21 -34 -21 -3 0 -6 21 -5 48 2 45 3 47 34 50 17 2 29 7 26 12 -3
5 -19 7 -36 3 l-30 -6 7 42 c6 35 4 41 -11 41 -15 0 -17 -6 -11 -40z"/>
<path d="M6796 7111 c-31 -61 -31 -61 -5 -61 l20 0 -20 -29 c-28 -39 -27 -54
2 -45 12 3 28 12 36 18 11 8 15 8 18 -2 3 -6 9 -10 14 -6 5 3 5 14 -2 25 -10
19 -11 20 -23 3 -7 -9 -18 -15 -25 -13 -8 3 0 20 23 49 40 50 43 60 21 60 -8
0 -15 -7 -15 -15 0 -15 -38 -41 -47 -32 -6 7 12 41 33 62 11 11 13 20 7 26 -7
7 -19 -7 -37 -40z"/>
<path d="M6943 7140 c-4 -15 -11 -18 -28 -14 -22 5 -23 3 -24 -50 l0 -55 29 6
c23 4 30 2 30 -11 0 -12 -9 -16 -35 -16 -37 0 -49 -16 -15 -22 19 -3 19 -5
-10 -40 -17 -21 -27 -38 -22 -38 12 0 62 57 62 71 0 5 5 9 10 9 6 0 10 -16 10
-35 0 -29 -4 -35 -22 -35 -21 0 -21 0 -3 -14 28 -20 35 -11 35 40 0 24 4 44 9
44 4 0 6 11 3 25 -3 20 0 25 17 25 24 0 28 -22 6 -40 -21 -17 -19 -30 8 -64
14 -18 28 -26 36 -22 8 5 4 14 -14 28 -31 24 -32 41 -3 60 20 13 21 17 9 32
-9 11 -12 31 -8 62 l5 46 -35 -7 c-32 -6 -34 -4 -28 14 4 13 2 21 -5 21 -7 0
-14 -9 -17 -20z m61 -44 c-7 -17 -86 -16 -91 2 -3 8 10 12 46 12 38 0 49 -3
45 -14z m-1 -41 c-4 -15 -86 -12 -91 3 -3 10 8 12 44 10 27 -2 48 -7 47 -13z"/>
<path d="M9499 7129 c-43 -58 -71 -108 -67 -121 3 -8 19 -12 41 -10 35 3 37 2
37 -27 0 -17 5 -31 10 -31 6 0 10 14 10 30 0 22 5 30 18 30 16 1 16 1 0 14
-12 9 -18 31 -20 81 l-3 69 -26 -35z m11 -63 c0 -40 -2 -44 -27 -49 -16 -3
-30 -4 -32 -2 -4 5 48 95 54 95 3 0 5 -20 5 -44z"/>
<path d="M10486 7138 c-11 -12 -58 -62 -104 -110 l-85 -88 107 0 c64 0 106 4
106 10 0 6 -33 10 -80 10 -44 0 -80 3 -80 7 0 4 37 44 81 89 45 45 80 87 78
93 -3 7 -12 2 -23 -11z"/>
<path d="M10616 7136 c7 -21 -35 -176 -47 -176 -5 0 -9 -4 -9 -9 0 -5 33 -9
73 -10 70 -1 74 0 85 24 18 40 14 46 -13 20 -31 -32 -95 -36 -95 -6 0 60 42
94 59 49 10 -25 13 -19 26 37 6 28 6 29 -13 12 -24 -22 -56 -23 -48 -1 3 9 9
27 12 40 5 18 13 24 34 24 16 0 36 -7 44 -16 15 -14 16 -13 16 8 0 22 -4 23
-65 23 -59 0 -64 -2 -59 -19z"/>
<path d="M10844 7084 c-33 -42 -66 -86 -74 -98 -8 -11 -18 -22 -22 -24 -16 -7
-7 -22 12 -22 12 0 20 6 18 13 -1 6 3 22 10 35 10 16 22 22 48 22 25 0 35 -4
31 -12 -20 -54 -19 -57 12 -56 23 1 28 4 21 13 -7 9 -7 42 0 105 6 51 9 95 6
97 -2 2 -30 -31 -62 -73z m32 -10 c-3 -9 -6 -24 -6 -35 0 -12 -7 -19 -20 -19
-24 0 -25 13 -4 45 18 28 40 34 30 9z"/>
<path d="M10972 7139 c-20 -32 -13 -44 11 -21 26 25 62 30 54 8 -3 -7 -15 -47
-27 -87 -12 -41 -29 -80 -38 -86 -14 -12 -14 -13 5 -13 31 0 54 11 47 21 -3 6
4 48 17 95 21 81 24 85 48 82 14 -2 25 -9 24 -15 -5 -21 14 -14 20 7 7 27 3
28 -79 28 -58 0 -72 -3 -82 -19z"/>
<path d="M11485 7140 c-10 -11 -16 -22 -13 -25 3 -3 11 1 18 10 17 20 37 19
49 -4 8 -14 6 -25 -10 -45 -17 -21 -18 -26 -5 -26 23 0 39 -36 26 -60 -8 -14
-21 -20 -45 -20 -19 0 -35 -4 -35 -10 0 -17 66 -15 87 2 22 18 26 68 7 89 -13
15 -15 22 -6 31 18 18 14 56 -7 68 -29 15 -46 12 -66 -10z"/>
<path d="M11641 7136 c-11 -19 -10 -28 3 -53 13 -26 13 -33 1 -49 -19 -25 -19
-59 1 -75 19 -16 75 -13 86 4 13 20 9 65 -7 81 -8 8 -15 19 -15 24 0 6 7 12
15 16 18 7 20 47 3 64 -22 22 -73 15 -87 -12z m65 -1 c8 -20 -4 -65 -16 -65
-6 0 -15 11 -22 25 -8 19 -8 28 2 40 16 19 29 19 36 0z m0 -116 c14 -28 14
-33 1 -47 -33 -32 -68 18 -40 57 18 27 20 27 39 -10z"/>
<path d="M11792 7148 c-28 -28 -7 -78 33 -78 27 0 45 18 45 45 0 27 -18 45
-45 45 -12 0 -26 -5 -33 -12z m56 -36 c3 -18 -1 -22 -21 -22 -28 0 -41 22 -24
39 17 17 42 9 45 -17z"/>
<path d="M4975 7130 c-7 -21 -8 -22 -54 -24 -47 -2 -49 -16 -3 -16 23 0 42 -5
42 -10 0 -14 -44 -82 -64 -99 -9 -7 -16 -18 -16 -24 0 -6 10 -1 23 11 13 12
26 22 30 22 4 0 7 -27 7 -60 0 -33 4 -60 10 -60 6 0 10 35 10 84 0 47 4 96 10
110 9 25 12 26 101 26 67 0 90 3 87 12 -3 9 -29 12 -87 9 -81 -3 -82 -2 -71
18 9 17 8 21 -4 21 -8 0 -18 -9 -21 -20z"/>
<path d="M5418 7078 c-3 -67 -5 -73 -23 -70 -11 2 -37 4 -57 4 -25 0 -38 5
-38 14 0 9 11 14 30 14 29 0 30 1 30 50 l0 50 -65 0 -65 0 0 -50 c0 -36 4 -50
14 -50 10 0 12 12 10 46 -3 39 -1 45 14 42 14 -3 17 -15 18 -62 l1 -58 -28 4
c-16 3 -29 1 -29 -4 0 -4 14 -8 30 -8 20 0 30 -5 30 -15 0 -11 -11 -15 -37
-15 -20 0 -34 -2 -31 -5 3 -3 38 -6 77 -6 l71 0 0 -40 c0 -41 9 -49 30 -24 9
10 9 15 1 15 -6 0 -11 17 -11 40 l0 40 40 0 40 0 0 -40 c0 -36 -2 -40 -25 -40
-38 0 -30 -15 10 -17 l35 -2 0 60 c0 58 0 59 -25 53 -23 -6 -25 -4 -25 30 0
33 2 36 30 36 17 0 30 5 30 10 0 6 -15 9 -32 8 -31 -3 -33 -2 -30 30 2 17 -1
32 -7 32 -6 0 -11 -31 -13 -72z m-78 44 c0 -4 -9 -13 -20 -20 -18 -11 -20 -10
-20 8 0 13 7 20 20 20 11 0 20 -3 20 -8z m10 -42 c0 -11 -7 -23 -15 -27 -21
-7 -25 -2 -18 25 7 28 33 29 33 2z m20 -93 c0 -9 -13 -14 -35 -15 -25 -1 -35
3 -35 13 0 10 11 15 35 15 23 0 35 -5 35 -13z"/>
<path d="M8671 7118 c-34 -53 -70 -100 -106 -140 -18 -21 -30 -38 -25 -38 5 0
16 -3 25 -6 11 -5 16 -2 14 7 -2 8 1 24 5 37 10 29 76 33 76 4 0 -10 -5 -23
-12 -30 -9 -9 -4 -12 23 -12 20 0 29 4 22 8 -10 6 -10 29 -2 101 6 51 8 95 6
97 -3 3 -14 -10 -26 -28z m-3 -70 c-2 -26 -8 -34 -27 -36 -13 -2 -21 0 -19 5
34 72 51 84 46 31z"/>
<path d="M8793 7114 c-1 -46 -30 -140 -49 -158 -14 -15 -9 -16 55 -16 66 0 74
2 107 33 46 42 56 99 25 139 -18 22 -30 27 -79 30 l-58 3 -1 -31z m115 -16
c10 -21 10 -37 2 -66 -13 -50 -38 -72 -90 -79 -38 -5 -42 -4 -36 13 3 10 12
44 20 74 23 88 25 91 60 88 22 -2 34 -11 44 -30z"/>
<path d="M9345 7135 c-86 -43 -87 -195 -1 -195 25 0 35 6 44 25 27 58 5 112
-41 103 -46 -9 -26 44 26 66 18 8 25 15 17 15 -8 0 -28 -6 -45 -14z m25 -108
c12 -22 12 -29 0 -51 -24 -46 -60 -25 -60 35 0 54 33 63 60 16z"/>
<path d="M9596 7134 c-20 -19 -20 -24 0 -52 21 -31 62 -29 74 4 6 14 10 27 10
29 0 11 -34 35 -50 35 -10 0 -26 -7 -34 -16z m59 -29 c0 -25 -40 -33 -49 -10
-9 24 2 37 27 33 14 -2 22 -10 22 -23z"/>
<path d="M1627 7133 c-4 -3 -7 -17 -7 -31 0 -23 -2 -24 -48 -20 l-48 5 -1 -69
c-1 -63 7 -83 22 -58 3 6 22 10 41 10 l34 0 0 -56 c0 -40 3 -54 13 -51 7 2 12
23 13 53 l1 49 51 3 52 3 0 44 c0 24 2 50 5 58 5 11 -5 13 -50 9 l-55 -4 0 31
c0 30 -9 39 -23 24z m103 -108 l0 -45 -42 0 c-43 0 -43 0 -43 37 0 37 2 38 40
44 22 3 41 7 43 7 1 1 2 -18 2 -43z m-110 -5 c0 -39 -1 -40 -35 -40 -34 0 -35
1 -35 40 0 39 1 40 35 40 34 0 35 -1 35 -40z"/>
<path d="M2900 7133 c0 -5 5 -14 12 -21 9 -9 9 -12 0 -13 -26 -3 -31 -4 -38
-11 -4 -5 7 -8 25 -8 29 0 32 3 29 27 -3 24 -28 47 -28 26z"/>
<path d="M2949 7118 c-2 -63 -20 -114 -61 -177 -39 -59 -27 -65 14 -7 l32 47
86 -3 85 -3 -3 -30 c-5 -39 -20 -57 -43 -50 -11 4 -19 2 -19 -4 0 -16 40 -24
55 -11 8 7 17 28 21 49 3 20 8 44 11 54 3 13 -1 16 -19 15 -20 -3 -23 1 -20
26 3 23 0 27 -14 22 -13 -5 -16 -1 -12 24 3 17 2 33 -1 35 -4 2 -26 0 -50 -5
-41 -7 -43 -7 -38 16 3 16 0 24 -9 24 -8 0 -14 -10 -15 -22z m89 -57 c-2 -11
-16 -17 -41 -19 -31 -3 -37 0 -37 17 0 13 8 21 23 23 35 6 58 -3 55 -21z m30
-48 c-3 -15 -16 -19 -66 -21 -34 -2 -62 -1 -62 2 0 28 16 36 72 36 51 0 59 -2
56 -17z"/>
<path d="M3200 6998 c0 -125 8 -165 24 -123 4 12 26 15 105 15 56 0 103 -4
106 -10 19 -30 25 2 25 123 l0 132 -130 0 -130 0 0 -137z m240 12 c0 -90 -3
-110 -15 -110 -19 0 -28 37 -23 97 l3 48 -77 0 -78 0 0 -58 c0 -56 1 -58 23
-53 l22 6 -22 -11 c-13 -7 -23 -16 -23 -21 0 -4 -7 -8 -15 -8 -12 0 -15 19
-15 110 l0 110 110 0 110 0 0 -110z m-54 -12 c-1 -41 -10 -48 -67 -48 l-46 0
1 40 1 40 56 0 55 0 0 -32z m-18 -74 c18 -8 32 -17 32 -20 0 -2 -33 -4 -72 -4
l-73 1 35 19 c43 24 40 23 78 4z"/>
<path d="M3260 7083 c0 -22 4 -23 65 -23 61 0 65 1 65 23 0 20 -4 22 -65 23
-62 0 -65 -1 -65 -23z m110 -3 c0 -5 -18 -10 -40 -10 -22 0 -40 5 -40 10 0 6
18 10 40 10 22 0 40 -4 40 -10z"/>
<path d="M6544 7133 c4 -5 18 -8 29 -8 21 0 22 -4 20 -64 -3 -71 -24 -115 -76
-156 -18 -14 -27 -25 -20 -25 20 0 85 63 99 95 7 17 16 59 20 93 6 61 8 63 33
60 l26 -3 -4 -95 c-3 -103 -12 -124 -48 -117 -32 6 -29 -9 3 -17 49 -13 56 6
69 167 l7 77 -83 0 c-45 0 -79 -3 -75 -7z"/>
<path d="M8195 7034 l-101 -104 102 0 c58 0 106 4 109 10 4 6 -23 10 -74 10
-45 0 -81 3 -81 7 0 4 39 47 87 95 48 49 81 88 73 87 -8 0 -60 -47 -115 -105z"/>
<path d="M8417 7122 c5 -23 -34 -166 -47 -170 -6 -2 -10 -7 -10 -12 0 -8 91
-4 122 6 23 7 34 51 19 77 -11 16 -9 21 8 34 23 16 28 52 9 71 -7 7 -33 12
-59 12 -40 0 -46 -3 -42 -18z m81 -26 c4 -31 -10 -46 -44 -46 -21 0 -21 3 -12
41 9 33 15 39 32 37 15 -2 22 -11 24 -32z m-34 -62 c23 -9 21 -61 -3 -74 -11
-5 -29 -10 -40 -10 -18 0 -19 3 -10 33 6 17 12 38 15 45 4 13 14 15 38 6z"/>
<path d="M1175 6995 l0 -130 127 0 128 0 0 117 c0 64 2 122 5 130 4 10 -21 13
-127 13 l-133 0 0 -130z m235 5 l0 -110 -87 2 -88 2 70 5 70 6 3 53 3 52 -81
0 -82 0 4 -60 c3 -52 1 -60 -14 -60 -15 0 -18 10 -18 65 l0 65 100 0 c55 0
100 4 100 9 0 5 -20 6 -45 3 -30 -3 -45 -1 -45 7 0 6 14 11 30 11 25 0 30 4
30 25 0 17 -4 23 -14 19 -8 -3 -12 -12 -9 -20 4 -11 -5 -14 -36 -14 -39 0 -61
19 -23 21 14 0 14 2 -3 9 -31 14 -37 12 -33 -12 2 -15 11 -24 26 -26 42 -6 22
-22 -28 -22 l-50 0 0 40 0 40 110 0 110 0 0 -110z m-50 -39 c0 -37 -1 -39 -40
-44 -62 -8 -80 0 -80 37 0 18 3 36 7 39 3 4 30 7 60 7 l53 0 0 -39z"/>
<path d="M1260 6954 c0 -23 3 -25 38 -22 30 2 38 7 40 26 3 20 -1 22 -37 22
-37 0 -41 -2 -41 -26z m60 1 c0 -16 -35 -21 -44 -6 -8 12 4 21 26 21 10 0 18
-7 18 -15z"/>
<path d="M4179 7118 c-51 -13 -92 -78 -85 -133 6 -53 38 -79 87 -72 36 5 94
35 85 44 -3 3 -15 -2 -28 -11 -48 -34 -118 -12 -118 37 0 34 17 85 34 102 40
40 106 40 106 -1 0 -13 5 -24 10 -24 6 0 10 9 10 19 0 11 2 25 5 33 6 16 -51
19 -106 6z"/>
<path d="M5822 7062 c-27 -37 -55 -74 -63 -83 -8 -8 -23 -25 -33 -37 -19 -22
-19 -22 7 -22 20 0 27 5 27 19 0 27 27 51 56 51 19 0 24 -5 24 -25 0 -13 -8
-29 -17 -34 -14 -8 -9 -10 25 -11 40 0 42 1 28 16 -9 8 -14 25 -12 37 8 37 17
157 12 157 -2 0 -27 -31 -54 -68z m24 -24 c-3 -13 -5 -26 -5 -30 -1 -9 -41
-11 -41 -3 0 12 33 55 41 55 5 0 7 -10 5 -22z"/>
<path d="M2344 7095 c-21 -32 -9 -47 12 -17 16 24 44 30 44 10 0 -7 -4 -29 -9
-48 -6 -19 -15 -54 -21 -77 -6 -25 -17 -43 -28 -46 -9 -3 3 -5 28 -6 31 0 40
2 30 9 -12 7 -11 20 10 92 13 46 28 86 33 90 16 10 37 -3 37 -24 0 -10 5 -16
10 -13 6 3 10 17 10 31 0 23 -2 24 -70 24 -63 0 -71 -2 -86 -25z"/>
<path d="M2615 7101 c-14 -26 -127 -175 -139 -183 -6 -4 2 -8 17 -8 16 0 26 4
22 10 -10 17 26 60 51 60 30 0 36 -12 24 -44 -9 -25 -8 -26 23 -26 21 0 28 3
19 9 -13 8 -11 91 4 174 6 31 -6 36 -21 8z m-15 -81 c0 -23 -4 -30 -20 -30
-24 0 -25 5 -2 35 22 31 22 31 22 -5z"/>
<path d="M3830 7096 c-8 -13 -43 -60 -77 -105 -51 -66 -59 -81 -43 -81 11 0
20 7 20 15 0 26 33 55 62 55 31 0 33 -6 18 -44 -9 -24 -8 -26 21 -26 27 0 30
2 19 15 -12 15 -11 43 7 158 6 42 -5 48 -27 13z m0 -50 c0 -28 -12 -46 -31
-46 -17 0 -17 1 -1 30 18 32 32 39 32 16z"/>
<path d="M3953 7089 c-3 -37 -40 -148 -56 -167 -9 -12 -1 -13 48 -7 33 3 70
11 82 17 30 15 40 58 17 75 -17 13 -17 14 4 29 24 17 29 53 10 72 -7 7 -32 12
-57 12 -44 0 -46 -1 -48 -31z m85 -7 c5 -30 -14 -52 -45 -52 -21 0 -24 4 -19
23 3 12 6 30 6 40 0 29 54 19 58 -11z m-20 -74 c17 -17 15 -35 -8 -58 -19 -19
-70 -28 -70 -12 0 4 5 24 11 45 8 29 15 37 32 37 13 0 28 -5 35 -12z"/>
<path d="M4350 7093 c0 -40 -37 -155 -52 -164 -7 -5 17 -9 57 -9 46 1 77 6 89
15 56 42 73 123 36 163 -17 17 -32 22 -75 22 -53 0 -55 -1 -55 -27z m110 -7
c17 -32 7 -103 -17 -127 -10 -10 -37 -21 -60 -25 -51 -8 -52 -5 -22 87 11 35
22 70 25 77 7 23 59 14 74 -12z"/>
<path d="M4573 7092 c-1 -15 -13 -60 -26 -99 -23 -73 -23 -73 -3 -74 12 0 43
-1 70 -2 46 -3 49 -1 61 28 17 39 13 42 -18 11 -18 -18 -37 -26 -62 -26 -39 0
-39 0 -24 53 11 40 40 51 57 22 6 -13 11 -8 19 20 11 33 1 51 -11 20 -3 -8
-15 -15 -26 -15 -19 0 -21 4 -15 33 4 17 9 35 12 40 8 14 66 7 79 -10 12 -17
13 -16 14 5 0 20 -4 22 -62 22 -62 0 -63 -1 -65 -28z"/>
<path d="M298 7088 c-10 -12 -15 -24 -12 -27 3 -3 8 0 12 6 4 6 18 13 32 14
21 3 26 -1 28 -23 2 -18 -4 -31 -18 -41 -21 -14 -21 -14 0 -20 27 -7 35 -33
21 -64 -10 -22 -16 -24 -46 -19 -22 4 -35 3 -35 -4 0 -16 77 -12 94 6 18 18
21 75 6 90 -8 8 -7 19 1 36 25 57 -44 95 -83 46z"/>
<path d="M457 7092 c-20 -22 -22 -85 -4 -100 6 -6 27 -12 46 -14 l34 -3 -27
-32 c-15 -18 -35 -33 -44 -33 -8 0 -13 -3 -9 -6 14 -15 58 9 82 43 46 68 26
163 -34 163 -15 0 -35 -8 -44 -18z m61 -4 c15 -15 16 -84 2 -93 -6 -3 -19 -3
-30 0 -16 5 -20 15 -20 50 0 38 7 51 31 54 3 1 10 -4 17 -11z"/>
<path d="M14463 7060 c1 -35 3 -38 15 -26 9 9 12 24 8 40 -10 40 -25 31 -23
-14z"/>
<path d="M7693 7070 c-5 -17 -14 -20 -60 -20 -37 0 -52 -3 -47 -11 4 -7 22 -9
45 -6 52 7 52 -13 -1 -66 -46 -45 -46 -66 0 -22 l30 29 0 -43 c0 -40 2 -43 23
-37 12 3 50 6 85 6 l62 0 0 46 0 46 -69 -3 c-77 -4 -87 0 -73 28 9 16 21 19
83 17 75 -2 102 3 94 16 -2 4 -39 5 -81 2 -74 -5 -76 -4 -69 17 4 13 2 21 -5
21 -7 0 -14 -9 -17 -20z m117 -130 l0 -30 -65 0 -65 0 0 30 0 30 65 0 65 0 0
-30z"/>
<path d="M5050 7046 c0 -33 -2 -35 -37 -39 l-38 -4 38 -1 37 -2 0 -50 0 -50
-42 0 c-23 0 -39 -3 -35 -6 9 -9 177 -7 175 3 -2 4 -20 6 -40 5 l-38 -4 0 51
0 51 41 0 c25 0 38 4 34 10 -4 6 -21 8 -42 4 l-36 -7 6 37 c4 27 2 36 -9 36
-9 0 -14 -11 -14 -34z"/>
<path d="M13530 7070 c0 -6 33 -10 80 -10 47 0 80 4 80 10 0 6 -33 10 -80 10
-47 0 -80 -4 -80 -10z"/>
<path d="M9930 7062 c0 -10 43 -52 53 -52 19 0 4 38 -18 48 -31 14 -35 15 -35
4z"/>
<path d="M11220 7059 c0 -5 36 -9 80 -9 44 0 80 4 80 9 0 5 -36 9 -80 9 -44 0
-80 -4 -80 -9z"/>
<path d="M7222 7048 c-16 -16 -15 -33 3 -48 21 -18 55 -3 55 25 0 32 -35 46
-58 23z m36 -25 c-2 -10 -8 -18 -13 -18 -5 0 -11 8 -13 18 -2 10 3 17 13 17
10 0 15 -7 13 -17z"/>
<path d="M9030 7050 c0 -6 33 -10 80 -10 47 0 80 4 80 10 0 6 -33 10 -80 10
-47 0 -80 -4 -80 -10z"/>
<path d="M1956 7031 c-4 -5 -1 -13 5 -16 6 -4 8 -18 4 -33 -6 -23 -4 -24 10
-12 9 7 15 24 13 38 -3 27 -22 40 -32 23z"/>
<path d="M6272 7003 c12 -20 24 -31 26 -24 5 14 -24 61 -38 61 -5 0 0 -16 12
-37z"/>
<path d="M13535 7010 c3 -5 37 -10 75 -10 38 0 72 5 75 10 4 6 -23 10 -75 10
-52 0 -79 -4 -75 -10z"/>
<path d="M11220 7000 c0 -6 33 -10 80 -10 47 0 80 4 80 10 0 6 -33 10 -80 10
-47 0 -80 -4 -80 -10z"/>
<path d="M9030 6990 c0 -6 33 -10 80 -10 47 0 80 4 80 10 0 6 -33 10 -80 10
-47 0 -80 -4 -80 -10z"/>
<path d="M3060 6960 c0 -8 5 -22 10 -30 9 -13 10 -13 10 0 0 8 -5 22 -10 30
-9 13 -10 13 -10 0z"/>
<path d="M6850 6949 c7 -11 14 -19 16 -16 7 7 -7 37 -17 37 -6 0 -5 -9 1 -21z"/>
<path d="M3010 6953 c0 -19 11 -43 21 -43 13 0 11 14 -6 36 -8 10 -15 14 -15
7z"/>
<path d="M6810 6953 c0 -5 7 -18 15 -29 12 -16 14 -16 15 -3 0 9 -7 22 -15 29
-8 7 -15 8 -15 3z"/>
<path d="M2930 6939 c0 -7 -7 -21 -17 -31 -14 -15 -14 -18 -1 -18 18 0 42 47
28 55 -6 4 -10 1 -10 -6z"/>
<path d="M2971 6921 c-1 -27 2 -32 11 -23 8 8 8 17 0 34 -10 22 -11 21 -11
-11z"/>
<path d="M5233 6913 c-14 -29 -8 -47 7 -23 9 13 14 50 8 50 -2 0 -9 -12 -15
-27z"/>
<path d="M5270 6916 c0 -14 5 -26 10 -26 6 0 10 9 10 19 0 11 -4 23 -10 26 -6
4 -10 -5 -10 -19z"/>
<path d="M5307 6920 c3 -11 9 -20 13 -20 5 0 6 9 3 20 -3 11 -9 20 -13 20 -5
0 -6 -9 -3 -20z"/>
<path d="M5342 6920 c14 -22 24 -19 15 5 -4 8 -11 15 -17 15 -6 0 -6 -7 2 -20z"/>
<path d="M6783 6927 c4 -10 7 -23 7 -28 0 -5 5 -9 10 -9 16 0 12 26 -7 41 -15
12 -16 12 -10 -4z"/>
<path d="M602 6913 c2 -10 8 -18 13 -18 5 0 11 8 13 18 2 10 -3 17 -13 17 -10
0 -15 -7 -13 -17z"/>
<path d="M1180 6586 c0 -90 2 -105 15 -100 23 9 18 -7 -12 -38 -15 -15 -22
-28 -16 -28 6 0 28 19 49 43 21 23 39 42 39 41 0 0 10 -6 23 -13 l22 -12 0
106 c0 98 -1 105 -17 96 -18 -9 -76 -6 -94 4 -5 4 -9 -37 -9 -99z m100 54 c0
-17 -7 -20 -40 -20 -33 0 -40 3 -40 20 0 17 7 20 40 20 33 0 40 -3 40 -20z m0
-55 c0 -22 -4 -25 -40 -25 -36 0 -40 3 -40 25 0 23 4 25 40 25 36 0 40 -2 40
-25z m0 -55 c0 -17 -7 -20 -40 -20 -33 0 -40 3 -40 20 0 17 7 20 40 20 33 0
40 -3 40 -20z"/>
<path d="M1410 6565 l0 -125 -27 0 -28 0 25 -14 c42 -22 48 -4 52 137 2 97 0
127 -9 127 -10 0 -13 -32 -13 -125z"/>
<path d="M2219 6676 c0 -1 -2 -16 -4 -34 -4 -46 -38 -162 -47 -162 -5 0 -8 -5
-8 -11 0 -19 123 -5 153 17 56 42 73 112 38 155 -13 17 -33 24 -75 29 -31 3
-56 6 -57 6z m101 -36 c37 -37 18 -121 -32 -149 -14 -7 -38 -11 -55 -9 l-31 3
18 60 c10 33 21 72 24 88 8 33 46 37 76 7z"/>
<path d="M2434 6641 c0 -39 -31 -148 -48 -170 -8 -11 1 -12 53 -7 35 4 68 9
73 12 17 11 25 49 15 71 -7 17 -6 26 7 38 17 17 21 52 8 71 -4 6 -30 13 -57
16 l-50 5 -1 -36z m84 3 c14 -25 2 -54 -25 -60 -32 -8 -37 -2 -29 41 8 38 37
49 54 19z m-34 -84 c30 -11 33 -35 9 -62 -22 -25 -63 -24 -63 2 0 17 19 70 26
70 1 0 14 -4 28 -10z"/>
<path d="M1350 6576 c0 -57 4 -96 10 -96 6 0 10 35 10 85 0 97 0 93 -11 101
-5 3 -9 -37 -9 -90z"/>
<path d="M1796 6564 l-98 -104 106 0 c65 0 106 4 106 10 0 6 -30 10 -75 9 -42
-1 -79 1 -82 5 -3 3 30 43 75 88 76 76 93 99 75 97 -5 0 -52 -47 -107 -105z"/>
<path d="M2059 6598 c-61 -84 -67 -92 -93 -118 -20 -20 -20 -20 5 -20 19 0 27
7 34 33 8 26 16 33 43 35 28 3 32 0 32 -22 0 -14 -8 -30 -17 -35 -14 -8 -9
-10 26 -11 39 0 42 2 28 13 -16 11 -17 19 -4 105 8 50 10 92 6 92 -4 0 -31
-33 -60 -72z m27 -44 c-7 -17 -36 -19 -36 -1 0 7 8 24 18 37 l17 25 3 -23 c2
-13 1 -30 -2 -38z"/>
<path d="M2665 6579 c-20 -4 -3 -7 54 -8 46 0 82 2 78 5 -9 9 -98 11 -132 3z"/>
<path d="M2640 6520 c0 -6 33 -10 80 -10 47 0 80 4 80 10 0 6 -33 10 -80 10
-47 0 -80 -4 -80 -10z"/>
<path d="M1276 6451 c19 -32 41 -43 30 -15 -3 9 -6 17 -6 19 0 3 -10 9 -21 16
-21 11 -21 11 -3 -20z"/>
<path d="M9685 6290 c8 -25 -32 -162 -53 -177 -26 -21 95 -17 138 5 79 39 90
154 17 180 -18 7 -50 12 -71 12 -33 0 -37 -3 -31 -20z m110 -17 c22 -21 15
-95 -10 -123 -20 -22 -89 -45 -105 -35 -6 4 -7 13 -2 23 5 9 17 47 26 85 17
63 20 67 46 67 16 0 36 -8 45 -17z"/>
<path d="M10270 6121 c-169 -13 -361 -45 -490 -81 -161 -46 -233 -69 -295 -95
-16 -8 -77 -34 -135 -58 -100 -43 -359 -181 -370 -197 -3 -4 -20 -15 -37 -24
-131 -67 -476 -376 -621 -556 -43 -52 -83 -101 -90 -108 -6 -8 -17 -23 -24
-35 -13 -26 -88 -127 -104 -142 -47 -43 -194 -333 -259 -512 -26 -70 -51 -137
-56 -148 -8 -19 -16 -52 -53 -217 -61 -268 -70 -351 -70 -628 0 -237 11 -373
44 -520 78 -350 115 -462 236 -715 56 -118 149 -275 163 -275 4 0 15 -15 26
-32 54 -94 224 -299 349 -423 95 -94 130 -126 231 -210 33 -28 62 -53 65 -56
9 -11 214 -146 255 -168 22 -12 56 -31 75 -43 43 -26 168 -88 235 -117 28 -12
59 -26 70 -31 77 -35 258 -94 385 -127 30 -8 141 -28 245 -45 174 -28 211 -31
445 -32 158 -1 283 4 330 11 41 7 122 20 180 29 206 32 462 108 635 189 17 7
55 24 85 36 30 13 93 45 139 71 46 26 86 48 89 48 8 0 202 130 267 179 322
242 629 607 805 956 73 147 139 268 203 374 32 51 57 95 57 97 0 2 18 33 40
69 22 36 40 67 40 70 0 2 13 23 29 47 16 24 53 86 84 138 30 52 80 140 112
195 32 55 67 116 78 135 10 19 40 71 66 115 92 156 199 341 256 445 73 131
214 375 341 588 24 40 44 76 44 81 0 5 7 14 15 21 16 13 21 50 7 50 -4 0 -16
-17 -27 -37 -11 -21 -39 -68 -62 -105 -24 -36 -43 -70 -43 -73 0 -4 -24 -46
-53 -94 -68 -108 -151 -252 -208 -356 -24 -44 -47 -81 -51 -83 -4 -2 -8 -9 -8
-16 0 -7 -32 -66 -71 -132 -39 -65 -74 -126 -78 -134 -3 -9 -29 -54 -57 -100
-28 -47 -104 -177 -169 -290 -65 -113 -142 -245 -171 -294 -30 -48 -54 -90
-54 -93 0 -2 -14 -24 -30 -48 -17 -24 -34 -52 -38 -62 -14 -35 -106 -193 -109
-189 -3 2 12 51 31 107 79 233 136 584 136 839 0 140 -24 408 -46 510 -8 41
-25 118 -36 170 -11 52 -45 169 -75 260 -50 148 -71 199 -153 375 -21 45 -152
265 -172 290 -4 6 -42 55 -83 109 -61 82 -174 215 -221 260 -258 250 -460 402
-689 519 -49 25 -103 52 -120 61 -16 9 -33 16 -38 16 -4 0 -26 9 -50 20 -201
92 -430 155 -732 201 -148 22 -478 32 -645 20z m395 -21 c110 -5 220 -14 245
-19 25 -6 86 -17 135 -26 386 -69 754 -221 1089 -450 68 -47 168 -125 178
-139 6 -9 -115 -59 -282 -116 -78 -26 -244 -87 -470 -170 -107 -39 -222 -81
-255 -92 -61 -20 -166 -58 -220 -79 -16 -6 -77 -28 -135 -49 -58 -21 -142 -51
-186 -68 l-82 -31 -33 42 c-19 22 -68 82 -109 132 -120 145 -232 282 -270 328
-35 43 -114 139 -171 207 -16 19 -57 69 -91 110 -86 106 -134 162 -206 247
-40 46 -59 74 -50 77 84 24 120 32 353 76 50 9 209 23 330 28 17 1 120 -3 230
-8z m-1031 -173 c-32 -34 -86 -93 -119 -131 -33 -37 -73 -82 -88 -100 -15 -17
-87 -98 -160 -180 -115 -130 -239 -268 -421 -467 -44 -48 -92 -102 -179 -203
-10 -12 -44 -50 -75 -85 -31 -35 -61 -69 -67 -75 -5 -6 -51 -56 -101 -111 -49
-55 -121 -136 -159 -180 -38 -44 -113 -125 -166 -180 -93 -96 -299 -328 -347
-390 l-23 -30 4 30 c25 171 127 492 213 673 30 62 54 117 54 122 0 6 4 10 8
10 4 0 23 30 42 66 19 36 44 76 56 87 11 12 51 67 89 122 37 55 71 102 74 105
4 3 36 41 71 85 72 89 274 294 335 340 21 17 51 41 66 55 61 56 130 103 292
203 104 64 316 172 382 195 17 6 80 31 140 56 61 25 116 45 124 46 8 0 -12
-28 -45 -63z m106 44 c0 -8 104 -136 137 -169 7 -8 26 -30 41 -50 15 -21 47
-59 72 -85 65 -70 66 -73 33 -112 -15 -18 -31 -34 -35 -34 -4 -1 -28 -14 -53
-30 -54 -34 -157 -56 -227 -48 -28 4 -52 8 -55 10 -2 3 3 53 11 113 8 60 22
159 30 220 9 60 16 126 17 145 2 19 4 37 6 42 6 10 23 9 23 -2z m-64 -149 c-8
-53 -22 -146 -30 -207 -9 -60 -21 -137 -26 -170 -5 -33 -17 -114 -25 -180 -19
-143 -70 -504 -90 -630 -7 -49 -16 -115 -20 -147 l-6 -56 -52 -20 c-135 -53
-191 -74 -312 -116 -71 -26 -159 -57 -195 -71 -36 -13 -123 -45 -195 -70 -71
-26 -143 -53 -160 -60 -16 -7 -66 -25 -110 -40 -44 -15 -93 -33 -110 -40 -16
-8 -103 -38 -191 -69 -211 -73 -324 -114 -351 -128 -43 -22 -36 2 18 60 30 32
85 94 123 137 39 44 99 109 135 145 36 36 101 106 145 155 99 113 213 240 246
275 14 14 48 53 75 86 28 32 59 68 70 79 11 11 36 38 54 60 51 61 177 200 261
290 41 44 104 113 140 154 65 75 107 122 231 262 36 41 84 94 105 118 21 24
64 71 94 104 30 33 64 71 75 85 11 14 40 47 65 75 54 60 57 53 36 -81z m465
-339 c35 -42 79 -97 98 -122 19 -25 40 -51 45 -57 12 -12 61 -70 155 -184 35
-41 70 -84 79 -95 60 -70 134 -166 131 -168 -16 -10 -77 -34 -229 -87 -96 -34
-182 -65 -190 -69 -9 -5 -30 -12 -48 -15 -17 -4 -34 -12 -37 -17 -4 -5 -13 -9
-21 -9 -8 0 -149 -49 -314 -110 -164 -60 -302 -110 -305 -110 -4 0 -5 10 -1
23 3 12 17 105 31 207 14 102 32 228 40 280 8 52 22 147 30 210 8 63 19 144
25 180 5 36 10 70 10 75 0 6 45 10 113 11 88 0 120 4 152 19 54 26 132 82 139
100 11 29 34 14 97 -62z m2208 -120 c7 -38 18 -97 26 -133 8 -36 26 -132 40
-215 15 -82 39 -215 55 -295 15 -80 42 -221 60 -315 17 -93 42 -224 55 -290
13 -66 35 -183 50 -260 14 -77 32 -171 40 -210 18 -88 76 -396 110 -580 14
-77 30 -158 35 -180 5 -22 18 -87 29 -145 68 -364 111 -582 128 -642 9 -35
-13 -17 -67 55 -30 39 -57 74 -60 77 -3 3 -39 46 -80 95 -41 50 -82 99 -92
110 -17 20 -220 271 -306 378 -26 33 -61 75 -78 95 -67 79 -143 171 -219 267
-44 55 -84 105 -90 111 -5 6 -26 30 -45 54 -19 24 -51 62 -70 85 -19 23 -53
64 -75 91 -22 27 -56 67 -76 89 -20 22 -54 63 -75 91 -43 56 -196 246 -204
254 -3 3 -21 25 -40 50 -19 25 -43 54 -55 65 -11 12 -36 41 -55 65 -19 25 -49
61 -67 81 -19 20 -46 52 -61 71 -31 41 -93 117 -137 169 -16 19 -48 57 -70 84
-43 52 -90 108 -170 200 -64 75 -77 93 -73 106 2 5 53 27 113 48 188 65 309
108 335 119 26 12 478 176 615 224 17 6 86 31 155 56 183 66 283 102 300 108
8 3 33 13 55 23 22 10 43 17 46 15 4 -2 12 -34 18 -71z m331 -268 c207 -247
374 -545 467 -835 79 -245 99 -331 133 -580 25 -185 27 -513 4 -687 -40 -310
-119 -585 -237 -835 -23 -49 -44 -88 -48 -88 -3 0 -9 28 -13 63 -3 34 -26 161
-51 282 -24 121 -51 263 -60 315 -9 52 -20 111 -25 130 -5 19 -18 87 -30 150
-12 63 -25 135 -31 160 -5 25 -23 119 -39 210 -17 91 -35 183 -40 205 -5 22
-21 105 -36 185 -14 80 -41 222 -60 315 -18 94 -47 244 -64 335 -36 196 -35
192 -66 350 -14 69 -36 188 -49 265 -14 77 -32 176 -40 220 -9 44 -18 100 -21
125 l-6 45 119 -120 c65 -66 152 -161 193 -210z m-1894 -396 c128 -155 157
-189 204 -243 20 -23 53 -63 75 -91 22 -27 42 -52 46 -55 4 -3 27 -30 51 -61
23 -30 62 -77 85 -105 45 -53 167 -199 186 -224 50 -62 144 -177 154 -188 8
-8 26 -30 41 -50 24 -32 81 -102 149 -182 12 -14 49 -59 83 -100 33 -41 69
-84 79 -95 10 -11 63 -76 118 -145 55 -69 145 -179 199 -245 55 -66 146 -178
204 -250 124 -153 123 -152 191 -234 30 -36 109 -132 177 -215 68 -83 128
-154 135 -158 25 -15 10 -20 -373 -122 -69 -19 -200 -54 -292 -79 -91 -26
-219 -60 -285 -77 -65 -18 -131 -35 -148 -40 -16 -5 -82 -22 -145 -38 -63 -17
-158 -42 -210 -56 -52 -14 -164 -44 -249 -66 -84 -22 -156 -42 -160 -44 -4 -3
-94 -27 -201 -55 -107 -27 -271 -71 -365 -96 -93 -26 -192 -53 -220 -60 -27
-7 -84 -22 -125 -33 -130 -35 -462 -123 -525 -138 -33 -9 -98 -27 -145 -41
-47 -14 -107 -31 -135 -38 -104 -26 -321 -86 -343 -95 l-23 -10 6 72 c4 40 11
89 15 108 5 19 11 62 15 95 3 33 10 83 15 110 9 44 28 183 60 430 6 44 15 107
20 140 6 33 30 209 55 390 25 182 57 409 71 505 15 96 30 204 34 240 27 207
88 647 120 865 11 72 29 198 40 280 31 231 23 209 78 225 26 7 54 17 62 22 8
4 35 15 60 24 25 9 106 37 180 63 74 27 146 53 160 58 14 6 79 30 145 53 66
23 203 73 305 110 102 37 192 68 201 69 10 1 63 -55 125 -130z m-1316 -306 c0
-16 -40 -304 -70 -513 -18 -118 -43 -296 -56 -395 -23 -170 -37 -271 -69 -495
-7 -52 -25 -176 -38 -275 -14 -99 -46 -322 -70 -495 -25 -173 -48 -342 -52
-375 -3 -33 -11 -82 -16 -110 -5 -27 -14 -84 -19 -125 -6 -41 -17 -120 -25
-175 -29 -189 -55 -390 -55 -422 0 -18 -5 -33 -11 -33 -16 0 -230 150 -270
189 -8 9 -37 34 -64 56 -101 84 -200 184 -288 290 -50 61 -100 119 -110 130
-10 11 -28 36 -40 55 -11 19 -24 37 -27 40 -3 3 -16 21 -27 40 -12 19 -31 45
-42 57 -54 57 -186 304 -231 433 -13 36 -27 70 -30 75 -15 20 -81 244 -100
336 -62 295 -63 307 -64 624 -1 208 3 325 12 380 l14 80 196 72 c236 85 473
170 637 228 66 23 149 54 185 68 36 14 128 49 205 76 214 76 338 121 360 130
31 14 149 59 158 60 4 1 7 -2 7 -6z m3485 -2421 c-14 -20 -29 -47 -35 -59 -5
-12 -26 -46 -47 -75 -20 -29 -55 -80 -77 -113 -78 -118 -223 -285 -351 -405
-134 -126 -163 -150 -245 -211 -184 -136 -361 -238 -575 -329 -234 -101 -271
-112 -565 -179 -216 -49 -636 -66 -900 -35 -192 22 -449 80 -605 137 -99 36
-290 120 -382 168 -43 23 -92 49 -110 58 -41 20 -41 28 0 36 35 7 196 50 467
125 96 27 198 54 225 60 28 7 59 16 70 20 11 5 43 14 70 19 28 6 73 18 100 25
28 8 93 26 145 40 52 14 138 37 190 51 106 29 262 69 420 110 58 14 114 30
125 35 11 5 58 18 105 29 47 11 135 33 195 50 217 59 453 123 600 161 83 22
191 51 240 64 50 14 160 44 245 67 85 23 193 52 240 64 47 13 159 44 250 68
91 25 176 49 190 55 38 15 42 5 15 -36z"/>
<path d="M2111 5822 c-14 -31 -34 -78 -47 -104 -24 -51 -23 -58 7 -51 12 4 16
9 10 12 -8 5 -7 15 2 34 10 22 19 27 49 27 32 0 39 -4 44 -24 3 -14 3 -30 -1
-35 -4 -7 8 -11 32 -11 26 0 34 3 24 9 -14 9 -25 34 -64 144 -11 31 -23 57
-26 57 -3 0 -17 -26 -30 -58z m43 -44 c6 -26 4 -28 -24 -28 -35 0 -34 -2 -14
39 18 35 28 32 38 -11z"/>
<path d="M3017 5857 c-28 -43 -25 -58 13 -71 37 -12 46 -31 35 -73 -5 -23 -9
-25 -46 -19 -31 5 -40 3 -37 -6 3 -7 17 -14 32 -16 38 -5 76 32 76 73 0 34
-31 75 -56 75 -29 0 -8 25 24 28 41 4 44 32 3 32 -19 0 -34 -8 -44 -23z"/>
<path d="M3141 5858 c-11 -11 -18 -25 -14 -31 3 -5 10 -2 15 7 5 9 22 16 39
16 56 0 51 -52 -11 -122 -22 -26 -40 -49 -40 -52 0 -3 25 -6 55 -6 43 0 56 4
64 19 10 17 7 18 -36 13 l-47 -5 31 40 c51 63 58 86 38 117 -22 33 -66 35 -94
4z"/>
<path d="M3296 5861 c-23 -25 -13 -59 20 -67 48 -12 76 18 56 62 -14 30 -52
32 -76 5z m62 -29 c-4 -23 -44 -28 -52 -6 -3 9 -1 23 5 30 15 18 51 -1 47 -24z"/>
<path d="M3650 5794 c-16 -18 -3 -54 19 -54 24 0 43 23 35 43 -8 21 -41 28
-54 11z m38 -21 c-5 -25 -28 -28 -28 -4 0 12 6 21 16 21 9 0 14 -7 12 -17z"/>
<path d="M2270 5679 c0 -24 23 -21 28 4 2 10 -3 17 -12 17 -10 0 -16 -9 -16
-21z"/>
<path d="M12467 5681 c7 -28 -33 -161 -54 -177 -16 -12 -8 -13 61 -14 84 0
105 11 105 55 0 18 -2 17 -20 -7 -16 -22 -29 -28 -60 -28 -43 0 -43 0 -28 53
11 42 31 47 53 15 15 -21 16 -21 16 -3 0 11 3 31 7 45 6 24 6 24 -14 8 -32
-29 -46 -23 -38 15 4 17 11 36 15 41 10 10 70 -2 70 -15 0 -6 5 -7 10 -4 6 3
10 13 10 21 0 11 -16 14 -69 14 -63 0 -69 -2 -64 -19z"/>
<path d="M3192 5110 c-63 -39 -80 -143 -30 -182 30 -23 44 -22 68 2 28 28 28
95 0 110 -12 6 -30 8 -40 5 -11 -4 -20 -2 -20 3 0 16 41 62 55 62 8 0 17 5 20
10 10 17 -18 11 -53 -10z m26 -128 c2 -32 -1 -44 -14 -49 -21 -8 -44 21 -44
57 0 33 8 42 35 38 16 -2 21 -12 23 -46z"/>
<path d="M3297 5112 c-22 -24 -21 -45 2 -66 35 -32 94 11 71 54 -9 16 -31 30
-49 30 -4 0 -15 -8 -24 -18z m53 -17 c10 -12 10 -18 0 -30 -16 -20 -36 -19
-44 1 -6 16 9 44 24 44 4 0 13 -7 20 -15z"/>
<path d="M2048 5108 c7 -7 12 -43 12 -93 0 -50 -5 -86 -12 -93 -20 -20 107
-16 137 4 30 20 34 68 8 83 -15 8 -16 12 -5 22 22 23 15 65 -13 77 -36 17
-143 16 -127 0z m110 -17 c8 -4 12 -19 10 -32 -2 -20 -10 -25 -40 -27 -37 -3
-38 -3 -38 32 0 33 3 36 28 36 15 0 33 -4 40 -9z m16 -103 c17 -27 -5 -52 -48
-56 l-36 -3 0 41 0 41 36 -3 c22 -2 42 -10 48 -20z"/>
<path d="M3006 5086 c-21 -44 -20 -46 7 -46 13 0 31 -8 40 -18 37 -41 8 -98
-44 -87 -17 4 -29 2 -29 -4 0 -18 39 -22 69 -6 55 28 50 121 -9 140 -30 10
-24 23 12 27 45 4 49 28 5 28 -30 0 -37 -5 -51 -34z"/>
<path d="M3644 5036 c-10 -25 0 -51 20 -54 27 -6 48 25 35 49 -12 22 -47 25
-55 5z m43 -12 c9 -23 -11 -38 -26 -20 -13 16 -7 36 10 36 5 0 12 -7 16 -16z"/>
<path d="M2264 4936 c-8 -22 3 -33 18 -18 9 9 9 15 0 24 -9 9 -13 7 -18 -6z"/>
<path d="M14422 4758 c-7 -7 -12 -21 -12 -32 1 -19 3 -18 21 7 31 41 53 36 45
-10 -12 -65 -38 -138 -54 -150 -13 -11 -11 -13 19 -13 33 0 35 2 32 28 -6 40
39 166 61 170 11 2 19 -4 23 -17 7 -29 23 -26 23 4 0 24 -2 25 -73 25 -43 0
-78 -5 -85 -12z"/>
<path d="M3055 4364 c-39 -20 -75 -75 -75 -115 0 -76 62 -117 105 -69 40 44 9
126 -43 113 -20 -5 -23 -3 -17 8 16 27 49 59 62 59 7 0 13 5 13 10 0 13 -9 12
-45 -6z m15 -103 c27 -52 -8 -111 -44 -72 -16 17 -22 72 -9 84 13 14 43 7 53
-12z"/>
<path d="M2098 4359 c-49 -18 -72 -102 -43 -158 15 -30 39 -41 93 -41 31 0 81
35 68 48 -4 3 -12 -3 -20 -13 -21 -29 -83 -26 -107 6 -21 27 -25 80 -8 112 16
30 28 37 66 37 25 0 36 -6 47 -27 l15 -28 1 31 c0 27 -4 32 -31 38 -39 7 -47
7 -81 -5z"/>
<path d="M3156 4348 c-39 -60 -23 -165 27 -182 41 -15 67 15 73 85 4 43 1 61
-15 87 -25 39 -63 43 -85 10z m65 -15 c15 -38 7 -142 -12 -153 -27 -17 -44 16
-44 84 0 86 33 128 56 69z"/>
<path d="M3303 4363 c-18 -7 -16 -58 2 -73 22 -19 64 -4 71 25 10 42 -27 67
-73 48z m45 -12 c19 -11 11 -45 -11 -49 -19 -4 -32 20 -23 43 6 17 15 19 34 6z"/>
<path d="M3672 4283 c-14 -26 3 -53 34 -53 22 0 25 4 22 33 -2 24 -8 33 -25
35 -13 2 -25 -4 -31 -15z m48 -24 c0 -25 -33 -22 -38 4 -2 12 3 17 17 17 15 0
21 -6 21 -21z"/>
<path d="M2257 4184 c-8 -8 1 -24 14 -24 5 0 9 7 9 15 0 15 -12 20 -23 9z"/>
<path d="M7503 3830 c-63 -38 -84 -127 -40 -168 31 -29 97 -30 122 -2 17 19
17 19 -23 3 -38 -15 -43 -14 -67 1 -61 40 -5 176 73 176 16 0 27 -9 37 -32 11
-27 14 -29 15 -11 0 12 3 28 6 37 9 24 -82 22 -123 -4z"/>
<path d="M3050 3607 c-37 -19 -70 -74 -70 -117 0 -82 81 -114 114 -46 20 43
20 48 -4 74 -15 16 -28 20 -45 16 -14 -3 -25 -3 -25 1 0 18 24 48 53 65 35 22
17 27 -23 7z m21 -114 c7 -19 7 -35 0 -50 -21 -46 -61 -16 -61 46 0 26 4 31
25 31 19 0 28 -8 36 -27z"/>
<path d="M3159 3599 c-20 -20 -19 -59 2 -67 12 -5 11 -32 -1 -32 -16 0 -23
-46 -10 -69 11 -21 50 -28 84 -15 21 8 21 62 1 84 -15 17 -11 50 6 50 18 0 9
49 -10 60 -29 15 -49 12 -72 -11z m61 -19 c0 -26 -10 -50 -21 -50 -15 0 -27
43 -18 62 11 21 39 13 39 -12z m-7 -101 c19 -26 11 -59 -14 -59 -20 0 -35 39
-25 65 8 21 22 19 39 -6z"/>
<path d="M3294 3595 c-15 -23 -15 -27 0 -50 19 -30 46 -32 69 -7 21 23 22 46
1 66 -23 23 -51 20 -70 -9z m64 -21 c3 -22 -21 -39 -39 -28 -11 6 -12 38 -2
48 13 13 38 1 41 -20z"/>
<path d="M2048 3603 c16 -6 17 -174 0 -191 -9 -9 -1 -12 38 -11 75 0 114 18
136 61 25 48 17 89 -24 123 -25 21 -39 25 -96 24 -37 0 -61 -3 -54 -6z m132
-33 c14 -14 20 -33 20 -62 0 -54 -30 -88 -77 -88 l-33 0 0 85 0 85 35 0 c22 0
43 -8 55 -20z"/>
<path d="M3671 3521 c-9 -15 -7 -23 5 -36 25 -25 49 -15 49 20 0 23 -5 31 -22
33 -14 2 -26 -4 -32 -17z m47 -14 c2 -10 -3 -17 -12 -17 -18 0 -29 16 -21 31
9 14 29 6 33 -14z"/>
<path d="M2276 3433 c-12 -12 -6 -33 9 -33 8 0 15 6 15 14 0 17 -14 28 -24 19z"/>
<path d="M13191 2007 c-43 -65 -89 -129 -110 -151 -27 -29 -27 -38 2 -34 12 2
22 10 22 18 0 30 25 60 50 60 21 0 25 -5 25 -29 0 -16 -6 -32 -12 -34 -7 -3 5
-5 27 -5 22 0 34 2 28 5 -15 5 -16 71 -4 146 10 59 0 67 -28 24z m-1 -67 c0
-25 -4 -30 -25 -30 -14 0 -25 2 -25 5 0 6 42 55 47 55 2 0 3 -13 3 -30z"/>
<path d="M8858 838 c11 -15 -31 -171 -48 -176 -6 -2 -10 -8 -10 -13 0 -15 99
-10 130 6 38 20 51 63 24 82 -17 13 -17 14 4 29 27 19 29 60 3 74 -11 5 -41
10 -67 10 -36 0 -44 -3 -36 -12z m92 -33 c0 -25 -25 -45 -55 -45 -12 0 -14 6
-9 28 10 39 12 42 40 42 19 0 24 -5 24 -25z m-28 -72 c24 -21 23 -39 -4 -57
-22 -16 -68 -22 -68 -10 0 4 5 24 12 45 12 42 30 49 60 22z"/>
</g>
</svg>
