<?xml version="1.0" standalone="no"?>
<!DOCTYPE svg PUBLIC "-//W3C//DTD SVG 20010904//EN"
 "http://www.w3.org/TR/2001/REC-SVG-20010904/DTD/svg10.dtd">
<svg version="1.0" xmlns="http://www.w3.org/2000/svg"
 width="1498.000000pt" height="642.000000pt" viewBox="0 0 1498.000000 642.000000"
 preserveAspectRatio="xMidYMid meet">
<metadata>
Created by potrace 1.16, written by Peter Selinger 2001-2019
</metadata>
<g transform="translate(0.000000,642.000000) scale(0.100000,-0.100000)"
fill="#000000" stroke="none">
<path d="M9273 6269 c-23 -7 -40 -22 -58 -53 -33 -57 -32 -90 5 -128 27 -26
35 -29 67 -23 20 3 42 13 49 20 22 21 16 28 -8 11 -72 -51 -132 17 -95 107 17
40 35 55 75 63 29 6 33 3 45 -25 15 -35 27 -31 27 8 0 23 -4 26 -38 28 -20 1
-51 -3 -69 -8z"/>
<path d="M9447 6225 c-4 -24 -15 -69 -26 -100 l-19 -55 69 0 c65 0 70 2 79 26
15 38 12 40 -15 10 -31 -33 -95 -38 -95 -7 0 54 41 95 56 56 10 -26 24 -16 24
17 0 25 -3 29 -12 20 -18 -18 -51 -15 -44 4 3 9 9 27 12 40 5 19 13 24 40 24
21 0 37 -6 43 -17 9 -16 10 -16 11 5 0 20 -4 22 -59 22 l-58 0 -6 -45z"/>
<path d="M1108 6026 c-2 -70 0 -133 4 -140 6 -8 8 -8 8 2 0 9 29 12 110 12 67
0 110 -4 110 -10 0 -5 4 -10 9 -10 6 0 11 59 13 134 l3 135 -127 3 -127 3 -3
-129z m72 78 c0 -31 3 -35 20 -29 11 4 20 2 20 -4 0 -6 -21 -11 -50 -11 -50 0
-50 0 -50 33 0 40 6 47 37 47 20 0 23 -5 23 -36z m160 -79 l0 -115 -110 0
-110 0 0 70 c0 64 2 70 21 70 18 0 20 -6 19 -42 -4 -88 -8 -83 75 -83 l75 0 0
55 0 55 -70 -3 c-46 -2 -70 0 -70 7 0 7 31 12 83 13 53 1 66 3 34 5 -26 2 -45
8 -42 13 3 4 14 6 25 3 16 -4 20 0 20 21 0 25 -3 26 -50 26 -27 0 -50 5 -50
10 0 6 32 10 75 10 l75 0 0 -115z m-70 75 c0 -5 -16 -10 -35 -10 -19 0 -35 5
-35 10 0 6 16 10 35 10 19 0 35 -4 35 -10z m18 -117 l-3 -38 -53 -1 c-47 -1
-53 2 -58 23 -11 43 1 53 61 53 l56 0 -3 -37z"/>
<path d="M1200 5984 c0 -21 5 -24 34 -24 27 0 34 4 38 24 4 21 1 23 -34 23
-33 0 -38 -3 -38 -23z m50 -4 c0 -5 -9 -10 -20 -10 -11 0 -20 5 -20 10 0 6 9
10 20 10 11 0 20 -4 20 -10z"/>
<path d="M1567 6153 c-4 -3 -7 -17 -7 -31 0 -23 -3 -24 -50 -20 l-50 3 0 -69
c0 -55 3 -67 12 -58 7 7 29 12 50 12 l38 0 0 -55 c0 -30 5 -55 10 -55 6 0 10
25 10 55 l0 55 55 0 55 0 0 58 0 59 -56 -5 -56 -5 7 32 c6 29 -2 40 -18 24z
m-7 -108 l0 -45 -40 0 -40 0 0 45 0 45 40 0 40 0 0 -45z m110 0 l0 -45 -45 0
-45 0 0 45 0 45 45 0 45 0 0 -45z"/>
<path d="M3254 6126 c5 -20 2 -25 -16 -29 -14 -3 -9 -5 15 -6 20 0 37 -5 37
-10 0 -21 -26 -81 -57 -129 -18 -29 -33 -55 -33 -59 0 -9 33 27 54 60 18 26
21 27 108 27 l90 0 -7 -32 c-10 -44 -21 -57 -48 -51 -21 4 -22 4 -3 -11 11 -9
23 -16 26 -16 18 0 41 41 46 84 7 46 6 48 -14 41 -20 -6 -22 -3 -22 28 0 30
-3 34 -20 30 -18 -5 -19 -3 -10 21 11 29 12 29 -48 26 -41 -1 -43 -1 -36 24 4
16 2 26 -5 26 -6 0 -14 -12 -17 -26 l-7 -27 -14 27 c-17 33 -27 34 -19 2z
m126 -56 c0 -17 -7 -20 -40 -20 -27 0 -40 4 -40 13 0 21 11 27 47 27 26 0 33
-4 33 -20z m30 -39 c0 -33 -14 -41 -71 -41 -45 0 -59 3 -59 15 0 7 8 19 18 24
21 13 112 14 112 2z"/>
<path d="M212 6128 c-7 -7 -12 -19 -12 -27 0 -11 4 -11 19 3 11 10 30 16 43
14 18 -2 24 -10 26 -38 2 -30 -3 -41 -43 -80 -25 -24 -45 -49 -45 -55 0 -17
100 -10 118 9 9 8 12 19 8 23 -5 5 -11 2 -13 -4 -4 -12 -73 -19 -73 -9 0 3 13
19 29 37 68 74 64 139 -7 139 -21 0 -43 -5 -50 -12z"/>
<path d="M366 6119 c-18 -27 -10 -42 8 -16 20 26 64 22 71 -6 9 -33 -7 -66
-53 -113 -23 -23 -38 -45 -35 -48 4 -3 30 -6 59 -6 47 0 64 9 64 35 0 2 -18 1
-40 -2 -47 -7 -50 2 -10 41 32 31 49 90 33 115 -6 9 -26 17 -46 19 -27 2 -39
-2 -51 -19z"/>
<path d="M3959 6125 c-1 -5 -2 -32 -3 -60 l-1 -50 -37 -3 c-45 -4 -51 -22 -8
-22 l30 0 0 -65 0 -65 40 20 c48 24 51 32 10 24 -30 -6 -30 -6 -30 40 l0 46
75 0 c63 0 73 -2 69 -15 -4 -9 -16 -20 -27 -26 -17 -10 -23 -7 -38 12 -10 13
-20 21 -24 17 -10 -9 50 -72 89 -93 25 -14 39 -16 46 -9 7 7 -2 14 -30 23 -46
14 -51 32 -15 51 14 8 23 20 21 27 -3 8 2 13 15 13 11 0 19 5 17 11 -3 8 -34
11 -97 10 -73 -2 -92 1 -89 11 3 8 23 13 54 14 72 1 88 3 80 11 -4 4 -37 6
-73 4 -49 -2 -64 0 -61 10 3 9 24 12 72 10 51 -2 67 1 64 10 -3 9 -25 12 -72
10 -53 -2 -67 1 -64 11 3 9 31 15 84 19 93 6 88 10 -18 12 -46 1 -78 -2 -79
-8z"/>
<path d="M4349 6122 c6 -11 11 -23 11 -26 0 -3 -30 -7 -67 -8 l-68 -2 58 -3
c55 -4 57 -5 57 -32 0 -67 -40 -137 -95 -169 -19 -11 -19 -11 -1 -12 26 0 90
69 102 111 9 32 12 34 54 34 41 0 45 -2 48 -25 2 -14 -3 -44 -10 -65 -12 -36
-16 -40 -43 -37 l-30 2 25 -14 c17 -10 30 -11 42 -5 16 9 20 22 33 116 l5 42
-59 3 c-56 3 -58 4 -50 26 8 20 15 22 80 22 65 0 70 2 58 16 -8 10 -15 12 -17
5 -2 -6 -25 -11 -50 -11 -39 0 -49 4 -57 22 -6 12 -16 24 -23 26 -11 3 -12 0
-3 -16z"/>
<path d="M4693 6129 c-6 -6 -34 -9 -62 -8 -28 2 -51 1 -51 -3 0 -5 7 -8 15 -8
11 0 15 -12 15 -46 0 -41 -2 -45 -20 -39 -11 4 -20 2 -20 -4 0 -6 9 -11 20
-11 26 0 26 -40 0 -99 -23 -49 -23 -51 -11 -51 5 0 19 23 31 51 16 39 22 70
21 125 -1 67 1 74 19 74 19 0 20 -7 20 -132 0 -90 3 -128 10 -118 5 8 10 45
10 83 0 60 2 67 20 67 11 0 20 5 20 11 0 6 -9 9 -20 6 -18 -5 -20 0 -20 38 0
37 3 44 22 47 18 3 19 5 6 15 -10 9 -18 9 -25 2z"/>
<path d="M4764 6094 c-46 -48 -46 -51 -4 -29 27 14 60 51 60 67 0 15 -15 5
-56 -38z"/>
<path d="M2370 6119 c0 -9 -64 -96 -135 -181 -13 -16 -12 -18 10 -18 18 0 25
5 25 19 0 27 27 51 56 51 26 0 31 -18 14 -51 -10 -17 -7 -19 22 -19 23 0 29 3
19 9 -14 9 -12 71 6 169 3 20 1 32 -6 32 -6 0 -11 -5 -11 -11z m-10 -66 c-1
-29 -15 -53 -31 -53 -23 0 -24 5 -1 35 17 24 32 32 32 18z"/>
<path d="M2483 6093 c-3 -47 -39 -154 -56 -165 -6 -4 18 -8 54 -8 51 0 69 4
81 18 24 27 28 49 13 69 -12 16 -11 21 7 40 15 16 19 29 14 47 -5 22 -12 26
-45 26 -22 0 -45 2 -53 5 -9 4 -14 -6 -15 -32z m85 -8 c3 -28 -8 -42 -41 -50
-31 -8 -35 6 -15 50 14 31 52 31 56 0z m-20 -77 c17 -17 15 -35 -8 -58 -26
-26 -74 -28 -66 -2 3 9 8 29 12 45 7 29 40 37 62 15z"/>
<path d="M2691 6113 c-69 -34 -94 -130 -46 -178 13 -14 33 -25 45 -25 30 0 90
27 90 41 0 7 -8 6 -25 -5 -37 -25 -80 -21 -100 10 -19 29 -14 63 15 112 33 55
105 67 112 19 4 -32 23 -27 26 8 3 29 1 30 -40 32 -24 1 -58 -5 -77 -14z"/>
<path d="M2871 6114 c11 -13 -22 -140 -47 -180 -13 -21 -12 -21 54 -17 78 5
109 23 135 76 22 44 15 91 -16 111 -30 19 -141 28 -126 10z m114 -25 c5 -5 10
-30 10 -55 0 -39 -5 -50 -33 -75 -22 -20 -43 -29 -67 -29 -19 0 -35 3 -35 7 0
4 12 45 27 91 l27 84 30 -6 c17 -4 35 -11 41 -17z"/>
<path d="M5770 6111 c14 -27 13 -29 -12 -34 -17 -3 -14 -5 10 -6 24 -1 32 -6
32 -20 0 -31 -22 -84 -53 -128 -17 -24 -28 -46 -25 -49 3 -3 20 15 38 40 l31
46 90 0 89 0 -6 -27 c-12 -51 -23 -65 -47 -57 -19 6 -20 5 -8 -10 27 -32 55
-10 70 56 14 58 14 58 -12 58 -20 0 -23 4 -19 29 4 26 1 29 -17 24 -19 -5 -20
-2 -15 25 l6 30 -47 -6 c-47 -5 -48 -5 -43 22 4 17 1 26 -8 26 -7 0 -14 -12
-16 -27 l-4 -28 -12 28 c-6 15 -16 27 -22 27 -7 0 -8 -6 0 -19z m128 -58 c-4
-23 -78 -32 -78 -10 0 21 10 27 47 27 27 0 34 -4 31 -17z m30 -50 c-3 -15 -16
-19 -66 -21 -34 -2 -62 -1 -62 2 0 28 16 36 72 36 51 0 59 -2 56 -17z"/>
<path d="M6890 5995 l0 -125 -62 -2 c-35 -1 2 -5 82 -8 80 -3 147 -4 149 -3 2
1 1 10 -3 19 -5 13 -9 15 -18 6 -7 -7 -38 -12 -70 -12 l-58 0 0 70 0 70 66 0
c36 0 63 4 60 9 -3 5 -34 7 -68 4 l-61 -6 6 51 c5 42 3 52 -8 52 -12 0 -15
-22 -15 -125z"/>
<path d="M7171 6090 c-5 -16 -15 -30 -20 -30 -7 0 -11 -37 -10 -102 0 -57 3
-97 6 -90 6 15 73 16 73 1 0 -5 5 -7 10 -4 6 3 10 30 10 60 0 42 6 63 26 92
23 34 30 38 71 39 l45 2 -7 -72 c-11 -125 -12 -129 -49 -122 -29 5 -30 5 -12
-9 42 -32 65 -11 72 66 2 30 6 75 9 102 l4 47 -54 0 c-51 0 -69 10 -45 25 11
7 4 25 -9 25 -4 0 -16 -28 -26 -62 -19 -62 -19 -62 -23 -26 -3 36 -4 37 -35
31 l-32 -6 17 25 c16 24 15 38 -3 38 -4 0 -12 -13 -18 -30z m49 -78 c0 -32 -2
-33 -32 -30 -55 5 -53 70 2 66 27 -2 30 -6 30 -36z m0 -77 c0 -33 -2 -35 -35
-35 -33 0 -35 2 -35 35 0 33 2 35 35 35 33 0 35 -2 35 -35z"/>
<path d="M5427 6100 c9 -9 8 -23 -4 -59 -8 -25 -19 -64 -24 -86 -6 -22 -15
-43 -22 -47 -7 -4 23 -8 65 -8 66 0 79 3 88 19 18 35 11 44 -15 17 -17 -19
-34 -26 -61 -26 l-36 0 7 37 c4 21 9 41 11 45 9 14 44 8 44 -7 0 -28 18 -15
22 15 4 23 1 29 -9 25 -7 -3 -20 -8 -28 -11 -16 -7 -19 13 -9 54 5 17 14 22
40 22 21 0 37 -6 43 -17 9 -16 10 -16 11 5 0 20 -5 22 -49 22 -27 0 -58 3 -68
6 -14 6 -15 4 -6 -6z"/>
<path d="M7810 6046 c0 -46 3 -56 13 -48 7 6 12 28 10 51 -1 30 2 41 13 41 13
0 21 -31 13 -55 -1 -5 -2 -23 -1 -39 1 -26 -1 -28 -28 -24 -17 3 -30 1 -30 -4
0 -4 14 -8 30 -8 42 0 40 -27 -2 -33 -26 -3 -23 -4 14 -5 42 -2 46 0 41 18 -5
17 0 20 26 20 17 0 31 5 31 11 0 7 -11 8 -30 4 -23 -5 -30 -3 -30 9 0 9 5 16
11 16 5 0 7 5 4 10 -8 13 4 50 16 50 6 0 9 -12 7 -27 -2 -16 2 -30 7 -33 6 -3
11 18 13 50 l3 55 -66 0 -65 0 0 -59z m110 36 c0 -4 -9 -13 -20 -20 -18 -11
-20 -10 -20 8 0 13 7 20 20 20 11 0 20 -3 20 -8z"/>
<path d="M7997 6103 c-4 -3 -7 -37 -7 -75 0 -61 -2 -68 -20 -68 -11 0 -20 -6
-20 -14 0 -8 -12 -17 -27 -19 l-28 -4 28 -2 c25 -1 27 -4 27 -48 0 -37 3 -44
12 -35 7 7 34 12 60 12 l48 0 0 55 c0 54 0 55 -30 55 -28 0 -30 3 -30 35 0 33
2 35 36 35 20 0 33 4 29 10 -3 5 -20 7 -37 3 -31 -6 -31 -6 -25 30 5 35 -1 46
-16 30z m51 -195 c-3 -42 -4 -43 -40 -46 l-38 -3 0 45 0 46 41 0 40 0 -3 -42z"/>
<path d="M8739 6100 c-1 -5 -2 -16 -3 -22 -1 -9 -24 -14 -69 -16 -37 -2 -65
-6 -63 -11 3 -4 32 -6 65 -4 58 3 60 2 63 -25 2 -15 2 -60 0 -100 l-4 -74 -26
7 c-19 4 -24 3 -17 -4 6 -6 22 -12 35 -13 24 -3 25 0 28 53 l3 56 32 -31 c58
-55 74 -65 85 -54 8 8 -1 18 -31 33 -23 13 -47 31 -54 42 -11 17 -8 21 27 43
42 26 51 40 25 40 -8 0 -15 -4 -15 -8 0 -8 -52 -42 -64 -42 -3 0 -6 18 -6 41
l0 41 58 -3 c34 -3 57 0 57 6 0 6 -10 9 -22 7 -15 -2 -23 3 -23 11 0 8 -7 20
-15 27 -17 15 -19 7 -5 -21 10 -17 7 -19 -21 -19 -28 0 -31 2 -25 25 4 14 2
25 -4 25 -5 0 -11 -4 -11 -10z"/>
<path d="M6333 6083 c-4 -10 -16 -27 -26 -38 -10 -11 -37 -46 -58 -77 -22 -32
-44 -58 -49 -58 -6 0 -10 -4 -10 -10 0 -23 36 -7 50 23 11 23 23 33 43 35 23
3 27 0 27 -20 0 -13 -5 -29 -12 -36 -9 -9 -5 -12 18 -12 l29 0 2 105 c2 103
-1 122 -14 88z m-17 -99 c-6 -17 -36 -19 -36 -2 0 6 8 20 18 31 15 17 17 17
20 3 2 -10 1 -24 -2 -32z"/>
<path d="M6448 6092 c12 -8 9 -25 -13 -98 -15 -49 -32 -92 -39 -96 -17 -12 84
-9 126 2 48 14 79 57 80 111 1 59 -22 77 -102 85 -42 4 -60 2 -52 -4z m112
-32 c11 -11 20 -32 20 -46 0 -33 -35 -91 -58 -98 -49 -13 -71 -15 -76 -8 -2 4
5 45 16 90 20 79 22 82 49 82 16 0 38 -9 49 -20z"/>
<path d="M1904 6020 c0 -22 4 -40 8 -40 11 0 21 47 14 65 -11 29 -23 15 -22
-25z"/>
<path d="M4810 6050 c0 -6 -20 -25 -45 -42 -25 -17 -43 -33 -41 -36 10 -10
116 65 116 82 0 3 -7 6 -15 6 -8 0 -15 -5 -15 -10z"/>
<path d="M3783 6029 c-6 -6 -53 -9 -127 -7 -64 2 -116 0 -116 -4 0 -5 63 -8
141 -8 104 0 140 3 137 12 -6 17 -22 20 -35 7z"/>
<path d="M5017 6024 c-12 -12 -8 -41 7 -53 22 -18 58 4 54 32 -3 22 -45 36
-61 21z m43 -24 c0 -11 -7 -20 -15 -20 -8 0 -15 9 -15 20 0 11 7 20 15 20 8 0
15 -9 15 -20z"/>
<path d="M8666 5988 c10 -18 19 -28 21 -21 5 15 -15 53 -28 53 -5 0 -2 -15 7
-32z"/>
<path d="M7714 6000 c-5 -5 -66 -11 -134 -13 l-125 -3 142 -2 c123 -2 142 0
137 13 -7 18 -7 18 -20 5z"/>
<path d="M8250 5995 c-18 -21 -3 -55 25 -55 15 0 26 7 30 20 7 23 -10 50 -30
50 -7 0 -18 -7 -25 -15z m40 -26 c0 -24 -23 -21 -28 4 -2 10 3 17 12 17 10 0
16 -9 16 -21z"/>
<path d="M7303 5965 c23 -36 37 -44 37 -22 0 13 -40 57 -53 57 -3 0 4 -16 16
-35z"/>
<path d="M9901 5986 c-21 -25 -4 -58 27 -54 21 2 28 9 30 31 2 15 -1 27 -7 27
-5 0 -16 2 -24 5 -7 3 -19 -1 -26 -9z m45 -17 c7 -12 -15 -31 -28 -23 -4 3 -8
12 -8 20 0 17 26 19 36 3z"/>
<path d="M4811 5955 c-11 -19 -32 -40 -46 -47 -14 -6 -25 -14 -25 -18 0 -4
-10 -11 -22 -15 -14 -3 -18 -8 -11 -11 24 -10 143 88 143 117 0 20 -19 7 -39
-26z"/>
<path d="M534 5956 c-4 -10 -2 -22 4 -28 8 -8 13 -7 18 6 4 10 2 22 -4 28 -8
8 -13 7 -18 -6z"/>
<path d="M3400 5963 c0 -19 11 -43 21 -43 13 0 11 14 -6 36 -8 10 -15 14 -15
7z"/>
<path d="M9144 5958 c-3 -4 104 -8 237 -8 133 0 240 2 238 4 -8 8 -470 12
-475 4z"/>
<path d="M3310 5933 c0 -18 5 -33 10 -33 13 0 13 30 0 50 -7 11 -10 7 -10 -17z"/>
<path d="M3356 5938 c8 -28 12 -33 20 -25 9 8 -6 47 -17 47 -6 0 -7 -10 -3
-22z"/>
<path d="M3270 5940 c0 -7 -7 -22 -17 -32 -15 -17 -15 -18 0 -18 17 0 35 45
23 57 -3 4 -6 0 -6 -7z"/>
<path d="M5910 5943 c0 -5 4 -15 10 -23 11 -18 25 -7 17 15 -6 15 -27 21 -27
8z"/>
<path d="M8660 5918 c-25 -16 -45 -30 -44 -31 0 -1 3 -7 5 -14 2 -6 23 5 48
28 24 22 42 41 40 43 -2 2 -24 -10 -49 -26z"/>
<path d="M5870 5933 c0 -19 11 -43 21 -43 13 0 11 14 -6 36 -8 10 -15 14 -15
7z"/>
<path d="M5778 5900 c-9 -17 -13 -30 -8 -30 11 0 32 38 28 50 -2 5 -11 -4 -20
-20z"/>
<path d="M5832 5900 c0 -19 2 -27 5 -17 2 9 2 25 0 35 -3 9 -5 1 -5 -18z"/>
<path d="M7806 5874 c-6 -24 -2 -43 8 -33 11 10 17 59 8 59 -5 0 -13 -12 -16
-26z"/>
<path d="M7852 5870 c0 -19 2 -27 5 -17 2 9 2 25 0 35 -3 9 -5 1 -5 -18z"/>
<path d="M7880 5888 c0 -7 5 -20 10 -28 8 -12 10 -11 10 7 0 12 -4 25 -10 28
-5 3 -10 0 -10 -7z"/>
<path d="M7910 5893 c0 -14 19 -38 25 -32 8 8 -5 39 -16 39 -5 0 -9 -3 -9 -7z"/>
<path d="M9320 5816 c-24 -38 -107 -149 -126 -168 -17 -17 -16 -18 9 -18 21 0
27 5 27 23 0 31 18 47 52 47 32 0 36 -15 12 -48 -15 -21 -14 -22 13 -22 28 0
28 0 29 70 1 39 5 86 8 105 8 41 -2 45 -24 11z m-5 -75 c-5 -22 -12 -31 -26
-31 -24 0 -24 5 2 42 25 35 33 31 24 -11z"/>
<path d="M9465 5828 c-74 -41 -94 -141 -37 -184 26 -21 85 -17 110 6 29 27 28
34 -2 15 -15 -10 -40 -15 -63 -13 -34 3 -39 6 -47 39 -17 70 46 151 107 135
21 -5 27 -12 27 -33 0 -32 8 -26 20 16 l9 31 -52 0 c-29 0 -61 -6 -72 -12z"/>
<path d="M7945 5270 c9 -15 -35 -163 -53 -177 -26 -21 112 -17 144 3 56 37 71
118 29 159 -19 20 -34 25 -75 25 -31 0 -49 -4 -45 -10z m89 -11 c28 -13 39
-44 30 -87 -8 -42 -41 -70 -91 -78 l-41 -6 7 33 c10 43 31 120 36 137 5 15 26
15 59 1z"/>
<path d="M14421 5219 c-46 -18 -81 -68 -81 -113 1 -62 20 -81 85 -81 38 0 59
5 72 18 21 21 6 22 -21 2 -27 -20 -70 -19 -89 3 -36 40 -7 139 47 163 37 17
76 4 76 -26 0 -14 5 -25 10 -25 6 0 10 11 10 25 0 14 1 28 3 32 4 11 -86 13
-112 2z"/>
<path d="M3080 5155 c0 -8 7 -15 15 -15 8 0 15 7 15 15 0 8 -7 15 -15 15 -8 0
-15 -7 -15 -15z"/>
<path d="M8156 4948 c-7 -198 -14 -778 -21 -1708 -3 -382 -7 -843 -10 -1025
-3 -181 -8 -567 -11 -857 l-7 -528 179 -2 c98 -1 206 -2 239 -3 33 -1 474 -5
980 -8 871 -7 1361 -10 2865 -22 355 -3 911 -8 1236 -12 348 -3 593 -2 596 3
10 17 18 581 23 1689 4 605 8 1145 10 1200 2 55 7 391 11 748 l7 647 -114 1
c-63 0 -323 2 -579 4 -256 2 -901 7 -1435 10 -533 3 -1118 7 -1300 10 -181 3
-855 7 -1496 11 l-1167 6 -6 -164z m2064 127 c1834 -11 2553 -17 2718 -24 21
-1 22 -5 22 -89 0 -48 7 -114 15 -146 18 -67 65 -166 94 -198 39 -41 45 -36
-219 -150 -63 -28 -140 -61 -170 -75 -30 -14 -71 -31 -91 -38 -35 -13 -79 -32
-194 -85 -33 -15 -89 -40 -125 -55 -36 -15 -93 -40 -128 -56 -34 -16 -65 -29
-68 -29 -6 0 -107 -44 -212 -91 -34 -16 -65 -29 -68 -29 -3 0 -35 -14 -71 -30
-35 -17 -67 -30 -69 -30 -3 0 -29 -11 -57 -24 -29 -13 -108 -47 -177 -76 -69
-28 -143 -60 -165 -70 -84 -38 -134 -60 -139 -60 -2 0 -34 -13 -69 -30 -36
-16 -69 -30 -73 -30 -4 0 -26 -9 -48 -19 -85 -40 -187 -84 -521 -226 -62 -26
-251 -107 -270 -115 -11 -5 -42 -18 -70 -30 -27 -12 -63 -28 -80 -35 -42 -19
-224 -96 -325 -138 -47 -19 -120 -51 -163 -71 -42 -20 -80 -36 -83 -36 -3 0
-29 -11 -57 -24 -157 -72 -184 -84 -207 -91 -14 -4 -66 -27 -116 -51 -50 -24
-94 -44 -97 -44 -4 0 -32 -12 -64 -26 -32 -14 -76 -34 -98 -43 -42 -19 -66
-29 -315 -136 -192 -83 -260 -113 -283 -126 -11 -6 -21 -9 -23 -7 -5 5 16
2338 22 2507 l6 143 592 -6 c325 -3 976 -8 1446 -11z m3930 -37 c-14 -6 -53
-24 -88 -40 -35 -15 -65 -28 -67 -28 -3 0 -37 -15 -77 -34 -84 -38 -209 -94
-318 -141 -293 -126 -376 -162 -441 -194 -41 -19 -42 -19 -89 58 -58 93 -82
168 -87 273 -3 53 -3 103 -1 110 5 11 116 12 599 10 441 -3 588 -6 569 -14z
m69 -650 c-1 -353 -2 -661 -4 -683 -1 -22 -5 -497 -9 -1055 -3 -558 -9 -1201
-12 -1429 l-6 -413 -867 6 c-476 3 -1021 8 -1211 11 -190 3 -831 8 -1425 11
-594 4 -1123 8 -1175 9 -52 1 -197 3 -321 4 l-227 1 -5 68 c-6 74 -21 151 -35
179 -5 10 -25 50 -45 89 -19 39 -41 80 -48 92 -7 12 -11 23 -9 25 3 2 59 41
125 86 66 45 165 114 220 152 55 39 118 82 139 96 22 14 44 29 50 34 30 25
104 77 123 88 12 6 57 36 100 66 43 31 85 60 93 66 8 5 65 44 125 86 61 42
126 87 145 100 19 12 75 51 124 85 48 34 135 93 192 132 296 202 399 272 504
345 115 80 283 195 630 431 25 17 74 50 110 75 36 24 121 83 190 129 69 47
176 120 237 163 62 43 166 114 230 158 64 44 169 117 232 163 64 46 154 108
201 139 47 31 159 108 250 172 91 64 183 128 205 143 22 15 65 46 95 68 30 22
85 60 121 85 37 24 73 51 81 58 7 8 23 19 35 26 13 6 71 45 130 86 59 42 115
80 123 85 41 28 148 104 250 177 284 205 335 240 338 238 2 -2 3 -293 1 -647z
m-130 589 c-2 -2 -48 -35 -102 -73 -54 -38 -144 -101 -200 -141 -56 -39 -133
-93 -172 -120 -38 -26 -104 -71 -145 -101 -41 -29 -82 -57 -90 -62 -8 -5 -55
-38 -105 -73 -49 -35 -135 -95 -190 -133 -55 -39 -145 -102 -200 -141 -55 -39
-122 -85 -150 -104 -27 -18 -52 -36 -55 -39 -3 -3 -53 -38 -112 -78 -89 -59
-191 -130 -243 -169 -6 -5 -39 -28 -75 -53 -36 -24 -87 -60 -115 -79 -27 -19
-111 -76 -185 -127 -74 -50 -178 -121 -230 -157 -52 -36 -180 -124 -285 -195
-323 -218 -476 -323 -575 -394 -52 -37 -102 -72 -110 -78 -143 -96 -431 -292
-545 -371 -55 -39 -125 -86 -155 -107 -30 -20 -57 -39 -60 -42 -7 -7 -202
-140 -242 -165 -30 -18 -209 -143 -233 -162 -5 -5 -48 -34 -95 -65 -77 -52
-240 -165 -265 -185 -6 -4 -44 -30 -85 -58 -41 -27 -80 -54 -86 -60 -6 -6 -42
-31 -80 -55 -38 -25 -71 -47 -74 -50 -5 -6 -125 -88 -420 -288 -69 -47 -150
-103 -181 -124 -31 -21 -62 -45 -69 -53 -7 -8 -16 -13 -20 -10 -5 3 -6 116 -4
253 2 136 6 481 9 767 4 398 8 522 17 531 7 6 38 21 68 34 30 12 78 33 107 46
28 13 54 24 57 24 5 0 34 13 141 60 52 23 116 50 175 75 36 14 88 37 115 49
28 13 84 38 125 57 41 18 107 47 145 64 39 17 86 38 105 45 19 7 73 31 120 52
47 22 112 51 145 64 33 14 78 34 100 44 22 10 97 41 165 70 69 28 153 65 188
81 34 16 65 29 68 29 5 0 263 110 329 140 108 49 179 80 186 80 5 0 28 9 52
19 86 39 159 72 220 97 34 15 94 41 132 59 39 18 82 36 95 40 14 4 62 25 108
46 45 22 88 39 95 39 7 0 17 4 23 9 5 4 50 24 99 44 80 31 132 53 241 102 16
8 68 30 114 50 46 20 98 42 114 50 17 7 65 28 106 45 41 17 99 42 128 56 29
13 55 24 58 24 3 0 20 6 37 14 162 74 257 116 262 116 3 0 34 13 68 29 117 54
178 81 183 81 4 0 42 16 119 50 106 47 136 60 141 60 2 0 32 13 67 29 34 17
96 44 137 61 41 17 98 42 125 55 28 13 120 54 205 91 85 36 160 70 165 74 6 4
28 13 50 20 22 7 87 35 145 63 58 27 125 57 150 68 25 10 67 29 95 43 27 13
52 23 54 20 2 -2 2 -6 0 -7z m-5267 -3735 c31 -45 82 -162 97 -217 5 -22 13
-70 17 -107 l7 -68 -382 0 c-209 0 -381 4 -381 9 0 4 57 47 128 94 70 47 177
120 237 161 61 42 133 92 161 110 29 19 55 39 58 45 13 20 33 11 58 -27z"/>
<path d="M12754 4862 c-11 -11 -33 -55 -48 -98 -16 -44 -34 -93 -42 -111 -16
-35 -18 -63 -6 -63 10 0 32 45 32 64 0 10 12 12 44 9 39 -5 48 -2 71 22 23 22
27 33 22 65 -3 27 -1 43 10 51 8 7 13 25 11 43 -3 28 -7 31 -38 34 -24 2 -42
-3 -56 -16z m72 -5 c3 -8 0 -26 -5 -40 -8 -20 -18 -27 -38 -28 -21 -1 -23 -3
-8 -6 11 -3 23 -10 27 -17 10 -15 -1 -57 -20 -78 -18 -22 -61 -23 -68 -3 -8
20 45 163 65 175 23 13 41 12 47 -3z"/>
<path d="M9045 1156 c-34 -45 -32 -99 4 -104 13 -2 35 2 49 10 20 10 26 10 29
1 3 -7 9 -13 15 -13 15 0 41 30 33 38 -4 4 -10 1 -12 -5 -3 -7 -9 -13 -14 -13
-17 0 -9 35 17 73 26 39 24 68 -2 32 -14 -19 -16 -19 -25 -2 -17 30 -64 22
-94 -17z m83 -7 c2 -17 -6 -37 -23 -58 -59 -69 -91 -9 -34 63 26 33 53 30 57
-5z"/>
<path d="M2952 5088 c-19 -19 -14 -36 16 -55 49 -31 58 -63 17 -63 -16 0 -25
6 -25 15 0 8 -4 15 -10 15 -5 0 -10 -9 -10 -21 0 -18 5 -20 43 -17 38 3 42 6
45 31 3 22 -3 31 -27 45 -17 9 -31 25 -31 35 0 22 18 22 42 0 17 -15 18 -15
18 5 0 18 -6 22 -33 22 -18 0 -38 -5 -45 -12z"/>
<path d="M3065 5090 c-3 -5 -1 -10 5 -10 8 0 11 -20 8 -60 -2 -39 1 -61 9 -64
19 -8 23 5 23 76 0 61 -2 68 -19 68 -11 0 -23 -4 -26 -10z"/>
<path d="M3145 5090 c-3 -5 -1 -10 4 -10 7 0 11 -23 11 -55 0 -37 -4 -55 -12
-55 -9 0 -9 -3 1 -9 26 -17 36 -1 36 57 0 54 1 57 25 57 23 0 25 -4 28 -49 2
-32 -1 -52 -10 -57 -9 -6 -5 -9 12 -9 25 0 25 1 20 64 -3 36 -9 68 -13 72 -4
5 -21 3 -37 -3 -17 -6 -30 -7 -30 -2 0 12 -27 12 -35 -1z"/>
<path d="M3389 5069 c-22 -23 -29 -41 -29 -70 0 -33 4 -40 25 -45 16 -4 34 0
50 10 22 15 25 15 34 -2 8 -13 14 -15 27 -6 10 6 20 17 22 25 4 11 2 12 -9 2
-37 -35 -39 4 -3 64 25 43 27 62 5 48 -6 -3 -11 -13 -11 -22 0 -14 -4 -13 -23
5 -32 30 -54 28 -88 -9z m79 -21 c2 -20 -5 -36 -28 -58 -39 -38 -55 -34 -54
14 2 68 75 107 82 44z"/>
<path d="M2060 4968 c0 -11 -32 -84 -70 -160 l-18 -38 22 0 c19 0 22 4 19 24
-5 26 16 42 52 40 11 -1 26 -2 34 -3 9 -1 12 -10 9 -31 -4 -28 -3 -30 30 -30
33 0 34 1 20 18 -9 9 -30 56 -48 105 -29 77 -50 109 -50 75z m25 -90 c7 -26 5
-28 -25 -28 -17 0 -29 4 -26 9 3 4 10 21 16 36 12 32 25 25 35 -17z"/>
<path d="M2910 4848 c0 -4 39 -8 88 -9 48 0 196 -2 329 -4 143 -2 245 0 248 6
4 5 -46 10 -122 11 -419 5 -543 4 -543 -4z"/>
<path d="M2205 4790 c-7 -12 2 -30 16 -30 5 0 9 9 9 20 0 21 -15 27 -25 10z"/>
<path d="M3090 4726 c0 -8 5 -18 10 -21 6 -3 10 3 10 14 0 12 -4 21 -10 21 -5
0 -10 -6 -10 -14z"/>
<path d="M3438 4720 c-18 -13 -34 -46 -53 -107 -15 -49 -34 -101 -42 -117 -10
-20 -12 -31 -4 -39 8 -8 16 1 28 30 17 38 19 40 53 36 32 -5 40 -1 64 28 23
27 27 39 22 68 -3 23 0 43 9 55 19 25 19 31 -1 50 -21 21 -46 20 -76 -4z m62
-16 c0 -26 -21 -56 -35 -50 -8 3 -17 1 -20 -3 -2 -5 4 -11 15 -14 27 -7 26
-46 -1 -81 -23 -30 -28 -31 -53 -13 -16 12 -15 17 8 86 14 41 31 78 38 82 21
14 48 10 48 -7z"/>
<path d="M2955 4651 c-8 -27 2 -45 36 -65 16 -10 28 -23 26 -29 -6 -19 -46
-20 -53 -3 -8 20 -24 21 -24 1 0 -22 44 -37 75 -25 40 15 33 51 -17 83 -32 20
-36 35 -12 44 11 4 22 -1 30 -12 13 -18 14 -18 14 3 0 18 -6 22 -34 22 -25 0
-36 -5 -41 -19z"/>
<path d="M3075 4661 c-3 -5 0 -13 6 -17 8 -4 9 -26 5 -65 -7 -56 -6 -59 15
-59 15 0 19 4 15 16 -3 9 -6 42 -6 75 0 45 -3 59 -14 59 -8 0 -17 -4 -21 -9z"/>
<path d="M3159 4661 c-2 -17 3 -136 6 -140 2 -2 12 -1 21 3 11 4 13 10 6 19
-9 11 -8 66 3 95 2 6 14 12 25 12 20 0 21 -5 19 -62 -2 -56 -1 -63 16 -63 17
0 19 7 16 60 -1 33 -7 65 -12 72 -10 11 -98 15 -100 4z"/>
<path d="M2957 3846 c-10 -8 -21 -32 -24 -53 -4 -32 0 -45 19 -68 22 -25 27
-27 49 -15 29 16 49 42 42 54 -3 5 -10 1 -15 -8 -14 -26 -57 -20 -64 8 -15 59
21 101 51 59 16 -22 34 -9 19 15 -14 22 -54 26 -77 8z"/>
<path d="M3092 3840 c-27 -25 -30 -90 -6 -114 40 -41 104 -5 104 59 0 62 -57
93 -98 55z m58 -10 c18 -11 20 -84 2 -102 -30 -30 -71 37 -53 85 11 28 26 33
51 17z"/>
<path d="M3240 3846 c-19 -23 -8 -59 23 -74 33 -16 37 -52 6 -52 -12 0 -23 8
-26 20 -7 28 -23 25 -23 -5 0 -22 4 -25 39 -25 68 0 80 49 21 83 -34 21 -40
47 -10 47 11 0 20 -7 20 -15 0 -8 5 -15 10 -15 20 0 10 38 -12 44 -32 8 -34 8
-48 -8z"/>
<path d="M3397 3824 c-31 -30 -42 -75 -27 -103 12 -24 35 -26 70 -6 29 17 44
19 35 6 -12 -21 19 -22 39 -1 l21 22 -22 -7 c-31 -9 -30 14 3 66 28 45 23 68
-6 31 -18 -22 -19 -22 -25 -2 -9 29 -56 26 -88 -6z m73 -3 c15 -28 13 -36 -16
-70 -32 -39 -64 -41 -64 -6 0 31 24 81 42 88 22 9 27 8 38 -12z"/>
<path d="M1969 3721 c10 -6 12 -32 10 -105 l-4 -96 45 1 c68 2 94 12 104 42 8
21 6 31 -9 47 -14 16 -15 23 -6 34 19 22 9 59 -19 73 -28 14 -143 18 -121 4z
m111 -26 c6 -8 9 -23 5 -35 -5 -15 -15 -20 -41 -20 -32 0 -34 2 -34 35 0 32 3
35 29 35 16 0 34 -7 41 -15z m4 -91 c32 -32 11 -64 -41 -64 -32 0 -33 1 -33
40 0 38 2 40 29 40 16 0 37 -7 45 -16z"/>
<path d="M2885 3600 c4 -6 132 -10 351 -10 228 0 343 3 339 10 -4 6 -132 10
-351 10 -228 0 -343 -3 -339 -10z"/>
<path d="M2180 3536 c0 -9 7 -16 16 -16 9 0 14 5 12 12 -6 18 -28 21 -28 4z"/>
<path d="M3440 3460 c-16 -17 -32 -45 -36 -63 -3 -17 -18 -65 -31 -105 -14
-41 -22 -77 -18 -80 8 -9 24 17 31 50 6 23 9 26 30 18 54 -21 111 33 100 94
-5 24 -2 37 9 46 20 16 19 56 -1 64 -32 12 -57 5 -84 -24z m70 -1 c0 -31 -18
-59 -35 -53 -8 4 -15 1 -15 -5 0 -6 7 -11 15 -11 21 0 20 -58 -2 -82 -9 -10
-27 -18 -40 -18 -29 0 -30 24 -5 95 22 62 33 80 52 88 26 9 30 8 30 -14z"/>
<path d="M2950 3396 c-39 -73 31 -156 83 -98 21 23 22 39 3 22 -24 -19 -59 -8
-66 20 -14 51 25 95 48 54 5 -10 15 -14 21 -10 20 13 -8 36 -44 36 -23 0 -35
-6 -45 -24z"/>
<path d="M3091 3407 c-21 -26 -24 -75 -7 -102 19 -28 75 -35 95 -12 21 26 24
75 7 102 -19 28 -75 35 -95 12z m67 -9 c13 -13 16 -66 6 -92 -8 -22 -41 -20
-54 3 -21 41 -7 101 25 101 6 0 16 -5 23 -12z"/>
<path d="M3247 3413 c-16 -16 -5 -51 23 -71 17 -13 30 -29 30 -37 0 -23 -37
-18 -54 7 l-16 22 0 -27 c0 -27 2 -28 43 -25 38 3 42 6 45 30 3 23 -3 32 -32
49 -39 23 -45 36 -20 46 10 4 22 -1 29 -10 16 -23 25 -21 25 3 0 16 -7 20 -33
20 -19 0 -37 -3 -40 -7z"/>
<path d="M3025 2670 c-7 -12 2 -30 16 -30 12 0 12 27 0 35 -5 3 -12 1 -16 -5z"/>
<path d="M1978 2640 c-47 -51 -34 -133 26 -165 28 -15 38 -16 69 -6 21 7 42
21 47 32 14 25 5 24 -20 -1 -47 -47 -120 -4 -120 70 0 78 76 118 119 64 l21
-27 0 32 0 31 -57 0 c-51 0 -61 -4 -85 -30z"/>
<path d="M3686 2662 c-2 -4 -1 -14 4 -22 7 -11 12 -12 21 -3 6 6 8 16 5 22 -8
13 -23 14 -30 3z"/>
<path d="M4042 2652 c-15 -12 -35 -53 -57 -120 -19 -57 -39 -112 -45 -122 -12
-22 3 -36 18 -17 6 7 13 24 17 39 6 24 10 26 40 21 29 -5 39 0 66 26 26 26 31
38 26 64 -3 20 0 40 9 52 20 26 17 52 -5 65 -27 14 -42 12 -69 -8z m56 -29
c-2 -17 -12 -32 -28 -40 -18 -9 -20 -13 -7 -13 12 0 17 -8 17 -29 0 -59 -32
-91 -69 -71 -20 10 -20 11 -2 63 29 85 49 117 72 117 16 0 20 -5 17 -27z"/>
<path d="M2897 2593 c-17 -16 -5 -50 23 -66 17 -10 30 -24 30 -32 0 -26 -21
-27 -47 -4 l-25 24 4 -25 c2 -21 9 -26 41 -28 31 -3 39 0 46 20 11 28 2 46
-30 61 -25 13 -39 47 -18 47 7 0 21 -7 31 -17 17 -15 18 -15 18 5 0 18 -6 22
-33 22 -19 0 -37 -3 -40 -7z"/>
<path d="M3015 2530 l0 -70 63 0 c56 0 62 2 54 18 -14 26 -2 91 18 102 13 7
20 6 24 -6 11 -28 6 -102 -6 -107 -7 -3 2 -6 20 -6 24 -1 31 2 25 12 -4 6 -10
37 -13 67 l-5 55 -50 2 -51 1 4 -65 c4 -63 4 -65 -19 -61 -22 3 -24 8 -27 66
-2 51 -6 62 -20 62 -14 0 -17 -11 -17 -70z"/>
<path d="M3350 2593 c-42 -12 -72 -113 -40 -134 18 -11 62 -2 73 14 5 9 12 6
22 -8 15 -19 16 -19 38 4 l22 23 -22 -7 c-30 -9 -29 7 3 62 25 44 25 75 0 40
-16 -21 -32 -22 -40 -2 -5 14 -25 17 -56 8z m51 -24 c18 -35 -23 -98 -65 -99
-16 0 -18 5 -13 36 6 34 40 84 58 84 5 0 13 -10 20 -21z"/>
<path d="M3563 2593 c-25 -9 -15 -52 16 -67 29 -15 45 -39 34 -50 -12 -12 -36
-6 -49 11 -14 20 -27 14 -19 -10 12 -29 80 -28 90 2 8 26 -2 44 -35 63 -20 11
-28 22 -24 32 8 21 24 20 40 -1 12 -17 13 -16 14 5 0 18 -5 22 -27 21 -16 0
-34 -3 -40 -6z"/>
<path d="M3689 2598 c0 -2 -1 -36 -2 -75 -2 -60 0 -73 13 -73 12 0 15 15 15
75 0 53 -4 75 -12 75 -7 0 -13 -1 -14 -2z"/>
<path d="M3750 2590 c-11 -7 -12 -10 -2 -10 10 0 13 -15 10 -60 -1 -33 -1 -60
2 -61 3 0 12 -2 20 -4 12 -2 15 10 15 59 0 57 2 61 24 64 23 4 23 2 19 -62 -4
-62 -3 -66 17 -66 20 0 21 4 17 63 -5 75 -20 96 -57 79 -15 -7 -25 -8 -25 -2
0 13 -21 13 -40 0z"/>
<path d="M7893 2492 c-2 -24 -29 -116 -48 -164 -6 -16 0 -18 64 -18 73 0 91
11 91 56 0 13 -5 10 -21 -10 -16 -20 -29 -26 -61 -26 -39 0 -40 0 -33 33 13
58 48 77 65 35 8 -21 9 -21 10 -3 0 11 3 31 6 45 5 21 4 22 -6 8 -6 -10 -20
-18 -31 -18 -18 0 -20 4 -14 33 10 44 12 47 44 47 18 0 34 -8 44 -22 l16 -23
0 28 c1 27 0 27 -61 27 -62 0 -63 -1 -65 -28z"/>
<path d="M2167 2493 c-13 -12 -7 -33 8 -33 8 0 15 9 15 20 0 20 -11 26 -23 13z"/>
<path d="M1948 1872 c10 -7 13 -33 10 -101 l-3 -91 63 0 c53 0 67 4 87 24 42
42 45 99 7 146 -16 19 -30 23 -98 27 -50 3 -74 1 -66 -5z m119 -21 c70 -43 38
-161 -44 -161 l-33 0 0 84 c0 82 4 93 35 95 6 1 24 -8 42 -18z"/>
<path d="M4088 1864 c-16 -8 -28 -16 -28 -18 0 -2 -18 -54 -40 -117 -22 -63
-40 -120 -40 -128 0 -24 28 7 35 38 6 27 8 28 49 24 39 -5 45 -3 66 26 15 23
21 41 18 63 -3 20 2 44 14 64 19 32 19 32 -4 48 -27 19 -35 19 -70 0z m62 -14
c0 -24 -25 -60 -42 -60 -10 0 -18 -4 -18 -10 0 -5 6 -10 14 -10 22 0 27 -29
11 -60 -23 -45 -75 -53 -75 -12 0 23 39 133 52 150 12 14 58 16 58 2z"/>
<path d="M2900 1790 c-11 -11 -20 -33 -20 -49 0 -34 34 -81 59 -81 21 0 51 30
51 51 -1 11 -4 10 -14 -3 -7 -10 -20 -18 -29 -18 -32 0 -50 73 -25 98 16 16
38 15 38 -2 0 -22 19 -30 27 -11 13 36 -54 48 -87 15z"/>
<path d="M3040 1790 c-27 -27 -27 -83 2 -110 47 -44 101 -11 101 61 0 65 -59
93 -103 49z m56 2 c31 -20 27 -112 -5 -112 -9 0 -22 5 -29 12 -16 16 -16 95 1
101 17 8 21 8 33 -1z"/>
<path d="M3187 1803 c-17 -17 -5 -53 23 -70 32 -19 41 -53 13 -53 -9 0 -25 7
-35 17 -17 15 -18 15 -18 -10 0 -24 4 -27 36 -27 69 0 86 64 24 90 -31 13 -39
33 -18 46 6 4 19 -3 30 -16 l18 -22 0 26 c0 23 -4 26 -33 26 -19 0 -37 -3 -40
-7z"/>
<path d="M3352 1785 c-56 -47 -51 -125 7 -125 16 0 34 7 41 15 7 8 16 15 21
15 5 0 9 -7 9 -15 0 -8 6 -15 13 -15 15 0 37 20 37 34 0 6 -5 5 -12 -2 -36
-36 -38 13 -2 69 27 44 24 69 -4 31 -17 -22 -17 -22 -30 -2 -17 27 -44 25 -80
-5z m73 -17 c9 -28 -34 -88 -62 -88 -33 0 -31 49 2 89 28 32 50 32 60 -1z"/>
<path d="M3576 1789 c-16 -12 -26 -30 -26 -46 0 -37 31 -83 55 -83 24 0 65 34
65 53 -1 7 -6 5 -14 -5 -15 -21 -47 -23 -64 -6 -20 20 -15 76 8 88 15 8 21 6
30 -10 14 -25 30 -26 30 -1 0 35 -45 41 -84 10z"/>
<path d="M3715 1785 c-29 -28 -31 -56 -8 -96 22 -37 74 -41 97 -7 22 31 20 84
-4 108 -27 27 -56 25 -85 -5z m73 -51 c3 -60 -15 -77 -48 -44 -36 36 -23 103
19 98 24 -3 26 -7 29 -54z"/>
<path d="M3857 1793 c-17 -16 -4 -45 28 -64 19 -12 35 -27 35 -34 0 -22 -30
-25 -49 -6 -22 22 -31 18 -24 -10 8 -30 81 -27 92 4 11 30 4 45 -30 63 -31 16
-39 44 -13 44 9 0 23 -8 30 -17 12 -17 13 -16 14 5 0 19 -5 22 -38 22 -21 0
-42 -3 -45 -7z"/>
<path d="M2174 1695 c-7 -17 4 -37 17 -30 12 8 12 45 -1 45 -6 0 -13 -7 -16
-15z"/>
<path d="M7985 742 c-16 -20 -45 -57 -63 -82 -19 -25 -43 -53 -54 -62 -20 -18
-20 -18 4 -18 17 0 27 8 35 30 9 24 17 30 42 30 23 0 31 -5 31 -18 0 -10 -5
-23 -12 -30 -9 -9 -5 -12 21 -12 26 0 31 3 23 13 -6 8 -6 40 2 100 7 48 10 87
7 87 -3 0 -19 -17 -36 -38z m5 -52 c0 -23 -4 -30 -20 -30 -23 0 -25 12 -8 40
18 28 28 25 28 -10z"/>
<path d="M14289 731 c11 -7 9 -24 -14 -95 -16 -47 -32 -86 -37 -86 -4 0 -8 -4
-8 -10 0 -16 98 -12 130 5 17 9 30 20 30 24 0 5 3 16 6 24 3 8 -2 21 -10 30
-14 13 -13 17 4 32 29 26 26 63 -6 75 -32 13 -115 13 -95 1z m91 -36 c0 -25
-15 -41 -45 -47 -17 -3 -20 2 -17 32 4 39 15 50 43 43 12 -3 19 -14 19 -28z
m-18 -77 c20 -33 -7 -68 -54 -68 -30 0 -30 1 -23 37 4 21 9 41 12 46 7 11 55
0 65 -15z"/>
</g>
</svg>
