<?xml version="1.0" standalone="no"?>
<!DOCTYPE svg PUBLIC "-//W3C//DTD SVG 20010904//EN"
 "http://www.w3.org/TR/2001/REC-SVG-20010904/DTD/svg10.dtd">
<svg version="1.0" xmlns="http://www.w3.org/2000/svg"
 width="1484.000000pt" height="576.000000pt" viewBox="0 0 1484.000000 576.000000"
 preserveAspectRatio="xMidYMid meet">
<metadata>
Created by potrace 1.16, written by Peter Selinger 2001-2019
</metadata>
<g transform="translate(0.000000,576.000000) scale(0.100000,-0.100000)"
fill="#000000" stroke="none">
<path d="M1120 5306 c0 -109 3 -137 12 -128 15 15 214 17 223 2 17 -28 25 13
25 133 l0 132 -130 0 -130 0 0 -139z m235 9 l0 -110 -107 -3 -108 -3 0 71 c0
56 3 70 15 70 12 0 15 -14 15 -63 l0 -63 73 4 c39 2 73 5 74 6 0 0 3 23 5 50
l3 49 -70 4 c-97 6 -94 13 6 15 76 1 79 2 34 8 -48 7 -52 12 -10 14 13 1 21 9
23 24 3 20 0 22 -47 22 -28 0 -54 1 -58 3 -5 1 -9 -11 -11 -26 -3 -25 -1 -28
16 -23 11 4 23 2 27 -4 4 -6 -12 -10 -44 -10 l-51 0 0 40 0 41 108 -3 107 -3
0 -110z m-65 75 c0 -5 -18 -10 -40 -10 -22 0 -40 5 -40 10 0 6 18 10 40 10 22
0 40 -4 40 -10z m15 -120 l0 -35 -55 0 -55 0 -3 38 -3 38 58 -3 58 -3 0 -35z"/>
<path d="M1210 5270 c0 -24 3 -26 33 -22 59 9 66 49 7 49 -37 0 -40 -2 -40
-27z m60 0 c0 -5 -11 -10 -25 -10 -14 0 -25 5 -25 10 0 6 11 10 25 10 14 0 25
-4 25 -10z"/>
<path d="M1578 5423 c-3 -24 -8 -28 -41 -31 -21 -2 -45 2 -53 9 -12 10 -14 1
-14 -58 l0 -70 50 5 50 5 0 -58 c0 -41 3 -56 13 -52 7 2 12 23 13 53 l0 49 55
3 54 3 0 58 0 57 -54 -4 -54 -5 5 32 c3 21 0 31 -8 31 -7 0 -14 -12 -16 -27z
m-4 -85 c-2 -43 -2 -43 -40 -43 -39 0 -39 0 -42 43 l-3 42 44 0 43 0 -2 -42z
m106 -3 l0 -45 -40 0 -40 0 0 45 0 45 40 0 40 0 0 -45z"/>
<path d="M2303 5413 c-8 -33 -13 -38 -36 -36 l-27 2 0 -79 c0 -99 -4 -110 -43
-110 -17 0 -28 -2 -25 -5 3 -3 65 -6 139 -7 102 -1 134 2 137 12 3 9 -2 11
-21 6 -18 -4 -27 -1 -31 10 -3 9 -4 19 -2 23 3 3 6 38 7 76 l2 70 -42 -3 c-37
-3 -42 -1 -39 15 3 16 11 18 67 15 50 -3 62 -1 59 10 -3 7 -15 11 -29 9 -24
-4 -52 -4 -78 -2 -7 0 -11 7 -7 16 3 9 0 15 -8 15 -8 0 -18 -17 -23 -37z m77
-68 c0 -12 -14 -15 -65 -15 -60 0 -75 6 -58 23 3 4 33 7 65 7 45 0 58 -3 58
-15z m-31 -31 c17 -4 31 -13 31 -20 0 -11 -17 -14 -65 -14 -47 0 -65 4 -65 13
0 28 32 34 99 21z m26 -64 c0 -12 -13 -15 -58 -16 -32 0 -60 3 -63 8 -12 19
11 29 64 26 43 -2 57 -7 57 -18z m5 -45 c0 -12 -14 -15 -65 -15 -51 0 -65 3
-65 15 0 12 14 15 65 15 51 0 65 -3 65 -15z"/>
<path d="M220 5419 c-15 -27 -4 -38 14 -14 9 13 20 16 39 11 23 -5 27 -12 27
-42 0 -28 -9 -45 -45 -83 -25 -26 -45 -51 -45 -55 0 -3 27 -6 59 -6 45 0 60 4
65 16 8 22 -1 31 -16 16 -12 -12 -68 -17 -68 -6 0 3 18 27 40 53 62 73 51 131
-24 131 -26 0 -38 -6 -46 -21z"/>
<path d="M385 5420 c-20 -22 -14 -26 14 -8 10 6 26 8 35 5 21 -8 21 -53 -1
-66 -17 -9 -16 -11 5 -26 45 -33 16 -90 -39 -75 -22 7 -29 6 -26 -3 6 -20 67
-20 88 -1 21 19 26 73 9 90 -8 8 -8 19 0 38 21 57 -43 92 -85 46z"/>
<path d="M2543 5391 c-28 -59 -28 -65 -3 -58 25 6 25 -1 0 -33 -17 -22 -26
-50 -16 -50 2 0 16 6 31 14 15 8 34 12 41 9 16 -6 19 22 4 32 -5 3 -10 2 -10
-3 0 -11 -30 -25 -37 -18 -3 3 10 25 28 50 18 25 29 49 25 53 -6 7 -21 -9 -29
-31 -1 -4 -11 -7 -20 -5 -16 4 -15 8 8 41 28 42 30 48 13 48 -7 -1 -23 -22
-35 -49z"/>
<path d="M2690 5425 c0 -9 -9 -15 -25 -15 -24 0 -25 -3 -25 -55 0 -51 10 -69
25 -45 8 13 25 3 25 -16 0 -9 -11 -14 -32 -15 -18 -1 -25 -3 -15 -6 21 -5 21
-13 2 -39 -14 -18 -16 -18 -26 -1 -15 26 -32 21 -17 -5 7 -13 11 -26 10 -30
-8 -29 44 16 66 57 10 17 11 14 12 -22 0 -32 -4 -43 -15 -43 -13 0 -14 -3 -3
-14 11 -13 15 -13 26 2 6 8 12 32 12 51 1 32 2 34 12 16 17 -32 50 -65 59 -60
4 3 -3 17 -17 32 -30 33 -30 41 1 55 18 8 22 14 14 24 -5 7 -10 35 -11 63 l0
51 -34 0 c-26 0 -32 3 -28 15 4 8 1 15 -5 15 -6 0 -11 -7 -11 -15z m50 -45 c0
-5 -18 -10 -40 -10 -22 0 -40 5 -40 10 0 6 18 10 40 10 22 0 40 -4 40 -10z m5
-40 c4 -6 -12 -10 -39 -10 -25 0 -46 5 -46 10 0 6 18 10 39 10 22 0 43 -4 46
-10z m11 -41 c7 -12 -15 -31 -31 -26 -5 2 -11 11 -13 20 -4 19 32 24 44 6z"/>
<path d="M3381 5410 c-5 -16 -17 -30 -25 -30 -13 0 -16 -16 -16 -95 0 -86 8
-113 25 -85 10 16 52 11 59 -6 13 -33 20 -1 21 96 l2 99 -29 -6 c-31 -6 -37 7
-13 30 8 8 11 17 8 21 -12 12 -21 5 -32 -24z m41 -52 c3 -7 2 -23 0 -36 -4
-18 -10 -22 -31 -20 -26 3 -38 26 -27 54 7 17 53 19 58 2z m-2 -103 c0 -32 -2
-35 -30 -35 -28 0 -30 3 -30 35 0 32 2 35 30 35 28 0 30 -3 30 -35z"/>
<path d="M3484 5413 c-3 -16 -10 -38 -16 -50 -6 -13 -9 -26 -5 -29 3 -4 12 5
18 20 11 23 18 26 61 26 l49 0 -7 -72 c-11 -112 -16 -123 -50 -120 -28 2 -28
2 -10 -13 11 -8 26 -15 33 -15 23 0 41 60 45 148 l3 82 -53 0 c-51 0 -52 1
-46 25 4 15 2 25 -5 25 -6 0 -13 -12 -17 -27z"/>
<path d="M3790 5431 c0 -6 5 -13 10 -16 6 -3 10 -12 10 -18 0 -8 -18 -11 -60
-9 -39 3 -60 0 -60 -7 0 -7 21 -11 50 -11 l50 0 0 -35 c0 -52 -22 -95 -69
-137 -43 -40 -44 -50 0 -20 41 27 57 47 75 91 16 40 18 41 61 41 l46 0 -7 -56
c-8 -72 -11 -76 -49 -69 -31 6 -31 5 -12 -10 46 -37 79 3 86 106 l4 44 -58 -3
c-57 -4 -63 0 -51 32 5 12 21 16 69 16 61 0 88 11 64 25 -6 4 -16 2 -22 -4 -6
-6 -28 -11 -49 -11 -32 0 -40 5 -53 30 -15 29 -35 41 -35 21z"/>
<path d="M4063 5417 c-37 -12 -44 -27 -12 -27 14 0 19 -5 17 -17 -3 -12 -12
-17 -26 -16 -12 2 -22 -2 -22 -7 0 -6 9 -10 20 -10 11 0 20 -5 20 -10 0 -6 -9
-28 -20 -50 -27 -53 -25 -61 5 -25 l26 30 -3 -62 c-2 -34 0 -65 5 -69 5 -6 12
108 10 174 -1 6 7 12 18 12 10 0 21 5 24 10 3 6 -5 10 -18 10 -21 0 -24 4 -19
23 3 12 13 27 21 34 14 11 14 12 1 11 -8 0 -30 -6 -47 -11z"/>
<path d="M4415 5408 c5 -20 3 -27 -12 -31 -10 -3 -4 -5 15 -6 23 -1 32 -6 32
-18 -1 -25 -36 -101 -66 -140 -14 -18 -21 -33 -15 -33 5 0 23 19 39 43 l30 42
77 0 78 0 4 38 c3 35 2 38 -17 32 -17 -6 -19 -3 -14 23 l6 30 -46 -5 c-44 -5
-46 -5 -46 21 0 14 -4 26 -10 26 -5 0 -10 -11 -10 -25 0 -14 -4 -25 -10 -25
-5 0 -10 6 -10 14 0 7 -7 19 -16 27 -13 11 -14 9 -9 -13z m133 -55 c-2 -13
-14 -19 -41 -21 -32 -3 -37 0 -37 17 0 18 6 21 41 21 33 0 40 -3 37 -17z m30
-55 c-2 -13 -6 -22 -10 -20 -5 1 -35 2 -68 2 -58 0 -60 1 -50 20 9 17 21 20
71 20 57 0 60 -1 57 -22z"/>
<path d="M2183 5414 c9 -9 84 -12 97 -4 6 4 -15 8 -46 9 -32 1 -55 -1 -51 -5z"/>
<path d="M3064 5404 c3 -7 -6 -49 -18 -95 -16 -59 -28 -85 -42 -90 -11 -5 13
-8 58 -8 67 -1 79 2 88 18 16 31 12 34 -16 12 -27 -21 -69 -28 -78 -13 -9 16
40 172 55 172 5 0 9 3 9 8 0 4 -14 7 -30 7 -19 0 -29 -4 -26 -11z"/>
<path d="M4148 5367 c-3 -48 4 -68 17 -47 3 5 33 10 65 10 l58 0 0 43 0 43
-68 -1 -68 0 -4 -48z m122 3 c0 -29 -1 -30 -50 -30 -49 0 -50 1 -50 30 0 29 1
30 50 30 49 0 50 -1 50 -30z"/>
<path d="M5589 5403 c-10 -2 -15 -11 -12 -22 2 -10 -5 -44 -16 -76 -12 -33
-21 -72 -21 -87 0 -25 3 -28 35 -28 48 0 85 37 85 83 0 44 -20 63 -51 47 -20
-11 -21 -10 -15 6 9 23 20 84 15 83 -2 -1 -11 -3 -20 -6z m51 -126 c0 -40 -28
-77 -59 -77 -24 0 -25 8 -10 61 11 35 16 39 62 48 4 0 7 -14 7 -32z"/>
<path d="M8099 5303 c-1 -150 -1 -148 -26 -148 -12 0 -25 -4 -29 -8 -4 -4 2
-7 14 -7 11 0 24 -5 28 -11 4 -8 10 -7 18 1 15 15 22 270 7 270 -7 0 -11 -34
-12 -97z"/>
<path d="M8247 5393 c-4 -3 -7 -13 -7 -22 0 -9 -11 -37 -25 -63 -24 -45 -35
-82 -14 -45 20 35 29 15 29 -65 0 -104 8 -99 11 7 2 77 11 142 25 178 6 17 -6
23 -19 10z"/>
<path d="M8650 5381 c0 -16 -8 -21 -42 -24 l-43 -4 43 -1 c35 -2 42 -5 42 -22
0 -18 -7 -20 -55 -20 -30 0 -55 -4 -55 -9 0 -5 30 -7 66 -6 42 2 64 0 62 -7
-4 -11 -51 -39 -108 -63 -33 -14 -29 -14 33 1 l27 6 0 -57 c0 -48 3 -56 16
-51 9 3 37 7 62 8 l47 1 -55 6 c-47 5 -55 9 -58 29 -3 21 0 22 57 22 l61 0 0
-35 c0 -58 20 -39 22 20 0 30 1 60 2 67 1 8 -19 11 -64 9 l-65 -2 33 21 c21
13 49 20 82 20 39 0 50 3 50 16 0 11 -5 14 -17 9 -58 -22 -69 -8 -27 36 14 15
21 29 16 33 -5 3 -23 -12 -41 -34 -34 -43 -71 -53 -71 -21 0 15 8 21 33 24
l32 4 -33 1 c-25 2 -32 6 -30 18 2 10 -3 19 -9 21 -8 3 -13 -4 -13 -16z m100
-161 c0 -18 -7 -20 -60 -20 -43 0 -60 4 -60 13 0 23 11 27 67 27 46 0 53 -2
53 -20z"/>
<path d="M6158 5383 c-19 -5 -25 -23 -8 -23 15 0 13 -153 -2 -168 -9 -9 -3
-12 28 -11 21 0 33 3 27 6 -9 3 -13 34 -13 104 0 54 -3 98 -7 98 -5 -1 -16 -3
-25 -6z"/>
<path d="M6294 5355 c-18 -44 -19 -41 16 -54 36 -12 52 -46 37 -79 -9 -20 -16
-23 -45 -18 -23 3 -32 1 -29 -7 2 -7 19 -11 38 -10 38 2 69 32 69 68 0 27 -36
75 -57 75 -26 0 -8 25 22 30 42 7 42 27 0 28 -32 1 -38 -2 -51 -33z"/>
<path d="M6759 5367 c-25 -28 -33 -58 -27 -111 7 -58 40 -93 74 -77 30 13 44
48 44 109 0 79 -50 123 -91 79z m55 -13 c12 -31 6 -130 -9 -150 -15 -19 -15
-19 -30 0 -17 23 -20 117 -5 147 13 23 36 25 44 3z"/>
<path d="M7520 5378 c0 -5 27 -8 61 -8 l61 0 -3 -122 c-2 -76 0 -123 6 -123 6
0 11 39 13 88 3 98 13 108 55 57 28 -33 37 -37 37 -17 0 14 -42 49 -72 60 -11
4 -18 17 -18 32 0 24 3 26 38 25 61 -3 92 0 92 8 0 4 -61 7 -135 7 -74 0 -135
-3 -135 -7z"/>
<path d="M7915 5380 c-38 -4 -55 -7 -37 -8 30 -2 32 -4 26 -29 -4 -16 -18 -43
-31 -61 -14 -18 -22 -36 -18 -40 4 -4 13 1 20 11 13 18 14 18 34 -2 12 -12 21
-27 21 -33 -1 -19 -26 -49 -57 -70 -29 -19 -16 -25 17 -8 26 14 87 102 98 144
11 38 4 50 -22 40 -9 -3 -23 -3 -32 0 -27 10 0 41 38 41 18 0 35 4 38 10 6 12
-8 13 -95 5z m50 -97 c-9 -40 -17 -44 -44 -22 -31 25 -21 49 20 49 29 0 31 -2
24 -27z"/>
<path d="M9386 5375 c-3 -8 -16 -15 -28 -15 -13 0 -29 -9 -35 -19 -17 -28 -4
-34 17 -8 25 31 37 14 14 -20 -14 -23 -17 -44 -15 -113 2 -81 9 -109 18 -82 3
8 27 12 69 12 40 0 63 4 59 10 -3 5 -19 7 -35 3 -26 -5 -30 -2 -30 16 0 17 6
21 32 21 17 0 28 3 24 8 -4 4 -17 7 -29 7 -13 0 -23 7 -25 18 -3 13 3 17 27
17 17 0 31 5 31 11 0 7 -10 9 -25 5 -21 -5 -25 -3 -25 14 0 17 4 19 25 14 19
-5 25 -2 25 11 0 12 -5 15 -20 10 -14 -5 -27 0 -41 17 l-20 23 6 -22 c5 -19 2
-23 -14 -23 -24 0 -25 1 -9 35 9 20 18 25 45 25 30 0 33 -3 28 -20 -8 -25 3
-26 21 -2 21 27 17 32 -31 32 -35 0 -43 3 -39 15 4 8 2 15 -4 15 -5 0 -12 -7
-16 -15z m17 -101 c11 -11 -5 -34 -24 -34 -12 0 -19 7 -19 20 0 19 28 28 43
14z m-3 -64 c0 -11 -6 -20 -12 -21 -10 0 -10 -2 0 -6 20 -8 15 -43 -7 -43 -16
0 -19 7 -19 45 1 37 5 45 20 45 11 0 18 -7 18 -20z"/>
<path d="M8360 5370 l-85 -6 73 -2 72 -2 0 -105 0 -105 -32 0 -33 0 30 -16
c45 -23 55 -2 55 118 0 78 3 100 15 104 14 6 11 26 -3 22 -4 -1 -45 -5 -92 -8z"/>
<path d="M9110 5370 c0 -6 -12 -9 -27 -8 -16 1 -39 1 -53 0 l-25 -2 2 -112 2
-113 57 -3 c68 -4 93 3 76 20 -9 9 -15 9 -24 0 -7 -7 -29 -12 -50 -12 l-38 0
0 55 0 55 46 0 c32 0 44 4 41 13 -2 8 -18 11 -45 9 l-42 -4 0 41 0 41 55 0
c42 0 55 3 55 15 0 8 -7 15 -15 15 -8 0 -15 -5 -15 -10z"/>
<path d="M9285 5370 c-5 -8 -20 -9 -44 -5 -33 6 -34 5 -17 -8 18 -13 19 -18 7
-58 -7 -24 -18 -50 -25 -58 -9 -12 -8 -13 7 -8 15 6 17 0 17 -48 0 -30 5 -55
10 -55 6 0 10 5 10 10 0 6 12 10 28 10 27 0 27 1 28 65 l1 65 -29 0 c-27 0
-30 3 -24 23 3 12 6 27 6 34 0 6 12 13 28 15 25 3 30 11 12 24 -5 3 -11 0 -15
-6z m-1 -123 c0 -9 -1 -33 -2 -52 -1 -24 -7 -35 -17 -35 -12 0 -15 13 -15 56
0 47 3 55 18 52 9 -2 17 -11 16 -21z"/>
<path d="M9640 5356 c-13 -15 -20 -32 -17 -40 10 -25 25 -19 29 12 2 22 8 28
35 30 27 3 33 -1 39 -22 4 -19 -1 -34 -25 -63 -30 -37 -41 -73 -21 -73 6 0 10
8 10 18 0 10 14 31 30 47 35 33 39 73 12 98 -27 24 -65 21 -92 -7z"/>
<path d="M8041 5278 c2 -102 6 -94 11 20 2 39 0 72 -4 72 -4 0 -7 -42 -7 -92z"/>
<path d="M8905 5360 c40 -10 85 -12 85 -2 0 4 -26 8 -57 9 -46 1 -52 0 -28 -7z"/>
<path d="M1910 5336 c0 -8 5 -18 10 -21 8 -5 7 -11 -1 -21 -14 -17 -4 -33 12
-17 18 18 16 67 -3 71 -11 2 -18 -3 -18 -12z"/>
<path d="M5376 5337 c-5 -9 -6 -26 -3 -37 4 -17 0 -20 -35 -20 -23 0 -37 -4
-33 -10 3 -5 19 -10 36 -10 27 0 29 -3 29 -35 0 -19 5 -35 10 -35 6 0 10 16
10 35 0 33 2 35 35 35 19 0 35 5 35 10 0 6 -15 10 -34 10 -33 0 -35 2 -38 38
-3 28 -6 33 -12 19z"/>
<path d="M5970 5305 c0 -33 -2 -35 -35 -35 -19 0 -35 -5 -35 -11 0 -6 10 -9
23 -8 34 5 47 -9 47 -49 0 -28 3 -33 10 -22 5 8 10 27 10 43 0 23 4 27 30 27
17 0 30 5 30 10 0 6 -13 10 -30 10 -28 0 -30 3 -30 35 0 19 -4 35 -10 35 -5 0
-10 -16 -10 -35z"/>
<path d="M3490 5326 c0 -4 11 -24 25 -44 20 -29 25 -33 25 -16 0 11 -11 31
-25 44 -14 13 -25 20 -25 16z"/>
<path d="M4951 5298 c-55 -56 -34 -132 25 -93 21 14 24 14 24 0 0 -8 7 -15 15
-15 14 0 19 11 16 36 -1 6 6 30 14 54 8 23 15 44 15 46 0 2 -17 4 -39 4 -30 0
-45 -7 -70 -32z m69 -8 c0 -34 -33 -73 -58 -68 -22 5 -17 42 11 74 28 33 47
31 47 -6z"/>
<path d="M5110 5320 c0 -5 7 -10 15 -10 13 0 19 -19 18 -57 -1 -7 3 -13 8 -13
5 0 9 -9 9 -19 0 -26 17 -36 35 -21 19 16 19 31 1 24 -9 -3 -16 4 -20 21 -7
29 7 55 30 55 8 0 14 7 14 15 0 22 -18 18 -31 -7 l-12 -22 -15 22 c-14 22 -52
31 -52 12z"/>
<path d="M5711 5321 c-10 -7 -11 -9 0 -13 8 -3 14 -28 17 -66 5 -67 -8 -97
-39 -89 -19 5 -34 -18 -19 -28 10 -6 80 44 80 58 0 4 15 24 33 43 43 48 49 61
42 84 -9 30 -26 24 -23 -7 2 -28 -27 -83 -43 -83 -5 0 -9 18 -9 39 0 64 -10
80 -39 62z"/>
<path d="M8285 5302 c-9 -23 -5 -102 4 -102 6 0 13 4 16 10 3 5 21 9 38 7 32
-2 32 -2 35 48 l3 50 -45 0 c-29 0 -48 -5 -51 -13z m75 -35 c0 -41 -4 -45 -35
-39 -19 3 -25 11 -25 31 0 34 7 41 37 41 19 0 23 -5 23 -33z"/>
<path d="M4096 5296 c3 -9 11 -16 16 -16 13 0 5 23 -10 28 -7 2 -10 -2 -6 -12z"/>
<path d="M4225 5300 c-11 -5 -32 -9 -47 -9 -15 -1 -30 -6 -34 -12 -4 -8 3 -9
25 -4 27 6 31 4 31 -14 0 -16 -8 -21 -37 -24 l-38 -4 38 -1 c32 -2 37 -5 37
-27 0 -23 -4 -25 -46 -25 -27 0 -43 -4 -39 -10 3 -5 46 -10 96 -10 74 0 89 3
89 16 0 11 -6 14 -22 9 -13 -4 -25 -7 -28 -7 -24 0 -30 5 -30 27 0 22 4 25 36
25 20 0 33 4 29 10 -3 5 -19 7 -35 3 -26 -5 -30 -2 -30 16 0 16 8 23 30 28 17
3 30 9 30 14 0 11 -28 10 -55 -1z"/>
<path d="M6480 5290 c0 -6 34 -10 81 -10 51 0 78 4 74 10 -3 6 -40 10 -81 10
-43 0 -74 -4 -74 -10z"/>
<path d="M7157 5281 c-6 -24 10 -41 40 -41 19 0 23 5 23 30 0 26 -3 30 -29 30
-20 0 -30 -6 -34 -19z m53 -11 c0 -21 -24 -28 -35 -10 -8 14 3 30 21 30 8 0
14 -9 14 -20z"/>
<path d="M8922 5253 c0 -117 1 -113 -32 -106 -19 3 -30 1 -30 -6 0 -7 23 -11
68 -10 37 1 57 4 44 6 -23 4 -23 8 -20 84 3 68 1 79 -13 79 -13 0 -16 -10 -17
-47z"/>
<path d="M4613 5240 c-1 -51 -15 -68 -51 -63 l-27 4 25 -15 c36 -21 56 -5 69
54 14 63 14 60 -2 60 -8 0 -13 -14 -14 -40z"/>
<path d="M540 5246 c0 -8 5 -18 10 -21 6 -3 10 3 10 14 0 12 -4 21 -10 21 -5
0 -10 -6 -10 -14z"/>
<path d="M2561 5245 c0 -18 28 -61 29 -44 0 8 -7 24 -15 35 -8 10 -14 15 -14
9z"/>
<path d="M4572 5230 c14 -22 24 -19 15 5 -4 8 -11 15 -17 15 -6 0 -6 -7 2 -20z"/>
<path d="M4470 5216 c0 -14 5 -28 10 -31 6 -4 10 7 10 24 0 17 -4 31 -10 31
-5 0 -10 -11 -10 -24z"/>
<path d="M4520 5221 c0 -11 5 -23 10 -26 6 -3 10 3 10 14 0 11 -4 23 -10 26
-5 3 -10 -3 -10 -14z"/>
<path d="M6483 5234 c3 -3 38 -6 77 -6 39 0 74 3 77 6 4 3 -31 6 -77 6 -46 0
-81 -3 -77 -6z"/>
<path d="M2534 5210 c3 -14 6 -28 6 -32 0 -5 5 -8 10 -8 15 0 12 24 -6 46 -15
18 -15 18 -10 -6z"/>
<path d="M4426 5208 c-18 -25 -20 -38 -7 -38 5 0 14 14 20 30 12 36 8 38 -13
8z"/>
<path d="M5101 5219 c-19 -7 -22 -12 -13 -21 9 -9 17 -7 34 10 24 23 18 27
-21 11z"/>
<path d="M9664 5159 c-3 -6 -1 -16 5 -22 9 -9 14 -8 21 3 9 15 4 30 -10 30 -5
0 -12 -5 -16 -11z"/>
<path d="M1488 4603 c15 -6 17 -183 2 -183 -5 0 -10 -4 -10 -10 0 -5 16 -10
35 -10 19 0 35 5 35 10 0 6 -4 10 -10 10 -15 0 -13 163 2 178 9 9 3 12 -27 11
-22 0 -34 -3 -27 -6z"/>
<path d="M2566 4595 c3 -8 -6 -51 -21 -96 -30 -89 -27 -102 25 -102 42 0 79
44 80 94 0 40 -22 55 -55 36 -16 -9 -17 -6 -12 19 3 16 9 37 12 47 5 13 2 17
-14 17 -14 0 -19 -5 -15 -15z m64 -110 c0 -30 -37 -75 -61 -75 -23 0 -25 29
-4 70 23 45 65 48 65 5z"/>
<path d="M2284 4541 c4 -7 33 -23 63 -37 31 -13 53 -27 49 -31 -4 -4 -30 -17
-59 -29 -28 -12 -53 -27 -55 -34 -3 -7 -1 -11 4 -8 5 2 32 14 59 26 102 45
103 49 23 86 -88 40 -93 41 -84 27z"/>
<path d="M2080 4503 c-23 -26 -30 -43 -28 -66 2 -26 7 -32 27 -32 13 0 26 5
28 11 2 7 -4 11 -14 10 -38 -3 1 94 41 102 20 4 22 -46 2 -73 -16 -22 -10 -55
10 -55 8 0 14 3 15 8 0 4 2 21 3 37 2 17 8 44 13 60 10 31 10 31 -28 32 -32 2
-43 -4 -69 -34z"/>
<path d="M7973 4493 c-10 -3 -9 -8 2 -20 18 -18 21 -123 3 -141 -7 -7 -20 -12
-30 -12 -10 0 -18 -7 -18 -15 0 -25 18 -17 61 26 28 28 39 46 34 57 -4 9 -9
38 -12 65 -6 45 -12 52 -40 40z"/>
<path d="M8058 4463 c-3 -21 -8 -47 -12 -58 -4 -11 2 -4 13 15 21 36 28 80 12
80 -5 0 -11 -17 -13 -37z"/>
<path d="M1595 4430 c-7 -12 2 -30 16 -30 12 0 12 27 0 35 -5 3 -12 1 -16 -5z"/>
<path d="M8191 4408 c-8 -18 -36 -78 -62 -132 -27 -55 -46 -104 -42 -109 6
-10 45 58 80 138 12 27 27 51 34 54 8 2 10 -2 6 -13 -4 -10 -7 -135 -7 -277
l0 -260 -72 2 c-55 2 -73 -1 -73 -11 0 -10 18 -13 73 -11 l72 2 0 -314 c0
-172 -3 -316 -6 -320 -3 -3 -27 6 -54 19 -26 13 -51 24 -54 24 -3 0 -41 16
-83 36 -75 36 -282 124 -289 124 -14 0 0 -22 19 -30 59 -24 339 -146 395 -171
34 -16 62 -34 62 -41 2 -54 -2 -591 -5 -623 -2 -22 -5 -267 -6 -545 -2 -278
-5 -570 -7 -649 l-3 -143 -350 4 c-281 3 -349 1 -349 -9 0 -10 70 -13 350 -13
l350 0 0 -330 c0 -213 4 -330 10 -330 6 0 11 87 12 238 1 130 2 246 3 257 1
11 3 53 4 94 l1 74 123 -7 c67 -3 619 -9 1227 -12 608 -3 1164 -7 1235 -9 72
-1 365 -3 653 -4 l523 -1 -2 -77 c-1 -51 2 -78 9 -81 8 -2 13 11 14 35 2 36 4
67 7 105 1 16 29 17 384 12 210 -2 394 -7 410 -9 15 -3 51 -15 80 -29 28 -13
75 -34 102 -46 28 -12 77 -34 110 -50 33 -16 94 -43 135 -61 41 -17 107 -46
145 -64 39 -18 82 -36 95 -40 14 -4 54 -22 90 -40 96 -49 139 -65 145 -55 6 9
-27 26 -230 115 -66 29 -146 64 -177 79 -31 14 -60 26 -63 26 -4 0 -54 23
-112 50 -58 28 -107 50 -109 50 -9 0 -135 62 -132 66 7 6 1378 -9 1373 -15 -2
-3 -36 -23 -77 -44 -40 -21 -82 -45 -92 -53 -33 -24 -8 -29 32 -6 20 12 79 43
130 69 92 46 107 64 72 84 -64 37 -242 115 -245 108 -5 -8 42 -49 56 -49 9 0
159 -69 159 -73 0 -1 -334 0 -742 1 -609 3 -748 6 -770 18 -14 8 -73 34 -130
58 -57 25 -125 56 -153 70 -27 14 -53 26 -57 26 -4 0 -38 14 -75 31 -38 17
-91 42 -120 55 -28 13 -54 24 -58 24 -3 0 -50 21 -103 46 -53 25 -119 55 -147
65 -55 22 -75 30 -188 83 -42 20 -80 36 -83 36 -2 0 -35 14 -72 31 -74 34 -91
42 -207 92 -44 19 -106 46 -137 61 -31 14 -59 26 -62 26 -5 0 -67 27 -171 76
-27 12 -72 32 -100 42 -27 11 -93 40 -145 64 -52 25 -135 62 -185 83 -49 22
-99 45 -110 52 -11 7 -25 13 -32 13 -11 0 -43 14 -178 75 -125 57 -289 130
-385 171 -133 57 -258 113 -420 187 -30 14 -77 34 -105 45 -27 11 -89 38 -138
61 -48 23 -90 41 -93 41 -3 0 -38 15 -77 34 -40 19 -121 56 -182 82 -60 25
-137 59 -170 74 -33 15 -125 56 -205 90 -80 34 -169 73 -197 86 l-53 24 0 326
0 327 75 -6 c63 -6 75 -4 75 8 0 12 -15 15 -72 15 l-73 0 0 275 c0 151 3 275
7 275 4 0 24 -30 43 -67 70 -135 77 -145 89 -133 7 7 6 18 -7 38 -9 15 -44 75
-78 135 -33 59 -64 107 -67 107 -4 0 -13 -15 -21 -32z m204 -1368 c22 -10 74
-32 115 -49 41 -18 93 -40 115 -51 55 -25 138 -62 215 -95 36 -16 97 -43 137
-62 39 -18 74 -33 77 -33 3 0 50 -21 103 -46 54 -25 119 -54 145 -65 26 -10
86 -36 133 -59 48 -22 89 -40 91 -40 3 0 69 -29 148 -65 79 -36 146 -65 150
-65 3 0 54 -23 113 -51 60 -28 131 -60 158 -71 28 -10 84 -35 125 -55 41 -19
98 -44 125 -55 28 -10 75 -30 105 -45 30 -14 89 -40 131 -58 41 -18 102 -45
135 -60 32 -14 68 -31 79 -35 11 -5 86 -39 168 -75 81 -36 150 -65 153 -65 3
0 43 -18 90 -40 47 -22 87 -40 90 -40 2 0 32 -13 66 -29 35 -16 110 -49 168
-74 102 -44 203 -89 286 -128 22 -10 44 -19 48 -19 5 0 36 -13 70 -29 33 -16
81 -38 106 -49 25 -11 111 -49 192 -86 81 -36 149 -66 152 -66 3 0 47 -20 98
-44 51 -24 123 -56 161 -71 37 -15 67 -32 67 -37 0 -6 -97 -8 -252 -4 -139 3
-301 5 -360 6 l-108 0 0 75 c0 60 -3 75 -15 75 -12 0 -15 -15 -15 -76 l0 -77
-507 7 c-280 3 -953 8 -1498 11 -544 3 -1163 8 -1374 11 l-384 6 7 737 c3 405
6 835 7 956 0 121 3 230 6 241 5 22 5 22 71 -8 37 -17 85 -38 107 -48z"/>
<path d="M1484 4187 c15 -11 17 -25 14 -96 -3 -58 -8 -85 -18 -91 -11 -7 -2
-10 30 -10 34 0 41 3 32 12 -17 17 -16 185 1 191 6 3 -8 6 -32 6 -39 1 -43 -1
-27 -12z"/>
<path d="M1588 4188 c7 -7 12 -45 12 -99 0 -75 -3 -88 -17 -92 -10 -3 5 -5 32
-6 38 0 46 2 33 10 -25 14 -26 159 -2 183 14 15 12 16 -27 16 -34 0 -40 -3
-31 -12z"/>
<path d="M2714 4176 c-10 -8 -16 -18 -12 -22 4 -4 14 -2 21 5 8 6 22 9 31 5
23 -9 20 -49 -6 -67 -18 -12 -19 -16 -7 -16 29 -1 43 -28 30 -57 -9 -22 -17
-25 -41 -22 -22 3 -30 0 -30 -10 0 -11 8 -13 36 -9 54 9 67 24 60 71 -9 62 -9
70 -2 87 8 19 -18 49 -43 49 -9 0 -26 -6 -37 -14z"/>
<path d="M2280 4131 c0 -5 25 -21 55 -36 30 -14 53 -30 50 -35 -3 -5 -31 -21
-63 -36 -31 -14 -52 -28 -46 -31 12 -4 154 58 154 68 0 8 -105 59 -120 59 -6
0 -10 5 -10 10 0 6 -4 10 -10 10 -5 0 -10 -4 -10 -9z"/>
<path d="M2079 4097 c-46 -48 -48 -107 -4 -107 13 0 27 5 30 10 10 16 25 12
25 -6 0 -13 3 -14 15 -4 8 7 13 16 10 20 -3 4 2 30 10 56 8 27 15 49 15 50 0
0 -18 1 -40 2 -29 1 -45 -4 -61 -21z m66 -14 c-10 -43 -33 -73 -55 -73 -14 0
-20 7 -20 24 0 31 36 76 62 76 17 0 19 -4 13 -27z"/>
<path d="M2524 4062 c7 -12 143 -15 151 -3 4 8 -20 11 -75 11 -45 0 -79 -3
-76 -8z"/>
<path d="M1696 4023 c-12 -12 -6 -33 9 -33 8 0 15 6 15 14 0 17 -14 28 -24 19z"/>
<path d="M7885 3870 c-10 -11 -13 -20 -7 -20 6 0 14 5 17 10 11 18 43 11 50
-11 5 -14 0 -28 -15 -44 l-21 -22 21 -6 c17 -4 21 -12 18 -39 -3 -31 -5 -33
-41 -33 -23 0 -37 -5 -37 -12 0 -8 14 -13 34 -13 25 0 40 7 55 26 25 32 26 52
6 81 -10 14 -12 24 -5 28 14 9 13 48 -2 63 -18 18 -53 14 -73 -8z"/>
<path d="M1470 3791 c0 -6 5 -11 10 -11 15 0 13 -177 -2 -183 -7 -3 6 -6 30
-6 40 -1 42 0 28 15 -19 18 -22 133 -6 165 9 16 7 19 -9 19 -11 0 -26 3 -35 6
-9 3 -16 1 -16 -5z"/>
<path d="M2073 3766 c-1 -19 -12 -63 -24 -97 -22 -60 -22 -62 -4 -75 45 -33
118 22 113 85 -3 34 -5 36 -36 34 -36 -1 -36 1 -16 70 4 12 0 17 -13 17 -14 0
-18 -9 -20 -34z m63 -80 c8 -21 -24 -83 -46 -89 -36 -9 -42 7 -21 56 15 34 26
47 41 47 11 0 23 -6 26 -14z"/>
<path d="M1588 3783 c8 -3 12 -31 12 -88 0 -69 -3 -86 -17 -94 -14 -8 -8 -10
27 -11 28 0 40 3 32 9 -10 6 -13 32 -10 100 l3 91 -30 -1 c-16 0 -24 -3 -17
-6z"/>
<path d="M1688 3783 c16 -6 17 -164 0 -181 -9 -9 -3 -12 28 -11 21 0 33 3 27
6 -9 3 -13 32 -13 93 0 61 4 90 13 93 6 3 -6 5 -28 5 -22 0 -34 -2 -27 -5z"/>
<path d="M2725 3770 c-7 -8 -16 -25 -19 -36 -5 -18 -1 -24 24 -32 38 -14 57
-51 40 -82 -10 -19 -18 -21 -47 -17 -24 4 -33 2 -30 -6 6 -18 35 -20 68 -7 52
22 52 96 -1 127 -41 24 -39 43 5 43 21 0 35 5 35 13 0 17 -59 15 -75 -3z"/>
<path d="M2264 3729 c-3 -5 23 -22 58 -38 l63 -28 -65 -33 c-36 -18 -59 -35
-53 -37 12 -4 140 53 147 66 2 3 -29 22 -70 42 -41 20 -77 33 -80 28z"/>
<path d="M2515 3660 c3 -5 40 -10 81 -10 43 0 74 4 74 10 0 6 -34 10 -81 10
-51 0 -78 -4 -74 -10z"/>
<path d="M1790 3605 c0 -8 7 -15 15 -15 8 0 15 7 15 15 0 8 -7 15 -15 15 -8 0
-15 -7 -15 -15z"/>
<path d="M3305 3060 c-5 -16 -15 -20 -56 -20 -27 0 -49 -4 -49 -10 0 -5 20
-10 45 -10 44 0 45 -1 34 -22 -7 -13 -28 -37 -48 -55 -20 -17 -33 -34 -30 -38
4 -3 21 9 38 27 l31 33 0 -45 c0 -25 -4 -61 -10 -79 -13 -48 -4 -52 15 -7 l16
37 62 -3 c54 -3 62 -5 62 -23 0 -14 -6 -20 -22 -19 -13 0 -23 -3 -23 -8 0 -4
6 -8 14 -8 8 0 17 -6 19 -12 12 -28 27 19 27 82 0 36 3 74 6 85 5 19 1 20 -70
17 -42 -2 -76 0 -76 5 0 24 29 33 108 33 59 0 83 3 80 12 -3 7 -30 10 -82 9
-75 -2 -78 -1 -71 18 3 12 2 21 -4 21 -5 0 -13 -9 -16 -20z m113 -107 c-3 -15
-14 -18 -63 -18 -49 0 -60 3 -63 18 -3 15 5 17 63 17 58 0 66 -2 63 -17z m-3
-53 c0 -11 -15 -16 -62 -18 -58 -3 -63 -1 -63 18 0 19 5 21 63 18 47 -2 62 -7
62 -18z"/>
<path d="M2023 2964 c-26 -54 -49 -102 -51 -106 -2 -5 6 -8 17 -8 15 0 21 6
21 23 0 32 18 47 57 47 26 0 36 -5 42 -22 5 -13 6 -29 4 -35 -3 -9 4 -13 21
-13 26 0 35 13 17 25 -5 3 -22 42 -36 88 -15 45 -31 86 -36 91 -4 5 -29 -35
-56 -90z m65 -6 c11 -27 10 -28 -18 -28 -33 0 -38 16 -19 52 12 22 19 17 37
-24z"/>
<path d="M2910 2985 l0 -70 95 3 95 3 0 54 c0 29 2 59 5 67 4 10 -16 13 -95
13 l-100 0 0 -70z m170 0 l0 -55 -75 0 -75 0 0 55 0 55 75 0 75 0 0 -55z"/>
<path d="M4070 3050 c-47 -3 -75 -7 -62 -8 20 -2 22 -7 22 -56 0 -62 -21 -119
-58 -158 -14 -15 -23 -30 -20 -34 15 -14 88 93 88 129 0 26 18 29 26 5 3 -13
15 -34 25 -49 17 -24 17 -25 -4 -39 -12 -8 -38 -22 -57 -32 -35 -17 -35 -17
-5 -11 17 3 47 16 67 29 22 14 40 20 43 14 9 -14 88 -49 97 -44 16 10 7 24
-16 24 -13 0 -34 8 -47 19 l-22 18 19 29 c11 16 25 41 32 57 11 26 11 27 -19
27 -33 0 -33 -4 -13 68 4 12 2 21 -2 20 -5 -1 -47 -5 -94 -8z m69 -42 c-5 -18
-9 -34 -9 -35 0 -2 -18 -3 -40 -3 -39 0 -40 1 -40 35 l0 35 49 0 50 0 -10 -32z
m41 -59 c0 -19 -41 -79 -54 -79 -11 0 -56 68 -56 84 0 3 25 6 55 6 34 0 55 -4
55 -11z"/>
<path d="M3708 3033 c8 -3 12 -31 12 -88 0 -69 -3 -86 -17 -94 -14 -8 -6 -10
32 -10 28 1 42 3 32 6 -16 4 -18 15 -15 99 l3 94 -30 -1 c-16 0 -24 -3 -17 -6z"/>
<path d="M4463 3029 c24 -14 25 -154 0 -181 -15 -17 -14 -18 27 -18 34 0 41 3
32 12 -16 16 -16 170 0 186 9 9 2 12 -32 12 -36 -1 -41 -3 -27 -11z"/>
<path d="M4568 3028 c15 -15 17 -178 2 -178 -5 0 -10 -4 -10 -10 0 -5 19 -10
42 -10 38 0 40 1 25 18 -19 21 -17 153 3 177 11 13 7 15 -31 15 -33 0 -40 -3
-31 -12z"/>
<path d="M2912 2853 c-24 -24 -41 -47 -38 -51 7 -6 96 77 96 90 0 16 -16 5
-58 -39z"/>
<path d="M3040 2897 c0 -6 79 -87 85 -87 14 0 1 22 -32 54 -33 31 -53 44 -53
33z"/>
<path d="M2207 2874 c-8 -8 1 -24 14 -24 5 0 9 7 9 15 0 15 -12 20 -23 9z"/>
<path d="M3295 2310 c-5 -16 -15 -20 -56 -20 -33 0 -48 -4 -44 -11 4 -6 21 -9
39 -8 51 5 50 -17 -6 -70 -23 -23 -39 -43 -36 -46 3 -3 19 8 36 24 16 17 32
27 36 24 7 -8 -2 -79 -16 -116 -16 -42 0 -45 17 -4 15 37 16 37 75 37 58 0 60
-1 60 -26 0 -21 -4 -25 -20 -21 -11 3 -20 2 -20 -3 0 -10 50 -23 59 -15 3 4 8
50 10 103 2 80 1 94 -10 86 -16 -12 -139 -18 -139 -6 1 28 21 35 105 33 68 -2
86 1 82 11 -2 7 -11 11 -18 9 -18 -4 -22 -4 -87 -3 -48 2 -53 4 -47 22 3 11 2
20 -4 20 -5 0 -13 -9 -16 -20z m113 -107 c-3 -15 -14 -18 -63 -18 -49 0 -60 3
-63 18 -3 15 5 17 63 17 58 0 66 -2 63 -17z m-8 -54 c0 -19 -5 -20 -57 -17
-45 2 -58 7 -61 21 -3 15 5 17 57 17 55 0 61 -2 61 -21z"/>
<path d="M1973 2300 c14 -9 17 -26 17 -90 0 -43 -4 -82 -10 -85 -40 -25 72
-36 120 -12 28 14 39 59 21 81 -8 9 -8 22 -2 39 8 20 6 31 -8 48 -15 19 -30
23 -87 26 -53 3 -65 1 -51 -7z m117 -25 c18 -21 3 -55 -25 -55 -13 0 -27 -4
-30 -10 -3 -5 3 -10 14 -10 36 0 51 -12 51 -40 0 -30 -15 -40 -61 -40 l-29 0
4 63 c2 34 4 72 5 85 1 17 7 22 30 22 16 0 34 -7 41 -15z"/>
<path d="M2900 2235 l0 -70 95 3 95 3 0 54 c0 29 2 59 5 67 4 10 -16 13 -95
13 l-100 0 0 -70z m170 0 l0 -55 -75 0 -75 0 0 55 0 55 75 0 75 0 0 -55z"/>
<path d="M4060 2299 c-47 -3 -72 -6 -57 -7 l29 -2 -7 -57 c-8 -69 -23 -107
-60 -151 -31 -37 -30 -49 3 -26 22 15 50 67 70 129 9 27 10 28 16 10 4 -11 16
-37 27 -57 l19 -37 -22 -15 c-13 -8 -35 -18 -51 -21 -15 -4 -30 -12 -33 -17
-8 -13 29 -2 80 23 38 20 39 20 82 0 47 -22 79 -27 69 -11 -3 6 -14 10 -24 10
-11 0 -29 8 -42 19 l-23 18 33 51 c36 57 35 72 -5 64 -23 -4 -25 -2 -20 17 3
11 8 30 11 40 8 26 3 27 -95 20z m66 -44 c-10 -32 -14 -35 -48 -35 -37 0 -38
1 -38 35 l0 35 49 0 48 0 -11 -35z m44 -54 c0 -15 -41 -81 -50 -81 -13 0 -50
56 -50 74 0 13 11 16 50 16 28 0 50 -4 50 -9z"/>
<path d="M3708 2196 c3 -84 1 -95 -15 -99 -10 -3 2 -5 27 -6 28 0 40 3 32 8
-10 6 -13 32 -10 100 3 85 2 91 -17 91 -19 0 -20 -6 -17 -94z"/>
<path d="M4453 2283 c14 -4 17 -17 17 -90 0 -70 -3 -88 -17 -99 -16 -12 -13
-13 25 -14 23 0 42 5 42 10 0 6 -4 10 -10 10 -6 0 -10 35 -10 85 0 69 3 86 18
94 13 8 5 10 -33 10 -27 -1 -42 -3 -32 -6z"/>
<path d="M4563 2279 c24 -14 25 -154 0 -181 -15 -17 -14 -18 27 -18 40 0 42 1
27 18 -19 22 -16 170 5 183 8 5 -4 9 -32 9 -35 -1 -41 -3 -27 -11z"/>
<path d="M4669 2277 c6 -6 11 -48 11 -94 0 -68 -3 -84 -17 -92 -14 -8 -9 -10
27 -11 34 0 41 3 32 12 -7 7 -12 44 -12 95 0 68 3 84 18 92 13 7 7 10 -26 9
-31 0 -41 -3 -33 -11z"/>
<path d="M2905 2104 c-42 -49 -45 -55 -20 -40 36 22 78 72 73 87 -2 5 -26 -16
-53 -47z"/>
<path d="M3064 2110 c20 -22 36 -45 36 -50 0 -6 5 -10 10 -10 22 0 8 34 -27
66 -51 47 -63 43 -19 -6z"/>
<path d="M2182 2113 c2 -10 8 -18 13 -18 5 0 11 8 13 18 2 10 -3 17 -13 17
-10 0 -15 -7 -13 -17z"/>
<path d="M3284 1555 c-5 -22 -12 -25 -58 -27 l-51 -2 46 -3 c41 -4 46 -7 42
-23 -3 -11 -23 -36 -44 -55 -22 -19 -39 -37 -39 -40 0 -12 20 -3 41 20 13 13
27 25 32 25 12 0 8 -65 -8 -110 -11 -30 -11 -40 -2 -37 6 2 16 18 21 36 9 32
9 32 70 29 56 -3 61 -5 64 -27 3 -21 0 -23 -22 -19 -14 3 -26 1 -26 -3 0 -5 6
-9 14 -9 8 0 16 -6 19 -12 3 -10 7 -10 20 1 14 11 17 32 17 109 0 75 -3 93
-12 84 -7 -7 -38 -12 -71 -12 -50 0 -58 2 -55 18 3 14 17 17 91 20 48 1 87 6
87 11 0 15 -13 21 -26 10 -7 -5 -39 -9 -71 -7 -54 3 -58 5 -55 26 4 30 -16 28
-24 -3z m114 -102 c-3 -15 -14 -18 -63 -18 -49 0 -60 3 -63 18 -3 15 5 17 63
17 58 0 66 -2 63 -17z m2 -53 c0 -18 -7 -20 -59 -20 -58 0 -79 9 -66 30 3 6
33 10 66 10 52 0 59 -2 59 -20z"/>
<path d="M2012 1543 c-87 -43 -59 -193 37 -193 37 0 81 23 81 42 0 6 -9 3 -20
-7 -24 -22 -77 -22 -99 0 -11 11 -16 34 -16 71 0 64 17 84 72 84 25 0 36 -6
47 -27 l15 -28 1 33 c0 21 -5 32 -14 32 -7 0 -26 2 -42 5 -17 3 -43 -2 -62
-12z"/>
<path d="M2890 1485 l0 -70 98 0 97 0 1 70 1 70 -99 0 -98 0 0 -70z m168 -4
l3 -51 -75 0 -76 0 0 48 c0 27 2 51 4 53 2 2 35 3 73 3 l68 -2 3 -51z"/>
<path d="M4153 1553 c-50 -2 -83 -8 -83 -14 0 -7 10 -9 26 -5 l27 7 -6 -70
c-5 -66 -38 -142 -71 -163 -6 -4 -7 -11 -2 -15 15 -15 63 59 91 142 7 19 7 19
16 -4 5 -13 18 -36 29 -51 23 -32 19 -38 -51 -69 -24 -11 -39 -21 -33 -21 20
0 79 22 95 37 14 12 23 10 68 -13 39 -21 55 -24 63 -16 9 9 8 12 -5 12 -15 0
-72 24 -85 35 -2 2 13 28 32 58 20 31 36 59 36 62 0 3 -15 5 -34 5 l-34 0 13
37 c13 37 11 55 -3 51 -4 -1 -44 -4 -89 -5z m73 -35 c-3 -13 -6 -29 -6 -35 0
-8 -15 -13 -40 -13 -37 0 -40 2 -40 28 0 37 6 42 53 42 36 0 39 -2 33 -22z
m30 -95 c-8 -16 -21 -36 -29 -47 -13 -18 -15 -17 -35 16 -32 51 -29 58 28 58
l51 0 -15 -27z"/>
<path d="M3680 1541 c0 -6 5 -11 10 -11 16 0 13 -180 -2 -181 -7 0 -4 -4 7 -8
11 -4 29 -6 40 -3 11 3 14 7 7 10 -8 2 -12 31 -12 92 0 76 2 89 18 93 11 3 7
5 -10 6 -14 0 -33 4 -42 7 -9 3 -16 1 -16 -5z"/>
<path d="M3793 1529 c14 -8 17 -24 17 -92 0 -51 -5 -88 -12 -95 -9 -9 -5 -12
17 -12 l30 0 -3 96 c-3 72 0 99 10 105 8 6 -4 9 -32 9 -35 -1 -41 -3 -27 -11z"/>
<path d="M4558 1523 c14 -5 16 -85 3 -150 l-8 -43 34 0 c31 0 33 1 19 16 -19
18 -22 133 -6 165 10 17 7 19 -22 18 -18 0 -27 -3 -20 -6z"/>
<path d="M4668 1439 c3 -68 0 -94 -10 -100 -8 -6 2 -8 27 -8 22 0 34 3 28 6
-9 3 -13 32 -13 93 0 61 4 90 13 93 6 3 -1 6 -18 6 l-30 1 3 -91z"/>
<path d="M4770 1515 c17 -20 7 -164 -12 -176 -8 -6 4 -9 32 -9 28 0 40 3 32 9
-10 6 -13 32 -10 100 l3 91 -29 0 c-24 0 -27 -2 -16 -15z"/>
<path d="M2930 1392 c0 -5 -19 -28 -42 -50 -49 -49 -36 -57 17 -11 45 40 62
69 40 69 -8 0 -15 -4 -15 -8z"/>
<path d="M3060 1353 c24 -27 45 -50 47 -52 2 -2 3 3 3 11 0 17 -68 88 -83 88
-5 0 10 -21 33 -47z"/>
<path d="M2174 1364 c3 -9 6 -18 6 -20 0 -2 5 -4 10 -4 6 0 10 9 10 20 0 12
-7 20 -16 20 -11 0 -14 -5 -10 -16z"/>
<path d="M7942 1023 c-38 -18 -82 -87 -82 -127 0 -30 40 -76 65 -76 32 0 83
29 104 58 53 75 30 162 -44 162 -5 0 -25 -8 -43 -17z m72 -9 c49 -49 -26 -195
-91 -178 -53 14 -34 129 27 172 39 26 44 27 64 6z"/>
<path d="M14355 1000 c-3 -5 0 -10 9 -10 23 0 31 -58 10 -81 -9 -10 -23 -19
-31 -19 -7 0 -13 -7 -13 -15 0 -23 16 -18 39 12 23 28 23 29 41 -5 l12 -24 19
21 c20 22 27 43 7 23 -22 -22 -29 -13 -26 31 2 35 7 43 26 45 23 3 29 16 13
27 -6 3 -19 -4 -30 -16 l-19 -21 -11 21 c-12 22 -36 28 -46 11z"/>
<path d="M11922 875 c-17 -37 -15 -55 6 -55 42 0 74 -79 41 -101 -8 -5 -29 -7
-47 -4 -23 4 -32 3 -27 -4 11 -19 73 -13 95 9 38 38 16 103 -42 123 -30 11
-20 26 19 29 51 4 56 28 5 28 -32 0 -41 -4 -50 -25z"/>
<path d="M1958 793 c8 -3 12 -32 12 -94 0 -64 -4 -89 -12 -90 -7 -1 -3 -4 10
-8 13 -3 49 -4 80 -1 50 4 59 9 79 39 13 19 23 45 23 58 0 37 -30 81 -63 93
-29 10 -154 13 -129 3z m137 -34 c14 -14 20 -33 20 -65 0 -55 -28 -84 -81 -84
l-34 0 0 84 c0 72 3 85 18 89 25 7 54 -3 77 -24z"/>
<path d="M3883 788 c-2 -5 8 -8 23 -8 27 0 27 0 21 -58 -5 -61 -30 -121 -67
-160 -12 -13 -19 -26 -16 -30 11 -11 76 70 86 107 5 20 10 42 10 49 0 7 5 10
10 7 6 -3 10 -13 10 -22 0 -8 10 -29 22 -45 21 -30 21 -31 3 -44 -11 -8 -34
-20 -52 -26 -18 -7 -33 -16 -33 -20 0 -13 12 -9 68 22 l53 29 36 -25 c35 -24
83 -33 83 -15 0 5 -15 12 -32 15 -18 4 -41 13 -51 20 -17 13 -16 17 18 70 19
31 32 56 28 57 -4 1 -21 0 -37 -1 -24 -1 -28 1 -22 17 4 10 10 29 12 43 l6 25
-87 0 c-48 0 -89 -3 -92 -7z m148 -40 c-6 -29 -11 -33 -44 -36 -36 -3 -37 -3
-37 32 0 36 0 36 44 36 l43 0 -6 -32z m26 -90 c-14 -23 -29 -44 -35 -46 -10
-3 -52 58 -52 77 0 7 21 11 56 11 l56 0 -25 -42z"/>
<path d="M2855 773 c14 -14 16 -28 10 -92 -4 -42 -12 -79 -19 -83 -6 -4 7 -8
29 -8 30 0 36 3 27 12 -15 15 -16 142 -2 169 10 17 7 19 -25 19 -34 0 -35 -1
-20 -17z"/>
<path d="M3500 776 c13 -16 10 -148 -4 -178 -7 -16 -3 -18 30 -18 30 0 35 3
26 12 -16 16 -16 170 0 186 9 9 4 12 -26 12 -32 0 -37 -2 -26 -14z"/>
<path d="M3600 780 c8 -5 11 -36 9 -104 l-4 -96 35 0 c29 1 32 2 18 11 -24 14
-26 159 -3 183 14 13 11 15 -26 14 -23 0 -36 -4 -29 -8z"/>
<path d="M4358 773 c8 -3 12 -32 12 -94 0 -74 -3 -89 -16 -89 -8 0 -12 -5 -9
-10 7 -12 64 -10 71 2 3 4 0 8 -5 8 -16 0 -14 163 1 178 9 9 3 12 -27 11 -22
0 -34 -3 -27 -6z"/>
<path d="M4463 769 c23 -14 26 -166 2 -175 -26 -10 -16 -22 18 -21 l32 1 -4
94 c-2 72 0 97 10 103 9 6 -2 9 -31 9 -35 -1 -41 -3 -27 -11z"/>
<path d="M4563 769 c14 -8 17 -25 17 -94 0 -50 -4 -85 -10 -85 -5 0 -10 -4
-10 -10 0 -5 16 -10 35 -10 19 0 35 5 35 10 0 6 -4 10 -10 10 -15 0 -13 163 2
178 9 9 2 12 -32 12 -36 -1 -41 -3 -27 -11z"/>
<path d="M13766 644 c-11 -47 -26 -92 -33 -100 -12 -12 -5 -14 55 -14 72 0 82
6 82 48 0 12 -6 8 -18 -10 -13 -21 -24 -28 -49 -28 -22 0 -33 5 -33 14 0 31
43 152 58 164 14 10 12 12 -14 12 -29 0 -30 -2 -48 -86z"/>
<path d="M3152 679 c19 -25 24 -28 27 -13 2 10 -5 24 -15 31 -30 22 -36 14
-12 -18z"/>
<path d="M2182 608 c5 -15 27 -18 31 -3 1 5 -6 11 -17 13 -12 3 -17 -1 -14
-10z"/>
</g>
</svg>
