<?xml version="1.0" standalone="no"?>
<!DOCTYPE svg PUBLIC "-//W3C//DTD SVG 20010904//EN"
 "http://www.w3.org/TR/2001/REC-SVG-20010904/DTD/svg10.dtd">
<svg version="1.0" xmlns="http://www.w3.org/2000/svg"
 width="1497.000000pt" height="663.000000pt" viewBox="0 0 1497.000000 663.000000"
 preserveAspectRatio="xMidYMid meet">
<metadata>
Created by potrace 1.16, written by Peter Selinger 2001-2019
</metadata>
<g transform="translate(0.000000,663.000000) scale(0.100000,-0.100000)"
fill="#000000" stroke="none">
<path d="M1086 6316 c-3 -16 -6 -74 -6 -130 l0 -101 110 3 c70 3 116 0 124 -7
7 -6 16 -8 19 -4 4 3 7 65 7 137 l0 131 -124 0 -124 0 -6 -29z m229 -101 l0
-110 -82 -3 c-56 -2 -83 1 -83 8 0 8 23 11 68 9 l67 -3 3 55 3 54 -78 -2 -78
-2 -1 -58 c-1 -45 -5 -59 -18 -61 -14 -3 -16 10 -16 106 0 60 3 112 7 116 4 4
52 5 107 4 l101 -3 0 -110z m-47 -42 c-3 -37 -4 -38 -46 -41 -49 -4 -72 10
-72 43 0 31 7 35 67 35 l54 0 -3 -37z"/>
<path d="M1155 6303 c-6 -18 5 -44 16 -37 5 3 15 2 22 -3 7 -5 -5 -10 -33 -14
-33 -4 -21 -6 48 -7 50 -1 92 1 92 6 0 4 -21 5 -46 3 -32 -2 -44 0 -40 8 4 6
18 11 32 11 20 0 25 4 22 21 -3 19 -10 22 -55 23 -34 1 -55 -3 -58 -11z m95
-13 c0 -5 -18 -10 -40 -10 -22 0 -40 5 -40 10 0 6 18 10 40 10 22 0 40 -4 40
-10z"/>
<path d="M1203 6193 c-25 -3 -33 -9 -33 -24 0 -16 7 -19 40 -19 36 0 40 3 40
25 0 14 -3 24 -7 23 -5 0 -23 -3 -40 -5z m27 -23 c0 -5 -11 -10 -25 -10 -14 0
-25 5 -25 10 0 6 11 10 25 10 14 0 25 -4 25 -10z"/>
<path d="M1540 6319 l0 -31 -54 4 -53 4 -2 -62 c-2 -58 9 -88 24 -64 3 5 24
10 47 10 l40 0 -4 -55 c-4 -41 -1 -55 9 -55 9 0 13 16 13 55 l0 55 53 0 52 0
1 58 0 58 -54 -4 -55 -5 6 32 c5 23 3 31 -8 31 -10 0 -15 -10 -15 -31z m0 -84
l0 -45 -38 0 c-21 0 -41 2 -43 4 -3 3 -3 23 -1 45 4 40 5 41 43 41 l39 0 0
-45z m100 0 l0 -45 -40 0 -40 0 0 45 0 45 40 0 40 0 0 -45z"/>
<path d="M1840 6334 c-14 -7 -35 -14 -47 -14 -22 0 -23 -4 -23 -68 0 -37 -6
-92 -14 -122 -8 -30 -13 -56 -12 -58 11 -10 35 55 41 111 6 55 11 67 25 67 10
0 26 3 35 6 14 6 16 1 13 -27 -3 -30 -6 -34 -30 -31 -16 1 -28 -2 -28 -8 0 -7
15 -10 38 -8 37 3 37 3 39 49 l2 46 -45 -5 c-40 -4 -46 -3 -43 13 3 11 19 22
43 29 22 6 41 17 44 24 5 15 -6 14 -38 -4z"/>
<path d="M1980 6334 c-14 -8 -37 -14 -51 -14 -26 0 -27 -1 -31 -87 -3 -57 -11
-100 -22 -121 -10 -19 -15 -36 -13 -39 11 -10 42 52 52 106 9 46 16 57 33 59
21 3 22 0 22 -83 0 -108 21 -115 24 -9 3 73 10 99 27 89 5 -4 9 0 9 8 0 10
-13 13 -55 9 -54 -4 -55 -4 -55 21 0 22 7 28 43 38 46 13 63 24 50 31 -4 3
-19 -1 -33 -8z"/>
<path d="M2540 6327 c0 -36 -18 -44 -30 -13 -5 14 -15 26 -22 26 -9 0 -9 -3 0
-12 20 -20 15 -40 -8 -33 -11 4 -20 2 -20 -4 0 -6 16 -11 35 -11 19 0 35 -4
35 -9 0 -19 -42 -107 -67 -139 -14 -18 -23 -36 -20 -38 3 -3 20 15 39 40 l33
45 88 1 c95 0 96 -1 76 -59 -10 -27 -15 -32 -35 -27 -13 4 -24 2 -24 -3 0 -9
23 -21 40 -21 19 0 40 34 40 65 0 19 5 37 10 40 17 10 2 24 -20 18 -17 -5 -20
0 -20 27 0 26 -3 31 -16 26 -14 -5 -16 -1 -11 23 6 29 6 29 -41 28 -42 -2 -47
0 -47 20 0 11 -3 25 -7 29 -5 4 -8 -4 -8 -19z m78 -64 c-4 -23 -78 -32 -78
-10 0 21 10 27 47 27 27 0 34 -4 31 -17z m30 -51 c3 -21 0 -22 -62 -22 -36 0
-66 3 -66 8 1 19 19 31 55 35 61 6 70 4 73 -21z"/>
<path d="M3634 6326 c-3 -8 -5 -20 -3 -27 4 -31 -2 -59 -12 -59 -6 0 -9 15 -8
34 2 19 0 38 -4 42 -4 4 -7 -9 -7 -29 0 -20 -4 -37 -9 -37 -14 0 -23 37 -16
60 5 15 2 20 -10 20 -11 0 -15 -5 -11 -15 3 -9 0 -15 -9 -15 -9 0 -15 -10 -15
-25 0 -14 -5 -25 -11 -25 -8 0 -10 14 -6 40 4 30 2 40 -9 40 -9 0 -14 -11 -14
-30 0 -17 -7 -42 -16 -56 -9 -13 -14 -28 -10 -32 4 -4 12 1 17 11 11 19 89 25
89 7 0 -5 -5 -10 -11 -10 -6 0 -8 -9 -4 -21 6 -17 3 -20 -17 -17 -15 2 -23 9
-22 21 1 9 -4 17 -11 17 -9 0 -15 -20 -17 -62 -2 -35 -8 -71 -12 -80 -5 -12
-4 -18 3 -18 6 0 14 14 18 30 3 17 9 30 13 30 5 0 15 3 24 6 12 5 16 0 16 -21
0 -17 -4 -24 -11 -19 -7 4 -10 1 -7 -7 3 -8 11 -14 19 -14 10 0 15 16 17 60 4
108 2 105 86 105 l74 0 5 38 c5 41 1 55 -14 47 -5 -4 -9 -22 -9 -41 0 -19 -5
-34 -11 -34 -6 0 -10 15 -9 33 3 53 1 69 -10 62 -5 -3 -10 -26 -10 -51 0 -25
-4 -43 -8 -40 -5 3 -7 25 -6 50 2 44 -10 62 -22 32z m-74 -61 c0 -8 -4 -15
-10 -15 -5 0 -10 7 -10 15 0 8 5 15 10 15 6 0 10 -7 10 -15z m-26 -101 c23 -9
20 -24 -4 -24 -11 0 -20 7 -20 15 0 17 2 18 24 9z"/>
<path d="M227 6268 c-26 -35 -47 -69 -47 -75 0 -9 15 -13 44 -13 35 0 43 -3
43 -17 0 -34 3 -43 13 -43 6 0 10 14 10 30 0 20 5 30 15 30 8 0 15 4 15 9 0 5
-7 11 -15 15 -11 4 -15 21 -15 66 0 33 -4 60 -8 60 -5 0 -30 -28 -55 -62z m43
-23 c0 -43 -1 -45 -30 -45 -16 0 -30 2 -30 6 0 11 45 84 53 84 4 0 7 -20 7
-45z"/>
<path d="M375 6315 c-14 -12 -20 -30 -23 -78 -3 -52 -1 -66 18 -89 44 -56 91
-22 98 70 3 47 0 62 -18 85 -24 30 -45 34 -75 12z m55 -14 c11 -21 14 -120 4
-145 -3 -9 -14 -16 -24 -16 -23 0 -30 19 -30 86 0 55 12 94 30 94 5 0 14 -9
20 -19z"/>
<path d="M2130 6318 c0 -5 48 -8 107 -8 58 0 103 3 99 7 -9 9 -206 10 -206 1z"/>
<path d="M2798 6248 c-1 -43 -2 -94 -2 -114 l-1 -36 120 1 c66 1 121 4 124 7
2 2 6 51 9 108 l5 105 -127 3 -126 3 -2 -77z m70 2 c-3 -28 -12 -58 -22 -68
-20 -23 -21 -33 -2 -26 19 7 46 76 46 114 0 25 4 30 25 30 24 0 25 -2 25 -70
l0 -70 35 0 c19 0 35 5 35 10 0 6 -11 10 -24 10 -32 0 -35 5 -29 68 5 49 7 52
34 52 27 0 29 -3 30 -37 2 -67 2 -87 0 -120 l-1 -33 -105 0 -105 0 0 95 0 95
31 0 32 0 -5 -50z"/>
<path d="M3240 6320 c-75 -4 -100 -7 -61 -8 53 -2 62 -5 57 -18 -3 -9 -6 -20
-6 -26 0 -7 -17 -9 -45 -6 l-45 6 0 -106 c0 -82 3 -103 12 -94 16 16 190 16
206 0 6 -6 14 -10 16 -7 2 2 6 49 8 105 l3 101 -67 -5 c-55 -4 -68 -2 -68 10
0 27 24 38 87 38 35 0 63 4 63 10 0 6 -8 9 -17 8 -10 -1 -74 -5 -143 -8z m-38
-149 c-1 -41 -4 -77 -7 -79 -2 -2 -11 -2 -20 1 -12 5 -15 23 -15 82 0 73 1 76
23 73 21 -3 22 -7 19 -77z m88 59 c0 -16 -7 -20 -30 -20 -23 0 -30 4 -30 20 0
16 7 20 30 20 23 0 30 -4 30 -20z m70 -60 c0 -79 0 -80 -25 -80 -25 0 -25 1
-25 80 0 79 0 80 25 80 25 0 25 -1 25 -80z m-75 4 c0 -13 -8 -20 -27 -22 -24
-3 -28 0 -28 23 0 22 4 25 28 22 19 -3 27 -9 27 -23z m3 -56 c-2 -17 -11 -24
-30 -26 -24 -3 -28 0 -28 22 0 22 4 26 31 26 26 0 30 -3 27 -22z"/>
<path d="M5986 6311 c6 -23 5 -23 -54 -19 l-60 4 -4 -105 c-3 -58 -8 -114 -12
-123 -5 -10 -4 -18 1 -18 16 0 33 73 33 138 0 95 -5 92 127 92 63 0 112 4 109
9 -3 4 -28 6 -56 3 -43 -4 -52 -1 -70 19 l-21 24 7 -24z"/>
<path d="M5590 6300 c0 -16 -7 -20 -36 -20 -19 0 -33 -4 -30 -8 3 -5 19 -7 36
-4 l31 4 -3 -68 -3 -69 -37 3 c-23 2 -38 -1 -38 -7 0 -7 31 -11 85 -11 56 0
85 4 85 11 0 7 -12 9 -35 5 -31 -6 -35 -4 -35 14 0 17 6 20 45 20 41 0 45 -2
45 -25 0 -23 4 -25 46 -25 32 0 44 4 41 13 -2 6 -11 10 -18 8 -42 -11 -44 -8
-44 59 0 63 1 65 28 68 15 2 27 7 27 12 0 5 -13 7 -30 4 -31 -7 -39 3 -18 24
9 9 7 12 -10 12 -15 0 -22 -6 -22 -20 0 -17 -7 -20 -46 -20 -41 0 -45 2 -39
20 5 14 2 20 -9 20 -9 0 -16 -9 -16 -20z m110 -50 c0 -17 -7 -20 -45 -20 -38
0 -45 3 -45 20 0 17 7 20 45 20 38 0 45 -3 45 -20z m0 -50 c0 -17 -7 -20 -45
-20 -38 0 -45 3 -45 20 0 17 7 20 45 20 38 0 45 -3 45 -20z"/>
<path d="M4114 6294 c8 -21 -40 -181 -57 -187 -6 -3 3 -6 21 -6 21 -1 32 3 30
12 -1 6 1 29 5 50 7 32 11 37 37 37 42 0 59 9 75 41 13 24 13 30 -1 43 -8 9
-25 16 -37 17 -12 0 -35 3 -51 5 -24 4 -27 2 -22 -12z m86 -19 c18 -22 -12
-65 -45 -65 -28 0 -29 4 -14 49 12 34 38 41 59 16z"/>
<path d="M4335 6291 c-22 -10 -48 -32 -57 -49 -25 -42 -23 -106 2 -130 20 -18
20 -19 -8 -43 l-27 -24 55 -6 c70 -8 104 -2 126 22 21 23 8 25 -17 3 -13 -12
-28 -14 -63 -9 -25 4 -46 10 -46 14 0 14 25 31 46 31 48 0 114 84 114 145 0
50 -65 75 -125 46z m83 -13 c27 -27 -4 -120 -50 -152 -56 -39 -102 6 -79 77
24 71 93 111 129 75z"/>
<path d="M7364 6285 c-5 -22 -11 -25 -52 -25 -49 0 -54 -9 -6 -12 16 -1 32 -3
36 -5 11 -6 -31 -84 -56 -104 -11 -9 -18 -21 -13 -25 4 -4 14 2 23 14 23 33
35 17 28 -37 -4 -31 -2 -51 5 -55 8 -5 11 15 11 68 0 49 6 87 16 110 l17 34
83 -4 c70 -4 84 -3 84 10 0 19 -17 30 -25 16 -3 -5 -36 -10 -72 -10 -65 0 -65
0 -59 25 4 14 2 25 -4 25 -5 0 -12 -11 -16 -25z"/>
<path d="M7740 6181 l0 -131 -27 0 -28 0 25 -14 c36 -19 50 3 50 81 0 35 4 63
10 63 6 0 10 -6 10 -14 0 -20 86 -113 96 -103 5 4 -8 22 -27 40 -65 59 -84
100 -51 112 24 8 66 44 59 51 -3 4 -24 -8 -45 -25 -22 -17 -43 -31 -47 -31 -3
0 -5 21 -4 47 2 30 -1 48 -9 51 -9 3 -12 -29 -12 -127z"/>
<path d="M4526 6286 c6 -15 -13 -86 -39 -148 l-16 -38 30 0 c18 0 28 4 24 10
-4 6 -4 29 0 50 10 58 37 54 56 -7 9 -29 22 -49 32 -51 15 -3 14 2 -4 44 -21
46 -21 48 -3 60 36 25 44 35 44 54 0 26 -29 40 -84 40 -35 0 -44 -3 -40 -14z
m78 -2 c33 -13 3 -74 -36 -74 -19 0 -22 17 -12 58 6 22 20 27 48 16z"/>
<path d="M4702 6288 c-21 -21 -13 -53 23 -88 47 -45 46 -83 -2 -88 -30 -3 -47
11 -53 43 -5 30 -14 8 -13 -32 1 -7 -4 -14 -11 -15 -6 0 12 -4 39 -7 107 -14
139 42 65 113 -44 42 -47 48 -25 66 21 18 65 4 65 -20 0 -18 20 -30 20 -12 0
4 3 17 6 30 6 21 3 22 -48 22 -30 0 -59 -5 -66 -12z"/>
<path d="M8070 6290 c-119 -6 -132 -10 -45 -13 49 -2 50 -3 49 -32 -1 -16 -2
-45 -3 -62 l-1 -33 -67 0 c-36 0 -63 -3 -60 -7 4 -3 34 -5 67 -4 l60 2 0 -60
c0 -34 4 -61 10 -61 6 0 10 27 10 60 l0 60 67 0 c36 0 63 3 59 7 -4 5 -35 6
-67 5 l-60 -4 3 64 3 63 53 3 c28 2 52 7 52 13 0 5 -3 8 -7 7 -5 -1 -60 -5
-123 -8z"/>
<path d="M8330 6260 c0 -37 -2 -40 -27 -41 -27 -1 -27 -1 -4 -8 21 -5 24 -13
25 -56 1 -43 -2 -51 -22 -60 -23 -10 -30 -25 -12 -25 20 0 90 41 90 52 0 9 -3
9 -12 0 -21 -21 -28 -13 -28 37 0 43 3 50 23 54 l22 4 -22 2 c-18 1 -23 7 -23
30 0 16 5 31 12 33 7 3 6 7 -5 11 -14 5 -17 0 -17 -33z"/>
<path d="M8464 6255 c3 -25 1 -45 -4 -45 -5 0 -15 -3 -24 -6 -13 -5 -16 1 -16
30 0 20 -4 36 -10 36 -5 0 -10 -18 -10 -39 0 -29 -5 -41 -17 -44 -17 -4 -17
-5 0 -6 14 -1 17 -11 17 -70 0 -79 2 -81 88 -81 73 0 84 7 73 45 -7 23 -9 25
-10 9 -1 -32 -20 -41 -78 -36 l-53 4 0 68 c0 59 2 68 20 73 22 6 23 0 20 -65
-1 -22 3 -38 9 -38 7 0 11 23 11 59 0 51 3 59 21 64 20 5 21 3 15 -39 -4 -29
-2 -43 4 -39 6 3 10 14 10 23 0 9 7 29 14 44 17 31 6 44 -23 28 -33 -17 -41
-12 -41 30 0 22 -5 40 -10 40 -6 0 -8 -18 -6 -45z"/>
<path d="M8876 6293 c-4 -4 -61 -6 -127 -4 -88 2 -119 0 -119 -9 0 -9 16 -11
55 -7 47 4 55 3 55 -11 0 -32 -17 -45 -53 -40 l-35 4 -6 -51 c-3 -27 -6 -70
-6 -95 l0 -45 125 0 125 0 0 95 0 96 -70 -4 c-72 -4 -80 0 -56 33 11 15 24 18
75 16 36 -1 61 2 61 8 0 13 -16 22 -24 14z m-166 -164 c0 -78 -1 -80 -22 -77
-13 2 -22 6 -20 11 1 4 2 39 2 77 0 63 2 70 20 70 18 0 20 -7 20 -81z m88 64
c-2 -12 -14 -19 -36 -21 -27 -3 -32 0 -32 17 0 17 6 21 36 21 28 0 35 -3 32
-17z m67 -60 c-3 -75 -4 -78 -29 -81 l-26 -3 0 80 0 81 30 0 29 0 -4 -77z
m-67 5 c3 -15 -4 -18 -32 -18 -30 0 -36 4 -36 21 0 17 5 20 32 17 22 -2 34 -9
36 -20z m-14 -34 c9 -3 16 -17 16 -30 0 -21 -5 -24 -33 -24 -41 0 -45 4 -39
35 4 25 24 31 56 19z"/>
<path d="M9090 6252 c0 -27 -3 -84 -7 -126 l-6 -78 -54 4 c-29 1 -53 0 -53 -4
0 -5 64 -8 141 -8 126 0 140 2 129 15 -9 11 -16 13 -24 5 -5 -5 -34 -10 -63
-10 l-53 0 0 65 0 65 60 0 c33 0 60 4 60 9 0 17 -20 23 -35 11 -7 -6 -29 -10
-47 -8 -35 3 -36 6 -27 72 2 18 -1 31 -8 33 -9 3 -13 -10 -13 -45z"/>
<path d="M6523 6270 c-34 -21 -73 -85 -73 -121 0 -13 9 -33 21 -45 17 -18 19
-26 10 -43 -7 -12 -16 -21 -21 -21 -6 0 -10 -3 -10 -7 0 -15 156 -9 174 6 9 8
14 16 11 19 -2 3 -11 -1 -19 -7 -17 -14 -112 -11 -109 4 2 11 13 18 61 36 45
16 82 73 82 125 0 71 -59 96 -127 54z m97 -14 c16 -44 -17 -129 -60 -151 -59
-30 -96 25 -64 96 33 74 104 105 124 55z"/>
<path d="M6726 6276 c7 -18 -34 -156 -54 -178 -14 -17 -12 -18 23 -18 31 0 35
2 26 14 -9 10 -5 33 14 95 23 73 29 82 48 79 35 -5 35 -45 -1 -65 l-28 -16 19
-54 20 -53 88 0 c77 0 90 2 99 19 17 33 11 56 -25 91 -20 19 -35 44 -35 57 0
20 5 23 35 23 31 0 35 -3 35 -25 0 -14 5 -25 10 -25 6 0 10 9 10 19 0 11 2 25
5 33 7 19 -83 17 -112 -2 -33 -21 -28 -45 17 -86 39 -36 52 -75 29 -89 -6 -4
-26 -4 -45 -1 -28 6 -34 11 -34 31 0 34 -18 32 -22 -2 -5 -41 -31 -35 -46 11
-12 38 -11 41 13 63 47 44 31 77 -42 87 -43 5 -52 4 -47 -8z"/>
<path d="M10096 6281 c-4 -6 -45 -9 -106 -7 -54 1 -97 -1 -94 -6 3 -4 49 -8
102 -8 l98 0 -4 -40 -4 -41 -82 3 c-77 3 -81 4 -79 26 2 14 -3 22 -12 22 -13
0 -15 -16 -13 -97 l3 -98 123 -3 122 -3 0 41 c0 25 -4 39 -10 35 -5 -3 -10
-14 -10 -24 0 -34 -24 -42 -117 -39 l-88 3 0 60 0 60 95 3 95 3 0 54 c0 54 -8
75 -19 56z"/>
<path d="M10260 6276 c0 -8 -9 -36 -20 -63 l-20 -48 24 28 c34 37 46 34 46 -9
0 -36 0 -37 -35 -31 -19 3 -35 2 -35 -4 0 -5 16 -9 35 -9 19 0 35 -5 35 -10 0
-15 -22 -51 -49 -82 -14 -16 -21 -28 -16 -28 14 0 65 52 65 67 0 25 28 13 42
-17 14 -32 28 -40 28 -16 0 8 -11 24 -25 37 -33 32 -32 49 5 49 17 0 30 5 30
11 0 7 -11 8 -30 4 -29 -6 -30 -5 -30 29 0 32 3 36 26 36 16 0 24 5 22 12 -3
8 -20 11 -47 9 -40 -2 -42 -1 -32 18 14 26 14 31 -4 31 -8 0 -15 -6 -15 -14z"/>
<path d="M11331 6252 c-11 -22 -25 -43 -31 -47 -17 -11 -11 -22 12 -21 19 1
22 -4 21 -44 -2 -98 -2 -100 -23 -100 -12 0 -20 -7 -20 -16 0 -9 5 -13 13 -10
6 3 31 11 55 18 46 13 58 28 16 20 -25 -4 -25 -3 -20 39 3 24 5 54 5 67 1 13
7 22 16 22 8 0 15 7 15 15 0 8 5 15 10 15 17 0 11 15 -19 49 l-30 33 -20 -40z
m49 -17 c17 -20 4 -35 -31 -35 -29 0 -29 0 -13 25 19 29 27 31 44 10z"/>
<path d="M11438 6233 c-3 -27 -8 -56 -12 -65 -5 -11 -4 -18 2 -18 12 0 29 42
38 93 5 29 3 37 -9 37 -11 0 -16 -14 -19 -47z"/>
<path d="M11504 6266 c-3 -7 -4 -33 -2 -56 3 -48 24 -68 54 -55 18 8 18 9 -3
12 -27 5 -37 33 -28 79 6 34 -10 49 -21 20z"/>
<path d="M11805 6269 c-22 -5 -67 -13 -100 -18 l-60 -8 58 -2 c43 -1 57 -5 57
-16 0 -12 -15 -15 -67 -17 -38 0 -53 -3 -35 -5 25 -3 32 -8 28 -20 -3 -8 -6
-18 -6 -23 0 -5 -10 -11 -22 -13 l-23 -4 23 -2 c15 -1 22 -7 22 -20 0 -11 5
-23 10 -26 6 -4 10 5 10 19 0 20 5 26 21 26 11 0 18 4 14 10 -3 5 -12 7 -20 3
-11 -4 -15 2 -15 22 0 23 4 26 28 23 25 -3 27 -6 30 -60 l3 -57 -58 -4 -58 -3
58 -2 c54 -2 58 -4 55 -24 -3 -21 -8 -23 -65 -22 -35 0 -63 -3 -63 -8 0 -4 63
-8 140 -8 78 0 140 4 140 9 0 14 -23 19 -43 9 -10 -5 -35 -8 -55 -6 -30 2 -38
7 -40 26 -3 21 0 22 52 22 31 0 56 4 56 8 0 5 -25 7 -56 4 l-55 -5 3 59 c3 56
4 59 31 62 23 3 27 0 27 -22 0 -19 -6 -26 -27 -29 l-28 -4 28 -2 c22 -1 27 -6
27 -27 0 -14 4 -23 10 -19 6 3 10 15 10 26 0 14 7 19 25 19 14 0 25 5 25 11 0
7 -9 9 -24 5 -20 -5 -23 -2 -23 20 0 21 4 25 23 22 13 -2 22 2 21 7 -1 6 -29
10 -62 10 -46 0 -60 3 -60 15 0 8 7 16 15 17 64 8 90 15 85 24 -7 10 -15 10
-70 -2z"/>
<path d="M12022 6254 c3 -25 0 -29 -19 -26 -13 2 -23 -2 -23 -8 0 -6 8 -10 18
-8 18 3 18 2 7 -104 -4 -32 -11 -60 -16 -63 -5 -4 -9 -14 -9 -23 1 -15 3 -14
16 3 20 27 36 92 36 142 -1 23 3 45 8 48 15 9 12 41 -6 56 -13 11 -15 9 -12
-17z"/>
<path d="M12149 6233 c-12 -27 -26 -57 -32 -68 -9 -17 -8 -18 5 -7 9 7 24 28
33 47 16 35 35 47 35 22 0 -20 50 -88 60 -82 5 3 -6 26 -25 51 -19 25 -35 54
-35 65 0 33 -19 21 -41 -28z"/>
<path d="M6045 6260 c-11 -5 -44 -9 -72 -9 l-53 -1 0 -83 c0 -67 3 -87 18 -99
19 -18 107 -28 107 -13 0 6 -20 9 -47 7 -30 -3 -48 0 -48 7 0 6 6 11 13 11 7
0 22 7 33 15 17 13 16 14 -19 8 l-38 -6 3 39 c3 35 6 39 34 42 27 3 33 -1 45
-29 28 -68 99 -126 99 -81 0 9 3 28 7 41 4 17 3 22 -5 17 -7 -4 -12 -16 -12
-26 0 -37 -20 -30 -50 16 -16 26 -27 51 -24 56 3 5 22 6 41 2 28 -5 35 -4 31
7 -3 9 -17 13 -42 11 -36 -4 -37 -2 -34 25 2 22 9 29 31 31 15 2 27 8 27 13 0
11 -18 11 -45 -1z m-35 -45 c0 -22 -4 -25 -35 -25 -27 0 -35 4 -35 18 0 25 9
32 42 32 23 0 28 -4 28 -25z"/>
<path d="M13110 6261 c0 -6 5 -13 10 -16 6 -3 10 -12 10 -20 0 -11 -12 -13
-50 -10 -29 3 -50 0 -50 -5 0 -6 38 -10 90 -10 50 0 90 -4 90 -8 0 -13 -81
-87 -135 -122 -54 -36 -66 -49 -59 -62 3 -5 13 1 22 12 l17 21 43 -21 c33 -16
58 -20 109 -18 37 2 68 8 70 13 2 6 -21 9 -59 7 -63 -4 -138 11 -138 28 0 5
12 16 28 24 31 16 142 123 142 137 0 4 -20 6 -45 4 -41 -4 -46 -3 -60 25 -15
29 -35 40 -35 21z"/>
<path d="M13595 6260 c-3 -6 -58 -11 -128 -12 -69 -1 -94 -3 -59 -5 l63 -4 -1
-117 c-2 -142 -2 -141 10 -122 5 8 10 50 10 93 0 42 3 77 8 77 4 0 24 -14 45
-31 21 -17 41 -29 44 -25 10 9 -14 31 -57 52 -32 15 -40 24 -40 47 0 27 1 27
65 27 36 0 65 4 65 9 0 15 -18 23 -25 11z"/>
<path d="M14310 6255 c0 -10 -11 -15 -35 -15 -19 0 -35 -4 -35 -10 0 -5 18
-10 40 -10 30 0 40 -4 40 -16 0 -8 5 -12 10 -9 6 4 8 11 5 16 -4 5 3 9 14 9
12 0 21 5 21 10 0 6 -9 10 -20 10 -13 0 -18 5 -14 15 4 9 0 15 -10 15 -9 0
-16 -7 -16 -15z"/>
<path d="M14426 6255 c-3 -8 -12 -15 -21 -15 -8 0 -15 -4 -15 -10 0 -5 7 -10
15 -10 8 0 15 -8 15 -17 0 -15 1 -16 13 0 6 9 28 17 47 19 19 2 33 8 30 13 -3
6 -20 9 -37 7 -27 -3 -32 -1 -27 12 3 9 2 16 -4 16 -5 0 -12 -7 -16 -15z"/>
<path d="M2215 6250 c-113 -5 -121 -6 -60 -10 l70 -5 0 -80 c0 -111 19 -113
23 -2 l3 87 59 0 c33 0 60 4 60 10 0 6 -6 9 -12 8 -7 -1 -71 -5 -143 -8z"/>
<path d="M10888 6245 c-64 -35 -91 -134 -49 -179 l23 -25 -21 -13 c-39 -24
-23 -34 52 -33 48 0 80 5 91 14 22 19 13 26 -14 11 -14 -7 -39 -9 -67 -5 -37
5 -42 9 -32 21 6 8 20 14 29 14 50 0 93 48 115 127 6 23 -9 62 -29 75 -18 12
-69 8 -98 -7z m90 -7 c18 -18 15 -64 -8 -108 -23 -45 -49 -63 -88 -58 -23 3
-27 8 -30 42 -2 21 2 52 9 68 23 55 87 86 117 56z"/>
<path d="M7982 6243 c2 -5 12 -26 22 -48 12 -25 21 -35 24 -26 6 16 -27 81
-40 81 -6 0 -8 -3 -6 -7z"/>
<path d="M8163 6230 c-3 -11 -9 -20 -13 -20 -4 0 -12 -11 -18 -25 -20 -44 7
-26 41 27 20 32 21 38 6 38 -6 0 -13 -9 -16 -20z"/>
<path d="M10380 6141 c0 -61 4 -112 9 -115 5 -4 11 -1 13 6 2 6 21 12 41 12
l38 1 2 103 2 102 -52 0 -53 0 0 -109z m74 89 c10 0 12 -16 10 -57 -2 -32 -3
-72 -3 -89 -1 -28 -3 -30 -31 -26 l-30 4 0 82 c0 86 4 100 28 91 7 -3 19 -5
26 -5z"/>
<path d="M12627 6230 c3 -11 1 -32 -5 -48 -6 -15 -16 -46 -22 -69 -6 -23 -17
-49 -26 -58 -14 -13 -12 -15 21 -15 22 0 34 4 30 10 -4 6 -4 29 0 50 6 38 8
40 44 40 42 0 66 15 76 47 10 35 -26 63 -79 63 -39 0 -44 -2 -39 -20z m87 -16
c3 -8 1 -25 -4 -39 -7 -19 -17 -25 -40 -25 -16 0 -30 2 -30 4 0 13 25 72 33
78 14 8 34 0 41 -18z"/>
<path d="M12070 6225 c-11 -13 -9 -15 15 -15 16 0 25 5 23 12 -7 19 -24 20
-38 3z"/>
<path d="M5075 6220 c-4 -6 -1 -17 5 -25 10 -12 10 -18 0 -30 -7 -8 -8 -15 -2
-15 17 0 34 28 30 51 -3 25 -23 36 -33 19z"/>
<path d="M7436 6214 c-3 -9 -6 -24 -6 -34 0 -14 -9 -20 -32 -23 l-33 -4 33 -1
c32 -2 32 -3 32 -51 l0 -50 -37 -4 c-21 -2 4 -4 55 -5 52 -1 92 2 92 7 0 16
-22 24 -30 11 -4 -6 -18 -10 -31 -8 -21 3 -24 9 -27 51 l-3 47 40 0 c41 0 55
13 26 24 -8 3 -15 1 -15 -5 0 -6 -10 -9 -22 -7 -19 2 -22 8 -20 36 4 33 -11
44 -22 16z"/>
<path d="M7660 6220 l-45 -7 38 -1 c53 -3 47 -34 -21 -104 -20 -21 -31 -38
-25 -38 19 0 58 42 86 93 27 48 33 68 20 65 -5 0 -28 -4 -53 -8z"/>
<path d="M3655 6210 l-70 -6 83 -2 c53 -1 81 2 77 8 -3 6 -9 9 -13 8 -4 -1
-38 -4 -77 -8z"/>
<path d="M2149 6188 c-6 -13 -21 -33 -32 -45 -25 -27 -16 -43 10 -18 22 22 53
67 53 78 0 16 -20 6 -31 -15z"/>
<path d="M2290 6206 c0 -5 10 -23 23 -40 13 -17 26 -39 30 -48 8 -21 27 -24
27 -4 0 16 -79 107 -80 92z"/>
<path d="M3604 6181 c-10 -10 -3 -60 11 -71 22 -18 18 -28 -12 -33 -17 -2 -8
-5 25 -7 95 -5 125 -3 118 9 -3 4 -17 6 -32 3 -25 -5 -26 -4 -11 19 8 13 17
36 21 51 6 26 5 26 -55 30 -33 1 -63 1 -65 -1z m101 -31 c4 -6 -12 -10 -39
-10 -25 0 -46 5 -46 10 0 6 18 10 39 10 22 0 43 -4 46 -10z m-23 -26 c10 -9
-4 -44 -18 -44 -12 0 -34 29 -34 44 0 8 45 8 52 0z"/>
<path d="M9414 6176 c-11 -28 4 -48 33 -44 22 2 28 8 28 28 0 20 -6 26 -28 28
-18 2 -29 -2 -33 -12z m46 -16 c0 -11 -7 -20 -15 -20 -8 0 -15 9 -15 20 0 11
7 20 15 20 8 0 15 -9 15 -20z"/>
<path d="M14345 6170 c-5 -16 -16 -20 -58 -22 l-52 -1 47 -6 48 -6 -18 -28
c-10 -15 -34 -39 -52 -52 -19 -14 -27 -25 -19 -25 8 0 25 9 37 20 31 29 40 25
37 -17 l-3 -38 84 0 c46 0 84 3 85 8 1 9 1 75 0 85 -1 4 -35 6 -76 4 -77 -4
-84 0 -61 31 11 14 29 17 96 17 46 0 80 3 76 7 -4 4 -40 6 -81 4 -70 -3 -73
-2 -68 18 7 27 -14 28 -22 1z m115 -127 l0 -33 -65 0 c-65 0 -65 0 -65 28 0
16 2 31 5 33 2 3 32 5 65 5 l60 1 0 -34z"/>
<path d="M12075 6172 c-6 -4 -10 -23 -10 -42 1 -69 -9 -105 -29 -102 -11 2
-16 -2 -14 -10 10 -29 43 -13 56 27 15 46 13 138 -3 127z"/>
<path d="M2590 6148 c0 -19 18 -43 25 -36 9 9 -4 48 -16 48 -5 0 -9 -6 -9 -12z"/>
<path d="M2646 6145 c4 -8 10 -15 15 -15 4 0 6 7 3 15 -4 8 -10 15 -15 15 -4
0 -6 -7 -3 -15z"/>
<path d="M11376 6151 c-4 -5 -2 -12 3 -15 5 -4 12 -2 15 3 4 5 2 12 -3 15 -5
4 -12 2 -15 -3z"/>
<path d="M12170 6133 c14 -18 31 -32 38 -32 22 -1 9 19 -28 42 l-35 22 25 -32z"/>
<path d="M13787 6148 c-8 -25 5 -48 28 -48 24 0 42 30 30 50 -9 14 -53 12 -58
-2z m43 -18 c0 -11 -7 -20 -15 -20 -8 0 -15 9 -15 20 0 11 7 20 15 20 8 0 15
-9 15 -20z"/>
<path d="M510 6135 c0 -8 7 -15 15 -15 8 0 15 7 15 15 0 8 -7 15 -15 15 -8 0
-15 -7 -15 -15z"/>
<path d="M2510 6136 c0 -7 -7 -19 -15 -26 -17 -14 -20 -30 -5 -30 5 0 16 13
25 30 18 34 18 40 5 40 -5 0 -10 -6 -10 -14z"/>
<path d="M2551 6128 c-1 -16 4 -28 9 -28 12 0 12 8 0 35 -8 18 -9 17 -9 -7z"/>
<path d="M11295 6140 c4 -6 11 -8 16 -5 14 9 11 15 -7 15 -8 0 -12 -5 -9 -10z"/>
<path d="M11429 6108 c-3 -62 -2 -88 4 -88 4 0 32 0 62 0 l55 0 0 53 0 52 -60
0 c-50 0 -60 -3 -61 -17z m101 -38 l0 -40 -45 0 c-41 0 -45 2 -45 24 0 45 10
56 51 56 39 0 39 0 39 -40z"/>
<path d="M11290 6116 c0 -2 7 -17 15 -32 15 -29 22 -13 9 20 -5 14 -24 23 -24
12z"/>
<path d="M11375 6099 c-4 -11 -4 -23 0 -27 7 -7 25 17 25 36 0 20 -18 14 -25
-9z"/>
<path d="M5587 6090 c-9 -11 -23 -20 -31 -20 -7 0 -20 -7 -27 -16 -12 -15 -11
-16 10 -9 34 11 91 46 91 56 0 16 -25 10 -43 -11z"/>
<path d="M5724 6074 c37 -35 46 -41 46 -24 0 14 -39 47 -62 53 -14 4 -10 -3
16 -29z"/>
<path d="M12173 6035 c39 -38 47 -42 47 -22 0 8 -11 20 -25 27 -14 7 -25 17
-25 22 0 4 -7 8 -17 8 -11 0 -5 -10 20 -35z"/>
<path d="M1217 5832 c-53 -53 -97 -101 -97 -105 0 -4 45 -7 100 -7 60 0 100 4
100 10 0 6 -32 10 -75 10 -46 0 -75 4 -75 11 0 5 27 36 61 67 63 59 107 112
92 112 -5 0 -52 -44 -106 -98z"/>
<path d="M1435 5920 c9 -15 -35 -173 -53 -187 -15 -11 -12 -12 20 -13 29 0 36
3 32 15 -4 8 -3 31 0 50 6 30 11 35 35 35 57 0 103 64 69 98 -14 14 -112 17
-103 2z m83 -28 c4 -28 -23 -62 -50 -62 -21 0 -21 2 -7 53 8 31 14 38 32 35
14 -2 23 -11 25 -26z"/>
<path d="M1617 5907 c6 -32 -33 -157 -55 -173 -15 -12 -13 -13 18 -14 35 0 35
1 36 41 2 75 36 78 55 3 10 -38 15 -44 37 -44 23 0 24 2 10 18 -15 19 -38 67
-38 82 0 6 5 10 11 10 34 0 57 73 28 91 -8 5 -35 9 -60 9 -43 0 -46 -2 -42
-23z m67 7 c26 -10 20 -58 -9 -74 -33 -17 -38 -10 -30 39 7 42 11 46 39 35z"/>
<path d="M1822 5904 c-61 -49 -79 -119 -42 -166 19 -25 19 -25 -1 -44 -19 -17
-19 -19 -2 -25 39 -16 120 -10 144 11 13 10 19 19 12 20 -6 0 -15 -4 -18 -10
-7 -11 -48 -13 -83 -4 -18 5 -20 9 -11 20 6 8 20 14 31 14 27 0 65 27 88 65
27 44 28 120 1 135 -34 18 -84 11 -119 -16z m108 -10 c28 -73 -60 -186 -120
-154 -38 20 -19 117 33 163 31 27 75 22 87 -9z"/>
<path d="M2364 5893 c-77 -98 -83 -126 -26 -121 35 3 37 2 40 -29 4 -41 22
-44 22 -4 0 18 6 31 18 36 16 6 16 7 -2 20 -16 12 -17 22 -11 74 4 36 3 61 -2
61 -5 0 -23 -17 -39 -37z m16 -58 c0 -44 -1 -45 -30 -43 -16 1 -30 4 -30 6 0
11 45 82 52 82 4 0 8 -20 8 -45z"/>
<path d="M2466 5906 c-22 -35 -20 -41 9 -22 22 14 85 23 85 11 0 -2 -13 -41
-30 -87 -33 -90 -35 -101 -19 -96 9 3 81 199 75 204 0 1 -24 4 -52 8 -47 6
-53 4 -68 -18z"/>
<path d="M2627 5912 c-24 -26 -21 -49 7 -67 20 -14 28 -14 45 -3 27 17 28 64
2 78 -27 14 -35 13 -54 -8z m57 -19 c4 -9 0 -23 -9 -32 -13 -14 -17 -14 -30 0
-19 19 -10 49 15 49 10 0 21 -8 24 -17z"/>
<path d="M3490 5815 l-105 -105 109 0 c60 0 106 3 103 7 -4 3 -41 5 -82 4 -46
-1 -75 2 -75 8 0 6 38 48 85 95 47 46 85 87 85 90 0 16 -24 -3 -120 -99z"/>
<path d="M3709 5906 c8 -10 6 -29 -9 -76 -11 -34 -20 -68 -20 -76 0 -7 -7 -20
-16 -28 -14 -15 -13 -16 16 -16 18 0 29 4 25 10 -3 5 -1 28 5 50 10 37 13 40
45 40 37 0 75 28 75 55 0 31 -38 55 -86 55 -38 0 -44 -2 -35 -14z m87 -19 c3
-8 0 -26 -5 -40 -8 -20 -18 -27 -36 -27 -28 0 -29 4 -14 49 11 32 45 43 55 18z"/>
<path d="M3886 5904 c-24 -24 -19 -48 19 -95 20 -23 34 -48 30 -56 -3 -8 -5
-18 -5 -23 0 -14 -31 -20 -51 -10 -11 6 -19 21 -19 35 0 35 -16 31 -24 -6 -3
-17 -6 -34 -6 -38 0 -12 97 -6 113 8 26 21 20 64 -13 106 -33 42 -37 57 -16
74 18 15 46 3 46 -19 0 -32 18 -31 29 2 6 17 11 32 11 32 0 1 -22 3 -49 4 -34
1 -55 -3 -65 -14z"/>
<path d="M4080 5901 c-36 -19 -79 -88 -80 -127 0 -12 11 -33 24 -47 l24 -26
-24 -25 -25 -24 57 -8 c58 -7 124 12 124 36 0 6 -11 4 -24 -5 -24 -16 -106
-12 -106 6 0 11 35 29 57 29 35 0 103 92 103 140 0 28 -43 70 -72 70 -13 0
-39 -8 -58 -19z m82 -8 c22 -20 23 -42 3 -91 -23 -52 -54 -82 -87 -82 -62 0
-60 96 3 159 35 35 54 38 81 14z"/>
<path d="M4614 5912 c-21 -2 -35 -12 -47 -32 -23 -39 -22 -46 12 -58 40 -14
57 -47 42 -80 -10 -21 -16 -24 -47 -19 -25 4 -34 2 -31 -6 6 -21 52 -19 81 4
22 17 27 28 24 58 -2 28 -10 40 -35 56 -41 26 -42 45 -3 45 18 0 33 6 37 15 7
20 5 21 -33 17z"/>
<path d="M5230 5910 c0 -5 10 -9 23 -7 21 2 22 -1 18 -58 -4 -71 -22 -119 -58
-157 -15 -16 -22 -28 -16 -28 25 0 72 64 82 112 7 34 31 51 31 23 0 -10 9 -33
21 -51 l21 -34 -57 -26 c-31 -14 -54 -28 -51 -31 2 -3 30 7 62 22 l57 27 42
-21 c23 -12 50 -21 59 -21 22 0 21 20 -1 20 -10 1 -32 9 -50 18 l-32 17 34 50
c19 28 34 53 35 58 0 4 -14 7 -31 7 -33 0 -33 -3 -13 66 6 21 3 22 -85 23 -56
1 -91 -2 -91 -9z m148 -16 c2 -1 1 -16 -3 -33 -6 -28 -10 -31 -46 -31 -38 0
-39 1 -39 33 0 19 3 37 7 40 6 6 73 -1 81 -9z m42 -80 c0 -12 -44 -84 -51 -84
-12 0 -49 56 -49 74 0 13 11 16 50 16 28 0 50 -3 50 -6z"/>
<path d="M4707 5892 c-23 -26 -21 -39 2 -18 26 24 55 17 59 -13 3 -17 -4 -30
-20 -43 l-23 -18 22 0 c24 0 38 -29 28 -60 -6 -20 -19 -24 -62 -20 -13 1 -23
-3 -23 -9 0 -17 63 -13 88 5 16 11 22 25 22 54 0 21 -5 40 -11 42 -9 3 -9 10
0 27 7 13 10 34 7 47 -5 19 -13 24 -40 24 -19 0 -40 -8 -49 -18z"/>
<path d="M4856 5888 c-13 -19 -14 -25 -2 -43 16 -24 64 -27 79 -4 5 9 7 28 3
42 -5 22 -12 27 -36 27 -18 0 -34 -8 -44 -22z m59 -23 c0 -13 -8 -21 -22 -23
-19 -3 -23 1 -23 23 0 22 4 26 23 23 14 -2 22 -10 22 -23z"/>
<path d="M5847 5811 c-53 -56 -97 -105 -97 -109 0 -10 186 -9 196 1 4 4 -29 7
-74 7 -45 0 -82 4 -82 9 0 5 37 45 81 89 45 44 80 85 77 92 -2 6 -47 -34 -101
-89z"/>
<path d="M8179 5903 c-1 -5 -2 -15 -3 -23 -1 -11 -18 -17 -66 -21 l-65 -6 61
-1 61 -2 5 -47 c2 -27 2 -69 0 -95 -4 -44 -6 -48 -31 -48 l-26 0 29 -15 c15
-8 32 -12 37 -9 5 3 9 30 9 61 l0 56 50 -47 c52 -48 57 -51 78 -37 10 6 7 10
-11 15 -30 7 -87 53 -87 70 0 6 16 20 35 30 35 19 46 36 23 36 -7 0 -24 -12
-40 -27 -30 -29 -35 -29 -38 2 -6 53 -3 55 61 55 38 0 58 4 54 10 -3 6 -18 7
-32 4 -15 -4 -24 -3 -20 2 7 12 -21 50 -30 41 -4 -4 -1 -13 5 -19 19 -19 14
-28 -13 -28 -20 0 -25 5 -25 25 0 22 -18 37 -21 18z"/>
<path d="M6048 5893 c6 -2 12 -11 12 -19 0 -26 -32 -122 -58 -176 -2 -5 8 -8
22 -8 19 0 25 5 23 18 -3 27 45 182 57 182 44 -1 47 -57 5 -77 l-27 -13 21
-55 c14 -39 25 -55 38 -55 18 0 18 2 -1 35 -21 38 -26 75 -11 75 18 0 41 31
41 55 0 32 -27 45 -87 44 -26 0 -42 -3 -35 -6z"/>
<path d="M6275 5888 c-34 -20 -73 -71 -80 -104 -7 -38 2 -64 28 -85 20 -16 20
-17 -6 -34 -15 -9 -27 -20 -27 -24 0 -4 32 -8 71 -9 52 -2 78 1 96 13 14 9 22
19 20 22 -3 2 -17 -3 -30 -12 -21 -13 -32 -14 -66 -5 -36 10 -40 13 -27 25 8
8 22 15 31 15 51 0 115 78 115 139 0 59 -69 91 -125 59z m85 -13 c16 -19 8
-87 -14 -120 -24 -37 -62 -58 -90 -51 -49 12 -31 130 25 170 29 20 63 21 79 1z"/>
<path d="M6456 5878 c-23 -32 -20 -40 20 -83 46 -50 45 -88 -4 -93 -29 -3 -33
0 -38 27 -7 34 -24 42 -24 12 0 -11 -3 -26 -6 -35 -5 -13 3 -16 49 -16 93 0
113 45 52 114 -38 44 -42 58 -20 76 22 18 55 3 55 -26 0 -13 5 -24 10 -24 6 0
10 9 10 19 0 11 2 25 5 33 4 9 -8 14 -44 16 -42 2 -52 -1 -65 -20z"/>
<path d="M6934 5885 c-11 -8 -14 -15 -6 -15 8 0 12 -24 12 -84 0 -58 -4 -86
-12 -89 -7 -3 3 -6 22 -6 22 0 30 2 22 8 -10 6 -13 33 -11 100 1 50 0 94 -3
96 -2 3 -13 -2 -24 -10z"/>
<path d="M9693 5850 c-15 -36 -17 -47 -7 -43 11 4 14 -5 14 -41 0 -25 5 -46
10 -46 6 0 10 -7 10 -16 0 -13 -10 -15 -66 -8 -49 5 -65 4 -60 -5 4 -6 33 -11
67 -11 l59 0 0 -36 c0 -21 4 -33 10 -29 6 3 10 19 10 36 l0 29 65 0 c36 0 65
4 65 9 0 13 -28 22 -35 11 -4 -6 -26 -10 -51 -10 -38 0 -45 3 -42 18 3 14 16
18 66 20 34 2 60 7 57 12 -3 5 -21 6 -40 3 -28 -4 -35 -2 -35 11 0 11 9 16 31
16 20 0 29 4 26 13 -4 12 -7 12 -36 5 -7 -1 -16 3 -18 10 -3 8 6 12 26 12 17
0 31 5 31 11 0 7 -11 8 -30 4 -23 -5 -30 -3 -30 9 0 12 10 16 36 16 19 0 33 4
30 9 -3 4 -17 6 -32 3 -18 -3 -30 0 -36 12 -11 20 -29 21 -22 1 4 -10 0 -15
-15 -15 -14 0 -21 6 -21 20 0 33 -14 22 -37 -30z m77 -15 c0 -9 -9 -15 -25
-15 -16 0 -25 6 -25 15 0 9 9 15 25 15 16 0 25 -6 25 -15z m0 -35 c0 -5 -11
-10 -25 -10 -14 0 -25 5 -25 10 0 6 11 10 25 10 14 0 25 -4 25 -10z m0 -45 c0
-9 -9 -15 -25 -15 -16 0 -25 6 -25 15 0 9 9 15 25 15 16 0 25 -6 25 -15z"/>
<path d="M10103 5880 c-6 -22 -33 -28 -33 -7 -1 13 -29 -32 -30 -47 0 -5 9 -1
20 9 29 27 36 11 11 -28 -11 -19 -18 -37 -14 -40 3 -4 5 -39 4 -78 -2 -55 1
-70 11 -67 8 3 12 17 10 36 -3 27 0 32 17 32 14 0 21 -6 21 -20 0 -11 -6 -20
-12 -20 -9 0 -8 -4 2 -10 19 -12 100 -13 100 -1 0 17 -21 23 -36 10 -11 -9
-18 -9 -26 -1 -16 16 -1 44 20 40 11 -2 19 2 20 7 1 6 -9 9 -22 7 -21 -3 -23
1 -23 37 0 40 1 41 33 41 26 0 32 3 28 15 -4 10 -13 13 -26 9 -12 -3 -28 1
-40 13 -20 17 -21 17 -15 1 5 -13 1 -18 -13 -18 -23 0 -24 4 -10 31 14 25 80
28 80 3 0 -14 3 -14 15 -4 26 22 11 35 -34 31 -39 -2 -42 -1 -36 18 4 13 2 21
-5 21 -7 0 -14 -9 -17 -20z m17 -141 c0 -32 -3 -39 -20 -39 -25 0 -26 18 -2
37 9 8 11 12 4 8 -17 -9 -28 25 -11 35 21 13 29 2 29 -41z"/>
<path d="M7052 5878 c-7 -7 -12 -19 -12 -27 0 -11 4 -11 19 3 36 33 80 3 67
-47 -3 -14 -24 -44 -46 -67 -22 -23 -40 -45 -40 -49 0 -8 91 -4 118 4 31 10 7
22 -34 17 l-46 -5 35 46 c46 61 52 82 33 112 -18 28 -72 35 -94 13z"/>
<path d="M7215 5860 c-30 -58 -14 -163 27 -176 50 -15 87 51 75 137 -7 51 -22
69 -58 69 -21 0 -32 -7 -44 -30z m69 4 c8 -20 8 -112 0 -142 -9 -34 -45 -25
-56 13 -10 36 -3 112 13 131 15 19 35 18 43 -2z"/>
<path d="M7356 5868 c-28 -39 19 -82 64 -58 22 12 25 31 10 61 -14 26 -55 24
-74 -3z m61 -32 c-4 -9 -16 -16 -27 -16 -15 0 -20 7 -20 24 0 13 6 26 13 29
18 7 41 -19 34 -37z"/>
<path d="M8658 5786 c-54 -56 -98 -105 -98 -109 0 -4 45 -7 100 -7 60 0 100 4
100 10 0 6 -33 10 -80 10 -44 0 -80 3 -80 7 0 3 38 44 85 89 76 74 100 107 78
103 -5 -1 -52 -47 -105 -103z"/>
<path d="M9636 5869 c12 -13 20 -16 22 -9 3 7 -2 16 -9 21 -25 16 -32 9 -13
-12z"/>
<path d="M10007 5878 c-10 -5 -31 -6 -47 -3 -19 4 -30 3 -30 -4 0 -6 7 -11 16
-11 13 0 15 -7 9 -42 -4 -24 -11 -51 -17 -60 -5 -12 -5 -18 2 -18 5 0 10 -22
10 -51 0 -34 4 -49 12 -47 8 3 11 25 9 66 -2 57 -1 62 18 62 18 0 21 -6 21
-49 0 -30 -5 -51 -12 -54 -10 -4 -10 -6 0 -6 6 -1 15 -2 19 -3 4 -2 6 18 4 45
-1 29 2 47 8 47 8 0 7 6 -1 20 -7 10 -21 18 -33 17 -16 -2 -19 3 -17 23 4 42
10 50 37 50 14 0 25 4 25 9 0 16 -14 20 -33 9z"/>
<path d="M10393 5883 c-123 -4 -168 -19 -72 -25 l51 -3 -31 -30 c-45 -45 -41
-61 15 -57 45 4 45 4 42 -24 -3 -27 -4 -28 -57 -25 -36 2 -51 -1 -46 -8 3 -6
28 -11 56 -11 48 0 49 -1 49 -30 l0 -29 -72 -4 c-40 -1 -9 -4 69 -5 126 -2
142 0 136 14 -4 11 -9 12 -16 5 -6 -6 -33 -11 -59 -11 -47 0 -48 1 -48 30 0
29 1 30 50 30 28 0 50 4 50 9 0 16 -21 24 -33 12 -12 -12 -53 -15 -60 -3 -3 4
-3 19 0 35 5 24 10 27 44 27 26 0 41 -6 48 -17 10 -17 10 -16 11 2 0 11 -15
32 -34 48 -41 32 -57 36 -31 7 10 -11 16 -22 14 -24 -6 -5 -139 -13 -139 -7 0
2 16 19 35 37 32 32 39 34 100 34 51 0 65 3 65 15 0 8 -3 14 -7 13 -5 -1 -63
-4 -130 -5z"/>
<path d="M10650 5841 c0 -35 3 -42 16 -37 9 3 41 6 73 6 53 0 57 2 57 23 -1
35 19 35 22 0 5 -48 22 -40 22 10 l0 42 -95 0 -95 0 0 -44z m126 18 c3 -5 -20
-9 -51 -9 -31 0 -54 4 -51 9 3 4 26 8 51 8 25 0 48 -4 51 -8z m4 -30 c0 -5
-25 -9 -56 -9 -32 0 -53 4 -49 9 7 12 105 12 105 0z"/>
<path d="M10990 5860 c0 -26 -4 -30 -26 -30 -14 0 -23 -4 -19 -10 3 -5 15 -10
26 -10 15 0 19 -7 19 -35 0 -28 -4 -35 -20 -35 -11 0 -20 -6 -20 -14 0 -8 6
-13 13 -12 15 1 17 -5 17 -44 0 -22 -5 -30 -17 -30 -16 -1 -16 -2 1 -15 32
-24 36 -18 36 43 0 51 3 61 27 83 16 13 35 27 43 31 11 5 10 7 -5 7 -11 1 -26
-9 -33 -20 -9 -15 -17 -18 -24 -11 -15 15 1 52 23 52 10 0 19 5 19 11 0 5 -10
9 -22 7 -20 -3 -23 1 -20 30 2 18 -1 32 -7 32 -6 0 -11 -13 -11 -30z"/>
<path d="M11104 5873 c1 -13 -6 -18 -26 -18 -16 1 -28 -3 -28 -7 0 -4 7 -8 15
-8 13 0 22 -20 26 -60 3 -33 -2 -40 -31 -40 -16 0 -30 -4 -30 -10 0 -5 11 -10
25 -10 22 0 25 -3 19 -24 -4 -18 -1 -25 18 -30 22 -6 23 -7 4 -21 -11 -8 -28
-15 -37 -15 -10 0 -21 -4 -24 -10 -10 -16 15 -12 62 11 l43 21 36 -21 c20 -12
39 -19 43 -16 7 8 -39 44 -57 45 -8 0 -11 6 -8 13 3 6 9 20 12 30 4 9 16 17
30 17 12 0 26 5 30 11 5 8 -1 10 -18 6 -19 -5 -28 -2 -32 10 -6 15 -8 14 -20
-2 -17 -24 -46 -13 -39 14 3 11 -2 33 -10 50 -17 35 -13 43 19 35 29 -7 31 7
6 29 -24 22 -30 21 -28 0z m42 -169 c-3 -9 -6 -20 -6 -25 0 -11 -21 -12 -38
-1 -20 13 -3 42 25 42 19 0 24 -4 19 -16z"/>
<path d="M11310 5883 c0 -5 9 -19 20 -33 15 -19 20 -21 20 -8 0 9 -7 24 -16
32 -17 18 -24 20 -24 9z"/>
<path d="M11765 5834 c-17 -58 -13 -87 4 -40 10 23 16 26 62 26 l51 0 -6 -67
c-12 -122 -14 -126 -50 -119 l-31 6 24 -19 c47 -36 67 -2 79 131 l8 86 -59 -6
-59 -5 7 32 c12 55 -13 34 -30 -25z"/>
<path d="M12105 5872 c7 -23 6 -24 -49 -20 l-56 3 -1 -40 c-3 -86 -8 -122 -22
-162 -8 -24 -10 -43 -5 -43 17 0 38 69 38 125 l0 56 32 -3 c25 -2 33 -8 33
-23 0 -24 3 -25 60 -25 40 0 45 2 42 22 -2 18 3 22 27 22 16 1 31 7 33 13 3 9
-4 11 -28 6 -27 -5 -31 -4 -26 10 4 11 1 17 -8 17 -8 0 -15 -7 -15 -15 0 -24
-56 -20 -63 5 -5 19 0 20 74 20 43 0 79 4 79 10 0 5 -21 7 -50 3 -44 -5 -54
-3 -77 18 l-25 24 7 -23z m-27 -49 c-2 -12 -13 -18 -33 -18 -20 0 -31 6 -33
18 -3 14 4 17 33 17 29 0 36 -3 33 -17z m80 -55 c3 -15 -4 -18 -32 -18 -34 0
-47 15 -29 34 13 13 58 1 61 -16z"/>
<path d="M8869 5871 c12 -8 12 -18 -3 -68 -9 -32 -25 -75 -35 -95 l-19 -38 35
0 c29 0 33 3 24 13 -8 10 -7 25 3 58 8 24 17 56 20 71 9 38 34 62 52 47 22
-18 16 -48 -11 -61 -29 -13 -30 -19 -9 -81 14 -40 20 -47 42 -47 23 1 25 2 11
13 -20 15 -39 51 -39 72 0 10 11 26 25 37 53 42 23 88 -57 88 -35 0 -48 -3
-39 -9z"/>
<path d="M9064 5848 c-3 -51 -34 -151 -53 -165 -14 -11 -10 -12 23 -13 30 0
36 3 28 13 -7 8 -7 23 1 49 10 32 16 37 51 41 43 6 66 28 66 62 0 32 -20 45
-69 45 -45 0 -46 -1 -47 -32z m80 9 c24 -18 14 -50 -20 -65 -48 -23 -53 -16
-29 42 17 40 23 42 49 23z"/>
<path d="M9242 5868 c-20 -20 -14 -53 18 -93 33 -42 38 -66 15 -85 -25 -21
-65 3 -65 37 -1 32 -13 17 -24 -29 -6 -28 -6 -28 47 -28 92 0 112 47 52 117
-40 47 -43 58 -16 73 26 13 51 3 51 -21 0 -17 20 -29 20 -11 0 4 3 17 6 30 6
21 3 22 -43 22 -27 0 -54 -5 -61 -12z"/>
<path d="M11485 5870 c-11 -5 -34 -9 -51 -9 l-31 -1 -5 -80 c-3 -45 -10 -86
-16 -92 -14 -14 -16 -28 -3 -28 12 0 41 74 41 105 0 21 5 25 30 25 l30 0 0
-69 c0 -86 19 -107 22 -24 0 32 1 65 2 73 1 9 13 16 29 18 15 2 27 7 27 11 0
5 -31 6 -70 3 -69 -5 -70 -4 -70 20 0 23 4 26 56 31 58 6 102 28 54 26 -14 0
-34 -4 -45 -9z"/>
<path d="M11666 5855 c-4 -14 -13 -25 -21 -25 -12 0 -15 -18 -15 -100 0 -60 4
-100 10 -100 6 0 10 5 10 10 0 14 54 12 68 -2 9 -9 12 2 13 53 0 35 1 82 2
104 1 27 -3 39 -11 38 -7 -2 -18 -4 -24 -5 -14 -3 -14 5 -3 35 5 11 2 17 -8
17 -8 0 -18 -11 -21 -25z m54 -76 c0 -26 -3 -29 -35 -29 -32 0 -35 2 -35 29 0
20 6 31 18 33 34 8 52 -3 52 -33z m-5 -79 c0 -32 -2 -35 -30 -35 -28 0 -30 3
-33 38 -3 38 -3 38 30 35 30 -3 33 -6 33 -38z"/>
<path d="M11177 5853 c-9 -2 -15 -9 -12 -13 3 -5 -1 -20 -10 -33 -8 -13 -12
-27 -8 -30 10 -11 61 -8 68 4 11 17 -1 22 -24 9 -30 -16 -28 8 4 43 25 26 21
30 -18 20z"/>
<path d="M2050 5830 c0 -6 31 -10 81 -10 44 0 78 4 75 8 -7 12 -156 15 -156 2z"/>
<path d="M3002 5811 c26 -33 38 -38 38 -17 0 15 -36 46 -53 46 -5 0 2 -13 15
-29z"/>
<path d="M4293 5818 c-2 -5 30 -8 71 -8 42 0 76 3 76 8 0 4 -32 7 -71 7 -39 0
-73 -3 -76 -7z"/>
<path d="M8090 5828 c0 -17 38 -69 44 -60 3 6 -5 23 -19 39 -13 15 -25 25 -25
21z"/>
<path d="M9614 5815 c21 -16 32 -13 21 4 -3 6 -14 11 -23 11 -15 -1 -15 -2 2
-15z"/>
<path d="M11310 5810 c-33 -7 -33 -7 -6 -9 21 -1 27 -5 22 -16 -3 -8 -9 -22
-12 -30 -4 -11 0 -15 15 -15 24 0 24 2 11 -37 -6 -17 -22 -35 -35 -41 -14 -7
-25 -16 -25 -22 0 -14 16 -12 29 4 9 11 18 10 53 -7 31 -16 62 -21 117 -22 41
0 76 4 78 10 2 6 -17 9 -48 6 -63 -4 -129 6 -152 23 -16 12 -16 16 -2 42 20
38 20 68 0 60 -17 -6 -21 19 -5 29 12 7 14 36 3 34 -5 -1 -24 -5 -43 -9z"/>
<path d="M6660 5800 c0 -6 32 -10 75 -10 43 0 75 4 75 10 0 6 -32 10 -75 10
-43 0 -75 -4 -75 -10z"/>
<path d="M7713 5775 c2 -40 11 -44 27 -14 14 24 6 49 -14 49 -10 0 -14 -10
-13 -35z"/>
<path d="M10855 5790 c-4 -6 -58 -10 -128 -11 -67 -1 -114 -3 -104 -6 23 -6
26 -113 2 -113 -8 0 -15 -7 -15 -15 0 -18 8 -18 40 0 39 22 60 19 60 -10 0
-29 15 -32 56 -10 36 19 54 19 80 0 19 -13 34 -11 34 4 0 3 -13 12 -30 19
l-29 13 19 37 c11 20 20 40 20 44 0 5 -25 8 -55 8 -62 0 -65 -6 -33 -58 21
-34 21 -35 3 -48 -37 -28 -45 -18 -45 56 l0 70 75 0 c41 0 75 4 75 9 0 15 -18
23 -25 11z m-153 -50 c-3 -24 -9 -30 -28 -30 -26 0 -32 14 -11 24 10 5 10 7 0
12 -23 10 -14 24 15 24 26 0 28 -3 24 -30z m128 -12 c-1 -7 -7 -24 -14 -37
l-14 -25 -16 32 c-21 41 -21 42 14 42 18 0 30 -5 30 -12z m-130 -43 c0 -9 -9
-15 -25 -15 -24 0 -32 10 -18 23 12 13 43 7 43 -8z"/>
<path d="M2050 5770 c0 -6 33 -10 80 -10 47 0 80 4 80 10 0 6 -33 10 -80 10
-47 0 -80 -4 -80 -10z"/>
<path d="M9628 5755 c-37 -32 -36 -53 1 -23 29 23 47 48 33 48 -4 0 -19 -12
-34 -25z"/>
<path d="M12421 5766 c-19 -23 -4 -58 22 -54 17 2 22 10 22 33 0 34 -24 45
-44 21z m39 -26 c0 -11 -7 -20 -15 -20 -8 0 -15 9 -15 20 0 11 7 20 15 20 8 0
15 -9 15 -20z"/>
<path d="M4290 5760 c0 -6 34 -10 81 -10 51 0 78 4 74 10 -3 6 -40 10 -81 10
-43 0 -74 -4 -74 -10z"/>
<path d="M11780 5766 c0 -3 8 -14 19 -25 10 -10 21 -25 23 -32 3 -8 9 -11 13
-6 9 8 -24 58 -43 65 -7 2 -12 1 -12 -2z"/>
<path d="M6660 5740 c0 -6 32 -10 75 -10 43 0 75 4 75 10 0 6 -32 10 -75 10
-43 0 -75 -4 -75 -10z"/>
<path d="M8131 5736 c-6 -8 -25 -19 -41 -26 -17 -7 -30 -19 -30 -26 0 -22 13
-17 60 26 24 22 39 40 33 40 -6 0 -16 -6 -22 -14z"/>
<path d="M10165 5740 c-3 -5 3 -10 14 -10 12 0 21 5 21 10 0 6 -6 10 -14 10
-8 0 -18 -4 -21 -10z"/>
<path d="M12060 5713 c0 -2 11 -16 25 -31 14 -15 25 -30 25 -34 0 -3 -25 -14
-55 -23 -30 -8 -55 -18 -55 -21 0 -8 73 8 102 22 24 12 33 12 76 -5 27 -11 54
-16 61 -11 16 10 6 16 -41 24 -45 8 -46 13 -13 45 14 13 23 26 20 29 -6 7
-145 11 -145 5z m110 -23 c0 -5 -10 -14 -21 -21 -18 -9 -25 -7 -42 10 l-21 21
42 0 c23 0 42 -4 42 -10z"/>
<path d="M10480 5128 c0 -4 5 -8 11 -8 11 0 11 0 -21 -107 -12 -40 -26 -73
-31 -73 -5 0 -9 -4 -9 -10 0 -5 14 -10 31 -10 24 0 30 3 25 16 -3 9 -1 34 4
55 10 34 14 38 34 33 24 -6 65 10 78 30 12 17 9 54 -4 63 -19 11 -118 21 -118
11z m84 -14 c25 -9 19 -51 -9 -70 -40 -26 -51 -5 -29 64 4 13 14 15 38 6z"/>
<path d="M2013 5068 c-16 -35 -37 -82 -49 -105 l-21 -43 23 0 c16 0 22 4 18
14 -11 28 15 56 51 56 39 0 65 -31 45 -54 -8 -11 -4 -15 20 -18 34 -5 47 4 27
20 -7 6 -26 51 -42 101 -17 50 -33 91 -37 91 -4 0 -20 -28 -35 -62z m44 -33
c11 -34 11 -35 -18 -35 -32 0 -35 7 -17 45 15 34 23 32 35 -10z"/>
<path d="M2914 5085 c-18 -44 -18 -42 10 -49 34 -8 56 -33 56 -61 0 -31 -29
-47 -71 -38 -25 5 -31 3 -27 -8 8 -23 61 -22 91 1 20 16 27 30 27 56 0 36 -28
74 -55 74 -8 0 -15 7 -15 15 0 10 10 15 34 15 21 0 36 6 40 15 4 12 -3 15 -35
15 -36 0 -41 -3 -55 -35z"/>
<path d="M3050 5098 c-34 -37 -25 -53 11 -17 23 23 47 22 62 -2 16 -26 1 -63
-49 -118 l-46 -51 65 0 c51 0 66 4 71 16 9 23 7 23 -41 14 -47 -8 -53 -1 -25
27 32 31 62 80 62 100 0 49 -73 70 -110 31z"/>
<path d="M3212 5108 c-17 -17 -15 -65 4 -72 31 -12 55 -6 65 18 22 47 -33 90
-69 54z m58 -38 c0 -10 -6 -20 -12 -23 -22 -7 -38 4 -38 28 0 13 6 25 13 28
17 6 37 -12 37 -33z"/>
<path d="M2180 4929 c0 -24 23 -21 28 4 2 10 -3 17 -12 17 -10 0 -16 -9 -16
-21z"/>
<path d="M10491 4846 c-5 -6 -35 -49 -67 -96 -31 -47 -85 -125 -119 -175 -145
-212 -266 -392 -383 -565 -111 -165 -171 -251 -372 -535 -31 -44 -83 -120
-116 -170 -32 -49 -63 -94 -67 -100 -15 -18 -119 -168 -205 -295 -47 -69 -108
-158 -136 -199 -28 -41 -71 -104 -96 -140 -25 -36 -75 -108 -110 -159 -141
-202 -198 -285 -338 -492 -80 -118 -188 -278 -241 -355 -52 -77 -134 -198
-183 -270 -48 -71 -91 -134 -95 -140 -29 -36 -183 -273 -183 -282 0 -6 10 -13
21 -16 12 -3 313 -6 668 -6 355 -1 862 -3 1126 -6 264 -3 818 -7 1230 -10 413
-3 950 -7 1195 -10 245 -3 858 -7 1363 -11 759 -4 917 -3 917 8 0 7 -59 74
-130 148 -210 218 -215 223 -260 275 -80 94 -250 279 -380 415 -25 25 -97 102
-160 170 -63 67 -135 143 -160 169 -25 25 -76 80 -114 121 -38 41 -92 100
-121 130 -28 30 -80 87 -115 125 -35 39 -117 126 -184 195 -67 69 -179 188
-251 265 -71 76 -143 153 -160 171 -16 17 -104 109 -195 204 -91 95 -219 227
-285 294 -66 67 -174 180 -240 251 -140 149 -161 172 -356 377 -81 84 -166
174 -190 199 -74 79 -313 332 -329 349 -8 8 -50 52 -92 97 -54 57 -80 78 -87
69z m334 -361 c83 -88 186 -198 230 -245 44 -47 95 -101 115 -120 19 -19 76
-78 125 -131 291 -311 367 -391 526 -554 97 -99 218 -225 270 -279 52 -54 110
-115 129 -136 19 -20 94 -99 165 -175 72 -76 175 -186 230 -243 194 -203 242
-253 420 -447 71 -77 172 -185 224 -240 82 -86 295 -311 396 -420 32 -34 166
-182 254 -280 57 -62 154 -164 279 -292 66 -68 84 -93 64 -93 -4 0 -12 8 -18
18 -16 24 -71 55 -79 43 -3 -6 11 -20 32 -31 l38 -21 -1465 6 c-806 3 -1537 8
-1625 10 -88 2 -772 7 -1520 11 -748 3 -1441 7 -1540 9 -99 2 -193 4 -209 5
-28 0 -29 0 -11 20 21 23 13 39 -10 20 -25 -21 -17 5 14 44 16 20 44 60 62 89
19 29 38 57 44 63 5 6 16 20 22 30 44 65 183 270 263 387 52 76 115 169 140
207 49 75 236 351 319 470 28 41 67 98 86 125 19 28 43 62 55 77 11 14 50 71
87 125 80 117 142 208 308 448 68 99 159 232 202 295 44 63 106 153 138 199
95 133 168 238 251 361 43 63 82 117 86 118 4 2 8 8 8 14 0 6 15 31 34 57 18
25 85 123 148 216 63 94 143 211 177 260 35 50 93 135 129 190 65 97 67 99 70
67 4 -43 22 -31 22 16 l0 37 83 -85 c45 -47 150 -157 232 -245z"/>
<path d="M10480 4620 c0 -38 4 -50 15 -50 11 0 15 12 15 50 0 38 -4 50 -15 50
-11 0 -15 -12 -15 -50z"/>
<path d="M10480 4460 c0 -27 5 -50 10 -50 6 0 10 23 10 50 0 28 -4 50 -10 50
-5 0 -10 -22 -10 -50z"/>
<path d="M10477 4343 c-11 -10 -8 -93 3 -93 6 0 10 23 10 50 0 51 -1 55 -13
43z"/>
<path d="M10466 4145 c-8 -49 0 -77 15 -54 11 18 11 86 0 93 -5 3 -12 -14 -15
-39z"/>
<path d="M10460 3971 c0 -28 5 -51 10 -51 6 0 10 18 10 40 0 48 0 48 -11 56
-5 3 -9 -17 -9 -45z"/>
<path d="M10455 3858 c-9 -24 -2 -93 10 -93 14 0 19 85 6 98 -7 7 -12 5 -16
-5z"/>
<path d="M10450 3650 c0 -27 5 -50 10 -50 6 0 10 23 10 50 0 28 -4 50 -10 50
-5 0 -10 -22 -10 -50z"/>
<path d="M10440 3490 c0 -27 5 -50 10 -50 6 0 10 23 10 50 0 28 -4 50 -10 50
-5 0 -10 -22 -10 -50z"/>
<path d="M10436 3339 c-7 -41 -2 -59 15 -59 5 0 9 23 9 50 0 60 -15 66 -24 9z"/>
<path d="M10430 3170 c0 -27 5 -50 10 -50 6 0 10 23 10 50 0 28 -4 50 -10 50
-5 0 -10 -22 -10 -50z"/>
<path d="M10427 3053 c-4 -3 -7 -26 -7 -50 0 -32 4 -43 15 -43 11 0 15 12 15
50 0 46 -7 60 -23 43z"/>
<path d="M10393 2926 c-4 -7 -18 -18 -30 -25 -24 -12 -31 -31 -12 -31 19 0 69
41 69 56 0 18 -16 18 -27 0z"/>
<path d="M10480 2912 c0 -10 56 -52 70 -52 23 0 8 21 -30 40 -22 11 -40 17
-40 12z"/>
<path d="M10620 2835 c0 -14 54 -55 73 -55 20 0 3 31 -29 49 -42 25 -44 25
-44 6z"/>
<path d="M10270 2833 c0 -5 -14 -17 -30 -28 -16 -11 -30 -26 -30 -32 0 -19 9
-16 47 13 31 24 44 54 23 54 -5 0 -10 -3 -10 -7z"/>
<path d="M10760 2758 c0 -11 61 -58 75 -58 3 0 5 6 5 14 0 8 -16 23 -36 35
-41 25 -44 25 -44 9z"/>
<path d="M10122 2712 c-30 -25 -43 -52 -24 -52 14 0 74 67 65 73 -4 3 -23 -7
-41 -21z"/>
<path d="M10410 2687 c-64 -56 -79 -121 -37 -165 l22 -24 -28 -22 -29 -23 39
-6 c66 -11 107 -7 133 13 14 11 20 20 13 20 -6 0 -15 -4 -18 -10 -7 -11 -58
-13 -93 -4 -18 5 -20 9 -11 20 6 8 18 14 27 14 26 0 82 41 98 72 21 41 20 95
-2 119 -24 27 -82 25 -114 -4z m98 1 c17 -17 15 -57 -7 -103 -21 -47 -58 -70
-95 -61 -23 6 -26 12 -26 48 0 85 83 161 128 116z"/>
<path d="M10900 2680 c0 -10 58 -50 73 -50 18 0 4 20 -29 39 -40 24 -44 25
-44 11z"/>
<path d="M9993 2611 c-18 -15 -33 -31 -33 -34 0 -15 26 -5 54 19 40 35 19 49
-21 15z"/>
<path d="M11040 2601 c0 -8 64 -51 76 -51 2 0 4 6 4 13 0 7 -16 21 -35 30 -41
20 -45 20 -45 8z"/>
<path d="M9867 2512 c-39 -41 -33 -58 8 -25 19 15 35 34 35 41 0 19 -14 14
-43 -16z"/>
<path d="M11210 2500 c37 -32 60 -38 60 -17 0 13 -60 47 -83 47 -7 -1 4 -14
23 -30z"/>
<path d="M11330 2446 c0 -8 16 -23 36 -35 42 -25 44 -25 44 -7 0 8 -18 23 -40
35 -31 16 -40 17 -40 7z"/>
<path d="M9742 2414 c-29 -23 -43 -54 -24 -54 14 0 74 68 65 73 -5 3 -23 -6
-41 -19z"/>
<path d="M11470 2368 c0 -12 58 -58 73 -58 20 0 2 31 -29 49 -41 25 -44 25
-44 9z"/>
<path d="M9608 2312 c-16 -9 -28 -25 -28 -34 0 -24 2 -23 46 17 40 37 29 47
-18 17z"/>
<path d="M11610 2291 c0 -6 14 -18 30 -28 17 -9 30 -21 30 -26 0 -4 5 -5 10
-2 18 11 11 23 -26 44 -40 24 -44 25 -44 12z"/>
<path d="M9482 2212 c-30 -25 -43 -52 -24 -52 14 0 64 58 61 69 -2 5 -19 -2
-37 -17z"/>
<path d="M11757 2214 c-7 -7 58 -54 73 -54 23 0 7 28 -25 43 -41 19 -40 19
-48 11z"/>
<path d="M11906 2143 c-12 -12 -5 -21 30 -42 42 -25 44 -25 44 -7 0 15 -65 58
-74 49z"/>
<path d="M9351 2110 c-45 -38 -31 -59 15 -22 19 15 34 33 34 40 0 18 -11 14
-49 -18z"/>
<path d="M12042 2058 c2 -6 21 -22 41 -35 30 -19 37 -20 37 -8 0 8 -15 24 -32
35 -38 23 -51 25 -46 8z"/>
<path d="M9220 2005 c-19 -19 -29 -35 -22 -35 21 0 72 40 72 56 0 21 -11 16
-50 -21z"/>
<path d="M12190 1980 c0 -6 13 -19 30 -28 16 -9 30 -20 30 -24 0 -5 5 -8 10
-8 22 0 8 30 -24 49 -38 24 -46 26 -46 11z"/>
<path d="M9101 1911 c-19 -15 -32 -34 -29 -41 3 -9 14 -4 37 17 44 39 37 61
-8 24z"/>
<path d="M12330 1901 c0 -12 54 -51 69 -51 22 0 10 18 -25 39 -40 24 -44 25
-44 12z"/>
<path d="M8973 1811 c-30 -25 -43 -52 -25 -51 18 1 75 60 67 69 -6 6 -22 -1
-42 -18z"/>
<path d="M12470 1826 c0 -13 57 -56 74 -56 18 0 1 28 -29 48 -41 26 -45 27
-45 8z"/>
<path d="M12610 1748 c0 -20 70 -62 82 -50 7 7 -3 19 -31 36 -46 30 -51 31
-51 14z"/>
<path d="M8843 1711 c-30 -25 -43 -52 -25 -51 18 1 75 60 67 69 -6 6 -22 -1
-42 -18z"/>
<path d="M12756 1671 c-3 -5 10 -18 30 -30 37 -22 54 -26 54 -13 0 13 -78 53
-84 43z"/>
<path d="M8717 1612 c-25 -26 -35 -52 -21 -52 8 0 64 63 64 72 0 15 -17 8 -43
-20z"/>
<path d="M12890 1593 c0 -9 62 -53 73 -53 18 0 4 20 -27 39 -36 22 -46 25 -46
14z"/>
<path d="M8582 1507 c-35 -36 -39 -47 -19 -47 22 0 72 59 61 70 -7 7 -21 -1
-42 -23z"/>
<path d="M13042 1500 c7 -11 17 -20 22 -20 5 0 18 -7 28 -17 17 -15 18 -15 18
5 0 15 -11 26 -36 37 -46 19 -47 19 -32 -5z"/>
<path d="M8463 1411 c-31 -26 -43 -51 -25 -51 13 0 64 58 61 68 -2 6 -19 -2
-36 -17z"/>
<path d="M13170 1431 c0 -8 64 -51 76 -51 16 0 -1 28 -27 43 -34 19 -49 22
-49 8z"/>
<path d="M13320 1357 c0 -19 67 -60 76 -46 3 6 4 11 3 13 -2 1 -21 13 -41 25
-30 18 -38 20 -38 8z"/>
<path d="M8328 1301 c-18 -16 -30 -32 -26 -36 8 -8 78 43 78 56 0 17 -20 9
-52 -20z"/>
<path d="M13456 1281 c-3 -5 10 -18 30 -30 39 -23 54 -26 54 -11 0 14 -78 52
-84 41z"/>
<path d="M8212 1210 c-12 -10 -28 -20 -35 -23 -9 -3 -9 -7 0 -17 9 -10 18 -8
42 11 16 13 30 30 30 37 1 17 -10 15 -37 -8z"/>
<path d="M13600 1202 c0 -12 53 -52 69 -52 24 0 9 26 -21 40 -18 7 -36 15 -40
18 -5 2 -8 -1 -8 -6z"/>
<path d="M13736 1132 c-7 -11 5 -25 37 -45 26 -17 53 -15 42 3 -9 15 -74 49
-79 42z"/>
<path d="M8075 1100 c-16 -16 -26 -32 -23 -36 9 -8 68 37 68 53 0 21 -14 15
-45 -17z"/>
<path d="M13870 1048 c0 -11 61 -58 75 -58 3 0 5 6 5 14 0 8 -16 23 -36 35
-41 25 -44 25 -44 9z"/>
<path d="M7951 1004 c-19 -18 -32 -37 -28 -40 8 -8 77 43 77 56 0 21 -17 16
-49 -16z"/>
<path d="M14010 971 c0 -13 49 -51 66 -51 27 0 14 20 -26 40 -22 11 -40 16
-40 11z"/>
<path d="M1948 4383 c8 -3 12 -32 12 -93 0 -74 -3 -91 -17 -99 -24 -14 96 -15
132 -1 34 13 47 48 29 76 -8 14 -11 35 -7 57 7 48 -21 67 -102 66 -33 0 -54
-3 -47 -6z m110 -22 c8 -4 12 -19 10 -32 -2 -17 -11 -25 -35 -30 -39 -8 -43
-5 -43 38 0 29 3 33 28 33 15 0 33 -4 40 -9z m16 -103 c17 -27 -5 -52 -48 -56
l-36 -3 0 41 0 41 36 -3 c22 -2 42 -10 48 -20z"/>
<path d="M2943 4369 c-41 -26 -67 -81 -59 -128 10 -67 67 -87 109 -39 38 45 6
117 -48 104 -14 -4 -25 -2 -25 2 0 18 50 62 70 62 11 0 20 5 20 10 0 16 -33
11 -67 -11z m33 -114 c7 -37 -7 -65 -32 -65 -17 0 -34 31 -34 63 0 30 7 37 36
37 18 0 24 -7 30 -35z"/>
<path d="M3084 4378 c-46 -21 -59 -118 -24 -175 24 -39 48 -42 80 -8 19 20 23
36 24 83 1 78 -34 121 -80 100z m46 -44 c12 -36 7 -107 -10 -134 -7 -11 -14
-12 -27 -4 -23 14 -35 61 -27 104 13 76 45 93 64 34z"/>
<path d="M3206 4364 c-21 -20 -20 -37 2 -57 41 -37 90 -1 71 51 -10 26 -50 30
-73 6z m54 -9 c16 -20 5 -45 -20 -45 -14 0 -20 7 -20 23 0 38 18 48 40 22z"/>
<path d="M2160 4195 c0 -8 7 -15 15 -15 8 0 15 7 15 15 0 8 -7 15 -15 15 -8 0
-15 -7 -15 -15z"/>
<path d="M1989 3654 c-20 -6 -59 -74 -59 -103 0 -30 26 -78 49 -91 48 -25 131
1 131 42 0 6 -9 2 -20 -10 -21 -22 -46 -27 -87 -16 -51 14 -49 139 2 162 39
18 51 15 79 -20 21 -27 26 -30 25 -13 -1 40 -13 50 -59 52 -25 1 -52 -1 -61
-3z"/>
<path d="M2943 3640 c-43 -26 -66 -63 -66 -108 0 -57 17 -82 57 -82 40 0 66
26 66 67 0 37 -14 50 -60 55 l-35 3 30 30 c17 17 40 35 50 42 15 9 16 12 5 12
-8 1 -29 -8 -47 -19z m22 -130 c0 -41 -2 -45 -25 -45 -19 0 -26 7 -33 32 -13
45 -3 65 30 61 26 -3 28 -6 28 -48z"/>
<path d="M3048 3625 c-9 -19 -7 -29 6 -50 16 -24 16 -28 2 -44 -32 -36 -12
-91 34 -91 53 0 77 51 45 97 -13 19 -13 24 2 51 22 39 6 62 -43 62 -27 0 -37
-5 -46 -25z m70 -10 c1 -11 -4 -29 -12 -40 -14 -20 -15 -19 -25 7 -6 15 -8 35
-4 43 8 22 37 14 41 -10z m-8 -94 c16 -32 12 -61 -9 -61 -30 0 -46 26 -33 55
14 30 28 32 42 6z"/>
<path d="M3194 3623 c-8 -32 6 -57 35 -61 28 -4 51 14 51 42 0 30 -18 46 -52
46 -22 0 -29 -6 -34 -27z m63 -9 c3 -8 -1 -22 -9 -30 -13 -14 -17 -14 -31 1
-9 8 -14 22 -11 30 8 20 43 19 51 -1z"/>
<path d="M2154 3476 c-4 -10 -2 -22 4 -28 8 -8 13 -7 18 6 4 10 2 22 -4 28 -8
8 -13 7 -18 -6z"/>
<path d="M1933 2917 c24 -20 25 -152 0 -179 -15 -17 -14 -18 46 -18 71 0 112
17 129 55 20 43 14 82 -16 116 -26 29 -34 32 -103 36 -65 4 -72 2 -56 -10z
m132 -32 c54 -53 16 -145 -60 -145 l-35 0 0 78 c0 43 3 82 7 85 15 16 65 6 88
-18z"/>
<path d="M3095 2907 c-69 -38 -94 -120 -54 -171 33 -42 82 -33 99 18 19 60 -4
92 -62 87 -10 -1 -18 2 -18 7 0 13 42 50 69 60 14 5 20 11 15 15 -6 3 -28 -4
-49 -16z m15 -96 c15 -29 12 -57 -7 -76 -16 -16 -18 -16 -35 5 -18 22 -24 70
-11 83 13 14 43 7 53 -12z"/>
<path d="M2872 2895 c-11 -24 0 -36 13 -15 3 6 24 10 45 10 l39 0 -24 -60
c-29 -73 -39 -120 -28 -120 9 0 73 174 73 198 0 8 -18 12 -53 12 -48 0 -55 -3
-65 -25z"/>
<path d="M3192 2908 c-27 -27 -10 -78 27 -78 33 0 51 17 51 47 0 35 -53 56
-78 31z m53 -33 c0 -13 -8 -21 -22 -23 -19 -3 -23 1 -23 23 0 22 4 26 23 23
14 -2 22 -10 22 -23z"/>
<path d="M2162 2733 c2 -10 8 -18 13 -18 5 0 11 8 13 18 2 10 -3 17 -13 17
-10 0 -15 -7 -13 -17z"/>
<path d="M7557 851 c6 -23 -18 -118 -42 -163 -13 -25 -12 -28 3 -28 26 0 37
12 39 44 5 71 35 77 53 10 12 -41 33 -65 46 -52 2 3 -5 25 -16 49 l-20 44 26
21 c25 20 36 65 20 81 -3 4 -30 8 -60 11 -52 4 -54 3 -49 -17z m91 -23 c4 -22
-25 -48 -53 -48 -22 0 -22 2 -13 39 9 36 12 38 36 32 15 -4 28 -14 30 -23z"/>
<path d="M14438 819 c-29 -16 -21 -58 17 -100 37 -42 42 -58 23 -77 -28 -28
-77 -7 -79 32 -1 18 -2 17 -9 -4 -14 -44 -12 -47 44 -49 88 -3 106 48 42 119
-20 22 -36 44 -36 50 0 25 68 34 71 9 1 -5 2 -13 3 -18 2 -16 16 -25 16 -10 0
8 3 23 6 34 4 18 0 20 -38 22 -24 1 -51 -2 -60 -8z"/>
</g>
</svg>
