<?xml version="1.0" standalone="no"?>
<!DOCTYPE svg PUBLIC "-//W3C//DTD SVG 20010904//EN"
 "http://www.w3.org/TR/2001/REC-SVG-20010904/DTD/svg10.dtd">
<svg version="1.0" xmlns="http://www.w3.org/2000/svg"
 width="1475.000000pt" height="744.000000pt" viewBox="0 0 1475.000000 744.000000"
 preserveAspectRatio="xMidYMid meet">
<metadata>
Created by potrace 1.16, written by Peter Selinger 2001-2019
</metadata>
<g transform="translate(0.000000,744.000000) scale(0.100000,-0.100000)"
fill="#000000" stroke="none">
<path d="M1100 7044 l0 -139 120 0 c100 0 120 3 121 15 0 8 3 67 5 130 l4 115
-110 -3 c-77 -3 -115 0 -125 8 -13 11 -15 -6 -15 -126z m230 -4 l0 -110 -87 2
c-83 2 -84 2 -20 5 l67 4 0 39 c0 21 3 45 6 54 5 14 -5 16 -70 16 -54 0 -76
-4 -77 -12 0 -7 0 -34 1 -60 1 -38 -2 -48 -14 -48 -14 0 -16 17 -16 110 l0
110 105 0 105 0 0 -110z m-66 -6 c10 -4 16 -18 16 -41 l0 -34 -57 3 c-53 3
-58 5 -61 27 -6 40 50 65 102 45z"/>
<path d="M1170 7113 c0 -16 6 -23 20 -23 38 0 20 -19 -22 -23 -24 -2 -1 -4 50
-5 56 -1 92 2 92 8 0 6 -15 8 -40 4 -27 -4 -40 -3 -40 5 0 6 11 11 25 11 19 0
25 5 25 23 0 20 -5 22 -55 22 -50 0 -55 -2 -55 -22z m90 -3 c0 -5 -16 -10 -35
-10 -19 0 -35 5 -35 10 0 6 16 10 35 10 19 0 35 -4 35 -10z"/>
<path d="M1180 6994 c0 -23 3 -25 38 -22 30 2 38 7 40 26 3 20 -1 22 -37 22
-37 0 -41 -2 -41 -26z m60 -4 c0 -5 -9 -10 -20 -10 -11 0 -20 5 -20 10 0 6 9
10 20 10 11 0 20 -4 20 -10z"/>
<path d="M1550 7150 c0 -29 -1 -30 -50 -30 l-50 0 0 -64 0 -63 50 5 50 5 0
-57 c0 -38 4 -55 11 -51 6 4 10 24 8 44 -3 60 -3 61 51 61 l50 0 0 44 c0 24 3
51 6 60 5 13 -3 16 -51 16 l-57 0 6 30 c4 22 2 30 -9 30 -10 0 -15 -10 -15
-30z m0 -90 c0 -31 -4 -40 -17 -40 -10 0 -28 -3 -40 -6 -21 -6 -23 -3 -23 40
l0 46 40 0 40 0 0 -40z m100 -3 l0 -43 -40 -2 -40 -3 0 46 0 45 40 0 40 0 0
-43z"/>
<path d="M3635 7140 c5 -16 2 -20 -14 -20 -12 0 -21 -4 -21 -10 0 -5 16 -10
35 -10 34 0 35 -1 29 -27 -10 -41 -54 -127 -70 -136 -16 -9 -19 -27 -4 -27 5
0 21 18 35 40 l25 40 90 0 c79 0 90 -2 90 -17 0 -41 -13 -62 -39 -66 -23 -3
-24 -4 -7 -12 29 -13 48 6 62 60 17 65 17 62 -8 61 -19 -1 -23 4 -21 27 1 21
-3 27 -17 27 -15 0 -19 6 -17 23 2 20 -1 22 -47 18 -48 -3 -49 -3 -42 23 4 15
2 26 -4 26 -5 0 -13 -12 -16 -26 l-7 -27 -14 27 c-16 31 -27 35 -18 6z m125
-59 c0 -16 -7 -20 -40 -19 -24 0 -40 5 -40 13 0 19 11 25 47 25 26 0 33 -4 33
-19z m35 -51 c0 -11 -14 -16 -54 -18 -64 -4 -83 2 -75 22 8 21 129 18 129 -4z"/>
<path d="M4291 7018 c0 -85 3 -138 9 -138 6 0 10 5 10 11 0 8 37 10 120 8
l120 -4 0 118 c0 64 1 120 3 125 1 4 -57 9 -129 12 l-131 5 -2 -137z m69 82
c0 -32 6 -36 30 -20 10 6 11 10 3 10 -7 0 -13 4 -13 9 0 10 59 12 75 2 6 -3
-3 -9 -20 -12 -29 -6 -29 -7 8 -8 30 -1 37 2 37 19 0 16 -8 20 -57 23 -39 2
-32 3 22 3 l80 -1 1 -107 1 -108 -108 0 -109 0 0 110 0 110 25 0 c21 0 25 -5
25 -30z"/>
<path d="M4340 7008 c0 -40 4 -58 13 -58 7 0 4 -7 -7 -15 -31 -23 1 -18 46 7
28 16 41 19 46 11 4 -7 19 -16 32 -21 l25 -10 -2 71 -1 70 -76 1 -76 1 0 -57z
m130 32 c0 -5 -25 -10 -55 -10 -30 0 -55 5 -55 10 0 6 25 10 55 10 30 0 55 -4
55 -10z m0 -30 c0 -5 -25 -10 -55 -10 -30 0 -55 5 -55 10 0 6 25 10 55 10 30
0 55 -4 55 -10z m0 -30 c0 -5 -25 -10 -55 -10 -30 0 -55 5 -55 10 0 6 25 10
55 10 30 0 55 -4 55 -10z"/>
<path d="M5280 7145 c0 -10 -11 -15 -37 -16 l-38 -2 39 -6 c26 -4 42 -13 47
-26 7 -17 8 -18 8 -2 1 10 11 22 24 27 l22 9 -22 0 c-14 1 -23 7 -23 16 0 8
-4 15 -10 15 -5 0 -10 -7 -10 -15z"/>
<path d="M5400 7145 c0 -9 -9 -15 -22 -15 -21 0 -21 0 -2 -19 16 -16 21 -17
30 -5 6 8 28 14 49 14 21 0 35 3 31 7 -4 4 -23 6 -43 5 -28 -2 -34 0 -30 13 4
8 2 15 -3 15 -6 0 -10 -7 -10 -15z"/>
<path d="M215 7134 c-21 -22 -13 -27 18 -13 78 35 76 -68 -3 -134 -16 -14 -30
-28 -30 -31 0 -3 27 -6 59 -6 43 0 60 4 65 15 4 12 -3 13 -41 8 l-46 -6 42 52
c42 54 52 96 29 119 -17 17 -74 15 -93 -4z"/>
<path d="M362 7129 c-17 -27 -8 -36 14 -14 10 10 25 14 38 11 12 -3 24 -6 29
-6 12 0 8 -39 -7 -69 -8 -15 -31 -42 -50 -59 -20 -17 -36 -34 -36 -37 0 -3 28
-5 62 -3 54 3 63 6 66 23 3 16 1 18 -9 8 -14 -14 -69 -18 -69 -6 0 4 11 18 24
32 14 15 32 42 40 62 13 32 13 38 0 57 -21 30 -84 31 -102 1z"/>
<path d="M2399 7043 c-88 -116 -88 -116 -58 -111 15 2 23 10 24 26 2 27 20 42
53 42 17 0 22 -6 22 -25 0 -14 -6 -25 -12 -25 -19 0 13 -20 32 -20 12 0 15 19
17 105 1 58 0 105 -2 105 -1 0 -36 -44 -76 -97z m42 -26 c-8 -8 -14 -8 -22 0
-8 8 -6 19 8 39 l18 28 3 -28 c2 -16 -1 -33 -7 -39z"/>
<path d="M2569 7131 c11 -7 10 -23 -9 -95 -15 -56 -28 -86 -37 -86 -8 0 -12
-4 -8 -10 6 -10 117 -6 135 5 20 12 31 55 19 76 -8 16 -7 25 5 38 22 24 20 58
-3 71 -24 12 -122 14 -102 1z m91 -34 c0 -28 -17 -47 -42 -47 -19 0 -22 11
-12 48 9 32 54 31 54 -1z m-26 -70 c11 -8 17 -23 14 -38 -2 -18 -12 -26 -40
-33 -45 -11 -52 -7 -39 25 5 13 12 32 15 42 6 20 25 22 50 4z"/>
<path d="M2766 7118 c-31 -24 -56 -73 -56 -113 0 -64 91 -98 141 -54 21 18 21
20 4 13 -40 -14 -73 -16 -94 -5 -42 23 -16 132 39 161 30 16 70 5 70 -20 0
-24 15 -26 24 -4 14 37 7 44 -46 44 -38 -1 -61 -7 -82 -22z"/>
<path d="M2957 7129 c12 -12 -12 -112 -40 -168 l-17 -33 70 4 c65 5 73 8 105
41 56 58 44 138 -24 157 -49 14 -108 13 -94 -1z m106 -23 c11 -9 17 -27 17
-54 0 -57 -31 -91 -89 -99 -50 -7 -48 -17 -15 105 15 56 19 62 43 62 14 0 34
-7 44 -14z"/>
<path d="M3170 7129 c0 -5 5 -9 11 -9 7 0 8 -7 4 -17 -4 -10 -16 -49 -26 -87
-10 -38 -24 -73 -31 -77 -8 -5 19 -9 63 -9 72 0 76 1 88 26 15 34 9 40 -14 14
-12 -13 -31 -20 -57 -20 -42 0 -47 10 -26 55 14 31 31 32 51 3 l16 -23 0 27
c1 14 4 35 8 45 6 16 5 17 -11 3 -39 -31 -54 -17 -40 38 5 17 14 22 40 22 24
0 34 -5 34 -15 0 -8 5 -15 10 -15 17 0 11 38 -7 44 -28 9 -113 4 -113 -5z"/>
<path d="M5959 7088 c-19 -24 -42 -54 -51 -68 -8 -14 -30 -40 -47 -57 -37 -39
-38 -45 -9 -41 13 2 24 11 26 23 6 31 22 45 53 45 34 0 39 -23 12 -52 -15 -17
-14 -18 22 -18 31 0 35 3 26 14 -6 7 -9 29 -7 47 11 79 17 149 14 149 -2 0
-19 -19 -39 -42z m11 -35 c-1 -25 -14 -53 -26 -53 -21 0 -24 15 -8 38 15 21
34 30 34 15z"/>
<path d="M6088 7121 c10 -6 9 -23 -9 -87 -13 -43 -30 -87 -38 -97 -15 -18 -13
-18 49 -11 36 3 69 9 73 11 17 10 27 54 17 72 -7 14 -4 24 10 41 21 24 19 57
-4 72 -6 4 -33 8 -61 8 -30 0 -45 -4 -37 -9z m82 -16 c17 -20 3 -54 -26 -61
-34 -9 -38 -1 -24 40 12 38 30 45 50 21z m-14 -100 c9 -21 -23 -65 -46 -65
-16 0 -20 7 -20 33 0 19 3 37 7 40 12 13 54 7 59 -8z"/>
<path d="M6540 7118 c-21 -9 -22 -12 -7 -15 14 -4 17 -16 17 -82 0 -46 -5 -82
-12 -89 -9 -9 -3 -12 28 -11 21 0 33 3 27 6 -9 3 -13 34 -13 104 0 54 -3 99
-7 98 -5 0 -19 -5 -33 -11z"/>
<path d="M6692 7123 c-20 -8 -42 -59 -42 -100 0 -42 32 -103 54 -103 82 0 105
151 32 202 -12 9 -25 9 -44 1z m58 -99 c0 -42 -5 -59 -21 -75 -29 -29 -42 -13
-47 61 -3 46 0 66 13 87 l18 27 18 -23 c13 -16 19 -39 19 -77z"/>
<path d="M8034 7090 c-2 -45 -32 -140 -51 -156 -21 -18 3 -22 66 -14 66 8 85
29 76 83 -4 22 -3 37 3 37 5 0 13 12 16 27 10 36 -12 54 -66 58 l-43 3 -1 -38z
m80 -3 c9 -15 7 -22 -13 -38 -44 -36 -64 -19 -39 36 13 29 35 29 52 2z m-30
-73 c36 -14 7 -84 -34 -84 -27 0 -31 12 -18 53 11 37 22 43 52 31z"/>
<path d="M8258 7122 c-30 -13 -77 -61 -84 -87 -11 -46 4 -94 36 -110 16 -8 38
-15 50 -15 23 0 70 28 70 41 0 5 -11 2 -25 -7 -33 -22 -91 -12 -100 17 -13 40
4 104 33 126 46 33 61 35 87 9 24 -24 35 -18 35 18 0 14 -73 19 -102 8z"/>
<path d="M11880 7118 c0 -5 12 -8 26 -8 27 0 27 0 22 -64 -5 -62 -49 -166 -70
-166 -4 0 -8 -5 -8 -12 0 -25 59 46 75 90 19 52 35 75 35 51 0 -8 11 -31 25
-52 l26 -37 -63 -30 c-40 -19 -52 -28 -33 -25 17 4 47 15 68 26 l39 20 34 -21
c20 -13 45 -20 61 -18 30 5 32 4 -39 30 -35 13 -35 33 -3 80 34 51 33 66 -6
60 -27 -4 -30 -2 -26 14 4 11 9 30 12 44 l6 25 -91 0 c-49 0 -90 -3 -90 -7z
m148 -40 c-3 -31 -5 -33 -43 -33 -36 0 -40 3 -41 25 -2 36 3 40 47 40 39 0 40
-1 37 -32z m42 -68 c0 -14 -42 -70 -52 -70 -9 0 -48 59 -48 73 0 4 23 7 50 7
28 0 50 -5 50 -10z"/>
<path d="M8711 7084 c-7 -19 -11 -36 -9 -38 1 -1 15 -7 31 -14 15 -6 32 -23
39 -37 16 -36 -14 -68 -55 -59 -22 5 -28 3 -25 -7 8 -25 52 -22 81 5 38 35 35
71 -8 112 -19 18 -35 35 -35 38 0 2 14 6 32 8 48 5 48 28 1 28 -36 0 -40 -3
-52 -36z"/>
<path d="M10144 7048 c-38 -40 -84 -84 -101 -98 -18 -14 -32 -28 -33 -32 0 -5
47 -8 105 -8 63 0 105 4 105 10 0 6 -35 10 -84 10 l-85 0 90 88 c49 48 89 90
89 95 0 18 -21 2 -86 -65z"/>
<path d="M10340 7046 c-30 -42 -58 -76 -62 -76 -4 0 -8 -6 -8 -14 0 -7 -10
-21 -22 -29 l-23 -16 28 0 c20 -1 27 4 27 18 0 21 15 35 48 45 27 9 41 -17 23
-45 -10 -17 -8 -19 26 -19 33 0 35 1 19 13 -16 12 -17 20 -6 94 7 45 10 87 8
93 -2 7 -28 -22 -58 -64z m30 -26 c0 -22 -5 -30 -18 -30 -28 0 -32 10 -15 36
21 32 33 30 33 -6z"/>
<path d="M10480 7111 c0 -5 5 -11 10 -13 13 -4 -35 -169 -53 -180 -6 -4 15 -8
48 -8 85 0 109 18 101 77 -4 33 -2 45 9 49 23 9 18 51 -7 68 -24 17 -108 22
-108 7z m100 -26 c10 -13 10 -19 -5 -35 -18 -20 -65 -28 -65 -11 0 50 43 78
70 46z m-16 -91 c3 -9 6 -19 6 -24 0 -19 -33 -40 -61 -40 -27 0 -30 3 -24 23
4 12 9 30 11 40 7 22 59 23 68 1z"/>
<path d="M10704 7106 c-55 -30 -81 -82 -70 -140 10 -55 87 -77 142 -41 38 25
28 34 -15 13 -35 -17 -43 -18 -68 -6 -39 18 -44 79 -11 128 21 31 29 35 68 35
39 0 45 -3 50 -25 6 -27 14 -20 24 23 6 27 6 27 -46 26 -29 -1 -63 -6 -74 -13z"/>
<path d="M11179 7107 c-28 -21 -37 -49 -28 -80 10 -37 27 -49 57 -42 12 3 22
1 22 -5 0 -17 -47 -60 -65 -60 -9 0 -14 -4 -10 -9 9 -16 60 8 84 39 12 16 24
49 27 73 5 37 3 47 -19 70 -27 29 -44 33 -68 14z m51 -26 c17 -32 12 -69 -10
-76 -27 -9 -37 0 -45 36 -11 50 32 81 55 40z"/>
<path d="M11325 7105 c-26 -21 -35 -134 -12 -169 24 -36 55 -39 84 -10 23 23
25 32 21 89 -6 91 -43 127 -93 90z m69 -52 c5 -24 5 -57 -1 -80 -7 -31 -13
-38 -33 -38 -29 0 -44 41 -35 100 11 76 54 88 69 18z"/>
<path d="M11472 7104 c-27 -18 -28 -45 -4 -67 25 -23 48 -21 66 5 20 29 20 34
-4 58 -24 24 -29 24 -58 4z m48 -19 c10 -12 10 -18 0 -30 -17 -21 -37 -19 -45
5 -12 37 20 55 45 25z"/>
<path d="M12776 7096 c-56 -29 -83 -83 -67 -137 6 -21 21 -44 33 -50 28 -15
97 -5 117 17 15 16 15 16 -4 9 -36 -14 -64 -17 -89 -11 -55 14 -37 131 25 165
35 19 79 8 80 -22 0 -21 1 -21 9 -2 15 35 11 43 -27 47 -24 3 -50 -3 -77 -16z"/>
<path d="M12558 7008 c-63 -63 -93 -100 -85 -104 24 -9 192 0 187 11 -3 5 -38
8 -77 6 -40 -1 -73 1 -73 6 0 5 26 34 58 64 84 80 118 119 101 117 -8 -1 -58
-46 -111 -100z"/>
<path d="M12949 7101 c12 -8 12 -19 -4 -73 -9 -34 -24 -75 -31 -90 -8 -15 -14
-29 -14 -33 0 -3 32 -5 70 -5 66 0 71 1 80 26 14 37 13 38 -16 15 -28 -22 -94
-29 -94 -11 0 6 7 26 15 46 13 31 17 34 35 24 11 -6 20 -16 21 -23 1 -7 5 4 9
23 8 33 2 59 -7 33 -3 -7 -14 -13 -25 -13 -17 0 -19 4 -13 27 4 16 11 34 17
40 12 15 58 9 70 -9 4 -7 8 -11 9 -8 0 3 2 13 4 23 3 15 -6 17 -68 17 -46 0
-67 -4 -58 -9z"/>
<path d="M13129 7101 c12 -8 11 -22 -9 -95 -12 -47 -27 -86 -31 -86 -5 0 -9
-4 -9 -8 0 -5 29 -8 63 -7 77 2 109 22 133 81 15 39 15 45 -1 77 -18 37 -42
47 -119 47 -28 0 -37 -3 -27 -9z m113 -28 c41 -37 8 -126 -52 -144 -21 -7 -45
-9 -54 -6 -14 5 -14 11 -1 49 8 24 20 62 25 85 10 38 13 41 38 37 15 -3 35
-12 44 -21z"/>
<path d="M13665 7078 c-10 -18 -21 -35 -24 -38 -12 -10 -41 -59 -41 -70 0 -5
18 -10 40 -10 36 0 40 -3 40 -24 0 -14 5 -28 10 -31 10 -6 14 7 11 33 -1 7 5
15 14 18 19 8 20 24 0 24 -12 0 -15 14 -15 65 0 36 -4 65 -8 65 -4 0 -16 -15
-27 -32z m12 -95 c-3 -2 -17 -3 -31 -1 l-26 3 27 40 28 40 3 -39 c2 -21 1 -40
-1 -43z"/>
<path d="M13776 7089 c-24 -34 -17 -143 11 -171 19 -19 26 -20 48 -10 33 15
48 55 42 115 -7 77 -66 116 -101 66z m64 -10 c18 -33 9 -140 -13 -153 -15 -9
-21 -7 -33 9 -20 25 -14 143 7 156 21 13 27 11 39 -12z"/>
<path d="M13922 7098 c-15 -15 -16 -50 0 -66 7 -7 25 -12 40 -12 53 0 50 81
-3 88 -13 2 -30 -3 -37 -10z m62 -17 c10 -15 -5 -41 -23 -41 -23 0 -41 19 -34
36 6 16 49 19 57 5z"/>
<path d="M5315 7061 c-4 -15 -15 -18 -55 -16 -64 2 -66 -13 -2 -17 l47 -3 -47
-49 c-27 -27 -48 -50 -48 -52 0 -11 21 -1 41 20 29 30 39 25 39 -22 l0 -37 79
3 79 3 4 45 3 44 -55 1 c-30 1 -65 0 -77 -1 -14 -1 -23 4 -23 12 0 29 24 38
107 38 46 0 83 4 83 9 0 6 -35 8 -81 6 -76 -4 -81 -3 -76 16 7 24 -10 25 -18
0z m119 -116 c10 -40 0 -46 -67 -41 -34 2 -63 5 -64 5 -6 2 -3 48 4 54 3 4 32
7 64 7 53 0 57 -2 63 -25z"/>
<path d="M1884 7030 l1 -41 18 22 c21 26 19 52 -4 57 -13 2 -16 -5 -15 -38z"/>
<path d="M6886 7052 c-24 -28 -24 -99 0 -117 27 -20 51 -18 74 5 25 25 27 49
2 27 -45 -41 -90 5 -66 67 8 21 34 20 50 -1 16 -22 32 -8 18 15 -16 25 -57 27
-78 4z"/>
<path d="M7001 7061 c-9 -6 -10 -11 -2 -15 15 -10 14 -99 -1 -114 -9 -9 -4
-12 23 -11 18 0 28 3 22 6 -21 8 -17 100 5 111 9 5 23 7 30 5 16 -6 16 -95 0
-111 -9 -9 -5 -12 21 -12 25 0 31 3 24 13 -17 21 -15 84 3 101 9 10 21 15 28
13 15 -5 20 -95 5 -113 -9 -12 -6 -14 20 -14 28 0 31 2 21 19 -5 11 -10 40
-10 64 0 54 -21 78 -51 59 -14 -9 -25 -10 -39 -2 -14 7 -26 8 -39 0 -13 -7
-22 -7 -26 0 -8 12 -16 12 -34 1z"/>
<path d="M4739 7044 c-16 -20 -1 -48 29 -52 25 -4 39 32 22 53 -16 19 -34 19
-51 -1z m45 -19 c-1 -18 -34 -18 -34 0 0 10 7 15 18 13 9 -2 17 -8 16 -13z"/>
<path d="M8920 7040 c-30 -30 -27 -93 5 -114 14 -10 34 -14 45 -11 24 8 45 33
35 43 -4 4 -10 1 -12 -5 -7 -18 -50 -16 -57 3 -3 9 -6 31 -6 49 0 37 22 52 44
30 17 -17 36 -20 36 -5 0 12 -33 30 -54 30 -9 0 -25 -9 -36 -20z"/>
<path d="M9043 7054 c-8 -4 -9 -13 -3 -29 11 -28 10 -84 -2 -91 -18 -11 -6
-24 24 -24 29 0 30 1 16 18 -12 13 -14 28 -9 63 10 63 5 75 -26 63z"/>
<path d="M9090 7050 c0 -5 7 -10 15 -10 28 0 33 -82 7 -112 -14 -17 -12 -18
21 -18 21 0 37 5 37 10 0 6 -5 10 -11 10 -18 0 -6 92 14 104 14 8 20 8 27 -4
15 -24 12 -82 -7 -102 -15 -17 -14 -18 22 -18 30 0 36 3 27 12 -7 7 -12 35
-12 64 0 63 -17 83 -57 65 -18 -8 -29 -9 -37 -1 -13 13 -46 13 -46 0z"/>
<path d="M4048 7043 c-180 -5 -165 -23 18 -23 112 0 145 3 142 13 -5 14 2 14
-160 10z"/>
<path d="M6294 7041 c-15 -15 6 -21 77 -21 54 0 79 4 77 11 -3 10 -144 19
-154 10z"/>
<path d="M7490 7042 c1 -13 38 -52 49 -52 15 0 14 25 -1 37 -19 14 -48 24 -48
15z"/>
<path d="M8450 7031 c0 -14 14 -16 90 -13 96 5 89 22 -10 22 -44 0 -80 -4 -80
-9z"/>
<path d="M9530 7036 c0 -8 47 -56 54 -56 13 0 5 33 -11 46 -17 13 -43 19 -43
10z"/>
<path d="M14295 7029 c-4 -6 -2 -15 5 -19 7 -4 10 -15 6 -25 -4 -11 -2 -15 6
-13 16 6 17 60 1 65 -6 2 -14 -1 -18 -8z"/>
<path d="M10914 7019 c-3 -5 32 -9 77 -9 45 0 80 2 77 5 -10 10 -148 13 -154
4z"/>
<path d="M13370 7010 c0 -6 32 -10 75 -10 43 0 75 4 75 10 0 6 -32 10 -75 10
-43 0 -75 -4 -75 -10z"/>
<path d="M6360 6980 l-75 -6 78 -4 c44 -3 81 -2 83 2 7 12 -9 13 -86 8z"/>
<path d="M530 6965 c0 -8 5 -15 10 -15 6 0 10 7 10 15 0 8 -4 15 -10 15 -5 0
-10 -7 -10 -15z"/>
<path d="M3784 6964 c3 -8 6 -18 6 -20 0 -2 5 -4 10 -4 16 0 11 27 -6 34 -12
5 -15 2 -10 -10z"/>
<path d="M8450 6970 c0 -6 34 -10 81 -10 51 0 78 4 74 10 -3 6 -40 10 -81 10
-43 0 -74 -4 -74 -10z"/>
<path d="M3690 6943 c0 -18 5 -33 10 -33 13 0 13 30 0 50 -7 11 -10 7 -10 -17z"/>
<path d="M3737 6950 c3 -11 9 -20 14 -20 11 0 11 3 3 24 -9 23 -23 20 -17 -4z"/>
<path d="M10915 6960 c3 -5 37 -10 75 -10 38 0 72 5 75 10 4 6 -23 10 -75 10
-52 0 -79 -4 -75 -10z"/>
<path d="M13365 6960 c-4 -6 23 -10 74 -10 45 0 81 4 81 9 0 12 -147 13 -155
1z"/>
<path d="M3642 6940 c-6 -11 -12 -25 -12 -31 0 -18 27 8 33 31 7 26 -5 26 -21
0z"/>
<path d="M1210 6704 c0 -26 -1 -26 -65 -22 -48 3 -65 1 -65 -9 0 -9 19 -13 65
-13 l65 0 0 -90 0 -90 -27 -1 c-27 0 -27 -1 -6 -11 38 -18 53 -4 53 51 l0 49
40 -39 c23 -23 49 -39 63 -38 21 0 21 1 3 12 -99 63 -101 68 -47 99 23 13 41
26 41 31 0 15 -36 6 -53 -13 -27 -32 -49 -26 -45 13 l3 32 58 -3 c48 -3 57 -1
57 13 0 13 -6 16 -25 11 -18 -5 -25 -2 -25 8 0 9 -9 20 -20 26 -20 11 -30 -3
-10 -15 18 -11 10 -26 -12 -23 -17 2 -22 9 -20 26 2 15 -2 22 -12 22 -11 0
-16 -9 -16 -26z"/>
<path d="M2160 6710 c0 -9 31 -30 44 -30 16 0 3 18 -19 28 -14 7 -25 8 -25 2z"/>
<path d="M2233 6670 c-15 -36 -17 -47 -7 -43 11 4 14 -5 14 -35 0 -23 5 -44
10 -47 22 -14 8 -26 -27 -25 -62 3 -83 1 -83 -10 0 -6 27 -10 60 -10 l60 0 0
-30 c0 -16 5 -30 10 -30 6 0 10 14 10 30 l0 30 61 0 c44 0 60 3 56 13 -2 8
-22 11 -62 9 -45 -3 -56 -1 -53 10 3 8 25 14 61 16 65 3 78 22 16 22 -50 0
-49 22 2 31 l34 6 -32 2 c-42 1 -43 21 -2 21 20 0 29 4 26 13 -2 7 -15 11 -30
9 -15 -2 -27 1 -27 7 0 6 16 11 35 11 19 0 35 5 35 11 0 7 -12 9 -35 5 -28 -6
-37 -3 -42 10 -5 14 -7 14 -14 1 -8 -13 -16 -14 -48 -8 -2 1 2 8 9 16 10 12
10 15 -1 15 -8 0 -24 -23 -36 -50z m77 -10 c0 -5 -11 -10 -25 -10 -14 0 -25 5
-25 10 0 6 11 10 25 10 14 0 25 -4 25 -10z m0 -41 c0 -12 -47 -12 -54 0 -4 5
0 11 6 14 18 5 48 -3 48 -14z m-2 -36 c2 -8 -6 -13 -22 -13 -17 0 -26 5 -26
16 0 19 41 16 48 -3z"/>
<path d="M2637 6701 c-3 -14 -11 -18 -26 -14 -12 3 -21 1 -21 -5 0 -6 -3 -19
-7 -29 -6 -17 -6 -17 14 0 11 9 22 17 26 17 11 0 -5 -34 -26 -57 -15 -17 -23
-20 -33 -12 -8 6 -20 9 -29 6 -22 -9 -28 11 -15 44 9 20 19 29 36 29 23 0 33
14 17 23 -5 2 -30 1 -58 -3 -40 -6 -46 -9 -28 -15 26 -8 24 -37 -9 -94 -18
-32 -16 -60 2 -31 7 10 10 -1 10 -38 l0 -53 37 3 36 3 1 50 c1 39 5 50 19 53
15 3 17 -5 17 -67 0 -41 4 -71 10 -71 6 0 10 5 10 11 0 6 15 8 44 4 47 -7 90
1 81 15 -3 5 -20 7 -36 3 -27 -5 -31 -3 -27 13 2 12 13 20 31 22 15 2 27 8 27
13 0 6 -12 9 -27 7 -15 -2 -28 2 -30 10 -3 8 6 12 27 12 21 0 30 4 27 13 -2 6
-16 11 -31 9 -18 -2 -26 2 -26 13 0 8 9 16 20 16 36 3 40 4 38 14 -2 6 -12 9
-22 7 -11 -1 -27 5 -38 14 -17 16 -18 16 -18 1 0 -10 -7 -17 -15 -17 -18 0
-18 5 -5 31 8 13 21 19 45 19 19 0 35 -4 35 -10 0 -5 7 -7 15 -4 8 4 15 13 15
21 0 11 -9 13 -47 7 -44 -6 -46 -6 -40 15 3 13 0 21 -8 21 -7 0 -15 -9 -18
-19z m28 -122 c-9 -14 -45 -11 -45 4 0 8 3 17 6 20 10 9 46 -12 39 -24z m-115
-39 c0 -43 -3 -50 -20 -50 -17 0 -20 7 -20 43 0 46 5 57 27 57 9 0 13 -15 13
-50z m110 -5 c0 -8 -9 -15 -20 -15 -11 0 -20 7 -20 15 0 8 9 15 20 15 11 0 20
-7 20 -15z m0 -45 c0 -13 -7 -20 -20 -20 -13 0 -20 7 -20 20 0 13 7 20 20 20
13 0 20 -7 20 -20z"/>
<path d="M3519 6712 c-1 -4 -2 -18 -3 -31 -1 -18 -8 -27 -26 -31 -25 -6 -25
-6 -2 -12 18 -5 22 -13 22 -42 0 -29 -4 -36 -20 -36 -11 0 -20 -4 -20 -10 0
-5 9 -10 20 -10 17 0 20 -7 20 -40 0 -31 -3 -38 -15 -34 -22 9 -18 -13 4 -25
24 -13 31 2 31 68 0 41 4 50 25 61 14 7 25 17 25 22 0 4 12 8 26 8 20 0 25 -4
20 -16 -3 -9 -6 -18 -6 -20 0 -2 -14 -4 -32 -4 -17 0 -28 -3 -24 -7 4 -4 15
-8 24 -8 12 0 16 -7 14 -23 -2 -15 3 -25 18 -30 17 -7 19 -10 8 -19 -7 -5 -26
-13 -41 -17 -15 -4 -25 -11 -22 -16 6 -10 25 -6 72 18 30 15 35 15 69 -1 20
-10 39 -16 41 -13 8 8 -7 26 -21 26 -8 0 -19 7 -26 15 -15 18 -5 66 13 64 27
-3 48 1 43 10 -8 12 -66 20 -66 9 0 -4 -11 -8 -25 -8 -14 0 -25 4 -25 8 0 20
28 32 73 32 30 0 46 4 42 10 -3 6 -17 7 -31 4 -33 -8 -32 18 1 44 35 28 31 33
-15 26 -31 -5 -41 -3 -46 9 -3 8 -12 18 -20 21 -12 4 -14 1 -9 -14 5 -17 2
-20 -24 -20 -35 0 -42 -15 -11 -23 12 -3 20 -14 20 -26 0 -17 -6 -21 -30 -21
-18 0 -29 -5 -27 -12 1 -6 -6 -14 -15 -16 -14 -3 -18 3 -18 27 0 27 4 31 26
31 15 0 23 4 19 10 -4 6 -15 8 -26 5 -14 -5 -19 -2 -19 12 0 11 5 24 11 30 7
7 6 12 -5 16 -9 4 -17 3 -17 -1z m169 -78 c-14 -29 -44 -31 -53 -4 -9 29 0 37
34 32 27 -4 29 -6 19 -28z m-16 -90 c3 -3 4 -14 1 -25 -7 -26 -53 -27 -53 0 0
24 36 41 52 25z"/>
<path d="M3840 6714 c0 -3 9 -17 20 -31 14 -18 20 -21 20 -10 0 9 -7 23 -16
31 -16 17 -24 20 -24 10z"/>
<path d="M4316 6708 c-4 -18 -22 -69 -31 -90 -11 -27 9 -22 20 5 8 18 19 23
58 25 l47 3 0 -64 c0 -35 -5 -79 -11 -96 -10 -27 -15 -32 -35 -27 -12 3 -25 2
-28 -3 -8 -12 53 -26 65 -14 5 5 13 44 19 88 6 44 13 92 16 107 5 26 4 27 -25
22 -47 -10 -83 3 -76 25 3 11 1 22 -5 26 -5 3 -12 0 -14 -7z"/>
<path d="M2810 6698 c0 -9 58 -21 69 -14 5 4 13 1 16 -5 4 -6 -7 -25 -24 -43
-17 -18 -31 -35 -31 -39 0 -4 20 -7 45 -7 41 0 45 -2 45 -25 0 -23 -3 -25 -51
-25 -31 0 -48 -4 -44 -10 3 -5 26 -10 51 -10 44 0 45 -1 42 -27 -3 -27 -5 -28
-60 -28 -31 0 -60 -4 -64 -8 -4 -4 56 -7 134 -7 87 0 142 4 142 10 0 6 -23 7
-61 3 -59 -6 -78 1 -79 29 0 15 31 37 45 31 21 -7 67 6 60 17 -3 5 -25 7 -49
4 -50 -7 -62 3 -40 34 17 24 62 30 82 10 6 -6 15 -8 19 -4 4 3 -9 23 -30 43
-20 21 -40 34 -43 30 -4 -4 1 -14 12 -21 28 -21 14 -27 -59 -24 l-65 3 28 33
c25 30 34 34 86 36 83 4 88 5 81 12 -9 9 -257 11 -257 2z"/>
<path d="M3192 6663 c1 -44 2 -45 5 -10 l4 37 70 0 69 0 0 -35 c0 -19 5 -35
10 -35 6 0 10 13 10 29 0 16 2 35 5 43 4 10 -15 14 -85 16 l-90 2 2 -47z"/>
<path d="M4030 6701 c-8 -5 -31 -11 -50 -13 l-35 -3 -12 -75 c-6 -41 -15 -86
-18 -100 -6 -24 -6 -24 9 -6 8 10 18 38 22 62 6 42 8 44 40 44 l34 0 0 -67 c0
-36 2 -64 6 -61 3 3 5 33 6 66 1 61 1 61 32 64 61 6 20 23 -46 19 -62 -3 -68
-1 -68 17 0 16 9 21 48 26 63 9 82 15 82 27 0 11 -30 11 -50 0z"/>
<path d="M4208 6685 c-6 -14 -17 -25 -25 -25 -9 0 -13 -15 -14 -50 -2 -150 -6
-135 30 -132 18 2 39 -2 47 -9 8 -6 16 -10 19 -8 2 3 5 47 6 99 l3 95 -27 -3
c-27 -3 -39 20 -17 33 13 8 13 25 0 25 -6 0 -16 -11 -22 -25z m42 -75 c0 -27
-3 -30 -30 -30 -27 0 -30 3 -30 30 0 27 3 30 30 30 27 0 30 -3 30 -30z m-2
-82 c-2 -28 -8 -34 -30 -36 -26 -3 -28 -1 -28 32 0 33 2 36 31 36 28 0 30 -2
27 -32z"/>
<path d="M1635 6688 c-66 -34 -93 -137 -45 -177 32 -26 81 -27 111 0 21 18 21
20 4 13 -11 -4 -36 -8 -55 -8 -66 -2 -78 82 -20 144 15 16 37 30 48 30 24 0
55 -27 47 -41 -4 -5 1 -9 9 -9 11 0 16 9 16 30 0 29 -1 30 -47 29 -27 0 -57
-5 -68 -11z"/>
<path d="M1807 6689 c12 -15 9 -33 -17 -124 -7 -22 -19 -48 -28 -57 -14 -17
-12 -18 39 -17 66 1 87 7 124 37 22 17 29 33 33 70 6 71 -16 94 -99 100 -54 4
-62 3 -52 -9z m107 -25 c24 -24 20 -88 -6 -118 -27 -30 -115 -50 -106 -25 3 8
13 47 23 87 18 67 21 72 46 72 15 0 35 -7 43 -16z"/>
<path d="M3255 6670 l-50 -7 48 -1 c58 -2 62 -19 5 -25 -39 -3 -38 -4 12 -5
52 -2 55 -1 56 23 1 14 -3 24 -10 23 -6 0 -33 -4 -61 -8z"/>
<path d="M2140 6650 c0 -8 24 -20 41 -20 6 0 8 4 5 9 -8 12 -46 21 -46 11z"/>
<path d="M1130 6633 c0 -5 9 -19 20 -33 13 -16 20 -20 19 -10 0 8 -6 23 -13
33 -14 18 -26 22 -26 10z"/>
<path d="M3838 6629 c33 -10 33 -11 18 -34 -21 -31 -20 -35 4 -35 11 0 20 -6
20 -13 0 -20 -30 -57 -46 -57 -8 0 -14 -7 -14 -15 0 -17 12 -19 26 -5 7 7 24
3 52 -10 31 -15 61 -20 122 -20 47 0 80 4 80 10 0 6 -3 10 -7 10 -5 0 -47 1
-95 3 -112 3 -129 16 -105 77 15 38 15 40 -4 40 -23 0 -25 13 -4 30 26 22 17
30 -32 29 -48 -1 -48 -1 -15 -10z"/>
<path d="M4677 6612 c-20 -22 -22 -90 -3 -114 7 -10 22 -18 32 -18 27 0 64 28
64 47 0 15 -2 14 -18 0 -30 -27 -59 -22 -67 13 -4 16 -4 39 0 50 8 25 40 26
54 3 8 -14 12 -15 22 -6 10 10 9 16 -7 28 -26 20 -58 19 -77 -3z"/>
<path d="M4796 6621 c-14 -5 -16 -10 -8 -15 16 -9 15 -99 0 -114 -9 -9 -5 -12
21 -12 22 0 30 4 25 11 -12 20 -14 70 -4 90 13 23 49 26 51 4 4 -49 3 -77 -3
-82 -16 -9 -7 -23 16 -23 22 0 23 3 17 33 -10 46 1 81 27 85 12 2 22 0 23 -5
5 -85 4 -95 -10 -103 -12 -7 -9 -9 14 -10 l30 0 -3 62 c-2 34 -10 67 -17 75
-17 16 -42 17 -48 1 -3 -10 -9 -10 -30 1 -23 12 -29 12 -43 0 -13 -11 -18 -11
-21 -1 -5 13 -10 14 -37 3z"/>
<path d="M3375 6610 c-4 -7 -46 -9 -121 -7 -104 3 -137 -2 -100 -16 10 -4 14
-21 14 -52 0 -31 -4 -48 -14 -52 -24 -9 -15 -24 11 -18 14 3 36 7 50 10 20 4
25 1 25 -15 0 -11 4 -20 9 -20 5 0 8 28 7 63 -2 34 -1 68 2 75 3 8 28 12 79
12 53 0 74 3 71 12 -6 16 -25 21 -33 8z m-135 -30 c0 -5 -14 -10 -31 -10 -17
0 -28 4 -24 10 3 6 17 10 31 10 13 0 24 -4 24 -10z m-5 -40 c-3 -5 -15 -10
-26 -10 -10 0 -19 5 -19 10 0 6 12 10 26 10 14 0 23 -4 19 -10z m-7 -32 c-5
-15 -48 -24 -48 -10 0 14 12 22 33 22 10 0 17 -5 15 -12z"/>
<path d="M5223 6603 c-22 -8 -15 -51 8 -58 27 -9 42 6 37 36 -3 24 -21 32 -45
22z m37 -28 c0 -8 -7 -15 -15 -15 -8 0 -15 7 -15 15 0 8 7 15 15 15 8 0 15 -7
15 -15z"/>
<path d="M2165 6575 c-16 -13 -26 -27 -23 -30 7 -8 68 35 68 47 0 14 -14 8
-45 -17z"/>
<path d="M4320 6593 c1 -16 50 -68 50 -53 -1 8 -9 25 -19 38 -19 22 -31 28
-31 15z"/>
<path d="M3280 6558 c0 -9 8 -30 18 -48 17 -30 17 -31 -8 -50 -29 -23 -10 -27
24 -5 20 13 25 13 42 0 22 -16 54 -20 54 -5 0 5 -11 12 -25 16 -30 7 -33 38
-9 72 21 30 14 36 -46 37 -40 0 -50 -3 -50 -17z m80 -3 c0 -12 -24 -55 -31
-55 -8 0 -29 32 -29 44 0 5 25 13 48 15 6 0 12 -1 12 -4z"/>
<path d="M1170 6562 c0 -9 -53 -36 -58 -30 -1 1 -7 -4 -12 -12 -18 -30 3 -29
43 2 61 46 63 48 44 48 -9 0 -17 -4 -17 -8z"/>
<path d="M12387 6257 c5 -26 -30 -152 -49 -174 -16 -20 117 -9 137 11 18 18
20 73 3 79 -9 3 -5 11 11 24 18 15 23 26 18 45 -7 28 -30 38 -88 38 -33 0 -36
-2 -32 -23z m89 -11 c9 -25 -15 -56 -43 -56 -21 0 -24 3 -19 23 3 12 6 28 6
35 0 17 49 15 56 -2z m-13 -97 c7 -26 -25 -59 -58 -59 -27 0 -28 2 -19 49 6
27 11 31 39 31 25 0 34 -5 38 -21z"/>
<path d="M10869 6256 c-2 -2 -49 -7 -104 -10 -165 -12 -442 -64 -577 -110 -40
-13 -118 -38 -173 -55 -55 -18 -109 -36 -120 -41 -300 -139 -407 -195 -545
-287 -40 -26 -80 -52 -88 -58 -9 -5 -43 -32 -77 -58 -259 -208 -428 -377 -619
-617 -28 -35 -165 -250 -198 -310 -19 -36 -47 -86 -61 -111 -33 -61 -132 -294
-168 -399 -44 -126 -101 -353 -115 -460 -3 -25 -8 -48 -10 -51 -21 -35 -46
-624 -30 -701 3 -12 8 -54 11 -93 6 -78 38 -260 60 -350 9 -33 18 -72 21 -88
3 -15 12 -39 20 -55 7 -15 14 -33 14 -40 0 -38 127 -349 188 -462 154 -284
278 -455 477 -656 171 -173 400 -355 580 -460 330 -194 668 -315 1060 -379 50
-8 114 -19 144 -24 30 -5 100 -9 155 -10 56 -1 119 -4 141 -7 54 -7 336 12
460 32 168 26 367 65 420 81 169 53 302 101 385 140 171 81 239 115 275 138
22 13 49 29 61 34 48 21 230 147 321 220 17 14 48 40 69 56 80 62 340 319 371
367 9 12 22 28 29 33 28 24 215 289 281 400 29 47 121 236 147 300 16 39 37
88 47 110 49 113 127 381 158 540 32 172 41 235 52 393 18 268 -3 552 -63 815
-11 48 -21 98 -24 111 -5 29 -97 299 -130 386 -48 122 -175 364 -249 474 -66
100 -106 152 -216 287 -68 84 -230 241 -354 344 -33 28 -62 53 -65 56 -8 10
-195 136 -241 164 -45 25 -279 142 -379 188 -92 42 -350 124 -444 142 -49 9
-99 21 -111 25 -12 5 -46 11 -76 15 -30 3 -76 10 -104 15 -109 21 -589 42
-606 26z m461 -37 c222 -25 277 -33 370 -54 41 -10 102 -23 135 -31 95 -21
415 -135 415 -147 0 -1 -46 -40 -102 -87 -55 -47 -122 -103 -148 -125 -26 -22
-69 -58 -96 -80 -27 -22 -80 -67 -119 -100 -39 -33 -99 -82 -135 -110 -36 -27
-67 -52 -70 -55 -3 -3 -21 -17 -42 -32 -20 -15 -42 -33 -50 -40 -7 -7 -67 -58
-133 -113 -119 -99 -160 -133 -265 -225 -30 -27 -77 -67 -105 -90 -27 -23 -61
-52 -75 -64 -14 -11 -41 -33 -60 -47 -19 -15 -48 -39 -65 -53 -16 -15 -73 -61
-125 -104 -52 -42 -100 -81 -106 -87 -6 -5 -32 -28 -59 -50 -26 -22 -69 -58
-94 -81 -25 -22 -73 -62 -106 -90 -33 -27 -71 -59 -84 -71 -14 -12 -47 -40
-75 -63 -174 -139 -233 -187 -246 -200 -9 -8 -36 -31 -60 -50 -24 -19 -60 -49
-80 -66 -19 -17 -46 -39 -59 -50 -13 -10 -35 -30 -50 -43 -26 -23 -58 -50
-185 -155 -39 -32 -82 -68 -96 -80 -59 -50 -207 -175 -269 -226 -82 -68 -105
-87 -145 -123 -17 -16 -44 -38 -59 -50 -27 -20 -145 -116 -192 -155 -11 -10
-56 -46 -100 -82 -44 -36 -95 -79 -115 -97 -19 -17 -48 -42 -65 -54 -16 -13
-32 -26 -35 -29 -3 -3 -32 -27 -64 -55 -159 -134 -222 -183 -229 -176 -9 9
-33 107 -48 191 -37 217 -52 626 -30 773 5 34 15 100 20 147 17 134 28 190 62
315 11 39 24 88 30 110 6 22 31 99 56 170 96 274 264 585 436 806 87 113 331
368 427 448 93 77 170 139 191 153 92 66 121 86 198 132 204 124 459 245 615
291 45 13 133 40 196 59 63 19 160 41 215 50 55 9 120 21 145 27 57 13 346 36
465 38 50 0 169 -8 265 -20z m982 -316 c21 -32 63 -92 93 -133 30 -41 58 -82
62 -90 4 -8 9 -17 12 -20 3 -3 26 -34 50 -70 25 -36 80 -117 123 -180 44 -63
127 -187 186 -275 58 -88 110 -164 114 -170 5 -5 36 -53 70 -105 34 -52 84
-129 112 -170 27 -41 77 -115 110 -165 33 -49 63 -92 66 -95 3 -3 10 -13 15
-22 27 -46 90 -133 97 -136 4 -2 8 -7 8 -12 0 -5 53 -89 119 -187 65 -98 157
-236 204 -308 47 -71 97 -145 111 -164 32 -43 32 -53 3 -67 -39 -18 -201 -106
-237 -129 -19 -12 -100 -57 -180 -100 -80 -44 -167 -92 -195 -107 -27 -16 -68
-38 -90 -48 -22 -11 -60 -32 -85 -46 -25 -15 -83 -47 -130 -71 -47 -25 -87
-48 -90 -52 -3 -4 -36 -23 -75 -41 -38 -19 -90 -46 -115 -61 -25 -14 -92 -51
-150 -81 -58 -30 -114 -60 -125 -66 -11 -6 -126 -68 -255 -137 -129 -70 -251
-135 -270 -146 -19 -11 -96 -51 -170 -88 -180 -91 -317 -164 -568 -300 -62
-33 -117 -61 -122 -61 -5 0 -10 -3 -12 -7 -1 -5 -52 -33 -113 -64 -105 -54
-229 -119 -380 -199 -38 -20 -124 -65 -190 -100 -66 -35 -124 -66 -130 -70 -5
-5 -80 -43 -165 -86 -85 -43 -208 -106 -273 -141 -65 -35 -160 -86 -211 -113
-225 -117 -295 -155 -360 -192 -76 -43 -85 -42 -137 6 -13 12 -60 52 -104 90
-182 157 -445 464 -501 586 -4 8 -13 22 -20 30 -52 63 -219 420 -264 566 -12
38 -28 86 -36 107 -26 70 -24 74 70 150 21 18 60 50 85 72 43 37 68 58 200
169 70 58 76 63 231 191 80 66 150 124 157 130 6 5 28 24 50 42 137 112 299
247 309 257 20 20 68 60 99 84 32 26 75 61 194 162 43 36 101 85 131 110 29
25 88 74 130 110 43 36 107 90 144 120 37 30 81 68 99 83 18 15 52 42 77 59
25 17 65 50 91 72 25 23 58 52 75 65 16 13 63 54 104 91 41 36 111 95 155 130
44 36 82 67 85 70 7 7 119 101 144 120 10 8 26 22 35 30 9 8 49 41 87 72 39
31 77 62 85 70 8 7 39 33 69 58 30 24 76 62 101 85 139 123 240 208 316 267
19 15 56 45 82 67 25 21 111 91 191 156 80 64 161 131 180 148 19 18 55 48 80
67 25 19 50 40 55 45 6 6 42 37 80 68 39 31 88 72 110 92 22 19 44 35 50 35 5
0 27 -26 47 -57z m128 -5 c116 -63 350 -210 380 -239 8 -8 51 -44 95 -80 174
-145 326 -309 474 -514 104 -143 117 -166 214 -360 116 -232 195 -457 255
-730 35 -156 61 -395 43 -395 -6 0 -11 5 -11 11 0 6 -23 43 -51 82 -27 40
-100 149 -161 242 -176 271 -203 310 -210 313 -5 2 -8 8 -8 13 0 7 -57 96 -70
109 -3 3 -28 39 -55 80 -28 41 -88 131 -134 200 -46 69 -96 143 -110 165 -14
22 -28 42 -31 45 -3 3 -21 30 -41 60 -20 30 -104 156 -186 280 -83 124 -162
243 -176 265 -15 22 -30 45 -35 50 -10 12 -102 147 -122 180 -24 38 -143 205
-167 235 -50 62 -23 58 107 -12z m1480 -2491 c0 -217 -45 -543 -103 -757 -8
-30 -24 -91 -36 -135 -18 -71 -65 -205 -91 -260 -5 -11 -28 -63 -50 -115 -43
-100 -157 -321 -170 -330 -4 -3 -15 -21 -25 -40 -10 -19 -21 -37 -25 -40 -3
-3 -46 -59 -95 -125 -154 -209 -315 -378 -514 -540 -13 -11 -33 -28 -43 -38
-49 -47 -37 -8 61 198 97 203 119 249 164 350 25 55 88 189 141 298 53 109 96
200 96 202 0 2 40 86 88 187 49 101 97 201 107 223 10 22 44 94 75 160 31 66
64 136 73 155 9 19 32 70 51 113 20 42 36 80 36 82 0 3 23 53 51 112 107 227
127 270 159 340 18 40 37 70 41 67 5 -3 9 -51 9 -107z m-53 76 c-27 -53 -126
-264 -177 -378 -12 -27 -44 -97 -71 -153 -27 -57 -49 -106 -49 -109 0 -3 -23
-52 -50 -110 -28 -57 -67 -139 -87 -181 -52 -113 -194 -411 -268 -567 -103
-213 -195 -408 -195 -411 0 -2 -25 -56 -56 -121 -30 -65 -81 -172 -112 -238
-31 -66 -70 -147 -87 -180 l-30 -60 -90 1 c-49 1 -840 2 -1757 3 -917 1 -1669
5 -1672 10 -3 4 45 34 107 65 62 32 139 72 172 89 33 18 112 60 175 93 63 34
140 75 170 91 64 35 275 143 311 159 13 5 105 55 204 109 260 141 281 153 485
257 102 53 203 106 225 118 156 89 302 166 632 336 110 57 263 138 340 180
171 94 239 131 373 201 58 31 143 76 190 100 47 25 90 49 95 53 6 4 53 29 105
56 52 26 122 64 155 84 63 38 97 57 415 227 107 58 215 117 240 132 25 14 56
32 70 39 14 6 32 16 40 22 50 33 187 109 198 110 10 0 10 -6 -1 -27z m-1634
-2531 c229 -1 417 -6 417 -10 -1 -15 -236 -153 -423 -248 -104 -52 -308 -137
-372 -154 -16 -4 -68 -19 -115 -33 -180 -52 -412 -91 -665 -112 -260 -22 -559
6 -919 84 -59 13 -247 71 -261 81 -5 3 -30 12 -55 19 -25 7 -63 21 -85 31 -22
10 -81 36 -130 58 -138 62 -458 253 -469 280 -5 11 226 13 1327 10 732 -2
1520 -4 1750 -6z"/>
<path d="M2016 5928 c-44 -102 -66 -147 -75 -153 -20 -12 -11 -25 15 -25 22 0
25 3 21 22 -9 32 10 48 54 48 40 0 56 -20 43 -54 -5 -13 1 -16 30 -16 41 0 43
3 18 28 -10 10 -32 55 -48 100 -16 45 -32 82 -36 82 -4 0 -14 -15 -22 -32z
m32 -63 c6 -14 8 -26 4 -26 -53 -10 -61 -4 -42 32 14 26 25 24 38 -6z"/>
<path d="M2894 5914 c-16 -38 -9 -53 23 -54 7 0 20 -11 28 -24 13 -20 14 -29
5 -46 -10 -18 -18 -21 -46 -17 -24 4 -34 2 -34 -8 0 -17 23 -25 52 -18 52 14
71 73 38 116 -12 15 -28 27 -36 27 -8 0 -14 7 -14 15 0 10 10 15 29 15 16 0
31 6 35 15 4 12 -3 15 -30 15 -31 0 -37 -4 -50 -36z"/>
<path d="M3096 5874 c-48 -48 -19 -139 41 -128 24 5 52 29 53 47 0 13 -18 7
-24 -8 -3 -8 -14 -15 -25 -15 -44 0 -56 92 -13 98 12 2 22 -1 22 -7 0 -6 7
-11 15 -11 18 0 19 12 3 28 -17 17 -54 15 -72 -4z"/>
<path d="M3211 5882 c-9 -3 -9 -7 0 -18 6 -7 9 -35 7 -63 -2 -39 0 -51 13 -54
14 -4 16 5 15 52 -1 53 0 56 24 56 22 0 25 -5 28 -39 2 -21 -1 -43 -7 -49 -17
-17 -13 -27 12 -27 21 0 22 4 22 58 0 54 1 57 25 57 22 0 25 -5 28 -39 2 -21
-1 -43 -7 -49 -17 -17 -13 -27 12 -27 23 0 23 3 19 58 -7 87 -29 113 -65 78
-11 -11 -17 -12 -26 -3 -12 12 -75 17 -100 9z"/>
<path d="M2170 5765 c0 -8 7 -15 15 -15 8 0 15 7 15 15 0 8 -7 15 -15 15 -8 0
-15 -7 -15 -15z"/>
<path d="M1947 5158 c15 -24 13 -152 -3 -175 l-14 -23 65 0 c57 0 69 3 90 25
29 28 31 47 10 65 -11 9 -14 22 -9 47 10 53 -15 73 -88 73 -45 0 -57 -3 -51
-12z m111 -24 c18 -33 3 -54 -39 -54 -38 0 -39 1 -39 35 0 33 2 35 35 35 21 0
37 -6 43 -16z m-22 -73 c11 -1 25 -11 31 -24 16 -34 -5 -57 -51 -57 -36 0 -36
0 -36 44 0 37 3 44 18 41 9 -2 26 -4 38 -4z"/>
<path d="M2916 5138 c-60 -53 -68 -147 -15 -177 24 -13 29 -13 53 2 22 15 26
25 26 62 0 49 -23 72 -60 60 -12 -4 -20 -2 -20 5 0 15 50 60 66 60 8 0 14 5
14 10 0 19 -27 10 -64 -22z m34 -94 c21 -55 -23 -104 -50 -55 -11 22 -13 64
-3 74 15 16 44 6 53 -19z"/>
<path d="M3097 5082 c-10 -11 -17 -35 -17 -60 0 -33 5 -45 25 -58 22 -14 26
-14 55 2 16 10 30 24 30 31 0 18 -17 16 -24 -2 -3 -8 -14 -15 -25 -15 -44 0
-56 92 -13 98 12 2 22 -1 22 -7 0 -6 7 -11 15 -11 18 0 19 12 3 28 -18 18 -53
15 -71 -6z"/>
<path d="M3215 5090 c-11 -5 -14 -9 -7 -9 16 -1 16 -103 0 -119 -9 -9 -6 -12
15 -12 26 0 27 2 27 59 0 60 15 82 39 58 13 -13 15 -89 2 -102 -6 -6 -2 -10
13 -11 21 -2 22 1 18 50 -3 39 0 55 12 65 13 11 19 11 32 0 12 -10 15 -26 12
-64 -4 -42 -1 -51 12 -52 14 -1 16 8 12 60 -5 72 -19 95 -50 78 -15 -8 -28 -8
-46 0 -19 9 -29 9 -39 1 -8 -7 -17 -8 -23 -3 -5 5 -18 5 -29 1z"/>
<path d="M2152 4978 c6 -18 28 -21 28 -4 0 9 -7 16 -16 16 -9 0 -14 -5 -12
-12z"/>
<path d="M1994 4370 c-34 -14 -64 -64 -64 -107 0 -82 91 -132 153 -83 15 12
27 26 27 31 0 6 -12 1 -26 -10 -59 -46 -114 -20 -122 57 -4 45 -1 53 22 77 31
31 70 28 98 -8 l18 -22 0 33 c0 29 -3 32 -29 32 -16 0 -35 2 -43 4 -7 3 -23 1
-34 -4z"/>
<path d="M2869 4348 c-14 -26 -8 -31 25 -19 28 11 56 5 56 -11 0 -6 -11 -42
-25 -80 -27 -74 -29 -88 -17 -88 9 0 78 197 71 203 -2 3 -26 7 -52 9 -40 5
-49 3 -58 -14z"/>
<path d="M3102 4284 c-49 -34 -14 -145 41 -128 26 8 47 28 47 45 0 8 -6 7 -18
-4 -38 -35 -62 -17 -62 48 0 37 22 52 40 29 14 -16 40 -19 40 -4 0 11 -33 30
-52 30 -8 0 -24 -7 -36 -16z"/>
<path d="M3222 4292 c-5 -1 -6 -25 -2 -52 3 -27 2 -56 -2 -65 -6 -10 -4 -17 7
-21 24 -9 28 0 29 63 1 53 3 58 25 61 23 4 23 2 19 -62 -4 -60 -2 -65 16 -62
16 2 19 11 20 62 1 52 3 59 21 59 18 0 20 -7 20 -61 0 -53 2 -60 20 -62 18 -1
20 4 17 51 -5 87 -10 92 -102 92 -44 0 -84 -1 -88 -3z"/>
<path d="M2144 4189 c-3 -6 -1 -16 5 -22 9 -9 14 -8 21 3 9 15 4 30 -10 30 -5
0 -12 -5 -16 -11z"/>
<path d="M14115 3661 c-53 -25 -74 -52 -81 -106 -6 -38 -3 -47 19 -69 18 -18
37 -26 59 -26 34 0 93 31 82 43 -4 3 -13 0 -21 -8 -18 -19 -73 -19 -98 -2 -28
21 -16 99 21 138 38 40 104 39 104 -2 0 -10 5 -19 10 -19 6 0 10 14 10 30 0
23 -5 30 -19 30 -11 0 -25 2 -33 5 -7 2 -31 -4 -53 -14z"/>
<path d="M1930 3569 c0 -5 5 -9 10 -9 15 0 13 -163 -2 -178 -9 -9 3 -12 54
-12 56 0 71 4 92 23 46 43 47 127 1 160 -26 19 -155 32 -155 16z m136 -30 c20
-17 28 -75 14 -108 -12 -31 -56 -55 -87 -49 -15 3 -18 15 -21 77 -4 97 0 105
44 98 20 -3 42 -11 50 -18z"/>
<path d="M2872 3550 c-16 -26 -15 -40 5 -62 15 -17 15 -19 0 -36 -36 -40 -13
-92 42 -92 47 0 68 62 32 95 -20 17 -20 17 1 46 21 28 21 29 3 49 -23 26 -66
26 -83 0z m68 -19 c0 -26 -23 -44 -38 -29 -22 22 -14 48 13 48 18 0 25 -5 25
-19z m0 -130 c0 -20 -17 -31 -37 -24 -13 5 -18 65 -6 76 10 10 43 -29 43 -52z"/>
<path d="M3083 3498 c-42 -20 -41 -105 1 -128 28 -15 62 -6 76 21 11 20 -3 28
-15 9 -10 -16 -52 -12 -59 6 -21 56 6 100 46 75 27 -16 38 -3 14 15 -23 16
-33 17 -63 2z"/>
<path d="M3337 3503 c-4 -3 -37 -5 -74 -5 l-68 0 0 -69 c0 -67 1 -69 25 -69
19 0 21 3 12 12 -27 27 -6 118 28 118 21 0 28 -98 8 -118 -9 -9 -4 -12 22 -12
26 0 31 3 22 12 -7 7 -12 31 -12 55 0 32 5 45 20 53 11 6 25 8 30 5 14 -9 12
-99 -2 -113 -9 -9 -4 -12 22 -12 26 0 31 3 22 12 -7 7 -12 36 -12 65 0 41 -4
54 -19 62 -10 6 -21 8 -24 4z"/>
<path d="M2160 3385 c0 -8 7 -15 15 -15 8 0 15 7 15 15 0 8 -7 15 -15 15 -8 0
-15 -7 -15 -15z"/>
<path d="M7929 2568 c-7 -13 -41 -60 -76 -105 -55 -70 -61 -83 -44 -83 14 0
21 6 21 18 0 27 34 54 62 50 18 -2 22 -8 19 -28 -1 -14 -8 -28 -15 -32 -6 -4
7 -7 29 -7 22 0 34 3 28 6 -15 6 -17 108 -4 166 10 41 -2 50 -20 15z m-9 -78
c0 -23 -4 -30 -20 -30 -24 0 -25 8 -4 38 20 29 24 28 24 -8z"/>
<path d="M8933 853 c-29 -123 -35 -143 -44 -143 -5 0 -9 -4 -9 -10 0 -15 135
-13 148 3 5 6 13 23 16 37 l7 25 -23 -27 c-18 -21 -33 -28 -61 -28 -30 0 -37
4 -37 19 0 60 42 94 59 49 8 -22 9 -21 16 10 4 18 4 36 1 39 -3 4 -6 1 -6 -5
0 -7 -12 -12 -26 -12 -24 0 -25 2 -19 33 4 17 9 35 12 39 5 9 64 -2 81 -15 9
-7 12 -4 12 12 0 19 -6 21 -58 21 l-58 0 -11 -47z"/>
<path d="M12734 868 c-2 -55 -31 -151 -50 -165 -15 -11 -10 -13 39 -13 101 0
157 42 157 117 0 70 -26 93 -103 93 -40 0 -42 -1 -43 -32z m110 -4 c9 -8 16
-32 16 -52 0 -52 -34 -92 -88 -102 -39 -7 -42 -6 -42 16 0 13 4 33 10 46 5 13
14 42 20 66 10 37 14 42 40 42 16 0 36 -7 44 -16z"/>
</g>
</svg>
