<?xml version="1.0" standalone="no"?>
<!DOCTYPE svg PUBLIC "-//W3C//DTD SVG 20010904//EN"
 "http://www.w3.org/TR/2001/REC-SVG-20010904/DTD/svg10.dtd">
<svg version="1.0" xmlns="http://www.w3.org/2000/svg"
 width="1477.000000pt" height="638.000000pt" viewBox="0 0 1477.000000 638.000000"
 preserveAspectRatio="xMidYMid meet">
<metadata>
Created by potrace 1.16, written by Peter Selinger 2001-2019
</metadata>
<g transform="translate(0.000000,638.000000) scale(0.100000,-0.100000)"
fill="#000000" stroke="none">
<path d="M1460 6110 c0 -30 -1 -30 -55 -30 l-55 0 0 -60 0 -60 55 0 56 0 -7
-50 c-5 -34 -3 -50 5 -50 7 0 11 20 11 50 l0 50 53 0 52 0 0 60 0 60 -54 0
-53 0 6 30 c3 17 1 30 -4 30 -6 0 -10 -13 -10 -30z m-2 -87 c2 -24 0 -43 -5
-44 -4 0 -25 -2 -45 -3 l-38 -3 0 42 c0 23 2 44 4 46 2 2 22 4 43 4 38 0 38 0
41 -42z m100 -5 c-3 -43 -3 -43 -45 -45 l-43 -3 0 45 0 45 46 0 45 0 -3 -42z"/>
<path d="M1010 6054 c0 -39 -3 -98 -6 -130 l-6 -59 126 0 126 0 0 117 c0 64 2
122 5 130 4 10 -20 13 -120 13 l-125 0 0 -71z m223 -4 c0 -30 -1 -79 -1 -107
l-2 -53 -104 0 c-59 0 -106 4 -108 10 -1 5 -2 55 0 110 l3 101 106 -3 106 -3
0 -55z"/>
<path d="M1078 6088 c-7 -19 2 -38 18 -38 8 0 14 -4 14 -10 0 -5 -17 -11 -37
-11 -21 -1 -30 -3 -20 -6 27 -7 89 6 82 18 -4 5 5 9 19 9 19 0 26 5 26 20 0
16 -7 20 -34 20 -19 0 -41 3 -49 6 -8 3 -17 -1 -19 -8z m82 -18 c0 -5 -16 -10
-35 -10 -19 0 -35 5 -35 10 0 6 16 10 35 10 19 0 35 -4 35 -10z"/>
<path d="M1170 6030 c-22 -7 -21 -8 13 -9 20 -1 37 4 37 9 0 11 -14 11 -50 0z"/>
<path d="M1050 5958 l0 -53 75 -2 75 -3 0 55 c0 43 -3 55 -15 55 -12 0 -13 -5
-7 -17 5 -10 8 -25 7 -33 -1 -8 -3 -21 -3 -27 -1 -8 -18 -13 -43 -13 -22 0
-38 4 -35 9 3 4 17 6 31 3 22 -4 25 -1 25 22 0 23 -4 26 -35 26 -32 0 -35 -2
-35 -30 0 -16 -5 -30 -11 -30 -8 0 -10 15 -7 45 4 34 2 45 -8 45 -10 0 -14
-15 -14 -52z m95 2 c3 -5 -3 -10 -14 -10 -12 0 -21 5 -21 10 0 6 6 10 14 10 8
0 18 -4 21 -10z"/>
<path d="M1103 6003 c9 -2 23 -2 30 0 6 3 -1 5 -18 5 -16 0 -22 -2 -12 -5z"/>
<path d="M2783 6112 c-40 -2 -73 -7 -73 -13 0 -5 6 -9 13 -8 31 4 33 -1 25
-67 -7 -63 -31 -118 -63 -144 -21 -18 -19 -33 4 -21 16 9 60 86 77 136 6 18 7
17 14 -7 5 -15 15 -35 24 -44 26 -25 19 -38 -36 -67 -39 -20 -45 -26 -24 -22
17 4 43 16 59 27 l30 22 38 -22 c38 -22 85 -30 74 -13 -3 5 -18 12 -34 16 -37
8 -57 30 -43 48 12 15 52 86 52 92 0 3 -14 5 -31 5 -26 0 -29 3 -25 20 3 11 8
28 11 39 7 24 -4 27 -92 23z m69 -17 c2 -3 3 -19 0 -35 -4 -30 -6 -31 -46 -28
-41 3 -45 9 -37 61 1 8 75 10 83 2z m38 -97 c0 -7 -11 -26 -25 -43 l-25 -30
-25 30 c-37 45 -33 55 25 55 33 0 50 -4 50 -12z"/>
<path d="M3760 6080 c0 -35 -3 -40 -22 -40 l-23 0 22 -18 c33 -25 30 -90 -4
-98 -16 -5 -21 -10 -14 -17 11 -11 101 28 101 44 0 6 -8 6 -19 -1 -29 -15 -31
-13 -31 24 0 25 7 39 22 50 l22 16 -23 0 c-21 0 -22 3 -16 40 4 26 3 40 -4 40
-6 0 -11 -18 -11 -40z"/>
<path d="M3859 6093 c-6 -16 -17 -41 -25 -57 -19 -40 -10 -45 12 -7 17 28 23
31 71 31 35 0 53 -4 54 -12 3 -21 0 -69 -7 -127 l-6 -53 -34 5 c-39 7 -38 -7
2 -17 35 -9 45 3 51 56 3 24 8 69 12 101 l8 57 -64 0 c-58 0 -78 9 -53 25 13
8 13 25 0 25 -6 0 -15 -12 -21 -27z"/>
<path d="M4165 6108 c-12 -42 -14 -43 -20 -20 -4 12 -13 22 -21 22 -8 0 -11
-6 -8 -15 4 -9 0 -15 -10 -15 -9 0 -16 -4 -16 -10 0 -5 14 -10 30 -10 24 0 30
-4 30 -23 0 -23 -42 -110 -66 -138 -8 -8 -14 -19 -14 -23 0 -14 21 6 45 43
l23 38 89 -1 88 -1 -2 -30 c-4 -46 -10 -55 -40 -56 -28 0 -28 0 -5 -11 31 -15
49 4 61 65 8 46 8 47 -16 47 -22 0 -24 3 -18 31 7 29 5 30 -15 24 -21 -7 -22
-5 -17 24 7 33 -1 37 -38 21 -19 -8 -19 -9 3 -9 40 -2 25 -29 -18 -33 -33 -3
-40 0 -40 14 0 10 8 18 18 18 16 1 16 1 0 10 -10 6 -14 18 -11 30 6 21 -5 28
-12 8z m115 -118 c0 -18 -7 -20 -65 -20 -47 0 -65 4 -65 13 0 23 11 27 72 27
51 0 58 -2 58 -20z"/>
<path d="M5448 5998 l-3 -123 -60 -6 c-41 -4 -14 -6 84 -7 79 -1 141 1 137 6
-4 4 -38 7 -74 7 l-67 0 -3 63 -3 62 55 0 c30 0 58 5 61 11 12 18 -1 20 -50 8
-58 -15 -68 -4 -60 59 4 26 2 42 -4 42 -6 0 -11 -47 -13 -122z"/>
<path d="M5820 6093 c-6 -15 -16 -41 -22 -56 -15 -38 -3 -45 13 -8 13 28 18
31 62 31 l49 0 -7 -87 c-7 -91 -20 -117 -53 -106 -14 4 -14 2 1 -10 40 -33 62
6 70 118 3 39 7 77 9 84 2 11 -10 14 -54 12 -57 -2 -69 4 -47 26 8 8 8 13 0
17 -6 4 -15 -5 -21 -21z"/>
<path d="M145 6100 c-3 -5 1 -10 9 -10 13 0 16 -14 16 -78 0 -47 -5 -83 -12
-90 -9 -9 -4 -12 22 -12 26 0 31 3 22 12 -8 8 -12 45 -12 100 0 80 -2 88 -19
88 -11 0 -23 -4 -26 -10z"/>
<path d="M276 6094 c-3 -9 -6 -17 -6 -19 0 -1 20 0 45 3 54 6 55 1 20 -92 -28
-75 -28 -76 -16 -76 8 0 52 114 66 173 7 27 7 27 -48 27 -41 0 -56 -4 -61 -16z"/>
<path d="M5714 6085 c-3 -14 -12 -25 -20 -25 -11 0 -14 -21 -14 -97 0 -75 3
-94 12 -85 15 15 54 16 63 2 15 -25 21 -3 22 90 l2 99 -29 -6 c-19 -3 -30 -1
-30 6 0 6 4 11 9 11 5 0 11 7 15 15 3 9 0 15 -9 15 -8 0 -17 -11 -21 -25z m46
-70 c0 -33 -2 -35 -35 -35 -32 0 -35 3 -35 29 0 31 10 39 48 40 19 1 22 -4 22
-34z m0 -80 c0 -33 -2 -35 -35 -35 -33 0 -35 2 -35 35 0 33 2 35 35 35 33 0
35 -2 35 -35z"/>
<path d="M6020 6055 c0 -55 0 -56 28 -53 19 2 27 -2 27 -12 0 -10 -8 -14 -27
-12 -16 1 -28 -2 -28 -8 0 -5 14 -10 30 -10 32 0 37 -8 18 -29 -11 -10 -3 -12
37 -10 l50 3 5 -44 c3 -28 8 -40 13 -32 5 7 30 12 60 12 l52 0 0 55 0 55 -32
0 -32 0 6 70 c4 49 3 70 -6 70 -7 0 -11 -24 -11 -70 0 -68 -1 -70 -25 -70 -17
0 -25 -5 -25 -18 0 -13 -8 -18 -32 -17 -33 0 -54 25 -21 25 10 0 25 5 33 11
12 8 8 9 -15 7 -21 -2 -30 1 -30 12 0 10 9 14 27 13 25 -1 26 1 30 49 1 27 1
52 -1 54 -2 2 -33 4 -68 4 l-63 0 0 -55z m58 2 c2 -18 -2 -29 -13 -33 -23 -9
-28 0 -20 36 8 37 29 35 33 -3z m52 24 c0 -10 -30 -24 -37 -17 -3 3 -2 9 2 15
8 13 35 15 35 2z m0 -41 c0 -11 -7 -20 -15 -20 -17 0 -18 2 -9 24 9 23 24 20
24 -4z m133 -102 c6 -8 7 -27 3 -41 -6 -24 -11 -27 -46 -27 -40 0 -40 0 -40
39 0 33 4 40 23 43 35 6 50 2 60 -14z"/>
<path d="M6050 6050 c0 -5 5 -10 10 -10 6 0 10 5 10 10 0 6 -4 10 -10 10 -5 0
-10 -4 -10 -10z"/>
<path d="M6477 6102 c-79 -1 -126 -6 -122 -12 3 -6 28 -10 56 -10 35 0 49 -4
49 -14 0 -22 -28 -39 -55 -32 -28 7 -26 15 -26 -114 0 -101 4 -99 10 5 6 84 8
90 29 93 21 3 22 1 22 -77 0 -45 3 -81 8 -81 4 0 7 28 6 62 -1 88 3 100 35 96
26 -3 26 -4 23 -79 -2 -48 0 -79 7 -83 8 -5 11 20 11 79 l0 86 28 -3 c26 -3
27 -5 30 -75 3 -67 1 -72 -20 -79 -22 -7 -22 -7 -3 -14 11 -4 23 -5 26 -1 4 3
9 47 11 97 l4 90 -68 -3 c-72 -3 -83 3 -64 29 9 13 30 17 85 19 44 1 70 6 68
12 -4 13 2 13 -150 9z"/>
<path d="M8520 6093 c0 -10 -11 -37 -25 -60 -13 -24 -20 -43 -16 -43 4 0 14
11 21 25 12 22 20 25 72 25 l58 0 -1 -47 c0 -27 -3 -66 -7 -88 -6 -34 -12 -41
-37 -46 -24 -5 -26 -7 -13 -13 49 -22 61 1 72 132 l7 82 -60 0 c-56 0 -76 10
-51 25 12 7 4 25 -11 25 -5 0 -9 -8 -9 -17z"/>
<path d="M8830 6091 c0 -28 -17 -35 -30 -11 -6 11 -16 20 -22 20 -9 0 -9 -3 0
-12 18 -18 15 -28 -8 -28 -11 0 -20 -5 -20 -11 0 -7 14 -10 35 -7 19 2 35 1
35 -3 0 -19 -27 -81 -56 -126 -39 -62 -32 -71 9 -13 l28 40 85 0 85 0 -3 -37
c-3 -33 -7 -39 -33 -44 -24 -5 -27 -7 -12 -13 36 -16 55 6 72 82 6 31 5 33
-17 30 -20 -3 -23 1 -20 25 2 22 -1 27 -18 27 -17 0 -19 4 -14 25 6 24 4 25
-41 25 -42 0 -47 2 -42 20 3 11 1 23 -4 26 -5 3 -9 -4 -9 -15z m80 -63 c0 -18
-9 -22 -44 -18 -11 1 -16 -3 -11 -10 4 -6 23 -10 44 -8 30 2 36 0 36 -17 0
-17 -8 -20 -57 -23 -59 -3 -79 8 -57 34 6 8 9 17 6 21 -4 3 -2 13 3 22 13 25
80 24 80 -1z"/>
<path d="M2287 6089 c13 -13 -30 -159 -52 -175 -14 -10 -13 -12 4 -17 24 -6
38 3 38 24 0 9 5 30 12 45 9 24 18 29 47 31 42 2 60 15 66 48 7 36 -20 55 -77
55 -35 0 -46 -3 -38 -11z m77 -12 c13 -10 16 -20 11 -36 -7 -23 -49 -46 -66
-35 -16 10 10 84 30 84 4 0 15 -6 25 -13z"/>
<path d="M3324 6086 c-63 -28 -105 -149 -61 -181 23 -17 21 -30 -5 -48 -22
-14 -20 -15 40 -22 62 -7 122 6 122 27 0 5 -9 4 -19 -2 -24 -12 -111 -13 -111
-1 0 14 23 29 55 37 59 14 115 108 95 159 -17 43 -60 55 -116 31z m74 -12 c28
-19 28 -42 1 -100 -33 -68 -99 -96 -120 -50 -18 38 -2 95 36 133 37 37 51 40
83 17z"/>
<path d="M4753 6085 c-40 -17 -83 -84 -83 -128 0 -93 133 -89 181 5 27 53 25
92 -7 117 -31 24 -47 25 -91 6z m87 -59 c0 -63 -50 -125 -101 -126 -20 0 -30
7 -39 29 -20 49 31 142 85 153 38 8 55 -9 55 -56z"/>
<path d="M7450 6088 c0 -5 10 -8 21 -8 20 0 21 -4 17 -63 -6 -65 -25 -116 -61
-154 -11 -13 -15 -23 -9 -23 16 0 58 59 73 105 15 46 29 67 29 43 0 -8 12 -32
26 -53 29 -43 29 -43 -51 -77 -22 -9 -32 -17 -22 -17 22 -1 89 28 98 42 4 6
19 1 36 -11 34 -24 83 -39 83 -25 0 6 -18 15 -40 22 -49 14 -50 28 -10 92 l30
49 -36 0 c-29 0 -34 3 -30 18 3 9 8 29 12 45 l6 27 -86 -2 c-47 -2 -86 -6 -86
-10z m144 -35 c-9 -39 -17 -45 -55 -41 -29 2 -34 7 -34 28 0 38 3 40 51 40 43
0 44 -1 38 -27z m46 -58 c0 -8 -50 -85 -55 -85 -6 0 -55 73 -55 82 0 5 25 8
55 8 30 0 55 -2 55 -5z"/>
<path d="M8410 6073 c3 -44 1 -51 -17 -56 -16 -4 -16 -5 -2 -6 22 -1 27 -17
21 -65 -3 -27 -10 -40 -23 -43 -17 -5 -28 -23 -14 -23 12 0 84 40 91 51 4 8 0
8 -15 0 -20 -11 -21 -9 -21 30 0 32 4 42 20 46 11 3 20 10 20 15 0 6 -10 8
-21 5 -20 -5 -21 -3 -16 34 4 30 2 39 -10 39 -10 0 -14 -9 -13 -27z"/>
<path d="M10085 5980 l-8 -120 -53 0 c-33 0 -54 -4 -54 -11 0 -7 9 -9 23 -5
12 3 76 6 141 6 66 0 116 3 113 7 -4 3 -38 5 -77 4 l-70 -2 0 65 0 66 62 0
c34 0 58 3 54 8 -4 4 -31 7 -59 7 l-52 0 2 48 c1 26 -2 47 -7 47 -5 0 -11 -54
-15 -120z"/>
<path d="M10362 6088 c-6 -6 -12 -18 -12 -25 0 -7 -7 -13 -15 -13 -12 0 -15
-17 -15 -92 l0 -93 44 0 45 0 3 90 c2 49 2 92 1 93 -1 2 -10 -1 -20 -7 -10 -6
-12 -11 -5 -11 7 0 12 -13 12 -30 0 -28 -3 -30 -35 -30 -32 0 -35 2 -35 30 0
23 4 30 20 30 14 0 18 5 13 16 -3 9 0 20 7 24 7 4 11 13 9 19 -3 9 -8 8 -17
-1z m36 -170 c3 -37 3 -38 -32 -38 -35 0 -36 1 -36 39 0 36 1 38 33 37 30 -1
32 -4 35 -38z"/>
<path d="M10443 6038 c-20 -58 -20 -61 -3 -38 11 14 20 29 20 33 0 4 21 7 48
5 l47 -3 -3 -60 c-1 -33 -5 -75 -8 -94 -5 -30 -8 -33 -36 -29 -29 5 -30 4 -12
-9 45 -33 68 9 77 140 l5 77 -55 0 c-50 0 -54 2 -48 20 3 11 3 20 -2 20 -4 0
-18 -28 -30 -62z"/>
<path d="M10850 6025 c0 -73 -1 -76 -22 -73 -22 3 -23 -1 -24 -59 -1 -64 1
-69 25 -54 9 6 10 11 2 15 -12 8 -15 75 -3 77 54 6 72 6 73 1 1 -4 3 -22 5
-39 2 -27 -1 -33 -17 -33 -10 0 -19 -5 -19 -11 0 -6 12 -9 26 -7 24 3 26 7 28
59 l3 55 -29 -4 c-26 -4 -28 -2 -28 32 0 35 1 36 36 36 22 0 33 4 29 11 -4 6
-19 7 -37 4 -29 -7 -30 -6 -26 26 2 20 -2 34 -9 36 -10 4 -13 -15 -13 -72z"/>
<path d="M11047 6090 c-18 -46 -47 -125 -47 -128 0 -2 5 0 10 3 6 4 10 -22 10
-69 0 -44 4 -76 10 -76 6 0 10 44 10 111 0 61 5 119 11 130 6 11 8 25 6 32 -3
8 -7 7 -10 -3z"/>
<path d="M11157 6079 c-4 -15 -13 -20 -34 -19 -54 4 -68 -3 -18 -9 59 -7 66
-25 13 -29 -37 -3 -38 -4 -38 -43 0 -38 1 -39 35 -39 28 0 35 -4 35 -20 0 -21
-24 -28 -35 -10 -3 6 -12 10 -18 10 -7 0 -4 -7 6 -14 26 -20 21 -42 -13 -56
-16 -7 -30 -16 -30 -21 0 -14 12 -10 50 15 l34 23 44 -19 c23 -11 53 -18 65
-16 15 3 5 9 -35 21 -66 20 -72 26 -58 61 8 22 16 26 50 26 l40 0 0 40 0 40
-40 0 c-29 0 -40 4 -40 15 0 11 12 15 52 15 28 0 48 3 44 8 -4 4 -27 7 -49 7
-34 0 -41 3 -39 18 4 24 -15 21 -21 -4z m-2 -99 c0 -20 -6 -26 -28 -28 -29 -4
-44 16 -33 44 4 10 15 14 33 12 22 -2 28 -8 28 -28z m75 14 c17 -17 -13 -48
-38 -40 -21 7 -30 35 -16 49 9 9 42 3 54 -9z"/>
<path d="M11367 6058 c-21 -30 -23 -37 -9 -29 23 12 55 58 44 64 -4 3 -19 -13
-35 -35z"/>
<path d="M4939 6081 c12 -8 10 -21 -9 -82 -13 -41 -30 -82 -38 -91 -14 -17
-12 -18 17 -18 26 0 31 3 27 18 -9 26 8 77 27 80 12 2 20 -10 30 -45 11 -38
19 -49 38 -52 23 -3 23 -2 7 15 -9 11 -19 35 -23 55 -6 31 -4 37 14 42 11 3
23 17 27 33 9 37 -16 54 -80 54 -34 0 -46 -3 -37 -9z m89 -30 c4 -27 -20 -51
-50 -51 -20 0 -23 16 -8 55 13 35 53 32 58 -4z"/>
<path d="M7000 6068 c0 -10 -7 -45 -16 -78 -16 -55 -16 -61 0 -84 21 -32 83
-37 109 -8 18 20 57 124 57 153 0 9 6 20 13 22 6 3 2 6 -11 6 -14 1 -21 -3
-17 -10 9 -14 -33 -145 -51 -160 -24 -19 -61 -18 -80 2 -16 18 -16 22 1 84 9
36 21 68 26 71 16 10 9 23 -11 21 -12 -1 -20 -8 -20 -19z"/>
<path d="M10662 6036 c3 -43 6 -51 23 -51 35 0 31 -20 -5 -24 l-35 -4 35 -6
c44 -7 46 -25 3 -29 -62 -6 -33 -21 37 -20 46 1 69 5 67 12 -2 6 -16 10 -30 8
-19 -2 -27 1 -27 12 0 11 9 16 31 16 16 0 28 4 25 9 -3 4 -17 6 -31 3 -18 -3
-25 0 -25 12 0 11 9 16 30 16 29 0 30 1 30 50 l0 50 -65 -2 -66 -2 3 -50z m53
3 c0 -24 -5 -35 -17 -37 -13 -3 -18 3 -18 20 0 18 2 20 10 8 5 -8 10 -10 10
-5 0 6 -4 17 -9 25 -11 17 -4 33 12 27 7 -2 12 -19 12 -38z m39 15 c-15 -12
-16 -15 -2 -10 18 5 28 -11 20 -31 -2 -7 -12 -13 -21 -13 -11 0 -17 10 -18 35
-1 30 2 35 20 35 20 0 20 0 1 -16z"/>
<path d="M11458 6048 c-4 -47 2 -60 22 -48 11 7 12 10 2 10 -25 0 -6 25 24 31
l29 7 -32 1 c-44 1 -42 21 2 21 19 0 35 4 35 10 0 5 -18 9 -39 8 -38 -1 -39
-2 -43 -40z"/>
<path d="M11557 6074 c3 -9 0 -20 -8 -25 -12 -7 -12 -9 0 -9 9 0 11 -8 7 -25
-5 -19 -2 -25 9 -25 13 0 15 7 9 35 -4 22 -2 41 6 50 10 12 9 15 -8 15 -16 0
-20 -4 -15 -16z"/>
<path d="M7977 6073 c-4 -3 -7 -13 -7 -20 0 -12 3 -11 16 1 18 18 44 21 44 6
0 -36 -35 -148 -51 -161 -17 -15 -17 -18 -2 -23 27 -11 52 2 46 25 -3 11 5 54
18 95 20 63 27 74 46 74 17 0 23 -6 23 -22 0 -19 2 -20 10 -8 22 34 12 40 -63
40 -41 0 -77 -3 -80 -7z"/>
<path d="M9405 6069 c-29 -14 -75 -91 -75 -125 0 -47 25 -74 69 -74 48 0 83
26 111 85 23 48 22 82 -6 109 -17 18 -68 20 -99 5z m89 -31 c11 -32 -7 -97
-36 -128 -27 -29 -86 -28 -97 3 -12 32 13 107 45 135 35 31 75 26 88 -10z"/>
<path d="M9586 6064 c-23 -22 -13 -62 24 -96 34 -31 37 -63 8 -82 -23 -14 -68
11 -69 38 -1 18 -2 18 -9 -4 -4 -14 -8 -29 -9 -35 -1 -15 98 -18 115 -4 26 21
17 69 -21 110 -35 39 -37 62 -9 73 23 9 54 -12 54 -37 0 -18 2 -19 10 -7 5 8
10 24 10 35 0 17 -8 20 -44 23 -30 1 -50 -3 -60 -14z"/>
<path d="M12041 6069 c-74 -30 -117 -143 -71 -189 57 -57 169 22 173 122 2 58
-46 90 -102 67z m71 -23 c28 -41 -26 -157 -78 -170 -23 -6 -32 -3 -46 14 -23
29 -23 50 4 104 31 64 94 91 120 52z"/>
<path d="M12955 6068 c-84 -31 -125 -145 -68 -194 15 -12 30 -21 33 -19 4 2
19 6 34 9 37 7 61 29 87 82 41 85 -5 150 -86 122z m71 -33 c11 -42 -5 -93 -41
-130 -40 -44 -73 -44 -93 -2 -16 33 -6 72 34 124 20 26 32 33 59 33 29 0 36
-4 41 -25z"/>
<path d="M14111 6043 c1 -21 1 -75 0 -120 l-1 -82 -32 -4 c-18 -2 29 -5 105
-5 92 -1 137 2 137 9 0 7 -11 8 -31 4 l-30 -7 3 121 3 121 -78 0 -79 0 3 -37z
m129 -8 l0 -35 -55 0 c-54 0 -55 1 -55 28 0 38 5 42 62 42 l48 0 0 -35z m-2
-77 c-3 -29 -7 -33 -37 -36 -60 -6 -78 3 -73 38 4 29 6 30 59 30 l54 0 -3 -32z
m2 -83 l0 -36 -57 3 c-54 3 -58 5 -59 28 -2 37 2 40 62 40 l54 0 0 -35z"/>
<path d="M12223 6056 c5 -12 -25 -124 -47 -176 -5 -12 0 -16 17 -16 18 0 23 5
20 17 -3 9 7 53 22 98 21 64 31 81 46 81 11 0 22 -7 26 -16 8 -21 -13 -64 -31
-64 -8 0 -18 -5 -21 -10 -8 -13 44 -2 63 13 18 14 15 74 -4 81 -9 3 -34 6 -56
6 -30 0 -39 -3 -35 -14z"/>
<path d="M12727 6050 c6 -21 -20 -118 -42 -162 -13 -27 -13 -28 10 -28 22 0
25 4 25 39 0 44 8 53 66 69 38 11 53 29 54 64 0 20 -36 38 -75 38 -38 0 -43
-2 -38 -20z m81 -20 c3 -33 -7 -47 -42 -56 l-29 -7 8 39 c9 51 13 56 38 52 15
-2 23 -11 25 -28z"/>
<path d="M13427 6040 c-42 -36 -61 -95 -46 -138 6 -17 18 -33 27 -37 13 -5 12
-10 -11 -29 l-28 -24 50 -7 c58 -8 104 0 122 21 7 9 8 14 1 14 -6 0 -14 -4
-17 -10 -3 -5 -29 -10 -56 -10 -42 0 -50 3 -47 17 2 10 17 20 36 24 40 8 68
33 93 81 23 46 24 71 3 103 -24 37 -82 35 -127 -5z m111 -7 c27 -79 -81 -207
-125 -148 -40 55 17 173 84 174 25 1 33 -4 41 -26z"/>
<path d="M13637 6051 c3 -11 -2 -43 -11 -73 -8 -29 -16 -57 -16 -63 -1 -5 -7
-20 -15 -31 -13 -20 -12 -21 11 -21 19 0 24 5 25 26 1 52 35 166 51 169 46 9
47 -71 1 -83 -15 -3 -22 -9 -16 -13 5 -4 13 -25 17 -47 8 -40 19 -55 45 -55
11 0 11 3 -2 18 -19 21 -34 92 -19 92 17 0 42 30 42 50 0 31 -28 50 -75 50
-38 0 -42 -2 -38 -19z"/>
<path d="M6250 6045 c-11 -13 -8 -15 14 -15 16 0 26 5 26 15 0 8 -6 15 -14 15
-7 0 -19 -7 -26 -15z"/>
<path d="M11395 6018 c-4 -11 -19 -32 -33 -45 -15 -14 -19 -21 -9 -17 15 5 17
-2 18 -50 2 -69 2 -73 12 -82 4 -4 7 33 7 83 0 68 4 94 15 103 17 14 20 30 6
30 -5 0 -13 -10 -16 -22z"/>
<path d="M1793 5996 c1 -23 5 -32 14 -29 18 7 17 63 -1 63 -9 0 -14 -11 -13
-34z"/>
<path d="M3880 6010 l-35 -7 43 -2 c23 0 42 4 42 9 0 6 -3 9 -7 9 -5 -1 -24
-5 -43 -9z"/>
<path d="M11515 6000 c3 -5 11 -10 16 -10 6 0 7 5 4 10 -3 6 -11 10 -16 10 -6
0 -7 -4 -4 -10z"/>
<path d="M5830 5994 c0 -3 6 -12 14 -20 8 -7 16 -19 19 -26 2 -7 8 -10 12 -6
4 4 -1 18 -12 32 -17 24 -33 33 -33 20z"/>
<path d="M8500 5990 c0 -5 20 -10 45 -10 25 0 45 5 45 10 0 6 -20 10 -45 10
-25 0 -45 -4 -45 -10z"/>
<path d="M10488 5951 c9 -16 19 -28 21 -25 6 6 -21 54 -30 54 -5 0 0 -13 9
-29z"/>
<path d="M12458 5973 c23 -2 59 -2 80 0 20 2 1 4 -43 4 -44 0 -61 -2 -37 -4z"/>
<path d="M13133 5974 c10 -10 109 -13 131 -4 14 6 -5 9 -58 9 -44 1 -77 -2
-73 -5z"/>
<path d="M11455 5963 c116 -8 132 -32 23 -35 l-73 -2 67 -3 c70 -4 81 -13 71
-52 -4 -14 -14 -21 -32 -22 -23 0 -24 -1 -6 -9 43 -18 54 -12 57 33 3 38 6 42
31 45 15 2 27 7 27 12 0 5 -13 7 -30 4 -41 -9 -39 13 3 25 24 7 6 9 -78 8 -60
0 -87 -2 -60 -4z"/>
<path d="M3878 5952 c-69 -4 -59 -22 12 -22 33 0 60 4 60 9 0 13 -19 16 -72
13z"/>
<path d="M437 5933 c-12 -11 -8 -23 8 -23 8 0 15 7 15 15 0 16 -12 20 -23 8z"/>
<path d="M4270 5925 c7 -9 15 -13 17 -11 7 7 -7 26 -19 26 -6 0 -6 -6 2 -15z"/>
<path d="M8530 5930 l-45 -7 58 -1 c32 -1 57 2 57 8 0 11 -1 11 -70 0z"/>
<path d="M4178 5899 c3 -19 7 -26 12 -19 8 14 2 50 -9 50 -4 0 -5 -14 -3 -31z"/>
<path d="M4220 5918 c0 -9 5 -20 11 -23 17 -11 20 0 4 21 -13 17 -14 17 -15 2z"/>
<path d="M12420 5918 c0 -5 35 -8 77 -8 42 0 74 3 70 6 -8 9 -147 10 -147 2z"/>
<path d="M13140 5915 c0 -6 31 -12 71 -14 51 -2 70 1 67 9 -5 15 -138 19 -138
5z"/>
<path d="M4127 5902 c-21 -23 -21 -32 -3 -32 8 0 18 9 21 21 9 28 2 33 -18 11z"/>
<path d="M8838 5914 c-3 -5 -2 -20 2 -34 4 -18 8 -21 12 -10 6 17 -6 58 -14
44z"/>
<path d="M8884 5907 c3 -10 6 -23 6 -28 0 -5 5 -9 10 -9 14 0 12 13 -6 36 -14
17 -15 17 -10 1z"/>
<path d="M8930 5911 c0 -5 5 -13 10 -16 6 -3 10 -2 10 4 0 5 -4 13 -10 16 -5
3 -10 2 -10 -4z"/>
<path d="M6017 5878 c-7 -25 -3 -33 12 -23 13 8 15 45 2 45 -5 0 -11 -10 -14
-22z"/>
<path d="M6060 5881 c0 -12 5 -21 10 -21 6 0 10 6 10 14 0 8 -4 18 -10 21 -5
3 -10 -3 -10 -14z"/>
<path d="M6102 5880 c0 -14 2 -19 5 -12 2 6 2 18 0 25 -3 6 -5 1 -5 -13z"/>
<path d="M6130 5886 c0 -9 5 -16 10 -16 6 0 10 4 10 9 0 6 -4 13 -10 16 -5 3
-10 -1 -10 -9z"/>
<path d="M8791 5882 c-7 -13 -11 -26 -8 -28 8 -8 29 25 25 38 -3 8 -9 4 -17
-10z"/>
<path d="M11460 5891 c0 -5 5 -13 10 -16 6 -3 10 -2 10 4 0 5 -4 13 -10 16 -5
3 -10 2 -10 -4z"/>
<path d="M10660 5869 c-13 -24 -4 -41 10 -19 10 16 13 40 5 40 -2 0 -9 -9 -15
-21z"/>
<path d="M10700 5866 c0 -31 6 -34 13 -6 3 11 1 23 -4 26 -5 3 -9 -6 -9 -20z"/>
<path d="M10730 5883 c0 -4 5 -15 10 -23 8 -13 10 -13 10 2 0 9 -4 20 -10 23
-5 3 -10 3 -10 -2z"/>
<path d="M10770 5871 c0 -5 5 -13 10 -16 6 -3 10 -2 10 4 0 5 -4 13 -10 16 -5
3 -10 2 -10 -4z"/>
<path d="M12871 5826 c-9 -11 -2 -15 45 -21 57 -7 114 7 114 28 0 7 -4 7 -12
-1 -14 -14 -104 -16 -113 -2 -9 14 -20 13 -34 -4z"/>
<path d="M3421 5663 c5 -30 -3 -53 -18 -53 -17 -1 -17 -2 0 -15 18 -13 18 -15
-2 -61 -12 -26 -19 -49 -16 -52 2 -3 10 8 17 24 12 27 13 25 16 -43 4 -108 19
-89 18 22 -1 74 2 98 14 105 8 5 18 6 22 4 4 -3 8 0 8 5 0 6 -10 11 -21 11
-19 0 -21 4 -15 30 4 22 2 30 -9 30 -8 0 -14 -3 -14 -7z"/>
<path d="M1640 5563 c-17 -54 -34 -104 -37 -110 -2 -7 -1 -13 4 -13 4 0 24 46
43 102 19 55 37 105 38 110 2 4 -1 8 -6 8 -5 0 -24 -44 -42 -97z"/>
<path d="M3510 5650 c0 -5 5 -10 10 -10 6 0 10 -6 10 -14 0 -9 -7 -12 -20 -9
-11 3 -20 0 -20 -6 0 -6 16 -11 35 -11 29 0 35 -4 35 -21 0 -18 -5 -21 -34
-17 -30 3 -36 1 -41 -21 -7 -28 1 -38 34 -43 22 -3 21 -5 -19 -45 -23 -24 -37
-43 -31 -43 6 0 27 16 45 35 19 19 37 35 40 35 3 0 7 -21 9 -47 3 -47 3 -47 5
10 l2 57 35 0 c41 0 46 -19 15 -50 -20 -20 -20 -20 -1 -20 19 0 23 7 35 62 l6
26 -77 -1 c-67 -2 -78 0 -81 16 -3 13 3 17 26 17 17 0 33 -6 35 -12 4 -10 6
-10 6 0 1 7 15 12 35 12 31 0 34 3 38 35 4 32 2 35 -21 35 -23 0 -24 1 -6 20
16 17 16 20 2 20 -9 0 -19 -9 -22 -20 -4 -12 -15 -20 -30 -20 -14 0 -25 7 -28
20 -5 20 -27 28 -27 10z m108 -67 c-2 -10 -13 -19 -26 -21 -17 -3 -22 2 -22
17 0 16 6 21 26 21 19 0 25 -5 22 -17z"/>
<path d="M3836 5652 c-3 -5 -29 -7 -58 -6 -45 2 -50 0 -35 -11 25 -18 20 -81
-5 -79 -25 2 -23 -12 2 -19 17 -4 19 -11 14 -44 -3 -21 -12 -51 -20 -67 -17
-35 -11 -47 7 -14 15 27 17 31 27 83 6 31 12 41 30 43 21 3 22 0 24 -75 l2
-78 5 75 c6 68 8 75 31 81 l25 7 -22 7 c-18 6 -23 15 -23 41 0 22 6 37 15 40
8 4 12 10 9 15 -7 11 -21 12 -28 1z m-18 -61 c-4 -53 -32 -49 -36 6 -3 38 -1
41 18 36 17 -5 21 -12 18 -42z"/>
<path d="M3911 5620 c-24 -22 -39 -40 -34 -40 15 0 93 59 93 70 0 17 -14 10
-59 -30z"/>
<path d="M5227 5653 c-4 -3 -7 -15 -7 -25 0 -10 -7 -18 -15 -18 -10 0 -15 -10
-15 -27 0 -16 -3 -57 -6 -93 l-6 -65 51 0 51 0 0 77 c0 42 3 84 7 94 4 12 2
15 -8 12 -9 -3 -13 -17 -11 -41 3 -36 3 -37 -32 -37 -33 0 -36 2 -36 30 0 26
4 30 28 30 21 0 24 2 12 10 -12 8 -13 13 -2 30 6 11 12 22 12 25 0 7 -15 6
-23 -2z m43 -173 c0 -39 -1 -40 -35 -40 -33 0 -35 2 -35 33 0 41 1 42 40 45
29 2 30 1 30 -38z"/>
<path d="M5326 5648 c-3 -7 -7 -25 -10 -40 -3 -14 -8 -34 -12 -45 -3 -10 2 -6
11 10 13 23 22 27 61 27 l45 0 -2 -84 c-2 -99 -7 -111 -45 -103 -27 5 -27 4
-9 -9 46 -34 61 -8 70 117 3 45 8 86 11 90 3 5 -20 9 -51 9 -52 0 -56 2 -50
20 4 12 2 20 -5 20 -6 0 -12 -6 -14 -12z"/>
<path d="M5890 5644 c-19 -7 -27 -13 -17 -13 10 -1 17 -9 17 -21 0 -15 -7 -20
-25 -20 -14 0 -25 -4 -25 -10 0 -5 11 -10 24 -10 20 0 23 -4 18 -22 -3 -13
-14 -39 -25 -58 l-19 -35 26 30 26 30 0 -69 c0 -38 3 -66 7 -62 4 3 6 38 5 76
-2 70 3 81 26 58 8 -8 12 -8 12 -1 0 6 -10 18 -22 26 -19 13 -20 18 -9 26 8 5
24 6 36 1 26 -10 191 -13 181 -3 -3 4 -23 7 -43 7 l-38 1 4 43 c3 43 -11 56
-24 25 -4 -10 -7 -30 -6 -45 2 -25 -1 -28 -28 -28 -16 0 -33 5 -36 10 -3 6
-17 10 -30 10 -18 0 -23 5 -22 22 1 11 9 23 19 26 10 2 18 8 18 13 0 11 -5 10
-50 -7z"/>
<path d="M6299 5643 c-5 -65 -4 -67 21 -73 21 -5 24 -11 22 -35 -2 -17 -8 -31
-13 -33 -5 -2 -9 -10 -9 -18 0 -8 -9 -14 -20 -14 -24 0 -24 -1 -5 43 17 42 18
47 7 47 -4 0 -13 -20 -20 -44 -10 -37 -15 -43 -32 -39 -27 7 -25 27 3 41 l22
11 -22 0 c-30 1 -33 41 -3 41 11 0 20 5 20 10 0 6 -11 10 -25 10 -15 0 -25 6
-25 15 0 8 11 17 25 21 14 3 25 11 25 16 0 6 -10 8 -22 4 -13 -3 -27 -6 -31
-6 -5 0 -8 -15 -7 -32 5 -88 0 -128 -16 -128 -8 0 -12 -4 -9 -10 7 -11 275
-14 275 -4 0 4 -7 12 -16 19 -14 10 -15 22 -7 83 l9 72 -35 -1 -36 -1 28 -11
c15 -6 27 -19 27 -29 0 -13 -8 -18 -27 -19 -24 -2 -25 -2 -5 -6 14 -3 22 -12
22 -24 0 -13 -7 -19 -22 -20 l-23 0 23 -9 c30 -13 29 -40 -3 -41 -14 -1 -31
-2 -37 -3 -7 -1 -12 4 -11 9 17 108 17 105 -10 105 -24 0 -25 3 -20 35 4 23 2
35 -6 35 -6 0 -12 -8 -12 -17z"/>
<path d="M6570 5648 c-2 -40 -14 -97 -28 -128 -24 -54 -25 -57 -4 -32 11 12
23 22 26 22 3 0 7 -30 9 -67 l3 -68 2 83 c1 47 6 82 12 82 6 0 10 -4 10 -10 0
-5 5 -10 11 -10 6 0 1 12 -11 27 l-21 27 28 12 28 12 -29 1 c-26 1 -28 3 -22
31 3 17 1 30 -4 30 -6 0 -10 -6 -10 -12z"/>
<path d="M1110 5622 c0 -35 -39 -154 -54 -164 -6 -4 4 -8 22 -8 21 0 31 4 27
11 -4 6 -4 26 -1 45 6 30 10 34 39 34 46 0 77 25 77 60 0 35 -23 50 -74 50
-33 0 -36 -3 -36 -28z m80 3 c21 -26 -3 -65 -40 -65 -28 0 -29 2 -23 33 9 47
38 62 63 32z"/>
<path d="M1284 5623 c-1 -16 -8 -49 -15 -75 -15 -58 -3 -94 36 -104 47 -12 82
13 105 72 11 30 20 60 20 67 0 7 7 24 14 40 13 24 13 27 -2 27 -11 0 -18 -9
-18 -22 -3 -40 -26 -112 -46 -140 -24 -35 -83 -40 -93 -9 -7 23 12 107 31 138
19 30 18 33 -8 33 -18 0 -23 -6 -24 -27z"/>
<path d="M1580 5626 c-5 -14 -18 -52 -29 -84 -10 -31 -22 -65 -26 -74 -4 -10
-3 -18 3 -18 6 0 14 14 17 32 4 18 11 39 16 48 14 26 39 113 34 118 -2 3 -9
-7 -15 -22z"/>
<path d="M1825 5638 c-66 -37 -96 -130 -57 -178 16 -20 24 -22 64 -16 51 8 79
32 103 90 27 64 1 116 -58 116 -18 0 -41 -6 -52 -12z m83 -10 c34 -34 -7 -138
-64 -166 -35 -16 -36 -16 -55 7 -23 28 -24 47 -4 94 26 62 92 96 123 65z"/>
<path d="M2043 5642 c-36 -2 -53 -8 -57 -19 -9 -23 4 -31 15 -10 6 9 20 17 33
17 l24 0 -24 -82 c-13 -46 -32 -89 -41 -95 -15 -11 -12 -13 20 -13 34 0 37 2
32 23 -4 12 2 54 13 92 17 62 22 70 45 73 20 2 27 -1 27 -13 0 -9 5 -13 11
-10 5 4 9 14 7 22 -3 17 -24 20 -105 15z"/>
<path d="M2256 5618 c-8 -19 -18 -47 -22 -63 -4 -16 -13 -40 -20 -54 -16 -30
-19 -70 -5 -55 13 12 72 196 66 202 -3 3 -11 -10 -19 -30z"/>
<path d="M2337 5608 c-31 -87 -49 -148 -45 -160 3 -7 17 28 32 77 15 50 32 94
37 100 11 12 12 25 0 25 -4 0 -15 -19 -24 -42z"/>
<path d="M2656 5635 c-35 -17 -32 -58 7 -92 18 -16 36 -36 40 -45 10 -26 -15
-50 -48 -46 -24 2 -31 8 -33 31 -4 37 -22 35 -22 -3 0 -39 -25 -40 -45 0 -21
41 -19 57 10 76 27 17 33 52 13 72 -18 18 -109 16 -102 -2 6 -15 -21 -117 -43
-158 -13 -28 -13 -28 18 -28 26 0 30 2 19 15 -9 11 -9 22 0 50 16 49 39 42 57
-17 13 -46 15 -48 51 -48 20 0 53 -3 73 -6 29 -5 41 -2 58 15 31 31 26 58 -20
108 -33 36 -38 47 -29 59 20 24 58 17 74 -13 10 -19 15 -22 16 -11 0 9 3 23 6
31 7 19 -68 28 -100 12z m-98 -34 c4 -27 -20 -51 -50 -51 -20 0 -23 16 -8 55
13 35 53 32 58 -4z"/>
<path d="M5514 5638 c-3 -5 22 -8 56 -8 53 0 61 -2 58 -17 -2 -14 -15 -19 -51
-21 l-47 -3 0 -93 0 -93 99 1 c54 1 97 4 94 9 -2 4 -11 7 -19 7 -11 0 -14 16
-14 75 l0 75 31 0 31 0 -3 -85 c-3 -63 -1 -85 9 -85 9 0 12 26 12 96 l0 95
-62 -1 c-83 -2 -80 -3 -68 20 9 17 21 20 75 20 36 0 65 3 65 8 0 9 -260 10
-266 0z m84 -145 l3 -73 -29 0 -29 0 3 58 c1 31 3 65 3 75 1 13 7 17 24 15 20
-3 22 -9 25 -75z m82 57 c0 -16 -7 -20 -35 -20 -28 0 -35 4 -35 20 0 16 7 20
35 20 28 0 35 -4 35 -20z m0 -50 c0 -16 -7 -20 -35 -20 -28 0 -35 4 -35 20 0
16 7 20 35 20 28 0 35 -4 35 -20z m-2 -58 c3 -19 -1 -22 -32 -22 -29 0 -36 4
-36 19 0 12 8 21 23 24 33 6 42 2 45 -21z"/>
<path d="M6660 5643 c0 -5 5 -14 12 -21 9 -9 7 -12 -12 -12 -36 0 -12 -15 33
-19 4 -1 7 -9 7 -19 0 -15 -6 -17 -35 -14 -25 3 -35 0 -35 -9 0 -8 -3 -24 -6
-36 -5 -19 -1 -22 28 -25 l33 -3 -43 -43 c-24 -23 -38 -42 -33 -42 6 0 27 17
48 38 21 20 41 36 45 35 5 -2 8 2 8 7 0 6 16 10 35 10 27 0 35 -4 35 -17 0
-23 -11 -38 -30 -46 -10 -4 -8 -6 7 -6 21 -1 24 4 37 62 6 26 5 27 -39 27 -33
0 -45 4 -45 15 0 10 10 15 34 15 31 0 34 3 38 36 4 33 2 35 -19 29 -27 -6 -29
2 -6 27 14 15 14 18 1 18 -8 0 -20 -11 -26 -25 -12 -26 -42 -34 -42 -11 0 7
-7 19 -15 26 -8 7 -15 8 -15 3z m91 -53 c28 -16 23 -30 -11 -30 -28 0 -40 17
-23 33 8 9 11 9 34 -3z m-51 -65 c0 -10 -10 -15 -30 -15 -29 0 -38 9 -23 23
13 13 53 7 53 -8z"/>
<path d="M6925 5641 c-38 -4 -54 -9 -42 -13 12 -5 17 -19 17 -47 0 -33 -4 -40
-22 -44 l-23 -4 23 -2 c28 -1 29 -24 2 -93 -11 -28 -18 -54 -16 -56 8 -7 30
43 41 93 9 40 16 51 34 53 22 3 22 1 19 -72 -2 -42 0 -76 5 -76 4 0 7 34 7 75
0 68 2 75 20 75 11 0 20 5 20 10 0 6 -9 10 -20 10 -29 0 -29 66 0 75 18 6 20
28 2 23 -4 -1 -34 -4 -67 -7z m31 -59 c1 -38 -1 -42 -24 -42 -22 0 -24 3 -18
31 3 17 6 38 6 46 0 8 7 13 18 11 13 -2 17 -14 18 -46z"/>
<path d="M7062 5619 c-13 -16 -30 -29 -38 -29 -8 0 -14 -4 -14 -10 0 -5 4 -10
10 -10 13 0 80 60 80 71 0 17 -15 8 -38 -22z"/>
<path d="M8265 5620 c-9 -17 -20 -28 -25 -25 -6 4 -10 -30 -10 -87 l0 -93 50
0 50 0 0 58 c0 31 4 57 9 57 5 0 14 14 20 30 9 28 13 30 60 30 l51 0 0 -45 c0
-24 -5 -67 -11 -95 -10 -47 -13 -52 -35 -47 -14 2 -27 1 -29 -3 -8 -13 46 -22
60 -10 7 6 18 50 24 98 16 128 20 119 -45 114 l-57 -5 7 27 c13 51 -13 25 -30
-31 -17 -54 -19 -56 -22 -25 -3 28 -6 31 -27 26 -29 -7 -44 15 -21 32 10 7 13
15 7 18 -6 4 -17 -7 -26 -24z m45 -70 c0 -28 -3 -30 -35 -30 -30 0 -35 3 -35
23 0 31 7 37 42 37 24 0 28 -4 28 -30z m-2 -82 c3 -37 3 -38 -32 -38 -34 0
-36 2 -36 33 0 41 7 49 40 45 21 -3 25 -9 28 -40z"/>
<path d="M8965 5640 c-3 -5 -16 -10 -28 -11 -12 0 -16 -3 -9 -6 21 -8 14 -43
-9 -43 -11 0 -17 -5 -14 -10 4 -6 11 -8 16 -5 20 13 19 -25 0 -64 -26 -50 -27
-64 -1 -31 l20 25 0 -62 c0 -35 4 -63 10 -63 6 0 10 49 10 126 0 117 1 126 20
131 11 3 17 9 14 14 -7 12 -21 11 -29 -1z"/>
<path d="M9077 5636 c-3 -8 -21 -16 -39 -19 l-33 -4 38 -1 c46 -2 49 -19 5
-25 l-33 -4 33 -1 c43 -3 41 -22 -2 -22 -19 0 -38 5 -41 10 -3 6 -14 10 -23
10 -13 0 -13 -2 4 -15 21 -16 194 -22 194 -6 0 5 -18 7 -40 4 -26 -4 -40 -2
-40 6 0 6 14 11 30 11 17 0 30 4 30 8 0 5 -13 7 -30 4 -18 -3 -30 0 -30 7 0 6
16 11 35 11 19 0 35 5 35 10 0 7 -13 8 -35 4 -28 -5 -35 -3 -35 10 0 20 -16
21 -23 2z"/>
<path d="M4267 5620 c6 -22 -37 -170 -49 -170 -5 0 -8 -4 -8 -10 0 -5 11 -10
24 -10 20 0 25 5 24 28 -2 54 10 72 48 72 34 0 84 35 84 60 0 25 -41 50 -84
50 -39 0 -44 -2 -39 -20z m74 0 c37 -20 9 -80 -38 -80 -27 0 -28 8 -9 55 16
39 19 40 47 25z"/>
<path d="M4500 5633 c-28 -10 -70 -56 -81 -90 -12 -38 -5 -86 17 -104 13 -10
12 -15 -6 -34 l-21 -22 32 -7 c50 -10 103 -6 122 8 24 18 21 29 -4 15 -13 -6
-39 -8 -66 -4 -37 5 -42 9 -32 21 6 8 22 14 34 14 31 0 72 35 96 82 43 84 -7
151 -91 121z m61 -13 c26 -14 25 -69 -2 -115 -24 -40 -46 -55 -84 -55 -55 0
-50 107 7 155 32 27 49 30 79 15z"/>
<path d="M4650 5631 c0 -5 -3 -17 -7 -27 -5 -14 0 -13 25 6 18 13 35 20 39 17
10 -10 -35 -158 -54 -179 -15 -17 -14 -18 22 -18 32 0 36 2 25 15 -9 11 -8 27
9 75 12 33 21 67 21 75 0 8 9 19 19 25 16 8 23 6 34 -10 14 -21 15 -21 20 -1
2 11 2 22 -1 25 -9 10 -152 7 -152 -3z"/>
<path d="M4837 5616 c3 -13 -2 -49 -11 -80 -16 -53 -16 -58 1 -81 14 -19 27
-24 60 -25 53 0 74 25 99 117 10 38 25 73 33 80 14 11 12 12 -9 13 -22 0 -25
-5 -26 -38 -2 -57 -42 -141 -69 -148 -38 -9 -70 -1 -73 20 -6 28 29 139 48
153 12 10 9 12 -21 13 -33 0 -36 -2 -32 -24z"/>
<path d="M5960 5630 c0 -5 10 -10 23 -10 18 0 19 2 7 10 -19 13 -30 13 -30 0z"/>
<path d="M6075 5630 c-18 -8 -17 -9 7 -9 15 -1 30 4 33 9 7 12 -12 12 -40 0z"/>
<path d="M8560 5630 c0 -5 18 -10 40 -10 22 0 40 5 40 10 0 6 -18 10 -40 10
-22 0 -40 -4 -40 -10z"/>
<path d="M8705 5629 c-33 -3 -52 -6 -41 -7 12 -1 16 -7 12 -18 -3 -9 -6 -20
-6 -25 0 -5 -20 -9 -44 -9 l-45 0 -3 -91 c-2 -50 0 -93 3 -95 10 -6 49 8 49
17 0 5 -6 8 -12 7 -9 -2 -14 19 -16 75 -3 72 -1 77 18 77 22 0 23 -3 20 -107
l-1 -62 90 -3 91 -3 0 95 0 95 -61 -3 c-67 -4 -84 4 -65 30 8 11 33 18 75 22
35 3 66 7 68 10 6 6 -42 4 -132 -5z m25 -89 c0 -16 -7 -20 -35 -20 -28 0 -35
4 -35 20 0 16 7 20 35 20 28 0 35 -4 35 -20z m77 -55 c0 -71 -2 -76 -24 -81
-13 -4 -26 -4 -29 -1 -8 8 -14 120 -8 140 3 11 15 17 34 17 l28 0 -1 -75z
m-80 -27 c-2 -52 -3 -53 -32 -53 -25 0 -30 4 -30 25 0 15 5 24 13 23 6 -2 12
2 12 7 0 6 -7 10 -15 10 -8 0 -15 9 -15 20 0 16 7 20 35 20 l35 0 -3 -52z"/>
<path d="M9348 5629 c24 -25 14 -41 -25 -39 -21 1 -47 1 -58 -1 -11 -2 27 -5
85 -8 l105 -6 -48 -46 c-27 -25 -73 -61 -102 -80 -30 -19 -54 -41 -55 -49 0
-12 3 -12 16 2 15 15 20 15 58 -3 45 -20 170 -27 181 -9 4 6 -23 10 -75 10
-112 0 -151 23 -92 54 33 18 142 120 142 133 0 6 -21 8 -47 6 -43 -4 -49 -2
-58 18 -5 12 -17 25 -25 27 -12 4 -13 2 -2 -9z"/>
<path d="M9591 5515 c-1 -104 2 -125 14 -125 23 0 95 31 95 41 0 5 -13 3 -30
-6 -53 -28 -60 -22 -60 49 0 53 3 65 18 69 15 4 15 5 -2 6 -15 1 -17 8 -14 46
2 30 -1 45 -9 45 -8 0 -12 -35 -12 -125z"/>
<path d="M9722 5513 l3 -128 63 -3 c46 -2 62 0 62 10 0 10 -16 13 -57 13 l-58
0 -3 62 c-3 68 1 73 67 70 19 -1 36 3 38 10 3 7 -14 10 -49 9 l-53 -1 1 43 c0
23 -3 42 -8 42 -5 0 -7 -57 -6 -127z"/>
<path d="M9983 5626 c4 -10 7 -22 7 -27 0 -5 4 -9 9 -9 12 0 2 38 -12 47 -7 4
-8 0 -4 -11z"/>
<path d="M10025 5598 c-11 -61 -49 -144 -81 -173 -20 -19 -23 -25 -11 -25 9 0
28 18 42 40 l25 40 90 0 c84 0 90 -1 90 -21 0 -34 -19 -59 -46 -59 -14 0 -22
-4 -19 -10 3 -5 17 -10 31 -10 27 0 37 18 47 83 5 35 4 37 -15 31 -19 -6 -20
-3 -14 26 5 29 4 32 -14 27 -17 -4 -20 0 -20 24 0 28 -2 29 -46 29 -41 0 -45
2 -39 20 3 11 2 20 -3 20 -6 0 -13 -19 -17 -42z m85 -28 c0 -11 -5 -20 -11
-20 -5 0 -7 -5 -4 -10 4 -6 10 -8 14 -6 13 9 34 -12 28 -28 -5 -12 -21 -16
-67 -16 -64 0 -66 1 -49 31 7 14 17 18 32 14 22 -5 22 -5 0 6 -42 22 -28 49
24 49 26 0 33 -4 33 -20z"/>
<path d="M6330 5620 c0 -5 7 -10 15 -10 8 0 15 5 15 10 0 6 -7 10 -15 10 -8 0
-15 -4 -15 -10z"/>
<path d="M7412 5610 c-59 -36 -84 -143 -40 -174 l22 -16 -23 -24 -22 -24 60
-7 c49 -6 67 -4 87 10 14 9 22 20 18 23 -3 4 -9 1 -11 -5 -5 -13 -94 -19 -106
-7 -12 12 6 34 28 34 31 0 84 46 101 87 19 45 17 80 -6 103 -26 26 -66 25
-108 0z m86 -2 c15 -15 16 -72 1 -101 -17 -34 -61 -77 -78 -77 -23 0 -51 31
-51 57 0 79 87 162 128 121z"/>
<path d="M7614 5615 c4 -12 -24 -118 -49 -177 -6 -14 -2 -18 18 -18 20 0 23 4
20 24 -3 13 2 39 10 57 8 19 18 51 22 72 5 34 9 38 33 35 16 -2 28 -10 30 -21
4 -20 -24 -57 -43 -57 -9 0 -6 -17 9 -55 15 -39 26 -55 40 -55 17 0 18 2 4 18
-8 9 -20 32 -26 50 -10 30 -9 34 13 44 34 15 42 58 15 80 -28 23 -105 25 -96
3z"/>
<path d="M7786 5614 c-25 -24 -19 -52 19 -91 19 -20 35 -42 35 -49 0 -29 -13
-44 -40 -44 -29 0 -56 23 -46 39 4 5 2 12 -4 16 -5 3 -10 0 -10 -7 0 -7 -3
-22 -6 -33 -5 -19 0 -21 45 -23 39 -1 56 3 71 18 26 26 18 55 -25 97 -38 37
-43 54 -20 73 19 16 65 -2 65 -25 0 -8 5 -15 10 -15 6 0 10 11 10 24 0 18 -7
25 -31 30 -46 9 -56 8 -73 -10z"/>
<path d="M7932 5621 c-5 -3 -13 -17 -17 -29 l-7 -24 21 21 c27 27 51 27 51 1
0 -11 -7 -37 -15 -57 -8 -19 -15 -44 -15 -54 0 -11 -9 -28 -20 -39 l-20 -20
34 0 c30 0 33 2 28 25 -2 14 6 56 19 95 19 60 26 70 46 70 17 0 23 -6 24 -22
l0 -23 11 23 c6 12 9 25 5 28 -8 8 -134 12 -145 5z"/>
<path d="M6085 5600 c-3 -5 -2 -10 4 -10 5 0 13 5 16 10 3 6 2 10 -4 10 -5 0
-13 -4 -16 -10z"/>
<path d="M9958 5593 c7 -3 16 -2 19 1 4 3 -2 6 -13 5 -11 0 -14 -3 -6 -6z"/>
<path d="M3946 5565 c-9 -13 -33 -34 -54 -44 -20 -11 -30 -20 -22 -21 30 0
109 58 110 83 0 16 -18 6 -34 -18z"/>
<path d="M7072 5545 c-18 -19 -39 -35 -47 -35 -8 0 -15 -4 -15 -10 0 -5 4 -10
8 -10 16 0 102 71 102 84 0 14 -17 3 -48 -29z"/>
<path d="M3032 5533 c2 -22 8 -28 28 -28 20 0 25 5 25 25 0 20 -6 26 -28 28
-26 3 -28 1 -25 -25z m38 -3 c0 -11 -7 -20 -15 -20 -8 0 -15 9 -15 20 0 11 7
20 15 20 8 0 15 -9 15 -20z"/>
<path d="M3450 5551 c0 -6 4 -13 10 -16 6 -3 7 1 4 9 -7 18 -14 21 -14 7z"/>
<path d="M9663 5553 c-23 -9 -14 -20 12 -15 14 2 22 8 19 13 -6 10 -12 10 -31
2z"/>
<path d="M5970 5495 c0 -61 19 -77 21 -17 1 20 1 40 0 45 0 4 5 7 12 7 8 0 7
4 -3 10 -26 17 -30 11 -30 -45z"/>
<path d="M6055 5540 c-38 -7 -39 -7 -8 -9 32 -1 33 -3 31 -41 -1 -26 -6 -41
-17 -43 -9 -3 -4 -5 12 -6 26 -1 27 0 27 54 0 30 -1 54 -2 54 -2 -1 -21 -5
-43 -9z"/>
<path d="M5352 5509 c18 -24 24 -27 26 -14 2 9 -5 23 -15 30 -30 24 -35 17
-11 -16z"/>
<path d="M8400 5499 c12 -16 24 -28 27 -25 8 7 -15 43 -32 50 -12 4 -11 -1 5
-25z"/>
<path d="M8970 5521 c0 -5 7 -11 14 -14 10 -4 13 -1 9 9 -6 15 -23 19 -23 5z"/>
<path d="M9029 5505 c-4 -67 -1 -87 11 -80 6 3 10 2 10 -3 0 -4 -15 -16 -32
-25 -29 -14 -30 -16 -10 -16 12 -1 22 2 22 7 0 13 61 42 90 42 27 0 28 3 32
50 l3 50 -62 0 c-60 0 -63 -1 -64 -25z m107 7 c-6 -9 -84 -8 -93 2 -4 3 17 6
46 6 29 0 50 -4 47 -8z m4 -32 c0 -5 -22 -10 -50 -10 -27 0 -50 5 -50 10 0 6
23 10 50 10 28 0 50 -4 50 -10z m0 -30 c0 -5 -22 -10 -50 -10 -27 0 -50 5 -50
10 0 6 23 10 50 10 28 0 50 -4 50 -10z"/>
<path d="M3965 5493 c-9 -16 -31 -38 -48 -51 -53 -38 -73 -54 -62 -49 64 28
87 44 114 77 17 21 27 41 22 45 -5 3 -17 -7 -26 -22z"/>
<path d="M6018 5513 c6 -2 18 -2 25 0 6 3 1 5 -13 5 -14 0 -19 -2 -12 -5z"/>
<path d="M7091 5470 c-18 -23 -48 -49 -67 -57 -19 -9 -34 -20 -34 -25 0 -5 17
0 38 11 44 23 106 85 100 101 -2 6 -18 -7 -37 -30z"/>
<path d="M6028 5473 c7 -3 16 -2 19 1 4 3 -2 6 -13 5 -11 0 -14 -3 -6 -6z"/>
<path d="M6703 5420 c0 -25 2 -35 4 -22 2 12 2 32 0 45 -2 12 -4 2 -4 -23z"/>
<path d="M10136 5446 c3 -9 11 -16 16 -16 13 0 5 23 -10 28 -7 2 -10 -2 -6
-12z"/>
<path d="M6000 5440 c0 -5 -17 -19 -37 -30 -34 -19 -35 -20 -9 -15 52 11 101
55 61 55 -8 0 -15 -4 -15 -10z"/>
<path d="M9993 5425 c-6 -14 -7 -25 -2 -25 11 0 22 25 17 39 -1 6 -8 -1 -15
-14z"/>
<path d="M10040 5426 c0 -14 5 -26 10 -26 6 0 10 9 10 19 0 11 -4 23 -10 26
-6 4 -10 -5 -10 -19z"/>
<path d="M10087 5430 c3 -11 9 -20 14 -20 11 0 11 3 3 24 -9 23 -23 20 -17 -4z"/>
<path d="M6238 5420 c-33 -18 -58 -40 -44 -40 13 0 96 45 96 52 0 12 -11 9
-52 -12z"/>
<path d="M6398 5414 c24 -14 46 -24 49 -21 7 8 -58 47 -77 47 -8 0 4 -12 28
-26z"/>
<path d="M6070 5421 c0 -4 12 -13 26 -20 20 -9 25 -9 22 0 -5 14 -48 32 -48
20z"/>
<path d="M1761 5406 c-20 -24 90 -34 136 -12 20 9 33 20 29 23 -3 3 -12 0 -21
-7 -14 -11 -83 -8 -120 6 -6 3 -17 -2 -24 -10z"/>
<path d="M9140 5400 c27 -21 40 -25 40 -11 0 5 -15 14 -32 20 l-33 11 25 -20z"/>
<path d="M12114 5073 c-12 -2 -32 -16 -46 -31 -85 -96 -48 -204 58 -170 69 23
109 138 64 186 -20 21 -32 24 -76 15z m54 -19 c28 -19 28 -55 1 -112 -15 -29
-33 -49 -56 -60 -34 -16 -35 -16 -54 7 -10 13 -19 32 -19 42 0 34 42 109 69
124 33 18 32 18 59 -1z"/>
<path d="M1905 4763 c-22 -48 -46 -92 -53 -100 -11 -11 -9 -13 12 -13 21 0 26
5 26 25 0 30 25 43 65 36 24 -5 31 -12 33 -34 3 -23 8 -27 35 -27 26 0 29 2
15 13 -16 12 -65 119 -75 165 -3 12 -8 22 -12 22 -3 0 -24 -39 -46 -87z m53 2
c16 -35 16 -35 -18 -35 -16 0 -30 2 -30 5 0 11 24 55 30 55 4 0 12 -11 18 -25z"/>
<path d="M2805 4836 c-11 -9 -14 -16 -7 -16 8 0 12 -24 12 -84 0 -58 -4 -86
-12 -89 -7 -3 3 -6 22 -6 20 0 30 3 23 7 -8 5 -13 43 -15 105 -3 96 -3 98 -23
83z"/>
<path d="M3090 4837 c-13 -7 -25 -19 -28 -27 -4 -12 -2 -13 9 -2 20 18 57 15
69 -7 14 -27 0 -58 -48 -112 l-41 -44 56 -3 c38 -2 59 1 64 10 13 20 11 34 -3
20 -14 -14 -78 -16 -78 -2 0 6 4 10 8 10 14 0 72 87 72 108 0 17 -19 40 -46
55 -5 3 -21 0 -34 -6z"/>
<path d="M2940 4765 c0 -8 7 -15 15 -15 8 0 15 7 15 15 0 8 -7 15 -15 15 -8 0
-15 -7 -15 -15z"/>
<path d="M12005 4693 c-44 -42 -134 -129 -200 -193 -66 -63 -174 -164 -240
-225 -65 -60 -169 -157 -229 -215 -393 -376 -408 -391 -498 -475 -29 -28 -84
-80 -123 -115 -38 -35 -155 -145 -260 -245 -378 -360 -433 -411 -485 -455
-108 -92 -127 -110 -590 -550 -26 -25 -101 -94 -166 -155 -65 -60 -140 -130
-165 -155 -103 -101 -343 -324 -473 -440 -22 -19 -49 -44 -60 -55 -34 -33
-336 -316 -394 -370 -30 -27 -73 -68 -96 -90 -24 -22 -85 -79 -137 -127 -52
-47 -155 -145 -229 -217 l-135 -130 1075 -1 c591 -1 1462 -3 1935 -6 693 -3
3324 -7 3372 -5 12 1 -35 120 -110 281 -19 41 -47 104 -62 140 -16 36 -41 93
-56 128 -16 34 -29 65 -29 69 0 4 -9 25 -19 47 -27 58 -101 235 -101 241 0 4
-9 25 -19 48 -11 23 -38 89 -61 147 -23 58 -52 128 -65 155 -12 28 -37 84 -54
125 -34 80 -36 83 -77 175 -14 33 -32 76 -39 96 -7 19 -23 57 -35 85 -12 27
-28 65 -36 84 -9 19 -19 44 -24 55 -14 30 -88 212 -116 285 -14 36 -31 79 -39
95 -18 38 -118 279 -135 325 -8 19 -27 64 -43 100 -16 36 -41 97 -56 135 -59
150 -125 309 -180 428 -17 37 -31 72 -31 76 0 4 -6 21 -14 37 -8 16 -42 92
-74 170 -54 126 -70 164 -117 269 -7 17 -41 95 -75 175 -33 80 -66 156 -72
170 -7 14 -24 54 -38 89 -15 36 -31 66 -36 68 -5 1 -45 -32 -89 -74z m105 4
c0 -5 13 -37 29 -70 15 -34 32 -73 36 -87 4 -14 23 -59 42 -100 36 -79 50
-110 77 -175 10 -22 21 -49 26 -60 31 -70 58 -134 140 -325 83 -194 113 -264
140 -325 40 -92 100 -243 100 -254 0 -13 -319 -12 -925 4 -93 2 -345 7 -560
10 -214 3 -441 8 -504 11 l-114 6 80 77 c45 42 116 108 158 146 43 39 122 113
176 165 177 172 453 433 644 611 44 41 130 122 190 180 230 222 238 229 252
211 7 -10 13 -21 13 -25z m-935 -1403 c524 -10 669 -12 1115 -19 233 -4 428
-8 431 -11 4 -2 10 -16 14 -31 3 -16 20 -56 36 -91 16 -35 29 -66 29 -68 0 -3
41 -101 90 -220 50 -118 90 -217 90 -219 0 -3 9 -24 19 -48 11 -23 40 -91 64
-152 24 -60 56 -135 70 -165 14 -30 40 -91 57 -135 17 -44 42 -104 55 -133 14
-29 25 -55 25 -59 0 -3 -235 -3 -522 1 -288 3 -1065 8 -1728 11 -1174 5 -1860
12 -1867 18 -3 4 22 27 286 277 85 80 202 190 260 246 170 162 232 218 249
228 10 5 33 25 53 45 19 20 86 83 149 141 62 58 137 128 165 155 29 28 97 94
152 147 l101 97 144 -4 c78 -3 287 -7 463 -11z m-315 -1359 c2017 -8 2411 -12
2420 -22 7 -8 52 -111 170 -393 28 -69 58 -140 66 -157 8 -18 21 -50 28 -70 7
-21 23 -58 34 -83 11 -25 36 -83 55 -130 31 -76 56 -134 103 -237 8 -17 14
-34 14 -38 0 -3 22 -52 49 -108 28 -56 59 -126 71 -156 l21 -54 -2923 8
c-1608 4 -3026 11 -3152 14 l-229 6 48 45 c26 25 69 65 95 90 142 134 334 314
395 370 39 35 72 66 75 70 23 24 307 288 495 459 38 36 146 137 238 225 93 89
179 164 190 168 12 3 54 5 92 2 39 -2 779 -6 1645 -9z"/>
<path d="M3469 4758 c-12 -39 7 -64 41 -53 13 4 20 15 20 31 0 20 -5 24 -30
24 -16 0 -30 -1 -31 -2z m39 -25 c-2 -10 -8 -18 -13 -18 -5 0 -11 8 -13 18 -2
10 3 17 13 17 10 0 15 -7 13 -17z"/>
<path d="M2080 4665 c0 -8 7 -15 15 -15 8 0 15 7 15 15 0 8 -7 15 -15 15 -8 0
-15 -7 -15 -15z"/>
<path d="M2946 4663 c-11 -11 -6 -23 9 -23 8 0 15 4 15 9 0 13 -16 22 -24 14z"/>
<path d="M1858 4088 c15 -15 16 -160 1 -175 -8 -8 3 -13 38 -18 50 -6 101 6
115 28 13 20 9 57 -7 63 -17 7 -21 34 -4 34 21 0 4 54 -21 67 -34 17 -139 18
-122 1z m91 -9 c22 -8 31 -17 31 -34 0 -24 -17 -35 -56 -35 -21 0 -24 5 -24
33 0 28 6 47 15 47 1 0 16 -5 34 -11z m28 -100 c33 -28 7 -69 -44 -69 -33 0
-33 1 -33 46 l0 47 32 -7 c17 -3 37 -11 45 -17z"/>
<path d="M2802 4084 c-30 -21 -28 -38 3 -18 23 15 27 15 49 0 32 -21 23 -71
-18 -106 -9 -7 -16 -17 -16 -23 0 -18 52 37 66 70 18 42 18 45 -6 71 -24 26
-47 28 -78 6z"/>
<path d="M3116 4075 c-11 -8 -16 -18 -13 -22 4 -4 13 -1 19 5 20 20 47 14 54
-13 7 -30 24 -23 24 10 0 36 -48 47 -84 20z"/>
<path d="M2992 4018 c6 -18 28 -21 28 -4 0 9 -7 16 -16 16 -9 0 -14 -5 -12
-12z"/>
<path d="M3500 4005 c-15 -18 -3 -55 18 -55 27 0 44 16 40 35 -4 25 -43 38
-58 20z m40 -25 c0 -23 -25 -27 -33 -6 -7 16 1 26 20 26 7 0 13 -9 13 -20z"/>
<path d="M3157 4002 c-18 -4 -18 -5 2 -18 25 -18 29 -69 5 -78 -8 -3 -26 -3
-40 0 -13 3 -24 2 -24 -4 0 -25 62 -22 88 5 18 17 18 71 1 87 -8 7 -22 11 -32
8z"/>
<path d="M2076 3921 c-4 -7 -5 -15 -2 -18 9 -9 19 4 14 18 -4 11 -6 11 -12 0z"/>
<path d="M2784 3911 c-14 -14 3 -21 55 -21 38 0 61 4 64 13 3 9 -11 12 -55 12
-33 0 -61 -2 -64 -4z"/>
<path d="M3000 3905 c0 -8 5 -15 10 -15 6 0 10 7 10 15 0 8 -4 15 -10 15 -5 0
-10 -7 -10 -15z"/>
<path d="M10336 3456 c6 -17 -20 -128 -41 -168 -13 -27 -13 -28 12 -28 18 0
24 4 19 15 -3 8 2 38 11 67 8 29 19 64 22 78 5 16 16 26 30 28 53 8 51 -45 -2
-73 l-32 -16 35 5 c39 7 60 29 60 61 0 33 -20 45 -72 45 -37 0 -46 -3 -42 -14z"/>
<path d="M12869 3411 c13 -8 12 -18 -3 -69 -11 -35 -16 -71 -12 -86 12 -47 81
-59 119 -21 8 8 22 40 32 72 9 32 22 70 30 86 13 25 13 27 -5 27 -11 0 -17 -5
-15 -12 3 -7 -5 -47 -18 -88 -18 -58 -29 -78 -48 -87 -33 -16 -68 -6 -75 21
-6 24 20 132 37 152 9 11 5 14 -22 14 -24 0 -30 -3 -20 -9z"/>
<path d="M1904 3335 c-63 -26 -77 -141 -21 -180 26 -18 96 -19 120 -1 27 21
20 30 -9 11 -63 -41 -134 15 -119 94 9 50 31 71 74 71 29 0 40 -6 53 -27 l17
-28 1 28 c0 15 -6 29 -12 31 -40 13 -77 13 -104 1z"/>
<path d="M2795 3324 c-21 -22 -19 -23 19 -17 20 3 36 1 40 -6 12 -18 -3 -49
-27 -57 -21 -7 -21 -7 5 -16 59 -20 35 -92 -27 -81 -15 3 -25 1 -25 -6 0 -15
42 -14 75 1 25 11 26 16 21 57 -3 26 -6 51 -6 56 -1 6 1 19 4 30 4 11 3 25 -2
32 -12 19 -60 23 -77 7z"/>
<path d="M3154 3333 c-24 -3 -33 -11 -42 -37 -16 -43 -15 -46 6 -46 26 0 52
-31 52 -63 0 -31 -15 -42 -52 -39 -15 1 -28 -2 -28 -8 0 -20 56 -10 78 13 38
40 27 81 -32 121 -25 17 -12 36 25 36 19 0 29 5 29 15 0 8 -1 14 -2 13 -2 0
-17 -3 -34 -5z"/>
<path d="M2980 3254 c0 -17 22 -14 28 4 2 7 -3 12 -12 12 -9 0 -16 -7 -16 -16z"/>
<path d="M3478 3253 c-21 -5 -25 -48 -5 -56 19 -7 57 11 57 27 0 19 -29 34
-52 29z m32 -29 c0 -8 -7 -14 -15 -14 -17 0 -18 2 -9 24 7 18 24 12 24 -10z"/>
<path d="M2070 3156 c0 -9 5 -16 10 -16 6 0 10 4 10 9 0 6 -4 13 -10 16 -5 3
-10 -1 -10 -9z"/>
<path d="M2980 3145 c0 -8 5 -15 10 -15 6 0 10 7 10 15 0 8 -4 15 -10 15 -5 0
-10 -7 -10 -15z"/>
<path d="M1855 2574 c12 -13 15 -31 11 -88 -2 -39 -6 -78 -8 -86 -4 -20 54
-26 104 -11 92 28 105 147 21 190 -12 6 -49 11 -83 11 -56 0 -60 -1 -45 -16z
m133 -27 c53 -49 12 -147 -63 -147 l-35 0 0 83 c0 46 3 87 7 91 12 11 66 -5
91 -27z"/>
<path d="M3123 2571 c-31 -26 -32 -95 -2 -111 11 -7 27 -9 34 -6 31 11 25 -17
-10 -49 -39 -38 -40 -41 0 -23 35 16 67 72 69 120 1 32 -5 45 -27 64 -33 29
-36 29 -64 5z m57 -27 c15 -37 12 -64 -6 -71 -25 -9 -49 11 -50 43 -3 54 39
75 56 28z"/>
<path d="M2829 2533 c-43 -58 -62 -93 -55 -100 2 -3 22 -6 43 -6 31 -2 39 -6
41 -24 4 -31 22 -29 22 1 0 13 6 27 13 30 10 5 10 7 0 12 -9 4 -13 28 -13 70
0 35 -4 64 -8 64 -4 0 -24 -21 -43 -47z m31 -33 c0 -43 -12 -54 -49 -48 -20 3
-20 4 7 45 15 24 30 43 35 43 4 0 7 -18 7 -40z"/>
<path d="M2990 2505 c0 -8 7 -15 15 -15 8 0 15 7 15 15 0 8 -7 15 -15 15 -8 0
-15 -7 -15 -15z"/>
<path d="M3494 2486 c-10 -26 4 -48 28 -44 17 2 23 10 23 28 0 18 -6 26 -23
28 -13 2 -25 -3 -28 -12z m42 -7 c10 -17 -13 -36 -27 -22 -12 12 -4 33 11 33
5 0 12 -5 16 -11z"/>
<path d="M2080 2395 c0 -8 5 -15 10 -15 6 0 10 7 10 15 0 8 -4 15 -10 15 -5 0
-10 -7 -10 -15z"/>
<path d="M2990 2390 c0 -5 7 -10 15 -10 8 0 15 5 15 10 0 6 -7 10 -15 10 -8 0
-15 -4 -15 -10z"/>
<path d="M8802 2120 c-66 -40 -91 -154 -39 -181 l21 -12 -22 -17 c-12 -10 -22
-22 -22 -27 0 -4 28 -9 63 -11 52 -3 68 1 88 17 l24 20 -31 -11 c-35 -13 -107
-3 -102 14 2 6 25 17 50 25 35 10 52 22 68 48 67 109 4 197 -98 135z m90 -7
c10 -9 18 -25 18 -35 0 -23 -33 -90 -55 -112 -21 -21 -81 -21 -89 0 -17 43 -3
89 42 137 29 31 57 34 84 10z"/>
<path d="M13440 2058 c0 -20 1 -20 20 -3 10 9 26 15 34 12 12 -5 10 -19 -10
-88 -13 -46 -29 -86 -35 -90 -6 -3 0 -8 14 -11 23 -4 25 -1 30 41 9 70 32 144
47 149 7 3 21 -6 30 -18 l17 -23 5 27 5 26 -78 0 c-74 0 -79 -1 -79 -22z"/>
<path d="M7317 561 c6 -25 -33 -162 -49 -173 -8 -5 -2 -8 18 -8 28 0 31 3 27
24 -3 14 2 39 11 57 9 18 16 40 16 50 0 33 12 49 37 49 21 0 24 -4 21 -32 -2
-23 -9 -34 -24 -38 -20 -5 -20 -7 -6 -57 10 -38 19 -53 32 -53 17 0 17 2 -1
37 -25 49 -24 58 6 71 19 9 25 19 25 41 0 36 -23 51 -78 51 -34 0 -39 -3 -35
-19z"/>
<path d="M14039 518 c-30 -24 -29 -54 3 -85 42 -40 51 -59 38 -84 -15 -27 -61
-22 -75 9 -13 29 -25 28 -25 -2 0 -42 89 -51 116 -11 19 30 12 54 -27 93 -37
36 -36 66 3 70 18 2 31 -4 41 -18 14 -21 15 -21 19 5 3 16 1 25 -7 25 -7 0
-25 3 -41 6 -17 3 -36 0 -45 -8z"/>
</g>
</svg>
