<?xml version="1.0" standalone="no"?>
<!DOCTYPE svg PUBLIC "-//W3C//DTD SVG 20010904//EN"
 "http://www.w3.org/TR/2001/REC-SVG-20010904/DTD/svg10.dtd">
<svg version="1.0" xmlns="http://www.w3.org/2000/svg"
 width="1476.000000pt" height="661.000000pt" viewBox="0 0 1476.000000 661.000000"
 preserveAspectRatio="xMidYMid meet">
<metadata>
Created by potrace 1.16, written by Peter Selinger 2001-2019
</metadata>
<g transform="translate(0.000000,661.000000) scale(0.100000,-0.100000)"
fill="#000000" stroke="none">
<path d="M9494 6387 c-3 -18 -15 -49 -25 -69 -23 -45 -24 -54 -4 -38 13 11 15
2 15 -69 0 -47 4 -81 10 -81 6 0 10 46 10 118 0 88 4 123 15 139 13 18 13 22
1 26 -10 4 -17 -4 -22 -26z"/>
<path d="M9610 6401 c0 -18 -6 -21 -45 -21 -25 0 -45 -4 -45 -10 0 -5 20 -10
45 -10 35 0 45 -4 45 -16 0 -13 -7 -15 -35 -11 l-35 6 0 -45 c0 -42 1 -44 29
-44 34 0 49 -16 31 -33 -9 -9 -15 -7 -26 7 -7 11 -17 16 -21 12 -5 -4 0 -13
10 -20 25 -19 21 -33 -13 -51 -16 -9 -30 -20 -30 -25 0 -13 30 0 54 22 24 22
24 22 81 -2 49 -21 75 -25 75 -12 0 4 -27 15 -60 26 -54 16 -60 21 -54 40 10
33 22 41 59 37 35 -3 35 -2 35 38 l0 41 -40 0 c-29 0 -40 4 -40 15 0 11 12 15
51 15 36 0 49 4 46 13 -2 7 -21 12 -48 12 -31 0 -44 4 -44 14 0 8 -6 16 -12
19 -8 2 -13 -5 -13 -17z m0 -106 c0 -20 -5 -25 -23 -25 -30 0 -36 6 -30 31 3
12 14 19 29 19 19 0 24 -5 24 -25z m80 0 c0 -21 -5 -25 -30 -25 -25 0 -30 4
-30 25 0 21 5 25 30 25 25 0 30 -4 30 -25z"/>
<path d="M12148 6413 c-47 -2 -78 -8 -78 -15 0 -6 10 -8 25 -4 22 6 25 3 25
-21 0 -59 -28 -145 -59 -184 -33 -41 -29 -55 5 -16 39 45 54 72 54 99 0 15 4
29 9 33 12 7 54 -84 47 -101 -2 -6 -25 -20 -50 -29 -25 -10 -46 -22 -46 -26 0
-14 8 -11 70 22 l58 31 44 -26 c25 -14 48 -22 56 -17 8 5 -5 15 -38 29 l-50
22 35 54 c31 49 35 66 14 66 -4 0 -9 -10 -12 -22 -4 -13 -17 -38 -31 -57 l-25
-33 -20 33 c-30 49 -27 59 18 59 22 0 43 5 46 10 3 6 1 10 -6 10 -8 0 -9 13
-5 45 4 25 4 44 -1 43 -4 -1 -43 -4 -85 -5z m66 -40 c-3 -16 -7 -33 -9 -39 -2
-6 -18 -10 -37 -9 -31 1 -33 4 -36 38 l-3 37 46 0 c44 0 45 -1 39 -27z"/>
<path d="M8200 6284 l0 -126 -60 4 c-33 2 -60 1 -60 -4 0 -4 63 -8 140 -8 81
0 140 4 140 9 0 6 -28 7 -69 4 l-68 -6 -7 41 c-3 22 -4 46 -1 54 3 7 6 46 8
86 2 53 -1 72 -10 72 -10 0 -13 -31 -13 -126z"/>
<path d="M8570 6385 c-5 -14 -13 -37 -16 -50 -8 -32 -24 -32 -24 0 0 22 -3 25
-25 19 -27 -7 -35 12 -13 34 9 9 9 12 -3 12 -8 0 -19 -10 -24 -22 -6 -13 -16
-22 -23 -20 -9 1 -12 -25 -12 -97 l0 -100 29 9 c15 4 35 4 42 -1 26 -16 29 -9
29 56 0 36 4 65 10 65 5 0 16 14 25 30 14 27 21 30 61 30 l46 0 -5 -84 c-6
-96 -10 -108 -40 -105 -35 2 -43 -1 -27 -11 31 -20 58 -11 69 23 11 35 27 179
20 187 -2 2 -26 5 -54 5 -46 0 -50 2 -47 23 4 30 -6 28 -18 -3z m-60 -74 c0
-22 -5 -30 -24 -33 -37 -7 -44 3 -37 55 1 4 15 7 31 7 26 0 30 -3 30 -29z m0
-87 c0 -34 -1 -35 -32 -32 -22 2 -32 9 -34 23 -6 33 4 45 36 45 28 0 30 -3 30
-36z"/>
<path d="M9300 6334 l0 -76 -27 8 c-16 4 -40 7 -55 6 -19 -1 -28 4 -28 13 0 9
10 15 25 15 14 0 25 6 26 13 1 6 2 29 3 50 l3 37 -64 0 -63 0 0 -49 c0 -44 3
-50 23 -53 27 -4 25 -23 -3 -24 -34 -2 -36 -6 -6 -13 42 -9 46 -31 6 -31 -18
0 -29 -4 -25 -10 4 -6 35 -9 76 -6 l69 4 0 -39 c0 -22 5 -39 10 -39 6 0 10 5
10 11 0 8 16 10 50 6 l50 -6 0 57 c0 56 -1 58 -27 57 -24 0 -28 4 -31 33 -3
30 -1 32 27 32 17 0 31 5 31 10 0 6 -12 9 -27 8 -26 -3 -28 0 -27 30 1 21 -3
32 -12 32 -11 0 -14 -18 -14 -76z m-132 13 c3 -32 0 -37 -17 -37 -15 0 -21 6
-21 21 0 18 2 19 15 9 12 -10 15 -10 15 4 0 9 -4 16 -10 16 -5 0 -10 7 -10 16
0 32 25 6 28 -29z m50 25 c-10 -2 -18 -7 -18 -12 0 -5 7 -7 16 -3 12 4 15 0
12 -18 -1 -13 -10 -25 -19 -27 -12 -2 -16 6 -16 30 0 34 13 51 32 40 6 -4 3
-8 -7 -10z m42 -127 c0 -10 -11 -15 -35 -15 -24 0 -35 5 -35 15 0 10 11 15 35
15 24 0 35 -5 35 -15z m95 -35 c0 -34 -1 -35 -42 -38 -41 -3 -42 -3 -41 30 1
46 5 50 46 46 35 -3 37 -5 37 -38z"/>
<path d="M9826 6374 c-16 -19 -27 -37 -24 -39 6 -6 68 55 68 66 0 17 -15 7
-44 -27z"/>
<path d="M9912 6360 l-1 -50 65 0 64 0 0 50 0 50 -63 0 -64 0 -1 -50z m106 18
c-7 -20 -74 -22 -81 -4 -5 13 2 16 39 16 32 0 44 -4 42 -12z m-5 -44 c-7 -18
-74 -16 -81 4 -2 8 10 12 42 12 37 0 44 -3 39 -16z"/>
<path d="M12710 6392 c-55 -38 -77 -86 -65 -141 8 -36 62 -65 104 -56 28 6 74
45 54 45 -6 0 -16 -7 -23 -15 -17 -20 -75 -19 -95 2 -23 22 -14 92 17 133 18
25 29 30 65 30 40 0 43 -2 43 -27 0 -22 2 -25 10 -13 5 8 10 24 10 36 0 18 -7
21 -47 22 -31 1 -57 -5 -73 -16z"/>
<path d="M12894 6373 c0 -44 -34 -163 -46 -163 -4 0 -8 -3 -8 -7 0 -5 33 -7
74 -5 67 3 75 6 85 28 13 29 2 31 -22 4 -11 -13 -29 -20 -53 -20 -36 0 -36 1
-30 31 3 17 6 38 6 45 0 22 50 18 51 -3 0 -10 6 -2 13 17 16 43 12 49 -14 25
-26 -24 -34 -15 -26 30 6 32 10 35 41 35 22 0 38 -6 44 -17 9 -15 10 -14 11
10 0 27 -1 27 -63 27 l-62 0 -1 -37z"/>
<path d="M4600 6390 c0 -5 5 -10 10 -10 6 0 10 -7 10 -15 0 -12 -14 -15 -65
-15 -37 0 -65 -4 -65 -10 0 -5 25 -10 56 -10 l57 0 -7 -52 c-8 -57 -45 -115
-84 -133 -12 -5 -22 -13 -22 -17 0 -37 96 53 112 104 11 39 12 39 57 36 l46
-3 -4 -50 c-4 -60 -13 -74 -46 -67 -33 6 -32 -6 1 -18 35 -14 51 0 59 53 3 23
9 57 12 74 l5 33 -53 -3 c-49 -2 -54 0 -57 21 -3 21 0 22 67 22 50 0 71 4 71
13 0 8 -16 11 -58 9 -54 -3 -59 -2 -70 22 -11 26 -32 36 -32 16z"/>
<path d="M4960 6391 c0 -7 -24 -11 -62 -12 -35 -1 -55 -3 -45 -6 26 -7 21 -89
-5 -85 -10 2 -18 -2 -18 -8 0 -5 9 -10 20 -10 16 0 20 -7 20 -32 0 -18 -6 -44
-13 -58 -21 -41 -27 -60 -18 -60 12 0 51 94 51 124 0 14 5 26 11 26 8 0 8 4 0
14 -19 22 -10 80 12 84 17 3 19 -2 17 -45 -5 -97 0 -203 10 -203 5 0 10 35 12
78 3 67 5 77 21 74 9 -2 17 2 17 8 0 5 -9 10 -20 10 -30 0 -29 67 1 78 19 7
19 9 5 21 -11 9 -16 10 -16 2z"/>
<path d="M5778 6388 c17 -17 15 -28 -7 -28 -11 0 -23 -4 -26 -10 -4 -6 17 -10
54 -10 34 0 61 4 61 10 0 6 -10 10 -23 10 -12 0 -28 9 -35 20 -7 11 -18 20
-24 20 -9 0 -9 -3 0 -12z"/>
<path d="M5889 6379 c-1 -38 -7 -61 -18 -72 -17 -17 -13 -31 4 -17 8 7 20 30
27 51 14 49 48 56 48 10 0 -47 36 -73 70 -51 12 8 9 10 -11 10 -30 0 -39 15
-35 54 3 22 -1 26 -25 26 -15 0 -34 3 -43 6 -12 5 -16 0 -17 -17z"/>
<path d="M6865 6380 c5 -16 2 -20 -14 -20 -12 0 -21 -5 -21 -11 0 -7 12 -9 30
-7 17 3 33 1 36 -4 8 -13 -16 -77 -48 -129 -15 -25 -28 -49 -28 -53 0 -13 27
19 44 52 l17 32 89 0 c99 0 103 -4 80 -65 -9 -22 -15 -26 -35 -21 -14 4 -25 2
-25 -3 0 -11 47 -24 60 -16 10 6 30 70 30 98 0 11 -8 17 -21 17 -18 0 -20 5
-16 26 4 20 0 28 -15 32 -15 3 -19 11 -15 29 4 20 1 24 -17 22 -11 0 -34 -1
-49 0 -24 1 -27 4 -22 22 5 16 3 20 -6 17 -8 -3 -13 -12 -11 -21 5 -27 -18
-29 -28 -3 -11 30 -24 35 -15 6z m123 -57 c-2 -12 -13 -17 -38 -17 -25 0 -36
5 -38 17 -3 14 5 17 38 17 33 0 41 -3 38 -17z m32 -48 c0 -24 -2 -25 -65 -25
-36 0 -65 3 -65 8 1 21 21 31 70 35 30 2 56 4 58 5 1 1 2 -9 2 -23z"/>
<path d="M10495 6376 c7 -28 -28 -165 -46 -178 -9 -6 8 -8 54 -6 46 3 71 9 78
19 12 20 11 63 -2 76 -8 8 -5 14 10 22 24 13 28 53 8 69 -7 6 -34 13 -60 15
-44 4 -46 3 -42 -17z m86 -6 c5 -36 1 -46 -23 -59 -34 -19 -42 -11 -34 34 6
29 11 35 31 35 14 0 26 -4 26 -10z m-23 -92 c7 -7 12 -18 12 -25 0 -20 -38
-53 -61 -53 -19 0 -21 4 -14 37 4 21 9 41 11 45 8 12 39 9 52 -4z"/>
<path d="M10679 6391 c12 -7 10 -22 -9 -92 -12 -46 -27 -90 -32 -96 -8 -10 5
-13 61 -13 68 0 71 1 86 30 9 17 11 30 6 30 -5 0 -12 -9 -16 -19 -6 -20 -33
-31 -79 -31 -25 0 -27 3 -21 23 3 12 9 32 12 45 6 26 38 29 52 5 9 -16 10 -15
11 8 0 14 5 30 12 37 17 17 -2 15 -21 -2 -25 -22 -42 -5 -35 32 6 29 10 32 42
32 21 0 40 -7 48 -17 12 -16 13 -15 14 10 l0 27 -72 0 c-46 0 -68 -4 -59 -9z"/>
<path d="M11192 6393 c-27 -11 -34 -42 -16 -73 17 -27 17 -30 1 -48 -35 -39
-15 -82 38 -82 17 0 36 5 43 12 17 17 15 58 -5 80 -15 17 -15 19 0 36 15 17
16 49 2 72 -6 10 -41 12 -63 3z m46 -45 c-4 -40 -20 -46 -37 -14 -16 28 -8 46
20 46 17 0 20 -6 17 -32z m-3 -92 c15 -22 12 -56 -5 -56 -25 0 -40 15 -40 39
0 47 21 55 45 17z"/>
<path d="M13335 6390 c-11 -5 -14 -9 -7 -9 11 -1 13 -22 10 -96 -3 -92 -2 -95
19 -95 12 0 25 5 28 10 3 6 1 10 -4 10 -7 0 -11 35 -11 95 0 52 -3 95 -7 94
-5 0 -17 -4 -28 -9z"/>
<path d="M13475 6370 c-21 -40 -20 -44 18 -61 58 -25 46 -107 -15 -95 -32 6
-39 -9 -8 -19 10 -3 33 1 50 10 29 15 36 32 32 78 -2 21 -40 56 -60 57 -27 0
-5 25 25 28 46 5 52 32 8 32 -28 0 -37 -5 -50 -30z"/>
<path d="M1570 6360 c0 -30 -1 -30 -52 -30 l-53 0 2 -53 c0 -28 1 -56 2 -62 1
-6 22 -9 50 -7 l50 4 4 -54 3 -53 2 53 2 52 53 0 c30 0 56 2 58 4 2 2 2 30 1
61 l-4 56 -41 -1 c-69 -3 -69 -3 -62 30 4 19 3 30 -4 30 -6 0 -11 -13 -11 -30z
m0 -90 c0 -40 0 -40 -39 -40 -38 0 -39 1 -43 40 l-4 40 43 0 43 0 0 -40z m105
0 l0 -40 -47 0 -48 0 0 40 0 40 48 0 47 0 0 -40z"/>
<path d="M3490 6382 c0 -4 5 -13 12 -20 9 -9 6 -12 -15 -12 -15 0 -27 -4 -27
-10 0 -5 16 -10 35 -10 19 0 35 -4 35 -9 0 -22 -32 -96 -60 -136 -17 -25 -26
-45 -21 -45 6 0 22 18 36 40 l25 40 80 0 c44 0 83 1 87 3 11 3 16 -31 9 -59
-5 -18 -13 -24 -34 -24 l-27 -1 25 -13 c22 -13 26 -12 38 5 7 10 16 41 19 68
5 44 4 49 -13 48 -15 -2 -18 4 -16 26 2 22 -1 27 -18 27 -17 0 -19 4 -14 25 6
24 5 25 -45 25 -49 0 -51 1 -41 20 9 16 8 20 -5 20 -8 0 -15 -9 -15 -19 0 -30
-17 -34 -24 -6 -6 23 -26 36 -26 17z m135 -67 c0 -5 -19 -11 -42 -13 -40 -3
-53 5 -36 22 11 10 78 3 78 -9z m28 -41 c3 -3 3 -12 0 -20 -7 -19 -123 -20
-123 -1 0 8 3 17 7 20 8 9 107 9 116 1z"/>
<path d="M4203 6334 c-1 -30 -1 -58 -2 -64 -1 -5 -14 -10 -31 -10 -16 0 -30
-4 -30 -10 0 -5 11 -10 25 -10 24 0 25 -3 25 -61 0 -52 2 -60 16 -55 9 3 27 9
40 12 35 9 30 27 -6 19 -30 -7 -30 -6 -30 38 0 24 2 46 5 49 12 11 52 -5 60
-25 13 -28 91 -87 116 -87 33 0 21 16 -21 29 -46 14 -51 27 -15 43 15 7 24 17
21 25 -3 7 -1 14 4 14 59 8 43 13 -55 18 -56 4 -100 10 -100 16 0 6 34 13 75
16 85 6 83 11 -5 13 -83 1 -87 20 -5 24 36 2 69 7 74 12 5 5 -24 6 -69 3 -64
-5 -77 -4 -73 8 3 10 26 15 81 17 42 2 77 6 77 11 0 4 -40 8 -88 8 l-88 1 -1
-54z m157 -99 c0 -16 -45 -39 -59 -31 -19 12 -12 34 12 38 39 6 47 5 47 -7z"/>
<path d="M5045 6367 c-11 -12 -31 -30 -45 -40 l-25 -18 25 7 c30 7 102 74 80
74 -8 0 -24 -10 -35 -23z"/>
<path d="M1110 6245 l0 -130 125 0 125 0 0 117 c0 64 2 123 6 131 4 12 -16 14
-125 13 l-131 -1 0 -130z m70 85 c0 -24 4 -30 21 -30 15 0 19 -5 15 -15 -4
-12 5 -15 49 -15 30 0 55 4 55 9 0 5 -18 7 -40 4 -26 -4 -40 -2 -40 6 0 6 11
11 24 11 19 0 25 6 28 28 2 19 9 28 26 30 22 3 22 2 22 -107 0 -61 -3 -112 -7
-112 -39 -7 -163 -6 -163 2 0 5 32 9 70 9 l70 0 0 50 c0 34 -4 50 -13 50 -9 0
-11 -12 -9 -40 l4 -40 -43 2 c-37 1 -39 2 -11 5 26 4 32 9 32 29 0 29 -16 32
-23 4 -5 -21 -40 -29 -35 -7 2 6 -1 12 -7 12 -5 0 -8 -11 -6 -24 2 -16 -2 -22
-11 -19 -7 3 -14 18 -16 35 -3 26 1 32 20 36 20 4 20 4 -4 6 -28 1 -28 0 -28
-60 0 -44 -3 -60 -12 -57 -9 3 -14 35 -16 103 -3 113 0 125 28 125 16 0 20 -7
20 -30z m90 20 c0 -5 -17 -9 -37 -9 l-38 2 35 7 c19 4 36 8 38 9 1 0 2 -3 2
-9z m0 -30 c0 -5 -16 -10 -35 -10 -19 0 -35 5 -35 10 0 6 16 10 35 10 19 0 35
-4 35 -10z"/>
<path d="M1153 6273 c9 -2 25 -2 35 0 9 3 1 5 -18 5 -19 0 -27 -2 -17 -5z"/>
<path d="M1248 6243 c7 -3 16 -2 19 1 4 3 -2 6 -13 5 -11 0 -14 -3 -6 -6z"/>
<path d="M6407 6368 c6 -7 9 -20 8 -28 -7 -41 -41 -137 -54 -153 -14 -17 -11
-18 64 -15 73 3 80 5 92 28 16 32 10 37 -16 11 -14 -14 -34 -21 -60 -21 l-39
0 10 40 c9 33 15 40 34 40 16 0 24 -6 25 -17 0 -15 2 -15 9 2 5 11 9 28 9 37
1 15 -2 15 -26 3 -15 -8 -29 -13 -31 -11 -2 2 0 20 3 40 7 34 9 36 46 36 28 0
39 -4 39 -15 0 -8 5 -15 10 -15 6 0 10 11 10 25 0 24 -2 25 -71 25 -56 0 -69
-3 -62 -12z"/>
<path d="M7529 6345 c-13 -19 -27 -35 -30 -35 -4 0 -22 -24 -40 -52 -18 -29
-39 -57 -46 -61 -19 -12 -16 -27 5 -27 12 0 21 11 27 33 8 26 16 33 43 35 27
3 32 0 32 -18 0 -11 -7 -23 -15 -26 -27 -11 -16 -24 21 -24 31 0 35 3 29 18
-9 19 -9 40 0 130 4 34 5 62 2 62 -2 0 -15 -16 -28 -35z m-9 -74 c-6 -12 -17
-21 -25 -21 -20 0 -19 5 8 41 16 22 23 27 25 15 2 -8 -2 -24 -8 -35z"/>
<path d="M7650 6365 c9 -11 8 -27 -9 -75 -12 -33 -21 -67 -21 -75 0 -9 -7 -18
-15 -21 -31 -12 -13 -24 35 -24 67 0 115 21 140 62 26 42 25 88 -1 122 -18 23
-28 26 -81 26 -52 0 -59 -2 -48 -15z m118 -38 c10 -21 11 -35 2 -61 -14 -44
-36 -63 -82 -71 -45 -9 -45 -9 -21 93 l17 73 35 -3 c28 -2 39 -9 49 -31z"/>
<path d="M2814 6350 c-62 -31 -94 -118 -60 -162 30 -41 108 -44 142 -7 20 22
7 25 -20 4 -25 -19 -56 -19 -84 1 -61 42 21 190 92 165 12 -5 22 -18 24 -30 5
-31 19 -26 24 9 3 19 0 30 -7 30 -7 0 -25 2 -41 5 -19 4 -44 -2 -70 -15z"/>
<path d="M231 6333 c-24 -29 -21 -44 4 -19 19 19 29 20 57 5 28 -15 17 -52
-33 -111 -21 -26 -39 -49 -39 -53 0 -3 26 -5 57 -3 47 2 58 7 61 21 3 16 1 17
-16 8 -22 -12 -72 -15 -72 -5 0 3 11 15 25 26 55 43 71 116 33 142 -32 23 -54
20 -77 -11z"/>
<path d="M420 6348 c-15 -6 -20 -12 -12 -15 8 -3 12 -31 12 -88 0 -57 -4 -85
-12 -88 -7 -3 4 -6 26 -6 30 -1 36 2 28 12 -6 7 -13 54 -14 104 l-3 90 -25 -9z"/>
<path d="M2490 6351 c0 -4 -12 -21 -26 -37 -15 -15 -42 -52 -60 -81 -19 -28
-42 -56 -51 -62 -17 -9 -17 -10 -1 -16 19 -7 41 2 34 14 -3 4 2 17 10 29 20
29 74 31 74 2 0 -10 -8 -24 -17 -29 -15 -8 -10 -10 21 -11 32 0 36 2 27 14 -7
8 -9 31 -7 52 14 108 15 134 6 134 -6 0 -10 -4 -10 -9z m-14 -67 c-3 -9 -6
-22 -6 -30 0 -8 -9 -14 -20 -14 -24 0 -25 5 -2 35 19 28 37 33 28 9z"/>
<path d="M2605 6350 c9 -14 -33 -150 -53 -172 -14 -17 -11 -18 55 -18 64 0 72
2 87 25 19 29 21 62 4 68 -10 3 -8 9 5 24 21 24 22 69 1 77 -27 10 -106 7 -99
-4z m83 -32 c2 -19 -3 -30 -18 -38 -33 -18 -52 -6 -44 27 10 40 13 44 37 41
15 -2 23 -11 25 -30z m-20 -70 c30 -30 -5 -78 -56 -78 -19 0 -23 4 -17 18 3 9
9 29 12 45 6 29 38 38 61 15z"/>
<path d="M2995 6350 c10 -17 -37 -179 -54 -183 -9 -3 13 -5 47 -6 104 -2 162
42 162 121 0 56 -29 78 -101 78 -36 0 -58 -4 -54 -10z m113 -25 c40 -51 -6
-137 -80 -150 -46 -9 -47 -5 -16 100 20 70 24 75 49 75 17 0 35 -9 47 -25z"/>
<path d="M9860 6347 c0 -8 -16 -31 -37 -52 -29 -30 -32 -36 -15 -31 21 7 22 4
22 -58 0 -94 17 -82 22 17 3 56 10 91 22 110 16 24 17 27 2 27 -9 0 -16 -6
-16 -13z"/>
<path d="M11420 6330 c-27 -6 -50 -42 -50 -77 0 -26 33 -63 56 -63 24 0 54 19
54 36 0 13 -3 12 -24 -1 -22 -14 -25 -14 -40 0 -21 21 -21 84 -1 92 9 3 25 -3
35 -12 19 -17 20 -17 20 2 0 25 -16 32 -50 23z"/>
<path d="M13665 6315 c-34 -34 -33 -83 2 -109 24 -17 29 -18 52 -5 14 8 27 23
29 33 3 16 2 16 -17 -3 -35 -35 -68 -2 -59 60 3 26 36 38 48 19 4 -7 13 -9 20
-5 10 6 9 11 -5 22 -27 19 -43 16 -70 -12z"/>
<path d="M13845 6330 c-11 -4 -31 -6 -45 -3 -25 4 -25 4 -24 -63 2 -54 5 -68
18 -70 13 -2 16 8 16 56 0 44 4 59 16 64 29 11 36 -5 32 -66 -4 -49 -2 -58 11
-56 12 2 17 18 19 60 2 47 7 58 23 63 11 4 23 5 25 2 9 -8 11 -81 3 -102 -5
-16 -3 -21 11 -22 16 -1 18 6 16 62 -2 77 -14 94 -52 76 -16 -7 -31 -8 -38 -3
-6 5 -20 6 -31 2z"/>
<path d="M11508 6316 c14 -17 14 -96 1 -112 -9 -11 -7 -14 13 -14 22 0 23 3
23 57 0 48 3 58 19 61 10 2 22 -2 27 -10 13 -20 11 -82 -3 -96 -9 -9 -6 -12
13 -12 23 0 24 3 24 58 0 55 1 57 28 60 26 3 27 2 27 -45 0 -27 -5 -54 -12
-61 -9 -9 -3 -12 28 -11 21 0 33 3 27 6 -8 3 -13 25 -13 58 0 30 -5 57 -12 62
-19 15 -201 14 -190 -1z"/>
<path d="M5051 6289 c-13 -17 -35 -35 -49 -40 -14 -5 -23 -12 -20 -15 13 -12
74 27 107 69 11 14 11 17 0 16 -8 0 -25 -14 -38 -30z"/>
<path d="M8273 6313 c-18 -2 -33 -9 -33 -14 0 -15 83 -6 88 9 2 6 -2 11 -10
10 -7 0 -28 -3 -45 -5z"/>
<path d="M13100 6310 c0 -6 30 -10 70 -10 40 0 70 4 70 10 0 6 -30 10 -70 10
-40 0 -70 -4 -70 -10z"/>
<path d="M14290 6290 c0 -28 3 -31 28 -28 21 2 27 8 27 28 0 20 -6 26 -27 28
-25 3 -28 0 -28 -28z m45 0 c0 -22 -29 -18 -33 3 -3 14 1 18 15 15 10 -2 18
-10 18 -18z"/>
<path d="M5773 6303 c15 -2 37 -2 50 0 12 2 0 4 -28 4 -27 0 -38 -2 -22 -4z"/>
<path d="M10910 6300 c0 -6 32 -10 75 -10 43 0 75 4 75 10 0 6 -32 10 -75 10
-43 0 -75 -4 -75 -10z"/>
<path d="M5284 6275 c-8 -31 6 -48 32 -43 29 5 26 62 -3 66 -17 3 -24 -3 -29
-23z m46 -9 c0 -8 -4 -17 -8 -20 -13 -8 -35 11 -28 23 10 16 36 14 36 -3z"/>
<path d="M8580 6296 c0 -4 11 -24 25 -44 20 -29 25 -33 25 -16 0 11 -11 31
-25 44 -14 13 -25 20 -25 16z"/>
<path d="M8880 6290 c-161 -7 -135 -22 30 -18 88 2 125 7 128 16 2 7 -4 11
-15 10 -10 -1 -74 -5 -143 -8z"/>
<path d="M1909 6283 c-5 -31 -3 -73 4 -73 12 0 30 48 24 64 -6 16 -26 22 -28
9z"/>
<path d="M9875 6280 c3 -5 35 -10 71 -10 71 0 90 -19 22 -21 l-43 -2 40 -6
c36 -5 40 -9 43 -38 3 -30 1 -33 -25 -33 -27 -1 -27 -1 -9 -15 34 -26 46 -19
46 29 0 36 4 46 20 51 11 3 24 3 30 0 5 -3 10 -1 10 5 0 7 -12 10 -27 8 -15
-2 -28 2 -30 10 -3 7 5 12 21 12 13 0 28 5 31 10 4 6 -32 10 -100 10 -68 0
-104 -4 -100 -10z"/>
<path d="M3790 6262 c0 -10 31 -12 138 -10 179 4 174 22 -5 23 -102 0 -133 -3
-133 -13z"/>
<path d="M5780 6270 c-26 -5 -31 -8 -18 -14 22 -10 83 -3 83 9 0 13 -21 14
-65 5z"/>
<path d="M5870 6261 c0 -4 11 -25 25 -45 14 -20 25 -39 25 -41 0 -3 -18 -14
-41 -25 -23 -12 -39 -24 -36 -26 3 -3 24 4 48 16 40 21 44 21 76 6 38 -18 63
-21 63 -6 0 5 -18 15 -40 21 -22 7 -40 14 -40 16 0 2 11 21 25 43 14 22 25 42
25 45 0 3 -29 5 -65 5 -36 0 -65 -4 -65 -9z m100 -13 c0 -7 -9 -24 -19 -37
l-18 -23 -22 28 -23 29 24 6 c38 11 58 10 58 -3z"/>
<path d="M13100 6250 c0 -6 30 -10 71 -10 44 0 68 4 64 10 -3 6 -35 10 -71 10
-36 0 -64 -4 -64 -10z"/>
<path d="M5075 6224 c-24 -37 -50 -61 -85 -79 -39 -20 -34 -31 6 -13 33 14
114 90 114 107 0 19 -17 12 -35 -15z"/>
<path d="M9875 6240 c3 -5 11 -10 16 -10 6 0 21 -12 34 -27 13 -16 25 -23 25
-17 0 6 -7 17 -15 24 -8 7 -15 19 -15 26 0 8 -11 14 -26 14 -14 0 -23 -4 -19
-10z"/>
<path d="M10910 6240 c0 -6 32 -10 75 -10 43 0 75 4 75 10 0 6 -32 10 -75 10
-43 0 -75 -4 -75 -10z"/>
<path d="M5750 6184 c0 -22 2 -43 4 -45 3 -3 23 -3 45 -1 41 4 41 4 41 46 l0
41 -45 0 -45 0 0 -41z m70 1 c0 -18 -5 -25 -19 -25 -11 0 -23 5 -26 10 -11 18
3 40 25 40 15 0 20 -7 20 -25z"/>
<path d="M7012 6208 c5 -15 28 -23 28 -10 0 5 -7 13 -16 16 -10 4 -14 1 -12
-6z"/>
<path d="M3652 6190 c14 -22 24 -19 15 5 -4 8 -11 15 -17 15 -6 0 -6 -7 2 -20z"/>
<path d="M6872 6185 c-17 -36 -15 -53 2 -35 18 19 30 60 18 60 -5 0 -14 -11
-20 -25z"/>
<path d="M6920 6186 c0 -14 5 -26 10 -26 6 0 10 9 10 19 0 11 -4 23 -10 26 -6
4 -10 -5 -10 -19z"/>
<path d="M6967 6190 c3 -11 9 -20 14 -20 11 0 11 3 3 24 -9 23 -23 20 -17 -4z"/>
<path d="M3515 6183 c-4 -13 -11 -23 -16 -23 -5 0 -9 -4 -9 -10 0 -5 4 -10 10
-10 13 0 32 39 26 53 -2 7 -8 2 -11 -10z"/>
<path d="M3551 6188 c0 -7 4 -22 8 -32 10 -25 22 -6 14 22 -6 23 -23 31 -22
10z"/>
<path d="M3600 6181 c0 -11 5 -23 10 -26 6 -3 10 3 10 14 0 11 -4 23 -10 26
-5 3 -10 -3 -10 -14z"/>
<path d="M9116 6175 c-9 -33 -1 -44 12 -18 6 11 7 25 3 32 -6 9 -10 5 -15 -14z"/>
<path d="M9162 6175 c0 -16 2 -22 5 -12 2 9 2 23 0 30 -3 6 -5 -1 -5 -18z"/>
<path d="M9190 6195 c0 -5 5 -17 10 -25 5 -8 10 -10 10 -5 0 6 -5 17 -10 25
-5 8 -10 11 -10 5z"/>
<path d="M9220 6193 c0 -4 5 -15 10 -23 8 -13 10 -13 10 2 0 9 -4 20 -10 23
-5 3 -10 3 -10 -2z"/>
<path d="M532 6163 c5 -25 28 -28 28 -4 0 12 -6 21 -16 21 -9 0 -14 -7 -12
-17z"/>
<path d="M6244 5930 c-4 -16 -13 -30 -20 -30 -11 0 -14 -22 -14 -102 1 -77 3
-98 11 -85 7 11 18 16 30 12 10 -3 28 -8 39 -11 19 -5 20 -1 20 60 0 36 4 66
8 66 5 0 15 11 22 25 11 21 20 25 62 25 l49 0 -7 -77 c-8 -98 -15 -112 -51
-106 l-28 4 25 -15 c14 -8 29 -15 33 -16 17 0 37 71 41 149 l6 81 -56 0 c-55
0 -56 1 -50 25 4 14 3 25 -2 25 -4 0 -14 -22 -21 -50 -15 -58 -31 -74 -31 -31
0 29 -2 30 -30 25 -32 -7 -40 6 -15 26 8 7 12 16 9 21 -11 18 -25 8 -30 -21z
m44 -72 c3 -26 1 -28 -32 -28 -31 0 -36 3 -36 24 0 45 63 48 68 4z m2 -83 c0
-33 -2 -35 -35 -35 -33 0 -35 2 -35 35 0 33 2 35 35 35 33 0 35 -2 35 -35z"/>
<path d="M6913 5947 c-18 -6 -33 -15 -33 -20 0 -5 7 -7 15 -3 10 4 15 -1 15
-14 0 -18 -10 -25 -32 -21 -5 0 -8 -3 -8 -9 0 -5 6 -10 14 -10 26 0 26 -16 1
-66 -13 -26 -22 -50 -18 -54 3 -3 8 0 10 6 2 6 10 20 18 30 13 17 14 13 15
-43 0 -38 4 -63 11 -63 7 0 9 26 7 75 -3 70 5 95 18 60 4 -8 10 -13 15 -10 14
9 -1 33 -24 39 -16 4 -19 8 -10 17 7 7 22 9 37 5 25 -6 26 -10 26 -72 0 -59 2
-65 18 -60 14 5 13 3 -3 -10 -11 -8 -27 -19 -35 -24 -8 -5 -12 -11 -9 -14 3
-3 27 8 53 24 25 17 57 30 69 30 15 0 18 -3 9 -9 -10 -6 -7 -12 12 -24 34 -23
57 -22 31 1 -16 14 -19 27 -17 75 l3 57 -62 0 c-34 0 -59 3 -55 8 8 7 13 9 46
11 11 0 20 8 20 16 0 10 10 15 30 15 17 0 30 4 30 10 0 5 -13 7 -30 4 -19 -4
-30 -2 -30 5 0 6 16 11 35 11 19 0 35 5 35 11 0 8 -12 10 -35 6 -26 -4 -35 -2
-35 9 0 19 -16 18 -24 -2 -4 -12 -15 -15 -36 -12 -17 3 -30 1 -30 -4 0 -4 16
-8 36 -8 23 0 33 -4 28 -11 -3 -6 -17 -9 -30 -6 -13 2 -24 0 -24 -4 0 -5 14
-9 30 -9 17 0 30 -4 30 -10 0 -14 -67 -13 -76 1 -3 6 -15 9 -25 6 -15 -4 -19
0 -19 20 0 16 7 27 20 30 22 6 28 24 8 22 -7 -1 -28 -7 -45 -12z m187 -142 c0
-23 -4 -25 -44 -25 -40 0 -43 2 -43 25 0 23 3 25 43 25 40 0 44 -2 44 -25z m0
-45 c0 -5 -20 -10 -45 -10 -25 0 -45 5 -45 10 0 6 20 10 45 10 25 0 45 -4 45
-10z"/>
<path d="M7048 5803 c6 -2 18 -2 25 0 6 3 1 5 -13 5 -14 0 -19 -2 -12 -5z"/>
<path d="M3860 5923 c0 -22 -4 -23 -66 -23 -44 0 -63 -3 -58 -11 4 -7 26 -8
64 -4 l57 7 6 -35 c3 -19 3 -62 0 -96 -5 -58 -7 -61 -32 -61 l-26 0 29 -15
c36 -19 46 -9 46 53 0 23 3 42 8 42 4 0 18 -12 32 -26 39 -42 69 -59 82 -46 8
8 0 15 -27 26 -58 25 -93 75 -52 76 16 1 61 39 54 46 -7 7 -67 -27 -67 -38 0
-4 -7 -8 -15 -8 -11 0 -15 11 -15 41 0 39 1 40 33 39 64 -4 97 0 97 11 0 7
-11 9 -30 6 -25 -5 -30 -3 -30 12 0 10 -7 21 -15 25 -17 6 -21 -9 -5 -19 20
-12 9 -25 -21 -25 -28 0 -31 3 -25 23 4 17 1 24 -9 24 -9 0 -15 -10 -15 -24z"/>
<path d="M4218 5942 l-78 -3 0 -64 0 -65 -37 -2 -38 -1 33 -4 34 -4 -5 -51
c-7 -75 -3 -81 45 -57 43 22 47 36 5 20 -32 -13 -37 -7 -37 46 l0 43 105 0
c58 0 105 4 105 9 0 4 -43 6 -95 3 -83 -4 -95 -3 -95 12 0 13 12 16 70 16 46
0 70 4 70 11 0 8 -22 10 -70 7 -55 -4 -70 -2 -70 8 0 10 17 14 65 14 36 0 65
4 65 9 0 5 -29 6 -65 3 -55 -4 -65 -2 -65 11 0 13 14 17 78 19 42 2 75 6 73
11 -6 12 -13 13 -93 9z"/>
<path d="M4536 5924 l7 -27 -62 6 c-48 5 -62 4 -58 -6 2 -7 23 -12 53 -12 l49
0 -2 -42 c-2 -56 -26 -103 -68 -133 -42 -31 -46 -46 -6 -25 36 18 66 56 83
101 8 24 18 34 33 34 11 0 30 3 43 6 21 6 22 3 22 -44 0 -69 -7 -82 -44 -83
-17 0 -24 -3 -16 -6 8 -3 18 -10 21 -16 4 -5 14 -5 26 2 21 11 33 55 33 124
l0 37 -55 0 c-48 0 -55 3 -55 19 0 18 25 34 46 30 5 -1 33 -1 62 0 36 1 51 5
46 12 -4 7 -26 9 -63 5 -51 -6 -57 -5 -66 16 -16 34 -37 36 -29 2z"/>
<path d="M4823 5942 c-35 -1 -63 -7 -63 -12 0 -6 7 -10 15 -10 11 0 15 -11 15
-40 0 -34 -3 -40 -21 -40 -11 0 -18 -4 -14 -10 3 -5 13 -6 22 -3 14 6 15 0 10
-45 -3 -29 -13 -62 -22 -74 -17 -26 -20 -42 -5 -33 20 12 50 85 50 120 0 28 4
35 20 35 18 0 20 -7 20 -80 0 -47 4 -80 10 -80 6 0 10 33 10 79 0 75 1 80 23
84 l22 4 -22 2 c-20 1 -23 7 -23 41 0 34 3 40 21 40 11 0 19 5 17 12 -5 14 -8
15 -85 10z m27 -62 c0 -32 -4 -40 -19 -40 -15 0 -19 8 -19 40 -1 33 3 40 19
40 16 0 19 -7 19 -40z"/>
<path d="M4955 5916 c-16 -18 -37 -35 -45 -38 -8 -3 -12 -8 -8 -12 7 -9 51 18
84 51 19 19 22 34 5 32 -3 0 -19 -15 -36 -33z"/>
<path d="M6534 5938 c-3 -4 22 -8 55 -8 62 0 72 -8 52 -39 -6 -9 -22 -12 -50
-9 l-41 4 0 -96 0 -95 120 0 120 0 0 95 0 96 -70 -4 -71 -4 12 26 c11 24 17
26 81 26 37 0 68 3 68 8 0 10 -270 10 -276 0z m81 -148 c0 -68 -2 -75 -20 -75
-18 0 -20 8 -23 64 -4 75 2 94 25 89 15 -3 18 -15 18 -78z m85 59 c0 -14 -7
-19 -28 -19 -16 0 -31 3 -35 6 -13 13 6 31 33 32 23 0 30 -4 30 -19z m68 -61
c-3 -67 -5 -73 -25 -76 -22 -3 -23 0 -23 72 0 75 0 76 25 76 26 0 26 -1 23
-72z m-70 10 c-3 -23 -51 -37 -63 -18 -12 20 2 35 34 37 28 2 32 -1 29 -19z
m0 -60 c-4 -29 -52 -38 -62 -13 -9 25 1 35 35 35 26 0 30 -3 27 -22z"/>
<path d="M1164 5925 c-4 -9 -19 -15 -41 -15 -20 0 -32 -4 -28 -10 3 -5 22 -10
41 -10 24 0 34 -5 34 -15 0 -8 5 -15 10 -15 6 0 10 6 10 14 0 8 7 16 15 20 8
3 15 10 15 17 0 6 -7 9 -15 5 -9 -3 -15 0 -15 9 0 20 -19 19 -26 0z"/>
<path d="M1280 5924 c0 -10 -6 -14 -15 -10 -8 3 -15 1 -15 -4 0 -6 5 -10 10
-10 6 0 10 -7 10 -15 0 -8 5 -15 10 -15 6 0 10 4 10 9 0 6 17 11 38 13 20 2
36 8 36 13 -1 6 -17 8 -34 7 -27 -3 -32 -1 -27 12 4 10 1 16 -8 16 -8 0 -15
-7 -15 -16z"/>
<path d="M5700 5922 c-76 -41 -103 -130 -55 -177 36 -37 120 -27 133 15 4 12
1 11 -15 -2 -37 -33 -88 -28 -108 12 -15 28 -14 34 3 73 22 50 41 67 82 73 23
4 32 1 36 -13 16 -49 16 -49 24 -28 14 33 11 54 -7 54 -10 -1 -27 2 -38 5 -11
4 -35 -1 -55 -12z"/>
<path d="M5371 5908 c-5 -13 -21 -34 -35 -47 -15 -14 -40 -46 -57 -73 -17 -26
-35 -48 -40 -48 -5 0 -9 -4 -9 -10 0 -5 9 -10 20 -10 13 0 20 7 20 18 0 24 31
52 58 52 29 0 33 -12 17 -43 -14 -27 -14 -27 23 -27 24 0 32 3 23 9 -10 7 -12
29 -6 105 7 95 3 118 -14 74z m-19 -100 c-6 -6 -18 -8 -28 -4 -15 6 -15 9 7
32 24 26 24 26 27 4 2 -12 -1 -27 -6 -32z"/>
<path d="M5480 5915 c9 -11 7 -30 -11 -92 -12 -43 -29 -84 -38 -92 -14 -11 -6
-13 51 -8 37 2 73 11 81 18 24 25 28 51 12 69 -14 15 -13 19 5 35 45 41 14 85
-62 85 -43 0 -49 -2 -38 -15z m88 -28 c5 -25 -16 -47 -44 -47 -21 0 -24 3 -18
28 4 15 9 31 11 35 9 15 48 2 51 -16z m-18 -76 c5 -11 10 -24 10 -30 0 -19
-32 -41 -61 -41 -27 0 -29 2 -23 28 15 63 52 84 74 43z"/>
<path d="M5868 5917 c8 -10 7 -28 -4 -68 -9 -29 -18 -64 -21 -77 -3 -13 -12
-26 -19 -29 -8 -3 -14 -10 -14 -15 0 -12 119 -3 152 12 58 27 77 121 33 165
-20 21 -34 25 -81 25 -45 0 -54 -3 -46 -13z m87 -7 c14 -5 30 -21 35 -34 11
-31 -3 -87 -30 -111 -20 -18 -100 -33 -100 -19 0 23 44 160 54 166 14 10 10
10 41 -2z"/>
<path d="M1699 5906 c15 -18 -24 -164 -49 -183 -12 -10 -6 -12 37 -13 92 0
131 33 102 86 -11 22 -10 26 9 40 49 34 10 84 -66 84 -37 0 -43 -2 -33 -14z
m86 -36 c0 -17 -8 -29 -28 -38 -37 -18 -42 -12 -27 33 9 29 16 35 33 33 16 -2
22 -10 22 -28z m-31 -66 c10 -4 16 -18 16 -35 0 -24 -5 -30 -32 -37 -43 -12
-50 -4 -36 41 11 37 21 43 52 31z"/>
<path d="M1910 5907 c-33 -17 -70 -74 -70 -108 0 -88 91 -129 147 -67 19 22
17 22 -30 -2 -25 -12 -32 -12 -55 1 -68 37 -14 186 64 177 23 -2 30 -9 32 -30
4 -31 22 -38 22 -9 0 11 3 26 6 35 5 13 -2 16 -42 16 -27 0 -60 -6 -74 -13z"/>
<path d="M2400 5909 c-11 -8 -12 -12 -2 -16 15 -6 17 -135 2 -164 -10 -17 -7
-19 27 -19 34 1 36 2 20 14 -16 12 -18 27 -16 102 2 88 -3 103 -31 83z"/>
<path d="M2523 5908 c-13 -17 -24 -48 -17 -48 3 0 12 7 21 16 20 20 79 15 76
-6 -1 -8 -13 -46 -27 -85 -15 -41 -22 -73 -17 -78 10 -10 75 177 68 196 -5 16
-92 20 -104 5z"/>
<path d="M4972 5846 c-13 -19 -34 -37 -48 -40 -25 -7 -34 -26 -11 -26 17 0
106 72 107 88 0 23 -25 12 -48 -22z"/>
<path d="M7087 5859 c7 -7 21 -7 44 -1 l34 10 -44 1 c-32 1 -42 -2 -34 -10z"/>
<path d="M1200 5845 c0 -12 -13 -15 -55 -15 -30 0 -55 -4 -55 -10 0 -5 20 -10
45 -10 28 0 45 -4 45 -12 0 -6 -21 -31 -46 -55 -47 -44 -48 -60 -1 -23 34 27
37 26 37 -15 l0 -35 83 0 83 0 0 48 0 48 -78 -4 -79 -5 12 27 c12 25 15 26 96
26 60 0 84 3 81 12 -3 7 -30 10 -83 9 -70 -2 -77 -1 -66 13 11 13 11 16 -3 16
-9 0 -16 -7 -16 -15z m120 -127 c0 -28 0 -28 -65 -28 -61 0 -65 1 -65 23 0 34
8 38 72 36 57 -2 58 -3 58 -31z"/>
<path d="M2765 5836 c-32 -32 -33 -75 -2 -104 29 -27 51 -28 77 -2 25 25 27
49 2 27 -38 -35 -76 -11 -70 45 4 38 34 51 55 22 16 -22 31 -9 17 14 -17 27
-51 26 -79 -2z"/>
<path d="M2886 5850 c-14 -4 -16 -9 -8 -14 16 -9 15 -99 0 -114 -9 -9 -5 -12
20 -12 18 0 32 5 32 10 0 6 -4 10 -10 10 -11 0 -13 69 -2 87 4 6 16 13 27 15
18 3 20 -3 21 -57 1 -55 3 -60 24 -63 19 -3 21 -1 15 15 -19 43 -17 78 5 98
22 20 22 20 37 0 14 -19 13 -59 -2 -97 -6 -15 -2 -18 20 -18 21 0 26 4 21 16
-3 9 -6 38 -6 64 0 57 -23 80 -61 60 -15 -9 -24 -8 -35 1 -11 9 -20 9 -41 0
-15 -7 -29 -8 -32 -3 -3 5 -15 6 -25 2z"/>
<path d="M3787 5835 c19 -25 33 -32 33 -16 0 13 -29 41 -41 41 -6 0 -2 -11 8
-25z"/>
<path d="M7322 5851 c-8 -4 -12 -19 -10 -32 2 -18 9 -24 28 -24 19 0 26 6 28
24 3 20 -11 41 -28 41 -3 0 -11 -4 -18 -9z m28 -27 c0 -17 -22 -14 -28 4 -2 7
3 12 12 12 9 0 16 -7 16 -16z"/>
<path d="M3394 5805 c1 -40 10 -45 26 -14 13 24 7 49 -13 49 -9 0 -13 -12 -13
-35z"/>
<path d="M6360 5833 c1 -13 40 -56 46 -50 7 7 -25 57 -37 57 -5 0 -9 -3 -9 -7z"/>
<path d="M2130 5820 c0 -6 33 -10 80 -10 47 0 80 4 80 10 0 6 -33 10 -80 10
-47 0 -80 -4 -80 -10z"/>
<path d="M3806 5769 c-22 -16 -46 -29 -53 -29 -7 0 -13 -7 -13 -15 0 -8 3 -15
6 -15 8 0 63 39 88 62 33 30 13 28 -28 -3z"/>
<path d="M4991 5768 c-14 -17 -45 -44 -70 -59 -44 -28 -42 -41 2 -18 52 28
132 110 105 108 -7 0 -24 -14 -37 -31z"/>
<path d="M4209 5773 c21 -40 93 -93 125 -93 30 0 16 17 -25 30 -47 16 -57 27
-32 37 10 4 24 13 31 20 20 20 -7 17 -37 -3 -21 -15 -24 -15 -42 5 -24 26 -33
27 -20 4z"/>
<path d="M2183 5772 c-83 -5 -62 -22 27 -22 44 0 80 4 80 9 0 12 -43 17 -107
13z"/>
<path d="M9563 5175 c0 -42 -31 -142 -49 -160 -14 -13 -7 -15 64 -15 75 0 79
1 91 26 14 32 6 45 -12 20 -14 -18 -94 -39 -102 -26 -2 4 0 23 6 43 11 40 44
52 56 20 6 -15 7 -15 14 3 10 25 11 62 1 48 -4 -6 -15 -13 -25 -17 -23 -9 -31
12 -18 46 9 22 17 27 46 27 19 0 35 -4 35 -10 0 -5 5 -10 10 -10 6 0 10 6 10
14 0 10 -17 15 -63 18 l-63 3 -1 -30z"/>
<path d="M14058 5184 c17 -8 15 -28 -9 -111 -14 -46 -27 -73 -36 -73 -8 0 -11
-4 -8 -10 8 -13 84 -13 126 1 19 7 46 23 62 37 22 21 27 34 27 72 0 71 -15 84
-101 87 -41 2 -68 0 -61 -3z m128 -30 c18 -24 11 -79 -14 -114 -19 -25 -95
-50 -109 -36 -8 8 10 88 31 138 14 33 20 37 47 34 16 -2 37 -12 45 -22z"/>
<path d="M7610 5161 c0 -10 -128 -183 -144 -193 -7 -5 -3 -8 9 -8 13 0 25 11
33 30 10 21 21 30 38 30 13 0 27 1 31 3 15 5 13 -31 -2 -47 -15 -15 -13 -16
22 -16 26 0 34 3 24 9 -11 7 -12 26 -7 91 4 45 10 89 13 96 3 8 0 14 -6 14 -6
0 -11 -4 -11 -9z m-20 -91 c0 -23 -4 -30 -20 -30 -24 0 -25 4 -4 35 21 32 24
31 24 -5z"/>
<path d="M3703 5113 c-7 -2 -13 -12 -13 -20 0 -13 3 -13 15 -3 20 16 45 6 45
-19 0 -11 -13 -36 -30 -54 -16 -19 -30 -38 -30 -41 0 -13 83 -1 88 11 3 9 -5
11 -30 6 -31 -6 -32 -5 -18 13 8 10 21 25 28 32 7 8 10 26 8 40 -2 15 -5 30
-5 35 -1 8 -39 8 -58 0z"/>
<path d="M2990 5039 c-14 -5 -38 -27 -53 -49 -38 -53 -35 -113 6 -144 26 -19
30 -19 55 -5 62 34 50 126 -16 123 -18 -1 -32 1 -32 6 0 14 49 60 64 60 8 0
18 5 21 10 8 12 -11 12 -45 -1z m9 -103 c17 -20 10 -67 -11 -79 -26 -17 -48 9
-48 54 0 34 3 39 24 39 13 0 29 -6 35 -14z"/>
<path d="M2054 5024 c-10 -32 -34 -86 -60 -137 -13 -27 -24 -51 -24 -53 0 -2
12 -4 27 -4 20 0 24 3 16 11 -8 8 -8 18 -1 35 9 19 18 22 52 21 40 -2 41 -3
40 -34 -2 -31 0 -33 34 -33 32 0 34 1 20 18 -8 9 -29 53 -47 97 -38 92 -48
106 -57 79z m25 -75 c6 -18 11 -34 11 -35 0 -2 -13 -4 -30 -4 -16 0 -30 2 -30
4 0 14 24 66 30 66 4 0 13 -14 19 -31z"/>
<path d="M3084 5008 c-35 -68 0 -187 50 -172 44 13 61 41 60 102 0 76 -15 102
-59 102 -29 0 -37 -5 -51 -32z m76 -4 c21 -55 2 -154 -30 -154 -37 0 -50 127
-17 168 16 20 37 14 47 -14z"/>
<path d="M3312 4955 c-21 -26 -21 -77 -1 -101 22 -27 99 -10 99 22 0 14 -2 14
-16 0 -32 -33 -66 -12 -68 40 -1 33 2 39 22 42 13 2 25 -3 28 -12 8 -22 31
-20 31 2 0 39 -66 45 -95 7z"/>
<path d="M3436 4972 c-3 -2 -1 -14 4 -26 4 -12 5 -41 0 -64 -7 -40 -6 -42 17
-42 20 0 22 3 13 19 -12 23 -10 71 3 89 12 15 44 16 49 0 2 -6 1 -33 -2 -60
-6 -44 -5 -48 14 -48 19 0 21 5 18 54 -3 48 -1 55 17 61 11 3 25 3 31 0 14 -9
13 -88 -2 -103 -9 -9 -4 -12 23 -12 19 0 29 4 22 8 -6 4 -13 34 -15 67 -3 54
-5 60 -26 63 -13 2 -29 -2 -37 -8 -8 -7 -15 -7 -19 -1 -6 9 -101 12 -110 3z"/>
<path d="M10456 4923 c-1 -1 -422 -4 -936 -5 -514 -2 -1134 -4 -1376 -6 l-441
-2 -8 -979 c-4 -538 -9 -1025 -11 -1082 -2 -72 -6 -1956 -4 -2174 0 -6 60 -9
162 -8 417 4 4925 15 5607 14 250 -1 455 0 457 1 1 2 5 620 8 1373 3 754 9
1709 12 2124 l6 753 -1737 -3 c-955 -2 -1738 -5 -1739 -6z m3053 -20 l404 -3
-7 -672 c-3 -370 -9 -1310 -12 -2088 -4 -778 -8 -1417 -10 -1418 -1 -2 -11 6
-21 18 -10 13 -28 32 -40 43 -47 43 -601 598 -652 653 -93 102 -320 330 -470
472 -79 76 -171 164 -205 197 -34 33 -158 152 -275 265 -118 113 -242 232
-276 265 -34 33 -122 116 -196 185 -130 121 -261 247 -438 419 -47 45 -160
153 -251 240 -90 86 -218 208 -283 271 -65 63 -123 117 -128 118 -5 2 -9 9 -9
16 0 6 -88 97 -196 201 -254 245 -252 244 -306 287 -25 21 -70 61 -101 90
-340 327 -421 404 -430 410 -6 4 -8 10 -5 14 4 3 701 8 1550 11 849 3 1544 6
1545 7 2 2 379 1 812 -1z m-3959 -22 c0 -6 -4 -12 -9 -15 -4 -3 -30 -54 -56
-113 -26 -59 -72 -162 -102 -228 -30 -66 -63 -139 -73 -161 -68 -150 -209
-473 -215 -494 -4 -14 -13 -34 -19 -45 -7 -11 -27 -56 -45 -100 -18 -44 -43
-102 -56 -130 -32 -67 -75 -165 -75 -170 0 -2 -25 -57 -56 -122 -31 -65 -62
-134 -69 -153 -7 -19 -32 -75 -55 -125 -23 -49 -55 -119 -70 -155 -27 -64
-129 -292 -189 -423 -17 -37 -31 -70 -31 -73 0 -3 -18 -42 -39 -88 -22 -45
-49 -107 -61 -136 -11 -29 -41 -95 -65 -146 -25 -52 -45 -97 -45 -100 0 -3
-29 -72 -66 -152 -36 -81 -69 -156 -74 -167 -59 -137 -96 -220 -120 -270 -16
-33 -41 -89 -55 -125 -15 -36 -42 -96 -60 -135 -18 -38 -42 -90 -53 -115 -11
-25 -26 -61 -35 -80 -8 -19 -22 -52 -31 -72 -8 -21 -18 -38 -22 -38 -10 0 12
4114 23 4133 6 11 1823 9 1823 -2z m103 -83 c41 -40 129 -125 197 -188 67 -63
148 -140 179 -170 31 -30 84 -77 116 -105 33 -27 87 -77 120 -110 263 -259
345 -341 381 -378 41 -42 143 -141 469 -454 99 -95 228 -218 286 -275 58 -57
159 -152 224 -213 64 -60 141 -132 169 -160 29 -27 97 -92 151 -144 103 -96
447 -427 539 -516 28 -28 105 -100 171 -161 140 -130 307 -295 419 -415 128
-135 244 -254 395 -403 78 -77 141 -141 141 -144 0 -3 56 -59 125 -125 69 -66
125 -123 125 -128 0 -4 -624 -8 -1387 -8 -764 0 -2148 -3 -3077 -7 -1449 -6
-1688 -5 -1683 7 23 56 94 216 132 295 25 53 45 98 45 101 0 2 11 28 24 56 13
29 33 72 44 97 11 25 55 124 97 220 76 174 90 204 139 311 14 31 26 58 26 62
0 3 16 40 36 84 54 119 61 134 82 183 11 25 35 77 52 115 18 39 38 86 45 105
7 19 24 58 38 85 32 66 67 143 67 148 0 3 23 53 50 111 28 58 50 108 50 110 0
3 14 35 31 73 17 37 39 86 49 108 10 22 30 69 45 105 15 36 47 108 72 160 25
52 53 115 63 140 10 25 36 84 58 131 23 47 50 108 60 135 11 27 35 83 54 124
20 42 39 87 43 100 7 22 21 55 70 165 7 17 25 57 40 90 34 78 38 87 76 170 17
39 38 86 47 105 8 19 37 82 64 138 26 57 48 106 48 110 0 3 13 33 29 66 16 34
39 85 51 114 13 28 26 52 31 52 4 0 41 -33 82 -72z"/>
<path d="M2200 4845 c0 -8 5 -15 10 -15 6 0 10 7 10 15 0 8 -4 15 -10 15 -5 0
-10 -7 -10 -15z"/>
<path d="M3693 4243 c-22 -8 -14 -21 8 -16 20 6 39 -10 39 -33 0 -6 -13 -26
-30 -44 -16 -18 -30 -37 -30 -42 0 -15 78 -9 83 7 5 11 0 13 -23 8 -37 -7 -38
6 -5 37 51 48 20 108 -42 83z"/>
<path d="M2981 4162 c-70 -35 -97 -117 -58 -176 36 -55 107 -22 107 51 0 41
-24 65 -56 57 -17 -4 -24 -2 -24 8 0 19 42 58 63 58 9 0 17 5 17 10 0 14 -10
13 -49 -8z m17 -114 c10 -21 10 -33 2 -48 -17 -32 -52 -22 -64 17 -17 60 35
86 62 31z"/>
<path d="M3098 4169 c-21 -12 -25 -68 -7 -86 9 -9 8 -18 -5 -37 -9 -14 -16
-32 -16 -39 0 -21 34 -47 62 -47 50 0 78 67 38 92 -11 7 -20 16 -20 19 0 3 9
16 20 29 11 13 20 27 20 32 0 15 -40 48 -57 48 -10 0 -26 -5 -35 -11z m55 -21
c6 -17 -10 -58 -22 -58 -15 0 -33 39 -27 56 7 17 42 19 49 2z m-3 -119 c16
-29 5 -51 -22 -47 -18 2 -24 11 -26 36 -3 27 0 32 17 32 11 0 25 -9 31 -21z"/>
<path d="M1978 4163 c8 -3 12 -32 12 -94 0 -73 -3 -91 -16 -96 -29 -11 5 -20
67 -17 88 4 126 48 83 96 -13 14 -14 21 -5 32 19 22 9 59 -19 73 -14 7 -50 12
-80 12 -30 0 -49 -3 -42 -6z m116 -35 c16 -26 -4 -52 -43 -56 -30 -3 -31 -2
-31 38 0 40 1 41 31 38 18 -2 37 -11 43 -20z m-4 -86 c19 -16 21 -22 11 -40
-8 -16 -21 -22 -45 -22 -30 0 -34 3 -39 33 -2 17 -3 35 0 40 8 13 51 7 73 -11z"/>
<path d="M3306 4088 c-53 -76 27 -174 83 -101 25 30 20 44 -7 20 -26 -24 -47
-21 -60 9 -25 54 20 107 51 60 17 -24 37 -13 21 12 -17 27 -69 27 -88 0z"/>
<path d="M3426 4102 c-2 -4 -1 -14 5 -22 14 -24 10 -87 -7 -104 -14 -15 -12
-16 22 -16 30 0 34 2 25 14 -7 8 -11 36 -9 63 3 44 5 48 28 48 22 0 25 -5 28
-44 2 -24 -2 -49 -7 -54 -18 -18 -12 -27 19 -27 29 0 40 13 20 25 -17 10 -7
87 13 99 14 8 20 8 27 -4 13 -20 13 -87 0 -95 -20 -12 -9 -25 20 -25 30 0 40
13 19 25 -6 4 -10 23 -9 44 1 20 2 44 1 53 -1 21 -35 32 -58 20 -11 -7 -23 -6
-34 1 -13 8 -25 8 -43 -1 -16 -7 -26 -8 -26 -2 0 12 -27 13 -34 2z"/>
<path d="M2187 3984 c-13 -13 -7 -24 14 -24 11 0 19 5 17 12 -5 14 -22 21 -31
12z"/>
<path d="M3817 3353 c-14 -14 -6 -19 23 -15 26 4 30 1 30 -20 0 -14 -15 -41
-35 -62 -19 -21 -35 -40 -35 -43 0 -11 94 3 98 16 3 10 -3 12 -27 6 -36 -8
-39 -3 -11 25 26 26 35 66 20 85 -13 15 -51 20 -63 8z"/>
<path d="M3060 3283 c-18 -4 -44 -42 -36 -51 4 -3 12 2 19 12 9 13 20 16 40
11 15 -4 30 -11 33 -17 12 -18 -7 -57 -51 -106 -25 -27 -45 -53 -45 -56 0 -3
27 -6 60 -6 47 0 61 4 69 18 9 18 6 19 -42 14 l-52 -4 31 33 c70 75 74 136 9
152 -11 2 -27 3 -35 0z"/>
<path d="M3215 3265 c-14 -13 -25 -30 -26 -37 0 -7 -2 -28 -3 -46 -4 -50 28
-112 57 -112 71 0 98 160 34 205 -29 20 -34 19 -62 -10z m59 -20 c20 -30 20
-75 2 -120 -15 -35 -38 -45 -52 -23 -14 23 -12 126 3 147 18 27 27 26 47 -4z"/>
<path d="M1997 3258 c-20 -17 -30 -35 -34 -65 -10 -78 29 -127 102 -127 33 0
75 26 75 47 0 6 -8 3 -18 -6 -23 -21 -86 -22 -106 -1 -34 34 -32 125 4 144 28
15 76 12 90 -5 18 -22 28 -18 26 9 -1 21 -6 23 -56 25 -44 1 -61 -3 -83 -21z"/>
<path d="M2907 3273 c-4 -3 -2 -12 4 -19 16 -19 16 -149 0 -168 -12 -14 -9
-16 30 -16 35 1 40 3 27 11 -15 8 -18 25 -18 104 0 85 -2 95 -18 95 -10 0 -22
-3 -25 -7z"/>
<path d="M3436 3205 c-43 -44 -20 -135 35 -135 27 0 76 46 63 59 -3 3 -11 -2
-18 -12 -17 -23 -53 -22 -66 2 -15 29 -12 57 7 77 16 16 18 15 31 -5 19 -28
34 -27 30 2 -4 28 -57 36 -82 12z"/>
<path d="M3554 3208 c-2 -4 0 -9 4 -12 12 -7 3 -97 -10 -113 -8 -10 -3 -13 18
-13 29 0 29 0 29 63 0 57 2 62 23 65 20 3 22 0 22 -50 0 -30 -5 -59 -12 -66
-9 -9 -4 -12 25 -12 20 0 37 5 37 10 0 6 -4 10 -10 10 -16 0 -12 86 5 100 28
23 46 4 42 -44 -1 -25 -6 -48 -10 -52 -15 -15 -6 -24 23 -24 17 0 30 5 30 10
0 6 -4 10 -10 10 -5 0 -10 25 -12 56 -4 66 -23 88 -59 66 -13 -9 -24 -10 -28
-4 -7 10 -101 11 -107 0z"/>
<path d="M2180 3090 c-12 -7 -12 -12 -3 -21 10 -10 14 -9 19 5 8 22 2 27 -16
16z"/>
<path d="M3818 2479 c-10 -5 -18 -15 -18 -21 0 -7 4 -7 13 -1 21 16 42 9 45
-16 2 -15 -8 -37 -28 -62 l-31 -39 46 0 c31 0 45 4 45 14 0 9 -8 12 -25 8 -30
-5 -32 8 -5 33 25 22 27 80 4 89 -21 8 -26 7 -46 -5z"/>
<path d="M2900 2395 c-10 -12 -10 -15 4 -15 13 0 16 -13 16 -79 0 -52 -4 -82
-12 -87 -8 -5 -2 -11 17 -16 33 -8 44 -3 27 14 -8 8 -12 47 -12 105 0 72 -3
93 -14 93 -7 0 -19 -7 -26 -15z"/>
<path d="M3037 2392 c-24 -26 -21 -33 7 -20 14 6 32 8 40 5 23 -9 20 -44 -5
-58 l-21 -11 23 -12 c50 -24 31 -80 -25 -78 -36 1 -49 -14 -21 -24 21 -8 60 3
79 22 19 18 21 75 4 92 -9 9 -9 18 0 37 15 32 15 30 -4 49 -21 21 -57 20 -77
-2z"/>
<path d="M3226 2380 c-56 -50 -61 -146 -8 -174 54 -28 108 30 86 93 -8 21 -17
27 -47 29 -20 2 -37 7 -37 11 0 11 30 37 65 55 l30 16 -27 0 c-16 0 -41 -12
-62 -30z m45 -84 c20 -44 -7 -97 -40 -77 -19 12 -27 81 -10 92 24 15 39 10 50
-15z"/>
<path d="M1964 2382 c16 -19 18 -31 11 -97 -4 -41 -11 -75 -16 -75 -5 0 -9 -4
-9 -10 0 -16 106 -11 144 6 60 29 76 110 32 161 -22 25 -31 28 -102 31 l-79 4
19 -20z m113 -8 c27 -7 47 -62 38 -103 -8 -36 -47 -63 -83 -59 -27 3 -27 4
-30 86 l-3 82 28 0 c15 0 38 -3 50 -6z"/>
<path d="M3432 2327 c-43 -45 -18 -127 38 -127 18 0 34 8 44 22 22 31 20 45
-2 25 -38 -35 -76 -11 -70 44 4 38 19 47 42 23 23 -22 46 -3 26 21 -18 22 -53
18 -78 -8z"/>
<path d="M3606 2342 c-3 -5 -20 -7 -38 -4 -27 4 -31 2 -20 -9 15 -17 16 -101
0 -117 -9 -9 -4 -12 22 -12 26 0 31 3 22 12 -17 17 -15 84 3 102 9 8 23 12 31
9 13 -5 15 -18 12 -64 -4 -57 -3 -59 20 -59 20 0 22 3 13 14 -7 8 -11 34 -9
58 3 39 6 43 31 46 26 3 27 2 27 -45 0 -27 -5 -54 -12 -61 -9 -9 -5 -12 20
-12 18 0 32 5 32 10 0 6 -4 10 -10 10 -6 0 -10 27 -10 60 0 67 -15 84 -53 61
-14 -9 -22 -10 -30 -2 -13 13 -44 14 -51 3z"/>
<path d="M2190 2210 c0 -13 5 -20 13 -17 6 2 12 10 12 17 0 7 -6 15 -12 18 -8
2 -13 -5 -13 -18z"/>
<path d="M14056 651 c-62 -42 -86 -124 -48 -171 13 -16 29 -22 63 -22 45 -1
89 15 89 32 0 15 -16 12 -30 -5 -13 -16 -67 -20 -86 -7 -40 26 -35 97 11 146
21 23 32 27 67 24 36 -3 43 -7 48 -28 l6 -25 7 25 c11 42 9 45 -45 48 -39 2
-61 -3 -82 -17z"/>
<path d="M7496 613 c6 -22 -31 -160 -48 -180 -19 -24 95 -17 125 7 26 21 32
54 14 77 -6 8 -1 20 12 34 40 43 21 71 -52 77 -52 4 -55 3 -51 -15z m91 -20
c7 -18 -25 -53 -49 -53 -20 0 -23 16 -9 54 8 18 15 23 31 19 12 -3 24 -12 27
-20z m-29 -75 c31 -31 3 -78 -47 -78 -24 0 -26 13 -10 59 11 32 35 41 57 19z"/>
</g>
</svg>
