<?xml version="1.0" standalone="no"?>
<!DOCTYPE svg PUBLIC "-//W3C//DTD SVG 20010904//EN"
 "http://www.w3.org/TR/2001/REC-SVG-20010904/DTD/svg10.dtd">
<svg version="1.0" xmlns="http://www.w3.org/2000/svg"
 width="1476.000000pt" height="567.000000pt" viewBox="0 0 1476.000000 567.000000"
 preserveAspectRatio="xMidYMid meet">
<metadata>
Created by potrace 1.16, written by Peter Selinger 2001-2019
</metadata>
<g transform="translate(0.000000,567.000000) scale(0.100000,-0.100000)"
fill="#000000" stroke="none">
<path d="M4940 5414 c-6 -14 -10 -36 -10 -49 0 -13 -4 -34 -9 -47 -5 -13 -11
-41 -15 -63 -9 -63 -31 -163 -37 -169 -3 -3 -13 19 -24 49 -19 57 -28 63 -57
41 -23 -17 -23 -30 1 -23 15 4 23 -7 43 -56 14 -34 30 -63 35 -64 9 -3 30 72
52 182 5 28 17 85 26 128 l16 77 110 0 c66 0 109 4 109 10 0 6 -45 10 -115 10
-115 0 -116 0 -125 -26z"/>
<path d="M3899 5384 c-11 -13 -9 -14 14 -9 22 6 27 4 27 -10 0 -10 -8 -24 -17
-31 -16 -12 -16 -13 -2 -14 16 0 29 -19 29 -41 0 -5 -13 -9 -30 -9 -16 0 -30
-5 -30 -11 0 -6 14 -9 33 -7 l32 3 3 64 c2 45 -1 67 -10 72 -20 13 -34 11 -49
-7z"/>
<path d="M10010 5278 c0 -68 4 -98 13 -101 8 -3 5 -12 -10 -29 -25 -26 -29
-38 -14 -38 5 0 22 18 38 40 23 32 34 40 60 40 l33 0 -3 91 -2 91 -58 2 -57 1
0 -97z m100 55 c0 -20 -5 -23 -39 -23 -42 0 -57 11 -47 36 4 10 18 14 46 12
34 -2 40 -5 40 -25z m0 -58 c0 -14 -6 -25 -12 -26 -10 0 -10 -2 0 -6 6 -2 12
-14 12 -24 0 -17 -6 -20 -42 -17 -46 3 -62 29 -23 36 33 6 41 21 9 19 -23 -2
-30 2 -32 21 -3 20 1 22 42 22 42 0 46 -2 46 -25z"/>
<path d="M10248 5358 c0 -13 0 -60 1 -104 4 -99 -3 -127 -29 -119 -10 3 -21 2
-24 -3 -6 -10 50 -22 59 -14 3 3 5 58 5 122 0 77 4 120 12 128 9 9 8 12 -5 12
-10 0 -18 -9 -19 -22z"/>
<path d="M7476 5320 c-10 -27 -27 -61 -38 -75 -20 -25 -12 -35 10 -13 9 9 12
-5 12 -65 0 -45 4 -77 10 -77 6 0 10 41 10 103 0 83 4 108 19 134 18 28 18 43
1 43 -3 0 -14 -22 -24 -50z"/>
<path d="M7547 5334 c-44 -52 -15 -45 32 9 17 18 20 27 10 26 -8 0 -27 -16
-42 -35z"/>
<path d="M8290 5354 c0 -13 -8 -15 -35 -12 -19 2 -35 0 -35 -4 0 -4 14 -8 31
-8 19 0 37 -7 45 -17 13 -17 13 -17 14 0 0 10 8 17 20 17 11 0 20 5 20 11 0 7
-10 9 -25 5 -19 -5 -23 -3 -19 9 4 8 1 15 -5 15 -6 0 -11 -7 -11 -16z"/>
<path d="M8403 5356 c-4 -7 -15 -16 -23 -19 -11 -4 -11 -6 4 -6 12 -1 16 -6
12 -16 -3 -8 -1 -15 4 -15 6 0 10 7 10 15 0 11 11 15 40 15 23 0 40 5 40 11 0
7 -12 9 -36 4 -31 -5 -36 -4 -31 9 8 19 -9 21 -20 2z"/>
<path d="M6229 5345 c-1 -8 -3 -18 -4 -22 -1 -5 -6 -23 -10 -40 -9 -40 -28
-44 -23 -5 3 25 1 27 -31 24 l-34 -4 17 26 c13 20 13 26 3 26 -8 0 -19 -12
-25 -26 -7 -14 -17 -22 -22 -19 -6 4 -10 -30 -10 -95 l0 -100 28 6 c35 9 41
14 14 14 -19 0 -22 6 -22 41 0 39 1 40 33 37 34 -3 39 -17 23 -64 -4 -15 -2
-23 9 -28 12 -4 15 5 15 59 0 36 4 65 10 65 5 0 16 14 25 30 14 27 21 30 60
30 l45 0 -1 -52 c0 -29 -3 -71 -7 -93 -6 -34 -12 -41 -37 -45 -28 -6 -29 -6
-10 -17 13 -7 26 -8 37 -2 17 9 22 33 33 160 l6 66 -57 -5 -57 -5 7 27 c4 15
2 26 -4 26 -5 0 -11 -7 -11 -15z m-59 -84 c0 -23 -5 -30 -27 -34 -34 -6 -43
-1 -43 23 0 21 25 39 53 40 12 0 17 -8 17 -29z"/>
<path d="M6463 5347 c-18 -24 -40 -82 -36 -94 2 -7 12 -9 21 -5 16 6 16 4 -1
-21 -23 -35 -23 -62 1 -52 9 4 27 10 40 12 12 3 22 11 22 19 0 19 -17 26 -24
9 -5 -14 -36 -22 -36 -9 0 4 16 26 35 49 19 23 31 45 28 49 -11 11 -21 6 -26
-14 -3 -12 -14 -20 -26 -20 -27 0 -26 4 5 45 14 18 21 36 16 39 -6 3 -14 0
-19 -7z"/>
<path d="M6590 5345 c0 -9 -9 -15 -25 -15 -24 0 -25 -3 -25 -55 0 -53 1 -55
24 -49 13 3 27 1 31 -6 9 -15 5 -18 -27 -22 -31 -4 -50 -18 -25 -18 24 0 21
-17 -9 -47 -14 -14 -23 -28 -20 -31 8 -8 56 39 56 55 0 7 5 13 10 13 6 0 10
-13 10 -30 0 -22 -5 -30 -17 -30 -15 0 -16 -2 -3 -10 30 -19 40 -11 40 33 l1
42 27 -33 c15 -18 36 -32 47 -32 17 1 16 3 -6 15 -47 26 -45 60 5 78 7 3 3 11
-8 19 -15 12 -18 24 -14 61 l6 47 -34 0 c-26 0 -32 4 -28 15 4 8 1 15 -5 15
-6 0 -11 -7 -11 -15z m60 -45 c0 -5 -20 -10 -45 -10 -25 0 -45 5 -45 10 0 6
20 10 45 10 25 0 45 -4 45 -10z m-2 -42 c-3 -7 -23 -14 -46 -16 -33 -2 -42 0
-42 12 0 12 11 16 46 16 32 0 44 -4 42 -12z m7 -47 c0 -23 -23 -24 -35 -1 -10
19 -9 21 12 18 13 -2 23 -9 23 -17z"/>
<path d="M6792 5226 c-2 -84 1 -137 8 -141 6 -4 10 28 10 94 0 56 4 101 9 101
5 0 11 -6 14 -12 2 -7 8 -9 13 -5 5 5 -2 16 -15 26 -19 14 -22 24 -17 45 4 18
2 26 -6 26 -10 0 -14 -34 -16 -134z"/>
<path d="M6932 5323 c3 -33 0 -38 -20 -41 -24 -4 -32 23 -9 31 9 3 9 8 1 17
-9 9 -16 0 -29 -39 -9 -28 -21 -51 -26 -51 -5 0 -9 -4 -9 -10 0 -18 17 -10 30
15 15 28 54 34 64 9 13 -34 7 -44 -29 -44 -19 0 -35 -4 -35 -10 0 -5 16 -10
36 -10 35 0 35 -1 32 -37 -3 -38 -3 -38 -50 -41 -89 -6 -49 -22 53 -22 76 0
100 3 96 13 -2 8 -18 11 -45 9 l-42 -4 0 41 c0 42 4 45 49 41 16 -1 22 3 19
12 -5 14 -22 15 -50 3 -15 -6 -18 -1 -18 29 0 34 1 36 35 36 19 0 35 4 35 9 0
15 -18 23 -25 11 -3 -5 -16 -10 -27 -10 -18 0 -20 4 -15 40 4 31 2 40 -10 40
-11 0 -14 -10 -11 -37z"/>
<path d="M7102 5220 c1 -74 3 -106 5 -70 5 113 10 130 40 130 25 0 25 -1 9
-25 -15 -22 -15 -26 -2 -31 14 -5 14 -8 1 -21 -17 -16 -6 -47 24 -70 14 -11
13 -13 -6 -19 -13 -3 -23 -10 -23 -15 0 -14 16 -11 39 9 37 30 40 118 3 105
-14 -5 -14 -3 3 17 l20 23 -25 -8 c-23 -7 -24 -7 -9 16 9 13 18 40 21 59 l6
35 -54 0 -54 0 2 -135z m76 113 c-10 -2 -28 -2 -40 0 -13 2 -5 4 17 4 22 1 32
-1 23 -4z m0 -30 c-10 -2 -28 -2 -40 0 -13 2 -5 4 17 4 22 1 32 -1 23 -4z m22
-133 c0 -11 -7 -20 -15 -20 -8 0 -15 9 -15 20 0 11 7 20 15 20 8 0 15 -9 15
-20z"/>
<path d="M7249 5330 c0 -14 -2 -71 -5 -127 -3 -65 -1 -103 5 -108 7 -3 11 3
11 15 0 13 9 24 25 30 24 9 36 40 15 40 -5 0 -10 -7 -10 -15 0 -8 -7 -15 -15
-15 -8 0 -15 9 -15 20 0 19 15 25 49 21 7 -2 11 4 9 11 -3 7 -16 12 -29 10
l-24 -3 25 21 25 22 -29 -7 c-25 -5 -28 -4 -18 8 7 8 8 17 4 21 -4 4 9 6 28 4
l35 -3 0 -80 c0 -70 -2 -80 -17 -79 -10 1 -18 -2 -18 -6 0 -9 39 -24 45 -18 2
1 5 62 7 134 l3 130 -52 0 c-49 -1 -53 -3 -54 -26z m74 3 c-13 -2 -33 -2 -45
0 -13 2 -3 4 22 4 25 0 35 -2 23 -4z m-5 -30 c-10 -2 -28 -2 -40 0 -13 2 -5 4
17 4 22 1 32 -1 23 -4z"/>
<path d="M10180 5266 c0 -57 4 -96 10 -96 6 0 10 35 10 85 0 97 0 93 -11 101
-5 3 -9 -37 -9 -90z"/>
<path d="M5510 5344 c0 -3 5 -14 10 -25 10 -18 7 -19 -45 -19 -33 0 -55 -4
-55 -11 0 -7 29 -10 89 -8 49 2 92 1 96 -2 8 -9 -79 -91 -137 -129 -51 -34
-64 -48 -54 -57 3 -4 13 2 20 13 14 19 15 19 49 1 39 -21 171 -27 190 -8 8 8
-12 11 -78 11 -118 0 -133 10 -80 53 51 41 135 126 135 137 0 5 -22 6 -50 3
-46 -5 -50 -4 -61 21 -11 23 -29 36 -29 20z"/>
<path d="M5750 5215 c0 -92 4 -135 11 -135 8 0 10 27 8 83 l-4 82 43 0 c42 0
42 0 42 37 0 20 3 43 6 52 5 13 -3 16 -50 16 l-56 0 0 -135z m80 115 c19 -12
9 -20 -29 -25 -36 -5 -49 9 -24 24 22 13 34 13 53 1z m10 -50 c0 -5 -16 -10
-35 -10 -19 0 -35 5 -35 10 0 6 16 10 35 10 19 0 35 -4 35 -10z"/>
<path d="M5900 5300 l0 -50 45 0 45 0 0 -70 c0 -63 -2 -70 -20 -70 -11 0 -20
-4 -20 -9 0 -14 38 -20 49 -7 5 6 9 66 8 134 l-2 122 -52 0 -53 0 0 -50z m88
23 c-4 -20 -68 -29 -68 -9 0 18 5 21 40 24 25 2 31 -1 28 -15z m2 -43 c0 -5
-15 -10 -34 -10 -19 0 -38 5 -41 10 -4 6 10 10 34 10 23 0 41 -4 41 -10z"/>
<path d="M9235 5330 c-10 -11 -16 -22 -13 -25 3 -3 11 1 18 10 19 23 59 19 69
-7 11 -30 5 -44 -46 -104 -24 -28 -43 -54 -43 -58 0 -3 25 -6 55 -6 43 0 56 4
65 19 14 26 13 38 -2 23 -14 -14 -78 -16 -78 -2 0 6 4 10 8 10 14 0 72 87 72
108 0 49 -71 70 -105 32z"/>
<path d="M2551 5304 c-6 -22 -20 -54 -31 -72 -24 -39 -25 -49 -5 -32 13 11 15
2 15 -71 0 -55 3 -80 10 -73 6 6 10 55 11 111 0 67 5 110 15 129 9 17 11 31 5
37 -6 6 -13 -5 -20 -29z"/>
<path d="M4266 5325 c-16 -12 -19 -26 -17 -90 2 -62 -1 -75 -13 -75 -9 0 -16
-5 -16 -10 0 -16 282 -9 288 8 2 6 -4 12 -14 12 -15 0 -16 9 -10 83 l7 83 -36
-4 c-40 -5 -48 -22 -10 -22 33 0 33 -28 0 -36 -28 -7 -24 -24 6 -24 10 0 19
-7 19 -15 0 -9 -9 -15 -25 -15 -31 0 -33 -17 -2 -22 39 -5 26 -33 -17 -36 -36
-3 -38 -2 -32 20 3 13 9 40 12 60 6 36 5 37 -21 35 -16 -1 -30 4 -32 11 -3 8
6 12 26 12 17 0 31 5 31 11 0 7 -11 8 -30 4 -25 -5 -29 -4 -24 9 3 9 2 16 -4
16 -5 0 -12 -14 -16 -31 -11 -55 -8 -62 19 -55 18 5 27 2 31 -9 9 -23 -5 -65
-22 -65 -8 0 -12 -4 -9 -10 3 -5 -1 -10 -10 -10 -17 0 -17 18 1 64 3 9 1 16
-5 16 -6 0 -12 -4 -12 -10 -1 -5 -3 -14 -4 -20 -1 -5 -3 -19 -4 -30 -1 -14 -8
-20 -26 -20 -18 0 -25 5 -25 20 0 13 7 20 20 20 11 0 20 5 20 11 0 6 -9 9 -20
6 -15 -4 -20 0 -20 14 0 14 7 19 25 19 14 0 25 5 25 10 0 6 -11 10 -25 10 -18
0 -25 5 -25 20 0 15 7 20 26 20 16 0 24 5 22 13 -7 18 -30 19 -52 2z"/>
<path d="M7567 5304 c-43 -46 -45 -51 -14 -56 21 -4 21 -5 -5 -18 -31 -15 -27
-32 5 -29 44 3 47 0 47 -47 0 -42 -2 -46 -21 -41 -16 4 -18 3 -8 -9 20 -25 39
-16 40 19 3 86 0 82 47 81 47 -1 51 5 23 30 -16 15 -19 15 -24 1 -5 -10 -19
-15 -49 -14 l-43 0 25 17 c47 33 75 60 67 68 -4 4 -17 -2 -30 -14 -23 -22 -57
-30 -57 -13 0 5 10 15 21 23 12 8 20 20 17 28 -2 8 -16 0 -41 -26z"/>
<path d="M1310 5323 l-115 -4 3 -129 3 -130 120 0 119 0 0 135 c0 74 -3 134
-7 133 -5 -1 -60 -4 -123 -5z m3 -30 c-49 -4 -53 -6 -53 -29 0 -19 5 -24 26
-24 14 0 23 -4 19 -10 -3 -5 1 -10 10 -10 9 0 14 4 10 9 -3 5 5 11 17 13 17 2
24 11 26 31 3 22 8 27 31 27 l29 0 -3 -107 -2 -108 -107 -3 -106 -3 0 111 0
110 78 -2 c62 -1 67 -2 25 -5z m37 -28 c0 -10 -11 -15 -35 -15 -33 0 -43 8
-28 23 13 14 63 7 63 -8z"/>
<path d="M1230 5220 c0 -13 20 -13 40 0 12 8 9 10 -12 10 -16 0 -28 -4 -28
-10z"/>
<path d="M1363 5219 c11 -7 23 -7 35 0 14 9 11 10 -18 10 -29 0 -32 -1 -17
-10z"/>
<path d="M1250 5148 l0 -53 67 1 68 2 3 51 3 51 -70 0 -71 0 0 -52z m120 2 l0
-40 -55 0 -55 0 0 40 0 40 55 0 55 0 0 -40z"/>
<path d="M1280 5145 c0 -14 5 -25 11 -25 6 0 8 9 4 20 -5 16 -2 20 14 20 12 0
21 -7 21 -15 0 -22 17 -18 23 5 4 17 0 20 -34 20 -35 0 -39 -3 -39 -25z"/>
<path d="M1638 5303 c-3 -26 -7 -28 -50 -31 -27 -2 -48 -6 -48 -10 -1 -4 -3
-30 -5 -57 l-4 -51 52 1 52 0 6 -55 6 -55 1 58 2 57 53 0 52 0 1 58 0 58 -53
-2 c-44 -2 -53 1 -53 15 0 9 5 22 12 29 9 9 8 12 -4 12 -11 0 -18 -10 -20 -27z
m0 -90 l3 -43 -45 0 -46 0 0 38 c0 48 2 49 48 48 36 -1 37 -2 40 -43z m97 2
c0 -40 0 -40 -42 -43 l-43 -3 0 46 0 46 43 -3 c42 -3 42 -3 42 -43z"/>
<path d="M1888 5308 c-2 -15 -11 -24 -27 -26 -21 -3 -23 -7 -17 -40 3 -21 6
-66 6 -101 0 -55 2 -62 15 -51 9 7 28 10 47 6 l33 -6 -2 53 c-1 37 4 58 16 72
10 11 21 28 24 38 5 13 18 17 56 17 l51 0 -6 -82 c-6 -92 -16 -112 -51 -103
-13 3 -23 1 -23 -4 0 -10 58 -26 67 -18 8 9 21 77 28 154 l7 72 -58 -6 -57 -6
7 26 c4 16 2 27 -4 27 -5 0 -12 -12 -16 -27 -10 -46 -26 -83 -34 -78 -4 2 -5
16 -3 29 5 22 2 25 -23 23 -29 -2 -31 3 -19 36 4 9 3 17 -3 17 -6 0 -12 -10
-14 -22z m40 -80 c3 -26 1 -28 -32 -28 -31 0 -36 3 -36 23 0 31 9 39 40 35 19
-2 26 -10 28 -30z m2 -84 c0 -34 -1 -35 -32 -32 -54 5 -53 68 2 68 28 0 30 -3
30 -36z"/>
<path d="M2190 5195 l0 -130 125 0 125 0 0 130 0 130 -125 0 -125 0 0 -130z
m68 82 c2 -19 9 -27 23 -27 38 0 18 -19 -23 -23 -24 -2 -1 -4 50 -5 50 -1 92
2 92 7 0 5 -18 7 -40 4 -26 -4 -40 -2 -40 6 0 6 11 11 25 11 18 0 25 5 25 20
0 17 -7 20 -51 20 -31 0 -48 4 -44 10 7 11 116 11 134 0 8 -4 11 -41 9 -111
l-3 -104 -83 -3 c-56 -2 -82 1 -77 8 3 5 35 10 71 10 l64 0 0 53 0 52 -75 0
-75 0 0 -63 c0 -54 -2 -63 -17 -60 -14 3 -17 19 -20 107 -2 70 1 107 8 112 22
13 44 2 47 -24z m92 -7 c0 -5 -18 -10 -41 -10 -24 0 -38 4 -34 10 3 6 22 10
41 10 19 0 34 -4 34 -10z m18 -117 l-3 -38 -52 -1 c-56 -1 -72 13 -58 56 5 17
15 20 61 20 l55 0 -3 -37z"/>
<path d="M2270 5153 c0 -20 5 -23 40 -23 35 0 40 3 40 23 0 19 -5 22 -40 22
-35 0 -40 -3 -40 -22z m60 -3 c0 -5 -9 -10 -20 -10 -11 0 -20 5 -20 10 0 6 9
10 20 10 11 0 20 -4 20 -10z"/>
<path d="M2630 5320 c0 -5 -14 -25 -31 -45 -17 -19 -26 -35 -20 -35 6 0 11 -9
11 -19 0 -14 8 -21 28 -23 27 -3 27 -3 -13 -25 -44 -24 -27 -32 19 -8 36 19
42 19 25 -2 -8 -9 -27 -22 -44 -29 -19 -9 -24 -13 -12 -14 10 0 32 7 49 16 20
10 29 12 26 4 -2 -7 -24 -23 -48 -36 -28 -15 -37 -24 -25 -24 11 1 31 7 45 15
32 18 40 18 40 0 0 -9 -10 -15 -26 -15 -14 0 -23 -4 -19 -10 3 -5 17 -10 29
-10 17 0 25 8 32 32 9 29 10 30 26 15 9 -10 27 -17 40 -16 21 0 20 2 -9 16
-37 19 -43 42 -13 50 11 3 20 9 20 14 0 12 -27 11 -35 -1 -11 -17 -44 -11 -55
10 -10 19 -8 20 40 20 47 0 50 2 50 25 0 37 -3 40 -32 37 -29 -3 -46 13 -23
22 28 10 16 28 -16 24 -20 -3 -33 0 -36 9 -6 15 -23 18 -23 3z m48 -42 c-5
-15 -58 -24 -58 -10 0 15 12 22 38 22 14 0 22 -5 20 -12z m-18 -43 c0 -9 -9
-15 -25 -15 -16 0 -25 6 -25 15 0 9 9 15 25 15 16 0 25 -6 25 -15z m80 0 c0
-10 -10 -15 -30 -15 -20 0 -30 5 -30 15 0 10 10 15 30 15 20 0 30 -5 30 -15z"/>
<path d="M2860 5285 l0 -45 55 0 55 0 0 36 c0 33 2 35 28 32 29 -3 39 -34 10
-32 -16 2 -18 -8 -18 -67 0 -70 -3 -77 -30 -59 -13 9 -13 12 3 21 24 14 22 32
-3 19 -22 -12 -27 -1 -8 18 6 6 8 15 5 19 -4 4 -14 -3 -23 -15 -8 -12 -20 -20
-25 -16 -5 3 -16 0 -24 -6 -18 -15 -20 1 -3 18 6 6 9 15 5 18 -13 13 -44 -40
-42 -70 2 -28 6 -31 31 -28 38 5 42 10 15 20 -20 7 -21 9 -7 21 20 17 48 -2
39 -26 -5 -13 -2 -15 14 -11 12 3 33 -2 48 -12 l27 -18 -23 -16 c-13 -8 -20
-18 -16 -22 3 -3 23 8 44 25 21 17 44 31 53 31 11 0 12 -2 2 -8 -9 -6 -6 -14
13 -32 21 -19 25 -21 25 -7 0 9 -5 17 -11 17 -6 0 -8 8 -5 18 3 9 6 51 7 92
l2 75 -29 0 c-33 0 -42 29 -9 31 11 1 26 2 33 3 6 1 12 5 12 10 0 4 -56 9
-125 10 l-125 1 0 -45z m90 15 c0 -5 -15 -10 -34 -10 -19 0 -38 5 -41 10 -4 6
10 10 34 10 23 0 41 -4 41 -10z m0 -30 c0 -6 -16 -10 -35 -10 -19 0 -35 4 -35
8 0 5 16 9 35 10 19 1 35 -3 35 -8z m138 -27 c2 -9 -10 -13 -42 -13 -43 0 -55
7 -39 24 12 11 76 2 81 -11z m-5 -37 c8 -20 -2 -26 -45 -26 -31 0 -38 3 -38
20 0 17 7 20 39 20 24 0 41 -5 44 -14z m-5 -48 c7 -22 -2 -28 -38 -28 -38 0
-52 15 -33 34 9 9 67 4 71 -6z"/>
<path d="M3210 5308 c0 -5 45 -8 100 -8 55 0 100 3 100 8 0 4 -45 7 -100 7
-55 0 -100 -3 -100 -7z"/>
<path d="M328 5286 c-10 -7 -18 -19 -18 -27 0 -10 3 -10 12 -1 18 18 55 15 63
-5 4 -12 -2 -25 -20 -40 -17 -15 -21 -23 -11 -23 16 0 46 -26 46 -40 0 -21
-35 -42 -62 -38 -19 3 -28 0 -28 -9 0 -26 70 -11 93 19 20 27 20 29 4 63 -13
27 -15 41 -7 55 23 43 -31 77 -72 46z"/>
<path d="M497 5232 c-26 -37 -47 -73 -47 -80 0 -8 16 -12 44 -12 38 0 43 -3
42 -22 0 -11 5 -23 12 -25 7 -3 12 5 12 21 0 16 6 26 15 26 8 0 15 4 15 9 0 5
-7 11 -15 15 -11 4 -15 22 -15 71 0 36 -4 65 -8 65 -5 0 -30 -30 -55 -68z m41
-33 c-2 -29 -7 -34 -30 -37 -34 -4 -35 6 -7 53 25 42 42 35 37 -16z"/>
<path d="M8320 5275 c-5 -14 -14 -25 -19 -25 -6 0 -8 -7 -5 -15 4 -9 -12 -31
-42 -60 -51 -47 -47 -63 4 -20 35 29 41 26 35 -22 -4 -31 -3 -35 12 -29 9 3
48 6 86 6 l69 0 0 46 0 47 -67 -6 c-79 -8 -98 -1 -77 27 11 16 27 19 90 20 47
1 79 5 81 12 3 8 -20 10 -73 6 -74 -5 -76 -4 -69 17 9 30 -13 27 -25 -4z m120
-125 l0 -30 -65 0 -65 0 0 30 0 30 65 0 65 0 0 -30z"/>
<path d="M10570 5280 c0 -5 7 -10 15 -10 12 0 15 -14 15 -63 0 -65 -11 -87
-42 -87 -10 0 -18 -7 -18 -15 0 -30 28 -14 77 43 27 31 57 68 66 82 20 29 23
64 5 57 -7 -2 -12 -12 -11 -23 2 -19 -42 -83 -50 -74 -3 3 -7 25 -10 50 -3 25
-6 46 -6 48 -2 7 -41 0 -41 -8z"/>
<path d="M6756 5264 c-8 -21 -8 -24 3 -24 12 0 22 28 12 35 -5 3 -12 -2 -15
-11z"/>
<path d="M8787 5273 c-4 -3 2 -12 13 -20 28 -20 25 -47 -10 -76 -32 -27 -37
-37 -19 -37 7 0 22 12 35 27 l23 27 6 -27 c8 -29 24 -34 43 -15 17 17 15 33
-3 18 -12 -10 -17 -7 -26 16 -13 34 -2 58 30 62 11 2 21 10 21 18 0 21 -27 17
-44 -7 l-14 -21 -11 21 c-12 21 -31 27 -44 14z"/>
<path d="M9650 5266 c0 -8 5 -18 11 -22 8 -4 7 -9 -2 -15 -7 -4 -10 -11 -7
-14 13 -13 28 7 28 36 0 19 -5 29 -15 29 -8 0 -15 -6 -15 -14z"/>
<path d="M7872 5258 c-7 -7 -12 -22 -12 -35 0 -28 36 -32 56 -5 10 14 10 20
-3 35 -19 20 -25 21 -41 5z m36 -26 c2 -7 -3 -12 -12 -12 -9 0 -16 7 -16 16 0
17 22 14 28 -4z"/>
<path d="M10780 5260 c0 -6 31 -10 74 -10 41 0 78 5 81 10 4 6 -23 10 -74 10
-47 0 -81 -4 -81 -10z"/>
<path d="M8214 5251 c3 -5 17 -8 31 -8 14 0 28 3 31 8 3 5 -11 9 -31 9 -20 0
-34 -4 -31 -9z"/>
<path d="M8990 5250 c0 -6 30 -10 69 -10 39 0 73 5 76 10 4 6 -22 10 -69 10
-44 0 -76 -4 -76 -10z"/>
<path d="M3295 5240 c-121 -6 -135 -10 -40 -13 22 -1 43 -6 47 -12 4 -5 8 -43
8 -82 0 -42 4 -73 10 -73 6 0 10 35 10 86 l0 86 43 -2 c64 -3 77 -1 77 10 0 6
-6 9 -12 8 -7 -1 -71 -5 -143 -8z"/>
<path d="M3752 5243 c-10 -4 -8 -9 7 -20 36 -25 18 -93 -25 -93 -8 0 -14 -4
-14 -10 0 -15 27 -12 44 5 8 8 19 15 25 15 6 0 11 -7 11 -15 0 -8 4 -15 9 -15
18 0 41 12 41 22 0 6 -7 7 -15 4 -23 -8 -39 38 -22 64 6 11 20 20 29 20 19 0
24 15 9 25 -5 3 -16 -2 -25 -10 -13 -14 -18 -14 -38 -2 -13 8 -29 12 -36 10z"/>
<path d="M5020 5243 c23 -9 28 -22 29 -77 0 -60 -7 -75 -39 -81 -31 -6 -36
-13 -21 -28 10 -9 24 1 72 52 80 85 109 141 73 141 -10 0 -13 -6 -10 -18 6
-18 -30 -72 -47 -72 -4 0 -7 20 -7 45 0 44 -1 45 -32 44 -18 0 -26 -3 -18 -6z"/>
<path d="M6261 5208 c13 -18 25 -26 27 -19 4 13 -25 51 -40 51 -5 0 1 -14 13
-32z"/>
<path d="M5820 5170 l0 -55 55 3 55 4 0 38 c0 21 2 44 5 52 4 10 -9 13 -55 13
l-60 0 0 -55z m95 25 c0 -5 -17 -11 -37 -13 -36 -3 -47 5 -31 22 11 10 68 3
68 -9z m2 -41 c2 -7 -11 -13 -32 -16 -38 -4 -57 8 -34 23 18 12 61 7 66 -7z"/>
<path d="M2002 5215 c10 -29 32 -65 40 -65 15 0 8 19 -18 47 -14 15 -24 24
-22 18z"/>
<path d="M10780 5210 c0 -6 33 -10 80 -10 47 0 80 4 80 10 0 6 -33 10 -80 10
-47 0 -80 -4 -80 -10z"/>
<path d="M8985 5200 c-4 -6 23 -10 74 -10 47 0 81 4 81 10 0 6 -31 10 -74 10
-41 0 -78 -4 -81 -10z"/>
<path d="M3242 5188 c-7 -7 -12 -16 -12 -22 0 -5 -12 -22 -27 -38 -27 -29 -30
-45 -3 -25 17 13 70 83 70 91 0 10 -15 7 -28 -6z"/>
<path d="M3370 5197 c0 -5 14 -29 32 -53 30 -42 48 -55 48 -35 0 12 -79 99
-80 88z"/>
<path d="M7544 5168 c-4 -7 -14 -24 -23 -38 -14 -23 -13 -23 17 4 18 17 32 33
32 38 0 12 -18 9 -26 -4z"/>
<path d="M7663 5145 c21 -33 37 -44 37 -26 0 12 -40 61 -50 61 -5 0 1 -16 13
-35z"/>
<path d="M6500 5149 c7 -11 14 -18 17 -15 8 8 -5 36 -17 36 -7 0 -7 -6 0 -21z"/>
<path d="M10106 5145 c16 -25 34 -33 34 -17 0 10 -33 42 -44 42 -3 0 1 -11 10
-25z"/>
<path d="M6460 5154 c0 -5 7 -18 15 -28 12 -16 15 -17 15 -4 0 8 -7 21 -15 28
-8 7 -15 9 -15 4z"/>
<path d="M6430 5133 c0 -5 7 -17 15 -27 15 -20 20 -10 9 18 -6 16 -24 22 -24
9z"/>
<path d="M4275 5100 c-29 -17 -42 -30 -32 -30 23 0 69 24 86 44 20 24 2 19
-54 -14z"/>
<path d="M4434 5105 c40 -27 56 -31 56 -14 0 10 -59 39 -81 39 -7 0 5 -11 25
-25z"/>
<path d="M622 5108 c6 -18 28 -21 28 -4 0 9 -7 16 -16 16 -9 0 -14 -5 -12 -12z"/>
<path d="M2950 5111 c0 -5 5 -13 10 -16 6 -3 10 -2 10 4 0 5 -4 13 -10 16 -5
3 -10 2 -10 -4z"/>
<path d="M2842 5086 c-7 -16 -8 -26 -1 -26 12 0 22 25 17 41 -2 6 -9 0 -16
-15z"/>
<path d="M2880 5096 c0 -8 5 -18 10 -21 6 -3 10 3 10 14 0 12 -4 21 -10 21 -5
0 -10 -6 -10 -14z"/>
<path d="M2920 5096 c0 -9 5 -16 10 -16 6 0 10 4 10 9 0 6 -4 13 -10 16 -5 3
-10 -1 -10 -9z"/>
<path d="M9468 4642 c-10 -2 -19 -27 -28 -75 -7 -40 -18 -94 -26 -122 -7 -27
-16 -74 -19 -102 -4 -29 -10 -55 -15 -58 -4 -2 -15 17 -25 43 -23 61 -28 66
-54 53 -24 -13 -29 -33 -6 -25 11 4 22 -9 40 -47 14 -30 25 -60 25 -66 0 -7 6
-13 13 -13 7 0 19 31 29 78 22 99 46 216 56 267 l8 40 107 3 c59 1 107 7 107
12 0 8 -180 19 -212 12z"/>
<path d="M2116 4417 c-15 -34 -34 -79 -43 -99 -9 -21 -20 -38 -25 -38 -4 0 -8
-4 -8 -10 0 -5 12 -10 26 -10 22 0 25 4 21 21 -10 37 2 49 48 49 46 0 63 -18
49 -54 -5 -13 0 -16 26 -16 17 0 30 3 28 8 -4 7 -39 84 -64 139 -8 17 -14 38
-14 46 0 38 -20 22 -44 -36z m38 -23 c12 -31 6 -44 -19 -44 -28 0 -28 0 -15
34 11 29 25 34 34 10z"/>
<path d="M2940 4458 c-24 -26 -20 -34 8 -17 17 10 23 10 36 0 20 -17 20 -26 0
-46 -15 -15 -15 -17 0 -34 35 -39 12 -84 -38 -74 -28 6 -30 5 -17 -10 17 -22
40 -21 69 2 23 20 24 26 19 124 -4 77 -35 100 -77 55z"/>
<path d="M9522 4461 c-11 -7 -11 -9 1 -14 9 -3 17 -27 22 -62 5 -46 4 -60 -11
-76 -9 -10 -25 -19 -36 -19 -10 0 -18 -4 -18 -10 0 -5 9 -10 19 -10 27 0 84
68 75 89 -3 9 -8 32 -10 51 -7 61 -14 69 -42 51z"/>
<path d="M9615 4450 c4 -12 0 -31 -9 -45 -18 -27 -20 -35 -8 -35 11 0 42 59
42 81 0 11 -7 19 -16 19 -11 0 -14 -6 -9 -20z"/>
<path d="M9808 4409 c-16 -34 -28 -67 -28 -75 0 -8 -3 -14 -8 -14 -6 0 -17
-27 -39 -94 -4 -12 -2 -17 6 -15 11 4 53 96 75 162 22 66 25 -38 26 -810 2
-1049 2 -965 1 -1124 l-1 -136 -70 3 c-54 2 -70 0 -70 -11 0 -9 15 -15 43 -17
41 -4 42 -4 15 -15 -15 -7 -56 -26 -92 -43 -36 -16 -67 -30 -70 -30 -2 0 -33
-13 -68 -29 -35 -16 -92 -41 -127 -56 -35 -14 -111 -48 -168 -76 -58 -27 -107
-49 -110 -49 -3 0 -35 -14 -71 -31 -37 -17 -101 -44 -142 -61 -85 -33 -98 -39
-233 -102 -55 -25 -101 -46 -103 -46 -5 0 -45 -18 -169 -75 -44 -20 -102 -46
-130 -57 -27 -10 -82 -35 -122 -54 -39 -19 -74 -34 -78 -34 -4 0 -59 -25 -122
-55 -64 -30 -118 -55 -120 -55 -4 0 -89 -38 -358 -160 -38 -18 -88 -40 -110
-50 -67 -31 -146 -66 -225 -100 -41 -18 -94 -41 -117 -51 -23 -11 -44 -19 -47
-19 -4 0 -6 27 -6 61 0 37 -4 58 -10 54 -5 -3 -10 -35 -10 -71 l0 -64 -232 -1
c-128 -1 -241 -1 -250 0 -11 2 -18 -4 -18 -14 0 -14 27 -16 248 -15 l247 1 3
-75 c4 -101 22 -98 22 4 l0 80 293 0 c476 0 2374 11 2480 14 65 2 97 -1 98 -8
4 -45 6 -105 7 -268 1 -118 6 -188 12 -188 6 0 10 83 10 229 0 190 2 230 14
234 8 3 289 7 623 7 334 1 673 3 753 5 80 2 478 6 885 9 407 4 1022 9 1368 12
345 3 627 4 627 1 0 -2 -43 -25 -95 -52 -88 -44 -117 -66 -80 -61 24 3 245
120 245 129 0 4 -17 15 -37 23 -21 8 -60 26 -88 38 -27 13 -61 27 -75 31 -14
4 -31 12 -38 18 -15 12 -30 1 -16 -13 5 -5 44 -25 87 -43 42 -19 74 -36 71
-39 -3 -4 -333 -7 -732 -8 -400 -1 -747 -3 -772 -5 -42 -2 -374 -6 -2052 -21
l-688 -6 -1 483 c-1 266 -3 545 -4 619 -2 87 1 140 8 148 8 10 26 12 69 7 48
-6 58 -4 58 8 0 10 -11 17 -32 19 -30 3 -24 7 57 42 50 21 119 49 155 63 36
13 88 35 115 47 92 43 144 66 149 66 4 0 52 22 109 49 56 27 127 59 157 71 30
12 82 35 115 50 33 16 101 45 150 65 50 20 122 52 160 69 39 18 81 37 95 41
14 4 30 11 35 15 6 4 80 38 165 75 85 37 173 76 195 85 22 10 74 33 115 50 41
18 98 42 125 55 28 12 86 38 130 56 44 18 81 36 83 41 2 4 10 8 17 8 7 0 48
16 91 36 44 20 97 44 119 54 22 10 76 35 120 55 44 20 105 46 135 57 30 11 60
24 65 28 6 4 44 22 85 40 41 18 100 44 130 57 30 14 73 33 95 43 22 10 76 35
120 55 155 72 184 85 188 85 3 0 57 25 122 55 64 30 118 55 121 55 2 0 51 22
107 49 56 27 119 56 140 64 20 9 37 21 37 26 0 16 -19 13 -64 -8 -199 -94
-257 -121 -260 -121 -2 0 -57 -25 -122 -56 -66 -31 -146 -67 -179 -81 -33 -13
-91 -40 -130 -58 -108 -51 -340 -155 -348 -155 -4 0 -55 -23 -113 -50 -58 -28
-108 -50 -111 -50 -5 0 -47 -19 -268 -120 -22 -10 -62 -28 -90 -40 -27 -12
-82 -37 -122 -56 -39 -19 -74 -34 -78 -34 -3 0 -30 -11 -58 -24 -29 -12 -81
-36 -117 -51 -60 -26 -265 -116 -385 -170 -27 -12 -84 -37 -125 -55 -41 -18
-103 -45 -138 -61 -35 -16 -67 -29 -70 -29 -4 0 -23 -8 -42 -19 -19 -10 -46
-22 -60 -26 -14 -4 -50 -19 -80 -32 -47 -22 -113 -51 -370 -165 -25 -11 -63
-28 -85 -38 -22 -10 -62 -28 -90 -40 -27 -11 -59 -25 -70 -30 -11 -5 -55 -23
-97 -40 -43 -16 -86 -34 -95 -39 -48 -25 -103 -50 -117 -53 -15 -3 -17 83 -21
1035 -2 571 -1 1036 3 1033 4 -2 25 -41 47 -85 21 -45 45 -81 52 -81 14 0 3
32 -27 80 -8 14 -31 57 -50 97 -19 40 -39 72 -45 72 -5 1 -22 -27 -37 -60z
m35 -2371 c4 -128 7 -407 7 -619 l0 -386 -722 -7 c-2081 -19 -2108 -19 -2108
-7 0 6 5 11 11 11 5 0 35 11 65 25 30 14 57 25 60 25 5 0 22 8 189 85 44 20
94 42 110 50 17 7 55 24 85 38 30 14 98 44 150 67 52 23 109 48 125 55 17 7
75 34 130 60 55 26 163 74 240 107 77 33 185 81 240 105 55 25 120 54 145 65
25 11 63 28 85 38 22 10 78 35 125 55 47 20 109 48 138 61 29 13 54 24 57 24
2 0 34 14 72 31 96 43 120 54 192 84 35 14 110 48 166 75 57 26 112 51 123 54
11 4 52 22 91 41 40 19 75 35 79 35 4 0 32 13 62 29 30 16 60 29 66 30 7 1 13
-73 17 -231z"/>
<path d="M3267 4393 c-11 -10 -8 -51 3 -58 20 -12 50 6 50 30 0 27 -35 46 -53
28z m43 -28 c0 -8 -9 -15 -20 -15 -20 0 -26 11 -13 23 12 13 33 7 33 -8z"/>
<path d="M2280 4285 c0 -9 5 -15 10 -13 12 4 11 16 -1 24 -5 3 -9 -2 -9 -11z"/>
<path d="M2957 3712 c-20 -22 -22 -53 -5 -70 9 -9 9 -18 0 -37 -28 -61 -1
-105 52 -85 33 12 43 51 21 84 -12 18 -14 30 -8 39 21 27 22 48 3 67 -25 25
-42 25 -63 2z m47 -17 c8 -21 -3 -45 -20 -45 -8 0 -14 10 -14 23 0 36 22 51
34 22z m6 -137 c0 -23 -18 -32 -35 -18 -18 15 -19 42 -3 58 13 13 37 -12 38
-40z"/>
<path d="M2051 3713 c21 -5 25 -22 25 -106 -1 -49 -5 -70 -16 -77 -18 -12 -12
-13 70 -10 36 1 70 6 77 12 18 15 16 59 -3 73 -14 9 -14 16 -5 34 28 52 -12
82 -107 80 -31 -1 -50 -3 -41 -6z m108 -22 c30 -30 17 -61 -25 -61 -32 0 -34
2 -34 33 0 52 24 63 59 28z m24 -102 c14 -23 2 -47 -28 -55 -39 -10 -55 1 -55
39 0 19 2 36 5 39 10 10 68 -7 78 -23z"/>
<path d="M3265 3630 c-7 -23 10 -50 31 -50 21 0 38 38 23 56 -17 21 -47 17
-54 -6z m45 -15 c0 -8 -6 -15 -14 -15 -17 0 -28 14 -19 24 12 12 33 6 33 -9z"/>
<path d="M2272 3534 c2 -11 8 -18 13 -16 15 3 12 25 -3 30 -9 3 -13 -2 -10
-14z"/>
<path d="M2114 2960 c-35 -14 -54 -50 -54 -103 0 -38 5 -53 25 -72 31 -32 91
-34 129 -4 37 29 26 34 -18 8 -35 -21 -36 -21 -68 -2 -72 42 -52 163 28 163
24 0 38 -7 53 -27 l21 -28 -2 30 c-2 20 -10 32 -23 37 -28 9 -66 8 -91 -2z"/>
<path d="M2950 2950 c-39 -39 -20 -110 30 -110 17 0 30 -3 30 -8 0 -16 -33
-54 -54 -62 l-21 -9 21 0 c43 -2 94 73 94 137 0 31 -36 72 -63 72 -9 0 -26 -9
-37 -20z m70 -57 c0 -32 -2 -34 -27 -31 -24 2 -29 8 -31 36 -2 18 2 40 9 48
19 23 49 -10 49 -53z"/>
<path d="M3271 2877 c-25 -31 13 -66 46 -42 14 11 16 18 7 32 -14 23 -38 28
-53 10z m39 -24 c0 -20 -24 -11 -28 10 -2 12 1 15 12 11 9 -3 16 -13 16 -21z"/>
<path d="M2270 2775 c0 -8 7 -15 15 -15 8 0 15 7 15 15 0 8 -7 15 -15 15 -8 0
-15 -7 -15 -15z"/>
<path d="M9517 2434 c-3 -3 -2 -17 4 -31 12 -33 12 -130 -1 -154 -10 -17 -7
-19 22 -19 25 0 29 3 20 12 -8 8 -12 46 -12 105 0 71 -3 93 -13 93 -8 0 -16
-3 -20 -6z"/>
<path d="M2063 2210 c14 -9 17 -26 17 -92 0 -65 -3 -83 -17 -94 -16 -12 -10
-13 40 -14 108 0 152 36 145 123 -4 58 -36 78 -130 84 -56 3 -69 2 -55 -7z
m142 -37 c8 -10 15 -37 15 -60 0 -33 -5 -46 -26 -62 -15 -12 -40 -21 -55 -21
l-29 0 0 86 0 87 41 -6 c22 -3 47 -13 54 -24z"/>
<path d="M2958 2209 c-26 -15 -23 -32 3 -18 31 16 56 -9 40 -40 -7 -11 -16
-21 -21 -21 -6 0 -10 -4 -10 -10 0 -5 7 -10 15 -10 25 0 36 -34 19 -59 -13
-18 -22 -21 -45 -16 -24 5 -28 4 -23 -9 16 -43 98 0 95 50 -1 16 -2 49 -4 74
-1 25 -6 51 -10 58 -10 14 -35 15 -59 1z"/>
<path d="M3102 2208 c-16 -16 -15 -33 1 -20 23 19 52 7 55 -22 3 -21 -2 -29
-17 -33 -27 -7 -27 -16 1 -28 48 -21 27 -81 -24 -71 -15 3 -28 1 -28 -4 0 -16
20 -22 51 -15 43 10 64 58 41 97 -14 23 -14 31 -2 52 10 21 11 28 0 41 -15 18
-61 20 -78 3z"/>
<path d="M3438 2143 c-23 -6 -24 -51 -2 -60 20 -8 48 8 52 30 4 18 -25 35 -50
30z m30 -30 c-5 -25 -28 -28 -28 -4 0 12 6 21 16 21 9 0 14 -7 12 -17z"/>
<path d="M2292 2034 c2 -11 8 -18 13 -16 15 3 12 25 -3 30 -9 3 -13 -2 -10
-14z"/>
<path d="M14327 1013 c-13 -13 -7 -21 13 -16 15 4 20 0 20 -15 0 -12 -5 -24
-11 -27 -6 -5 -4 -11 6 -19 27 -20 15 -51 -19 -49 -17 1 -26 -2 -23 -10 4 -14
46 -10 65 6 10 8 12 25 7 61 -8 57 -37 91 -58 69z"/>
<path d="M9661 893 c-28 -11 -71 -67 -77 -100 -7 -38 2 -84 19 -95 23 -15 79
-8 109 14 37 25 72 100 64 133 -12 47 -63 68 -115 48z m71 -20 c23 -20 23 -47
-1 -100 -24 -51 -61 -78 -97 -69 -25 7 -26 9 -22 68 4 53 9 65 36 89 37 33 58
36 84 12z"/>
<path d="M14178 853 c7 -3 17 -16 23 -30 11 -30 -14 -73 -44 -73 -16 0 -18 -3
-9 -12 9 -9 17 -7 35 10 27 26 37 28 37 8 0 -23 20 -30 37 -13 14 14 14 15 -3
14 -16 -2 -19 5 -19 38 0 34 3 40 23 43 12 2 22 8 22 13 0 15 -26 10 -41 -7
-11 -14 -13 -14 -21 0 -5 9 -19 16 -31 15 -12 0 -16 -3 -9 -6z"/>
<path d="M7034 719 c-32 -40 -84 -120 -84 -128 0 -6 17 -11 38 -13 30 -2 38
-7 40 -25 4 -29 22 -30 22 -3 0 11 7 23 15 26 19 8 20 24 0 24 -11 0 -15 16
-17 67 -2 51 -6 63 -14 52z m-4 -79 c0 -38 -2 -40 -30 -40 -16 0 -30 3 -30 6
0 7 51 74 56 74 2 0 4 -18 4 -40z"/>
<path d="M6845 609 c-75 -6 -65 -11 27 -13 32 0 58 2 58 6 0 12 -13 13 -85 7z"/>
</g>
</svg>
