<?xml version="1.0" standalone="no"?>
<!DOCTYPE svg PUBLIC "-//W3C//DTD SVG 20010904//EN"
 "http://www.w3.org/TR/2001/REC-SVG-20010904/DTD/svg10.dtd">
<svg version="1.0" xmlns="http://www.w3.org/2000/svg"
 width="1482.000000pt" height="596.000000pt" viewBox="0 0 1482.000000 596.000000"
 preserveAspectRatio="xMidYMid meet">
<metadata>
Created by potrace 1.16, written by Peter Selinger 2001-2019
</metadata>
<g transform="translate(0.000000,596.000000) scale(0.100000,-0.100000)"
fill="#000000" stroke="none">
<path d="M12533 5793 c-24 -9 -13 -23 12 -17 40 10 43 -20 6 -72 -17 -25 -31
-47 -31 -50 0 -10 74 1 77 12 2 7 -6 10 -23 6 l-27 -5 27 39 c14 21 26 46 26
54 0 32 -33 47 -67 33z"/>
<path d="M5150 5725 c0 -22 -4 -25 -36 -25 -22 0 -33 -4 -29 -11 4 -6 13 -8
21 -5 32 12 44 -5 44 -65 l0 -59 -40 0 c-22 0 -40 -5 -40 -10 0 -12 274 -9
286 3 4 4 -11 7 -34 7 l-42 0 0 53 c0 62 7 75 39 73 13 0 26 5 29 13 4 11 -3
12 -33 7 -34 -7 -36 -6 -30 13 5 15 2 21 -9 21 -9 0 -16 -9 -16 -20 0 -17 -7
-20 -46 -20 -40 0 -45 2 -39 19 3 12 0 21 -10 25 -11 4 -15 -1 -15 -19z m110
-57 c0 -14 -9 -18 -39 -18 -39 0 -57 11 -47 29 3 5 24 8 46 8 31 -2 40 -6 40
-19z m0 -48 c0 -17 -6 -20 -40 -17 -22 2 -42 6 -46 9 -14 14 9 28 47 28 32 0
39 -3 39 -20z m0 -45 c0 -10 -11 -15 -35 -15 -19 0 -38 -1 -42 -2 -4 -2 -9 5
-11 15 -3 14 4 17 42 17 34 0 46 -4 46 -15z"/>
<path d="M6188 5728 c-3 -20 -8 -22 -55 -19 -33 1 -53 -2 -53 -8 0 -6 18 -11
39 -11 22 0 43 -5 46 -10 4 -6 -14 -32 -39 -57 -54 -53 -54 -68 0 -27 l37 29
-6 -55 c-3 -30 -9 -66 -13 -79 -5 -16 -4 -22 4 -17 6 3 13 20 17 36 6 30 8 30
71 30 62 0 65 -1 62 -22 -2 -17 -9 -22 -26 -21 -12 2 -22 -1 -22 -6 0 -11 48
-24 60 -16 6 4 10 45 10 93 l0 88 -72 -4 c-64 -4 -70 -3 -65 13 4 9 7 19 7 21
0 2 41 4 91 4 67 0 90 3 87 12 -3 9 -29 12 -89 9 -68 -2 -82 0 -71 10 16 17
15 29 -2 29 -8 0 -16 -10 -18 -22z m107 -99 c4 -6 4 -13 1 -16 -8 -8 -114 -8
-122 0 -15 15 12 27 61 27 30 0 57 -5 60 -11z m5 -54 c0 -17 3 -16 -68 -18
-30 -1 -56 1 -59 5 -11 19 12 28 68 28 46 0 59 -3 59 -15z"/>
<path d="M7227 5731 c4 -17 0 -18 -50 -14 l-54 5 -5 -100 c-4 -55 -11 -109
-18 -122 -17 -32 -4 -36 16 -4 11 16 20 52 22 90 4 61 5 62 31 59 20 -2 25 -8
24 -24 -3 -19 2 -21 53 -21 46 0 54 3 52 17 -2 11 7 19 30 25 41 11 43 32 3
23 -26 -5 -30 -4 -28 14 1 17 8 21 34 21 18 0 33 5 33 11 0 7 -18 8 -54 4 -49
-6 -55 -5 -65 14 -14 26 -31 28 -24 2z m-29 -48 c-2 -11 -14 -18 -31 -20 -21
-1 -27 3 -27 18 0 15 7 19 31 19 23 0 30 -4 27 -17z m80 0 c-2 -11 -14 -19
-31 -21 -22 -3 -27 1 -27 17 0 17 6 21 31 21 24 0 30 -4 27 -17z m-8 -53 c0
-15 -7 -20 -25 -20 -18 0 -25 5 -25 20 0 15 7 20 25 20 18 0 25 -5 25 -20z"/>
<path d="M8273 5729 c-4 -15 -12 -20 -27 -17 -16 3 -25 -2 -33 -19 -13 -27 -7
-29 19 -6 30 27 31 8 3 -38 -22 -34 -29 -39 -36 -27 -5 10 -17 14 -34 10 -27
-5 -29 2 -16 48 5 17 16 27 36 31 21 5 11 7 -30 7 -33 0 -52 -2 -42 -5 16 -4
18 -11 12 -51 -4 -26 -14 -56 -23 -66 -16 -18 -16 -19 1 -13 15 6 17 0 17 -44
0 -43 3 -50 16 -45 9 3 26 6 39 6 21 0 22 3 17 46 -3 33 -1 49 9 55 26 16 29
9 29 -62 0 -61 2 -70 16 -65 9 3 42 6 75 6 33 0 59 4 59 10 0 6 -16 10 -35 10
-24 0 -35 5 -35 15 0 10 10 15 30 15 17 0 30 5 30 10 0 6 -13 10 -30 10 -20 0
-30 5 -30 15 0 10 10 15 30 15 17 0 30 5 30 11 0 6 -12 9 -27 7 -20 -2 -29 2
-31 15 -3 14 4 17 32 17 20 0 36 5 36 11 0 7 -11 9 -29 6 -23 -5 -33 -1 -45
16 -15 20 -16 20 -14 2 2 -12 -4 -21 -14 -23 -21 -4 -23 17 -5 42 15 20 74 19
70 -1 -4 -16 9 -17 25 -1 25 25 13 36 -34 30 -44 -5 -46 -4 -39 17 4 13 2 21
-5 21 -7 0 -14 -9 -17 -21z m15 -116 c-2 -10 -10 -18 -18 -18 -8 0 -16 8 -18
18 -2 12 3 17 18 17 15 0 20 -5 18 -17z m-118 -43 c0 -38 -4 -50 -15 -50 -11
0 -15 12 -15 50 0 38 4 50 15 50 11 0 15 -12 15 -50z m120 -5 c0 -8 -9 -15
-20 -15 -11 0 -20 7 -20 15 0 8 9 15 20 15 11 0 20 -7 20 -15z m0 -50 c0 -8
-9 -15 -20 -15 -11 0 -20 7 -20 15 0 8 9 15 20 15 11 0 20 -7 20 -15z"/>
<path d="M8675 5740 c-3 -5 -25 -11 -48 -11 -50 -2 -104 -12 -97 -19 3 -3 -8
-22 -24 -43 -16 -21 -26 -40 -22 -44 3 -4 23 -7 44 -7 31 -1 38 -5 40 -23 3
-22 0 -23 -53 -23 -35 0 -54 -4 -50 -10 3 -5 26 -10 50 -10 48 0 60 -9 50 -41
-6 -19 -13 -21 -71 -17 -42 3 -63 0 -61 -7 2 -5 9 -10 15 -9 7 1 71 2 142 3
81 0 130 5 130 11 0 7 -23 8 -65 4 l-65 -7 0 32 c0 30 1 31 44 31 25 0 48 5
51 10 7 11 -5 14 -57 11 -39 -3 -46 7 -32 43 7 19 64 22 82 4 9 -9 12 -8 12 4
0 17 -54 68 -72 68 -6 0 -3 -9 7 -20 10 -11 16 -22 14 -25 -7 -6 -118 -9 -124
-3 -3 3 7 19 22 37 26 29 31 31 100 31 72 0 86 7 59 29 -10 8 -16 9 -21 1z"/>
<path d="M9150 5714 c0 -26 -5 -34 -22 -37 l-23 -4 23 -2 c19 -1 22 -7 22 -41
0 -33 -3 -40 -20 -40 -11 0 -20 -4 -20 -10 0 -5 9 -10 20 -10 17 0 20 -7 20
-41 0 -32 -3 -40 -15 -36 -8 4 -17 2 -20 -2 -5 -9 17 -21 41 -21 10 0 14 14
14 56 0 48 4 60 26 80 30 29 67 32 62 7 -2 -11 -14 -19 -31 -21 -15 -2 -27 -7
-27 -12 0 -5 9 -7 21 -5 18 4 20 1 15 -19 -4 -18 -1 -25 14 -29 30 -8 24 -27
-10 -34 -17 -3 -33 -10 -36 -14 -9 -15 40 -9 60 6 25 19 53 19 90 0 34 -18 36
-18 36 -5 0 6 -17 19 -39 28 -38 17 -38 18 -25 45 10 18 23 27 39 27 14 0 25
5 25 11 0 5 -8 9 -17 7 -10 -1 -23 1 -30 5 -7 4 -21 2 -32 -5 -23 -14 -34 -8
-25 16 4 12 19 16 55 16 29 0 49 4 49 11 0 7 -10 9 -24 5 -14 -3 -27 -2 -31 3
-6 10 32 51 47 51 5 0 6 5 2 11 -4 6 -19 8 -37 5 -23 -5 -36 -1 -55 16 l-24
23 6 -22 c7 -21 4 -23 -31 -24 -34 0 -36 -2 -16 -11 21 -10 36 -41 25 -52 -3
-3 -15 -6 -28 -6 -12 0 -24 -7 -28 -15 -9 -25 -28 -17 -24 12 2 19 10 29 28
34 24 7 21 11 -10 13 -10 1 -14 11 -13 32 2 21 -2 31 -12 31 -10 0 -15 -11
-15 -33z m180 -26 c-1 -18 -25 -48 -39 -48 -9 0 -31 39 -31 56 0 2 16 4 35 4
22 0 35 -5 35 -12z m-22 -130 c-3 -25 -34 -36 -52 -18 -8 8 -6 15 8 26 29 21
48 18 44 -8z"/>
<path d="M9480 5739 c1 -15 23 -49 34 -49 13 0 5 28 -14 45 -15 14 -20 15 -20
4z"/>
<path d="M9837 5721 c-6 -17 -17 -31 -24 -31 -10 0 -13 -24 -13 -93 l0 -93 36
4 c24 3 39 0 45 -9 5 -9 9 14 9 59 0 52 4 72 13 72 7 0 20 12 29 28 15 25 21
27 63 24 l47 -4 -6 -37 c-3 -20 -6 -55 -6 -78 0 -49 -20 -74 -52 -66 l-23 5
23 -17 c48 -35 67 -3 76 130 l5 90 -55 -3 c-55 -4 -55 -4 -48 22 4 16 2 26 -5
26 -6 0 -11 -5 -11 -12 0 -21 -32 -98 -41 -98 -5 0 -9 14 -9 30 0 27 -2 29
-19 21 -26 -14 -34 -2 -16 25 10 15 11 25 4 29 -5 4 -15 -7 -22 -24z m43 -81
c0 -28 -3 -30 -35 -30 -32 0 -35 2 -35 30 0 28 3 30 35 30 32 0 35 -2 35 -30z
m0 -75 c0 -33 -2 -35 -35 -35 -33 0 -35 2 -35 35 0 33 2 35 35 35 33 0 35 -2
35 -35z"/>
<path d="M11349 5745 c-1 -5 0 -18 1 -28 1 -15 -3 -17 -19 -12 -12 3 -21 2
-21 -3 0 -11 52 -19 88 -14 27 4 30 22 3 22 -10 0 -26 10 -34 23 -9 12 -17 18
-18 12z"/>
<path d="M11498 5742 c-34 -3 -38 -6 -38 -30 0 -15 -7 -36 -15 -46 -19 -25
-19 -42 -1 -26 8 6 20 27 26 46 9 28 17 34 33 32 15 -2 21 -9 19 -20 -5 -32
17 -58 48 -58 17 0 30 5 30 10 0 6 -14 10 -31 10 -31 0 -32 1 -26 40 6 46 5
46 -45 42z"/>
<path d="M12950 5725 c0 -30 -16 -33 -23 -5 -3 11 -10 20 -17 20 -7 0 -9 -8
-5 -20 5 -14 2 -20 -9 -20 -9 0 -16 -4 -16 -8 0 -5 14 -6 31 -4 27 4 30 2 26
-14 -4 -11 -9 -32 -13 -49 -4 -16 -22 -51 -40 -77 -19 -27 -30 -48 -24 -48 5
0 22 18 36 40 l27 40 83 0 84 0 0 -28 c0 -33 -16 -52 -44 -53 -20 0 -20 -1 1
-11 31 -15 50 3 58 55 8 55 6 63 -18 59 -16 -3 -18 0 -12 28 7 30 5 31 -15 25
-21 -7 -22 -5 -16 19 6 25 5 26 -40 26 -44 0 -46 1 -40 25 4 14 2 25 -4 25 -5
0 -10 -11 -10 -25z m78 -57 c3 -14 -4 -18 -32 -18 -36 0 -52 12 -41 31 11 17
69 6 73 -13z m30 -50 c3 -16 -5 -18 -62 -18 -36 0 -66 4 -66 8 0 21 28 33 75
30 38 -2 51 -7 53 -20z"/>
<path d="M13200 5731 c15 -28 13 -34 -10 -28 -11 3 -20 2 -20 -3 0 -13 23 -16
60 -9 19 3 28 7 19 8 -9 0 -21 12 -27 26 -6 14 -16 25 -22 25 -7 0 -8 -6 0
-19z"/>
<path d="M13320 5743 c0 -7 5 -15 10 -18 18 -11 -2 -27 -26 -21 -13 4 -24 2
-24 -3 0 -5 10 -11 21 -14 l21 -6 -21 -29 c-28 -40 -27 -50 7 -54 l27 -3 -35
-22 c-25 -16 -36 -19 -42 -11 -4 7 -23 13 -42 14 l-36 1 0 -46 0 -46 59 0 c46
0 67 5 91 23 34 25 53 20 65 -19 4 -10 11 -19 16 -19 17 0 9 24 -18 52 -24 25
-25 29 -11 45 23 27 30 43 20 43 -5 0 -20 -16 -34 -35 -24 -35 -84 -85 -100
-85 -4 0 -8 11 -8 24 0 17 9 27 31 36 17 7 42 30 56 52 14 21 30 38 34 38 5 0
9 7 9 15 0 22 -12 18 -35 -11 -13 -16 -28 -25 -39 -23 -17 4 -16 7 8 36 22 26
34 32 58 30 20 -1 33 3 36 12 3 10 -2 12 -21 7 -20 -5 -32 0 -52 21 -14 15
-25 22 -25 16z m-80 -213 c0 -23 -4 -30 -20 -30 -16 0 -20 7 -20 30 0 23 4 30
20 30 16 0 20 -7 20 -30z"/>
<path d="M13840 5743 c0 -4 8 -17 16 -28 15 -20 16 -20 12 4 -3 22 -28 44 -28
24z"/>
<path d="M13957 5743 c-14 -13 -6 -23 21 -24 24 -2 25 -2 4 -6 -14 -3 -32 3
-43 13 -18 17 -19 16 -19 -31 0 -33 4 -46 13 -42 47 18 57 18 51 3 -4 -10 -18
-16 -39 -16 -21 0 -35 -6 -39 -16 -9 -24 -7 -29 6 -16 17 17 33 15 18 -3 -19
-22 3 -18 35 7 l27 21 19 -24 c18 -22 20 -23 33 -6 7 9 21 17 30 17 9 0 16 5
16 10 0 6 -13 10 -29 10 -16 0 -35 7 -42 17 -13 15 -12 15 8 2 27 -16 29 -15
37 37 l6 42 -45 -6 c-30 -3 -45 -1 -45 7 0 12 -13 15 -23 4z m88 -63 c3 -6 -1
-7 -9 -4 -18 7 -21 14 -7 14 6 0 13 -4 16 -10z"/>
<path d="M14395 5738 c-4 -9 -24 -29 -46 -44 -44 -30 -46 -44 -2 -20 51 28 77
56 65 68 -8 8 -13 7 -17 -4z"/>
<path d="M1579 5733 c-1 -5 0 -19 1 -31 2 -23 -1 -24 -55 -20 l-56 3 3 -65 3
-64 53 3 53 3 -7 -51 c-4 -35 -3 -51 5 -51 7 0 11 21 11 54 l0 54 51 -2 52 -1
1 58 1 57 -53 0 -54 0 7 30 c4 19 3 30 -4 30 -6 0 -11 -3 -12 -7z m-1 -110 l3
-43 -45 0 -46 0 0 39 c0 33 4 40 23 44 52 11 62 4 65 -40z m85 38 c13 -1 17
-10 17 -41 l0 -40 -45 0 -45 0 0 38 c0 46 3 49 32 46 13 -1 31 -3 41 -3z"/>
<path d="M3386 5718 c5 -22 2 -27 -18 -31 -15 -3 -9 -5 16 -6 35 -1 38 -3 32
-23 -4 -13 -9 -35 -12 -50 -4 -15 -22 -46 -41 -68 -20 -23 -33 -44 -29 -47 7
-8 38 23 55 55 11 20 19 22 102 22 l90 0 -2 -27 c-4 -39 -17 -53 -47 -53 -26
0 -26 0 -5 -15 28 -20 50 -10 62 28 20 63 18 82 -7 85 -20 3 -22 7 -17 34 6
27 5 29 -14 23 -18 -5 -21 -2 -21 19 0 24 -3 26 -45 26 -43 0 -45 1 -39 25 4
15 2 25 -5 25 -6 0 -11 -11 -11 -25 0 -14 -4 -25 -10 -25 -5 0 -10 4 -10 8 0
5 -7 17 -15 28 -15 18 -15 18 -9 -8z m122 -60 c3 -14 -4 -18 -31 -18 -39 0
-48 6 -40 27 8 21 67 13 71 -9z m38 -45 c-2 -15 -15 -19 -69 -21 -37 -2 -67 1
-67 6 0 21 28 32 81 32 49 0 57 -3 55 -17z"/>
<path d="M4030 5733 c1 -14 30 -47 36 -41 6 7 -17 48 -28 48 -5 0 -8 -3 -8 -7z"/>
<path d="M4150 5729 c0 -6 -9 -8 -21 -4 -20 7 -21 4 -18 -43 4 -54 -6 -72 -42
-72 -20 0 -21 1 -5 25 9 14 15 26 14 26 -15 6 -68 4 -68 -2 0 -5 7 -9 16 -9
13 0 15 -7 11 -30 -5 -23 -3 -30 9 -30 22 0 10 -47 -18 -77 -24 -26 -19 -40 8
-25 12 7 28 5 51 -5 36 -14 172 -21 192 -9 16 10 4 26 -14 20 -8 -3 -18 -3
-24 0 -13 9 9 64 29 70 11 3 10 6 -7 11 -32 10 -38 35 -8 35 13 0 27 5 30 10
3 6 -2 10 -12 10 -15 0 -18 7 -15 49 l4 49 -41 -5 c-27 -4 -41 -2 -41 6 0 6
-7 11 -15 11 -8 0 -15 -5 -15 -11z m30 -23 c0 -9 -40 -13 -46 -5 -3 5 6 9 20
9 14 0 26 -2 26 -4z m45 -17 c-3 -12 -7 -24 -10 -27 -10 -10 -35 -11 -35 -1 0
5 7 9 15 9 18 0 19 12 3 28 -9 9 -7 12 9 12 17 0 21 -5 18 -21z m-60 -49 c3
-6 -4 -10 -17 -10 -18 0 -20 2 -8 10 19 12 18 12 25 0z m-41 -45 c-4 -8 -10
-15 -15 -15 -5 0 -9 -4 -9 -10 0 -5 9 -10 20 -10 26 0 26 -21 0 -43 -22 -18
-46 -22 -54 -8 -9 14 12 72 31 87 24 18 34 17 27 -1z m83 0 c2 -6 -15 -11 -38
-12 -38 -2 -40 -1 -23 12 21 16 56 16 61 0z m18 -35 c4 -6 -6 -10 -22 -9 -25
0 -26 1 -8 9 11 5 21 9 22 9 1 1 5 -3 8 -9z m0 -30 c4 -6 -5 -10 -21 -10 -22
0 -25 -2 -14 -15 11 -13 7 -15 -29 -15 -22 0 -41 2 -41 5 0 2 10 13 22 25 23
21 72 27 83 10z"/>
<path d="M4572 5720 c-7 -11 -27 -29 -45 -40 -33 -21 -21 -28 14 -9 27 14 59
46 59 59 0 17 -14 11 -28 -10z"/>
<path d="M5538 5713 c-3 -26 -6 -28 -50 -27 l-48 0 0 -61 0 -62 50 5 50 5 0
-51 c0 -28 5 -54 10 -57 6 -4 10 15 10 49 l0 56 55 0 55 0 0 59 0 59 -42 -3
c-57 -4 -69 2 -62 31 5 18 2 24 -9 24 -10 0 -17 -11 -19 -27z m0 -84 c-3 -40
-4 -42 -40 -46 l-38 -4 0 46 0 45 41 0 40 0 -3 -41z m110 -1 c-3 -43 -3 -43
-43 -43 -40 0 -40 0 -43 43 l-3 42 46 0 46 0 -3 -42z"/>
<path d="M5830 5730 c-8 -5 -27 -10 -41 -10 l-27 0 -1 -100 c-1 -55 -6 -111
-11 -125 -6 -16 -6 -25 0 -25 5 0 14 19 21 43 6 23 13 48 15 55 2 7 20 12 44
12 l40 0 0 44 0 45 -42 3 c-56 4 -54 19 4 38 48 15 63 30 31 30 -10 0 -25 -5
-33 -10z m30 -104 c0 -20 -6 -24 -36 -28 -38 -4 -51 8 -40 37 3 9 19 15 41 15
30 0 35 -3 35 -24z"/>
<path d="M5970 5730 c-8 -5 -27 -10 -41 -10 -26 0 -26 -1 -31 -89 -4 -67 -11
-99 -26 -125 -12 -20 -17 -36 -12 -36 15 0 39 43 46 81 13 77 14 79 39 79 25
0 25 -1 25 -85 0 -50 4 -85 10 -85 6 0 10 35 10 85 0 78 2 85 20 85 11 0 20 5
20 10 0 6 -20 8 -55 4 l-55 -7 0 31 c0 27 5 32 38 41 20 6 43 11 50 11 6 0 12
5 12 10 0 13 -30 13 -50 0z"/>
<path d="M6477 5733 c-4 -3 -7 -15 -7 -25 0 -11 -7 -18 -20 -18 -19 0 -20 -7
-20 -100 0 -60 4 -100 10 -100 6 0 10 5 10 10 0 14 54 12 68 -2 9 -9 12 3 12
55 0 37 4 67 10 67 5 0 16 14 25 30 14 27 21 30 60 30 l45 0 0 -69 c0 -93 -12
-125 -45 -117 -14 4 -25 2 -25 -4 0 -5 12 -13 27 -16 44 -12 54 13 67 168 l4
56 -55 -5 -56 -6 7 26 c11 47 -11 29 -30 -23 -20 -54 -34 -65 -34 -24 0 20 -4
25 -22 22 -23 -3 -25 2 -13 35 7 17 -5 24 -18 10z m43 -93 c0 -28 -3 -30 -35
-30 -32 0 -35 2 -35 30 0 28 3 30 35 30 32 0 35 -2 35 -30z m-12 -50 c9 0 12
-11 10 -32 -3 -29 -6 -33 -33 -33 -28 0 -30 3 -33 39 -3 36 -2 38 20 32 13 -3
29 -6 36 -6z"/>
<path d="M6812 5694 c3 -42 2 -44 -24 -44 -16 0 -28 -4 -28 -10 0 -5 12 -10
28 -10 26 0 27 -2 24 -45 l-4 -45 36 0 c20 0 36 -5 36 -11 0 -8 -17 -10 -50
-7 -27 3 -50 1 -50 -3 0 -10 1 -11 58 -12 69 -2 48 -17 -24 -17 -41 0 -63 -4
-59 -10 7 -12 275 -14 275 -2 0 4 -7 16 -15 27 -12 15 -25 18 -60 16 -25 -1
-45 2 -45 7 0 14 25 22 49 15 18 -5 21 -1 23 28 0 19 1 40 1 47 -1 6 7 12 18
12 19 0 35 17 25 28 -4 3 -15 2 -24 -3 -9 -6 -51 -7 -92 -4 l-75 5 65 2 c77 3
87 8 91 47 l4 30 -93 1 -94 2 4 -44z m148 16 c11 -7 -5 -10 -52 -10 -37 0 -70
5 -73 10 -8 13 105 13 125 0z m0 -30 c0 -6 -28 -10 -65 -10 -37 0 -65 4 -65
10 0 6 28 10 65 10 37 0 65 -4 65 -10z m-57 -57 c-13 -2 -35 -2 -50 0 -16 2
-5 4 22 4 28 0 40 -2 28 -4z m-23 -29 c0 -9 -10 -13 -25 -12 -14 1 -25 8 -25
14 0 6 11 12 25 12 14 0 25 -6 25 -14z m80 1 c0 -9 -9 -15 -25 -15 -16 0 -25
6 -25 15 0 9 9 15 25 15 16 0 25 -6 25 -15z m-87 -32 c-7 -2 -21 -2 -30 0 -10
3 -4 5 12 5 17 0 24 -2 18 -5z m80 0 c-7 -2 -21 -2 -30 0 -10 3 -4 5 12 5 17
0 24 -2 18 -5z m47 -64 c0 -5 -20 -9 -45 -9 -25 0 -45 4 -45 8 0 5 20 9 45 10
25 0 45 -4 45 -9z"/>
<path d="M7470 5700 c0 -33 -3 -40 -20 -40 -11 0 -20 -4 -20 -10 0 -5 8 -10
19 -10 29 0 28 -74 -2 -95 -11 -8 -18 -18 -14 -22 9 -8 72 23 90 45 10 13 9
14 -10 4 -27 -15 -32 -7 -26 36 3 19 11 32 20 32 8 0 13 6 10 13 -2 6 -10 11
-17 9 -9 -2 -11 8 -7 38 4 30 2 40 -9 40 -10 0 -14 -12 -14 -40z"/>
<path d="M7570 5727 c0 -7 -9 -31 -19 -53 -14 -28 -16 -41 -8 -46 19 -12 97
-9 97 3 0 7 -14 9 -40 5 -43 -6 -59 6 -40 29 8 10 32 15 68 15 l55 0 -6 -77
c-7 -105 -12 -115 -51 -108 -29 6 -30 5 -12 -10 28 -22 55 -19 65 8 5 12 12
62 16 110 l7 87 -61 0 c-48 0 -61 3 -61 15 0 8 5 15 10 15 6 0 10 5 10 10 0 6
-7 10 -15 10 -8 0 -15 -6 -15 -13z"/>
<path d="M7790 5729 c0 -8 32 -29 44 -29 3 0 3 6 0 14 -6 16 -44 29 -44 15z"/>
<path d="M7864 5698 c-29 -64 -29 -64 -11 -49 15 12 17 9 17 -33 0 -25 5 -46
10 -46 6 0 10 -7 10 -15 0 -12 -14 -15 -66 -15 -36 0 -63 -4 -60 -8 3 -5 32
-8 66 -6 l60 2 0 -34 c0 -21 4 -33 10 -29 6 3 10 19 10 35 0 28 1 29 47 26 49
-4 73 1 73 14 0 5 -27 6 -60 3 -51 -5 -60 -3 -60 11 0 17 9 19 78 16 24 -1 42
3 42 9 0 6 -18 11 -40 11 -48 0 -54 17 -7 22 17 2 30 7 27 13 -3 5 -17 8 -32
6 -20 -2 -28 2 -28 13 0 10 12 16 38 19 l37 4 -37 1 c-51 3 -49 22 2 22 22 0
40 5 40 10 0 6 -16 10 -36 10 -23 0 -42 6 -50 18 -13 16 -13 16 -14 0 0 -11
-8 -18 -20 -18 -13 0 -18 5 -14 15 4 8 2 15 -3 15 -5 0 -18 -19 -29 -42z m66
-18 c0 -5 -11 -10 -25 -10 -14 0 -25 5 -25 10 0 6 11 10 25 10 14 0 25 -4 25
-10z m0 -36 c0 -10 -7 -14 -22 -12 -32 5 -35 28 -4 28 17 0 26 -5 26 -16z m0
-39 c0 -21 -28 -31 -43 -16 -9 9 -8 14 3 21 22 14 40 12 40 -5z"/>
<path d="M8820 5693 c0 -24 5 -43 10 -43 6 0 10 16 10 35 l0 35 70 0 70 0 0
-35 c0 -19 5 -35 10 -35 6 0 10 20 10 46 l0 45 -90 -2 -90 -3 0 -43z"/>
<path d="M9655 5730 c-11 -5 -36 -9 -55 -9 l-35 -1 -2 -75 c-1 -41 -7 -85 -14
-96 -6 -11 -8 -23 -6 -26 9 -8 35 51 39 87 4 31 8 35 36 38 l32 3 0 -71 c0
-45 4 -69 10 -65 6 3 10 35 10 71 l0 64 30 0 c17 0 30 4 30 9 0 4 -31 6 -69 3
-70 -5 -86 2 -75 32 4 9 18 16 34 16 42 0 90 11 90 21 0 11 -28 10 -55 -1z"/>
<path d="M14164 5729 c-2 -4 5 -9 17 -12 17 -5 20 -12 17 -44 -2 -29 -7 -38
-20 -37 -10 1 -18 -2 -18 -7 0 -5 9 -9 20 -9 27 0 26 -40 0 -99 -11 -24 -18
-46 -16 -48 8 -9 35 42 48 92 13 50 25 68 40 59 4 -3 8 -39 8 -80 0 -46 4 -74
11 -74 6 0 10 24 9 63 -2 87 -2 87 20 87 11 0 20 5 20 10 0 6 -9 10 -20 10
-17 0 -20 7 -20 40 0 29 4 40 15 40 8 0 15 4 15 8 0 9 -140 10 -146 1z m96
-49 c0 -33 -3 -40 -20 -40 -16 0 -20 7 -20 33 0 36 6 47 27 47 9 0 13 -13 13
-40z"/>
<path d="M1120 5595 l0 -130 125 0 125 0 0 80 c0 44 3 103 6 130 l6 50 -131 0
-131 0 0 -130z m240 5 l0 -110 -87 2 c-81 2 -83 2 -22 5 l66 4 6 52 c3 29 8
60 12 69 5 12 2 16 -12 13 -10 -2 -25 -4 -33 -5 -10 -1 -9 -4 5 -10 15 -6 6
-9 -35 -11 l-55 -3 48 -3 c46 -4 50 -7 50 -48 0 -8 -1 -19 -2 -25 0 -5 -26
-10 -57 -10 l-57 0 5 45 c4 34 2 45 -8 45 -10 0 -14 -16 -14 -60 0 -47 -3 -60
-15 -60 -12 0 -15 19 -15 110 l0 110 110 0 110 0 0 -110z"/>
<path d="M1190 5676 c0 -20 5 -26 21 -26 12 0 17 -4 13 -11 -3 -6 -19 -9 -35
-7 -16 3 -29 1 -29 -4 0 -10 69 -9 95 2 11 5 16 9 10 10 -5 1 1 5 15 9 14 4
26 15 28 24 3 14 -4 17 -41 17 -25 0 -52 3 -61 6 -12 5 -16 0 -16 -20z m90 -6
c0 -5 -13 -10 -29 -10 -17 0 -33 5 -36 10 -4 6 8 10 29 10 20 0 36 -4 36 -10z"/>
<path d="M1248 5582 c-33 -3 -38 -7 -38 -28 0 -20 5 -24 29 -24 30 0 55 21 49
42 -2 9 -16 12 -40 10z m17 -22 c3 -5 -3 -10 -14 -10 -12 0 -21 5 -21 10 0 6
6 10 14 10 8 0 18 -4 21 -10z"/>
<path d="M4360 5718 c0 -5 7 -8 15 -8 11 0 15 -11 15 -40 0 -33 -3 -40 -20
-40 -11 0 -20 -4 -20 -10 0 -5 10 -10 21 -10 19 0 21 -4 16 -35 -3 -20 -13
-50 -21 -67 -18 -36 -19 -38 -8 -38 13 0 40 60 47 103 4 28 11 37 25 37 18 0
20 -7 20 -69 0 -39 5 -73 10 -76 6 -4 10 22 10 69 0 70 2 76 21 76 12 0 19 5
16 13 -2 6 -11 11 -21 9 -13 -2 -16 5 -16 38 0 29 4 40 15 40 8 0 15 4 15 8 0
4 -31 7 -70 7 -38 0 -70 -3 -70 -7z m90 -48 c0 -33 -3 -40 -20 -40 -17 0 -20
7 -20 40 0 33 3 40 20 40 17 0 20 -7 20 -40z"/>
<path d="M8445 5720 c3 -5 22 -10 41 -10 19 0 34 5 34 10 0 6 -18 10 -41 10
-24 0 -38 -4 -34 -10z"/>
<path d="M12019 5708 c-7 -13 -21 -35 -33 -50 -12 -14 -31 -39 -43 -55 -12
-16 -34 -42 -47 -56 l-25 -27 25 0 c16 0 24 5 22 12 -7 20 25 48 54 48 21 0
28 -5 28 -20 0 -10 -8 -24 -17 -29 -14 -8 -9 -10 26 -11 39 0 42 2 28 13 -16
11 -17 19 -4 100 14 88 9 118 -14 75z m-13 -94 c-6 -16 -36 -19 -36 -4 0 5 8
19 18 30 14 18 18 18 20 5 2 -9 1 -23 -2 -31z"/>
<path d="M13510 5718 c0 -5 22 -8 49 -8 l49 0 -11 -35 c-10 -34 -37 -53 -57
-40 -5 3 -10 1 -10 -4 0 -6 12 -11 26 -11 26 0 26 -1 19 -46 -10 -68 -13 -73
-53 -77 -21 -2 26 -4 103 -4 77 0 125 2 106 4 l-34 4 5 70 5 69 -43 -5 c-49
-6 -56 1 -48 44 6 31 7 31 72 31 36 0 63 3 59 6 -9 9 -237 10 -237 2z m180
-158 l0 -60 -56 0 -55 0 7 48 c9 61 18 72 65 72 l39 0 0 -60z"/>
<path d="M2536 5710 c-76 -23 -123 -130 -81 -186 19 -25 19 -30 -6 -53 -20
-19 -20 -19 40 -26 61 -7 110 6 118 32 3 9 -3 9 -24 -1 -32 -15 -106 -10 -100
7 2 6 19 15 38 20 19 5 45 18 58 30 88 80 57 206 -43 177z m52 -22 c29 -29 5
-121 -40 -152 -47 -33 -94 -6 -84 48 17 85 85 143 124 104z"/>
<path d="M2903 5712 c-13 -2 -26 -15 -34 -34 -12 -30 -11 -33 18 -57 43 -37
55 -64 40 -86 -18 -23 -59 -16 -72 13 -13 30 -25 28 -25 -4 0 -40 -32 -27 -43
18 -8 33 -6 40 17 63 30 30 31 33 10 63 -12 18 -25 22 -71 22 -46 0 -54 -2
-44 -14 9 -11 6 -32 -14 -95 -15 -45 -31 -81 -36 -81 -5 0 -9 -4 -9 -10 0 -5
16 -10 36 -10 30 0 34 3 25 14 -8 10 -8 23 2 51 15 44 34 56 43 28 4 -10 13
-34 21 -54 l16 -36 71 0 c82 -1 106 13 106 60 0 22 -10 38 -37 62 -44 38 -41
65 8 65 23 0 32 -5 36 -21 4 -16 8 -17 14 -7 18 28 10 46 -23 49 -18 2 -43 3
-55 1z m-115 -35 c16 -19 -13 -57 -44 -57 -28 0 -27 -2 -13 39 12 33 38 41 57
18z"/>
<path d="M3093 5712 c-40 -2 -73 -7 -73 -12 0 -4 -3 -17 -7 -27 -6 -17 -6 -17
14 0 11 9 27 17 37 17 14 0 16 -6 10 -37 -4 -21 -10 -42 -14 -48 -4 -5 -11
-25 -15 -43 -4 -18 -13 -36 -21 -39 -27 -10 -13 -23 26 -23 22 0 40 5 40 10 0
6 -4 10 -10 10 -14 0 -13 15 12 97 17 56 26 73 40 73 10 0 21 -7 24 -15 8 -19
24 -9 24 15 0 25 -3 25 -87 22z"/>
<path d="M3684 5708 c-3 -5 18 -8 45 -8 53 0 56 -4 45 -47 -5 -18 -14 -23 -40
-23 -19 0 -34 -4 -34 -10 0 -5 14 -10 30 -10 34 0 34 0 19 -70 -11 -50 -11
-50 -50 -50 -24 0 -38 -4 -34 -10 4 -6 62 -10 141 -10 116 0 134 2 134 16 0
12 -6 15 -25 10 -25 -6 -25 -6 -25 64 l0 70 -51 0 c-48 0 -51 1 -45 23 3 12 6
28 6 35 0 8 21 12 71 12 44 0 68 4 64 10 -7 11 -244 9 -251 -2z m184 -155 l-3
-58 -53 -3 -54 -3 7 43 c11 67 20 78 66 78 l40 0 -3 -57z"/>
<path d="M276 5697 c-17 -12 -17 -14 -2 -20 22 -9 24 -145 1 -153 -27 -11 -16
-24 20 -24 19 0 35 5 35 10 0 6 -4 10 -10 10 -6 0 -10 38 -10 95 0 52 -4 95
-8 95 -5 0 -16 -6 -26 -13z"/>
<path d="M430 5659 c-62 -92 -66 -107 -26 -100 29 6 56 -11 56 -34 0 -14 5
-25 10 -25 6 0 10 11 10 24 0 13 7 27 17 30 15 6 15 8 -1 19 -15 11 -17 25
-14 75 2 37 -1 62 -7 62 -5 0 -26 -23 -45 -51z m30 -39 c0 -42 -15 -58 -46
-46 -13 5 -12 11 7 46 13 22 26 40 31 40 4 0 8 -18 8 -40z"/>
<path d="M2297 5692 c7 -27 -34 -163 -54 -178 -16 -12 -14 -13 20 -14 34 0 37
2 32 23 -11 43 9 74 54 81 28 4 46 14 57 31 15 23 15 27 0 50 -14 21 -24 25
-65 25 -42 0 -48 -3 -44 -18z m83 -30 c0 -20 -7 -33 -25 -42 -33 -18 -45 -4
-33 38 7 25 14 32 33 32 21 0 25 -5 25 -28z"/>
<path d="M8880 5693 c61 -7 67 -17 15 -23 l-50 -7 55 -1 c49 -2 56 0 57 18 2
18 -4 20 -55 18 -38 -1 -45 -2 -22 -5z"/>
<path d="M7780 5660 c15 -11 26 -15 29 -8 4 12 -17 28 -39 28 -10 0 -7 -7 10
-20z"/>
<path d="M13810 5671 c0 -6 11 -11 25 -11 25 0 25 0 10 -30 -15 -29 -15 -30 6
-30 18 0 20 -4 14 -31 -4 -18 -19 -42 -33 -54 -22 -19 -23 -23 -9 -28 10 -4
17 -2 17 3 0 14 28 12 75 -5 41 -15 131 -20 159 -9 25 10 19 24 -10 24 -21 0
-25 3 -19 18 4 9 9 25 12 34 3 9 12 19 22 21 9 3 -5 5 -31 6 -26 0 -49 6 -52
14 -5 10 -7 10 -12 0 -3 -7 -22 -14 -42 -14 -24 -1 -29 -3 -14 -6 28 -6 28
-14 -2 -46 -20 -22 -26 -24 -41 -13 -16 11 -16 16 -4 50 12 34 12 39 -3 47
-14 8 -15 15 -8 34 8 21 7 25 -9 25 -11 0 -26 3 -35 6 -9 3 -16 1 -16 -5z
m228 -108 c-10 -2 -28 -2 -40 0 -13 2 -5 4 17 4 22 1 32 -1 23 -4z m-14 -20
c3 -4 -6 -17 -20 -30 -30 -25 -29 -25 -62 -16 l-24 6 29 23 c28 23 63 31 77
17z"/>
<path d="M4587 5649 c-4 -16 -51 -51 -82 -63 -5 -2 -7 -7 -3 -11 12 -12 118
65 118 85 0 15 -29 5 -33 -11z"/>
<path d="M9454 5661 c3 -5 15 -7 26 -4 25 7 26 -13 3 -39 -15 -17 -15 -18 10
-18 31 0 30 2 16 -39 -7 -20 -20 -33 -35 -37 -13 -3 -24 -12 -24 -20 0 -17 12
-18 27 -3 9 9 21 7 50 -7 46 -22 193 -27 200 -7 3 10 -9 11 -49 8 -64 -6 -127
2 -150 19 -15 11 -16 18 -6 50 10 31 9 39 -3 46 -11 8 -12 13 -1 30 18 29 16
30 -29 30 -22 0 -38 -4 -35 -9z"/>
<path d="M11363 5663 c-47 -6 -41 -23 7 -23 29 0 40 4 40 15 0 8 -3 14 -7 13
-5 0 -23 -3 -40 -5z"/>
<path d="M12183 5662 c-47 -7 -68 -76 -37 -120 20 -29 68 -30 88 0 20 28 12
36 -14 13 -19 -17 -21 -17 -40 0 -24 22 -27 73 -4 82 9 3 25 1 36 -6 23 -14
31 -10 22 12 -7 19 -21 24 -51 19z"/>
<path d="M13183 5655 c4 -12 66 -13 70 -1 1 5 -15 9 -36 10 -21 1 -36 -3 -34
-9z"/>
<path d="M14381 5639 c-13 -17 -36 -35 -50 -41 -14 -6 -21 -12 -14 -15 18 -7
69 28 102 70 11 14 11 17 0 16 -8 0 -25 -14 -38 -30z"/>
<path d="M10357 5631 c-24 -40 -21 -68 8 -97 19 -19 31 -23 48 -18 24 7 37 22
37 42 0 10 -4 9 -16 -2 -19 -19 -25 -20 -48 -3 -25 18 -19 80 8 86 11 2 25 -5
33 -14 11 -16 13 -16 19 -2 9 25 -4 37 -39 37 -25 0 -37 -7 -50 -29z"/>
<path d="M10474 5648 c-3 -4 0 -8 5 -8 16 0 14 -107 -1 -113 -7 -3 3 -5 22 -5
19 0 29 2 23 5 -8 3 -13 23 -13 48 0 34 5 47 20 55 11 6 25 8 30 5 14 -9 12
-89 -2 -103 -9 -9 -4 -12 23 -11 18 0 28 3 22 6 -21 8 -17 90 5 102 31 17 44
-2 41 -58 -4 -49 -3 -51 21 -50 14 0 19 3 13 6 -8 3 -13 24 -13 53 0 27 -3 55
-6 64 -7 19 -35 21 -52 4 -8 -8 -15 -8 -24 -1 -15 12 -107 13 -114 1z"/>
<path d="M12260 5649 c0 -4 5 -11 10 -14 13 -8 13 -71 0 -96 -10 -17 -7 -19
22 -18 18 0 27 3 21 6 -20 7 -17 99 3 107 37 14 45 0 34 -67 l-7 -47 31 1 c17
0 25 3 19 6 -16 6 -18 102 -3 104 43 6 45 4 48 -39 2 -24 -2 -50 -9 -58 -9
-11 -7 -14 12 -14 22 0 24 3 21 48 -5 79 -10 92 -37 92 -13 0 -27 -5 -30 -10
-4 -7 -11 -8 -18 -2 -15 12 -117 13 -117 1z"/>
<path d="M4817 5608 c7 -41 12 -46 24 -28 14 22 6 54 -13 58 -15 3 -17 -2 -11
-30z"/>
<path d="M8789 5621 c26 -17 30 -95 6 -105 -25 -9 -18 -29 8 -22 67 19 65 19
69 -6 2 -18 8 -22 28 -20 14 2 35 10 48 18 19 13 26 13 52 -1 34 -18 50 -19
50 -4 0 5 -13 15 -30 20 -16 6 -30 13 -30 16 0 3 10 23 22 44 12 21 20 41 17
43 -9 9 -109 -7 -109 -18 0 -6 9 -26 20 -43 l20 -33 -25 -16 c-13 -9 -29 -13
-35 -9 -5 3 -10 35 -10 71 l0 64 53 1 c65 1 95 4 102 11 3 3 -58 5 -136 4
-123 -1 -138 -3 -120 -15z m86 -11 c-3 -5 -17 -10 -31 -10 -13 0 -24 5 -24 10
0 6 14 10 31 10 17 0 28 -4 24 -10z m125 -25 c0 -11 -24 -55 -30 -55 -6 0 -30
44 -30 55 0 3 14 5 30 5 17 0 30 -2 30 -5z m-130 -15 c0 -5 -11 -10 -25 -10
-14 0 -25 5 -25 10 0 6 11 10 25 10 14 0 25 -4 25 -10z m-2 -32 c-7 -20 -48
-23 -48 -4 0 11 9 16 26 16 16 0 24 -5 22 -12z"/>
<path d="M10962 5613 c4 -36 52 -46 63 -14 9 29 -1 41 -36 41 -27 0 -30 -3
-27 -27z m48 3 c0 -21 -21 -31 -30 -15 -5 7 -6 17 -4 21 9 14 34 9 34 -6z"/>
<path d="M1900 5621 c0 -6 5 -13 10 -16 6 -4 8 -16 4 -28 -6 -19 -5 -20 10 -8
24 20 21 61 -4 61 -11 0 -20 -4 -20 -9z"/>
<path d="M6580 5623 c1 -5 12 -21 25 -38 22 -27 25 -28 25 -9 0 11 -8 28 -18
37 -20 18 -32 22 -32 10z"/>
<path d="M7799 5601 c-35 -30 -36 -52 -1 -30 20 13 46 48 40 55 -3 2 -20 -9
-39 -25z"/>
<path d="M9963 5596 c22 -34 41 -40 30 -8 -7 17 -32 41 -45 42 -4 0 3 -15 15
-34z"/>
<path d="M11357 5622 c-20 -2 -35 -7 -32 -13 8 -12 82 -12 89 0 8 12 -12 17
-57 13z"/>
<path d="M11440 5611 c0 -3 9 -21 20 -39 26 -43 25 -56 -5 -70 -39 -18 -44
-15 -47 29 -3 40 -4 42 -40 44 -22 1 -38 -3 -39 -9 -1 -6 -2 -27 -3 -46 -1
-35 -1 -35 38 -32 22 2 42 -1 46 -8 5 -9 19 -6 50 10 41 21 45 21 77 6 19 -9
40 -16 48 -16 25 0 16 17 -12 25 -50 12 -55 23 -28 66 14 21 25 41 25 44 0 3
-29 5 -65 4 -36 -1 -65 -5 -65 -8z m100 -19 c0 -4 -7 -18 -16 -30 -15 -22 -17
-22 -35 -6 -30 27 -24 44 16 44 19 0 35 -3 35 -8z m-150 -57 c0 -20 -5 -25
-25 -25 -20 0 -25 5 -25 25 0 20 5 25 25 25 20 0 25 -5 25 -25z"/>
<path d="M13180 5610 c0 -5 16 -10 35 -10 19 0 35 5 35 10 0 6 -16 10 -35 10
-19 0 -35 -4 -35 -10z"/>
<path d="M4610 5591 c0 -17 -75 -90 -105 -102 -22 -9 -26 -13 -13 -16 21 -5
62 21 105 67 32 35 42 60 23 60 -5 0 -10 -4 -10 -9z"/>
<path d="M14381 5545 c-24 -25 -54 -48 -67 -51 -21 -5 -35 -24 -17 -24 16 0
91 52 121 84 49 53 15 44 -37 -9z"/>
<path d="M7185 5570 c-3 -5 -2 -10 4 -10 13 0 46 -49 38 -56 -3 -3 -11 -7 -19
-8 -63 -15 -78 -20 -78 -27 0 -10 31 -4 90 16 28 9 43 9 81 -3 28 -9 54 -12
65 -7 15 6 11 10 -21 17 -71 17 -71 16 -42 46 15 16 27 31 27 35 0 11 -138 8
-145 -3z m105 -19 c0 -16 -20 -23 -46 -17 -36 9 -29 26 11 26 19 0 35 -4 35
-9z"/>
<path d="M7540 5560 c0 -6 24 -9 55 -9 30 1 55 6 55 10 0 5 -25 9 -55 9 -30 0
-55 -4 -55 -10z"/>
<path d="M13050 5563 c0 -4 5 -15 10 -23 8 -13 10 -13 10 2 0 9 -4 20 -10 23
-5 3 -10 3 -10 -2z"/>
<path d="M3540 5539 c7 -11 14 -18 17 -15 8 8 -5 36 -17 36 -7 0 -7 -6 0 -21z"/>
<path d="M12960 5531 c0 -17 5 -31 10 -31 6 0 10 11 10 24 0 14 -4 28 -10 31
-6 4 -10 -7 -10 -24z"/>
<path d="M13007 5540 c3 -11 9 -20 14 -20 11 0 11 3 3 24 -9 23 -23 20 -17 -4z"/>
<path d="M3440 5520 c0 -16 5 -30 10 -30 6 0 10 14 10 30 0 17 -4 30 -10 30
-5 0 -10 -13 -10 -30z"/>
<path d="M3490 5538 c0 -7 5 -20 10 -28 8 -12 10 -11 10 7 0 12 -4 25 -10 28
-5 3 -10 0 -10 -7z"/>
<path d="M12920 5535 c0 -8 -4 -15 -10 -15 -5 0 -10 -7 -10 -16 0 -13 3 -14
14 -5 17 14 28 51 15 51 -5 0 -9 -7 -9 -15z"/>
<path d="M3392 5515 c-14 -31 -15 -35 -3 -35 5 0 14 14 20 30 12 36 -1 40 -17
5z"/>
<path d="M550 5514 c0 -9 5 -14 12 -12 18 6 21 28 4 28 -9 0 -16 -7 -16 -16z"/>
<path d="M5127 5501 c-27 -16 -45 -31 -39 -34 11 -7 95 36 100 52 6 17 -8 13
-61 -18z"/>
<path d="M5270 5510 c14 -11 30 -24 37 -30 7 -5 18 -10 25 -10 7 1 -3 14 -22
30 -19 17 -41 30 -50 30 -10 -1 -7 -7 10 -20z"/>
<path d="M1254 5263 c-4 -21 -13 -47 -20 -58 -13 -19 -14 -18 -14 8 0 23 -4
27 -30 27 -29 0 -40 13 -20 25 12 8 13 25 2 25 -5 0 -14 -11 -20 -25 -6 -14
-18 -25 -25 -25 -11 0 -13 -21 -13 -92 l1 -93 53 -1 52 0 0 55 c0 43 5 61 26
88 22 29 31 33 71 33 l46 0 -6 -75 c-9 -97 -19 -118 -52 -105 -34 13 -33 -7 0
-22 40 -18 54 5 65 103 15 127 17 121 -32 119 -68 -3 -69 -2 -62 25 4 15 2 25
-4 25 -6 0 -14 -17 -18 -37z m-54 -67 c0 -30 -14 -40 -46 -32 -17 5 -24 13
-24 31 0 22 4 25 35 25 30 0 35 -3 35 -24z m-5 -82 c0 -25 -4 -29 -32 -32 -31
-3 -33 -1 -33 27 0 23 5 31 23 34 35 7 42 2 42 -29z"/>
<path d="M1564 5285 c4 -12 -4 -15 -42 -15 -27 0 -53 -5 -60 -12 -19 -19 -14
-55 8 -61 17 -4 20 -14 20 -65 0 -33 3 -68 6 -77 5 -11 0 -18 -15 -22 -11 -3
-21 -9 -21 -14 0 -9 66 12 97 32 17 10 28 9 67 -9 25 -12 50 -22 56 -22 15 0
12 17 -4 23 -11 4 -14 24 -14 81 l1 76 29 0 c15 0 28 5 28 10 0 6 -9 10 -19
10 -11 0 -23 5 -26 10 -3 6 -44 10 -91 10 -49 0 -84 -4 -84 -10 0 -5 -10 -10
-22 -10 -21 0 -21 1 -5 17 23 24 199 29 207 6 5 -11 10 -10 24 6 l19 21 -65 0
c-49 0 -67 4 -72 15 -3 8 -10 15 -17 15 -6 0 -9 -7 -5 -15z m66 -145 c0 -5 -4
-10 -10 -10 -5 0 -10 5 -10 10 0 6 5 10 10 10 6 0 10 -4 10 -10z m-37 -7 c-7
-2 -19 -2 -25 0 -7 3 -2 5 12 5 14 0 19 -2 13 -5z m-43 -17 c0 -2 -7 -6 -15
-10 -8 -3 -15 -1 -15 4 0 6 7 10 15 10 8 0 15 -2 15 -4z m7 -32 c-3 -3 -12 -4
-19 -1 -8 3 -5 6 6 6 11 1 17 -2 13 -5z m66 -1 c-7 -2 -19 -2 -25 0 -7 3 -2 5
12 5 14 0 19 -2 13 -5z"/>
<path d="M1900 5281 c0 -10 -9 -30 -20 -44 -11 -14 -20 -30 -20 -35 0 -12 26
-23 34 -15 10 10 7 25 -4 18 -5 -3 -10 -1 -10 5 0 7 9 14 20 17 11 3 18 9 15
13 -7 11 12 23 25 15 11 -7 -22 -58 -55 -87 -19 -16 -16 -17 66 -14 102 3 124
12 80 33 -38 19 -39 29 -6 55 14 11 25 24 25 29 0 12 -57 12 -65 -1 -3 -5 1
-10 10 -10 19 0 16 -21 -4 -28 -7 -2 -15 5 -18 17 -3 14 -13 21 -29 21 -15 0
-24 6 -24 15 0 8 -4 15 -10 15 -5 0 -10 -8 -10 -19z m84 -73 c23 -33 20 -38
-24 -38 -22 0 -40 5 -40 10 0 6 4 10 9 10 5 0 13 9 16 20 8 26 20 25 39 -2z"/>
<path d="M2492 5280 c-25 -14 -29 -19 -16 -24 20 -8 12 -32 -10 -28 -9 2 -16
-2 -16 -8 0 -5 9 -10 20 -10 11 0 20 -2 20 -4 0 -2 -9 -25 -20 -51 -21 -48
-27 -88 -8 -47 18 37 28 25 28 -33 0 -33 4 -55 11 -55 7 0 10 24 9 68 -3 87
-2 91 15 68 8 -11 18 -16 22 -13 3 4 -4 18 -17 32 -27 29 -22 40 15 31 23 -6
25 -11 25 -64 0 -32 5 -63 11 -69 7 -7 1 -14 -20 -23 -17 -7 -31 -17 -31 -22
0 -14 40 1 77 28 17 13 42 24 55 24 16 0 19 -3 10 -9 -10 -6 -5 -13 19 -29 38
-24 50 -21 26 6 -12 13 -17 37 -17 81 0 54 3 64 20 68 40 10 20 24 -25 17 -30
-4 -45 -3 -45 5 0 6 16 11 35 11 26 0 33 3 29 15 -4 8 -1 15 6 15 6 0 8 4 5
10 -3 5 -19 7 -35 3 -23 -4 -30 -2 -30 11 0 20 -26 21 -34 1 -3 -9 -18 -15
-37 -15 -24 0 -30 -3 -25 -16 3 -9 6 -18 6 -20 0 -2 11 -4 25 -4 14 0 25 -4
25 -10 0 -5 -13 -10 -29 -10 -17 0 -33 5 -36 10 -3 6 -15 10 -26 10 -26 0 -25
36 1 43 22 6 28 28 8 26 -7 -1 -28 -9 -46 -19z m128 -30 c0 -5 -9 -10 -21 -10
-11 0 -17 5 -14 10 3 6 13 10 21 10 8 0 14 -4 14 -10z m65 0 c3 -5 -3 -10 -14
-10 -12 0 -21 5 -21 10 0 6 6 10 14 10 8 0 18 -4 21 -10z m-27 -87 c-10 -2
-26 -2 -35 0 -10 3 -2 5 17 5 19 0 27 -2 18 -5z m17 -33 c4 -6 -10 -10 -34
-10 -23 0 -41 5 -41 10 0 6 15 10 34 10 19 0 38 -4 41 -10z m2 -27 c-12 -12
-90 -15 -82 -4 3 6 25 11 47 11 23 0 38 -3 35 -7z"/>
<path d="M3390 5275 c0 -24 -2 -25 -66 -25 -36 0 -63 -4 -60 -8 2 -4 32 -7 65
-6 l61 3 0 -95 0 -94 -27 -1 -28 -1 30 -13 c37 -16 45 -7 45 53 0 23 3 42 8
42 4 0 24 -16 44 -35 20 -19 46 -35 57 -35 32 0 25 14 -12 28 -19 7 -44 23
-57 37 l-23 24 24 10 c38 16 62 39 54 51 -4 7 -10 8 -14 3 -10 -14 -63 -53
-72 -53 -5 0 -9 18 -9 40 l0 40 65 0 c41 0 65 4 65 11 0 7 -11 9 -26 6 -20 -3
-28 1 -36 19 -6 13 -15 24 -20 24 -11 0 -10 -7 2 -31 10 -17 7 -19 -20 -19
-20 0 -30 5 -30 15 0 8 5 15 11 15 5 0 7 5 4 10 -12 20 -35 10 -35 -15z"/>
<path d="M4154 5273 c-3 -16 -17 -47 -31 -70 -13 -24 -19 -43 -13 -43 5 0 10
5 10 10 0 6 5 10 11 10 7 0 10 -24 9 -67 -3 -88 -2 -95 10 -88 6 4 10 50 9
110 0 57 4 112 10 123 14 26 14 42 1 42 -5 0 -12 -12 -16 -27z"/>
<path d="M4266 5282 c-5 -14 -14 -17 -47 -14 -29 3 -40 1 -35 -7 4 -6 23 -11
42 -11 24 0 34 -4 31 -12 -2 -7 -14 -12 -26 -11 -20 3 -21 -1 -21 -87 0 -84
-1 -90 -21 -90 -11 0 -17 -4 -14 -10 3 -6 50 -10 106 -10 59 0 99 4 99 10 0 9
-15 14 -34 11 -4 -1 -6 39 -5 89 l4 90 -32 0 c-18 0 -33 5 -33 10 0 6 20 10
45 10 25 0 45 5 45 10 0 6 -18 10 -41 10 -32 0 -40 3 -35 15 3 9 0 15 -9 15
-7 0 -16 -8 -19 -18z m54 -82 c0 -5 -20 -10 -45 -10 -25 0 -45 5 -45 10 0 6
20 10 45 10 25 0 45 -4 45 -10z m-5 -41 c4 -6 5 -13 1 -16 -6 -7 -86 -6 -93 1
-13 12 12 26 47 26 21 0 42 -5 45 -11z m5 -55 c0 -12 -10 -14 -47 -12 -66 4
-70 28 -4 28 39 0 51 -4 51 -16z m0 -39 c0 -11 -12 -15 -44 -15 -43 0 -63 10
-49 24 3 3 26 6 50 6 32 0 43 -4 43 -15z"/>
<path d="M4489 5270 c-6 -16 -15 -28 -19 -25 -13 8 -24 -175 -11 -188 8 -8 11
-8 11 1 0 7 13 12 28 12 15 0 33 -5 40 -12 9 -9 12 1 12 48 0 48 4 65 20 79
11 10 22 26 26 37 5 16 14 19 52 16 l47 -3 -3 -75 c-5 -92 -15 -114 -48 -106
-13 4 -24 2 -24 -3 0 -5 14 -12 31 -16 46 -10 50 0 62 171 l4 50 -54 -4 -54
-5 7 27 c8 32 -12 36 -21 4 -13 -47 -28 -78 -36 -78 -5 0 -6 12 -3 26 6 23 4
26 -17 24 -40 -4 -42 -1 -25 25 15 22 15 25 1 25 -9 0 -21 -13 -26 -30z m51
-70 c0 -28 -3 -30 -35 -30 -32 0 -35 2 -35 30 0 28 3 30 35 30 32 0 35 -2 35
-30z m0 -79 c0 -35 -12 -45 -46 -37 -19 5 -24 13 -24 36 0 28 3 30 35 30 32 0
35 -2 35 -29z"/>
<path d="M4802 5269 c-19 -24 -21 -29 -7 -29 8 0 18 7 21 15 8 20 23 19 46 -2
17 -15 18 -15 18 0 0 10 8 17 20 17 11 0 20 5 20 10 0 7 -13 8 -35 4 -23 -4
-35 -2 -35 5 0 20 -25 10 -48 -20z"/>
<path d="M4931 5275 c-28 -28 -21 -47 7 -22 23 21 38 22 46 2 3 -8 10 -15 17
-15 6 0 9 7 5 15 -4 11 2 15 24 15 17 0 30 5 30 10 0 6 -15 8 -40 4 -27 -4
-40 -3 -40 5 0 18 -23 12 -49 -14z"/>
<path d="M5135 5168 l0 -133 125 0 125 0 3 128 2 127 -114 0 c-63 0 -120 2
-128 5 -10 4 -13 -21 -13 -127z m95 92 c0 -5 -7 -10 -15 -10 -9 0 -12 -6 -8
-17 5 -13 2 -15 -15 -11 -25 7 -30 -7 -7 -16 17 -6 21 -66 5 -66 -5 0 -10 -11
-10 -25 0 -22 4 -25 40 -25 29 0 40 -4 40 -15 0 -12 -13 -15 -55 -15 l-55 0 0
105 0 105 40 0 c22 0 40 -4 40 -10z m136 -95 c1 -55 0 -102 -2 -105 -1 -3 -21
-4 -44 -2 -49 5 -49 24 1 33 l34 6 -32 2 c-34 1 -47 21 -14 21 16 0 18 6 13
45 -4 37 -2 45 12 45 9 0 16 4 16 10 0 5 -7 7 -15 4 -9 -4 -15 0 -15 10 0 12
-10 16 -36 16 -22 0 -33 4 -29 10 4 6 30 10 58 8 l52 -3 1 -100z m-71 65 c-3
-5 -15 -10 -26 -10 -10 0 -19 5 -19 10 0 6 12 10 26 10 14 0 23 -4 19 -10z m3
-27 c-10 -2 -26 -2 -35 0 -10 3 -2 5 17 5 19 0 27 -2 18 -5z m2 -28 c0 -16
-43 -21 -75 -9 -24 10 1 24 43 24 22 0 32 -5 32 -15z m-45 -65 c-3 -5 -15 -10
-26 -10 -10 0 -19 5 -19 10 0 6 12 10 26 10 14 0 23 -4 19 -10z"/>
<path d="M1781 5156 c-1 -90 2 -136 8 -136 12 0 13 15 11 102 -2 70 8 90 26
57 18 -33 17 -56 -2 -67 -12 -7 -13 -11 -5 -16 14 -9 41 11 41 30 0 7 -8 29
-17 49 -16 33 -16 37 0 70 16 33 16 35 -1 35 -9 0 -26 3 -38 6 -21 5 -21 3
-23 -130z m49 95 c0 -10 -7 -24 -15 -31 -13 -10 -15 -9 -15 12 0 14 3 28 7 31
12 13 23 7 23 -12z"/>
<path d="M2240 5280 c-69 -3 -120 -7 -115 -9 6 -2 34 -3 63 -1 54 2 61 -4 39
-34 -10 -14 -23 -17 -50 -14 l-37 4 0 -88 c0 -48 -1 -91 -2 -94 -2 -3 49 -7
113 -8 l116 -1 7 74 c11 129 17 119 -66 113 l-72 -4 16 23 c13 21 24 24 74 24
36 0 59 5 62 13 2 6 -2 11 -10 10 -7 -1 -69 -5 -138 -8z m-40 -156 c0 -66 -2
-75 -17 -72 -15 3 -19 16 -21 72 -2 47 1 72 10 77 22 14 28 -1 28 -77z m154
69 c2 -10 4 -45 3 -78 -2 -49 -6 -60 -21 -63 -10 -2 -22 1 -26 7 -5 9 -6 111
-1 144 2 15 40 6 45 -10z m-66 -5 c-7 -20 -68 -23 -68 -4 0 12 10 16 36 16 24
0 34 -4 32 -12z m-8 -32 c0 -2 3 -11 6 -19 4 -11 -4 -16 -30 -19 -28 -3 -36 0
-36 12 0 9 3 20 7 23 7 8 53 10 53 3z m8 -72 c-8 -40 -68 -44 -68 -4 0 16 6
20 36 20 28 0 35 -4 32 -16z"/>
<path d="M3887 5258 c-8 -13 -27 -36 -41 -52 -14 -16 -26 -32 -26 -35 0 -3
-18 -26 -40 -51 -45 -51 -48 -60 -20 -60 12 0 20 7 20 18 1 32 26 54 59 50 30
-3 31 -4 17 -30 -17 -32 -8 -41 29 -32 19 5 23 9 15 19 -8 9 -8 38 0 100 6 48
9 89 7 92 -2 2 -11 -7 -20 -19z m-17 -83 c0 -18 -5 -25 -20 -25 -24 0 -25 8
-3 32 21 23 23 23 23 -7z"/>
<path d="M4850 5215 c0 -11 -8 -13 -32 -8 -22 4 -29 3 -24 -5 4 -7 18 -12 32
-12 13 0 24 -5 24 -11 0 -6 -9 -8 -20 -4 -20 6 -21 5 -24 -62 -1 -12 5 -17 17
-15 9 2 17 -2 17 -9 0 -7 -11 -10 -30 -7 -19 3 -29 1 -27 -6 2 -6 18 -12 35
-14 24 -2 32 -8 32 -23 0 -10 5 -19 10 -19 6 0 10 9 10 20 0 16 7 20 35 20 24
0 35 5 35 15 0 8 -5 15 -11 15 -8 0 -10 20 -6 65 5 59 -2 81 -18 55 -9 -15
-25 -12 -25 5 0 8 -7 15 -15 15 -8 0 -15 -7 -15 -15z m47 -31 c-3 -3 -12 -4
-19 -1 -8 3 -5 6 6 6 11 1 17 -2 13 -5z m3 -23 c0 -6 -4 -13 -10 -16 -5 -3
-10 1 -10 9 0 9 5 16 10 16 6 0 10 -4 10 -9z m-53 -7 c-3 -3 -12 -4 -19 -1 -8
3 -5 6 6 6 11 1 17 -2 13 -5z m3 -34 c0 -5 -7 -10 -15 -10 -8 0 -15 5 -15 10
0 6 7 10 15 10 8 0 15 -4 15 -10z m47 4 c-3 -3 -12 -4 -19 -1 -8 3 -5 6 6 6
11 1 17 -2 13 -5z m13 -34 c0 -5 -7 -10 -15 -10 -8 0 -15 5 -15 10 0 6 7 10
15 10 8 0 15 -4 15 -10z"/>
<path d="M3300 5215 c0 -12 33 -55 41 -55 15 0 10 26 -9 43 -19 17 -32 22 -32
12z"/>
<path d="M4958 5185 c-8 -140 -3 -155 50 -155 46 0 60 9 57 37 -2 27 -15 44
-15 19 0 -19 -42 -38 -65 -29 -13 4 -15 19 -13 72 3 64 4 66 31 69 25 3 27 1
27 -32 0 -31 -3 -36 -22 -36 -22 -1 -23 -1 -4 -15 34 -26 36 -24 51 66 l5 35
-50 0 c-48 -1 -50 -2 -52 -31z"/>
<path d="M2905 5184 c-9 -9 -14 -21 -12 -27 6 -18 33 -31 51 -24 21 8 21 53 0
61 -21 8 -20 8 -39 -10z m35 -24 c0 -11 -4 -20 -9 -20 -14 0 -23 18 -16 30 10
17 25 11 25 -10z"/>
<path d="M5567 5194 c-13 -13 -7 -52 8 -58 27 -10 46 5 43 33 -3 26 -35 41
-51 25z m38 -27 c0 -26 -20 -25 -23 2 -3 16 1 22 10 19 7 -3 13 -12 13 -21z"/>
<path d="M4600 5183 c1 -4 12 -21 25 -38 30 -36 47 -25 19 12 -20 27 -44 42
-44 26z"/>
<path d="M1282 5150 c21 -29 38 -39 38 -22 0 12 -39 52 -51 52 -5 0 0 -13 13
-30z"/>
<path d="M3323 5117 c-46 -28 -69 -57 -45 -57 8 0 110 89 102 89 -3 0 -29 -14
-57 -32z"/>
<path d="M1910 5111 c36 -6 36 -7 39 -70 2 -37 13 -17 15 26 1 37 2 38 46 44
32 4 19 6 -45 6 -53 0 -76 -2 -55 -6z"/>
<path d="M1877 5067 c-15 -13 -25 -26 -21 -30 7 -7 64 33 64 45 0 13 -14 9
-43 -15z"/>
<path d="M2012 5061 c15 -19 27 -25 33 -19 7 6 2 16 -14 29 -35 28 -46 23 -19
-10z"/>
<path d="M9134 4593 c-12 -2 -25 -17 -32 -37 -16 -44 -16 -46 11 -46 46 0 75
-62 42 -90 -9 -7 -27 -10 -45 -6 -22 4 -30 2 -30 -9 0 -25 58 -18 85 10 34 33
33 77 -1 104 -15 12 -33 21 -40 21 -27 0 -1 29 29 32 17 2 32 9 35 16 4 12
-12 13 -54 5z"/>
<path d="M2061 4508 c-40 -92 -66 -145 -79 -160 -14 -17 -13 -18 14 -18 26 0
29 3 29 33 0 30 3 32 37 35 28 2 39 -1 47 -17 6 -11 8 -27 5 -35 -5 -13 1 -16
32 -16 l37 0 -21 23 c-12 13 -22 29 -22 36 0 7 -9 31 -19 54 -11 24 -23 55
-26 70 -9 35 -17 34 -34 -5z m30 -66 c7 -20 5 -22 -21 -22 -28 0 -29 1 -18 25
13 29 28 28 39 -3z"/>
<path d="M2936 4524 c-9 -8 -16 -23 -16 -32 1 -15 2 -15 11 1 6 10 22 17 40
17 56 0 51 -51 -11 -118 -22 -24 -40 -47 -40 -52 0 -6 25 -10 55 -10 43 0 56
4 64 19 10 17 7 18 -34 13 -53 -6 -57 6 -15 39 17 13 35 41 42 61 10 33 9 41
-7 58 -22 24 -67 26 -89 4z"/>
<path d="M3090 4521 c-15 -29 -14 -29 35 -18 25 6 47 8 49 6 3 -2 -8 -42 -24
-89 -27 -80 -31 -106 -11 -84 4 5 20 45 34 89 14 44 29 88 32 98 6 15 0 17
-49 17 -44 0 -57 -4 -66 -19z"/>
<path d="M3342 4528 c-16 -16 -15 -49 3 -75 13 -18 13 -23 2 -30 -24 -14 -28
-44 -11 -71 14 -21 21 -23 52 -19 19 4 39 12 44 19 13 21 9 55 -9 73 -13 14
-14 20 -5 34 22 29 25 44 15 60 -12 20 -74 26 -91 9z m62 -23 c6 -16 -2 -45
-13 -45 -13 0 -31 24 -31 42 0 22 35 25 44 3z m4 -134 c-2 -9 -13 -17 -25 -19
-27 -4 -39 28 -22 60 l12 22 19 -24 c10 -13 17 -30 16 -39z"/>
<path d="M3496 4524 c-22 -22 -21 -23 19 -17 32 5 35 4 35 -20 0 -17 -8 -31
-22 -38 l-23 -12 28 -10 c19 -6 27 -15 27 -32 0 -32 -21 -46 -60 -39 -26 6
-32 4 -28 -7 6 -17 71 -17 93 1 17 14 21 85 5 95 -7 4 -7 12 0 25 5 10 10 27
10 38 0 33 -57 44 -84 16z"/>
<path d="M4078 4513 c-9 -16 -25 -37 -35 -48 -10 -11 -34 -41 -52 -67 -19 -27
-38 -48 -43 -48 -4 0 -8 -4 -8 -10 0 -23 36 -7 50 23 12 25 22 33 48 35 27 3
32 0 32 -18 0 -11 -7 -23 -15 -26 -27 -11 -16 -24 20 -24 34 0 46 12 25 25 -6
3 -8 16 -6 28 10 50 16 157 8 157 -4 0 -15 -12 -24 -27z m-11 -90 c-3 -3 -13
-3 -21 -1 -15 3 -15 6 1 28 l18 25 3 -23 c2 -13 1 -26 -1 -29z"/>
<path d="M4466 4524 c-22 -21 -14 -29 14 -14 16 9 25 9 36 -1 20 -17 17 -35
-8 -53 -12 -9 -20 -17 -17 -18 2 -2 13 -8 24 -14 23 -13 31 -42 16 -57 -6 -6
-27 -10 -46 -9 -25 1 -35 -2 -32 -11 6 -18 65 -12 88 9 19 17 26 64 12 78 -5
4 -8 29 -8 54 0 45 -1 47 -31 50 -20 2 -38 -3 -48 -14z"/>
<path d="M4640 4530 c-13 -8 -12 -10 3 -10 15 0 17 -11 17 -79 0 -44 -4 -83
-10 -86 -19 -11 -10 -20 20 -20 30 -1 37 5 23 19 -5 4 -6 48 -5 97 3 81 2 89
-15 89 -10 0 -25 -5 -33 -10z"/>
<path d="M4862 4528 c-15 -15 -15 -51 0 -66 10 -10 8 -19 -6 -42 -29 -51 4
-98 59 -84 46 12 59 61 23 94 l-22 20 22 20 c25 24 25 25 12 51 -12 22 -68 27
-88 7z m62 -14 c3 -8 1 -24 -5 -35 -8 -16 -13 -18 -25 -8 -21 18 -18 59 5 59
10 0 22 -7 25 -16z m-6 -109 c14 -31 6 -55 -18 -55 -22 0 -34 31 -25 60 9 27
29 25 43 -5z"/>
<path d="M5012 4528 c-20 -20 -13 -28 13 -16 19 8 29 8 37 0 15 -15 2 -60 -20
-65 -14 -4 -13 -6 6 -12 23 -8 39 -45 27 -64 -3 -6 -24 -11 -46 -11 -40 0 -52
-13 -23 -24 29 -11 50 -6 72 17 24 25 29 76 10 95 -9 9 -9 15 0 24 7 7 12 20
12 30 0 32 -63 51 -88 26z"/>
<path d="M9305 4519 c-20 -21 -22 -77 -4 -110 13 -25 54 -24 80 2 23 23 18 39
-6 19 -35 -29 -85 13 -70 59 8 27 45 38 57 17 12 -22 28 -20 28 3 0 35 -57 42
-85 10z"/>
<path d="M9435 4534 c-6 -2 -9 -34 -8 -71 1 -63 3 -68 24 -71 18 -3 21 -1 13
10 -5 7 -9 33 -9 58 0 42 2 45 29 48 l29 4 -5 -61 c-4 -57 -3 -61 17 -61 21 0
22 2 11 40 -12 48 -1 73 34 78 22 4 22 2 18 -57 -4 -54 -2 -61 14 -61 16 0 18
9 18 65 0 53 -3 66 -19 75 -14 7 -27 7 -44 -1 -17 -8 -30 -8 -44 -1 -11 6 -25
7 -33 2 -8 -5 -19 -5 -25 -1 -5 5 -14 7 -20 5z"/>
<path d="M10762 4528 c-7 -7 -12 -19 -12 -27 0 -12 3 -11 18 2 10 10 26 17 35
17 14 0 16 -6 11 -27 -12 -58 -46 -148 -57 -155 -7 -4 8 -8 32 -8 39 0 42 2
27 13 -16 12 -16 17 9 95 20 65 30 82 45 82 12 0 20 -8 22 -22 l3 -23 13 23
c7 12 10 27 7 32 -9 14 -139 12 -153 -2z"/>
<path d="M3758 4484 c-38 -19 -68 -38 -68 -42 0 -4 28 -20 63 -36 85 -39 87
-40 87 -27 0 6 -25 22 -55 36 -30 13 -55 27 -55 29 0 2 25 16 55 31 30 14 55
31 55 36 0 14 -10 11 -82 -27z"/>
<path d="M7890 4511 c0 -5 5 -11 10 -13 7 -2 3 -26 -10 -62 -11 -33 -20 -68
-20 -78 0 -10 -7 -21 -15 -24 -25 -10 -17 -24 13 -24 25 0 28 4 28 33 0 51 10
67 43 67 44 0 86 39 78 72 -4 15 -16 28 -29 32 -35 9 -98 7 -98 -3z m96 -33
c5 -16 1 -27 -16 -40 -43 -35 -61 -19 -40 36 12 32 46 35 56 4z"/>
<path d="M4283 4454 c-40 -19 -73 -38 -73 -42 0 -7 129 -72 143 -72 23 0 -1
21 -48 41 -30 13 -53 28 -52 33 2 5 26 17 55 28 29 11 52 26 52 34 0 8 -1 14
-2 13 -2 0 -36 -16 -75 -35z"/>
<path d="M3250 4350 c0 -13 5 -20 13 -17 6 2 12 10 12 17 0 7 -6 15 -12 18 -8
2 -13 -5 -13 -18z"/>
<path d="M4772 4352 c4 -19 19 -23 25 -6 2 6 -3 14 -12 18 -12 4 -16 1 -13
-12z"/>
<path d="M2210 4345 c0 -8 7 -15 15 -15 8 0 15 7 15 15 0 8 -7 15 -15 15 -8 0
-15 -7 -15 -15z"/>
<path d="M3750 4350 c-90 -7 -73 -22 20 -18 40 2 65 8 68 16 2 6 0 11 -5 10
-4 -1 -42 -4 -83 -8z"/>
<path d="M8724 4242 l-731 -2 -7 -223 c-3 -122 -8 -445 -11 -717 -3 -272 -7
-634 -10 -805 -14 -885 -17 -1612 -8 -1618 6 -4 1263 -7 2794 -7 2267 -1 2784
2 2790 12 4 7 10 384 14 838 l7 825 -88 54 c-49 30 -112 69 -139 88 -28 18
-55 33 -62 33 -6 0 -13 4 -15 8 -5 13 -270 183 -318 205 -8 4 -55 32 -105 63
-85 54 -339 205 -415 247 -19 10 -57 33 -85 51 -59 38 -95 60 -190 115 -38 23
-86 51 -106 63 -20 13 -63 38 -95 57 -122 70 -225 131 -419 246 -110 65 -243
143 -295 173 -52 31 -138 82 -192 114 -53 32 -100 58 -104 58 -4 0 -22 11 -40
25 -18 14 -35 25 -38 25 -3 0 -35 18 -71 40 l-65 40 -632 -3 c-348 -1 -962 -3
-1364 -5z m2060 -62 c83 -48 70 -40 216 -126 63 -37 169 -99 235 -137 66 -39
143 -84 170 -102 45 -29 368 -218 470 -275 22 -12 51 -30 65 -40 14 -9 32 -20
40 -23 8 -4 32 -17 52 -29 117 -73 210 -128 214 -128 3 0 35 -20 72 -44 37
-24 81 -51 97 -60 17 -9 44 -25 60 -35 47 -28 295 -172 345 -200 25 -14 47
-28 50 -31 3 -4 52 -35 110 -70 58 -35 179 -111 270 -168 91 -58 194 -123 229
-146 l64 -40 -7 -631 c-4 -346 -8 -712 -9 -813 l-2 -183 -2769 1 c-1523 0
-2773 3 -2779 7 -6 4 -8 66 -3 177 3 94 6 279 7 411 0 386 19 2182 23 2270 3
66 6 80 20 79 9 -1 16 5 16 13 0 9 -6 13 -15 9 -13 -5 -15 18 -15 168 0 95 3
176 6 179 4 4 612 7 1352 7 l1346 0 70 -40z"/>
<path d="M8350 4175 c0 -8 5 -15 10 -15 6 0 10 7 10 15 0 8 -4 15 -10 15 -5 0
-10 -7 -10 -15z"/>
<path d="M8350 4130 c0 -5 5 -10 10 -10 6 0 10 5 10 10 0 6 -4 10 -10 10 -5 0
-10 -4 -10 -10z"/>
<path d="M8347 4094 c-9 -9 4 -35 14 -28 5 3 9 12 9 20 0 14 -12 19 -23 8z"/>
<path d="M8347 4044 c-8 -8 1 -24 14 -24 5 0 9 7 9 15 0 15 -12 20 -23 9z"/>
<path d="M8345 3990 c3 -5 10 -10 16 -10 5 0 9 5 9 10 0 6 -7 10 -16 10 -8 0
-12 -4 -9 -10z"/>
<path d="M8347 3953 c-12 -11 -8 -23 8 -23 8 0 15 7 15 15 0 16 -12 20 -23 8z"/>
<path d="M8347 3904 c-8 -8 1 -24 14 -24 5 0 9 7 9 15 0 15 -12 20 -23 9z"/>
<path d="M8065 3870 c-4 -6 -3 -16 3 -22 6 -6 12 -6 17 2 4 6 3 16 -3 22 -6 6
-12 6 -17 -2z"/>
<path d="M8110 3855 c0 -8 5 -15 10 -15 6 0 10 7 10 15 0 8 -4 15 -10 15 -5 0
-10 -7 -10 -15z"/>
<path d="M8160 3854 c0 -8 5 -12 10 -9 6 3 10 10 10 16 0 5 -4 9 -10 9 -5 0
-10 -7 -10 -16z"/>
<path d="M8200 3855 c0 -8 5 -15 10 -15 6 0 10 7 10 15 0 8 -4 15 -10 15 -5 0
-10 -7 -10 -15z"/>
<path d="M8250 3855 c0 -8 5 -15 10 -15 6 0 10 7 10 15 0 8 -4 15 -10 15 -5 0
-10 -7 -10 -15z"/>
<path d="M8290 3855 c0 -8 5 -15 10 -15 6 0 10 7 10 15 0 8 -4 15 -10 15 -5 0
-10 -7 -10 -15z"/>
<path d="M8340 3854 c0 -17 22 -14 28 4 2 7 -3 12 -12 12 -9 0 -16 -7 -16 -16z"/>
<path d="M8000 1256 c0 -9 7 -16 16 -16 9 0 14 5 12 12 -6 18 -28 21 -28 4z"/>
<path d="M8050 1255 c0 -8 5 -15 10 -15 6 0 10 7 10 15 0 8 -4 15 -10 15 -5 0
-10 -7 -10 -15z"/>
<path d="M8092 1253 c2 -10 8 -18 13 -18 5 0 11 8 13 18 2 10 -3 17 -13 17
-10 0 -15 -7 -13 -17z"/>
<path d="M8140 1255 c0 -8 5 -15 10 -15 6 0 10 7 10 15 0 8 -4 15 -10 15 -5 0
-10 -7 -10 -15z"/>
<path d="M8180 1254 c0 -9 5 -14 12 -12 18 6 21 28 4 28 -9 0 -16 -7 -16 -16z"/>
<path d="M8280 1255 c0 -8 5 -15 10 -15 6 0 10 7 10 15 0 8 -4 15 -10 15 -5 0
-10 -7 -10 -15z"/>
<path d="M13170 1260 c0 -5 7 -10 15 -10 8 0 15 5 15 10 0 6 -7 10 -15 10 -8
0 -15 -4 -15 -10z"/>
<path d="M13213 1258 c2 -7 7 -13 12 -13 5 0 10 6 13 13 2 6 -4 12 -13 12 -9
0 -15 -6 -12 -12z"/>
<path d="M13260 1255 c0 -8 5 -15 10 -15 6 0 10 7 10 15 0 8 -4 15 -10 15 -5
0 -10 -7 -10 -15z"/>
<path d="M13300 1255 c0 -8 5 -15 10 -15 6 0 10 7 10 15 0 8 -4 15 -10 15 -5
0 -10 -7 -10 -15z"/>
<path d="M13390 1255 c0 -8 5 -15 10 -15 6 0 10 7 10 15 0 8 -4 15 -10 15 -5
0 -10 -7 -10 -15z"/>
<path d="M13480 1255 c0 -8 5 -15 10 -15 6 0 10 7 10 15 0 8 -4 15 -10 15 -5
0 -10 -7 -10 -15z"/>
<path d="M8230 1250 c0 -5 5 -10 10 -10 6 0 10 5 10 10 0 6 -4 10 -10 10 -5 0
-10 -4 -10 -10z"/>
<path d="M8320 1245 c0 -8 5 -15 10 -15 6 0 10 7 10 15 0 8 -4 15 -10 15 -5 0
-10 -7 -10 -15z"/>
<path d="M13350 1250 c0 -5 5 -10 11 -10 5 0 7 5 4 10 -3 6 -8 10 -11 10 -2 0
-4 -4 -4 -10z"/>
<path d="M13435 1250 c3 -5 11 -10 16 -10 6 0 7 5 4 10 -3 6 -11 10 -16 10 -6
0 -7 -4 -4 -10z"/>
<path d="M13170 1215 c0 -8 5 -15 10 -15 6 0 10 7 10 15 0 8 -4 15 -10 15 -5
0 -10 -7 -10 -15z"/>
<path d="M8320 1200 c0 -5 4 -10 9 -10 6 0 13 5 16 10 3 6 -1 10 -9 10 -9 0
-16 -4 -16 -10z"/>
<path d="M13170 1170 c0 -5 5 -10 10 -10 6 0 10 5 10 10 0 6 -4 10 -10 10 -5
0 -10 -4 -10 -10z"/>
<path d="M8322 1159 c3 -8 8 -13 11 -11 9 3 7 11 -5 18 -6 4 -8 0 -6 -7z"/>
<path d="M13170 1125 c0 -8 5 -15 10 -15 6 0 10 7 10 15 0 8 -4 15 -10 15 -5
0 -10 -7 -10 -15z"/>
<path d="M8322 1109 c3 -8 8 -13 11 -11 9 3 7 11 -5 18 -6 4 -8 0 -6 -7z"/>
<path d="M13170 1080 c0 -5 5 -10 10 -10 6 0 10 5 10 10 0 6 -4 10 -10 10 -5
0 -10 -4 -10 -10z"/>
<path d="M8320 1065 c0 -9 5 -15 10 -13 12 4 11 16 -1 24 -5 3 -9 -2 -9 -11z"/>
<path d="M13170 1024 c0 -8 5 -12 10 -9 6 3 10 10 10 16 0 5 -4 9 -10 9 -5 0
-10 -7 -10 -16z"/>
<path d="M8320 1021 c0 -6 5 -13 10 -16 6 -3 10 1 10 9 0 9 -4 16 -10 16 -5 0
-10 -4 -10 -9z"/>
<path d="M13170 984 c0 -8 5 -12 10 -9 6 3 10 10 10 16 0 5 -4 9 -10 9 -5 0
-10 -7 -10 -16z"/>
<path d="M8320 970 c0 -5 5 -10 10 -10 6 0 10 5 10 10 0 6 -4 10 -10 10 -5 0
-10 -4 -10 -10z"/>
<path d="M13172 940 c0 -14 2 -19 5 -12 2 6 2 18 0 25 -3 6 -5 1 -5 -13z"/>
<path d="M8320 930 c0 -5 5 -10 10 -10 6 0 10 5 10 10 0 6 -4 10 -10 10 -5 0
-10 -4 -10 -10z"/>
<path d="M3116 3755 c-59 -80 -62 -97 -21 -100 40 -2 55 -12 55 -36 0 -10 5
-19 10 -19 6 0 10 10 10 23 0 13 6 29 12 35 10 10 10 15 1 20 -7 4 -13 37 -15
76 l-3 68 -49 -67z m34 -35 c0 -38 -2 -40 -30 -40 -16 0 -30 3 -30 7 0 11 44
73 53 73 4 0 7 -18 7 -40z"/>
<path d="M4566 3812 c-32 -7 -76 -54 -86 -93 -23 -86 50 -155 99 -93 40 50 19
122 -32 112 -50 -10 -26 34 32 58 27 11 18 23 -13 16z m-8 -104 c18 -18 15
-75 -4 -82 -27 -10 -34 -7 -45 21 -20 54 14 96 49 61z"/>
<path d="M4679 3813 c-46 -11 -64 -123 -29 -180 24 -40 51 -42 78 -8 55 70 20
204 -49 188z m41 -42 c22 -41 0 -151 -30 -151 -28 0 -43 133 -18 158 18 18 36
15 48 -7z"/>
<path d="M5095 3812 c-23 -2 -34 -12 -47 -38 l-18 -34 35 -15 c40 -16 50 -34
41 -71 -6 -24 -10 -26 -47 -21 -28 4 -39 1 -39 -8 0 -13 21 -25 44 -25 28 0
66 48 66 85 0 34 -6 43 -55 79 -19 15 -19 15 11 16 17 0 37 6 43 14 15 17 5
22 -34 18z"/>
<path d="M1981 3794 c21 -26 15 -163 -8 -180 -28 -21 115 -19 145 2 26 18 31
78 7 88 -14 5 -14 8 0 29 31 47 -9 77 -102 77 -50 0 -54 -2 -42 -16z m107 -13
c8 -4 12 -19 10 -32 -2 -20 -10 -25 -40 -27 -36 -3 -38 -2 -38 26 0 16 3 32 7
35 9 10 45 8 61 -2z m10 -93 c21 -21 14 -57 -12 -64 -51 -13 -80 16 -62 62 7
17 57 19 74 2z"/>
<path d="M2979 3787 c-82 -113 -87 -132 -32 -132 34 0 38 -3 41 -28 4 -35 26
-30 30 6 2 15 8 27 15 27 8 0 8 3 -1 12 -7 7 -12 39 -12 75 0 68 -12 80 -41
40z m11 -67 c0 -38 -2 -40 -30 -40 -16 0 -30 2 -30 5 0 10 45 75 53 75 4 0 7
-18 7 -40z"/>
<path d="M3320 3801 c0 -5 -3 -18 -6 -28 -6 -15 -4 -16 7 -5 7 6 28 12 46 12
41 0 42 -15 8 -106 -24 -63 -26 -90 -6 -68 5 5 21 47 36 94 15 47 30 91 33 98
3 9 -12 12 -57 12 -34 0 -61 -4 -61 -9z"/>
<path d="M3497 3775 c-21 -44 -21 -45 1 -45 24 0 62 -36 62 -60 0 -31 -27 -50
-62 -43 -24 5 -30 3 -26 -8 8 -25 55 -22 83 5 40 40 29 107 -21 126 -35 14
-29 28 13 32 51 4 56 28 6 28 -35 0 -41 -4 -56 -35z"/>
<path d="M4077 3772 c-16 -20 -38 -50 -50 -67 -12 -16 -37 -45 -54 -63 -18
-19 -33 -36 -33 -38 0 -2 11 -4 25 -4 17 0 25 6 25 18 1 28 25 52 54 52 21 0
26 -5 26 -25 0 -14 -4 -25 -10 -25 -5 0 -10 -4 -10 -10 0 -5 16 -10 36 -10 31
0 35 2 24 15 -11 14 -7 129 6 178 8 28 -9 19 -39 -21z m3 -49 c0 -29 -17 -50
-30 -37 -9 9 -8 17 2 33 16 26 28 27 28 4z"/>
<path d="M4867 3791 c-4 -17 -1 -19 29 -14 63 10 66 3 35 -87 -17 -46 -25 -83
-19 -86 5 -3 10 -4 11 -3 5 10 67 197 67 202 0 4 -26 7 -59 7 -49 0 -59 -3
-64 -19z"/>
<path d="M3758 3757 c-37 -18 -68 -37 -68 -42 0 -8 59 -39 142 -73 4 -2 8 1 8
6 0 6 -25 22 -55 37 -30 14 -55 28 -55 30 0 3 25 17 55 31 31 13 53 29 50 34
-7 12 2 15 -77 -23z"/>
<path d="M4293 3724 c-40 -20 -73 -39 -73 -43 0 -5 69 -39 142 -69 4 -2 8 1 8
8 0 6 -25 22 -55 36 -30 14 -55 27 -55 29 0 2 27 16 60 31 33 15 60 31 60 35
0 13 -9 11 -87 -27z"/>
<path d="M2196 3633 c-12 -12 -6 -33 9 -33 8 0 15 6 15 14 0 17 -14 28 -24 19z"/>
<path d="M3240 3620 c0 -11 7 -20 15 -20 8 0 15 9 15 20 0 11 -7 20 -15 20 -8
0 -15 -9 -15 -20z"/>
<path d="M4795 3630 c-7 -12 2 -30 16 -30 5 0 9 9 9 20 0 21 -15 27 -25 10z"/>
<path d="M3690 3613 c0 -9 22 -13 75 -13 98 0 97 17 0 22 -55 2 -75 0 -75 -9z"/>
<path d="M4076 3075 c-7 -19 -82 -120 -118 -160 -34 -37 -35 -45 -3 -43 17 2
24 7 20 17 -8 20 24 51 52 51 18 0 23 -5 23 -25 0 -14 -5 -25 -11 -25 -5 0 -7
-4 -4 -10 3 -5 19 -10 35 -10 16 0 32 5 35 10 3 6 -1 10 -11 10 -15 0 -16 8
-11 59 4 33 9 78 13 100 6 40 -7 58 -20 26z m-16 -85 c0 -23 -4 -30 -20 -30
-24 0 -25 4 -4 35 21 32 24 31 24 -5z"/>
<path d="M4510 3077 c-31 -15 -70 -83 -70 -120 0 -37 35 -87 61 -87 28 0 69
48 69 80 0 34 -28 60 -64 60 -24 0 -25 2 -16 20 6 11 27 29 48 39 27 15 31 20
17 20 -11 1 -31 -5 -45 -12z m18 -99 c29 -29 3 -98 -32 -85 -16 7 -32 69 -21
86 8 15 38 14 53 -1z"/>
<path d="M4618 3076 c-10 -7 -18 -18 -18 -25 0 -14 6 -14 29 1 10 6 26 8 35 5
25 -10 16 -49 -14 -64 l-24 -12 26 -10 c58 -22 41 -71 -25 -71 -38 0 -40 -1
-25 -16 11 -12 25 -14 48 -9 40 9 67 62 49 96 -6 12 -8 36 -4 56 10 56 -33 83
-77 49z"/>
<path d="M4860 3083 c-21 -9 -40 -29 -40 -44 0 -8 6 -7 18 4 38 35 90 10 78
-36 -3 -13 -26 -46 -51 -72 -24 -27 -42 -51 -40 -54 9 -9 109 0 123 11 18 16
15 31 -5 23 -23 -9 -73 -16 -73 -10 0 3 16 25 35 51 39 51 45 92 17 117 -19
17 -36 20 -62 10z"/>
<path d="M5062 3083 c-23 -3 -36 -12 -47 -34 -19 -35 -15 -42 24 -59 36 -14
47 -41 31 -71 -10 -17 -18 -20 -46 -16 -24 4 -34 2 -34 -8 0 -17 28 -27 54
-19 73 23 75 122 3 147 -28 10 -14 32 19 32 19 0 30 6 32 18 2 9 2 16 0 15 -2
0 -18 -3 -36 -5z"/>
<path d="M2000 3060 c-67 -67 -38 -175 48 -187 43 -6 92 18 92 44 0 10 -6 8
-22 -7 -26 -24 -65 -26 -96 -4 -32 22 -32 111 1 142 13 12 33 22 44 22 22 0
53 -24 53 -41 0 -5 5 -9 10 -9 6 0 9 14 8 30 -2 30 -3 30 -60 30 -45 0 -63 -5
-78 -20z"/>
<path d="M2942 3016 c-23 -35 -42 -69 -42 -75 0 -6 18 -11 40 -11 38 0 40 -2
40 -31 0 -38 24 -35 28 4 2 15 10 27 18 27 8 0 14 5 14 10 0 6 -7 10 -15 10
-12 0 -15 14 -15 65 0 84 -13 84 -68 1z m35 -63 c-3 -2 -17 -3 -31 -1 l-26 3
27 40 28 40 3 -39 c2 -21 1 -40 -1 -43z"/>
<path d="M3106 3052 c-31 -33 -50 -92 -40 -125 17 -58 65 -74 102 -34 43 45
14 129 -38 112 -35 -11 -21 25 19 52 32 22 33 23 9 23 -14 0 -36 -12 -52 -28z
m48 -95 c12 -33 -2 -62 -29 -62 -12 0 -21 10 -26 29 -16 60 35 90 55 33z"/>
<path d="M3310 3071 c0 -5 -3 -18 -6 -28 -6 -15 -4 -16 7 -5 12 11 89 18 89 8
0 -2 -11 -37 -25 -78 -26 -78 -31 -103 -16 -93 8 4 71 184 71 201 0 2 -27 4
-60 4 -33 0 -60 -4 -60 -9z"/>
<path d="M3487 3045 c-21 -44 -22 -42 7 -49 34 -8 56 -33 56 -61 0 -30 -26
-46 -57 -34 -14 5 -25 4 -29 -3 -10 -16 18 -29 50 -23 76 14 84 117 10 145
-35 14 -30 30 10 30 21 0 36 6 40 15 4 12 -3 15 -32 15 -34 0 -40 -4 -55 -35z"/>
<path d="M3740 3025 c-36 -18 -65 -36 -65 -39 0 -5 141 -76 151 -76 2 0 4 4 4
10 0 5 -25 21 -55 35 -30 13 -55 27 -55 30 0 2 22 16 49 30 50 25 73 46 49 44
-7 0 -42 -15 -78 -34z"/>
<path d="M4266 2995 c-37 -19 -71 -36 -74 -39 -4 -5 140 -76 154 -76 2 0 4 4
4 9 0 5 -25 19 -55 32 -30 13 -55 29 -55 34 0 6 23 19 52 30 28 11 53 26 56
33 5 17 -5 15 -82 -23z"/>
<path d="M2187 2903 c-13 -12 -7 -33 8 -33 8 0 15 9 15 20 0 20 -11 26 -23 13z"/>
<path d="M3236 2903 c-12 -12 -6 -33 9 -33 8 0 15 6 15 14 0 17 -14 28 -24 19z"/>
<path d="M4765 2900 c-7 -12 2 -30 16 -30 5 0 9 9 9 20 0 21 -15 27 -25 10z"/>
<path d="M3670 2883 c0 -11 16 -13 77 -11 105 4 108 24 3 25 -62 0 -80 -3 -80
-14z"/>
<path d="M13698 2776 c-28 -21 -22 -61 17 -103 38 -42 42 -55 21 -73 -26 -20
-61 -8 -64 23 -4 30 -22 37 -22 8 0 -11 -2 -26 -6 -34 -4 -10 6 -16 37 -21 89
-14 120 54 54 120 -41 41 -44 61 -11 70 31 7 46 -1 46 -27 0 -29 17 -23 23 9
3 15 5 28 4 28 -1 1 -20 4 -42 8 -27 4 -46 1 -57 -8z"/>
<path d="M7335 2719 c-33 -16 -66 -77 -67 -121 0 -48 27 -80 68 -80 35 0 54
25 54 73 0 43 -20 63 -55 57 -46 -9 -25 37 30 66 23 12 26 15 10 15 -11 0 -29
-5 -40 -10z m25 -114 c17 -46 -13 -90 -46 -67 -15 9 -26 56 -18 76 10 26 53
20 64 -9z"/>
<path d="M7504 2653 c-22 -15 -35 -54 -29 -84 12 -53 80 -68 109 -24 19 29 15
31 -18 10 -13 -9 -31 -13 -40 -9 -18 7 -30 42 -24 71 4 23 46 30 54 9 9 -24
26 -19 22 7 -2 16 -10 23 -33 25 -16 1 -35 -1 -41 -5z"/>
<path d="M7620 2655 c-1 0 -2 -30 -3 -68 -2 -61 0 -67 18 -67 18 0 20 5 16 51
-3 57 7 74 38 64 17 -5 21 -14 21 -49 0 -23 -5 -47 -12 -54 -9 -9 -7 -12 13
-12 23 0 24 3 20 51 -3 57 7 74 38 64 17 -5 21 -14 21 -49 0 -23 -5 -47 -12
-54 -9 -9 -7 -12 13 -12 24 0 24 1 19 67 -4 61 -7 68 -27 71 -12 2 -31 -2 -42
-8 -12 -6 -21 -7 -21 -1 0 5 -22 8 -50 8 -27 -1 -50 -2 -50 -2z"/>
<path d="M4511 2343 c-18 -9 -42 -31 -52 -47 -25 -41 -25 -117 -1 -139 41 -38
102 -4 102 56 0 44 -12 58 -49 59 -42 1 -38 27 6 48 18 8 35 21 37 28 7 16 -2
15 -43 -5z m8 -97 c19 -22 10 -80 -13 -84 -22 -5 -31 5 -40 40 -4 18 -1 32 10
42 19 20 28 20 43 2z"/>
<path d="M1950 2340 c0 -5 7 -10 15 -10 24 0 22 -165 -2 -179 -26 -15 108 -14
141 0 35 16 61 80 50 121 -15 51 -64 78 -140 78 -36 0 -64 -4 -64 -10z m125
-20 c13 -5 31 -23 40 -39 14 -28 14 -34 0 -68 -19 -45 -30 -53 -72 -53 l-33 0
0 83 c0 77 2 83 21 84 11 1 31 -2 44 -7z"/>
<path d="M2934 2279 c-50 -76 -49 -89 9 -89 22 0 27 -4 27 -25 0 -16 6 -25 15
-25 9 0 15 9 15 25 0 13 7 28 16 33 15 8 15 10 0 15 -12 5 -16 21 -16 72 0 36
-4 65 -9 65 -5 0 -31 -32 -57 -71z m46 -35 c0 -21 -17 -34 -46 -34 -20 0 -17
17 7 52 23 32 39 25 39 -18z"/>
<path d="M3082 2338 c-15 -15 -15 -43 0 -68 10 -16 10 -25 -3 -47 -12 -21 -14
-35 -7 -55 8 -23 15 -28 45 -28 19 0 41 6 49 14 18 19 18 60 -1 76 -8 7 -15
18 -15 25 0 7 7 18 15 25 32 27 6 70 -42 70 -16 0 -34 -5 -41 -12z m62 -16 c8
-14 -5 -52 -19 -52 -14 0 -27 38 -19 52 3 4 11 8 19 8 8 0 16 -4 19 -8z m-4
-113 c15 -27 6 -49 -20 -49 -15 0 -20 7 -20 28 0 46 21 57 40 21z"/>
<path d="M3306 2334 c-9 -8 -16 -21 -16 -27 0 -8 4 -7 12 1 21 21 68 15 77
-10 11 -29 -11 -69 -61 -113 -21 -17 -38 -35 -38 -38 0 -4 29 -7 64 -7 59 0
76 8 76 35 0 1 -20 0 -45 -3 -25 -2 -45 -2 -45 1 0 3 15 20 34 39 42 42 54 80
36 114 -16 29 -69 33 -94 8z"/>
<path d="M3481 2313 l-19 -38 39 -18 c34 -16 39 -23 39 -52 0 -38 -15 -47 -61
-38 -25 5 -31 3 -27 -8 2 -8 15 -16 28 -17 56 -9 105 56 79 104 -7 14 -26 32
-42 41 -33 17 -26 30 17 35 44 5 46 28 2 28 -31 0 -38 -5 -55 -37z"/>
<path d="M4059 2315 c-13 -19 -27 -35 -31 -35 -4 0 -14 -12 -22 -27 -8 -16
-30 -45 -50 -67 -20 -21 -36 -40 -36 -42 0 -2 11 -4 25 -4 20 0 25 5 25 25 0
26 25 45 59 45 16 0 21 -6 21 -25 0 -16 -6 -25 -15 -25 -8 0 -15 -4 -15 -10 0
-5 19 -10 41 -10 36 0 40 2 29 15 -9 11 -11 40 -7 105 3 50 4 90 3 90 -2 0
-14 -16 -27 -35z m-5 -73 c-4 -13 -14 -22 -25 -22 -23 0 -23 4 -3 36 19 28 36
20 28 -14z"/>
<path d="M4624 2280 c-26 -38 -45 -73 -41 -76 4 -4 24 -7 44 -8 33 -1 38 -4
38 -25 0 -14 6 -26 13 -29 7 -2 12 6 12 20 0 13 6 30 13 37 10 11 10 14 0 18
-9 3 -13 27 -13 69 0 35 -4 64 -9 64 -5 0 -30 -31 -57 -70z m46 -20 c0 -39 -1
-40 -35 -40 l-35 0 28 40 c15 21 30 39 35 40 4 0 7 -18 7 -40z"/>
<path d="M4826 2334 c-11 -28 -7 -35 13 -24 28 14 71 13 71 -3 0 -8 -11 -47
-25 -87 -24 -71 -26 -95 -5 -74 10 10 60 168 60 191 0 20 -106 18 -114 -3z"/>
<path d="M5008 2319 c-23 -39 -23 -49 0 -49 22 0 47 -25 56 -56 10 -32 -19
-57 -55 -49 -22 5 -29 3 -29 -9 0 -26 57 -20 85 9 42 41 31 95 -26 125 -29 16
-23 30 15 30 21 0 36 6 40 15 4 12 -3 15 -32 15 -31 0 -40 -5 -54 -31z"/>
<path d="M3743 2294 c-40 -19 -73 -38 -73 -43 0 -7 130 -71 145 -71 3 0 5 4 5
8 0 4 -22 19 -50 33 -27 13 -50 29 -50 34 0 6 15 16 33 23 38 14 74 38 67 45
-3 3 -38 -10 -77 -29z"/>
<path d="M4320 2290 c-8 -5 -41 -21 -72 -36 -32 -16 -58 -31 -58 -34 0 -5 84
-48 153 -78 4 -2 7 1 7 8 0 6 -27 24 -61 39 -65 32 -65 31 14 68 26 12 47 27
47 33 0 12 -9 12 -30 0z"/>
<path d="M2192 2158 c6 -18 28 -21 28 -4 0 9 -7 16 -16 16 -9 0 -14 -5 -12
-12z"/>
<path d="M3220 2154 c0 -9 7 -14 17 -12 25 5 28 28 4 28 -12 0 -21 -6 -21 -16z"/>
<path d="M3670 2162 c-6 -2 -10 -8 -10 -13 0 -5 36 -9 80 -9 44 0 80 4 80 9 0
9 -130 20 -150 13z"/>
<path d="M4760 2155 c0 -8 7 -15 15 -15 8 0 15 7 15 15 0 8 -7 15 -15 15 -8 0
-15 -7 -15 -15z"/>
<path d="M13710 1855 c-7 -8 -10 -19 -6 -22 4 -4 11 -1 15 6 5 7 17 11 27 9
22 -4 31 -43 14 -63 -9 -11 -7 -18 9 -34 12 -12 21 -25 21 -30 0 -19 -32 -41
-61 -41 -18 0 -28 -4 -24 -10 9 -15 48 -12 73 6 16 11 22 25 22 53 0 21 -3 41
-7 45 -5 4 -8 26 -8 49 0 40 -2 42 -31 45 -19 2 -36 -3 -44 -13z"/>
<path d="M13925 1803 c-20 -15 -31 -58 -24 -92 11 -51 44 -65 87 -35 12 8 22
22 22 31 0 15 -2 14 -18 0 -33 -30 -63 -18 -74 29 -11 45 39 75 61 37 5 -10
13 -14 17 -10 23 23 -44 60 -71 40z"/>
<path d="M14043 1753 c1 -32 -1 -64 -3 -72 -3 -8 4 -15 19 -17 19 -4 22 -1 15
13 -5 10 -8 44 -8 76 1 40 -2 57 -11 57 -8 0 -12 -18 -12 -57z"/>
<path d="M14091 1796 c-10 -12 -8 -15 11 -18 19 -2 23 -10 26 -46 2 -24 -2
-49 -8 -56 -8 -11 -5 -13 14 -13 22 0 23 3 22 56 -1 56 -1 56 29 56 27 0 30
-3 33 -37 2 -20 -1 -45 -7 -56 -8 -14 -6 -18 10 -19 17 -2 19 5 19 57 0 78
-24 105 -72 79 -14 -8 -23 -8 -31 0 -15 15 -32 14 -46 -3z"/>
<path d="M13659 805 c0 0 -1 -18 -3 -40 -4 -60 -25 -124 -46 -145 -21 -21 -17
-27 20 -26 18 1 24 6 22 19 -4 26 18 89 30 85 5 -2 18 -26 27 -53 10 -30 24
-51 34 -53 21 -4 22 11 3 27 -7 6 -16 25 -20 42 -5 25 -1 35 19 51 27 21 33
59 13 76 -9 7 -90 21 -99 17z m81 -49 c0 -27 -18 -46 -42 -46 -23 0 -25 42 -3
64 20 20 45 10 45 -18z"/>
<path d="M7823 790 c-80 -32 -117 -126 -73 -183 l21 -26 -21 -18 c-11 -10 -20
-20 -20 -24 0 -3 25 -9 55 -13 40 -4 65 -2 93 10 20 9 31 18 24 21 -7 3 -19 0
-27 -7 -13 -11 -65 -7 -88 7 -15 9 14 31 49 37 42 8 83 64 91 124 5 34 2 42
-22 60 -30 23 -47 26 -82 12z m65 -22 c47 -47 -50 -197 -105 -162 -54 34 0
172 68 173 14 1 30 -4 37 -11z"/>
<path d="M10350 710 c-21 -5 -22 -7 -7 -13 14 -5 17 -20 17 -91 0 -72 -3 -85
-17 -89 -10 -3 0 -5 22 -6 22 0 35 3 28 7 -8 5 -13 42 -15 103 l-3 95 -25 -6z"/>
<path d="M10481 694 c-12 -15 -22 -38 -23 -53 -5 -87 16 -131 62 -131 40 0 60
33 61 102 3 96 -53 142 -100 82z m75 -31 c15 -79 -16 -162 -50 -134 -32 27
-32 133 0 165 21 22 43 9 50 -31z"/>
<path d="M10685 635 c-23 -18 -27 -84 -6 -109 18 -21 64 -20 84 2 24 26 21 46
-3 22 -24 -24 -34 -25 -55 -4 -21 21 -16 73 8 88 15 9 22 6 38 -14 l20 -25 -3
25 c-2 20 -9 26 -33 27 -16 2 -39 -4 -50 -12z"/>
<path d="M10809 641 c0 -3 0 -30 1 -60 1 -35 -3 -57 -12 -62 -9 -6 -3 -9 17
-9 30 0 30 0 30 57 0 53 2 58 23 61 23 4 24 2 20 -57 -3 -56 -1 -61 17 -61 18
0 20 7 20 57 0 52 2 58 22 61 18 3 23 -3 29 -33 4 -21 2 -47 -5 -61 -10 -22
-8 -24 15 -24 14 0 23 4 20 9 -3 4 -6 34 -7 65 -2 65 -14 76 -60 59 -16 -6
-29 -7 -29 -3 0 10 -99 10 -101 1z"/>
</g>
</svg>
