<?xml version="1.0" standalone="no"?>
<!DOCTYPE svg PUBLIC "-//W3C//DTD SVG 20010904//EN"
 "http://www.w3.org/TR/2001/REC-SVG-20010904/DTD/svg10.dtd">
<svg version="1.0" xmlns="http://www.w3.org/2000/svg"
 width="1512.000000pt" height="757.000000pt" viewBox="0 0 1512.000000 757.000000"
 preserveAspectRatio="xMidYMid meet">
<metadata>
Created by potrace 1.16, written by Peter Selinger 2001-2019
</metadata>
<g transform="translate(0.000000,757.000000) scale(0.100000,-0.100000)"
fill="#000000" stroke="none">
<path d="M1628 7249 c-3 -33 -3 -33 -53 -30 l-50 2 1 -62 2 -63 51 3 51 2 0
-56 c0 -35 4 -54 10 -50 6 3 10 28 10 56 l0 49 50 0 50 0 0 60 0 60 -51 0
c-49 0 -50 1 -47 27 2 14 -2 28 -9 30 -7 3 -13 -9 -15 -28z m2 -89 l0 -40 -40
0 -40 0 0 40 0 40 40 0 40 0 0 -40z m105 0 c0 -34 -1 -35 -42 -38 l-43 -3 0
41 0 41 43 -3 c41 -3 42 -4 42 -38z"/>
<path d="M1180 7138 l0 -133 125 0 125 0 0 60 c1 33 2 93 3 133 l2 72 -127 0
-128 0 0 -132z m70 82 c0 -23 4 -30 20 -30 38 0 20 -19 -22 -23 -24 -2 -2 -4
49 -5 52 -1 94 2 98 8 4 6 -11 7 -39 4 -30 -5 -46 -3 -46 4 0 6 10 12 23 14
14 2 22 10 22 23 0 23 12 35 38 35 15 0 17 -12 17 -110 0 -103 -3 -116 -27
-107 -4 1 -6 27 -5 58 l4 56 -38 1 c-31 1 -42 -10 -13 -14 5 -1 14 -2 19 -3 6
0 10 -17 10 -36 l0 -35 -60 0 c-65 0 -69 5 -50 55 5 14 14 24 19 20 5 -3 13 0
16 6 5 7 -3 9 -21 7 -27 -3 -29 -6 -32 -53 -3 -66 -9 -80 -25 -67 -8 7 -11 41
-9 116 3 105 4 106 28 106 20 0 24 -5 24 -30z m78 23 c-10 -2 -28 -2 -40 0
-13 2 -5 4 17 4 22 1 32 -1 23 -4z m12 -33 c0 -5 -16 -10 -35 -10 -19 0 -35 5
-35 10 0 6 16 10 35 10 19 0 35 -4 35 -10z m-7 -180 c-18 -4 -48 -4 -65 0 -26
6 -20 8 32 8 52 0 58 -2 33 -8z"/>
<path d="M1264 7105 c-7 -16 3 -35 17 -35 5 0 9 7 7 16 -4 25 22 29 29 5 7
-28 23 -27 23 2 0 20 -5 24 -35 25 -23 1 -38 -4 -41 -13z"/>
<path d="M4595 7223 c-10 -27 -22 -54 -28 -61 -5 -7 -7 -15 -4 -19 4 -3 12 6
18 21 14 30 38 39 95 34 l39 -3 -3 -62 c-5 -100 -13 -118 -50 -115 -41 3 -41
-14 -1 -23 46 -10 58 8 64 95 3 41 8 85 11 98 4 20 0 22 -33 23 -21 1 -48 0
-60 -1 -24 -1 -33 25 -12 32 7 2 6 8 -4 16 -12 10 -17 5 -32 -35z"/>
<path d="M4900 7245 c0 -30 -16 -33 -23 -5 -3 11 -10 20 -16 20 -9 0 -9 -5 -1
-20 6 -11 8 -21 5 -21 -3 -1 -9 -2 -14 -3 -26 -3 -20 -16 7 -16 26 0 32 -4 32
-22 0 -22 -50 -119 -78 -150 -8 -10 -10 -18 -4 -18 6 0 23 18 39 40 l28 40 88
0 c81 0 87 -1 87 -21 0 -35 -19 -59 -47 -59 -20 0 -24 -3 -16 -11 6 -6 21 -9
34 -7 19 2 28 14 41 53 22 66 22 65 -7 65 -21 0 -25 5 -25 30 0 19 -5 29 -12
28 -8 -2 -12 6 -10 20 3 18 -2 22 -25 23 -15 1 -36 1 -45 0 -14 -2 -18 5 -18
28 0 17 -4 31 -10 31 -5 0 -10 -11 -10 -25z m78 -62 c-2 -12 -14 -19 -36 -20
-25 -1 -32 3 -32 18 0 15 7 19 36 19 28 0 35 -3 32 -17z m32 -53 c0 -18 -7
-20 -60 -20 -43 0 -60 4 -60 13 0 23 11 27 67 27 46 0 53 -2 53 -20z"/>
<path d="M335 7252 c-23 -5 -45 -21 -45 -33 0 -5 12 -4 27 2 51 19 72 -12 33
-51 -25 -25 -25 -26 0 -33 53 -14 28 -72 -27 -64 -24 4 -33 2 -33 -8 0 -22 14
-25 54 -14 47 13 65 47 49 90 -7 17 -9 45 -6 63 6 38 -14 56 -52 48z"/>
<path d="M464 7235 c-42 -39 -26 -105 26 -105 18 0 30 -5 30 -13 0 -16 -42
-57 -58 -57 -7 0 -12 -4 -12 -9 0 -15 44 0 71 26 14 13 32 42 39 64 27 80 -40
146 -96 94z m67 -19 c16 -34 4 -76 -21 -76 -26 0 -45 40 -36 74 8 34 42 35 57
2z"/>
<path d="M4500 7220 c0 -33 -3 -40 -20 -40 -11 0 -20 -4 -20 -10 0 -5 9 -10
21 -10 18 0 20 -5 17 -47 -3 -41 -6 -48 -25 -51 -13 -2 -23 -10 -23 -18 0 -21
15 -17 68 17 38 24 42 29 20 25 -27 -6 -28 -5 -28 34 0 33 3 40 19 40 11 0 23
5 26 10 4 6 -5 10 -19 10 -21 0 -26 5 -26 24 0 14 5 28 10 31 15 9 12 25 -5
25 -11 0 -15 -11 -15 -40z"/>
<path d="M5151 7135 c-1 -70 -3 -130 -4 -133 -2 -8 8 -13 21 -11 36 7 213 2
216 -6 9 -26 14 11 18 131 l3 131 -107 0 c-59 1 -116 4 -126 7 -19 6 -20 1
-21 -119z m69 65 c0 -16 -4 -30 -10 -30 -6 0 -10 -27 -10 -61 0 -54 2 -60 18
-55 12 4 10 0 -7 -14 -31 -26 -8 -26 35 1 l34 21 26 -21 c15 -12 30 -21 33
-21 9 0 13 97 5 152 l-6 47 -56 4 c-37 2 -29 3 23 3 57 -1 80 -5 79 -13 -1 -7
-2 -56 -2 -108 l-2 -95 -105 0 -105 0 0 110 0 110 25 0 c21 0 25 -5 25 -30z
m95 0 c4 -6 -12 -10 -40 -10 -28 0 -44 4 -40 10 3 6 21 10 40 10 19 0 37 -4
40 -10z m3 -37 c-15 -2 -42 -2 -60 0 -18 2 -6 4 27 4 33 0 48 -2 33 -4z m12
-23 c0 -5 -25 -10 -56 -10 -34 0 -53 4 -49 10 3 6 28 10 56 10 27 0 49 -4 49
-10z m0 -30 c0 -5 -25 -10 -55 -10 -30 0 -55 5 -55 10 0 6 25 10 55 10 30 0
55 -4 55 -10z m0 -30 c0 -5 -25 -10 -55 -10 -30 0 -55 5 -55 10 0 6 25 10 55
10 30 0 55 -4 55 -10z"/>
<path d="M5506 7200 c-11 -33 -23 -60 -28 -60 -4 0 -8 -7 -8 -16 0 -14 3 -14
16 -3 14 11 15 5 13 -60 -1 -44 2 -76 9 -83 9 -9 12 16 12 105 0 86 4 126 15
147 12 23 13 30 3 30 -7 0 -22 -27 -32 -60z"/>
<path d="M5634 7243 c1 -14 -9 -19 -49 -24 l-50 -5 50 -5 c55 -4 61 -24 7 -24
-32 0 -32 -1 -32 -47 l0 -47 35 6 c37 6 48 -10 23 -35 -9 -9 -16 -8 -30 5 -10
9 -18 11 -18 5 0 -6 5 -14 10 -17 19 -12 10 -35 -22 -55 -18 -11 -26 -20 -18
-20 8 0 30 9 49 21 30 18 36 19 65 6 48 -22 75 -29 87 -21 6 4 -16 16 -50 27
-65 21 -66 22 -51 61 8 22 16 26 51 26 33 0 40 3 35 16 -3 9 -6 27 -6 40 0 21
-5 24 -36 24 -54 0 -37 24 20 28 25 2 44 7 41 12 -3 5 -26 7 -52 3 -43 -6 -45
-5 -38 15 4 16 2 22 -8 22 -8 0 -14 -8 -13 -17z m-4 -104 c0 -27 -3 -30 -27
-27 -45 5 -36 57 10 58 12 0 17 -8 17 -31z m80 -5 c0 -20 -5 -24 -30 -24 -25
0 -30 4 -30 23 0 31 5 35 35 29 18 -3 25 -11 25 -28z"/>
<path d="M5860 7251 c0 -5 -12 -24 -26 -41 -38 -44 -24 -47 19 -3 40 39 46 53
22 53 -8 0 -15 -4 -15 -9z"/>
<path d="M2576 7228 c7 -22 -34 -159 -53 -174 -24 -20 -14 -25 40 -21 58 5
106 21 108 37 3 27 1 46 -5 62 -5 11 0 24 13 37 12 12 21 26 21 32 0 24 -33
42 -81 43 -43 2 -48 0 -43 -16z m83 -12 c18 -22 -3 -56 -34 -56 -27 0 -32 18
-15 51 13 23 33 25 49 5z m-25 -82 c19 -7 21 -47 3 -62 -7 -6 -25 -13 -40 -16
-30 -5 -35 11 -17 58 10 26 24 31 54 20z"/>
<path d="M2790 7232 c-43 -22 -69 -57 -77 -105 -5 -33 -2 -42 22 -68 33 -34
72 -38 116 -12 39 23 37 38 -2 18 -42 -22 -80 -16 -98 16 -13 23 -13 33 -1 69
25 77 109 110 131 53 10 -26 12 -27 19 -8 18 42 12 51 -33 53 -25 1 -58 -6
-77 -16z"/>
<path d="M3163 7243 c24 -4 27 -8 27 -46 0 -58 -13 -99 -50 -153 -17 -26 -29
-48 -27 -51 10 -9 66 73 79 113 13 45 28 59 28 25 0 -10 8 -29 19 -42 25 -33
17 -47 -43 -75 -28 -13 -43 -24 -32 -24 10 0 40 12 66 26 l47 26 34 -21 c34
-21 95 -29 85 -12 -3 5 -21 12 -40 15 -56 11 -62 28 -27 79 43 62 43 72 2 68
-28 -2 -33 0 -27 14 3 9 9 28 12 41 l6 24 -93 -1 c-52 -1 -82 -4 -66 -6z m125
-35 c-3 -29 -7 -33 -37 -36 -38 -4 -50 8 -43 44 4 21 10 24 44 24 38 0 39 -1
36 -32z m44 -63 c-7 -24 -42 -75 -52 -75 -11 0 -50 58 -50 76 0 7 20 11 53 10
29 -1 51 -5 49 -11z"/>
<path d="M3727 7231 c-105 -53 -98 -201 10 -201 39 0 94 32 75 43 -5 4 -15 0
-22 -8 -17 -21 -73 -19 -93 3 -52 57 24 176 100 157 16 -4 23 -13 23 -30 0
-36 17 -31 23 8 2 17 4 33 3 34 -1 1 -20 3 -44 6 -27 3 -55 -2 -75 -12z"/>
<path d="M5928 7205 c-2 -24 -2 -48 -1 -52 2 -5 29 -6 61 -3 l57 5 1 46 2 46
-58 2 -58 1 -4 -45z m102 15 c0 -5 -16 -10 -35 -10 -19 0 -38 -1 -42 -2 -3 -2
-8 3 -10 10 -3 8 9 12 41 12 25 0 46 -4 46 -10z m0 -39 c0 -9 -60 -19 -79 -13
-27 9 -7 22 34 22 25 0 45 -4 45 -9z"/>
<path d="M7196 7226 c4 -18 1 -25 -13 -29 -10 -3 -1 -5 19 -6 42 -1 42 0 6
-81 -11 -25 -31 -60 -45 -77 -13 -18 -19 -33 -14 -33 6 0 23 18 37 40 15 22
31 40 35 41 5 1 20 1 34 1 129 0 135 -1 135 -25 0 -36 -26 -66 -52 -60 -22 4
-23 4 -4 -11 11 -9 23 -16 28 -16 14 0 36 45 41 88 4 36 3 42 -14 42 -14 0
-19 7 -19 25 0 16 -6 25 -16 25 -10 0 -14 7 -12 23 3 19 -2 22 -39 25 -38 3
-43 6 -43 28 0 13 -4 24 -10 24 -5 0 -10 -11 -10 -25 0 -14 -4 -25 -9 -25 -5
0 -12 11 -15 25 -4 14 -11 25 -16 25 -6 0 -8 -11 -4 -24z m134 -44 c0 -17 -25
-32 -52 -32 -21 0 -28 5 -28 20 0 17 7 20 40 20 22 0 40 -4 40 -8z m-14 -52
c24 0 34 -5 34 -15 0 -12 -13 -15 -60 -15 -45 0 -60 4 -60 14 0 16 19 26 38
20 8 -2 29 -4 48 -4z"/>
<path d="M7950 7235 c0 -12 -14 -15 -65 -15 -37 0 -65 -4 -65 -10 0 -5 25 -10
55 -10 44 0 55 -3 55 -16 0 -13 -7 -15 -30 -11 l-29 6 -3 -92 -3 -92 -30 -6
c-16 -4 -25 -8 -20 -9 20 -4 240 -6 253 -2 24 8 12 24 -14 18 l-26 -7 4 91 3
90 -42 0 c-32 0 -43 4 -43 15 0 12 14 15 65 15 40 0 65 4 65 11 0 6 -22 10
-57 8 -50 -2 -58 0 -55 14 2 9 -2 17 -8 17 -5 0 -10 -7 -10 -15z m70 -90 c0
-12 -14 -15 -65 -15 -51 0 -65 3 -65 15 0 12 14 15 65 15 51 0 65 -3 65 -15z
m-10 -50 c0 -12 -13 -15 -60 -15 -47 0 -60 3 -60 15 0 12 13 15 60 15 47 0 60
-3 60 -15z m-24 -35 c15 0 24 -6 24 -15 0 -12 -13 -15 -60 -15 -43 0 -60 4
-60 13 0 22 13 29 44 23 16 -3 39 -6 52 -6z m24 -55 c0 -12 -13 -15 -60 -15
-47 0 -60 3 -60 15 0 12 13 15 60 15 47 0 60 -3 60 -15z"/>
<path d="M8323 7231 c-4 -15 -12 -21 -27 -19 -19 3 -21 -2 -24 -54 -3 -54 -2
-57 20 -55 13 1 25 -2 28 -8 3 -5 -10 -11 -27 -13 -18 -2 -33 -8 -33 -14 0 -5
7 -8 15 -4 24 9 18 -10 -16 -49 -17 -19 -26 -35 -20 -35 11 0 35 24 65 65 19
26 25 18 19 -22 -4 -25 -10 -33 -27 -34 -20 0 -20 -1 3 -10 30 -12 33 -9 38
38 5 50 8 51 29 11 18 -36 33 -50 47 -41 4 2 -3 15 -18 28 -31 29 -31 39 -3
59 18 13 19 18 9 30 -9 10 -11 32 -7 64 l6 48 -32 -4 c-26 -4 -30 -2 -25 11 3
9 2 19 -4 23 -6 3 -13 -4 -16 -15z m55 -48 c2 -9 -10 -13 -42 -13 -43 0 -55 7
-39 24 12 11 76 2 81 -11z m2 -44 c0 -5 -20 -9 -45 -9 -54 0 -60 17 -7 22 41
4 52 1 52 -13z m0 -42 c0 -21 -12 -28 -27 -16 -19 16 -16 29 7 29 11 0 20 -6
20 -13z"/>
<path d="M2427 7178 c-25 -35 -62 -80 -83 -100 -29 -31 -33 -39 -20 -44 22 -9
47 3 41 18 -10 27 23 53 63 49 17 -1 15 -40 -3 -47 -27 -11 -16 -23 19 -21 33
2 64 17 36 17 -10 0 -11 17 -6 80 3 44 9 86 12 95 14 34 -16 11 -59 -47z m23
-28 c0 -23 -4 -30 -20 -30 -24 0 -25 4 -4 35 21 32 24 31 24 -5z"/>
<path d="M3907 7224 c7 -18 -16 -122 -29 -130 -4 -3 -8 -14 -8 -25 0 -10 -7
-19 -15 -19 -8 0 -15 -4 -15 -10 0 -6 27 -10 60 -10 104 0 160 45 160 128 0
56 -33 82 -106 82 -45 0 -52 -3 -47 -16z m105 -16 c18 -14 21 -26 19 -71 -2
-42 -51 -87 -95 -87 -20 0 -36 3 -36 8 0 11 28 103 41 135 12 30 43 36 71 15z"/>
<path d="M4120 7231 c0 -5 5 -11 11 -13 13 -4 -35 -163 -52 -173 -23 -15 -3
-20 69 -17 76 3 78 4 89 33 13 34 10 36 -17 9 -13 -13 -33 -20 -60 -20 -45 0
-45 0 -28 47 13 35 41 44 56 18 6 -13 11 -8 19 20 12 39 8 43 -19 18 -27 -24
-41 -5 -27 35 9 27 16 32 44 32 22 0 38 -6 44 -17 9 -15 10 -14 11 10 0 27 0
27 -70 27 -38 0 -70 -4 -70 -9z"/>
<path d="M8173 7195 c-28 -55 -29 -69 -3 -62 11 3 20 3 20 0 0 -3 -9 -16 -20
-30 -19 -24 -27 -53 -15 -53 3 0 17 7 30 16 14 9 33 13 45 9 22 -7 27 4 9 22
-9 9 -17 8 -34 -3 -16 -10 -25 -12 -30 -5 -3 6 -2 11 3 11 13 0 65 80 58 88
-4 3 -13 -4 -22 -16 -8 -11 -21 -19 -29 -16 -11 5 -10 11 6 37 20 34 24 47 12
47 -5 0 -18 -21 -30 -45z"/>
<path d="M9630 7232 c0 -6 5 -14 10 -17 17 -10 11 -23 -12 -28 -14 -3 -8 -5
15 -6 35 -1 38 -3 32 -23 -11 -38 -57 -126 -76 -147 -21 -22 -24 -31 -10 -31
5 0 22 20 38 45 l28 45 88 0 c87 0 87 0 87 -26 0 -42 -16 -62 -45 -57 -30 6
-33 -2 -6 -17 29 -15 49 -2 61 38 14 53 13 82 -5 82 -9 0 -15 9 -15 25 0 18
-5 25 -19 25 -15 0 -19 6 -18 28 2 26 1 27 -42 24 -43 -4 -44 -4 -37 23 5 20
3 26 -6 23 -7 -3 -14 -10 -14 -16 -1 -7 -2 -16 -3 -22 -2 -15 -21 -12 -21 4 0
7 -7 19 -15 26 -9 8 -15 9 -15 2z m132 -66 c11 -17 -1 -26 -38 -26 -26 0 -34
4 -34 18 0 14 8 19 33 19 17 0 35 -5 39 -11z m38 -60 c0 -18 -18 -22 -87 -18
-45 3 -52 6 -42 18 16 20 129 20 129 0z"/>
<path d="M9940 7231 c0 -6 5 -13 10 -16 19 -11 10 -25 -16 -25 -14 0 -23 -4
-19 -9 7 -12 105 -11 105 1 0 4 -4 8 -10 8 -5 0 -20 11 -34 25 -27 27 -36 31
-36 16z"/>
<path d="M10070 7230 c0 -5 5 -10 10 -10 6 0 10 -7 10 -15 0 -10 -10 -15 -27
-15 -27 -1 -27 -1 -9 -15 19 -15 19 -15 -3 -45 -25 -34 -21 -51 10 -43 31 9
20 -14 -19 -38 -27 -18 -32 -19 -32 -5 0 12 -10 16 -40 16 l-40 0 0 -46 c0
-38 3 -45 16 -40 9 3 27 6 40 6 17 0 24 6 24 19 0 11 8 22 18 25 31 10 129
112 118 123 -3 4 -17 -6 -30 -20 -23 -24 -56 -37 -56 -21 0 4 10 22 21 41 17
28 26 33 44 29 27 -7 55 2 55 16 0 5 -12 7 -29 3 -23 -5 -31 -1 -45 20 -17 25
-36 33 -36 15z m-80 -210 c0 -25 -4 -30 -25 -30 -20 0 -25 5 -25 23 0 28 7 37
32 37 13 0 18 -8 18 -30z"/>
<path d="M11047 7233 c-4 -3 -7 -15 -7 -25 0 -15 -8 -18 -50 -18 -27 0 -50 -4
-50 -10 0 -10 18 -14 58 -10 12 1 22 -1 22 -4 0 -17 -23 -59 -51 -90 -17 -20
-29 -40 -25 -43 4 -4 13 3 22 15 25 37 35 26 28 -32 -4 -35 -3 -56 5 -60 7 -5
11 2 12 16 0 13 2 48 3 78 1 30 8 70 16 88 l15 33 70 -1 c93 -2 95 -2 95 10 0
6 -33 10 -80 10 l-80 0 6 25 c6 25 3 31 -9 18z"/>
<path d="M6402 7125 c-74 -95 -79 -105 -57 -105 16 0 23 5 19 13 -7 20 33 57
59 53 16 -3 21 -9 19 -27 -1 -13 -8 -27 -15 -31 -7 -4 5 -8 28 -8 25 0 35 3
27 9 -11 6 -11 26 -3 101 6 52 9 95 8 97 -2 1 -40 -44 -85 -102z m58 21 c0
-28 -12 -46 -31 -46 -23 0 -24 5 -1 35 19 28 32 32 32 11z"/>
<path d="M6579 7217 c11 -11 -22 -140 -45 -174 l-14 -23 63 0 c71 0 105 18
132 70 39 75 5 125 -88 132 -36 3 -54 1 -48 -5z m102 -17 c14 -8 19 -21 19
-50 0 -72 -22 -97 -102 -116 -16 -3 -28 -2 -28 2 0 16 37 152 44 163 9 14 41
14 67 1z"/>
<path d="M6824 7216 c-64 -28 -97 -133 -54 -176 11 -11 30 -22 43 -25 28 -7
97 18 97 36 0 7 -8 6 -25 -5 -37 -24 -77 -20 -99 10 -16 23 -17 31 -6 66 17
60 52 90 97 86 30 -2 38 -8 43 -28 l6 -25 7 25 c4 14 7 30 7 35 0 15 -81 16
-116 1z"/>
<path d="M10621 7110 c-1 -67 -4 -127 -7 -133 -3 -9 26 -11 116 -8 87 2 120 0
120 -9 0 -6 5 -8 10 -5 6 4 10 60 10 136 l0 129 -109 0 c-60 0 -116 2 -124 5
-11 5 -14 -15 -16 -115z m63 62 c1 -17 -3 -32 -9 -32 -6 0 -10 -25 -9 -58 1
-37 5 -56 12 -54 18 3 14 -15 -4 -22 -9 -4 -14 -9 -11 -12 3 -3 23 4 44 15 39
20 40 20 71 1 18 -11 32 -22 32 -25 0 -3 -38 -5 -85 -5 l-85 0 0 116 c0 113 1
115 22 112 16 -2 21 -10 22 -36z m139 28 l27 0 0 -110 c0 -88 -3 -110 -14
-110 -20 0 -29 51 -21 109 l7 49 -49 -5 c-66 -6 -76 -11 -25 -12 26 -1 41 -5
37 -11 -5 -9 -95 -10 -95 -2 0 19 24 42 40 37 29 -9 70 5 70 25 0 19 -61 37
-82 24 -7 -5 -8 -3 -3 6 5 8 20 10 44 6 20 -3 48 -6 64 -6z m-33 -30 c0 -5
-20 -10 -45 -10 -25 0 -45 5 -45 10 0 6 20 10 45 10 25 0 45 -4 45 -10z m0
-90 c0 -5 -22 -10 -50 -10 -27 0 -50 5 -50 10 0 6 23 10 50 10 28 0 50 -4 50
-10z m0 -30 c0 -5 -22 -10 -50 -10 -27 0 -50 5 -50 10 0 6 23 10 50 10 28 0
50 -4 50 -10z"/>
<path d="M9035 7200 c8 -26 -34 -170 -52 -177 -25 -10 -13 -21 21 -20 33 1 34
2 29 33 -6 38 8 68 34 70 60 3 64 5 80 39 16 33 16 37 1 51 -9 10 -38 18 -68
20 -48 4 -51 3 -45 -16z m79 -6 c36 -14 2 -74 -41 -74 -27 0 -27 2 -11 47 12
33 22 38 52 27z"/>
<path d="M9265 7211 c-11 -5 -33 -23 -49 -40 -36 -38 -49 -128 -22 -150 22
-18 20 -38 -4 -46 -37 -12 -21 -23 44 -30 66 -7 91 0 116 29 15 20 11 20 -26
2 -17 -8 -45 -12 -66 -9 -40 5 -50 20 -20 29 68 22 91 39 116 84 14 26 26 57
26 68 0 47 -67 84 -115 63z m73 -23 c18 -18 15 -54 -8 -98 -53 -104 -149 -88
-120 20 19 72 91 115 128 78z"/>
<path d="M10264 7213 c4 -4 35 -7 69 -8 50 0 62 -3 65 -17 3 -16 -5 -18 -57
-18 l-61 0 0 -105 c0 -63 4 -105 10 -105 6 0 10 12 10 27 0 15 9 37 21 49 l20
22 25 -25 c13 -13 24 -33 24 -43 0 -11 7 -20 15 -20 16 0 17 11 15 123 l-1 67
45 0 46 0 0 -60 c0 -33 -2 -60 -5 -60 -11 0 -34 60 -29 74 4 11 0 16 -11 16
-12 0 -15 -5 -10 -20 4 -11 0 -29 -9 -42 -22 -30 -20 -45 2 -25 17 16 20 15
41 -9 26 -30 21 -59 -9 -49 -11 3 -20 2 -20 -3 0 -16 52 -25 61 -10 5 7 9 55
9 106 l0 92 -56 0 c-47 0 -55 3 -52 17 2 13 17 18 63 21 106 7 72 12 -80 12
-82 0 -145 -3 -141 -7z m126 -115 l-1 -63 -19 24 c-11 13 -20 34 -20 47 0 15
-6 24 -15 24 -17 0 -20 -16 -5 -25 6 -4 3 -18 -8 -38 l-17 -32 -3 49 c-4 68 1
76 48 76 l40 0 0 -62z"/>
<path d="M11886 7195 c-4 -14 -13 -25 -21 -25 -11 0 -15 -14 -16 -57 0 -32 -2
-74 -3 -93 l-1 -35 52 0 53 0 0 56 c0 40 5 61 16 70 9 7 20 23 25 36 7 19 14
22 51 19 l43 -2 -2 -77 c-2 -94 -14 -120 -51 -111 -26 6 -26 6 -7 -9 51 -41
66 -17 80 136 l7 77 -56 0 c-53 0 -57 2 -51 20 4 11 2 20 -4 20 -6 0 -11 -9
-11 -20 0 -22 -26 -80 -36 -80 -3 0 -4 12 -2 28 3 24 0 27 -24 24 -30 -3 -37
15 -16 36 9 9 8 12 -4 12 -9 0 -19 -11 -22 -25z m44 -70 c0 -32 -2 -35 -29
-35 -35 0 -45 12 -37 46 5 19 13 24 36 24 28 0 30 -3 30 -35z m-2 -82 c-3 -35
-6 -38 -33 -38 -27 0 -30 3 -33 38 -3 37 -3 37 33 37 36 0 36 0 33 -37z"/>
<path d="M12550 7185 c0 -28 -4 -35 -20 -35 -11 0 -20 -4 -20 -10 0 -5 9 -10
20 -10 18 0 20 -7 20 -65 0 -36 3 -65 8 -65 4 0 25 16 47 35 42 36 36 49 -8
15 -14 -11 -28 -20 -31 -20 -3 0 -6 23 -6 50 l0 50 35 0 c19 0 35 5 35 11 0 6
-14 9 -32 7 -29 -3 -33 0 -36 25 -2 15 1 27 7 27 6 0 11 5 11 10 0 6 -7 10
-15 10 -10 0 -15 -11 -15 -35z"/>
<path d="M12876 7172 l-26 -52 26 -10 c21 -9 29 -6 45 12 20 24 25 48 10 48
-5 0 -11 -9 -14 -20 -3 -12 -14 -20 -26 -20 -26 0 -26 5 0 41 11 16 19 35 16
42 -2 6 -16 -12 -31 -41z"/>
<path d="M13020 7205 c0 -9 -9 -15 -22 -15 -21 0 -23 -5 -24 -55 -2 -53 -1
-55 22 -49 18 5 24 2 24 -10 0 -11 -9 -16 -30 -16 -31 0 -42 -16 -15 -22 14
-3 13 -6 -1 -27 l-17 -24 -8 21 c-5 12 -13 22 -19 22 -7 0 -6 -8 2 -22 7 -13
11 -30 9 -38 -2 -8 11 0 28 17 17 18 31 37 31 43 0 5 5 10 10 10 6 0 10 -13
10 -29 0 -21 -6 -32 -21 -36 -17 -6 -19 -9 -8 -16 30 -19 39 -9 40 39 0 40 2
44 12 28 29 -44 49 -66 58 -60 6 3 -2 17 -16 31 -31 32 -31 37 0 51 25 11 34
32 15 32 -5 0 -10 25 -10 55 0 54 0 55 -30 55 -22 0 -28 4 -24 15 4 8 1 15 -5
15 -6 0 -11 -7 -11 -15z m50 -45 c0 -5 -18 -10 -40 -10 -22 0 -40 5 -40 10 0
6 18 10 40 10 22 0 40 -4 40 -10z m0 -45 c0 -16 -20 -19 -57 -9 -37 10 -26 24
17 24 29 0 40 -4 40 -15z m8 -42 c-2 -10 -10 -18 -18 -18 -8 0 -16 8 -18 18
-2 12 3 17 18 17 15 0 20 -5 18 -17z"/>
<path d="M11509 7187 c-64 -42 -88 -141 -43 -177 22 -19 89 -21 113 -4 30 21
26 38 -4 18 -30 -19 -90 -12 -99 12 -23 60 24 148 84 155 32 4 50 -7 50 -32 0
-10 5 -19 10 -19 6 0 10 13 10 29 0 24 -5 29 -31 35 -47 9 -53 8 -90 -17z"/>
<path d="M12341 7173 c24 -45 88 -105 102 -96 6 3 2 12 -9 19 -49 35 -64 51
-74 82 -6 17 -18 32 -26 32 -11 0 -9 -8 7 -37z"/>
<path d="M12695 7200 c-38 -4 -57 -7 -41 -8 l29 -2 -6 -57 c-6 -75 -30 -123
-74 -153 -19 -13 -30 -26 -24 -28 19 -6 71 38 91 79 11 21 23 66 27 99 6 59 7
60 36 60 l30 0 -6 -96 c-4 -53 -11 -102 -17 -109 -6 -8 -24 -11 -43 -9 l-32 4
25 -14 c40 -24 57 -19 68 17 13 41 25 228 15 225 -5 -1 -39 -4 -78 -8z"/>
<path d="M14310 7191 c0 -27 -17 -35 -23 -11 -3 11 -10 20 -15 20 -6 0 -8 -9
-5 -19 4 -16 1 -19 -16 -14 -12 3 -21 1 -21 -6 0 -6 16 -11 36 -11 36 0 36 -1
30 -32 -4 -18 -23 -58 -44 -88 -47 -70 -51 -81 -19 -51 15 13 29 32 33 43 5
16 17 18 100 18 88 0 94 -1 94 -21 0 -35 -19 -59 -48 -59 l-27 -1 25 -13 c14
-8 28 -12 32 -10 11 7 36 65 41 97 4 23 1 27 -19 27 -19 0 -24 5 -24 25 0 16
-6 25 -15 25 -9 0 -15 9 -15 24 0 22 -5 25 -42 28 -38 3 -43 6 -40 26 2 12 -2
22 -7 22 -6 0 -11 -9 -11 -19z m90 -61 c0 -17 -7 -20 -40 -20 -33 0 -40 3 -40
20 0 17 7 20 40 20 33 0 40 -3 40 -20z m30 -50 c0 -21 -6 -23 -89 -21 -50 0
-54 2 -45 25 5 12 20 16 70 16 57 0 64 -2 64 -20z"/>
<path d="M5870 7186 c0 -8 -15 -31 -34 -50 -31 -34 -38 -59 -9 -35 11 9 13 -1
13 -55 0 -37 4 -66 10 -66 6 0 10 35 10 84 0 47 4 88 10 91 5 3 15 15 20 26 9
15 7 19 -5 19 -8 0 -15 -6 -15 -14z"/>
<path d="M12250 7189 c0 -7 -16 -34 -35 -60 -19 -27 -31 -49 -26 -49 10 0 47
48 69 89 15 28 15 31 2 31 -5 0 -10 -5 -10 -11z"/>
<path d="M13740 7128 c-25 -34 -60 -81 -77 -105 l-33 -43 26 0 c16 0 23 4 18
11 -13 21 18 59 48 59 23 0 28 -4 28 -25 0 -13 -8 -29 -17 -34 -14 -8 -10 -10
22 -11 26 0 35 3 27 9 -11 7 -12 26 -4 102 6 52 9 95 8 96 -1 1 -22 -25 -46
-59z m20 -15 c-1 -29 -15 -53 -32 -53 -19 0 -19 1 -1 30 16 28 33 40 33 23z"/>
<path d="M13868 7177 c12 -14 10 -29 -13 -99 -15 -46 -32 -86 -38 -90 -19 -12
92 -9 114 3 29 15 40 50 24 75 -12 18 -11 23 6 37 20 18 24 43 10 66 -5 8 -33
16 -62 19 -49 5 -53 3 -41 -11z m77 -18 c4 -5 4 -21 1 -35 -5 -17 -13 -24 -31
-24 -26 0 -29 9 -19 48 7 23 38 30 49 11z m-10 -98 c11 -37 -25 -78 -59 -65
-19 7 -19 11 -5 53 13 36 53 44 64 12z"/>
<path d="M1963 7135 c1 -43 21 -41 25 3 2 23 -1 32 -11 32 -11 0 -15 -11 -14
-35z"/>
<path d="M4610 7150 c-20 -7 -16 -8 23 -9 26 -1 47 4 47 9 0 12 -34 12 -70 0z"/>
<path d="M9930 7140 c0 -5 18 -10 40 -10 22 0 40 5 40 10 0 6 -18 10 -40 10
-22 0 -40 -4 -40 -10z"/>
<path d="M11110 7121 c0 -27 -4 -30 -37 -34 l-38 -4 38 -1 37 -2 0 -50 0 -50
-47 -1 c-43 -1 -45 -2 -18 -9 45 -12 165 -12 165 0 0 6 -17 10 -38 10 -21 0
-41 2 -43 4 -2 3 -3 25 -1 50 4 45 4 45 45 49 l42 4 -44 1 c-42 2 -43 3 -39
32 3 20 0 30 -9 30 -8 0 -13 -12 -13 -29z"/>
<path d="M5972 7133 c-102 -4 -120 -23 -21 -23 56 0 80 -13 42 -23 -17 -4 -17
-5 0 -6 13 -1 17 -10 17 -41 0 -38 -1 -40 -25 -34 -14 3 -25 2 -25 -4 0 -12
47 -25 60 -17 6 4 10 27 10 52 0 45 0 45 30 40 17 -4 30 -2 30 3 0 6 -14 10
-31 10 -17 0 -28 4 -24 10 3 6 15 10 26 10 10 0 19 7 19 15 0 8 -3 14 -7 13
-5 -1 -50 -4 -101 -5z"/>
<path d="M8594 7126 c-9 -24 0 -51 19 -54 20 -4 47 20 47 41 0 27 -57 37 -66
13z m43 -12 c9 -23 -11 -38 -26 -20 -13 16 -7 36 10 36 5 0 12 -7 16 -16z"/>
<path d="M7480 7121 c0 -9 238 -20 260 -13 6 2 10 8 10 13 0 5 -60 9 -135 9
-78 0 -135 -4 -135 -9z"/>
<path d="M9930 7098 c0 -5 19 -8 42 -8 23 0 39 3 35 6 -9 9 -77 11 -77 2z"/>
<path d="M12000 7103 c1 -14 40 -56 47 -50 7 8 -24 57 -37 57 -6 0 -10 -3 -10
-7z"/>
<path d="M12265 7073 c-10 -21 -21 -40 -24 -43 -15 -12 -40 -59 -33 -63 8 -5
135 9 163 18 12 4 19 -1 24 -15 7 -22 25 -27 25 -7 0 17 -60 101 -67 94 -2 -3
3 -17 12 -31 16 -24 16 -25 -7 -30 -57 -12 -128 -16 -128 -8 0 5 7 15 15 22
25 21 65 100 50 100 -7 0 -21 -17 -30 -37z"/>
<path d="M13275 7100 c-3 -6 -3 -19 0 -31 10 -31 49 -21 53 14 3 23 0 27 -22
27 -14 0 -28 -5 -31 -10z m45 -20 c0 -11 -4 -20 -9 -20 -13 0 -32 26 -24 33
13 14 33 6 33 -13z"/>
<path d="M10127 7061 c-15 -22 -47 -52 -72 -67 -60 -35 -50 -44 11 -10 51 28
79 27 89 -5 7 -22 25 -26 25 -5 0 8 -12 24 -26 35 l-26 20 21 30 c23 32 26 41
12 41 -4 0 -20 -18 -34 -39z"/>
<path d="M12865 7069 c-19 -36 -15 -45 13 -30 12 6 30 11 42 11 24 0 25 30 2
38 -7 2 -11 -2 -10 -9 2 -7 -5 -15 -15 -17 -15 -3 -18 0 -12 17 10 31 -2 25
-20 -10z"/>
<path d="M4570 7080 c0 -6 27 -10 61 -10 37 0 58 4 54 10 -3 6 -31 10 -61 10
-30 0 -54 -4 -54 -10z"/>
<path d="M5893 7083 c9 -2 24 -18 32 -34 9 -16 20 -29 25 -29 15 0 12 11 -7
32 -15 17 -15 18 6 18 12 0 19 4 16 10 -3 6 -25 9 -48 9 -23 -1 -34 -3 -24 -6z"/>
<path d="M600 7066 c0 -22 17 -28 24 -10 9 22 8 24 -9 24 -8 0 -15 -6 -15 -14z"/>
<path d="M4955 7058 c10 -31 25 -47 25 -26 0 24 -11 48 -22 48 -5 0 -6 -10 -3
-22z"/>
<path d="M5000 7071 c0 -5 7 -14 15 -21 16 -14 18 -10 9 14 -6 17 -24 22 -24
7z"/>
<path d="M4867 7039 c-20 -36 -14 -53 8 -23 12 16 21 54 13 54 -2 0 -11 -14
-21 -31z"/>
<path d="M4910 7046 c0 -14 5 -28 10 -31 6 -3 10 5 10 19 0 14 -4 28 -10 31
-6 3 -10 -5 -10 -19z"/>
<path d="M7253 7030 c1 -16 5 -30 10 -30 11 0 9 48 -3 55 -5 3 -8 -7 -7 -25z"/>
<path d="M7297 7040 c8 -29 25 -37 21 -9 -1 12 -8 24 -15 26 -7 3 -9 -3 -6
-17z"/>
<path d="M7346 7046 c3 -9 11 -16 16 -16 13 0 5 23 -10 28 -7 2 -10 -2 -6 -12z"/>
<path d="M8220 7047 c0 -8 7 -20 15 -27 12 -10 15 -10 15 3 0 8 -7 20 -15 27
-12 10 -15 10 -15 -3z"/>
<path d="M7205 7024 c-20 -30 -11 -46 10 -18 13 18 20 44 11 44 -2 0 -11 -12
-21 -26z"/>
<path d="M9690 7021 c0 -17 5 -31 10 -31 6 0 10 11 10 24 0 14 -4 28 -10 31
-6 4 -10 -7 -10 -24z"/>
<path d="M9733 7036 c4 -10 7 -22 7 -27 0 -5 5 -9 11 -9 15 0 7 43 -10 48 -10
3 -12 0 -8 -12z"/>
<path d="M9790 7043 c0 -4 5 -15 10 -23 8 -13 10 -13 10 2 0 9 -4 20 -10 23
-5 3 -10 3 -10 -2z"/>
<path d="M8190 7032 c0 -5 7 -17 15 -28 14 -19 14 -19 15 2 0 12 -7 24 -15 28
-8 3 -15 2 -15 -2z"/>
<path d="M9653 7022 c-3 -12 -9 -22 -14 -22 -5 0 -9 -4 -9 -10 0 -5 5 -10 10
-10 12 0 33 50 25 58 -3 4 -8 -4 -12 -16z"/>
<path d="M8157 7010 c6 -21 21 -35 29 -27 6 6 -18 47 -27 47 -4 0 -5 -9 -2
-20z"/>
<path d="M14410 7021 c0 -5 7 -14 15 -21 16 -14 18 -10 9 14 -6 17 -24 22 -24
7z"/>
<path d="M12890 7015 c0 -18 19 -40 26 -32 4 4 0 15 -9 24 -9 10 -17 13 -17 8z"/>
<path d="M14322 6991 c1 -17 6 -31 10 -31 12 0 10 48 -2 55 -6 4 -10 -5 -8
-24z"/>
<path d="M14370 7010 c0 -8 5 -22 10 -30 9 -13 10 -13 10 0 0 8 -5 22 -10 30
-9 13 -10 13 -10 0z"/>
<path d="M12861 7000 c1 -24 15 -54 21 -44 4 5 0 20 -8 34 -7 14 -13 18 -13
10z"/>
<path d="M14265 6980 c-18 -20 -15 -38 4 -25 15 9 33 45 23 45 -5 0 -17 -9
-27 -20z"/>
<path d="M1180 6753 c0 -61 -3 -118 -6 -126 -4 -12 13 -14 108 -14 62 0 120
-3 129 -7 14 -6 16 9 18 126 l2 133 -126 0 -125 0 0 -112z m227 -11 c2 -78 0
-104 -10 -108 -8 -3 -49 -4 -93 -2 l-79 3 38 19 c35 19 39 19 72 3 42 -20 49
-21 39 -5 -8 13 -7 80 2 111 5 15 -3 17 -75 17 l-81 0 0 -55 c0 -42 3 -55 15
-55 12 0 11 -4 -5 -20 -11 -11 -24 -20 -30 -20 -6 0 -10 43 -10 110 l0 111
108 -3 107 -3 2 -103z m-57 18 c0 -5 -25 -10 -55 -10 -30 0 -55 5 -55 10 0 6
25 10 55 10 30 0 55 -4 55 -10z m0 -30 c0 -5 -25 -10 -55 -10 -30 0 -55 5 -55
10 0 6 25 10 55 10 30 0 55 -4 55 -10z m0 -30 c0 -5 -25 -10 -55 -10 -30 0
-55 5 -55 10 0 6 25 10 55 10 30 0 55 -4 55 -10z"/>
<path d="M1240 6815 c0 -24 3 -25 60 -25 57 0 60 1 60 25 0 23 -4 25 -42 24
-38 -1 -39 -2 -14 -8 47 -10 44 -31 -4 -31 -37 0 -41 2 -35 20 5 14 2 20 -9
20 -10 0 -16 -9 -16 -25z"/>
<path d="M2510 6850 c0 -17 -7 -20 -50 -20 -27 0 -50 -4 -50 -10 0 -5 15 -10
34 -10 19 0 38 -4 41 -10 7 -11 -17 -53 -54 -92 -13 -15 -21 -31 -18 -35 4 -4
14 3 23 15 21 31 33 19 27 -27 -3 -21 0 -47 6 -57 6 -11 11 -14 11 -9 0 6 38
9 100 7 68 -3 100 0 100 7 0 6 -18 11 -40 11 -41 0 -42 2 -42 45 0 53 1 55 31
49 16 -4 32 -1 35 5 5 7 -5 11 -30 11 -35 0 -36 1 -32 30 3 20 0 30 -9 30 -8
0 -13 -12 -13 -30 0 -28 -3 -30 -36 -30 -21 0 -33 -4 -29 -10 3 -5 19 -10 36
-10 25 0 29 -4 29 -29 0 -52 -8 -61 -56 -61 l-43 0 4 70 c6 101 24 124 95 118
52 -4 110 2 110 12 0 6 -35 10 -86 10 -81 0 -85 1 -79 20 4 11 2 20 -4 20 -6
0 -11 -9 -11 -20z"/>
<path d="M3297 6840 c-7 -18 -17 -28 -24 -26 -13 5 -14 3 -15 -94 -2 -88 1
-104 16 -91 14 12 50 10 62 -2 18 -17 24 -2 24 58 0 36 4 65 10 65 5 0 16 13
24 29 14 26 20 29 63 27 l48 -1 -3 -70 c-4 -89 -19 -121 -52 -117 -24 4 -25 3
-5 -12 11 -8 25 -16 31 -16 18 0 33 45 39 117 4 38 8 78 11 91 4 21 1 22 -51
22 -54 0 -55 1 -49 25 5 19 2 25 -10 25 -9 0 -16 -8 -16 -20 0 -30 -1 -33 -19
-65 l-16 -30 -3 31 c-3 27 -6 30 -28 26 -17 -3 -24 0 -24 11 0 9 5 19 10 22
13 8 13 25 -1 25 -6 0 -16 -14 -22 -30z m44 -47 c0 -5 2 -15 4 -24 5 -26 -8
-38 -38 -32 -22 4 -27 11 -27 34 0 26 4 29 30 29 17 0 30 -3 31 -7z m-1 -109
c0 -34 -1 -35 -32 -32 -29 3 -33 7 -36 36 -3 31 -2 32 32 32 35 0 36 -1 36
-36z"/>
<path d="M3639 6862 c-1 -4 0 -22 1 -41 2 -30 -1 -33 -19 -28 -13 3 -21 0 -21
-8 0 -7 8 -12 18 -11 14 1 17 -9 18 -59 1 -33 2 -64 3 -68 1 -12 81 52 81 65
0 5 -13 0 -29 -11 -16 -12 -32 -21 -35 -21 -3 0 -6 23 -6 50 l0 50 35 0 c19 0
35 5 35 10 0 7 -13 8 -35 4 -32 -6 -35 -4 -35 18 0 13 5 29 11 35 7 7 6 12 -5
16 -9 4 -16 3 -17 -1z"/>
<path d="M4113 6849 c-4 -14 -12 -19 -23 -16 -15 4 -19 -4 -24 -45 -8 -57 -3
-68 24 -61 14 4 20 0 20 -11 0 -11 -10 -16 -32 -17 -18 -1 -25 -3 -15 -6 23
-6 22 -16 -9 -52 -14 -17 -21 -31 -15 -31 11 0 27 16 55 55 14 19 15 19 22 1
8 -21 -8 -52 -25 -48 -17 3 -13 -15 5 -22 24 -9 34 2 34 40 0 42 10 43 33 4
11 -18 26 -30 39 -30 18 0 16 4 -13 31 -32 30 -32 32 -15 45 10 7 24 15 30 17
8 3 7 9 -2 20 -9 10 -13 34 -10 64 l3 48 -33 -3 c-30 -3 -33 -2 -27 17 4 13 2
21 -5 21 -7 0 -14 -9 -17 -21z m57 -49 c0 -5 -20 -10 -45 -10 -25 0 -45 5 -45
10 0 6 20 10 45 10 25 0 45 -4 45 -10z m-17 -29 c38 -3 14 -21 -28 -21 -41 0
-54 7 -40 22 3 3 16 4 28 3 12 -1 30 -3 40 -4z m22 -61 c0 -22 -29 -18 -33 3
-3 14 1 18 15 15 10 -2 18 -10 18 -18z"/>
<path d="M4930 6856 c0 -9 -7 -16 -15 -16 -8 0 -15 -4 -15 -10 0 -5 4 -10 9
-10 5 0 12 -10 14 -22 l4 -23 8 23 c6 18 15 22 46 22 22 0 39 5 39 11 0 7 -12
9 -35 5 -27 -5 -35 -4 -35 8 0 8 -4 18 -10 21 -5 3 -10 -1 -10 -9z"/>
<path d="M1730 6842 c-44 -22 -80 -75 -80 -119 0 -44 37 -83 79 -83 39 0 81
19 81 37 0 12 -3 11 -16 -1 -23 -23 -91 -21 -104 3 -32 62 21 161 88 161 13 0
25 -8 28 -17 15 -46 17 -48 27 -15 12 38 12 38 -33 45 -23 4 -47 0 -70 -11z"/>
<path d="M3962 6813 c-21 -44 -22 -48 -6 -60 16 -11 16 -14 0 -38 -22 -34 -12
-49 19 -29 13 9 33 13 44 9 15 -4 19 -2 17 12 -3 20 -21 28 -31 14 -3 -6 -13
-11 -21 -11 -18 0 -8 20 31 65 30 34 17 47 -15 15 -11 -11 -25 -18 -30 -15 -9
6 20 65 33 65 4 0 7 5 7 10 0 26 -27 5 -48 -37z"/>
<path d="M4816 6844 c-4 -12 -14 -14 -36 -9 -19 4 -30 3 -30 -4 0 -6 15 -11
34 -11 26 0 35 -5 41 -22 l8 -23 4 23 c3 14 12 22 24 22 10 0 19 5 19 10 0 6
-12 10 -26 10 -14 0 -23 4 -19 10 3 6 2 10 -3 10 -6 0 -13 -7 -16 -16z"/>
<path d="M1898 6838 c10 -12 8 -27 -8 -78 -11 -34 -20 -69 -20 -76 0 -7 -10
-20 -22 -28 -21 -15 -20 -16 35 -16 107 0 169 47 169 127 0 54 -28 76 -104 81
-55 4 -61 3 -50 -10z m111 -22 c10 -12 14 -37 12 -74 -2 -38 -53 -82 -96 -82
-30 0 -35 3 -32 18 26 94 42 139 54 148 15 13 47 8 62 -10z"/>
<path d="M2119 6831 c13 -23 -25 -159 -49 -178 -12 -10 1 -12 67 -13 l81 0 11
30 c11 34 -2 41 -19 10 -8 -15 -21 -20 -54 -20 l-44 0 10 40 c12 45 43 55 57
18 7 -19 9 -16 18 20 11 42 7 52 -14 31 -6 -6 -17 -9 -25 -7 -11 2 -13 10 -6
36 7 27 13 32 40 32 18 0 36 -7 44 -17 12 -16 13 -15 14 10 0 27 0 27 -70 27
-66 0 -70 -1 -61 -19z"/>
<path d="M3716 6838 c3 -4 17 -8 31 -8 25 0 25 0 18 -62 -8 -72 -22 -100 -73
-145 -21 -18 -31 -33 -23 -33 22 0 88 74 101 114 10 31 16 65 19 114 1 7 14
12 32 12 l30 0 -7 -87 c-8 -106 -17 -127 -50 -120 -36 6 -38 -7 -3 -20 52 -20
57 -6 73 184 l6 62 -79 -2 c-44 -1 -77 -5 -75 -9z"/>
<path d="M2965 6829 c11 -16 -35 -152 -57 -171 -20 -17 -18 -18 55 -18 89 0
107 5 107 33 0 19 -1 19 -19 3 -22 -20 -86 -33 -94 -19 -4 5 -3 23 2 39 5 22
14 30 34 32 20 3 27 -1 28 -15 1 -13 3 -11 9 7 14 45 12 52 -11 39 -30 -16
-42 1 -28 39 9 26 16 32 39 32 18 0 35 -8 44 -22 l16 -22 0 27 c0 27 -1 27
-66 27 -44 0 -63 -4 -59 -11z"/>
<path d="M5382 6736 l-104 -104 64 -7 c78 -8 145 -3 138 10 -3 6 -34 11 -70
12 -36 1 -69 2 -75 2 -5 1 28 39 74 85 46 46 82 89 80 95 -2 6 -51 -36 -107
-93z"/>
<path d="M5625 6743 c-38 -52 -75 -98 -82 -100 -22 -9 -14 -25 10 -21 12 2 22
10 22 19 0 27 26 49 56 49 22 0 29 -5 29 -20 0 -11 -7 -23 -15 -26 -28 -11
-15 -24 25 -24 22 0 40 5 40 10 0 6 -7 10 -16 10 -13 0 -15 8 -11 38 12 82 19
162 16 162 -2 -1 -35 -44 -74 -97z m32 -30 c-28 -28 -39 -4 -15 30 23 31 23
32 26 8 2 -13 -3 -30 -11 -38z"/>
<path d="M5794 6806 c0 -45 -32 -149 -49 -162 -27 -20 -16 -26 43 -22 70 5
131 33 143 65 15 41 11 108 -9 126 -10 9 -41 18 -73 20 l-55 4 0 -31z m89 5
c31 -12 41 -51 25 -103 -9 -31 -20 -44 -45 -54 -78 -33 -88 -14 -51 99 22 69
29 74 71 58z"/>
<path d="M6014 6805 c0 -44 -32 -148 -49 -161 -27 -20 -16 -24 63 -24 75 0 79
1 91 26 13 30 5 48 -10 22 -10 -18 -69 -34 -94 -25 -12 5 -12 12 -1 44 15 44
44 56 53 23 5 -19 8 -17 19 16 15 44 12 53 -11 30 -27 -27 -38 -19 -32 20 8
47 9 48 52 40 23 -5 35 -13 36 -24 0 -13 3 -12 11 6 6 12 9 25 6 28 -3 3 -35
6 -70 7 l-64 2 0 -30z"/>
<path d="M7280 6828 c0 -4 12 -8 26 -8 27 0 27 0 21 -60 -5 -61 -31 -124 -67
-162 -19 -21 -21 -36 -2 -24 17 10 64 85 76 121 l13 36 26 -50 26 -51 -22 -12
c-12 -6 -38 -20 -57 -29 -19 -10 -28 -18 -19 -19 8 0 39 12 68 26 l53 27 29
-22 c18 -14 41 -21 57 -19 25 3 23 5 -20 25 -27 12 -48 26 -48 30 0 5 14 30
30 56 38 60 38 68 -1 60 -31 -6 -31 -6 -24 28 4 19 8 38 9 44 0 5 -36 10 -86
10 -49 0 -88 -3 -88 -7z m150 -20 c-1 -42 -13 -58 -46 -58 -38 0 -48 11 -40
46 5 20 12 24 46 24 25 0 40 -5 40 -12z m40 -77 c0 -12 -43 -74 -55 -78 -11
-3 -45 51 -45 73 0 10 13 14 50 14 28 0 50 -4 50 -9z"/>
<path d="M6490 6819 c-11 -8 -12 -12 -2 -16 15 -6 17 -159 2 -168 -19 -12 -1
-22 31 -17 29 4 31 6 15 18 -16 11 -17 23 -11 103 8 95 3 107 -35 80z"/>
<path d="M6621 6801 c-44 -61 -17 -181 40 -181 38 0 63 42 63 105 1 95 -59
139 -103 76z m73 -22 c10 -54 7 -104 -10 -127 -15 -22 -17 -22 -35 -6 -21 19
-26 94 -9 138 14 38 46 34 54 -5z"/>
<path d="M6780 6813 c-22 -25 -26 -137 -6 -168 40 -60 106 -10 106 80 0 84
-58 135 -100 88z m66 -28 c10 -41 -1 -136 -17 -146 -26 -15 -44 17 -44 79 1
70 9 92 34 92 14 0 23 -9 27 -25z"/>
<path d="M6922 6818 c-17 -17 -15 -53 3 -68 17 -14 63 -6 71 14 3 7 0 25 -5
39 -11 29 -47 37 -69 15z m55 -19 c17 -17 4 -39 -23 -39 -17 0 -24 6 -24 18 0
32 25 43 47 21z"/>
<path d="M8310 6812 c-45 -24 -86 -97 -76 -135 16 -65 87 -88 140 -46 15 12
25 24 22 27 -3 3 -14 -2 -23 -10 -32 -28 -58 -30 -88 -7 -24 19 -27 27 -22 61
10 72 58 117 111 104 17 -4 26 -13 26 -26 0 -31 17 -23 22 10 3 19 0 30 -7 30
-7 0 -25 2 -41 5 -18 4 -42 -1 -64 -13z"/>
<path d="M8534 6816 c-38 -17 -71 -57 -83 -103 -11 -39 -6 -59 21 -90 20 -21
20 -21 -6 -39 -39 -25 -24 -33 66 -36 44 -1 108 25 94 40 -4 3 -12 0 -18 -6
-13 -13 -100 -17 -111 -5 -12 11 14 33 39 33 13 0 39 14 58 30 64 57 72 146
16 175 -35 18 -37 18 -76 1z m76 -21 c26 -32 -6 -126 -52 -155 -41 -25 -59
-22 -76 12 -37 77 77 204 128 143z"/>
<path d="M10010 6731 c0 -85 2 -99 15 -95 23 9 18 -7 -12 -38 -14 -15 -24 -30
-21 -34 8 -7 42 26 58 55 8 15 21 21 45 21 l35 0 0 94 0 93 -60 2 -60 2 0
-100z m105 59 c0 -10 -13 -16 -42 -18 -38 -3 -43 -1 -43 18 0 19 5 21 43 18
29 -2 42 -8 42 -18z m-7 -58 c3 -20 -1 -22 -37 -22 -34 0 -41 3 -41 19 0 37
73 40 78 3z m0 -61 c-2 -9 -15 -17 -31 -19 -40 -5 -56 4 -51 25 7 25 87 20 82
-6z"/>
<path d="M10238 6708 l-3 -123 -30 3 c-36 4 -24 -13 17 -23 36 -9 37 -7 40
143 2 91 0 122 -9 122 -9 0 -13 -34 -15 -122z"/>
<path d="M7887 6722 c-53 -53 -97 -101 -97 -105 0 -4 45 -7 100 -7 60 0 100 4
100 10 0 6 -32 10 -75 10 -41 0 -75 4 -75 9 0 5 36 45 80 89 44 43 80 82 80
85 0 18 -23 -1 -113 -91z"/>
<path d="M8098 6811 c11 -7 11 -16 -2 -55 -9 -26 -16 -52 -16 -59 0 -7 -9 -29
-19 -50 l-19 -37 47 1 c62 2 101 25 101 61 0 15 -5 30 -11 33 -7 5 -3 14 10
26 23 22 27 59 9 77 -7 7 -35 12 -62 12 -32 0 -46 -3 -38 -9z m86 -28 c8 -20
-21 -53 -47 -53 -17 0 -19 5 -13 32 9 48 45 60 60 21z m-36 -72 c8 -5 12 -21
10 -37 -2 -21 -11 -31 -30 -38 -37 -13 -44 -3 -28 44 13 40 24 47 48 31z"/>
<path d="M8998 6809 c-10 -5 -18 -17 -18 -25 0 -13 2 -13 22 0 16 11 25 13 35
4 20 -16 16 -45 -9 -62 -18 -13 -19 -16 -6 -16 27 0 43 -38 28 -65 -10 -19
-18 -22 -46 -18 -22 4 -34 2 -34 -6 0 -19 75 -13 93 7 20 22 22 73 5 90 -10
10 -10 17 0 32 17 28 15 48 -7 60 -24 12 -41 12 -63 -1z"/>
<path d="M9296 6805 c-21 -22 -20 -41 3 -64 25 -25 59 -17 68 17 12 48 -37 81
-71 47z m58 -21 c9 -22 -1 -34 -30 -34 -17 0 -24 6 -24 18 0 10 3 22 7 25 12
13 41 7 47 -9z"/>
<path d="M9156 6775 c-22 -39 -22 -39 18 -52 37 -12 51 -33 43 -65 -7 -26 -42
-44 -53 -27 -9 15 -34 10 -34 -6 0 -10 10 -15 29 -15 43 0 60 9 76 41 19 36 6
74 -35 97 -37 21 -34 36 8 40 42 4 41 22 -1 22 -27 0 -36 -6 -51 -35z"/>
<path d="M10179 6808 c0 -2 -3 -42 -5 -90 -3 -58 -1 -88 5 -88 7 0 11 27 11
68 0 37 3 77 6 90 4 13 2 22 -5 22 -6 0 -11 -1 -12 -2z"/>
<path d="M10640 6705 l-105 -105 103 0 c116 0 140 15 30 18 -40 2 -74 4 -76 7
-2 2 34 43 82 90 47 48 86 88 86 91 0 15 -27 -8 -120 -101z"/>
<path d="M10925 6764 c-21 -26 -54 -67 -73 -93 -20 -25 -43 -51 -51 -58 -14
-11 -11 -12 16 -13 25 0 30 3 26 18 -5 22 11 37 50 46 23 6 27 3 27 -17 0 -13
-5 -28 -12 -35 -9 -9 -4 -12 26 -12 34 0 36 1 22 16 -9 9 -14 25 -11 37 12 55
26 149 23 153 -3 2 -21 -17 -43 -42z m5 -54 c0 -26 -4 -30 -26 -30 l-25 0 21
30 c12 17 23 30 26 30 2 0 4 -13 4 -30z"/>
<path d="M11055 6800 c7 -12 -14 -120 -27 -134 -4 -6 -8 -18 -8 -28 0 -9 -8
-22 -17 -27 -14 -8 -6 -10 34 -11 94 0 141 36 109 85 -15 23 -15 25 4 35 27
14 27 65 1 80 -26 13 -104 13 -96 0z m84 -24 c18 -22 -3 -56 -34 -56 -26 0
-32 19 -19 54 8 20 38 21 53 2z m-21 -104 c5 -30 -14 -52 -44 -52 -26 0 -30
14 -14 55 13 34 53 32 58 -3z"/>
<path d="M11247 6783 c-39 -31 -47 -48 -47 -110 0 -33 5 -46 26 -62 15 -12 34
-21 44 -21 23 0 80 29 80 41 0 14 -16 11 -30 -6 -13 -16 -38 -19 -65 -9 -48
19 -35 132 19 165 42 26 64 24 78 -6 13 -29 28 -24 28 11 0 22 -4 24 -48 24
-38 0 -57 -6 -85 -27z"/>
<path d="M4850 6769 c-10 -17 -19 -20 -58 -18 -29 2 -47 -1 -50 -9 -2 -8 11
-12 42 -12 25 0 46 -3 46 -7 -1 -14 -44 -60 -67 -72 -13 -6 -23 -16 -23 -21 0
-16 14 -11 42 15 15 14 30 25 33 25 3 0 5 -18 5 -40 l0 -40 86 0 c85 0 86 0
80 23 -3 12 -6 34 -6 50 l0 27 -75 0 c-73 0 -75 1 -65 20 9 18 21 20 95 20 65
0 85 3 85 13 0 11 -16 13 -76 9 -74 -5 -76 -4 -69 17 8 27 -11 28 -25 0z m120
-129 l0 -30 -65 0 c-49 0 -67 4 -71 15 -14 34 3 45 71 45 l65 0 0 -30z"/>
<path d="M3410 6754 c1 -17 50 -70 50 -53 0 8 -11 26 -25 39 -14 13 -25 19
-25 14z"/>
<path d="M4384 6746 c-11 -29 1 -51 26 -51 21 0 26 5 28 33 3 29 1 32 -23 32
-14 0 -28 -6 -31 -14z m46 -10 c0 -15 -14 -35 -21 -30 -15 9 -10 34 6 34 8 0
15 -2 15 -4z"/>
<path d="M6236 6741 c-9 -14 1 -16 74 -16 36 0 67 5 70 10 7 13 -136 19 -144
6z"/>
<path d="M9657 6733 c-3 -5 -2 -15 3 -23 5 -8 5 -22 -1 -32 -6 -10 -6 -18 -1
-18 17 0 34 29 30 51 -3 23 -22 36 -31 22z"/>
<path d="M8740 6720 c0 -6 30 -10 69 -10 39 0 73 5 76 10 4 6 -22 10 -69 10
-44 0 -76 -4 -76 -10z"/>
<path d="M11480 6710 c0 -6 34 -10 81 -10 51 0 78 4 74 10 -3 6 -40 10 -81 10
-43 0 -74 -4 -74 -10z"/>
<path d="M6235 6681 c-9 -15 6 -19 77 -19 75 -1 98 12 40 22 -55 9 -110 7
-117 -3z"/>
<path d="M4010 6672 c0 -5 7 -15 15 -22 8 -7 15 -8 15 -2 0 5 -7 15 -15 22 -8
7 -15 8 -15 2z"/>
<path d="M8730 6660 c0 -6 33 -10 80 -10 47 0 80 4 80 10 0 6 -33 10 -80 10
-47 0 -80 -4 -80 -10z"/>
<path d="M3980 6652 c0 -5 7 -16 16 -23 14 -12 16 -11 13 5 -4 20 -29 35 -29
18z"/>
<path d="M11480 6650 c0 -6 32 -10 75 -10 43 0 75 4 75 10 0 6 -32 10 -75 10
-43 0 -75 -4 -75 -10z"/>
<path d="M3950 6638 c0 -17 18 -44 24 -37 8 7 -5 49 -15 49 -5 0 -9 -6 -9 -12z"/>
<path d="M10110 6595 c13 -14 26 -23 28 -20 7 7 -29 45 -41 45 -6 0 0 -11 13
-25z"/>
<path d="M11315 6169 c-66 -4 -163 -11 -216 -18 -114 -13 -407 -80 -499 -115
-36 -13 -109 -40 -163 -60 -178 -64 -397 -185 -585 -324 -164 -120 -206 -156
-326 -278 -322 -325 -526 -668 -664 -1119 -28 -90 -40 -142 -72 -310 -40 -209
-52 -506 -29 -740 24 -253 105 -561 207 -790 47 -104 140 -283 177 -338 65
-97 100 -148 110 -160 6 -7 26 -32 44 -57 19 -25 47 -58 62 -75 16 -16 45 -50
66 -75 112 -131 336 -327 488 -427 38 -25 88 -58 110 -72 195 -130 615 -288
885 -332 36 -6 72 -15 80 -19 8 -5 -499 -6 -1127 -3 -862 5 -1143 3 -1143 -5
0 -9 68 -12 248 -13 136 -1 267 -3 292 -4 25 -1 797 -5 1715 -8 919 -4 1934
-10 2258 -13 426 -5 587 -3 587 5 0 15 50 14 -1185 25 -484 4 -881 9 -883 10
-1 2 39 10 90 19 197 34 446 106 598 174 186 83 368 187 501 286 144 107 351
299 457 424 159 188 319 454 397 658 15 39 38 99 51 135 52 137 134 486 155
660 25 197 13 612 -21 765 -74 336 -103 440 -178 641 -44 116 -181 376 -213
404 -3 3 -22 33 -43 66 -21 34 -45 70 -54 80 -9 11 -37 46 -61 79 -69 93 -295
313 -406 395 -55 41 -104 77 -110 82 -24 20 -115 78 -121 78 -4 0 -15 6 -23
14 -23 21 -163 92 -261 132 -47 20 -98 41 -115 49 -93 41 -290 96 -485 135
-169 33 -407 49 -595 39z m303 -29 c361 -26 680 -114 1016 -278 59 -29 115
-59 123 -67 8 -8 18 -15 23 -15 8 0 69 -37 95 -58 6 -4 26 -18 45 -32 142 -98
401 -336 489 -448 157 -200 331 -499 381 -652 5 -14 24 -69 44 -123 56 -155
150 -586 132 -604 -5 -6 -23 -1 -256 61 -74 20 -151 41 -170 46 -19 5 -91 25
-160 44 -69 19 -204 53 -300 76 -96 23 -195 48 -220 55 -25 7 -85 22 -135 34
-158 36 -411 95 -550 129 -38 9 -72 20 -75 23 -5 6 -95 29 -310 79 -52 12
-158 37 -235 55 -335 81 -485 117 -565 136 -279 66 -378 90 -405 99 -16 5 -75
18 -130 29 -55 12 -127 28 -160 36 -92 24 -159 40 -290 70 -66 15 -145 33
-175 40 -144 33 -376 88 -472 111 l-108 26 33 45 c63 89 215 260 314 353 105
100 351 292 428 334 17 9 50 28 75 42 231 133 532 251 750 294 52 10 102 22
111 25 32 12 325 43 419 44 52 0 159 -4 238 -9z m-2341 -1228 c18 -37 46 -89
61 -117 37 -67 161 -303 204 -390 79 -158 108 -215 158 -310 168 -318 216
-422 206 -444 -5 -11 -13 -21 -18 -21 -4 0 -8 -5 -8 -12 0 -6 -6 -19 -14 -27
-20 -24 -88 -155 -129 -252 -43 -101 -90 -249 -111 -353 -37 -175 -39 -472 -5
-686 11 -72 59 -253 79 -295 5 -11 21 -51 36 -90 34 -88 129 -254 208 -365 54
-76 240 -273 306 -325 81 -64 114 -86 200 -137 52 -31 134 -75 183 -98 48 -23
87 -44 87 -46 0 -4 -97 25 -150 46 -25 9 -85 32 -134 50 -109 40 -301 131
-376 178 -150 96 -199 130 -312 221 -114 92 -267 242 -363 356 -22 26 -45 52
-50 59 -6 6 -24 29 -40 51 -17 22 -32 42 -36 45 -12 10 -88 129 -142 220 -68
117 -162 320 -188 409 -11 36 -24 75 -29 86 -32 73 -74 251 -102 430 -28 187
-31 563 -5 730 24 149 43 249 61 315 9 30 21 75 28 100 12 46 71 217 105 305
44 113 227 434 248 435 6 0 25 -31 42 -68z m158 32 c164 -38 207 -48 355 -83
74 -18 200 -48 280 -67 80 -20 170 -42 200 -49 30 -8 89 -22 130 -30 41 -8
136 -30 210 -48 74 -19 162 -40 195 -47 33 -7 112 -26 175 -42 63 -16 133 -33
155 -38 102 -22 263 -60 290 -69 26 -8 21 -9 -33 -10 -91 -1 -302 -29 -401
-52 -47 -11 -94 -22 -105 -24 -38 -8 -111 -38 -121 -50 -6 -7 -21 -15 -33 -19
-80 -26 -346 -172 -407 -223 -11 -10 -38 -31 -60 -47 -64 -48 -241 -226 -287
-289 -23 -31 -45 -54 -49 -50 -8 9 -213 408 -348 678 -53 105 -98 192 -101
195 -3 3 -21 37 -41 75 -19 39 -63 122 -97 186 -34 64 -62 122 -62 129 0 8 8
10 23 5 12 -3 72 -18 132 -31z m2245 -537 c49 -10 60 -16 45 -21 -98 -37 -125
-50 -125 -57 0 -5 -7 -9 -15 -9 -8 0 -29 -7 -47 -15 -18 -8 -132 -53 -253
-100 -121 -47 -229 -90 -240 -95 -11 -5 -74 -30 -140 -55 -66 -25 -129 -50
-140 -55 -30 -15 -298 -117 -390 -150 -44 -15 -91 -32 -105 -38 -67 -30 -282
-112 -291 -112 -29 0 159 208 293 323 46 39 157 114 203 137 11 5 38 21 60 34
61 38 182 96 199 96 8 0 17 4 21 9 3 5 19 12 35 16 17 4 30 10 30 15 0 5 15
13 33 18 17 5 58 18 90 27 128 38 282 54 482 50 114 -2 216 -9 255 -18z m208
-47 c39 -11 72 -25 72 -30 0 -6 8 -10 18 -10 54 -1 331 -150 434 -235 20 -16
51 -41 69 -55 51 -40 109 -92 143 -129 17 -19 38 -42 46 -50 108 -115 269
-377 314 -511 10 -30 22 -64 27 -75 19 -44 61 -205 74 -290 25 -162 25 -159
-4 -192 -14 -17 -44 -53 -66 -79 -22 -27 -56 -66 -76 -89 -19 -22 -45 -53 -58
-70 -12 -16 -39 -48 -60 -70 -20 -22 -44 -50 -52 -62 -13 -19 -43 -53 -143
-163 -13 -14 -52 -59 -88 -100 -76 -88 -105 -122 -213 -244 -44 -51 -102 -118
-130 -150 -27 -32 -60 -70 -73 -85 -46 -52 -59 -67 -115 -134 -31 -37 -72 -84
-91 -105 -18 -20 -69 -77 -112 -127 -43 -49 -83 -94 -89 -100 -6 -5 -40 -44
-75 -85 -35 -41 -74 -86 -87 -100 -34 -38 -72 -81 -104 -120 -18 -21 -32 -31
-38 -25 -5 6 -74 138 -153 295 -154 302 -266 520 -328 635 -102 190 -136 253
-295 561 -35 67 -68 130 -73 140 -6 10 -29 55 -50 99 -55 110 -86 169 -109
202 -11 15 -27 42 -35 58 -29 57 -120 230 -158 300 -20 39 -60 113 -87 165
-28 52 -78 147 -112 211 -67 129 -68 127 9 148 25 7 59 19 75 26 56 25 260
103 310 119 28 9 59 21 70 26 11 5 74 30 140 55 66 25 163 64 215 85 113 46
278 110 284 110 3 0 29 11 58 24 29 13 71 29 93 36 22 7 45 16 50 20 6 4 39
17 75 30 36 13 70 26 75 30 6 4 34 15 64 25 29 9 65 24 80 31 14 8 32 14 39
14 6 0 12 4 12 9 0 5 17 15 38 22 20 6 42 15 47 19 12 10 46 17 60 14 6 -2 43
-12 83 -24z m349 -89 c43 -11 112 -28 153 -39 41 -10 129 -32 195 -47 66 -15
192 -45 280 -67 88 -22 205 -50 260 -64 55 -13 154 -38 220 -56 l120 -33 0
-131 c0 -81 5 -137 12 -145 6 -8 14 -30 18 -49 9 -44 49 -114 92 -163 18 -20
33 -42 33 -47 0 -6 -25 -41 -56 -78 -31 -37 -71 -84 -88 -105 -17 -22 -36 -44
-41 -50 -6 -7 -37 -44 -70 -83 -114 -134 -230 -264 -235 -264 -3 0 -13 53 -22
118 -10 64 -27 149 -39 187 -36 117 -96 277 -122 325 -84 155 -92 168 -165
269 -76 107 -205 239 -317 327 -78 61 -226 156 -288 184 -74 35 -52 38 60 11z
m1398 -350 c101 -27 289 -78 308 -84 9 -3 -72 -113 -127 -173 -20 -22 -36 -44
-36 -51 0 -7 -6 -16 -13 -20 -7 -4 -37 -39 -66 -76 l-54 -68 -37 36 c-56 55
-108 167 -120 258 -8 66 -6 158 6 195 5 17 16 16 139 -17z m351 -143 c14 -79
7 -466 -11 -583 -32 -219 -102 -523 -143 -625 -6 -14 -20 -52 -33 -85 -63
-170 -141 -321 -250 -483 -16 -23 -29 -45 -29 -48 0 -7 -102 -138 -156 -199
-25 -27 -48 -54 -53 -60 -21 -26 -223 -216 -276 -260 -33 -27 -62 -52 -65 -56
-3 -3 -21 -15 -40 -26 -19 -12 -44 -30 -55 -40 -33 -31 -252 -156 -371 -211
-179 -83 -521 -194 -592 -191 -24 1 -22 3 13 14 47 15 275 115 290 127 6 5 57
40 115 78 119 79 172 120 250 195 199 190 339 407 437 680 85 238 115 406 115
650 l0 150 61 75 c34 41 73 86 87 100 14 14 47 52 74 85 28 33 60 71 72 85 38
43 89 104 113 135 32 43 89 112 137 164 43 50 236 294 269 342 11 16 23 29 27
29 3 0 10 -19 14 -42z m-4040 -160 c4 -12 23 -51 43 -87 20 -35 74 -137 121
-227 237 -454 273 -521 290 -542 8 -9 41 -69 74 -132 83 -162 209 -406 278
-535 32 -60 75 -144 95 -185 21 -41 40 -77 43 -80 3 -3 34 -61 69 -130 35 -69
78 -150 94 -180 83 -155 198 -379 285 -560 9 -19 22 -42 28 -50 7 -8 15 -26
19 -39 l7 -23 -108 7 c-357 24 -582 100 -914 310 -106 67 -302 258 -407 396
-139 183 -265 469 -313 708 -21 104 -43 374 -35 426 2 16 7 66 10 110 8 112
39 261 81 385 52 156 199 450 225 450 4 0 11 -10 15 -22z m3161 -1030 c-4
-101 -13 -217 -21 -258 -22 -109 -36 -172 -45 -195 -4 -11 -20 -58 -35 -105
-53 -160 -179 -392 -283 -519 -117 -143 -312 -312 -458 -396 -27 -16 -52 -32
-55 -35 -16 -19 -231 -113 -355 -155 -94 -32 -405 -80 -405 -63 0 5 18 28 39
51 21 23 73 80 114 127 41 47 91 103 111 125 20 22 70 81 113 130 42 50 81 95
87 101 6 6 31 35 56 64 25 30 66 77 91 104 26 28 74 85 108 126 34 41 83 99
109 128 26 29 54 61 62 70 156 178 244 277 285 322 27 31 59 67 70 80 39 47
249 295 272 320 37 41 61 71 96 116 17 24 36 44 41 44 5 0 6 -75 3 -182z"/>
<path d="M11865 4651 c7 -13 -24 -140 -41 -168 l-14 -23 68 0 c54 0 72 4 85
18 27 30 20 46 -9 23 -16 -13 -41 -21 -64 -21 l-38 0 10 40 c9 33 15 40 34 40
13 0 24 -6 24 -12 1 -7 8 0 16 15 9 16 12 32 8 35 -4 4 -9 1 -11 -5 -3 -7 -15
-13 -28 -13 -22 0 -23 2 -12 35 9 32 14 35 49 35 29 0 38 -4 38 -17 0 -15 2
-16 10 -3 17 27 11 30 -61 30 -41 0 -68 -4 -64 -9z"/>
<path d="M9667 3768 c10 -12 8 -30 -13 -94 -15 -43 -34 -85 -43 -92 -14 -11
-6 -13 49 -11 36 1 77 6 92 12 59 20 91 133 49 171 -12 11 -43 20 -83 23 -55
5 -61 4 -51 -9z m104 -18 c15 -8 19 -21 19 -58 -1 -64 -26 -93 -87 -100 -52
-6 -50 -16 -17 106 14 54 19 62 41 62 13 0 33 -5 44 -10z"/>
<path d="M2087 5972 c-21 -43 -37 -83 -37 -90 0 -7 -7 -15 -15 -18 -24 -9 -18
-24 10 -24 17 0 24 5 23 18 -4 46 1 52 42 52 42 0 66 -24 54 -54 -5 -13 1 -16
30 -16 20 0 36 5 36 10 0 6 -6 10 -13 10 -8 0 -28 40 -48 95 -19 52 -37 95
-40 95 -3 0 -22 -35 -42 -78z m51 -17 c6 -14 8 -25 4 -26 -4 0 -15 -2 -24 -4
-24 -4 -31 10 -18 35 14 27 24 25 38 -5z"/>
<path d="M3195 6043 c-44 -6 -78 -83 -36 -83 31 0 52 -29 49 -64 -3 -29 -6
-31 -40 -30 -39 1 -53 -18 -22 -30 24 -9 67 15 82 46 19 41 6 78 -36 95 -38
16 -33 30 13 35 19 2 31 9 33 21 2 9 0 16 -5 15 -4 0 -21 -3 -38 -5z"/>
<path d="M2997 6006 l-16 -35 37 -18 c29 -14 38 -24 40 -50 2 -25 -1 -33 -18
-38 -12 -4 -32 -4 -46 -1 -17 5 -24 2 -24 -9 0 -11 10 -15 35 -15 38 0 85 36
85 64 0 31 -24 65 -51 75 -37 13 -37 31 0 31 16 0 34 7 41 15 11 13 7 15 -27
15 -35 0 -41 -4 -56 -34z"/>
<path d="M3287 6033 c-4 -3 -7 -19 -7 -35 0 -21 7 -32 25 -40 22 -10 29 -9 47
9 15 16 19 28 14 47 -5 21 -12 26 -40 26 -18 0 -36 -3 -39 -7z m58 -24 c5 -14
2 -25 -6 -30 -19 -12 -25 -11 -39 6 -10 12 -10 18 0 30 18 21 38 19 45 -6z"/>
<path d="M3640 5955 c-20 -25 -8 -50 25 -50 24 0 31 5 33 24 6 37 -34 55 -58
26z m40 -18 c0 -8 -3 -17 -7 -20 -9 -9 -34 13 -27 24 8 14 34 11 34 -4z"/>
<path d="M2260 5855 c0 -8 7 -15 15 -15 8 0 15 7 15 15 0 8 -7 15 -15 15 -8 0
-15 -7 -15 -15z"/>
<path d="M2023 5289 c14 -8 17 -25 17 -94 0 -69 -3 -86 -17 -95 -14 -8 0 -10
59 -8 63 3 80 7 92 23 19 25 20 49 2 64 -11 9 -12 18 -3 41 10 25 8 33 -12 54
-19 20 -32 24 -89 25 -50 0 -63 -2 -49 -10z m111 -22 c28 -20 16 -50 -22 -58
-29 -6 -35 -4 -42 17 -5 13 -7 31 -4 39 7 19 44 20 68 2z m7 -96 c34 -28 16
-56 -37 -56 -33 0 -39 3 -42 23 -2 13 -1 30 2 38 8 20 50 17 77 -5z"/>
<path d="M3028 5285 c-36 -20 -68 -75 -68 -117 0 -46 40 -92 73 -83 47 14 68
71 42 111 -14 21 -22 25 -46 20 -17 -3 -29 -1 -29 5 0 15 47 59 64 59 8 0 18
5 21 10 9 15 -26 11 -57 -5z m22 -106 c15 -27 9 -59 -13 -73 -24 -15 -47 15
-47 61 0 28 3 33 25 33 14 0 29 -8 35 -21z"/>
<path d="M3192 5293 c-23 -3 -36 -12 -47 -33 -20 -40 -19 -44 15 -57 17 -7 34
-23 40 -39 9 -23 8 -31 -10 -48 -17 -17 -23 -19 -40 -8 -25 16 -30 15 -30 -2
0 -35 55 -31 90 6 37 40 18 109 -35 122 -37 9 -30 23 15 30 26 4 40 11 40 21
0 8 -1 14 -2 13 -2 0 -18 -3 -36 -5z"/>
<path d="M3288 5289 c-21 -12 -24 -59 -6 -77 18 -18 56 -14 68 7 14 27 13 47
-6 65 -18 18 -32 20 -56 5z m52 -38 c0 -20 -25 -35 -41 -25 -5 3 -9 14 -9 25
0 14 7 19 25 19 18 0 25 -5 25 -19z"/>
<path d="M3652 5183 c4 -36 52 -46 63 -14 9 29 -1 41 -36 41 -27 0 -30 -3 -27
-27z m46 0 c-5 -25 -28 -28 -28 -4 0 12 6 21 16 21 9 0 14 -7 12 -17z"/>
<path d="M9110 5202 c0 -5 -12 -22 -26 -38 -14 -16 -44 -55 -66 -86 -23 -32
-45 -58 -49 -58 -5 0 -9 -4 -9 -10 0 -5 9 -10 20 -10 11 0 20 7 20 15 0 26 33
55 62 55 21 0 28 -5 28 -20 0 -11 -7 -23 -15 -26 -27 -11 -16 -24 20 -24 19 0
35 5 35 10 0 6 -5 10 -11 10 -12 0 -9 67 7 153 4 25 3 37 -5 37 -6 0 -11 -4
-11 -8z m-10 -68 c0 -24 -19 -54 -35 -54 -20 0 -19 16 3 45 20 28 32 32 32 9z"/>
<path d="M2237 5113 c-12 -11 -8 -23 8 -23 8 0 15 7 15 15 0 16 -12 20 -23 8z"/>
<path d="M2040 4520 c-25 -25 -30 -39 -30 -78 1 -65 24 -93 82 -99 38 -4 49
-2 68 17 12 12 19 25 15 28 -4 4 -12 -1 -19 -11 -20 -26 -81 -23 -100 5 -35
50 -10 148 37 148 41 0 65 -12 71 -33 8 -31 19 -13 12 20 -6 26 -11 28 -56 31
-44 3 -53 0 -80 -28z"/>
<path d="M3145 4538 c-19 -11 -45 -67 -45 -98 0 -28 40 -120 52 -120 5 0 23
13 40 29 71 66 31 232 -47 189z m43 -20 c15 -15 16 -122 2 -149 -25 -46 -60
-9 -60 65 0 79 26 116 58 84z"/>
<path d="M3278 4538 c-45 -36 -15 -98 39 -81 28 10 42 45 26 69 -13 19 -48 25
-65 12z m50 -41 c2 -9 -4 -20 -13 -23 -20 -8 -50 19 -40 36 10 17 49 8 53 -13z"/>
<path d="M2956 4524 c-3 -9 -6 -17 -6 -19 0 -1 16 1 36 5 63 14 66 7 33 -82
-31 -84 -35 -108 -19 -108 6 0 10 6 10 13 0 7 11 42 25 77 13 34 27 78 31 96
l6 34 -55 0 c-41 0 -56 -4 -61 -16z"/>
<path d="M3652 4461 c-22 -14 -10 -56 17 -59 37 -6 52 26 25 52 -18 18 -24 19
-42 7z m38 -36 c0 -8 -9 -15 -20 -15 -11 0 -20 7 -20 15 0 8 9 15 20 15 11 0
20 -7 20 -15z"/>
<path d="M2220 4343 c0 -26 1 -26 15 -7 19 25 19 34 0 34 -10 0 -15 -10 -15
-27z"/>
<path d="M14137 3930 c7 -25 -36 -163 -55 -177 -13 -11 -9 -13 29 -14 64 -2
81 1 107 17 23 15 31 67 12 79 -7 4 -3 14 10 25 11 9 20 29 20 43 0 28 -7 32
-86 40 -36 4 -41 2 -37 -13z m88 -11 c13 -20 -5 -59 -30 -65 -36 -9 -45 1 -32
41 8 27 16 35 33 35 13 0 26 -5 29 -11z m-16 -93 c12 -14 5 -46 -13 -58 -17
-12 -76 -9 -76 2 0 6 7 24 15 40 17 33 54 41 74 16z"/>
<path d="M1990 3785 c0 -4 6 -13 14 -19 21 -16 10 -176 -12 -176 -8 0 -12 -3
-9 -6 13 -14 138 -6 162 10 29 19 43 67 36 115 -9 50 -47 74 -126 79 -36 2
-65 1 -65 -3z m145 -45 c30 -31 27 -96 -7 -125 -15 -13 -38 -22 -54 -21 -29 1
-29 1 -32 75 -2 41 0 81 3 89 7 20 63 8 90 -18z"/>
<path d="M2952 3768 c-15 -15 -15 -40 0 -72 9 -21 8 -29 -5 -44 -37 -41 -2
-89 58 -78 47 9 57 45 25 88 -20 27 -20 30 -5 42 11 8 16 22 13 41 -3 26 -7
30 -38 33 -19 2 -41 -3 -48 -10z m68 -20 c0 -5 -5 -18 -11 -29 -8 -16 -13 -18
-25 -8 -17 14 -18 46 -1 52 16 5 37 -3 37 -15z m-10 -109 c7 -11 9 -27 6 -35
-8 -21 -50 -14 -54 9 -9 45 28 65 48 26z"/>
<path d="M3109 3764 c-7 -9 -15 -45 -17 -80 -7 -99 33 -143 85 -94 56 52 32
190 -32 190 -13 0 -29 -7 -36 -16z m65 -27 c25 -92 -25 -198 -55 -119 -12 31
-5 118 11 137 15 18 37 9 44 -18z"/>
<path d="M3252 3772 c-8 -6 -12 -23 -10 -43 3 -32 6 -34 38 -34 34 0 35 1 35
40 0 35 -3 40 -25 43 -14 1 -31 -2 -38 -6z m53 -37 c0 -25 -40 -33 -49 -10 -9
24 2 37 27 33 14 -2 22 -10 22 -23z"/>
<path d="M3604 3686 c-10 -26 1 -51 23 -54 17 -3 24 3 29 22 3 14 3 30 -1 35
-9 16 -45 13 -51 -3z m39 -22 c-7 -18 -33 -18 -33 -1 0 19 10 27 25 20 8 -2
11 -11 8 -19z"/>
<path d="M2225 3600 c-7 -12 2 -30 16 -30 12 0 12 27 0 35 -5 3 -12 1 -16 -5z"/>
<path d="M8600 746 c9 -12 6 -33 -14 -100 -15 -46 -32 -87 -39 -89 -6 -3 2 -6
20 -6 25 -1 30 3 27 17 -2 9 -1 30 4 47 7 24 14 30 38 31 70 3 108 60 64 96
-29 23 -120 27 -100 4z m88 -34 c5 -30 -14 -52 -45 -52 -23 0 -24 3 -18 33 10
44 14 49 38 45 14 -2 23 -11 25 -26z"/>
<path d="M11369 727 c-20 -14 -41 -40 -53 -69 -16 -40 -17 -51 -6 -77 17 -43
73 -60 118 -37 17 9 33 20 37 26 3 5 -7 3 -22 -5 -32 -17 -71 -19 -93 -5 -26
16 -19 105 11 136 46 49 109 51 109 4 0 -31 17 -24 22 9 4 27 1 29 -31 35 -53
9 -55 8 -92 -17z"/>
<path d="M13864 710 c-33 -13 -66 -67 -72 -116 -4 -37 -1 -49 18 -69 l22 -24
-21 -13 c-12 -7 -21 -19 -21 -27 0 -8 2 -12 5 -9 4 3 24 2 46 -3 42 -10 109 9
109 31 0 6 -11 3 -25 -6 -17 -11 -35 -14 -60 -10 -46 9 -45 32 1 45 52 14 103
82 104 139 0 57 -48 86 -106 62z m64 -13 c6 -5 12 -27 12 -51 0 -55 -47 -126
-84 -126 -34 0 -51 45 -37 96 21 72 67 107 109 81z"/>
</g>
</svg>
