<?xml version="1.0" standalone="no"?>
<!DOCTYPE svg PUBLIC "-//W3C//DTD SVG 20010904//EN"
 "http://www.w3.org/TR/2001/REC-SVG-20010904/DTD/svg10.dtd">
<svg version="1.0" xmlns="http://www.w3.org/2000/svg"
 width="1481.000000pt" height="679.000000pt" viewBox="0 0 1481.000000 679.000000"
 preserveAspectRatio="xMidYMid meet">
<metadata>
Created by potrace 1.16, written by Peter Selinger 2001-2019
</metadata>
<g transform="translate(0.000000,679.000000) scale(0.100000,-0.100000)"
fill="#000000" stroke="none">
<path d="M1110 6425 l0 -130 117 0 c95 0 119 3 125 15 4 8 7 67 7 130 l1 115
-125 0 -125 0 0 -130z m156 90 c2 -21 -2 -25 -27 -25 -21 0 -27 -4 -23 -14 4
-11 -5 -16 -38 -19 -23 -2 0 -3 52 -3 52 0 74 1 48 3 -49 4 -68 23 -23 23 21
0 25 5 25 31 0 27 3 30 28 27 l27 -3 2 -90 c3 -144 11 -135 -112 -135 l-105 0
0 108 c0 60 3 112 7 115 3 4 36 7 72 7 63 0 66 -1 67 -25z"/>
<path d="M1183 6523 c-7 -2 -13 -13 -13 -24 0 -28 25 -23 26 6 1 14 1 25 0 24
0 0 -7 -3 -13 -6z"/>
<path d="M1230 6519 c0 -5 5 -7 10 -4 6 3 10 8 10 11 0 2 -4 4 -10 4 -5 0 -10
-5 -10 -11z"/>
<path d="M1160 6380 l0 -55 70 0 c77 0 74 -2 71 70 -3 45 -5 50 -21 40 -8 -5
-9 -10 -2 -14 6 -4 8 -20 3 -41 -7 -34 -8 -35 -56 -35 l-50 0 -3 37 c-3 35 -2
37 30 40 l33 3 -37 6 -38 5 0 -56z"/>
<path d="M1190 6384 c0 -23 3 -25 38 -22 30 2 38 7 40 26 2 12 -1 22 -7 22 -6
0 -11 -9 -11 -20 0 -13 -7 -20 -20 -20 -13 0 -20 7 -20 20 0 11 -4 20 -10 20
-5 0 -10 -12 -10 -26z"/>
<path d="M1550 6531 c0 -28 -1 -28 -50 -23 l-50 5 0 -65 0 -65 50 5 50 5 2
-59 1 -59 6 55 6 55 53 3 52 3 0 60 0 61 -47 -3 c-46 -3 -48 -2 -48 24 1 16
-5 27 -12 27 -8 0 -13 -12 -13 -29z m0 -86 l0 -45 -40 0 -40 0 0 45 0 45 40 0
40 0 0 -45z m108 6 c4 -39 -9 -51 -55 -51 -32 0 -33 1 -33 46 l0 45 43 -3 c40
-3 42 -5 45 -37z"/>
<path d="M413 6538 c-27 -13 -31 -53 -8 -78 14 -15 14 -18 0 -30 -8 -7 -15
-28 -15 -46 0 -27 5 -37 25 -46 50 -23 102 47 60 82 -8 7 -15 18 -15 25 0 7 7
18 15 25 22 18 18 46 -7 64 -26 18 -25 18 -55 4z m47 -30 c0 -30 -15 -52 -29
-44 -6 4 -11 20 -11 37 0 22 5 29 20 29 14 0 20 -7 20 -22z m-8 -100 c20 -32
12 -60 -15 -56 -22 3 -34 35 -23 64 8 20 22 17 38 -8z"/>
<path d="M3313 6530 c-6 -23 -23 -27 -23 -5 0 8 -4 15 -10 15 -5 0 -7 -7 -4
-15 4 -10 0 -15 -15 -15 -12 0 -21 -4 -21 -10 0 -5 14 -10 31 -10 31 0 31 -1
26 -36 -5 -29 -4 -34 8 -24 7 6 37 10 67 8 42 -2 54 -7 56 -22 4 -17 -2 -18
-71 -14 -61 3 -77 0 -81 -12 -3 -8 -17 -32 -31 -52 -14 -21 -21 -38 -16 -38 5
0 20 18 32 40 l23 40 94 0 94 0 -7 -32 c-10 -45 -12 -48 -43 -49 -26 0 -27 -1
-5 -11 30 -14 49 2 58 48 3 20 9 42 12 50 4 10 -3 14 -22 14 -25 0 -26 2 -20
31 7 29 5 30 -15 24 -21 -7 -22 -5 -17 25 l7 32 -48 -4 c-44 -3 -47 -1 -45 20
3 27 -7 29 -14 2z m85 -57 c-2 -13 -14 -19 -41 -21 -32 -3 -37 0 -37 17 0 18
6 21 41 21 33 0 40 -3 37 -17z"/>
<path d="M4265 6510 c-21 -22 -35 -40 -29 -40 13 0 84 59 84 71 0 18 -16 9
-55 -31z"/>
<path d="M4930 6543 c1 -11 26 -43 34 -43 15 0 4 30 -14 40 -11 6 -20 7 -20 3z"/>
<path d="M5045 6536 c-11 -6 -23 -14 -26 -19 -8 -11 2 -67 12 -67 8 0 14 39
10 63 0 4 22 7 50 7 l51 0 -4 -35 c-3 -23 0 -35 8 -35 7 0 14 18 16 40 l4 40
-41 0 c-23 0 -45 4 -50 9 -6 5 -18 4 -30 -3z"/>
<path d="M266 6531 c-18 -7 -18 -8 -3 -14 14 -5 17 -21 17 -86 0 -54 -4 -81
-12 -84 -7 -3 -2 -6 12 -6 l25 -1 -3 100 c-2 55 -6 100 -10 99 -4 0 -16 -4
-26 -8z"/>
<path d="M3910 6528 c0 -5 25 -8 55 -8 l55 0 0 -60 0 -60 -65 0 c-37 0 -65 -4
-65 -10 0 -6 28 -10 65 -10 l65 0 0 -55 c0 -30 5 -55 10 -55 6 0 10 25 10 55
l0 55 65 0 c37 0 65 4 65 10 0 6 -28 10 -65 10 l-65 0 0 60 0 60 55 0 c30 0
55 3 55 8 0 4 -54 7 -120 7 -66 0 -120 -3 -120 -7z"/>
<path d="M4410 6529 c-41 -3 -73 -7 -70 -8 12 -6 152 -5 156 1 7 12 -9 13 -86
7z"/>
<path d="M5320 6529 c-36 -3 -57 -6 -47 -7 13 -2 17 -11 17 -46 0 -38 -3 -45
-22 -49 l-23 -4 23 -2 c18 -1 22 -7 22 -34 0 -18 -9 -50 -20 -72 -23 -45 -23
-45 -12 -45 13 0 41 65 48 110 5 30 11 40 25 40 17 0 19 -8 19 -75 0 -41 4
-75 8 -75 4 0 7 34 5 75 -2 74 -2 75 23 75 15 0 23 4 19 10 -4 6 -14 9 -23 8
-19 -3 -27 22 -18 57 4 14 15 25 29 27 48 7 -10 13 -73 7z m30 -54 c0 -38 -3
-45 -20 -45 -17 0 -20 7 -20 38 0 41 6 52 27 52 9 0 13 -14 13 -45z"/>
<path d="M5465 6517 c-8 -13 -27 -29 -41 -36 -15 -6 -24 -14 -21 -17 11 -11
97 52 97 72 0 13 -22 1 -35 -19z"/>
<path d="M6098 6528 c19 -19 14 -28 -14 -28 -14 0 -23 -3 -21 -7 7 -12 101
-10 107 2 3 6 -6 12 -20 13 -14 2 -29 10 -33 18 -4 8 -13 14 -19 14 -9 0 -9
-3 0 -12z"/>
<path d="M6214 6531 c-2 -2 -4 -13 -4 -23 0 -11 -7 -32 -15 -48 -9 -17 -13
-30 -10 -30 12 0 35 29 35 43 0 29 12 47 31 47 18 0 23 -10 20 -37 -3 -25 20
-53 44 -53 14 0 25 5 25 10 0 6 -12 10 -26 10 -24 0 -25 3 -22 43 l3 42 -39 0
c-21 0 -40 -2 -42 -4z"/>
<path d="M7040 6515 c0 -30 -16 -33 -23 -5 -3 11 -10 20 -15 20 -6 0 -8 -9 -5
-19 3 -13 -1 -21 -14 -24 -10 -3 -3 -5 16 -6 33 -1 33 -1 26 -38 -8 -43 -30
-86 -62 -122 -12 -14 -20 -27 -18 -29 7 -8 35 20 51 50 14 28 16 28 105 28
l91 0 -7 -32 c-10 -45 -13 -48 -41 -48 -13 0 -24 -4 -24 -10 0 -5 13 -10 30
-10 34 0 44 15 55 78 6 39 5 42 -15 42 -17 0 -21 5 -18 27 2 22 -1 28 -17 28
-19 0 -21 3 -13 34 2 11 -8 14 -46 12 -48 -3 -48 -2 -42 23 4 15 2 26 -4 26
-5 0 -10 -11 -10 -25z m90 -39 c0 -24 -17 -36 -51 -36 -37 0 -51 15 -32 33 7
8 83 10 83 3z m20 -66 c0 -18 -7 -20 -60 -20 -43 0 -60 4 -60 13 0 22 8 25 66
26 47 0 54 -2 54 -19z"/>
<path d="M2354 6493 c-15 -21 -34 -44 -41 -51 -7 -7 -13 -16 -13 -20 0 -4 -18
-26 -39 -49 -40 -43 -42 -53 -9 -53 12 0 18 7 18 24 0 28 14 42 53 51 25 7 27
5 27 -22 0 -16 -5 -34 -12 -41 -9 -9 -5 -12 20 -12 32 0 39 8 24 26 -5 5 -6
47 -2 94 3 47 5 86 4 88 0 1 -14 -14 -30 -35z m4 -55 c-2 -15 -11 -24 -26 -26
-23 -4 -23 -3 -7 22 21 32 37 34 33 4z"/>
<path d="M2484 6503 c-2 -45 -34 -147 -50 -159 -24 -19 -16 -24 37 -24 50 0
87 12 101 34 12 18 9 66 -4 66 -6 0 -2 10 10 23 45 47 20 87 -55 87 -35 0 -38
-3 -39 -27z m85 -1 c14 -26 -13 -62 -46 -62 -22 0 -24 3 -18 27 13 53 45 70
64 35z m-28 -82 c11 -6 19 -21 19 -35 0 -27 -25 -45 -64 -45 -30 0 -30 0 -14
51 12 40 25 47 59 29z"/>
<path d="M2670 6502 c-76 -73 -56 -187 32 -184 34 1 78 20 78 34 0 5 -9 4 -19
-2 -29 -15 -87 -12 -101 5 -17 20 -8 93 15 128 30 46 115 46 115 0 0 -8 5 -11
10 -8 6 3 10 17 10 31 0 23 -3 24 -55 24 -47 0 -60 -4 -85 -28z"/>
<path d="M2876 6513 c6 -22 -30 -159 -47 -179 -10 -12 -2 -14 46 -14 94 0 149
50 147 132 -1 47 -31 70 -96 76 -50 4 -54 3 -50 -15z m109 -26 c22 -34 12 -96
-20 -124 -34 -30 -111 -34 -100 -5 4 9 9 26 12 37 3 11 12 41 20 68 13 42 18
47 44 47 19 0 34 -8 44 -23z"/>
<path d="M4590 6415 l0 -113 125 -1 125 -2 0 114 0 114 -125 1 -125 0 0 -113z
m230 -1 l0 -94 -104 0 -103 0 -5 51 c-3 28 -3 71 0 95 4 41 7 44 34 44 l30 0
-6 -47 c-4 -27 -16 -60 -27 -75 -11 -16 -15 -28 -10 -28 19 0 45 52 51 99 4
41 8 46 30 46 23 0 25 -4 26 -45 2 -93 0 -90 42 -89 36 1 36 2 7 8 -29 6 -30
8 -33 68 -2 52 0 62 15 65 48 10 53 1 53 -98z"/>
<path d="M8140 6410 l0 -120 -60 0 c-33 0 -60 -4 -60 -10 0 -6 54 -10 141 -10
105 0 140 3 137 12 -3 8 -29 12 -74 13 l-69 0 0 60 0 60 58 3 c53 3 66 9 50
25 -3 4 -12 2 -19 -4 -7 -6 -30 -9 -51 -7 -36 3 -38 5 -39 38 0 19 3 41 9 48
7 8 5 12 -7 12 -14 0 -16 -16 -16 -120z"/>
<path d="M8407 6523 c-4 -3 -7 -15 -7 -25 0 -10 -7 -18 -15 -18 -12 0 -15 -18
-15 -102 0 -64 4 -98 9 -89 6 10 20 12 45 8 l36 -6 0 79 c0 43 3 85 6 94 5 13
-1 16 -25 16 -28 0 -31 2 -21 19 5 11 10 22 10 25 0 8 -15 7 -23 -1z m43 -93
c0 -28 -3 -30 -35 -30 -32 0 -35 2 -35 30 0 28 3 30 35 30 32 0 35 -2 35 -30z
m0 -85 c0 -33 -2 -35 -35 -35 -33 0 -35 2 -35 35 0 33 2 35 35 35 33 0 35 -2
35 -35z"/>
<path d="M8495 6478 c-19 -64 -18 -71 1 -35 13 24 21 27 63 27 l48 0 -4 -72
c-6 -111 -8 -116 -46 -120 l-32 -4 29 -8 c48 -14 54 2 69 176 l4 46 -54 -3
c-54 -3 -55 -3 -49 21 12 48 -14 23 -29 -28z"/>
<path d="M9230 6455 c0 -68 -2 -75 -20 -75 -18 0 -20 -7 -20 -57 l0 -58 55 3
c48 3 55 6 56 25 0 12 2 37 4 55 2 26 -1 33 -14 31 -35 -3 -41 2 -41 36 0 32
2 35 30 35 17 0 30 4 30 10 0 5 -13 7 -32 3 -31 -6 -31 -6 -25 30 4 28 2 37
-9 37 -11 0 -14 -16 -14 -75z m60 -135 l0 -40 -45 0 -45 0 0 40 0 40 45 0 45
0 0 -40z"/>
<path d="M9410 6483 c-7 -27 -19 -55 -27 -64 -18 -21 -17 -34 2 -19 13 11 15
2 15 -75 0 -49 3 -86 6 -82 3 3 6 43 6 89 0 81 8 145 23 181 4 9 3 17 -3 17
-5 0 -15 -21 -22 -47z"/>
<path d="M9530 6511 c0 -16 -8 -21 -47 -24 l-48 -3 48 -2 c34 -2 47 -6 47 -17
0 -10 -11 -15 -35 -15 -34 0 -35 -1 -35 -40 0 -39 1 -40 34 -40 30 0 33 -2 28
-25 -5 -27 -17 -33 -25 -12 -2 7 -8 8 -13 3 -5 -5 -4 -11 4 -13 25 -9 7 -42
-32 -56 -10 -4 -17 -10 -14 -13 7 -7 58 17 58 28 0 10 33 11 46 0 20 -17 86
-34 95 -25 6 6 -12 15 -46 23 -31 7 -58 17 -60 21 -3 4 -2 21 1 38 6 29 9 31
50 31 l44 0 0 40 0 40 -40 0 c-29 0 -40 4 -40 15 0 11 12 15 45 15 42 0 58 11
35 25 -5 3 -10 1 -10 -4 0 -6 -16 -11 -35 -11 -28 0 -35 4 -35 20 0 11 -4 20
-10 20 -5 0 -10 -9 -10 -19z m0 -107 c0 -20 -5 -24 -28 -24 -21 0 -28 5 -29
22 -2 26 12 37 38 31 12 -3 19 -14 19 -29z m80 1 c0 -21 -5 -25 -30 -25 -25 0
-30 4 -30 25 0 21 5 25 30 25 25 0 30 -4 30 -25z"/>
<path d="M9741 6490 c-37 -47 -25 -55 13 -9 23 27 33 49 23 49 -2 0 -18 -18
-36 -40z"/>
<path d="M9050 6466 c0 -50 2 -54 21 -49 15 4 17 8 8 14 -15 9 -21 39 -7 39 5
0 6 9 3 20 -5 14 -2 20 9 20 15 0 19 -12 19 -55 -1 -64 -2 -65 -35 -65 -35 0
-34 -8 3 -13 34 -5 31 -32 -3 -32 -16 1 -28 -3 -28 -7 0 -4 32 -8 71 -8 44 0
68 4 64 10 -3 6 -17 7 -30 4 -12 -3 -26 -1 -30 6 -10 15 -3 21 31 23 16 1 28
6 27 10 -2 4 -3 9 -3 12 0 3 -9 1 -19 -4 -32 -17 -47 11 -27 50 18 37 20 42 7
34 -5 -3 -12 -1 -15 4 -8 12 21 34 34 26 14 -9 13 -72 -2 -79 -7 -3 -4 -5 7
-3 16 2 21 11 23 50 l3 47 -65 0 -66 0 0 -54z"/>
<path d="M9830 6470 l0 -50 58 0 58 0 2 50 2 50 -60 0 -60 0 0 -50z m100 25
c0 -11 -12 -15 -45 -15 -42 0 -54 7 -38 23 3 4 24 7 45 7 27 0 38 -4 38 -15z
m0 -51 c0 -12 -9 -14 -42 -12 -59 4 -63 28 -4 28 35 0 46 -4 46 -16z"/>
<path d="M6633 6482 c-1 -15 -13 -60 -26 -99 l-24 -73 71 0 c66 0 72 2 83 25
13 30 3 33 -22 5 -12 -14 -31 -20 -58 -20 l-39 0 7 37 c4 21 9 41 11 45 9 14
43 8 53 -9 8 -14 10 -15 11 -3 0 8 3 26 6 40 5 21 4 22 -6 8 -13 -22 -50 -24
-50 -4 0 8 4 26 10 40 7 20 17 26 39 26 16 0 33 -4 36 -10 9 -15 25 -12 25 5
0 12 -14 15 -62 15 -61 0 -63 -1 -65 -28z"/>
<path d="M7542 6452 c-40 -55 -48 -65 -93 -124 l-20 -28 20 0 c13 0 21 7 21
18 1 28 25 52 54 52 20 0 26 -5 26 -23 0 -13 -5 -28 -12 -35 -9 -9 -5 -12 20
-12 28 0 31 2 21 18 -8 12 -8 41 -1 102 6 47 9 86 8 87 -1 2 -21 -23 -44 -55z
m14 -47 c-4 -14 -13 -25 -21 -25 -20 0 -19 15 2 47 19 28 29 17 19 -22z"/>
<path d="M7686 6493 c3 -10 -4 -45 -16 -77 -11 -33 -20 -66 -20 -74 0 -8 -8
-21 -17 -28 -16 -12 -11 -13 38 -14 31 0 70 5 87 11 69 24 98 137 46 178 -36
28 -125 30 -118 4z m82 -4 c36 -12 45 -39 31 -94 -12 -47 -44 -74 -91 -77 -31
-3 -33 -1 -30 27 4 39 43 155 52 155 4 0 21 -5 38 -11z"/>
<path d="M12770 6498 c0 -4 9 -8 19 -8 29 0 32 -13 10 -46 -25 -39 -24 -46 8
-38 25 7 26 6 20 -31 -8 -46 -12 -51 -32 -35 -17 14 -19 7 -5 -19 7 -14 4 -24
-10 -39 -28 -30 -25 -40 4 -13 l25 23 21 -20 c12 -11 35 -23 52 -26 48 -9 136
-7 143 4 4 6 -20 10 -65 10 -65 0 -140 20 -140 38 0 7 19 68 31 100 7 18 5 22
-10 22 -28 0 -31 10 -16 41 21 40 19 45 -20 45 -19 0 -35 -4 -35 -8z"/>
<path d="M12950 6500 c-14 -5 -41 -13 -60 -19 l-35 -10 40 2 40 2 0 -80 c0
-73 -2 -80 -20 -80 -18 0 -20 6 -19 58 0 31 -3 57 -8 57 -4 0 -8 -27 -8 -59 0
-48 -3 -60 -17 -64 -10 -3 24 -5 76 -6 52 0 91 2 87 7 -4 4 -22 7 -39 7 -29 0
-32 3 -35 33 -2 18 2 40 9 48 8 10 8 14 0 14 -6 0 -11 16 -11 35 0 31 3 36 30
42 17 3 30 9 30 14 0 11 -26 10 -60 -1z"/>
<path d="M13150 6445 l0 -65 -32 -1 c-31 -1 -31 -2 -8 -8 23 -6 25 -12 25 -62
0 -53 0 -54 29 -52 16 1 34 7 39 12 7 7 0 8 -22 1 l-32 -9 3 52 3 52 92 0 c50
0 95 3 99 8 4 4 -34 7 -84 7 -75 0 -92 3 -92 15 0 12 15 15 72 15 39 0 68 3
64 7 -4 4 -36 6 -71 5 -53 -2 -65 0 -65 13 0 12 13 15 65 15 36 0 65 4 65 8 0
4 -29 6 -65 4 -55 -4 -65 -2 -65 12 0 13 13 16 75 16 43 0 75 4 75 10 0 6 -35
10 -85 10 l-85 0 0 -65z"/>
<path d="M14340 6501 c-38 -4 -49 -8 -35 -13 11 -4 36 -5 55 -3 19 2 41 4 48
4 7 1 10 6 7 11 -3 6 -9 9 -13 8 -4 -1 -32 -4 -62 -7z"/>
<path d="M4113 6483 c-3 -10 -15 -30 -25 -45 -15 -22 -16 -27 -4 -22 13 5 56
66 56 80 0 12 -21 2 -27 -13z"/>
<path d="M10441 6482 c-6 -11 -17 -26 -24 -34 -36 -38 -108 -140 -105 -150 2
-6 14 5 26 25 17 30 27 37 53 37 31 0 31 -1 26 -35 -5 -29 -3 -35 13 -35 15 0
17 6 13 38 -2 20 0 66 5 102 11 71 9 82 -7 52z m-15 -79 c-1 -21 -7 -29 -23
-31 -27 -4 -28 1 -7 33 21 33 31 32 30 -2z"/>
<path d="M10553 6476 c0 -57 -34 -163 -57 -178 -6 -4 24 -8 67 -8 74 0 78 1
87 26 14 36 12 42 -6 16 -12 -17 -25 -22 -60 -22 -49 0 -48 -1 -33 53 11 40
28 47 53 21 14 -13 16 -13 16 -1 0 9 3 24 6 34 6 15 4 16 -7 6 -7 -7 -23 -13
-35 -13 -22 0 -22 1 -10 38 11 32 17 37 46 38 19 0 34 -5 37 -14 5 -11 7 -11
14 0 16 24 9 28 -55 28 -60 0 -63 -1 -63 -24z"/>
<path d="M10966 6486 c9 -24 -45 -184 -64 -189 -9 -3 21 -5 68 -6 83 -1 85 0
97 26 14 29 8 47 -7 23 -5 -8 -11 -19 -13 -24 -3 -10 -83 -14 -92 -4 -4 4 -2
23 5 42 9 28 17 36 36 36 16 0 24 -6 25 -17 1 -12 4 -10 9 7 15 46 12 52 -15
34 -33 -22 -39 -14 -28 33 8 35 11 38 43 36 19 -1 40 -10 47 -19 12 -17 13
-16 13 3 0 26 -18 33 -81 33 -37 0 -47 -3 -43 -14z"/>
<path d="M11152 6448 c-23 -98 -33 -127 -50 -144 -15 -16 -12 -17 54 -12 102
7 144 43 144 121 -1 41 -20 65 -61 77 -65 19 -73 15 -87 -42z m115 1 c28 -57
-15 -132 -81 -145 -20 -3 -40 -4 -43 -1 -6 7 24 130 39 160 14 28 70 19 85
-14z"/>
<path d="M14164 6492 c3 -5 23 -8 46 -7 47 2 51 -10 15 -53 -14 -17 -25 -33
-25 -36 0 -3 17 -6 38 -6 46 0 50 -3 45 -34 -4 -21 -9 -23 -49 -18 -29 3 -44
1 -44 -7 0 -6 18 -11 45 -11 43 0 45 -1 45 -30 l0 -30 -60 0 c-33 0 -60 -4
-60 -10 0 -13 252 -8 257 6 2 7 -17 9 -57 6 l-60 -4 0 31 c0 30 1 31 46 31 32
0 44 4 42 12 -3 8 -20 11 -46 9 -35 -2 -42 0 -42 16 0 10 4 23 8 29 11 18 57
21 76 5 17 -15 32 -9 22 8 -4 5 -21 20 -39 32 -18 12 -26 16 -19 9 20 -23 14
-28 -47 -35 -79 -9 -89 -1 -51 41 16 19 30 38 30 43 0 4 -27 9 -61 10 -33 1
-58 -2 -55 -7z"/>
<path d="M3944 6465 c9 -13 16 -31 16 -40 0 -8 5 -15 10 -15 6 0 10 5 10 10 0
19 -30 70 -41 70 -7 0 -5 -10 5 -25z"/>
<path d="M4302 6468 c-9 -12 -30 -34 -47 -50 -16 -15 -25 -28 -19 -28 5 0 15
5 22 12 9 9 12 -4 12 -60 0 -41 4 -72 10 -72 6 0 10 35 10 84 0 70 3 87 18 98
24 17 36 38 22 38 -5 0 -18 -10 -28 -22z"/>
<path d="M11655 6470 c-21 -24 -17 -25 21 -6 36 19 64 5 64 -32 0 -26 -50
-100 -87 -128 -16 -12 -10 -13 43 -14 40 0 66 5 73 14 9 11 2 12 -41 8 l-53
-5 35 39 c20 22 42 54 49 72 12 29 12 35 -4 52 -24 26 -76 26 -100 0z"/>
<path d="M12014 6455 c-18 -44 -18 -45 4 -45 22 0 62 -40 62 -62 0 -29 -31
-50 -62 -44 -16 3 -28 1 -28 -5 0 -18 27 -20 63 -6 63 27 57 117 -8 133 -38 9
-31 32 12 36 50 4 57 28 8 28 -32 0 -38 -4 -51 -35z"/>
<path d="M13646 6460 c-38 -34 -61 -88 -51 -120 10 -32 46 -60 76 -60 33 0 79
19 79 32 0 6 -3 8 -7 6 -5 -2 -21 -10 -36 -18 -42 -20 -81 2 -85 49 -10 97 97
176 135 101 7 -14 13 -20 13 -15 0 6 3 19 6 31 5 19 1 21 -45 23 -43 1 -55 -3
-85 -29z"/>
<path d="M13843 6478 c6 -18 -31 -148 -50 -177 l-15 -24 61 5 c40 3 67 10 81
23 21 19 28 65 10 65 -16 0 -12 27 5 34 9 3 15 18 15 36 0 24 -6 33 -26 40
-37 14 -87 13 -81 -2z m84 -24 c8 -22 -16 -54 -42 -54 -27 0 -34 25 -15 60 11
20 48 17 57 -6z m-19 -102 c5 -30 -12 -49 -48 -54 -32 -5 -34 -1 -24 51 6 29
10 32 38 29 24 -2 32 -8 34 -26z"/>
<path d="M4910 6469 c0 -4 10 -9 22 -13 18 -4 20 -8 10 -18 -17 -17 -15 -38 3
-38 24 0 18 -45 -11 -79 -14 -17 -21 -31 -15 -31 5 0 12 4 15 9 3 5 29 1 56
-10 65 -25 190 -27 190 -3 0 8 -5 12 -10 9 -6 -4 -17 -4 -25 -1 -11 4 -13 11
-5 31 7 19 6 25 -4 25 -8 0 -13 -8 -12 -17 0 -12 -6 -17 -17 -17 -14 2 -15 -1
-6 -12 9 -12 5 -14 -27 -14 -22 0 -56 5 -77 11 -34 9 -38 13 -32 32 17 54 18
77 1 77 -20 0 -20 14 0 35 9 9 13 19 9 23 -8 9 -65 9 -65 1z"/>
<path d="M5470 6436 c-18 -20 -41 -38 -51 -41 -11 -4 -19 -11 -19 -16 0 -15
52 16 84 50 16 17 27 33 24 37 -4 3 -21 -10 -38 -30z"/>
<path d="M9752 6425 c-36 -51 -38 -57 -18 -49 11 4 14 -8 15 -57 0 -34 3 -64
6 -67 3 -3 5 24 5 59 0 70 15 139 30 139 6 0 10 5 10 10 0 21 -17 8 -48 -35z"/>
<path d="M1884 6420 c0 -31 3 -37 13 -27 21 21 20 67 -1 67 -9 0 -13 -12 -12
-40z"/>
<path d="M4333 6448 c-2 -5 21 -8 52 -8 l56 0 -3 -72 -3 -73 -30 3 -30 2 29
-16 c40 -22 50 -8 54 81 l4 75 31 0 c17 0 27 3 23 7 -9 10 -177 10 -183 1z"/>
<path d="M5070 6445 c0 -10 -11 -15 -35 -15 -27 0 -35 -4 -34 -17 0 -11 3 -13
6 -5 5 14 33 17 33 3 0 -5 -6 -12 -12 -14 -9 -4 -10 -6 -1 -6 6 -1 18 6 27 14
8 8 21 15 29 15 8 0 20 -7 27 -15 7 -8 17 -15 22 -15 6 0 5 6 -1 14 -10 12 -6
15 26 19 36 3 35 4 -9 5 -35 2 -48 6 -48 17 0 8 -7 15 -15 15 -8 0 -15 -7 -15
-15z"/>
<path d="M6110 6450 l-35 -7 43 -2 c23 0 42 4 42 9 0 6 -3 9 -7 9 -5 -1 -24
-5 -43 -9z"/>
<path d="M3678 6432 c-77 -1 -128 -7 -128 -13 0 -6 51 -9 138 -7 117 3 152 8
123 21 -3 1 -63 1 -133 -1z"/>
<path d="M5697 6433 c-11 -10 -8 -51 3 -58 17 -10 50 5 50 24 0 30 -35 53 -53
34z m37 -35 c-3 -4 -12 -8 -20 -8 -17 0 -19 27 -1 33 14 5 28 -13 21 -25z"/>
<path d="M10770 6414 c0 -9 5 -14 12 -12 18 6 21 28 4 28 -9 0 -16 -7 -16 -16z"/>
<path d="M11870 6415 c0 -9 6 -12 15 -9 8 4 15 10 15 15 0 5 -7 9 -15 9 -8 0
-15 -7 -15 -15z"/>
<path d="M6105 6410 l-40 -7 48 -2 c26 0 47 4 47 9 0 6 -3 9 -7 9 -5 -1 -26
-5 -48 -9z"/>
<path d="M8517 6413 c-3 -3 -1 -10 4 -17 5 -6 16 -20 23 -30 8 -11 16 -15 19
-9 7 11 -37 65 -46 56z"/>
<path d="M8825 6410 c-155 -6 -133 -20 33 -20 93 0 112 3 112 15 0 8 -3 14 -7
13 -5 -1 -66 -5 -138 -8z"/>
<path d="M12985 6410 c-3 -5 1 -10 9 -10 9 0 16 5 16 10 0 6 -4 10 -9 10 -6 0
-13 -4 -16 -10z"/>
<path d="M6190 6405 c0 -3 12 -24 26 -47 28 -44 28 -43 -29 -74 -16 -9 -26
-18 -24 -21 3 -3 24 5 46 18 40 22 42 22 76 6 20 -9 42 -17 50 -17 26 0 16 17
-12 23 -55 12 -58 20 -28 71 l27 46 -66 0 c-36 0 -66 -2 -66 -5z m100 -10 c0
-2 -5 -16 -12 -30 -13 -30 -33 -32 -48 -6 -17 32 -12 41 25 41 19 0 35 -2 35
-5z"/>
<path d="M11393 6398 c-2 -5 33 -8 78 -8 45 0 80 3 77 6 -9 8 -149 10 -155 2z"/>
<path d="M12376 6402 c-3 -5 -2 -19 1 -31 4 -17 12 -21 32 -19 20 2 26 8 26
28 0 20 -6 26 -27 28 -14 2 -29 -1 -32 -6z m54 -17 c0 -8 -9 -15 -20 -15 -11
0 -20 7 -20 15 0 8 9 15 20 15 11 0 20 -7 20 -15z"/>
<path d="M5080 6393 c0 -8 -16 -14 -42 -14 -30 -2 -35 -3 -15 -6 32 -5 34 -16
7 -43 -14 -14 -16 -20 -7 -20 16 0 47 32 47 48 0 8 21 13 58 14 53 1 54 2 12
5 -24 3 -48 10 -52 16 -6 9 -8 9 -8 0z"/>
<path d="M9785 6390 c3 -5 34 -10 69 -10 l63 0 -1 -52 c-1 -48 -3 -53 -23 -52
-13 0 -23 -3 -23 -8 0 -4 13 -8 29 -8 31 0 41 14 41 61 0 27 2 29 26 23 20 -5
25 -3 22 7 -3 8 -15 13 -26 11 -12 -2 -22 2 -22 7 0 6 9 11 19 11 11 0 23 5
26 10 4 6 -32 10 -100 10 -68 0 -104 -4 -100 -10z"/>
<path d="M5482 6351 c-17 -21 -45 -45 -62 -52 -27 -13 -41 -29 -22 -29 16 1
86 57 110 88 35 46 12 40 -26 -7z"/>
<path d="M540 6355 c0 -8 5 -15 10 -15 6 0 10 7 10 15 0 8 -4 15 -10 15 -5 0
-10 -7 -10 -15z"/>
<path d="M3416 6361 c-3 -5 1 -14 9 -21 12 -10 15 -10 15 3 0 19 -16 31 -24
18z"/>
<path d="M6075 6324 c-6 -43 2 -75 12 -46 3 6 20 12 39 12 33 0 34 1 34 40 0
40 0 40 -39 40 -38 0 -39 0 -46 -46z m65 1 c0 -20 -5 -25 -25 -25 -20 0 -25 5
-25 25 0 20 5 25 25 25 20 0 25 -5 25 -25z"/>
<path d="M3371 6353 c0 -4 4 -17 9 -28 8 -19 9 -19 9 2 1 12 -3 25 -9 28 -5 3
-10 3 -9 -2z"/>
<path d="M9785 6350 c7 -12 103 -11 111 1 3 5 -22 9 -56 9 -37 0 -59 -4 -55
-10z"/>
<path d="M3282 6330 c-14 -23 -15 -30 -3 -30 8 0 24 41 18 47 -2 1 -8 -7 -15
-17z"/>
<path d="M3330 6326 c0 -22 3 -27 11 -19 8 8 8 16 0 30 -9 16 -10 14 -11 -11z"/>
<path d="M7100 6333 c0 -12 5 -25 10 -28 13 -8 13 15 0 35 -8 12 -10 11 -10
-7z"/>
<path d="M7146 6335 c4 -8 8 -15 10 -15 2 0 4 7 4 15 0 8 -4 15 -10 15 -5 0
-7 -7 -4 -15z"/>
<path d="M11395 6340 c3 -5 37 -10 75 -10 38 0 72 5 75 10 4 6 -23 10 -75 10
-52 0 -79 -4 -75 -10z"/>
<path d="M13210 6342 c0 -11 60 -67 87 -81 12 -6 30 -11 40 -11 10 0 -1 9 -24
21 -24 12 -43 24 -43 28 0 4 11 14 25 21 14 7 25 17 25 22 0 14 -13 9 -38 -14
l-24 -23 -18 23 c-19 23 -30 28 -30 14z"/>
<path d="M7050 6315 c0 -14 5 -25 10 -25 6 0 10 11 10 25 0 14 -4 25 -10 25
-5 0 -10 -11 -10 -25z"/>
<path d="M7005 6310 c-18 -20 -16 -38 3 -26 8 5 24 46 18 46 -2 0 -11 -9 -21
-20z"/>
<path d="M9830 6325 c0 -18 19 -40 26 -32 4 4 0 15 -9 24 -9 10 -17 13 -17 8z"/>
<path d="M10770 6310 c0 -13 18 -22 24 -11 3 5 -1 11 -9 15 -8 3 -15 1 -15 -4z"/>
<path d="M11876 6313 c-11 -11 -6 -23 9 -23 8 0 15 4 15 9 0 13 -16 22 -24 14z"/>
<path d="M9046 6292 c-4 -13 -5 -26 -2 -29 10 -11 18 4 14 29 l-4 23 -8 -23z"/>
<path d="M9087 6295 c-4 -8 -2 -17 3 -20 6 -4 10 3 10 14 0 25 -6 27 -13 6z"/>
<path d="M9120 6296 c0 -8 5 -18 10 -21 6 -3 10 1 10 9 0 8 -4 18 -10 21 -5 3
-10 -1 -10 -9z"/>
<path d="M9150 6300 c0 -5 5 -10 10 -10 6 0 10 5 10 10 0 6 -4 10 -10 10 -5 0
-10 -4 -10 -10z"/>
<path d="M1158 6152 l-58 -3 0 -49 c0 -47 2 -50 25 -50 16 0 25 -6 25 -16 0
-12 -7 -14 -31 -9 -22 5 -29 4 -25 -4 4 -6 18 -11 32 -11 15 0 24 -6 24 -16 0
-12 -7 -15 -25 -12 -14 3 -28 1 -31 -3 -3 -5 27 -9 66 -9 39 0 69 4 66 9 -3 4
-17 6 -31 3 -18 -3 -25 0 -25 12 0 10 9 16 25 16 14 0 25 5 25 11 0 6 -9 8
-20 4 -25 -8 -41 1 -33 21 3 9 16 13 31 12 24 -3 26 0 30 43 2 26 0 49 -5 50
-4 2 -34 3 -65 1z m0 -50 c3 -30 1 -33 -20 -30 -13 2 -21 8 -18 13 3 6 8 9 13
8 11 -4 9 15 -3 22 -17 10 -11 27 8 23 11 -2 18 -14 20 -36z m50 0 c3 -27 0
-32 -17 -32 -25 0 -26 6 -6 26 8 9 15 21 15 27 0 7 -7 3 -15 -7 -15 -19 -15
-19 -15 3 0 37 34 22 38 -17z"/>
<path d="M1280 6084 c0 -71 -1 -75 -20 -69 -19 6 -20 2 -20 -61 0 -57 2 -65
14 -54 8 6 30 11 48 10 58 -3 58 -3 58 55 0 55 0 56 -27 53 l-28 -3 0 73 c0
51 -4 72 -12 72 -9 0 -13 -22 -13 -76z m60 -125 l0 -40 -42 3 c-40 3 -43 5
-44 33 -2 41 2 45 47 45 39 0 39 0 39 -41z"/>
<path d="M2040 6118 c-7 -24 -20 -54 -27 -66 -8 -13 -12 -26 -9 -30 3 -3 6 0
6 6 0 7 5 12 10 12 6 0 10 -33 10 -80 0 -47 4 -80 10 -80 6 0 10 46 10 118 0
90 4 123 16 140 12 18 13 22 1 22 -8 0 -20 -19 -27 -42z"/>
<path d="M2167 6140 c-4 -17 -12 -20 -46 -19 -22 2 -44 0 -47 -4 -4 -4 16 -7
44 -7 40 0 52 -4 52 -15 0 -11 -11 -15 -40 -15 l-40 0 0 -40 c0 -39 1 -40 35
-40 24 0 35 -5 35 -14 0 -22 -19 -30 -35 -16 -10 8 -15 9 -15 2 0 -6 5 -14 10
-17 18 -11 10 -25 -27 -47 -20 -12 -31 -24 -25 -26 11 -3 61 25 73 40 3 5 20
1 37 -7 42 -21 108 -32 98 -17 -4 7 -14 12 -23 12 -27 0 -82 23 -87 36 -9 24
24 54 60 54 33 0 34 1 34 40 l0 40 -41 0 c-58 0 -46 24 14 28 26 2 47 7 47 12
0 6 -21 9 -47 7 -41 -2 -48 1 -45 16 4 24 -15 21 -21 -3z m-4 -92 c8 -29 0
-39 -26 -34 -12 3 -25 5 -29 5 -4 1 -7 12 -6 26 2 20 8 25 29 25 19 0 28 -6
32 -22z m77 -9 c0 -27 -3 -30 -27 -27 -22 2 -29 9 -31 31 -3 24 0 27 27 27 28
0 31 -3 31 -31z"/>
<path d="M2390 6148 c0 -7 -12 -25 -27 -40 -15 -15 -22 -28 -15 -28 15 0 72
62 66 72 -8 12 -24 10 -24 -4z"/>
<path d="M2460 6100 l0 -50 58 0 57 0 1 50 0 50 -58 0 -58 0 0 -50z m100 20
c0 -5 -5 -10 -12 -10 -9 0 -9 -3 0 -12 21 -21 13 -28 -33 -28 -25 0 -45 5 -45
10 0 6 6 10 13 11 10 0 10 2 0 6 -7 2 -13 11 -13 19 0 10 13 14 45 14 25 0 45
-4 45 -10z"/>
<path d="M2500 6100 c0 -5 7 -10 15 -10 8 0 15 5 15 10 0 6 -7 10 -15 10 -8 0
-15 -4 -15 -10z"/>
<path d="M4800 6104 c0 -38 -3 -45 -17 -42 -14 3 -18 13 -17 41 1 20 -3 37 -7
37 -5 0 -9 -10 -9 -22 0 -13 -3 -33 -6 -46 -5 -19 -2 -23 25 -28 21 -5 31 -12
31 -25 0 -15 -7 -19 -36 -19 -30 0 -34 -2 -25 -14 9 -11 9 -25 1 -56 -6 -23
-9 -44 -6 -47 5 -6 17 20 33 72 12 43 28 28 29 -28 1 -26 4 -50 7 -54 7 -6 9
37 9 174 -1 40 4 75 9 78 11 7 2 25 -12 25 -5 0 -9 -21 -9 -46z"/>
<path d="M4878 6118 c-34 -36 -35 -40 -5 -33 15 4 28 1 37 -10 15 -18 16 -17
-35 -44 -22 -11 -34 -21 -27 -21 32 0 152 88 152 111 0 4 -16 5 -35 2 -26 -4
-36 -2 -41 11 -8 21 -14 19 -46 -16z m81 -15 c3 -2 -3 -11 -12 -20 -16 -16
-18 -16 -32 2 -8 11 -15 23 -15 28 0 7 49 -1 59 -10z"/>
<path d="M5962 6115 c-16 -54 -16 -55 18 -55 25 0 30 -4 30 -24 0 -35 -10 -56
-27 -56 -8 0 -11 -4 -8 -10 3 -5 -1 -10 -10 -10 -17 0 -17 18 1 64 3 9 2 16
-4 16 -6 0 -13 -18 -17 -40 -6 -34 -11 -40 -31 -40 -17 0 -24 6 -24 20 0 13 7
20 20 20 11 0 20 5 20 11 0 6 -9 8 -20 4 -16 -5 -20 -2 -20 14 0 14 6 21 20
21 11 0 20 5 20 10 0 6 -9 10 -20 10 -29 0 -24 27 8 44 28 16 15 20 -25 10
-21 -6 -23 -12 -23 -85 0 -65 -3 -79 -16 -79 -8 0 -13 -4 -9 -9 7 -12 285 -14
285 -2 0 5 -7 11 -15 15 -18 6 -21 106 -5 136 13 25 2 30 -40 20 -32 -7 -33
-8 -7 -9 20 -1 27 -6 27 -20 0 -14 -8 -21 -27 -23 l-28 -4 27 -12 c32 -13 29
-38 -5 -45 -22 -4 -22 -4 1 -6 15 -1 22 -7 22 -21 0 -16 -7 -20 -36 -20 -34 0
-36 2 -30 26 21 83 21 84 -14 84 -21 0 -30 4 -27 13 2 6 14 12 27 12 13 0 26
7 28 14 3 10 -2 12 -21 7 -21 -5 -26 -2 -29 16 -3 19 -6 15 -16 -17z"/>
<path d="M7010 6116 c-5 -14 -16 -26 -24 -26 -17 0 -23 -43 -16 -131 l5 -66
30 13 c30 12 30 12 5 15 -20 3 -26 11 -28 37 -3 31 -2 32 33 32 l37 0 -4 -47
c-2 -31 1 -48 10 -50 9 -4 12 20 12 96 l0 101 -32 -7 -33 -6 18 26 c10 16 13
28 7 32 -6 3 -14 -5 -20 -19z m40 -76 c0 -27 -3 -30 -30 -30 -27 0 -30 3 -30
30 0 27 3 30 30 30 27 0 30 -3 30 -30z"/>
<path d="M7110 6120 c0 -12 -7 -35 -16 -51 -8 -17 -14 -35 -12 -41 2 -6 10 3
17 20 13 30 17 32 64 32 l50 0 -7 -72 c-11 -109 -14 -118 -44 -118 -19 0 -23
-3 -15 -11 6 -6 21 -9 34 -7 21 3 25 10 31 58 3 30 8 80 10 110 l3 54 -52 -3
c-49 -2 -68 8 -43 24 12 7 4 25 -11 25 -5 0 -9 -9 -9 -20z"/>
<path d="M1670 6106 c0 -22 -21 -104 -40 -151 -6 -16 -4 -21 11 -21 13 0 19 7
19 22 0 62 45 99 69 57 6 -10 11 -13 12 -8 0 6 3 23 5 39 5 26 4 27 -11 12
-36 -35 -60 -3 -35 45 14 25 75 26 89 2 9 -16 10 -16 11 5 0 21 -4 22 -65 22
-62 0 -65 -1 -65 -24z"/>
<path d="M2976 6116 c6 -17 -20 -128 -41 -168 l-13 -28 44 0 c45 0 82 13 96
34 11 16 10 56 -2 56 -17 0 -11 25 10 38 24 15 26 45 4 66 -21 21 -106 22 -98
2z m75 -12 c21 -19 12 -46 -19 -63 -33 -18 -45 2 -28 43 17 41 22 43 47 20z
m-7 -99 c9 -24 -14 -63 -40 -68 -39 -7 -47 6 -30 47 11 27 21 36 39 36 14 0
27 -7 31 -15z"/>
<path d="M3166 6116 c8 -21 -36 -168 -55 -183 -14 -11 -11 -12 21 -13 29 0 36
3 32 15 -4 8 -3 31 0 50 6 28 11 35 31 35 13 0 25 -6 28 -12 6 -18 13 -9 21
27 6 24 5 28 -5 18 -7 -7 -24 -13 -37 -13 -17 0 -22 4 -18 18 17 63 17 62 44
56 15 -3 38 -7 50 -10 17 -3 23 -1 20 8 -3 8 -28 14 -71 16 -55 2 -66 0 -61
-12z"/>
<path d="M3719 6121 c-1 -3 -1 -10 0 -14 4 -22 -42 -163 -57 -174 -13 -11 -6
-13 41 -13 107 0 157 39 157 121 0 59 -20 78 -88 82 -29 2 -53 1 -53 -2z m102
-32 c17 -17 20 -28 14 -57 -10 -52 -20 -67 -59 -86 -70 -33 -82 -10 -50 89 9
28 18 56 20 63 5 19 52 14 75 -9z"/>
<path d="M3953 6123 c-7 -3 -13 -11 -13 -20 0 -32 -43 -159 -58 -170 -13 -11
-1 -13 64 -13 77 0 81 1 92 25 17 38 14 43 -9 16 -12 -15 -33 -25 -59 -28 -37
-4 -40 -3 -40 19 0 47 11 68 36 68 16 0 24 -6 25 -17 1 -12 4 -10 9 7 14 43
12 53 -6 36 -31 -32 -49 -14 -33 33 9 26 16 31 43 31 18 0 37 -5 44 -12 9 -9
12 -8 12 5 0 9 -3 17 -7 18 -32 5 -90 6 -100 2z"/>
<path d="M7414 6118 c3 -9 0 -19 -7 -22 -13 -5 15 -8 93 -10 29 -1 49 3 48 9
-2 6 -10 8 -18 7 -37 -9 -94 0 -107 16 -14 16 -14 16 -9 0z"/>
<path d="M7634 6121 c-2 -2 -4 -26 -4 -53 0 -36 4 -48 15 -48 18 0 19 12 3 28
-9 9 -9 15 0 24 9 9 12 9 12 -2 0 -7 3 -10 6 -7 4 4 1 13 -6 22 -15 18 -7 30
15 22 17 -7 21 -67 4 -67 -8 0 -8 -4 1 -15 16 -20 2 -38 -26 -32 -13 2 -24 0
-24 -4 0 -5 14 -9 31 -9 20 0 29 -4 26 -12 -2 -7 -18 -12 -36 -12 -17 1 -28
-2 -25 -7 8 -13 134 -11 134 2 0 7 -10 9 -25 5 -18 -5 -25 -2 -25 9 0 9 9 15
25 15 14 0 25 5 25 11 0 7 -11 8 -30 4 -23 -5 -30 -3 -30 9 0 11 9 16 30 16
30 0 30 1 30 53 l0 52 -61 0 c-33 0 -63 -2 -65 -4z m106 -46 c0 -40 -24 -49
-34 -12 -10 37 -7 47 14 47 16 0 20 -7 20 -35z"/>
<path d="M7716 6083 c-6 -14 -5 -15 5 -6 7 7 10 15 7 18 -3 3 -9 -2 -12 -12z"/>
<path d="M7818 6058 c-3 -69 -4 -73 -25 -71 -22 3 -23 -1 -23 -62 0 -60 9 -80
25 -55 3 6 26 10 51 10 l44 0 0 45 c0 59 -1 60 -30 60 -21 0 -26 5 -28 33 -3
31 -2 32 33 32 25 0 35 4 32 13 -2 7 -17 11 -37 9 -32 -4 -33 -3 -27 27 4 17
2 31 -3 31 -5 0 -10 -33 -12 -72z m52 -128 l0 -40 -40 0 -40 0 0 40 0 40 40 0
40 0 0 -40z"/>
<path d="M7998 6118 c20 -20 14 -28 -19 -28 -17 0 -28 -4 -24 -10 3 -5 31 -10
61 -10 30 0 54 5 54 10 0 6 -11 10 -24 10 -15 0 -26 7 -29 20 -3 11 -11 20
-18 20 -10 0 -10 -3 -1 -12z"/>
<path d="M8390 6110 c0 -25 -9 -25 -26 -2 -12 16 -13 15 -14 -5 0 -17 -5 -20
-22 -16 -21 4 -21 3 -5 -7 10 -7 27 -10 38 -7 14 4 19 0 19 -16 -1 -29 -34
-103 -66 -144 -14 -18 -21 -33 -15 -33 5 0 20 17 32 38 13 20 27 40 33 44 5 3
47 7 93 7 76 1 83 -1 83 -18 0 -43 -19 -71 -47 -72 l-28 0 24 -10 c35 -14 46
-7 59 39 18 60 16 72 -14 72 -27 0 -27 -1 -7 48 3 7 -3 12 -16 12 -16 0 -21 6
-21 25 0 21 -5 25 -29 25 -17 0 -33 -5 -37 -12 -5 -8 2 -9 24 -5 37 8 45 -15
12 -33 -32 -17 -85 2 -64 23 11 10 13 67 3 67 -5 0 -9 -9 -9 -20z m110 -110
c0 -18 -7 -20 -60 -20 -53 0 -60 2 -60 20 0 18 7 20 60 20 53 0 60 -2 60 -20z"/>
<path d="M5400 6100 c-7 -14 -16 -27 -20 -30 -3 -3 -21 -26 -40 -52 -18 -27
-37 -48 -42 -48 -4 0 -8 -6 -8 -14 0 -7 -10 -21 -22 -29 l-23 -16 25 0 c21 -1
28 6 35 32 8 26 16 33 43 35 28 3 32 0 32 -20 0 -13 -5 -29 -12 -36 -9 -9 -5
-12 20 -12 32 0 40 8 23 26 -6 5 -6 39 0 88 11 90 8 112 -11 76z m-10 -75 c0
-28 -4 -35 -20 -35 -24 0 -26 18 -4 48 21 30 24 28 24 -13z"/>
<path d="M5514 6102 c8 -24 -31 -151 -53 -176 -15 -18 -14 -18 50 -14 83 5
120 36 97 82 -7 13 -5 28 9 53 18 34 18 35 -6 54 -14 12 -39 19 -63 19 -34 0
-39 -3 -34 -18z m86 -17 c9 -11 7 -19 -15 -41 -24 -24 -25 -28 -11 -36 38 -21
6 -78 -45 -78 -33 0 -35 7 -13 58 9 20 18 48 20 61 5 39 12 51 32 51 11 0 25
-7 32 -15z"/>
<path d="M6444 6104 c6 -16 -36 -158 -53 -178 -12 -15 -7 -16 61 -16 70 0 75
1 86 25 15 32 15 35 2 35 -5 0 -10 -7 -10 -15 0 -8 -16 -19 -37 -24 -62 -18
-66 -16 -58 26 9 48 12 53 36 53 11 0 19 -7 20 -17 0 -15 2 -15 9 2 5 11 9 29
9 40 0 18 0 19 -10 3 -5 -10 -19 -18 -29 -18 -24 0 -24 -1 -5 44 17 40 51 49
79 20 15 -14 16 -14 16 5 0 22 -3 23 -83 25 -23 1 -36 -3 -33 -10z"/>
<path d="M8090 6110 c0 -5 23 -10 50 -10 l50 0 0 -41 0 -41 -45 4 c-35 2 -45
0 -46 -12 -2 -26 3 -135 6 -138 7 -7 81 -11 103 -5 18 4 22 12 21 42 l-1 36
-9 -33 c-10 -32 -11 -33 -57 -30 l-47 3 -3 63 -3 62 51 0 50 0 0 55 0 55 -60
0 c-33 0 -60 -4 -60 -10z"/>
<path d="M9780 6110 c-115 -6 -106 -11 25 -14 l70 -1 3 -34 c2 -19 -2 -37 -8
-41 -8 -5 -6 -9 7 -12 16 -4 18 2 18 54 0 32 0 57 0 56 0 -1 -52 -5 -115 -8z"/>
<path d="M10024 6065 c-21 -54 -18 -78 4 -30 17 38 42 32 42 -9 0 -33 -2 -35
-37 -39 l-38 -4 38 -1 c20 -1 37 -4 37 -7 0 -18 -31 -75 -51 -93 -12 -12 -21
-24 -18 -26 6 -7 42 26 62 57 22 35 32 34 54 -3 18 -30 33 -39 33 -19 0 6 -16
27 -35 46 -35 35 -41 44 -27 42 27 -4 72 3 67 10 -3 5 -21 7 -40 4 -34 -5 -35
-5 -35 26 0 19 4 30 10 26 6 -3 10 -1 10 4 0 6 11 11 25 11 14 0 25 4 25 10 0
5 -21 7 -50 3 -33 -4 -50 -2 -50 5 0 6 5 14 10 17 14 9 12 25 -2 25 -7 0 -23
-25 -34 -55z"/>
<path d="M11276 6089 c-9 -47 -8 -49 19 -49 22 0 25 -4 25 -35 0 -22 -6 -38
-15 -41 -8 -4 -12 -10 -9 -15 3 -5 -13 -9 -35 -9 -23 0 -44 -1 -48 -2 -5 -2
-9 7 -11 19 -2 16 3 23 20 26 22 4 22 4 1 6 -18 1 -21 7 -21 47 1 38 5 47 27
59 27 15 10 19 -23 6 -17 -6 -19 -17 -17 -84 2 -67 0 -77 -15 -77 -10 0 -14
-3 -11 -6 12 -12 265 -16 272 -4 3 5 -1 10 -11 10 -15 0 -16 10 -12 80 l5 80
-31 -1 c-22 -1 -25 -3 -10 -6 19 -4 22 -11 22 -54 0 -43 -3 -49 -22 -50 -17
-1 -17 -2 -3 -6 17 -4 24 -38 9 -46 -4 -3 -19 -3 -34 0 -22 4 -27 10 -24 27
17 83 17 86 -9 86 -34 0 -32 28 3 33 l27 4 -27 2 c-20 1 -26 5 -22 16 4 8 2
15 -4 15 -5 0 -12 -14 -16 -31z"/>
<path d="M12380 6085 c0 -31 -3 -35 -27 -36 -24 -2 -25 -2 -5 -6 28 -6 28 -18
-3 -72 -14 -24 -23 -46 -21 -49 3 -2 15 12 27 32 11 20 23 36 26 36 2 0 3 -30
2 -67 -1 -38 2 -70 7 -73 5 -3 10 28 12 68 3 64 5 72 18 61 24 -19 27 -3 4 19
-12 11 -21 26 -20 33 5 35 -1 89 -10 89 -5 0 -10 -16 -10 -35z"/>
<path d="M12782 6098 c2 -23 7 -28 28 -28 21 1 23 2 8 11 -10 5 -22 17 -27 27
-9 14 -10 12 -9 -10z"/>
<path d="M13518 6042 c-3 -66 -5 -77 -20 -76 -11 1 -18 -5 -18 -15 0 -13 -9
-18 -35 -19 -24 -1 -35 3 -35 12 0 16 27 29 41 20 5 -3 9 0 9 5 0 6 -11 11
-25 11 -21 0 -25 5 -25 29 0 17 5 33 10 36 6 3 10 12 9 18 0 9 -2 9 -6 0 -8
-20 -23 -15 -23 7 0 15 7 20 26 20 26 0 26 -2 22 -45 -3 -25 -2 -45 3 -45 5 0
9 15 9 34 0 19 3 41 6 50 5 14 -4 16 -60 16 l-66 0 0 -50 c0 -27 3 -50 8 -50
4 0 7 20 7 45 0 36 3 45 17 45 15 0 17 -9 17 -59 -1 -47 -5 -61 -18 -64 -14
-4 -14 -5 2 -6 34 -2 18 -30 -20 -34 -21 -2 0 -4 46 -5 83 -2 83 -2 79 -26 -7
-37 2 -42 60 -38 l52 4 0 44 c0 58 -1 59 -30 59 -24 0 -25 2 -22 65 2 35 5 67
8 71 2 4 -3 9 -11 12 -11 5 -15 -8 -17 -71z m57 -132 c0 -34 -1 -35 -42 -38
l-43 -3 0 41 0 41 43 -3 c41 -3 42 -4 42 -38z"/>
<path d="M6625 6101 c4 -8 -15 -93 -40 -172 -5 -15 -1 -19 15 -19 13 0 19 4
14 11 -3 6 -1 29 6 50 10 30 18 39 36 39 13 0 28 -8 33 -17 9 -16 10 -16 11
-1 0 9 3 25 6 35 6 15 4 16 -7 6 -18 -18 -59 -16 -59 1 0 8 4 26 9 39 8 20 17
25 50 25 28 1 44 -5 51 -16 8 -15 9 -14 10 6 0 21 -4 22 -71 22 -41 0 -68 -4
-64 -9z"/>
<path d="M8936 6099 c-57 -9 -96 -55 -96 -113 0 -63 24 -89 82 -89 57 0 65 5
78 53 6 22 15 40 20 40 6 0 10 4 10 8 0 5 -13 7 -30 4 -16 -2 -27 -9 -24 -14
3 -5 3 -25 0 -44 -6 -32 -9 -34 -46 -34 -46 0 -70 26 -70 78 0 49 54 102 105
102 28 0 38 -5 42 -20 7 -28 23 -25 23 4 0 28 -30 36 -94 25z"/>
<path d="M13044 6093 c3 -19 0 -23 -19 -23 -13 0 -27 -4 -30 -10 -3 -5 3 -10
14 -10 18 0 21 -6 21 -47 -1 -27 -9 -73 -20 -103 -18 -52 -18 -54 0 -33 10 13
21 45 25 73 6 40 11 50 26 50 15 0 19 -7 19 -34 0 -62 -11 -95 -34 -99 -16 -3
-15 -5 7 -6 32 -1 34 2 40 92 l5 67 -27 -2 c-20 -2 -27 2 -29 20 -3 20 1 22
37 22 23 0 41 5 41 10 0 6 -13 10 -28 10 -20 0 -33 7 -41 23 l-12 22 5 -22z"/>
<path d="M13146 6043 l-35 -68 29 35 c17 19 30 40 30 47 0 29 20 19 44 -22 15
-25 33 -45 41 -45 21 0 18 17 -3 22 -11 3 -29 26 -41 52 -13 25 -24 46 -26 46
-2 0 -20 -30 -39 -67z"/>
<path d="M1325 6090 c-3 -5 3 -10 14 -10 12 0 21 5 21 10 0 6 -6 10 -14 10 -8
0 -18 -4 -21 -10z"/>
<path d="M2395 6080 c-4 -11 -17 -33 -31 -49 -22 -27 -23 -29 -4 -24 19 5 20
2 14 -54 -4 -40 -3 -63 5 -67 8 -5 11 16 11 74 0 67 4 87 21 111 16 23 17 29
5 29 -8 0 -18 -9 -21 -20z"/>
<path d="M7300 6090 c0 -6 21 -10 47 -10 56 0 53 7 -5 15 -25 3 -42 1 -42 -5z"/>
<path d="M10605 6090 c7 -11 -21 -111 -45 -162 l-18 -38 48 0 c27 0 61 5 75
12 30 13 43 53 26 79 -9 15 -7 23 9 39 39 39 17 71 -56 76 -26 2 -42 0 -39 -6z
m83 -33 c5 -26 -16 -47 -48 -47 -28 0 -28 1 -17 35 9 30 15 36 36 33 15 -2 27
-10 29 -21z m-20 -98 c3 -29 -10 -43 -50 -53 -35 -8 -42 5 -24 49 13 31 20 36
43 33 22 -2 29 -9 31 -29z"/>
<path d="M10793 6086 c5 -14 -40 -166 -54 -182 -9 -12 -3 -14 40 -14 95 0 161
50 161 122 0 55 -19 71 -89 78 -39 4 -60 2 -58 -4z m99 -18 c30 -24 27 -86 -7
-126 -25 -30 -90 -51 -106 -35 -4 4 3 45 18 91 24 76 27 82 52 82 15 0 34 -6
43 -12z"/>
<path d="M11823 6090 c-58 -6 -89 -28 -110 -78 -27 -65 9 -132 72 -132 23 0
75 29 75 41 0 5 -10 3 -22 -5 -12 -9 -34 -16 -49 -16 -68 0 -80 94 -19 158 31
33 91 28 101 -8 l6 -25 8 28 c10 38 0 44 -62 37z"/>
<path d="M11991 6087 c-41 -13 -84 -75 -83 -120 1 -40 50 -87 90 -87 38 0 72
26 72 55 0 13 7 31 16 39 14 15 13 16 -14 16 -25 0 -29 -3 -25 -24 8 -37 -13
-66 -47 -66 -45 0 -70 31 -64 77 8 69 49 107 107 101 24 -2 33 -8 35 -25 5
-34 22 -28 22 7 0 25 -4 30 -24 30 -13 0 -30 2 -38 4 -7 2 -28 -1 -47 -7z"/>
<path d="M12459 6075 c0 -14 0 -54 0 -90 0 -150 0 -148 16 -135 9 8 33 11 63
8 l47 -4 2 123 2 123 -64 0 c-62 0 -65 -1 -66 -25z m109 -18 c3 -28 3 -28 -45
-25 -37 2 -49 7 -51 22 -5 25 15 37 58 34 30 -3 35 -7 38 -31z m-3 -72 c0 -29
-2 -30 -45 -30 -35 0 -45 4 -48 18 -7 37 6 48 50 45 40 -3 43 -5 43 -33z m0
-80 c0 -29 -2 -30 -45 -30 -35 0 -45 4 -48 18 -7 37 6 48 50 45 40 -3 43 -5
43 -33z"/>
<path d="M10218 6083 l-47 -4 0 -87 c0 -119 0 -118 54 -114 l45 4 0 88 c0 49
3 95 6 104 3 9 2 15 -2 14 -5 -1 -30 -3 -56 -5z m42 -98 c0 -61 -3 -85 -12
-85 -7 0 -23 -3 -35 -6 -23 -6 -23 -5 -23 85 l0 91 35 0 35 0 0 -85z"/>
<path d="M12885 6080 c-17 -7 -14 -9 13 -9 20 -1 31 3 27 9 -7 12 -13 12 -40
0z"/>
<path d="M13906 6076 c6 -17 -20 -128 -41 -168 -13 -27 -12 -28 11 -28 19 0
23 4 20 23 -2 12 1 34 6 50 9 24 14 27 59 27 49 0 49 0 43 -27 -4 -16 -14 -38
-22 -50 -14 -22 -13 -23 12 -23 23 0 26 4 26 38 0 37 32 135 52 160 8 9 3 12
-19 12 -26 0 -30 -3 -26 -23 2 -12 0 -34 -6 -50 -9 -24 -16 -27 -56 -27 -52 0
-58 14 -25 68 l20 32 -30 0 c-21 0 -28 -4 -24 -14z"/>
<path d="M12671 6076 c11 -10 89 -15 89 -6 0 5 -21 10 -47 10 -25 0 -44 -2
-42 -4z"/>
<path d="M4851 6059 c-13 -5 -22 -11 -20 -13 7 -7 59 6 59 15 0 11 -8 11 -39
-2z"/>
<path d="M7337 6034 c-21 -20 -36 -38 -33 -41 3 -3 13 2 22 11 9 10 27 24 40
33 23 15 32 33 17 33 -5 0 -25 -17 -46 -36z"/>
<path d="M7488 6040 c17 -16 36 -30 44 -30 14 1 -51 59 -65 60 -5 0 5 -13 21
-30z"/>
<path d="M9686 5996 c-8 -90 -1 -122 27 -130 29 -8 147 -8 186 0 29 6 31 9 30
48 l-1 41 -10 -37 c-9 -35 -12 -37 -63 -43 -29 -4 -76 -4 -105 0 l-51 7 3 88
c3 110 -7 127 -16 26z"/>
<path d="M12420 6050 c0 -5 5 -10 10 -10 6 0 10 5 10 10 0 6 -4 10 -10 10 -5
0 -10 -4 -10 -10z"/>
<path d="M4347 6039 c-22 -13 -22 -48 -1 -56 20 -8 48 8 52 30 4 21 -29 38
-51 26z m33 -24 c0 -8 -7 -15 -15 -15 -8 0 -15 7 -15 15 0 8 7 15 15 15 8 0
15 -7 15 -15z"/>
<path d="M4958 6025 c4 -25 3 -25 -64 -25 -77 0 -79 -14 -2 -16 58 -2 71 -11
66 -50 -2 -20 -10 -30 -28 -34 -25 -6 -25 -6 -4 -18 30 -16 44 2 44 56 0 35 4
45 20 49 11 3 20 9 20 14 0 13 -14 11 -29 -3 -11 -11 -13 -7 -8 20 5 23 3 32
-7 32 -9 0 -12 -8 -8 -25z"/>
<path d="M8006 6043 c-22 -3 -35 -8 -28 -12 15 -9 82 -1 82 10 0 5 -3 8 -7 7
-5 -1 -26 -3 -47 -5z"/>
<path d="M11228 6043 c7 -3 16 -2 19 1 4 3 -2 6 -13 5 -11 0 -14 -3 -6 -6z"/>
<path d="M12710 6015 c-19 -19 -30 -35 -25 -35 13 0 75 50 75 61 0 16 -14 9
-50 -26z"/>
<path d="M12840 6044 c0 -4 12 -18 26 -31 28 -26 46 -24 24 2 -16 19 -50 39
-50 29z"/>
<path d="M13570 6040 c0 -5 7 -10 15 -10 8 0 15 5 15 10 0 6 -7 10 -15 10 -8
0 -15 -4 -15 -10z"/>
<path d="M2508 6032 c-101 -3 -120 -22 -23 -22 89 0 83 -18 -7 -23 l-73 -3 73
-2 73 -2 -3 -37 c-3 -33 -6 -38 -27 -35 -15 2 -21 0 -17 -7 4 -6 18 -11 31
-11 21 0 24 5 27 43 3 39 5 42 38 48 33 6 24 13 -12 10 -10 -1 -18 3 -18 8 0
6 9 11 20 11 19 0 28 16 13 22 -5 2 -47 2 -95 0z"/>
<path d="M3390 6030 c0 -6 32 -10 75 -10 43 0 75 4 75 10 0 6 -32 10 -75 10
-43 0 -75 -4 -75 -10z"/>
<path d="M7454 5995 c-20 -44 -37 -44 -58 -2 -11 23 -16 26 -16 13 0 -11 8
-28 17 -38 24 -26 9 -47 -57 -80 -29 -16 -47 -28 -38 -28 26 0 82 27 101 48
18 20 19 20 67 -10 26 -16 56 -28 67 -26 13 3 4 10 -30 25 -58 27 -65 43 -39
88 12 19 17 37 12 40 -5 3 -16 -10 -26 -30z"/>
<path d="M7121 6015 c-1 -15 37 -61 44 -54 3 4 -5 20 -19 35 -14 16 -25 25
-25 19z"/>
<path d="M9261 6007 c-9 -12 -8 -18 4 -31 20 -20 58 -4 53 22 -4 22 -41 27
-57 9z m39 -12 c0 -8 -7 -15 -15 -15 -16 0 -20 12 -8 23 11 12 23 8 23 -8z"/>
<path d="M9730 6010 c-10 -7 6 -10 55 -9 48 0 64 3 50 9 -27 12 -87 12 -105 0z"/>
<path d="M11261 5996 c-6 -16 -10 -34 -8 -40 3 -6 10 2 16 18 6 16 10 34 8 40
-3 6 -10 -2 -16 -18z"/>
<path d="M8010 6000 c-51 -6 -43 -19 8 -15 31 3 51 11 41 18 -2 1 -24 0 -49
-3z"/>
<path d="M14290 5995 c-15 -19 3 -45 31 -45 23 0 32 15 24 40 -7 24 -37 26
-55 5z m43 -20 c-4 -15 -26 -12 -31 3 -3 9 2 13 14 10 11 -2 18 -8 17 -13z"/>
<path d="M12751 5978 c6 -13 18 -31 27 -40 14 -16 13 -20 -3 -38 -9 -10 -40
-27 -69 -37 -30 -10 -44 -19 -34 -21 10 -2 45 11 79 29 38 21 63 29 67 22 10
-14 67 -43 87 -43 25 0 8 18 -23 25 -15 3 -37 15 -50 25 l-23 19 26 40 c14 23
21 41 16 41 -6 0 -18 -13 -28 -30 -9 -16 -23 -30 -29 -30 -6 0 -17 14 -24 30
-7 17 -17 30 -22 30 -5 0 -3 -10 3 -22z"/>
<path d="M13170 5987 c0 -2 9 -14 20 -27 19 -22 39 -23 25 -1 -6 11 -45 35
-45 28z"/>
<path d="M3390 5970 c0 -6 32 -10 75 -10 43 0 75 4 75 10 0 6 -32 10 -75 10
-43 0 -75 -4 -75 -10z"/>
<path d="M4870 5961 c0 -5 7 -14 15 -21 12 -10 15 -10 15 3 0 8 -7 17 -15 21
-8 3 -15 2 -15 -3z"/>
<path d="M2460 5955 c0 -18 19 -40 26 -32 4 4 0 15 -9 24 -9 10 -17 13 -17 8z"/>
<path d="M7970 5911 c0 -35 3 -42 16 -37 9 3 29 6 45 6 27 0 29 3 29 38 l0 38
-45 -1 -45 0 0 -44z m75 4 c0 -16 -7 -20 -30 -20 -20 0 -30 5 -31 15 -1 25 7
31 34 28 19 -2 27 -9 27 -23z"/>
<path d="M1100 5931 c-13 -25 -13 -34 2 -29 6 2 13 14 15 26 4 27 -3 28 -17 3z"/>
<path d="M1142 5930 c0 -14 2 -19 5 -12 2 6 2 18 0 25 -3 6 -5 1 -5 -13z"/>
<path d="M1170 5931 c0 -12 5 -21 10 -21 6 0 10 6 10 14 0 8 -4 18 -10 21 -5
3 -10 -3 -10 -14z"/>
<path d="M1200 5943 c0 -5 5 -15 10 -23 8 -12 10 -11 10 8 0 12 -4 22 -10 22
-5 0 -10 -3 -10 -7z"/>
<path d="M8490 5945 c0 -15 18 -40 24 -34 3 3 -1 14 -9 25 -8 10 -14 15 -15 9z"/>
<path d="M8400 5911 c0 -17 5 -31 10 -31 6 0 10 11 10 24 0 14 -4 28 -10 31
-6 4 -10 -7 -10 -24z"/>
<path d="M8450 5923 c0 -13 5 -23 10 -23 13 0 13 11 0 30 -8 12 -10 11 -10 -7z"/>
<path d="M5925 5920 c-3 -6 -23 -19 -43 -30 -27 -14 -31 -19 -17 -19 24 0 98
43 88 52 -9 10 -21 9 -28 -3z"/>
<path d="M6021 5926 c9 -9 80 -56 84 -56 3 0 5 6 5 13 0 7 -17 21 -38 30 -37
16 -60 22 -51 13z"/>
<path d="M8356 5905 c-13 -20 -14 -25 -2 -25 7 0 16 11 18 25 3 14 4 25 3 25
-2 0 -10 -11 -19 -25z"/>
<path d="M7627 5898 c-4 -12 -4 -24 -1 -27 6 -7 24 20 24 37 0 21 -17 13 -23
-10z"/>
<path d="M7670 5893 c0 -21 3 -24 9 -14 5 8 7 20 4 28 -8 21 -13 15 -13 -14z"/>
<path d="M7707 5899 c4 -13 8 -18 11 -10 2 7 -1 18 -6 23 -8 8 -9 4 -5 -13z"/>
<path d="M7730 5912 c0 -12 19 -26 26 -19 2 2 -2 10 -11 17 -9 8 -15 8 -15 2z"/>
<path d="M11210 5879 c-51 -33 -38 -39 21 -9 22 12 37 25 34 30 -4 6 -7 10 -8
9 -1 0 -22 -14 -47 -30z"/>
<path d="M11340 5902 c0 -4 18 -17 40 -30 42 -24 57 -15 18 10 -31 19 -58 29
-58 20z"/>
<path d="M13150 5900 c0 -5 4 -10 8 -10 5 0 18 -9 31 -21 22 -21 39 -20 26 0
-10 17 -65 43 -65 31z"/>
<path d="M13341 5893 c0 -6 -4 -20 -7 -30 -5 -14 -4 -15 5 -7 7 7 11 20 8 30
-3 11 -5 14 -6 7z"/>
<path d="M13370 5881 c0 -11 5 -23 10 -26 6 -4 10 5 10 19 0 14 -4 26 -10 26
-5 0 -10 -9 -10 -19z"/>
<path d="M13410 5885 c0 -8 4 -15 10 -15 5 0 7 7 4 15 -4 8 -8 15 -10 15 -2 0
-4 -7 -4 -15z"/>
<path d="M13440 5891 c0 -5 5 -13 10 -16 6 -3 10 -2 10 4 0 5 -4 13 -10 16 -5
3 -10 2 -10 -4z"/>
<path d="M5000 5711 c-8 -6 -11 -13 -7 -17 3 -4 13 -1 21 5 8 7 20 10 26 6 19
-12 10 -50 -20 -87 -33 -40 -31 -45 15 -42 44 3 45 3 45 15 0 7 -11 8 -30 4
-37 -8 -37 -2 -4 37 33 40 30 82 -6 86 -14 1 -32 -2 -40 -7z"/>
<path d="M1160 5675 c0 -10 -12 -15 -37 -17 l-38 -1 35 -4 c19 -2 41 -11 48
-20 11 -16 12 -15 12 0 0 10 8 17 21 17 11 0 18 4 14 10 -3 5 -12 7 -20 3 -9
-3 -15 1 -15 11 0 9 -4 16 -10 16 -5 0 -10 -7 -10 -15z"/>
<path d="M1270 5675 c0 -8 -8 -15 -17 -16 -11 0 -13 -3 -5 -6 6 -2 12 -11 12
-19 0 -19 16 -18 24 1 3 9 19 15 41 15 20 0 34 4 31 8 -3 5 -19 7 -36 4 -23
-3 -30 0 -30 12 0 9 -4 16 -10 16 -5 0 -10 -7 -10 -15z"/>
<path d="M2716 5649 c-4 -22 -10 -30 -21 -25 -13 4 -15 -8 -15 -77 0 -97 7
-112 45 -103 16 4 33 2 41 -5 12 -10 14 3 14 80 0 50 -1 94 -2 99 -2 4 -16 5
-32 4 -29 -4 -29 -3 -13 21 15 23 14 37 -3 37 -4 0 -10 -14 -14 -31z m54 -68
c0 -22 -5 -30 -22 -33 -39 -7 -58 2 -58 26 0 30 7 36 47 36 30 0 33 -3 33 -29z
m0 -86 c0 -33 -2 -35 -35 -35 -33 0 -35 2 -35 35 0 33 2 35 35 35 33 0 35 -2
35 -35z"/>
<path d="M2814 5620 c-23 -66 -23 -76 1 -29 15 28 19 30 63 27 l47 -3 -4 -75
c-5 -107 -4 -104 -42 -111 l-34 -5 28 -9 c43 -12 54 8 61 109 4 49 8 94 9 99
1 6 -20 9 -52 8 -53 -3 -54 -2 -47 23 12 50 -9 25 -30 -34z"/>
<path d="M3405 5664 c-11 -8 -25 -12 -32 -10 -7 3 -15 1 -18 -4 -4 -6 3 -10
15 -10 30 0 22 -32 -10 -41 -24 -7 -24 -7 -2 -8 28 -1 29 -28 2 -76 -23 -40
-24 -45 -11 -45 5 0 12 11 15 25 11 43 23 27 25 -32 2 -87 11 -77 11 12 0 62
3 76 12 67 24 -24 31 -12 8 13 -29 31 -20 41 25 28 19 -6 35 -7 35 -3 0 10
-37 24 -60 25 -25 0 -24 40 1 52 13 5 19 12 13 15 -5 4 -18 0 -29 -8z"/>
<path d="M3526 5665 c-3 -9 -20 -16 -43 -16 l-38 -2 40 -6 c38 -6 40 -8 37
-37 l-3 -32 55 1 c31 1 56 4 56 7 0 14 -14 19 -26 9 -16 -13 -56 -8 -62 9 -2
8 8 12 32 12 20 0 36 4 36 9 0 6 -16 7 -35 4 -22 -3 -35 -2 -35 5 0 6 19 13
43 15 l42 4 -42 1 c-33 2 -41 5 -37 17 4 8 2 15 -4 15 -5 0 -12 -7 -16 -15z"/>
<path d="M3786 5655 c-7 -27 -26 -35 -26 -11 0 8 -5 18 -11 22 -8 4 -9 0 -4
-15 5 -17 2 -21 -14 -21 -12 0 -21 -4 -21 -10 0 -5 14 -10 31 -10 30 0 31 -1
26 -34 -7 -43 -32 -97 -57 -124 -21 -22 -25 -32 -12 -32 4 0 20 20 35 45 l29
45 84 0 c92 0 100 -5 86 -55 -6 -22 -15 -30 -30 -29 -12 0 -19 -3 -16 -8 9
-15 43 -8 53 11 6 10 13 37 17 60 6 39 5 41 -17 39 -21 -3 -24 1 -21 25 2 22
-1 27 -15 25 -14 -2 -17 3 -15 25 3 26 2 27 -43 27 -42 0 -47 2 -42 20 3 11 2
22 -3 25 -4 3 -11 -6 -14 -20z m87 -49 c-2 -3 -3 -13 -3 -20 0 -11 -11 -15
-40 -13 -30 1 -40 5 -40 17 0 9 2 19 5 22 7 7 81 2 78 -6z m24 -69 c-4 -10
-23 -14 -67 -15 -51 0 -61 3 -58 16 2 13 18 18 58 22 59 6 76 0 67 -23z"/>
<path d="M3130 5660 c-73 -3 -99 -7 -62 -8 66 -2 68 -3 52 -33 -8 -14 -21 -19
-50 -19 l-40 0 0 -92 0 -93 120 0 120 0 0 95 0 95 -70 -3 c-38 -2 -70 -1 -70
3 0 3 5 15 10 26 9 16 22 19 75 19 37 0 65 4 65 10 0 6 -6 9 -12 8 -7 -1 -69
-5 -138 -8z m-35 -93 c4 -13 5 -48 3 -78 -3 -47 -6 -54 -25 -57 -13 -2 -23 0
-24 5 -5 48 -6 139 -3 145 11 17 44 7 49 -15z m83 1 c3 -15 -4 -18 -32 -18
-30 0 -36 4 -36 21 0 17 5 20 32 17 22 -2 34 -9 36 -20z m69 -61 l2 -78 -27 3
c-26 3 -27 6 -30 67 -4 78 1 93 30 89 21 -3 23 -8 25 -81z m-67 10 c0 -20 -5
-24 -35 -25 -28 -1 -35 2 -35 17 0 24 9 31 42 31 23 0 28 -4 28 -23z m0 -62
c0 -22 -4 -25 -35 -25 -31 0 -35 3 -35 25 0 22 4 25 35 25 31 0 35 -3 35 -25z"/>
<path d="M1667 5578 c-21 -44 -37 -90 -35 -102 3 -19 9 -21 70 -20 38 0 71 4
75 7 3 4 -8 42 -25 85 -18 42 -32 82 -32 89 0 34 -19 13 -53 -59z m62 -37 c11
-32 21 -61 21 -65 0 -3 -25 -6 -55 -6 -30 0 -55 4 -55 10 0 16 52 120 60 120
4 0 17 -26 29 -59z"/>
<path d="M1990 5651 c0 -4 -10 -19 -23 -32 -12 -13 -43 -51 -67 -84 -25 -33
-48 -61 -52 -63 -15 -7 -8 -22 11 -22 13 0 20 10 25 31 4 19 13 33 26 36 11 3
17 9 14 14 -6 10 36 70 46 64 13 -8 -2 -64 -19 -68 -14 -4 -14 -5 2 -6 20 -1
20 -2 7 -35 -8 -23 -7 -26 13 -26 21 0 22 4 23 100 0 55 -1 100 -3 100 -1 0
-3 -4 -3 -9z"/>
<path d="M2096 5645 c8 -20 -25 -152 -42 -169 -11 -11 -8 -15 18 -20 17 -3 49
-6 73 -6 35 0 44 4 54 26 14 32 7 44 -9 15 -8 -17 -20 -21 -57 -21 l-46 0 6
37 c8 47 19 58 46 44 19 -10 22 -9 31 14 14 36 13 39 -6 21 -21 -22 -58 -21
-50 0 3 9 9 27 12 40 5 18 13 24 34 24 16 0 36 -7 44 -16 15 -14 16 -14 16 5
0 19 -6 21 -65 21 -53 0 -63 -3 -59 -15z"/>
<path d="M2302 5646 c-35 -19 -62 -66 -62 -109 0 -52 35 -87 87 -87 49 0 56 6
80 61 l20 46 -23 -5 c-13 -2 -22 -8 -19 -12 3 -4 0 -22 -6 -39 -13 -38 -49
-50 -83 -28 -46 31 -38 124 15 161 34 23 89 21 96 -4 5 -20 23 -28 23 -11 0 5
3 16 6 25 5 14 -3 16 -52 16 -33 -1 -69 -6 -82 -14z"/>
<path d="M5729 5650 c-4 -33 5 -176 12 -178 16 -6 10 -22 -18 -48 -14 -13 -23
-27 -20 -30 5 -5 25 13 67 64 6 6 24 12 40 12 l30 0 0 93 0 93 -55 -1 c-30 0
-55 -2 -56 -5z m91 -30 c0 -17 -7 -20 -40 -20 -33 0 -40 3 -40 20 0 17 7 20
40 20 33 0 40 -3 40 -20z m0 -55 c0 -22 -4 -25 -40 -25 -32 0 -40 4 -40 18 0
26 9 32 47 32 29 0 33 -3 33 -25z m0 -55 c0 -17 -7 -20 -40 -20 -33 0 -40 3
-40 20 0 17 7 20 40 20 33 0 40 -3 40 -20z"/>
<path d="M5950 5540 l0 -120 -27 -1 -28 0 24 -10 c46 -18 50 -9 53 125 2 96 0
126 -9 126 -10 0 -13 -31 -13 -120z"/>
<path d="M7379 5636 c-7 -14 -18 -26 -26 -26 -10 0 -13 -22 -13 -92 l0 -93 48
0 47 0 -3 58 c-3 36 0 57 7 57 6 0 17 14 26 30 13 25 22 30 53 32 l37 1 -33 4
c-30 4 -33 7 -28 29 13 50 -13 22 -29 -31 -17 -59 -42 -78 -31 -24 5 29 4 31
-18 25 -30 -7 -38 1 -25 26 6 11 8 22 5 25 -3 3 -11 -6 -17 -21z m41 -76 c0
-28 -3 -30 -35 -30 -30 0 -35 3 -35 23 0 31 7 37 42 37 24 0 28 -4 28 -30z
m-2 -82 c3 -38 3 -38 -33 -38 -37 0 -37 0 -31 38 3 20 5 38 6 40 0 2 12 2 28
0 23 -3 27 -8 30 -40z"/>
<path d="M8030 5644 c-20 -7 -27 -13 -16 -13 16 -1 17 -6 11 -48 -3 -27 -15
-65 -26 -85 -11 -22 -14 -38 -8 -38 6 0 13 9 16 20 11 41 23 18 23 -42 0 -84
8 -69 11 20 2 72 9 87 28 55 10 -17 10 -17 11 -1 0 10 -8 22 -17 27 -17 8 -19
26 -14 85 0 8 9 16 19 18 9 2 13 6 7 9 -5 3 -26 0 -45 -7z"/>
<path d="M8163 5646 c-4 -8 -24 -16 -43 -19 l-35 -4 38 -1 c32 -2 37 -5 37
-27 0 -22 -4 -25 -34 -25 -19 0 -38 5 -41 10 -3 6 -12 10 -18 10 -7 0 -3 -7 7
-15 15 -11 44 -15 110 -13 52 1 71 3 44 5 -56 5 -65 23 -12 23 19 0 33 4 30 8
-3 5 -19 7 -36 4 -18 -2 -30 0 -30 7 0 6 17 11 40 11 22 0 40 5 40 10 0 6 -16
8 -40 4 -35 -6 -39 -4 -34 10 8 20 -12 21 -23 2z"/>
<path d="M8424 5635 c-7 -30 -20 -32 -29 -5 -3 11 -11 20 -18 20 -8 0 -8 -3 1
-12 18 -18 15 -26 -10 -31 -14 -3 -9 -5 15 -6 20 0 37 -3 37 -4 0 -21 -45
-125 -66 -152 -14 -19 -23 -35 -19 -35 11 0 43 39 50 62 6 17 15 18 98 16 100
-3 96 0 81 -66 -4 -21 -9 -23 -37 -17 -35 8 -28 -8 9 -19 27 -8 48 22 58 82 6
42 6 42 -20 36 -25 -6 -26 -5 -19 26 5 25 4 31 -6 28 -8 -3 -14 -15 -14 -29 0
-23 -4 -24 -63 -27 -57 -3 -63 -1 -60 15 2 10 13 19 26 21 27 4 29 18 2 25
-31 8 -14 37 24 38 l31 2 -28 4 c-23 4 -28 9 -24 24 3 10 1 21 -4 24 -4 3 -11
-6 -15 -20z"/>
<path d="M4290 5613 c-32 -48 -59 -96 -60 -105 0 -5 18 -8 40 -8 38 0 40 -2
40 -30 0 -21 5 -30 16 -30 12 0 15 6 10 25 -5 18 -2 27 9 31 19 8 20 24 0 24
-12 0 -15 14 -15 65 0 36 -3 65 -7 65 -5 0 -19 -17 -33 -37z m23 -85 c-5 -9
-63 -11 -63 -3 0 3 12 24 27 47 l28 41 6 -39 c4 -21 5 -42 2 -46z"/>
<path d="M4416 5635 c-20 -21 -20 -30 1 -66 14 -24 15 -32 5 -38 -20 -12 -24
-58 -6 -75 18 -19 65 -21 82 -4 17 17 15 58 -5 80 -14 16 -15 22 -5 36 22 31
25 44 15 61 -14 22 -67 26 -87 6z m59 -30 c0 -39 -31 -48 -41 -11 -7 30 2 48
24 44 11 -2 17 -13 17 -33z m-9 -79 c8 -8 15 -25 16 -38 3 -18 -2 -24 -24 -26
-26 -3 -28 -1 -28 31 0 47 11 57 36 33z"/>
<path d="M7660 5638 c0 -6 23 -8 55 -6 44 2 55 0 55 -12 0 -31 -17 -43 -54
-38 l-36 4 0 -96 0 -95 115 0 115 0 0 88 c0 48 1 90 3 94 1 3 -30 5 -70 4
l-72 -2 12 25 c11 23 18 26 67 26 30 0 61 4 68 9 8 5 -43 8 -122 9 -83 0 -136
-4 -136 -10z m80 -142 c0 -58 -3 -75 -16 -80 -28 -11 -34 4 -34 80 0 72 1 74
25 74 24 0 25 -2 25 -74z m86 -3 l-1 -77 -32 -2 c-29 -1 -33 2 -33 22 0 21 10
29 33 25 4 0 7 4 7 9 0 6 -9 10 -20 10 -13 0 -20 7 -20 20 0 15 7 20 28 21
l27 2 -27 4 c-20 3 -28 10 -28 24 0 15 7 19 34 19 l34 0 -2 -77z m69 -3 c0
-73 -1 -75 -25 -75 -24 0 -25 2 -28 78 l-3 78 28 -3 c28 -3 28 -3 28 -78z"/>
<path d="M5891 5548 c2 -102 6 -94 11 20 2 39 0 72 -4 72 -4 0 -7 -42 -7 -92z"/>
<path d="M6515 5630 c-62 -25 -88 -131 -45 -178 25 -27 90 -30 114 -6 23 22
20 25 -11 8 -40 -20 -59 -17 -82 12 -25 32 -27 64 -4 107 21 42 41 56 81 57
28 0 33 -4 38 -30 8 -37 24 -29 24 11 0 28 -1 29 -47 28 -27 0 -57 -4 -68 -9z"/>
<path d="M6700 5613 c0 -35 -35 -150 -51 -170 -9 -11 -2 -13 41 -13 65 0 114
23 140 65 44 71 9 134 -78 143 l-52 5 0 -30z m108 -11 c28 -36 8 -122 -35
-141 -33 -15 -83 -14 -83 2 1 18 34 140 42 153 10 15 60 6 76 -14z"/>
<path d="M6920 5608 c0 -42 -37 -160 -53 -170 -7 -5 1 -8 20 -8 25 0 31 4 27
15 -4 8 -3 31 0 50 7 34 8 35 56 35 28 0 50 -2 50 -4 0 -17 -26 -74 -38 -83
-13 -11 -11 -13 17 -13 24 0 32 4 28 14 -3 7 3 44 14 82 10 38 19 72 19 76 0
4 7 13 15 22 13 13 12 15 -14 14 -20 -1 -28 -5 -24 -14 3 -7 0 -29 -7 -48 -11
-33 -13 -35 -53 -33 -40 2 -42 3 -39 32 2 17 11 38 19 48 15 16 14 17 -10 17
-24 0 -27 -4 -27 -32z"/>
<path d="M6312 5588 c-48 -101 -62 -139 -57 -148 6 -10 153 -11 160 0 5 8 -61
169 -74 183 -5 5 -18 -11 -29 -35z m46 -63 c12 -31 22 -60 22 -65 0 -6 -25
-10 -55 -10 -30 0 -55 4 -55 9 0 15 51 121 58 121 4 0 17 -25 30 -55z"/>
<path d="M1193 5598 c-8 -19 -16 -22 -57 -19 -35 2 -46 -1 -41 -9 5 -8 20 -9
41 -5 29 5 34 3 34 -13 0 -19 -25 -50 -61 -76 -13 -9 -20 -18 -17 -21 3 -3 20
6 37 20 17 15 32 23 33 18 0 -4 2 -12 3 -18 2 -5 3 -20 4 -32 1 -22 5 -23 81
-23 l80 0 0 50 0 50 -75 0 c-41 0 -75 3 -75 6 0 3 4 14 10 24 9 16 19 17 90
13 59 -4 80 -3 80 6 0 7 -8 11 -17 10 -10 -1 -44 -1 -77 0 -47 1 -57 4 -53 16
10 24 -9 26 -20 3z m117 -127 c0 -35 -4 -37 -75 -33 -53 4 -55 5 -55 33 l0 29
65 0 65 0 0 -29z"/>
<path d="M3473 5613 c9 -2 23 -2 30 0 6 3 -1 5 -18 5 -16 0 -22 -2 -12 -5z"/>
<path d="M7575 5614 c-6 -2 -9 -36 -7 -83 4 -93 -7 -121 -46 -121 -21 0 -24
-2 -12 -10 25 -16 50 -11 60 13 11 26 29 197 21 201 -4 2 -10 2 -16 0z"/>
<path d="M8505 5600 c10 -16 -4 -48 -23 -53 -12 -3 -10 -5 6 -6 16 -1 25 7 32
25 14 35 13 44 -6 44 -8 0 -12 -5 -9 -10z"/>
<path d="M8113 5593 c9 -2 23 -2 30 0 6 3 -1 5 -18 5 -16 0 -22 -2 -12 -5z"/>
<path d="M4614 5555 c-18 -28 -13 -85 11 -105 21 -17 66 -8 83 18 14 22 14 22
-13 8 -35 -19 -61 -7 -68 31 -10 53 30 84 59 46 14 -20 29 -12 21 12 -11 26
-74 20 -93 -10z"/>
<path d="M4745 5508 c0 -66 1 -68 25 -68 19 0 21 3 12 12 -20 20 -15 96 7 107
30 16 44 -10 39 -69 -5 -48 -4 -50 20 -50 20 0 23 3 14 12 -7 7 -12 31 -12 55
0 33 5 45 21 54 31 16 41 -1 37 -65 -3 -53 -2 -56 21 -56 18 0 21 3 13 13 -6
7 -12 37 -14 67 -3 49 -6 55 -26 58 -13 2 -29 -2 -37 -8 -8 -6 -16 -7 -19 -2
-3 5 -27 9 -53 9 l-48 -1 0 -68z"/>
<path d="M5370 5556 c0 -8 5 -18 10 -21 8 -5 7 -12 -2 -23 -11 -13 -11 -14 2
-10 18 6 20 60 3 66 -7 2 -13 -3 -13 -12z"/>
<path d="M2851 5533 c13 -16 25 -30 27 -32 1 -2 4 -2 7 1 7 7 -34 58 -47 58
-7 0 -1 -12 13 -27z"/>
<path d="M3470 5511 c0 -37 4 -50 18 -56 14 -5 11 -10 -18 -26 -34 -19 -34
-20 -6 -14 16 3 45 17 65 31 l36 25 -35 -3 c-32 -3 -35 0 -38 25 -3 22 1 27
20 28 23 1 23 1 -2 8 -25 7 -25 8 -3 15 12 4 32 4 46 1 20 -6 24 -12 23 -47 0
-25 4 -43 12 -46 8 -2 12 12 12 52 l0 56 -65 0 -65 0 0 -49z"/>
<path d="M7505 5510 c9 -17 20 -28 26 -24 6 4 2 15 -12 30 -30 32 -33 30 -14
-6z"/>
<path d="M8110 5484 c0 -34 4 -53 10 -49 6 3 10 19 10 35 0 26 4 29 38 33 l37
4 -37 1 c-53 3 -48 22 6 22 40 0 44 -2 44 -24 0 -22 -6 -25 -42 -29 l-41 -4
43 -1 c28 -1 42 -6 40 -14 -2 -7 2 -15 7 -18 6 -3 11 17 13 48 l3 52 -65 0
-66 0 0 -56z"/>
<path d="M3518 5493 c6 -2 18 -2 25 0 6 3 1 5 -13 5 -14 0 -19 -2 -12 -5z"/>
<path d="M3844 5477 c3 -10 6 -23 6 -28 0 -5 5 -9 10 -9 14 0 12 13 -6 36 -14
17 -15 17 -10 1z"/>
<path d="M3890 5481 c0 -6 5 -13 10 -16 6 -3 10 1 10 9 0 9 -4 16 -10 16 -5 0
-10 -4 -10 -9z"/>
<path d="M3800 5458 c0 -16 5 -28 10 -28 13 0 13 20 0 40 -8 12 -10 9 -10 -12z"/>
<path d="M3752 5450 c-14 -23 -15 -30 -3 -30 8 0 24 41 18 47 -2 1 -8 -7 -15
-17z"/>
<path d="M8483 5456 c4 -10 7 -22 7 -27 0 -5 4 -9 9 -9 12 0 2 38 -12 47 -7 4
-8 0 -4 -11z"/>
<path d="M8530 5461 c0 -5 5 -13 10 -16 6 -3 10 -2 10 4 0 5 -4 13 -10 16 -5
3 -10 2 -10 -4z"/>
<path d="M8392 5435 c-7 -15 -11 -30 -8 -32 7 -7 28 36 24 49 -2 6 -9 -2 -16
-17z"/>
<path d="M8438 5454 c-3 -5 -2 -18 2 -28 3 -11 9 -15 12 -10 3 5 2 18 -2 28
-3 11 -9 15 -12 10z"/>
<path d="M5819 5433 c12 -24 31 -39 31 -25 0 5 -10 17 -21 28 -22 19 -22 19
-10 -3z"/>
<path d="M8136 5435 c-3 -8 -17 -20 -31 -25 -14 -5 -25 -14 -25 -19 0 -12 29
-3 50 15 8 7 29 20 45 28 l30 16 -31 0 c-19 0 -34 -6 -38 -15z"/>
<path d="M3590 5421 c19 -10 37 -17 39 -15 8 8 -14 23 -44 29 l-30 6 35 -20z"/>
<path d="M8220 5410 c27 -21 40 -25 40 -11 0 5 -15 14 -32 20 l-33 11 25 -20z"/>
<path d="M7698 4861 c12 -7 9 -24 -13 -92 -14 -46 -28 -88 -31 -94 -8 -20 117
-5 147 18 52 38 64 113 24 152 -20 21 -34 25 -82 25 -36 0 -53 -4 -45 -9z
m107 -26 c29 -28 31 -45 8 -92 -17 -36 -61 -63 -104 -63 -17 0 -20 4 -16 23
24 95 36 137 42 146 11 19 45 12 70 -14z"/>
<path d="M11029 4863 c-1 -5 -1 -11 0 -15 0 -6 -39 -132 -54 -169 -5 -14 4
-16 64 -18 61 -2 71 1 80 18 14 25 14 41 1 41 -5 0 -10 -7 -10 -15 0 -8 -12
-17 -27 -20 -82 -18 -76 -20 -68 22 4 21 9 41 11 45 9 14 43 8 53 -9 9 -16 10
-16 11 4 0 12 3 30 7 40 6 17 5 17 -16 -1 -15 -14 -25 -16 -32 -9 -14 14 -1
61 21 73 20 11 60 2 60 -14 0 -6 4 -4 9 4 6 8 7 18 5 22 -7 10 -114 11 -115 1z"/>
<path d="M3650 4835 c-11 -13 -8 -14 19 -9 28 6 31 4 31 -17 0 -28 -35 -89
-50 -89 -6 0 -8 -4 -5 -10 3 -5 21 -10 40 -10 19 0 37 5 40 10 4 6 -5 10 -19
10 -31 0 -32 4 -6 37 11 14 20 35 20 47 0 42 -45 61 -70 31z"/>
<path d="M13218 4744 c-63 -84 -74 -104 -58 -104 13 0 20 7 20 19 0 22 35 51
62 51 21 0 25 -44 6 -56 -8 -5 -6 -10 8 -14 30 -11 45 -1 34 21 -7 12 -7 47
-1 101 5 46 9 84 8 85 -1 1 -37 -45 -79 -103z m52 29 c-1 -29 -15 -53 -31 -53
-23 0 -24 5 -1 35 17 24 32 32 32 18z"/>
<path d="M2015 4707 c-19 -43 -35 -81 -35 -86 0 -5 -7 -17 -16 -25 -14 -15
-14 -16 4 -16 14 0 21 9 26 30 5 28 9 30 50 30 36 0 46 -4 51 -20 3 -11 3 -24
0 -30 -4 -6 7 -10 26 -10 30 0 31 1 16 18 -8 9 -28 51 -43 92 -15 41 -31 79
-35 84 -5 5 -24 -25 -44 -67z m53 -19 c11 -27 10 -28 -18 -28 -33 0 -35 5 -20
46 11 29 19 25 38 -18z"/>
<path d="M2910 4753 c-38 -48 -10 -119 42 -109 l28 6 -15 -30 c-8 -16 -24 -31
-35 -35 -11 -3 -20 -11 -20 -16 0 -34 83 40 100 90 29 88 -48 160 -100 94z
m64 -2 c23 -25 18 -84 -7 -89 -27 -5 -47 17 -47 52 0 29 15 56 30 56 4 0 15
-9 24 -19z"/>
<path d="M3072 4759 c-15 -24 -15 -44 0 -68 9 -15 8 -24 -5 -45 -22 -32 -21
-38 3 -64 26 -28 54 -28 81 -1 22 22 19 50 -10 82 -14 17 -14 20 0 30 40 31
24 79 -28 83 -20 1 -34 -5 -41 -17z m66 -33 c-2 -13 -10 -21 -23 -21 -23 0
-32 30 -14 51 16 19 41 -1 37 -30z m-14 -85 c25 -27 17 -56 -14 -56 -19 0 -26
6 -28 23 -4 27 4 52 16 52 5 0 17 -9 26 -19z"/>
<path d="M3270 4690 c-11 -11 -20 -33 -20 -49 0 -34 34 -81 59 -81 21 0 51 30
51 51 -1 10 -3 9 -11 -3 -5 -10 -20 -18 -33 -18 -41 0 -58 79 -22 102 18 12
26 9 34 -12 5 -14 11 -17 22 -9 13 8 12 11 -4 24 -27 20 -52 19 -76 -5z"/>
<path d="M3420 4701 c-28 -4 -40 -9 -32 -14 15 -10 16 -81 2 -108 -9 -16 -7
-19 14 -19 22 0 24 3 19 39 -8 56 3 91 27 91 24 0 35 -36 26 -90 -6 -38 -5
-40 21 -40 21 0 24 3 15 12 -17 17 -15 93 3 108 27 23 45 4 45 -48 0 -26 -5
-53 -12 -60 -9 -9 -5 -12 20 -12 18 0 32 5 32 10 0 6 -4 10 -10 10 -5 0 -10
22 -10 49 0 27 -3 56 -6 65 -7 18 -35 21 -51 5 -8 -8 -17 -8 -31 0 -11 6 -22
10 -24 9 -2 0 -23 -4 -48 -7z"/>
<path d="M4014 4675 c-10 -25 4 -45 30 -45 26 0 36 14 28 43 -5 21 -50 23 -58
2z m44 -18 c2 -12 -3 -17 -17 -17 -12 0 -21 6 -21 13 0 31 32 34 38 4z"/>
<path d="M2196 4601 c-4 -7 -5 -15 -2 -18 9 -9 19 4 14 18 -4 11 -6 11 -12 0z"/>
<path d="M7794 4573 c-9 -15 -27 -44 -39 -63 -21 -34 -76 -126 -157 -260 -21
-36 -43 -72 -48 -80 -22 -34 -106 -177 -120 -203 -8 -15 -46 -80 -85 -145 -38
-64 -74 -125 -80 -134 -5 -9 -41 -68 -80 -130 -38 -61 -72 -117 -74 -123 -2
-5 -18 -32 -36 -60 -40 -62 -160 -268 -160 -275 0 -3 -22 -41 -49 -85 -27 -44
-74 -120 -104 -170 -31 -49 -65 -106 -78 -125 -20 -31 -88 -145 -266 -443 -29
-49 -72 -118 -95 -153 -24 -36 -43 -68 -43 -70 0 -4 -99 -166 -149 -244 -9
-14 -20 -33 -26 -42 -12 -20 -129 -212 -163 -266 -13 -20 -40 -64 -62 -97
-117 -183 -344 -564 -339 -569 2 -2 776 -7 1719 -11 943 -4 1875 -9 2070 -10
1160 -8 4700 -17 4715 -11 15 5 10 15 -31 64 -27 31 -51 59 -55 62 -5 4 -121
153 -237 304 -39 50 -162 207 -190 241 -10 11 -33 40 -52 65 -19 25 -37 47
-40 50 -3 3 -41 50 -85 105 -44 55 -87 109 -96 120 -40 49 -106 133 -131 167
-15 20 -34 42 -41 50 -11 11 -98 122 -119 153 -4 5 -25 31 -45 57 -21 25 -65
81 -98 124 -33 42 -65 82 -71 88 -6 6 -31 39 -56 73 -25 34 -53 70 -62 79 -9
8 -29 32 -44 52 -15 20 -35 46 -44 57 -9 11 -41 50 -70 86 -29 36 -90 111
-135 167 -52 63 -83 109 -83 124 1 13 23 59 50 103 81 133 114 187 125 204 45
73 202 326 210 339 12 21 91 151 151 250 24 41 44 76 44 80 0 3 6 13 14 21 7
9 28 44 46 79 18 34 36 64 40 67 5 3 15 18 23 33 8 15 51 88 95 162 45 74 82
138 82 142 0 4 -156 8 -347 8 -192 0 -762 2 -1268 5 -506 3 -1549 8 -2317 11
l-1396 6 -18 -29z m2506 -8 c223 -2 487 -5 587 -5 l181 0 158 -201 c86 -110
162 -206 168 -212 6 -7 31 -38 56 -70 56 -73 77 -100 275 -344 88 -108 173
-215 189 -238 16 -22 32 -42 36 -45 3 -3 56 -70 117 -150 61 -80 120 -156 132
-169 12 -13 21 -29 21 -36 0 -7 -150 -62 -347 -128 -387 -129 -358 -119 -543
-183 -74 -25 -169 -56 -210 -69 -141 -44 -655 -215 -675 -224 -32 -14 -326
-112 -370 -122 -22 -6 -112 -34 -200 -64 -88 -30 -167 -55 -175 -55 -8 0 -30
22 -48 48 -17 26 -48 65 -68 87 -20 22 -48 56 -63 75 -14 19 -57 74 -96 121
-38 47 -84 103 -101 125 -18 21 -52 63 -75 93 -24 29 -53 66 -64 80 -11 15
-55 70 -97 123 -43 52 -78 99 -78 103 0 6 -55 81 -70 95 -7 6 -156 191 -193
239 -15 20 -36 45 -45 56 -9 11 -53 65 -97 120 -44 55 -85 107 -92 115 -7 8
-50 63 -95 121 -91 115 -252 318 -281 352 -27 32 -95 117 -189 237 -45 58 -88
109 -95 113 -7 5 -11 13 -7 18 5 9 1447 6 2454 -6z m-2445 -37 c15 -18 53 -67
84 -108 31 -41 61 -79 67 -85 6 -5 38 -43 70 -84 32 -41 73 -91 89 -111 17
-21 51 -65 76 -99 26 -33 67 -84 91 -113 24 -29 51 -62 59 -74 7 -12 77 -99
154 -194 77 -95 160 -199 185 -231 25 -31 88 -111 141 -176 53 -65 104 -131
115 -148 19 -31 133 -176 145 -185 4 -3 18 -22 32 -42 13 -21 43 -59 65 -85
44 -53 344 -426 405 -504 l38 -49 -28 -11 c-15 -6 -136 -47 -268 -90 -132 -44
-249 -84 -260 -89 -11 -4 -85 -29 -165 -55 -166 -53 -1295 -424 -1325 -435
-11 -5 -49 -18 -85 -30 -36 -12 -79 -29 -97 -36 -17 -8 -36 -14 -43 -14 -13 0
-152 -46 -185 -60 -11 -5 -103 -37 -205 -70 -102 -33 -194 -64 -205 -69 -11
-5 -141 -48 -290 -96 -356 -116 -446 -145 -470 -155 -63 -24 -450 -148 -453
-145 -3 3 18 41 55 100 7 11 20 34 29 50 9 17 48 78 85 138 38 59 69 112 69
117 0 5 6 15 13 22 7 7 32 45 56 83 23 39 60 97 81 130 21 33 49 78 61 99 12
22 40 69 64 105 23 36 67 107 97 156 115 190 203 332 234 381 18 27 40 67 50
87 10 20 21 37 26 37 4 0 8 6 8 13 0 7 16 36 35 65 19 29 40 63 47 77 20 38
149 248 163 265 7 8 21 31 32 50 10 19 39 68 63 108 25 40 54 89 65 110 30 55
111 195 169 292 28 47 56 94 63 105 17 30 241 401 283 470 20 33 70 116 110
185 40 69 81 136 89 150 9 14 18 30 21 35 7 15 99 163 128 208 14 20 28 37 32
37 4 0 19 -15 35 -32z m5245 11 c0 -10 -4 -20 -9 -23 -5 -4 -37 -54 -72 -114
-34 -59 -76 -129 -94 -157 -17 -27 -60 -99 -95 -160 -34 -60 -76 -129 -91
-152 -16 -23 -29 -44 -29 -46 0 -3 -22 -41 -50 -84 -27 -43 -66 -105 -85 -138
-20 -33 -54 -87 -76 -120 -21 -33 -45 -71 -52 -85 -10 -20 -114 -192 -194
-319 l-15 -24 -39 44 c-21 24 -39 47 -39 51 0 4 -6 13 -12 20 -7 7 -35 42 -63
78 -60 79 -62 81 -117 150 -24 30 -54 71 -68 90 -13 19 -27 37 -30 40 -3 3
-35 41 -70 85 -36 44 -72 89 -81 100 -9 11 -47 58 -85 105 -37 47 -70 87 -73
90 -4 3 -25 30 -48 61 -23 31 -47 62 -55 70 -7 8 -63 77 -123 153 -61 77 -138
175 -172 218 -35 43 -63 81 -63 84 0 3 450 4 1000 3 959 -1 1000 -2 1000 -20z
m-721 -1649 c72 -91 142 -178 154 -194 12 -16 48 -61 80 -100 76 -92 74 -89
167 -209 44 -56 97 -122 118 -147 20 -24 57 -72 82 -105 25 -34 67 -88 93
-120 57 -72 262 -327 355 -444 114 -142 140 -175 170 -211 16 -19 72 -91 123
-160 51 -69 98 -130 104 -136 5 -6 24 -28 40 -49 17 -21 58 -71 93 -111 34
-40 62 -76 62 -79 0 -7 -1642 -4 -2502 4 l-648 6 83 125 c45 69 98 152 117
183 19 32 47 77 61 100 14 23 61 101 104 172 43 72 88 146 100 165 34 52 217
352 229 375 18 31 50 79 63 93 7 7 13 17 13 22 0 4 21 41 46 82 25 40 58 93
73 117 14 24 43 69 63 100 21 31 38 59 38 63 0 4 32 58 71 120 39 62 75 122
80 133 10 22 174 294 186 310 5 6 14 23 21 38 7 16 16 27 21 25 5 -2 68 -77
140 -168z m-197 118 c-16 -24 -32 -50 -35 -58 -4 -8 -17 -31 -30 -51 -12 -21
-69 -115 -126 -210 -58 -96 -116 -193 -130 -216 -14 -23 -39 -65 -56 -93 -16
-28 -70 -115 -119 -193 -49 -78 -176 -286 -284 -462 -107 -176 -205 -336 -217
-355 -12 -19 -59 -96 -105 -170 -45 -74 -114 -182 -151 -239 -38 -57 -69 -107
-69 -112 0 -5 -7 -9 -15 -9 -8 0 -15 3 -15 8 0 4 -12 21 -28 37 -15 17 -40 48
-57 70 -16 22 -35 46 -42 53 -7 8 -26 30 -41 50 -15 21 -35 46 -46 57 -10 11
-30 36 -45 55 -36 48 -184 234 -191 240 -3 3 -21 25 -40 50 -19 25 -37 47 -40
50 -3 3 -28 34 -55 69 -54 70 -106 130 -145 171 -21 21 -68 75 -158 185 -10
11 -59 74 -111 140 -52 66 -101 128 -109 137 -12 15 -13 18 -1 22 119 35 974
316 1054 347 11 4 133 44 270 89 138 44 286 94 330 109 44 16 157 54 250 85
94 30 253 84 355 120 102 35 195 64 208 65 l23 1 -29 -42z m-2445 -847 c26
-32 77 -96 112 -141 36 -45 69 -87 75 -94 6 -6 30 -36 53 -66 23 -30 66 -80
95 -111 74 -77 261 -303 363 -438 11 -14 40 -51 65 -82 25 -30 59 -73 75 -94
25 -33 88 -110 211 -259 13 -17 24 -34 24 -39 0 -8 -2490 -1 -2730 8 -63 3
-635 5 -1270 6 -635 1 -1164 5 -1175 9 -16 6 -7 11 40 25 33 10 83 26 110 35
80 28 115 40 210 70 50 15 302 99 560 186 259 86 524 175 590 197 66 21 156
52 200 67 44 16 107 37 140 48 79 25 1267 420 1420 472 66 23 149 50 185 61
36 11 182 60 325 108 143 49 263 89 267 90 3 1 28 -25 55 -58z"/>
<path d="M9745 2572 c8 -20 -35 -165 -53 -179 -14 -11 -12 -13 14 -13 26 0 29
3 30 33 1 58 9 67 59 67 l46 0 -7 -37 c-3 -21 -13 -44 -22 -50 -14 -11 -12
-13 14 -13 26 0 29 3 28 32 -1 34 35 151 48 156 16 7 -4 22 -28 22 -15 0 -23
-4 -19 -10 4 -6 4 -29 0 -50 -7 -40 -7 -40 -52 -40 l-45 0 6 33 c3 17 13 37
21 43 23 17 18 25 -15 22 -21 -2 -29 -7 -25 -16z"/>
<path d="M3808 3973 c-10 -3 -18 -9 -18 -15 0 -5 7 -8 15 -4 21 8 45 -3 45
-20 0 -8 -7 -26 -16 -39 -10 -15 -12 -25 -6 -25 15 0 32 34 32 64 0 27 -24 45
-52 39z"/>
<path d="M1976 3809 l2 -103 50 -3 c77 -4 127 44 87 83 -11 11 -13 27 -9 53 8
47 -8 61 -78 68 l-53 5 1 -103z m104 65 c16 -18 3 -54 -20 -54 -31 0 -32 -17
-1 -23 33 -7 49 -40 31 -62 -7 -9 -30 -15 -51 -15 -39 0 -39 0 -39 40 0 24 5
40 12 40 9 0 9 3 0 12 -19 19 -15 76 6 80 24 6 49 -2 62 -18z"/>
<path d="M2911 3886 c-10 -12 -7 -14 21 -13 27 2 34 -2 36 -20 2 -13 -5 -27
-20 -37 l-23 -16 22 -6 c25 -7 36 -40 22 -67 -9 -15 -17 -18 -47 -12 -35 6
-36 5 -21 -10 14 -15 22 -15 52 -6 44 15 58 57 32 97 -12 19 -14 29 -5 39 6 8
10 24 8 37 -2 17 -10 24 -34 26 -18 2 -36 -3 -43 -12z"/>
<path d="M3088 3851 c-20 -26 -40 -60 -43 -74 -7 -26 -6 -27 34 -27 37 0 41
-2 41 -25 0 -14 5 -25 10 -25 6 0 10 11 10 25 0 16 6 25 15 25 8 0 15 5 15 10
0 6 -7 10 -15 10 -12 0 -15 14 -15 65 0 36 -3 65 -7 65 -5 -1 -25 -22 -45 -49z
m32 -36 c0 -43 -1 -45 -30 -45 -35 0 -37 8 -10 43 11 14 20 30 20 36 0 6 5 11
10 11 6 0 10 -20 10 -45z"/>
<path d="M3217 3893 c-4 -3 -7 -12 -7 -20 0 -10 4 -11 19 -2 10 7 26 9 35 6
22 -9 20 -44 -4 -59 -25 -16 -25 -24 1 -31 16 -4 20 -12 17 -39 -3 -31 -5 -33
-41 -32 -24 1 -36 -3 -34 -10 6 -18 46 -19 73 -1 23 15 24 19 19 96 -3 45 -8
85 -11 90 -6 10 -57 12 -67 2z"/>
<path d="M3797 3853 c-16 -15 -4 -23 33 -23 22 0 40 5 40 11 0 6 -9 8 -20 4
-12 -4 -27 -2 -34 4 -7 6 -16 8 -19 4z"/>
<path d="M3440 3830 c-57 -14 -60 -122 -4 -136 26 -7 74 18 74 38 0 9 -3 9
-12 0 -7 -7 -25 -12 -40 -12 -30 0 -43 26 -36 71 4 29 37 38 54 14 14 -19 36
-12 28 9 -7 18 -32 24 -64 16z"/>
<path d="M3572 3833 c-23 -2 -40 -8 -37 -13 3 -6 6 -37 6 -70 1 -49 4 -60 17
-60 14 0 16 9 14 60 -3 48 -1 61 12 66 38 15 62 -57 36 -107 -9 -16 -7 -19 13
-19 22 0 23 3 19 59 -4 53 -2 60 17 66 11 3 25 3 31 0 14 -9 13 -98 -2 -113
-9 -9 -6 -12 14 -12 24 0 25 2 21 48 -8 94 -9 95 -53 88 -22 -3 -41 -2 -45 4
-3 5 -9 9 -13 8 -4 -1 -26 -3 -50 -5z"/>
<path d="M4173 3813 c-7 -2 -13 -15 -13 -28 0 -37 53 -42 63 -5 8 30 -18 47
-50 33z m34 -18 c7 -20 -2 -29 -21 -22 -9 4 -13 13 -10 22 8 19 23 19 31 0z"/>
<path d="M2180 3715 c0 -8 5 -15 10 -15 6 0 10 7 10 15 0 8 -4 15 -10 15 -5 0
-10 -7 -10 -15z"/>
<path d="M12523 3265 c-49 -21 -75 -69 -69 -128 7 -64 26 -81 88 -80 52 1 68
12 68 48 0 11 7 31 16 43 14 21 14 22 -9 22 -20 0 -24 -5 -25 -36 -2 -45 -17
-64 -51 -64 -45 0 -64 21 -65 73 -1 50 22 91 66 116 35 20 76 8 85 -27 l6 -27
8 29 c5 16 6 33 3 38 -8 13 -86 9 -121 -7z"/>
<path d="M3805 3070 c-10 -16 3 -26 16 -13 16 16 39 5 39 -19 0 -11 -14 -38
-31 -60 -17 -21 -29 -41 -27 -44 8 -8 88 8 88 17 0 5 -13 6 -30 3 -37 -8 -38
5 -5 36 19 18 25 33 23 55 -3 26 -8 30 -35 33 -17 2 -34 -2 -38 -8z"/>
<path d="M2007 3012 c-28 -12 -57 -64 -57 -105 0 -50 43 -97 90 -97 32 0 90
27 90 42 0 12 -10 10 -26 -7 -24 -24 -90 -19 -108 7 -22 31 -21 111 2 131 33
30 88 26 104 -8 13 -30 27 -24 21 9 -6 31 -69 46 -116 28z"/>
<path d="M2957 2990 c-9 -11 -17 -23 -17 -26 0 -3 -11 -20 -25 -38 -36 -47
-33 -64 13 -68 32 -3 37 -7 40 -30 4 -38 22 -36 22 2 0 22 5 30 18 30 16 1 16
1 0 14 -14 10 -18 28 -18 75 0 65 -6 73 -33 41z m13 -65 c0 -43 -1 -45 -30
-45 -16 0 -30 3 -30 6 0 13 44 84 52 84 4 0 8 -20 8 -45z"/>
<path d="M3056 2994 c-22 -22 -20 -41 2 -21 29 26 61 21 73 -10 9 -23 6 -33
-20 -70 -38 -53 -39 -64 -5 -32 31 28 54 70 54 97 0 44 -71 69 -104 36z"/>
<path d="M3234 3002 c-20 -13 -36 -82 -30 -127 18 -116 116 -89 116 32 0 78
-42 125 -86 95z m49 -16 c3 -7 8 -33 12 -58 8 -50 -16 -123 -37 -116 -19 7
-37 69 -32 108 10 66 43 104 57 66z"/>
<path d="M3449 2936 c-49 -24 -50 -107 -3 -128 21 -10 31 -9 52 2 14 8 27 22
30 30 4 12 2 13 -9 3 -7 -7 -26 -13 -41 -13 -35 0 -55 41 -39 77 12 27 46 30
59 7 5 -10 15 -14 21 -10 9 6 9 11 1 21 -16 19 -46 24 -71 11z"/>
<path d="M3558 2885 c3 -35 0 -60 -8 -70 -11 -13 -8 -15 20 -15 27 0 31 2 20
15 -7 8 -11 35 -8 67 2 42 0 53 -13 56 -13 2 -15 -6 -11 -53z"/>
<path d="M3600 2929 c0 -6 8 -9 18 -7 15 3 17 -6 17 -60 0 -59 1 -62 25 -62
19 0 21 3 12 12 -21 21 -15 85 10 102 31 22 41 7 36 -58 -3 -53 -2 -56 20 -56
19 0 21 3 13 18 -11 21 -11 21 -11 76 l0 43 -70 1 c-38 0 -70 -4 -70 -9z"/>
<path d="M4159 2914 c-17 -21 0 -49 32 -49 18 0 25 6 27 24 6 38 -34 55 -59
25z m51 -19 c0 -8 -9 -15 -20 -15 -20 0 -26 11 -13 23 12 13 33 7 33 -8z"/>
<path d="M2167 2834 c-8 -8 1 -24 14 -24 5 0 9 7 9 15 0 15 -12 20 -23 9z"/>
<path d="M3049 2826 c-19 -20 -8 -26 44 -25 48 1 77 12 77 28 0 10 -110 7
-121 -3z"/>
<path d="M3793 2203 c-23 -9 -14 -22 14 -20 41 3 42 -32 3 -77 -26 -29 -29
-37 -17 -42 24 -9 70 0 75 15 3 9 -2 11 -17 6 -36 -11 -43 4 -16 37 47 56 21
107 -42 81z"/>
<path d="M1958 2128 c19 -19 16 -153 -4 -172 -14 -15 -10 -16 45 -16 74 0 104
13 126 55 23 42 14 97 -22 125 -20 15 -40 20 -91 20 -51 0 -63 -3 -54 -12z
m119 -15 c46 -40 42 -123 -7 -148 -16 -8 -40 -14 -54 -13 -26 2 -26 3 -26 90
l0 88 33 0 c19 0 43 -8 54 -17z"/>
<path d="M2909 2102 l-15 -37 35 -20 c30 -17 36 -26 36 -55 0 -34 -1 -35 -37
-34 -26 1 -38 -3 -38 -12 0 -14 11 -18 43 -14 74 7 78 117 5 143 -33 12 -21
37 17 37 24 0 35 5 35 15 0 10 -10 15 -32 15 -29 0 -35 -5 -49 -38z"/>
<path d="M3063 2128 c-19 -24 -20 -43 -5 -70 15 -25 14 -29 -3 -48 -15 -16
-17 -26 -9 -48 8 -22 16 -28 46 -30 30 -3 40 1 54 23 16 25 16 27 -5 56 -21
28 -21 32 -7 48 19 21 21 52 4 69 -16 16 -63 15 -75 0z m57 -18 c8 -15 7 -25
-3 -41 -13 -18 -16 -19 -31 -4 -18 18 -19 25 -10 49 9 22 31 20 44 -4z m3
-149 c-6 -9 -19 -16 -29 -16 -23 0 -32 48 -14 71 10 12 15 10 33 -12 15 -20
18 -30 10 -43z"/>
<path d="M3216 2124 c-20 -19 -20 -43 -1 -71 13 -18 13 -22 0 -33 -18 -15 -20
-61 -3 -78 18 -18 75 -15 82 4 11 28 6 61 -9 74 -14 12 -14 15 0 36 18 28 19
56 3 72 -17 17 -54 15 -72 -4z m64 -33 c0 -9 -4 -22 -9 -30 -8 -12 -12 -12
-25 -2 -19 16 -21 42 -4 59 14 14 38 -2 38 -27z m-6 -104 c13 -35 -5 -57 -32
-41 -19 12 -27 38 -18 60 9 24 39 12 50 -19z"/>
<path d="M3416 2055 c-38 -38 -26 -124 18 -126 36 -2 50 2 63 19 19 25 15 37
-5 19 -28 -25 -50 -21 -67 14 -15 28 -15 33 0 55 17 27 45 32 45 9 0 -8 7 -15
16 -15 9 0 14 7 12 18 -4 23 -60 28 -82 7z"/>
<path d="M3535 2000 c0 -59 3 -70 17 -70 14 0 18 11 20 58 3 50 6 57 26 60 13
2 22 -2 23 -10 3 -40 0 -85 -5 -99 -5 -12 -1 -15 15 -14 21 1 23 6 20 57 -2
50 0 57 20 63 30 10 37 -6 28 -68 -3 -28 -6 -53 -5 -54 1 -1 11 0 22 3 18 5
19 11 14 64 -3 32 -9 62 -13 67 -12 11 -120 12 -134 0 -9 -6 -13 -6 -13 2 0 6
-8 11 -17 11 -16 0 -18 -10 -18 -70z"/>
<path d="M4154 2035 c-10 -25 4 -45 30 -45 25 0 39 20 30 45 -4 8 -17 15 -30
15 -14 0 -27 -7 -30 -15z m46 -10 c0 -8 -9 -15 -20 -15 -20 0 -26 11 -13 23
12 13 33 7 33 -8z"/>
<path d="M2180 1950 c0 -5 7 -10 15 -10 8 0 15 5 15 10 0 6 -7 10 -15 10 -8 0
-15 -4 -15 -10z"/>
<path d="M5372 741 c-56 -57 -65 -118 -22 -161 11 -11 33 -20 50 -20 32 0 80
19 80 32 0 11 -18 10 -22 -2 -2 -6 -18 -12 -36 -15 -51 -6 -76 24 -69 83 9 86
102 135 134 72 7 -14 13 -20 13 -15 0 6 3 20 6 33 6 21 4 22 -49 22 -48 0 -59
-4 -85 -29z"/>
<path d="M10805 730 c4 -6 -3 -37 -14 -70 -12 -33 -21 -69 -21 -80 0 -10 -8
-24 -17 -29 -14 -8 -4 -10 42 -11 72 0 105 18 105 59 0 15 -5 32 -10 37 -7 7
-4 16 10 29 24 22 25 38 4 59 -17 18 -110 23 -99 6z m76 -10 c17 0 9 -49 -10
-60 -46 -24 -61 -8 -41 45 7 19 15 25 26 21 9 -3 20 -6 25 -6z m-11 -95 c20
-24 -2 -62 -40 -70 -41 -9 -46 -3 -31 45 9 32 17 40 35 40 13 0 29 -7 36 -15z"/>
<path d="M14114 724 c7 -18 -43 -174 -56 -174 -4 0 -8 -4 -8 -10 0 -5 14 -10
30 -10 29 0 42 14 20 22 -12 4 13 72 29 82 15 10 41 -5 41 -23 0 -14 2 -14 10
-1 5 8 10 23 10 32 0 14 -6 16 -30 12 -26 -6 -30 -3 -30 14 0 42 11 52 55 52
25 0 45 -5 48 -12 3 -7 6 -3 6 10 1 21 -3 22 -65 22 -57 0 -65 -2 -60 -16z"/>
</g>
</svg>
