<?xml version="1.0" standalone="no"?>
<!DOCTYPE svg PUBLIC "-//W3C//DTD SVG 20010904//EN"
 "http://www.w3.org/TR/2001/REC-SVG-20010904/DTD/svg10.dtd">
<svg version="1.0" xmlns="http://www.w3.org/2000/svg"
 width="1499.000000pt" height="670.000000pt" viewBox="0 0 1499.000000 670.000000"
 preserveAspectRatio="xMidYMid meet">
<metadata>
Created by potrace 1.16, written by Peter Selinger 2001-2019
</metadata>
<g transform="translate(0.000000,670.000000) scale(0.100000,-0.100000)"
fill="#000000" stroke="none">
<path d="M12910 6429 c0 -6 -12 -26 -26 -45 -15 -19 -22 -34 -17 -34 6 0 19
11 29 25 15 20 28 25 62 25 25 0 41 4 37 10 -3 5 -19 7 -35 3 -23 -4 -30 -2
-30 11 0 9 -4 16 -10 16 -5 0 -10 -5 -10 -11z"/>
<path d="M13025 6425 c-5 -11 -18 -33 -29 -48 l-20 -28 -19 23 c-16 21 -18 22
-15 3 2 -13 -3 -20 -14 -20 -9 0 -20 -4 -24 -8 -4 -4 13 -7 39 -7 49 0 61 -8
47 -29 -5 -10 -19 -12 -44 -8 -33 5 -38 3 -46 -19 -6 -14 -10 -27 -10 -30 0
-2 21 -4 46 -4 58 0 54 -15 -14 -49 -28 -14 -51 -29 -51 -34 -1 -10 69 20 89
38 25 23 36 18 38 -17 4 -52 12 -45 12 10 l0 52 50 0 c28 0 50 -2 50 -4 0 -3
-4 -16 -9 -30 -8 -19 -15 -23 -33 -19 -23 5 -23 5 -3 -10 33 -26 36 -23 59 51
7 21 5 22 -53 22 -48 0 -61 3 -61 15 0 11 12 15 45 15 43 0 45 2 45 28 -1 25
-30 72 -45 72 -4 0 -2 -6 4 -14 9 -11 8 -15 -5 -20 -23 -9 -54 -7 -54 2 0 21
39 41 85 45 l50 3 -47 2 c-35 2 -48 6 -51 20 -3 15 -5 15 -12 -3z m55 -105 c0
-16 -7 -20 -35 -20 -28 0 -35 4 -35 20 0 16 7 20 35 20 28 0 35 -4 35 -20z
m-85 -45 c0 -12 -50 -19 -71 -11 -9 3 -12 11 -9 16 8 14 80 9 80 -5z"/>
<path d="M13681 6395 c-7 -25 -22 -56 -32 -69 -10 -13 -16 -26 -12 -30 3 -3
12 2 19 12 11 14 13 4 14 -68 0 -59 3 -80 10 -70 5 8 9 58 9 111 -1 71 4 105
15 128 13 24 14 31 3 31 -7 0 -19 -20 -26 -45z"/>
<path d="M14447 6420 c5 -17 14 -20 59 -20 51 0 72 -14 39 -26 -19 -8 -20 -24
-1 -24 12 0 46 40 46 55 0 3 -27 5 -59 5 -43 0 -60 4 -65 15 -8 22 -25 18 -19
-5z"/>
<path d="M7574 6418 c5 -16 -2 -18 -49 -18 -30 0 -55 -4 -55 -10 0 -5 13 -10
29 -10 25 0 41 -14 41 -37 0 -3 -20 -3 -45 -1 -25 3 -45 2 -45 -3 0 -7 240
-18 260 -11 6 2 10 8 10 13 0 5 -17 6 -40 3 -23 -4 -40 -3 -40 3 0 15 23 33
42 33 10 0 18 5 18 10 0 6 -23 10 -51 10 -37 0 -56 5 -66 18 -14 16 -14 16 -9
0z m56 -42 c0 -36 -62 -49 -79 -17 -13 24 -8 29 39 29 26 1 40 -4 40 -12z"/>
<path d="M9703 6413 c-3 -10 -15 -30 -25 -45 -11 -16 -16 -28 -12 -28 11 0 64
64 64 78 0 18 -20 15 -27 -5z"/>
<path d="M9820 6406 c-5 -13 -14 -27 -19 -31 -6 -3 -11 -11 -11 -17 0 -6 11
-1 24 11 16 16 35 22 58 21 47 -3 58 -1 58 9 0 5 -20 6 -45 3 -39 -4 -45 -2
-39 12 3 9 1 16 -5 16 -6 0 -16 -11 -21 -24z"/>
<path d="M11225 6376 c-10 -31 -24 -61 -31 -67 -8 -6 -14 -16 -14 -22 0 -7 4
-7 12 1 24 24 30 11 26 -63 -2 -41 0 -75 3 -75 4 0 9 51 11 113 6 120 12 147
35 147 12 0 14 -21 11 -122 l-3 -123 88 0 87 0 0 118 c0 64 -1 120 -2 123 -2
3 -41 6 -88 7 -47 1 -92 6 -101 10 -14 7 -20 -2 -34 -47z m205 -86 l0 -110
-70 0 -70 0 0 110 0 110 70 0 70 0 0 -110z"/>
<path d="M11355 6373 c-5 -16 -15 -23 -32 -23 -13 0 -21 -4 -18 -10 3 -5 15
-10 26 -10 13 0 19 -7 19 -21 0 -15 -5 -19 -15 -15 -12 4 -15 -4 -15 -40 l0
-45 39 3 c41 3 41 3 41 48 0 20 -5 30 -15 30 -8 0 -15 9 -15 20 0 15 7 20 26
20 16 0 24 5 21 13 -2 6 -13 11 -25 9 -15 -2 -22 3 -25 20 l-4 23 -8 -22z m33
-120 c3 -19 -1 -23 -22 -23 -21 0 -26 5 -26 26 0 21 4 25 23 22 14 -2 23 -11
25 -25z"/>
<path d="M11531 6298 l0 -133 125 0 124 0 0 53 c2 190 1 207 -12 202 -25 -8
-203 -7 -220 2 -16 8 -18 -1 -17 -124z m229 -8 l0 -110 -87 0 c-68 1 -84 3
-69 11 10 6 43 9 72 7 l54 -5 0 54 c0 42 -3 53 -16 53 -13 0 -14 -3 -5 -14 7
-8 11 -27 9 -43 -3 -27 -5 -28 -63 -28 -59 0 -60 0 -63 30 -3 19 2 33 14 42
17 12 16 13 -4 13 -20 0 -22 -5 -22 -60 0 -44 -4 -60 -14 -60 -15 0 -28 128
-19 188 l5 32 104 0 104 0 0 -110z"/>
<path d="M11600 6365 c0 -18 5 -25 20 -25 11 0 20 -4 20 -10 0 -5 6 -10 13
-10 7 0 13 9 13 20 0 15 -6 20 -26 18 -19 -2 -24 1 -22 15 2 9 -2 17 -8 17 -5
0 -10 -11 -10 -25z"/>
<path d="M11690 6370 c0 -11 5 -20 10 -20 6 0 10 9 10 20 0 11 -4 20 -10 20
-5 0 -10 -9 -10 -20z"/>
<path d="M11575 6320 c3 -5 8 -10 11 -10 2 0 4 5 4 10 0 6 -5 10 -11 10 -5 0
-7 -4 -4 -10z"/>
<path d="M11728 6323 c7 -3 16 -2 19 1 4 3 -2 6 -13 5 -11 0 -14 -3 -6 -6z"/>
<path d="M11618 6274 c-3 -2 -3 -15 -1 -27 4 -19 10 -22 39 -19 20 3 34 10 34
18 0 8 0 16 0 19 0 3 -3 5 -7 5 -5 0 -8 -6 -8 -12 0 -7 -11 -15 -24 -16 -18
-3 -22 0 -18 12 6 15 -5 30 -15 20z"/>
<path d="M11981 6414 c12 -15 8 -16 -43 -13 -51 4 -58 2 -67 -18 -6 -12 -6
-25 -2 -28 5 -2 11 3 13 13 7 26 81 30 76 4 -2 -12 -13 -17 -36 -17 -17 0 -32
-3 -32 -7 0 -5 12 -8 26 -8 21 0 24 -4 19 -20 -5 -16 -2 -20 15 -20 12 0 18
-4 15 -10 -4 -7 2 -9 19 -4 15 3 40 1 57 -6 16 -7 32 -10 36 -6 3 3 -8 11 -25
17 -37 13 -38 16 -16 47 9 13 13 26 10 29 -7 7 -37 -17 -32 -26 10 -15 -21
-40 -42 -34 -25 6 -29 18 -8 26 8 3 16 16 18 29 3 21 9 23 61 26 61 3 71 -6
35 -32 l-23 -16 25 3 c14 1 24 8 22 15 -1 7 5 15 13 18 33 13 12 24 -45 24
-45 0 -62 4 -66 15 -4 8 -13 15 -21 15 -13 0 -13 -3 -2 -16z"/>
<path d="M12240 6375 c0 -30 5 -55 10 -55 6 0 10 9 10 19 0 24 19 31 80 31 33
0 50 -5 54 -15 4 -12 -6 -15 -61 -15 -85 0 -76 -11 11 -14 l66 -2 0 32 c0 18
3 39 6 48 5 14 -5 16 -70 16 -44 0 -76 -4 -76 -10 0 -6 27 -10 60 -10 33 0 60
-4 60 -10 0 -6 -28 -10 -65 -10 -63 0 -65 1 -65 25 0 14 -4 25 -10 25 -5 0
-10 -25 -10 -55z"/>
<path d="M12661 6413 c4 -40 0 -43 -56 -43 l-56 0 3 -105 c2 -89 4 -104 18
-101 37 11 200 16 200 6 0 -5 5 -10 10 -10 6 0 10 42 10 105 l0 105 -56 0 -56
0 6 30 c4 23 2 30 -10 30 -9 0 -14 -8 -13 -17z m-1 -93 l0 -40 -45 0 c-45 0
-45 0 -45 34 0 32 3 35 33 39 17 2 38 5 45 5 8 1 12 -12 12 -38z m110 0 l0
-40 -45 0 -45 0 0 38 0 38 45 2 45 2 0 -40z m-110 -90 l0 -40 -45 0 c-44 0
-45 0 -45 33 0 43 5 47 52 47 38 0 38 0 38 -40z m110 0 l0 -40 -45 0 -45 0 0
40 0 40 45 0 45 0 0 -40z"/>
<path d="M13730 6300 l0 -125 90 0 90 0 0 112 c0 61 2 117 5 125 4 10 -15 13
-90 13 l-95 0 0 -125z m86 94 c-3 -9 -6 -20 -6 -25 0 -5 -12 -10 -27 -10 l-28
-2 28 -4 c21 -3 27 -10 27 -30 0 -20 -4 -24 -20 -20 -18 5 -20 0 -20 -40 0
-37 3 -44 16 -39 9 3 29 6 45 6 27 0 29 3 29 35 0 24 -5 35 -15 35 -12 0 -15
13 -15 55 0 54 0 55 30 55 l30 0 2 -67 c0 -38 2 -87 4 -111 l3 -43 -77 3 -77
3 -3 94 c-1 52 -1 100 2 108 3 7 21 13 42 13 29 0 35 -3 30 -16z m29 -129 c0
-14 -8 -21 -27 -23 -24 -3 -28 0 -28 23 0 23 4 26 28 23 19 -2 27 -9 27 -23z"/>
<path d="M13848 6353 c6 -2 18 -2 25 0 6 3 1 5 -13 5 -14 0 -19 -2 -12 -5z"/>
<path d="M13993 6300 c1 -79 6 -130 12 -130 6 0 9 44 7 120 l-4 120 111 0 111
0 0 -110 0 -110 -47 0 c-58 0 -53 -6 10 -12 l47 -6 0 129 0 129 -124 0 -125 0
2 -130z"/>
<path d="M7174 6403 c-14 -40 -44 -102 -54 -108 -5 -3 -10 -11 -10 -17 0 -6 9
-3 20 7 20 18 20 17 20 -63 0 -48 4 -82 10 -82 6 0 10 43 10 108 0 75 5 115
15 136 18 34 18 36 5 36 -6 0 -13 -8 -16 -17z"/>
<path d="M8190 6410 c0 -5 -14 -10 -32 -10 -17 0 -28 -3 -24 -7 4 -5 18 -8 29
-8 17 0 23 -7 25 -32 2 -19 -1 -33 -7 -33 -6 0 -11 -7 -11 -15 0 -8 -10 -20
-22 -26 -33 -17 -33 -18 -14 -32 10 -7 30 -11 45 -9 24 3 27 8 23 29 -4 22 -2
24 17 18 12 -4 21 -2 21 4 0 6 -7 11 -15 11 -15 0 -17 6 -19 58 -1 23 3 27 27
27 15 -1 27 3 27 7 0 4 -11 8 -25 8 -14 0 -25 5 -25 10 0 6 -4 10 -10 10 -5 0
-10 -4 -10 -10z m0 -140 c0 -15 -7 -20 -27 -20 -25 0 -26 0 -8 20 10 11 22 20
27 20 4 0 8 -9 8 -20z"/>
<path d="M8289 6381 c-16 -38 -16 -41 2 -57 26 -23 24 -28 -13 -47 -23 -12
-25 -15 -8 -10 14 5 48 7 75 6 l50 -2 -32 14 -33 14 18 30 c9 17 23 31 30 31
6 0 12 6 12 14 0 11 -10 13 -41 9 -39 -6 -41 -5 -34 16 11 37 -9 23 -26 -18z
m51 -36 c0 -21 -30 -31 -41 -14 -14 23 -11 29 16 29 16 0 25 -6 25 -15z"/>
<path d="M8530 6411 c0 -6 -13 -11 -29 -11 -33 0 -47 -30 -30 -62 14 -27 26
-14 21 23 -4 26 -2 30 14 27 13 -2 19 -13 20 -41 2 -35 1 -37 -27 -37 -26 0
-29 -4 -29 -30 0 -28 2 -30 26 -24 20 5 25 3 22 -7 -3 -8 -18 -13 -37 -13 -17
1 -31 -2 -31 -7 0 -5 9 -9 20 -9 11 0 20 -7 20 -15 0 -8 4 -15 9 -15 5 0 11 7
15 15 6 17 46 21 46 5 0 -6 -8 -14 -17 -17 -10 -4 -24 -13 -31 -20 -7 -7 -22
-13 -33 -13 -10 0 -19 -4 -19 -10 0 -13 4 -13 47 5 38 16 93 12 93 -6 0 -6 14
-2 30 8 17 9 30 21 30 25 0 16 25 8 38 -12 7 -11 19 -20 27 -20 23 0 18 15
-10 30 -25 13 -35 53 -16 64 4 3 11 24 15 46 3 22 11 40 16 40 6 0 10 7 10 15
0 12 -8 14 -42 9 -43 -7 -44 -6 -27 41 2 6 0 12 -5 15 -5 3 -15 -15 -22 -40
-6 -25 -15 -54 -20 -64 -5 -12 -4 -17 3 -13 12 8 36 -67 29 -91 -10 -30 -41
-43 -69 -29 -20 10 -23 17 -15 30 5 9 20 17 33 17 14 0 25 4 25 9 0 13 -53 21
-64 10 -16 -15 -36 -11 -30 6 4 9 19 15 35 15 24 0 29 4 29 25 0 21 -5 25 -30
25 -16 0 -30 5 -30 10 0 6 6 10 13 10 8 0 8 3 -2 9 -9 6 -12 19 -8 40 4 16 2
33 -3 36 -6 3 -10 1 -10 -4z m165 -118 c-12 -64 -20 -69 -39 -23 -19 48 -15
60 21 60 24 0 25 -2 18 -37z m-165 -8 c0 -8 -9 -15 -20 -15 -20 0 -26 11 -13
23 12 13 33 7 33 -8z m50 0 c0 -8 -9 -15 -20 -15 -20 0 -26 11 -13 23 12 13
33 7 33 -8z"/>
<path d="M1690 6380 l0 -32 -50 4 -50 3 0 -69 c0 -55 3 -67 12 -58 7 7 29 12
50 12 l38 0 0 -55 c0 -30 5 -55 10 -55 6 0 10 25 10 55 l0 55 53 0 52 0 -1 57
-1 58 -52 -3 c-52 -4 -53 -4 -49 24 2 15 -2 29 -9 31 -9 3 -13 -6 -13 -27z m0
-75 c0 -19 5 -35 10 -35 6 0 10 16 10 36 0 36 0 37 36 31 44 -7 40 -3 47 -49
l6 -37 -100 0 -99 0 0 39 c0 37 1 39 38 43 20 2 40 4 45 5 4 1 7 -14 7 -33z"/>
<path d="M2312 6373 c-28 -44 -23 -53 13 -17 22 22 33 25 61 21 25 -4 34 -2
34 8 0 10 -9 12 -37 8 -26 -4 -34 -3 -29 5 4 7 1 12 -6 12 -7 -1 -23 -17 -36
-37z"/>
<path d="M2446 6385 c-4 -14 -11 -25 -16 -25 -6 0 -10 -5 -10 -12 0 -13 38 19
51 44 7 13 6 18 -5 18 -7 0 -17 -11 -20 -25z"/>
<path d="M3154 6363 c-10 -27 -23 -55 -31 -64 -18 -21 -17 -34 2 -19 13 11 15
2 15 -69 0 -47 4 -81 10 -81 6 0 10 43 10 108 1 74 5 115 15 132 17 29 18 40
6 40 -5 0 -17 -21 -27 -47z"/>
<path d="M3921 6394 c12 -15 8 -16 -43 -13 -51 4 -58 2 -67 -18 -8 -18 -7 -25
9 -33 10 -5 28 -10 40 -10 16 0 20 -5 16 -15 -3 -8 -3 -15 -1 -15 11 0 43 40
47 57 3 15 14 18 61 19 59 2 68 -4 41 -27 -11 -9 -20 -10 -33 -2 -12 8 -22 7
-35 -2 -13 -10 -14 -14 -4 -17 10 -4 10 -8 -1 -22 -8 -10 -21 -14 -32 -11 -11
4 -19 2 -19 -3 0 -6 -14 -15 -32 -21 -52 -18 -25 -22 31 -4 48 15 54 15 86 0
21 -10 37 -12 40 -7 6 9 -34 30 -56 30 -6 0 -6 8 1 20 8 14 21 20 45 20 20 0
35 5 35 12 0 6 7 20 17 30 15 17 13 18 -49 18 -49 0 -67 4 -72 15 -3 8 -13 15
-22 15 -14 0 -14 -2 -3 -16z m-21 -49 c0 -16 -64 -22 -74 -6 -9 14 5 21 41 21
23 0 33 -5 33 -15z"/>
<path d="M4195 6383 c-3 -16 -17 -45 -31 -65 -27 -42 -23 -51 7 -15 18 22 18
21 19 -64 0 -102 -3 -99 108 -99 109 0 119 4 113 43 -4 31 -5 31 -11 7 -6 -24
-8 -25 -100 -25 l-95 0 0 65 0 65 43 3 c39 3 42 1 42 -22 0 -26 -15 -32 -60
-26 -11 1 -12 -1 -4 -10 7 -7 25 -9 48 -5 34 7 36 10 36 44 l0 37 -57 -1 c-45
0 -58 3 -58 15 0 12 18 16 88 18 l87 3 0 -43 c0 -68 -9 -88 -39 -89 -17 -1
-20 -3 -8 -6 9 -2 17 -9 17 -14 0 -15 19 -10 29 9 5 9 12 49 16 87 l7 70 -91
-3 c-73 -3 -91 -1 -91 10 0 8 5 19 12 26 9 9 8 12 -4 12 -9 0 -19 -12 -23 -27z"/>
<path d="M4587 6387 c-9 -13 -38 -39 -66 -56 -54 -35 -64 -46 -31 -36 11 4 20
2 20 -4 0 -7 29 -11 75 -11 67 0 75 -2 75 -19 0 -24 -21 -31 -85 -27 l-50 4 0
-47 0 -46 90 0 90 0 3 48 c3 48 3 48 -25 41 l-27 -7 17 26 c27 41 22 46 -40
42 -80 -5 -127 3 -112 21 8 10 28 12 75 7 45 -4 64 -2 64 6 0 7 -18 11 -47 11
l-48 0 27 26 26 26 21 -21 c20 -20 96 -71 106 -71 18 0 -2 21 -37 40 -24 12
-53 33 -65 46 -28 30 -37 30 -56 1z m103 -197 l0 -30 -75 0 -75 0 0 30 0 30
75 0 75 0 0 -30z"/>
<path d="M5350 6361 c0 -46 -2 -50 -27 -54 l-28 -4 28 -2 27 -1 2 -87 2 -88 5
85 c6 79 8 85 29 88 12 2 22 8 22 13 0 5 -11 7 -25 3 -23 -6 -25 -4 -25 33 0
21 5 44 12 51 9 9 8 12 -5 12 -14 0 -17 -10 -17 -49z"/>
<path d="M5462 6400 c3 -8 9 -23 13 -32 6 -15 1 -18 -30 -18 -31 0 -35 -2 -26
-14 9 -11 21 -12 53 -5 22 6 43 7 46 4 3 -2 -1 -42 -9 -87 -10 -60 -18 -83
-29 -83 -9 0 -15 13 -17 40 -3 59 -13 105 -22 105 -4 0 -4 -28 1 -62 10 -74 5
-92 -22 -85 -11 3 -20 1 -20 -4 0 -13 167 -11 176 2 5 8 -3 10 -25 7 -18 -3
-34 -1 -37 3 -8 14 29 161 43 166 27 11 12 24 -21 18 -28 -6 -35 -4 -40 13 -4
11 -14 26 -23 34 -14 11 -16 11 -11 -2z"/>
<path d="M5703 6402 l-63 -3 0 -49 c0 -49 1 -50 31 -50 20 0 29 -4 26 -12 -2
-7 -16 -13 -30 -13 -15 1 -27 -3 -27 -7 0 -4 14 -8 30 -8 46 0 39 -28 -7 -33
-21 -2 -1 -4 45 -5 l82 -2 1 -42 c0 -24 3 -37 6 -30 3 7 24 12 56 12 l52 0 0
53 c-1 51 -2 52 -30 52 -27 0 -30 3 -30 30 1 26 5 30 33 33 18 2 32 8 32 14 0
6 -12 8 -29 5 -36 -8 -41 -2 -31 34 7 22 5 29 -5 29 -11 0 -15 -19 -17 -72 -3
-62 -6 -73 -20 -72 -11 1 -18 -5 -18 -17 0 -15 -7 -19 -35 -19 -24 0 -35 5
-35 15 0 9 9 15 25 15 14 0 25 5 25 10 0 6 -12 9 -27 8 -26 -3 -28 0 -25 27 2
16 8 35 14 42 5 7 8 18 5 25 -4 8 -6 7 -6 -4 -1 -10 -6 -18 -12 -18 -6 0 -9 8
-7 18 2 9 12 17 23 17 27 0 34 -54 9 -72 -17 -12 -17 -13 3 -13 18 0 22 7 25
51 1 28 1 52 -2 52 -3 1 -33 1 -67 -1z m-5 -49 c-2 -27 -8 -39 -20 -41 -15 -3
-18 3 -16 37 1 33 5 41 20 41 16 0 19 -6 16 -37z m182 -143 l0 -40 -40 0 -40
0 0 40 0 40 40 0 40 0 0 -40z"/>
<path d="M6819 6378 c-1 -30 -2 -30 -8 -9 -4 14 -12 26 -18 28 -7 3 -9 -4 -6
-17 4 -13 0 -26 -8 -31 -11 -7 -11 -9 3 -9 10 0 22 -8 27 -18 11 -21 -2 -48
-18 -38 -6 4 -11 2 -11 -3 0 -6 13 -11 29 -11 34 0 44 -10 31 -29 -4 -8 -17
-12 -29 -8 -12 3 -21 1 -21 -4 0 -5 7 -10 15 -10 8 -1 21 -2 28 -3 6 -1 10
-10 9 -21 -5 -25 -4 -25 -35 -27 -15 -1 -27 -8 -27 -16 0 -10 6 -12 18 -7 9 4
38 13 64 19 53 13 78 30 30 20 -28 -6 -32 -4 -32 15 0 17 6 21 31 21 19 0 28
4 23 11 -3 6 -17 8 -30 5 -19 -5 -24 -2 -24 14 0 16 7 20 30 20 17 0 30 5 30
11 0 6 -9 9 -20 6 -23 -6 -24 -6 -8 28 6 14 20 25 30 25 11 0 16 4 13 10 -3 5
-20 7 -37 3 -30 -6 -31 -5 -26 25 2 18 1 32 -4 32 -4 0 -8 -13 -8 -30 0 -16
-4 -30 -10 -30 -5 0 -10 14 -10 30 0 41 -20 38 -21 -2z m54 -45 c8 -14 -12
-53 -28 -53 -8 0 -15 3 -15 8 0 4 -3 17 -6 30 -5 19 -2 22 19 22 14 0 28 -3
30 -7z"/>
<path d="M7000 6371 c0 -39 -1 -40 -37 -44 l-38 -4 38 -1 38 -2 -3 -77 c-3
-77 -3 -78 -28 -75 -24 4 -25 3 -5 -12 44 -34 55 -17 55 89 0 62 3 74 18 78
15 4 15 5 -2 6 -15 1 -17 8 -14 41 2 28 0 40 -9 40 -8 0 -13 -14 -13 -39z"/>
<path d="M10258 6381 c-37 -40 -48 -65 -48 -102 0 -43 21 -109 34 -109 6 0 17
-9 24 -20 7 -12 18 -18 24 -14 8 5 6 11 -5 19 -42 30 -51 157 -16 214 26 43
20 49 -13 12z"/>
<path d="M10870 6400 c0 -5 6 -13 13 -17 48 -28 47 -193 0 -229 -17 -13 -17
-13 0 -14 21 0 67 89 67 131 0 32 -46 125 -65 133 -8 3 -15 1 -15 -4z"/>
<path d="M14333 6391 c-11 -17 -10 -22 6 -31 11 -5 32 -10 47 -10 22 0 25 -2
14 -15 -10 -12 -8 -16 11 -24 23 -9 23 -10 -9 -17 -18 -3 -35 -11 -38 -16 -7
-10 4 -8 77 13 29 9 42 8 69 -6 24 -12 31 -13 28 -3 -3 7 -13 15 -24 16 -31 6
-37 19 -17 39 11 11 17 25 15 31 -7 21 -20 13 -31 -18 -7 -23 -16 -30 -35 -30
-29 0 -34 14 -10 28 9 5 14 18 12 33 -3 21 -9 24 -53 27 -41 2 -52 -1 -62 -17z
m97 -12 c0 -18 -5 -20 -42 -17 -52 4 -56 21 -8 29 19 4 38 7 43 8 4 0 7 -8 7
-20z"/>
<path d="M1240 6264 c0 -88 3 -133 10 -129 17 10 220 11 230 1 7 -7 10 39 10
127 l0 137 -125 0 -125 0 0 -136z m240 6 l0 -110 -110 0 -110 0 0 110 0 110
110 0 110 0 0 -110z"/>
<path d="M1310 6345 c0 -17 5 -25 18 -25 12 0 14 2 4 8 -7 5 -10 16 -6 25 3
10 1 17 -5 17 -6 0 -11 -11 -11 -25z"/>
<path d="M1348 6363 c6 -2 18 -2 25 0 6 3 1 5 -13 5 -14 0 -19 -2 -12 -5z"/>
<path d="M1400 6345 c0 -14 5 -25 10 -25 6 0 10 11 10 25 0 14 -4 25 -10 25
-5 0 -10 -11 -10 -25z"/>
<path d="M1350 6310 c0 -11 7 -20 16 -20 8 0 12 5 8 11 -3 6 0 15 7 20 10 6 8
9 -8 9 -16 0 -23 -6 -23 -20z"/>
<path d="M1425 6300 c-3 -5 1 -10 9 -10 8 0 18 5 21 10 3 6 -1 10 -9 10 -8 0
-18 -4 -21 -10z"/>
<path d="M1278 6293 c6 -2 18 -2 25 0 6 3 1 5 -13 5 -14 0 -19 -2 -12 -5z"/>
<path d="M1290 6228 l0 -53 75 0 75 0 0 53 c0 39 -4 52 -15 52 -11 0 -12 -6
-6 -22 4 -11 6 -32 3 -45 -4 -21 -10 -23 -58 -23 l-54 0 0 45 c0 25 -4 45 -10
45 -5 0 -10 -24 -10 -52z"/>
<path d="M1322 6228 c2 -13 7 -21 13 -18 5 3 9 10 7 17 -1 6 5 14 15 16 11 3
7 5 -10 6 -24 1 -28 -3 -25 -21z"/>
<path d="M1384 6230 c0 -11 5 -20 11 -20 6 0 11 9 12 20 1 11 -4 20 -10 20 -7
0 -13 -9 -13 -20z"/>
<path d="M3200 6270 l0 -125 95 0 96 0 -3 125 -3 125 -93 0 -92 0 0 -125z
m170 5 l0 -105 -42 -1 c-24 -1 -56 -2 -73 -3 l-30 -1 -3 108 -3 107 76 0 75 0
0 -105z"/>
<path d="M3290 6350 c0 -16 -7 -20 -32 -21 -28 -2 -29 -2 -8 -6 14 -3 28 -10
32 -16 10 -16 -2 -36 -18 -30 -11 4 -14 -5 -14 -39 l0 -44 40 1 c22 0 41 2 41
5 1 3 2 19 3 37 2 23 -3 33 -16 36 -10 3 -18 14 -18 26 0 16 7 21 28 22 l27 1
-25 7 c-16 5 -24 13 -22 24 2 9 -2 17 -8 17 -5 0 -10 -9 -10 -20z m30 -116 c0
-22 -4 -25 -27 -22 -20 2 -29 9 -31 26 -3 19 1 22 27 22 27 0 31 -4 31 -26z"/>
<path d="M3470 6273 l0 -128 104 3 c64 2 112 -1 125 -7 21 -12 21 -11 21 124
l0 135 -125 0 -125 0 0 -127z m58 108 c8 -4 13 -14 12 -22 -4 -25 0 -42 8 -35
4 4 7 13 7 19 0 7 17 13 38 15 28 2 37 0 37 -12 0 -9 5 -16 10 -16 6 0 10 9
10 20 0 17 -7 20 -50 20 -27 0 -50 3 -50 8 0 6 89 8 138 3 9 -1 12 -30 12
-111 l0 -111 -107 3 -108 3 -3 99 c-1 55 0 106 2 113 6 15 25 17 44 4z"/>
<path d="M3580 6315 c0 -8 5 -15 10 -15 6 0 10 7 10 15 0 8 -4 15 -10 15 -5 0
-10 -7 -10 -15z"/>
<path d="M3505 6300 c3 -5 11 -10 16 -10 6 0 7 5 4 10 -3 6 -11 10 -16 10 -6
0 -7 -4 -4 -10z"/>
<path d="M3651 6298 c1 -7 1 -35 0 -61 l-1 -48 -57 3 c-55 3 -57 4 -56 31 2
44 2 45 21 50 10 3 6 5 -10 6 -27 1 -28 -1 -28 -51 l0 -53 72 2 73 1 5 66 c4
50 2 66 -8 66 -7 0 -12 -6 -11 -12z"/>
<path d="M3588 6273 c7 -3 16 -2 19 1 4 3 -2 6 -13 5 -11 0 -14 -3 -6 -6z"/>
<path d="M3550 6230 c0 -17 7 -20 40 -20 33 0 40 3 40 20 0 17 -7 20 -40 20
-33 0 -40 -3 -40 -20z m65 0 c-3 -5 -15 -10 -26 -10 -10 0 -19 5 -19 10 0 6
12 10 26 10 14 0 23 -4 19 -10z"/>
<path d="M5398 6390 c-4 -8 -9 -24 -13 -35 -6 -19 -5 -19 10 -4 9 9 15 25 13
35 -4 15 -6 16 -10 4z"/>
<path d="M6003 6394 c4 -4 41 -6 83 -5 59 2 75 -1 72 -11 -2 -7 -19 -17 -36
-23 -22 -6 -31 -14 -27 -25 8 -28 -10 -39 -70 -43 l-60 -3 63 -2 c34 -1 62 -5
63 -9 12 -83 5 -112 -24 -106 -22 5 -22 5 2 -12 31 -24 41 -8 41 68 l0 57 70
0 c39 0 70 4 70 9 0 6 -29 7 -70 4 -56 -5 -70 -3 -70 8 0 28 32 57 83 75 42
15 9 24 -90 24 -58 0 -103 -3 -100 -6z"/>
<path d="M6896 6385 c-3 -8 -2 -15 3 -15 5 0 14 7 21 15 10 12 10 15 -3 15 -8
0 -17 -7 -21 -15z"/>
<path d="M7790 6388 c0 -5 29 -8 65 -8 l65 0 0 -105 0 -105 -31 0 -30 0 2 77
c1 51 -2 78 -9 81 -9 3 -12 -20 -12 -77 l0 -80 -32 -4 c-18 -2 34 -5 115 -5
95 -1 146 2 142 8 -3 6 -30 7 -65 3 l-60 -6 0 57 0 56 45 0 c25 0 45 5 45 10
0 6 -19 9 -42 8 l-43 -3 -3 43 -3 42 55 0 c31 0 56 3 56 8 0 4 -58 7 -130 7
-71 0 -130 -3 -130 -7z"/>
<path d="M8569 6391 c8 -5 12 -19 9 -35 -4 -18 -1 -26 8 -26 8 0 14 6 14 14 0
8 8 17 18 19 16 4 16 5 0 6 -10 0 -18 8 -18 16 0 9 -9 15 -22 15 -17 0 -19 -3
-9 -9z"/>
<path d="M9730 6386 c0 -7 7 -20 16 -27 15 -12 16 -11 10 8 -6 18 -2 22 21 26
23 3 21 4 -9 6 -26 1 -38 -3 -38 -13z"/>
<path d="M10788 6393 c-15 -4 -16 -7 -5 -18 22 -21 22 -143 1 -166 -16 -18
-16 -19 16 -19 25 0 31 3 26 16 -3 9 -6 56 -6 105 0 49 -3 88 -7 88 -5 -1 -16
-3 -25 -6z"/>
<path d="M14062 6378 c2 -13 7 -21 13 -18 5 3 9 11 7 18 -2 10 7 12 35 10 24
-2 37 -8 36 -15 -2 -7 2 -13 7 -13 6 0 10 9 10 20 0 18 -7 20 -56 20 -52 0
-55 -1 -52 -22z"/>
<path d="M2495 6380 c28 -12 65 -12 65 0 0 6 -19 10 -42 9 -33 0 -38 -2 -23
-9z"/>
<path d="M5003 6383 c-26 -10 -13 -30 16 -25 38 5 52 -34 20 -60 -17 -14 -18
-18 -5 -18 25 0 40 -38 25 -66 -11 -21 -17 -23 -47 -18 -25 5 -33 3 -28 -5 4
-6 23 -11 42 -11 29 0 37 5 50 34 15 30 15 37 2 62 -10 22 -11 36 -4 57 9 24
7 31 -9 43 -19 14 -40 17 -62 7z"/>
<path d="M5312 6360 c9 -26 13 -30 16 -16 2 10 -3 26 -12 35 -15 15 -16 13 -4
-19z"/>
<path d="M7220 6379 c0 -5 14 -9 30 -9 28 0 30 -2 30 -40 l0 -40 -45 0 c-25 0
-45 -4 -45 -8 0 -11 198 -13 205 -2 7 11 -3 13 -57 10 -38 -2 -38 -2 -38 39 0
40 1 41 35 41 19 0 35 5 35 10 0 7 -29 10 -75 9 -41 -1 -75 -6 -75 -10z"/>
<path d="M385 6370 c-17 -7 -17 -9 -2 -9 15 -1 17 -12 17 -84 0 -51 -5 -88
-12 -95 -9 -9 -5 -12 21 -12 26 0 32 3 27 16 -3 9 -6 56 -6 105 0 93 -2 97
-45 79z"/>
<path d="M523 6373 c-7 -2 -13 -11 -13 -19 0 -11 4 -12 19 -2 15 9 23 9 36 -2
9 -7 14 -19 11 -27 -3 -7 -1 -13 4 -13 15 0 22 20 16 46 -5 18 -13 24 -34 23
-15 0 -33 -3 -39 -6z"/>
<path d="M2820 6370 c0 -5 5 -10 11 -10 7 0 9 -31 7 -90 -3 -84 -2 -90 17 -90
19 0 20 6 17 100 -3 98 -4 100 -28 100 -13 0 -24 -4 -24 -10z"/>
<path d="M9860 6371 c0 -5 5 -13 10 -16 6 -3 10 -2 10 4 0 5 -4 13 -10 16 -5
3 -10 2 -10 -4z"/>
<path d="M8140 6336 c0 -20 4 -35 9 -31 10 6 8 51 -2 62 -4 3 -7 -10 -7 -31z"/>
<path d="M8236 6362 c-3 -6 -2 -14 4 -17 8 -5 7 -12 -2 -23 -11 -13 -11 -14 2
-10 8 2 17 13 18 22 5 22 -13 43 -22 28z"/>
<path d="M2366 6346 c3 -8 -4 -17 -18 -21 -19 -7 -14 -9 25 -12 34 -3 47 -8
47 -20 0 -12 -10 -14 -45 -11 -46 3 -55 -3 -55 -43 0 -15 7 -19 34 -19 19 0
38 5 41 10 4 6 -7 10 -24 10 -22 0 -31 5 -31 16 0 13 10 15 48 14 26 -2 70 -2
99 -1 52 1 52 1 50 31 -1 16 -6 30 -11 30 -5 0 -15 8 -22 18 -12 15 -13 14 -4
-11 17 -48 13 -57 -24 -57 -54 0 -55 29 -1 43 11 3 -2 5 -29 4 -35 0 -51 4
-58 16 -11 20 -30 23 -22 3z"/>
<path d="M14104 6343 c2 -10 7 -18 12 -18 5 0 10 8 12 18 2 10 -3 17 -11 17
-9 0 -14 -8 -13 -17z"/>
<path d="M10602 6318 c3 -31 1 -33 -32 -39 l-35 -6 35 -4 c32 -4 35 -6 33 -36
-2 -17 2 -35 7 -38 10 -6 12 0 14 45 1 20 7 26 36 31 l35 6 -37 2 c-36 1 -38
2 -38 36 0 19 -5 35 -11 35 -6 0 -9 -14 -7 -32z"/>
<path d="M9743 6333 c39 -3 47 -7 47 -24 0 -18 -6 -20 -42 -18 -33 3 -43 0
-49 -16 -13 -33 -11 -35 29 -34 30 2 32 3 10 6 -45 7 -35 33 12 33 33 0 40 -3
40 -20 0 -27 -33 -58 -87 -82 -24 -11 -43 -22 -40 -24 6 -7 107 38 107 47 0 5
5 9 10 9 6 0 10 -16 10 -36 0 -23 4 -34 12 -32 7 3 11 28 10 71 l-1 67 51 0
c42 0 49 3 44 16 -3 9 -6 22 -6 30 0 11 -20 14 -102 12 -57 -1 -82 -3 -55 -5z
m145 -20 c-2 -13 -14 -19 -41 -21 -32 -3 -37 0 -37 17 0 18 6 21 41 21 33 0
40 -3 37 -17z"/>
<path d="M13354 6322 c5 -16 -2 -52 -19 -94 -5 -12 -3 -18 7 -18 7 0 14 9 15
21 2 27 50 89 69 89 15 0 13 -24 -7 -78 -12 -31 -11 -32 5 -32 7 0 20 8 27 17
12 14 12 16 0 8 -11 -6 -13 -2 -7 21 19 79 19 84 -2 84 -12 0 -30 -10 -42 -22
l-20 -22 0 22 c0 13 -6 22 -16 22 -10 0 -13 -6 -10 -18z"/>
<path d="M14034 6327 c10 -7 17 -20 16 -28 -1 -7 -2 -32 -1 -54 l1 -40 69 0
69 0 4 53 3 52 -63 0 c-43 0 -68 5 -78 15 -9 8 -20 15 -27 15 -6 0 -3 -6 7
-13z m141 -67 l0 -35 -57 -3 -58 -3 0 41 0 41 58 -3 57 -3 0 -35z"/>
<path d="M14080 6259 c0 -19 4 -28 11 -24 6 4 8 13 5 20 -3 8 0 15 7 18 6 2 4
6 -6 10 -14 5 -17 0 -17 -24z"/>
<path d="M14134 6260 c0 -11 6 -20 13 -20 7 0 13 9 13 20 0 11 -6 20 -13 20
-7 0 -13 -9 -13 -20z"/>
<path d="M14180 6330 c0 -5 4 -10 9 -10 6 0 13 5 16 10 3 6 -1 10 -9 10 -9 0
-16 -4 -16 -10z"/>
<path d="M8992 6323 c-6 -2 -10 -8 -8 -12 3 -4 -1 -29 -9 -56 -17 -56 -18 -65
-6 -65 12 0 32 56 37 103 2 20 2 37 1 36 -1 0 -8 -3 -15 -6z"/>
<path d="M9064 6323 c-23 -4 -64 -43 -46 -43 6 0 14 5 17 10 3 6 13 10 21 10
11 0 13 -6 8 -22 -21 -67 -22 -88 -4 -88 10 0 21 7 24 16 4 10 2 13 -6 8 -8
-5 -9 -1 -4 11 8 23 20 106 15 104 -2 -1 -14 -4 -25 -6z"/>
<path d="M10355 6310 c2 -11 -3 -39 -11 -61 -16 -48 -17 -59 -5 -59 12 0 32
56 37 103 2 27 0 37 -11 37 -9 0 -12 -8 -10 -20z"/>
<path d="M10400 6305 c-26 -28 -17 -34 12 -8 27 25 32 9 14 -46 -19 -60 -19
-61 -2 -61 18 0 41 27 26 32 -7 2 -6 18 5 47 12 36 13 46 3 53 -21 13 -33 9
-58 -17z"/>
<path d="M9323 6285 c2 -37 11 -45 21 -19 11 27 6 54 -8 54 -10 0 -14 -10 -13
-35z"/>
<path d="M6417 6303 c-12 -11 -8 -40 7 -52 28 -23 68 17 45 45 -12 15 -41 19
-52 7z m36 -18 c8 -18 -11 -31 -25 -17 -11 11 -3 32 12 32 4 0 10 -7 13 -15z"/>
<path d="M7507 6303 c-3 -5 -3 -19 -2 -33 2 -14 4 -32 4 -39 1 -12 4 -12 13
-3 7 7 26 12 44 12 63 0 93 -12 116 -46 23 -34 38 -43 38 -23 0 6 -11 20 -25
31 -20 15 -25 28 -25 64 l0 44 -79 0 c-44 0 -82 -3 -84 -7z m146 -25 c3 -12 4
-24 2 -27 -5 -10 -135 0 -135 10 0 5 28 10 63 11 l62 2 -62 3 c-82 5 -81 23 1
23 57 0 64 -2 69 -22z"/>
<path d="M12315 6300 c-113 -5 -121 -6 -60 -10 l70 -5 3 -39 c2 -21 1 -45 -2
-53 -11 -28 -50 9 -57 53 l-5 39 -8 -30 c-5 -16 -22 -47 -38 -69 -25 -31 -27
-36 -10 -27 12 6 28 21 36 33 14 20 17 21 28 6 7 -10 26 -22 41 -28 36 -13
137 -13 157 0 11 8 -5 10 -55 8 -70 -3 -70 -3 -73 25 -3 26 -2 27 47 27 30 0
51 4 51 11 0 7 -18 10 -47 7 -43 -3 -48 -1 -51 20 -3 21 0 22 63 22 42 0 64 4
60 10 -3 6 -9 9 -13 8 -4 -1 -65 -5 -137 -8z"/>
<path d="M561 6291 c-11 -7 -9 -13 8 -30 39 -39 16 -78 -40 -67 -22 4 -29 2
-27 -7 7 -19 58 -20 79 -1 36 32 18 128 -20 105z"/>
<path d="M2020 6291 c0 -6 4 -12 10 -16 5 -3 6 -13 3 -22 -4 -11 -2 -14 8 -11
8 2 15 17 17 31 3 22 -1 27 -17 27 -12 0 -21 -4 -21 -9z"/>
<path d="M6940 6284 c1 -5 7 -20 15 -34 13 -24 14 -24 15 -4 0 12 -7 27 -15
34 -8 7 -15 9 -15 4z"/>
<path d="M14454 6275 c-12 -24 -3 -126 9 -107 5 7 7 27 5 45 l-3 32 68 3 c37
2 65 7 62 12 -3 4 -32 6 -64 3 -52 -5 -59 -3 -63 13 -4 18 -4 18 -14 -1z"/>
<path d="M11900 6271 c0 -4 11 -6 25 -3 14 2 25 6 25 8 0 2 -11 4 -25 4 -14 0
-25 -4 -25 -9z"/>
<path d="M11986 6258 c-11 -41 -7 -100 6 -96 8 3 11 23 9 59 -3 62 -6 69 -15
37z"/>
<path d="M5311 6239 c-14 -39 -14 -57 -2 -43 10 10 25 74 18 74 -3 0 -10 -14
-16 -31z"/>
<path d="M5383 6257 c4 -10 7 -23 7 -28 0 -5 5 -9 10 -9 16 0 12 26 -7 41 -15
12 -16 12 -10 -4z"/>
<path d="M3926 6253 c-10 -10 -7 -123 4 -123 6 0 10 20 10 45 l0 45 71 0 c38
0 68 4 65 9 -3 5 -36 6 -72 3 -47 -3 -65 -2 -60 6 7 12 -8 25 -18 15z"/>
<path d="M7280 6215 l0 -45 -40 0 c-22 0 -40 -4 -40 -10 0 -6 38 -10 95 -10
57 0 95 4 95 10 0 6 -20 10 -45 10 l-45 0 0 45 c0 25 -4 45 -10 45 -5 0 -10
-20 -10 -45z"/>
<path d="M12060 6250 l-45 -7 58 -1 c32 -1 57 2 57 8 0 11 -1 11 -70 0z"/>
<path d="M14348 6253 c18 -2 45 -2 60 0 15 2 0 4 -33 4 -33 0 -45 -2 -27 -4z"/>
<path d="M2388 6209 c-20 -22 -50 -42 -67 -45 -29 -6 -44 -24 -21 -24 16 0 88
38 95 50 13 21 25 9 25 -25 0 -19 5 -35 10 -35 6 0 10 20 10 45 l0 45 50 0
c50 0 60 -9 41 -39 -5 -8 -17 -11 -32 -7 -23 7 -23 7 -5 -8 11 -9 23 -16 27
-16 12 0 27 24 34 58 l7 32 -55 0 c-31 0 -61 2 -69 4 -7 2 -29 -14 -50 -35z"/>
<path d="M8233 6243 c21 -5 25 -83 5 -83 -26 0 -40 17 -33 39 3 12 2 21 -4 21
-5 0 -11 -12 -13 -27 -3 -25 -7 -28 -35 -27 -18 1 -33 -2 -33 -7 0 -5 63 -9
141 -9 81 0 138 4 135 9 -3 5 -33 7 -66 4 -51 -5 -60 -3 -60 11 0 12 10 16 40
16 22 0 40 5 40 10 0 6 -18 10 -40 10 -28 0 -40 4 -40 14 0 11 15 16 53 19 36
2 27 4 -28 4 -44 0 -72 -1 -62 -4z"/>
<path d="M9868 6243 c33 -3 42 -8 42 -23 0 -23 -18 -35 -45 -32 -17 2 -16 0 5
-12 23 -14 26 -14 43 5 9 12 17 32 17 45 0 22 -3 24 -52 22 -51 -1 -51 -2 -10
-5z"/>
<path d="M11883 6243 c15 -2 39 -2 55 0 15 2 2 4 -28 4 -30 0 -43 -2 -27 -4z"/>
<path d="M3828 6223 c18 -2 45 -2 60 0 15 2 0 4 -33 4 -33 0 -45 -2 -27 -4z"/>
<path d="M14377 6210 c-14 -11 -30 -20 -36 -20 -6 0 -11 -4 -11 -10 0 -5 3
-10 6 -10 13 0 84 44 84 52 0 13 -16 9 -43 -12z"/>
<path d="M14528 6205 c24 -15 46 -25 49 -22 6 7 -35 33 -67 42 -16 4 -10 -3
18 -20z"/>
<path d="M7531 6188 c-1 -33 2 -37 29 -43 43 -9 110 3 110 21 0 8 -4 14 -10
14 -5 0 -10 -5 -10 -11 0 -6 -20 -9 -52 -7 -50 3 -53 5 -59 33 -7 29 -7 29 -8
-7z"/>
<path d="M7587 6205 c7 -19 33 -27 33 -11 0 8 -9 16 -19 19 -13 3 -18 1 -14
-8z"/>
<path d="M11912 6200 c-12 -10 -28 -20 -35 -23 -6 -2 -9 -7 -6 -11 8 -8 79 32
79 45 0 14 -13 10 -38 -11z"/>
<path d="M12065 6195 c43 -27 60 -32 49 -14 -6 11 -66 39 -81 39 -4 0 10 -12
32 -25z"/>
<path d="M7480 6191 c0 -11 -6 -21 -12 -24 -7 -2 -10 -8 -5 -12 9 -11 23 3 32
33 4 13 2 22 -4 22 -6 0 -11 -9 -11 -19z"/>
<path d="M662 6188 c5 -15 27 -18 31 -3 1 5 -6 11 -17 13 -12 3 -17 -1 -14
-10z"/>
<path d="M3836 6172 c-21 -14 -34 -28 -28 -30 10 -3 92 46 92 54 0 11 -29 0
-64 -24z"/>
<path d="M3970 6197 c0 -8 82 -48 87 -43 3 2 -6 11 -19 19 -25 16 -68 31 -68
24z"/>
<path d="M5643 6173 c-14 -29 -8 -47 7 -23 9 13 14 50 8 50 -2 0 -9 -12 -15
-27z"/>
<path d="M5681 6193 c0 -5 4 -17 9 -28 8 -18 9 -17 9 8 1 15 -3 27 -9 27 -5 0
-10 -3 -9 -7z"/>
<path d="M5720 6180 c0 -11 4 -20 9 -20 5 0 7 9 4 20 -3 11 -7 20 -9 20 -2 0
-4 -9 -4 -20z"/>
<path d="M5750 6191 c0 -5 5 -13 10 -16 6 -3 10 -2 10 4 0 5 -4 13 -10 16 -5
3 -10 2 -10 -4z"/>
<path d="M14053 6183 c15 -2 37 -2 50 0 12 2 0 4 -28 4 -27 0 -38 -2 -22 -4z"/>
<path d="M6181 5958 c-5 -13 -16 -30 -25 -37 -9 -7 -16 -18 -16 -24 0 -6 13 1
28 16 l29 27 18 -20 c22 -24 34 -18 14 6 -13 16 -11 17 14 12 15 -3 30 -1 33
3 3 5 -13 9 -36 9 -23 0 -39 4 -35 9 3 5 1 12 -5 16 -5 3 -14 -4 -19 -17z"/>
<path d="M6987 5939 c-9 -25 -17 -50 -17 -56 0 -6 -7 -16 -15 -23 -8 -7 -15
-17 -15 -22 0 -6 7 -5 15 2 13 11 15 3 15 -64 0 -44 4 -76 10 -76 6 0 10 40
10 99 0 54 5 112 11 129 17 50 5 60 -14 11z"/>
<path d="M7745 5963 c6 -21 3 -23 -37 -23 -24 0 -49 5 -56 12 -9 9 -12 8 -12
-8 0 -11 -5 -25 -12 -32 -8 -8 -1 -13 31 -18 35 -6 42 -10 38 -25 -3 -12 0
-19 10 -19 8 0 12 4 8 9 -3 5 3 16 13 23 19 13 22 18 22 39 0 7 22 10 64 8 36
-2 68 -1 71 3 10 10 -60 21 -84 13 -16 -5 -27 0 -42 17 l-20 23 6 -22z m-17
-45 c-3 -7 -21 -14 -41 -16 -28 -2 -37 1 -37 12 0 12 11 16 41 16 28 0 39 -4
37 -12z"/>
<path d="M8093 5920 c-11 -33 -16 -60 -12 -60 4 0 11 10 15 23 9 30 22 37 67
37 l37 0 0 -74 c0 -41 -4 -86 -10 -100 -8 -22 -14 -25 -42 -20 l-33 5 30 -14
c43 -21 55 -4 66 84 15 135 17 129 -46 129 -55 0 -65 6 -44 27 7 7 7 13 1 17
-5 3 -18 -21 -29 -54z"/>
<path d="M8490 5905 c0 -73 -1 -75 -25 -75 -16 0 -25 -6 -25 -15 0 -17 -65
-22 -75 -5 -6 10 6 14 37 11 9 -1 20 3 24 10 5 8 -2 10 -25 7 -26 -4 -31 -1
-31 15 0 16 5 19 30 14 l30 -6 0 52 0 53 -65 0 -65 -1 0 -52 c0 -49 10 -67 25
-43 3 6 1 10 -4 10 -6 0 -11 16 -11 35 0 28 4 35 20 35 19 0 28 -25 20 -55 -2
-5 -2 -20 -2 -32 2 -19 -3 -23 -31 -23 -27 -1 -29 -2 -14 -11 10 -6 25 -8 33
-5 8 3 14 -1 14 -9 0 -10 -10 -15 -30 -15 -16 0 -30 -4 -30 -10 0 -6 32 -10
75 -10 l75 0 0 -42 c0 -33 3 -39 12 -30 7 7 33 12 59 12 l46 0 -1 55 c0 53 -1
55 -28 55 -25 0 -28 3 -28 35 0 33 2 35 36 35 20 0 33 4 29 10 -3 5 -20 7 -37
3 -31 -6 -31 -6 -25 30 3 21 2 37 -4 37 -5 0 -9 -34 -9 -75z m-80 10 c0 -29
-4 -35 -21 -35 -11 0 -17 4 -14 10 3 5 1 18 -4 28 -12 22 -5 32 21 32 14 0 18
-8 18 -35z m128 -142 c-3 -36 -5 -38 -40 -41 l-38 -3 0 40 0 41 41 0 40 0 -3
-37z"/>
<path d="M8387 5933 c-4 -3 -7 -11 -7 -17 0 -6 5 -5 12 2 6 6 9 14 7 17 -3 3
-9 2 -12 -2z"/>
<path d="M9040 5970 c0 -5 -14 -10 -31 -10 -24 0 -30 -4 -25 -15 3 -10 -1 -15
-12 -15 -16 -1 -16 -1 1 -14 9 -7 17 -18 17 -23 0 -6 11 -8 25 -5 15 2 25 0
25 -7 0 -6 -11 -11 -25 -11 -15 0 -26 -6 -26 -15 -1 -8 -2 -19 -3 -25 -1 -5 4
-9 9 -8 6 0 9 9 7 20 -2 13 3 18 17 18 12 0 21 -7 21 -15 0 -8 -4 -15 -9 -15
-5 0 -11 -10 -14 -21 -5 -17 -11 -20 -31 -15 -15 4 -26 2 -26 -4 0 -5 12 -10
26 -10 16 0 23 -4 18 -11 -3 -6 -1 -15 6 -19 17 -10 4 -30 -21 -30 -10 0 -19
-4 -19 -10 0 -13 4 -13 46 5 20 8 47 12 60 9 15 -4 24 -2 24 5 0 6 -4 11 -10
11 -5 0 -10 9 -10 20 0 15 7 20 25 20 14 0 25 4 25 9 0 13 -46 19 -65 9 -20
-12 -30 -4 -19 14 5 7 9 20 9 28 0 8 9 16 19 18 15 3 18 0 13 -17 -3 -14 0
-21 9 -21 8 0 14 10 14 25 0 21 -5 25 -31 25 -27 0 -30 2 -19 15 9 10 9 15 1
15 -16 0 -13 40 4 46 8 3 20 2 26 -2 9 -5 7 -10 -7 -15 -17 -7 -17 -8 -1 -8
20 -1 23 -17 5 -24 -8 -3 -6 -6 5 -6 9 -1 17 5 17 13 0 8 6 17 13 19 10 4 10
6 0 6 -7 1 -13 8 -13 16 0 9 -9 15 -25 15 -14 0 -25 5 -25 10 0 6 -4 10 -10
10 -5 0 -10 -4 -10 -10z m-2 -45 c0 -17 -6 -25 -18 -25 -12 0 -17 8 -17 25 0
17 5 25 17 25 12 0 18 -8 18 -25z m27 -160 c0 -5 -10 -11 -22 -13 -16 -2 -23
2 -23 13 0 11 7 15 23 13 12 -2 22 -7 22 -13z"/>
<path d="M1270 5935 c0 -29 -3 -32 -25 -27 -15 2 -25 0 -25 -7 0 -6 11 -11 25
-11 23 0 25 -3 25 -53 0 -37 -7 -66 -25 -100 -14 -26 -21 -47 -16 -47 17 0 55
93 59 147 4 48 7 53 28 53 23 0 24 -3 24 -64 0 -36 -4 -76 -10 -91 -8 -21 -14
-25 -37 -20 -27 6 -27 6 -9 -9 11 -9 23 -16 27 -16 17 0 39 33 39 58 0 15 3
57 6 94 l7 66 -34 -1 c-32 -2 -34 0 -32 29 2 21 -2 31 -12 31 -10 0 -15 -11
-15 -32z"/>
<path d="M1680 5845 l0 -125 -60 0 c-37 0 -60 -4 -60 -11 0 -6 7 -8 16 -5 9 3
72 6 140 6 68 0 124 4 124 8 0 5 -34 7 -75 4 l-75 -5 0 44 c0 82 5 89 66 89
30 0 54 4 54 9 0 17 -20 23 -35 11 -7 -6 -29 -10 -47 -8 -35 3 -37 10 -23 74
3 14 -1 24 -10 28 -13 5 -15 -13 -15 -119z"/>
<path d="M3350 5830 c0 -77 4 -140 8 -140 4 0 8 63 9 140 1 79 -3 140 -8 140
-5 0 -9 -62 -9 -140z"/>
<path d="M3840 5895 c0 -73 -1 -75 -25 -75 -16 0 -25 -6 -25 -15 0 -8 -9 -15
-20 -15 -11 0 -20 -5 -20 -11 0 -6 6 -9 14 -6 22 9 38 -17 30 -49 -6 -23 -4
-26 10 -21 10 4 37 7 61 7 l43 0 4 55 c3 54 3 55 -24 55 -25 0 -28 3 -28 35 0
32 2 35 30 35 17 0 30 5 30 11 0 7 -11 8 -30 4 -29 -6 -30 -5 -30 29 0 20 -4
36 -10 36 -6 0 -10 -32 -10 -75z m52 -108 c4 -7 6 -23 5 -37 -3 -22 -9 -25
-45 -28 l-42 -3 0 39 c0 21 3 41 6 44 9 9 68 -3 76 -15z"/>
<path d="M4416 5955 c-15 -8 -39 -15 -51 -15 -22 0 -23 -4 -27 -102 -3 -57 -8
-112 -12 -123 -8 -20 -8 -20 8 0 9 11 19 36 23 57 5 37 6 38 49 38 l44 0 0 43
0 42 -45 -3 c-39 -4 -45 -2 -45 16 0 15 9 21 39 26 21 3 41 13 45 21 7 18 8
18 -28 0z m14 -105 c0 -28 -3 -30 -35 -30 -32 0 -35 2 -35 30 0 28 3 30 35 30
32 0 35 -2 35 -30z"/>
<path d="M4545 5955 c-16 -8 -39 -14 -50 -15 -18 0 -20 -7 -21 -85 -1 -67 -6
-92 -23 -121 -25 -42 -23 -54 4 -24 10 11 23 48 29 82 10 59 13 63 39 64 l27
1 2 -86 2 -86 5 85 c6 79 8 85 29 88 46 7 20 21 -35 19 -55 -2 -58 -1 -61 24
-3 23 1 26 44 35 26 5 49 15 52 22 5 15 -4 14 -43 -3z"/>
<path d="M4688 5923 c-12 -27 -24 -52 -26 -57 -3 -5 7 -7 22 -4 32 6 32 3 0
-34 -32 -39 -19 -53 29 -33 23 9 38 11 42 5 12 -19 24 -10 16 12 -9 24 -33 38
-29 16 2 -8 -8 -14 -26 -16 l-29 -4 38 52 c20 28 34 54 30 58 -4 4 -9 3 -12
-3 -10 -27 -22 -36 -43 -33 l-23 3 26 31 c28 33 34 54 17 54 -5 0 -19 -21 -32
-47z"/>
<path d="M5160 5946 l0 -28 -65 4 -65 3 0 -50 c-1 -84 -9 -148 -20 -159 -12
-12 -13 -26 -1 -26 14 0 31 58 31 106 0 44 0 44 35 44 31 0 34 -3 31 -22 -3
-13 -5 -29 -5 -36 -1 -7 -11 -17 -23 -21 -21 -8 -21 -10 -5 -16 23 -10 36 4
47 46 4 19 9 41 11 49 3 12 -5 14 -38 12 -41 -4 -43 -3 -43 25 0 28 1 29 54
29 l54 1 5 -41 c4 -23 9 -55 13 -72 5 -28 2 -33 -42 -62 -58 -39 -49 -42 15
-6 l47 27 28 -27 c31 -28 56 -34 56 -13 0 6 3 23 6 37 5 24 4 24 -11 -3 l-17
-29 -24 23 c-31 29 -30 36 7 87 21 29 26 42 16 42 -7 0 -22 -16 -33 -35 -31
-59 -40 -49 -48 54 -6 74 -16 109 -16 57z"/>
<path d="M5200 5962 c0 -10 21 -32 32 -32 16 0 8 19 -12 30 -11 6 -20 7 -20 2z"/>
<path d="M5940 5952 c0 -10 -5 -23 -12 -30 -9 -9 -9 -12 0 -12 8 0 12 -28 12
-95 l0 -95 -27 -1 -28 -1 28 -10 c16 -5 31 -8 34 -4 3 3 7 28 8 56 2 29 6 54
9 57 3 4 6 1 6 -5 0 -22 73 -82 100 -82 20 0 10 18 -13 24 -25 6 -77 49 -77
64 0 5 16 17 35 28 35 19 45 34 22 34 -7 0 -24 -11 -39 -25 -15 -14 -29 -25
-32 -25 -2 0 -6 18 -8 40 -3 31 0 40 12 41 10 0 11 2 3 6 -7 2 -13 16 -13 29
0 13 -4 24 -10 24 -5 0 -10 -8 -10 -18z"/>
<path d="M5990 5962 c0 -5 7 -13 16 -16 10 -4 14 -1 12 6 -5 15 -28 23 -28 10z"/>
<path d="M6300 5958 c0 -6 -7 -20 -17 -30 -9 -10 -11 -18 -6 -18 6 0 16 7 23
15 12 14 16 13 38 -7 l24 -23 -7 23 c-6 20 -4 23 17 22 36 -3 48 -1 48 10 0 5
-21 7 -50 3 -34 -4 -50 -2 -50 6 0 6 -4 11 -10 11 -5 0 -10 -5 -10 -12z"/>
<path d="M7123 5962 c-56 -2 -83 -7 -83 -15 -1 -7 -2 -64 -3 -129 -2 -100 0
-115 13 -108 24 12 131 12 146 0 10 -10 13 12 16 120 2 73 1 133 -2 133 -3 1
-42 1 -87 -1z m-3 -26 c0 -3 -4 -16 -10 -30 -5 -14 -5 -28 -1 -31 14 -8 6 -40
-10 -40 -12 0 -30 -58 -23 -75 1 -3 22 -4 47 -2 l44 4 0 39 c0 25 -4 38 -11
36 -6 -2 -10 -16 -8 -31 2 -23 -1 -26 -28 -26 -23 0 -30 4 -30 20 0 13 7 20
20 20 18 0 20 7 20 61 l0 60 31 -3 32 -3 0 -100 1 -100 -72 -3 -72 -3 0 106 0
105 35 0 c19 0 35 -2 35 -4z"/>
<path d="M7150 5890 c0 -5 7 -10 15 -10 8 0 15 5 15 10 0 6 -7 10 -15 10 -8 0
-15 -4 -15 -10z"/>
<path d="M7300 5831 c0 -74 3 -131 7 -128 3 4 5 61 4 127 l-2 120 110 0 111 0
0 -125 c0 -77 4 -125 10 -125 6 0 10 51 10 133 l0 132 -125 0 -125 0 0 -134z"/>
<path d="M7996 5945 c-4 -14 -13 -25 -21 -25 -12 0 -15 -18 -15 -95 0 -94 0
-95 21 -85 14 8 29 8 50 1 l29 -10 0 95 c0 91 -1 94 -22 93 -18 -1 -19 -2 -5
-6 14 -4 17 -13 15 -36 -3 -28 -7 -32 -35 -35 -22 -2 -33 1 -34 10 -2 23 3 53
10 58 3 3 14 17 24 33 14 22 15 27 3 27 -7 0 -17 -11 -20 -25z m52 -152 c3
-32 2 -33 -32 -33 -35 0 -36 1 -36 36 0 34 1 35 33 32 28 -3 32 -7 35 -35z"/>
<path d="M8660 5958 c0 -5 35 -8 77 -8 42 0 73 3 69 7 -9 9 -146 10 -146 1z"/>
<path d="M8833 5963 c-7 -2 -13 -11 -13 -18 0 -7 -16 -19 -35 -25 -27 -9 -35
-17 -35 -36 0 -23 -3 -24 -59 -24 -33 0 -63 -4 -66 -10 -4 -6 18 -10 59 -10
l66 0 0 -56 c0 -55 -1 -56 -25 -52 -33 7 -32 -8 0 -16 38 -10 47 1 45 53 -1
25 -1 52 -1 59 1 8 22 12 71 12 43 0 70 4 70 11 0 6 -24 10 -65 8 -36 -1 -68
0 -71 4 -13 12 8 45 36 57 35 14 71 50 49 49 -8 0 -20 -3 -26 -6z"/>
<path d="M9160 5949 c0 -12 -7 -36 -16 -55 -9 -19 -14 -38 -10 -41 4 -4 9 3
13 15 4 17 13 22 35 22 30 0 30 -1 25 -37 -9 -52 -22 -61 -41 -27 -19 35 -20
23 -4 -24 12 -33 12 -35 -21 -63 -19 -16 -32 -31 -29 -34 3 -3 20 6 37 21 l32
27 24 -23 c14 -13 28 -20 32 -17 3 4 -6 18 -20 31 -26 24 -26 26 -12 60 8 19
15 44 15 55 0 11 7 27 16 35 17 18 14 19 -33 16 -35 -2 -40 8 -23 41 8 15 7
19 -5 19 -9 0 -15 -9 -15 -21z"/>
<path d="M9359 5965 c-6 -2 -3 -257 3 -261 4 -3 8 0 8 5 0 7 29 11 75 11 52 0
75 -4 75 -12 0 -8 3 -8 9 -2 6 5 11 66 13 137 l3 127 -92 -2 c-51 -1 -93 -2
-94 -3z m159 -42 c-3 -25 -5 -26 -73 -27 -69 -1 -70 0 -73 27 l-3 27 76 0 76
0 -3 -27z m2 -113 l0 -70 -74 0 -75 0 1 63 c0 34 2 65 5 70 2 4 35 7 74 7 l69
0 0 -70z"/>
<path d="M9400 5810 c0 -13 89 -10 96 2 3 4 -18 8 -45 8 -29 0 -51 -5 -51 -10z"/>
<path d="M3468 5943 c14 -28 4 -44 -24 -37 -24 6 -32 -4 -15 -21 5 -6 12 -45
16 -87 l7 -76 -28 -5 c-16 -2 13 -5 64 -6 58 0 92 3 92 9 0 7 -13 8 -37 4 -32
-6 -35 -5 -29 11 4 10 11 39 16 64 6 25 12 56 15 69 3 12 12 22 20 22 8 0 15
5 15 11 0 7 -12 9 -35 5 -29 -6 -37 -3 -42 11 -7 20 -28 43 -38 43 -3 0 -2 -8
3 -17z m62 -72 c0 -10 -4 -31 -9 -47 -5 -16 -12 -46 -16 -66 -8 -52 -31 -49
-38 5 -3 23 -9 61 -13 85 l-7 42 42 0 c33 0 41 -3 41 -19z"/>
<path d="M3650 5905 c0 -54 1 -55 25 -49 19 5 25 2 25 -10 0 -11 -9 -16 -31
-16 -17 0 -28 -4 -24 -10 3 -5 17 -10 31 -10 25 0 34 -24 12 -34 -7 -2 2 -4
19 -3 22 1 29 5 23 11 -22 22 -11 39 20 33 17 -4 30 -2 30 3 0 6 -13 10 -30
10 -26 0 -30 3 -30 29 0 16 7 34 15 41 8 7 15 18 15 24 0 6 -7 2 -15 -8 -15
-19 -15 -19 -15 2 0 16 6 22 23 22 20 0 23 -4 19 -35 -2 -19 -9 -35 -16 -35
-12 0 14 -20 27 -20 4 0 7 25 7 55 l0 55 -65 0 -65 0 0 -55z m50 0 c0 -24 -5
-35 -15 -35 -10 0 -15 11 -15 35 0 24 5 35 15 35 10 0 15 -11 15 -35z"/>
<path d="M3681 5904 c0 -11 3 -14 6 -6 3 7 2 16 -1 19 -3 4 -6 -2 -5 -13z"/>
<path d="M4020 5951 c0 -6 36 -11 83 -13 l82 -3 -38 -24 c-22 -14 -36 -30 -35
-40 3 -13 -8 -17 -64 -19 -87 -4 -89 -22 -3 -22 l65 0 0 -55 c0 -53 -1 -55
-27 -56 l-28 0 24 -10 c42 -16 51 -5 51 61 l0 60 71 0 c52 0 70 3 66 13 -2 8
-24 11 -71 9 -62 -4 -68 -2 -64 15 2 10 24 32 50 48 26 17 47 32 47 35 1 3
-46 6 -104 8 -65 2 -105 -1 -105 -7z"/>
<path d="M4806 5842 c0 -118 -4 -139 -30 -129 -8 3 -18 2 -21 -3 -4 -6 33 -10
94 -10 61 0 101 4 101 10 0 6 -9 10 -20 10 -19 0 -19 6 -16 118 l3 117 -56 0
-56 0 1 -113z m92 65 c3 -25 1 -27 -37 -27 -36 0 -41 3 -41 23 0 31 7 37 44
34 26 -2 32 -7 34 -30z m-10 -47 c9 0 12 -10 10 -27 -3 -25 -7 -28 -38 -28
-26 0 -36 5 -38 18 -6 32 6 50 31 43 12 -3 28 -6 35 -6z m10 -107 c-3 -36 -5
-38 -38 -38 -33 0 -35 2 -38 38 l-3 37 41 0 41 0 -3 -37z"/>
<path d="M2154 5933 c-43 -43 -56 -131 -29 -196 15 -36 55 -70 55 -47 0 6 -6
13 -14 16 -20 8 -39 96 -31 144 4 22 18 54 32 70 26 32 16 42 -13 13z"/>
<path d="M2973 5929 c29 -41 38 -72 36 -124 -2 -53 -20 -100 -41 -108 -7 -2
-10 -8 -6 -12 20 -21 77 74 78 127 0 43 -29 105 -58 124 l-27 18 18 -25z"/>
<path d="M3396 5924 c-4 -15 -5 -29 -1 -32 3 -3 5 2 5 11 0 10 5 17 10 17 6 0
10 7 10 15 0 25 -17 17 -24 -11z"/>
<path d="M6669 5943 c-25 -6 -30 -40 -11 -72 15 -27 15 -30 -2 -46 -19 -19
-15 -63 7 -77 23 -15 66 -8 77 11 18 34 11 54 -32 98 -35 36 -41 47 -32 61 20
31 39 20 38 -21 -1 -36 -1 -37 17 -21 45 41 4 85 -62 67z m43 -130 c22 -20 23
-36 3 -53 -20 -16 -45 3 -45 35 0 37 14 44 42 18z"/>
<path d="M2229 5921 c-13 -11 -21 -22 -17 -26 4 -4 14 0 23 9 17 17 34 20 59
10 29 -11 16 -64 -25 -109 -10 -11 -27 -30 -39 -42 l-20 -23 64 0 c46 0 65 4
69 14 5 12 -3 14 -44 9 -55 -7 -61 0 -24 29 52 41 72 118 36 138 -29 15 -56
12 -82 -9z"/>
<path d="M2831 5926 c-10 -12 -7 -14 21 -13 29 2 33 -1 36 -26 3 -22 -1 -30
-17 -34 -28 -7 -27 -21 2 -25 26 -4 35 -41 16 -64 -9 -11 -22 -14 -46 -9 -20
4 -33 2 -33 -5 0 -18 75 -12 93 8 18 19 23 63 10 76 -5 5 -8 29 -8 54 0 45 -1
47 -31 50 -18 2 -36 -3 -43 -12z"/>
<path d="M3313 5926 c4 -10 7 -22 7 -27 0 -5 4 -9 9 -9 12 0 2 38 -12 47 -7 4
-8 0 -4 -11z"/>
<path d="M7368 5934 c-12 -11 5 -44 23 -44 11 0 19 -5 19 -11 0 -7 -15 -10
-40 -7 -22 2 -40 0 -40 -4 0 -5 41 -8 90 -8 54 0 90 4 90 10 0 6 -16 8 -42 4
-35 -6 -40 -5 -35 9 4 12 -1 17 -21 19 -19 2 -26 8 -24 21 3 16 -9 23 -20 11z"/>
<path d="M7458 5915 c-4 -17 -1 -25 8 -25 8 0 14 11 14 25 0 14 -4 25 -9 25
-5 0 -11 -11 -13 -25z"/>
<path d="M5810 5920 c0 -6 22 -10 50 -9 28 1 50 6 50 11 0 4 -22 8 -50 8 -27
0 -50 -5 -50 -10z"/>
<path d="M6040 5921 c0 -5 9 -7 20 -4 11 3 20 7 20 9 0 2 -9 4 -20 4 -11 0
-20 -4 -20 -9z"/>
<path d="M8326 5917 c3 -10 9 -15 12 -12 3 3 0 11 -7 18 -10 9 -11 8 -5 -6z"/>
<path d="M1398 5808 c-2 -62 -3 -113 -3 -114 0 0 23 2 50 4 l50 4 0 109 0 109
-47 0 -46 0 -4 -112z m82 2 c0 -49 -3 -90 -7 -91 -5 0 -20 -2 -35 -3 l-28 -2
0 93 0 93 35 0 35 0 0 -90z"/>
<path d="M5213 5913 c15 -2 37 -2 50 0 12 2 0 4 -28 4 -27 0 -38 -2 -22 -4z"/>
<path d="M6008 5913 c7 -3 16 -2 19 1 4 3 -2 6 -13 5 -11 0 -14 -3 -6 -6z"/>
<path d="M7775 5907 c-6 -7 -9 -20 -7 -29 2 -12 -10 -23 -42 -37 -25 -12 -50
-21 -57 -21 -7 0 -10 -2 -7 -5 3 -3 28 0 56 7 38 8 61 9 87 1 21 -7 35 -7 35
-2 0 5 -13 12 -30 16 -49 9 -32 53 21 53 15 0 31 5 35 12 5 8 -2 9 -24 5 -17
-4 -34 -2 -37 3 -8 13 -18 12 -30 -3z"/>
<path d="M2660 5868 c0 -37 -1 -38 -35 -38 -19 0 -35 -4 -35 -10 0 -5 16 -10
35 -10 33 0 35 -2 35 -35 0 -19 5 -35 11 -35 6 0 10 10 9 23 -4 42 0 47 35 47
19 0 35 5 35 11 0 7 -14 10 -35 7 -32 -4 -35 -2 -35 22 0 14 -5 32 -10 40 -7
11 -10 5 -10 -22z"/>
<path d="M5867 5860 c10 -17 19 -26 21 -21 5 14 -17 51 -29 51 -6 0 -2 -14 8
-30z"/>
<path d="M6223 5883 c39 -3 48 -7 45 -21 -3 -13 -14 -17 -44 -16 -36 0 -42 -3
-52 -28 -12 -33 -9 -36 43 -27 39 6 39 6 7 8 -46 2 -37 25 11 29 35 3 37 2 35
-25 -4 -56 2 -113 12 -113 6 0 10 23 10 50 l0 50 51 0 c47 0 50 -2 47 -22 -2
-17 -11 -24 -31 -26 -33 -4 -26 -22 8 -22 27 0 30 3 40 48 l7 32 -61 0 c-48 0
-61 3 -61 15 0 11 13 15 54 15 l54 0 -11 30 -11 30 -101 -2 c-55 -1 -78 -3
-52 -5z m145 -20 c-2 -13 -14 -19 -41 -21 -32 -3 -37 0 -37 17 0 18 6 21 41
21 33 0 40 -3 37 -17z"/>
<path d="M2400 5848 c-1 -18 -7 -50 -14 -70 -7 -21 -11 -40 -8 -42 9 -9 22 4
22 22 0 23 57 92 76 92 18 0 18 -10 -2 -60 -20 -50 -7 -72 22 -39 10 13 13 19
5 14 -11 -6 -13 -3 -7 16 4 13 9 39 13 57 5 28 3 32 -16 32 -12 0 -29 -9 -38
-20 -24 -27 -35 -25 -27 5 5 19 2 25 -10 25 -11 0 -16 -9 -16 -32z"/>
<path d="M9755 5860 c-8 -27 16 -56 39 -47 17 7 23 57 7 57 -5 0 -16 3 -24 6
-10 3 -18 -2 -22 -16z m35 -14 c0 -8 -4 -18 -10 -21 -5 -3 -10 -4 -10 -1 0 2
-3 11 -6 20 -4 11 -1 16 10 16 9 0 16 -6 16 -14z"/>
<path d="M3305 5860 c3 -5 13 -10 21 -10 8 0 12 5 9 10 -3 6 -13 10 -21 10 -8
0 -12 -4 -9 -10z"/>
<path d="M3390 5860 c0 -5 7 -10 15 -10 8 0 15 5 15 10 0 6 -7 10 -15 10 -8 0
-15 -4 -15 -10z"/>
<path d="M5451 5856 c-16 -20 3 -56 29 -56 25 0 33 15 26 46 -7 27 -37 32 -55
10z m44 -36 c-9 -15 -25 -12 -32 6 -8 21 19 38 30 18 4 -8 5 -19 2 -24z"/>
<path d="M8131 5828 c13 -18 25 -26 27 -19 4 13 -25 51 -40 51 -5 0 1 -14 13
-32z"/>
<path d="M7350 5798 l0 -53 75 -1 75 -1 0 54 c0 38 -4 53 -14 53 -10 0 -12
-11 -8 -45 l5 -45 -62 0 -61 0 5 45 c2 25 0 45 -5 45 -6 0 -10 -24 -10 -52z"/>
<path d="M7428 5843 c7 -3 16 -2 19 1 4 3 -2 6 -13 5 -11 0 -14 -3 -6 -6z"/>
<path d="M3311 5784 c-7 -19 -10 -38 -7 -41 3 -3 8 0 10 8 3 8 10 26 15 42 6
15 7 27 3 27 -4 0 -14 -16 -21 -36z"/>
<path d="M3392 5795 c6 -14 15 -25 20 -25 11 0 10 7 -2 31 -16 28 -32 23 -18
-6z"/>
<path d="M5870 5789 c-41 -27 -61 -49 -45 -49 13 0 95 61 95 70 0 12 3 14 -50
-21z"/>
<path d="M7383 5804 c-3 -8 -1 -20 4 -25 7 -7 12 -2 15 15 6 28 -9 36 -19 10z"/>
<path d="M7428 5813 c6 -2 12 -14 12 -24 0 -11 5 -17 10 -14 6 3 10 15 10 26
0 13 -7 19 -22 18 -13 0 -17 -3 -10 -6z"/>
<path d="M7750 5810 c0 -6 -28 -10 -65 -10 -38 0 -65 -4 -65 -10 0 -7 24 -10
63 -8 l62 3 6 -45 5 -45 5 45 4 45 58 0 c34 0 57 4 57 10 0 8 -21 10 -61 7
-44 -3 -60 -1 -55 7 4 6 2 11 -3 11 -6 0 -11 -4 -11 -10z"/>
<path d="M3640 5780 c0 -5 7 -7 15 -4 8 4 15 8 15 10 0 2 -7 4 -15 4 -8 0 -15
-4 -15 -10z"/>
<path d="M4750 5766 c0 -8 5 -18 10 -21 6 -3 10 1 10 9 0 8 -4 18 -10 21 -5 3
-10 -1 -10 -9z"/>
<path d="M4700 5765 c0 -3 9 -15 20 -27 22 -24 26 -18 10 13 -10 17 -30 27
-30 14z"/>
<path d="M6195 5741 c-27 -14 -52 -27 -54 -28 -2 -2 -2 -6 2 -9 8 -8 91 32
107 52 17 20 3 16 -55 -15z"/>
<path d="M7790 5761 c0 -5 10 -13 23 -17 12 -3 29 -13 39 -21 10 -9 18 -11 22
-4 4 6 -4 17 -16 25 -33 20 -68 29 -68 17z"/>
<path d="M8302 5745 c-7 -15 -11 -30 -8 -32 7 -7 28 36 24 49 -2 6 -9 -2 -16
-17z"/>
<path d="M8371 5765 c1 -19 18 -51 18 -35 0 8 -4 22 -9 30 -5 8 -9 11 -9 5z"/>
<path d="M8407 5749 c4 -13 8 -18 11 -10 2 7 -1 18 -6 23 -8 8 -9 4 -5 -13z"/>
<path d="M3651 5736 c-13 -33 -9 -43 8 -22 7 8 11 23 8 33 -3 14 -6 12 -16
-11z"/>
<path d="M3757 5741 c3 -12 9 -21 14 -21 14 0 11 16 -5 29 -12 10 -13 8 -9 -8z"/>
<path d="M4672 5728 c7 -20 13 -26 18 -17 10 15 3 36 -15 43 -11 4 -11 -1 -3
-26z"/>
<path d="M7661 5739 c-18 -11 -31 -23 -28 -26 3 -3 25 7 49 21 24 14 36 26 28
26 -8 0 -30 -9 -49 -21z"/>
<path d="M8337 5740 c3 -11 7 -20 9 -20 2 0 4 9 4 20 0 11 -4 20 -9 20 -5 0
-7 -9 -4 -20z"/>
<path d="M3692 5730 c0 -14 2 -19 5 -12 2 6 2 18 0 25 -3 6 -5 1 -5 -13z"/>
<path d="M3724 5735 c4 -24 16 -30 16 -7 0 12 -4 22 -9 22 -5 0 -8 -7 -7 -15z"/>
<path d="M7347 5718 c6 -10 134 -10 150 0 6 4 -26 7 -72 7 -46 0 -81 -3 -78
-7z"/>
<path d="M10017 5138 c-26 -21 -38 -63 -26 -97 8 -23 20 -33 46 -40 42 -12 63
-3 87 34 44 67 -43 151 -107 103z m87 -29 c17 -15 9 -63 -14 -81 -20 -16 -24
-16 -51 -3 -55 29 -29 112 31 98 14 -3 29 -9 34 -14z"/>
<path d="M10045 5060 c3 -5 8 -10 11 -10 2 0 4 5 4 10 0 6 -5 10 -11 10 -5 0
-7 -4 -4 -10z"/>
<path d="M5918 4949 c-43 -32 -32 -105 19 -128 35 -16 49 -14 79 13 37 31 39
86 4 115 -32 26 -68 26 -102 0z m80 -15 c41 -28 22 -94 -28 -94 -20 0 -35 8
-46 25 -20 31 -15 56 16 72 32 16 31 16 58 -3z"/>
<path d="M12407 4765 l6 -55 -302 0 -301 0 0 -105 0 -105 300 0 300 0 0 -52 0
-51 73 69 c39 38 83 79 97 89 52 41 55 51 23 82 -16 15 -44 41 -63 56 -19 16
-58 51 -87 78 l-52 50 6 -56z m79 -53 c23 -20 56 -49 73 -65 38 -34 39 -53 4
-80 -16 -12 -49 -41 -74 -64 -25 -24 -49 -43 -53 -43 -3 0 -6 15 -6 34 l0 34
-302 -1 -303 -2 -3 78 -3 77 278 2 c153 1 290 1 306 0 25 -2 27 1 27 33 0 19
3 35 8 35 4 0 26 -17 48 -38z"/>
<path d="M10410 4783 c-27 -35 -21 -89 12 -115 30 -23 54 -22 89 3 23 16 29
28 29 59 0 73 -87 108 -130 53z m102 -29 c17 -37 -4 -74 -40 -74 -58 0 -83 72
-34 96 31 16 61 7 74 -22z"/>
<path d="M2564 4788 c-28 -13 -47 -54 -38 -82 10 -35 46 -66 74 -66 77 0 106
111 39 145 -32 17 -46 18 -75 3z m69 -25 c28 -32 26 -76 -5 -90 -32 -14 -66 1
-79 34 -9 24 -7 31 16 50 31 28 47 29 68 6z"/>
<path d="M9625 4788 c-29 -16 -35 -28 -35 -70 0 -69 79 -100 132 -51 27 24 23
78 -7 108 -26 27 -58 31 -90 13z m75 -28 c36 -36 18 -90 -30 -90 -59 0 -82 71
-30 97 33 17 37 16 60 -7z"/>
<path d="M9660 4740 c0 -5 5 -10 10 -10 6 0 10 5 10 10 0 6 -4 10 -10 10 -5 0
-10 -4 -10 -10z"/>
<path d="M10010 4780 c-31 -31 -27 -93 7 -120 74 -58 165 49 98 115 -30 31
-77 33 -105 5z m87 -12 c31 -39 12 -98 -30 -98 -51 1 -75 54 -40 92 19 21 56
24 70 6z"/>
<path d="M4327 4736 l6 -56 -312 0 -312 0 3 -102 3 -103 305 -2 305 -2 0 -51
c-1 -27 0 -50 1 -50 2 0 30 27 64 60 33 33 81 76 105 96 25 20 45 44 45 54 0
10 -28 42 -62 72 -35 29 -76 64 -92 78 -16 14 -37 33 -47 44 -17 18 -18 17
-12 -38z m79 -51 c54 -47 104 -98 104 -105 0 -9 -136 -143 -151 -148 -5 -2 -9
12 -9 32 l0 36 -310 0 -311 0 3 78 3 77 308 3 307 2 0 37 0 36 22 -19 c12 -10
28 -23 34 -29z"/>
<path d="M8078 4740 l5 -50 -304 -2 -304 -3 0 -102 0 -103 304 0 304 0 -5 -50
c-3 -27 -4 -50 -2 -50 2 0 14 10 27 23 12 12 60 56 105 97 45 41 82 80 82 87
0 7 -23 34 -52 60 -28 26 -60 56 -70 66 -10 9 -21 17 -24 17 -3 0 -17 14 -31
30 -13 17 -28 30 -32 30 -5 0 -6 -22 -3 -50z m106 -74 c42 -38 76 -73 76 -78
0 -9 -117 -122 -152 -147 -19 -13 -20 -11 -16 25 l3 39 -297 -3 -296 -3 -4 73
c-2 40 -2 79 0 86 3 9 72 12 301 12 l297 0 -4 36 c-3 23 -1 35 6 33 6 -2 45
-35 86 -73z"/>
<path d="M13217 4634 c-4 -4 -7 -18 -7 -31 0 -21 4 -24 28 -21 21 2 27 8 27
28 0 18 -6 26 -20 28 -12 2 -24 0 -28 -4z"/>
<path d="M13334 4625 c-10 -25 4 -45 31 -45 21 0 25 5 25 30 0 25 -4 30 -25
30 -14 0 -28 -7 -31 -15z"/>
<path d="M13474 4625 c-8 -20 13 -45 37 -45 19 0 35 33 24 50 -10 16 -55 12
-61 -5z"/>
<path d="M6328 4623 c-9 -2 -24 -20 -33 -39 -15 -31 -15 -37 0 -68 30 -63 113
-58 135 8 9 28 8 40 -4 64 -20 39 -47 49 -98 35z m71 -32 c18 -11 17 -71 -1
-82 -16 -11 -59 -11 -74 -1 -38 26 -14 92 34 92 15 0 33 -4 41 -9z"/>
<path d="M5520 4598 c-29 -32 -34 -61 -16 -96 31 -59 101 -57 134 5 18 32 15
48 -14 82 -32 38 -74 41 -104 9z m88 -20 c21 -21 14 -66 -13 -84 -22 -15 -29
-15 -51 -4 -33 18 -42 55 -19 80 20 22 65 26 83 8z"/>
<path d="M5922 4601 c-12 -10 -25 -32 -28 -49 -5 -26 -1 -36 25 -63 26 -25 37
-30 59 -24 72 18 90 85 36 139 -21 22 -66 20 -92 -3z m86 -23 c22 -22 14 -64
-15 -83 -30 -20 -46 -14 -70 26 -14 24 -14 27 3 47 20 24 63 29 82 10z"/>
<path d="M9218 4433 c-35 -36 -36 -72 -3 -107 39 -42 105 -30 123 24 19 52 -7
94 -64 106 -23 4 -34 0 -56 -23z m90 -15 c7 -7 12 -26 12 -43 0 -58 -72 -73
-100 -20 -11 20 -10 28 4 50 18 27 63 34 84 13z"/>
<path d="M10000 4440 c-27 -27 -27 -90 0 -115 31 -28 87 -25 111 6 57 75 -45
175 -111 109z m100 -31 c15 -26 5 -65 -18 -78 -26 -14 -82 12 -82 39 0 40 18
60 55 60 25 0 37 -6 45 -21z"/>
<path d="M10415 4443 c-29 -29 -36 -61 -20 -92 37 -72 145 -46 145 34 0 43
-32 75 -75 75 -18 0 -41 -7 -50 -17z m83 -23 c28 -26 28 -44 1 -71 -22 -22
-66 -20 -81 4 -16 25 -8 64 15 75 32 15 41 14 65 -8z"/>
<path d="M10812 4445 c-35 -26 -45 -60 -26 -96 30 -59 101 -64 129 -8 18 33
13 80 -9 98 -24 20 -70 23 -94 6z m85 -44 c14 -29 4 -55 -28 -71 -46 -25 -94
51 -57 88 21 21 71 10 85 -17z"/>
<path d="M2163 4430 c-28 -17 -33 -25 -33 -57 1 -51 28 -83 72 -83 82 0 109
108 37 145 -36 19 -38 19 -76 -5z m79 -27 c10 -9 18 -26 18 -39 0 -24 -33 -54
-59 -54 -21 0 -51 30 -51 52 0 51 54 76 92 41z"/>
<path d="M2946 4429 c-35 -27 -36 -86 -3 -117 74 -69 174 42 102 113 -30 30
-64 32 -99 4z m98 -44 c8 -31 -7 -61 -34 -70 -29 -9 -70 20 -70 48 0 67 88 85
104 22z"/>
<path d="M9613 4433 c-17 -11 -23 -25 -23 -53 0 -75 71 -114 123 -66 74 69
-17 178 -100 119z m85 -19 c41 -29 19 -94 -33 -94 -55 0 -74 73 -25 97 32 16
31 16 58 -3z"/>
<path d="M6328 4273 c-55 -14 -61 -111 -8 -138 53 -27 95 -11 109 42 18 66
-32 114 -101 96z m83 -55 c10 -38 -14 -68 -53 -68 -34 0 -57 23 -58 58 0 26
30 42 74 39 23 -2 31 -8 37 -29z"/>
<path d="M5122 4250 c-48 -45 -14 -130 50 -130 38 0 78 40 78 79 0 60 -83 92
-128 51z m94 -25 c28 -43 -9 -95 -59 -79 -28 9 -37 22 -37 57 0 19 7 30 23 37
37 15 56 11 73 -15z"/>
<path d="M5535 4258 c-52 -28 -59 -76 -17 -118 24 -24 34 -27 62 -21 72 14 92
104 30 136 -34 18 -48 18 -75 3z m73 -20 c16 -16 15 -73 0 -85 -27 -21 -48
-21 -73 -1 -21 16 -25 26 -20 46 11 45 65 68 93 40z"/>
<path d="M6694 4244 c-21 -22 -25 -33 -20 -57 9 -44 34 -67 71 -67 48 0 79 29
79 75 0 71 -78 100 -130 49z m87 -4 c37 -20 15 -100 -27 -100 -34 0 -54 20
-54 55 0 47 37 68 81 45z"/>
<path d="M8843 4110 c-77 -31 -57 -150 24 -150 58 0 99 61 73 109 -9 17 -60
53 -72 50 -2 0 -13 -4 -25 -9z m73 -45 c14 -22 15 -30 4 -50 -28 -52 -100 -34
-100 26 0 51 68 67 96 24z"/>
<path d="M9605 4095 c-32 -31 -33 -76 -1 -109 36 -40 92 -33 120 15 47 79 -55
159 -119 94z m99 -21 c18 -47 -1 -84 -43 -84 -54 1 -78 45 -44 82 20 23 78 24
87 2z"/>
<path d="M9212 4087 c-31 -33 -28 -77 6 -110 34 -32 60 -34 96 -6 33 26 37 88
6 119 -28 28 -81 26 -108 -3z m86 -13 c28 -20 30 -69 3 -84 -43 -22 -91 -1
-91 41 0 21 33 59 53 59 7 0 23 -7 35 -16z"/>
<path d="M10400 4088 c-43 -46 -9 -128 52 -128 40 0 57 10 74 42 13 25 13 35
3 59 -6 17 -20 34 -30 39 -31 17 -77 11 -99 -12z m92 -15 c22 -20 23 -51 1
-75 -21 -24 -48 -23 -74 3 -22 22 -19 55 9 77 22 16 42 15 64 -5z"/>
<path d="M10805 4096 c-14 -10 -20 -26 -20 -54 0 -52 27 -82 71 -82 62 0 98
86 54 130 -23 23 -77 27 -105 6z m89 -22 c17 -16 21 -51 8 -71 -15 -24 -59
-26 -81 -4 -27 27 -27 56 1 75 29 20 52 20 72 0z"/>
<path d="M11210 4097 c-52 -26 -52 -100 0 -130 51 -30 110 7 110 69 0 60 -54
89 -110 61z m54 -18 c31 -14 40 -47 20 -76 -18 -29 -48 -29 -75 -2 -22 22 -18
55 10 76 20 15 16 15 45 2z"/>
<path d="M3066 3031 c-64 -43 -86 -123 -45 -175 11 -14 28 -26 38 -26 25 0 61
42 61 72 0 46 -10 58 -46 58 -23 0 -34 5 -34 14 0 17 46 56 66 56 8 0 14 5 14
10 0 15 -22 12 -54 -9z m22 -129 c2 -31 -1 -44 -13 -48 -23 -9 -45 15 -45 51
0 38 7 47 35 43 16 -2 21 -12 23 -46z"/>
<path d="M3194 3039 c-12 -4 -24 -14 -27 -23 -8 -19 -3 -20 22 -4 44 27 72
-26 29 -56 -12 -9 -20 -17 -17 -18 2 -2 13 -8 24 -14 49 -27 15 -82 -41 -68
-20 5 -26 3 -22 -7 8 -25 56 -22 83 5 29 29 32 62 9 88 -14 14 -14 20 -4 33
16 19 5 61 -18 67 -10 3 -27 2 -38 -3z"/>
<path d="M2172 2973 c-17 -38 -36 -80 -41 -95 -6 -16 -15 -28 -21 -28 -5 0
-10 -4 -10 -10 0 -5 11 -10 25 -10 21 0 25 4 20 23 -8 36 7 49 56 45 43 -3 44
-4 43 -35 -2 -31 0 -33 34 -33 32 0 34 1 20 18 -17 20 -39 67 -64 140 -10 28
-21 52 -25 52 -3 0 -20 -30 -37 -67z m46 -16 c16 -46 16 -47 -18 -47 -33 0
-35 3 -19 49 14 40 22 39 37 -2z"/>
<path d="M2340 2845 c0 -8 7 -15 15 -15 8 0 15 7 15 15 0 8 -7 15 -15 15 -8 0
-15 -7 -15 -15z"/>
<path d="M2128 2248 c3 -61 1 -93 -8 -103 -11 -13 -4 -15 58 -15 63 0 71 2 86
25 20 30 20 49 2 64 -9 8 -12 24 -9 49 7 49 -10 63 -79 65 l-54 2 4 -87z m93
62 c41 -23 16 -70 -38 -70 -28 0 -33 3 -33 24 0 54 25 70 71 46z m13 -96 c9
-8 16 -21 16 -28 0 -23 -37 -48 -67 -44 -22 2 -29 9 -31 31 -2 16 -1 35 2 43
7 19 61 18 80 -2z"/>
<path d="M3035 2333 c-20 -5 -35 -20 -35 -36 0 -4 9 -3 19 3 11 5 34 10 51 10
35 0 36 6 -6 -110 -13 -36 -19 -69 -15 -73 5 -5 12 -4 15 2 4 6 5 11 2 11 -2
0 11 42 29 94 l33 94 -30 6 c-32 6 -32 6 -63 -1z"/>
<path d="M3229 2333 c-24 -4 -44 -28 -51 -61 -2 -8 12 -19 31 -25 48 -17 58
-51 26 -83 -21 -21 -27 -23 -44 -12 -21 13 -37 6 -26 -11 3 -6 19 -11 35 -11
65 0 95 89 44 129 -15 12 -33 21 -40 21 -8 0 -11 6 -8 15 4 9 19 15 40 15 24
0 34 5 34 15 0 8 -3 14 -7 14 -5 -1 -20 -4 -34 -6z"/>
<path d="M2330 2145 c0 -8 7 -15 15 -15 8 0 15 7 15 15 0 8 -7 15 -15 15 -8 0
-15 -7 -15 -15z"/>
<path d="M3200 1627 c-30 -24 -43 -64 -38 -116 13 -130 121 -112 120 19 -1 29
-5 56 -9 59 -4 3 -13 15 -19 26 -13 24 -34 29 -54 12z m53 -55 c12 -61 -3
-126 -30 -130 -18 -3 -24 4 -33 38 -11 42 -5 105 13 128 19 24 41 8 50 -36z"/>
<path d="M2145 1608 c-31 -27 -44 -93 -26 -137 22 -52 97 -68 145 -30 36 29
25 36 -12 9 -27 -20 -34 -21 -66 -10 -27 9 -37 19 -44 43 -21 77 19 145 78
132 19 -4 36 -16 42 -31 16 -34 25 -30 20 9 -4 32 -5 33 -57 35 -43 2 -59 -2
-80 -20z"/>
<path d="M3023 1623 c-18 -7 -16 -53 3 -74 15 -17 15 -20 -4 -44 -22 -28 -20
-51 6 -72 23 -18 56 -16 75 5 23 25 21 51 -4 78 l-21 22 21 21 c21 21 19 48
-3 63 -12 9 -54 9 -73 1z m55 -15 c14 -14 15 -28 4 -46 -13 -19 -42 -3 -42 22
0 35 16 46 38 24z m7 -129 c9 -28 -12 -51 -35 -39 -18 9 -19 47 -4 72 8 12 32
-9 39 -33z"/>
<path d="M2331 1441 c-10 -6 -10 -10 -1 -16 13 -8 24 -1 19 14 -3 6 -10 7 -18
2z"/>
<path d="M3021 909 c-41 -44 -12 -134 36 -114 16 6 16 8 -4 16 -19 7 -23 16
-23 49 0 45 19 61 46 39 13 -11 15 -25 10 -68 -7 -58 -25 -87 -66 -104 -20 -8
-22 -11 -8 -14 40 -10 108 71 108 128 0 67 -61 109 -99 68z"/>
<path d="M3187 918 c-9 -7 -20 -30 -24 -51 -8 -50 16 -79 59 -70 29 6 30 5 18
-16 -6 -13 -25 -30 -41 -39 -16 -10 -29 -20 -29 -24 0 -11 7 -10 38 6 51 26
79 82 73 146 -4 42 -62 71 -94 48z m51 -16 c18 -12 23 -69 7 -82 -22 -18 -48
-7 -56 24 -13 48 14 80 49 58z"/>
<path d="M2113 913 c14 -4 17 -17 17 -88 0 -46 -4 -87 -10 -90 -24 -15 -6 -22
48 -18 80 5 107 18 127 63 14 32 15 44 5 74 -16 49 -52 66 -137 65 -37 -1 -60
-3 -50 -6z m129 -20 c20 -12 39 -66 33 -94 -9 -39 -51 -71 -89 -67 l-31 3 -3
74 c-4 98 -1 105 46 96 20 -4 40 -9 44 -12z"/>
<path d="M2345 740 c-7 -12 2 -30 15 -30 5 0 8 9 7 20 -1 21 -12 26 -22 10z"/>
</g>
</svg>
