<?xml version="1.0" standalone="no"?>
<!DOCTYPE svg PUBLIC "-//W3C//DTD SVG 20010904//EN"
 "http://www.w3.org/TR/2001/REC-SVG-20010904/DTD/svg10.dtd">
<svg version="1.0" xmlns="http://www.w3.org/2000/svg"
 width="1459.000000pt" height="752.000000pt" viewBox="0 0 1459.000000 752.000000"
 preserveAspectRatio="xMidYMid meet">
<metadata>
Created by potrace 1.16, written by Peter Selinger 2001-2019
</metadata>
<g transform="translate(0.000000,752.000000) scale(0.100000,-0.100000)"
fill="#000000" stroke="none">
<path d="M1589 7218 c-1 -18 -1 -54 1 -80 l2 -48 -47 0 -46 0 3 43 c2 33 7 42
21 41 28 -3 19 13 -10 18 l-28 4 0 -64 0 -64 53 4 52 3 2 -60 2 -60 3 58 4 57
54 0 55 0 0 65 c0 36 -3 65 -7 64 -5 0 -24 -7 -43 -15 l-35 -14 30 3 c29 2 30
0 33 -40 l3 -43 -46 0 -46 0 3 80 c2 44 0 80 -4 80 -4 0 -9 -15 -9 -32z"/>
<path d="M1140 7103 c0 -104 3 -134 13 -130 6 2 10 11 9 18 -4 15 -4 50 -3
162 l1 68 108 -3 107 -3 0 -117 c0 -64 3 -120 8 -124 4 -4 7 53 7 127 l0 134
-125 1 -125 2 0 -135z"/>
<path d="M3518 7234 c-5 -4 -8 -16 -8 -26 0 -24 -21 -23 -27 2 -3 11 -9 20
-14 20 -13 0 -11 -14 3 -28 9 -9 6 -12 -15 -12 -15 0 -27 -4 -27 -10 0 -6 15
-8 36 -4 l37 6 -8 -38 c-8 -45 -30 -91 -57 -121 -11 -12 -18 -27 -16 -33 2 -6
17 9 34 33 l32 44 86 1 c82 1 86 0 86 -21 0 -47 -12 -67 -39 -68 -26 0 -26 0
-4 -11 31 -15 49 2 57 55 9 56 7 63 -17 59 -17 -3 -19 0 -14 28 6 26 4 30 -11
28 -13 -2 -16 3 -14 25 3 25 0 27 -38 27 -22 0 -40 -4 -40 -9 0 -4 12 -8 28
-7 41 2 35 -28 -8 -35 l-35 -6 35 -3 c19 -2 42 -3 50 -4 8 -1 15 -10 15 -21 0
-18 -8 -20 -69 -23 -63 -3 -68 -1 -61 15 4 10 9 27 12 38 3 11 9 29 15 41 11
23 7 70 -4 58z"/>
<path d="M266 7209 c-11 -10 -17 -22 -13 -25 3 -4 13 1 22 10 22 22 41 20 59
-5 18 -27 13 -41 -41 -112 l-44 -58 63 3 c54 3 63 6 66 23 3 16 1 18 -9 8 -14
-14 -79 -18 -79 -5 0 5 14 21 30 37 17 16 36 46 42 67 10 33 9 41 -7 58 -23
25 -64 25 -89 -1z"/>
<path d="M420 7205 c-25 -27 -17 -35 10 -10 22 20 59 8 66 -21 7 -27 -22 -78
-72 -127 l-28 -28 65 3 c55 3 64 6 66 23 2 11 0 14 -3 8 -3 -8 -24 -13 -47
-13 l-41 0 26 28 c61 66 74 114 40 145 -26 24 -55 21 -82 -8z"/>
<path d="M4113 7095 c1 -71 5 -131 7 -133 3 -2 13 0 23 3 9 4 63 6 120 3 l102
-3 0 130 0 130 -127 0 -128 0 3 -130z m65 88 c-2 -15 2 -28 10 -30 7 -3 10 1
6 11 -5 13 2 16 32 18 l39 1 -37 4 c-71 8 -40 24 40 21 l77 -3 3 -112 3 -113
-111 0 -110 0 0 115 0 115 26 0 c22 0 25 -4 22 -27z"/>
<path d="M4277 7170 c3 -11 9 -20 14 -20 5 0 9 9 9 20 0 11 -6 20 -14 20 -9 0
-12 -7 -9 -20z"/>
<path d="M4162 7086 c0 -49 2 -55 21 -58 20 -3 20 -5 -8 -20 -16 -10 -24 -17
-17 -18 8 0 27 9 43 21 16 11 37 19 46 18 59 -6 63 -2 63 57 0 30 -4 53 -8 50
-5 -3 -7 -25 -6 -50 l2 -46 -59 0 -60 0 3 47 c2 27 -2 48 -8 50 -7 2 -12 -15
-12 -51z"/>
<path d="M4218 7093 c7 -3 16 -2 19 1 4 3 -2 6 -13 5 -11 0 -14 -3 -6 -6z"/>
<path d="M4290 7012 c0 -5 7 -13 16 -16 10 -4 14 -1 12 6 -5 15 -28 23 -28 10z"/>
<path d="M4977 7217 c-3 -9 -22 -17 -44 -20 l-38 -4 42 -1 c35 -2 42 -6 46
-24 l4 -23 2 23 c1 15 7 22 21 22 11 0 20 5 20 11 0 6 -7 9 -15 5 -8 -3 -18 2
-23 11 -8 14 -10 14 -15 0z"/>
<path d="M5078 7209 c-10 -10 -13 -19 -8 -19 6 0 10 -8 10 -17 1 -17 1 -17 14
0 8 11 27 17 50 17 22 0 35 4 31 10 -3 5 -21 9 -38 7 -21 -1 -31 2 -29 11 3
17 -10 14 -30 -9z"/>
<path d="M2720 7207 c-41 -14 -80 -75 -80 -125 0 -40 38 -82 74 -82 28 0 76
19 76 31 0 4 -13 1 -30 -7 -85 -43 -132 65 -64 146 14 16 34 30 45 30 10 0 19
5 19 10 0 6 -1 10 -2 9 -2 0 -19 -5 -38 -12z"/>
<path d="M1217 7203 c-11 -10 -8 -43 3 -43 6 0 10 11 10 25 0 26 -2 29 -13 18z"/>
<path d="M1303 7190 c-6 -15 -7 -26 -1 -29 15 -5 20 5 16 31 l-5 23 -10 -25z"/>
<path d="M2371 7178 c-11 -18 -31 -46 -43 -63 -86 -112 -82 -105 -59 -105 14
0 21 6 21 18 0 26 20 42 52 42 30 0 39 -25 16 -48 -9 -9 -4 -12 23 -12 21 0
29 3 21 8 -9 6 -10 30 -4 100 4 51 5 92 1 92 -4 0 -16 -15 -28 -32z m7 -55
c-2 -20 -9 -29 -26 -31 -23 -4 -23 -3 -7 27 19 38 37 40 33 4z"/>
<path d="M2504 7183 c-1 -37 -32 -143 -46 -160 -19 -23 105 -18 125 5 20 22
22 68 5 75 -9 3 -6 12 10 29 42 46 20 78 -55 78 -35 0 -38 -2 -39 -27z m84
-15 c3 -22 -2 -30 -22 -39 l-25 -12 22 -18 c21 -17 21 -19 7 -46 -11 -20 -25
-29 -48 -31 -37 -4 -38 1 -15 72 34 105 35 107 57 104 15 -2 22 -11 24 -30z"/>
<path d="M2782 7198 c8 -7 20 -21 25 -32 9 -16 11 -15 15 13 4 29 2 31 -26 31
-25 0 -28 -2 -14 -12z"/>
<path d="M2897 7190 c3 -11 1 -31 -5 -43 -5 -12 -15 -42 -22 -67 -7 -25 -16
-50 -21 -56 -14 -17 33 -26 87 -18 66 10 104 51 104 113 0 68 -15 84 -88 89
-58 4 -61 3 -55 -18z m110 -11 c21 -18 16 -92 -8 -122 -22 -29 -95 -55 -111
-39 -6 6 -4 26 5 53 8 24 20 64 27 88 11 41 13 43 42 37 17 -3 37 -11 45 -17z"/>
<path d="M3117 7173 c-8 -60 -27 -126 -43 -150 l-14 -23 73 0 c68 0 75 2 87
25 7 14 11 28 7 31 -3 3 -10 -3 -16 -14 -12 -23 -60 -37 -90 -27 -18 5 -19 9
-7 43 9 25 20 38 34 40 12 2 22 -1 22 -7 0 -25 18 -9 22 19 3 17 1 30 -4 30
-4 0 -8 -4 -8 -10 0 -5 -12 -10 -26 -10 -20 0 -25 4 -20 16 3 9 9 27 12 41 6
22 10 24 43 18 20 -4 39 -12 43 -18 5 -7 8 -3 8 11 0 20 -4 22 -59 22 l-59 0
-5 -37z"/>
<path d="M5750 7202 c-57 -26 -80 -62 -80 -126 0 -36 5 -48 26 -65 34 -26 72
-26 104 0 21 17 22 19 3 10 -59 -29 -113 -1 -113 58 0 87 117 160 136 85 8
-33 21 -30 26 6 4 23 1 30 -12 30 -10 0 -30 2 -46 5 -16 2 -36 1 -44 -3z"/>
<path d="M9130 7200 c0 -5 7 -10 15 -10 8 0 15 5 15 10 0 6 -7 10 -15 10 -8 0
-15 -4 -15 -10z"/>
<path d="M9199 7203 c-25 -4 -27 -8 -31 -76 -5 -74 -20 -115 -58 -155 -28 -29
-21 -39 8 -12 27 25 62 92 62 118 0 21 34 32 101 32 45 0 47 -6 18 -54 -26
-44 -39 -45 -63 -5 -10 17 -21 28 -24 25 -3 -4 4 -20 16 -36 12 -16 22 -33 22
-38 0 -5 -25 -19 -56 -32 -31 -14 -51 -26 -45 -28 7 -2 36 8 65 22 l54 26 36
-20 c19 -12 45 -20 58 -18 19 3 14 7 -24 22 -27 10 -48 25 -48 32 0 7 14 33
30 57 38 56 38 65 -1 59 l-32 -5 7 47 c6 38 4 46 -8 46 -9 0 -15 -8 -14 -17 1
-10 0 -31 0 -46 -2 -26 -5 -28 -42 -25 -38 2 -40 3 -40 35 0 31 2 33 38 33 27
0 33 3 22 10 -8 5 -17 9 -20 8 -3 0 -17 -3 -31 -5z"/>
<path d="M11940 7200 l-55 -5 0 -93 c0 -68 3 -91 12 -88 24 9 22 -11 -3 -38
-14 -14 -24 -31 -22 -37 2 -6 19 11 38 36 30 40 39 46 62 41 l27 -5 3 95 c2
53 1 97 -2 98 -3 1 -30 -1 -60 -4z m40 -41 c0 -16 -7 -19 -40 -19 -33 0 -40 3
-40 19 0 15 8 21 33 23 41 4 47 1 47 -23z m0 -54 c0 -22 -4 -25 -40 -25 -36 0
-40 3 -40 25 0 23 4 25 40 25 36 0 40 -2 40 -25z m0 -55 c0 -17 -7 -20 -40
-20 -33 0 -40 3 -40 20 0 17 7 20 40 20 33 0 40 -3 40 -20z"/>
<path d="M12110 7085 l0 -125 -27 0 -28 0 25 -14 c14 -7 28 -10 32 -7 9 8 15
271 6 271 -5 0 -8 -56 -8 -125z"/>
<path d="M5591 7176 c-8 -13 -11 -29 -7 -34 3 -5 3 -24 0 -41 -5 -21 -12 -31
-25 -31 -23 0 -24 9 -3 38 9 13 14 25 12 27 -3 4 -98 -119 -106 -137 -2 -5 6
-8 17 -8 15 0 21 6 21 23 0 31 18 47 52 47 30 0 39 -25 16 -48 -16 -16 -5 -24
18 -15 16 7 19 20 21 78 1 39 4 82 7 98 7 33 -6 35 -23 3z"/>
<path d="M6270 7170 c0 -33 -36 -147 -54 -169 -9 -11 0 -12 54 -8 53 5 69 11
87 32 22 25 22 52 0 66 -5 4 0 20 13 36 19 27 20 33 9 52 -11 17 -24 21 -61
21 -47 0 -48 -1 -48 -30z m78 8 c27 -27 2 -68 -42 -68 -18 0 -20 18 -6 54 10
28 29 33 48 14z m-10 -91 c25 -30 -6 -77 -50 -77 -29 0 -30 1 -23 37 4 21 9
41 11 45 8 13 51 9 62 -5z"/>
<path d="M6460 7173 c-1 -42 -35 -156 -48 -161 -32 -10 -5 -20 52 -18 75 3
119 30 136 86 14 49 13 55 -16 89 -22 27 -32 31 -75 31 -47 0 -49 -1 -49 -27z
m101 -4 c18 -18 20 -30 16 -67 -6 -57 -41 -92 -93 -92 -37 0 -42 12 -24 66 5
16 14 48 20 72 9 35 15 42 35 42 14 0 35 -10 46 -21z"/>
<path d="M7450 7193 c-1 -5 -39 -48 -85 -98 -47 -49 -85 -93 -85 -97 0 -5 43
-8 95 -8 116 0 128 18 15 22 l-79 3 79 84 c44 46 80 88 80 93 0 10 -20 11 -20
1z"/>
<path d="M7670 7189 c0 -6 -12 -26 -27 -44 -16 -18 -39 -50 -53 -70 -14 -21
-36 -48 -49 -61 l-24 -24 27 0 c16 0 26 5 24 13 -5 27 22 57 52 57 25 0 30 -4
30 -23 0 -13 -5 -28 -12 -35 -9 -9 -5 -12 21 -12 28 0 32 2 21 15 -9 11 -10
33 -1 96 13 100 13 99 1 99 -5 0 -10 -5 -10 -11z m-14 -105 c-5 -13 -46 -21
-46 -8 0 3 10 20 23 37 21 31 22 31 25 9 2 -13 1 -30 -2 -38z"/>
<path d="M7783 7185 c8 -19 -39 -177 -56 -187 -6 -4 21 -8 62 -8 59 0 77 4 87
18 19 25 17 38 -3 20 -10 -9 -37 -19 -60 -23 -48 -8 -50 -5 -31 56 11 37 30
50 43 29 11 -17 22 -11 27 15 4 21 2 23 -13 15 -27 -15 -39 -12 -39 9 0 40 11
51 51 51 24 0 39 -5 39 -12 0 -9 4 -8 10 2 17 27 11 30 -56 30 -54 0 -65 -3
-61 -15z"/>
<path d="M7976 7185 c6 -14 -27 -132 -47 -167 -14 -27 -13 -28 42 -28 93 0
149 47 149 124 0 56 -35 86 -99 86 -40 0 -49 -3 -45 -15z m112 -35 c11 -20 12
-33 3 -68 -13 -48 -40 -70 -91 -74 -32 -3 -35 -1 -33 22 2 14 11 53 20 88 18
63 18 63 53 60 25 -2 38 -10 48 -28z"/>
<path d="M8467 7182 c-22 -24 -22 -74 1 -101 14 -18 21 -20 42 -12 25 10 25
10 2 10 -42 2 -55 90 -16 105 22 8 54 -21 54 -49 0 -66 -15 -94 -75 -141 -19
-15 -19 -15 5 -8 50 13 100 82 100 139 0 59 -76 98 -113 57z"/>
<path d="M8648 7160 c-32 -34 -38 -48 -38 -83 0 -57 22 -87 64 -87 27 0 36 6
51 34 17 31 17 38 5 61 -18 33 -41 47 -61 34 -12 -7 -11 -9 3 -9 35 0 52 -76
23 -100 -36 -30 -75 30 -54 84 22 61 32 75 60 85 34 12 37 21 7 21 -12 0 -38
-18 -60 -40z"/>
<path d="M8782 7188 c-7 -7 -12 -21 -12 -33 0 -47 62 -63 81 -21 22 47 -33 90
-69 54z m56 -32 c2 -10 -2 -22 -9 -26 -20 -13 -39 0 -39 27 0 20 4 24 22 21
13 -2 24 -11 26 -22z"/>
<path d="M9963 7178 c5 -18 -24 -133 -42 -167 -7 -12 -10 -21 -9 -22 2 0 13
-2 26 -3 16 -2 21 1 17 12 -10 26 14 92 33 92 25 0 42 -20 42 -48 0 -17 -8
-27 -30 -35 -32 -12 -41 -29 -12 -24 53 9 82 49 62 87 -9 17 -8 25 4 39 9 10
16 29 16 44 0 28 -18 38 -77 41 -28 1 -33 -2 -30 -16z m71 -4 c36 -14 8 -74
-33 -74 -23 0 -26 15 -11 54 10 27 17 30 44 20z"/>
<path d="M10185 7191 c-23 -5 -30 -12 -31 -31 -3 -40 -31 -141 -43 -153 -20
-20 -11 -24 55 -22 59 2 69 5 97 34 28 27 32 38 32 85 0 30 -2 57 -6 60 -15
16 -78 32 -104 27z m73 -27 c42 -29 25 -122 -27 -149 -30 -15 -91 -21 -91 -9
0 6 35 130 45 162 6 17 46 15 73 -4z"/>
<path d="M10404 7186 c-67 -30 -100 -135 -58 -184 24 -28 83 -30 115 -2 13 10
20 19 16 20 -5 0 -15 -7 -23 -15 -20 -20 -54 -19 -83 1 -20 15 -23 23 -19 66
7 66 47 110 97 106 28 -2 37 -8 42 -28 l6 -25 8 28 c4 15 6 30 4 32 -13 12
-78 13 -105 1z"/>
<path d="M11038 7134 c-27 -38 -48 -75 -48 -82 0 -7 15 -12 40 -12 38 0 40 -2
40 -30 0 -16 5 -30 10 -30 6 0 10 7 10 15 0 27 1 30 16 38 18 10 18 27 -1 27
-11 0 -15 17 -17 71 l-3 72 -47 -69z m29 -71 c-3 -2 -17 -3 -31 -1 l-26 3 28
45 27 45 3 -44 c2 -23 1 -45 -1 -48z"/>
<path d="M9739 7090 c-55 -55 -98 -100 -96 -100 48 -8 207 -7 207 0 0 6 -34
10 -80 10 -44 0 -80 3 -80 8 0 9 74 88 115 122 44 37 61 60 45 60 -7 0 -57
-45 -111 -100z"/>
<path d="M10885 7180 c-18 -8 -18 -9 -2 -9 17 -1 19 -9 15 -96 -2 -79 -1 -95
12 -95 13 0 14 17 12 105 -2 58 -6 105 -10 104 -4 0 -16 -4 -27 -9z"/>
<path d="M11161 7177 c-22 -27 -1 -77 33 -77 28 0 46 18 46 45 0 40 -53 62
-79 32z m54 -11 c16 -12 17 -16 6 -30 -26 -31 -62 -9 -47 29 7 19 17 19 41 1z"/>
<path d="M12050 7190 c-5 -47 -4 -180 1 -180 10 0 16 163 7 175 -5 5 -8 7 -8
5z"/>
<path d="M12505 7090 c-55 -56 -102 -103 -104 -106 -2 -2 45 -3 105 -2 l109 2
-87 3 c-49 2 -88 7 -88 12 0 4 38 45 86 90 47 46 84 87 82 92 -2 6 -48 -35
-103 -91z"/>
<path d="M12730 7183 c-23 -9 -60 -45 -76 -75 -20 -39 -17 -69 10 -103 31 -38
94 -42 128 -7 12 12 17 22 11 22 -6 0 -16 -7 -23 -15 -17 -21 -73 -19 -93 3
-35 38 -6 135 46 160 37 18 77 8 77 -18 0 -11 4 -20 9 -20 10 0 21 47 13 55
-7 6 -82 5 -102 -2z"/>
<path d="M12970 7163 c-7 -16 -12 -45 -11 -65 2 -35 0 -38 -24 -38 -27 0 -27
0 -10 26 9 14 15 28 12 30 -2 2 -21 -23 -41 -56 -20 -33 -45 -64 -54 -69 -15
-9 -15 -10 3 -11 13 0 25 11 33 30 11 23 20 30 43 30 24 0 29 -4 29 -24 0 -13
-6 -27 -12 -29 -7 -3 -1 -6 14 -6 24 -1 27 2 24 27 -2 15 1 60 6 101 5 40 7
75 5 77 -2 2 -10 -8 -17 -23z"/>
<path d="M13079 7177 c10 -10 4 -64 -9 -82 -4 -5 -11 -28 -15 -50 -4 -22 -11
-46 -17 -52 -8 -10 3 -13 50 -13 50 0 66 4 91 26 49 41 61 123 22 157 -18 17
-138 30 -122 14z m105 -23 c18 -17 21 -70 6 -108 -10 -29 -57 -56 -95 -56 -28
0 -29 6 -15 59 5 20 14 55 20 79 10 37 14 42 40 42 16 0 36 -7 44 -16z"/>
<path d="M1250 7150 c0 -16 6 -20 33 -19 23 1 26 3 10 6 -13 2 -23 11 -23 19
0 8 -4 14 -10 14 -5 0 -10 -9 -10 -20z"/>
<path d="M1325 7140 c-3 -5 3 -10 14 -10 12 0 21 5 21 10 0 6 -6 10 -14 10 -8
0 -18 -4 -21 -10z"/>
<path d="M5006 7135 c-4 -11 -20 -15 -56 -15 -31 0 -50 -4 -50 -11 0 -8 14
-10 45 -6 35 5 45 3 45 -7 0 -17 -58 -81 -80 -88 -8 -3 -12 -9 -8 -13 4 -4 23
4 43 19 l35 27 0 -43 0 -43 86 3 c71 3 85 6 80 19 -3 8 -6 29 -6 46 l0 32 -76
-3 c-75 -4 -76 -4 -69 20 4 13 9 25 11 27 2 2 39 5 81 5 43 1 78 5 78 11 0 5
-31 8 -74 6 -64 -2 -73 -1 -68 13 4 9 2 16 -2 16 -5 0 -11 -7 -15 -15z m124
-125 l0 -30 -70 0 -70 0 0 30 0 30 70 0 70 0 0 -30z"/>
<path d="M1193 7133 c9 -2 23 -2 30 0 6 3 -1 5 -18 5 -16 0 -22 -2 -12 -5z"/>
<path d="M1920 7133 c0 -5 4 -15 10 -23 6 -9 5 -19 -3 -29 -10 -11 -9 -13 3
-9 21 7 26 68 6 68 -9 0 -16 -3 -16 -7z"/>
<path d="M4553 7123 c-7 -2 -13 -15 -13 -28 0 -28 34 -43 55 -25 37 30 3 72
-42 53z m37 -28 c0 -15 -6 -25 -14 -25 -19 0 -28 14 -20 34 10 25 34 19 34 -9z"/>
<path d="M1190 7065 c0 -48 2 -55 20 -55 11 0 20 5 20 10 0 6 -4 10 -10 10 -5
0 -10 18 -10 39 0 36 3 40 28 44 22 3 20 4 -10 6 l-38 1 0 -55z"/>
<path d="M1324 7080 c0 -24 -5 -44 -12 -49 -11 -6 -10 -10 3 -15 9 -3 19 -6
21 -6 2 0 4 25 4 55 0 30 -4 55 -9 55 -5 0 -8 -18 -7 -40z"/>
<path d="M3875 7110 l-130 -6 118 -3 c180 -5 177 -5 177 9 0 6 -8 9 -17 8 -10
-1 -76 -5 -148 -8z"/>
<path d="M5955 7110 c-4 -6 22 -10 75 -10 45 0 79 4 76 9 -8 12 -143 14 -151
1z"/>
<path d="M6882 7098 c17 -25 38 -35 38 -17 0 12 -29 38 -44 39 -5 0 -2 -10 6
-22z"/>
<path d="M11533 7092 c3 -16 1 -34 -6 -41 -6 -6 -7 -11 -1 -11 32 0 47 63 18
74 -14 5 -16 1 -11 -22z"/>
<path d="M8205 7099 c8 -11 144 -9 151 3 3 5 -31 8 -76 8 -54 0 -79 -3 -75
-11z"/>
<path d="M10648 7093 c23 -2 61 -2 85 0 23 2 4 4 -43 4 -47 0 -66 -2 -42 -4z"/>
<path d="M13310 7090 c0 -6 34 -10 81 -10 51 0 78 4 74 10 -3 6 -40 10 -81 10
-43 0 -74 -4 -74 -10z"/>
<path d="M1230 7065 c0 -22 4 -25 35 -25 31 0 35 3 35 25 0 22 -4 25 -35 25
-31 0 -35 -3 -35 -25z m60 0 c0 -9 -9 -15 -25 -15 -16 0 -25 6 -25 15 0 9 9
15 25 15 16 0 25 -6 25 -15z"/>
<path d="M5950 7050 c0 -6 34 -10 81 -10 51 0 78 4 74 10 -3 6 -40 10 -81 10
-43 0 -74 -4 -74 -10z"/>
<path d="M3620 7043 c0 -4 5 -15 10 -23 8 -13 10 -13 10 2 0 9 -4 20 -10 23
-5 3 -10 3 -10 -2z"/>
<path d="M8204 7042 c8 -13 143 -15 151 -3 4 8 -21 11 -75 11 -45 0 -79 -4
-76 -8z"/>
<path d="M575 7031 c-6 -11 9 -23 19 -14 9 9 7 23 -3 23 -6 0 -12 -4 -16 -9z"/>
<path d="M3522 7016 c1 -15 6 -26 10 -26 12 0 10 38 -2 45 -6 4 -9 -5 -8 -19z"/>
<path d="M3570 7021 c0 -11 5 -23 10 -26 6 -3 10 3 10 14 0 11 -4 23 -10 26
-5 3 -10 -3 -10 -14z"/>
<path d="M10613 7034 c10 -11 157 -14 157 -4 0 6 -36 10 -82 10 -45 0 -79 -3
-75 -6z"/>
<path d="M13310 7029 c0 -5 34 -9 75 -9 41 0 75 4 75 9 0 5 -34 9 -75 9 -41 0
-75 -4 -75 -9z"/>
<path d="M1253 7023 c9 -2 23 -2 30 0 6 3 -1 5 -18 5 -16 0 -22 -2 -12 -5z"/>
<path d="M3475 7004 c-11 -17 -12 -25 -4 -22 6 2 16 14 20 26 11 29 5 28 -16
-4z"/>
<path d="M11970 6994 c0 -7 9 -22 20 -35 10 -13 19 -19 20 -13 0 7 -9 22 -20
35 -10 13 -19 19 -20 13z"/>
<path d="M1188 6983 c7 -3 16 -2 19 1 4 3 -2 6 -13 5 -11 0 -14 -3 -6 -6z"/>
<path d="M10914 6601 c-48 -21 -77 -59 -82 -111 -4 -46 -2 -53 24 -75 16 -14
39 -25 52 -25 28 0 82 27 82 40 0 6 -16 1 -36 -9 -37 -20 -57 -19 -86 7 -57
48 37 197 102 162 11 -6 20 -20 20 -30 0 -31 17 -23 22 10 3 19 0 30 -7 30 -7
0 -25 2 -41 5 -16 2 -38 0 -50 -4z"/>
<path d="M11928 6510 c-7 -3 -13 -12 -14 -20 -2 -32 -47 -170 -55 -170 -5 0
-9 -4 -9 -10 0 -17 90 -11 121 7 34 20 47 56 29 78 -9 11 -7 20 10 43 19 25
20 32 9 50 -13 20 -65 33 -91 22z m53 -20 c25 -14 24 -35 -3 -54 -44 -31 -59
-16 -38 38 11 29 13 30 41 16z m-17 -86 c23 -9 21 -61 -3 -74 -52 -27 -74 -4
-51 54 10 26 24 31 54 20z"/>
<path d="M2090 6400 c0 -18 -81 -184 -93 -192 -7 -4 1 -8 19 -8 27 0 31 3 27
23 -6 31 18 49 59 45 30 -3 33 -6 33 -35 0 -31 2 -33 33 -33 l33 0 -18 23
c-10 13 -31 60 -48 105 -27 73 -45 102 -45 72z m23 -82 l16 -33 -30 -3 c-39
-4 -41 -2 -27 36 15 40 22 40 41 0z"/>
<path d="M3022 6393 c-6 -10 -7 -39 -2 -66 7 -49 4 -55 -30 -62 -32 -6 -34 13
-5 51 15 19 25 38 22 40 -3 3 -22 -18 -41 -48 l-36 -53 47 -5 c39 -4 48 -9 48
-25 0 -11 5 -20 10 -20 6 0 9 10 7 23 -2 14 2 22 13 22 8 0 15 5 15 10 0 6 -7
10 -16 10 -13 0 -15 12 -13 65 2 70 -3 88 -19 58z"/>
<path d="M3280 6390 c-25 -25 -25 -32 -1 -61 16 -21 22 -22 45 -11 17 7 26 19
26 34 0 48 -40 68 -70 38z m45 -14 c16 -12 17 -16 6 -30 -21 -25 -51 -20 -51
7 0 39 14 46 45 23z"/>
<path d="M3142 6391 c-11 -7 -10 -9 3 -14 13 -6 15 -20 12 -88 -2 -56 -8 -83
-18 -90 -10 -6 -2 -9 26 -9 30 0 36 3 27 12 -8 8 -12 46 -12 105 0 94 -5 105
-38 84z"/>
<path d="M10900 6320 c-228 -17 -528 -75 -725 -141 -49 -17 -104 -37 -122 -45
-17 -8 -34 -14 -38 -14 -8 0 -176 -71 -245 -104 -181 -85 -435 -254 -630 -419
-278 -234 -592 -643 -752 -977 -92 -191 -132 -300 -181 -491 -98 -380 -125
-682 -97 -1059 15 -195 64 -463 106 -583 8 -23 15 -44 14 -47 -1 -16 61 -189
97 -270 92 -208 174 -347 354 -605 23 -33 45 -62 48 -65 3 -3 28 -32 56 -65
77 -93 84 -101 186 -204 123 -124 166 -162 267 -241 46 -36 103 -81 127 -100
24 -19 65 -46 92 -60 26 -14 50 -28 53 -31 3 -3 41 -27 85 -53 44 -26 87 -51
95 -56 21 -13 105 -54 165 -80 28 -12 64 -27 80 -35 17 -7 50 -21 75 -30 25
-10 59 -23 75 -30 72 -30 348 -109 435 -124 248 -44 272 -46 590 -46 340 0
483 14 708 69 367 90 840 312 1082 510 156 126 419 385 536 526 101 122 254
343 254 366 0 3 10 19 21 36 12 16 48 83 80 149 52 105 72 153 130 319 7 19
19 53 27 75 7 22 15 47 17 55 2 8 13 53 25 100 12 47 23 96 26 110 2 14 11 57
18 95 40 198 44 241 50 520 5 265 -8 421 -55 660 -20 101 -28 132 -73 282 -51
171 -169 460 -216 533 -6 8 -14 25 -19 37 -27 61 -166 273 -226 344 -16 20
-39 49 -50 64 -78 111 -371 400 -555 546 -142 112 -350 230 -624 354 -143 64
-428 150 -581 175 -259 43 -325 50 -489 54 -100 2 -233 1 -296 -4z m0 -27 c0
-3 -19 -27 -42 -52 -43 -47 -200 -219 -298 -326 -31 -33 -87 -96 -125 -140
-38 -44 -85 -96 -105 -116 -19 -20 -62 -67 -95 -105 -85 -97 -378 -415 -466
-505 -41 -42 -83 -87 -93 -100 -11 -13 -61 -69 -111 -124 -50 -55 -121 -136
-159 -180 -37 -44 -82 -93 -100 -110 -17 -16 -41 -42 -53 -57 -11 -16 -61 -72
-111 -125 -49 -54 -136 -150 -192 -213 -56 -63 -132 -149 -169 -190 -36 -41
-100 -110 -142 -155 -41 -44 -104 -111 -140 -149 -35 -38 -82 -88 -104 -110
-43 -45 -90 -97 -200 -224 l-70 -80 -3 96 c-6 184 19 414 69 642 12 52 25 114
30 137 10 49 68 226 112 338 69 178 208 422 369 645 116 161 324 387 459 495
41 33 76 63 79 66 22 29 298 218 385 264 39 20 86 46 105 57 19 11 55 28 80
38 25 10 83 35 130 55 130 56 379 141 440 151 14 3 84 16 155 29 232 44 365
61 365 48z m630 -17 c52 -8 115 -20 140 -25 25 -6 63 -13 84 -16 22 -3 41 -7
43 -9 2 -2 -26 -27 -63 -57 -37 -30 -74 -61 -83 -69 -9 -8 -61 -51 -116 -95
-54 -44 -110 -90 -124 -102 -13 -13 -28 -23 -33 -23 -5 0 -89 79 -186 176 -97
97 -188 186 -202 198 -59 49 -61 49 201 43 148 -3 281 -11 339 -21z m-387
-199 c114 -112 207 -208 207 -214 0 -6 -82 -78 -182 -159 -100 -82 -211 -174
-247 -204 -36 -30 -82 -67 -103 -82 -20 -15 -42 -34 -50 -41 -7 -7 -35 -30
-62 -50 -67 -52 -199 -159 -211 -172 -5 -7 -77 -65 -160 -131 -82 -65 -157
-126 -165 -135 -8 -8 -37 -33 -65 -54 -27 -22 -52 -42 -55 -45 -3 -3 -21 -17
-42 -32 -20 -15 -42 -34 -50 -41 -27 -27 -123 -103 -138 -109 -13 -5 -115 -88
-284 -232 -27 -22 -58 -48 -70 -56 -12 -8 -30 -22 -41 -31 -63 -53 -217 -180
-260 -213 -28 -22 -58 -48 -67 -57 -10 -10 -34 -30 -55 -46 -21 -15 -42 -33
-48 -39 -5 -6 -51 -43 -102 -83 -50 -40 -93 -76 -95 -79 -2 -4 -28 -26 -59
-49 -31 -23 -62 -47 -70 -55 -8 -7 -43 -35 -79 -63 -36 -27 -67 -52 -70 -55
-3 -3 -34 -27 -70 -55 -36 -27 -67 -52 -70 -55 -26 -28 -122 -101 -127 -96 -3
3 18 32 48 63 30 32 75 81 101 108 26 28 73 78 105 111 111 115 281 300 349
379 37 44 120 136 183 205 185 202 215 235 492 544 74 83 143 161 154 174 11
13 56 61 100 106 44 46 103 108 130 137 144 156 251 274 330 364 49 55 102
114 119 131 17 17 58 62 91 100 75 85 162 182 229 254 29 30 94 101 145 158
52 56 97 102 100 102 3 0 99 -92 214 -203z m957 58 c58 -19 128 -46 155 -59
301 -144 399 -196 521 -277 105 -70 143 -101 288 -235 140 -129 273 -266 341
-353 26 -34 52 -61 56 -61 5 0 9 -6 9 -14 0 -7 7 -20 17 -27 36 -31 191 -283
269 -439 66 -133 151 -346 179 -450 3 -14 10 -34 15 -45 10 -22 41 -158 70
-308 26 -132 50 -390 50 -534 l0 -118 -293 290 c-161 160 -402 398 -537 531
-135 132 -302 299 -371 370 -69 71 -261 261 -427 422 -165 161 -392 386 -504
499 -111 113 -212 213 -223 222 -24 20 -165 153 -251 239 -57 55 -79 92 -56
92 7 0 72 51 197 154 22 19 83 67 135 108 l94 75 81 -23 c44 -12 127 -39 185
-59z m-355 -646 c55 -52 258 -252 451 -444 194 -193 441 -438 550 -546 110
-107 273 -271 365 -365 91 -93 220 -222 288 -286 68 -65 119 -118 114 -118
-19 0 -106 -97 -148 -165 -58 -93 -89 -188 -100 -300 -3 -33 -7 -61 -9 -63
-12 -12 -5117 5 -5115 17 0 3 40 38 89 76 49 39 120 95 159 125 38 30 113 89
168 130 54 41 130 101 168 134 84 70 71 59 274 226 90 74 214 176 275 225 149
120 236 191 266 217 14 12 57 46 95 77 39 30 83 67 98 81 16 14 47 37 69 52
22 15 59 43 82 62 22 20 87 73 142 118 56 46 115 94 130 106 16 13 72 58 124
100 52 43 101 84 110 92 9 9 34 29 55 45 22 17 47 38 55 47 8 9 65 56 125 103
61 47 125 98 144 113 41 32 53 42 146 119 39 32 102 84 140 115 39 31 126 104
195 161 l125 104 135 -132 c74 -72 180 -174 235 -226z m2050 -2028 c140 -139
255 -255 255 -257 0 -2 -174 -4 -386 -4 l-386 0 7 53 c10 84 44 197 78 267 30
59 159 211 171 200 3 -3 120 -119 261 -259z m-3795 -275 c993 -4 2310 -7 2927
-9 618 -1 1123 -3 1123 -4 0 -4 -481 -955 -527 -1043 -92 -174 -135 -255 -160
-300 -116 -207 -403 -784 -403 -809 0 -17 -17 -13 -89 20 -205 96 -321 149
-325 149 -2 0 -47 20 -100 45 -53 25 -99 45 -101 45 -3 0 -56 25 -118 56 -61
30 -132 64 -157 74 -25 10 -93 41 -153 69 -59 28 -109 51 -112 51 -2 0 -48 20
-101 45 -53 25 -98 45 -100 45 -2 0 -43 19 -91 41 -76 36 -296 137 -523 241
-36 17 -110 50 -165 75 -55 24 -113 51 -129 59 -16 8 -33 14 -37 14 -4 0 -52
21 -106 46 -54 25 -120 56 -148 69 -27 12 -98 46 -157 74 -59 28 -109 51 -111
51 -5 0 -254 116 -279 130 -10 6 -22 10 -27 10 -10 0 -90 36 -246 110 -79 38
-241 112 -425 195 -52 23 -138 63 -190 87 -52 25 -120 57 -150 70 -30 14 -75
35 -100 46 -25 11 -105 48 -178 81 -73 34 -135 61 -138 61 -14 0 -224 105
-224 113 0 4 3 6 8 3 4 -2 819 -7 1812 -10z m-1788 -41 c36 -19 106 -52 154
-74 49 -21 119 -53 157 -70 37 -17 69 -31 71 -31 4 0 19 -7 371 -170 121 -56
230 -106 243 -111 30 -12 100 -43 197 -89 283 -134 405 -190 415 -190 5 0 53
-21 107 -46 163 -77 236 -111 508 -236 187 -86 195 -90 355 -159 80 -35 146
-67 148 -71 2 -5 10 -8 19 -8 8 0 27 -6 41 -14 33 -18 166 -80 287 -134 50
-22 128 -58 175 -80 47 -22 148 -67 225 -101 77 -34 148 -66 157 -71 9 -5 65
-31 125 -58 59 -27 158 -73 218 -102 61 -29 128 -61 150 -70 22 -10 75 -35
118 -54 43 -20 82 -36 87 -36 4 0 30 -11 57 -24 50 -26 200 -96 291 -136 l52
-24 -37 -33 c-21 -18 -69 -54 -108 -79 -38 -26 -83 -56 -100 -67 -48 -34 -346
-184 -431 -217 -44 -17 -92 -37 -109 -44 -83 -38 -325 -109 -460 -136 -322
-64 -880 -64 -1160 0 -209 48 -352 90 -500 150 -44 18 -93 38 -110 44 -32 13
-74 32 -165 75 -85 40 -361 209 -380 232 -3 3 -23 18 -46 32 -22 14 -47 31
-55 39 -8 7 -50 42 -94 77 -107 86 -307 291 -398 407 -12 16 -33 41 -46 56
-24 28 -30 36 -85 119 -16 24 -32 46 -35 49 -9 8 -91 128 -91 134 0 3 -14 29
-31 58 -54 90 -135 250 -154 303 -10 28 -22 55 -25 60 -7 9 -51 143 -99 296
-11 36 -25 96 -31 134 -6 38 -13 71 -15 74 -12 20 -54 344 -55 424 0 15 29 6
92 -28z m5845 -102 c-11 -104 -46 -318 -59 -368 -5 -22 -12 -51 -15 -65 -16
-91 -105 -369 -149 -467 -64 -141 -82 -176 -146 -288 -82 -143 -91 -158 -99
-165 -3 -3 -12 -16 -18 -28 -34 -65 -243 -306 -398 -459 -96 -95 -179 -173
-183 -173 -5 0 10 39 34 88 24 48 62 125 85 172 22 47 67 135 99 195 32 61 93
178 136 260 43 83 93 177 112 210 61 111 172 327 385 752 116 233 214 421 218
419 4 -3 3 -40 -2 -83z"/>
<path d="M3637 6314 c-27 -27 20 -77 49 -53 23 19 13 53 -16 57 -14 2 -29 0
-33 -4z m43 -24 c0 -19 -20 -27 -33 -13 -8 7 11 33 24 33 5 0 9 -9 9 -20z"/>
<path d="M2236 6215 c-3 -9 0 -15 9 -15 8 0 15 7 15 15 0 8 -4 15 -9 15 -5 0
-11 -7 -15 -15z"/>
<path d="M2009 5641 c19 -12 27 -114 13 -164 l-10 -37 54 0 c62 0 88 11 104
41 9 16 8 26 -4 43 -9 15 -13 36 -9 62 5 36 2 41 -21 52 -32 14 -149 17 -127
3z m103 -13 c16 -13 22 -29 19 -55 -1 -8 -16 -13 -41 -13 -39 0 -40 1 -40 34
0 43 29 59 62 34z m16 -94 c44 -31 21 -74 -40 -74 l-38 0 0 45 c0 43 2 45 28
45 15 0 38 -7 50 -16z"/>
<path d="M3028 5645 c-3 -3 -3 -36 0 -72 l5 -66 -29 7 c-40 10 -40 12 -18 44
33 45 37 52 20 46 -8 -3 -18 -14 -21 -25 -4 -10 -10 -19 -14 -19 -7 0 -31 -43
-31 -55 0 -2 19 -5 43 -7 38 -3 42 -6 45 -30 4 -37 22 -36 22 1 0 16 6 32 13
34 10 4 10 6 0 6 -9 1 -13 22 -13 71 0 63 -6 81 -22 65z"/>
<path d="M3169 5618 c-15 -21 -17 -28 -6 -19 16 12 17 9 17 -38 0 -50 -1 -51
-30 -51 -34 0 -37 9 -14 48 15 26 15 26 -10 -3 -39 -45 -35 -64 14 -60 38 3
40 2 40 -26 0 -16 5 -29 10 -29 6 0 10 11 10 24 0 13 8 27 18 31 16 6 16 7 -1
16 -14 8 -17 22 -16 70 1 33 0 62 -3 65 -3 3 -16 -10 -29 -28z"/>
<path d="M3284 5642 c-17 -11 -23 -50 -10 -67 8 -11 23 -16 41 -13 24 2 31 8
33 31 5 45 -30 72 -64 49z m54 -39 c3 -22 -28 -40 -48 -28 -12 7 -13 38 -3 49
15 14 48 1 51 -21z"/>
<path d="M3642 5533 c2 -17 10 -29 21 -31 21 -4 47 26 40 45 -8 21 -22 15 -16
-7 4 -16 0 -20 -17 -20 -17 0 -21 4 -17 20 3 11 1 20 -5 20 -5 0 -8 -12 -6
-27z"/>
<path d="M2230 5454 c0 -9 5 -14 12 -12 18 6 21 28 4 28 -9 0 -16 -7 -16 -16z"/>
<path d="M2050 4873 c-36 -24 -40 -32 -40 -90 0 -45 4 -54 31 -77 17 -14 43
-26 57 -26 32 0 74 20 80 38 2 7 -10 5 -31 -8 -26 -16 -40 -18 -59 -11 -40 15
-49 35 -46 97 3 51 6 60 29 73 32 18 79 7 86 -19 7 -28 23 -25 23 4 0 13 -7
27 -16 30 -30 12 -90 6 -114 -11z"/>
<path d="M3024 4878 c-5 -7 -7 -39 -6 -70 3 -56 2 -58 -22 -58 -31 0 -32 12
-5 56 11 19 17 34 12 34 -8 0 -63 -91 -63 -104 0 -3 18 -6 40 -6 36 0 40 -2
40 -25 0 -16 6 -25 15 -25 11 0 14 7 9 25 -5 19 -2 25 10 25 21 0 21 16 0 24
-13 5 -15 18 -12 65 3 61 -4 83 -18 59z"/>
<path d="M3155 4883 c-11 -3 -26 -12 -32 -21 -34 -42 3 -127 44 -103 17 10 17
10 0 11 -9 0 -22 11 -28 24 -15 33 -4 76 20 76 32 0 44 -26 37 -77 -7 -54 -30
-93 -57 -100 -10 -3 -19 -9 -19 -14 0 -30 65 17 90 64 20 38 22 51 14 82 -10
41 -38 64 -69 58z"/>
<path d="M3287 4877 c-39 -32 -21 -81 28 -75 27 3 30 7 30 37 0 38 -31 59 -58
38z m48 -37 c0 -33 -40 -41 -50 -11 -9 28 2 43 28 39 16 -2 22 -10 22 -28z"/>
<path d="M3653 4803 c-21 -7 -15 -51 7 -58 27 -8 40 1 40 29 0 24 -23 37 -47
29z m33 -24 c7 -12 -15 -31 -28 -23 -4 3 -8 12 -8 20 0 17 26 19 36 3z"/>
<path d="M2220 4695 c0 -8 7 -15 15 -15 8 0 15 7 15 15 0 8 -7 15 -15 15 -8 0
-15 -7 -15 -15z"/>
<path d="M2000 4128 c0 -5 5 -8 10 -8 15 0 13 -177 -2 -183 -7 -3 19 -6 57 -6
91 -1 124 22 132 91 5 42 3 50 -25 78 -17 16 -39 30 -49 31 -84 4 -123 3 -123
-3z m141 -27 c20 -16 24 -29 24 -71 0 -55 -14 -74 -62 -87 -46 -11 -53 1 -53
85 0 43 3 82 7 85 13 14 61 7 84 -12z"/>
<path d="M3013 4122 c-24 -2 -34 -10 -44 -34 -8 -19 -9 -33 -3 -35 56 -20 78
-51 63 -92 -8 -20 -14 -22 -44 -17 -21 4 -35 3 -35 -3 0 -34 71 -19 94 20 16
27 16 31 1 63 -9 18 -27 38 -40 44 -34 16 -31 32 4 32 17 0 33 5 36 11 9 14 6
15 -32 11z"/>
<path d="M3172 4122 c-24 -2 -35 -10 -43 -28 -14 -38 -12 -44 21 -56 19 -6 32
-19 37 -36 9 -38 -9 -57 -51 -56 -42 2 -45 -19 -3 -24 34 -4 77 37 77 73 0 26
-39 75 -60 75 -5 0 -10 7 -10 15 0 10 10 15 29 15 17 0 33 5 36 11 9 14 6 15
-33 11z"/>
<path d="M3271 4116 c-7 -8 -11 -27 -9 -43 6 -50 78 -40 78 11 0 41 -45 62
-69 32z m57 -34 c-4 -22 -46 -28 -54 -8 -4 9 -1 23 6 31 16 19 53 1 48 -23z"/>
<path d="M3621 4036 c-19 -23 -4 -58 22 -54 17 2 22 10 22 33 0 34 -24 45 -44
21z m39 -22 c0 -8 -9 -14 -20 -14 -22 0 -28 26 -7 33 16 6 27 -1 27 -19z"/>
<path d="M2245 3950 c-4 -6 -3 -16 3 -22 6 -6 12 -6 17 2 4 6 3 16 -3 22 -6 6
-12 6 -17 -2z"/>
<path d="M7857 3265 c7 -20 -27 -137 -54 -185 -6 -10 117 -1 139 11 48 25 74
86 58 135 -13 37 -45 54 -105 54 -36 0 -43 -3 -38 -15z m103 -15 c11 -11 20
-33 20 -51 0 -40 -34 -95 -63 -103 -28 -7 -77 -8 -77 -1 0 10 43 140 52 158
12 23 43 22 68 -3z"/>
<path d="M14250 3183 c-35 -49 -70 -94 -79 -100 -13 -11 -12 -13 5 -13 13 0
24 11 31 30 9 23 18 30 37 30 14 0 26 5 26 10 0 6 -7 10 -15 10 -14 0 -13 3 2
25 32 43 40 37 35 -23 -2 -32 -9 -63 -14 -69 -8 -10 -4 -13 13 -13 24 0 24 2
26 100 0 55 0 100 -1 100 -1 0 -31 -39 -66 -87z"/>
<path d="M12987 902 c6 -23 -24 -139 -43 -169 l-14 -23 70 0 c66 0 71 1 80 26
14 36 12 40 -7 17 -22 -24 -56 -36 -82 -28 -18 5 -18 7 -1 73 27 101 28 102
66 102 26 0 34 -4 34 -17 0 -15 2 -15 9 -4 18 29 1 41 -59 41 -51 0 -58 -2
-53 -18z"/>
<path d="M13039 837 c-12 -10 -13 -16 -3 -35 11 -23 11 -22 18 9 7 38 6 41
-15 26z"/>
</g>
</svg>
