<?xml version="1.0" standalone="no"?>
<!DOCTYPE svg PUBLIC "-//W3C//DTD SVG 20010904//EN"
 "http://www.w3.org/TR/2001/REC-SVG-20010904/DTD/svg10.dtd">
<svg version="1.0" xmlns="http://www.w3.org/2000/svg"
 width="1477.000000pt" height="553.000000pt" viewBox="0 0 1477.000000 553.000000"
 preserveAspectRatio="xMidYMid meet">
<metadata>
Created by potrace 1.16, written by Peter Selinger 2001-2019
</metadata>
<g transform="translate(0.000000,553.000000) scale(0.100000,-0.100000)"
fill="#000000" stroke="none">
<path d="M2610 5049 c0 -11 -115 -168 -137 -186 -8 -6 -10 -14 -5 -17 16 -10
42 5 42 24 0 22 17 36 53 42 30 6 31 3 16 -51 -2 -8 4 -14 16 -15 18 -2 20 4
20 48 0 28 4 77 8 109 6 39 5 57 -2 57 -6 0 -11 -5 -11 -11z m-12 -86 c-2 -20
-9 -29 -25 -31 -13 -2 -23 1 -23 7 0 6 4 11 9 11 5 0 13 9 16 20 9 30 27 24
23 -7z"/>
<path d="M2721 5044 c7 -9 7 -25 -1 -56 -17 -64 -33 -112 -42 -122 -4 -6 -8
-14 -8 -18 0 -13 121 2 136 17 17 17 19 72 2 77 -8 3 -4 12 10 26 24 24 29 54
10 70 -7 5 -37 12 -66 14 -41 4 -50 2 -41 -8z m86 -20 c10 -27 -14 -64 -43
-64 -24 0 -25 2 -19 33 4 17 9 35 12 40 8 13 44 7 50 -9z m-30 -82 c6 -4 12
-14 13 -22 6 -39 -1 -49 -35 -56 -20 -3 -38 -4 -41 -1 -3 3 0 23 6 46 11 40
29 51 57 33z"/>
<path d="M1690 4810 l0 -80 -44 0 -44 0 2 41 c1 22 8 44 15 48 9 6 7 10 -8 14
-20 5 -21 1 -21 -66 0 -55 3 -68 12 -59 7 7 29 12 50 12 l38 0 0 -55 c0 -30 5
-55 10 -55 6 0 10 24 10 54 l0 54 46 0 c25 0 47 2 49 4 1 2 5 28 7 59 l4 55
-54 -4 -55 -5 6 32 c5 23 3 31 -8 31 -12 0 -15 -16 -15 -80z m110 -35 l0 -45
-45 0 -45 0 0 45 0 45 45 0 45 0 0 -45z"/>
<path d="M1238 4806 c-1 -39 -2 -97 -3 -128 -1 -36 2 -58 9 -58 8 0 10 38 8
120 l-3 120 111 0 111 0 -3 -112 -3 -113 -100 -5 -100 -5 110 -5 c61 -3 111
-5 112 -5 1 0 3 60 5 132 l3 133 -127 -1 -128 -1 -2 -72z"/>
<path d="M550 4832 c-45 -67 -68 -111 -62 -116 3 -3 23 -6 44 -6 34 0 38 -3
38 -25 0 -14 5 -25 10 -25 6 0 10 11 10 25 0 13 8 29 18 34 16 10 16 10 0 11
-15 0 -18 10 -18 70 0 39 -3 70 -7 70 -5 0 -19 -17 -33 -38z m20 -52 c0 -49
-1 -50 -30 -50 -16 0 -30 3 -30 7 0 9 50 93 55 93 3 0 5 -22 5 -50z"/>
<path d="M345 4844 c-19 -20 -12 -32 9 -15 8 7 25 11 38 9 19 -2 24 -10 26
-41 3 -34 -2 -43 -42 -82 -25 -24 -46 -46 -46 -50 0 -11 123 0 127 11 3 8 -10
10 -42 7 -48 -6 -61 8 -26 27 27 14 61 72 61 103 0 44 -71 65 -105 31z"/>
<path d="M1304 4835 c-6 -15 2 -35 16 -35 4 0 7 11 6 25 -1 28 -13 33 -22 10z"/>
<path d="M1397 4830 c-3 -13 -14 -20 -31 -20 -20 0 -24 -4 -19 -17 6 -14 0
-15 -41 -10 -30 4 -45 3 -41 -3 9 -14 195 -13 195 1 0 6 -15 8 -44 4 -28 -5
-46 -3 -50 4 -5 7 4 11 23 11 26 0 31 4 31 25 0 30 -16 33 -23 5z"/>
<path d="M1640 4820 c0 -5 5 -10 10 -10 6 0 10 5 10 10 0 6 -4 10 -10 10 -5 0
-10 -4 -10 -10z"/>
<path d="M2020 4776 c0 -8 5 -18 10 -21 7 -4 7 -13 0 -26 -6 -10 -7 -19 -2
-19 17 0 32 25 32 52 0 21 -5 28 -20 28 -11 0 -20 -6 -20 -14z"/>
<path d="M2970 4755 c0 -12 16 -15 80 -15 47 0 80 4 80 10 0 6 -26 10 -57 11
-32 0 -68 2 -80 5 -16 3 -23 -1 -23 -11z"/>
<path d="M1280 4705 c0 -37 4 -55 13 -55 8 0 12 18 12 55 0 37 -4 55 -12 55
-9 0 -13 -18 -13 -55z"/>
<path d="M1358 4753 c7 -3 16 -2 19 1 4 3 -2 6 -13 5 -11 0 -14 -3 -6 -6z"/>
<path d="M1420 4721 c0 -22 -3 -46 -6 -55 -4 -11 -1 -16 10 -16 13 0 16 11 16
55 0 30 -4 55 -10 55 -5 0 -10 -18 -10 -39z"/>
<path d="M2400 4733 c0 -5 109 -10 241 -12 175 -2 240 0 235 8 -8 13 -476 16
-476 4z"/>
<path d="M1320 4705 c0 -14 5 -25 10 -25 6 0 10 9 10 20 0 13 7 20 20 20 14 0
20 -7 20 -21 0 -11 5 -17 10 -14 6 3 10 15 10 26 0 16 -7 19 -40 19 -36 0 -40
-2 -40 -25z"/>
<path d="M14330 4643 c-30 -42 -67 -89 -82 -105 -26 -27 -26 -28 -5 -28 15 0
27 11 37 33 12 26 21 32 45 32 26 0 30 -3 26 -25 -1 -14 -8 -28 -15 -32 -6 -4
7 -8 29 -8 27 0 35 3 26 9 -11 7 -12 26 -7 91 4 45 10 89 13 96 13 35 -17 7
-67 -63z m26 -39 c-6 -17 -36 -19 -36 -2 0 6 8 20 18 31 15 17 17 17 20 3 2
-10 1 -24 -2 -32z"/>
<path d="M2970 4700 c0 -6 33 -10 80 -10 47 0 80 4 80 10 0 6 -33 10 -80 10
-47 0 -80 -4 -80 -10z"/>
<path d="M660 4674 c0 -9 5 -14 12 -12 18 6 21 28 4 28 -9 0 -16 -7 -16 -16z"/>
<path d="M1368 4653 c6 -2 18 -2 25 0 6 3 1 5 -13 5 -14 0 -19 -2 -12 -5z"/>
<path d="M2515 4609 c-77 -45 -101 -134 -52 -187 18 -20 29 -23 65 -19 24 2
52 13 62 22 26 24 18 31 -12 11 -55 -39 -125 -2 -115 59 7 44 33 83 69 101 37
19 64 11 76 -24 l10 -27 7 28 c4 15 6 30 4 32 -12 11 -97 14 -114 4z"/>
<path d="M2690 4578 c-1 -18 -11 -63 -24 -100 -13 -37 -21 -70 -18 -73 3 -3
24 -5 46 -5 86 0 153 66 142 140 -7 48 -37 70 -97 70 -49 0 -49 0 -49 -32z
m102 5 c12 -11 18 -30 18 -59 0 -58 -31 -93 -88 -101 -50 -7 -51 -3 -22 87 11
34 20 69 20 76 0 20 49 18 72 -3z"/>
<path d="M14090 4405 c-30 -7 -100 -25 -155 -40 -145 -39 -241 -62 -410 -100
-82 -18 -197 -47 -255 -63 -442 -125 -398 -113 -604 -162 -49 -11 -123 -30
-165 -41 -137 -37 -225 -60 -286 -73 -33 -7 -123 -30 -200 -51 -77 -21 -176
-45 -220 -55 -44 -10 -215 -52 -380 -95 -165 -42 -347 -88 -405 -102 -58 -14
-184 -46 -280 -70 -96 -25 -220 -56 -275 -69 -55 -12 -154 -37 -220 -54 -66
-17 -149 -38 -185 -45 -36 -7 -137 -32 -225 -56 -88 -23 -178 -45 -200 -50
-22 -5 -92 -22 -155 -39 -63 -17 -133 -35 -155 -40 -60 -13 -598 -150 -613
-155 -9 -3 26 -49 95 -127 59 -68 120 -136 134 -153 14 -16 62 -70 105 -120
44 -49 92 -106 108 -125 15 -19 47 -55 70 -80 23 -25 73 -81 111 -125 38 -44
71 -82 75 -85 3 -3 35 -39 70 -80 97 -112 121 -138 171 -194 26 -28 59 -67 75
-86 15 -19 42 -51 60 -70 47 -50 81 -89 123 -140 20 -24 77 -87 127 -140 50
-52 109 -115 130 -140 22 -25 42 -47 45 -50 5 -5 149 -166 200 -225 14 -16 48
-55 75 -85 27 -30 58 -67 70 -82 l21 -27 249 -5 c247 -5 3345 -9 3349 -4 2 2
5 350 9 773 3 424 8 950 11 1170 3 220 8 664 11 988 l5 587 -28 -1 c-15 0 -53
-7 -83 -14z m-157 -217 c-253 -250 -236 -235 -323 -309 -155 -133 -348 -322
-503 -494 -50 -55 -102 -112 -116 -126 -14 -14 -65 -66 -112 -115 -47 -49
-131 -131 -185 -183 -194 -184 -448 -428 -568 -546 -68 -66 -189 -183 -271
-260 -82 -77 -179 -169 -217 -205 -38 -36 -130 -125 -206 -199 -75 -74 -225
-218 -332 -320 -107 -102 -219 -210 -249 -238 -30 -29 -58 -53 -61 -53 -4 0
-44 43 -90 95 -46 52 -88 95 -94 95 -10 0 -43 -28 -165 -143 l-43 -41 -47 51
c-60 66 -149 166 -198 222 -21 25 -59 65 -84 90 -25 25 -85 91 -134 146 -49
55 -92 102 -95 105 -3 3 -30 34 -60 70 -45 53 -237 275 -275 316 -5 6 -21 24
-34 40 -14 16 -61 70 -105 119 -45 50 -110 124 -146 165 -36 41 -87 99 -115
128 -46 50 -48 55 -35 75 75 117 120 260 120 387 l0 85 188 47 c103 26 286 72
407 103 121 31 261 65 310 76 50 10 97 22 105 25 8 3 42 11 75 18 66 15 452
111 500 125 17 5 82 21 145 36 63 15 183 45 265 66 83 21 299 75 480 120 182
44 359 89 395 99 36 11 126 33 200 51 74 17 198 49 275 69 77 21 174 45 215
54 67 14 149 35 365 96 39 11 93 26 120 34 28 8 75 21 105 29 121 34 179 48
255 61 44 8 141 31 215 51 282 76 305 82 311 79 4 -2 -81 -90 -188 -196z m243
137 c-3 -11 -8 -535 -11 -1165 -4 -630 -8 -1183 -10 -1230 -2 -47 -3 -232 -4
-412 l-1 -327 -132 -3 -133 -3 -3 -132 -3 -133 -592 0 c-326 0 -917 3 -1314 6
l-723 7 0 49 c0 95 -74 264 -146 334 l-43 43 132 128 c241 235 377 366 658
633 190 181 358 343 540 520 65 63 182 176 260 250 166 158 371 366 424 430
51 62 460 468 515 510 70 54 106 89 349 332 202 203 227 224 234 205 4 -12 6
-31 3 -42z m-5011 -1218 c8 -40 1 -128 -16 -203 -13 -58 -87 -215 -105 -221
-5 -2 -56 52 -114 119 -58 67 -126 144 -152 172 -26 28 -45 52 -44 53 2 2 84
23 182 48 99 24 191 49 205 54 36 15 38 14 44 -22z m1925 -1809 c22 -24 42
-51 46 -60 3 -10 9 -18 13 -18 22 0 81 -193 81 -267 l0 -23 -305 0 c-168 0
-305 4 -305 9 0 4 30 36 68 69 37 34 130 122 207 196 77 74 144 135 148 136 4
0 26 -19 47 -42z m-463 -12 c4 -8 28 -36 53 -63 25 -27 56 -61 69 -75 l23 -27
-94 -95 c-51 -52 -98 -92 -103 -88 -6 4 -35 37 -64 75 -30 37 -59 67 -64 67
-6 0 -8 3 -4 6 3 4 -3 14 -14 23 l-21 16 24 25 c53 56 162 150 174 150 7 0 17
-6 21 -14z m3523 -247 l0 -119 -125 0 -125 0 0 120 0 119 118 3 c64 2 120 2
125 0 4 -2 7 -57 7 -123z"/>
<path d="M9286 2950 c-14 -17 -33 -55 -42 -85 -16 -50 -16 -55 -1 -79 15 -22
20 -24 47 -15 52 19 107 124 95 181 -6 24 -12 28 -40 28 -25 0 -40 -8 -59 -30z
m77 8 c2 -7 2 -28 -1 -46 -3 -24 -9 -32 -19 -28 -8 3 -26 6 -39 6 -29 0 -30
13 -3 51 21 30 53 39 62 17z m-23 -103 c0 -22 -55 -79 -68 -71 -13 8 -17 68
-5 79 3 4 21 7 40 7 22 0 33 -5 33 -15z"/>
<path d="M11423 1410 c-7 -11 -13 -28 -13 -39 0 -12 -11 -23 -29 -29 -52 -18
-86 -96 -56 -126 13 -12 15 -26 11 -51 -8 -43 10 -47 19 -5 4 20 17 36 36 46
34 17 69 68 69 100 0 12 -10 28 -21 36 -19 12 -20 17 -10 37 17 30 11 59 -6
31z m-43 -131 c-22 -59 -27 -66 -39 -53 -11 11 12 83 31 95 26 17 28 8 8 -42z
m54 43 c8 -14 -13 -78 -29 -92 -24 -20 -26 -8 -10 48 15 49 27 63 39 44z"/>
<path d="M2180 3866 c0 -21 -59 -158 -77 -178 -15 -17 -14 -18 12 -18 17 0 25
4 22 13 -2 6 -1 22 4 35 7 17 16 22 44 22 28 0 38 -5 44 -22 5 -13 5 -28 0
-34 -13 -16 -3 -21 31 -16 28 4 29 6 16 21 -16 18 -55 120 -63 164 -5 27 -33
39 -33 13z m24 -75 c9 -16 12 -31 9 -35 -10 -10 -53 -7 -53 4 0 10 22 60 26
60 2 0 10 -13 18 -29z"/>
<path d="M3537 3841 c-40 -45 -64 -128 -46 -162 17 -33 66 -21 102 23 23 29
31 51 35 93 8 92 -31 112 -91 46z m68 -26 c0 -39 -1 -40 -37 -43 -44 -4 -48 7
-18 56 29 46 55 40 55 -13z m-27 -97 c-15 -28 -31 -44 -46 -46 -20 -3 -22 1
-22 36 0 48 4 52 52 52 l39 0 -23 -42z"/>
<path d="M3862 3863 c2 -10 8 -18 13 -18 5 0 11 8 13 18 2 10 -3 17 -13 17
-10 0 -15 -7 -13 -17z"/>
<path d="M4230 3840 c-6 -22 -17 -40 -24 -40 -7 0 -27 -13 -44 -28 -26 -24
-32 -36 -32 -70 0 -32 4 -42 16 -42 13 0 15 -7 11 -35 -3 -19 -2 -35 3 -35 5
0 14 16 20 35 7 21 18 35 28 35 48 0 86 116 45 139 -15 8 -15 13 -5 36 15 31
15 45 2 45 -5 0 -14 -18 -20 -40z m-20 -66 c0 -24 -37 -104 -48 -104 -19 0 -7
68 15 93 16 17 33 23 33 11z m40 -15 c0 -30 -30 -89 -45 -89 -10 0 -10 8 1 38
7 20 13 45 14 55 0 25 30 21 30 -4z"/>
<path d="M3062 3798 c-33 -41 -33 -109 1 -130 31 -19 87 3 87 35 0 8 -4 7 -12
-1 -16 -16 -53 -15 -67 2 -17 20 -10 67 11 80 13 8 22 6 37 -9 24 -21 41 -12
25 13 -14 21 -67 28 -82 10z"/>
<path d="M3200 3790 c-25 -25 -27 -91 -4 -114 21 -22 67 -20 88 3 26 29 24 91
-4 113 -29 23 -55 23 -80 -2z m70 -19 c20 -38 3 -101 -28 -101 -17 0 -42 42
-42 70 0 48 49 69 70 31z"/>
<path d="M3346 3791 c-21 -23 -11 -50 28 -71 30 -16 35 -50 7 -50 -10 0 -26
10 -34 23 l-16 22 0 -27 c-1 -26 2 -28 38 -28 50 0 69 21 51 55 -7 14 -19 25
-26 25 -17 0 -45 30 -39 41 10 15 37 10 51 -8 12 -17 13 -17 14 3 0 36 -46 46
-74 15z"/>
<path d="M3742 3799 c-40 -15 -24 -68 26 -83 29 -10 30 -46 1 -46 -12 0 -28 8
-35 18 -12 16 -13 16 -14 -4 0 -16 8 -23 27 -27 68 -13 88 55 26 82 -18 8 -33
21 -33 28 0 22 29 27 50 8 19 -17 20 -17 20 2 0 24 -34 34 -68 22z"/>
<path d="M3855 3730 c0 -67 1 -70 24 -70 20 0 21 2 11 15 -8 10 -11 35 -8 70
4 45 2 55 -11 55 -13 0 -16 -13 -16 -70z"/>
<path d="M3920 3791 c0 -6 4 -11 9 -11 6 0 9 -27 8 -60 -2 -48 1 -60 13 -60
12 0 15 14 15 68 0 62 -2 67 -22 70 -13 2 -23 -1 -23 -7z"/>
<path d="M3980 3791 c0 -5 9 -11 21 -14 19 -5 21 -12 17 -61 -3 -51 -1 -56 17
-56 18 0 20 6 17 48 -5 83 -9 92 -42 92 -17 0 -30 -4 -30 -9z"/>
<path d="M4547 3774 c-11 -11 -8 -52 3 -59 6 -3 19 -3 31 0 28 9 23 59 -6 63
-12 2 -24 0 -28 -4z m38 -14 c10 -16 -16 -43 -28 -31 -11 11 -2 41 12 41 5 0
13 -5 16 -10z"/>
<path d="M2325 3690 c-7 -12 2 -30 16 -30 5 0 9 9 9 20 0 21 -15 27 -25 10z"/>
<path d="M8373 3155 c8 -20 -35 -168 -53 -182 -12 -10 -3 -12 48 -13 89 0 129
25 152 95 9 27 8 40 -4 64 -21 39 -29 43 -93 47 -43 2 -54 0 -50 -11z m116
-36 c12 -22 13 -34 3 -67 -13 -43 -43 -68 -91 -77 -43 -7 -46 9 -21 86 12 35
23 70 26 77 7 24 67 10 83 -19z"/>
<path d="M2093 3049 c14 -8 17 -24 17 -94 0 -69 -3 -86 -17 -94 -25 -14 111
-15 138 -1 25 14 27 75 3 84 -15 6 -15 8 1 26 15 17 16 25 7 45 -12 26 -27 31
-112 39 -39 3 -50 2 -37 -5z m94 -15 c27 -7 39 -40 23 -59 -7 -8 -25 -15 -41
-15 -27 0 -29 3 -29 40 0 41 5 45 47 34z m24 -105 c24 -24 21 -39 -13 -58 -38
-22 -58 -9 -58 39 0 36 2 40 25 40 14 0 34 -9 46 -21z"/>
<path d="M3160 3035 c0 -8 7 -15 15 -15 8 0 15 7 15 15 0 8 -7 15 -15 15 -8 0
-15 -7 -15 -15z"/>
<path d="M3488 3023 c-33 -35 -61 -117 -53 -154 12 -55 63 -47 112 18 23 31
28 46 28 97 0 61 0 61 -30 64 -23 2 -37 -4 -57 -25z m72 -17 c0 -42 -11 -56
-44 -57 -30 -2 -30 -2 -3 -6 32 -5 33 -14 10 -51 -51 -80 -82 -42 -47 57 23
68 33 81 59 81 20 0 25 -5 25 -24z"/>
<path d="M4216 3015 c-5 -26 -13 -36 -32 -41 -13 -3 -33 -18 -44 -31 -25 -32
-27 -98 -4 -107 16 -6 16 -19 -1 -58 -4 -10 -3 -18 3 -18 6 0 16 16 22 35 6
19 18 35 25 35 8 0 28 15 44 33 35 36 43 93 15 104 -12 4 -14 14 -9 44 8 49
-10 53 -19 4z m-39 -120 c-17 -48 -37 -58 -37 -17 0 33 43 97 48 71 1 -8 -4
-32 -11 -54z m57 49 c7 -19 -15 -74 -37 -93 -21 -17 -21 -10 1 56 18 55 26 64
36 37z"/>
<path d="M3031 2966 c-16 -19 -4 -44 30 -62 32 -16 38 -41 13 -51 -11 -4 -23
2 -35 18 l-19 24 0 -26 c0 -31 13 -38 55 -30 25 5 31 12 33 37 3 27 -1 33 -27
44 -19 8 -31 20 -31 31 0 23 18 24 42 2 17 -15 18 -15 18 5 0 18 -6 22 -34 22
-18 0 -39 -6 -45 -14z"/>
<path d="M3157 2908 c0 -40 4 -72 7 -70 3 1 12 2 19 2 9 0 11 19 9 70 -3 57
-7 70 -20 70 -15 0 -17 -11 -15 -72z"/>
<path d="M3238 2923 c3 -32 -1 -59 -8 -68 -11 -13 -7 -15 19 -15 28 0 31 2 21
19 -23 44 -9 101 26 101 22 0 24 -4 24 -54 0 -34 -5 -56 -12 -59 -7 -3 2 -6
20 -6 23 -1 31 3 26 11 -4 7 -7 29 -5 51 4 68 -3 77 -62 75 l-52 -1 3 -54z"/>
<path d="M3684 2955 c-20 -31 -12 -84 16 -110 16 -15 25 -16 44 -7 25 11 54
52 37 52 -5 0 -11 -7 -15 -15 -8 -22 -43 -18 -60 7 -21 29 -20 41 3 69 19 24
19 24 40 5 24 -22 41 -15 21 9 -20 24 -67 19 -86 -10z"/>
<path d="M3832 2967 c-27 -32 -21 -109 11 -129 24 -15 56 -7 76 18 27 34 27
78 1 104 -22 22 -72 27 -88 7z m68 -16 c15 -30 12 -87 -6 -102 -14 -11 -19
-10 -35 10 -11 13 -19 38 -19 55 0 52 39 76 60 37z"/>
<path d="M3977 2973 c-18 -17 -6 -55 23 -71 30 -17 39 -45 19 -57 -5 -4 -18 0
-28 9 -16 15 -19 15 -24 2 -11 -27 61 -37 83 -11 19 23 4 59 -30 72 -20 8 -30
18 -30 32 0 25 17 27 42 4 17 -15 18 -15 18 5 0 18 -6 22 -33 22 -19 0 -37 -3
-40 -7z"/>
<path d="M4531 2947 c-22 -27 10 -64 45 -50 23 9 14 57 -12 61 -11 2 -26 -3
-33 -11z m37 -24 c-2 -10 -8 -18 -13 -18 -5 0 -11 8 -13 18 -2 10 3 17 13 17
10 0 15 -7 13 -17z"/>
<path d="M2306 2855 c4 -8 10 -15 15 -15 5 0 9 7 9 15 0 8 -7 15 -15 15 -9 0
-12 -6 -9 -15z"/>
<path d="M2131 2246 c-51 -28 -65 -98 -31 -154 34 -56 97 -65 141 -21 29 29
16 35 -19 9 -36 -27 -72 -20 -95 20 -21 35 -22 72 -1 111 14 27 19 30 57 27
33 -2 44 -8 54 -28 l13 -25 0 31 c0 27 -4 32 -31 38 -44 9 -61 7 -88 -8z"/>
<path d="M3534 2250 c-48 -19 -94 -141 -74 -194 9 -24 14 -27 38 -21 51 13 95
75 108 152 9 59 -20 84 -72 63z m46 -39 c0 -49 -9 -61 -46 -61 -37 0 -43 14
-23 53 25 47 69 52 69 8z m-20 -75 c0 -1 -5 -16 -10 -32 -24 -67 -87 -64 -74
4 6 29 10 32 45 32 22 0 39 -2 39 -4z"/>
<path d="M4236 2215 c-4 -22 -13 -35 -22 -35 -9 0 -29 -13 -45 -29 -35 -36
-40 -92 -10 -113 14 -10 17 -18 10 -28 -11 -19 -12 -53 0 -45 5 3 12 19 16 35
4 17 13 30 20 30 8 0 28 13 45 30 23 23 30 38 30 69 0 26 -5 41 -15 45 -12 4
-14 14 -9 41 4 21 2 35 -4 35 -5 0 -13 -16 -16 -35z m-32 -109 c-10 -31 -24
-56 -31 -56 -26 0 -12 61 25 103 24 27 25 14 6 -47z m56 31 c0 -12 -11 -40
-25 -62 -19 -31 -24 -35 -25 -19 0 12 5 36 11 55 6 19 13 40 15 47 6 20 24 4
24 -21z"/>
<path d="M3050 2215 c0 -7 -8 -18 -17 -24 -15 -8 -16 -12 -5 -22 6 -7 12 -36
12 -64 0 -58 14 -79 42 -64 10 5 18 14 18 20 0 6 -5 7 -11 3 -17 -10 -29 16
-29 64 0 37 3 42 23 43 l22 0 -22 9 c-15 6 -20 15 -16 29 3 12 1 21 -6 21 -6
0 -11 -7 -11 -15z"/>
<path d="M3138 2179 c-19 -11 -25 -39 -8 -39 6 0 13 7 16 15 4 8 15 15 25 15
31 0 22 -33 -14 -50 -26 -12 -32 -21 -32 -45 0 -29 1 -30 53 -31 29 -1 55 3
58 7 3 5 0 9 -5 9 -7 0 -11 23 -11 55 0 43 -4 56 -19 65 -24 12 -41 12 -63 -1z
m50 -86 c-4 -35 -48 -48 -48 -14 0 18 23 40 43 41 5 0 7 -12 5 -27z"/>
<path d="M3264 2184 c-8 -3 -8 -17 -1 -49 7 -32 7 -52 -1 -70 -11 -24 -10 -25
19 -25 26 0 29 2 20 14 -7 8 -11 34 -9 58 3 39 6 43 31 46 27 3 27 2 27 -52 0
-34 -5 -56 -12 -59 -7 -3 2 -6 21 -6 26 -1 31 2 23 12 -6 7 -12 37 -14 67 l-3
55 -37 -1 c-21 -1 -38 3 -38 7 0 10 -8 10 -26 3z"/>
<path d="M3706 2156 c-20 -32 -20 -55 1 -86 31 -46 52 -51 83 -20 25 25 27 49
2 27 -38 -35 -72 -10 -72 51 0 40 26 49 58 20 l24 -23 -4 25 c-2 21 -9 26 -39
28 -29 2 -39 -2 -53 -22z"/>
<path d="M3846 2155 c-20 -30 -20 -48 -1 -85 33 -63 115 -36 117 38 2 67 -81
100 -116 47z m73 2 c6 -8 14 -28 17 -44 8 -39 -28 -82 -51 -63 -18 15 -29 71
-20 99 7 24 37 28 54 8z"/>
<path d="M4003 2173 c-27 -10 -14 -49 22 -69 42 -22 48 -54 10 -54 -14 0 -25
5 -25 10 0 6 -4 10 -10 10 -5 0 -10 -6 -10 -14 0 -19 34 -30 66 -22 19 5 24
13 24 37 0 23 -7 34 -35 50 -38 23 -44 36 -19 46 10 4 22 -1 30 -12 15 -21 30
-14 21 10 -6 14 -47 19 -74 8z"/>
<path d="M4557 2154 c-13 -13 -7 -52 8 -58 27 -10 46 5 43 33 -3 26 -35 41
-51 25z m39 -15 c10 -17 -13 -36 -27 -22 -12 12 -4 33 11 33 5 0 12 -5 16 -11z"/>
<path d="M2293 2058 c2 -7 7 -13 12 -13 5 0 10 6 13 13 2 6 -4 12 -13 12 -9 0
-15 -6 -12 -12z"/>
<path d="M2080 1449 c0 -5 5 -9 10 -9 6 0 10 -35 10 -85 0 -67 -3 -87 -15 -91
-34 -13 -11 -22 49 -19 74 3 100 15 121 55 28 55 13 121 -34 139 -34 14 -141
21 -141 10z m131 -28 c20 -16 24 -29 24 -70 0 -61 -18 -83 -72 -85 l-38 -1 -3
65 c-4 91 2 110 37 110 16 0 39 -9 52 -19z"/>
<path d="M3533 1450 c-29 -12 -72 -87 -79 -141 -14 -104 78 -99 127 6 28 62
31 103 8 126 -21 21 -24 22 -56 9z m47 -39 c0 -51 -9 -61 -52 -61 -33 0 -39 3
-34 16 3 9 6 19 6 23 0 16 42 51 60 51 15 0 20 -7 20 -29z m-25 -88 c-4 -10
-9 -25 -12 -34 -3 -9 -16 -22 -29 -30 -34 -18 -48 -1 -40 45 7 34 9 36 48 36
34 0 39 -3 33 -17z"/>
<path d="M3825 1450 c-7 -12 2 -30 16 -30 5 0 9 9 9 20 0 21 -15 27 -25 10z"/>
<path d="M4197 1443 c-4 -3 -7 -17 -7 -30 0 -16 -8 -27 -25 -33 -65 -25 -96
-102 -56 -137 15 -12 17 -21 10 -40 -11 -30 -11 -33 1 -33 5 0 12 11 16 25 3
14 20 33 36 41 33 17 68 69 68 101 0 12 -9 28 -21 36 -17 12 -19 19 -10 35 18
33 9 57 -12 35z m17 -95 c7 -27 -24 -92 -46 -96 -13 -2 -12 7 6 58 23 65 30
72 40 38z m-47 -2 c-3 -8 -9 -31 -13 -50 -7 -39 -22 -55 -34 -37 -10 17 0 63
18 84 18 21 36 23 29 3z"/>
<path d="M3032 1401 c-12 -17 -18 -31 -12 -31 5 0 10 -22 10 -49 0 -27 3 -56
6 -65 7 -17 54 -22 54 -6 0 6 -7 10 -15 10 -12 0 -15 13 -15 55 0 45 3 55 17
55 15 0 15 1 1 13 -9 6 -18 20 -20 30 -2 16 -7 14 -26 -12z"/>
<path d="M3129 1371 c-20 -16 -22 -22 -11 -33 10 -10 14 -9 19 10 4 16 12 22
26 20 32 -5 32 -26 0 -40 -41 -18 -55 -35 -51 -60 3 -20 9 -23 56 -24 29 -1
55 2 58 7 3 5 0 9 -5 9 -7 0 -11 24 -11 59 0 52 -2 59 -22 65 -32 8 -33 8 -59
-13z m55 -67 c11 -28 -33 -61 -48 -36 -6 10 21 52 33 52 5 0 12 -7 15 -16z"/>
<path d="M3255 1309 c0 -66 1 -69 24 -69 19 0 21 3 12 14 -17 20 -10 87 10 99
30 19 49 1 49 -46 0 -24 -5 -48 -12 -55 -9 -9 -7 -12 12 -12 25 0 25 1 20 67
l-5 68 -55 1 -55 1 0 -68z"/>
<path d="M3690 1359 c-9 -16 -8 -25 6 -40 9 -10 25 -21 35 -24 24 -8 25 -45 2
-45 -9 0 -25 7 -35 17 -17 15 -18 15 -18 -5 0 -12 6 -22 13 -23 6 0 22 -2 34
-5 26 -4 55 21 51 45 -2 8 -18 25 -35 36 -18 11 -32 28 -33 38 0 22 18 22 42
0 17 -15 18 -15 18 5 0 18 -6 22 -35 22 -25 0 -37 -6 -45 -21z"/>
<path d="M3815 1371 c-3 -5 -1 -12 4 -15 12 -8 12 -73 0 -104 -8 -20 -7 -23 7
-18 8 3 19 6 22 6 4 0 6 31 4 70 -3 51 -7 70 -17 70 -8 0 -16 -4 -20 -9z"/>
<path d="M3895 1305 c0 -62 3 -73 16 -72 13 1 17 13 18 55 1 63 5 72 32 72 18
0 20 -7 21 -60 1 -3 -2 -20 -6 -38 -5 -30 -4 -33 16 -30 20 3 22 8 19 68 -1
35 -5 68 -7 71 -2 4 -28 7 -57 7 l-52 -1 0 -72z"/>
<path d="M4519 1344 c-9 -11 -10 -20 -3 -31 16 -26 43 -24 50 2 11 42 -20 61
-47 29z m41 -14 c0 -11 -6 -20 -14 -20 -21 0 -31 21 -15 31 22 14 29 11 29
-11z"/>
<path d="M2307 1266 c-6 -15 1 -26 15 -26 4 0 8 9 8 20 0 23 -15 27 -23 6z"/>
<path d="M10410 853 c-43 -22 -84 -95 -75 -133 9 -35 31 -57 66 -64 33 -6 99
16 99 34 0 7 -9 5 -22 -4 -31 -22 -74 -20 -99 5 -17 17 -20 28 -14 57 8 43 46
97 72 104 30 8 63 -9 63 -32 0 -31 17 -24 22 10 3 19 0 30 -7 30 -7 0 -25 2
-41 5 -18 4 -43 -1 -64 -12z"/>
<path d="M14218 831 c12 -7 10 -22 -7 -87 -12 -44 -29 -85 -38 -91 -14 -11 -6
-13 48 -13 89 0 120 27 93 81 -11 22 -10 28 7 42 24 21 24 53 0 67 -24 12
-122 14 -103 1z m90 -29 c5 -30 -14 -52 -45 -52 -23 0 -24 3 -18 33 10 44 14
49 38 45 14 -2 23 -11 25 -26z m-10 -94 c4 -30 -28 -58 -65 -58 -27 0 -27 0
-11 52 10 36 14 39 42 36 25 -2 32 -8 34 -30z"/>
</g>
</svg>
