<?xml version="1.0" standalone="no"?>
<!DOCTYPE svg PUBLIC "-//W3C//DTD SVG 20010904//EN"
 "http://www.w3.org/TR/2001/REC-SVG-20010904/DTD/svg10.dtd">
<svg version="1.0" xmlns="http://www.w3.org/2000/svg"
 width="1506.000000pt" height="699.000000pt" viewBox="0 0 1506.000000 699.000000"
 preserveAspectRatio="xMidYMid meet">
<metadata>
Created by potrace 1.16, written by Peter Selinger 2001-2019
</metadata>
<g transform="translate(0.000000,699.000000) scale(0.100000,-0.100000)"
fill="#000000" stroke="none">
<path d="M1680 6616 c0 -35 -1 -36 -36 -36 -19 0 -44 5 -55 10 -18 10 -19 7
-19 -58 0 -73 5 -88 26 -71 7 6 28 9 46 7 31 -3 33 -5 35 -43 1 -22 2 -46 2
-52 1 -7 6 -13 11 -13 6 0 10 25 10 55 l0 55 49 0 49 0 4 58 c4 56 -3 84 -16
63 -4 -6 -25 -11 -47 -11 -39 0 -40 1 -37 32 2 19 -2 33 -9 35 -9 3 -13 -7
-13 -31z m-2 -88 c-3 -43 -3 -43 -43 -43 -36 0 -40 2 -43 28 -6 46 4 57 48 57
l41 0 -3 -42z m109 4 c3 -34 0 -36 -54 -46 l-33 -5 0 45 0 45 42 -3 c40 -3 43
-5 45 -36z"/>
<path d="M1200 6508 l0 -133 115 3 c78 3 115 0 115 -7 0 -6 5 -11 10 -11 6 0
10 52 10 138 l0 137 -125 3 -125 2 0 -132z m208 106 c21 -6 22 -11 22 -115 l0
-109 -79 0 c-48 0 -83 4 -87 11 -5 8 13 10 64 7 l70 -4 4 56 c2 30 8 63 12 72
7 16 3 17 -38 12 -31 -5 -46 -3 -46 5 0 6 11 11 25 11 20 0 25 5 25 25 0 14
-4 25 -10 25 -5 0 -10 -9 -10 -20 0 -16 -7 -20 -36 -20 -31 0 -35 3 -29 20 5
14 2 20 -9 20 -10 0 -16 -9 -16 -25 0 -18 5 -25 20 -25 11 0 20 -5 20 -11 0
-8 -13 -9 -40 -5 -25 4 -40 2 -40 -4 0 -6 33 -10 80 -10 47 0 80 -4 80 -10 0
-6 -21 -8 -57 -4 -41 5 -54 4 -49 -4 4 -7 27 -12 52 -12 l44 0 0 -40 0 -41
-55 2 c-59 2 -62 6 -56 77 1 12 -3 22 -9 22 -6 0 -10 -27 -10 -66 0 -56 -2
-65 -17 -62 -9 2 -16 6 -15 11 1 4 2 54 2 112 l0 105 83 0 c45 0 92 -3 105 -6z"/>
<path d="M1290 6466 c0 -23 4 -26 35 -26 28 0 35 4 35 20 0 13 -7 20 -19 20
-11 0 -26 3 -35 6 -12 5 -16 0 -16 -20z m50 -6 c0 -5 -9 -10 -20 -10 -11 0
-20 5 -20 10 0 6 9 10 20 10 11 0 20 -4 20 -10z"/>
<path d="M350 6615 c-19 -11 -21 -14 -7 -15 15 0 17 -11 17 -79 0 -44 -4 -83
-10 -86 -19 -12 -10 -22 20 -23 17 0 30 4 30 9 0 5 -4 9 -10 9 -5 0 -11 44
-12 99 l-3 99 -25 -13z"/>
<path d="M479 6609 c-9 -17 -8 -31 2 -61 9 -27 9 -42 2 -46 -33 -22 -9 -92 32
-92 27 0 65 32 65 54 0 7 -9 25 -21 40 l-20 26 20 26 c16 21 18 30 9 50 -15
32 -72 34 -89 3z m67 -19 c0 -8 -4 -23 -9 -33 -7 -15 -11 -16 -23 -6 -15 12
-19 41 -7 53 12 11 38 2 39 -14z m-11 -104 c26 -40 -5 -77 -35 -41 -13 16 -6
65 10 65 5 0 16 -11 25 -24z"/>
<path d="M4066 6611 c5 -5 18 -11 29 -13 17 -3 19 -10 16 -58 -3 -57 -17 -93
-58 -148 -30 -39 -25 -53 7 -20 28 30 60 92 60 118 0 31 13 24 38 -22 28 -55
28 -66 -3 -78 -68 -27 -79 -33 -68 -37 7 -3 37 8 68 22 l55 27 45 -26 c43 -25
65 -27 65 -5 0 5 -8 9 -17 9 -10 1 -33 9 -51 18 l-33 18 36 49 c19 28 35 53
35 57 0 5 -13 8 -30 8 -33 0 -38 17 -20 64 l10 26 -97 0 c-58 0 -93 -4 -87 -9z
m154 -23 c-1 -45 -13 -58 -51 -58 -38 0 -39 1 -39 35 0 35 0 35 45 35 29 0 45
-4 45 -12z m40 -76 c0 -4 -12 -24 -26 -45 -20 -31 -28 -36 -40 -27 -12 10 -44
66 -44 77 0 1 25 3 55 3 30 0 55 -3 55 -8z"/>
<path d="M2689 6567 c-19 -23 -42 -53 -50 -67 -9 -14 -30 -39 -46 -57 -32 -34
-32 -43 -1 -43 12 0 18 7 18 25 0 26 25 45 59 45 24 0 27 -17 7 -46 -14 -19
-12 -20 20 -20 32 0 46 10 23 18 -7 2 -7 29 1 91 7 49 10 90 8 92 -2 3 -20
-15 -39 -38z m9 -44 c-2 -20 -9 -29 -25 -31 -23 -3 -23 -3 -5 27 21 38 34 40
30 4z"/>
<path d="M2828 6601 c11 -6 8 -25 -14 -92 -15 -46 -34 -89 -43 -96 -13 -10 -6
-12 39 -12 30 1 66 4 80 8 32 9 49 54 31 83 -11 17 -10 22 8 35 26 18 27 59 2
73 -24 12 -122 14 -103 1z m73 -11 c38 -21 13 -70 -35 -70 -18 0 -20 18 -6 54
11 29 13 30 41 16z m-15 -90 c17 0 19 -51 2 -68 -17 -17 -68 -15 -68 2 0 33
23 77 37 72 8 -3 21 -6 29 -6z"/>
<path d="M3358 6594 c9 -17 -15 -110 -43 -166 l-13 -28 59 0 c46 0 64 5 79 20
22 22 26 60 9 77 -8 8 -5 17 10 32 12 12 21 27 21 35 0 24 -42 46 -88 46 -37
0 -42 -2 -34 -16z m90 -33 c4 -27 -12 -41 -47 -41 -19 0 -22 4 -17 23 3 12 6
28 6 35 0 9 10 12 28 10 20 -2 28 -9 30 -27z m-20 -91 c3 -34 -8 -48 -43 -52
-28 -3 -30 -1 -28 26 4 48 11 58 40 54 21 -2 29 -9 31 -28z"/>
<path d="M3562 6589 c-39 -26 -62 -66 -62 -111 0 -41 7 -51 48 -72 27 -14 39
-15 67 -6 18 6 39 18 45 26 16 18 1 18 -24 -1 -28 -21 -62 -19 -87 6 -30 30
-22 100 15 134 50 46 106 42 106 -8 0 -28 17 -10 22 22 3 23 -1 25 -47 28 -38
3 -58 -2 -83 -18z"/>
<path d="M5200 6512 c-18 -53 -35 -103 -37 -109 -3 -7 -1 -13 4 -13 4 0 22 37
38 83 40 111 45 126 36 132 -4 2 -23 -39 -41 -93z"/>
<path d="M5318 6605 c-3 -5 -15 -39 -26 -75 -11 -36 -28 -82 -36 -102 -14 -34
-14 -38 -1 -38 8 0 15 8 15 18 0 9 14 53 30 96 17 44 29 87 28 95 -2 9 -6 12
-10 6z"/>
<path d="M6686 6588 c5 -23 3 -26 -15 -21 -12 3 -21 1 -21 -6 0 -7 21 -11 55
-11 32 0 55 4 55 11 0 5 -8 9 -19 7 -11 -2 -28 8 -40 22 l-21 25 6 -27z"/>
<path d="M6795 6570 c-4 -19 -13 -45 -21 -57 -8 -13 -10 -23 -5 -23 13 0 39
42 43 71 2 16 9 24 23 24 16 0 21 -8 25 -39 5 -39 29 -59 58 -49 20 8 14 26
-8 20 -27 -7 -43 16 -35 51 6 29 5 30 -34 34 -38 3 -40 2 -46 -32z"/>
<path d="M4874 6586 c-6 -6 -25 -32 -42 -56 -44 -62 -64 -88 -84 -111 -24 -25
-23 -29 7 -29 17 0 23 4 19 14 -10 26 15 56 46 56 25 0 30 -4 30 -25 0 -14 -4
-25 -10 -25 -5 0 -10 -4 -10 -10 0 -5 14 -10 31 -10 25 0 29 3 21 13 -8 9 -8
40 -2 102 5 49 8 90 7 91 -1 1 -7 -3 -13 -10z m-19 -85 c-5 -22 -12 -31 -26
-31 -24 0 -24 4 3 40 26 35 32 33 23 -9z"/>
<path d="M4978 6593 c6 -2 12 -11 12 -20 0 -32 -43 -159 -59 -171 -13 -11 -5
-12 53 -10 62 3 71 6 89 30 18 24 19 31 8 55 -11 23 -10 29 3 39 22 16 20 61
-3 74 -11 5 -41 10 -68 9 -26 0 -42 -3 -35 -6z m92 -36 c0 -30 -18 -47 -48
-47 -19 0 -23 4 -17 18 4 9 10 25 12 35 3 10 15 17 29 17 18 0 24 -5 24 -23z
m-32 -63 c16 -5 22 -14 22 -35 0 -31 -23 -49 -64 -49 -28 0 -32 10 -17 38 5 9
12 25 15 35 6 19 10 20 44 11z"/>
<path d="M5446 6568 c-85 -75 -53 -204 46 -183 34 7 68 31 68 47 0 5 -7 2 -16
-6 -38 -39 -108 -28 -120 18 -8 33 13 95 40 118 31 26 87 20 103 -12 7 -14 13
-18 13 -10 0 8 3 24 6 36 5 19 1 21 -48 23 -48 1 -58 -2 -92 -31z"/>
<path d="M5648 6583 c10 -16 -28 -157 -46 -175 -7 -7 -12 -14 -12 -17 0 -11
125 -2 148 11 33 17 62 70 62 111 0 57 -40 87 -113 85 -38 0 -45 -3 -39 -15z
m106 -19 c34 -34 8 -138 -37 -149 -50 -13 -82 -10 -78 5 10 43 30 108 40 133
12 31 50 37 75 11z"/>
<path d="M7850 6595 c0 -6 5 -16 12 -23 9 -9 7 -12 -10 -12 -12 0 -22 -4 -22
-10 0 -5 14 -10 30 -10 28 0 30 -2 24 -27 -12 -48 -24 -75 -54 -120 -16 -23
-25 -43 -20 -43 4 0 21 20 37 45 l28 44 85 -2 c77 -2 85 -4 88 -22 4 -36 -21
-70 -48 -67 -24 4 -24 3 -5 -11 28 -21 53 -5 60 41 4 20 9 45 12 55 3 13 -2
17 -21 17 -23 0 -25 3 -20 29 5 24 3 29 -12 28 -15 -2 -18 4 -16 25 3 25 1 28
-30 27 -55 -2 -60 -1 -53 21 4 11 2 20 -4 20 -6 0 -11 -9 -11 -20 0 -26 -7
-25 -31 3 -10 12 -18 17 -19 12z m130 -75 c0 -17 -7 -20 -40 -20 -27 0 -40 4
-40 13 0 21 11 27 47 27 26 0 33 -4 33 -20z m30 -50 c0 -18 -7 -20 -65 -20
-36 0 -65 2 -65 4 0 28 16 36 71 36 52 0 59 -2 59 -20z"/>
<path d="M9290 6576 c0 -7 -3 -28 -6 -45 -6 -31 -6 -32 20 -25 24 6 26 4 26
-28 0 -32 -26 -68 -50 -68 -13 0 -13 6 6 41 15 31 14 46 -4 35 -5 -3 -13 -22
-16 -42 -6 -29 -11 -35 -28 -32 -29 4 -35 28 -9 35 12 3 21 9 21 14 0 5 -6 6
-14 3 -8 -3 -16 3 -19 15 -4 17 0 21 19 21 13 0 24 5 24 10 0 6 -11 10 -25 10
-34 0 -32 25 3 44 28 16 15 20 -25 10 -22 -6 -23 -10 -18 -85 4 -74 3 -79 -16
-79 -11 0 -17 -4 -14 -10 8 -13 285 -14 285 -1 0 5 -7 12 -16 15 -11 4 -14 14
-10 33 3 16 6 50 8 77 l3 49 -33 1 c-17 1 -32 -2 -32 -6 0 -5 9 -8 20 -8 13 0
20 -7 20 -20 0 -13 -7 -20 -20 -20 -11 0 -20 -4 -20 -10 0 -5 9 -10 20 -10 30
0 27 -40 -2 -41 l-23 0 23 -10 c33 -13 22 -33 -20 -37 l-35 -3 10 44 c12 55 5
77 -22 70 -15 -4 -21 -1 -21 11 0 10 9 16 25 16 14 0 25 5 25 10 0 6 -11 8
-25 4 -20 -5 -24 -3 -19 10 3 9 1 16 -5 16 -6 0 -11 -6 -11 -14z"/>
<path d="M10690 6569 c0 -12 -7 -36 -16 -55 -21 -43 -11 -57 10 -15 15 28 20
30 60 28 25 -1 47 -5 49 -7 5 -6 -9 -143 -18 -171 -5 -16 -13 -20 -31 -16 -29
5 -31 -4 -5 -20 37 -23 52 4 65 113 7 56 11 105 9 111 -2 5 -27 8 -59 5 l-55
-5 7 27 c4 16 2 26 -5 26 -6 0 -11 -9 -11 -21z"/>
<path d="M11025 6570 c6 -25 5 -25 -55 -22 -39 3 -60 0 -60 -7 0 -7 45 -11
136 -11 104 0 135 3 131 13 -2 8 -21 11 -60 9 -50 -3 -60 -1 -77 20 l-20 23 5
-25z"/>
<path d="M7367 6560 c5 -20 -33 -156 -50 -177 -7 -10 7 -13 67 -13 73 0 77 1
87 26 12 34 7 39 -16 14 -12 -14 -31 -20 -58 -20 -39 0 -39 0 -33 31 3 17 6
35 6 40 0 16 42 10 55 -8 11 -14 13 -13 17 15 4 29 3 30 -24 25 -30 -6 -33 1
-22 45 5 18 13 22 45 22 29 0 39 -4 39 -16 0 -8 5 -12 10 -9 6 3 10 15 10 25
0 17 -8 19 -69 19 -62 0 -68 -2 -64 -19z"/>
<path d="M10584 6555 c-3 -14 -12 -25 -20 -25 -8 0 -14 -6 -14 -12 -3 -102 -2
-179 3 -185 4 -3 7 -1 7 5 0 16 63 15 78 0 9 -9 12 11 12 90 l0 102 -30 0
c-29 0 -40 13 -20 25 13 8 13 25 0 25 -5 0 -12 -11 -16 -25z m46 -70 c0 -32
-2 -35 -30 -35 -28 0 -30 3 -30 35 0 32 2 35 30 35 28 0 30 -3 30 -35z m0 -85
c0 -38 -2 -40 -30 -40 -28 0 -30 2 -30 40 0 38 2 40 30 40 28 0 30 -2 30 -40z"/>
<path d="M11343 6572 l-63 -3 0 -49 c0 -47 2 -50 26 -50 16 0 24 -5 22 -12 -3
-7 -14 -13 -25 -13 -12 0 -25 -3 -29 -7 -4 -5 7 -8 24 -8 22 0 32 -5 32 -15 0
-11 -11 -15 -36 -15 -19 0 -33 -4 -30 -9 3 -5 40 -8 81 -7 l75 1 1 -45 c0 -25
3 -39 6 -32 3 7 25 12 59 12 l54 0 0 60 0 60 -31 -7 c-30 -6 -30 -5 -27 28 2
29 7 34 31 37 15 2 27 8 27 13 0 7 -12 8 -31 4 l-32 -7 6 36 c4 27 2 36 -9 36
-11 0 -14 -17 -14 -76 0 -71 -1 -76 -20 -71 -15 4 -20 0 -20 -14 0 -15 -7 -19
-35 -19 -24 0 -35 5 -35 15 0 10 10 15 31 15 16 0 28 4 24 9 -3 5 -17 8 -30 5
-18 -3 -25 0 -25 12 0 12 7 15 25 12 22 -5 25 -1 31 37 10 68 7 70 -63 67z
m-8 -52 c0 -29 -4 -36 -22 -38 -19 -3 -23 1 -23 22 0 29 16 35 23 9 4 -16 5
-16 6 -1 0 9 -3 20 -9 23 -17 10 -11 27 8 23 12 -2 17 -13 17 -38z m55 0 c0
-33 -3 -40 -20 -40 -21 0 -27 15 -10 25 6 3 10 13 10 21 0 8 -4 12 -10 9 -5
-3 -10 1 -10 9 0 9 9 16 20 16 17 0 20 -7 20 -40z m128 -128 c5 -36 -13 -57
-50 -57 -30 0 -33 3 -36 34 -4 40 10 52 53 48 22 -2 31 -9 33 -25z"/>
<path d="M12340 6565 c0 -11 -11 -15 -41 -15 -26 0 -38 -4 -33 -11 4 -6 20 -8
40 -4 30 5 34 3 34 -15 0 -11 5 -20 10 -20 6 0 10 7 10 16 0 9 9 18 20 21 11
3 17 10 14 15 -3 5 -12 7 -20 4 -8 -3 -14 1 -14 9 0 8 -4 15 -10 15 -5 0 -10
-7 -10 -15z"/>
<path d="M12450 6565 c0 -8 -7 -15 -15 -15 -8 0 -15 -4 -15 -10 0 -5 7 -10 16
-10 8 0 13 -4 9 -9 -3 -5 -1 -12 5 -16 5 -3 10 1 10 9 0 9 10 17 23 18 12 1
30 2 39 3 9 0 20 4 24 8 8 8 -7 10 -50 7 -23 -1 -28 2 -23 14 4 10 1 16 -8 16
-8 0 -15 -7 -15 -15z"/>
<path d="M8579 6548 c-7 -13 -21 -35 -33 -50 -12 -14 -32 -41 -46 -59 -14 -18
-33 -41 -42 -51 -24 -24 -23 -28 7 -28 19 0 25 5 25 23 0 31 18 47 52 47 33 0
38 -23 11 -52 -15 -17 -14 -18 22 -18 32 0 36 2 25 15 -12 14 -8 110 7 173 3
12 0 22 -6 22 -5 0 -16 -10 -22 -22z m-9 -72 c0 -29 -3 -33 -19 -29 -18 5 -18
6 -3 34 10 16 18 29 20 29 1 0 2 -15 2 -34z"/>
<path d="M8699 6561 c12 -8 11 -21 -9 -88 -12 -43 -29 -86 -38 -95 -14 -17
-11 -18 46 -18 75 0 126 27 147 77 32 77 -11 133 -104 133 -37 0 -51 -3 -42
-9z m105 -22 c36 -29 33 -81 -8 -133 -15 -18 -106 -37 -106 -21 0 18 43 151
52 163 15 17 31 15 62 -9z"/>
<path d="M9888 6543 c5 -28 -35 -164 -54 -179 -10 -8 4 -10 51 -9 47 1 69 6
85 20 21 19 27 69 10 80 -7 4 -3 14 10 25 23 20 26 52 8 68 -7 5 -36 12 -64
14 -49 5 -50 4 -46 -19z m90 -24 c2 -18 -4 -29 -22 -38 -40 -22 -56 -10 -42
34 9 30 15 35 36 33 18 -2 26 -10 28 -29z m-34 -65 c10 -4 16 -18 16 -35 0
-22 -6 -32 -26 -39 -48 -19 -57 -14 -49 27 10 56 19 62 59 47z"/>
<path d="M10111 6553 c-44 -22 -71 -68 -71 -120 0 -33 5 -46 26 -62 34 -27 84
-27 118 0 32 25 27 38 -6 15 -27 -19 -79 -21 -96 -4 -18 18 -15 79 7 118 32
60 120 73 122 18 1 -21 2 -20 11 5 12 34 12 35 -37 42 -27 4 -51 0 -74 -12z"/>
<path d="M13290 6533 c-8 -16 -13 -47 -11 -70 2 -38 0 -43 -18 -43 -25 0 -26
8 -5 38 9 13 13 26 9 30 -4 4 -10 1 -12 -6 -3 -8 -27 -43 -54 -78 -48 -62 -49
-64 -25 -64 19 0 24 4 19 15 -8 23 26 55 57 55 24 0 27 -3 22 -27 -3 -16 -10
-31 -16 -35 -6 -4 7 -8 29 -8 28 0 36 3 26 9 -16 11 -17 85 -1 156 11 49 -2
66 -20 28z"/>
<path d="M13407 6536 c7 -33 -33 -168 -54 -183 -14 -11 -9 -13 33 -13 113 0
164 39 164 125 0 66 -18 84 -92 90 -54 5 -55 4 -51 -19z m103 -16 c22 -22 25
-52 9 -98 -13 -37 -48 -62 -89 -62 -37 0 -37 7 -7 106 19 63 25 74 45 74 12 0
31 -9 42 -20z"/>
<path d="M13648 6535 c-88 -60 -91 -179 -4 -201 32 -8 96 20 96 42 0 15 -3 15
-23 -4 -27 -26 -69 -29 -91 -6 -21 20 -21 88 1 124 26 45 98 68 108 35 3 -8 7
-22 10 -31 7 -22 15 -13 21 25 4 23 1 31 -9 31 -8 0 -27 2 -43 5 -21 4 -39 -1
-66 -20z"/>
<path d="M2040 6538 c0 -8 5 -19 12 -26 8 -8 8 -15 -2 -27 -18 -22 -6 -30 14
-9 22 21 17 68 -6 72 -10 2 -18 -3 -18 -10z"/>
<path d="M13066 6513 c-14 -21 -53 -65 -86 -98 -33 -33 -60 -63 -60 -67 0 -5
43 -8 96 -8 61 0 93 4 89 10 -3 6 -37 10 -76 10 -38 0 -69 3 -69 8 0 4 12 19
28 32 40 37 122 131 122 141 0 19 -19 7 -44 -28z"/>
<path d="M14132 6538 c-7 -7 -12 -18 -12 -26 0 -11 4 -11 21 1 33 23 59 10 59
-29 0 -25 -12 -48 -45 -89 -25 -30 -42 -56 -38 -56 34 -5 109 4 115 14 12 19
9 32 -4 19 -14 -14 -78 -16 -78 -2 0 6 4 10 8 10 15 0 72 90 72 114 0 44 -67
75 -98 44z"/>
<path d="M14285 6530 c-3 -11 -3 -40 0 -64 5 -28 3 -46 -4 -50 -20 -13 -12
-55 14 -72 57 -37 106 17 71 78 -13 22 -15 32 -6 42 16 21 21 58 9 73 -18 21
-77 17 -84 -7z m63 -32 c-4 -40 -25 -48 -38 -13 -12 32 -6 45 21 45 17 0 20
-6 17 -32z m2 -120 c0 -25 -4 -29 -22 -26 -25 3 -33 26 -23 65 6 24 7 25 25 8
11 -10 20 -31 20 -47z"/>
<path d="M14426 6534 c-18 -47 12 -95 50 -80 23 9 36 53 21 76 -14 24 -62 27
-71 4z m59 -14 c10 -17 -6 -51 -22 -48 -26 5 -41 37 -23 48 20 13 37 13 45 0z"/>
<path d="M6698 6523 c-53 -6 -47 -23 7 -23 33 0 45 4 45 15 0 8 -3 14 -7 13
-5 -1 -25 -3 -45 -5z"/>
<path d="M3040 6510 c0 -6 33 -10 80 -10 47 0 80 4 80 10 0 6 -33 10 -80 10
-47 0 -80 -4 -80 -10z"/>
<path d="M10951 6480 c-24 -22 -40 -40 -37 -40 23 0 96 55 96 72 0 15 -15 7
-59 -32z"/>
<path d="M11104 6487 c40 -38 51 -42 41 -15 -5 13 -26 27 -70 47 -5 2 8 -12
29 -32z"/>
<path d="M6137 6504 c-11 -11 -8 -52 3 -59 6 -3 19 -3 31 0 28 9 23 59 -6 63
-12 2 -24 0 -28 -4z m43 -30 c0 -8 -9 -14 -20 -14 -19 0 -27 19 -14 33 10 9
34 -4 34 -19z"/>
<path d="M12370 6479 c-9 -17 -20 -20 -55 -18 -25 2 -47 0 -51 -4 -4 -4 16 -7
45 -7 51 0 51 0 38 -22 -19 -32 -11 -132 10 -124 8 3 46 6 84 6 l69 0 0 48 0
47 -75 -3 c-75 -4 -82 -1 -69 32 5 13 23 16 95 16 51 0 89 4 89 10 0 6 -32 8
-81 6 -75 -3 -80 -2 -76 15 7 25 -10 24 -23 -2z m120 -121 l0 -33 -62 1 c-51
0 -64 4 -66 18 -8 37 5 46 68 46 l60 0 0 -32z"/>
<path d="M6660 6470 c0 -5 18 -10 40 -10 22 0 40 5 40 10 0 6 -18 10 -40 10
-22 0 -40 -4 -40 -10z"/>
<path d="M11753 6472 c-18 -11 -19 -43 -2 -55 36 -23 78 24 44 49 -21 16 -26
17 -42 6z m37 -26 c0 -8 -5 -18 -11 -22 -14 -8 -33 11 -25 25 10 16 36 13 36
-3z"/>
<path d="M3062 6462 c-12 -2 -20 -7 -17 -11 6 -11 149 -4 153 7 2 8 -89 10
-136 4z"/>
<path d="M6780 6465 c0 -3 9 -24 21 -46 11 -23 19 -43 16 -45 -2 -2 -21 -13
-43 -24 -48 -24 -19 -27 31 -3 33 16 37 16 71 -1 24 -11 40 -14 46 -8 7 7 1
13 -13 17 -13 4 -32 13 -41 20 -16 11 -16 14 7 45 14 19 25 38 25 42 0 4 -27
8 -60 8 -33 0 -60 -2 -60 -5z m90 -10 c0 -10 -31 -67 -34 -63 -2 1 -11 18 -20
36 l-17 32 36 0 c19 0 35 -2 35 -5z"/>
<path d="M10700 6464 c1 -17 50 -70 50 -53 0 8 -11 26 -25 39 -14 13 -25 19
-25 14z"/>
<path d="M10991 6462 c-1 -8 8 -27 19 -42 27 -38 18 -55 -46 -81 -30 -13 -54
-27 -54 -32 0 -15 92 22 105 43 10 17 44 11 85 -15 39 -25 70 -32 70 -17 0 4
-20 15 -44 25 -66 27 -72 39 -46 82 12 20 19 39 15 43 -3 4 -10 0 -15 -8 -5
-8 -16 -24 -24 -35 -17 -22 -19 -20 -53 32 -8 12 -12 13 -12 5z"/>
<path d="M13870 6450 c0 -6 33 -10 80 -10 47 0 80 4 80 10 0 6 -33 10 -80 10
-47 0 -80 -4 -80 -10z"/>
<path d="M625 6440 c-4 -6 -3 -16 3 -22 6 -6 12 -6 17 2 4 6 3 16 -3 22 -6 6
-12 6 -17 -2z"/>
<path d="M6660 6388 l0 -47 38 6 c20 3 38 7 40 8 2 2 5 20 7 41 l4 39 -45 0
-44 0 0 -47z m70 2 c0 -25 -4 -30 -24 -30 -17 0 -25 7 -28 25 -6 30 -2 35 29
35 19 0 23 -5 23 -30z"/>
<path d="M8000 6408 c0 -9 5 -20 11 -23 17 -11 20 0 4 21 -13 17 -14 17 -15 2z"/>
<path d="M7910 6383 c0 -18 5 -33 10 -33 13 0 13 30 0 50 -7 11 -10 7 -10 -17z"/>
<path d="M7954 6394 c3 -9 6 -21 6 -27 0 -8 3 -8 10 -1 12 12 3 44 -12 44 -6
0 -7 -7 -4 -16z"/>
<path d="M7862 6375 c-16 -34 -15 -40 2 -26 16 13 28 51 17 51 -4 0 -13 -11
-19 -25z"/>
<path d="M13865 6390 c3 -5 42 -10 86 -10 46 0 79 4 79 10 0 6 -35 10 -86 10
-54 0 -83 -4 -79 -10z"/>
<path d="M12285 6365 c-16 -14 -25 -25 -18 -25 7 0 25 11 40 25 36 32 17 32
-22 0z"/>
<path d="M9256 6371 c-3 -5 -21 -16 -41 -25 -19 -9 -35 -21 -35 -27 0 -5 23 2
50 16 28 14 50 30 50 35 0 12 -17 13 -24 1z"/>
<path d="M9344 6371 c3 -4 19 -14 36 -21 16 -7 30 -16 30 -21 0 -5 7 -9 15 -9
28 0 15 20 -27 40 -45 21 -62 25 -54 11z"/>
<path d="M11273 6343 c-14 -29 -9 -43 8 -26 6 6 9 20 7 32 -3 19 -4 19 -15 -6z"/>
<path d="M11380 6363 c0 -4 5 -15 10 -23 8 -13 10 -13 10 2 0 9 -4 20 -10 23
-5 3 -10 3 -10 -2z"/>
<path d="M11322 6340 c0 -14 2 -19 5 -12 2 6 2 18 0 25 -3 6 -5 1 -5 -13z"/>
<path d="M11350 6346 c0 -9 5 -16 10 -16 6 0 10 4 10 9 0 6 -4 13 -10 16 -5 3
-10 -1 -10 -9z"/>
<path d="M1210 6180 c0 -5 11 -10 25 -10 22 0 25 -4 25 -38 0 -50 -27 -129
-58 -170 -14 -18 -22 -35 -19 -38 9 -9 66 76 79 118 6 21 14 38 17 38 3 0 16
-23 28 -50 l21 -49 -23 -15 c-13 -8 -35 -18 -49 -22 -14 -3 -26 -10 -26 -15 0
-15 16 -11 67 16 l47 26 49 -27 c35 -19 52 -23 60 -15 7 7 5 12 -9 17 -10 3
-33 13 -50 21 l-31 16 34 56 34 56 -30 3 c-30 3 -30 4 -24 48 l6 44 -87 0
c-51 0 -86 -4 -86 -10z m155 -27 c-4 -10 -10 -26 -12 -36 -4 -14 -14 -17 -42
-15 -33 3 -36 6 -39 36 l-3 32 51 0 c46 0 51 -2 45 -17z m35 -72 c0 -16 -41
-81 -51 -81 -11 0 -49 60 -49 78 0 8 17 12 50 12 28 0 50 -4 50 -9z"/>
<path d="M4168 6063 l-3 -128 -27 3 c-16 1 -28 -1 -28 -7 0 -12 51 -24 61 -14
9 10 16 273 7 273 -4 0 -9 -57 -10 -127z"/>
<path d="M2131 6161 c-7 -11 -23 -33 -36 -48 -53 -59 -85 -101 -85 -111 0 -6
-9 -14 -20 -17 -26 -8 -26 -25 0 -25 13 0 25 12 34 35 13 30 19 35 50 35 30 0
34 -2 28 -22 -3 -13 -10 -26 -16 -30 -6 -4 3 -8 20 -8 27 0 31 3 27 23 -2 12
0 58 5 102 5 44 8 82 6 83 -1 2 -7 -6 -13 -17z m-15 -67 c-3 -9 -6 -22 -6 -30
0 -8 -9 -14 -20 -14 -24 0 -25 5 -2 35 19 28 37 33 28 9z"/>
<path d="M3940 6088 c0 -103 0 -104 19 -100 16 4 10 -7 -33 -55 -11 -13 -14
-23 -8 -23 6 0 26 18 44 41 27 33 38 40 60 37 16 -3 28 -2 28 1 1 3 2 47 4 96
l4 90 -59 0 -59 0 0 -87z m100 52 c0 -16 -7 -20 -35 -20 -19 0 -38 -1 -42 -2
-5 -2 -9 7 -11 20 -3 20 1 22 42 22 39 0 46 -3 46 -20z m0 -59 c0 -21 -20 -29
-62 -23 -19 3 -28 10 -28 23 0 16 8 19 45 19 38 0 45 -3 45 -19z m-5 -61 c0
-10 -13 -16 -42 -18 -38 -3 -43 -1 -43 18 0 19 5 21 43 18 29 -2 42 -8 42 -18z"/>
<path d="M1823 6075 c-51 -52 -93 -98 -93 -104 0 -10 187 -7 197 3 4 3 -30 6
-75 6 -45 0 -82 4 -82 8 0 9 14 24 99 106 56 54 72 77 54 75 -5 0 -50 -42
-100 -94z"/>
<path d="M2234 6137 c0 -39 -36 -157 -46 -157 -5 0 -8 -4 -8 -10 0 -6 30 -10
70 -10 63 0 71 2 86 25 21 32 9 47 -12 17 -11 -17 -25 -22 -56 -22 l-41 0 6
37 c9 51 24 63 46 36 l18 -22 11 35 c11 38 10 39 -18 22 -26 -17 -34 -6 -26
37 6 32 10 35 42 35 22 0 37 -6 40 -15 9 -22 24 -18 24 5 0 18 -7 20 -67 20
l-68 0 -1 -33z"/>
<path d="M2424 6143 c-2 -43 -43 -171 -57 -176 -6 -3 15 -6 49 -6 46 -1 65 3
76 17 21 23 27 56 16 76 -8 14 -5 21 10 32 23 16 23 61 1 75 -8 5 -32 9 -54 9
-37 0 -40 -2 -41 -27z m80 -5 c15 -25 -4 -52 -39 -56 -22 -3 -27 0 -21 13 3 9
9 28 12 41 7 28 31 29 48 2z m-16 -106 c5 -31 -15 -52 -48 -52 -28 0 -28 0
-18 41 9 35 14 40 37 37 18 -2 27 -10 29 -26z"/>
<path d="M2890 6148 c-43 -46 -12 -126 45 -116 14 3 25 3 25 1 0 -18 -28 -47
-58 -61 -25 -11 -32 -17 -20 -19 49 -11 118 69 118 137 0 71 -65 106 -110 58z
m68 -10 c7 -7 12 -29 12 -50 0 -33 -3 -38 -23 -38 -40 0 -59 38 -41 84 7 19
35 21 52 4z"/>
<path d="M3206 6154 c-30 -30 -13 -74 29 -74 12 0 26 5 33 12 7 7 12 21 12 33
0 42 -44 59 -74 29z m52 -28 c5 -24 -10 -38 -31 -30 -17 6 -23 35 -10 48 12
12 38 1 41 -18z"/>
<path d="M3084 6123 c-16 -21 -34 -44 -41 -51 -7 -7 -13 -17 -13 -22 0 -5 -3
-15 -6 -24 -5 -13 2 -16 40 -16 44 0 46 -1 46 -30 0 -16 5 -30 10 -30 6 0 10
13 10 30 0 17 7 33 18 39 16 10 16 10 0 11 -15 0 -18 10 -18 65 0 36 -4 65 -9
65 -5 0 -21 -17 -37 -37z m26 -43 l0 -50 -35 0 c-19 0 -35 2 -35 5 0 6 63 94
68 95 1 0 2 -22 2 -50z"/>
<path d="M4100 6070 c0 -53 4 -90 10 -90 6 0 10 31 10 74 0 41 3 81 6 90 4 11
1 16 -10 16 -13 0 -16 -14 -16 -90z"/>
<path d="M4568 6060 c-54 -55 -98 -102 -98 -105 0 -3 45 -5 100 -5 60 0 100 4
100 10 0 6 -34 10 -82 10 l-83 0 88 88 c81 81 98 103 80 101 -5 0 -52 -45
-105 -99z"/>
<path d="M4774 6142 c-56 -45 -76 -134 -39 -172 32 -31 76 -35 108 -10 36 28
29 36 -12 13 -28 -16 -33 -17 -58 -3 -15 9 -29 24 -31 34 -16 81 79 181 126
134 7 -7 12 -21 12 -32 1 -17 2 -18 9 -6 5 8 12 25 15 38 7 21 5 22 -51 22
-40 0 -65 -6 -79 -18z"/>
<path d="M5029 6117 c-19 -23 -50 -63 -67 -89 -18 -26 -42 -54 -54 -63 -24
-16 -24 -16 10 -20 14 -1 22 3 22 14 1 25 25 51 49 51 11 0 21 5 21 10 0 6 -4
10 -10 10 -15 0 -12 12 11 40 l20 25 -7 -65 c-3 -36 -10 -66 -15 -68 -21 -8
-7 -22 22 -22 25 0 29 3 24 19 -3 10 -1 58 5 107 5 48 9 89 7 90 -1 1 -18 -17
-38 -39z"/>
<path d="M5158 6147 c10 -12 9 -29 -10 -93 -12 -44 -28 -83 -36 -87 -25 -16 0
-26 57 -23 94 5 141 49 141 131 0 55 -27 78 -101 83 -56 4 -62 3 -51 -11z
m107 -21 c27 -20 26 -86 -1 -123 -20 -27 -96 -54 -110 -40 -5 5 17 94 41 165
6 16 47 15 70 -2z"/>
<path d="M2624 6081 c-15 -15 7 -21 81 -21 47 0 85 4 85 9 0 9 -158 20 -166
12z"/>
<path d="M3575 6080 c-4 -6 -2 -17 4 -24 6 -7 8 -22 4 -32 -6 -17 -5 -17 10
-5 21 17 23 71 3 71 -8 0 -18 -5 -21 -10z"/>
<path d="M5428 6053 c23 -2 59 -2 80 0 20 2 1 4 -43 4 -44 0 -61 -2 -37 -4z"/>
<path d="M2620 6010 c0 -6 33 -10 80 -10 47 0 80 4 80 10 0 6 -33 10 -80 10
-47 0 -80 -4 -80 -10z"/>
<path d="M5428 5993 c23 -2 59 -2 80 0 20 2 1 4 -43 4 -44 0 -61 -2 -37 -4z"/>
<path d="M4020 5977 c0 -4 9 -21 20 -39 16 -27 20 -29 20 -12 0 11 -9 29 -20
39 -11 10 -20 15 -20 12z"/>
<path d="M14176 5898 c6 -21 -22 -135 -42 -165 -20 -32 -19 -33 31 -33 52 0
116 29 139 62 22 31 20 90 -4 121 -16 20 -30 26 -75 29 -48 3 -54 1 -49 -14z
m101 -20 c15 -13 17 -67 3 -103 -10 -25 -61 -55 -95 -55 -20 0 -19 22 7 108
20 70 22 73 47 67 14 -4 32 -11 38 -17z"/>
<path d="M14025 5579 c-27 -22 -58 -47 -69 -55 -10 -9 -61 -48 -115 -87 -53
-39 -110 -82 -128 -96 -85 -69 -109 -88 -144 -111 -43 -29 -273 -208 -310
-242 -14 -13 -65 -57 -113 -98 -48 -41 -113 -97 -144 -124 -31 -27 -79 -67
-106 -90 -27 -22 -68 -57 -90 -77 -23 -19 -79 -66 -126 -103 -47 -38 -101 -81
-120 -96 -19 -16 -82 -66 -140 -111 -149 -118 -448 -355 -493 -393 -21 -17
-47 -35 -56 -41 -10 -5 -40 -29 -67 -52 -27 -23 -96 -78 -154 -122 -58 -45
-118 -91 -135 -103 -16 -13 -66 -52 -110 -88 -45 -36 -94 -74 -109 -85 -16
-11 -33 -25 -40 -31 -6 -6 -31 -26 -56 -45 -25 -19 -102 -80 -173 -137 -118
-95 -146 -110 -147 -79 -1 7 -30 59 -65 117 -35 58 -81 134 -101 170 -21 36
-40 67 -43 70 -3 3 -13 19 -22 35 -22 40 -156 264 -234 390 -34 55 -114 188
-177 295 -168 284 -211 354 -219 360 -4 3 -32 45 -62 95 -30 49 -59 91 -63 92
-9 3 -21 -20 -195 -382 -155 -322 -270 -557 -437 -895 -88 -179 -197 -399
-241 -490 -45 -91 -87 -176 -95 -190 -8 -14 -71 -142 -141 -285 -70 -143 -230
-467 -355 -720 -461 -932 -495 -1004 -482 -1017 4 -4 633 -10 1397 -13 765 -3
1737 -7 2161 -9 424 -2 776 -1 781 3 6 3 34 71 63 151 29 80 64 174 78 210 13
36 37 99 52 140 15 41 44 118 64 170 73 186 245 658 340 930 32 91 62 174 66
185 21 52 73 200 104 295 35 104 144 423 205 595 34 96 68 187 82 220 12 28
124 333 159 430 15 44 46 125 68 180 70 176 160 408 177 460 9 28 32 86 50
130 19 44 52 127 75 185 22 58 45 114 50 125 5 11 23 56 40 100 17 44 35 89
39 100 10 22 18 44 62 175 41 119 40 120 -36 59z m-39 -206 c-40 -104 -80
-204 -89 -223 -8 -19 -45 -111 -82 -205 -36 -93 -69 -179 -74 -190 -24 -57
-51 -131 -51 -139 0 -4 -6 -22 -14 -39 -32 -69 -186 -467 -186 -480 0 -7 -4
-17 -9 -22 -4 -6 -20 -44 -34 -85 -14 -41 -44 -124 -67 -185 -77 -205 -212
-584 -290 -815 -27 -80 -70 -203 -95 -275 -26 -71 -68 -193 -95 -270 -27 -77
-67 -189 -88 -250 -22 -60 -47 -130 -56 -155 -9 -25 -21 -54 -25 -65 -5 -11
-16 -40 -24 -65 -21 -63 -69 -191 -197 -530 -62 -162 -122 -324 -135 -360 -13
-36 -33 -90 -45 -120 -12 -30 -26 -70 -31 -87 -12 -41 -21 -41 -42 -1 -27 53
-51 94 -152 258 -113 184 -355 594 -355 601 0 4 -4 9 -8 11 -4 2 -33 46 -63
98 -73 124 -326 545 -382 635 -25 39 -75 124 -113 190 -38 66 -73 125 -79 131
-5 6 -19 28 -30 50 -11 21 -25 44 -31 50 -6 7 -17 27 -24 46 -8 18 -17 35 -20
38 -5 4 -73 116 -86 141 -2 4 44 44 103 90 58 46 120 97 137 112 17 16 51 42
76 59 25 17 50 36 55 42 6 6 37 31 70 55 33 24 65 49 70 56 6 6 44 37 85 68
71 54 215 164 242 186 7 6 31 25 53 43 22 18 44 36 50 41 5 4 80 62 165 129
211 167 257 202 316 248 28 21 57 45 65 52 8 7 48 40 89 72 110 85 139 108
179 142 20 17 45 38 56 47 11 8 62 51 114 94 51 43 114 95 139 116 26 21 78
67 117 102 92 82 218 188 306 257 106 83 188 146 225 173 23 16 91 67 151 112
59 45 127 96 150 114 24 17 57 44 75 60 18 16 38 29 44 29 6 0 -21 -84 -60
-187z m-4059 -730 c17 -27 43 -68 58 -93 15 -25 31 -47 34 -50 12 -10 141
-220 141 -230 0 -5 5 -10 10 -10 6 0 10 -5 10 -11 0 -6 8 -23 19 -37 10 -15
31 -49 45 -77 15 -27 45 -77 67 -110 21 -33 43 -70 49 -83 5 -12 26 -48 46
-80 21 -31 62 -100 92 -152 30 -52 58 -97 61 -100 4 -3 25 -36 46 -75 22 -38
44 -77 50 -86 5 -9 27 -45 48 -80 21 -35 58 -95 83 -134 24 -38 49 -81 56 -95
6 -14 18 -33 27 -43 13 -16 11 -20 -17 -45 -17 -15 -44 -37 -59 -48 -157 -121
-307 -238 -322 -251 -9 -8 -56 -46 -106 -85 -49 -38 -99 -77 -110 -87 -11 -9
-49 -38 -85 -66 -36 -27 -67 -52 -70 -56 -3 -4 -39 -31 -81 -60 -78 -55 -168
-123 -294 -223 -38 -31 -122 -96 -185 -145 -187 -145 -324 -254 -339 -269 -8
-7 -39 -32 -70 -55 -31 -22 -58 -44 -61 -47 -3 -4 -39 -32 -80 -63 -41 -31
-106 -82 -145 -112 -38 -30 -95 -74 -125 -97 -74 -56 -162 -125 -180 -141 -8
-7 -78 -62 -155 -122 -184 -143 -327 -256 -343 -272 -17 -17 -52 -35 -52 -28
0 6 57 123 78 160 6 11 93 187 193 390 100 204 287 584 416 845 129 261 242
491 251 510 9 19 19 37 22 40 3 3 15 25 27 50 118 246 230 476 255 525 17 33
48 96 69 140 22 44 45 91 52 105 60 116 85 166 155 310 44 91 101 210 127 265
63 133 155 326 165 346 5 9 27 53 50 98 23 44 43 81 44 81 1 0 16 -21 33 -47z
m1035 -1706 c36 -62 76 -130 88 -152 12 -22 43 -76 70 -120 27 -44 59 -98 71
-120 12 -22 29 -51 39 -65 9 -14 43 -70 75 -125 32 -55 70 -118 84 -140 33
-52 38 -60 85 -142 22 -37 56 -93 77 -123 20 -30 46 -73 58 -95 12 -22 30 -53
41 -70 11 -16 24 -39 30 -50 6 -11 16 -29 23 -40 7 -11 35 -58 63 -105 29 -47
60 -99 70 -116 11 -17 39 -65 63 -105 24 -41 58 -96 76 -124 18 -27 35 -57 39
-65 8 -18 29 -55 111 -187 33 -54 65 -107 71 -119 6 -12 23 -39 38 -60 14 -21
26 -43 26 -48 0 -5 -263 -7 -667 -3 -368 4 -1132 7 -1700 7 l-1031 0 5 78 c11
159 -38 318 -133 429 -26 30 -45 55 -43 57 21 18 130 103 194 151 44 33 86 66
94 73 8 8 39 32 70 55 31 22 58 43 61 47 3 3 28 24 55 45 28 22 57 48 66 57 9
10 19 18 22 18 6 0 280 211 388 299 31 25 80 64 109 86 29 22 78 60 109 85 32
25 70 54 85 65 16 11 33 25 40 30 6 6 34 26 63 45 28 20 68 50 90 67 21 17 79
63 128 102 132 104 146 115 159 126 19 17 72 59 101 80 16 11 69 53 119 94 50
41 107 84 126 96 19 12 51 38 70 58 19 19 40 35 45 36 6 0 40 -50 77 -112z
m-2252 -1667 c45 -47 101 -160 124 -249 17 -65 20 -148 9 -214 l-6 -39 -423 4
c-233 1 -424 6 -424 10 0 3 19 20 43 37 23 17 56 42 72 55 33 27 234 184 364
286 46 36 107 84 135 107 28 24 55 43 59 43 5 0 26 -18 47 -40z"/>
<path d="M11138 3128 c6 -25 -28 -156 -45 -173 -13 -13 -5 -15 61 -15 64 0 77
3 86 19 16 32 11 48 -8 24 -11 -14 -33 -25 -61 -29 l-44 -7 8 39 c4 21 9 42
11 46 9 14 33 8 43 -9 12 -22 16 -17 24 25 l7 32 -26 -16 c-31 -21 -35 -17
-27 29 5 34 8 37 39 37 20 0 37 -6 42 -16 8 -14 10 -14 14 4 5 19 0 21 -62 24
-59 3 -66 1 -62 -14z"/>
<path d="M2120 5288 c-18 -40 -42 -85 -52 -100 -20 -29 -13 -40 20 -31 17 4
20 9 12 18 -21 25 0 45 45 45 36 0 45 -4 51 -22 4 -13 2 -24 -5 -26 -26 -9 -8
-22 30 -22 l40 0 -19 25 c-11 14 -33 61 -48 105 -16 44 -31 80 -35 80 -3 0
-21 -33 -39 -72z m44 0 c12 -45 8 -56 -20 -50 -18 3 -23 9 -18 21 3 9 9 24 11
34 7 24 19 21 27 -5z"/>
<path d="M3016 5344 c-23 -23 -19 -38 5 -20 29 20 49 10 49 -26 0 -22 -6 -31
-21 -35 -20 -5 -19 -6 3 -17 16 -8 23 -20 23 -41 0 -29 -2 -30 -42 -29 -30 0
-43 -3 -43 -13 0 -23 65 -20 93 4 18 17 23 73 7 89 -6 6 -6 20 2 41 9 25 9 35
-1 47 -17 20 -55 20 -75 0z"/>
<path d="M3171 5326 c-25 -40 -27 -95 -5 -142 13 -27 22 -34 45 -34 36 0 59
40 59 105 0 98 -57 139 -99 71z m73 -28 c13 -50 -3 -122 -28 -126 -10 -2 -22
2 -27 10 -13 20 -11 132 3 146 21 21 43 9 52 -30z"/>
<path d="M3322 5348 c-20 -20 -15 -66 8 -78 45 -24 85 22 60 69 -12 23 -49 28
-68 9z m56 -34 c4 -28 -34 -40 -47 -16 -12 25 -2 44 23 40 13 -2 22 -11 24
-24z"/>
<path d="M8865 5320 c-3 -5 -1 -10 4 -10 6 0 11 5 11 10 0 6 -2 10 -4 10 -3 0
-8 -4 -11 -10z"/>
<path d="M8910 5306 c0 -4 7 -14 15 -22 8 -9 15 -11 15 -6 0 5 -7 15 -15 22
-8 7 -15 9 -15 6z"/>
<path d="M3665 5261 c-9 -28 5 -51 30 -51 29 0 39 14 31 46 -8 30 -51 34 -61
5z m45 -15 c0 -21 -21 -31 -30 -15 -5 7 -6 17 -4 21 9 14 34 9 34 -6z"/>
<path d="M2283 5165 c0 -8 6 -15 14 -15 7 0 13 7 13 15 0 8 -6 15 -13 15 -8 0
-14 -7 -14 -15z"/>
<path d="M9895 5019 c8 -24 -23 -149 -43 -171 -14 -17 -11 -18 51 -18 59 0 68
3 86 26 25 32 26 47 6 64 -17 15 -20 30 -4 30 15 0 39 26 39 43 0 19 -36 35
-93 40 -43 4 -47 3 -42 -14z m90 -34 c0 -27 -4 -30 -32 -33 -35 -4 -38 2 -23
43 7 20 16 26 33 23 17 -2 22 -10 22 -33z m-10 -74 c8 -27 -14 -58 -44 -64
-36 -7 -43 0 -35 36 9 44 11 47 44 47 20 0 31 -6 35 -19z"/>
<path d="M2053 4599 c14 -8 17 -24 17 -92 0 -51 -5 -88 -12 -95 -9 -9 1 -12
44 -12 31 0 68 4 82 10 34 12 44 54 21 80 -13 15 -15 23 -7 33 6 7 9 22 7 32
-2 11 -4 23 -4 26 -2 14 -57 29 -109 29 -44 -1 -53 -3 -39 -11z m115 -27 c18
-23 15 -42 -10 -51 -38 -14 -58 -2 -58 34 0 46 37 55 68 17z m-10 -72 c7 0 17
-11 24 -25 15 -33 -4 -55 -48 -55 -34 0 -34 0 -34 46 0 43 2 46 23 40 12 -3
28 -6 35 -6z"/>
<path d="M3000 4581 c-12 -24 -8 -26 20 -9 16 10 23 10 36 -4 13 -12 14 -20 5
-37 -7 -11 -16 -21 -21 -21 -18 0 -10 -18 11 -23 16 -4 20 -12 17 -39 -3 -32
-4 -33 -45 -31 -43 2 -57 -9 -27 -21 28 -11 51 -6 78 15 30 23 33 54 10 87
-12 18 -13 26 -4 37 6 8 10 24 8 37 -4 33 -71 39 -88 9z"/>
<path d="M3155 4580 c-14 -16 -15 -20 -4 -20 8 0 20 5 25 10 17 17 44 0 44
-27 0 -16 -7 -27 -20 -30 -26 -7 -25 -16 2 -28 51 -23 27 -80 -28 -69 -35 6
-48 -8 -18 -20 29 -11 50 -6 72 17 26 27 28 63 7 88 -14 15 -14 18 1 33 13 14
15 22 6 42 -14 30 -61 33 -87 4z"/>
<path d="M3312 4588 c-36 -36 7 -91 55 -69 20 9 24 17 21 44 -3 27 -7 32 -33
35 -17 2 -36 -3 -43 -10z m53 -28 c0 -29 -32 -41 -41 -16 -9 24 4 48 23 44 12
-2 18 -12 18 -28z"/>
<path d="M3657 4513 c-12 -11 -8 -40 8 -53 24 -20 55 -3 55 31 0 25 -4 29 -28
29 -16 0 -32 -3 -35 -7z m43 -23 c0 -11 -7 -20 -15 -20 -8 0 -15 9 -15 20 0
11 7 20 15 20 8 0 15 -9 15 -20z"/>
<path d="M2276 4421 c-4 -7 -5 -15 -2 -18 9 -9 19 4 14 18 -4 11 -6 11 -12 0z"/>
<path d="M2089 3841 c-38 -29 -53 -95 -32 -139 22 -46 63 -66 111 -53 20 6 43
20 50 31 16 25 7 25 -25 0 -34 -27 -59 -25 -88 5 -36 35 -35 106 1 140 39 37
78 29 99 -20 8 -18 9 -17 13 8 2 16 2 31 -1 33 -2 3 -26 7 -53 10 -40 5 -54 2
-75 -15z"/>
<path d="M2993 3830 c-7 -10 -9 -22 -4 -24 5 -3 11 0 14 8 3 8 14 13 24 11 10
-2 21 -4 26 -4 17 -2 5 -50 -15 -64 l-23 -16 23 0 c12 -1 22 -4 23 -8 0 -5 2
-17 4 -28 7 -33 -10 -49 -49 -47 -20 2 -36 -2 -36 -8 0 -16 63 -12 88 6 16 11
22 25 22 54 0 21 -5 40 -12 42 -9 3 -9 12 1 36 11 27 11 34 -2 47 -22 22 -70
19 -84 -5z"/>
<path d="M3186 3825 c-68 -63 -59 -185 14 -185 48 0 76 61 50 111 -7 12 -21
19 -40 19 -17 0 -30 2 -30 5 0 17 35 55 51 55 11 0 19 5 19 10 0 19 -37 10
-64 -15z m42 -113 c4 -43 -13 -65 -39 -51 -14 7 -19 21 -19 50 0 38 2 40 28
37 23 -2 28 -8 30 -36z"/>
<path d="M3301 3826 c-18 -33 0 -66 37 -66 33 0 52 16 52 45 0 48 -67 64 -89
21z m63 -13 c4 -9 0 -23 -9 -32 -13 -14 -17 -14 -31 1 -9 9 -14 24 -11 32 8
21 43 20 51 -1z"/>
<path d="M3663 3763 c-18 -7 -16 -50 2 -57 37 -14 67 26 40 53 -14 14 -15 14
-13 -8 2 -13 -3 -26 -11 -29 -10 -3 -12 2 -7 22 3 14 5 26 4 25 -2 0 -9 -3
-15 -6z"/>
<path d="M2260 3659 c0 -24 23 -21 28 4 2 10 -3 17 -12 17 -10 0 -16 -9 -16
-21z"/>
<path d="M2040 3101 c0 -6 5 -11 10 -11 6 0 10 -35 10 -86 0 -71 -3 -89 -17
-100 -16 -12 -11 -13 39 -14 103 0 148 33 148 111 0 40 -4 51 -31 73 -24 20
-41 26 -79 26 -27 0 -55 3 -64 6 -9 3 -16 1 -16 -5z m140 -41 c14 -14 20 -33
20 -61 0 -51 -35 -89 -81 -89 l-29 0 0 85 0 85 35 0 c22 0 43 -8 55 -20z"/>
<path d="M2993 3085 c-19 -21 -16 -23 20 -21 26 1 33 -3 35 -21 2 -12 -5 -27
-17 -35 -21 -15 -21 -15 4 -26 17 -8 25 -20 25 -36 0 -31 -15 -40 -58 -38 -24
2 -33 -1 -30 -10 7 -22 52 -20 81 2 28 22 38 75 17 96 -6 6 -6 21 -1 42 7 24
6 36 -5 47 -19 19 -55 19 -71 0z"/>
<path d="M3154 3086 c-14 -11 -19 -26 -19 -61 0 -50 15 -68 53 -62 13 3 22 -1
22 -9 0 -17 -39 -54 -57 -54 -7 0 -13 -4 -13 -10 0 -30 71 11 93 54 15 29 21
60 18 97 -1 22 -39 59 -59 59 -10 0 -27 -6 -38 -14z m66 -36 c14 -50 -18 -88
-48 -58 -13 13 -16 70 -5 82 15 15 47 0 53 -24z"/>
<path d="M3296 3079 c-34 -49 34 -109 70 -61 18 23 17 47 -2 66 -22 22 -50 20
-68 -5z m48 -5 c21 -8 21 -40 0 -48 -21 -8 -34 1 -34 23 0 28 9 34 34 25z"/>
<path d="M3651 3006 c-20 -24 -9 -51 22 -54 27 -3 28 -1 25 30 -3 36 -27 48
-47 24z m39 -19 c0 -19 -10 -27 -25 -20 -17 6 -8 33 11 33 8 0 14 -6 14 -13z"/>
<path d="M2270 2905 c0 -8 5 -15 10 -15 6 0 10 7 10 15 0 8 -4 15 -10 15 -5 0
-10 -7 -10 -15z"/>
<path d="M7810 699 c0 -13 -119 -171 -137 -182 -19 -12 -7 -26 17 -20 11 3 18
9 15 13 -9 15 36 60 61 60 19 0 24 -5 24 -25 0 -13 -8 -29 -17 -34 -14 -8 -10
-10 22 -11 27 0 35 3 26 9 -14 9 -11 87 6 171 3 19 1 30 -6 30 -6 0 -11 -5
-11 -11z m-12 -86 c-2 -20 -9 -29 -25 -31 -28 -4 -28 2 -5 33 23 32 34 31 30
-2z"/>
<path d="M12341 655 c-68 -62 -67 -148 3 -173 36 -13 58 -9 95 20 29 22 24 23
-23 3 -75 -32 -117 25 -82 109 28 67 115 86 124 27 5 -34 22 -24 22 12 0 34 0
34 -50 36 -44 1 -54 -3 -89 -34z"/>
</g>
</svg>
