<?xml version="1.0" standalone="no"?>
<!DOCTYPE svg PUBLIC "-//W3C//DTD SVG 20010904//EN"
 "http://www.w3.org/TR/2001/REC-SVG-20010904/DTD/svg10.dtd">
<svg version="1.0" xmlns="http://www.w3.org/2000/svg"
 width="1479.000000pt" height="640.000000pt" viewBox="0 0 1479.000000 640.000000"
 preserveAspectRatio="xMidYMid meet">
<metadata>
Created by potrace 1.16, written by Peter Selinger 2001-2019
</metadata>
<g transform="translate(0.000000,640.000000) scale(0.100000,-0.100000)"
fill="#000000" stroke="none">
<path d="M3034 6028 c5 -16 -2 -18 -48 -18 -47 0 -54 -3 -64 -25 -18 -40 -15
-55 13 -55 24 0 25 -2 25 -76 0 -67 2 -75 15 -64 11 9 15 9 15 1 0 -6 -13 -14
-30 -17 -16 -4 -30 -13 -30 -20 0 -10 5 -12 18 -6 9 5 36 18 59 29 l42 21 48
-24 c54 -26 63 -28 63 -14 0 6 -10 15 -22 20 -13 5 -17 9 -9 9 11 1 13 16 9
71 l-5 70 30 0 c25 0 28 2 17 15 -9 11 -16 12 -25 5 -9 -8 -14 -5 -18 10 -5
18 -13 20 -81 20 -42 0 -76 3 -76 8 0 4 38 7 85 8 64 0 85 -3 85 -13 0 -11 4
-11 19 -1 31 19 15 28 -51 28 -46 0 -64 4 -75 18 -14 16 -14 16 -9 0z m-64
-52 c0 -22 -26 -43 -38 -31 -7 7 19 55 30 55 4 0 8 -11 8 -24z m60 -26 c0 -5
-6 -10 -14 -10 -8 0 -18 5 -21 10 -3 6 3 10 14 10 12 0 21 -4 21 -10z m76 3
c-10 -10 -46 -11 -46 -1 0 4 12 8 27 8 14 0 23 -3 19 -7z m-78 -30 c-10 -2
-26 -2 -35 0 -10 3 -2 5 17 5 19 0 27 -2 18 -5z m65 0 c-7 -2 -21 -2 -30 0
-10 3 -4 5 12 5 17 0 24 -2 18 -5z m-26 -20 c-20 -2 -52 -2 -70 0 -17 2 0 4
38 4 39 0 53 -2 32 -4z m16 -30 c-18 -2 -48 -2 -65 0 -18 2 -4 4 32 4 36 0 50
-2 33 -4z m27 -34 c0 -5 -29 -9 -65 -9 -80 0 -86 18 -7 22 62 3 72 2 72 -13z
m-33 -26 c-20 -2 -52 -2 -70 0 -17 2 0 4 38 4 39 0 53 -2 32 -4z"/>
<path d="M5811 6005 c-11 -20 -24 -48 -27 -62 -6 -23 -4 -25 15 -20 26 7 27
-4 1 -28 -22 -20 -27 -55 -7 -55 6 0 24 6 39 14 22 12 29 12 38 1 8 -10 8 -14
-1 -17 -10 -3 -9 -10 3 -27 16 -22 16 -21 16 27 1 35 -4 55 -15 64 -14 11 -16
11 -11 -3 5 -13 0 -18 -20 -22 -15 -3 -29 -3 -31 -1 -2 2 13 23 33 48 35 43
45 66 28 66 -5 0 -14 -11 -20 -25 -7 -15 -20 -25 -33 -25 -23 0 -21 5 24 57
18 20 16 43 -3 43 -4 0 -17 -16 -29 -35z"/>
<path d="M6193 6025 c-4 -12 -13 -15 -33 -11 -22 4 -29 1 -33 -16 -3 -11 -2
-30 2 -42 5 -11 6 -35 4 -53 -4 -27 -2 -32 18 -35 29 -4 22 -23 -8 -23 -32 -1
-41 -15 -10 -15 19 0 25 -4 21 -14 -3 -8 2 -16 13 -19 14 -3 10 -7 -15 -17
-47 -18 -31 -25 23 -10 36 10 51 10 75 0 28 -12 33 -11 55 10 l25 23 24 -22
c14 -13 29 -20 35 -17 7 5 1 16 -15 29 -25 21 -25 24 -13 72 6 28 18 60 26 73
18 29 7 49 -15 30 -37 -31 -54 -12 -37 41 5 17 4 22 -5 19 -7 -2 -19 -24 -27
-49 -21 -66 -23 -79 -13 -79 5 0 14 -18 20 -41 10 -35 9 -44 -6 -60 -18 -20
-41 -24 -62 -11 -17 12 -4 42 18 42 11 0 22 5 25 10 3 6 -3 10 -14 10 -11 0
-23 5 -26 10 -3 6 1 10 9 10 12 0 14 9 9 45 -3 29 -1 45 6 45 6 0 11 7 11 15
0 8 -4 15 -10 15 -5 0 -10 7 -10 15 0 12 -7 14 -26 9 -18 -5 -25 -3 -20 4 3 6
2 13 -4 17 -6 3 -13 -1 -17 -10z m-8 -49 c0 -11 -6 -21 -14 -24 -9 -3 -11 0
-7 7 4 7 2 19 -5 28 -11 13 -11 15 6 12 12 -3 20 -12 20 -23z m55 14 c0 -5 -4
-10 -9 -10 -6 0 -13 5 -16 10 -3 6 1 10 9 10 9 0 16 -4 16 -10z m-3 -36 c-3
-3 -12 -4 -19 -1 -8 3 -5 6 6 6 11 1 17 -2 13 -5z m-47 -24 c0 -5 -9 -10 -20
-10 -11 0 -20 5 -20 10 0 6 9 10 20 10 11 0 20 -4 20 -10z m50 0 c0 -5 -7 -10
-15 -10 -8 0 -15 5 -15 10 0 6 7 10 15 10 8 0 15 -4 15 -10z m114 -17 c-4 -16
-10 -37 -15 -48 -6 -17 -8 -16 -14 13 -4 17 -11 32 -16 32 -5 0 -6 7 -3 15 4
8 17 15 30 15 22 0 24 -3 18 -27z m-164 -19 c0 -9 -7 -14 -17 -12 -25 5 -28
28 -4 28 12 0 21 -6 21 -16z m50 1 c0 -8 -4 -15 -9 -15 -5 0 -8 -7 -7 -16 0
-9 -5 -19 -13 -22 -11 -3 -12 0 -6 14 4 11 7 27 7 37 0 9 6 17 14 17 8 0 14
-7 14 -15z m-25 -75 c-3 -5 -12 -10 -20 -10 -8 0 -17 5 -20 10 -4 6 5 10 20
10 15 0 24 -4 20 -10z"/>
<path d="M11955 6030 c-3 -6 -60 -11 -128 -12 -67 -1 -94 -3 -60 -5 61 -4 61
-4 54 -31 -7 -24 -12 -27 -50 -25 l-42 2 3 -96 c2 -64 7 -98 15 -100 9 -3 13
20 15 84 3 73 6 88 20 91 15 3 18 -8 20 -80 4 -105 23 -103 23 2 0 74 0 75 28
78 l27 3 0 -86 c0 -55 4 -84 10 -80 6 3 10 42 10 86 0 72 2 79 20 79 18 0 20
-7 20 -75 0 -64 -2 -75 -17 -75 -14 0 -13 -3 6 -16 12 -9 26 -12 31 -8 4 5 10
50 12 100 l4 91 -68 -5 c-72 -5 -83 3 -54 41 10 13 28 17 81 17 59 0 66 2 55
15 -14 17 -26 19 -35 5z"/>
<path d="M12826 6014 c6 -23 4 -26 -10 -21 -9 4 -16 2 -16 -3 0 -6 14 -10 30
-10 26 0 30 -4 30 -26 0 -23 -26 -78 -66 -140 -32 -47 -5 -35 32 15 l38 51 78
0 c77 0 78 0 78 -26 0 -40 -18 -64 -48 -64 l-27 0 25 -14 c34 -18 56 2 69 62
11 54 8 62 -18 55 -17 -4 -19 -1 -15 27 5 29 3 31 -15 25 -19 -6 -20 -3 -15
23 l6 30 -47 -5 c-46 -6 -46 -6 -39 21 3 15 2 26 -4 26 -5 0 -13 -12 -17 -27
l-6 -27 -12 24 c-18 35 -40 39 -31 4z m129 -54 c0 -10 -12 -16 -37 -18 -33 -3
-36 -1 -31 18 4 17 12 20 37 18 20 -2 31 -9 31 -18z m35 -34 c0 -28 -16 -36
-71 -36 -57 0 -59 1 -49 20 9 16 21 20 65 20 30 0 55 -2 55 -4z"/>
<path d="M13150 5975 l0 -65 47 7 c41 5 46 4 40 -11 -4 -10 -7 -19 -7 -20 0
-1 -27 -1 -60 0 -36 2 -60 -1 -60 -7 0 -6 23 -9 57 -8 31 2 58 -1 60 -7 5 -16
-45 -62 -82 -74 -42 -14 -48 -32 -6 -20 45 13 67 27 97 64 23 27 37 36 69 38
35 3 40 0 43 -19 5 -36 -16 -66 -44 -60 -33 6 -30 -9 3 -18 21 -5 32 -2 45 15
10 12 18 30 18 39 0 9 3 26 6 38 6 21 3 22 -60 25 -53 2 -64 6 -57 17 6 9 25
14 53 13 l44 -2 -2 57 c-2 72 -2 69 -16 55 -15 -15 -154 -16 -163 -2 -16 25
-25 5 -25 -55z m181 28 c1 -5 2 -21 3 -37 l1 -29 -77 -2 -78 -3 0 39 0 39 75
0 c41 0 75 -3 76 -7z"/>
<path d="M13786 5989 c-20 -40 -22 -51 -11 -55 8 -3 19 -3 26 1 8 6 8 2 0 -13
-6 -12 -16 -24 -21 -27 -6 -3 -10 -18 -10 -32 0 -24 1 -24 23 -11 37 24 66 28
77 10 8 -15 9 -15 10 3 0 11 -5 27 -10 35 -9 13 -12 13 -21 -2 -5 -10 -22 -18
-36 -18 l-26 0 35 34 c37 36 55 76 34 76 -6 0 -17 -9 -24 -20 -7 -11 -17 -20
-22 -20 -17 0 -11 26 10 45 24 21 26 45 5 45 -8 0 -26 -23 -39 -51z"/>
<path d="M14185 6029 c5 -7 -3 -9 -21 -7 -38 4 -57 -27 -36 -59 8 -13 18 -20
23 -17 5 3 17 0 26 -5 15 -9 13 -10 -14 -11 -30 0 -33 -3 -33 -30 0 -20 5 -30
13 -28 23 5 18 -17 -5 -24 -18 -5 -19 -6 -4 -7 11 -1 16 -6 13 -15 -4 -9 3
-17 16 -21 19 -6 17 -8 -18 -20 -36 -12 -37 -14 -12 -14 16 -1 37 4 48 10 14
7 29 7 54 -2 32 -12 37 -11 60 11 l25 24 16 -22 c16 -23 39 -29 49 -12 3 6 -5
14 -18 19 -34 13 -37 29 -16 75 9 22 16 47 14 57 -2 9 4 20 12 24 12 4 13 9 5
17 -7 7 -16 8 -24 1 -7 -5 -20 -9 -28 -8 -14 0 -15 10 -7 48 1 6 -2 14 -7 17
-5 3 -15 -17 -23 -45 -14 -45 -13 -55 2 -103 16 -53 16 -54 -6 -78 -26 -28
-28 -28 -52 -10 -21 16 -13 46 13 46 11 0 22 5 25 10 10 16 -25 25 -46 12 -24
-16 -29 -15 -29 3 0 10 10 15 29 15 31 0 49 26 31 44 -16 16 -12 44 8 56 12 8
13 13 4 16 -6 3 -10 10 -6 15 5 9 -8 13 -38 10 -10 -1 -18 3 -18 8 0 6 -7 11
-16 11 -8 0 -12 -5 -9 -11z m0 -29 c3 -5 -1 -10 -9 -10 -9 0 -16 5 -16 10 0 6
4 10 9 10 6 0 13 -4 16 -10z m45 0 c0 -5 -7 -10 -16 -10 -8 0 -12 5 -9 10 3 6
10 10 16 10 5 0 9 -4 9 -10z m-45 -30 c-3 -5 -13 -10 -21 -10 -8 0 -14 5 -14
10 0 6 9 10 21 10 11 0 17 -4 14 -10z m55 0 c0 -5 -4 -10 -9 -10 -6 0 -13 5
-16 10 -3 6 1 10 9 10 9 0 16 -4 16 -10z m-5 -30 c3 -5 -3 -10 -15 -10 -12 0
-18 5 -15 10 3 6 10 10 15 10 5 0 12 -4 15 -10z m105 -7 c0 -29 -12 -63 -21
-63 -5 0 -9 9 -9 19 0 11 -4 22 -10 26 -15 9 0 35 21 35 11 0 19 -7 19 -17z
m-160 -28 c0 -8 -4 -15 -9 -15 -13 0 -22 16 -14 24 11 11 23 6 23 -9z m50 0
c0 -8 -7 -15 -15 -15 -9 0 -12 6 -9 15 4 8 10 15 15 15 5 0 9 -7 9 -15z m-20
-74 c0 -14 -18 -23 -30 -16 -6 4 -8 11 -5 16 8 12 35 12 35 0z"/>
<path d="M1290 6021 c0 -9 -28 -12 -105 -10 -58 1 -109 -1 -112 -5 -4 -3 43
-6 103 -6 l109 0 1 -40 1 -40 -89 0 c-88 0 -88 0 -82 24 3 13 1 27 -5 30 -16
10 -22 -30 -19 -119 l3 -80 123 -3 122 -3 0 35 c0 19 -4 38 -10 41 -6 3 -10
-4 -10 -18 0 -40 -20 -48 -117 -45 l-88 3 0 60 0 60 96 3 96 3 -1 54 c-1 29
-4 57 -8 61 -5 4 -8 2 -8 -5z"/>
<path d="M1435 5990 c-4 -22 -11 -42 -16 -46 -5 -3 -9 -13 -9 -22 1 -13 6 -10
23 11 13 15 26 27 30 27 4 0 6 -12 3 -27 -2 -16 -5 -31 -5 -35 -1 -4 -15 -5
-33 -1 -22 4 -29 3 -24 -5 4 -7 18 -12 32 -12 37 0 29 -45 -19 -97 -12 -14
-15 -23 -8 -23 16 0 61 49 61 66 0 8 4 14 8 14 12 0 42 -34 42 -48 0 -6 5 -14
10 -17 21 -13 9 34 -15 56 -31 30 -32 45 -1 51 35 7 41 -1 40 -54 -1 -57 8
-75 26 -53 7 8 28 15 46 15 l34 0 0 103 0 102 -53 0 -52 0 1 -35 c2 -43 -5
-62 -18 -54 -6 4 -14 0 -19 -7 -11 -18 -19 -8 -24 30 -4 30 6 38 38 32 5 -1 7
4 5 11 -3 9 -19 12 -48 9 l-44 -3 17 26 c17 25 17 26 -2 26 -15 0 -21 -9 -26
-40z m205 -100 l0 -90 -35 0 -35 0 0 71 c0 82 11 109 45 109 25 0 25 -1 25
-90z"/>
<path d="M2289 6011 c10 -18 9 -21 -9 -21 -13 0 -20 -5 -17 -12 2 -7 16 -13
30 -13 19 1 27 -4 27 -17 0 -22 -36 -102 -62 -140 -33 -47 -1 -31 33 17 l33
46 80 -3 c73 -3 80 -5 81 -24 3 -39 -13 -64 -40 -64 -17 0 -25 5 -25 18 0 22
-17 48 -26 40 -4 -4 -1 -21 6 -37 8 -21 21 -32 42 -36 41 -9 55 8 64 74 7 52
6 53 -16 46 -21 -7 -22 -5 -15 25 7 31 6 32 -19 26 -24 -6 -25 -5 -20 24 l7
30 -49 0 c-37 0 -45 3 -36 12 18 18 15 28 -8 28 -13 0 -20 -7 -20 -19 0 -28
-18 -36 -22 -9 -2 12 -9 23 -16 26 -11 3 -12 0 -3 -17z m124 -68 c-4 -9 -17
-13 -37 -11 -41 4 -42 31 -1 38 32 6 47 -4 38 -27z m27 -43 c0 -18 -7 -20 -60
-20 -33 0 -60 2 -60 4 0 27 16 36 66 36 47 0 54 -2 54 -20z"/>
<path d="M3306 6019 c5 -8 -1 -10 -20 -7 -20 4 -26 1 -26 -13 0 -9 -6 -19 -12
-22 -10 -3 -10 -7 1 -20 8 -10 11 -30 9 -48 -4 -25 -1 -33 14 -37 31 -8 21
-32 -14 -33 -30 -2 -30 -2 -6 -6 18 -3 25 -9 21 -19 -3 -8 0 -14 6 -14 21 0
11 -18 -16 -29 -26 -11 -26 -11 7 -4 49 9 102 6 109 -6 4 -7 21 0 44 16 l38
27 15 -22 c8 -12 22 -22 30 -22 20 0 17 9 -11 36 -25 23 -25 25 -10 60 8 20
15 45 15 55 0 10 8 22 17 28 15 8 15 11 3 26 -12 15 -14 15 -22 1 -5 -9 -18
-16 -30 -16 -21 0 -22 18 -3 63 5 13 2 17 -14 17 -14 0 -21 -6 -21 -20 0 -11
-7 -37 -15 -56 -12 -30 -13 -40 -1 -62 29 -57 29 -70 1 -96 -22 -20 -30 -23
-45 -14 -25 16 -14 46 19 51 l26 3 -30 14 c-22 9 -26 14 -14 17 20 5 31 37 17
51 -6 6 -6 18 2 32 17 32 -1 70 -29 63 -12 -3 -21 -1 -21 6 0 6 -9 11 -21 11
-13 0 -18 -4 -13 -11z m4 -29 c0 -5 -7 -10 -15 -10 -8 0 -15 5 -15 10 0 6 7
10 15 10 8 0 15 -4 15 -10z m55 0 c3 -5 -3 -10 -15 -10 -12 0 -18 5 -15 10 3
6 10 10 15 10 5 0 12 -4 15 -10z m-55 -36 c0 -2 -9 -4 -20 -4 -11 0 -20 4 -20
9 0 5 9 7 20 4 11 -3 20 -7 20 -9z m57 0 c-3 -3 -12 -4 -19 -1 -8 3 -5 6 6 6
11 1 17 -2 13 -5z m-62 -24 c3 -5 -3 -10 -15 -10 -12 0 -18 5 -15 10 3 6 10
10 15 10 5 0 12 -4 15 -10z m60 0 c3 -5 -1 -10 -9 -10 -9 0 -16 5 -16 10 0 6
4 10 9 10 6 0 13 -4 16 -10z m115 -9 c0 -11 -5 -32 -11 -48 l-11 -28 -19 38
c-23 43 -18 57 17 57 17 0 24 -6 24 -19z m-173 -26 c0 -8 -6 -15 -14 -15 -7 0
-13 7 -13 15 0 8 6 15 13 15 8 0 14 -7 14 -15z m63 6 c0 -14 -18 -23 -30 -16
-6 4 -8 11 -5 16 8 12 35 12 35 0z m-26 -52 c-3 -5 -10 -7 -15 -3 -5 3 -7 10
-3 15 3 5 10 7 15 3 5 -3 7 -10 3 -15z m-14 -28 c0 -14 -18 -23 -30 -16 -6 4
-8 11 -5 16 8 12 35 12 35 0z"/>
<path d="M4095 6010 c18 -20 17 -20 -10 -20 -16 0 -25 -3 -21 -7 12 -12 117
-10 113 2 -2 5 -12 9 -23 8 -10 -1 -24 7 -32 18 -7 10 -20 19 -29 19 -14 0
-14 -3 2 -20z"/>
<path d="M4211 6008 c-6 -10 -11 -25 -11 -33 0 -9 -7 -27 -16 -40 -9 -14 -12
-25 -7 -25 16 0 44 36 52 66 4 16 15 30 24 32 12 3 16 -6 19 -40 3 -42 4 -43
41 -46 21 -2 37 1 37 7 0 6 -14 11 -31 11 -30 0 -31 1 -27 42 l3 43 -37 0
c-24 0 -40 -6 -47 -17z"/>
<path d="M5155 6013 c5 -18 2 -23 -14 -23 -15 0 -19 -4 -14 -17 4 -11 8 -12
11 -5 4 12 44 17 55 6 3 -3 2 -14 -3 -23 -4 -9 -16 -36 -26 -61 -10 -25 -28
-60 -41 -77 -13 -18 -19 -33 -13 -33 6 0 25 20 42 45 l32 45 89 0 c77 0 88 -2
83 -16 -3 -9 -6 -23 -6 -32 0 -32 -16 -45 -44 -38 -15 4 -25 10 -22 14 2 4 -1
18 -8 31 -7 13 -16 19 -19 14 -9 -15 16 -56 45 -73 26 -14 29 -13 47 5 12 11
23 41 26 68 7 47 6 49 -16 42 -20 -7 -21 -5 -16 24 6 29 5 32 -14 26 -17 -6
-20 -3 -17 22 3 27 1 28 -45 31 -42 3 -47 5 -42 23 4 13 2 19 -9 19 -9 0 -16
-9 -16 -20 0 -26 -7 -25 -31 3 l-20 22 6 -22z m125 -58 c0 -22 -4 -25 -34 -25
-29 0 -33 3 -31 23 3 29 1 27 35 27 25 0 30 -4 30 -25z m38 -52 c-3 -15 -14
-18 -61 -19 -38 -1 -57 3 -57 11 0 21 12 25 67 25 47 0 54 -3 51 -17z"/>
<path d="M10817 6022 c-9 -2 -15 -8 -11 -13 3 -5 3 -23 -1 -39 -5 -25 -12 -29
-43 -32 -29 -2 -41 -10 -60 -38 -26 -38 -26 -78 0 -94 13 -8 21 -6 36 7 23 21
32 22 32 1 0 -9 7 -14 18 -12 11 3 16 12 14 28 -1 13 7 56 19 95 23 80 23 102
-4 97z m-27 -112 c0 -20 -55 -90 -71 -90 -17 0 -9 57 12 84 25 31 59 35 59 6z"/>
<path d="M11370 6020 c0 -5 5 -12 10 -15 6 -3 10 -25 10 -47 0 -25 7 -49 17
-60 15 -17 15 -19 0 -36 -10 -10 -17 -34 -17 -53 0 -19 -5 -40 -11 -46 -6 -6
-9 -17 -7 -24 3 -10 13 -5 31 15 20 22 27 39 27 70 0 23 6 48 13 55 10 11 10
14 0 18 -7 3 -13 20 -13 39 0 19 -7 45 -16 59 -16 25 -44 41 -44 25z"/>
<path d="M13909 6023 c-5 -10 -7 -35 -8 -128 -1 -99 -2 -105 -22 -105 -11 0
-18 -4 -15 -8 3 -5 48 -9 101 -10 74 -1 95 2 95 13 0 8 -7 11 -21 8 -21 -6
-21 -4 -18 113 l4 119 -57 0 c-32 0 -59 -1 -59 -2z m91 -43 c0 -28 -3 -30 -34
-30 -19 0 -37 4 -41 10 -11 18 19 50 47 50 24 0 28 -4 28 -30z m-2 -72 c2 -20
-2 -27 -22 -32 -15 -3 -26 -11 -26 -16 0 -13 17 -13 25 0 12 19 25 -1 25 -36
0 -33 -1 -34 -40 -34 -38 0 -40 2 -40 29 0 17 5 33 11 37 8 4 8 9 0 17 -26 26
-2 64 39 62 19 -1 26 -7 28 -27z"/>
<path d="M2035 6010 c-23 -4 -26 -7 -13 -12 13 -5 15 -13 9 -35 -6 -22 -14
-29 -39 -31 -60 -6 -122 -111 -76 -129 10 -3 30 -2 45 4 21 8 29 8 31 -2 2 -9
10 -10 27 -4 17 7 21 12 13 22 -8 9 -4 38 14 101 14 49 24 89 22 90 -2 1 -16
0 -33 -4z m-35 -115 c0 -31 -27 -75 -46 -75 -19 0 -18 45 2 75 21 33 44 32 44
0z"/>
<path d="M5915 5920 c1 -122 -2 -138 -29 -143 -11 -2 23 -5 77 -8 72 -3 97 -1
97 8 0 7 -7 10 -16 6 -14 -5 -15 8 -12 113 l3 119 -60 0 -61 0 1 -95z m95 50
c0 -27 -3 -30 -30 -30 -32 0 -47 18 -36 45 3 9 18 15 36 15 27 0 30 -3 30 -30z
m0 -70 c0 -28 -3 -30 -35 -30 -19 0 -36 5 -36 10 -1 6 -2 16 -3 23 -4 21 4 27
40 27 31 0 34 -2 34 -30z m0 -86 c0 -35 -1 -35 -37 -32 -38 3 -38 3 -34 53 1
10 12 15 36 15 33 0 35 -2 35 -36z"/>
<path d="M6713 6003 c-18 -12 -23 -25 -23 -57 0 -23 -5 -47 -12 -54 -9 -9 -9
-15 0 -24 7 -7 12 -31 12 -53 0 -30 6 -47 23 -63 29 -28 58 -31 34 -4 -10 10
-17 33 -17 51 0 18 -9 46 -20 61 l-20 29 20 6 c16 5 20 15 20 52 0 32 5 50 18
59 26 20 -7 17 -35 -3z"/>
<path d="M6965 6009 c4 -6 4 -25 1 -43 -6 -29 -9 -32 -34 -28 -23 3 -34 -3
-56 -28 -47 -56 -21 -144 28 -95 14 15 16 15 16 1 0 -20 33 -21 49 -2 9 10 9
15 1 18 -8 2 -4 32 13 96 l24 92 -24 0 c-15 0 -22 -4 -18 -11z m-15 -102 c0
-33 -55 -96 -70 -80 -9 9 -9 19 0 47 17 53 70 78 70 33z"/>
<path d="M7388 6013 c-63 -10 -111 -132 -74 -188 11 -17 25 -25 46 -25 51 0
81 50 60 101 -10 24 -18 29 -46 29 -19 0 -34 3 -34 7 0 13 53 63 67 63 7 0 13
5 13 10 0 6 -1 9 -2 9 -2 -1 -15 -4 -30 -6z m-12 -101 c23 -15 25 -59 4 -83
-20 -24 -20 -24 -35 -5 -18 24 -20 82 -2 89 17 8 21 8 33 -1z"/>
<path d="M7737 6009 c8 -8 8 -20 1 -40 -8 -23 -16 -29 -38 -29 -41 0 -80 -50
-80 -101 0 -34 3 -39 23 -39 13 0 28 5 35 12 9 9 12 9 12 -1 0 -7 9 -11 23 -9
15 2 21 9 20 23 -1 11 5 45 14 75 34 118 34 120 5 120 -19 0 -23 -3 -15 -11z
m-17 -97 c0 -25 -48 -92 -65 -92 -19 0 -19 33 0 70 21 40 65 56 65 22z"/>
<path d="M8521 6008 c1 -7 1 -25 0 -40 -1 -25 -5 -28 -34 -28 -44 0 -77 -35
-84 -89 -7 -50 14 -63 58 -37 25 15 28 15 23 1 -8 -19 19 -20 35 -1 8 10 9 15
1 18 -7 2 -4 25 9 68 33 114 34 120 11 120 -12 0 -20 -6 -19 -12z m-21 -103
c0 -30 -52 -91 -68 -81 -26 16 17 105 51 106 12 0 17 -8 17 -25z"/>
<path d="M8871 6006 c-19 -11 -20 -14 -8 -19 24 -9 23 -162 -1 -176 -13 -8 -5
-10 33 -10 38 0 45 2 29 9 -20 8 -21 15 -18 90 1 45 0 90 -4 100 -6 16 -10 17
-31 6z"/>
<path d="M9244 6007 c14 -10 15 -18 7 -40 -8 -21 -17 -27 -40 -27 -40 0 -81
-49 -81 -96 0 -40 22 -54 53 -34 15 9 22 10 25 1 2 -6 9 -11 17 -11 17 0 39
27 26 32 -6 2 0 37 14 87 14 47 25 89 25 93 0 4 -14 8 -32 8 -28 0 -30 -1 -14
-13z m-24 -106 c0 -35 -41 -88 -59 -77 -15 9 -8 47 16 82 22 34 43 31 43 -5z"/>
<path d="M10032 6003 c4 -54 -1 -63 -36 -63 -44 0 -86 -46 -86 -95 0 -39 30
-56 57 -33 13 10 17 10 20 1 6 -17 28 -16 42 1 8 10 8 15 1 18 -7 2 -1 33 15
87 30 102 30 101 5 101 -13 0 -19 -6 -18 -17z m-20 -98 c-5 -28 -52 -87 -65
-82 -17 6 -12 51 9 82 21 32 61 32 56 0z"/>
<path d="M12385 6012 c-27 -2 -55 -8 -62 -14 -23 -19 -15 -62 17 -93 33 -32
41 -79 14 -89 -22 -8 -54 11 -54 34 0 23 -18 37 -24 18 -19 -61 -18 -63 37
-65 41 -1 57 3 75 20 30 28 28 43 -13 88 -37 41 -45 76 -21 85 22 8 56 -14 56
-36 0 -35 18 -21 22 18 3 20 5 37 4 37 -1 0 -23 -1 -51 -3z"/>
<path d="M251 5964 c-38 -55 -61 -99 -61 -115 0 -7 13 -10 35 -7 30 3 34 1 37
-22 4 -31 32 -34 36 -2 2 12 8 22 13 22 5 0 9 7 9 15 0 8 -4 15 -10 15 -6 0
-10 30 -10 70 0 39 -4 70 -9 70 -5 0 -23 -20 -40 -46z m14 -51 c0 -35 -3 -38
-29 -41 -24 -3 -28 -1 -20 10 6 7 18 25 27 41 10 15 19 27 20 27 1 0 2 -17 2
-37z"/>
<path d="M4675 5994 c-23 -24 -18 -56 16 -93 37 -41 37 -84 0 -89 -27 -4 -45
17 -50 59 -2 23 -19 -3 -23 -36 l-4 -35 58 0 c49 0 59 3 70 23 19 35 18 42
-18 83 -35 41 -44 78 -20 87 17 7 51 -16 51 -34 0 -29 23 -18 27 13 3 33 3 33
-44 35 -32 1 -53 -3 -63 -13z"/>
<path d="M8080 5991 c-12 -24 -13 -41 -1 -41 5 0 11 9 14 20 7 28 43 25 62 -4
15 -22 15 -28 2 -53 -9 -15 -31 -44 -51 -62 -20 -19 -36 -39 -36 -43 0 -4 27
-8 60 -8 45 0 62 4 67 15 7 21 -4 32 -19 17 -14 -14 -68 -16 -68 -3 0 5 3 11
8 13 4 2 22 20 40 41 34 40 43 92 20 115 -20 20 -86 15 -98 -7z"/>
<path d="M9600 5989 c-14 -26 -7 -35 10 -14 7 8 21 15 31 15 25 0 27 -55 2
-68 -15 -9 -13 -13 11 -34 26 -22 27 -26 15 -47 -11 -18 -20 -21 -46 -17 -24
3 -33 1 -33 -10 0 -18 58 -19 81 -1 32 24 41 55 26 85 -10 20 -11 36 -4 57 8
23 6 31 -9 42 -28 20 -71 16 -84 -8z"/>
<path d="M10402 5998 c-13 -17 -26 -79 -15 -77 24 6 64 -15 69 -36 12 -47 2
-60 -45 -58 -50 2 -53 -20 -3 -25 37 -4 88 38 78 64 -3 9 -6 24 -6 35 0 12
-14 28 -35 40 -29 17 -33 24 -24 35 7 8 20 12 29 9 9 -3 23 1 30 10 11 13 7
15 -28 15 -22 0 -44 -6 -50 -12z"/>
<path d="M11156 5994 c-3 -9 -6 -23 -6 -32 0 -12 4 -11 23 6 26 24 83 31 74 9
-3 -7 -13 -41 -22 -75 -10 -35 -22 -65 -26 -68 -14 -8 -10 -34 5 -34 13 0 45
85 66 178 l8 32 -58 0 c-44 0 -59 -4 -64 -16z"/>
<path d="M377 5971 c-24 -40 -22 -48 14 -56 39 -9 57 -44 41 -80 -11 -23 -16
-25 -48 -19 -29 5 -36 4 -32 -7 2 -8 16 -15 31 -17 36 -4 77 37 77 78 0 29
-29 70 -50 70 -5 0 -10 9 -10 20 0 16 7 20 30 20 17 0 30 5 30 10 0 6 -15 10
-33 10 -25 0 -36 -6 -50 -29z"/>
<path d="M10990 5941 c0 -40 -1 -41 -35 -41 -44 0 -46 -18 -2 -22 29 -3 32 -6
35 -40 4 -51 22 -49 22 2 0 38 2 40 30 40 17 0 30 5 30 10 0 6 -13 10 -30 10
-28 0 -30 3 -30 34 0 19 -4 38 -10 41 -6 4 -10 -10 -10 -34z"/>
<path d="M9435 5958 c-2 -7 -5 -24 -7 -38 -2 -21 -8 -24 -30 -22 -14 2 -29 -2
-33 -7 -4 -7 7 -11 30 -11 32 0 36 -3 35 -22 -4 -43 0 -58 15 -58 11 0 15 11
15 40 0 38 2 40 30 40 17 0 30 4 30 10 0 5 -13 7 -30 4 -29 -6 -30 -5 -30 29
0 36 -16 59 -25 35z"/>
<path d="M10209 5955 c-1 -8 -3 -19 -4 -25 -1 -5 -3 -14 -4 -20 0 -5 -12 -10
-25 -10 -14 0 -28 -4 -31 -10 -4 -6 7 -10 24 -10 29 0 31 -2 31 -40 0 -29 4
-40 15 -40 11 0 15 11 15 40 0 38 2 40 29 40 17 0 33 5 37 11 4 7 -5 10 -27 7
-35 -3 -34 -5 -38 55 -1 21 -21 23 -22 2z"/>
<path d="M4105 5940 l-40 -7 53 -2 c33 0 51 3 47 9 -3 6 -9 9 -13 9 -4 -1 -25
-5 -47 -9z"/>
<path d="M3700 5915 c-11 -13 -10 -20 1 -41 7 -14 15 -21 17 -15 2 6 10 11 17
11 18 0 24 21 13 43 -11 21 -31 22 -48 2z m37 -20 c0 -8 -6 -15 -14 -15 -7 0
-13 7 -13 15 0 8 6 15 13 15 8 0 14 -7 14 -15z"/>
<path d="M5684 5920 c-5 -5 -63 -11 -129 -13 l-120 -3 143 -2 c78 -1 142 2
142 7 0 13 -26 21 -36 11z"/>
<path d="M8020 5926 c0 -2 7 -6 15 -10 8 -3 15 -1 15 4 0 6 -7 10 -15 10 -8 0
-15 -2 -15 -4z"/>
<path d="M13668 5925 c-3 -3 -55 -6 -117 -6 -66 0 -111 -4 -111 -10 0 -6 49
-9 130 -7 99 1 130 5 130 15 0 13 -22 18 -32 8z"/>
<path d="M2688 5913 c-71 -2 -128 -7 -128 -11 0 -6 106 -7 268 -3 12 1 22 6
22 11 0 6 -8 9 -17 8 -10 -1 -75 -4 -145 -5z"/>
<path d="M4100 5900 c-32 -7 -31 -7 18 -9 33 -1 51 3 47 9 -7 11 -13 11 -65 0z"/>
<path d="M4244 5900 l-61 -5 18 -30 c10 -16 23 -38 29 -48 9 -15 6 -20 -24
-32 -20 -8 -41 -15 -48 -15 -9 0 -9 -3 -1 -11 9 -9 23 -5 55 13 43 24 44 24
73 6 32 -19 65 -24 65 -10 0 5 -18 15 -40 22 -22 7 -40 15 -40 18 0 2 13 21
30 42 38 47 27 57 -56 50z m46 -22 c0 -7 -9 -24 -18 -36 l-18 -24 -17 26 c-25
37 -21 46 18 46 21 0 35 -5 35 -12z"/>
<path d="M7073 5888 c-2 -5 33 -8 78 -8 45 0 80 3 76 6 -9 9 -148 10 -154 2z"/>
<path d="M7850 5888 c0 -4 35 -7 78 -7 85 1 80 6 -15 12 -35 2 -63 0 -63 -5z"/>
<path d="M8630 5888 c0 -5 34 -8 75 -8 41 0 75 3 75 8 0 4 -34 7 -75 7 -41 0
-75 -3 -75 -7z"/>
<path d="M4801 5871 c-8 -5 -10 -14 -5 -22 12 -20 13 -102 2 -116 -8 -10 -4
-13 17 -13 21 0 26 4 21 16 -3 9 -6 45 -6 80 0 64 -3 71 -29 55z"/>
<path d="M12450 5861 c-14 -26 -13 -38 2 -23 18 18 48 15 48 -5 0 -10 -14 -36
-30 -57 -17 -22 -30 -43 -30 -47 0 -10 72 1 84 12 5 5 7 12 3 16 -4 4 -13 1
-19 -5 -16 -16 -28 -15 -28 3 0 8 9 19 20 25 29 15 36 56 15 80 -23 25 -51 25
-65 1z"/>
<path d="M4076 5863 c-10 -10 -7 -103 3 -103 6 0 13 5 16 10 3 6 19 10 34 10
26 0 29 4 34 38 5 44 -6 61 -28 42 -13 -11 -21 -11 -35 -2 -10 6 -21 8 -24 5z
m64 -48 c0 -20 -5 -25 -25 -25 -20 0 -25 5 -25 25 0 20 5 25 25 25 20 0 25 -5
25 -25z"/>
<path d="M12970 5852 c0 -5 7 -17 15 -28 14 -19 14 -19 15 2 0 12 -7 24 -15
28 -8 3 -15 2 -15 -2z"/>
<path d="M2430 5843 c1 -18 19 -35 29 -28 9 5 9 10 0 21 -12 15 -29 19 -29 7z"/>
<path d="M5312 5830 c13 -20 28 -27 28 -12 0 10 -22 32 -32 32 -5 0 -3 -9 4
-20z"/>
<path d="M12888 5844 c-3 -5 -2 -20 2 -34 6 -21 8 -22 14 -8 8 18 -8 57 -16
42z"/>
<path d="M12928 5825 c2 -14 11 -25 18 -25 17 0 18 22 2 38 -19 19 -26 14 -20
-13z"/>
<path d="M13857 5824 c9 -15 19 -21 21 -15 4 13 -16 41 -29 41 -5 0 -2 -12 8
-26z"/>
<path d="M2342 5813 c4 -39 28 -42 28 -4 0 21 -5 31 -16 31 -11 0 -14 -8 -12
-27z"/>
<path d="M5218 5810 c3 -21 8 -28 14 -22 12 12 7 44 -8 49 -7 2 -9 -8 -6 -27z"/>
<path d="M12850 5826 c0 -8 -7 -16 -15 -20 -19 -7 -20 -26 0 -26 14 0 35 29
35 49 0 6 -4 11 -10 11 -5 0 -10 -6 -10 -14z"/>
<path d="M13800 5832 c0 -14 29 -42 42 -42 6 0 4 9 -4 22 -16 24 -38 35 -38
20z"/>
<path d="M515 5820 c-7 -12 2 -30 16 -30 12 0 12 27 0 35 -5 3 -12 1 -16 -5z"/>
<path d="M2303 5810 c-19 -29 -17 -48 3 -28 9 8 14 23 12 32 -3 14 -5 14 -15
-4z"/>
<path d="M5162 5810 c-15 -25 -15 -30 1 -30 6 0 17 11 24 25 14 31 -6 35 -25
5z"/>
<path d="M5823 5805 c13 -26 37 -34 37 -12 0 16 -20 37 -36 37 -9 0 -9 -6 -1
-25z"/>
<path d="M7470 5816 c0 -10 9 -16 22 -16 l21 0 -23 -25 c-25 -26 -16 -34 14
-12 25 18 18 61 -11 65 -16 2 -23 -2 -23 -12z"/>
<path d="M8260 5816 c0 -8 8 -16 17 -18 16 -3 16 -4 0 -20 -22 -22 -22 -31 2
-19 22 12 33 35 25 56 -8 19 -44 20 -44 1z"/>
<path d="M8980 5816 c0 -8 6 -16 13 -19 9 -3 9 -8 -2 -21 -17 -20 -10 -29 13
-20 20 8 36 42 29 62 -7 17 -53 15 -53 -2z"/>
<path d="M9760 5816 c0 -9 7 -16 15 -16 23 0 18 -20 -7 -29 -15 -5 -18 -10 -9
-15 17 -11 52 24 49 48 -4 26 -48 36 -48 12z"/>
<path d="M10550 5816 c0 -8 6 -17 13 -20 8 -3 6 -9 -7 -20 -16 -13 -17 -16 -4
-16 23 0 41 26 33 50 -7 23 -35 28 -35 6z"/>
<path d="M13774 5810 c3 -14 6 -28 6 -32 0 -5 5 -8 10 -8 15 0 12 24 -6 46
-15 18 -15 18 -10 -6z"/>
<path d="M5785 5798 c10 -31 25 -47 25 -26 0 24 -11 48 -22 48 -5 0 -6 -10 -3
-22z"/>
<path d="M7117 5573 c-4 -3 -7 -60 -7 -125 l0 -118 -27 0 -28 0 29 -15 c16 -9
33 -12 37 -8 9 9 16 259 8 268 -3 3 -9 2 -12 -2z"/>
<path d="M7242 5528 c-6 -28 -19 -59 -28 -70 -10 -10 -14 -21 -11 -25 4 -4 14
2 22 13 13 17 14 11 15 -63 0 -45 5 -85 10 -88 6 -3 10 2 11 12 4 101 3 156
-4 160 -4 2 -4 10 0 16 4 7 8 17 9 22 0 6 2 16 2 23 2 8 26 12 82 12 l81 0 -3
-102 -3 -103 -30 -6 c-16 -4 -24 -7 -16 -8 8 0 23 -8 32 -17 17 -16 19 -15 29
10 5 15 10 70 10 121 0 75 3 96 16 103 13 7 13 10 1 21 -10 8 -17 9 -22 1 -3
-5 -41 -10 -85 -10 -66 0 -78 2 -74 15 4 10 0 15 -13 15 -14 0 -21 -12 -31
-52z"/>
<path d="M7650 5559 c0 -19 -4 -21 -41 -16 -28 4 -39 2 -36 -6 2 -7 20 -13 40
-15 24 -2 37 -8 37 -18 0 -10 -14 -14 -55 -14 -30 0 -55 -4 -55 -10 0 -6 29
-10 68 -10 66 0 67 -1 44 -18 -13 -10 -43 -27 -68 -38 -52 -23 -60 -41 -8 -19
20 8 38 15 40 15 2 0 4 -27 4 -60 0 -57 13 -79 26 -45 9 22 114 21 114 -1 0
-8 5 -12 10 -9 6 3 10 37 10 74 l0 69 -62 -4 c-35 -2 -56 -1 -48 3 8 3 21 12
28 20 8 8 37 13 75 13 54 0 60 2 46 15 -11 11 -22 13 -48 5 l-33 -9 26 34 c14
18 26 39 26 45 0 18 -24 6 -35 -17 -6 -12 -17 -28 -24 -37 -17 -20 -61 -21
-61 -1 0 11 11 15 36 15 31 0 35 2 24 15 -8 10 -21 13 -37 9 -22 -6 -24 -4
-18 15 5 15 2 21 -9 21 -10 0 -16 -9 -16 -21z m110 -164 c0 -12 -13 -15 -60
-15 -47 0 -60 3 -60 15 0 12 13 15 60 15 47 0 60 -3 60 -15z m0 -45 c0 -18 -7
-20 -60 -20 -53 0 -60 2 -60 20 0 18 7 20 60 20 53 0 60 -2 60 -20z"/>
<path d="M8382 5564 c-6 -11 -17 -15 -30 -12 -16 5 -23 -1 -31 -23 -12 -34 3
-39 20 -8 8 15 14 18 22 10 7 -7 5 -16 -8 -31 -16 -18 -19 -34 -16 -108 1 -48
5 -89 7 -91 2 -3 10 1 16 7 7 7 38 12 71 12 35 0 56 4 52 10 -3 5 -20 7 -36 3
-27 -5 -31 -3 -27 13 2 12 13 20 31 22 15 2 27 8 27 13 0 6 -12 8 -28 4 -22
-4 -29 -2 -29 10 0 10 10 15 30 15 18 0 27 4 24 13 -2 7 -16 11 -32 9 -23 -3
-27 -1 -21 13 3 9 6 18 6 20 0 2 14 1 31 -2 23 -3 30 -1 27 9 -3 7 -18 13 -33
13 -16 0 -30 6 -32 13 -3 6 -9 12 -15 12 -6 0 -8 -7 -4 -15 3 -10 -1 -15 -14
-15 -17 0 -17 2 -4 30 12 23 22 30 46 30 22 0 29 -4 25 -15 -9 -23 11 -28 22
-6 16 29 14 31 -29 31 -29 0 -40 4 -40 15 0 20 -17 19 -28 -1z m18 -114 c0
-11 -7 -20 -15 -20 -8 0 -15 9 -15 20 0 11 7 20 15 20 8 0 15 -9 15 -20z m0
-55 c0 -8 -7 -15 -15 -15 -8 0 -15 7 -15 15 0 8 7 15 15 15 8 0 15 -7 15 -15z
m0 -45 c0 -11 -7 -20 -15 -20 -8 0 -15 9 -15 20 0 11 7 20 15 20 8 0 15 -9 15
-20z"/>
<path d="M6655 5560 c-83 -4 -105 -7 -62 -8 l68 -2 -1 -117 c-2 -146 -2 -143
10 -143 6 0 10 39 10 96 l0 95 33 -22 c17 -13 37 -30 44 -39 6 -8 15 -11 19
-7 14 13 -11 41 -55 62 -33 16 -41 25 -41 47 0 28 1 28 65 28 37 0 65 4 65 10
0 6 -6 9 -12 8 -7 -1 -71 -5 -143 -8z"/>
<path d="M6937 5562 c-37 -1 -65 -7 -62 -12 3 -4 14 -6 25 -3 29 8 26 -31 -5
-86 -26 -45 -26 -70 0 -35 14 18 15 18 39 -11 l24 -30 -39 -34 c-52 -46 -52
-72 1 -30 45 36 74 80 89 135 11 41 6 60 -12 46 -7 -5 -20 -9 -30 -9 -13 0
-17 7 -15 26 3 23 8 26 41 26 20 0 36 4 34 9 -4 12 -8 13 -90 8z m53 -95 c0
-7 -6 -22 -14 -32 -14 -19 -15 -19 -35 -1 -32 29 -27 46 14 46 22 0 35 -5 35
-13z"/>
<path d="M8105 5559 c-5 -7 -45 -9 -116 -6 -60 2 -109 0 -109 -5 0 -4 29 -8
64 -8 l64 0 -1 -102 -2 -103 -28 -3 -28 -3 2 77 c1 52 -2 79 -9 82 -9 3 -12
-21 -12 -78 l0 -82 -30 6 c-17 3 -30 1 -30 -4 0 -6 56 -10 142 -10 136 0 141
1 124 18 -13 12 -20 14 -23 5 -7 -18 -68 -16 -84 3 -10 13 -10 17 0 24 8 4 9
10 4 13 -5 4 -9 16 -8 29 1 20 8 24 48 28 38 4 45 8 37 20 -7 12 -12 12 -22 2
-14 -14 -54 -16 -63 -2 -3 6 0 10 7 10 11 0 11 2 0 9 -9 5 -11 17 -6 34 6 25
10 27 60 27 43 0 52 3 48 15 -7 18 -20 19 -29 4z"/>
<path d="M8250 5559 c-43 -5 -50 -8 -32 -14 12 -4 22 -10 22 -13 0 -13 -24
-88 -32 -96 -13 -15 -9 -36 5 -30 9 3 13 -7 13 -36 1 -47 8 -57 28 -41 8 7 23
11 33 9 16 -3 18 4 16 45 -1 34 3 50 12 54 25 9 -11 36 -36 28 -20 -7 -21 -5
-15 25 3 18 6 36 6 41 0 5 11 9 25 9 14 0 25 4 25 9 0 15 -11 17 -70 10z m38
-159 c-2 -27 -6 -50 -11 -50 -20 0 -32 26 -29 61 3 30 8 39 23 39 16 0 19 -7
17 -50z"/>
<path d="M8636 5551 c-18 -20 -19 -66 -1 -66 5 0 9 14 10 30 0 24 5 31 23 33
28 4 52 -14 52 -38 0 -10 -11 -32 -25 -48 -14 -17 -25 -43 -25 -58 0 -28 0
-28 21 10 11 21 29 48 40 59 23 25 19 64 -8 85 -25 18 -67 15 -87 -7z"/>
<path d="M1164 5533 c-20 -22 -25 -35 -21 -60 4 -21 1 -36 -9 -44 -13 -10 -12
-15 7 -36 13 -12 17 -23 11 -23 -7 0 -12 -11 -12 -24 0 -26 47 -79 62 -69 6 3
4 10 -6 15 -11 6 -16 23 -16 51 0 24 -6 49 -12 55 -10 10 -10 17 0 32 6 11 12
36 12 57 0 20 7 45 17 55 10 11 12 18 4 18 -7 0 -23 -12 -37 -27z"/>
<path d="M1417 5540 c3 -11 3 -30 -1 -43 -4 -19 -11 -23 -29 -20 -37 7 -77
-33 -84 -84 -4 -34 -2 -44 11 -49 9 -3 22 -2 29 3 6 6 20 13 29 16 12 4 15 2
11 -10 -4 -11 -1 -14 13 -11 13 2 19 13 20 39 2 31 25 123 41 167 3 7 -4 12
-20 12 -20 0 -24 -4 -20 -20z m-17 -85 c0 -42 -60 -110 -75 -86 -8 14 27 90
45 95 27 7 30 6 30 -9z"/>
<path d="M2195 5549 c4 -6 4 -26 1 -44 -5 -25 -11 -33 -22 -28 -8 3 -28 0 -44
-7 -35 -14 -68 -93 -49 -117 15 -18 39 -16 61 4 17 15 18 15 18 0 0 -21 23
-22 40 -2 9 11 9 15 1 15 -14 0 -6 51 20 129 11 30 19 56 19 58 0 1 -12 3 -26
3 -15 0 -23 -4 -19 -11z m-24 -131 c-10 -29 -56 -66 -69 -54 -11 11 12 68 35
86 34 27 49 13 34 -32z"/>
<path d="M2968 5519 c-3 -39 -5 -42 -37 -44 -48 -4 -74 -34 -75 -87 -1 -36 2
-43 20 -46 11 -2 27 5 35 14 13 16 12 17 -9 12 -31 -8 -38 12 -18 51 14 26 43
51 60 51 12 0 5 -55 -8 -73 -16 -20 -10 -57 9 -57 17 0 39 27 26 32 -6 2 0 40
14 93 14 50 25 91 25 93 0 1 -9 2 -19 2 -16 0 -20 -8 -23 -41z"/>
<path d="M3735 5518 c0 -36 -3 -43 -18 -40 -31 5 -86 -39 -93 -75 -12 -61 12
-79 62 -47 22 15 24 15 18 0 -4 -10 -1 -16 9 -16 18 0 42 27 28 32 -10 3 15
117 30 133 5 5 9 19 9 32 0 17 -6 23 -22 23 -20 0 -23 -5 -23 -42z m-15 -77
c0 -28 -39 -81 -60 -81 -43 0 7 104 53 109 4 1 7 -12 7 -28z"/>
<path d="M4115 5548 c-30 -16 -31 -18 -15 -28 19 -12 23 -160 4 -160 -7 0 -15
-4 -19 -9 -3 -6 12 -9 34 -8 26 1 36 5 30 13 -4 5 -10 53 -11 106 -3 93 -4 96
-23 86z"/>
<path d="M4479 5546 c8 -9 8 -22 0 -43 -8 -24 -15 -30 -30 -26 -45 12 -89 -39
-89 -103 0 -31 16 -39 45 -20 30 20 35 20 35 1 0 -18 5 -19 32 -4 15 8 17 13
8 19 -10 6 -8 24 9 81 12 41 24 82 27 92 4 13 -1 17 -22 17 -21 0 -24 -3 -15
-14z m-19 -96 c0 -24 -58 -92 -72 -84 -5 3 -6 20 -3 37 11 52 75 93 75 47z"/>
<path d="M5268 5548 c6 -7 8 -25 5 -40 -4 -20 -11 -28 -27 -28 -59 0 -101 -47
-94 -106 2 -25 7 -28 28 -26 14 2 30 8 36 13 8 6 14 4 18 -6 5 -13 10 -14 27
-4 14 7 18 14 11 18 -13 8 9 109 33 153 20 36 19 38 -16 38 -24 0 -29 -3 -21
-12z m-18 -92 c0 -23 -20 -70 -33 -78 -7 -4 -20 -8 -31 -8 -15 0 -17 5 -11 28
12 49 75 98 75 58z"/>
<path d="M5683 5540 c-18 -11 -33 -26 -33 -34 0 -8 -7 -19 -15 -24 -36 -19 -8
-130 34 -133 45 -3 80 26 81 68 0 28 -44 63 -71 56 -21 -6 -21 -5 -5 19 9 14
27 31 41 38 14 7 25 17 25 22 0 14 -23 9 -57 -12z m16 -94 c17 -21 10 -80 -10
-84 -24 -4 -44 50 -29 77 13 25 23 26 39 7z"/>
<path d="M5838 5546 c16 -13 22 -27 22 -55 0 -20 5 -42 12 -49 9 -9 9 -15 0
-24 -7 -7 -12 -33 -12 -59 0 -37 -5 -50 -22 -62 -17 -12 -19 -16 -7 -16 29 -1
62 45 57 79 -3 18 1 35 9 41 16 14 17 36 2 41 -5 2 -11 25 -13 51 -3 55 -2 53
-41 62 -30 7 -30 7 -7 -9z"/>
<path d="M7060 5523 c0 -28 -5 -43 -12 -43 -10 0 -10 -2 0 -9 8 -5 13 -22 11
-42 -3 -52 0 -71 11 -64 13 8 13 165 0 185 -7 11 -10 4 -10 -27z"/>
<path d="M1756 5528 c-9 -34 -7 -41 7 -31 17 14 56 23 72 17 13 -5 6 -40 -22
-104 -3 -8 -7 -18 -7 -22 -1 -3 -4 -10 -8 -14 -13 -12 -9 -34 6 -34 13 0 28
40 72 193 5 15 -2 17 -54 17 -53 0 -60 -2 -66 -22z"/>
<path d="M2560 5518 c-24 -40 -21 -52 13 -56 35 -4 49 -24 45 -64 -3 -32 -4
-33 -46 -31 -51 2 -54 -20 -4 -25 39 -4 82 34 82 73 0 26 -39 75 -60 75 -5 0
-10 5 -10 10 0 6 13 10 29 10 17 0 31 6 35 16 9 24 9 24 -29 24 -29 0 -39 -6
-55 -32z"/>
<path d="M3315 5530 c-19 -21 -13 -42 7 -22 17 17 45 15 52 -4 8 -22 9 -21
-16 -44 -16 -15 -18 -20 -6 -20 8 0 20 -11 26 -24 16 -36 -5 -61 -46 -53 -25
5 -32 3 -32 -10 0 -13 8 -15 42 -10 23 3 48 14 55 23 14 19 17 66 6 78 -5 4
-8 29 -8 54 0 45 -1 47 -31 50 -20 2 -36 -4 -49 -18z"/>
<path d="M4831 5523 c-24 -29 -21 -44 4 -19 21 20 49 21 65 1 17 -21 -1 -62
-46 -106 -19 -18 -34 -38 -34 -43 0 -19 111 -11 122 8 8 15 4 16 -34 10 -41
-7 -42 -6 -28 12 52 64 68 135 36 156 -24 17 -65 8 -85 -19z"/>
<path d="M3920 5464 c0 -35 -1 -36 -35 -32 -22 2 -34 0 -32 -6 2 -6 18 -12 35
-14 29 -3 32 -6 32 -38 0 -31 18 -50 21 -21 1 6 2 17 4 22 1 6 3 16 3 23 1 6
15 12 32 12 40 0 38 18 -2 22 -25 2 -33 8 -34 23 -1 11 -2 26 -3 33 -2 29 -21
9 -21 -24z"/>
<path d="M4660 5466 c0 -34 -1 -35 -35 -29 -28 4 -35 2 -35 -11 0 -12 9 -16
35 -16 33 0 35 -2 35 -35 0 -19 5 -35 10 -35 6 0 10 16 10 35 0 32 2 35 30 35
20 0 30 5 30 15 0 10 -9 13 -30 10 -28 -3 -30 -2 -30 31 0 19 -4 34 -10 34 -5
0 -10 -15 -10 -34z"/>
<path d="M5459 5495 c-1 -3 -3 -14 -4 -25 -1 -11 -3 -24 -4 -28 0 -4 -13 -8
-28 -7 -14 0 -28 -6 -30 -12 -3 -9 7 -13 32 -13 34 0 36 -2 33 -27 -2 -16 1
-30 7 -33 5 -3 10 2 11 10 3 46 5 49 36 52 17 2 33 9 36 17 3 9 -2 11 -17 6
-37 -12 -59 2 -55 35 2 17 -1 30 -6 30 -6 0 -11 -2 -11 -5z"/>
<path d="M7300 5431 c0 -50 3 -61 13 -53 6 6 28 12 47 14 34 3 34 3 34 53 l0
49 -47 1 -47 0 0 -64z m68 6 c3 -34 1 -37 -22 -37 -23 0 -26 4 -26 33 0 38 7
49 29 45 9 -2 16 -17 19 -41z"/>
<path d="M6208 5472 c-27 -6 -24 -58 4 -65 28 -8 38 -1 38 27 0 28 -18 44 -42
38z m22 -27 c0 -8 -4 -15 -9 -15 -13 0 -22 16 -14 24 11 11 23 6 23 -9z"/>
<path d="M2304 5431 c-16 -16 7 -21 79 -19 45 2 82 7 82 12 0 8 -153 15 -161
7z"/>
<path d="M3073 5427 c-2 -4 2 -10 10 -13 22 -8 153 0 147 9 -6 11 -150 15
-157 4z"/>
<path d="M1523 5418 c2 -7 7 -12 10 -10 4 1 39 2 77 2 40 0 70 4 70 10 0 6
-34 10 -81 10 -60 0 -80 -3 -76 -12z"/>
<path d="M3480 5369 c-13 -8 -13 -11 2 -22 16 -12 16 -15 1 -29 -21 -22 -13
-40 11 -23 33 25 20 96 -14 74z"/>
<path d="M4220 5360 c0 -11 5 -20 12 -20 6 0 4 -7 -5 -18 -22 -25 -21 -35 2
-23 25 14 33 38 21 62 -14 25 -30 24 -30 -1z"/>
<path d="M5014 5369 c-3 -5 0 -17 7 -25 9 -11 8 -18 -6 -34 -14 -16 -15 -20
-4 -20 23 0 39 21 39 51 0 27 -24 46 -36 28z"/>
<path d="M1940 5356 c0 -8 6 -16 13 -19 8 -3 7 -10 -7 -26 -17 -19 -17 -21 -2
-21 20 0 41 42 33 64 -8 20 -37 21 -37 2z"/>
<path d="M2710 5356 c0 -8 6 -16 13 -19 9 -3 9 -8 -2 -21 -17 -21 -7 -33 14
-16 8 7 15 25 15 41 0 22 -5 29 -20 29 -11 0 -20 -6 -20 -14z"/>
<path d="M8654 5349 c-10 -17 13 -36 27 -22 12 12 4 33 -11 33 -5 0 -12 -5
-16 -11z"/>
<path d="M4576 4768 c-14 -54 -32 -97 -48 -117 -10 -13 -15 -27 -12 -30 4 -3
9 0 11 7 3 6 11 12 18 12 10 0 12 -17 8 -77 l-6 -76 24 6 c13 4 71 7 128 7 89
0 102 2 91 14 -6 8 -17 13 -24 10 -8 -3 -12 19 -11 83 l0 88 -32 -3 c-25 -3
-32 0 -27 11 3 10 18 14 45 12 27 -2 39 1 36 9 -2 6 -20 10 -41 8 -34 -3 -37
-1 -31 17 5 15 2 21 -9 21 -9 0 -16 -9 -16 -20 0 -17 -7 -20 -44 -20 -38 0
-43 2 -39 19 3 10 0 22 -6 26 -6 3 -13 0 -15 -7z m94 -64 c0 -13 -6 -15 -28
-11 l-27 6 2 -95 c2 -91 1 -94 -20 -94 -21 0 -22 3 -20 97 1 54 2 101 2 104 1
3 21 7 46 7 36 2 45 -1 45 -14z m60 -44 c0 -17 -7 -20 -38 -20 -43 0 -53 6
-45 26 3 9 20 14 44 14 32 0 39 -3 39 -20z m0 -45 c0 -16 -52 -21 -84 -9 -28
11 -6 24 40 24 32 0 44 -4 44 -15z m0 -40 c0 -11 -12 -15 -45 -15 -42 0 -54 7
-38 23 3 4 24 7 45 7 27 0 38 -4 38 -15z m0 -47 c0 -14 -8 -18 -38 -18 -42 0
-53 6 -46 24 2 6 22 11 44 11 32 0 40 -3 40 -17z"/>
<path d="M5217 4729 c-27 -51 -20 -68 9 -24 18 28 34 33 34 11 0 -17 18 -31
27 -22 3 3 0 12 -7 21 -11 13 -8 15 20 15 25 0 31 -3 26 -16 -3 -9 -6 -20 -6
-25 0 -5 -22 -9 -50 -9 -47 0 -63 -11 -40 -25 6 -3 10 -1 10 5 0 7 15 10 38 8
55 -4 50 -31 -8 -39 -56 -7 -44 -11 40 -13 51 -1 65 -4 65 -16 0 -12 -16 -15
-87 -14 -49 0 -88 -3 -88 -8 0 -4 13 -8 29 -8 23 0 32 -7 43 -30 13 -30 23
-37 32 -22 3 5 -4 19 -15 30 l-20 22 56 0 c56 0 56 0 53 -27 -2 -22 -10 -29
-33 -34 -22 -5 -24 -7 -8 -8 12 0 23 -7 26 -13 7 -21 28 5 36 44 6 29 11 33
44 36 36 3 47 14 27 27 -5 3 -16 3 -22 -2 -23 -14 -48 -13 -48 1 0 16 27 29
42 20 6 -4 9 -1 6 7 -4 10 -19 13 -57 10 -47 -3 -52 -1 -49 15 3 16 14 20 61
22 32 2 55 7 52 11 -2 5 -25 6 -51 3 -49 -5 -73 10 -52 35 15 18 25 16 31 -7
3 -11 12 -20 21 -20 21 0 20 10 -1 26 -16 12 -13 13 25 14 23 0 42 4 42 10 0
6 -18 7 -47 3 -36 -5 -44 -3 -38 7 4 7 2 16 -6 20 -17 11 -29 3 -29 -21 0 -10
-4 -19 -10 -19 -5 0 -10 5 -10 10 0 7 -13 8 -35 4 -29 -5 -34 -4 -30 9 4 8 0
17 -8 20 -10 4 -23 -10 -40 -44z"/>
<path d="M2580 4746 c0 -14 -4 -26 -10 -26 -5 0 -10 -9 -10 -20 0 -16 7 -20
30 -20 27 0 30 -3 30 -29 0 -16 -7 -36 -15 -44 -8 -8 -11 -17 -8 -21 4 -3 -3
-6 -15 -6 -12 0 -22 5 -22 10 0 6 4 10 9 10 12 0 21 53 11 64 -9 9 -30 -33
-33 -66 -2 -25 -37 -23 -37 2 0 11 7 20 15 20 8 0 15 4 15 10 0 5 -7 7 -15 4
-11 -5 -15 1 -15 20 0 20 5 26 21 26 11 0 18 4 15 9 -3 5 -15 7 -25 4 -15 -4
-19 0 -17 14 2 10 13 19 24 21 12 2 22 7 22 12 0 14 -22 17 -45 6 -20 -9 -22
-17 -20 -86 3 -69 1 -76 -19 -82 -11 -3 48 -6 133 -7 151 -1 154 -1 135 18
-18 16 -19 26 -13 82 3 35 3 67 0 70 -3 3 -22 2 -41 -2 -31 -6 -32 -7 -7 -8
20 -1 27 -6 27 -21 0 -15 -7 -20 -27 -21 l-28 -1 25 -7 c16 -4 25 -14 25 -26
0 -12 -9 -22 -25 -26 -21 -6 -22 -7 -4 -8 49 -2 37 -41 -12 -41 -30 0 -33 3
-26 18 5 9 10 36 11 60 3 42 2 43 -25 36 -20 -5 -26 -4 -22 7 3 8 14 15 26 17
12 2 22 8 22 13 0 6 -9 7 -20 4 -14 -4 -20 -2 -20 9 0 8 -4 18 -10 21 -6 4
-10 -5 -10 -19z"/>
<path d="M3663 4763 c-7 -3 -13 -14 -13 -24 0 -18 -26 -79 -34 -79 -1 0 -1 14
2 30 4 31 -6 38 -26 18 -17 -17 -28 0 -14 22 16 26 -5 38 -23 14 -8 -11 -15
-22 -15 -26 0 -5 -7 -8 -15 -8 -12 0 -15 -18 -15 -100 0 -60 4 -100 10 -100 6
0 10 5 10 10 0 6 16 10 35 10 19 0 35 -4 35 -10 0 -5 4 -10 9 -10 4 0 9 28 10
62 1 34 5 65 9 68 4 3 15 17 25 33 14 22 25 27 57 27 l40 0 -1 -52 c0 -29 -3
-71 -7 -93 -7 -36 -11 -40 -35 -38 -34 2 -35 -13 -1 -21 47 -12 56 8 74 149 8
71 2 94 -21 79 -8 -4 -28 -8 -47 -9 -30 -1 -33 2 -29 22 5 26 -1 33 -20 26z
m-63 -104 c0 -28 -2 -30 -32 -27 -28 2 -34 8 -36 31 -3 25 -1 27 32 27 33 0
36 -2 36 -31z m-2 -67 c4 -30 -12 -50 -41 -48 -23 1 -34 32 -23 62 10 25 60
14 64 -14z"/>
<path d="M4073 4759 c-6 -6 -57 -10 -117 -11 -60 0 -104 -4 -100 -9 3 -5 30
-9 60 -9 l54 0 0 -60 0 -59 -67 -4 -68 -3 68 -2 67 -2 0 -60 c0 -49 3 -58 15
-54 11 5 15 21 15 60 l0 54 67 0 c63 0 66 1 50 17 -13 13 -19 15 -29 5 -7 -7
-29 -12 -50 -12 l-38 0 0 60 0 60 49 0 c52 0 70 10 48 29 -9 7 -17 7 -24 0z"/>
<path d="M4220 4727 c0 -44 -2 -47 -27 -48 l-28 -1 25 -7 c21 -6 25 -13 28
-54 3 -43 1 -47 -23 -53 -19 -5 -23 -9 -15 -19 9 -11 19 -8 50 13 34 22 49 25
105 23 36 -1 65 1 65 6 0 10 -131 10 -148 -1 -9 -5 -12 5 -12 38 0 34 4 46 15
46 8 0 15 5 15 11 0 6 -7 8 -16 5 -13 -5 -15 1 -13 29 2 19 -2 40 -9 47 -9 9
-12 2 -12 -35z"/>
<path d="M4320 4755 c-7 -8 -9 -15 -5 -15 4 0 0 -11 -9 -25 -9 -14 -21 -36
-26 -50 l-10 -25 66 0 c48 0 64 3 61 13 -2 6 -13 11 -23 9 -26 -4 -46 -5 -63
-3 -11 1 -10 5 4 21 14 15 31 20 72 20 30 0 52 -4 49 -9 -3 -5 -8 -33 -11 -63
-11 -117 -13 -120 -46 -113 -36 8 -38 -2 -3 -16 59 -22 66 -8 79 154 l5 67
-60 -6 -61 -6 6 25 c8 30 -8 43 -25 22z"/>
<path d="M4910 4734 c0 -31 -3 -36 -19 -31 -10 2 -25 1 -32 -4 -10 -6 -6 -9
14 -9 15 0 27 -2 27 -4 0 -18 -27 -75 -43 -90 -15 -15 -17 -21 -7 -24 8 -3 24
8 37 24 l24 29 -1 -30 c-5 -76 0 -119 11 -108 7 7 10 38 7 82 -4 69 4 92 17
51 4 -11 11 -18 16 -15 14 9 11 24 -11 42 -29 25 -25 43 10 43 l30 0 0 -100
c0 -60 4 -100 10 -100 6 0 10 5 10 10 0 15 87 12 93 -2 10 -30 15 5 19 123 l3
126 -67 -1 c-62 0 -68 -2 -68 -21 0 -16 -6 -21 -27 -20 -33 0 -46 14 -32 32
11 13 4 33 -12 33 -5 0 -9 -16 -9 -36z m190 -29 c0 -23 -4 -25 -45 -25 -41 0
-45 2 -45 25 0 23 4 25 45 25 41 0 45 -2 45 -25z m-2 -72 c3 -33 3 -33 -42
-33 -46 0 -46 0 -46 36 l0 35 43 -3 c39 -3 42 -5 45 -35z m0 -75 c-3 -31 -6
-33 -45 -36 l-43 -3 0 35 c0 36 0 36 46 36 45 0 45 0 42 -32z"/>
<path d="M2045 4721 c-23 -27 -18 -59 15 -91 33 -32 43 -90 16 -90 -38 0 -66
20 -66 47 0 38 -17 17 -22 -26 l-3 -35 53 1 c29 1 59 7 67 13 25 20 18 69 -15
110 -39 49 -40 72 -2 68 19 -2 28 -9 30 -25 4 -28 32 -31 32 -4 0 11 2 26 5
33 9 22 -89 21 -110 -1z"/>
<path d="M3055 4724 c-8 -9 -15 -22 -15 -30 0 -20 25 -68 44 -83 23 -20 20
-58 -5 -64 -33 -9 -49 3 -49 34 0 21 -4 27 -15 23 -9 -4 -15 -19 -15 -40 0
-31 3 -34 33 -36 52 -2 70 1 89 19 27 25 22 57 -17 97 -45 46 -47 76 -5 76 23
0 31 -5 36 -25 8 -31 20 -25 26 12 4 27 2 28 -44 30 -31 1 -52 -3 -63 -13z"/>
<path d="M1448 4723 c15 -6 17 -169 2 -178 -20 -12 -9 -20 30 -20 22 -1 40 3
40 7 0 4 -4 8 -10 8 -15 0 -13 177 3 183 6 3 -8 5 -33 5 -25 0 -39 -2 -32 -5z"/>
<path d="M4053 4687 c-24 -40 -34 -67 -26 -67 8 0 30 28 48 62 22 39 1 44 -22
5z"/>
<path d="M3881 4697 c9 -7 20 -27 24 -45 4 -19 12 -31 18 -29 26 9 -11 87 -41
87 -16 -1 -16 -2 -1 -13z"/>
<path d="M5647 4663 c-4 -3 -7 -19 -7 -35 0 -24 4 -28 29 -28 33 0 42 15 30
48 -8 21 -38 30 -52 15z m41 -35 c-6 -18 -28 -21 -28 -4 0 9 7 16 16 16 9 0
14 -5 12 -12z"/>
<path d="M3671 4645 c16 -36 33 -65 41 -65 17 0 7 27 -18 51 -15 13 -25 20
-23 14z"/>
<path d="M3193 4600 c-13 -5 -23 -15 -23 -22 0 -9 3 -9 12 0 17 17 26 15 39
-9 9 -18 6 -28 -21 -65 l-31 -44 45 0 c35 0 46 4 46 15 0 13 -4 14 -21 5 -35
-19 -42 -6 -15 27 28 33 34 71 14 91 -14 14 -15 14 -45 2z"/>
<path d="M2175 4527 c0 -61 3 -73 15 -70 12 3 14 18 12 73 -2 45 -8 70 -15 70
-8 0 -12 -24 -12 -73z"/>
<path d="M1550 4545 c0 -17 5 -25 13 -22 6 2 12 12 12 22 0 10 -6 20 -12 23
-8 2 -13 -6 -13 -23z"/>
<path d="M2539 4543 c-8 -9 -27 -24 -44 -35 -16 -10 -24 -18 -17 -18 19 0 92
39 92 50 0 17 -18 20 -31 3z"/>
<path d="M2636 4545 c4 -8 11 -15 16 -15 5 0 23 -9 40 -21 30 -21 43 -22 30
-2 -6 10 -77 53 -87 53 -2 0 -2 -7 1 -15z"/>
<path d="M2580 4290 c0 -11 -5 -20 -11 -20 -6 0 -9 -12 -7 -27 2 -17 9 -28 18
-28 10 0 14 8 13 23 -2 17 2 22 22 22 14 0 25 5 25 11 0 7 -9 9 -24 5 -20 -5
-23 -3 -19 14 3 11 0 20 -6 20 -6 0 -11 -9 -11 -20z"/>
<path d="M3655 4298 c-2 -7 -9 -33 -15 -57 -8 -29 -14 -40 -20 -32 -4 7 -5 22
-3 32 5 17 1 18 -28 12 -33 -6 -34 -6 -16 14 21 24 22 33 2 33 -8 0 -22 -11
-31 -25 -9 -14 -20 -22 -25 -19 -5 3 -9 -41 -9 -100 0 -64 4 -106 10 -106 6 0
10 5 10 10 0 13 57 13 65 0 13 -22 26 4 25 49 -3 70 -1 83 10 76 6 -3 10 0 10
7 1 29 38 58 74 58 l36 0 0 -62 c0 -60 -15 -138 -26 -138 -3 0 -14 5 -25 10
-10 6 -19 7 -19 2 0 -5 12 -15 26 -23 23 -12 27 -12 40 6 8 10 14 26 14 35 0
9 4 20 9 26 5 5 11 43 13 84 l3 75 -53 -3 c-49 -4 -52 -2 -50 18 3 25 -19 40
-27 18z m-60 -93 c0 -27 -4 -30 -32 -33 -30 -3 -33 -1 -33 26 0 36 8 44 40 40
20 -2 25 -8 25 -33z m1 -82 c-1 -35 -3 -38 -31 -38 -27 1 -30 4 -33 38 -3 36
-2 37 31 37 33 0 34 -1 33 -37z"/>
<path d="M3881 4296 c-9 -11 -9 -15 1 -20 10 -5 10 -7 0 -12 -6 -3 -9 -11 -5
-16 4 -7 -2 -9 -15 -6 -12 4 -25 2 -28 -3 -3 -5 4 -9 15 -9 27 0 27 -22 1 -79
-23 -50 -23 -51 -9 -51 5 0 15 14 20 30 6 17 15 30 20 30 12 0 7 -93 -6 -102
-6 -5 -5 -8 3 -8 6 0 12 -7 12 -16 0 -8 4 -13 10 -9 5 3 8 39 7 80 -2 58 1 71
11 63 9 -8 12 -6 12 5 0 8 -7 20 -15 27 -21 17 -19 30 4 30 15 0 21 -10 26
-40 l7 -40 69 0 c40 0 69 -4 69 -10 0 -7 -30 -9 -80 -8 -80 3 -114 -8 -42 -14
36 -3 37 -4 40 -45 4 -57 22 -55 22 2 l0 45 53 1 c28 0 46 3 40 6 -7 2 -13 11
-13 18 0 7 -8 16 -17 20 -17 6 -17 7 0 16 12 7 17 22 17 50 0 37 -1 39 -25 33
-15 -4 -25 -2 -25 5 0 6 17 11 37 11 22 0 33 4 28 9 -6 5 -52 5 -105 1 -52 -4
-84 -8 -70 -9 14 -1 32 -6 40 -11 11 -7 7 -10 -17 -10 -18 0 -33 -4 -33 -8 0
-4 -8 -8 -18 -8 -14 0 -17 7 -14 33 4 35 -7 43 -27 19z m159 -26 c0 -5 -7 -10
-15 -10 -8 0 -15 5 -15 10 0 6 7 10 15 10 8 0 15 -4 15 -10z m-58 -62 c-13
-13 -26 8 -17 30 6 16 7 16 17 -1 7 -13 7 -22 0 -29z m58 12 c0 -31 -16 -41
-26 -15 -8 19 2 45 16 45 5 0 10 -13 10 -30z m40 0 c0 -16 -4 -30 -10 -30 -5
0 -10 14 -10 30 0 17 5 30 10 30 6 0 10 -13 10 -30z m-13 -47 c-11 -10 -81
-12 -97 -2 -10 5 5 8 44 9 33 0 56 -3 53 -7z"/>
<path d="M4290 4297 c0 -7 -9 -30 -20 -52 -24 -47 -24 -49 -5 -41 12 4 15 -3
15 -29 0 -18 5 -37 10 -40 6 -3 10 -13 10 -21 0 -11 -14 -14 -60 -14 -33 0
-60 -4 -60 -8 0 -5 27 -7 60 -5 l60 3 0 -30 c0 -39 27 -41 32 -2 3 26 5 27 63
29 33 1 62 2 64 2 2 1 -2 8 -9 16 -9 11 -16 13 -24 5 -5 -5 -30 -10 -54 -10
-36 0 -43 3 -38 16 3 9 6 18 6 20 0 2 28 4 62 4 48 0 59 3 50 12 -7 7 -12 20
-12 30 0 16 -5 18 -35 12 -22 -4 -35 -2 -35 4 0 6 15 12 33 14 20 2 31 8 29
17 -1 7 2 19 8 26 15 18 -2 27 -33 20 -15 -4 -28 -1 -36 9 -8 9 -18 16 -23 16
-6 0 -5 -7 2 -15 11 -13 8 -15 -14 -15 -23 0 -26 3 -21 20 5 14 2 20 -9 20 -9
0 -16 -6 -16 -13z m60 -52 c0 -9 -9 -15 -25 -15 -16 0 -25 6 -25 15 0 9 9 15
25 15 16 0 25 -6 25 -15z m70 6 c0 -6 -5 -13 -10 -16 -15 -9 -43 3 -35 15 8
13 45 13 45 1z m-65 -51 c-3 -5 -15 -10 -25 -10 -10 0 -22 5 -25 10 -4 6 7 10
25 10 18 0 29 -4 25 -10z m-5 -35 c0 -9 -9 -15 -25 -15 -16 0 -25 6 -25 15 0
9 9 15 25 15 16 0 25 -6 25 -15z m80 5 c0 -11 -48 -25 -56 -17 -4 3 -3 10 1
16 8 14 55 14 55 1z"/>
<path d="M4590 4298 c0 -8 6 -20 13 -27 10 -11 4 -13 -35 -7 -29 3 -48 2 -48
-4 0 -6 27 -10 60 -10 l60 0 0 -34 c0 -39 -7 -43 -77 -41 -29 1 -53 -2 -53 -7
0 -4 16 -8 35 -8 45 0 45 -15 1 -72 l-33 -44 145 -3 c133 -2 144 -1 132 14 -9
11 -16 13 -24 5 -5 -5 -25 -10 -43 -10 -31 0 -33 2 -33 35 0 34 1 35 36 35 32
0 35 2 24 15 -9 11 -16 13 -24 5 -5 -5 -36 -10 -68 -10 -45 0 -58 3 -58 15 0
12 17 15 96 15 72 0 95 3 91 13 -2 6 -13 10 -23 8 -45 -8 -88 -5 -91 7 -3 8 9
12 40 12 50 0 62 7 45 27 -9 11 -14 11 -29 -3 -20 -18 -59 -11 -59 11 0 10 17
15 60 17 50 3 58 5 50 18 -8 12 -13 13 -30 3 -11 -7 -27 -13 -36 -13 -16 0
-16 1 0 19 13 14 14 21 6 26 -13 8 -30 -11 -30 -32 0 -8 -14 -13 -35 -13 -23
0 -35 5 -35 14 0 7 -7 19 -15 26 -12 10 -15 10 -15 -2z m75 -213 c0 -29 -1
-30 -54 -33 -29 -2 -51 1 -49 5 30 63 31 64 67 61 33 -3 36 -6 36 -33z"/>
<path d="M4909 4288 c-1 -13 -1 -26 0 -30 0 -5 -11 -8 -25 -8 l-26 0 22 -18
c22 -18 22 -19 5 -53 -10 -19 -24 -41 -32 -51 -10 -11 -11 -18 -4 -23 6 -3 21
11 33 32 l23 38 5 -75 c4 -51 8 -69 14 -57 5 10 6 44 4 77 -4 57 3 78 16 45 3
-8 12 -15 21 -15 11 0 8 8 -12 31 -33 36 -36 55 -8 51 44 -7 45 -8 45 -107 0
-57 4 -95 10 -95 6 0 10 5 10 10 0 15 87 12 93 -2 11 -31 16 7 18 126 l1 128
-66 2 c-66 1 -66 1 -66 -26 0 -28 -13 -37 -25 -18 -3 5 -12 7 -19 4 -19 -7
-30 14 -17 30 6 7 8 16 4 19 -13 13 -23 7 -24 -15z m189 -31 c6 -29 -16 -47
-44 -37 -16 6 -24 6 -24 -1 0 -6 -4 -7 -10 -4 -5 3 -10 19 -10 35 0 27 2 29
42 27 32 -2 44 -7 46 -20z m2 -87 c0 -29 -1 -30 -42 -27 -38 3 -43 7 -46 30
-3 26 -1 27 42 27 44 0 46 -1 46 -30z m-2 -72 c2 -16 0 -28 -5 -29 -83 -7 -83
-7 -83 31 l0 36 43 -5 c37 -5 42 -9 45 -33z"/>
<path d="M5230 4296 c0 -7 -9 -25 -21 -40 -25 -32 -14 -34 18 -4 24 23 33 20
46 -17 3 -5 8 -7 12 -3 4 4 2 14 -5 23 -11 13 -8 15 18 15 28 0 30 -2 23 -27
-6 -22 -14 -28 -37 -29 -16 0 -34 3 -41 9 -13 9 -33 2 -33 -14 0 -5 25 -9 55
-9 41 0 55 -4 55 -14 0 -11 -14 -16 -47 -19 -34 -2 -25 -4 30 -5 60 -2 77 -5
77 -17 0 -11 -20 -15 -97 -18 l-98 -3 98 -2 98 -2 -3 -32 c-3 -29 -6 -33 -28
-30 -24 3 -24 2 -6 -13 11 -8 23 -15 27 -15 13 0 27 25 31 55 3 27 7 31 42 35
35 4 37 7 23 19 -11 9 -17 10 -17 2 0 -6 -12 -11 -26 -11 -22 0 -25 2 -14 15
7 8 19 15 26 15 8 0 14 4 14 9 0 6 -24 7 -55 4 -47 -5 -55 -3 -55 11 0 13 11
16 60 16 46 0 60 3 60 14 0 22 -15 27 -36 11 -28 -22 -71 -19 -77 5 -7 26 21
50 34 29 5 -8 10 -18 12 -24 3 -5 8 -7 12 -3 4 4 2 14 -5 23 -11 13 -7 15 29
15 22 0 41 4 41 9 0 15 -18 23 -25 11 -3 -5 -22 -10 -40 -10 -26 0 -33 3 -29
15 4 9 0 15 -10 15 -9 0 -16 -6 -16 -12 0 -9 -17 -14 -49 -14 -39 -2 -48 1
-44 12 3 8 -1 14 -11 14 -9 0 -16 -6 -16 -14z"/>
<path d="M2515 4289 c-4 -6 -14 -8 -22 -5 -13 5 -14 -6 -11 -74 3 -64 1 -80
-10 -80 -7 0 -12 -6 -10 -12 3 -10 43 -14 141 -16 117 -2 137 0 137 13 0 8 -6
15 -13 15 -14 0 -14 35 -3 126 4 31 3 31 -34 30 -38 -1 -47 -16 -9 -16 12 0
19 -7 19 -20 0 -14 -6 -20 -16 -18 -10 2 -19 -3 -22 -11 -2 -8 0 -11 5 -8 5 3
15 2 22 -3 18 -10 6 -41 -13 -34 -8 3 -17 1 -21 -5 -3 -7 3 -11 15 -11 15 0
20 -5 18 -17 -2 -13 -13 -18 -35 -18 -29 0 -32 2 -25 25 10 37 8 85 -3 85 -5
0 -10 -18 -10 -39 0 -23 -5 -41 -12 -43 -7 -3 -13 -11 -13 -19 0 -8 -4 -14 -8
-14 -18 0 -20 12 -6 38 18 34 18 42 -1 42 -8 0 -19 -16 -25 -39 -7 -28 -15
-38 -28 -37 -9 2 -16 6 -14 9 1 4 2 12 2 17 0 6 7 10 15 10 8 0 15 5 15 10 0
6 -6 10 -13 8 -7 -2 -14 0 -15 5 -6 19 0 27 19 27 12 0 19 5 16 13 -2 6 -12
12 -23 12 -30 0 -29 32 1 39 14 4 23 11 20 16 -8 13 -22 13 -30 -1z"/>
<path d="M4213 4280 c30 -24 37 -25 37 -6 0 7 -10 16 -22 20 -38 10 -42 7 -15
-14z"/>
<path d="M1443 4269 c14 -8 17 -25 17 -94 0 -69 -3 -86 -17 -94 -14 -8 -7 -10
32 -11 28 0 45 4 38 8 -20 12 -25 152 -7 180 14 22 14 22 -33 22 -38 -1 -44
-3 -30 -11z"/>
<path d="M1548 4268 c7 -7 12 -44 12 -95 0 -68 -3 -84 -17 -92 -14 -8 -7 -10
32 -11 38 0 46 3 37 12 -7 7 -12 45 -12 99 0 75 3 88 18 92 9 3 -5 5 -32 6
-39 1 -47 -2 -38 -11z"/>
<path d="M2043 4268 c-25 -32 -22 -49 13 -88 39 -43 45 -92 11 -98 -23 -5 -57
25 -57 50 0 32 -18 10 -22 -27 l-4 -35 49 0 c66 0 87 13 87 53 0 24 -9 42 -30
62 -22 21 -30 37 -28 55 4 35 39 33 56 -3 15 -31 26 -27 35 13 6 25 5 26 -47
28 -34 1 -57 -2 -63 -10z"/>
<path d="M3052 4268 c-22 -22 -13 -63 18 -93 30 -28 36 -48 24 -79 -14 -36
-64 -10 -64 32 0 21 -2 22 -15 12 -23 -19 -19 -57 8 -64 43 -11 74 -6 95 17
31 32 27 55 -13 94 -34 33 -45 66 -25 78 17 11 48 -5 53 -26 7 -26 23 -18 29
15 4 22 2 24 -47 25 -28 0 -57 -5 -63 -11z"/>
<path d="M4180 4243 c1 -14 49 -43 54 -34 3 5 -5 16 -19 25 -27 18 -35 20 -35
9z"/>
<path d="M4552 4218 c5 -15 68 -24 68 -10 0 12 -24 22 -52 22 -11 0 -18 -5
-16 -12z"/>
<path d="M5642 4173 c2 -22 8 -28 28 -28 20 0 26 6 28 28 3 24 0 27 -28 27
-28 0 -31 -3 -28 -27z m38 -3 c0 -11 -4 -20 -10 -20 -5 0 -10 9 -10 20 0 11 5
20 10 20 6 0 10 -9 10 -20z"/>
<path d="M3670 4185 c0 -12 33 -55 41 -55 14 0 10 15 -10 38 -18 21 -31 28
-31 17z"/>
<path d="M4218 4166 c-37 -21 -51 -46 -25 -46 14 0 74 57 66 63 -2 2 -21 -6
-41 -17z"/>
<path d="M2170 4140 c-10 -6 -11 -10 -2 -10 8 0 12 -19 12 -60 0 -33 -4 -60
-10 -60 -5 0 -10 -4 -10 -10 0 -5 14 -10 30 -10 17 0 30 5 30 10 0 6 -4 10
-10 10 -6 0 -10 30 -10 70 0 71 -3 77 -30 60z"/>
<path d="M3183 4144 c-7 -3 -13 -15 -13 -27 1 -20 2 -20 11 -4 5 9 17 17 24
17 24 0 18 -55 -10 -88 -36 -43 -32 -54 17 -50 30 2 44 8 46 19 2 12 -4 15
-30 12 -33 -4 -33 -4 -12 14 30 25 42 54 35 83 -7 25 -39 36 -68 24z"/>
<path d="M1650 4085 c0 -8 7 -15 15 -15 8 0 15 7 15 15 0 8 -7 15 -15 15 -8 0
-15 -7 -15 -15z"/>
<path d="M3942 4070 c-13 -16 -19 -30 -14 -30 4 0 21 14 37 30 20 21 24 30 14
30 -8 0 -25 -13 -37 -30z"/>
<path d="M4050 4093 c0 -5 15 -18 33 -31 38 -26 53 -9 16 19 -25 19 -49 25
-49 12z"/>
<path d="M5265 4080 c18 -20 45 -27 45 -12 0 15 -24 32 -44 32 -18 0 -19 -1
-1 -20z"/>
<path d="M2520 4070 c-14 -11 -31 -20 -37 -20 -12 0 -19 -20 -8 -20 12 0 84
40 90 50 11 17 -19 11 -45 -10z"/>
<path d="M2630 4085 c0 -9 91 -48 97 -42 7 8 -58 47 -79 47 -10 0 -18 -2 -18
-5z"/>
<path d="M6230 3814 c-26 -52 -21 -70 6 -25 16 27 24 31 61 31 24 0 43 4 43 9
0 5 -19 7 -42 5 -24 -2 -37 -1 -30 2 13 6 7 24 -8 24 -4 0 -18 -20 -30 -46z"/>
<path d="M6351 3826 c-12 -18 -21 -40 -21 -49 0 -12 -13 -17 -52 -20 l-53 -3
53 -2 c39 -2 52 -6 52 -17 0 -11 -12 -15 -46 -15 -25 0 -43 -4 -40 -8 3 -5 29
-8 58 -7 63 2 78 -2 78 -22 0 -10 -7 -14 -20 -10 -11 3 -20 2 -20 -1 0 -4 -25
-7 -55 -7 -30 0 -55 3 -55 8 0 4 -4 7 -10 7 -5 0 -10 -7 -10 -15 0 -10 10 -15
26 -15 16 0 36 -11 50 -25 13 -14 26 -25 29 -25 10 0 5 19 -11 34 -14 15 -11
16 30 16 42 0 46 -2 46 -25 0 -21 -5 -25 -27 -25 l-28 0 28 -15 c38 -20 57
-10 57 31 0 32 2 34 35 34 24 0 35 5 35 14 0 24 -20 29 -40 11 -10 -9 -21 -12
-24 -7 -9 16 4 42 22 42 8 0 12 3 8 7 -4 4 -27 6 -51 4 -35 -2 -45 1 -45 13 0
13 12 16 61 16 33 0 58 4 55 9 -3 4 -27 6 -54 3 -40 -3 -50 -1 -56 13 -11 30
12 45 71 45 30 0 52 4 49 9 -3 5 -27 7 -53 5 -32 -3 -41 -1 -29 4 18 8 18 9 2
15 -24 10 -22 11 -45 -27z"/>
<path d="M2580 3831 c0 -11 -5 -23 -11 -27 -6 -3 -9 -15 -6 -25 3 -10 -2 -41
-10 -69 -11 -38 -19 -50 -34 -50 -30 0 -22 40 11 53 10 4 8 6 -7 6 -16 1 -20
6 -16 21 3 11 14 20 24 20 11 0 19 5 19 10 0 6 -11 8 -26 4 -23 -6 -25 -4 -22
17 2 15 12 25 28 29 16 4 21 8 13 13 -7 4 -23 5 -37 1 -24 -6 -25 -9 -24 -80
1 -46 -3 -79 -12 -89 -11 -13 2 -15 129 -15 119 0 141 2 141 15 0 8 -6 15 -14
15 -14 0 -14 45 -1 122 5 33 0 36 -45 28 l-35 -7 28 -11 c33 -14 31 -34 -4
-43 l-24 -6 25 -4 c37 -6 39 -39 3 -40 -27 0 -27 -1 -5 -10 35 -14 25 -43 -17
-47 -27 -3 -32 0 -28 12 14 36 18 86 8 103 -6 10 -11 12 -11 6 0 -18 -30 -16
-30 2 0 13 18 20 43 16 9 -1 9 13 0 22 -3 4 -12 2 -20 -4 -10 -9 -13 -7 -13
10 0 11 -4 21 -10 21 -5 0 -10 -9 -10 -19z m40 -83 c0 -30 -13 -58 -26 -58 -8
0 -14 -8 -14 -17 0 -13 -3 -14 -11 -6 -8 8 -7 17 5 34 9 13 16 31 16 41 0 10
7 18 15 18 8 0 15 -6 15 -12z"/>
<path d="M3553 3835 c-7 -8 -13 -19 -13 -25 0 -5 -7 -10 -15 -10 -12 0 -15
-18 -15 -107 1 -87 3 -105 13 -93 17 21 63 24 71 5 11 -31 24 -5 24 48 -1 40
5 63 26 95 24 38 30 42 66 42 l40 0 -1 -62 c-2 -101 -10 -123 -42 -123 -33 1
-34 -7 -2 -21 20 -10 27 -9 40 5 8 10 15 26 15 37 0 11 5 25 10 30 6 6 10 41
8 80 l-3 69 -49 -4 c-48 -3 -49 -3 -42 23 5 21 3 26 -12 26 -15 0 -22 -12 -31
-55 -13 -55 -35 -80 -25 -26 6 28 -9 51 -21 31 -3 -5 -13 -10 -22 -10 -14 0
-14 2 0 24 22 33 5 50 -20 21z m43 -89 c2 -20 -4 -25 -32 -28 -31 -4 -34 -2
-34 24 0 25 4 28 33 28 27 0 32 -4 33 -24z m2 -81 c-2 -32 -4 -35 -35 -35 -30
0 -33 3 -33 28 0 36 6 42 42 42 27 0 28 -3 26 -35z"/>
<path d="M4348 3842 c-12 -2 -15 -7 -8 -15 6 -7 21 -29 35 -49 21 -33 22 -38
7 -42 -14 -3 -135 -1 -151 3 -2 1 3 9 11 19 9 9 19 27 22 40 4 12 13 22 19 22
7 0 6 4 -3 10 -22 15 -27 12 -34 -15 -4 -14 -23 -43 -42 -65 -20 -22 -32 -40
-27 -40 5 0 13 4 19 10 15 15 86 0 80 -17 -4 -8 -6 -21 -6 -28 0 -20 -59 -85
-76 -85 -8 0 -14 -4 -14 -10 0 -13 6 -13 40 5 35 18 68 63 76 104 6 28 10 31
45 31 36 0 39 -2 39 -29 0 -16 -3 -43 -6 -60 -6 -30 -8 -31 -43 -25 -45 8 -31
-11 16 -21 38 -8 42 -2 51 78 7 60 8 62 35 59 15 -2 27 1 27 7 0 6 -4 11 -9
11 -19 0 -71 52 -78 79 -6 18 -14 25 -25 23z"/>
<path d="M4566 3816 c-4 -19 -18 -51 -32 -71 -14 -21 -23 -40 -20 -43 3 -2 8
3 12 12 14 37 24 11 24 -64 0 -47 4 -80 10 -80 8 0 17 156 11 193 -1 4 6 24
14 43 18 44 18 44 1 44 -8 0 -17 -15 -20 -34z"/>
<path d="M4640 3844 c0 -3 7 -12 15 -20 24 -25 17 -34 -25 -34 -44 0 -48 -5
-25 -31 10 -10 18 -45 22 -87 l6 -70 -29 -5 c-16 -2 22 -5 85 -6 101 -1 112 1
101 14 -9 11 -16 13 -24 5 -5 -5 -22 -10 -38 -10 -27 0 -27 0 -14 38 7 20 16
53 20 73 3 20 15 44 26 54 30 27 24 35 -22 29 -41 -5 -44 -4 -56 25 -8 17 -20
31 -28 31 -8 0 -14 -3 -14 -6z m75 -113 c-19 -104 -27 -131 -41 -131 -10 0
-14 13 -14 43 0 24 -5 48 -12 55 -7 7 -8 12 -4 12 5 0 3 7 -4 15 -22 27 -4 46
41 43 l40 -2 -6 -35z"/>
<path d="M4920 3839 c0 -7 -10 -9 -25 -7 -23 5 -30 -2 -26 -24 0 -5 -4 -8 -10
-8 -5 0 -7 -6 -3 -12 5 -7 9 -31 10 -53 2 -55 1 -54 24 -48 14 4 20 0 20 -11
0 -12 -9 -16 -35 -16 -19 0 -35 -4 -35 -9 0 -4 12 -6 27 -3 21 4 25 2 20 -11
-3 -9 1 -18 10 -21 21 -8 12 -16 -29 -27 -30 -8 -30 -8 7 -3 70 9 106 8 115
-5 6 -10 13 -9 34 4 14 10 26 21 26 26 0 15 15 10 40 -11 41 -35 55 -22 19 17
-21 22 -22 24 -6 79 9 32 21 60 26 64 6 3 6 11 2 19 -7 10 -12 10 -28 0 -27
-16 -57 -5 -48 19 17 40 18 55 4 50 -7 -2 -20 -30 -27 -62 -11 -43 -18 -56
-29 -52 -8 3 -26 6 -39 6 -14 0 -22 4 -19 10 3 6 17 7 31 4 20 -5 24 -2 24 15
0 12 5 21 10 21 6 0 4 11 -5 24 -11 17 -22 22 -40 18 -15 -2 -25 0 -25 7 0 6
-4 11 -10 11 -5 0 -10 -5 -10 -11z m0 -29 c0 -5 -7 -10 -15 -10 -8 0 -15 5
-15 10 0 6 7 10 15 10 8 0 15 -4 15 -10z m55 0 c3 -5 -3 -10 -14 -10 -12 0
-21 5 -21 10 0 6 6 10 14 10 8 0 18 -4 21 -10z m-55 -36 c0 -17 -22 -14 -28 4
-2 7 3 12 12 12 9 0 16 -7 16 -16z m50 6 c0 -5 -7 -10 -16 -10 -8 0 -12 5 -9
10 3 6 10 10 16 10 5 0 9 -4 9 -10z m120 -48 c0 -27 -15 -52 -32 -52 -4 0 -8
9 -8 19 0 11 -4 22 -10 26 -17 10 1 35 26 35 20 0 24 -5 24 -28z m-177 11 c-7
-2 -19 -2 -25 0 -7 3 -2 5 12 5 14 0 19 -2 13 -5z m7 -28 c0 -8 -7 -15 -15
-15 -8 0 -15 7 -15 15 0 8 7 15 15 15 8 0 15 -7 15 -15z m57 0 c0 -8 -9 -15
-19 -15 -10 0 -18 7 -18 15 0 8 8 15 18 15 10 0 19 -7 19 -15z m63 -36 c13
-39 13 -41 -14 -67 -19 -18 -30 -23 -33 -14 -3 6 -11 12 -20 12 -8 0 -13 7
-11 18 2 11 13 17 31 17 29 -1 31 12 4 29 -12 8 -22 8 -36 -1 -18 -12 -31 -8
-31 9 0 4 15 8 34 8 21 0 36 6 40 15 9 26 22 17 36 -26z m-100 -44 c0 -8 -7
-15 -15 -15 -8 0 -15 7 -15 15 0 8 7 15 15 15 8 0 15 -7 15 -15z"/>
<path d="M5201 3707 c-2 -102 1 -138 10 -135 7 2 12 34 13 88 l1 85 40 0 c39
0 40 1 47 44 4 25 7 46 5 47 -1 1 -27 4 -58 6 l-56 4 -2 -139z m79 108 c0 -10
-10 -15 -30 -15 -29 0 -38 9 -23 23 13 13 53 7 53 -8z m0 -40 c0 -10 -10 -15
-30 -15 -29 0 -38 9 -23 23 13 13 53 7 53 -8z"/>
<path d="M5350 3794 l0 -52 45 6 45 5 0 -77 0 -76 -27 0 -28 0 29 -15 c16 -9
33 -12 37 -8 4 4 9 67 11 138 l3 130 -57 0 -58 0 0 -51z m90 21 c0 -10 -11
-15 -35 -15 -24 0 -35 5 -35 15 0 10 11 15 35 15 24 0 35 -5 35 -15z m-5 -40
c0 -5 -15 -11 -32 -13 -31 -3 -42 6 -26 22 10 10 58 3 58 -9z"/>
<path d="M5777 3844 c-4 -4 -31 -7 -59 -6 l-53 0 3 -114 c3 -77 0 -114 -7
-114 -6 0 -11 -4 -11 -10 0 -6 33 -10 80 -10 75 0 97 9 68 26 -6 4 -14 2 -16
-4 -2 -7 -23 -12 -48 -12 -42 0 -44 1 -44 30 0 30 1 30 54 30 l54 0 -2 53 -1
53 -53 -4 -53 -5 3 34 3 33 59 -3 c43 -2 57 1 54 10 -5 15 -22 22 -31 13z m-5
-124 c5 -31 5 -31 -52 -34 -27 -1 -30 2 -30 32 0 31 2 32 39 32 35 0 39 -3 43
-30z"/>
<path d="M5920 3820 c0 -23 -4 -30 -20 -30 -11 0 -20 -4 -20 -10 0 -5 9 -10
20 -10 25 0 25 -1 -5 -60 -28 -55 -29 -60 -15 -60 5 0 16 15 24 33 14 32 14
31 15 -40 1 -42 5 -73 11 -73 6 0 10 33 10 80 0 78 9 98 29 63 5 -10 13 -14
17 -10 4 4 -5 20 -20 36 l-28 29 23 4 c12 1 24 9 27 16 3 9 -3 11 -22 6 -25
-6 -26 -5 -20 25 5 24 3 31 -10 31 -11 0 -16 -9 -16 -30z"/>
<path d="M3856 3833 c-3 -3 -6 -56 -6 -117 l0 -111 130 0 130 0 0 118 c0 108
-2 118 -17 113 -26 -8 -208 -10 -220 -3 -6 4 -13 4 -17 0z m217 -22 c4 -1 7
-28 7 -62 0 -60 0 -60 -27 -57 -26 3 -28 7 -31 52 -4 60 2 75 25 71 10 -2 21
-4 26 -4z m-143 -37 c0 -20 -7 -51 -16 -70 -22 -46 -10 -55 15 -13 13 21 21
51 21 77 0 39 2 43 23 40 20 -3 23 -10 27 -68 l5 -65 38 3 c35 3 37 2 37 -27
l0 -31 -103 0 -104 0 -2 85 c-1 47 1 90 4 95 4 6 17 10 31 10 21 0 24 -4 24
-36z"/>
<path d="M5540 3789 c0 -46 2 -50 20 -44 19 6 20 2 20 -66 0 -53 -3 -70 -11
-62 -6 6 -10 32 -8 57 3 28 0 45 -6 43 -5 -2 -10 -21 -11 -43 0 -21 -4 -49 -8
-62 -10 -29 -3 -36 21 -23 10 6 36 18 58 25 37 13 38 15 12 15 -25 1 -28 4
-25 29 2 19 9 28 26 30 12 2 22 8 22 14 0 6 -11 8 -25 6 -21 -4 -25 -1 -25 17
0 14 7 25 19 28 14 3 20 16 23 46 l4 41 -53 0 -53 0 0 -51z m70 0 c0 -24 -4
-29 -25 -29 -21 0 -25 5 -25 29 0 20 6 31 18 34 26 5 32 -1 32 -34z"/>
<path d="M6002 3708 c-2 -117 4 -148 23 -118 11 17 77 12 91 -7 15 -21 14 -34
18 142 l3 110 -67 0 -67 0 -1 -127z m110 107 c3 -3 3 -17 0 -30 -4 -22 -9 -25
-48 -25 -39 0 -44 2 -44 23 0 13 3 27 7 30 8 8 77 9 85 2z m-2 -95 c0 -29 -2
-30 -45 -30 -46 0 -53 8 -39 44 4 11 19 16 45 16 37 0 39 -2 39 -30z m-2 -77
c3 -33 3 -33 -42 -33 -42 0 -46 2 -42 23 3 12 5 28 5 35 1 9 13 12 39 10 34
-3 37 -6 40 -35z"/>
<path d="M2100 3822 c-24 -2 -50 -8 -57 -14 -23 -19 -15 -63 17 -93 34 -32 39
-69 12 -84 -24 -13 -62 12 -62 40 0 10 -4 19 -10 19 -5 0 -10 -11 -10 -24 0
-13 -2 -31 -5 -38 -8 -19 96 -18 119 1 25 21 19 60 -14 98 -30 34 -39 67 -20
78 18 11 49 -5 52 -28 5 -33 21 -27 29 11 8 38 7 38 -51 34z"/>
<path d="M3110 3822 c-24 -2 -50 -8 -57 -14 -23 -19 -15 -63 17 -93 31 -30 39
-65 18 -83 -19 -15 -58 4 -58 27 0 24 -18 38 -24 19 -20 -64 -20 -66 37 -64
99 4 129 56 62 109 -37 30 -48 73 -20 84 19 7 55 -24 55 -46 0 -11 3 -12 11
-4 6 6 9 23 7 39 -3 28 -5 29 -48 26z"/>
<path d="M1443 3813 c14 -4 17 -17 17 -90 0 -68 -3 -88 -16 -98 -14 -10 -9
-12 28 -12 44 0 45 1 33 24 -17 32 -11 163 7 175 8 4 -8 7 -37 7 -27 -1 -42
-3 -32 -6z"/>
<path d="M1548 3808 c15 -15 16 -170 1 -185 -8 -8 1 -11 32 -11 31 -1 39 2 30
11 -16 16 -15 184 2 190 6 3 -8 6 -32 6 -35 1 -42 -2 -33 -11z"/>
<path d="M1648 3813 c15 -6 17 -183 2 -183 -5 0 -10 -4 -10 -8 0 -4 18 -8 41
-9 38 -2 40 -1 26 15 -10 12 -15 42 -16 94 -1 64 1 78 16 87 14 8 9 10 -27 10
-25 0 -39 -3 -32 -6z"/>
<path d="M6276 3802 c-3 -6 1 -15 8 -21 8 -7 17 -8 20 -3 3 6 -1 15 -8 21 -8
7 -17 8 -20 3z"/>
<path d="M6394 3794 c3 -9 6 -18 6 -20 0 -3 5 -2 10 1 16 10 12 35 -6 35 -11
0 -14 -5 -10 -16z"/>
<path d="M6650 3736 c-18 -22 -5 -46 25 -46 23 0 26 4 23 27 -3 32 -29 41 -48
19z m38 -18 c-6 -18 -28 -21 -28 -4 0 9 7 16 16 16 9 0 14 -5 12 -12z"/>
<path d="M3670 3721 c0 -5 7 -14 15 -21 8 -7 15 -19 15 -26 0 -8 5 -14 10 -14
15 0 12 22 -6 48 -15 22 -34 29 -34 13z"/>
<path d="M5270 3666 l0 -54 40 5 c23 3 46 1 54 -6 16 -13 22 5 25 72 l2 37
-61 0 -60 0 0 -54z m100 23 c0 -5 -19 -9 -41 -9 -33 0 -39 3 -30 13 12 15 71
11 71 -4z m-10 -45 c0 -11 -8 -14 -32 -12 -46 4 -49 28 -4 28 26 0 36 -4 36
-16z"/>
<path d="M2175 3610 c0 -71 2 -80 19 -80 12 0 16 5 12 16 -3 9 -6 45 -6 80 0
45 -4 64 -13 64 -9 0 -12 -22 -12 -80z"/>
<path d="M3177 3683 c-16 -15 -6 -30 17 -26 38 8 40 -14 7 -67 -17 -28 -31
-52 -31 -53 0 -2 19 -2 43 -1 36 1 43 5 46 25 3 24 3 24 -18 5 -32 -29 -35
-13 -7 28 24 36 25 56 3 84 -10 13 -49 17 -60 5z"/>
<path d="M1756 3643 c-12 -12 -6 -33 9 -33 8 0 15 6 15 14 0 17 -14 28 -24 19z"/>
<path d="M2540 3632 c0 -5 -16 -17 -35 -28 -19 -10 -35 -22 -35 -27 0 -10 -1
-10 62 22 26 13 45 28 42 33 -7 11 -34 11 -34 0z"/>
<path d="M2630 3630 c0 -5 16 -14 35 -21 19 -7 35 -17 35 -21 0 -4 7 -8 15 -8
8 0 12 6 9 14 -6 16 -94 50 -94 36z"/>
<path d="M3252 3036 c-8 -17 -16 -22 -34 -19 -13 2 -34 0 -48 -6 -22 -9 -19
-10 23 -10 l47 -1 -16 -26 c-10 -14 -30 -39 -46 -56 -35 -38 -28 -49 12 -19
27 20 30 20 32 4 0 -10 2 -25 3 -33 1 -8 -2 -19 -6 -25 -4 -5 -10 -25 -14 -44
-9 -42 6 -35 29 14 17 34 18 35 76 35 53 0 60 -2 60 -20 0 -15 -7 -20 -25 -20
-32 0 -32 -13 1 -30 22 -12 27 -12 34 0 9 13 14 158 8 177 -2 4 -34 6 -71 4
-67 -3 -68 -2 -58 18 10 19 21 21 91 21 60 0 80 3 80 13 0 22 -12 28 -28 15
-8 -7 -41 -13 -73 -14 -55 -1 -72 7 -49 21 14 9 12 25 -3 25 -8 0 -19 -11 -25
-24z m118 -101 c0 -12 -13 -15 -60 -15 -47 0 -60 3 -60 15 0 12 13 15 60 15
47 0 60 -3 60 -15z m-84 -38 c4 -3 14 -2 23 2 21 11 61 -4 61 -24 0 -12 -13
-15 -60 -15 -57 0 -60 1 -60 24 0 23 19 30 36 13z"/>
<path d="M2863 2957 c-2 -67 0 -78 13 -73 9 3 53 6 99 6 l83 0 4 73 3 72 -100
0 -100 0 -2 -78z m172 3 l0 -55 -60 0 c-77 -1 -95 8 -95 46 0 56 11 64 87 64
l68 0 0 -55z"/>
<path d="M2005 2972 c-15 -31 -38 -78 -50 -104 l-23 -48 31 0 c22 0 28 3 20
11 -16 16 -3 49 21 51 61 4 61 4 61 -30 0 -31 1 -32 39 -32 34 0 37 2 23 13
-9 6 -30 51 -47 99 -18 49 -35 90 -40 93 -4 3 -20 -21 -35 -53z m35 -62 c-21
-13 -38 -1 -32 23 8 34 26 39 36 11 6 -19 5 -29 -4 -34z"/>
<path d="M3663 3012 c13 -14 17 -37 17 -88 0 -72 -5 -87 -30 -97 -8 -3 8 -6
35 -6 28 0 45 3 38 7 -17 11 -20 167 -3 187 11 13 7 15 -30 15 -41 0 -42 -1
-27 -18z"/>
<path d="M2877 2835 c-19 -24 -37 -42 -41 -38 -3 3 -6 -1 -6 -10 0 -9 4 -17 8
-17 10 0 102 93 102 103 0 21 -33 1 -63 -38z"/>
<path d="M3026 2844 c19 -19 34 -42 34 -50 0 -8 7 -14 15 -14 26 0 17 26 -22
64 -48 47 -71 47 -27 0z"/>
<path d="M2170 2835 c0 -8 7 -15 15 -15 8 0 15 7 15 15 0 8 -7 15 -15 15 -8 0
-15 -7 -15 -15z"/>
<path d="M3255 2289 c-6 -18 -13 -20 -56 -17 -27 1 -49 0 -49 -4 0 -5 18 -8
39 -8 22 0 43 -4 46 -10 3 -5 -15 -32 -41 -60 -26 -28 -44 -53 -41 -56 3 -4
17 6 31 21 14 15 29 24 34 21 10 -6 10 -55 0 -72 -3 -5 -9 -24 -13 -41 -9 -44
8 -42 29 2 17 34 18 35 76 35 53 0 60 -2 60 -20 0 -15 -7 -20 -25 -20 -24 0
-24 -1 -7 -18 15 -17 19 -17 35 -4 14 12 17 32 17 106 0 70 -3 87 -12 78 -7
-7 -38 -12 -71 -12 -50 0 -58 2 -53 16 3 9 6 20 6 25 0 5 38 9 85 9 79 0 102
8 73 26 -6 4 -14 2 -16 -4 -2 -8 -28 -12 -68 -12 -62 0 -64 1 -54 20 8 16 8
20 -4 20 -8 0 -18 -9 -21 -21z m115 -104 c0 -12 -13 -15 -60 -15 -47 0 -60 3
-60 15 0 12 13 15 60 15 47 0 60 -3 60 -15z m0 -50 c0 -24 -3 -25 -60 -25 -57
0 -60 1 -60 25 0 24 3 25 60 25 57 0 60 -1 60 -25z"/>
<path d="M2860 2213 c0 -67 10 -97 25 -73 3 5 44 10 91 10 l84 0 0 60 c0 33 1
63 3 67 1 4 -44 7 -100 8 l-103 0 0 -72z m180 8 c0 -56 -2 -57 -95 -56 l-60 0
-3 38 c-5 57 9 67 89 67 l69 0 0 -49z"/>
<path d="M3780 2280 c-35 -4 -40 -7 -22 -12 20 -6 22 -12 22 -87 0 -63 -3 -83
-15 -87 -28 -11 -15 -21 25 -20 22 0 40 4 40 8 0 5 -4 8 -10 8 -15 0 -13 177
3 183 24 8 1 12 -43 7z"/>
<path d="M1943 2273 c14 -4 17 -17 17 -93 0 -74 -3 -91 -17 -100 -14 -9 0 -10
60 -6 43 2 85 10 93 16 18 16 18 64 -1 80 -11 9 -12 16 -2 31 10 15 9 25 -3
47 -15 25 -20 27 -90 29 -41 0 -67 -1 -57 -4z m91 -9 c22 -8 37 -39 30 -58 -4
-10 -18 -16 -40 -16 -33 0 -34 1 -34 40 0 41 9 48 44 34z m37 -121 c13 -34 -4
-53 -47 -53 -33 0 -34 1 -34 38 0 47 2 50 41 44 21 -3 33 -12 40 -29z"/>
<path d="M3658 2264 c19 -13 22 -24 22 -88 0 -65 -3 -75 -22 -89 -22 -14 -21
-15 24 -14 36 0 45 3 38 12 -16 19 -15 176 1 186 9 6 -4 9 -36 9 -48 0 -49 -1
-27 -16z"/>
<path d="M2873 2085 c-24 -24 -43 -50 -43 -57 0 -8 3 -9 8 -3 4 6 28 28 55 49
26 21 47 42 47 47 0 21 -28 6 -67 -36z"/>
<path d="M3028 2097 c18 -18 32 -38 32 -45 0 -7 7 -12 15 -12 24 0 18 15 -22
54 -47 45 -68 48 -25 3z"/>
<path d="M2160 2090 c0 -11 7 -20 15 -20 8 0 15 6 15 14 0 8 -7 16 -15 20 -10
4 -15 -1 -15 -14z"/>
<path d="M3255 1539 c-6 -18 -13 -20 -56 -17 -27 1 -49 0 -49 -4 0 -5 18 -8
40 -8 34 0 39 -3 37 -20 -2 -11 -21 -38 -42 -60 -39 -40 -37 -57 3 -20 12 11
25 20 29 20 14 0 8 -63 -9 -100 -8 -19 -14 -37 -12 -39 8 -9 35 11 44 34 9 23
15 25 70 25 53 0 60 -2 60 -20 0 -16 -7 -20 -32 -20 l-33 0 29 -15 c45 -24 56
-7 56 89 l0 82 -70 -4 c-70 -4 -77 -1 -64 32 5 13 23 16 90 16 78 0 101 8 72
26 -6 4 -14 2 -16 -4 -2 -8 -28 -12 -68 -12 -62 0 -64 1 -54 20 8 16 8 20 -4
20 -8 0 -18 -9 -21 -21z m115 -104 c0 -12 -13 -15 -60 -15 -47 0 -60 3 -60 15
0 12 13 15 60 15 47 0 60 -3 60 -15z m-2 -47 c-3 -21 -9 -23 -60 -24 -55 -1
-58 0 -58 22 0 23 4 24 61 24 57 0 60 -1 57 -22z"/>
<path d="M4086 1553 c-4 -4 -38 -8 -76 -8 -39 -1 -73 -5 -77 -8 -3 -4 6 -7 21
-7 24 0 26 -3 25 -37 -3 -61 -29 -141 -56 -173 -29 -35 -17 -41 16 -7 25 28
61 94 62 117 0 8 11 -7 24 -34 29 -58 24 -70 -39 -88 -32 -9 -36 -13 -19 -16
13 -2 41 7 63 19 l40 23 50 -24 c37 -17 53 -21 61 -13 9 9 1 14 -29 22 -51 14
-68 33 -46 52 19 16 55 85 48 92 -3 3 -12 3 -20 0 -8 -3 -21 -3 -28 0 -13 5
-13 10 0 35 19 39 4 79 -20 55z m-6 -35 c-1 -43 -13 -58 -46 -58 -31 0 -34 3
-34 28 0 16 3 32 7 35 12 12 73 8 73 -5z m43 -85 c-8 -23 -45 -73 -52 -73 -7
1 -41 67 -41 80 0 6 22 10 50 10 43 0 49 -2 43 -17z"/>
<path d="M2861 1463 c-1 -59 1 -73 13 -73 8 0 17 4 20 8 2 4 41 7 85 6 l81 -1
0 68 0 68 -99 -1 -98 -2 -2 -73z m179 7 l0 -50 -80 0 -80 0 0 43 c0 24 3 47 7
50 3 4 39 7 80 7 l73 0 0 -50z"/>
<path d="M4402 1523 c16 -20 17 -162 1 -179 -12 -12 -7 -14 34 -14 37 1 44 3
31 11 -15 8 -18 24 -18 89 0 43 5 82 10 85 20 12 9 20 -30 20 -31 1 -37 -2
-28 -12z"/>
<path d="M4500 1528 c0 -5 5 -8 10 -8 15 0 13 -163 -2 -178 -9 -9 -2 -12 33
-11 24 0 38 3 32 6 -16 6 -18 174 -3 189 6 6 -6 9 -30 9 -22 0 -40 -3 -40 -7z"/>
<path d="M4611 1526 c14 -15 12 -183 -3 -189 -7 -3 7 -6 32 -6 34 -1 41 2 32
11 -7 7 -12 43 -12 91 0 62 4 82 16 92 14 10 9 12 -29 11 -29 -1 -42 -5 -36
-10z"/>
<path d="M1970 1510 c-41 -41 -39 -129 4 -166 28 -25 83 -25 122 0 24 17 32
36 14 36 -5 0 -10 -4 -10 -10 0 -17 -42 -32 -75 -26 -26 5 -34 13 -45 46 -19
57 1 116 41 125 35 8 69 -10 69 -35 0 -11 5 -20 10 -20 6 0 10 16 10 35 l0 35
-60 0 c-46 0 -64 -4 -80 -20z"/>
<path d="M3655 1516 c28 -20 30 -142 3 -172 l-19 -22 44 2 c43 1 44 2 30 22
-18 28 -12 162 8 175 9 6 -3 9 -35 9 -45 0 -48 -1 -31 -14z"/>
<path d="M2910 1382 c0 -4 -19 -27 -42 -50 -42 -43 -41 -55 2 -25 66 46 90 83
55 83 -8 0 -15 -4 -15 -8z"/>
<path d="M3000 1383 c1 -4 19 -28 41 -52 41 -45 63 -51 35 -9 -17 26 -76 74
-76 61z"/>
<path d="M2157 1345 c-8 -18 11 -31 25 -17 11 11 3 32 -12 32 -4 0 -10 -7 -13
-15z"/>
<path d="M14460 1210 c0 -5 7 -10 15 -10 8 0 15 5 15 10 0 6 -7 10 -15 10 -8
0 -15 -4 -15 -10z"/>
<path d="M3257 800 c-4 -17 -14 -20 -56 -20 -30 0 -51 -4 -51 -11 0 -6 15 -10
33 -9 69 4 69 -7 1 -73 -44 -42 -41 -60 4 -22 16 14 32 25 35 25 8 0 0 -55
-13 -100 -13 -46 -13 -50 5 -44 8 3 14 9 13 12 -1 4 4 20 10 35 11 27 15 28
69 25 54 -3 58 -5 58 -28 0 -22 -4 -25 -29 -22 -35 4 -27 -13 10 -22 38 -10
44 5 44 104 l0 86 -70 -4 c-45 -3 -70 0 -70 6 0 20 23 25 102 25 55 -1 78 2
75 10 -2 8 -30 11 -82 8 -68 -2 -77 -1 -67 11 6 8 9 18 5 21 -11 12 -21 7 -26
-13z m108 -110 c0 -11 -12 -13 -54 -11 -36 2 -51 -1 -46 -8 3 -6 28 -11 56
-11 37 0 49 -4 49 -15 0 -12 -13 -15 -59 -15 l-59 0 0 40 -1 41 57 -3 c42 -2
57 -7 57 -18z"/>
<path d="M4110 801 c-47 -3 -80 -9 -73 -14 6 -4 18 -4 27 -1 39 15 8 -148 -41
-213 -13 -18 -20 -33 -14 -33 18 0 62 63 73 106 12 44 38 61 38 25 0 -10 7
-24 15 -31 28 -23 14 -53 -32 -70 -23 -8 -45 -19 -50 -23 -13 -14 50 4 84 24
31 17 33 17 72 -2 42 -20 81 -25 81 -10 0 5 -15 12 -34 15 -56 11 -61 27 -26
82 16 26 30 54 30 61 0 16 -22 17 -37 2 -6 -6 -15 -9 -20 -6 -12 7 -4 67 8 67
5 0 9 7 9 15 0 8 -6 14 -12 13 -7 -1 -51 -4 -98 -7z m70 -28 c0 -45 -12 -63
-41 -63 -27 0 -29 3 -29 40 0 39 1 40 35 40 27 0 35 -4 35 -17z m40 -79 c0 -3
-11 -21 -24 -41 l-25 -36 -20 34 c-12 19 -21 37 -21 42 0 4 20 7 45 7 25 0 45
-2 45 -6z"/>
<path d="M2860 721 c0 -63 2 -72 16 -67 9 3 53 6 99 6 l83 0 0 68 0 67 -99 0
-99 0 0 -74z m175 4 l0 -50 -77 -3 -78 -3 0 49 c0 27 3 52 7 56 4 4 39 5 78 4
l70 -3 0 -50z"/>
<path d="M1944 774 c24 -24 23 -169 -1 -184 -14 -8 1 -10 61 -8 76 3 80 5 107
38 38 45 38 85 1 129 -27 32 -32 34 -106 37 -70 3 -76 2 -62 -12z m131 -24
c27 -30 25 -93 -4 -124 -26 -28 -62 -34 -78 -13 -7 9 -10 126 -4 155 1 1 16 2
34 2 21 0 41 -8 52 -20z"/>
<path d="M3651 777 c12 -9 17 -31 18 -87 1 -77 -3 -93 -29 -103 -8 -3 10 -6
40 -6 40 0 50 2 39 9 -23 13 -22 176 1 190 11 7 0 10 -35 10 -42 -1 -47 -3
-34 -13z"/>
<path d="M3758 777 c20 -9 22 -17 22 -82 0 -58 -4 -75 -20 -93 l-21 -22 48 1
c26 0 42 3 36 6 -9 3 -13 32 -13 93 0 73 3 91 17 99 12 6 2 9 -37 9 -46 0 -51
-2 -32 -11z"/>
<path d="M4504 774 c23 -23 21 -170 -2 -184 -13 -7 -4 -9 32 -10 46 0 48 1 34
18 -21 24 -20 169 2 182 11 7 1 10 -33 10 -44 0 -47 -1 -33 -16z"/>
<path d="M4608 783 c16 -6 17 -174 0 -191 -9 -9 -2 -12 32 -12 34 0 41 3 32
12 -7 7 -12 44 -12 95 0 68 3 84 18 92 13 8 6 10 -33 10 -27 0 -44 -3 -37 -6z"/>
<path d="M4713 776 c18 -18 13 -176 -6 -188 -7 -4 10 -8 37 -8 44 0 48 1 31
14 -15 10 -18 26 -17 77 1 89 0 86 18 103 14 15 11 16 -31 16 -40 0 -45 -2
-32 -14z"/>
<path d="M2910 642 c0 -4 -18 -27 -40 -51 -23 -24 -39 -46 -36 -48 8 -8 106
89 100 98 -7 11 -24 12 -24 1z"/>
<path d="M3000 633 c1 -9 68 -83 75 -83 17 0 0 33 -30 59 -37 32 -45 36 -45
24z"/>
<path d="M2170 600 c0 -11 7 -20 15 -20 8 0 15 9 15 20 0 11 -7 20 -15 20 -8
0 -15 -9 -15 -20z"/>
</g>
</svg>
