<?xml version="1.0" standalone="no"?>
<!DOCTYPE svg PUBLIC "-//W3C//DTD SVG 20010904//EN"
 "http://www.w3.org/TR/2001/REC-SVG-20010904/DTD/svg10.dtd">
<svg version="1.0" xmlns="http://www.w3.org/2000/svg"
 width="1520.000000pt" height="671.000000pt" viewBox="0 0 1520.000000 671.000000"
 preserveAspectRatio="xMidYMid meet">
<metadata>
Created by potrace 1.16, written by Peter Selinger 2001-2019
</metadata>
<g transform="translate(0.000000,671.000000) scale(0.100000,-0.100000)"
fill="#000000" stroke="none">
<path d="M1657 6313 c-4 -3 -7 -20 -7 -36 0 -29 0 -29 -52 -25 l-53 4 3 -69
c3 -51 7 -66 15 -58 6 6 28 11 49 11 l38 0 0 -61 c0 -37 4 -58 10 -54 6 3 10
30 10 59 l0 52 51 0 51 1 1 59 1 59 -53 -4 c-53 -3 -54 -3 -49 22 5 27 -4 52
-15 40z m-7 -118 l0 -45 -40 0 -40 0 0 45 0 45 40 0 40 0 0 -45z m100 0 l0
-45 -40 0 c-40 0 -40 0 -40 38 0 47 4 52 47 52 33 0 33 -1 33 -45z"/>
<path d="M1205 6162 c0 -126 2 -141 19 -124 12 11 200 10 209 -2 17 -25 26 24
26 139 l1 120 -128 0 -127 0 0 -133z m234 8 c2 -101 0 -110 -17 -110 -16 0
-18 7 -14 60 l4 60 -81 0 -81 0 0 -60 c0 -42 -4 -60 -13 -60 -9 0 -13 18 -12
65 l0 65 98 0 c58 0 97 4 97 10 0 6 -18 10 -41 10 -22 0 -38 4 -35 9 3 5 16 7
28 3 17 -4 20 -2 15 11 -4 10 -2 17 3 17 6 0 10 5 10 10 0 6 -28 10 -65 10
-63 0 -65 -1 -65 -26 0 -21 4 -25 20 -21 11 3 23 1 26 -4 3 -5 -15 -9 -40 -9
-46 0 -46 0 -46 35 l0 35 104 0 104 0 1 -110z m-79 79 c0 -5 -13 -9 -30 -9
-16 0 -30 3 -30 8 0 4 14 8 30 8 17 1 30 -2 30 -7z m13 -88 c4 -1 7 -14 7 -30
0 -26 -3 -29 -39 -33 -22 -2 -37 0 -35 4 3 5 18 8 33 8 22 0 28 4 27 21 -1 18
-8 22 -43 23 -42 2 -43 2 -38 -26 3 -15 1 -28 -5 -28 -11 0 -14 53 -4 63 5 4
59 4 97 -2z m-23 -31 c0 -5 -9 -10 -20 -10 -11 0 -20 5 -20 10 0 6 9 10 20 10
11 0 20 -4 20 -10z m8 -67 c-16 -2 -40 -2 -55 0 -16 2 -3 4 27 4 30 0 43 -2
28 -4z"/>
<path d="M3285 6276 c5 -22 3 -27 -8 -23 -8 3 -20 1 -28 -4 -9 -6 -1 -9 27 -9
l42 0 -8 -32 c-13 -55 -27 -84 -60 -121 -17 -20 -26 -38 -21 -41 5 -3 26 16
46 44 l37 50 84 0 c83 0 84 0 84 -25 0 -27 -17 -34 -26 -11 -3 8 -11 17 -19
19 -10 4 -10 0 -2 -23 6 -16 15 -27 19 -24 4 3 8 -2 8 -10 0 -10 -9 -16 -24
-16 -20 0 -25 6 -28 32 -2 17 -9 34 -17 36 -11 4 -12 -2 -7 -24 8 -35 40 -64
71 -64 25 0 41 33 47 95 3 27 0 30 -21 27 -22 -3 -23 -1 -18 27 6 27 4 31 -14
31 -17 0 -20 4 -15 25 6 24 5 24 -45 18 l-52 -6 7 27 c9 36 -15 31 -25 -5 -4
-13 -7 -19 -8 -13 -1 5 -8 19 -17 30 -15 18 -15 18 -9 -10z m125 -51 c0 -11
-11 -15 -40 -15 -38 0 -49 8 -33 23 3 4 21 7 40 7 23 0 33 -5 33 -15z m30 -57
c0 -15 -10 -18 -65 -18 -36 0 -65 2 -65 4 0 3 7 12 16 20 23 24 114 18 114 -6z"/>
<path d="M4040 6285 c0 -12 -14 -15 -67 -15 -36 0 -63 -3 -60 -7 4 -4 32 -5
62 -4 46 2 55 0 55 -15 0 -13 -6 -16 -35 -11 l-35 6 0 -95 0 -94 -30 0 c-16 0
-30 -4 -30 -10 0 -6 53 -10 140 -10 129 0 160 6 129 26 -6 3 -16 1 -22 -5 -23
-23 -27 -8 -25 86 l2 98 -38 -3 c-28 -3 -37 0 -34 10 3 8 28 15 69 19 74 6 69
13 -9 9 -44 -2 -51 1 -46 14 4 11 1 16 -10 16 -9 0 -16 -7 -16 -15z m60 -85
c0 -18 -7 -20 -60 -20 -53 0 -60 2 -60 20 0 18 7 20 60 20 53 0 60 -2 60 -20z
m0 -45 c0 -12 -13 -15 -60 -15 -47 0 -60 3 -60 15 0 12 13 15 60 15 47 0 60
-3 60 -15z m0 -44 c0 -11 -4 -23 -10 -26 -5 -3 -10 -1 -10 4 0 6 -21 11 -50
11 -46 0 -60 7 -43 23 3 4 30 7 60 7 46 0 53 -3 53 -19z m-3 -53 c-2 -7 -15
-12 -28 -12 -13 1 -39 2 -56 3 -60 2 -34 21 28 21 44 0 60 -3 56 -12z"/>
<path d="M4305 6266 c-17 -17 -39 -37 -50 -43 -19 -12 -18 -12 5 -7 l26 5 -7
-81 c-5 -56 -13 -87 -25 -101 -9 -10 -12 -19 -6 -19 16 0 52 50 52 72 0 17 7
19 88 16 87 -3 87 -3 90 -30 3 -25 0 -28 -30 -29 -21 -1 -26 -3 -13 -6 11 -3
25 -9 30 -14 24 -19 33 9 36 106 l3 99 -49 -2 c-49 -3 -49 -3 -27 13 31 23 20
34 -28 28 -35 -5 -39 -3 -34 11 11 28 -28 17 -61 -18z m95 -21 c-8 -9 -30 -15
-58 -15 -42 0 -44 1 -26 15 10 8 36 15 58 15 33 0 37 -2 26 -15z m-20 -50 c0
-23 -3 -25 -35 -22 -41 4 -50 11 -42 32 4 9 19 15 42 15 31 0 35 -3 35 -25z
m98 0 c2 -17 -4 -20 -38 -23 -37 -2 -40 -1 -40 23 0 24 3 26 38 23 28 -2 38
-8 40 -23z m-98 -56 c0 -17 -5 -20 -37 -17 -27 2 -39 8 -41 21 -3 14 4 17 37
17 35 0 41 -3 41 -21z m100 1 c0 -17 -7 -20 -40 -20 -33 0 -40 3 -40 20 0 17
7 20 40 20 33 0 40 -3 40 -20z"/>
<path d="M4989 6267 c-19 -17 -44 -38 -55 -45 -18 -12 -17 -12 5 -6 l24 6 -5
-75 c-3 -48 -11 -86 -22 -103 -13 -19 -14 -25 -4 -22 7 2 24 23 36 47 l24 42
81 -3 c81 -3 82 -3 85 -30 3 -26 1 -28 -35 -29 -21 -1 -29 -3 -18 -6 11 -3 26
-10 33 -15 8 -7 16 -7 26 1 10 9 14 38 14 110 l1 98 -46 -5 c-33 -3 -44 -2
-39 7 4 6 14 11 22 11 9 0 14 6 11 13 -2 8 -18 11 -45 9 -35 -3 -41 -1 -36 12
10 26 -18 18 -57 -17z m85 -22 c-4 -10 -20 -15 -50 -15 -49 0 -55 6 -21 20 37
15 77 12 71 -5z m-24 -40 c0 -26 -4 -30 -33 -30 -32 -1 -42 9 -33 30 7 20 66
20 66 0z m108 -7 c-3 -20 -9 -23 -43 -23 -33 1 -41 4 -43 23 -3 20 1 22 43 22
42 0 46 -2 43 -22z m-102 -55 c-2 -13 -14 -19 -39 -21 -32 -3 -37 0 -37 17 0
18 6 21 39 21 32 0 39 -3 37 -17z m102 -5 c3 -15 -4 -18 -42 -18 -39 0 -45 3
-43 20 1 18 7 21 42 18 29 -2 41 -8 43 -20z"/>
<path d="M5471 6270 c-12 -17 -28 -30 -35 -30 -7 0 -19 -7 -26 -15 -18 -21 2
-19 41 4 35 22 63 57 51 65 -5 3 -19 -8 -31 -24z"/>
<path d="M5320 6280 c-36 -4 -57 -7 -47 -8 13 -2 17 -11 17 -47 0 -39 -3 -45
-21 -45 -11 0 -18 -4 -14 -10 3 -5 13 -6 22 -3 14 6 15 0 10 -40 -4 -26 -14
-61 -22 -77 -10 -19 -11 -30 -5 -30 16 0 50 80 50 118 0 27 4 32 23 32 23 0
24 -2 19 -75 -3 -51 -1 -75 7 -75 11 0 12 6 16 85 3 64 4 65 25 65 11 0 20 5
20 11 0 7 -10 9 -25 5 -23 -6 -24 -4 -20 31 2 21 4 41 4 46 1 4 8 7 17 7 8 0
12 5 9 10 -3 6 -9 9 -13 8 -4 -1 -36 -4 -72 -8z m33 -31 c7 -28 -10 -72 -26
-67 -13 5 -22 51 -13 74 8 21 33 17 39 -7z"/>
<path d="M5650 6161 l0 -123 -30 6 c-17 3 -30 1 -30 -4 0 -6 58 -10 146 -10
135 0 144 1 129 16 -12 13 -19 14 -28 5 -6 -6 -15 -11 -19 -11 -4 0 -8 55 -8
123 l0 122 -80 0 -80 0 0 -124z m140 78 l0 -30 -52 3 c-49 3 -53 5 -56 31 -3
27 -2 27 52 27 56 0 56 0 56 -31z m0 -79 c0 -30 -1 -30 -55 -30 -54 0 -55 0
-55 30 0 30 1 30 55 30 54 0 55 0 55 -30z m0 -81 l0 -40 -55 2 -55 2 0 39 0
38 55 0 55 0 0 -41z"/>
<path d="M8480 6280 c0 -5 8 -14 18 -19 14 -9 11 -10 -17 -11 -56 0 -24 -15
35 -16 36 -1 53 3 51 10 -2 6 -10 11 -18 11 -9 0 -23 8 -33 18 -19 19 -36 22
-36 7z"/>
<path d="M8600 6268 c0 -10 -7 -35 -16 -56 -14 -33 -17 -35 -24 -17 -6 17 -15
20 -55 17 -35 -3 -44 -7 -36 -15 7 -7 26 -12 44 -12 18 -1 38 -5 46 -9 17 -11
58 29 66 65 8 34 35 39 35 7 0 -53 11 -69 44 -66 17 2 29 8 26 13 -3 6 -13 9
-22 8 -18 -3 -30 25 -25 60 2 15 -6 19 -40 21 -36 2 -43 -1 -43 -16z"/>
<path d="M11087 6283 c-4 -3 -7 -60 -7 -125 l0 -118 -27 0 -28 0 29 -15 c16
-9 33 -12 37 -8 9 10 18 273 9 273 -4 0 -10 -3 -13 -7z"/>
<path d="M11276 6283 c-3 -3 -6 -15 -6 -25 0 -10 -4 -18 -10 -18 -5 0 -9 3 -9
8 4 22 -3 32 -23 32 -21 -1 -22 -2 -5 -14 24 -18 22 -24 -10 -29 -20 -3 -16
-4 13 -6 l42 -1 -8 -33 c-7 -31 -38 -89 -77 -144 -8 -13 -11 -23 -5 -23 5 0
16 10 25 23 43 65 57 72 137 72 81 -1 89 -7 76 -60 -5 -18 -14 -25 -38 -27
l-33 -3 27 -12 c32 -15 54 1 64 45 3 15 9 35 15 44 13 25 12 28 -16 28 -22 0
-25 4 -25 37 0 35 -1 36 -15 17 -15 -18 -15 -17 -13 16 l3 34 -49 -3 c-45 -2
-48 -1 -43 18 5 21 -5 36 -17 24z m79 -63 c11 -18 -15 -40 -46 -40 -21 0 -29
5 -29 18 0 10 3 22 7 25 10 11 61 8 68 -3z m35 -65 c0 -12 -14 -15 -65 -15
-53 0 -63 3 -59 15 5 11 22 15 65 15 46 0 59 -3 59 -15z"/>
<path d="M326 6264 c-9 -8 -16 -20 -16 -25 0 -15 17 -10 24 7 3 9 15 14 28 12
18 -2 24 -10 26 -39 2 -29 -4 -43 -38 -81 -22 -25 -40 -50 -40 -55 0 -4 25 -7
56 -7 42 1 59 6 66 18 13 24 9 25 -39 16 -24 -4 -43 -4 -43 -1 0 4 16 22 35
41 39 37 55 91 35 115 -16 20 -74 19 -94 -1z"/>
<path d="M470 6259 c-14 -25 -3 -41 11 -16 12 21 42 22 63 2 22 -22 2 -72 -46
-113 -54 -47 -50 -58 22 -57 33 0 60 3 60 7 0 3 3 14 6 23 7 16 -4 16 -71 -2
-14 -4 -8 7 23 40 43 48 52 80 32 118 -15 28 -85 27 -100 -2z"/>
<path d="M2518 6242 c-14 -20 -49 -67 -77 -104 -49 -66 -50 -68 -26 -68 19 0
25 5 25 23 0 31 18 47 51 47 23 0 27 -4 24 -21 -2 -12 -9 -27 -16 -35 -9 -12
-5 -14 27 -14 26 0 34 3 26 9 -11 6 -12 26 -7 87 4 44 9 87 11 97 8 28 -9 19
-38 -21z m2 -67 c0 -20 -5 -25 -25 -25 -26 0 -26 0 -8 25 23 31 33 31 33 0z"/>
<path d="M2647 6260 c6 -22 -24 -138 -43 -167 -14 -23 -14 -23 45 -23 42 0 65
5 79 18 28 23 36 56 18 71 -13 11 -12 15 5 32 22 22 25 52 7 67 -7 5 -36 12
-64 14 -44 4 -51 3 -47 -12z m88 -30 c0 -16 -9 -29 -27 -39 -34 -19 -41 -12
-32 34 6 32 10 36 33 33 20 -2 26 -8 26 -28z m-16 -74 c15 -18 5 -41 -24 -60
-26 -17 -55 -21 -55 -8 0 4 5 24 11 45 8 29 15 37 33 37 13 0 29 -6 35 -14z"/>
<path d="M2859 6262 c-39 -20 -79 -74 -79 -109 0 -63 71 -105 133 -80 34 15
54 34 45 43 -3 2 -16 -5 -31 -16 -35 -28 -71 -26 -96 6 -26 33 -26 42 2 95 36
68 109 87 123 32 7 -27 18 -20 27 17 6 24 4 25 -42 27 -29 1 -61 -5 -82 -15z"/>
<path d="M4806 6271 c-4 -6 -47 -9 -102 -8 -53 1 -98 -1 -100 -5 -3 -5 49 -8
116 -8 90 0 121 3 118 12 -6 16 -25 21 -32 9z"/>
<path d="M6280 6177 c-52 -54 -96 -102 -98 -108 -2 -5 38 -9 97 -9 61 0 101 4
101 10 0 6 -32 10 -76 10 -42 0 -74 4 -72 9 2 5 35 43 74 84 80 84 88 94 77
99 -5 2 -51 -40 -103 -95z"/>
<path d="M6574 6245 c-8 -19 -18 -35 -23 -35 -5 0 -31 -29 -57 -65 -26 -36
-51 -65 -56 -65 -4 0 -8 -4 -8 -10 0 -5 14 -10 31 -10 16 0 28 4 25 9 -4 5 -2
21 4 35 7 20 16 26 40 26 23 0 30 -4 30 -19 0 -11 -4 -23 -10 -26 -21 -13 -8
-25 28 -25 24 0 32 3 23 9 -10 7 -12 29 -6 110 4 55 4 101 0 101 -3 0 -13 -16
-21 -35z m-6 -72 c-2 -20 -9 -29 -25 -31 -28 -4 -28 2 -5 33 23 32 34 31 30
-2z"/>
<path d="M6962 6269 c-66 -6 -93 -23 -118 -71 -35 -68 3 -138 74 -138 41 0 97
33 86 52 -3 5 -12 1 -20 -10 -20 -29 -61 -36 -91 -16 -23 15 -25 21 -21 72 4
45 10 60 32 79 33 28 81 30 95 4 6 -10 7 -21 4 -25 -3 -3 -1 -6 5 -6 12 0 27
42 20 57 -1 4 -31 5 -66 2z"/>
<path d="M9595 6270 c-44 -3 -68 -7 -52 -8 l27 -2 -5 -61 c-6 -69 -26 -123
-57 -156 -12 -13 -19 -26 -15 -29 12 -12 68 62 79 104 10 40 38 60 38 26 0 -9
9 -29 21 -45 l21 -29 -44 -19 c-24 -10 -52 -21 -62 -25 -10 -4 -16 -9 -13 -12
3 -3 33 6 68 20 34 14 67 22 73 18 16 -10 79 -32 94 -32 6 0 12 5 12 10 0 6
-7 10 -15 10 -22 0 -75 28 -75 40 0 5 14 29 30 53 17 25 30 48 30 51 0 3 -13
6 -30 6 -27 0 -30 3 -30 30 0 17 5 30 10 30 6 0 10 7 10 15 0 8 -8 14 -17 13
-10 -1 -54 -5 -98 -8z m75 -24 c0 -38 -18 -62 -46 -60 -25 1 -29 5 -28 30 0
16 -4 32 -10 36 -6 4 10 8 37 8 34 0 47 -4 47 -14z m33 -74 c16 -7 15 -11 -13
-42 l-31 -35 -19 25 c-27 34 -25 48 8 53 15 2 29 4 32 5 3 0 13 -3 23 -6z"/>
<path d="M10653 6263 c27 -29 67 -80 67 -87 0 -3 -41 -6 -91 -6 l-90 0 28 38
c15 20 31 39 36 40 15 7 6 22 -14 22 -11 0 -17 -4 -14 -10 3 -5 2 -10 -4 -10
-6 0 -13 -11 -17 -24 -3 -13 -17 -34 -30 -47 -13 -12 -24 -27 -24 -33 0 -6 5
-5 12 2 7 7 29 12 50 12 35 0 38 -2 38 -27 0 -19 -14 -41 -50 -75 -27 -26 -47
-48 -44 -48 3 0 24 11 48 25 33 19 46 35 60 75 17 48 20 50 55 50 l37 0 -4
-52 c-4 -58 -15 -71 -49 -63 -13 3 -23 1 -23 -4 0 -5 14 -12 31 -16 43 -10 57
8 63 78 5 66 9 75 29 59 8 -7 17 -9 20 -5 11 10 8 23 -5 23 -17 0 -68 61 -68
82 0 14 -8 18 -32 18 -30 0 -31 -1 -15 -17z"/>
<path d="M10854 6225 c1 -39 4 -50 17 -49 22 2 14 -80 -13 -124 -11 -18 -18
-35 -15 -38 7 -7 64 76 68 100 2 11 14 21 27 23 22 3 23 0 20 -44 -3 -46 -4
-48 -38 -54 -19 -4 -26 -7 -14 -8 11 0 25 -6 31 -12 17 -17 43 18 43 59 0 20
3 46 6 57 4 17 0 20 -32 20 -21 0 -39 6 -41 13 -3 8 8 12 34 12 l39 0 1 48 1
47 -68 0 -67 0 1 -50z m111 8 c-1 -16 -3 -31 -3 -35 -1 -5 -19 -8 -41 -8 -32
0 -39 4 -43 23 -7 38 1 47 46 47 41 0 43 -1 41 -27z"/>
<path d="M12505 6272 c-44 -2 -84 -8 -90 -13 -7 -7 -1 -10 20 -7 29 3 30 2 33
-45 3 -53 -21 -115 -65 -168 -30 -35 -19 -37 22 -4 18 15 35 44 46 77 14 43
18 49 25 33 4 -11 16 -33 27 -48 10 -16 17 -30 15 -33 -3 -2 -27 -15 -54 -29
-27 -13 -42 -24 -34 -24 9 -1 33 8 55 19 49 25 55 25 105 -1 24 -13 47 -18 58
-14 19 8 20 7 -55 35 -32 12 -43 33 -23 45 10 6 50 78 50 89 0 3 -13 3 -29 0
l-29 -6 9 43 c6 23 6 45 2 48 -4 3 -44 5 -88 3z m65 -33 c0 -36 -19 -59 -49
-59 -24 0 -29 5 -33 28 -6 42 -2 47 42 49 34 2 40 0 40 -18z m40 -77 c0 -4
-12 -25 -26 -46 l-26 -38 -24 36 c-13 19 -24 40 -24 45 0 6 22 11 50 11 28 0
50 -3 50 -8z"/>
<path d="M13709 6263 c-1 -10 -2 -64 -2 -120 l-1 -103 -58 0 c-32 0 -58 -4
-58 -8 0 -5 64 -8 143 -7 84 1 140 5 137 11 -3 5 -37 7 -76 6 l-70 -4 0 61 c0
67 -3 63 75 65 19 1 36 6 38 13 3 8 -11 10 -51 6 -44 -5 -56 -3 -57 8 -1 8 -3
24 -4 37 -1 12 2 25 6 28 14 8 10 24 -6 24 -8 0 -15 -8 -16 -17z"/>
<path d="M13974 6255 c-4 -16 -13 -25 -25 -25 -17 0 -19 -9 -19 -100 0 -60 4
-100 10 -100 6 0 10 5 10 10 0 15 58 12 63 -2 9 -27 20 5 19 56 -1 43 3 57 19
72 12 11 25 28 29 40 7 16 15 20 39 16 17 -2 31 0 31 5 0 6 -11 9 -25 7 -21
-2 -25 1 -23 18 2 12 -3 23 -9 25 -7 3 -13 -2 -13 -11 0 -9 -4 -16 -9 -16 -5
0 -12 -16 -15 -35 -4 -19 -12 -37 -18 -41 -7 -5 -9 1 -4 20 8 32 1 47 -19 40
-9 -4 -11 -13 -6 -27 13 -40 8 -52 -26 -55 -29 -3 -33 0 -33 22 0 14 9 31 22
40 12 9 18 16 13 16 -5 0 -4 5 3 12 14 14 16 38 2 38 -5 0 -12 -11 -16 -25z
m36 -156 c0 -38 -1 -40 -27 -37 -24 3 -28 8 -31 41 -3 35 -2 37 27 37 30 0 31
-2 31 -41z"/>
<path d="M14318 6272 l-58 -3 0 -54 0 -54 30 6 c24 4 30 2 30 -12 0 -15 -6
-17 -35 -12 -19 3 -35 2 -35 -4 0 -5 16 -9 35 -9 26 0 35 -4 35 -16 0 -13 -8
-15 -35 -12 -22 2 -34 0 -32 -6 2 -6 34 -12 70 -14 l67 -3 0 -34 c0 -24 5 -35
15 -35 8 0 15 5 15 10 0 6 22 10 49 10 l49 0 0 56 -1 55 -28 -6 c-28 -6 -29
-6 -29 34 0 39 1 41 31 41 16 0 28 4 25 9 -3 4 -18 6 -32 3 -26 -5 -27 -3 -21
27 5 23 3 31 -8 31 -12 0 -15 -16 -15 -75 l0 -75 -27 7 c-16 4 -38 7 -50 6
-14 0 -23 5 -23 14 0 9 8 13 23 11 20 -3 22 2 25 46 2 27 0 52 -5 55 -4 3 -34
5 -65 3z m-1 -28 c3 -9 0 -20 -7 -24 -9 -5 -9 -9 -1 -14 12 -8 5 -26 -10 -26
-5 0 -7 11 -5 25 3 13 0 27 -5 30 -14 9 -11 25 6 25 9 0 18 -7 22 -16z m53 7
c0 -13 -28 -22 -35 -11 -3 4 1 11 7 13 20 8 28 8 28 -2z m0 -46 c0 -16 -6 -25
-15 -25 -18 0 -20 21 -3 38 17 17 18 16 18 -13z m20 -87 c0 -7 -11 -14 -25
-14 -15 -1 -25 3 -25 12 0 8 10 14 25 14 14 0 25 -6 25 -12z m100 -38 c0 -39
-1 -40 -35 -40 -34 0 -35 1 -35 40 0 39 1 40 35 40 34 0 35 -1 35 -40z"/>
<path d="M6695 6261 c11 -19 -35 -165 -58 -185 -22 -18 -21 -18 50 -14 52 2
77 9 92 22 22 20 28 60 11 71 -6 4 -3 16 10 32 25 32 25 45 2 66 -20 18 -118
25 -107 8z m89 -23 c13 -22 -17 -58 -49 -58 -22 0 -22 2 -13 41 9 32 15 39 31
37 11 -2 25 -11 31 -20z m-40 -78 c39 -15 35 -53 -8 -74 -47 -22 -49 -21 -42
26 10 62 11 63 50 48z"/>
<path d="M7386 6248 c-19 -27 -21 -68 -3 -91 6 -9 27 -17 46 -19 l34 -3 -27
-32 c-15 -18 -34 -33 -42 -33 -8 0 -14 -4 -14 -9 0 -10 59 3 71 16 18 19 49
90 49 111 0 13 -7 36 -15 52 -13 24 -22 30 -50 30 -24 0 -39 -7 -49 -22z m74
-7 c14 -28 12 -66 -4 -80 -11 -10 -19 -7 -35 10 -25 27 -26 46 -4 71 21 23 30
23 43 -1z"/>
<path d="M7550 6255 c-30 -36 -22 -167 11 -188 29 -18 69 1 86 41 18 43 11
116 -14 144 -20 22 -66 24 -83 3z m60 -26 c7 -17 14 -47 15 -67 1 -38 -20 -92
-36 -92 -26 0 -40 131 -19 171 15 27 26 24 40 -12z"/>
<path d="M7691 6256 c-7 -8 -11 -27 -9 -43 2 -23 8 -29 35 -31 23 -2 35 3 47
20 20 28 20 33 0 52 -19 20 -58 21 -73 2z m62 -20 c8 -21 -26 -49 -41 -34 -7
7 -12 20 -12 30 0 22 45 25 53 4z"/>
<path d="M9087 6254 c17 -7 -24 -154 -50 -177 -11 -10 -18 -19 -16 -21 5 -4
158 10 162 15 2 2 15 19 30 37 34 42 37 98 7 130 -17 18 -31 22 -83 21 -34 0
-57 -3 -50 -5z m107 -20 c9 -9 16 -32 16 -56 0 -51 -51 -108 -98 -108 -29 0
-30 1 -22 33 9 41 30 118 35 135 6 17 51 15 69 -4z"/>
<path d="M10118 6253 c6 -2 12 -12 12 -22 0 -18 -36 -136 -49 -161 -7 -13 3
-15 67 -14 70 1 76 3 89 27 9 18 10 28 2 32 -6 4 -11 5 -12 4 -21 -40 -26 -44
-63 -44 -37 0 -39 1 -36 29 3 26 25 55 43 56 4 0 10 -10 13 -22 7 -22 7 -22
16 -3 5 11 9 29 9 40 1 15 -2 16 -11 7 -12 -12 -48 -17 -48 -7 0 3 7 21 14 40
17 41 47 46 70 13 17 -24 25 -21 31 11 4 20 0 21 -78 20 -45 0 -76 -3 -69 -6z"/>
<path d="M11030 6168 c0 -114 17 -107 22 10 2 61 0 82 -9 82 -10 0 -13 -25
-13 -92z"/>
<path d="M11885 6250 c3 -5 1 -10 -4 -10 -6 0 -11 -6 -11 -12 0 -7 -32 -50
-70 -95 l-70 -83 30 0 c25 0 30 4 30 23 0 29 18 47 47 47 18 0 23 -6 23 -25 0
-13 -8 -29 -17 -34 -14 -8 -7 -10 31 -11 42 0 47 2 33 13 -15 11 -16 21 -7 87
13 101 12 110 -6 110 -8 0 -12 -4 -9 -10z m-15 -73 c0 -7 -6 -21 -13 -32 -19
-26 -30 -3 -11 23 17 25 24 28 24 9z"/>
<path d="M11998 6230 c-86 -71 -63 -179 37 -180 32 0 75 24 75 41 0 5 -13 0
-28 -11 -31 -23 -71 -20 -93 6 -18 21 -13 84 8 113 45 60 93 64 120 10 12 -24
15 -21 26 29 5 21 2 22 -52 22 -48 0 -62 -4 -93 -30z"/>
<path d="M13009 6252 c11 -8 11 -19 2 -62 -12 -58 -39 -121 -55 -132 -17 -12
97 -9 131 3 36 12 48 48 26 78 -12 18 -11 21 7 31 22 12 27 52 8 68 -7 5 -40
13 -73 16 -37 4 -55 3 -46 -2z m95 -28 c8 -21 -9 -51 -35 -59 -28 -9 -31 -3
-24 39 6 29 12 36 30 36 13 0 26 -7 29 -16z m-24 -94 c14 -27 -2 -56 -36 -64
-36 -9 -39 -3 -25 44 13 45 43 54 61 20z"/>
<path d="M13223 6240 c-58 -35 -84 -99 -62 -149 20 -46 107 -58 150 -21 28 23
13 27 -19 4 -51 -36 -119 10 -106 73 8 41 52 92 84 97 34 5 60 -11 60 -36 0
-27 15 -13 23 22 6 25 5 26 -46 28 -37 1 -61 -4 -84 -18z"/>
<path d="M14164 6160 c-2 -112 -9 -133 -39 -126 -14 4 -25 2 -25 -3 0 -5 12
-12 27 -16 38 -9 59 23 67 104 10 106 8 121 -11 121 -16 0 -18 -11 -19 -80z"/>
<path d="M5493 6218 c-6 -7 -13 -21 -16 -30 -4 -10 -25 -25 -47 -34 -48 -19
-46 -32 2 -15 37 13 88 58 88 78 0 16 -15 17 -27 1z"/>
<path d="M1985 6208 c-6 -20 -1 -78 7 -78 17 0 28 39 18 64 -10 28 -18 33 -25
14z"/>
<path d="M3807 6184 c-3 -3 -60 -6 -126 -5 -72 0 -121 -4 -121 -9 0 -6 58 -10
145 -10 124 0 144 2 139 15 -6 15 -26 20 -37 9z"/>
<path d="M8033 6183 c-18 -6 -16 -50 1 -56 27 -10 56 4 56 28 0 29 -26 41 -57
28z m37 -28 c0 -8 -6 -15 -14 -15 -17 0 -28 14 -19 24 12 12 33 6 33 -9z"/>
<path d="M4700 6171 c-89 -6 -101 -17 -15 -15 28 1 69 2 93 3 26 1 41 5 37 11
-3 6 -12 9 -18 8 -7 -1 -50 -4 -97 -7z"/>
<path d="M7130 6170 c0 -6 32 -10 75 -10 43 0 75 4 75 10 0 6 -32 10 -75 10
-43 0 -75 -4 -75 -10z"/>
<path d="M8495 6160 l-40 -7 53 -2 c33 0 51 3 47 9 -3 6 -9 9 -13 9 -4 -1 -25
-5 -47 -9z"/>
<path d="M8638 6162 c-32 -2 -58 -7 -58 -11 0 -5 11 -24 24 -44 l25 -36 -29
-21 c-15 -11 -33 -20 -39 -20 -6 0 -11 -4 -11 -9 0 -11 57 5 78 22 8 7 25 4
52 -8 23 -10 46 -15 57 -10 14 5 7 10 -29 21 l-47 14 25 47 c13 26 21 49 17
52 -5 3 -34 5 -65 3z m42 -20 c0 -12 -30 -52 -40 -52 -5 0 -12 10 -16 23 -4
12 -12 25 -18 29 -6 4 8 8 32 8 23 0 42 -3 42 -8z"/>
<path d="M14090 6167 c0 -5 8 -22 17 -38 17 -29 33 -38 33 -20 0 12 -49 69
-50 58z"/>
<path d="M5465 6095 c-27 -29 -57 -55 -65 -57 -8 -3 -13 -8 -10 -11 11 -12 93
38 116 72 47 70 27 68 -41 -4z"/>
<path d="M7130 6120 c0 -6 32 -10 75 -10 43 0 75 4 75 10 0 6 -32 10 -75 10
-43 0 -75 -4 -75 -10z"/>
<path d="M8460 6078 c0 -26 5 -50 10 -53 6 -3 10 -1 10 4 0 6 17 11 38 11 l38
0 -1 41 -1 41 -47 2 -47 2 0 -48z m70 2 c0 -25 -4 -30 -25 -30 -27 0 -35 26
-13 48 21 21 38 13 38 -18z"/>
<path d="M641 6106 c-11 -13 -11 -20 -3 -28 8 -8 13 -7 18 5 10 27 0 41 -15
23z"/>
<path d="M3335 6088 c9 -40 12 -45 25 -32 7 7 6 19 -2 37 -18 37 -31 34 -23
-5z"/>
<path d="M3296 6081 c-18 -35 -19 -41 -7 -41 11 0 36 59 28 66 -3 3 -13 -8
-21 -25z"/>
<path d="M11328 6104 c-8 -13 9 -54 22 -54 5 0 10 6 10 13 0 19 -26 52 -32 41z"/>
<path d="M11370 6102 c0 -12 28 -48 33 -42 8 8 -11 50 -23 50 -5 0 -10 -4 -10
-8z"/>
<path d="M11284 6078 c3 -13 6 -30 6 -37 0 -11 3 -12 11 -4 12 12 2 63 -13 63
-6 0 -8 -10 -4 -22z"/>
<path d="M11243 6070 c-3 -11 -9 -20 -14 -20 -5 0 -9 -4 -9 -10 0 -20 27 -9
38 15 15 32 15 35 1 35 -6 0 -13 -9 -16 -20z"/>
<path d="M4824 6070 c-5 -5 -63 -11 -129 -13 l-120 -3 144 -2 c126 -2 142 0
131 13 -15 18 -13 18 -26 5z"/>
<path d="M14261 6048 c-9 -14 -9 -24 -2 -31 7 -7 12 -1 17 17 8 34 2 41 -15
14z"/>
<path d="M14300 6051 c0 -11 5 -23 10 -26 6 -4 10 5 10 19 0 14 -4 26 -10 26
-5 0 -10 -9 -10 -19z"/>
<path d="M14338 6043 l6 -28 6 25 c6 24 6 24 18 5 l13 -20 -3 20 c-2 11 -12
21 -24 23 -19 3 -21 -1 -16 -25z"/>
<path d="M1220 5810 c-7 -28 -16 -53 -21 -56 -14 -8 -11 -34 4 -31 8 1 12 -16
13 -58 2 -80 2 -85 14 -85 6 0 8 34 6 88 -2 48 -1 101 1 118 5 30 7 32 43 27
22 -3 40 -1 44 6 5 7 -6 11 -33 11 -32 0 -39 3 -35 15 4 9 0 15 -9 15 -10 0
-19 -17 -27 -50z"/>
<path d="M1339 5838 c-1 -13 -1 -28 0 -35 1 -6 -13 -13 -31 -15 -31 -3 -33 -5
-36 -46 l-3 -43 35 4 c37 4 41 1 30 -27 -8 -20 -24 -21 -24 -1 0 16 -16 20
-24 6 -3 -5 1 -14 9 -21 24 -20 18 -39 -17 -54 -25 -11 -28 -15 -13 -15 11 -1
31 6 44 15 21 15 27 15 77 -1 30 -9 62 -14 72 -10 12 5 -2 12 -45 23 -53 13
-63 19 -62 36 1 40 13 51 53 51 38 0 38 0 40 43 2 40 1 42 -25 42 -34 0 -46
-16 -19 -23 12 -3 20 -14 20 -26 0 -17 -6 -21 -30 -21 -28 0 -29 1 -26 48 l3
47 47 -2 c34 -2 46 1 43 10 -2 8 -20 11 -50 9 -40 -3 -46 -1 -41 12 4 11 1 16
-10 16 -10 0 -16 -9 -17 -22z m1 -90 c0 -21 -5 -28 -20 -28 -15 0 -20 7 -20
28 0 21 5 28 20 28 15 0 20 -7 20 -28z"/>
<path d="M1579 5838 c-7 -13 -18 -27 -25 -31 -8 -4 -14 -12 -14 -18 0 -17 37
9 60 41 17 24 18 30 6 30 -8 0 -21 -10 -27 -22z"/>
<path d="M1659 5845 c-5 -62 -2 -89 10 -93 10 -3 13 2 9 22 -5 25 -3 26 39 26
31 0 43 -4 40 -12 -2 -7 -13 -12 -23 -11 -10 1 -26 0 -34 -3 -12 -5 -11 -8 5
-14 11 -5 32 -9 47 -9 25 -1 26 1 26 52 l-1 52 -58 0 c-33 0 -59 -4 -60 -10z
m99 -17 c-3 -7 -21 -14 -41 -16 -28 -2 -37 1 -37 12 0 12 11 16 41 16 28 0 39
-4 37 -12z"/>
<path d="M3355 5833 c-7 -28 -7 -28 -18 -5 -5 12 -14 22 -19 22 -12 0 -10 -18
5 -27 8 -5 2 -10 -18 -14 -30 -7 -30 -7 6 -8 l37 -1 -10 -42 c-9 -43 -41 -109
-67 -140 -8 -10 -10 -18 -4 -18 12 0 35 26 53 63 7 15 20 27 29 28 9 0 49 2
89 3 l72 2 0 -29 c0 -43 -15 -65 -43 -60 -16 3 -23 12 -25 30 -2 28 -9 43 -21
43 -4 0 -6 -14 -3 -30 4 -29 46 -70 71 -70 17 0 38 42 44 88 4 36 3 42 -14 42
-15 0 -19 7 -19 31 0 26 -3 29 -20 24 -22 -7 -26 5 -8 23 18 18 2 26 -48 23
-43 -2 -44 -1 -38 24 4 18 2 25 -9 25 -8 0 -18 -12 -22 -27z m85 -58 c0 -22
-4 -25 -35 -25 -19 0 -35 4 -35 9 0 27 15 41 41 41 24 0 29 -4 29 -25z m38
-52 c3 -10 -15 -13 -67 -13 -59 0 -69 2 -64 15 4 12 19 15 66 13 37 -2 62 -8
65 -15z"/>
<path d="M4460 5850 c-12 -8 -12 -10 3 -16 9 -3 17 -13 17 -21 0 -13 -10 -15
-59 -10 l-58 5 0 -114 c0 -79 4 -114 12 -114 8 0 11 31 11 103 l-1 102 39 3
c21 2 42 0 47 -5 4 -4 -10 -32 -32 -61 -22 -28 -36 -52 -32 -52 14 0 73 58 73
72 1 9 5 7 14 -5 7 -9 22 -28 32 -42 10 -14 24 -25 31 -25 20 0 15 18 -8 30
-17 10 -49 64 -49 85 0 3 20 5 45 5 l45 0 0 -90 0 -90 -32 0 c-30 0 -31 -1
-12 -15 25 -19 50 -19 58 1 3 9 6 63 6 122 0 82 -3 103 -12 94 -7 -7 -31 -12
-54 -12 -39 0 -43 2 -46 27 -3 30 -16 37 -38 23z"/>
<path d="M4749 5845 c-1 -8 -3 -19 -4 -25 -1 -5 -3 -15 -4 -21 0 -6 -8 -9 -16
-5 -8 3 -15 2 -15 -3 0 -5 9 -11 20 -14 15 -4 19 -11 16 -29 -3 -12 -5 -29 -5
-35 -1 -7 -8 -13 -16 -13 -8 0 -15 -5 -15 -11 0 -6 7 -9 15 -5 12 4 15 -4 15
-39 0 -36 -4 -45 -17 -45 -15 0 -14 -2 3 -14 27 -21 37 -6 38 61 1 46 5 58 19
61 9 2 17 -1 17 -7 0 -6 8 -11 19 -11 14 0 17 -6 13 -25 -3 -19 1 -27 18 -33
26 -10 14 -23 -35 -40 -22 -8 -24 -11 -10 -11 11 -1 33 6 49 14 37 19 61 19
92 -1 13 -9 28 -13 32 -10 8 9 -26 36 -45 36 -14 0 -16 13 -7 48 4 15 14 22
30 22 13 0 24 5 24 11 0 6 -9 9 -20 6 -10 -3 -22 0 -25 7 -3 8 -7 8 -11 -1 -3
-7 -17 -13 -31 -13 -19 0 -24 4 -19 16 3 9 6 18 6 20 0 2 23 4 50 4 38 0 50 4
50 15 0 18 -12 19 -28 3 -18 -18 -24 -4 -11 26 7 14 19 26 27 26 9 0 12 3 8 8
-4 4 -22 7 -39 7 -18 0 -32 4 -32 8 0 9 -25 27 -38 27 -5 0 -5 -9 -2 -20 5
-17 2 -20 -27 -20 -32 0 -32 0 -10 -16 31 -22 29 -52 -5 -57 l-28 -4 28 -2
c20 -1 27 -6 27 -21 0 -13 -7 -20 -20 -20 -12 0 -20 7 -20 16 0 12 -6 15 -23
10 -21 -5 -23 -3 -19 24 3 22 10 30 24 30 11 0 18 5 15 13 -2 6 -14 11 -25 9
-20 -3 -21 -1 -12 23 13 34 13 35 -5 35 -8 0 -16 -7 -16 -15z m174 -52 c-8
-24 -23 -43 -33 -43 -5 0 -15 14 -24 30 l-14 30 38 0 c33 0 38 -3 33 -17z
m-15 -119 c-4 -24 -35 -41 -48 -28 -17 17 0 44 27 44 17 0 24 -5 21 -16z"/>
<path d="M5450 5857 c0 -14 24 -57 32 -57 15 0 8 27 -12 45 -11 10 -20 15 -20
12z"/>
<path d="M5574 5847 c-3 -9 -14 -12 -28 -10 -21 4 -23 2 -20 -29 6 -44 -13
-88 -37 -88 -18 0 -19 2 -5 29 9 16 13 30 11 33 -8 8 -75 -4 -70 -13 3 -4 12
-6 20 -3 11 5 13 -2 8 -30 -5 -32 -4 -36 12 -30 16 6 17 3 11 -22 -4 -16 -19
-41 -33 -56 -30 -32 -24 -47 11 -29 18 10 28 10 45 1 23 -12 187 -17 198 -6 4
3 -9 6 -27 6 -31 0 -32 1 -17 18 30 33 21 50 -25 55 -37 3 -35 4 15 5 33 1 56
6 52 11 -3 5 -21 7 -41 4 -25 -4 -39 -2 -46 8 -7 11 -11 11 -15 2 -2 -7 -19
-12 -36 -12 -22 1 -25 3 -12 6 11 3 28 12 38 21 17 15 19 15 28 -1 6 -10 21
-16 37 -16 24 2 24 2 5 6 -31 6 -29 23 2 23 14 0 25 -5 25 -11 0 -5 5 -7 10
-4 23 14 7 25 -37 26 -45 2 -46 2 -13 8 34 6 35 8 38 54 3 44 -8 61 -23 37 -3
-5 -20 -10 -36 -10 -17 0 -28 4 -24 9 3 5 1 12 -5 16 -6 3 -13 0 -16 -8z m36
-37 l-45 -7 43 -1 c30 -2 42 -6 42 -17 0 -15 -16 -19 -54 -15 -13 1 -17 -3
-13 -14 5 -12 0 -16 -21 -15 -15 0 -21 3 -14 6 6 2 12 11 12 19 0 9 13 15 38
16 l37 1 -37 4 c-25 3 -38 9 -38 19 0 10 12 14 48 12 l47 -1 -45 -7z m-45 -90
c-3 -5 -12 -10 -19 -10 -8 0 -19 -7 -26 -15 -11 -13 -8 -15 14 -15 32 0 34
-19 3 -49 -28 -25 -61 -19 -52 10 3 11 8 29 11 41 4 13 14 28 23 35 19 15 55
17 46 3z m70 -80 c0 -10 -8 -14 -25 -12 -24 4 -25 3 -5 -12 19 -14 17 -15 -30
-15 l-50 0 33 30 c35 32 77 36 77 9z"/>
<path d="M3990 5713 c0 -104 3 -133 13 -133 8 0 17 3 21 7 10 11 196 12 196 1
0 -4 7 -8 15 -8 12 0 15 19 16 103 1 56 3 116 5 132 l3 30 -134 0 -135 0 0
-132z m231 105 c3 -46 -2 -203 -7 -207 -13 -13 -21 26 -18 90 2 39 -1 69 -7
69 -5 0 -7 11 -3 25 6 25 5 25 -59 25 l-64 0 -7 -37 c-14 -88 -2 -179 17 -130
4 9 6 9 6 -1 1 -7 -7 -16 -16 -19 -10 -4 -21 -11 -24 -16 -4 -5 -12 -6 -18 -3
-14 9 -15 96 0 96 5 0 7 6 3 12 -15 23 -16 91 -2 99 22 14 198 11 199 -3z
m-61 -20 c0 -4 -18 -8 -41 -8 -22 0 -38 3 -36 8 7 10 77 11 77 0z m18 -36 c2
-8 -13 -12 -52 -12 -50 0 -66 7 -51 22 10 10 99 2 103 -10z m-20 -29 c-15 -2
-42 -2 -60 0 -18 2 -6 4 27 4 33 0 48 -2 33 -4z m18 -26 c4 -4 -18 -7 -49 -7
-31 0 -57 4 -57 8 0 10 96 9 106 -1z m-1 -27 c-3 -5 -28 -10 -56 -10 -27 0
-49 5 -49 10 0 6 25 10 56 10 34 0 53 -4 49 -10z m-30 -30 c4 -6 11 -7 17 -4
6 4 8 2 4 -4 -3 -6 2 -15 11 -21 14 -8 -1 -10 -57 -10 -72 0 -74 0 -44 13 18
8 35 19 38 25 9 14 23 14 31 1z"/>
<path d="M5880 5839 c-19 -5 -47 -6 -62 -3 -17 3 -28 1 -28 -5 0 -6 7 -11 15
-11 11 0 15 -11 15 -40 0 -33 -3 -40 -20 -40 -11 0 -20 -5 -20 -11 0 -6 9 -8
22 -4 20 7 21 5 15 -39 -4 -25 -14 -60 -22 -76 -9 -17 -11 -30 -5 -30 18 0 39
44 46 98 5 41 10 52 25 52 21 0 34 -16 19 -25 -6 -4 -7 -11 -3 -17 8 -15 8
-76 0 -85 -29 -28 38 -31 92 -4 53 28 114 111 81 111 -5 0 -10 -4 -10 -9 0
-24 -100 -111 -127 -111 -4 0 -7 26 -7 58 3 83 2 82 25 82 11 0 17 4 14 10 -4
6 -15 8 -26 5 -18 -6 -20 -2 -17 37 3 35 7 42 22 40 11 -2 16 2 14 9 -6 17
-16 18 -58 8z m4 -36 c-10 -71 -44 -89 -44 -23 0 35 3 40 23 40 17 0 23 -5 21
-17z"/>
<path d="M5998 5829 c-10 -10 -15 -19 -10 -19 4 -1 -8 -7 -27 -16 -41 -17 -36
-29 5 -14 31 12 74 48 74 62 0 14 -24 7 -42 -13z"/>
<path d="M6830 5834 c0 -12 -7 -15 -30 -12 -17 3 -33 1 -36 -4 -3 -4 11 -8 30
-8 25 0 36 -4 36 -15 0 -8 7 -15 16 -15 10 0 14 6 10 15 -4 11 2 15 20 15 15
0 23 4 19 10 -4 6 -15 8 -26 5 -13 -4 -19 -2 -19 9 0 9 -4 16 -10 16 -5 0 -10
-7 -10 -16z"/>
<path d="M6940 5836 c0 -8 -8 -17 -17 -19 -16 -4 -16 -5 1 -6 12 -1 16 -6 12
-16 -3 -9 0 -15 9 -15 8 0 15 7 15 15 0 11 12 15 46 15 41 0 45 2 34 15 -9 11
-16 13 -24 5 -5 -5 -21 -10 -34 -10 -21 0 -22 2 -12 15 10 13 9 15 -9 15 -11
0 -21 -6 -21 -14z"/>
<path d="M2284 5779 c-27 -34 -64 -78 -81 -99 -38 -43 -41 -56 -13 -56 11 0
20 7 20 16 0 28 30 60 56 60 31 0 41 -25 20 -49 -23 -26 -20 -31 19 -31 32 0
48 14 25 22 -6 2 -7 36 -1 98 5 52 8 96 7 97 -1 2 -25 -25 -52 -58z m16 -39
c0 -25 -4 -30 -25 -30 l-26 0 23 30 c12 17 23 30 25 30 2 0 3 -13 3 -30z"/>
<path d="M5079 5760 c-1 -41 -3 -91 -4 -110 -1 -42 3 -53 18 -43 6 3 57 5 114
4 104 -3 141 7 126 32 -12 19 -11 52 1 59 8 6 8 8 0 8 -12 0 -12 75 -1 87 4 3
7 13 7 22 0 14 -18 16 -130 16 l-130 0 -1 -75z m75 13 c-2 -27 -14 -61 -25
-77 -13 -16 -16 -27 -8 -24 25 8 51 56 56 102 5 40 9 46 29 46 22 0 24 -4 24
-43 0 -24 -5 -48 -12 -55 -9 -9 -9 -12 0 -12 7 0 12 -6 12 -14 0 -10 13 -16
38 -18 32 -3 37 -6 37 -27 0 -24 -1 -24 -95 -22 -52 1 -101 7 -108 13 -9 8
-12 25 -8 52 3 23 5 60 5 84 1 40 3 42 30 42 29 0 30 -1 25 -47z m153 -15 c-2
-59 -3 -61 -29 -65 l-28 -4 0 66 0 65 29 0 29 0 -1 -62z"/>
<path d="M2426 5824 c16 -7 -22 -153 -46 -179 -19 -21 -19 -21 42 -18 35 1 71
9 85 19 22 14 25 22 20 53 -3 23 1 44 9 56 34 47 6 76 -73 74 -26 0 -43 -3
-37 -5z m88 -26 c12 -21 -17 -58 -46 -58 -20 0 -23 16 -8 55 11 29 36 31 54 3z
m-36 -74 c44 -12 15 -84 -35 -84 -27 0 -27 0 -11 51 12 42 12 42 46 33z"/>
<path d="M2617 5824 c12 -5 5 -38 -23 -101 -8 -17 -14 -39 -14 -49 0 -9 -8
-26 -17 -37 -18 -20 -17 -20 22 -14 22 4 59 7 81 7 34 0 45 5 59 26 23 36 10
43 -23 11 -19 -18 -39 -27 -60 -27 -30 0 -32 2 -26 28 15 62 38 80 53 40 8
-22 8 -22 14 -3 3 11 9 31 13 45 6 24 6 24 -13 8 -33 -30 -46 -23 -38 20 4 20
8 39 10 41 8 7 75 -10 75 -19 0 -6 5 -10 10 -10 6 0 10 9 10 20 0 18 -6 20
-72 19 -40 0 -68 -3 -61 -5z"/>
<path d="M2802 5824 c15 -5 15 -9 2 -39 -8 -19 -19 -58 -25 -87 -7 -29 -19
-58 -28 -65 -13 -10 -5 -11 44 -8 33 2 68 4 79 5 10 0 33 15 52 34 30 30 34
41 34 84 0 65 -14 76 -104 79 -39 1 -63 0 -54 -3z m93 -16 c14 -6 26 -20 26
-32 5 -64 2 -73 -27 -103 -34 -35 -80 -44 -90 -19 -6 17 45 166 57 166 4 0 20
-5 34 -12z"/>
<path d="M7559 5797 c-14 -17 -48 -61 -74 -97 -27 -36 -54 -68 -60 -72 -5 -4
4 -8 20 -8 24 0 31 5 32 21 3 30 22 49 49 49 20 0 24 -5 24 -29 0 -16 -6 -32
-12 -34 -7 -3 1 -6 17 -6 30 -1 30 -1 29 51 -1 29 2 77 6 106 3 28 4 52 1 52
-3 0 -18 -15 -32 -33z m1 -72 c0 -20 -5 -25 -25 -25 l-25 0 22 25 c12 14 23
25 25 25 2 0 3 -11 3 -25z"/>
<path d="M7679 5816 c9 -11 9 -25 1 -58 -21 -79 -34 -113 -49 -125 -17 -15
-16 -15 64 -13 47 1 64 5 78 22 19 23 23 63 6 73 -7 5 -6 12 4 23 43 51 23 82
-57 88 -50 4 -57 2 -47 -10z m91 -28 c0 -27 -27 -58 -52 -58 -15 0 -18 5 -13
23 4 12 9 30 11 40 3 10 15 17 30 17 18 0 24 -5 24 -22z m-26 -74 c23 -9 19
-50 -6 -68 -49 -35 -71 -12 -48 48 10 26 24 31 54 20z"/>
<path d="M8210 5822 c-58 -26 -85 -73 -77 -137 6 -56 14 -66 55 -67 45 -1 62
17 62 66 0 47 -13 66 -47 66 -13 0 -23 3 -23 8 0 15 32 52 45 52 8 0 17 5 20
10 7 11 -12 12 -35 2z m10 -122 c9 -31 -5 -70 -23 -70 -19 0 -46 57 -39 82 7
29 54 20 62 -12z"/>
<path d="M8354 5820 c-40 -16 -64 -59 -64 -114 0 -63 20 -95 55 -91 40 4 65
33 65 76 0 44 -25 65 -66 55 -19 -5 -22 -3 -17 11 10 29 35 53 54 53 10 0 21
5 24 10 7 12 -22 12 -51 0z m11 -140 c0 -38 -3 -45 -20 -45 -21 0 -34 35 -27
73 3 17 10 22 26 20 18 -3 21 -10 21 -48z"/>
<path d="M8466 5817 c-10 -7 -21 -29 -25 -47 -8 -41 3 -126 20 -146 17 -20 53
-17 74 6 19 21 31 103 21 144 -12 50 -53 70 -90 43z m58 -23 c12 -30 6 -130
-8 -150 -14 -18 -15 -18 -33 -1 -14 14 -18 32 -17 81 1 35 5 69 8 75 11 16 43
13 50 -5z"/>
<path d="M9968 5756 c-26 -39 -62 -88 -81 -108 l-35 -38 30 0 c17 0 27 4 23
10 -10 16 28 59 53 60 16 0 22 -6 22 -23 0 -13 -5 -28 -12 -35 -9 -9 -2 -12
33 -11 24 1 35 4 25 6 -17 5 -18 12 -12 96 3 50 11 94 17 98 7 4 6 8 -3 11 -9
4 -30 -20 -60 -66z m20 -42 c-2 -10 -11 -18 -21 -20 -16 -2 -16 -1 0 27 17 29
28 26 21 -7z"/>
<path d="M11850 5820 c0 -6 11 -8 25 -4 24 6 25 5 25 -50 0 -31 -4 -56 -9 -56
-5 0 -12 -16 -15 -35 -4 -20 -21 -51 -38 -70 -18 -21 -25 -35 -17 -35 20 0 89
98 89 126 0 13 5 24 10 24 6 0 10 -6 10 -14 0 -7 9 -25 20 -39 11 -14 20 -30
20 -36 0 -12 -72 -51 -95 -51 -8 0 -15 -4 -15 -10 0 -14 6 -13 72 17 l59 26
45 -21 c54 -27 83 -30 64 -7 -7 8 -20 15 -29 15 -10 0 -26 6 -37 14 -19 15
-18 16 9 64 34 63 34 74 0 66 -25 -7 -26 -5 -20 22 3 16 9 37 12 47 7 15 -2
17 -89 17 -59 0 -96 -4 -96 -10z m160 -9 c0 -3 -5 -20 -12 -38 -10 -28 -17
-33 -45 -33 -31 0 -33 2 -33 34 0 19 6 36 13 39 15 5 77 3 77 -2z m30 -90 c0
-6 -10 -26 -21 -46 -18 -29 -24 -33 -36 -23 -14 11 -43 61 -43 73 0 3 23 5 50
5 28 0 50 -4 50 -9z"/>
<path d="M10109 5811 c12 -8 10 -22 -8 -92 -12 -48 -29 -90 -38 -97 -16 -12
-7 -13 58 -10 62 3 80 8 106 28 59 47 68 100 27 149 -24 29 -30 31 -92 31 -43
0 -62 -4 -53 -9z m109 -17 c31 -22 30 -77 -4 -126 -23 -33 -32 -38 -66 -38
l-39 0 7 38 c4 20 15 56 25 79 11 23 19 47 19 52 0 16 32 13 58 -5z"/>
<path d="M10632 5795 c-20 -43 -15 -60 22 -73 37 -14 51 -44 35 -75 -9 -15
-18 -18 -45 -14 -25 4 -34 2 -34 -9 0 -24 58 -17 85 11 37 36 33 78 -10 111
-41 31 -41 49 0 49 16 1 30 6 33 13 2 8 -9 12 -36 12 -32 0 -41 -4 -50 -25z"/>
<path d="M10760 5799 c-12 -22 -4 -42 8 -21 5 6 25 14 46 17 l37 6 -7 -38 c-4
-21 -15 -60 -25 -88 -23 -60 -23 -65 -5 -65 9 0 19 20 26 53 7 28 16 59 20 67
4 8 10 32 14 53 l7 37 -55 0 c-46 0 -57 -4 -66 -21z"/>
<path d="M10926 5804 c-9 -8 -16 -20 -16 -25 0 -15 17 -10 24 6 8 22 43 18 56
-5 16 -30 3 -63 -41 -106 -56 -55 -52 -66 24 -62 57 3 62 5 65 27 4 22 3 23
-19 7 -13 -9 -34 -16 -47 -16 -19 0 -21 3 -12 19 5 11 23 33 40 49 53 53 35
121 -32 122 -15 0 -34 -7 -42 -16z"/>
<path d="M12541 5807 c14 -11 15 -16 4 -37 -7 -14 -18 -50 -25 -80 -8 -30 -20
-61 -29 -67 -17 -15 -15 -15 54 -13 67 2 80 6 100 36 16 24 15 27 -1 45 -17
18 -16 20 5 43 44 46 5 86 -82 86 -36 -1 -40 -3 -26 -13z m87 -39 c3 -22 -2
-30 -22 -40 -33 -15 -39 -8 -30 37 5 29 10 36 28 33 15 -2 22 -11 24 -30z
m-14 -80 c8 -13 8 -23 0 -35 -11 -18 -60 -41 -68 -32 -3 3 0 24 6 47 9 35 15
42 31 40 11 -2 25 -11 31 -20z"/>
<path d="M12727 5797 c5 -27 -33 -171 -47 -175 -29 -10 7 -17 73 -14 75 4 76
4 82 33 9 38 -1 50 -14 17 -11 -28 -29 -38 -72 -38 -33 0 -33 1 -18 53 8 30
14 37 36 37 18 0 24 -4 19 -15 -3 -8 -2 -15 3 -15 9 0 21 34 21 59 0 11 -5 10
-20 -4 -30 -27 -47 -7 -29 34 16 36 53 42 75 14 12 -16 13 -15 14 10 0 27 -1
27 -64 27 -60 0 -63 -1 -59 -23z"/>
<path d="M13210 5795 c-13 -14 -20 -28 -16 -32 4 -5 13 -1 19 8 22 28 46 30
62 5 20 -30 10 -58 -44 -115 -43 -45 -52 -68 -25 -57 9 3 38 6 65 6 36 0 51 4
56 15 7 21 -4 32 -19 17 -7 -7 -25 -12 -40 -12 -24 0 -27 3 -19 18 5 9 23 32
40 50 38 41 40 74 5 101 -35 27 -55 26 -84 -4z"/>
<path d="M13425 5813 c-50 -4 -75 -21 -75 -52 0 -11 5 -9 16 7 11 16 25 22 50
22 35 0 35 -1 29 -32 -4 -18 -15 -51 -25 -73 -32 -73 -34 -85 -11 -85 14 0 21
6 21 20 0 10 9 43 19 72 19 50 37 130 30 126 -2 -1 -26 -3 -54 -5z"/>
<path d="M13584 5813 c-24 -3 -35 -12 -48 -40 -9 -19 -16 -36 -14 -38 2 -1 17
-7 35 -14 35 -14 50 -50 33 -82 -9 -16 -17 -19 -47 -13 -28 5 -35 4 -31 -7 7
-23 52 -22 81 1 39 31 37 80 -3 113 -39 33 -39 57 -1 57 16 0 31 6 35 15 3 8
2 14 -2 13 -4 0 -21 -3 -38 -5z"/>
<path d="M1597 5803 c-4 -3 -7 -14 -7 -23 0 -9 -11 -29 -25 -44 -28 -31 -32
-41 -10 -33 11 5 15 -7 17 -56 2 -34 7 -62 13 -62 6 0 9 28 7 70 -2 55 1 78
17 110 12 21 21 41 21 42 0 6 -27 3 -33 -4z"/>
<path d="M6006 5754 c-15 -20 -39 -40 -52 -46 -13 -6 -24 -15 -24 -20 0 -5 19
1 43 13 61 31 93 68 69 83 -4 2 -21 -11 -36 -30z"/>
<path d="M6868 5758 c-12 -19 -23 -22 -61 -19 -30 1 -47 -2 -47 -9 0 -7 14 -9
40 -6 22 3 40 3 40 0 0 -13 -26 -51 -52 -78 -36 -35 -29 -46 9 -16 l28 22 3
-37 c3 -36 5 -37 34 -31 17 3 57 6 89 6 l59 0 0 48 0 47 -81 -4 c-80 -3 -80
-3 -67 18 14 23 14 23 115 23 57 1 70 3 66 15 -3 7 -13 11 -22 9 -17 -5 -72
-9 -110 -7 -18 1 -22 5 -18 21 7 27 -7 25 -25 -2z m120 -125 l3 -33 -70 0 -71
0 0 28 c0 16 3 32 7 36 4 4 34 6 68 4 60 -3 60 -3 63 -35z"/>
<path d="M8681 5749 c-30 -25 -34 -88 -8 -117 30 -33 98 -10 96 32 0 21 0 21
-16 -1 -20 -30 -39 -29 -59 2 -21 32 -12 75 17 75 11 0 22 -7 25 -15 8 -20 24
-19 24 1 0 17 -27 43 -45 43 -5 0 -21 -9 -34 -20z"/>
<path d="M8796 5750 c-14 -4 -16 -9 -8 -14 14 -9 16 -65 2 -100 -9 -25 -8 -26
27 -26 34 0 35 1 20 18 -10 10 -17 34 -17 54 0 27 5 37 24 46 13 6 27 8 30 5
11 -11 6 -99 -6 -111 -9 -9 -5 -12 21 -12 18 0 30 4 26 10 -3 5 -6 30 -7 56
-1 45 11 63 39 64 14 0 21 -53 12 -97 -7 -32 -6 -33 24 -33 24 0 28 3 19 12
-7 7 -12 35 -12 64 0 59 -15 79 -51 66 -26 -8 -100 -8 -115 0 -5 3 -18 2 -28
-2z"/>
<path d="M11278 5752 c-14 -3 -16 -8 -9 -21 11 -19 9 -90 -3 -109 -5 -8 2 -12
25 -12 26 0 29 2 20 14 -7 8 -11 34 -9 58 3 39 6 43 31 46 27 3 27 2 27 -52 0
-44 -4 -55 -17 -59 -10 -3 2 -5 27 -6 26 0 40 3 32 7 -14 10 -23 61 -15 91 3
12 14 21 25 21 18 0 19 -6 16 -60 l-3 -60 35 0 c20 0 30 4 23 8 -6 4 -13 34
-15 67 l-3 60 -80 0 c-44 0 -82 2 -85 5 -3 3 -13 4 -22 2z"/>
<path d="M3864 5740 c-5 -5 -63 -11 -129 -13 l-120 -3 143 -2 c120 -2 142 0
142 13 0 17 -21 20 -36 5z"/>
<path d="M6251 5736 c-28 -34 19 -62 59 -36 12 7 12 13 4 27 -14 24 -47 28
-63 9z m39 -22 c0 -8 -7 -14 -15 -14 -15 0 -21 21 -9 33 10 9 24 -2 24 -19z"/>
<path d="M11146 5728 c-32 -45 -8 -118 38 -118 24 0 73 44 59 53 -5 3 -17 -3
-26 -13 -23 -27 -45 -15 -53 27 -5 26 -2 39 10 51 16 16 18 16 27 0 6 -10 17
-18 25 -18 9 0 14 7 12 18 -2 12 -14 18 -40 20 -28 2 -40 -2 -52 -20z"/>
<path d="M13738 5737 c-35 -28 -22 -121 19 -132 30 -7 73 17 73 42 0 15 -1 15
-18 0 -25 -23 -37 -21 -55 6 -13 20 -13 27 0 58 l14 34 19 -22 c10 -13 21 -23
25 -23 3 0 5 10 3 23 -2 16 -10 23 -33 24 -16 2 -37 -3 -47 -10z"/>
<path d="M13855 5741 c-3 -5 -1 -12 5 -16 13 -8 5 -106 -9 -115 -6 -3 5 -6 24
-6 23 0 32 3 25 10 -16 16 -12 92 5 106 25 21 37 -2 34 -58 -4 -46 -2 -51 19
-55 21 -4 23 -1 21 32 -3 61 0 79 17 85 9 4 19 4 22 2 8 -9 10 -81 1 -97 -6
-13 -3 -18 14 -21 22 -4 23 -2 19 56 -5 72 -22 97 -53 78 -16 -10 -24 -11 -35
-1 -11 9 -21 9 -42 0 -18 -9 -28 -9 -30 -2 -4 13 -29 14 -37 2z"/>
<path d="M1700 5730 l-85 -6 70 -2 c50 -1 66 -5 58 -13 -6 -6 -36 -11 -67 -10
-34 0 -56 -4 -56 -10 0 -6 7 -9 15 -5 10 3 15 -1 15 -12 1 -19 27 -58 35 -51
7 8 -6 49 -16 49 -5 0 -9 3 -9 8 0 9 74 8 78 -2 1 -3 2 -19 2 -36 0 -26 -4
-30 -27 -31 -21 -1 -23 -2 -8 -6 11 -3 25 -9 32 -15 20 -16 29 16 32 115 1 10
9 17 22 17 11 0 17 5 14 10 -3 6 -9 9 -13 8 -4 -1 -45 -5 -92 -8z"/>
<path d="M7890 5730 c0 -6 33 -10 75 -10 41 0 75 4 75 8 0 5 -34 9 -75 10 -43
1 -75 -3 -75 -8z"/>
<path d="M9339 5716 c23 -25 61 -36 61 -17 0 14 -23 29 -55 37 l-30 7 24 -27z"/>
<path d="M14405 5724 c4 -11 7 -30 6 -44 l-1 -25 16 23 c19 28 15 56 -10 60
-15 3 -17 0 -11 -14z"/>
<path d="M10364 5722 c6 -10 142 -9 152 1 4 4 -30 7 -75 7 -45 0 -80 -4 -77
-8z"/>
<path d="M12940 5720 c0 -6 35 -10 85 -10 50 0 85 4 85 10 0 6 -35 10 -85 10
-50 0 -85 -4 -85 -10z"/>
<path d="M1787 5704 c-12 -13 -8 -20 14 -21 11 -1 19 3 17 9 -5 15 -22 21 -31
12z"/>
<path d="M7894 5678 c-2 -3 30 -8 71 -10 46 -2 75 1 75 7 0 11 -139 14 -146 3z"/>
<path d="M3381 5641 c-1 -34 2 -42 11 -33 8 8 8 20 1 44 l-11 33 -1 -44z"/>
<path d="M3468 5674 c-8 -7 13 -44 24 -44 12 0 10 14 -5 34 -7 9 -16 14 -19
10z"/>
<path d="M10355 5670 c-4 -6 25 -10 79 -10 51 0 86 4 86 10 0 6 -33 10 -79 10
-44 0 -83 -4 -86 -10z"/>
<path d="M12943 5668 c-5 -10 -12 -9 80 -11 42 -1 77 1 77 5 0 9 -151 15 -157
6z"/>
<path d="M3325 5634 c-20 -30 -10 -48 11 -20 13 18 19 46 10 46 -2 0 -11 -12
-21 -26z"/>
<path d="M1435 5409 c-2 -8 -6 -66 -7 -129 l-3 -115 -30 2 -30 2 34 -15 c19
-8 37 -12 42 -7 9 10 16 260 6 269 -3 4 -9 1 -12 -7z"/>
<path d="M1210 5312 c0 -72 3 -94 15 -98 12 -5 10 -12 -11 -40 -36 -46 -13
-43 25 3 22 26 39 37 58 38 l28 0 3 95 3 95 -61 0 -60 0 0 -93z m100 58 c0
-17 -7 -20 -40 -20 -33 0 -40 3 -40 20 0 17 7 20 40 20 33 0 40 -3 40 -20z
m-2 -56 c2 -16 -3 -23 -20 -26 -40 -7 -58 2 -58 28 0 23 3 25 38 22 29 -2 38
-8 40 -24z m2 -60 c0 -10 -13 -14 -40 -14 -27 0 -40 4 -40 13 0 21 6 23 45 19
21 -3 35 -10 35 -18z"/>
<path d="M1365 5295 c0 -57 4 -94 10 -92 15 5 20 42 17 117 -2 45 -8 70 -15
70 -8 0 -12 -29 -12 -95z"/>
<path d="M1764 5356 c-19 -19 -34 -43 -34 -53 0 -10 -5 -24 -11 -30 -11 -11 0
-37 30 -75 21 -26 102 -25 126 2 27 29 11 35 -23 10 -22 -16 -38 -21 -57 -16
-78 20 -33 186 50 186 22 0 55 -28 45 -38 -3 -3 0 -7 6 -9 7 -2 14 9 16 25 l4
29 -59 2 c-54 1 -61 -1 -93 -33z"/>
<path d="M1969 5382 c12 -9 12 -19 -3 -74 -24 -86 -38 -117 -56 -122 -8 -2 14
-4 48 -5 108 -2 167 45 164 128 -2 53 -30 74 -104 78 -43 3 -58 1 -49 -5z
m107 -24 c32 -24 19 -104 -23 -140 -26 -24 -83 -35 -83 -17 1 17 37 156 45
168 6 10 43 3 61 -11z"/>
<path d="M2214 5288 c-3 -4 31 -8 75 -8 45 0 81 4 81 8 0 10 -149 11 -156 0z"/>
<path d="M2213 5238 c-2 -5 32 -8 76 -8 45 0 81 3 81 8 0 9 -150 9 -157 0z"/>
<path d="M1306 5175 c16 -25 34 -33 34 -17 0 10 -33 42 -44 42 -3 0 1 -11 10
-25z"/>
<path d="M8998 4831 c11 -7 10 -24 -8 -92 -13 -46 -30 -90 -38 -96 -25 -20
107 -18 136 3 24 17 30 62 10 82 -10 10 -7 16 10 28 52 36 13 84 -69 84 -33 0
-49 -4 -41 -9z m85 -13 c23 -18 11 -57 -22 -70 l-26 -10 23 -9 c42 -16 20 -67
-37 -84 -23 -7 -24 -6 -18 35 3 24 11 46 17 50 6 4 10 11 9 16 -1 5 1 26 5 47
9 39 21 45 49 25z"/>
<path d="M2115 4568 c-15 -40 -36 -88 -46 -105 l-18 -33 27 0 c24 0 27 4 27
33 0 31 2 32 44 35 l44 3 -6 -35 -6 -36 40 0 40 0 -20 28 c-11 15 -32 62 -47
105 -14 42 -32 77 -39 77 -6 0 -24 -33 -40 -72z m65 -52 c0 -3 -14 -4 -30 -4
-23 1 -29 5 -25 15 3 8 8 26 11 39 6 24 7 24 25 -11 11 -19 19 -37 19 -39z"/>
<path d="M3043 4581 c-63 -87 -64 -91 -9 -91 44 0 46 -1 46 -29 0 -17 5 -33
10 -36 6 -4 10 7 10 25 0 19 6 33 16 37 15 6 15 7 0 19 -14 10 -17 24 -13 73
3 41 1 61 -7 60 -6 0 -30 -26 -53 -58z m37 -31 c0 -38 -2 -40 -30 -40 l-30 0
26 40 c15 22 28 40 30 40 2 0 4 -18 4 -40z"/>
<path d="M3169 4619 c-26 -26 -16 -39 12 -14 26 25 53 10 57 -32 2 -23 -7 -40
-42 -80 -26 -28 -46 -54 -46 -57 0 -3 27 -6 60 -6 50 0 61 3 70 21 14 25 6 36
-14 20 -8 -7 -26 -11 -40 -9 l-26 3 40 50 c22 28 40 59 40 71 0 50 -72 72
-111 33z"/>
<path d="M3330 4620 c-43 -43 -9 -128 45 -114 37 9 31 -10 -17 -51 -36 -31
-39 -36 -18 -30 14 4 40 22 59 40 63 62 51 175 -19 175 -17 0 -39 -9 -50 -20z
m70 -9 c15 -30 12 -81 -5 -88 -22 -8 -55 25 -55 57 0 46 40 67 60 31z"/>
<path d="M3561 4563 c-32 -27 -37 -73 -11 -106 26 -33 74 -37 90 -8 17 32 12
46 -8 28 -25 -22 -49 -21 -62 2 -14 27 -13 56 4 70 16 14 46 4 46 -15 0 -15
16 -19 23 -6 3 4 1 17 -4 30 -10 27 -48 29 -78 5z"/>
<path d="M3684 4573 c-7 -2 -9 -24 -6 -58 3 -35 0 -60 -8 -70 -11 -13 -7 -15
26 -15 22 0 34 4 28 8 -16 10 -16 76 1 98 22 30 38 5 34 -55 -4 -51 -4 -51 26
-51 22 0 26 3 16 9 -17 11 -22 68 -9 94 5 9 18 17 28 17 12 0 20 -7 21 -17 3
-36 1 -59 -5 -83 -6 -23 -4 -25 24 -26 30 -1 39 9 20 21 -5 3 -10 28 -10 54 0
26 -6 56 -14 66 -12 17 -17 18 -41 7 -21 -10 -31 -10 -41 -1 -11 9 -21 9 -38
1 -13 -6 -27 -7 -32 -2 -5 4 -14 6 -20 3z"/>
<path d="M4150 4526 c0 -29 28 -42 48 -22 20 20 8 46 -23 46 -20 0 -25 -5 -25
-24z m40 -1 c0 -8 -7 -15 -15 -15 -16 0 -20 12 -8 23 11 12 23 8 23 -8z"/>
<path d="M8996 4486 c-14 -19 -26 -38 -26 -43 0 -5 -14 -24 -31 -42 -17 -19
-35 -43 -40 -55 -5 -12 -23 -39 -39 -61 -17 -22 -49 -67 -72 -100 -23 -33 -59
-82 -80 -108 -21 -27 -38 -53 -38 -58 0 -5 -52 -80 -115 -168 -63 -88 -115
-164 -115 -169 0 -6 -13 -24 -30 -42 -16 -18 -30 -34 -30 -37 0 -3 -35 -55
-78 -117 -43 -61 -89 -128 -101 -148 -12 -21 -26 -38 -30 -38 -4 0 -14 -12
-22 -27 -7 -16 -49 -78 -91 -139 -43 -61 -78 -116 -78 -122 0 -6 -8 -16 -18
-21 -10 -5 -24 -22 -32 -37 -16 -30 -177 -266 -222 -325 -16 -20 -28 -39 -28
-44 0 -4 -39 -59 -87 -123 -47 -64 -100 -139 -117 -167 -17 -27 -56 -85 -86
-127 -30 -42 -73 -102 -95 -133 -22 -30 -50 -75 -63 -98 -13 -23 -31 -49 -40
-57 -9 -9 -26 -31 -36 -50 -11 -19 -40 -62 -65 -95 -25 -33 -64 -85 -86 -115
-23 -30 -55 -75 -71 -100 -33 -52 -114 -164 -191 -266 -29 -39 -53 -75 -53
-81 0 -6 -13 -25 -30 -43 -16 -18 -30 -35 -30 -39 0 -3 -25 -40 -56 -80 -75
-100 -104 -144 -104 -156 0 -7 114 -9 342 -6 568 7 653 8 2028 15 729 4 1460
9 1625 11 165 2 802 6 1415 10 613 4 1252 8 1420 10 168 2 450 4 628 5 244 1
322 4 322 13 0 14 -250 198 -295 217 -11 5 -60 39 -110 75 -121 88 -203 145
-210 145 -6 0 -25 14 -53 41 -9 9 -37 29 -62 44 -25 16 -106 71 -180 124 -74
53 -146 102 -160 108 -14 7 -70 45 -125 84 -55 39 -131 92 -170 117 -38 25
-113 78 -165 116 -52 39 -115 84 -140 100 -25 16 -56 37 -70 47 -14 10 -61 43
-105 74 -44 30 -106 72 -137 95 -32 22 -61 40 -65 40 -5 0 -21 14 -36 30 -16
17 -33 30 -38 30 -5 0 -35 18 -67 40 -131 93 -202 140 -209 140 -5 0 -13 8
-20 18 -6 11 -27 26 -47 36 -19 9 -55 31 -78 49 -24 18 -72 53 -108 77 -36 25
-78 55 -94 68 -17 13 -39 28 -51 32 -11 4 -41 23 -65 42 -53 40 -180 129 -255
178 -30 19 -110 76 -180 125 -69 50 -147 102 -172 116 -26 15 -49 32 -51 38
-2 6 -8 11 -12 11 -5 0 -38 20 -72 45 -100 72 -179 125 -186 125 -4 0 -20 12
-37 28 -16 15 -50 41 -76 57 -74 47 -150 99 -230 160 -40 30 -76 55 -80 55 -5
0 -79 51 -166 113 -87 62 -169 118 -183 125 -14 6 -70 45 -125 87 -55 41 -137
98 -182 126 -46 29 -83 56 -83 61 0 5 -10 12 -22 17 -13 5 -66 41 -119 80 -53
39 -106 71 -117 71 -11 0 -31 -15 -46 -34z m269 -144 c39 -29 84 -59 102 -67
18 -9 49 -31 69 -50 20 -19 40 -35 45 -35 4 0 78 -49 163 -110 85 -60 157
-110 160 -110 6 0 185 -126 272 -192 28 -21 54 -38 58 -38 4 0 26 -13 49 -30
23 -16 75 -53 116 -82 l75 -53 2 -135 c2 -74 6 -349 9 -610 3 -261 8 -547 10
-635 2 -88 7 -396 10 -685 4 -289 8 -544 10 -567 1 -24 0 -43 -4 -43 -110 -5
-580 -10 -1546 -14 -660 -3 -1460 -9 -1777 -12 -318 -4 -578 -4 -578 0 0 3 52
77 116 163 64 87 136 189 162 228 25 38 92 131 149 207 57 76 103 140 103 144
0 3 49 74 108 157 60 84 114 162 121 174 6 12 23 35 37 50 14 15 32 41 39 58
7 16 43 71 80 120 37 50 69 96 72 104 3 7 17 25 29 39 13 14 24 29 24 33 0 8
72 109 181 254 20 28 47 68 59 90 12 22 71 108 131 192 60 83 109 156 109 161
0 5 11 21 25 36 14 15 25 29 25 32 0 3 18 31 40 62 22 31 65 93 95 137 31 44
67 93 80 110 14 16 25 33 25 37 0 8 122 181 181 259 15 20 38 54 50 75 12 22
45 71 74 109 28 39 57 79 63 91 6 11 29 42 51 69 23 27 41 53 41 58 0 5 15 29
33 54 17 25 41 58 52 73 11 16 48 67 83 114 34 48 62 91 62 96 0 5 10 16 21
24 20 14 26 11 93 -38 39 -29 103 -76 141 -104z m1199 -828 c31 -20 56 -40 56
-44 0 -4 8 -10 18 -13 9 -2 69 -41 132 -86 63 -45 129 -89 147 -97 17 -9 34
-22 37 -30 3 -8 10 -14 16 -14 6 0 52 -30 103 -67 131 -95 173 -123 185 -123
5 0 12 -6 15 -14 3 -8 27 -27 54 -42 47 -27 101 -65 254 -176 43 -32 82 -58
87 -58 5 0 48 -28 95 -62 132 -97 188 -136 243 -171 49 -30 125 -83 260 -181
34 -24 71 -47 83 -51 12 -3 26 -15 31 -26 6 -10 15 -19 20 -19 10 0 75 -43
180 -120 30 -22 61 -43 69 -47 7 -3 24 -16 36 -27 13 -12 36 -28 52 -36 15 -8
69 -44 118 -81 50 -37 169 -120 265 -184 96 -65 198 -135 225 -155 28 -20 57
-39 65 -42 13 -5 165 -110 195 -135 38 -32 114 -83 123 -83 5 0 29 -18 53 -40
24 -22 47 -40 52 -40 4 0 33 -18 65 -40 139 -98 171 -120 180 -120 5 0 21 -12
35 -26 15 -15 40 -34 57 -43 31 -17 140 -94 137 -97 -1 -1 -492 -5 -1092 -9
-599 -4 -1220 -9 -1380 -10 -612 -6 -1286 -7 -1291 -2 -6 5 -10 220 -19 832
-3 237 -7 538 -10 670 -2 132 -7 440 -11 685 -3 245 -8 448 -11 453 -10 16 18
5 71 -29z"/>
<path d="M2292 4448 c2 -13 8 -23 13 -23 6 0 11 10 13 23 2 15 -2 22 -13 22
-11 0 -15 -7 -13 -22z"/>
<path d="M10400 3899 c0 -4 4 -10 9 -13 13 -8 -27 -159 -46 -173 -14 -11 -2
-13 65 -13 80 0 83 1 93 26 13 36 4 42 -19 14 -13 -16 -31 -24 -55 -25 -32 -2
-37 1 -36 19 1 53 41 86 54 45 8 -24 25 -25 25 -1 0 9 3 27 6 40 6 22 6 22
-24 5 -37 -21 -47 -14 -35 24 12 35 66 45 89 16 12 -16 13 -15 14 14 l0 32
-70 -1 c-38 -1 -70 -5 -70 -9z"/>
<path d="M3197 3835 c-12 -8 -14 -14 -6 -17 17 -6 15 -168 -3 -179 -8 -5 5 -8
32 -8 25 1 37 3 28 6 -16 4 -18 18 -18 103 0 54 -3 101 -8 104 -4 2 -15 -2
-25 -9z"/>
<path d="M2063 3833 c14 -4 17 -17 17 -88 0 -74 -2 -84 -22 -99 -23 -17 -23
-17 11 -11 18 3 55 5 82 5 53 0 79 18 79 55 0 13 -8 28 -17 34 -15 8 -16 12
-5 22 18 19 15 53 -6 72 -14 13 -36 17 -88 16 -38 -1 -61 -3 -51 -6z m90 -12
c51 -20 37 -71 -20 -71 -20 0 -23 5 -23 40 0 42 4 45 43 31z m34 -108 c21 -27
0 -58 -41 -61 l-36 -3 0 46 0 47 33 -7 c17 -4 37 -14 44 -22z"/>
<path d="M2998 3815 c-13 -30 -3 -46 15 -22 6 9 27 20 45 23 27 6 32 4 32 -14
0 -11 -7 -35 -15 -55 -25 -61 -35 -117 -20 -117 7 0 16 15 20 33 4 17 16 59
26 91 28 86 27 86 -36 86 -49 0 -57 -3 -67 -25z"/>
<path d="M3331 3809 c-16 -47 -14 -59 12 -59 33 0 59 -32 55 -67 -3 -26 -6
-28 -45 -27 -30 0 -43 -3 -43 -13 0 -18 60 -17 88 3 44 30 17 134 -35 134 -7
0 -13 4 -13 9 0 16 30 33 49 28 12 -3 22 1 25 9 4 11 -5 14 -38 14 -40 0 -45
-3 -55 -31z"/>
<path d="M3725 3771 c-3 -5 -20 -7 -38 -4 l-32 5 3 -62 c3 -45 0 -65 -10 -71
-8 -6 3 -9 32 -9 28 0 40 3 32 9 -9 5 -12 25 -10 57 3 41 6 49 23 49 17 0 20
-7 22 -45 1 -24 -3 -50 -9 -57 -8 -10 -3 -13 23 -13 26 0 30 3 21 12 -13 13
-16 66 -6 92 3 9 17 16 30 16 22 0 24 -4 24 -54 0 -34 -5 -56 -12 -59 -7 -3 2
-6 20 -6 23 -1 31 3 26 11 -4 6 -8 32 -9 57 -1 25 -3 52 -4 60 -1 10 -12 12
-43 8 -23 -3 -50 -1 -59 4 -11 6 -20 5 -24 0z"/>
<path d="M3536 3755 c-36 -37 -8 -125 40 -125 24 0 64 31 64 50 0 15 -17 12
-24 -5 -9 -25 -44 -17 -60 13 -17 34 -5 72 24 72 11 0 20 -7 20 -15 0 -8 7
-15 16 -15 9 0 14 7 12 18 -4 24 -70 29 -92 7z"/>
<path d="M4150 3745 c-17 -21 -5 -45 24 -45 25 0 39 20 30 45 -8 19 -38 19
-54 0z m40 -21 c0 -16 -16 -19 -25 -4 -8 13 4 32 16 25 5 -4 9 -13 9 -21z"/>
<path d="M2280 3645 c0 -8 7 -15 15 -15 8 0 15 7 15 15 0 8 -7 15 -15 15 -8 0
-15 -7 -15 -15z"/>
<path d="M2090 3020 c-33 -35 -43 -83 -25 -127 16 -37 41 -53 88 -53 37 0 88
33 73 47 -5 4 -11 2 -13 -5 -9 -23 -54 -34 -85 -21 -52 21 -53 116 -2 156 l31
24 33 -31 c18 -17 34 -29 35 -28 2 2 1 17 -2 34 -5 29 -7 31 -55 33 -43 1 -53
-2 -78 -29z"/>
<path d="M3004 3025 c-9 -14 -13 -29 -9 -33 4 -4 10 -1 12 6 3 7 22 12 45 12
32 0 39 -3 34 -15 -3 -9 -13 -41 -22 -73 -9 -31 -20 -61 -25 -66 -13 -15 -11
-26 6 -26 9 0 24 33 45 99 16 54 30 103 30 110 0 7 -19 11 -50 11 -42 0 -52
-4 -66 -25z"/>
<path d="M3156 3028 c-20 -28 -9 -44 14 -23 22 20 56 13 62 -13 8 -28 -18 -76
-62 -116 l-41 -37 73 3 c59 2 73 6 76 20 3 15 -1 16 -27 7 -16 -6 -38 -9 -48
-7 -17 3 -16 5 2 23 36 36 65 83 65 104 0 53 -84 82 -114 39z"/>
<path d="M3322 3021 c-11 -26 -11 -33 4 -56 15 -24 15 -27 0 -44 -19 -21 -21
-52 -4 -69 7 -7 29 -12 50 -12 30 0 41 5 49 23 11 25 -3 77 -21 77 -7 0 -3 11
8 25 13 16 18 34 14 48 -7 28 -20 37 -57 37 -24 0 -33 -6 -43 -29z m69 -40
c-15 -26 -27 -27 -41 -1 -8 14 -8 26 1 41 l11 21 20 -20 c16 -16 18 -23 9 -41z
m6 -111 c-1 -9 -13 -15 -27 -15 -29 0 -40 36 -19 61 11 14 15 13 31 -8 10 -13
17 -30 15 -38z"/>
<path d="M3537 2962 c-19 -21 -22 -73 -7 -103 15 -28 74 -26 94 3 18 26 10 41
-8 15 -19 -24 -43 -21 -62 9 -13 19 -15 32 -8 52 12 34 43 42 51 13 6 -23 18
-27 28 -11 21 35 -59 54 -88 22z"/>
<path d="M3663 2971 c-4 -3 -8 -35 -8 -71 0 -64 1 -66 25 -62 24 3 25 6 22 58
-3 43 0 55 13 60 9 4 18 5 20 3 10 -11 12 -98 2 -108 -8 -8 -4 -11 13 -11 24
0 25 3 25 57 0 53 2 58 23 61 13 2 22 -2 23 -10 0 -7 2 -29 4 -48 1 -19 -2
-41 -8 -47 -7 -10 -2 -13 23 -13 25 0 30 3 22 13 -6 7 -12 37 -14 67 -3 49 -6
55 -26 58 -13 2 -29 -2 -37 -8 -8 -7 -15 -7 -19 -1 -6 10 -90 12 -103 2z"/>
<path d="M4143 2944 c-8 -22 10 -49 33 -49 14 0 20 8 22 33 3 29 1 32 -23 32
-14 0 -28 -7 -32 -16z m45 -17 c2 -10 -3 -17 -12 -17 -10 0 -16 9 -16 21 0 24
23 21 28 -4z"/>
<path d="M2262 2853 c2 -10 10 -18 18 -18 8 0 16 8 18 18 2 12 -3 17 -18 17
-15 0 -20 -5 -18 -17z"/>
<path d="M3183 2208 c-39 -52 -63 -91 -63 -102 0 -3 18 -6 40 -6 24 0 42 -5
44 -12 2 -7 8 -22 12 -33 7 -17 9 -15 12 13 2 24 8 32 23 32 10 0 19 5 19 10
0 6 -10 10 -21 10 -20 0 -21 4 -17 70 3 39 2 70 -2 70 -4 0 -25 -24 -47 -52z
m27 -48 c0 -36 -2 -40 -25 -40 -14 0 -25 5 -25 11 0 11 38 69 46 69 2 0 4 -18
4 -40z"/>
<path d="M2058 2243 c15 -6 17 -183 2 -183 -5 0 -10 -4 -10 -9 0 -5 27 -8 60
-7 50 1 67 7 95 29 31 24 35 33 35 73 0 58 -12 79 -51 93 -31 11 -157 15 -131
4z m140 -40 c15 -21 16 -77 1 -104 -12 -24 -55 -42 -80 -34 -16 6 -19 17 -19
85 0 54 4 80 13 83 19 6 71 -11 85 -30z"/>
<path d="M3002 2238 c-17 -17 -15 -48 4 -69 15 -17 15 -20 -5 -45 -19 -24 -19
-28 -5 -55 17 -33 47 -38 82 -13 26 18 29 56 6 79 -16 16 -15 25 8 58 10 12
10 22 2 35 -13 21 -74 28 -92 10z m63 -33 c0 -33 -21 -41 -38 -14 -14 22 -1
51 20 47 13 -2 18 -13 18 -33z m-7 -87 c7 -7 12 -22 12 -35 0 -29 -35 -32 -50
-4 -19 37 10 67 38 39z"/>
<path d="M3316 2216 c-20 -43 -20 -46 2 -46 30 -1 65 -35 65 -65 0 -42 -24
-51 -75 -30 -14 5 -18 2 -18 -12 0 -16 6 -20 33 -18 69 3 101 46 76 103 -7 16
-25 34 -41 40 -39 14 -35 30 9 34 52 4 56 28 5 28 -35 0 -42 -4 -56 -34z"/>
<path d="M3527 2172 c-19 -21 -22 -70 -6 -105 15 -34 62 -34 89 0 24 31 18 44
-8 20 -23 -21 -36 -21 -52 -2 -16 19 -16 74 0 89 8 8 16 5 30 -11 29 -36 49
-29 34 11 -9 22 -67 21 -87 -2z"/>
<path d="M3649 2183 c0 -5 0 -34 1 -65 1 -36 -3 -58 -9 -58 -6 0 -11 -3 -11
-7 0 -5 16 -9 35 -10 19 -2 35 2 35 7 0 6 -5 10 -11 10 -7 0 -10 20 -9 53 2
28 2 58 1 65 -1 13 -30 17 -32 5z"/>
<path d="M3708 2184 c-4 -3 2 -14 12 -24 18 -18 19 -34 5 -97 -5 -20 -1 -23
25 -23 29 0 40 13 20 25 -11 7 -13 48 -4 83 5 16 13 22 28 20 19 -3 21 -10 21
-61 0 -39 4 -57 13 -57 19 0 27 4 25 12 -2 4 -5 31 -7 59 -6 65 -17 77 -56 62
-18 -7 -32 -7 -36 -2 -6 10 -37 12 -46 3z"/>
<path d="M4147 2163 c-14 -13 -7 -51 11 -55 29 -8 42 2 42 33 0 24 -4 29 -23
29 -13 0 -27 -3 -30 -7z m36 -17 c6 -15 -1 -26 -15 -26 -4 0 -8 9 -8 20 0 23
15 27 23 6z"/>
<path d="M2287 2073 c-4 -3 -7 -12 -7 -20 0 -11 4 -11 20 -3 11 6 18 15 15 21
-7 11 -19 12 -28 2z"/>
<path d="M14440 903 c-8 -3 -27 -17 -42 -31 -63 -58 -58 -153 8 -171 20 -5 43
-7 52 -4 23 8 52 34 52 46 0 6 -10 1 -23 -11 -29 -28 -61 -28 -88 -1 -38 38
-9 131 49 158 33 16 39 14 58 -19 19 -31 34 -25 34 15 0 17 -7 20 -43 22 -23
1 -49 -1 -57 -4z"/>
<path d="M6318 842 c-48 -75 -113 -158 -132 -169 -20 -12 -20 -12 9 -13 25 0
33 6 42 30 9 23 18 30 37 30 21 0 26 -5 26 -24 0 -13 -6 -27 -12 -29 -7 -3 7
-6 32 -6 31 0 40 2 31 8 -15 10 -17 59 -5 154 7 53 -3 60 -28 19z m-2 -68 c-3
-9 -6 -20 -6 -25 0 -5 -9 -9 -20 -9 -23 0 -24 3 -8 30 15 24 43 27 34 4z"/>
<path d="M10376 743 c3 -16 0 -41 -7 -58 -7 -16 -14 -34 -14 -40 -4 -22 -27
-70 -38 -78 -24 -16 134 2 162 19 59 35 65 144 11 171 -14 7 -46 13 -72 13
-46 0 -47 -1 -42 -27z m107 -16 c25 -29 16 -81 -19 -118 -25 -27 -80 -43 -90
-28 -4 7 19 101 41 167 6 18 45 6 68 -21z"/>
</g>
</svg>
